{
  "accessors": [
    {
      "bufferView": 2,
      "componentType": 5126,
      "count": 1759,
      "max": [
        1.1575877666473389,
        0.71758896112442017,
        2.3792994022369385
      ],
      "min": [
        -1.1831409931182861,
        -0.70267277956008911,
        -1.2050729990005493
      ],
      "type": "VEC3"
    },
    {
      "bufferView": 2,
      "byteOffset": 21108,
      "componentType": 5126,
      "count": 1759,
      "max": [
        0.99993598461151123,
        0.99993520975112915,
        0.9999808669090271
      ],
      "min": [
        -0.99993592500686646,
        -0.9999350905418396,
        -0.99999713897705078
      ],
      "type": "VEC3"
    },
    {
      "bufferView": 1,
      "componentType": 5126,
      "count": 1759,
      "max": [
        0.98296284675598145,
        0.955852210521698
      ],
      "min": [
        0.017037199810147285,
        0.017037199810147285
      ],
      "type": "VEC2"
    },
    {
      "bufferView": 0,
      "componentType": 5125,
      "count": 9078,
      "max": [
        1758
      ],
      "min": [
        0
      ],
      "type": "SCALAR"
    },
    {
      "bufferView": 2,
      "byteOffset": 42216,
      "componentType": 5126,
      "count": 199,
      "max": [
        0.57827228307723999,
        -0.47882869839668274,
        2.11834716796875
      ],
      "min": [
        -0.57827228307723999,
        -0.6978609561920166,
        1.2372066974639893
      ],
      "type": "VEC3"
    },
    {
      "bufferView": 2,
      "byteOffset": 44604,
      "componentType": 5126,
      "count": 199,
      "max": [
        0.61299556493759155,
        -0.78448581695556641,
        0.43232861161231995
      ],
      "min": [
        -0.61299532651901245,
        -1,
        -0.11303235590457916
      ],
      "type": "VEC3"
    },
    {
      "bufferView": 1,
      "byteOffset": 14072,
      "componentType": 5126,
      "count": 199,
      "max": [
        1.7658363580703735,
        0.72312319278717041
      ],
      "min": [
        1.1567420959472656,
        0.17534694075584412
      ],
      "type": "VEC2"
    },
    {
      "bufferView": 0,
      "byteOffset": 36312,
      "componentType": 5125,
      "count": 1080,
      "max": [
        198
      ],
      "min": [
        0
      ],
      "type": "SCALAR"
    }
  ],
  "asset": {
    "extras": {
      "author": "Streja (https://sketchfab.com/Streja)",
      "license": "CC-BY-4.0 (http://creativecommons.org/licenses/by/4.0/)",
      "source": "https://sketchfab.com/3d-models/xyz-hw10-full-pipeline-eve-dusty-282bf850d589448fa662093c0f245511",
      "title": "(XYZ HW#10) Full Pipeline - Eve Dusty"
    },
    "generator": "Sketchfab-8.62.0",
    "version": "2.0"
  },
  "bufferViews": [
    {
      "buffer": 0,
      "byteLength": 40632,
      "byteOffset": 0,
      "name": "floatBufferViews",
      "target": 34963
    },
    {
      "buffer": 0,
      "byteLength": 15664,
      "byteOffset": 40632,
      "byteStride": 8,
      "name": "floatBufferViews",
      "target": 34962
    },
    {
      "buffer": 0,
      "byteLength": 46992,
      "byteOffset": 56296,
      "byteStride": 12,
      "name": "floatBufferViews",
      "target": 34962
    }
  ],
  "buffers": [
    {
      "byteLength": 103288,
      "uri": "scene.bin"
    }
  ],
  "images": [
    {
      "uri": "textures/Body_baseColor.png"
    },
    {
      "uri": "textures/Body_metallicRoughness.png"
    },
    {
      "uri": "textures/Display_baseColor.jpeg"
    }
  ],
  "materials": [
    {
      "doubleSided": true,
      "name": "Body",
      "occlusionTexture": {
        "index": 1,
        "strength": 1,
        "texCoord": 0
      },
      "pbrMetallicRoughness": {
        "baseColorFactor": [
          1,
          1,
          1,
          1
        ],
        "baseColorTexture": {
          "index": 0,
          "texCoord": 0
        },
        "metallicFactor": 1,
        "metallicRoughnessTexture": {
          "index": 1,
          "texCoord": 0
        },
        "roughnessFactor": 1
      }
    },
    {
      "doubleSided": true,
      "name": "Display",
      "pbrMetallicRoughness": {
        "baseColorFactor": [
          1,
          1,
          1,
          1
        ],
        "baseColorTexture": {
          "index": 2,
          "texCoord": 0
        },
        "metallicFactor": 0,
        "roughnessFactor": 1
      }
    }
  ],
  "meshes": [
    {
      "name": "Lp_Body_0",
      "primitives": [
        {
          "attributes": {
            "NORMAL": 1,
            "POSITION": 0,
            "TEXCOORD_0": 2
          },
          "indices": 3,
          "material": 0,
          "mode": 4
        }
      ]
    },
    {
      "name": "Lp_Display_0",
      "primitives": [
        {
          "attributes": {
            "NORMAL": 5,
            "POSITION": 4,
            "TEXCOORD_0": 6
          },
          "indices": 7,
          "material": 1,
          "mode": 4
        }
      ]
    }
  ],
  "nodes": [
    {
      "children": [
        1
      ],
      "name": "RootNode (gltf orientation matrix)",
      "rotation": [
        -0.70710678118654746,
        -0,
        -0,
        0.70710678118654757
      ]
    },
    {
      "children": [
        2
      ],
      "name": "RootNode (model correction matrix)"
    },
    {
      "children": [
        3
      ],
      "matrix": [
        1,
        0,
        0,
        0,
        0,
        0,
        1,
        0,
        0,
        -1,
        0,
        0,
        0,
        0,
        0,
        1
      ],
      "name": "dd3cdb62f3e645ada3762ab571bacc0b.fbx"
    },
    {
      "children": [
        4
      ],
      "name": "RootNode"
    },
    {
      "children": [
        5,
        6
      ],
      "matrix": [
        100,
        0,
        0,
        0,
        0,
        -1.6292067939183141e-05,
        -99.999999999998678,
        0,
        0,
        86.811805725096505,
        -1.414343836796459e-05,
        0,
        0,
        -17.545539855957031,
        0,
        1
      ],
      "name": "Lp"
    },
    {
      "mesh": 0,
      "name": "Lp_Body_0"
    },
    {
      "mesh": 1,
      "name": "Lp_Display_0"
    }
  ],
  "samplers": [
    {
      "magFilter": 9729,
      "minFilter": 9987,
      "wrapS": 10497,
      "wrapT": 10497
    }
  ],
  "scene": 0,
  "scenes": [
    {
      "name": "OSG_Scene",
      "nodes": [
        0
      ]
    }
  ],
  "textures": [
    {
      "sampler": 0,
      "source": 0
    },
    {
      "sampler": 0,
      "source": 1
    },
    {
      "sampler": 0,
      "source": 2
    }
  ]
}

