<svg xmlns="http://www.w3.org/2000/svg" width="256" height="256"><circle fill="#B1B3B5" cx="128" cy="128" r="128"/><path fill="#9E948A" d="M178.8 180.8c.5 1.5 1.1 3 1.5 4.6 8.6 8.8 25.5 22.7 38.3 32.9 1.9-1.9 3.8-3.9 5.6-6-.7-.4-1.3-.8-1.7-1-6.1-2.7-43.7-30.5-43.7-30.5z"/><path fill="#483824" d="M167.6 182.5c5.2-5.5.7-9.9.7-9.9l.1-.7-.1-.1c-.4 3.5-.6 7.1-.7 10.7z"/><path fill="#2A1400" d="M136.5 226.9s-.1.2-.6.4l6 27.9c1.6-.2 3.2-.4 4.7-.6-1.6-11.6-4.7-22.4-8-31.1l-2.1 3.4zm36-51c4.7 13.8 1.7 37.1-.5 48.5-1.1 6.1-4.8 16.5-8.8 26.7 1.8-.5 3.6-1.1 5.4-1.7 5-22 8.8-40 9.1-45.2.7-14.5-2.4-23.4-5.2-28.3z"/><path fill="#6C6660" d="M155 13.7c-.1-.5-.6-.9-2-1.3-.5-.1-1.3-.2-2.3-.2.9.3 1.8.7 2.7 1l1.6.5zm27.5 17.9l4.9 3.1s-4-1.2-3.3 0c.7 1.2 4.6 2.9 4.6 2.9h-2s8.2 10.3 8.8 10.3H192l2 4.8-3.3-1.2 4.9 11.7h-2.9s-.9 7.6 1.5 9.9l-4.4-1.3.1 1.6c1.6-.4 3.1-.4 4.5.1 6.4 2.4 3.1 9.3 2.2 12.9-.9 3.6-5.1 15.1-5.7 20.4-.7 5.3-3.1 12.9-6 12.5-1.1-.2-3-.2-5.1-.2-1.6 11.1-3.5 23.6-4.2 27.3l-1.4 2.7.4.2 8.1-6.2 1.3-4.6 1.7 2.3 1.7-6s-.2 1.8-.2 3.7 4.4-9 4.4-9h2.3l-.4-3.4h1.9c-.8-3.9 2.5-20.2 2.5-20.2l-.4-2.5 2.7-1.6-2.1-1.8 3.3-3.2s-3.3.7-2.9 0c.4-.7 4.4-6 4.4-6H200l3.1-3.2s-3.8 1.1-4.4 1.1c-.6 0 3.8-5.5 3.8-5.5l1-7.8 3.2-2.3-2.9-1.6h1.9l-3.5-2.8s6.7.3 4 0-8.6-11.2-8.6-11.2 5.8-3.4 4.4-3-3.3-1.8-3.3-1.8l3.3-1.1s-2.1-.5-4.6-3c-2.5-2.5-6.5-10.8-8.4-13.8-1.2-1.9-4.3-4-7.1-5.5l3.5 2.7h-2.9zm-13.7-12c-1.2-.7-2.2-1.1-3.1-1.3l2.5 1.2.6.1z"/><path fill="#C08C76" d="M168.6 153.7s-9.3 8.9-11.2 12.7l-1.8-1.7s-1.8 4.6-2.2 5.7c-.4 1.2-1.5-1.4-1.5-1.4l-6.2 5.5-2.6-1.2-.9 1.2-8.4 2.6 1.1-2.6-3.7 4.1.4-2.2-3.5 2.2v22.3s22.7-7.8 34.8-14.8c2.1-1.2 3.7-2.4 4.8-3.6.1-3.5.4-7.1.7-10.7.1-1.6.3-3.1.4-4.7.4-4.5.9-8.8 1.4-12.8l-.9 1.4-.7-2zm-40.5 47.4c-.1-.1-.1-.2-.1-.2v.3l.1-.1zm53.6-100c-.1.6-.1 1.3-.2 1.9.1-.2.1-.4.2-.6.1-.4 0-.8 0-1.3zm.1 4c-.5 3.5-1.2 8.5-2 13.9 2 0 4 0 5.1.2 2.9.5 5.3-7.2 6-12.5.7-5.3 4.9-16.8 5.7-20.4.9-3.6 4.2-10.5-2.2-12.9-1.3-.5-2.9-.5-4.5-.1l.1.9h-2.6l.4 12.1-1.3-2.2v5.5l-2.9 2.9-1.1 7.4-.7 5.2z"/><path fill="#D7A990" d="M128 39.7c2.6-.3 5.2-.3 7.7-.2 9.5.3 17.3 2.6 17.3 2.6-12.4-1.1-25-.4-25-.4v2.7c2.6-.3 5.2-.3 7.7-.2 9.5.3 20.8 2.6 20.8 2.6-12.4-1.1-28.4-.4-28.4-.4v31.4s6.1-.4 10.1 1.9c1.5-2.7 5.1-6.8 13-6.6 9.9.2 19.8 4 19.3 14.7-.5 11.4-10.1 19.2-18.9 18.2-8.8-1-17.4-9.5-14.5-23.9 0 0-2.8-2.1-9.1-2.1v39.2s2.9-.7 6.8-1.9c4-1.2 11.5-.7 13.5 0s4.2 3.1 4.2 3.1h-2.4l6.2 2.9 2.6 3.1 1.1 9.1-1.8-1.9v4.3h-1.1s2.4 9.8 4.4 11.3c2 1.4.5-16 3.7-20.6 2.6-3.7 7.9-7.4 10.7-12 2-3.3 4.3-9.8 5.7-13.6.1-.6.1-1.2.2-1.9-.1-4.2-.5-10.5-1.5-13.7-1.5-5-2-.7-2-.7l.7-8.8-1.8-19.4 1.5 1.9-1.5-8.6 1.8 1.4-6-9.3 4.2 1.2s-1.5-21.7-16.7-25.3l-3.8-1.5 2.8-1-7-1 3-.7s-7.7-3.1-10.1-4.4l8.1 2.2c-.9-.4-1.8-.7-2.7-1-6.4-2.3-13.9-3.8-22.8-3.8v31.1zm30 25.7c7.3 1.2 12.8 6.7 14.8 7.8 0 0-.4 2.7-5.1 0-4.6-2.7-15.2-4.8-18.7-3.4s-7.1 3.5-9.7 3.4c0 0-2.4-4.7 0-5.4 2.4-.8 11.4-3.6 18.7-2.4z"/><path fill="#D7A990" d="M139.1 83.3c-1.6 5.8.1 19.2 12.8 20.6 12.7 1.4 16.2-11.1 16.7-15.8.6-5.4-2.9-11.4-13.1-12.9-9.3-1.3-14.8 2.3-16.4 8.1zM128 145.1s9.3 1.7 14.1-.2c0 0-4.2 4.1-4.4 4.3-.2.2-1.1 2.2-1.1 2.2l.7 1.7s4.4-3.6 7.1-3.8c2.6-.2 4.6 1 7.1-2.4 2.4-3.4 3.1-7.4 3.1-7.4l.9-6.5.2-2.6 1.3.5s-.9-2.2-3.5-3.8-5.1-2.2-6.2-2.2c-1.1 0-7.1-1.4-9.7-.7s-5.7 1.4-9.5 1.4v19.5z"/><path fill="#6C6660" d="M139.2 67.8c-2.4.7 0 5.4 0 5.4 2.6.1 6.2-2 9.7-3.4 3.5-1.4 14.1.7 18.7 3.4s5.1 0 5.1 0c-2-1.1-7.5-6.6-14.8-7.8-7.2-1.2-16.2 1.6-18.7 2.4z"/><path fill="#8F817C" d="M182.5 100.1c0 .3-.3 2.2-.7 5l.7-5z"/><path fill="#8F817C" d="M145.3 11.1c2.5 1.3 10.1 4.4 10.1 4.4l-3 .7 7 1-2.8 1 3.8 1.5c15.1 3.6 16.7 25.3 16.7 25.3l-4.2-1.2 6 9.3-1.8-1.4 1.5 8.6-1.5-1.9 1.8 19.4-.7 8.8s.4-4.3 2 .7c1 3.2 1.3 9.5 1.5 13.7v1.2c.5-1.4.8-2.3.8-2.3l1.1-7.4 2.9-2.9v-5.5l1.3 2.2-.4-12.1h2.6l-.1-.9-.1-1.6 4.4 1.3c-2.4-2.3-1.5-9.9-1.5-9.9h2.9l-4.9-11.7 3.3 1.2-2-4.8h3.5c-.7 0-8.8-10.3-8.8-10.3h2s-4-1.7-4.6-2.9c-.7-1.2 3.3 0 3.3 0l-4.9-3.1h2.9l-3.5-2.7-11.9-9.1-1.1-.3-.6-.1-2.5-1.2-8-3.9-2.7-.7-1.6-.4-8.2-2z"/><path fill="#B5907C" d="M179.8 119.1c.8-5.4 1.5-10.4 2-14 .4-2.8.7-4.6.7-5s-.3.9-.8 2.3c-.1.2-.1.4-.2.6-1.3 3.8-3.7 10.3-5.7 13.6-2.8 4.6-8.1 8.2-10.7 12-3.2 4.6-1.7 22-3.7 20.6 2 1.4 7.1 4.6 7.1 4.6l.7 1.9.9-1.4 3.1-5 .2 1.2.8-1.4 1.4-2.7c.7-3.7 2.6-16.3 4.2-27.3z"/><path fill="#9A8B84" d="M131.1 178.6l3.7-4.1-1.1 2.6 8.4-2.6.9-1.2 2.6 1.2 6.2-5.5s1.1 2.6 1.5 1.4c.4-1.2 2.2-5.7 2.2-5.7l1.8 1.7c2-3.8 11.2-12.7 11.2-12.7s-5.1-3.1-7.1-4.6c-2-1.4-4.4-11.3-4.4-11.3h1.1v-4.3l1.8 1.9-1.1-9.1-2.6-3.1-6.2-2.9h2.4s-2.2-2.4-4.2-3.1-9.5-1.2-13.5 0-6.8 1.9-6.8 1.9v6.2c3.7 0 6.8-.7 9.5-1.4s8.6.7 9.7.7c1.1 0 3.5.5 6.2 2.2s3.5 3.8 3.5 3.8l-1.3-.5-.2 2.6-.9 6.5s-.7 4.1-3.1 7.4c-2.4 3.4-4.4 2.2-7.1 2.4-2.6.2-7.1 3.8-7.1 3.8l-.7-1.7s.9-1.9 1.1-2.2c.2-.2 4.4-4.3 4.4-4.3-4.9 1.9-14.1.2-14.1.2v33.6l3.5-2.2-.2 2.4z"/><path fill="#7B6250" d="M138.1 79.7c-4-2.2-10.1-1.9-10.1-1.9V80c6.2 0 9.1 2.1 9.1 2.1s.2-1 1-2.4zm32.3 8.2c.5-10.7-9.4-14.5-19.3-14.7 9.9.2 19.8 4 19.3 14.7z"/><path fill="#AF8539" d="M151.6 106c8.8 1 18.4-6.8 18.9-18.1.5-10.7-9.4-14.5-19.3-14.7-7.9-.2-11.5 3.8-13 6.6-.8 1.4-1 2.4-1 2.4-3 14.3 5.6 22.8 14.4 23.8zm3.9-30.8c10.2 1.5 13.7 7.5 13.1 12.9-.5 4.7-4 17.2-16.7 15.8-12.7-1.4-14.4-14.8-12.8-20.6 1.6-5.8 7.1-9.4 16.4-8.1z"/><path fill="#C79884" d="M153 42.1s-7.9-2.3-17.3-2.6c-2.5-.1-5.1 0-7.7.2v2s12.6-.8 25 .4zm3.4 4.7s-11.3-2.3-20.8-2.6c-2.5-.1-5.1 0-7.7.2v2c.1 0 16.2-.7 28.5.4z"/><path fill="#614118" d="M128 228.6V256c4.7 0 9.3-.3 13.9-.8l-6-27.9c-.9.6-3 1.3-7.9 1.3z"/><path fill="#432A01" d="M128 205.3v23.2c4.9 0 7-.8 7.9-1.3.4-.3.6-.4.6-.4l2.1-3.4c-4.7-12.6-9.7-21.1-10.5-22.4h-.1v4.3z"/><path fill="#A28160" d="M172.5 175.9c-2.1-3.7-4.1-5.2-4.1-5.2l-.1 1.2-.1.7s4.5 4.4-.7 9.9c-1.1 1.2-2.6 2.4-4.8 3.6-12.1 7-34.8 14.8-34.8 14.8s.1.1.1.2c.8 1.4 5.8 9.8 10.5 22.4 3.3 8.7 6.4 19.5 8 31.1 5.7-.8 11.2-2 16.6-3.6 4-10.2 7.7-20.6 8.8-26.7 2.3-11.3 5.3-34.6.6-48.4z"/><path fill="#AA9F94" d="M180.4 185.4c3.8 12.8 5.9 29.5 11.7 43.2 1.1 2.7 2.5 5.3 4.1 7.8 8.2-5.2 15.7-11.2 22.5-18-12.8-10.3-29.7-24.2-38.3-33z"/><path fill="#C0B2A6" d="M180.4 185.4c-.5-1.6-1-3.2-1.5-4.6-2.4-6.4-5.5-11.3-10.1-13.8l-.2 3.6s2 1.5 4.1 5.2c2.8 4.9 5.9 13.8 5.1 28.4-.3 5.1-4.1 23.1-9.1 45.2 9.8-3.3 19-7.7 27.6-13.1-1.6-2.5-3-5.1-4.1-7.8-5.9-13.6-8-30.3-11.8-43.1z"/><path fill="#817A73" d="M75.6 185.4c.5-1.6 1-3.2 1.5-4.6 0 0-37.6 27.8-43.7 30.6-.5.2-1.1.6-1.7 1 1.8 2 3.7 4 5.6 6 12.8-10.3 29.7-24.2 38.3-33z"/><path fill="#483824" d="M87.7 171.8l.1.7s-4.5 4.4.7 9.9c-.1-3.5-.4-7.1-.7-10.7l-.1.1z"/><path fill="#190000" d="M83.5 175.9c-2.8 4.9-5.9 13.8-5.1 28.4.3 5.1 4.1 23.1 9.1 45.2 1.8.6 3.6 1.1 5.4 1.7-4-10.2-7.7-20.6-8.8-26.7-2.3-11.5-5.3-34.8-.6-48.6zm36 51l-2.1-3.4c-3.3 8.7-6.4 19.5-8 31.1 1.6.2 3.2.4 4.7.6l6-27.9c-.5-.2-.6-.4-.6-.4z"/><path fill="#5B5650" d="M90.2 18.3c-.8.2-1.9.7-3.1 1.3l.6-.1 2.5-1.2zm-14 100.8c-2 0-4 0-5.1.2-2.9.5-5.3-7.2-6-12.5-.7-5.3-4.9-16.8-5.7-20.4-.9-3.6-4.2-10.5 2.2-12.9 1.3-.5 2.9-.5 4.5-.1l.1-1.6-4.4 1.3c2.4-2.3 1.5-9.9 1.5-9.9h-2.9l4.9-11.7-3.3 1.2 2-4.8h-3.6.1c.7 0 8.8-10.3 8.8-10.3h-2s4-1.7 4.6-2.9c.7-1.2-3.3 0-3.3 0l4.9-3.1h-2.9l3.5-2.7c-2.8 1.6-5.9 3.6-7.1 5.5-1.9 3-5.8 11.3-8.4 13.8-2.5 2.5-4.6 3-4.6 3l3.3 1.1s-1.9 2.3-3.3 1.8 4.4 3 4.4 3-5.8 10.9-8.6 11.2 4 0 4 0l-3.5 2.8h1.9l-2.9 1.6 3.2 2.3 1 7.8s4.4 5.5 3.8 5.5c-.6 0-4.4-1.1-4.4-1.1l3.1 3.2h-2.7s4 5.3 4.4 6c.4.7-2.9 0-2.9 0l3.3 3.2-2.1 1.8 2.7 1.6-.4 2.5s3.3 16.3 2.5 20.2h1.9l-.4 3.4h2.3s4.4 10.8 4.4 9-.2-3.7-.2-3.7l1.7 6 1.7-2.3 1.3 4.6 8.1 6.2.4-.2-1.4-2.7c-.9-3.3-2.8-15.9-4.4-26.9zm29-106.9c-1 0-1.8.1-2.3.2-1.3.3-1.8.8-2 1.3l1.6-.4c.9-.4 1.8-.8 2.7-1.1z"/><path fill="#B17D6B" d="M87.3 167c.2 1.6.3 3.1.4 4.7.3 3.6.5 7.2.7 10.7 1.1 1.2 2.6 2.4 4.8 3.6 12.1 7 34.8 14.8 34.8 14.8v-22.3l-3.5-2.2.4 2.2-3.7-4.1 1.1 2.6-8.4-2.6-.9-1.2-2.6 1.2-6.2-5.5s-1.1 2.6-1.5 1.4c-.4-1.2-2.2-5.7-2.2-5.7l-1.8 1.7c-2-3.8-11.2-12.7-11.2-12.7l-.7 1.9-.9-1.4c.5 4.1 1 8.4 1.4 12.9zm40.7 34.2v-.3s-.1.1-.1.2l.1.1zm-53.8-98.8c.1.2.1.4.2.6-.1-.6-.1-1.2-.2-1.9.1.5 0 .9 0 1.3zm-4.6-12.6v-5.5l-1.3 2.2.4-12.1H66l.1-.9c-1.6-.4-3.1-.4-4.5.1-6.4 2.4-3.1 9.3-2.2 12.9.9 3.6 5.1 15.1 5.7 20.4.7 5.3 3.1 12.9 6 12.5 1.1-.2 3-.2 5.1-.2-.8-5.4-1.5-10.4-2-14l-.7-5-1.1-7.4-2.8-3z"/><path fill="#C08C76" d="M110.7 11.1c-2.5 1.3-10.1 4.4-10.1 4.4l3 .7-7 1 2.8 1-3.8 1.5C80.4 23.3 78.8 45 78.8 45l4.2-1.2-6 9.3 1.8-1.4-1.5 8.6 1.5-1.9L77 77.8l.7 8.8s-.4-4.3-2 .7c-1 3.2-1.3 9.5-1.5 13.7.1.6.1 1.3.2 1.9 1.3 3.8 3.7 10.3 5.7 13.6 2.8 4.6 8.1 8.2 10.7 12 3.2 4.6 1.7 22 3.7 20.6 2-1.4 4.4-11.3 4.4-11.3h-1.1v-4.3l-1.8 1.9 1.1-9.1 2.6-3.1 6.2-2.9h-2.4s2.2-2.4 4.2-3.1 9.5-1.2 13.5 0 6.8 1.9 6.8 1.9v-39c-6.2 0-9.1 2.1-9.1 2.1 2.9 14.4-5.7 22.9-14.5 23.9S86 99.3 85.5 88c-.5-10.7 9.4-14.5 19.3-14.7 7.9-.2 11.5 3.8 13 6.6 4-2.2 10.1-1.9 10.1-1.9V46.4s-16.1-.7-28.4.4c0 0 11.3-2.3 20.8-2.6 2.5-.1 5.1 0 7.7.2v-2.7s-12.6-.8-25 .4c0 0 7.9-2.3 17.3-2.6 2.5-.1 5.1 0 7.7.2V8.4c-8.8 0-16.4 1.5-22.8 3.8-.9.3-1.8.7-2.7 1l8.2-2.1zm6.1 56.7c2.4.7 0 5.4 0 5.4-2.6.1-6.2-2-9.7-3.4-3.5-1.4-14.1.7-18.7 3.4s-5.1 0-5.1 0c2-1.1 7.5-6.6 14.8-7.8 7.2-1.2 16.2 1.6 18.7 2.4z"/><path fill="#C08C76" d="M100.5 75.2c-10.2 1.5-13.7 7.5-13.1 12.9.5 4.7 4 17.2 16.7 15.8 12.7-1.4 14.4-14.8 12.8-20.6-1.6-5.8-7.1-9.4-16.4-8.1zm18 48.8c-2.6-.7-8.6.7-9.7.7-1.1 0-3.5.5-6.2 2.2s-3.5 3.8-3.5 3.8l1.3-.5.2 2.6.9 6.5s.7 4.1 3.1 7.4c2.4 3.4 4.4 2.2 7.1 2.4 2.6.2 7.1 3.8 7.1 3.8l.7-1.7s-.9-1.9-1.1-2.2c-.2-.2-4.4-4.3-4.4-4.3 4.9 1.9 14.1.2 14.1.2v-19.6c-3.8.2-6.9-.5-9.6-1.3z"/><path fill="#5B5650" d="M83.2 73.1s.4 2.7 5.1 0c4.6-2.7 15.2-4.8 18.7-3.4s7.1 3.5 9.7 3.4c0 0 2.4-4.7 0-5.4-2.4-.7-11.5-3.6-18.7-2.4-7.3 1.3-12.8 6.7-14.8 7.8z"/><path fill="#796E69" d="M73.5 31.6l-4.9 3.1s4-1.2 3.3 0c-.7 1.2-4.6 2.9-4.6 2.9h2s-8.2 10.3-8.8 10.3H64l-2 4.8 3.3-1.2-4.9 11.7h2.9s.9 7.6-1.5 9.9l4.4-1.3-.1 1.6-.1 1h2.6l-.4 12.1 1.3-2.2v5.5l2.9 2.9 1.1 7.4s.3.9.8 2.3v-1.2c.1-4.2.5-10.5 1.5-13.7 1.5-5 2-.7 2-.7l-.7-8.8 1.8-19.4-1.5 1.9 1.5-8.6-1.8 1.4 6-9.3-4.3 1s1.5-21.7 16.7-25.3l3.8-1.5-2.8-1 7-1-3-.7s7.7-3.1 10.1-4.4l-8.1 2.2-1.6.4-2.7.7-8 3.9-2.5 1.2-.6.1-1.1.3L74.1 29l-3.5 2.7h2.9z"/><path fill="#796E69" d="M74.2 105.1c-.4-2.8-.7-4.6-.7-5l.7 5z"/><path fill="#9D7E6C" d="M87.4 153.7s5.1-3.1 7.1-4.6c-2 1.4-.5-16-3.7-20.6-2.6-3.7-7.9-7.4-10.7-12-2-3.3-4.3-9.8-5.7-13.6-.1-.2-.1-.4-.2-.6-.5-1.4-.8-2.3-.8-2.3 0 .3.3 2.2.7 5 .5 3.5 1.2 8.6 2 14 1.6 11.1 3.5 23.6 4.2 27.3l1.4 2.7.8 1.4.2-1.2 3.1 5 .9 1.4.7-1.9z"/><path fill="#80756F" d="M128 145.1s-9.3 1.7-14.1-.2c0 0 4.2 4.1 4.4 4.3.2.2 1.1 2.2 1.1 2.2l-.7 1.7s-4.4-3.6-7.1-3.8c-2.6-.2-4.6 1-7.1-2.4-2.4-3.4-3.1-7.4-3.1-7.4l-.9-6.5-.2-2.6-1.3.5s.9-2.2 3.5-3.8 5.1-2.2 6.2-2.2c1.1 0 7.1-1.4 9.7-.7s5.7 1.4 9.5 1.4v-6.2s-2.9-.7-6.8-1.9c-4-1.2-11.5-.7-13.5 0s-4.2 3.1-4.2 3.1h2.4l-6.2 2.9-2.6 3.1-1.1 9.1 1.8-1.9v4.3h1.1s-2.4 9.8-4.4 11.3c-2 1.4-7.1 4.6-7.1 4.6s9.3 8.9 11.2 12.7l1.8-1.7s1.8 4.6 2.2 5.7c.4 1.2 1.5-1.4 1.5-1.4l6.2 5.5 2.6-1.2.9 1.2 8.4 2.6-1.1-2.6 3.7 4.1-.4-2.2 3.5 2.2v-33.8z"/><path fill="#6E5847" d="M117.9 79.7c.8 1.4 1 2.4 1 2.4s2.8-2.1 9.1-2.1v-2.2s-6.1-.3-10.1 1.9zm-13-6.6c-9.9.2-19.8 4-19.3 14.7-.5-10.6 9.4-14.4 19.3-14.7z"/><path fill="#977430" d="M104.9 73.1c-9.9.3-19.8 4-19.3 14.7.4 11.4 10 19.2 18.8 18.2s17.4-9.5 14.5-23.9c0 0-.2-1-1-2.4-1.5-2.7-5.1-6.8-13-6.6zm-.7 30.8C91.5 105.3 88 92.8 87.5 88.1c-.6-5.4 2.9-11.4 13.1-12.9 9.2-1.3 14.8 2.3 16.4 8.1 1.6 5.8-.2 19.2-12.8 20.6z"/><path fill="#9D7E6C" d="M120.3 39.5c-9.5.3-17.3 2.6-17.3 2.6 12.4-1.1 25-.4 25-.4v-2c-2.6-.3-5.2-.3-7.7-.2zm0 4.7c-9.5.3-20.8 2.6-20.8 2.6 12.4-1.1 28.4-.4 28.4-.4v-2c-2.5-.3-5.1-.3-7.6-.2z"/><path fill="#432A01" d="M120.1 227.3l-6 27.9c4.6.5 9.2.8 13.9.8v-27.4c-4.9 0-7-.7-7.9-1.3z"/><path fill="#2A1400" d="M128 220.2v-19h-.1c-.8 1.4-5.8 9.8-10.5 22.4l2.1 3.4s.1.2.6.4c.9.5 3 1.3 7.9 1.3v-8.5z"/><path fill="#886D50" d="M127.9 201.1c.1-.1.1-.2.1-.2s-22.7-7.8-34.8-14.8c-2.1-1.2-3.7-2.4-4.8-3.6-5.2-5.5-.7-9.9-.7-9.9l-.1-.7-.1-1.2s-2 1.5-4.1 5.2c-4.7 13.8-1.7 37.1.5 48.5 1.1 6.1 4.8 16.5 8.8 26.7 5.4 1.5 10.9 2.7 16.6 3.6 1.6-11.6 4.7-22.4 8-31.1 4.8-12.6 9.8-21.1 10.6-22.5z"/><path fill="#9E948A" d="M75.6 185.4c-8.6 8.8-25.5 22.7-38.3 32.9 6.8 6.8 14.3 12.9 22.5 18 1.6-2.5 3-5.1 4.1-7.8 5.8-13.6 7.9-30.3 11.7-43.1z"/><path fill="#AA9F94" d="M83.5 175.9c2.1-3.7 4.1-5.2 4.1-5.2l-.2-3.6c-4.7 2.4-7.8 7.4-10.1 13.8-.6 1.5-1.1 3-1.5 4.6-3.8 12.8-5.9 29.5-11.7 43.2-1.1 2.7-2.5 5.3-4.1 7.8 8.6 5.4 17.8 9.8 27.6 13.1-5-22-8.8-40-9.1-45.2-.9-14.7 2.2-23.6 5-28.5z"/></svg>