<svg xmlns="http://www.w3.org/2000/svg" width="256" height="256"><circle fill="#B1B3B5" cx="128" cy="128" r="128"/><path fill="#2E0C18" d="M93.5 190.9s-2.1.9-4.9 3.4c5.4 11.1 21.1 40.9 39.3 50.3v-43l-34.4-10.7z"/><path fill="#24232E" d="M127.9 244.5c-18.1-9.4-33.9-39.2-39.3-50.3-3.9 3.4-9.1 9.8-12.6 21.3l-3.6-1.2s-.5-1.1-1.4-2.9c1.6 11.5 3.8 23.2 6 34.1 15.6 6.8 32.8 10.6 50.9 10.6v-11.6z"/><path fill="#8E7055" d="M127.9 188.9c-4.2-.1-6.7-1.9-6.7-1.9-1-.7 0 0-1.9-1s-1.4 0-2.6 0c-1.2 0-3.6.2-5 .5s-3.4 0-6.5 0h-.5c7.7 5.8 15.7 10.9 23.3 14.3v-11.9h-.1z"/><path fill="#2B2B36" d="M60.7 196.3l-26.2 4.5-10.5 2c9.1 12.6 20.4 23.5 33.4 32.1-1.7-20.4 3.3-38.6 3.3-38.6zm-33.3-14.4c-4 1.4-9 2.7-13.7 3.9 1.9 3.7 4 7.4 6.2 10.9l10.9-15.9c-1.1.2-2.3.6-3.4 1.1z"/><path fill="#343440" d="M56 165.6c1.9-2.7 3-4.5 4-6-7.9 3.5-18.5 8.6-22.9 11.8l-6.3 9.2-10.9 15.9c1.3 2.1 2.7 4.2 4.2 6.2l10.5-2 26.2-4.5s-5 18.2-3.3 38.5c6.2 4.1 12.7 7.6 19.5 10.6-2.2-10.8-4.3-22.5-6-34.1-4.7-9.5-18.9-40-15-45.6z"/><path fill="#3B1924" d="M71 211.4c.9 1.8 1.4 2.9 1.4 2.9l3.6 1.2c3.5-11.5 8.7-17.9 12.6-21.3 2.8-2.5 4.9-3.4 4.9-3.4l34.4 10.6v-.7c-7.6-3.3-15.6-8.5-23.3-14.3-2.6-.1-2.4-1-2.9-1.7s-3.8-2.4-6-2.9-2.2-.5-3.4-.5c-1.2 0-2.6-.2-5.3-1-2.6-.7-5.7-1.9-7.4-2.9s-2.9-2.2-2.9-2.2-3.4-1.2-3.6-1.9-.2-1.2-.5-2.2c-.2-1-1.7-1.7-2.6-3.4-1-1.7-.2-1.2-3.6-6.9s0 0-2.6-3.1c-.7-.8-1-1.5-1.1-1.9-.5.5-1 1-1.4 1.5-.5.6-1 1.3-1.4 1.9-1 1.5-2.1 3.3-4 6-3.8 6 10.4 36.5 15.1 46.2z"/><path fill="#8E7055" d="M64.9 100.1c0-2.6-.2-2.2-.2-4.6s-.2-2.9-.2-5.5 0 0 .2-1.7 0-1.4 0-2.9c0-1.4.5-2.8 1.8-5-1.1-.5-2.3-.5-3.3.5-3.4 3.4-.7 4.8 0 11.7.7 6.9 1 11.5.7 16.8 0 .9.1 1.7.4 2.2.7-4.2 1.1-5.4 1.1-7.3 0-2-.5-1.6-.5-4.2z"/><path fill="#A58162" d="M127.9 125.5h-11s-1.2 0-1.9.2-2.2.7-2.2.7h-3.6c-2.6 0-2.9 1.7-3.6 2.2-.7.5-1.2.5-2.4 1.2s-3.4 2.9-3.4 2.9l-1.7 1.7v4.4c0 1.2 1.4 2.4 1.4 2.4s1.4.5 3.4.5 1.4 0 2.9-.2c1.4-.2 1.7 0 2.9-1s1.4-.2 2.2-.7c.7-.5 4.3-1.4 4.3-1.4l12.7-.2v-12.7zm0-88.2c-6.6-.1-13-3.6-20.1-2.1-7.2 1.4-15.6 7.9-15.6 7.9h-3.4c-.7 0-1.9.2-2.6.5S84.3 45 84.3 45s-1 2.2-1.4 2.9c-.5.7-.7 1.9-1 3.4-.2 1.4-.7 3.1-.7 3.1v3.4l.7 2.9s-1.7 5.5-4.3 9.6C75 74.4 74.7 89.2 74.2 95c-.5 5.7-2.4 10.1-1.9 20.8C72.8 126.4 86 136 86 136l4.6-1.7s1-1.4 1.7-2.4 1-.7 1.9-3.1.5-1.2.5-2.2c0-1 1.2-3.8 1.2-3.8s1.9-1 2.6-1.9c.7-1 1-1 1.9-2.4 1-1.4 3.1-1.7 3.1-1.7l2.6-.7c2.6-.7 1.9-.7 3.1-1.2 1.2-.5 0 0 6.5-1.2s2.9.2 3.8.2c.9 0 7.2 1.4 8.4 1.6V37.3zm-7.8 31.4c-.7 5-6.2 3.8-10.8 2.2s-18.4.7-24.1 9.1l-1-1.2s-1-9.1 14.8-14.4c9-3 21.8-.7 21.1 4.3z"/><path fill="#424042" d="M63.9 158.1c2.6 3.1-.7-2.6 2.6 3.1s2.6 5.3 3.6 6.9c1 1.7 2.4 2.4 2.6 3.4.2 1 .2 1.4.5 2.2s3.6 1.9 3.6 1.9 1.2 1.2 2.9 2.2 4.8 2.2 7.4 2.9c2.6.7 4.1 1 5.3 1 1.2 0 1.2 0 3.4.5s5.5 2.2 6 2.9c.5.7.3 1.6 2.9 1.7h.5c3.1 0 5 .2 6.5 0s3.8-.5 5-.5c1.2 0 .7-1 2.6 0 1.9 1 1 .2 1.9 1 0 0 2.6 1.8 6.7 1.9V138l-12.7.2s-3.6 1-4.3 1.4c-.7.5-1-.2-2.2.7-1.2 1-1.4.7-2.9 1-1.4.2-1 .2-2.9.2s-3.4-.5-3.4-.5-1.4-1.2-1.4-2.4v-4.4l1.7-1.7s2.2-2.2 3.4-2.9c1.2-.7 1.7-.7 2.4-1.2s1-2.2 3.6-2.2h3.6s1.4-.5 2.2-.7c.7-.2 1.9-.2 1.9-.2h11v-9.8c-1.2-.3-7.5-1.6-8.4-1.6-1 0 2.6-1.4-3.8-.2-6.5 1.2-5.3.7-6.5 1.2-1.2.5-.5.5-3.1 1.2l-2.6.7s-2.2.2-3.1 1.7c-1 1.4-1.2 1.4-1.9 2.4s-2.6 1.9-2.6 1.9-1.2 2.9-1.2 3.8c0 1 .5-.2-.5 2.2s-1.2 2.2-1.9 3.1-1.7 2.4-1.7 2.4L86 136s-13.2-9.6-13.7-20.4c-.5-10.8 1.4-15.1 1.9-20.8.5-5.7.7-20.6 3.4-24.7 2.6-4.1 4.3-9.6 4.3-9.6l-.7-2.9v-3.4s.5-1.7.7-3.1c.2-1.4.5-2.6 1-3.4.5-.7 1.4-2.9 1.4-2.9s1.2-1.2 1.9-1.4 1.9-.5 2.6-.5h3.4s8.4-6.5 15.6-7.9c7.1-1.4 13.5 2.1 20.1 2.1v-29h.1c-1.4-.1-18.8-.7-28.4 6.2-10.1 7.2-6.2 6.2-7.2 6.9s-3.8 2.4-4.8 2.9.5-4.3-2.6.7-2.6 5-3.8 6.2c-1.2 1.2-2.4 1.9-3.6 3.6-1.2 1.7-1.9 4.1-1.9 4.1s.5 2.4-.2 4.1-.2.7-1.7 3.8-2.9 5.7-2.9 6.9c0 1.2-1 2.6-1.2 3.8-.2 1.2-.5 1-1 3.1-.5 2.2-1.4 4.6-1.4 4.6l-1.4 1s1.4 10.5 1.4 11.3.7.5-.7 2.9c-.1.1-.1.2-.1.3-1.3 2.2-1.8 3.6-1.8 5s.2 1.2 0 2.9-.2-1-.2 1.7.2 3.1.2 5.5.2 1.9.2 4.6c0 2.6.5 2.2.5 4.3 0 1.9-.4 3.1-1.1 7.3l-.3 1.8c-1 5.7-1.2 6.7-1.7 7.7s-.5-.5-.7 3.6c-.2 4.1-.5 3.4.5 5.5s1.7-.2 1.7 3.6c0 3.8-.2 3.1-.2 5s0 1.4-.2 3.1c-.2 1.7 1.9 5.7 1 6.7s-.2 6.2-.2 6.2-1.4 0-1.1 1.2c-.2.4.1 1 .8 1.9z"/><path fill="#424042" d="M99 64.4c-15.8 5.3-14.8 14.4-14.8 14.4l1 1.2c5.7-8.4 19.6-10.8 24.2-9.1s10.1 2.9 10.8-2.2c.6-5-12.2-7.3-21.2-4.3z"/><path fill="#3B1924" d="M128 201.5V189h-.1v11.9l.1.6-.1 43v.1c18.2-9.3 34.1-39.3 39.5-50.4-2.8-2.5-4.9-3.4-4.9-3.4L128 201.5z"/><path fill="#2A2934" d="M183.6 214.3l-3.6 1.2c-3.5-11.5-8.7-17.9-12.6-21.3-5.4 11.1-21.3 41.1-39.5 50.4V256h.1c18.1 0 35.4-3.8 51-10.6 2.2-10.8 4.3-22.5 6-34.1-.9 1.9-1.4 3-1.4 3z"/><path fill="#A58162" d="M128 200.9c7.6-3.3 15.7-8.5 23.4-14.3h-.5c-3.1 0-5 .2-6.5 0s-3.8-.5-5-.5c-1.2 0-.7-1-2.6 0-1.9 1-1 .2-1.9 1 0 0-2.6 1.9-6.9 1.9v11.9z"/><path fill="#343440" d="M225.2 180.6l10.9 15.9c2.2-3.5 4.3-7.1 6.2-10.9-4.7-1.1-9.6-2.4-13.7-3.9-1.1-.3-2.3-.7-3.4-1.1zm-29.9 15.7s5 18.2 3.3 38.5c13-8.6 24.3-19.5 33.4-32.1l-10.5-2-26.2-4.4z"/><path fill="#3F3F4B" d="M218.9 171.4c-4.4-3.2-15-8.2-22.9-11.8 1 1.5 2.1 3.3 4 6 3.9 5.6-10.3 36.1-15 45.7-1.6 11.5-3.8 23.2-6 34.1 6.8-3 13.4-6.5 19.5-10.6 1.8-20.4-3.3-38.5-3.3-38.5l26.2 4.5 10.5 2c1.5-2 2.9-4.1 4.2-6.2l-10.9-15.9-6.3-9.3z"/><path fill="#502B36" d="M192.1 158.1c-2.6 3.1.7-2.6-2.6 3.1s-2.6 5.3-3.6 6.9c-1 1.7-2.4 2.4-2.6 3.4-.2 1-.2 1.4-.5 2.2s-3.6 1.9-3.6 1.9-1.2 1.2-2.9 2.2-4.8 2.2-7.4 2.9c-2.6.7-4.1 1-5.3 1-1.2 0-1.2 0-3.4.5s-5.5 2.2-6 2.9c-.5.7-.3 1.6-2.9 1.7-7.7 5.8-15.8 11-23.4 14.3v.6l34.5-10.7s2.1.9 4.9 3.4c3.9 3.4 9.1 9.8 12.6 21.3l3.6-1.2s.5-1.1 1.4-2.9c4.7-9.7 18.9-40.2 15-45.7-1.9-2.7-3-4.5-4-6-.5-.7-.9-1.3-1.4-1.9-.4-.5-.9-1-1.4-1.5 0 .1-.3.7-1 1.6z"/><path fill="#A58162" d="M191.4 88.4c.2 1.7.2-1 .2 1.7s-.2 3.1-.2 5.5-.2 1.9-.2 4.6c0 2.6-.5 2.2-.5 4.3 0 1.9.4 3.1 1.1 7.3.3-.6.4-1.3.4-2.2-.2-5.3 0-9.8.7-16.8.7-6.9 3.4-8.4 0-11.7-1-1-2.1-1-3.3-.5 1.3 2.2 1.8 3.6 1.8 5 0 1.3-.3 1.1 0 2.8z"/><path fill="#B28A6A" d="M136.5 114c1 0-2.6-1.4 3.8-.2 6.5 1.2 5.3.7 6.5 1.2 1.2.5.5.5 3.1 1.2l2.6.7s2.2.2 3.1 1.7c1 1.4 1.2 1.4 1.9 2.4s2.6 1.9 2.6 1.9 1.2 2.9 1.2 3.8c0 1-.5-.2.5 2.2s1.2 2.2 1.9 3.1 1.7 2.4 1.7 2.4l4.6 1.7s13.2-9.6 13.7-20.4c.5-10.8-1.4-15.1-1.9-20.8-.5-5.7-.7-20.6-3.4-24.7-2.6-4.1-4.3-9.6-4.3-9.6l.7-2.9v-3.4s-.5-1.7-.7-3.1c-.2-1.4-.5-2.6-1-3.4-.5-.7-1.4-2.9-1.4-2.9s-1.2-1.2-1.9-1.4-1.9-.5-2.6-.5h-3.4s-8.4-6.5-15.6-7.9c-7.2-1.4-13.7 2.2-20.4 2.2v78.3c.1.1 7.8-1.6 8.7-1.6zM157 64.4c15.8 5.3 14.8 14.4 14.8 14.4l-1 1.2c-5.7-8.4-19.6-10.8-24.2-9.1s-10.1 2.9-10.8-2.2c-.6-5 12.2-7.3 21.2-4.3zm-16.2 73.8s3.6 1 4.3 1.4c.7.5 1-.2 2.2.7 1.2 1 1.4.7 2.9 1 1.4.2 1 .2 2.9.2s3.4-.5 3.4-.5 1.4-1.2 1.4-2.4v-4.4l-1.7-1.7s-2.2-2.2-3.4-2.9c-1.2-.7-1.7-.7-2.4-1.2s-1-2.2-3.6-2.2h-3.6s-1.4-.5-2.2-.7c-.7-.2-1.9-.2-1.9-.2h-11.2v12.5l12.9.4z"/><path fill="#545153" d="M127.9 16.5v20.8c6.7 0 13.2-3.6 20.4-2.2 7.2 1.4 15.6 7.9 15.6 7.9h3.4c.7 0 1.9.2 2.6.5s1.9 1.4 1.9 1.4 1 2.2 1.4 2.9c.5.7.7 1.9 1 3.4.2 1.4.7 3.1.7 3.1v3.4l-.7 2.9s1.7 5.5 4.3 9.6c2.6 4.1 2.9 18.9 3.4 24.7.5 5.7 2.4 10.1 1.9 20.8-.6 10.7-13.8 20.3-13.8 20.3l-4.6-1.7s-1-1.4-1.7-2.4-1-.7-1.9-3.1-.5-1.2-.5-2.2c0-1-1.2-3.8-1.2-3.8s-1.9-1-2.6-1.9c-.7-1-1-1-1.9-2.4-1-1.4-3.1-1.7-3.1-1.7l-2.6-.7c-2.6-.7-1.9-.7-3.1-1.2-1.2-.5 0 0-6.5-1.2s-2.9.2-3.8.2c-1 0-8.6 1.7-8.6 1.7v9.8h11.2s1.2 0 1.9.2 2.2.7 2.2.7h3.6c2.6 0 2.9 1.7 3.6 2.2.7.5 1.2.5 2.4 1.2s3.4 2.9 3.4 2.9l1.7 1.7v4.4c0 1.2-1.4 2.4-1.4 2.4s-1.4.5-3.4.5-1.4 0-2.9-.2c-1.4-.2-1.7 0-2.9-1s-1.4-.2-2.2-.7c-.7-.5-4.3-1.4-4.3-1.4l-12.9-.2v51h.1c4.3 0 6.9-1.9 6.9-1.9 1-.7 0 0 1.9-1s1.4 0 2.6 0c1.2 0 3.6.2 5 .5s3.4 0 6.5 0h.5c2.6-.1 2.4-1 2.9-1.7s3.8-2.4 6-2.9 2.2-.5 3.4-.5c1.2 0 2.6-.2 5.3-1 2.6-.7 5.7-1.9 7.4-2.9s2.9-2.2 2.9-2.2 3.4-1.2 3.6-1.9.2-1.2.5-2.2c.2-1 1.7-1.7 2.6-3.4 1-1.7.2-1.2 3.6-6.9s0 0 2.6-3.1c.7-.8 1-1.5 1.1-1.9.3-1.2-1.1-1.2-1.1-1.2s.7-5.3-.2-6.2 1.2-5 1-6.7c-.2-1.7-.2-1.2-.2-3.1 0-1.9-.2-1.2-.2-5s.7-1.4 1.7-3.6.7-1.4.5-5.5c-.2-4.1-.2-2.6-.7-3.6-.5-1-.7-1.9-1.7-7.7-.1-.7-.2-1.3-.3-1.8-.7-4.2-1.1-5.4-1.1-7.3 0-2.2.5-1.7.5-4.3 0-2.6.2-2.2.2-4.6s.2-2.9.2-5.5 0 0-.2-1.7 0-1.4 0-2.9c0-1.4-.5-2.8-1.8-5-.1-.1-.1-.2-.1-.3-1.4-2.4-.7-2.2-.7-2.9s1.4-11.3 1.4-11.3l-1.4-1s-1-2.4-1.4-4.6c-.5-2.2-.7-1.9-1-3.1-.2-1.2-1.2-2.6-1.2-3.8 0-1.2-1.4-3.8-2.9-6.9s-1-2.2-1.7-3.8-.2-4.1-.2-4.1-.7-2.4-1.9-4.1c-1.2-1.7-2.4-2.4-3.6-3.6-1.2-1.2-.7-1.2-3.8-6.2s-1.7-.2-2.6-.7-3.8-2.2-4.8-2.9 2.9.2-7.2-6.9c-9.6-6.9-27-6.3-28.4-6.2h-.1v8.5z"/><path fill="#545153" d="M146.7 70.9c4.6-1.7 18.4.7 24.2 9.1l1-1.2s1-9.1-14.8-14.4c-8.9-3-21.8-.7-21.1 4.3.6 5.1 6.1 3.9 10.7 2.2z"/></svg>