<svg xmlns="http://www.w3.org/2000/svg" width="256" height="256"><circle fill="#B1B3B5" cx="128" cy="128" r="128"/><path fill="#A37864" d="M77.6 100.7c-.3-1-.6-1.9-.9-2.6-.7-1-1.5-1.5-2.4-1.8-1.4-.3-2.5-.3-2.5-.3l-1.3-5.4-3.2 1.6V92c-.4.6-.6 1.4-.6 2.5 0 4.2 2.6 8.3 3.8 14.7s-1.3 13.4 2.9 16.6c2.4 1.8 6.1 2.6 8.9 2.9-1.6-7.7-3.1-15.6-3.6-18.7-.3-1.4-.6-4.8-1.1-9.3zm12.5 70.6v.3l.5 3.3c.9 4.2 3.6 11.2 11 16.7 11.5 8.7 24.2 16.8 26 17.9l.4.1v-33.3c-15.8 0-19.2-3.4-28.3-11.5-5.9-5.2-9.1-9.1-11.2-13.1.5 5 1 10.9 1.1 16.5l.5 3.1z"/><path fill="#C08C76" d="M99.7 165c9.1 8.1 12.5 11.5 28.3 11.5V44.6s-13.7 1.9-21.7-3.5c-.4-.3-.7-.5-1.1-.7-6.3-1.8-10.4.8-11.3 2.3-1 1.4-6.2 5.2-8.8 7-.6.7-1.2 1.3-1.6 1.9-.5 2.6-1.5 9.5-.2 14.4 1.1 4.2 1.3 9 .4 14.1-.1 1.8-.5 3.6-1.1 5.4-.7 2.2-1.3 4.6-1.6 7.1-.8 8.7.7 20.7.7 20.7-1.2-1.1-1.9-2.8-2.4-4.8l-.2-.3s-.1-.6-.2-1.5c-.1-.6-.2-1.1-.3-1.7-.3-1.3-.6-2.8-1-4.2.4 4.5.8 7.9 1 9.2.5 3.1 2 11 3.6 18.7 1.3 6.5 2.7 12.9 3.6 16.2.7 2.6 1.5 4.8 2.7 7 2.1 4 5.4 7.9 11.2 13.1zm-6.5-73.4c3.5-1.6 7-5.7 23 1 0 0 1 1.6-.6 2.2 0 0-12.5-3.8-16.3-2.2-3.8 1.6-6.4 3.2-6.4 3.2s-3.2-2.6.3-4.2z"/><path fill="#73522F" d="M71.8 96s1.2 0 2.6.3c-1.4-.4-2.6-.3-2.6-.3zm-1.3-5.4l.6-3.8 2.2-1c2.2-1 .6-3.2.6-3.2s-1.3-1.3-2.2-3.2c-1-1.9 1.6-4.8 1.6-4.8S72 72.4 72 70.1s1-5.4 1-5.4l-1.6-2.6 3.5-2.6s2.9-3.8 2.9-4.8-3.5-2.6-3.5-2.6l1.3-2.9s4.5-10.5 14.7-15.6 22.8 10.7 21.1 9.6c-2.3-1.5-4.3-2.4-6.2-2.9.4.2.7.4 1.1.7 8 5.4 21.7 3.5 21.7 3.5V6.9c-22.7 0-33.8 9.6-33.8 9.6l-2.6 2.6-5.1 2.9s-2.9 1.9-4.8 3.2c-1.9 1.3-3.2 2.6-3.2 2.6s-1 3.5-1 4.5-2.6 7-2.6 7L72 42.8l-1.6 2.6.6 5.4-1.6 1.6.6 4.2-1.3 2.2-3.2 2.9V79c0 4.3 1.3 11.8 1.6 13.2v.2l3.4-1.8zm10.5 2c.4-2.5.9-4.9 1.6-7.1.6-1.8.9-3.6 1.1-5.4-.4 2.3-.9 4.6-1.7 7-.5 1.5-.8 3.4-1 5.5z"/><path fill="#73522F" d="M83.4 51.6c.4-.6 1-1.3 1.6-1.9-.9.6-1.4 1-1.4 1s-.1.3-.2.9zm-6.7 46.5c.3.7.6 1.6.9 2.6.4 1.4.7 2.9 1 4.2-.3-1.8-.6-3.5-1-5.1-.3-.6-.5-1.2-.9-1.7zm2.4 10.1l.2.3c-.1-.6-.3-1.2-.4-1.8.2.9.2 1.5.2 1.5zm13.8-12.5s2.6-1.6 6.4-3.2c3.8-1.6 16.3 2.2 16.3 2.2 1.6-.6.6-2.2.6-2.2-16-6.7-19.5-2.6-23-1-3.5 1.7-.3 4.2-.3 4.2z"/><path fill="#2D171C" d="M116.5 229.8l-5.7-12.1.4-.6c-.7.5-1.3 1-2 1.5-3.5 2.9-8.3 7-13.7 16.3 0 0-2.2-4.1-4.6-10 .7 3.9 1.4 7.8 2.1 11.9.8 4.4 1.6 9.5 2.5 15 6.4 1.7 13 2.9 19.8 3.6l2.4-25.1c-.8-.3-1.2-.5-1.2-.5z"/><path fill="#422424" d="M117.6 230.3l-2.4 25.1c4.2.4 8.5.6 12.8.6v-23.9c-4.9 0-8.6-1.1-10.4-1.8z"/><path fill="#454954" d="M42.1 219.3s6.8-12.1 16.6-23.5c-9 4-18.2 8.2-23.8 10.8-1.8.8-3.7 1.7-5.7 2.7 6.7 8.2 14.4 15.5 23 21.7l2.1-1-12.2-10.7z"/><path fill="#535763" d="M90.1 171.6c0 .5.2 1.7.5 3.3l-.5-3.3z"/><path fill="#535763" d="M90.8 225c-1.4-3.5-2.9-7.6-4.1-11.9-3.2-11.6-6.2-27.7 0-33.2 0 0 0-7.4 3.4-8.6l-.4-2.9-.1-.6c-6.9 2-7.5 6.2-21.9 18.8-3.2 2.8-6.2 5.9-9 9.1-9.8 11.3-16.6 23.5-16.6 23.5l12.1 10.9-2.1 1c12.8 9.4 27.4 16.6 43.3 20.7-.9-5.4-1.8-10.6-2.5-15-.7-4-1.4-8-2.1-11.8z"/><path fill="#4A2A2B" d="M127.8 209.8s-8.2 1.2-16.6 7.3l-.4.6 5.7 12.1s.4.2 1.1.5c1.7.7 5.4 1.8 10.4 1.8v-22.3l-.4-.1c.1 0 .2.1.2.1z"/><path fill="#351F24" d="M127.8 209.8s-.1-.1-.2-.1c-1.8-1.1-14.4-9.2-26-17.9-7.4-5.6-10-12.6-11-16.7-.4-1.6-.5-2.8-.5-3.3v-.3c-3.4 1.2-3.4 8.6-3.4 8.6-6.2 5.5-3.2 21.5 0 33.2 1.2 4.3 2.7 8.4 4.1 11.9 2.4 5.9 4.6 10 4.6 10 5.4-9.3 10.2-13.4 13.7-16.3.7-.5 1.3-1.1 2-1.5 8.5-6.4 16.7-7.6 16.7-7.6z"/><path fill="#503819" d="M90.3 33.8c-10.2 5.1-14.7 15.6-14.7 15.6l-1.3 2.9s3.5 1.6 3.5 2.6-2.8 4.7-2.8 4.7l-3.5 2.6 1.6 2.6s-1 3.2-1 5.4 1.3 4.5 1.3 4.5-2.6 2.9-1.6 4.8 2.2 3.2 2.2 3.2 1.6 2.2-.6 3.2l-2.2 1-.6 3.8 1.3 5.4s1.2-.2 2.6.3c.8.3 1.7.8 2.4 1.8.3.5.6 1 .8 1.7.4 1.5.7 3.3 1 5.1.1.6.2 1.1.3 1.7.1.6.3 1.2.4 1.8.5 2 1.2 3.7 2.4 4.8 0 0-1.4-12-.7-20.7.2-2.1.5-4 1-5.5.8-2.4 1.3-4.7 1.7-7 .8-5.1.7-9.9-.4-14.1-1.4-4.9-.4-11.8 0-14.4.1-.6.2-1 .2-1s.6-.4 1.4-1c2.6-1.8 7.8-5.6 8.8-7 1-1.5 5-4.1 11.3-2.3 1.9.5 4 1.5 6.2 2.9 1.8 1.2-10.8-14.5-21-9.4z"/><path fill="#C08C76" d="M185.5 90.6l-1.3 5.4s-1.2 0-2.6.3c-.8.3-1.7.8-2.4 1.8-.3.7-.6 1.6-.9 2.6-.4 4.5-.8 7.9-1 9.2-.5 3.1-2 11-3.6 18.7 2.8-.3 6.5-1.1 8.9-2.9 4.2-3.2 1.6-10.2 2.9-16.6s3.8-10.5 3.8-14.7c0-1.1-.2-1.9-.6-2.5v.2l-3.2-1.5zm-31.1 101.1c7.4-5.6 10-12.6 11-16.7l.5-3.3v-.3l.4-2.9c.1-5.6.6-11.5 1.1-16.5-2.1 4-5.4 7.8-11.2 13.1-9.1 8.1-12.5 11.5-28.3 11.5v33.3l.4-.1c1.9-1.3 14.5-9.4 26.1-18.1z"/><path fill="#D7A990" d="M167.5 151.9c1.2-2.2 2-4.5 2.7-7 .9-3.3 2.3-9.7 3.6-16.2 1.6-7.7 3.1-15.6 3.6-18.7.2-1.3.6-4.7 1-9.2-.4 1.4-.7 2.9-1 4.2-.1.6-.2 1.1-.3 1.7-.2.9-.2 1.5-.2 1.5l-.2.3c-.5 2-1.2 3.7-2.4 4.8 0 0 1.4-12 .7-20.7-.4-2.5-.9-4.9-1.6-7.1-.6-1.8-.9-3.6-1.1-5.4-.8-5.1-.7-9.9.4-14.1 1.3-4.9.3-11.9-.1-14.4-.4-.6-1-1.3-1.6-1.9-2.6-1.8-7.8-5.6-8.8-7-1-1.5-5-4.1-11.3-2.3-.4.2-.7.4-1.1.7-8 5.4-21.7 3.5-21.7 3.5v131.9c15.8 0 19.2-3.4 28.3-11.5 5.7-5.2 9-9.1 11.1-13.1zm-27.7-59.4c16-6.7 19.5-2.6 23-1s.3 4.2.3 4.2-2.6-1.6-6.4-3.2c-3.8-1.6-16.3 2.2-16.3 2.2-1.5-.6-.6-2.2-.6-2.2z"/><path fill="#856039" d="M181.6 96.3c1.4-.3 2.6-.3 2.6-.3s-1.2-.1-2.6.3zm-3.1 3.6c-.4 1.5-.7 3.3-1 5.1.3-1.3.6-2.8 1-4.2.3-1 .6-1.9.9-2.6-.5.4-.7 1-.9 1.7zM171 49.7c.6.7 1.2 1.3 1.6 1.9-.1-.6-.2-1-.2-1s-.6-.3-1.4-.9zm1.3 30.4c.1 1.8.5 3.6 1.1 5.4.7 2.2 1.3 4.6 1.6 7.1-.2-2.1-.5-4-1-5.5-.8-2.4-1.4-4.7-1.7-7z"/><path fill="#856039" d="M149.7 41.1c.4-.3.7-.5 1.1-.7-1.9.5-4 1.5-6.2 2.9-1.7 1.1 10.9-14.7 21.1-9.6 10.2 5.1 14.7 15.6 14.7 15.6l1.3 2.9s-3.5 1.6-3.5 2.6 2.9 4.8 2.9 4.8l3.5 2.6-1.6 2.6s1 3.2 1 5.4-1.3 4.5-1.3 4.5 2.6 2.9 1.6 4.8-2.2 3.2-2.2 3.2-1.6 2.2.6 3.2l2.2 1 .6 3.8 3.2 1.6v-.2c.2-1.4 1.6-8.8 1.6-13.2V61.6l-3.2-2.9-1.3-2.2.6-4.2-1.6-1.6.6-5.4-1.6-2.6-2.9-3.5s-2.6-6.1-2.6-7-1-4.5-1-4.5-1.3-1.3-3.2-2.6c-1.9-1.3-4.8-3.2-4.8-3.2l-5.1-2.9-2.6-2.6s-11.2-9.6-33.8-9.6v37.7c.2.1 13.9 2 21.9-3.4zm27.2 67.1s.1-.6.2-1.5c-.1.6-.3 1.2-.4 1.8l.2-.3zm-36.4-13.5s12.5-3.8 16.3-2.2c3.8 1.6 6.4 3.2 6.4 3.2s3.2-2.6-.3-4.2-7-5.7-23 1c-.1 0-1 1.6.6 2.2z"/><path fill="#351F24" d="M165.2 225c-2.4 5.9-4.6 10-4.6 10-5.4-9.3-10.2-13.4-13.7-16.3-.7-.5-1.3-1.1-2-1.5l.4.6-5.7 12.1s-.4.2-1.1.5l2.4 25.1c6.8-.7 13.4-1.9 19.8-3.6.9-5.4 1.8-10.6 2.5-15 .6-4.1 1.3-8.1 2-11.9z"/><path fill="#4A2A2B" d="M128 232.1V256c4.3 0 8.6-.2 12.8-.6l-2.4-25.1c-1.8.7-5.5 1.8-10.4 1.8z"/><path fill="#535763" d="M197.3 195.8c9.8 11.3 16.6 23.5 16.6 23.5l-12.1 10.9 2.1 1c8.5-6.3 16.2-13.6 23-21.7-2-1-4-1.9-5.7-2.7-5.7-2.8-14.9-6.9-23.9-11z"/><path fill="#5D626F" d="M165.3 175c.4-1.6.5-2.8.5-3.3l-.5 3.3zm48.6 44.3s-6.8-12.1-16.6-23.5c-2.8-3.2-5.8-6.3-9-9.1-14.4-12.6-15-16.8-21.9-18.8l-.1.6-.4 2.9c3.4 1.2 3.4 8.6 3.4 8.6 6.2 5.5 3.2 21.5 0 33.2-1.2 4.3-2.7 8.4-4.1 11.9-.7 3.9-1.4 7.8-2.1 11.9-.8 4.4-1.6 9.5-2.5 15 15.8-4.2 30.5-11.3 43.3-20.7l-2.1-1 12.1-11z"/><path fill="#65423E" d="M139.5 229.8l5.7-12.1-.4-.6c-8.4-6.1-16.6-7.3-16.6-7.3s.1-.1.2-.1l-.4.1v22.3c4.9 0 8.6-1.1 10.4-1.8.7-.3 1.1-.5 1.1-.5z"/><path fill="#3F282D" d="M165.9 171.6c0 .5-.2 1.7-.5 3.3-.9 4.2-3.6 11.2-11 16.7-11.5 8.7-24.2 16.8-26 17.9-.1.1-.2.1-.2.1s8.2 1.2 16.6 7.3c.7.5 1.3 1 2 1.5 3.5 2.9 8.3 7 13.7 16.3 0 0 2.2-4.1 4.6-10 1.4-3.5 2.9-7.6 4.1-11.9 3.2-11.6 6.2-27.7 0-33.2 0 0 0-7.4-3.4-8.6.1.3.1.4.1.6z"/><path fill="#5A3F20" d="M179.3 98.1c.7-1 1.5-1.5 2.4-1.8 1.3-.5 2.6-.3 2.6-.3l1.3-5.4-.6-3.8-2.2-1c-2.2-1-.6-3.2-.6-3.2s1.3-1.3 2.2-3.2c1-1.9-1.6-4.8-1.6-4.8s1.3-2.2 1.3-4.5-1-5.4-1-5.4l1.6-2.6-3.5-2.6s-2.9-3.8-2.9-4.8 3.5-2.6 3.5-2.6l-1.3-2.9s-4.5-10.5-14.7-15.6-22.8 10.7-21.1 9.6c2.3-1.5 4.3-2.4 6.2-2.9 6.3-1.8 10.4.8 11.3 2.3 1 1.4 6.2 5.2 8.8 7 .9.6 1.4 1 1.4 1s.1.4.2 1c.4 2.5 1.4 9.5.1 14.4-1.1 4.2-1.3 9-.4 14.1.4 2.3.9 4.6 1.7 7 .5 1.5.8 3.4 1 5.5.8 8.7-.7 20.7-.7 20.7 1.2-1.1 1.9-2.8 2.4-4.8.1-.6.3-1.2.4-1.8.1-.6.2-1.1.3-1.7.3-1.8.6-3.5 1-5.1.3-.7.5-1.3.9-1.8z"/></svg>