<svg xmlns="http://www.w3.org/2000/svg" width="256" height="256"><circle fill="#B1B3B5" cx="128" cy="128" r="128"/><path fill="#63674B" d="M178.9 226.3c1.8.3 3.6.7 5.3 1l-2-5.9-3.3 4.9zM128 247.1v8.9c8 0 15.8-.7 23.3-2.1v-5.4c-6.3-.8-14-1.4-23.3-1.4zm68.1-29.7l-4.3-12.1s-.9 14.7-5.7 22.6c4.5 1.1 8.6 2.4 11.9 4v3.4c14.2-9.3 26.5-21.4 36-35.4-13.7-.8-24.9-2.4-34-4.4-.3 6.7-1.4 14.2-3.9 21.9zM155.8 253c2.7-.6 5.5-1.3 8.1-2.1-2.3-.6-5-1.2-8.1-1.7v3.8z"/><path fill="#303228" d="M151.3 248.5v5.4l4.5-.9v-3.8c-1.4-.3-2.9-.5-4.5-.7z"/><path fill="#CCAD9F" d="M158.3 158c.2-3.8.5-7.3.7-10.1-2.8 1.9-6.1 4-10.1 7.1-11 8.7-20.3 6.6-20.9 6.4v8.4c0 .1 26.3-2.7 30.3-11.8z"/><path fill="#B49A8E" d="M128 188.6v-27.1c-.4.1-9.8 2.4-21-6.4-2.4-1.9-4.5-3.4-6.4-4.7.6 4.2 1.3 8.4 1.8 12.4 8.8 5.3 25.5 7.1 25.5 7.1v6.1l.1 12.6v2.7-2.7zm-30.3-30.5c.7 1.6 2.2 3 4 4.3l-2.6-13c-.7-.5-1.4-1-2.1-1.4.2 2.7.5 6.2.7 10.1z"/><path fill="#CCAD9F" d="M175.3 121.1c1.1-8.8 1.9-15.5 1.9-17.5l1.3-4.5-6.1 19.9c-.1.5-.2.8-.2.8l.2-.8c.6-2.2 2.4-8.7 3-16.7-1.9 6.5-4.3 14-6 20.6 2-.4 4.1-1 5.9-1.8z"/><path fill="#DEBCAD" d="M128 161.4c.6.2 9.9 2.3 20.9-6.4 4-3.1 7.3-5.2 10.1-7.1 5.2-3.6 8.1-6.4 8.5-13.8.2-3.1.9-6.9 2-11.1 1.7-6.6 4.1-14 6-20.6.5-6.3.2-13.6-1.9-20.3-5.4-17.1-7.2-33.7-22.5-45.4 0 0-12.7-3.1-23.2-1.8v126.5zm32.3-91.5c4.5.9 8.1 7.5 6.9 7.9-1.2.4-3.6-3.1-8.1-4.9-4.5-1.8-15 4.2-16.8 4.8-1.9.6-4.1-3.6-4.1-3.6 10.1-4.8 17.6-5.1 22.1-4.2z"/><path fill="#623714" d="M142.2 77.7c1.9-.6 12.3-6.6 16.8-4.8 4.5 1.8 6.9 5.2 8.1 4.9 1.2-.4-2.4-7-6.9-7.9-4.5-.9-12-.6-22.2 4.2.1 0 2.4 4.2 4.2 3.6z"/><path fill="#CCAD9F" d="M111.5 65s-1 2.2-2.2 5.9c1.2.3 2.5.7 3.8 1.2-.8-4.5-1.6-7.1-1.6-7.1zm-12.8 7.6C96.2 81.7 94.3 92 95 104c0 .4.1.7.1 1.1.7-9.3 2.7-20.9 7.5-31.9-1.5-.4-2.8-.7-3.9-.6zm17.2-37.4s-7.4 3.2-11 16.7c-1.4 5.3-3.5 11.2-5.4 17.6 1.4 0 2.9.1 4.5.3.9-1.9 2-3.9 3.1-5.7 15-24.7 8.8-28.9 8.8-28.9z"/><path fill="#CCAD9F" d="M128 161.4V34.8s-12.8 18-11.9 36.9c0 .6.1 1.1.1 1.7.5.2 1.1.5 1.6.7 0 0-.6 1.1-1.5 2.1 1.1 16.1 3.4 26.3-.3 39.1-4 13.9-4.5 35.5-4.5 35.5s-.9-18.7 2.2-42.7c1.6-11.9 1-22.6 0-30.4h-.2c-.8-.3-3.1-1.5-5.8-2.6-2.6 8.6-5.7 21.7-5.7 36.2V84.1s-4.9 11.6-6.6 27.3c1.1 12.6 3.1 26.1 5 38.9 1.9 1.3 4.1 2.8 6.4 4.7 11.4 8.8 20.8 6.5 21.2 6.4zm-28.9-12.1l-1.8-8.8s-.2 2.9-.4 7.3c0 0 .1 0 .1.1.6.5 1.3.9 2.1 1.4z"/><path fill="#3A1900" d="M99.5 69.5c-.3 1-.6 2-.9 3.1 1.2 0 2.5.2 3.9.5l1.5-3.3c-1.6-.2-3.1-.3-4.5-.3zm14.4 8.2c-.3-2.1-.6-4-.8-5.6-1.3-.5-2.6-.9-3.8-1.2-.4 1.2-.9 2.6-1.4 4.2 2.7 1.2 5 2.4 5.8 2.6h.2zm2.3-4.3c.1 1 .1 1.9.2 2.9.9-1 1.5-2.1 1.5-2.1-.6-.4-1.1-.6-1.7-.8z"/><path fill="#4C4B30" d="M163 166.7c-.2-.9-.2-1.7-.1-2.4 1.2-8.2-4.5-6.3-4.5-6.3-4 9.1-30.3 11.9-30.3 11.9v6.1c-.1 0 27.7-1 34.9-9.3zm1.1 55.6s3.8-13 5.1-20.7l-12.2 14s7.6-20.7 9.4-32.4c.1-.9.3-2 .5-3.3-5.2 2.8-18.6 8.7-39 8.7v34.2s21.5-.4 42 2.2l1.8-12.1-7.6 9.4z"/><path fill="#7A8051" d="M163 166.7c-7.2 8.2-35 9.3-35 9.3v12.6c20.3 0 33.8-5.9 39-8.7.2-1.3.4-2.9.7-4.6l-4.7-8.6z"/><path fill="#63564F" d="M186.1 227.8c-.4.6-.8 1.2-1.2 1.7l-.7-2.2c-1.7-.4-3.5-.7-5.3-1L171 238l2.2-11.2-4.5 6.7 1.3-8.6c-20.5-2.6-42-2.2-42-2.2v24.2c9.2 0 17 .6 23.3 1.4 1.6.2 3.1.4 4.5.7 3.1.5 5.8 1.1 8.1 1.7 5-1.5 9.8-3.2 14.5-5.2v-12.9l14.5 2.8v2.8c1.7-1 3.3-2 5-3.1v-3.4c-3.3-1.5-7.3-2.8-11.8-3.9z"/><path fill="#524842" d="M178.5 232.7v12.9c5-2.2 9.8-4.6 14.5-7.4v-2.8l-14.5-2.7z"/><path fill="#4D5139" d="M71.2 242.7c9.1 4.5 18.8 8 29 10.2v-7.1c-11.2-.8-21.4-2-29-3.1zm11-27.5L75.8 191s1-1 2.5-2.6c-2.8 1.2-6.1 2.5-10 3.7.1 19.2 13.9 23.1 13.9 23.1zm45.8 14v-37.9V247c-7.8 0-15.7-.3-23.3-.9v7.7c7.6 1.4 15.4 2.1 23.3 2.1v-26.7z"/><path fill="#303228" d="M100.2 245.9v7.1l4.5.9v-7.7l-4.5-.3z"/><path fill="#32331B" d="M128 169.9s-16.7-1.7-25.5-7.1c.5 3.3.9 6.5 1.3 9.6 10.6 3.1 24.2 3.6 24.2 3.6v-6.1z"/><path fill="#32331B" d="M103.8 172.4l-2-10c-1.9-1.2-3.3-2.6-4-4.3v-.1s-.6-.2-1.3-.2c-.2 3.6-.4 7.4-.6 11.2 2 1.4 4.8 2.5 7.9 3.4zm-21.6 42.8c20.6 6.7 45.8 7.5 45.8 7.5v-34c-14.8 0-25.9-3.2-32.9-5.9-.2 3.1-.3 5.5-.3 6.8l-1.7-7.7c-3.2-1.4-5.2-2.6-6-3.1l-3.4 22v-14.4l-3.6 5.8v-5.7c-.6.7-1.2 1.3-1.7 1.9-1.5 1.6-2.5 2.6-2.5 2.6l6.3 24.2z"/><path fill="#565D38" d="M90.7 170.9l-3.4 6.4-.2 1.5c.8.5 2.9 1.7 6 3.1l-2.4-11zm13.1 1.5c0 .2 0 .3.1.5l-.1-.5c-3.1-.9-5.9-2-8-3.4-.3 5-.5 9.8-.7 13.6 7 2.8 18.1 5.9 32.9 5.9V176s-13.6-.5-24.2-3.6z"/><path fill="#544943" d="M104.7 246.2c7.6.5 15.5.9 23.3.9v-24.4s-25.2-.8-45.8-7.5c0 0-13.8-3.9-13.8-23.1l-9.2-4.7 1 1.2V203l-18.7 2-16.8-15.3c-2.3 1.6-4.2 3.5-5.5 5.7 12.6 20.2 30.6 36.7 52 47.4 7.6 1 17.8 2.2 29 3.1l4.5.3z"/><path fill="#423934" d="M41.5 205l18.7-2v-14.4l-1-1.2-5.6-6.9s-11.5-2.9-22.3 1.3l-6.7 7.9L41.5 205z"/><path fill="#623714" d="M128 19v15.9c10.5-1.3 23.2 1.8 23.2 1.8C166.5 48.3 168.3 65 173.7 82c2.1 6.7 2.4 13.9 1.9 20.3-.6 8-2.4 14.5-3 16.7l6.1-19.9-1.3 4.5c0 2-.8 8.7-1.9 17.5-2.2 16.7-5.7 40.8-7.7 54.2-.3 1.7-.5 3.3-.7 4.6-.2 1.3-.4 2.5-.5 3.3-1.8 11.7-9.4 32.4-9.4 32.4l12.1-13.9c-1.3 7.6-5.1 20.7-5.1 20.7l7.8-9.4-2 12-1.3 8.6 4.5-6.7L171 238l7.9-11.7 3.3-4.9 2 5.9.7 2.2c.4-.5.8-1.1 1.2-1.7 4.8-7.9 5.7-22.6 5.7-22.6l4.3 12.1c2.4-7.7 3.6-15.1 3.9-22 .8-17.1-3.2-30.8-3.9-37.1-.9-8.7-4.9-56.5-4.3-76.7.6-20.2 2.1-34.6-15.5-54.8S128 9.7 128 9.7V19z"/><path fill="#623714" d="M172.5 119l-.2.8s.1-.3.2-.8z"/><path fill="#4E2804" d="M80 192.2l3.6-5.8v14.4l3.4-22 .2-1.5 2-12.9 1.4 6.6 2.4 10.9 1.7 7.7c.1-1.4.2-3.8.3-6.8.2-3.8.4-8.6.7-13.6.2-3.7.4-7.6.6-11.2.2-3.7.4-7.2.5-10 .2-4.4.4-7.3.4-7.3l1.8 8.8 2.6 13 2 10 .1.5c0-.2 0-.3-.1-.5-.4-3.1-.9-6.3-1.3-9.6-.6-4-1.2-8.2-1.8-12.4-1.9-12.8-3.9-26.3-5-38.9 1.7-15.8 6.6-27.3 6.6-27.3v27.1c0-14.5 3.1-27.6 5.7-36.2.5-1.6.9-3 1.4-4.2 1.3-3.7 2.2-5.9 2.2-5.9s.8 2.6 1.5 7.1c.3 1.6.6 3.5.8 5.6 1 7.8 1.5 18.5 0 30.4-3.1 24-2.2 42.7-2.2 42.7s.4-21.6 4.5-35.5c3.7-12.8 1.4-22.9.3-39.1-.1-.9-.1-1.9-.2-2.9 0-.6-.1-1.1-.1-1.7-.7-18.9 12-36.9 12-36.9V9.7c-38.4 0-50 19.5-55.8 40.2-5.8 20.7-.1 55.6 1.8 69.5 1.8 13.9-5.6 48.6-5.6 48.6l5.4-6.5v11.4l3.5-7.2 2.7 11.5v15zm27.2-128.1c-1.1 1.9-2.2 3.8-3.1 5.7l-1.5 3.3c-4.7 11.1-6.7 22.7-7.5 31.9 0-.4-.1-.8-.1-1.1-.7-12 1.2-22.3 3.7-31.4.3-1 .6-2.1.9-3.1 1.9-6.4 4-12.2 5.4-17.6 3.6-13.5 11-16.7 11-16.7s6.1 4.3-8.8 29z"/><path fill="#9F595D" d="M128 134.4s1.2.2 2.3-.8c1.7-.8 3.8-.1 5 1.3 2.3 2.2 2.5 2.8 4.9 3.7 0 0-2.1 3.9-12.2 3.9v-8.1z"/><path fill="#884C4F" d="M128 134.4s-1.2.2-2.3-.8c-1.7-.8-3.8-.1-5 1.3-2.3 2.2-2.5 2.8-4.9 3.7 0 0 2.1 3.9 12.2 3.9v-8.1z"/></svg>