<svg xmlns="http://www.w3.org/2000/svg" width="256" height="256"><circle fill="#B1B3B5" cx="128" cy="128" r="128"/><path fill="#C08C76" d="M128 206.2c26.2-12 35-36.1 35.1-36.1.2-3.1.4-6 .7-8.4-2.3.9-4.1 1.1-4.1 1.1-6.2 12.9-31.6 13.9-31.6 13.9v29.9-.4zm59.9-107.9l-1.9 6.4-1.3-2.8-1.9 5.7s-1.8 2.6-1.9 4.2 0 6.7 0 6.7l-3.9 5.4s-.1-.1-.2-.3c-.6 5.3-1.1 10.8-1.6 16.4 2.3-2.6 5.9-6.7 6.8-8 1.4-1.9 2.6-6.7 3.1-10.5s2.2-8.9 2.9-12.9c.6-3.6 2.5-6.2 3.2-11.6l-.9 1.4h-2.4z"/><path fill="#D7A990" d="M141.8 87.7c-2.3.6-4.2.1-3-3.9 0 0 1.2-2.6 5.5-3.6l-1.4 1.8s5-1.6 8.6-1.8c3.6-.2 7.9.5 9.3 1.8 1.4 1.3 6.2 4.2 6.2 4.2l.9 1.7c.3.2.6.3.8.4 2.8 1.4 6.2 2 8 2.3 0-3.2-.1-7.1-.4-10.4-.6-6.5-3.8-13.9-3.8-13.9l.3 7s-7.5-13.4-10.6-20.1c-1.3-2.7-2.8-5.4-4.3-7.7-2.1 5-4.7 8.5-4.7 8.5s2.5-4.7 3.7-10c-.6-1-1.2-1.8-1.7-2.5-3.8 12-15.5 17.1-15.5 17.1s3.7-3.7 7.1-9.4c-3.9 2.9-9.9 5.3-18.9 5.3v4.4c2.6-.3 5.2-.3 7.7-.2 9.5.3 20.8 2.6 20.8 2.6-12.4-1.1-28.4-.4-28.4-.4V64c2.6-.3 5.2-.3 7.7-.2 9.5.3 28.7 5.1 28.7 5.1C152.1 67.7 128 66 128 66v3.1c2.6-.3 5.2-.3 7.7-.2 9.5.3 20.8 2.6 20.8 2.6-12.4-1.1-28.4-.4-28.4-.4v17.2c6.2 0 9.3 2.3 9.3 2.3 1.4-1.2 2.9-2.1 4.4-2.9zm17.8 75.1s1.7-22-7.1-30.7c0 0 11.7 10.6 10 30l-2.9.7s1.8-.2 4.1-1.1c4.2-1.7 10.2-5.6 11-14.7.2-2.4.4-4.7.6-7.1.5-5.6 1-11.2 1.6-16.4-.5-1.1-2.3-5-1.4-6.8 1-2.2 3.5-9.5 3.5-10.5s1-15.1 1-15.1l-.6 1c.3.8.1 1.5.1 1.5l-2.5 2.1-.2.2v-.1l-3.1 2.7s.1 23.1-20.1 23.1S133 98.2 133 98.2l2.3-3.7c-2-2.5-7.2-2.3-7.2-2.3v84.5c-.1.1 25.3-.9 31.5-13.9z"/><path fill="#584B3D" d="M160.8 82c-1.4-1.3-5.7-2-9.3-1.8-3.6.2-8.6 1.8-8.6 1.8l1.4-1.8c-4.3 1-5.5 3.6-5.5 3.6-1.3 4 .6 4.4 3 3.9 12.1-6.6 22.1-1.9 26.2.2l-.9-1.7s-4.8-2.9-6.3-4.2z"/><path fill="#B9937E" d="M152.5 132.2c8.9 8.6 7.1 30.7 7.1 30.7l2.8-.7c1.8-19.4-9.9-30-9.9-30z"/><path fill="#C79884" d="M156.5 71.5s-11.3-2.3-20.8-2.6c-2.5-.1-5.1 0-7.7.2v2s16.1-.7 28.5.4zm-20.8-7.7c-2.5-.1-5.1 0-7.7.2v2s24 1.7 36.4 2.9c0 0-19.2-4.8-28.7-5.1zm20.8-2.5s-11.3-2.3-20.8-2.6c-2.5-.1-5.1 0-7.7.2v2s16.1-.7 28.5.4z"/><path fill="#584B3D" d="M186.4 46.9l-8.3-5.7s11.2 10.2 12.1 14c1 3.9-1.6 23.3 2.2 29.7 0 0-4.5-8-3.8-11.5.6-3.5-1.9-13.1-5.7-18.2-3.8-5.1-16.9-10.1-18.5-14.3-1.6-4.2-.6-7.7-4.2-10.3.9 5.2-.5 10.6-2.2 14.9 1.4 2.3 3 5 4.3 7.7 3.1 6.7 10.6 20.1 10.6 20.1l-.3-7s3.2 7.4 3.8 13.9c.3 3.3.4 7.2.4 10.4.7.1 1.2.1 1.2.1.7.4 1.1.9 1.3 1.4l.6-1s-1 14.1-1 15.1-2.6 8.3-3.5 10.5c-.8 1.8.9 5.7 1.4 6.8.1.2.2.3.2.3l3.9-5.4s-.1-5.1 0-6.7 1.9-4.2 1.9-4.2l1.9-5.7 1.3 2.8 1.9-6.4h2.6l.9-1.4.1-.2h1.6l-.3-1.6h3.8v-3.9l-2.9-6.9h2.9c-3.2-4.1-3.8-12.7-3.8-12.7h2.2l-3.8-7.8 3.8 2.6-1.9-5-1-2.7h2.9s-7.3-15-10.9-18.5c-3.5-3.5-7.3-6.4-12.5-9.9-3.6-2.5-9.6-3.2-12.9-3.4.5.1 7.5 2.4 14 7 6.7 4.8 13.7 13.1 13.7 13.1zm-39.9-28.1l-8.3-4.2s9.5-1.1 15.1 4.4c-1-1.6-2.3-3.3-4-4.8-6.1-5.3-21.3-5.8-21.3-5.8v10.5h.1s12.3-1 18.4-.1zm-9.2 8.6l8.1-3.8 3.9-1.6s-9.1-2.6-21.3 0h-.1v20.6c13.7-4.8 21.5-18.5 21.5-18.5l-12.1 3.3zm14.5 10.3c-7.9 9.2-16.8 12.6-23.8 13.8v3c9 0 15-2.4 18.9-5.3 2-3.3 3.9-7.2 4.9-11.5zm-18.5 10.1c-1.8.2-3.6.4-5.3.6v1.2c3.2-.9 5.3-1.8 5.3-1.8zm23.2-13.6c0 2.7-.5 5.1-1.2 7.3.5.7 1 1.5 1.7 2.5.7-3.3.9-6.9-.5-9.8z"/><path fill="#584B3D" d="M176.7 96l.2-.2-.2.1v.1z"/><path fill="#D7A990" d="M136.2 99.3c0 5.6 2.4 20.7 17.6 20.7 15.2 0 17.4-19 17.4-22.9s-3.4-10.3-17.5-10.3c-12.3 0-17.5 6.9-17.5 12.5z"/><path opacity=".3" fill="#FFF" d="M136.2 99.3c0 5.6 2.4 20.7 17.6 20.7 15.2 0 17.4-19 17.4-22.9s-3.4-10.3-17.5-10.3c-12.3 0-17.5 6.9-17.5 12.5z"/><path fill="#222226" d="M135.2 94.5l-2.3 3.7s.3 23.5 20.5 23.5 20.1-23.1 20.1-23.1l3.1-2.7.2-.1 2.5-2.1s.2-.7-.1-1.5c-.2-.5-.6-1-1.3-1.4 0 0-.4 0-1.2-.1-1.8-.2-5.2-.9-8-2.3-.2-.1-.5-.3-.8-.4-4.2-2.1-14.1-6.8-26.2-.2-1.5.8-2.9 1.7-4.5 2.9 0 0-3.1-2.3-9.3-2.3v3.9c.1-.1 5.3-.3 7.3 2.2zm18.5-7.7c14.1 0 17.5 6.3 17.5 10.3S169 120 153.8 120s-17.6-15.1-17.6-20.7 5.2-12.5 17.5-12.5z"/><path fill="#BBB" d="M147.5 204.6c-2.1 5-6.2 14.4-9 19.3 0 0-.2.1-.6.2l4.5 31.1c2.7-.3 5.3-.7 7.9-1.1 5.1-6.5 9.7-13.1 13.8-19.3-4.4-14.7-12.7-25.6-16.6-30.2zm23.5 19.3c0-.2.1-.4.1-.6-.1.3-.2.6-.3 1 .1-.2.2-.3.2-.4z"/><path fill="#504D60" d="M128 225.4V256c4.8 0 9.6-.3 14.3-.8l-4.5-31.1c-1.4.4-5.3 1.3-9.8 1.3z"/><path fill="#5A576B" d="M138.5 223.9c2.8-4.8 6.9-14.3 9-19.3-1.3-1.6-2.2-2.4-2.2-2.4l-17.3 4.6v18.6c4.5 0 8.3-.9 9.8-1.3.4-.1.7-.2.7-.2z"/><path fill="#A7ABB0" d="M170.8 224.2c-2.2 6.8-3.9 11.8-3.9 11.8l-2.8-1c0-.1 0-.1-.1-.2-4.1 6.1-8.7 12.8-13.8 19.3 5.8-1 11.4-2.4 16.8-4.2 1.4-9.1 2.8-18.1 3.9-26 .1.1 0 .2-.1.3z"/><path fill="#E0E0E0" d="M147.5 204.6c3.9 4.6 12.2 15.4 16.6 30.2 0 .1 0 .1.1.2l2.8 1s1.8-5 3.9-11.8c.1-.3.2-.6.3-1 1.2-8.2 2.1-15.2 2.6-20.3.3-8.3.1-15.7-.7-21.8l-1-2.4c-1.7-2-6.4-6.8-8.8-8.8 0 0-8.8 24.1-35.1 36.1v.7l17.3-4.6c-.2.1.7 1 2 2.5z"/><path fill="#A7AAAD" d="M201.7 232.7c2.3-1.6 4.5-3.3 6.7-5.1l-13.3-1.7c2.2 2.2 4.4 4.5 6.6 6.8zm-28.5-52.8c.3.2.7.5 1.1.8-.4-.4-.8-.6-1.1-.8zm4.7 3.5c11.4 8.6 35.4 26.5 38.7 28.6l-.8 9.1c5.1-4.8 9.8-10.1 14.1-15.7-2-.6-3.8-1.2-5.5-1.8-9.8-3.7-30.8-9.9-46.5-20.2z"/><path fill="#898C8E" d="M177.9 183.4c-1.4-1.1-2.7-2-3.6-2.7-.4-.3-.8-.6-1.1-.8-.8-.6-1.3-1-1.3-1l1 2.4c.9 6.1 1 13.5.7 21.8 0 0 10.2 11.1 21.5 22.8l13.3 1.7c2.6-2.1 5-4.2 7.4-6.5l.8-9.1c-3.2-2.1-27.3-20-38.7-28.6z"/><path fill="#737679" d="M173.7 203c-.5 5-1.4 12.1-2.6 20.3 0 .2-.1.4-.1.6-1.1 7.9-2.5 16.9-3.9 26 12.5-4 24.1-9.9 34.6-17.3-2.2-2.2-4.4-4.5-6.5-6.8-11.3-11.7-21.5-22.8-21.5-22.8z"/><path fill="#B17D6B" d="M96.4 162.8s-1.8-.2-4.1-1.1c.2 2.3.5 5.2.7 8.4 0 0 8.8 24.1 35.1 36.1v.5-29.9c-.1 0-25.5-1-31.7-14zm-17.4-39l-3.9-5.4s.1-5.1 0-6.7-1.9-4.2-1.9-4.2l-1.9-5.7-1.3 2.8-1.9-6.4h-2.6l-.9-1.4c.6 5.4 2.5 8.1 3.2 11.6.7 4.1 2.4 9.1 2.9 12.9.5 3.8 1.7 8.6 3.1 10.5 1 1.3 4.5 5.4 6.8 8-.5-5.6-1-11.2-1.6-16.4v.4z"/><path fill="#C08C76" d="M85.2 63.8c-3.1 6.7-3.4 13.1-3.4 13.1l-.7-4.1s-.9 1-1.6 7.5c-.3 3.3-.4 7.2-.4 10.4 1.8-.2 5.2-.9 8-2.3.2-.1.5-.3.8-.4l.9-1.7s4.8-2.9 6.2-4.2c1.4-1.3 5.7-2 9.3-1.8 3.6.2 8.6 1.8 8.6 1.8l-1.4-1.8c4.3 1 5.5 3.6 5.5 3.6 1.3 4-.6 4.4-3 3.9 1.5.8 2.9 1.7 4.5 2.9 0 0 3.1-2.3 9.3-2.3V71.1s-16.1-.7-28.4.4c0 0 11.3-2.3 20.8-2.6 2.5-.1 5.1 0 7.7.2V66s-24 1.7-36.4 2.9c0 0 19.3-4.7 28.7-5.1 2.5-.1 5.1 0 7.7.2v-3.1s-16.1-.7-28.4.4c0 0 11.3-2.3 20.8-2.6 2.5-.1 5.1 0 7.7.2v-4.4c-22.2 0-30.8-2.1-30.8-2.1s-8.9 4.7-12 11.4zm35.6 30.7l2.3 3.7s-.3 23.5-20.5 23.5-20.2-23.1-20.2-23.1l-3.1-2.7v.1l-.2-.2-2.5-2.1s-.2-.7.1-1.5l-.6-1s1 14.1 1 15.1 2.6 8.3 3.5 10.5c.8 1.8-.9 5.7-1.4 6.8.6 5.3 1.1 10.8 1.6 16.4.2 2.4.4 4.7.6 7.1.8 9.1 6.8 13 11 14.7 2.3.9 4.1 1.1 4.1 1.1l-2.8-.7c-1.7-19.4 10-30 10-30-8.9 8.6-7.1 30.7-7.1 30.7 6.2 12.9 31.6 13.9 31.6 13.9V92.3c-.2-.1-5.4-.3-7.4 2.2z"/><path fill="#493E32" d="M114.2 87.7c2.3.6 4.2.1 3-3.9 0 0-1.2-2.6-5.5-3.6l1.4 1.8s-5-1.6-8.6-1.8c-3.6-.2-7.9.5-9.3 1.8-1.4 1.3-6.2 4.2-6.2 4.2l-1 1.7c4.2-2.1 14.1-6.8 26.2-.2z"/><path fill="#9A7C6A" d="M103.5 132.2s-11.7 10.6-10 30l2.8.7c.1-.1-1.7-22.1 7.2-30.7z"/><path fill="#A07C6B" d="M120.3 68.9c-9.5.3-20.8 2.6-20.8 2.6 12.4-1.1 28.4-.4 28.4-.4v-2c-2.5-.2-5.1-.3-7.6-.2zm0-5.1c-9.5.3-28.7 5.1-28.7 5.1C103.9 67.7 128 66 128 66v-2c-2.6-.2-5.2-.3-7.7-.2zm0-5.1c-9.5.3-20.8 2.6-20.8 2.6 12.4-1.1 28.4-.4 28.4-.4v-2c-2.5-.3-5.1-.3-7.6-.2z"/><path fill="#493E32" d="M115.4 51.3c4.4.3 9.1-.7 12.6-1.7v-1.2c-25.5 2.1-33.5-6.3-33.5-6.3s7.7 3.4 26 2.1c2.6-.2 5.1-.7 7.4-1.5V22c-10.5.4-36.4 7.8-36.4 7.8 15-7.6 34.6-10.6 36.4-10.9V8.4s-15.2.5-21.2 5.9c-6.1 5.4-15.7 9.3-20.9 12.8-5.1 3.5-10.4 9.6-14 13.1-3.5 3.5-10.9 18.5-10.9 18.5h2.9l-1 2.7-1.9 5 3.8-2.6-3.8 7.8h2.2s-.6 8.6-3.8 12.7h2.9l-2.9 6.9v3.9h3.8l-.1 1.6h1.6l.1.2.9 1.4h2.6l1.9 6.4 1.3-2.8 1.9 5.7s1.8 2.6 1.9 4.2 0 6.7 0 6.7l3.9 5.4s.1-.1.2-.3c.5-1.1 2.3-5 1.4-6.8-1-2.2-3.5-9.5-3.5-10.5s-1-15.1-1-15.1l.6 1c.2-.5.6-1 1.3-1.4 0 0 .4 0 1.2-.1 0-3.2.1-7.1.4-10.4.6-6.5 1.6-7.5 1.6-7.5l.7 4.1s.2-6.4 3.4-13.1c3.1-6.7 12-11.3 12-11.3s8.6 2.1 30.8 2.1v-3c-7.5 1.1-12.8-.3-12.8-.3z"/><path fill="#493E32" d="M79.3 95.9l-.2-.1.2.2v-.1z"/><path fill="#C08C76" d="M119.8 99.3c0-5.6-5.1-12.5-17.5-12.5-14.1 0-17.5 6.3-17.5 10.3S87 120 102.2 120s17.6-15.1 17.6-20.7z"/><path opacity=".3" fill="#FFF" d="M119.8 99.3c0-5.6-5.1-12.5-17.5-12.5-14.1 0-17.5 6.3-17.5 10.3S87 120 102.2 120s17.6-15.1 17.6-20.7z"/><path fill="#222226" d="M114.2 87.7c-12.1-6.6-22.1-1.9-26.2.2-.3.2-.6.3-.8.4-2.8 1.4-6.2 2-8 2.3-.7.1-1.2.1-1.2.1-.7.4-1.1.9-1.3 1.4-.3.8-.1 1.5-.1 1.5l2.5 2.1.2.1 3.1 2.7s-.1 23.1 20.1 23.1S123 98.2 123 98.2l-2.3-3.7c2-2.5 7.2-2.3 7.2-2.3v-3.9c-6.2 0-9.3 2.3-9.3 2.3-1.4-1.2-2.9-2.1-4.4-2.9zM84.7 97c0-3.9 3.4-10.3 17.5-10.3 12.4 0 17.5 6.9 17.5 12.5s-2.4 20.7-17.6 20.7C87 120 84.7 101 84.7 97z"/><path fill="#9A9B9C" d="M117.5 223.9c-2.8-4.8-6.9-14.3-9-19.3-3.9 4.6-12.2 15.4-16.6 30.2 4.1 6.1 8.7 12.8 13.8 19.3 2.6.5 5.2.8 7.9 1.1l4.5-31.1-.6-.2zm-32.5 0c.1.1.1.2.2.3-.1-.3-.2-.6-.3-1 0 .3 0 .5.1.7z"/><path fill="#403E4E" d="M118.2 224.1l-4.5 31.1c4.7.5 9.5.8 14.3.8v-30.6c-4.5 0-8.4-.9-9.8-1.3z"/><path fill="#504D60" d="M108.5 204.6c2.1 5 6.2 14.4 9 19.3 0 0 .2.1.6.2 1.5.4 5.3 1.3 9.8 1.3v-18.6l-17.3-4.6c.1 0-.8.9-2.1 2.4z"/><path fill="#8D9095" d="M91.9 235l-2.8 1s-1.8-5-3.9-11.8c-.1-.1-.1-.2-.2-.3 1.1 7.9 2.5 16.9 3.9 26 5.5 1.8 11.1 3.1 16.8 4.2-5.1-6.5-9.7-13.1-13.8-19.3v.2z"/><path fill="#BBB" d="M128 206.2c-26.2-12-35-36.1-35.1-36.1-2.4 2.1-7.1 6.8-8.8 8.8l-1 2.4c-.9 6.1-1 13.5-.7 21.8.5 5 1.4 12.1 2.6 20.3.1.3.2.6.3 1 2.2 6.8 3.9 11.8 3.9 11.8l2.8-1c0-.1 0-.1.1-.2 4.3-14.8 12.6-25.6 16.6-30.2 1.3-1.6 2.2-2.4 2.2-2.4l17.3 4.6v-.8z"/><path fill="#898C8E" d="M78.1 183.4c-15.7 10.2-36.7 16.5-46.5 20.2-1.7.6-3.6 1.2-5.5 1.8 4.3 5.6 9 10.9 14.1 15.7l-.8-9.1c3.2-2.1 27.3-20 38.7-28.6zm4.7-3.5zm-35.2 47.7c2.2 1.8 4.4 3.5 6.7 5.1 2.2-2.2 4.4-4.5 6.5-6.8l-13.2 1.7z"/><path fill="#737679" d="M82.3 203c-.3-8.3-.1-15.7.7-21.8l1-2.4s-.5.4-1.3 1c-.3.2-.7.5-1.1.8-1 .7-2.2 1.6-3.6 2.7-11.3 8.7-35.4 26.6-38.7 28.7l.8 9.1c2.4 2.3 4.9 4.4 7.4 6.5l13.3-1.7C72.1 214.1 82.3 203 82.3 203z"/><path fill="#5F6265" d="M84.9 223.3c-1.2-8.2-2.1-15.2-2.6-20.3 0 0-10.2 11.1-21.5 22.8-2.2 2.3-4.4 4.5-6.5 6.8 10.5 7.4 22.1 13.3 34.6 17.3-1.4-9.1-2.8-18.1-3.9-26-.1-.2-.1-.4-.1-.6z"/><path fill="#6B635C" d="M128 22h.1v-3.1h-.2c-1.8.3-21.4 3.3-36.4 10.9.1 0 25.9-7.5 36.5-7.8zm23.8 15.7c1.1-4.5 1.2-9.3-.5-14.1l-1.8.5s-7.8 13.7-21.5 18.5h-.1c-2.3.8-4.8 1.4-7.4 1.5-18.4 1.3-26-2.1-26-2.1s8 8.4 33.5 6.3h.1c1.7-.1 3.4-.3 5.3-.6 0 0-2.1.9-5.3 1.8h-.1c-3.5 1-8.2 2-12.6 1.7 0 0 5.2 1.4 12.6.2h.1c6.9-1 15.8-4.5 23.7-13.7z"/><path fill="#7E736C" d="M138.2 14.7l8.3 4.2c-6.1-1-18.4 0-18.4 0V22c12.1-2.6 21.3 0 21.3 0l-3.9 1.6-8.1 3.8 12.2-3.3 1.8-.5c1.7 4.8 1.6 9.6.5 14.1-1 4.3-2.9 8.2-4.9 11.5-3.4 5.7-7.1 9.4-7.1 9.4s11.7-5.1 15.5-17.1c.7-2.2 1.1-4.6 1.2-7.3 1.4 2.9 1.2 6.4.5 9.8-1.1 5.3-3.7 10-3.7 10s2.6-3.5 4.7-8.5c1.8-4.3 3.2-9.7 2.2-14.9 3.6 2.6 2.6 6.1 4.2 10.3 1.6 4.2 14.6 9.2 18.5 14.3 3.8 5.1 6.4 14.7 5.7 18.2-.6 3.5 3.8 11.5 3.8 11.5-3.8-6.4-1.3-25.9-2.2-29.7-1-3.9-12.1-14-12.1-14l8.3 5.7s-7-8.3-13.7-13.1c-6.5-4.6-13.6-6.9-14-7l-3.2-4.9c-.6-1.1-1.3-2-2.1-2.8-5.8-5.5-15.3-4.4-15.3-4.4z"/></svg>