<svg xmlns="http://www.w3.org/2000/svg" width="256" height="256"><circle fill="#B1B3B5" cx="128" cy="128" r="128"/><path fill="#877118" d="M216.1 220.8c8.1-7.7 15.3-16.5 21.2-26.1h-36.4c4.4 8.3 12.2 22.1 15.2 26.1z"/><path fill="#A46127" d="M174.2 156.7c-1.8-.8-7.3-1.2-7.6-1.3-.6 4.9-1.1 10-1.4 15 9.3-12.6 10.9-12.9 9-13.7z"/><path fill="#CCAD9F" d="M128 160.2v74.1s27.7-50.9 37.1-63.7l.1-.1c.3-5 .8-10.1 1.4-15l.3-2.4c.3-2.2.6-4.3.9-6.3-.6 1.1-1.1 2.2-1.8 3.3-8.7 14.3-38 10.1-38 10.1zm47.6-40.4c2.8 2 6.6 4.5 8.5 5.3 3.2 1.3 7.7-5.1 6.5-7.7-1.1-2.6 2.7-8 4.6-9.9 1.9-1.9 1.9-12.1 1.9-15s0-7.3-2.9-7.9c-2.3-.5-7.3 2.1-9.3 3.3-2.3 8.6-6 18.6-7.6 23.8-.6 2.3-1.2 5.1-1.7 8.1z"/><path fill="#DEBCAD" d="M130.3 126.4c1.7-.8 3.8-.1 5 1.3 2.3 2.2 5.6 2.1 8 3 0 0-5.2 4.6-15.3 4.6v24.9s29.3 4.2 38-10.2l1.8-3.3c4.9-9.6 6.4-19.2 7.8-26.9.5-3 1.1-5.8 1.8-8.1 1.6-5.2 5.3-15.3 7.6-23.8 1.2-4.3 2-8.2 2-11 0-8.3 1.6-36.1-16.6-49.5-18.2-13.4-22.4-19-42.3-19v118.9c-.1-.1 1.1.2 2.2-.9zm14.5-66c11.3-1.4 17.4 0 20.6 1.1 3.2 1.1 6.2 6.2 5.9 7.3-.3 1.1-6.1-4.2-8.5-5.1s-15 1.1-16.6 1.1-1.4-4.4-1.4-4.4z"/><path fill="#A37D5C" d="M146.2 64.9c1.6 0 14.2-2.1 16.6-1.1s8.1 6.2 8.5 5.1c.3-1.1-2.7-6.2-5.9-7.3-3.2-1.1-9.3-2.6-20.6-1.1 0-.1-.2 4.4 1.4 4.4z"/><path fill="#CAA42C" d="M171.7 223.3c-.5-.3-.9-.6-1.4-1l-11.7 29.9c3.3-.8 6.5-1.7 9.6-2.8l3.5-26.1zM160.3 195c-.4-6.6 0-11.6 0-11.6l17.6-26.3c-.4-.7-.7-1.1-.8-1.2-1.4-1.7-10-2.8-10.2-2.9l-.3 2.4c.4 0 5.8.5 7.6 1.3 1.9.8.3 1.1-9 13.8l-.1.1c-9.4 12.8-37.1 63.7-37.1 63.7V256c1.7 0 3.4 0 5-.1l27.3-60.9z"/><path fill="#B19025" d="M170.3 222.4c-2-1.5-3.6-3.4-4.9-5.6-3.4-6.3-4.7-14.8-5.1-21.7L133 255.9c8.8-.3 17.3-1.6 25.5-3.6l11.8-29.9z"/><path fill="#9B801F" d="M201.3 228.2c-8.3.4-21.1.6-29.6-4.9l-3.5 26.2c14.4-4.8 27.6-12 39.2-21.2-1.8-.1-3.8-.2-6.1-.1z"/><path fill="#BA9728" d="M200.9 194.7c-1.4-2.7-2.5-4.7-2.9-5.7-1.9-4.3-20.1-31.8-20.1-31.8l-17.6 26.3s-.4 5 0 11.6c.4 6.9 1.7 15.4 5.1 21.7 1.3 2.3 2.9 4.2 4.9 5.6.4.3.9.7 1.4 1 8.5 5.5 21.4 5.3 29.6 4.9 2.3-.1 4.3 0 6.1.1 3-2.4 5.9-4.9 8.7-7.5-3-4.1-10.8-17.9-15.2-26.2z"/><path fill="#6F5C0C" d="M55.1 194.7H18.7c5.9 9.6 13 18.4 21.2 26.1 3-4 10.8-17.8 15.2-26.1z"/><path fill="#88511C" d="M81.8 156.7c-1.9.8-.3 1.1 9 13.8-.3-5-.8-10.1-1.4-15-.3 0-5.7.4-7.6 1.2z"/><path fill="#B49A8E" d="M89.5 155.4c.6 4.9 1.1 10 1.3 15l.1.1c9.4 12.8 37.1 63.7 37.1 63.7v-74.1s-29.3 4.2-38-10.2c-.7-1.1-1.2-2.2-1.8-3.3.3 2 .6 4.1.9 6.3l.4 2.5zM71 87.8c-2.1-1.1-7-3.7-9.3-3.3-2.9.6-2.9 5.1-2.9 7.9s0 13.1 1.9 15c1.9 1.9 5.7 7.3 4.6 9.9-1.1 2.6 3.4 8.9 6.5 7.7 1.9-.8 5.7-3.3 8.5-5.3-.5-3-1.1-5.8-1.8-8.1-1.4-5.1-5.2-15.2-7.5-23.8z"/><path fill="#CCAD9F" d="M128 160.2v-24.9c-10.1 0-15.3-4.6-15.3-4.6 2.4-.9 5.7-.8 8-3 1.2-1.4 3.3-2.1 5-1.3 1.1 1 2.3.8 2.3.8V8.4c-19.9 0-24.1 5.6-42.3 19S69 68.6 69 76.9c0 2.8.8 6.7 2 11 2.3 8.6 6 18.6 7.6 23.8.7 2.4 1.2 5.1 1.8 8.1 1.4 7.8 2.9 17.3 7.8 26.9.6 1.1 1.1 2.2 1.8 3.3 8.7 14.4 38 10.2 38 10.2zM90.6 61.5c3.2-1.1 9.3-2.6 20.6-1.1 0 0 .2 4.5-1.4 4.5s-14.2-2.1-16.6-1.1-8.2 6.2-8.5 5.1c-.3-1.1 2.7-6.2 5.9-7.4z"/><path fill="#A37D5C" d="M93.2 63.8c2.4-1 15 1.1 16.6 1.1s1.4-4.5 1.4-4.5c-11.3-1.4-17.4 0-20.6 1.1-3.2 1.1-6.2 6.2-5.9 7.3.3 1.2 6.1-4.1 8.5-5z"/><path fill="#BA9728" d="M85.7 222.4c-.4.3-.9.7-1.4 1l3.5 26.2c3.2 1 6.4 2 9.6 2.8l-11.7-30zm42.3 11.9s-27.7-50.9-37.1-63.7l-.1-.1c-9.3-12.6-10.9-13-9-13.8 1.8-.8 7.3-1.2 7.6-1.3l-.3-2.4c-.2 0-8.8 1.1-10.2 2.9-.1.1-.4.6-.8 1.2l17.6 26.3s.4 5 0 11.6l27.2 60.9c1.7.1 3.4.1 5 .1v-21.7z"/><path fill="#9B801F" d="M95.7 195c-.4 6.9-1.7 15.4-5.1 21.7-1.3 2.3-2.9 4.2-4.9 5.6l11.7 29.9c8.2 2 16.7 3.2 25.5 3.6L95.7 195z"/><path fill="#877118" d="M84.3 223.3c-8.5 5.5-21.4 5.3-29.6 4.9-2.3-.1-4.3 0-6.1.1 11.6 9.2 24.9 16.4 39.2 21.2l-3.5-26.2z"/><path fill="#B19025" d="M54.7 228.2c8.3.4 21.1.6 29.6-4.9.5-.3.9-.6 1.4-1 2-1.5 3.6-3.4 4.9-5.6 3.4-6.3 4.7-14.8 5.1-21.7.4-6.6 0-11.6 0-11.6l-17.6-26.3S59.9 184.6 58 188.9c-.4 1-1.5 3.1-2.9 5.7-4.4 8.3-12.2 22.1-15.2 26.1 2.8 2.6 5.7 5.1 8.7 7.5 1.8 0 3.8-.1 6.1 0z"/><path fill="#8B6146" d="M135.3 127.7c-1.2-1.4-3.3-2.1-5-1.3-1.1 1-2.3.8-2.3.8v8.1c10.1 0 15.3-4.6 15.3-4.6-2.4-.8-5.7-.8-8-3z"/><path fill="#744F38" d="M125.7 126.4c-1.7-.8-3.8-.1-5 1.3-2.3 2.2-5.6 2.1-8 3 0 0 5.2 4.6 15.3 4.6v-8.1s-1.2.3-2.3-.8z"/></svg>