<svg xmlns="http://www.w3.org/2000/svg" width="256" height="256"><circle fill="#B1B3B5" cx="128" cy="128" r="128"/><path fill="#6A635A" d="M188.8 45.4c.8.2 1.6.4 2.3.6.1-2.3-.5-4.3-1.6-6.1 0 3.2-.7 5.5-.7 5.5zm-7 66.4c0 2.3-.1 4.4-.4 5.9-.7 3-2 6.4-6.1 5.5-.7-.2-1.4-.4-1.9-.7-1.7 4.8-4.5 10.7-9 17.4 24.2 10.7 37.3-12.7 37.3-12.7h-13.9c8.5-.9 17.6-6.1 17.6-6.1-3.5-.1-6.3-1.1-8.5-2.9l-1.9 1.4c-8.9-.1-12-4.6-13.2-7.8z"/><path fill="#5E5850" d="M130.3 39.6v60.6-77.3 8.9zm-45 83.6c-4.1.9-5.5-2.5-6.1-5.5-.3-1.4-.4-3.6-.4-5.9-1.1 3.2-4.3 7.6-13 7.8l-1.9-1.4c-2.3 1.7-5 2.8-8.5 2.9 0 0 9.1 5.2 17.6 6.1H59.1s13.1 23.4 37.3 12.7c-4.5-6.7-7.3-12.5-9-17.4-.7.3-1.4.5-2.1.7zM71.1 39.8c-1.1 1.8-1.7 3.9-1.6 6.1.7-.2 1.5-.4 2.3-.6 0 .1-.7-2.2-.7-5.5z"/><path fill="#CCAD9F" d="M130.3 160.7v45.6c.1 0 24.9-3.2 29.6-51.9-.2-2.3 0-3.6.2-4.1l.3-4.8c-14.4 17.7-30.1 15.2-30.1 15.2z"/><path fill="#837169" d="M176.8 161.2c15.1 17.3 23.9 47.2 23.9 47.2L168.5 223l22.6 8.2c-1.1 3.5-2.2 6.8-3.3 10.1 22.7-12 41.3-30.6 53.3-53.2-16.5-5.3-51.2-22.1-64.3-26.9z"/><path fill="#805C47" d="M130.3 246.6v9.4c7.8-.1 15.4-1 22.8-2.4 1.1-7.3 2.1-14.7 2.9-21.9-5.7 7.9-13.9 13.7-25.7 14.9z"/><path fill="#CCAD9F" d="M173.4 122.5c.6.3 1.2.5 1.9.7 4.1.9 5.5-2.5 6.1-5.5.3-1.4.4-3.6.4-5.9-.6-1.8-.6-3.1-.6-3.1s-2.1-9.4-3.6-9.1c-1.5.3.6 14.5 0 15.5-.4.5-1.2-1.8-2-4.3-.1 1.3-.2 2.4-.2 3.1-.3 2.4-.9 5.2-2 8.6z"/><path fill="#DEBCAD" d="M175.3 113.9c.1-.8.1-1.8.2-3.1-.5-1.8-1.1-3.7-1.3-4.8-.6-2.7-.3-8.2-1.5-13.3-1.2-5.2 0-8.8 0-11.5s-1.5-7.6-5.2-10.9c-3.6-3.4-1.2-2.7-3.6-13.6 0 0-11.3-22.4-33.6-17v20.7c8 0 10-3.9 17.3-3 7.3.9 10.5 6.1 10.5 6.1s-5-3.5-10.6-4.4-13.3 2.9-17.1 2.9v58.9s1.2.2 2.4-.8c1.8-.8 4-.1 5.2 1.3 2.4 2.2 2.6 2.9 5.1 3.8 0 0-2.2 4-12.8 4v29.5s13.8 1.7 19.9-11.4l-.6 3.5s4.5-3.6 8-14.5c1.7-5.4 2.4-9.1 2.6-11.5v-3.6s.2 1.1 0 3.6c-.1 3.9-.3 9.8-1.5 12.8-1.8 4.5-8.3 22.6-28.3 22.6v.6s15.7 2.5 30.1-15.2c1-1.2 1.9-2.5 2.9-3.9.4-.6.8-1.1 1.1-1.7 4.5-6.7 7.3-12.5 9-17.4 1-3.5 1.6-6.3 1.8-8.7zm-14.8-40.5c-2.5-.7-9.3 2.3-12 5-2.7 2.7-7.3 0-7.3 0s6.6-4.5 9.8-6.4c3.2-1.8 9.1-2.5 11.8-1.1 2.7 1.4 4.3 5.6 4.3 5.6s-4.1-2.4-6.6-3.1z"/><path fill="#84694E" d="M162.8 70.9c-2.7-1.4-8.6-.7-11.8 1.1-3.2 1.8-9.8 6.4-9.8 6.4s4.5 2.7 7.3 0c2.7-2.7 9.5-5.7 12-5 2.5.7 6.6 3.1 6.6 3.1s-1.6-4.2-4.3-5.6z"/><path fill="#9D4D5E" d="M143.1 125.2c-2.5-.9-2.7-1.6-5.1-3.8-1.3-1.4-3.5-2.2-5.2-1.3-1.2 1.1-2.4.8-2.4.8v8.4c10.5-.1 12.7-4.1 12.7-4.1z"/><path fill="#8C8278" d="M130.3 39.6c-.1-.7 13.4-15.4 22.2-10.3 9.1 5.2 10.3 12.3 11.4 27.3 2.4 10.9 0 10.2 3.6 13.6 3.6 3.4 5.2 8.2 5.2 10.9s-1.2 6.4 0 11.5c1.2 5.2.9 10.6 1.5 13.3.2 1.1.8 3 1.3 4.8.8 2.5 1.7 4.9 2 4.3.6-.9-1.5-15.2 0-15.5 1.5-.3 3.6 9.1 3.6 9.1s0 1.4.6 3.1c1.1 3.2 4.3 7.6 13 7.8l1.9-1.4 4.8-3.5s-6.1-.6-7.6-5.5c-1.5-4.8 6.7-7.3 10-16.1s-4.2-21.2-4.2-21.2 7.9 5.5 13.3-.3c0 0-4.2 0-6.4-3.6-2-3.4-2.9-18-15.6-22.1-.7-.2-1.5-.4-2.3-.6 0 0 .7-2.2.7-5.5-.1-8-4.4-22.3-33.7-24.8 0 0-9.1-9.4-25.5-5.8v30.5zm27.6-16.8c3.9-.9 7.9.5 7.9.5l-3.3-1.5c9.7-2.7 16.7-.3 20.2 2.7s3.3 17.1 3.3 17.1l-1.6-5s-1.7-4.4-2.6-7c-.9-2.6-7.4-5.2-7.4-5.2l2.3 3.8c-3-3.2-8.6-3.8-8.6-3.8 14.7 6.1 20.5 32.1 20.5 32.1s-4.2.6-5.2.6 1.1 2.1 1.1 2.1c10.6 2.1 12.7 10.9 12.7 10.9-4.1-2.9-9.8-3.3-9.8-3.3 5 1 12.2 8.2 13.3 12.7 1.1 4.5-2.3 17.9-2.3 17.9-.3-3.9-5-8.8-10-11.1-5-2.3-6.1-11.5-6.1-11.5s3.3.9 7.4 4.1 7.1 7.4 7.1 7.4l-.9-4.7c-2.6-7.1-9.5-14.2-15.5-16.8-5.9-2.6-6.7-7.7-6.7-7.7-1.4-7 1.8-12.7 1.8-12.7 3 4.2 3.8 10.5 3.8 10.5v-6.7c-4.6-18.7-21.4-25.4-21.4-25.4zm-27.6 16.8z"/><path fill="#766E64" d="M130.4 39.6c22.3-5.5 33.6 17 33.6 17-1.1-15-2.3-22.1-11.4-27.3-8.9-5.1-22.4 9.6-22.2 10.3-.1 0-.1 0 0 0-.1 0-.1 0 0 0-.1 0-.1 0 0 0zm48.9 8.6v6.7s-.8-6.2-3.8-10.5c0 0-3.2 5.8-1.8 12.7 0 0 .8 5.2 6.7 7.7 5.9 2.6 12.9 9.7 15.5 16.8l.9 4.7s-3-4.2-7.1-7.4-7.4-4.1-7.4-4.1 1.1 9.3 6.1 11.5c5 2.3 9.7 7.1 10 11.1 0 0 3.3-13.3 2.3-17.9-1.1-4.5-8.3-11.7-13.3-12.7 0 0 5.7.4 9.8 3.3 0 0-2.1-8.8-12.7-10.9 0 0-2-2.1-1.1-2.1s5.2-.6 5.2-.6-5.8-26.1-20.5-32.1c0 0 5.6.6 8.6 3.8l-2.3-3.8s6.5 2.6 7.4 5.2c.9 2.6 2.6 7 2.6 7l1.6 5s.2-14.1-3.3-17.1-10.5-5.5-20.2-2.7l3.3 1.5s-3.9-1.4-7.9-.5c0 0 16.8 6.7 21.4 25.4z"/><path fill="#C0A397" d="M147.4 59c5.6.9 10.6 4.4 10.6 4.4s-3.2-5.2-10.5-6.1c-7.3-.9-9.2 3-17.3 3v1.5c3.9.1 11.6-3.7 17.2-2.8zm12.7 62.1v3.6c.3-2.5 0-3.6 0-3.6zm-1.5 16.4c1.2-2.9 1.5-8.9 1.5-12.8-.2 2.4-.9 6.2-2.6 11.5-3.5 10.9-8 14.5-8 14.5l.6-3.5c-6.1 13-19.9 11.4-19.9 11.4v1.4c20.1.1 26.6-18 28.4-22.5z"/><path fill="#958077" d="M159.9 154.4c.1-1.5.3-3 .4-4.6 0 0-.1.1-.2.5-.2.5-.4 1.8-.2 4.1z"/><path fill="#958077" d="M168.5 223l32.2-14.5s-8.8-29.9-23.9-47.2c-4.9-5.6-10.4-9.9-16.5-11.5 0 0 2.9 1.9 5.2 5.7 5.2 5.7 3.1 17.8 3.1 17.8v.2c.2 13.9-.3 41.1-12.6 58.2-.9 7.2-1.8 14.6-2.9 21.9 12.3-2.4 23.9-6.6 34.7-12.3 1.1-3.3 2.3-6.6 3.3-10.1l-22.6-8.2z"/><path fill="#5E876B" d="M130.3 246.6zm29.6-92.2c-4.7 48.7-29.5 51.9-29.6 51.9v40.2c11.8-1.2 20-7 25.7-14.9 12.3-17.1 12.8-44.4 12.6-58.2-2.2 22.4-19.1 31.6-19.1 31.6 19-16.5 16.1-48.9 16.1-49.5-2.4-3.8-5.2-5.7-5.2-5.7-.2 1.5-.4 3.1-.5 4.6zm1.7 47.1c.2-.5.5-1 .7-1.5h.9c-.2 0-.7.6-1.6 1.5-8.9 18.5-26.8 13.7-26.8 13.7 13.7-.1 23.2-9.9 26.8-13.7z"/><path fill="#50765C" d="M149.4 205s16.9-9.1 19.1-31.6v-.2s2.1-12.1-3.1-17.8c.1.7 3 33.2-16 49.6zm-14.6 10.2s17.9 4.7 26.8-13.7c-3.6 3.8-13.1 13.6-26.8 13.7zm28.4-15.2h-.9c-.2.5-.4 1-.7 1.5.9-.9 1.4-1.5 1.6-1.5z"/><path fill="#B49A8E" d="M100.7 154.4c4.7 48.7 29.5 51.9 29.6 51.9v-45.6s-15.7 2.5-30.1-15.2c.1 1.5.2 3.1.3 4.8.2.5.4 1.8.2 4.1z"/><path fill="#63534D" d="M92.1 223l-32.2-14.5s8.8-29.6 23.8-47c-13.4 5.2-48.8 22.7-67.1 29.5 13 23 33 41.7 57.2 53-1.5-4.1-2.9-8.4-4.3-12.8l22.6-8.2z"/><path fill="#634433" d="M130.3 246.6c-11.8-1.2-20-7-25.7-14.9.9 7.5 1.9 15.1 3.1 22.7 6.6 1.1 13.4 1.6 20.3 1.6h2.3v-9.4z"/><path fill="#B49A8E" d="M83 115.1c-.6-.9 1.5-15.2 0-15.5-1.5-.3-3.6 9.1-3.6 9.1s0 1.4-.6 3.1c0 2.3.1 4.4.4 5.9.7 3 2 6.4 6.1 5.5.7-.2 1.4-.4 1.9-.7-1.2-3.4-1.8-6.3-1.9-8.7-.1-.8-.1-1.8-.2-3.1-.9 2.6-1.7 4.9-2.1 4.4z"/><path fill="#CCAD9F" d="M130.3 160.7v-.6c-20 0-26.5-18-28.3-22.6-1.2-2.9-1.5-8.9-1.5-12.8-.2-2.5 0-3.6 0-3.6v3.6c.2 2.4.9 6.2 2.6 11.5 3.5 10.9 8 14.5 8 14.5l-.6-3.5c6.1 13 19.9 11.4 19.9 11.4v-29.5c-10.6 0-12.8-4-12.8-4 2.5-.9 2.7-1.6 5.1-3.8 1.3-1.4 3.5-2.2 5.2-1.3 1.2 1.1 2.4.8 2.4.8V61.9c-3.8 0-11.5-3.8-17.1-2.9s-10.6 4.4-10.6 4.4 3.2-5.2 10.5-6.1 9.2 3 17.3 3V39.6c-22.3-5.5-33.6 17-33.6 17-2.4 10.9 0 10.2-3.6 13.6-3.6 3.4-5.2 8.2-5.2 10.9s1.2 6.4 0 11.5c-1.2 5.2-.9 10.6-1.5 13.3-.2 1.1-.8 3-1.3 4.8.1 1.3.2 2.4.2 3.1.2 2.4.8 5.3 1.9 8.7 1.7 4.8 4.5 10.7 9 17.4.4.6.7 1.1 1.1 1.7 1 1.4 1.9 2.7 2.9 3.9 14.3 17.7 30 15.2 30 15.2zM97.8 70.9c2.7-1.4 8.6-.7 11.8 1.1 3.2 1.8 9.8 6.4 9.8 6.4s-4.5 2.7-7.3 0c-2.7-2.7-9.5-5.7-12-5-2.5.7-6.6 3.1-6.6 3.1s1.6-4.2 4.3-5.6z"/><path fill="#6C563F" d="M112.1 78.4c2.7 2.7 7.3 0 7.3 0s-6.6-4.5-9.8-6.4c-3.2-1.8-9.1-2.5-11.8-1.1-2.7 1.4-4.3 5.6-4.3 5.6s4.1-2.4 6.6-3.1c2.5-.7 9.3 2.3 12 5z"/><path fill="#884251" d="M127.9 120c-1.8-.8-4-.1-5.2 1.3-2.4 2.2-2.6 2.9-5.1 3.8 0 0 2.2 4 12.8 4v-8.4c-.1.1-1.4.4-2.5-.7z"/><path fill="#766E64" d="M78.7 111.8c.6-1.8.6-3.1.6-3.1s2.1-9.4 3.6-9.1c1.5.3-.6 14.5 0 15.5.4.5 1.2-1.8 2-4.3.5-1.8 1.1-3.7 1.3-4.8.6-2.7.3-8.2 1.5-13.3 1.2-5.2 0-8.8 0-11.5s1.5-7.6 5.2-10.9c3.6-3.4 1.2-2.7 3.6-13.6 1.1-15 2.3-22.1 11.4-27.3 8.8-5.1 22.4 9.6 22.2 10.3V9.3c-16.4-3.6-25.5 5.8-25.5 5.8-29.3 2.5-33.7 16.8-33.7 24.8 0 3.3.7 5.5.7 5.5-.8.2-1.6.4-2.3.6-12.7 4.1-13.6 18.7-15.6 22.1-2.1 3.6-6.4 3.6-6.4 3.6 5.7 5.8 13.6.3 13.6.3s-7.6 12.4-4.2 21.2c3.3 8.8 11.5 11.2 10 16.1-1.5 4.8-7.6 5.5-7.6 5.5l4.8 3.5 1.9 1.4c8.7-.2 11.8-4.7 12.9-7.9zM62.4 97.5s-3.3-13.3-2.3-17.9c1.1-4.5 8.3-11.7 13.3-12.7 0 0-5.7.4-9.8 3.3 0 0 2.1-8.8 12.7-10.9 0 0 2-2.1 1.1-2.1s-5.2-.6-5.2-.6S78 30.5 92.7 24.4c0 0-5.6.6-8.6 3.8l2.3-3.8S79.9 27 79 29.6c-.9 2.6-2.6 7-2.6 7l-1.6 5s-.2-14.1 3.3-17.1 10.5-5.5 20.2-2.7L95 23.3s3.9-1.4 7.9-.5c0 0-16.8 6.8-21.4 25.5V55s.8-6.2 3.8-10.5c0 0 3.2 5.8 1.8 12.7 0 0-.8 5.2-6.7 7.7-5.9 2.6-12.9 9.7-15.5 16.8l-.9 4.7s3-4.2 7.1-7.4 7.4-4.1 7.4-4.1-1.1 9.3-6.1 11.5c-5 2.3-9.7 7.1-10 11.1zm67.9-57.9z"/><path fill="#6A635A" d="M130.3 39.6c.1-.7-13.4-15.4-22.2-10.3-9.1 5.2-10.3 12.3-11.4 27.3-.1 0 11.3-22.4 33.6-17zM78.4 74.9s-3.3.9-7.4 4.1-7.1 7.4-7.1 7.4l.9-4.7c2.6-7.1 9.5-14.2 15.5-16.8 5.9-2.6 6.7-7.7 6.7-7.7 1.4-7-1.8-12.7-1.8-12.7-3 4.2-3.8 10.5-3.8 10.5v-6.7c4.6-18.7 21.4-25.5 21.4-25.5-3.9-.9-7.9.5-7.9.5l3.3-1.5c-9.8-2.8-16.8-.4-20.2 2.6s-3.3 17.1-3.3 17.1l1.6-5s1.7-4.4 2.6-7c.9-2.6 7.4-5.2 7.4-5.2L84 28.2c3-3.2 8.6-3.8 8.6-3.8C78 30.5 72.2 56.6 72.2 56.6s4.2.6 5.2.6-1.1 2.1-1.1 2.1c-10.6 2.1-12.7 10.9-12.7 10.9 4.1-2.9 9.8-3.3 9.8-3.3-5 1-12.2 8.2-13.3 12.7-1.1 4.5 2.3 17.9 2.3 17.9.3-3.9 5-8.8 10-11.1 5-2.2 6-11.5 6-11.5z"/><path fill="#9C867D" d="M113 57.3c-7.3.9-10.5 6.1-10.5 6.1s5-3.5 10.6-4.4 13.3 2.9 17.1 2.9v-1.5c-7.9 0-9.9-4-17.2-3.1zm-12.6 63.8s-.2 1.1 0 3.6v-3.6zm10 26.2l.6 3.5s-4.5-3.6-8-14.5c-1.7-5.4-2.4-9.1-2.6-11.5.1 3.9.3 9.8 1.5 12.8 1.8 4.5 8.3 22.6 28.3 22.6v-1.4c.1-.1-13.7 1.6-19.8-11.5z"/><path fill="#837169" d="M100.7 154.4c.2-2.3 0-3.6-.2-4.1-.1-.3-.2-.5-.2-.5.1 1.5.3 3.1.4 4.6z"/><path fill="#837169" d="M92 173.5v-.2s-2.1-12.1 3.1-17.8c2.4-3.8 5.2-5.7 5.2-5.7-6.2 1.6-11.8 6-16.7 11.6-15 17.4-23.8 47-23.8 47L92.1 223l-22.6 8.2c1.4 4.5 2.8 8.7 4.3 12.8 10.6 4.9 21.9 8.5 33.8 10.4-1.2-7.6-2.2-15.2-3.1-22.7-12.2-17.1-12.7-44.4-12.5-58.2z"/><path fill="#50765C" d="M95.1 155.5c-.1.6-2.9 33 16.1 49.5 0 0-16.9-9.1-19.1-31.6-.2 13.9.3 41.1 12.6 58.2 5.7 7.9 13.9 13.7 25.7 14.9v-40.2c-.1 0-24.9-3.2-29.6-51.9-.1-1.5-.3-3-.4-4.6-.1 0-3 1.9-5.3 5.7zm3.2 44.5c.2.5.4 1 .7 1.5 3.6 3.8 13.1 13.6 26.8 13.7 0 0-17.9 4.7-26.8-13.7-.9-.9-1.4-1.5-1.6-1.5h.9z"/><path fill="#3B5D47" d="M111.1 205c-19-16.5-16.1-48.9-16.1-49.5-5.2 5.7-3.1 17.8-3.1 17.8v.2c2.3 22.4 19.2 31.5 19.2 31.5zm14.7 10.2c-13.7-.2-23.2-10-26.8-13.7 8.9 18.5 26.8 13.7 26.8 13.7zm-26.9-13.7c-.2-.5-.5-1-.7-1.5h-.9c.2 0 .8.6 1.6 1.5z"/></svg>