<svg xmlns="http://www.w3.org/2000/svg" width="256" height="256"><circle fill="#B2B4B5" cx="128" cy="128" r="128"/><path fill="#5A5F6F" d="M223.8 208.5l-15.7-9c1.4 2 2.8 3.9 3.9 5.6l13.9 5.4c.1-.1.2-.3.3-.4l.3-.8-2.7-.8zm-24.7-8.9c-1.7-2.4-3.2-4.4-4-5.3l-.6-.1c0 1 .1 2 .1 2.7 1.8 1.1 3.3 2 4.5 2.7z"/><path fill="#962B38" d="M138.6 255.4h-3.5l.2.4c29.8-1.7 56.8-13.5 77.7-32.1-27.8 11.4-71.7 29-71.7 29l-2.7 2.7z"/><path fill="#73798A" d="M128.1 255.4v.6c2.4 0 4.8-.1 7.2-.2l-.2-.4h-7z"/><path fill="#29303A" d="M162.7 182.9c-3.1 4.6-14.6 11.3-34.6 11.3v19.2c8.1 0 34.6.2 39.6-8.9s5-19.3-.9-26.2c0 0 .1 0 .4.1-1.3-1.8-2.4-4.3-3.2-6.5.3 1.9 1.2 7.3-1.3 11z"/><path fill="#29303A" d="M128.1 185.3v4.1c1.7-.1 18.3-.7 26.9-6.5 7-4.7 8.4-9 8.7-10.8l-1.5.9-.1.6s-9.6 11.6-34 11.7zm71 14.3c-1.2-.7-2.7-1.6-4.5-2.7v11.7c-10.9 1.9-18.2-4.5-18.2-4.5-.3-4.7-1.2-8.8-2.3-12.3.1 6.5-1.5 15.7-7.9 20.9-8.3 6.7-29 6.7-38.2 6.7v27.3h10.6s37.7-11.3 73.7-27.9c-3.8-5.5-6.3-8.9-6.3-8.9s-3.7-5.7-6.9-10.3zm15.2 8.9c1.8 2.2 3.5 4.5 5.2 7 1.2-.6 2.4-1.1 3.5-1.7 1-1.1 1.9-2.2 2.9-3.3l-13.9-5.4c1.3 2 2.3 3.4 2.3 3.4z"/><path fill="#30343E" d="M186.1 134.2l-1.2 2.2-2.7-.9-18.1 23.9-2 13.6 1.5-.9c.1-.5.1-.9.1-.9s.1.3.2.7l19-12.3 14.7-34.8-6.7 9.4h-4.8z"/><path fill="#1E222A" d="M182.4 93.3V67.6h.1l-1.7-9.8c.1 6.8.7 30.9 1.4 34.4.1.3.2.7.2 1.1zm-9.6-51.1s5.1 7.4 7.5 12.6l-.3-1.5s-1.2-17.2-8.5-27.8V41c.5.4.9.8 1.3 1.2zm-8.6 117.2l18-23.9-3.5-1.2v3.7l-3.5 3.7-2.7-2.2-4.9 5.2v4.7l-9.1 8 .8.9z"/><path fill="#424350" d="M152.6 30.8c6.5 1.9 13.3 5.1 19 10.3V25.6c-10.4-14.1-41.2-17.1-43.5-17.3v19.8c1.3 0 12.4-.9 24.5 2.7zm37.2 75.6c0 3.8-3.7 8.3-3.7 8.3s-.6-1.6-1.4-4.5l-6 21.3v2.8l3.5 1.2 2.7.9 1.2-2.2H182v-2.6l2.6-5.7h4.5c3.4-5.3 0-9.3 0-9.3l5.1-11.7 4.3-53.5-.8-29.3h-2.9l-2.4 54-2.9.6v.1l.2.4c.1.2.1 25.4.1 29.2z"/><path fill="#73798A" d="M182.4 91v2.3c.9 4.9 2.5 16 2.5 16l-.3.9c.7 2.9 1.4 4.5 1.4 4.5s3.7-4.5 3.7-8.3V77.3l-.2-.4-4.4-9.4h-2.7V91z"/><path fill="#5A5F6F" d="M170.9 89.7h1.1l-.2-2.9 4.9 1 1.9 22.2-3.6 5.5c.6 1.8 1 2.7 1 2.7s-8.5 19.5-24.3 31.5l6.7 7.8 9.1-8v-4.6l4.9-5.3 2.7 2.2 3.5-3.7v-6.5l6-21.3.3-.9s-1.6-11.1-2.5-16c-.1-.4-.1-.8-.2-1.1-.7-3.6-1.2-27.6-1.4-34.4v-1.8c-.1-.4-.3-.7-.5-1.1-2.4-5.3-7.5-12.6-7.5-12.6s-2.5 29.7-1.9 47.3z"/><path fill="#CECFD3" d="M128.1 62v42.5h6L148.4 90h2.1c-.3-34.5 2.1-59.2 2.1-59.2-12.1-3.5-23.1-2.7-24.5-2.6V62z"/><path fill="#CECFD3" d="M153.3 89.5l17.6.2c-.6-17.5 1.9-47.4 1.9-47.4-.4-.4-.8-.8-1.3-1.2-5.7-5.2-12.5-8.4-19-10.3l2.2 1c-2.8 39.7-1.4 57.7-1.4 57.7zm14.6 22.7l-.2.2c-1.3 1.5-2.9 2.9-4.7 4.1l-6.5 5.6-17.9-2.4-4.8-8.6h-5.6v25.4c1.6.4 15.7 4.2 23.5 12.9l.2.2c15.8-12 24.3-31.5 24.3-31.5s-.4-.9-1-2.7l-.4.6-6.9-3.8z"/><path fill="#282E3D" d="M133.6 163.1s6.5 3.9 6.5 8.8h-3.7v2.2h3.7s-2.5 8.7-12 8.8v1.3c1.5-.2 14.1-2.4 14.1-12.8 0-10.9-10.3-11.4-14.1-11.4v3.1h5.5z"/><path fill="#282E3D" d="M134 169.5l1.5-1.4s-2.3-3-7.4-3v3c.7-.2 3.8-.7 5.9 1.4zm2.3 7.7l-2.3-.6s-1.9 2-5.9 2.1v2.1c.8-.2 5.4-.9 8.2-3.6z"/><path fill="#282E3D" d="M128.1 136.5v6.3c1.6 0 14.7.1 22.2 11.2l-4.3 7.2 1.4 1.4 4-6.5 3.2.5 1.1 4.6-6.4 5.3 1.6 2.1s6.1-3 7.2-5.7l4.2.6-1.1 9.3s-2.8 6.5-16.1 2.6c0 0 3.8-11-7.2-20.1l3.2-6.4-1.8-1.3-3.7 6.5s-2.1-.9-7.6-1v2.7h5.6s9.7 4.8 9.6 16.8c-.2 11.3-13.6 12.6-15.2 12.8 24.4 0 34.1-11.7 34.1-11.7l.1-.6 2-13.6-4.9-1.1-.8-.9-6.7-7.8-.2-.2c-7.8-8.9-21.9-12.6-23.5-13z"/><path fill="#B1B4B8" d="M139.3 147.5l1.8 1.3-3.2 6.4c11 9.1 7.2 20.1 7.2 20.1 13.3 4 16.1-2.6 16.1-2.6l1.1-9.3-4.2-.6c-1.1 2.8-7.2 5.7-7.2 5.7l-1.6-2.1 6.4-5.3-1.1-4.6-3.2-.5-4 6.5-1.4-1.4 4.3-7.2c-7.5-11.1-20.7-11.2-22.2-11.2v10.2c5.4 0 7.6 1 7.6 1l3.6-6.4z"/><path fill="#848A94" d="M128.1 160c3.8 0 14.1.5 14.1 11.4 0 10.3-12.6 12.5-14.1 12.8v1.1c1.6-.1 15.1-1.5 15.2-12.8.2-12-9.6-16.8-9.6-16.8h-5.6v4.3z"/><path fill="#737982" d="M128.1 165c5.1.1 7.4 3 7.4 3l-1.5 1.4c-2.1-2.1-5.2-1.6-5.9-1.5v10.5c4-.1 5.9-2.1 5.9-2.1l2.3.6c-2.7 2.7-7.3 3.4-8.2 3.5v2.2c9.6-.1 12-8.8 12-8.8h-3.7v-2.2h3.7c0-4.9-6.5-8.8-6.5-8.8h-5.5v2.2z"/><path fill="#545663" d="M194.2 105l-5.1 11.7s3.4 4 0 9.3h-4.5l-2.6 5.7h8.9l9.9-14.7 1.4-61.1-3.6-4.3-4.4 53.4z"/><path fill="#C8CAD5" d="M190.9 131.7H182v2.5h9l6.7-9.4 2.4-3.4.7-4.4z"/><path fill="#93969A" d="M150.5 90h-2.1L134 104.5h-6v2.3h7.1l14.6-14.6h22.8V105s-1.6 3.7-4.9 7.3l.2-.2 6.9 3.8.4-.6 3.6-5.5-1.9-22.2-4.9-1 .2 2.9H171l-17.6-.2s-1.4-18 1.5-57.8l-2.2-1c-.2.3-2.5 25-2.2 59.5zm-12 29.7l17.9 2.4 6.5-5.6c-1.6 1-3.5 1.8-5.5 2.2l-20.4-4-1.7-4.9H128v1.2h5.6l4.9 8.7z"/><path fill="#30343E" d="M135.4 109.8l1.7 4.9 20.4 4c2-.4 3.9-1.2 5.5-2.2 1.8-1.2 3.4-2.6 4.7-4.1 3.2-3.6 4.9-7.3 4.9-7.3V92.2h-22.8l-14.6 14.6h-7.1v3h7.3zm2.2-4.3l12.3-12.2h18.8s2.2 14-6.1 18.3-25.1 0-25.1 0v-6.1h.1z"/><path fill="#B82025" d="M162.7 111.5c8.3-4.3 6.1-18.3 6.1-18.3H150l-12.3 12.2v6.1c-.1 0 16.7 4.3 25 0z"/><path fill="#9193A2" d="M226.5 209.3l-.3.8c.5-.6 1-1.3 1.6-1.9l-.9.3-.4.8zm-7 6.2c.3.4.5.8.8 1.2.9-1 1.8-1.9 2.7-2.9-1.2.5-2.3 1.1-3.5 1.7zm-7.1 3.3c-36 16.6-73.7 27.9-73.7 27.9h-10.6v8.8h10.5l2.8-2.8s43.8-17.6 71.7-29c.6-.5 1.1-1 1.7-1.5-.9-1.2-1.7-2.3-2.4-3.4z"/><path fill="#121119" d="M173.7 186.8c.3 1.3.4 3 .5 5 1.1 3.5 1.9 7.5 2.3 12.3l6.1-12.4-2.4-12.1s-4.8-3.8-13.6-2.1c0 0 .4.4 1 1.2 1.5.7 5 2.9 6.1 8.1z"/><path fill="#F3F2F4" d="M194.6 208.6v-10.4l-12.1-6.5-6.1 12.4s7.4 6.4 18.2 4.5zm-13.9-4.5l3.2-6.8 8 3.1-1 5.9c0-.1-4.3 1.9-10.2-2.2z"/><path fill="#AE6D82" d="M191.9 200.3l-8-3.1-3.2 6.8c5.9 4.1 10.2 2.1 10.2 2.1l1-5.8z"/><path fill="#323943" d="M182.5 191.7l12.1 6.5v-1.3c0-.7 0-1.7-.1-2.7-.1-3.3-.4-7.4-1-8-1-1-13.4-6.7-13.4-6.7l2.4 12.2z"/><path fill="#AFB4C6" d="M155 182.9c-8.6 5.8-25.2 6.5-26.9 6.5v4.8c20 0 31.5-6.7 34.6-11.3 2.5-3.8 1.7-9.1 1.3-11-.1-.4-.2-.7-.2-.7s0 .3-.1.9c-.3 1.8-1.7 6.1-8.7 10.8z"/><path fill="#AFB4C6" d="M167.7 204.5c-5 9-31.5 8.9-39.6 8.9v6c9.2 0 29.8 0 38.2-6.7 6.4-5.1 8-14.4 7.9-20.9 0-2-.2-3.7-.5-5-1.1-5.2-4.6-7.4-6.2-8.2-.2-.1-.3-.1-.4-.2-.2-.1-.4-.1-.4-.1 6 7 6 17.1 1 26.2z"/><path fill="#545663" d="M219.5 215.5c-1.7-2.5-3.5-4.8-5.2-7-4.1-2-8.1 1.4-8.1 1.4s2.5 3.4 6.3 8.9c.7 1 1.5 2.2 2.3 3.4 1.9-1.8 3.8-3.6 5.6-5.5-.4-.4-.6-.8-.9-1.2z"/><path fill="#424350" d="M206.1 209.9s4.1-3.4 8.1-1.4c0 0-.9-1.4-2.3-3.4-1.1-1.6-2.5-3.6-3.9-5.6-2.9-3.9-6-7.7-7.2-7.9-2.6-.3-6.2 2.3-6.2 2.3.1.1.3.2.4.4.8.9 2.4 2.9 4 5.3 3.3 4.6 7.1 10.3 7.1 10.3z"/><path fill="#4C515F" d="M61.4 196.9c0-.7 0-1.7.1-2.7l-.6.1c-.8.9-2.4 2.9-4 5.3 1.2-.7 2.7-1.6 4.5-2.7zm-13.5 2.6l-15.7 9-2.8.8.3.8c.1.1.2.3.3.4l13.9-5.4c1.2-1.6 2.6-3.6 4-5.6z"/><path fill="#731C26" d="M117.4 255.4l-2.8-2.8s-43.8-17.6-71.7-29c20.9 18.6 47.9 30.4 77.7 32.1l.2-.4h-3.4v.1z"/><path fill="#525764" d="M127.9 255.4h-7l-.2.4c2.4.1 4.9.2 7.3.2h.1v-.6h-.2z"/><path fill="#191F28" d="M36.5 215.5c1.7-2.5 3.5-4.8 5.2-7 0 0 .9-1.4 2.3-3.4l-13.9 5.4c.9 1.1 1.9 2.2 2.9 3.3 1.2.5 2.3 1.1 3.5 1.7zm51.8-11c5 9.1 31.9 8.9 39.8 8.9v-19.2c-20.1 0-31.6-6.7-34.7-11.3-2.5-3.8-1.7-9.1-1.3-11-.8 2.3-1.9 4.7-3.2 6.5.2-.1.4-.1.4-.1-6 7-6 17.1-1 26.2z"/><path fill="#191F28" d="M101 182.9c9.1 6.1 27.1 6.5 27.1 6.5v-4.1c-24.5 0-34.2-11.7-34.2-11.7l-.1-.6-1.5-.9c.3 1.8 1.7 6.1 8.7 10.8zm-11.3 29.8c-6.4-5.1-8-14.4-7.9-20.9-1.1 3.5-1.9 7.5-2.3 12.3 0 0-7.3 6.4-18.2 4.5v-11.7c-1.8 1.1-3.3 2-4.5 2.7-3.3 4.6-7 10.3-7 10.3s-2.5 3.4-6.3 8.9c36 16.6 73.7 27.9 73.7 27.9H128v-27.3c-9 0-29.9 0-38.3-6.7z"/><path fill="#1F232C" d="M92.2 171.2s0 .3.1.9l1.5.9-2-13.6-18.1-23.9-2.7.9-1.2-2.2H65l-6.7-9.4L73 159.7 92 172c.2-.5.2-.8.2-.8z"/><path fill="#060913" d="M84.4 41V25.6c-7.3 10.5-8.5 27.8-8.5 27.8l-.3 1.5c2.4-5.3 7.5-12.6 7.5-12.6l1.3-1.3zM73.6 91v2.3c.1-.4.1-.8.2-1.1.7-3.6 1.2-27.6 1.4-34.4l-1.7 9.8h.1V91zm23.9 66.4l-9.1-8v-4.7l-4.9-5.2-2.7 2.2-3.5-3.7v-3.7l-3.5 1.2 18 23.9 4.9-1.1z"/><path fill="#1E222A" d="M103.4 30.8c12.9-3.8 24.6-2.6 24.6-2.6V8.4h-.2c-2.3.2-33 3.1-43.5 17.3V41c5.9-5.2 12.6-8.3 19.1-10.2z"/><path fill="#282834" d="M61.8 105l5.1 11.7s-3.4 4 0 9.3h4.5l2.6 5.7v2.6h-4.1l1.2 2.2 2.7-.9 3.5-1.2v-2.8l-6-21.3c-.7 2.9-1.4 4.5-1.4 4.5s-3.7-4.5-3.7-8.3V77.4l.2-.4v-.1l-2.9-.6-2.4-54h-2.9l-.8 29.3 4.4 53.4z"/><path fill="#585E6B" d="M66.2 106.4c0 3.8 3.7 8.3 3.7 8.3s.6-1.6 1.4-4.5l-.3-.9s1.6-11.1 2.5-16V67.6h-2.7L66.4 77l-.2.4v29z"/><path fill="#545663" d="M73.6 93.3c-.9 4.9-2.5 16-2.5 16l.3.9 6 21.3v6.5l3.5 3.7 2.7-2.2 4.9 5.3v4.6l9.1 8 6.7-7.8c-15.8-12-24.3-31.5-24.3-31.5s.4-.9 1-2.7l-3.6-5.5 1.9-22.2 4.9-1-.2 3h1.1c.6-17.5-1.9-47.4-1.9-47.4s-5.1 7.4-7.5 12.6c-.2.4-.3.7-.5 1.1v1.8c-.1 6.8-.7 30.9-1.4 34.4-.1.3-.2.7-.2 1.1z"/><path fill="#93969A" d="M105.5 90h2.1l14.4 14.5h6.2V28.2s-11.8-1.2-24.6 2.6c-.1 0 2.2 24.7 1.9 59.2zm-2.8-.5s1.4-18-1.5-57.8l2.2-1c-6.5 1.9-13.3 5.1-19 10.3-.4.4-.9.8-1.3 1.2 0 0 2.5 29.9 1.9 47.4l17.7-.1zm25.4 46.9V111h-5.8l-4.8 8.6-17.9 2.4-6.5-5.6c-1.8-1.2-3.4-2.6-4.7-4.1l-.2-.2-6.9 3.8-.4-.6c-.6 1.8-1 2.7-1 2.7s8.5 19.5 24.3 31.5l.2-.2c8.3-9.2 23.7-12.9 23.7-12.9z"/><path fill="#1A1F2D" d="M128.1 165c-5.2 0-7.5 3-7.5 3l1.5 1.4c2.4-2.4 6.1-1.4 6.1-1.4v-3h-.1z"/><path fill="#1A1F2D" d="M128.1 185.3s-15.2-.8-15.4-12.8c-.2-12 9.6-16.8 9.6-16.8h5.8V153c-5.5 0-7.7 1-7.7 1l-3.7-6.5-1.8 1.3 3.2 6.4c-11 9.1-7.2 20.1-7.2 20.1-13.3 4-16.1-2.6-16.1-2.6l-1.1-9.3 4.2-.6c1.1 2.8 7.2 5.7 7.2 5.7l1.6-2.1-6.4-5.3 1.1-4.6 3.2-.5 4 6.5 1.4-1.4-4.3-7.2c8-11.8 22.4-11.2 22.4-11.2v-6.3s-15.4 3.7-23.7 12.9l-.2.2-6.7 7.8-.8.9-4.9 1.1 2 13.6.1.6c0 .1 9.6 11.8 34.2 11.8z"/><path fill="#1A1F2D" d="M128.1 182.9c-9.7 0-12.2-8.8-12.2-8.8h3.7v-2.2h-3.7c0-4.9 6.5-8.8 6.5-8.8h5.7V160c-3.6 0-14.3.4-14.3 11.4s14.3 12.8 14.3 12.8v-1.3z"/><path fill="#1A1F2D" d="M128.1 178.6c-4.1 0-6.1-2.1-6.1-2.1l-2.3.6c3 3 8.3 3.5 8.3 3.5v-2h.1z"/><path fill="#848A94" d="M128.1 150.7v-7.8s-14.4-.6-22.4 11.2l4.3 7.2-1.4 1.4-4-6.5-3.2.5-1.1 4.6 6.4 5.3-1.6 2.1s-6.1-3-7.2-5.7l-4.2.6 1.1 9.3s2.8 6.5 16.1 2.6c0 0-3.8-11 7.2-20.1l-3.2-6.4 1.8-1.3 3.7 6.5s2.2-1 7.7-1v-2.5z"/><path fill="#737982" d="M128.1 185.3v-1.1s-14.3-1.8-14.3-12.8 10.6-11.4 14.3-11.4v-4.2h-5.8s-9.7 4.8-9.6 16.8c.2 11.9 15.4 12.7 15.4 12.7z"/><path fill="#575C64" d="M128.1 180.7s-5.3-.5-8.3-3.5l2.3-.6s2 2.1 6.1 2.1v-10.5s-3.7-1-6.1 1.4l-1.5-1.4s2.3-3 7.5-3v-1.9h-5.7s-6.5 3.9-6.5 8.8h3.7v2.2h-3.7s2.5 8.8 12.2 8.8v-2.4z"/><path fill="#424350" d="M65.1 131.7H74l-2.6-5.7h-4.5c-3.4-5.3 0-9.3 0-9.3L61.8 105l-4.3-53.5-3.6 4.3 1.4 61.1 9.8 14.8z"/><path fill="#93969A" d="M69.9 134.2H74v-2.5h-8.9L55.2 117l.7 4.4 2.4 3.4 6.7 9.4z"/><path fill="#7A7D80" d="M127.9 109.8h-7.3l-1.7 4.9-20.4 4c-2-.4-3.9-1.2-5.5-2.2l6.5 5.6 17.9-2.4 4.8-8.6h5.8v-1.2h-.1v-.1zm-39.8 2.4l.2.2c-3.2-3.6-4.9-7.3-4.9-7.3V92.2h22.8l14.6 14.6h7.3v-2.3h-6.2L107.6 90h-2.1c.3-34.5-2.1-59.2-2.1-59.2l-2.2 1c2.9 39.8 1.5 57.8 1.5 57.8l-17.6.2H84l.2-2.9-4.9 1-1.9 22.2 3.6 5.5.4.6 6.7-4z"/><path fill="#21252E" d="M118.9 114.7l1.7-4.9h7.5v-3h-7.3l-14.6-14.6H83.5V105s1.6 3.7 4.9 7.3c1.3 1.5 2.9 2.9 4.7 4.1 1.6 1 3.5 1.8 5.5 2.2l20.3-3.9zM87.2 93.3H106l12.3 12.2v6.1s-16.8 4.3-25.1 0c-8.2-4.4-6-18.3-6-18.3z"/><path fill="#820E10" d="M118.4 111.5v-6.1l-12.3-12.2H87.2s-2.2 14 6.1 18.3c8.3 4.3 25.1 0 25.1 0z"/><path fill="#777B89" d="M29.2 208.5s-.4-.1-.9-.3c.5.6 1 1.3 1.6 1.9l-.3-.8-.4-.8zm88.2 46.9h10.7v-8.7h-10.8s-37.7-11.3-73.7-27.9c-.7 1-1.5 2.2-2.3 3.4.5.5 1.1 1 1.7 1.5 27.8 11.4 71.7 29 71.7 29l2.7 2.7zm-80.9-39.9c-1.2-.6-2.4-1.1-3.5-1.7.9 1 1.8 2 2.7 2.9.3-.4.5-.8.8-1.2z"/><path fill="#000004" d="M73.5 191.7l6.1 12.4c.3-4.7 1.2-8.8 2.3-12.3 0-2 .2-3.7.5-5 1.1-5.2 4.6-7.4 6.2-8.2.6-.8 1-1.2 1-1.2-8.8-1.8-13.6 2.1-13.6 2.1l-2.5 12.2z"/><path fill="#989A9D" d="M61.4 208.6c10.9 1.9 18.2-4.5 18.2-4.5l-6.1-12.4-12.1 6.5v10.4zm10.7-11.4l3.2 6.8c-5.9 4.1-10.2 2.1-10.2 2.1l-1-5.9 8-3z"/><path fill="#7F4E5F" d="M75.3 204.1l-3.2-6.8-8 3.1 1 5.9c0-.1 4.3 1.9 10.2-2.2z"/><path fill="#232933" d="M61.4 198.2l12.1-6.5 2.4-12.1s-12.5 5.7-13.4 6.7c-.6.6-.9 4.7-1 8 0 1-.1 2-.1 2.7v1.2z"/><path fill="#777B89" d="M128.1 189.5s-18-.4-27.1-6.5c-7-4.7-8.4-9-8.7-10.8-.1-.5-.1-.9-.1-.9s-.1.3-.2.7c-.4 1.9-1.3 7.2 1.3 11 3.1 4.6 14.6 11.3 34.7 11.3l.1-4.8z"/><path fill="#777B89" d="M82.3 186.8c-.3 1.3-.4 3-.5 5-.1 6.5 1.5 15.7 7.9 20.9 8.4 6.7 29.3 6.7 38.3 6.7v-6c-7.9 0-34.7.2-39.8-8.9-5-9.1-5-19.3.9-26.2 0 0-.1 0-.4.1-.1 0-.2.1-.4.2-1.4.8-4.9 3-6 8.2z"/><path fill="#424350" d="M43.6 218.8c3.8-5.5 6.3-8.9 6.3-8.9s-4.1-3.4-8.1-1.4c-1.8 2.2-3.5 4.5-5.2 7-.3.4-.5.8-.8 1.2 1.8 1.9 3.7 3.7 5.6 5.5.7-1.2 1.5-2.3 2.2-3.4z"/><path fill="#2E2E3A" d="M41.7 208.5c4.1-2 8.1 1.4 8.1 1.4s3.8-5.7 7-10.3c1.7-2.4 3.2-4.4 4-5.3l.4-.4s-3.6-2.6-6.2-2.3c-1.2.1-4.3 3.9-7.2 7.9-1.4 2-2.8 3.9-3.9 5.6-1.2 2-2.2 3.4-2.2 3.4z"/></svg>