<svg xmlns="http://www.w3.org/2000/svg" width="256" height="256"><circle fill="#B1B3B5" cx="128" cy="128" r="128"/><path fill="#111218" d="M175.5 159.9l1.5 8.6.1.1-.8-4.9c3.2 1.7 6 3.7 8.5 6-2.3-3.9-5.1-7.2-8.5-10.6l-.8.8z"/><path fill="#868483" d="M178.2 175.2s-1.3 2.1-4.1 5c-1 10.5-2.4 21.5-3.7 22.3-1.6 1-6.3-.7-12.3-4.4-.4 1.4-.8 2.6-1.3 3.6-2.4 4.8-5.6 12.4-8.5 12.8-2.5.3-8.7-11.8-16.7-13.2-.5.4-1.8 1.3-3.7 1.3V256c10 0 19.8-1.2 29.2-3.3 8-12.6 15.4-25 19.1-32.4 10.3-20.5 2-45.1 2-45.1z"/><path fill="#989594" d="M175.5 159.9c-4.7 4.5-12.4 7.7-17.9 9.6-3.8 1.3-6.5 1.9-6.5 1.9-6.1 5.1-23.2 5.7-23.2 5.7v4.4c21.1 0 47.7-20.6 47.7-20.6s-.6 9.4-1.6 19.3c2.8-2.9 4.1-5 4.1-5l-1.2-6.7-1.4-8.6zm-43.6 27.5c1.7-.8 4.3-2.1 7.4-3.2-7.5-3.4-11.3 2.1-11.3 2.1s2-.3 3.9 1.1z"/><path fill="#C08C76" d="M190.3 100.1l-1.3 3.3s-.1-.2-.4-.6c-.9 2.2-2.1 4.6-3.3 4.5l-.6 2.1c-1.7 6.5-1.6 23.1-3.3 35.4 4.6-1.3 7.8-6.2 9.4-8.6 1.9-2.9 5.1-12.5 5.4-17.7.3-5.3 4.2-13.3 4.2-13.3s-1.3-7-5.4-7.7c-1.3-.2-3.1.5-5 1.5 0 .1-.1.3-.2.5.1.3.3.5.5.6z"/><path fill="#D7A990" d="M171.2 94.1c-.3-2.4-1.4-5-3.6-7.2-.1 0-.1 0-.2-.1 2.3 2.3 3.5 4.9 3.8 7.3zm-17.4-12h-.2.2z"/><path fill="#D7A990" d="M135 93.5c-.1-4.2 2.2-12.9 18.8-12.9 14.5 0 18.4 8.5 19 13.6h4.4c2.1.1 6.1.8 10.1 3.5.2-1.2.3-2.5.4-3.7.5-5.9 3-23.2 1.9-31.6-1.1-8.5-11.2-27.9-13.9-29.9-2.7-1.9-8.3-5.7-9.9-5.9s-11.7.2-12.9-.6-13.4-5.9-18.4-6.2c-4.9-.3-6.5 0-6.5 0v70.6s4.2 0 7 3.1zm35.9 5.6c.2-.7.3-1.4.4-2.1-.1.7-.2 1.4-.4 2.1z"/><path fill="#D7A990" d="M139.1 87.3c-1.2 1.5-2 3.2-2.3 5.2.4-2 1.2-3.7 2.3-5.2zm12.1 84.1s2.7-.6 6.5-1.9l-6.5 1.9z"/><path fill="#D7A990" d="M185.2 107.4s.8-2.8 1.5-6.5c-2-1.8-5.2-3.9-9.6-4h-4.3c-.6 6.1-4.9 15-18.8 15-1.5 0-2.9-.1-4.2-.3 5.6 3.6 11.3 8.1 11.3 8.1-8.5-5.2-21.3-7.7-24.9-12.4-3.6-4.7-3.6-13.9-3.6-13.9-1.1-.7-2.7-1.2-4.6-1.2v84.9s17.1-.6 23.2-5.7c0 0 6.5-3.5 10-14.3 0 0-1.2 8.7-3.5 12.4 5.5-1.8 13.2-5 17.9-9.6l.8-.8 1.9-2.5c.3-.5.6-1 .8-1.5 1.1-2.7 1.9-6.2 2.4-10.2 1.8-12.4 1.6-28.9 3.3-35.4 0-.7.2-1.4.4-2.1z"/><path fill="#312824" d="M153.8 82.2c6.5 0 10.9 2 13.7 4.7.1 0 .1 0 .2.1-2.8-2.8-7.2-4.9-13.8-4.9h-1.7v.1h1.6zm-6.1.5v-.1c-.6.1-1.1.2-1.6.4v.1c.6-.1 1.1-.3 1.6-.4zm-19.7-63s1.6-.3 6.5 0 17.1 5.4 18.4 6.2 11.3.5 12.9.6 7.2 4 9.9 5.9c2.7 1.9 12.8 21.4 13.9 29.9 1.1 8.5-1.4 25.7-1.9 31.6-.1 1.2-.3 2.5-.4 3.7.8.6 1.7 1.2 2.5 2 .1-.2.1-.4.2-.5 0-.1.1-.2.1-.2s4.2-10.7 5.6-15.3 2.6-18.7 1-26.5-12.5-22.7-16.7-30.2c-4.2-7.5-20.6-12.9-20.6-12.9-6.2-6.6-31.4-5.6-31.4-5.6v11.3zm58.7 81.2c-.7 3.7-1.5 6.5-1.5 6.5 1.2.1 2.4-2.3 3.3-4.5-.3-.5-.9-1.2-1.8-2z"/><path fill="#AD8976" d="M157.6 169.5c2.3-3.7 3.5-12.4 3.5-12.4-3.5 10.8-10 14.3-10 14.3l6.5-1.9zm-22.6-74s-.8-1.1-2.4-2c0 0 0 9.2 3.6 13.9 3.6 4.7 16.4 7.2 24.9 12.4 0 0-5.6-4.5-11.3-8.1-11.9-2-14.8-12.3-14.8-16.2z"/><path fill="#D7A990" d="M147.2 88.6l4.1 21.4c.5.1 1.1.1 1.7.1l-4.3-22.3c-.5.2-1 .5-1.5.8z"/><path opacity=".4" fill="#A2A4A7" d="M147.2 88.6l4.1 21.4c.5.1 1.1.1 1.7.1l-4.3-22.3c-.5.2-1 .5-1.5.8z"/><path fill="#D7A990" d="M136.8 92.5c-.2.9-.3 2-.3 3 0 3.3 2 8.3 6.7 11.6l-4-19.7c-1.2 1.4-2 3.1-2.4 5.1z"/><path opacity=".4" fill="#A2A4A7" d="M136.8 92.5c-.2.9-.3 2-.3 3 0 3.3 2 8.3 6.7 11.6l-4-19.7c-1.2 1.4-2 3.1-2.4 5.1z"/><path fill="#D7A990" d="M170.5 97v-2.9h.7c-.4-2.4-1.5-5.1-3.8-7.2-1.9-.5-4.8-1-8.6-1.4-2.2-.2-4.2.1-6 .6l4.5 23.8c8.4-1.1 12.3-6.1 13.5-10.8.2-.7.3-1.4.4-2.1h-.7z"/><path opacity=".4" fill="#A2A4A7" d="M170.5 97v-2.9h.7c-.4-2.4-1.5-5.1-3.8-7.2-1.9-.5-4.8-1-8.6-1.4-2.2-.2-4.2.1-6 .6l4.5 23.8c8.4-1.1 12.3-6.1 13.5-10.8.2-.7.3-1.4.4-2.1h-.7z"/><path fill="#312824" d="M147.2 88.6c.5-.3 1-.5 1.5-.8l-1-5c-.6.1-1.1.2-1.6.4l1.1 5.4z"/><path opacity=".4" fill="#A2A4A7" d="M147.2 88.6c.5-.3 1-.5 1.5-.8l-1-5c-.6.1-1.1.2-1.6.4l1.1 5.4z"/><path fill="#312824" d="M153.8 82.2h-1.6l.7 3.9c1.8-.5 3.8-.8 6-.6 3.7.4 6.6.9 8.6 1.4-2.8-2.7-7.3-4.7-13.7-4.7z"/><path opacity=".4" fill="#A2A4A7" d="M153.8 82.2h-1.6l.7 3.9c1.8-.5 3.8-.8 6-.6 3.7.4 6.6.9 8.6 1.4-2.8-2.7-7.3-4.7-13.7-4.7z"/><path fill="#DFE0E1" d="M146.1 83.1V83c-3.1.9-5.4 2.3-7 4.3v.1l4 19.7c2.1 1.5 4.8 2.6 8.1 2.9l-4.1-21.4-1-5.5zm6-.9v-.1c-1.6.1-3 .2-4.4.5v.1l1 5L153 110h1c1.2 0 2.3-.1 3.4-.2L152.9 86l-.8-3.8z"/><path fill="#42312A" d="M135 95.5c0 4 2.9 14.3 14.8 16.2 1.3.2 2.7.3 4.2.3 13.9 0 18.2-8.9 18.8-15h-1.5c-.1.7-.2 1.4-.4 2.1-1.2 4.7-5.1 9.7-13.5 10.8-1.1.1-2.2.2-3.4.2h-1c-.6 0-1.2-.1-1.7-.1-3.3-.4-6-1.5-8.1-2.9-4.7-3.2-6.7-8.2-6.7-11.6 0-1.1.1-2.1.3-3 .4-2 1.2-3.7 2.3-5.2 1.6-2 3.9-3.4 7-4.3.5-.1 1-.3 1.6-.4 1.3-.3 2.8-.4 4.4-.5h1.7c6.6 0 11 2.1 13.8 4.9 2.1 2.2 3.3 4.8 3.6 7.2h1.5c-.6-5-4.4-13.6-19-13.6-16.6 0-18.8 8.7-18.8 12.9-2.8-3-7-3.1-7-3.1v1.8c1.9 0 3.5.6 4.6 1.2 1.7 1 2.5 2.1 2.5 2.1zm42.1 1.4c4.4.1 7.6 2.2 9.6 4 .9.8 1.5 1.5 1.9 2 .3.4.4.6.4.6l1.3-3.3c-.2-.2-.4-.4-.6-.5-.8-.8-1.6-1.4-2.5-2-4-2.7-8.1-3.4-10.1-3.5v2.7z"/><path fill="#5A5B5D" d="M177.1 94.1h-6.6V97h6.6v-2.9z"/><path fill="#B2B1B1" d="M175.7 161s-26.6 20.6-47.7 20.6v4.8s3.9-5.5 11.3-2.1c5.1-1.8 11.5-3.3 17.6-2.4 3.3 1.7 2.7 10.5 1.1 16.3 6 3.7 10.7 5.4 12.3 4.4 1.4-.8 2.7-11.9 3.7-22.3 1.1-9.9 1.7-19.3 1.7-19.3z"/><path fill="#462029" d="M157 181.8c-6.1-.9-12.6.5-17.6 2.4a45.8 45.8 0 0 0-7.4 3.3V201l-.2.2c7.9 1.5 14.2 13.6 16.7 13.2 2.9-.4 6.1-7.9 8.5-12.8.5-.9.9-2.2 1.3-3.6 1.4-5.7 2-14.5-1.3-16.2z"/><path fill="#582D37" d="M131.9 201v-13.5c-2-1.4-3.9-1.2-3.9-1.2v16.3c1.9 0 3.2-.9 3.7-1.3.1-.2.2-.3.2-.3z"/><path fill="#1D202D" d="M193 194.4c-2.3-11.5-4.7-18.8-8.2-24.7-2.4-2.3-5.2-4.3-8.5-6l.8 4.9 1.1 6.6s8.3 24.6-1.9 45c-3.7 7.5-11.2 19.8-19.1 32.4 11.8-2.7 22.9-7.1 33.2-12.9 2.7-19.5 4.2-37.3 2.6-45.3z"/><path fill="#292B31" d="M232.9 198.8l.7 1.6c2.4-3.6 4.7-7.3 6.8-11.1-9.8-3-19.3-5.7-27.3-7.8 9.2 7 17.2 13.7 19.8 17.3z"/><path fill="#34363D" d="M213.1 181.6c-15.8-12-34.9-25-34.9-25l-.1.1-1.9 2.5c3.5 3.4 6.2 6.6 8.5 10.6 3.4 5.9 5.9 13.2 8.2 24.7 1.6 8 .2 25.8-2.6 45.4 17.3-9.6 32-23.2 43.2-39.4l-.7-1.6c-2.5-3.7-10.5-10.4-19.7-17.3z"/><path fill="#111218" d="M80.5 159.9l-.8-.8c-3.5 3.4-6.2 6.6-8.5 10.6 2.4-2.3 5.2-4.3 8.5-6l-.8 4.9.1-.1 1.5-8.6z"/><path fill="#727171" d="M124.3 201.2c-7.9 1.5-14.2 13.6-16.7 13.2-2.9-.4-6.1-7.9-8.5-12.8-.5-.9-.9-2.2-1.3-3.6-6 3.7-10.7 5.4-12.3 4.4-1.4-.8-2.7-11.9-3.7-22.3-2.8-2.9-4.1-5-4.1-5s-8.3 24.6 1.9 45c3.7 7.5 11.2 19.8 19.1 32.4 9.4 2.2 19.1 3.3 29.2 3.3v-53.4c-1.8.2-3.1-.7-3.6-1.2z"/><path fill="#868483" d="M80.3 161s26.6 20.6 47.7 20.6v-4.4s-17.1-.6-23.2-5.7c0 0-2.7-.6-6.5-1.9-5.5-1.8-13.2-5-17.9-9.6l-1.5 8.6-1.2 6.7s1.3 2.1 4.1 5c-.9-9.9-1.5-19.3-1.5-19.3zm36.4 23.2c3.2 1.1 5.8 2.4 7.4 3.3 2-1.4 3.9-1.2 3.9-1.2s-3.9-5.5-11.3-2.1z"/><path fill="#B17D6B" d="M70.8 107.4c-1.2.1-2.4-2.3-3.3-4.5-.3.4-.4.6-.4.6l-1.3-3.3c.2-.2.4-.4.6-.5-.1-.2-.1-.4-.2-.5-1.9-1-3.7-1.7-5-1.5-4.2.6-5.4 7.7-5.4 7.7s3.8 8 4.2 13.3c.3 5.3 3.5 14.8 5.4 17.7 1.6 2.4 4.8 7.3 9.4 8.6-1.8-12.4-1.6-28.9-3.3-35.4-.3-.8-.5-1.5-.7-2.2z"/><path fill="#C08C76" d="M102.2 82.1zm17 10.4c-.5-2.6-1.7-4.8-3.6-6.5v.1c1.9 1.6 3.1 3.8 3.6 6.4zm-15-10.4z"/><path fill="#C08C76" d="M78.9 94.1h4.4c.6-5 4.4-13.6 19-13.6 16.6 0 18.8 8.7 18.8 12.9 2.8-3 7-3.1 7-3.1V19.7s-1.6-.3-6.5 0-17.1 5.4-18.4 6.2-11.3.5-12.9.6-7.2 4-9.9 5.9c-2.7 1.9-12.8 21.4-13.9 29.9-1.1 8.5 1.4 25.7 1.9 31.6.1 1.2.3 2.5.4 3.7 4-2.7 8-3.3 10.1-3.5z"/><path fill="#C08C76" d="M87.6 87.9v-.1c-1.7 2-2.6 4.3-2.9 6.4.4-2.2 1.3-4.4 2.9-6.3zM84.7 97c.1.7.2 1.4.4 2.1-.2-.7-.3-1.4-.4-2.1z"/><path fill="#C08C76" d="M79.7 159.1c.2.3.5.5.8.8 4.7 4.5 12.4 7.7 17.9 9.6-2.3-3.7-3.5-12.4-3.5-12.4 3.5 10.8 10 14.3 10 14.3 6.1 5.1 23.2 5.7 23.2 5.7V92.2c-1.9 0-3.5.6-4.6 1.2 0 0 0 9.2-3.6 13.9-3.6 4.7-16.4 7.2-24.9 12.4 0 0 5.6-4.5 11.3-8.1-1.3.2-2.7.3-4.2.3-13.9 0-18.2-8.9-18.8-15H79c-4.4.1-7.6 2.2-9.6 4 .7 3.7 1.5 6.5 1.5 6.5l.6 2.1c1.7 6.5 1.6 23.1 3.3 35.4.6 4 1.3 7.6 2.4 10.2.2.5.5 1 .8 1.5l1.7 2.5z"/><path fill="#C08C76" d="M104.8 171.4l-6.5-1.9c3.8 1.2 6.5 1.9 6.5 1.9z"/><path fill="#312824" d="M96.1 82.9v-.1c-.6.1-1.1.3-1.6.5v.1c.5-.2 1.1-.4 1.6-.5zm6.1-.7c6.1 0 10.5 1.4 13.4 3.9V86c-2.5-2.3-6.3-3.6-11.3-3.9h-2.2c-.6 0-1.1 0-1.7.1v.1c.7-.1 1.2-.1 1.8-.1z"/><path fill="#28201C" d="M68.7 97.6c-.2-1.2-.3-2.5-.4-3.7-.5-5.9-3-23.2-1.9-31.6 1.1-8.5 11.2-27.9 13.9-29.9 2.7-1.9 8.3-5.7 9.9-5.9s11.7.2 12.9-.6 13.4-5.9 18.4-6.2c4.9-.3 6.5 0 6.5 0V8.4s-25.2-1-31.5 5.6c0 0-16.4 5.4-20.6 12.9-4.2 7.5-14.8 22.4-16.4 30.2s-.5 21.9 1 26.5 5.6 15.3 5.6 15.3 0 .1.1.2c0 .1.1.3.2.5.7-.7 1.5-1.4 2.3-2zm-1.3 5.3c.9 2.2 2.1 4.6 3.3 4.5 0 0-.8-2.8-1.5-6.5-.8.8-1.4 1.5-1.8 2z"/><path fill="#907463" d="M98.4 169.5l6.5 1.9s-6.5-3.5-10-14.3c0 0 1.2 8.7 3.5 12.4zm22.6-74c0 4-2.9 14.3-14.8 16.2-5.6 3.6-11.3 8.1-11.3 8.1 8.5-5.2 21.3-7.7 24.9-12.4 3.6-4.7 3.6-13.9 3.6-13.9-1.6.9-2.4 2-2.4 2z"/><path fill="#C08C76" d="M84.8 94.1h.7V97h-.7c.1.7.2 1.4.4 2.1.8 3.2 2.9 6.5 6.6 8.6l-4.1-19.9c-1.7 2-2.6 4.2-2.9 6.3z"/><path opacity=".4" fill="#898B8D" d="M84.8 94.1h.7V97h-.7c.1.7.2 1.4.4 2.1.8 3.2 2.9 6.5 6.6 8.6l-4.1-19.9c-1.7 2-2.6 4.2-2.9 6.3z"/><path fill="#C08C76" d="M115.6 86.1c-.4 1.3-1.5 4.1-3.4 4-1.9-.2-5.8-3.5-11.1-4.4l4.6 24.2c9.8-1.7 13.7-9.7 13.7-14.3 0-1.1-.1-2.1-.3-3-.4-2.7-1.6-4.9-3.5-6.5z"/><path opacity=".4" fill="#898B8D" d="M115.6 86.1c-.4 1.3-1.5 4.1-3.4 4-1.9-.2-5.8-3.5-11.1-4.4l4.6 24.2c9.8-1.7 13.7-9.7 13.7-14.3 0-1.1-.1-2.1-.3-3-.4-2.7-1.6-4.9-3.5-6.5z"/><path fill="#C08C76" d="M95 85.7l4.7 24.3c.5 0 1.1.1 1.7.1l-4.8-24.6c-.5.1-1.1.2-1.6.2z"/><path opacity=".4" fill="#898B8D" d="M95 85.7l4.7 24.3c.5 0 1.1.1 1.7.1l-4.8-24.6c-.5.1-1.1.2-1.6.2z"/><path fill="#312824" d="M96.1 82.9c-.6.1-1.1.3-1.6.5l.5 2.4c.5-.1 1.1-.1 1.6-.2l-.5-2.7z"/><path opacity=".4" fill="#898B8D" d="M96.1 82.9c-.6.1-1.1.3-1.6.5l.5 2.4c.5-.1 1.1-.1 1.6-.2l-.5-2.7z"/><path fill="#312824" d="M115.6 86.1c-2.9-2.5-7.3-3.9-13.4-3.9-.6 0-1.2 0-1.8.1l.6 3.4c5.3.9 9.1 4.2 11.1 4.4 2 .1 3.1-2.8 3.5-4z"/><path opacity=".4" fill="#898B8D" d="M115.6 86.1c-2.9-2.5-7.3-3.9-13.4-3.9-.6 0-1.2 0-1.8.1l.6 3.4c5.3.9 9.1 4.2 11.1 4.4 2 .1 3.1-2.8 3.5-4z"/><path fill="#B7B9BB" d="M91.7 107.7c2.1 1.2 4.7 2.1 8 2.3L95 85.7l-.5-2.4v-.1c-3.1 1-5.3 2.6-6.9 4.5v.1l4.1 19.9zm4.9-22.2l4.8 24.6h.6c1.3 0 2.6-.1 3.7-.3l-4.6-24.2-.6-3.4v-.1c-1.6.1-3 .3-4.4.6v.1l.5 2.7z"/><path fill="#33251E" d="M121 93.5c.1-4.2-2.2-12.9-18.8-12.9-14.5 0-18.4 8.5-19 13.6h1.5c.3-2.1 1.2-4.4 2.9-6.4 1.6-1.9 3.9-3.5 6.9-4.5.5-.2 1-.3 1.6-.5 1.3-.3 2.8-.5 4.4-.6.5 0 1.1-.1 1.7-.1h2.2c5 .3 8.8 1.6 11.3 3.9 1.9 1.7 3.1 3.8 3.6 6.5.2.9.3 2 .3 3 0 4.7-4 12.7-13.7 14.3-1.2.2-2.4.3-3.7.3h-.6c-.6 0-1.1 0-1.7-.1-3.3-.3-5.9-1.1-8-2.3-3.8-2.2-5.8-5.5-6.6-8.6-.2-.7-.3-1.4-.4-2.1h-1.5c.6 6.1 4.9 15 18.8 15 1.5 0 2.9-.1 4.2-.3 12-2 14.8-12.2 14.8-16.2 0 0 .8-1.1 2.4-2 1.1-.7 2.7-1.2 4.6-1.2v-1.8c-.2-.1-4.4-.1-7.2 3zm-52.3 4.1c-.8.6-1.7 1.2-2.5 2-.2.2-.4.3-.6.5l1.3 3.3s.1-.2.4-.6c.4-.5 1-1.2 1.9-2 2-1.8 5.2-3.9 9.6-4V94c-2 .3-6 .9-10.1 3.6z"/><path fill="#4E4F51" d="M84.7 97h.8v-2.9h-6.6V97h5.8z"/><path fill="#989594" d="M99 181.8c6.1-.9 12.6.5 17.6 2.4 7.5-3.4 11.3 2.1 11.3 2.1v-4.8c-21.1 0-47.7-20.6-47.7-20.6s.6 9.4 1.6 19.3c1 10.5 2.4 21.5 3.7 22.3 1.6 1 6.3-.7 12.3-4.4-1.5-5.8-2.1-14.6 1.2-16.3z"/><path fill="#36121B" d="M124.1 201v-13.5c-1.7-.9-4.3-2.2-7.4-3.3-5.1-1.8-11.5-3.3-17.6-2.4-3.3 1.7-2.7 10.5-1.1 16.3.4 1.4.8 2.6 1.3 3.6 2.4 4.8 5.6 12.4 8.5 12.8 2.5.3 8.7-11.8 16.7-13.2-.3-.2-.4-.3-.4-.3z"/><path fill="#462029" d="M128 198.8v-12.6s-2-.3-3.9 1.2V201l.2.2c.5.4 1.8 1.3 3.7 1.3v-3.7z"/><path fill="#121421" d="M77.8 175.2l1.1-6.6.8-4.9c-3.2 1.7-6 3.7-8.5 6-3.4 5.9-5.9 13.2-8.2 24.7-1.6 8-.2 25.8 2.6 45.4 10.3 5.7 21.4 10.1 33.2 12.9-8-12.6-15.4-25-19.1-32.4-10.2-20.5-1.9-45.1-1.9-45.1z"/><path fill="#202228" d="M42.9 181.6c-7.9 2.1-17.5 4.8-27.3 7.8 2.1 3.8 4.4 7.5 6.8 11.1l.7-1.6c2.6-3.7 10.6-10.4 19.8-17.3z"/><path fill="#292B31" d="M63 194.4c2.3-11.5 4.7-18.8 8.2-24.7 2.3-3.9 5.1-7.2 8.5-10.6l-1.9-2.5-.1-.1s-19.1 13-34.9 25c-9.2 7-17.2 13.6-19.8 17.3l-.7 1.6c11.1 16.2 25.9 29.7 43.2 39.4-2.6-19.6-4.1-37.4-2.5-45.4z"/></svg>