<svg id="Layer_1" xmlns="http://www.w3.org/2000/svg" width="256" height="256"><style>.st1{fill:none}.st2{fill:#545655}.st3{fill:#cdaea0}.st4{fill:#bdbeba}.st5{fill:#b3b4b1}.st7{fill:#4c292a}.st9{fill:#36372b}.st13{fill:#706948}.st15{fill:#b59a8f}.st17{fill:#3b1c1c}.st18{fill:#423f27}.st21{fill:#565236}</style><g id="XMLID_3_"><circle id="XMLID_33_" cx="128" cy="128" r="128" fill="#b2b4b5"/><g id="XMLID_34_"><path id="XMLID_35_" class="st1" d="M100.1 164.2c-.4-5.1-.8-9.9-1-13-.4-.3-.8-.5-1.1-.8 0 1.4 0 2.9-.1 4.4-.1 3.9-.1 7.4-.1 10.8 1.3-1.1 2.3-1.5 2.3-1.4z"/><path id="XMLID_38_" class="st1" d="M155.9 164.2c0-.1 1 .4 2.3 1.4.1-3.4 0-6.9-.1-10.8 0-1.5-.1-3-.1-4.4-.4.3-.8.5-1.1.8-.2 3.1-.6 7.9-1 13z"/><path id="XMLID_39_" class="st2" d="M155.5 169.4c-.3 3.7-.6 7.3-.9 10.3 2.2-5.9.9-10.3.9-10.3z"/><path id="XMLID_40_" class="st3" d="M151.5 185.4c1.4-2 2.4-3.9 3.1-5.6.3-3 .6-6.7.9-10.4l.4-5.2c.4-5.1.8-9.9 1-13-3.8 2.6-8.4 5.2-13.3 7.7-9.3 4.8-15.6 3.5-15.6 3.5v39.9c7.2.1 17.2-8.3 23.5-16.9z"/><path id="XMLID_41_" class="st4" d="M135 207v47.3c.3-.2.4-.3.4-.3 3.6-3.2 7.4-10.3 11.2-19.1.7-6.5 1.4-13 2.3-18.7-2.7-1.1-5.5-2.6-7.7-4.1-1.6-2.2-3.9-3.9-6.2-5.1z"/><path id="XMLID_42_" class="st4" d="M204 185.1c5.1 7.9 8.5 22.4 11.1 36.7 6.6-6.1 12.5-12.9 17.7-20.2-3.6-4.1-7.5-9-9.9-11.6-3.8-4.1-11-4.8-18.9-4.9z"/><path id="XMLID_43_" class="st5" d="M135 207c-3.6-1.9-7-2.5-7-2.5V256c1.5 0 2.9 0 4.3-.1 1.2-.6 2.2-1.2 2.7-1.6V207z"/><path id="XMLID_44_" d="M155.9 164.2l-.4 5.2s1.3 4.4-.9 10.3c-.7 1.8-1.6 3.7-3.1 5.6-6.2 8.6-16.3 17-23.5 17v2.2s3.4.6 7 2.5c2.3 1.2 4.6 2.8 6.1 5.2 2.2 1.5 5 3 7.7 4.1 1-6.7 2.1-12.3 3.3-15.8 4.4-12.8 5.9-22.6 6.1-34.8-1.3-1.2-2.3-1.6-2.3-1.5z" fill="#d2d2cd"/><path id="XMLID_45_" class="st7" d="M204 185.1s-1.2-2.8-3.9-5c.6 4.9 1.2 9.8 1.7 14.3 1.3 10.9 4.6 22.4 7.8 32.2 1.9-1.6 3.8-3.2 5.6-4.9-2.7-14.2-6.1-28.6-11.2-36.6z"/><path id="XMLID_46_" class="st7" d="M135.4 254.1s-.1.1-.4.3c-.5.4-1.5 1-2.7 1.6 4.2-.1 8.4-.5 12.5-1 .5-6.2 1.1-13.1 1.8-19.9-3.7 8.6-7.6 15.8-11.2 19z"/><path id="XMLID_47_" d="M178.5 212.9c-1.2-16.5.5-44.3.5-44.3l-3.8 26.1s.7-24.7 1.9-41.7c1.2-17 8.1-69.3 7.9-78.1-.2-8.4-.7-20.7-6.2-30.9l-.3-.3c7.8 17.4 3.6 35.7 1.8 41.8.5 3.3 1.1 7.2 1.1 8.6 0 1.1-.5 2.3-1.2 3.3-1.5 7.7-4.4 11.7-4.2 15.9.2 4.8 1.2 9.1-2.2 11-.8.5-1.8.7-2.7.8-2 9.9-3.8 15.5-6.7 19.5-1.3 1.9-3.5 3.8-6.3 5.8 0 1.4 0 2.9.1 4.4.1 3.9.1 7.4.1 10.8-.2 12.3-1.7 22.1-6.1 34.8-1.2 3.5-2.3 9.2-3.3 15.8-.9 5.7-1.6 12.2-2.3 18.7-.7 6.8-1.3 13.7-1.8 19.9 11.6-1.5 22.7-4.6 33.1-9 .7-13.6 1.1-26.6.6-32.9z" fill="#514d33"/><path id="XMLID_48_" class="st9" d="M143.6 15.1c1.6 1.3 5.4 6.7 5.4 6.7 3.5-1.4 7.5 0 7.5 0l-4.9 1.3c23.6 3.8 29.5 34.6 29.7 39.8s-1.6 15.2-1.6 17.6c0 1 .2 2.9.5 5 1.8-6.1 6.1-24.4-1.8-41.8-1.1-2.5-2.5-5-4.2-7.5C158.3 13 137.6 8.4 128 8.4v3c9.7 0 14 2.4 15.6 3.7z"/><path id="XMLID_49_" class="st3" d="M173.3 112.3c.8-3.6 1.1-7.6 1.1-11-.8 7.6-1.8 15.4-2.7 20.2-.2 1.2-.5 2.4-.7 3.5.9-.1 1.8-.3 2.7-.8 3.4-1.9 2.4-6.2 2.2-11-.2-4.2 2.7-8.2 4.2-15.9-.7 1.1-1.5 2-1.9 2.5-.7 1-4.9 12.5-4.9 12.5z"/><path id="XMLID_52_" d="M174.4 101.4c0-3-.2-5.4-.3-6.6-.2-2.6-.2-8.1-3.2-17.2s-.6-14.2-2.7-22.7-10.7-13.4-13.6-15.3c-2.9-1.9-4.3-6.2-5.6-7-1.3-.8-4.6 2.6-4.6 2.6l.6-2.6c-6.5 4.8-17.1 6.7-17.1 6.7v90.1s1.3.2 2.5-.9c1.8-.9 4.2-.1 5.5 1.4 2.5 2.4 2.8 3.1 5.4 4 0 0-2.3 4.3-13.5 4.3v24.4s6.4 1.3 15.6-3.5c4.9-2.5 9.5-5.2 13.3-7.7.4-.3.8-.5 1.1-.8 2.8-2 5-4 6.3-5.8 2.9-4 4.7-9.6 6.7-19.5.2-1.1.4-2.3.7-3.5 1.1-5.1 2.1-12.9 2.9-20.4zm-13.5-23.6s-6.7 0-10.4 1.4-9.3 0-9.3 0c1.6-3.5 5.9-4.6 8.5-4.3 2.6.3 8.9 0 10.7 0 1.8 0 5.7 3.8 5.7 3.8 1.1 4.2.8 7.2.8 7.2-.4-4.9-6-8.1-6-8.1z" fill="#dfbdad"/><path id="XMLID_54_" d="M141.5 133.8c-2.7-.9-2.9-1.7-5.4-4-1.3-1.5-3.7-2.3-5.5-1.4-1.2 1.1-2.5.9-2.5.9v8.8c11.1 0 13.4-4.3 13.4-4.3z" fill="#9e4d5d"/><path id="XMLID_55_" d="M166.2 78.8s-4-3.8-5.7-3.8c-1.8 0-8.1.3-10.7 0-2.6-.3-6.9.8-8.5 4.3 0 0 5.6 1.4 9.3 0 3.7-1.4 10.4-1.4 10.4-1.4s5.6 3.2 6.1 8.1c-.1 0 .2-3.1-.9-7.2z" fill="#4d4828"/><path id="XMLID_56_" class="st13" d="M181.3 62.8c-.2-5.1-6.1-35.9-29.7-39.8l4.9-1.3s-4-1.4-7.5 0c0 0-3.8-5.4-5.4-6.7-1.6-1.3-5.9-3.7-15.6-3.7v27.8s10.5-1.9 17.1-6.7l-.6 2.6s3.4-3.4 4.6-2.6c1.3.8 2.7 5.1 5.6 7 2.9 1.9 11.5 6.9 13.6 15.3 2.1 8.5-.3 13.6 2.7 22.7s3 14.7 3.2 17.2c.1 1.2.3 3.6.3 6.6 0 3.3-.2 7.3-1.1 11 0 0 4.2-11.5 4.9-12.5.4-.5 1.2-1.4 1.9-2.5.6-1 1.2-2.2 1.2-3.3 0-1.4-.6-5.3-1.1-8.6-.3-2.1-.5-4-.5-5-.1-2.3 1.7-12.4 1.5-17.5z"/><path id="XMLID_57_" d="M200.1 180.1c-2.2-18.9-4.4-39-5-49.6-.7-13.4-5.7-53.6-7.9-67.3-2.2-13.6-9.2-20.6-9.2-20.6.3.4.5.9.7 1.3 5.5 10.3 6 22.5 6.2 30.9.2 8.8-6.7 61.1-7.9 78.1-1.2 17-1.9 41.7-1.9 41.7l3.8-26.1s-1.7 27.8-.5 44.3c.5 6.3.1 19.3-.6 33 11.5-4.9 22.1-11.4 31.6-19.2-3.1-9.9-6.5-21.4-7.8-32.2-.4-4.5-1-9.4-1.5-14.3z" fill="#8d8759"/><path id="XMLID_58_" class="st2" d="M100.5 169.4s-1.3 4.4.9 10.3c-.2-3-.5-6.6-.9-10.3z"/><path id="XMLID_59_" class="st15" d="M112.4 158.9c-4.9-2.5-9.5-5.2-13.3-7.7.2 3.1.6 7.9 1 13l.4 5.2c.3 3.7.6 7.4.9 10.4.7 1.8 1.6 3.7 3.1 5.6 6.2 8.6 16.3 17 23.5 17v-39.9c0-.1-6.4 1.2-15.6-3.6z"/><path id="XMLID_60_" class="st5" d="M114.8 212.2c-2.2 1.5-5 3-7.7 4.1.9 5.7 1.6 12.2 2.3 18.7 3.7 8.7 7.6 15.9 11.2 19.1 0 0 .1.1.4.3V207c-2.3 1.2-4.6 2.9-6.2 5.2z"/><path id="XMLID_61_" class="st5" d="M33.2 189.9c-2.4 2.6-6.4 7.6-9.9 11.6 5.2 7.4 11.1 14.1 17.7 20.2 2.6-14.3 6-28.7 11.1-36.7-8 .2-15.2.9-18.9 4.9z"/><path id="XMLID_62_" d="M128 207.1v-2.6s-3.4.6-7 2.5v47.3c.5.4 1.5 1 2.7 1.6 1.4 0 2.9.1 4.3.1v-48.9z" fill="#9b9d9a"/><path id="XMLID_63_" class="st4" d="M128 202.4c-7.2 0-17.2-8.4-23.5-17-1.4-2-2.4-3.9-3.1-5.6-2.3-6-.9-10.3-.9-10.3l-.4-5.2v-.1s-1 .4-2.3 1.5c.2 12.3 1.7 22.1 6.1 34.8 1.2 3.5 2.3 9.2 3.3 15.8 2.7-1.1 5.5-2.6 7.7-4.1 1.6-2.3 3.9-4 6.1-5.2 3.6-1.9 7-2.5 7-2.5v-2.1z"/><path id="XMLID_64_" class="st17" d="M55.9 180.1c-2.7 2.2-3.9 5-3.9 5-5.1 7.9-8.5 22.4-11.1 36.7 1.8 1.7 3.7 3.3 5.6 4.9 3.1-9.9 6.5-21.4 7.8-32.2.5-4.6 1.1-9.5 1.6-14.4z"/><path id="XMLID_65_" class="st17" d="M120.6 254.1c-3.6-3.2-7.4-10.3-11.2-19.1.7 6.8 1.3 13.7 1.8 19.9 4.1.5 8.3.9 12.5 1-1.2-.6-2.2-1.2-2.7-1.6-.3-.1-.4-.2-.4-.2z"/><path id="XMLID_66_" class="st18" d="M107.1 216.3c-1-6.7-2.1-12.3-3.3-15.8-4.4-12.8-5.9-22.6-6.1-34.8-.1-3.4 0-6.9.1-10.8 0-1.5.1-3 .1-4.4-2.8-2-5-4-6.3-5.8-2.9-4-4.7-9.6-6.7-19.5-.9-.1-1.8-.3-2.7-.8-3.4-1.9-2.4-6.2-2.2-11s-3.5-9.3-4.7-19.2c-.3-2.3.1-4.1.8-5.4-.1-.3-.2-.6-.4-.9-1.5-3.8-3.5-6.9-3.1-10.3.2-1.4.4-3.2.6-5-.8-8.1-.3-18.6 4.3-28.7l-.3.3c-5.5 10.3-6 22.5-6.2 30.9-.2 8.8 6.7 61.1 7.9 78.1 1.2 17 1.9 41.7 1.9 41.7L77 168.6s1.7 27.8.5 44.3c-.5 6.3-.1 19.3.6 33 10.4 4.4 21.5 7.5 33.1 9-.5-6.2-1.1-13.1-1.8-19.9-.7-6.5-1.4-13-2.3-18.7z"/><path id="XMLID_67_" class="st9" d="M73.2 72.3c.3-2.6.5-5.4.8-7.9.4-4.3.4-6.7 1.3-9.3.9-2.6 6.2-14 9.1-17.9 2.9-3.9 8.9-12.1 14.2-14.9 5.3-2.9 9.1-10.9 29.4-10.9v-3c-9.6 0-30.3 4.6-46.3 27.8-1.7 2.4-3.1 5-4.2 7.5-4.6 10.1-5 20.5-4.3 28.6z"/><path id="XMLID_68_" class="st15" d="M82.3 107.6c-1-1.2-3.7-5.1-4.1-8.7-.4-3.9-.8-6.9-2.1-10.3-.7 1.4-1.1 3.1-.8 5.4 1.2 9.9 4.9 14.5 4.7 19.2s-1.2 9.1 2.2 11c.8.5 1.8.7 2.7.8-.2-1.1-.4-2.3-.7-3.5-.6-3.5-1.3-8.5-1.9-13.9z"/><path id="XMLID_71_" class="st3" d="M112.4 158.9c9.3 4.8 15.6 3.5 15.6 3.5V138c-11.2 0-13.5-4.3-13.5-4.3 2.7-.9 2.9-1.7 5.4-4 1.3-1.5 3.7-2.3 5.5-1.4 1.2 1.1 2.5.9 2.5.9V39.1s-6.7.6-9.6.1c-.2 0-.4-.1-.6-.1-.5-.1-1.1-.3-1.7-.5-3-.7-9.3-1.8-14.2.1-6.6 2.6-16.6 14.1-16.6 14.1l4.4-1.9s-.9 2.9-.9 5c0 2.2.9 10.8-.2 12.5s-7.3 17.7-7.3 21.3c0 3.6 1.3 18.2 1.3 18.2s-.1-.2-.3-.4c.6 5.4 1.3 10.5 2 14 .2 1.2.5 2.4.7 3.5 2 9.9 3.8 15.5 6.7 19.5 1.3 1.9 3.5 3.8 6.3 5.8.4.3.8.5 1.1.8 3.8 2.7 8.4 5.3 13.4 7.8zM89 86s-.3-3 .8-7.2c0 0 4-3.8 5.7-3.8s8.1.3 10.7 0c2.6-.3 6.9.8 8.5 4.3 0 0-5.6 1.4-9.3 0-3.7-1.4-10.4-1.4-10.4-1.4S89.5 81 89 86z"/><path id="XMLID_72_" d="M125.5 128.4c-1.8-.9-4.2-.1-5.5 1.4-2.5 2.4-2.8 3.1-5.4 4 0 0 2.3 4.3 13.5 4.3v-8.8c-.1-.1-1.4.2-2.6-.9z" fill="#894250"/><path id="XMLID_73_" d="M95.1 77.8s6.7 0 10.4 1.4 9.3 0 9.3 0c-1.6-3.5-5.9-4.6-8.5-4.3-2.6.3-8.9 0-10.7 0s-5.7 3.8-5.7 3.8C88.7 82.9 89 86 89 86c.5-5 6.1-8.2 6.1-8.2z" fill="#413d1f"/><path id="XMLID_74_" class="st13" d="M77.5 212.9c1.2-16.5-.5-44.3-.5-44.3l3.8 26.1s-.7-24.7-1.9-41.7c-1.2-17-8.1-69.3-7.9-78.1.2-8.4.7-20.7 6.2-30.9.2-.4.5-.9.7-1.3 0 0-6.9 6.9-9.1 20.6s-7.2 53.9-7.9 67.3c-.6 10.6-2.8 30.7-5 49.6-.6 4.9-1.2 9.8-1.7 14.3-1.3 10.9-4.6 22.4-7.8 32.2 9.5 7.8 20.1 14.3 31.6 19.2-.6-13.7-1-26.7-.5-33z"/><path id="XMLID_75_" class="st21" d="M82.3 107.6c.2.3.3.4.3.4s-1.3-14.6-1.3-18.2c0-3.6 6.2-19.6 7.3-21.3s.2-10.3.2-12.5c0-2.2.9-5 .9-5l-4.4 1.9c3.1-8.1 13.4-22.8 20.3-20.1 6.9 2.6 12.2 6.4 12.2 6.4.2.1.4.1.6.1 2.9.5 9.6-.1 9.6-.1V11.4c-20.4 0-24.1 8-29.4 10.9-5.3 2.9-11.3 11-14.2 14.9-2.9 3.9-8.2 15.2-9.1 17.9-.9 2.6-.9 5-1.3 9.3-.3 2.5-.5 5.3-.8 7.9-.2 1.9-.4 3.6-.6 5-.4 3.4 1.5 6.5 3.1 10.3.1.3.2.6.4.9 1.3 3.4 1.7 6.4 2.1 10.3.4 3.7 3.1 7.5 4.1 8.8z"/><path id="XMLID_76_" class="st21" d="M117.8 39.2s-.7-.2-1.7-.5c.6.2 1.2.3 1.7.5z"/><path id="XMLID_77_" class="st18" d="M85.3 52.9s10-11.5 16.6-14.1c4.9-1.9 11.2-.8 14.2-.1 1.1.3 1.7.5 1.7.5s-5.3-3.7-12.2-6.4c-6.9-2.6-17.2 12-20.3 20.1z"/></g></g></svg>