<svg id="Layer_1" xmlns="http://www.w3.org/2000/svg" width="256" height="256"><style>.st1{fill:#28281b}.st2{fill:#404031}.st3{fill:#524d2e}.st4{fill:#83794e}.st5{fill:#a19360}.st6{fill:#6b643f}.st7{fill:#b2a579}.st8{fill:#131405}.st9{fill:#464125}.st10{fill:#544f2f}</style><g id="XMLID_2_"><circle id="XMLID_110_" cx="128" cy="128" r="128" fill="#b2b4b5"/><g id="XMLID_1_"><path id="XMLID_111_" class="st1" d="M150 237.6s-3.7 6.8-7.5 17.6c5.8-.7 11.4-1.7 16.9-3.1-1.6-6.3-3-11.7-4-15.4l-5.4.9z"/><path id="XMLID_112_" class="st1" d="M194.3 237.5c.5-.3 1.1-.7 1.6-1-.8-.6-1.7-1.3-2.7-2.1l1.1 3.1z"/><path id="XMLID_113_" class="st1" d="M191.1 224.4c2.6 3.5 5 7.3 6.6 11 1-.7 2.1-1.4 3.1-2.1-3.3-3.6-6.4-7-8.7-9.5-.4.3-.7.5-1 .6z"/><path id="XMLID_114_" class="st1" d="M166.8 250l.9-.3c-.3-.3-.8-.9-1.5-1.8l.6 2.1z"/><path id="XMLID_115_" class="st1" d="M164.9 234.7c1.3 4.8 2.4 10.1 3 15 4.4-1.4 8.7-3.1 12.8-5l-9.9-11.6c-2 .6-3.9 1.1-5.9 1.6z"/><path id="XMLID_116_" class="st2" d="M150 237.6c-7.9 1.1-14.5 1.4-18.3 1.5-.8 4.7-1.9 9.7-3.7 14.2v2.7c4.9 0 9.7-.3 14.5-.8 3.8-10.8 7.5-17.6 7.5-17.6z"/><path id="XMLID_117_" class="st2" d="M158 236.2c-.8.2-1.7.3-2.5.5 1 3.7 2.4 9.1 4 15.4 2.5-.6 5-1.3 7.4-2.1l-.6-2.1c-1.9-2.2-5-6.2-8.3-11.7z"/><path id="XMLID_118_" class="st2" d="M232.3 198.1s-7.3-.9-15.3-2.1c-1.9 4.5-4.2 8.6-7 12.2 7.1 4.9 8.8 8.7 8.8 8.7-5-.9-9.5-2.1-13.4-3.4-4 4.1-8.5 7.5-13.4 10.4 2.3 2.5 5.4 5.9 8.7 9.5 14.2-9.8 26.4-22.5 35.6-37.1-2.8-.4-5.3-.7-7.5-1 1.3.8 2.4 1.7 3.5 2.8z"/><path id="XMLID_119_" class="st2" d="M184.9 227.7c-4.6 2.2-9.4 4-14.1 5.4l9.9 11.6c4.7-2.1 9.3-4.5 13.7-7.2l-1.1-3.1c-2.4-1.8-5.3-4.2-8.4-6.7z"/><path id="XMLID_120_" class="st1" d="M144.8 212.5c-1.9 0-2.9-3.1-2.9-3.1l10.3-9.3c-4.6-2.6-3.6-5.7-3.8-11.5-.2-4.5 1.5-12.3 2.3-15.5-.3.1-.6.1-.7 0-1.5.7-3.1 1.4-4.8 2-.7 1.1-2 1-2.5.8-.9.3-1.7.5-2.6.7-.4 7-2 30.6-3 37.5-.3 2.3-1.2 4.5-2.4 6.4 3.8.1 9 0 15-.8.1-1 .6-4.8 4.1-5.3 4-.5 5 1.7 5 1.7l.2.5.1.1s.2.4.4 1.2c3.7-.9 7.5-2 11.4-3.5l-.3-.3s1.2-9.2 7.9-4.4l.7.8c2.8-1.5 5.6-3.3 8.3-5.3-1.7-6.1 3.7-6.3 3.7-6.3.9.2 1.8.5 2.6.9 2.2-2.2 4.4-4.6 6.4-7.2h-.1s-.1-.4-.1-.9c-.2-2.4.5-3.9 1.3-4.9-8.9-3.1-20.3-7.3-25.9-10.4l1.8 1.1c-5.4 16.1-30.5 35-32.4 35z"/><path id="XMLID_121_" class="st1" d="M133.7 177.8c-1.9.2-3.8.3-5.7.3v37.6s2.6-.2 4.2 2.3c.6-.8 1.2-1.5 1.6-2.2 1.5-2.6 2.1-32.6 2.1-38-.8.4-1.7.1-2.2 0z"/><path id="XMLID_122_" class="st1" d="M163 190.7c4.6-2.9 10.5-15.5 10.5-15.5-4.2-3.1-6.7-8.5-7.9-12.7l-1.8 1.5c-.5 11.6-.8 26.7-.8 26.7z"/><path id="XMLID_123_" class="st1" d="M155.8 196.9l3.1-2.9 2.1-27.8c-2.2 1.6-4.5 3.2-7 4.6-5.1 27.7 1.8 26.1 1.8 26.1z"/><path id="XMLID_124_" class="st3" d="M135.9 177.9c-.1 5.4-.6 35.3-2.1 38-.4.7-1 1.5-1.6 2.2.4.6.7 1.4.9 2.5.5 0 1.1 0 1.6.1 1.1-1.9 2-4.1 2.4-6.4 1-6.9 2.5-30.5 3-37.5-1.2.3-2.4.6-3.6.8-.2 0-.4.2-.6.3z"/><path id="XMLID_125_" class="st3" d="M163 190.7s.3-15.1.8-26.7c-.9.8-1.9 1.5-2.8 2.3l-2.1 27.8-3.1 2.9s-6.8 1.6-1.8-26c-.5.3-1 .6-1.6.9-.5.8-1.2 1.1-1.8 1.2-.8 3.2-2.5 11.1-2.3 15.5.2 5.7-.7 8.9 3.8 11.5l-10.3 9.3s1 3.1 2.9 3.1 27-18.9 32.5-34.9l-1.8-1.1-2.1-1.3c.2 0-5.8 12.6-10.3 15.5z"/><path id="XMLID_126_" class="st2" d="M175.6 32.4c-.1-.4-.1-.9-.2-1.3 0 0 2-7.2 8-8.1 0 0-1.9 14.9-3.9 20.6.3.9.5 1.7.7 2.6 1-3.9 3.7-15.3 4.4-24.8 0 0-4.8-1.9-10.9 0-1.3.4-2.5.5-3.6.5.5.6 1 1.2 1.3 1.8 1.6 2.5 2.9 5.5 4.2 8.7z"/><path id="XMLID_127_" class="st2" d="M171.6 82.3c-8.1-1.2-12.3 3-12.3 3 6.1-1.5 11 1.8 11 1.8l1.3-4.8z"/><path id="XMLID_128_" class="st2" d="M165.8 122.7c-.7.8-1.4 1.6-2.2 2.5.9-.9 1.6-1.7 2.2-2.5z"/><path id="XMLID_129_" class="st2" d="M164.6 97.9c3.2-3 5-8.9 5-8.9-4.3-3.4-12-2.2-21.4 1.1-3.1 1.1-5.8 2.4-8 3.8 2.4 2.8 5.1 5.1 7.4 6.9 12.3 1.6 13.8 0 17-2.9z"/><path id="XMLID_130_" class="st2" d="M131.8 109.7c-1.1 2.7-2.1 7.7-2.1 7.7H128v60.7c2 0 3.9-.1 5.7-.3-.1-.1-.2-.1-.2-.1s-.7-5.1-1.4-10.8c-.6-5.7-.6-40.1 0-47.4.6-6.8 6.1-11.4 11.7-15.7-.6-.9-1.2-1.8-1.7-2.6-3.3 2.2-9.5 6.5-10.3 8.5z"/><path id="XMLID_131_" class="st2" d="M168.4 114.9c6.8-7.3 9-17.3 9.5-20.5-1.6 9.5-11.2 17.8-11.2 17.8.7.9 1.3 1.9 1.8 2.9l-.1-.2z"/><path id="XMLID_132_" class="st2" d="M128 108.4s1.9 0 2.9-3c0 0 6.4-3.6 10-6-1.1-1.5-2.1-2.8-3-4-2.9 2.1-4.5 3.7-4.5 3.7.7-1.9 1.9-3.5 3.4-5-.9-1.1-1.7-1.9-2.3-2.5-1.4-1.3-3-1.7-4.3-1.8-.3 2.9-1 5.3-2.2 6.5v12.1z"/><path id="XMLID_133_" class="st2" d="M154.3 149.1s4.5-6 7.8-9.1c.8-7.1 1.4-14.1 1.5-14.9-3.7 4.2-8.3 9.4-9.5 11.7-1.9 3.8.2 12.3.2 12.3z"/><path id="XMLID_134_" class="st2" d="M154.7 86.5c8.3-9 18.6-5.9 18.6-5.9s-.4 1.2-2.2 9.2-5.9 10.3-8.9 12.3c-2.3 1.6-8.8 1-11.8.7 2.1 1.5 3.5 2.3 3.5 2.3s5.7 1.6 13.5-5.3c7.9-6.9 6.2-22.9 6.2-22.9-17 .8-35.4 14.5-35.4 14.5.2.3.5.6.8.9 6.5-4.4 15.7-5.8 15.7-5.8z"/><path id="XMLID_137_" class="st2" d="M130.6 75.2c0 4.3.1 8.8-.1 12.6 1.1.1 2.3.3 3.1.6l2.1-2.7-3.8-1.9s2.6-37.5 3.8-44.5c1.3-7 3.4-20.4 5.9-20 2.6.5-3.5 9.7-4.9 28.1S134.4 82 134.4 82l3.5 1.8s11.7-9.4 18.5-12.5c6.9-3 15-6.2 16-10.9 1-4.6 1-16.4 4.3-20.1 0 0-2.2 13.7-2.7 19.8s-4.5 7.5-7.8 9.1c-3.2 1.5-22.7 11.1-30.4 20.2.9.2 1.5.2 1.5.2s10.7-7.1 16.9-10.7c13.2-6.5 21.7-4.3 21.7-4.3s.2 8-1 14.1-4.8 11.7-6.7 13.8c-1.2 1.3-4.5 2.8-7.7 3.8.8.6 2.8 2 4.1 3.2 5.6-3.5 8.9-8 11-16.4.9-3.6 1.4-13.8.5-26.1s1.8-22.7 1.8-22.7.5 7 .2 12c-.3 4.9 1.1 19 1.1 19l4.3-6.6v-3.8c-.1-5.9-1.3-12.6-3.1-19.1-.2-.9-.5-1.7-.7-2.6-.1.4-.3.8-.5 1.1 0 0-2.4-5.7-3.5-12.2-1.3-3.2-2.7-6.1-4-8.7-.3-.6-.8-1.2-1.3-1.8C161.5 12.4 128 9.7 128 9.7v54s2.6 2.9 2.6 11.5zm23.1-57.1s9.9 3.2 14.7 9.4L166.8 38h-1.4s-.6-12-11.7-18.5v-1.4zm11.2 35.8c0 .8-.6 1.4-1.4 1.4s-1.4-.6-1.4-1.4c0-.8.6-1.4 1.4-1.4s1.4.6 1.4 1.4zm-5.8 1.4c.8 0 1.4.6 1.4 1.4 0 .8-.6 1.4-1.4 1.4s-1.4-.6-1.4-1.4c0-.8.6-1.4 1.4-1.4zm-1.9-4c0-.8.6-1.4 1.4-1.4s1.4.6 1.4 1.4c0 .8-.6 1.4-1.4 1.4s-1.4-.6-1.4-1.4zm-3 1.4c.8 0 1.4.6 1.4 1.4s-.6 1.4-1.4 1.4-1.4-.6-1.4-1.4.6-1.4 1.4-1.4zm1.6 6.5c0 .8-.6 1.4-1.4 1.4-.8 0-1.4-.6-1.4-1.4 0-.8.6-1.4 1.4-1.4s1.4.6 1.4 1.4zm-4.9-2.6c0 .8-.6 1.4-1.4 1.4-.8 0-1.4-.6-1.4-1.4 0-.8.6-1.4 1.4-1.4.8 0 1.4.6 1.4 1.4zm.3 6.4c0 .8-.6 1.4-1.4 1.4s-1.4-.6-1.4-1.4c0-.8.6-1.4 1.4-1.4s1.4.6 1.4 1.4zM149 37.5c1.1.7-2.8 5.3-4.6 7.8s-3.1 14.6-3.5 24.5l1.9 2s8.3-7.2 14-9.9c5.7-2.8 11.5-5.6 12.7-10.4s2.2-10.8 5.9-16.9c0 0-3.6 11.3-4.1 15.8-.5 4.6-2.6 6.8-5.5 9-2.8 2.2-15.8 7.9-23.4 17.6 0 0-3.6-3.4-4.1-6.6 0 0 1.7-18.8 2.8-23.5s6.8-10.1 7.9-9.4zm-4.1 24.3c-.8 0-1.4-.6-1.4-1.4 0-.8.6-1.4 1.4-1.4.8 0 1.4.6 1.4 1.4 0 .7-.6 1.4-1.4 1.4zm1.4 3.9c0 .8-.6 1.4-1.4 1.4-.8 0-1.4-.6-1.4-1.4s.6-1.4 1.4-1.4c.8 0 1.4.7 1.4 1.4z"/><path id="XMLID_148_" class="st2" d="M179.1 83.5l4.2-6.1-.1 3.4-2.5 3.8s-.8 2.8-1 9.2c-.1 4.7-2.7 11.5-4.8 16.1l.1-.1c4.3 18.8 2.2 32.4 2.2 32.4 0-6.8-3.1-25-3.8-29.1-.1.2-.2.5-.3.7-.3.5-.6 1.1-.9 1.8.9 5.3 3.7 23.2 3.4 29-.3 6.9-4.5 10.4-4.5 10.4s3.4-6.9 3.4-11.3c0-3.6-3-18.1-4.3-23.9-1 2.3-2 4.6-2.3 6.4s-1.1 7.6-2 13.5c1.6 2.9 3.8 8.6 3.6 10.2-.2 1.9-3.4 6-3.4 6s-.7-3.7-1.8-6c-.2 1.3-.4 2.5-.6 3.4-1.3 6.2-9.7 16.9-9.7 16.9s4.3-9.7 5.7-14.8c.3-1.1.6-2.9 1-5.3-2.3 2.7-5.4 7.5-5.4 7.5-5.4-1-6.3-22.5-6.3-22.5s2.4-1.1 3.2-3.1-3.2-11.9-3.2-11.9c3.8 5 5.9 8.1 5.9 8.1l2.3-2.5c-.7-1.9-4.9-9.8-4.9-9.8 3 1.5 6.5 8.3 6.5 8.3l2.3-3.2-5.9-8.9c2.4.6 7.9 6.8 7.9 6.8l2.2-1.7c-3.9-5.2-9.1-9.1-9.9-9.7-1.8.4-3.5 1.6-4.8 2.8l-8.5 9.4s-.8 5.3 1.1 22.4c1.9 17.1 9.3 29.2 9.3 29.2 0 .1-.1.2-.2.2.5-.3 1.1-.6 1.6-.9 2.5-1.4 4.8-3 7-4.6 1-.7 1.9-1.5 2.8-2.3l1.8-1.5c2.6-2.3 4.9-4.5 7-6.7 8.1-8.4 10.6-61.5 10.9-83.5l-4 7.1-.3 4.4z"/><path id="XMLID_149_" class="st2" d="M178 93.4c0 .3-.1.5-.1.8.1-.5.1-.8.1-.8z"/><path id="XMLID_150_" class="st2" d="M141.3 139.3c-.3 15 4 35.6 4 35.6 0 .1-.1.1-.1.2 1.6-.6 3.2-1.3 4.8-2h-.2c-4.7-7-8.5-33.8-8.5-33.8z"/><path id="XMLID_151_" class="st2" d="M140.5 161c-1.1-9.3-1.6-25.2-1.6-33.4s3.2-11.5 5.3-13.6c1.1-1.1 2.5-2.6 3.6-3.8-.8-1.4-1.5-2.7-2.3-4-7.8 6.3-10.5 9.5-11.2 15.1-.8 6.1.5 41 .6 44.9.2 3.8 1.8 11 1.8 11l-.1.1c1.2-.2 2.4-.5 3.6-.8.9-.2 1.8-.5 2.6-.7-.1 0-.2-.1-.2-.1s-1-5.5-2.1-14.7z"/><path id="XMLID_152_" class="st1" d="M175.4 31c.1.5.1.9.2 1.3 1.1 6.5 3.5 12.2 3.5 12.2.2-.3.3-.7.5-1.1 2-5.7 3.9-20.6 3.9-20.6-6.1 1-8.1 8.2-8.1 8.2z"/><path id="XMLID_153_" class="st4" d="M175.1 109.9l-.1.1c-.6 1.3-1.1 2.4-1.5 3.2.7 4.1 3.8 22.3 3.8 29.1.1 0 2.1-13.6-2.2-32.4z"/><path id="XMLID_154_" class="st4" d="M171.3 155.1s4.2-3.5 4.5-10.4c.3-5.8-2.6-23.8-3.4-29-.6 1.3-1.3 2.7-2 4.1 1.2 5.8 4.3 20.4 4.3 23.9-.1 4.5-3.4 11.4-3.4 11.4z"/><path id="XMLID_155_" class="st4" d="M165.4 38h1.4l1.6-10.5c-4.8-6.2-14.7-9.4-14.7-9.4v1.4c11 6.6 11.7 18.5 11.7 18.5z"/><path id="XMLID_156_" class="st5" d="M130.4 87.9c.3-3.8.1-8.4.1-12.6 0-8.6-2.6-11.5-2.6-11.5v24.1c.1-.1 1.2-.1 2.5 0z"/><path id="XMLID_157_" class="st5" d="M130.2 89.9c-1.3-.1-2.2.2-2.2.2v6.4c1.2-1.3 1.9-3.6 2.2-6.6z"/><path id="XMLID_158_" class="st5" d="M128 108.4v8.9h1.8s1-4.9 2.1-7.7c.8-2 7-6.3 10.3-8.6l-1.2-1.8c-3.6 2.4-10 6-10 6-1.1 3.2-3 3.2-3 3.2z"/><path id="XMLID_159_" class="st5" d="M132.2 119.5c-.6 7.3-.6 41.7 0 47.4s1.4 10.8 1.4 10.8.1 0 .2.1c.4.2 1.4.4 2.2.1.2-.1.4-.3.6-.5l.1-.1s-1.6-7.2-1.8-11-1.4-38.8-.6-44.9c.7-5.6 3.4-8.8 11.2-15.1-.5-.9-1-1.7-1.6-2.5-5.7 4.3-11.2 8.9-11.7 15.7z"/><path id="XMLID_160_" class="st5" d="M148.9 112.4c-.4-.7-.8-1.4-1.1-2.1-1.1 1.1-2.5 2.6-3.6 3.8-2.1 2.1-5.3 5.4-5.3 13.6s.5 24.1 1.6 33.4 2 14.9 2 14.9.1 0 .2.1c.5.1 1.8.3 2.5-.8 0-.1.1-.1.1-.2 0 0-4.3-20.6-4-35.6 0 0 3.8 26.9 8.5 33.7h.9c.6-.1 1.3-.4 1.8-1.2l.2-.2s-7.3-12.1-9.3-29.2c-1.9-17.1-1.1-22.4-1.1-22.4l8.5-9.4c-1.2.7-1.9 1.6-1.9 1.6z"/><path id="XMLID_161_" class="st5" d="M166.3 155.9s3.1-4.1 3.4-6c.2-1.6-2-7.3-3.6-10.2-.5 3.6-1.1 7.3-1.6 10.2 1.1 2.3 1.8 6 1.8 6z"/><path id="XMLID_162_" class="st5" d="M155.4 107.7c.8.6 6.1 4.5 9.9 9.7l-2.2 1.7s-5.5-6.2-7.9-6.8l5.9 8.9-2.3 3.2s-3.5-6.9-6.5-8.3c0 0 4.2 7.9 4.9 9.8l-2.3 2.5s-2-3.1-5.9-8.1c0 0 4.1 9.8 3.2 11.9-.8 2-3.2 3.1-3.2 3.1s1 21.6 6.3 22.5c0 0 3-4.8 5.4-7.5.4-2.9.9-6.5 1.2-10.1-3.3 3.1-7.8 9.1-7.8 9.1s-2.2-8.5-.2-12.2c1.2-2.4 5.8-7.6 9.5-11.7.8-.9 1.5-1.7 2.2-2.5 3.5-4.4 2.9-7 2.6-7.6-.5-1-1.1-2-1.8-2.9l-2-2.3c-1.3-1.3-3.2-2.7-4.1-3.2-1.7.5-3.4 1-4.6 1.1 0-.3-.1-.3-.3-.3z"/><path id="XMLID_163_" class="st5" d="M133.4 99.2s1.6-1.7 4.5-3.7c-.3-.4-.7-.8-1-1.2-1.6 1.3-2.8 3-3.5 4.9z"/><path id="XMLID_166_" class="st5" d="M162.2 102.2c3-2 7.1-4.3 8.9-12.3 1.8-8 2.2-9.2 2.2-9.2s-10.3-3.1-18.6 5.9c0 0-9.2 1.4-15.7 6 .4.5.8.9 1.2 1.4 2.2-1.3 4.9-2.7 8-3.8 9.5-3.2 17.1-4.4 21.4-1.1 0 0-1.8 5.9-5 8.9-3.2 2.9-4.8 4.5-17 2.9 1 .8 2 1.5 2.8 2.1 3 .2 9.6.7 11.8-.8zm-2.9-16.9s4.2-4.2 12.3-3l-1.3 4.8s-5-3.3-11-1.8z"/><path id="XMLID_169_" class="st4" d="M128 87.8v2.3s.9-.2 2.2-.2c1.3.1 2.9.5 4.3 1.8.6.6 1.4 1.4 2.3 2.5.3.4.7.8 1 1.2.9 1.1 1.9 2.5 3 4l1.2 1.8c.6.8 1.2 1.7 1.7 2.6.5.8 1 1.6 1.6 2.5.8 1.3 1.6 2.6 2.3 4 .4.7.8 1.4 1.1 2.1 0 0 .7-.9 1.8-1.9 1.2-1.1 3-2.4 4.8-2.8.2 0 .3-.1.5-.1 1.3-.2 2.9-.6 4.6-1.1 3.1-1 6.5-2.5 7.7-3.8 1.9-2.1 5.5-7.7 6.7-13.8 1.2-6.1 1-14.1 1-14.1s-8.5-2.2-21.7 4.3c-6.2 3.6-16.9 10.7-16.9 10.7s-.6 0-1.5-.2c-.5.5-.9 1.1-1.3 1.6l-1.8-1.7.8-1c-.8-.3-2-.5-3.1-.6-1.2-.1-2.3-.1-2.3-.1zM173.7 77s1.7 16-6.2 22.9-13.5 5.3-13.5 5.3-1.4-.8-3.5-2.3c-.8-.6-1.8-1.3-2.8-2.1-2.3-1.8-4.9-4.2-7.4-6.9-.4-.5-.8-.9-1.2-1.4-.3-.3-.5-.6-.8-.9 0-.1 18.4-13.7 35.4-14.6z"/><path id="XMLID_170_" class="st4" d="M134.5 91.2c.4-.5.8-1.1 1.3-1.6 7.7-9.1 27.2-18.7 30.4-20.2 3.4-1.6 7.3-3 7.8-9.1s2.7-19.8 2.7-19.8c-3.4 3.7-3.4 15.5-4.3 20.1-1 4.6-9.1 7.8-16 10.9-6.9 3-18.5 12.5-18.5 12.5l-3.5-1.8s1-16.3 2.3-34.6c1.4-18.4 7.4-27.6 4.9-28.1-2.6-.5-4.6 12.9-5.9 20-1.3 7-3.8 44.5-3.8 44.5l3.8 1.9-2.1 2.7-.8 1 1.7 1.6z"/><path id="XMLID_171_" class="st5" d="M138.3 70.4c.5 3.2 4.1 6.6 4.1 6.6 7.7-9.7 20.6-15.4 23.5-17.6 2.9-2.2 5-4.4 5.5-9s4.1-15.8 4.1-15.8c-3.7 6.1-4.7 12.1-5.9 16.9s-6.9 7.7-12.7 10.4c-5.7 2.8-14 9.9-14 9.9l-1.9-2c.4-9.9 1.7-22 3.5-24.5s5.6-7.1 4.6-7.8-6.8 4.8-7.9 9.5-2.9 23.4-2.9 23.4z"/><path id="XMLID_174_" class="st6" d="M178 56.6c.3-4.9-.2-12-.2-12S175.1 55 176 67.3s.4 22.6-.5 26.1c-2.1 8.3-5.4 12.9-11 16.4l2 2.3s9.5-8.3 11.2-17.8c-.5 3.2-2.6 13.2-9.5 20.5 0 0 0 .1.1.2.3.7.8 3.3-2.6 7.6-.6.8-1.3 1.6-2.2 2.5-.1.8-.7 7.8-1.5 14.9-.4 3.6-.8 7.2-1.2 10.1-.3 2.3-.7 4.2-1 5.3-1.4 5.1-5.7 14.8-5.7 14.8s8.5-10.7 9.7-16.9c.2-.9.4-2.1.6-3.4.5-2.9 1-6.6 1.6-10.2.9-6 1.6-11.8 2-13.5.3-1.7 1.3-4.1 2.3-6.4.6-1.4 1.3-2.9 2-4.1l.9-1.8c.1-.2.2-.4.3-.7.4-.8.9-2 1.5-3.2 2-4.6 4.6-11.4 4.8-16.1.2-6.4 1-9.2 1-9.2l2.5-3.8.1-3.4-4.2 6.1.3-4.2 4-7.1v-3.4l-4.3 6.6c-.1.1-1.5-14-1.2-18.9zm-.1 37.6c0-.3.1-.5.1-.8 0 0 0 .3-.1.8z"/><circle id="XMLID_175_" class="st5" cx="144.9" cy="65.7" r="1.4"/><circle id="XMLID_176_" class="st5" cx="149.8" cy="63" r="1.4"/><circle id="XMLID_177_" class="st5" cx="154.4" cy="59.2" r="1.4"/><circle id="XMLID_178_" class="st5" cx="159.1" cy="56.6" r="1.4"/><circle id="XMLID_179_" class="st5" cx="163.5" cy="53.9" r="1.4"/><circle id="XMLID_180_" class="st5" cx="144.9" cy="60.4" r="1.4"/><circle id="XMLID_181_" class="st5" cx="149.5" cy="56.6" r="1.4"/><circle id="XMLID_182_" class="st5" cx="154.2" cy="54.1" r="1.4"/><circle id="XMLID_183_" class="st5" cx="158.6" cy="51.3" r="1.4"/><path id="XMLID_184_" class="st6" d="M133.1 226.5c-.2 3.3-.6 7.7-1.4 12.5 3.8-.1 10.4-.4 18.3-1.5 1.8-.2 3.6-.5 5.4-.9.8-.1 1.7-.3 2.5-.5-2-3.2-4.1-6.9-6-11.1-5.7.9-11.9 1.4-18.8 1.5z"/><path id="XMLID_185_" class="st6" d="M164.9 234.7c2-.5 3.9-1 5.9-1.6 4.7-1.4 9.5-3.2 14.1-5.4-3-2.5-6.1-5.3-9-8-4.3 1.5-9.1 2.8-14.4 3.9 1.1 3 2.3 6.9 3.4 11.1z"/><path id="XMLID_186_" class="st6" d="M208.3 194.4c-1.2 2.4-3.1 5.6-6.3 9.1 3.2 1.6 5.9 3.2 8.1 4.6 2.8-3.6 5.1-7.7 7-12.2-3-.4-6-.9-8.8-1.5z"/><path id="XMLID_187_" class="st6" d="M195.4 209.5c-3 2.3-6.7 4.6-11.1 6.7 2.1 2.3 4.5 5.1 6.8 8.2.3-.2.7-.4 1-.6 4.8-2.9 9.4-6.3 13.4-10.4-4.1-1.2-7.4-2.6-10.1-3.9z"/><path id="XMLID_188_" class="st4" d="M197.2 201.4c1.7.7 3.3 1.4 4.7 2.1 3.2-3.4 5.1-6.7 6.3-9.1-1.1-.2-2.2-.4-3.3-.7-1.7-.4-3.3-.8-4.6-1.1-2 2.6-4.1 5-6.4 7.2 2 .8 3.3 1.6 3.3 1.6z"/><path id="XMLID_189_" class="st4" d="M174.9 218.6c-1.4-1.4-2.8-2.8-4-4.2-3.8 1.5-7.7 2.7-11.4 3.5.3.8.8 2.1 1.3 3.7l.6 1.8c5.4-1.1 10.2-2.4 14.4-3.9l-.9-.9z"/><path id="XMLID_190_" class="st4" d="M149.7 220v-.2c-5.9.8-11.1.9-15 .8-.6 0-1.1 0-1.6-.1.1.3.1.5.1.8v4.5s0-.2-.1-.4c0 .4 0 .8-.1 1.2 6.9-.2 13.2-.6 18.9-1.4-.1-.1-.1-.3-.2-.4 0-.1-1.7-3-2-4.8z"/><path id="XMLID_191_" class="st4" d="M187.6 205.3c-2.7 2-5.5 3.8-8.3 5.3l2.9 3.4c.6.7 1.3 1.4 2.1 2.2 4.4-2.1 8-4.4 11.1-6.7-5.1-2.3-7.8-4.2-7.8-4.2z"/><path id="XMLID_192_" class="st7" d="M203.8 185.4l4.4.8c-2.6-.6-4.4-.8-4.4-.8z"/><path id="XMLID_193_" class="st7" d="M205 193.8c1 .2 2.1.5 3.3.7 2.8.5 5.8 1.1 8.8 1.5 8.1 1.3 15.3 2.1 15.3 2.1-1.1-1.1-2.3-2-3.5-2.9-7-5.2-15.5-7.8-20.6-8.9-5.3 1.9-3.3 7.5-3.3 7.5z"/><path id="XMLID_194_" class="st7" d="M200.2 192.6c-.1-.3-.1-.6-.1-.9.1.5.1.9.1.9z"/><path id="XMLID_195_" class="st7" d="M200.2 192.6h.1c1.3.4 2.9.8 4.6 1.1l-4.7-1.1z"/><path id="XMLID_196_" class="st6" d="M200.1 191.7c0 .3.1.6.1.9l4.7 1.2s-2-5.6 3.3-7.6l-4.4-.8s-1.3.3-2.4 1.4c-.8.9-1.5 2.5-1.3 4.9z"/><path id="XMLID_197_" class="st7" d="M202 203.5c-1.5-.7-3-1.4-4.7-2.1-5-1.2-5.5 6.3-5.5 6.3-1.3-.7-4.1-2.4-4.1-2.4s2.7 1.9 7.7 4.2c2.7 1.3 6.1 2.7 10.1 4 3.9 1.3 8.4 2.5 13.4 3.4 0 0-1.7-3.8-8.8-8.7-2.2-1.5-4.9-3.1-8.1-4.7z"/><path id="XMLID_198_" class="st6" d="M191.7 207.7s.5-7.4 5.5-6.3c0 0-1.3-.8-3.2-1.6-.8-.3-1.7-.6-2.6-.9 0 0-5.4.2-3.7 6.3-.1.1 2.7 1.8 4 2.5z"/><path id="XMLID_199_" class="st7" d="M184.3 216.2c-.7-.8-1.4-1.6-2.1-2.2-.1-.1-4.9-4-7.3 4.7l1 1c2.9 2.7 6 5.5 9 8 3 2.6 6 4.9 8.3 6.7 1 .8 1.9 1.5 2.7 2.1.6-.4 1.1-.7 1.7-1.1-1.5-3.6-4-7.5-6.6-11-2.2-3.1-4.7-5.9-6.7-8.2z"/><path id="XMLID_200_" class="st7" d="M174.9 218.6l-4.2-4.5.3.3c1.2 1.4 2.5 2.8 3.9 4.2z"/><path id="XMLID_201_" class="st7" d="M161.5 223.6c-.2-.6-.4-1.3-.6-1.8 0 0-5.4-4.6-9.2 3 .1.1.1.3.2.4 2 4.1 4 7.9 6 11.1 3.3 5.4 6.4 9.5 8.2 11.7.7.9 1.3 1.5 1.5 1.8h.1c-.5-4.9-1.7-10.1-3-15-.9-4.3-2.1-8.2-3.2-11.2z"/><path id="XMLID_202_" class="st7" d="M160.9 221.7c-.6-1.6-1-2.9-1.3-3.7s-.4-1.2-.4-1.2l-.1-.1 1.8 5z"/><path id="XMLID_203_" class="st7" d="M133.1 226.5c0-.4 0-.8.1-1.2-.3-1-1.5-3.5-5.1-3.5v31.4c1.7-4.5 2.9-9.5 3.7-14.2.7-4.8 1.1-9.2 1.3-12.5z"/><path id="XMLID_204_" class="st6" d="M179.3 210.6l-.7-.8c-6.7-4.8-7.9 4.4-7.9 4.4l4.2 4.5c2.4-8.7 7.2-4.7 7.3-4.7l-2.9-3.4z"/><path id="XMLID_205_" class="st6" d="M160.9 221.7l-1.9-5-.2-.5s-1-2.2-5-1.7c-3.5.5-4 4.3-4.1 5.3v.2c.3 1.8 2 4.6 2 4.6 3.8-7.5 9.2-2.9 9.2-2.9z"/><path id="XMLID_206_" class="st6" d="M128 215.7v6.1c3.6 0 4.8 2.5 5.1 3.5.1.3.1.4.1.4v-4.5c0-.3-.1-.5-.1-.8-.2-1-.5-1.8-.9-2.5-1.6-2.4-4.2-2.2-4.2-2.2z"/><path id="XMLID_207_" class="st8" d="M88.3 249.7l.9.3.6-2.1c-.7.9-1.3 1.5-1.5 1.8z"/><path id="XMLID_208_" class="st8" d="M106 237.6c-1.8-.2-3.6-.5-5.4-.9-1 3.7-2.4 9.1-4 15.4 5.5 1.4 11.2 2.4 16.9 3.1-3.8-10.8-7.5-17.6-7.5-17.6z"/><path id="XMLID_209_" class="st8" d="M63.9 223.9c-2.3 2.5-5.4 5.9-8.7 9.5 1 .7 2 1.4 3.1 2.1 1.5-3.6 4-7.5 6.6-11-.3-.2-.6-.4-1-.6z"/><path id="XMLID_210_" class="st8" d="M60.1 236.5c.5.3 1.1.7 1.6 1l1.1-3.1c-1.1.8-2 1.5-2.7 2.1z"/><path id="XMLID_211_" class="st8" d="M85.2 233.1l-9.9 11.6c4.2 1.9 8.4 3.5 12.8 5 .5-4.9 1.7-10.1 3-15-2-.5-3.9-1-5.9-1.6z"/><path id="XMLID_212_" class="st1" d="M124.3 239c-3.8-.1-10.4-.4-18.3-1.5 0 0 3.7 6.8 7.5 17.6 4.8.5 9.6.8 14.5.8v-2.7c-1.7-4.4-2.9-9.5-3.7-14.2z"/><path id="XMLID_213_" class="st1" d="M98 236.2c-3.3 5.4-6.4 9.5-8.2 11.7l-.6 2.1c2.4.8 4.9 1.5 7.4 2.1 1.6-6.3 3-11.7 4-15.4-.9-.1-1.7-.3-2.6-.5z"/><path id="XMLID_214_" class="st1" d="M71.1 227.7c-3 2.6-6 4.9-8.3 6.7l-1.1 3.1c4.4 2.7 8.9 5.1 13.7 7.2l9.9-11.6c-4.8-1.5-9.6-3.3-14.2-5.4z"/><path id="XMLID_215_" class="st1" d="M50.6 213.5c-3.9 1.3-8.4 2.5-13.4 3.4 0 0 1.7-3.8 8.8-8.7-2.8-3.6-5.1-7.7-7-12.2-8.1 1.3-15.3 2.1-15.3 2.1 1.1-1.1 2.3-2 3.5-2.9-2.2.3-4.7.7-7.5 1 9.2 14.7 21.4 27.3 35.6 37.1 3.3-3.6 6.4-7 8.7-9.5-4.9-2.8-9.4-6.3-13.4-10.3z"/><path id="XMLID_216_" class="st8" d="M93 190.7s-.3-15.1-.8-26.7l-1.8-1.5c-1.2 4.2-3.7 9.6-7.9 12.7 0 0 6 12.6 10.5 15.5z"/><path id="XMLID_217_" class="st8" d="M97.1 194l3.1 2.9s6.8 1.6 1.8-26c-2.5-1.4-4.8-3-7-4.6l2.1 27.7z"/><path id="XMLID_218_" class="st8" d="M128 215.7v-37.6c-2 0-3.9-.1-5.7-.3-.4.2-1.4.4-2.2.1.1 5.4.6 35.3 2.1 38 .4.7 1 1.5 1.6 2.2 1.6-2.6 4.2-2.4 4.2-2.4z"/><path id="XMLID_219_" class="st8" d="M55.9 191.7c0 .6-.1.9-.1.9h-.1c2 2.6 4.1 5 6.4 7.2.8-.3 1.7-.6 2.6-.9 0 0 5.4.2 3.7 6.3 2.7 2 5.5 3.8 8.3 5.3l.7-.8c6.7-4.8 7.9 4.4 7.9 4.4l-.3.3c3.8 1.5 7.7 2.7 11.4 3.5.3-.8.4-1.2.4-1.2l.1-.1.2-.5s1-2.2 5-1.7c3.5.5 4 4.3 4.1 5.3 5.9.8 11.1.9 15 .8-1.1-1.9-2-4.1-2.4-6.4-1-6.9-2.5-30.5-3-37.5-.9-.2-1.8-.5-2.6-.7-.5.1-1.8.3-2.5-.8-1.6-.6-3.2-1.3-4.8-2h-.7c.8 3.2 2.5 11.1 2.3 15.5-.2 5.7.7 8.9-3.8 11.5l10.3 9.3s-1 3.1-2.9 3.1-27-18.9-32.5-34.9l1.8-1.1c-5.6 3.1-17 7.3-25.9 10.4.9.8 1.6 2.4 1.4 4.8z"/><path id="XMLID_220_" class="st9" d="M111.2 212.5c1.9 0 2.9-3.1 2.9-3.1l-10.3-9.3c4.6-2.6 3.6-5.7 3.8-11.5.2-4.5-1.5-12.3-2.3-15.5-.6-.1-1.3-.4-1.8-1.2-.5-.3-1.1-.6-1.6-.9 5.1 27.7-1.8 26-1.8 26l-3.1-2.9-2-27.9c-1-.7-1.9-1.5-2.8-2.3.5 11.6.8 26.7.8 26.7-4.6-2.9-10.5-15.5-10.5-15.5l-2.1 1.3-1.8 1.1c5.6 16.1 30.7 35 32.6 35z"/><path id="XMLID_221_" class="st9" d="M123.8 218c-.6-.8-1.2-1.5-1.6-2.2-1.5-2.6-2.1-32.6-2.1-38-.2-.1-.4-.3-.6-.5-1.2-.2-2.4-.5-3.6-.8.4 7 2 30.6 3 37.5.3 2.3 1.2 4.5 2.4 6.4.6 0 1.1 0 1.6-.1.2-.8.5-1.6.9-2.3z"/><path id="XMLID_222_" class="st1" d="M72.6 22.9c6 1 8 8.1 8 8.1-.1.5-.1.9-.2 1.3 1.3-3.2 2.7-6.1 4-8.7.3-.6.8-1.2 1.3-1.8-1.1 0-2.3-.1-3.6-.5-6.1-1.9-10.9 0-10.9 0 .8 9.5 3.5 20.9 4.4 24.8.2-.9.5-1.7.7-2.6-1.8-5.7-3.7-20.6-3.7-20.6z"/><path id="XMLID_223_" class="st1" d="M78 93.4s0 .3.1.8c0-.3-.1-.5-.1-.8z"/><path id="XMLID_224_" class="st1" d="M123.8 119.5c.6 7.3.6 41.7 0 47.4s-1.4 10.8-1.4 10.8-.1 0-.2.1c1.9.2 3.8.3 5.7.3v-60.7h-1.8s-1-4.9-2.1-7.7c-.8-2-7-6.3-10.3-8.6-.6.8-1.2 1.7-1.7 2.6 5.8 4.4 11.3 9 11.8 15.8z"/><path id="XMLID_227_" class="st1" d="M78 56.6c-.3-4.9.2-12 .2-12S80.9 55 80 67.3c-1 12.3-.4 22.6.5 26.1 2.1 8.3 5.4 12.9 11 16.4 1.3-1.3 3.2-2.7 4.1-3.2-3.1-1-6.5-2.5-7.7-3.8-1.9-2.1-5.5-7.7-6.7-13.8-1.2-6.1-1-14.1-1-14.1s8.5-2.2 21.7 4.3c6.2 3.6 16.9 10.7 16.9 10.7s.6 0 1.5-.2c-7.7-9.1-27.2-18.7-30.4-20.2-3.4-1.6-7.3-3-7.8-9.1s-2.7-19.8-2.7-19.8c3.4 3.7 3.4 15.5 4.3 20.1 1 4.6 9.1 7.8 16 10.9 6.9 3 18.5 12.5 18.5 12.5l3.5-1.8s-1-16.3-2.3-34.6-7.4-27.6-4.9-28.1c2.6-.5 4.6 12.9 5.9 20 1.3 7 3.8 44.5 3.8 44.5l-3.8 1.9 2.1 2.7c.8-.3 2-.5 3.1-.6-.3-3.8-.1-8.4-.1-12.6 0-8.6 2.6-11.5 2.6-11.5V10s-33.5 2.7-42.2 12.1c-.5.6-1 1.2-1.3 1.8-1.4 2.6-2.7 5.5-4 8.7-1.1 6.5-3.5 12.2-3.5 12.2-.2-.3-.3-.7-.5-1.1-.3.9-.5 1.7-.7 2.6-1.8 6.5-3 13.2-3.1 19.1v3.8l4.3 6.6c-.2-.2 1.2-14.3.9-19.2zm28.5-1.4c.8 0 1.4.6 1.4 1.4 0 .8-.6 1.4-1.4 1.4s-1.4-.6-1.4-1.4.6-1.4 1.4-1.4zm-.3 6.4c.8 0 1.4.6 1.4 1.4 0 .8-.6 1.4-1.4 1.4s-1.4-.6-1.4-1.4c0-.8.6-1.4 1.4-1.4zm-3-7.5c0 .8-.6 1.4-1.4 1.4s-1.4-.6-1.4-1.4.6-1.4 1.4-1.4c.8 0 1.4.6 1.4 1.4zm-.2 5.1c0 .8-.6 1.4-1.4 1.4s-1.4-.6-1.4-1.4c0-.8.6-1.4 1.4-1.4s1.4.6 1.4 1.4zm-.7-39.7C91.3 26.1 90.6 38 90.6 38h-1.4l-1.6-10.5c4.8-6.2 14.7-9.4 14.7-9.4v1.4zm-4.9 33.2c-.8 0-1.4-.6-1.4-1.4 0-.8.6-1.4 1.4-1.4s1.4.6 1.4 1.4c0 .8-.6 1.4-1.4 1.4zm.9 3.9c0 .8-.6 1.4-1.4 1.4s-1.4-.6-1.4-1.4c0-.8.6-1.4 1.4-1.4s1.4.7 1.4 1.4zm-4.4-2.7c0 .8-.6 1.4-1.4 1.4s-1.4-.6-1.4-1.4c0-.8.6-1.4 1.4-1.4s1.4.6 1.4 1.4zm-7.5-2.4c1.2 4.8 6.9 7.7 12.7 10.4 5.7 2.8 14 9.9 14 9.9l1.9-2c-.4-9.9-1.7-22-3.5-24.5s-5.6-7.1-4.6-7.8c1.1-.7 6.8 4.8 7.9 9.5s2.8 23.5 2.8 23.5c-.5 3.2-4.1 6.6-4.1 6.6C106 67.3 93 61.6 90.2 59.4c-2.9-2.2-5-4.4-5.5-9s-4.1-15.8-4.1-15.8c3.7 6.2 4.7 12.1 5.8 16.9zm24.7 12.8c.8 0 1.4.6 1.4 1.4s-.6 1.4-1.4 1.4-1.4-.6-1.4-1.4c0-.7.6-1.4 1.4-1.4zm-1.4-3.9c0-.8.6-1.4 1.4-1.4s1.4.6 1.4 1.4c0 .8-.6 1.4-1.4 1.4s-1.4-.7-1.4-1.4z"/><path id="XMLID_238_" class="st1" d="M92.4 125.2c-.8-.9-1.5-1.7-2.2-2.5.6.8 1.3 1.6 2.2 2.5z"/><path id="XMLID_239_" class="st1" d="M93.8 102.2c-3-2-7.1-4.3-8.9-12.3s-2.2-9.2-2.2-9.2 10.3-3.1 18.6 5.9c0 0 9.2 1.4 15.7 6 .3-.3.5-.6.8-.9 0 0-18.4-13.7-35.4-14.5 0 0-1.7 16 6.2 22.9s13.5 5.3 13.5 5.3 1.4-.8 3.5-2.3c-3 .1-9.6.6-11.8-.9z"/><path id="XMLID_240_" class="st1" d="M128 108.4v-12c-1.2-1.2-1.9-3.6-2.2-6.5-1.3.1-2.9.5-4.3 1.8-.6.6-1.4 1.4-2.3 2.5 1.5 1.4 2.7 3 3.4 5 0 0-1.6-1.7-4.5-3.7-.9 1.1-1.9 2.5-3 4 3.6 2.4 10 6 10 6 1 2.9 2.9 2.9 2.9 2.9z"/><path id="XMLID_241_" class="st1" d="M84.4 82.3l1.3 4.8s4.9-3.3 11-1.8c0 0-4.1-4.2-12.3-3z"/><path id="XMLID_242_" class="st1" d="M89.3 112.1s-9.5-8.3-11.2-17.8c.5 3.2 2.6 13.2 9.5 20.5 0 0 0 .1-.1.2.5-1 1.2-2 1.8-2.9z"/><path id="XMLID_243_" class="st1" d="M86.3 89s1.8 5.9 5 8.9c3.2 2.9 4.8 4.5 17 2.9 2.3-1.8 4.9-4.2 7.4-6.9-2.2-1.3-4.9-2.7-8-3.8-9.4-3.2-17.1-4.4-21.4-1.1z"/><path id="XMLID_244_" class="st1" d="M101.7 149.1s2.2-8.5.2-12.2c-1.2-2.4-5.8-7.6-9.5-11.7.1.8.7 7.8 1.5 14.9 3.2 3 7.8 9 7.8 9z"/><path id="XMLID_245_" class="st1" d="M114.7 139.3s-3.8 26.9-8.5 33.7h-.2c1.5.7 3.1 1.4 4.8 2 0-.1-.1-.1-.1-.2 0 .1 4.4-20.5 4-35.5z"/><path id="XMLID_246_" class="st1" d="M95 166.2c2.2 1.6 4.5 3.2 7 4.6.5.3 1 .6 1.6.9l-.2-.2s7.3-12.1 9.3-29.2c1.9-17.1 1.1-22.4 1.1-22.4l-8.5-9.4c-1.2-1.1-3-2.4-4.8-2.8-.8.6-6.1 4.5-9.9 9.7l2.2 1.7s5.5-6.2 7.9-6.8l-5.9 8.9 2.3 3.2s3.5-6.9 6.5-8.3c0 0-4.2 7.9-4.9 9.8l2.3 2.5s2-3.1 5.9-8.1c0 0-4.1 9.8-3.2 11.9.8 2 3.2 3.1 3.2 3.1s-1 21.6-6.3 22.5c0 0-3-4.8-5.4-7.5.3 2.3.7 4.2 1 5.3 1.4 5.1 5.7 14.8 5.7 14.8s-8.5-10.7-9.7-16.9c-.2-.9-.4-2.1-.6-3.4-1 2.3-1.8 6-1.8 6s-3.1-4.1-3.4-6c-.2-1.6 2-7.3 3.6-10.2-.9-6-1.6-11.8-2-13.5-.3-1.7-1.3-4.1-2.3-6.4-1.2 5.8-4.3 20.4-4.3 23.9 0 4.5 3.4 11.3 3.4 11.3s-4.2-3.5-4.5-10.4c-.3-5.8 2.6-23.8 3.4-29l-.9-1.8c-.1-.2-.2-.4-.3-.7-.7 4.1-3.8 22.3-3.8 29.1 0 0-2.1-13.6 2.2-32.4h.1c-2-4.6-4.6-11.4-4.8-16.1-.2-6.4-1-9.2-1-9.2l-2.5-3.8-.1-3.4 4.2 6.1-.3-4.2-4-7.1c.3 22 2.7 75.1 10.9 83.5 2 2.1 4.4 4.4 7 6.7l1.8 1.5c.9.8 1.9 1.5 2.8 2.2z"/><path id="XMLID_247_" class="st1" d="M119.4 177.2s1.6-7.2 1.8-11c.2-3.8 1.4-38.8.6-44.9-.7-5.6-3.4-8.8-11.2-15.1-.8 1.3-1.6 2.6-2.3 4 1.1 1.1 2.5 2.6 3.6 3.8 2.1 2.1 5.3 5.4 5.3 13.6s-.5 24.1-1.6 33.4-2 14.9-2 14.9-.1 0-.2.1c.9.3 1.7.5 2.6.7 1.2.3 2.4.6 3.6.8-.2-.2-.2-.2-.2-.3z"/><path id="XMLID_248_" class="st8" d="M72.6 22.9s1.9 14.9 3.9 20.6c.1.4.3.8.5 1.1 0 0 2.4-5.7 3.5-12.2.1-.4.1-.9.2-1.3-.1-.1-2.1-7.3-8.1-8.2z"/><path id="XMLID_249_" class="st6" d="M80.9 109.9c-4.3 18.8-2.2 32.4-2.2 32.4 0-6.8 3.1-25 3.8-29.1-.4-.8-.9-2-1.5-3.2l-.1-.1z"/><path id="XMLID_250_" class="st6" d="M80.2 144.7c.3 6.9 4.5 10.4 4.5 10.4s-3.4-6.9-3.4-11.3c0-3.6 3-18.1 4.3-23.9-.6-1.4-1.3-2.9-2-4.1-.8 5.1-3.6 23.1-3.4 28.9z"/><path id="XMLID_251_" class="st6" d="M87.6 27.5L89.2 38h1.4s.6-12 11.7-18.5v-1.4s-9.9 3.2-14.7 9.4z"/><path id="XMLID_252_" class="st4" d="M128 87.8V63.7s-2.6 2.9-2.6 11.5c0 4.3-.1 8.8.1 12.6h2.5z"/><path id="XMLID_253_" class="st4" d="M128 90.1s-.9-.2-2.2-.2c.3 2.9 1 5.3 2.2 6.5v-6.3z"/><path id="XMLID_254_" class="st4" d="M124.2 109.7c1.1 2.7 2.1 7.7 2.1 7.7h1.8v-8.9s-1.9 0-2.9-3c0 0-6.4-3.6-10-6l-1.2 1.8c3.2 2.1 9.4 6.4 10.2 8.4z"/><path id="XMLID_255_" class="st4" d="M122.3 177.8c.1-.1.2-.1.2-.1s.7-5.1 1.4-10.8c.6-5.7.6-40.1 0-47.4-.6-6.8-6.1-11.4-11.7-15.7-.5.8-1 1.6-1.6 2.5 7.8 6.3 10.5 9.5 11.2 15.1.8 6.1-.5 41-.6 44.9-.2 3.8-1.8 11-1.8 11l.1.1c.2.2.4.4.6.5.8.3 1.7 0 2.2-.1z"/><path id="XMLID_256_" class="st4" d="M115.5 161c1.1-9.3 1.6-25.2 1.6-33.4s-3.2-11.5-5.3-13.6c-1.1-1.1-2.5-2.6-3.6-3.8-.4.7-.8 1.4-1.1 2.1 0 0-.7-.9-1.8-1.9l8.5 9.4s.8 5.3-1.1 22.4-9.3 29.2-9.3 29.2c0 .1.1.2.2.2.5.8 1.2 1.1 1.8 1.2.3.1.6.1.7 0h.2c4.6-6.9 8.5-33.7 8.5-33.7.3 15-4 35.6-4 35.6 0 .1.1.1.1.2.7 1.1 2 1 2.5.8.1 0 .2-.1.2-.1s.8-5.4 1.9-14.6z"/><path id="XMLID_257_" class="st4" d="M95.5 106.5c-.8.6-2.8 2-4.1 3.2l-2 2.3c-.7.9-1.3 1.9-1.8 2.9-.3.7-.8 3.3 2.6 7.6.7.8 1.4 1.6 2.2 2.5 3.7 4.2 8.3 9.4 9.5 11.7 1.9 3.7-.2 12.2-.2 12.2s-4.5-6-7.8-9.1c.4 3.6.8 7.2 1.2 10.1 2.3 2.7 5.4 7.5 5.4 7.5 5.4-1 6.3-22.5 6.3-22.5s-2.4-1.1-3.2-3.1c-.8-2 3.2-11.9 3.2-11.9-3.8 5-5.9 8.1-5.9 8.1l-2.3-2.5c.7-1.9 4.9-9.8 4.9-9.8-3 1.5-6.5 8.3-6.5 8.3l-2.3-3.2 5.9-8.9c-2.4.6-7.9 6.8-7.9 6.8l-2.2-1.7c3.9-5.2 9.1-9.1 9.9-9.7-.2 0-.3-.1-.5-.1-1 .3-2.7-.1-4.4-.7z"/><path id="XMLID_258_" class="st4" d="M86.3 150c.2 1.9 3.4 6 3.4 6s.7-3.7 1.8-6c-.5-2.9-1-6.6-1.6-10.2-1.6 2.8-3.8 8.5-3.6 10.2z"/><path id="XMLID_261_" class="st4" d="M82.7 80.6s.4 1.2 2.2 9.2 5.9 10.3 8.9 12.3c2.3 1.6 8.8 1 11.8.7.8-.6 1.8-1.3 2.8-2.1-12.2 1.6-13.8.1-17-2.9s-5-8.9-5-8.9c4.3-3.4 12-2.2 21.4 1.1 3.1 1.1 5.8 2.4 8 3.8.4-.5.8-.9 1.2-1.4-6.5-4.5-15.7-6-15.7-6-8.3-8.9-18.6-5.8-18.6-5.8zm3 6.5l-1.3-4.8c8.1-1.2 12.3 3 12.3 3-6-1.5-11 1.8-11 1.8z"/><path id="XMLID_262_" class="st4" d="M122.6 99.2c-.7-1.9-1.9-3.5-3.4-5-.3.4-.7.8-1 1.2 2.9 2.1 4.4 3.8 4.4 3.8z"/><path id="XMLID_265_" class="st6" d="M107.1 112.4c.4-.7.8-1.4 1.1-2.1.8-1.4 1.5-2.7 2.3-4 .5-.9 1-1.7 1.6-2.5.6-.9 1.2-1.8 1.7-2.6l1.2-1.8c1.1-1.5 2.1-2.8 3-4 .3-.4.7-.8 1-1.2.9-1.1 1.7-1.9 2.3-2.5 1.4-1.3 3-1.7 4.3-1.8 1.3-.1 2.2.2 2.2.2v-2.3s-1.1 0-2.4.1c-1.1.1-2.3.3-3.1.6l.8 1-1.8 1.7c-.4-.5-.8-1.1-1.3-1.6-.9.2-1.5.2-1.5.2s-10.7-7.1-16.9-10.7c-13.2-6.5-21.7-4.3-21.7-4.3s-.2 8 1 14.1 4.8 11.7 6.7 13.8c1.2 1.3 4.5 2.8 7.7 3.8 1.7.5 3.4 1 4.6 1.1.2 0 .3.1.5.1 1.8.4 3.5 1.6 4.8 2.8 1.2 1 1.9 1.9 1.9 1.9zM88.5 99.9C80.6 93 82.3 77 82.3 77c17 .8 35.4 14.5 35.4 14.5-.2.3-.5.6-.8.9-.4.5-.8.9-1.2 1.4-2.4 2.8-5.1 5.1-7.4 6.9-1 .8-2 1.5-2.8 2.1-2.1 1.5-3.5 2.3-3.5 2.3s-5.6 1.7-13.5-5.2z"/><path id="XMLID_266_" class="st6" d="M123.2 89.4l-.8-1-2.1-2.7 3.8-1.9s-2.6-37.5-3.8-44.5c-1.3-7-3.4-20.4-5.9-20-2.6.5 3.5 9.7 4.9 28.1s2.3 34.6 2.3 34.6l-3.5 1.8s-11.7-9.4-18.5-12.5c-6.9-3-15-6.2-16-10.9-1-4.6-1-16.4-4.3-20.1 0 0 2.2 13.7 2.7 19.8s4.5 7.5 7.8 9.1c3.2 1.5 22.7 11.1 30.4 20.2.5.5.9 1.1 1.3 1.6l1.7-1.6z"/><path id="XMLID_267_" class="st4" d="M84.7 50.5c.5 4.6 2.6 6.8 5.5 9C93 61.6 106 67.3 113.6 77c0 0 3.6-3.4 4.1-6.6 0 0-1.7-18.8-2.8-23.5-1.1-4.7-6.8-10.2-7.9-9.5s2.8 5.3 4.6 7.8c1.8 2.5 3.1 14.6 3.5 24.5l-1.9 2s-8.3-7.2-14-9.9c-5.7-2.8-11.5-5.6-12.7-10.4s-2.2-10.8-5.9-16.9c0 .1 3.6 11.4 4.1 16z"/><path id="XMLID_270_" class="st3" d="M76.9 83.5l-4.2-6.1.1 3.4 2.5 3.8s.8 2.8 1 9.2c.1 4.7 2.7 11.5 4.8 16.1.6 1.3 1.1 2.4 1.5 3.2.1.2.2.5.3.7.3.5.6 1.1.9 1.8.6 1.3 1.3 2.7 2 4.1 1 2.3 2 4.6 2.3 6.4s1.1 7.6 2 13.5c.5 3.6 1.1 7.3 1.6 10.2.2 1.3.4 2.5.6 3.4 1.3 6.2 9.7 16.9 9.7 16.9s-4.3-9.7-5.7-14.8c-.3-1.1-.6-2.9-1-5.3-.4-2.9-.9-6.5-1.2-10.1-.8-7.1-1.4-14.1-1.5-14.9-.9-.9-1.6-1.7-2.2-2.5-3.5-4.4-2.9-7-2.6-7.6 0-.1.1-.2.1-.2-6.8-7.3-9-17.3-9.5-20.5C80 103.7 89.6 112 89.6 112l2-2.3c-5.6-3.5-8.9-8-11-16.4-.9-3.6-1.4-13.8-.5-26.1 1-12.3-1.8-22.7-1.8-22.7s-.5 7-.2 12c.3 4.9-1.1 19-1.1 19l-4.3-6.6v3.4l4 7.1.2 4.1zm1.2 10.7c-.1-.5-.1-.8-.1-.8 0 .3.1.5.1.8z"/><circle id="XMLID_271_" class="st4" cx="111.1" cy="65.7" r="1.4"/><circle id="XMLID_272_" class="st4" cx="106.2" cy="63" r="1.4"/><circle id="XMLID_273_" class="st4" cx="101.6" cy="59.2" r="1.4"/><circle id="XMLID_274_" class="st4" cx="96.9" cy="56.6" r="1.4"/><circle id="XMLID_275_" class="st4" cx="92.5" cy="53.9" r="1.4"/><circle id="XMLID_276_" class="st4" cx="111.1" cy="60.4" r="1.4"/><circle id="XMLID_277_" class="st4" cx="106.5" cy="56.6" r="1.4"/><circle id="XMLID_278_" class="st4" cx="101.8" cy="54.1" r="1.4"/><circle id="XMLID_279_" class="st4" cx="97.4" cy="51.3" r="1.4"/><path id="XMLID_280_" class="st10" d="M122.9 226.5c-6.9-.2-13.2-.6-18.9-1.4-2 4.1-4 7.9-6 11.1.8.2 1.7.3 2.5.5 1.9.3 3.7.6 5.4.9 7.9 1.1 14.5 1.4 18.3 1.5-.7-4.9-1.1-9.3-1.3-12.6z"/><path id="XMLID_281_" class="st10" d="M71.1 227.7c4.6 2.2 9.4 4 14.1 5.4 2 .6 4 1.1 5.9 1.6 1.1-4.2 2.3-8.1 3.4-11.1-5.4-1.1-10.2-2.4-14.4-3.9-2.9 2.7-6 5.4-9 8z"/><path id="XMLID_282_" class="st10" d="M54 203.5c-3.2-3.4-5.1-6.7-6.3-9.1-2.8.5-5.8 1.1-8.8 1.5 1.9 4.5 4.2 8.6 7 12.2 2.2-1.4 4.9-3 8.1-4.6z"/><path id="XMLID_283_" class="st10" d="M50.6 213.5c4 4.1 8.5 7.5 13.4 10.4.3.2.6.4 1 .6 2.3-3.1 4.7-6 6.8-8.2-4.4-2.1-8-4.4-11.1-6.7-2.8 1.2-6.1 2.6-10.1 3.9z"/><path id="XMLID_284_" class="st6" d="M122.9 226.5c0-.4 0-.8-.1-1.2-.1.3-.1.4-.1.4v-4.5c0-.3.1-.5.1-.8-.5 0-1.1 0-1.6.1-3.8.1-9 0-15-.8v.2c-.3 1.8-2 4.6-2 4.6-.1.1-.1.3-.2.4 5.8 1 12 1.5 18.9 1.6z"/><path id="XMLID_285_" class="st6" d="M95.1 221.7c.6-1.6 1-2.9 1.3-3.7-3.7-.9-7.5-2-11.4-3.5-1.2 1.4-2.6 2.8-4 4.2l-1 1c4.3 1.5 9.1 2.8 14.4 3.9.3-.7.5-1.3.7-1.9z"/><path id="XMLID_286_" class="st6" d="M76.7 210.6c-2.8-1.5-5.6-3.3-8.3-5.3 0 0-2.7 1.9-7.7 4.2 3 2.3 6.7 4.6 11.1 6.7.7-.8 1.4-1.6 2.1-2.2l2.8-3.4z"/><path id="XMLID_287_" class="st6" d="M54 203.5c1.5-.7 3-1.4 4.7-2.1 0 0 1.3-.8 3.2-1.6-2.2-2.2-4.4-4.6-6.4-7.2-1.3.4-2.9.8-4.6 1.1-1 .2-2.1.5-3.3.7 1.3 2.5 3.3 5.7 6.4 9.1z"/><path id="XMLID_288_" class="st4" d="M47.7 186.2l4.4-.8c.1 0-1.7.2-4.4.8z"/><path id="XMLID_289_" class="st4" d="M23.7 198.1s7.3-.9 15.3-2.1c2.9-.5 5.9-1 8.8-1.5 1.1-.2 2.2-.4 3.3-.7 0 0 2-5.6-3.3-7.6-5.1 1.1-13.6 3.7-20.6 8.9-1.3 1-2.4 1.9-3.5 3z"/><path id="XMLID_290_" class="st4" d="M55.8 192.6s.1-.4.1-.9c-.1.3-.1.6-.1.9z"/><path id="XMLID_291_" class="st4" d="M55.8 192.6l-4.7 1.2c1.7-.4 3.3-.8 4.6-1.1 0-.1 0-.1.1-.1z"/><path id="XMLID_292_" class="st10" d="M51 193.8l4.8-1.2c.1-.3.1-.6.1-.9.2-2.4-.5-3.9-1.3-4.9-1.1-1.2-2.4-1.4-2.4-1.4l-4.4.8c5.2 2 3.2 7.6 3.2 7.6z"/><path id="XMLID_293_" class="st4" d="M60.6 209.5c5-2.4 7.7-4.2 7.7-4.2s-2.7 1.7-4.1 2.4c0 0-.5-7.4-5.5-6.3-1.7.7-3.3 1.4-4.7 2.1-3.2 1.6-5.9 3.2-8.1 4.6-7.1 4.9-8.8 8.7-8.8 8.7 5-.9 9.5-2.1 13.4-3.4 4.1-1.2 7.4-2.6 10.1-3.9z"/><path id="XMLID_294_" class="st10" d="M58.8 201.4c5-1.2 5.5 6.3 5.5 6.3 1.3-.7 4.1-2.4 4.1-2.4 1.7-6.1-3.7-6.3-3.7-6.3-.9.2-1.8.5-2.6.9-2 .7-3.3 1.5-3.3 1.5z"/><path id="XMLID_295_" class="st4" d="M71.1 227.7c3-2.5 6.1-5.3 9-8l1-1c-2.4-8.7-7.2-4.7-7.3-4.7-.6.7-1.3 1.4-2.1 2.2-2.1 2.3-4.5 5.1-6.8 8.2-2.6 3.5-5 7.3-6.6 11 .6.4 1.1.7 1.7 1.1.8-.6 1.7-1.3 2.7-2.1 2.4-1.8 5.3-4.2 8.4-6.7z"/><path id="XMLID_296_" class="st4" d="M81.1 218.6c1.4-1.4 2.8-2.8 4-4.2l.3-.3-4.3 4.5z"/><path id="XMLID_297_" class="st4" d="M98 236.2c2-3.2 4.1-6.9 6-11.1.1-.1.1-.3.2-.4-3.8-7.6-9.2-3-9.2-3l-.6 1.8c-1 3.1-2.3 6.9-3.4 11.1-1.3 4.8-2.4 10.1-3 15h.1c.3-.3.8-.9 1.5-1.8 2-2.1 5.1-6.1 8.4-11.6z"/><path id="XMLID_298_" class="st4" d="M95.1 221.7l1.9-5-.1.1s-.2.4-.4 1.2c-.4.9-.8 2.1-1.4 3.7z"/><path id="XMLID_299_" class="st4" d="M128 235.9v-14.1c-3.6 0-4.8 2.5-5.1 3.5 0 .4 0 .8.1 1.2.2 3.3.6 7.7 1.4 12.5.8 4.7 1.9 9.7 3.7 14.2v-17.3h-.1z"/><path id="XMLID_300_" class="st10" d="M81.1 218.6l4.2-4.5s-1.2-9.2-7.9-4.4l-.7.8-2.9 3.4c.1 0 4.9-3.9 7.3 4.7z"/><path id="XMLID_301_" class="st10" d="M106.3 220v-.2c-.1-1-.6-4.8-4.1-5.3-4-.5-5 1.7-5 1.7l-.2.5-1.9 5s5.4-4.6 9.2 3c0 0 1.7-2.9 2-4.7z"/><path id="XMLID_302_" class="st10" d="M128 215.7s-2.6-.2-4.2 2.3c-.4.6-.7 1.4-.9 2.5-.1.3-.1.5-.1.8v4.5s0-.2.1-.4c.3-1 1.5-3.5 5.1-3.5v-6.2z"/></g></g></svg>