<svg xmlns="http://www.w3.org/2000/svg" width="256" height="256"><circle fill="#B1B3B5" cx="128" cy="128" r="128"/><path fill="#392601" d="M185.9 221.5c-.6 3.7-1.2 6-2.4 6-2.9 0-3.9-1.5-4.9-8.6-1.9-.9-3.4-1.6-4-2l-33.8 16.3c1.7 7.4 1.4 18-12.8 20.2v2.6c30.8 0 59-10.9 81.1-28.9-5-2.9-9.5-5.2-11.9-6.5-3 2.1-7.2 1.9-11.3.9z"/><path fill="#7A5D25" d="M217.6 198.2l1.6 6.1s-14.4 0-19.2 12.5c-.7 1.7-1.7 3-2.9 3.9 2.4 1.3 6.9 3.6 11.9 6.5 9.8-8.1 18.4-17.5 25.5-28.2-5.1 0-11-.2-16.9-.8z"/><path fill="#8A6A2C" d="M185.9 221.5c4 1 8.3 1.2 11.2-1 1.2-.9 2.2-2.1 2.9-3.9 4.8-12.5 19.2-12.5 19.2-12.5l-1.6-6.1c-5.8-.6-11.7-1.7-16.9-3.5L188 207.1c-1 5.6-1.5 10.7-2.1 14.4zm-11.3-4.5c.7.4 2.1 1.2 4 2-.1-1.1-.3-2.4-.4-3.7l-3.6 1.7z"/><path fill="#2F1D00" d="M221.2 156.7l-.2.2c-.5.9-.8 1.4-.8 1.4.2-.3.3-.7.4-1-1.2 1.2-4.4 4.7-9.7 10.4 9.6 4.4 20.7 10.1 30.7 17 .9-2.1 1.4-4.1 1.4-4.1-8.9 3.9-16.5-11.2-20.6-26.3-.4.8-.8 1.5-1.1 2.1-.1.2-.1.3-.1.3zm-33.8 2.9c0-.4.1-.9.1-1.3 0 0 .2.1.5.2 2.7-5.4 5.1-9.6 6.3-11.6-.3.2-.5.3-.5.3l3.7-12.7c-.5.3-.7.5-.7.5l2.8-11.5c-.2-.9-.6-3.8-.7-7-.9-1.5-2.3-3.9-3.5-6.6l-4.6-3s-15.2 42.8-20.8 55.7l15.3 1.8c.6-1.7 1.4-3.3 2.1-4.8z"/><path fill="#4F3B12" d="M145.8 179.4c-1.1 2.6-2.4 6.8-2.4 12.1 0 9.7-9.4 14-9.4 14s4.5-1.6 6.7-5.1c0 0 .6 11.5-6.7 16 0 0 4.2.3 5.8-2.6 0 0 0 1-.3 2.7 11-4.3 27.4-12.8 37.9-27.9 1.4-8.4 4.5-17 7.8-24.3l-15.3-1.8c-.5 1.2-.9 2.2-1.3 2.8-3.8 7.3-10.3 10.5-10.3 10.5l-1.9-.9c-3.2 2.3-7 3.7-10.6 4.5z"/><path fill="#997432" d="M176.8 201.1c-.4-3.9-.1-8.2.6-12.5-10.5 15.1-26.9 23.6-37.9 27.9-.6 4-2.7 11.6-9.3 16.8 0 0 6.7-4.8 7.9-7.7 0 0 1.6 3.3 2.6 7.6l33.8-16.3 3.6-1.7c-.3-3.6-.7-8.2-1.3-14.1zm34.1-33.4c-3.2 3.4-7.1 7.7-11.8 12.9-6.6 7.3-9.5 17.5-11.1 26.5l12.7-12.4c5.2 1.8 11 2.9 16.9 3.5 5.9.6 11.8.8 17 .7 2.9-4.4 5.6-8.9 7.9-13.6l-.9-.6c-10-6.9-21.1-12.7-30.7-17zm-23.4-9.4c0 .4 0 .9-.1 1.3l.6-1.2c-.4-.1-.5-.1-.5-.1z"/><path fill="#533E0F" d="M221.3 156.3c-.1.2-.2.4-.3.5l.2-.2.1-.3zm-1.1-18.6c-8.6-1-23.2 7.4-26 9.1-1.2 2-3.6 6.2-6.3 11.6l-.6 1.2c-.7 1.5-1.4 3.1-2.2 4.7-3.2 7.3-6.3 15.9-7.8 24.3-.7 4.3-1 8.5-.6 12.5.6 5.9 1 10.5 1.4 14.2.2 1.4.3 2.6.4 3.7 1 7.1 2 8.6 4.9 8.6 1.2 0 1.9-2.3 2.4-6 .6-3.7 1.1-8.9 2.1-14.5 1.6-9.1 4.5-19.3 11.1-26.5 4.7-5.1 8.6-9.4 11.8-12.9 5.3-5.7 8.5-9.2 9.7-10.4 2.6-7-.3-19.6-.3-19.6z"/><path fill="#644C1A" d="M225.4 118.4c-9.3 2-24.6 13.4-28 16.1l-3.7 12.7s.2-.1.5-.3c2.8-1.7 17.4-10.1 26-9.1 0 0 2.9 12.6.4 19.6-.1.4-.3.7-.4 1 0 0 .3-.5.8-1.4.1-.2.2-.4.3-.5.3-.6.7-1.3 1.1-2.1 1.4-2.7 3.3-6.4 5-10.2 1.7-8.6-2-25.8-2-25.8z"/><path fill="#745922" d="M233 100.2s-29 16-33.5 23.6c0 0 0-.1-.1-.3l-2.8 11.5s.3-.2.7-.5c3.4-2.6 18.7-14.1 28-16.1 0 0 3.7 17.2 2 25.6-.1.5-.2 1.1-.4 1.5 0 0 11.4-17.9 11.8-30.6l-.3.3c.1 0-1.9-11.2-5.4-15z"/><path fill="#806228" d="M200 118.4s-.5-.7-1.2-1.9c.1 3.2.6 6.1.7 7 0 .2.1.3.1.3 4.5-7.7 33.5-23.6 33.5-23.6 3.5 3.8 5.5 15 5.5 15l.3-.3 2.9-2.6c1.6-8-6.1-41.2-6.1-41.2-3.2-1.9-8.2-2.6-10.4-2.8l2.7 14s-23.8 14.7-28 36.1z"/><path fill="#89692C" d="M200 118.4c4.3-21.4 28-36.1 28-36.1l-2.7-14-1.1-5.8c-.9-1.3-3.6-3.3-6.6-5.3 1.1.9 1.8 1.5 1.8 1.5-15 8.9-24.1 51.3-24.1 51.3 1.2 2.7 2.5 5.1 3.5 6.6.7 1.1 1.2 1.8 1.2 1.8z"/><path fill="#332500" d="M175.5 39.1c-1.4-3.3-2.4-5.4-2.4-5.4-4.4-.1-6.6 1.5-8.2 4.5 5.1-.6 9.8.7 10.6.9z"/><path fill="#D7A990" d="M177.9 82.9c-27.5-1.6-31 9.6-36.7 15-5.7 5.4-13.2 2.6-13.2 2.6V164s8.4 2.2 15.4-2.2c0 0-6.7 6.7-5.7 8s9.6 6.7 9.6 6.7-.7 1.1-1.5 2.9c3.7-.8 7.4-2.2 10.7-4.5l-1.3-.7 8.3-64.8s5.3-5.4 10.6-12.6l3.8-13.9z"/><path fill="#4F3D16" d="M184.5 65.6c-.3-1.5-.6-3-1-4.5-1.6-.3-3.2-.5-4.7-.5 2.6 1.3 4.4 3.1 5.7 5zM153 83.3c-12.1 8.9-25 10.2-25 10.2v7s7.4 2.9 13.2-2.6c5.7-5.4 9.3-16.6 36.7-15l-3.8 13.9c4.2-5.7 8.5-12.5 10.2-18.8-10-9.4-20.1-3-31.3 5.3z"/><path fill="#705425" d="M153 83.3c11.2-8.3 21.3-14.7 31.4-5.1.5-1.9.8-3.7.8-5.4 0-2.2-.3-4.6-.7-7.1-1.3-1.9-3.1-3.7-5.6-5-13.4 0-21.2 13.2-30.3 22-10.2 9.9-20.5 9.3-20.5 9.3v1.6c-.1-.1 12.8-1.4 24.9-10.3z"/><path fill="#997D4F" d="M128 90.6v1.3s10.3.6 20.5-9.3c9.1-8.8 17-21.9 30.3-22 1.5 0 3.1.2 4.7.5 0-.2-.1-.4-.1-.6-2.3-8.1-5.6-16.3-7.9-21.4-.8-.2-5.5-1.5-10.7-.9-2.5 4.7-3.3 12.7-7.7 23-7.3 16.9-29.1 19.6-29.1 19.6v9.8z"/><path fill="#997432" d="M128 45.6v35.3s21.8-2.7 29.1-19.6c4.5-10.3 5.3-18.4 7.7-23 1.6-3 3.9-4.6 8.2-4.5 0 0 1 2.1 2.4 5.4 2.2 5.2 5.6 13.4 7.9 21.4-3.2-12.9-9.7-26.2-9.7-26.2s19.5 13.1 21.4 45L167.9 112l-9.6 63.9s6.5-3.2 10.3-10.5c.3-.6.8-1.6 1.3-2.8 5.5-12.9 20.8-55.7 20.8-55.7l4.6 3s9.1-42.3 24.1-51.3c0 0-.8-.5-1.8-1.5-2.4-2.1-6.5-6-7.4-10C208.9 41.4 156.7 0 128 0v45.6z"/><path fill="#5A4319" d="M184.5 65.6c.4 2.5.7 4.9.7 7.1 0 1.7-.3 3.5-.8 5.4-1.7 6.2-6 13.1-10.2 18.8-5.4 7.2-10.6 12.6-10.6 12.6l-8.3 64.8 1.3.7 1.9.9 9.6-63.9 27.1-32.6c-1.9-31.9-21.4-45-21.4-45s6.5 13.3 9.7 26.2c0 .2.1.4.1.6.3 1.4.6 3 .9 4.4z"/><path fill="#2A1900" d="M130.3 233.3c6.6-5.2 8.6-12.8 9.3-16.8.3-1.6.3-2.7.3-2.7-1.6 2.9-5.8 2.6-5.8 2.6 7.3-4.5 6.7-16 6.7-16-2.2 3.5-6.7 5.1-6.7 5.1s9.4-4.4 9.4-14c0-5.2 1.3-9.4 2.4-12.1.8-1.9 1.5-2.9 1.5-2.9s-8.6-5.4-9.6-6.7 5.7-8 5.7-8c-7 4.5-15.4 2.2-15.4 2.2v89.4c14.2-2.2 14.5-12.8 12.8-20.2-1-4.3-2.6-7.6-2.6-7.6-1.4 2.9-8 7.7-8 7.7z"/><path fill="#392601" d="M115.2 233.2L81.4 217c-.7.4-2.1 1.2-4 2-1 7.1-2 8.6-4.9 8.6-1.2 0-1.9-2.3-2.4-6-4 1-8.3 1.2-11.2-1-2.4 1.3-6.9 3.6-11.9 6.5 22 18 50.2 28.9 81 28.9v-2.6c-14.2-2.2-14.5-12.7-12.8-20.2z"/><path fill="#6C521E" d="M56 216.7c-4.8-12.5-19.2-12.5-19.2-12.5l1.6-6.1c-5.9.6-11.8.8-17 .7 7.1 10.6 15.7 20.1 25.5 28.2 5-2.9 9.5-5.2 11.9-6.5-1.2-.8-2.2-2-2.8-3.8z"/><path fill="#7A5D25" d="M68 207.1l-12.7-12.4c-5.2 1.8-11 2.9-16.9 3.5l-1.6 6.1s14.4 0 19.2 12.5c.7 1.7 1.7 3 2.9 3.9 3 2.1 7.2 1.9 11.2 1-.6-3.9-1.1-9-2.1-14.6zm9.4 11.9c1.9-.9 3.4-1.6 4-2l-3.6-1.7c-.2 1.3-.3 2.6-.4 3.7z"/><path fill="#200E00" d="M56.5 123.5l2.8 11.5s-.3-.2-.7-.5l3.7 12.7s-.2-.1-.5-.3c1.2 2 3.6 6.2 6.3 11.6.3-.1.5-.2.5-.2 0 .4 0 .9.1 1.3.7 1.5 1.4 3.1 2.2 4.7l15.3-1.8c-5.5-12.9-20.8-55.7-20.8-55.7l-4.6 3c-1.2 2.7-2.5 5.1-3.5 6.6-.2 3.3-.6 6.2-.8 7.1zm-21.2 33.8c.1.4.3.7.4 1 0 0-.3-.5-.8-1.4l-.2-.2s-.1-.1-.1-.4c-.3-.6-.7-1.3-1.1-2.1-4 15.2-11.7 30.3-20.6 26.3 0 0 .5 2 1.4 4.1 10-6.9 21.1-12.7 30.7-17-5.2-5.7-8.5-9.1-9.7-10.3z"/><path fill="#423006" d="M78.6 188.6c10.5 15.1 26.9 23.6 37.9 27.9-.3-1.6-.3-2.7-.3-2.7 1.6 2.9 5.8 2.6 5.8 2.6-7.3-4.5-6.7-16-6.7-16 2.2 3.5 6.7 5.1 6.7 5.1s-9.4-4.4-9.4-14c0-5.2-1.3-9.4-2.4-12.1-3.7-.8-7.4-2.2-10.7-4.5l-1.9.9s-6.5-3.2-10.3-10.5c-.3-.6-.8-1.6-1.3-2.8l-15.3 1.8c3.3 7.3 6.4 15.9 7.9 24.3z"/><path fill="#8A6A2C" d="M125.7 233.3c-6.6-5.2-8.6-12.8-9.3-16.8-11-4.3-27.4-12.8-37.9-27.9.7 4.3 1 8.5.6 12.5-.6 5.9-1 10.5-1.4 14.2l3.6 1.7 33.8 16.3c1-4.3 2.6-7.6 2.6-7.6 1.4 2.8 8 7.6 8 7.6zm-87.3-35.1c5.8-.6 11.7-1.7 16.9-3.5L68 207.1c-1.6-9.1-4.5-19.3-11.1-26.5-4.7-5.1-8.6-9.4-11.8-12.9-9.6 4.4-20.7 10.1-30.7 17l-.9.6c2.4 4.7 5 9.3 7.9 13.6 5.2.1 11.1-.1 17-.7zm30.1-39.9s-.2.1-.5.2l.6 1.2c0-.5-.1-1-.1-1.4z"/><path fill="#4B3707" d="M34.8 156.7l.2.2c-.1-.2-.2-.4-.3-.5.1.2.1.3.1.3zm44.4 44.4c.4-3.9.1-8.2-.6-12.5-1.4-8.4-4.5-17-7.8-24.3-.7-1.6-1.5-3.2-2.2-4.7l-.6-1.2c-2.7-5.4-5.1-9.6-6.3-11.6-2.8-1.7-17.4-10.1-26-9.1 0 0-2.9 12.6-.4 19.6 1.2 1.2 4.4 4.7 9.7 10.4 3.2 3.4 7.1 7.7 11.8 12.9 6.6 7.3 9.5 17.5 11.1 26.5 1 5.6 1.5 10.7 2.1 14.5.6 3.7 1.2 6 2.4 6 2.9 0 3.9-1.5 4.9-8.6.1-1.1.3-2.4.4-3.7.5-3.7.9-8.3 1.5-14.2z"/><path fill="#533E0F" d="M35 156.9c.5.9.8 1.4.8 1.4-.2-.3-.3-.7-.4-1-2.5-7 .4-19.6.4-19.6 8.6-1 23.2 7.4 26 9.1.3.2.5.3.5.3l-3.7-12.7c-3.4-2.6-18.7-14.1-28-16.1 0 0-3.7 17.2-2 25.6 1.7 3.8 3.5 7.5 5 10.2.4.8.8 1.5 1.1 2.1.1.3.2.5.3.7z"/><path fill="#644C1A" d="M30.6 118.4c9.3 2 24.6 13.4 28 16.1.5.3.7.5.7.5l-2.8-11.5c0 .2-.1.3-.1.3C52 116.1 23 100.2 23 100.2c-3.5 3.8-5.5 15-5.5 15l-.3-.3c.4 12.7 11.8 30.6 11.8 30.6-.2-.5-.3-1-.4-1.5-1.7-8.4 2-25.6 2-25.6z"/><path fill="#745922" d="M23 100.2s29 16 33.5 23.6c0 0 0-.1.1-.3.2-.9.6-3.8.7-7-.7 1.2-1.2 1.9-1.2 1.9C51.8 97 28 82.3 28 82.3l2.7-14c-2.2.2-7.2.8-10.4 2.8 0 0-7.7 33.2-6.1 41.2l2.9 2.6.3.3c.1 0 2.1-11.2 5.6-15z"/><path fill="#806228" d="M56 118.4s.5-.7 1.2-1.9c.9-1.5 2.3-3.9 3.5-6.6 0 0-9.1-42.3-24.1-51.3 0 0 .8-.5 1.8-1.5-3 2-5.6 4-6.6 5.3l-1.1 5.8-2.7 14c0 .1 23.8 14.8 28 36.2z"/><path fill="#211400" d="M91.1 38.2c-1.6-3-3.9-4.6-8.2-4.5 0 0-1 2.1-2.4 5.4.8-.2 5.5-1.5 10.6-.9z"/><path fill="#C08C76" d="M118.3 169.8c1-1.3-5.7-8-5.7-8 7 4.5 15.4 2.2 15.4 2.2v-63.6s-7.4 2.9-13.2-2.6c-5.7-5.4-9.3-16.6-36.7-15l3.8 13.9c5.4 7.2 10.6 12.6 10.6 12.6l8.3 64.8-1.3.7c3.3 2.3 7 3.7 10.7 4.5-.8-1.9-1.5-2.9-1.5-2.9s8.7-5.3 9.6-6.6z"/><path fill="#402F08" d="M77.2 60.6c-1.5 0-3.1.2-4.7.5-.4 1.5-.7 3-1 4.5 1.3-1.9 3.1-3.7 5.7-5zm.9 22.3c27.5-1.6 31 9.6 36.7 15 5.7 5.4 13.2 2.6 13.2 2.6v-7s-12.9-1.3-25-10.2C91.8 75 81.7 68.6 71.7 78.1c1.7 6.2 6 13.1 10.2 18.8l-3.8-14z"/><path fill="#5F471C" d="M103 83.3c12.1 8.9 25 10.2 25 10.2v-1.6s-10.3.6-20.5-9.3c-9.1-8.8-17-21.9-30.3-22-2.6 1.3-4.4 3.1-5.6 5-.4 2.5-.7 4.9-.7 7.1 0 1.7.3 3.5.8 5.4 10-9.5 20.1-3.1 31.3 5.2z"/><path fill="#8B7247" d="M77.2 60.6c13.4 0 21.2 13.2 30.3 22 10.2 9.9 20.5 9.3 20.5 9.3V80.8s-21.8-2.7-29.1-19.6c-4.5-10.3-5.3-18.4-7.7-23-5.2-.6-9.9.7-10.7.9-2.2 5.2-5.6 13.4-7.9 21.4 0 .2-.1.4-.1.6 1.6-.3 3.2-.5 4.7-.5z"/><path fill="#89692C" d="M45.9 47.2c-.9 4-5 7.9-7.4 10-1.1.9-1.8 1.5-1.8 1.5 15 8.9 24.1 51.3 24.1 51.3l4.6-3s15.2 42.8 20.8 55.7c.5 1.2.9 2.2 1.3 2.8 3.8 7.3 10.3 10.5 10.3 10.5l-9.7-64-27.2-32.6c1.9-31.9 21.4-45 21.4-45s-6.5 13.3-9.7 26.2c2.3-8.1 5.6-16.3 7.9-21.4 1.4-3.3 2.4-5.4 2.4-5.4 4.4-.1 6.6 1.5 8.2 4.5 2.5 4.7 3.3 12.7 7.7 23 7.3 16.9 29.1 19.6 29.1 19.6V0c-28.6 0-80.8 41.4-82 47.2z"/><path fill="#4F3D16" d="M100.8 174.3l-8.3-64.8s-5.3-5.4-10.6-12.6c-4.2-5.7-8.5-12.5-10.2-18.8-.5-1.9-.8-3.7-.8-5.4 0-2.2.3-4.6.7-7.1.3-1.5.6-3 1-4.5 0-.2.1-.4.1-.6 3.2-12.9 9.7-26.2 9.7-26.2S62.9 47.4 61 79.3L88.1 112l9.6 63.9 1.9-.9 1.2-.7z"/><path fill="#221000" d="M128 228.9V164s-8.4 2.2-15.4-2.2c0 0 6.7 6.7 5.7 8s-9.6 6.7-9.6 6.7.7 1.1 1.5 2.9c1.1 2.6 2.4 6.8 2.4 12.1 0 9.7 9.4 14 9.4 14s-4.5-1.6-6.7-5.1c0 0-.6 11.5 6.7 16 0 0-4.2.3-5.8-2.6 0 0 0 1 .3 2.7.6 4 2.7 11.6 9.3 16.8 0 0-6.7-4.8-7.9-7.7 0 0-1.6 3.3-2.6 7.6-1.7 7.4-1.4 18 12.8 20.2v-24.5z"/></svg>