<svg xmlns="http://www.w3.org/2000/svg" width="256" height="256"><circle fill="#B1B3B5" cx="128" cy="128" r="128"/><path fill="#8C6C5A" d="M142.3 172.4c12.5-4.4 23.6-27.5 28.4-41.5 2.3-6.6 2.6-17.3 2.2-27.7-.1.1-.1.1-.2.1-.3.1-.7-.3-.8-.8-.1-.5.1-1 .4-1.1.2-.1.4.1.6.3v-.8c-.1-.1-.3-.3-.3-.6-.1-.4 0-.8.2-1 0-.8-.1-1.5-.1-2.2-.3 0-.7-.3-.8-.8-.1-.5.1-1 .4-1.1h.3c0-.3 0-.6-.1-1-.1-.1-.3-.3-.3-.6-.1-.4 0-.8.2-.9 0-.3 0-.6-.1-.9-.1-.1-.1-.2-.1-.4-.1-.3 0-.5.1-.7-.1-1.1-.2-2.1-.3-3.1-.1.1-.1.2-.3.2-.3.1-.7-.2-.8-.7-.1-.5.1-.9.4-1 .2 0 .4.1.5.2-.1-.7-.1-1.3-.2-1.9-.1.1-.1.2-.2.2-.3.1-.7-.2-.8-.7-.1-.5.1-.9.4-1 .2 0 .4.1.5.2-.1-1.1-.2-2.2-.3-3.2-2.5-14.1-8.3-18.2-14.1-18.6.1.1.2.1.3.2.4.3.5.8.3 1.1-.2.3-.7.2-1.1-.2-.4-.3-.5-.8-.3-1.1l.1-.1h-1c0 .1 0 .2-.1.2-.2.2-.7.2-1-.1-3.8.4-7.4 2.1-9.5 3-5.9 2.6-16.9 1.6-16.9 1.6v108.4c.1.3 2 2.5 14.4-1.9zm-12.1-8.5c-.5-.3-.6-1-.3-1.4.3-.5 1-.6 1.4-.3.5.3.6 1 .3 1.4-.3.5-.9.6-1.4.3zm7-69.3c.6 0 1 .5 1 1 0 .6-.5 1-1 1-.6 0-1-.5-1-1-.1-.5.4-1 1-1zm-.3-12c-.5.3-1.1.2-1.4-.3-.3-.5-.2-1.1.3-1.4.5-.3 1.1-.2 1.4.3.3.4.1 1-.3 1.4zm19.8 16.1c-.6 0-1-.5-1-1s.5-1 1-1 1 .5 1 1-.4 1-1 1zm1.5 1.3c.6 0 1 .5 1 1s-.5 1-1 1-1-.5-1-1 .4-1 1-1zm-1.3 3.8c0 .6-.5 1-1 1s-1-.5-1-1 .5-1 1-1 1 .5 1 1zm-.2-3.2c0 .6-.5 1-1 1s-1-.5-1-1 .5-1 1-1 1 .4 1 1zm-3.5 52c.3.1.4.6.2 1s-.6.7-.9.6c-.3-.1-.4-.6-.2-1s.6-.7.9-.6zm-.6-49.1c0-.6.5-1 1-1s1 .5 1 1-.5 1-1 1-1-.5-1-1zm0 52.1c.2-.5.6-.8.9-.6.3.1.4.6.3 1.1-.2.5-.6.8-.9.6-.4-.1-.5-.6-.3-1.1zm1.2-4.2c-.3-.1-.4-.6-.2-1s.6-.7.9-.6c.3.1.4.6.2 1-.2.5-.6.7-.9.6zm.4-53c-.6 0-1-.5-1-1s.5-1 1-1 1 .5 1 1-.4 1-1 1zm-.3 1.9c0 .6-.5 1-1 1s-1-.5-1-1 .5-1 1-1 1 .4 1 1zm-4.3 3.2c0-.6.5-1 1-1 .6 0 1 .5 1 1s-.5 1-1 1-1-.5-1-1zm.9 55c-.2.4-.6.7-.9.6-.3-.1-.4-.6-.2-1s.6-.7.9-.6c.3.1.4.6.2 1zm.3-2.5c.2-.4.6-.7.9-.6.3.1.4.6.2 1s-.6.7-.9.6c-.2-.1-.3-.5-.2-1zm.8-57.6c-.6 0-1-.5-1-1s.5-1 1-1 1 .5 1 1-.5 1-1 1zm-.6 1.9c0 .6-.5 1-1 1s-1-.5-1-1 .5-1 1-1 1 .4 1 1zm-2.4-1.9c-.6 0-1-.5-1-1s.5-1 1-1 1 .5 1 1-.4 1-1 1zm-1.7 5.6c0-.6.5-1 1-1s1 .5 1 1c0 .6-.5 1-1 1s-1-.5-1-1zm.9 58.1c-.2.4-.6.7-.9.6s-.4-.6-.2-1 .6-.7.9-.6c.2.1.4.5.2 1zm.4-61.3c0 .6-.5 1-1 1s-1-.5-1-1 .5-1 1-1 1 .4 1 1zm-2.4-1.9c-.6 0-1-.5-1-1s.5-1 1-1 1 .5 1 1-.4 1-1 1zm-.4 1.7c0 .6-.5 1-1 1s-1-.5-1-1 .5-1 1-1 1 .5 1 1zm-2.3-1.9c-.6 0-1-.5-1-1s.5-1 1-1 1 .5 1 1-.5 1-1 1zm.1 4.1c0 .6-.5 1-1 1-.6 0-1-.5-1-1s.5-1 1-1c.6 0 1 .4 1 1zm-.7-3.2c0 .6-.5 1-1 1s-1-.5-1-1 .5-1 1-1 1 .5 1 1zm-2.3-1.9c-.6 0-1-.5-1-1s.5-1 1-1 1 .5 1 1-.5 1-1 1zm-6.8 63.8c.2-.5.7-.8 1.1-.7.4.2.6.7.4 1.2s-.7.8-1.1.7c-.4-.1-.6-.7-.4-1.2zm-1.4-.4c-.5-.3-.6-1-.3-1.4.3-.5 1-.6 1.4-.3.5.3.6 1 .3 1.4-.3.5-1 .6-1.4.3zm4.4-59.5c-.6 0-1-.5-1-1s.5-1 1-1 1 .5 1 1-.4 1-1 1zm.7 58.4c-.2.5-.7.8-1.1.7-.4-.2-.6-.7-.4-1.2.2-.5.7-.8 1.1-.7.4.1.6.6.4 1.2zm-1.5-1.5c-.2.5-.7.8-1.1.7-.4-.2-.6-.7-.4-1.2s.7-.8 1.1-.7c.4.1.6.6.4 1.2zm-.7 4.5c.2-.5.7-.8 1.1-.7.4.2.6.7.4 1.2-.2.5-.7.8-1.1.7-.4-.1-.6-.7-.4-1.2zm1.5 1.3c.2-.5.6-.8.9-.6.3.1.4.6.3 1.1-.2.5-.6.8-.9.6-.4-.1-.5-.6-.3-1.1zm1.1-2.3c-.4-.2-.6-.7-.4-1.2.2-.5.7-.8 1.1-.7.4.2.6.7.4 1.2-.1.5-.6.8-1.1.7zm0-63.4c0-.6.5-1 1-1s1 .5 1 1c0 .6-.5 1-1 1s-1-.5-1-1zm1.3 63.3c.2-.5.6-.8.9-.6.3.1.4.6.3 1.1-.2.5-.6.8-.9.6s-.5-.6-.3-1.1zm.4-59.1c-.6 0-1-.5-1-1s.5-1 1-1 1 .5 1 1-.4 1-1 1zm-1.3-18.3c-.3-.5-.2-1.1.3-1.4.5-.3 1.1-.2 1.4.3.3.5.2 1.1-.3 1.4-.5.3-1.1.2-1.4-.3zm1.3-3.4c-.5.3-1.1.2-1.4-.3-.3-.5-.2-1.1.3-1.4.5-.3 1.1-.2 1.4.3.3.4.2 1.1-.3 1.4zm-2.5 16.3c0 .6-.5 1-1 1-.6 0-1-.5-1-1s.5-1 1-1c.6 0 1 .4 1 1zm-2.3-1.9c-.6 0-1-.5-1-1s.5-1 1-1 1 .5 1 1-.5 1-1 1zm-.6 60.2c.5.3.6 1 .3 1.4-.3.5-1 .6-1.4.3-.5-.3-.6-1-.3-1.4.3-.5.9-.7 1.4-.3zm-1.7-.7c-.3.5-1 .6-1.4.3-.5-.3-.6-1-.3-1.4.3-.5 1-.6 1.4-.3.5.3.7.9.3 1.4zm-.7 2.5c.5.3.6 1 .3 1.4-.3.5-1 .6-1.4.3-.5-.3-.6-1-.3-1.4.3-.5.9-.6 1.4-.3zm.5 8.1c-.4-.2-.6-.7-.4-1.2s.7-.8 1.1-.7c.4.2.6.7.4 1.2s-.7.8-1.1.7zm1.5 1.3c-.4-.2-.6-.7-.4-1.2s.7-.8 1.1-.7c.4.2.6.7.4 1.2s-.7.8-1.1.7zm1.4 1.2c-.3-.1-.4-.6-.3-1.1.2-.5.6-.8.9-.6s.4.6.3 1.1c-.1.4-.5.7-.9.6zm2.1.6c-.2.5-.6.8-.9.6s-.4-.6-.3-1.1c.2-.5.6-.8.9-.6.4.1.5.6.3 1.1zm1.6.6c-.2.5-.6.8-.9.6-.3-.1-.4-.6-.3-1.1.2-.5.6-.8.9-.6.4.1.5.6.3 1.1zm-.5-3c-.3-.1-.4-.6-.3-1.1.2-.5.6-.8.9-.6.3.1.4.6.3 1.1-.1.4-.5.7-.9.6zm2.2 3.8c-.2.5-.6.8-.9.6-.3-.1-.4-.6-.3-1.1.2-.5.6-.8.9-.6s.5.6.3 1.1zm.2-3.5c-.2.5-.6.8-.9.6-.3-.1-.4-.6-.3-1.1.2-.5.6-.8.9-.6.3.1.4.6.3 1.1zm0-2.8c-.3-.1-.4-.6-.2-1s.6-.7.9-.6c.3.1.4.6.2 1s-.6.7-.9.6zm.4 3.2c.2-.5.6-.8.9-.6.3.1.4.6.3 1.1-.2.5-.6.8-.9.6-.3-.2-.4-.7-.3-1.1zm1.3 2.9c-.2.5-.6.8-.9.6-.3-.1-.4-.6-.3-1.1.2-.5.6-.8.9-.6.4.2.5.7.3 1.1zm-.1-5.4c-.3-.1-.4-.6-.2-1s.6-.7.9-.6c.3.1.4.6.2 1s-.6.7-.9.6zm.8 2.3c.2-.5.6-.8.9-.6.3.1.4.6.3 1.1-.2.5-.6.8-.9.6s-.5-.6-.3-1.1zm1.5 2.9c-.2.5-.6.8-.9.6-.3-.1-.4-.6-.3-1.1.2-.5.6-.8.9-.6.3.1.4.6.3 1.1zm0-5.7c-.2.4-.6.7-.9.6-.3-.1-.4-.6-.2-1s.6-.7.9-.6c.3 0 .4.5.2 1zm-.2-60.2c0-.6.5-1 1-1s1 .5 1 1-.5 1-1 1-1-.4-1-1zm.7 61.7c.2-.5.6-.8.9-.6.3.1.4.6.3 1.1s-.6.8-.9.6-.5-.6-.3-1.1zm1.2 2.7c-.2.5-.6.8-.9.6-.3-.1-.4-.6-.3-1.1.2-.5.6-.8.9-.6s.5.7.3 1.1zm.1-4.7c-.2.4-.6.7-.9.6-.3-.1-.4-.6-.2-1s.6-.7.9-.6c.2.1.3.6.2 1zm.4.6c.2-.5.6-.8.9-.6.3.1.4.6.3 1.1-.2.5-.6.8-.9.6-.4-.1-.5-.6-.3-1.1zm1.3 2.6c-.2.5-.6.8-.9.6s-.4-.6-.3-1.1c.2-.5.6-.8.9-.6.4.2.5.7.3 1.1zm.1-6.9c.2-.4.6-.7.9-.6.3.1.4.6.2 1s-.6.7-.9.6-.4-.5-.2-1zm.3 2.4c.2-.5.6-.8.9-.6.3.1.4.6.3 1.1-.2.5-.6.8-.9.6s-.5-.7-.3-1.1zm1.2 2.7c-.2.5-.6.8-.9.6-.3-.1-.4-.6-.3-1.1.2-.5.6-.8.9-.6s.5.6.3 1.1zm0-4.6c.2-.5.6-.8.9-.6s.4.6.3 1.1c-.2.5-.6.8-.9.6-.3-.1-.5-.6-.3-1.1zm1.6 2.9c-.2.5-.6.8-.9.6-.3-.1-.4-.6-.3-1.1.2-.5.6-.8.9-.6s.5.6.3 1.1zm-.1-5.1c.2-.5.6-.8.9-.6s.4.6.3 1.1-.6.8-.9.6-.5-.6-.3-1.1zm1.6 2.8c-.2.5-.6.8-.9.6s-.4-.6-.3-1.1c.2-.5.6-.8.9-.6.4.2.5.6.3 1.1zm1.4-2.2c-.2.5-.6.8-.9.6s-.4-.6-.3-1.1c.2-.5.6-.8.9-.6.3.1.4.6.3 1.1zm1.2-2.7c-.2.5-.6.8-.8.7-.3-.1-.3-.6-.2-1.1.2-.5.6-.8.8-.7.3.2.4.7.2 1.1zm.2-2.7c-.2.5-.6.8-.9.6-.3-.1-.4-.6-.3-1.1.2-.5.6-.8.9-.6.3.2.4.7.3 1.1zm1.1.4c-.2.5-.5.8-.7.7-.2-.1-.3-.5-.1-1 .2-.5.5-.8.7-.7.3 0 .3.5.1 1zm.2-3c-.2.5-.6.8-.9.6s-.4-.6-.3-1.1c.2-.5.6-.8.9-.6s.5.6.3 1.1zm1 .7c-.2.5-.5.8-.7.7s-.3-.5-.1-1c.2-.5.5-.8.7-.7.3.1.3.5.1 1zm.7-46.1c-.6 0-1-.5-1-1s.5-1 1-1 1 .5 1 1-.4 1-1 1zm.9-6.3c-.4.1-.9-.3-1-.8s.1-1.1.6-1.2c.4-.1.9.3 1 .8s-.2 1.1-.6 1.2zm1.5 6.8c-.4.1-.9-.3-1-.8-.1-.5.1-1.1.6-1.2.4-.1.9.3 1 .8.1.6-.2 1.1-.6 1.2zm0-3.4c-.4.1-.9-.3-1-.8-.1-.5.1-1.1.6-1.2.4-.1.9.3 1 .8.1.6-.2 1.1-.6 1.2zm-.5-3.8c-.1-.5.1-1.1.6-1.2.4-.1.9.3 1 .8.1.5-.1 1.1-.6 1.2-.4.1-.8-.2-1-.8zm2.4 7.5c-.4.1-.9-.3-1-.8-.1-.5.1-1.1.6-1.2.4-.1.9.3 1 .8.1.5-.2 1.1-.6 1.2zm.1-3.3c-.4.1-.9-.3-1-.8-.1-.5.1-1.1.6-1.2.4-.1.9.3 1 .8.1.6-.2 1.1-.6 1.2zm.6-3.1c-.4.1-.9-.3-1-.8-.1-.5.1-1.1.6-1.2.4-.1.9.3 1 .8.1.5-.2 1.1-.6 1.2zm1.2 6.5c-.3.1-.7-.3-.8-.8-.1-.5.1-1 .4-1.1.3-.1.7.3.8.8s-.1 1.1-.4 1.1zm0-3.2c-.3.1-.7-.3-.8-.8-.1-.5.1-1 .4-1.1.3-.1.7.3.8.8s-.1 1-.4 1.1zm-.2-4.1c-.1-.5.1-1 .4-1.1.3-.1.7.3.8.8.1.5-.1 1-.4 1.1-.3 0-.7-.3-.8-.8zm1.8 7.7c-.3.1-.7-.3-.8-.8s.1-1 .4-1.1c.3-.1.7.3.8.8s0 1-.4 1.1zm0-3.6c-.3.1-.7-.3-.8-.8s.1-1 .4-1.1c.3-.1.7.3.8.8s0 1-.4 1.1zm.6-3.4c-.3.1-.7-.2-.8-.7s.1-.9.4-1c.3-.1.7.2.8.7s-.1.9-.4 1zm1.1 6.6c-.3.1-.7-.3-.8-.8s.1-1 .4-1.1c.3-.1.7.3.8.8s0 1.1-.4 1.1zm1.9-.2c-.3.1-.7-.3-.8-.8-.1-.5.1-1 .4-1.1.3-.1.7.3.8.8s-.1 1-.4 1.1zm0-3.3c-.3.1-.7-.3-.8-.8-.1-.5.1-1 .4-1.1s.7.3.8.8-.1 1-.4 1.1zm1.5 2c-.3.1-.7-.3-.8-.8s.1-1 .4-1.1c.3-.1.7.3.8.8s-.1 1.1-.4 1.1zm0-3.2c-.3.1-.7-.3-.8-.8-.1-.5.1-1 .4-1.1.3-.1.7.3.8.8s-.1 1-.4 1.1zm1.3-3.3c.1.5-.1 1-.4 1.1-.3.1-.7-.3-.8-.8s.1-1 .4-1.1c.3 0 .7.3.8.8zm-1.8-3.9c-.1-.5.1-.9.4-1 .3-.1.7.2.8.7.1.5-.1.9-.4 1-.3.1-.7-.2-.8-.7zm.7-5.4c.3-.1.7.2.8.7.1.5-.1.9-.4 1-.3.1-.7-.2-.8-.7-.1-.5 0-1 .4-1zm-.3 2.2c.3-.1.7.2.8.7.1.5-.1.9-.4 1-.3.1-.7-.2-.8-.7-.1-.5.1-.9.4-1zm-.6-11c.3-.1.7.2.8.7.1.5-.1.9-.4 1-.3.1-.7-.2-.8-.7-.1-.5 0-.9.4-1zm0 15.4c.3-.1.7.2.8.7.1.5-.1.9-.4 1-.3.1-.7-.2-.8-.7-.1-.5 0-.9.4-1zm-1.3 1.3c.3-.1.7.2.8.7.1.5-.1.9-.4 1-.3.1-.7-.2-.8-.7 0-.5.1-.9.4-1zm-1.2.7c.3-.1.7.2.8.7s-.1.9-.4 1c-.3.1-.7-.2-.8-.7s.1-.9.4-1zm.2 4.4c.1.5-.1 1-.4 1.1-.3.1-.7-.3-.8-.8s.1-1 .4-1.1c.3 0 .7.3.8.8zm-1-11.4c-.5.5-3.7-.6-5.4-1.6-1.8-1-7.3-1.1-10.1-1-2.7.2-7.3 2.6-8.9 2.6s-3.7-3.2-3.7-3.2c.2-3.5 4.9-2.2 10.4-3.5 5.4-1.3 7.3 0 7.3 0h-2.7s6.7 1.9 9.1 2.7 4.5 3.5 4 4zm-24.7-10.9c.5-.3 1.1-.2 1.4.3.3.5.2 1.1-.3 1.4-.5.3-1.1.2-1.4-.3-.3-.4-.2-1 .3-1.4zm0-3.8c.5-.3 1.1-.2 1.4.3.3.5.2 1.1-.3 1.4-.5.3-1.1.2-1.4-.3-.3-.5-.1-1.1.3-1.4zm-.9 7.5c-.5.3-1.1.2-1.4-.3-.3-.5-.2-1.1.3-1.4.5-.3 1.1-.2 1.4.3.3.4.2 1.1-.3 1.4zm3.3-5.3c.5-.3 1.1-.2 1.4.3.3.5.2 1.1-.3 1.4-.5.3-1.1.2-1.4-.3s-.1-1.1.3-1.4zm.1-3.6c.5-.3 1.1-.2 1.4.3.3.5.2 1.1-.3 1.4-.5.3-1.1.2-1.4-.3-.3-.4-.2-1.1.3-1.4zm4.3 1.6c.5-.3 1.1-.2 1.4.3s.2 1.1-.3 1.4c-.5.3-1.1.2-1.4-.3-.3-.4-.2-1.1.3-1.4zm-.1-3.4c.3-.3.9-.3 1.3.1s.5 1 .2 1.3c-.3.3-.9.3-1.3-.1s-.5-1-.2-1.3zm-.7 2.5c-.5.3-1.1.2-1.4-.3-.3-.5-.2-1.1.3-1.4.5-.3 1.1-.2 1.4.3.3.4.2 1-.3 1.4zM147 77c.5-.3 1.1-.2 1.4.3.3.5.2 1.1-.3 1.4-.5.3-1.1.2-1.4-.3s-.1-1.1.3-1.4zm12.9-6.3c.4.3.5.8.3 1.1-.2.3-.7.2-1.1-.2-.4-.3-.5-.8-.3-1.1.2-.2.7-.1 1.1.2zm-.6-2c.2-.3.7-.2 1.1.2s.5.8.3 1.1c-.2.3-.7.2-1.1-.2-.4-.4-.5-.9-.3-1.1zm-.5-1.5c-.2.3-.7.2-1.1-.2-.4-.3-.5-.8-.3-1.1.2-.3.7-.2 1.1.2.5.4.6.9.3 1.1zm0 5.8c-.2.3-.7.2-1.1-.2s-.5-.8-.3-1.1c.2-.3.7-.2 1.1.2s.5.9.3 1.1zm-1.5.2c.4.3.5.8.3 1.1-.2.3-.7.2-1.1-.2-.4-.3-.5-.8-.3-1.1.3-.2.8-.1 1.1.2zm-1.3 1.7c-.2.3-.7.2-1.1-.2s-.5-.8-.3-1.1c.2-.3.7-.2 1.1.2s.6.9.3 1.1zm-3.1-.4c.3-.3.9-.3 1.3.1s.5 1 .2 1.3c-.3.3-.9.3-1.3-.1-.5-.4-.5-1-.2-1.3zm-.3 2.2c-.3.3-.9.3-1.3-.1s-.5-1-.2-1.3c.3-.3.9-.3 1.3.1s.5 1 .2 1.3zm2.9-5.4c-.2.3-.7.2-1.1-.2-.4-.3-.5-.8-.3-1.1.2-.3.7-.2 1.1.2.5.4.6.9.3 1.1zm-1.3 1c-.2.3-.7.2-1.1-.2-.4-.3-.5-.8-.3-1.1.2-.3.7-.2 1.1.2.4.3.5.8.3 1.1zm-1.6.8c-.3.3-.9.3-1.3-.1s-.5-1-.2-1.3c.3-.3.9-.3 1.3.1s.5 1 .2 1.3zm8.6-5.2c-.2.3-.7.2-1.1-.2s-.5-.8-.3-1.1c.2-.3.7-.2 1.1.2s.5.8.3 1.1zm-.7-2.2c-.2.3-.7.2-1.1-.2-.4-.3-.5-.8-.3-1.1.2-.3.7-.2 1.1.2.4.4.6.9.3 1.1zm-2.1-3.5c.2-.3.7-.2 1.1.2.4.3.5.8.3 1.1-.2.3-.7.2-1.1-.2-.4-.3-.5-.8-.3-1.1zm-1.4 1.4c.2-.3.7-.2 1.1.2.4.3.5.8.3 1.1-.2.3-.7.2-1.1-.2-.4-.3-.6-.8-.3-1.1zm-.1 4.3c.2-.3.7-.2 1.1.2s.5.8.3 1.1c-.2.3-.7.2-1.1-.2-.4-.4-.5-.9-.3-1.1zm-.2 1.4c.4.3.5.8.3 1.1-.2.3-.7.2-1.1-.2-.4-.3-.5-.8-.3-1.1.2-.2.7-.2 1.1.2zm-1.8-6.6c.2-.2.7-.2 1 .1.4.3.5.8.2 1-.2.2-.7.2-1-.1-.3-.3-.5-.8-.2-1zm-.3 1.8c.2-.2.7-.2 1 .1.4.3.5.8.2 1-.2.2-.7.2-1-.1s-.4-.8-.2-1zm-.6 1.3c.2-.2.7-.2 1 .1.4.3.5.8.2 1-.2.2-.7.2-1-.1-.3-.3-.4-.8-.2-1zm-1.2 1.2c.2-.2.7-.2 1 .1.4.3.5.8.2 1-.2.2-.7.2-1-.1-.3-.3-.4-.8-.2-1zm-1.3.9c.2-.3.7-.2 1.1.2.4.3.5.8.3 1.1-.2.3-.7.2-1.1-.2s-.6-.8-.3-1.1zm-1.7.9c.3-.3.9-.3 1.3.1s.5 1 .2 1.3c-.3.3-.9.3-1.3-.1-.4-.3-.5-.9-.2-1.3zm-1.8 1c.3-.3.9-.3 1.3.1s.5 1 .2 1.3c-.3.3-.9.3-1.3-.1s-.5-1-.2-1.3zm-2 .8c.3-.3.9-.3 1.3.1s.5 1 .2 1.3c-.3.3-.9.3-1.3-.1s-.5-.9-.2-1.3zm-1.8.8c.5-.3 1.1-.2 1.4.3.3.5.2 1.1-.3 1.4-.5.3-1.1.2-1.4-.3-.3-.4-.2-1.1.3-1.4zm-2.3 1.2c.5-.3 1.1-.2 1.4.3.3.5.2 1.1-.3 1.4-.5.3-1.1.2-1.4-.3s-.1-1.1.3-1.4zm-.7 6.5c-.5.3-1.1.2-1.4-.3s-.2-1.1.3-1.4c.5-.3 1.1-.2 1.4.3.3.4.2 1.1-.3 1.4zm-1.4-5c.5-.3 1.1-.2 1.4.3s.2 1.1-.3 1.4c-.5.3-1.1.2-1.4-.3-.3-.5-.2-1.1.3-1.4zm-2.5 1.6c.5-.3 1.1-.2 1.4.3.3.5.2 1.1-.3 1.4-.5.3-1.1.2-1.4-.3-.2-.4-.1-1 .3-1.4zm-2 2c.5-.3 1.1-.2 1.4.3s.2 1.1-.3 1.4c-.5.3-1.1.2-1.4-.3-.3-.4-.1-1.1.3-1.4zm-.2 6.2c.5-.3 1.1-.2 1.4.3.3.5.2 1.1-.3 1.4s-1.1.2-1.4-.3c-.2-.5-.1-1.1.3-1.4zm-2.1-4.7c.5-.3 1.1-.2 1.4.3.3.5.2 1.1-.3 1.4-.5.3-1.1.2-1.4-.3-.3-.4-.2-1.1.3-1.4zm-.3 2.5c.5-.3 1.1-.2 1.4.3.3.5.2 1.1-.3 1.4-.5.3-1.1.2-1.4-.3s-.1-1.1.3-1.4zm-.6 3c.5-.3 1.1-.2 1.4.3.3.5.2 1.1-.3 1.4-.5.3-1.1.2-1.4-.3-.3-.4-.2-1.1.3-1.4zM130 80c.5-.3 1.1-.2 1.4.3.3.5.2 1.1-.3 1.4-.5.3-1.1.2-1.4-.3-.3-.4-.2-1.1.3-1.4zm-.3 2.5c.5-.3 1.1-.2 1.4.3.3.5.2 1.1-.3 1.4-.5.3-1.1.2-1.4-.3-.3-.4-.2-1.1.3-1.4zm-.6 2.8c.5-.3 1.1-.2 1.4.3.3.5.2 1.1-.3 1.4-.5.3-1.1.2-1.4-.3-.2-.4-.1-1 .3-1.4zm-.4 66.7c.3-.5 1-.6 1.4-.3.5.3.6 1 .3 1.4-.3.5-1 .6-1.4.3-.5-.3-.7-.9-.3-1.4zm0 3.7c.3-.5 1-.6 1.4-.3.5.3.6 1 .3 1.4-.3.5-1 .6-1.4.3-.5-.3-.7-.9-.3-1.4zm-.1 4.3c.3-.5 1-.6 1.4-.3.5.3.6 1 .3 1.4-.3.5-1 .6-1.4.3-.5-.3-.6-.9-.3-1.4z"/><path fill="#5A382A" d="M156.9 83.8s-1.9-1.3-7.3 0-10.2 0-10.4 3.5c0 0 2.1 3.2 3.7 3.2s6.2-2.4 8.9-2.6c2.7-.2 8.3 0 10.1 1 1.8 1 4.9 2.1 5.4 1.6s-1.6-3.2-4-4-9.1-2.7-9.1-2.7h2.7z"/><path fill="#FFDB9A" d="M151.6 96.3c-.6 0-1 .5-1 1s.5 1 1 1 1-.5 1-1-.5-1-1-1zm2.6 0c-.6 0-1 .5-1 1s.5 1 1 1 1-.5 1-1-.4-1-1-1zm2.5.3c-.6 0-1 .5-1 1s.5 1 1 1 1-.5 1-1-.4-1-1-1zm3 1.2c-.1-.5-.6-.9-1-.8-.4.1-.7.6-.6 1.2s.6.9 1 .8c.5-.1.8-.6.6-1.2zm2.1.4c-.1-.5-.6-.9-1-.8-.4.1-.7.6-.6 1.2.1.5.6.9 1 .8.5-.1.8-.6.6-1.2zm-1.6 2.2c-.4.1-.7.6-.6 1.2.1.5.6.9 1 .8.4-.1.7-.6.6-1.2-.1-.5-.6-.9-1-.8zm0 3.4c-.4.1-.7.6-.6 1.2.1.5.6.9 1 .8.4-.1.7-.6.6-1.2-.1-.5-.6-.9-1-.8zm1.9.3c-.4.1-.7.6-.6 1.2.1.5.6.9 1 .8.4-.1.7-.6.6-1.2-.1-.6-.5-.9-1-.8zm.1-3.3c-.4.1-.7.6-.6 1.2.1.5.6.9 1 .8.4-.1.7-.6.6-1.2-.1-.5-.5-.9-1-.8zm1.7-2.3c-.1-.5-.6-.9-1-.8-.4.1-.7.6-.6 1.2.1.5.6.9 1 .8.4-.1.7-.7.6-1.2zm1.6.1c-.1-.5-.5-.8-.8-.8-.3.1-.5.6-.4 1.1.1.5.5.8.8.8.4-.1.6-.6.4-1.1zm-1.4 2.6c-.3.1-.5.6-.4 1.1.1.5.5.8.8.8.3-.1.5-.6.4-1.1s-.5-.9-.8-.8zm0 3.2c-.3.1-.5.6-.4 1.1.1.5.5.8.8.8.3-.1.5-.6.4-1.1s-.5-.9-.8-.8zm1.6.4c-.3.1-.5.6-.4 1.1s.5.8.8.8c.3-.1.5-.6.4-1.1s-.5-.9-.8-.8zm1.7-.4c-.3.1-.5.6-.4 1.1s.5.8.8.8c.3-.1.5-.6.4-1.1s-.5-.9-.8-.8zm1.8-.2c-.3.1-.5.6-.4 1.1.1.5.5.8.8.8.3-.1.5-.6.4-1.1s-.4-.9-.8-.8zm1.5-1.3c-.3.1-.5.6-.4 1.1s.5.8.8.8.5-.6.4-1.1-.4-.8-.8-.8zm1.6-1.4c-.3.1-.5.6-.4 1.1.1.5.5.8.8.8.1 0 .2-.1.2-.1 0-.5 0-.9-.1-1.4 0-.3-.3-.4-.5-.4zm.3-1.1l.3.6c0-.5 0-1-.1-1.5-.2.1-.3.5-.2.9zm-6.9.8c-.3.1-.5.6-.4 1.1s.5.8.8.8c.3-.1.5-.6.4-1.1s-.5-.9-.8-.8zm1.3 1c.1.5.5.8.8.8.3-.1.5-.6.4-1.1s-.5-.8-.8-.8c-.3.2-.5.6-.4 1.1zm2.2-1.3c-.3.1-.5.6-.4 1.1.1.5.5.8.8.8.3-.1.5-.6.4-1.1s-.4-.9-.8-.8zm1.5-1.2c-.3.1-.5.6-.4 1.1.1.5.5.8.8.8s.5-.6.4-1.1-.4-.9-.8-.8zm.6-1.2c.1.5.5.8.8.8.3-.1.5-.6.4-1.1-.1-.5-.5-.8-.8-.8-.4.1-.5.6-.4 1.1zm.6-2c.1.5.5.8.8.8 0-.6-.1-1.2-.1-1.8h-.3c-.3 0-.5.5-.4 1zm.3-2.6l.3.6c0-.5-.1-1-.1-1.5-.2.1-.3.5-.2.9zm0-2.3c0 .1.1.3.1.4 0-.4-.1-.7-.1-1.1 0 .2-.1.5 0 .7zm-5.1 7c-.1-.5-.5-.8-.8-.7-.3.1-.5.5-.4 1s.5.8.8.7c.3-.1.5-.6.4-1zm1.3.6c.3-.1.5-.5.4-1s-.5-.8-.8-.7c-.3.1-.5.5-.4 1s.5.8.8.7zm1.2-.7c.3-.1.5-.5.4-1-.1-.5-.5-.8-.8-.7-.3.1-.5.5-.4 1 .2.5.5.8.8.7zm1.3-1.3c.3-.1.5-.5.4-1-.1-.5-.5-.8-.8-.7-.3.1-.5.5-.4 1 .1.4.4.7.8.7zm1-3.2c-.1-.5-.5-.8-.8-.7-.3.1-.5.5-.4 1 .1.5.5.8.8.7.3-.1.5-.5.4-1zm-1.2-1.9c.1.5.5.8.8.7.3-.1.5-.5.4-1-.1-.5-.5-.8-.8-.7-.3.1-.5.5-.4 1zm1.1-1.5c.3-.1.5-.5.4-1-.1-.5-.5-.8-.8-.7-.3.1-.5.5-.4 1 .1.4.4.7.8.7zm-.4-4.3c-.3.1-.5.5-.4 1 .1.5.5.8.8.7.1 0 .2-.1.3-.2 0-.4-.1-.8-.1-1.3-.3-.1-.5-.2-.6-.2zm-.3-3.2c-.3.1-.5.5-.4 1 .1.5.5.8.8.7.1 0 .2-.1.2-.2 0-.4-.1-.9-.1-1.3-.2-.1-.3-.2-.5-.2zm-.2-1.3c.3-.1.5-.5.4-1-.1-.5-.5-.8-.8-.7-.3.1-.5.5-.4 1 .1.5.4.8.8.7zm-19 18.5c0 .6.5 1 1 1s1-.5 1-1-.5-1-1-1-1 .4-1 1zm2.8.3c0 .6.5 1 1 1s1-.5 1-1-.5-1-1-1-1 .4-1 1zm3.5 1.5c.6 0 1-.5 1-1s-.5-1-1-1-1 .5-1 1 .4 1 1 1zm-3.6 1.4c0-.6-.5-1-1-1s-1 .5-1 1 .5 1 1 1 1-.5 1-1zm-6-7.2c-.6 0-1 .5-1 1s.5 1 1 1 1-.5 1-1-.4-1-1-1z"/><circle fill="#FFDB9A" cx="149.9" cy="100.3" r="1"/><path fill="#FFDB9A" d="M151.7 103.5c0-.6-.5-1-1-1-.6 0-1 .5-1 1s.5 1 1 1 1-.5 1-1zm-5.9-6.7c-.6 0-1 .5-1 1s.5 1 1 1 1-.5 1-1-.4-1-1-1zm.3 4c0 .6.5 1 1 1s1-.5 1-1-.5-1-1-1-1 .4-1 1zm2.8 3.2c0-.6-.5-1-1-1s-1 .5-1 1c0 .6.5 1 1 1s1-.5 1-1zm-5.8-7.3c-.6 0-1 .5-1 1s.5 1 1 1 1-.5 1-1-.5-1-1-1zm.3 3.9c0 .6.5 1 1 1s1-.5 1-1-.5-1-1-1-1 .5-1 1zm2.7 3.2c0-.6-.5-1-1-1s-1 .5-1 1 .5 1 1 1 1-.4 1-1zm-5.9-8.1c-.6 0-1 .5-1 1s.5 1 1 1 1-.5 1-1-.5-1-1-1zm.2 3.9c0 .6.5 1 1 1s1-.5 1-1-.5-1-1-1-1 .5-1 1zm1.8 2.2c-.6 0-1 .5-1 1s.5 1 1 1c.6 0 1-.5 1-1s-.4-1-1-1zm-6.1-6.2c0 .6.5 1 1 1 .6 0 1-.5 1-1 0-.6-.5-1-1-1s-1 .5-1 1zm3.4 3c0-.6-.5-1-1-1s-1 .5-1 1c0 .6.5 1 1 1s1-.5 1-1zm-.3 2.1c-.6 0-1 .5-1 1s.5 1 1 1 1-.5 1-1-.4-1-1-1zm-4.8-7.3c-.6 0-1 .5-1 1s.5 1 1 1 1-.5 1-1-.5-1-1-1zm.3 4c0 .6.5 1 1 1 .6 0 1-.5 1-1s-.5-1-1-1c-.6 0-1 .4-1 1zm1.7 2.2c-.6 0-1 .5-1 1s.5 1 1 1 1-.5 1-1-.4-1-1-1zm19.5 3.2c-.6 0-1 .5-1 1s.5 1 1 1 1-.5 1-1-.4-1-1-1zm2.4.5c-.6 0-1 .5-1 1s.5 1 1 1 1-.5 1-1-.4-1-1-1zm-17.4-27.5c.5-.3.6-1 .3-1.4s-1-.6-1.4-.3c-.5.3-.6 1-.3 1.4.3.5 1 .6 1.4.3zm2.2-1.5c.5-.3.6-1 .3-1.4-.3-.5-1-.6-1.4-.3-.5.3-.6 1-.3 1.4s.9.6 1.4.3zm2.2-1.2c.5-.3.6-1 .3-1.4-.3-.5-1-.6-1.4-.3-.5.3-.6 1-.3 1.4.3.5 1 .6 1.4.3zm2.3-1.1c.3-.3.2-.9-.2-1.3s-1-.4-1.3-.1-.2.9.2 1.3.9.5 1.3.1zm1.9-.9c.3-.3.2-.9-.2-1.3s-1-.4-1.3-.1c-.3.3-.2.9.2 1.3.4.5 1 .5 1.3.1zm1.2 2.8c.3-.3.2-.9-.2-1.3s-1-.4-1.3-.1c-.3.3-.2.9.2 1.3.4.5 1 .5 1.3.1zm.4 1.5c-.3.3-.2.9.2 1.3s1 .4 1.3.1c.3-.3.2-.9-.2-1.3s-1-.5-1.3-.1zm3.3.5c.3-.3.2-.9-.2-1.3s-1-.4-1.3-.1c-.3.3-.2.9.2 1.3s1 .4 1.3.1zm-3.3-4.2c-.3.3-.2.9.2 1.3s1 .4 1.3.1.2-.9-.2-1.3-1-.4-1.3-.1zm.2-1.5c.3-.3.2-.9-.2-1.3s-1-.4-1.3-.1c-.3.3-.2.9.2 1.3s1 .4 1.3.1zm1.5-1.1c.2-.3.1-.8-.3-1.1-.4-.3-.9-.4-1.1-.2-.2.3-.1.8.3 1.1s.9.5 1.1.2zm0 1.9c-.2.3-.1.8.3 1.1.4.3.9.4 1.1.2.2-.3.1-.8-.3-1.1-.4-.4-.9-.5-1.1-.2z"/><ellipse transform="rotate(-47.78 155.338 74.307)" fill="#FFDB9A" cx="155.3" cy="74.3" rx=".6" ry=".9"/><path fill="#FFDB9A" d="M156.2 73.1c-.2.3-.1.8.3 1.1.4.3.9.4 1.1.2.2-.3.1-.8-.3-1.1-.3-.4-.8-.5-1.1-.2z"/><ellipse transform="rotate(-47.78 158.088 72.416)" fill="#FFDB9A" cx="158.1" cy="72.4" rx=".6" ry=".9"/><path fill="#FFDB9A" d="M159 71.6c.4.3.9.4 1.1.2.2-.3.1-.8-.3-1.1-.4-.3-.9-.4-1.1-.2-.2.3 0 .8.3 1.1zm1.7-1.7c.2-.3.1-.8-.3-1.1s-.9-.4-1.1-.2c-.2.3-.1.8.3 1.1.4.4.9.5 1.1.2z"/><ellipse transform="rotate(-47.78 160.51 67.223)" fill="#FFDB9A" cx="160.5" cy="67.2" rx=".6" ry=".9"/><path fill="#FFDB9A" d="M159.1 64.5c-.2.3-.1.8.3 1.1.4.3.9.4 1.1.2.2-.3.1-.8-.3-1.1-.3-.4-.8-.5-1.1-.2zm.7-1c.2-.3.1-.8-.3-1.1-.4-.3-.9-.4-1.1-.2-.2.3-.1.8.3 1.1.4.4.9.4 1.1.2zm-5.6 6.6c-.2.3-.1.8.3 1.1.4.3.9.4 1.1.2.2-.3.1-.8-.3-1.1-.4-.4-.9-.5-1.1-.2zm1.4-1c-.2.3-.1.8.3 1.1.4.3.9.4 1.1.2.2-.3.1-.8-.3-1.1-.4-.4-.9-.4-1.1-.2zm2.7 0c.2-.3.1-.8-.3-1.1s-.9-.4-1.1-.2c-.2.3-.1.8.3 1.1.4.4.9.5 1.1.2zm-.8-3.1c-.2.3-.1.8.3 1.1.4.3.9.4 1.1.2.2-.3.1-.8-.3-1.1-.4-.4-.9-.5-1.1-.2zm.9-1.1c.2-.3.1-.8-.3-1.1-.4-.3-.9-.4-1.1-.2-.2.3-.1.8.3 1.1.3.4.8.4 1.1.2zm-1.9-3.4s-.1 0-.1.1c-.2.3-.1.8.3 1.1.4.3.9.4 1.1.2.2-.3.1-.8-.3-1.1-.1-.1-.2-.1-.3-.2-.2-.1-.5-.1-.7-.1zm-2.4 6.7c.2-.2.1-.7-.2-1-.4-.3-.8-.4-1-.1-.2.2-.1.7.2 1 .3.2.8.3 1 .1zm1.2-1.3c.2-.2.1-.7-.2-1-.4-.3-.8-.4-1-.1-.2.2-.1.7.2 1 .3.3.8.4 1 .1zm.6-1.3c.2-.2.1-.7-.2-1-.4-.3-.8-.4-1-.1-.2.2-.1.7.2 1s.8.4 1 .1zm.3-1.8c.2-.2.1-.7-.2-1-.4-.3-.8-.4-1-.1-.2.2-.1.7.2 1 .3.3.7.4 1 .1zm-.8-2.1c.1-.1.1-.1.1-.2-.4 0-.7 0-1.1.1.4.3.8.4 1 .1zm-11.7 15.7c.5-.3.6-1 .3-1.4-.3-.5-1-.6-1.4-.3-.5.3-.6 1-.3 1.4.3.5.9.7 1.4.3zm2.5-1.3c.5-.3.6-1 .3-1.4-.3-.5-1-.6-1.4-.3-.5.3-.6 1-.3 1.4.3.5.9.6 1.4.3zm1.1-2.7c-.5.3-.6 1-.3 1.4.3.5 1 .6 1.4.3.5-.3.6-1 .3-1.4-.3-.5-.9-.6-1.4-.3zm-2.6 6c.3.5 1 .6 1.4.3.5-.3.6-1 .3-1.4-.3-.5-1-.6-1.4-.3-.5.3-.7.9-.3 1.4zm-6.2-2c.5-.3.6-1 .3-1.4-.3-.5-1-.6-1.4-.3-.5.3-.6 1-.3 1.4.3.5.9.6 1.4.3zm1.6 0c-.5.3-.6 1-.3 1.4s1 .6 1.4.3c.5-.3.6-1 .3-1.4-.3-.5-.9-.6-1.4-.3zm2.1 3.7c.3.5 1 .6 1.4.3.5-.3.6-1 .3-1.4-.3-.5-1-.6-1.4-.3s-.6.9-.3 1.4zm-5.7-1.7c.5-.3.6-1 .3-1.4s-1-.6-1.4-.3c-.5.3-.6 1-.3 1.4.3.5.9.6 1.4.3zm1.6 0c-.5.3-.6 1-.3 1.4.3.5 1 .6 1.4.3.5-.3.6-1 .3-1.4-.3-.5-1-.6-1.4-.3zm2.4 2.2c-.5.3-.6 1-.3 1.4.3.5 1 .6 1.4.3.5-.3.6-1 .3-1.4-.3-.5-.9-.6-1.4-.3zm-6.4-.7c.5-.3.6-1 .3-1.4-.3-.5-1-.6-1.4-.3-.5.3-.6 1-.3 1.4.3.5 1 .6 1.4.3zm3 .2c-.3-.5-1-.6-1.4-.3-.5.3-.6 1-.3 1.4.3.5 1 .6 1.4.3.5-.3.7-.9.3-1.4zm2.4 2.2c-.3-.5-1-.6-1.4-.3-.5.3-.6 1-.3 1.4.3.5 1 .6 1.4.3.6-.2.7-.9.3-1.4zm-8.4-1.6c.5-.3.6-1 .3-1.4-.3-.5-1-.6-1.4-.3-.5.3-.6 1-.3 1.4.3.5 1 .6 1.4.3zm2.8 1.7c.5-.3.6-1 .3-1.4-.3-.5-1-.6-1.4-.3-.5.3-.6 1-.3 1.4s.9.6 1.4.3zm2.4 2.2c.5-.3.6-1 .3-1.4-.3-.5-1-.6-1.4-.3-.5.3-.6 1-.3 1.4.3.5.9.6 1.4.3zm-5.5-1.4c.5-.3.6-1 .3-1.4-.3-.5-1-.6-1.4-.3-.5.3-.6 1-.3 1.4.3.5 1 .6 1.4.3zm2.4 2.2c.5-.3.6-1 .3-1.4-.3-.5-1-.6-1.4-.3s-.6 1-.3 1.4c.3.5 1 .6 1.4.3zm-2.9.6c.5-.3.6-1 .3-1.4-.3-.5-1-.6-1.4-.3-.5.3-.6 1-.3 1.4.3.5.9.6 1.4.3zm16.5-8.6c.3.5 1 .6 1.4.3.5-.3.6-1 .3-1.4-.3-.5-1-.6-1.4-.3-.5.3-.6.9-.3 1.4zm2.2-1c.3.5 1 .6 1.4.3.5-.3.6-1 .3-1.4s-1-.6-1.4-.3c-.5.3-.6 1-.3 1.4zm-18.7 75.7c.3-.5.2-1.1-.3-1.4-.5-.3-1.1-.2-1.4.3-.3.5-.2 1.1.3 1.4.5.3 1.1.2 1.4-.3zm.1.7c-.3.5-.2 1.1.3 1.4.5.3 1.1.2 1.4-.3.3-.5.2-1.1-.3-1.4-.4-.2-1-.1-1.4.3zm2 2.1c-.3.5-.2 1.1.3 1.4.5.3 1.1.2 1.4-.3.3-.5.2-1.1-.3-1.4-.5-.3-1.1-.1-1.4.3zm1.7 2c-.2.5 0 1.1.4 1.2.4.2.9-.1 1.1-.7s0-1.1-.4-1.2c-.4-.2-.9.1-1.1.7zm2.6.8c-.4-.2-.9.1-1.1.7-.2.5 0 1.1.4 1.2.4.2.9-.1 1.1-.7.2-.5 0-1-.4-1.2zm-2.9 4.1c.4.2.9-.1 1.1-.7s0-1.1-.4-1.2c-.4-.2-.9.1-1.1.7-.2.4 0 1 .4 1.2zm-1.2.9c-.4-.2-.9.1-1.1.7s0 1.1.4 1.2c.4.2.9-.1 1.1-.7s.1-1.1-.4-1.2zm1.5 1.3c-.4-.2-.9.1-1.1.7s0 1.1.4 1.2c.4.2.9-.1 1.1-.7s0-1.1-.4-1.2zm1.2-.8c.4.2.9-.1 1.1-.7.2-.5 0-1.1-.4-1.2-.4-.2-.9.1-1.1.7-.2.5 0 1.1.4 1.2zm3.4-2.9c.2-.5 0-1.1-.4-1.2-.4-.2-.9.1-1.1.7-.2.5 0 1.1.4 1.2.4.1.9-.2 1.1-.7zm.4 1.7c.3.1.7-.2.9-.6.2-.5.1-1-.3-1.1-.3-.1-.7.2-.9.6-.2.5-.1 1 .3 1.1zm-2.4 2.4c.3.1.7-.2.9-.6.2-.5.1-1-.3-1.1-.3-.1-.7.2-.9.6-.2.5-.1 1 .3 1.1zm-1.2.9c-.3-.1-.7.2-.9.6-.2.5-.1 1 .3 1.1s.7-.2.9-.6c.2-.4 0-.9-.3-1.1zm1.2 1.3c-.3-.1-.7.2-.9.6-.2.5-.1 1 .3 1.1s.7-.2.9-.6c.1-.5 0-1-.3-1.1zm1.6.6c-.3-.1-.7.2-.9.6-.2.5-.1 1 .3 1.1.3.1.7-.2.9-.6.1-.5 0-1-.3-1.1zm1.6.8c-.3-.1-.7.2-.9.6-.2.5-.1 1 .3 1.1.3.1.7-.2.9-.6.2-.5.1-1-.3-1.1zm2-.2c-.3-.1-.7.2-.9.6-.2.5-.1 1 .3 1.1.3.1.7-.2.9-.6.1-.4 0-.9-.3-1.1zm2.1-.2c-.3-.1-.7.2-.9.6-.2.5-.1 1 .3 1.1.3.1.7-.2.9-.6.1-.5 0-1-.3-1.1zm1.7-1.5c-.3-.1-.7.2-.9.6-.2.5-.1 1 .3 1.1.3.1.7-.2.9-.6.2-.4.1-.9-.3-1.1zm1.8-1.5c-.3-.1-.7.2-.9.6-.2.5-.1 1 .3 1.1s.7-.2.9-.6c.2-.4.1-.9-.3-1.1zm1.6-1.8c-.3-.1-.7.2-.9.6-.2.5-.1 1 .3 1.1.3.1.7-.2.9-.6s.1-1-.3-1.1zm1.6-1.7c-.3-.1-.7.2-.9.6-.2.5-.1 1 .3 1.1.3.1.7-.2.9-.6.2-.5.1-1-.3-1.1zm1.6-2.3c-.3-.1-.7.2-.9.6-.2.5-.1 1 .3 1.1s.7-.2.9-.6c.1-.5 0-.9-.3-1.1zm1.3-2.2c-.3-.1-.7.2-.9.6-.2.5-.1 1 .3 1.1s.7-.2.9-.6c.1-.5 0-1-.3-1.1zm1.4-2.6c-.3-.1-.6.2-.8.7-.2.5-.1 1 .2 1.1.3.1.6-.2.8-.7s0-1-.2-1.1zm1.3-2.3c-.2-.1-.5.2-.7.7-.2.5-.2.9.1 1 .2.1.5-.2.7-.7.2-.5.2-1-.1-1zm1.3-2.3c-.2-.1-.6.2-.7.7-.2.5-.1.9.1 1s.6-.2.7-.7c.1-.5.1-.9-.1-1zm-18.9 14.2c-.3-.1-.7.2-.9.6-.2.5-.1 1 .3 1.1.3.1.7-.2.9-.6.1-.5 0-1-.3-1.1zm1.4.9c-.3-.1-.7.2-.9.6-.2.5-.1 1 .3 1.1.3.1.7-.2.9-.6.1-.5 0-1-.3-1.1zm1 2.6c.3.1.7-.2.9-.6.2-.5.1-1-.3-1.1-.3-.1-.7.2-.9.6-.1.4 0 .9.3 1.1zm2.9-.9c.2-.5.1-1-.3-1.1-.3-.1-.7.2-.9.6-.2.5-.1 1 .3 1.1s.7-.1.9-.6zm1.1-.6c.3.1.7-.2.9-.6s.1-1-.3-1.1c-.3-.1-.7.2-.9.6s-.1.9.3 1.1zm1.6-1.4c.3.1.7-.2.9-.6.2-.5.1-1-.3-1.1-.3-.1-.7.2-.9.6-.1.5 0 1 .3 1.1zm1.7-2c.3.1.7-.2.9-.6.2-.5.1-1-.3-1.1-.3-.1-.7.2-.9.6-.1.5 0 1 .3 1.1zm2.2-2.5c.2-.5.1-1-.3-1.1s-.7.2-.9.6c-.2.5-.1 1 .3 1.1.3.2.7-.1.9-.6zm1.5-2.1c.2-.5.1-1-.3-1.1s-.7.2-.9.6c-.2.5-.1 1 .3 1.1s.7-.2.9-.6zm.7-1.9c.3.1.7-.2.9-.6.2-.5.1-1-.3-1.1-.3-.1-.7.2-.9.6-.1.5 0 1 .3 1.1zm2.2-4.4c-.3-.1-.7.2-.9.6-.2.5-.1 1 .3 1.1.3.1.7-.2.9-.6.1-.5 0-1-.3-1.1zm1.3-2.7c-.3-.1-.7.2-.9.6-.2.5-.1 1 .3 1.1s.7-.2.9-.6c.2-.5 0-.9-.3-1.1zm-15 13.6c.2-.4.1-.9-.2-1-.3-.1-.7.2-.9.6-.2.4-.1.9.2 1 .3.1.7-.2.9-.6zm1.6.7c.2-.4.1-.9-.2-1-.3-.1-.7.2-.9.6-.2.4-.1.9.2 1 .3.1.7-.2.9-.6zm1.2-1c-.3-.1-.7.2-.9.6-.2.4-.1.9.2 1 .3.1.7-.2.9-.6.2-.4.1-.9-.2-1zm1.7-.4c-.3-.1-.7.2-.9.6s-.1.9.2 1c.3.1.7-.2.9-.6.2-.4.1-.9-.2-1zm.9-.8c-.2.4-.1.9.2 1s.7-.2.9-.6c.2-.4.1-.9-.2-1-.4-.2-.8.1-.9.6zm2.3-1.5c.2-.4.1-.9-.2-1-.3-.1-.7.2-.9.6-.2.4-.1.9.2 1s.8-.1.9-.6zm.4-2.1c-.2.4-.1.9.2 1 .3.1.7-.2.9-.6s.1-.9-.2-1c-.3-.1-.7.2-.9.6zm1.7-1.1c.3.1.7-.2.9-.6.2-.4.1-.9-.2-1-.3-.1-.7.2-.9.6s-.1.9.2 1zm1.3-3.8c-.2.4-.1.9.2 1 .3.1.7-.2.9-.6.2-.4.1-.9-.2-1-.4-.1-.8.2-.9.6zm2.3-2.4c.2-.4.1-.9-.2-1-.3-.1-.7.2-.9.6-.2.4-.1.9.2 1 .3.1.7-.1.9-.6zm-24.4 6.1c.3-.5.2-1.1-.3-1.4-.5-.3-1.1-.2-1.4.3-.3.5-.2 1.1.3 1.4.5.3 1.1.2 1.4-.3zm-.1 2.3c.5.3 1.1.2 1.4-.3.3-.5.2-1.1-.3-1.4-.5-.3-1.1-.2-1.4.3-.3.4-.1 1.1.3 1.4zm2.9.2c-.5-.3-1.1-.2-1.4.3-.3.5-.2 1.1.3 1.4.5.3 1.1.2 1.4-.3.3-.4.2-1.1-.3-1.4zm-2.8 1.8c.3-.5.2-1.1-.3-1.4-.5-.3-1.1-.2-1.4.3-.3.5-.2 1.1.3 1.4.5.3 1.1.1 1.4-.3zm1.1 1c-.5-.3-1.1-.2-1.4.3-.3.5-.2 1.1.3 1.4.5.3 1.1.2 1.4-.3.3-.5.1-1.1-.3-1.4z"/><path fill="#414973" d="M176.2 163.2c.8 6.7-.4 15.3-1.6 20.1-.1.6-.2 1.2-.3 1.9 3.3 1.3 7.7 6.7 11.9 12.7 2.9-5.4 6.7-9.9 11.4-11.1 10.2-2.6 23.3 3.8 30.3 8.9 1.9 1.4 3.8 3.1 5.6 4.8 3.5-5 6.6-10.3 9.3-15.8-7.5-2.7-17-5.1-27.4-6.7-15.4-2.3-31.6-10.6-39.2-14.8z"/><path fill="#443E53" d="M144.9 64.6c2.2-.9 5.7-2.6 9.5-3 .4 0 .7-.1 1.1-.1h1.7c5.8.4 11.6 4.5 14.1 18.6-.2-2.1-.4-3.8-.5-5.2-1-9.9-10.9-19.5-21.7-14.7-10.9 4.8-21.1 4.2-21.1 4.2v1.8s11 1 16.9-1.6z"/><path fill="#5C556E" d="M128 57.8v6.7s10.2.6 21.1-4.2c10.9-4.8 20.8 4.8 21.7 14.7.1 1.3.3 3.1.5 5.2.1 1 .2 2.1.3 3.2 0 .4.1.9.1 1.3.1.6.1 1.3.2 1.9 0 .4.1.8.1 1.3.1 1 .2 2 .3 3.1 0 .4.1.7.1 1.1 0 .3 0 .6.1.9 0 .5.1 1 .1 1.5 0 .3 0 .6.1 1 0 .6.1 1.2.1 1.8 0 .7.1 1.5.1 2.2 0 .5.1 1 .1 1.5v.8c0 .5 0 .9.1 1.4.4 10.4 0 21-2.2 27.7-4.8 14-16 37.1-28.4 41.5-12.5 4.4-14.4 2.2-14.4 2.2v4.2s22.6 2.4 38-11c0 0-4.4 20.6-38 20.6V233s.7.5 2 1.4c4.1-.8 13.3-2.6 17.4-3.8 5.4-1.6 12-18.4 17.4-21.9 5.4-3.5 9.4-23.4 9.4-23.4.1-.7.2-1.4.3-1.9 1.2-4.8 2.4-13.4 1.6-20.1-.3-2.3-.8-4.5-1.6-6.1-3.2-6.4-3.2-14.4-.3-18.5 2.9-4.2 7-17.2 6.7-36.4s-3.2-26.8-1.6-38.3c1.6-11.7-10-55.6-51.4-55.6v49.4z"/><path fill="#504960" d="M166 167.8c-15.4 13.4-38 11-38 11v9.6c33.5-.1 38-20.6 38-20.6z"/><path fill="#302A41" d="M179.5 217.4c1-5.4 3.2-13.1 6.6-19.6-4.1-6-8.6-11.4-11.9-12.7 0 0-4 19.9-9.4 23.4s-12 20.3-17.4 21.9c-4.2 1.2-13.3 3-17.4 3.8 4.8 3.2 17.3 11.4 29.3 17.9 3.3-.8 6.5-1.8 9.7-2.9 4.1-11 9.4-25.9 10.5-31.8z"/><path fill="#3C3141" d="M227.9 195.7c-7-5.1-20.1-11.5-30.3-8.9-4.7 1.2-8.5 5.6-11.4 11.1-3.5 6.4-5.7 14.2-6.6 19.6-1.1 5.9-6.4 20.8-10.5 31.9 8.3-2.8 16.3-6.5 23.8-10.9 3.9-11.7 7.9-26.3 8.8-39.2 0 0 .1.3.1.8-.5-6.8 1.3-9.7 8.2-9.4 8.4.3 15.7 5.9 19.8 15.2 1.3-1.7 2.6-3.5 3.8-5.2-1.9-1.9-3.8-3.6-5.7-5z"/><path fill="#3C3141" d="M206.4 215.7c-.6-4.3-1.4-10.6-1.6-15.4 0 3.1.3 7.6 1.2 14 .1 1.1.3 2.2.4 3.3v-1.9zm1.7-9.8s2.5-.2 6.3-.1c-2.1-.3-4.3-.3-6.3.1zm19.4 1.7c-1.4-2.9-3.9-7-7.3-10.1 2.2 2.3 4.5 5.5 7 10 .1 0 .2.1.3.1z"/><path fill="#312736" d="M201.7 200c-.1-.5-.1-.8-.1-.8-.9 12.9-4.9 27.5-8.8 39.2 4.4-2.6 8.6-5.4 12.6-8.5-.1-5.7-.7-12-1.9-18.6-.9-4.5-1.6-8.3-1.8-11.3zm6.4 5.9c2-.4 4.2-.4 6.3-.1 3.5.1 8.1.5 12.8 1.7-2.5-4.5-4.8-7.7-7-10-2.8-2.5-6.2-4.4-10.3-4.4-2.3.2-5-1.4-5 7.1.2 4.8 1 11.1 1.6 15.4-.1-3.3.3-7.1 1.6-9.7z"/><path fill="#504356" d="M130 234.3c-1.3-.9-2-1.4-2-1.4V256c10.8 0 21.3-1.3 31.3-3.9-12-6.5-24.5-14.6-29.3-17.8zm79.9-43.7c-6.9-.2-8.7 2.6-8.2 9.4.2 3 .9 6.7 1.8 11.3 1.3 6.6 1.8 12.9 1.9 18.6.6-.4 1.1-.9 1.7-1.3-.1-3.4-.2-5.8-.2-5.8s-.3-2.3-.5-5.4c-.1-1.1-.3-2.1-.4-3.3-.9-6.4-1.2-10.9-1.2-14 0-8.5 2.7-6.9 5-7.1 4.1 0 7.6 1.9 10.3 4.4 3.4 3.1 5.9 7.2 7.3 10.1.2.1.4.1.6.2.5-.7 1-1.3 1.6-2-4.1-9.3-11.3-14.8-19.7-15.1z"/><path fill="#303351" d="M227.2 207.5c-4.7-1.2-9.3-1.6-12.8-1.7-3.8-.1-6.3.1-6.3.1-1.3 2.6-1.7 6.4-1.7 9.8v1.8c.1 3.1.5 5.4.5 5.4s.1 2.4.2 5.8c7.8-6.1 14.8-13.1 21-20.9-.2-.1-.4-.1-.6-.2-.1 0-.2-.1-.3-.1z"/><path fill="#775B4B" d="M111 64.6c-2.2-.9-5.7-2.6-9.5-3-.4.3-.8.4-1 .1-.1-.1-.1-.1-.1-.2h-1s.1 0 .1.1c.2.3.1.8-.3 1.1-.4.3-.9.4-1.1.2-.2-.3-.1-.8.3-1.1.1-.1.2-.1.3-.2-5.7.3-11.6 4.4-14.1 18.6-.1 1-.2 2.1-.3 3.2.2-.2.3-.3.5-.2.3.1.5.5.4 1-.1.5-.5.8-.8.7-.1 0-.2-.1-.2-.2-.1.6-.1 1.3-.2 1.9.2-.2.3-.3.5-.2.3.1.5.5.4 1-.1.5-.5.8-.8.7-.1 0-.2-.1-.3-.2-.1 1-.2 2-.3 3.1.1.2.1.5.1.7 0 .1-.1.3-.1.4 0 .3 0 .6-.1.9.2.2.3.5.2.9l-.3.6c0 .3 0 .6-.1 1h.3c.3.1.5.6.4 1.1-.1.5-.5.8-.8.8 0 .7-.1 1.5-.1 2.2.2.2.3.5.2 1l-.3.6v.8c.2-.2.4-.3.6-.3.3.1.5.6.4 1.1s-.5.8-.8.8c-.1 0-.2-.1-.2-.1-.4 10.4 0 21 2.2 27.7 4.8 14 16 37.1 28.4 41.5 12.5 4.4 14.4 2.2 14.4 2.2V66.2c.1 0-11 1-16.9-1.6zm16 88.8c-.5.3-1.1.2-1.4-.3-.3-.5-.2-1.1.3-1.4.5-.3 1.1-.2 1.4.3.3.5.2 1.1-.3 1.4zM98.2 97.7c0-.6.5-1 1-1s1 .5 1 1-.5 1-1 1-1-.5-1-1zm.5 3.4c0 .6-.5 1-1 1s-1-.5-1-1 .5-1 1-1 1 .4 1 1zm1.5.5c-.6 0-1-.5-1-1s.5-1 1-1 1 .5 1 1-.4 1-1 1zm.8 2.2c0 .6-.5 1-1 1s-1-.5-1-1 .5-1 1-1 1 .5 1 1zm-.3-6.5c0-.6.5-1 1-1s1 .5 1 1-.5 1-1 1-1-.4-1-1zm1.6 5.2c.6 0 1 .5 1 1s-.5 1-1 1-1-.5-1-1 .4-1 1-1zm-.8 47.3c.3-.1.7.2.9.6.2.4.1.9-.2 1s-.7-.2-.9-.6c-.2-.4-.1-.9.2-1zm.9 5.2c.3-.1.7.2.9.6.2.5.1 1-.3 1.1-.3.1-.7-.2-.9-.6-.1-.5 0-1 .3-1.1zm.9-.8c-.3.1-.7-.2-.9-.6-.2-.4-.1-.9.2-1 .3-.1.7.2.9.6s.1.9-.2 1zm-.3-52.9c-.6 0-1-.5-1-1s.5-1 1-1c.6 0 1 .5 1 1s-.4 1-1 1zm.3-4c0-.6.5-1 1-1s1 .5 1 1-.5 1-1 1-1-.4-1-1zm.9 58.1c.3-.1.7.2.9.6s.1.9-.2 1c-.3.1-.7-.2-.9-.6-.2-.4-.1-.9.2-1zm0-51.9c0-.6.5-1 1-1s1 .5 1 1-.5 1-1 1-1-.5-1-1zm1.5 54c.3-.1.7.2.9.6.2.4.1.9-.2 1-.3.1-.7-.2-.9-.6s-.2-.9.2-1zm.3-56.2c-.6 0-1-.5-1-1s.5-1 1-1 1 .5 1 1-.5 1-1 1zm.3-4c0-.6.5-1 1-1s1 .5 1 1-.5 1-1 1-1-.4-1-1zm1.7 5.6c.6 0 1 .5 1 1 0 .6-.5 1-1 1s-1-.5-1-1 .5-1 1-1zm.4 58.2c.3-.1.7.2.9.6.2.4.1.9-.2 1-.3.1-.7-.2-.9-.6-.2-.5-.1-.9.2-1zm.4-59.3c-.6 0-1-.5-1-1s.5-1 1-1 1 .5 1 1-.5 1-1 1zm.2-4c0-.6.5-1 1-1s1 .5 1 1-.5 1-1 1-1-.4-1-1zm2.5 1.8c.6 0 1 .5 1 1s-.5 1-1 1-1-.5-1-1 .5-1 1-1zm.3-1.9c0-.6.5-1 1-1s1 .5 1 1-.5 1-1 1-1-.4-1-1zm1.9 4.1c.6 0 1 .5 1 1s-.5 1-1 1-1-.5-1-1 .4-1 1-1zm.7-1.2c-.6 0-1-.5-1-1s.5-1 1-1 1 .5 1 1-.4 1-1 1zm.3-3.9c0-.6.5-1 1-1s1 .5 1 1-.5 1-1 1-1-.5-1-1zm4.1-2.1c.6 0 1 .5 1 1 0 .6-.5 1-1 1s-1-.5-1-1c-.1-.5.4-1 1-1zm0-13.5c.3-.5 1-.6 1.4-.3.5.3.6 1 .3 1.4s-1 .6-1.4.3c-.5-.3-.6-.9-.3-1.4zm4.5 76.3c-.5.3-1.1.2-1.4-.3-.3-.5-.2-1.1.3-1.4.5-.3 1.1-.2 1.4.3.2.4.1 1-.3 1.4zm.8-3.8c.5-.3 1.1-.2 1.4.3.3.5.2 1.1-.3 1.4-.5.3-1.1.2-1.4-.3-.3-.5-.2-1.1.3-1.4zm-4.9 5.1c.4-.2.9.1 1.1.7.2.5 0 1.1-.4 1.2-.4.2-.9-.1-1.1-.7-.2-.5 0-1 .4-1.2zm-.7-58.1c0-.6.5-1 1-1s1 .5 1 1-.5 1-1 1-1-.4-1-1zm1.8 57.9c-.2-.5 0-1.1.4-1.2.4-.2.9.1 1.1.7s0 1.1-.4 1.2c-.4.1-.9-.2-1.1-.7zm1.2-63c-.6 0-1-.5-1-1s.5-1 1-1 1 .5 1 1-.4 1-1 1zm-.3 1.9c0 .6-.5 1-1 1s-1-.5-1-1 .5-1 1-1 1 .4 1 1zm-4.8-14.1c.3-.5 1-.6 1.4-.3.5.3.6 1 .3 1.4-.3.5-1 .6-1.4.3-.5-.2-.7-.9-.3-1.4zm0-3.6c.3-.5 1-.6 1.4-.3.5.3.6 1 .3 1.4-.3.5-1 .6-1.4.3-.5-.3-.6-1-.3-1.4zm1 17.8c.6 0 1 .5 1 1 0 .6-.5 1-1 1s-1-.5-1-1 .5-1 1-1zm-.7 3.2c.6 0 1 .5 1 1s-.5 1-1 1-1-.5-1-1 .4-1 1-1zm-.5 60.5c.3-.1.7.2.9.6.2.5.1 1-.3 1.1-.3.1-.7-.2-.9-.6-.2-.4 0-.9.3-1.1zm1.5-1.1c.4-.2.9.1 1.1.7.2.5 0 1.1-.4 1.2-.4.2-.9-.1-1.1-.7-.2-.5-.1-1.1.4-1.2zm.9 3.5c.3-.1.7.2.9.6.2.5.1 1-.3 1.1s-.7-.2-.9-.6c-.2-.4 0-.9.3-1.1zm.9 0c-.2-.5 0-1.1.4-1.2.4-.2.9.1 1.1.7.2.5 0 1.1-.4 1.2-.4.1-.9-.2-1.1-.7zm1.5-1.5c-.2-.5 0-1.1.4-1.2.4-.2.9.1 1.1.7.2.5 0 1.1-.4 1.2-.4.1-.9-.2-1.1-.7zm1.5-1.3c-.3-.5-.2-1.1.3-1.4.5-.3 1.1-.2 1.4.3.3.5.2 1.1-.3 1.4-.4.3-1.1.2-1.4-.3zm1.8-1.9c-.3-.5-.2-1.1.3-1.4.5-.3 1.1-.2 1.4.3.3.5.2 1.1-.3 1.4-.5.3-1.1.2-1.4-.3zm1.3-2c-.3-.5-.2-1.1.3-1.4.5-.3 1.1-.2 1.4.3.3.5.2 1.1-.3 1.4-.5.3-1.1.2-1.4-.3zm1.4-70.1c-.3.5-1 .6-1.4.3-.5-.3-.6-1-.3-1.4.3-.5 1-.6 1.4-.3.5.3.7.9.3 1.4zm-.5-2.9c-.3.5-1 .6-1.4.3-.5-.3-.6-1-.3-1.4.3-.5 1-.6 1.4-.3.5.3.6 1 .3 1.4zm-2-3.6c.3-.5 1-.6 1.4-.3.5.3.6 1 .3 1.4s-1 .6-1.4.3c-.5-.3-.6-1-.3-1.4zm-.4 5.8c-.3.5-1 .6-1.4.3-.5-.3-.6-1-.3-1.4.3-.5 1-.6 1.4-.3s.6 1 .3 1.4zm-.7-3c-.3.5-1 .6-1.4.3-.5-.3-.6-1-.3-1.4.3-.5 1-.6 1.4-.3s.7.9.3 1.4zm-1.9-3.6c.3-.5 1-.6 1.4-.3.5.3.6 1 .3 1.4-.3.5-1 .6-1.4.3s-.6-1-.3-1.4zm-.5 5.8c-.3.5-1 .6-1.4.3s-.6-1-.3-1.4c.3-.5 1-.6 1.4-.3.5.3.6.9.3 1.4zm-.4-7.6c.5.3.6 1 .3 1.4-.3.5-1 .6-1.4.3-.5-.3-.6-1-.3-1.4.3-.5.9-.6 1.4-.3zm-3.4-1.7c.3-.5 1-.6 1.4-.3.5.3.6 1 .3 1.4-.3.5-1 .6-1.4.3-.6-.3-.7-.9-.3-1.4zm-2.5-1.7c.3-.5 1-.6 1.4-.3.5.3.6 1 .3 1.4-.3.5-1 .6-1.4.3-.5-.3-.6-.9-.3-1.4zm1.1 3.1c.5.3.6 1 .3 1.4-.3.5-1 .6-1.4.3-.5-.3-.6-1-.3-1.4.3-.5 1-.6 1.4-.3zm-3.8 2.5c.3-.5 1-.6 1.4-.3.5.3.6 1 .3 1.4s-1 .6-1.4.3c-.5-.3-.6-.9-.3-1.4zm0-3.9c.3-.5 1-.6 1.4-.3.5.3.6 1 .3 1.4-.3.5-1 .6-1.4.3-.5-.3-.6-.9-.3-1.4zm2 5.9c.3-.5 1-.6 1.4-.3.5.3.6 1 .3 1.4-.3.5-1 .6-1.4.3-.5-.3-.6-1-.3-1.4zm-1.4-9c.3-.5 1-.6 1.4-.3.5.3.6 1 .3 1.4-.3.5-1 .6-1.4.3-.5-.3-.7-1-.3-1.4zm-2.3-1.2c.3-.5 1-.6 1.4-.3.5.3.6 1 .3 1.4-.3.5-1 .6-1.4.3-.5-.3-.6-.9-.3-1.4zm-.7 6.5c.3-.5 1-.6 1.4-.3s.6 1 .3 1.4c-.3.5-1 .6-1.4.3-.5-.3-.7-.9-.3-1.4zm-.1-3.5c.3-.5 1-.6 1.4-.3s.6 1 .3 1.4-1 .6-1.4.3c-.5-.3-.6-1-.3-1.4zm-.9-4c.4-.4 1-.4 1.3-.1s.2.9-.2 1.3-1 .4-1.3.1c-.3-.3-.3-.9.2-1.3zm-3.4 5.6c.3-.5 1-.6 1.4-.3.5.3.6 1 .3 1.4-.3.5-1 .6-1.4.3s-.6-1-.3-1.4zm.2-3.7c.4-.4 1-.4 1.3-.1s.2.9-.2 1.3-1 .4-1.3.1c-.3-.3-.2-.9.2-1.3zm1.7 1c.3-.5 1-.6 1.4-.3.5.3.6 1 .3 1.4-.3.5-1 .6-1.4.3-.5-.3-.6-.9-.3-1.4zm.4 3.6c.3-.5 1-.6 1.4-.3s.6 1 .3 1.4c-.3.5-1 .6-1.4.3-.6-.3-.7-.9-.3-1.4zm.4-7.4c.3.3.2.9-.2 1.3s-1 .4-1.3.1c-.3-.3-.2-.9.2-1.3s1-.5 1.3-.1zm-1.8-1c.3.3.2.9-.2 1.3s-1 .4-1.3.1c-.3-.3-.2-.9.2-1.3s1-.4 1.3-.1zM96 70.7c.4-.3.9-.4 1.1-.2.2.3.1.8-.3 1.1-.4.3-.9.4-1.1.2-.2-.3-.1-.7.3-1.1zm-.8-.8c-.2-.3-.1-.8.3-1.1s.9-.4 1.1-.2c.2.3.1.8-.3 1.1-.3.4-.8.5-1.1.2zm2.1-3.8c.4-.3.9-.4 1.1-.2.2.3.1.8-.3 1.1-.4.3-.9.4-1.1.2-.2-.2 0-.7.3-1.1zm.1 5.8c.4-.3.9-.4 1.1-.2.2.3.1.8-.3 1.1s-.9.4-1.1.2c-.2-.2-.1-.7.3-1.1zm1.2 1.3c.4-.3.9-.4 1.1-.2.2.3.1.8-.3 1.1-.4.3-.9.4-1.1.2-.2-.2-.1-.7.3-1.1zm1.5.6c.4-.3.9-.4 1.1-.2.2.3.1.8-.3 1.1s-.9.4-1.1.2c-.2-.2 0-.7.3-1.1zm1.4-2.6c-.4.3-.9.4-1.1.2-.2-.3-.1-.8.3-1.1.4-.3.9-.4 1.1-.2.2.2.1.7-.3 1.1zm.5 0c.4-.3.9-.4 1.1-.2.2.3.1.8-.3 1.1-.4.3-.9.4-1.1.2-.2-.3-.1-.8.3-1.1zm-.3 3.4c.4-.4 1-.4 1.3-.1.3.3.2.9-.2 1.3s-1 .4-1.3.1c-.3-.4-.2-.9.2-1.3zm1.8.8c.4-.4 1-.4 1.3-.1.3.3.2.9-.2 1.3s-1 .4-1.3.1c-.3-.3-.2-.9.2-1.3zm1.1-2.4c-.4.4-1 .4-1.3.1-.3-.3-.2-.9.2-1.3s1-.4 1.3-.1c.3.4.2 1-.2 1.3zm-.1-5.1c.2.3.1.8-.3 1.1s-.9.4-1.1.2c-.2-.3-.1-.8.3-1.1.3-.4.8-.5 1.1-.2zm-1.4-.9c.2.2.1.7-.2 1-.4.3-.8.4-1 .1-.2-.2-.1-.7.2-1 .3-.3.8-.4 1-.1zm-1.2-1.2c.2.2.1.7-.2 1-.4.3-.8.4-1 .1-.2-.2-.1-.7.2-1 .3-.3.8-.4 1-.1zm-.8-.3c-.4.3-.8.4-1 .1s-.1-.7.2-1 .8-.4 1-.1c.2.2.1.7-.2 1zm-1.1-2.7c.4-.3.8-.4 1-.1.2.2.1.7-.2 1-.4.3-.8.4-1 .1-.3-.2-.1-.7.2-1zm.4 6.3c.2.3.1.8-.3 1.1-.4.3-.9.4-1.1.2-.2-.3-.1-.8.3-1.1.3-.4.8-.4 1.1-.2zm-1.7-.1c-.4.3-.9.4-1.1.2-.2-.3-.1-.8.3-1.1.4-.3.9-.4 1.1-.2.2.2.1.7-.3 1.1zm.2-5.4c.2.3.1.8-.3 1.1-.4.3-.9.4-1.1.2-.2-.3-.1-.8.3-1.1.4-.4.9-.4 1.1-.2zm-2.5-1.2c.4-.3.9-.4 1.1-.2.2.3.1.8-.3 1.1-.4.3-.9.4-1.1.2-.2-.3-.1-.8.3-1.1zm-.8 2.2c.4-.3.9-.4 1.1-.2.2.3.1.8-.3 1.1-.4.3-.9.4-1.1.2-.2-.2 0-.7.3-1.1zm-.6 2.2c.4-.3.9-.4 1.1-.2.2.3.1.8-.3 1.1s-.9.4-1.1.2c-.2-.3-.1-.8.3-1.1zm-2.3 19.7c2.4-.8 9.1-2.7 9.1-2.7h-2.7s1.9-1.3 7.3 0 10.2 0 10.4 3.5c0 0-2.1 3.2-3.7 3.2s-6.2-2.4-8.9-2.6c-2.7-.2-8.3 0-10.1 1-1.8 1-4.9 2.1-5.4 1.6s1.6-3.2 4-4zm-6.8 11c.1-.5.5-.8.8-.7.3.1.5.5.4 1-.1.5-.5.8-.8.7-.3-.1-.5-.5-.4-1zM85 81.8c-.3-.1-.5-.5-.4-1 .1-.5.5-.8.8-.7.3.1.5.5.4 1-.1.5-.4.8-.8.7zm.4 13.7c.3.1.5.5.4 1-.1.5-.5.8-.8.7-.3-.1-.5-.5-.4-1 .2-.5.5-.8.8-.7zm-1-.5c-.3-.1-.5-.5-.4-1 .1-.5.5-.8.8-.7.3.1.5.5.4 1-.1.5-.4.8-.8.7zm.8-2.9c-.1.5-.5.8-.8.7-.3-.1-.5-.5-.4-1 .1-.5.5-.8.8-.7.4.1.5.5.4 1zm-1.4-2.5c.1-.5.5-.8.8-.7.3.1.5.5.4 1-.1.5-.5.8-.8.7-.4-.1-.5-.6-.4-1zm0 9.7c-.3-.1-.5-.6-.4-1.1.1-.5.5-.8.8-.8.3.1.5.6.4 1.1s-.4.9-.8.8zm1.8 4.7c-.1.5-.5.8-.8.8-.3-.1-.5-.6-.4-1.1s.5-.8.8-.8c.3.1.5.6.4 1.1zm0-3.3c-.1.5-.5.8-.8.8-.3-.1-.5-.6-.4-1.1s.5-.8.8-.8c.3.2.5.6.4 1.1zm1.5 4.5c-.1.5-.5.8-.8.8-.3-.1-.5-.6-.4-1.1s.5-.8.8-.8c.3.2.5.6.4 1.1zm0-3.2c-.1.5-.5.8-.8.8-.3-.1-.5-.6-.4-1.1s.5-.8.8-.8c.3.1.5.6.4 1.1zm0-3.8c.1-.5.5-.8.8-.7.3.1.5.5.4 1-.1.5-.5.8-.8.7-.3-.1-.5-.5-.4-1zm1.8 7.3c-.1.5-.5.8-.8.8-.3-.1-.5-.6-.4-1.1s.5-.8.8-.8.5.6.4 1.1zm0-3.3c-.1.5-.5.8-.8.8-.3-.1-.5-.6-.4-1.1s.5-.8.8-.8.5.6.4 1.1zm-.1-3.6c.1-.5.5-.8.8-.7.3.1.5.5.4 1s-.5.8-.8.7c-.3-.1-.5-.6-.4-1zm1.8 7.3c-.1.5-.5.8-.8.8-.3-.1-.5-.6-.4-1.1s.5-.8.8-.8c.4.1.5.6.4 1.1zm0-3.7c-.1.5-.5.8-.8.8-.3-.1-.5-.6-.4-1.1s.5-.8.8-.8c.4.2.5.6.4 1.1zm-.2-3.6c.1-.5.5-.8.8-.8.3.1.5.6.4 1.1-.1.5-.5.8-.8.8s-.5-.6-.4-1.1zm1.9 6.9c-.1.5-.5.8-.8.8-.3-.1-.5-.6-.4-1.1s.5-.8.8-.8c.3.1.5.6.4 1.1zm0-3.3c-.1.5-.5.8-.8.8-.3-.1-.5-.6-.4-1.1s.5-.8.8-.8c.3.2.5.6.4 1.1zm-.2-3.7c.1-.5.6-.9 1-.8.4.1.7.6.6 1.2-.1.5-.6.9-1 .8-.5-.1-.8-.7-.6-1.2zm.5 3.1c.1-.5.6-.9 1-.8.4.1.7.6.6 1.2-.1.5-.6.9-1 .8-.4-.1-.7-.6-.6-1.2zm1.8 3.7c-.1.5-.6.9-1 .8-.4-.1-.7-.6-.6-1.2.1-.5.6-.9 1-.8.4.1.7.6.6 1.2zm-.3-7.1c.1-.5.6-.9 1-.8.4.1.7.6.6 1.2s-.6.9-1 .8c-.5-.1-.7-.6-.6-1.2zm2.2 6.8c-.1.5-.6.9-1 .8-.4-.1-.7-.6-.6-1.2.1-.5.6-.9 1-.8.5.1.7.6.6 1.2zm0-3.4c-.1.5-.6.9-1 .8-.4-.1-.7-.6-.6-1.2.1-.5.6-.9 1-.8.5.1.7.7.6 1.2zm-.1-3.8c.1-.5.6-.9 1-.8.4.1.7.6.6 1.2-.1.5-.6.9-1 .8-.5-.1-.7-.6-.6-1.2zm.4 6.5c0-.6.5-1 1-1s1 .5 1 1-.5 1-1 1-1-.4-1-1zm2.4 47.8c-.2.1-.6-.2-.7-.7-.2-.5-.1-.9.1-1 .2-.1.6.2.7.7.2.5.1.9-.1 1zm1.2 2.3c-.2.1-.5-.2-.7-.7-.2-.5-.2-.9.1-1 .2-.1.5.2.7.7s.1.9-.1 1zm.1-3c-.3.1-.7-.2-.9-.6-.2-.5-.1-1 .3-1.1.3-.1.7.2.9.6.1.5 0 .9-.3 1.1zm1.3 5.3c-.3.1-.6-.2-.8-.7s-.1-1 .2-1.1c.3-.1.6.2.8.7.2.6.1 1-.2 1.1zm0-2.7c-.3.1-.7-.2-.9-.6-.2-.5-.1-1 .3-1.1s.7.2.9.6c.1.5 0 1-.3 1.1zm1.4 5.3c-.3.1-.7-.2-.9-.6-.2-.5-.1-1 .3-1.1.3-.1.7.2.9.6.1.5 0 1-.3 1.1zm1.3 2.3c-.3.1-.7-.2-.9-.6s-.1-1 .3-1.1c.3-.1.7.2.9.6.2.5.1.9-.3 1.1zm-.5-3c-.2-.5-.1-1 .3-1.1.3-.1.7.2.9.6.2.5.1 1-.3 1.1s-.7-.2-.9-.6zm2 5.2c-.3.1-.7-.2-.9-.6-.2-.5-.1-1 .3-1.1s.7.2.9.6c.2.5.1 1-.3 1.1zm-.5-3.1c-.2-.5-.1-1 .3-1.1s.7.2.9.6c.2.5.1 1-.3 1.1s-.7-.1-.9-.6zm2.1 4.8c-.3.1-.7-.2-.9-.6s-.1-1 .3-1.1c.3-.1.7.2.9.6.2.5.1 1-.3 1.1zm.1-2.3c-.3.1-.7-.2-.9-.6-.2-.5-.1-1 .3-1.1.3-.1.7.2.9.6.1.5 0 1-.3 1.1zm.3-2.3c-.3.1-.7-.2-.9-.6s-.1-.9.2-1c.3-.1.7.2.9.6.2.4.1.8-.2 1zm1.2 6.5c-.3.1-.7-.2-.9-.6-.2-.5-.1-1 .3-1.1.3-.1.7.2.9.6.2.5.1 1-.3 1.1zm.2-2.2c-.3.1-.7-.2-.9-.6s-.1-1 .3-1.1.7.2.9.6 0 1-.3 1.1zm1.6 3.7c-.3.1-.7-.2-.9-.6-.2-.5-.1-1 .3-1.1.3-.1.7.2.9.6.2.5.1 1-.3 1.1zm-.7-6.4c.3-.1.7.2.9.6s.1.9-.2 1c-.3.1-.7-.2-.9-.6-.2-.4-.1-.9.2-1zm.8 4.1c-.3.1-.7-.2-.9-.6-.2-.5-.1-1 .3-1.1.3-.1.7.2.9.6s0 .9-.3 1.1zm-.1-61.7c-.6 0-1-.5-1-1s.5-1 1-1 1 .5 1 1-.4 1-1 1zm1.1 58c.3-.1.7.2.9.6.2.4.1.9-.2 1-.3.1-.7-.2-.9-.6-.3-.4-.2-.9.2-1zm.7 7.4c-.3.1-.7-.2-.9-.6-.2-.5-.1-1 .3-1.1s.7.2.9.6c.1.5 0 1-.3 1.1zm.3-2.4c-.3.1-.7-.2-.9-.6-.2-.5-.1-1 .3-1.1.3-.1.7.2.9.6.1.5 0 1-.3 1.1zm.1-4c-.2-.4-.1-.9.2-1 .3-.1.7.2.9.6.2.4.1.9-.2 1-.3.1-.7-.2-.9-.6zm1.7 6.7c-.3.1-.7-.2-.9-.6-.2-.5-.1-1 .3-1.1s.7.2.9.6c.1.5 0 1-.3 1.1zm.1-2.5c-.3.1-.7-.2-.9-.6-.2-.5-.1-1 .3-1.1s.7.2.9.6 0 .9-.3 1.1zm-.2-4.9c-.2-.4-.1-.9.2-1 .3-.1.7.2.9.6.2.4.1.9-.2 1-.3.1-.7-.2-.9-.6zm1.2 2.3c.3-.1.7.2.9.6.2.5.1 1-.3 1.1-.3.1-.7-.2-.9-.6-.1-.5 0-1 .3-1.1zm.8 5.3c-.3.1-.7-.2-.9-.6-.2-.5-.1-1 .3-1.1.3-.1.7.2.9.6.2.5.1.9-.3 1.1zm.4-5.1c-.2-.5-.1-1 .3-1.1.3-.1.7.2.9.6.2.5.1 1-.3 1.1-.3.1-.8-.2-.9-.6zm1.3 4.2c-.3.1-.7-.2-.9-.6-.2-.5-.1-1 .3-1.1.3-.1.7.2.9.6.2.5 0 1-.3 1.1zm1.6-.6c-.3.1-.7-.2-.9-.6-.2-.5-.1-1 .3-1.1.3-.1.7.2.9.6.2.5.1 1-.3 1.1zm1.2-1.2c-.3.1-.7-.2-.9-.6-.2-.5-.1-1 .3-1.1.3-.1.7.2.9.6.1.5 0 1-.3 1.1zm1.5-1.2c-.4.2-.9-.1-1.1-.7s0-1.1.4-1.2c.4-.2.9.1 1.1.7.2.5 0 1-.4 1.2zm1.4-1.3c-.4.2-.9-.1-1.1-.7s0-1.1.4-1.2c.4-.2.9.1 1.1.7s0 1-.4 1.2zm1.7-1.7c-.5.3-1.1.2-1.4-.3-.3-.5-.2-1.1.3-1.4.5-.3 1.1-.2 1.4.3.3.4.1 1.1-.3 1.4zm1.3-2.5c-.5.3-1.1.2-1.4-.3-.3-.5-.2-1.1.3-1.4.5-.3 1.1-.2 1.4.3.3.5.2 1.1-.3 1.4z"/><path fill="#45281B" d="M94.1 88.9c1.8-1 7.3-1.1 10.1-1 2.7.2 7.3 2.6 8.9 2.6s3.7-3.2 3.7-3.2c-.2-3.5-4.9-2.2-10.4-3.5-5.4-1.3-7.3 0-7.3 0h2.7s-6.7 1.9-9.1 2.7-4.5 3.5-4 4 3.7-.7 5.4-1.6z"/><path fill="#9B8761" d="M105.4 97.3c0-.6-.5-1-1-1s-1 .5-1 1 .5 1 1 1 1-.4 1-1zm-2.7 0c0-.6-.5-1-1-1s-1 .5-1 1 .5 1 1 1 1-.4 1-1zm-2.5.4c0-.6-.5-1-1-1s-1 .5-1 1 .5 1 1 1 1-.5 1-1zm-2.4.5c.1-.5-.1-1.1-.6-1.2-.4-.1-.9.3-1 .8-.1.5.1 1.1.6 1.2.4.1.9-.2 1-.8zm-2.1.4c.1-.5-.1-1.1-.6-1.2-.4-.1-.9.3-1 .8s.1 1.1.6 1.2c.4.1.9-.2 1-.8zm0 1.8c-.4-.1-.9.3-1 .8-.1.5.1 1.1.6 1.2.4.1.9-.3 1-.8.1-.5-.1-1.1-.6-1.2zm0 3.4c-.4-.1-.9.3-1 .8-.1.5.1 1.1.6 1.2.4.1.9-.3 1-.8.1-.6-.1-1.1-.6-1.2zm-1.9.3c-.4-.1-.9.3-1 .8-.1.5.1 1.1.6 1.2.4.1.9-.3 1-.8.1-.6-.2-1.1-.6-1.2zm-.6-1.3c.4.1.9-.3 1-.8.1-.5-.1-1.1-.6-1.2-.4-.1-.9.3-1 .8-.1.6.2 1.1.6 1.2zm.5-3.9c.1-.5-.1-1.1-.6-1.2-.4-.1-.9.3-1 .8-.1.5.1 1.1.6 1.2.4.1.8-.3 1-.8zm-2.1 0c.1-.5-.1-1-.4-1.1-.3-.1-.7.3-.8.8s.1 1 .4 1.1.7-.3.8-.8zm.3 2.3c-.3-.1-.7.3-.8.8s.1 1 .4 1.1c.3.1.7-.3.8-.8s-.1-1-.4-1.1zm0 3.2c-.3-.1-.7.3-.8.8s.1 1 .4 1.1c.3.1.7-.3.8-.8s-.1-1-.4-1.1zm-1.7.4c-.3-.1-.7.3-.8.8s.1 1 .4 1.1c.3.1.7-.3.8-.8s0-1-.4-1.1zm-1.7-.4c-.3-.1-.7.3-.8.8s.1 1 .4 1.1c.3.1.7-.3.8-.8s0-1-.4-1.1zm-1.8-.2c-.3-.1-.7.3-.8.8s.1 1 .4 1.1c.3.1.7-.3.8-.8.1-.6-.1-1-.4-1.1zm-1.5-1.3c-.3-.1-.7.3-.8.8s.1 1 .4 1.1c.3.1.7-.3.8-.8s-.1-1-.4-1.1zm-2 .4c.3.1.7-.3.8-.8s-.1-1-.4-1.1c-.2-.1-.4.1-.6.3 0 .5 0 .9-.1 1.4.1.2.2.2.3.2zm-.1-3.8c0 .5-.1 1-.1 1.5.1-.1.3-.3.3-.6.1-.4 0-.8-.2-.9zm7.1 1.7c-.3-.1-.7.3-.8.8s.1 1 .4 1.1c.3.1.7-.3.8-.8s0-1-.4-1.1zm-1.7 0c-.3-.1-.7.3-.8.8s.1 1 .4 1.1c.3.1.7-.3.8-.8s0-1-.4-1.1zm-1.8-.3c-.3-.1-.7.3-.8.8s.1 1 .4 1.1c.3.1.7-.3.8-.8.1-.5-.1-1-.4-1.1zm-1.5-1.2c-.3-.1-.7.3-.8.8s.1 1 .4 1.1c.3.1.7-.3.8-.8.1-.6-.1-1-.4-1.1zm-1-2.2c-.3-.1-.7.3-.8.8-.1.5.1 1 .4 1.1.3.1.7-.3.8-.8s0-1.1-.4-1.1zm-.2-1c.1-.5-.1-1-.4-1.1h-.3c0 .6-.1 1.2-.1 1.8.3.1.7-.3.8-.7zm-.5-3.6c0 .5-.1 1-.1 1.5.1-.1.3-.3.3-.6.1-.3 0-.7-.2-.9zm.1-2c0 .4-.1.7-.1 1.1.1-.1.1-.2.1-.4.2-.2.1-.5 0-.7zm6.4 7.9c.1-.5-.1-.9-.4-1-.3-.1-.7.2-.8.7s.1.9.4 1c.3.1.7-.2.8-.7zm-1.7-.3c.1-.5-.1-.9-.4-1-.3-.1-.7.2-.8.7-.1.5.1.9.4 1 .3.1.7-.2.8-.7zm-2 0c.3.1.7-.2.8-.7.1-.5-.1-.9-.4-1-.3-.1-.7.2-.8.7-.1.5.1.9.4 1zm-1.6-2.3c-.1.5.1.9.4 1 .3.1.7-.2.8-.7.1-.5-.1-.9-.4-1-.4-.1-.7.2-.8.7zm.5-1.9c.1-.5-.1-.9-.4-1-.3-.1-.7.2-.8.7-.1.5.1.9.4 1 .4.1.7-.2.8-.7zm-1.1-2.5c-.1.5.1.9.4 1 .3.1.7-.2.8-.7.1-.5-.1-.9-.4-1-.4-.1-.7.3-.8.7zm.8-2c.1-.5-.1-.9-.4-1-.3-.1-.7.2-.8.7-.1.5.1.9.4 1 .4.1.7-.2.8-.7zm-.7-1.8c.3.1.7-.2.8-.7.1-.5-.1-.9-.4-1-.2 0-.4.1-.5.2 0 .4-.1.8-.1 1.3 0 .1.1.2.2.2zm.2-3.2c.3.1.7-.2.8-.7.1-.5-.1-.9-.4-1-.2 0-.4.1-.5.2 0 .4-.1.9-.1 1.3.1.1.1.2.2.2zm1.4-3.7c.1-.5-.1-.9-.4-1-.3-.1-.7.2-.8.7-.1.5.1.9.4 1 .4.1.7-.2.8-.7zm18.3 19.2c0-.6-.5-1-1-1-.6 0-1 .5-1 1s.5 1 1 1 1-.5 1-1zm-3.9-.7c-.6 0-1 .5-1 1s.5 1 1 1 1-.5 1-1-.4-1-1-1zm-2.5.4c-.6 0-1 .5-1 1s.5 1 1 1 1-.5 1-1-.4-1-1-1zm4.6 4.5c.6 0 1-.5 1-1s-.5-1-1-1-1 .5-1 1 .4 1 1 1zm6-7.2c0-.6-.5-1-1-1s-1 .5-1 1 .5 1 1 1 1-.4 1-1zm-1.3 3c0-.6-.5-1-1-1s-1 .5-1 1 .5 1 1 1 1-.5 1-1zm-.7 3.2c0-.6-.5-1-1-1s-1 .5-1 1 .5 1 1 1 1-.5 1-1zm4.8-5.7c0-.6-.5-1-1-1s-1 .5-1 1 .5 1 1 1 1-.4 1-1zm-1.3 3c0-.6-.5-1-1-1s-1 .5-1 1 .5 1 1 1 1-.5 1-1zM108 105c.6 0 1-.5 1-1 0-.6-.5-1-1-1s-1 .5-1 1 .5 1 1 1zm5.9-7.3c0-.6-.5-1-1-1s-1 .5-1 1 .5 1 1 1 1-.4 1-1zm-2.4 4c.6 0 1-.5 1-1s-.5-1-1-1-1 .5-1 1 .5 1 1 1zm-.7 1.1c-.6 0-1 .5-1 1s.5 1 1 1 1-.5 1-1-.4-1-1-1zm6-6.1c0-.6-.5-1-1-1s-1 .5-1 1 .5 1 1 1 1-.5 1-1zm-1.3 2.9c0-.6-.5-1-1-1s-1 .5-1 1 .5 1 1 1 1-.4 1-1zm-1.8 4.2c.6 0 1-.5 1-1s-.5-1-1-1-1 .5-1 1 .4 1 1 1zm4-8.2c0 .6.5 1 1 1s1-.5 1-1c0-.6-.5-1-1-1s-1 .5-1 1zm-1.3 3c0 .6.5 1 1 1s1-.5 1-1c0-.6-.5-1-1-1s-1 .4-1 1zm.3 4.2c.6 0 1-.5 1-1s-.5-1-1-1-1 .5-1 1 .4 1 1 1zm4.8-9.4c-.6 0-1 .5-1 1s.5 1 1 1 1-.5 1-1-.4-1-1-1zm-2.3 4c0 .6.5 1 1 1s1-.5 1-1-.5-1-1-1-1 .4-1 1zm1.3 3.2c0-.6-.5-1-1-1s-1 .5-1 1 .5 1 1 1 1-.4 1-1zm-20.5 2.2c-.6 0-1 .5-1 1s.5 1 1 1 1-.5 1-1-.4-1-1-1zm-1.4 1.5c0-.6-.5-1-1-1s-1 .5-1 1 .5 1 1 1 1-.4 1-1zm17.8-28.8c.3-.5.2-1.1-.3-1.4-.5-.3-1.1-.2-1.4.3-.3.5-.2 1.1.3 1.4.4.3 1.1.2 1.4-.3zm-2.2-1.5c.3-.5.2-1.1-.3-1.4-.5-.3-1.1-.2-1.4.3s-.2 1.1.3 1.4c.5.3 1.1.2 1.4-.3zm-2.2-1.1c.3-.5.2-1.1-.3-1.4-.5-.3-1.1-.2-1.4.3-.3.5-.2 1.1.3 1.4.4.2 1.1.1 1.4-.3zm-2.3-1c.4-.4.5-1 .2-1.3s-.9-.3-1.3.1-.5 1-.2 1.3c.3.4.9.3 1.3-.1zm-3.3-.8c.3.3.9.3 1.3-.1s.5-1 .2-1.3c-.3-.3-.9-.3-1.3.1s-.5 1-.2 1.3zm.1 2.8c.4-.4.5-1 .2-1.3s-.9-.3-1.3.1-.5 1-.2 1.3c.3.3.9.3 1.3-.1zm-1.9 2.8c.4-.4.5-1 .2-1.3-.3-.3-.9-.3-1.3.1s-.5 1-.2 1.3c.3.3.9.2 1.3-.1zm-1.7-.9c.4-.4.5-1 .2-1.3-.3-.3-.9-.3-1.3.1s-.5 1-.2 1.3c.2.3.8.3 1.3-.1zm1.9-4.1c-.3-.3-.9-.3-1.3.1s-.5 1-.2 1.3c.3.3.9.3 1.3-.1.4-.3.5-.9.2-1.3zm-.2-1.5c.3.3.9.3 1.3-.1s.5-1 .2-1.3c-.3-.3-.9-.3-1.3.1s-.5 1-.2 1.3zm-1.5-1.1c.2.3.7.2 1.1-.2s.5-.8.3-1.1c-.2-.3-.7-.2-1.1.2-.4.4-.6.9-.3 1.1zm-.3 3c.4-.3.5-.8.3-1.1-.2-.3-.7-.2-1.1.2-.4.3-.5.8-.3 1.1.3.2.8.2 1.1-.2z"/><ellipse transform="rotate(-42.22 100.568 74.307)" fill="#9B8761" cx="100.6" cy="74.3" rx=".9" ry=".6"/><path fill="#9B8761" d="M99.4 74.2c.4-.3.5-.8.3-1.1-.2-.3-.7-.2-1.1.2-.4.3-.5.8-.3 1.1.2.2.7.1 1.1-.2zm-1.1-1.3c.4-.3.5-.8.3-1.1-.2-.3-.7-.2-1.1.2-.4.3-.5.8-.3 1.1.2.2.7.1 1.1-.2zm-1.4-1.3c.4-.3.5-.8.3-1.1-.2-.3-.7-.2-1.1.2s-.5.8-.3 1.1c.2.3.7.2 1.1-.2zm-.3-2.9c-.2-.3-.7-.2-1.1.2s-.5.8-.3 1.1c.2.3.7.2 1.1-.2.4-.4.5-.9.3-1.1zm-.8-1c.4-.3.5-.8.3-1.1-.2-.3-.7-.2-1.1.2-.4.3-.5.8-.3 1.1.2.2.7.1 1.1-.2zm.7-2.1c.4-.3.5-.8.3-1.1-.2-.3-.7-.2-1.1.2-.4.3-.5.8-.3 1.1.2.2.7.1 1.1-.2zm.7-2.3c.4-.3.5-.8.3-1.1-.2-.3-.7-.2-1.1.2-.4.3-.5.8-.3 1.1.3.2.8.2 1.1-.2zm3.4 6.9c-.4.3-.5.8-.3 1.1.2.3.7.2 1.1-.2.4-.3.5-.8.3-1.1-.2-.2-.7-.1-1.1.2zm-1.6.2c.2.3.7.2 1.1-.2.4-.3.5-.8.3-1.1-.2-.3-.7-.2-1.1.2-.4.3-.6.8-.3 1.1zM97.9 68c-.4.3-.5.8-.3 1.1.2.3.7.2 1.1-.2.4-.3.5-.8.3-1.1-.2-.2-.7-.1-1.1.2zm.3-.9c.4-.3.5-.8.3-1.1-.2-.3-.7-.2-1.1.2-.4.3-.5.8-.3 1.1.2.2.7.1 1.1-.2zm-.7-2.2c.2.3.7.2 1.1-.2.4-.3.5-.8.3-1.1-.2-.3-.7-.2-1.1.2-.4.3-.5.8-.3 1.1zm1.2-3.4c-.1.1-.2.1-.3.2-.4.3-.5.8-.3 1.1.2.3.7.2 1.1-.2.4-.3.5-.8.3-1.1l-.1-.1c-.2.1-.4.1-.7.1zm3.1 6.7c.2.2.7.2 1-.1.4-.3.5-.8.2-1-.2-.2-.7-.2-1 .1-.3.3-.4.7-.2 1zm-1.2-1.3c.2.2.7.2 1-.1.4-.3.5-.8.2-1-.2-.2-.7-.2-1 .1-.3.3-.4.8-.2 1zm-.3-2.3c-.4.3-.5.8-.2 1s.7.2 1-.1.5-.8.2-1c-.2-.3-.7-.2-1 .1zm.5-.9c.4-.3.5-.8.2-1-.2-.2-.7-.2-1 .1-.4.3-.5.8-.2 1 .2.3.7.2 1-.1zm-.3-2c.2.2.7.2 1-.1-.4 0-.7-.1-1.1-.1 0 .1 0 .2.1.2zm13.2 15.5c.3-.5.2-1.1-.3-1.4-.5-.3-1.1-.2-1.4.3-.3.5-.2 1.1.3 1.4.4.3 1 .1 1.4-.3zm-2.5-1.4c.3-.5.2-1.1-.3-1.4s-1.1-.2-1.4.3c-.3.5-.2 1.1.3 1.4.4.3 1.1.2 1.4-.3zm-2.4-1c.3-.5.2-1.1-.3-1.4-.5-.3-1.1-.2-1.4.3-.3.5-.2 1.1.3 1.4.5.3 1.1.2 1.4-.3zm2.4 4.6c.3-.5.2-1.1-.3-1.4s-1.1-.2-1.4.3c-.3.5-.2 1.1.3 1.4.5.3 1.1.2 1.4-.3zm7.6-2.2c.3-.5.2-1.1-.3-1.4-.5-.3-1.1-.2-1.4.3-.3.5-.2 1.1.3 1.4.5.2 1.1.1 1.4-.3zm-4.1 1.9c.5.3 1.1.2 1.4-.3.3-.5.2-1.1-.3-1.4-.5-.3-1.1-.2-1.4.3-.3.4-.2 1.1.3 1.4zm-1 2c.3-.5.2-1.1-.3-1.4-.5-.3-1.1-.2-1.4.3-.3.5-.2 1.1.3 1.4.4.2 1.1.1 1.4-.3zm5.7-1.7c.5.3 1.1.2 1.4-.3.3-.5.2-1.1-.3-1.4-.5-.3-1.1-.2-1.4.3-.3.5-.1 1.1.3 1.4zm-1.3 1.4c.3-.5.2-1.1-.3-1.4-.5-.3-1.1-.2-1.4.3-.3.5-.2 1.1.3 1.4.4.3 1.1.2 1.4-.3zm-2.4 2.2c.3-.5.2-1.1-.3-1.4-.5-.3-1.1-.2-1.4.3-.3.5-.2 1.1.3 1.4.4.3 1.1.2 1.4-.3zm7.5-2.4c.3-.5.2-1.1-.3-1.4-.5-.3-1.1-.2-1.4.3-.3.5-.2 1.1.3 1.4s1.1.2 1.4-.3zm-2.7 1.7c.3-.5.2-1.1-.3-1.4-.5-.3-1.1-.2-1.4.3-.3.5-.2 1.1.3 1.4.4.3 1 .2 1.4-.3zm-3.9 2.5c.5.3 1.1.2 1.4-.3.3-.5.2-1.1-.3-1.4-.5-.3-1.1-.2-1.4.3-.3.4-.1 1.1.3 1.4zm9.6-3.4c.3-.5.2-1.1-.3-1.4-.5-.3-1.1-.2-1.4.3-.3.5-.2 1.1.3 1.4.4.3 1.1.2 1.4-.3zm-4.4.5c-.3.5-.2 1.1.3 1.4.5.3 1.1.2 1.4-.3.3-.5.2-1.1-.3-1.4s-1.1-.1-1.4.3zm-2.5 2.3c-.3.5-.2 1.1.3 1.4s1.1.2 1.4-.3c.3-.5.2-1.1-.3-1.4-.4-.3-1-.2-1.4.3zm5.5-1.4c-.3.5-.2 1.1.3 1.4.5.3 1.1.2 1.4-.3.3-.5.2-1.1-.3-1.4-.4-.3-1.1-.2-1.4.3zm-2.4 2.2c-.3.5-.2 1.1.3 1.4.5.3 1.1.2 1.4-.3.3-.5.2-1.1-.3-1.4s-1.1-.2-1.4.3zm3 .6c-.3.5-.2 1.1.3 1.4.5.3 1.1.2 1.4-.3.3-.5.2-1.1-.3-1.4-.5-.3-1.1-.2-1.4.3zm-16.3-7.2c.3-.5.2-1.1-.3-1.4s-1.1-.2-1.4.3c-.3.5-.2 1.1.3 1.4.5.3 1.1.2 1.4-.3zm-2.2-1c.3-.5.2-1.1-.3-1.4-.5-.3-1.1-.2-1.4.3-.3.5-.2 1.1.3 1.4s1.1.2 1.4-.3zm18.9 74.3c-.5.3-.6 1-.3 1.4.3.5 1 .6 1.4.3.5-.3.6-1 .3-1.4-.3-.5-.9-.6-1.4-.3zm-.6 3.6c.5-.3.6-1 .3-1.4-.3-.5-1-.6-1.4-.3-.5.3-.6 1-.3 1.4.3.5.9.6 1.4.3zm-3.1.4c-.5.3-.6 1-.3 1.4.3.5 1 .6 1.4.3.5-.3.6-1 .3-1.4-.3-.5-.9-.7-1.4-.3zm-.6 3.4c.4-.2.6-.7.4-1.2s-.7-.8-1.1-.7c-.4.2-.6.7-.4 1.2s.6.9 1.1.7zm-1.6 1.5c.4-.2.6-.7.4-1.2-.2-.5-.7-.8-1.1-.7-.4.2-.6.7-.4 1.2.2.6.7.9 1.1.7zm2.2 2.2c.4-.2.6-.7.4-1.2-.2-.5-.7-.8-1.1-.7-.4.2-.6.7-.4 1.2s.7.8 1.1.7zm1.2.9c-.4.2-.6.7-.4 1.2s.7.8 1.1.7c.4-.2.6-.7.4-1.2s-.7-.9-1.1-.7zm-1.5 1.3c-.4.2-.6.7-.4 1.2s.7.8 1.1.7c.4-.2.6-.7.4-1.2-.1-.6-.6-.9-1.1-.7zm-1.2-.8c.4-.2.6-.7.4-1.2-.2-.5-.7-.8-1.1-.7-.4.2-.6.7-.4 1.2.2.6.7.9 1.1.7zm-2.2-2.2c.4-.2.6-.7.4-1.2-.2-.5-.7-.8-1.1-.7-.4.2-.6.7-.4 1.2.2.5.7.8 1.1.7zm-1.6 1c.3-.1.4-.6.3-1.1-.2-.5-.6-.8-.9-.6-.3.1-.4.6-.3 1.1.2.4.6.7.9.6zm2.5 2.4c.3-.1.4-.6.3-1.1-.2-.5-.6-.8-.9-.6-.3.1-.4.6-.3 1.1.1.4.5.7.9.6zm1.1.9c-.3.1-.4.6-.3 1.1.2.5.6.8.9.6s.4-.6.3-1.1c-.1-.4-.6-.7-.9-.6zm-1.1 1.3c-.3.1-.4.6-.3 1.1.2.5.6.8.9.6.3-.1.4-.6.3-1.1-.2-.5-.6-.7-.9-.6zm-1.7.6c-.3.1-.4.6-.3 1.1.2.5.6.8.9.6.3-.1.4-.6.3-1.1-.1-.4-.5-.7-.9-.6zm-1.6.8c-.3.1-.4.6-.3 1.1.2.5.6.8.9.6.3-.1.4-.6.3-1.1-.2-.4-.6-.7-.9-.6zm-2-.2c-.3.1-.4.6-.3 1.1.2.5.6.8.9.6.3-.1.4-.6.3-1.1-.1-.4-.5-.7-.9-.6zm-2.1-.2c-.3.1-.4.6-.3 1.1.2.5.6.8.9.6.3-.1.4-.6.3-1.1-.1-.5-.5-.8-.9-.6zm-1.7-1.5c-.3.1-.4.6-.3 1.1.2.5.6.8.9.6.3-.1.4-.6.3-1.1-.2-.4-.6-.7-.9-.6zm-1.8-1.5c-.3.1-.4.6-.3 1.1.2.5.6.8.9.6.3-.1.4-.6.3-1.1-.2-.4-.6-.7-.9-.6zm-1.6-1.8c-.3.1-.4.6-.3 1.1s.6.8.9.6.4-.6.3-1.1c-.2-.5-.6-.8-.9-.6zm-1.6-1.7c-.3.1-.4.6-.3 1.1.2.5.6.8.9.6s.4-.6.3-1.1c-.2-.4-.6-.7-.9-.6zm-1.5-2.3c-.3.1-.4.6-.3 1.1s.6.8.9.6c.3-.1.4-.6.3-1.1-.2-.4-.6-.7-.9-.6zm-.5-1.6c-.2-.5-.6-.8-.9-.6-.3.1-.4.6-.3 1.1.2.5.6.8.9.6.4-.1.5-.6.3-1.1zm-2.3-3.2c-.3.1-.3.6-.2 1.1s.6.8.8.7c.3-.1.3-.6.2-1.1-.1-.5-.5-.8-.8-.7zm-1.3-2.3c-.2.1-.3.5-.1 1 .2.5.5.8.7.7.2-.1.3-.5.1-1s-.5-.8-.7-.7zm-1.2-2.3c-.2.1-.3.5-.1 1 .2.5.5.8.7.7s.3-.5.1-1c-.2-.5-.5-.8-.7-.7zm19.5 15.9c.3-.1.4-.6.3-1.1-.2-.5-.6-.8-.9-.6-.3.1-.4.6-.3 1.1.1.4.6.7.9.6zm-1.4 1c.3-.1.4-.6.3-1.1-.2-.5-.6-.8-.9-.6-.3.1-.4.6-.3 1.1.1.4.6.7.9.6zm-2.3-1c-.3.1-.4.6-.3 1.1.2.5.6.8.9.6.3-.1.4-.6.3-1.1s-.6-.7-.9-.6zm-2-.2c-.3.1-.4.6-.3 1.1.2.5.6.8.9.6.3-.1.4-.6.3-1.1-.1-.4-.5-.7-.9-.6zm-2-1.3c-.3.1-.4.6-.3 1.1.2.5.6.8.9.6s.4-.6.3-1.1-.6-.7-.9-.6zm-1.7-1.3c-.3.1-.4.6-.3 1.1s.6.8.9.6c.3-.1.4-.6.3-1.1s-.6-.7-.9-.6zm-1.7-2c-.3.1-.4.6-.3 1.1.2.5.6.8.9.6.3-.1.4-.6.3-1.1-.1-.4-.5-.7-.9-.6zm-.3-1.2c-.2-.5-.6-.8-.9-.6s-.4.6-.3 1.1c.2.5.6.8.9.6s.5-.6.3-1.1zm-1.5-2.2c-.2-.5-.6-.8-.9-.6-.3.1-.4.6-.3 1.1s.6.8.9.6.5-.6.3-1.1zm-1.9-1.4c.3-.1.4-.6.3-1.1-.2-.5-.6-.8-.9-.6s-.4.6-.3 1.1c.1.5.6.8.9.6zm-2.2-4.4c-.3.1-.4.6-.3 1.1.2.5.6.8.9.6.3-.1.4-.6.3-1.1-.1-.5-.6-.8-.9-.6zm-.4-2c-.2-.5-.6-.8-.9-.6-.3.1-.4.6-.3 1.1.2.5.6.8.9.6s.5-.6.3-1.1zm15.2 12.5c-.2-.4-.6-.7-.9-.6-.3.1-.4.6-.2 1s.6.7.9.6c.3-.1.4-.6.2-1zm-1.6.6c-.2-.4-.6-.7-.9-.6-.3.1-.4.6-.2 1s.6.7.9.6c.3-.1.4-.5.2-1zm-1.6 1.2c.3-.1.4-.6.2-1s-.6-.7-.9-.6c-.3.1-.4.6-.2 1s.6.7.9.6zm-1.8-.5c.3-.1.4-.6.2-1s-.6-.7-.9-.6c-.3.1-.4.6-.2 1 .2.5.6.7.9.6zm-2.6-2c.2.4.6.7.9.6.3-.1.4-.6.2-1s-.6-.7-.9-.6c-.2.1-.3.5-.2 1zm-.1-2.3c-.2-.4-.6-.7-.9-.6-.3.1-.4.6-.2 1s.6.7.9.6c.3-.1.4-.5.2-1zm-1.7-.6c.3-.1.4-.6.2-1s-.6-.7-.9-.6c-.3.1-.4.6-.2 1s.6.7.9.6zm-1.5-2.2c.3-.1.4-.6.2-1s-.6-.7-.9-.6c-.3.1-.4.6-.2 1 .2.5.6.7.9.6zm-1.3-3.8c-.2-.4-.6-.7-.9-.6-.3.1-.4.6-.2 1s.6.7.9.6c.3-.1.4-.5.2-1zm-1.4-1.8c.3-.1.4-.6.2-1s-.6-.7-.9-.6c-.3.1-.4.6-.2 1 .2.5.6.7.9.6zm24.9 5.8c.5-.3.6-1 .3-1.4-.3-.5-1-.6-1.4-.3-.5.3-.6 1-.3 1.4.3.5.9.6 1.4.3zm-1.3 2c.5-.3.6-1 .3-1.4-.3-.5-1-.6-1.4-.3-.5.3-.6 1-.3 1.4.3.5.9.6 1.4.3zm-1.8 1.9c.5-.3.6-1 .3-1.4-.3-.5-1-.6-1.4-.3-.5.3-.6 1-.3 1.4.3.5 1 .6 1.4.3zm2-1.4c-.5.3-.6 1-.3 1.4.3.5 1 .6 1.4.3.5-.3.6-1 .3-1.4-.3-.4-1-.6-1.4-.3zm-1.4 2.5c-.5.3-.6 1-.3 1.4.3.5 1 .6 1.4.3.5-.3.6-1 .3-1.4-.3-.5-.9-.6-1.4-.3z"/><path fill="#2F3558" d="M79.7 163.2c-3.2 1.8-8.1 4.3-13.7 6.8 4.9 3 9.9 6.7 14.7 10.8-.9-4.9-1.6-11.9-1-17.6z"/><path fill="#373144" d="M98.7 61.5h1.7c.4 0 .7 0 1.1.1 3.8.4 7.4 2.1 9.5 3 5.9 2.6 16.9 1.6 16.9 1.6v-1.8s-10.2.6-21.1-4.2C96 55.5 86.1 65.1 85.1 75c-.1 1.3-.3 3.1-.5 5.2C87.1 66 93 61.9 98.7 61.5z"/><path fill="#504960" d="M80.8 180.8c24.7 20.8 47.2 52.1 47.2 52.1v-44.6c-33.6 0-38-20.6-38-20.6 15.4 13.4 38 11 38 11v-4.2s-1.9 2.1-14.4-2.2c-12.5-4.4-23.6-27.5-28.4-41.5-2.3-6.6-2.6-17.3-2.2-27.7 0-.5 0-.9.1-1.4v-.8c0-.5 0-1 .1-1.5 0-.8.1-1.5.1-2.2 0-.6.1-1.2.1-1.8 0-.3 0-.6.1-1 0-.5.1-1 .1-1.5 0-.3 0-.6.1-.9 0-.4.1-.7.1-1.1.1-1.1.2-2.1.3-3.1 0-.4.1-.8.1-1.3.1-.7.1-1.3.2-1.9 0-.4.1-.9.1-1.3.1-1.1.2-2.2.3-3.2.2-2.1.4-3.8.5-5.2 1-9.9 10.9-19.5 21.7-14.7 10.9 4.8 21.1 4.2 21.1 4.2V8.3c-41.5 0-53 43.9-51.4 55.4 1.6 11.5-1.3 19.2-1.6 38.3-.3 19.2 3.8 32.3 6.7 36.4 2.9 4.2 2.9 12.1-.3 18.5-.8 1.7-1.3 3.8-1.6 6.1-.8 5.9-.1 12.9.9 17.8z"/><path fill="#403A4E" d="M89.9 167.8s4.4 20.6 38 20.6v-9.6c.1 0-22.5 2.4-38-11z"/><path fill="#1F182D" d="M58.2 231.3c-.3 1.1-.6 2.3-.9 3.5 5.3 3.5 10.8 6.6 16.6 9.3.4-.1.7-.2 1.1-.4-6-4.1-11.6-8.3-16.8-12.4z"/><path fill="#1F203A" d="M74 244.1c1.7.8 3.4 1.5 5.1 2.2-1.3-.9-2.7-1.7-4-2.6-.4.1-.7.2-1.1.4zm-39.1-32.4c-.5-.4-1-.7-1.5-1.1-.3.9-.5 1.8-.8 2.8 7.3 8.1 15.6 15.3 24.7 21.4.3-1.2.6-2.3.9-3.5-10.1-8.2-18.2-15.6-23.3-19.6z"/><path fill="#1F1015" d="M28 207.9c1.5 1.9 3 3.7 4.6 5.5.3-.9.5-1.9.8-2.8-1.6-1.1-3.4-2-5.4-2.7z"/><path fill="#3D3242" d="M76.1 190.4l-.3-1.9s-1.8.3-3.1-1l-.4 1.4c.3.3 2.2 1.8 2.5 1.8.3.1 1.3-.3 1.3-.3zm-16 19.5c5.9-3.3 5.5-7.3 6.2-10.9.8-3.6-2.7-6.8-2.7-6.8s-2.4-.1-5.2.5c-2.8.6-12.1 6.2-12.1 6.2l-3.1 2.8s-.1 2 .5 3.4c.5 1.4.5 3.7.5 3.7 6.6 4.4 10.1 4.4 15.9 1.1zM49.8 180c-1.2 0-2.3 1.2-3.7 1.8-1.4.5-5.2-.1-8.2 1-3 1-.4 5.5-.4 5.5 1-1 9.1-2.1 9.1-2.1s4.4-6.2 3.2-6.2zm44.5 26.4c-2.7 0-5.3-.3-6.6.5-1.2.8-3.9 1.4-7.1 1.5 0 0-7 4.3-8.8 5.8-1.7 1.5-4.4 5.5-6.4 6.8-1.9 1.2 1.4 6.6 3.1 7.2 1.8.6 7.5.9 9.4 1.8 1.9 1 4.8.7 7.3-.5s4.4-3.5 5.8-4.1c1.4-.6 4.2-2.9 5.3-3.7 1-.8 6.6-6.4 4.4-9.8-2-3.4-3.7-5.5-6.4-5.5zm18.2 31c1.9 1.8 8 .8 8 .8-.3-2.6-3.5-4.7-3.5-4.7-.5 1.7-4.9 3.5-4.5 3.9z"/><path fill="#3D3242" d="M128 234.7v-1.8s-22.5-31.3-47.2-52.1c-4.9-4.1-9.8-7.8-14.7-10.8-1.6-1-3.3-1.9-4.9-2.7 0 0-28.8 3.2-50.2 12.5 4.5 10.1 10.2 19.5 17.1 28.1 2 .7 3.8 1.6 5.4 2.7.5.3 1 .7 1.5 1.1 5.1 4 13.1 11.5 23.3 19.6 5.1 4.1 10.8 8.3 16.9 12.4 1.3.9 2.6 1.7 4 2.6 2.1.9 4.3 1.7 6.5 2.5L91 245s-7.7-2-7.7-3.3v-3.4s5.2-1.6 8.3-3.8c3.2-2.2 11-9.2 11.6-9.3.6-.1 2.5-.6 2.5-.6s-.7-1.6 0-2.7c.7-1 2-1.3 2-1.3h2.5l1.1.7s-2.7 3-2.7 3.7-.1 2-.1 2-1.5-1.3-3.8 1.2-6.9 6.8-8.2 7.8c-1.2.9-4.8 2.5-5.8 2.9.3-.1 1 0 2.1.9 1.6 1.4 3 1.8 3.6 1.8.6 0 5.1-1.3 6.5-2.7s11.6-9.6 12.5-9.9c.9-.3 1.8-1.9 1.8-1.9s1.2 2.2 2.6 2.5c1.3.3 5.4 2.3 6.5 2.9 1 .6.7 2.7.7 2.7l-1.9.7-1.1 2.3s-3.3 1.8-4.2 4.6c0 0-5.1-.9-5.5 0s-1.9-.2-3.3-.6c-1.3-.4-4.1-.3-4.1-.3s-5.7 1.7-6.1 4.1h-2.5l-6.5 4.8c11.5 3.4 23.8 5.3 36.4 5.3v-21.4zm-55.1-56.6s1.2 1.1 1.3 1.9c.1.8-1.2 1.9-1.2 1.9-4.5-.8-7.4 1.4-7.4 1.4-.5-1.8.9-4.4.9-4.4.4-.8 6.4-.8 6.4-.8zm-25.6 37.1c-10.7-3.6-10.2-10.9-8.7-13 1.4-2.2 3.3-7 5-7.3 1.7-.3 2.9-.7 3.3-2.4 0 0-4.6 1.2-7.2.6-2.6-.5-5.5-1.2-6.3-.7-.8.5-4 2.9-4 2.9s1.2-11.7 7-16.1c5.7-4.3 10.5-2.7 15-4.9l4.5-2.3s2.5 2.1 0 4c0 0-2 11.5-3.1 13.5 0 0 9.8-6 14.5-2.8l2-3.1s7-2.2 9.8 1.2c2.8 3.4 1 7.7 1 7.7s-6.3 1.3-7.1 3c-.8 1.7.1 7.3-5.1 12.4-5.2 5.1-9.9 11-20.6 7.3zm33.3 25.3s-5.2-2-6.9-.5c-.5.3-.9-2.6-.9-2.6l1.4-1.4s5.6-1.3 7.3 1.4l-.9 3.1zm11-9.2c-1.4.8-5.2 1.6-6.8 1.8s-13.5 2.3-20.4.9c0 0-.8-2.5-2-3.4-1.3-.9-4.3-1.8-3.1-5.3 1.2-3.6 1.4-7.9 8.1-15 0 0 4.3-4.8 5.8-4.8s4.3-1.3 5.3-2 1.3-1 3.9-1.3c2.6-.3 5.9-1.2 5.9-1.2s1.8 1.6 2.6 1.2c.8-.4 3.2.2 3.8.5.6.3 7.9 9.5 9.3 10.5 1.4 1 1.4 4.8 1.4 4.8s-12.3 12.5-13.8 13.3z"/><path fill="#958F8E" d="M65.6 183.3s2.9-2.1 7.4-1.4c0 0 1.3-1.1 1.2-1.9-.1-.8-1.3-1.9-1.3-1.9s-6.1.1-6.5.8c.1 0-1.3 2.6-.8 4.4zm38.5 30c-1.4-1-8.7-10.1-9.3-10.5-.6-.3-3.1-1-3.8-.5-.8.4-2.6-1.2-2.6-1.2s-3.3.9-5.9 1.2c-2.6.3-2.9.6-3.9 1.3-1 .7-3.8 2-5.3 2s-5.8 4.8-5.8 4.8c-6.8 7.1-6.9 11.5-8.1 15-1.2 3.6 1.8 4.4 3.1 5.3 1.3.9 2 3.4 2 3.4 7 1.4 18.9-.7 20.4-.9s5.3-1 6.8-1.8c1.4-.8 13.9-13.3 13.9-13.3s-.1-3.9-1.5-4.8zm-7.6 8.5c-1 .8-3.8 3.1-5.3 3.7-1.4.6-3.3 2.9-5.8 4.1-2.5 1.2-5.4 1.4-7.3.5-1.9-1-7.6-1.2-9.4-1.8-1.8-.6-5.1-6-3.1-7.2 1.9-1.2 4.6-5.3 6.4-6.8 1.7-1.5 8.8-5.8 8.8-5.8 3.2-.1 5.9-.8 7.1-1.5 1.2-.8 3.9-.5 6.6-.5 2.7 0 4.4 2.1 6.6 5.5 2 3.4-3.6 9-4.6 9.8zm1.6 24.1h2.5c.4-2.4 6.1-4.1 6.1-4.1s2.8-.1 4.1.3c1.3.4 2.9 1.5 3.3.6s5.5 0 5.5 0c.9-2.8 4.2-4.6 4.2-4.6l1.1-2.3 1.9-.7s.3-2-.7-2.7c-1-.6-5.1-2.6-6.5-2.9-1.3-.3-2.6-2.5-2.6-2.5s-.9 1.6-1.8 1.9c-.9.3-11.2 8.6-12.5 9.9s-5.8 2.7-6.5 2.7c-.6 0-2-.4-3.6-1.8-1.1-1-1.7-1-2.1-.9 1-.4 4.7-2 5.8-2.9 1.3-1 5.9-5.2 8.2-7.8s3.8-1.2 3.8-1.2.1-1.3.1-2 2.7-3.7 2.7-3.7l-1.1-.7h-2.5s-1.3.3-2 1.3 0 2.7 0 2.7-1.8.5-2.5.6c-.6.1-8.4 7.2-11.6 9.3-3.2 2.2-8.3 3.8-8.3 3.8v3.4c0 1.2 7.7 3.3 7.7 3.3l-5.3 3.8c2 .7 3.9 1.3 5.9 1.9l6.7-4.7zm18.9-12.5s3.2 2.1 3.5 4.7c0 0-6 1-8-.8-.4-.3 4-2.1 4.5-3.9zm-42.8 2.5l-1.4 1.4s.4 2.9.9 2.6c1.7-1.5 6.9.5 6.9.5l.8-3.1c-1.6-2.6-7.2-1.4-7.2-1.4z"/><path fill="#958F8E" d="M67.9 208c5.2-5.1 4.3-10.7 5.1-12.4.8-1.7 7.1-3 7.1-3s1.8-4.3-1-7.7c-2.8-3.4-9.8-1.2-9.8-1.2l-2 3.1c-4.7-3.3-14.5 2.8-14.5 2.8 1-2 3.1-13.5 3.1-13.5 2.5-1.9 0-4 0-4l-4.5 2.3c-4.5 2.3-9.2.6-15 4.9-5.7 4.3-7 16.1-7 16.1s3.2-2.3 4-2.9c.8-.5 3.7.1 6.3.7 2.6.5 7.2-.6 7.2-.6-.4 1.7-1.6 2.1-3.3 2.4-1.7.3-3.6 5.1-5 7.3s-1.9 9.4 8.7 13c10.7 3.6 15.4-2.3 20.6-7.3zm4.7-20.5c1.3 1.3 3.1 1 3.1 1l.3 1.9s-1 .5-1.4.4c-.3-.1-2.3-1.6-2.5-1.8l.5-1.5zm-26-1.4s-8.1 1.1-9.1 2.1c0 0-2.6-4.4.4-5.5 3-1 6.8-.4 8.2-1 1.4-.5 2.5-1.8 3.7-1.8s-3.2 6.2-3.2 6.2zm-2.3 22.8s0-2.3-.5-3.7c-.5-1.4-.5-3.4-.5-3.4l3.1-2.8s9.3-5.6 12.1-6.2c2.8-.6 5.2-.5 5.2-.5s3.5 3.2 2.7 6.8c-.8 3.6-.3 7.6-6.2 10.9-5.9 3.2-9.4 3.2-15.9-1.1z"/></svg>