<svg xmlns="http://www.w3.org/2000/svg" width="256" height="256"><circle fill="#B1B3B5" cx="128" cy="128" r="128"/><path fill="#251918" d="M187.1 67.9c3.5 8 9.3 28.4 15 36.7 2.5 3.6 3.8 11.6 4.5 19.5.5-6.7 1.1-12.4 1.4-15.4 1-10.2-11-23.8-13.9-37.2-1-4.8-1.6-9.6-2.2-14.1-5.1-4.9-14.5-13.6-18.8-15.8-.1.1 10.5 18.3 14 26.3z"/><path fill="#251918" d="M149.4 23.5c11.2 4.2 28.1 11.8 32.3 16.9 2.4 3 6.6 9.4 9.8 14.2-1.2-6.8-3-12.6-7.9-16.1-8.6-6.2-14.8-14.8-27.3-23C143.8 7.4 128 8.4 128 8.4v21.1c0-.1 10.2-10.1 21.4-6zm26.2 52.4l-.2-.4v.3l.2.1zm29.4 78.8c0-4.7.2-10.3.6-16-2.7-9.2-7.7-25.3-12.1-32.8 0 0 2.9 36.8 11.5 48.8zm-19.8-21.3l1.6 15.3s-11.7-17.1-12.1-33.8c-.3 2.2-4.4 27.8-10.5 35.7-1.2 1.5-2.5 3.1-4.1 4.7l1 11.6c.9-.1 3.8-.2 4.8 3.6.1.3.2.7.4 1.2 0 0 11.6-.7 13.2 4.4.4 1.2.9 3.2 1.6 5.4 12.4 7.6 31.8 8 31.8 8s-3.8-15.8-6.7-23c-.7-1.9-1-5.9-1-11.1-5.8-4.6-19.3-16-20-22z"/><path fill="#C08C76" d="M139.8 171.1C134.7 173 128 173 128 173v9.6s30.2-4.2 32.7-15.6h.3l-1-11.6c-6.7 7-16 14.1-20.2 15.7z"/><path fill="#D7A990" d="M128 125.7s6.1.6 9.6-1.3c0 0 12.5 5.4 13.7 7.3 1.3 1.9 5.7 8.6 5.7 8.6s1-6.1 5.1-10.2 11.4-11.2 12.5-15.4v-1.6c.3-17.2-1.3-30-3.2-39.3l4 1.8v-.3c-1.2-3-8.8-22.3-13.3-27.1-4.8-5.1-18.5-4.5-22-4.2l4.5-2.6s-11.8 3.2-16.6 3.2v81.1z"/><path fill="#D7A990" d="M140.8 148.1s-2.9 2.6-2.2 4.5c.6 1.9 5.1 3.5 5.1 3.5s3.2-5.1 4.2-7.3 4.2-7.7 2.9-8.9c-1.3-1.3-2.9-6.1-2.9-6.1l-8-3.5-11.8 1.6v16.6c-.1-.1 9.5-2.3 12.7-.4z"/><path fill="#302423" d="M149.4 23.5c-11.2-4.2-21.4 5.9-21.4 5.9v15.5c4.8 0 16.6-3.2 16.6-3.2l-4.5 2.6c3.5-.3 17.2-1 22 4.2 4.4 4.7 12.1 24 13.3 27.1.1.3.2.4.2.4l-.2-.1-4-1.8c1.9 9.3 3.5 22 3.2 39.3v1.7c.4 16.7 12.1 33.8 12.1 33.8l-1.6-15.3c.8 6 14.2 17.4 19.9 22l2.5 2c-.9-.6-1.7-1.5-2.5-2.6-8.6-12-11.6-48.8-11.6-48.8 4.4 7.5 9.5 23.6 12.1 32.8 1.2 4.1 1.9 6.8 1.9 6.8s.1-10.7-.9-21.3c-.7-8-2.1-16-4.5-19.5-5.7-8.3-11.5-28.7-15-36.7-3.5-8-14-26.2-14-26.2 4.3 2.2 13.7 10.9 18.8 15.8 2.1 2 3.5 3.4 3.5 3.4s-1.7-2.7-4-6.2c-3.1-4.9-7.4-11.3-9.8-14.2-4-5.5-20.9-13.2-32.1-17.4z"/><path fill="#A2816F" d="M162.2 130.2c-4.2 4.2-5.1 10.2-5.1 10.2s-4.5-6.7-5.7-8.6c-1.3-1.9-13.7-7.3-13.7-7.3-3.5 1.9-9.6 1.3-9.6 1.3v6.1l11.8-1.6 8 3.5s1.6 4.8 2.9 6.1c1.3 1.3-1.9 6.7-2.9 8.9s-4.2 7.3-4.2 7.3-4.5-1.6-5.1-3.5c-.6-1.9 2.2-4.5 2.2-4.5-3.2-1.9-12.8.3-12.8.3V173s6.7 0 11.8-1.9c4.2-1.6 13.5-8.7 20.2-15.8 1.5-1.6 2.9-3.2 4.1-4.7 6.1-7.9 10.2-33.5 10.5-35.7v-.2.1c-1 4.2-8.3 11.3-12.4 15.4z"/><path fill="#535968" d="M184.4 192.4c-1.2-3.5-2.4-7.6-3.4-11-.7-2.2-1.2-4.2-1.6-5.4-1.6-5.1-13.2-4.4-13.2-4.4v.1c.1.4.3.8.4 1.3 1.9.1 9.6.7 10.1 5.6 2.8 8.1-4.7 41.3-4.7 41.3-9.6 3.5-44.1-1.6-44.1-1.6V256c31.6 0 60.6-11.5 82.9-30.5-13.6-2.9-26.6-4.3-26.6-4.3v-28.8z"/><path fill="#535968" d="M128 218v.3c.4-.1.8-.2 1.1-.4-.3.1-.7.1-1.1.1z"/><path fill="#121116" d="M176.8 178.6c-.5-4.9-8.1-5.5-10.1-5.6 1.2 3.3 3.1 8.2 4.6 12.1 3.4-3.9 5.4-6.5 5.5-6.5z"/><path fill="#16202A" d="M165.8 170.4c-1.1-3.7-3.9-3.7-4.8-3.6h-.3c-2.6 11.5-32.7 15.6-32.7 15.6V218h1.1c15.9-5.1 33.5-23.1 42.2-32.9-1.5-3.9-3.4-8.8-4.6-12.1-.2-.5-.3-.9-.4-1.3v-.1c-.2-.4-.4-.8-.5-1.2z"/><path fill="#22272B" d="M129.1 218c-.4.1-.8.3-1.1.4 0 0 34.5 5.1 44.1 1.6 0 0 7.5-33.2 4.7-41.3 0 0-2.1 2.6-5.5 6.4-8.7 9.7-26.3 27.7-42.2 32.9z"/><path fill="#323132" d="M185.6 189.4l-1.3 3v28.7s13 1.4 26.6 4.3l2.7-2.4c-13.9-3-28-5.1-28-5.1v-28.5z"/><path fill="#4D4B4C" d="M228.5 199.7c-13.3-4.3-28.2-8.2-42.8-10.3V218s14.2 2.1 28 5.1c5.1-4.6 9.9-9.7 14.2-15v-8.2c.2-.1.4-.2.6-.2z"/><path fill="#747178" d="M227.9 199.9v8.2c2.4-3 4.7-6.1 6.8-9.3-2.1 0-4.2.3-6.2.9-.2 0-.4.1-.6.2z"/><path fill="#0E0000" d="M68.9 67.9c3.5-8 14-26.2 14-26.2-4.2 2.3-13.6 10.9-18.8 15.8-.7 4.5-1.2 9.3-2.2 14.1C59 85 47.1 98.6 48 108.8c.3 3 .8 8.7 1.4 15.4.7-8 2.1-16 4.5-19.5 5.8-8.4 11.5-28.8 15-36.8zm11.5 8l.2-.1v-.3c-.1.3-.2.4-.2.4z"/><path fill="#0E0000" d="M106.6 23.5c11.2-4.2 21.4 5.9 21.4 5.9v-21s-15.8-1-28.3 7.2c-12.5 8.1-18.7 16.8-27.3 23-4.9 3.5-6.7 9.3-7.9 16.1 3.1-4.9 7.4-11.3 9.8-14.2 4.2-5.1 21.1-12.8 32.3-17zM89.8 171.6c.2-.5.3-.9.4-1.2 1.1-3.7 3.9-3.7 4.8-3.6l1-11.6c-1.5-1.6-2.9-3.2-4.1-4.7-6.1-7.9-10.2-33.5-10.5-35.7-.4 16.7-12.1 33.8-12.1 33.8l1.6-15.3c-.8 6-14.2 17.4-19.9 22 0 5.2-.3 9.2-1 11.1-2.9 7.2-6.7 23-6.7 23s19.4-.5 31.8-8c.7-2.2 1.2-4.2 1.6-5.4 1.5-5.1 13.1-4.4 13.1-4.4zm-39.4-32.9c.3 5.7.6 11.3.6 16 8.6-12 11.6-48.8 11.6-48.8-4.5 7.5-9.5 23.6-12.2 32.8z"/><path fill="#B17D6B" d="M128 182.6V173s-6.7 0-11.8-1.9c-4.2-1.6-13.5-8.7-20.2-15.8l-1 11.6h.3c2.5 11.5 32.7 15.7 32.7 15.7z"/><path fill="#C08C76" d="M116.2 130.2l-8 3.5s-1.6 4.8-2.9 6.1c-1.3 1.3 1.9 6.7 2.9 8.9s4.2 7.3 4.2 7.3 4.5-1.6 5.1-3.5c.6-1.9-2.2-4.5-2.2-4.5 3.2-1.9 12.8.3 12.8.3v-16.6l-11.9-1.5z"/><path fill="#C08C76" d="M93.8 130.2c4.2 4.2 5.1 10.2 5.1 10.2s4.5-6.7 5.7-8.6c1.3-1.9 13.7-7.3 13.7-7.3 3.5 1.9 9.6 1.3 9.6 1.3V44.9c-4.8 0-16.6-3.2-16.6-3.2l4.5 2.6c-3.5-.3-17.2-1-22 4.2-4.4 4.7-12.1 24-13.3 27.1v.3l4-1.8c-1.9 9.3-3.5 22-3.2 39.3v1.6c1.1 4 8.4 11.1 12.5 15.2z"/><path fill="#251918" d="M70.8 133.4l-1.6 15.3s11.7-17.1 12.1-33.8v-1.7c-.3-17.2 1.3-30 3.2-39.3l-4 1.8-.2.1.2-.4c1.2-3 8.8-22.3 13.3-27.1 4.8-5.1 18.5-4.5 22-4.2l-4.5-2.6s11.8 3.2 16.6 3.2V29.4s-10.2-10.1-21.4-5.9-28 11.9-32.1 17c-2.4 3-6.6 9.4-9.8 14.2-2.3 3.5-4 6.2-4 6.2s1.4-1.4 3.5-3.4C69.3 52.6 78.7 44 83 41.7c0 0-10.5 18.2-14 26.2s-9.3 28.4-15 36.7c-2.5 3.6-3.8 11.6-4.5 19.5-1 10.7-.9 21.3-.9 21.3s.7-2.7 1.9-6.8c2.7-9.2 7.7-25.3 12.1-32.8 0 0-3 36.8-11.6 48.8-.8 1.1-1.6 2-2.5 2.6 0 0 1-.7 2.5-2 5.6-4.4 19.1-15.8 19.8-21.8z"/><path fill="#806758" d="M116.2 171.1c5.1 1.9 11.8 1.9 11.8 1.9v-24.6s-9.6-2.2-12.8-.3c0 0 2.9 2.6 2.2 4.5-.6 1.9-5.1 3.5-5.1 3.5s-3.2-5.1-4.2-7.3-4.2-7.7-2.9-8.9c1.3-1.3 2.9-6.1 2.9-6.1l8-3.5 11.8 1.6v-6.1s-6.1.6-9.6-1.3c0 0-12.5 5.4-13.7 7.3-1.3 1.9-5.7 8.6-5.7 8.6s-1-6.1-5.1-10.2-11.4-11.2-12.5-15.4v-.1.2c.3 2.2 4.4 27.8 10.5 35.7 1.2 1.5 2.5 3.1 4.1 4.7 6.8 7.1 16.1 14.2 20.3 15.8z"/><path fill="#343945" d="M127.4 218.1l.6-.1h-1.1c.2 0 .4.1.5.1z"/><path fill="#343945" d="M126.9 218c-6.4-.3-13-2.8-19.1-6.2-10.6-3.5-22.4-7.4-27.2-9.1 0 0-4.2-15.9-1.3-24 .5-4.9 8.1-5.5 10.1-5.6.2-.5.3-.9.4-1.3v-.1s-11.6-.7-13.2 4.4c-.4 1.2-.9 3.2-1.6 5.4-1 3.4-2.2 7.5-3.4 11v28.7s-13 1.4-26.6 4.3c4.2 3.6 8.6 6.9 13.2 9.9l69.2-17.2c-.1-.1-.3-.2-.5-.2z"/><path fill="#4A505E" d="M127.4 218.1l-69.2 17.2c20.1 13.1 44 20.7 69.7 20.7v-37.7c-.1 0-.3-.1-.5-.2z"/><path fill="#4A505E" d="M127.4 218.1c.4.1.6.2.6.2v-.3l-.6.1z"/><path fill="#121116" d="M89.3 173c-1.9.1-9.6.7-10.1 5.6 0 0 2.1 2.6 5.5 6.4 1.6-3.8 3.5-8.7 4.6-12z"/><path fill="#06111B" d="M107.8 211.7c6.1 3.4 12.7 6 19.1 6.2-.4-.1-.7-.2-1.1-.4-3.4-1-10.4-3.3-18-5.8z"/><path fill="#06111B" d="M125.8 217.6c.4.1.8.3 1.1.4h1.1v-35.5s-30.2-4.2-32.7-15.6H95c-.9-.1-3.8-.2-4.8 3.6-.1.3-.2.7-.4 1.2v.1c-.1.4-.3.8-.4 1.3-1.2 3.3-3.1 8.2-4.6 12.1 8.4 9.4 25.4 26.8 41 32.4z"/><path fill="#12171B" d="M126.9 218c-.3-.1-.7-.2-1.1-.4.4.1.7.2 1.1.4.2.1.4.1.6.2.2.1.4.1.6.2 0 0-.2-.1-.6-.2-.2-.1-.4-.2-.6-.2zm-42.2-33c-3.4-3.8-5.5-6.4-5.5-6.4-2.8 8.1 1.3 24 1.3 24 4.8 1.8 16.6 5.7 27.2 9.1 7.6 2.5 14.6 4.8 18 5.9-15.5-5.6-32.5-23-41-32.6z"/><path fill="#171617" d="M71.6 192.4l-1.3-3V218s-14.2 2.1-28 5.1l2.7 2.4c13.6-2.9 26.6-4.3 26.6-4.3v-28.8z"/><path fill="#323132" d="M70.4 189.4c-14.6 2-29.5 5.9-42.8 10.3.2.1.4.1.6.2v8.2c4.3 5.4 9.1 10.4 14.2 15 13.9-3 28-5.1 28-5.1v-28.6z"/><path fill="#4D4B4C" d="M27.5 199.7c-2-.7-4.1-.9-6.2-.9 2.1 3.2 4.4 6.3 6.8 9.3v-8.2c-.2-.1-.4-.2-.6-.2z"/><path fill="#302423" d="M138.6 90.6s11.8-.3 15.3-1.9c3.5-1.6 13.4 4.8 13.4 4.8l-3.2-5s-7-6.4-11.2-4.9c-4.2 1.6-14.4 3.2-14.4 3.2s-3.4.6.1 3.8z"/><path fill="#251918" d="M117.1 90.6s-11.8-.3-15.3-1.9c-3.5-1.6-13.4 4.8-13.4 4.8l3.2-5s7-6.4 11.2-4.9c4.2 1.6 14.4 3.2 14.4 3.2s3.5.6-.1 3.8z"/></svg>