<svg xmlns="http://www.w3.org/2000/svg" width="256" height="256"><circle fill="#B2B4B5" cx="128" cy="128" r="128"/><path fill="#283D58" d="M140.6 218.1l-8.1 16 15.7 20.4c19.4-3.1 37.3-10.5 52.7-21.2-17.6-1-37.8-2.4-37.8-2.4l-22.5-12.8zm.5-5.8l.2-.6h-.4l.2.6z"/><path fill="#140E0C" d="M161.7 166.2c-.2 3.9-.1 8.3.6 12.5 11.7-6.3 7.4-16.3 7.4-16.3-.5-.7-1-1.4-1.6-2-1.8 1.8-3.8 3.6-6 5.4-.2.3-.3.3-.4.4z"/><path fill="#C08C76" d="M161.7 166.2c-10.4 8.4-33.7 13.4-33.7 13.4v5.1s14 .4 25-2.2l.3-.6c3.8-.9 6.7-2 9-3.2-.7-4.1-.8-8.5-.6-12.5z"/><path fill="#181A1E" d="M128 184.8v25.8h12.8l.2 1h.4l11.6-29c-11 2.6-25 2.2-25 2.2z"/><path fill="#0F2547" d="M140.6 218.1l-.1-.1v-4.2l.6-1.6-.1-.6-.2-1H128v33.6l7.4 11.5c4.3-.2 8.5-.7 12.7-1.4L132.5 234l8.1-15.9z"/><path fill="#1A232A" d="M140.4 213.9v4.2l.1.1 22.6 12.7s20.2 1.5 37.8 2.4c1.5-1 2.9-2 4.3-3.1-17.8-.9-42.4-2.5-42.4-2.5l-22.4-13.8z"/><path fill="#304764" d="M226.5 202.8l3.4 1.7.4.4c.1-.1.2-.3.3-.4l-4.1-1.7zm-33-13.8l-.5-.2c.1.2.1.3.1.3l.4-.1zm6.9 32.7l-24-1-15.4-10 12-16v-11.9h-.1l.1-.4v-.4h.1l1.1-5.2c.3-4.6.1-12-4.5-14.3 0 0 4.4 9.9-7.4 16.3-2.3 1.3-5.3 2.4-9 3.2l-.3.6-11.6 29-.2.6-.6 1.6 22.4 13.7s24.6 1.6 42.4 2.5c.3-.2.6-.5 1-.7-.6-.9-1.1-1.6-1.5-2.1-1.6-1.5-3-3.4-4.5-5.5z"/><path fill="#26252B" d="M128 256c2.5 0 5-.1 7.4-.2l-7.4-11.5V256z"/><path fill="#0F2547" d="M173 182.3l.1-.3h-.1v.3zm0 12.4l-12 16 15.3 10.1 24 1c-5.5-7.5-11.7-17.6-14.9-25.1-3.9-9.1-11.7-13.4-12.5-13.9l.1 11.9z"/><path fill="#211316" d="M229.8 204.6l-3.4-1.7 2.7 3.5c.3-.4.7-.9 1-1.3-.1-.4-.3-.5-.3-.5zm-4.9-2.4l1 .3-1.8-.9c.3.2.5.4.8.6zm-19.5 21.7l-2.5-5.5.7-.2c-1.9-2.6-3.5-5.1-4.7-7.5-6.1-11.8-20.1-31.3-20.1-31.3.1 0 .2.1.3.1-1.8-1.1-3.5-2.1-4.9-2.7l-1.1 5.2-.1.3-.1.4h.1c.8.4 8.5 4.8 12.5 13.9 3.3 7.5 9.5 17.6 14.9 25.1 1.5 2.1 2.9 3.9 4.2 5.5.4.5.9 1.2 1.5 2.1 1.2-1 2.5-1.9 3.6-2.9 0 0 0-.1-.1-.1-2.8-1.1-4.2-2.4-4.2-2.4z"/><path fill="#4B2A2C" d="M213.7 198.6l11.2 3.6c-.3-.2-.5-.4-.8-.6-1.1-.8-1.6-.9-1.6-.9l-12.5-6.5 3.7 4.4zm-14.8 12.1c1.2 2.4 2.9 4.9 4.7 7.5l5-1.5-1.4-2.9-5.3 1.2-1.2-2.8 3.3-2.7-2.3.4-2.6-6.1 9.3-5.2-6.1-8.4-5-2.6-3.8 1.3-.4.1s0-.1-.1-.3c-.6-1.1-3.2-5-14-9.3-.1 0-.2-.1-.3-.1.1.1 14.1 19.5 20.2 31.4zm29-2.7c.2-.2.4-.5.6-.7h-2.1l1.5.7zm-18.1 18.5s0-.1 0 0c0-.1 0-.1 0 0-.1-.1 0-.1 0 0z"/><path fill="#4B2A2C" d="M210.1 209.2l13.6-1-1.2-2.7 2.9 1.3-1.9-3-17.7 1.5.9 2.1 1.8-1.5z"/><path fill="#8F8887" d="M210.1 209.2l3.8 7.6 7-.6c1.5-1.5 2.9-3.1 4.3-4.8l-1.4-3.1-13.7.9z"/><path fill="#D1D3CA" d="M225.7 207.3l-.3-.5-2.9-1.3 1.2 2.7 1.4 3.1c1-1.1 1.9-2.2 2.8-3.4l-1.5-.7-.7.1zm-15.6 1.9l-1.6-3.2-1.8 1.5.7 1.7-3.4.5-3.3 2.7 1.2 2.8 5.3-1.2 1.4 2.9-5 1.5-.7.2 2.5 5.5s1.4 1.3 4.3 2.5h.1c3.9-3.2 7.6-6.7 11-10.3l-7 .6-3.7-7.7z"/><path fill="#A9ABA5" d="M226.5 202.8l-.1-.1-.4-.1-1-.3-11.2-3.6-3.6-4.3-3.8-4.5h-4.3l.4.5 6.1 8.4-9.3 5.2 2.6 6.1 2.3-.4 3.4-.5-.7-1.7-.9-2.1 17.7-1.4 1.9 3 .3.5h2.8c.2-.3.5-.6.7-.9l-2.9-3.8z"/><path fill="#2E3644" d="M178.1 75.4c2.9 4.8 5.5 15 5.5 15 .5-.1 1.1 0 1.5.1l.2-.1s-2.2-9.4-6.2-15.6l2.1-31.5-2.9-10.5c1.2 23-.2 42.6-.2 42.6z"/><path fill="#D8AA91" d="M146.1 164.4c9.5-2.5 17.6-9.1 22.5-14.1 3.2-9.3 3.4-31.1 3.4-38.7l-3.2 1.4v4.2s-18.2-2.6-23-3.8c-4.8-1.3-14.4-10.5-14.4-10.5H128V158c14.8 0 18.1 6.4 18.1 6.4z"/><path fill="#3C3E48" d="M167.3 29.2c.5 7.2 0 9.8-3.1 19.6s-.5 29.9-.5 29.9l2.4 2.7v-.1l2.4-3.1c.2-10.5 1.9-20.1 4.1-28.5 2.2-8.4.2-22.5.2-22.5l4.4 4.4c-3.2-5.1-10.6-10.4-14.9-13.2l.2 6.4 4.8 4.4z"/><path fill="#C08C76" d="M183.6 90.5c.1.3.7 4.4 0 6.5-.7 2.2-2.9 10.8-2.9 10.8h-.1l-1.7 24.7c1.7 0 3.3-.3 4.5-1.1 3.7-2.4 1.5-8.1 4.9-14.4 3.4-6.2 2.4-16.3 0-23.5-.7-2-1.8-2.8-3.2-3.1-.5 0-1 0-1.5.1z"/><path fill="#110809" d="M168.6 150.2c3.3-3.4 5.3-6 5.3-6 1.8-7 1.9-27.1 1.9-34.4l-3.8 1.6c0 7.8-.2 29.5-3.4 38.8z"/><path fill="#756766" d="M175.8 109.9c0 7.3-.1 27.4-1.9 34.4 0 0-1.9 2.6-5.3 6-4.9 5-13 11.7-22.5 14.1 0 0-3.2-6.4-18.1-6.4v21.7s23.3-5 33.7-13.4c.1-.1.2-.2.4-.3 2.2-1.8 4.2-3.7 6-5.4 6.8-6.6 10.9-12.1 10.9-12.1l1.9-12.8-1.9-3.1 1.7-24.7-4.9 2z"/><path fill="#383238" d="M131.4 102.7s9.6 9.3 14.4 10.5c4.8 1.3 23 3.8 23 3.8v-4.2l-.2.1s-19.2-3.4-24.7-5.7S132.1 97 132.1 97H128v5.7h3.4z"/><path fill="#304764" d="M132.1 55.8l-4.1-9.6v9.6z"/><path fill="#304764" d="M134.5 35.7l13.7 36.2h-10.1l-3.6-7.2H128v17.8s4.5.3 10.2 0 25.5-3.7 25.5-3.7-2.6-20.1.5-29.9 3.6-12.5 3.1-19.6l-4.8-4.3-.2-6.4v-.8S152 10.4 128 10.4v25.4h6.5v-.1z"/><path fill="#304764" d="M172.6 49.8c-2.2 8.4-3.8 18-4.1 28.5l-2.4 3.1v.1l6.7 7.5v5.3l-8.1 8.5s-17.6.2-20.1 0c-2.6-.2-9.3-7.2-9.3-7.2L133 89h-5v8h4.1s6.2 7.9 11.7 10.3 24.7 5.7 24.7 5.7l.2-.1 3.2-1.4 3.8-1.6 4.8-2.1h.1s2.2-8.6 2.9-10.8c.7-2.1.1-6.2 0-6.5 0 0-2.6-10.2-5.5-15 0 0 1.4-19.6.2-42.6l-1.1-1.1-4.4-4.4c.1-.1 2 14-.1 22.4z"/><path fill="#0F2547" d="M135.4 95.5s6.7 7 9.3 7.2 20.1 0 20.1 0l8.1-8.5V89l-6.7-7.5-2.4-2.7s-19.7 3.4-25.5 3.7c-5.7.3-10.2 0-10.2 0V89h5l2.3 6.5zm32.5-3.5c0 5.6-5.9 9.4-5.9 9.4h-15.3S136 98.3 136 90.9c0-2.6 1.9-4.3 1.9-4.3s14-3.7 21.7-4c0 0 8.3 3.8 8.3 9.4z"/><path fill="#C08C76" d="M137.9 86.6s-1.9 1.8-1.9 4.3c0 7.4 10.7 10.5 10.7 10.5H162s5.9-3.8 5.9-9.4-8.3-9.4-8.3-9.4c-7.6.3-21.7 4-21.7 4z"/><path fill="#304764" d="M185.4 90.4c2.7-14.5-2.1-44.1-2.1-45.5s-2.1-1.6-2.1-1.6l-2.1 31.5c4 6.2 6.3 15.6 6.3 15.6z"/><path fill="#B1B7C4" d="M138.1 71.8h10l-13.6-36.1H128v10.5l4.1 9.6H128v8.9h6.5z"/><path fill="#233750" d="M114.9 212.3l.1-.6h-.4l.3.6zm.5 5.8l-22.6 12.7s-20.2 1.5-37.8 2.4c15.4 10.7 33.4 18.1 52.7 21.2l15.7-20.4-8-15.9z"/><path fill="#140E0C" d="M93.8 178.8c.7-4.2.8-8.6.6-12.5-.1-.1-.2-.2-.4-.3-2.2-1.8-4.2-3.7-6-5.4-.6.6-1.1 1.3-1.6 2 0-.1-4.4 9.8 7.4 16.2z"/><path fill="#B27D6B" d="M128 184.8v-5.1s-23.3-5-33.7-13.4c.2 3.9.1 8.3-.6 12.5 2.3 1.3 5.3 2.4 9 3.2l.3.6c11 2.6 25 2.2 25 2.2z"/><path fill="#181A1E" d="M128 198.5v-13.7s-14 .4-25-2.2l11.6 29h.4l.2-1H128v-12.1z"/><path fill="#031838" d="M128 212.3v-1.6h-12.8l-.2 1-.1.6.6 1.6v4.2l-.1.1 8.1 16-15.7 20.4c4.2.7 8.4 1.1 12.7 1.4l7.4-11.5.1-32.2z"/><path fill="#1A232A" d="M115.4 218.1l.1-.1v-4.2l-22.4 13.7s-24.6 1.6-42.4 2.5c1.4 1.1 2.8 2.1 4.3 3.1 17.6-1 37.8-2.4 37.8-2.4l22.6-12.6z"/><path fill="#1D2F47" d="M63 188.8l-.5.2.4.1s0-.1.1-.3zm-36.8 15.8l3.4-1.7-4.1 1.7c.1.1.2.3.3.4.2-.3.4-.4.4-.4zm89.4 9.3l-.6-1.6-.2-.6-11.6-29-.3-.6c-3.8-.9-6.7-2-9-3.2-11.7-6.3-7.4-16.3-7.4-16.3-4.6 2.3-4.9 9.7-4.5 14.3l1.1 5.2h.1v.3l.1.4h-.1v11.9l12 16-15.3 10.1-24 1c-1.5 2.1-2.9 3.9-4.2 5.5-.4.5-.9 1.2-1.5 2.1.3.2.6.5 1 .7 17.8-.9 42.4-2.5 42.4-2.5l22-13.7z"/><path fill="#181A1E" d="M120.6 255.8c2.5.1 4.9.2 7.4.2v-11.7l-7.4 11.5z"/><path fill="#031838" d="M83 182s-.1 0 0 0v.3-.3zm-12.5 14.6c-3.3 7.5-9.5 17.6-14.9 25.1l24-1 15.4-10-12-16v-11.9c-.8.4-8.5 4.8-12.5 13.8z"/><path fill="#19080C" d="M26.2 204.6l-.4.4c.3.4.7.9 1 1.3l2.7-3.5-3.3 1.8zm4.9-2.4c.3-.2.5-.4.8-.6l-1.8.9 1-.3zm24.5 19.5c5.5-7.5 11.7-17.6 14.9-25.1 3.9-9.1 11.7-13.4 12.5-13.9h.1l-.1-.4-.1-.3-1.1-5.2c-1.4.7-3.1 1.6-4.9 2.7.1 0 .2-.1.3-.1 0 0-14 19.5-20.1 31.3-1.2 2.4-2.9 4.9-4.7 7.5l.7.2-2.5 5.5s-1.4 1.3-4.3 2.5c0 0 0 .1-.1.1 1.2 1 2.4 2 3.6 2.9.6-.9 1.1-1.6 1.5-2.1 1.4-1.6 2.8-3.5 4.3-5.6z"/><path fill="#341719" d="M47.6 198.6l9.3 5.2-2.6 6.1-2.3-.4 3.3 2.7-1.2 2.8-5.3-1.2-1.4 2.9 5 1.5c1.9-2.6 3.5-5.1 4.7-7.5 6.1-11.8 20.1-31.3 20.1-31.3-.1 0-.2.1-.3.1-10.8 4.2-13.4 8.1-14 9.3-.1.2-.1.3-.1.3l-.4-.1-3.8-1.3-5 2.6-6 8.3zm-20.1 8.7c.2.2.4.5.6.7l1.5-.7h-2.1zm3.6-5.1l11.2-3.6 3.6-4.3-12.5 6.5s-.6.1-1.6.9c-.2.1-.4.3-.7.5zm15.1 24.2s0 .1 0 0c.1 0 .1 0 0 0z"/><path fill="#341719" d="M32.5 203.8l-1.9 3 2.9-1.3-1.2 2.7 13.6 1 1.6-3.3 1.8 1.5.9-2.1z"/><path fill="#787271" d="M45.9 209.2l-13.6-1-1.4 3.1c1.4 1.6 2.8 3.2 4.3 4.8l7 .6 3.7-7.5z"/><path fill="#A9ABA5" d="M50.6 223.9l2.5-5.5-.7-.2-5-1.5 1.4-2.9 5.3 1.2 1.2-2.8-3.3-2.7-3.4-.5.7-1.7-1.8-1.5-1.6 3.2-3.8 7.6-7-.6c3.5 3.7 7.2 7.1 11 10.3h.1c3-1.1 4.4-2.4 4.4-2.4zm-17.1-18.4l-2.9 1.3-.3.5h-.7l-1.5.7c.9 1.1 1.8 2.3 2.8 3.4l1.4-3.1 1.2-2.8z"/><path fill="#888B86" d="M30.3 207.3l.3-.5 1.9-3 17.7 1.4-.9 2.1-.7 1.7 3.4.5 2.3.4 2.6-6.1-9.3-5.2 6.1-8.4.4-.5h-4.3l-3.8 4.5-3.6 4.3-11.2 3.6-1 .3-.4.1-.1.1-2.7 3.5c.2.3.5.6.7.9h2.6v.3z"/><path fill="#1A212D" d="M72.4 90.5s0-.1 0 0c0 0 2.6-10.3 5.5-15 0 0-1.4-19.6-.2-42.6l-2.9 10.5 2.1 31.5c-4 6.2-6.2 15.6-6.2 15.6l.2.1c.5-.2 1-.2 1.5-.1z"/><path fill="#C08C76" d="M124.6 102.7s-9.6 9.3-14.4 10.5c-4.8 1.3-23 3.8-23 3.8v-4.2l-3.2-1.4c0 7.6.2 29.4 3.4 38.7 4.9 5 13 11.7 22.5 14.1 0 0 3.2-6.4 18.1-6.4v-55.2l-3.4.1z"/><path fill="#272932" d="M83.4 49.8c2.2 8.4 3.8 18 4.1 28.5l2.4 3.1v.1l2.4-2.7s2.6-20.1-.5-29.9-3.6-12.5-3.1-19.6l4.8-4.3.2-6.4c-4.3 2.8-11.7 8.1-14.9 13.2l4.4-4.4c0-.1-1.9 14 .2 22.4z"/><path fill="#B27D6B" d="M75.3 107.8s-2.2-8.6-2.9-10.8c-.7-2.1-.1-6.2 0-6.5-.5-.1-1.1 0-1.5.1-1.4.3-2.6 1.1-3.2 3.1-2.4 7.2-3.4 17.2 0 23.5 3.4 6.2 1.2 12 4.9 14.4 1.2.8 2.9 1 4.5 1.1l-1.8-24.9z"/><path fill="#060000" d="M84 111.5l-3.8-1.6c0 7.3.1 27.4 1.9 34.4 0 0 1.9 2.6 5.3 6-3.2-9.4-3.4-31.1-3.4-38.8z"/><path fill="#544B4A" d="M94.3 166.2c10.4 8.4 33.7 13.4 33.7 13.4V158c-14.8 0-18.1 6.4-18.1 6.4-9.5-2.5-17.6-9.1-22.5-14.1-3.3-3.4-5.3-6-5.3-6-1.8-7-1.9-27.1-1.9-34.4l-4.8-2.1 1.7 24.7-1.9 3.1 1.9 12.8s4.2 5.6 10.9 12.1c1.8 1.8 3.8 3.6 6 5.4.1.2.2.2.3.3z"/><path fill="#110809" d="M110.3 113.3c4.8-1.3 14.4-10.5 14.4-10.5h3.4V97H124s-6.2 7.9-11.7 10.3-24.8 5.7-24.8 5.7l-.2-.1v4.2s18.2-2.6 23-3.8z"/><path fill="#233750" d="M128 55.8v-9.6l-4.1 9.6zM77.9 75.4c-2.9 4.8-5.5 15-5.5 15-.1.3-.7 4.4 0 6.5.7 2.2 2.9 10.8 2.9 10.8h.1l4.8 2.1 3.8 1.6 3.2 1.4.2.1s19.2-3.4 24.7-5.7S123.9 97 123.9 97h4.1v-8h-5l-2.4 6.5s-6.7 7-9.3 7.2c-2.6.2-20.1 0-20.1 0l-8.1-8.5V89l6.7-7.5v-.1l-2.4-3.1c-.2-10.5-1.9-20.1-4.1-28.5s-.2-22.5-.2-22.5l-4.4 4.4-1.1 1.1c-1.1 23 .3 42.6.3 42.6z"/><path fill="#233750" d="M88.7 29.2c-.5 7.2 0 9.8 3.1 19.6s.5 29.9.5 29.9 19.7 3.4 25.5 3.7c5.7.3 10.2 0 10.2 0V64.7h-6.5l-3.6 7.2h-10.1l13.7-36.2h6.5V10.3c-23.9 0-34.3 7.4-34.3 7.4v.8l-.2 6.4-4.8 4.3z"/><path fill="#031838" d="M117.8 82.5c-5.7-.3-25.5-3.7-25.5-3.7l-2.4 2.7-6.8 7.5v5.3l8.1 8.5s17.6.2 20.1 0c2.6-.2 9.3-7.2 9.3-7.2L123 89h5v-6.5s-4.5.3-10.2 0zM88.1 92c0-5.6 8.3-9.4 8.3-9.4 7.7.3 21.7 4 21.7 4s1.9 1.8 1.9 4.3c0 7.4-10.7 10.5-10.7 10.5H94c0 .1-5.9-3.8-5.9-9.4z"/><path fill="#B27D6B" d="M109.3 101.5S120 98.4 120 91c0-2.6-1.9-4.3-1.9-4.3s-14-3.7-21.7-4c0 0-8.3 3.8-8.3 9.4s5.9 9.4 5.9 9.4h15.3z"/><path fill="#233750" d="M74.8 43.3s-2.1.2-2.1 1.6-4.8 31-2.1 45.5c0 0 2.2-9.4 6.2-15.6l-2-31.5z"/><path fill="#888E98" d="M123.9 55.8l4.1-9.6V35.7h-6.5l-13.6 36.1h10l3.6-7.1h6.5v-8.9z"/></svg>