<svg xmlns="http://www.w3.org/2000/svg" width="256" height="256"><circle fill="#B1B3B5" cx="128" cy="128" r="127.4"/><path fill="#402603" d="M71.1 142.9l-.6-1.2S50 161.1 55 161.1c2.8 0 12-6.2 20.2-11.8 0-.1 0-.2-.1-.3-1.6-2-3-4.1-4-6.1z"/><path fill="#9F732E" d="M192.7 203.2l10.7-17.7-.3-.3c-1.7-.8-3.2-1.6-4.3-2.3-2.4 4.9-7.7 14.4-11.4 20.7.9-.1 2.7-.3 5.3-.4z"/><path fill="#704925" d="M172 196.1c6.7-6.6 18.6-32.3 18.6-32.3l-.4-19.4c-1.7-1.7-4.2-1.3-4.2-1.3l-9.5 14.5c-2.3 10.9-4.7 24-4.9 29.4-.1 3.1.1 6.3.4 9.1z"/><path fill="#5E3C30" d="M126.7 166.1v11.7zm24.9 6c-5.4 3.5-9.3 5.7-24.8 5.7v36.6s37.9-12.7 44.2-17.3c.3-.2.7-.6 1.1-.9-.3-2.9-.5-6-.4-9.1.2-5.3 2.7-18.4 4.9-29.4.6-3.1 1.3-6.1 1.8-8.6-8.2 10.2-22.3 20.1-26.8 23zm34.9-42c4.7-2.1 1.5-7.9 2.9-10 1.4-2.1 1-9.1.7-12.6-.2-3.6.5-11.9 1.7-17.6s-1.2-9.1-3.1-8.8c-.9.1-2.9 1.5-4.6 2.8.4 7.8 1.3 15.5 2.5 20.7 1.2 5.4 1.6 15.7-.1 25.5z"/><path fill="#764931" d="M151.6 172.1c4.5-2.9 18.6-12.8 26.8-23.1 1.6-2.1 3.1-4.2 4.1-6.2 1.9-3.8 3.2-8.3 4.1-12.8 1.8-9.8 1.4-20 .1-25.7-1.2-5.1-2-12.9-2.5-20.7-.3-4.7-.4-9.5-.4-13.7 0-11.1-2.1-25.8-15.9-42.3-14.5-17.3-41.1-17.7-41-17.6v167.6c15.4.2 19.3-2 24.7-5.5zm-4.8-120.2c2.7 0 10-1.7 12.2-1.3s12.6 4.8 13.4 4.8 2.1 2.9-1.6 3.2-10.2-3.7-12.9-4.2c-2.7-.5-15.6 3-15.7 2.3-.3-3.3 1.9-4.8 4.6-4.8z"/><path fill="#5E3E1E" d="M157.9 54.4c2.7.5 9.3 4.5 12.9 4.2s2.4-3.2 1.6-3.2-11.1-4.3-13.4-4.8-9.5 1.3-12.2 1.3c-2.7 0-4.9 1.4-4.6 4.8.1.7 13-2.7 15.7-2.3z"/><path fill="#472B20" d="M126.7 166.1v11.7zm0 11.7c-15.6 0-19.4-2.2-24.8-5.7-.9-.6-2.2-1.5-3.8-2.6.7 2.9 1.1 4.8 1.1 4.8 13.7 10.7 27.6 40.1 27.6 40.1v-36.6zm-51.5-28.5s.1 0 .1-.1l-.2-.2c.1.2.1.3.1.3zm-8.3-44.9c1.2-5.1 2-12.9 2.5-20.7-1.7-1.3-3.7-2.7-4.6-2.8-1.9-.2-4.3 3.1-3.1 8.8s1.9 14.1 1.7 17.6c-.2 3.6-.7 10.5.7 12.6 1.4 2.1-1.8 7.9 2.9 10-1.8-9.6-1.4-19.9-.1-25.5z"/><path fill="#5E3C30" d="M70.5 141.7l.6 1.2c1 2 2.4 4.1 4.1 6.2l.2.2c6.6-4.5 12.5-8.6 13.7-8.6 2.2-.1 6.9 19.5 9 28.9 1.6 1.1 2.9 2 3.8 2.6 5.4 3.5 9.3 5.7 24.8 5.7V10.3c.1-.1-26.5.3-41 17.6-13.8 16.3-15.9 31-15.9 42.2 0 4.2-.1 9-.4 13.7-.4 7.8-1.3 15.5-2.5 20.7-1.3 5.6-1.7 15.9.1 25.7.5 2.5 1.1 4.9 1.8 7.3l1.7 4.2zm10.6-86.3c.8 0 11.1-4.3 13.4-4.8 2.2-.5 9.5 1.3 12.2 1.3 2.7 0 4.9 1.4 4.6 4.8-.1.7-13-2.7-15.7-2.3s-9.3 4.5-12.9 4.2c-3.7-.3-2.4-3.2-1.6-3.2z"/><path fill="#472B20" d="M82.7 58.6c3.7.3 10.2-3.7 12.9-4.2s15.6 3 15.7 2.3c.3-3.3-1.9-4.8-4.6-4.8-2.7 0-10-1.7-12.2-1.3-2.2.5-12.6 4.8-13.4 4.8-.8 0-2.1 2.9 1.6 3.2z"/><path fill="#956427" d="M172 196.1c-.4.4-.7.7-1.1.9-6.4 4.6-44.2 17.3-44.2 17.3l10.7 17.1c3.5-5 7.3-9.5 10.6-11.4 8.9-5.1 34-15.9 39.1-16.5h.2c3.7-6.3 9-15.7 11.4-20.7-1.7-1.2-2.4-2.4-1.4-3.6.7-.8 1.7-1.3 2.9-1.6.6-7.1-1.2-22.2-2-24.7-1-2.9-8.1-8.6-8.1-8.6l.4 19.4c.2.2-11.8 25.8-18.5 32.4z"/><path fill="#9F732E" d="M126.7 214.4v35.3c0-.4 4.9-9.9 10.7-18.2l-10.7-17.1z"/><path fill="#C39A2E" d="M192.7 203.2c-2.6.2-4.4.3-5.3.4h-.2c-5.1.6-30.2 11.4-39.1 16.5-3.3 1.9-7.1 6.4-10.6 11.4-5.8 8.3-10.7 17.8-10.7 18.2v5.8h1.3c12.6 0 24.8-1.8 36.3-5.2l28.3-47.1z"/><path fill="#583828" d="M224.7 198.3l7.3 3.3c.8-1.1 1.6-2.3 2.3-3.4-2.4-.9-5.1-2-7.7-3l-1.9 3.1zm-36.3 39.2l3.8-6.1-6-2.4 22.6-37.8 6.6 3 1.8-3c-.5-.2-1-.4-1.4-.6-3.8-1.7-8.6-3.5-12.4-5.2l-.1.1-10.7 17.7-28.4 47c3.3-1 6.6-2.1 9.8-3.3l7.4-12.4 7 3z"/><path fill="#5C503D" d="M228.5 175.6l-14.3-6.4-6.6 8.7c3.6.7 7.5 2 11.1 3.7 5.2 2.4 12.9 5.1 20.9 7.9.3-.6.6-1.2 1-1.8l-13.8-5.7 1.7-6.4z"/><path fill="#74654E" d="M218.7 181.7c-3.6-1.7-7.6-3.1-11.1-3.7-2.8-.5-5.3-.6-7.2-.2-1.2.3-2.2.8-2.9 1.6-1 1.2-.3 2.4 1.4 3.6 1.1.8 2.6 1.5 4.3 2.3.1.1.2.1.4.2 3.8 1.7 8.6 3.5 12.4 5.2.4.2.9.4 1.4.6l9.5 3.9c2.6 1 5.2 2.1 7.7 3 1.8-2.8 3.6-5.7 5.2-8.6-8.2-2.9-15.9-5.5-21.1-7.9z"/><path fill="#6E4836" d="M205.1 229.4c10.3-7.9 19.4-17.3 26.9-27.9l-7.3-3.3-19.6 31.2zm3.7-38.2L186.2 229l6 2.5 23.2-37.4zm-27.4 43.2l-7.4 12.4c4.1-1.6 8.1-3.4 11.9-5.3l2.5-4-7-3.1z"/><path fill="#73564A" d="M224.7 198.3l2-3.2-9.5-3.9-1.8 3-23.2 37.3-3.8 6.1-2.5 4c6.8-3.5 13.2-7.5 19.2-12.1l19.6-31.2z"/><path fill="#956427" d="M126.7 249.7v-35.3s-13.9-29.4-27.6-40.1c-13.8 5-27.6 27.8-27.6 27.8 4.1 6.1 13.9 28 22.8 48.8 9.4 2.6 19.3 4.1 29.4 4.4 2-3.7 3-5.9 3-5.6z"/><path fill="#704925" d="M71.6 202.1s13.7-22.8 27.6-27.8c0 0-.4-1.9-1.1-4.8-2.1-9.3-6.9-29-9-28.9-1.3.1-7.2 4.1-13.7 8.6 0 0-.1 0-.1.1-8.2 5.6-17.4 11.8-20.2 11.8-5.1 0 15.4-19.4 15.5-19.4l-1.7-4.3s-22 22-20.8 31.9c.2 1.6.5 4.8 1.7 8.8.2-.1.3-.2.3-.2 0 8.5 21.5 24.2 21.5 24.2z"/><path fill="#B38E29" d="M30.3 209.8C46.8 229.4 69 244 94.4 251c-8.9-20.8-18.7-42.8-22.8-48.8-15.4 1.6-29.1 4.3-41.3 7.6zm96.4 39.9c0-.2-1 1.9-2.9 5.7 1 0 1.9 0 2.9.1v-5.8z"/><path fill="#9B7D22" d="M50.1 177.8s-.1.1-.3.2c-2.4 1.1-17.1 7.8-32 14.1 3.7 6.3 7.8 12.2 12.5 17.8 12.2-3.3 25.9-6 41.3-7.7 0-.1-21.5-15.8-21.5-24.4z"/></svg>