<svg xmlns="http://www.w3.org/2000/svg" width="256" height="256"><circle fill="#B1B3B5" cx="128" cy="128" r="128"/><path fill="#C08C76" d="M187.3 84.5s-1.5.5-2.5 1.2c-.6.4-1 .8-1.4 1.2l.2 1.5h-.8c-.2 1.3-.8 4.5-1.3 7.6-.6 3.5-.6 3.2-.9 4.9-.1.8-.9.8-1.6.6l-.1 1.5-.8-1.9c-.2-.1-.4-.2-.5-.3.2 1.6.2 4.6-1.1 8.4-.1.6-.1 1.1-.2 1.7-.5 3.6-1.1 10.2-2 17.4 1.5 1.5 3.4 2.6 5.5 1.5 4.7-2.5 4.7-11 4.2-16.3s.5-11.7 2.5-16.6c2-4.9 3.2-4.9 3-12.1-.2-.5-.3-1-.5-1.4-.1.7-.2 1.1-.2 1.1h-1.5z"/><path fill="#4C4532" d="M217.5 219.5c2.8-2.8 5.5-5.7 8.1-8.7-5.8-2.2-11.3-4.3-16.1-6 3.5 5.9 6.3 11.3 8 14.7zm-14.7 12.4c1-.7 2-1.5 3-2.2l-3.4 1.6.4.6z"/><path fill="#3E3727" d="M181.4 172.1c2.1 2.1 4.7 4.5 8.1 7.2 7.4 6 14.5 16.3 20 25.5 4.8 1.7 10.4 3.8 16.1 6 4.5-5.3 8.7-11.1 12.3-17.1l-56.5-21.6zm33.2 16c3 1 4.6 3.7 3.8 6.1-.9 2.4-4 3.5-6.9 2.5s-4.6-3.7-3.8-6.1c.8-2.3 3.9-3.5 6.9-2.5z"/><path fill="#C3A779" d="M148.4 207.1l-7.2 17.9-1.5.6 4.5 29.4c5.6-.7 11-1.8 16.3-3.2 2.7-13.1 5.1-25.2 6.3-30.8-2-5.6-10.2-10.3-18.4-13.9z"/><path fill="#453E2C" d="M189.5 179.3c-3.3-2.7-6-5.1-8.1-7.2-7.3-7.4-8.6-11.4-14-13 0 .7-.1 1.4-.1 2 0 .8 0 1.7.1 2.6 0-.8-.1-1.3-.1-1.3 3.9 9.7 3.9 15.2 3.9 28.4 0 1.8-.1 3.6-.2 5.4.1-1.1.2-1.7.2-1.7l31 36.8 3.4-1.6c4.1-3.1 8-6.5 11.7-10.1-1.7-3.4-4.5-8.8-8-14.7-5.3-9.2-12.4-19.6-19.8-25.6z"/><path fill="#C08C76" d="M157.1 164.9c-.1.1-.1.2-.1.2s-2.9 3.2-6.6 5.1c-8.5 4.9-20.3 6.3-22.2 6.5v23.4c2.1-1.2 15.9-9.1 28.6-17.7 10-6.7 10.8-15.6 10.8-18.8-.1-.9-.1-1.7-.1-2.6 0-.6 0-1.2.1-2 .1-1.1.2-2.3.3-3.7-3.2 6.5-5.2 5-10.8 9.6z"/><path fill="#96825E" d="M128.1 227.7V256c5.5 0 10.8-.4 16.1-1l-4.5-29.4c-2.2.8-6.5 2.1-11.6 2.1z"/><path fill="#A79069" d="M128.1 200.3v27.4c5.1 0 9.4-1.3 11.6-2.1.9-.3 1.5-.6 1.5-.6l7.2-17.9c-9.2-3.9-18.6-6.3-20.3-6.8z"/><path fill="#907E5A" d="M156.7 182.5c-12.7 8.5-26.5 16.5-28.6 17.7v.3c1.7.4 11 2.9 20.2 6.8 8.3 3.5 16.4 8.3 18.5 13.8.4-2.1.7-3.3.7-3.3 2.2-11 3.2-18.4 3.6-21.5.1-1.8.2-3.6.2-5.4 0-13.2 0-18.7-3.9-28.4 0 0 .1.5.1 1.3.1 3.1-.8 11.9-10.8 18.7z"/><path fill="#3E3727" d="M171.3 194.5s-.1.6-.2 1.7c-.4 3.1-1.5 10.5-3.6 21.5 0 0-.2 1.2-.7 3.3-1.1 5.6-3.6 17.8-6.3 30.8 15.4-4 29.7-10.9 42.3-20l-.5-.6-31-36.7z"/><path fill="#322D1F" d="M207.6 190.7c-.9 2.4.8 5.1 3.8 6.1s6.1-.1 6.9-2.5c.9-2.4-.8-5.1-3.8-6.1s-6 .1-6.9 2.5z"/><path fill="#D7A990" d="M176.3 109.9c-.1.3-.2.6-.4.9 0 0-1.2-22.7-2.2-28.3l.6.5c-.2-.8-.3-2-.4-3.4l-1.7-3.6 1.6 1.1c-.5-8.5-.6-22.2-.6-25.3 0-4.1-5-14.8-12.2-19.6-1.8-1.2-2.8-1.9-3.3-2.4-2.8-.4-8.8-1.2-9.5-1.7-1-.7 2.2-1.9 2.2-1.9l-10.2 2.6 1.7-2.6-8.6 2.7v-1.2l-5.1 2.2v146.9c1.9-.2 13.8-1.6 22.2-6.5h-.1c3.1-3.4 17.3-20.1 16.6-41.9 0 0 1.5 12.7-2 21.1-3.2 7.6-7.1 14.3-7.8 15.5 5.6-4.6 7.6-3.1 10.6-9.5.5-1.1 1-2.3 1.6-3.9 2.4-6.4 3.9-15.2 5-23.3 1-7.2 1.5-13.8 2-17.4v-1zm-20.5-27c-3.7 0-18.3 4.9-20 3.4s1.8-5.1 1.8-5.1c2.5-1 4.5-.6 8.5-.7 4-.1 9-3.6 11.8-3.8 2.8-.2 7.5 2.9 7.5 2.9h-2.7l3 3.4 2.7 1.8h-2.2l3.5 3.6s-10.3-5.5-13.9-5.5zm20.5 28c.1-.5.1-1.1.2-1.7l-.2 1.7z"/><path fill="#C39B84" d="M157 165.1s0-.1.1-.2c.7-1.2 4.6-7.9 7.8-15.5 3.5-8.4 2-21.1 2-21.1.7 21.8-13.5 38.5-16.6 41.9h.1c3.6-1.8 6.6-5.1 6.6-5.1z"/><path fill="#928681" d="M127.9 8.4zm.2 21.4l5.1-2.2v1.2l8.6-2.7-1.7 2.6 10.2-2.6s-3.2 1.2-2.2 1.9c.8.5 6.7 1.4 9.5 1.7.5.4 1.5 1.2 3.3 2.4 7.2 4.8 12.2 15.6 12.2 19.6 0 3.1.1 16.8.6 25.3l3.2 2.3-2.2-6.9 2 .5-2.5-6.2 3 .7-2.5-4.3 4.2 3.4s-2.5-8.4-5.5-13.2l3.7 2.4-3-6.2 3.2 1.4-5.2-6.5 4 2.4s-2-5.7-4-7.9c0 0 7 8.1 7.5 10.3.5 2.2 6 24.7 6 24.7l-1.7-2.5 1.7 6.9-3.7-1.4 1.5 10.2c.3-.4.8-.8 1.4-1.2 1-.7 2.5-1.2 2.5-1.2h1.5s.1-.4.2-1.1c.3-1.6.6-4.9-.2-8.7-.8-3.3-1.3-5.9-1.7-7.4-.2-1-.3-1.6-.3-1.6l-1.2-9.5 2.6 1.6-7.4-13.6 2 .7s-3.9-7.7-7.3-10.6-6.7-8.4-6.7-8.4l4 1.7s-7-8.1-11-9.3c-4-1.2 2.5-1.4 2.5-1.4s-10-5.7-14.2-6.7c-4.2-.9-13.1-1.9-22-1.9v21.3zm19.4-11.4s-7.8 2.8-7.2 3c.7.2 14.5-1.4 16.3-.8 1.8.6-7.3 1.6-7.3 1.6s16.2 3.2 16.7 3.5c.5.3-11.5-.2-14.7 0s-3.9.1-3.9.1l4.4-1.4s-8.5-.6-11 0 4.3-1.3 4.3-1.3-13.8-.2-16.3 1.3c.1.1 6.7-6.9 18.7-6zm32.8 73.4l-1.4-2 .5 7.1-.4 4.6c.7.2 1.5.2 1.6-.6.3-1.7.2-1.3.9-4.9.5-3.1 1.1-6.3 1.3-7.6h-1.9l-.6 3.4zm-6.4-12.3c.1 1.5.3 2.7.4 3.4l1.9 1.3-2.3-4.7zm2.4 30.4v.9l.2-1.6c0 .3-.1.5-.2.7zm1.1-10.3s.1.4.2 1.2c.1 0 .2.1.5.3l-.7-1.5z"/><path fill="#726965" d="M166.3 84.8h2.2l-2.7-1.8-3-3.4h2.7s-4.7-3-7.5-2.9c-2.8.2-7.8 3.7-11.8 3.8-4 .1-6-.3-8.5.7 0 0-3.5 3.5-1.8 5.1s16.3-3.4 20-3.4c3.7 0 14 5.4 14 5.4l-3.6-3.5zm-37.4-60.3c2.5-1.4 16.3-1.3 16.3-1.3s-6.8 1.9-4.3 1.3c2.5-.6 11 0 11 0l-4.4 1.4s.7 0 3.9-.1 15.2.3 14.7 0-16.7-3.5-16.7-3.5 9.2-1 7.3-1.6c-1.8-.6-15.7 1-16.3.8-.7-.2 7.2-3 7.2-3-12.1-1-18.7 6-18.7 6zm45 55l2.3 4.7-1.9-1.3-.6-.5c1 5.7 2.2 28.3 2.2 28.3.1-.3.3-.6.4-.9.1-.2.2-.5.2-.7 1.3-3.8 1.2-6.8 1.1-8.4-.1-.8-.2-1.2-.2-1.2l.7 1.5.8 1.9.1-1.5.4-4.6-.5-7.1 1.4 2 .6-3.5h2.7l-.2-1.5-1.5-10.2 3.7 1.4-1.7-6.9 1.7 2.5s-5.5-22.5-6-24.7c-.5-2.2-7.5-10.3-7.5-10.3 2 2.2 4 7.9 4 7.9l-4-2.4 5.2 6.5-3.2-1.4 3 6.2-3.7-2.4c3 4.8 5.5 13.2 5.5 13.2l-4.2-3.4 2.5 4.3-3-.7 2.5 6.2-2-.5 2.2 6.9-3.2-2.3-1.6-1.1 1.8 4z"/><path fill="#B17D6B" d="M79.5 109.2c-1.3-3.8-1.2-6.8-1.1-8.4-.1 0-.2.1-.5.3l-.8 1.9-.1-1.5c-.7.2-1.5.2-1.6-.6-.3-1.7-.2-1.3-.9-4.9-.5-3.1-1.1-6.3-1.3-7.6h-.8l.2-1.5c-.3-.4-.8-.8-1.4-1.2-1-.7-2.5-1.2-2.5-1.2h-1.5s-.1-.4-.2-1.1c-.2.4-.4.9-.5 1.4-.2 7.2 1 7.2 3 12.1 2 4.9 3 11.4 2.5 16.6s-.5 13.8 4.2 16.3c2.1 1.1 4 0 5.5-1.5-1-7.2-1.5-13.8-2-17.4-.1-.6-.2-1.1-.2-1.7z"/><path fill="#453E2C" d="M50.2 229.6c1 .7 2 1.5 3 2.2l.5-.6-3.5-1.6zm-19.8-18.8c2.6 3 5.3 5.9 8.1 8.7 1.7-3.4 4.5-8.8 8-14.7-4.8 1.7-10.3 3.8-16.1 6z"/><path fill="#322C1D" d="M66.5 179.3c3.3-2.7 6-5.1 8.1-7.2l-56.4 21.6c3.6 6 7.7 11.8 12.3 17.1 5.8-2.2 11.3-4.3 16.1-6 5.4-9.1 12.5-19.5 19.9-25.5zm-28.8 15c-.9-2.4.8-5.1 3.8-6.1s6.1.1 6.9 2.5c.9 2.4-.8 5.1-3.8 6.1s-6-.1-6.9-2.5z"/><path fill="#A79069" d="M114.8 225l-7.2-17.9c-8.3 3.5-16.4 8.3-18.5 13.8 1.1 5.6 3.6 17.8 6.3 30.8 5.3 1.4 10.8 2.5 16.3 3.2l4.5-29.4c-.8-.2-1.4-.5-1.4-.5z"/><path fill="#3E3727" d="M84.7 194.5s.1.6.2 1.7c-.1-1.8-.2-3.6-.2-5.4 0-13.2 0-18.7 3.9-28.4 0 0-.1.5-.1 1.3.1-.9.1-1.7.1-2.6 0-.6 0-1.2-.1-2-5.4 1.6-6.6 5.6-14 13-2.1 2.1-4.7 4.5-8.1 7.2-7.4 6-14.5 16.3-20 25.5-3.5 5.9-6.3 11.3-8 14.7 3.7 3.6 7.6 7 11.7 10.1l3.4 1.6 31.2-36.7z"/><path fill="#B17D6B" d="M88.5 163.6c-.1 3.2.8 12.1 10.8 18.8 13.7 9.3 28.9 17.8 28.9 17.8v-23.6s-13.3-1.2-22.5-6.6c-3.6-1.8-6.6-5.1-6.6-5.1s0-.1-.1-.2c-5.6-4.6-7.6-3.1-10.6-9.5.1 1.3.2 2.6.3 3.7 0 .7.1 1.4.1 2-.2 1-.2 1.9-.3 2.7z"/><path fill="#907E5A" d="M116.3 225.6l-4.5 29.4c5.3.7 10.7 1 16.2 1h.1v-28.3c-5.2 0-9.6-1.3-11.8-2.1z"/><path fill="#96825E" d="M128.1 205.1v-4.9s-10.4 2.5-20.5 6.9l7.2 17.9 1.5.6c2.2.8 6.6 2.1 11.8 2.1v-22.6z"/><path fill="#776849" d="M128.1 200.3s-15.2-8.6-28.9-17.8c-10-6.7-10.8-15.6-10.8-18.8 0-.8.1-1.3.1-1.3-3.9 9.7-3.9 15.2-3.9 28.4 0 1.8.1 3.6.2 5.4.4 3.1 1.5 10.5 3.6 21.5 0 0 .2 1.2.7 3.3 2.1-5.5 10.2-10.3 18.5-13.8 10.2-4.4 20.5-6.9 20.5-6.9z"/><path fill="#322C1D" d="M88.5 217.7c-2.2-11-3.2-18.4-3.6-21.5-.1-1.1-.2-1.7-.2-1.7l-31 36.8-.5.6c12.6 9.1 26.9 15.9 42.3 20-2.7-13.1-5.1-25.2-6.3-30.8-.5-2.2-.7-3.4-.7-3.4z"/><path fill="#1E1A0B" d="M48.4 190.7c-.9-2.4-4-3.5-6.9-2.5s-4.6 3.7-3.8 6.1c.9 2.4 4 3.5 6.9 2.5s4.7-3.7 3.8-6.1z"/><path fill="#C08C76" d="M79.5 109.2c.1.6.1 1.1.2 1.7l-.2-1.7zm19.4 55.7c-.7-1.2-4.6-7.9-7.8-15.5-3.5-8.4-2-21.1-2-21.1-.7 21.8 13.5 38.5 16.6 41.9h-.1c9.2 5.3 22.5 6.6 22.5 6.6V29.9l-5.4-2.3v1.2l-8.6-2.7 1.7 2.6-10.2-2.6s3.2 1.2 2.2 1.9c-.8.5-6.7 1.4-9.5 1.7-.5.4-1.5 1.2-3.3 2.4-7.2 4.8-12.2 15.6-12.2 19.6 0 3.1-.1 16.8-.6 25.3l1.6-1.1-1.7 3.6c-.1 1.5-.3 2.7-.4 3.5l.6-.5c-1 5.7-2.2 28.3-2.2 28.3-.1-.3-.3-.6-.4-.9v.9c.5 3.6 1.1 10.2 2 17.4 1.1 8.1 2.6 16.9 5 23.3.6 1.5 1.1 2.8 1.6 3.9 3 6.4 5 4.9 10.6 9.5zM87.6 84.8l2.7-1.8 3-3.4h-2.7s4.7-3 7.5-2.9c2.8.2 7.8 3.7 11.8 3.8 4 .1 6-.3 8.5.7 0 0 3.5 3.5 1.8 5.1s-16.3-3.4-20-3.4c-3.7 0-14 5.4-14 5.4l3.5-3.6h-2.1z"/><path fill="#A2816F" d="M89.1 128.4s-1.5 12.7 2 21.1c3.2 7.6 7.1 14.3 7.8 15.5.1.1.1.2.1.2s2.9 3.2 6.6 5.1h.1c-3.1-3.5-17.3-20.2-16.6-41.9z"/><path fill="#726965" d="M68.7 84.5s1.5.5 2.5 1.2c.6.4 1 .8 1.4 1.2l1.5-10.2-3.7 1.4 1.7-6.9-1.7 2.5s5.5-22.5 6-24.7c.5-2.2 7.5-10.3 7.5-10.3-2 2.2-4 7.9-4 7.9l4-2.4-5.2 6.5 3.2-1.4-3 6.2 3.7-2.4c-3 4.8-5.5 13.2-5.5 13.2l4.2-3.4-2.5 4.3 3-.7-2.5 6.2 2-.5-2.2 6.9 3.2-2.3c.5-8.5.6-22.2.6-25.3 0-4.1 5-14.8 12.2-19.6 1.8-1.2 2.8-1.9 3.3-2.4 2.8-.4 8.8-1.2 9.5-1.7 1-.7-2.2-1.9-2.2-1.9l10.2 2.6-1.7-2.6 8.6 2.7v-1.2l5.4 2.3V8.4h-.2c-8.9 0-17.8 1-22 1.9-4.2 1-14.2 6.7-14.2 6.7s6.5.2 2.5 1.4-11 9.3-11 9.3l4-1.7s-3.2 5.5-6.7 8.4S73.2 45 73.2 45l2-.7-7.4 13.6 2.6-1.6-1.2 9.5s-.1.5-.3 1.6c-.3 1.5-.9 4.1-1.7 7.4-.9 3.8-.5 7.1-.2 8.7.1.7.2 1.1.2 1.1h1.5zM90 25.8c.5-.3 16.7-3.5 16.7-3.5s-9.2-1-7.3-1.6c1.8-.6 15.7 1 16.3.8.7-.2-7.2-3-7.2-3 12-1 18.7 6.1 18.7 6.1-2.5-1.4-16.3-1.3-16.3-1.3s6.8 1.9 4.3 1.3c-2.5-.6-11 0-11 0l4.4 1.4s-.7 0-3.9-.1-15.2.2-14.7-.1zm-12.9 64l-1.4 2-.6-3.5h-1.9c.2 1.3.8 4.5 1.3 7.6.6 3.5.6 3.2.9 4.9.1.8.9.8 1.6.6l-.4-4.6.5-7zm4.6-6.8c.2-.8.3-2 .4-3.4l-2.3 4.7 1.9-1.3zm-2 27.9v-.9c-.1-.2-.2-.5-.2-.7l.2 1.6zm-1.1-11.3l-.7 1.5c.2-.1.4-.2.5-.3.1-.7.2-1.2.2-1.2z"/><path fill="#57514E" d="M100.2 82.9c3.7 0 18.3 4.9 20 3.4s-1.8-5.1-1.8-5.1c-2.5-1-4.5-.6-8.5-.7-4-.1-9-3.6-11.8-3.8-2.8-.2-7.5 2.9-7.5 2.9h2.7l-3 3.4-2.7 1.8h2.2l-3.5 3.6s10.3-5.5 13.9-5.5zm4.5-57.1c3.2.2 3.9.1 3.9.1l-4.4-1.4s8.5-.6 11 0-4.3-1.3-4.3-1.3 13.8-.2 16.3 1.3c0 0-6.7-7-18.7-6.1 0 0 7.8 2.8 7.2 3-.7.2-14.5-1.4-16.3-.8-1.8.6 7.3 1.6 7.3 1.6S90.5 25.5 90 25.8c-.5.3 11.5-.2 14.7 0zM81.3 72.3l-2 .5 2.5-6.2-3 .7 2.5-4.3-4.2 3.4s2.5-8.4 5.5-13.2l-3.7 2.4 3-6.2-3.2 1.4 5.2-6.5-4 2.4s2-5.7 4-7.9c0 0-7 8.1-7.5 10.3-.5 2.2-6 24.7-6 24.7l1.7-2.5-1.7 6.9 3.7-1.4L72.6 87l-.2 1.5h2.7l.6 3.5 1.4-2-.5 7.1.4 4.6.1 1.5.8-1.9.7-1.5s-.1.4-.2 1.2c-.2 1.6-.2 4.6 1.1 8.4.1.2.2.5.2.7.1.3.2.6.4.9 0 0 1.2-22.7 2.2-28.3l-.6.3-1.9 1.3 2.3-4.7 1.7-3.6-1.5 1-3.2 2.3 2.2-7z"/></svg>