<svg xmlns="http://www.w3.org/2000/svg" width="256" height="256"><circle fill="#B1B3B5" cx="128" cy="128" r="128"/><path fill="#9A9895" d="M194.3 199.2s8.1 4.8 6.6 9.3c-1.1 3.3-10.3 1.7-15.1.6 8.8 3 18.7 7.3 28.6 13.3 3.7-3.4 7.2-7 10.5-10.8-9.9-4.6-21.8-10-30.6-12.4zm-5-23.7c6.9 4.3 26.5 16.7 41.6 28.6 2.2-3 4.3-6.1 6.2-9.2-27.5-27.1-49.3-39.8-51.4-41.1.9 7.3 2.2 14.8 3.6 21.7zm5 23.7z"/><path fill="#868582" d="M194.3 199.2c8.8 2.4 20.8 7.8 30.6 12.5 2.1-2.4 4.1-4.9 6-7.5-15.2-11.9-34.7-24.3-41.6-28.6 1.9 9.4 3.9 17.8 5 23.6z"/><path fill="#B9BBBB" d="M140.4 198.3c-.1-1.3 2.3-3.9 4.5-5.9-4-1.6-9.5-2.9-16.9-2.9V256c23.9 0 46.3-6.6 65.5-18l-45.2-31.1c-4 1.4-7.6-6.2-7.9-8.6zm21.1 21.3c0 2.8-3.6 5.1-8 5.1s-8-2.3-8-5.1 3.6-5.1 8-5.1c4.5 0 8 2.3 8 5.1z"/><path fill="#5A5B5B" d="M152.2 178.6l-4.1 6c-1.2 1.4-8.4-9.1-10.8-9.1-2.4 0-1.4 13.8-9.3 13.9 7.5 0 13 1.3 16.9 2.9 1.8-1.6 3.4-2.9 3.4-2.9s1.6-4.3 3.9-10.8z"/><path fill="#808085" d="M138.5 76.2c2-.8 22.7-8.8 27-20.1 4.5-11.8 3.8-33.5 3.8-33.5S150 1.5 128 9.8v61.6l8.7.3c0 .1.1 2.7 1.8 4.5zM128 181.9v7.5c7.9 0 6.9-13.9 9.3-13.9 2.4 0 9.6 10.5 10.8 9.1l1-29.9-5.7 1s-.3 9.3-3.8 9.6c-3.5.3-4.8-6.7-7.3-6.4-2.6.3-.3 17.6-.3 17.6h-4v5.4z"/><path fill="#18140F" d="M132 .6c-2.5 3.7-3.8 7.2-4 7.7v1.5c22-8.3 41.2 12.8 41.2 12.8s.6 21.7-3.8 33.5c-4.3 11.2-25 19.3-27 20.1.9.9 2.1 1.7 4 1.7 5.4 0 23.3-8.9 29.4-26.5 5.5-16 5.5-31-6-45.6C155.2 2.5 144.1.6 132.6.2c-.2.1-.4.3-.6.4-.1.1 0 .1 0 0z"/><path fill="#2E2A26" d="M183.1 79.4c-4.6 9.7-11.3 22.8-15.2 31.7-6.3 14.4-.4 17.2 0 20.6.4 3.4-4 6.2-4 6.2l-.4 10.9c4.6-11.8 9.2-22.6 11.9-27.1 6.9-11.2 7.6-40 7.7-42.3z"/><path fill="#2E2A26" d="M128 87.4c.4.2 6.7 3 13.6 13.9l-1.4 3.8 1.4 8.9.2.3v-6.4c3.1-2.5 6.9 0 6.9 0 1.7 3.7 2.4 3.7 2.4 3.7l4.6 3.1c-1.1 3.2-4.3 5.5-7 6.9l.1.1s-4.5 6.6-20.8 6.6v9.3c.4 0 3.4-.1 4.3-2.2 1-2.2 2.6-4.3 6 0s5-1.4 6.9-4.3c1.9-2.9 5-6 5 0s-1.4 21.2-1.4 21.2l-5.1 1.3s-1.1-10.3-3.5-11.9-5.5-5.7-7.9-1.9c-2.4 3.8 2.1 10-4.3 11.7v24.9h3.9s-2.2-17.2.3-17.6c2.6-.3 3.8 6.7 7.3 6.4 3.5-.3 3.8-9.6 3.8-9.6l5.7-1-1 29.9 4.1-6c2.7-7.5 6.5-17.8 10.4-27.7-1.1 1.4-3.5 4.2-6.7 7.2-4.6 4.3-4.6 2.6-4.6 2.6 3.1-9.8 3.1-32.3 3.1-32.3l24.2-50c-6.3 9-16.8 18.7-34.1 24.3 0 0-7.5-16-16.6-19.5v4.3h.2z"/><path fill="#867052" d="M131.9.7l.6-.6h-.3c-.1.3-.2.5-.3.6.1 0 0 0 0 0zm39.9 50.6c-6.1 17.6-23.9 26.5-29.4 26.5-1.9 0-3.1-.7-4-1.7-1.6-1.8-1.8-4.4-1.8-4.4l-8.7-.3v11.8c9.2 3.5 16.6 19.5 16.6 19.5 17.3-5.7 27.7-15.3 34.1-24.3l5.5-11.4 2.7-5.3c.9-3 1.2-4.9 1.2-4.9s-5.7-23.3-10.4-39c-1-3.4-2.6-6.6-4.7-9.7-2.4-.9-4.8-1.7-7.2-2.5 11.6 14.7 11.6 29.7 6.1 45.7z"/><path fill="#6C5A41" d="M155.8 114.7l-4.6-3.1s-.7 0-2.4-3.7c0 0-3.8-2.5-6.9 0v6.4l6.9 7.4c2.6-1.5 5.8-3.8 7-7z"/><path fill="#867052" d="M132.3 96l-2.4 2 .7 13.9 11 3.1c-4.9 3-13.2 2.2-13.6 2.2v11.3c16.3 0 20.8-6.6 20.8-6.6l-.1-.1-6.9-7.4-.2-.3-1.4-8.9 1.4-3.8c-6.9-10.9-13.2-13.7-13.6-13.9V96h4.3z"/><path fill="#6C5A41" d="M141.6 114.9l-11-3.1-.7-13.8 2.4-2H128v21.1c.4 0 8.7.9 13.6-2.2z"/><path fill="#646455" d="M154.6 128.4s0 22.5-3.1 32.3c0 0 0 1.7 4.6-2.6 3.2-3 5.5-5.8 6.7-7.2.3-.7.5-1.4.8-2.1l.4-10.9s4.3-2.9 4-6.2c-.4-3.4-6.3-6.2 0-20.6 3.9-8.9 10.6-22 15.2-31.7v-.2l3.4-7.3c1-2.4 1.6-4.1 1.7-5l-1.2-5.3-2.7 5.3-5.5 11.4-24.3 50.1z"/><path fill="#5A5B5B" d="M132.3 139.9c2.4-3.8 5.5.2 7.9 1.9s3.5 11.9 3.5 11.9l5.1-1.3s1.4-15.2 1.4-21.2-3.1-2.9-5 0-3.6 8.6-6.9 4.3c-3.4-4.3-5-2.2-6 0-.9 2-3.9 2.1-4.3 2.2v13.9c6.4-1.7 1.9-7.9 4.3-11.7z"/><path fill="#666768" d="M183.1 79.3v.2c0 2.3-.8 31.1-7.7 42.3-2.7 4.4-7.3 15.3-11.9 27.1-.3.7-.5 1.4-.8 2.1-3.9 9.9-7.7 20.2-10.4 27.7-2.4 6.5-3.9 10.8-3.9 10.8s-1.6 1.3-3.4 2.9c-2.2 2-4.7 4.6-4.5 5.9.2 2.4 3.8 10.1 7.9 8.6 0 0 3-4.8 9-4.8 0 0 11.1 1.3 26.3 6.3 2.4-.1 10.2-.8 11.4-3.5l-.7-5.6c-1.1-5.8-3.1-14.2-5-23.7-1.4-6.9-2.7-14.4-3.5-21.7-.7-5.9-1-11.7-.8-17.1 1.2-26.1 4.6-26.5 4.1-38.8s2.2-24.8-2.6-26l-3.5 7.3z"/><path fill="#2E2A26" d="M194.3 199.3l.7 5.6c-1.1 2.8-9 3.4-11.4 3.5.7.2 1.4.5 2.2.7 4.8 1.1 14 2.7 15.1-.6 1.4-4.5-6.6-9.3-6.6-9.2z"/><path fill="#2E2A26" d="M183.7 208.4c-15.2-5-26.3-6.3-26.3-6.3-6.1 0-9 4.8-9 4.8l45.2 31.1c7.5-4.5 14.5-9.7 20.9-15.6-9.9-6-19.8-10.3-28.6-13.3-.8-.2-1.5-.5-2.2-.7z"/><path fill="#505452" d="M145.6 219.6c0 2.8 3.6 5.1 8 5.1s8-2.3 8-5.1-3.6-5.1-8-5.1c-4.5 0-8 2.3-8 5.1zm7.9-4c2.5 0 4.4 1.3 4.4 2.8 0 1.6-2 2.8-4.4 2.8-2.5 0-4.4-1.3-4.4-2.8 0-1.5 2-2.8 4.4-2.8z"/><ellipse fill="#2E2A26" cx="153.5" cy="218.5" rx="4.4" ry="2.8"/><path fill="#868582" d="M61.7 199.2zm-6.6 9.3c-1.4-4.5 6.6-9.3 6.6-9.3-8.8 2.4-20.8 7.8-30.6 12.5 3.3 3.8 6.8 7.4 10.5 10.8 9.9-6 19.8-10.3 28.6-13.3-4.8 1-14 2.6-15.1-.7zm15.2-54.7c-2.2 1.2-23.9 14-51.4 41.1 1.9 3.2 4 6.3 6.2 9.2 15.2-11.9 34.7-24.3 41.6-28.6 1.4-6.9 2.7-14.4 3.6-21.7z"/><path fill="#6B6B69" d="M66.7 175.5c-6.9 4.3-26.5 16.7-41.6 28.6 1.9 2.6 3.9 5.1 6 7.5 9.8-4.7 21.7-10 30.6-12.5 1.1-5.7 3.1-14.1 5-23.6z"/><path fill="#808085" d="M128 189.4c-7.5 0-13 1.3-17 2.9 2.2 2 4.7 4.6 4.5 5.9-.2 2.4-3.8 10.1-7.9 8.6L62.5 238c19.2 11.4 41.6 18 65.5 18v-66.6zm-25.5 35.3c-4.4 0-8-2.3-8-5.1s3.6-5.1 8-5.1 8 2.3 8 5.1-3.6 5.1-8 5.1z"/><path fill="#5A5B5B" d="M118.7 175.5c-2.4 0-9.6 10.5-10.8 9.1l-4.1-6c2.4 6.5 3.9 10.8 3.9 10.8s1.6 1.3 3.4 2.9c4-1.6 9.5-2.9 17-2.9-8 0-7-13.9-9.4-13.9z"/><path fill="#666768" d="M128 8.4v1.4c-22-8.3-41.3 12.8-41.3 12.8s-.6 21.7 3.8 33.5c4.3 11.2 25 19.3 27 20.1 1.6-1.8 1.8-4.4 1.8-4.4l8.7-.3V8.4zm0 173.5v-5.4h-3.9s2.2-17.2-.3-17.6c-2.6-.3-3.8 6.7-7.3 6.4-3.5-.3-3.8-9.6-3.8-9.6l-5.7-1 1 29.9c1.2 1.4 8.4-9.1 10.8-9.1s1.4 13.9 9.3 13.9v-7.5z"/><path fill="#0D0702" d="M84.2 51.3c6.1 17.6 23.9 26.5 29.4 26.5 1.9 0 3.1-.7 4-1.7-2-.8-22.7-8.8-27-20.1-4.5-11.8-3.8-33.5-3.8-33.5S106 1.5 128 9.8V8.3c-.2-.5-1.4-4-4-7.7l-.6-.6c-11.5.4-22.7 2.3-33.2 5.6-11.5 14.7-11.5 29.7-6 45.7z"/><path fill="#1C1813" d="M88.1 131.7c.4-3.4 6.3-6.2 0-20.6-3.9-8.9-10.6-22-15.2-31.7 0 2.3.8 31.1 7.7 42.3 2.7 4.4 7.3 15.3 11.9 27.1l-.4-10.9s-4.3-2.8-4-6.2z"/><path fill="#1C1813" d="M101.4 128.4s0 22.5 3.1 32.3c0 0 0 1.7-4.6-2.6-3.2-3-5.5-5.8-6.7-7.2 3.9 9.9 7.7 20.2 10.4 27.7l4.1 6-1-29.9 5.7 1s.3 9.3 3.8 9.6c3.5.3 4.8-6.7 7.3-6.4 2.6.3.3 17.6.3 17.6h3.9v-24.9c-6.5-1.7-1.9-7.9-4.3-11.7s-5.5.2-7.9 1.9-3.5 11.9-3.5 11.9l-5.1-1.3s-1.4-15.2-1.4-21.2 3.1-2.9 5 0 3.6 8.6 6.9 4.3c3.4-4.3 5-2.2 6 0s4.3 2.2 4.3 2.2v-9.3c-16.3 0-20.8-6.6-20.8-6.6l.1-.1c-2.7-1.5-5.9-3.8-7-6.9l4.6-3.1s.7 0 2.4-3.7c0 0 3.8-2.5 6.9 0v6.4l.2-.3 1.4-8.9-1.4-3.8c7.5-11.4 13.9-14 13.9-14v-4.2c-9.2 3.5-16.7 19.5-16.7 19.5C94 97 83.6 87.4 77.2 78.4l24.2 50z"/><path fill="#6C5A41" d="M67.9 56.7s.3 1.9 1.2 4.9l2.7 5.3 5.5 11.4c6.3 9 16.8 18.7 34.1 24.3 0 0 7.5-16 16.7-19.5V71.3l-8.7.3s-.1 2.6-1.8 4.4c-.9.9-2.1 1.7-4 1.7-5.4 0-23.3-8.9-29.4-26.5-5.5-16-5.5-31 6-45.6-2.4.7-4.8 1.6-7.2 2.5-2 3-3.7 6.3-4.7 9.7-4.6 15.6-10.4 38.9-10.4 38.9zM124 .6c0-.1-.2-.3-.3-.6h-.3c.2.3.4.5.6.6.1.1 0 .1 0 0z"/><path fill="#574832" d="M114.1 107.9c-3.1-2.5-6.9 0-6.9 0-1.7 3.7-2.4 3.7-2.4 3.7l-4.6 3.1c1.1 3.2 4.3 5.5 7 6.9l6.9-7.4v-6.3z"/><path fill="#6C5A41" d="M128 117.1s-8.6 1-13.6-2.2l11-3.1.7-13.9-2.4-2h4.3v-8.6s-6.5 2.6-13.6 13.9l1.4 3.8-1.4 8.9-.2.3-6.9 7.4-.1.1s4.5 6.6 20.8 6.6v-11.2z"/><path fill="#574832" d="M128 96h-4.3l2.4 2-.7 13.9-11 3.1c5 3.1 13.6 2.2 13.6 2.2V96z"/><path fill="#565749" d="M72.9 79.3v.2c4.6 9.7 11.3 22.8 15.2 31.7 6.3 14.4.4 17.2 0 20.6-.4 3.4 4 6.2 4 6.2l.4 10.9c.3.7.5 1.4.8 2.1 1.1 1.4 3.5 4.2 6.7 7.2 4.6 4.3 4.6 2.6 4.6 2.6-3.1-9.8-3.1-32.3-3.1-32.3l-24.2-50L71.7 67 69 61.7 67.9 67c0 .9.7 2.6 1.7 5l3.3 7.3z"/><path fill="#484949" d="M128 137.7s-3.4 0-4.3-2.2c-1-2.2-2.6-4.3-6 0s-5-1.4-6.9-4.3c-1.9-2.9-5-6-5 0s1.4 21.2 1.4 21.2l5.1 1.3s1.1-10.3 3.5-11.9 5.5-5.7 7.9-1.9-2.2 10.1 4.3 11.7v-13.9zm-66.3 61.5s0 .1 0 0l-.7 5.7c1.1 2.8 9 3.4 11.4 3.5 15.2-5 26.3-6.3 26.3-6.3 6.1 0 9 4.8 9 4.8 4.1 1.4 7.7-6.2 7.9-8.6.1-1.3-2.3-3.9-4.5-5.9-1.8-1.6-3.4-2.9-3.4-2.9s-1.5-4.3-3.9-10.8c-2.7-7.5-6.5-17.8-10.4-27.7-.3-.7-.5-1.4-.8-2.1-4.6-11.8-9.2-22.6-11.9-27.1-6.9-11.2-7.6-40-7.7-42.3v-.2L69.6 72c-4.8 1.2-2.1 13.8-2.6 26-.5 12.3 2.9 12.7 4.1 38.8.2 5.3-.1 11.1-.8 17.1-.8 7.3-2.1 14.8-3.5 21.7-2 9.4-4 17.8-5.1 23.6z"/><path fill="#0D0702" d="M61 204.9l.7-5.6s-8 4.8-6.6 9.3c1.1 3.3 10.3 1.7 15.1.6.7-.3 1.5-.5 2.2-.7-2.4-.2-10.3-.9-11.4-3.6z"/><path fill="#0D0702" d="M98.6 202.1s-11.1 1.3-26.3 6.3c-.7.2-1.4.5-2.2.7-8.8 3-18.7 7.3-28.6 13.3 6.5 5.9 13.5 11.1 21 15.6l45.2-31.1s-3-4.8-9.1-4.8z"/><path fill="#3D3F3F" d="M102.5 214.5c-4.4 0-8 2.3-8 5.1s3.6 5.1 8 5.1 8-2.3 8-5.1-3.6-5.1-8-5.1zm0 6.8c-2.5 0-4.4-1.3-4.4-2.8 0-1.6 2-2.8 4.4-2.8s4.4 1.3 4.4 2.8c0 1.5-2 2.8-4.4 2.8z"/><ellipse fill="#1A1611" cx="102.5" cy="218.5" rx="4.4" ry="2.8"/></svg>