<svg xmlns="http://www.w3.org/2000/svg" width="256" height="256"><circle fill="#B1B3B5" cx="128" cy="128" r="128"/><path fill="#A1A199" d="M181.7 168l8.2-2.7s-2.4 2 0 2.8 2.9.4 4.8 0 2.6-1.3 3.8-1.3c1.2 0 4.3 1.3 4.3 1.3h4.5c.7 0 2-.1 3.4-.2-1-.5-.9-1.1-1.3-2.4-.5-1.5-1.9-.9-4.3-.9s0 0-2.9.5c-.5.1-.8.1-1 .2-.8-.6-2.4-4.2-2.4-4.2l-1.9.7c-1.9.7-1.4-.7-2.4-1.6s-1.2 0-4.8-1.3-1.2-.9-2.9 0c-1.7 1-2.4-.2-3.8 0-1.1.2-2.1.8-3.2 1.4.4.8.7 1.7.7 2.6.2 1.5.6 3.4 1.2 5.1zm19.8-2.8c-.1 0-.1 0-.2-.1.3.1.5 0 .2.1z"/><path fill="#331F12" d="M172.4 166.6c1.7-5.9-2.4-9.9-3.3-10.7-.6.7-1.2 1.4-1.8 2 .9 4.5 1.9 8.8 2.9 12.6 1.1-1.5 1.9-2.9 2.2-3.9z"/><path fill="#C08C76" d="M141.1 196.6c6.7-3.2 22.9-17.6 29.1-26-1-3.9-2-8.2-2.9-12.6-2.7 2.9-6.1 5.7-10.2 9.3-12.5 10.9-29.1 9.5-29.1 9.5v36.8s1.9-4.2 3.2-7.7 1.9-5.5 9.9-9.3zm41.3-109c.1-.8.1-2 .2-3.2-.7 5.2-1.4 12-2.2 19.4 0 0 1.8-13.3 2-16.2zm3.7 27.3c1.5-4.1 6.1-6.9 6.9-9.8.7-2.9.7-11.3-1.2-20.4-.1-.5-.3-1-.4-1.4-1.9 2.8-4.7 6.9-5.2 8.6-.8 2.6-1 8-1 8l-4.7 3.9c-.8 7.4-1.6 15.3-2.5 23 5.3-.7 6.7-8 8.1-11.9z"/><path fill="#D7A990" d="M132.8 145.7v22.5c0 4.3-1.1 6.2-4.8 6.2v2.3s16.6 1.3 29.1-9.5c4.1-3.6 7.5-6.4 10.2-9.3.6-.7 1.2-1.4 1.8-2l-.2-.2 2-2.3c3.2-4.8 5.2-10.6 6.3-20.4.2-2 .5-4.1.7-6.2.9-7.7 1.7-15.7 2.5-23 .8-7.4 1.6-14.2 2.2-19.4.1-3.1.1-6.8.1-6.8l-.5-3.8 1.4-5.5-2.2 1.2 5.7-6-1.7.7-2.8 1.2-1.4-2.2s1.4-2.2.5-2.4c-1-.2-3.1-.2-3.1-.2s-.7-1.7-.7-2.6v-2.9l-.5-2.4 5.5-3.6s-7.2 3.4-8.9 2.6-5.3-4.6-5.3-4.6l5.5-2.9-4.6-2.2 2.2-2.2-5.7.2s-5 3.4-6.5 3.4c-1.4 0-9.6-3.8-12.5-4.6-2.9-.7-11.9-7.2-19.2-1.7v108.3h4.9zm3.9-76.3l2.9 3.4-.5-3.4 4.3 2.7.5-1.7c3.6 1.7 11.3-.5 15.8-1 4.6-.5 11.3 4.3 11.3 4.3h-3.1l4.1 2.6-2.4-1 2.4 5.3c-2.2-3.3-11.5-4.1-17.5-3.1-6 1-11.8.1-16.8-2.2-2.8-1.1-1-5.9-1-5.9z"/><path fill="#8C6462" d="M132.8 168.2v-22.5H128v28.8c3.7-.1 4.8-2 4.8-6.3z"/><path fill="#C9CECC" d="M137.7 75.4c5 2.2 10.8 3.1 16.8 2.2 6-1 15.3-.2 17.5 3.1l-2.4-5.3 2.4 1-4.1-2.6h3.1s-6.7-4.8-11.3-4.3c-4.6.5-12.2 2.6-15.8 1l-.5 1.7-4.3-2.7.5 3.4-2.9-3.4c0-.1-1.8 4.7 1 5.9z"/><path fill="#B2B6B4" d="M128 37.4c7.3-5.5 16.4 1 19.2 1.7 2.9.7 11 4.6 12.5 4.6 1.4 0 6.5-3.4 6.5-3.4l5.7-.2-2.2 2.2 4.6 2.2-5.5 2.9s3.6 3.8 5.3 4.6 8.9-2.6 8.9-2.6l-5.5 3.6.5 2.4v2.9c0 1 .7 2.6.7 2.6s2.2 0 3.1.2c1 .2-.5 2.4-.5 2.4l1.4 2.2 2.8-1.2 1.7-.7-5.7 6 2.2-1.2-1.4 5.5.5 3.8s0 3.7-.1 6.8c0 1.2-.1 2.4-.2 3.2-.2 2.9-2.1 16.2-2.1 16.2l4.7-3.9s.2-5.3 1-8c.5-1.7 3.3-5.8 5.2-8.6 1.1-1.5 1.9-2.6 1.9-2.6h-1.7c1-2.1 4.3-8.4 4.3-8.4l-5.3 2.8s2.9-7.5 5.3-11.4c1.4-2.3 6.9-15.1 6.9-15.1l-4.6 4.8 4.1-12c.4-.6.8-1.3 1.2-2.1 2.1-4.5 3.2-11.3 3.3-12.2l-1.4 2.3c.3-.9.4-1.9.4-3.1C184.3 9.8 157.3 0 128 0v37.4z"/><path fill="#6F3E29" d="M168.9 155.7l.2.2c.9.8 5 4.8 3.3 10.7-.3 1-1.1 2.4-2.2 4-6.1 8.4-22.3 22.8-29.1 26-8 3.8-8.6 5.7-9.9 9.3s-3.2 7.7-3.2 7.7v39.9s14.7 2.6 24.3-8c8.9-9.8 44-43 34.6-64.3-.7-.1-1.4-.2-2.2-.4 0 0-4.6-5.9-3.1-12.8l.2-.1c-.6-1.7-1-3.5-1-5.2 0-.9-.3-1.7-.7-2.6-2.2-4-8.5-7.3-8.5-7.3l-.5.6-2.2 2.3z"/><path fill="#575959" d="M210.6 204.6c-1.4-9.9-4.5-18.8-13.6-23.8-1.9.7-5.1 1.1-10 .4 9.4 21.3-25.7 54.4-34.6 64.3-9.6 10.5-24.3 8-24.3 8v2.6c30.7 0 58.9-10.8 80.9-28.9 1.2-7.7 2.4-17.2 1.6-22.6z"/><path fill="#BCBBB2" d="M239.8 174.3c-7.7 1.2 0 0-3.4-2.6s0 0-2.6 0-2.6-.5-6.7-1.2-1.4.2-7.2 1.2c-5.7 1-1.9-.5-2.9-1.4-1-1-1.7-1.7-2.6-2.3-.5-.3-2-.3-3.6-.2-1.3.1-2.7.2-3.4.2h-4.5s-3.1-1.3-4.3-1.3c-1.2 0-1.9 1-3.8 1.3-1.9.4-2.4.8-4.8 0s0-2.8 0-2.8l-8.2 2.7-.2.1c-1.4 6.8 3.1 12.8 3.1 12.8.8.2 1.5.3 2.2.4 4.9.7 8.1.3 10-.4 0 0-.7-4.6 2.6-6.4 0 0 22.1 6.6 41.8 13 2.3-4.4 4.3-8.9 6.1-13.5-1.5.2-2.2-.4-7.6.4z"/><path fill="#404142" d="M199.6 174.4s13.7 11.9 15.1 28.7c.6 6.8.4 13.6-.1 19.2 10.8-9.9 19.9-21.7 26.8-34.9-19.8-6.4-41.8-13-41.8-13z"/><path fill="#31312D" d="M214.7 203.1c-1.4-16.8-15.1-28.7-15.1-28.7-3.4 1.8-2.6 6.4-2.6 6.4 9.1 5 12.2 13.9 13.6 23.8.8 5.3-.4 14.8-1.6 22.5 1.9-1.6 3.8-3.2 5.6-4.9.4-5.6.6-12.3.1-19.1z"/><path fill="#8A8A84" d="M48.6 168h4.5s3.1-1.3 4.3-1.3c1.2 0 1.9 1 3.8 1.3 1.9.4 2.4.8 4.8 0s0-2.8 0-2.8l8.2 2.7c.6-1.7 1-3.5 1-5.2 0-.9.3-1.7.7-2.6-1.1-.7-2.1-1.2-3.2-1.4-1.4-.2-2.2 1-3.8 0-1.7-1 .7-1.3-2.9 0s-3.8.4-4.8 1.3-.5 2.4-2.4 1.6l-1.9-.7s-1.5 3.7-2.4 4.2c-.2 0-.5-.1-1-.2-2.9-.5-.5-.5-2.9-.5s-3.8-.6-4.3.9c-.4 1.4-.3 1.9-1.3 2.4 1.5.2 2.9.4 3.6.3zm6.1-2.8c-.1 0-.2.1-.2.1-.3-.2-.1-.1.2-.1z"/><path fill="#331F12" d="M86.9 155.9c-.9.8-5 4.8-3.3 10.7.3 1 1.1 2.4 2.2 4 1-3.9 2-8.2 2.9-12.6l-1.8-2.1z"/><path fill="#B17D6B" d="M98.9 167.2c-4.1-3.6-7.5-6.4-10.2-9.3-.9 4.5-1.9 8.8-2.9 12.6 6.1 8.4 22.3 22.8 29.1 26 8 3.8 8.6 5.7 9.9 9.3s3.2 7.7 3.2 7.7v-36.8c0 .1-16.6 1.4-29.1-9.5zm-28-67.3s-.2-5.3-1-8c-.5-1.7-3.3-5.8-5.2-8.6-.2.4-.3.9-.4 1.4-1.9 9.1-1.9 17.5-1.2 20.4.7 2.9 5.3 5.7 6.9 9.8 1.4 3.9 2.8 11.1 8.2 11.9-.9-7.7-1.7-15.7-2.5-23l-4.8-3.9z"/><path fill="#B17D6B" d="M73.6 87.6c.2 2.9 2.1 16.2 2.1 16.2-.8-7.4-1.6-14.2-2.2-19.4-.1 1.3 0 2.4.1 3.2z"/><path fill="#C08C76" d="M87.1 155.7l-.2.2c.6.7 1.2 1.4 1.8 2 2.7 2.9 6.1 5.7 10.2 9.3 12.5 10.9 29.1 9.5 29.1 9.5v-2.3c-3.7 0-4.8-1.9-4.8-6.2v-22.5h4.8V37.4c-7.3-5.5-16.4 1-19.2 1.7-2.9.7-11 4.6-12.5 4.6-1.4 0-6.5-3.4-6.5-3.4l-5.7-.3 2.2 2.2-4.6 2.2 5.5 2.9s-3.6 3.8-5.3 4.6-8.9-2.6-8.9-2.6l5.5 3.6-.5 2.4v2.9c0 1-.7 2.6-.7 2.6s-2.2 0-3.1.2c-1 .2.5 2.4.5 2.4l-1.4 2.2-2.8-1.2-1.7-.7 5.7 6-2.2-1.2 1.4 5.5-.5 3.8s0 3.7.1 6.8c.7 5.2 1.4 12 2.2 19.4.8 7.4 1.6 15.3 2.5 23 .2 2.1.5 4.2.7 6.2 1.1 9.8 3.1 15.6 6.3 20.4l2.1 2.1zm-3-79.3l4.1-2.6h-3.1s6.7-4.8 11.3-4.3c4.6.5 12.2 2.6 15.8 1l.5 1.7 4.3-2.7-.5 3.4 2.9-3.4s1.8 4.8-1 6c-5 2.2-10.8 3.1-16.8 2.2-6-1-15.3-.2-17.5 3.1l2.4-5.3-2.4.9z"/><path fill="#6F4F4D" d="M128 145.7h-4.8v22.5c0 4.3 1.1 6.2 4.8 6.2v-28.7z"/><path fill="#969B9A" d="M101.6 77.6c6 1 11.8.1 16.8-2.2 2.7-1.2 1-6 1-6l-2.9 3.4.5-3.4-4.3 2.7-.5-1.7c-3.6 1.7-11.3-.5-15.8-1-4.6-.5-11.3 4.3-11.3 4.3h3.1l-4.1 2.6 2.4-1-2.4 5.3c2.1-3.2 11.5-4 17.5-3z"/><path fill="#858A89" d="M53.7 41.4l4.1 12-4.6-4.8s5.5 12.8 6.9 15.1c2.4 3.8 5.3 11.4 5.3 11.4l-5.3-2.8s3.4 6.3 4.3 8.4h-1.7s.8 1.1 1.9 2.6c1.9 2.8 4.7 6.9 5.2 8.6.8 2.6 1 8 1 8l4.7 3.9s-1.8-13.3-2.1-16.2c-.1-.8-.1-2-.2-3.2-.1-3.1-.1-6.8-.1-6.8l.5-3.8-1.4-5.5 2.2 1.2-5.7-6 1.7.7 2.8 1.2 1.4-2.2s-1.4-2.2-.5-2.4c1-.2 3.1-.2 3.1-.2s.7-1.7.7-2.6v-2.9l.5-2.4-5.5-3.6s7.2 3.4 8.9 2.6 5.3-4.6 5.3-4.6l-5.5-2.9 4.6-2.2-2.1-2 5.7.2s5 3.4 6.5 3.4c1.4 0 9.6-3.8 12.5-4.6 2.9-.7 11.9-7.2 19.2-1.7V0C98.7 0 71.7 9.8 50.2 26.4c0 1.1.1 2.2.4 3.1l-1.4-2.3c.1.9 1.2 7.7 3.3 12.2.3.7.7 1.4 1.2 2z"/><path fill="#633622" d="M74.3 168l.2.1c1 4.8-.9 9.1-2.2 11.3l2.4-.1-3.4 11.7c16.8 48.9 56.7 62.6 56.7 62.6v-39.9s-1.9-4.2-3.2-7.7-1.9-5.4-9.9-9.3c-6.7-3.2-22.9-17.6-29.1-26-1.1-1.6-1.9-2.9-2.2-4-1.7-5.9 2.4-9.9 3.3-10.7l.2-.2-2-2.3-.5-.6s-6.4 3.3-8.5 7.3c-.4.8-.7 1.7-.7 2.6-.1 1.6-.5 3.5-1.1 5.2z"/><path fill="#A1A199" d="M45.3 172c11.4-.6 20.7 3.6 22.8 7.5l4.1-.2c1.2-2.2 3.2-6.5 2.2-11.3l-.2-.1-8.2-2.7s2.4 2 0 2.8-2.9.4-4.8 0-2.6-1.3-3.8-1.3c-1.2 0-4.3 1.3-4.3 1.3h-4.5c-.7 0-2-.1-3.4-.2-1.5-.1-3.1-.1-3.6.2-1 .6-1.7 1.3-2.6 2.3-1 1 2.9 2.4-2.9 1.4-5.7-1-3.1-1.9-7.2-1.2s-4.1 1.2-6.7 1.2c-2.6 0 .7-2.6-2.6 0-3.4 2.6 4.3 3.8-3.4 2.6-5.4-.8-6.2-.3-7.8-.5 1.2 3.1 2.5 6.1 3.9 9l9.9-.6c1.5-4.1 11.3-9.6 23.1-10.2z"/><path fill="#4A4C4C" d="M71.3 190.9l3.4-11.7-2.4.1-4.1.2c.3.5.4 1 .4 1.5.2 4.3-10 8.3-22.9 8.9-12.9.7-23.5-2.3-23.7-6.5 0-.4 0-.8.2-1.2l-9.9.6C32.9 226.1 76.9 256 128 256v-2.6s-39.9-13.7-56.7-62.5z"/><path fill="#809294" d="M45.3 172c-11.7.6-21.6 6.1-23.1 10.3-.1.4-.2.8-.2 1.2.2 4.3 10.8 7.2 23.7 6.5 12.9-.7 23.1-4.7 22.9-8.9 0-.5-.2-1-.4-1.5-2.2-4-11.5-8.2-22.9-7.6z"/></svg>