<svg xmlns="http://www.w3.org/2000/svg" width="256" height="256"><circle fill="#B1B3B5" cx="128" cy="128" r="128"/><path fill="#312726" d="M203 231.8c-2.8 1-7 4.1-9.9 6.5 3.4-2.1 6.7-4.2 9.9-6.5zm13-10.8c2.2-2.1 4.3-4.2 6.3-6.4-4.4 2.6-6.8 4.8-6.8 4.8l.5 1.6zm-38.9 25.2c1.8-.7 3.5-1.5 5.3-2.3l-4.1.7c-.1 0-.5.6-1.2 1.6zM143 243l-5.8-1.2c-.4.4-.7.8-1 1.2l-8.1 3.7v1.7l10.1-3.7v3.8c6.1-2.8 30.7-13.9 39.6-15.3 0 0-1.2 1.1-3.2 3.1l.5-.2h8.3l3.6 5.6c.8-.4 1.5-.8 2.3-1.2l-3.7-8.2c-15.8-4-42.6 10.7-42.6 10.7z"/><path fill="#48494A" d="M195.4 166.9l-4.7-3.1-3.2-13.2c-4 10.5-8.1 20.9-11.4 28.9 7.2-6.3 14.6-11.8 19.3-12.6z"/><path fill="#9B999A" d="M192.1 95.1c1.4 1 3.4 2.6 1.9 4.9 0 0-.9-1.7-2-3 0 .1.1.3.1.4.1 1-.1 3.1-.6 5.8h3.5l4.6-5.3c.1.2.1.3.2.5l2.6-4.3s0-7.2-.5-12 2.3-21.6 2.3-21.6-6.6-12.7-7.5-13.9c-.9-1.2-7.2-2.4-7.2-2.4s6.3 10.8 7.1 14.8c.6 3.3-2.9 22.3-4.3 29.6l1.7 1.3c-.1.3-3.3 4.3-1.9 5.2z"/><path fill="#BFACAA" d="M132.8 72.7s3 4.8 8.4 3.1c5.3-1.7 17.5-5.5 21.8-5.5s5.3 4.1 5.3 4.1-11.7-1.4-13.7 1.8c0 0 9.9.8 11.2 2.5s2.3 4.8 4.6 5c0 0 .5 3.1-2 3.4l-2.5.2s-9.6 2.9-13.5 2.9-3.6-1.7-6.9-2.2c-3.3-.5-5.1-3.1-6.3-5.5-1.2-2.4-4.7-5.4-11-5.5v59.8h1.3s1.4 8.5 2.9 8.8c4.1.9 3.4 6.4 3.4 6.4-1.3-2.6-6.3-4.7-7.6-5.2v21c1.2.6 15.1 7.8 16.6 7.4.8-.2 4.5-3.7 8.1-7.2.1-2.3-.3-5.1-1.7-8.2 0 0 1.3-3.4 5.3-2.4 0 0 1.2 2 2.4 4.5.9-1 1.6-1.8 1.7-2 0-.1.3-1 .9-2.3 2-5.4 6.4-18.5 6.8-20.9.5-2.9-5.1-13.9-9.9-22.8-4.8-8.9-12.7-19.5-12.7-19.5s14.2 4.2 18.3 2.8c3.3-1.2 7.9-6.2 9.4-7.9-1.9-5.5-4.2-13.6-5.1-17.4-1.4-5.3-5.9-8.8-9.8-11.5-3.9-2.7-1.7-5.7-4.4-7.5-2.7-1.8-7 3.5-7 3.5-2.6 6-4.5 11.3-4.5 11.3l-2-2.9c.5-4.8 3-12.8 5.2-19.2-5.8-1.8-15.6 2.6-17.6 3.6v23.6h4.6zm8.2 81.7l-2.9-2.4 2.4-1.8c-7.1-4.9-8.1-11.8-8.1-11.8l2-1.6c2.5 2.2 9.5 3.2 9.5 3.2-3.2 1.9-9.1-.6-9.1-.6 1 4.6 10.2 13.4 10.2 13.4l-4 1.6zm-5.2-98.9h4.1l-2 7.7h-2v-7.7z"/><path fill="#CAC7C7" d="M142.5 67.7s1.9-5.3 4.5-11.3l2.1-7-2.4-3.4c-.3-.2-.7-.3-1-.4-2.2 6.4-4.7 14.4-5.2 19.2l2 2.9zm-2.6-12.2h-4.1v7.6h2.1z"/><path fill="#887D7C" d="M139.1 82.5c1.3 2.4 3 5 6.3 5.5s3 2.2 6.9 2.2 13.5-2.9 13.5-2.9l2.5-.2c2.5-.2 2-3.4 2-3.4-2.3-.2-3.3-3.4-4.6-5s-11.2-2.5-11.2-2.5c2-3.2 13.7-1.8 13.7-1.8s-1-4.1-5.3-4.1-16.5 3.8-21.8 5.5c-5.3 1.7-8.4-3.1-8.4-3.1h-4.6V77c6.3.1 9.8 3.2 11 5.5zm18.2 88s0 .5-.1 1.1c.1-.4.2-.7.3-1-.1 0-.2-.1-.2-.1zm-18.3 6.9c.9-.2 7-.8 10.6-1.1 0 0 3-3.1 3.3-8.4-3.7 3.6-7.4 7-8.1 7.2-1.5.5-15.3-6.7-16.6-7.4v8.9c1.7.4 9.6 1 10.8.8zm20.6-14c.5-1.3 1.1-3.2 1-3.7-.1.3-.8 1-1.7 2 .3.7.5 1.2.7 1.7zm4.4-66.3c-4.1 1.4-18.3-2.8-18.3-2.8s7.9 10.7 12.7 19.5c4.8 8.9 10.4 19.9 9.9 22.8-.4 2.4-4.8 15.4-6.8 20.9 2.6-5.8 10-20.6 10.9-25.3 1.2-5.7 4.9-27.9 4.2-32.4-.7-4.5-13.9 3.7-13.9 3.7-4.1-.3-4.6-3.8-4.6-3.8 2.7 2.4 8.6-.8 10.2-1.4s6.9-4 6.9-4c-.5-1-1.2-2.8-2-5-1.3 1.7-5.8 6.6-9.2 7.8z"/><path fill="#362C29" d="M134.8 139.4s5.9 2.6 9.1.6c0 0-6.9-1-9.5-3.2l-2 1.6s1 6.9 8.1 11.8l-2.4 1.8 2.9 2.4 3.9-1.7c0 .1-9.1-8.7-10.1-13.3zm1 12.6s.7-5.5-3.4-6.4c-1.4-.3-2.9-8.8-2.9-8.8h-1.3v10c1.3.5 6.3 2.6 7.6 5.2z"/><path fill="#312726" d="M128.2 49.1c2-.9 11.7-5.4 17.6-3.6.4.1.7.2 1 .4l2.4 3.4-2.1 7s4.2-5.3 7-3.5c2.7 1.8.6 4.8 4.4 7.5 3.9 2.7 8.5 6.2 9.8 11.5 1 3.8 3.3 11.8 5.1 17.4.7 2.2 1.4 4 2 5 0 0-5.4 3.4-6.9 4s-7.4 3.8-10.2 1.4c0 0 .5 3.5 4.6 3.8 0 0 13.2-8.1 13.9-3.7.7 4.5-3 26.7-4.2 32.4-1 4.7-8.4 19.6-10.9 25.3-.6 1.3-.9 2.1-.9 2.3.1.5-.5 2.4-1 3.7.9 2.1 1.5 4.2 1.1 5.3-.8 2.3-2.7 2-3.2 1.8-.1.3-.1.7-.3 1-.3 1.8-1.7 5-7.6 4.7-3.6.4-9.7 1-10.6 1.1-1.2.2-9.1-.5-10.8-.7v40.6c2.9-1.7 23.5-14 27.7-18.5 1.4-1.4 4.7-4.9 8.9-9l-4-5.1c23.4-40 25.1-76.4 25.1-76.4l4.3-5h1c.4-2.7.7-4.8.6-5.8 0-.1 0-.3-.1-.4-1-1.1-2.3-1.9-3.4-.8 0 0-2-2.4-5.6-3.2 0 0-2.4-5.9-6.4-8.5 0 0-5.6-25.1-12.5-30.5l-1.2 2.4s-4.8-20.6-16.1-24.9c-.2.3-.4.7-.5 1.1l-1.3-1.2s.4-1 1.1-2.2c-7.7-.8-16 1.6-17.8 2.1v17.8z"/><path fill="#8B7660" d="M156.5 157.4c-4.1-1-5.3 2.4-5.3 2.4 1.4 3.1 1.8 5.9 1.7 8.2-.3 5.3-3.3 8.4-3.3 8.4 6 .3 7.3-2.9 7.6-4.7.1-.6.1-1.1.1-1.1s.1 0 .2.1c.6.2 2.4.5 3.2-1.8.4-1.1-.2-3.2-1.1-5.3-.2-.6-.5-1.1-.7-1.6-1.1-2.6-2.4-4.6-2.4-4.6z"/><path fill="#9B999A" d="M127.8 10h.2-.2zm.4 16.5v4.9c1.8-.5 10.1-2.9 17.8-2.1 2.2-4.2 7.4-11.8 12.7-1.6 0 0-.1-.1-.3-.1.5.4 1 .8 1.6 1.3 0 0-2.7-18.7-31.7-18.9v16.5z"/><path fill="#8C7C67" d="M146.7 31.6c11.3 4.2 16.1 24.9 16.1 24.9l1.2-2.4c6.9 5.4 12.5 30.5 12.5 30.5 4.1 2.6 6.4 8.5 6.4 8.5 3.6.8 5.6 3.2 5.6 3.2 1.1-1 2.4-.3 3.4.8 1.2 1.3 2 3 2 3 1.5-2.4-.5-4-1.9-4.9-1.4-1 1.9-4.9 1.9-4.9l-1.7-1.3-.5-.3c-2.5-2.2-8.6-11.8-8.1-16.3s-4.9-21.2-8.6-26.8c-2.6-3.9-9.6-11.9-15.1-16.7-.5-.5-1.1-.9-1.6-1.3-1.4-.7-7.9-3-11.6 4z"/><path fill="#312726" d="M146.2 32.7c.2-.4.3-.7.5-1.1 3.7-7 10.2-4.7 11.6-4.1.2.1.3.1.3.1-5.2-10.3-10.5-2.6-12.7 1.6-.7 1.3-1.1 2.2-1.1 2.2l1.4 1.3z"/><path fill="#6C5C4A" d="M196.9 109.8l-5.6 1.2c.3 26.6-25.1 76.2-25.1 76.2l-5.3-2.4 4 5.1c3.4-3.3 7.3-7 11.3-10.5 3.2-7.9 7.4-18.3 11.4-28.9 5.4-14.4 10.4-29 12-37.4 0 0 4.1-5.1.2-14.6-.1-.2-.1-.3-.2-.5.1 7.5-2.7 11.8-2.7 11.8z"/><path fill="#8B7660" d="M190.3 103.3l-4.3 5s-1.8 36.4-25.1 76.4l5.3 2.4s25.4-49.6 25.1-76.2l5.6-1.2s2.8-4.3 2.5-11.7l-4.6 5.3h-4.5z"/><path fill="#9E968C" d="M164.8 189.9c-4.2 4.1-7.6 7.6-8.9 9-4.2 4.5-24.8 16.8-27.7 18.5v3.1c2.4-1.1 16.6-7.5 20.6-11 4.4-3.8 13.9-14.7 10.5-3.5l8.8-7s2.4-2.2 0-7.3c0 0 5.1-1.3 4.4 6.7l8.1-5.1s2.7-5.7 0-9.3c0 0 5.8 1.6 4.4 6.4l14.2-11.2s3.4-5.5 0-8.6c0 0 5.4 3.8 4.4 7.3l7.1-.4.9 1.2c.3 0 .5-.1.8-.1-1.8-12.5-6.9-11.7-15.9-11.7-.4 0-.8 0-1.2.1-4.6.8-12 6.3-19.2 12.5-4 3.4-7.9 7.1-11.3 10.4z"/><path fill="#312726" d="M203.6 177.8c1-3.5-4.4-7.3-4.4-7.3 3.4 3.2 0 8.6 0 8.6L185 190.3c1.4-4.8-4.4-6.4-4.4-6.4 2.7 3.5 0 9.3 0 9.3l-8.1 5.1c.7-8-4.4-6.7-4.4-6.7 2.4 5.1 0 7.3 0 7.3l-8.8 7c3.4-11.2-6.1-.3-10.5 3.5-4 3.5-18.2 9.9-20.6 11v10.9c5.1-2 66.9-26.9 72.4-46.8 0 0 7.8-4.4 9.1-5.4.2-.2.9-.4 1.9-.5l-.9-1.2-7.1.4z"/><path fill="#8B8C8C" d="M214.1 209.1l-43.7 20.4s-25.8 4.3-33.2 12.2l5.8 1.2s26.7-14.7 42.7-10.9l3.7 8.2c1.2-.7 2.4-1.4 3.7-2.1 2.9-2.4 7.1-5.5 9.9-6.5 4.6-3.3 8.9-6.9 13-10.8l-.5-1.7s2.4-2.1 6.8-4.8c9.1-10 16.7-21.4 22.4-33.9-10 7.6-21.8 17.6-30.6 28.7z"/><path fill="#9B999A" d="M225.3 177.4s-8.3.4-12.9 1c-.3 0-.6.1-.8.1-.9.2-1.6.3-1.9.5-1.4 1-9.1 5.4-9.1 5.4-5.5 19.9-67.3 44.8-72.4 46.8v15.5l8.1-3.7c.3-.4.6-.8 1-1.2 7.4-7.9 33.2-12.2 33.2-12.2l43.7-20.4c8.7-11.1 20.6-21.1 30.6-28.4 1.7-3.9 3.3-7.8 4.7-11.8h-.7l-23.5 8.4z"/><path fill="#6E6A63" d="M175.2 235.9l-.5.2c-3.4 3.4-9.2 9.1-15.4 16 6.1-1.5 12.1-3.5 17.9-5.9.7-1 1.1-1.7 1.1-1.7l4.1-.7c1.6-.8 3.2-1.5 4.8-2.4l-3.6-5.6h-8.4z"/><path fill="#7E7870" d="M174.7 236.2c2-2 3.2-3.1 3.2-3.1-8.9 1.4-33.6 12.6-39.6 15.3v3.8l-1.5 3.5c7.7-.5 15.2-1.7 22.4-3.5 6.3-6.9 12.1-12.7 15.5-16z"/><path fill="#9E968C" d="M138.3 252.2v-7.6l-10.1 3.7v7.7c2.9 0 5.8-.1 8.6-.3l1.5-3.5z"/><path fill="#261D1A" d="M33.7 214.5c2 2.2 4.2 4.4 6.3 6.4l.5-1.7c0 .1-2.4-2-6.8-4.7zm47.1 21.4l.5.2c-2-2-3.2-3.1-3.2-3.1 8.9 1.4 33.6 12.6 39.6 15.3v-3.8l10.5 3.8v-1.6l-8.4-3.8c-.3-.4-.6-.8-1-1.2L113 243s-26.7-14.7-42.7-10.9l-3.7 8.2c.8.4 1.5.8 2.3 1.2l3.6-5.6h8.3zm-7.2 8c1.7.8 3.5 1.6 5.3 2.3-.7-1-1.1-1.7-1.1-1.7l-4.2-.6zm-10.7-5.7c-2.9-2.4-7.1-5.5-9.9-6.5 3.2 2.4 6.5 4.5 9.9 6.5z"/><path fill="#353637" d="M68.5 150.6l-3.2 13.2-4.7 3.1c4.6.8 12 6.3 19.2 12.5-3.2-7.9-7.3-18.3-11.3-28.8z"/><path fill="#8A888A" d="M61.1 103.3h3.5c-.4-2.7-.7-4.8-.6-5.8 0-.1 0-.3.1-.4-1.2 1.3-2 3-2 3-1.5-2.4.5-4 1.9-4.9 1.4-1-1.9-4.9-1.9-4.9l1.7-1.3c-1.4-7.4-4.9-26.4-4.3-29.6.8-4.1 7.1-14.8 7.1-14.8s-6.2 1.2-7.2 2.4c-.9 1.2-7.5 13.9-7.5 13.9s2.8 16.8 2.3 21.6c-.5 4.8-.5 12-.5 12l2.6 4.3c.1-.2.1-.3.2-.5l4.6 5z"/><path fill="#887D7C" d="M128.2 146.8V77c-6.5 0-10.1 3.1-11.3 5.5s-3 5-6.3 5.5-3 2.2-6.9 2.2-13.5-2.9-13.5-2.9l-2.5-.2c-2.5-.2-2-3.4-2-3.4 2.3-.2 3.3-3.4 4.6-5s11.2-2.5 11.2-2.5c-2-3.2-13.7-1.8-13.7-1.8s1-4.1 5.3-4.1 16.5 3.8 21.8 5.5c5.3 1.7 8.4-3.1 8.4-3.1h4.9V49.3s-11.4-5.7-17.9-3.7c2.2 6.4 4.7 14.4 5.2 19.2l-2 2.9s-1.9-5.3-4.5-11.3c0 0-4.2-5.3-7-3.5-2.7 1.8-.6 4.8-4.4 7.5-3.9 2.7-8.5 6.2-9.8 11.5-1 3.8-3.3 11.8-5.1 17.4 1.5 1.8 6 6.7 9.4 7.9 4.1 1.4 18.3-2.8 18.3-2.8s-7.9 10.7-12.7 19.5-10.4 19.9-9.9 22.8c.4 2.4 4.8 15.4 6.8 20.9.6 1.3.9 2.1.9 2.3.1.3.8 1 1.7 2 1.1-2.4 2.4-4.5 2.4-4.5 4.1-1 5.3 2.4 5.3 2.4-1.4 3.1-1.8 5.9-1.7 8.2 3.7 3.6 7.4 7 8.1 7.2 1.5.5 16.7-7.4 16.7-7.4v9h.3v-30zm-8-91.3v7.7h-2l-2-7.7h4zm-2.4 96.5l-2.9 2.4-3.9-1.7s9.1-8.8 10.2-13.4c0 0-5.9 2.6-9.1.6 0 0 6.9-1 9.5-3.2l2 1.6s-1 6.9-8.1 11.8l2.3 1.9zm2.4 0s-.7-5.5 3.4-6.4c1.4-.3 2.9-8.8 2.9-8.8h1.6v9.9c.1 0-6.4 2.3-7.9 5.3z"/><path fill="#A19FA0" d="M115.5 64.8c-.5-4.8-3-12.8-5.2-19.2-.4.1-.7.2-1 .4l-2.4 3.4 2.1 7c2.6 6 4.5 11.3 4.5 11.3l2-2.9zm4.7-1.7v-7.6h-4.1l2 7.6z"/><path fill="#6C6262" d="M127.8 72.7h-4.6s-3 4.8-8.4 3.1c-5.3-1.7-17.5-5.5-21.8-5.5-4.3 0-5.3 4.1-5.3 4.1s11.7-1.4 13.7 1.8c0 0-9.9.8-11.2 2.5s-2.3 4.8-4.6 5c0 0-.5 3.1 2 3.4l2.5.2s9.6 2.9 13.5 2.9 3.6-1.7 6.9-2.2c3.3-.5 5.1-3.1 6.3-5.5s4.9-5.5 11.3-5.5v-4.3h-.3zm-29.1 97.8s-.1 0-.2.1c.1.3.1.7.3 1-.1-.6-.1-1.1-.1-1.1zm-1.1-56.6c4.8-8.9 12.7-19.5 12.7-19.5S96 98.6 92 97.1c-3.3-1.2-7.9-6.2-9.4-7.9-.7 2.2-1.4 4-2 5 0 0 5.4 3.4 6.9 4s7.4 3.8 10.2 1.4c0 0-.5 3.5-4.6 3.8 0 0-13.2-8.1-13.9-3.7-.7 4.5 3 26.7 4.2 32.4 1 4.7 8.4 19.6 10.9 25.3-2-5.4-6.4-18.5-6.8-20.9-.4-2.7 5.2-13.8 10.1-22.6zm-2.2 45.9c-.1.5.5 2.4 1 3.7.2-.6.5-1.1.7-1.6-1-1.1-1.6-1.8-1.7-2.1zm32.5 8s-15.1 7.9-16.7 7.4c-.8-.2-4.5-3.7-8.1-7.2.3 5.3 3.3 8.4 3.3 8.4 3.6.4 9.7 1 10.6 1.1 1.2.2 9.4-.5 10.9-.7v-9z"/><path fill="#261D1A" d="M123.6 138.4l-2-1.6c-2.5 2.2-9.5 3.2-9.5 3.2 3.2 1.9 9.1-.6 9.1-.6-1 4.6-10.2 13.4-10.2 13.4l3.9 1.7 2.9-2.4-2.4-1.8c7.2-5 8.2-11.9 8.2-11.9zm4.6 8.3v-9.9h-1.6s-1.4 8.5-2.9 8.8c-4.1.9-3.4 6.4-3.4 6.4 1.4-3 7.9-5.3 7.9-5.3z"/><path fill="#261D1A" d="M128.2 176.8h-.3c-1.5.1-9.7.9-10.9.7-.9-.2-7-.8-10.6-1.1-6 .3-7.3-2.9-7.6-4.7-.1-.4-.2-.7-.3-1-.6.2-2.4.5-3.2-1.8-.4-1.1.2-3.2 1.1-5.3-.5-1.3-1.1-3.2-1-3.7 0-.1-.3-1-.9-2.3-2.6-5.8-10-20.6-10.9-25.3-1.2-5.7-4.9-27.9-4.2-32.4.7-4.5 13.9 3.7 13.9 3.7 4.1-.3 4.6-3.8 4.6-3.8-2.7 2.4-8.6-.8-10.2-1.4s-6.9-4-6.9-4c.5-1 1.2-2.8 2-5 1.9-5.5 4.2-13.6 5.1-17.4 1.4-5.3 5.9-8.8 9.8-11.5 3.9-2.7 1.7-5.7 4.4-7.5 2.7-1.8 7 3.5 7 3.5l-2.1-7 2.4-3.4c.3-.2.7-.3 1-.4 6.5-2 17.9 3.7 17.9 3.7V31.5s-9.5-3.2-18.2-2.2c.7 1.3 1.1 2.2 1.1 2.2l-1.3 1.2c-.2-.4-.3-.7-.5-1.1C98 35.9 93.2 56.5 93.2 56.5L92 54.1c-6.9 5.4-12.5 30.5-12.5 30.5-4.1 2.6-6.4 8.5-6.4 8.5-3.6.8-5.6 3.2-5.6 3.2-1.1-1-2.4-.3-3.4.8 0 .1-.1.3-.1.4-.1 1 .1 3.1.6 5.8h1l4.3 5s1.8 36.4 25.1 76.4l-4 5.1c4.2 4.1 7.6 7.6 8.9 9 4.6 4.8 28.1 18.7 28.1 18.7v-40.7z"/><path fill="#6C5C4A" d="M103.1 168c-.1-2.3.3-5.1 1.7-8.2 0 0-1.3-3.4-5.3-2.4 0 0-1.2 2-2.4 4.5-.3.5-.5 1.1-.7 1.6-.9 2.1-1.5 4.2-1.1 5.3.8 2.3 2.7 2 3.2 1.8.1 0 .2-.1.2-.1s0 .5.1 1.1c.3 1.8 1.7 5 7.6 4.7 0 0-3-3-3.3-8.3z"/><path fill="#8A888A" d="M97.4 27.7c5.2-10.3 10.5-2.6 12.7 1.6 8.7-.9 18.2 2.2 18.2 2.2V10h-.4c-29 .2-31.7 18.9-31.7 18.9.5-.5 1.1-.9 1.6-1.3-.3 0-.4.1-.4.1z"/><path fill="#6C5C4A" d="M63.9 95.1c-1.4 1-3.4 2.6-1.9 4.9 0 0 .9-1.7 2-3 1-1.1 2.3-1.9 3.4-.8 0 0 2-2.4 5.6-3.2 0 0 2.4-5.9 6.4-8.5 0 0 5.6-25.1 12.5-30.5l1.2 2.4s4.8-20.6 16.1-24.9c-3.7-7-10.2-4.7-11.6-4.1-.5.4-1 .8-1.6 1.3-5.4 4.8-12.4 12.9-15 16.8-3.7 5.6-9.1 22.4-8.6 26.8.5 4.5-5.6 14-8.1 16.3l-.5.3-1.7 1.3s3.2 4 1.8 4.9z"/><path fill="#261D1A" d="M111.1 31.5s-.4-1-1.1-2.2c-2.2-4.2-7.4-11.8-12.7-1.6 0 0 .1-.1.3-.1 1.4-.6 7.9-2.9 11.6 4.1.2.3.4.7.5 1.1l1.4-1.3z"/><path fill="#524536" d="M91.2 189.9l4-5.1-5.3 2.4S64.5 137.6 64.8 111l-5.6-1.2s-2.8-4.3-2.5-11.7c-.1.2-.1.3-.2.5-3.9 9.5.2 14.6.2 14.6 1.5 8.4 6.5 23 12 37.4 4 10.5 8.1 20.9 11.4 28.9 3.8 3.4 7.7 7.1 11.1 10.4z"/><path fill="#6C5C4A" d="M70 108.4l-4.3-5h-4.5l-4.6-5.3c-.3 7.4 2.5 11.7 2.5 11.7l5.6 1.2c-.3 26.6 25.1 76.2 25.1 76.2l5.3-2.4c-23.3-40-25.1-76.4-25.1-76.4z"/><path fill="#6E6A63" d="M45.2 177.4l7.1.4c-1-3.5 4.4-7.3 4.4-7.3-3.4 3.2 0 8.6 0 8.6L71 190.3c-1.4-4.8 4.4-6.4 4.4-6.4-2.7 3.5 0 9.3 0 9.3l8.1 5.1c-.7-8 4.4-6.7 4.4-6.7-2.4 5.1 0 7.3 0 7.3l8.8 7c-3.4-11.2 6.1-.3 10.5 3.5s21 11.2 21 11.2v10.9-13.9s-23.5-13.9-28.1-18.7c-1.4-1.4-4.7-4.9-8.9-9-3.4-3.3-7.3-7-11.3-10.5-7.2-6.2-14.6-11.7-19.2-12.5-.4-.1-.8-.1-1.2-.1-9 0-14.1-.8-15.9 11.7.3 0 .6.1.8.1l.8-1.2z"/><path fill="#261D1A" d="M128.2 220.6s-16.6-7.3-21-11.2c-4.4-3.8-13.9-14.7-10.5-3.5l-8.8-7s-2.4-2.2 0-7.3c0 0-5.1-1.3-4.4 6.7l-8.1-5.1s-2.7-5.7 0-9.3c0 0-5.8 1.6-4.4 6.4l-14.2-11.2s-3.4-5.5 0-8.6c0 0-5.4 3.8-4.4 7.3l-7.1-.4-.9 1.2c.9.2 1.6.3 1.9.5 1.4 1 9.1 5.4 9.1 5.4 5.8 20.8 72.8 46.9 72.8 46.9v-10.8z"/><path fill="#5A5B5C" d="M113 243l5.8-1.2c-7.4-7.9-33.2-12.2-33.2-12.2l-43.7-20.4C33.1 198 21.3 188 11.3 180.7c5.6 12.5 13.2 23.9 22.4 33.9 4.4 2.6 6.8 4.8 6.8 4.8L40 221c4.1 3.9 8.4 7.5 13 10.8 2.8 1 7 4.1 9.9 6.5 1.2.7 2.4 1.4 3.7 2.1l3.7-8.2C86.2 228.3 113 243 113 243z"/><path fill="#8B8C8C" d="M41.9 209.1l43.7 20.4s25.8 4.3 33.2 12.2c.4.4.7.8 1 1.2l8.4 3.8v-15.2s-67-26.2-72.8-46.9c0 0-7.8-4.4-9.1-5.4-.2-.2-.9-.4-1.9-.5-.3 0-.5-.1-.8-.1-4.5-.6-12.9-1-12.9-1L7.3 169h-.7c1.4 4 2.9 8 4.7 11.8 10 7.2 21.8 17.2 30.6 28.3z"/><path fill="#54514B" d="M81.3 236.2l-.5-.2h-8.3l-3.6 5.6c1.6.8 3.1 1.6 4.8 2.4l4.1.7s.4.6 1.1 1.7c5.8 2.4 11.7 4.4 17.9 5.9-6.3-7-12.1-12.8-15.5-16.1z"/><path fill="#6E6A63" d="M117.7 252.2v-3.8c-6.1-2.8-30.7-13.9-39.6-15.3 0 0 1.2 1.1 3.2 3.1 3.4 3.4 9.2 9.1 15.4 16 7.3 1.8 14.8 3 22.4 3.5l-1.4-3.5z"/><path fill="#7E7870" d="M128.2 253.2v-4.8l-10.5-3.8v7.6l1.5 3.5c2.9.2 5.8.3 8.8.3h.2v-2.8z"/></svg>