<svg xmlns="http://www.w3.org/2000/svg" width="256" height="256"><circle fill="#B1B3B5" cx="128" cy="128" r="128"/><path fill="#ABCDCF" d="M128 0c-7.6 0-15 .7-22.2 1.9 6.9-.7 14.3-1.1 22.2-1.1V0z"/><path fill="#6E8588" d="M64.1 147c2.2-.6 4.3-.9 6.2-1.1V138c-1.8 3.9-4.1 7.2-6.2 9zm-3.6 41c1.4-2.3 4.9-8.2 7.5-14.3.8-1.8 1.3-5.2 1.6-9.4-8.8 5.5-9.2 19.7-9.1 23.7zm-24 1.2c0-26.1 12.3-36.7 23.4-40.9l-.2-.2c-2.2-2.9-7.9-14.4-11.4-19.4-3.5-5-24.5-29.3-24.7-37.6-.2-8.2 2.2-19.1 7.7-24.9 5.4-5.9 12.4-17.6 15.1-21.1l.3-.3c-13.7 7-25 16.9-29.2 31.2h1.2v57.2h-2.2s-.2 35.6 20.9 66.1c-.4-2.4-.5-4.1-.5-4.9-.3-1.6-.4-3.4-.4-5.2z"/><path fill="#B0B7BA" d="M60.5 188c-.1-4 .4-18.3 9.1-23.7.5-5.4.7-12.2.7-18.4-1.9.2-4 .5-6.2 1.1-1.8 1.6-3.3 2.2-4.3 1.3-11.1 4.2-23.4 14.7-23.4 40.9l23.3-.1s.3-.4.8-1.1z"/><path fill="#BFE4E6" d="M150.2 1.9C143 .7 135.6 0 128 0v.8c7.9 0 15.3.4 22.2 1.1z"/><path fill="#8CA8AB" d="M237.4 76h1.2c-4.3-14.5-15.9-24.6-30-31.6.3.3.5.5.6.7 2.7 3.5 9.6 15.3 15.1 21.1 5.4 5.9 7.9 16.7 7.7 24.9-.2 8.2-21.3 32.6-24.7 37.6-3.5 5-9.1 16.4-11.4 19.4l-.1.1c11.2 4.1 23.7 14.6 23.7 41 0 1.8-.1 3.5-.3 5.2 0 .8-.1 2.5-.5 4.9 21.2-30.5 20.9-66.1 20.9-66.1h-2.2V76zm-52.1 69.9c1.8.2 3.9.5 6.1 1-2-1.9-4.2-5.1-6.1-8.9-.1 2.5-.1 5.1 0 7.9z"/><path fill="#899093" d="M240.4 86.5c-.2-3.7-.8-7.2-1.8-10.5h-1.2v57.2h9.6V81.1c-.3-.8-.7-1.7-1-2.5l-3.1 7.9h-2.5z"/><path fill="#B0B7BA" d="M128 246.8v3.8c47.4 0 70.2-15 81.1-29.5-34.3 28.5-81.1 25.7-81.1 25.7zm90.3-47c.1-.2.3-.4.4-.6.4-2.4.5-4.1.5-4.9-.1 2-.5 3.8-.9 5.5z"/><path fill="#5E5B47" d="M195.5 188.7c.1-2.8.3-19.1-9.6-24.6.4 4.3.9 7.8 1.7 9.6 2.9 6.8 6.9 13.3 7.9 15z"/><path fill="#DAE2E4" d="M191.3 146.9c-2.2-.5-4.3-.8-6.1-1 .1 6.2.2 12.8.7 18.2 9.8 5.5 9.7 21.8 9.6 24.6.2.3.3.4.3.4l23.7.1c0-26.4-12.5-36.9-23.7-41-.9 1.1-2.6.5-4.5-1.3z"/><path fill="#9C6C35" d="M195.5 188.7c-1-1.7-5-8.2-7.9-15-.8-1.8-1.3-5.3-1.7-9.6-.5-5.4-.6-12-.7-18.2V138c-.3-.7-.7-1.4-1-2.1-.2.4-.4.8-.6 1.1-14.1 23.2-51.7 23.2-51.7 23.2l-4-1.3v60.7c59.3 0 67.5-30.4 67.5-30.4h.3c.1-.1 0-.2-.2-.5zM184.3 35.5c-1.5-.4-3.1-.8-4.6-1.1 3.3 6.2 6.4 13.1 8.7 19.9-.9-7.3-2.6-13.8-4.1-18.8z"/><path fill="#B87F40" d="M147.6 78.6c6.3 8.8 13.7 10.6 14.5 16.7.7 6.2 4.8 29.1 4.8 35.2 0 6.1-5.5 23.9-38.9 24.1v4.2l4 1.3s37.6 0 51.7-23.2c.2-.3.4-.7.6-1.1-.3-.6-.5-1.2-.7-1.8-3.5-9.4.7-32.6 4.7-56 1.4-8.2 1.2-16.4.2-23.7-2.4-6.8-5.4-13.7-8.7-19.9-26.5-6.3-51.7-6-51.7-6v42.2c2.2 0 13.8.1 19.5 8zM128 24.3c7.3 0 14.2.2 20.7.6-12.3-.8-20.7-.6-20.7-.6z"/><path fill="#BF8C59" d="M128 99.5c2.2.4 12.6 2.7 13.9 10.3.8 4.6-1.4 7.6-3.5 9.3-.1.1-5.1 9.5-3.4 12.7 1.7 3.2 10.9 20 10.9 20s-9.1 2.8-17.9 2.9c33.4-.2 38.9-17.9 38.9-24.1 0-6.2-4.1-29.1-4.8-35.2-.7-6.2-8.2-7.9-14.5-16.7-5.6-7.9-17.2-8-19.6-7.9v28.7z"/><path fill="#757564" d="M135 131.7c-1.7-3.2 3.3-12.5 3.4-12.7-1.8 1.5-3.6 2.1-3.6 2.1s-.2-.3-.4-.9c-.7.7-1.4 1.3-2.1 1.9-.1.6-.1 1-.3 1.4-1 2.3-3.1 2.3-4 2.1v29c8.8-.1 17.9-2.9 17.9-2.9s-9.2-16.7-10.9-20z"/><path fill="#45473B" d="M134.8 112.6c3.6-.6 4.9-2.9 3.6-4.4-1.2-1.5-6.2-1.2-6.9 0-.7 1 1.2 9.8.8 13.9.7-.6 1.4-1.2 2.1-1.9-.8-2-2.5-7.1.4-7.6z"/><path fill="#282A1E" d="M132 123.5c.1-.3.2-.8.3-1.4.4-4.1-1.4-12.9-.8-13.9.7-1.2 5.7-1.5 6.9 0 1.2 1.5 0 3.8-3.6 4.4-2.9.5-1.2 5.6-.4 7.6.2.5.4.9.4.9s1.8-.6 3.6-2.1c2.2-1.8 4.3-4.7 3.5-9.3-1.3-7.6-11.7-9.9-13.9-10.3v26.2c.9.2 3.1.2 4-2.1z"/><path fill="#C0864C" d="M184.3 35.5c1.5 5 3.2 11.5 4.1 18.8.9 7.3 1.2 15.5-.2 23.7-4 23.5-8.2 46.7-4.7 56 .2.6.5 1.2.7 1.8.3.7.6 1.4 1 2.1 1.8 3.8 4.1 7 6.1 8.9 1.9 1.8 3.6 2.4 4.5 1.4l.1-.1c2.2-2.9 7.9-14.4 11.4-19.4 3.5-5 24.5-29.3 24.7-37.6.2-8.2-2.2-19.1-7.7-24.9-5.4-5.9-12.4-17.6-15.1-21.1-.2-.2-.4-.5-.6-.7-7.6-3.8-15.9-6.6-24.3-8.9z"/><path fill="#845B2A" d="M128 158.7l-4.4 1.5s-37.6 0-51.7-23.2c-.2-.3-.4-.7-.6-1.1-.3.7-.6 1.4-1 2.1v7.9c-.1 6.3-.3 13-.7 18.4-.4 4.2-.9 7.6-1.6 9.4-2.6 6.1-6 12-7.5 14.3-.4.7-.7 1.1-.7 1.1h.7s8.2 30.4 67.5 30.4v-60.8zM75.8 34.5c-1.5.4-3 .7-4.6 1.2-1.5 4.9-3.1 11.4-4.1 18.7 2.4-6.8 5.4-13.7 8.7-19.9z"/><path fill="#A27037" d="M128 24.3s-8.4-.3-20.7.6c6.5-.4 13.4-.6 20.7-.6zM67.3 78c4 23.5 8.2 46.7 4.7 56-.2.6-.5 1.2-.7 1.8.2.4.4.8.6 1.1 14.1 23.2 51.7 23.2 51.7 23.2l4.4-1.5v-4.1c-33.7 0-39.3-17.9-39.3-24.1s4.1-29.1 4.8-35.2c.7-6.2 8.2-7.9 14.5-16.7 6.3-8.8 20-7.9 20-7.9V28.4s-25.5-.3-52.2 6.1c-3.3 6.2-6.3 13.1-8.7 19.8-.9 7.4-1.2 15.5.2 23.7z"/><path fill="#B47F47" d="M109.7 151.7s9.1-16.8 10.9-20c1.7-3.2-3.3-12.5-3.4-12.7-2.2-1.8-4.3-4.7-3.5-9.3 1.5-8.5 14.3-10.3 14.3-10.3V70.7s-13.7-.9-20 7.9c-6.3 8.8-13.7 10.6-14.5 16.7-.7 6.2-4.8 29.1-4.8 35.2s5.6 24.1 39.3 24.1c-8.9 0-18.3-2.9-18.3-2.9z"/><path fill="#676758" d="M128 154.6v-29.1s-3.2.9-4.4-2.1c-.1-.3-.2-.8-.3-1.4-.7-.6-1.4-1.2-2.1-1.9-.2.5-.4.9-.4.9s-1.8-.6-3.6-2.1c.1.1 5.1 9.5 3.4 12.7-1.7 3.2-10.9 20-10.9 20s9.4 3 18.3 3z"/><path fill="#313429" d="M124 108.2c-.7-1.2-5.7-1.5-6.9 0-1.2 1.5 0 3.8 3.6 4.4 2.9.5 1.2 5.6.4 7.6.7.7 1.4 1.3 2.1 1.9-.3-4 1.5-12.8.8-13.9z"/><path fill="#141608" d="M128 119.7V99.4s-12.9 1.8-14.3 10.3c-.8 4.6 1.4 7.6 3.5 9.3 1.8 1.5 3.6 2.1 3.6 2.1s.2-.3.4-.9c.8-2.1 2.4-7.2-.4-7.6-3.6-.6-4.9-2.9-3.6-4.4 1.2-1.5 6.2-1.2 6.9 0 .7 1-1.2 9.8-.8 13.9.1.6.1 1 .3 1.4 1.2 2.9 4.4 2.1 4.4 2.1v-5.9z"/><path fill="#B87F40" d="M64.1 147c2-1.9 4.3-5.2 6.2-9 .3-.7.7-1.4 1-2.1.3-.6.5-1.2.7-1.8 3.5-9.4-.7-32.6-4.7-56-1.4-8.2-1.2-16.4-.2-23.7.9-7.3 2.6-13.7 4.1-18.7-8.5 2.3-16.9 5.2-24.6 9.1l-.3.3c-2.7 3.5-9.6 15.3-15.1 21.1-5.4 5.9-7.9 16.7-7.7 24.9.2 8.2 21.3 32.6 24.7 37.6 3.5 5 9.1 16.4 11.4 19.4.1.1.1.2.2.2 1 1 2.6.4 4.3-1.3z"/><path fill="#DAE2E4" d="M219.5 189.2l-23.7-.1h-.3s-8.2 30.4-67.5 30.4V242c47.4-.5 74.6-19.9 90.3-42.2.4-1.7.7-3.5.9-5.4.2-1.6.3-3.4.3-5.2z"/><path fill="#878D91" d="M179.7 34.4c1.5.4 3.1.7 4.6 1.1 8.3 2.2 16.7 5.1 24.3 8.9 14.1 7 25.7 17.1 30 31.6 1 3.3 1.6 6.8 1.8 10.5h2.6c0-48.1-61.3-59.1-94.4-61.5-6.4-.4-13.3-.6-20.7-.6v4.1c.1-.1 25.3-.4 51.8 5.9z"/><path fill="#B4BBBE" d="M252.1 129.2V96.6c-1.3-5.3-3-10.5-5-15.5v52.1l5-4z"/><path fill="#A6C7CA" d="M244.8 133.2h-5.1s.2 35.6-20.9 66.1c-.1.2-.3.4-.4.6-15.7 22.3-43 41.7-90.3 42.2v4.7s46.8 2.8 81.1-25.7c19.8-16.6 35.6-43.7 35.6-87.9z"/><path fill="#B0B7BA" d="M128 8.2v16.1s8.4-.3 20.7.6c33.1 2.4 94.4 13.5 94.4 61.5l3.1-7.9c-16.6-39.6-52.5-69-95.9-76.6-6.9-.7-14.3-1.1-22.2-1.1v7.4z"/><path fill="#747A7D" d="M16.3 133.2h2.2V76h-1.2c-1 3.3-1.6 6.8-1.8 10.5H13l-3.1-7.9c-.3.8-.7 1.7-1 2.5v52.1h7.4z"/><path fill="#8B9194" d="M46.9 221c11 14.6 33.7 29.5 81.1 29.5v-3.8c0 .1-46.8 2.9-81.1-25.7zm-9.6-21.7c.1.2.3.4.4.6-.4-1.7-.7-3.5-.9-5.4 0 .7.1 2.4.5 4.8z"/><path fill="#B0B7BA" d="M128 225.2v-5.7c-59.3 0-67.5-30.4-67.5-30.4h-.7l-23.3.1c0 1.8.1 3.5.3 5.2.2 1.9.5 3.7.9 5.4 15.7 22.3 43 41.7 90.3 42.2v-16.8z"/><path fill="#6B7073" d="M46.6 44.8c7.7-3.9 16.1-6.9 24.6-9.1 1.5-.4 3-.8 4.6-1.2 26.7-6.4 52.2-6.1 52.2-6.1v-4.1c-7.3 0-14.2.2-20.7.6C74.2 27.4 13 38.4 13 86.5h2.6c.2-3.7.8-7.2 1.8-10.5 4.3-14.2 15.5-24.2 29.2-31.2z"/><path fill="#878D91" d="M3.9 96.6v32.6l5 4V81.1c-2 5-3.7 10.2-5 15.5z"/><path fill="#8CA8AB" d="M128 246.8v-4.7c-47.4-.5-74.6-19.9-90.3-42.2-.1-.2-.3-.4-.4-.6-21.2-30.5-20.9-66.1-20.9-66.1h-5.1c0 44.3 15.7 71.3 35.6 87.8 34.3 28.6 81.1 25.8 81.1 25.8z"/><path fill="#989FA2" d="M107.3 25c12.3-.9 20.7-.6 20.7-.6V.8c-7.9 0-15.3.4-22.2 1.1C62.4 9.5 26.5 39 9.9 78.6l3.1 7.9c0-48.1 61.2-59.1 94.3-61.5z"/></svg>