<svg xmlns="http://www.w3.org/2000/svg" width="256" height="256"><circle fill="#B2B4B5" cx="128" cy="128" r="128"/><path fill="#30354D" d="M199.2 157.6l-13.4 7.6c.1 2.2.2 4.6.3 7l13.7-8.6h18.9l27.7 13.3c.9-2.2 1.8-4.5 2.6-6.8l-26.5-12.5h-23.3z"/><path fill="#030303" d="M199.7 163.6l-13.7 8.6c.2 4.4.3 8.9.4 12.8l11.9-15.7 15.3-3.4 30.4 16c.8-1.7 1.5-3.4 2.2-5.1l-27.7-13.3-18.8.1z"/><path fill="#BD9680" d="M128 194.2s21.7-1.4 35.1-18.5c4-9.5 7.7-19.9 8.7-28.9l-.3 1.3-1.7 1.2s0-.4.1-1.2c-3.1 3.7-15.7 18.6-23.3 23.4v.4c-.2 1.3-.2 2.1-.2 2.1h-3.6v-.8c-.9.3-1.8.6-2.7.8l-.2 3.3-1-1.4h-2.2l-1.7.7s-.5.5-1.2.5-2.4-.5-2.4-.5l-3.5.3v8.1l.1 9.2zM166.5 93l-18.6 2.7c-4.5 1.9-8.9 4-9.9 5s-2.2 4.6-.9 6.8c.3.4.6.7.9 1.1 2.9 3.1 7.9 6.4 15.1 4.1 5.1-1.7 8.9-3.4 11.7-5.5 3.4-5.8 1.7-14.2 1.7-14.2z"/><path fill="#686E75" d="M141.3 17.5l1.2 2.2-14.5-2.2v2.2l13.3 2.4 1.2 2.2L128 22v56.6s1.6-7.2 1.6-6.5 1 7.2 1.9 4.3c1-2.9 3.4-11 3.4-11s-2.4 9.3 0 7.8 5.3-6.5 5.3-10.5V43.8s1.7 7.7 2.2 4.1c.5-3.6 1.2-7.9 0-8.6-1.2-.7-3.4-3.4-1.2-4.6 2.2-1.2 4.6 3.1 4.3 5-.2 1.9-2.9 20.4-2.9 20.4l.5 8.6s1.2-4.1 2.4-5.7c1.2-1.7-2.9 4.8 0 4.3s4.8-4.3 4.8-4.3l2.2-.5s-7.7 13.4-6.7 13.9 4.6-1.9 4.6-1.9l-3.1 5.7s-1.4 9.8-.2 6.7c1.2-3.1 5.7-11.3 5.5-13.9s1.9-5.7 1.9-5.7-1 12.9 0 11.7c1-1.2 1.9-9.1 3.1-10.5 1.2-1.4 5.5-4.3 5.5-4.3s-5 7.4-3.6 7.2c1.4-.2 3.8-2.9 3.6-1.2s-1.2 1.2-4.1 6c-2.9 4.8-8.1 8.1-5 7.9 2.7-.2 10.9-9.8 13.8-12.9 2.4-39.2 6-43.2 6.5-43.6v-.1c-8.9-20.4-46.1-19-46.1-19v6.7l13.1 2.3zm22.5 61c-1.4 3.6-1.4 5.7 0 4.8 1.4-1 2.4-6.2 2.4-6.2l.9 2.7c.1-2.2.2-4.3.3-6.3-1 1-2.7 2.8-3.6 5z"/><path fill="#4C5156" d="M167.6 71.1l1-1c.1-.1.2-.1.3 0 .8-.2-.1 2.4-.1 2.4s-.5.3-1.1.9v-.2l-.2.2c-.1 2-.2 4.1-.3 6.3l.2.5v-.4l.7 2.2s.4.3 1 .3c.3 0 .7-.1 1-.3 1-.7 3.8-4.6 3.8-4.6v.2c.1-.1.1-.2.1-.2s1.2 3.8 0 5.3c-.8 1-2 2.3-2.5 3.3.4.3.7.7.9 1.1 0 .1 0 .1.1.2.9-.7 1.8-2.4 1.8-2.4v.3c.1-.2.2-.3.2-.3v2.7s-1.3.9-1.3 1.8 1 6.6 1.2 7.7c.8-1.1 5.6-7.9 6.3-14.7.6-6.2 1.6-12.7 1.9-14.7-.9-19.9-2-29.1-8.6-40.5h-.1c-.3.7-3.8 4.7-6.3 43.9zm-24.8 102V171l-1-6.9-1.4 3.1-.3 6.8c.8-.3 1.7-.6 2.7-.9zm27.1-25.1c.2-3.5 1-14.2 2.8-25.6l-12.2 8.9s2.2-4.1.5-3.2c-1.7.9-7.2 5-9.8 15.6-2.1 8.3-3.8 22.2-4.5 27.8 7.4-4.9 20.1-19.8 23.2-23.5zm-40.8-15.1c1.9-.5 2.2-1.2 2.6-2.4.5-1.2 2.2-1.4 2.4-2.5.2-.8.6-1.1 1-1.9.2-.3.3-.6.4-1.1.5-1.7-.2-4.8-.2-4.8l-3.6-2.9-1 3.4-1 2.2-.7-3.8-1.1 1.2v11l1.2 1.6zm12.2-115.4L128 15.1v2.4l14.5 2.1zm0 4.5L128 19.6V22l14.5 2.2z"/><path fill="#48362C" d="M158.7 91.2c-1.4.6-2.8 1.1-4.3 1.7-1.9.8-4.2 1.7-6.6 2.8l18.6-2.7s1.8 8.5-1.7 14.3c2.5-1.8 4.2-3.9 5.6-6.6v-9l-3.6-3.8s-3.5 1.5-8 3.3zm13-3.7c.1.1.2.2.3.2.2 0 .4-.1.6-.3 0-.1 0-.1-.1-.2-.2-.4-.5-.7-.9-1.1-.2.6-.3 1.1.1 1.4z"/><path fill="#D3DEEA" d="M138 108.7c-.3-.4-.7-.8-.9-1.1.1.4.4.8.9 1.1z"/><path fill="#D3DEEA" d="M174.6 97.3v.2l-4.1 3.3v-9l-3.6-3.8.4-7.5-.2-.5-.9-2.7s-1 5.3-2.4 6.2c-1.4 1-1.4-1.2 0-4.8.9-2.2 2.5-4 3.6-5 .1-.1.2-.1.2-.2l.1-2.2c.5-.5.8-.9 1-.9h.1-.3c-.1.1-.5.4-1 1-3 3.1-11.2 12.7-13.8 12.9-3.1.2 2.2-3.1 5-7.9 2.9-4.8 3.8-4.3 4.1-6s-2.2 1-3.6 1.2c-1.4.2 3.6-7.2 3.6-7.2s-4.3 2.9-5.5 4.3-2.2 9.3-3.1 10.5c-1 1.2 0-11.7 0-11.7s-2.2 3.1-1.9 5.7c.2 2.6-4.3 10.8-5.5 13.9s.2-6.7.2-6.7l3.1-5.7s-3.6 2.4-4.6 1.9 6.7-13.9 6.7-13.9l-2.2.5s-1.9 3.8-4.8 4.3 1.2-6 0-4.3-2.4 5.7-2.4 5.7l-.5-8.6s2.6-18.4 2.9-20.4c.2-1.9-2.2-6.2-4.3-5-2.2 1.2 0 3.8 1.2 4.6 1.2.7.5 5 0 8.6s-2.2-4.1-2.2-4.1v18.9c0 4.1-2.9 9.1-5.3 10.5s0-7.8 0-7.8-2.4 8.1-3.4 11-1.9-3.6-1.9-4.3c0-.7-1.6 6.5-1.6 6.5V97s17.1-2.7 30.7-5.8c4.4-1.8 8-3.3 8-3.3l3.6 3.8v9c-1.3 2.6-3.1 4.8-5.6 6.6-2.8 2.1-6.6 3.8-11.7 5.5-7.2 2.3-12.2-1-15.1-4.1 0 0-3.2-2.8-10-2.8v14.3l1.1-1.2.7 3.8 1-2.2 1-3.4 3.6 2.9s.7 3.1.2 4.8c-.1.5-.3.8-.4 1.1 5.3.1 17.3-.4 26.1-7.3 11.5-9.1 18.2-16.5 22-28.3l1.2-21c-.9-1.3-1.6-2.2-1.6-2.2s0 .2-.1.6c-.3 2-1.3 8.5-1.9 14.7-.3 6.9-5.1 13.6-5.9 14.8z"/><path fill="#D3DEEA" d="M170.2 82.1c.8-.6 3.1-3.6 3.7-4.4v-.2s-2.9 3.8-3.8 4.6c-.3.2-.6.3-1 .3.3.1.8 0 1.1-.3zm-15.8 10.8c1.5-.6 2.9-1.2 4.3-1.7-.1.1-1.8.7-4.3 1.7zm20-7.6V85s-.9 1.7-1.8 2.4c-.2.2-.4.3-.6.3.8.1 2-1.7 2.4-2.4z"/><path fill="#BEC9D4" d="M161.2 118.8c-8.7 6.9-20.8 7.5-26.1 7.3-.4.8-.8 1.1-1 1.9-.2 1.1-1.9 1.3-2.4 2.5s-.7 1.9-2.6 2.4l-1.1-1.7v45.5l3.5-.3s1.7.5 2.4.5 1.2-.5 1.2-.5l1.7-.7h2.2l1 1.4.2-3.3.3-6.8 1.4-3.1 1 6.9v2.9h3.6s.1-.8.2-2.1v-.4c.7-5.6 2.4-19.4 4.5-27.8 2.6-10.6 8.1-14.8 9.8-15.6s-.5 3.2-.5 3.2l12.2-8.9c-1.8 11.4-2.6 22.1-2.8 25.6-.1.8-.1 1.2-.1 1.2l1.7-1.2.3-1.3 3.6-16 .6-2.8s2.4-14.3 5.7-21.9c3.4-7.7 4.1-34.2 4.1-34.2-.4-.8-.9-1.6-1.4-2.3l-1.2 21c-3.8 12.1-10.5 19.5-22 28.6zm-18.8 15.5c.6.8-2.4 5.6-4.3 4.2-1.9-1.4 1.3-3.4 1.3-3.4 1.4-1.2 2.3-1.6 3-.8zm-4.4 21.6c-1.9-1.4 1.3-3.4 1.3-3.4 1.5-1.3 2.4-1.6 3-.8.7.9-2.3 5.7-4.3 4.2zm1.3-12c1.5-1.3 2.4-1.6 3-.8s-2.4 5.6-4.3 4.2c-1.9-1.5 1.3-3.4 1.3-3.4zm28.5-72.8l-.1 2.2v.2c.6-.6 1.1-.9 1.1-.9s.9-2.6.1-2.4h-.1c-.1 0-.5.4-1 .9z"/><path fill="#BEC9D4" d="M166.9 87.9l3.6 3.8v9l4.1-3.3v-.2c-.2-1.1-1.2-6.8-1.2-7.7 0-1 1.3-1.8 1.3-1.8V85s-.1.1-.2.3c-.4.7-1.6 2.5-2.4 2.4-.1 0-.2-.1-.3-.2-.3-.4-.3-.8-.1-1.4.4-1.1 1.7-2.4 2.5-3.3 1.2-1.4 0-5.3 0-5.3s0 .1-.1.2c-.6.7-2.9 3.8-3.7 4.4-.4.3-.8.3-1.1.3-.6 0-1-.3-1-.3l-.7-2.2v.4l-.7 7.6zM138 108.7c-.4-.3-.7-.7-.9-1.1-1.2-2.3 0-5.9.9-6.8 1-1 5.4-3.1 9.9-5 2.3-1 4.6-2 6.6-2.8 2.5-1 4.2-1.7 4.3-1.7-13.7 3-30.8 5.7-30.8 5.7v8.9c6.8 0 10 2.8 10 2.8z"/><path fill="#4C5156" d="M139.3 135.1s-3.2 1.9-1.3 3.4c1.9 1.4 4.9-3.4 4.3-4.2s-1.5-.4-3 .8zm3.1 8c-.6-.8-1.6-.5-3 .8 0 0-3.2 1.9-1.3 3.4 1.9 1.4 4.9-3.4 4.3-4.2zm0 8.7c-.6-.8-1.6-.5-3 .8 0 0-3.2 1.9-1.3 3.4 1.9 1.4 4.9-3.4 4.3-4.2z"/><path fill="#1E1F28" d="M132.2 213.1l21.3-18h.1c2.6-4.9 6.2-11.9 9.4-19.5-13.4 17.1-35.1 18.5-35.1 18.5v19l5.6 4.1v18.7h.7V216l-2-2.9z"/><path fill="#424658" d="M128 213.1v22.7h5.6v-18.7l-5.6-4z"/><path fill="#292C39" d="M149.5 209.8v-7.2s1.7-2.8 4.2-7.4h-.1l-21.3 18 2.2 2.9V236H148l10.9-14.4-9.4-11.8z"/><path fill="#4C5156" d="M171.8 146.7c-1 9-4.7 19.5-8.7 28.9-3.3 7.6-6.8 14.6-9.4 19.5-2.5 4.6-4.2 7.4-4.2 7.4v7.2l9.2 11.7 27.7-36.5c-.1-3.9-.2-8.4-.4-12.8-.1-2.4-.2-4.8-.3-7-.2-3.7-.4-6.9-.6-9-.9-8.8-9.3-24.4-9.8-25.4l-3.5 16z"/><path fill="#2F3338" d="M207.9 223v-5.6h-.1l-3.7-2.4-.5-.3-10.6-6.8-1.6-1-1.4-.9-7.2-4.6 30.9-35.4-15.3 3.4-12 15.6-27.7 36.5-10.9 14.4h10.4l11.1-14.5 5.1 3.5s0-.1.1-.1l2.8 1.9-.1.1.2.1.1-.1 9.7 6.6-.1.1 1.7 1.2.1-.1 3.6 2.5-.1.1 1.2.8 3.9-2.4-2.6-1.8-3.9-2.8-1.4-1-9.4-6.7-.4-.3-2.5-1.8-5-3.5 9.8-11.8 5.5 3 1.7 1 1.4.8 11.4 6.2.4.2 1.1.6-1 6.3-.9 5.9.6.4 1.3 1c1.5-1.1 2.9-2.2 4.3-3.3v-5zm36.2-41l-30.5-16z"/><path fill="#142033" d="M175.5 229.1l1.9-2.3-.2-.1zm4.2 6.7c.1.2-.2.9-.8 1.8.6.2 1.2.4 1.7.6l1-2.4s-2.7-2.4-1.9 0zm3.1 3.3c.8.4 1.6.9 2.3 1.5l3.7-5.9-1.7-1.2-4.3 5.6zm7.3.8c1.2-.6 2.3-1.3 3.4-2l-1.2-.8-2.2 2.8zm-25-4.1c3.1-3.7 6.2-7.4 9.3-11l-5.1-3.5-11.1 14.5c2.3 0 4.6-.1 6.9 0zm16.9-29.9l-9.8 11.8 5 3.5c3.6-4.3 7.1-8.5 10.4-12.3l-5.6-3zm8.2 23.2l-.6.9 1.4.9.9-1.5zm12.3-12l-.4-.2-6.1 9zm-13.2-7.2l-9.6 13.1.5.3 10.5-12.7zm12.4 20l.9-5.9-7.7 9.7 2.6 1.8c.6-.4 1.1-.7 1.7-1.1l3.1-4.1-.6-.4z"/><path fill="#142033" d="M182.7 201.4l7.2 4.6c9-10.7 15.4-18.3 15.4-18.3l-14 19.3 1.6 1 19.3-23.1-3.4 8.9 12.6-14.1-3.7 8.6 3.7-3.5v3.5l-17.8 26.4.5.3 13.6-18.4-1 7.9 11.2-12.4-20.1 25.3h.1v5.6l21.3-27.8 5.1-3.4-26.3 36.1c1.6-1.3 3.2-2.6 4.7-4l15.4-18.7 3.8-4.7-.7 3c4.9-6.7 9.2-14 12.8-21.6l-30.4-16-30.9 35.5z"/><path fill="#D3DEEA" d="M232 200.6l-3.8 4.7-15.4 18.7c6.9-6.1 13.1-12.9 18.5-20.3l.7-3.1zm-24.2 16.8l20.1-25.3-11.2 12.4 1-7.9-13.6 18.4zm-16.4-10.5l14-19.3s-6.4 7.6-15.4 18.3l1.4 1zm42.9-15.2l-5.1 3.4-21.3 27.9v5c.1 0 .1-.1.2-.1l26.2-36.2zm-30.7 23l17.8-26.4v-3.4l-3.7 3.4 3.7-8.6-12.5 14.1 3.4-8.9-19.3 23zm-1 9.3l1-6.3-1.1-.6-6.5 8.8 6.1-9-11.4-6.3-10.5 12.7 9.4 6.7.6-.9 1.7.3-.9 1.5 3.9 2.8zm-15-15.1c-3.2 3.8-6.7 8-10.4 12.3l2.5 1.8 9.6-13.2-1.7-.9zm14.7 21.4l-3.1 4.1c1.5-1 3-2.1 4.5-3.1l-1.4-1zm-9.9 6.7l-3.6-2.5-.1.1-3.7 5.9c.5.4 1 .8 1.5 1.3 1.2-.6 2.4-1.3 3.5-1.9l2.4-2.9zm-13.5.5c.6-.9.9-1.5.8-1.8-.8-2.4 1.9 0 1.9 0l-1 2.4c.8.3 1.5.6 2.2 1l4.3-5.6.1-.1-9.7-6.6-.1.1-1.9 2.3 1.8-2.4.1-.1-2.8-1.9s0 .1-.1.1c-3.1 3.6-6.2 7.3-9.3 11 4.6-.1 9.4.3 13.7 1.6z"/><path fill="#4C5156" d="M182.8 239.1c-.7-.4-1.4-.7-2.2-1-.6-.2-1.1-.4-1.7-.6-4.2-1.3-9-1.7-13.7-1.7h-37.1v4.4h34.1c3.5 0 8 .7 12.5 2.4 1.1.4 2.2.9 3.2 1.4.2.1.4.2.7.3.4.2.8.4 1.3.7 2.3-1 4.6-2.1 6.8-3.3-.5-.5-1-.9-1.5-1.3-.8-.4-1.6-.9-2.4-1.3z"/><path fill="#30354D" d="M128 240.3V256c7.3 0 14.5-.6 21.5-1.8 3.6-4.3 7.6-9.1 11.7-13.9H128zm46.6 2.3c-1.7 2-3.7 4.3-5.9 6.7 2.8-.9 5.5-2 8.2-3.1l1-2.2c-1.1-.5-2.2-.9-3.3-1.4zm3.9 1.8l-1.4 1.8c.9-.4 1.8-.8 2.7-1.1-.4-.3-.8-.5-1.3-.7z"/><path fill="#D3DEEA" d="M174.6 242.6c-4.5-1.7-9-2.4-12.5-2.4h-.9c-4.1 4.9-8 9.6-11.7 13.9 6.6-1.1 13-2.7 19.2-4.8 2.2-2.4 4.2-4.7 5.9-6.7zm3.9 1.8c-.2-.1-.4-.2-.7-.3l-1 2.2c.1 0 .1-.1.2-.1l1.5-1.8z"/><path fill="#20253A" d="M56.3 163.6l13.7 8.6c.1-2.4.2-4.8.3-7l-13.4-7.6H33.6L7.1 170.1c.8 2.3 1.7 4.6 2.6 6.8l27.7-13.3h18.9z"/><path fill="#030303" d="M57.7 169.3L69.6 185c.1-3.9.2-8.4.4-12.8l-13.7-8.6h-19L9.7 176.9c.7 1.7 1.5 3.4 2.2 5.1l30.4-16 15.4 3.3z"/><path fill="#AC8875" d="M128 194.2v-17.4l-3.5-.3s-1.7.5-2.4.5-1.2-.5-1.2-.5l-1.7-.7H117l-1 1.4-.2-3.3c-.9-.3-1.8-.5-2.7-.8v.8h-3.6s-.1-.8-.2-2.1v-.4c-7.5-4.8-20.1-19.6-23.3-23.4.1.8.1 1.2.1 1.2l-1.7-1.2-.3-1.3c1 9 4.7 19.5 8.7 28.9 13.5 17.2 35.2 18.6 35.2 18.6zm-10-93.5c-1-1-5.4-3.1-9.9-5L89.5 93s-1.8 8.5 1.7 14.3c2.8 2.1 6.6 3.8 11.7 5.5 7.2 2.3 12.2-1 15.1-4.1.3-.4.7-.8.9-1.1 1.3-2.3.1-5.9-.9-6.9z"/><path fill="#4C5156" d="M88.9 79.8l.9-2.7s1 5.3 2.4 6.2c1.4 1 1.4-1.2 0-4.8-.9-2.2-2.5-4-3.6-5 .1 2 .2 4.1.3 6.3zm-.5-8.7c3 3.1 11.2 12.7 13.8 12.9 3.1.2-2.2-3.1-5-7.9-2.9-4.8-3.8-4.3-4.1-6s2.2 1 3.6 1.2-3.6-7.2-3.6-7.2 4.3 2.9 5.5 4.3 2.2 9.3 3.1 10.5c1 1.2 0-11.7 0-11.7s2.2 3.1 1.9 5.7c-.2 2.6 4.3 10.8 5.5 13.9s-.2-6.7-.2-6.7l-3.1-5.7s3.6 2.4 4.6 1.9-6.7-13.9-6.7-13.9l2.2.5s1.9 3.8 4.8 4.3-1.2-6 0-4.3 2.4 5.7 2.4 5.7l.5-8.6s-2.6-18.4-2.9-20.4c-.2-1.9 2.2-6.2 4.3-5 2.2 1.2 0 3.8-1.2 4.6-1.2.7-.5 5 0 8.6s2.2-4.1 2.2-4.1v18.9c0 4.1 2.9 9.1 5.3 10.5s0-7.8 0-7.8 2.4 8.1 3.4 11 1.9-3.6 1.9-4.3c0-.7 1.6 6.5 1.6 6.5V22l-14.5 2.2 1.2-2.2 13.3-2.4v-2.2l-14.5 2.2 1.2-2.2 13.3-2.4V8.4S91 7 82.1 27.4v.1c.3.4 3.8 4.4 6.3 43.6z"/><path fill="#2F3338" d="M81.4 97.3c.2-1.1 1.2-6.8 1.2-7.7 0-1-1.3-1.8-1.3-1.8V85s.1.1.2.3V85s.9 1.7 1.8 2.4c0-.1 0-.1.1-.2.2-.4.5-.7.9-1.1-.4-1.1-1.7-2.4-2.5-3.3-1.2-1.4 0-5.3 0-5.3s0 .1.1.2v-.2s2.9 3.8 3.8 4.6c.3.2.6.3 1 .3.6 0 1-.3 1-.3l.7-2.2v.4l.2-.5c-.1-2.2-.2-4.3-.3-6.3-.1-.1-.2-.1-.2-.2v.2c-.6-.6-1.1-.9-1.1-.9s-.9-2.6-.1-2.4h.3c.1.1.5.4 1 1-2.4-39.2-6-43.2-6.5-43.6h-.1C75 39 74 48.1 73 68.1c.3 2 1.3 8.5 1.9 14.7.9 6.6 5.7 13.3 6.5 14.5zm28 74.1c-.7-5.6-2.4-19.4-4.5-27.8-2.6-10.6-8.1-14.8-9.8-15.6s.5 3.2.5 3.2l-12.2-8.9c1.8 11.4 2.6 22.1 2.8 25.6 3 3.8 15.7 18.7 23.2 23.5zm6.6 2.5l-.3-6.8-1.4-3.1-1 6.9v2.1c.9.4 1.8.7 2.7.9zm12-53.7l-1.1-1.2-.7 3.8-1-2.2-1-3.4-3.6 2.9s-.7 3.1-.2 4.8c.1.5.3.8.4 1.1.4.8.8 1.1 1 1.9.2 1.1 1.9 1.3 2.4 2.5s.7 1.9 2.6 2.4l1.1-1.7V126l.1-5.8zM114.7 17.5l-1.2 2.1 14.5-2.1v-2.4zm0 4.5l-1.2 2.2L128 22v-2.4z"/><path fill="#34241B" d="M89.5 93l18.6 2.7c-2.3-1-4.6-2-6.6-2.8-1.5-.6-2.9-1.2-4.3-1.7-4.4-1.8-8-3.3-8-3.3l-3.6 3.8v9c1.3 2.6 3.1 4.8 5.6 6.6-3.4-5.9-1.7-14.3-1.7-14.3zm-5.2-5.5c.3-.4.3-.8.1-1.4-.4.3-.7.7-.9 1.1 0 .1 0 .1-.1.2.2.2.4.3.6.3.1 0 .2-.1.3-.2z"/><path fill="#BEC9D4" d="M94.8 118.8c8.7 6.9 20.8 7.5 26.1 7.3-.2-.3-.3-.6-.4-1.1-.5-1.7.2-4.8.2-4.8l3.6-2.9 1 3.4 1 2.2.7-3.8 1.1 1.2V106c-6.8 0-10 2.8-10 2.8-2.9 3.1-7.9 6.4-15.1 4.1-5.1-1.7-8.9-3.4-11.7-5.5-2.5-1.8-4.2-3.9-5.6-6.6v-9l3.6-3.8s3.5 1.5 8 3.3c13.6 3 30.7 5.7 30.7 5.7V78.5s-1.6-7.2-1.6-6.5-1 7.2-1.9 4.3c-1-2.9-3.4-11-3.4-11s2.4 9.3 0 7.8-5.3-6.5-5.3-10.5V43.7s-1.7 7.7-2.2 4.1c-.5-3.6-1.2-7.9 0-8.6 1.2-.7 3.4-3.4 1.2-4.6-2.2-1.2-4.6 3.1-4.3 5 .2 1.9 2.9 20.4 2.9 20.4l-.5 8.6s-1.2-4.1-2.4-5.7c-1.2-1.7 2.9 4.8 0 4.3s-4.8-4.3-4.8-4.3l-2.2-.5s7.7 13.4 6.7 13.9-4.6-1.9-4.6-1.9l3.1 5.7s1.4 9.8.2 6.7c-1.2-3.1-5.7-11.3-5.5-13.9s-1.9-5.7-1.9-5.7 1 12.9 0 11.7c-1-1.2-1.9-9.1-3.1-10.5s-5.5-4.3-5.5-4.3 5 7.4 3.6 7.2c-1.4-.2-3.8-2.9-3.6-1.2s1.2 1.2 4.1 6 8.1 8.1 5 7.9c-2.7-.2-10.9-9.8-13.8-12.9l-1-1c-.1-.1-.2-.1-.3 0h.1c.1.1.5.4 1 .9l.1 2.2.2.2c1.1 1 2.7 2.8 3.6 5 1.4 3.6 1.4 5.7 0 4.8-1.4-1-2.4-6.2-2.4-6.2l-.9 2.7-.2.5.4 7.5-3.6 3.8v9l-4.1-3.3V97c-.8-1.1-5.6-7.9-6.3-14.7-.6-6.2-1.6-12.7-1.9-14.7-.1-.4-.1-.6-.1-.6s-.8.9-1.6 2.2l1.2 21c4.2 12.1 10.9 19.5 22.4 28.6z"/><path fill="#BEC9D4" d="M119 107.6c-.3.4-.6.7-.9 1.1.4-.3.7-.7.9-1.1zM84 87.7c-.2 0-.4-.1-.6-.3-.9-.7-1.8-2.4-1.8-2.4v.3c.4.7 1.6 2.5 2.4 2.4zm1.8-5.6c.4.3.8.3 1.1.3-.3 0-.7-.1-1.1-.3-.9-.7-3.7-4.6-3.7-4.6v.2c.5.8 2.8 3.8 3.7 4.4zm11.5 9.1c1.4.6 2.8 1.1 4.3 1.7-2.5-1-4.2-1.6-4.3-1.7z"/><path fill="#A8B2BC" d="M84.2 146.7l.3 1.3 1.7 1.2s0-.4-.1-1.2c-.2-3.5-1-14.2-2.8-25.6l12.2 8.9s-2.2-4.1-.5-3.2c1.7.9 7.2 5 9.8 15.6 2.1 8.3 3.8 22.2 4.5 27.8v.4c.2 1.3.2 2.1.2 2.1h3.6v-3l1-6.9 1.4 3.1.3 6.8.2 3.3 1-1.4h2.2l1.7.7s.5.5 1.2.5 2.4-.5 2.4-.5l3.5.3v-45.5l-1.1 1.7c-1.9-.5-2.2-1.2-2.6-2.4-.5-1.2-2.2-1.4-2.4-2.5-.2-.8-.6-1.1-1-1.9-5.3.1-17.3-.4-26.1-7.3-11.5-9.1-18.2-16.5-22-28.3l-1.2-21c-.5.7-1 1.5-1.4 2.3 0 0 .7 26.6 4.1 34.2C77.6 113.7 80 128 80 128l.6 2.8 3.6 15.9zm29.4 5.1c.6-.8 1.6-.5 3 .8 0 0 3.2 1.9 1.3 3.4-1.9 1.4-4.9-3.4-4.3-4.2zm4.4-4.5c-1.9 1.4-4.9-3.4-4.3-4.2s1.6-.5 3 .8c0 0 3.2 1.9 1.3 3.4zm-1.3-12.2s3.2 1.9 1.3 3.4c-1.9 1.4-4.9-3.4-4.3-4.2s1.5-.4 3 .8zM87.2 72.6s.5.3 1.1.9v-.2l-.1-2.2c-.5-.5-.8-.9-1-.9h-.1c-.8-.3.1 2.4.1 2.4z"/><path fill="#A8B2BC" d="M87.9 82.1s-.4.3-1 .3c-.4 0-.8 0-1.1-.3-.8-.6-3.1-3.6-3.7-4.4-.1-.1-.1-.2-.1-.2s-1.2 3.8 0 5.3c.8 1 2 2.3 2.5 3.3.2.5.2 1-.1 1.4-.1.1-.2.2-.3.2-.8.1-2-1.7-2.4-2.4-.1-.2-.2-.3-.2-.3v2.7s1.3.9 1.3 1.8-1 6.6-1.2 7.7v.2l4.1 3.3v-9l3.6-3.8-.4-7.5V80l-1 2.1zm9.4 9.1c.1 0 1.8.7 4.3 1.7 1.9.8 4.2 1.7 6.6 2.8 4.5 1.9 8.9 4 9.9 5s2.2 4.6.9 6.8c-.2.4-.5.8-.9 1.1 0 0 3.2-2.8 10-2.8V97c-.1 0-17.2-2.7-30.8-5.8z"/><path fill="#2F3338" d="M113.6 134.3c-.6.8 2.4 5.6 4.3 4.2 1.9-1.4-1.3-3.4-1.3-3.4-1.4-1.2-2.3-1.6-3-.8zm3.1 9.6c-1.5-1.3-2.4-1.6-3-.8s2.4 5.6 4.3 4.2c1.9-1.5-1.3-3.4-1.3-3.4zm0 8.7c-1.5-1.3-2.4-1.6-3-.8s2.4 5.6 4.3 4.2c1.9-1.5-1.3-3.4-1.3-3.4z"/><path fill="#13131C" d="M128 213.1v-19s-21.7-1.4-35.1-18.5c3.3 7.6 6.8 14.6 9.4 19.5h.1l21.3 18-2.2 2.9v19.9h.7v-18.7l5.8-4.1z"/><path fill="#292C39" d="M122.4 217.2v18.7h5.6v-22.7l-5.6 4z"/><path fill="#1A1D29" d="M123.8 213.1l-21.3-18h-.1c2.5 4.6 4.2 7.4 4.2 7.4v7.2l-9.2 11.7 10.9 14.4h13.5V216l2-2.9z"/><path fill="#2F3338" d="M69.6 185l27.7 36.5 9.2-11.7v-7.2s-1.7-2.8-4.2-7.4c-2.6-4.9-6.2-11.9-9.4-19.5-4-9.5-7.7-19.9-8.7-28.9l-3.6-16c-.5 1-8.9 16.6-9.8 25.4-.2 2.1-.4 5.3-.6 9-.1 2.2-.2 4.6-.3 7-.1 4.4-.2 8.9-.3 12.8z"/><path fill="#25282D" d="M63.6 237l3.6-2.5.1.1 1.7-1.2-.1-.1 9.7-6.6.1.1.2-.1-.1-.1 2.8-1.9s0 .1.1.1l5.1-3.5 11.1 14.5h10.4l-10.9-14.4L69.6 185l-11.9-15.7-15.3-3.3 30.9 35.4L66 206l-1.4.9-1.6 1-10.6 6.8-.5.3-3.7 2.4h-.1V228c1.4 1.1 2.9 2.2 4.3 3.3l1.3-1 .6-.4-.9-5.9-1-6.3 1.1-.6.4-.2 11.4-6.2 1.4-.8 1.7-1 5.5-3 9.8 11.8-5 3.5-2.5 1.8-.4.3-9.4 6.7-1.4 1-3.9 2.8-2.6 1.8 3.9 2.4 1.2-1zm-51.7-55l30.5-16z"/><path fill="#00051B" d="M68.9 233.5l-1.7 1.2 3.7 5.9c.7-.5 1.5-1 2.3-1.5l-4.3-5.6zm9.9-6.8l-.2.1 1.9 2.3zm7.9-5.4l-5.1 3.5c3.1 3.6 6.2 7.3 9.3 11h6.9l-11.1-14.5zm-12.3 14.5l1 2.4c.6-.2 1.1-.4 1.7-.6-.6-.9-.9-1.5-.8-1.8.8-2.4-1.9 0-1.9 0zm-12 2.1c1.1.7 2.3 1.3 3.4 2l-2.2-2.8-1.2.8zm21.4-20.2L74 205.9l-5.5 3c3.2 3.8 6.7 8 10.4 12.3l4.9-3.5zm-19.7 11.7l.9 1.5 1.4-.9-.6-.9zm-4.1-3.5l-6.1-9-.4.2zm16.3-2.9l-9.6-13.1-1.4.7 10.5 12.7zm-15.2 10.7l-7.7-9.7.9 5.9-.6.4 3.1 4.1c.6.4 1.1.7 1.7 1.1l2.6-1.8z"/><path fill="#00051B" d="M21.7 191.7l5.1 3.4L48.1 223v-5.6h.1l-20.1-25.3 11.2 12.4-1-7.9L51.9 215l.5-.3-17.8-26.4v-3.5l3.7 3.5-3.7-8.6 12.6 14.1-3.4-8.9 19.2 23 1.6-1-14-19.3s6.4 7.6 15.4 18.3l7.2-4.6L42.4 166 12 182c3.6 7.6 7.9 14.9 12.8 21.6l-.7-3 3.8 4.7L43.3 224c1.5 1.4 3.1 2.7 4.7 4l-26.3-36.3z"/><path fill="#A8B2BC" d="M39.3 204.5l-11.2-12.4 20.1 25.3 3.7-2.4-13.6-18.4zm8.8 18.5l-21.3-27.8-5.1-3.4L48 227.9c.1 0 .1.1.2.1v-5h-.1zm-20.2-17.8l-3.8-4.7.7 3c5.4 7.4 11.7 14.2 18.5 20.3l-15.4-18.6zm22.7-17.5l14 19.3 1.4-1c-9-10.7-15.4-18.3-15.4-18.3zm-6.9-2.8l3.4 8.9-12.5-14.1 3.7 8.6-3.7-3.4v3.4l17.8 26.4 10.6-6.8zm35.1 36.3c-3.6-4.3-7.1-8.5-10.4-12.3l-1.7 1 9.6 13.2 2.5-1.9zm-17.7 12.5l3.9-2.8-.9-1.5 1.7-.3.6.9 9.4-6.7-10.5-12.7-11.4 6.3 6.1 9-6.5-8.8-1.1.6 1 6.3zm-8.7-2.4c1.5 1.1 2.9 2.1 4.5 3.1l-3.1-4.1-1.4 1zm29.1-6.6l-2.8 1.9.1.1 1.8 2.4-1.9-2.3-.1-.1-9.7 6.6.1.1 4.3 5.6c.7-.4 1.4-.7 2.2-1l-1-2.4s2.7-2.4 1.9 0c-.1.2.2.9.8 1.8 4.2-1.3 9-1.7 13.7-1.7-3.1-3.6-6.2-7.3-9.4-11 .1 0 0 0 0 0zm-14.3 10l-3.6 2.4.1.1 2.2 2.8c1.2.7 2.3 1.3 3.5 1.9.5-.5 1-.9 1.5-1.3l-3.7-5.9z"/><path fill="#2F3338" d="M77.5 244.4c.2-.1.4-.2.7-.3 1.1-.5 2.2-1 3.2-1.4 4.5-1.7 9-2.4 12.5-2.4H128v-4.4H97.8c-2.2 0-4.5-.1-6.9 0-4.7.1-9.5.4-13.7 1.7-.6.2-1.2.4-1.7.6-.8.3-1.5.6-2.2 1-.8.4-1.6.9-2.3 1.5-.5.4-1 .8-1.5 1.3 2.2 1.2 4.5 2.2 6.8 3.3.3-.5.7-.7 1.2-.9z"/><path fill="#20253A" d="M94.8 240.3c4.1 4.9 8 9.6 11.7 13.9 7 1.2 14.2 1.8 21.5 1.8v-15.7H94.8zm-13.4 2.3c-1.1.4-2.2.9-3.2 1.4l1 2.2c2.7 1.1 5.4 2.1 8.2 3.1-2.3-2.4-4.3-4.7-6-6.7zm-3.9 1.8c-.4.2-.8.4-1.3.7.9.4 1.8.8 2.7 1.1l-1.4-1.8z"/><path fill="#A8B2BC" d="M93.9 240.3c-3.5 0-8 .7-12.5 2.4 1.7 2 3.7 4.3 5.9 6.7 6.2 2.1 12.6 3.7 19.2 4.8-3.6-4.3-7.6-9.1-11.7-13.9h-.9zm-16.4 4.1l1.4 1.8c.1 0 .1.1.2.1l-1-2.2-.6.3z"/></svg>