<svg xmlns="http://www.w3.org/2000/svg" width="256" height="256"><circle fill="#B1B3B5" cx="128" cy="128" r="127.8"/><path fill="#211E1A" d="M178.7 84.5c-.3-.3-.6-.5-1-.8.1.8.3 1.6.4 2.4 3.5 20.7-9.2 57.4-9.2 57.4 1.7-8.1 3.2-24.2 4.3-37.5-.1.4-.1.8-.2 1.1-.5 2.7-1.2 4.8-1.9 6.3-.7 2.9-1.2 4.7-1.2 4.7.1-1.1.2-2.1.3-3.2-2.7 3.8-5.9 3.2-6 3.2-1 4.6-1.5 8.7-1.9 12-.6 5-4.9 12-9.9 18.3.6 7.5 2.4 15.9 7 18.6.6.3 1.2.7 1.9 1 .6-.4 1.3-.9 1.9-1.4 0 0 4.6-.5 6.7 3l14.5 3.4s4 .4 9.2 1.5c-2.4-5.6-4.3-11.9-7.2-17.1-5.4-9.9 4.1-24.9 4.1-24.9 0 3.8 8.3 8.6 8.3 8.6-4.8-5.4 3.8-21 0-24.5s-8.9-12.8-12.1-18.2c-1-1.7-1.7-4.9-2.4-8.7s-1.9-2-5.6-5.2z"/><path fill="#CCAD9F" d="M142.5 159.1c-6.3 5.8-12.7 4.7-14.3 4.4v14.6c2.5.2 17.2.9 33.1-10.1-.7-.4-1.4-.7-1.9-1-4.6-2.7-6.4-11-7-18.6-3.4 4.1-7 8-9.9 10.7zm28.5-45.6c.8-1.6 1.5-3.6 1.9-6.3.1-.4.1-.8.2-1.1.2-2.2.3-4.3.5-6.2-.7 5.1-1.8 10.1-2.6 13.6zm-1.7-13.3c-2.4 6.5-4.1 12.6-5.2 18 .1 0 3.3.7 6-3.2.3-4.8 0-9.8-.8-14.8z"/><path fill="#DEBCAD" d="M131.7 86.3c3.9-.1 8.6-4.5 20.8-4.5 2.7 0 5 .1 7 .3-4.4-2.6-10.4-1.8-13.7-.5-4.1 1.6-8.6 2.9-9.2 1.1-.6-1.8 3-1.9 8.1-4.8 4-2.2 9.4-1.3 13.4 1.3 1.7 1.1 2.7 2.2 3.3 3.1 1.5.2 2.7.4 3.8.6-.9-2.8-1.9-5.5-2.9-8.1-15.5-5.8-31.4-5.1-34.1-4.9v16.4c.4.1 1.4.1 3.5 0z"/><path fill="#DEBCAD" d="M137 98.8s14.3 5.4 25.4 0c0 0 3.2-6.8 2.8-11.3-.2-1.9-1.3-3-3.1-3.7.1.4.1.7.1.7-.2-.3-.5-.6-.8-.9-2.6-.7-6.4-.8-10.9-.8-8.3 0-13.6 3.7-16.2 5.8.1 0-.5 7.6 2.7 10.2z"/><path fill="#DEBCAD" d="M167.7 92.1c-1.8 1.7-4.7 8-4.7 8s-3.1 2-13 2-14.7-2.9-14.7-2.9-2.1-4.1-2.9-7.2c-.6-2.5-3.3-2.6-4.4-2.5v40.6c.6 0 1.7-.1 2.8-1.1 2.3-1 5.3-.1 7 1.7 3.2 2.8 3.5 3.7 6.8 4.8 0 0-2.9 4.9-16.6 5v22.9c1.6.4 7.9 1.4 14.3-4.4 2.9-2.7 6.5-6.5 9.9-10.7 5-6.3 9.3-13.3 9.9-18.3.4-3.3 1-7.4 1.9-12 1.1-5.3 2.7-11.4 5.2-18-.3-2.5-.8-5.2-1.5-7.9z"/><path fill="#2E2A27" d="M169.8 84.4s.1 3 0 4.1c-.1 1.2 0 2.3-1.7 3.3-.1.1-.2.2-.4.3.6 2.7 1.2 5.4 1.6 8.1.8 5 1.1 10 .8 14.8-.1 1.1-.1 2.1-.3 3.2 0 0 .5-1.8 1.2-4.7.8-3.4 1.8-8.4 2.6-13.7-.1 2-.3 4.1-.5 6.2-1 13.3-2.6 29.3-4.3 37.5 0 0 12.8-36.7 9.2-57.4-.1-.8-.3-1.6-.4-2.4-4.7-3.9-10.1-6.8-15.5-8.8 1 2.6 2 5.3 2.9 8.1 3.4.7 4.8 1.4 4.8 1.4zm-7.7-.6c-.2-.1-.4-.1-.6-.2.3.3.5.6.8.9-.1 0-.1-.3-.2-.7zm-4-4.6c-4-2.6-9.4-3.5-13.4-1.3-5.1 2.9-8.8 3-8.1 4.8.6 1.8 5.1.5 9.2-1.1 3.4-1.3 9.4-2.1 13.7.5.6.1 1.2.1 1.8.2-.5-.9-1.5-2-3.2-3.1z"/><path fill="#9D4D5E" d="M144.8 135.6c-3.3-1.1-3.6-2-6.8-4.8-1.7-1.7-4.6-2.7-7-1.7-1.1.9-2.2 1.1-2.8 1.1v10.4c13.7-.1 16.6-5 16.6-5z"/><path fill="#BB4E75" d="M128.2 17.5V70c2.7-.2 18.6-.8 34.1 4.9 5.4 2 10.8 4.9 15.5 8.8.3.3.6.5 1 .8 3.6 3.2 5.7 5.4 5.7 5.4 0-.1.2-13.7-5.6-30.2 0-16.9-5.3-33.2-20.5-42.1-15.2-8.9-14.4-8.9-30.1-8.9v8.8zm-.4-8.9h.2-.2z"/><path fill="#2A1F1D" d="M132.6 92.1c.7 3.1 2.9 7.2 2.9 7.2s4.8 2.9 14.7 2.9c9.9 0 13-2 13-2s2.9-6.3 4.7-8c.1-.1.3-.2.4-.3 1.7-1 1.6-2.1 1.7-3.3.1-1.2 0-4.1 0-4.1s-1.5-.7-4.6-1.4c-1.1-.2-2.3-.4-3.8-.6-.6-.1-1.2-.1-1.8-.2-2-.2-4.3-.3-7-.3-12.2 0-16.9 4.4-20.8 4.5-2.1 0-3.1.1-3.5.1v3.2c.7-.3 3.5-.2 4.1 2.3zm1.8-3.5c2.6-2.1 7.8-5.8 16.2-5.8 4.5 0 8.3 0 10.9.8.2.1.4.1.6.2 1.8.7 3 1.8 3.1 3.7.4 4.6-2.8 11.3-2.8 11.3-11.1 5.4-25.4 0-25.4 0-3.2-2.6-2.6-10.2-2.6-10.2z"/><path fill="#213742" d="M128.2 231.4v24.4h.2c27.5 0 52.9-8.7 73.8-23.4-29.8 0-74-1-74-1zm41.7-61.8s-17 12.9-41.7 13.1v7.6s42.6 14.2 92.2 2.8c-.6-1.8-1.2-3.4-1.8-4.7-3.2-7.8-16-11.9-25-13.8-5.3-1.1-9.2-1.5-9.2-1.5l-14.5-3.5z"/><path fill="#2C4450" d="M128.2 178.1v4.6c24.7-.1 41.7-13.1 41.7-13.1-2.1-3.5-6.7-3-6.7-3-.6.5-1.3.9-1.9 1.4-15.9 11-30.6 10.3-33.1 10.1z"/><path fill="#15110D" d="M77.3 165.7l6-3c3-1.5 5.6-2.8 7.5-2.8 1.6 0 3.3 2.8 6.1 6.8 4.4-2.8 6.2-11 6.8-18.4-5-6.3-9.3-13.3-9.9-18.3-.4-3.3-1-7.4-1.9-12-.1 0-3.3.7-6-3.2.1 1.1.1 2.1.3 3.2 0 0-.5-1.8-1.2-4.7-.8-1.6-1.5-3.6-1.9-6.3-.1-.4-.1-.8-.2-1.1 1 13.3 2.6 29.3 4.3 37.5 0 0-12.8-36.7-9.2-57.4.1-.8.3-1.6.4-2.4-.3.3-.6.5-1 .8-3.6 3.2-5.7 5.4-5.7 5.4-.6 3.7-1.3 6.9-2.4 8.7-3.2 5.4-8.3 14.7-12.1 18.2-3.8 3.5 4.8 19.1 0 24.5 0 0 8.3-4.8 8.3-8.6 0 0 9.6 15 4.1 24.9-1.8 3.4-3.3 7.2-4.7 10.9 1.4-.2 2.9-.3 4.6-.4 2.4-.2 5.1-1.2 7.8-2.3z"/><path fill="#B49A8E" d="M128.2 178.1v-14.7s-7.3 2.4-14.7-4.3c-2.9-2.7-6.5-6.5-9.9-10.7-.6 7.4-2.3 15.5-6.8 18.4 1 1.5 2.2 3.1 3.6 4.8 15.1 8.1 27.8 6.5 27.8 6.5zM85.9 115c2.7 3.8 5.9 3.2 6 3.2-1.1-5.3-2.7-11.4-5.2-18-.8 5-1.1 10-.8 14.8zm-3.1-9c.1.4.1.7.2 1.1.5 2.7 1.2 4.8 1.9 6.3-.8-3.4-1.8-8.4-2.6-13.7.2 2 .3 4.1.5 6.3z"/><path fill="#CCAD9F" d="M105.5 82.9c-4.5 0-8.3 0-10.9.8-.3.3-.5.6-.8.9 0 0 0-.3.1-.7-1.8.7-3 1.8-3.1 3.7-.4 4.6 2.8 11.3 2.8 11.3 11.1 5.4 25.4 0 25.4 0 3.2-2.6 2.6-10.2 2.6-10.2-2.5-2.1-7.8-5.8-16.1-5.8z"/><path fill="#CCAD9F" d="M94.6 82.4c.6-.9 1.6-2 3.3-3.1 4-2.6 9.4-3.5 13.4-1.3 5.1 2.9 8.8 3 8.1 4.8-.6 1.8-5.1.5-9.2-1.1-3.4-1.3-9.4-2.1-13.7.5 2-.2 4.3-.3 7-.3 12.2 0 16.9 4.4 20.8 4.5l3.9.1V70s-17.5-1.4-34.5 4.9c-1 2.6-2 5.3-2.9 8.1 1.1-.2 2.4-.5 3.8-.6zm18.9 76.7c7.3 6.7 14.7 4.3 14.7 4.3v-22.8c-14.1 0-17-5-17-5 3.3-1.1 3.6-2 6.8-4.8 1.7-1.7 4.6-2.7 7-1.7 1.6 1.3 3.2 1 3.2 1V89.6s-4-.6-4.8 2.5c-.7 3.1-2.9 7.2-2.9 7.2s-4.8 2.9-14.7 2.9c-9.9 0-13-2-13-2s-2.9-6.3-4.7-8c-.6 2.7-1.2 5.4-1.6 8.1 2.4 6.5 4.1 12.6 5.2 18 1 4.6 1.5 8.7 1.9 12 .6 5 4.9 12 9.9 18.3 3.5 3.9 7.1 7.8 10 10.5z"/><path fill="#211E1A" d="M86.7 100.2c.4-2.7.9-5.4 1.6-8.1-.1-.1-.3-.2-.4-.3-1.7-1-1.6-2.1-1.7-3.3-.1-1.2 0-4.1 0-4.1s1.5-.7 4.6-1.4c.9-2.8 1.9-5.5 2.9-8.1-5.4 2-10.8 4.9-15.5 8.8-.1.8-.3 1.6-.4 2.4-3.5 20.7 9.2 57.4 9.2 57.4-1.7-8.1-3.2-24.2-4.3-37.5-.2-2.2-.3-4.3-.5-6.2.8 5.3 1.8 10.3 2.6 13.7.7 2.9 1.2 4.7 1.2 4.7-.1-1.1-.2-2.1-.3-3.2-.1-4.8.2-9.8 1-14.8zm7.9-16.6c-.2.1-.4.1-.6.2-.1.4-.1.7-.1.7.1-.3.4-.6.7-.9zm15.6-2c4.1 1.6 8.6 2.9 9.2 1.1.6-1.8-3-1.9-8.1-4.8-4-2.2-9.4-1.3-13.4 1.3-1.7 1.1-2.7 2.2-3.3 3.1.6-.1 1.2-.1 1.8-.2 4.4-2.5 10.4-1.8 13.8-.5z"/><path fill="#884251" d="M128.2 130.2s-1.6.3-3.2-1.1c-2.3-1-5.3-.1-7 1.7-3.2 2.8-3.5 3.7-6.8 4.8 0 0 2.9 5 17 5v-10.4z"/><path fill="#A94569" d="M77.3 84.5c.3-.3.6-.5 1-.8 4.7-3.9 10.1-6.8 15.5-8.8 16.9-6.3 34.5-4.9 34.5-4.9V8.6h-.4c-15.7 0-14.9.1-30.1 8.9-15.3 8.9-20.5 25.2-20.5 42.1-5.9 16.5-5.6 30.1-5.6 30.2s1.9-2.1 5.6-5.3z"/><path fill="#1E1311" d="M128.2 86.4l-3.9-.1c-3.9-.1-8.6-4.5-20.8-4.5-2.7 0-5 .1-7 .3-.6.1-1.2.1-1.8.2-1.5.2-2.7.4-3.8.6-3.2.7-4.6 1.4-4.6 1.4s-.1 3 0 4.1c.1 1.2 0 2.3 1.7 3.3.1.1.2.2.4.3 1.8 1.7 4.7 8 4.7 8s3.1 2 13 2 14.7-2.9 14.7-2.9 2.1-4.1 2.9-7.2c.7-3.1 4.8-2.5 4.8-2.5v-3zM119 98.8s-14.3 5.4-25.4 0c0 0-3.2-6.8-2.8-11.3.2-1.9 1.3-3 3.1-3.7.2-.1.4-.1.6-.2 2.6-.7 6.4-.8 10.9-.8 8.3 0 13.6 3.7 16.2 5.8 0 0 .6 7.6-2.6 10.2z"/><path fill="#182D37" d="M48.8 178.8c-5.2 2.3-9.8 5.4-11.5 9.7-1.9 4.7-4.6 13-7 21.4 23.4 28 58.6 45.9 97.9 45.9v-24.4s-48.8.9-79.4-52.6zm60 1.2c4.9 4 11.1 7.8 19.4 10.2v-7.6c-7.2.1-13.7-1-19.4-2.6z"/><path fill="#213742" d="M128.2 182.7v-4.6s-12.7 1.6-27.7-6.5c2.2 2.7 4.9 5.7 8.3 8.5 5.7 1.5 12.2 2.6 19.4 2.6z"/><path fill="#286477" d="M128.2 231.4v-41.2c-8.3-2.5-14.5-6.2-19.4-10.2-3.4-2.8-6.1-5.8-8.3-8.5-1.4-1.7-2.6-3.3-3.6-4.8-2.8-4-4.5-6.8-6.1-6.8-1.8 0-4.5 1.2-7.5 2.8 0 0 4 20.1 21.5 30.1 0 0-17.4-2.3-27.6-27.2-2.6 1.2-5.3 2.1-7.8 2.4-1.7.1-3.2.2-4.6.4-18.4 2.3-16 10.3-16 10.3 30.6 53.6 79.4 52.7 79.4 52.7z"/><path fill="#1D5465" d="M77.3 165.7c10.1 24.8 27.6 27.2 27.6 27.2-17.5-10-21.5-30.1-21.5-30.1l-6.1 2.9z"/><path fill="#36798E" d="M227.5 200.8c-1-8.6-5.7-8-5.7-8-.4.1-.9.2-1.3.3-49.7 11.3-92.2-2.8-92.2-2.8v41.2s44.2 1 74 1c9.6-6.8 18.2-14.9 25.6-24-.2-2.3-.1-4.3-.4-7.7z"/></svg>