<svg xmlns="http://www.w3.org/2000/svg" width="256" height="256"><circle fill="#B1B3B5" cx="128" cy="128" r="128"/><path fill="#53565B" d="M170.5 172.4c2.4 5.8 4.3 12.2 2.5 15.3-3.8 6.4-31.8 7.7-34.4 21.1-1.6 8.2-2.2 20.6-2.5 28.9 6.8.1 16.6-1.1 24.1-7.6 12.8-11 23.6-18 23.6-18s11.4 11.5 16.6 5.7c5.1-5.7 5.1-14 5.1-14s.4-.4 1.1-.8c-8.6-11.9-19.1-22.8-19.1-22.8-4.4-3.7-9.3-8.2-13.6-12.4-1.3 2.1-2.5 3.9-3.4 4.6z"/><path fill="#2D2F33" d="M172.9 187.7c1.9-3.1 0-9.5-2.5-15.3-.1.1-.3.2-.4.3-1.5.7-3.8.1-6.1-.9-14.8 11-36 10.2-36 10.2v54.9s3.3.7 8 .8c.2-8.3.9-20.6 2.5-28.9 2.8-13.5 30.7-14.7 34.5-21.1z"/><path fill="#CCC4B7" d="M128 172.3v9.6s21.1.8 36-10.2l-1.2-.6c-4.7 2.1-8.4.5-8.4.5 3.5-7.3 9.4-51.4 9.4-51.4s6.5-.2 12.1-4.2c1.2-.9 2.3-2.5 3-4.2l.8-11.4c-.6-8.4-2.5-19.4-4.8-23.7-3.4-6.2 1-18.7 0-23S159 33.3 155.2 32.3c-3.8-1-1.4 5.7-4.3 5.3-2.9-.5-6.7-4.8-7.2-10.1s-5.2-4.3-5.2-4.3c3.6-3.5.6-8.6.1-9.5-2.1-2.6-5.5-5.4-10.6-5.4v164zm27.2-86.8c6.8 0 12.3 5.5 12.3 12.3 0 6.8-5.5 12.3-12.3 12.3s-12.3-5.5-12.3-12.3c0-6.8 5.5-12.3 12.3-12.3z"/><path fill="#A39E94" d="M167.7 167.4c3.8-3.4 8.5-33.7 10.7-49.3l.4-6.1c-.8 1.7-1.8 3.3-3 4.2-5.7 3.9-12.1 4.2-12.1 4.2s-5.9 44.1-9.4 51.4c0 0 3.8 1.6 8.4-.5-3.2-1.6-6.1-3.8-6.1-3.8s6.3 4.2 11.1-.1z"/><path fill="#3E4145" d="M138.5 23.2s4.7-1 5.2 4.3 4.3 9.6 7.2 10.1c2.9.5.5-6.2 4.3-5.3 3.8 1 18.7 17.2 19.6 21.6s-3.4 16.8 0 23c2.3 4.3 4.2 15.3 4.8 23.7l.1-1.5s29.5-5.3 39.4-19.1c0 0-4.2 16-25.5 21.7-7.3 3.8-15.2 16.3-15.2 16.3-2.3 15.7-6.9 45.9-10.7 49.3-4.8 4.3-11 0-11 0s2.9 2.1 6.1 3.8l1.2.6c2.3 1 4.6 1.6 6.1.9.1-.1.3-.1.4-.3 1-.7 2.2-2.5 3.5-4.9 3.9-7.1 8.4-19.7 9.1-26 1-8.6-.5-21.6 3.8-27.8 4.3-6.2 20.1-11.5 27.8-9.1 0 0 26.8-29.2 8.1-51.2 0 0-1.9 2.9-1.4 9.1.5 6.2 2.4 23.5-33 22 0 0-2.4-20.6-6.7-32.6 0 0-4.6-17.2-43-38.3 0 0 0 .1.1.1.3 1 3.3 6.1-.3 9.6z"/><circle fill="#3E4145" cx="155.2" cy="97.8" r="12.3"/><path fill="#2D2F33" d="M178.4 118.1s7.9-12.5 15.2-16.3c21.4-5.7 25.5-21.7 25.5-21.7-9.9 13.7-39.4 19.1-39.4 19.1l-.1 1.5-.8 11.4-.4 6z"/><path fill="#3E4145" d="M199.7 180c-3.8-1.3-7-3.2-12.1 0 0 0 10.5 10.9 19.1 22.8 1.7-1.2 5-2.9 5.9.8.7 3 4.3 8.2 6.9 13.9 3.2-3.3 6.3-6.8 9.2-10.4-6.2-7.7-12.8-15.5-19.9-23.2-4.3-2-7.6-3.4-9.1-3.9z"/><path fill="#988971" d="M206.6 202.8c-.6.4-1.1.8-1.1.8s0 8.3-5.1 14c-5.1 5.7-16.6-5.7-16.6-5.7s-10.9 7-23.6 18c-7.5 6.5-17.3 7.7-24.1 7.6-4.8-.1-8-.8-8-.8v19.2c35.8 0 68.2-14.7 91.4-38.4-2.6-5.7-6.1-11-6.9-13.9-1-3.7-4.3-2-6-.8zm13.8-44.8c-2.6 1.3 3.8 14.3 3.8 14.3s-2.9.1-5.4 0c-2.6-.1 0 11.6 0 11.6h-10.2l.1.1c7.1 7.7 13.7 15.5 19.9 23.2 2.6-3.3 5-6.7 7.3-10.2-4.3-6-7.8-10.5-9.8-12.3l-5.7-.5s.5-7.2 1.9-6.8c.5.1 7.1 6.7 15.8 16.1 1.3-2.1 2.5-4.3 3.6-6.5-7.8-8.7-13.8-14.6-16.2-15 0 0-1.7-8.1 0-8.4.6-.1 8 7.6 18.2 19.4.7-1.5 1.4-3 2-4.5-10.7-11.2-17.9-18.5-17.9-18.5s-4.8-3.3-7.4-2z"/><path fill="#988971" d="M229.5 186.3s2.7 3.7 7.1 9.6c.3-.5.6-.9.9-1.4-2.6-2.8-5.3-5.5-8-8.2z"/><path fill="#685F4D" d="M222.2 177.3c-1.4-.4-1.9 6.8-1.9 6.8l5.7.5c2 1.9 5.5 6.3 9.8 12.3.2-.4.5-.7.7-1.1-4.4-5.9-7.1-9.6-7.1-9.6 2.8 2.7 5.4 5.4 8 8.1.2-.3.4-.7.6-1-8.8-9.3-15.3-15.9-15.8-16zm3.2-13.7c-1.7.2 0 8.4 0 8.4 2.3.4 8.4 6.4 16.2 15 .7-1.3 1.4-2.7 2-4-10.2-11.8-17.5-19.5-18.2-19.4z"/><path fill="#3E4145" d="M49.4 202.8c.6.4 1.1.8 1.1.8s0 8.3 5.1 14c5.1 5.7 16.6-5.7 16.6-5.7s10.9 7 23.6 18c7.5 6.5 17.3 7.7 24.1 7.6-.2-8.3-.9-20.6-2.5-28.9-2.6-13.4-30.6-14.7-34.4-21.1-1.9-3.1 0-9.5 2.5-15.3-1-.7-2.2-2.5-3.5-4.9-4.4 4.2-9.3 8.8-13.6 12.4.1.3-10.4 11.2-19 23.1z"/><path fill="#1A1C1F" d="M92 171.7c-2.3 1-4.6 1.6-6.1.9-.1-.1-.3-.1-.4-.3-2.4 5.8-4.3 12.2-2.5 15.3 3.8 6.4 31.8 7.7 34.4 21.1 1.6 8.2 2.2 20.6 2.5 28.9 4.8-.1 8-.8 8-.8v-54.9c.1 0-21 .8-35.9-10.2z"/><path fill="#A39E94" d="M117.5 23.2s-4.7-1-5.2 4.3-4.3 9.6-7.2 10.1c-2.9.5-.5-6.2-4.3-5.3-3.8 1-18.7 17.2-19.6 21.6s3.4 16.8 0 23c-2.3 4.3-4.2 15.3-4.8 23.7l.8 11.4c.8 1.7 1.8 3.3 3 4.2 5.7 3.9 12.1 4.2 12.1 4.2s5.9 44.1 9.4 51.4c0 0-3.8 1.6-8.4-.5l-1.2.6c14.8 11 36 10.2 36 10.2V8.4c-5.1 0-8.6 2.8-10.6 5.4-.6.8-3.6 5.9 0 9.4zM88.6 97.8c0-6.8 5.5-12.3 12.3-12.3s12.3 5.5 12.3 12.3c0 6.8-5.5 12.3-12.3 12.3s-12.3-5.5-12.3-12.3z"/><path fill="#7D7972" d="M101.7 171.7c-3.5-7.3-9.4-51.4-9.4-51.4s-6.5-.2-12.1-4.2c-1.2-.9-2.3-2.5-3-4.2l.4 6.1c2.3 15.7 6.9 45.9 10.7 49.3 4.8 4.3 11 0 11 0s-2.9 2.1-6.1 3.8c4.7 2.2 8.5.6 8.5.6z"/><path fill="#2D2F33" d="M85.5 172.4c.1.1.3.2.4.3 1.5.7 3.8.1 6.1-.9l1.2-.6c3.2-1.6 6.1-3.8 6.1-3.8s-6.2 4.3-11 0c-3.8-3.4-8.5-33.7-10.7-49.3 0 0-7.9-12.5-15.2-16.3C41 96 36.9 80.1 36.9 80.1c9.9 13.7 39.4 19.1 39.4 19.1l.1 1.5c.6-8.4 2.5-19.4 4.8-23.7 3.4-6.2-1-18.7 0-23S97 33.3 100.8 32.3c3.8-1 1.4 5.7 4.3 5.3 2.9-.5 6.7-4.8 7.2-10.1s5.2-4.3 5.2-4.3c-3.6-3.5-.6-8.6-.1-9.5 0-.1.1-.1.1-.1C79.1 34.7 74.4 52 74.4 52c-4.3 12-6.7 32.6-6.7 32.6-35.4 1.4-33.5-15.8-33-22 .5-6.2-1.4-9.1-1.4-9.1-18.7 22 8.1 51.2 8.1 51.2 7.7-2.4 23.5 2.9 27.8 9.1 4.3 6.2 2.9 19.2 3.8 27.8.7 6.3 5.2 18.9 9.1 26 1.3 2.3 2.5 4.1 3.4 4.8z"/><ellipse transform="rotate(-67.5 100.846 97.779)" fill="#2D2F33" cx="100.8" cy="97.8" rx="12.3" ry="12.3"/><path fill="#1A1C1F" d="M77.2 111.9l-.8-11.4-.1-1.5s-29.5-5.3-39.4-19.1c0 0 4.2 16 25.5 21.7 7.3 3.8 15.2 16.3 15.2 16.3l-.4-6z"/><path fill="#2D2F33" d="M49.4 202.8C58 190.9 68.5 180 68.5 180c-5.1-3.2-8.3-1.3-12.1 0-1.5.5-4.9 1.9-9.1 4-7.1 7.7-13.7 15.5-19.9 23.2 2.9 3.6 5.9 7.1 9.2 10.4 2.6-5.7 6.1-11 6.9-13.9.9-3.8 4.2-2.1 5.9-.9z"/><path fill="#847963" d="M128 236.8s-3.3.7-8 .8c-6.8.1-16.6-1.1-24.1-7.6-12.8-11-23.6-18-23.6-18s-11.4 11.5-16.6 5.7c-5.1-5.7-5.1-14-5.1-14s-.4-.4-1.1-.8c-1.7-1.2-5-2.9-5.9.8-.7 3-4.3 8.2-6.9 13.9C59.8 241.3 92.2 256 128 256v-19.2zM18.6 194.5c.3.5.6.9.9 1.4 4.4-5.9 7.1-9.6 7.1-9.6-2.8 2.7-5.5 5.4-8 8.2z"/><path fill="#847963" d="M47.4 183.8H37.2s2.6-11.6 0-11.6c-2.6.1-5.4 0-5.4 0s6.4-13 3.8-14.3c-2.6-1.3-7.3 1.9-7.3 1.9s-7.3 7.3-17.9 18.5c.7 1.5 1.3 3 2 4.5C22.6 171 30 163.3 30.6 163.4c1.7.2 0 8.4 0 8.4-2.3.4-8.4 6.4-16.2 15 1.1 2.2 2.3 4.4 3.6 6.5 8.8-9.5 15.4-16 15.8-16.1 1.4-.4 1.9 6.8 1.9 6.8l-5.7.5c-2 1.9-5.5 6.3-9.8 12.3 2.3 3.5 4.7 6.9 7.3 10.2 6.2-7.7 12.8-15.5 19.9-23.2-.1.1 0 .1 0 0z"/><path fill="#585040" d="M30 184.6l5.7-.5s-.5-7.2-1.9-6.8c-.5.1-7.1 6.7-15.8 16.1.2.3.4.7.6 1 2.6-2.7 5.2-5.5 8-8.1 0 0-2.7 3.7-7.1 9.6.2.4.5.7.7 1.1 4.3-6 7.7-10.5 9.8-12.4zm.6-12.7s1.7-8.1 0-8.4c-.6-.1-8 7.6-18.2 19.4.6 1.4 1.3 2.7 2 4 7.7-8.6 13.8-14.5 16.2-15z"/></svg>