<svg xmlns="http://www.w3.org/2000/svg" width="256" height="256"><circle fill="#B1B3B5" cx="128" cy="128" r="128"/><path fill="#231F20" d="M170.9 163.1c-.4 6.8-.7 15.7-.5 21.9 1.8-6.5 1.9-14.1.5-21.9zm2 1.7z"/><path fill="#5E3C30" d="M167.3 160.7s-10 19.2-20.5 20.6c-10.4 1.4-18.5.9-18.7.9v29.5c.7-.1 19.5-2.4 31.9-9.3 1.3-2.1 2.5-3.9 3.6-5 3.3-3.3 5.5-7.5 6.8-12.3-.2-6.3.1-15.1.4-22v-.3c.2-4.2.4-7.6.5-9.2-.1.1-.2.2-.3.2-1.1 2.2-2.4 4.6-3.7 6.9z"/><path fill="#7A5F4D" d="M180.3 101.6s.1 0 0 0v-8 8z"/><path fill="#7A5F4D" d="M180.4 101.5c1.7-2.3 3.8-4.5 5.3-3.6 2.9 1.7 1.2 3.8 1.4 7.9.2 4.1-2.6 7.7-1.9 12.2s-.7 8.4-1.2 11.5c-.4 2.6-2.5 8.7-6.8 8.8-.3 2-.7 3.5-1 4.5-.7 2.1-2.6 6.4-5.1 11.1.1-.1.2-.2.3-.2 10.8-9.3 21.3-28 22-65.6 1.2-64-30.1-76.6-41.6-79 46 17.2 30 86.9 28.6 92.4z"/><path fill="#5E3C30" d="M180.4 101.8v-.2.2zm-3.2 36.4c4.3 0 6.4-6.1 6.8-8.8.5-3.1 1.9-6.9 1.2-11.5s2.2-8.1 1.9-12.2c-.2-4.1 1.4-6.2-1.4-7.9-1.5-.9-3.6 1.3-5.3 3.6-.1.2-.1.3-.1.3.3 6-1.4 26.5-3.1 36.5z"/><path fill="#764931" d="M180.3 93.6c-.3 1.7-.6 2.6-.6 2.6s-1.1-5.4-1.4-7c-.3-1.6 1.4-7.2 1.4-10.5s-2.2-17.9-4.2-21.6c-1.9-3.7-3.5-13.7-5.1-16.9s-6.2-11.8-15.8-13.1c-9.4-1.3-26.2-2.7-26.6-2.7v98.8c.2 0 5.1.6 7.2-1.1 0 0 6.4 2.9 10.2 5.6 3.8 2.7 10.9 4.6 11.5 7.2l-.8 2.2s-11.3-8.8-13.7-9.3c-2.3-.5-13.9-.3-14.4-.3v41.2l1.9 2.8 1-1.4 1.9 2.1 2.2-1.8 3.5.8s2.9-1.1 5.4 1c2.6 2.1 6.2 1.1 9.1 0 2.9-1.1 5.1-4.6 7.5-5.3 2.4-.6 6.6-6.2 6.7-6.3 1.4-2.3 2.6-4.6 3.8-6.9 2.5-4.7 4.4-9 5.1-11.1.3-.9.7-2.5 1-4.5 1.7-10 3.4-30.5 3.2-36.4v-8.1zm-37.7-14.5c-2.5 0-3.6-6.2-3.6-6.2 2.2 1.3 9.9.1 13.8 0s6.5-1.4 9.3 0c2.9 1.4 4 1.4 6.3 1.9 2.4.5 3.4 2.3 4.4 3.4 1.1 1.1 1.8 5.4 1.8 6.3 0 1-2.6-2.6-4.4-3.8-1.8-1.2-5.1-4.7-12.3-2.9s-12.8 1.3-15.3 1.3z"/><path fill="#503227" d="M128 24.4c.5 0 17.2 1.5 26.6 2.7 9.6 1.3 14.2 9.9 15.8 13.1s3.2 13.3 5.1 16.9c1.9 3.7 4.2 18.2 4.2 21.6s-1.8 8.9-1.4 10.5c.3 1.6 1.4 7 1.4 7s.3-.9.6-2.6l.7-3.9c3.3-79.1-52-74.5-53-74.4v9.1z"/><path fill="#503227" d="M170.3 80.7c1.8 1.2 4.4 4.8 4.4 3.8s-.7-5.3-1.8-6.3c-1.1-1.1-2-2.9-4.4-3.4-2.4-.5-3.5-.5-6.3-1.9-2.9-1.4-5.5-.1-9.3 0s-11.6 1.3-13.8 0c0 0 1.1 6.2 3.6 6.2s8.1.5 15.3-1.3 10.5 1.7 12.3 2.9zm-27.9 47.1c2.3.5 13.7 9.3 13.7 9.3l.8-2.2c-.6-2.6-7.7-4.5-11.5-7.2s-10.2-5.6-10.2-5.6c-2 1.7-6.9 1.1-7.2 1.1v4.3c.5 0 12.2-.1 14.4.3zm4.3 53.5c10.5-1.4 20.5-20.6 20.5-20.6-.1.1-4.3 5.6-6.7 6.3-2.4.6-4.6 4.2-7.5 5.3-2.9 1.1-6.5 2.1-9.1 0-2.6-2.1-5.4-1-5.4-1l-3.5-.8-2.2 1.8-1.9-2.1-1 1.4-1.9-2.8v13.4c.3 0 8.4.5 18.7-.9z"/><path fill="#96755F" d="M128 5.1zm0 4.8v5.4c1-.1 56.3-4.7 53 74.4l-.7 3.9v8.2s0-.1.1-.3c1.3-5.4 17.4-75.1-28.7-92.5-6.6-2.5-14.4-3.9-23.8-3.9v4.8z"/><path fill="#434345" d="M159.9 202.3c-12.4 6.9-31.3 9.2-31.9 9.3V256c2.9 0 5.8-.1 8.7-.3l7.9-16.2s8.1-24.9 15.3-37.2z"/><path fill="#40431A" d="M192.4 194.5c1.5 9.8 0 34.6-1.3 43.9-.3 1-1.8 1-1.8 1s.3-7.9-.6-15.8c0 7.3-.7 11.9-.7 11.9l-1.2 6.1c18.2-9.4 33.8-23.1 45.6-39.7-16.1-5.7-32-9.9-41.4-12.1.7 1.7 1.2 3.3 1.4 4.7z"/><path fill="#40431A" d="M188.8 223.6c-.8-7.3-2.5-14.8-6.1-16.2-5-1.9-7.9 1.7-10.7 5l-19.6 41.2c12.2-2.4 23.8-6.4 34.4-12l1.2-6.1c.1.1.7-4.6.8-11.9z"/><path fill="#2D3009" d="M167.3 216.7c-4.8 1.9-22.8 22.8-22.8 22.8l-7.9 16.2c5.3-.4 10.6-1 15.7-2l19.6-41.2c-1.4 1.8-2.9 3.5-4.6 4.2z"/><path fill="#50592D" d="M170.8 162.8c0 .1 0 .3.1.4 1.4 7.7 1.3 15.4-.5 21.9-1.3 4.8-3.5 9-6.8 12.3-1.2 1.2-2.4 2.9-3.6 5-7.2 12.2-15.4 37.1-15.4 37.1s18-20.8 22.8-22.8c1.7-.7 3.1-2.4 4.7-4.2 2.8-3.3 5.7-7 10.7-5 3.7 1.4 5.4 8.8 6.1 16.2.8 8 .6 15.8.6 15.8s1.5 0 1.8-1c1.3-9.3 2.8-34.1 1.3-43.9-.2-1.5-.7-3-1.3-4.6-3.8-9.5-13.8-20.5-18.2-25.1-1.5-1.4-2.3-2.1-2.3-2.1z"/><path fill="#231F20" d="M83.1 164.8zm2.1-1.7c-1.5 7.8-1.4 15.4.4 22 .3-6.3 0-15.2-.4-22z"/><path fill="#472B20" d="M85.2 162.8v.3c.3 6.9.7 15.7.4 22 1.3 4.8 3.5 9 6.8 12.3 1.2 1.2 2.4 2.9 3.6 5 12.6 7.1 31.9 9.3 31.9 9.3v-29.5s-8.2.5-18.8-.9c-10.5-1.4-20.5-20.6-20.5-20.6-1.4-2.3-2.6-4.6-3.8-6.9-.1-.1-.2-.2-.3-.2.3 1.5.5 4.9.7 9.2z"/><path fill="#5E4939" d="M75.7 93.6zm4.1 49.1c-.3-.9-.7-2.5-1-4.5-4.3 0-6.4-6.1-6.8-8.8-.5-3.1-1.9-6.9-1.2-11.5s-2.2-8.1-1.9-12.2c.2-4.1-1.4-6.2 1.4-7.9 1.5-.9 3.6 1.3 5.3 3.6C74.2 96 58.2 26.3 104.2 9c-11.5 2.5-42.8 15-41.6 79 .7 37.5 11.2 56.3 22 65.6.1.1.2.2.3.2-2.5-4.7-4.4-9-5.1-11.1z"/><path fill="#472B20" d="M75.6 101.6c.1 0 0 0 0 0zm0 .2s0-.1-.1-.3c-1.7-2.3-3.8-4.5-5.3-3.6-2.9 1.7-1.2 3.8-1.4 7.9-.2 4.1 2.6 7.7 1.9 12.2s.7 8.4 1.2 11.5c.4 2.6 2.5 8.7 6.8 8.8-1.6-10.1-3.3-30.6-3.1-36.5z"/><path fill="#5E3C30" d="M95.4 167c2.4.6 4.6 4.2 7.5 5.3 2.9 1.1 6.5 2.1 9.1 0 2.6-2.1 5.4-1 5.4-1l3.5-.8 2.2 1.8 1.9-2.1 1 1.4 1.9-2.9v-41.2s-12.1-.2-14.4.3c-2.3.5-13.7 9.3-13.7 9.3l-.8-2.2c.6-2.6 7.7-4.5 11.5-7.2s10.2-5.6 10.2-5.6c2.1 1.8 7.2 1.1 7.2 1.1V24.4s-17.1 1.4-26.7 2.7C91.6 28.4 87 37 85.4 40.2s-3.2 13.3-5.1 16.9c-1.9 3.7-4.2 18.2-4.2 21.6s1.8 8.9 1.4 10.5c-.3 1.6-1.4 7-1.4 7s-.3-.9-.6-2.6c0 3.3.1 6.1 0 8v.2c-.3 5.9 1.5 26.4 3.2 36.4.3 2 .7 3.5 1 4.5.7 2.1 2.6 6.4 5.1 11.1 1.2 2.2 2.5 4.6 3.8 6.9.2.1 4.5 5.6 6.8 6.3zM83.1 78.2c1.1-1.1 2-2.9 4.4-3.4 2.4-.5 3.5-.5 6.3-1.9 2.9-1.4 5.5-.1 9.3 0 3.8.1 11.6 1.3 13.8 0 0 0-1.1 6.2-3.6 6.2s-8.1.5-15.3-1.3-10.5 1.7-12.3 2.9c-1.8 1.2-4.4 4.8-4.4 3.8 0-.9.7-5.2 1.8-6.3z"/><path fill="#42271C" d="M76.3 96.2s1.1-5.4 1.4-7c.3-1.6-1.4-7.2-1.4-10.5s2.2-17.9 4.2-21.6c1.9-3.7 3.5-13.7 5.1-16.9s6.2-11.8 15.8-13.1c9.6-1.3 26.7-2.7 26.7-2.7v-9.1s-56.4-5.4-53 74.4l.7 3.9c.2 1.7.5 2.6.5 2.6z"/><path fill="#42271C" d="M85.7 80.7c1.8-1.2 5.1-4.7 12.3-2.9s12.8 1.3 15.3 1.3 3.6-6.2 3.6-6.2c-2.2 1.3-9.9.1-13.8 0-3.8-.1-6.5-1.4-9.3 0-2.9 1.4-4 1.4-6.3 1.9-2.4.5-3.4 2.3-4.4 3.4-1.1 1.1-1.8 5.4-1.8 6.3 0 1 2.6-2.6 4.4-3.8zm42.3 42.5s-5.1.6-7.2-1.1c0 0-6.4 2.9-10.2 5.6-3.8 2.7-10.9 4.6-11.5 7.2l.8 2.2s11.3-8.8 13.7-9.3c2.3-.5 14.4-.3 14.4-.3v-4.3zm0 45.5l-1.9 2.8-1-1.4-1.9 2.1-2.2-1.8-3.5.8s-2.9-1.1-5.4 1c-2.6 2.1-6.2 1.1-9.1 0-2.9-1.1-5.1-4.6-7.5-5.3-2.4-.6-6.6-6.2-6.7-6.3s10 19.2 20.5 20.6c10.5 1.4 18.8.9 18.8.9v-13.4z"/><path fill="#7A5F4D" d="M75.6 101.5c.1.2.1.3.1.3v-8.2l-.7-3.9c-3.4-79.8 53-74.4 53-74.4V5.1c-9.3 0-17.2 1.4-23.8 3.9-46 17.3-30 87-28.6 92.5z"/><path fill="#383638" d="M96.1 202.3c7.2 12.2 15.4 37.1 15.4 37.1l7.9 16.2c2.9.2 5.8.3 8.7.3v-44.3c-.1.1-19.4-2.2-32-9.3z"/><path fill="#2D3009" d="M67.2 223.6c-.8 8-.6 15.8-.6 15.8s-1.5 0-1.8-1c-1.3-9.3-2.8-34.1-1.3-43.9.2-1.5.7-3 1.3-4.6-9.3 2.3-25.3 6.5-41.4 12.1 11.8 16.6 27.4 30.2 45.6 39.7l-1.2-6.1c.1 0-.5-4.7-.6-12z"/><path fill="#2D3009" d="M73.3 207.5c-3.7 1.4-5.4 8.8-6.1 16.2 0 7.3.7 11.9.7 11.9l1.2 6.1c10.7 5.5 22.3 9.6 34.4 12L84 212.5c-2.7-3.3-5.7-6.9-10.7-5z"/><path fill="#1E2200" d="M88.7 216.7c-1.7-.7-3.1-2.4-4.7-4.2l19.6 41.2c5.1 1 10.4 1.7 15.7 2l-7.9-16.2s-17.9-20.9-22.7-22.8z"/><path fill="#40431A" d="M64.9 238.4c.3 1 1.8 1 1.8 1s-.3-7.9.6-15.8c.8-7.3 2.5-14.8 6.1-16.2 5-1.9 7.9 1.7 10.7 5 1.5 1.8 3 3.5 4.7 4.2 4.8 1.9 22.8 22.8 22.8 22.8s-8.1-24.9-15.4-37.1c-1.3-2.1-2.5-3.9-3.6-5-3.3-3.3-5.5-7.5-6.8-12.3-1.8-6.6-1.9-14.2-.5-21.9 0-.1 0-.3.1-.4l-2.1 2.1c-4.4 4.5-14.4 15.6-18.2 25.1-.6 1.6-1.1 3.2-1.3 4.6-1.7 9.8-.2 34.7 1.1 43.9z"/></svg>