<svg xmlns="http://www.w3.org/2000/svg" width="256" height="256"><circle fill="#B1B3B5" cx="128" cy="128" r="128"/><path fill="#726D7D" d="M173.4 226c-7.6 0-13.9 2.2-18.2 4.5-.4 3.4-.7 7.3-1 11.2 6.1-3.1 15.4-6.7 24.4-6.1 4.3.3 9.2 1.4 14.2 2.9 3.2-1.9 6.4-3.9 9.4-6.1l-1.8-.6c-8.4-2.6-18.7-5.8-27-5.8zm19.4-78.2c.9 4.7.1 9.8-1.2 14.1l9.9 18c1.7-4.3 3.1-8.8 3.5-12.2l-2.5-8.7c-7.6-8.9-7.1-20.2-7.1-20.2s-1.3 3.4-3.4 8.2c-.1.4-.2.8-.2 1.2l1-.4zm-16.5 62.9c3.3.2 6.5.6 9.5.9 9.1 1 16.3 1.9 18-2.6.6-1.6 1.5-4.5 2.6-8.2l-1-.7-3.6-6.6c-.8-.5-1.4-1.5-1.4-2.6l-.9-1.7c-1.6 3.3-2.8 5.6-2.9 5.9l-.1.2c-3.6 4.4-21.4 4.8-28.8 4.8-1.7 0-3.1.1-4.3.2-2 4.5-3.6 8.9-4.8 12.8 4.2-1.5 10.3-2.9 17.7-2.4z"/><path fill="#726D7D" d="M194.9 194.2c.3-.5 1.7-3.3 3.4-7l-9.6-17.9c-1.1 2.3-1.9 3.7-1.9 3.7-10.4 4.7-17.6 15-22.5 25.3 1-.1 2.1-.1 3.4-.1 14.3 0 25-1.6 27.2-4zm12-26.6c-.4 4.1-2.2 9.5-4.2 14.4l5.4 9.8c.3.1.6.2 1 .4.9-3.2 1.9-6.4 2.7-9.4l-.3.7c-7.6 1.2-6.5-6.8-6.5-6.8l6.6-3.1c-3.1.3-3.7-4.2-3.7-4.2l3.8-3.4c-2.5-1.2-4.6-2.6-6.3-4.1l1.6 5.6-.1.1zm8.3 2.8l-.5-1.7-1.4 4 1.4-.7c.2-.8.4-1.3.5-1.6zM154 243.9c-.2 3.1-.4 6.4-.6 9.5 2.9-.6 5.7-1.3 8.5-2 3.6-1.7 7.8-3.2 12.3-4.1 5.6-2.2 10.9-4.7 16.1-7.6-4.3-1.2-8.4-2.1-12-2.3-8.9-.5-18.4 3.5-24.3 6.5zm51.5-34.2c-2.2 5.8-10.1 4.9-20 3.8-3-.3-6.1-.7-9.4-.9-7.8-.5-14.3 1.3-18.4 2.9-.2.8-.5 1.6-.7 2.3-.6 2.3-1.2 5.9-1.7 10.4 4.5-2.1 10.7-4.1 18-4.1 8.6 0 19.1 3.3 27.5 5.9 1.1.3 2.1.7 3.2 1 7.4-5.5 14.2-11.7 20.2-18.6L208 202c-1 3.4-1.9 6.2-2.5 7.7zm35.2-26.5l-8.2-6-1 4.4c-5.1 1.9-5.7-3.7-5.7-3.7l3.4-3.2-11.1-8.1-1.9.4.9 3.5-.1.3c-.2.8-3.3 11.8-6.3 22.2 9.8 3.8 16.6 8.2 20.4 11 4.1-5.6 7.8-11.6 11-17.9l-.4-2.7h-1zm-9.7 9.6c-7.2 1-6.7-6.1-6.7-6.1l9.5-6.1-2.8 12.2z"/><path fill="#403E49" d="M151 245.6c.1-.8.1-1.6.2-2.3.9-.5 1.9-1 3-1.6.3-4 .6-7.8 1-11.2-1 .5-2 1-2.8 1.5.1-.8.2-1.6.4-2.4.8-.4 1.7-.9 2.7-1.4.5-4.4 1.1-8.1 1.7-10.4.2-.7.4-1.5.7-2.3-.9.3-1.6.7-2.3 1l.6-2.4c.7-.3 1.5-.6 2.4-.9 1.2-3.9 2.8-8.3 4.8-12.8-1.1.1-2 .2-2.7.4l.9-2.1c.8-.1 1.7-.2 2.8-.3 4.9-10.3 12.2-20.6 22.5-25.3 0 0 .9-1.4 1.9-3.7l-1.5-2.8 3.4-6.5 1 1.9c1.3-4.4 2.2-9.4 1.2-14.1l-1.1.5c-1.8 9.4-2.9 14.8-2.9 14.8-2.6 5.9-13.4 10.4-25.1 13.6-1.8 4.8-4.8 13.2-9.1 25.3.9.1 1.7.2 2.5.3l-.3 1.9c-.9-.1-1.9-.2-2.9-.3-.3.7-.5 1.4-.8 2.2-1 2.9-1.9 6.1-2.7 9.6.6.1 1.1.3 1.6.4l-.5 1.8c-.4-.1-1-.3-1.5-.4-.9 4.4-1.7 9.2-2.3 14h2.6v1.9h-2.8c-.4 3.5-.8 7-1 10.5h2.8v1.9h-3c-.2 3.1-.4 6.2-.6 9.1 2.6-.4 5.1-.8 7.6-1.3.2-3.2.4-6.4.6-9.5-1.2.3-2.2.9-3 1.4z"/><path fill="#625F6D" d="M128 245.7v-1.9h18.5c.3-3.4.6-6.9 1-10.5H128v-1.9h19.8c.6-4.8 1.3-9.5 2.3-14-7.2-1.5-21.9-1.5-22-1.5V214c.7 0 15 0 22.4 1.6.8-3.5 1.7-6.7 2.7-9.6.3-.7.5-1.5.8-2.2-7.6-.8-17.2-.8-25.9-.8v-1.9c8.9 0 18.8 0 26.5.8 4.3-12 7.3-20.4 9.1-25.3-10.7 2.9-22.2 4.8-29.2 5.7l-.1 3.1-6.4 1.3V256c6 0 12-.4 17.8-1.2.1-2.9.3-5.9.6-9.1H128z"/><path fill="#7B7686" d="M144.2 137v13.9s41-18.9 48.6-26.3l4.6-6.7c1.1-5.9 2.2-12.2 3.3-18.8l-6.5 11.4c.1-.1-31.8 21.2-50 26.5z"/><path fill="#7B7686" d="M193.1 126.9s-39.5 23.5-48.9 26.6v13.7s27.7-7.4 49.1-26.8c1.2-6.5 2.6-14.1 4.2-22.6l-.9 4.2-3.5 4.9zm8.6-33.7l-1 5.6c.4-1.8.7-3.7 1-5.6zm-8.4 47.2l-.8 4.1c.2-1.4.5-2.7.8-4.1z"/><path fill="#7B7686" d="M134.5 182.4c7-1 18.5-2.8 29.2-5.7 11.8-3.2 22.6-7.7 25.1-13.6 0 0 1.1-5.4 2.9-14.8.1-.4.2-.8.2-1.2.2-.8.3-1.7.5-2.6 0 0-30.5 21.4-48.3 25.8v10.6l-6.9 1.1 2.6-97.2 59.4-28.5s-8.4 28.3-15.8 36.4l-39.3 10.1v13.7s41.9-14.6 46-20.6 12.2-30.2 12.2-30.2V70s-6.2 25.4-11.5 29c0 0-32.6 17.2-46.7 21.4v14s44.1-19.9 49.6-26.8l8-14.4c1.3-7.5 2.6-15.4 3.9-23.5 0 0 .2-9.1-1-18.5L140 80.7h-2.8l-2.7 101.7z"/><path fill="#908E99" d="M128 180.3v6.4l6.4-1.3.1-3 2.7-101.7H128v99z"/><path fill="#696574" d="M144.2 134.3v-14c14.1-4.2 46.7-21.4 46.7-21.4 5.3-3.6 11.5-29 11.5-29v-4.3s-8.1 24.2-12.2 30.2-46 20.6-46 20.6v-13.7l39.3-10.1c7.4-8.1 15.8-36.4 15.8-36.4l-59.4 28.5-2.6 97.2 6.9-1.1v-10.6c17.7-4.3 48.3-25.8 48.3-25.8v-.1l.8-4.1C172 159.6 144.2 167 144.2 167v-13.7c9.3-3.1 48.9-26.6 48.9-26.6l3.5-4.9.9-4.2-4.6 6.7c-7.7 7.4-48.6 26.3-48.6 26.3V137c18.2-5.3 50.1-26.6 50.1-26.6l6.5-11.4v-.1l1-5.6v-.1l-8 14.4c-5.6 6.9-49.7 26.7-49.7 26.7zm-.4-38.5v-11l50.1-24.9c-5 14.6-14.1 26.3-14.1 26.3l-36 9.6z"/><path fill="#403E49" d="M193.9 59.9l-50.1 24.9v11l35.9-9.6s9.1-11.7 14.2-26.3z"/><path fill="#908E99" d="M142.6 65.8l16.6-58.6H128v67.3l12.7-.3z"/><path fill="#403E49" d="M142.6 65.8l-1.9 8.4-12.7.3v6.3h12l64.6-29.5 13-5.9 2.1-6.5c-2.1-2.2-4.3-4.2-6.5-6.2l-70.6 33.1z"/><path fill="#696574" d="M142.6 65.8l70.6-33.4c-9.4-8.4-20-15.4-31.5-20.7l-35.6 50.4 16-57.6c-.7-.2-1.4-.4-2-.6l-.9 3.1-16.6 58.8z"/><path fill="#5F5B69" d="M146.1 62.2l35.6-50.4c-6.3-2.9-12.8-5.3-19.5-7.2l-16.1 57.6z"/><path fill="#403E49" d="M128 245.7h21.4v-1.9H128zm0-12.4h22.4v-1.9H128zm0-17.4c.2 0 14.9 0 22 1.5.5.1 1.1.2 1.5.4l.5-1.8c-.5-.1-1-.3-1.6-.4-7.4-1.5-21.8-1.6-22.4-1.6v1.9zm0-12.9c8.6 0 18.3 0 25.9.8 1 .1 2 .2 2.9.3l.3-1.9c-.8-.1-1.6-.2-2.5-.3-7.8-.8-17.7-.8-26.5-.8v1.9z"/><path fill="#7B7686" d="M208.1 201.9l16.2 10.4c2.4-2.7 4.7-5.6 6.8-8.5-3.7-2.8-10.5-7.2-20.4-11-.9 3.3-1.8 6.4-2.6 9.1zm12.4-1.8c1.7 0 3 1.4 3 3 0 1.7-1.4 3-3 3-1.7 0-3-1.4-3-3s1.3-3 3-3zM203.4 188c1.7 0 3 1.4 3 3s-1.4 3-3 3c-.6 0-1.2-.2-1.6-.5l3.6 6.6 1 .7c.8-2.6 1.7-5.6 2.6-8.7-.3-.1-.6-.2-1-.4l-5.4-9.8c-1.1 2.6-2.2 5.1-3.2 7.2l.9 1.7c.1-1.5 1.5-2.8 3.1-2.8zm-2-8.2l-9.9-18-1-1.9-3.4 6.5 1.5 2.8 9.6 17.9c1.1-2.2 2.2-4.7 3.2-7.3z"/><path fill="#403E49" d="M174.3 247.4c-4.5.8-8.7 2.4-12.3 4.1 4.2-1.2 8.3-2.6 12.3-4.1zm-20.1-5.7c-1.1.6-2.1 1.1-3 1.6-.1.8-.1 1.6-.2 2.3.8-.5 1.9-1.1 3-1.7 5.9-3 15.4-7 24.4-6.5 3.6.2 7.7 1.1 12 2.3.8-.4 1.6-.9 2.3-1.3-5-1.4-9.9-2.6-14.2-2.9-8.9-.5-18.2 3.1-24.3 6.2zm87.6-58.5l.4 2.7c.4-.9.9-1.7 1.3-2.6l-.2-.1h-1.5zm-68.4 40.9c-7.3 0-13.5 2-18 4.1-1 .5-1.8.9-2.7 1.4-.1.8-.2 1.7-.4 2.4.8-.5 1.7-1 2.8-1.5 4.4-2.2 10.7-4.5 18.2-4.5 8.4 0 18.7 3.2 26.9 5.8l1.8.6c.6-.5 1.3-.9 1.9-1.4-1-.3-2.1-.7-3.2-1-8.2-2.7-18.7-5.9-27.3-5.9zm41.8-53.7c-.1.3-.2.8-.4 1.5l1.5-.7-4.6 11.5c-.9 3-1.8 6.2-2.7 9.4-.9 3.1-1.8 6-2.6 8.7-1.1 3.6-2.1 6.6-2.6 8.2-1.7 4.4-8.9 3.6-18 2.6-3-.3-6.2-.7-9.5-.9-7.3-.5-13.5.9-17.9 2.5-.9.3-1.7.6-2.4.9l-.6 2.4c.7-.3 1.4-.6 2.3-1 4.2-1.6 10.7-3.5 18.4-2.9 3.3.2 6.4.6 9.4.9 9.9 1.1 17.8 2 20-3.8.6-1.5 1.5-4.3 2.5-7.8.8-2.7 1.8-5.9 2.7-9.1 3-10.3 6.1-21.4 6.3-22.2l.1-.3-.9-3.5-1 .2-.5 1.5.5 1.9z"/><path fill="#403E49" d="M201.4 179.8c-1 2.6-2.1 5.1-3.1 7.3-1.7 3.7-3.1 6.5-3.4 7-2.2 2.5-12.9 4.1-27.3 4.1-1.3 0-2.4 0-3.4.1s-2 .2-2.8.3l-.9 2.1c.8-.2 1.7-.3 2.7-.4 1.2-.1 2.7-.2 4.3-.2 7.5 0 25.3-.5 28.8-4.8l.1-.2c.1-.3 1.4-2.6 2.9-5.9 1-2.1 2.1-4.6 3.2-7.2 2-4.9 3.8-10.3 4.2-14.4v-.2l-1.6-5.6c-1-.9-2-1.9-2.8-2.8l2.5 8.7c-.2 3.4-1.7 7.8-3.4 12.1z"/><path fill="#908E99" d="M206.5 191c0-1.7-1.4-3-3-3-1.7 0-3 1.3-3 3 0 1.1.6 2 1.4 2.6.5.3 1 .5 1.6.5 1.6-.1 3-1.4 3-3.1z"/><circle fill="#908E99" cx="220.5" cy="203.1" r="3"/><path fill="#908E99" d="M211.5 173.5l1.8-.9 1.4-4 .5-1.5 2.3-6.5-5.9 5.2-3.8 3.4c-.1.1.5 4.6 3.7 4.3zm20 8.1l1-4.4 1.7-7.1-5 4.7-3.4 3.2c0-.1.6 5.5 5.7 3.6z"/><path fill="#696574" d="M214.7 172l-1.4.7-1.8.9-6.6 3.1s-1.1 8.1 6.5 6.8l.3-.7 4.6-11.5-1.6.7zm16.3 20.8l2.7-12.2-9.5 6.1c.1 0-.4 7 6.8 6.1zM44.5 173.5l6.6 3.1s1.1 8.1-6.5 6.8l-.3-.7c.9 3 1.8 6.2 2.7 9.4.3-.1.6-.2 1-.4l5.4-9.8c-2-4.9-3.8-10.3-4.2-14.4v-.2l1.6-5.6c-1.8 1.5-3.9 2.9-6.3 4.1l3.8 3.4c0 .1-.6 4.6-3.8 4.3z"/><path fill="#696574" d="M54.6 179.8l9.9-18c-1.3-4.4-2.2-9.4-1.2-14.1l1.1.5c-.1-.4-.2-.8-.2-1.2-2.1-4.9-3.4-8.2-3.4-8.2s.5 11.3-7.1 20.2l-2.5 8.7c.2 3.4 1.7 7.8 3.4 12.1zm4.9 15.5l-.1-.2c-.1-.3-1.4-2.6-2.9-5.9l-.9 1.7c0 1.1-.6 2-1.4 2.6l-3.6 6.6-1 .7c1.1 3.6 2.1 6.6 2.6 8.2 1.7 4.4 8.9 3.6 18 2.6 3-.3 6.2-.7 9.5-.9 7.3-.5 13.5.9 17.9 2.5-1.2-3.9-2.8-8.3-4.8-12.8-1.2-.1-2.7-.2-4.3-.2-7.6-.1-25.4-.5-29-4.9zm-18.2-26.6l-.5 1.7c.1.3.2.8.4 1.5l1.4.7-1.3-3.9z"/><path fill="#696574" d="M61.1 194.2c2.2 2.5 12.9 4.1 27.3 4.1 1.3 0 2.4 0 3.4.1-4.9-10.4-12.2-20.7-22.6-25.4 0 0-.9-1.4-1.9-3.7l-9.6 17.9c1.7 3.6 3.1 6.4 3.4 7zm-22.2-23.5l-.1-.3.9-3.5-1.9-.4-11.1 8.1 3.4 3.2s-.6 5.6-5.7 3.7l-1-4.4-8.2 6h-1l-.4 2.7c3.2 6.3 6.9 12.3 11 17.9 3.7-2.8 10.5-7.2 20.4-11-3-10.2-6.1-21.2-6.3-22zM25 192.8l-2.7-12.2 9.5 6.1c-.1 0 .4 7-6.8 6.1zm76.8 48.9c-.3-4-.6-7.8-1-11.2-4.4-2.2-10.7-4.5-18.2-4.5-8.4 0-18.7 3.2-26.9 5.8l-1.8.6c3 2.2 6.2 4.2 9.4 6.1 5-1.4 9.9-2.6 14.2-2.9 8.9-.6 18.2 3 24.3 6.1z"/><path fill="#696574" d="M82.6 224.1c7.3 0 13.5 2 18 4.1-.5-4.4-1.1-8.1-1.7-10.4-.2-.7-.4-1.5-.7-2.3-4.2-1.6-10.7-3.5-18.4-2.9-3.3.2-6.4.6-9.4.9-9.9 1.1-17.8 2-20-3.8-.6-1.5-1.5-4.3-2.5-7.8l-16.2 10.4c6.1 6.9 12.8 13.2 20.2 18.6 1-.3 2.1-.7 3.2-1 8.4-2.6 18.9-5.8 27.5-5.8zm-5 13.4c-3.6.2-7.7 1.1-12 2.3 5.2 2.9 10.5 5.4 16.1 7.6 4.5.8 8.7 2.4 12.3 4.1 2.8.8 5.7 1.5 8.5 2-.2-3.2-.4-6.4-.6-9.5-5.8-3.1-15.3-7.1-24.3-6.5z"/><path fill="#322F39" d="M106.6 245.7v-1.9h2.8c-.3-3.4-.6-6.9-1-10.5h-2.8v-1.9h2.6c-.6-4.8-1.3-9.5-2.3-14-.5.1-1.1.2-1.5.4l-.5-1.8c.5-.1 1-.3 1.6-.4-.8-3.5-1.7-6.7-2.7-9.6-.3-.7-.5-1.5-.8-2.2-1 .1-2 .2-2.9.3l-.3-1.9c.8-.1 1.6-.2 2.5-.3-4.3-12-7.3-20.4-9.1-25.3-11.8-3.2-22.6-7.7-25.1-13.6 0 0-1.1-5.4-2.9-14.8l-1.1-.5c-.9 4.7-.1 9.8 1.2 14.1l1-1.9 3.4 6.5-1.5 2.8c1.1 2.3 1.9 3.7 1.9 3.7 10.4 4.7 17.6 15 22.5 25.3 1 .1 2 .2 2.8.3l.9 2.1c-.8-.2-1.7-.3-2.7-.4 2 4.5 3.6 8.9 4.8 12.8.9.3 1.7.6 2.4.9l.6 2.4c-.7-.3-1.4-.6-2.3-1 .2.8.5 1.6.7 2.3.6 2.3 1.2 5.9 1.7 10.4 1 .5 1.8.9 2.7 1.4.1.8.2 1.7.4 2.4-.8-.5-1.7-1-2.8-1.5.4 3.4.7 7.3 1 11.2 1.1.6 2.1 1.1 3 1.6.1.8.1 1.6.2 2.3-.8-.5-1.9-1.1-3-1.7.2 3.1.4 6.4.6 9.5 2.5.5 5 .9 7.6 1.3-.1-2.9-.3-5.9-.6-9.1h-3z"/><path fill="#53505D" d="M121.6 185.4l-.1-3.1c-7-1-18.5-2.8-29.2-5.7 1.8 4.8 4.8 13.2 9.1 25.3 7.8-.8 17.7-.8 26.5-.8v1.9c-8.6 0-18.3 0-25.9.8.3.7.5 1.4.8 2.2 1 2.9 1.9 6.1 2.7 9.6 7.4-1.5 21.8-1.6 22.4-1.6v1.9c-.2 0-14.9 0-22 1.5.9 4.4 1.7 9.2 2.3 14H128v1.9h-19.5c.4 3.5.8 7 1 10.5H128v1.9h-18.3c.2 3.1.4 6.2.6 9.1 5.8.8 11.8 1.2 17.8 1.2v-69.3l-6.5-1.3z"/><path fill="#696574" d="M111.8 153.5c-9.3-3.1-48.9-26.6-48.9-26.6l-3.5-4.9-.9-4.2c1.5 8.5 2.9 16.1 4.2 22.6 21.3 19.4 49.1 26.8 49.1 26.8v-13.7zm-48.3-9l-.8-4.1c.3 1.4.6 2.8.8 4.1z"/><path fill="#696574" d="M111.8 150.9V137c-18.2-5.3-50.1-26.6-50.1-26.6L55.2 99c1.1 6.6 2.3 12.9 3.3 18.8l4.6 6.7c7.7 7.4 48.7 26.4 48.7 26.4zM55.2 98.8l-1-5.6c.4 1.9.7 3.8 1 5.6z"/><path fill="#696574" d="M67.2 163.1c2.6 5.9 13.4 10.4 25.1 13.6 10.7 2.9 22.2 4.8 29.2 5.7l-2.7-101.7H116L51.4 51.2c-1.2 9.4-1 18.5-1 18.5 1.3 8.1 2.6 16 3.9 23.5l8 14.4c5.5 6.9 49.6 26.8 49.6 26.8v-14C97.8 116.2 65.2 99 65.2 99c-5.3-3.6-11.5-29-11.5-29v-4.3s8.1 24.2 12.2 30.2 46 20.6 46 20.6v-13.7L72.5 92.7c-7.4-8.1-15.8-36.4-15.8-36.4l59.4 28.5 2.6 97.2-6.9-1.1v-10.6c-17.7-4.3-48.3-25.8-48.3-25.8.2.9.3 1.7.5 2.6.1.4.2.8.2 1.2 1.9 9.3 3 14.8 3 14.8z"/><path fill="#807F87" d="M121.5 182.4l.1 3 6.4 1.3v-106h-9.2z"/><path fill="#5F5B69" d="M111.8 170.3v10.6l6.9 1.1-2.6-97.2-59.4-28.5s8.4 28.3 15.8 36.4l39.3 10.1v13.7s-41.9-14.6-46-20.6-12.2-30.3-12.2-30.3v4.3s6.2 25.4 11.5 29c0 0 32.6 17.2 46.7 21.4v14s-44.1-19.9-49.6-26.8l-8-14.4v.1l1 5.6v.1l6.5 11.4s31.9 21.3 50.1 26.6v13.9s-41-18.9-48.6-26.3l-4.6-6.7.9 4.2 3.5 4.9s39.5 23.5 48.9 26.6v13.7s-27.7-7.4-49.1-26.8l.8 4.1c-.1 0 30.5 21.5 48.2 25.8zM76.3 86.2s-9.1-11.7-14.1-26.3l50.1 24.9v11l-36-9.6z"/><path fill="#322F39" d="M112.2 84.8L62.1 59.9c5 14.6 14.1 26.3 14.1 26.3l35.9 9.6v-11z"/><path fill="#807F87" d="M128 7.2H96.8l16.6 58.6 1.9 8.4 12.7.3V52z"/><path fill="#322F39" d="M51.4 51.2L116 80.7h12v-6.3l-12.7-.2-1.9-8.4-70.6-33.3c-2.2 2-4.4 4.1-6.5 6.2l2.1 6.5 13 6z"/><path fill="#53505D" d="M113.4 65.8L96.8 7.2 95.9 4c-.7.2-1.4.4-2 .6l16 57.6-35.5-50.4c-11.5 5.3-22.2 12.3-31.5 20.7l70.5 33.3z"/><path fill="#4B4854" d="M109.9 62.2l-16-57.6c-6.7 1.9-13.3 4.3-19.5 7.2l35.5 50.4z"/><path fill="#322F39" d="M106.6 245.7H128v-1.9h-21.4zm-1-14.3v1.9H128v-1.9h-19.8zm-1.2-13.6c.4-.1 1-.3 1.5-.4 7.2-1.5 21.9-1.5 22-1.5V214c-.7 0-15 0-22.4 1.6-.6.1-1.1.3-1.6.4l.5 1.8zm-5.5-15.6l.3 1.9c.9-.1 1.9-.2 2.9-.3 7.6-.8 17.2-.8 25.9-.8v-1.9c-8.9 0-18.8 0-26.5.8-.9.1-1.8.2-2.6.3z"/><path fill="#605C6A" d="M54.2 193.6c-.5.3-1 .5-1.6.5-1.7 0-3-1.4-3-3s1.4-3 3-3c1.7 0 3 1.3 3 3l.9-1.7c-1-2.1-2.1-4.6-3.2-7.2l-5.4 9.8c-.3.1-.6.2-1 .4.9 3.1 1.8 6 2.6 8.7l1-.7 3.7-6.8zm3.5-6.5l9.6-17.9 1.5-2.8-3.4-6.5-1 1.9-9.9 18c1.1 2.6 2.2 5.1 3.2 7.3zm-12.5 5.7c-9.8 3.8-16.6 8.2-20.4 11 2.2 2.9 4.4 5.8 6.8 8.5l16.2-10.4c-.7-2.7-1.6-5.8-2.6-9.1zm-9.7 13.4c-1.7 0-3-1.4-3-3 0-1.7 1.4-3 3-3 1.7 0 3 1.4 3 3s-1.3 3-3 3z"/><path fill="#322F39" d="M94.1 251.4c-3.6-1.7-7.8-3.2-12.3-4.1 3.9 1.6 8 3 12.3 4.1zm7.9-7.5c1.2.6 2.2 1.2 3 1.7-.1-.8-.1-1.6-.2-2.3-.9-.5-1.9-1-3-1.6-6.1-3.1-15.4-6.7-24.4-6.1-4.3.3-9.2 1.4-14.2 2.9.8.5 1.6.9 2.3 1.3 4.3-1.2 8.4-2.1 12-2.3 9.1-.6 18.6 3.4 24.5 6.4zM82.6 226c7.6 0 13.9 2.2 18.2 4.5 1 .5 2 1 2.8 1.5-.1-.8-.2-1.6-.4-2.4-.8-.4-1.7-.9-2.7-1.4-4.5-2.1-10.7-4.1-18-4.1-8.6 0-19.1 3.3-27.5 5.9-1.1.3-2.1.7-3.2 1 .6.5 1.3.9 1.9 1.4l1.8-.6c8.5-2.6 18.8-5.8 27.1-5.8zm-69.9-42.8l-.2.1c.4.9.9 1.7 1.3 2.6l.4-2.7h-1.5zm26.2-12.5c.2.8 3.3 11.8 6.3 22.2.9 3.2 1.9 6.3 2.7 9.1 1 3.4 2 6.3 2.5 7.8 2.2 5.8 10.1 4.9 20 3.8 3-.3 6.1-.7 9.4-.9 7.8-.5 14.3 1.3 18.4 2.9.9.3 1.6.7 2.3 1l-.6-2.4c-.7-.3-1.5-.6-2.4-.9-4.3-1.5-10.5-3-17.9-2.5-3.3.2-6.5.6-9.5.9-9.1 1-16.3 1.9-18-2.6-.6-1.6-1.5-4.5-2.6-8.2-.8-2.6-1.7-5.6-2.6-8.7-.9-3.2-1.9-6.4-2.7-9.4l-4.6-11.5 1.5.7c-.2-.7-.3-1.2-.4-1.5l.5-1.7-.5-1.5-1-.2-.9 3.5.1.1z"/><path fill="#322F39" d="M49.1 167.6c.4 4.1 2.2 9.5 4.2 14.4 1.1 2.6 2.2 5.1 3.2 7.2 1.6 3.3 2.8 5.6 2.9 5.9l.1.2c3.6 4.4 21.4 4.8 28.8 4.8 1.7 0 3.1.1 4.3.2 1.1.1 2 .2 2.7.4l-.9-2.1c-.8-.1-1.7-.2-2.8-.3-1-.1-2.1-.1-3.4-.1-14.4 0-25.1-1.6-27.3-4.1-.3-.5-1.7-3.3-3.4-7-1-2.2-2.1-4.7-3.1-7.3-1.7-4.3-3.1-8.8-3.5-12.2l2.5-8.7c-.8 1-1.8 1.9-2.8 2.8l-1.6 5.6.1.3z"/><path fill="#908E99" d="M52.6 188c-1.7 0-3 1.4-3 3s1.4 3 3 3c.6 0 1.2-.2 1.6-.5.8-.5 1.4-1.5 1.4-2.6 0-1.6-1.4-2.9-3-2.9z"/><circle fill="#908E99" cx="35.5" cy="203.1" r="3"/><path fill="#908E99" d="M42.7 172.6l1.8.9c3.1.3 3.7-4.2 3.7-4.2l-3.8-3.4-5.9-5.2 2.3 6.5.5 1.5 1.4 3.9zm-12.5 5.3l-3.4-3.2-5-4.7 1.7 7.1 1 4.4c5.1 2 5.7-3.6 5.7-3.6z"/><path fill="#53505D" d="M51.1 176.6l-6.6-3.1-1.8-.9-1.4-.7-1.5-.7 4.6 11.5.3.7c7.5 1.3 6.4-6.8 6.4-6.8zm-28.8 4l2.7 12.2c7.2 1 6.7-6.1 6.7-6.1l-9.4-6.1z"/></svg>