<svg xmlns="http://www.w3.org/2000/svg" width="256" height="256"><circle fill="#B1B3B5" cx="128" cy="128" r="128"/><path fill="#711540" d="M210.4 164.9c.6 2.3 1 4.6 1.1 5.2.2 1 .2 7.4-.5 9.8-.7 2.4-2.6 4.8-3.6 5.5-1 .7-2.6 1.7-2.9 4.6-.2 2.9.7 8.1.5 9.3-.2 1.2-3.1 5.7-4.1 7.2-1 1.4-5.5 7.2-6.5 9.3-1 2.2-8.6 10.8-8.1 12.2.5 1.4 6-2.4 7.2-5.3 1.2-2.9 5.7-12.2 7.4-13.7s6.7-9.8 6.7-12.7c0-2.9-1.7-6.5 1-9.1 2.6-2.6 5.3-8.4 5.5-10.1.2-1.7 1.4-7.9 1.4-9.6 0-.9-.4-3-.6-4.8h-.1c-2.7 1.3-.9-.2-4.4 2.2zm20-86.4c-.5-1.5-1.2-3.1-2-4.8.6 6.2.9 14.4 1.2 21.5.9-4.8 2-13.1.8-16.7zM158.2 3.6c-1.7-.4-3.4-.8-5.1-1.1 2.5 1 4 1.9 5 2.7 0-.6 0-1.1.1-1.6z"/><path fill="#711540" d="M222.6 143.8c-.3 1.6-.5 3.1-.6 4.4-.5 6.5-.7 12-1.4 12.9-.7 1-4.3 0-3.8 3.8s.7 10.3-.7 13.4-1.7 8.1-2.9 9.6c-1.2 1.4-3.8 1.7-3.8 4.8s.6 6.2-.7 8.1c-3.4 5.3-8.2 12.3-9.8 15s-3.5 7-4.2 8.9c-.6 1.9-3.5 4-1.8 3.7 1.8-.3 6.4-8.3 7.3-9.9 1-1.6 7.3-14.4 8.6-16.1 1.3-1.8 2.9-4.2 3-5.4.2-1.3-1-5.1 1-7.2 1.9-2.1 2.1-4 3-5.4 1-1.4 3.4-7.5 4-10.9.6-3.4-.3-7.2.6-9.4s2.1-4.3 2.4-6.1c.2-1 1-8.1 1.7-14.2-.6.3-1.3.2-1.9 0z"/><path fill="#711540" d="M219.4 142.8c-.4 3.3-.8 6-.9 6.9-.1.8-.3 1.9-.6 3.1-.1 1.9-.2 2.9-.5 4.4.6-.9 1.2-2.3 2-4.4.6-1.7 1.2-5.4 1.7-9.6-.7-.4-1.3-.6-1.7-.4zm7.9-76.7c.1.3.2.7.2 1 1.8 4.1 5 10.6 5 14.5 0 4.1-1.4 13.9-2.2 18-.1.7-.3 1.6-.6 2.7.2 4.1.3 7.1.5 8 1.7-7.3 3.7-17.6 3.7-20.3 0-3.7 0-10.2-1-14s-4.9-12.9-5.3-14.8c0-.2-.1-.6-.3-1.1-.6.3-1.1 1.7 0 6zm-2.2 64.1l-.3 1.8c0 .7 0 1.6.1 2.8.1 1.1.2 1.9.4 2.7.1-1.2.2-2.1.3-2.5.1-1 .4-3.2.7-5.8-.5.2-.9.4-1.2 1zM205.3 26c-.1-.1-.2-.2-.3-.2.1.1.1.3.2.4 0-.1.1-.2.1-.2zm-10.8 174.9c0 .3-.1.5-.1.7.7-1.4 1-2.6 1.7-4.1-.7.2-1.2 1.1-1.6 3.4zm10.5-31.1c-.5 5.3.7 4.3-.5 6.7-.4.9-1 1.5-1.6 2 .1 1-.6 2.1-1.4 3 .2 1.2.4 2.8.6 4.5.2-.6.4-1.1.8-1.4 2.2-1.7 3.1-5 3.4-7.9.2-2.9.7-5.3 1.4-5.7.4-.3.1-2.5-.3-4.6-1.9.5-2-.6-2.4 3.4zm-4.3 28.2c-.6.1-1.1 0-1.6 0 .2 1.4.1 2.5-.3 3.1-.2.3-1.1 1.6-2.4 3.3.8.6.8 1.5-3.8 6.2l-2.8 2.8c-2.3 3.1-4.7 6.4-6.8 9.3.1.2.1.3-.6.8-2.4 3.4-4.4 6.3-5.2 7.6.2 0 .4.1.7.1 3.4-3.2 13.4-14.7 14-15.5.7-1 10.1-17.2 10.3-19.4v-.8c-.3 1.6-.8 2.4-1.5 2.5zM132.5.1c-.9 0-1.8-.1-2.7-.1 0 .5 0 1 .1 1.6.8-.3 1.7-.7 2.6-1.5zM204 26.7c-.4-.8-.8-1.7-1.2-2.6-.2-.2-.4-.3-.6-.5.7 1.6 1.2 2.8 1.8 3.1zM162.1 8.1c2.9.2 3.8.5 5 0 1.2-.5 2.7 3.4 7 8.6 4.3 5.3 3.1 1.7 6.4 6.5 3.4 4.8 2.4 10.5 5 6 2.6-4.6 2.6-7.4 2.6-7.4s-6.5-4.1-3.4-5.7c1.2-.6 2.1-1 2.7-1.4-8.6-4.5-17.7-8.1-27.2-10.6 0 .8-.1 1.9-.1 3 .6.6 1.1 1 2 1z"/><path fill="#711540" d="M246 149.9c4.3-29 5-57.2 0-68-5-10.8-6.5-16.5-12.7-26.6-1.1-1.8-3.2-4.6-6-8 1.4 7.7 1.7 11.1 1.8 12.3 1.4 4 2.6 7.8 3.3 9.1 1.4 2.7 4.2 12.6 3.8 15.2-.3 2.6-1 13.7-2.6 19.5-.7 2.4-1.6 5.6-2.5 8.7.9 1.3 2 2.6 1.5 3.8-.7 1.7-2.2 2.3-2.4 3.4-.2 1.1.2 1.6 0 4-.2 2.3-.9 3.3-2.6 4.8-.4 4.2-.6 8.9-.9 10.4-.1.4-.2 1.4-.3 2.7.2.6.2 1-.1 1.4-.6 6.7-1.4 18.8-1.4 19.8 0 1.3.2 3.8-.6 4-.8.2-2.4 12.6-4.3 14.5-1.9 1.9-6.9 9.9-6.5 12.1.3 2.2 1.3 8.6-1.4 9.9-2.7 1.3-9.6 15.8-9.9 16.6-.3.8-6.2 11.7-7.3 11.8-.3 0-1.1.3-2 .6-.7.8-2.1 1.7-3.8 2.2-.9.2-1.5.2-2.1.1-.4.1-.7.2-1 .3-1.8.4-4.9 2.9-5.2 3.2.3-.2 2.1-1.7 1-1.7-3.4 3.8-3.5 1.6-5.4 4.9-1.9 3.3-.7 1.5-7.4 3.4s-8.1 1.7-10.3 2.9c-2.2 1.2-5.3 0-5.3 0s.7 1.7-2.6 2.9c-3.4 1.2-4.3-1-6 0s-2.4-.5-3.6 1.4c-1.2 1.9-2.2.8-3.8 2.3-.7.6-2.4.4-4.2-.1-.1.1-.2.1-.3.1 0 0 .1-.1.2-.1-2.1-.6-4.2-1.5-4.9-1.8v4.2c13.1 0 25.7-2 37.6-5.6 2.9-3.3 4.1-2.6 12.9-4.8 13.5-5.8 25.7-13.8 36.3-23.6 2.9-10.8 8.1-31.9 14.1-40.4 7.5-11.2 12.6-2.8 16.9-31.8z"/><path fill="#AF233A" d="M131 33.8c.2 2.6 2.9 2.9 4.3-2.9 1.4-5.7 3.1-16.8 4.1-23.5.4-2.7.5-5.2.5-6.9-2.5-.2-4.9-.4-7.4-.5-.9.8-1.8 1.3-2.6 1.5.4 12.4 1 30.4 1.1 32.3zm95.6 107.4c0 .4-.1.9-.1 1.4.2-.4.2-.8.1-1.4zM188.3 21.8s0 2.9-2.6 7.4c-2.6 4.6-1.7-1.2-5-6-3.4-4.8-2.2-1.2-6.4-6.5-4.3-5.3-5.8-9.1-7-8.6-1.2.5-2.1.2-5 0-1-.1-1.4-.4-1.9-1-.2 8.7-.2 24.6.3 26.8.6 2.9 5.9 6.7 5.9 3.8s-4.1-24.9-3.6-28.3c.5-3.4 1 3.6 1.9 7.7s3.6 27.3 5.7 26.8c2.2-.5 2.2-5.3 2.2-8.4S171 24.4 171 21.8s-1.2-5.3.2-4.1c1.4 1.2 1.5 8.9 2.9 11.3s3.1 12 3.8 13.9c.7 1.9 4.8 2.9 5 1.2.2-1.3.7-4.9.4-6.7-.4-.7-.8-1.3-1.3-1.7.3.2.7.5 1 .7.2.1.3.5.4 1 .9 1.8 1.5 4.4 2.7 7.6 1.7 4.4 2.9 11.6 3.8 12.5 1 1 2.6 4.1 4.6 9.8 1.9 5.7 3.8 19.2 3.1 27.5-.3 3.3-.3 6.6-.3 9.5.2-1 .2-1.4.5-3.4.3-2.9.5-4.1 1-5.9s.8.3.8-2.9-.2-2.7.2-6.1c.3-3.4-.3-2.6 0-4.6.3-2.1 0-5.3.1-7.3v-4c0 .8 1.1 4.9 1.1 8s-.2 1.9 0 4.8-.3 2.1 0 4.6c.3 2.6.4 3.8 0 5.1-.4 1.3-1.2 1-1.3 2.6s-.2 1.6-.2 3 1.4-.2 0 3.7c-1.4 3.8-1.8 4.5-1.8 5.3 0 .5-.3.6-.3 1v.3c0 .2.1.5.3.9.8 1.6.6 1.8 1.1 2.9.5 1.1.6 1.6.8 2.1.2.5-2.9 8.3-1.9 8.5s1-1.6 1.1-2.4 0-1.8 1-2.6.5-3.5 1-.8-.1.2.4 3.4c.5 3.2.3 1.9 0 5.1-.3 3.2 0 2.1-.3 3.2s-.3 2.4-1.1 3.2-.2-.2-1.1 1.8l-1 1.9s.2-3.2-.8 1.3c-.8 3.7-.1 4.4-.5 5 2.7-2 6-4.9 6.6-7.8 1.2-5.3 6.5-29.9 7.9-37.6 1.4-7.7-.5-35.7-4.6-48.6-2.2-7.1-6.5-18.8-10.8-28.6-2.6-1.6-5.3-3.2-8.1-4.6-.6.4-1.5.7-2.7 1.4-2.9 1.5 3.6 5.6 3.6 5.6zm-49.6 0c.2.9 2.6-14 3-21.1-.5 0-.9-.1-1.4-.1v.1c.8 5.5-1.9 20.1-1.6 21.1zm11.2 7.8c.3 5.5.4 8.4.5 10.2.1.3.1.5.2.7 1.7 2.4 7.7-5.7 7.7-10.5 0-4.1-.5-17.7-.2-24.8-1-.8-2.6-1.7-5-2.7-.9-.2-1.7-.3-2.6-.5-.3 7.5-.6 19.1-.6 27.6zm32.7 128.5c1.3 1.3 1.9 1.4 4.4 3.6s5.4 8.3 7.5 11.7c2.2 3.5.7 6.3-.4 7.4-1.1 1.1-2.5 2-4.2 6.8-1.7 4.8.5 3.2.7 4.9.2 1.6 1.3 3.3 1.7 6.4.4 3.1-4.1 7.2-5.5 8.3-1.4 1.1-6.9 9.3-7.2 9.8-.2.5-2 3.6-3 4.8-1 1.2-2.9 2.8-4.3 4.1-1.4 1.3-6.1 9-4.2 8.4 1.9-.6 7.7-7.3 8.4-8.9s15.7-20 17-22.3c.3-.5.6-1 .8-1.5 0-.2 0-.4.1-.7.4-2.4.9-3.2 1.6-3.4 0 0 0-.1.1-.1 1-2-.7-5.5-1.5-7.5s.3-5.1 1.5-7.7c1.2-2.5.5-.7 3.4-3.7s.5-.7 0-3.7-.7-2.8-2.2-4.3c-1.4-1.6-.1-4.2 0-4.6.1-.4-3.5-2.6-5.1-3.6s-4-6.2-3.7-8.3c.2-2 4.8-3.4 4.8-3.4-3.1-.1-10.4 2-12.7 3.5s.7 2.6 2 4zm6.4 76.1c1.8-.5 3.1-1.4 3.8-2.2-1.8.7-4.3 1.7-6 2.2.6.2 1.3.3 2.2 0zM146.8 27.8c.5-4.1 1-17 1.4-26.2-1.7-.3-3.3-.5-5-.7-.4 4.5-2.3 22.5-2.3 29.5-.1 7.7 5.2 3.4 5.9-2.6zm-4.9 184.4l-.6.3c.1.2.3.1.6-.3zm74.9-54.9s-7.9-1.4-8.6-1c-.7.5-.7 1.9.7 4.3.6 1 1.1 2.6 1.5 4.2 3.6-2.3 1.7-.9 4.5-2h.1c-.2-1.5-.2-2.9.4-3.3.7-.5 1.3-1 2-2.3.3-1.5.4-2.6.5-4.4-.5 2.2-1.1 4.5-1.1 4.5zm7.1-89.5c1 2.9 3.6 12.7 3.8 14.4.2 1.7.2 13.7-2.2 21.1-2.4 7.4-5.3 20.1-5 25.4.1 3.2-.6 9.3-1.2 14.2.5-.2 1 0 1.7.4.9-8.4 1.7-19.2 2.6-22.7 1.4-5.3 4.3-18.9 5.3-22.5.2-.7.4-1.6.6-2.7-.3-7.1-.6-15.4-1.2-21.5-1.6-3.4-3.6-7.5-5.2-12.9-2.4-8.1-2.4-13.2-4.8-18.4-1-2.1-2.4-5.4-3.8-8.6-1-.9-2-1.9-3.1-2.8 2.3 6.1 4.7 12.5 5.4 14.2 1.6 3.2 6.2 19.5 7.1 22.4z"/><path fill="#AF233A" d="M197.8 113.6c0-.3-.1-.6-.1-.8 0 .8.1 1.6.1 2.2v1.1c.2-.2.3-.2 0-2.5zm-26.2 125.5c-2.4.3-5.9 2.2-6.5 3.2-.6 1-6.2 1.3-6.2 1.3s-6.1 1.8-9.4 6.1l2.6-5.1s-8.5 2.4-9.7 4.2c-1.1 1.5-7.7 4.3-9.3 5 1.8.5 3.5.8 4.2.1 1.7-1.5 2.6-.4 3.8-2.3 1.2-1.9 1.9-.5 3.6-1.4s2.6 1.2 6 0 2.6-2.9 2.6-2.9 3.1 1.2 5.3 0c2.2-1.2 3.6-1 10.3-2.9 0 0 .4-.3 1-.7 1.5-1.6 3.8-4.9 1.7-4.6zm55.7-172.5c.1.2.2.4.2.6-.1-.4-.2-.7-.2-1-1.1-4.3-.5-5.6.3-6-1.1-3.7-5-13.8-5.5-16.3-.2-1-.8-2.5-1.5-4.2-.8-.9-1.7-1.7-2.5-2.6 2.2 4.8 4.6 10.8 4.9 13 .5 3.8 2.6 12.4 4.3 16.5zm-73.2 171.5c3-.8 7.7-1.8 10.1-5.6s11.7-16.1 12.9-17.1c1.3-1 9.4-12.9 10.9-16.1 1.4-3.2-1-5.3.5-11.2 1.4-5.9 2.6-7.5 3.5-8.3 1-.8.3-4.5-.3-6.5-.6-2.1-7.7-10.9-8.5-11.3-.8-.5-.5 1.1-1 2.6-.6 1.4 2 4.5.9 8.8-1.1 4.3-1.8 5.6 0 10.4 1.8 4.8 3.5 4.8 2.6 8.3s-4.5 12-5.1 12.9c-.6 1-4.6 4.8-5.4 6.2-.8 1.4-3 4-5.4 7.8-2.4 3.8-5.9 5.7-9.3 8.6-3.4 2.9.3 1.3-4.2 4.6-4.5 3.4 0 1.3-5.4 3.7-5.4 2.4-4.3 3-6.2 3.7-1.9.6-5.1 1.4-5.4 1.9-.3.5 0 1.6-1.9 3.4-1.7 1.6-7.9 3.1-9.1 3.3v3.6c.6.3 2.8 1.2 4.9 1.8 1.1-.7 5.3-3.9 7.1-5 1.7-1.1 10.8-9.7 13.8-10.5zm22.7-5.8c.1.1.5-.2 1.1-.8-.3 0-.5-.1-.7-.1-.3.5-.5.8-.4.9zm18.4-93.8c0-1-1.1-1.8 0-3.5 1.1-1.8 0-.5 1.1-1.8s1.1.6 1.6-2.2c.5-2.9.8-4.5.8-4.5s-.3-2.2-.8-1.1.6.8-.5 2.7c-1 1.6-1.4 2.1-1.8 2.5-.3 1.6-.6 3-.7 3.7-.7 3.1-2.6 10.3-2.6 10.3s1-.6 2.4-1.5c.4-2.4.5-3.6.5-4.6zm30.7-14.5c0 1.5-.3 3.7-.7 6.2.3-.6.7-.8 1.2-1 .5-4.2 1.3-9.4 2.3-12.4.4-1.3 1-3.6 1.7-6.4-.2-.9-.3-4-.5-8-1.4 6-4 17.4-4 21.6zm-1.1 8c-.7 3.8-1.6 8.1-2.2 11.8.6.2 1.3.3 2 .1.3-2.4.5-4.7.7-6.4-.2-.8-.3-1.7-.4-2.7-.1-1.2-.1-2.1-.1-2.8z"/><path fill="#AF233A" d="M209.8 36.9c1.9 6.5 7.7 27.3 9 32.1 1.3 4.8 3.7 10.1 3.7 13.4 0 3.4-1 19.9-2.4 22-1.4 2.2-5.3 18.9-5.3 21.6 0 2.6-.7 16.5-1.7 18.4-1 1.9-2.6 7.9-3.8 7.7-1.2-.2-8.6 0-10.3 0-1.7 0-8.9 1.4-7.7 3.6 1.2 2.2 5.7 6 8.4 8.9 2.6 2.9 1.9 5.7 1.9 5.7s.7 6.2 1.2 7.7c.1.2.1.3.1.5.6-.4 1.1-1.1 1.6-2 1.2-2.4 0-1.4.5-6.7.4-4 .5-2.9 2.3-3.4-.3-1.4-.6-2.7-.7-3.3-.2-1.4-3.8-6.5-1.4-8.1s6-1.9 8.6-6 3.6-25.9 5.7-32.8c2.2-6.9 5.7-20.8 6.5-27.1.7-6.2-7.2-31.6-8.6-36.9-.9-3.4-5.4-15-8.8-23.6-1.1-.9-2.2-1.8-3.3-2.6 0 .1-.1.1-.1.2 2.1 4.3 3.9 8.4 4.6 10.7z"/><path fill="#AF233A" d="M215.3 85.2c-1.2 8.1-2.2 18.2-4.6 27.1s-1.9 19.2-2.6 21.6-11.3 14.4-11.3 14.4 9.8-1.7 11.3-5.5c1.4-3.8 2.9-13.4 3.4-17.5s5.7-18.2 6.2-21.8c.5-3.6 2.2-22.5 0-32.3-2.2-9.8-10.3-36.2-12-40.5-.3-.9-1-2.3-1.8-3.9-.6-.3-1.1-1.5-1.9-3.1-.9-.7-1.9-1.3-2.8-1.9 5.1 12.2 11.7 28.6 12.2 32 .8 5.1 5.1 23.3 3.9 31.4zm12.5 42.9c1.7-1.5 2.4-2.5 2.6-4.8.2-2.4-.2-2.9 0-4s1.7-1.7 2.4-3.4c.5-1.2-.6-2.6-1.5-3.8-1.2 4.2-2.3 8.3-2.8 10.5-.3 1.3-.5 3.3-.7 5.5zm-27.1 54.1c-1.4 1.2-4.8 4.1-3.8 6.9.7 2 1.9 5.9 2.2 8.8.5.1 1 .1 1.6 0 .7-.1 1.2-1 1.5-2.3-.1-2.4-.8-7.2-.1-9.8-.2-1.7-.4-3.3-.6-4.5-.2.4-.5.7-.8.9zm28.5-122.5c-.1-1.3-.5-4.6-1.8-12.3v-.1c-1.6-1.9-3.2-3.9-4.9-5.7 1.1 2.9 2.1 5.7 2.8 7.1.8 1.8 2.4 6.5 3.9 11zM183 222.9c-.2.3-.4.6-.6.8.7-.5.6-.5.6-.8zm13.4-18.4c-1.7 2.3-4.1 5.6-6.6 9.1l2.8-2.8c4.6-4.8 4.6-5.7 3.8-6.3zm-15.7 31.7c-2.9.8-3.2.8-6.6 3.8-1.7 1.5-3.3 2.8-4.3 3.5-.2.2-.4.4-.6.5-.2.2-.3.2-.4.2 6.7-1.9 5.5 0 7.4-3.4 1.9-3.3 1.9-1 5.4-4.9-.2.1-.4.2-.9.3z"/><path fill="#E76BA7" d="M130.3 210.2c.5-1.5.4-2 .5-2.3-1.4.5-2.2.7-2.7.9v.1c.7.3 0 .1 0 .1v3c.4 0 1.6.1 2.2-1.8zm7.5-17c.9-.1 1.3-.3 1.8-.3-.1-.3-.3-.7-2.1-.9-3.5-.3-3.5-1-3.5-.3v.6c1.6-.5 1.7 1.1 3.8.9zm8.6 12.7c-2.1 2-4.4.3-6.7.3-2.1 0-4 .1-8 1.3.1.2.2.5.3.7 1.8 4.2 1.1 5.4 2.4 4.8 1.3-.6.3.5 1.8-1.6 1.4-2.1 2.6-4.2 2.6-4.2s.3-.6 1.3 1.4c.7 1.5.8 3.5 1.2 3.8l.6-.3.1-.1c1.1-1.8.8-1.6 1.3-2.6s-.2-1.4.6-1.6c.8-.2 3.2 1.6 3.7-.5s.2-2.4 1-3.5c.1-.2.2-.3.2-.4-.6.7-1.3 1.5-2.4 2.5zm.5-12.6s-.5-3.5-1.3-3.5-.6-.3-1.8 1.1c-.8 1.1-1.4 1.7-2.4 2.1.4.1.9.2 1.6.3 3.9.8 1.3-.4 3.9 0zm-17.2-2.7c-.7.3-1.3.6-1.6.7v1.8c.2-.7.4-1.2.9-.8 1.1.9 1.6.6 2.1.3s1.2.3 2.8-.2c0 0-.8-1-1.5-1.7l-.9-.7c.1-.1 0 .6-1.8.6zm24.4 6.6c0 .8-.8 1.3-1.6 3.8-.1.3-.2.5-.3.7h1.9c1.8-.2 2.2.6 2.6-2.4.3-3 0-2.6.2-4.3.2-1.8-.3-4.6-1.8-6.2-1.4-1.6-2.7-4-3.5-3.8-.8.2.6 0-.8 2.9l-1.4 2.9-2.4 2.6c2.6.3 3.5-.2 7.2 1.1 3.6 1.2-.1 1.9-.1 2.7z"/><path fill="#CFCAD7" d="M131.1 192.5c-.5.3-1 .6-2.1-.3-.5-.4-.8.1-.9.8v15.7c.5-.2 1.3-.4 2.7-.9 0-.2.1-.4.3-.8.1-.3.2-.5.2-.8-.3-.9 0-.6 0 0 .1.3.2.7.5 1.3 4-1.2 5.9-1.3 8-1.3 2.2 0 4.6 1.7 6.7-.3 1.1-1 1.8-1.8 2.3-2.4.4-.9 0-1.4.6-1.7.4-.2 1.7-.1 2.9-.1.1-.2.2-.4.3-.7.8-2.6 1.6-3 1.6-3.8s3.7-1.6 0-2.9c-3.7-1.3-4.6-.8-7.2-1.1-2.6-.3 0 .8-3.8 0-.6-.1-1.2-.2-1.6-.3-.3.1-.7.2-1.1.3-.9.2-.7-.1-.8-.4-.5.1-.9.2-1.8.3-2.1.2-2.2-1.4-3.8-.9-1.7.6-2.4 0-3 .3z"/><path fill="#281137" d="M131.3 206.2c0-.6-.3-.9 0 0zm1.4 47.6s0-.1 0 0zM182 35.7c.5.4 1 1 1.3 1.7-.1-.5-.2-.8-.4-1-.2-.2-.6-.5-.9-.7zm-53.9 145.1v5.4c.6.2 2.3 1 3 1.5.9.6 1.4 3.8 1.6-.5v-1c-1.1-.3-.8-1.9-.2-3.8v-.1c0-.3.1-.6.1-.9.5-3.4-.4-1.6 0-5.9.5-4.3-2.8-4.3 0-11.5s3.3-5.3 3.3-11.3c0-6.1-.2 6.7 0-10.5s.6-14.3 0-21.1c-.3-3.1-.5-5.4-.7-7.3-.8 1.7-.5.9-.1-.5-.2-2-.4-3.5-.5-5.1-.3-3-1.3-4.2-1.1-6.9s.3.6.3-10.9c0-4.9.1-8.5.2-11 .1-3.5.3-5.2.3-5.9 0-1.3 1.1 7.2 1.1 11.5v7.3s-.5 3.5-.5 5.1 0 1.9.3 3.9 1.3 3.1 1 4.4c-.3 1.3-.2-.6 0 2.6.1 1.4-.6 3.6-1.1 5.1 0 .2 0 .4.1.5.3-.5.6-1.3 1.2-2.4 3.8-7.8 4.3-7.8 4.3-14.2s-1-7.2.2-14c1.1-6.9 1.8-16.1 1.8-16.9 0-.9 0-1.6-.4-2.9-.6-2.6.2-7-2.1-6.9-2.2.2-3.5-2.7-3.5.6s-.9 4.6-1.1 6.1c-.2 1.4.3 2.2-.2 1.4-.5-.8-.6-1.8-.6-3.7 0-1.9 1.3-.4.8-5.5s.5-4.8 0-7.6c-.5-2.9-.9-3.5 0-7.2s1.7-6.7 2.2-6.7c.5 0 1 .6 1 1.8 0 1.1.3.6 0 2.7s-1.8 7-1.8 8.5-1.3-1.1 0 2.4 3.4 4.2 3.4 4.2.9-.6 2.3 0 .9.3 1.6-1.1 1.2-3 1.2-5.7.9-3.7.8-6.2.5-5.1 1.5-7.7c1-2.6 1.4-17.1 2.1-3 0-8.5.3-20.1.5-27.6-.7-.1-1.5-.2-2.2-.4-.4 9.1-.9 22.1-1.4 26.2-.7 6-6 10.3-6 2.6 0-7 2-25 2.3-29.5-.5-.1-1-.1-1.5-.2-.4 7.1-2.8 21.9-3 21.1-.2-1 2.4-15.6 1.7-21.1V.9h-.4c0 1.7-.2 4.2-.5 6.9-1 6.7-2.6 17.7-4.1 23.5-1.4 5.7-4.1 5.5-4.3 2.9-.2-1.8-.7-19.8-1.1-32.2 0-.5 0-1.1-.1-1.6h-1.7v180.4zm52.5 57zm-31.8-74.9c.1 1.8.1 2.5.2 3.4 0-1.5-.1-2.9-.2-3.4zm48.6-54.3v-.3.3z"/><path fill="#281137" d="M158.3 29.9c0 4.8-6 12.9-7.7 10.5-.1-.1-.2-.3-.2-.7.1 2.8.2 2.8.2 5.5 0 4.3 1 3 0 6.2s-2.8 8-4.2 10.3c-1.4 2.3-5.9 20-4.8 28.2 1.1 8.1 1.4 9.1 1.4 10.5s-1 1-1 4.2 0 4.6-.5 6.2c-.5 1.6-3.5 7-3.5 10.2s-.5 0 .2 4.6c.6 4.6.8 2.4.8 6.1 0 3.7-.6 4.3-.6 7.3s2.2 12.9-.6 18.8c-2.9 5.9-2.7 6.9-3.2 8.1-.5 1.3-4 .2-2.2 2.9 1.8 2.7 1.8 3.4 2.2 4.6.5 1.3 1.1-.3.2 3-.5 1.7-1.5 3.9-2.2 5.8-.2 1.5.1 1.3.1 2.7v1.1c2.2.6 3 1.1 3.5.6.5-.5.2 4.1 1.4 2.5 1.3-1.6 2 3.7 2.2-2.5.2-6.2-1.9-5.3.7-8.3s2.1-1.1 2.9-4.3 3.3-.6 3-9.7c-.3-9.1 1.1-5.4 0-10.2-1.1-4.8-2.3-5.7-2-6.4.3-.6 0-1.3 0-1.3 2 2.6 2 2.8 2.7 4.1s.5.8.6 3.6c.2 2.7.6 5.3.6 5.9s.3.7.5 2.7c-.2-.8.6-1.1 1.1-2.7.5-1.6 0-2.7.3-4.3s-1.1-7.2-1.1-7.2.3-1.8.6-2.2c.3-.5.3 1.8.3 2.6s.5 1.6 1.1 2.6c.6 1 0 2.6 0 3.2 0 .6.2 2.4.2 2.4s1.6-.5 3-3.4-.3-.6 0-1.9c.3-1.3-.9-1.3-1.7-1.8-.8-.5-1.1-1.3-1.1-3s1.6-1 2.8-2.3c1.2-1.4-4.3.4-5.1-.1s-1.4.3-3.5 0 0 0-1-.5 0-2.5 0-3.1c0-.6.6 1.4 2 2.6 1.3 1.2 1 .1 1.7 0 .6-.2 2.4.2 4.8 0s1-1.3 1-1.3h-4.8c-1.4 0-1.9 0-2.2-.3-.8 0-1.3-.2-.2-.9 0 0 2.4-.4 4.4-1.3.5-.2 1-.5 1.5-.8.6-.4 1-.9 1.2-1.3 0-.1.1-.2.1-.2.4-.6.5-1.1 1-1.3.7-.2 2.1.9 2.6.4 0-.1.1-.2.2-.3v-.2c.1-1.4-.4-1.7 0-2 1.1-.8.8-1.5.7-2-.1-.1-.1-.2-.1-.2-.1-.6-.6-1.4-.9-2.4-.3-1-.5-1.6-1.4-2.3-1-.7-.8-6.2-2.5-7.9-1.7-1.8-.4-1.7 0-2.9.3-1 .1-7.3 0-8.7v-.3.3c.1 1 .3 4.3 1.5 4.7 1.4.5 0 0 0-.5s.8-2.4 1-4.5c.2-2.1.7-4.5.7-4.5s.2 3.4.1 5.3c-.2 1.9.2 1.6 0 2.9-.2 1.3.8.8 1.5 0s.2-1 .1-4c-.2-3 0-3.4 0-7.2 0-3.8.3-3.4.8-5.6.5-2.2 2.5-18.8 2.5-18.8l.2-3c.2-3 .9-2.6 1.5-4.6 0-.2.1-.3.1-.5 0-.1 0-.2.1-.3.2-1.5-.4-2.3-.7-4.1-.3-2.1 1-10.4 1.1-11.2 0 0-.2 8.8-.2 9.8s.7 1.7.7 1.7-.6 2.2-1 4.1c0 .1 0 .3-.1.4-.2 1-.3 1.9-.2 2.2.4.8-1 15.3-1 15.3s-.6 3.2-.8 5.1c-.2 1.9-.8 4.5-1.5 5.9-.7 1.4.2 2.6 0 4.3-.2 1.8-.1 4.9-.1 7.8s0 0 .9 2.6-.2 1.3 0 2.9c.2 1.6-.1 1 0 2.2.1 1.3-.9-.2-1.5-.6-.6-.5.5-4.5 0-4s-.9-.5-2.9 1.1-.8 1.6-.8 1.6-.6 1.8-1.1 3c-.5 1.3 1.3 2.1 2.1 3s.3 1.6.3 3.1 1 2.2 2.4 2.3c0 0 .9-2.6.7-3.5-.2-1 .5-.6 1.5-.3s0 1.8-.7 3.7c-.7 1.9-1 2.6-.7 2.6.3 0 1-1.1 1.6-1.9.6-.8.8 0 2.9.2s.3 1.3 1.1 2.2c.4.5 0 .8-.6 1.1l-.5.6-.8 1h.8c.5 0 1.1.1 2.1.3l.6-.1c.4-.2.8-.7.8-1.9v-.5c0-1.1.3-3 0-4s-.5-1.9-.5-2.9.3-2.1.3-2.1.3-9.8-1-11.5c-1.3-1.7 2.1-6.2 2.4-8.5s1-11.7 1.1-12.9c.2-1.3.2-2.9.3-4.5s0-1.4 0-4 1-4.5.8-6.2c-.2-1.8-.6-4.2-1.6-5.9s-.3-10.7-.3-12v-5.1c0-1.9.8-1.4.8-1.4v3.5c0 1.1 1 10.1 1 11s.6 5.4.6 5.4.6 2.1.8 4.2c.2 2.1-.5 3.8-.5 5.3s-.8 9.9-1 14.5c-.2 4.6-1 9.9-1.8 12.8-.8 2.8-.3 23-.3 24.1h.1l.7-.4.3.3c.2-.1.3 0 .8.7.6.5 1.3 1 1.7 1.3 1 .5 0 0 .9-.6s-.4-1.1-.4-1.1l-.6-.6c-.6-.6-1-.2-1.4-1.3-.5-1.2 1 0 1 0h1.5s.4-1.2 1.2-1.7c.8-.5 1.4-.8 1.4-.8l.2-1.2s.8-1.5 1-2c.2-.5-.2-1.1-.2-1.1s-.2-1.1-.8-2.9-.5-.8-1.1-1.6-.8-1.3-.8-2.9 0-1.3.6-3.5 0-2.6 0-3.5-.2-3.7-.2-4.6.2-2.9.3-4.9.2-4 .2-5.1c0-1.1 2.2-1.4 2.2-.6s-.6 6.5-.6 7.2-.2 3.4-.3 4.8c-.2 1.4-.2 2.6-.3 5.3-.2 2.7-.2 1.8-.2 3.7v1.6c0 .5 1.1 3 1.9 4.3.8 1.3.8 1.6 1.1 2.9.3 1.3-.2 2.9-.2 3.1s-.6 1.5-1.4 3.5 0 0-1.1 1.4-1 .8-1.6 2.1c-.6 1.3 0 .8.5 1.3s1 .3 2.1.3 1 .2 1 .2l2.1 1.6v2.2c0 1.3 1 .6 1 .6s1.8.3 2.8.6c1.1.3-.3.6-.9 3.8s-.8 2.1-.8 3c0 1 .6 1.9 1.4 3.4.8 1.4-.2 1-1.9.8-1.8-.2 0 0-.6-1.9s.5-1 0-1.8 0-1.1 0-2.4v-3c0-3 0 0-.2-1s0 0-1.4.8-1.1-4.9-1.1-4.9l-1.3-.3-1.4-.3c-1.4-.3-.8.5-.8.5s-.6.3-1.7.6c-1 .3-.7 1-.9 1.9-.2 1 0 0-.2.8s1.1 1.8 1.1 1.8.9.5 2.5 1.1c1.6.6 0 1.8 0 2.4v1.9c0 .8-.6 7.8-1.6 8.5s0 0-.2-1 .2-4.3.5-6.9c.3-2.6.3-1.9 0-2.4s-1-.8-1.2-1.4c-.2-.6-1.2-.3-2.3-1-1.1-.6-.8-1.1-.8-3 0-.9 0-1-.1-.7 0 0 0 1.6-1 1.6s-2.9-.6-2.9-.6-.1-.4-.3-.5l-.4.1c-.1.1-.2.3-.3.6-.7 1.6-.2 1.9-.8 2.4-.6.5-.6 1.4-1.1.8 0-.1-.1-.1-.2-.2-.3.7-.6 1.6-.8 2-.3.8-1.1 2.2-1.3 3s0 1.3 0 2.1v2.7c0 .6.3 2 .2 2.4-.2.5-.3 5.6-.3 7.2s.8 4.9 1 6.4c.2 1.4-.8 3.8-.8 3.8s-.2-.8-.6-2.9c-.5-2.1-.3-2.7-.6-3.7s-.3-2.7-.3-4.2c0-1.1.4-2.7.6-4.7.1-.6.1-1.2.2-1.8.2-3-.2-1.8-.5-2.6s-.3-2-.2-3.1c.2-1.1 1.1-3.5 1.1-3.5l1.9-4s0-.1-.1-.1h-1.5c0 .3.1.8-1.4 1.3-1.2.4-1.2 2-2.2.2-.2.7-.6.9-1 .8v7.4c0 3.5-.6 12.3-.6 12.3s-.8 2.1-.8 3.8.5 2.7.6 3.4c.2.6 0 1.6 0 3.4s-.6 1.4-1 2.7c-.3 1.3-.2 1.3 0 3.4.2 2.1 0 0 1.8 2.7s1.3 10.1 1.3 10.1-.3-1.8-.5-2.6-.8-2.4-.8-2.4-.6-2.4-1.3-3.8-.3-1.1-1.6-4.6-.6-2.1 0-4.3c.6-2.2.1-4.5 0-6.1s.2-3.7 0-4.6c-.2-1 1.3-3.4 1.6-5.1s.5-4.3.5-5.6-.2-4.6-.3-5.3c-.2-.6-.5-3.2-.5-3.2l-.6 3.5v1l.6 2.4s-.2 3.5-.3 4.6c-.2 1.1-.2 2.6-1 4.9-.9 2.3.2 1.2-.9 2.1-1.1 1-.3.8-.3 1.9s-.8 1.8-1 3.7c-.2 1.9 1 1.4 1 3.4 0 1.9-.8 3-1 4-.2 1-1.8 1-1.8.2s.8-1.8 1.3-3c.5-1.3-.3-2.7-.6-4.2s0-2.7 0-3.4.3-1.8.5-3.2c.2-1.4-.6.3-1.4 1.6-.8 1.3-.2 1.8-.2 2.9 0 1.1.2 2.7.2 3.8 0 1.1-.6 2.9-1 4.3-.3 1.4.5 1.9.6 7.2.2 5.3-.3 1.9-.6 2.6-.3.6-1-4.8-1.3-6.5-.1-.6 0-1.5.2-2.5.2-1.4.6-3 .8-4.3.1-.6.2-1.2.2-1.6v-2.1c0 1.1-1.1 1.4-1.6 4.3s-.1 2.9-1 4.3 1.3-.4-.9 1.4c-2.3 1.8-3.8 3.4-3.8 3.4s-1.3.5-1.1 1.9c.2 1.4 1.3 1.9 1.1 2.7s.2.5 0 2.2c-.2 1.8 0 4.2 0 4.2h-3s-1.4.3-2.2 0c-.8-.3-.6-.6-1.6-1-1-.3-2.3.4-2.3.4.7.7 1.5 1.7 1.5 1.7v-.6c0-.6 0 0 3.5.3 1.8.2 2 .6 2.1.9.1.3-.1.6.8.4.4-.1.8-.2 1.1-.3 1-.4 1.5-1 2.4-2.1 1.1-1.4 1-1.1 1.8-1.1s1.3 3.5 1.3 3.5l2.4-2.6 1.4-2.9c1.4-2.9 0-2.7.8-2.9.8-.2 2.1 2.2 3.5 3.8 1.4 1.6 1.9 4.5 1.8 6.2-.2 1.8.2 1.3-.2 4.3-.3 3-.8 2.2-2.6 2.4-.6.1-1.2.1-1.9 0-1.3 0-2.5-.1-2.9.1-.6.3-.2.8-.6 1.7-.1.1-.1.3-.2.4-.8 1.1-.5 1.4-1 3.5s-2.9.3-3.7.5c-.8.2-.2.6-.6 1.6-.5 1-.2.8-1.3 2.6 0 .1-.1.1-.1.1-.3.4-.5.5-.6.3-.4-.3-.5-2.3-1.2-3.8-1-2.1-1.3-1.4-1.3-1.4s-1.1 2.1-2.6 4.2c-1.4 2.1-.5 1-1.8 1.6-1.3.6-.6-.6-2.4-4.8-.1-.3-.2-.5-.3-.7-.2-.6-.4-1-.5-1.3 0 .2 0 .5-.2.8-.2.4-.3.6-.3.8 0 .4 0 .8-.5 2.3-.6 1.9-1.8 1.8-2.2 1.7v36.3c1.1-.3 7.3-1.7 9.1-3.3 1.9-1.8 1.6-2.9 1.9-3.4.3-.5 3.5-1.3 5.4-1.9 1.9-.6.8-1.3 6.2-3.7 5.4-2.4 1-.3 5.4-3.7 4.5-3.4.8-1.8 4.2-4.6 3.4-2.9 6.9-4.8 9.3-8.6 2.4-3.8 4.6-6.4 5.4-7.8.8-1.4 4.8-5.3 5.4-6.2.6-1 4.2-9.4 5.1-12.9s-.8-3.5-2.6-8.3c-1.8-4.8-1.1-6.1 0-10.4 1.1-4.3-1.4-7.3-.9-8.8.6-1.4.2-3 1-2.6.8.5 7.8 9.3 8.5 11.3.6 2.1 1.3 5.7.3 6.5-1 .8-2.1 2.4-3.5 8.3s1 8-.5 11.2c-1.4 3.2-9.6 15.2-10.9 16.1-1.3 1-10.5 13.3-12.9 17.1s-7 4.8-10.1 5.6c-3 .8-12.1 9.4-14 10.5-1.7 1-6 4.2-7.1 5-.1.1-.2.1-.2.1.1 0 .2-.1.3-.1 1.5-.7 8.2-3.5 9.3-5 1.3-1.8 9.7-4.2 9.7-4.2l-2.6 5.1c3.4-4.3 9.4-6.1 9.4-6.1s5.6-.3 6.2-1.3c.6-1 4.2-2.9 6.5-3.2 2.1-.3-.2 3-1.8 4.4 1-.7 2.5-2 4.3-3.5 3.5-3 3.7-3 6.6-3.8.4-.1.7-.2.9-.2 1.1 0-.7 1.5-1 1.7.4-.3 3.4-2.7 5.2-3.2.3-.1.6-.2 1-.3 1.6-.6 4.1-1.6 6-2.2.9-.3 1.7-.6 2-.6 1.1-.2 7-11 7.3-11.8.3-.8 7.2-15.3 9.9-16.6 2.7-1.3 1.8-7.7 1.4-9.9-.3-2.2 4.6-10.2 6.5-12.1 1.9-1.9 3.5-14.4 4.3-14.5.8-.2.6-2.7.6-4 0-1 .8-13.1 1.4-19.8 0-.5.1-1 .1-1.4.1-1.3.2-2.3.3-2.7.3-1.5.6-6.2.9-10.4.2-2.2.4-4.3.7-5.6.5-2.2 1.6-6.3 2.8-10.5.9-3.1 1.8-6.2 2.5-8.7 1.6-5.7 2.2-16.9 2.6-19.5.3-2.6-2.4-12.5-3.8-15.2-.7-1.3-2-5.1-3.3-9.1-1.5-4.5-3.1-9.2-4-11.1-.7-1.4-1.7-4.2-2.8-7.1-.6-.6-1.2-1.3-1.8-1.9.7 1.6 1.3 3.2 1.5 4.2.4 2.5 4.3 12.6 5.5 16.3.2.5.3.9.3 1.1.3 1.9 4.3 11 5.3 14.8s1 10.4 1 14c0 2.7-2 13-3.7 20.3-.6 2.8-1.3 5.1-1.7 6.4-1 3-1.8 8.2-2.3 12.4-.3 2.6-.6 4.8-.7 5.8-.1.5-.2 1.4-.3 2.5-.2 1.7-.4 4-.7 6.4-.7 6.1-1.5 13.2-1.7 14.2-.3 1.8-1.4 3.8-2.4 6.1s0 6.1-.6 9.4c-.6 3.4-3 9.4-4 10.9-1 1.4-1.1 3.4-3 5.4-1.9 2.1-.8 5.9-1 7.2-.2 1.3-1.8 3.7-3 5.4-1.3 1.8-7.7 14.5-8.6 16.1-1 1.6-5.6 9.6-7.3 9.9-1.8.3 1.1-1.8 1.8-3.7.6-1.9 2.6-6.2 4.2-8.9s6.4-9.7 9.8-15c1.3-2 .7-5 .7-8.1s2.6-3.4 3.8-4.8c1.2-1.4 1.4-6.5 2.9-9.6s1.2-9.6.7-13.4c-.5-3.8 3.1-2.9 3.8-3.8.7-1 1-6.5 1.4-12.9.1-1.3.3-2.8.6-4.4.6-3.6 1.5-8 2.2-11.8l.3-1.8c.4-2.5.7-4.7.7-6.2 0-4.2 2.7-15.7 4-21.7.2-1.1.4-2.1.6-2.7.7-4.1 2.2-13.9 2.2-18 0-3.9-3.3-10.4-5-14.5-.1-.2-.2-.4-.2-.6-1.7-4.1-3.8-12.7-4.3-16.5-.3-2.2-2.7-8.1-4.9-13-1.1-1.1-2.3-2.2-3.4-3.3 1.4 3.2 2.8 6.4 3.8 8.6 2.4 5.3 2.4 10.3 4.8 18.4 1.6 5.4 3.6 9.5 5.2 12.9.8 1.8 1.5 3.4 2 4.8 1.2 3.5.1 11.8-.8 16.7-.2 1.1-.4 2-.6 2.7-1 3.6-3.8 17.2-5.3 22.5-1 3.5-1.7 14.3-2.6 22.7-.5 4.3-1 7.9-1.7 9.6-.8 2.2-1.5 3.5-2 4.4-.8 1.2-1.4 1.7-2 2.3-.5.4-.5 1.8-.4 3.3.2 1.8.6 3.9.6 4.8 0 1.7-1.2 7.9-1.4 9.6-.2 1.7-2.9 7.4-5.5 10.1-2.6 2.6-1 6.2-1 9.1 0 2.9-5 11.3-6.7 12.7s-6.2 10.8-7.4 13.7c-1.2 2.9-6.7 6.7-7.2 5.3-.5-1.4 7.2-10.1 8.1-12.2 1-2.2 5.5-7.9 6.5-9.3 1-1.4 3.8-6 4.1-7.2.2-1.2-.7-6.5-.5-9.3.2-2.9 1.9-3.8 2.9-4.6 1-.7 2.9-3.1 3.6-5.5.7-2.4.7-8.9.5-9.8-.1-.6-.5-2.9-1.1-5.2-.4-1.6-.9-3.2-1.5-4.2-1.4-2.4-1.4-3.8-.7-4.3s8.6 1 8.6 1 .6-2.3 1.1-4.5c.3-1.2.5-2.4.6-3.1.1-.9.5-3.6.9-6.9.6-4.9 1.4-11 1.2-14.2-.2-5.3 2.6-18 5-25.4 2.4-7.4 2.4-19.4 2.2-21.1-.2-1.7-2.9-11.5-3.8-14.4-1-2.9-5.5-19.2-6.9-22.5-.7-1.7-3.1-8.1-5.4-14.2-1-.8-1.9-1.6-2.9-2.4 3.4 8.6 7.9 20.2 8.8 23.6 1.4 5.3 9.3 30.7 8.6 36.9-.7 6.2-4.3 20.1-6.5 27.1-2.2 6.9-3.1 28.7-5.7 32.8s-6.2 4.3-8.6 6 1.2 6.7 1.4 8.1c.1.6.4 1.9.7 3.3.4 2.1.7 4.3.3 4.6-.7.5-1.2 2.9-1.4 5.7-.2 2.9-1.2 6.2-3.4 7.9-.4.3-.6.8-.8 1.4-.7 2.6 0 7.4.1 9.8v.8c-.2 2.2-9.6 18.4-10.3 19.4-.6.8-10.6 12.3-14 15.5-.6.6-1 .9-1.1.8 0-.1.1-.4.4-.9.8-1.4 2.8-4.2 5.2-7.6.2-.3.4-.6.6-.8 2.1-2.9 4.5-6.2 6.8-9.3 2.5-3.5 4.9-6.7 6.6-9.1 1.3-1.8 2.2-3 2.4-3.3.4-.6.4-1.8.3-3.1-.3-2.9-1.5-6.9-2.2-8.8-1-2.9 2.4-5.7 3.8-6.9.3-.2.6-.5.8-.8.9-.9 1.5-2 1.4-3 0-.2 0-.3-.1-.5-.5-1.4-1.2-7.7-1.2-7.7s.7-2.9-1.9-5.7c-2.6-2.9-7.2-6.7-8.4-8.9-1.2-2.2 6-3.6 7.7-3.6 1.7 0 9.1-.2 10.3 0 1.2.2 2.9-5.7 3.8-7.7 1-1.9 1.7-15.8 1.7-18.4 0-2.6 3.8-19.4 5.3-21.6 1.4-2.2 2.4-18.7 2.4-22 0-3.4-2.4-8.6-3.7-13.4-1.3-4.8-7.1-25.6-9-32.1-.7-2.3-2.5-6.4-4.6-10.7-.1-.1-.1-.3-.2-.4-.8-.6-1.5-1.1-2.3-1.7.4.9.9 1.8 1.2 2.6.8 1.7 1.4 3.1 1.8 3.9 1.7 4.3 9.8 30.7 12 40.5 2.2 9.8.5 28.7 0 32.3-.5 3.6-5.7 17.7-6.2 21.8-.5 4.1-1.9 13.7-3.4 17.5-1.4 3.8-11.3 5.5-11.3 5.5s10.5-12 11.3-14.4.2-12.7 2.6-21.6 3.4-18.9 4.6-27.1c1.2-8.1-3.1-26.3-3.8-31.6-.5-3.4-7.1-19.8-12.2-32-1.2-.8-2.4-1.6-3.7-2.4 4.3 9.8 8.6 21.5 10.8 28.6 4.1 12.9 6 41 4.6 48.6-1.4 7.7-6.7 32.3-7.9 37.6-.7 2.9-3.9 5.8-6.6 7.8-.1.1-.2.2-.5.4-1.3.8-1.6 3.2-1.3.8-1.4.9-2.4 1.5-2.4 1.5s1.9-7.2 2.6-10.3c.2-.8.4-2.1.7-3.7l-.2.2c-.3.5 0 .3-.8 1.6s-1.3 1.3-1.3 2.4v4s-1.1 1.6-1-.6c0-1.7-.5-2.1-.4-3 0-.3.2-.7.4-1.1 1-1.9 2-1.9 2-3.2v-1.2c0-2.1.3-2.6 0-3-.3-.5-.2-.6-.8-1.8l-.6-1.1s1-4-.5-3.2c-1.5.8-1.5-1.6-1.5.8s-.2 3.2-.2 3.2 0 .3-.5 1.4c-.5 1.1-.6 1.3-.8 2.1-.2.8-.5 1-.5 1.8s.5.2 1.4 1.3c1 1.1 2 .8 2 1.9 0 1.1-.7 3-1.2 3.8-.5.8-1 1.3-1.3 1.9-.3.6-.6 1.4-.6 2.2v5.1l-1.6-.5s-1.6-4.2 0-6.7c1.6-2.6 2.2-2.4 2.2-4s2.4.3 0-1.6c-2.4-1.9-2.4-1.1-2.9-2.1-.6-1-.1-.6 0-2.2s-.4-1.1.4-2.9 3-4.8 1.5-4c-1.5.8-2.5 3.5-2.9 4.3-.1.2-.3.5-.5.9-.8 1.7-1.6 2.1-1.6 2.1s-.3-.8 0-1.4c.3-.6 2.6-5.1 1.9-5.1s-2.2 1-.8-.9c1.4-1.9 1.1-1 1.6-2.9s1.7-1.6.8-3c-.9-1.4-1.6-1-2.2-3.4s-1.4-3.5-1.4-4.3c0-.8-.6 1 0-2.2s.5-3.4.8-5.6c.1-.4.2-1 .3-1.7.6-2.6 1.6-6.5 1.6-7.9 0-1.8.2-.8 0-3.7-.2-2.9-.3-2.1-.3-3.8v-4c0-3.2-.2-1.3 0-4.9.2-3.7.8-4.2.2-5.4-.6-1.3-2.6-8.5-2.8-9.7-.2-1.3 0-2.9 0-2.9s1.1-.2 1.2 1c.2 1.1-2.1-2.2.3 3 2.4 5.3 1.7 5.9 2.2 6.5s-.8-1.1 0 1.4.8 2.1.8 3.8v3c0 2.1-1.2 1.8-.8 3.4s-.4 2.1 0 3.7-.2 2.4 0 4 .9 2.7 0 4.5-1.7 13.6-1.7 13.6-.3-.2.3 1.6-.5-1 .6 1.8c1.1 2.7 1.9 3.4 1.9 4.2s1.9 3.5 1.9 1.3-.2-2.4 0-4.3 1.3-1 .7-4.2c-.6-3.2.6-1.9 0-4.6-.6-2.7-.6-1.1-.6-5.4 0-4.3-.5-2.2 0-4.3.5-2.1.1-6.1.8-7.8.4-1 .7-2 .9-2.6.1-.4.2-.7.2-.7V87c0 1.9.2.3 0 3.4s-.6 3.2-.6 4.6c0 1.4-1.6-.8-.2 2.9 1.4 3.7.3 4.3.9 5.3.6 1 .4-.2 0 1.8-.4 1.9-.9 3.2-.9 3.7s-.3 0 0 2.2.3 2.6.3 4.2.1 1.9.9 1.4-.8-2.2.8-.5c1.6 1.8.6 1 1.6 1.8s1 1.9 1.8-.2c.3-.8.6-.9.7-1v-1.1c0-.6 0-1.4-.1-2.2-.5-3.1-1.1-3.6-.7-6.4.2-1 .3-1.6.3-2-.1-3 0-6.2.3-9.5.7-8.4-1.2-21.8-3.1-27.5-1.9-5.7-3.6-8.9-4.6-9.8-1-1-2.2-8.1-3.8-12.5-1.2-3.1-1.8-5.8-2.7-7.6.3 1.8-.2 5.3-.4 6.7-.2 1.7-4.3.7-5-1.2-.7-1.9-2.4-11.5-3.8-13.9s-1.5-10.1-2.9-11.3c-1.4-1.2-.2 1.4-.2 4.1s1.7 10.8 1.7 13.9 0 7.9-2.2 8.4-4.8-22.8-5.7-26.8-1.4-11-1.9-7.7c-.5 3.4 3.6 25.4 3.6 28.3s-5.3-1-5.9-3.8c-.5-2.2-.6-18.2-.3-26.8 0-1.2.1-2.2.1-3-.7-.2-1.4-.4-2.1-.5 0 .5-.1 1-.1 1.5-.5 6.3 0 19.9 0 24zm35 120.8s-4.6 1.3-4.8 3.4c-.2 2 2 7.3 3.7 8.3s5.3 3.2 5.1 3.6c-.1.4-1.4 3 0 4.6 1.4 1.6 1.7 1.3 2.2 4.3.5 3 2.9.7 0 3.7s-2.2 1.2-3.4 3.7c-1.2 2.5-2.2 5.6-1.5 7.7.8 2 2.4 5.5 1.5 7.5 0 0 0 .1-.1.1-.7 1.5-1 2.6-1.7 4.1-.2.4-.5.9-.8 1.5-1.3 2.3-16.3 20.7-17 22.3s-6.5 8.3-8.4 8.9c-1.9.6 2.8-7.1 4.2-8.4 1.4-1.3 3.4-2.9 4.3-4.1 1-1.2 2.8-4.3 3-4.8.2-.5 5.7-8.7 7.2-9.8 1.4-1.1 5.9-5.1 5.5-8.3-.4-3.1-1.4-4.8-1.7-6.4-.2-1.6-2.4-.1-.7-4.9 1.7-4.8 3.1-5.7 4.2-6.8 1.1-1.1 2.5-4 .4-7.4-2.2-3.5-5-9.6-7.5-11.7s-3.1-2.3-4.4-3.6c-1.3-1.3-4.3-2.4-2-3.8s9.6-3.8 12.7-3.7zM160 40.6c.2 1.4 0 1.1 0 2.1s1.3 4.5 1.3 4.5.6-.6 1.1-1c.5-.3 1.1-.3 2.4-.6 1.3-.3.6-.5 1.4-1.4s0 0-.3-1.1 0-.8-1.1-1.6.4-2.6 1.1-1.6c.7 1 .5.8.8 2.4.3 1.6.3 1 1.1 2.1s.2 2.1 0 4.8c-.2 2.7.3 2.2 0 3S167 55 167 55l-.2-1.4c-.2-1.4.2-3.8 0-5.2-.2-1.3-.8 0-.8 0s-1-.9-1.9-.9 0 0-.8.9-1.9 1.2-2.6 1.8c-.6.6-1.3 2.6-2.1 4.3s-.8 1.4-1 2.7c-.2 1.3-.2 1-.3 2.6s-.2 1.9-.3 2.6c-.2.6-1.1 4.3-.8 5.9.3 1.6 0 1.8 0 3.4s-.2 1.1-.2 1.9v2.2c0 1.3-.8 1.6-1.1 3.2s.5 1.1.8 2.2c.3 1.1 0 0 1 3.4s0 0-1.1.8-1.3 1.7-2.2 2.5-1.3.6-2.4 2.1c-1.2 1.4-1.1 1-1.9 2.1-.8 1.1-1 1.6-1.8 3.8s-.3.8-.2 2.1c.2 1.3.5.8 1 1.3s.2 1.6.3 2 0 1.7 0 3.4.5 3.2 1 4.6 0 4.2 0 6.7.2 1.9.5 3.3 2.1 2.4 2.1 2.4l1.8 6.9c1.8 6.9-.8 2.7-1.4 4-.6 1.3-.8.6-1.3 0s.9-1.6 1.3-2.7c.5-1.1-.2-1.3 0-2.6s-.8-2-1.3-3.7-1.1-1-1.1-1v1.8s.5 2.1.5 4.3-1.6 2.1-1.6 2.1-.5-1-.3-2.1.3-1.9-.8-16.9c-1.1-15 0-.8 0-1.8s.2-1.8-.5-7c-.6-5.3-.2-1-.8-1.7-.7-.7-.6-1-1.1-2.5-.5-1.4 0-1.6 1.1-4.5s1.6-4.6 6.6-15.5c4.9-10.9.6-4.6 1-8.1.2-2.6.8-3.8 1.4-5.7.2-.7.4-1.4.6-2.3.8-3.5 0-2.9 0-4.9 0-2.1.6-4 2.4-7.2s0-13.1 0-13.1l1.6 1.2c1.5 1-.3.5-.1 1.9zm-30.3 150c-1 0-1.4-.2-1.6-.4v1.1c.3-.2.9-.5 1.6-.7zm40.2 52.9c-.6.4-.9.7-1 .7 0 0 .1-.1.4-.2.1-.1.3-.3.6-.5z"/><path fill="#AF233A" d="M166.3 137.4l.4-.1c-.1-.2-.3-.1-.4.1zm4.4-8.4l-.3-.3-.7.4c.6.1.8 0 1-.1zm-3.2 2.7l-.6.1c.2 0 .4 0 .6-.1zm-5.4 6.4l-.1.6s1 .5.1.8c-.3.1-.3.3-.3.4h1.5c-.4-.6-.7-1.3-.7-1.3s-.4-1.1-.5-.5zm7.5-8.9c0-1-.5-21.3.3-24.1.8-2.9 1.6-8.1 1.8-12.8.2-4.6 1-13.1 1-14.5s.6-3.2.5-5.3c-.2-2.1-.8-4.2-.8-4.2s-.6-4.5-.6-5.4-1-9.9-1-11v-3.5s-.8-.5-.8 1.4v5.1c0 1.3-.6 10.2.3 12s1.4 4.2 1.6 5.9c.2 1.8-.8 3.7-.8 6.2s.2 2.4 0 4-.2 3.2-.3 4.5c-.2 1.3-.8 10.7-1.1 12.9s-3.7 6.7-2.4 8.5c1.3 1.7 1 11.5 1 11.5s-.3 1.1-.3 2.1.2 1.9.5 2.9 0 2.9 0 4v.5c1.1-2.3-.1-.9 1.1-.7zm-4.7.7h.4c.6-.3 1-.7.6-1.1-.8-1 1.1-2.1-1.1-2.2s-2.3-1-2.9-.2c-.6.8-1.4 1.9-1.6 1.9-.3 0 0-.6.7-2.6.7-1.9 1.7-3.4.7-3.7-1-.3-1.7-.6-1.5.3.2 1-.7 3.5-.7 3.5-1.5-.2-2.4-.8-2.4-2.3s.5-2.1-.3-3.1-2.6-1.8-2.1-3c.5-1.3 1.1-3 1.1-3s-1.2 0 .8-1.6 2.4-.6 2.9-1.1c.5-.5-.6 3.5 0 4s1.6 1.9 1.5.6c-.1-1.3.2-.6 0-2.2s.9-.3 0-2.9-.9.3-.9-2.6-.1-6.1.1-7.8c.2-1.8-.7-2.9 0-4.3s1.3-4 1.5-5.9c.2-1.9.8-5.1.8-5.1s1.3-14.5 1-15.3c-.1-.3 0-1.2.2-2.2-.5 2-1.3 1.6-1.5 4.6l-.2 3s-2 16.6-2.5 18.8c-.5 2.2-.8 1.8-.8 5.6s-.2 4.2 0 7.2.7 3.2-.1 4-1.7 1.3-1.5 0c.2-1.3-.2-1 0-2.9s-.1-5.3-.1-5.3-.6 2.4-.7 4.5c-.2 2.1-1 4-1 4.5s1.4 1 0 .5c-1.2-.4-1.5-3.7-1.5-4.7.1 1.4.3 7.7 0 8.7-.4 1.1-1.7 1.1 0 2.9 1.7 1.8 1.6 7.2 2.5 7.9 1 .7 1.1 1.3 1.4 2.3.3 1 .8 1.8.9 2.4 0 .1.1.2.1.2 1.8-1.2 3.7-2.3 3.7-2.3h2.5zm8.7 2.4l-.5 2-.5.7s-.4-1.1-1.1 0c-.7 1.1-.6 1.6-.6 1.6.1-.2.1-.2.1.7 0 1.9-.3 2.4.8 3 1.1.6 2.1.3 2.3 1 .2.6.9 1 1.2 1.4.3.5.3-.2 0 2.4s-.6 5.9-.5 6.9c.2 1-.8 1.6.2 1s1.6-7.7 1.6-8.5v-1.9c0-.6 1.6-1.8 0-2.4-1.6-.6-2.5-1.1-2.5-1.1s-1.2-1-1.1-1.8c.2-.8 0 .2.2-.8s-.1-1.6.9-1.9c1-.3 1.7-.6 1.7-.6s-.6-.8.8-.5l1.4.3 1.3.3s-.3 5.7 1.1 4.9c1.4-.8 1.3-1.8 1.4-.8s.2-2.1.2 1v3c0 1.2-.5 1.6 0 2.4.5.8-.6-.2 0 1.8.6 1.9-1.1 1.8.6 1.9 1.8.2 2.7.6 1.9-.8-.8-1.4-1.4-2.4-1.4-3.4s.2.2.8-3 2-3.5.9-3.8c-1.1-.3-2.8-.6-2.8-.6s-1 .6-1-.6v-2.2l-2.1-1.6s.2-.2-1-.2c-1.1 0-1.6.2-2.1-.3s-1.1 0-.5-1.3c.6-1.3.5-.6 1.6-2.1 1.1-1.4.3.5 1.1-1.4s1.4-3.2 1.4-3.5.5-1.8.2-3.1-.3-1.6-1.1-2.9c-.8-1.3-1.9-3.8-1.9-4.3v-1.6c0-1.9 0-1 .2-3.7s.2-3.8.3-5.3c.2-1.4.3-4.2.3-4.8s.6-6.4.6-7.2-2.2-.5-2.2.6 0 3-.2 5.1-.3 4-.3 4.9.2 3.7.2 4.6.6 1.3 0 3.5-.6 1.9-.6 3.5.2 2.1.8 2.9.5-.2 1.1 1.6.8 2.9.8 2.9.3.6.2 1.1c-.2.5-1 2-1 2l-.2 1.2s-.6.3-1.4.8c-.8.5-1.2 1.7-1.2 1.7h-1.5s-1.4-1.2-1 0c.5 1.2.8.7 1.4 1.3l.6.6s1.3.5.4 1.1c-.9.6.1 1.1-.9.6-.5-.2-1.2-.8-1.7-1.3v.1c1.3 1.8 2.3 2.9 2.3 2.9zm-9.5-70.5c0-1 .2-9.8.2-9.8-.2.8-1.4 9.1-1.1 11.2.3 1.8.9 2.5.7 4.1 0 .1 0 .2-.1.3.4-1.9 1-4.1 1-4.1s-.7-.7-.7-1.7zm-10.3 46v-.3.3z"/><path fill="#AF233A" d="M163.8 67.5c0 .2-.1.3-.1.5.1-.2.1-.4.1-.5zM149 166.7v2.1c0 .5-.1 1-.2 1.6-.2 1.3-.6 2.9-.8 4.3-.2 1-.3 1.9-.2 2.5.3 1.8 1 7.2 1.3 6.5.3-.6.8 2.7.6-2.6-.2-5.3-1-5.7-.6-7.2.3-1.4 1-3.2 1-4.3 0-1.1-.2-2.7-.2-3.8 0-1.1-.6-1.6.2-2.9.8-1.3 1.6-3 1.4-1.6-.2 1.4-.5 2.6-.5 3.2s-.3 1.9 0 3.4 1.1 2.9.6 4.2c-.5 1.3-1.3 2.2-1.3 3s1.6.8 1.8-.2c.2-1 1-2.1 1-4s-1.1-1.4-1-3.4c.2-1.9 1-2.6 1-3.7s-.8-1 .3-1.9c1.1-1 .1.2.9-2.1.9-2.3.9-3.8 1-4.9.2-1.1.3-4.6.3-4.6l-.6-2.4v-1l.6-3.5s.3 2.6.5 3.2c.2.6.3 4 .3 5.3s-.2 3.8-.5 5.6-1.9 4.2-1.6 5.1c.2 1-.1 3 0 4.6s.6 3.8 0 6.1c-.6 2.2-1.3.8 0 4.3s1 3.2 1.6 4.6 1.3 3.8 1.3 3.8.6 1.6.8 2.4c.2.8.5 2.6.5 2.6s.5-7.3-1.3-10.1c-1.8-2.7-1.6-.6-1.8-2.7-.2-2.1-.3-2.1 0-3.4.3-1.3 1-1 1-2.7s.2-2.7 0-3.4c-.2-.6-.6-1.6-.6-3.4s.8-3.8.8-3.8.6-8.8.6-12.3v-7.4c-.5-.1-1.1-.8-1.1-.8s-1.9-.4-2.3 0c-.4.4-1 .5-1 .5s-.8-.4-1.8 0-2 0-2 0-1.1.2-1.9.2c.3.3.8.3 2.2.3h4.8s1.4 1.1-1 1.3c-2.4.2-4.2-.2-4.8 0-.6.2-.3 1.2-1.7 0-1.3-1.2-2-3.2-2-2.6 0 .6-1 2.6 0 3.1s-1.1.2 1 .5 2.7-.5 3.5 0 6.3-1.3 5.1.1c-1.2 1.4-2.8.6-2.8 2.3s.3 2.6 1.1 3c.8.5 2 .5 1.7 1.8-.3 1.3 1.4-1 0 1.9s-3 3.4-3 3.4-.2-1.8-.2-2.4c0-.6.6-2.2 0-3.2s-1.1-1.8-1.1-2.6 0-3-.3-2.6c-.3.5-.6 2.2-.6 2.2s1.4 5.6 1.1 7.2.2 2.7-.3 4.3c-.5 1.6-1.3 1.9-1.1 2.7.1.5.1 1.9.2 3.4.1.6.1.8.1.9zm12.4-22.6s-1 2.4-1.1 3.5c-.2 1.1-.2 2.3.2 3.1.3.8.6-.4.5 2.6 0 .6-.1 1.3-.2 1.8-.2 2.1-.6 3.6-.6 4.7 0 1.4 0 3.2.3 4.2s.2 1.6.6 3.7c.5 2.1.6 2.9.6 2.9s1-2.4.8-3.8c-.2-1.4-1-4.8-1-6.4s.2-6.7.3-7.2c.2-.5-.2-1.8-.2-2.4v-2.7c0-.8-.2-1.3 0-2.1s1-2.2 1.3-3c.2-.4.5-1.3.8-2-.2-.2-.4-.6-.5-.9l-1.8 4zm-7.3-6.2c.1-.1.1-.2.1-.2s-.1.1-.1.2zm3.7-1.2c.1-.1.1-.2.2-.3-.1.1-.1.2-.2.3zm39.2.2c1-4.5.8-1.3.8-1.3l1-1.9c1-1.9.3-1 1.1-1.8s.8-2.1 1.1-3.2c.3-1.1 0 0 .3-3.2s.5-1.9 0-5.1c-.5-3.2 0-.6-.4-3.4-.5-2.7 0 0-1 .8s-.8 1.8-1 2.6-.2 2.6-1.1 2.4 2.1-8 1.9-8.5c-.2-.5-.3-1-.8-2.1s-.3-1.3-1.1-2.9c-.2-.4-.3-.7-.3-.9v-.3c.1-.4.3-.5.3-1 0-.8.3-1.4 1.8-5.3 1.4-3.8 0-2.2 0-3.7s0-1.4.2-3 1-1.3 1.3-2.6c.4-1.3.3-2.6 0-5.1-.3-2.6.2-1.8 0-4.6s0-1.8 0-4.8-1.1-7.2-1.1-8v4c-.1 2.1.2 5.3-.1 7.3-.3 2.1.3 1.3 0 4.6-.3 3.4-.2 2.9-.2 6.1s-.3 1.1-.8 2.9-.6 3-1 5.9c-.2 2-.3 2.4-.5 3.4-.1.5-.2 1.1-.3 2-.4 2.8.2 3.3.7 6.4 0 .3.1.5.1.8.3 2.4.2 2.4-.1 2.5-.2.1-.4.2-.7 1-.8 2.1-.8 1-1.8.2s0 0-1.6-1.8 0 0-.8.5-.9.2-.9-1.4 0-1.9-.3-4.2c-.3-2.2 0-1.8 0-2.2 0-.5.5-1.8.9-3.7.4-1.9.6-.8 0-1.8s.6-1.6-.9-5.3c-1.4-3.7.2-1.4.2-2.9 0-1.4.5-1.6.6-4.6s0-1.4 0-3.4v-7.5s-.1.3-.2.7c-.2.6-.5 1.6-.9 2.6-.7 1.8-.3 5.7-.8 7.8-.5 2.1 0 0 0 4.3s0 2.7.6 5.4-.6 1.4 0 4.6c.6 3.2-.6 2.2-.7 4.2-.2 1.9 0 2.1 0 4.3 0 2.2-1.9-.5-1.9-1.3s-.8-1.4-1.9-4.2c-1.1-2.7 0 0-.6-1.8s-.3-1.6-.3-1.6.8-11.8 1.7-13.6.2-2.9 0-4.5.4-2.4 0-4 .4-2.1 0-3.7.8-1.3.8-3.4v-3c0-1.7 0-1.3-.8-3.8s.5-.8 0-1.4.2-1.3-2.2-6.5c-2.4-5.3-.2-1.9-.3-3-.2-1.1-1.2-1-1.2-1s-.2 1.6 0 2.9c.2 1.3 2.2 8.5 2.8 9.7.6 1.3 0 1.8-.2 5.4-.2 3.7 0 1.8 0 4.9v4c0 1.8.2 1 .3 3.8.2 2.9 0 1.9 0 3.7 0 1.4-1 5.3-1.6 7.9-.1.7-.3 1.2-.3 1.7-.3 2.2-.2 2.4-.8 5.6-.6 3.2 0 1.4 0 2.2 0 .8.8 1.9 1.4 4.3s1.3 1.9 2.2 3.4c.9 1.4-.3 1.1-.8 3s-.2 1-1.6 2.9c-1.4 1.9.2.9.8.9s-1.6 4.5-1.9 5.1c-.3.6 0 1.4 0 1.4s.8-.5 1.6-2.1c.2-.4.4-.7.5-.9.4-.7 1.4-3.5 2.9-4.3 1.5-.8-.7 2.2-1.5 4s-.3 1.3-.4 2.9c-.1 1.6-.6 1.3 0 2.2.6 1 .5.2 2.9 2.1 2.4 1.9 0 0 0 1.6s-.6 1.4-2.2 4 0 6.7 0 6.7l1.6.5v-5.1c0-.8.3-1.6.6-2.2.3-.6.8-1.1 1.3-1.9.5-.8 1.2-2.7 1.2-3.8 0-1.1-1.1-.8-2-1.9-1-1.1-1.4-.5-1.4-1.3s.3-1 .5-1.8.3-1 .8-2.1.5-1.4.5-1.4.2-.8.2-3.2 0 0 1.5-.8.5 3.2.5 3.2l.6 1.1c.6 1.1.5 1.3.8 1.8.3.5 0 1 0 3v1.2c0 1.3-1 1.3-2 3.2-.3.5-.4.8-.4 1.1-.1.9.5 1.3.4 3-.1 2.2 1 .6 1 .6v-4c0-1.1.5-1.1 1.3-2.4.8-1.3.5-1.1.8-1.6 0-.1.1-.1.2-.2.3-.4.8-.9 1.8-2.5 1.1-1.9 0-1.6.5-2.7s.8 1.1.8 1.1-.3 1.6-.8 4.5-.5 1-1.6 2.2c-1.1 1.3 0 0-1.1 1.8s0 2.6 0 3.5-.2 2.2-.5 4.6c-.3 2.3 0 0 1.3-.8.2-.1.4-.3.5-.4.1.1-.6-.6.2-4.3z"/><path fill="#E76BA7" d="M164.8 130.5l.5-.6h-.4c0 .3-.1.6-.1.6zm-15.6 11.4s1.1.4 2 0c1-.4 1.8 0 1.8 0s.6-.1 1-.5 2.3 0 2.3 0 .5.7 1.1.8c.4.1.7-.1 1-.8 1 1.9.9.2 2.2-.2 1.5-.5 1.4-.9 1.4-1.3 0-.2 0-.3.3-.4.8-.4-.1-.8-.1-.8l.1-.6c.1-.6.5.6.5.6s.3.6.7 1.3c0 0 0 .1.1.1.2.3.4.7.5.9.1.1.1.2.2.2.5.6.5-.4 1.1-.8.6-.5.1-.8.8-2.4.1-.3.2-.5.3-.6.2-.2.3-.2.4-.1.2.1.3.5.3.5s1.8.6 2.9.6 1-1.6 1-1.6-.1-.5.6-1.6 1.1 0 1.1 0l.5-.7.5-2s-1-1.1-2.1-2.5v-.1c-.5-.7-.7-.8-.8-.7-.2.1-.4.2-1 .2h-.1c-1.2-.2 0-1.6-1.3.7 0 1.2-.4 1.7-.8 1.9-.2.1-.4.1-.6.1-1-.2-1.6-.3-2.1-.3 0 0 1.1 1.1 2.3 1 1.2-.1.5-.1 1.5 0s1.3-.1 2 0 .4.6 0 1.7-1.4.7-2 .6c-.6-.2-1.4-.6-1.4-.6s-1.3 1.4-2.5 1.7-2.1-.4-2.1-.4-.4.1-1.3.4 0 1 0 1.4c0 .4-.8 1.6-.8.9s0 0-1.5-.7-.3.6-.6 1.6c-.2 1-.2 1.1-.5 1.7-.3.6 0 0-1.3-.9s-.7-.4-1.4 0c-.6.4-1 .1-2.1 0s-1.9 0-2 0c-2 .9-4.4 1.3-4.4 1.3-1.1.7-.5.9.2.9 1-.3 2.1-.5 2.1-.5z"/><path fill="#CFCAD7" d="M153.4 139.9c1.1.1 1.4.4 2.1 0 .6-.4.1-.9 1.4 0 1.3.9 1 1.4 1.3.9.3-.6.2-.7.5-1.7.2-1-1-2.3.6-1.6s1.5 0 1.5.7.8-.5.8-.9-.9-1.1 0-1.4 1.3-.4 1.3-.4.9.7 2.1.4 2.5-1.7 2.5-1.7.7.4 1.4.6c.6.2 1.6.6 2-.6.4-1.1.7-1.6 0-1.7s-1 .1-2 0-.3-.1-1.5 0-2.3-1-2.3-1c-.4 0-.6-.1-.8 0l.8-1s0-.2.1-.6h-2.5s-1.9 1.1-3.7 2.3c0 .6.4 1.2-.7 2-.4.3.1.6 0 2v.2c0 .1-.1.2-.2.3-.5.5-1.9-.6-2.6-.4-.5.1-.6.6-1 1.3 0 .1-.1.2-.1.2-.3.4-.6.8-1.2 1.3-.4.3-.9.6-1.5.8-.3 0 .6-.1 1.7 0z"/><path fill="#3C2F81" d="M134.8 176.7c1-3.4.3-1.8-.2-3-.5-1.3-.5-1.9-2.2-4.6-1.8-2.7 1.8-1.6 2.2-2.9.5-1.3.3-2.2 3.2-8.1 2.9-5.9.6-15.8.6-18.8s.6-3.7.6-7.3c0-3.7-.2-1.4-.8-6.1-.6-4.6-.2-1.4-.2-4.6s3-8.6 3.5-10.2c.5-1.6.5-3 .5-6.2s1-2.7 1-4.2-.3-2.4-1.4-10.5c-1.1-8.1 3.4-25.9 4.8-28.2 1.4-2.3 3.2-7.1 4.2-10.3 1-3.2 0-1.9 0-6.2 0-2.6 0-2.7-.2-5.5-.1-1.8-.3-4.7-.5-10.2-.7-14-1.1.5-2.1 3-1 2.6-1.6 5.1-1.5 7.7s-.8 3.5-.8 6.2-.5 4.3-1.2 5.7-.2 1.8-1.6 1.1c-1.4-.6-2.3 0-2.3 0s-2.1-.6-3.4-4.2c-1.3-3.5 0-1 0-2.4s1.4-6.4 1.8-8.5c.3-2.1 0-1.6 0-2.7s-.5-1.8-1-1.8-1.3 3-2.2 6.7c-.9 3.7-.5 4.3 0 7.2.5 2.9-.5 2.6 0 7.6.5 5.1-.8 3.5-.8 5.5 0 1.9.2 2.9.6 3.7.5.8 0 0 .2-1.4s1.1-2.7 1.1-6.1 1.3-.5 3.5-.6c2.2-.2 1.4 4.3 2.1 6.9.3 1.3.4 2 .4 2.9 0 .9-.7 10.1-1.8 16.9-1.1 6.9-.2 7.7-.2 14s-.5 6.4-4.3 14.2c-.5 1.1-.9 1.9-1.2 2.4.2 1.9.4 4.2.7 7.3.6 6.9.2 4 0 21.1-.2 17.2 0 4.4 0 10.5s-.5 4.2-3.3 11.3.5 7.2 0 11.5.5 2.6 0 5.9c-.1.4-.1.7-.1.9v.1c.7-1.8 1.8-4.1 2.3-5.7z"/><path fill="#3C2F81" d="M135.3 113.8c0-.2 0-.4-.1-.5-.4 1.4-.7 2.1.1.5zm1.1-5.6c-.2-3.2-.3-1.3 0-2.6s-.6-2.4-1-4.4c-.3-2-.3-2.3-.3-3.9s.5-5.1.5-5.1v-7.3c0-4.3-1.1-12.8-1.1-11.5 0 .7-.2 2.4-.3 5.9-.1 2.6-.2 6.1-.2 11 0 11.5-.2 8.1-.3 10.9s.8 3.9 1.1 6.9c.2 1.5.3 3 .5 5.1.5-1.5 1.1-3.7 1.1-5zm-8.3 82c.2.2.7.4 1.6.4 1.8 0 1.9-.7 1.9-.7l.9.7s1.3-.7 2.3-.4c1 .3.8.6 1.6 1 .8.3 2.2 0 2.2 0h3s-.2-2.4 0-4.2c.2-1.8-.2-1.4 0-2.2s-1-1.3-1.1-2.7c-.2-1.4 1.1-1.9 1.1-1.9s1.6-1.6 3.8-3.4c2.3-1.8 0 0 .9-1.4s.5-1.4 1-4.3 1.6-3.2 1.6-4.3v-.4c0-.9 0-1.6-.2-3.4-.1-2.1-.5-2.1-.5-2.7s-.5-3.2-.6-5.9c-.2-2.7 0-2.2-.6-3.6s-.6-1.6-2.7-4.1c0 0 .3.6 0 1.3-.3.6.9 1.6 2 6.4 1.1 4.8-.3 1.1 0 10.2s-2.2 6.5-3 9.7-.3 1.3-2.9 4.3-.5 2.1-.7 8.3c-.2 6.2-.9 1-2.2 2.5-1.3 1.6-1-3-1.4-2.5-.5.5-1.3 0-3.5-.6v1c-.2 4.3-.6 1.1-1.6.5-.8-.5-2.5-1.3-3-1.5v3.9z"/><path fill="#3C2F81" d="M132.7 185.1c-.1-1.4-.3-1.2-.1-2.7-.7 1.9-.9 3.4.2 3.8-.1-.4-.1-.8-.1-1.1zm25.7-147.7s1.8 10 0 13.1-2.4 5.1-2.4 7.2c0 2.1.8 1.4 0 4.9-.2.9-.4 1.6-.6 2.3-.6 1.9-1.2 3.1-1.4 5.7-.3 3.5 4-2.7-1 8.1-4.9 10.9-5.5 12.6-6.6 15.5-1.1 2.9-1.6 3-1.1 4.5.5 1.4.4 1.7 1.1 2.5.7.7.2-3.6.8 1.7.6 5.3.5 6.1.5 7 0 1-1.1-13.3 0 1.8 1.1 15 1 15.8.8 16.9s.3 2.1.3 2.1 1.6.2 1.6-2.1-.5-4.3-.5-4.3v-1.8s.5-.7 1.1 1 1.5 2.4 1.3 3.7c-.2 1.3.5 1.5 0 2.6s-1.9 2.1-1.3 2.7.7 1.3 1.3 0c.6-1.3 3.2 2.9 1.4-4l-1.8-6.9s-1.8-1-2.1-2.4c-.3-1.4-.5-.8-.5-3.3s.5-5.3 0-6.7-1-2.9-1-4.6.2-3 0-3.4.2-1.5-.3-2-.8 0-1-1.3c-.2-1.3-.6.2.2-2.1s1-2.7 1.8-3.8c.8-1.1.7-.6 1.9-2.1 1.2-1.4 1.5-1.3 2.4-2.1s1.1-1.7 2.2-2.5 2.1 2.5 1.1-.8-.6-2.2-1-3.4c-.3-1.1-1.1-.6-.8-2.2s1.1-1.9 1.1-3.2v-2.2c0-.8.2-.3.2-1.9s.3-1.8 0-3.4c-.3-1.6.6-5.3.8-5.9.2-.6.2-1 .3-2.6s.2-1.3.3-2.6c.2-1.3.2-1 1-2.7s1.4-3.7 2.1-4.3c.6-.6 1.8-.9 2.6-1.8s-.2-.9.8-.9 1.9.9 1.9.9.6-1.3.8 0c.2 1.3-.2 3.7 0 5.2l.3 1.5s.4-2.1.8-2.9-.2-.3 0-3 .8-3.7 0-4.8c-.8-1.1-.8-.5-1.1-2.1-.3-1.6-.1-1.4-.8-2.4-.7-1-2.1.8-1.1 1.6s.7.5 1.1 1.6c.3 1.1 1.1.2.3 1.1s-.1 1.1-1.4 1.4c-1.3.3-2 .3-2.4.6-.5.3-1.1 1-1.1 1s-1.3-3.5-1.3-4.5.2-.6 0-2.1c-.2-1.4 1.6-.9 0-2.1l-1.6-1z"/><path fill="#470022" d="M126.2 0c-.9 0-1.8 0-2.7.1.9.8 1.8 1.3 2.6 1.5 0-.5 0-1.1.1-1.6zM67.7 21.8s0 2.9 2.6 7.4c2.6 4.6 1.7-1.2 5-6 3.4-4.8 2.2-1.2 6.4-6.5 4.3-5.3 5.8-9.1 7-8.6 1.2.5 2.1.2 5 0 1-.1 1.4-.4 1.9-1 0-1.2-.1-2.2-.1-3-9.4 2.5-18.5 6.1-27.1 10.6.6.4 1.5.7 2.7 1.4 3.1 1.6-3.4 5.7-3.4 5.7zM34.9 143.1c.5 4.3 1 7.9 1.7 9.6.8 2.2 1.5 3.5 2 4.4-.3-1.5-.4-2.6-.5-4.4-.3-1.2-.5-2.4-.6-3.1-.1-.9-.5-3.6-.9-6.9-.4-.1-1 .1-1.7.4zm25 54.5c.7 1.5 1 2.6 1.7 4.1 0-.2 0-.4-.1-.7-.4-2.4-.9-3.3-1.6-3.4zm-4.6.4c-.7-.1-1.2-1-1.5-2.3v.8c.2 2.2 9.6 18.4 10.3 19.4.6.8 10.6 12.3 14 15.5.3 0 .5-.1.7-.1-.8-1.4-2.8-4.2-5.2-7.6-.7-.5-.7-.6-.6-.8-2.1-2.9-4.5-6.2-6.8-9.3l-2.8-2.8c-4.6-4.7-4.7-5.6-3.8-6.2-1.3-1.8-2.2-3-2.4-3.3-.4-.6-.4-1.8-.3-3.1-.5-.1-1-.1-1.6-.2zm-25.6-68.8c.3 2.6.6 4.8.7 5.8.1.5.2 1.4.3 2.5.2-.8.3-1.7.4-2.7.1-1.2.1-2.1.1-2.8l-.3-1.8c-.3-.6-.7-.8-1.2-1zm-1.2-69.1c-.2.5-.3.9-.3 1.1-.3 1.9-4.3 11-5.3 14.8s-1 10.4-1 14c0 2.7 2 13 3.7 20.3.2-.9.3-4 .5-8-.2-1.1-.4-2.1-.6-2.7-.7-4.1-2.2-13.9-2.2-18 0-3.9 3.3-10.4 5-14.5.1-.4.2-.7.2-1 1.3-4.3.8-5.7 0-6zm23 116.4c-1.2-2.4 0-1.4-.5-6.7-.4-4-.5-2.9-2.3-3.4-.4 2.1-.7 4.3-.3 4.6.7.5 1.2 2.9 1.4 5.7.2 2.9 1.2 6.2 3.4 7.9.4.3.6.8.8 1.4.2-1.7.4-3.3.6-4.5-.9-.9-1.5-2-1.4-3-.7-.5-1.3-1.1-1.7-2zm-20.1-32.6c.7 6.1 1.5 13.2 1.7 14.2.3 1.8 1.4 3.8 2.4 6.1s0 6.1.6 9.4c.6 3.4 3 9.4 4 10.9 1 1.4 1.1 3.4 3 5.4 1.9 2.1.8 5.9 1 7.2.2 1.3 1.8 3.7 3 5.4 1.3 1.8 7.7 14.5 8.6 16.1 1 1.6 5.6 9.6 7.3 9.9 1.8.3-1.1-1.8-1.8-3.7-.6-1.9-2.6-6.2-4.2-8.9s-6.4-9.7-9.8-15c-1.3-2-.7-5-.7-8.1s-2.6-3.4-3.8-4.8c-1.2-1.4-1.4-6.5-2.9-9.6-1.4-3.1-1.2-9.6-.7-13.4.5-3.8-3.1-2.9-3.8-3.8-.7-1-1-6.5-1.4-12.9-.1-1.3-.3-2.8-.6-4.4-.5.1-1.2.2-1.9 0z"/><path fill="#470022" d="M41.1 162.8c-.2 1.8-.6 3.9-.6 4.8 0 1.7 1.2 7.9 1.4 9.6.2 1.7 2.9 7.4 5.5 10.1 2.6 2.6 1 6.2 1 9.1 0 2.9 5 11.3 6.7 12.7s6.2 10.8 7.4 13.7c1.2 2.9 6.7 6.7 7.2 5.3.5-1.4-7.2-10.1-8.1-12.2-1-2.2-5.5-7.9-6.5-9.3-1-1.4-3.8-6-4.1-7.2-.2-1.2.7-6.5.5-9.3-.2-2.9-1.9-3.8-2.9-4.6-1-.7-2.9-3.1-3.6-5.5s-.7-8.9-.5-9.8c.1-.6.5-2.9 1.1-5.2-3.5-2.5-1.7-1-4.5-2.2zM25.6 78.5c-1.2 3.5-.1 11.8.8 16.7.3-7.1.6-15.4 1.2-21.5-.8 1.8-1.5 3.4-2 4.8zm77.3-76c-1.7.3-3.4.7-5.1 1.1 0 .5.1 1 .1 1.5 1.1-.8 2.6-1.7 5-2.6zM51 25.8c-.1.1-.2.2-.3.2 0 .1.1.1.1.2.1-.2.1-.3.2-.4zm2.9-2.2c-.2.1-.4.3-.6.5-.4.9-.9 1.8-1.2 2.6.5-.3 1-1.5 1.8-3.1z"/><path fill="#470022" d="M128.1 251.7s-2.6 1.2-5.1 1.9c.1.1.2.1.2.1s.1 0 0 0-.2-.1-.3-.1c-1.8.5-3.5.8-4.2.1-1.7-1.5-2.6-.4-3.8-2.3-1.2-1.9-1.9-.5-3.6-1.4s-2.6 1.2-6 0-2.6-2.9-2.6-2.9-3.1 1.2-5.3 0c-2.2-1.2-3.6-1-10.3-2.9-6.7-1.9-5.5 0-7.4-3.4-1.9-3.3-1.9-1-5.4-4.9-1.1 0 .7 1.5 1 1.7-.4-.3-3.4-2.7-5.2-3.2-.3-.1-.6-.2-1-.3-.6.1-1.2.2-2.1-.1-1.8-.5-3.1-1.4-3.8-2.2-.9-.3-1.7-.6-2-.6-1.1-.2-7-11-7.3-11.8-.3-.8-7.2-15.3-9.9-16.6-2.7-1.3-1.8-7.7-1.4-9.9.3-2.2-4.6-10.2-6.5-12.1-1.9-1.9-3.5-14.4-4.3-14.5-.8-.2-.6-2.7-.6-4 0-1-.8-13.1-1.4-19.8-.3-.4-.3-.9-.1-1.4-.1-1.3-.2-2.3-.3-2.7-.3-1.5-.6-6.2-.9-10.4-1.7-1.5-2.4-2.5-2.6-4.8-.2-2.4.2-2.9 0-4s-1.7-1.7-2.4-3.4c-.5-1.2.6-2.6 1.5-3.8-.9-3.1-1.8-6.2-2.5-8.7-1.6-5.7-2.2-16.9-2.6-19.5-.3-2.6 2.4-12.5 3.8-15.2.7-1.3 2-5.1 3.3-9.1.1-1.3.5-4.6 1.8-12.3-2.8 3.4-4.9 6.2-6 8-6.3 10.2-7.7 15.9-12.8 26.7-5 10.8-4.3 39 0 68s9.3 20.6 17 31.6c5.9 8.5 11.1 29.7 14.1 40.4 10.6 9.8 22.9 17.9 36.3 23.6 8.8 2.2 10 1.5 12.9 4.8 11.9 3.7 24.6 5.6 37.7 5.6h.1v-4.2z"/><path fill="#6F071B" d="M45 96.5c1.4 7.7 6.7 32.3 7.9 37.6.7 2.9 3.9 5.8 6.6 7.8-.4-.6.3-1.4-.5-5-1-4.5-.8-1.3-.8-1.3l-1-1.9c-1-1.9-.3-1-1.1-1.8s-.8-2.1-1.1-3.2c-.3-1.1 0 0-.3-3.2s-.5-1.9 0-5.1c.5-3.2 0-.6.4-3.4.5-2.7 0 0 1 .8s.8 1.8 1 2.6.2 2.6 1.1 2.4-2.1-8-1.9-8.5c.2-.5.3-1 .8-2.1s.3-1.3 1.1-2.9c.2-.4.3-.7.3-.9v-.3c-.1-.4-.3-.5-.3-1 0-.8-.3-1.4-1.8-5.3-1.4-3.8 0-2.2 0-3.7s0-1.4-.2-3-1-1.3-1.3-2.6c-.4-1.3-.3-2.6 0-5.1.3-2.6-.2-1.8 0-4.6.2-2.9 0-1.8 0-4.8s1.1-7.2 1.1-8v4c.1 2.1-.2 5.3.1 7.3.3 2.1-.3 1.3 0 4.6s.2 2.9.2 6.1.3 1.1.8 2.9c.5 1.8.6 3 1 5.9.2 2 .3 2.4.5 3.4.1-3 0-6.2-.3-9.5-.7-8.4 1.2-21.8 3.1-27.5 1.9-5.7 3.6-8.9 4.6-9.8 1-1 2.2-8.1 3.8-12.5 1.2-3.1 1.8-5.8 2.7-7.6.1-.5.2-.8.4-1 .3-.2.6-.5 1-.7-.5.4-1 1-1.3 1.7-.3 1.8.2 5.3.4 6.7.2 1.7 4.3.7 5-1.2.7-1.9 2.4-11.5 3.8-13.9s1.5-10.1 2.9-11.3c1.4-1.2.2 1.4.2 4.1s-1.7 10.8-1.7 13.9 0 7.9 2.2 8.4 4.8-22.8 5.7-26.8 1.4-11 1.9-7.7c.5 3.4-3.6 25.4-3.6 28.3s5.3-1 5.9-3.8c.5-2.2.6-18.2.3-26.8-.5.5-1 .9-1.9 1-2.9.2-3.8.5-5 0-1.2-.5-2.7 3.4-7 8.6-4.3 5.3-3.1 1.7-6.4 6.5-3.4 4.8-2.4 10.5-5 6-2.6-4.6-2.6-7.4-2.6-7.4s6.5-4.1 3.4-5.7c-1.2-.6-2.1-1-2.7-1.4-2.8 1.5-5.5 3-8.1 4.6C56 29.2 51.7 40.9 49.5 48c-4 12.8-5.9 40.8-4.5 48.5zm68.7 152.2c-1.3-1.8-9.7-4.2-9.7-4.2l2.6 5.1c-3.4-4.3-9.4-6.1-9.4-6.1s-5.6-.3-6.2-1.3c-.6-1-4.2-2.9-6.5-3.2-2.1-.3.2 3 1.8 4.4.6.4.9.7 1 .7 6.7 1.9 8.1 1.7 10.3 2.9 2.2 1.2 5.3 0 5.3 0s-.7 1.7 2.6 2.9c3.4 1.2 4.3-1 6 0s2.4-.5 3.6 1.4c1.2 1.9 2.2.8 3.8 2.3.7.6 2.4.4 4.2-.1-1.6-.5-8.3-3.3-9.4-4.8zm-50.3-38l2.8 2.8c-2.5-3.5-4.9-6.7-6.6-9.1-.8.7-.8 1.6 3.8 6.3zm51.8-180.3c0-7-2-25-2.3-29.5-1.7.2-3.4.4-5 .7.4 9.1.9 22.1 1.4 26.2.6 6 5.9 10.3 5.9 2.6zm-17.5-.5c0 4.8 6 12.9 7.7 10.5.1-.1.2-.3.2-.7.1-1.8.3-4.7.5-10.2 0-8.5-.3-20.1-.5-27.6-.9.2-1.8.3-2.6.5-2.5 1-4 1.9-5 2.7.2 7.1-.3 20.7-.3 24.8zM28.5 60.1c.8.3 1.4 1.7.3 6-.1.3-.2.7-.2 1 .1-.2.2-.4.2-.6 1.7-4.1 3.8-12.7 4.3-16.5.3-2.2 2.7-8.1 4.9-13-.9.8-1.7 1.7-2.5 2.6-.7 1.6-1.3 3.2-1.5 4.2-.5 2.5-4.4 12.6-5.5 16.3z"/><path fill="#6F071B" d="M52 26.7c-.8 1.7-1.4 3.1-1.8 3.9-1.7 4.3-9.8 30.7-12 40.5-2.2 9.8-.5 28.7 0 32.3.5 3.6 5.7 17.7 6.2 21.8s1.9 13.7 3.4 17.5c1.4 3.8 11.3 5.5 11.3 5.5s-10.5-12-11.3-14.4-.2-12.7-2.6-21.6-3.4-18.9-4.6-27.1c-1.2-8.1 3.1-26.3 3.8-31.6.5-3.4 7.1-19.8 12.2-32-.9.6-1.9 1.3-2.8 1.9-.7 1.8-1.2 3-1.8 3.3zm21.6 197.1c-.2-.3-.4-.6-.6-.8 0 .2-.1.2.6.8zM67 234.2c.9.2 1.5.2 2.1.1-1.6-.6-4.1-1.6-6-2.2.8.7 2.2 1.7 3.9 2.1zm12.2-1.9c0-.1-.1-.4-.4-.9-.2 0-.4.1-.7.1.7.6 1.1.9 1.1.8zm-49.6-89.7c0-.5-.1-1-.1-1.4-.2.6-.2 1 .1 1.4z"/><path fill="#6F071B" d="M58.1 125.4c-.5-1.1-.8 1.1-.8 1.1s.3 1.6.8 4.5.5 1 1.6 2.2c1.1 1.3 0 0 1.1 1.8s0 2.6 0 3.5.2 2.2.5 4.6c1.4.9 2.4 1.5 2.4 1.5s-1.9-7.2-2.6-10.3c-.2-.8-.4-2.1-.7-3.7-.3-.4-.8-.9-1.8-2.5-1.2-1.9-.1-1.6-.5-2.7zm62.6-94.5c1.4 5.7 4.1 5.5 4.3 2.9.2-1.8.7-19.8 1.1-32.2-.8-.3-1.7-.7-2.6-1.5-2.5.1-5 .2-7.4.5 0 1.7.2 4.2.5 6.9 1 6.6 2.6 17.6 4.1 23.4zm-62.4 85.2V115c0-.6 0-1.4.1-2.2 0 .3-.1.5-.1.8-.4 2.3-.3 2.3 0 2.5zm-30.9.7c1 3 1.8 8.2 2.3 12.4.5.3.9.5 1.2 1-.4-2.5-.7-4.7-.7-6.2 0-4.2-2.7-15.7-4-21.7-.2 4.1-.3 7.1-.5 8 .6 2.8 1.2 5.2 1.7 6.5zm58.7 126.7c-1-.7-2.5-2-4.3-3.5-3.5-3-3.7-3-6.6-3.8-.4-.1-.7-.2-.9-.2 3.4 3.8 3.5 1.6 5.4 4.9 1.9 3.3.7 1.5 7.4 3.4 0 0-.1-.1-.4-.2-.1-.2-.3-.4-.6-.6zm1.6-9.3c1.9.6-2.8-7.1-4.2-8.4-1.4-1.3-3.4-2.9-4.3-4.1-1-1.2-2.8-4.3-3-4.8-.2-.5-5.7-8.7-7.2-9.8-1.4-1.1-5.9-5.1-5.5-8.3.4-3.1 1.4-4.8 1.7-6.4s2.4-.1.7-4.9-3.1-5.7-4.2-6.8c-1.1-1.1-2.5-4-.4-7.4 2.2-3.5 5-9.6 7.5-11.7 2.5-2.2 3.1-2.3 4.4-3.6 1.3-1.3 4.3-2.4 2-3.8s-9.6-3.6-12.7-3.5c0 0 4.6 1.3 4.8 3.4.2 2-2 7.3-3.7 8.3s-5.3 3.2-5.1 3.6c.1.4 1.4 3 0 4.6-1.4 1.6-1.7 1.3-2.2 4.3-.5 3-2.9.7 0 3.7s2.2 1.2 3.4 3.7c1.2 2.5 2.2 5.6 1.5 7.7-.8 2-2.4 5.5-1.5 7.5 0 0 0 .1.1.1.7.2 1.2 1 1.6 3.4 0 .3.1.5.1.7.2.4.5.9.8 1.5 1.3 2.3 16.3 20.7 17 22.3.8 1.4 6.5 8.1 8.4 8.7zm-63-122.1c-.9 1.3-2 2.6-1.5 3.8.7 1.7 2.2 2.3 2.4 3.4.2 1.1-.2 1.6 0 4 .2 2.3.9 3.3 2.6 4.8-.2-2.2-.4-4.3-.7-5.6-.4-2.2-1.6-6.3-2.8-10.4zm2.1-52.4c1.5-4.5 3.1-9.2 4-11.1.7-1.4 1.7-4.2 2.8-7.1-1.7 1.9-3.3 3.8-4.9 5.7v.1c-1.4 7.7-1.8 11.1-1.9 12.4zm90.5-37.9c.2-1-2.4-15.6-1.7-21.1V.6c-.5 0-.9.1-1.4.1.5 7.1 2.9 22 3.1 21.1zm-86.2 113c-.1 1.1-.2 1.9-.4 2.7.2 1.7.4 4 .7 6.4.7.2 1.4.1 2-.1-.6-3.6-1.5-8-2.2-11.8 0 .7 0 1.6-.1 2.8zm9.6 24.7c.5.4.5 1.8.4 3.3h.1c2.7 1.1.9-.3 4.5 2 .4-1.6.9-3.2 1.5-4.2 1.4-2.4 1.4-3.8.7-4.3s-8.6 1-8.6 1-.6-2.3-1.1-4.5c.1 1.9.2 2.9.5 4.4.7 1.3 1.3 1.7 2 2.3zm-7.9-98.7c-1.6 5.4-3.6 9.5-5.2 12.9-.6 6.2-.9 14.4-1.2 21.5.2 1.1.4 2 .6 2.7 1 3.6 3.8 17.2 5.3 22.5 1 3.5 1.7 14.3 2.6 22.7.7-.3 1.2-.5 1.7-.4-.6-4.9-1.4-11-1.2-14.2.2-5.3-2.6-18-5-25.4-2.4-7.3-2.4-19.3-2.2-21 .2-1.7 2.9-11.5 3.8-14.4 1-2.9 5.5-19.2 6.9-22.5.7-1.7 3.1-8.1 5.4-14.2-1 .9-2.1 1.8-3.1 2.8-1.4 3.2-2.8 6.4-3.8 8.6-2.2 5.2-2.2 10.3-4.6 18.4z"/><path fill="#6F071B" d="M53.8 195.8c.3 1.3.7 2.2 1.5 2.3.6.1 1.1 0 1.6 0 .3-2.9 1.5-6.9 2.2-8.8 1-2.9-2.4-5.7-3.8-6.9-.3-.2-.6-.5-.8-.8-.2 1.2-.4 2.8-.6 4.5.8 2.5 0 7.3-.1 9.7zM29.9 89.1c.7 6.2 4.3 20.1 6.5 27.1 2.2 6.9 3.1 28.7 5.7 32.8s6.2 4.3 8.6 6-1.2 6.7-1.4 8.1c-.1.6-.4 1.9-.7 3.3 1.9.5 2-.6 2.3 3.4.5 5.3-.7 4.3.5 6.7.4.9 1 1.5 1.6 2 0-.2 0-.3.1-.5.5-1.4 1.2-7.7 1.2-7.7s-.7-2.9 1.9-5.7c2.6-2.9 7.2-6.7 8.4-8.9 1.2-2.2-6-3.6-7.7-3.6-1.7 0-9.1-.2-10.3 0-1.2.2-2.9-5.7-3.8-7.7-1-1.9-1.7-15.8-1.7-18.4 0-2.6-3.8-19.4-5.3-21.6-1.4-2.2-2.4-18.7-2.4-22 0-3.4 2.4-8.6 3.7-13.4 1.3-4.8 7.1-25.6 9-32.1.7-2.3 2.5-6.4 4.6-10.7 0-.1-.1-.1-.1-.2-1.1.9-2.2 1.7-3.3 2.6-3.4 8.6-7.9 20.2-8.8 23.6-1.4 5.3-9.3 30.7-8.6 36.9zm84.8 123.5l-.6-.3c.3.3.5.4.6.3zm4.1 32.2c-1.9-1.8-1.6-2.9-1.9-3.4-.3-.5-3.5-1.3-5.4-1.9-1.9-.6-.8-1.3-6.2-3.7-5.4-2.4-1-.3-5.4-3.7-4.5-3.4-.8-1.8-4.2-4.6-3.4-2.9-6.9-4.8-9.3-8.6-2.4-3.8-4.6-6.4-5.4-7.8-.8-1.4-4.8-5.3-5.4-6.2-.6-1-4.2-9.4-5.1-12.9-1-3.5.8-3.5 2.6-8.3 1.8-4.8 1.1-6.1 0-10.4-1.1-4.3 1.4-7.3.9-8.8-.6-1.4-.2-3-1-2.6-.8.5-7.8 9.3-8.5 11.3-.6 2.1-1.3 5.7-.3 6.5 1 .8 2.1 2.4 3.5 8.3s-1 8 .5 11.2c1.4 3.2 9.6 15.2 10.9 16.1 1.3 1 10.5 13.3 12.9 17.1s7 4.8 10.1 5.6c3 .8 12.1 9.4 14 10.5 1.7 1 6 4.2 7.1 5 2.5-.7 5.1-1.9 5.1-1.9v-3.5c-.2.1-7.5-1.5-9.5-3.3z"/><path fill="#A03974" d="M124.9 192.5c.5.3 1 .6 2.1-.3 1.1-.9 1.1 2.8 1.1 2.8v-3.7l-1.8-.8c-1.8 0-1.9-.7-1.9-.7l-.9.7c-.7.7-1.5 1.7-1.5 1.7 1.6.6 2.3 0 2.9.3zm-15.3 13.4c-1.1-1-1.8-1.8-2.3-2.4.1.1.1.3.2.4.8 1.1.5 1.4 1 3.5s2.9.3 3.7.5c.8.2.2.6.6 1.6.5 1 .2.8 1.3 2.6 0 .1.1.1.1.1l.6.3c.4-.3.5-2.3 1.2-3.8 1-2.1 1.3-1.4 1.3-1.4s1.1 2.1 2.6 4.2c1.4 2.1.5 1 1.8 1.6 1.3.6.6-.6 2.4-4.8.1-.3.2-.5.3-.7-4-1.2-5.9-1.3-8-1.3-2.4-.1-4.7 1.6-6.8-.4z"/><path fill="#A03974" d="M122 192.3v-.6c0-.6 0 0-3.5.3-1.8.2-2 .6-2.1.9.5.1.9.2 1.8.3 2.1.2 2.2-1.4 3.8-.9zm-20.1 4.9c0-.8-3.7-1.6 0-2.9 3.7-1.3 4.6-.8 7.2-1.1l-2.4-2.6-1.4-2.9c-1.4-2.9 0-2.7-.8-2.9-.8-.2-2.1 2.2-3.5 3.8-1.4 1.6-1.9 4.5-1.8 6.2.2 1.8-.2 1.3.2 4.3.3 3 .8 2.2 2.6 2.4.6.1 1.2.1 1.9 0-.1-.2-.2-.4-.3-.7-.9-2.3-1.7-2.8-1.7-3.6z"/><path fill="#A03974" d="M112.9 193.3c.6-.1 1.2-.2 1.6-.3-1-.4-1.5-1-2.4-2.1-1.1-1.4-1-1.1-1.8-1.1s-1.3 3.5-1.3 3.5c2.7-.4.1.8 3.9 0zm15.2 15.5c-.4-.2-1.2-.4-2.9-1 0 .4 0 .8.5 2.3.8 2.4 2.4 1.6 2.4 1.6v-2.9z"/><path fill="#A5879D" d="M128.1 208.8v.1s.7.2 0-.1z"/><path fill="#A5879D" d="M128.1 208.8V195s0-3.7-1.1-2.8c-1.1.9-1.6.6-2.1.3s-1.2.3-2.8-.2c-1.6-.5-1.8 1.1-3.8.9-.9-.1-1.3-.3-1.8-.3-.1.3.1.6-.8.4-.4-.1-.8-.2-1.1-.3-.4.1-.9.2-1.6.3-3.8.8-1.3-.3-3.8 0-2.6.3-3.5-.2-7.2 1.1s0 2.1 0 2.9.8 1.3 1.6 3.8c.1.3.2.5.3.7 1.3 0 2.5-.1 2.9.1.6.3.2.8.6 1.7.5.6 1.2 1.3 2.3 2.4 2.1 2 4.4.3 6.7.3 2.1 0 4 .1 8 1.3.2-.6.4-1 .5-1.3 0-.6.3-.9 0 0 0 .2 0 .5.2.8.2.4.3.6.3.8 1.5.5 2.3.7 2.7.9z"/><path fill="#281137" d="M124.7 206.2c.3-.9 0-.6 0 0zm-1.4 47.5s0 .1 0 0c0 .1 0 .1 0 0zM74 35.7c-.3.2-.7.5-1 .7-.2.1-.3.5-.4 1 .4-.7.8-1.3 1.4-1.7z"/><path fill="#180026" d="M75.4 237.8zM26.8 59.7c-1.4 4-2.6 7.8-3.3 9.1-1.4 2.7-4.2 12.6-3.8 15.2.3 2.6 1 13.7 2.6 19.5.7 2.4 1.6 5.6 2.5 8.7 1.2 4.2 2.3 8.3 2.8 10.5.3 1.3.5 3.4.7 5.6.4 4.2.6 8.9.9 10.4.1.4.2 1.4.3 2.7 0 .4.1.9.1 1.4.6 6.7 1.4 18.8 1.4 19.8 0 1.3-.2 3.8.6 4 .8.2 2.4 12.6 4.3 14.5 1.9 1.9 6.9 9.9 6.5 12.1-.3 2.2-1.3 8.6 1.4 9.9 2.7 1.3 9.6 15.8 9.9 16.6.3.8 6.2 11.7 7.3 11.8.3 0 1.1.3 2 .6 1.8.7 4.3 1.7 6 2.2.4.1.7.2 1 .3 1.8.4 4.9 2.9 5.2 3.2-.3-.2-2.1-1.7-1-1.7.2 0 .5 0 .9.2 2.9.8 3.2.8 6.6 3.8 1.7 1.5 3.3 2.8 4.3 3.5-1.6-1.5-3.9-4.7-1.8-4.4 2.4.3 5.9 2.2 6.5 3.2.6 1 6.2 1.3 6.2 1.3s6.1 1.8 9.4 6.1l-2.6-5.1s8.5 2.4 9.7 4.2c1.1 1.5 7.7 4.3 9.3 5 .1.1.2.1.3.1 0 0-.1-.1-.2-.1-1.1-.7-5.3-3.9-7.1-5-1.9-1.1-11-9.7-14-10.5-3-.8-7.7-1.8-10.1-5.6s-11.7-16.1-12.9-17.1c-1.3-1-9.4-12.9-10.9-16.1-1.4-3.2 1-5.3-.5-11.2s-2.6-7.5-3.5-8.3c-1-.8-.3-4.5.3-6.5.6-2.1 7.7-10.9 8.5-11.3.8-.5.5 1.1 1 2.6.6 1.4-2 4.5-.9 8.8 1.1 4.3 1.8 5.6 0 10.4-1.8 4.8-3.5 4.8-2.6 8.3 1 3.5 4.5 12 5.1 12.9.6 1 4.6 4.8 5.4 6.2.8 1.4 3 4 5.4 7.8 2.4 3.8 5.9 5.7 9.3 8.6 3.4 2.9-.3 1.3 4.2 4.6 4.5 3.4 0 1.3 5.4 3.7 5.4 2.4 4.3 3 6.2 3.7 1.9.6 5.1 1.4 5.4 1.9.3.5 0 1.6 1.9 3.4 1.9 1.8 9.3 3.4 9.3 3.4v-36.4s-1.6.8-2.4-1.6c-.5-1.5-.4-2-.5-2.3 0-.2-.1-.4-.3-.8-.1-.3-.2-.5-.2-.8-.1.3-.2.7-.5 1.3-.1.2-.2.5-.3.7-1.8 4.2-1.1 5.4-2.4 4.8-1.3-.6-.3.5-1.8-1.6-1.4-2.1-2.6-4.2-2.6-4.2s-.3-.6-1.3 1.4c-.7 1.5-.8 3.5-1.2 3.8-.1.1-.3 0-.6-.3l-.1-.1c-1.1-1.8-.8-1.6-1.3-2.6s.2-1.4-.6-1.6c-.8-.2-3.2 1.6-3.7-.5s-.2-2.4-1-3.5c-.1-.2-.2-.3-.2-.4-.4-.9 0-1.4-.6-1.7-.4-.2-1.7-.1-2.9-.1h-1.9c-1.8-.2-2.2.6-2.6-2.4-.3-3 0-2.6-.2-4.3-.2-1.8.3-4.6 1.8-6.2 1.4-1.6 2.7-4 3.5-3.8.8.2-.6 0 .8 2.9l1.4 2.9 2.4 2.6s.5-3.5 1.3-3.5.6-.3 1.8 1.1c.8 1.1 1.4 1.7 2.4 2.1.3.1.7.2 1.1.3.9.2.7-.1.8-.4.1-.3.3-.7 2.1-.9 3.5-.3 3.5-1 3.5-.3v.6s.8-1 1.5-1.7c0 0-1.3-.7-2.3-.4-1 .3-.8.6-1.6 1-.8.3-2.2 0-2.2 0h-3s.2-2.4 0-4.2c-.2-1.8.2-1.4 0-2.2-.2-.8 1-1.3 1.1-2.7.2-1.4-1.1-1.9-1.1-1.9s-1.6-1.6-3.8-3.4c-2.3-1.8 0 0-.9-1.4s-.5-1.4-1-4.3-1.6-3.2-1.6-4.3v2.1c0 .5.1 1 .2 1.6.2 1.3.6 2.9.8 4.3.2 1 .3 1.9.2 2.5-.3 1.8-1 7.2-1.3 6.5-.3-.6-.8 2.7-.6-2.6.2-5.3 1-5.7.6-7.2-.3-1.4-1-3.2-1-4.3 0-1.1.2-2.7.2-3.8 0-1.1.6-1.6-.2-2.9-.8-1.3-1.6-3-1.4-1.6.2 1.4.5 2.6.5 3.2s.3 1.9 0 3.4c-.3 1.4-1.1 2.9-.6 4.2.5 1.3 1.3 2.2 1.3 3s-1.6.8-1.8-.2c-.2-1-1-2.1-1-4s1.1-1.4 1-3.4c-.2-1.9-1-2.6-1-3.7s.8-1-.3-1.9c-1.1-1-.1.2-.9-2.1-.9-2.3-.9-3.8-1-4.9-.2-1.1-.3-4.6-.3-4.6l.6-2.4v-1l-.6-3.5s-.3 2.6-.5 3.2c-.2.6-.3 4-.3 5.3s.2 3.8.5 5.6 1.9 4.2 1.6 5.1c-.2 1 .1 3 0 4.6s-.6 3.8 0 6.1c.6 2.2 1.3.8 0 4.3s-1 3.2-1.6 4.6-1.3 3.8-1.3 3.8-.6 1.6-.8 2.4c-.2.8-.5 2.6-.5 2.6s-.5-7.3 1.3-10.1c1.8-2.7 1.6-.6 1.8-2.7.2-2.1.3-2.1 0-3.4-.3-1.3-1-1-1-2.7s-.2-2.7 0-3.4c.2-.6.6-1.6.6-3.4s-.8-3.8-.8-3.8-.6-8.8-.6-12.3v-7.4c-.4.1-.7-.1-1-.8-1 1.9-.9.2-2.2-.2-1.5-.5-1.4-.9-1.4-1.3h-1.5s0 .1-.1.1l1.9 4s1 2.4 1.1 3.5c.2 1.1.2 2.3-.2 3.1-.3.8-.6-.4-.5 2.6 0 .6.1 1.3.2 1.8.2 2.1.6 3.6.6 4.7 0 1.4 0 3.2-.3 4.2s-.2 1.6-.6 3.7c-.5 2.1-.6 2.9-.6 2.9s-1-2.4-.8-3.8c.2-1.4 1-4.8 1-6.4s-.2-6.7-.3-7.2c-.2-.5.2-1.8.2-2.4v-2.7c0-.8.2-1.3 0-2.1s-1-2.2-1.3-3c-.2-.4-.5-1.3-.8-2-.1.1-.1.2-.2.2-.5.6-.5-.4-1.1-.8-.6-.5-.1-.8-.8-2.4-.1-.3-.2-.5-.3-.6l-.4-.1c-.2.1-.3.5-.3.5s-1.8.6-2.9.6c-1.1 0-1-1.6-1-1.6-.1-.2-.1-.2-.1.7 0 1.9.3 2.4-.8 3-1.1.6-2.1.3-2.3 1-.2.6-.9 1-1.2 1.4-.3.5-.3-.2 0 2.4s.6 5.9.5 6.9c-.2 1 .8 1.6-.2 1-1-.6-1.6-7.7-1.6-8.5v-1.9c0-.6-1.6-1.8 0-2.4 1.6-.6 2.5-1.1 2.5-1.1s1.2-1 1.1-1.8 0 .2-.2-.8.1-1.6-.9-1.9c-1-.3-1.7-.6-1.7-.6s.6-.8-.8-.5l-1.4.3-1.3.3s.3 5.7-1.1 4.9c-1.4-.8-1.3-1.8-1.4-.8s-.2-2.1-.2 1v3c0 1.2.5 1.6 0 2.4-.5.8.6-.2 0 1.8-.6 1.9 1.1 1.8-.6 1.9-1.8.2-2.7.6-1.9-.8.8-1.4 1.4-2.4 1.4-3.4s-.2.2-.8-3c-.6-3.2-2-3.5-.9-3.8 1.1-.3 2.8-.6 2.8-.6s1 .6 1-.6v-2.2l2.1-1.6s-.2-.2 1-.2c1.1 0 1.6.2 2.1-.3s1.1 0 .5-1.3c-.6-1.3-.5-.6-1.6-2.1-1.1-1.4-.3.5-1.1-1.4s-1.4-3.2-1.4-3.5-.5-1.8-.2-3.1.3-1.6 1.1-2.9c.8-1.3 1.9-3.8 1.9-4.3v-1.6c0-1.9 0-1-.2-3.7s-.2-3.8-.3-5.3c-.2-1.4-.3-4.2-.3-4.8s-.6-6.4-.6-7.2 2.2-.5 2.2.6 0 3 .2 5.1c.2 2.1.3 4 .3 4.9s-.2 3.7-.2 4.6-.6 1.3 0 3.5.6 1.9.6 3.5-.2 2.1-.8 2.9c-.6.8-.5-.2-1.1 1.6s-.8 2.9-.8 2.9-.3.6-.2 1.1c.2.5 1 2 1 2l.2 1.2s.6.3 1.4.8c.8.5 1.2 1.7 1.2 1.7h1.5s1.4-1.2 1 0c-.5 1.2-.8.7-1.4 1.3l-.6.6s-1.3.5-.4 1.1-.1 1.1.9.6c.5-.2 1.2-.8 1.7-1.3.5-.7.7-.8.8-.7l.3-.3.7.4h.1c0-1 .5-21.3-.3-24.1-.8-2.9-1.6-8.1-1.8-12.8-.2-4.6-1-13.1-1-14.5s-.6-3.2-.5-5.3c.2-2.1.8-4.2.8-4.2s.6-4.5.6-5.4 1-9.9 1-11v-3.5s.8-.5.8 1.4v5.1c0 1.3.6 10.2-.3 12-1 1.8-1.4 4.2-1.6 5.9.1 2 1.1 3.9 1.1 6.5s-.2 2.4 0 4 .2 3.2.3 4.5c.2 1.3.8 10.7 1.1 12.9.3 2.2 3.7 6.7 2.4 8.5-1.3 1.7-1 11.5-1 11.5s.3 1.1.3 2.1-.2 1.9-.5 2.9 0 2.9 0 4v.5c0 1.2.4 1.7.8 1.9l.6.1c1-.2 1.6-.3 2.1-.3.4 0 .6-.1.8 0l-.8-1-.5-.6c-.6-.3-1-.7-.6-1.1.8-1-1.1-2.1 1.1-2.2 2.1-.2 2.3-1 2.9-.2s1.4 1.9 1.6 1.9c.3 0 0-.6-.7-2.6-.7-1.9-1.7-3.4-.7-3.7 1-.3 1.7-.6 1.5.3s.7 3.5.7 3.5c1.5-.2 2.4-.8 2.4-2.3s-.5-2.1.3-3.1 2.6-1.8 2.1-3c-.5-1.3-1.1-3-1.1-3s1.2 0-.8-1.6-2.4-.6-2.9-1.1c-.5-.5.6 3.5 0 4s-1.6 1.9-1.5.6c.1-1.3-.2-.6 0-2.2s-.9-.3 0-2.9.9.3.9-2.6.1-6.1-.1-7.8c-.2-1.8.7-2.9 0-4.3s-1.3-4-1.5-5.9c-.2-1.9-.8-5.1-.8-5.1s-1.3-14.5-1-15.3c.1-.3 0-1.2-.2-2.2 0-.2-.1-.3-.1-.4-.4-1.9-1-4.1-1-4.1s.7-.6.7-1.7-.1-10-.1-10c.2.8 1.4 9.1 1.1 11.2-.3 1.8-.9 2.5-.7 4.1 0 .1 0 .2.1.3 0 .2.1.3.1.5.5 2 1.3 1.6 1.5 4.6l.2 3s2 16.6 2.5 18.8c.5 2.2.8 1.8.8 5.6s.2 4.2 0 7.2-.7 3.2.1 4c.7.8 1.7 1.3 1.5 0-.2-1.3.2-1 0-2.9s.1-5.3.1-5.3.6 2.4.7 4.5c.2 2.1 1 4 1 4.5s-1.4 1 0 .5c1.2-.4 1.5-3.7 1.5-4.7v-.3.3c-.1 1.4-.3 7.7 0 8.7.4 1.1 1.7 1.1 0 2.9-1.7 1.8-1.6 7.2-2.5 7.9-1 .7-1.1 1.3-1.4 2.3-.3 1-.8 1.8-.9 2.4 0 .1-.1.2-.1.2 0 .6-.4 1.2.7 2 .4.3-.1.6 0 2v.2c.1.1.1.2.2.3.5.5 1.9-.6 2.6-.4.5.1.6.6 1 1.3.1.1.1.2.1.2.3.4.6.8 1.2 1.3.4.3.9.6 1.5.8 2 .9 4.4 1.3 4.4 1.3 1.1.7.5.9-.2.9-.3.3-.8.3-2.2.3h-4.8s-1.4 1.1 1 1.3c2.4.2 4.2-.2 4.8 0 .6.2.3 1.2 1.7 0 1.3-1.2 2-3.2 2-2.6 0 .6 1 2.6 0 3.1s1.1.2-1 .5-2.7-.5-3.5 0-6.3-1.3-5.1.1c1.2 1.4 2.8.6 2.8 2.3s-.3 2.6-1.1 3c-.8.5-2 .5-1.7 1.8.3 1.3-1.4-1 0 1.9s3 3.4 3 3.4.2-1.8.2-2.4c0-.6-.6-2.2 0-3.2s1.1-1.8 1.1-2.6 0-3 .3-2.6c.3.5.6 2.2.6 2.2s-1.4 5.6-1.1 7.2c.3 1.6-.2 2.7.3 4.3.5 1.6 1.3 1.9 1.1 2.7.1-2.1.5-2.1.5-2.7s.5-3.2.6-5.9c.2-2.7 0-2.2.6-3.6s.6-1.6 2.7-4.1c0 0-.3.6 0 1.3.3.6-.9 1.6-2 6.4s.3 1.1 0 10.2 2.2 6.5 3 9.7.3 1.3 2.9 4.3.5 2.1.7 8.3c.2 6.2.9 1 2.2 2.5 1.3 1.6 1-3 1.4-2.5.5.5 1.3 0 3.5-.6v-1.1c.1-1.4.3-1.2.1-2.7-.7-1.9-1.7-4.1-2.2-5.8-1-3.4-.3-1.8.2-3 .5-1.3.5-1.9 2.2-4.6 1.8-2.7-1.8-1.6-2.2-2.9-.5-1.3-.3-2.2-3.2-8.1-2.9-5.9-.6-15.8-.6-18.8s-.6-3.7-.6-7.3c0-3.7.2-1.4.8-6.1.6-4.6.2-1.4.2-4.6s-3-8.6-3.5-10.2-.5-3-.5-6.2-1-2.7-1-4.2.3-2.4 1.4-10.5-3.4-25.9-4.8-28.2c-1.4-2.3-3.2-7.1-4.2-10.3s0-1.9 0-6.2c0-2.6 0-2.7.2-5.5-.1.3-.1.5-.2.7-1.7 2.4-7.7-5.7-7.7-10.5 0-4.1.5-17.7.2-24.8 0-.6-.1-1.1-.1-1.5-.7.2-1.4.3-2.1.5 0 .8.1 1.9.1 3 .2 8.7.2 24.6-.3 26.8-.6 2.9-5.9 6.7-5.9 3.8S93.7 13 93.2 9.6c-.5-3.4-1 3.6-1.9 7.7s-3.6 27.3-5.7 26.8c-2.2-.5-2.2-5.3-2.2-8.4S85 24.4 85 21.8s1.2-5.3-.2-4.1c-1.4 1.2-1.5 8.9-2.9 11.3s-3.1 12-3.8 13.9c-.7 1.9-4.8 2.9-5 1.2-.2-1.3-.7-4.9-.4-6.7-.9 1.8-1.5 4.4-2.7 7.6-1.7 4.4-2.9 11.6-3.8 12.5-1 1-2.6 4.1-4.6 9.8-1.9 5.7-3.8 19.2-3.1 27.5.3 3.3.3 6.6.3 9.5.1.5.2 1.1.3 2 .4 2.8-.2 3.3-.7 6.4 0 .8-.1 1.6-.1 2.2v1.1c.2.1.4.2.7 1 .8 2.1.8 1 1.8.2s0 0 1.6-1.8 0 0 .8.5.9.2.9-1.4 0-1.9.3-4.2 0-1.8 0-2.2c0-.5-.5-1.8-.9-3.7-.4-1.9-.6-.8 0-1.8s-.6-1.6.9-5.3c1.4-3.7-.2-1.4-.2-2.9 0-1.4-.5-1.6-.6-4.6s0-1.4 0-3.4v-7.5s.1.3.2.7c.2.6.5 1.6.9 2.6.7 1.8.3 5.7.8 7.8.5 2.1 0 0 0 4.3s0 2.7-.6 5.4.6 1.4 0 4.6c-.6 3.2.6 2.2.7 4.2.2 1.9 0 2.1 0 4.3 0 2.2 1.9-.5 1.9-1.3s.8-1.4 1.9-4.2c1.1-2.7 0 0 .6-1.8s.3-1.6.3-1.6-.8-11.8-1.7-13.6-.2-2.9 0-4.5-.4-2.4 0-4-.4-2.1 0-3.7-.6-.8-.6-2.8v-3c0-1.7 0-1.3.8-3.8s-.5-.8 0-1.4-.2-1.3 2.2-6.5c2.4-5.3.2-1.9.3-3 .2-1.1 1.2-1 1.2-1s.2 1.6 0 2.9c-.2 1.3-2.2 8.5-2.8 9.7-.6 1.3 0 1.8.2 5.4.2 3.7 0 1.8 0 4.9v4c0 1.8-.2 1-.3 3.8-.2 2.9 0 1.9 0 3.7 0 1.4 1 5.3 1.6 7.9.1.7.3 1.2.3 1.7.3 2.2.2 2.4.8 5.6.6 3.2 0 1.4 0 2.2 0 .8-.8 1.9-1.4 4.3s-1.3 1.9-2.2 3.4c-.9 1.4.3 1.1.8 3s.2 1 1.6 2.9c1.4 1.9-.2.9-.8.9s1.6 4.5 1.9 5.1c.3.6 0 1.4 0 1.4s-.8-.5-1.6-2.1c-.2-.4-.4-.7-.5-.9-.4-.7-1.4-3.5-2.9-4.3-1.5-.8.7 2.2 1.5 4s.3 1.3.4 2.9.6 1.3 0 2.2-.5.2-2.9 2.1c-2.4 1.9 0 0 0 1.6s.6 1.4 2.2 4 0 6.7 0 6.7l-1.6.5V141c0-.8-.3-1.6-.6-2.2-.3-.6-.8-1.1-1.3-1.9-.5-.8-1.2-2.7-1.2-3.8 0-1.1 1.1-.8 2-1.9 1-1.1 1.4-.5 1.4-1.3s-.3-1-.5-1.8-.3-1-.8-2.1-.5-1.4-.5-1.4-.2-.8-.2-3.2 0 0-1.5-.8-.5 3.2-.5 3.2l-.6 1.1c-.6 1.1-.5 1.3-.8 1.8-.3.5 0 1 0 3v1.2c0 1.3 1 1.3 2 3.2.3.5.4.8.4 1.1.1.9-.5 1.3-.4 3 .1 2.2-1 .6-1 .6v-4c0-1.1-.5-1.1-1.3-2.4-.8-1.3-.5-1.1-.8-1.6 0-.1-.1-.1-.2-.2.3 1.6.6 3 .7 3.7.7 3.1 2.6 10.3 2.6 10.3s-1-.6-2.4-1.5c.3 2.3 0 0-1.3-.8-.2-.1-.4-.3-.5-.4-2.7-2-6-4.9-6.6-7.8-1.2-5.3-6.5-29.9-7.9-37.6-1.4-7.7.5-35.7 4.6-48.6 2.2-7.1 6.5-18.8 10.8-28.6-1.2.8-2.5 1.6-3.7 2.4-5.1 12.2-11.7 28.6-12.2 32-.7 5.3-5 23.5-3.8 31.6 1.2 8.1 2.2 18.2 4.6 27.1s1.9 19.2 2.6 21.6 11.3 14.4 11.3 14.4-9.8-1.7-11.3-5.5c-1.4-3.8-2.9-13.4-3.4-17.5s-5.7-18.2-6.2-21.8c-.5-3.6-2.2-22.5 0-32.3 2.2-9.8 10.3-36.2 12-40.5.3-.9 1-2.3 1.8-3.9.4-.8.8-1.7 1.2-2.6-.8.6-1.5 1.1-2.3 1.7-.1.1-.1.3-.2.4-2.1 4.4-3.9 8.5-4.6 10.7-1.9 6.5-7.7 27.3-9 32.1-1.3 4.8-3.7 10.1-3.7 13.4 0 3.4 1 19.9 2.4 22 1.4 2.2 5.3 18.9 5.3 21.6 0 2.6.7 16.5 1.7 18.4 1 1.9 2.6 7.9 3.8 7.7 1.2-.2 8.6 0 10.3 0 1.7 0 8.9 1.4 7.7 3.6-1.2 2.2-5.7 6-8.4 8.9-2.6 2.9-1.9 5.7-1.9 5.7s-.7 6.2-1.2 7.7c-.1.2-.1.3-.1.5-.1 1 .6 2.1 1.4 3l.8.8c1.4 1.2 4.8 4.1 3.8 6.9-.7 2-1.9 5.9-2.2 8.8-.2 1.4-.1 2.5.3 3.1.2.3 1.1 1.6 2.4 3.3 1.7 2.3 4.1 5.6 6.6 9.1 2.3 3.1 4.7 6.4 6.8 9.3.2.3.4.6.6.8 2.4 3.4 4.4 6.3 5.2 7.6.3.5.5.8.4.9-.1.1-.5-.2-1.1-.8-3.4-3.2-13.4-14.7-14-15.5-.7-1-10.1-17.2-10.3-19.4v-.8c.1-2.4.8-7.2.1-9.8-.2-.6-.4-1.1-.8-1.4-2.2-1.7-3.1-5-3.4-7.9-.2-2.9-.7-5.3-1.4-5.7-.4-.3-.1-2.5.3-4.6.3-1.4.6-2.7.7-3.3.2-1.4 3.8-6.5 1.4-8.1s-6-1.9-8.6-6-3.6-25.9-5.7-32.8c-2.2-6.9-5.7-20.8-6.5-27.1-.7-6.2 7.2-31.6 8.6-36.9.9-3.4 5.4-15 8.8-23.6-1 .8-2 1.6-2.9 2.4-2.3 6.1-4.7 12.5-5.4 14.2-1.4 3.4-6 19.6-6.9 22.5-1 2.9-3.6 12.7-3.8 14.4-.2 1.7-.2 13.7 2.2 21.1 2.4 7.4 5.3 20.1 5 25.4-.1 3.2.6 9.3 1.2 14.2.4 3.3.8 6 .9 6.9.1.8.3 1.9.6 3.1.5 2.2 1.1 4.5 1.1 4.5s7.9-1.4 8.6-1c.7.5.7 1.9-.7 4.3-.6 1-1.1 2.6-1.5 4.2-.6 2.3-1 4.6-1.1 5.2-.2 1-.2 7.4.5 9.8s2.6 4.8 3.6 5.5c1 .7 2.6 1.7 2.9 4.6.2 2.9-.7 8.1-.5 9.3.2 1.2 3.1 5.7 4.1 7.2 1 1.4 5.5 7.2 6.5 9.3 1 2.2 8.6 10.8 8.1 12.2-.5 1.4-6-2.4-7.2-5.3-1.2-2.9-5.7-12.2-7.4-13.7s-6.7-9.8-6.7-12.7c0-2.9 1.7-6.5-1-9.1-2.6-2.6-5.3-8.4-5.5-10.1-.2-1.7-1.4-7.9-1.4-9.6 0-.9.4-3 .6-4.8.2-1.5.2-2.9-.4-3.3-.7-.5-1.3-1-2-2.3-.6-.9-1.2-2.3-2-4.4-.6-1.7-1.2-5.4-1.7-9.6-.9-8.4-1.7-19.2-2.6-22.7-1.4-5.3-4.3-18.9-5.3-22.5-.2-.7-.4-1.6-.6-2.7-1-4.9-2-13.2-.8-16.7.5-1.5 1.2-3.1 2-4.8 1.6-3.4 3.6-7.5 5.2-12.9 2.4-8.1 2.4-13.2 4.8-18.4 1-2.1 2.4-5.4 3.8-8.6-1.2 1.1-2.3 2.2-3.4 3.3-2.2 4.8-4.6 10.8-4.9 13-.5 3.8-2.6 12.5-4.3 16.5-.1.2-.2.4-.2.6-1.8 4.1-5 10.6-5 14.5 0 4.1 1.4 13.9 2.2 18 .1.7.3 1.6.6 2.7 1.3 6 4 17.5 4 21.7 0 1.5.3 3.7.7 6.2l.3 1.8c.7 3.8 1.6 8.1 2.2 11.8.3 1.6.5 3.1.6 4.4.5 6.5.7 12 1.4 12.9.7 1 4.3 0 3.8 3.8s-.7 10.3.7 13.4c1.4 3.1 1.7 8.1 2.9 9.6 1.2 1.4 3.8 1.7 3.8 4.8s-.6 6.2.7 8.1c3.4 5.3 8.2 12.3 9.8 15s3.5 7 4.2 8.9c.6 1.9 3.5 4 1.8 3.7-1.8-.3-6.4-8.3-7.3-9.9-1-1.6-7.3-14.4-8.6-16.1-1.3-1.8-2.9-4.2-3-5.4-.2-1.3 1-5.1-1-7.2-1.9-2.1-2.1-4-3-5.4-1-1.4-3.4-7.5-4-10.9-.6-3.4.3-7.2-.6-9.4s-2.1-4.3-2.4-6.1c-.2-1-1-8.1-1.7-14.2-.3-2.4-.5-4.7-.7-6.4-.1-1.2-.2-2.1-.3-2.5-.1-1-.4-3.2-.7-5.8-.5-4.2-1.3-9.4-2.3-12.4-.4-1.3-1-3.6-1.7-6.4-1.7-7.3-3.7-17.6-3.7-20.3 0-3.7 0-10.2 1-14s4.9-12.9 5.3-14.8c0-.2.1-.6.3-1.1 1.1-3.7 5-13.8 5.5-16.3.2-1 .8-2.5 1.5-4.2-.6.6-1.2 1.3-1.8 1.9-1.1 2.9-2.1 5.7-2.8 7.1-1.6 1.9-3.2 6.6-4.7 11.1zm61.4-15.4c.8-1.1.8-.5 1.1-2.1.3-1.6.1-1.4.8-2.4.7-1 2.1.8 1.1 1.6s-.7.5-1.1 1.6c-.3 1.1-1.1.2-.3 1.1s.1 1.1 1.4 1.4c1.3.3 2 .3 2.4.6.5.3 1.1 1 1.1 1s1.3-3.5 1.3-4.5-.2-.6 0-2.1c.2-1.4-1.6-.9 0-2.1l1.6-1.2s-1.8 10 0 13.1 2.4 5.1 2.4 7.2c0 2.1-.8 1.4 0 4.9.2.9.4 1.6.6 2.3.6 1.9 1.2 3.1 1.4 5.7.3 3.5-4-2.7 1 8.1 4.9 10.9 5.5 12.6 6.6 15.5 1.1 2.9 1.6 3 1.1 4.5-.5 1.4-.4 1.7-1.1 2.5-.7.7-.2-3.6-.8 1.7-.6 5.3-.5 6.1-.5 7 0 1 1.1-13.3 0 1.8-1.1 15-1 15.8-.8 16.9.2 1.1-.3 2.1-.3 2.1s-1.6.2-1.6-2.1.5-4.3.5-4.3v-1.8s-.5-.7-1.1 1c-.5 1.7-1.5 2.4-1.3 3.7.2 1.3-.5 1.5 0 2.6s1.9 2.1 1.3 2.7c-.5.6-.7 1.3-1.3 0-.6-1.3-3.2 2.9-1.4-4l1.8-6.9s1.8-1 2.1-2.4c.3-1.4.5-.8.5-3.3s-.5-5.3 0-6.7c.5-1.4 1-2.9 1-4.6s-.2-3 0-3.4c.2-.4-.2-1.5.3-2s.8 0 1-1.3c.2-1.3.6.2-.2-2.1s-1-2.7-1.8-3.8c-.8-1.1-.7-.6-1.9-2.1-1.2-1.4-1.5-1.3-2.4-2.1s-1.1-1.7-2.2-2.5-2.1 2.5-1.1-.8.6-2.2 1-3.4c.3-1.1 1.1-.6.8-2.2-.3-1.6-1.1-1.9-1.1-3.2v-2.2c0-.8-.2-.3-.2-1.9s-.3-1.8 0-3.4c.3-1.6-.6-5.3-.8-5.9-.2-.6-.2-1-.3-2.6s-.2-1.3-.3-2.6c-.2-1.3-.2-1-1-2.7s-1.4-3.7-2.1-4.3c-.6-.6-1.8-.9-2.6-1.8s.2-.9-.8-.9-1.9.9-1.9.9-.6-1.3-.8 0c-.2 1.3.2 3.7 0 5.2L89 55s-.4-2.1-.8-2.9.2-.3 0-3-.8-3.7 0-4.8zM61.6 201.6c-.7-1.4-1-2.6-1.7-4.1 0 0 0-.1-.1-.1-1-2 .7-5.5 1.5-7.5s-.3-5.1-1.5-7.7c-1.2-2.5-.5-.7-3.4-3.7s-.5-.7 0-3.7.7-2.8 2.2-4.3c1.4-1.6.1-4.2 0-4.6-.1-.4 3.5-2.6 5.1-3.6s4-6.2 3.7-8.3c-.2-2-4.8-3.4-4.8-3.4 3.1-.1 10.4 2 12.7 3.5 2.3 1.4-.7 2.5-2 3.8-1.3 1.3-1.9 1.4-4.4 3.6-2.5 2.2-5.4 8.3-7.5 11.7-2.2 3.5-.7 6.3.4 7.4 1.1 1.1 2.5 2 4.2 6.8s-.5 3.2-.7 4.9-1.3 3.3-1.7 6.4c-.4 3.1 4.1 7.2 5.5 8.3 1.4 1.1 6.9 9.3 7.2 9.8.2.5 2 3.6 3 4.8 1 1.2 2.9 2.8 4.3 4.1 1.4 1.3 6.1 9 4.2 8.4-1.9-.6-7.7-7.3-8.4-8.9-.7-1.6-15.7-20-17-22.3-.3-.4-.6-.8-.8-1.3zm-3-93.4z"/><path fill="#180026" d="M107.2 162.9c-.1.5-.1 1.9-.2 3.4 0-.9.1-1.6.2-3.4zm-1.1-133.3c.7-14 1.1.5 2.1 3 1 2.6 1.6 5.1 1.5 7.7s.8 3.5.8 6.2.5 4.3 1.2 5.7c.7 1.4.2 1.8 1.6 1.1 1.4-.6 2.3 0 2.3 0s2.1-.6 3.4-4.2c1.3-3.5 0-1 0-2.4s-1.4-6.4-1.8-8.5c-.3-2.1 0-1.6 0-2.7s.5-1.8 1-1.8 1.3 3 2.2 6.7c.9 3.7.5 4.3 0 7.2-.5 2.9.5 2.6 0 7.6-.5 5.1.8 3.5.8 5.5 0 1.9-.2 2.9-.6 3.7-.5.8 0 0-.2-1.4s-1.1-2.7-1.1-6.1-1.3-.5-3.5-.6c-2.2-.2-1.4 4.3-2.1 6.9-.3 1.3-.4 2-.4 2.9 0 .9.7 10.1 1.8 16.9 1.1 6.9.2 7.7.2 14s.5 6.4 4.3 14.2c.5 1.1.9 1.9 1.2 2.4 0-.2 0-.4.1-.5-.5-1.5-1.1-3.7-1.1-5.1.2-3.2.3-1.3 0-2.6s.6-2.4 1-4.4c.3-2 .3-2.3.3-3.9s-.5-5.1-.5-5.1v-7.3c0-4.3 1.1-12.8 1.1-11.5 0 .7.2 2.4.3 5.9.1 2.6.2 6.1.2 11 0 11.5.2 8.1.3 10.9s-.8 3.9-1.1 6.9c-.2 1.5-.3 3-.5 5.1.5 1.5.8 2.2-.1.5-.2 1.9-.4 4.2-.7 7.3-.6 6.9-.2 4 0 21.1.2 17.2 0 4.4 0 10.5s.5 4.2 3.3 11.3-.5 7.2 0 11.5-.5 2.6 0 5.9c.1.4.1.7.1.9v.1c.7 1.9.9 3.4-.2 3.8v1c.2 4.3.6 1.1 1.6.5.9-.6 3.2-1.6 3.2-1.6V0h-1.9c0 .5 0 1-.1 1.6-.5 12.3-1 30.4-1.1 32.2-.2 2.6-2.9 2.9-4.3-2.9s-3.1-16.8-4.1-23.5c-.4-2.7-.5-5.2-.5-6.9h-.4v.1c-.7 5.5 1.9 20.1 1.7 21.1-.2.9-2.6-14-3-21.1-.5.1-1 .1-1.5.2.4 4.5 2.3 22.5 2.3 29.5 0 7.7-5.3 3.4-6-2.6-.5-4.1-1-17-1.4-26.2-.7.1-1.5.2-2.2.4.2 7.6.5 19.2.5 27.7zm22 160.6v-.3s0 .6-1.8.7l1.8.8v-1.2z"/><path fill="#281137" d="M86.7 244c.2.2.3.2.4.2 0 0-.4-.3-1-.7.3.2.5.4.6.5z"/><path fill="#6F071B" d="M101.7 137.6c0 .1.1.2.1.2.1 0 0-.1-.1-.2zm-3.7-1.2c0 .1.1.2.2.3-.1-.1-.1-.2-.2-.3zm4.2-28.6v-.3.3zm-9.4-44.7c.3-2.1-1-10.4-1.1-11.2 0 0 .2 8.8.2 9.8s-.7 1.7-.7 1.7.6 2.2 1 4.1c0-.1 0-.2-.1-.3-.2-1.5.4-2.2.7-4.1zm-5.1 66.8v-.5c0-1.1-.3-3 0-4s.5-1.9.5-2.9-.3-2.1-.3-2.1-.3-9.8 1-11.5c1.3-1.7-2.1-6.2-2.4-8.5-.3-2.2-1-11.7-1.1-12.9-.2-1.3-.2-2.9-.3-4.5-.2-1.6 0-1.4 0-4s-1-4.5-.8-6.2c.2-1.8.6-4.2 1.6-5.9 1-1.8.3-10.7.3-12v-5.1c0-1.9-.8-1.4-.8-1.4v3.5c0 1.1-1 10.1-1 11s-.6 5.4-.6 5.4-.6 2.1-.8 4.2c-.2 2.1.5 3.8.5 5.3s.8 9.9 1 14.5c.2 4.6 1 9.9 1.8 12.8.8 2.8.3 23 .3 24.1 1-.2-.2-1.6 1.1.7zm5.9 0s1.9 1.1 3.7 2.3c.1-.1.1-.2.1-.2.1-.6.6-1.4.9-2.4.3-1 .5-1.6 1.4-2.3 1-.7.8-6.2 2.5-7.9 1.7-1.8.4-1.7 0-2.9-.3-1-.1-7.3 0-8.7-.1 1-.3 4.3-1.5 4.7-1.4.5 0 0 0-.5s-.8-2.4-1-4.5c-.2-2.1-.7-4.5-.7-4.5s-.2 3.4-.1 5.3c.2 1.9-.2 1.6 0 2.9.2 1.3-.8.8-1.5 0s-.2-1-.1-4c.2-3 0-3.4 0-7.2 0-3.8-.3-3.4-.8-5.6C96 92.2 94 75.6 94 75.6l-.2-3c-.2-3-.9-2.6-1.5-4.6.2 1 .3 1.9.2 2.2-.4.8 1 15.3 1 15.3s.6 3.2.8 5.1c.2 1.9.8 4.5 1.5 5.9.7 1.4-.2 2.6 0 4.3.2 1.8.1 4.9.1 7.8s0 0-.9 2.6.2 1.3 0 2.9c-.2 1.6.1 1 0 2.2-.1 1.3.9-.2 1.5-.6.6-.5-.5-4.5 0-4s.9-.5 2.9 1.1.8 1.6.8 1.6.6 1.8 1.1 3c.5 1.3-1.3 2.1-2.1 3s-.3 1.6-.3 3.1-1 2.2-2.4 2.3c0 0-.9-2.6-.7-3.5s-.5-.6-1.5-.3 0 1.8.7 3.7c.7 1.9 1 2.6.7 2.6-.3 0-1-1.1-1.6-1.9s-.8 0-2.9.2c-2.1.2-.3 1.3-1.1 2.2-.4.5 0 .8.6 1.1h2.9zm-7.2-.7l-.7-.4-.3.3c.1 0 .3.1 1 .1zm2.7 2.6l-.6-.1c.2.1.4.1.6.1zm-4.6 3.3c-.7-1.1-1.1 0-1.1 0l-.5-.7-.5-2s1-1.1 2.1-2.5v-.1c-.6.5-1.3 1-1.7 1.3-1 .5 0 0-.9-.6s.4-1.1.4-1.1l.6-.6c.6-.6 1-.2 1.4-1.3.5-1.2-1 0-1 0h-1.5s-.4-1.2-1.2-1.7c-.8-.5-1.4-.8-1.4-.8l-.2-1.2s-.8-1.5-1-2c-.2-.5.2-1.1.2-1.1s.2-1.1.8-2.9.5-.8 1.1-1.6c.6-.8.8-1.3.8-2.9s0-1.3-.6-3.5 0-2.6 0-3.5.2-3.7.2-4.6-.2-2.9-.3-4.9c-.2-2.1-.2-4-.2-5.1 0-1.1-2.2-1.4-2.2-.6s.6 6.5.6 7.2.2 3.4.3 4.8c.2 1.4.2 2.6.3 5.3.2 2.7.2 1.8.2 3.7v1.6c0 .5-1.1 3-1.9 4.3-.8 1.3-.8 1.6-1.1 2.9-.3 1.3.2 2.9.2 3.1s.6 1.5 1.4 3.5 0 0 1.1 1.4 1 .8 1.6 2.1c.6 1.3 0 .8-.5 1.3s-1 .3-2.1.3-1 .2-1 .2l-2.1 1.6v2.2c0 1.3-1 .6-1 .6s-1.8.3-2.8.6c-1.1.3.3.6.9 3.8.6 3.2.8 2.1.8 3 0 1-.6 1.9-1.4 3.4-.8 1.4.2 1 1.9.8 1.8-.2 0 0 .6-1.9s-.5-1 0-1.8 0-1.1 0-2.4v-3c0-3 0 0 .2-1s0 0 1.4.8 1.1-4.9 1.1-4.9l1.3-.3 1.4-.3c1.4-.3.8.5.8.5s.6.3 1.7.6c1 .3.7 1 .9 1.9.2 1 0 0 .2.8s-1.1 1.8-1.1 1.8-.9.5-2.5 1.1c-1.6.6 0 1.8 0 2.4v1.9c0 .8.6 7.8 1.6 8.5 1 .6 0 0 .2-1s-.2-4.3-.5-6.9c-.3-2.6-.3-1.9 0-2.4s1-.8 1.2-1.4c.2-.6 1.2-.3 2.3-1 1.1-.6.8-1.1.8-3 0-.9 0-1 .1-.7.2-.4.3-1-.4-2zm7.8-67.2s0 .1 0 0 0-.3-.1-.4c0 .1 0 .3.1.4zm-3 69.3l.4.1c-.1-.1-.3-.2-.4-.1zM93 143c.3.8 1.1 2.2 1.3 3s0 1.3 0 2.1v2.7c0 .6-.3 2-.2 2.4.2.5.3 5.6.3 7.2s-.8 4.9-1 6.4c-.2 1.4.8 3.8.8 3.8s.2-.8.6-2.9c.5-2.1.3-2.7.6-3.7s.3-2.7.3-4.2c0-1.1-.4-2.7-.6-4.7-.1-.6-.1-1.2-.2-1.8-.2-3 .2-1.8.5-2.6s.3-2 .2-3.1c-.2-1.1-1.1-3.5-1.1-3.5l-1.9-4c-.2.3-.4.7-.5.9.4.7.7 1.5.9 2zm14.2 19.9c.2-.8-.6-1.1-1.1-2.7-.5-1.6 0-2.7-.3-4.3-.3-1.6 1.1-7.2 1.1-7.2s-.3-1.8-.6-2.2c-.3-.5-.3 1.8-.3 2.6s-.5 1.6-1.1 2.6c-.6 1 0 2.6 0 3.2 0 .6-.2 2.4-.2 2.4s-1.6-.5-3-3.4.3-.6 0-1.9c-.3-1.3.9-1.3 1.7-1.8.8-.5 1.1-1.3 1.1-3s-1.6-1-2.8-2.3c-1.2-1.4 4.3.4 5.1-.1s1.4.3 3.5 0 0 0 1-.5 0-2.5 0-3.1c0-.6-.6 1.4-2 2.6-1.3 1.2-1 .1-1.7 0-.6-.2-2.4.2-4.8 0s-1-1.3-1-1.3h4.8c1.4 0 1.9 0 2.2-.3-.8 0-1.9-.2-1.9-.2s-1.1.4-2 0c-1-.4-1.8 0-1.8 0s-.6-.1-1-.5-2.3 0-2.3 0-.5.7-1.1.8v7.4c0 3.5.6 12.3.6 12.3s.8 2.1.8 3.8-.5 2.7-.6 3.4c-.2.6 0 1.6 0 3.4s.6 1.4 1 2.7c.3 1.3.2 1.3 0 3.4-.2 2.1 0 0-1.8 2.7s-1.3 10.1-1.3 10.1.3-1.8.5-2.6.8-2.4.8-2.4.6-2.4 1.3-3.8.3-1.1 1.6-4.6.6-2.1 0-4.3c-.6-2.2-.1-4.5 0-6.1s-.2-3.7 0-4.6c.2-1-1.3-3.4-1.6-5.1s-.5-4.3-.5-5.6.2-4.6.3-5.3c.2-.6.5-3.2.5-3.2l.6 3.5v1l-.6 2.4s.2 3.5.3 4.6c.2 1.1.2 2.6 1 4.9.9 2.3-.2 1.2.9 2.1 1.1 1 .3.8.3 1.9s.8 1.8 1 3.7c.2 1.9-1 1.4-1 3.4 0 1.9.8 3 1 4 .2 1 1.8 1 1.8.2s-.8-1.8-1.3-3c-.5-1.3.3-2.7.6-4.2.3-1.4 0-2.7 0-3.4s-.3-1.8-.5-3.2c-.2-1.4.6.3 1.4 1.6.8 1.3.2 1.8.2 2.9 0 1.1-.2 2.7-.2 3.8 0 1.1.6 2.9 1 4.3.3 1.4-.5 1.9-.6 7.2-.2 5.3.3 1.9.6 2.6.3.6 1-4.8 1.3-6.5.1-.6 0-1.5-.2-2.5-.2-1.4-.6-3-.8-4.3-.1-.6-.2-1.2-.2-1.6v-2.5c.1-2 .2-3.4.3-3.9zm-13.3-23.4c-.8-.4.1-.8.1-.8l-.1-.6c-.1-.6-.5.6-.5.6s-.3.6-.7 1.3h1.5c0-.2 0-.4-.3-.5z"/><path fill="#6F071B" d="M57.3 95.1c-.5-1.8-.8.3-.8-2.9s.2-2.7-.2-6.1.3-2.6 0-4.6c-.3-2.1 0-5.3-.1-7.3v-4c0 .8-1.1 4.9-1.1 8s.2 1.9 0 4.8.3 2.1 0 4.6c-.3 2.6-.4 3.8 0 5.1.4 1.3 1.2 1 1.3 2.6s.2 1.6.2 3-1.4-.2 0 3.7c1.4 3.8 1.8 4.5 1.8 5.3 0 .5.3.6.3 1v.3c0 .2-.1.5-.3.9-.8 1.6-.6 1.8-1.1 2.9-.5 1.1-.6 1.6-.8 2.1-.2.5 2.9 8.3 1.9 8.5s-1-1.6-1.1-2.4 0-1.8-1-2.6-.5-3.5-1-.8.1.2-.4 3.4c-.5 3.2-.3 1.9 0 5.1.3 3.2 0 2.1.3 3.2s.3 2.4 1.1 3.2.2-.2 1.1 1.8l1 1.9s-.2-3.2.8 1.3c.8 3.7.1 4.4.5 5 .1.1.2.2.5.4 1.3.8 1.6 3.2 1.3.8-.3-2.4-.5-3.7-.5-4.6s1.1-1.8 0-3.5c-1.1-1.8 0-.5-1.1-1.8s-1.1.6-1.6-2.2c-.5-2.9-.8-4.5-.8-4.5s.3-2.2.8-1.1-.6.8.5 2.7c1 1.6 1.4 2.1 1.8 2.5l.2.2c.3.5 0 .3.8 1.6s1.3 1.3 1.3 2.4v4s1.1 1.6 1-.6c0-1.7.5-2.1.4-3 0-.3-.2-.7-.4-1.1-1-1.9-2-1.9-2-3.2v-1.2c0-2.1-.3-2.6 0-3 .3-.5.2-.6.8-1.8l.6-1.1s-1-4 .5-3.2c1.5.8 1.5-1.6 1.5.8s.2 3.2.2 3.2 0 .3.5 1.4c.5 1.1.6 1.3.8 2.1.2.8.5 1 .5 1.8s-.5.2-1.4 1.3c-1 1.1-2 .8-2 1.9 0 1.1.7 3 1.2 3.8.5.8 1 1.3 1.3 1.9.3.6.6 1.4.6 2.2v5.1l1.6-.5s1.6-4.2 0-6.7c-1.6-2.6-2.2-2.4-2.2-4s-2.4.3 0-1.6c2.4-1.9 2.4-1.1 2.9-2.1s.1-.6 0-2.2.4-1.1-.4-2.9-3-4.8-1.5-4c1.5.8 2.5 3.5 2.9 4.3.1.2.3.5.5.9.8 1.7 1.6 2.1 1.6 2.1s.3-.8 0-1.4c-.3-.6-2.6-5.1-1.9-5.1s2.2 1 .8-.9c-1.4-1.9-1.1-1-1.6-2.9s-1.7-1.6-.8-3c.9-1.4 1.6-1 2.2-3.4s1.4-3.5 1.4-4.3c0-.8.6 1 0-2.2s-.5-3.4-.8-5.6c-.1-.4-.2-1-.3-1.7-.6-2.6-1.6-6.5-1.6-7.9 0-1.8-.2-.8 0-3.7.2-2.9.3-2.1.3-3.8v-4c0-3.2.2-1.3 0-4.9-.2-3.7-.8-4.2-.2-5.4.6-1.3 2.6-8.5 2.8-9.7.2-1.3 0-2.9 0-2.9s-1.1-.2-1.2 1c-.2 1.1 2.1-2.2-.3 3-2.4 5.3-1.7 5.9-2.2 6.5s.8-1.1 0 1.4-1 1.8-1 3.5v3c0 2.1 1.2 1.8.8 3.4s.4 2.1 0 3.7.2 2.4 0 4-.9 2.7 0 4.5 1.7 13.6 1.7 13.6.3-.2-.3 1.6.5-1-.6 1.8c-1.1 2.7-1.9 3.4-1.9 4.2s-1.9 3.5-1.9 1.3.2-2.4 0-4.3-1.3-1-.7-4.2c.6-3.2-.6-1.9 0-4.6.6-2.7.6-1.1.6-5.4 0-4.3.5-2.2 0-4.3-.5-2.1-.1-6.1-.8-7.8-.4-1-.7-2-.9-2.6-.1-.4-.2-.7-.2-.7v7.5c0 1.9-.2.3 0 3.4s.6 3.2.6 4.6c0 1.4 1.6-.8.2 2.9-1.4 3.7-.3 4.3-.9 5.3-.6 1-.4-.2 0 1.8.4 1.9.9 3.2.9 3.7s.3 0 0 2.2-.3 2.6-.3 4.2-.1 1.9-.9 1.4.8-2.2-.8-.5c-1.6 1.8-.6 1-1.6 1.8s-1 1.9-1.8-.2c-.3-.8-.6-.9-.7-1-.3-.1-.4-.1-.1-2.5 0-.3.1-.6.1-.8.5-3.1 1.1-3.6.7-6.4-.2-1-.3-1.6-.3-2-.2-1-.2-1.4-.5-3.4-.5-3.3-.7-4.6-1.1-6.3z"/><path fill="#A03974" d="M91.1 129.9h-.4l.5.6s-.1-.3-.1-.6zm8.7 11.5s1.9-.4 2.3 0c.4.4 1 .5 1 .5s.8-.4 1.8 0 2 0 2 0 1.1.2 1.9.2c.8 0 1.3-.2.2-.9 0 0-2.4-.4-4.4-1.3 0 0-.9-.1-2 0s-1.4.4-2.1 0c-.6-.4-.1-.9-1.4 0-1.3.9-1 1.4-1.3.9-.3-.6-.2-.7-.5-1.7s1-2.3-.6-1.6-1.5 0-1.5.7-.8-.5-.8-.9.9-1.1 0-1.4-1.3-.4-1.3-.4-.9.7-2.1.4c-1.2-.2-2.5-1.7-2.5-1.7s-.7.4-1.4.6c-.6.2-1.6.6-2-.6-.4-1.1-.7-1.6 0-1.7s1 .1 2 0 .3-.1 1.5 0 2.3-1 2.3-1c-.5 0-1.1.1-2.1.3-.2 0-.4 0-.6-.1-.4-.2-.8-.7-.8-1.9-1.3-2.2-.1-.8-1.3-.7H86c-.6.1-.8-.1-1-.2-.2-.1-.3 0-.8.7v.1c-1.1 1.4-2.1 2.5-2.1 2.5l.5 2 .5.7s.4-1.1 1.1 0c.7 1.1.6 1.6.6 1.6s0 1.6 1 1.6c1.1 0 2.9-.6 2.9-.6s.1-.4.3-.5c.1-.1.3-.1.4.1.1.1.2.3.3.6.7 1.6.2 1.9.8 2.4.6.5.6 1.4 1.1.8 0-.1.1-.1.2-.2.2-.2.4-.6.5-.9 0 0 0-.1.1-.1.4-.6.7-1.3.7-1.3s.4-1.2.5-.6l.1.6s-1 .5-.1.8c.3.1.3.3.3.4 0 .3-.1.8 1.4 1.3 1.2.4 1.2 2 2.2.2.2.7.6.9 1 .8.8.1 1.3-.5 1.3-.5z"/><path fill="#A5879D" d="M88.8 132.5c-1.2-.1-.5-.1-1.5 0s-1.3-.1-2 0-.4.6 0 1.7 1.4.7 2 .6c.6-.2 1.4-.6 1.4-.6s1.3 1.4 2.5 1.7c1.2.2 2.1-.4 2.1-.4s.4.1 1.3.4 0 1 0 1.4c0 .4.8 1.6.8.9s0 0 1.5-.7.3.6.6 1.6.2 1.1.5 1.7c.3.6 0 0 1.3-.9s.7-.4 1.4 0c.6.4 1 .1 2.1 0s1.9 0 2 0c-.5-.2-1-.5-1.5-.8-.6-.4-1-.9-1.2-1.3-.1-.1-.1-.2-.1-.2-.4-.6-.5-1.1-1-1.3-.7-.2-2.1.9-2.6.4-.1-.1-.1-.2-.2-.3v-.2c-.1-1.4.4-1.7 0-2-1.1-.8-.8-1.5-.7-2-1.8-1.2-3.7-2.3-3.7-2.3h-2.5c0 .3.1.6.1.6l.8 1h-.8c-.2 0-1.4 1.1-2.6 1z"/><path fill="#22114E" d="M126.3 190.6c1.8 0 1.8-.7 1.8-.7v-3.8s-2.3 1-3.2 1.6c-.9.6-1.4 3.8-1.6-.5v-1c-2.2.6-3 1.1-3.5.6-.5-.5-.2 4.1-1.4 2.5-1.3-1.6-2 3.7-2.2-2.5-.2-6.2 1.9-5.3-.7-8.3-2.6-3-2.1-1.1-2.9-4.3s-3.3-.6-3-9.7c.3-9.1-1.1-5.4 0-10.2s2.3-5.7 2-6.4c-.3-.6 0-1.3 0-1.3-2 2.6-2 2.8-2.7 4.1s-.5.8-.6 3.6c-.2 2.7-.6 5.3-.6 5.9s-.3.7-.5 2.7c-.1 1.8-.1 2.5-.2 3.4v.4c0 1.1 1.1 1.4 1.6 4.3s.1 2.9 1 4.3-1.3-.4.9 1.4c2.3 1.8 3.8 3.4 3.8 3.4s1.3.5 1.1 1.9c-.2 1.4-1.3 1.9-1.1 2.7.2.8-.2.5 0 2.2.2 1.8 0 4.2 0 4.2h3s1.4.3 2.2 0c.8-.3.6-.6 1.6-1 1-.3 2.3.4 2.3.4l.9-.7c.1.1.2.8 2 .8zm-3.9-89.4c-.2-2.8-.3.6-.3-10.9 0-4.9-.1-8.5-.2-11-.1-3.5-.3-5.2-.3-5.9 0-1.3-1.1 7.2-1.1 11.5v7.3s.5 3.5.5 5.1 0 1.9-.3 3.9-1.3 3.1-1 4.4c.3 1.3.2-.6 0 2.6-.1 1.4.6 3.6 1.1 5.1.2-2 .4-3.5.5-5.1.3-3.1 1.2-4.2 1.1-7zm-1.7 12c0 .2 0 .4-.1.5.9 1.7.6 1 .1-.5z"/><path fill="#22114E" d="M123.4 182.5c.2 1.5-.1 1.3-.1 2.7v1.1c1.1-.4.8-2 .1-3.8zm-.1-1.1c-.5-3.4.4-1.6 0-5.9-.5-4.3 2.8-4.3 0-11.5s-3.3-5.3-3.3-11.3c0-6.1.2 6.7 0-10.5s-.6-14.3 0-21.1c.3-3.1.5-5.4.7-7.3-.3-.5-.6-1.3-1.2-2.4-3.8-7.8-4.3-7.8-4.3-14.2s1-7.2-.2-14c-1.1-6.9-1.8-16.1-1.8-16.9 0-.9 0-1.6.4-2.9.6-2.6-.2-7 2.1-6.9 2.2.2 3.5-2.7 3.5.6s.9 4.6 1.1 6.1c.2 1.4-.3 2.2.2 1.4.5-.8.6-1.8.6-3.7 0-1.9-1.3-.4-.8-5.5s-.5-4.8 0-7.6c.5-2.9.9-3.5 0-7.2s-1.7-6.7-2.2-6.7c-.5 0-1 .6-1 1.8 0 1.1-.3.6 0 2.7s1.8 7 1.8 8.5 1.3-1.1 0 2.4-3.4 4.2-3.4 4.2-.9-.6-2.3 0-.9.3-1.6-1.1c-.7-1.4-1.2-3-1.2-5.7s-.9-3.7-.8-6.2-.5-5.1-1.5-7.7c-1-2.6-1.4-17.1-2.1-3-.3 5.5-.4 8.4-.5 10.2-.1 2.8-.2 2.8-.2 5.5 0 4.3-1 3 0 6.2s2.8 8 4.2 10.3c1.4 2.3 5.9 20 4.8 28.2s-1.4 9.1-1.4 10.5 1 1 1 4.2 0 4.6.5 6.2 3.5 7 3.5 10.2.5 0-.2 4.6c-.6 4.6-.8 2.4-.8 6.1 0 3.7.6 4.3.6 7.3s-2.2 12.9.6 18.8c2.9 5.9 2.7 6.9 3.2 8.1.5 1.3 4 .2 2.2 2.9-1.8 2.7-1.8 3.4-2.2 4.6-.5 1.3-1.1-.3-.2 3 .5 1.7 1.5 3.9 2.2 5.8v-.1c.1-.3.1-.6 0-1z"/><path fill="#22114E" d="M88.2 52.1c.3.8.8 2.9.8 2.9l.2-1.4c.2-1.4-.2-3.8 0-5.2.2-1.3.8 0 .8 0s1-.9 1.9-.9 0 0 .8.9 1.9 1.2 2.6 1.8c.6.6 1.3 2.6 2.1 4.3s.8 1.4 1 2.7c.2 1.3.2 1 .3 2.6s.2 1.9.3 2.6c.2.6 1.1 4.3.8 5.9-.3 1.6 0 1.8 0 3.4s.2 1.1.2 1.9v2.2c0 1.3.8 1.6 1.1 3.2.3 1.6-.5 1.1-.8 2.2-.3 1.1 0 0-1 3.4s0 0 1.1.8 1.3 1.7 2.2 2.5 1.3.6 2.4 2.1c1.2 1.4 1.1 1 1.9 2.1.8 1.1 1 1.6 1.8 3.8s.3.8.2 2.1c-.2 1.3-.5.8-1 1.3s-.2 1.6-.3 2c-.2.4 0 1.7 0 3.4s-.5 3.2-1 4.6c-.5 1.4 0 4.2 0 6.7s-.2 1.9-.5 3.3-2.1 2.4-2.1 2.4l-1.8 6.9c-1.8 6.9.8 2.7 1.4 4 .6 1.3.8.6 1.3 0s-.9-1.6-1.3-2.7c-.5-1.1.2-1.3 0-2.6s.8-2 1.3-3.7c.5-1.7 1.1-1 1.1-1v1.8s-.5 2.1-.5 4.3 1.6 2.1 1.6 2.1.5-1 .3-2.1-.3-1.9.8-16.9c1.1-15 0-.8 0-1.8s-.2-1.8.5-7c.6-5.3.2-1 .8-1.7.7-.7.6-1 1.1-2.5.5-1.4 0-1.6-1.1-4.5s-1.6-4.6-6.6-15.5c-4.9-10.9-.6-4.6-1-8.1-.2-2.6-.8-3.8-1.4-5.7-.2-.7-.4-1.4-.6-2.3-.8-3.5 0-2.9 0-4.9 0-2.1-.6-4-2.4-7.2s0-13.1 0-13.1l-1.6 1.2c-1.6 1.2.2.6 0 2.1-.2 1.4 0 1.1 0 2.1s-1.3 4.5-1.3 4.5-.6-.6-1.1-1c-.5-.3-1.1-.3-2.4-.6-1.3-.3-.6-.5-1.4-1.4s0 0 .3-1.1 0-.8 1.1-1.6-.4-2.6-1.1-1.6c-.7 1-.5.8-.8 2.4-.3 1.6-.3 1-1.1 2.1s-.2 2.1 0 4.8-.2 1.9.1 2.7z"/></svg>