<svg xmlns="http://www.w3.org/2000/svg" width="256" height="256"><circle fill="#B1B3B5" cx="128" cy="128" r="128"/><path fill="#717268" d="M180.3 124.1c-.2 1.4-.4 3.9-.7 7 3-.3 5.9-2.6 6.3-4 .6-1.9 3.7-11.5 3.7-17.3s4.8-17.8 3.6-23c-1.2-5.2-4-6.9-6.7-5.2-1.2.7-2.9 1.8-4.5 2.9.1 8.9 7 21.9-1.7 39.6z"/><path fill="#848479" d="M180.1 177c-3.8-6.4-1.9-32.4-.5-46 .3-3.1.6-5.5.7-7-11 22.6-8.6 37.4-17.8 46.2-9.3 8.7-34.5 6.2-34.5 6.2V256c32.7 0 62.5-12.3 85.2-32.5 0-.2-.1-.6-.9-1.8-2.4-3.3-2.9-3-4-4.7-1.2-1.6-1.7-1.6-3.3-3.3-1.7-1.6-1.7-1.9-1.9-3.2-.2-1.2-1.2-4.2-2.4-4.5-1.2-.3-1.2.3-2.1 2.2s1.2 2.5 2.1 3.8.5 1.9 1.9 4.1c1.4 2.2 2.4.3 2.4.3v4.9c0 4.1 0 0-1.1.3s-.3-1.6-1.3-2.5c-1-.8-2.4 0-2.4 0s-.7 3 1 2.5c1.6-.5 1.9 1.9 2.6 3.3.7 1.4-5-3-8.1-6.6-3.1-3.6 5 7.1 6.9 9.9.7 1-1-.3-3.6-1.1l1.4 4.1s-1.4-1.4-2.6-2.5c-1.2-1.1-.5-1.6-1.9-5.8-.4-1.1-.6-1.8-.8-2.2-.6-1.3-.9-1-3-3.8-.4-.5-.6-.9-.9-1.2l-.1.1-1.2-.3c-1.2-.3 0 0-2.1-1.4s-1.9.3-1.9.3l1.2 1.9 1.7 1.4c1.7 1.4 0 0 1.9 1.6s-.5 2.2-1.7 2.2h-.5c-.5 0-2.1-1.4-3.8-2.4 0 0-2.1.5-3.3-1.2-.1-.2-.3-.4-.3-.5-.3.5-.7 1-1.3 1.3-1.7.8-2.1 0-2.9 0s-1.2-.3-2.4-1.6c-1.2-1.4.2-1.5.2-1.5s3.6.1 5.7 0l-.7-1.5-1.7-.5c-1.7-.5-1.7-4.4-1.7-4.4s3.1 1.6 4.3 1.9c1.2.3 1.2-.3 1.7-1.6l-4.3-1.1.5-3.8 1.2 1.6c1.2 1.6 2.6 1.1 2.6 1.1l-.5-2.7s-1.7-1.1-2.9-3.8c-1.2-2.7 0 0 .5-1.4s0 0 .7-.8 1.7-3.5 1.7-3.5l-1.1-2.3s-.3-.8-.1-1.6 0-1.9 0-1.9v-2.2l-1.3.8c-1.3.8-2 1.1-2.9 3.6-1 2.5-.2 1.4-.2 5.8s.5 1.9.7 3.8-1 1.4-1 1.4-.4 1-.7 2.6l-.3 1.8c-.1 1.3-.1 1.9-.1 2.7 0 .8-.4 5.5-2.1 6s-2.4-.5-1.5-3.6.6-.8.6-3.8l-1.7 1.1c-1.7 1.1-1.7.8-4.5 0-2.9-.8 0 0 1.4-3l-3.8 1.1s.3-.2.8-.6c.8-.6 1.9-1.5 2.8-2.4 1.4-1.4 1.4-.8 2.9-1.6 1.4-.8.7-1.4.7-4.9 0-3.6 0 0 .7-2.5s1.7-1.4 1.9-4.1c.2-2.7 0 0-1.2 0h-2.1s1.7-1.4 3.1-2.5 2.1-3.3 2.1-5 .5-.8 1.4-1.6c1-.8 1.2.5 2 1.4s1.1-.5.9-2.5 0 0-1.2-4.1 0-1.6 0-1.6c2.6 6.6 10.7 9.9 10.7 9.9l-1.7 2.2-2.4.5.2 1.6c.2 1.6 0 1.4 0 1.4v3.8c0 .8.7 2.2 3.1 5.2s1.9 3.3 2.6 4.9c.7 1.6.5 1.1 1.1 3.6.6 2.5 0 1.6 0 1.6l-2 .5.1.2c.9 1.6 2 3.3 2.3 3.2.7-.2 1.2-.4 1.2-.4l2.1.3c2.1.3 2.4 0 2.4 0l-.7-1.1c-.7-1.1-1.7-1.4-3.8-3-2.1-1.6-1.4-2.2-2.1-3.8-.7-1.6-.7-8.2-2.4-12.9-.5-1.3-.8-2.1-1.2-2.6l-1.2-.5s.4-.9 1.2.5l4.7 1.7-.7 3s-1.6 3.1 1.2 8.8c2.8 5.7 1.2.5 2.6-.5 1.4-1.1 0 0 .5-1.6s0 0 4.3-1.4 0 0 1.7-.5 0 0-.2-1.9c-.2-1.3-.9-2-1.3-2.3l-.4-.2.4.2c.6.4 1.8 1.2 2.5 2.3 1 1.4 1.9 1.1 2.9 3s0 0 0 1.6-1.9 1.4-1.9 1.4l.7 1.9 2.6-2.5c2.6-2.5 1.7-1.1 1.7-1.1l.7.3c.7.3 1 .5 2.9 1.9s0 0 .7 1.4 0 0-1.9 2.2-2.1 0-2.1 0-1.4.8-1.7 1.6c-.2.8-.2 1.4-.2 2.2s.7 1.7 3.8 4.4 2.4.5 2.4.5-.7-2.2-1.2-3.3c-.5-1.1-.7-1.9.2-3s1 1.4 1 1.4 1.2.6 2.4 1.1c1.2.5 0 0 1.2-1.1 0 0 0-3.3-1.2-5.8s0 0 1.7.5 0 0 1 3 0 1.6 0 2.2.5 2.5.5 2.5.6 1.1 1.2 2.5c1-1 2-2.1 3-3.2-.3-.1-.6-.1-.6-.1s-1.9-2.2-2.1-4.1 1.7-.3 1.7-.3.7 1.1 2.6 2.7c.4-.5.8-.9 1.2-1.4-11-7.4-21.2-14.5-24.3-16.8-7.1-4.6-21.6-16.7-21.6-16.7z"/><path fill="#848479" d="M188.2 205c-.5-.8-1.7-1.4-2.9-3s0 0-2.9-1.6 0 0-1.2.8 1.7 2.2 2.4 3c.8.8.2 2.2-.1 4.1s.2 1.1 0 3.3c-.2 2.2-.5 1.1-1.4 3-.4.8-.7 1.6-.9 2.3.6-.4 1.8-1.2 3.5-3.7 3.6-4.9 0 0 1.4-3.6s0 0 1.9-2.2c.2.1.7-1.6.2-2.4z"/><path fill="#A7A596" d="M128 8.4zm22 52.1c.4-3.6-.2-3.6 0-6s.6-3.4.2-4.2c-.1-.2-.4-.3-.5-.4-.1.3-.2.6-.4.9-1.1 2.4-1.4 3.7-1.1 6.5.3 2.7 1.4 6.8 1.8 3.2z"/><path fill="#A7A596" d="M128 142.4v34s25.2 2.5 34.5-6.2 6.8-23.5 17.8-46.2c8.6-17.7 1.7-30.7 1.8-39.7v-1.2c.7-9.1.4-28-3.6-35.4-3.9-7.4-10.5-39.4-50.6-39.4v134.1zm34.3-1.2c.6 1.5.1 1.3-.6 2.4s0 0-1 0-.2 1.6-.2 1.6-.2 2.9-.5 3.9c-.2 1 .2 2.3-1.4 3.1-1.7.8 0-.6.2-2.9s0-1.8-.5-3.1 0-3.6-.4-5.7-1.3 0-1.3 0v-6s-.4-4.5-1.3-6 0 0-1.1 0-1.3.5-1.5 0c-.2-.5 1.8-2.9 2.1-3.1.4-.2.1-1.5-.6-1.3-.7.2-2.4.5-2.3-.2.1-.6.8-1 1.7-2.3s.5-1.5.2-2.9-.8-1.6-1.8-2.3c-1-.6-.4-1.3-.7-2.1-.4-.8-.4-1.6-1.4-3.4s0-1.8.2-2.3c.2-.5.2-1.6-.1-2.4-.4-.8-1.1-1.1-1.7-1s-2.4 1.8-3 1.8c-.6 0-1-.8-2.4-2.1s-.8-1.1-.4-3.2c.5-2.1 2 1.3 2.7 1.8s1.4 0 1.4 0 1.2-.8 1.1-1.6c-.1-.8-.6-.6-1.4-1.6-.8-1-1.4-.8-1.2-2.4s0 0-.4-.5-.6-1.9-.2-2.4c.4-.5.5-.2 1.5-.6 1.1-.5-1-1-2.1-1.5-1.2-.5-1.2.8-1.8.8-.6 0-1.4-.2-2.9-.5s-1 0-.8-2.6c.1-2.6 0 0 .7.3s.6 0 2.4-.8c1.8-.8 0 0-.1-1.1s0 0 2.3-.5.7 1.3 1.2 2.6 0 0 .6 0 1.5 0 2.5-.3 1.3-.5 2.1-.8c.8-.3.6 1.6 1.5 2.3 1 .6.8.8 4.8.8s0 0 1.3-1.5 1.1-1 1.9-1.6 1 1.5 1.7 3.6 1.1 1.1 1.1 1.1 1.2-.5 1.2-2.6.6-1 .6-1 1 1.5 1.2 2.9.6 1.1 1.5 1.8c.9.6 2.2.2 3 0 .8-.2 1-.3 1-.9s0-1.1.2-2.5c.2-1.5-.8 1-1.2 1.8-.4.8-.9.8-2.3.6s-.2-.5 0-1.6 1.8-1.6 2.9-2.4c1.1-.8 1.4-1.5 1.4-1.5s-.1-1.6-1.4-2.9c-1.2-1.3-1.9.3-2.3 0-.5-.3 1.1-2.6 1.1-2.6h3.7c1.3 0 1.7 1 1.2 1.1-.5.2-.7.6-1.2.8-.5.2.6 1.1.6 1.6s-.6 1.9-.6 1.9v2.4s-.3 2.9 0 3.9c.2 1-.6 1.1-1.9 1.9-1.3.8-1 0-2.1-.3-1.2-.3-2.4-.5-3.7-.5h-1.1s1.2 1.9 2.5 2.3c1.3.3 1.2.5 3.1 1.3 1.9.8.4 1.3.4 1.3s-2.3 1-3.1 1-1.7-.6-2.5-1c-.8-.3-2.3.2-2.3.2l1.9 2.9.5 1.9c.5 1.9-.8-.2-1.5-1s-1.8-2.1-1.8-2.1-.4-1.9-1.4-4.5-.2-1.5-1.4-2.6-1.3 0-3.3 0c-1.9 0-1.4 0-2.1.3-.7.3-1 .3-1 .3l1 2.6s.7 0 2.6 1.3.7 1.3 0 2.4c-.7 1.1-.5 0-.5 0s-.5-.3-1.5-.6-1.2.3-1.2.3l1 1.5s1 .5 1.9 1.3c1 .8 0 0 2.1 3.7s0 0 .7-.2.8-.6 1-1.3c.1-.6-.2-1.6-.4-2.9-.1-1.3 1.9 1.9 1.9 1.9l2.4 2.1c2.4 2.1-1.1 1.6-1.5 1.5-.5-.2-.7-.2-1.4 0s0 0-1.3 1.9-.6 1.3-1.5 3.2c-1 1.9 0 0-.7 2.4s0 0 0 .8 0 1.3.5 1.9c.5.6 0 0 1.9-1.3s.6 2.1.6 2.1l-1.3 2.4.4 1.3c.4 1.3 0 0 1 .5s.5 1 0 2.6l1.4 1.5s2 6.2 1.4 6.5c-.6.3-.5.8-1.1 1.8-.7 1.3.1 1.6.7 3.1zm-24.6-73.7c1.8.8-1.2-7.5.3-8.3 1.6-.8 3.4 7 4.1 6.2s-.5-4.4 0-6.3c.5-1.9 1.8-7.2 1.5-3.8-.2 3.4-1.6 8 0 7.6 1.6-.3 1.9-4.1 1.9-6.2 0-2.1.4-1.5.8-3.2.5-1.8-.1-2.9 1.1-3.9 1.2-1 2.5-1.6 2.5-1.6s.1.1 0 .9c.3-.2.6-.5 1.1-.9 2.9-2.1 3.2-2.3 4.5-2.9 1.3-.6 4.2-3.2 5-4.5.8-1.3 1-4.4 1-4.4s1.2 1.3 1.3 1.9c.1.6 1.4-.2 1.1-1.9-.4-1.8-.8-4.4-.8-6.3 0-1.9-1.8-4.2-2.4-5.4-.6-1.1-2.9-2.9-.6-1.1 2.3 1.8 3 1.6 3.9 3.6s1.4 3.1 3 5.2c1.7 2.1 2.5 1.6 1.7 2.1s-2-1.6-2.7-.5c-.7 1.1-1.5 1-1 2.9s1.7 1.1.6 1.9c-1.1.8-1.4-.2-2.3 1.8-.8 1.9-.5-1.1-.8 1.9-.4 3.1-.2 2.9-1.3 3.2-1.1.3-.7-.3-1.8.6-1.1 1-1.1-1.1-1.5.9-.5 2-.1 3.5 0 4.1.1.6-2.5 4.4-2.5 4.4s-2.4 2.6-.1 1.9c2.3-.6 1.9-.2 2.6-1.6s.7-2.9 1.9-3.4 1.5-1 1.9-.8c.4.2 1.3 1 .4 1.8-1 .8-1.8 1.3-1.9 2.1-.1.8.8 1.6 1.8 2.8 1 1.1 1.5 1 2.3 2.8s-.7 1 .7 2.4 2.4 1.3 2.6 0c.2-1.3-.4-5.4.7-2.9 1.1 2.4 1.8 2.9.8 3.9s-1.6 1.1-1.6 1.1l.5 3.1s.5-1.1.8-1.3c.4-.2-.3-1.8.8-.3l1.1 1.5s.4.2 0 1-.8 0 .2 2.1-.3 1 .9 2.1 1.5 1.3 2 1.8.4 1.3 0 1.3-2-.8-2-.8-1.2.2.1 1.6c1.3 1.5 1.3 1.1 2.2 2.3.9 1.1 2.2.3.9 1.1-1.3.8-3.6 0-3.6 0s1-1.1-.8.4c-1.8 1.4-3.8 3.4-2.7 1.4 1.1-1.9 2.7-.2 2.5-2.3-.2-2.1-2.4-5-2.4-5s-1.2-2.3-1.8-3.2c-.6-1-1-1.1-1.3-1.1-.4 0-1 .3-1.9.8-.5.3-.9.3-1.2.3-.1.4-.4-.1-.4-.1s.1.1.4.1c0-.2.1-.6 0-1.4l-.2-2.4s.1-.3-1.2-.3 1.3 1.6-1.3 0-2.7-2.3-3.5-2.3-1-.5-2.2.5c-1.2 1-.5.8-2.1 1.8-1.7 1-.8 1.5-3.3.8-2.5-.6-2-.5-3.6-.6-1.5-.2-2.5-.5-2.9 0-.4.5-.6 3.4-.6 3.4s-3.8-.6-4.9-2.9c-1.3-2.5-.1-2.3 1.7-1.5z"/><path fill="#A8583B" d="M161.6 72.3c-.2 0-.4-.1-.4-.1s.3.5.4.1z"/><path fill="#A8583B" d="M140.7 71.7s.2-2.9.6-3.4c.4-.5 1.3-.2 2.9 0 1.5.2 1.1 0 3.6.6s1.7.2 3.3-.8c1.7-1 1-.8 2.1-1.8 1.2-1 1.4-.5 2.2-.5s.9.6 3.5 2.3c2.6 1.6 0 0 1.3 0s1.2.3 1.2.3l.2 2.4c.1.8.1 1.2 0 1.4.3 0 .7 0 1.2-.3 1-.5 1.5-.8 1.9-.8.4 0 .7.2 1.3 1.1.6 1 1.8 3.2 1.8 3.2s2.1 2.9 2.4 5c.2 2.1-1.4.3-2.5 2.3-1.1 1.9 1 0 2.7-1.4 1.8-1.4.8-.4.8-.4s2.3.8 3.6 0c1.3-.8 0 0-.9-1.1s-.9-.8-2.2-2.3c-1.3-1.5-.1-1.6-.1-1.6s1.7.8 2 .8c.4 0 .5-.8 0-1.3s-.8-.6-2-1.8c-1.2-1.1 0 0-.9-2.1s-.5-1.3-.2-2.1c.4-.8 0-1 0-1l-1.1-1.5c-1.1-1.5-.5.2-.8.3-.4.2-.8 1.3-.8 1.3l-.5-3.1s.6-.2 1.6-1.1c1-1 .3-1.5-.8-3.9s-.5 1.6-.7 2.9c-.2 1.3-1.2 1.5-2.6 0s0-.6-.7-2.4-1.3-1.6-2.3-2.8c-1-1.1-1.9-1.9-1.8-2.8.1-.8 1-1.3 1.9-2.1 1-.8 0-1.6-.4-1.8-.4-.2-.7.3-1.9.8s-1.2 1.9-1.9 3.4-.4 1-2.6 1.6c-2.3.6.1-1.9.1-1.9s2.6-3.7 2.5-4.4c-.1-.6-.5-2.1 0-4.1.5-2 .5.1 1.5-.9 1.1-1 .7-.3 1.8-.6s1-.2 1.3-3.2c.4-3.1 0 0 .8-1.9s1.2-1 2.3-1.8c1.1-.8 0 0-.6-1.9s.2-1.8 1-2.9c.7-1.1 1.9 1 2.7.5.8-.5 0 0-1.7-2.1s-2.1-3.2-3-5.2-1.6-1.8-3.9-3.6 0 0 .6 1.1 2.4 3.4 2.4 5.4c0 1.9.5 4.5.8 6.3.4 1.8-1 2.6-1.1 1.9-.1-.6-1.3-1.9-1.3-1.9s-.1 3.1-1 4.4c-.8 1.3-3.7 3.9-5 4.5-1.3.6-1.7.8-4.5 2.9-.5.4-.8.6-1.1.9.2-.7 0-.9 0-.9s-1.3.6-2.5 1.6-.6 2.1-1.1 3.9c-.5 1.8-.8 1.1-.8 3.2s-.2 5.8-1.9 6.2c-1.6.3-.3-4.2 0-7.6.2-3.4-1.1 1.9-1.5 3.8-.5 1.9.7 5.6 0 6.3s-2.5-7.1-4.1-6.2c-1.6.8 1.5 9.1-.3 8.3-1.8-.8-3-1-1.9 1.3 1.3 2.5 5.1 3.1 5.1 3.1zm8.5-20.9c.2-.4.3-.7.4-.9.2.1.4.2.5.4.4.8 0 1.8-.2 4.2-.2 2.4.4 2.4 0 6s-1.5-.5-1.8-3.2c-.3-2.8.1-4.1 1.1-6.5zm13.4 85.8c.6-.3-1.4-6.5-1.4-6.5l-1.4-1.5c.5-1.6 1-2.1 0-2.6s-.6.8-1-.5l-.4-1.3 1.3-2.4s1.3-3.4-.6-2.1c-1.9 1.3-1.4 1.9-1.9 1.3-.5-.6-.5-1.1-.5-1.9s-.7 1.6 0-.8c.7-2.4-.2-.5.7-2.4 1-1.9.2-1.3 1.5-3.2 1.3-1.9.6-1.8 1.3-1.9.7-.2 1-.2 1.4 0 .5.2 3.9.6 1.5-1.5l-2.4-2.1s-2-3.2-1.9-1.9c.1 1.3.5 2.3.4 2.9-.1.6-.2 1.1-1 1.3s1.4 3.9-.7.2c-2.1-3.7-1.2-2.9-2.1-3.7-1-.8-1.9-1.3-1.9-1.3l-1-1.5s.2-.6 1.2-.3 1.5.6 1.5.6-.2 1.1.5 0 1.9-1.1 0-2.4-2.6-1.3-2.6-1.3l-1-2.6s.2 0 1-.3c.7-.3.1-.3 2.1-.3 1.9 0 2.1-1.1 3.3 0 1.2 1.1.4 0 1.4 2.6s1.4 4.5 1.4 4.5 1.1 1.3 1.8 2.1 2 2.9 1.5 1l-.5-1.9-1.9-2.9s1.4-.5 2.3-.2c.8.3 1.7 1 2.5 1s3.1-1 3.1-1 1.5-.5-.4-1.3-1.8-1-3.1-1.3c-1.3-.3-2.5-2.3-2.5-2.3h1.1c1.3 0 2.5.2 3.7.5 1.2.3.8 1.1 2.1.3s2.1-1 1.9-1.9c-.2-1 0-3.9 0-3.9v-2.4s.6-1.5.6-1.9c0-.5-1.1-1.5-.6-1.6.5-.2.7-.6 1.2-.8.5-.2.1-1.1-1.2-1.1h-3.7s-1.5 2.3-1.1 2.6c.5.3 1.1-1.3 2.3 0 1.2 1.3 1.4 2.9 1.4 2.9s-.2.6-1.4 1.5c-1.1.8-2.7 1.3-2.9 2.4-.2 1.1-1.4 1.5 0 1.6s1.9.2 2.3-.6c.4-.8 1.5-3.2 1.2-1.8-.2 1.5-.2 2-.2 2.5s-.2.7-1 .9c-.8.2-2.2.6-3 0-.9-.6-1.2-.3-1.5-1.8s-1.2-2.9-1.2-2.9-.6-1.1-.6 1-1.2 2.6-1.2 2.6-.4 1-1.1-1.1c-.7-2.1-.8-4.2-1.7-3.6s-.6.2-1.9 1.6c-1.3 1.5 2.6 1.5-1.3 1.5s-3.8-.2-4.8-.8c-1-.6-.7-2.6-1.5-2.3-.8.3-1.2.5-2.1.8-1 .3-1.9.3-2.5.3-.6 0-.1 1.3-.6 0s1.1-3.1-1.2-2.6-2.4-.6-2.3.5c.1 1.1 1.9.3.1 1.1-1.8.8-1.7 1.1-2.4.8-.7-.3-.6-2.9-.7-.3-.1 2.6-.6 2.3.8 2.6s2.3.5 2.9.5c.6 0 .6-1.3 1.8-.8 1.2.5 3.2 1 2.1 1.5s-1.2.2-1.5.6c-.4.5-.1 1.9.2 2.4.4.5.6-1.1.4.5s.4 1.5 1.2 2.4c.8 1 1.3.8 1.4 1.6.1.8-1.1 1.6-1.1 1.6s-.7.5-1.4 0-2.3-3.9-2.7-1.8c-.5 2.1-1.1 1.9.4 3.2s1.8 2.1 2.4 2.1c.6 0 2.4-1.6 3-1.8s1.3.2 1.7 1c.4.8.4 1.9.1 2.4-.2.5-1.3.5-.2 2.3s1.1 2.6 1.4 3.4c.4.8-.2 1.5.7 2.1 1 .6 1.5.8 1.8 2.3s.6 1.6-.2 2.9-1.5 1.6-1.7 2.3c-.1.6 1.5.3 2.3.2.7-.2 1 1.1.6 1.3-.4.2-2.4 2.6-2.1 3.1.2.5.5 0 1.5 0 1.1 0 .1-1.5 1.1 0s1.3 6 1.3 6v6s1-2.1 1.3 0c.4 2.1-.1 4.4.4 5.7.5 1.3.7.8.5 3.1-.2 2.3-1.9 3.7-.2 2.9 1.7-.8 1.2-2.1 1.4-3.1.2-1 .5-3.9.5-3.9s-.7-1.6.2-1.6.2 1.1 1 0 1.2-1 .6-2.4-1.4-1.8-.8-2.8c.7-1.3.6-1.8 1.2-2.1z"/><path fill="#8B482E" d="M189.7 211l-.1-.2 2-.5s.6.8 0-1.6c-.6-2.5-.4-1.9-1.1-3.6-.7-1.6-.2-1.9-2.6-4.9s-3.1-4.4-3.1-5.2v-3.8s.2.3 0-1.4l-.2-1.6 2.4-.5 1.7-2.2s-8.1-3.3-10.7-9.9c0 0-1.2-2.5 0 1.6s1 2.2 1.2 4.1-.1 3.3-.9 2.5-1-2.2-2-1.4c-1 .8-1.4-.1-1.4 1.6s-.7 3.9-2.1 5-3.1 2.5-3.1 2.5h2.1c1.2 0 1.4-2.7 1.2 0-.2 2.7-1.2 1.6-1.9 4.1-.7 2.5-.7-1.1-.7 2.5s.7 4.1-.7 4.9c-1.4.8-1.4.3-2.9 1.6-.9.8-2 1.8-2.8 2.4-.5.4-.8.6-.8.6l3.8-1.1c-1.4 3-4.3 2.2-1.4 3 2.9.8 2.9 1.1 4.5 0l1.7-1.1c0 3 .3.8-.6 3.8s-.2 4.1 1.5 3.6 2.1-5.3 2.1-6c0-.8 0-1.5.1-2.7.1-.7.2-1.3.3-1.8.3-1.5.7-2.6.7-2.6s1.2.5 1-1.4-.7.5-.7-3.8-.7-3.3.2-5.8c1-2.5 1.6-2.7 2.9-3.6s1.3-.8 1.3-.8v2.2s.2 1.1 0 1.9.1 1.6.1 1.6l1.1 2.3s-1 2.6-1.7 3.5c-.7.8-.2-.5-.7.8-.5 1.4-1.7-1.4-.5 1.4 1.2 2.7 2.9 3.8 2.9 3.8l.5 2.7s-1.4.5-2.6-1.1l-1.2-1.6-.5 3.8 4.3 1.1c-.5 1.4-.5 1.9-1.7 1.6-1.2-.3-4.3-1.9-4.3-1.9s0 3.8 1.7 4.4l1.7.5.7 1.5c-2.1.1-5.7 0-5.7 0s-1.4.1-.2 1.5 1.7 1.6 2.4 1.6 1.2.8 2.9 0c.6-.3 1-.8 1.3-1.3.1.1.2.3.3.5 1.2 1.6 3.3 1.2 3.3 1.2 1.7 1 3.3 2.4 3.8 2.4h.5c1.2 0 3.6-.5 1.7-2.2-1.9-1.6-.2-.3-1.9-1.6s-1.7-1.4-1.7-1.4l-1.2-1.9s-.2-1.6 1.9-.3c2.1 1.4 1 1.1 2.1 1.4l1.2.3s0-.1.1-.1c-1.6-2.5-.3-2.3-3.2-8.1 0 0 .8 1.6 1.7 3.2zm-3.4-1.3c-1.4 3.6 2.1-1.4-1.4 3.6-1.8 2.4-2.9 3.3-3.5 3.7.3-.7.5-1.5.9-2.3 1-1.9 1.2-.8 1.4-3 .2-2.2-.2-1.4 0-3.3s.9-3.3.1-4.1c-.8-.8-3.6-2.2-2.4-3 1.2-.8-1.7-2.5 1.2-.8 2.9 1.6 1.7 0 2.9 1.6s2.4 2.2 2.9 3c.5.8 0 2.5 0 2.5-2.1 2.1-.7-1.5-2.1 2.1zm13.9-13.8c-.2-.2-.4-.2-.4-.2l.4.2z"/><path fill="#8B482E" d="M186.3 190.2l1.2.5c-.8-1.4-1.2-.5-1.2-.5zm35.5 19.2s-1.9-1.6-1.7.3 2.1 4.1 2.1 4.1.3 0 .6.1c.5-.6 1-1.2 1.6-1.8-1.9-1.6-2.6-2.7-2.6-2.7zm-3.6 2.7c0-.5 1 .8 0-2.2s.7-2.5-1-3-2.9-3-1.7-.5 1.2 5.8 1.2 5.8c-1.2 1.1 0 1.7-1.2 1.1-1.2-.5-2.4-1.1-2.4-1.1s0-2.5-1-1.4-.7 1.9-.2 3c.5 1.1 1.2 3.3 1.2 3.3s.7 2.2-2.4-.5-3.8-3.6-3.8-4.4 0-1.4.2-2.2c.2-.8 1.7-1.6 1.7-1.6s.2 2.2 2.1 0c1.9-2.2 2.6-.8 1.9-2.2-.7-1.4 1.2 0-.7-1.4s-2.1-1.6-2.9-1.9l-.7-.3s1-1.4-1.7 1.1l-2.6 2.5-.7-1.9s1.9.3 1.9-1.4c0-1.6 1 .3 0-1.6s-1.9-1.6-2.9-3c-.7-1-1.9-1.9-2.5-2.3.4.3 1.1 1 1.3 2.3.2 1.9 1.9 1.3.2 1.9-1.7.5 2.6-.8-1.7.5-4.3 1.4-3.8-.3-4.3 1.4-.5 1.6 1 .5-.5 1.6-1.4 1.1.2 6.3-2.6.5-2.8-5.7-1.2-8.8-1.2-8.8l.7-3-4.7-1.7c.3.5.7 1.3 1.2 2.6 1.7 4.7 1.7 11.2 2.4 12.9.7 1.6 0 2.2 2.1 3.8 2.1 1.6 3.1 1.9 3.8 3l.7 1.1s-.2.3-2.4 0-2.1-.3-2.1-.3-.5.2-1.2.4c-.4.1-1.4-1.6-2.3-3.2-.9-1.6-1.7-3.2-1.7-3.2 2.9 5.8 1.6 5.6 3.2 8.1.2.3.5.8.9 1.2 2.1 2.8 2.4 2.5 3 3.8.2.5.5 1.1.8 2.2 1.4 4.1.7 4.7 1.9 5.8 1.2 1.1 2.6 2.5 2.6 2.5l-1.4-4.1c2.6.8 4.2 2.1 3.6 1.1-1.9-2.7-10-13.4-6.9-9.9 3.1 3.6 8.8 8 8.1 6.6-.7-1.4-1-3.8-2.6-3.3s-1-2.5-1-2.5 1.4-.8 2.4 0 .1 2.7 1.3 2.5c1.1-.3 1.1 3.8 1.1-.3v-4.9s-1 1.9-2.4-.3c-1.4-2.2-1-2.7-1.9-4.1s-3.1-1.9-2.1-3.8 1-2.5 2.1-2.2c1.2.3 2.1 3.3 2.4 4.5.2 1.2.2 1.5 1.9 3.2 1.7 1.6 2.1 1.6 3.3 3.3 1.2 1.6 1.7 1.4 4 4.7.8 1.2 1 1.6.9 1.8 2.3-2.1 4.5-4.2 6.7-6.4-.6-1.4-1.2-2.5-1.2-2.5s-.2-2.1-.2-2.7z"/><path fill="#717268" d="M69.7 209.7c1.4 3.6-2.1-1.4 1.4 3.6 1.8 2.4 2.9 3.3 3.5 3.7-.3-.7-.5-1.5-.9-2.3-1-1.9-1.2-.8-1.4-3-.2-2.2.2-1.4 0-3.3s-.9-3.3-.1-4.1c.8-.8 3.6-2.2 2.4-3-1.2-.8 1.7-2.5-1.2-.8-2.9 1.6-1.7 0-2.9 1.6s-2.4 2.2-2.9 3c-.5.8 0 2.5 0 2.5 2.1 2.1.7-1.5 2.1 2.1z"/><path fill="#717268" d="M128 176.4s-25.2 2.5-34.5-6.2c-8-7.5-10.4-29.3-15.2-43.4l.2 2.6c-.6.5-1.3.8-2.1 1 1.3 13.4 3.4 40.1-.5 46.6 0 0-14.5 12.1-21.2 17-3.1 2.3-13.3 9.3-24.3 16.8.4.5.8.9 1.2 1.4 1.9-1.6 2.6-2.7 2.6-2.7s1.9-1.6 1.7.3-2.1 4.1-2.1 4.1-.3 0-.6.1c1 1.1 2 2.1 3 3.2.6-1.4 1.2-2.5 1.2-2.5s.5-1.9.5-2.5-1 .8 0-2.2-.7-2.5 1-3 2.9-3 1.7-.5-1.2 5.8-1.2 5.8c1.2 1.1 0 1.7 1.2 1.1 1.2-.5 2.4-1.1 2.4-1.1s0-2.5 1-1.4.7 1.9.2 3c-.5 1.1-1.2 3.3-1.2 3.3s-.7 2.2 2.4-.5 3.8-3.6 3.8-4.4 0-1.4-.2-2.2c-.2-.8-1.7-1.6-1.7-1.6s-.2 2.2-2.1 0c-1.9-2.2-2.6-.8-1.9-2.2.7-1.4-1.2 0 .7-1.4s2.1-1.6 2.9-1.9l.7-.3s-1-1.4 1.7 1.1l2.6 2.5.7-1.9s-1.9.3-1.9-1.4c0-1.6-1 .3 0-1.6s1.9-1.6 2.9-3c.7-1 1.9-1.9 2.5-2.3.2-.2.4-.2.4-.2s-.1.1-.4.2c-.4.3-1.1 1-1.3 2.3-.2 1.9-1.9 1.3-.2 1.9 1.7.5-2.6-.8 1.7.5 4.3 1.4 3.8-.3 4.3 1.4.5 1.6-1 .5.5 1.6 1.4 1.1-.2 6.3 2.6.5 2.8-5.7 1.2-8.8 1.2-8.8l-.7-3 4.7-1.7c.8-1.3 1.2-.5 1.2-.5l-1.2.5c-.3.5-.7 1.3-1.2 2.6-1.7 4.7-1.7 11.2-2.4 12.9-.7 1.6 0 2.2-2.1 3.8-2.1 1.6-3.1 1.9-3.8 3l-.7 1.1s.2.3 2.4 0 2.1-.3 2.1-.3.5.2 1.2.4c.4.1 1.4-1.6 2.3-3.2l.1-.2-2-.5s-.6.8 0-1.6c.6-2.5.4-1.9 1.1-3.6.7-1.6.2-1.9 2.6-4.9s3.1-4.4 3.1-5.2v-3.8s-.2.3 0-1.4l.2-1.6-2.4-.5-1.7-2.2s8.1-3.3 10.7-9.9c0 0 1.2-2.5 0 1.6s-1 2.2-1.2 4.1c-.2 1.9.1 3.3.9 2.5s1-2.2 2-1.4c1 .8 1.4-.1 1.4 1.6s.7 3.9 2.1 5 3.1 2.5 3.1 2.5h-2.1c-1.2 0-1.4-2.7-1.2 0 .2 2.7 1.2 1.6 1.9 4.1.7 2.5.7-1.1.7 2.5s-.7 4.1.7 4.9c1.4.8 1.4.3 2.9 1.6.9.8 2 1.8 2.8 2.4.5.4.8.6.8.6l-3.8-1.1c1.4 3 4.3 2.2 1.4 3-2.9.8-2.9 1.1-4.5 0l-1.7-1.1c0 3-.3.8.6 3.8s.2 4.1-1.5 3.6-2.1-5.3-2.1-6c0-.8 0-1.5-.1-2.7-.1-.7-.2-1.3-.3-1.8-.3-1.5-.7-2.6-.7-2.6s-1.2.5-1-1.4.7.5.7-3.8.7-3.3-.2-5.8c-1-2.5-1.6-2.7-2.9-3.6s-1.3-.8-1.3-.8v2.2s-.2 1.1 0 1.9-.1 1.6-.1 1.6l-1.1 2.3s1 2.6 1.7 3.5c.7.8.2-.5.7.8.5 1.4 1.7-1.4.5 1.4-1.2 2.7-2.9 3.8-2.9 3.8l-.5 2.7s1.4.5 2.6-1.1l1.2-1.6.5 3.8-4.3 1.1c.5 1.4.5 1.9 1.7 1.6 1.2-.3 4.3-1.9 4.3-1.9s0 3.8-1.7 4.4l-1.7.5-.7 1.5c2.1.1 5.7 0 5.7 0s1.4.1.2 1.5-1.7 1.6-2.4 1.6-1.2.8-2.9 0c-.6-.3-1-.8-1.3-1.3-.1.1-.2.3-.3.5-1.2 1.6-3.3 1.2-3.3 1.2-1.7 1-3.3 2.4-3.8 2.4h-.5c-1.2 0-3.6-.5-1.7-2.2 1.9-1.6.2-.3 1.9-1.6s1.7-1.4 1.7-1.4l1.2-1.9s.2-1.6-1.9-.3c-2.1 1.4-1 1.1-2.1 1.4l-1.2.3s0-.1-.1-.1c-.2.3-.5.8-.9 1.2-2.1 2.8-2.4 2.5-3 3.8-.2.5-.5 1.1-.8 2.2-1.4 4.1-.7 4.7-1.9 5.8-1.2 1.1-2.6 2.5-2.6 2.5l1.4-4.1c-2.6.8-4.2 2.1-3.6 1.1 1.9-2.7 10-13.4 6.9-9.9-3.1 3.6-8.8 8-8.1 6.6.7-1.4 1-3.8 2.6-3.3s1-2.5 1-2.5-1.4-.8-2.4 0-.1 2.7-1.3 2.5c-1.1-.3-1.1 3.8-1.1-.3v-4.9s1 1.9 2.4-.3c1.4-2.2 1-2.7 1.9-4.1s3.1-1.9 2.1-3.8-1-2.5-2.1-2.2c-1.2.3-2.1 3.3-2.4 4.5-.2 1.2-.2 1.5-1.9 3.2-1.7 1.6-2.1 1.6-3.3 3.3-1.2 1.6-1.7 1.4-4 4.7-.8 1.2-1 1.6-.9 1.8C65.5 243.7 95.3 256 128 256v-79.6z"/><path fill="#5E5F56" d="M78.3 126.8c-.8-2.3-1.6-4.4-2.6-6.2-6.7-12.6-1.8-26.5-1.8-35.7-1.8-1.2-4.5-2.9-6.1-3.9-2.6-1.6-5.5 0-6.7 5.2-1.2 5.2 3.6 17.3 3.6 23 0 5.8 3.1 15.4 3.7 17.3.5 1.6 4.5 4.6 7.9 3.9.7-.1 1.4-.4 2.1-1l-.1-2.6z"/><path fill="#848479" d="M106 60.4c.4 3.6 1.5-.5 1.8-3.2.4-2.7 0-4-1.1-6.5-.2-.4-.3-.7-.4-.9-.2.1-.4.2-.5.4-.4.8 0 1.8.2 4.2.2 2.4-.4 2.4 0 6z"/><path fill="#848479" d="M75.7 120.7c.9 1.8 1.8 3.9 2.6 6.2 4.9 14.1 7.3 35.9 15.2 43.4 9.3 8.7 34.5 6.2 34.5 6.2V8.4c-40.1 0-46.6 32-50.6 39.4-3.9 7.4-4.3 26.3-3.6 35.4 0 .6.1 1.1.1 1.7 0 9.2-4.9 23.1 1.8 35.8zm23.6 16.1v3.2s-1-2.1-1.3 0c-.4 2.1.1 4.4-.4 5.7-.5 1.3-.7.8-.5 3.1.2 2.3 1.9 3.7.2 2.9-1.7-.8-1.2-2.1-1.4-3.1-.2-1-.5-3.9-.5-3.9s.7-1.6-.2-1.6c-1 0-.2 1.1-1 0-.7-1.1-1.2-1-.6-2.4.6-1.5 1.4-1.8.8-2.7-.6-1-.5-1.5-1.1-1.8-.6-.3 1.4-6.5 1.4-6.5l1.4-1.5c-.5-1.6-1-2.1 0-2.6s.6.8 1-.5l.4-1.3-1.3-2.4s-1.3-3.4.6-2.1c1.9 1.3 1.4 1.9 1.9 1.3.5-.6.5-1.1.5-1.9 0-.8.7 1.6 0-.8-.7-2.4.2-.5-.7-2.4-1-1.9-.2-1.3-1.5-3.2-1.3-1.9-.6-1.8-1.3-1.9s-1-.2-1.4 0-3.9.6-1.5-1.5l2.4-2.1s2-3.2 1.9-1.9c-.1 1.3-.5 2.3-.4 2.9.1.6.2 1.1 1 1.3s-1.4 3.9.7.2c2.1-3.7 1.2-2.9 2.1-3.7 1-.8 1.9-1.3 1.9-1.3l1-1.5s-.2-.6-1.2-.3-1.5.6-1.5.6.2 1.1-.5 0-1.9-1.1 0-2.4c1.9-1.3 2.6-1.3 2.6-1.3l1-2.6s-.2 0-1-.3c-.7-.3-.1-.3-2.1-.3-1.9 0-2.1-1.1-3.3 0-1.2 1.1-.4 0-1.4 2.6-1.1 2.6-1.4 4.5-1.4 4.5s-1.1 1.3-1.8 2.1-2 2.9-1.5 1l.5-1.9 1.9-2.9s-1.4-.5-2.3-.2-1.7 1-2.5 1-3.1-1-3.1-1-1.5-.5.4-1.3 1.8-1 3.1-1.3c1.3-.3 2.5-2.3 2.5-2.3h-1.1c-1.3 0-2.5.2-3.7.5-1.2.3-.8 1.1-2.1.3s-2.1-1-1.9-1.9c.2-1 0-3.9 0-3.9V89s-.6-1.5-.6-1.9c0-.5 1.1-1.5.6-1.6-.5-.2-.7-.6-1.2-.8s-.1-1.1 1.2-1.1h3.7s1.5 2.3 1.1 2.6c-.5.3-1.1-1.3-2.3 0-1.5 1.2-1.6 2.8-1.6 2.8s.2.6 1.4 1.5c1.1.8 2.7 1.3 2.9 2.4.2 1.1 1.4 1.5 0 1.6-1.4.2-1.9.2-2.3-.6s-1.5-3.2-1.2-1.8c.2 1.5.2 1.9.2 2.5s.2.7 1 .9c.8.2 2.2.6 3 0 .9-.6 1.2-.3 1.5-1.8s1.2-2.9 1.2-2.9.6-1.1.6 1 1.2 2.6 1.2 2.6.4 1 1.1-1.1.8-4.2 1.7-3.6c.8.6.6.2 1.9 1.6 1.3 1.5-2.6 1.5 1.3 1.5 3.9 0 3.8-.2 4.8-.8 1-.6.7-2.6 1.5-2.3.8.3 1.2.5 2.1.8s1.9.3 2.5.3c.6 0 .1 1.3.6 0s-1.1-3.1 1.2-2.6 2.4-.6 2.3.5c-.1 1.1-1.9.3-.1 1.1 1.8.8 1.7 1.1 2.4.8.7-.3.6-2.9.7-.3.1 2.6.6 2.3-.8 2.6-1.4.3-2.3.5-2.9.5-.6 0-.6-1.3-1.8-.8-1.2.5-3.2 1-2.1 1.5s1.2.2 1.5.6c.4.5.1 1.9-.2 2.4-.4.5-.6-1.1-.4.5s-.4 1.5-1.2 2.4c-.8 1-1.3.8-1.4 1.6-.1.8 1.1 1.6 1.1 1.6s.7.5 1.4 0 2.3-3.9 2.7-1.8c.5 2.1 1.1 1.9-.4 3.2-1.4 1.3-1.8 2.1-2.4 2.1s-2.4-1.6-3-1.8-1.3.2-1.7 1c-.4.8-.4 1.9-.1 2.4.2.5 1.3.5.2 2.3s-1.1 2.6-1.4 3.4c-.4.8.2 1.5-.7 2.1s-1.5.8-1.8 2.3-.6 1.6.2 2.9c.8 1.3 1.5 1.6 1.7 2.3.1.6-1.5.3-2.3.2-.7-.2-1 1.1-.6 1.3.4.2 2.4 2.6 2.1 3.1-.2.5-.5 0-1.5 0-1.1 0-.1-1.5-1.1 0s-1.3 6-1.3 6c.1 0 .1.5.1 2.6zm-17.2-57c.9-1.1.9-.8 2.2-2.3 1.3-1.5.1-1.6.1-1.6s-1.7.8-2 .8c-.4 0-.5-.8 0-1.3s.8-.6 2-1.8c1.2-1.1 0 0 .9-2.1s.5-1.3.2-2.1c-.4-.8 0-1 0-1l1.1-1.5c1.1-1.5.5.2.8.3.4.2.8 1.3.8 1.3l.5-3.1s-.6-.2-1.6-1.1c-1-1-.3-1.5.8-3.9s.5 1.6.7 2.9c.2 1.3 1.2 1.5 2.6 0s0-.6.7-2.4 1.3-1.6 2.3-2.7c1-1.1 1.9-1.9 1.8-2.7-.1-.8-1-1.3-1.9-2.1-1-.8 0-1.6.4-1.8.4-.2.7.3 1.9.8s1.2 1.9 1.9 3.4.4 1 2.6 1.6c2.3.6-.1-1.9-.1-1.9s-2.6-3.7-2.5-4.4c.1-.6.5-2.1 0-4.1-.5-2-.5.1-1.5-.9-1.1-1-.7-.3-1.8-.6s-1-.2-1.3-3.2c-.4-3.1 0 0-.8-1.9s-1.2-1-2.3-1.8c-1.1-.8 0 0 .6-1.9s-.2-1.8-1-2.9c-.7-1.1-1.9 1-2.7.5-.8-.5 0 0 1.7-2.1s2.1-3.2 3-5.2 1.6-1.8 3.9-3.6 0 0-.6 1.1-2.4 3.4-2.4 5.3-.5 4.5-.8 6.3c-.4 1.8 1 2.6 1.1 1.9.1-.6 1.3-1.9 1.3-1.9s.1 3.1 1 4.4 3.7 3.9 5 4.5c1.3.6 1.7.8 4.5 2.9.5.4.8.6 1.1.9-.2-.7 0-.9 0-.9s1.3.6 2.5 1.6.6 2.1 1.1 3.9c.5 1.8.8 1.1.8 3.2s.2 5.8 1.9 6.2c1.6.3.3-4.2 0-7.6-.2-3.4 1.1 1.9 1.5 3.8.5 1.9-.7 5.6 0 6.3.7.7 2.5-7 4.1-6.2 1.6.8-1.5 9.1.3 8.2s3-1 1.9 1.3-4.9 2.9-4.9 2.9-.2-2.9-.6-3.4c-.4-.5-1.3-.2-2.9 0-1.5.2-1.1 0-3.6.6s-1.7.2-3.3-.8c-1.7-1-1-.8-2.1-1.8-1.2-1-1.4-.5-2.2-.5-.8 0-.9.6-3.5 2.3-2.6 1.6 0 0-1.3 0s-1.2.3-1.2.3l-.2 2.4c-.1.8-.1 1.2 0 1.4.2 0 .4-.1.4-.1s-.3.5-.4.1c-.3 0-.7 0-1.2-.3-1-.5-1.5-.8-1.9-.8-.4 0-.7.2-1.3 1.1-.6 1-1.8 3.2-1.8 3.2s-2.1 2.9-2.4 5c-.2 2.1 1.4.3 2.5 2.3 1.1 1.9-1 0-2.7-1.4s-.8-.4-.8-.4-2.3.8-3.6 0c-1.5-.6-.2.2.7-.9z"/><path fill="#8B482E" d="M81.2 80.9c1.3.8 3.6 0 3.6 0s-1-1.1.8.4 3.8 3.4 2.7 1.4c-1.1-1.9-2.7-.2-2.5-2.3.2-2.1 2.4-5 2.4-5s1.2-2.3 1.8-3.2c.6-1 1-1.1 1.3-1.1.4 0 1 .3 1.9.8.5.3.9.3 1.2.3 0-.2-.1-.6 0-1.4l.2-2.4s-.1-.4 1.2-.4-1.3 1.6 1.3 0 2.7-2.3 3.5-2.3c.8 0 1-.5 2.2.5 1.2 1 .5.8 2.1 1.8 1.7 1 .8 1.5 3.3.8 2.5-.6 2-.5 3.6-.6 1.5-.2 2.5-.5 2.9 0 .4.5.6 3.4.6 3.4s3.8-.6 4.9-2.9c1.1-2.3-.1-2.1-1.9-1.3s1.2-7.4-.3-8.2c-1.6-.8-3.4 7-4.1 6.2-.7-.7.5-4.4 0-6.3-.5-1.9-1.8-7.2-1.5-3.8.2 3.4 1.6 7.9 0 7.6-1.6-.3-1.9-4.1-1.9-6.2 0-2.1-.4-1.5-.8-3.2-.5-1.8.1-2.9-1.1-3.9-1.2-1-2.5-1.6-2.5-1.6s-.1.1 0 .9c-.3-.2-.6-.5-1.1-.9-2.9-2.1-3.2-2.3-4.5-2.9-1.3-.6-4.2-3.2-5-4.5s-1-4.4-1-4.4-1.2 1.3-1.3 1.9c-.1.6-1.4-.2-1.1-1.9.4-1.8.8-4.4.8-6.3s1.8-4.2 2.4-5.3c.6-1.1 2.9-2.9.6-1.1s-3 1.6-3.9 3.6-1.4 3.1-3 5.2c-1.7 2.1-2.5 1.6-1.7 2.1s2-1.6 2.7-.5c.7 1.1 1.5 1 1 2.9s-1.7 1.1-.6 1.9c1.1.8 1.4-.2 2.3 1.8s.5-1.1.8 1.9c.4 3.1.2 2.9 1.3 3.2 1.1.3.7-.3 1.8.6 1.1 1 1.1-1.1 1.5.9.5 2 .1 3.4 0 4.1-.1.6 2.5 4.4 2.5 4.4s2.4 2.6.1 1.9c-2.3-.6-1.9-.2-2.6-1.6s-.7-2.9-1.9-3.4-1.5-1-1.9-.8c-.4.2-1.3 1-.4 1.8 1 .8 1.8 1.3 1.9 2.1.1.8-.8 1.6-1.8 2.7s-1.5 1-2.3 2.7.7 1-.7 2.4-2.4 1.3-2.6 0c-.2-1.3.4-5.3-.7-2.9-.9 2.5-1.7 2.9-.7 3.9s1.6 1.1 1.6 1.1l-.5 3.1s-.5-1.1-.8-1.3c-.4-.2.3-1.8-.8-.3l-1.1 1.5s-.4.2 0 1 .8 0-.2 2.1.3 1-.9 2.1-1.5 1.3-2 1.8-.4 1.3 0 1.3 2-.8 2-.8 1.2.2-.1 1.6c-1.3 1.5-1.3 1.1-2.2 2.3-.8 1-2.1.2-.8 1zm24.6-30.7c.1-.2.4-.3.5-.4.1.3.2.6.4.9 1.1 2.4 1.4 3.7 1.1 6.5-.4 2.7-1.4 6.8-1.8 3.2s.2-3.6 0-6-.6-3.4-.2-4.2z"/><path fill="#8B482E" d="M94.7 72s-.1.1-.4.1c.2.4.4-.1.4-.1zm5.9 56.1c1-1.5 0 0 1.1 0s1.3.5 1.5 0c.2-.5-1.8-2.9-2.1-3.1-.4-.2-.1-1.5.6-1.3.7.2 2.4.5 2.3-.2-.1-.6-.8-1-1.7-2.3-.8-1.3-.5-1.5-.2-2.9s.8-1.6 1.8-2.3.4-1.3.7-2.1c.4-.8.4-1.6 1.4-3.4s0-1.8-.2-2.3c-.2-.5-.2-1.6.1-2.4.4-.8 1.1-1.1 1.7-1s2.4 1.8 3 1.8 1-.8 2.4-2.1.8-1.1.4-3.2c-.5-2.1-2 1.3-2.7 1.8s-1.4 0-1.4 0-1.2-.8-1.1-1.6c.1-.8.6-.6 1.4-1.6.8-1 1.4-.8 1.2-2.4s0 0 .4-.5.6-1.9.2-2.4c-.4-.5-.5-.2-1.5-.6-1.1-.5 1-1 2.1-1.5 1.2-.5 1.2.8 1.8.8.6 0 1.4-.2 2.9-.5 1.4-.3 1 0 .8-2.6-.1-2.6 0 0-.7.3s-.6 0-2.4-.8c-1.8-.8 0 0 .1-1.1s0 0-2.3-.5-.7 1.3-1.2 2.6 0 0-.6 0-1.5 0-2.5-.3-1.3-.5-2.1-.8c-.8-.3-.6 1.6-1.5 2.3-1 .6-.8.8-4.8.8-3.9 0 0 0-1.3-1.5s-1.1-1-1.9-1.6c-.8-.6-1 1.4-1.7 3.6s-1.1 1.1-1.1 1.1-1.2-.5-1.2-2.6-.6-1-.6-1-1 1.5-1.2 2.9-.6 1.1-1.5 1.8c-.9.6-2.2.2-3 0-.8-.2-1-.3-1-.9s0-1.1-.2-2.5c-.2-1.5.8 1 1.2 1.8s.9.8 2.3.6c1.4-.2.2-.5 0-1.6s-1.8-1.6-2.9-2.4c-1.1-.8-1.4-1.5-1.4-1.5s.1-1.6 1.4-2.9c1.2-1.3 1.9.3 2.3 0 .5-.3-1.1-2.6-1.1-2.6h-3.7c-1.3 0-1.7 1-1.2 1.1s.7.6 1.2.8c.5.2-.6 1.1-.6 1.6s.6 1.9.6 1.9v2.4s.3 2.9 0 3.9c-.2 1 .6 1.1 1.9 1.9 1.3.8 1 0 2.1-.3 1.2-.3 2.4-.5 3.7-.5h1.1s-1.2 1.9-2.5 2.3c-1.3.3-1.2.5-3.1 1.3-1.9.8-.4 1.3-.4 1.3s2.3 1 3.1 1 1.7-.6 2.5-1 2.3.2 2.3.2l-1.9 2.9-.5 1.9c-.5 1.9.8-.2 1.5-1s1.8-2.1 1.8-2.1.4-1.9 1.4-4.5c1.1-2.6.2-1.5 1.4-2.6s1.3 0 3.3 0c1.9 0 1.4 0 2.1.3.7.3 1 .3 1 .3l-1 2.6s-.7 0-2.6 1.3c-1.9 1.3-.7 1.3 0 2.4s.5 0 .5 0 .5-.3 1.5-.6 1.2.3 1.2.3l-1 1.5s-1 .5-1.9 1.3c-1 .8 0 0-2.1 3.7s0 0-.7-.2-.8-.6-1-1.3c-.1-.6.2-1.6.4-2.9.1-1.3-1.9 1.9-1.9 1.9l-2.4 2.1c-2.4 2.1 1.1 1.6 1.5 1.5s.7-.2 1.4 0 0 0 1.3 1.9.6 1.3 1.5 3.2c1 1.9 0 0 .7 2.4s0 0 0 .8 0 1.3-.5 1.9c-.5.6 0 0-1.9-1.3s-.6 2.1-.6 2.1l1.3 2.4-.4 1.3c-.4 1.3 0 0-1 .5s-.5 1 0 2.6l-1.4 1.5s-2 6.1-1.4 6.5c.6.3.5.8 1.1 1.8.6 1-.2 1.3-.8 2.7-.6 1.5-.1 1.3.6 2.4.7 1.1 0 0 1 0s.2 1.6.2 1.6.2 2.9.5 3.9c.2 1-.2 2.3 1.4 3.1 1.7.8 0-.6-.2-2.9s0-1.8.5-3.1 0-3.6.4-5.7 1.3 0 1.3 0v-5.9c.1.3.4-4.2 1.4-5.7z"/><path fill="#713821" d="M64.8 215.9l.1.1 1.2-.3c1.2-.3 0 0 2.1-1.4s1.9.3 1.9.3l-1.2 1.9-1.7 1.4c-1.7 1.4 0 0-1.9 1.6s.5 2.2 1.7 2.2h.5c.5 0 2.1-1.4 3.8-2.4 0 0 2.1.5 3.3-1.2.1-.2.3-.4.3-.5.3.5.7 1 1.3 1.3 1.7.8 2.1 0 2.9 0s1.2-.3 2.4-1.6c1.2-1.4-.2-1.5-.2-1.5s-3.6.1-5.7 0l.7-1.5 1.7-.5c1.7-.5 1.7-4.4 1.7-4.4s-3.1 1.6-4.3 1.9c-1.2.3-1.2-.3-1.7-1.6l4.3-1.1-.5-3.8-1.2 1.6c-1.2 1.6-2.6 1.1-2.6 1.1l.5-2.7s1.7-1.1 2.9-3.8c1.2-2.7 0 0-.5-1.4s0 0-.7-.8-1.7-3.5-1.7-3.5l1.1-2.3s.3-.8.1-1.6 0-1.9 0-1.9v-2.2l1.3.8c1.3.8 2 1.1 2.9 3.6 1 2.5.2 1.4.2 5.8s-.5 1.9-.7 3.8 1 1.4 1 1.4.4 1 .7 2.6l.3 1.8c.1 1.3.1 1.9.1 2.7 0 .8.4 5.5 2.1 6s2.4-.5 1.5-3.6-.6-.8-.6-3.8l1.7 1.1c1.7 1.1 1.7.8 4.5 0 2.9-.8 0 0-1.4-3l3.8 1.1s-.3-.2-.8-.6c-.8-.6-1.9-1.5-2.8-2.4-1.4-1.4-1.4-.8-2.9-1.6-1.4-.8-.7-1.4-.7-4.9 0-3.6 0 0-.7-2.5s-1.7-1.4-1.9-4.1c-.2-2.7 0 0 1.2 0h2.1s-1.7-1.4-3.1-2.5-2.1-3.3-2.1-5-.5-.8-1.4-1.6c-1-.8-1.2.5-2 1.4s-1.1-.5-.9-2.5c.2-1.9 0 0 1.2-4.1s0-1.6 0-1.6c-2.6 6.6-10.7 9.9-10.7 9.9l1.7 2.2 2.4.5-.2 1.6c-.2 1.6 0 1.4 0 1.4v3.8c0 .8-.7 2.2-3.1 5.2s-1.9 3.3-2.6 4.9c-.7 1.6-.5 1.1-1.1 3.6-.6 2.5 0 1.6 0 1.6l2 .5-.1.2c.9-1.6 1.7-3.2 1.7-3.2-2.9 5.7-1.6 5.6-3.2 8.1zm3-8.4s-.5-1.6 0-2.5c.5-.8 1.7-1.4 2.9-3s0 0 2.9-1.6 0 0 1.2.8-1.7 2.2-2.4 3c-.8.8-.2 2.2.1 4.1s-.2 1.1 0 3.3c.2 2.2.5 1.1 1.4 3 .4.8.7 1.6.9 2.3-.6-.4-1.8-1.2-3.5-3.7-3.6-4.9 0 0-1.4-3.6s-.2.1-2.1-2.1z"/><path fill="#713821" d="M43.8 221.7c2.4-3.3 2.9-3 4-4.7 1.2-1.6 1.7-1.6 3.3-3.3 1.7-1.6 1.7-1.9 1.9-3.2.2-1.2 1.2-4.2 2.4-4.5 1.2-.3 1.2.3 2.1 2.2s-1.2 2.5-2.1 3.8-.5 1.9-1.9 4.1c-1.4 2.2-2.4.3-2.4.3v4.9c0 4.1 0 0 1.1.3s.3-1.6 1.3-2.5c1-.8 2.4 0 2.4 0s.7 3-1 2.5c-1.6-.5-1.9 1.9-2.6 3.3-.7 1.4 5-3 8.1-6.6 3.1-3.6-5 7.1-6.9 9.9-.7 1 1-.3 3.6-1.1l-1.4 4.1s1.4-1.4 2.6-2.5c1.2-1.1.5-1.6 1.9-5.8.4-1.1.6-1.8.8-2.2.6-1.3.9-1 3-3.8.4-.5.6-.9.9-1.2 1.6-2.5.3-2.3 3.2-8.1 0 0-.8 1.6-1.7 3.2-.9 1.6-2 3.3-2.3 3.2-.7-.2-1.2-.4-1.2-.4l-2.1.3c-2.1.3-2.4 0-2.4 0l.7-1.1c.7-1.1 1.7-1.4 3.8-3 2.1-1.6 1.4-2.2 2.1-3.8.7-1.6.7-8.2 2.4-12.9.5-1.3.8-2.1 1.2-2.6l-4.7 1.7.7 3s1.6 3.1-1.2 8.8c-2.8 5.7-1.2.5-2.6-.5-1.4-1.1 0 0-.5-1.6s0 0-4.3-1.4 0 0-1.7-.5 0 0 .2-1.9c.2-1.3.9-2 1.3-2.3-.6.4-1.8 1.2-2.5 2.3-1 1.4-1.9 1.1-2.9 3s0 0 0 1.6 1.9 1.4 1.9 1.4l-.7 1.9-2.6-2.5c-2.6-2.5-1.7-1.1-1.7-1.1l-.7.3c-.7.3-1 .5-2.9 1.9s0 0-.7 1.4 0 0 1.9 2.2 2.1 0 2.1 0 1.4.8 1.7 1.6c.2.8.2 1.4.2 2.2s-.7 1.7-3.8 4.4-2.4.5-2.4.5.7-2.2 1.2-3.3c.5-1.1.7-1.9-.2-3s-1 1.4-1 1.4-1.2.6-2.4 1.1c-1.2.5 0 0-1.2-1.1 0 0 0-3.3 1.2-5.8s0 0-1.7.5 0 0-1 3 0 1.6 0 2.2-.5 2.5-.5 2.5-.6 1.1-1.2 2.5c2.2 2.2 4.4 4.4 6.7 6.4.2 0 .3-.4 1.2-1.6zm12-25.8l.4-.2-.4.2zm-19.9 13.8c.2-1.9-1.7-.3-1.7-.3s-.7 1.1-2.6 2.7c.5.6 1 1.2 1.6 1.8.3-.1.6-.1.6-.1s1.9-2.2 2.1-4.1z"/><path fill="#713821" d="M68.5 190.6l1.2-.5c0 .1-.4-.8-1.2.5z"/></svg>