<svg xmlns="http://www.w3.org/2000/svg" width="256" height="256"><circle fill="#B1B3B5" cx="128" cy="128" r="128"/><path fill="#352B1A" d="M65.7 170.8zm9.3 8.6c1.7-.9 4.3-2 7.6-2.3.1-.9.1-1.8.2-2.7-7.4 1.1-11.7.1-14.1-1.1 2.4 2.3 4.6 4.4 6.3 6.1z"/><path fill="#1A1000" d="M75 179.4c.8.9 1.5 1.6 1.9 2.2.6.8 2.1 2.2 4.1 3.9.8-2.4 1.2-5.3 1.5-8.5-3.2.5-5.8 1.5-7.5 2.4z"/><path fill="#2F2514" d="M180.4 169.1c2.1-1.7 2.4-3.6-.4-3.8-2.7-.2-7.4 2-7.8 2.2-.1 3.2 0 6.6.3 9.7 3.2-3.3 6.7-7.1 7.9-8.1z"/><path fill="#C08C76" d="M146.3 201.2c4.5-4.2 16.3-16.6 19.5-18.1 1.4-.7 4-3.1 6.6-5.8-.3-3.1-.3-6.5-.3-9.7v-.2c0-1.3.1-2.6.1-3.8-.1-.1-.3-.2-.4-.3-1.3 1.6-3.2 3.5-3.6 4.1-.6.9-4.3 2-4.3 2l1.1-4.4-4.9 6.4-7.4 6.3-.6-3.1-4.6 1.7-3.7 1.4h-5.1l-1.4-2s-5.4 7.4-10 7.4v29.3c.2 0 14.5-7.1 19-11.2z"/><path fill="#B17D6B" d="M81 185.6c10 8.6 33.6 25.9 37 26.8 4.3 1.2 9.4 0 9.4 0v-29.3c-4.6 0-10-7.4-10-7.4l-1.4 2h-5.1l-3.7-1.4-4.6-1.7-.6 3.1-7.4-6.3-4.9-6.4 1.1 4.4s-3.7-1.1-4.3-2c-.4-.6-2.3-2.5-3.6-4.1-.1.1-.3.2-.4.3.2 3.5.2 7.3 0 10.9 0 .9-.1 1.8-.2 2.7 0 3.1-.5 6-1.3 8.4z"/><path fill="#6A675B" d="M215.8 121.4c-.4 1.7-.8 2.8-.8 2.8.5-.9.8-1.9.8-2.8zm-43.5 42.1s.3-.1.7-.1c0-.7.1-1.5.1-1.9-.1.4-.6 1-1.2 1.7.1.2.2.2.4.3z"/><path fill="#6A675B" d="M189 158.3c3.1 4.2 1.4 1.6 3.1 4.2 1.7 2.6 4-2 4-2s-2.3-1.5 1.4-3.7c3.7-2.2 2.3 1.9 3.7-2.2 1.4-4.1 2.9-5.5 2.9-7.2v-6.3s2.9 5.9 2.6 9.7c0 0 2.9-8.3 0-13.4s-4-4.6-2.6-6.6 3.9-4.8 3.9-4.8 1.8-1.2 2.1-2 2.9-7.7 2.9-7.7v-3.1s3.3 3.9 2.8 8.3c.8-3 1.5-8 .1-12-1.6-4.3-2.1-4.5-2.7-5.1h-2.3l2 3.4-2.9 4h-6s3.4 10 1.4 12.3c0 0-5.4-10-7.7-12-1-.9-2.6-1.4-4.1-1.8v.3c0 2.3-.1 4.3-.3 6l.7 1.4-.8-.3c-1 7.1-3.2 10.3-3.5 11.5-.2 1-2 2.9-4.1 4.5.6 2 1.1 4 1 4.4-.3.9-2.6 5.4-2.6 5.4s0 4-.6 6-2.6 5.7-3.7 6.9c-.8.8-2.7 4.4-4.5 6.8 2.7-.5 6.5-1.1 8.2-1.1 3.2-3.1 2.8-7.5 5.6-3.8zM178.2 20.8c-.5-.2-.9-.3-1.3-.5 2 1.3 4.4 3.2 6.3 6.2 0 0 1.7 1.7 3.8 3.9-4.8-6.4-.3-6.5-8.8-9.6zm32.2 73.7s-3.1-2.6-4.3-3.1-1.4-2-1.4-3.4v-4.5s-2-1.2-2-4.4c0-3.1.3-3 1.1-3.5.9-.5 4-10.5 4-10.5s-.9-3.1-2.9-5.1c-2-2-.3 2.3-2-2s-2.3-5.7-3.7-6.9c-1.4-1.1-1.7-.9-2.6-3.1-.9-2.3-1.4-5.4-1.4-5.4s-.6-1-1.7-2.5c.5 2.8-1.6 2.5-1.6 2.5s4.6 5.7 6.6 10.6-2 11.4 0 13.7.6 10.6-.6 11.7 6.6 12.9 6.6 12.9h-3.1l8 6.7h-4.3l6.7 3.8c-.9-2.2.2-.4-1.1-2.5-1.4-2.4-.3-5-.3-5z"/><path fill="#C08C76" d="M189.7 129.1c.2-1.2 2.5-4.4 3.5-11.5l-3.5-1.1-.6 3.1s-1.7-2-3.1 1.7c-1.4 3.7-.9 0-1.4 3.7l-.6 3.7 1.6 4.8c2.1-1.5 3.9-3.4 4.1-4.4zm3.9-18.9c-1.9-.4-3.6-.5-3.6-.5l3.3 6.8c.2-1.8.3-3.8.3-6v-.3z"/><path fill="#D7A990" d="M145.9 120.6c.6.1 1.1.1 1.6.2 0 0 6.3 1.7 7.1 3.1s-2.3 2-2.3 2 4.9 1.4 7.4 2.5c2.6 1.1 6 4.6 6 4.6l4.3 4.9s.6 2.9 1.7-2.4-.8-7.3 0-8.1-2-2.9 0-2.6l2 .3s.9-1.4.9-2.6v-4.6h6.3s-.3-.5.3-2.5.6-2.6.6-5.4c0-2.9-1.1 2.3-.3-6.3s-.3-12.3-1.1-13.7-2.3-3.7-2.9-5.1c-.6-1.4-1.4-.9-.9-3.4.6-2.6.6-2.3.6-4 0-1.7.6-1.7 0-4s-2.3-5.7-2.3-5.7 3.1 5.7 1.1-2.9-2.9-10-2.9-10-6.9-4-8.9-7.4c-2-3.4-1.1-3.7-3.1-4.6s-4-1.4-4-1.4l-5.4-.3.9-1.4h-6.3l.9-1.7-7.7.9-.6-2.6s-5 3.7-11.4 3.7v82.8s7.4-.9 11.7-3.4c0-.1 3.6.7 6.7 1.1zm9.7-44.1c5.4.6 5.1 1.1 8.9 6 3.7 4.9 3.4 8.9 3.4 8.9s-5.4-5.1-6.3-7.7c-.9-2.6-6.3-2-8.6-2.3-2.3-.3-12.1 1.4-12.3 0-.8-8.3 9.5-5.5 14.9-4.9zm2.4 67.1c.1.1.1.2.1.2s0-.1-.1-.2z"/><path fill="#D7A990" d="M140.3 137.4l-3.7 2 2.6 1.7-1.7.9s-.6 2.3-.3 3.7c.3 1.4-.3 2 1.7 3.4s5.1-1.7 6.6-2.6c1.4-.9 3.7-3.1 3.7-3.1s3.1-.6 4-.6c.9 0 4.3 0 4.9.9l-.6-.9-2.3-2.6 2.9-.3s-4.3-2.3-1.1-2.6c3.1-.3 5.7 1.4 5.7 1.4s-6.6-6.3-9.1-6.3c-2.6 0-6-1.7-7.7-2.6-1.7-.9-3.4-.9-3.4-.9l-3.1.6h-6.3l-5.4.3v8.6c-.2.1 7.7-2.5 12.6-1z"/><path fill="#6A675B" d="M153 81.4c2.3.3 7.7-.3 8.6 2.3.9 2.6 6.3 7.7 6.3 7.7s.3-4-3.4-8.9c-3.7-4.9-3.4-5.4-8.9-6-5.4-.6-15.7-3.4-14.9 4.9.2 1.4 10-.3 12.3 0z"/><path fill="#868274" d="M127.5 16.2V40c6.4 0 11.4-3.7 11.4-3.7l.6 2.6 7.7-.9-.9 1.7h6.3l-.9 1.4 5.4.3s2 .6 4 1.4 1.1 1.1 3.1 4.6c2 3.4 8.9 7.4 8.9 7.4s.9 1.4 2.9 10-1.1 2.9-1.1 2.9 1.7 3.4 2.3 5.7c.6 2.3 0 2.3 0 4 0 1.7 0 1.4-.6 4s.3 2 .9 3.4c.6 1.4 2 3.7 2.9 5.1s2 5.1 1.1 13.7.3 3.4.3 6.3 0 3.4-.6 5.4c-.6 2-.3 2.5-.3 2.5h-6.3v4.6c0 1.1-.9 2.6-.9 2.6l-2-.3c-2-.3.8 1.7 0 2.6s1.1 2.9 0 8.1-1.7 2.4-1.7 2.4l-4.3-4.9s-3.4-3.4-6-4.6c-2.6-1.1-7.4-2.5-7.4-2.5s3.1-.6 2.3-2-7.1-3.1-7.1-3.1c-.5 0-1-.1-1.6-.2-3-.4-6.7-1.2-6.7-1.2-4.3 2.6-11.7 3.4-11.7 3.4v7.1l5.4-.3h6.3l3.1-.6s1.7 0 3.4.9 5.1 2.6 7.7 2.6c2.6 0 9.1 6.3 9.1 6.3s-2.6-1.7-5.7-1.4c-3.1.3 1.1 2.6 1.1 2.6l-2.9.3 2.3 2.6s.4.5.6.9c.1.1.1.2.1.2s-.1-.1-.1-.2c-.6-.9-4-.9-4.9-.9-.9 0-4 .6-4 .6s-2.3 2.3-3.7 3.1c-1.4.9-4.6 4-6.6 2.6s-1.4-2-1.7-3.4c-.3-1.4.3-3.7.3-3.7l1.7-.9-2.6-1.7 3.7-2c-4.9-1.4-12.8 1.1-12.8 1.1v44.6c4.6 0 10-7.4 10-7.4l1.4 2h5.1l3.7-1.4 4.6-1.7.6 3.1 7.4-6.3 4.9-6.4-1.1 4.4s3.7-1.1 4.3-2c.4-.6 2.3-2.5 3.6-4.1.6-.7 1.1-1.4 1.2-1.7 0 .4-.1 1.2-.1 1.9.5-.1 1.3-.2 2.3-.4 1.8-2.3 3.7-6 4.5-6.8 1.1-1.1 3.1-4.9 3.7-6.9.6-2 .6-6 .6-6s2.3-4.6 2.6-5.4c.1-.4-.4-2.3-1-4.4-.7-2.4-1.6-4.8-1.6-4.8l.6-3.7c.6-3.7 0 0 1.4-3.7s3.1-1.7 3.1-1.7l.6-3.1 3.5 1.1.8.3-.7-1.4-3.3-6.8s1.7.1 3.6.5c1.5.3 3.1.9 4.1 1.8 2.3 2 7.7 12 7.7 12 2-2.3-1.4-12.3-1.4-12.3h6l2.9-4-2-3.4h5.1l-4.1-2.3-6.7-3.8h4.3l-8-6.7h3.1s-7.7-11.7-6.6-12.9 2.6-9.4.6-11.7 2-8.9 0-13.7-6.6-10.8-6.6-10.8 2.1.2 1.6-2.5c0-.3-.1-.6-.2-.9-.6-2.1-3.9-5.9-6.5-8.7-2-2.2-3.8-3.9-3.8-3.9-1.9-3-4.3-4.9-6.3-6.2-2.1-1.4-3.8-2.1-4-2.9-.3-1.6-4.6-4-11.7-8.3-7.1-4.3-19.7 1.1-19.7 1.1.3-4.3 11.4-7.1 11.4-7.1-7.7-2.9-13.7 6.9-13.7 6.9-1.7-1.1 0-9.1 0-9.1-4 .3-5.7 5.7-5.7 5.7-.7-2.2.1-4.5 1.1-6.4-1.5-.1-3-.2-4.5-.2-1.6 4.8-2.5 12.8-2.5 12.8v3.4z"/><path fill="#515046" d="M39.1 121.4c.1.9.3 1.9.8 2.8 0 0-.4-1.1-.8-2.8zm6.4-23.3l8-6.7h-3.1s7.7-11.7 6.6-12.9-2.6-9.4-.6-11.7c2-2.3-2-8.9 0-13.7 2-4.9 6.6-10.6 6.6-10.6s-2.1.2-1.6-2.5c-1 1.6-1.7 2.5-1.7 2.5s-.6 3.1-1.4 5.4-1.1 2-2.6 3.1c-1.4 1.1-2 2.6-3.7 6.9-1.7 4.3 0 0-2 2S47.1 65 47.1 65s3.1 10 4 10.5c.9.5 1.1.4 1.1 3.5s-2 4.4-2 4.4v4.5c0 1.4-.3 2.9-1.4 3.4s-4.3 3.1-4.3 3.1 1.1 2.6-.3 4.9c-1.3 2.1-.2.3-1.1 2.5l6.7-3.8h-4.3zm26.3-71.6c1.9-3 4.3-4.9 6.3-6.2-.4.2-.9.3-1.3.5-8.5 3.1-4.1 3.1-8.8 9.6 2.1-2.2 3.8-3.9 3.8-3.9zm3.4 129.7c-1.1-1.1-3.1-4.9-3.7-6.9-.6-2-.6-6-.6-6s-2.3-4.6-2.6-5.4c-.1-.4.4-2.3 1-4.4-2.1-1.6-3.9-3.5-4.1-4.5-.2-1.2-2.5-4.4-3.5-11.5l-.8.3.7-1.4c-.2-1.8-.3-3.8-.3-6v-.3c-1.5.3-3.1.9-4.1 1.8-2.3 2-7.7 12-7.7 12-2-2.3 1.4-12.3 1.4-12.3h-6l-2.9-4 2-3.4h-2.3c-.6.7-1.1.8-2.7 5.1-1.5 4-.7 9 .1 12-.4-4.4 2.8-8.3 2.8-8.3v3.1s2.6 6.9 2.9 7.7 2.1 2 2.1 2 2.4 2.8 3.9 4.8c1.4 2 .3 1.4-2.6 6.6-2.9 5.1 0 13.4 0 13.4-.3-3.8 2.6-9.7 2.6-9.7v6.3c0 1.7 1.4 3.1 2.9 7.2s0 0 3.7 2.2 1.4 3.7 1.4 3.7 2.3 4.6 4 2c1.7-2.6 0 0 3.1-4.2s2.3 1.9 6.9 4.5c4.6 2.6 0 0 1.7.9 1.5.8 3 2.2 6.5.8-2.1-1.7-4.8-7.1-5.8-8.1zm6.6 5.3c0 .5.1 1.6.2 2.4.2-.1.3-.2.5-.3.1 0 .1-.1.2-.1.1-.1.3-.2.4-.3-.7-.7-1.2-1.3-1.3-1.7z"/><path fill="#B17D6B" d="M69.4 133.6c.7-2.4 1.6-4.8 1.6-4.8l-.6-3.7c-.6-3.7 0 0-1.4-3.7s-3.1-1.7-3.1-1.7l-.6-3.1-3.5 1.1c1 7.1 3.2 10.3 3.5 11.5.1.9 1.9 2.8 4.1 4.4zm-7.8-17.1l3.3-6.8s-1.7.1-3.6.5v.3c0 2.2.1 4.2.3 6z"/><path fill="#C08C76" d="M116.1 36.2l-.6 2.6-7.7-.9.9 1.7h-6.3l.9 1.4-5.4.3s-2 .6-4 1.4c-2 .9-1.1 1.1-3.1 4.6-2 3.4-8.9 7.4-8.9 7.4s-.9 1.4-2.9 10 1.1 2.9 1.1 2.9-1.7 3.4-2.3 5.7 0 2.3 0 4c0 1.7 0 1.4.6 4s-.3 2-.9 3.4-2 3.7-2.9 5.1-2 5.1-1.1 13.7c.9 8.6-.3 3.4-.3 6.3s0 3.4.6 5.4c.6 2 .3 2.5.3 2.5h6.3v4.6c0 1.1.9 2.6.9 2.6l2-.3c2-.3-.8 1.7 0 2.6s-1.1 2.9 0 8.1 1.7 2.4 1.7 2.4l4.3-4.9s3.4-3.4 6-4.6 7.4-2.5 7.4-2.5-3.1-.6-2.3-2 7.1-3.1 7.1-3.1c.5 0 1-.1 1.6-.2 3-.4 6.7-1.2 6.7-1.2 4.3 2.6 11.7 3.4 11.7 3.4V40c-6.5 0-11.4-3.8-11.4-3.8zm-1.9 45.2c-.1 1.4-10-.3-12.3 0-2.3.3-7.7-.3-8.6 2.3-.9 2.6-6.3 7.7-6.3 7.7s-.3-4 3.4-8.9c3.7-4.9 3.4-5.4 8.9-6 5.5-.6 15.7-3.4 14.9 4.9z"/><path fill="#C08C76" d="M122.1 129.6h-6.3l-3.1-.6s-1.7 0-3.4.9-5.1 2.6-7.7 2.6-9.1 6.3-9.1 6.3 2.6-1.7 5.7-1.4c3.1.3-1.1 2.6-1.1 2.6l2.9.3-2.3 2.6s-.4.5-.6.9c.6-.9 4-.9 4.9-.9s4 .6 4 .6 2.3 2.3 3.7 3.1c1.4.9 4.6 4 6.6 2.6s1.4-2 1.7-3.4c.3-1.4-.3-3.7-.3-3.7l-1.7-.9 2.6-1.7-3.7-2c4.9-1.4 12.8 1.1 12.8 1.1V130l-5.6-.4zm-25.2 14c-.1.1-.1.2-.1.2s0-.1.1-.2z"/><path fill="#515046" d="M99.3 76.5c-5.4.6-5.1 1.1-8.9 6-3.7 4.9-3.4 8.9-3.4 8.9s5.4-5.1 6.3-7.7c.9-2.6 6.3-2 8.6-2.3 2.3-.3 12.1 1.4 12.3 0 .8-8.3-9.4-5.5-14.9-4.9z"/><path fill="#6A675B" d="M121.5 6.5s-1.7-5.4-5.7-5.7c0 0 1.7 8 0 9.1 0 0-6-9.7-13.7-6.9 0 0 11.1 2.9 11.4 7.1 0 0-12.6-5.4-19.7-1.1-7.1 4.3-11.4 6.7-11.7 8.3-.1.8-1.8 1.6-4 2.9-2 1.3-4.4 3.2-6.3 6.2 0 0-1.7 1.7-3.8 3.9-2.7 2.9-5.9 6.6-6.5 8.7-.1.3-.2.6-.2.9-.5 2.8 1.6 2.5 1.6 2.5s-4.6 5.7-6.6 10.6c-2 4.9 2 11.4 0 13.7-2 2.3-.6 10.6.6 11.7s-6.6 12.9-6.6 12.9h3.1l-8 6.7h4.3l-6.7 3.8-4.1 2.3H44l-2 3.4 2.9 4h6s-3.4 10-1.4 12.3c0 0 5.4-10 7.7-12 1-.9 2.6-1.4 4.1-1.8 1.9-.4 3.6-.5 3.6-.5l-3.3 6.8-.7 1.4.8-.3 3.5-1.1.6 3.1s1.7-2 3.1 1.7c1.4 3.7.9 0 1.4 3.7l.6 3.7-1.6 4.8c-.6 2-1.1 4-1 4.4.3.9 2.6 5.4 2.6 5.4s0 4 .6 6 2.6 5.7 3.7 6.9c1 1 3.7 6.4 5.7 8.2.4.4.8.6 1.1.6 0 0 0-.5-.1-1.1-.1-.8-.1-1.9-.2-2.4.1.4.6 1 1.2 1.7 1.3 1.6 3.2 3.5 3.6 4.1.6.9 4.3 2 4.3 2l-1.1-4.4 4.9 6.4 7.4 6.3.6-3.1 4.6 1.7 3.7 1.4h5.1l1.4-2s5.4 7.4 10 7.4v-44.6s-8-2.6-12.8-1.1l3.7 2-2.6 1.7 1.7.9s.6 2.3.3 3.7c-.3 1.4.3 2-1.7 3.4s-5.1-1.7-6.6-2.6c-1.4-.9-3.7-3.1-3.7-3.1s-3.1-.6-4-.6-4.3 0-4.9.9c-.1.1-.1.2-.1.2s.1-.1.1-.2l.6-.9 2.3-2.6-2.9-.3s4.3-2.3 1.1-2.6c-3.1-.3-5.7 1.4-5.7 1.4s6.6-6.3 9.1-6.3 6-1.7 7.7-2.6c1.7-.9 3.4-.9 3.4-.9l3.1.6h6.3l5.4.3v-7.1s-7.4-.9-11.7-3.4c0 0-3.7.8-6.7 1.2-.5.1-1.1.1-1.6.2 0 0-6.3 1.7-7.1 3.1s2.3 2 2.3 2-4.9 1.4-7.4 2.5-6 4.6-6 4.6l-4.3 4.9s-.6 2.9-1.7-2.4.8-7.3 0-8.1 2-2.9 0-2.6l-2 .3s-.9-1.4-.9-2.6v-4.6h-6.3s.3-.5-.3-2.5-.6-2.6-.6-5.4c0-2.9 1.1 2.3.3-6.3-.9-8.6.3-12.3 1.1-13.7s2.3-3.7 2.9-5.1 1.4-.9.9-3.4c-.6-2.6-.6-2.3-.6-4 0-1.7-.6-1.7 0-4s2.3-5.7 2.3-5.7-3.1 5.7-1.1-2.9 2.9-10 2.9-10 6.9-4 8.9-7.4c2-3.4 1.1-3.7 3.1-4.6 2-.9 4-1.4 4-1.4l5.4-.3-.9-1.4h6.3l-.9-1.7 7.7.9.6-2.6s5 3.7 11.4 3.7V12.8s-.9-8-2.5-12.8c-1.5 0-3 .1-4.5.2 1.2 1.8 2 4.2 1.3 6.3z"/><path fill="#3E3C29" d="M172.3 163.6l-.1 3.8v.2c.4-.2 5.1-2.5 7.8-2.2 2.8.2 2.6 2.1.4 3.8-1.2 1-4.6 4.7-8 8.1-2.6 2.7-5.2 5.1-6.6 5.8-3.2 1.5-15 13.9-19.5 18.1-4.5 4.2-18.8 11.2-18.8 11.2v21s33.8-11.1 38.7-16.3c4.9-5.1 28.8-38.6 32.3-39.7.2-.1.4-.1.6-.2.3-.3.5-.7.6-1.3.6-2.6-1.5-1.7-2.8-4.1-1.3-2.4-.2-2.3 0-4.9.2-2.6-3.4-2.8-4.5-3s-6.2-2.1-8.8-2.1h-.1c-1.7 0-5.5.7-8.2 1.1-.9.2-1.7.3-2.3.4-.4.2-.7.2-.7.3 0-.1 0 0 0 0z"/><path fill="#4D4737" d="M236.4 188c-2.3-.3-8.3 4.9-8.3 4.9-6.6 7.2-45.1 50.2-45.1 50.2s8.8-15 14.4-23.4c5.6-8.4 23.8-28.3 23.8-28.3s-1.4-2.9-2-5.4c-.6-2.6-9.7-6-11.4-8.6-1.6-2.4-5.5-1.3-8.9-.2-.2.1-.4.1-.6.2-3.4 1.1-27.4 34.6-32.3 39.7-4.9 5.1-38.7 16.3-38.7 16.3v15.3s43.4-24.8 46.8-29.1c3.5-4.3 23.2-38.2 23.2-38.2s-10.4 50.6-23.7 66.1c28-10.7 51.4-31 65.9-56.9-1-1.3-2.2-2.5-3.1-2.6z"/><path fill="#312F1D" d="M127.5 233.4v-21s-5.1 1.2-9.4 0c-3.4-1-27-18.2-37-26.8-2-1.7-3.5-3.1-4.1-3.9-.5-.6-1.1-1.3-1.9-2.2-1.6-1.7-3.9-3.9-6.4-6.1-1-.9-1.9-1.7-2.9-2.6-5.7-4.9-11.7-9.3-13-9-2.6.6-8.6.5-11.4 3.1s-7.1-2.8-9.4 2.6c-2.3 5.4-1.7 8.3-1.7 8.3s-4.9.5-5.1 3.7c-.2 2.3 1.5 8 2.3 10.7 0 0 28.2 23.6 39.6 30.8 11.2 7.3 60.4 12.4 60.4 12.4z"/><path fill="#413C2E" d="M127.5 240.5v-7.1s-49.1-5.1-60.6-12.3c-11.4-7.2-39.6-30.8-39.6-30.8s-4.9.1-8.1 5c3.1 5 6.6 9.8 10.3 14.4 35.1 24.1 89.3 30.7 89.3 30.7s-14.9 4.7-31.3 9.1c7.3 2.4 14.9 4.2 22.7 5.3 9-3.1 17.3-6.1 17.3-6.1v-8.2z"/><path fill="#272417" d="M29.5 209.7c15.1 18.2 35.1 32.1 58 39.7 16.4-4.4 31.3-9.1 31.3-9.1s-54.2-6.4-89.3-30.6zm80.6 45.1c5.7.8 11.4 1.2 17.3 1.2v-7.3c.1 0-8.2 2.9-17.3 6.1z"/><path fill="#413C2E" d="M174.3 219.6c-3.5 4.3-46.8 29.1-46.8 29.1v7.3h.5c16.1 0 31.5-3 45.7-8.4 13.3-15.6 23.7-66.1 23.7-66.1s-19.7 33.8-23.1 38.1zm8.8 23.4s38.5-43 45.1-50.2l-6.9-1.4s-18.3 19.9-23.8 28.3c-5.6 8.3-14.4 23.3-14.4 23.3z"/></svg>