<svg xmlns="http://www.w3.org/2000/svg" width="256" height="256"><circle fill="#B1B3B5" cx="128" cy="128" r="128"/><path d="M61.1 177.8c-5.7 1.3-13 3.6-19.2 7.3 0 0-3.4-.3-5.8 5.4-1 2.4-3.9 9.6-7.2 18.5 6.7 8.2 14.3 15.5 22.8 21.8.1-7 .1-13 .1-16 0-10.2 5.2-29.7 9.3-37z"/><path fill="#2D2E32" d="M106.4 157.7c-3.1 2.2-9.9 5.7-8.9 10.5.5 2.4.9 4.8 1.2 7 4.3-5.6 6.7-12.4 8-18.1h-.1c-.1.1-.2.3-.2.6z"/><path fill="#BEA195" d="M127.9 160c-8.8 0-14.1-1.2-20.3-7.7l.2.2c-.1.1-.3.1-.4.2-.2 1.3-.5 2.7-.8 4.2-1.3 5.7-3.7 12.5-8 18.1.6 4.7 1 8.7 1.7 11.5 1 4.1 4.6 7.9 4.4 9.8-.2 1.6-1.5 4.2 1.6 8 .6.5 1.2 1.1 2 1.8 4.9 4.3 6.2 12.5 6.2 18.4 0 6-4.1 17.2-.8 19.9 2.9 2.3 11.5 9.5 13.8 11.5h.4V160z"/><path fill="#919EB0" d="M114.4 224.6c0-6-1.3-14.1-6.2-18.4-.8-.7-1.5-1.3-2-1.8.6.7 1.3 1.5 2.3 2.3 0 0-11.1-5.5-10.8-13.2 0 0-5.1 2.8-10.8 5.2-3.1 14-6.6 32.2-9.4 47 15.4 6.6 32.3 10.3 50 10.4-2.3-1.9-10.9-9.2-13.8-11.5-3.4-2.7.7-14 .7-20z"/><path fill="#0A0B0B" d="M81 200.9c-7.5 2.4-11.3 2.4-11.3 2.4s8-16.3 9-20.4c1-3.8 5.1-13.7 7.7-16.9-8.1 2.1-22.4 6.5-25.3 11.7-4.1 7.4-9.3 26.8-9.3 37 0 3-.1 9-.1 16 7.9 5.9 16.6 10.9 25.8 14.9 2.8-14.7 6.3-33 9.4-47-2 .9-4 1.7-5.9 2.3z"/><path fill="#AAB9CE" d="M69.7 203.3s3.9 0 11.3-2.4c1.9-.6 3.9-1.4 5.9-2.2 5.7-2.4 10.8-5.2 10.8-5.2-.3 7.7 10.8 13.2 10.8 13.2-1-.8-1.7-1.6-2.3-2.3-3.1-3.8-1.8-6.4-1.6-8 .3-1.9-3.3-5.7-4.4-9.8-.7-2.8-1-6.8-1.7-11.5-.3-2.2-.7-4.5-1.2-7-1-4.8 5.8-8.2 8.9-10.5.1-.2.1-.5.2-.7.3-1.1.4-1.8.4-1.8-2.2.2-4.1.5-5.8.9 0 .3.1.5.1.5-.1-.1-.3-.3-.4-.5-9.2 2.3-11.8 7.3-14 9.3-.2.2-.3.3-.5.6-2.6 3.2-6.8 13.1-7.7 16.9-.9 4.2-8.8 20.5-8.8 20.5z"/><path fill="#CCAD9F" d="M127.9 140.9c-12.7 0-15.3-4.3-15.3-4.3 3-.9 3.3-1.7 6.2-4 1.5-1.5 4.2-2.3 6.3-1.4 1.2.9 2.4.9 2.8.9V76.8l-6.8 6.6-7.2-25.1c-5.4 4.8-8.2 10.1-13.1 16-2.6 3.2-4.8 4.8-6.2 5.5-1.4 5.8-3.3 14.6-3.3 18.9l-.1-.6c-.5 6.5-.9 11.8-.9 12.2.4 2.3 3.3 18.9 10 31.2 3.4 6.2 6.6 10 7.4 10.9 6.2 6.4 11.5 7.6 20.3 7.7v-19.2zM96.7 87s.1-1.2 3.2-3 13.9 1.7 16.2 2.8c2.3 1.1 3.5 4.1 3.5 4.1-9.6-1.3-14.7-4.1-16.7-5.1-2.1-1.2-6.2 1.2-6.2 1.2z"/><path fill="#884251" d="M125.2 131.2c-2.1-.9-4.8-.1-6.3 1.4-2.9 2.4-3.2 3.1-6.2 4 0 0 2.6 4.2 15.3 4.3V132c-.5.1-1.7.1-2.8-.8z"/><path fill="#583826" d="M128.1 8.1s-.1 0 0 0c-.1 0-.1 0 0 0zM87.4 145.6c3.4-12.6 2.8-35.7 2.8-35.7v.3c0-.4.4-5.7.9-12.2l-2.4-11.6s-3.3 11.5-2.3 15.8 3.1 28.7-.5 35.4c0 0-1.8-25.1-4.6-35 0 0-5.7 21.1-13.1 24.2 0 0 10.3-25.9 9-36.9 0 0-14.9 3.8-17.2 1.9 0 0 13.1-28 18.8-33.5 5.7-5.5 8.5-3.4 12.3-11.5 0 0-4.6 27.3-17.2 36.4 0 0 11.6-3.6 15.7-7.9L86.4 85l9.5-10.8s-.6 2.3-1.4 5.5c1.5-.8 3.6-2.3 6.2-5.5 4.9-6 7.7-11.3 13.1-16l7.2 25.1 6.8-6.6V8.1c-1.7 0-20.3.4-32.3 12.7-12.6 12.9-20.1 18-22.9 25.4-2.8 7.4-9.5 27.5-13.9 33.8-4.4 6.2-9.8 15.8-9.8 15.8s6.9-3.1 6.4-.7-4.1 9.3-7.2 14.1c0 0 7.5-1.7 7.2 1.4-.3 3.1-4.9 7.4-4.4 8.9.5 1.4 7.7 7.9 14.4 7.7l-5.1 3.4s9.5 13.7 16.5 16l-6.9 7.4s18.2 2.2 30 .8c-3.3-5.7-3.8-15.3-3.8-15.3l-8.6 6.1zm32.7-107.8c5.4 14.8-1 28-1 28 1.3-5.3-1-20.6-1-20.6-4.9 7.7-25.5 26.6-25.5 26.6 5.4-5.3 14.9-28.7 14.9-28.7 3.8-7.2 12.6-5.3 12.6-5.3z"/><path fill="#583826" d="M100.3 141.4c.1.1.1.3.2.4-.4 4.1.2 9.8.5 12.8 2.6-.4 4.9-1 6.4-1.8.1-.1.3-.1.4-.2l-.2-.2c-.8-1-3.9-4.8-7.3-11z"/><path fill="#3A200E" d="M101.2 156.1c-.1-.4-.1-.9-.2-1.5-.4-3-1-8.7-.5-12.8-.1-.1-.1-.2-.2-.4-6.7-12.3-9.6-28.8-10-31.2v-.3s.6 23.1-2.8 35.7l8.7-6.2s.4 9.7 3.8 15.3c.3.5.6 1 1 1.4.1.2.3.3.4.5-.1.1-.2-.2-.2-.5zm14.9-69.3c-2.3-1.1-13.1-4.6-16.2-2.8-3.1 1.8-3.2 3-3.2 3s4.1-2.4 6.2-1.3c2.1 1.1 7.1 3.8 16.7 5.1 0 .1-1.2-2.9-3.5-4z"/><path fill="#3A200E" d="M94.6 79.7c.8-3.2 1.4-5.5 1.4-5.5L86.4 85l3.1-9.6c-4.1 4.3-15.7 7.9-15.7 7.9C86.4 74.2 91 46.9 91 46.9c-3.9 8.1-6.7 6-12.3 11.5C73 63.9 59.9 92 59.9 92c2.3 1.9 17.2-1.9 17.2-1.9 1.3 11-9 36.9-9 36.9 7.5-3.1 13.1-24.2 13.1-24.2 2.8 9.8 4.6 35 4.6 35 3.6-6.7 1.5-31.1.5-35.4s2.3-15.8 2.3-15.8L91 98.2l.1.6c.2-4.4 2.1-13.3 3.5-19.1z"/><path fill="#3A200E" d="M92.6 71.8s20.6-18.9 25.5-26.6c0 0 2.3 15.3 1 20.6 0 0 6.4-13.2 1-28 0 0-8.7-1.9-12.6 5.3 0 0-9.5 23.5-14.9 28.7z"/><path fill="#0A0B0B" d="M214.1 185.1c-6.2-3.8-13.5-6-19.2-7.3 4.1 7.4 9.3 26.8 9.3 37 0 3 .1 9 .1 16 8.5-6.3 16.1-13.6 22.8-21.8-3.3-8.8-6.2-16.1-7.2-18.5-2.4-5.7-5.8-5.4-5.8-5.4z"/><path fill="#3A3B40" d="M149.6 157.7c-.1-.2-.1-.5-.2-.7h-.1c1.3 5.7 3.7 12.5 8 18.1.3-2.2.7-4.5 1.2-7 1-4.8-5.7-8.2-8.9-10.4z"/><path fill="#CCAD9F" d="M141.6 224.6c0-6 1.3-14.1 6.2-18.4.8-.7 1.5-1.3 2-1.8 3.1-3.8 1.8-6.4 1.6-8-.3-1.9 3.3-5.7 4.4-9.8.7-2.8 1-6.8 1.7-11.5-4.3-5.6-6.7-12.4-8-18.1-.3-1.5-.6-2.9-.8-4.2-.1-.1-.3-.1-.4-.2l.2-.2c-6.2 6.4-11.5 7.7-20.4 7.7v96h.6c2.3-1.9 10.9-9.2 13.8-11.5 3.2-2.7-.9-14-.9-20z"/><path fill="#AAB9CE" d="M158.3 193.5c.3 7.7-10.8 13.2-10.8 13.2 1-.8 1.7-1.6 2.3-2.3-.6.5-1.2 1.1-2 1.8-4.9 4.3-6.2 12.5-6.2 18.4 0 6 4.1 17.2.8 19.9-2.9 2.3-11.5 9.5-13.8 11.5 17.8-.1 34.7-3.8 50-10.4-2.8-14.7-6.3-33-9.4-47-5.8-2.3-10.9-5.1-10.9-5.1z"/><path fill="#252829" d="M194.9 177.8c-2.9-5.2-17.2-9.6-25.3-11.7 2.6 3.2 6.8 13.1 7.7 16.9 1 4.1 9 20.4 9 20.4s-3.9 0-11.3-2.4c-1.9-.6-3.9-1.4-5.9-2.2 3.1 14 6.6 32.2 9.4 47 9.2-4 17.8-9 25.8-14.9-.1-7-.1-13-.1-16 0-10.3-5.2-29.8-9.3-37.1z"/><path fill="#C3D4EC" d="M154.8 156.1c-1.7-.4-3.6-.7-5.8-.9 0 0 .2.7.4 1.8.1.2.1.4.2.7 3.1 2.2 9.9 5.7 8.9 10.5-.5 2.4-.9 4.8-1.2 7-.6 4.7-1 8.7-1.7 11.5-1 4.1-4.6 7.9-4.4 9.8.2 1.6 1.5 4.2-1.6 8-.6.7-1.3 1.5-2.3 2.3 0 0 11.1-5.5 10.8-13.2 0 0 5.1 2.8 10.8 5.2 2 .8 4 1.6 5.9 2.2 7.5 2.4 11.3 2.4 11.3 2.4s-8-16.3-9-20.4c-1-3.8-5.1-13.7-7.7-16.9-.2-.2-.4-.4-.5-.6-2.2-2-4.8-7-14-9.3-.1.2-.3.3-.4.5.2 0 .3-.3.3-.6z"/><path fill="#DEBCAD" d="M136.3 131.9c.3.2.6.4.9.7.5.4.9.7 1.2 1l.4-4.1c0-.1-1.4-1.8-2.5 2.4z"/><path fill="#DEBCAD" d="M155.7 141.4c6.7-12.3 9.6-28.8 10-31.2 0-.4-.4-5.7-.9-12.2l-.1.6c0-4.3-1.9-13.1-3.3-18.9-1.5-.8-3.6-2.3-6.2-5.5-4.9-6-7.7-11.3-13.1-16l-7.2 25.1-6.9-6.7V132s1.5.2 2.9-.9c1.6-.7 3.6-.3 5.1.5-.2-2 0-6.8 7-7.5 0 0-4 1.6-4.3 4.4l3.7-1.3s-1.7 1.7-.8 3.8c0 0 2-1.4 2.4-2.9l1.2 4.1 1.8-1.3 1.4 3.8s-3.1-3.1-4.7-1.9v-1.3l-2.4 2-1.4-2.9-1.2 3c1.7 1.4 2.3 2.1 4.8 2.8 0 0-2.7 4.3-15.4 4.3V160c8.9 0 14.2-1.2 20.4-7.7.7-.9 3.8-4.7 7.2-10.9zm-19.3-50.5s1.2-3 3.5-4.1c2.3-1.1 13.1-4.6 16.2-2.8 3.1 1.8 3.2 3 3.2 3s-4.1-2.4-6.2-1.3c-2 1.1-7 3.9-16.7 5.2z"/><path fill="#9D4D5E" d="M127.9 140.9c12.8 0 15.4-4.3 15.4-4.3-2.4-.8-3.1-1.4-4.8-2.8l-.3.8.1-1c-.3-.3-.7-.6-1.2-1-.3-.3-.6-.5-.9-.7-.1.2-.1.4-.2.7 0 0-.1-.3-.1-.9-1.5-.9-3.5-1.2-5.1-.5-1.4 1.1-2.9.9-2.9.9v8.8z"/><path fill="#6A4531" d="M155.5 141.8c.1-.1.1-.2.2-.4-3.4 6.2-6.6 10-7.4 10.9l-.2.2c.1.1.3.1.4.2 1.6.9 3.8 1.5 6.4 1.8.5-2.9 1.1-8.6.6-12.7z"/><path fill="#6A4531" d="M127.9 76.6l6.9 6.7 7.2-25.1c5.4 4.8 8.2 10.1 13.1 16 2.6 3.2 4.8 4.8 6.2 5.5-.8-3.2-1.4-5.5-1.4-5.5l9.5 10.8-3.1-9.6c4.1 4.3 15.7 7.9 15.7 7.9-12.4-9.1-17-36.4-17-36.4 3.9 8.1 6.7 6 12.3 11.5C183 63.9 196.1 92 196.1 92c-2.3 1.9-17.2-1.9-17.2-1.9-1.3 11 9 36.9 9 36.9-7.5-3.1-13.1-24.2-13.1-24.2-2.8 9.8-4.6 35-4.6 35-3.6-6.7-1.5-31.1-.5-35.4s-2.3-15.8-2.3-15.8L165 98.2c.5 6.5.9 11.8.9 12.2v-.3s-.6 23.1 2.8 35.7l-8.7-6.2s-.4 9.7-3.8 15.3c11.8 1.4 30-.8 30-.8l-6.9-7.4c6.9-2.4 16.5-16 16.5-16l-5.1-3.4c6.7.2 13.9-6.2 14.4-7.7.5-1.4-4.1-5.7-4.4-8.9-.3-3.1 7.2-1.4 7.2-1.4-3.1-4.8-6.7-11.7-7.2-14.1s6.4.7 6.4.7-5.4-9.6-9.8-15.8c-4.4-6.2-11.1-26.3-13.9-33.8-2.8-7.4-10.3-12.5-22.9-25.4-12-12.3-30.6-12.7-32.3-12.7h-.2v68.4zm20.6-33.5s9.5 23.5 14.9 28.7c0 0-20.6-18.9-25.5-26.6 0 0-2.3 15.3-1 20.6 0 0-6.4-13.2-1-28 0 0 8.8-1.9 12.6 5.3z"/><path fill="#523321" d="M168.6 145.6c-3.4-12.6-2.8-35.7-2.8-35.7v.3c-.4 2.3-3.3 18.9-10 31.2-.1.1-.1.3-.2.4.4 4.1-.2 9.8-.5 12.8-.1.6-.2 1.2-.2 1.5 0 .3-.1.5-.1.5.1-.1.3-.3.4-.5.4-.4.7-.9 1-1.4 3.3-5.7 3.8-15.3 3.8-15.3l8.6 6.2zM159.3 87s-.1-1.2-3.2-3-13.9 1.7-16.2 2.8c-2.3 1.1-3.5 4.1-3.5 4.1 9.6-1.3 14.7-4.1 16.7-5.1 2.1-1.2 6.2 1.2 6.2 1.2z"/><path fill="#523321" d="M164.8 98.1l2.4-11.6s3.3 11.5 2.3 15.8-3.1 28.7.5 35.4c0 0 1.8-25.1 4.6-35 0 0 5.7 21.1 13.1 24.2 0 0-10.3-25.9-9-36.9 0 0 14.9 3.8 17.2 1.9 0 0-13.1-28-18.8-33.5-5.7-5.5-8.5-3.4-12.3-11.5 0 0 4.6 27.3 17.2 36.4 0 0-11.6-3.6-15.7-7.9l3.1 9.6-9.5-10.8s.6 2.3 1.4 5.5c1.4 5.8 3.3 14.6 3.3 18.9l.2-.5z"/><path fill="#523321" d="M136.9 65.8c-1.3-5.3 1-20.6 1-20.6 4.9 7.7 25.5 26.6 25.5 26.6-5.4-5.3-14.9-28.7-14.9-28.7-3.9-7.2-12.6-5.3-12.6-5.3-5.4 14.9 1 28 1 28z"/><path fill="#C08C76" d="M136.3 131.9c1.1-4.2 2.5-2.4 2.5-2.4l-.4 4.1-.1 1 .3-.8 1.2-3 1.4 2.9 2.4-2v1.3c1.6-1.2 4.7 1.9 4.7 1.9l-1.4-3.8-1.8 1.3-1.2-4.1c-.4 1.4-2.4 2.9-2.4 2.9-.8-2.2.8-3.8.8-3.8l-3.7 1.3c.4-2.9 4.3-4.4 4.3-4.4-7 .8-7.2 5.5-7 7.5.1.5.1.9.1.9.2-.4.2-.6.3-.8z"/></svg>