<svg xmlns="http://www.w3.org/2000/svg" width="256" height="256"><circle fill="#B1B3B5" cx="128" cy="128" r="128"/><path fill="#A37864" d="M71.1 86.9c0-.1-.1-.1-.1-.1-1.8-.9-3.8-1.9-5.4-2.6-3.5-1.6-7 1.9-7 3.8s-.3 11.2 2.2 16.6 2.9 12.8 6.4 16.9c3.1 3.6 6.6 6.8 11.7 4.3-.8-6.1-2.5-13-3.7-16.1-1.6-3.9-2.5-9.9-4.1-22.8zm56.7 119.8v-29.8c-15.2-.1-27.2-8.1-36-14.8.7 5.3 1.2 13.5-.2 22.5 3.7 6.1 15.3 21.9 36.2 22.1z"/><path fill="#C08C76" d="M70.1 50.2c-1.9 8.2-1.3 16.6-.3 25.4-.9-9.8-1-18.1.3-25.4zm57.7 110.6V43c-1.6-.2-7.9-1-10.2-1.2-2.6-.3-11.8-3.8-12.8-3.8s-7-1.9-7-1.9l-5.1-1S91.4 37 90.5 38s-2.2 8.6-2.2 8.6-9.6 30.3-10.2 32.9c-.6 2.6-3 28.9-2.6 22.2-.6-6-3.9-13.5-4.4-14.7 1.5 12.9 2.5 18.8 4.1 22.8 1.3 3.2 2.9 10 3.7 16.1.4 3.1.6 6.1.4 8.1-.6 6.1 0 18.2 8.9 25.2 1.1.9 2.3 1.8 3.6 2.8 8.7 6.7 20.8 14.6 36 14.8v-16zM85.7 91s-3.4-5.3 2.9-8.4c0 0 9.1-2.9 15.6-1s17.2 4.1 18.7 9.3c0 0-.7 1.2-3.6-.2-2.9-1.4-8.9-3.8-15.6-4.3-6.7-.4-18 4.6-18 4.6z"/><path fill="#997E72" d="M75.5 101.6c-.5 6.7 1.9-19.6 2.6-22.2.6-2.6 10.2-32.9 10.2-32.9s1.3-7.7 2.2-8.6 2.2-2.9 2.2-2.9l5.1 1s6.1 1.9 7 1.9 10.2 3.5 12.8 3.8c2.2.3 8.6 1 10.2 1.2v-34h.2c-1.9-.2-17.6-1.7-36.4 10.4-13 8.7-19.3 18.2-21.6 31-1.2 7.2-1.2 15.6-.3 25.4.3 3.5.7 7.2 1.2 11.1 0 0 0 .1.1.1.6 1.2 3.9 8.7 4.5 14.7z"/><path fill="#997E72" d="M103.7 86.4c6.7.5 12.7 2.9 15.6 4.3 2.9 1.4 3.6.2 3.6.2-1.4-5.3-12.2-7.4-18.7-9.3-6.5-1.9-15.6 1-15.6 1-6.2 3.1-2.9 8.4-2.9 8.4s11.3-5 18-4.6z"/><path fill="#5C5754" d="M127.8 214.1c-18.7-.1-31.3-7.7-38-17.4-15.6 9.1-36.6 16.8-52.2 21.9 23.1 23 55 37.3 90.2 37.3v-41.8z"/><path fill="#6B6562" d="M89.8 196.7c-1.9-2.8-3.4-5.8-4.3-8.9-4.2 2.2-24.6 12.3-54.9 23.2 2.2 2.6 4.6 5.2 7 7.6 15.7-5 36.7-12.8 52.2-21.9z"/><path fill="#4A474B" d="M89.8 196.7c6.7 9.7 19.3 17.3 38 17.4v-7.4c-20.9-.2-32.5-16-36.2-22.1-.9-1.4-1.3-2.3-1.3-2.3-3.6 1.2-5 5.2-5 5.2 0 .1.1.3.1.4 1 3 2.5 6 4.4 8.8z"/><path fill="#C08C76" d="M180.8 109.8c-1.3 3.2-2.9 10-3.7 16.1 5.1 2.5 8.7-.7 11.7-4.3 3.5-4.2 3.8-11.5 6.4-16.9s2.2-14.7 2.2-16.6c0-1.9-3.5-5.4-7-3.8-1.6.7-3.7 1.7-5.4 2.6 0 0 0 .1-.1.1-1.6 12.8-2.5 18.8-4.1 22.8zm-53 67v29.8c21.1 0 32.8-16 36.5-22.1-1.4-9.1-.9-17.3-.2-22.5-8.8 6.8-20.9 14.8-36.3 14.8z"/><path fill="#D7A990" d="M186.2 75.7c1-8.9 1.7-17.2-.3-25.4 1.3 7.2 1.2 15.5.3 25.4zm-1.3 11.2c-.5 1.2-3.8 8.7-4.4 14.7.5 6.7-1.9-19.6-2.6-22.2-.6-2.6-10.2-32.9-10.2-32.9s-1.3-7.7-2.2-8.6-2.2-2.9-2.2-2.9l-5.1 1s-6.1 1.9-7 1.9-10.2 3.5-12.8 3.8c-2.6.3-10.5 1.3-10.5 1.3v133.8c15.3 0 27.5-8 36.3-14.8 1.3-1 2.5-1.9 3.6-2.8 8.9-7 9.6-19.2 8.9-25.2-.2-2.1 0-5 .4-8.1.8-6.1 2.5-13 3.7-16.1 1.6-4 2.5-10 4.1-22.9zM170.3 91s-11.3-5-18-4.6c-6.7.5-12.7 2.9-15.6 4.3-2.9 1.4-3.6.2-3.6.2 1.4-5.3 12.2-7.4 18.7-9.3 6.5-1.9 15.6 1 15.6 1 6.2 3.1 2.9 8.4 2.9 8.4z"/><path fill="#AF8F81" d="M127.8 9.2V43s8-1 10.5-1.3c2.6-.3 11.8-3.8 12.8-3.8s7-1.9 7-1.9l5.1-1s1.3 1.9 2.2 2.9 2.2 8.6 2.2 8.6 9.6 30.3 10.2 32.9c.6 2.6 3 28.9 2.6 22.2.6-6 3.9-13.5 4.4-14.7 0-.1.1-.1.1-.1.5-3.9.9-7.6 1.2-11.1.9-9.9 1-18.2-.3-25.4-2.2-12.9-8.5-22.3-21.6-31C145.6 7.1 129.9 8.6 128 8.8h-.2v.4z"/><path fill="#AF8F81" d="M167.4 82.6s-9.1-2.9-15.6-1-17.2 4.1-18.7 9.3c0 0 .7 1.2 3.6-.2 2.9-1.4 8.9-3.8 15.6-4.3 6.7-.5 18 4.6 18 4.6s3.3-5.3-2.9-8.4z"/><path fill="#6B6562" d="M166.2 196.7c-6.7 9.8-19.4 17.4-38.3 17.4V256h.2c35.3 0 67.2-14.3 90.4-37.4-15.8-5-36.8-12.8-52.3-21.9z"/><path fill="#756E6B" d="M166.2 196.7c15.6 9.1 36.6 16.8 52.2 21.9 2.4-2.4 4.8-5 7-7.6-30.3-10.9-50.7-21.1-54.9-23.2-.9 3.1-2.4 6.1-4.3 8.9z"/><path fill="#4A474B" d="M127.8 206.7v7.4c18.9 0 31.6-7.6 38.3-17.4 1.9-2.8 3.4-5.8 4.3-8.9 0-.1.1-.3.1-.4 0 0-1.4-4-5-5.2 0 0-.4.9-1.3 2.3-3.6 6.2-15.3 22.2-36.4 22.2z"/></svg>