<svg xmlns="http://www.w3.org/2000/svg" width="256" height="256"><circle fill="#B1B3B5" cx="128" cy="128" r="128"/><path fill="#2C333D" d="M238 188.5c.1 1.3.2 2.8.3 4.4.9-1.5 1.8-3.1 2.6-4.6-.7 0-1.8.1-2.9.2z"/><path fill="#775B4B" d="M135.6 197.1l2.5-6.4s14.8-11.6 20.4-26.2l9.1-4.1c-1.6-4.7-1.1-8.3-.4-10.4-.7 1.2-1.4 2.2-2.2 3.2-1.3 1.6-1.1 2.6-1.8 3.5s-.5 1.8-1.6 2.2-1.7-1.4-2.7 1.1c-1 2.5.8 1.3-1.6 2.6-2.4 1.3-2.3.5-4 1.4-1.7 1-2 1.3-2.4 2.2-.3 1 3.6-.8-.9 2.6-4.5 3.4-3.5 4.8-4.7 4.9-1.1.2-2.9-.6-3.8 0-1 .6-1.1-2-2.2 0-1.1 2.1-1.3 1.6-2.1 2.9-.8 1.2-1 1.1-2.1 1.4-1.1.3-2.7 0-2.7 0l-1.6.1-2.8-.1v19.1h7.6z"/><path fill="#8F929E" d="M134.6 199.5l1-2.4H128v40z"/><path fill="#53688F" d="M175.6 191.3c-9.6 13.3-41 8.2-41 8.2l-6.6 37.6V249l4.4-4.2.1-.3v-13.9l5.1-5.3 3.3.5-.1-.5L190 205l1-38.2.2-.2-8.4-2.2c0-.1 2.4 13.6-7.2 26.9z"/><path fill="#775B4B" d="M175.9 102.7c.2 4.2-.1 9.8-1 15.7.8-.1 1.7-.4 2.6-.8 4.6-2.2 1.4-5.7 3.3-8.6 1.8-2.9 1.5-10.1 2-12.9.5-2.9 1.4-7.2 3.1-11.3s2.2-6.5-1.4-6.5c-1.8 0-4.4 2.2-6.5 4.4-1.3 6.5-2.4 14-2.1 20z"/><path fill="#8C6C5A" d="M135.1 126.6s.2.8 4.5 2.6 8.3 2.9 10.4 4.9c2.1 2.1 1.3-.2 2.1 2.4s1.3 2.6 1.1 3.5c-.2 1 .8 3.2-1 2.1l-1.8-1.1s-2.1-1-3-1.1c-1-.2-.8.2-1.8-1.4s-1.3-1.9-1.3-1.9-.8-1.5-1.6-2-1.1-1.7-2.1-1.4l-1 .3s1.9 1.4-1 1l-2.9-.4s-1.4.6-1.9.4c-.5-.2-4.2 0-4.2 0l-1.7-.7v22.3s11.6.2 15.9-1.9c0 0-1.1 1.3-2.2 1.9-1.1.6-4 1.6-4.6 2.4-.6.8-1.3.2-1.8 1.8s-.8 1.3-.8 2.7-1.6 3.2 2.4 2.2 7-2.4 7-2.4 5.1-.8 5.1-3c0-2.1-1.9-3.4 0-3.9s1 1.9 2.7-1.1-.1-2.6 1.6-4 .7-1.3 2.3-2.4c1.6-1.1-2.4-.2 2.7-1.8s3.2-1.1 5.1-1.6c1.9-.5-1.6 2.2 1.9-.5s3-3 3.8-3.8c.8-.8 2-4.1 2.1-4.3 1.7-6 2.9-12.3 3.7-18.1.8-6 1.2-11.5 1-15.7-.3-6 .8-13.5 2.1-19.9.2-1.1.4-2.2.7-3.3-4.3-3.9-10-17-10.5-24.1-.2-3-1.5-7-2.8-10.7-1.9-.5-4.3-1.1-7.2-2-10.3-3.1-30.1-4.3-30.1-4.3v89.6s5.7-.1 7.1-1.3zm9.1-45.1h-3.4s3.8-2.2 8.1-1.9c4.3.2 11 0 11 0 .5.1 1 .2 1.4.3 3.6 1 4.1 2.8 4.1 2.8H164l1.4 2.4s-7.4-2.4-14.8 0-12.2 1.7-12.2 1.7c-.4-4.9 5.8-5.3 5.8-5.3z"/><path fill="#272726" d="M150.7 85.1c7.4-2.4 14.8 0 14.8 0l-1.4-2.4h1.4s-.6-1.7-4.1-2.8c-.4-.1-.9-.2-1.4-.3 0 0-6.7.2-11 0s-8.1 1.9-8.1 1.9h3.4s-6.2.5-5.7 5.3c-.1-.1 4.7.7 12.1-1.7z"/><path fill="#6C5244" d="M178.6 79.5s3.8-9.1 3.5-21c-4-2.7-5.1-8.4-7.8-10.6-1.9-1.5-4.2-2-9.1-3.3 1.4 3.7 2.6 7.7 2.8 10.7.6 7.2 6.3 20.3 10.6 24.2z"/><path fill="#272726" d="M128 38.4s19.8 1.2 30.1 4.3c2.9.9 5.2 1.5 7.2 2 4.9 1.3 7.2 1.7 9.1 3.3 2.6 2.1 3.7 7.9 7.8 10.6h.1s.7-12.5-4-24.5c0 0-.5-.5-1-1.9s1.2 0-.5-1.4 0 1-1.7-1.4-1 1.2-1.7-2.4c-.7-3.6.5-3.8-1.2-5-1.7-1.2-3.6-1.4-4.1-2.9-.5-1.4-1.2-2.6-1.2-4.6 0-1.5 1-5.2.4-8.2C155 2.2 141.8 0 128 0v38.4zm5.8 96.1c.5.2 1.9-.4 1.9-.4l2.9.4c2.9.4 1-1 1-1l1-.3c1-.3 1.3.8 2.1 1.4s1.6 2 1.6 2 .3.3 1.3 1.9.8 1.3 1.8 1.4c1 .2 3 1.1 3 1.1l1.8 1.1c1.8 1.1.8-1.1 1-2.1.2-1-.3-1-1.1-3.5s0-.3-2.1-2.4-6.1-3.2-10.4-4.9c-4.3-1.8-4.5-2.6-4.5-2.6-1.4 1.1-7.1 1.3-7.1 1.3v5.9l1.7.7s3.7-.2 4.1 0zm31.5 10.2c-3.5 2.7 0 0-1.9.5s0 0-5.1 1.6-1.1.6-2.7 1.8c-1.6 1.1-.6 1-2.3 2.4s.2 1-1.6 4-.8.6-2.7 1.1c-1.9.5 0 1.8 0 3.9 0 2.1-5.1 3-5.1 3s-3 1.4-7 2.4-2.4-.8-2.4-2.2.3-1.1.8-2.7 1.1-1 1.8-1.8c.6-.8 3.5-1.8 4.6-2.4 1.1-.6 2.2-1.9 2.2-1.9-4.3 2.1-15.9 1.9-15.9 1.9v21.8l2.8.3 1.6-.1s1.6.3 2.7 0 1.3-.2 2.1-1.4 1-.8 2.1-2.9c1.1-2.1 1.3.6 2.2 0 1-.6 2.7.2 3.8 0 1.1-.2.2-1.6 4.7-4.9 4.5-3.4.6-1.6.9-2.6.3-1 .6-1.3 2.4-2.2 1.7-1 1.6-.2 4-1.4 2.4-1.3.6 0 1.6-2.6 1-2.5 1.6-.6 2.7-1.1s1-1.3 1.6-2.2.5-1.9 1.8-3.5c.8-.9 1.5-2 2.2-3.2.4-1.3.9-2.1.9-2.1.4-1 .9-2 1.5-2.9 1-3.4 1.6-8.6 1.6-8.6-.1.2-1.3 3.5-2.1 4.3-.8.7-.3 1-3.8 3.7z"/><path fill="#223A65" d="M176.2 174.9s-6.9 20-38.1 15.9l-2.5 6.4-1 2.4s31.4 5.1 41-8.2c9.6-13.3 7.2-27 7.2-27l-6.5-6.6c.1 5-.1 17.1-.1 17.1z"/><path fill="#2D4A7C" d="M172.8 154.1c1.8 2.9-5.2 6.4-5.2 6.4l-9.1 4.1c-5.5 14.6-20.4 26.2-20.4 26.2 31.1 4.1 38.1-15.9 38.1-15.9s.2-12 .1-17.2c0-1.2 0-2-.1-2.2-.2-1.2-6.6-10.3-6.6-10.3-.6.9-1.1 1.9-1.5 2.9 0 0 3 3.2 4.7 6z"/><path fill="#061B3E" d="M167.6 160.5s7-3.5 5.2-6.4c-1.7-2.9-4.7-6-4.7-6s-.5.7-.9 2.1c-.7 2-1.2 5.6.4 10.3z"/><path fill="#1F1A2B" d="M152.6 240.7l-10.5-3.8L141 226l-3.3-.5-5.1 5.3v13.9l-.1.3 4.4-4.2h4.6v1.8c1.4 0 3.1.5 4.7 2.3v9.9c2.8-.4 5.5-.9 8.2-1.4l-1.8-12.7z"/><path fill="#403B4F" d="M136.6 244.8s2-2.2 4.7-2.3v-1.8h-4.6l-4.4 4.2-4.4 4.2v6.9c2.9 0 5.8-.1 8.6-.3v-10.9z"/><path fill="#505157" d="M146.1 244.8c-1.6-1.8-3.3-2.3-4.7-2.3-2.7.1-4.7 2.3-4.7 2.3v10.9c3.2-.2 6.3-.5 9.4-1v-9.9z"/><path fill="#373542" d="M190 205l3.7-1.6 1-40.8-3.5 3.9-.2.2z"/><path fill="#423F4E" d="M237.3 183.2c-.2-.8-1.9-2-4.4-3.5 0 4.4-.2 13.9-.4 22.3 2.1-2.9 4-5.9 5.8-9-.1-1.6-.2-3.1-.3-4.4-.2-2.6-.5-4.6-.7-5.4zm-43.6 20.2l.1-.1s1.9.6 4.9 1.6l3.1-37.7s-.7-1.8-2-2.6c-3.2-1.3-5.2-2.1-5.2-2.1l-.9 40.9z"/><path fill="#916027" d="M232.9 179.7c0-1.1 0-1.9-.1-2.2-.3-3.2-4.5-3.8-9.6-5.2-5.1-1.4-13.2-6.9-16.3-9.7-3-2.7-7.9 1.8-7.9 1.8.3.1.6.2.8.3 1.3.8 2 2.6 2 2.6l-3.1 37.7c5.8 1.9 15.7 5.2 24.8 8.2 3.2-3.6 6.2-7.3 8.9-11.2.3-8.4.5-18 .5-22.3z"/><path fill="#8F929E" d="M198.7 205c-3-1-4.9-1.6-4.9-1.6l-.1.1-3.7 1.5-49.1 20.5.1.5 1.1 10.9 10.5 3.8 1.7 12.6c27.3-5.7 51.4-20.1 69.2-40.1-9-3.1-19-6.3-24.8-8.2z"/><path fill="#1E242D" d="M15.1 188.4c.8 1.6 1.7 3.1 2.6 4.6.1-1.6.2-3.1.3-4.4-1.1-.2-2.2-.3-2.9-.2z"/><path fill="#60493B" d="M128 178l-2.8.3-1.6-.1s-1.6.3-2.7 0-1.3-.2-2.1-1.4-1-.8-2.1-2.9c-1.1-2.1-1.3.6-2.2 0-1-.6-2.7.2-3.8 0-1.1-.2-.2-1.6-4.7-4.9-4.5-3.4-.6-1.6-.9-2.6-.3-1-.6-1.3-2.4-2.2-1.7-1-1.6-.2-4-1.4-2.4-1.3-.6 0-1.6-2.6-1-2.5-1.6-.6-2.7-1.1s-1-1.3-1.6-2.2-.5-1.9-1.8-3.5c-.8-.9-1.5-2-2.2-3.2.7 2.1 1.2 5.7-.4 10.4l9.1 4.1c5.5 14.6 20.4 26.2 20.4 26.2l2.5 6.4h7.6V178z"/><path fill="#757881" d="M128 197.1h-7.6l1 2.4 6.6 37.6v-29.2z"/><path fill="#3E4F6F" d="M66 205l49.1 20.5-.1.5 3.3-.5 5.1 5.3v13.9l.1.3 4.4 4.2v-11.9l-6.6-37.6s-31.4 5.1-41-8.2c-9.6-13.3-7.2-27-7.2-27l-8.4 2.2.2.2L66 205z"/><path fill="#60493B" d="M80.1 102.7c.1-2.4 0-5-.2-7.6-1.5-.2-2.4-2-3-3.3-.7-1.4-.5-3.8-1.2-5-.7-1.2 1.2-4.6-1.9-2.6-2.3 1.4-2.8 1.6-3 2.2 1.3 3.6 2.1 7.2 2.5 9.7.5 2.9.2 10.1 2 12.9 1.8 2.9-1.3 6.5 3.3 8.6.9.4 1.8.7 2.6.8-1-5.9-1.3-11.5-1.1-15.7z"/><path fill="#775B4B" d="M90.7 144.7c3.5 2.7 0 0 1.9.5s0 0 5.1 1.6 1.1.6 2.7 1.8.6 1 2.3 2.4-.2 1 1.6 4 .8.6 2.7 1.1c1.9.5 0 1.8 0 3.9 0 2.1 5.1 3 5.1 3s3 1.4 7 2.4 2.4-.8 2.4-2.2-.3-1.1-.8-2.7-1.1-1-1.8-1.8c-.6-.8-3.5-1.8-4.6-2.4-1.1-.6-2.2-1.9-2.2-1.9 4.3 2.1 15.9 1.9 15.9 1.9V134l-1.7.7s-3.7-.2-4.2 0-1.9-.4-1.9-.4l-2.9.4c-2.9.4-1-1-1-1l-1-.3c-1-.3-1.3.8-2.1 1.4s-1.6 2-1.6 2-.3.3-1.3 1.9-.8 1.3-1.8 1.4-3 1.1-3 1.1l-1.8 1.1c-1.8 1.1-.8-1.1-1-2.1-.2-1 .3-1 1.1-3.5s0-.3 2.1-2.4 6.1-3.2 10.4-4.9c4.3-1.8 4.5-2.6 4.5-2.6 1.4 1.1 7.1 1.3 7.1 1.3V38.4s-13.5-1.6-20 5.4c0 0-2.2 12.8-7.4 18-5.3 5.3-11.7 3.4-12 8.9s.5 14.4-1.9 12.9-2.9-.7-3.6-4.1c-.4-2-1.3-3.7-2.2-4.6-.7 1.2-1.5 2.3-2.2 3.2.2 1.3.4 2.7.4 3.8 0 2.4 2.6 3.1 1.7 5.7-1 2.6-1.7 1.9-1 3.8s2.2 3.6.5 3.6h-.3c.2 2.7.4 5.3.2 7.6-.2 4.2.1 9.8 1 15.7.8 5.8 2.1 12.1 3.7 18.1.1.2 1.3 3.5 2.1 4.3.8 1 .3 1.3 3.8 4zm-.2-62s.6-1.7 4.1-2.8c.4-.1.9-.2 1.4-.3 0 0 6.7.2 11 0s8.1 1.9 8.1 1.9h-3.4s6.2.5 5.7 5.3c0 0-4.8.7-12.2-1.7s-14.8 0-14.8 0l1.4-2.4h-1.3z"/><path fill="#191918" d="M105.3 85.1c7.4 2.4 12.2 1.7 12.2 1.7.5-4.8-5.7-5.3-5.7-5.3h3.4s-3.8-2.2-8.1-1.9-11 0-11 0c-.5.1-1 .2-1.4.3-3.6 1-4.1 2.8-4.1 2.8H92l-1.4 2.4c-.1 0 7.3-2.4 14.7 0z"/><path fill="#6C5244" d="M79 74.5c-.7.5-.6 2-.4 3.7.7-.9 1.5-2 2.2-3.2-.6-.6-1.3-.9-1.8-.5z"/><path fill="#191918" d="M120.9 126.6s-.2.8-4.5 2.6-8.3 2.9-10.4 4.9c-2.1 2.1-1.3-.2-2.1 2.4s-1.3 2.6-1.1 3.5c.2 1-.8 3.2 1 2.1l1.8-1.1s2.1-1 3-1.1.8.2 1.8-1.4 1.3-1.9 1.3-1.9.8-1.5 1.6-2 1.1-1.7 2.1-1.4l1 .3s-1.9 1.4 1 1l2.9-.4s1.4.6 1.9.4c.5-.2 4.2 0 4.2 0l1.7-.7v-5.9c-.1 0-5.8-.1-7.2-1.3zm-33 21.5s.5.7.9 2.1c.7 1.2 1.4 2.2 2.2 3.2 1.3 1.6 1.1 2.6 1.8 3.5s.5 1.8 1.6 2.2 1.7-1.4 2.7 1.1c1 2.5-.8 1.3 1.6 2.6 2.4 1.3 2.3.5 4 1.4 1.7 1 2 1.3 2.4 2.2.3 1-3.6-.8.9 2.6 4.5 3.4 3.5 4.8 4.7 4.9 1.1.2 2.9-.6 3.8 0 1 .6 1.1-2 2.2 0 1.1 2.1 1.3 1.6 2.1 2.9.8 1.2 1 1.1 2.1 1.4 1.1.3 2.7 0 2.7 0l1.6.1 2.8-.3v-21.8s-11.6.2-15.9-1.9c0 0 1.1 1.3 2.2 1.9 1.1.6 4 1.6 4.6 2.4.6.8 1.3.2 1.8 1.8s.8 1.3.8 2.7 1.6 3.2-2.4 2.2-7-2.4-7-2.4-5.1-.8-5.1-3c0-2.1 1.9-3.4 0-3.9s-1 1.9-2.7-1.1.1-2.6-1.6-4-.7-1.3-2.3-2.4 2.4-.2-2.7-1.8-3.2-1.1-5.1-1.6c-1.9-.5 1.6 2.2-1.9-.5s-3-3-3.8-3.8c-.8-.8-2-4.1-2.1-4.3s.6 5.2 1.6 8.6c.7 1 1.1 2 1.5 3z"/><path fill="#152A50" d="M80.4 191.3c9.6 13.3 41 8.2 41 8.2l-1-2.4-2.5-6.4c-31.1 4.1-38.1-15.9-38.1-15.9s-.2-12-.1-17.2l-6.5 6.6c0 .1-2.4 13.8 7.2 27.1z"/><path fill="#223A65" d="M79.8 174.9s6.9 20 38.1 15.9c0 0-14.8-11.6-20.4-26.2l-9.1-4.1s-7-3.5-5.2-6.4c1.7-2.9 4.7-6 4.7-6-.4-1-.9-2-1.5-2.9 0 0-6.4 9.1-6.6 10.3 0 .2-.1 1-.1 2.2-.1 5.1.1 17.2.1 17.2z"/><path fill="#00052B" d="M88.8 150.1c-.4-1.3-.9-2.1-.9-2.1s-3 3.2-4.7 6c-1.8 2.9 5.2 6.4 5.2 6.4 1.6-4.6 1.1-8.2.4-10.3z"/><path fill="#140D1F" d="M109.9 244.8c1.6-1.8 3.3-2.3 4.7-2.3v-1.8h4.6l4.4 4.2-.1-.3v-13.9l-5.1-5.3-3.3.5-1.1 10.9-10.5 3.8-1.7 12.6c2.7.6 5.5 1 8.2 1.4v-9.8z"/><path fill="#2E2A3C" d="M128 249.1l-4.4-4.2-4.4-4.2h-4.6v1.8c2.7.1 4.7 2.3 4.7 2.3v10.9c2.9.2 5.7.3 8.6.3v-6.9z"/><path fill="#3D3E44" d="M119.4 244.8s-2-2.2-4.7-2.3c-1.4 0-3.1.5-4.7 2.3v9.9c3.1.4 6.2.8 9.4 1v-10.9z"/><path fill="#282632" d="M62.3 203.4L66 205l-1-38.3-.2-.2-3.5-3.9z"/><path fill="#373542" d="M54.1 167.3l3.1 37.7c3-1 4.9-1.6 4.9-1.6l.1.1-1-40.9s-2 .8-5.2 2.1c-1.1.7-1.9 2.6-1.9 2.6zm-31 12.4c-2.5 1.5-4.2 2.7-4.4 3.5-.2.8-.5 2.8-.7 5.4-.1 1.3-.2 2.8-.3 4.4 1.8 3.1 3.8 6.1 5.8 9-.2-8.4-.4-18-.4-22.3z"/><path fill="#704918" d="M57.3 205l-3.1-37.7s.7-1.8 2-2.6c.2-.2.5-.3.8-.3 0 0-4.9-4.5-7.9-1.8s-11.1 8.3-16.3 9.7c-5.1 1.4-9.3 2-9.6 5.2 0 .4-.1 1.1-.1 2.2 0 4.4.2 13.9.4 22.3 2.8 3.9 5.8 7.6 8.9 11.2 9.1-3.1 19.1-6.3 24.9-8.2z"/><path fill="#757881" d="M103.4 240.7l10.5-3.8L115 226l.1-.5L66 205l-3.7-1.5-.1-.1s-1.9.6-4.9 1.6c-5.8 1.9-15.7 5.2-24.8 8.2 17.9 20 42 34.4 69.2 40.1l1.7-12.6z"/><path fill="#191918" d="M64.9 22.1c0 1.2 0 0-5.7 4.6s-1.7.5-5.5 1.7-3.4 2.6-6.5 4.6c-3.1 1.9-.7 1.7-.7 4.6 0 2.9 3.4 7.4 2.6 10.3-.7 2.9-1.2 2.2-2.9 4.1-1.7 1.9-1 1.7-2.5 4.8-1.6 3.1.4 1.9 1.6 4.6s-.3 1.9-1.3 3.5c-1 1.7 0 0 1.4 3.6s1.2 1.2 2.9 1.2 2.2 1.7 2.2 1.7l.2 2.2s-1 2.6-1.4 8.1-3.6 4.3 4.8 6.9c8.4 2.6 2.4 0 3.1-1.7s2.2-1.2 8.4-1.4c0 0 .7 3.4 2.2 4.3s2.2-1.2 2.6-2.6c.1-.4.2-.7.3-.9.3-.6.8-.8 3-2.2 3.1-1.9 1.2 1.4 1.9 2.6.7 1.2.5 3.6 1.2 5 .7 1.3 1.6 3.1 3 3.3h.3c1.7 0 .2-1.7-.5-3.6s0-1.2 1-3.8c1-2.6-1.7-3.4-1.7-5.7 0-1.1-.2-2.5-.4-3.8-.2-1.6-.3-3.1.4-3.7.5-.4 1.2-.2 1.8.5.9.9 1.8 2.6 2.2 4.6.7 3.4 1.2 2.6 3.6 4.1s1.7-7.4 1.9-12.9 6.7-3.6 12-8.9c5.3-5.3 7.4-18 7.4-18 6.5-7 20-5.4 20-5.4V0C105 0 83.5 6 64.9 16.5c-.1.4-.2.8-.3 1.3-.7 4.5.3 3.1.3 4.3z"/></svg>