<svg xmlns="http://www.w3.org/2000/svg" width="256" height="256"><circle fill="#B1B3B5" cx="128" cy="128" r="128"/><path fill="#121B1F" d="M166.8 164.5c-.7 6.4-.9 13.6.1 19.4 3.2-3.9 5.7-7.7 5.8-11 .3-7.7-5.3-8.3-5.9-8.4z"/><path fill="#A8755A" d="M159 169.1c-7.3 9.1-31 11.2-31 11.2v43.4s14-1.9 27.7-7.5c0 0-2.1-3.8-2.8-7.3-1.1-3.9-1.5-7.7.2-10 2.6-3.6 9-9.3 13.9-15.1-1.1-5.8-.8-12.9-.1-19.4h-.1l.3-2.5c.3-2.3.6-4.4.9-6.3-3.1 5.3-6.4 10.2-9 13.5z"/><path fill="#D4D6D7" d="M158.4 221.5s-1.3-2.2-2.7-5.2c-13.8 5.5-27.7 7.5-27.7 7.5V256c9.7 0 19.1-1.1 28.2-3.1.6-11.8 1.7-24.5 2.3-31.4h-.1z"/><path fill="#16477F" d="M199.5 189.1s-3.8-1.8-10.8-6.4c.2.7.2 1.4.1 2.1-.7 4.1-4.1 22-7.4 24.7-3.2 2.5-21.4 11.2-22.9 11.9-.6 6.9-1.7 19.6-2.3 31.4 32.8-7.4 60.9-27.4 78.8-54.6-8.4-2.6-14.5-4.1-18.5-5.1-6.4-1.6-17-4-17-4zm-31.9 47.7c-2.8 0-5.1-2.3-5.1-5.1s2.3-5.1 5.1-5.1 5.1 2.3 5.1 5.1-2.2 5.1-5.1 5.1z"/><path fill="#A8755A" d="M182.9 108.5c-.3 2.4-2.1 9.4-2.1 9.4s-.2-1-.5-2.2c-.7 6.3-1.4 12.1-1.6 15.1-.1 1.6-.6 3.7-1.5 6.1 1.5-.4 2.9-.7 3.7-.9 2.6-.6 4.2-8.5 3.8-11.5-.3-3 2.7-8 3-11 .3-2.4 1-5.7-.3-9.1-.3 0-.5-.1-.8-.1.1-.1-3.4 1.8-3.7 4.2z"/><path fill="#BD8265" d="M144.4 55.8s-1.7 11 5.3 12.9c6.9 1.9 5.1-5.6 5.1-5.6s-6.9-1-10.4-7.3z"/><path fill="#BD8265" d="M180.4 115.7c-.3-1.4-.5-3.1-.3-4.1.3-1.9-1.9-6.1-2.2-7.5-.3-1.4-2.2-9.9-2.1-16l-4.3-11.5s-4.5 1-6.4-.8c0 0 9.1-.2 5.4-6.8-2.1-3.7-3.5-5.1-4.4-5.7-.3-.1-.6-.2-.9-.4h-.1s2.4 13.1-2.9 15.2c-5.3 2.1-14.7.8-20.1-4.8-5.4-5.6-8.6-6.7-8.6-11.8 0-5.1 1.3-11.7-.2-16.6 0 0-1.9 3-5.3 3v132.3s23.6-2 31-11.2c2.7-3.3 6-8.2 9.1-13.4 3.8-6.4 7.3-13.3 9.3-18.8.8-2.3 1.4-4.4 1.5-6.1.1-2.8.7-8.6 1.5-15zm-44.7-39.3c4.2-2.1 16.3 4 19.3 3.8 3-.2 6.7 1.9 9.6 4.2 2.9 2.2 3.4 4.8 3.4 4.8-2.6-1.9-9.7-4-14.5-4.2-4.8-.2-8.9-2.4-12-2.9-3-.5-9.1 0-9.1 0-.1-2.8 3.3-5.7 3.3-5.7z"/><path fill="#362F1F" d="M141.4 82.1c3 .5 7.2 2.7 12 2.9 4.8.2 12 2.2 14.5 4.2 0 0-.5-2.6-3.4-4.8-2.9-2.2-6.5-4.3-9.6-4.2-3 .2-15.2-5.9-19.3-3.8 0 0-3.4 2.9-3.4 5.7.1 0 6.2-.4 9.2 0z"/><path fill="#423A29" d="M128 34.7s7.1 1.6 8.6 8.9c1.3 6.3 14.7 5.6 17.9 2.1 0 0-1.3 4-6.4 5.1 0 0 1 3 7.5 4.9 6.5 1.9 15.8 6.1 16.4 10.4 0 0-2.6-1.3-6-2.7.9.6 2.3 2 4.4 5.7 3.7 6.5-5.4 6.8-5.4 6.8 1.9 1.8 6.4.8 6.4.8l4.3 11.5c-.2 6.1 1.8 14.5 2.1 16 .3 1.4 2.6 5.6 2.2 7.5-.2 1 .1 2.7.3 4.1.2 1.2.5 2.2.5 2.2s1.8-7 2.1-9.4c.3-2.4 3.8-4.3 3.8-4.3.3.1.5.1.8.1 7.6 1.4 9.4-3.5 9.4-3.5-6.2 1.4-7-4-7-4l2.9 1.1c-.3-3.8-3.2-12.6-3.2-12.6l5.3-2.8s6.7.2 8.7-3.3c2-3.5-.1-6.9-.1-6.9s1 3.2-3 6.1c-4 2.9-8-2.6-8.8-4.6-.8-2.1 4.2-3.5 4.2-4.5s-.6-3.7-1.9-5.3c-1.3-1.6 1.1-7.3 1-8.5-.2-1.1-8.8-1.1-9.9-1.9-1.1-.8 1.3-2.6 3.6-2.8 2.3-.2 6.3 4 6.3 2.4s-1.3-4-3.8-4.8c-.9-.3-2.7-.8-4.7-1.5.3-2.2.6-6.4-1.1-9.2-2.4-4-6.2-4.9-8.1-7.3-1.9-2.4-3.8-2.9-7.8-8.3s-14.4-4.6-13.3-5.7c1.1-1.1-1.3-7.3-1.3-7.3s-3.5 3.4-8.6 2.2c-5.1-1.1-18.2-3-18.2-3v26.3zm60.3 50.9l2.9 5s-4.9-5-6.1-2.9c-1.2 2.2-4.4 21.7-4.4 21.7s-3.8-16-3.5-21.9c0 0-6.2-5.4-4.3-13.2 0 .1-.2 11.8 15.4 11.3zM179.2 39c4.3 1.1 6 5.5 6.6 7.9-3.7-1.2-8-2.6-9-3.2-1.5-.8-3.6-6.3 2.4-4.7z"/><path fill="#423A29" d="M133.3 45.1c1.4 4.9.2 11.5.2 16.6 0 5.1 3.2 6.2 8.6 11.8 5.4 5.6 14.8 6.9 20.1 4.8 5.3-2.1 2.9-15.2 2.9-15.2h.1c-3.5-1.3-7.6-2.5-10.8-2.5-6.9 0-10.2-7.5-10.4-10.1h-2.4s-2.2 14 4.8 19.9c6.6 5.5 14.7 6.4 17.3 3.9l.1-.1c.1-.1.3-.3.4-.5 0 0-.1.2-.4.5l-.1.1c-1.6 1.8-7.7 7.1-18.9.1-13.3-8.3-9.4-15.7-9.4-19.8s-.5-10.9-2.9-13.3-4.5-3.7-4.5-3.7v10.5c3.4 0 5.3-3 5.3-3zm16.4 23.6c-6.9-1.9-5.3-12.9-5.3-12.9 3.5 6.3 10.4 7.3 10.4 7.3s1.8 7.5-5.1 5.6z"/><path fill="#362F1F" d="M172.9 74.4c-1.9 7.8 4.3 13.2 4.3 13.2-.4 5.9 3.5 21.9 3.5 21.9s3.2-19.5 4.4-21.7c1.2-2.2 6.1 2.9 6.1 2.9l-2.9-5c-15.6.4-15.4-11.3-15.4-11.3zm-37.6-19.9c0 4.2-3.8 11.5 9.4 19.8 11.2 7 17.2 1.7 18.9-.1-2.6 2.5-10.7 1.6-17.3-3.9-7-5.9-4.8-19.9-4.8-19.9h2.4c.2 2.7 3.5 10.1 10.4 10.1 3.2 0 7.3 1.2 10.8 2.5.3.1.6.2.9.4 3.4 1.4 6 2.7 6 2.7-.6-4.3-9.9-8.5-16.4-10.4-6.5-1.9-7.5-4.9-7.5-4.9 5.1-1.1 6.4-5.1 6.4-5.1-3.2 3.5-16.6 4.3-17.9-2.1-1.5-7.3-8.6-8.9-8.6-8.9v2.9s2.1 1.3 4.5 3.7 2.8 9.1 2.8 13.2z"/><path fill="#362F1F" d="M163.7 74.1c.2-.3.4-.5.4-.5-.1.2-.3.4-.4.5zm0 0c0 .1 0 .1 0 0 0 .1 0 .1 0 0z"/><path fill="#2C363A" d="M166.8 164.5c.6 0 6.2.6 6 8.4-.1 3.3-2.6 7.1-5.8 11-4.8 5.8-11.3 11.5-13.9 15.1-1.6 2.3-1.3 6.1-.2 10 6.5-5 13-10.1 18.4-15.6 5.4-5.5 10.9-23.3 10.9-23.3-.2-.9-.5-1.9-.8-2.9-1.4-3.8-13.9-7.9-13.9-7.9l-.4 2.8-.3 2.4zM178 196c-5.7 9.4-22.3 20.3-22.3 20.3 1.4 3.1 2.7 5.2 2.7 5.2l.1-.1c1.5-.7 19.7-9.4 22.9-11.9 3.4-2.6 6.7-20.6 7.4-24.7.1-.8.1-1.5-.1-2.1-.4-1.5-1.4-2.8-2.4-3.9 0 .1-2.5 7.7-8.3 17.2z"/><path fill="#6F0F10" d="M171.3 193.3c-5.4 5.5-11.9 10.6-18.4 15.6.7 3.5 2.8 7.3 2.8 7.3s16.6-10.9 22.3-20.3c5.7-9.4 8.3-17.1 8.3-17.1l-4.1-8.8s-5.4 17.8-10.9 23.3z"/><ellipse transform="rotate(-67.5 167.63 231.727)" fill="#6F0F10" cx="167.6" cy="231.7" rx="5.1" ry="5.1"/><path fill="#121B1F" d="M89.2 164.5c-.6 0-6.2.6-5.9 8.4.1 3.3 2.6 7.1 5.8 11 1-5.8.7-12.9.1-19.4z"/><path fill="#8F644C" d="M89.2 164.5c.6 6.4.9 13.6-.2 19.4 4.8 5.8 11.3 11.5 13.9 15.1 1.6 2.3 1.3 6.1.2 10-.7 3.5-2.8 7.3-2.8 7.3 13.8 5.5 27.7 7.5 27.7 7.5v-43.4s-23.6-2-31-11.2c-2.7-3.3-6-8.2-9.1-13.4.3 1.9.6 4 .9 6.3l.4 2.4z"/><path fill="#B1B3B5" d="M128 223.7s-14-1.9-27.7-7.5c-1.4 3.1-2.7 5.2-2.7 5.2l-.1-.1c.6 6.9 1.7 19.6 2.3 31.4 9.1 2 18.5 3.1 28.2 3.1v-32.1z"/><path fill="#0F396B" d="M74.6 209.5c-3.4-2.6-6.7-20.6-7.4-24.7-.1-.8-.1-1.5.1-2.1-7 4.6-10.8 6.4-10.8 6.4s-10.5 2.4-16.9 4.1c-4 1-10.2 2.5-18.5 5.1 17.9 27.2 46 47.2 78.8 54.6-.6-11.8-1.7-24.5-2.3-31.4-1.6-.8-19.8-9.4-23-12zm13.8 27.3c-2.8 0-5.1-2.3-5.1-5.1s2.3-5.1 5.1-5.1 5.1 2.3 5.1 5.1-2.3 5.1-5.1 5.1z"/><path fill="#8F644C" d="M75.6 110.7c-.1 1.3-.1 2.1-.1 2.1-2.2-1.9-2.9-8.4-4.1-10.1-.3-.4-.7-1-1-1.7-.1.1-.2.3-.4.4-3.4 4.5-2.2 8.9-1.9 12 .3 3 3.4 8 3 11-.3 3 1.3 10.9 3.8 11.5.8.2 2.2.6 3.7.9-.8-2.3-1.4-4.4-1.5-6.1-.1-3.2-.8-11.4-1.5-20z"/><path fill="#A8755A" d="M97 169.1c7.3 9.1 31 11.2 31 11.2v-132s-6.3.6-12.5-4c0 0-8.3 1-11.3 2.7-2.6 1.4-7.7 3.2-10.9 3.7-.5.4-.9.7-1.2 1-2.4 2.6-9.3 11.5-11.7 17.3-2.1 5-4.1 33.6-4.6 41.6.7 8.7 1.3 16.8 1.6 20.2.1 1.6.6 3.7 1.5 6.1 1.9 5.5 5.5 12.4 9.3 18.8 2.9 5.2 6.2 10.1 8.8 13.4zM92.3 76c4.3-2.8 6-3.2 6.9-2.9 1 .2 6.9-.5 13.2 0 6.2.5 8.6 9.5 8.6 9.5-5.3-.3-10.5-2.8-10.5-2.8-2.6 1-8.4-3.1-12.2-2.8-3.8.4-13.1 9.7-13.1 9.7.3-3.4 2.7-7.9 7.1-10.7z"/><path fill="#1E272B" d="M84.7 193.3c5.4 5.5 11.9 10.6 18.4 15.6 1.1-3.9 1.5-7.7-.2-10-2.6-3.6-9-9.3-13.9-15.1-3.2-3.9-5.7-7.7-5.8-11-.2-7.7 5.4-8.3 5.9-8.4h.1l-.3-2.5-.4-2.8S76 163.2 74.6 167c-.4 1-.6 2-.8 2.9 0 .1 5.4 17.9 10.9 23.4zm-17.5-8.4c.7 4.1 4.1 22 7.4 24.7 3.2 2.5 21.4 11.2 22.9 11.9.1 0 .1.1.1.1s1.3-2.2 2.7-5.2c0 0-16.6-10.9-22.3-20.3-5.7-9.4-8.3-17.1-8.3-17.1-1 1.1-2.1 2.3-2.4 3.9-.2.5-.2 1.2-.1 2z"/><path fill="#600405" d="M78 196c5.7 9.4 22.3 20.3 22.3 20.3s2.1-3.8 2.8-7.3c-6.5-5-13-10.1-18.4-15.6-5.4-5.5-10.9-23.3-10.9-23.3l-4.1 8.8s2.5 7.6 8.3 17.1z"/><ellipse transform="rotate(-9.213 88.38 231.701)" fill="#600405" cx="88.4" cy="231.7" rx="5.1" ry="5.1"/><path fill="#4C4330" d="M75.5 112.8s.1-.8.1-2.1c.5-8.1 2.6-36.6 4.6-41.6 2.4-5.8 9.3-14.7 11.7-17.3.3-.3.7-.6 1.2-1-.6.1-1.1.1-1.5.1H87l-13.2 2.3c-2.7 5.5-5.1 11.8-5.3 14.2-.2 3.4-1 8.3 0 15.3S68 96.4 68 96.4s1.2 2.7 2.3 4.8c.4.7.7 1.3 1 1.7 1.3 1.5 2.1 8 4.2 9.9z"/><path fill="#362F1F" d="M87.1 50.8h4.6c.4 0 .9-.1 1.5-.1 3.2-.5 8.4-2.3 10.9-3.7 3-1.6 11.3-2.7 11.3-2.7 6.2 4.6 12.5 4 12.5 4V37.6s-6.8-1.4-10.9 3.6c-4.2 5-12.9 3-16.4 3.8s-25 6.2-25 6.2S81.3 39 92.8 34.7s22.7-.5 27.9-7.3c0 0-3.4 5.7-12.8 7.3s14.2-2.1 20 0V8.4c-5.2 0-6.4 2.6-8.7 1.6-2.2-1-3.4-2.2-6.1-2.9s-5.7 2.6-10.7 3.4c-2 .3-5 2-7.9 3.9-2.4-.2-5.9-.3-8.3.3-3.8 1-7.7 11-7.7 11s-.3 1-2.4 3.4-3.4 8.1-4.6 12.2c-1.3 4.1 2.1 11.9 2.1 11.9l13.5-2.4zm.6-33c.6-.3 2.3-.9 4.1-1.5-3.1 2.2-5.5 4.2-5.5 4.2s-3 2.7-2.9 1.1 2.7-3 4.3-3.8z"/><path fill="#1C1704" d="M108 34.7c9.4-1.6 12.8-7.3 12.8-7.3-5.3 6.9-16.4 3-27.9 7.3S75.7 51.2 75.7 51.2s21.6-5.4 25-6.2 12.2 1.3 16.4-3.8c4.2-5 10.9-3.6 10.9-3.6v-2.9c-5.8-2.1-29.5 1.6-20 0zM98.2 77c3.8-.4 9.6 3.8 12.2 2.8 0 0 5.3 2.5 10.5 2.8 0 0-2.4-9-8.6-9.5-6.2-.5-12.2.2-13.2 0s-2.6.1-6.9 2.9c-4.3 2.8-6.8 7.4-7.1 10.7.1 0 9.3-9.4 13.1-9.7z"/></svg>