<svg xmlns="http://www.w3.org/2000/svg" width="256" height="256"><circle fill="#B1B3B5" cx="128" cy="128" r="128"/><path fill="#5F2A38" d="M227.8 199.9l-1.8-1.7c-.9-.7-1.9-1.4-3-1.9l4.6 3.6h.2z"/><path fill="#5F2A38" d="M219.9 195l-3 4.2-2.2-.8 3 21c3.6-3.6 7.1-7.4 10.3-11.4l-4.9-11.7c-1.1-.6-2.2-1-3.2-1.3z"/><path fill="#262832" d="M136.1 243.4H128V256c2.6 0 5.2-.1 7.8-.2l-1.1-12 1.4-.4z"/><path fill="#282625" d="M168.7 169.9l7.8-6.4-3.4-9.9-4.1 1.3c-.2 5-.3 10.2-.3 15z"/><path fill="#5E3C30" d="M155.3 161.6c-.1.5-.3 1.1-.4 1.5-2 5.8-26.9 15.5-26.9 15.5V205l6.1-8.7 19.2-4.6-1.9-7.6 17.3-14.2c0-4.8.1-10 .3-15 .3-8 .8-15.4 1.1-19-.9 2.6-1.9 5.4-3.1 8.6-2.7 7.4-7 12.9-11.7 17.1zm22.9-66.5c-.1 1.3-.2 2.5-.3 3.7.1-1.2.4-3.5.7-6.5-.1 0-.1.1-.2.1 0 .8-.1 1.7-.2 2.7zm-4.2 28.1c2.2.4 4-.2 5.1-1.1 1.9-1.5 9.9-12.5 11.4-19.4 1.5-6.8.8-12.2-2.7-13.7-1.5-.7-4.3.5-7 1.9-1.4 5.2-2.7 8.1-3 8.6-.7 9.3-1.4 15.1-3.8 23.7z"/><path fill="#764931" d="M149.1 69l3.6-1.4s17.1-2.4 22.9 3.4h4.7c.5-9.5.3-18.6-1.4-22.1-4.2-8.4-20.2-19.4-25.1-20.2-4.9-.8-11-.8-12.2-1.9-1.1-1.1-3.4-3.8-4.9-3.8-1.5 0-2.3 0-3.4.8s-5.3.8-5.3.8V73l21.1-4zM128 171.5s19.8-7.2 21.3-10.8c1.5-3.5 1.5-14 1.5-17.1s-10.6-12.7-13.2-13.2c-2.5-.5-9.6-1.7-9.6-1.7v42.8z"/><path fill="#764931" d="M177.8 99.6s0-.3.1-.9c.1-1.2.2-2.4.3-3.7.1-.9.2-1.8.3-2.8 0-.5.1-1 .2-1.4l-2.3 1c-1.8 3.2-9.4 16-21.2 17.2l-13.4 1.4-.1-.1c-1 .1-1.2.1-1.2.1l-8.6-10.8H128v25.9s9.6-2.2 14.7 1.8 11.7 10.1 12.2 14.7c.5 4.2 1.8 13.5.4 19.5 4.7-4.2 9-9.7 11.7-17.1 1.1-3.2 2.2-6 3.1-8.6 1.7-5 3-9.1 4-12.7 2.3-8.5 3-14.3 3.7-23.5z"/><path fill="#282625" d="M178.6 92.2c-.3 3-.6 5.3-.7 6.5-.1.6-.1.9-.1.9v-.1c.2-.5 1.5-3.4 3-8.6.1-.4.2-.7.3-1.1l-2.3 1c-.1.5-.1.9-.2 1.4zM128 24.7s4.2 0 5.3-.8c1.1-.8 1.9-.8 3.4-.8s3.8 2.7 4.9 3.8c1.1 1.1 7.2 1.1 12.2 1.9 4.9.8 20.9 11.8 25.1 20.2 1.7 3.4 1.8 12.5 1.4 22.1h4c.4-4.5.7-9.6.7-15.2-1.9-42.6-57-47.5-57-47.5v16.3zm26.9 138.4c.2-.5.3-1 .4-1.5 1.4-6 0-15.3-.4-19.5-.5-4.6-7.1-10.6-12.2-14.7s-14.7-1.8-14.7-1.8v3.2s7.1 1.2 9.6 1.7 13.2 10.1 13.2 13.2 0 13.5-1.5 17.1c-1.5 3.5-21.3 10.8-21.3 10.8v7.1c0-.1 24.8-9.7 26.9-15.6z"/><path fill="#30323C" d="M180.3 71.1h-4.7l1 20s-.1.3-.4.7l2.3-1 .2-.1 2.3-1 4.2-1.7c1.8-7.1 0-17 0-17h-4.9z"/><path fill="#3E404B" d="M152.7 67.7l-3.6 1.4c2.3-.7 3.7-1.3 3.7-1.3v6.1L131.3 82v9.1l-3.3 1.8v4.6h5.3l8.6 9.3s22.7 4.7 34.7-15.8l-1-20c-5.8-5.7-22.9-3.3-22.9-3.3zm17.1 15.6v11.8s-8.4 7.7-18.3 7.7-16.7-9.9-16.7-9.9v-9.1s19.5-15.4 34.8-3.6l.2.2v2.9zm-28.1 27.1l13.4-1.4c-8.2.9-11.9 1.2-13.4 1.4z"/><path fill="#989899" d="M131.3 82l21.5-8.1v-6.1s-1.4.5-3.7 1.3v3.6l-19 6.5v10.4H128V93l3.3-1.8V82z"/><path fill="#361A18" d="M169.8 80.4l-.2-.2c.1.1.2.1.2.2zm-35 3.4v9.1s6.8 9.9 16.7 9.9 18.3-7.7 18.3-7.7V83.3s-15.4-11.7-35 .5z"/><path fill="#888052" d="M128 89.5h2.1V79.1l19-6.5V69L128 73.1v3.8z"/><path fill="#292B35" d="M140.4 110.4s.2 0 1.2-.1c1.6-.1 5.3-.4 13.5-1.3 11.7-1.2 19.4-14 21.2-17.2.3-.5.4-.7.4-.7-12 20.5-34.7 15.8-34.7 15.8l-8.6-9.3H128v2.1h3.8l8.6 10.7z"/><path fill="#26110F" d="M134.8 83.8c19.6-12.2 35-.5 35-.5v-2.9l-.2-.2c-15.3-11.8-34.8 3.6-34.8 3.6z"/><path fill="#474955" d="M178.3 169.2l1.9.6c-1.2-.5-1.9-.6-1.9-.6z"/><path fill="#474955" d="M168.7 169.9L151.4 184l1.9 7.6-19.2 4.6-6.1 8.8v23.2h16.7l2.4 2.3L158 227l8.4-48.4 12.1 2.6c-.7-5.3-6.4-7.4-6.4-7.4v-4.6l7.6 1.3c-.4-.5-.9-.9-1.3-1.3l-1.6-4.8 1.6-3.3 2.6 1-5.1-8.4h-2.7l3.4 9.9-7.9 6.3z"/><path fill="#3D4259" d="M178.5 183.3c.1-.8.1-1.4 0-2.1l-12.1-2.6L158 227l18-5.7c.7-13 2-33.4 2.5-38z"/><path fill="#888DB2" d="M172.1 169.2v4.6s5.7 2.1 6.4 7.4c.1.7.1 1.3 0 2.1-.5 4.6-1.8 25-2.6 38l4.5-1.4c.7-11 1.8-27.6 2.4-33.9.8-8.5-.6-12.5-3.3-15.4l-7.4-1.4z"/><path fill="#494253" d="M191.9 190.5c-2.8-14.4-8.3-19.1-11.4-20.6l-.3-.1-1.9-.6c.5.4.9.8 1.3 1.3 2.7 2.9 4.1 6.9 3.3 15.4-.6 6.3-1.7 22.9-2.4 33.9l26-8.2s7.2.5 8.4 3.9c.2.7.8 2.5 1.5 5 .4-.4.9-.8 1.3-1.3l-3-21-22.8-7.7zm17.1 15.9l-21.7 7.2V191l21.7 7.4v8z"/><path fill="#3E404B" d="M180.5 166c10 2.7 14.4 19.6 14.4 19.6l26.3 7.4-8.7-19.1-31.6-11.8-2.6-1 2.2 4.9z"/><path fill="#282625" d="M194.9 185.7s-4.4-17-14.4-19.6l-2.2-4.9-1.6 3.3 1.6 4.8s.8.1 1.9.6c.1 0 .2.1.3.1 3.1 1.5 8.6 6.2 11.4 20.6l22.8 7.9 2.2.8 3-4.2 1.4-1.9-26.4-7.5z"/><path fill="#989899" d="M187.4 191v22.6l21.6-7.2v-8z"/><path fill="#33353F" d="M137.4 243.4h-1.3l-1.4.4 1.1 12c2.6-.2 5.1-.4 7.6-.7l-.4-6.4-5.6-5.3z"/><path fill="#3E404B" d="M206.5 211.7l-26 8.2-4.5 1.4-18 5.7-10.8 3.4 20.3 19.4c18.5-6 35.2-16.1 49-29.2-.7-2.5-1.3-4.3-1.5-5-1.3-3.4-8.5-3.9-8.5-3.9zm-61.4 31.7h-7.7l5.6 5.3.4 6.4c4.2-.5 8.4-1.2 12.5-2.1l-10.8-9.6z"/><path fill="#30323C" d="M147.1 230.5l-2.4-2.3H128v2.4h13.3v9.4H128v3.4h17.1l10.8 9.6c3.9-.9 7.7-1.9 11.5-3.1l-20.3-19.4z"/><path fill="#989899" d="M128 239.9h13.3v-9.4H128v6.8z"/><path fill="#30323C" d="M223 196.3l4.9 11.7c.7-.8 1.3-1.7 2-2.5l-2.3-5.6-4.6-3.6z"/><path fill="#3E404B" d="M227.6 199.9l2.3 5.6c1-1.4 2-2.7 3-4.1-1.7-.6-3.4-1-5.2-1.4 0-.1 0-.1-.1-.1z"/><path fill="#4A1C29" d="M39.2 199.1l-3-4.2c-1.1.4-2.1.8-3.2 1.3L28.1 208c3.2 4 6.6 7.8 10.3 11.4l3-21-2.2.7z"/><path fill="#4A1C29" d="M33 196.3c-1 .5-2.1 1.2-3 1.9l-1.8 1.7h.1l4.7-3.6z"/><path fill="#21232C" d="M119.9 243.4l1.4.4-1.1 12c2.6.2 5.2.2 7.8.2v-12.6h-8.1z"/><path fill="#1C1A19" d="M87.3 169.9c0-4.8-.1-10-.3-15l-4.1-1.3-3.4 9.9 7.8 6.4z"/><path fill="#4C2F24" d="M87.3 169.9l17.3 14.2-1.9 7.6 19.2 4.6 6.1 8.7v-26.4s-24.8-9.6-26.9-15.5c-.2-.5-.3-1-.4-1.5-4.7-4.2-9-9.7-11.7-17.1-1.1-3.2-2.2-6-3.1-8.6.3 3.6.7 11 1.1 19 .2 5 .3 10.2.3 15zm-9.2-71.2c-.1-1.2-.2-2.4-.3-3.7-.1-.9-.2-1.8-.3-2.8-.1 0-.1-.1-.2-.1.4 3.1.7 5.4.8 6.6zm-2.9-7.8c-2.7-1.5-5.6-2.6-7-1.9-3.4 1.5-4.2 6.8-2.7 13.7 1.5 6.8 9.5 17.9 11.4 19.4 1.1.9 2.9 1.5 5.1 1.1-2.4-8.6-3-14.4-3.8-23.6-.3-.6-1.6-3.5-3-8.7z"/><path fill="#5E3C30" d="M105.2 143.6c0 3 0 13.5 1.5 17.1 1.5 3.5 21.3 10.8 21.3 10.8v-42.7s-7.1 1.2-9.6 1.7c-2.6.4-13.2 10.1-13.2 13.1zm-1.9-75.9l3.6 1.4 21.1 4.1V24.7s-4.2 0-5.3-.8c-1.1-.8-1.9-.8-3.4-.8s-3.8 2.7-4.9 3.8c-1.1 1.1-7.2 1.1-12.2 1.9-5 .9-21 11.9-25.2 20.3-1.7 3.4-1.8 12.5-1.4 22.1h4.7c5.9-5.9 23-3.5 23-3.5z"/><path fill="#5E3C30" d="M100.7 161.6c-1.4-6 0-15.3.4-19.5.5-4.6 7.1-10.6 12.2-14.7s14.7-1.8 14.7-1.8v-26h-3.8l-8.6 10.8s-.2 0-1.2-.1l-.1.1-13.4-1.4c-11.7-1.2-19.4-14-21.2-17.2l-2.3-1c.1.5.1 1 .2 1.4.1.9.2 1.8.3 2.8.1 1.3.2 2.5.3 3.7.1.6.1.9.1.9v-.1c.8 9.2 1.4 15 3.8 23.6 1 3.6 2.3 7.7 4 12.7.9 2.6 1.9 5.4 3.1 8.6 2.5 7.5 6.8 13 11.5 17.2z"/><path fill="#1F1E1D" d="M75.7 71.1c-.5-9.5-.3-18.6 1.4-22.1 4.2-8.4 20.2-19.4 25.1-20.2 4.9-.8 11-.8 12.2-1.9 1.1-1.1 3.4-3.8 4.9-3.8 1.5 0 2.3 0 3.4.8s5.3.8 5.3.8V8.3s-55.1 4.9-57 47.5c0 5.6.3 10.7.7 15.2h4zm2.5 28.5s0-.3-.1-.9c-.1-1.2-.4-3.5-.7-6.5 0-.5-.1-.9-.1-1.4l-2.3-1c.1.4.2.8.3 1.1 1.3 5.2 2.6 8.1 2.9 8.7zm49.8 71.9s-19.8-7.2-21.3-10.8c-1.5-3.5-1.5-14-1.5-17.1s10.6-12.7 13.2-13.2c2.5-.5 9.6-1.7 9.6-1.7v-3.2s-9.6-2.2-14.7 1.8-11.7 10.1-12.2 14.7c-.5 4.2-1.8 13.5-.4 19.5.1.5.3 1.1.4 1.5 2 5.8 26.9 15.5 26.9 15.5v-7z"/><path fill="#292B35" d="M77.4 90.9l2.3 1c-.3-.5-.4-.7-.4-.7l1-20h-9.7s-1.8 9.9 0 17l4.2 1.7 2.3 1h.3z"/><path fill="#30323C" d="M114.3 110.4c-1.5-.2-5.2-.5-13.4-1.4l13.4 1.4z"/><path fill="#30323C" d="M114.1 106.9l8.6-9.3h5.3V93l-3.3-1.8V82l-21.5-8.1v-6.1s1.4.5 3.7 1.3l-3.6-1.4s-17.1-2.4-22.9 3.4l-1 20c11.9 20.5 34.7 15.8 34.7 15.8zM86.2 83.3v-2.9l.2-.2c15.3-11.8 34.8 3.6 34.8 3.6v9.1s-6.8 9.9-16.7 9.9-18.3-7.7-18.3-7.7V83.3z"/><path fill="#7D7E7F" d="M125.9 89.5V79.1l-19-6.5V69c-2.3-.7-3.7-1.3-3.7-1.3v6.1l21.5 8.1V91l3.3 1.8v-3.4h-2.1z"/><path fill="#26110F" d="M86.2 80.4l.2-.2-.2.2zm35 12.5v-9.1c-19.6-12.2-35-.5-35-.5v11.8s8.4 7.7 18.3 7.7 16.7-9.9 16.7-9.9z"/><path fill="#777146" d="M125.9 79.1v10.4h2.1V73.1L106.9 69v3.6z"/><path fill="#1B1C25" d="M122.7 97.5l-8.6 9.3S91.4 111.5 79.4 91c0 0 .1.3.4.7 1.8 3.2 9.4 16 21.2 17.2 8.3.8 11.9 1.2 13.5 1.3 1 .1 1.2.1 1.2.1l8.6-10.8h3.8v-2.1h-5.4z"/><path fill="#1F0806" d="M121.2 83.8s-19.5-15.4-34.8-3.6l-.2.2v2.9s15.4-11.7 35 .5z"/><path fill="#3E404B" d="M75.8 169.8l1.9-.6s-.7.1-1.9.6z"/><path fill="#3E404B" d="M79.3 164.4l-1.6 4.8c-.5.4-.9.8-1.3 1.3l7.6-1.3v4.6s-5.7 2.1-6.4 7.4l12.1-2.6L98 227l10.8 3.4 2.4-2.3H128V205l-6.1-8.7-19.2-4.6 1.9-7.6-17.3-14.2-7.8-6.4 3.4-9.9h-2.7l-5.1 8.4 2.6-1 1.6 3.4z"/><path fill="#2D3146" d="M89.6 178.6l-12.1 2.6c-.1.7-.1 1.3 0 2.1.5 4.6 1.8 25 2.6 38l18 5.7-8.5-48.4z"/><path fill="#494253" d="M77.5 183.3c-.1-.8-.1-1.4 0-2.1.7-5.3 6.4-7.4 6.4-7.4v-4.6l-7.6 1.3c-2.7 2.9-4.1 6.9-3.3 15.4.6 6.3 1.7 22.9 2.4 33.9l4.5 1.4c-.6-12.9-1.9-33.3-2.4-37.9z"/><path fill="#3A3443" d="M49.5 211.7l26 8.2c-.7-11-1.8-27.6-2.4-33.9-.8-8.5.6-12.5 3.3-15.4.4-.5.9-.9 1.3-1.3l-1.9.6-.3.1c-3.1 1.5-8.6 6.2-11.4 20.6l-22.8 7.9-3 21 1.3 1.3c.7-2.5 1.3-4.3 1.5-5 1.2-3.6 8.4-4.1 8.4-4.1zM47 198.4l21.7-7.4v22.6L47 206.4v-8z"/><path fill="#33353F" d="M61.1 185.7s4.4-17 14.4-19.6l2.2-4.9-2.6 1L43.5 174l-8.7 19 26.3-7.3z"/><path fill="#282625" d="M41.3 198.4l22.8-7.9c2.8-14.4 8.3-19.1 11.4-20.6.1 0 .2-.1.3-.1 1.2-.5 1.9-.6 1.9-.6l1.6-4.8-1.6-3.3-2.2 4.9c-10 2.7-14.4 19.6-14.4 19.6L34.8 193l1.4 1.9 3 4.2 2.1-.7z"/><path fill="#7D7E7F" d="M68.6 213.6V191L47 198.4v8z"/><path fill="#2A2C36" d="M119.9 243.4h-1.3l-5.6 5.3-.4 6.4c2.5.3 5 .5 7.6.7l1.1-12-1.4-.4z"/><path fill="#33353F" d="M108.9 230.5L98 227l-18-5.7-4.5-1.4-26-8.2s-7.2.5-8.4 3.9c-.2.7-.8 2.5-1.5 5 13.8 13.1 30.4 23.2 49 29.2l20.3-19.3zm9.7 12.9h-7.7l-10.8 9.6c4.1.9 8.3 1.6 12.5 2.1l.4-6.4 5.6-5.3z"/><path fill="#21232C" d="M110.9 243.4H128V240h-13.3v-9.4H128v-2.4h-16.7l-2.4 2.3-20.3 19.4c3.8 1.2 7.6 2.3 11.5 3.1l10.8-9.6z"/><path fill="#7D7E7F" d="M114.7 230.5v9.4H128v-9.4z"/><path fill="#21232C" d="M33 196.3l-4.6 3.6-2.3 5.6c.6.9 1.3 1.7 2 2.5l4.9-11.7z"/><path fill="#33353F" d="M28.2 199.9c-1.8.4-3.5.8-5.2 1.4 1 1.4 2 2.8 3 4.1l2.3-5.6c0 .1 0 .1-.1.1z"/></svg>