<svg xmlns="http://www.w3.org/2000/svg" width="256" height="256"><circle fill="#B1B3B5" cx="128" cy="128" r="128"/><path fill="#1E2022" d="M234.8 190.9l-14.3-12.8s21.4 7 11.8 0c-6.2-4.6-14.4-15.5-19.3-22.6-5.1 5.5-12.6 13.6-14.7 15.9-3.2 3.5-17.6 21.4-17.6 21.4l.6-5.4-6.7 5.4.6-2.9-8.9 6.4 3.5-5.7s-11.5 4.8-17.6 8.9l1.3-5.4-11.8 9.6-.3-5.1-8.3 3.5 1.6-5.7-4.5 1.6-2.4-9.3V256c42.2 0 79.6-20.4 102.9-51.9l-.5-.4.7.2c1.3-1.8 2.6-3.6 3.8-5.5l-8.3-7.5h8.4z"/><path fill="#0B0D0F" d="M125.6 197.9l-4.5-1.6 1.6 5.7-8.3-3.5-.3 5.1-11.8-9.6 1.3 5.4c-6.1-4.2-17.6-8.9-17.6-8.9l3.5 5.7-8.9-6.4.6 2.9-6.7-5.4.6 5.4s-14.4-17.9-17.6-21.4c-2.1-2.3-9.6-10.4-14.7-15.9-4.9 7.1-13 18-19.3 22.6-9.6 7 11.8 0 11.8 0L21 190.8h8.2l-8.3 7.5c1.2 1.9 2.5 3.7 3.8 5.5l.7-.2-.5.4c23.5 31.6 60.9 52 103.1 52v-67.3l-2.4 9.2z"/><path fill="#2A2C2E" d="M132.6 85.9l-2.3 5.1 7.1-2.6s-2.9 2.9-1.6 2.6c.8-.2 3.5-.1 5.4-.1 1.1 0 1.9.1 1.9.1l6.6 3c.9.3 1.7.8 1.7.8l-1.7-.8c-1.2-.5-2.4-.7-1.5.8 1.6 2.6 4.5 5.7 4.5 5.7h-1.6s5.7 16.9 14 19.5c8.3 2.6 16 0 16 0l-2.9 1.7h10.2s-3.7 1.9-2.5 1.9c.7 0 4.5.6 7.7 1.1 2.7.4 5 .8 5 .8l-5.1 2.6 6.7 4.8h-6.7l2.9 5.4h-4.6v7.3h-2.7s-1.5 7.3-3.1 10.5-6.1 6.1-6.1 6.1l.3-2.6-4.8 5.4-.6-3.2-6.7 3.2h-1.6l-17.1 9.1-.1.2-2.2 1.6-2.7 5.9-2.6 1.3v-1.4l-3 1.4v-1.6l-3.2 1.6-2.2-.6-3.5.6H128v5.6l2.4 9.3 4.5-1.6-1.6 5.7 8.3-3.5.3 5.1 11.8-9.6-1.3 5.4c6.1-4.2 17.6-8.9 17.6-8.9l-3.5 5.7 8.9-6.4-.6 2.9 6.7-5.4-.6 5.4s14.4-17.9 17.6-21.4c2.1-2.3 9.6-10.4 14.7-15.9 2.8-3 4.8-5.2 4.8-5.2l8.3-3.5h-3.5l2.2-5.1 8.3-1.9s-9.3 0-7-1.6 14-4.8 14-4.8l-11.5-2.9 6.7-2.6s-7.3-3.8-4.8-6.3 10.9-5.8 10.9-5.8h-6.7l12.1-4.2h-10.2l2.9-3.5-3.5-1.6 9.6-1.6-8.6-1.9 8.6-3.5h-8.6c-1 0 5.7-1.9 5.7-1.9-5.1 0-8.6-3.5-8.6-3.5h4.5c-5.7-1.9-11.2-8.3-11.2-8.3h6.1l-10.2-7.3h1.6l-5.1-5.1 5.1-2.2s-4.1-2.4-9.9-5.8l-1.9 1.3 4.8 3.8-7.3 2.2v-6.1l-6.4 1.9 2.8-3.5-7.3 1.3 2.2-3.2-6.4.6 4.2-2.9-7.2 1s-5.3-2.9-10.1-9.6c-4.8-6.7-26.8-20.8-22.7-23.6 0 0 5.2-.9 12.5-3.2-2.8-3-8-6-8-6h5.7l-12.4-5.1 6-2.2-3.4-.6-10-1.7 3.5-3.8L141 9.8s3.2-2.9 7-6.7-20 5.2-20 5.2v81.3l4.6-3.7z"/><path fill="#080A0C" d="M159.8 28.7c-4.2 2.9 17.9 16.9 22.7 23.6 4.8 6.7 10.1 9.6 10.1 9.6l7.2-1-4.2 2.9 6.4-.6-2.2 3.2 7.3-1.3-2.8 3.5 6.4-1.9v6.1l7.3-2.2-4.8-3.8 1.9-1.3 2.3-1.6h-4.2l4.2-3.8h-3.5c4-4 6.2-13 7.4-19.8-8.6-9.1-18.4-16.9-29.3-23.2-6.9 3.9-13.9 6.6-19.6 8.4-7.5 2.3-12.6 3.2-12.6 3.2z"/><path fill="#515455" d="M142 124.4c1.7 3.8 4.1 14.1 0 16.3-.1 0-.1.1-.2.1l2.5 3h-2.4l3.4 3.5H144l6.5 5.1h-1.6l1.3 3.8c1.6-.5 4.9-1.7 6.4-3.6 1.9-2.6 3.4-7.5 5.1-7.3s5.1 8 4.3 9.9c-.6 1.4-3-1.2-4.7-2.3 2 2.6 4.9 7.3 3.2 10.9l-2.2 2.6v-2.9s-2.6 3.2-2.6 3.7-.3-2.1-.8-1.6-3.8 4-3.8 4l-1-.8-2.9 2.4-2 3 17.1-9.1h1.6l6.7-3.2.6 3.2 4.8-5.4-.3 2.6s4.5-2.9 6.1-6.1 3.1-10.5 3.1-10.5h2.7v-7.3h4.6l-2.9-5.4h6.7l-6.7-4.8 5.1-2.6s-2.3-.4-5-.8c-3.3-.5-7.1-1.1-7.7-1.1-1.2 0 2.5-1.9 2.5-1.9H178l2.9-1.7s-7.7 2.6-16 0-14-19.5-14-19.5h1.6s-2.9-3.2-4.5-5.7c-.9-1.5.3-1.2 1.5-.8l-6.6-3s-.8 0-1.9-.1c-1.9-.1-4.6-.1-5.4.1-1.3.3 1.6-2.6 1.6-2.6l-7.1 2.6 2.3-5.1-4.6 3.8v33c.2-.1 12.5-2.2 14.2 1.6zm7.8-30.4l1.7.8s-.9-.5-1.7-.8z"/><path fill="#515455" d="M151.2 161.5l.6-.6c.5-.5 1.1-1.6 1.8-2.7-.7.7-1.3 1.4-1.6 1.9-.3.4-.6.9-.8 1.4z"/><path fill="#3C4040" d="M129.8 144.3c-.7 1.4-1.8 7.4-1.8 7.4v6s2.7 1.4 4.3 1c1.6-.5 2.7-2.6 4.8-1.9 1 .3 2 1 2.9 1.6.8-.2 1.7-.2 2.7.6 1.4-.9 3.7-4.1 4.4-3.1.7.9 2.3.6 2.3.6s.3-.1.8-.2l-1.3-3.8h1.6l-6.5-5.1h1.3l-3.4-3.5h2.4l-2.5-3c-4.1 1.9-11.3 2-12 3.4z"/><path fill="#1F2326" d="M131.8 126.6c6.7-1.4 9.6 3.2 9.3 8-.3 4.8-7 1.8-9.4 1s1.9-6.4 0-5.4-3.7 5.4-3.7 5.9v15.7s1-6 1.8-7.4c.7-1.4 7.9-1.4 12-3.5.1 0 .1-.1.2-.1 4.1-2.2 1.7-12.5 0-16.3s-14-1.7-14-1.7v8.3c1.7-.2 3.8-4.5 3.8-4.5z"/><path fill="#101214" d="M131.7 130.1c1.9-1-2.4 4.6 0 5.4s9.1 3.8 9.4-1c.3-4.8-2.6-9.4-9.3-8 0 0-2.1 4.3-3.8 4.5v4.9c0-.4 1.8-4.9 3.7-5.8z"/><path fill="#3D3F41" d="M129.8 183.1l3.5-.6 2.2.6 3.2-1.6v1.6l3-1.4v1.4l2.6-1.3 2.7-5.9 2.2-1.6.1-.2 2-3 2.9-2.4 1 .8s3.4-3.5 3.8-4c.5-.5.8 2.1.8 1.6s2.6-3.7 2.6-3.7v2.9l2.2-2.6c1.7-3.6-1.3-8.4-3.2-10.9-.6-.4-1.1-.6-1.4-.4-.8.6-4.2 3.5-6.3 5.8-.7 1.1-1.3 2.2-1.8 2.7l-.6.6c-1 2.2-2 5-3.2 4.8-1.6-.3-3-2.6-5.6-1.3-2.6 1.3-4.5-.2-5.9-.5-.3-.1-.7 0-1 .1-.1.3-.3.6-.4.7-.1.2-.3 0-.5-.3-.8.5-1.6 1.2-2.2 1.2-.7.1-2.2-.9-3.3-1.6-.6.9-1.1 1.6-1.1 1.6V183h1.7z"/><path fill="#101214" d="M166 155.1c.8-1.9-2.6-9.7-4.3-9.9s-3.2 4.8-5.1 7.3c-1.4 1.9-4.8 3.1-6.4 3.6-.5.2-.8.2-.8.2s-1.6.3-2.3-.6c-.7-.9-3 2.2-4.4 3.1.2.2.5.4.7.7 0 0-1.6 5.7-2.6 5.8-1 .1-2.6-6.1-2.6-6.1s.8-.8 1.9-1c-.9-.6-1.9-1.3-2.9-1.6-2.1-.6-3.2 1.4-4.8 1.9-1.6.5-4.3-1-4.3-1v1.1s2.1.5 2.7 1.7c.4.7-.7 2.8-1.6 4.3 1 .7 2.6 1.7 3.3 1.6.6-.1 1.4-.7 2.2-1.2-.7-1.2-1.7-5.1-1.7-5.1s1.4-3.1 4.4-.4c0 0-1.1 3.4-1.8 5.1.3-.1.7-.2 1-.1 1.4.3 3.4 1.8 5.9.5 2.6-1.3 4 1 5.6 1.3 1.3.3 2.2-2.6 3.2-4.8.3-.5.5-1.1.8-1.4.3-.5.9-1.2 1.6-1.9 2.2-2.2 5.5-5.2 6.3-5.8.3-.2.8 0 1.4.4 1.6 1.2 4 3.8 4.6 2.3zm-18.3 9.5c-1.5.8-3.5-5.6-3.5-5.6s1.3-4.4 5.5-1.5c0 .1-.5 6.3-2 7.1z"/><path fill="#57514A" d="M130.7 160.5c-.6-1.2-2.7-1.7-2.7-1.7v7.6s.5-.7 1.1-1.6c.9-1.6 1.9-3.6 1.6-4.3zm6.6-.9c-3-2.8-4.4.4-4.4.4s1 3.9 1.7 5.1c.2.3.4.4.5.3.1-.1.2-.4.4-.7.7-1.6 1.8-5.1 1.8-5.1zm2.7-1.3c-1.1.3-1.9 1-1.9 1s1.6 6.2 2.6 6.1c1-.1 2.6-5.8 2.6-5.8-.2-.3-.5-.5-.7-.7-.9-.7-1.9-.8-2.6-.6zm9.7-.7c-4.2-2.9-5.5 1.5-5.5 1.5s2 6.4 3.5 5.6c1.5-.9 2-7.1 2-7.1z"/><path fill="#1E2022" d="M75.1 192.8l-.6-5.4 6.7 5.4-.6-2.9 8.9 6.4-3.5-5.7s11.5 4.8 17.6 8.9l-1.3-5.4 11.8 9.6.3-5.1 8.3 3.5-1.6-5.7 4.5 1.6 2.4-9.3v-5.6h-1.8l-3.5-.6-2.2.6-3.2-1.6v1.6l-3-1.4v1.4l-2.6-1.3-2.7-5.9-2.2-1.6-.1-.2-17.2-9.1h-1.6l-6.7-3.2-.6 3.2-4.8-5.4.3 2.6s-4.5-2.9-6.1-6.1-3.1-10.5-3.1-10.5h-2.7v-7.3h-4.6l2.9-5.4h-6.7l6.7-4.8-5.1-2.6s2.3-.4 5-.8c3.3-.5 7.1-1.1 7.7-1.1 1.2 0-2.5-1.9-2.5-1.9h10.2l-2.9-1.7s7.7 2.6 16 0 14-19.5 14-19.5h-1.6s2.9-3.2 4.5-5.7c.9-1.5-.3-1.2-1.5-.8l-1.7.8s.8-.4 1.7-.8l6.6-3s.8 0 1.9-.1c1.9-.1 4.6-.1 5.4.1 1.3.3-1.6-2.6-1.6-2.6l7.1 2.6-2.3-5.1 4.6 3.8V8.4s-23.8-9.1-20-5.2 7 6.7 7 6.7L102.3 6l3.5 3.8-10 1.7-3.4.6 6 2.2L86 19.4h5.7s-5.3 3-8 6c7.4 2.4 12.5 3.2 12.5 3.2 4.2 2.9-17.9 16.9-22.7 23.6-4.8 6.7-10.1 9.6-10.1 9.6l-7.2-1 4.2 2.9-6.4-.6 2.2 3.2-7.2-1.2 2.8 3.5-6.4-1.9v6.1l-7.3-2.2 4.8-3.8-1.9-1.4c-5.8 3.4-9.9 5.8-9.9 5.8l5.1 2.2-5.1 5.1h1.6l-10.2 7.3h6.1s-5.4 6.4-11.2 8.3h4.5s-3.5 3.5-8.6 3.5c0 0 6.7 1.9 5.7 1.9h-8.6L19 103l-8.6 1.9 9.6 1.6-3.5 1.6 2.9 3.5H9l12.1 4.2h-6.7s8.3 3.3 10.9 5.8-4.8 6.3-4.8 6.3l6.7 2.6-11.5 2.9s11.8 3.2 14 4.8-7 1.6-7 1.6l8.3 1.9 2.2 5.1h-3.5l8.3 3.5s2 2.2 4.8 5.2c5.1 5.5 12.6 13.6 14.7 15.9 3.3 3.5 17.6 21.4 17.6 21.4z"/><path fill="#010304" d="M38.7 60l4.2 3.8h-4.2l2.3 1.6 1.9 1.3-4.8 3.8 7.3 2.2v-6.1l6.4 1.9-2.8-3.4 7.3 1.3-2.2-3.2 6.4.6-4.2-2.9 7.2 1s5.3-2.9 10.1-9.6c4.8-6.7 26.8-20.8 22.7-23.6 0 0-5.2-.9-12.5-3.2-5.8-1.8-12.7-4.6-19.7-8.5-10.9 6.3-20.7 14.1-29.3 23.2C36.1 47 38.3 56 42.3 60h-3.6z"/><path fill="#3C4040" d="M106.2 94c-.9.3-1.7.8-1.7.8l1.7-.8zm-3.8 64.2c.7 1.1 1.3 2.2 1.8 2.7l.6.6c-.3-.5-.5-1.1-.8-1.4-.3-.5-.9-1.2-1.6-1.9z"/><path fill="#3C4040" d="M101.8 168.7l-1 .8s-3.4-3.5-3.8-4c-.5-.5-.8 2.1-.8 1.6s-2.6-3.7-2.6-3.7v2.9l-2.2-2.6c-1.7-3.6 1.3-8.4 3.2-10.9-1.7 1.1-4.1 3.7-4.7 2.3-.8-1.9 2.6-9.7 4.3-9.9s3.2 4.8 5.1 7.3c1.4 1.9 4.8 3.1 6.4 3.6l1.3-3.8h-1.6l6.5-5.1h-1.3l3.4-3.5h-2.4l2.5-3c-.1 0-.1-.1-.2-.1-4.1-2.2-1.7-12.5 0-16.3s14-1.7 14-1.7v-33l-4.6-3.8 2.3 5.1-7.1-2.6s2.9 2.9 1.6 2.6c-.8-.2-3.5-.1-5.4-.1-1.1 0-1.9.1-1.9.1l-6.6 3c1.2-.5 2.4-.7 1.5.8-1.6 2.6-4.5 5.7-4.5 5.7h1.6s-5.7 16.9-14 19.5c-8.3 2.6-16 0-16 0l2.9 1.7H67.5s3.7 1.9 2.5 1.9c-.7 0-4.5.6-7.7 1.1-2.7.4-5 .8-5 .8l5.1 2.6-6.7 4.8h6.7l-2.9 5.4h4.6v7.3h2.7s1.5 7.3 3.1 10.5 6.1 6.1 6.1 6.1l-.3-2.6 4.8 5.4.6-3.2 6.7 3.2h1.6l17.1 9.1-2-3-2.7-2.3z"/><path fill="#333637" d="M108.9 155.8c.7-.9 3 2.2 4.4 3.1.9-.7 1.9-.8 2.7-.6.9-.6 1.9-1.3 2.9-1.6 2.1-.6 3.2 1.4 4.8 1.9 1.6.5 4.3-1 4.3-1v-6s-1-6-1.8-7.4c-.7-1.4-7.9-1.4-12-3.5l-2.5 3h2.4l-3.4 3.5h1.3l-6.5 5.1h1.6l-1.3 3.8c.5.2.8.2.8.2s1.6.4 2.3-.5z"/><path fill="#15191C" d="M126.2 144.3c.7 1.4 1.8 7.4 1.8 7.4V136c0-.5-1.8-4.9-3.7-5.9-1.9-1 2.4 4.6 0 5.4s-9.1 3.8-9.4-1c-.3-4.8 2.6-9.4 9.3-8 0 0 2.1 4.3 3.8 4.5v-8.3s-12.3-2.2-14 1.7-4.1 14.1 0 16.3c.1 0 .1.1.2.1 4.1 2 11.3 2.1 12 3.5z"/><path fill="#020305" d="M124.2 126.6c-6.7-1.4-9.6 3.2-9.3 8 .3 4.8 7 1.8 9.4 1s-1.9-6.4 0-5.4 3.7 5.4 3.7 5.9V131c-1.7-.1-3.8-4.4-3.8-4.4z"/><path fill="#2F3133" d="M128 174.6v-8.3s-.5-.7-1.1-1.6c-1 .7-2.6 1.7-3.3 1.6-.6-.1-1.4-.7-2.2-1.2-.2.3-.4.4-.5.3-.1-.1-.2-.4-.4-.7-.3-.1-.7-.2-1-.1-1.4.3-3.4 1.8-5.9.5-2.6-1.3-4 1-5.6 1.3-1.3.3-2.2-2.6-3.2-4.8l-.6-.6c-.5-.5-1.1-1.6-1.8-2.7-2.2-2.2-5.5-5.2-6.3-5.8-.3-.2-.8 0-1.4.4-2 2.6-4.9 7.3-3.2 10.9l2.2 2.6v-2.9s2.6 3.2 2.6 3.7.3-2.1.8-1.6 3.8 4 3.8 4l1-.8 2.9 2.4 2 3 .1.2 2.2 1.6 2.7 5.9 2.6 1.3v-1.4l3 1.4v-1.6l3.2 1.6 2.2-.6 3.5.6h1.8v-8.6z"/><path fill="#020305" d="M125.3 160.5c.6-1.2 2.7-1.7 2.7-1.7v-1.1s-2.7 1.4-4.3 1c-1.6-.5-2.7-2.6-4.8-1.9-1 .3-2 1-2.9 1.6 1.1.3 1.9 1 1.9 1s-1.6 6.2-2.6 6.1c-1-.1-2.6-5.8-2.6-5.8.2-.3.5-.5.7-.7-1.4-.9-3.7-4.1-4.4-3.1-.7.9-2.3.6-2.3.6s-.3-.1-.8-.2c-1.6-.5-4.9-1.7-6.4-3.6-1.9-2.6-3.4-7.5-5.1-7.3s-5.1 8-4.3 9.9c.6 1.4 3-1.2 4.7-2.3.6-.4 1.1-.6 1.4-.4.8.6 4.2 3.5 6.3 5.8.7.7 1.3 1.4 1.6 1.9.3.4.5.9.8 1.4 1 2.2 2 5 3.2 4.8 1.6-.3 3-2.6 5.6-1.3 2.6 1.3 4.5-.2 5.9-.5.3-.1.7 0 1 .1-.7-1.6-1.8-5.1-1.8-5.1 3-2.8 4.4.4 4.4.4s-1 3.9-1.7 5.1c.8.5 1.6 1.2 2.2 1.2.7.1 2.2-.9 3.3-1.6-1-1.6-2-3.6-1.7-4.3zm-17 4.1c-1.5-.8-2-7.1-2-7.1 4.2-2.9 5.5 1.5 5.5 1.5s-2 6.5-3.5 5.6z"/><path fill="#45403B" d="M128 162.2v-3.4s-2.1.5-2.7 1.7c-.4.7.7 2.8 1.6 4.3.6.9 1.1 1.6 1.1 1.6v-4.2zm-4.8-2.2s-1.4-3.1-4.4-.4c0 0 1.1 3.4 1.8 5.1.1.3.3.6.4.7.1.2.3 0 .5-.3.7-1.2 1.7-5.1 1.7-5.1zm-9.8-1.1c-.2.2-.5.4-.7.7 0 0 1.6 5.7 2.6 5.8 1 .1 2.6-6.1 2.6-6.1s-.8-.8-1.9-1c-.7-.2-1.7-.1-2.6.6zm-1.6.2s-1.3-4.4-5.5-1.5c0 0 .6 6.2 2 7.1 1.5.8 3.5-5.6 3.5-5.6z"/></svg>