<svg xmlns="http://www.w3.org/2000/svg" width="256" height="256"><circle fill="#B1B3B5" cx="128" cy="128" r="128"/><path fill="#543C30" d="M178.4 125.1c0 1.8.6 10.2.6 11.7s-4.6 7-6.9 8.2c-2.2 1.2-13.8 3.5-13.8 3.5-2.2 2-4.5 4.1-7 6.1.1 5.7.7 11.7 1.5 17.8v-.1c3.4 0 5.6 2.7 5.6 2.7l9.2 4.3s5.4-5.2 12.6-1.2c2.6 1.5 4.9 2.3 7 2.9-5.3-22.2-4.5-46.5-3.4-60.7-3 2-5.4 3.7-5.4 4.8z"/><path fill="#79584A" d="M174.5 82.6c-.2-1.2-1.9-2.5-3.7-4.5.3 3.3.3 7 0 10.8 0 .4-.1.7-.1 1.1 2-3.1 4-6 3.8-7.4zm3 9.2c.6 0 1.3.1 1.8.4.1 0 .2.1.3.2.1-.7.3-1.5.5-2.2-.8.6-1.7 1.2-2.6 1.6z"/><path fill="#79584A" d="M184.8 48.1c-1.5 2.3 7 20.5 9.1 25.6 2 5.1-3.5 17.2-5.9 20.4s2.3 10.8 1.4 15.4-10.7 13-10.7 13 11.7-17.6 5.3-21.8c-1.2-.8-2.2-1.7-2.9-2.7-.5 1.7-1.2 3.6-1.7 5.6-1.2 4.9-1.9 9.4-6.1 16.6-3.3 5.7-4.4 6.6-6.3 6.9-1.6 9.7-3.9 17.2-7.4 20.3-.4.4-.9.8-1.3 1.2 0 0 11.6-2.3 13.8-3.5 2.2-1.2 6.9-6.7 6.9-8.2s-.6-10-.6-11.7c0-1.1 2.5-2.8 5.4-4.8 1.9-1.3 4-2.8 5.7-4.3 4.4-3.8 2.3-5 4.7-9.1 2.3-4.1 7.6-7.3 11.1-8.5 3.5-1.2 10.2-12 8.8-17.3-1.5-5.3 2.6-10.8 2-19-.6-8.2-6.4-16.7-7-19.9-.6-3.2-10.2-9.1-10.5-14.7-.3-5.6-12.3-4.2-16.2-7.2-3.9-3.1-9.8.9-14.8 2.6-5 1.8-7.6-9.1-11.7-10.2s-11.7-.3-16.4-3.8-11.5 2.8-11.5 2.8v16.4c41.6-18.8 58.3 17.5 56.8 19.9zm-13.7 89.1c-1.9 0-3.4-1.9-3.4-4.3s1.5-4.3 3.4-4.3 3.4 1.9 3.4 4.3-1.5 4.3-3.4 4.3z"/><path fill="#79584A" d="M162.9 51.7c1.3 2.1 3.5 6.2 5.3 12.1 2.5-6.8-1.5-10.3-5.3-12.1z"/><path fill="#CCAD9F" d="M152.8 172.3c-.8-6.1-1.3-12.1-1.5-17.8-5.8 4.5-13 8.2-23.3 8.2v-20.6 46c21.5.1 24.6-14.7 24.8-15.8zm26.8-79.9c-.1-.1-.2-.1-.3-.2-.6-.3-1.2-.4-1.8-.4-5.8 3.1-6.5 17.6-6.5 17.6s-.6-1.2-1.5-3.5c-.7 7.5-1.5 14.7-2.5 21 1.8-.3 3-1.2 6.3-6.9 4.2-7.3 4.9-11.7 6.1-16.6.5-2 1.2-3.9 1.7-5.6-1.3-1.6-1.7-3.5-1.5-5.4z"/><path fill="#DEBCAD" d="M130.5 133.3c1.8-.8 4.1-.1 5.4 1.3 2.5 2.2 2.7 2.8 5.3 3.7 0 0-2.3 3.9-13.2 3.9v20.6c10.3 0 17.5-3.8 23.3-8.2 2.6-2 4.8-4.1 7-6.1.4-.4.9-.8 1.3-1.2 3.4-3.1 5.7-10.7 7.4-20.3 1.1-6.3 1.9-13.5 2.5-21-.6-1.4-1.2-3.2-1.9-5.4-1-3 1.1-7 3.2-10.5 0-.4.1-.7.1-1.1.3-3.9.2-7.5 0-10.8-2.6-3-5.3-7.3-2.7-14.4-1.8-5.8-4-9.9-5.3-12.1-.6-.3-1.2-.5-1.7-.7-2.6.3-5.3.9-7.6 2-7.3 3.5-25.5-2.6-25.5-2.6v83.7c-.1 0 1.2.2 2.4-.8zm20.8-59.6c6.4-.9 12.7 5.7 13.2 7.7.4 2-2.2-.9-2.2-.9-5.9-4.8-17.4-1.1-21.5 1.3-4.2 2.4-6.1-1.3-6.1-1.3 1-3.5 10.2-5.9 16.6-6.8z"/><path fill="#9D4D5E" d="M141.2 138.3c-2.6-.9-2.8-1.5-5.3-3.7-1.3-1.4-3.6-2.1-5.4-1.3-1.2 1-2.5.8-2.5.8v8.1c10.9 0 13.2-3.9 13.2-3.9z"/><ellipse fill="#8F878A" cx="171.1" cy="133" rx="3.4" ry="4.3"/><path fill="#79584A" d="M134.6 80.5s2 3.7 6.1 1.3c4.2-2.4 15.6-6.1 21.5-1.3 0 0 2.6 2.9 2.2.9-.4-2-6.8-8.6-13.2-7.7-6.3.9-15.5 3.3-16.6 6.8z"/><path fill="#543C30" d="M177.5 91.8c.9-.5 1.7-1 2.6-1.7.7-1.9 2-3.8 3.8-5.5 5.3-5-5.3-30.2-9.1-31.9-2.6-1.2-8.1-2.2-13.7-1.7.6.2 1.1.4 1.7.7 3.8 1.8 7.8 5.3 5.3 12.1-2.6 7.1.1 11.4 2.7 14.4 1.8 2 3.5 3.3 3.7 4.5.2 1.4-1.8 4.2-3.7 7.4-2.1 3.5-4.2 7.5-3.2 10.5.7 2.2 1.4 4 1.9 5.4.9 2.3 1.5 3.5 1.5 3.5s.7-14.6 6.5-17.7z"/><path fill="#886253" d="M153.5 53c2.4-1.1 5-1.7 7.6-2 5.6-.5 11.1.5 13.7 1.7 3.8 1.8 14.3 26.9 9.1 31.9-1.8 1.7-3.1 3.6-3.8 5.5-.3.7-.5 1.5-.5 2.2-.2 1.9.2 3.8 1.4 5.5.7 1 1.7 1.9 2.9 2.7 6.4 4.3-5.3 21.8-5.3 21.8s9.7-8.4 10.7-13-3.6-12-1.3-15.3 7.9-15.3 5.9-20.4c-2-5.1-10.5-23.2-9.1-25.6 1.5-2.3-15.2-38.7-56.8-19.9v22.2c0 .1 18.2 6.3 25.5 2.7z"/><path fill="#998E8B" d="M167.6 179.3l-9.2-4.3c-7.6 22.9-30.4 18.4-30.4 18.4v62.7c11.1 0 21.8-1.4 32.1-4.1 4.7-28.5 9-60.1 7.5-72.7z"/><path fill="#807976" d="M152.8 172.3c-.2 1.2-3.3 16-24.8 16v5.1s22.8 4.5 30.4-18.4c0-.1-2.2-2.7-5.6-2.7z"/><path fill="#5E5C59" d="M200.4 196.7L189.9 240c11.3-6.3 21.6-14.2 30.4-23.4-4.1-9.8-13.6-16.4-19.9-19.9z"/><path fill="#6D666A" d="M201.9 190.7s-.6-6.4-5.3-7.7c-3-.8-5.9-1-9.4-2-2.1-.6-4.3-1.5-7-2.9-7.2-4-12.6 1.2-12.6 1.2 1.5 12.6-2.9 44.3-7.5 72.7 10.5-2.7 20.6-6.8 29.9-11.9l10.5-43.4 1.4-6z"/><path fill="#4D372C" d="M88.4 179.3l9.2-4.3s2.2-2.6 5.6-2.7v.1c.8-6.1 1.3-12.1 1.5-17.8-2.6-2-4.8-4.1-7-6.1 0 0-11.6-2.3-13.8-3.5-2.2-1.2-6.9-6.7-6.9-8.2s.6-10 .6-11.7c0-1.1-2.5-2.8-5.4-4.8 1.2 14.2 1.9 38.5-3.4 60.7 2.1-.6 4.3-1.5 7-2.9 7.2-4 12.6 1.2 12.6 1.2z"/><path fill="#684C3F" d="M78.5 91.8c-.9-.5-1.7-1-2.6-1.7.3.7.5 1.5.5 2.2.1-.1.2-.1.3-.2.5-.2 1.1-.3 1.8-.3zm9.4-28c1.8-5.8 4-9.9 5.3-12.1-3.9 1.8-7.9 5.3-5.3 12.1zm-2.7 26.3c0-.4-.1-.7-.1-1.1-.3-3.9-.2-7.5 0-10.8-1.8 2-3.5 3.3-3.7 4.5-.1 1.3 1.9 4.2 3.8 7.4z"/><path fill="#684C3F" d="M77.6 125.1c0 1.8-.6 10.2-.6 11.7s4.6 7 6.9 8.2c2.2 1.2 13.8 3.5 13.8 3.5-.4-.4-.9-.8-1.3-1.2-3.4-3.1-5.7-10.7-7.4-20.3-1.8-.3-3-1.2-6.3-6.9-4.2-7.3-4.9-11.7-6.1-16.6-.5-2-1.2-3.9-1.7-5.6-.7 1-1.7 1.9-2.9 2.7-6.4 4.3 5.3 21.8 5.3 21.8s-9.7-8.4-10.7-13S70.3 97.3 68 94c-2.3-3.2-7.9-15.3-5.9-20.4 2-5.1 10.5-23.2 9.1-25.6-1.5-2.3 15.2-38.6 56.8-19.9V11.8s-6.7-6.4-11.4-2.9c-4.7 3.5-12.3 2.6-16.4 3.8-4.1 1.2-6.7 12-11.7 10.2s-10.9-5.7-14.8-2.6-15.9 1.6-16.2 7.2c-.3 5.6-10 11.5-10.5 14.7-.6 3.2-6.4 11.7-7 19.9-.6 8.2 3.5 13.8 2 19s5.3 16.1 8.8 17.3c3.5 1.2 8.8 4.4 11.1 8.5 2.3 4.1.3 5.3 4.7 9.1 1.7 1.5 3.8 2.9 5.7 4.3 2.9 2 5.3 3.7 5.3 4.8zm7.3 3.6c1.9 0 3.4 1.9 3.4 4.3s-1.5 4.3-3.4 4.3-3.4-1.9-3.4-4.3 1.5-4.3 3.4-4.3z"/><path fill="#B49A8E" d="M128 162.8c-10.3 0-17.5-3.8-23.3-8.2-.1 5.7-.7 11.7-1.5 17.8.2 1.1 3.3 15.9 24.8 15.9v-46 20.5zM86.5 106c-.9 2.3-1.5 3.5-1.5 3.5s-.6-14.6-6.5-17.6c-.6 0-1.3.1-1.8.4-.1 0-.2.1-.3.2.2 1.9-.2 3.8-1.4 5.5.5 1.7 1.2 3.6 1.7 5.6 1.2 4.9 1.9 9.4 6.1 16.6 3.3 5.7 4.4 6.6 6.3 6.9-1.2-6.4-2-13.7-2.6-21.1z"/><path fill="#CCAD9F" d="M102.5 53c-2.4-1.1-5-1.7-7.6-2-.6.2-1.1.4-1.7.7-1.3 2.1-3.5 6.2-5.3 12.1 2.6 7.1-.1 11.4-2.7 14.4-.3 3.3-.3 7 0 10.8 0 .4.1.7.1 1.1 2.1 3.5 4.2 7.5 3.2 10.5-.7 2.2-1.4 4-1.9 5.4.7 7.5 1.5 14.7 2.5 21 1.6 9.7 3.9 17.2 7.4 20.3.4.4.9.8 1.3 1.2 2.2 2 4.5 4.1 7 6.1 5.8 4.5 13 8.2 23.3 8.2v-20.6c-10.9 0-13.2-3.9-13.2-3.9 2.6-.9 2.8-1.5 5.3-3.7 1.3-1.4 3.6-2.1 5.4-1.3 1.2 1 2.5.8 2.5.8V50.4c-.1 0-18.3 6.2-25.6 2.6zm12.8 28.8c-4.2-2.4-15.6-6.1-21.5-1.3 0 0-2.6 2.9-2.2.9.4-2 6.8-8.6 13.2-7.7 6.4.9 15.6 3.3 16.7 6.8-.1 0-2 3.8-6.2 1.3z"/><path fill="#884251" d="M125.5 133.3c-1.8-.8-4.1-.1-5.4 1.3-2.5 2.2-2.7 2.8-5.3 3.7 0 0 2.3 3.9 13.2 3.9v-8.1s-1.3.2-2.5-.8z"/><ellipse fill="#8F878A" cx="84.9" cy="133" rx="3.4" ry="4.3"/><path fill="#684C3F" d="M104.7 73.7c-6.4-.9-12.7 5.7-13.2 7.7-.4 2 2.2-.9 2.2-.9 5.9-4.8 17.4-1.1 21.5 1.3 4.2 2.4 6.1-1.3 6.1-1.3-1-3.5-10.2-5.9-16.6-6.8z"/><path fill="#4D372C" d="M78.5 91.8c5.8 3.1 6.5 17.6 6.5 17.6s.6-1.2 1.5-3.5c.6-1.4 1.2-3.2 1.9-5.4 1-3-1.1-7-3.2-10.5-1.9-3.2-3.9-6-3.7-7.4.2-1.2 1.9-2.5 3.7-4.5 2.6-3 5.3-7.3 2.7-14.4-2.5-6.8 1.5-10.3 5.3-12.1.6-.3 1.2-.5 1.7-.7-5.6-.5-11.1.5-13.7 1.7-3.8 1.8-14.3 26.9-9.1 31.9 1.8 1.7 3.1 3.6 3.8 5.5.8.8 1.7 1.4 2.6 1.8z"/><path fill="#79584A" d="M128 28.1c-41.6-18.7-58.3 17.6-56.8 20 1.5 2.3-7 20.5-9.1 25.6-2 5.1 3.5 17.2 5.9 20.4 2.3 3.2-2.3 10.8-1.4 15.4s10.7 13 10.7 13-11.7-17.6-5.3-21.8c1.2-.8 2.2-1.7 2.9-2.7 1.2-1.7 1.6-3.6 1.4-5.5-.1-.7-.3-1.5-.5-2.2-.7-1.9-2-3.8-3.8-5.5-5.3-5 5.3-30.2 9.1-31.9 2.6-1.2 8.1-2.2 13.7-1.7 2.6.3 5.3.9 7.6 2 7.3 3.5 25.5-2.6 25.5-2.6V28.1z"/><path fill="#8C8280" d="M128 193.3s-22.8 4.5-30.4-18.4l-9.2 4.3c19.6 24.4 30.2 52.9 36 76.7 1.2 0 2.4.1 3.6.1v-62.7z"/><path fill="#6D666A" d="M103.2 172.3c-3.4 0-5.7 2.6-5.7 2.6 7.6 22.9 30.4 18.4 30.4 18.4v-5.1c-21.4 0-24.5-14.8-24.7-15.9z"/><path fill="#4D4C49" d="M35.6 216.6c8.9 9.3 19.1 17.2 30.4 23.4l-10.5-43.4c-6.2 3.6-15.7 10.2-19.9 20z"/><path fill="#5D575B" d="M88.4 179.3s-5.4-5.2-12.6-1.2c-2.6 1.5-4.9 2.3-7 2.9-3.6 1-6.5 1.2-9.4 2-4.7 1.3-5.3 7.7-5.3 7.7l1.4 6L66.1 240c17.4 9.6 37.2 15.3 58.3 15.9-5.8-23.7-16.4-52.3-36-76.6z"/></svg>