<svg xmlns="http://www.w3.org/2000/svg" width="256" height="256"><circle fill="#B1B3B5" cx="128" cy="128" r="128"/><path fill="#58403B" d="M230.7 188.8c1.8.7 2.9 2.5 2.2 4.8-.3.9-1.2 5.3-2.4 11 3.3-4.4 6.3-9 9-13.8-1.2-.7-2.3-1.3-3.1-1.8-2.4-1.4-4.7-.6-5.7-.2z"/><path fill="#512C35" d="M167.3 122.6c-.8 2.2-3.8 6.9-7.5 12.1v1.3l10 23.5v-.1l1 .6c1.5-14.3-4-35.2-4-35.2l2.7-5.7c-.2-1.2-.4-2.4-.5-3.6-.5 2.9-1.1 5.5-1.7 7.1zm-7.3 25.5c.6-2.3.6-4.8-.2-7.3V136c0 3.2 0 7.5.2 12.1zM144.8 18.8c32.5-2.1 33.4 39.8 39.8 68 2 9 4.6 15.8 7.3 21.4-3.1-18.5-6.6-39.8-8.5-48.1-3.3-14.9-11.8-30.7-20.6-39.5s-19.1-4.9-19.1-4.9C137.9 7.2 129.4 9 129.4 9v2.4c7.6.1 15.4 7.4 15.4 7.4zm54.1 159.9l5.1 1.8c-1.4-5.6-2.5-11.6-3.5-17.3-1 2.2-2.1 4.3-3.1 6.4.9 3.1 1.4 6.2 1.5 9.1z"/><path fill="#8DAA8A" d="M159.5 242.5c3.4-1.1 6.8-2.4 9.9-3.9-.4-3.2-.9-6.4-1.3-9.6l-.5.5c-4.2 3.7-6.7 8.5-8.1 13zm.5-94.4c-.2-4.7-.2-9-.2-12.2v-1.3c-5.4 7.8-12.3 16.6-15.6 19.5-5.5 4.9-14.9 3.1-14.9 3.1v90.1s10.4-.1 22.4-2.8c-2.3-10.5 1.9-20.9 9-27.9 2.1-2.1 3.5-4.8 4.3-7.8-1.7-10.5-3.4-19.3-5-25-4.8 0-9.5 11.2-9.5 11.2.3-8.3 3.7-12.2 7.7-15.6-2.4-5.6-5.3-11.4-8.4-16-.5-.6 8.2-6.9 10.2-15.3z"/><path fill="#B1D5AB" d="M138.8 43.4c-3-3-9.4-3-9.4-3v91.1s1.2.2 2.4-.8c1.7-.7 3.9-.1 5.1 1.2 2.4 2.1 2.6 2.7 5 3.5 0 0-2.2 3.7-12.5 3.7v18s9.4 1.8 14.9-3.1c3.3-2.9 10.2-11.7 15.6-19.5 3.6-5.2 6.6-9.9 7.5-12.1.6-1.6 1.2-4.2 1.7-7.2-.1-.9-.2-1.7-.3-2.6-.3-1.2-.5-2.6-.8-4-2.1 2.4-4.7 5.3-6.3 6.5 0 0-.7 5.5-1 5.8-.3.3-1.9.8-1.9.8l.5-7.2c.1-.1 4.6-5 8.2-9-.2-1.3-.3-2.7-.5-4.1l-4.9 5.2-.2 3.8c-.8 1.4-2.7 2.6-2.7 2.6.2-2 .7-6.5.7-6.5 1.6-1.7 4.5-4.9 6.8-7.5-.6-7.6-.9-16.1-1.4-24-3.3-.1-8.4-.1-11.8.9-5.6 1.5-14.3 6.8-17 8.1 0 0 6.9-6.9 13.5-9.3 6.6-2.4 7.3-2.4 7.3-2.4s-2.2-5.9 0-10.4c2.2-4.4 2.8-4.1 2.8-4.1s-3 7.6-2.2 9.2c.8 1.6 2.2 5.5 2.2 5.5s2.3-.4 4.9-.4c-.3-4.6-.7-8.8-1.2-12.5-1.2-7.8-5.2-11.9-9.4-14.1-5.6-2.5-11.4-2.3-11.4-2.3h-.2V43c-1.9-3-4 .4-4 .4zm6.4 24.7s.2 5.5-1.7 7.1c-1.8 1.7-6.8 3.2-6.8 3.2s-.6-5 8.5-10.3z"/><path fill="#B1D5AB" d="M138.7 75.4c5.4-.7 4.3-4 4.3-4-3.8 1.5-4.3 4-4.3 4z"/><path fill="#9DBD99" d="M136.7 78.4s5-1.5 6.8-3.2c1.8-1.7 1.7-7.1 1.7-7.1-9.1 5.3-8.5 10.3-8.5 10.3zm2-3s.5-2.5 4.3-4c.1 0 1.1 3.3-4.3 4zm21.7-2.7s-1.4-3.9-2.2-5.5c-.8-1.6 2.2-9.2 2.2-9.2s-.7-.3-2.8 4.1c-2.2 4.4 0 10.4 0 10.4s-.7 0-7.3 2.4-13.5 9.3-13.5 9.3c2.6-1.3 11.4-6.6 17-8.1 3.5-.9 8.5-1 11.8-.9-.1-1-.1-2-.2-3-2.7 0-5 .5-5 .5zm-1.1 40.6s1.9-1.1 2.7-2.6l.2-3.8 4.9-5.2c-.1-.8-.1-1.6-.2-2.4-2.3 2.6-5.2 5.8-6.8 7.5-.1 0-.6 4.5-.8 6.5zm-.5 8.7s1.6-.5 1.9-.8c.3-.3 1-5.8 1-5.8 1.5-1.2 4.2-4.1 6.3-6.5-.2-1-.3-2-.4-3-3.6 4-8 8.8-8.2 9l-.6 7.1z"/><path fill="#55976C" d="M141.9 135.5c-2.5-.8-2.7-1.5-5-3.5-1.2-1.3-3.4-2-5.1-1.2-1.1 1-2.4.8-2.4.8v7.7c10.3-.1 12.5-3.8 12.5-3.8z"/><path fill="#8DAA8A" d="M138.8 43.4s2.2-3.4 4.4-.2l.2-18.6-4.6 18.8zm4.5 0z"/><path fill="#D7DADA" d="M147.5 252.8l6-2.9c-.8-1.8-1.3-3.5-1.7-5.3-12 2.7-22.4 2.8-22.4 2.8v8.6c6-.1 11.8-.5 17.6-1.4.1-.6.3-1.2.5-1.8zm10.8-5.3l11.6-5.7c-.1-1.1-.3-2.2-.4-3.3-3.2 1.6-6.5 2.9-9.9 3.9-.6 1.8-1 3.5-1.3 5.1z"/><path fill="#3D4953" d="M153.5 249.9l-6 2.9c-.2.6-.4 1.2-.5 1.8 2.7-.4 5.5-.9 8.1-1.5-.6-1.1-1.2-2.1-1.6-3.2zm4.8-2.4c-.3 1.9-.5 3.6-.6 5 4.5-1.1 8.9-2.4 13.1-3.9l-.9-6.9-11.6 5.8zm11.5-88.1l-10-23.5v4.8c.8 2.6.7 5 .2 7.3-2 8.4-10.8 14.6-10.2 15.5 3.1 4.5 6 10.4 8.4 16 1.8-1.5 3.7-2.9 5.4-4.6 2.7-4.5 5.8-10.5 6.2-15.5z"/><path fill="#514445" d="M169.8 159.4c-.4 4.9-3.5 11-6.1 15.5 2.2-2.1 4.3-4.6 5.7-8.3.8-1.9 1.2-4.2 1.5-6.7l-1.1-.5zm-9.7 24.5c1.6 5.7 3.3 14.5 5 25 3-10.8-1.3-25-5-25zm33.8 32.8c-.3-4.1-.5-8-.6-11.6-.5-.3-.9-.5-1.3-.8-7.1 11.2-17.7 19.3-23.8 24.7.4 3.1.9 6.3 1.3 9.6.1 1.1.3 2.2.4 3.3l.9 6.9c7.8-2.8 15.2-6.2 22.2-10.4.8-10.1 1.2-18 .9-21.7z"/><path fill="#2A3135" d="M225.4 209.4s-7-11-27.2-14.9c3.1 8.2 7.1 14.9 7.1 14.9-4.5-.8-8.5-2.3-12-4.3.1 3.6.3 7.5.6 11.6.3 3.7-.1 11.6-.9 21.6 13.2-7.8 25-18 34.6-29.9.5-3.1 1-5.9 1.4-7.8l-3.6 8.8z"/><path fill="#64323A" d="M230.7 188.8c-.5-.2-1.1-.3-1.7-.3-1.4 0-13.5-4.1-25-8l-5.1-1.8c.3 4.9-.3 9.5-1.6 13.7.2.7.5 1.4.8 2.1 20.2 3.8 27.2 14.9 27.2 14.9l3.6-8.8c-.5 1.9-.9 4.7-1.4 7.8 1-1.2 2-2.5 3-3.8 1.2-5.7 2.1-10 2.4-11 .8-2.3-.4-4.1-2.2-4.8z"/><path fill="#871B3A" d="M196.1 172.1c-2.7 5.3-1.2 13.2 1.2 20.4 1.2-4.2 1.9-8.8 1.6-13.7-.2-2.9-.7-6-1.5-9.2-.4.8-.8 1.7-1.3 2.5zm-37.8 75.4c.3-1.6.7-3.3 1.2-5 1.4-4.5 3.9-9.3 8.1-13l.5-.5c6.1-5.4 16.7-13.5 23.8-24.7-12.8-8-18.6-21.8-20.2-25.3-.7-1.5-.2-6 .5-11.8-.3 1-.5 1.6-.5 1.6s2.7-16.5 2.9-30.5c-.2-3.2-.7-5.9-1.7-7.8-1.7-3.1-2.8-7.1-3.5-11.4l-2.7 5.7s5.5 21 4 35.2c-.3 2.5-.7 4.7-1.5 6.7-1.4 3.6-3.5 6.2-5.7 8.3-1.8 1.7-3.7 3.1-5.4 4.6-4 3.4-7.4 7.3-7.7 15.6 0 0 4.7-11.2 9.5-11.2 3.8 0 8.1 14.2 5 25-.8 3-2.2 5.7-4.3 7.8-7.1 7-11.2 17.3-9 27.9.4 1.8.9 3.6 1.7 5.3.5 1.1 1 2.2 1.6 3.2.9-.2 1.7-.4 2.6-.6.3-1.5.4-3.2.8-5.1z"/><path fill="#C2496B" d="M144.8 18.8s-7.9-7.3-15.5-7.3v5c10 0 14 8 14 8 30.1-9.1 35.9 59.5 35.9 70.3 0 10.9 9.7 35.5 9.7 35.5l-3.2-18.3c-.1-.2-.1-.5-.1-.7l.1.7c1.6 7.6 13.6 31.3 14.4 36.6.7 4.2-6.1 13.5-9.3 17.5-.5.8-1 1.4-1.5 1.9 0 0 .6-.7 1.5-1.9 4.4-7.1 5.6-24.2 5.6-24.2-.6 3.6-14.6 34-14.6 34l-2.7-5.5c.9-7-1.2-26.4-1.2-26.4-.5 5.9-4.4 18.6-5.8 23-.7 5.8-1.2 10.4-.5 11.8 1.6 3.5 7.4 17.4 20.2 25.3.4.3.9.5 1.3.8 3.5 2 7.5 3.5 12 4.3 0 0-4-6.7-7.1-14.9-.3-.7-.5-1.4-.8-2.1-2.5-7.1-3.9-15-1.2-20.4.4-.8.8-1.7 1.3-2.6 1-2 2.1-4.2 3.1-6.4 5.1-10.7 9.8-22.8 6.5-30.5-2.9-6.8-9.3-12.5-15.2-24.5-2.7-5.5-5.3-12.4-7.3-21.4-6.2-27.8-7.1-69.7-39.6-67.6z"/><path fill="#C2496B" d="M129.4 37.2v3.2s6.4 0 9.4 3c-1.8-5-9.4-6.2-9.4-6.2zm25.3 8.5c-5.1-2.6-10.4-2.4-11.4-2.3 0 0 5.8-.2 11.4 2.3zm17 74.5c-1.3-1.6-2.2-4.2-3-7.4.1.9.2 1.7.3 2.6.1 1.2.3 2.4.5 3.6.7 4.3 1.8 8.3 3.5 11.4 1 1.9 1.5 4.6 1.7 7.8.1-7.8-.6-15-3-18z"/><path fill="#3C151C" d="M185.8 112.1l-.1-.7c0 .2 0 .5.1.7zm5.2 54.2c-.9 1.2-1.5 1.9-1.5 1.9.5-.5 1-1.2 1.5-1.9z"/><path fill="#3C151C" d="M178.1 144.2s2.1 19.4 1.2 26.4l2.7 5.5s14-30.4 14.6-34c0 0-1.2 17.2-5.6 24.2 3.1-4 10-13.3 9.3-17.5-.9-5.3-12.9-29-14.4-36.6l3.2 18.3s-9.7-24.7-9.7-35.5c0-10.9-5.9-79.5-35.9-70.3l-.2 18.6v.2h.2c1-.1 6.3-.3 11.4 2.3 4.2 2.2 8.2 6.3 9.4 14.1.5 3.6.9 7.9 1.2 12.5.1 1 .1 2 .2 3 .4 7.9.7 16.4 1.4 24 .1.8.1 1.6.2 2.4.1 1.4.3 2.8.5 4.1.1 1 .3 2 .4 3 .2 1.4.5 2.8.8 4 .7 3.2 1.7 5.7 3 7.4 2.4 3.1 3.1 10.2 2.9 18-.2 14.1-2.9 30.5-2.9 30.5s.2-.6.5-1.6c1.1-4.5 5.1-17.1 5.6-23zm-48.7-107s7.6 1.2 9.4 6.2l4.6-18.8s-3.9-8-14-8v20.6z"/><path fill="#45312C" d="M28 188.8c-.9-.4-3.3-1.2-5.7.2-1.3.7-3.2 1.8-5.1 3.1 3.5 6.1 7.5 11.8 12 17.2-1.6-7.8-3-14.5-3.4-15.7-.7-2.3.4-4.1 2.2-4.8z"/><path fill="#180000" d="M129.4 11.5V9.1s-20.2-1.6-31.6 9.5c13.1-11.5 27.3-7.1 31.6-7.1zM98.7 148.1c.2-4.7.2-9 .2-12.2v4.8c-.8 2.7-.8 5.1-.2 7.4zm-37.4 21.4c-1-2-2.1-4.2-3.1-6.4-.9 5.7-2.1 11.8-3.5 17.3l5.1-1.8c.1-2.8.6-5.9 1.5-9.1zM86.4 34.2c-4.8 7.9-9.1 16.9-11.1 25.9-2 9.1-6.1 33.5-9.3 53 3.8-6.2 7.1-14.4 8.1-26.3 2.1-24.5 6.7-41.3 12.3-52.6zm3.3 81.2c-.1 1-.2 2-.4 3l2.1 4.4c0-.1 0-.1-.1-.2-.5-1.6-1.1-4.2-1.6-7.2zm-.8 44l10-23.5v-1.3c-2.8-4-5.2-7.7-6.5-10.2 0 0-5.9 21.1-4.4 35.4l.9-.4z"/><path fill="#6B826B" d="M99.2 242.5c-1.4-4.5-3.9-9.3-8.1-13l-.5-.5c-.4 3.1-.9 6.3-1.3 9.6 3.1 1.5 6.5 2.8 9.9 3.9zm30.2-85.2s-9.4 1.8-14.9-3.1c-3.3-2.9-10.2-11.7-15.6-19.5v1.3c0 3.2 0 7.5-.2 12.2 2 8.4 10.8 14.6 10.2 15.5-3.1 4.5-6 10.4-8.4 16 4 3.4 7.4 7.3 7.7 15.6 0 0-4.7-11.2-9.5-11.2-1.6 5.7-3.3 14.5-5 25 .8 3 2.2 5.7 4.3 7.8 7.1 7 11.2 17.3 9 27.9 12 2.7 22.4 2.8 22.4 2.8v-90.3z"/><path fill="#8DAA8A" d="M120 75.4s-.5-2.5-4.3-4c0 0-1.1 3.3 4.3 4z"/><path fill="#8DAA8A" d="M114.5 154.2c5.5 4.9 14.9 3.1 14.9 3.1v-18c-10.4 0-12.5-3.7-12.5-3.7 2.5-.8 2.7-1.5 5-3.5 1.2-1.3 3.4-2 5.1-1.2 1.1 1 2.4.8 2.4.8V40.3s-19.3-8.7-32.5 11.3c-.9 2.4-1.7 5.1-2.3 8.2-.7 3.6-1.1 7.9-1.4 12.5 2.7 0 5.2.4 5.2.4s1.4-3.9 2.2-5.5c.8-1.6-2.2-9.2-2.2-9.2s.7-.3 2.8 4.1c2.2 4.4 0 10.4 0 10.4s.7 0 7.3 2.4 13.5 9.3 13.5 9.3c-2.6-1.3-11.4-6.6-17-8.1-3.6-.9-8.8-1-12.1-.9-.5 7.8-.7 16.3-1.3 23.8 2.4 2.7 5.3 6 7 7.7 0 0 .5 4.5.7 6.5 0 0-1.9-1.1-2.7-2.6l-.2-3.8-5.1-5.3c-.1 1.4-.3 2.8-.4 4.1 3.6 4.1 8.1 9 8.3 9.1l.5 7.2s-1.6-.5-1.9-.8c-.3-.3-1-5.8-1-5.8-1.6-1.3-4.2-4.2-6.3-6.6-.2 1.3-.4 2.5-.7 3.7l-.3 3c.5 3 1 5.6 1.7 7.2 0 0 0 .1.1.2l.9 1.8c1.4 2.5 3.8 6.2 6.5 10.2 5.6 7.6 12.5 16.5 15.8 19.4zm7.5-75.8s-5-1.5-6.8-3.2c-1.8-1.7-1.7-7.1-1.7-7.1 9.1 5.3 8.5 10.3 8.5 10.3z"/><path fill="#7E997D" d="M113.5 68.1s-.2 5.5 1.7 7.1c1.8 1.7 6.8 3.2 6.8 3.2s.6-5-8.5-10.3zm6.5 7.3c-5.4-.7-4.3-4-4.3-4 3.8 1.5 4.3 4 4.3 4zm-14.9.7c5.6 1.5 14.3 6.8 17 8.1 0 0-6.9-6.9-13.5-9.3-6.6-2.4-7.3-2.4-7.3-2.4s2.2-5.9 0-10.4C99 57.6 98.4 58 98.4 58s3 7.6 2.2 9.2c-.8 1.6-2.2 5.5-2.2 5.5s-2.5-.5-5.2-.4c-.1 1-.1 2-.2 3 3.3-.2 8.5-.2 12.1.8zm-8.5 30.8l.2 3.8c.8 1.4 2.7 2.6 2.7 2.6-.2-2-.7-6.5-.7-6.5-1.7-1.8-4.6-5.1-7-7.7-.1.8-.1 1.7-.2 2.5l5 5.3zm.4 8.4s.7 5.5 1 5.8c.3.3 1.9.8 1.9.8l-.5-7.2c-.1-.1-4.7-5.1-8.3-9.1-.1 1-.3 2.1-.4 3 2.1 2.6 4.8 5.5 6.3 6.7z"/><path fill="#427C57" d="M127 130.7c-1.7-.7-3.9-.1-5.1 1.2-2.4 2.1-2.6 2.7-5 3.5 0 0 2.2 3.7 12.5 3.7v-7.7c0 .1-1.3.3-2.4-.7z"/><path fill="#9DA1A2" d="M107 244.6c-.4 1.8-.9 3.6-1.7 5.3l6 2.9c.2.7.4 1.4.6 2.2 5.3.7 10.7 1 16.1 1h1.4v-8.6s-10.4-.2-22.4-2.8zm-18.2-2.8l11.6 5.7c-.3-1.6-.7-3.3-1.2-5-3.4-1.1-6.8-2.4-9.9-3.9-.2 1-.3 2.1-.5 3.2z"/><path fill="#313C45" d="M111.2 252.8l-6-2.9c-.5 1.2-1.2 2.5-1.9 3.7 2.8.6 5.7 1 8.5 1.4-.1-.7-.3-1.5-.6-2.2zm-10.8-5.3l-11.6-5.7c-.3 2.6-.7 5.2-1 7.7 4.3 1.4 8.8 2.6 13.3 3.6-.1-1.5-.3-3.4-.7-5.6zm-1.7-99.4c-.6-2.3-.6-4.8.2-7.3V136l-10 23.5c.4 4.9 3.5 11 6.1 15.5 1.8 1.7 3.7 3.1 5.4 4.6 2.4-5.6 5.3-11.4 8.4-16 .7-.8-8.1-7.1-10.1-15.5z"/><path fill="#58403B" d="M93.6 208.9c1.7-10.5 3.4-19.3 5-25-3.7 0-8 14.2-5 25zm-4.8 32.9c.1-1.1.3-2.2.4-3.3.4-3.2.9-6.4 1.3-9.6-6.1-5.4-16.7-13.5-23.8-24.7-.4.3-.9.5-1.3.8-.1 3.6-.3 7.5-.6 11.6-.3 3.9.2 12.5 1 23.2 7 3.9 14.3 7.1 22 9.6.4-2.4.7-5 1-7.6zm.1-82.4l-1 .5c.2 2.5.7 4.8 1.5 6.7 1.4 3.6 3.5 6.2 5.7 8.3-2.7-4.5-5.7-10.5-6.2-15.5z"/><path fill="#181F22" d="M64.8 216.7c.3-4.1.5-8 .6-11.6-3.5 2-7.5 3.5-12 4.3 0 0 4-6.7 7.1-14.9-20.2 3.8-27.2 14.9-27.2 14.9l-3.6-8.8c.6 2.7 1.3 7 2 11.7 9.7 11 21.2 20.4 34.1 27.6-.8-10.7-1.3-19.3-1-23.2z"/><path fill="#4E232A" d="M33.4 209.4s7-11 27.2-14.9c.3-.7.5-1.4.8-2.1-1.2-4.2-1.9-8.8-1.6-13.7l-5.1 1.8c-11.4 3.9-23.6 8-25 8-.6 0-1.2.1-1.7.3-1.8.7-2.9 2.5-2.2 4.8.4 1.2 1.8 7.9 3.4 15.7.8 1 1.7 2 2.6 3-.7-4.7-1.4-9-2-11.7l3.6 8.8z"/><path fill="#640625" d="M105.3 249.9c.8-1.8 1.3-3.5 1.7-5.3 2.3-10.5-1.9-20.9-9-27.9-2.1-2.1-3.5-4.8-4.3-7.8-3.1-10.8 1.2-25 5-25 4.8 0 9.5 11.2 9.5 11.2-.3-8.3-3.7-12.2-7.7-15.6-1.8-1.5-3.7-2.9-5.4-4.6-2.2-2.1-4.3-4.6-5.7-8.3-.8-1.9-1.2-4.2-1.5-6.7-1.4-14.3 4.4-35.4 4.4-35.4l-.9-1.8-2.1-4.4c-.7 4.6-1.8 8.8-3.5 12-1 1.9-1.5 4.6-1.7 7.8.2 14.1 2.9 30.5 2.9 30.5s-.2-.6-.5-1.6c.7 5.8 1.2 10.4.5 11.8-1.6 3.5-7.4 17.4-20.2 25.3 7.1 11.2 17.7 19.3 23.8 24.7l.5.5c4.2 3.7 6.7 8.5 8.1 13 .6 1.7.9 3.4 1.2 5 .4 2.1.6 4.1.7 5.6.7.2 1.5.3 2.2.5.8-1 1.4-2.3 2-3.5zm-42.7-77.8c-.4-.8-.8-1.7-1.3-2.6-.9 3.2-1.4 6.3-1.5 9.2-.3 4.9.3 9.5 1.6 13.7 2.4-7.1 3.9-15 1.2-20.3z"/><path fill="#802B44" d="M96.9 51.6c13.2-20 32.5-11.3 32.5-11.3v-3.2c0 .1-23.6-8.3-32.5 14.5zM90 112.4c-.7 3.4-1.7 6.1-3 7.8-2.4 3.1-3.1 10.2-2.9 18 .2-3.2.7-5.9 1.7-7.8 1.7-3.2 2.9-7.5 3.5-12 .1-1 .3-2 .4-3 .2-1 .2-2 .3-3z"/><path fill="#802B44" d="M62.6 172.1c2.7 5.3 1.2 13.2-1.2 20.4-.2.7-.5 1.4-.8 2.1-3.1 8.2-7.1 14.9-7.1 14.9 4.5-.8 8.5-2.3 12-4.3.5-.3.9-.5 1.3-.8 12.8-8 18.6-21.8 20.2-25.3.7-1.5.2-6-.5-11.8-1.4-4.4-5.3-17.1-5.8-23 0 0-2.1 19.4-1.2 26.4l-2.7 5.5s-14-30.4-14.6-34c0 0 1.2 17.2 5.6 24.2.9 1.2 1.5 1.9 1.5 1.9-.5-.5-1-1.1-1.5-1.9-3.1-4-10-13.3-9.3-17.5.9-5.3 12.9-29 14.4-36.6l.1-.7c0 .2-.1.4-.1.7l-3.2 18.3s9.7-24.7 9.7-35.5c0-10.9-4.6-88.3 49.9-78.4v-5c-4.2 0-18.4-4.4-31.6 7.1-4 3.5-7.9 8.5-11.4 15.5C80.7 45.7 76.1 62.4 74 86.9c-1 11.9-4.3 20.1-8.1 26.3-5.4 8.8-11.9 13.7-14.4 19.6-3.3 7.7 1.4 19.8 6.5 30.5 1 2.2 2.1 4.3 3.1 6.4.6.7 1.1 1.6 1.5 2.4z"/><path fill="#320A13" d="M73 112.1c.1-.2.1-.5.1-.7l-.1.7zm-5.2 54.2c.5.8 1 1.4 1.5 1.9 0-.1-.6-.8-1.5-1.9z"/><path fill="#320A13" d="M87 120.2c1.3-1.7 2.3-4.4 3-7.8.2-1.2.5-2.4.7-3.7.1-1 .3-2 .4-3 .2-1.3.3-2.7.4-4.1.1-.8.1-1.6.2-2.5.6-7.6.8-16 1.3-23.8.1-1 .1-2 .2-3 .3-4.6.8-8.8 1.4-12.5.6-3.1 1.3-5.8 2.3-8.2 8.9-22.8 32.5-14.5 32.5-14.5V16.6c-54.6-9.9-50 67.5-50 78.3 0 10.9-9.7 35.5-9.7 35.5l3.2-18.3c-1.6 7.6-13.6 31.3-14.4 36.6-.7 4.2 6.1 13.5 9.3 17.5-4.4-7.1-5.6-24.2-5.6-24.2.6 3.6 14.6 34 14.6 34l2.7-5.5c-.9-7 1.2-26.4 1.2-26.4.5 5.9 4.4 18.6 5.8 23 .3 1 .5 1.6.5 1.6s-2.7-16.5-2.9-30.5c-.1-7.8.5-15 2.9-18z"/></svg>