<svg xmlns="http://www.w3.org/2000/svg" width="256" height="256"><circle fill="#B1B3B5" cx="128" cy="128" r="128"/><path fill="#001423" d="M166.5 167.4c.3 1.9.6 3.8 1 5.6 3-5-1-5.6-1-5.6zm-.1-.9c0 .2.1.5.1.7l-.1-.7z"/><path fill="#265062" d="M128.1 255.7v.3c2.1 0 4.2-.1 6.2-.2l-5.9-.8-.3.7z"/><path fill="#244E5F" d="M229 206s-6.5-1.2-12.5 4.7l-6.5 6.5c.5.2 1 .5 1.4.6 2.3 1.1.6 3.1-1 4.7-1.1 1.1-3.1.8-5.6 0-3.8 4-7.2 8-9.1 11-.7 1.2-1.6 2.8-2.4 4.5 14-8.3 26.2-19.2 36.1-32h-.4zm-99.2 46.3l-1.4 2.7 5.9.8c2.5-.1 5-.3 7.4-.6-1.7-.9-3.3-1.8-5-2.6l-6.9-.3z"/><path fill="#607276" d="M210.5 222.6c1.6-1.6 3.2-3.6 1-4.7-.4-.2-.9-.4-1.4-.6-1.7 1.7-3.4 3.5-5.1 5.3 2.4.8 4.4 1.1 5.5 0z"/><path fill="#224A5B" d="M136.8 252.7c-1.9-1-3.9-1.8-5.8-2.6l-1.2 2.3 7 .3zm68-30.1c1.7-1.8 3.4-3.6 5.1-5.3 2.4-2.5 4.7-4.7 6.5-6.5 5.9-5.9 12.5-4.7 12.5-4.7v-.1c-.2-2.8-4.3-2.3-7.7-2.1-1.9.1-6-1-9.1-1.9 0 0-8.4 2.6-19.2 12.2 1.1.3 2.3.7 3 1.1 1.4.8 2.9 1.7 1.2 3.1-1.7 1.4-2.5 2.8-4.7 1.7-.9-.5-2.3-1.1-3.5-1.6-6.4 7.7-11.5 18.2-13.7 23.3 1.6 1 3.2 2.1 5 3.2 4.5-2 8.9-4.3 13.2-6.8.8-1.7 1.7-3.3 2.4-4.5 1.8-3.1 5.3-7.1 9-11.1z"/><path fill="#637579" d="M189 218.5c1.3.5 2.6 1.2 3.5 1.6 2.2 1.1 3-.2 4.7-1.7 1.7-1.4.2-2.3-1.2-3.1-.7-.4-1.9-.8-3-1.1l-.1.1c-1.4 1.3-2.7 2.6-3.9 4.2z"/><path fill="#C08C76" d="M152.7 166.9c-10.1 9.5-23.6 9.9-24.7 9.9v9.5c2.4-.5 33.7-6.5 37.2-10.5 1-1.1 1.7-2 2.2-2.9-.4-1.8-.7-3.7-1-5.6v-.1c0-.2-.1-.5-.1-.7-.1-.5-.1-.9-.2-1.4v-.1c-.6-4.7-.9-9.2-1.1-13-3 4.7-7.1 10.1-12.3 14.9z"/><path fill="#1F4657" d="M142.9 226.6l-.1.2c8.6 2.5 19.6 6.5 28.6 12.5 1.2.8 2.4 1.6 3.8 2.5 2.3-5.1 7.3-15.6 13.7-23.3 1.3-1.5 2.6-2.9 3.9-4.1l.1-.1c10.8-9.6 19.2-12.2 19.2-12.2s-2.2-4.1-7.5-4.8c-5.3-.6-17.2-4.5-17.2-4.5s-15.4 17.9-44.5 33.8z"/><path fill="#2B586C" d="M171.4 239.3c-9-6-19.9-10-28.6-12.5l-3.7 7.3c4 1.1 8.8 2.8 13.6 5.2 3.8 1.9 9.9 5.5 16.9 9.8.7-.2 1.3-.5 2-.7-7.6-4.8-13.3-8.2-13.3-8.2l-2.7-4.8 5.4-.7s9.2 5.6 17.7 10.9c.5-.2 1-.4 1.5-.7-1.7-1.1-3.4-2.2-5-3.2-1.3-.8-2.6-1.6-3.8-2.4z"/><path fill="#306176" d="M139.1 234.1l-4.2 8.2c4.5 1.4 11.2 4.1 19.7 9.1.8.4 1.5.9 2.3 1.4 1-.2 2.1-.5 3.1-.8-4.2-2.6-6.9-4.2-6.9-4.2l-2.7-4.8 5.4-.7s5.6 3.4 12.1 7.4c.6-.2 1.1-.4 1.7-.6-7-4.4-13.1-7.9-16.9-9.8-4.8-2.4-9.6-4-13.6-5.2z"/><path fill="#417383" d="M134.9 242.3l-4 7.8c2 .8 3.9 1.6 5.8 2.6 1.6.8 3.3 1.7 5 2.6l4.8-.6-1.9-3.3 5.4-.7s1.7 1.1 4.3 2.7c.8-.2 1.7-.4 2.5-.5-.8-.5-1.5-.9-2.3-1.4-8.4-5.1-15-7.8-19.6-9.2z"/><path fill="#0A3040" d="M166.2 165.1l.2 1.4.1.7v.1s4 .6 1 5.6c-.5.8-1.2 1.8-2.2 2.9-3.5 4-34.8 10-37.2 10.5v69.3l.3-.7 1.4-2.7 1.2-2.3 4-7.8 4.2-8.2 3.7-7.3.1-.2c29.1-16 44.5-33.8 44.5-33.8s-13.3-16.4-16.4-23.6c-1.8-4.1-4.8-4.2-4.9-4.2v.3z"/><path fill="#663A3A" d="M161 234.7l-5.4.7 2.7 4.8s5.7 3.4 13.3 8.2c2.4-.9 4.8-1.8 7.1-2.8-8.5-5.3-17.7-10.9-17.7-10.9zm-10.6 8.2l2.7 4.8s2.7 1.6 6.9 4.2c2.7-.7 5.3-1.5 7.9-2.3-6.5-4-12.1-7.4-12.1-7.4l-5.4.7zm-5.8 8.4l1.9 3.3c2.7-.4 5.3-.8 7.9-1.4-2.6-1.6-4.3-2.7-4.3-2.7l-5.5.8z"/><path fill="#001423" d="M89.6 166.5l-.1.7c.1-.2.1-.4.1-.7zm-1 6.5c.4-1.8.7-3.7 1-5.6-.1 0-4.1.6-1 5.6z"/><path fill="#244E5F" d="M127.6 255l-5.9.8c2.1.1 4.2.2 6.3.2h.1l-.5-1z"/><path fill="#224A5B" d="M126.2 252.3l-7 .3c-1.6.8-3.3 1.7-5 2.6 2.5.3 4.9.5 7.4.6l5.9-.8-1.3-2.7zm-75-29.7c-2.6.8-4.5 1.1-5.6 0-1.6-1.6-3.2-3.6-1-4.7.4-.2.9-.4 1.4-.6-2.4-2.5-4.7-4.7-6.5-6.5-5.9-6-12.5-4.8-12.5-4.8v-.1h-.5c9.9 12.8 22.1 23.7 36.1 32-.8-1.7-1.7-3.3-2.4-4.5-1.8-2.8-5.3-6.8-9-10.8z"/><path fill="#5D6F73" d="M45.5 222.6c1.1 1.1 3.1.8 5.6 0-1.7-1.8-3.4-3.6-5.1-5.3-.5.2-1 .5-1.4.6-2.3 1.1-.6 3.1.9 4.7z"/><path fill="#1F4657" d="M126.2 252.3L125 250c-2 .8-3.9 1.6-5.8 2.6l7-.3zM67 218.5c-1.3.5-2.6 1.2-3.5 1.6-2.2 1.1-3-.2-4.7-1.7-1.7-1.4-.2-2.3 1.2-3.1.7-.4 1.9-.8 3-1.1-10.8-9.6-19.2-12.2-19.2-12.2-3.2.9-7.2 2-9.1 1.9-3.3-.2-7.4-.7-7.7 2.1v.1s6.5-1.2 12.5 4.7l6.5 6.5c1.7 1.7 3.4 3.5 5.1 5.3 3.8 4 7.2 8 9.1 11 .7 1.2 1.6 2.8 2.4 4.5 4.2 2.5 8.6 4.8 13.2 6.8 1.7-1.1 3.4-2.2 5-3.2-2.3-5.1-7.3-15.6-13.8-23.2z"/><path fill="#607276" d="M63.1 214.3l-.1-.1c-1.1.3-2.3.7-3 1.1-1.4.8-2.9 1.7-1.2 3.1 1.7 1.4 2.5 2.8 4.7 1.7.9-.5 2.3-1.1 3.5-1.6-1.2-1.6-2.5-2.9-3.9-4.2z"/><path fill="#B17D6B" d="M89.8 165.1c-.1.5-.1.9-.2 1.4 0 .2-.1.5-.1.7v.1c-.3 1.9-.6 3.8-1 5.6.5.8 1.2 1.8 2.2 2.9 3.6 4.1 37.4 10.5 37.4 10.5v-9.5h-.1s-14.2 0-24.7-9.9c-5.2-4.9-9.3-10.2-12.3-15-.2 3.8-.5 8.4-1.1 13l-.1.2z"/><path fill="#143847" d="M63 214.2l.1.1c1.4 1.2 2.7 2.6 3.9 4.1 6.4 7.7 11.5 18.2 13.7 23.3 1.3-.9 2.6-1.7 3.8-2.5 9-6 19.9-10 28.6-12.5l-.1-.2c-29.1-16-44.5-33.8-44.5-33.8s-12 3.8-17.2 4.5-7.5 4.8-7.5 4.8 8.4 2.6 19.2 12.2z"/><path fill="#244C5E" d="M116.9 234.1l-3.7-7.3c-8.6 2.5-19.6 6.5-28.6 12.5-1.2.8-2.4 1.6-3.8 2.5-1.6 1-3.2 2.1-5 3.2 3.5 1.5 7 2.9 10.6 4.2 7-4.4 13.1-7.9 16.9-9.8 4.8-2.5 9.6-4.1 13.6-5.3z"/><path fill="#2B586C" d="M121.1 242.3l-4.2-8.2c-4 1.1-8.8 2.8-13.6 5.2-3.8 1.9-9.9 5.5-16.9 9.8 4.1 1.4 8.4 2.6 12.7 3.6.8-.5 1.5-.9 2.3-1.4 8.5-4.9 15.1-7.6 19.7-9z"/><path fill="#306176" d="M125.1 250.1l-4-7.8c-4.5 1.4-11.2 4.1-19.7 9.1-.8.4-1.5.9-2.3 1.4 4.9 1.1 10 2 15.1 2.5 1.7-.9 3.3-1.8 5-2.6 2-1 3.9-1.9 5.9-2.6z"/><path fill="#002534" d="M128.1 255v-68.6s-33.7-6.4-37.4-10.5c-1-1.1-1.7-2-2.2-2.9-3.1-5 .9-5.6 1-5.6v-.1l.1-.7.2-1.4v-.1s-3.1.1-4.9 4.2c-3.1 7.2-16.4 23.6-16.4 23.6S84 210.8 113 226.7l.1.2 3.7 7.3 4.2 8.2 4 7.8 1.2 2.3 1.4 2.7.5 1V255z"/><path fill="#C08C76" d="M180.8 97v2.2c0 3-.5 5.4-1.1 7-.6 1.6-1.6 5.6-1.6 5.6s-.5-3-.9-6.3c-.3 3-.5 5.5-.5 7.1 0 5-1.3 12.7-2.7 18.9 5.1-1.5 8.4-11.8 9.2-15.6.8-4.1 4.9-6.2 5.6-12.7s1.2-12.9-2.6-14.4c-1.1-.4-2.4 0-3.6.8 0 .4-.1.7-.1 1-.5 3.8-1.7 4.1-1.7 6.4z"/><path fill="#D7A990" d="M177.2 105.5c-.4-3-.7-6.3-.5-7.7.3-3-.3-21.9-1.3-25.4s-3-8-3-8l3.4 2.7s-3.4-4.2-4.3-5.6c-1-1.4 4.5 2.9 4.5 2.9l-5.6-8.6 4.9 3.4-5.9-9.7 4 2.2s-5.3-10.1-9.1-12.3-17.6-4.3-23.5-2.7-7.7 3-12.8 3v137.1h.1c1.1 0 14.6-.4 24.7-9.9 5.2-4.9 9.3-10.2 12.3-15 3.2-4.9 5.2-9.1 6.2-11.2.8-1.6 1.8-5.1 2.7-9.2 1.4-6.2 2.7-13.9 2.7-18.9 0-1.6.2-4.1.5-7.1zm-36.3-23.2c4.5.5 10.1-2.5 14-2.3 3.9.2 7.9 2.7 7.9 2.7l2.1.7-.5 1.8.2 1.4c-3.6-1.2-10-2.5-16.7-1.2-6.7 1.3-9.7-.7-9.7-.7-1.7-2.5 2.7-2.4 2.7-2.4z"/><path fill="#323025" d="M128 39.7c5.1 0 6.9-1.4 12.8-3s19.6.5 23.5 2.7 9.1 12.3 9.1 12.3l-4-2.2 5.9 9.7-4.9-3.4 5.6 8.6s-5.4-4.3-4.5-2.9c1 1.4 4.3 5.6 4.3 5.6l-3.4-2.7s2.1 4.5 3 8 1.6 22.4 1.3 25.4c-.2 1.4.2 4.7.5 7.7.4 3.3.9 6.3.9 6.3s1-4 1.6-5.6c.6-1.6 1.1-4 1.1-7V97c0-2.2 1.1-2.5 1.6-6.4 0-.3.1-.6.1-1 .6-5.4 2.1-22 2.1-22l2.2 1.6-.2-4.2 1.9 1.4c-1.1-2.2-3.2-17.4-5.7-21.7-2.6-4.3-9.3-8.5-9.3-8.5V35c0-5.3-24.9-19-27.6-19.6-2.7-.6-11.5-5.6-11.5-5.6l2.4 2.9s-7.6-4.3-8.9-4.3v31.3z"/><path fill="#323025" d="M147.9 85.3c6.7-1.3 13.1 0 16.7 1.2l-.2-1.4.5-1.8-2.1-.7s-4-2.6-7.9-2.7c-3.9-.2-9.6 2.9-14 2.3 0 0-4.4-.1-2.7 2.4 0 0 2.9 2 9.7.7z"/><path fill="#B17D6B" d="M77.3 94.3c-.3 6.3-1 14.9-1 14.9-2.4-3.8-2.2-9.1-2.2-11.3 0-2.1-2.3-6.3-3.8-9.2-.2 0-.4.1-.5.1-3.8 1.4-3.4 7.9-2.6 14.4s4.8 8.6 5.6 12.7c.8 3.8 4.1 14.2 9.2 15.6-1.4-6.2-2.7-13.9-2.7-18.9 0-3.5-.9-10.7-2-18.3z"/><path fill="#C08C76" d="M103.3 166.9c10.5 9.9 24.7 9.9 24.7 9.9V39.7c-9.1 0-19.9-2.6-25.9-1.8-6 .7-14.4 16-18.4 23.9s-1.9 25.9-1.9 25.9c-3.6-3.8-3.6-10.1-3.6-10.1-1.4 3.8-.7 6.9-.7 11.7 0 1.2-.1 3-.2 5 1.1 7.6 2 14.7 2 18.3 0 5 1.3 12.7 2.7 18.9.9 4.1 2 7.6 2.7 9.2 1 2.1 3 6.3 6.2 11.2 3.1 4.8 7.2 10.2 12.4 15zM93.2 82.6s4-2.6 7.9-2.7c3.9-.2 9.6 2.9 14 2.3 0 0 4.4-.1 2.7 2.4 0 0-2.9 1.9-9.7.7-6.7-1.3-13.1 0-16.7 1.2l.2-1.4-.5-1.8 2.1-.7z"/><path fill="#323025" d="M91.4 86.5c3.6-1.2 10-2.5 16.7-1.2 6.7 1.3 9.7-.7 9.7-.7 1.7-2.5-2.7-2.4-2.7-2.4-4.5.5-10.1-2.5-14-2.3-3.9.2-7.9 2.7-7.9 2.7l-2.1.7.5 1.8-.2 1.4z"/><path fill="#212015" d="M76.3 109.2s.7-8.6 1-14.9c.1-2 .2-3.8.2-5 0-4.8-.7-7.9.7-11.7 0 0 0 6.2 3.6 10.1 0 0-2.2-18 1.9-25.9s12.5-23.2 18.4-23.9c6-.7 16.8 1.8 25.9 1.8V8.4l-1.1 3.8-3.9-1.7 2.5 2.2s-5.4-1.4-13.1 0c-7.7 1.4-21.1 13.2-25.1 15.1h3.8l-10.8 5.7 2.9 1.4-14.4 13.2h3.6l-3.6 5.7h3.6l-3.6 1.7s1.4 2.6 1.7 9.8c.2 7.2-1.7 20.4-.2 23.2 0 0 0 .1.1.1 1.4 2.9 3.8 7.1 3.8 9.2-.1 2.3-.3 7.6 2.1 11.4z"/></svg>