<svg xmlns="http://www.w3.org/2000/svg" width="256" height="256"><circle fill="#B2B4B5" cx="128" cy="128" r="128"/><path fill="#671B21" d="M80.8 225.5l1.2-.7c3.8-19.2 2.3-35.3 2.2-36.6-1.6-10.4-4.8-15.7-4.8-15.7-3.3.8-10.8 2.9-13.1 6.8-3 5-12.8 9.1-14.7 15.1S39.9 210.9 39.1 215c-.2 1.1-.5 2.7-.8 4.4 9 8.8 19.2 16.3 30.4 22.2l10.9-9 1.2-7.1zm7.5-37.1c10.1-.2 21.1-7.3 21.1-7.3C119.6 187.8 128 199 128 199v-3.8s-21-18.5-36.2-27.7c-2.5 2.1-4.7 3.5-6.1 4.4.1.1.2.1.2.1 1.1 5.7 1.9 11.2 2.4 16.4z"/><path fill="#8F4F40" d="M128 188.5v-5.1s-10.2-4.6-19.3-10.2c-12.6-5.5-19.1-15.7-23.4-23.1-4.1 5.6-6.7 12.5-6.7 12.5 2.7-.6 7.5 1.6 13.2 5 15.2 9.2 36.2 27.7 36.2 27.7v-6.8z"/><path fill="#892C34" d="M84.2 188.2c0-.1 0-.1 0 0 1.3.2 2.7.3 4.1.2-.5-5.2-1.3-10.7-2.5-16.5 0 0-.1 0-.2-.1-.7-.4-3.4-1.6-6.3.7.1 0 3.3 5.3 4.9 15.7z"/><path fill="#3D160A" d="M108.7 173.1c9.1 5.6 19.3 10.2 19.3 10.2v-6.5c-7.7 0-14-1.4-19.3-3.7z"/><path fill="#892C34" d="M204.4 194.3c-1.9-6-11.7-10.1-14.7-15.1-2.3-3.8-9.8-6-13.1-6.8 0 0-7.3 26.6-3 58.7l10 12.1c12.7-6.1 24.2-14.3 34.1-24-.3-1.7-.6-3.3-.8-4.4-.7-3.9-10.5-14.5-12.5-20.5zM128 199l5.3 7.1 34.2 4.1c-.4-12.3 0-25.9 2.6-38.2 0 0 .1 0 .2-.1-1.4-.8-3.7-2.3-6.1-4.4-15.2 9.2-36.2 27.7-36.2 27.7v3.8z"/><path fill="#C16B59" d="M161.5 159.2c-.1 9-33.5 24.1-33.5 24.1v11.8s21-18.5 36.2-27.7c5.7-3.4 10.5-5.6 13.2-5 0 0-3.5-9.4-8.9-15.2-.4-.4-.7-.8-1.1-1.1-1.6 3.4-3.6 7.1-6 10.7 0 .8.1 1.6.1 2.4z"/><path fill="#34394A" d="M138.2 212.7l28.1 37.5 5.4-1.8c-.9-4.9-2.9-16.9-3.8-31.5l-29.7-4.2z"/><path fill="#68554D" d="M135 208.4l22.6 2.9v2.8l-20.4-2.8 1.1 1.4 29.7 4.2c-.1-2.2-.2-4.4-.3-6.7l-34.2-4.1 1.5 2.3z"/><path fill="#A33740" d="M176.6 172.5c-2.9-2.3-5.6-1.1-6.3-.7-.1.1-.2.1-.2.1-2.6 12.4-3 25.9-2.6 38.2.1 2.3.2 4.5.3 6.7.9 14.6 2.9 26.5 3.8 31.5 1.6-.6 3.2-1.2 4.8-1.9-1.3-5.2-2.2-10.3-2.9-15.2-4.2-32.1 3.1-58.7 3.1-58.7z"/><path fill="#A48551" d="M157.6 211.2l-22.6-2.8 2.2 2.9 20.4 2.7z"/><path fill="#5C2E22" d="M161.5 159.2c0-.9-.1-1.6-.2-2.4-6.9 10.3-17.3 20-33.3 20v6.5s33.4-15.1 33.5-24.1z"/><path fill="#3B2800" d="M102.6 60.9v10.5l5.6 11.8-3.3-11.6s-.6-4.4-.3-7.2-2-14.9-2-14.9v-4.1l3.1 4.4.8 3 .6 2.8 2.5 8 2.2 12.7V63.9l-.5-1.4-2.1-5.8-.5-1.3-.5-7.1-1.4-20.1v20.1l-4.2-5.8V28l-5.1 4.3c.6 4.1 2.2 14.6 2.2 14.6l2.9 14zM74.8 46.3c-.4 2.8.9 8.3.1 9.6-.8 1.4 4.4 32.8 4.4 32.8L81 76.6 78.5 57l.3-8-3.9-16v-3.6l-1.3 2.4 1.2 3.6c-.1.2.3 8.2 0 10.9zm43.3-20.2h1.9l1.7 22.1V23.4l-2.5 1.1-3-13.4-2.2-7.2 3 19z"/><path fill="#533C0A" d="M162.6 84.8c-.3-.6-.3-6.2-.2-11.8l-1.2 5.9-1 5.2-.2 8.4c0-.1 3.4-6.5 2.6-7.7zm9.6-19.9v5.7s3.4 6.7 3.4 8.1v16.8s1.2-20.4 1.2-24.4v-8.9l1.7-8.4v-3.4c-1.8 5.5-6 6.1-8.3 5.9l.6 1.7 1.4 6.9zm-10.1 5c.2.6.3 1 .4 1.3.1-5.3.3-10.2.3-10.2l-1.4-10v-2.2l-2.9-1.5c.3 3.4.8 9.4 1.5 13.5.6 3.7 1.5 7.1 2.1 9.1zm-31.2-19.4c.6 1.9 0 11.7 0 11.7l2.3-12.2s1 3.1 1.2 4.1 1.7 3.4 1.9 4.6c.2 1.2 0 5.5 0 5.5S138 74 138 75s1.2 8.4 1.2 8.4v11s1.4-24.9 1.4-25.9.5-6.5 0-7.4c-.5-1 .2-15.6.2-15.6v-7.4l-2 21.1-.3 3.6s-1.2-7.7-1.4-8.9-.7-3.1-1.2-4.3-3.6-6.7-3.6-6.7l.2-11h-1.6v5.7s-.7 11 0 12.9zm15.2-25.4l-1.4-2.1v17.2z"/><path fill="#886427" d="M128 89.6v87.1c16 0 26.5-9.7 33.3-20 2.4-3.6 4.4-7.3 6-10.7 1.2-2.4 2.1-4.6 2.9-6.5 5.3-12.2 5.3-32.8 6.5-35.7 1.2-2.9 6.5-16.5 7.9-20.1s1-19.2 1.2-25.6-1.7-11-1.7-11l-2.6.5-3.1 2.9v3.4l-1.7 8.4v8.9c0 4.1-1.2 24.4-1.2 24.4V78.8c0-1.5-3.4-8.1-3.4-8.1V65l-1.4-6.7-.6-1.7-1.3-3.5-2.9-5.3-4.6-1.7V51l1.3 10.1s-.2 4.9-.3 10.2c-.1-.3-.2-.8-.4-1.3-.6-2-1.4-5.3-2-9.1-.7-4.1-1.2-10.2-1.5-13.5-.1-1.5-.2-2.5-.2-2.5s-1.4-1.7-2.4-3.4-1.7-2.9-2.4-4.6-2.9-2.9-2.9-2.9v-4.3l-1.2-2.9-3.4-1.9v.2l-1.4 15.1V23l-3.9-2.9L137 22l-1.7 4.8-1.2 1.2v1.9l-1.9 1.4v.5l-.2 11s3.1 5.5 3.6 6.7 1 3.1 1.2 4.3 1.4 8.9 1.4 8.9l.3-3.6 2-21.1v7.4s-.7 14.6-.2 15.6 0 6.5 0 7.4-1.4 25.9-1.4 25.9v-11s-1.2-7.4-1.2-8.4-1.7-10.8-1.7-10.8.2-4.3 0-5.5-1.7-3.6-1.9-4.6-1.2-4.1-1.2-4.1l-2.3 12.2s.6-9.8 0-11.7 0-12.9 0-12.9v-5.7l-2.9-1.9v59.7h.3zm32.3-5.5l1-5.2 1.2-5.9c-.1 5.6-.1 11.2.2 11.8.7 1.2-2.6 7.7-2.6 7.7l.2-8.4z"/><path fill="#6E511C" d="M108.7 173.1c5.3 2.3 11.6 3.7 19.3 3.7V29.9l1.4-12s-3.3-1.4-3.6-2.2c-.3-.8-2.2-4.4-2.2-5.2V6.4l-4.1-2.5H114l2.2 7.2 3 13.4 2.5-1.1v24.8L120 26.1h-1.9l-1.1-3.2-3-19-3.3 2.8v1.7l-5 1.6v1.7l-3.1 1.4v29.4l4.2 5.8V28.1l1.4 20.1.5 7.1.5 1.3 2.1 5.8.5 1.4v12.4l-2.2-12.7-2.5-8-.6-2.8-.8-3-3.1-4.4v4.1s2.3 12.1 2 14.9.3 7.2.3 7.2l3.3 11.6-5.6-11.8V60.9l-2.9-14S98 36.4 97.5 32.3l-4.7-3.9v-4.7l-1.9-3.6-1.9-3.3-5.5 1.1-5.5 5.5v3l-3 3V33l3.9 16-.3 8 2.5 19.6-1.7 12.1S74.2 57.3 75 55.9c.8-1.4-.5-6.9-.1-9.6.4-2.8-.1-10.7-.1-10.7L73.6 32l-.3-1s-1.9 2.2-2.1 3c-.1.8-1.8 9.9-1.2 12.4l-.1 1.9-2.9.3s1.7 4.7 1.9 11c.3 6.3 1.9 31.1 2.3 36.9.4 5.8 5.7 39.9 11.4 49 .8 1.3 1.7 2.8 2.7 4.6 4.3 7.2 10.8 17.5 23.4 23z"/><path fill="#61171E" d="M138.2 212.7l-1.1-1.4-2.2-2.9-1.7-2.3-5.2-7.1v17.1l16.8 25.5-10.8 6.7-6-8.9V256c13.4 0 26.2-2 38.3-5.8l-28.1-37.5z"/><path fill="#514F55" d="M128 218.6v.7l1.5 2.4-1.5 1v.5l1.8-1.2 2.4 3.6-2.7 1.8c-.4-.6-.9-.8-1.4-.7v.9h.1l.8 1.2c-.5.3-.7.7-.9 1v1.6l.4-.3c.9 1.4 2.4.3 2.4.3l.8 1.2c-1.4.9-.9 2-.9 2l-2.7 1.8v2.8l6 8.9 10.8-6.7L128 216v2.6zm1.5 12.4l-.8-1.2c1.4-.9.9-2 .9-2l2.7-1.8 2.4 3.6-2.7 1.8c-1-1.5-2.5-.4-2.5-.4zm1.5 4.1c.9 1.4 2.4.3 2.4.3l.8 1.2c-1.4.9-.9 2-.9 2l-2.7 1.8-2.4-3.6 2.8-1.7zm2.5 3.9c.9 1.4 2.4.3 2.4.3l.8 1.2c-1.4.9-.9 2-.9 2l-2.7 1.8-2.4-3.6 2.8-1.7zm1.1 7.7l-1.2-1.9 2.7-1.8c.9 1.4 2.4.3 2.4.3l.4.6-4.3 2.8zm8.3-5.1l-2.7 1.8c-.9-1.4-2.4-.3-2.4-.3l-.8-1.2c1.4-.9.9-2 .9-2l2.7-1.8 2.3 3.5zm-2.8-4.1l-2.7 1.8c-.9-1.4-2.4-.3-2.4-.3l-.8-1.2c1.4-.9.9-2 .9-2l2.7-1.8 2.3 3.5zm-2.7-4l-2.7 1.8c-.9-1.4-2.4-.3-2.4-.3l-.8-1.2c1.4-.9.9-2 .9-2l2.7-1.8 2.3 3.5z"/><path fill="#868489" d="M137.8 239.8s.5 1.1-.9 2l.8 1.2s1.5-1.1 2.4.3l2.7-1.8-2.4-3.6-2.6 1.9zm-3.6-2l.8 1.2s1.5-1.1 2.4.3l2.7-1.8-2.4-3.6-2.7 1.8s.6 1.2-.8 2.1zm-2.7-4.1l.8 1.2s1.5-1.1 2.4.3l2.7-1.8-2.4-3.6-2.7 1.8c0 .1.6 1.2-.8 2.1zm.4-2.4l2.7-1.8-2.4-3.6-2.7 1.8s.5 1.1-.9 2l.8 1.2c.1.1 1.6-1 2.5.4zm-2.5-4l2.7-1.8-2.4-3.6-1.8 1.2v3.5c.6 0 1.1.1 1.5.7zm.1-5.6l-1.5-2.4v3.4zm-.6 7l-.8-1.2h-.1v2.2c.1-.3.4-.7.9-1zm1.8 6s-.5-1.1.9-2l-.8-1.2s-1.5 1.1-2.4-.3l-.4.3v5.1l2.7-1.9zm-.1 5.8l2.7-1.8s-.5-1.1.9-2l-.8-1.2s-1.5 1.1-2.4-.3l-2.7 1.8 2.3 3.5zm2.6 3.9l2.7-1.8s-.5-1.1.9-2l-.8-1.2s-1.5 1.1-2.4-.3l-2.7 1.8 2.3 3.5zm2.9-1.4l-2.7 1.8 1.2 1.9 4.3-2.7-.4-.6c.1 0-1.4 1-2.4-.4z"/><path fill="#4E0910" d="M103.9 201.4c-.5.2-.8.3-.8.3l-.3-.8-.3.2c-4.1 3.4-2.7 10.7-2.8 18.3-.1 5.8-3.1 9-4.8 10.4l.6 1.6s-2.2 4.1-7.5 3.1l-.2-.5-8.9 4 .2-1.1c-.8 2.7-1.8 5.4-2.9 8.1 15.9 7.1 33.4 11 51.9 11v-16.8l-24.2-37.8z"/><path fill="#4E0910" d="M109.4 181.1s-11 7.1-21.1 7.3c-1.4 0-2.8-.1-4.1-.3v.1c.1 1.3 1.6 17.3-2.2 36.6l1.8-1.1-.1-.3s-.2-5.3 6.7-5.1l.4 1c2.7-3.8-.1-12.3 1.4-19.4 1.2-5.7 4.5-7.9 6.3-8.7l-.5-1.1s1.2-.6 2.8-1.2l.1-.9 4.6-1.8 2 1.7 2.4-1.3L128 216v-17s-8.4-11.2-18.6-17.9zm-15.8 50.3l-3.9 1.8c1-.2 2.5-.6 3.9-1.8z"/><path fill="#4E0910" d="M89.5 220.4s-3.2-1.1-4.6 2.7l4.6-2.7z"/><path fill="#333237" d="M109.9 186.5l-2.4 1.3.8.6c1 .4 1.9 1.1 2.6 2.2l.9.8c1.2.5 2 1.7 2 3.1 0 .4-.1.9-.2 1.2l1 1.5-2.8 1.7c-.9-1.4-2.4-.4-2.4-.4l-.3-.4c-.3.2-.6.5-.9.7.9.9 2.1 0 2.1 0l.8 1.2c-1.4.9-.9 2-.9 2l-2.8 1.7-2.1-3.3c-.5.3-1 .5-1.4.7l24.1 37.8V236l-2.1-3.4 2.1-1.3v-.6l-2.5 1.6-2.3-3.7 2.8-1.7c.6 1 1.5.8 2 .6v-1.3c-.5.1-.8.3-.8.3l-.8-1.2c1.4-.9.9-2 .9-2l.7-.5v-.4l-.9.6c-.9-1.4-2.4-.4-2.4-.4l-.8-1.2c1.4-.9.9-2 .9-2l2.8-1.7.4.7V216l-18.1-29.5zm10.6 28.7l.8 1.2c-1.4.9-.9 2-.9 2l-2.8 1.7-2.3-3.7 2.8-1.7c.9 1.5 2.4.5 2.4.5zm2.6 4.2l.8 1.2c-1.4.9-.9 2-.9 2l-2.8 1.7-2.3-3.7 2.8-1.7c.9 1.5 2.4.5 2.4.5zm-12.8-10.9l2.8-1.7c.9 1.4 2.4.4 2.4.4l.8 1.2c-1.4.9-.9 2-.9 2l-2.8 1.7-2.3-3.6zm4-1.8l-.8-1.2c1.4-.9.9-2 .9-2l2.8-1.7 2.3 3.7-2.8 1.7c-.9-1.5-2.4-.5-2.4-.5zm7.8 2.7l-2.8 1.7c-.9-1.4-2.4-.4-2.4-.4l-.8-1.2c1.4-.9.9-2 .9-2l2.8-1.7 2.3 3.6zm-9.3 3.2l2.8-1.7c.9 1.4 2.4.4 2.4.4l.8 1.2c-1.4.9-.9 2-.9 2l-2.8 1.7-2.3-3.6zm6.7 2.2l-.8-1.2c1.4-.9.9-2 .9-2l2.8-1.7 2.3 3.7-2.8 1.7c-.8-1.5-2.4-.5-2.4-.5zm-7.6-15.4l2.8-1.7 2.3 3.7-2.8 1.7c-.9-1.4-2.4-.4-2.4-.4l-.8-1.2c1.4-1 .9-2.1.9-2.1zm-1.5 3.4c.9 1.4 2.4.4 2.4.4l.8 1.2c-1.4.9-.9 2-.9 2l-2.8 1.7-2.3-3.7 2.8-1.6zm15.3 24l-2.8 1.7-2.3-3.7 2.8-1.7c.9 1.4 2.4.4 2.4.4l.8 1.2c-1.5 1-.9 2.1-.9 2.1zm-1.1-7.5c-.9-1.4-2.4-.4-2.4-.4l-.8-1.2c1.4-.9.9-2 .9-2l2.8-1.7 2.3 3.7-2.8 1.6z"/><path fill="#727175" d="M107.4 204.1l2.8-1.7s-.5-1.1.9-2l-.8-1.2s-1.2.8-2.1 0c-1 .7-2 1.3-2.8 1.7l2 3.2zm2.6 4.1l2.8-1.7s-.5-1.1.9-2l-.8-1.2s-1.5 1-2.4-.4l-2.8 1.7 2.3 3.6zm2.6 4l2.8-1.7s-.5-1.1.9-2l-.8-1.2s-1.5 1-2.4-.4l-2.8 1.7 2.3 3.6zm2.5 4l2.8-1.7s-.5-1.1.9-2l-.8-1.2s-1.5 1-2.4-.4l-2.8 1.7 2.3 3.6zm.2.3l2.3 3.7 2.8-1.7s-.5-1.1.9-2l-.8-1.2s-1.5 1-2.4-.4l-2.8 1.6zm5.4 2.5l-2.8 1.7 2.3 3.7 2.8-1.7s-.5-1.1.9-2l-.8-1.2c0-.1-1.5.9-2.4-.5zm5.1 4.5s-1.5 1-2.4-.4l-2.8 1.7 2.3 3.7 2.8-1.7s-.5-1.1.9-2l-.8-1.3zm2.2 7.2v-2.9c-.5.2-1.4.4-2-.6l-2.8 1.7 2.3 3.7 2.5-1.6v-.3zm0 .9l-2.1 1.4 2.1 3.4v-.5zm-2.9-17.6l-2.8 1.7s.5 1.1-.9 2l.8 1.2s1.5-1 2.4.4l2.8-1.7-2.3-3.6zm-.4-.5l-2.3-3.7-2.8 1.7s.5 1.1-.9 2l.8 1.2s1.5-1 2.4.4l2.8-1.6zm-4.9-7.8l-2.8 1.7s.5 1.1-.9 2l.8 1.2s1.5-1 2.4.4l2.8-1.7-2.3-3.6zm-.4-.3l-2.3-3.7-2.8 1.7s.5 1.1-.9 2l.8 1.2s1.5-1 2.4.4l2.8-1.6zm-5.2-2.3l2.8-1.7-2.3-3.7-2.8 1.7s.5 1.1-.9 2l.8 1.2c0 .1 1.5-1 2.4.5zm-3.9-5.1c-.3 0-.6 0-.9-.1l-.4.4.3.4s1.5-1 2.4.4l2.8-1.7-1-1.5c-.5 1.2-1.7 2.1-3.2 2.1zm17 25.6s.5 1.1-.9 2l.8 1.2s.4-.2.8-.3v-3.4l-.7.5zm.7-4.3v-.7l-.4-.7-2.8 1.7s.5 1.1-.9 2l.8 1.2s1.5-1 2.4.4l.9-.6v-3.3z"/><path fill="#75452D" d="M99.6 198.8l.5-3.9-1.6-3.7c-1.8.8-5.1 3-6.3 8.7-1.5 7 1.3 15.5-1.4 19.4l4 10.6c1.7-1.3 4.7-4.5 4.8-10.4.1-7.6-1.3-15 2.8-18.3l-2.8-2.4z"/><path fill="#352918" d="M110.8 190.7c-.7-1.1-1.6-1.8-2.6-2.2l2.6 2.2zm-5.5 10.1c.9-.4 1.9-1 2.8-1.7.3-.2.6-.5.9-.7l.4-.4h-.1l-6.6 3.1.3.8s.3-.1.8-.3c.5-.4.9-.6 1.5-.8zm1.6-6.2c0-1.2.6-2.2 1.5-2.8l-3.9-2.9-.9 9.1 3.9-1.7c-.4-.5-.6-1.1-.6-1.7zm-6.8.2l.7-6c-1.7.6-2.8 1.2-2.8 1.2l.5 1.1 1.6 3.7z"/><path fill="#534422" d="M109.4 197.9c-.9-.2-1.6-.8-2-1.6l-3.9 1.7.9-9.1 3.9 2.9c.6-.4 1.2-.6 2-.6.5 0 1 .1 1.4.3l-.9-.8-2.6-2.2-.8-.6-2-1.7-4.6 1.8-.1.9-.7 6-.5 3.9 2.8 2.4.3-.2 6.8-3.1z"/><path fill="#62512C" d="M110.3 191.2c-.7 0-1.4.2-2 .6-.9.6-1.5 1.6-1.5 2.8 0 .6.2 1.2.5 1.7.4.8 1.2 1.3 2 1.6h.1c.3.1.6.1.9.1 1.5 0 2.7-.9 3.2-2.2.1-.4.2-.8.2-1.2 0-1.4-.8-2.6-2-3.1-.4-.2-.9-.3-1.4-.3z"/><path fill="#261910" d="M84.9 223.1c0 .1-.1.2-.1.3l3.7 9.9s.5 0 1.2-.1l3.9-1.8-4.1-11-4.6 2.7zm-1.1.6l-1.8 1.1-1.2.7-1.1 7-.7 4.4-.2 1.1 8.9-3.9z"/><path fill="#8F7B5E" d="M90.4 218.2c-6.9-.2-6.7 5.1-6.7 5.1l.1.3 3.9 10.4.2.5c5.3 1 7.5-3.1 7.5-3.1l-.6-1.6-4-10.6-.4-1zm-.7 15c-.7.1-1.2.1-1.2.1l-3.7-9.9c0-.1.1-.2.1-.3 1.4-3.8 4.6-2.7 4.6-2.7l4.1 11c-1.4 1.2-2.9 1.6-3.9 1.8z"/></svg>