<svg xmlns="http://www.w3.org/2000/svg" width="256" height="256"><circle fill="#B1B3B5" cx="128" cy="128" r="128"/><path fill="#573F0D" d="M81.9 228.7c1-.8-2.1-2.4-1.1-2.9s9.1-1.6 9.1-1.6l8.1 3-5.4-3.5s-.6-3.6 2.1-5.3 4.2 1.4 4.2 1.4c3.1 1.7 8 2.2 8 2.2l-5.9-2.9.7-2.5c-2-2.2-4.5-5-4.5-5l2.4-3.6h3.8l2.9-1.9 1.2-3.4 1.4-1.9-1.9-3.5h-3.1l.2-6.8s-1.4-6.7-1.4-7.7v-1s-.5-1.7-.2-3.1c.2-1.4 1-3.2 1-3.2l2.4-3.9-.5.3-4.8 2.6-5.1 5.1-1.3 1.6c-1.3 1.6-1.9.6-8 2.6-6.1 1.9-14.7 4.5-14.7 4.5l-.4 2.1C52.8 188.3 47 202.7 46.4 204c-.6 1.3-2.6 8-2.6 13.1 0 1.8.3 4.9.8 8 3.5 3 7.2 5.9 11 8.5.3-.3.5-.5.9-.8 3.6-3.4.5-1.2 3.1-7.4s2.4-4.6 2.6-5.6c.2-1.1-.2-7.3 0-8.7.2-1.4 6.5-8.7 6.5-8.7s-.5 2.6-.5 3.4-1.7 5.5-1.7 5.3v8.2c0 1.6 1.9-1.1 2.9-2.4s1.7.1 2.6 0c1-.1 4.8-7.2 4.8-7.2l-1.7 4.7s.3 1.7 0 2.4c-.2.7 2.4-2.2 2.4-2.2s1-2.9 1.2-4.3c.2-1.4 6-7.9 6-7.9v1.2l-1.7 2.8-2.4 4 17.7-7.9s-10.5 12.7-11.5 13.2-4.8 3.7-4.8 3.7l-6.5 1.6s-5 1.2-3.6 3.4 2.6 1.2 4.6 2.4c1.9 1.2 2.6 2.6 4.1 4.8 1.4 2.2 1.2 1.9 1.4 5 .2 2.2 2.1 8.8 3.1 12.3 1.3.4 2.5.9 3.8 1.3-2.6-6.1-5.1-14.1-5.1-14.1s-2.9-6.6-1.9-7.4z"/><path fill="#573F0D" d="M123.1 182v4.8l-3.8 4.3v-7.2s2.6-1.2 0-2.7c-2.6-1.4-4.3-4.5-4.3-4.5s.2-2.4-1.4 0c-1.7 2.4-2.2 3.8-2.2 3.8v2.8s2.2 2 0 2.4c-2.2.5-2.4 1-2.2-1.2.2-2.2-.9-3.6-.1-4.6s2.7-5.2.8-3.3-3.6 3.1-3.6 3.1l-1.4 3.5v5.8l2.4 3.6 1.4 4.6s3.8 1 3.4 2.2c-.5 1.2-.7 3.4-.7 3.4l4.1 5.7h6s-3.8 1.7-6.2 1.4-4.1-2.6-4.1-2.6-2.4-2.2-2.2-.5c.2 1.7-6.9 5-6.9 5v2.9s0 .1.1.2l.1-.4s4.8 0 6.9.3 2.2-.7 4.6 0 10.8 8.4 10.8 8.4v4.1l2.2-4.1h1.1v-46l-4.8 4.8zm-44.3 58c1.2-1.8-2.2-4.4-2.2-4.4l-1-2.4-1-3.4s-1.7 0-4.1 1 0 0-2.3 1.2-.4 1.7 0 3.8c.4 2.2-.8 1.4 0 2.9s-.6 1.4 0 2.2c.1.1.2.3.2.5 2.8 1.5 5.6 2.8 8.5 4.1-.2-.4-.4-.7-.4-.9-.1-.8 1.1-2.7 2.3-4.6zm-14.2-11.5c0-1-1.4-1.4-1.4-1.4l-1.4 2.2-3.1 5s-.3.4-.7.9c2 1.3 4 2.5 6 3.7.4-1.2.6-2.2.7-2.7.2-1.3-.1-6.8-.1-7.7z"/><path fill="#422E00" d="M102.5 178.9c-.2 1.4.2 3.1.2 3.1v1c0 1 1.4 7.7 1.4 7.7l-.2 6.8h3.1l1.9 3.5-1.4 1.9-1.2 3.4-2.9 1.9h-3.8l-2.4 3.6s2.4 2.8 4.5 5l.5-1.7c-.1-.1-.1-.2-.1-.2V212s7.2-3.4 6.9-5c-.2-1.7 2.2.5 2.2.5s1.7 2.4 4.1 2.6 6.2-1.4 6.2-1.4h-6l-4.1-5.7s.2-2.2.7-3.4c.5-1.2-3.4-2.2-3.4-2.2l-1.4-4.6-2.4-3.6v-5.8l1.4-3.5s1.7-1.2 3.6-3.1 0 2.4-.8 3.3.3 2.4.1 4.6c-.2 2.2 0 1.7 2.2 1.2s0-2.4 0-2.4v-2.8s.5-1.4 2.2-3.8c1.7-2.4 1.4 0 1.4 0s1.7 3.1 4.3 4.5c2.6 1.4 0 2.7 0 2.7v7.2l3.8-4.3v-5l4.7-4.8v-.4c-8.7 0-15.4-3-20.5-7.2l-1.4 2.2-2.4 3.9s-.8 1.7-1 3.2zm-21.8 52.4c-1.4-2.2-2.2-3.6-4.1-4.8-1.9-1.2-3.1-.2-4.6-2.4-1.4-2.2 3.6-3.4 3.6-3.4l6.5-1.6s3.8-3.2 4.8-3.7 11.5-13.2 11.5-13.2l-17.7 7.9 2.4-4 1.7-2.8v-1.2s-5.7 6.5-6 7.9c-.2 1.4-1.2 4.3-1.2 4.3s-2.6 2.9-2.4 2.2c.2-.7 0-2.4 0-2.4l1.7-4.7s-3.8 7.1-4.8 7.2c-1 .1-1.7-1.3-2.6 0s-2.9 3.9-2.9 2.4v-8.2c0 .2 1.7-4.6 1.7-5.3s.5-3.4.5-3.4-6.2 7.3-6.5 8.7c-.2 1.4.2 7.6 0 8.7-.2 1.1 0-.6-2.6 5.6-2.6 6.2.5 4.1-3.1 7.4-.3.3-.6.6-.9.8.8.5 1.5 1 2.3 1.5.4-.5.7-.9.7-.9l3.1-5 1.4-2.2s1.4.5 1.4 1.4.2 6.5 0 7.7c-.1.5-.4 1.5-.7 2.7 1.5.9 3.1 1.7 4.7 2.6 0-.2-.1-.3-.2-.5-.6-.7.8-.7 0-2.2s.4-.7 0-2.9-2.3-2.6 0-3.8c2.3-1.2-.1-.2 2.3-1.2s4.1-1 4.1-1l1 3.4 1 2.4s3.4 2.6 2.2 4.4c-1.2 1.8-2.4 3.8-2.2 4.5.1.2.2.6.4.9 2.7 1.2 5.4 2.2 8.2 3.2-1.1-3.5-3-10.1-3.1-12.3-.4-2.8-.2-2.5-1.6-4.7z"/><path fill="#6F511C" d="M126.7 223.2l-2.2 4.1v-4.1s-8.4-7.7-10.8-8.4-2.4.2-4.6 0-6.9-.3-6.9-.3l-.1.4-.5 1.7-.7 2.5 5.9 2.9s-4.9-.6-8-2.2c0 0-1.6-3.1-4.2-1.4s-2.1 5.3-2.1 5.3l5.4 3.5-8.1-3s-8.1 1.1-9.1 1.6 2.1 2 1.1 2.9c-1 .8 2.1 7.2 2.1 7.2s2.5 8 5.1 14.1c12.2 3.9 25.2 6 38.7 6v-32.8h-1zm67.5 6l-1.4-2.2s-1.4.5-1.4 1.4-.2 6.5 0 7.7c.1.5.4 1.5.7 2.7 2-1.2 4-2.4 6-3.7-.4-.5-.7-.9-.7-.9l-3.2-5z"/><path fill="#6F511C" d="M209.6 204c-.6-1.3-6.4-15.6-24.8-13.6l-.4-2.1s-8.6-2.6-14.7-4.5-6.7-1-8-2.6l-1.3-1.6-5.1-5.1-4.8-2.6-.5-.3 2.4 3.9s.7 1.8 1 3.2c.2 1.4-.2 3.1-.2 3.1v1c0 1-1.4 7.7-1.4 7.7l.2 6.8h-.4c2.4 2.5 9.4 10 12.4 12.6-3.1-3.6-6.5-7.7-6.5-7.7l17.7 7.9-2.4-4-1.7-2.8v-1.2s5.7 6.5 6 7.9c.2 1.4 1.2 4.3 1.2 4.3s2.6 2.9 2.4 2.2c-.2-.7 0-2.4 0-2.4l-1.7-4.7s3.8 7.1 4.8 7.2c1 .1 1.7-1.3 2.6 0s2.9 3.9 2.9 2.4v-8.2c0 .2-1.7-4.6-1.7-5.3s-.5-3.4-.5-3.4 6.2 7.3 6.5 8.7c.2 1.4-.2 7.6 0 8.7.2 1.1 0-.6 2.6 5.6 2.6 6.2-.5 4.1 3.1 7.4.3.3.6.6.9.8 3.8-2.6 7.5-5.5 11-8.5.4-3.1.8-6.2.8-8 .2-4.9-1.7-11.6-2.4-12.8zm-21.9 34.8c.8-1.4-.4-.7 0-2.9s2.3-2.6 0-3.8c-2.3-1.2.1-.2-2.3-1.2s-4.1-1-4.1-1l-1 3.4-1 2.4s-3.4 2.6-2.2 4.4c1.2 1.8 2.4 3.8 2.2 4.5-.1.2-.2.6-.4.9 2.9-1.3 5.7-2.6 8.5-4.1 0-.2.1-.3.2-.5.7-.7-.8-.7.1-2.1zm-18.1-22.9c-.2-.2-.4-.3-.5-.3-.1-.1-.4-.4-.9-.8L158 227.3l11.6-11.4z"/><path fill="#6F511C" d="M140.8 210c-2.4.2-6.2-1.4-6.2-1.4h6l4.1-5.7s-.2-2.2-.7-3.4c-.5-1.2 3.4-2.2 3.4-2.2l1.4-4.6 2.4-3.6v-5.8l-1.4-3.5s-1.7-1.2-3.6-3.1 0 2.4.8 3.3-.3 2.4-.1 4.6c.2 2.2 0 1.7-2.2 1.2s0-2.4 0-2.4v-2.8s-.5-1.4-2.2-3.8c-1.7-2.4-1.4 0-1.4 0s-1.7 3.1-4.3 4.5c-2.6 1.4 0 2.7 0 2.7v7.2l-3.8-4.3V182l-5.1-5.2v46.4h1.5l2.2 4.1v-4.1s8.4-7.7 10.8-8.4 2.4.2 4.6 0 6.9-.3 6.9-.3v-2.7c-1.2-.6-6.9-3.4-6.7-4.9v-.3l-.4-.3c-.6.1-1.7 1.1-1.7 1.1s-1.9 2.4-4.3 2.6z"/><path fill="#6F511C" d="M147 200.9l.4.6c.6-1.5 1.4-3 2.3-4h-.7l-2 3.4zm21.1 48.7l2.7-.9c.6-2 1.4-4.8 2.1-7.4-1.4 2.5-3.2 5.5-4.8 8.3z"/><path fill="#523C0A" d="M127.8 176.8l5.1 5.2v4.8l3.8 4.3v-7.2s-2.6-1.2 0-2.7c2.6-1.4 4.3-4.5 4.3-4.5s-.2-2.4 1.4 0c1.7 2.4 2.2 3.8 2.2 3.8v2.8s-2.2 2 0 2.4c2.2.5 2.4 1 2.2-1.2-.2-2.2.9-3.6.1-4.6s-2.7-5.2-.8-3.3 3.6 3.1 3.6 3.1l1.4 3.5v5.8l-2.4 3.6-1.4 4.6s-3.8 1-3.4 2.2c.5 1.2.7 3.4.7 3.4l-4.1 5.7h-6s3.8 1.7 6.2 1.4 4.1-2.6 4.1-2.6 1.1-1 1.7-1.1l-.5-.3s.5-2.2 1.4-4.5l-.4-.6 1.9-3.5h.9c.3-.4.7-.6 1.1-.8l.8.8h.4l-.2-6.8s1.4-6.7 1.4-7.7v-1s.5-1.7.2-3.1c-.2-1.4-1-3.2-1-3.2l-2.4-3.9-.5-.9-.1.1c-6.7 6.4-21.7 6-21.7 6zm19.2 30.1c-.2 1.5 5.5 4.3 6.7 4.9v-.8l-6.7-4.4c.1.1.1.2 0 .3z"/><path fill="#3E2B00" d="M76.8 47.2C77.4 49.4 80 53 80 53l2.6-1.3h3.5V40.6l2.6-.7 1.6.6c1.6.6 0-1.9 0-2.9s1.3-2.9 2.5-3.8c1.3-1 1-1.6.2-2.6-.5-.6 0-1 .2-2.2-.8.2-1.6.5-2.9.2-3.1-.7-3.8-.2-4.6 0-.7.2-1.4 1.2-3.4 2.9s-1 3.4-2.4 5-1.4-1.9-.5-5.5c1-3.6 5.7-4.3 3.1-4.3s-4.6.2-7.2 1.4c-.5.2-.9.4-1.2.7.4 4 .5 8.1-.6 9.6-1.2 1.6-1.8 3.1-2.1 4.2l1.6.8s3.2.9 3.8 3.2zm16.8-24.5c1.4.5 3 1.4 4.6 2.6.6-.7 1.1-1.8 1.6-2.6 1-1.5 1-.4 1.6-1.7.6-1.3 1.9-1.6 1.9-1.6s3.2-1.3 5.4-1.6 0-3.4 0-3.4.6-.7 1.9-4.2l2.9-1.6 1.6 4.3v-2.1c-.9-2.4-2.4-6.2-2.4-6.2l-5-2.2h-2.2v7.8l-2.4 8.2s1.2-9.1 1.2-12.7c0-1.2-.1-2.4-.3-3.5-5 .9-9.9 2.2-14.6 3.7l2.9 16.3c.4.2.8.3 1.3.5zm-20-2.4c-.2.8-.1 2.3.1 4.1 2.2-1.5 4.3-2.9 5.5-3.4 2.6-1.2 9.6 0 9.6 0l2.7.9c-.7-1.8-1.3-3.5-1.3-3.5s-2.5-6.3-1.4-8.2c.6-1 .1-2.7-.5-4-5 1.6-9.8 3.5-14.5 5.7.1 2.4.2 6.5-.2 8.4z"/><path fill="#4C3604" d="M190.4 42.9h-.4c.1.1.3.2.4.3v-.3zm-16-2.4c-.2.2-.6 1.9-1 3.7 1 .2 2.8.3 4.6-.3 2.2-.7 1.4-5.3 1.4-5.3l1.9-3.1.1.2c.2-.3.3-.4.3-.4v-3.1l-2.6-2.9-1-1.3c-.6 1.6-1.2 3.4-1.4 4.4-.2 1.6-1.8 7.6-2.3 8.1zm-.5-9.1c.3-1.6.7-2.5 1-3v-3.2s-2.6-1.4-5.7 2.2 0 0-2.6 2.2 0 0-1 4.8c-.1.4-.1.7-.2 1 1.5 2.2 3.3 5.2 3.3 5.2s4.2-4.4 5.2-9.2zm-10.5 17c.2-.9.3-1.7.4-2.4.3-1.7-.4-3.9-1.1-6.5-.3.2-.5.4-.9.8-.8.8-2.6-.5-4.9-2.6 2.1 3.3 5.4 10.8 5.4 10.8s.5-.1 1.1-.1zm-31.7-30.7s1.2 3.8 2.9 7.2 2.4 2.2 2.6 2.9c.2.7 1.7 1 4.1 1.2.7.1 1.1 0 1.3-.2l.7-1.5c.1-.4.3-.9.6-1.4.1-.2.2-.3.3-.4-4.6-3.9-1.5-2.8-1.5-2.8s-1.2-3.7-2.2-4.4c-1-.7-1.2 1.2-2.2 1.9-1 .7-.9 2.1-3 2.4-2.2.3 0 0-.3-3.6s1.2-6.5 1.2-6.5l-1.7-2.4-2.4 4.3V7.9c-1.7-1.4-4.4-5.5-4.4-5.5v12l2.3 1.2 1.7 2.1z"/><path fill="#664B17" d="M144.1 12.7c1.6 2.9.8 3.8 1.5 6.5.2.8 0 2.9-.4 5.4.5-.3 1.2-.5 2.6-1.4 0 0 1.5 2.6 2.5 4.2.5-1.8 1.4-2.7 2.1-3.7 1.2-1.7 2.2-9.1 2.9-14.1.3-2 .9-4.2 1.4-6.4-1.2-.3-2.5-.5-3.7-.8-.4 1.5-.8 2.9-1 4-1 4.1-1.4 10.1-1.7 11.5s-3.4-4.6-4.5-6.2c-1.1-1.7-2-7.2-3-9.3-.2-.4-.4-1-.7-1.6l-3-.3c.5 1.3 1.1 2.7 1.6 4.1 1.3 3.5 1.8 5.2 3.4 8.1zM163.8 46c-.1.7-.3 1.5-.4 2.4h1.9c.6 0 .9 0 1.2-.1l2-1.1c1-1.2 2.5-3.3 2.5-3.3s1.2 0 1.9.2c.1 0 .3.1.5.1.4-1.8.8-3.5 1-3.7.5-.5 2.2-6.5 2.4-8.1.1-1 .8-2.8 1.4-4.4.4-1.1.8-2.1 1-2.5.5-1.2 1.7-6.5 0-6.3-1.7.2-2.9 3.2-3.1 6.3-.2 2-.6 1.9-1.2 3-.3.5-.6 1.4-1 3-1 4.8-5.3 9.1-5.3 9.1s-1.8-3-3.3-5.2c-.5-.8-1-1.5-1.4-1.9-1.3-1.7-.3-8.9 0-11.3s-2.9-9.3-3.4-11c-.5-1.7-.2-4.6-2.4-3.6s.2 4.3 1.2 8.1 1.9 12.9 2.4 18.2c.2 2.1.6 4 1.1 5.7.7 2.5 1.3 4.6 1 6.4z"/><path fill="#876427" d="M127.8 40.6v136.1s15 .4 21.7-5.8l.1-.1c6.6-6.2 10.5-9.3 15-21.7 4.6-12.5 8.9-16.8 9.8-25.4s4.1-13.7 5.3-16.5c1.2-2.9 3.8-6 1.9-11.5 0 0 2.2-8.1 3.8-14.8 1.7-6.7 5.5-17.7 5.5-19.2s-2.2-2.6-1.7-4.1c.5-1.4.2-7.4 1.7-9.1 1.4-1.7 1-4.1 0-5-.1-.1-.3-.3-.5-.4-.1-.1-.3-.2-.4-.3-.9-.7-2-1.2-2-1.2s2.2-4.3 1.4-5c-.7-.7-3.6-1.4-3.6-1.4l-3.1 2.2-1.3-1.7-.1-.2-1.9 3.1s.7 4.6-1.4 5.3c-1.8.6-3.6.5-4.6.3-.2 0-.3-.1-.5-.1-.7-.2-1.9-.2-1.9-.2s-1.5 2.2-2.5 3.3c0 0 1 12.7 1 13.9 0 1.2-.2 10.1-.2 10.1s1-3.6 1-5.7c0-2.2 2.4-2.9 2.9-4.3s2.8-3.1 2.8-3.1l-.2 3.1s-1 1.9-2.6 3.8-.8 1.7-1.5 4.6c-.7 2.9-2.4 5.5-2.4 5.5s1.4-1.9 2.9-2.9c1.4-1 4.3-6.7 4.3-6.7l3.4-8.4s-1 6-1.9 8.9c-1 2.9-8.1 11.7-8.1 11.7s-.3 2.9 0 4.8c.2 1.9-3.2 11.7-3.2 11.7l1.6-8.1s-.7-3.6-1.2-4.8c-.5-1.2-.5-4.1 0-6.2.5-2.2 1.2-7.5 1.2-7.5v-3.5l-1.6-15.7c-.3.1-.7.1-1.2.1h-2.9s-3.3-7.4-5.4-10.8c-.3-.5-.6-.9-.8-1.2-1.9-2.2-3.6-4.1-3.8-5-.2-1-.7-1.9-1.7-3.4-.1-.2-.3-.4-.4-.6-1-1.6-2.5-4.2-2.5-4.2-1.4.8-2 1-2.6 1.4-.3.2-.6.4-.9.9-.1.1-.2.3-.3.4l3 16.3-1.4 11.5-1.7 12.2s.7 6.5.2 12.2c-.5 5.7 0 0 0 1.7s-4.3 23.2-4.3 23.2l2.6-37.6s3.4-19.6 3.1-23c-.2-3.4-2.9-13.6-2.9-13.6-.3.2-.7.3-1.3.2-2.4-.2-3.8-.5-4.1-1.2-.2-.7-1 .5-2.6-2.9s-2.9-7.2-2.9-7.2l-1.7-2.2-2.3-1.2v26.2z"/><path fill="#876427" d="M144 25.9c-.3.5-.5 1-.6 1.4l.6-1.4z"/><path fill="#5B4210" d="M142.7 28.8s2.6 10.3 2.9 13.6c.2 3.4-3.1 23-3.1 23l-2.6 37.6s4.3-21.6 4.3-23.2-.5 4.1 0-1.7c.5-5.7-.2-12.2-.2-12.2l1.7-12.2 1.4-11.5-3-16.3-.6 1.4-.8 1.5zm23.8 19.5l1.6 15.7v3.5s-.7 5.4-1.2 7.5c-.5 2.2-.5 5 0 6.2.5 1.2 1.2 4.8 1.2 4.8l-1.6 8.1s3.5-9.8 3.2-11.7c-.2-1.9 0-4.8 0-4.8s7.2-8.9 8.1-11.7c1-2.9 1.9-8.9 1.9-8.9l-3.4 8.4s-2.9 5.7-4.3 6.7-2.9 2.9-2.9 2.9 1.7-2.6 2.4-5.5-.1-2.6 1.5-4.6c1.6-1.9 2.6-3.8 2.6-3.8l.2-3.1s-2.3 1.7-2.8 3.1c-.5 1.4-2.9 2.2-2.9 4.3 0 2.2-1 5.7-1 5.7s.2-8.9.2-10.1c0-1.2-1-13.9-1-13.9l-1.8 1.2z"/><path fill="#65662B" d="M82.6 27.3c2.6 0-2.2.7-3.1 4.3-1 3.6-1 7.2.5 5.5s.5-3.4 2.4-5 2.6-2.6 3.4-2.9c.7-.2 1.4-.7 4.6 0 1.3.3 2.1 0 2.9-.2.1-.7.2-1.7-.1-3.2-.6-4.1 1.6-.7 3.2 0 .7.3 1.4 0 1.9-.6-1.6-1.1-3.2-2.1-4.6-2.6-.5-.2-.9-.3-1.3-.4-.3-.1-.6-.2-.8-.3l-2.7-.9s-6.9-1.2-9.6 0c-1.2.5-3.4 2-5.5 3.4-2.6 1.8-5.3 3.6-6.2 4-1.7.7-3 .7-1.2 2.1 1.8 1.4 5.5-1.1 5.5-1.1s-7.9 5.3-7.7 7.2c.2 1.9 1.2 2.4 2.2 1.2 1-1.2 1.4-3.8 4.3-5.5 2.3-1.4 2.3-2.1 3.6-2.9.3-.2.7-.4 1.2-.7 2.5-1.2 4.5-1.4 7.1-1.4z"/><path fill="#6F511C" d="M127.8 176.8V14.4s-.9-.9-2-2.2c0 0-2.1 32.9-1.1 36.8 1.1 3.9 1.1 12 1.1 12l-2.1 3.4 2.1 26.2s-5.1-32.3-5.1-35.9c0 0 3.3-1.5 2.6-3.6s1.1-3.9 0-5.1c-1.1-1.2-2.6-3.9-2.6-3.9s3.8-10.3 3.5-31.9c-.5-.7-1-1.3-1.3-1.9-1.3-2.2-3.5-3.8-3.5-3.8h-4.2v8.3l-1.6-4.3-2.9 1.6c-1.3 3.5-1.9 4.2-1.9 4.2s2.2 3.1 0 3.4-5.4 1.6-5.4 1.6-1.3.3-1.9 1.6c-.6 1.3-.6.2-1.6 1.7-.5.8-1 1.9-1.6 2.6-.5.6-1.1 1-1.9.6-1.6-.7-3.8-4.1-3.2 0 .2 1.5.2 2.5.1 3.2-.2 1.2-.6 1.6-.2 2.2.8 1 1.1 1.6-.2 2.6s-2.5 2.9-2.5 3.8c0 1 1.6 3.5 0 2.9l-1.6-.6-2.6.7 5.3 4.7s-2.2 3 0 5.2 4.8 11.8 5.3 14c.5 2.2 1.7 11 2.4 14.1.7 3.1 2.4 14.4 2.4 14.4S95 68.7 94 64.4c-1.1-4.3-.8-6.9-1.6-8.6S90.5 54 91 52.2s-2.7-1.6-1.9-5c.8-3.4-2.9-2.7-2.9-2.7v7.2h-3.5L80 52.9s-2.6-3.5-3.2-5.8S73 44 73 44l-1.6-.8-2.3-1.1-1.6 5.1s-1.3.3 0 2.6c1.3 2.2 2.9 11.2 3.8 14.7s6.1 16 6.4 21.4c.3 5.4 2.6 17.6 4.2 23s4.8 26.8 9.3 36.4c2.8 6.1 7.2 17.1 16.1 24.4 5.1 4.1 11.8 7.1 20.5 7.1z"/><path fill="#3B2800" d="M120.7 42.1s1.5 2.7 2.6 3.9c1.1 1.2-.8 3 0 5.1s-2.6 3.6-2.6 3.6c0 3.6 5.1 35.9 5.1 35.9l-2.1-26.2 2.1-3.4s0-8.1-1.1-12c-1.1-3.9 1.1-36.8 1.1-36.8l-1.7-2c.3 21.6-3.4 31.9-3.4 31.9zM89 47.2c-.8 3.4 2.4 3.3 1.9 5-.5 1.8.7 1.9 1.4 3.6s.5 4.3 1.6 8.6 7.5 28.5 7.5 28.5-1.7-11.3-2.4-14.4c-.7-3.1-1.9-12-2.4-14.1-.5-2.2-3.1-11.7-5.3-14-2.2-2.2 0-5.2 0-5.2L86 40.5v3.9c.1.1 3.8-.7 3 2.8z"/><path fill="#523C0A" d="M196.4 225.3c-2.6-6.2-2.4-4.6-2.6-5.6-.2-1.1.2-7.3 0-8.7-.2-1.4-6.5-8.7-6.5-8.7s.5 2.6.5 3.4 1.7 5.5 1.7 5.3v8.2c0 1.6-1.9-1.1-2.9-2.4s-1.7.1-2.6 0c-1-.1-4.8-7.2-4.8-7.2l1.7 4.7s-.3 1.7 0 2.4c.2.7-2.4-2.2-2.4-2.2s-1-2.9-1.2-4.3c-.2-1.4-6-7.9-6-7.9v1.2l1.7 2.8 2.4 4-17.7-7.9s3.4 4.1 6.5 7.7c.4.3.7.5.9.7 2.6 1.7 4.6 2.4 4.6 2.4l-1.3 1.6c.4.4.7.7.9.8.1.1.3.2.5.3l2.1-2s4.3 2.2 5.3 2.6c1 .5 3.8 1.9 4.8 2.8 1 .8 4.1 1.3 4.1 1.3v-.4 1.8c0 2.9 1.4 3.8 0 4.1-1.4.2-4.6 2.9-4.6 2.9s-2.4 4.6-3.4 5.3c-1 .7-2.2 1.7-2.2 1.7s-1.2 2.3-2.9 5.4c-.7 2.6-1.5 5.5-2.1 7.4 2.8-1 5.5-2.1 8.2-3.2.2-.4.4-.7.4-.9.2-.7-1-2.6-2.2-4.5-1.2-1.8 2.2-4.4 2.2-4.4l1-2.4 1-3.4s1.7 0 4.1 1 0 0 2.3 1.2.4 1.7 0 3.8c-.4 2.2.8 1.4 0 2.9s.6 1.4 0 2.2c-.1.1-.2.3-.2.5 1.6-.8 3.1-1.7 4.7-2.6-.4-1.2-.6-2.2-.7-2.7-.2-1.2 0-6.7 0-7.7s1.4-1.4 1.4-1.4l1.4 2.2 3.1 5s.3.4.7.9c.8-.5 1.5-1 2.3-1.5-.3-.3-.5-.5-.9-.8-3.8-3.6-.7-1.4-3.3-7.7z"/><path fill="none" stroke="#876427" stroke-width="0" stroke-linecap="round" stroke-linejoin="round" d="M185.8 220.6v-.4"/><path fill="#876427" d="M175.8 235.9s1.2-1 2.2-1.7c1-.7 3.4-5.3 3.4-5.3s3.1-2.6 4.6-2.9c1.4-.2 0-1.2 0-4.1v-1.4s-3.1-.5-4.1-1.3c-1-.8-3.8-2.3-4.8-2.8s-5.3-2.6-5.3-2.6l-2.1 2-11.6 11.4 10.2-12.5 1.3-1.6s-1.9-.7-4.6-2.4c-.2-.1-.5-.4-.9-.7-3-2.6-10.1-10.1-12.4-12.6l-.8-.8c-.4.2-.7.5-1.1.8-1 1-1.7 2.5-2.3 4-.9 2.3-1.4 4.5-1.4 4.5l.5.3.4.3 6.7 4.4v3.5s-4.8 0-6.9.3-2.2-.7-4.6 0-10.8 8.4-10.8 8.4v4.1l-2.2-4.1h-1.5V256h.2c14 0 27.5-2.3 40.1-6.4 1.6-2.7 3.4-5.8 4.8-8.3 1.8-3.1 3-5.4 3-5.4z"/></svg>