<svg xmlns="http://www.w3.org/2000/svg" width="256" height="256"><circle fill="#B1B3B5" cx="128" cy="128" r="128"/><path fill="#C08C76" d="M156.2 197.8c-1.4 1 0-4.8 0-4.8l-3.6 5.7-4.3 8.4.2-5.6s-1.5 7.9-2.9 13.2c-.6 2.4.3 7 1.1 10.6 7.1-14.5 12.9-29 16-37l-1.3-3c-.2 5.6-3.8 11.5-5.2 12.5zm7.9-21.9c.5 2.4-.1 7.2-.5 10.4 1-2.5 1.5-4 1.5-4s.1.2.3.4c0-2.2 0-4.6.1-7-.9-1.1-1.8-1.8-1.4.2zm-.4-24.7c1 3.7 1.7 8.7 2.2 13.3.5-8.4 1.2-16.2 1.6-19.9-.8 1.5-1.6 2.9-2.5 4.4-.4.8-.8 1.5-1.3 2.2z"/><path fill="#6A695F" d="M179.2 193.4c.2 0 .5-.1.7-.1-8.6-2.8-13.4-9-14.5-10.7-.2-.3-.3-.4-.3-.4s-.5 1.5-1.5 4c-.2 1.7-.5 3-.5 3l-.4-.8c-3.1 7.9-8.9 22.5-16 37 .6 2.7 1.3 4.9 1.3 5.3 0 1 .2 5.7.2 10.8s-2.2 11.7-2.2 11.7v-7.4s-1 4.4-4.1 9.5c7.6-.8 15-2.3 22.1-4.4 6.2-16 12.7-33 15-39.8 5-14.5.2-17.7.2-17.7z"/><path fill="#52473C" d="M155.8 13.9V13c0-3.5 0 0-1.6-6.1s0-1.3 0-3.8v-.4C145.7.9 137 0 128 0v8.4c13 0 22.9 3.3 27.8 5.5z"/><path fill="#C08C76" d="M187.3 89.7c-.4.8-.6 1.3-.6 1.3l-1 2.4s-.4 2.5-.7 5.2c.1 1.2.2 2.6-.1 4.3-.1.4-.1.7-.2 1 .2 3.1 1.2 3.3 1.2 5.7 0 2.4-1.4 4.1-2.4 5.5s-1.4 3.3-2.2 3.6c-.7.2-2.1 1.1-2.1 0-.3 0-.6-.1-.8-.3-1.1 3.9-2.7 8.7-5 13.9.4.4.9.8 1.4 1.3 5.3 5.3 9.6 1.9 9.3-2.4-.2-4.3 2.9-11.5 5.5-17.7 2.6-6.2 1.7-10.5 1.4-12.9s4.6-8.4 0-12.2l-.9-.6a4 4 0 0 1-.3.9l-2.5 1z"/><path fill="#D7A990" d="M163.6 114.5c-2.6 2.6-6 4.3-9.9 4.7 3.9-.4 7.3-2.2 9.9-4.7zm2.5-20.5zm-1 18.9c-.4.5-.8 1-1.3 1.5.4-.5.9-1 1.3-1.5zM140.4 91zm3.8-2.9zm-3.9 3zm.6 65.6s-3.2 1.3-1.9 4.2c1.3 2.9 2.9 5.1 5.1 2.9 2.2-2.2 2.9-1 3.5-4.2s-.1-1.3-2-6.7-.3-4.5-1.5-7.7c-1.3-3.2-1-4.5-2.9-5.1s-5.7-2.6-5.7-2.6l-7.5-1V155c0 .1 9.1-1.2 12.9 1.7z"/><path fill="#D7A990" d="M177.7 116.9c0-2.4.5-5.3 1.7-7.7 1.2-2.4 0-2.9 0-6.5s-.2-4.9-.2-4.9-1.6-1.7-1.5-3.2c-.9-.4-1.9-.9-2-1.2-.2-.7-1.2 0-.5-1.9s1-2.1 1-3.9c0-1.8 1.4-2.3 0-5.6-1.4-3.4-1.4-.6-2.2-3.7-.4-1.6-.9-3.2-1.3-4.4-.5-.3-1.1-.6-1.6-1.3-1.6-2.2 0-4.1 0-4.1s-.6-1.2-.1-8.1c.5-6.9-1.4-3.1-2.4-6s.5-3.4 0-5.7c-.5-2.4-3.6-4.8-3.6-4.8-6.2-6.2-35-10.5-37.1-10.5v61.3c4.3 0 6.2 1.6 7 2.5 2.3-7.2 9.1-12.3 17-12.3 9.9 0 17.9 8 17.9 17.9 0 9.9-8 17.9-17.9 17.9-9.9 0-17.9-8-17.9-17.9 0-.5 0-.9.1-1.3-.3-4.9-6.2-4.9-6.2-4.9v30.2s7.5.3 10.1-1.6c0 0 6.1 3.2 8.9 4.8 2.9 1.6 10.5 7 12.5 11.5.1.3.3.7.4 1 0 0 .4 1.2 2.3 4.7.6 1.1 1.1 2.5 1.5 4.2.5-.7.9-1.4 1.4-2.2.9-1.5 1.7-3 2.5-4.4 2.3-4.3 4.3-8.4 6-12.3 2.2-5.3 3.9-10 5-13.9-.5-.5-.8-1-.8-1.7zm-19-32.1c-4.8-2.1-6.4-.6-9.7-.2-3.4.5-9.1 4-9.1 4s-2.7-.2-2.9-1.1c-.2-1-2.4-5.1 0-5.1s5.9-2.2 10.1-3.7 10.7.3 12.6 1 4 1.4 3.8 2.7c-.2 1.3 0 1.6 0 1.6l2.2 3.5s-2.2-.6-7-2.7z"/><path fill="#453B31" d="M147 129.9c-2.9-1.6-8.9-4.8-8.9-4.8-2.6 1.9-10.1 1.6-10.1 1.6v9.9l7.5 1s3.8 1.9 5.7 2.6 1.6 1.9 2.9 5.1c1.3 3.2-.3 2.2 1.5 7.7s2.6 3.5 2 6.7-1.3 1.9-3.5 4.2c-2.2 2.2-3.8 0-5.1-2.9-1.3-2.9 1.9-4.2 1.9-4.2-3.8-2.9-12.9-1.6-12.9-1.6V198l1.8-3.6v5.7s.5-1.4 1.2-1.7c.7-.2 5-5.5 5-5.5s-.5 2.4 0 1.7 3.5-6.7 3.5-6.7.4 3.8.4 6.2c1.1-4.4 4.5-15.5 4.5-15.5v6.5s2.9-3.4 5.5-7.9c2.6-4.6 2.4-5.3 2.4-5.3s3.8 4.8 3.8 3.9-1.7-12.1-1.7-12.1l1.7-3.8 1.7 1.2s-.5-4.6-.5-7.4c0-2.9-1-4.8-1-4.8l3.4 1.7.1-8.2c-.1-.4-.3-.7-.4-1-1.9-4.5-9.5-9.9-12.4-11.5z"/><path fill="#615B4F" d="M146.1 253.1s2.2-6.7 2.2-11.7-.2-9.8-.2-10.8c0-.4-.6-2.6-1.3-5.3-.9-3.7-1.7-8.2-1.1-10.6 1.4-5.3 2.9-13.2 2.9-13.2l-.2 5.6 4.3-8.4 3.6-5.7s-1.4 5.7 0 4.8c1.4-1 5-6.9 5.3-12.5l1.3 3 .4.8.5-3c.4-3.2 1-8 .5-10.4-.4-2 .5-1.3 1.3-.3.8.9 1.5 2.1 1.5 2.1s-.2-6.2-1-13.2c-.5-4.6-1.2-9.5-2.2-13.3-.5-1.7-1-3.1-1.5-4.2-1.9-3.5-2.3-4.7-2.3-4.7l-.1 8.2-3.4-1.7s1 1.9 1 4.8.5 7.4.5 7.4l-1.7-1.2-1.7 3.8s1.7 11.1 1.7 12.1-3.8-3.9-3.8-3.9.2.7-2.4 5.3-5.5 7.9-5.5 7.9v-6.5s-3.4 11.1-4.5 15.5c.1-2.4-.4-6.2-.4-6.2s-3 6-3.5 6.7c-.5.7 0-1.7 0-1.7s-4.3 5.3-5 5.5c-.7.2-1.2 1.7-1.2 1.7v-5.7L128 198v58c4.8 0 9.4-.3 14.1-.8 3-5.1 4.1-9.5 4.1-9.5v7.4z"/><path fill="#453B31" d="M163.5 82.5c.2-1.3-1.9-2.1-3.8-2.7s-8.5-2.4-12.6-1-7.7 3.7-10.1 3.7c-2.4 0-.2 4.1 0 5.1s2.9 1.1 2.9 1.1 5.7-3.5 9.1-4c3.4-.5 4.9-1.9 9.7.2 4.8 2.1 7 2.7 7 2.7l-2.2-3.5s-.2-.4 0-1.6z"/><path fill="#6D6558" d="M187.3 89.7l2.7-1 .3-.9c.3-1.2.7-3.3 0-5.4-.2 1.1-.5 1.9-.7 2.4-.2.5-1.5 3.2-2.3 4.9zm-2.3 8.9c-.2 2-.4 4-.3 5.3 0-.3.1-.6.2-1 .3-1.7.3-3.1.1-4.3zm-57-75.1v9.7c2.1 0 30.9 4.3 37.1 10.5 0 0 3.1 2.4 3.6 4.8s-1 2.9 0 5.7c1 2.9 2.9-1 2.4 6-.5 6.9.1 8.1.1 8.1s-1.6 1.9 0 4.1c.5.7 1.1 1.1 1.6 1.3-.4-1.1-.6-1.8-.6-1.8v-5.3s0 .9 2.4-3.2c2.4-4.2 2.9-4.4 2.4-6.6-.5-2.2-5.6-.7-2.3-4.1 3.3-3.4 2.3-1.2 3.3-3.4s2.2-5 2.2-5c.3 1.1.6 2 .8 2.7-.1-1.1-.2-2.1-.2-3.7 0-4.1-.2-6.2-2.9-8.9-2.6-2.6-5.5-3.8-6.2-6.9-.7-3.1.5-3.8-2.4-6.2-2.9-2.4-9.8-6-9.8-6s-1.2-.7-3.5-1.7c-4.9-2.1-14.8-5.5-27.8-5.5v15.4zm51.2 74.3s.2 1.3.2 4.9c0 3.6 1.2 4.1 0 6.5-1.2 2.4-1.7 5.3-1.7 7.7 0 .7.3 1.3.7 1.6.2.2.5.3.8.3 0-.3.1-.8.5-1.6 1.4-3.4.7-.2 1.4-3.4s-.4-5.5.2-6.2c.6-.7-1.4 0-1.6-5.3-.2-5.3-.2-6.9-.2-6.9s-.9-.3-1.8-.7c-.1 1.5 1.5 3.1 1.5 3.1z"/><path fill="#453B31" d="M177.8 49.6c-1 2.2 0 0-3.3 3.4s1.8 1.9 2.3 4.1c.5 2.2 0 2.4-2.4 6.6-2.4 4.2-2.4 3.2-2.4 3.2v5.3s.3.7.6 1.8c.4 1.2.9 2.8 1.3 4.4.7 3 .7.3 2.2 3.7 1.4 3.4 0 3.8 0 5.6 0 1.8-.2 2-1 3.9-.7 1.9.2 1.2.5 1.9.1.4 1.1.8 2 1.2.9.4 1.8.7 1.8.7s0 1.7.2 6.9c.2 5.3 2.2 4.6 1.6 5.3-.6.7.6 3.1-.2 6.2s0 0-1.4 3.4c-.3.8-.5 1.3-.5 1.6 0 1.1 1.4.2 2.1 0 .9-.3 1.3-2.1 2.2-3.6s2.4-3.1 2.4-5.5-1-2.6-1.2-5.7c-.1-1.3.1-3.4.3-5.3.3-2.7.7-5.2.7-5.2l1-2.4s.3-.5.6-1.3c.8-1.7 2.1-4.4 2.3-4.9.2-.5.4-1.3.7-2.4.1-.5.2-1.1.3-1.7.2-1.9 0-4.1-1.2-7.4-1.2-3.4.2-3.1 0-6.4-.2-3.3-.7-5.6-1.9-8.2-1.2-2.6-1.9-2.4-3.8-5.3-1.5-2.2-2-3.5-2.8-6.1-.2-.8-.5-1.7-.8-2.7 0-.2-1.2 2.7-2.2 4.9z"/><path fill="#888C8A" d="M179.9 193.3c-.2 0-.4 0-.7.1 0 0 4.8 3.2 0 17.6-2.3 6.8-8.8 23.8-15 39.8 24.8-7.3 46.4-21.9 62.4-41.2-5.5-2.3-10.6-3.9-14.9-4.7-24-4.1-21.5-12.7-31.8-11.6z"/><path fill="#B2A696" d="M134.2 101.4c0 .4-.1.9-.1 1.3 0 9.9 8 17.9 17.9 17.9 9.9 0 17.9-8 17.9-17.9 0-9.9-8-17.9-17.9-17.9-7.9 0-14.7 5.2-17 12.3.4.4.5.7.5.7l-1.3 3.6zm6.2-10.4c.6-.6 1.2-1.1 1.9-1.6.6-.4 1.2-.9 1.9-1.2h.1c2.3-1.3 5-2 7.8-2 5.9 0 11.1 3.1 14 7.8 1.6 2.5 2.5 5.5 2.5 8.7 0 3.9-1.3 7.4-3.5 10.2-.4.5-.8 1-1.3 1.5l-.1.1c-2.6 2.6-6 4.3-9.9 4.7-.6.1-1.1.1-1.7.1-9.1 0-16.5-7.4-16.5-16.5 0-3.6 1.1-6.9 3.1-9.6.5-.7 1.1-1.4 1.7-2-.1-.1-.1-.2 0-.2z"/><path fill="#D7A990" d="M135.5 102.7c0 9.1 7.4 16.5 16.5 16.5.6 0 1.1 0 1.7-.1 3.8-.4 7.3-2.1 9.9-4.7l.1-.1c.5-.5.9-1 1.3-1.5 2.2-2.8 3.5-6.3 3.5-10.2 0-3.2-.9-6.2-2.5-8.7-2.9-4.7-8.1-7.8-14-7.8-2.8 0-5.5.7-7.8 2h-.1c-.7.4-1.3.8-1.9 1.2-.7.5-1.3 1-1.9 1.6l-.1.1c-.6.6-1.2 1.3-1.7 2-1.8 2.8-3 6.1-3 9.7z"/><path opacity=".5" fill="#FFF" d="M135.5 102.7c0 9.1 7.4 16.5 16.5 16.5.6 0 1.1 0 1.7-.1 3.8-.4 7.3-2.1 9.9-4.7l.1-.1c.5-.5.9-1 1.3-1.5 2.2-2.8 3.5-6.3 3.5-10.2 0-3.2-.9-6.2-2.5-8.7-2.9-4.7-8.1-7.8-14-7.8-2.8 0-5.5.7-7.8 2h-.1c-.7.4-1.3.8-1.9 1.2-.7.5-1.3 1-1.9 1.6l-.1.1c-.6.6-1.2 1.3-1.7 2-1.8 2.8-3 6.1-3 9.7z"/><path fill="#B2A696" d="M135.5 102.7c0-3.6 1.1-6.9 3.1-9.6-1.9 2.7-3.1 6-3.1 9.6 0 9.1 7.4 16.5 16.5 16.5.6 0 1.1 0 1.7-.1-.6.1-1.1.1-1.7.1-9.1 0-16.5-7.4-16.5-16.5z"/><path opacity=".5" fill="#FFF" d="M135.5 102.7c0-3.6 1.1-6.9 3.1-9.6-1.9 2.7-3.1 6-3.1 9.6 0 9.1 7.4 16.5 16.5 16.5.6 0 1.1 0 1.7-.1-.6.1-1.1.1-1.7.1-9.1 0-16.5-7.4-16.5-16.5z"/><path fill="#B2A696" d="M163.8 114.4l-.1.1s0-.1.1-.1z"/><path opacity=".5" fill="#FFF" d="M163.8 114.4l-.1.1s0-.1.1-.1z"/><path fill="#B2A696" d="M142.3 89.4c.6-.4 1.2-.9 1.9-1.2-.7.3-1.3.7-1.9 1.2z"/><path opacity=".5" fill="#FFF" d="M142.3 89.4c.6-.4 1.2-.9 1.9-1.2-.7.3-1.3.7-1.9 1.2z"/><path fill="#B2A696" d="M140.3 91.1l.1-.1c-.1 0-.1.1-.1.1z"/><path opacity=".5" fill="#FFF" d="M140.3 91.1l.1-.1c-.1 0-.1.1-.1.1z"/><path fill="#B2A696" d="M152.1 86.2c-2.8 0-5.5.7-7.8 2 2.3-1.3 4.9-2 7.8-2z"/><path opacity=".5" fill="#FFF" d="M152.1 86.2c-2.8 0-5.5.7-7.8 2 2.3-1.3 4.9-2 7.8-2z"/><path fill="#B2A696" d="M165.1 112.9c2.2-2.8 3.5-6.3 3.5-10.2 0-3.2-.9-6.2-2.5-8.7 1.6 2.5 2.5 5.5 2.5 8.7 0 3.8-1.3 7.4-3.5 10.2z"/><path opacity=".5" fill="#FFF" d="M165.1 112.9c2.2-2.8 3.5-6.3 3.5-10.2 0-3.2-.9-6.2-2.5-8.7 1.6 2.5 2.5 5.5 2.5 8.7 0 3.8-1.3 7.4-3.5 10.2z"/><path fill="#B2A696" d="M134.2 101.4l1.3-3.5s-.1-.3-.5-.7c-.8-1-2.8-2.5-7-2.5v1.9c0-.1 5.9-.1 6.2 4.8z"/><path fill="#B17D6B" d="M90.9 149c-.9-1.5-1.7-3-2.5-4.4.4 3.7 1.1 11.5 1.6 19.9.5-4.6 1.2-9.5 2.2-13.3-.4-.7-.8-1.4-1.3-2.2zm19.4 65.7c-1.4-5.3-2.9-13.2-2.9-13.2l.2 5.6-4.3-8.4-3.6-5.7s1.4 5.7 0 4.8-5-6.9-5.3-12.5l-1.3 3c3.1 7.9 8.9 22.5 16 37 1-3.6 1.9-8.2 1.2-10.6zm-17.9-28.5c-.4-3.2-1-8-.5-10.4.4-2-.5-1.3-1.3-.3.1 2.5.1 4.8.1 7 .2-.3.3-.4.3-.4s.5 1.6 1.4 4.1z"/><path fill="#5A5B52" d="M109.9 253.1s-2.2-6.7-2.2-11.7.2-9.8.2-10.8c0-.4.6-2.6 1.3-5.3-7.1-14.5-12.9-29-16-37l-.4.8-.5-3c-1-2.5-1.5-4-1.5-4s-.1.2-.3.4c-1.1 1.7-5.9 7.9-14.5 10.7.2 0 .4 0 .7.1 0 0-4.8 3.2 0 17.6 2.3 6.8 8.8 23.8 15 39.8 7.1 2.1 14.5 3.6 22.1 4.4-3-5.1-4.1-9.5-4.1-9.5v7.5z"/><path fill="#40372D" d="M101.8 6.9c-1.6 6.1-1.6 2.6-1.6 6.1v.9c4.9-2.1 14.8-5.5 27.8-5.5V0c-9 0-17.7.9-26.1 2.7v.4c-.1 2.6 1.5-2.2-.1 3.8z"/><path fill="#B17D6B" d="M76.7 118.7c0 1.1-1.4.2-2.1 0-.9-.3-1.3-2.1-2.2-3.6S70 112 70 109.6s1-2.6 1.2-5.7c0-.3-.1-.6-.2-1-.3-1.7-.2-3.2-.1-4.3-.3-2.7-.7-5.2-.7-5.2l-1-2.4s-.3-.5-.6-1.3l-2.7-1-.3-.9c-.3.1-.6.3-.9.6-4.6 3.8.2 9.8 0 12.2s-1.2 6.7 1.4 12.9 5.7 13.4 5.5 17.7c-.2 4.3 4.1 7.7 9.3 2.4.5-.5.9-.9 1.4-1.3-2.2-5.3-3.9-10-5-13.9 0 .2-.3.3-.6.3z"/><path fill="#C08C76" d="M92.2 114.4c-.5-.5-.9-1-1.3-1.5.4.5.9 1 1.3 1.5zm8.4 4.5c-3.2-.6-6-2.2-8.2-4.4 2.2 2.2 5 3.7 8.2 4.4zm3.3-32.7zm7.2 1.6c.7.4 1.4.7 2.1 1.2-.7-.5-1.4-.9-2.1-1.2zm3.6 52.3c-1.9.6-1.6 1.9-2.9 5.1-1.3 3.2.3 2.2-1.5 7.7s-2.6 3.5-2 6.7 1.3 1.9 3.5 4.2c2.2 2.2 3.8 0 5.1-2.9s-1.9-4.2-1.9-4.2c3.8-2.9 12.9-1.6 12.9-1.6v-18.5l-7.5 1c.1-.1-3.7 1.9-5.7 2.5zm2.7-47c-1.2-1.6-2.6-3-4.2-4.1 1.6 1.1 3.1 2.5 4.2 4.1z"/><path fill="#C08C76" d="M92.3 151.2c.5-1.7 1-3.1 1.5-4.2 1.9-3.5 2.3-4.7 2.3-4.7.1-.4.3-.7.4-1 1.9-4.5 9.6-9.9 12.5-11.5s8.9-4.8 8.9-4.8c2.6 1.9 10.1 1.6 10.1 1.6V96.5s-5.9 0-6.2 4.9c0 .4.1.9.1 1.3 0 9.9-8 17.9-17.9 17.9-9.9 0-17.9-8-17.9-17.9 0-9.9 8-17.9 17.9-17.9 7.9 0 14.7 5.2 17 12.3.8-1 2.8-2.5 7-2.5V33.3c-2.1 0-30.9 4.3-37.1 10.5 0 0-3.1 2.4-3.6 4.8s1 2.9 0 5.7c-1 2.9-2.9-1-2.4 6 .5 6.9-.1 8.1-.1 8.1s1.6 1.9 0 4.1c-.5.7-1.1 1.1-1.6 1.3-.4 1.2-.9 2.8-1.3 4.4-.7 3-.7.3-2.2 3.7-1.4 3.4 0 3.8 0 5.6 0 1.8.2 2 1 3.9.7 1.9-.2 1.2-.5 1.9-.1.4-1.1.8-2 1.2.1 1.5-1.5 3.2-1.5 3.2s-.2 1.3-.2 4.9c0 3.6-1.2 4.1 0 6.5 1.2 2.4 1.7 5.3 1.7 7.7 0 .7-.3 1.3-.7 1.6 1.1 3.9 2.7 8.7 5 13.9 1.6 3.8 3.6 8 6 12.3.8 1.5 1.6 2.9 2.5 4.4.4.8.8 1.5 1.3 2.2zm.2-67.1s.2-.3 0-1.6 1.9-2.1 3.8-2.7c1.9-.6 8.5-2.4 12.6-1s7.7 3.7 10.1 3.7c2.4 0 .2 4.1 0 5.1s-2.9 1.1-2.9 1.1-5.7-3.5-9.1-4c-3.4-.5-4.9-1.9-9.7.2-4.8 2.1-7 2.7-7 2.7l2.2-3.5z"/><path fill="#342B22" d="M128 156.1v-1s-9.1-1.3-12.9 1.6c0 0 3.2 1.3 1.9 4.2s-2.9 5.1-5.1 2.9c-2.2-2.2-2.9-1-3.5-4.2s.1-1.3 2-6.7.3-4.5 1.5-7.7c1.3-3.2 1-4.5 2.9-5.1 1.9-.6 5.7-2.6 5.7-2.6l7.5-1v-9.9s-7.5.3-10.1-1.6c0 0-6.1 3.2-8.9 4.8s-10.5 7-12.5 11.5c-.1.3-.3.7-.4 1l.1 8.2 3.4-1.7s-1 1.9-1 4.8-.5 7.4-.5 7.4l1.7-1.2 1.7 3.8s-1.7 11.1-1.7 12.1c0 .9 3.8-3.9 3.8-3.9s-.2.7 2.4 5.3 5.5 7.9 5.5 7.9v-6.5s3.4 11.1 4.5 15.5c-.1-2.4.4-6.2.4-6.2s3 6 3.5 6.7c.5.7 0-1.7 0-1.7s4.3 5.3 5 5.5 1.2 1.7 1.2 1.7v-5.7l1.8 3.6v-41.8z"/><path fill="#52473C" d="M126.2 194.5v5.7s-.5-1.4-1.2-1.7-5-5.5-5-5.5.5 2.4 0 1.7-3.5-6.7-3.5-6.7-.4 3.8-.4 6.2c-1.1-4.4-4.5-15.5-4.5-15.5v6.5s-2.9-3.4-5.5-7.9c-2.6-4.6-2.4-5.3-2.4-5.3s-3.8 4.8-3.8 3.9c0-.9 1.7-12.1 1.7-12.1l-1.7-3.8-1.7 1.2s.5-4.6.5-7.4c0-2.9 1-4.8 1-4.8l-3.4 1.7-.1-8.2s-.4 1.2-2.3 4.7c-.6 1.1-1.1 2.5-1.5 4.2-1 3.7-1.7 8.7-2.2 13.3-.8 7-1 13.2-1 13.2s.8-1.2 1.5-2.1c.9-1 1.7-1.7 1.3.3-.5 2.4.1 7.2.5 10.4.2 1.7.5 3 .5 3l.4-.8 1.3-3c.2 5.5 3.8 11.5 5.3 12.5s0-4.8 0-4.8l3.6 5.7 4.3 8.4-.2-5.6s1.5 7.9 2.9 13.2c.6 2.4-.3 7-1.1 10.6-.6 2.7-1.3 4.9-1.3 5.3 0 1-.2 5.7-.2 10.8s2.2 11.7 2.2 11.7v-7.4s1 4.4 4.1 9.5c4.6.5 9.3.8 14.1.8v-58l-2.2-3.9z"/><path fill="#342B22" d="M107.1 84.7c3.4.5 9.1 4 9.1 4s2.7-.2 2.9-1.1c.2-1 2.4-5.1 0-5.1s-5.9-2.2-10.1-3.7-10.7.3-12.6 1c-1.9.6-4 1.4-3.8 2.7.2 1.3 0 1.6 0 1.6l-2.2 3.5s2.2-.6 7-2.7c4.7-2.1 6.3-.7 9.7-.2z"/><path fill="#52473C" d="M78.2 49.6c1 2.2 0 0 3.3 3.4s-1.8 1.9-2.3 4.1c-.5 2.2 0 2.4 2.4 6.6 2.4 4.2 2.4 3.2 2.4 3.2v5.3s-.3.7-.6 1.8c.5-.3 1.1-.6 1.6-1.3 1.6-2.2 0-4.1 0-4.1s.6-1.2.1-8.1c-.5-6.9 1.4-3.1 2.4-6s-.5-3.4 0-5.7c.5-2.4 3.6-4.8 3.6-4.8 6.2-6.2 35-10.5 37.1-10.5V8.6c-13 0-22.9 3.4-27.8 5.5-2.3 1-3.5 1.7-3.5 1.7s-6.9 3.6-9.8 6c-2.9 2.4-1.7 3.1-2.4 6.2s-3.6 4.3-6.2 6.9c-2.6 2.6-2.9 4.8-2.9 8.9 0 1.6 0 2.6-.2 3.7.2-.8.5-1.7.8-2.7-.2-.3 1 2.6 2 4.8zm-7.2 49c-.1 1.2-.2 2.6.1 4.3.1.4.1.7.2 1 0-1.3-.1-3.3-.3-5.3zm-2.3-8.9c-.8-1.7-2.1-4.4-2.3-4.9-.2-.5-.4-1.3-.7-2.4-.7 2.1-.3 4.3 0 5.4.1.5.3.9.3.9l2.7 1zm7.8 5.6s0 1.7-.2 6.9c-.2 5.3-2.2 4.6-1.6 5.3.6.7-.6 3.1.2 6.2s0 0 1.4 3.4c.3.8.5 1.3.5 1.6.3 0 .6-.1.8-.3.4-.3.7-.8.7-1.6 0-2.4-.5-5.3-1.7-7.7-1.2-2.4 0-2.9 0-6.5s.2-4.9.2-4.9 1.6-1.7 1.5-3.2c-.9.5-1.8.8-1.8.8z"/><path fill="#342B22" d="M68.7 89.7c.4.8.6 1.3.6 1.3l1 2.4s.4 2.5.7 5.2c.2 2 .4 4 .3 5.3-.2 3.1-1.2 3.3-1.2 5.7 0 2.4 1.4 4.1 2.4 5.5s1.4 3.3 2.2 3.6c.7.2 2.1 1.1 2.1 0 0-.3-.1-.8-.5-1.6-1.4-3.4-.7-.2-1.4-3.4s.4-5.5-.2-6.2c-.6-.7 1.4 0 1.6-5.3.2-5.3.2-6.9.2-6.9s.9-.3 1.8-.7c.9-.4 1.9-.9 2-1.2.2-.7 1.2 0 .5-1.9s-1-2.1-1-3.9c0-1.8-1.4-2.3 0-5.6 1.4-3.4 1.4-.6 2.2-3.7.4-1.6.9-3.2 1.3-4.4.4-1.1.6-1.8.6-1.8v-5.3s0 .9-2.4-3.2c-2.4-4.2-2.9-4.4-2.4-6.6.5-2.2 5.6-.7 2.3-4.1-3.3-3.4-2.3-1.2-3.3-3.4s-2.2-5-2.2-5c-.3 1.1-.6 2-.8 2.7-.8 2.7-1.3 3.9-2.8 6.1-1.9 2.9-2.6 2.6-3.8 5.3-1.2 2.6-1.7 5-1.9 8.2-.2 3.3 1.2 3 0 6.4-1.2 3.4-1.4 5.5-1.2 7.4.1.6.2 1.2.3 1.7.2 1.1.5 1.9.7 2.4.2.6 1.5 3.3 2.3 5z"/><path fill="#5A6262" d="M76.8 193.4c-.2 0-.5-.1-.7-.1-10.4-1.1-7.8 7.5-31.9 11.6-4.3.7-9.4 2.4-14.9 4.7 16 19.4 37.7 33.9 62.4 41.2-6.2-16-12.7-33-15-39.8-4.7-14.4.1-17.6.1-17.6z"/><path fill="#90877C" d="M121 97.1c-2.3-7.2-9.1-12.3-17-12.3-9.9 0-17.9 8-17.9 17.9 0 9.9 8 17.9 17.9 17.9 9.9 0 17.9-8 17.9-17.9 0-.5 0-.9-.1-1.3l-1.3-3.5c0-.1.1-.4.5-.8zm-17.1 22.1c-1.1 0-2.3-.1-3.3-.3-3.2-.6-6-2.2-8.2-4.4l-.1-.1c-.5-.5-.9-1-1.3-1.5-2.2-2.8-3.5-6.3-3.5-10.2 0-3.2.9-6.2 2.5-8.7 2.9-4.7 8.1-7.8 14-7.8 2.6 0 5 .6 7.1 1.6.7.4 1.4.7 2.1 1.2 1.6 1.1 3.1 2.5 4.2 4.1 1.9 2.7 3.1 6 3.1 9.6 0 9.1-7.4 16.5-16.6 16.5z"/><path fill="#C08C76" d="M120.5 102.7c0-3.6-1.1-6.9-3.1-9.6-1.2-1.6-2.6-3-4.2-4.1-.7-.5-1.4-.8-2.1-1.2-2.2-1-4.6-1.6-7.1-1.6-5.9 0-11.1 3.1-14 7.8-1.6 2.5-2.5 5.5-2.5 8.7 0 3.9 1.3 7.4 3.5 10.2.4.5.8 1 1.3 1.5l.1.1c2.2 2.2 5.1 3.8 8.2 4.4 1.1.2 2.2.3 3.3.3 9.2 0 16.6-7.4 16.6-16.5z"/><path opacity=".5" fill="#D0D2D3" d="M120.5 102.7c0-3.6-1.1-6.9-3.1-9.6-1.2-1.6-2.6-3-4.2-4.1-.7-.5-1.4-.8-2.1-1.2-2.2-1-4.6-1.6-7.1-1.6-5.9 0-11.1 3.1-14 7.8-1.6 2.5-2.5 5.5-2.5 8.7 0 3.9 1.3 7.4 3.5 10.2.4.5.8 1 1.3 1.5l.1.1c2.2 2.2 5.1 3.8 8.2 4.4 1.1.2 2.2.3 3.3.3 9.2 0 16.6-7.4 16.6-16.5z"/><path fill="#90877C" d="M89.9 94c-1.6 2.5-2.5 5.5-2.5 8.7 0 3.9 1.3 7.4 3.5 10.2-2.2-2.8-3.5-6.3-3.5-10.2 0-3.2.9-6.2 2.5-8.7z"/><path opacity=".5" fill="#D0D2D3" d="M89.9 94c-1.6 2.5-2.5 5.5-2.5 8.7 0 3.9 1.3 7.4 3.5 10.2-2.2-2.8-3.5-6.3-3.5-10.2 0-3.2.9-6.2 2.5-8.7z"/><path fill="#90877C" d="M120.5 102.7c0 9.1-7.4 16.5-16.5 16.5-1.1 0-2.3-.1-3.3-.3 1.1.2 2.2.3 3.3.3 9.1 0 16.5-7.4 16.5-16.5 0-3.6-1.1-6.9-3.1-9.6 1.9 2.7 3.1 6 3.1 9.6z"/><path opacity=".5" fill="#D0D2D3" d="M120.5 102.7c0 9.1-7.4 16.5-16.5 16.5-1.1 0-2.3-.1-3.3-.3 1.1.2 2.2.3 3.3.3 9.1 0 16.5-7.4 16.5-16.5 0-3.6-1.1-6.9-3.1-9.6 1.9 2.7 3.1 6 3.1 9.6z"/><path fill="#90877C" d="M92.4 114.5l-.1-.1s0 .1.1.1z"/><path opacity=".5" fill="#D0D2D3" d="M92.4 114.5l-.1-.1s0 .1.1.1z"/><path fill="#90877C" d="M121 97.1c-.4.4-.5.7-.5.7l1.3 3.5c.3-4.9 6.2-4.9 6.2-4.9v-1.9c-4.3.1-6.2 1.6-7 2.6z"/></svg>