<svg xmlns="http://www.w3.org/2000/svg" width="256" height="256"><circle fill="#B1B3B5" cx="128" cy="128" r="128"/><path fill="#BAB1B5" d="M204.1 186.7c4 9.7 4.6 24.5 5.6 39.9 9.8-8.2 18.4-17.8 25.4-28.5-9.5-5.3-20.1-8.7-35.9-12.7l4.9 1.3zm-21.8-5.9c-7.5-2.3-12.3-4.3-15.2-5.7.9 3.4 1.6 7 1.6 9.4 0 6.2-9.3 34.6-9.3 34.6-4.1-5.9-8.9-11.1-13.4-15.5l-8 10.5 5.5 41c14.5-1.8 28.3-5.9 40.9-12.1-.1-33.6-2.1-62.2-2.1-62.2z"/><path fill="#4F3E2B" d="M138 214.2s-3-4.6-10-4.6V256c5.3 0 10.4-.3 15.5-.9l-5.5-41v.1z"/><path fill="#5E4A35" d="M131 191.1c-.4-.1-.8-.5-.8-.5l-.1-.1c-.6-.4-1.1-.7-1.4-1l-.7 1v19.1c6.9 0 10 4.6 10 4.6l.1-.1 8-10.5c-6.1-5.9-11.8-10.1-15.1-12.5z"/><path fill="#D3C9CC" d="M149.6 183.1c-1.2 2.5-1.2-3.7-1.2-3.7l-4.1 5.1v-2.2l-5.8 5.4s-.3-1.9-.9-1.5c-.3.2-1.8 1.2-3.2 2.3-1.1.8-2.2 1.7-2.5 2.2-.3.4-.6.5-.9.5 3.3 2.3 9 6.6 15.1 12.4 4.6 4.4 9.3 9.6 13.4 15.5 0 0 9.3-28.4 9.3-34.6 0-2.5-.7-6-1.6-9.4-.9-3.3-1.9-6.5-2.5-8.3-3.3 2.6-7.7 5.2-12.4 7.6-.8 2.9-2 7.2-2.7 8.7zm-20.3 5.6l-.6.9c.4.2.8.6 1.4 1l-.8-1.9z"/><path fill="#C08C76" d="M183.6 115.1c-.1-.8-.1-1.5-.2-2.2-3-.7-.1 1.9.2 2.2z"/><path fill="#C08C76" d="M177.3 114.8c-.1.4-.1.8-.2 1.2-.9 6.6-1.8 16-3 24.9 5-1.7 4.8-5.7 7.7-11.9 2.5-5.4 2.2-10.1 1.8-14l-3.8-2-2.5 1.8z"/><path fill="#D7A990" d="M158.2 43.7l.3-.9c-.4-.4-.2.4-.3.9zM171 63.8s0-.1 0 0c0-.1 0-.1 0 0 0-.1 0-.1 0 0z"/><path fill="#D7A990" d="M134.8 95l.2.1c-.3-.7-.3-1.3-.3-1.3s1.8.2 6.4-1.5c4.8-1.8 6.1-2.7 10.6-2.3 2.9.2 4.9 1.3 6.9 2.4 4.5.2 8.1 1.1 10.8 3.9 0 0-.1-1.7 0-2 .1-.3 3.2 0 3.2 0l3-1.4c-.4-2.2-.7-4.3-.8-4.9-.2-1.4-2.3-9.1-2.3-9.1l2.3 1.4-3.6-10.8s1.4 1.5 1.4 1.1c0-.1-.2-.8-.4-1.7-1.4-3.3-3.6-8.5-3.6-8.5l1.8.4c-1.2-4.5-2.3-5-8.4-13.7-.9-1.4-1.7-2.3-2.2-3-1-.1-1.7-.2-1.7-.2-.1.1-.3.1-.8-.3-2.4-2-2.3-2.2-5.4-2.3-3.1-.2-3.5 0-5.4 1-1.9 1-2.6-1.3-2.6-1.3l-2.1 4.5c-1.2-2.6-8.3-5.2-8.3-5.2v3.2c0-.5-1.7-2.2-1.7-2.2s-.3 2.2-.9 2.2-3-4.3-3-4.3V95h6.9zm4.2 58.5l-1 1.9s-.3 2.2 2.3 2.5c2.6.3 4-1.1 4-1.1s1.3.3 2.4-.5 2.3-2.5 2.3-2.5l1.9 1.9-1.4-4.9 1.9 1.1s-4.2-4.2-6.2-5.7l-2.9-1.9s.5 1.7 0 1.7-4.5-.8-4.5-.8l.2 1.1-6.9-1.1-2.9.2v7.6c-.2-.1 5.8-2.6 10.8.5z"/><path fill="#D7A990" d="M177.3 114.8l-.4.3s.5-12.3 0-15.1c-.1-.3-.1-.8-.2-1.2l-1.1-.2v-2l-4 .3-.4 3.2h-1.6s.8 15.4-9.7 17.2c-10.5 1.9-16.9 1.3-21.7-5.2-3.4-5-2.2-11.7-2.2-11.7l-1.9-3.5s-1.5.5-6.1.5v40s6.3-.8 8.9-3.2c0 0 6.9-1.1 9.5 0l-2.1 1.4s5.9 2.8 9.2 4.8c3.3 2 3.5 4 3.5 4l-1.4-.9 4.8 6.3-3.1-.9s1 4.9 1.7 6.8c.7 1.9-1.6 6.2-1.6 6.2l-.7 6.3-1.2-2.5s-.3 4.2-1.4 7.3l-1.2-1.7s-.3 1.3-.8 3.1c4.7-2.4 9.1-5 12.4-7.6 2.4-1.9 4.1-3.8 4.9-5.7 2.1-5 3.5-12.4 4.6-20.1 1.3-8.9 2.1-18.3 3-24.9.2-.5.3-.9.3-1.3z"/><path fill="#98857D" d="M130.9 145.2l6.9 1.1-.2-1.1s4 .8 4.5.8 0-1.7 0-1.7l2.9 1.9c2.1 1.5 6.2 5.7 6.2 5.7l-1.9-1.1 1.4 4.9-1.9-1.9s-1.2 1.7-2.3 2.5-2.4.5-2.4.5-1.4 1.4-4 1.1c-2.6-.3-2.3-2.5-2.3-2.5l1-1.9c-5-3.1-11-.6-11-.6v37.7l.7-1 .6-.9.8 1.9.1.1s.4.4.8.5c.3.1.6 0 .9-.5.3-.5 1.3-1.3 2.5-2.2 1.4-1.1 3-2.1 3.2-2.3.5-.3.9 1.5.9 1.5l5.8-5.4v2.2l4.1-5.1s0 6.2 1.2 3.7c.8-1.5 1.9-5.8 2.7-8.8.5-1.8.8-3.1.8-3.1l1.2 1.7c1-3.1 1.4-7.3 1.4-7.3l1.2 2.5.7-6.3s2.3-4.3 1.6-6.2c-.7-1.9-1.7-6.8-1.7-6.8l3.1.9-4.8-6.3 1.4.9s-.2-2-3.5-4-9.2-4.8-9.2-4.8l2.1-1.4c-2.6-1.1-9.5 0-9.5 0-2.6 2.5-8.9 3.2-8.9 3.2v7.9h2.9zm10.2-52.8c-4.5 1.7-6.4 1.5-6.4 1.5s0 .6.3 1.3l2.3 1.3s1.3-3.4 10.8-3.7c3.9-.1 7.4-.4 10.5-.2-2-1.1-4-2.2-6.9-2.4-4.5-.5-5.8.3-10.6 2.2z"/><path fill="#958E8B" d="M143.2 39.6c-1.9-2.6-6.4-5-6.9-5.3h-.1.1c.6.3 5 2.6 3.4.1-1.7-2.7-11.6-4.2-11.6-4.2v8.9s2.5 4.3 3 4.3.9-2.2.9-2.2 1.7 1.7 1.7 2.2v-3.2s7.1 2.6 8.3 5.2l2-4.4s.7 2.3 2.6 1.3c1.9-1 2.3-1.2 5.4-1 3.1.2 2.9.3 5.4 2.3.5.4.7.4.8.3l.1-.3c0-.5-.1-1.2.3-.9l.4-1.1-.3-1.7s-2.6-8.6 5.2-10.8 12.1 1.2 12.1 1.2l-7.6.9s8.3 2.5 10.6 4.3c2.3 1.9-6.6 0-6.6 0s9.5 4.2 11.8 7.9c2.3 3.7 2.4 10.2 2.4 10.2s-14-14.1-22.2-12.6c0 0 12.3 7.1 13.3 8.2 1 1.1 2.9 3.1 2.9 3.1l-5.9-2.8 5.1 4.9-3.6-1.4 4.7 8.3-7.3-4.3 4.8 6.9s-4-2.2-4.2-1.3 9.9 19.7 9.5 19.2c-.2-.3-5-7.1-8.7-12.3-2.2-3.2-4-5.7-4.1-5.9.2.7 2.7 9.3 2.1 7.5-.2-.4-.5-1.3-.9-2.3.2.9.4 1.6.4 1.7 0 .5-1.4-1.1-1.4-1.1l3.6 10.8-2.3-1.4s2.1 7.7 2.3 9.1c.1.6.4 2.7.8 4.9l1.1-.5 1.4.7v5.9l-1.5-.3c.1.5.2.9.2 1.2.5 2.8 0 15.1 0 15.1l.4-.3 2.5-1.7 3.8 2c-.3-.3-3.2-2.9-.2-2.2h.2c3.6.9 7.3 2.2 7.3 2.2l-2.5-2.9s4.5 1.4 3.8.6c-.7-.8-2.9-5.7-2.9-5.7l6.1 1.2s-2.1-1.5-3.3-3.7-3.6-4.3-3.6-4.3h4.5s-5-3.9-5.5-4.1c.4.1 3.5 0 3.5 0l-4.6-9.1 2.8 3-.3-2.8 2.2.6-2.7-4.8 1-2.2-2.1-5.7s1.6.8 1.6.2 0-2.6-1.4-6.2c-1.4-3.5-1.4-3.1-.5-6.2.9-3.1.7-8.2.2-9.9-.5-1.7-1.7-12.5-4-16.5s-7.6-9.1-11.1-10.2c-3.5-1.1-5.7-3.1-6.6-4.5-.9-1.4-4.3-6.3-6.4-7.7s-9.9-1.7-12.3-1.5c-2.4.2-9.3-1.2-10.6-1.2s-5.6-1.1-8.2-1.1v11.9c13.5 3.3 15.4 17.5 15.4 17.5zm2.8-21.9c3-2.4 11.6-2.1 11.6-2.1l-3.6 1h4.2s-3.2 1 0 1.9 8.1 5 8.1 5c-4.7-1.5-13.5 3.9-13.5 3.9 2.6-1.5 13.5-1.5 13.5-1.5-7-.2-13.5 7.2-13.5 7.2l1-2.3-4 5.1c-1-4.3-7.4-11.5-7.4-11.5h3.8l-4.8-2.6c-.1 0 1.6-1.6 4.6-4.1z"/><path fill="#958E8B" d="M137.1 30.2c-1.4-2.7-9.1-4.5-9.1-4.5v1.7c2 .5 9.1 2.8 9.1 2.8zm35.2 30.9c-.4-.5-2.5-3.5-2.5-3.5.7-1.7-4.2-7.3-4.2-7.3s2.9 1.2 1.9-.3-4.7-4-6.1-4 3.1-.5 2.6-.9c-.3-.3-2.6-.6-4.3-.9.5.7 1.2 1.7 2.2 3 6.1 8.7 7.2 9.2 8.4 13.7 1.1.2 2.2.4 2 .2z"/><path fill="#7E7976" d="M159.8 44.2c1.6.2 3.9.6 4.3.9.5.5-4 .9-2.6.9s5 2.5 6.1 4c1 1.5-1.9.3-1.9.3s4.8 5.6 4.2 7.3c0 0 2.1 3.1 2.5 3.5.2.2-.8.1-1.9-.2l-1.8-.4s2.2 5.2 3.6 8.5c.4 1 .8 1.9.9 2.3.7 1.8-1.9-6.8-2.1-7.5.1.2 1.9 2.7 4.1 5.9 3.7 5.2 8.4 12 8.7 12.3.3.5-9.7-18.4-9.5-19.2s4.2 1.3 4.2 1.3l-4.8-6.9 7.3 4.3-4.7-8.3 3.6 1.4-5.1-4.9 5.9 2.8s-1.9-2-2.9-3.1-13.3-8.2-13.3-8.2c8.1-1.5 22.2 12.6 22.2 12.6s-.2-6.5-2.4-10.2c-2.3-3.7-11.8-7.9-11.8-7.9s8.8 1.9 6.6 0c-2.3-1.9-10.6-4.3-10.6-4.3l7.6-.9s-4.3-3.4-12.1-1.2-5.5 10.7-5.5 10.7l.3 1.7-.4 1.1-.3.9-.1.3s.8 0 1.7.2zm-17.4-19.8s6.4 7.2 7.4 11.5l4-5.1-1 2.3s6.5-7.4 13.5-7.2c0 0-10.9 0-13.5 1.5 0 0 8.8-5.4 13.5-3.9 0 0-4.9-4.2-8.1-5s0-1.9 0-1.9H154l3.6-1s-8.6-.3-11.6 2.1-4.7 4-4.7 4l4.8 2.6h-3.7zm-6.2 9.9s-.1 0 0 0c-.1 0 0 0 0 0zm3.4.1c1.6 2.5-2.9.2-3.4-.1.6.3 5 2.7 6.9 5.3 0 0-1.9-14.2-15.2-17.4v3.5s7.6 1.8 9.1 4.5c0 0-7.1-2.3-9.1-2.8v2.8c.1 0 10.1 1.5 11.7 4.2z"/><path fill="#3E414D" d="M136 100.5s-1.2 6.7 2.2 11.7c4.8 6.5 11.2 7.1 21.7 5.2 10.5-1.9 9.7-17.2 9.7-17.2h1.6l.4-3.2 4-.3v2l1.1.2 1.5.3v-5.9l-1.4-.7-1.1.5-3 1.4s-3.1-.3-3.2 0c-.1.3 0 2 0 2-2.7-2.9-6.3-3.8-10.8-3.9-3.1-.1-6.6.1-10.5.2-9.5.3-10.8 3.7-10.8 3.7l-2.3-1.3-.2-.1H128v2.4c4.6 0 6.1-.5 6.1-.5l1.9 3.5zm16.8-7.2c7.5 0 14.5.3 15.8 6.4 1.2 6.1-2.1 12.9-5.2 14.6-3.1 1.7-12.1 4.8-20.6 1-7-3.4-5.8-15-5.3-16.7.5-1.6 3.4-5.3 15.3-5.3z"/><path opacity=".3" fill="#FFF" d="M137.5 98.7c-.5 1.7-1.7 13.3 5.3 16.7 8.5 3.8 17.5.7 20.6-1 3.1-1.7 6.4-8.5 5.2-14.6-1.2-6.1-8.2-6.4-15.8-6.4-11.9-.1-14.8 3.6-15.3 5.3z"/><path fill="#34333A" d="M199.2 185.3l-16.9-4.6s2 28.7 2.1 62.2c9.1-4.5 17.6-10 25.3-16.4-1-15.3-1.6-30.2-5.6-39.9l-4.9-1.3z"/><path fill="#928C90" d="M110 203.6c-4.6 4.4-9.3 9.6-13.4 15.5 0 0-9.3-28.4-9.3-34.6 0-2.5.7-6 1.6-9.4-2.9 1.4-7.7 3.4-15.2 5.7 0 0-2 28.7-2.1 62.2 12.6 6.2 26.4 10.4 40.9 12.1l5.5-41-8-10.5zm-53.2-18.3c-15.8 4-26.4 7.4-35.9 12.7 7 10.7 15.6 20.3 25.4 28.5 1-15.3 1.6-30.2 5.6-39.9l4.9-1.3z"/><path fill="#332514" d="M118 214.2l-.1-.1-5.5 41c5.1.6 10.3.9 15.5.9v-46.4c-6.8 0-9.9 4.6-9.9 4.6z"/><path fill="#4F3E2B" d="M128 198.4v-7.9l-.7-1c-.4.2-.8.6-1.4 1l-.1.1s-.4.4-.8.5c-3.3 2.3-9 6.6-15.1 12.4l8 10.5.1.1s3-4.6 10-4.6v-11.1z"/><path fill="#BAB1B5" d="M126.7 188.7l-.8 1.9c.6-.4 1.1-.7 1.4-1l-.6-.9zm-30.2 30.4c4.1-5.9 8.9-11.1 13.4-15.5 6.1-5.8 11.8-10.1 15.1-12.4-.3.1-.6 0-.9-.5-.3-.5-1.3-1.3-2.5-2.2-1.4-1.1-3-2.1-3.2-2.3-.5-.3-.9 1.5-.9 1.5l-5.8-5.4v2.2l-4.1-5.1s0 6.2-1.2 3.7c-.8-1.5-1.9-5.8-2.7-8.8-4.7-2.4-9.1-5-12.4-7.6-.6 1.8-1.6 5-2.5 8.3-.9 3.4-1.6 7-1.6 9.4.1 6.3 9.3 34.7 9.3 34.7z"/><path fill="#B17D6B" d="M78.4 112.2c-.2-.9-.4-1.7-.4-2.6-.1-1.7-.2-3.7-.3-5.8 0-.6-.1-1.3-.1-1.9-.3-3.8-.7-7.1-1.5-7.2-1.3-.2-4 1.7-4.2 7.2.1 3.7.9 7.7.7 10.5-.3 4.4-1.6 10 1.6 16.7 2.9 6.2 2.7 10.2 7.7 11.9-1.3-8.9-2.1-18.3-3-24.9-.2-1.2-.4-2.5-.5-3.9z"/><path fill="#C08C76" d="M125.1 145.2l-6.9 1.1.2-1.1s-4 .8-4.5.8 0-1.7 0-1.7l-2.9 1.9c-2.1 1.5-6.2 5.7-6.2 5.7l1.9-1.1-1.4 4.9 1.9-1.9s1.2 1.7 2.3 2.5c1 .8 2.4.5 2.4.5s1.4 1.4 4 1.1c2.6-.3 2.3-2.5 2.3-2.5l-1-1.9c5-3.1 11-.6 11-.6v-7.6l-3.1-.1zM86.6 94.4c.1.3 0 2 0 2 2.7-2.9 6.3-3.8 10.8-3.9 2-1.1 4-2.2 6.9-2.4 4.5-.3 5.8.5 10.6 2.3 4.5 1.7 6.4 1.5 6.4 1.5s0 .6-.3 1.3l.2-.1h6.8V39.2l-2.3-2.6 1.4 5.9-8.2-1.9 1.6 4.6-10.6-2.9 2 2.6s-18.5 9.7-20.4 11.6c-1.9 1.9-6.3 8.9-6.3 8.9l3.3-2.7-1.2 3.6-2.1 6.2h2.5l-2.5 9.4h1.6l-1.6 6.9c-.2 2.2-.5 3.9-.9 5.5.8 0 2.2-.1 2.3.1z"/><path fill="#C08C76" d="M103 171.2l-1.2 1.7c-1-3.1-1.4-7.3-1.4-7.3l-1.2 2.5-.7-6.3s-2.3-4.3-1.6-6.2c.7-1.9 1.7-6.8 1.7-6.8l-3.1.9 4.8-6.3-1.4.9s.2-2 3.5-4 9.2-4.8 9.2-4.8l-2.1-1.4c2.6-1.1 9.5 0 9.5 0 2.6 2.5 8.9 3.2 8.9 3.2v-40c-4.6 0-6.1-.5-6.1-.5l-1.9 3.5s1.2 6.7-2.2 11.7c-4.8 6.5-11.2 7.1-21.7 5.2-10.5-1.9-9.7-17.2-9.7-17.2h-1.6l-.4-3.2-.7-.1c-.9 3.7-1.6 5.9-1.1 9.3.8 5.2-.2 11-.2 11v3.5s-2.9-3.9-4-8.5c.1 1.4.3 2.7.5 3.9.9 6.6 1.8 16 3 24.9 1.1 7.7 2.5 15.1 4.6 20.1.8 1.9 2.5 3.8 4.9 5.7 3.3 2.6 7.7 5.2 12.4 7.6-.4-1.6-.7-3-.7-3zm-25.3-67.4c0-.6-.1-1.3-.1-1.9 0 .6 0 1.3.1 1.9z"/><path fill="#7F6F68" d="M125.9 190.5l.8-1.9.6.9.7 1v-37.7s-6-2.5-11 .6l1 1.9s.3 2.2-2.3 2.5c-2.6.3-4-1.1-4-1.1s-1.3.3-2.4-.5c-1-.8-2.3-2.5-2.3-2.5l-1.9 1.9 1.4-4.9-1.9 1.1s4.2-4.2 6.2-5.7l2.9-1.9s-.5 1.7 0 1.7 4.5-.8 4.5-.8l-.2 1.1 6.9-1.1 2.9.2v-7.9s-6.3-.8-8.9-3.2c0 0-6.9-1.1-9.5 0l2.1 1.4s-5.9 2.8-9.2 4.8c-3.3 2-3.5 4-3.5 4l1.4-.9-4.8 6.3 3.1-.9s-1 4.9-1.7 6.8c-.7 1.9 1.6 6.2 1.6 6.2l.7 6.3 1.2-2.5s.3 4.2 1.4 7.3l1.2-1.7s.3 1.3.8 3.1c.8 3 1.9 7.2 2.7 8.8 1.2 2.5 1.2-3.7 1.2-3.7l4.1 5.1v-2.2l5.8 5.4s.3-1.9.9-1.5c.3.2 1.8 1.2 3.2 2.3 1.1.8 2.2 1.7 2.5 2.2.3.4.6.5.9.5.4-.1.8-.5.8-.5l.1-.3zm-11-98.1c-4.8-1.8-6.1-2.7-10.6-2.3-2.9.2-4.9 1.3-6.9 2.4 3.1-.1 6.6.1 10.5.2 9.5.3 10.8 3.7 10.8 3.7l2.3-1.3c.3-.7.3-1.3.3-1.3s-1.9.3-6.4-1.4z"/><path fill="#30323E" d="M121.2 95l-.2.1-2.3 1.3s-1.3-3.4-10.8-3.7c-3.9-.1-7.4-.4-10.5-.2-4.5.2-8.1 1.1-10.8 3.9 0 0 .1-1.7 0-2-.1-.2-1.5-.1-2.4-.1-.2.9-.4 1.7-.5 2.5l.7.1.4 3.2h1.6s-.8 15.4 9.7 17.2c10.5 1.9 16.9 1.3 21.7-5.2 3.4-5 2.2-11.7 2.2-11.7l1.9-3.5s1.5.5 6.1.5V95h-6.8zm-8 20.3c-8.5 3.8-17.5.7-20.6-1-3.1-1.7-6.4-8.5-5.2-14.6 1.2-6.1 8.2-6.4 15.8-6.4 12 0 14.8 3.6 15.3 5.3.5 1.8 1.7 13.3-5.3 16.7z"/><path opacity=".3" fill="#C5C7C9" d="M103.2 93.3c-7.5 0-14.5.3-15.8 6.4-1.2 6.1 2.1 12.9 5.2 14.6 3.1 1.7 12.1 4.8 20.6 1 7-3.4 5.8-15 5.3-16.7-.5-1.6-3.4-5.3-15.3-5.3z"/><path fill="#1D1C22" d="M73.7 180.8l-16.9 4.6-4.9 1.3c-4 9.7-4.6 24.5-5.6 39.9C54 233 62.5 238.5 71.6 243c.1-33.6 2.1-62.2 2.1-62.2z"/><path fill="#7E7976" d="M76 94.7c.8.1 1.3 3.4 1.5 7.2 0 .6.1 1.3.1 1.9.1 2 .2 4.1.3 5.8 0 .9.2 1.8.4 2.6 1.1 4.6 4 8.5 4 8.5v-3.5s1-5.7.2-11c-.5-3.4.2-5.6 1.1-9.3.2-.8.4-1.6.5-2.5.3-1.6.6-3.3.9-5.5l1.6-6.9H85l2.5-9.4H85l2.1-6.2-6.2 7.1 3.7-3.2c-2.9 5.2-2.5 9.4-2.5 9.4l4.7-4.5-3.1 6-3.4 3.7s1.4-5.9-2.5-2.9c-2.9 2.2-5.5 6.9-6.6 9.2l-.6 1.3s.2-.5.6-1.3l4.9-10.5-2.8 1.2c1.2-2.6 7.7-11.7 7.7-11.7l-5.7 3.2c2.3-6.3 14.8-17 14.8-17l-6.7 9.9h3.9l1.2-3.6-3.3 2.7s4.4-7.1 6.3-8.9c1.9-1.9 20.4-11.6 20.4-11.6l-2-2.6 10.6 2.9-1.6-4.6 8.2 1.9-1.4-5.9 2.3 2.6v-8.9c-5.3-.3-12.9 6.5-10.7 5.7s7.6 5.1 7.6 5.1-8.1-2.5-11.9-1.4c-2.1.6-6 3-9 4.9-2.8 2.3-4.4 2.9-4.4 2.9s1.9-1.3 4.4-2.9c2-1.6 4.6-4.2 7.6-7.9 7.4-9.1 16.4-9.1 16.4-9.1v-1.7c-11.9.6-18.5 8.6-18.8 8.9-.3.3 8.8-4.6 8.8-4.6s-10.8 7.6-18.5 15.3-21.7 9.8-21.7 9.8 9.6-2.7 17.4-12.5C110.9 21.1 128 22.2 128 22.2V10.3c-14.5-3.2-24.7-1.5-23.1 1.1 1 1.6-6.5 4.2-6.5 4.2s-2.5 1.9-7.4 6.6c-4.9 4.7-7.9 6.2-7.9 6.2l-3.3 2.5s-.5 2.1-1.6 5-1.6 2-4.1 9.4c-2.5 7.4-1.4 4-2.2 6.2-.8 2.2-.8 3.1-2.5 8.6-1.6 5.6-.5 5.2-.5 5.2l-.5 4.3s3.7 4.5 3.4 7.6c-.3 3.1-3.6 17.9-3.6 17.9l2.8 1s-2 4.6-2.8 5.4 3.6.8 3.6.8v-.5c.2-5.5 2.9-7.3 4.2-7.1z"/><path fill="#64615E" d="M95.1 42.7c-7.7 9.7-17.4 12.5-17.4 12.5s14-2.1 21.7-9.8S118 30.1 118 30.1s-9.1 4.9-8.8 4.6c.3-.3 6.9-8.3 18.8-8.9v-3.5c0-.1-17.1-1.2-32.9 20.4z"/><path fill="#64615E" d="M128 27.5s-9 0-16.4 9.1c-3.1 3.8-5.7 6.3-7.6 7.9 3-2 6.9-4.3 9-4.9 3.8-1.2 11.9 1.4 11.9 1.4s-5.4-5.9-7.6-5.1 5.5-6 10.7-5.7v-2.7zm-24 17c-2.5 1.6-4.4 2.9-4.4 2.9s1.6-.5 4.4-2.9zM87.1 66.3h-3.9l6.7-9.9S77.5 67 75.1 73.4l5.7-3.2s-6.4 9.1-7.7 11.7l2.8-1.2L71 91.2c1.1-2.3 3.7-7 6.6-9.2 3.9-2.9 2.5 2.9 2.5 2.9l3.4-3.7 3.1-6-4.7 4.5s-.4-4.3 2.5-9.4l-3.7 3.2 6.4-7.2zM71.2 91.1c-.4.8-.6 1.3-.6 1.3l.6-1.3z"/></svg>