<svg xmlns="http://www.w3.org/2000/svg" width="256" height="256"><circle fill="#B1B3B5" cx="128" cy="128" r="128"/><path fill="#898B7E" d="M119.4 227.7l-3.2-11c-1.4 2-2.6 4-3.4 5.6-3.4 7.2-9.5 14.9-10.6 25 0 0-9.9-20-15.4-33.7l.8 6.3c.5 3.3 1.1 6.7 1.7 10.1 1.1 6.1 2.6 13.6 4.1 21.3 7.9 2.2 16 3.7 24.4 4.3l2.4-27.2c-.6-.4-.8-.7-.8-.7z"/><path fill="#1E2429" d="M120.2 228.4l-2.4 27.2c3.4.3 6.7.4 10.2.4v-26c-4.5 0-6.7-.9-7.8-1.6z"/><path fill="#1C2227" d="M64.9 182.1c-13.9 5.1-33 12.1-43.9 16.1 5.3 8.1 11.6 15.6 18.6 22.3 4.4-8.9 14.5-28.3 25.3-38.4zm22.7 37.7l-.8-6.3c-.1-.2-.1-.3-.2-.5.3 2.2.7 4.5 1 6.8z"/><path fill="#0D1318" d="M87.6 219.8c-.4-2.3-.7-4.6-1-6.8-1.2-2.9-2.1-5.6-2.8-7.6-3.4-11.6-6.6-27.7 0-33.2 0 0 0-7.3 3.6-8.6-.1-1-.3-2.1-.4-3.1-6.1 2.3-6.6 8.4-20.7 20.3-.5.4-1 .8-1.4 1.3-10.8 10.1-21 29.5-25.3 38.4 14.9 14.3 33.3 25 53.8 30.7-1.5-7.7-3-15.2-4.1-21.3-.6-3.4-1.2-6.8-1.7-10.1z"/><path fill="#B17D6B" d="M87.6 163.7s.2 11.8 12.3 20.4c13.3 9.4 28.1 18.1 28.1 18.1V177c-11.5 0-11.7 0-24.4-5.2-9.4-3.9-13.7-10.8-17.8-20.7.3 2.4.8 5.9 1.3 9.6.1.9.3 1.9.5 3-.1 0-.1 0 0 0zm-10.9-50.3v-7.2c0-4.2-.7-8.4-2.4-10.3-1.5-.6-3-.7-4.2.3-3.4 2.9-1.1 11.8 0 17.5 1.1 5.7 1.1 6.6 1.1 13.2s0 8.6 7.5 6.9l1.1-.7c-1.2-6.3-1.9-14.4-2.3-22.8-.5 2.3-.8 3.1-.8 3.1z"/><path fill="#161C20" d="M128 206.6v-4.4s-7 7.7-11.8 14.5l3.2 11s.2.3.8.7c1 .7 3.2 1.6 7.8 1.6v-23.4z"/><path fill="#CC9985" d="M103.6 171.7c12.6 5.2 12.8 5.2 24.4 5.2V25.6c-31.6 0-37.6 13.8-43.3 24.4s-2 17.2-2 17.2-3.2 14.1-3.7 28.3c-.3 7.5-.9 12.1-1.5 14.8.4 8.4 1.1 16.6 2.3 22.8.5 2.6 1.1 4.9 1.8 6.8 1.5 4.1 2.9 7.8 4.3 11.1 4 9.9 8.3 16.8 17.7 20.7zm-7.5-96c7-4.7 19.1-2.6 22.2-1.7s4.3 6.8 1.7 8.2c-4.2 2.3-9-3.6-16.4-2.5-7.3 1.1-14.9 6.9-14.9 6.9-1.2-2.7.4-6.2 7.4-10.9z"/><path fill="#252220" d="M76.7 113.4s.4-.8.8-3.2c.5-2.7 1.1-7.2 1.5-14.8.6-14.2 3.7-28.3 3.7-28.3s-3.7-6.6 2-17.2S96.4 25.6 128 25.6v-16s-2-2.6-6.3 0-6.9 2-10.6 1.1c-3.7-.9-10.1 0-10.9 2.9-.8 2.9-5.4 7.5-8.6 8.3S81.8 25 79 29.3s-4 8-6.6 13.2c-2.6 5.2-.3 13.8 0 19.8s-1.1 14.2 0 20.4c.6 3.4 1.3 8.4 1 12.6.3.2.6.4.8.7 1.8 1.9 2.4 6.1 2.4 10.3l.1 7.1z"/><path fill="#252220" d="M103.8 79.7c7.3-1.1 12.2 4.8 16.4 2.5 2.5-1.4 1.4-7.3-1.7-8.2s-15.2-3-22.2 1.7-8.6 8.2-7.3 10.9c-.2 0 7.4-5.8 14.8-6.9z"/><path fill="#A7A899" d="M128 202.1s-14.7-8.7-28.1-18.1c-12.1-8.5-12.3-20.4-12.3-20.4h-.1c-3.6 1.2-3.6 8.6-3.6 8.6-6.6 5.5-3.4 21.5 0 33.2.6 2.1 1.6 4.7 2.8 7.6.1.2.1.3.2.5 5.5 13.7 15.4 33.7 15.4 33.7 1.1-10 7.2-17.8 10.6-25 .8-1.6 2-3.6 3.4-5.6 4.7-6.8 11.7-14.5 11.7-14.5z"/><path fill="#A4A595" d="M168.4 219.8l.8-6.3c-5.5 13.7-15.4 33.7-15.4 33.7-1.1-10-7.2-17.8-10.6-25-.8-1.6-2-3.6-3.4-5.6l-3.2 11s-.2.3-.8.7l2.4 27.2c8.4-.7 16.5-2.1 24.4-4.3 1.5-7.7 3-15.2 4.1-21.3.6-3.4 1.2-6.8 1.7-10.1z"/><path fill="#242A2F" d="M128 230v26c3.4 0 6.8-.1 10.2-.4l-2.4-27.2c-1.1.7-3.3 1.6-7.8 1.6zm88.4-9.4c7-6.7 13.2-14.2 18.6-22.3-10.9-4.1-30-11.1-43.9-16.1 10.8 10 20.9 29.4 25.3 38.4zm-48-.8c.4-2.3.7-4.6 1-6.8-.1.2-.1.3-.2.5l-.8 6.3z"/><path fill="#1B2025" d="M191.1 182.1c-.5-.4-1-.9-1.4-1.3-14.1-11.9-14.6-18-20.7-20.3-.1 1-.3 2.1-.4 3.1 3.6 1.2 3.6 8.6 3.6 8.6 6.6 5.5 3.4 21.5 0 33.2-.6 2.1-1.6 4.7-2.8 7.6-.3 2.2-.7 4.5-1 6.8-.5 3.3-1.1 6.7-1.7 10.1-1.1 6.1-2.6 13.6-4.1 21.3 20.5-5.7 38.9-16.4 53.8-30.7-4.4-8.9-14.5-28.3-25.3-38.4z"/><path fill="#C08C76" d="M152.4 171.7c-12.6 5.2-12.8 5.2-24.4 5.2v25.2s14.7-8.7 28.1-18.1c12.1-8.5 12.3-20.4 12.3-20.4h.1c.1-1 .3-2.1.4-3.1.5-3.7 1-7.2 1.3-9.6-4.1 10-8.4 16.9-17.8 20.8zm26.9-58.3s-.4-.8-.8-3.2c-.4 8.4-1.1 16.6-2.3 22.8l1.1.7c7.5 1.7 7.5-.3 7.5-6.9s0-7.5 1.1-13.2c1.1-5.7 3.4-14.6 0-17.5-1.2-1-2.7-.8-4.2-.3-1.8 1.9-2.4 6.1-2.4 10.3v7.3z"/><path fill="#22282C" d="M128 202.1v27.8c4.5 0 6.7-.9 7.8-1.6.6-.4.8-.7.8-.7l3.2-11c-4.8-6.8-11.8-14.5-11.8-14.5z"/><path fill="#D7A990" d="M177 95.5c-.6-14.2-3.7-28.3-3.7-28.3s3.7-6.6-2-17.2-11.7-24.4-43.3-24.4v151.3c11.5 0 11.7 0 24.4-5.2 9.4-3.9 13.7-10.8 17.8-20.7 1.4-3.4 2.7-7.1 4.3-11.1.7-1.8 1.3-4.1 1.8-6.8 1.2-6.3 1.9-14.4 2.3-22.8-.6-2.7-1.3-7.3-1.6-14.8zM137.6 74c3.2-.9 15.2-3 22.2 1.7s8.6 8.2 7.3 10.9c0 0-7.6-5.8-14.9-6.9-7.3-1.1-12.2 4.8-16.4 2.5-2.5-1.5-1.4-7.4 1.8-8.2z"/><path fill="#33302E" d="M128 25.6c31.6 0 37.6 13.8 43.3 24.4s2 17.2 2 17.2 3.2 14.1 3.7 28.3c.3 7.5.9 12.1 1.5 14.8.5 2.3.8 3.2.8 3.2v-7.2c0-4.2.7-8.4 2.4-10.3.3-.3.5-.5.8-.7-.2-4.2.4-9.1 1-12.6 1.1-6.2-.3-14.4 0-20.4s2.6-14.6 0-19.8c-2.6-5.2-3.7-8.9-6.6-13.2s-9.5-6.6-12.6-7.5-7.7-5.5-8.6-8.3c-.8-2.9-7.2-3.7-10.9-2.9-3.7.9-6.3 1.4-10.6-1.1-4.3-2.6-6.3 0-6.3 0v16.1z"/><path fill="#33302E" d="M135.9 82.1c4.2 2.3 9-3.6 16.4-2.5 7.3 1.1 14.9 6.9 14.9 6.9 1.3-2.7-.3-6.2-7.3-10.9s-19.1-2.6-22.2-1.7-4.4 6.8-1.8 8.2z"/><path fill="#BEBEAD" d="M156.1 184c-13.3 9.4-28.1 18.1-28.1 18.1s7 7.7 11.8 14.5c1.4 2 2.6 4 3.4 5.6 3.4 7.2 9.5 14.9 10.6 25 0 0 9.9-20 15.4-33.7.1-.2.1-.3.2-.5 1.2-2.9 2.1-5.6 2.8-7.6 3.4-11.6 6.6-27.7 0-33.2 0 0 0-7.3-3.6-8.6h-.1c-.1.1-.3 11.9-12.4 20.4z"/></svg>