<svg xmlns="http://www.w3.org/2000/svg" width="256" height="256"><circle fill="#B1B3B5" cx="128" cy="128" r="128"/><path fill="#623530" d="M196.9 235.9c11.9-7.6 22.4-17.1 31.2-28.1-7-4.6-15.3-9.7-20.8-13-2.8 10.9-6.6 25.5-10.4 41.1z"/><path fill="#512A25" d="M211.8 176.6c1.9-10.9-12.1-10.2-12.1-10.2-9.1 0-19.2-3.9-24.2-6.1.2 1.7.3 3.9-.3 3.9h-.2c-.9 0-7.2-1.1-8.2-1.3-1.8 3.2-3.7 5.9-5.7 7.6-.4.3-.7.6-1.2.9 0 .1 0 .2-.1.3 4 .8 23.2 5.5 35.6 20.8 0 0 9.6 8.1 0 16.3-3.1 2.6-10.4 10.5-19.1 21.2-.1 3.9-.2 9.8-.3 16.7 7.4-3 14.4-6.6 21-10.8 3.8-15.6 7.6-30.2 10.4-41.1 2.3-9.1 3.9-15.7 4.4-18.2zM27.9 207.8c8.8 11 19.3 20.5 31.2 28.1-3.8-15.6-7.6-30.2-10.4-41.1-5.5 3.3-13.8 8.4-20.8 13z"/><path fill="#3B1914" d="M60.8 208.9c-9.6-8.1 0-16.3 0-16.3 13.9-17.2 36.3-21 36.3-21l.3.9c-.1-.3-.1-.7-.2-1l-1.2-.9c-1.4-1.2-2.7-2.9-4-4.8-4.3 5.6-14.8 8.7-14.8 8.7l2.6-13.1c-.4 0-.8 0-1.3-.1-5.4 2.2-14.1 5.2-22 5.2 0 0-14-.6-12.1 10.2.4 2.5 2.1 9.1 4.4 18.2 2.8 10.9 6.6 25.5 10.4 41.1 6.6 4.2 13.6 7.9 21 10.8-.1-6.9-.2-12.8-.3-16.7-8.8-10.7-16.1-18.6-19.1-21.2z"/><path fill="#4C4138" d="M79.8 230.1c.1 3.9.2 9.8.3 16.7 5.4 2.2 10.9 4 16.6 5.4-5.7-8.1-11.5-15.6-16.9-22.1z"/><path fill="#A37864" d="M128.3 176.9c-12.8 0-25-1.1-31.2-5.5.1.3.1.6.2 1 1.1 3.8 1.3 6.1 1.3 6.1s.2 4.9 3.4 10.2c2.7 4.3 7.7 9.1 16.9 11.5 0 0-2.4-.6-5.6-1.8 3.8 1.6 8.6 2.7 14.7 2.7h.3v-24.2z"/><path fill="#C08C76" d="M89.1 94.4c-3.6.2-6.5-.8-6.5-.8 0 2 .4 4.3.9 6.4.6-1.3 2.2-3.3 5.6-5.6zm9-4.9c1.5-.7 3-1.2 4.5-1.6-6-3-9.5-7.8-9.5-7.8 0 5.4 2.9 8.6 4.2 9.7.3 0 .5-.2.8-.3z"/><path fill="#C08C76" d="M128.3 176.9V71.6c-3-2.5-4.9-4.2-4.9-4.2-2.2 8.9 3.5 17.6 3.5 17.6-11.8 1.9-19.5-2.2-19.5-2.2l.9 4.2c8.9-.7 14.4 2.8 14.4 2.8l.2 5.7c-3.1 0-3.6-2.6-8.4-4.8-1.8-.8-3.6-1-5.6-.9l.1.2c-.3 0-.5-.1-.8-.2-3.1.4-6.7 1.7-11.4 3.2-3.8 1.2-10.9 6.1-13.3 7.8 1.1 4.4 2.7 8 2.7 8l-5.4-4.2-2.2 20.1c.6 19.8 13.4 40.6 13.4 40.6-.1.1-.1.2-.2.3 1.3 2 2.7 3.6 4 4.8.4.3.7.6 1.2.9 6.3 4.5 18.5 5.6 31.3 5.6z"/><path fill="#564C3C" d="M114.7 90.7c4.8 2.2 5.3 4.8 8.4 4.8l-.2-5.7s-5.6-3.6-14.4-2.8l.6 2.9c1.9-.2 3.7 0 5.6.8zm-17.8 2.4c4.7-1.5 8.3-2.8 11.4-3.2-2.1-.4-4-1.1-5.7-2-1.4.4-2.9.9-4.5 1.6-.3.1-.6.3-.9.4.4.3.6.5.6.5-2.6 2.9-5.9 3.8-8.8 4-3.4 2.3-4.9 4.3-5.7 5.6.1.3.2.6.2.9 2.6-1.7 9.7-6.6 13.4-7.8z"/><path fill="#C08C76" d="M128.3 176.9v24.3c5.9 0 10.6-1.1 14.4-2.7-3.3 1.1-5.6 1.8-5.6 1.8 9.2-2.4 14.2-7.2 16.9-11.5 3.1-5.3 3.4-10.2 3.4-10.2s.2-2.4 1.4-6.5c-6.5 3.8-18.2 4.8-30.5 4.8zm31.1-5.2c.1 0 .2 0 .3.1 0-.1 0-.2.1-.3-.2 0-.3.1-.4.2z"/><path fill="#D7A990" d="M175.2 132.9c1-6.4 1-18.2-.6-21.7-1.2-2.6-3.2-8.6-4.6-12.5-3.2-2.1-7.4-4.7-10-5.6-8.1-2.6-12.9-4.6-17.7-2.4-4.8 2.2-5.3 4.8-8.4 4.8l.2-5.7s10.1-6.5 24.7-.2c4.1 1.8 7.2 3.5 9.4 5.1-2.4-2.7-10-8.1-11.7-9.3l1.2 2.9c-.1 0-.2 0-.3-.1v.1c-9.9-2-22.3-11.1-29-16.6V177c12.2 0 24-1 30.4-4.9 0-.2.1-.3.1-.5 0 0 .2 0 .5.1.1-.1.2-.1.3-.2l1.2-.9c2-1.8 3.9-4.4 5.7-7.6h-.1c4.1-6.2 7.7-23.8 8.7-30.1z"/><path fill="#5E5442" d="M134.1 89.8l-.2 5.7c3.1 0 3.6-2.6 8.4-4.8 4.8-2.2 9.6-.2 17.7 2.4 2.6.8 6.9 3.5 10 5.6-.5-1.4-.9-2.6-1.2-3.2-.1-.2-.3-.6-.7-.9-2.2-1.6-5.2-3.3-9.4-5.1-14.6-6.2-24.6.3-24.6.3z"/><path fill="#726A59" d="M181.4 147.3l3 6.3s0-.1.1-.3l-3.1-6.4c.1.1 0 .3 0 .4zm-6.3 11l4.2 3v-.2l-4.2-3v.2zm.3-25.4c1-6.4 1-18.2-.6-21.7S170 97.7 169 95.5c-1-2.2-12.8-10.5-12.8-10.5l.1.3c1.7 1.2 9.3 6.7 11.7 9.3.3.4.6.7.7.9.3.6.7 1.7 1.2 3.2 1.4 3.9 3.4 9.9 4.6 12.5 1.6 3.5 1.6 15.3.6 21.7s-4.5 23.9-8.7 30h.1c1 .2 7.3 1.3 8.2 1.3-1.5-.1-8.1-1.3-8.1-1.3 4.3-6.1 7.9-23.7 8.8-30z"/><path fill="#726A59" d="M79.7 161.3l-2.6 13.1s10.5-3.1 14.8-8.7c.1-.1.1-.2.2-.3 0 0-12.8-20.8-13.4-40.6l2.2-20.1 5.4 4.2s-1.6-3.6-2.7-8c-.1-.3-.2-.6-.2-.9-.5-2.1-.9-4.3-.9-6.4 0 0 2.9 1 6.5.8 2.9-.2 6.2-1.1 8.8-4 0 0-.2-.2-.6-.5-1.3-1.1-4.2-4.3-4.2-9.7 0 0 3.5 4.8 9.5 7.8 1.7.9 3.6 1.5 5.7 2 .3.1.5.1.8.2l-.1-.2-.6-2.9-.9-4.2s7.7 4.2 19.5 2.2c0 0-5.7-8.6-3.5-17.6 0 0 1.9 1.7 4.9 4.2 6.7 5.5 19 14.6 29 16.6v-.1c-10-2.1-22.4-11.3-28.9-16.7V25c-1 0-2-.1-3-.1-30.3 0-52.7 15.6-58.8 26.8-6.1 11.2-7.3 23.6-9.6 31.9-2.2 8.3-6.7 24.3-2.9 33.8l-.3 6.4h6.1l-3.5 12.8s6.7 3.8 11.8 1.9l-9.6 3.5s10.5 8.3 16.9 8.3l-8 6.4s6.7 3.8 10.8 4.4c.5.2 1 .2 1.4.2z"/><path fill="#11345C" d="M127.9 201.2c.1 0 .1 0 0 0-6 0-10.8-1.1-14.6-2.7-9.2-3.2-25.3-10.3-14.5-18.6 0 0 .3 4.2 3.2 8.8-3.1-5.3-3.4-10.2-3.4-10.2-6.7 1-6.8 4.9-6.8 8.3.1 6.5-2.5 8.5-2.5 8.5l-5.1 3.8c-10.1 12.5 27.7 27.5 33.9 45.7 1 3 1.9 6.8 2.8 11 2.3.1 4.6.2 6.9.2v-54.8z"/><path fill="#292E42" d="M84.3 199.1l5.1-3.8s2.6-1.9 2.5-8.5c0-3.4.1-7.3 6.8-8.3 0 0-.2-2.3-1.3-6.1l-.3-.9s-22.4 3.8-36.3 21c0 0-9.6 8.1 0 16.3 3.1 2.6 10.4 10.5 19.1 21.2 5.3 6.5 11.2 14.1 16.9 22.1 2.2.6 4.4 1 6.7 1.5-10.8-18.2-24.7-38.6-38.3-50.3 0 0-.7-2.9 3.4-3.1 0 0 21.4 22.7 39.9 54.3 4.2.6 8.4 1.1 12.7 1.3-.8-4.2-1.7-8-2.8-11-6.4-18.2-44.1-33.2-34.1-45.7z"/><path fill="#6F7256" d="M68.4 200.2c-4.1.2-3.4 3.1-3.4 3.1 13.6 11.6 27.5 32.1 38.3 50.3 1.6.3 3.2.6 4.9.9-18.3-31.6-39.8-54.3-39.8-54.3z"/><path fill="#404041" d="M102.1 188.7c-3-4.7-3.2-8.8-3.2-8.8-10.8 8.3 5.3 15.4 14.5 18.6 3.3 1.1 5.6 1.8 5.6 1.8-9.2-2.5-14.2-7.3-16.9-11.6z"/><path fill="#5B4E44" d="M159.3 252.1c5.7-1.4 11.2-3.2 16.6-5.4.1-6.9.2-12.8.3-16.7-5.4 6.6-11.2 14.1-16.9 22.1z"/><path fill="#19416D" d="M171.7 199.1l-5.1-3.8s-2.6-1.9-2.5-8.5c0-3.4-.1-7.3-6.8-8.3 0 0-.2 4.9-3.4 10.2 3-4.7 3.2-8.8 3.2-8.8 10.8 8.3-5.3 15.4-14.5 18.6-3.7 1.6-8.5 2.7-14.4 2.7h-.4V256h.1c2.3 0 4.7-.1 7-.2.8-4.2 1.7-8 2.8-11 6.3-18.2 44-33.2 34-45.7z"/><path fill="#32384E" d="M176.2 230.1c8.7-10.7 16-18.6 19.1-21.2 9.6-8.1 0-16.3 0-16.3-12.4-15.4-31.6-20-35.6-20.8-.1 0-.2 0-.3-.1-.3-.1-.5-.1-.5-.1-.1.2-.1.3-.1.5-1.2 4-1.4 6.5-1.4 6.5 6.7 1 6.8 4.9 6.8 8.3-.1 6.5 2.5 8.5 2.5 8.5l5.1 3.8c10.1 12.5-27.7 27.5-33.9 45.7-1 3-1.9 6.8-2.8 11 4.3-.2 8.5-.7 12.7-1.3 18.4-31.6 39.9-54.3 39.9-54.3 4.1.2 3.4 3.1 3.4 3.1-13.6 11.6-27.5 32.1-38.3 50.3 2.2-.4 4.5-.9 6.7-1.5 5.5-8.1 11.3-15.6 16.7-22.1z"/><path fill="#929372" d="M190.9 203.4s.7-2.9-3.4-3.1c0 0-21.4 22.7-39.9 54.3 1.6-.3 3.3-.5 4.9-.9 10.9-18.2 24.8-38.7 38.4-50.3z"/><path fill="#404041" d="M137 200.2s2.4-.6 5.6-1.8c9.2-3.2 25.3-10.3 14.5-18.6 0 0-.3 4.2-3.2 8.8-2.7 4.4-7.7 9.2-16.9 11.6z"/><path fill="#897F6B" d="M128.3 66.1v5.2c6.6 5.4 18.9 14.6 28.9 16.7.1 0 .2 0 .3.1l-1.2-2.9-.1-.3S168 93.2 169 95.4c1 2.2 4.2 12.1 5.7 15.6s1.6 15.3.6 21.7-4.5 23.9-8.7 30c0 0 6.6 1.1 8.1 1.3h.2c.6 0 .5-2.2.3-3.9-.1-.9-.2-1.6-.2-2v-.2l4.2 3 .2.2s.9-9.4 1.8-14c0-.1.1-.3.1-.4l3.1 6.4.1.3s5.1-10.5 8.9-14.7c3.8-4.2-1.3-12.5-.6-19.2.6-6.7 2.9-25.2 2.9-25.2-1-7.7-5.1-28.1-12.1-37.4-6.9-9-17.7-31.2-55.4-32.2v41.4z"/></svg>