<svg id="Layer_1" xmlns="http://www.w3.org/2000/svg" width="256" height="256"><style>.st1{fill:none}.st2{fill:#756b40}.st3{fill:#5e3c30}.st5{fill:#764931}.st7{fill:#a59968}.st8{fill:#9a8f61}.st9{fill:#897d4c}.st10{fill:#bfb58e}.st13{fill:#56502c}</style><g id="XMLID_1_"><circle id="XMLID_54_" cx="128.5" cy="128.5" r="128" fill="#b2b4b5"/><g id="XMLID_55_"><path id="XMLID_58_" class="st1" d="M226.2 104.1l-.2-.2c.1.1.1.2.2.2z"/><path id="XMLID_120_" class="st1" d="M31 103.9c-.1.1-.2.1-.2.2.1 0 .1-.1.2-.2z"/><path id="XMLID_121_" class="st2" d="M155.1 245.5c-8.2 1.4-17.1 2.3-26.6 2.3v8.7c10.1 0 19.9-1.2 29.4-3.4l-2.9-7.6h.1z"/><path id="XMLID_122_" class="st2" d="M220.9 215.8c.2-.1.5-.2.9-.3.4-.3.9-.5 1.3-.8 6.9-7.6 12.9-15.9 17.8-25-2.1.7-4.2 1.6-6.1 2.9-5.2 3.7-10 10.9-13.9 23.2z"/><path id="XMLID_123_" class="st3" d="M145 181.7c-1.7.2-4.1 3.4-6.7 2.2-2.6-1.2-4.6-.4-7.2.3-2.1.6-2.5.2-2.6.1v9c.8 0 44.8-.8 52.4-18 4.1-9.3 2.1-16.8-.6-21.9-.1.2-.2.3-.3.5-6.1 11.3-26 29.9-26 29.9-3.8.6-3.8-1.4-3.8-1.4s.4-1.7 1-4.3c-.5.4-.9.7-1.1.7-1.3 0-3.4 2.6-5.1 2.9z"/><path id="XMLID_124_" d="M180.9 175.1c-7.6 17.2-51.6 18-52.4 18v23.8c.4 0 29.3 1.1 44.3-8.1 8.5-5.3 15-11.9 19.1-16.8-1-.9-1.9-1.6-2.3-1.9-2-1.4-3.3-2.5-2.3-6.7.7-22.1-6.5-31-6.5-31l.1-.1c-.2.3-.3.7-.5 1 2.6 5 4.6 12.5.5 21.8z" fill="#3c1913"/><path id="XMLID_125_" class="st5" d="M138.5 159.9s-3.1 1.4-4.6 3.1c-1.4 1.7.5 4.1 1.2 4.1s12-1.1 13.7-3.8c1.7-2.7 3.6-14.1 2.2-16.8-1.4-2.6-5.5-5.4-22.5-5.4v19.4c.2-.1 6-2.3 10-.6z"/><path id="XMLID_126_" class="st5" d="M139 132.8c3.1-1.9 13.2 2.4 17.5 11.7l.4.8c1.5-13.3 3.2-31.4 3.2-31.4L174 99l1.5-5.1h-.1v-4.8l.1-.1c-2.7-5.3-10.7-4.8-15.4-4-12.3 7.6-22.7 13.1-22.7 13.1l-2.2 7.3h-6.7V135c.2 0 7.5-.3 10.5-2.2z"/><path id="XMLID_127_" d="M128.5 141.1c17 0 21.1 2.8 22.5 5.4 1.4 2.6-.5 14-2.2 16.8-1.7 2.7-12.9 3.8-13.7 3.8-.7 0-2.6-2.4-1.2-4.1 1.4-1.7 4.6-3.1 4.6-3.1-4-1.6-9.8.5-10 .6v23.7c.1.2.5.5 2.6-.1 2.6-.7 4.6-1.5 7.2-.3 2.6 1.2 5-1.9 6.7-2.2 1.7-.2 3.8-2.9 5-3.1.2 0 .7-.3 1.1-.7 1.2-5.4 3.2-14.7 4.3-21.1.4-2.5.9-6.6 1.5-11.4l-.4-.8c-4.3-9.3-14.4-13.7-17.5-11.7-3.1 1.9-10.3 2.1-10.5 2.2v6.1z" fill="#2f2626"/><path id="XMLID_128_" class="st7" d="M128.5 61.8v20.9c6.1-3.3 11.8-6.6 17.1-9.9h-.3s12.6-13.3 13.9-27.3c1.3-14 1.4-30.5 1.4-30.6-13.1-6.5-31.9-6-32.1-6v52.9z"/><path id="XMLID_129_" class="st7" d="M168.6 16.3S165 33.5 167.5 41c2.2 6.4 16.3 0 20.4-2 5.3-5.6 9.6-11 13.2-15.9-6.1-4.2-12.5-7.9-19.3-11-5.1 2.3-9.9 3.5-13.2 4.2z"/><path id="XMLID_130_" class="st8" d="M145.4 72.8h.3C164.5 61 178 49.5 188 39c-4.1 2-18.2 8.4-20.4 2-2.6-7.5 1.1-24.7 1.1-24.7-3-3.2-8-1.4-8-1.4 0 .1-.1 16.6-1.4 30.6-1.3 14-13.9 27.3-13.9 27.3z"/><path id="XMLID_131_" class="st8" d="M186.4 66.7c-7.7 6.4-17.5 12.9-26.3 18.4 4.7-.8 12.7-1.3 15.4 4 1.4-1 21.8-16.3 32.4-24.5 4.7-3.7 13.1-9.8 21-15.5-4.1-5.2-8.6-10-13.4-14.5-8.8 12.7-19.4 24.1-29.1 32.1z"/><path id="XMLID_132_" class="st9" d="M145.6 72.8c-5.3 3.3-11 6.6-17.1 9.9v22.9h6.7l2.2-7.3s10.4-5.5 22.7-13.1c8.8-5.4 18.6-12 26.3-18.4 9.7-8 20.3-19.4 29-32.1-4.5-4.2-9.3-8-14.3-11.5-3.5 4.8-7.8 10.2-13.1 15.8-10 10.5-23.5 22-42.4 33.8z"/><path id="XMLID_133_" class="st7" d="M175.5 89c0 .1-.1.1 0 0l-.1 4.8h.1l.1-.3s7.8-5.1 20.9-4.9c11.9.1 26.8 13 29.5 15.3.1.1.2.1.2.2-.1-.4-.4-2.7 1.3-4.2 1.4-1.2 2.6-1.2 3.4-.7 0 0-6.2-5.2-6.8-9.6 0 0 7.7-10.7 16.3-23.5-.7-1.3-1.5-2.6-2.3-3.9l-19.5 26.3c-8.9-6.2-25.9-4.5-25.9-4.5 5.4-4.4 23.8-20.2 38.1-32.5-.6-.9-1.3-1.7-2-2.5-7.9 5.7-16.2 11.8-21 15.5-10.4 8.3-30.9 23.5-32.3 24.5z"/><path id="XMLID_134_" class="st8" d="M218.6 88.6l19.5-26.3c-2.2-3.7-4.7-7.3-7.3-10.7-14.3 12.3-32.6 28.1-38.1 32.5.1 0 17-1.7 25.9 4.5z"/><path id="XMLID_138_" class="st9" d="M160.1 114s-1.6 18.1-3.2 31.4c-.5 4.8-1.1 8.9-1.5 11.4-1.1 6.3-3.1 15.6-4.3 21.1-.6 2.6-1 4.3-1 4.3s0 2.1 3.8 1.4c0 0 20-18.5 26-29.9.1-.2.2-.3.3-.5.2-.3.4-.7.5-1l2.6-5c3.6-7.1 5-10.8 5-10.8s-1-27 13.1-31.9c0 0 6.1-1.1 15.1 6.9-.8-1-.6-2.7 1.1-3.6 1.8-.9 4 .8 4 .8s-.6-2.6 1.4-3.9c1.9-1.3 3.2-.6 3.2-.6l-.2-.2c-2.6-2.3-17.6-15.2-29.5-15.3-13.1-.2-20.9 4.9-20.9 4.9l-.1.3L174 99l-13.9 15zm38-9.4c-20.4 23.5-12 29.5-18.4 42.9s-26.8 33.3-26.8 33.3c8.6-12.2 17-37.1 22.5-54.1s22.7-22.1 22.7-22.1z"/><path id="XMLID_139_" class="st10" d="M226.2 104.2s-1.3-.7-3.2.6c-1.9 1.3-1.4 3.9-1.4 3.9s-2.2-1.7-4-.8c-1.7.9-1.9 2.6-1.1 3.6l.4.4c.6.4 1.6.5 2.8-.1 2.5-1.1 1.9-2.7 1.9-2.7s2.7.8 4.4-.7c1.7-1.5.4-3.8.4-3.8s1.9 1.2 4-.7c1.7-1.5 1.5-3.7.3-4.5-.8-.6-2-.5-3.4.7-1.5 1.3-1.2 3.5-1.1 4.1 0-.1 0-.1 0 0 0-.1 0 0 0 0z"/><path id="XMLID_140_" class="st8" d="M152.8 180.7s20.4-19.9 26.8-33.3-1.9-19.4 18.4-42.9c0 0-17.2 5-22.8 22s-13.8 42-22.4 54.2z"/><path id="XMLID_141_" d="M191.9 191.9c-4.1 4.9-10.6 11.5-19.1 16.8-15 9.3-43.9 8.2-44.3 8.1v1.9c.4 0 33.1-1.9 48.8 6.2 0 0 16.4-13.7 26.2-22.6-2.2-1.9-8.1-7.4-11.6-10.4z" fill="#4f4f65"/><path id="XMLID_142_" class="st8" d="M190.8 146.4c5.1 17.6-3.2 36.4-3.5 37-1.1 4.2.3 5.2 2.3 6.7.5.3 1.3 1 2.3 1.9 3.5 3 9.4 8.4 11.6 10.5 1.8-1.6 3.3-3.1 4.5-4.3l-3.3-9.8-8.9-6.4s1.8-.5 4-8.1c2.2-7.7-4.1-11.8-4.1-11.8s-.6-13.9 0-15.6-5.9-5.3-5.9-5.3l2.2 3.1-1.2 2.1z"/><path id="XMLID_143_" class="st8" d="M209.2 175.9c-.4 2.6-5.2 7.3-3.2 8.3s4.1-.3 6-4.9-.4-11.9-.4-11.9c-2-1.3-4.1-2.3-6.1-3.1 3.4 4.6 4 9.1 3.7 11.6z"/><path id="XMLID_144_" d="M180.8 152.3l-.1.1s7.2 9 6.5 31c.3-.6 8.6-19.4 3.5-37l1.2-2.2-2.2-3.1-4.9 6.8-1.4-.7v.1l-2.6 5z" fill="#454227"/><path id="XMLID_145_" class="st9" d="M199.8 173.8c-2.2 7.7-4 8.1-4 8.1l8.9 6.4 3.3 9.8 1-1c6.7-7.1 13.2-16.1 11.4-22 0 0-3.6-5.8-8.8-7.7 0 0 2.3 7.4.4 11.9s-4 5.8-6 4.9 2.9-5.7 3.2-8.3c.4-2.6-.2-7-3.7-11.6-4.5-2.1-9.9-2.3-9.9-2.3s6.4 4.2 4.2 11.8z"/><path id="XMLID_146_" class="st7" d="M209 197.2l-1 1c-1.2 1.2-2.7 2.7-4.5 4.3-9.8 8.9-26.2 22.6-26.2 22.6-15.7-8.1-48.4-6.3-48.8-6.2v29c9.5 0 18.4-.9 26.6-2.3 24.6-7.1 40.9-13.8 50.2-18.1l1.3-4.6s6.5-2.3 13.9-6.6l.2-.4s.1 0 .2-.1c3.9-12.3 8.7-19.5 13.9-23.2 1.9-1.3 4-2.2 6.1-2.9 1-1.8 1.9-3.5 2.8-5.3-12.5-3.2-23.3-9.3-23.3-9.3 1.7 5.9-4.7 14.9-11.4 22.1z"/><path id="XMLID_147_" class="st9" d="M205.4 227.4c-9.3 4.3-25.6 11-50.2 18.1h-.1l2.9 7.6c17-4 32.7-11.4 46.3-21.4l1.1-4.3z"/><path id="XMLID_148_" class="st8" d="M222.6 215.3l.5-.5c-.4.3-.9.5-1.3.8.2-.1.5-.2.8-.3z"/><path id="XMLID_149_" class="st8" d="M220.5 216.3c-7.3 4.3-13.9 6.6-13.9 6.6l-1.3 4.6-1.2 4.3c5.6-4.1 10.8-8.6 15.6-13.5l.8-2z"/><path id="XMLID_150_" class="st9" d="M220.9 215.8c-.1 0-.2.1-.2.1l-.2.4-.8 1.9c1-1 1.9-2 2.8-3-.3.1-.6.2-.8.3-.3.2-.6.3-.8.3z"/><path id="XMLID_151_" class="st13" d="M101.9 245.5h.1l-2.9 7.6c9.4 2.2 19.3 3.4 29.4 3.4v-8.7c-9.5 0-18.4-.9-26.6-2.3z"/><path id="XMLID_152_" class="st13" d="M36.1 215.8c-3.9-12.3-8.7-19.5-13.9-23.2-1.9-1.3-4-2.2-6.1-2.9 4.9 9 10.9 17.4 17.8 25 .4.3.9.5 1.3.8.4.2.7.3.9.3z"/><path id="XMLID_153_" d="M76.1 175.1c7.7 17.4 52.4 18 52.4 18V184s0 .7-2.6 0-4.6-1.5-7.2-.3c-2.6 1.2-5-1.9-6.7-2.2-1.7-.2-3.8-2.9-5-3.1-.2 0-.7-.3-1.1-.7.6 2.6 1 4.3 1 4.3s0 2.1-3.8 1.4c0 0-20-18.5-26-29.9-.1-.2-.2-.3-.3-.5-2.8 5.3-4.8 12.8-.7 22.1z" fill="#4c2f24"/><path id="XMLID_154_" d="M128.5 193.2s-44.8-.6-52.4-18c-4.1-9.3-2.1-16.8.6-21.9-.2-.3-.4-.7-.5-1l.1.1s-7.2 9-6.5 31c1.1 4.2-.3 5.2-2.3 6.7-.5.3-1.3 1-2.3 1.9 4.1 4.9 10.6 11.5 19.1 16.8 15.1 9.3 44.3 8.1 44.3 8.1v-23.7z" fill="#260200"/><path id="XMLID_155_" class="st3" d="M121.8 105.5l-2.2-7.3s-10.4-5.5-22.7-13.1c-4.7-.8-12.7-1.3-15.4 4l.1.1V94h-.1l1.5 5 13.9 15s1.6 18.1 3.2 31.4l.4-.8c4.3-9.3 14.4-13.7 17.5-11.7s10.5 2.2 10.5 2.2v-29.5h-6.7z"/><path id="XMLID_156_" class="st3" d="M128.5 141.1c-17 0-21.1 2.8-22.5 5.4s.5 14 2.2 16.8c1.7 2.7 12.9 3.8 13.7 3.8.7 0 2.6-2.4 1.2-4.1-1.4-1.7-4.6-3.1-4.6-3.1 4.1-1.7 10.1.6 10.1.6v-19.4z"/><path id="XMLID_157_" d="M101.5 156.8c1.1 6.3 3.1 15.6 4.3 21.1.5.4.9.7 1.1.7 1.2.2 3.4 2.9 5 3.1 1.7.2 4.1 3.4 6.7 2.2 2.6-1.2 4.6-.4 7.2.3 2.6.7 2.6 0 2.6 0v-23.6s-6-2.3-10.1-.6c0 0 3.1 1.4 4.6 3.1 1.4 1.7-.5 4.1-1.2 4.1s-12-1.1-13.7-3.8c-1.7-2.7-3.6-14.1-2.2-16.8s5.5-5.4 22.5-5.4V135s-7.4-.2-10.5-2.2-13.2 2.4-17.5 11.7l-.4.8c.7 4.8 1.2 9 1.6 11.5z" fill="#271e1f"/><path id="XMLID_158_" class="st8" d="M111.6 72.8h-.3c5.3 3.3 11 6.6 17.1 9.9V8.9c-.2 0-19.1-.5-32.1 6 0 .1.1 16.6 1.4 30.6 1.3 14 13.9 27.3 13.9 27.3z"/><path id="XMLID_159_" class="st8" d="M89.4 41c2.6-7.5-1.1-24.7-1.1-24.7-3.3-.6-8.1-1.8-13.2-4.2-6.8 3.1-13.2 6.8-19.3 11C59.4 28 63.7 33.4 69 39c4.2 2 18.3 8.4 20.4 2z"/><path id="XMLID_160_" class="st9" d="M89.4 41c-2.2 6.4-16.3 0-20.4-2 9.9 10.5 23.5 22 42.3 33.7h.3S99 59.5 97.8 45.5c-1.3-14-1.4-30.5-1.4-30.6s-5-1.8-8 1.4c0 0 3.6 17.2 1 24.7z"/><path id="XMLID_161_" class="st8" d="M81.5 89c2.7-5.3 10.7-4.8 15.4-4-8.8-5.4-18.6-12-26.3-18.4-9.7-8-20.3-19.4-29-32.1-4.8 4.5-9.3 9.3-13.4 14.5 7.9 5.7 16.2 11.8 21 15.5C59.6 72.8 80.1 88 81.5 89z"/><path id="XMLID_162_" class="st2" d="M70.6 66.7c7.7 6.4 17.5 12.9 26.3 18.4 12.3 7.6 22.7 13.1 22.7 13.1l2.2 7.3h6.7V82.6c-6.2-3.3-11.9-6.6-17.1-9.9C92.5 61 79 49.5 69 39c-5.3-5.6-9.6-11-13.2-15.9-5.1 3.5-9.8 7.3-14.3 11.5 8.8 12.7 19.4 24.1 29.1 32.1z"/><path id="XMLID_163_" class="st8" d="M26.1 99.3c.8-.6 2-.5 3.4.7 1.7 1.5 1.4 3.7 1.3 4.2l.2-.2c2.6-2.3 17.6-15.2 29.5-15.3 13.1-.2 20.9 4.9 20.9 4.9l.1.3h.1v-4.8l-.1-.1c-1.4-1-21.8-16.3-32.4-24.5-4.7-3.7-13.1-9.8-21-15.5-.7.8-1.3 1.7-2 2.5C40.4 63.8 58.7 79.6 64.2 84c0 0-16.9-1.8-25.9 4.5L18.9 62.3c-.8 1.3-1.5 2.6-2.3 3.9C25.3 79 33 89.7 33 89.7c-.6 4.3-6.9 9.6-6.9 9.6z"/><path id="XMLID_164_" class="st9" d="M64.2 84.1c-5.4-4.4-23.8-20.2-38.1-32.5-2.6 3.4-5 7-7.3 10.7l19.5 26.3c9-6.2 25.9-4.5 25.9-4.5z"/><path id="XMLID_168_" class="st2" d="M76.2 152.3c.2.3.3.7.5 1 .1.2.2.3.3.5 6.1 11.3 26 29.9 26 29.9 3.8.6 3.8-1.4 3.8-1.4s-.4-1.7-1-4.3c-1.2-5.4-3.2-14.7-4.3-21.1-.4-2.5-.9-6.6-1.5-11.4-1.5-13.3-3.2-31.4-3.2-31.4L83 99l-1.5-5.1-.1-.3s-7.8-5.1-20.9-4.9c-11.9.1-26.8 13-29.5 15.3l-.2.2s1.3-.7 3.2.6c1.9 1.3 1.4 3.9 1.4 3.9s2.2-1.7 4-.8c1.7.9 1.9 2.6 1.1 3.6 9-8 15.1-6.9 15.1-6.9 14 4.9 13.1 31.9 13.1 31.9s1.4 3.7 5 10.8l2.5 5zm-17.3-47.7s17.2 5 22.8 22 13.9 41.9 22.5 54.1c0 0-20.4-19.9-26.8-33.3s1.9-19.4-18.5-42.8z"/><path id="XMLID_169_" class="st10" d="M39.3 107.8c-1.8-.9-4 .8-4 .8s.6-2.6-1.4-3.9c-1.9-1.3-3.2-.6-3.2-.6.1-.4.4-2.7-1.3-4.2-1.4-1.2-2.6-1.2-3.4-.7-1.2.8-1.4 3 .3 4.5 2.1 1.9 4 .7 4 .7s-1.3 2.3.4 3.8c1.7 1.5 4.4.7 4.4.7s-.6 1.6 1.9 2.7c1.2.5 2.2.5 2.8.1.2-.1.3-.2.4-.4 1.1-.9.8-2.6-.9-3.5z"/><path id="XMLID_170_" class="st9" d="M104.2 180.7c-8.6-12.2-17-37.1-22.5-54.1s-22.8-22-22.8-22c20.4 23.5 12 29.5 18.4 42.9s26.9 33.2 26.9 33.2z"/><path id="XMLID_171_" d="M128.5 216.9s-29.2 1.2-44.3-8.1c-8.5-5.3-15-11.9-19.1-16.8-3.5 3-9.4 8.4-11.6 10.5 9.8 8.9 26.2 22.6 26.2 22.6 15.8-8.1 48.9-6.2 48.9-6.2v-2h-.1z" fill="#3c3c4f"/><path id="XMLID_172_" class="st9" d="M45.1 179.4c1.9 4.6 4 5.8 6 4.9s-2.9-5.7-3.2-8.3c-.4-2.6.2-7 3.7-11.6-2 .8-4 1.7-6.1 3.1-.1-.1-2.4 7.3-.4 11.9z"/><path id="XMLID_173_" class="st9" d="M65.1 191.9c1-.9 1.9-1.6 2.3-1.9 2-1.4 3.3-2.5 2.3-6.7-.3-.6-8.6-19.4-3.5-37l-1.2-2.2 2.2-3.1s-6.4 3.6-5.9 5.3 0 15.6 0 15.6-6.4 4.2-4.1 11.8c2.2 7.7 4 8.1 4 8.1l-8.9 6.4L49 198c1.2 1.2 2.7 2.7 4.5 4.3 2.2-1.9 8.1-7.4 11.6-10.4z"/><path id="XMLID_174_" d="M66.2 146.4c-5.1 17.6 3.2 36.4 3.5 37-.7-22.1 6.5-31 6.5-31l-.1-.1-2.6-5v-.1l-1.4.7-4.9-6.8-2.2 3.1 1.2 2.2z" fill="#2f2d15"/><path id="XMLID_175_" class="st2" d="M52.3 188.4l8.9-6.4s-1.8-.5-4-8.1c-2.2-7.7 4.1-11.8 4.1-11.8s-5.3.2-9.9 2.3c-3.4 4.6-4 9-3.7 11.6.4 2.6 5.2 7.3 3.2 8.3s-4.1-.3-6-4.9.4-11.9.4-11.9c-5.1 1.9-8.8 7.7-8.8 7.7-1.8 5.9 4.7 14.9 11.4 22l1 1 3.4-9.8z"/><path id="XMLID_176_" class="st8" d="M36.1 215.8c.1 0 .2.1.2.1l.2.4c7.3 4.3 13.9 6.6 13.9 6.6l1.3 4.6c9.3 4.3 25.6 11 50.2 18.1 8.2 1.4 17.1 2.3 26.6 2.3v-29s-33-1.9-48.9 6.2c0 0-16.4-13.7-26.2-22.6-1.8-1.6-3.3-3.1-4.5-4.3l-1-1c-6.7-7.1-13.2-16.1-11.4-22 0 0-10.8 6.1-23.3 9.3.9 1.8 1.8 3.6 2.8 5.3 2.1.7 4.2 1.6 6.1 2.9 5.3 3.6 10.1 10.8 14 23.1z"/><path id="XMLID_177_" class="st2" d="M101.9 245.5c-24.6-7.1-40.9-13.8-50.2-18.1l1.2 4.3c13.6 10 29.3 17.4 46.3 21.4l2.9-7.6h-.2z"/><path id="XMLID_178_" class="st9" d="M33.9 214.7c.2.2.3.4.5.5.3.1.6.2.8.3-.4-.2-.9-.5-1.3-.8z"/><path id="XMLID_179_" class="st9" d="M51.6 227.4l-1.3-4.6s-6.5-2.3-13.9-6.6l.8 1.9c4.8 4.9 10 9.4 15.6 13.5l-1.2-4.2z"/><path id="XMLID_180_" class="st2" d="M36.5 216.3l-.2-.4s-.1 0-.2-.1c-.2-.1-.5-.2-.9-.3-.2-.1-.5-.2-.8-.3.9 1 1.9 2 2.8 3l-.7-1.9z"/></g></g></svg>