<svg xmlns="http://www.w3.org/2000/svg" width="256" height="256"><circle fill="#B1B3B5" cx="128" cy="128" r="128"/><path fill="#CCAD9F" d="M242.8 173.5c-3.7-.5-17.3-2.3-27.1-5-7.4-2.1-19.8-3.8-27.7-4.8-.1.3-.2.7-.3 1-1.3 2.9-4.2 6.8-5.9 10.6 0 .1.1.1.1.1l-.6 6.4c5.2 3.7 7.4 8.2 7.4 8.2.6.6 1.2 1.3 1.9 1.9 0 0 4.8.2 4.8 5 .1.1.2.2.2.3 1.7-1 3-1.8 3-1.8s9.6 11.2 16.9 20.2c3.4-2.3 10.3-7 16.4-12.7 4.9-6.7 9.1-14 12.6-21.6.2-3.9-.9-6.5-1.7-7.8z"/><path fill="#292D33" d="M242.8 173.5c.8 1.3 1.9 3.9 1.6 7.9 1.2-2.6 2.3-5.2 3.3-7.9l-5.8-1.1c0-.1.4.3.9 1.1zm-92.9 65.9c0-4.8 19.5-21.1 24.6-23.9 2.9-1.6 10.3-6 16.3-9.6-1.9-.9-3.4-1.8-3.2-2.6.3-1.2 4.7-4.2 7.9-6.1-.1-.1-.2-.2-.2-.3 0 0-11.8 1-14.3 3.2-2.6 2.2-47.9 45.3-47.9 45.3v10.4c5.7-.2 11.3-.8 16.8-1.8-.1-7.4 0-12.9 0-14.6zm16.5-103.5c-.8-2.5-1.5-5.1-2.2-7.5-1.2 5-5.2 10.6-11.1 18.4 12.2-5.4 13.3-10.9 13.3-10.9z"/><path fill="#292D33" d="M172.3 235.9c4.7-4.4 27.1-11.9 35.5-14.6-2.7-3-5.2-5.8-6.9-7.9-5.2 1.5-12.1 3.6-15.2 4.9-5.1 2.2-18.2 6.4-24.9 21.7-1.4 4-2.3 8.2-2.9 12.4 1.8-.4 3.5-.9 5.3-1.4 2.6-8.4 6-12.2 9.1-15.1zm-20.1-86.1l-8.3 9.1c22.4-1.1 25.7-13.9 25.7-13.9-.5-1.2-1-2.4-1.4-3.7v.1c-4.5 5.7-16 8.4-16 8.4zm20.4 3.2c-12.3 9.5-27.6 11.3-34.5 11.6-2 1.6-3.7 2.6-5.1 3.1v7.8s8-.6 12.5-1.9c0 0 4.5 1.3 1.9 4.5s-14.4 3.8-14.4 3.8v30.7s10.4-1.9 7.6 6.1-7.6 18.8-7.6 18.8 42.8-41.8 46.6-42.8c3.8-1 10.8-2.8 10.8-2.8l-1.9-1.9s-5.4-1.4-9.9-1.4-25.2 23-25.2 23c-4.2-5.1 14.4-22 17.1-25.2 2.7-3.2 5.6-14 5.6-14 1.8-.9 5.1 2.4 5.6 3 1.7-3.8 4.6-7.7 5.9-10.6.2-.4.3-.7.3-1-8.3 1.4-15.3-10.8-15.3-10.8zm45.4 66c5-4.9 9.6-10.3 13.7-16-6.1 5.6-13 10.4-16.4 12.7 1 1.1 1.9 2.2 2.7 3.3z"/><path fill="#12665A" d="M153.1 146.8c-2.1 2.8-4.5 5.9-7 9.3-3 4-5.7 6.7-8 8.6 6.8-.3 22.2-2.1 34.5-11.6 0 0 7.1 12.2 15.4 10.6 0 0 2.2-6.3-1.9-6.9-4.2-.6-7.8-.6-16.4-11.7 0 0-3.4 12.9-25.7 13.9l8.3-9.1s11.6-2.7 16-8.5v-.1l-1.8-5.4v-.1c-.1.1-1.2 5.6-13.4 11zm27.8 53.3c2.6-2.2 14.3-3.2 14.3-3.2 0-4.8-4.8-5-4.8-5s-7 1.8-10.8 2.8c-3.8 1-46.6 42.8-46.6 42.8s4.8-10.9 7.6-18.8-7.6-6.1-7.6-6.1v-30.7s11.8-.6 14.4-3.8-1.9-4.5-1.9-4.5c-4.5 1.3-12.5 1.9-12.5 1.9v-7.8c-3.3 1.3-5 .4-5 .4V256c1.7 0 3.3 0 5-.1v-10.4s45.3-43.1 47.9-45.4z"/><path fill="#12665A" d="M176.1 172.3s-2.9 10.9-5.6 14c-2.7 3.2-21.2 20.1-17.1 25.2 0 0 20.8-23 25.2-23 4.5 0 9.9 1.4 9.9 1.4s-2.2-4.5-7.4-8.2l.6-6.4-.1-.1c-.4-.5-3.7-3.7-5.5-2.9zm-3.8 63.6c-3.1 2.9-6.5 6.7-9 15.2 17.9-5.1 34.2-14.1 48-25.9-1.2-1.3-2.4-2.7-3.5-4-8.4 2.8-30.9 10.3-35.5 14.7z"/><path fill="#12665A" d="M185.7 218.3c3-1.3 10-3.4 15.2-4.9-1.2-1.4-2.1-2.4-2.4-2.9-1.2-1.7-4.9-3.3-7.7-4.6-6 3.6-13.4 8-16.3 9.6-5.1 2.9-24.6 19.2-24.6 23.9 0 1.7-.1 7.3-.1 14.7 2.7-.5 5.5-1 8.1-1.7.5-4.2 1.4-8.4 2.9-12.4 6.7-15.3 19.8-19.4 24.9-21.7z"/><path fill="#1B2927" d="M198.5 195.4s-1.3.7-3 1.8c-3.1 1.9-7.6 4.9-7.9 6.1-.2.8 1.3 1.6 3.2 2.6 2.7 1.3 6.4 2.9 7.7 4.6.3.5 1.2 1.5 2.4 2.9 1.7 2 4.2 4.8 6.9 7.9 1.1 1.3 2.3 2.6 3.5 4 2.3-2 4.6-4.1 6.8-6.2-.8-1.1-1.7-2.2-2.7-3.3-7.3-9.1-16.9-20.4-16.9-20.4z"/><path fill="#061915" d="M128 6.3V13s11.9.2 18.6 5.6c-.5-5-1.1-8.1-1.1-8.1 13.7.6 19.8 12.8 19.8 12.8.3 6.4-2.2 16.3-2.2 16.3 15 22 4.2 58.8 4.2 58.8s-.8 1.5-2.7 4c0 7.5 0 15.3.1 19.9 2-4.2 4.9-12.9 8.4-30.9 0 0 38 17.6 50.8 48.9l3.5-23s7.7-9.5 18.8-12.1c0 0 3.4 2.3 8.8 5.9-1.5-11.3-4.5-22.1-8.7-32.3-.5.2-.9.3-1.4.4L202 52l4.2-12.8s19.2 1 24.3 15c0 0 .5-.4 1.5-1C217.2 32.8 196.6 17 172.7 8l-6.9 2 3.4-3.3c-4.4-1.5-8.9-2.8-13.5-3.8l-10.5 7.4c-.1.1-5.9-4-17.2-4zm91.2 77.6s-17.6 1.3-45-12.8v-6.7s31.6 9.3 45 19.5zm-23-47.9l-6.7 10.2c-6.1-3.5-16-4.8-16-4.8l-2.6-7c11.9-1.3 25.3 1.6 25.3 1.6z"/><path fill="#DEBCAD" d="M149.6 128s-4.5-12.5-9.6-13.8c-5.1-1.3-12-11.5-12-11.5v42.2s1.3.2 2.5-.8c1.8-.8 4.1-.1 5.4 1.3 2.5 2.2 2.7 2.8 5.3 3.7 0 0-2.3 3.9-13.2 3.9v15.2s1.7.8 5-.4c1.4-.6 3.1-1.5 5.1-3.1 2.3-1.9 5-4.6 8-8.6 2.6-3.4 4.9-6.5 7-9.3 5.9-7.8 9.9-13.4 11.1-18.4.3-1.2.5-2.4.4-3.6 0-.7-.1-1.6-.1-2.6-.1-4.6-.1-12.4-.1-19.9-1 1.4-2.3 3-4 4.9-4.7 5.4-10.8 20.8-10.8 20.8z"/><path fill="#334943" d="M161.1 91.2c-5.7-1.3-33.1 11.5-33.1 11.5s6.9 10.2 12 11.5c5.1 1.3 9.6 13.8 9.6 13.8s6.1-15.4 10.9-20.8c1.7-1.9 3-3.6 4-4.9 1.9-2.5 2.7-4 2.7-4s-.4-5.8-6.1-7.1z"/><path fill="#22302E" d="M128 75.3v5.4c20.4-15.1 20-47.1 18.6-62.1C139.9 13.2 128 13 128 13v62.3z"/><path fill="#1B2927" d="M128 80.7v22.1s27.4-12.8 33.1-11.5c5.7 1.3 6.1 7 6.1 7S178 61.5 163 39.5c0 0 2.6-9.9 2.2-16.3 0 0-6.1-12.1-19.8-12.8 0 0 .6 3.1 1.1 8.1 1.5 15.1 1.9 47.1-18.5 62.2z"/><path fill="#744548" d="M141.2 149.1c-2.6-.9-2.8-1.5-5.3-3.7-1.3-1.4-3.6-2.1-5.4-1.3-1.2 1-2.5.8-2.5.8v8.1c10.9 0 13.2-3.9 13.2-3.9z"/><path fill="#B49A8E" d="M57.5 195.4s1.3.7 3 1.8c.1-.1.2-.2.2-.3 0-4.8 4.8-5 4.8-5l1.9-1.9s2.2-4.5 7.4-8.2l-.6-6.4.1-.1c-1.7-3.8-4.6-7.7-5.9-10.6-.2-.4-.3-.7-.3-1-7.9 1-20.3 2.8-27.7 4.8-9.8 2.8-23.4 4.6-27.1 5-.8 1.3-1.9 3.9-1.6 7.9 3.5 7.6 7.7 14.9 12.6 21.6 6.1 5.6 13 10.4 16.4 12.7 7.2-9 16.8-20.3 16.8-20.3z"/><path fill="#20242A" d="M83.4 153s-7.1 12.2-15.4 10.6c.1.3.2.7.3 1 1.3 2.9 4.2 6.8 5.9 10.6.5-.6 3.8-3.8 5.6-3 0 0 2.9 10.9 5.6 14 2.7 3.2 21.2 20.1 17.1 25.2 0 0-20.8-23-25.2-23-4.5 0-9.9 1.4-9.9 1.4-.6.6-1.2 1.3-1.9 1.9 0 0 7 1.8 10.8 2.8 3.8 1 46.6 42.8 46.6 42.8s-4.8-10.9-7.6-18.8 7.6-6.1 7.6-6.1v-30.7s-11.8-.6-14.4-3.8 1.9-4.5 1.9-4.5c4.5 1.3 12.5 1.9 12.5 1.9v-7.8c-1.4-.6-3.1-1.5-5.1-3.1-6.8-.1-22.1-1.8-34.4-11.4zm19.5-6.2C97 139 93 133.4 91.8 128.4c-.6 2.4-1.4 5-2.2 7.5v-.1c0 .1 1.1 5.6 13.3 11zm9.2 12.1l-8.3-9.1s-11.6-2.7-16-8.5v-.1c-.5 1.3-.9 2.5-1.4 3.7 0 .1 3.4 13 25.7 14zm-41.8 59.4c-3-1.3-10-3.4-15.2-4.9-1.7 2-4.2 4.8-6.9 7.9 8.4 2.7 30.8 10.2 35.5 14.6 3.1 2.9 6.5 6.7 9 15.2 1.7.5 3.5 1 5.3 1.4-.5-4.2-1.4-8.4-2.9-12.4-6.6-15.4-19.7-19.5-24.8-21.8z"/><path fill="#20242A" d="M75.1 200.1c-2.6-2.2-14.3-3.2-14.3-3.2-.1.1-.2.2-.2.3 3.1 1.9 7.6 4.9 7.9 6.1.2.8-1.3 1.6-3.2 2.6 6 3.6 13.4 8 16.3 9.6 5.1 2.9 24.6 19.2 24.6 23.9 0 1.7.1 7.3.1 14.7 5.5.9 11.1 1.5 16.8 1.8v-10.4c-.1 0-45.4-43.1-48-45.4zm-61.9-26.6c.5-.8.9-1.2.9-1.2l-5.8 1.1c1 2.7 2.1 5.3 3.3 7.9-.3-3.9.8-6.5 1.6-7.8zM24.3 203c4.1 5.7 8.7 11.1 13.7 16 .8-1.1 1.7-2.2 2.7-3.3-3.5-2.3-10.4-7.1-16.4-12.7z"/><path fill="#004B41" d="M83.4 153c12.3 9.5 27.6 11.3 34.5 11.6-2.3-1.9-5-4.6-8-8.6-2.6-3.4-4.9-6.5-7-9.3-12.1-5.3-13.2-10.9-13.2-10.9v.1l-1.8 5.4v.1c4.5 5.7 16 8.5 16 8.5l8.3 9.1c-22.4-1.1-25.8-14-25.8-14-8.6 11.1-12.3 11.1-16.4 11.7-4.2.6-1.9 6.9-1.9 6.9 8.3 1.6 15.3-10.6 15.3-10.6zm39.6 14.8v7.8s-8-.6-12.5-1.9c0 0-4.5 1.3-1.9 4.5S123 182 123 182v30.7s-10.4-1.9-7.6 6.1 7.6 18.8 7.6 18.8-42.8-41.8-46.6-42.8c-3.8-1-10.8-2.8-10.8-2.8s-4.8.2-4.8 5c0 0 11.8 1 14.3 3.2 2.6 2.2 47.9 45.3 47.9 45.3v10.4c1.7.1 3.3.1 5 .1v-87.8s-1.7.8-5-.4z"/><path fill="#004B41" d="M102.6 211.6c4.2-5.1-14.4-22-17.1-25.2-2.7-3.2-5.6-14-5.6-14-1.8-.9-5.1 2.4-5.6 3 0 .1-.1.1-.1.1l.6 6.4c-5.2 3.7-7.4 8.2-7.4 8.2s5.4-1.4 9.9-1.4c4.5-.1 25.3 22.9 25.3 22.9zm-18.9 24.3c-4.7-4.4-27.1-11.9-35.5-14.6-1.1 1.3-2.3 2.6-3.5 4 13.8 11.8 30.1 20.7 48 25.9-2.5-8.6-5.9-12.4-9-15.3z"/><path fill="#004B41" d="M106.1 239.4c0-4.8-19.5-21.1-24.6-23.9-2.9-1.6-10.3-6-16.3-9.6-2.7 1.3-6.4 2.9-7.7 4.6-.3.5-1.2 1.5-2.4 2.9 5.2 1.5 12.1 3.6 15.2 4.9 5.1 2.2 18.2 6.4 24.9 21.7 1.4 4 2.3 8.2 2.9 12.4 2.7.6 5.4 1.2 8.1 1.7 0-7.5-.1-13-.1-14.7z"/><path fill="#0B1A18" d="M55.2 213.4c1.2-1.4 2.1-2.4 2.4-2.9 1.2-1.7 4.9-3.3 7.7-4.6 1.9-.9 3.4-1.8 3.2-2.6-.3-1.2-4.7-4.2-7.9-6.1-1.7-1-3-1.8-3-1.8s-9.6 11.2-16.9 20.2c-.9 1.2-1.8 2.3-2.7 3.3 2.2 2.2 4.4 4.2 6.8 6.2 1.2-1.3 2.4-2.7 3.5-4 2.7-2.9 5.1-5.7 6.9-7.7z"/><path fill="#000300" d="M28.8 117.1l3.5 23c12.8-31.3 50.8-48.9 50.8-48.9 3.5 18.1 6.4 26.7 8.4 30.9.1-4.6.1-12.4.1-19.9-1.9-2.5-2.7-4-2.7-4S78 61.5 93 39.5c0 0-2.6-9.9-2.2-16.3 0 0 6.1-12.1 19.8-12.8 0 0-.6 3.1-1.1 8.1C116.1 13.2 128 13 128 13V6.3c-11.3 0-17.1 4.2-17.1 4.2L100.3 3c-4.6 1-9.1 2.3-13.5 3.8l3.4 3.3-6.9-2C59.4 17 38.8 32.8 24.1 53.2c1 .6 1.5 1 1.5 1 5.1-14 24.3-15 24.3-15L54 52 11.2 79.1c-.5-.1-.9-.3-1.4-.4-4.2 10.2-7.2 21-8.7 32.3 5.4-3.6 8.8-5.9 8.8-5.9 11.2 2.4 18.9 12 18.9 12zM85 34.4l-2.6 7s-9.9 1.3-16 4.8L59.8 36s13.4-2.9 25.2-1.6zm-3.2 30v6.7c-27.5 14-45 12.8-45 12.8 13.4-10.2 45-19.5 45-19.5z"/><path fill="#CCAD9F" d="M128 155.7V153c-10.9 0-13.2-3.9-13.2-3.9 2.6-.9 2.8-1.5 5.3-3.7 1.3-1.4 3.6-2.1 5.4-1.3 1.2 1 2.5.8 2.5.8v-42.2s-6.9 10.2-12 11.5c-5.1 1.3-9.6 13.8-9.6 13.8s-6.1-15.4-10.9-20.8c-1.7-1.9-3-3.6-4-4.9 0 7.5 0 15.3-.1 19.9 0 1.1 0 1.9-.1 2.6 0 1.2.1 2.4.4 3.6 1.2 5 5.2 10.6 11.1 18.4 2.1 2.8 4.5 5.9 7 9.3 3 4 5.7 6.7 8 8.6 2 1.6 3.7 2.6 5.1 3.1 3.3 1.3 5 .4 5 .4v-12.5z"/><path fill="#22302E" d="M106.4 128s4.5-12.5 9.6-13.8c5.1-1.3 12-11.5 12-11.5S100.6 90 94.9 91.2c-5.7 1.3-6.1 7-6.1 7s.8 1.5 2.7 4c1 1.4 2.3 3 4 4.9 4.8 5.5 10.9 20.9 10.9 20.9z"/><path fill="#1B2927" d="M128 80.7V13s-11.9.2-18.6 5.6c-1.4 15-1.8 47 18.6 62.1z"/><path fill="#142220" d="M94.9 91.2c5.7-1.3 33.1 11.5 33.1 11.5v-22c-20.4-15.1-20-47.1-18.6-62.1.5-5 1.1-8.1 1.1-8.1-13.7.6-19.8 12.8-19.8 12.8-.3 6.3 2.3 16.2 2.3 16.2-15 22-4.2 58.8-4.2 58.8s.4-5.8 6.1-7.1z"/><path fill="#673D40" d="M125.5 144.1c-1.8-.8-4.1-.1-5.4 1.3-2.5 2.2-2.7 2.8-5.3 3.7 0 0 2.3 3.9 13.2 3.9v-8.1s-1.3.3-2.5-.8z"/></svg>