<svg xmlns="http://www.w3.org/2000/svg" width="256" height="256"><circle fill="#B1B3B5" cx="128" cy="128" r="128"/><path fill="#C08C76" d="M156.1 170.7c-12.9 10.7-28.1 6-28.1 6v20.8c28.6 0 36.5-20 36.5-20s2.7-8.5 3.2-13l.1-1.9.2-3.6c-3.1 3.8-7.1 7.7-11.9 11.7zm27.5-72.8c-.2 1.3-.5 2.9-.8 4.7v.3c1 5.3-3.1 17.6-3.1 17.6-.6 3.4-1.1 6.7-1.6 9.7 4.4.3 7.4-1.7 10.6-3.3 4.3-2.2 1.7-15.6 1.9-19.4.2-3.8 3.1-12-1.4-15.1-.4-.3-.8-.4-1.2-.5-.5.4-3 2.9-4.4 6z"/><path fill="#D7A990" d="M182.7 102.6c.3-1.8.6-3.3.8-4.7-.6 1.5-1 3.1-.8 4.7zm-3.1 17.9s2.7-38.7-2.6-47.8c-5.3-9.1-9.3-16.9-9.3-21.7s-10.1-12.9-10.1-12.9c-.8-2.6-3.2-1.4-3.2-1.4s-16.2-4.6-26.5-4v144.1s15.2 4.7 28.1-6c4.8-4 8.8-7.9 11.9-11.8 5.2-6.4 8.1-12.6 8.7-18.9.2-2.2.7-5.7 1.3-9.9.6-3 1.1-6.3 1.7-9.7zm-10.2-34h-1.1l-.2 2.4s-9.7-3.5-11.3-3.2c-1.6.3-10.7 1.6-13.6 2.4-2.9.8-4-.3-3.5-3.5 1.7-2.7 14.2-4.6 20-3.7 5.7 1 11.2 3.7 11.2 3.7H169l.4 1.9z"/><path fill="#6B4E41" d="M157.7 38.1l3.4-10.4-6.6 9c0-.1 2.4-1.2 3.2 1.4z"/><path fill="#483328" d="M128 32.7c10.3-.6 26.5 4 26.5 4l6.6-9-3.4 10.4s10.1 8.1 10.1 12.9 4 12.6 9.3 21.7c5.3 9.1 2.6 47.8 2.6 47.8s4.1-12.4 3.1-17.6v-.3c-.2-1.6.2-3.2.8-4.7 1.4-3.1 3.9-5.6 4.4-6l.1-.1s2.7-11.6 7-18.3c5.3-14.8-.5-24.9-10.5-38.3-10.1-13.4-23-9-23-9C157.2 8 128 8.4 128 8.4v24.3z"/><path fill="#6B4E41" d="M159.6 81c-5.7-1-18.3 1-20 3.7-.5 3.2.6 4.3 3.5 3.5 2.9-.8 12-2.1 13.6-2.4 1.6-.3 11.3 3.2 11.3 3.2l.2-2.4h1.1l-.5-1.9h1.9c.1-.1-5.3-2.8-11.1-3.7z"/><path fill="#51575F" d="M163.5 192.8c-13.7 15.3-35.5 12-35.5 12V256c9.7 0 19.1-1.1 28.2-3.1 2.7-18 5.7-40.2 7.3-60.1z"/><path fill="#444951" d="M128 197.5v7.3s21.8 3.3 35.5-12c.4-5.3.8-10.4 1-15.3 0 0-7.9 20-36.5 20z"/><path fill="#303641" d="M170.9 167.7c.1.4.2.8.2 1.3l17.9 20.9-3.2 34.2-19.8 5.3c-.1.6-.2 1.2-.2 1.8l18.7 9.1-.5 2.8c18.7-9.1 34.9-22.6 47.1-39.2-14.3-8.3-17.2-7.7-30.7-16.3-13.5-8.4-24.8-16.5-29.5-19.9z"/><path fill="#1C212A" d="M170 197.5c-.8 6.4-2.3 18.3-4.1 31.9l19.8-5.3 3.2-34.2-17.8-20.9c0 .2 0 .3.1.5 0 0 .2 16.4-1.2 28zm-4.3 33.8c-.8 6.4-1.7 13.2-2.6 19.9 7.2-2.1 14.2-4.7 20.8-8l.5-2.8-18.7-9.1z"/><path fill="#242A34" d="M165.9 229.4c1.8-13.6 3.3-25.5 4.1-31.9 1.4-11.6 1.2-28.1 1.2-28.1 0-.2 0-.3-.1-.5-.1-.4-.1-.9-.2-1.3-.9-3.8-3.1-5.1-3.1-5.1 0 .5 0 1.1-.1 1.9-.6 4.6-3.2 13-3.2 13-.2 4.8-.6 10-1 15.3-1.6 19.9-4.6 42.1-7.3 60.1 2.3-.5 4.6-1.1 6.8-1.7.9-6.7 1.8-13.5 2.6-19.9.2-.6.3-1.2.3-1.8z"/><path fill="#B17D6B" d="M128 197.5v-20.8s-15.2 4.7-28.1-6c-4.8-4-8.8-7.9-11.9-11.8l.3 5.5c.6 4.6 3.2 13 3.2 13s7.9 20.1 36.5 20.1zm-54.8-94.6v-.3c-.3-1.8-.6-3.3-.8-4.7-1.4-3.1-3.9-5.6-4.4-6-.4.1-.8.3-1.2.5-4.6 3.1-1.7 11.3-1.4 15.1.2 3.8-2.4 17.2 1.9 19.4 3.3 1.6 6.3 3.7 10.6 3.3-.5-3-1-6.3-1.6-9.7.1 0-4-12.4-3.1-17.6z"/><path fill="#C08C76" d="M99.9 170.7c12.9 10.7 28.1 6 28.1 6v-144c-10.3-.6-20.4 4.6-28.2 12.6-3.3 3.4-15.5 18.3-20.8 27.4-5.3 9.1-2.6 47.8-2.6 47.8.6 3.4 1.1 6.7 1.6 9.7.6 4.1 1.1 7.6 1.3 9.9.6 6.3 3.4 12.5 8.7 18.9 3.1 3.8 7.1 7.7 11.9 11.7zM85.2 84.6s5.4-2.7 11.2-3.7c5.7-1 18.3 1 20 3.7.5 3.2-.6 4.3-3.5 3.5s-12-2.1-13.6-2.4c-1.6-.3-11.3 3.2-11.3 3.2l-.2-2.4h-1.1l.5-1.9h-2zM72.4 97.9c.2 1.3.5 2.9.8 4.7.3-1.6-.1-3.2-.8-4.7z"/><path fill="#362419" d="M72.4 97.9c.7 1.5 1.1 3.1.8 4.7v.3c-1 5.3 3.1 17.6 3.1 17.6s-2.7-38.7 2.6-47.8c5.3-9.1 17.5-24 20.8-27.4 7.8-8 17.9-13.2 28.2-12.6V8.4s-34.4-1-56.4 29.7C56.3 57.7 53.1 64.4 63 73.2c2.7 6.2 4.8 18.6 4.8 18.6l.1.1c.6.4 3.1 2.9 4.5 6z"/><path fill="#362419" d="M87.8 86.5l.2 2.4s9.7-3.5 11.3-3.2c1.6.3 10.7 1.6 13.6 2.4s4-.3 3.5-3.5c-1.7-2.7-14.2-4.6-20-3.7-5.7 1-11.2 3.7-11.2 3.7h1.9l-.5 1.9h1.2z"/><path fill="#444951" d="M128 204.8s-21.8 3.3-35.5-12c1.6 19.9 4.6 42.1 7.3 60.1 9.1 2 18.5 3.1 28.2 3.1v-51.2z"/><path fill="#30343B" d="M91.5 177.5c.2 4.8.6 10 1 15.3 13.7 15.3 35.5 12 35.5 12v-7.3c-28.6 0-36.5-20-36.5-20z"/><path fill="#242A34" d="M90.3 231.3c-.1-.6-.2-1.2-.2-1.8l-19.8-5.3-3.3-34.3L84.9 169c.1-.4.1-.9.2-1.3-4.7 3.4-16 11.5-29.4 20.1-13.5 8.6-16.4 8-30.7 16.3 12.3 16.6 28.4 30.1 47.1 39.2l-.5-2.8 18.7-9.2z"/><path fill="#11161F" d="M70.2 224.1l19.8 5.3c-1.8-13.6-3.3-25.5-4.1-31.9-1.4-11.6-1.2-28.1-1.2-28.1 0-.2 0-.3.1-.5l-17.8 21 3.2 34.2zm1.4 16.3l.5 2.8c6.6 3.2 13.6 5.9 20.8 8-.9-6.7-1.8-13.5-2.6-19.9l-18.7 9.1z"/><path fill="#1C212A" d="M92.5 192.8c-.4-5.3-.8-10.4-1-15.3 0 0-2.7-8.5-3.2-13-.1-.8-.1-1.4-.1-1.9 0 0-2.2 1.3-3.1 5.1-.1.4-.2.8-.2 1.3 0 .2 0 .3-.1.5 0 0-.2 16.5 1.2 28.1.8 6.4 2.3 18.3 4.1 31.9.1.6.2 1.2.2 1.8.8 6.4 1.7 13.2 2.6 19.9 2.2.6 4.5 1.2 6.8 1.7-2.6-18-5.6-40.2-7.2-60.1z"/></svg>