<svg xmlns="http://www.w3.org/2000/svg" width="256" height="256"><circle fill="#B1B3B5" cx="128" cy="128" r="128"/><path fill="#4E545F" d="M139.4 244.6v10.9c15.7-1.4 30.6-5.6 44.2-12.1-16.8 2.3-33.6 1.9-44.2 1.2z"/><path fill="#6F7375" d="M130.5 243.8c.3 1.7.1 4.2-2.5 7.4v4.8c3.8 0 7.6-.2 11.4-.5v-10.9c-3.9-.3-6.9-.5-8.9-.8z"/><path fill="#3B3128" d="M128 36.6V12.9c56.6 0 54 63.5 53.5 70.9 1.3-.7 2.6-1.1 3.7-.9 4.8 1 2.1 8.3 2.1 10.5 0 1.9-.2 10.1-1.3 15.5.7 2.6 1.4 5.3 1.9 7.8 1.6 7.3 4.3 20.6 5.2 33.4l.3-1 8.7 7.5c-.4-1.2-1-2.6-1.6-4.2-3.2-7.5-4.5-18.4-4.5-22 0-3.6-1.4-8.4-2-12.5s-2.5-23.7-2.5-26.8-1.8-12.9-3.2-15.6c-1.4-2.6-1.8-10.5-2.7-15.3s-2.9-15.6-7-18.2c-4-2.6-8.7-14.6-12.5-20.4s-12.7-8.9-17.5-13.2c-4.8-4.3-11.1-3.4-13.8-1.9-2.8 1.6-6.8 1.9-6.8 1.9v28.2zm42.2 96.3c.1-.5.1-.9.2-1.4-.1.2-.2.5-.3.7 0 .2 0 .5.1.7z"/><path fill="#4E545F" d="M193.1 150.2c.3 4.5.4 8.8.2 12.9-.2 4 .5 8.6 1.8 13.3 1.2-5.2 2.7-10.8 2.7-10.8l5.4-2.2 2.3-2.3h1.6l-5-4.3-8.7-7.5-.3.9z"/><path fill="#3C3F4F" d="M242.9 165.6l-4.3-3.2-4.1 1-6.8-2.3h-3.6l-7.5-1.1-3.9 1.1h-7.2l-2.3 2.3-5.4 2.2s-1.5 5.5-2.7 10.8c.4 1.4.8 2.7 1.2 4 7-3 20.2-8 27.7-6.2 5.8 1.4 13.1 5.1 19.2 9.5 1.9-3.9 3.6-8 5.1-12.1-1-1.7-2.5-4.6-2.5-4.6l-2.9-1.4zm-45.1 18.1c-.1 0-.2-.1-.3-.1 0 .1.1.2.1.3 0-.1.1-.2.2-.2z"/><path fill="#342518" d="M225.3 198.1c-3-5.4-20-9.9-20-9.9s-1.7-2.8-7.5-4.6c-.1.1-.2.1-.2.2 3.8 10.4 8.8 19.2 8.8 19.2-1.9-.6-3.5-1.9-5-3.5l-4.2 1.3c2.2 11.3 5.8 25.5 5.8 25.5l-6-10.2c1.2 6.1.6 13.5-.7 20.2 11.1-7 21-15.6 29.4-25.6.6-5.4.8-10.4-.4-12.6zm-51 9.8l-.2.1c-4.9 2.7-4.6 8.1-4.6 8.1-1.2-1.6-2-3.7-2.4-5.9l-35.6 11.1c.5 2 .6 3.5-.6 4.4-2.8 1.9 1 5.7-.9 8.6-1.9 2.9-.2 7.7-.2 7.7s.5.7.8 2c2 .2 5 .5 8.9.8 10.7.7 27.4 1.1 44.2-1.3 1.5-.7 3-1.5 4.5-2.3-2.8-4.4-6.6-7.5-8.3-10.6-3.1-5.4-5.4-21.6-5.6-22.7z"/><path fill="#C08C76" d="M168.2 136.3c.6-.3 1.2-.8 1.7-1.3l.3-2.1c0-.2-.1-.5-.1-.7-.6 1.3-1.2 2.7-1.9 4.1zm-17.3 26.3c-2 1.2-5.2 6.5-7.7 11.2l-1.1-3.7s-2.7 4.2-3.4 5.4c-.7 1.2-4.3 6.5-4.1 5 .2-1.4.7-4.8.7-4.8l-3.9 6.9-.3.2c.3 1.2.6 2.7.4 4.2 13.9-5 25.4-14.9 33.1-23.1 1.4-4.2 2.6-8.2 3-11.2.4-3 1.3-10.1 2.2-17.1-2.6 4.7-7.5 13.3-9.6 15.6-3 3.3-7.3 10.2-9.3 11.4z"/><path fill="#252023" d="M174.3 207.9c-.1 0-.1.1-.2.1l.2-.1zm22.9-7.1l4.2-1.3c-3.8-4.3-5.9-10.6-5.9-10.6 0 2.3.7 6.8 1.7 11.9zm-65.7-13.6c0 .3-.1.6-.1.8-.9 3.6.7 3.8.2 9.8-.4 6-.9 7.2-1.6 13.7-.4 3.7.9 7.1 1.5 9.8l35.6-11.1c-1.7-8.4.9-19.3.9-19.3l-4.7 4.9c-1.1 2.1-2.6 3.7-4.4 4.6l4.4-4.6c4-7.4 3.7-19.7 2.3-19-1.8.9-6.7 17.6-6.7 17.6s.9-6.1 1.5-14c.3-4.6 2.4-10.6 4.2-16.2-7.7 8.1-19.2 18-33.1 23z"/><path fill="#292722" d="M196.3 180.4c.3 1.1.7 2.1 1.1 3.2.1 0 .2.1.3.1 5.9 1.7 7.5 4.6 7.5 4.6s16.9 4.5 20 9.9c1.2 2.2 1.1 7.2.5 12.5 6.9-8.2 12.8-17.2 17.6-27-6.1-4.4-13.5-8.1-19.2-9.5-7.6-1.9-20.8 3.2-27.8 6.2z"/><path fill="#483D32" d="M197 216.1l6 10.2s-3.6-14.2-5.8-25.5c-1-5.1-1.7-9.6-1.7-11.9 0 0 2.1 6.3 5.9 10.6 1.4 1.6 3.1 2.9 5 3.5 0 0-5-8.8-8.8-19.2 0-.1-.1-.2-.1-.3-.4-1-.7-2.1-1.1-3.2-.4-1.3-.8-2.7-1.2-4-1.2-4.6-2-9.2-1.8-13.3.2-4 .1-8.4-.2-12.9-.9-12.8-3.7-26.1-5.2-33.4-.5-2.5-1.2-5.1-1.9-7.8-.2 1.1-.5 2.2-.8 3-1.6 4.1-4.5 9-11.8 8.2-.7 4.2-1.7 7.8-3.1 11.4-.1.5-.1.9-.2 1.4l-.3 2.1c.4-.3.7-.7 1-1.2.4-.7.6-1.1.6-1.1-.2.4-.4.8-.6 1.1-.3.5-.6 1.2-1.1 2-.9 7-1.8 14-2.2 17.1-.4 3-1.7 7-3 11.2-1.8 5.6-3.9 11.7-4.2 16.2-.6 8-1.5 14-1.5 14s4.8-16.7 6.7-17.6c1.4-.7 1.7 11.6-2.3 19l4.7-4.9s-2.6 10.9-.9 19.3c.5 2.2 1.2 4.3 2.4 5.9 0 0-.3-5.4 4.6-8.1.1 0 .1-.1.2-.1v.1c.1 1 2.5 17.3 5.4 22.5 1.7 3.1 5.5 6.2 8.3 10.6 2.8-1.5 5.6-3.1 8.3-4.8 1.2-6.6 1.9-14 .7-20.1z"/><path fill="#483D32" d="M163.3 195.8l-4.4 4.6c1.8-.9 3.3-2.5 4.4-4.6z"/><path fill="#C08C76" d="M185.2 82.9c-1.1-.2-2.3.2-3.7.9 0 .5-.1.7-.1.7l1.1 7.9-4-4.8s-2.2 6.5-3 9.9c0 .8-.1 1.5-.1 2.3v.6c.3 2.6 1.4 6.3-.1 9.2l-.9 2.1c-.3 3.1-.6 5.8-1.1 8.3 7.2.8 10.2-4 11.8-8.2.3-.8.6-1.8.8-3 1.1-5.5 1.3-13.7 1.3-15.5.1-2.1 2.8-9.4-2-10.4z"/><path fill="#D7A990" d="M140.5 142.4c.4-.3.7-.4.7-.4-.3.1-.5.3-.7.4-1.6 1-5.7 3.8-5.7 5.6 0 2.2 1.1 5.5 1.1 5.5s2.9-3.4 7.3-4.6c4.3-1.2 4.5-2.4 4.5-4.3s-1.4-4.1-2-4.8-4.1-4.6-4.1-4.6l-3.4-2.4v2.4l-5.7-2.6-2.9 1.2H128v12s8.2-.8 12.5-3.4zM128 36.6v16.1zm47.4 63.9v-.6c.1-.8.1-1.6.1-2.3-.1.6-.2 1-.2 1.4 0 .3.1.9.1 1.5z"/><path fill="#D7A990" d="M173.1 119.3s-1.4 1.7-2.1-3.4c-.7-5 2.3-27.5 2-31.6s-4.5-8.6-7-14.6-1.4-10.8-1.4-10.8l-7-4.8 1.1-4.9s-6.4 1.3-8.2 1.3c-1.8 0-1.8-3.4-1.8-3.4s-7.9 4.8-8.8 4.6c-.9-.2 0-6 0-6l-12 6.9v75.2s2.9.7 5-1.4c0 0 2 1.4 7.3 1.6 5.2.1 7.5 5.6 7.5 6.8 0 1.2 3.4 6.5 4.3 7.9.9 1.4 7-1.9 8.6-3.8 1.1-1.3 4.6-1.1 7.5-2.6.7-1.4 1.3-2.8 1.9-4.1.1-.2.2-.5.3-.7 1.4-3.6 2.4-7.2 3.1-11.4.4-2.5.8-5.2 1.1-8.3-1.1 3.4-1.4 7.5-1.4 7.5zm-38.3-35.5s1.6-1.9 7.9-3.6 16.1 1.8 16.1 1.8-7.7.6-7.7 1.8c0 1.2-2.5.5-5.7 0-3.1-.5-8.8 2.6-10.6 0z"/><path fill="#483D32" d="M140 45.7s-.9 5.7 0 6c.9.2 8.8-4.6 8.8-4.6s0 3.4 1.8 3.4 8.2-1.3 8.2-1.3l-1.1 4.9 7 4.8s-1.1 4.8 1.4 10.8c2.5 6 6.8 10.5 7 14.6s-2.7 26.6-2 31.6c.7 5 2.1 3.4 2.1 3.4s.3-4 1.4-7.4c.2-.8.5-1.5.9-2.1 1.5-2.9.4-6.6.1-9.2-.1-.6-.1-1.1-.1-1.6 0-.3.1-.8.2-1.4.8-3.4 3-9.9 3-9.9l4 4.8-1.1-7.9s0-.2.1-.7c.5-7.4 3.1-70.9-53.5-70.9v39.7l11.8-7zm28.2 90.6c-2.9 1.5-6.4 1.3-7.5 2.6-1.6 1.9-7.7 5.3-8.6 3.8-.9-1.4-4.3-6.7-4.3-7.9 0-1.2-2.3-6.7-7.5-6.8-5.2-.1-7.3-1.6-7.3-1.6-2 2.2-5 1.4-5 1.4v6h1.6l2.9-1.2 5.7 2.6v-2.4l3.4 2.4s3.4 3.8 4.1 4.6 2 2.9 2 4.8-.2 3.1-4.5 4.3c-4.3 1.2-7.3 4.6-7.3 4.6s-1.1-3.4-1.1-5.5c0-1.7 4.1-4.5 5.7-5.6-4.3 2.6-12.5 3.4-12.5 3.4V182l2-1.9s.6 1.2 1.1 2.9l.3-.2 3.9-6.9s-.5 3.4-.7 4.8c-.2 1.4 3.4-3.8 4.1-5 .7-1.2 3.4-5.4 3.4-5.4l1.1 3.7c2.5-4.6 5.7-10 7.7-11.2 2-1.2 6.4-8.1 9.3-11.3 2.1-2.2 7-10.9 9.6-15.6.4-.8.8-1.4 1.1-2-.3.5-.6.9-1 1.2-.5.4-1.1.9-1.7 1.2zm2.7-2.5c.2-.4.4-.7.6-1.1 0 0-.2.4-.6 1.1z"/><path fill="#483D32" d="M140.5 142.4c.2-.1.4-.3.7-.4-.1 0-.3.2-.7.4zM130 211.5c.7-6.5 1.1-7.7 1.6-13.7.4-6-1.1-6.2-.2-9.8.1-.3.1-.6.1-.8.2-1.5-.1-3-.4-4.2-.5-1.7-1.1-2.9-1.1-2.9l-2 1.9v69.3c2.6-3.1 2.8-5.7 2.5-7.4-.2-1.3-.8-2-.8-2s-1.8-4.8.2-7.7c1.9-2.9-1.9-6.7.9-8.6 1.2-.8 1.1-2.4.6-4.4-.5-2.6-1.8-6.1-1.4-9.7zm15.5-127.7c3.2.5 5.7 1.2 5.7 0s7.7-1.8 7.7-1.8-9.8-3.5-16.1-1.8-7.9 3.6-7.9 3.6c1.7 2.6 7.4-.5 10.6 0z"/><path fill="#3C3F4F" d="M72.5 243.4c13.6 6.5 28.5 10.8 44.2 12.1v-10.9c-10.7.7-27.5 1.1-44.2-1.2z"/><path fill="#646869" d="M125.5 243.8c-2 .2-5 .5-8.9.8v10.9c3.7.3 7.5.5 11.4.5v-4.8c-2.6-3.1-2.8-5.7-2.5-7.4z"/><path fill="#2E251C" d="M62.9 150.2c.9-12.8 3.7-26.1 5.2-33.4.5-2.5 1.2-5.1 1.9-7.8-1.1-5.5-1.3-13.7-1.3-15.5 0-2.2-2.7-9.6 2.1-10.5 1.1-.2 2.3.2 3.7.9-.5-7.4-3.1-71 53.5-71v23.7V8.4s-4-.2-6.8-1.7c-2.7-1.4-9.1-2.4-13.8 1.9-4.8 4.3-13.6 7.4-17.5 13.2s-8.5 17.7-12.5 20.4c-4 2.6-6.1 13.4-7 18.2-.9 4.8-1.4 12.7-2.7 15.3s-3.2 12.5-3.2 15.6-1.8 22.7-2.5 26.8-2 8.9-2 12.5c0 3.6-1.4 14.6-4.5 22-.7 1.6-1.2 3-1.6 4.2l8.7-7.5.3.9zm22.8-18.7c.1.5.1.9.2 1.4 0-.2.1-.5.1-.7-.2-.2-.2-.5-.3-.7z"/><path fill="#3C3F4F" d="M52.7 163.4l5.4 2.2s1.5 5.5 2.7 10.8c1.2-4.6 2-9.2 1.8-13.3-.2-4-.1-8.4.2-12.9l-.3-1-8.7 7.5-5 4.3h1.6l2.3 2.4z"/><path fill="#2C2E3C" d="M59.7 180.4c.4-1.3.8-2.7 1.2-4-1.2-5.2-2.7-10.8-2.7-10.8l-5.4-2.2-2.3-2.3h-7.2l-3.9-1.1-7.5 1.1h-3.6l-6.8 2.3-4.1-1-4.3 3.2-2.9 1.4s-1.5 2.9-2.5 4.6c1.5 4.1 3.2 8.2 5.1 12.1 6.1-4.4 13.5-8.1 19.2-9.5 7.5-1.9 20.7 3.2 27.7 6.2zm-1.2 3.4c0-.1.1-.2.1-.3-.1 0-.2.1-.3.1 0 .1.1.2.2.2z"/><path fill="#241607" d="M59 216.1l-6 10.2s3.6-14.2 5.8-25.5l-4.2-1.3c-1.4 1.6-3.1 2.9-5 3.5 0 0 5-8.8 8.8-19.2-.1-.1-.2-.1-.2-.2-5.9 1.7-7.5 4.6-7.5 4.6s-16.9 4.5-20 9.9c-1.2 2.2-1.1 7.2-.5 12.5 8.4 10 18.3 18.6 29.4 25.6-1.1-6.6-1.8-14-.6-20.1zm57.6 28.5c3.9-.3 6.9-.6 8.9-.8.2-1.3.8-2 .8-2s1.8-4.8-.2-7.7c-1.9-2.9 1.9-6.7-.9-8.6-1.2-.8-1.1-2.4-.6-4.4L89 210.2c-.5 2.2-1.2 4.3-2.4 5.9 0 0 .3-5.4-4.6-8.1l-.2-.1c-.1 1-2.5 17.3-5.4 22.5-1.7 3.1-5.5 6.2-8.3 10.6 1.5.8 3 1.6 4.5 2.3 16.6 2.4 33.4 2 44 1.3z"/><path fill="#9C7360" d="M124.5 187.2c-.2-1.5.1-3 .4-4.2l-.3-.2-3.9-6.9s.5 3.4.7 4.8c.2 1.4-3.4-3.8-4.1-5-.7-1.2-3.4-5.4-3.4-5.4l-1.1 3.7c-2.5-4.6-5.7-10-7.7-11.2-2-1.2-6.4-8.1-9.3-11.3-2.1-2.2-7-10.9-9.6-15.6.9 7 1.8 14 2.2 17.1.4 3 1.7 7 3 11.2 7.7 8.1 19.2 18 33.1 23zm-36.7-50.9c-.7-1.4-1.3-2.8-1.9-4.1 0 .2-.1.5-.1.7l.3 2.1c.5.5 1.1 1 1.7 1.3z"/><path fill="#1E181B" d="M126 211.5c-.7-6.5-1.1-7.7-1.6-13.7-.4-6 1.1-6.2.2-9.8-.1-.3-.1-.6-.1-.8-13.9-5-25.4-14.9-33.1-23.1 1.8 5.6 3.9 11.7 4.2 16.2.6 8 1.5 14 1.5 14s-4.8-16.7-6.7-17.6c-1.4-.7-1.7 11.6 2.3 19l4.4 4.6c-1.8-.9-3.3-2.6-4.4-4.6l-4.7-4.9s2.6 10.9.9 19.3l35.6 11.1c.6-2.6 1.9-6.1 1.5-9.7zm-44.3-3.6l.2.1c-.1-.1-.1-.1-.2-.1zm-21.2-19s-2.1 6.3-5.9 10.6l4.2 1.3c1-5.1 1.7-9.6 1.7-11.9z"/><path fill="#1C1A15" d="M30.7 198.1c3-5.4 20-9.9 20-9.9s1.7-2.8 7.5-4.6c.1 0 .2-.1.3-.1.4-1 .7-2.1 1.1-3.2-7-3-20.2-8-27.7-6.2-5.8 1.4-13.1 5.1-19.2 9.5 4.7 9.7 10.6 18.8 17.6 27-.6-5.3-.8-10.3.4-12.5z"/><path fill="#3B3128" d="M81.7 207.9c.1 0 .1 0 .2.1 4.9 2.7 4.6 8.1 4.6 8.1 1.2-1.6 2-3.7 2.4-5.9 1.7-8.4-.9-19.3-.9-19.3l4.7 4.9c-4-7.4-3.7-19.7-2.3-19 1.8.9 6.7 17.6 6.7 17.6s-.9-6.1-1.5-14c-.3-4.6-2.4-10.6-4.2-16.2-1.4-4.2-2.6-8.2-3-11.2-.4-3-1.3-10.1-2.2-17.1-.4-.8-.8-1.4-1.1-2-.2-.4-.4-.7-.6-1.1 0 0 .2.4.6 1.1.3.5.6.9 1 1.2l-.3-2.1c-.1-.5-.1-.9-.2-1.4-1.4-3.6-2.4-7.2-3.1-11.4-7.2.8-10.2-4-11.8-8.2-.3-.8-.6-1.8-.8-3-.7 2.6-1.4 5.3-1.9 7.8-1.6 7.3-4.3 20.6-5.2 33.4-.3 4.5-.4 8.8-.2 12.9.2 4-.5 8.6-1.8 13.3-.4 1.4-.8 2.7-1.2 4-.3 1.1-.7 2.1-1.1 3.2 0 .1-.1.2-.1.3-3.8 10.4-8.8 19.2-8.8 19.2 1.9-.6 3.5-1.9 5-3.5 3.8-4.3 5.9-10.6 5.9-10.6 0 2.3-.7 6.8-1.7 11.9-2.2 11.3-5.8 25.5-5.8 25.5l6-10.2c-1.2 6.1-.6 13.5.7 20.2 2.7 1.7 5.4 3.3 8.3 4.8 2.8-4.4 6.6-7.5 8.3-10.6 2.9-5.4 5.2-21.6 5.4-22.7z"/><path fill="#3B3128" d="M97.1 200.4l-4.4-4.6c1.1 2.1 2.6 3.7 4.4 4.6z"/><path fill="#9C7360" d="M80.6 109.7c-1.5-2.9-.4-6.6-.1-9.2v-.6c-.1-.8-.1-1.6-.1-2.3-.8-3.4-3-9.9-3-9.9l-4 4.8 1.1-7.9s0-.2-.1-.7c-1.3-.7-2.6-1.1-3.7-.9-4.8 1-2.1 8.3-2.1 10.5 0 1.9.2 10.1 1.3 15.5.2 1.1.5 2.2.8 3 1.6 4.1 4.5 9 11.8 8.2-.4-2.5-.8-5.2-1.1-8.3-.1-.8-.4-1.6-.8-2.2z"/><path fill="#C08C76" d="M123.5 132.7l-5.7 2.6v-2.4l-3.4 2.4s-3.4 3.8-4.1 4.6-2 2.9-2 4.8.2 3.1 4.5 4.3c4.3 1.2 7.3 4.6 7.3 4.6s1.1-3.4 1.1-5.5c0-1.7-4.1-4.5-5.7-5.6-.2-.1-.4-.3-.7-.4 0 0 .3.2.7.4 4.3 2.6 12.5 3.4 12.5 3.4v-12h-1.6l-2.9-1.2zm4.5-96.1v16.1z"/><path fill="#C08C76" d="M87.8 136.3c2.9 1.5 6.4 1.3 7.5 2.6 1.6 1.9 7.7 5.3 8.6 3.8.9-1.4 4.3-6.7 4.3-7.9 0-1.2 2.3-6.7 7.5-6.8 5.2-.1 7.3-1.6 7.3-1.6 2 2.2 5 1.4 5 1.4V52.6l-12-6.9s.9 5.7 0 6c-.9.2-8.8-4.6-8.8-4.6s0 3.4-1.8 3.4-8.2-1.3-8.2-1.3l1.1 4.9-7 4.8s1.1 4.8-1.4 10.8c-2.5 6-6.8 10.5-7 14.6-.2 4.1 2.7 26.6 2 31.6s-2.1 3.4-2.1 3.4-.3-4-1.4-7.4c.3 3.1.6 5.8 1.1 8.3.7 4.2 1.7 7.8 3.1 11.4.1.2.2.5.3.7.6 1.2 1.2 2.6 1.9 4zm25.4-56.1c6.4 1.7 7.9 3.6 7.9 3.6-1.7 2.6-7.5-.5-10.7 0-3.2.5-5.7 1.2-5.7 0S97 82 97 82s9.9-3.5 16.2-1.8zM80.6 98.9c0-.3-.1-.8-.2-1.4 0 .8.1 1.5.1 2.3v.6c.1-.5.2-1.1.1-1.5z"/><path fill="#3B3128" d="M73.4 92.4l4-4.8s2.2 6.5 3 9.9c.1.6.2 1 .2 1.4 0 .4 0 1-.1 1.6-.3 2.6-1.4 6.3.1 9.2l.9 2.1c1.1 3.4 1.4 7.4 1.4 7.4s1.4 1.7 2.1-3.4-2.3-27.5-2-31.6c.2-4.1 4.5-8.6 7-14.6s1.4-10.8 1.4-10.8l7-4.8-1.1-4.9s6.4 1.3 8.2 1.3 1.8-3.4 1.8-3.4 7.9 4.8 8.8 4.6c.9-.2 0-6 0-6l12 6.9V12.8c-56.6 0-54 63.5-53.5 70.9 0 .5.1.7.1.7l-1.3 8zm31.7 70.2c2 1.2 5.2 6.5 7.7 11.2l1.1-3.7s2.7 4.2 3.4 5.4c.7 1.2 4.3 6.5 4.1 5-.2-1.4-.7-4.8-.7-4.8l3.9 6.9.3.2c.5-1.7 1.1-2.9 1.1-2.9l2 1.9v-36.2s-8.2-.9-12.5-3.4c1.6 1 5.7 3.8 5.7 5.6 0 2.2-1.1 5.5-1.1 5.5s-2.9-3.4-7.3-4.6c-4.3-1.2-4.5-2.4-4.5-4.3s1.4-4.1 2-4.8 4.1-4.6 4.1-4.6l3.4-2.4v2.4l5.7-2.6 2.9 1.2h1.6v-6s-2.9.7-5-1.4c0 0-2 1.4-7.3 1.6-5.2.1-7.5 5.6-7.5 6.8 0 1.2-3.4 6.5-4.3 7.9-.9 1.4-7-1.9-8.6-3.8-1.1-1.3-4.6-1.1-7.5-2.6-.6-.3-1.2-.8-1.7-1.3-.4-.3-.7-.7-1-1.2.3.5.6 1.2 1.1 2 2.6 4.7 7.5 13.3 9.6 15.6 3 3.3 7.3 10.2 9.3 11.4zm-20-28.8c-.4-.7-.6-1.1-.6-1.1.2.4.4.8.6 1.1z"/><path fill="#3B3128" d="M115.5 142.4c-.4-.3-.7-.4-.7-.4.3.1.5.3.7.4zm12.5 89.3V182l-2-1.9s-.6 1.2-1.1 2.9c-.3 1.2-.6 2.7-.4 4.2 0 .3.1.6.1.8.9 3.6-.7 3.8-.2 9.8.4 6 .9 7.2 1.6 13.7.4 3.7-.9 7.1-1.5 9.8-.5 2-.6 3.5.6 4.4 2.8 1.9-1 5.7.9 8.6 1.9 2.9.2 7.7.2 7.7s-.5.7-.8 2c-.3 1.7-.1 4.2 2.5 7.4v-19.7zM104.8 83.8c0 1.2 2.5.5 5.7 0s8.9 2.6 10.7 0c0 0-1.6-1.9-7.9-3.6S97.1 82 97.1 82s7.7.6 7.7 1.8z"/></svg>