<svg xmlns="http://www.w3.org/2000/svg" width="256" height="256"><circle fill="#B1B3B5" cx="128" cy="128" r="128"/><path fill="#2C3B42" d="M230.2 204.1s-.1.5-.3 1.4c.5-.7 1.1-1.4 1.6-2.1-.7.1-1.3.3-1.7.5.3.1.4.2.4.2z"/><path fill="#CCAD9F" d="M131.3 224.2l-3.2 3.4v13.5c1.9-.1 14.9-.6 25.2-4.2.9-4.2 1.6-7.9 2-10.6 1.1-6.8 2.1-21.2 2.8-34.5l-29.3 30.1 2.5 2.3zm28.8-78c.1-.9.1-1.7.2-2.5-1.5 2.7-2.5 4.4-2.5 4.4l.7-3.4c-3.3 3.8-6.8 7.4-10.2 10.3-9 7.6-18.5 7.4-20.2 7.4v57.4c3.9-2.2 22-21.4 30.2-30.2.7-13.8 1.1-25.7 1.1-25.7h.2c-.1-4.7.1-9.7.3-14l-2.8 1c1.1-1.5 2.1-3.1 3-4.7z"/><path fill="#364B59" d="M229.8 203.8c-2.1-1.1-11.5-5.7-24.1-9.7-10-3.2-25.4-10.1-33.7-14 4.5 5.8 10 11.7 10 11.7l-11 2.3 19.4 9.9c-1.7 12.3-6.5 27.6-11.6 41.5 20.3-8.8 37.9-22.7 51.1-40.1.2-.9.3-1.4.3-1.4s-.1 0-.4-.2z"/><path fill="#DEBCAD" d="M172.7 118.1c-2.6 6.9-7.3 16.1-10.7 22.4 1.1-1.4 2.2-2.8 3.2-4.1 3.6-7.9 6.5-15.5 7.5-18.3zm-32.9-38.7v.4c.1-.1.2-.1.2-.1l-.2-.3zm-1.9-22.6c3.8 6.1 7.8 16.5 9.4 20.8 2.1-.4 4.4-.7 6.4-1.2-3-4.1-15.8-19.6-15.8-19.6z"/><path fill="#DEBCAD" d="M148.3 155c3.4-2.9 7-6.5 10.2-10.3l.6-2.6-3.2 4.2 7.9-17.2-4.6 2.2c3.4-7.2 7.9-30.9 7.7-36.9-.2-4.8-7.1-11.5-10.7-15.3-2.4.3-4.8 1.1-7 2.1-.6.3-1.2.5-1.9.7l-.3 1-1.7-.5c-.6.1-1.3.2-1.9.3v.3l-.2-.2c-1.3.2-2.5.2-3.4.2-1 0-1.7-.1-1.7-.1 0-.3 0-.5.1-.7-5-2.9-9.1-7.7-10.1-9v57c.4 0 1.2-.1 2-.8 1.7-.8 3.8-.1 5 1.3 2.3 2.2 2.5 2.8 4.9 3.7 0 0-2.1 3.8-11.9 3.9v24.1c1.7 0 11.2.1 20.2-7.4z"/><path fill="#9D4D5E" d="M140 134.4c-2.4-.9-2.6-1.5-4.9-3.7-1.2-1.4-3.3-2.1-5-1.3-.8.7-1.6.8-2 .8v8.1c9.9-.1 11.9-3.9 11.9-3.9z"/><path fill="#36372C" d="M143.4 81.9v.9c.6-.1 1.2-.2 1.9-.3l-1.9-.6zm12.8-2.8c-.9-.9-1.6-1.7-2-2.2-.1-.2-.3-.4-.5-.6-2.1.5-4.3.9-6.4 1.2.4 1.2.7 1.9.7 1.9l-.7 2.5c.6-.2 1.3-.5 1.9-.7 2.1-1 4.5-1.8 7-2.1zm-12.9 3.7l-3.2-3.2c-.1 0-.2.1-.2.1V83c.8 0 2 0 3.4-.2zm-3.5.2c-.5-.2-1.1-.5-1.6-.8 0 .2-.1.5-.1.7.1 0 .7.1 1.7.1z"/><path fill="#2F2F22" d="M127.9 8v.1h.1zm.2 47.3v3.1l1.9 3.8-.2-6.2 4 3.1v-4.3l1.8 3.1-.2-5s4.1 7.7 4.3 9.1-2.4-1.7-2.4-1.7l2.4 6.7-4.1-4.6v3.1l-2.2-3.1s.2 3.1 0 5.7c-.2 2.3-4.2-3.7-5.3-5.4v10.2c1 1.3 5.2 6.1 10.1 9 .5.3 1 .6 1.6.8v-3.6l.2.2 3.2 3.2.2.2v-1.1l1.9.6 1.7.8.3-1 .7-2.5s-.2-.7-.7-1.9c-1.6-4.2-5.6-14.7-9.4-20.8 0 0 12.8 15.5 15.8 19.5.2.2.3.5.5.6.4.5 1.1 1.3 2 2.2 3.7 3.8 10.5 10.5 10.7 15.3.2 6-4.3 29.7-7.7 36.9l4.6-2.2-7.9 17.2 3.2-4.2-.6 2.6-.7 3.4s1-1.7 2.5-4.4c.5-.9 1.1-2 1.7-3.2 3.4-6.4 8.1-15.5 10.7-22.4.1-.4.3-.8.4-1.2 0 0-.1.4-.4 1.2-1 2.8-3.9 10.5-7.5 18.3-1.6 3.3-3.3 6.7-5.1 9.8-1 1.7-2 3.2-2.9 4.6l2.8-1 4.6-1.7-1.9 5.5s8.1-2.4 10.5-4.3c2.4-1.9 12.5-18.4 12.5-18.4l-6.5 13.4s10.5-5.3 15.3-21.6c4.8-16.3 7.4-35.9-3.1-60.6-10.5-24.7-30.2-59.9-59.9-53.2l-3.3-.8v47.2zm13-4.5l-2.6-4.1L144 51l-1.2-4.3 3.1 3.8-2.4-7.4 6.9 4.8s-.2-2.4-.7-3.6c-.5-1.2 2.9 2.4 2.9 2.4-1.9-7.2-13.7-21.1-13.7-21.1 8.6 4.1 16.2 17 16.2 17l-3.1-6 4.8 5.3-8.9-16.3c6 4.6 23 31.6 24.4 36.7s1.7 17.1 1.7 17.1c0-4.9-4.8-20.4-4.8-20.4.4 6.4 1 13.8 1 13.8-.5-11-13.4-27.5-13.4-27.5v2.9h-2.4V54l-3.1-2.9-4.1.7s1.4 5.7 1.4 6.5-4.3-4.3-4.3-4.3l.7 4.3s-8.2-8.5-8.9-8.6l5 1.1z"/><path fill="#676350" d="M133.4 68.3c.2-2.6 0-5.7 0-5.7l2.2 3.1v-3.1l4.1 4.6-2.4-6.7s2.6 3.1 2.4 1.7-4.3-9.1-4.3-9.1l.2 5-1.8-3.1v4.3l-4-3.1.2 6.2-1.9-3.8V63c1.1 1.5 5.1 7.6 5.3 5.3zm11.8-10.1l-.7-4.3s4.3 5 4.3 4.3-1.4-6.5-1.4-6.5l4.1-.7 3.1 2.9v-5.8h2.4v-2.9s12.9 16.5 13.4 27.5c0 0-.5-7.3-1-13.8 0 0 4.8 15.5 4.8 20.4 0 0-.2-12-1.7-17.1S154.1 30 148.1 25.5l8.9 16.3-4.8-5.3 3.1 6s-7.6-12.9-16.2-17c0 0 11.7 13.8 13.7 21.1 0 0-3.4-3.6-2.9-2.4.5 1.2.7 3.6.7 3.6l-6.9-4.8 2.4 7.4-3.1-3.8 1 4.4-5.5-4.3 2.6 4.1-4.9-1.2c.8.1 9 8.6 9 8.6z"/><path fill="#4E4D3D" d="M128.1 219.7v1.3l.8.8 29.3-30.1c0-.8.1-1.5.1-2.3-8.2 8.9-26.3 28.1-30.2 30.3z"/><path fill="#222B2A" d="M153.3 237c-10.3 3.6-23.3 4.1-25.2 4.2v14.9c7.4 0 14.6-.6 21.6-1.8 1.3-6.1 2.6-12.1 3.6-17.3z"/><path fill="#2C3B42" d="M170.9 194.1l11-2.3s-5.5-6-10-11.7c-2.2-2.9-4.2-5.7-5.1-7.7-2.6-5.8-4.5-8.9-7.2-8.6h-.2s-.4 11.9-1.1 25.7c0 .8-.1 1.5-.1 2.3-.7 13.3-1.7 27.7-2.8 34.5-.5 2.7-1.2 6.4-2 10.6-1.1 5.2-2.3 11.3-3.6 17.2 10.1-1.7 19.9-4.7 29.1-8.6 5.1-13.9 9.9-29.2 11.6-41.5l-19.6-9.9zM128.1 223v4.7l3.2-3.5-2.4-2.3-.8-.8z"/><path fill="#111E24" d="M26.2 203.8c-.4-.2-1-.4-1.7-.5.5.7 1.1 1.4 1.6 2.1-.2-.9-.3-1.4-.3-1.4s.1 0 .4-.2z"/><path fill="#B49A8E" d="M97.7 189.5c8.4 9 27.1 28.9 30.4 30.4v-57.5s-10.5 1-20.4-7.3c-3.4-2.9-7-6.5-10.2-10.3l.7 3.4s-1-1.7-2.5-4.4c.1.8.1 1.6.2 2.5 1 1.7 2 3.2 2.9 4.6l-2.8-1c.2 4.3.4 9.4.3 14h.2c.1-.1.5 11.9 1.2 25.6zm27 34.7l2.3-2.3-29.3-30.1c.7 13.3 1.7 27.7 2.8 34.5.5 2.7 1.2 6.4 2 10.6 11.1 3.9 25.5 4.2 25.5 4.2v-13.2l-3.3-3.7z"/><path fill="#2C3B42" d="M85.1 194.1l-11-2.3s5.5-6 10-11.7c-8.3 3.9-23.7 10.8-33.7 14-12.6 4-22 8.6-24.1 9.7-.3.1-.4.2-.4.2s.1.5.3 1.4c13.2 17.4 30.8 31.3 51.1 40.1-5.1-13.9-9.9-29.2-11.6-41.5l19.4-9.9z"/><path fill="#CCAD9F" d="M101.8 76.2c4.5 1.2 9.9 1.5 13.2 2.9-3-5.2-7.1-13.9-6.3-20.4 0 0-12.1 13.7-14 16.3-.5.7-1.1 2-1.7 3.6 1.8-1.8 4.9-3.5 8.8-2.4zM83.3 118c0 .1 0 .1 0 0 1 2.9 3.9 10.5 7.5 18.3 1 1.3 2 2.7 3.2 4.1-3.5-6.3-8.2-15.4-10.7-22.4z"/><path fill="#CCAD9F" d="M128.1 138.3c-10.1 0-12.2-3.9-12.2-3.9 2.4-.9 2.6-1.5 4.9-3.7 1.2-1.4 3.3-2.1 5-1.3 1.1 1 2.3.8 2.3.8V72.9s-1.9-1.4-6.1-9.8l4.2 17.8-2.4-1.4V83l-4.6-2.2-1.3 3s-.2-.3-.6-.8c-1.6.1-6.3.2-10.5-1.7-4.4-2.1-10-3.3-14.5-1.1-1.5 4.4-3 10.3-3.2 14.2-.2 6 4.3 29.7 7.7 36.9l-4.6-2.2 7.9 17.2-3.2-4.2.6 2.6c3.3 3.8 6.8 7.4 10.2 10.3 9.9 8.3 20.4 7.3 20.4 7.3v-24z"/><path fill="#884C4F" d="M125.8 129.3c-1.7-.8-3.8-.1-5 1.3-2.3 2.2-2.5 2.8-4.9 3.7 0 0 2.1 3.9 12.2 3.9v-8.1c0 .1-1.2.3-2.3-.8z"/><path fill="#36372C" d="M106.8 81.2c4.1 2 8.9 1.8 10.5 1.7-.5-.8-1.4-2.1-2.3-3.8-3.2-1.5-8.6-1.7-13.2-2.9-3.9-1.1-7 .7-8.9 2.4-.2.5-.4 1-.6 1.6 4.5-2.3 10.1-1.1 14.5 1z"/><path fill="#202113" d="M95.9 146.2c-1.8-3.1-3.5-6.4-5.1-9.8-3.7-7.9-6.5-15.5-7.5-18.3-.3-.7-.4-1.2-.4-1.2.1.4.3.8.4 1.2 2.6 6.9 7.3 16.1 10.7 22.4.6 1.2 1.2 2.2 1.7 3.2 1.5 2.7 2.5 4.4 2.5 4.4l-.7-3.4-.6-2.6 3.2 4.2-7.9-17.3 4.6 2.2c-3.4-7.2-7.9-30.9-7.7-36.9.2-3.9 1.6-9.8 3.2-14.2.2-.6.4-1.1.6-1.6.6-1.6 1.2-2.9 1.7-3.6 1.9-2.6 14-16.3 14-16.3-.8 6.6 3.3 15.2 6.3 20.4 1 1.7 1.8 3 2.3 3.8.3.5.6.8.6.8l1.3-3 4.6 2.2v-3.6l2.4 1.4L122 63c4.2 8.4 6.1 9.8 6.1 9.8v-9.7l-3.8-5.3s.6 6.1.6 6.5c0 .3-4.1-5.7-4.6-7.1 0 1.2-.4 6-.6 6.4-.2.5-3.7-5.9-3.7-5.9l.7 9-2.2-5.9 1 9.2c-1.3-5.3-2.9-20-2.9-20s4.8 5.6 5.2 6.2c.4.6-.7-6-.7-6s4.1 4.8 4.6 5.8c-.3-1.5-1.8-12.1-1.8-12.1l8.3 14.5V8h-.2l-3.3.8C94.8 2.2 75.2 37.4 64.7 62c-10.5 24.7-7.9 44.3-3.1 60.6 4.8 16.3 15.3 21.6 15.3 21.6l-6.5-13.4s10.1 16.5 12.5 18.4c2.4 1.9 10.5 4.3 10.5 4.3l-1.9-5.5 4.6 1.7 2.8 1c-1.1-1.3-2.1-2.9-3-4.5z"/><path fill="#2C2D1F" d="M128.1 220.8v-1c-3.3-1.5-22.1-21.4-30.4-30.4 0 .8.1 1.5.1 2.3l29.3 30.1 1-1z"/><path fill="#0F1817" d="M128.1 241.2s-14.3-.3-25.5-4.2c1.1 5.2 2.3 11.3 3.6 17.2 7.1 1.2 14.3 1.8 21.7 1.8h.1v-14.8z"/><path fill="#111E24" d="M102.7 237c-.9-4.2-1.6-7.9-2-10.6-1.1-6.8-2.1-21.2-2.8-34.5 0-.8-.1-1.5-.1-2.3-.7-13.8-1.1-25.7-1.1-25.7h-.2c-2.8-.3-4.7 2.8-7.2 8.6-.9 2-2.8 4.8-5.1 7.7-4.5 5.8-10 11.7-10 11.7l11 2.3-19.4 9.9c1.7 12.3 6.5 27.6 11.6 41.5 9.2 4 18.9 6.9 29.1 8.6-1.5-6-2.8-12-3.8-17.2z"/><path fill="#132027" d="M127.1 221.9l-2.4 2.3 3.4 3.7v-7.1z"/><path fill="#535140" d="M128.1 58.5L119.9 44s1.5 10.6 1.8 12.1c-.5-1-4.6-5.8-4.6-5.8s1.1 6.6.7 6c-.4-.6-5.2-6.2-5.2-6.2s1.6 14.7 2.9 20l-1-9.2 2.2 5.9-.7-9s3.5 6.3 3.7 5.9c.2-.4.6-5.2.6-6.4.4 1.3 4.6 7.4 4.6 7.1 0-.4-.6-6.5-.6-6.5l3.8 5.3v-4.7z"/></svg>