<svg xmlns="http://www.w3.org/2000/svg" width="256" height="256"><circle fill="#B1B3B5" cx="128" cy="128" r="128"/><path fill="#585B5F" d="M180.6 208.5s-1.4 18-4.6 38.2c5.5-2.2 10.9-4.9 16-7.8-4-14.3-7.1-25.7-7.1-26.9.1-3.4-4.3-3.5-4.3-3.5z"/><path fill="#696D72" d="M151.8 191.9c3.5 5.8 6.7 8.2 6.7 8.2l-9.7 19.5 9.7 18.5s-2 6.5-4.7 15.3c7.7-1.6 15.2-3.9 22.3-6.8 3.1-20.2 4.6-38.2 4.6-38.2-18.6-7.1-26.2-13.6-28.9-16.5z"/><path fill="#BEB9BA" d="M128.4 174.1v27.5l4.4-.9c4.4-1.3 10.2-4.2 11.9-10.3l.4-1.5c.4-1.6.8-3.3 1.4-5l.6-2.1v.1c2.1-7 4.8-14.3 5.7-16.7-11.4 3.2-21.6 7.4-24.4 8.6v.3z"/><path fill="#D6D0D1" d="M139.1 42.7c-1.9 4.6-5.8 10-10.7 10.5v71.3c2.4-1.2 10.5-4.6 14.3-2.2 4.5 2.9 4.8 11.5 14 15.3 9.3 3.8 18.5 5.4 18.8 11.5.3 6.1-15.6 10.2-18.8 10.2-.8 0-2.4-.8-4.4-2.1-3 2.3-3.9 4.7-6.6 7.4-3.3 3.3-14.4 3-17.3 2.9v6.1c2.7-1.2 12.9-5.4 24.4-8.6 6-1.7 12.3-3 18-3.6 18.7-1.6 28.3-10.7 26.8-23.6-1.4-12.8-8.1-23.4-19.2-29.6 0 0-2.9-19.6-1.9-26.3s3.8-14.4-1.9-22.5c0 0-.5-11.5-15.3-19.2 0 0-1.9-6.7-10.5-12l-.5 5.7s-3.4-7.2-7.7-10.1c-1-.7-1.8-1-2.5-1.2.3 1.2.6 2.6 1 4 1.2 5.6 2 11.3 0 16.1zM131 15.6h-.1l1 1.9-.9-1.9z"/><path fill="#BB765B" d="M145.7 164.8c2.8-2.8 3.7-5.1 6.6-7.4-1.8-1.1-4-2.5-6.4-4-6.7 3.2-15.1 3.1-17.5 3v11.2c2.9.2 14 .5 17.3-2.8z"/><path fill="#915B45" d="M128.4 156.4c2.5.1 10.8.2 17.5-3-5.3-3.2-11.8-6.5-17.5-6.7v9.7z"/><path fill="#D08265" d="M128.4 142v4.6c5.8.3 12.2 3.5 17.5 6.7 2.4 1.4 4.6 2.9 6.4 4 2 1.2 3.6 2.1 4.4 2.1 3.2 0 19.2-4.2 18.8-10.2-.3-6.1-9.6-7.7-18.8-11.5-9.3-3.8-9.6-12.5-14-15.3-3.8-2.4-11.8 1.1-14.3 2.2V142z"/><path fill="#BEB9BA" d="M128 10l-.4-.7v1.4zm.4 43.2c4.9-.5 8.8-5.9 10.7-10.5 2-4.8 1.2-10.5 0-15.6-.3-1.5-.7-2.8-1-4-.8-3-1.3-4.9-1.3-4.9l-1.3 2.9-3.7-9.6v6l-1-1.9-2.5-4.8v42.4z"/><path fill="#BEC3C9" d="M143.8 205.8l-7.1 6.1s-.2-1.1-1.3-2.8l-2.8 4.9 3.5 41.7c1.7-.1 3.4-.2 5.1-.4.9-17.7 1.9-36.6 2.6-49.5zm-15.4-4.2c.9-.1 2.5-.3 4.4-.9l-4.4.9z"/><path fill="#696D72" d="M132.5 214.3s-.8.8-4.2.9V256c2.6 0 5.2-.1 7.7-.3l-3.5-41.7v.3z"/><path fill="#787C81" d="M128.4 202.2v13c3.4-.1 4.2-.9 4.2-.9l.1-.3 2.8-4.9c-1.2-1.7-3.3-4.2-7.1-6.9z"/><path fill="#D5D9E0" d="M132.8 200.7c-1.9.6-3.6.9-4.4 1v.6c3.8 2.7 5.9 5.2 7.1 6.9 1.1 1.7 1.3 2.8 1.3 2.8l7.1-6.1c.5-9.4.8-15.5.8-15.5-1.7 6.1-7.5 8.9-11.9 10.3z"/><path fill="#585B5F" d="M148.7 219.6l9.7-19.5s-3.2-2.4-6.7-8.2c-1.6-2.6-3.3-5.9-4.8-10v-.1l-.6 2.1-1.4 5-.4 1.5s-.3 6.1-.8 15.5c-.7 12.8-1.7 31.7-2.6 49.5 4.3-.4 8.5-1.1 12.6-1.9 2.7-8.9 4.7-15.3 4.7-15.3l-9.7-18.6z"/><path fill="#4A4D51" d="M71 211.9c0 1.2-3.1 12.6-7.1 26.9 5.1 3 10.5 5.6 16 7.8-3.1-20.2-4.6-38.2-4.6-38.2s-4.3.2-4.3 3.5z"/><path fill="#585B5F" d="M107.3 219.6l-9.7-19.5s3.2-2.4 6.7-8.2c-2.7 2.9-10.4 9.4-28.9 16.6 0 0 1.4 18 4.6 38.2 7.1 2.9 14.6 5.2 22.3 6.8-2.7-8.9-4.7-15.3-4.7-15.3l9.7-18.6z"/><path fill="#A5A2A3" d="M109.6 183.9c.5 1.8 1 3.5 1.4 5l.4 1.5c1.7 6.1 7.5 9 11.9 10.3l5.2 1.1v-27.7s-11.7-5.2-25.1-8.9c.9 2.4 3.6 9.7 5.7 16.7v-.1l.5 2.1z"/><path fill="#BEB9BA" d="M125 15.6l-.8 1.8 1-1.9c-.1.1-.2.1-.2.1zm3.4 158.5v-6.4s-14.2 1-18-2.9c-2.8-2.8-3.7-5.1-6.6-7.4-2 1.2-3.6 2.1-4.4 2.1-3.2 0-19.2-4.2-18.8-10.2.3-6.1 9.6-7.7 18.8-11.5 9.3-3.8 9.6-12.5 14-15.3s15 2.6 15 2.6V53.2c-5.3 0-9.4-5.7-11.4-10.5s-1.2-10.5 0-15.6c.3-1.5.7-2.8 1-4-.7.2-1.5.5-2.5 1.2-4.3 2.9-7.7 10.1-7.7 10.1l-.5-5.7c-8.6 5.3-10.5 12-10.5 12C82 48.4 81.5 59.9 81.5 59.9c-5.7 8.1-2.9 15.8-1.9 22.5s-1.9 26.3-1.9 26.3c-11 6.2-17.7 16.8-19.2 29.6-1.4 12.8 8.1 21.9 26.8 23.6 5.8.5 12.1 1.9 18 3.6 13.4 3.4 25.1 8.6 25.1 8.6z"/><path fill="#9C624B" d="M128.4 162.1v-5.7s-10.2.8-18.3-3c-2.4 1.4-4.6 2.9-6.4 4 3 2.3 3.9 4.7 6.6 7.4 3.8 3.8 18 2.9 18 2.9v-5.6z"/><path fill="#754835" d="M128.4 146.6c-6 0-12.7 3.4-18.3 6.8 8 3.8 18.3 3 18.3 3v-9.8z"/><path fill="#BB765B" d="M128.4 146.6v-21.7s-10.5-5.4-15-2.6-4.8 11.5-14 15.3c-9.3 3.8-18.5 5.4-18.8 11.5-.3 6.1 15.6 10.2 18.8 10.2.8 0 2.4-.8 4.4-2.1 1.8-1.1 4-2.5 6.4-4 5.5-3.1 12.2-6.6 18.2-6.6z"/><path fill="#A5A2A3" d="M116.9 42.7c2 4.8 6.1 10.5 11.4 10.5V9.3l-.3.7-.4.7-2.5 4.8-1 1.9v-6l-3.7 9.6-1.3-2.9s-.6 1.9-1.3 4.9c-.3 1.2-.6 2.6-1 4-1.1 5.2-1.9 10.9.1 15.7z"/><path fill="#A9AEB4" d="M120.6 209.2c-1.1 1.7-1.3 2.8-1.3 2.8l-7.1-6.1c.7 12.8 1.7 31.7 2.6 49.5 1.7.2 3.4.3 5.1.4l3.5-41.7-2.8-4.9zm7.8-7.5l-5.2-1.1c2.9.9 5.2 1.1 5.2 1.1z"/><path fill="#56595E" d="M123.5 214.3l-.1-.3-3.5 41.7c2.7.2 5.4.3 8.1.3h.4v-40.7c-4 0-4.9-1-4.9-1z"/><path fill="#696D72" d="M128.4 202.2v-.5c-4.3 2.9-6.6 5.5-7.8 7.4l2.8 4.9.1.3s.9 1 4.9 1v-13.1z"/><path fill="#BEC3C9" d="M128.4 201.7s-2.3-.2-5.2-1.1c-4.4-1.3-10.2-4.2-11.9-10.3 0 0 .3 6.1.8 15.5l7.1 6.1s.2-1.1 1.3-2.8c1.3-1.8 3.6-4.5 7.9-7.4z"/><path fill="#4A4D51" d="M112.2 205.8c-.5-9.4-.8-15.5-.8-15.5l-.4-1.5-1.4-5-.6-2.1v.1c-1.5 4.1-3.2 7.4-4.8 10-3.5 5.8-6.7 8.2-6.7 8.2l9.7 19.5-9.7 18.5s2 6.5 4.7 15.3c4.1.8 8.3 1.5 12.6 1.9-.9-17.6-1.9-36.5-2.6-49.4z"/></svg>