<svg xmlns="http://www.w3.org/2000/svg" width="256" height="256"><circle fill="#B2B4B5" cx="128" cy="128" r="128"/><path fill="#6C662D" d="M114.5 245.9c1.8.5 3 .8 3 .8-49.4-.8-51.7-14-59.1-19.7-2.9-2.3-6.4-1.5-10.1 1 21.7 17.3 49.3 27.8 79.2 27.9v-11.1c-2.1.4-6.9 1-13 1.1zM13.3 132.3c-4-.3-8.5-.4-13.2.1.1 4 .4 7.9.9 11.8 4-4.5 8.2-8.4 12.3-11.9z"/><path fill="#7F7737" d="M56.1 180.8c8.5-11 14.4-26.4 17.3-35.1 0-1.3-.1-2.6-.2-4.1-.2-2.4-.3-5.8-.5-9.8-3.2-1.6-4.5-5.5-4.3-7.8.3-3.1-4.8-9.4-5.4-13.6-.1-.8-.1-1.5-.1-2.1-10 2-30 7.8-49.5 24.1-4.2 3.4-8.4 7.3-12.4 11.8 2.2 17.7 8.1 34.3 16.8 48.9 9.1 5 15.5 9.7 15.5 9.7s10.3-5.9 22.8-22zm71.3 27.7c-2.9.4-10.7 1.4-16.2-.2-6.8-2-16.5-10.8-19-18.2-2-5.7-6.4-12.8-10.8-19.6-5.1 3.7-13.6 9.5-19.7 12.2-9.1 4-19.9 25.9-19.9 25.9s22.2 12.2 30.7 20.1c7 6.6 33.1 14.6 41.9 17.2 6.1-.1 10.9-.7 12.9-1.1v-21.2l.1-15.1z"/><path fill="#575321" d="M58.4 227.1c7.4 5.7 9.7 18.9 59.1 19.7 0 0-1.1-.3-3-.8-8.8-2.6-34.9-10.6-41.9-17.2-8.5-8-30.7-20.1-30.7-20.1s10.8-21.9 19.9-25.9c6-2.6 14.6-8.5 19.7-12.2-1.3-1.9-2.5-3.9-3.7-5.7-4.7-7.1-4-10.9-4.3-19.2-2.9 8.7-8.8 24.1-17.3 35.1-12.5 16.1-22.7 22-22.7 22s-6.4-4.6-15.5-9.7c8 13.4 18.3 25.3 30.4 34.9 3.6-2.4 7-3.2 10-.9zm4.5-116.8c.6 4.3 5.7 10.5 5.4 13.6-.2 2.3 1.2 6.2 4.3 7.8-.2-4.8-.3-10.3-.5-15.7-.6-.4-1.4-1.4-1.4-1.4s-.4-.9 0-2.2c.4-1.2-.4-.9-.4-.9s-1.1-3.6-.2-6c.9-2.5-.4-2.7-.4-2.7h-1.5l.4-1.5H65l2.3-4.4 2.7-3-5.9-3.2c-3.1 0-3.5 2.9-1.8 8.9 1.4 4.8.5 5.9.5 8.4 0 .7 0 1.4.1 2.3z"/><path fill="#69642B" d="M111.2 208.3c5.5 1.6 13.3.6 16.2.2v-28.7c-8.1 0-10.3.6-13.9 1-3.8.4-4.5-1.8-6.5-4.5s-5.4-1.4-5.4-1.4c3.8-3.8 8.8-5.1 15.9-5 4.9.1 8.3-.5 10-1V79.5l-1.2.6-.8 2.5s-.9-1.7-1.7-3.4c-.8-1.7-2.8-1.7-2.8-1.7h-.6c-.6 0-.8 2.1-1.1 3.4s-3.2-1.7-5.1-3 .2 2.7.2 2.7V85s-1.9-.6-4-2.1-4.4-3-4.4-3l-.9 2.3s-.9.8-.9 1.9.6 5.3.6 5.3l-4.5-5.9-2.7 3.6s0-3.6-.2-5.7 0 0-1.1-1.5-1.5-1.3-2.7-1.3-.9 2.8-1.5 2.8-4-4.5-4-4.5l-2 4.1s-1.3 3.8-1.3 4.4.6 2.8.6 2.8l-3 1.7-2.5 3.6s-.9 2.7-2.1 3.6c-1.1.9-1.1 1.9-1.3 2.5-.2.6.9 1.5.8 4-.2 2.5 0 0-.9 1.1s.2 3.4.2 3.4L74 119.5v-3.2c0-1.7-.8.2-1.3 0-.1 0-.2-.1-.3-.2.1 5.3.3 10.9.5 15.7.2 4 .3 7.4.5 9.8.1 1.5.2 2.9.2 4.1.3 8.3-.4 12 4.3 19.2 1.2 1.8 2.5 3.8 3.7 5.7 4.4 6.7 8.8 13.8 10.8 19.6 2.3 7.3 12 16.1 18.8 18.1zm-20.3-97c1.5 0 1.3-.2 2.3-1.1.9-.9 1.9.1 1.9.1l3.2.9c3.2.9 1.1 0 3 0s0 0 .6-.8 1.3 0 1.3 0 4.4 3.6 5.3 4.7 1.3 1.3 5.9 4.2c4.5 2.8 7.6-.9 7.6-.9s-.4 3.6-2.7 4.4c-2.3.8-11-.6-14.2-2.4s-12.3-3.7-16.5-5.3c-4.2-1.6-2.7-3.9-2.7-3.9s3.5.1 5 .1z"/><path fill="#3E3D22" d="M67.4 97.1l-2.3 4.4h3.6l-.4 1.5h1.5s1.3.2.4 2.7.2 6 .2 6 .8-.3.4.9 0 2.2 0 2.2.8.9 1.4 1.4c.1.1.2.1.3.2.6.2 1.3-1.7 1.3 0v3.2l2.6-11.4s-1.1-2.3-.2-3.4.8 1.3.9-1.1c.2-2.5-.9-3.4-.8-4 .2-.6.2-1.5 1.3-2.5 1.1-.9 2.1-3.6 2.1-3.6l2.5-3.6 3-1.7s-.6-2.3-.6-2.8 1.3-4.4 1.3-4.4l1.9-4.2s3.4 4.5 4 4.5.3-2.8 1.5-2.8 1.6-.2 2.7 1.3.9-.6 1.1 1.5.2 5.7.2 5.7l2.7-3.6 4.5 5.9s-.6-4.2-.6-5.3.9-1.9.9-1.9l.9-2.3s2.3 1.5 4.4 3 4 2.1 4 2.1v-4.5s-2.1-4-.2-2.7 4.7 4.4 5.1 3 .6-3.4 1.1-3.4h.6s2.1 0 2.8 1.7c.8 1.7 1.7 3.4 1.7 3.4l.8-2.5 1.2-.6V8.8s-.1-1.5.6-2.2c-.2-.2-.5-.4-1-.3-1.7.2-2.8-.2-4 .9s-1.1 1.1-1.1 1.1-1.3.8-3.4.8h-3c-.6 0-1.3 1.9-4.2 0-2.8-1.9-4-2.7-4.5-2.9s-1.7-.6-2.1 0-2.5 2.7-2.5 2.7l-5.9-1L98 11l-4.4 1.7s1.9 2.1-1.7 1.5-4.4-1.1-4.4-1.1v3.6l-2.1 1.5v5.5h-4.8c-.8 0-4.4.6-4.5 1.3s-.2.9 0 2.1-2.7 2.1-3.2 2.1.2-2.5-.6 0 .2 1.3-.8 2.5c-.9 1.1-2.1 1.3-4 3s0 2.7-2.8 1.7c-2.8-.9-.9.9 0 2.1.9 1.1.4 2.4.4 2.4s-2.1.9-1.9 1.6c.2.8 2.4 2.1 2.4 3s-2.5 1.7-2.5 2.7c0 .9 2.5.2 0 2.3s-3.2 2.7-3.2 2.7-1.3 1.5-1.7 2.1 0 3.2.9 3.4 3.4 1.1 3.4 1.1-.9.8-1.1 1.3 0 2.7.2 3.2-2.4 1.7-3.6 3.4c-1.2 1.7 3.9 3 3.9 3l-3.2 6.6V82s1.7 2.1 1.9 3.2-.4 1.7 1.3 3.6l1.7 1.9 5.9 3.2-2.1 3.2zm21.3 18.1c4.2 1.6 13.3 3.5 16.5 5.3s11.9 3.1 14.2 2.4c2.3-.8 2.7-4.4 2.7-4.4s-3 3.8-7.6.9c-4.5-2.8-4.9-3-5.9-4.2-.9-1.1-5.3-4.7-5.3-4.7s-.8-.8-1.3 0c-.6.8 1.3.8-.6.8s.2.9-3 0l-3.2-.9s-.9-1.1-1.9-.1c-.9.9-.8 1.1-2.3 1.1h-4.9s-1.6 2.2 2.6 3.8z"/><path fill="#2F2E19" d="M125.2 179.5c-1.2 0-1.4-1.1-1.4-1.1-.3 1.6-2.7 1.2-3.6 1.2s-1.5-.9-1.5-.9c-.1.9-1.5 1.2-2.7 1.2s-2.2-1.4-2.2-1.4c-.3.5-1.8.8-3.4-.4-1.6-1.1-.9-2.6-.9-2.6s-.6 1-1.3 1-1.6-1.9-1.6-1.9c-.2-1.3.9-2.8.9-2.8 1-1.1 2.2 0 2.2 0l-.1 2.8.7-2.5c2.7-1.1 4.2 1.2 4.2 1.2.2-.1.3-.2.5-.3-.5-.5-.8-1.1-.8-1.1.5-1.3 2.1-1.8 2.1-1.8 1.5-.2 1.9.7 1.9.7.4-.9 2.3-.7 3.3-.7s1.5 1.3 1.5 1.3c.2-.8.9-1.2 2.7-1.3.8 0 1.5.1 2 .2v-1.6c-1.6.4-5.1 1.1-10 1-7.1-.1-12.1 1.1-15.9 5 0 0 3.4-1.3 5.4 1.4s2.7 5 6.5 4.5c3.7-.4 5.8-.9 13.9-1v-.4c-.9.3-1.7.3-2.4.3z"/><path fill="#807E6C" d="M122.8 171.5s-.5-1.3-1.5-1.3-2.9-.3-3.3.7c0 0-.4-.9-1.9-.7 0 0-1.6.5-2.1 1.8 0 0 .2.6.8 1.1 2.3-1 4.2.9 4.2.9 4.5-.4 5 .5 5 .6.7-.7 2.3-.7 3.4-.6v-3.6c-.5-.2-1.2-.3-2-.2-1.7.1-2.4.6-2.6 1.3z"/><path fill="#96937F" d="M127.4 174.2v-.2c-1.1-.1-2.7-.1-3.4.6-.1-.2-.5-1-5-.6 0 0-1.9-1.9-4.2-.9-.2.1-.3.2-.5.3 0 0-1.4-2.4-4.2-1.2l-.7 2.5.1-2.8s-1.1-1.1-2.2 0c0 0-1.1 1.5-.9 2.8 0 0 .9 1.9 1.6 1.9s1.3-1 1.3-1-.7 1.4.9 2.6c1.6 1.1 3.1.9 3.4.4 0 0 .9 1.4 2.2 1.4 1.2 0 2.7-.3 2.7-1.2 0 0 .6.9 1.5.9s3.3.4 3.6-1.2c0 0 .2 1.1 1.4 1.1.6 0 1.5 0 2.2-.1v-5.3h.2z"/><path fill="#7F7737" d="M197.6 227.1c-7.4 5.7-9.7 18.9-59.1 19.7 0 0 1.1-.3 3-.8-8.3-.2-14-1.2-14-1.2V256h.6c30.2 0 57.9-10.4 79.8-27.9-3.9-2.5-7.3-3.3-10.3-1zm45.1-94.8c4.1 3.5 8.3 7.4 12.3 11.9.5-3.9.8-7.8.9-11.8-4.7-.5-9.2-.5-13.2-.1z"/><path fill="#8C823D" d="M144.8 208.3c-6.8 2-17.3 0-17.3 0v36.4s5.8 1.1 14 1.2c8.8-2.6 34.9-10.6 41.9-17.2 8.5-8 30.7-20.1 30.7-20.1s-10.8-21.9-19.9-25.9c-6-2.6-14.6-8.5-19.7-12.2-4.4 6.7-8.8 13.8-10.8 19.6-2.4 7.4-12.1 16.2-18.9 18.2zm97.9-76c-19.5-16.4-39.5-22.1-49.5-24.1 0 .6 0 1.3-.1 2.1-.6 4.3-5.7 10.5-5.4 13.6.2 2.3-1.2 6.2-4.3 7.8-.2 4-.3 7.4-.5 9.8-.1 1.5-.2 2.9-.2 4.1 2.9 8.7 8.8 24.1 17.3 35.1 12.5 16.1 22.7 22 22.7 22s6.4-4.6 15.5-9.7c8.7-14.7 14.6-31.2 16.8-48.9-4-4.4-8.2-8.3-12.3-11.8z"/><path fill="#69642B" d="M199.9 180.8c-8.5-11-14.4-26.4-17.3-35.1-.3 8.3.4 12-4.3 19.2-1.2 1.8-2.5 3.8-3.7 5.7 5.1 3.7 13.6 9.5 19.7 12.2 9.1 4 19.9 25.9 19.9 25.9s-22.2 12.2-30.7 20.1c-7 6.6-33.1 14.6-41.9 17.2-1.8.5-3 .8-3 .8 49.4-.8 51.7-14 59.1-19.7 2.9-2.3 6.4-1.5 10.1 1 12.1-9.7 22.5-21.5 30.4-34.9-9.1 5-15.5 9.7-15.5 9.7s-10.3-6-22.8-22.1zm-11.3-83.7l2.3 4.4h-3.6l.4 1.5h-1.5s-1.3.2-.4 2.7-.2 6-.2 6-.8-.3-.4.9 0 2.2 0 2.2-.8.9-1.4 1.4c-.1 5.3-.3 10.9-.5 15.7 3.2-1.6 4.5-5.5 4.3-7.8-.3-3.1 4.8-9.4 5.4-13.6.1-.8.1-1.5.1-2.1-.1-2.5-.9-3.6.5-8.4 1.7-6 1.3-8.9-1.8-8.9l-5.9 3.2 2.7 2.8z"/><path fill="#7F7737" d="M183.5 116.2c-.6.2-1.3-1.7-1.3 0v3.2l-2.6-11.4s1.1-2.3.2-3.4-.8 1.3-.9-1.1c-.2-2.5.9-3.4.8-4-.2-.6-.2-1.5-1.3-2.5-1.1-.9-2.1-3.6-2.1-3.6l-2.5-3.6-3-1.7s.6-2.3.6-2.8-1.3-4.4-1.3-4.4l-1.9-4.2s-3.4 4.5-4 4.5-.3-2.8-1.5-2.8-1.6-.2-2.7 1.3-.9-.6-1.1 1.5-.2 5.7-.2 5.7l-2.7-3.6-4.5 5.9s.6-4.2.6-5.3-.9-1.9-.9-1.9l-.9-2.3s-2.3 1.5-4.4 3c-2.1 1.5-4 2.1-4 2.1v-4.5s2.1-4 .2-2.7c-1.9 1.3-4.7 4.4-5.1 3s-.6-3.4-1.1-3.4h-.6s-2.1 0-2.8 1.7c-.8 1.7-1.7 3.4-1.7 3.4l-.8-2.5-2.3-1.1V51.2v117.4s4 1.4 11.1 1.3 12.1 1.1 15.9 5c0 0-3.4-1.3-5.4 1.4s-2.7 5-6.5 4.5-6-1-15.1-1v28.5s10.5 2 17.3 0c6.8-2 16.5-10.8 19-18.2 2-5.7 6.4-12.8 10.8-19.6 1.3-1.9 2.5-3.9 3.7-5.7 4.7-7.1 4-10.9 4.3-19.2 0-1.3.1-2.6.2-4.1.2-2.4.3-5.8.5-9.8.2-4.8.3-10.3.5-15.7-.3.1-.4.2-.5.2zm-49.5 2.3s3 3.8 7.6.9c4.5-2.8 4.9-3 5.9-4.2.9-1.1 5.3-4.7 5.3-4.7s.8-.8 1.3 0c.6.8-1.3.8.6.8s-.2.9 3 0l3.2-.9s.9-1.1 1.9-.1c.9.9.8 1.1 2.3 1.1h4.9s1.5 2.2-2.7 3.9c-4.2 1.6-13.3 3.5-16.5 5.3s-11.9 3.1-14.2 2.4c-2.2-.9-2.6-4.5-2.6-4.5z"/><path fill="#504E2F" d="M127.4 8.8v70.1l2.3 1.1.8 2.5s.9-1.7 1.7-3.4c.8-1.7 2.8-1.7 2.8-1.7h.6c.6 0 .8 2.1 1.1 3.4s3.2-1.7 5.1-3c1.9-1.3-.2 2.7-.2 2.7V85s1.9-.6 4-2.1 4.4-3 4.4-3l.9 2.3s.9.8.9 1.9-.6 5.3-.6 5.3l4.5-5.9 2.7 3.6s0-3.6.2-5.7 0 0 1.1-1.5 1.5-1.3 2.7-1.3.9 2.8 1.5 2.8 4-4.5 4-4.5l1.9 4.2s1.3 3.8 1.3 4.4-.6 2.8-.6 2.8l3 1.7 2.5 3.6s.9 2.7 2.1 3.6c1.1.9 1.1 1.9 1.3 2.5s-.9 1.5-.8 4c.2 2.5 0 0 .9 1.1s-.2 3.4-.2 3.4l2.6 11.4v-3.2c0-1.7.8.2 1.3 0 .1 0 .2-.1.3-.2.6-.4 1.4-1.4 1.4-1.4s.4-.9 0-2.2c-.4-1.2.4-.9.4-.9s1.1-3.6.2-6c-.9-2.5.4-2.7.4-2.7h1.5l-.4-1.5h3.6l-2.3-4.4-2.7-3 5.9-3.2 1.7-1.9c1.7-1.9 1.1-2.5 1.3-3.6s1.9-3.2 1.9-3.2v-4.7l-3.2-6.6s5.1-1.3 3.9-3c-1.2-1.7-3.7-2.8-3.6-3.4s.4-2.7.2-3.2-1.1-1.3-1.1-1.3 2.5-.9 3.4-1.1 1.3-2.8.9-3.4c-.4-.6-1.7-2.1-1.7-2.1s-.8-.6-3.2-2.7c-2.5-2.1 0-1.3 0-2.3 0-.9-2.5-1.7-2.5-2.7 0-.9 2.3-2.3 2.4-3 .2-.8-1.9-1.6-1.9-1.6s-.6-1.2.4-2.4c.9-1.1 2.8-3 0-2.1s-.9 0-2.8-1.7-3-1.9-4-3c-.9-1.1 0 0-.8-2.5s0 0-.6 0-3.4-.9-3.2-2.1.2-1.3 0-2.1-3.8-1.3-4.5-1.3h-4.8v-5.5l-2.1-1.5v-3.6s-.8.6-4.4 1.1-1.7-1.5-1.7-1.5l-4.4-1.7 1.9-3.1-5.9 1S151 7 150.6 6.4s-1.5-.2-2.1 0-1.7 1-4.5 2.9-3.6 0-4.2 0h-3c-2.1 0-3.4-.8-3.4-.8l-1.1-1.1c-1.1-1.1-2.3-.8-4-.9-.4 0-.7.1-1 .3 0 .5.1 2 .1 2zm23.4 111.7c3.2-1.8 12.3-3.7 16.5-5.3 4.2-1.6 2.7-3.9 2.7-3.9h-4.9c-1.5 0-1.3-.2-2.3-1.1-.9-.9-1.9.1-1.9.1l-3.2.9c-3.2.9-1.1 0-3 0s0 0-.6-.8-1.3 0-1.3 0-4.4 3.6-5.3 4.7c-.9 1.1-1.3 1.3-5.9 4.2-4.5 2.8-7.6-.9-7.6-.9s.4 3.6 2.7 4.4c2.2.8 10.9-.5 14.1-2.3z"/><path fill="#41402A" d="M127.4 170.4v.4s1.4-.8 3.1-.7 2.5.6 2.7 1.3c0 0 .5-1.3 1.5-1.3s2.9-.3 3.3.7c0 0 .4-.9 1.9-.7 0 0 1.6.5 2.1 1.8 0 0-.2.6-.8 1.1.2.1.3.2.5.3 0 0 1.4-2.4 4.2-1.2l.7 2.5-.1-2.8s1.1-1.1 2.2 0c0 0 1.1 1.5.9 2.8 0 0-.9 1.9-1.6 1.9s-1.3-1-1.3-1 .7 1.4-.9 2.6c-1.6 1.1-3.1.9-3.4.4 0 0-.9 1.4-2.2 1.4-1.2 0-2.7-.3-2.7-1.2 0 0-.6.9-1.5.9s-3.3.4-3.6-1.2c0 0-.2 1.1-1.4 1.1s-3.3.1-3.3-1.1v1.4c9.1 0 11.2.6 15.1 1s4.5-1.8 6.5-4.5 5.4-1.4 5.4-1.4c-3.8-3.8-8.8-5.1-15.9-5s-11.1-1.3-11.1-1.3v1.8h-.3z"/><path fill="#41402A" d="M127.9 174.1c-.3-.2-.5-.4-.5-.8v.9s.2 0 .5-.1z"/><path fill="#96937F" d="M127.9 174.1c1-.1 3.2-.4 4.1.5.1-.2.5-1 5-.6 0 0 1.9-1.9 4.2-.9.5-.5.8-1.1.8-1.1-.5-1.3-2.1-1.8-2.1-1.8-1.5-.2-1.9.7-1.9.7-.4-.9-2.3-.7-3.3-.7s-1.5 1.3-1.5 1.3c-.2-.8-.9-1.2-2.7-1.3-1.7-.1-3.1.7-3.1.7v2.5c0 .3.2.6.5.7z"/><path fill="#B3AE96" d="M137 174c-4.5-.4-5 .5-5 .6-.8-.9-3.1-.6-4.1-.5-.3 0-.5.1-.5.1v4.2c0 1.2 2.1 1.1 3.3 1.1s1.4-1.1 1.4-1.1c.3 1.6 2.7 1.2 3.6 1.2.9 0 1.5-.9 1.5-.9.1.9 1.5 1.2 2.7 1.2s2.2-1.4 2.2-1.4c.3.5 1.8.8 3.4-.4 1.6-1.1.9-2.6.9-2.6s.6 1 1.3 1 1.6-1.9 1.6-1.9c.2-1.3-.9-2.8-.9-2.8-1-1.1-2.2 0-2.2 0l.1 2.8-.7-2.5c-2.7-1.1-4.2 1.2-4.2 1.2-.2-.1-.3-.2-.5-.3-2-.9-3.9 1-3.9 1z"/></svg>