<svg xmlns="http://www.w3.org/2000/svg" width="256" height="256"><circle fill="#B1B3B5" cx="128" cy="128" r="128"/><path fill="#162846" d="M210.9 204.7l15.3 5.4c1.3-1.6 2.6-3.2 3.8-4.8l-17.1-5-2 4.4zm-24.4-12.9l11.3 9.2 1.8-.4 7.4 2.6 2.2-5.5-25.9-8.1h-10.7c.1.7.2 1.4.3 2.2h13.6zm-38.6 1l-7.1.8 2.5 1.3 3.8.5 1.4 10.1s-1.3.1-3.3.3l4.1 3.8c.8-.3 1.6-.6 2.5-1l-1.1-1c-.1 0-1.1-6.8-2.8-14.8zm29.6 3.5c.5-2.5-3-2.3-4.4-2 .2 1.6.3 3.3.4 5 2.4-1.3 3.9-2.4 4-3zm-23.2 11.3c3.2-1.3 6.7-2.7 10-4.1-1.2-3.3-2.6-7.6-3.8-12.2l-8.7 1 2.5 15.3z"/><path fill="#414A4F" d="M157.3 174.3c.2 5.1 1.6 11.3 3.2 17.1 1.3 4.6 2.7 8.9 3.8 12.2 3.5-1.5 6.8-3 9.2-4.3-.1-1.7-.2-3.3-.4-5-.4.1-.7.1-.7.1v-2.6h.4c-.1-.7-.2-1.4-.3-2.2-1.6-12-4.5-21.9-5.5-25.2-3.1 3.2-7.1 7.2-9.7 9.9zm-8 3.1c-1.5.1-3.4.2-5.5.3 1.6 4.4 2.9 10 4 15.1 1.7 7.9 2.8 14.8 2.8 14.8l1.1 1c.8-.3 1.7-.7 2.6-1l-2.5-15.2-2.5-15zm-2.3 18l-3.8-.5-2.5-1.3-4-2.1v-2.2l2.9-3.1s2.4-1.2 3.4-2.2c.6-.6-.9-3.9-2-6.3-3.7.1-8 .2-12.9.2v22.6c1.6-.3 11.7-2.1 11.7-2.1v2.2l5.5 5.1c2-.2 3.3-.3 3.3-.3l-1.6-10z"/><path fill="#E2E1E8" d="M173 86.9l-23.3 3-2.7 4.3 28.4-1.2zm2.4 6.1c0 .4 0 .7-.1 1.1l.1-1.1z"/><path fill="#383638" d="M165.8 129.7l-8.1 8.5.7 9.2 4.7-5.2zm-14.7 21.4l1.4 2.7 1.5-1.6c-2-3.3-4.3-5.1-4.3-5.1-1.1-.3-8.2-2.3-21.7-2.3v3.8c1.1-.1 15.7-.3 23.1 2.5z"/><path fill="#5382B3" d="M184.4 65.2l2 15.4-2.9.6-1.8-14.8-3.5-7.9c.3 7.7.6 15.1.9 19.7 1 12.3 7.2 14.8 7.2 14.8v15.2l-2 5.1s-.2 1.6-.5 4.2h3.4l1-5.4 3.7-5.3V88.7l-3.8-8.7-2.1-15.2-8.4-19c.1 1.1.1 2.2.2 3.3l6.6 16.1z"/><path fill="#3E6589" d="M183.5 81.2l2.9-.6-2-15.4-6.5-16c.2 3 .3 6.1.4 9.2l3.5 7.9 1.7 14.9z"/><path fill="#0D111C" d="M168.2 127.2h4.6l3 1.7 8.6-15.6 2-5.1-12.4 13z"/><path fill="#162846" d="M168.2 127.2l-2.5 2.6-2.7 12.5-4.7 5.2.1 1.3-4.2 4c-.1-.2-.2-.3-.3-.5l-1.5 1.6 1.7 3.4 12.3-12.9 6.2-17.1h-4.4z"/><path fill="#5382B3" d="M184.4 113.3l-8.6 15.6s-.8 17.6-1 22.4c-.1 2.5-.3 4.2-.8 5.6 5.5-8.6 8.8-30.1 9.9-39.3.3-2.6.5-4.3.5-4.3z"/><path fill="#183E6B" d="M175.8 128.9l-3-1.8-6.2 17.1-12.3 12.9-1.7-3.4-1.4-2.7-3.3 21.2 6.8 4.7 2.7-2.7c2.6-2.6 6.6-6.7 9.8-9.8 1.8-1.8 3.3-3.2 4.1-4 1.5-1.3 2.3-2.4 2.8-3.7.6-1.4.7-3.1.8-5.6.1-4.6.9-22.2.9-22.2z"/><path fill="#4E5130" d="M173 86.9l2.4 6.1 1.1-2.5-2.9-5.5-24.9 3.4-3.2 5.9 1.5-.1 2.7-4.3z"/><path fill="#1B496E" d="M128 8.4zm6.4 31.6V9.8s6-.2 9.3 1.9l-.4 5.2-.4 5.8c.6-2.7 1.1-5.5 1.4-8.3l.8-.3s2.2-1.7 6.9 1.1l1.6 1.5.7 10.2c2.2.7 9.5 3 9.6 2.8.1-.2.4-6.6.4-6.6l.8-.8s4.8 1.5 8.2 3.6C165.2 10.4 129.4 8.4 128 8.4V40h6.4z"/><path fill="#0D1224" d="M143.3 16.9l.4-5.2c-3.4-2.2-9.3-1.9-9.3-1.9v5.4s5.6-.4 8.9 1.7z"/><path fill="#0F3959" d="M142.9 22.7l.4-5.8c-3.4-2.2-9-1.7-9-1.7V40h3.3c.7-1.8 3.5-9 5.3-17.3z"/><path fill="#4E5130" d="M137.6 40h.8s4.1-7.2 6.7-25.9l-.8.3c-.3 2.8-.8 5.6-1.4 8.3-1.8 8.3-4.6 15.5-5.3 17.3zm27.6-9.3v-8.5l-.8.8s-.3 6.5-.4 6.6c-.1.2-7.4-2.1-9.6-2.8l.1 1 10.7 2.9z"/><path fill="#9B9A65" d="M165.2 30.7l-10.7-2.9-.1-1-.7-10.2-1.6-1.5s-4.9 32.2-12.1 41.3c0 0-3.1 1.7-12 1.7v86.5c13.5 0 20.6 2 21.7 2.3 2.6-35.6 25.7-54.1 25.7-54.1L147 94.2l-1.5.1 3.2-5.9 24.9-3.4c0-23.2 1.7-57.6 1.7-57.6-.6-.5-1.3-1-2.1-1.5-3.4-2.1-8.2-3.6-8.2-3.6v8.4z"/><path fill="#B1AF82" d="M128 52.1v6.1c8.9 0 12-1.7 12-1.7 7.1-9.1 12.1-41.3 12.1-41.3-4.8-2.8-6.9-1.1-6.9-1.1-2.6 18.7-6.7 25.9-6.7 25.9H128v12.1zM173.6 85l2.9 5.5-1.1 2.5-.1 1.1c-.3 10.3 5.2 20.3 5.2 20.3l-6.5 6.8 12.4-12.9V93s-6.2-2.6-7.2-14.8c-.4-4.7-.6-12-.9-19.7-.1-3-.3-6.1-.4-9.2-.1-1.1-.1-2.2-.2-3.3-.5-8.1-1.2-15.2-2.3-18.5 0-.1-1.8 34.3-1.8 57.5z"/><path fill="#8A8A5A" d="M154 152.2c.1.2.2.3.3.5l4.2-4-.1-1.3-.7-9.2 8.1-8.5 2.5-2.6 5.7-6 6.5-6.8s-5.5-10-5.2-20.3c0-.4 0-.7.1-1.1 0 0-23.1 18.5-25.7 54.1 0 .1 2.3 1.9 4.3 5.2z"/><path fill="#162846" d="M128 148.5v21c1 0 14.3.1 18.9 2.2l.8.6 3.3-21.2c-7.3-2.8-21.9-2.6-23-2.6z"/><path fill="#0D111C" d="M128 169.5v8.6c4.9 0 9.2-.1 12.9-.2 1 0 2-.1 2.9-.1 2.1-.1 3.9-.2 5.5-.3 3.4-.2 5.3-.4 5.3-.4l-6.8-4.7-.8-.6c-4.6-2.2-18-2.3-19-2.3zm17.1 36.2l-5.5-5.1 2.9 2.9-2.4 1.7s-6.5-2.6-6.9 6c0 .3 0 .7-.1 1h9.2s2.9-1.1 6.9-2.6l-4.1-3.9z"/><path fill="#272B35" d="M128 200.7v11.5h5.1c0-.3 0-.6.1-1 .5-8.6 6.9-6 6.9-6l2.4-1.7-2.9-2.9v-2.2c.1.1-9.9 2-11.6 2.3z"/><path fill="#5C5D5E" d="M172.8 191.8h-.4v2.6s.3-.1.7-.1c1.5-.2 4.9-.5 4.4 2-.1.6-1.7 1.7-4 2.9-2.4 1.3-5.6 2.8-9.2 4.3-3.3 1.4-6.8 2.8-10 4.1-.9.3-1.7.7-2.6 1-.9.3-1.7.7-2.5 1-4.1 1.6-6.9 2.6-6.9 2.6l2.1 2v-.1l3.8-2.9 49.5-10.2-11.3-9.2h-13.6z"/><path fill="#E2E1E8" d="M132 248.3v-14.6l12.5-3.5v-16.1l-2.1-2-2.6 10.3H128v4.3h11.9l2.4 3.6-14.3 3.3V256c4.7 0 9.4-.3 14-.8v-3.1l-10-3.8z"/><path fill="#637479" d="M128 212.2v10.3h11.7l2.6-10.3h-9.1zm14.3 18.2l-2.4-3.6H128v6.9z"/><path fill="#C4CDCF" d="M206.9 203.3l-7.4-2.6-1.8.4-49.5 10.2-3.8 2.9v16.2l-12.5 3.5v14.6l12.5 3.2v3.4c6.5-.8 12.9-2.2 19.1-4l11-31.6 6-1.2-10.2 30.7c2.2-.8 4.4-1.6 6.5-2.5l10.7-29.4 21.1-4.1-8.3 20.8c9.7-6.7 18.5-14.6 26-23.7l-15.3-5.4-4.1-1.4z"/><path fill="#AFB8BA" d="M132 248.3l10.1 3.8v3.1l2.4-.3v-3.4l-12.5-3.2z"/><path fill="#CE3438" d="M180.5 218.2l-6 1.2-11 31.6c2.3-.7 4.5-1.4 6.7-2.1l10.3-30.7zm7-1.2l-10.7 29.4c8.3-3.4 16.1-7.7 23.4-12.7l8.3-20.8-21 4.1z"/><path fill="#00122D" d="M43 200.2l-17.1 5c1.2 1.6 2.5 3.2 3.8 4.8l15.3-5.4-2-4.4zm15.3.8l11.3-9.2h13.7c.1-.7.2-1.4.3-2.2H72.7l-25.9 8.1 2.2 5.5 7.4-2.6 1.9.4zm50.7-5.6l3.8-.5 2.5-1.3-7.1-.8c-1.7 7.9-2.8 14.8-2.8 14.8l-1.1 1c.9.3 1.7.7 2.5 1l4.1-3.8c-2-.2-3.3-.3-3.3-.3l1.4-10.1zm-30.5.9c.1.6 1.7 1.7 4 2.9.1-1.7.2-3.3.4-5-1.5-.2-4.9-.4-4.4 2.1zm25.7-3.9l-8.7-1c-1.3 4.6-2.7 8.9-3.8 12.2 3.3 1.4 6.8 2.8 10 4.1l2.5-15.3z"/><path fill="#272B35" d="M83.6 191.8v2.6s-.3-.1-.7-.1c-.2 1.6-.3 3.3-.4 5 2.4 1.3 5.6 2.8 9.2 4.3 1.2-3.3 2.6-7.6 3.8-12.2 1.6-5.8 3-12 3.2-17.1-2.6-2.6-6.6-6.7-9.8-9.8-1 3.3-3.9 13.2-5.5 25.2-.1.7-.2 1.4-.3 2.2h.5zm24.5 1c1.1-5.1 2.5-10.7 4-15.1-2.1-.1-3.9-.2-5.5-.3l-2.5 14.9-2.5 15.2c.9.3 1.7.7 2.6 1l1.1-1c.1.1 1.1-6.7 2.8-14.7zm19.9 7.9v-22.6c-4.9 0-9.3-.1-13-.2-1.2 2.4-2.6 5.7-2 6.3 1 1 3.4 2.2 3.4 2.2l2.9 3.1v2.2l-4 2.1-2.5 1.3-3.8.5-1.4 10.1s1.3.1 3.3.3l5.5-5.1v-2.2c-.1-.2 10.2 1.7 11.6 2z"/><path fill="#E2E1E8" d="M80.7 94.1c0-.4 0-.7-.1-1.1l.1 1.1z"/><path fill="#E2E1E8" d="M106.3 89.9l-23.3-3-2.4 6.1 28.4 1.2z"/><path fill="#383638" d="M90.2 129.7l2.7 12.5 4.7 5.2.7-9.2zm37.8 18.8v-3.8c-13.5 0-20.7 2-21.7 2.3 0 0-2.3 1.7-4.3 5.1l1.5 1.6 1.4-2.7c7.6-2.8 23.1-2.5 23.1-2.5z"/><path fill="#3E6589" d="M69.6 108.2V93s6.2-2.6 7.2-14.8c.4-4.7.6-12 .9-19.7l-3.5 7.9-1.8 14.8-2.9-.6 2-15.4 6.5-16c.1-1.1.1-2.2.2-3.3l-8.4 19-2.1 15.2-3.7 8.6v18.2l3.7 5.3 1 5.4h3.4c-.3-2.6-.5-4.2-.5-4.2l-2-5.2z"/><path fill="#0F3959" d="M71.6 65.2l-2 15.4 2.9.6 1.8-14.8 3.5-7.9c.1-3 .3-6.1.4-9.2l-6.6 15.9z"/><path fill="#0D111C" d="M87.8 127.2l-5.7-6-12.5-13 2 5.1 8.6 15.6 3-1.7z"/><path fill="#00122D" d="M101.7 152.7l-4.2-4 .1-1.3-4.7-5.2-2.7-12.5-2.5-2.6h-4.5l6.2 17.1 12.3 12.9 1.7-3.4-1.5-1.6c0 .3-.1.4-.2.6z"/><path fill="#3E6589" d="M80.2 128.9l-8.6-15.6s.2 1.6.5 4.2c1.2 9.2 4.4 30.7 9.9 39.3-.6-1.4-.7-3.1-.8-5.6-.2-4.7-1-22.3-1-22.3z"/><path fill="#162846" d="M98.7 174.3l2.7 2.7 6.8-4.7-3.3-21.2-1.4 2.7-1.7 3.4-12.3-12.9-6.2-17.1-3 1.8s.8 17.6 1 22.4c.1 2.5.3 4.2.8 5.6.5 1.3 1.4 2.4 2.8 3.7.8.7 2.3 2.2 4.1 4 3.1 2.9 7.1 6.9 9.7 9.6z"/><path fill="#4E5130" d="M106.3 89.9l2.7 4.3 1.5.1-3.2-5.9L82.4 85l-2.9 5.5 1.1 2.5 2.4-6.1z"/><path fill="#0F3959" d="M91.7 23s.3 6.5.4 6.6c.1.2 7.4-2.1 9.6-2.8l.7-10.2 1.6-1.5c4.8-2.8 6.9-1.1 6.9-1.1l.8.3c.3 2.8.8 5.6 1.4 8.3l-.7-11c3.4-2.2 9.3-1.9 9.3-1.9V40h6.4V8.4c-1.4.1-37.2 2-45.3 17.5 3.4-2.1 8.2-3.6 8.2-3.6l.7.7z"/><path fill="#000013" d="M112.7 16.9c3.4-2.2 9-1.7 9-1.7V9.8s-6-.2-9.3 1.9l.7 11-.4-5.8z"/><path fill="#042D4A" d="M112.7 16.9l.4 5.8c1.8 8.3 4.6 15.5 5.3 17.3h3.3V15.2c-.1 0-5.7-.4-9 1.7z"/><path fill="#4E5130" d="M117.6 40h.8c-.7-1.8-3.5-8.9-5.3-17.3-.6-2.7-1.1-5.5-1.4-8.3l-.8-.3c2.6 18.7 6.7 25.9 6.7 25.9zM92 29.7c0-.2-.3-6.7-.3-6.7l-.8-.8v8.5l10.7-2.9.1-1c-2.3.7-9.6 3-9.7 2.9z"/><path fill="#8A8A5A" d="M82.4 85l24.9 3.4 3.2 5.9-1.5-.1L80.6 93s23.1 18.5 25.7 54.1c1.1-.3 8.2-2.3 21.7-2.3V58.2c-8.9 0-12.1-1.7-12.1-1.7-7.1-9.1-12.1-41.3-12.1-41.3l-1.6 1.5-.7 10.2-.1 1-10.7 2.9v-8.5s-4.8 1.5-8.2 3.6c-.8.5-1.5 1-2.1 1.5.2 0 2 34.4 2 57.6z"/><path fill="#9B9A65" d="M128 52.1V40h-10.4s-4.1-7.2-6.7-25.9c0 0-2.2-1.7-6.9 1.1 0 0 4.9 32.2 12.1 41.3 0 0 3.1 1.7 12.1 1.7v-6.1zm-50.3 6.3c-.3 7.7-.6 15.1-.9 19.7-1 12.3-7.2 14.8-7.2 14.8v15.2l12.5 13-6.6-6.8s5.5-10 5.2-20.3l-.1-1-1.1-2.5 2.9-5.5c0-23.2-1.7-57.6-1.7-57.6-1.1 3.3-1.8 10.4-2.3 18.5-.1 1.1-.1 2.2-.2 3.3-.2 3.1-.4 6.2-.5 9.2z"/><path fill="#73744A" d="M87.8 127.2l2.5 2.6 8.1 8.5-.7 9.2-.1 1.3 4.2 4c.1-.2.2-.3.3-.5 2-3.3 4.3-5.1 4.3-5.1C103.7 111.5 80.6 93 80.6 93c0 .4 0 .7.1 1.1.3 10.3-5.2 20.3-5.2 20.3l6.6 6.8 5.7 6z"/><path fill="#00122D" d="M128 169.5v-21s-15.5-.2-23.2 2.6l3.3 21.2.8-.6c4.9-2.2 19.1-2.2 19.1-2.2z"/><path fill="#040814" d="M112.2 177.7c.9 0 1.9.1 2.9.1 3.7.1 8.1.2 13 .2v-8.6s-14.2 0-19 2.2l-.8.6-6.8 4.7s1.9.2 5.3.4c1.4.2 3.3.3 5.4.4z"/><path fill="#00000A" d="M122.8 211.2c-.5-8.6-6.9-6-6.9-6l-2.4-1.7 2.9-2.9-5.5 5.1-4.1 3.8c4.1 1.6 6.9 2.6 6.9 2.6h9.2c-.1-.2-.1-.5-.1-.9z"/><path fill="#0D111C" d="M128 206.4v-5.7c-1.4-.2-11.7-2.2-11.7-2.2v2.2l-2.9 2.9 2.4 1.7s6.5-2.6 6.9 6c0 .3 0 .7.1 1h5.2v-5.9z"/><path fill="#5C5D5E" d="M104.2 208.6c-.8-.3-1.7-.7-2.6-1-3.2-1.3-6.7-2.7-10-4.1-3.5-1.5-6.8-3-9.2-4.3-2.4-1.2-3.9-2.3-4-2.9-.5-2.5 3-2.3 4.4-2 .4.1.7.1.7.1v-2.6h-14L58.3 201l49.5 10.2 3.8 2.9v.1l2.1-2s-2.9-1.1-6.9-2.6c-.9-.4-1.7-.7-2.6-1z"/><path fill="#CFCFD5" d="M128 226.8v-4.3h-11.7l-2.6-10.3-2.1 2v16.1l12.5 3.5v14.6l-10.1 3.8v3.1c4.6.5 9.3.8 14 .8v-29.3zm-14.3 3.6l2.4-3.6h12v6.9l-14.4-3.3z"/><path fill="#414A4F" d="M128 215.5v-3.3h-14.3l2.6 10.3H128v-6zm0 11.3h-11.9l-2.4 3.6 14.3 3.3z"/><path fill="#AFB8BA" d="M124 248.3v-14.6l-12.5-3.5V214l-3.8-2.9L58.3 201l-1.8-.4-7.4 2.6-4 1.4-15.4 5.4c20.2 24.1 49.1 40.7 81.8 44.9v-3.4l12.5-3.2z"/><path fill="#8F9699" d="M124 248.3l-12.5 3.2v3.4l2.4.3v-3.1l10.1-3.8z"/></svg>