<svg xmlns="http://www.w3.org/2000/svg" width="256" height="256"><circle fill="#B2B4B5" cx="128" cy="128" r="128"/><path fill="none" d="M159.4 252.1c.4-.1.9-.2 1.3-.3h-.9l-.4.3zm-64.1-.3c.6.2 1.2.3 1.8.5l-.6-.5h-1.2zm110.4-66.2l20.8 13-20.8-13zm-176.2 13l20.8-13zm200.6 6.6l-3.6-6.6z"/><path fill="#3E111F" d="M67.8 226.3l16.7-9.6 15.6 7.6L83.4 202l-17.7 2.3-14.9 15-5.4 6.6c.1.1.2.2.3.2l6.1-6.1 16 6.3zm19.6-71.5h.2c-1.5.4-2.8.8-4 1.2-1.5.6-3.1 1.4-4.2 2.4-.8.7-1.3 1.5-1.5 2.4v.3c.4 2.6 2.1 5.6 3.9 8.2.7.8 1.6 1.9 2.6 3.2l4-17.9c-.4.1-.8.2-1.3.2.3-.1.3-.1.3 0 0-.1 0-.1 0 0z"/><path fill="#590C27" d="M114.3 205.9H128V200h-16.6l-4.9-24.7c-4.3-3.9-13.5-12.8-18-20.7l-4 17.9c9.1 10.5 29.8 33.4 29.8 33.4z"/><path fill="#771132" d="M128 200v-22.7h-19.1c-.6-.4-1.4-1.1-2.3-2l-.1-.1 4.9 24.7H128v.1z"/><path fill="#9B1C3D" d="M128 57.2s-6.1-.1-9.7-.7c1.4.2 4.9.7 9.7.7zm-9.8-.7c-.2 0-.4-.1-.6-.1 0 0 .2 0 .6.1zM74 81.7c.2-11.3 4-25.5 5.1-31.6-2 7.7-5.2 20.2-5.1 31.6zm43.6-25.3l-1.5-3c.6 1.2 1.1 2.3 1.5 3zM85.5 30.2l.2 14.4c3.8-2.9 12.6-8.7 23.1-9.5 0 0 2.1-5.9 6.8-9.6 0 0 3.5-1.6 12.3-1.6V8.4S102 6.6 91.5 19c-3.1 3.7-5.2 7.1-6.8 10.3.4-.1.6.1.8.9zM128 168.3v-5.7h-14.2l-1 1.1c1.1 3.1 2.1 6.1 2.8 8.7H128v-4.1zm-19.1 9s-.9-.7-2.3-2c.9.9 1.7 1.6 2.3 2z"/><path fill="#771132" d="M106.5 175.2c0 .1.1.1 0 0 1.5 1.3 2.4 2.1 2.4 2.1l6.7-5c-.7-2.6-1.7-5.6-2.8-8.7l-4.6 5.2-7.1-7.2-2.3-7.9s.5-.9 1-2.3l-10.1-10.6-4.9-21.8v-5.3c-.8-1.6-1.6-3.1-2.1-4.3-2.6-5.4-3.8-8.6-3.4-12.6-1-2.9-2.1-6.3-3-9.7C74 77.8 78 72.3 78 72.3h1.7l1.7 5.5.4 9.1.6-1.8c.9-2.8 1.4-4.6 1.4-4.6s-1.1-14.4 0-34.4c0 0 .8-1.1 1.9-1.6l-.2-14.4c-.2-.8-.4-1-.7-.9-1.7.6-4.7 15.5-5.7 20.9-1.1 6.1-4.9 20.3-5.1 31.6v.9c0 11.5 5.7 22.9 5.7 22.9l.6 6.7c.6 6.7 7.5 40.8 7.5 40.8.2.5.5 1 .8 1.5 4.4 8 13.6 16.8 17.9 20.7z"/><path fill="#590C27" d="M80.5 91.3c.3-1.3.7-2.8 1.3-4.3l-.4-9.1-1.7-5.5H78s-4 5.5-1.7 14.9c.9 3.4 1.9 6.8 3 9.7.1-1.3.4-2.7.9-4.3.1-.5.2-1 .3-1.4zm11.7 49.2l1.7-3.6-1.2-8.2c-2.6-4.8-5.4-9.9-7.6-14.2-.1-.2-.2-.5-.4-.7v5.3l4.9 21.7 10.1 10.6c0-.1.1-.2.1-.3l-7.6-10.6z"/><path fill="#444443" d="M100.2 148.6l.2.2c.4-2.6.3-5.9-1.6-9.3-1.5-2.7-3.7-6.6-6-10.8l1.2 8.2-1.7 3.6L100 151c.1-.2.1-.5.2-.7l-.1-.1.1-1.6z"/><path fill="#9E9074" d="M110.1 152.2c1.5 3.7 2.8 7.3 3.7 10.4H128v-10.4h-17.9zm17.9-1.7v-48.4h-9.9l-1.9.6-2.8 2.8c-8.2 0-16.3-.6-21.1-2.2-2.4-1.4-4.6-3.9-6.3-6.3-1.1 1.9-4 7.6-1.6 11.4 2.8 4.7 10.8 14.6 14.9 21.5 2.7 4.5 6.8 12.7 10.1 20.6H128zM86.8 43.8l3.6 1.7c1.5-1.2 7.3-5.2 16.3-6.3 0 0 2.3 3.8 3.4 9.2 0 0-2.3-5.5-4.4-7.5 0 0-7.7 1.5-13.2 5.6l1.8.9c.6 8.6 3.1 15.1 3.1 15.1 9.7 14.9 21.8 24.7 21.8 24.7l-.1 13.8h8.9V57.2c-4.8 0-8.3-.5-9.7-.7h-.1c-.4-.1-.6-.1-.6-.1-.4-.7-.9-1.7-1.5-3-1.6-3.4-4.3-9.5-7.3-18.3-10.5.8-19.4 6.6-23.1 9.5l1.1-.8z"/><path fill="#9E9074" d="M118.1 87.8c-14-13-19.1-20.7-21.5-24.8s-3.4-14.9-3.4-14.9c-.5-.2-.9-.4-1.4-.6-.3 1.3-.6 4.5 1 8.7 0 0-2.3-4.5-2.8-9.5-2.4-1.1-4.3-2.1-4.3-2.1C87 55.7 88 84.1 89.2 88c0 0 8.9 4.2 14.4 5.9 5.5 1.7 10.8 2.4 12 5 1 2 1.2 2.4 1.3 2.5l1.2-.4V87.8zm-36.8.9c.4-1.3.7-2.5 1-3.5l-.6 1.8c-.5 1.6-.9 3-1.3 4.3.4-.9.6-1.7.9-2.6z"/><path fill="#84765E" d="M110.1 152.2l-3.2 4.6-6.7-6.5c-.1.3-.1.5-.2.7 0 .1-.1.2-.1.3-.5 1.5-1 2.3-1 2.3l2.3 7.9 7.1 7.2 4.6-5.2 1-1.1c-1-2.9-2.3-6.5-3.8-10.2zM81.3 88.6l.5-1.7c2 4.4 4.7 8.8 4.7 8.8l1.8-3.5 25.9 7.5 1.7 2 1-.3c0-.1-.3-.5-1.3-2.5-1.3-2.5-6.5-3.3-12-5-5.5-1.7-14.4-5.9-14.4-5.9-1.2-3.9-2.2-32.3-3.5-43.4-1.1.5-1.9 1.6-1.9 1.6-1.1 20 0 34.4 0 34.4s-.6 1.8-1.4 4.6c-.4 1-.7 2.2-1.1 3.4z"/><path fill="#84765E" d="M85.2 114.6c2.2 4.2 5 9.4 7.6 14.2 2.3 4.2 4.5 8.1 6 10.8 1.9 3.4 2 6.7 1.6 9.3l6.1 5.9 2.8-4.2c-3.3-8-7.5-16.1-10.1-20.6-4.1-6.9-12-16.9-14.9-21.5-2.3-3.9.5-9.6 1.6-11.4-2.9-4-4.7-8.2-4.7-8.2-.2.8-.5 1.7-.8 2.5-.1.5-.3.9-.4 1.4-.5 1.6-.7 3-.9 4.3-.4 4 .8 7.1 3.4 12.6.6 1.2 1.3 2.7 2.1 4.3.3 0 .4.3.6.6 0-.1 0 0 0 0z"/><path fill="#444443" d="M128 152.2v-1.7h-18.6l-2.9 4.2-6.1-5.9-.2-.2-.2 1.5.1.2 6.8 6.5 3.2-4.6z"/><path fill="#84765E" d="M105.7 40.9c2.1 2 4.4 7.5 4.4 7.5-1.1-5.4-3.4-9.2-3.4-9.2-9 1.1-14.8 5.1-16.3 6.3l2 1c5.5-4.1 13.3-5.6 13.3-5.6zm-13.9 6.6c-.6-.3-1.2-.5-1.8-.8.5 5 2.8 9.5 2.8 9.5-1.6-4.1-1.3-7.3-1-8.7z"/><path fill="#444443" d="M92.3 103.3c4.8 1.7 12.9 2.2 21.1 2.2l2.8-2.8 1.9-.6h9.9V101h-8.9l.1-13.8s-12.1-9.8-21.8-24.7c0 0-2.5-6.4-3.1-15.1l-1.8-.9-2-1-3.6-1.7-1 .8s1.9 1 4.3 2.1c.6.3 1.2.5 1.8.8.5.2.9.4 1.4.6 0 0 1 10.8 3.4 14.9s7.5 11.8 21.5 24.8V101l-1.2.4-1 .3s-2.2 1.9-9.9 1.6c-7.6-.4-13.1-4.6-13.1-4.6l1.8-4.6 19.5 5.7-25.9-7.5-1.8 3.5S84 91.3 82 87l-.5 1.7v.1s1.8 4.2 4.7 8.2c1.6 2.4 3.7 4.9 6.1 6.3z"/><path fill="#FFF" d="M93 98.7s5.5 4.2 13.1 4.6 9.9-1.6 9.9-1.6l-1.7-2L94.8 94 93 98.7z"/><path fill="#AA1D44" d="M117.6 56.4c.2 0 .4.1.6.1h.1c3.6.6 9.7.7 9.7.7V23.9c-8.8 0-12.3 1.6-12.3 1.6-4.7 3.7-6.8 9.6-6.8 9.6 3 8.8 5.7 14.9 7.3 18.3.8 2 1.4 3 1.4 3z"/><path fill="#680D29" d="M128 172.4h-12.4l-6.7 4.9H128z"/><path fill="#9B1C3D" d="M67.8 226.3l-2.8 9.1-16.1-6.8c13.6 10.7 29.3 18.7 46.5 23.2h1.2l-28.8-25.5zm-8.7-61.9c1.4-.6 3.3-1.6 6.1-2.9-1.9.9-4 1.9-6.1 2.9zm55.2 41.5S93.6 183 84.5 172.4c-1.1-1.2-2-2.3-2.6-3.2 2.4 3.5 5.1 6.2 5.1 6.2l-27.1 4.2-9.5 5.9.3-.2-6.4 22.3 6.6 11.5 14.9-15 17.7-2.3 16.7 22.4 27.9 2v-20.4h-13.8v.1zm-26.9-51.1c-.3.1-1.9.5-3.7 1.2 1.1-.4 2.5-.8 4-1.2-.1-.1-.2-.1-.3 0zm-8 3.5c-.8.7-1.4 1.5-1.5 2.4.2-.9.7-1.7 1.5-2.4z"/><path fill="#771132" d="M128 226.3l-27.9-2-15.6-7.6-16.7 9.6 28.8 25.4.6.5c9.9 2.5 20.2 3.8 30.9 3.8v-29.7h-.1z"/><path fill="#84765E" d="M65 235.4l2.8-9.1-16-6.4-6.1 6.1c1 .9 2.1 1.7 3.1 2.5l16.2 6.9zm-14.7-49.8l9.5-5.9-3.8-13.8.3-.1v-.1l-23.2 9.8-3.6 23.2 20.8-13.1z"/><path fill="#9E9074" d="M44.2 207.7l6.4-22.3-.3.2-20.9 13-3.6 6.6c5.7 7.6 12.3 14.5 19.6 20.6l5.4-6.6-6.6-11.5z"/><path fill="#771132" d="M59.8 179.7l27.1-4.2s-2.7-2.7-5.1-6.2c-1.8-2.6-3.5-5.6-3.9-8.2v-.3c.1-.9.6-1.7 1.5-2.4 1.1-1 2.7-1.8 4.2-2.4 1.8-.7 3.5-1.1 3.7-1.2h-.2c-1.1.1-8.9.6-19.7 5.7-.9.4-1.7.8-2.4 1.1-2.8 1.3-4.7 2.2-6.1 2.9-1.7.8-2.5 1.2-2.8 1.3l-.3.1 4 13.8z"/><path fill="#3E111F" d="M190.3 204.2l-17.7-2.3-16.7 22.4 15.6-7.6 16.7 9.6 16-6.4 6.1 6.1c.1-.1.2-.1.3-.2l-5.4-6.6-14.9-15zm-18.8-31.8c1.1-1.2 2-2.3 2.6-3.2 1.8-2.6 3.5-5.6 3.9-8.2v-.3c-.2-.9-.7-1.6-1.5-2.4-1.1-1-2.7-1.8-4.2-2.4-1.1-.4-2.5-.8-4-1.2h.4c-.4-.1-.9-.2-1.3-.2l4.1 17.9z"/><path fill="#680D29" d="M128 200v5.9h13.7s20.7-22.9 29.8-33.5l-4-17.9c-4.4 7.9-13.6 16.8-18 20.7l-4.9 24.7H128v.1z"/><path fill="#871634" d="M128 200h16.6l4.9-24.7-.1.1c-.9.9-1.7 1.6-2.3 2H128V200z"/><path fill="#AD2240" d="M140.3 25.5c4.7 3.7 6.8 9.6 6.8 9.6 10.5.8 19.4 6.6 23.1 9.5l.2-14.4c.2-.8.4-1 .7-.9-1.5-3.2-3.7-6.6-6.8-10.3C153.9 6.5 128 8.4 128 8.4V24c8.8-.1 12.3 1.5 12.3 1.5zm36.6 24.6c1.1 6.1 4.9 20.2 5.1 31.6.1-11.4-3.1-23.9-5.1-31.6zm-38.5 6.3c.4-.7.9-1.7 1.5-3-.9 2-1.5 3-1.5 3zm-.6.1c.4-.1.6-.1.6-.1-.2 0-.4.1-.6.1zm-9.8.7c4.8 0 8.3-.5 9.7-.7-3.6.6-9.7.7-9.7.7zm0 105.4v9.8h12.4c.7-2.6 1.7-5.6 2.8-8.7l-1-1.1H128zm21.4 12.7c-1.4 1.3-2.3 2-2.3 2 .6-.4 1.4-1.1 2.3-2z"/><path fill="#871634" d="M170.5 30.2l-.2 14.4c1.1.5 1.9 1.6 1.9 1.6 1.1 20 0 34.4 0 34.4s.6 1.8 1.4 4.6l.6 1.8.4-9.1 1.7-5.5h1.7s4 5.5 1.7 14.9c-.9 3.4-1.9 6.8-3 9.7.4 4-.8 7.1-3.4 12.6-.6 1.2-1.3 2.7-2.1 4.3v5.3l-4.9 21.7-10.1 10.6c.5 1.5 1 2.3 1 2.3l-2.3 7.9-7.1 7.2-4.6-5.2c-1.1 3.1-2.1 6.1-2.8 8.7l6.7 5s.9-.7 2.3-2l.1-.1c4.3-3.9 13.5-12.8 18-20.7.3-.5.6-1 .8-1.5 0 0 6.9-34.1 7.5-40.8l.6-6.7s5.7-11.5 5.7-22.9v-.9c-.2-11.3-4-25.5-5.1-31.6-1-5.4-4-20.3-5.7-20.9-.4-.1-.6.1-.8.9z"/><path fill="#680D29" d="M170.8 114.5c0 .1 0 .1 0 0-2.2 4.3-5 9.4-7.6 14.2l-1.2 8.2 1.7 3.6L156 151c0 .1.1.2.1.3l10.1-10.6 4.9-21.7v-5.3c0 .3-.1.6-.3.8zm5.1-21.8c.5 1.6.7 3 .9 4.3 1-2.9 2.1-6.3 3-9.7 2.3-9.3-1.7-14.9-1.7-14.9h-1.7l-1.7 5.5-.4 9.1c.5 1.6.9 3 1.3 4.3 0 .4.1.9.3 1.4z"/><path fill="#444443" d="M156 150.1l-.1.1c.1.3.1.5.2.7l7.7-10.5-1.7-3.6 1.2-8.2c-2.3 4.2-4.5 8.1-6 10.8-1.9 3.4-2 6.7-1.6 9.3l.2-.2.1 1.6z"/><path fill="#AB9E80" d="M163.2 56.2c1.6-4.2 1.3-7.4 1-8.7-.5.2-.9.4-1.4.6 0 0-1 10.8-3.4 14.9s-7.5 11.8-21.5 24.8V101l1.2.4c0-.1.3-.5 1.3-2.5 1.3-2.5 6.5-3.3 12-5s14.4-5.9 14.4-5.9c1.2-3.8 2.2-32.3 3.4-43.4 0 0-1.9 1-4.3 2.1-.4 5.1-2.7 9.5-2.7 9.5z"/><path fill="#AB9E80" d="M138.4 56.4s-.2 0-.6.1h-.1c-1.4.2-4.9.7-9.7.7V101h8.9l-.1-13.8s12.1-9.8 21.8-24.7c0 0 2.5-6.4 3.1-15.1l1.8-.9c-5.5-4.1-13.2-5.6-13.2-5.6-2.1 2-4.4 7.5-4.4 7.5 1.1-5.4 3.4-9.2 3.4-9.2 9 1.1 14.8 5.1 16.3 6.3l3.6-1.7 1 .8c-3.8-2.9-12.6-8.7-23.1-9.5-3 8.8-5.7 14.9-7.3 18.3-.5 1.2-1 2.3-1.4 3zm3.8 106.2c.9-3.1 2.2-6.7 3.7-10.4H128v10.4h14.2zm21.5-59.3c-4.8 1.7-12.9 2.2-21.1 2.2l-2.8-2.8-1.9-.6H128v48.4h18.6c3.3-8 7.5-16.1 10.1-20.6 4.1-6.9 12-16.9 14.9-21.5 2.3-3.9-.5-9.6-1.6-11.4-1.8 2.4-3.9 4.9-6.3 6.3zm11-14.7c.2.9.5 1.8.8 2.6-.3-1.3-.7-2.8-1.3-4.3l-.6-1.8c.4 1.1.7 2.3 1.1 3.5z"/><path fill="#938569" d="M175.5 91.3c-.3-.9-.5-1.7-.8-2.5 0 0-1.8 4.2-4.7 8.2 1.1 1.9 4 7.6 1.6 11.4-2.8 4.7-10.8 14.6-14.9 21.5-2.7 4.5-6.8 12.7-10.1 20.6l2.8 4.2 6.1-5.9c-.4-2.6-.3-5.9 1.6-9.3 1.5-2.7 3.7-6.6 6-10.8 2.6-4.8 5.4-9.9 7.6-14.2v-.1c.1-.2.2-.5.4-.7.8-1.6 1.6-3.1 2.1-4.3 2.6-5.4 3.8-8.6 3.4-12.6-.1-1.3-.4-2.7-.9-4.3 0-.3-.1-.8-.2-1.2z"/><path fill="#938569" d="M155.9 150.3l-6.7 6.5-3.2-4.6c-1.5 3.7-2.8 7.3-3.7 10.4l1 1.1 4.6 5.2 7.1-7.2 2.3-7.9s-.5-.9-1-2.3c0-.1-.1-.2-.1-.3-.2-.4-.3-.7-.3-.9zM166.8 88s-8.9 4.2-14.4 5.9c-5.5 1.7-10.8 2.4-12 5-1 2-1.2 2.4-1.3 2.5l1 .3 1.7-2 25.9-7.5 1.8 3.5s2.7-4.5 4.7-8.8l.5 1.7c-.4-1.2-.7-2.4-1-3.4-.9-2.8-1.4-4.6-1.4-4.6s1.1-14.4 0-34.4c0 0-.8-1.1-1.9-1.6-1.4 11.1-2.4 39.5-3.6 43.4z"/><path fill="#444443" d="M128 150.5v1.7h17.9l3.2 4.6 6.8-6.5.1-.2-.2-1.5-.2.2-6.1 5.9-2.9-4.2z"/><path fill="#938569" d="M163.2 56.2s2.3-4.5 2.8-9.5c-.6.3-1.2.5-1.8.8.3 1.4.6 4.6-1 8.7zm-13.8-17s-2.3 3.8-3.4 9.2c0 0 2.3-5.5 4.4-7.5 0 0 7.7 1.5 13.2 5.6l2-1c-1.5-1.1-7.2-5.2-16.2-6.3z"/><path fill="#444443" d="M137.9 102.1l1.9.6 2.8 2.8c8.2 0 16.3-.6 21.1-2.2 2.4-1.4 4.6-3.9 6.3-6.3 2.9-4 4.7-8.2 4.7-8.2v-.1l-.5-1.7c-2 4.4-4.7 8.8-4.7 8.8l-1.8-3.5-25.9 7.5 19.5-5.7 1.8 4.6s-5.5 4.2-13.1 4.6-9.9-1.6-9.9-1.6l-1-.3-1.2-.4V87.8c14-13 19.1-20.7 21.5-24.8s3.4-14.9 3.4-14.9c.5-.2.9-.4 1.4-.6.6-.3 1.2-.5 1.8-.8 2.4-1.1 4.3-2.1 4.3-2.1l-1-.8-3.6 1.7-2 1-1.8.9c-.6 8.6-3.1 15.1-3.1 15.1-9.7 14.9-21.8 24.7-21.8 24.7l.1 13.8H128v1.1h9.9z"/><path fill="#FFF" d="M149.9 103.3c7.6-.4 13.1-4.6 13.1-4.6l-1.8-4.6-19.5 5.7-1.7 2c0-.1 2.3 1.9 9.9 1.5z"/><path fill="#BF1F48" d="M137.7 56.5c.3-.1.5-.1.7-.1l1.5-3c1.6-3.4 4.3-9.5 7.3-18.3 0 0-2.1-5.9-6.8-9.6 0 0-3.5-1.6-12.3-1.6v33.3c-.1 0 6-.1 9.6-.7z"/><path fill="#680D29" d="M128 177.3h19.1l-6.7-4.9H128z"/><path fill="#AD2240" d="M196.2 179.7l-27.1-4.2s2.7-2.7 5.1-6.2c-.7.8-1.6 1.9-2.6 3.2-9.1 10.6-29.8 33.5-29.8 33.5H128v20.4l27.9-2 16.7-22.4 17.7 2.3 14.9 15 6.6-11.5-6.4-22.3.3.2-9.5-6zm-5.4-18.1c2.8 1.3 4.7 2.2 6.1 2.9-2.1-1.1-4.2-2.1-6.1-2.9zm.2 73.8l-2.8-9.1-28.4 25.4h.9c17.2-4.5 32.9-12.5 46.5-23.2l-16.2 6.9zm-14.4-77.1c.8.7 1.3 1.5 1.5 2.4-.1-.9-.7-1.7-1.5-2.4zm-8.2-3.6c1.5.4 2.8.8 4 1.2-1.8-.7-3.5-1.1-3.7-1.2h-.3z"/><path fill="#871634" d="M188.2 226.3l-16.7-9.6-15.6 7.6-27.9 2V256c10.8 0 21.3-1.4 31.4-3.9l.4-.4 28.4-25.4z"/><path fill="#938569" d="M188.2 226.3l2.8 9.1 16.1-6.8c1.1-.8 2.1-1.7 3.1-2.5l-6.1-6.1-15.9 6.3zm8-46.6l9.5 5.9 20.9 13-3.6-23.2-23.2-9.8v.1l.3.1-3.9 13.9z"/><path fill="#AB9E80" d="M205.7 185.6l-.3-.2 6.4 22.3-6.6 11.5 5.4 6.6c7.3-6.1 13.8-13.1 19.6-20.6l-3.6-6.6-20.9-13z"/><path fill="#871634" d="M168.6 154.8c.3.1 1.9.5 3.7 1.2 1.5.6 3.1 1.4 4.2 2.4.8.7 1.4 1.5 1.5 2.4v.3c-.4 2.6-2.1 5.6-3.9 8.2-2.4 3.5-5.1 6.2-5.1 6.2l27.1 4.2 3.9-13.8-.3-.1c-.3-.2-1.1-.5-2.8-1.3-1.4-.6-3.3-1.6-6.1-2.9-.7-.4-1.5-.7-2.4-1.1-10.7-5.1-18.5-5.6-19.8-5.7 0-.1 0-.1 0 0 0-.1 0-.1 0 0z"/><path fill="#771132" d="M33.1 175.5l-18.6 11.7c3.3 6.3 7.1 12.3 11.4 18l3.6-6.6 3.6-23.1z"/><path fill="#871634" d="M226.5 198.6l3.6 6.6c4.3-5.7 8.1-11.7 11.4-18l-18.6-11.7 3.6 23.1z"/></svg>