<svg xmlns="http://www.w3.org/2000/svg" width="256" height="256"><circle fill="#B1B3B5" cx="128" cy="128" r="128"/><path fill="#301300" d="M89.7 166.9c.1-4.7-.1-9.3-.4-13l-1.2-1.8v.1s-13.3 3.9-12.3 11.9c.3 2.6 2.4 5.8 5.9 9.2 1.8-4.7 4.7-6.4 8-6.4z"/><path fill="#45260C" d="M166.3 166.9c3.3 0 6.2 1.6 8 6.3 3.5-3.4 5.5-6.6 5.9-9.2 1-8-12.3-11.9-12.3-11.9v-.1l-1.2 1.8c-.3 3.8-.5 8.4-.4 13.1z"/><path fill="#6F3454" d="M142.5 38.4c1.5.4 3 .9 4.6 1.4l-1.3-2.5-3.3 1.1z"/><path fill="#6F3454" d="M140.6 37.9l-3.9-7 2.2-1.3-4.3-8.5 6.2-2.2-3.2-4.5 6.1-1.8 2.7 3.5 4-1.8 5.7 6.2h2.2l4.3 7-1.9 1.1 4.3 7.8-3.4 2.1 1.9 6.3-1.8.9c12.4 6.5 24 16.8 25.9 32.9l.7 1.4c.6-1.8 1.2-4 1.7-6.4 1.9-9.5-1.1-24.2-3.7-29.8-2.6-5.6-6.7-17.4-15.3-24.6-8.6-7.2-10.9-1.9-21.2-8C139.5 5.3 128 6.9 128 6.9v28.4c0 .1 5.2.7 12.6 2.6z"/><path fill="#6F3454" d="M155.4 42.9c.2.1.5.2.7.3l-.3-.5-.4.2z"/><path fill="#5E2946" d="M172.3 59c9.4 9.9 13.6 16.5 15.4 19.8-1.9-16-13.4-26.3-25.9-32.9l-3 1.5-2.8-4.2c-.2-.1-.5-.2-.7-.3l-5.3 2.8-3-5.9c-1.6-.5-3.1-1-4.6-1.4l-1.3.5-.5-1c-7.4-1.9-12.6-2.6-12.6-2.6V45s30-1.1 44.3 14z"/><path fill="#BC9680" d="M166.3 166.9c-.1-4.7.1-9.3.4-13-1.5 2.1-3.2 4.4-5.1 6.9-9.9 12.5-33.5 15.9-33.5 15.9v11.9c28.7 0 38.1-21.4 38.2-21.7zm12.9-61.1s0-1 .1-2.5c-1.5 9-3 18.3-3.8 24.3 1.5.6 3.2 1.2 4.7 2 5.7 2.6 9.1-5.7 11.7-13.9 2.6-8.1 5.7-17.2 5.3-21.8-.5-4.6-3.4-5.5-7.4-5.7-1.6-.1-3.9 1.7-6 3.9v.1c-.7 4.5-4.6 13.6-4.6 13.6z"/><path fill="#D7A990" d="M179.2 90.8c-.4-2.9-.9-12.2-1.1-15.6-4.4-6.9-11-14.5-20.6-18.1-19.6-7.4-29.5-5.5-29.5-5.5v74.7s2.2 0 5.4-1.3 9.6 4.5 11 5.1c1.4.6 8 5.9 9.4 7 1.4 1.1 2.4 4 2.1 5.3-.3 1.3-4.3.2-5.4-1.4s-11.2-9.1-15.2-8.9-2.2 1.9-7.3 1.9v43s23.6-3.5 33.5-15.9c2-2.5 3.7-4.8 5.1-6.9l1.2-1.8 2.5-4.2c3-5.6 4.2-10.2 4.6-15.1.1-1.1.3-2.9.6-5.2.8-6 2.3-15.4 3.8-24.3.1-3.9.3-10.3-.1-12.8zm-26.3-13.3c-7 .3-10.2 3.8-10.2 3.8s-1-2.1-.6-4.2c.3-2.1 4.3-3.5 4.3-3.5 5.9-.8 7.7-2.9 13.7-3.8 6.1-1 8 3.7 11.3 7 3.4 3.4 1.1 3.4-3.7.6-4.7-2.6-7.8-.2-14.8.1z"/><path fill="#333447" d="M150.5 140.9c1.1 1.6 5.1 2.7 5.4 1.4.3-1.3-.6-4.2-2.1-5.3-1.4-1.1-8-6.4-9.4-7-1.4-.6-7.8-6.4-11-5.1-3.2 1.3-5.4 1.3-5.4 1.3v7.6c5.1 0 3.4-1.7 7.3-1.9s14.1 7.4 15.2 9zm17.3-63.4c4.8 2.7 7 2.7 3.7-.6-3.4-3.4-5.3-8-11.3-7-6.1 1-7.8 3-13.7 3.8 0 0-4 1.4-4.3 3.5-.3 2.1.6 4.2.6 4.2s3.2-3.5 10.2-3.8c6.9-.4 10-2.8 14.8-.1zm10.3-2.4c.2 3.5.7 12.8 1.1 15.6.3 2.5.2 8.9.1 12.5 0 1.5-.1 2.5-.1 2.5s3.8-9 4.6-13.6V92c.2-1 .5-2.3.8-3.5-.4-1.4-2.5-7.1-6.5-13.4z"/><path fill="#1A2F4B" d="M172.3 59C158 43.9 128 45 128 45v6.4s9.9-1.9 29.5 5.5c9.5 3.6 16.2 11.2 20.6 18.1 4 6.3 6 12 6.5 13.4.1.2.1.3.1.3 3.8-3.2 4.2-7.5 4.2-7.5s-.1-.4-.5-1.2l-.7-1.4c-1.8-3.1-6-9.6-15.4-19.6z"/><path fill="#434D61" d="M142.5 38.4l3.3-1.1 1.3 2.5 3 5.9 5.3-2.8.4-.2.3.5 2.8 4.2 3-1.5 1.8-.9-1.9-6.3 3.4-2.1-4.3-7.8 1.9-1.1-4.3-7h-2.2l-5.7-6.2-4 1.8-2.7-3.5-6.1 1.8 3.2 4.5-6.2 2.2 4.3 8.5-2.2 1.3 3.9 7 .5 1 1.2-.7zm4.8-17.9c3.3-1.7 7.9.4 10.2 4.9 2.3 4.4 1.5 9.4-1.8 11.2-3.3 1.7-7.9-.4-10.2-4.9-2.3-4.5-1.5-9.5 1.8-11.2z"/><ellipse transform="rotate(-27.588 151.542 28.495)" fill="#2C3F5D" cx="151.5" cy="28.5" rx="6.8" ry="9"/><path fill="#5E2946" d="M59.5 91.1c-6.1-4.6-20.8-17.9-19.1-37.5C43 45.5 43 36.6 59.3 32c16.3-4.6 37.7 3.2 68.7 3.3V6.9s-14.2-2.4-36 7.7c-10.9 5-46.7 13.9-53.9 32.8-2.2 5.7-.6 26.3 7.9 35.4 2.4 2.6 7.4 6.8 12.7 11.1v-.1c.1-1.1.4-2 .8-2.7z"/><path fill="#451631" d="M71.3 88.8c-3.8-3.2-4.2-7.5-4.2-7.5s2.4-7.2 16.6-22.3C98 43.9 128 45 128 45v-9.7c-31-.1-52.4-7.8-68.7-3.3C43 36.6 43.1 45.5 40.4 53.6c-1.7 19.6 13 32.9 19.1 37.5 1.2-2.2 3.6-2.8 6.6-3 1.6-.1 3.9 1.7 6 3.9-.2-1-.5-2.3-.8-3.5v.3z"/><path fill="#AB8875" d="M89.7 166.9c.1.2 9.4 21.7 38.3 21.7v-11.9s-23.6-3.5-33.5-15.9c-2-2.5-3.7-4.8-5.1-6.9.2 3.7.4 8.3.3 13zm-13-63.7c0 1.5.1 2.5.1 2.5s-3.8-9-4.6-13.6V92c-2.1-2.2-4.4-4-6-3.9-3.1.2-5.4.8-6.6 3-.4.7-.7 1.6-.8 2.8v.1c-.4 4.6 2.7 13.6 5.3 21.7 2.6 8.1 6 16.5 11.7 13.9 1.6-.7 3.2-1.4 4.7-2-.9-6-2.4-15.4-3.8-24.4z"/><path fill="#BC9680" d="M88.1 152.1l1.2 1.8c1.5 2.1 3.2 4.4 5.1 6.9 9.9 12.5 33.5 15.9 33.5 15.9v-43c-5.1 0-3.4-1.7-7.3-1.9s-14 7.3-15.2 8.9-5.1 2.7-5.4 1.4c-.3-1.3.6-4.2 2.1-5.3 1.4-1.1 8-6.4 9.4-7 1.4-.6 7.8-6.4 11-5.1 3.2 1.3 5.4 1.3 5.4 1.3V51.5s-6.4-1.2-19 2.1L98.4 57c-9.5 3.6-16.1 11.2-20.5 18.1-.2 3.5-.7 12.8-1.1 15.6-.3 2.5-.2 8.9-.1 12.5 1.5 9 3 18.3 3.8 24.3.3 2.3.5 4 .6 5.2.4 5 1.6 9.6 4.6 15.1l2.4 4.3zm-3.5-75.2c3.4-3.4 5.3-8 11.3-7 6.1 1 7.8 3 13.7 3.8 0 0 4 1.4 4.3 3.5.3 2.1-.6 4.2-.6 4.2s-3.2-3.5-10.2-3.8c-7-.3-10.1-2.7-14.8 0-4.9 2.6-7.1 2.6-3.7-.7z"/><path fill="#242435" d="M122.6 124.9c-3.2-1.3-9.6 4.5-11 5.1-1.4.6-8 5.9-9.4 7-1.4 1.1-2.4 4-2.1 5.3.3 1.3 4.3.2 5.4-1.4s11.2-9.1 15.2-8.9 2.2 1.9 7.3 1.9v-7.6c0-.1-2.2-.1-5.4-1.4zM88.2 77.5c4.8-2.7 7.8-.3 14.8 0 7 .3 10.2 3.8 10.2 3.8s1-2.1.6-4.2c-.3-2.1-4.3-3.5-4.3-3.5-5.9-.8-7.7-2.9-13.7-3.8-6.1-1-8 3.7-11.3 7-3.3 3.4-1.1 3.4 3.7.7zm-16.8 11c.3 1.3.6 2.5.8 3.5v.1c.7 4.6 4.6 13.6 4.6 13.6s0-1-.1-2.5c-.1-3.6-.2-10 .1-12.5.4-2.9.9-12.2 1.1-15.6-4 6.3-6.1 12-6.5 13.4z"/><path fill="#0C203A" d="M128 47.4V45s-30-1.1-44.3 14C69.4 74.1 67.1 81.3 67.1 81.3s.3 4.3 4.2 7.5c0 0 0-.1.1-.3.5-1.4 2.5-7.1 6.5-13.4 4.3-6.9 11-14.4 20.5-18.1h.1c3.9-1.5 7.4-2.6 10.5-3.4 12.7-3.3 19-2.1 19-2.1v-4.1z"/><path fill="#6E2326" d="M137.1 195.3c16.9-7.1 30.1-15.1 37.2-22.1-1.8-4.7-4.7-6.3-8-6.3-.1.2-9.4 21.7-38.3 21.7v44.1s7.7.4 17.8-1.8l-8.7-35.6z"/><path fill="#9D6340" d="M167.9 152.1c0 .1 13.3 3.9 12.3 11.9-.3 2.6-2.4 5.8-5.9 9.2-7.1 7-20.3 15-37.2 22.1l8.7 35.5c2.2-.5 4.5-1.1 6.9-1.9l-7.3-30s30-7.4 41.8-29.2c.2-9.9-6.9-17.3-16.8-22.1l-.1.2-2.4 4.3z"/><path fill="#8E5938" d="M145.5 199l7.3 30c13.9-4.5 29.7-14.4 36.2-35.9 0 0 .1 0 .2.1l-1.9-23.4c-11.9 21.8-41.8 29.2-41.8 29.2z"/><path fill="#805031" d="M192.9 231.2l-7.6-4.2 5.3-13.4 9.4 1.9-.1.3.7-1.4s2.5-.7 6.4-1.2c-1.2-1.1-2.4-2.3-3.6-3.7l.9-2.9-8.1-3.1 1.7-6.9c-4.7-1.9-7.8-3.2-8.7-3.5-.1-.1-.2-.1-.2-.1-6.5 21.6-22.3 31.4-36.2 35.9-2.4.8-4.7 1.4-6.9 1.9-10.1 2.2-17.8 1.8-17.8 1.8v23.3c7 0 13.9-.6 20.6-1.7l-.8-.7 5.8-10 16 5.5.9-.3 7.1-11.5 8.6 4.8c2.7-1.4 5.4-2.9 8-4.5-.9-1.1-1.8-2.3-2.6-3.6l1.2-2.7z"/><path fill="#BFB2A4" d="M153.7 243.6l-5.8 10 .8.7c7.2-1.2 14.3-2.9 21-5.3l-16-5.4z"/><path fill="#DDCDBD" d="M170.6 248.7c5.4-1.9 10.6-4.2 15.7-6.7l-8.6-4.8-7.1 11.5z"/><path fill="#5A4735" d="M204.2 206.7l4.8-16.2.1-.4-9.6-.6-1.7 7.1-1.7 6.9z"/><path fill="#65503D" d="M204.2 206.7l-.9 2.9c1.2 1.3 2.4 2.6 3.6 3.7 1.7-.2 3.7-.3 5.9-.3l2-4.8.7.3 6-22.7c-6.9.9-11.9 3.1-11.9 3.1l-.5 1.5-4.9 16.3z"/><path fill="#A27143" d="M221.4 185.8l-6 22.7 3.9 1.8 7.4-28.1 13.8 4.1-1.1 4.7c.8-1.4 1.6-2.9 2.4-4.4l-19.1-5.8-1.3 5z"/><path fill="#B57E4C" d="M240.5 186.3l-13.8-4.1-7.4 28.1 4.8 2.2c5.8-6.6 10.9-13.8 15.3-21.5l1.1-4.7z"/><path fill="#453626" d="M190.6 213.6l-5.3 13.4 7.6 4.2 7-15.4.1-.3z"/><path fill="#5A4735" d="M212.8 212.9c-2.2 0-4.1.1-5.9.3-3.9.4-6.4 1.2-6.4 1.2l-.7 1.4-7 15.4-1.2 2.7c.8 1.3 1.7 2.5 2.6 3.6 4-2.4 7.9-5.1 11.6-7.9l7-16.7z"/><path fill="#835B34" d="M215.5 208.5l-.7-.3-2 4.8-6.9 16.6c2.4-1.8 4.7-3.8 7-5.8l5.7-13.7 5.5 2.5v-.1l-4.8-2.2-3.8-1.8z"/><path fill="#A27143" d="M218.6 210.1l-5.7 13.7c4-3.5 7.7-7.3 11.2-11.3l-5.5-2.4z"/><path fill="#601B1E" d="M128 188.6c-28.8 0-38.2-21.5-38.3-21.7-3.3 0-6.2 1.6-8 6.3 7.1 7 20.3 15 37.2 22.1l-8.7 35.5c10.1 2.2 17.8 1.8 17.8 1.8v-44z"/><path fill="#8E5938" d="M110.5 199l-7.3 30c2.4.8 4.7 1.4 6.9 1.9l8.7-35.5c-16.9-7.1-30.1-15.1-37.2-22.1-3.5-3.4-5.5-6.6-5.9-9.2-1-8 12.3-11.9 12.3-11.9v-.1l-2.5-4.2-.1-.2c-9.9 4.8-17 12.2-16.8 22.1 12 21.8 41.9 29.2 41.9 29.2z"/><path fill="#805031" d="M103.3 229l7.3-30s-30-7.4-41.8-29.2l-1.9 23.4c.1-.1.2-.1.2-.1 6.5 21.5 22.3 31.4 36.2 35.9z"/><path fill="#6B4226" d="M128 232.7s-7.7.4-17.8-1.8c-2.2-.5-4.5-1.1-6.9-1.9-13.9-4.5-29.7-14.4-36.2-35.9 0 0-.1 0-.2.1-1.7.7-13.3 5.3-27.5 11.1 2.2 7.7 5.1 15.6 8.5 23.5C69.8 245.4 97.6 256 128 256v-23.3z"/><path fill="#8E674D" d="M38.9 202.8s-6.6-.9-11.5 2.1l-1.2.6c6.3 8.2 13.6 15.7 21.6 22.2-3.4-7.9-6.3-15.8-8.5-23.5-.1-.4-.3-.9-.4-1.4z"/></svg>