<svg xmlns="http://www.w3.org/2000/svg" width="256" height="256"><circle fill="#B1B3B5" cx="128" cy="128" r="128"/><path fill="#443C29" d="M235.3 197.7c0-.1.1-.1.1-.2l-.3-.2c.1.2.2.3.2.4zm-14.7-27.6c.2.4.4.8.5 1.2 3 1 6 2.5 8.6 4.6 6.4 5.2 8.3 12 8.8 16.8l.3-.6c-1.8-13.7-9.9-19.6-18.2-22z"/><path fill="#CCAD9F" d="M172.2 211.9s1.1-1.6 2.3-4c-1-1.3-1.9-3-2.7-5.3-4.8-13.1-12.1-30-23.6-34.5l-1.6-10.5c-9.7 4.4-18.5 3.2-18.5 3.2v83.6c30.3-3.7 48.8-17.6 60.1-31.6-4.9-1.4-8.7-.7-11.9-3.2-1.4 1-2.7 1.7-4.1 2.3z"/><path fill="#446D70" d="M227.8 193.8s-3.4 4.3-.2 8.6c0 0-1.2 3.8-3.6 4.3-2.4.5-4.3 1.4-2.9 4.1 1.4 2.6.3 5.3-3.1 4.8-2.1-.3-5.5-4.4-7.8-7.5-.6.7-1.4 1.4-2.2 2.1-.3.6-.7 1.2-1.1 1.7v-.9c-.3.2-.7.4-1 .6-2.8 4.7-5.9 7.6-12.7 3.5-1.8-1.1-3.5-1.7-5.1-2.2-11.2 14-29.8 27.9-60.1 31.6V256c45 0 84.5-23.2 107.3-58.3-.1-.1-.1-.2-.2-.4l-7.3-3.5z"/><path fill="#AB9671" d="M213.9 175.9s.1 2.1.1 5.3c.6 2.9 1.2 7.2 1.1 11.6 1.5-6.1 3.1-15.4-1.2-16.9z"/><path fill="#AB9671" d="M229.7 175.9c-2.6-2.1-5.6-3.6-8.6-4.6 1.1 2.7 1.6 5.8 1.1 9.4-1.4 9.7-5.5 14.5-7.5 16.3-.6 4.1-1.9 8.1-4.6 11.2 2.3 3.1 5.7 7.2 7.8 7.5 3.4.5 4.5-2.2 3.1-4.8-1.4-2.6.5-3.6 2.9-4.1 2.4-.5 3.6-4.3 3.6-4.3-3.1-4.3.2-8.6.2-8.6l7.4 3.5.3.2 3-4.8c-.4-4.9-2.3-11.7-8.7-16.9z"/><path fill="#362F1D" d="M26.3 175.9c2.6-2.1 5.6-3.6 8.6-4.6.2-.4.3-.8.5-1.2-8.3 2.4-16.4 8.3-18.2 22.1l.3.6c.5-4.9 2.4-11.7 8.8-16.9zm-5.8 21.6c0 .1.1.1.1.2.1-.1.1-.2.2-.4l-.3.2z"/><path fill="#B49A8E" d="M109.5 157.6l-1.6 10.5c-4.9 1.9-9.1 6.2-12.7 11.4 24.7 17.3 7.5 33.8 7.5 33.8 7.3-14.3-7-26.9-10.2-29.4-.4.7-.8 1.5-1.2 2.3l.7 5c5.8 7.7 4.1 12.8 2.2 15.4l1.1 7.9c8.1 9.8 15.6 19.9 21.4 28.1 3.6.8 7.3 1.5 11.3 2V161c0-.1-8.8 1.1-18.5-3.4z"/><path fill="#365B5E" d="M37.4 215.7c-.3.6-.7 1.2-1 1.7L38 219l-.5-3.4c0 .1 0 .1-.1.1zm-5.3-8.9c-2.4-.5-3.6-4.3-3.6-4.3 3.1-4.3-.2-8.6-.2-8.6l-7.4 3.5c-.1.1-.1.2-.2.4 3.5 5.4 7.4 10.5 11.7 15.3.3-1.8.5-3.8.7-6-.3-.2-.7-.3-1-.3zm95.9 37.7c-4-.5-7.7-1.1-11.3-2 4 5.7 7.2 10.5 9.1 13.4h2.1v-11.4z"/><path fill="#6F6045" d="M96.6 223.3l4.3 29.8c6.5 1.4 13.3 2.3 20.1 2.7-5.9-8.8-14.9-21.6-24.4-32.5z"/><path fill="#8B7858" d="M116.7 242.5c-5.7-8.2-13.2-18.3-21.4-28.1l1.3 8.8c9.5 11 18.5 23.7 24.4 32.5 1.6.1 3.2.1 4.9.2-2-2.9-5.1-7.6-9.2-13.4z"/><path fill="#6B6D66" d="M90.5 187.9c-.1.4-.2.8-.2 1.1.7.8 1.3 1.5 1.8 2.2l-.7-5c-.4.5-.6 1.1-.9 1.7zm6.1 35.4l-1.3-8.8-1.1-7.9c-1.1 1.5-2.3 2.2-2.3 2.2 4-7.6-2.9-13.2-4.5-14.4-.1.3-.2.5-.3.8-.1 2-.9 3.8-2.1 5.3-.3.7-.5 1.4-.8 2.1-4.8 13.1-11.2 6.4-21.4 12.5-9.2 5.5-11.7-1.6-15.6-8.9-2.1 3-6.7 9-9.2 9.4h-.4l.5 3.4c17 16.8 38.6 28.8 62.8 34l-4.3-29.7z"/><path fill="#6F6045" d="M28.2 193.8s3.4 4.3.2 8.6c0 0 1.2 3.8 3.6 4.3.4.1.7.2 1 .2.1-.6.1-1.2.2-1.8.5-5.7 1.9-10.4 3.7-14.2-1.3-2.6-2.5-5.9-3.1-10.3-.5-3.6 0-6.7 1.1-9.4-3 1-6 2.5-8.6 4.6-6.4 5.2-8.3 12-8.8 16.8 1 1.6 1.9 3.2 3 4.8l.3-.2 7.4-3.4zm13.9-17.9c-2.9 1-3.1 5.6-2.5 10.3.8-1.2 1.6-2.2 2.4-3.2 0-4.1.1-7.1.1-7.1zm1.1 19.4c-.3.5-.6 1.2-.9 2 .1.4.2.6.2.6s-.1-.1-.3-.2c-.3 1-.5 2.4-.7 4-.7 6.1-2.2 10.7-4 14.1h.6c2.6-.4 7.1-6.4 9.2-9.4-.4-.8-.8-1.5-1.3-2.3-1.4-2.3-2.3-5.5-2.8-8.8z"/><path fill="#745F53" d="M140.8 29.7l1.9 2.3 9.7 3.2c-3.4-2.7-11.6-5.5-11.6-5.5zm70.3 127.5c-.4-2-.9-4.6-1.4-6.9-.8-3.7-11.7-13.5-15.9-29.9 1.3 9.3 3.3 16.2 6.4 21.3 3.1 4.8 7.7 10 10.9 15.5zm-64.6.4l1.6 10.5c11.5 4.5 18.8 21.4 23.6 34.5.9 2.3 1.8 4 2.7 5.3 1.9-3.8 4-9.5 1.8-13.6-3.5-6.7-16.3-21.4-1.3-39.3s7-23 6.7-35.4c-.2-9.6.3-15.8-2.6-23.3-2.4 11.6-6.5 24.9-12.8 39.9-4.9 12-12.5 18.2-19.7 21.4zm-7.4-143c17 6.2 13.3 20.6 13.3 20.6s.2.1.7.4c2-2.1 8.6-7.5 15.9-2.8.6.4 1.2.8 1.8 1.3-2.6-3.5-5.7-7.5-9.9-12.8C148.8 6 128 9.2 128 9.2v1.7c3.5.9 7.2 2.3 11.1 3.7zM213 177.1s.5 1.5.9 4c0-3.1-.1-5.3-.1-5.3 4.3 1.5 2.7 10.9 1.2 16.9 0 1.4-.1 2.8-.3 4.2 2-1.8 6.1-6.6 7.5-16.3.5-3.6 0-6.7-1.1-9.4-.2-.4-.3-.8-.5-1.2-2.1-4.4-5.5-7.4-7.4-8.8 2.1 5.1 2.7 10.4-.2 15.9z"/><path fill="#745F53" d="M185.9 170.1s-12.5 10.2-5.1 17.9c6.3 6.6 2.7 16.4-4.6 21.7 3.2 2.5 7 1.8 11.9 3.2 1.6.5 3.3 1.1 5.1 2.2 6.9 4.1 10 1.2 12.7-3.5-.2.1-.3.2-.5.3 0 0 6-23.6-19.5-41.8z"/><path fill="#DEBCAD" d="M128 126.4s1.3.2 2.5-.8c1.8-.8 4.1-.1 5.4 1.3 2.5 2.2 2.7 2.8 5.3 3.7 0 0-2.3 3.9-13.2 3.9v26.3s8.8 1.2 18.5-3.2c7.1-3.2 14.7-9.5 19.8-21.4 6.4-15 10.4-28.3 12.8-39.9-.8-2.2-1.9-4.5-3.5-7 0 0-1.9-18.2-5.7-24.3l4.5 3.8s-5.4-13.1-9.3-17.2l4.2 1.3s-6.6-10.6-15.5-15.8c-.5-.3-1-.6-1.5-.8 0 0 .2-.3.7-.7-.4-.3-.7-.4-.7-.4l-9.7-3.2 1.7 2c-3-3.7-13.3-4.7-16.4-5v3l.1.3h-.1v94.1zm11.4-51.7s2.4-3.1 14.4-1.4 12.7 6 12.7 6c-7.7-4.6-24.2.5-27.1 0-2.9-.5 0-4.6 0-4.6z"/><path fill="#745F53" d="M139.4 79.3c2.9.5 19.4-4.6 27.1 0 0 0-.7-4.3-12.7-6s-14.4 1.4-14.4 1.4-2.9 4.1 0 4.6z"/><path fill="#9D4D5E" d="M141.2 130.6c-2.6-.9-2.8-1.5-5.3-3.7-1.3-1.4-3.6-2.1-5.4-1.3-1.2 1-2.5.8-2.5.8v8.1c10.9 0 13.2-3.9 13.2-3.9z"/><path fill="#625045" d="M96.5 22c2.5-3.7 5.1-6.5 7.7-8.5-3.2 1.8-6.4 4.3-9.1 7.7-12.1 15.4-15.6 19.9-20.7 32-5.1 12.1-9.6 33.2-10.5 56.2-.1 1.5-.2 3-.4 4.4 3.8-7.7 7.3-16.3 8.4-25.3C74.7 64.9 84 40.2 96.5 22zM128 9.2s-3.9-.6-9.4 0c3 .1 6.1.8 9.4 1.7V9.2zM81.9 115.7c.1.2.3.4.4.6l-.3-.9c-.1.1-.1.3-.1.3zm10.7 68.2c-.4-.3-.6-.5-.6-.5s-1 2.6-1.5 4.4c.3-.6.6-1.1.8-1.7.4-.7.8-1.4 1.3-2.2zm15.3-15.7l1.6-10.5c-7.1-3.2-14.7-9.5-19.8-21.4-1.3-3-2.4-5.9-3.5-8.7 1.5 9.7-.5 19-.5 19 8.9 11 8.9 32.6 8.9 32.6.2.2.4.3.7.5 3.5-5.4 7.6-9.6 12.6-11.5zm-20.8 27.1c.1-.3.2-.5.3-.8-.2-.1-.3-.2-.3-.2.1.3 0 .6 0 1zm-24.4 14.2c-5.9-.6-15.3-20.3-19.6-14.3.6 3.4 1.5 6.5 2.8 8.7.5.8.9 1.5 1.3 2.3 3.9 7.3 6.4 14.4 15.6 8.9 10.2-6.1 16.6.6 21.4-12.5.2-.7.5-1.4.8-2.1-4.9 6.5-16.9 9.6-22.3 9zm-28.9-28.9c.6 4.4 1.8 7.8 3.1 10.3.8-1.8 1.8-3.4 2.7-4.8-.6-4.7-.4-9.3 2.5-10.3 0 0-.1 3 0 7.2 4.2-4.8 8.2-6.6 8.2-6.6-3.8-10.2 1.2-25 1.2-25s-.8-1.6-1.2-7.5c-2.1 3-3.7 5.1-4 6.4-1 4.5-1.9 9.9-1.9 9.9s-5.9 3.5-8.9 9.9c-.2.4-.4.8-.5 1.2-1.2 2.7-1.7 5.8-1.2 9.3zm8.4 16.7c0 .1-.1.2-.1.4.2.1.3.2.3.2s0-.2-.2-.6z"/><path fill="#CCAD9F" d="M127.1 29l.9 3v-3h-.9zm-17.6 128.6c9.7 4.4 18.5 3.2 18.5 3.2v-26.3c-10.9 0-13.2-3.9-13.2-3.9 2.6-.9 2.8-1.5 5.3-3.7 1.3-1.4 3.6-2.1 5.4-1.3 1.2 1 2.5.8 2.5.8V32.2c-6.4-2.6-14.3-2.4-14.3-2.4l2.4 3.4c-8.6-4.6-29.5 5.7-27.3 30.7 2 23.3-5.8 48.3-6.8 51.4l.3.9c2.1 3.4 3.3 7.3 3.9 11.2 1.1 2.8 2.2 5.7 3.5 8.7 5 12.1 12.6 18.3 19.8 21.5zm-7.3-84.3c12-1.7 14.4 1.4 14.4 1.4s2.9 4.1 0 4.6-19.4-4.6-27.1 0c0 0 .7-4.3 12.7-6z"/><path fill="#625045" d="M116.6 79.3c2.9-.5 0-4.6 0-4.6s-2.4-3.1-14.4-1.4-12.7 6-12.7 6c7.7-4.6 24.2.4 27.1 0z"/><path fill="#884251" d="M125.5 125.6c-1.8-.8-4.1-.1-5.4 1.3-2.5 2.2-2.7 2.8-5.3 3.7 0 0 2.3 3.9 13.2 3.9v-8.1s-1.3.2-2.5-.8z"/><path fill="#68554A" d="M153 35.6l-.7.7c.5.2 1 .5 1.5.8 0 0 12.6-5.2 21.9 10.3 9.3 15.6 11 57.8 13.2 74l-3.1-12s1.4 22.5 3.1 27.1c1.7 4.6 22 25.9 22 32.3 0 0 .2 9.2 0 7.9-.2-1.2-6.2-16.6-18.2-30-12-13.4-8.7-35.7-9-46.5-.3-10.8-8.9-17.5-8.9-17.5l-.7-11.9s2.7 1 4 4.3c-1.1-3.1-5.3-14.4-9-20.8l3.6 2.4s-7.5-15.6-18.8-19.6c8.8 5.2 15.5 15.8 15.5 15.8l-4.2-1.3c3.8 4.2 9.3 17.2 9.3 17.2L170 65c3.8 6.1 5.7 24.3 5.7 24.3 1.5 2.5 2.6 4.8 3.5 7 2.9 7.5 2.4 13.7 2.6 23.3.3 12.5 8.3 17.6-6.7 35.4-15 17.9-2.2 32.6 1.3 39.3 2.2 4.1.1 9.8-1.8 13.6-1.2 2.4-2.3 4-2.3 4 1.4-.6 2.8-1.4 4-2.2 7.4-5.3 10.9-15.1 4.6-21.7-7.3-7.7 5.1-17.9 5.1-17.9 25.5 18.2 19.5 41.8 19.5 41.8.2-.1.3-.2.5-.3.4-.2.7-.4 1-.6.1-4.4.1-24.3-6.7-31.9-7.7-8.6-15.4-10.9-14.4-38.3 0 0 10.5 26.8 18 38.6 6.8 10.8 8 24.1 4.2 30.9.8-.6 1.5-1.3 2.2-2.1 2.7-3.1 4-7.1 4.6-11.2.2-1.4.3-2.8.3-4.2.1-4.5-.5-8.7-1.1-11.6-.5-2.4-.9-4-.9-4 2.9-5.6 2.3-10.9.1-15.9-.6-1.4-1.3-2.7-2-4-3.3-5.5-7.8-10.7-10.9-15.6-3.2-5.1-5.1-11.9-6.4-21.3-1.3-9.5-1.9-21.7-2.2-37.2-.6-28.6-12-42.8-20.8-49.2-.6-.5-1.2-.9-1.8-1.3-7.6-4.6-14.1.8-16.2 2.9z"/><path fill="#2F251E" d="M153.8 37.1c11.4 4.1 18.8 19.6 18.8 19.6l-3.6-2.4c3.7 6.5 7.9 17.7 9 20.8-1.3-3.3-4-4.3-4-4.3l.7 11.9s8.6 6.8 8.9 17.5c.3 10.8-2.9 33 9 46.5 12 13.4 18 28.7 18.2 30 .2 1.2 0-7.9 0-7.9 0-6.5-20.4-27.8-22-32.3-1.7-4.6-3.1-27.1-3.1-27.1l3.1 12c-2.2-16.3-3.8-58.5-13.2-74-9.2-15.5-21.7-10.3-21.8-10.3zm50 142.3c-7.4-11.7-18-38.6-18-38.6-1 27.4 6.7 29.7 14.4 38.3 6.8 7.6 6.8 27.5 6.7 31.9v.9c.4-.5.8-1.1 1.1-1.7 3.7-6.7 2.6-20.1-4.2-30.8z"/><path fill="#56473D" d="M41.4 201.6c.2-1.6.4-2.9.7-4 0-.1.1-.2.1-.4.3-.9.6-1.5.9-2 4.2-6.1 13.7 13.6 19.6 14.3 5.4.6 17.4-2.5 22.3-8.9 1.2-1.6 2-3.4 2.1-5.3v-1.1s.1.1.3.2c1.6 1.2 8.5 6.7 4.5 14.4 0 0 1.2-.7 2.3-2.2 1.9-2.6 3.6-7.7-2.2-15.4-.5-.7-1.1-1.5-1.8-2.2 0-.3.1-.7.2-1.1.5-1.9 1.5-4.4 1.5-4.4s.2.2.6.5c3.2 2.6 17.4 15.1 10.2 29.4 0 0 17.2-16.5-7.5-33.8-.2-.2-.4-.3-.7-.5 0 0 0-21.6-8.9-32.6 0 0 2-9.4.5-19-.6-3.9-1.8-7.9-3.9-11.2-.1-.2-.3-.4-.4-.6 0 0 0-.1.1-.3 1-3.1 8.9-28.1 6.8-51.4-2.2-24.9 18.7-35.2 27.3-30.7l-2.4-3.4s7.8-.2 14.3 2.4h.1V32l-.9-3s.3 0 .9.1c3.1.2 13.3 1.3 16.4 5l-1.7-2-1.9-2.3s8.2 2.8 11.6 5.5c0 0 3.8-14.4-13.3-20.6-3.9-1.4-7.6-2.8-11.1-3.8-3.3-.9-6.4-1.6-9.4-1.7-5.1-.2-9.8.9-14.4 4.4-2.6 2-5.2 4.7-7.7 8.5C84 40.2 74.7 64.9 71.8 88.6c-1.1 9-4.5 17.5-8.4 25.3-6.3 12.6-13.6 23.1-13.2 29.6v.4c.4 5.9 1.2 7.5 1.2 7.5s-5 14.8-1.2 25c0 0-4 1.8-8.2 6.6-.8.9-1.6 2-2.4 3.2-1 1.4-1.9 3-2.7 4.8-1.8 3.8-3.2 8.5-3.7 14.2-.1.6-.1 1.2-.2 1.8-.2 2.3-.5 4.3-.7 6 1.3 1.5 2.7 2.9 4.1 4.4.3-.5.7-1.1 1-1.7 1.8-3.4 3.3-7.9 4-14.1zm49.5-24.9s-.4-6.4-2.7-10.9c0 0-1.6 12.3-6.1 17.2 0 0 2.4-11.8 1.3-16.4 0 0-6.5 14.8-12.3 17.9 0 0 7.5-10.9 7.5-19.8 0 0 4.9-6.1 6.7-13.3 0 0 7 17.6 5.6 25.3zm-9.4-32.3c1.9-4.2 2.4-12 2.4-12 2.7 14.8-6.4 34-12.8 37.5s-23 13.1-23 13.1c4.2-5.4 28.7-17.7 30.3-25.7 1.6-8-4.5-26-4.5-26 5.4-4.8 7.5-11.5 7.5-11.5 2.3 7.2.1 24.6.1 24.6zm-8.2 2.1c2.6 9.4-3.5 16-3.5 16 3.3-7.1-.2-13.6-1-18.4s3-12.8 3-12.8-1 5.8 1.5 15.2zm1.6-29.4c7.4-6.7 11.5-41 10.5-57.5s8.1-39.8 21.1-42.6 28 4.6 28 4.6c-1.4-4.3-6-7.9-6-7.9 16.3 5.3 21.8 20.5 20.5 19.5-11.8-9.5-28-8.7-28-8.7l3 4.5c-10.5-4.1-19.4-2.6-19.4-2.6 5 1 6 4.6 6 4.6-3.9-1.7-21.2 2.8-22 19.6-.8 16.8-.9 40-7.2 59.4s-25.9 23.7-25.9 23.7c7-11.3 12-9.9 19.4-16.6zM54 137.2c5.1-.6 15.8-8.1 15.8-8.1-3.1 5.4-16.4 21.6-16.4 21.6-2.7-10 .6-13.5.6-13.5z"/><path fill="#2F251E" d="M81.4 109.9c6.3-19.4 6.4-42.6 7.2-59.4.8-16.8 18.1-21.3 22-19.6 0 0-1-3.6-6-4.6 0 0 8.9-1.4 19.4 2.6l-2.9-4.6s16.2-.7 28 8.7c1.2 1-4.2-14.3-20.5-19.5 0 0 4.6 3.6 6 7.9 0 0-15.1-7.4-28-4.6s-22 26.1-21.1 42.6c1 16.5-3.1 50.9-10.5 57.5-7.4 6.7-12.5 5.2-19.4 16.5-.1.2 19.5-4.1 25.8-23.5z"/><path fill="#2F251E" d="M53.4 150.6s13.4-16.2 16.4-21.6c0 0-10.7 7.5-15.8 8.1 0 .1-3.3 3.6-.6 13.5zM74 131.3s6.1 18 4.5 26c-1.6 8-26.2 20.3-30.3 25.7 0 0 16.6-9.6 23-13.1 6.4-3.5 15.5-22.7 12.8-37.5 0 0-.5 7.8-2.4 12 0 0 2.2-17.4 0-24.6-.1 0-2.2 6.7-7.6 11.5zm4.6 33.4c-.1 8.9-7.5 19.8-7.5 19.8 5.7-3 12.3-17.9 12.3-17.9 1.1 4.6-1.3 16.4-1.3 16.4 4.5-4.9 6.1-17.2 6.1-17.2 2.3 4.5 2.7 10.9 2.7 10.9 1.4-7.7-5.6-25.2-5.6-25.2-1.8 7.1-6.7 13.2-6.7 13.2z"/><path fill="#2F251E" d="M68.9 144.1c.8 4.8 4.2 11.3 1 18.4 0 0 6.1-6.5 3.5-16S72 131.3 72 131.3s-3.9 8-3.1 12.8z"/></svg>