<svg xmlns="http://www.w3.org/2000/svg" width="256" height="256"><circle fill="#B1B3B5" cx="128" cy="128" r="128"/><path fill="#A37864" d="M80.2 111.4s-2.7-8.6-3.2-11.5c-.3-1.6-1.8-3.7-3.1-5.2-.2 0-.3 0-.5.1-3.7.8-4.3 6.2-4 9.9.3 3.7 1.3 8.8 3.8 13.6s4 10.2 5.6 12.5c1 1.4 2.9 3.4 4.9 4.5-.9-6.6-1.8-14.6-2.5-22.4l-1-1.5zm47.8 94.8v-29.4c-.2.2-1.7.7-10.5-.1-10-.9-24-17.4-29.5-25.9.4 6.6.7 13.4.9 15.8.1 2.1.3 4.8.9 7.7l.1-.1c-.1-.1 15.4 20 38.1 32z"/><path fill="#C08C76" d="M117.4 176.7c8.9.8 10.3.3 10.5.1V36.9c-3.9.6-8 .9-12.2.7-14-1-29.8 10.5-29.8 10.5v7.2s2.7 11 2.7 12.9c0 1.9-.5 10.5-1.4 12.5-.9 1.9-.5 3.4-1.8 6.7-1.4 3.4-1.8 8.6-1.8 8.6l.5 15.8-1.8 2.4-1.1-1.4c.7 7.9 1.5 15.9 2.5 22.4 1 6.9 2.1 12.3 3.3 14.2.3.4.6.9.9 1.4 5.6 8.5 19.6 25 29.5 25.9z"/><path fill="#959081" d="M84.5 211.7c.6 1.2 1.4 2.9 2.5 5-.9-2.7-1.9-5.5-2.7-8.2 0 1 .1 2.1.2 3.2zm34.5 12.2c-2.4-4.8-6-14.3-7.8-19.3-3.4 4.6-10.6 15.4-14.3 30.2 3.6 6.3 7.8 13.1 12.3 19.8 2.1.3 4.3.6 6.4.8l3.9-31.3c-.3-.1-.5-.2-.5-.2z"/><path fill="#8B6B2A" d="M128 225.4c-3.8 0-7.2-.9-8.4-1.3l-3.9 31.3c4.1.4 8.2.6 12.4.6v-30.6h-.1z"/><path fill="#9F7932" d="M128 206.8l-14.9-4.6s-.7.8-1.9 2.4c1.8 5 5.4 14.4 7.8 19.3 0 0 .2.1.6.2 1.3.4 4.6 1.3 8.4 1.3v-18.6z"/><path fill="#C08C76" d="M178.7 100.3c-.5 1.4 0 3.8 0 5.7 0 1.9-1.8 4.3-1.8 4.3l-1.8 2.9v-.9l-.4.6c-.7 7.8-1.5 15.7-2.5 22.2 2-1.1 3.9-3.1 4.9-4.5 1.6-2.2 3-7.7 5.6-12.5s3.5-9.9 3.8-13.6c.3-3.7-.3-9.1-4-9.9-.2 0-.4-.1-.7-.1l-1 .4c.1.2-1.7 4-2.1 5.4zm-40.1 76.4c-10.6 1-10.6 0-10.6 0v29.5c22.7-12 38.2-32.1 38.2-32.1l.1.1c.6-2.9.8-5.5.9-7.7.2-2.4.5-9.2.9-15.8-5.6 8.6-19.6 25.1-29.5 26z"/><path fill="#D7A990" d="M174.7 113l-.2.3v-9.1c0-2.9.9-11 .9-12.9 0-1.9-1.4-4.3-3.2-6.7-1.8-2.4 0-8.1 0-19.2S160 38.1 160 38.1s-8.1-3.8-12.2-4.8c-.2-.1-.5-.1-.8-.1-3.6.1-10.8 2.6-19.1 3.8v139.7s0 1 10.6 0c10-.9 24-17.4 29.5-25.9.3-.5.6-1 .9-1.4 1.2-2 2.3-7.3 3.3-14.2 1-6.5 1.8-14.4 2.5-22.2z"/><path fill="#A8A291" d="M171.5 211.7c.1-1.1.2-2.2.3-3.2-.9 2.7-1.8 5.5-2.7 8.2.9-2.1 1.8-3.8 2.4-5zm-26.7-7.1c-1.8 5-5.4 14.4-7.8 19.3 0 0-.2.1-.6.2l3.9 31.3c2.2-.2 4.3-.5 6.4-.8 4.5-6.7 8.7-13.5 12.3-19.8-3.6-14.7-10.7-25.6-14.2-30.2z"/><path fill="#9F7932" d="M128 225.4V256c4.2 0 8.3-.2 12.4-.6l-3.9-31.3c-1.3.4-4.7 1.3-8.5 1.3z"/><path fill="#C19F51" d="M128 206.8v18.6c3.9 0 7.2-.9 8.5-1.3.4-.1.6-.2.6-.2 2.4-4.8 6-14.3 7.8-19.3-1.2-1.6-1.9-2.4-1.9-2.4l-15 4.6z"/><path fill="#1E0C00" d="M80.2 111.4l1.1 1.4 1.1 1.4 1.8-2.4-.4-15.8s.5-5.3 1.8-8.6c1.4-3.4.9-4.8 1.8-6.7.9-1.9 1.4-10.5 1.4-12.5 0-1.9-2.7-12.9-2.7-12.9v-7.2s15.8-11.5 29.8-10.5c4.1.3 8.3-.1 12.2-.7V7.8h1.7c-15.1-.1-31 3.7-46.8 19.3-19.5 19.1-16.8 46.4-15 52.2 1.8 5.7 4 13.4 4 13.4s.9.8 1.9 2c1.3 1.5 2.8 3.6 3.1 5.2.4 2.8 3.2 11.5 3.2 11.5zm79.9-73.3s12.2 16.3 12.2 27.3-1.8 16.8 0 19.2c1.8 2.4 3.2 4.8 3.2 6.7 0 1.9-.9 10.1-.9 12.9v9.1l.2-.3.4-.6v-8.2c0-2.9.9-11 .9-12.9 0-1.9-1.4-4.3-3.2-6.7-1.8-2.4 0-8.1 0-19.2s-12.2-27.3-12.2-27.3-8.1-3.8-12.2-4.8c-.4-.1-.8-.1-1.3-.1.3 0 .6 0 .8.1 3.9.9 12.1 4.8 12.1 4.8z"/><path fill="#282316" d="M96.8 235l-2.4 1s-3.7-9-7.4-19.3c-1-2.1-1.9-3.7-2.5-5 1.1 12.2 3 25.5 5.3 38.5 6.3 2 12.7 3.4 19.3 4.4-4.5-6.7-8.7-13.5-12.3-19.8v.2z"/><path fill="#312C1F" d="M169 216.7c-3.6 10.3-7.4 19.3-7.4 19.3l-2.4-1c0-.1 0-.1-.1-.2-3.6 6.3-7.8 13.1-12.3 19.8 6.6-1 13.1-2.5 19.3-4.4 2.2-13 4.2-26.3 5.3-38.5-.5 1.2-1.4 2.9-2.4 5z"/><path fill="#A8A291" d="M85.3 179.4l-1.1 1.9c-.9 7.4-.8 16.8.1 27.2.9 2.7 1.8 5.5 2.7 8.2 3.6 10.3 7.4 19.3 7.4 19.3l2.4-1c0-.1 0-.1.1-.2 3.7-14.8 10.9-25.6 14.3-30.2 1.2-1.6 1.9-2.4 1.9-2.4l14.9 4.6v-.6c-22.7-12-38.1-32-38.1-32l-.1.1c-2.3 2.1-3.5 3.6-4.5 5.1zm42.7 27.4z"/><path fill="#322E21" d="M85.3 179.4c-.1 0 0 0 0 0zm-40.7 24.2c-4.7 2-10.9 3.8-15.9 5.1 7.6 9.3 16.4 17.6 26.3 24.4l14.2-41.8c-9.5 5.8-18.6 9.7-24.6 12.3z"/><path fill="#3F3A2C" d="M84.2 208.5c-.8-10.4-1-19.8-.1-27.2l1.1-1.9c-.3.1-9.3 4.3-15.3 9.7l-.8 2.2L55 233.1c10.6 7.4 22.3 13.2 34.9 17.1-2.2-13-4.2-26.3-5.3-38.5-.2-1.1-.3-2.2-.4-3.2z"/><path fill="#C7BFA9" d="M128 206.2v.6l14.9-4.6s.7.8 1.9 2.4c3.4 4.6 10.6 15.4 14.3 30.2 0 .1 0 .1.1.2l2.4 1s3.7-9 7.4-19.3c.9-2.7 1.9-5.5 2.7-8.2.8-10.4 1-19.8.1-27.2l-1.1-1.9c-1-1.5-2.2-3-4.4-5.2l-.1-.1s-15.5 20.1-38.2 32.1z"/><path fill="#3F3A2C" d="M186.8 191.3l14.2 41.8c9.9-6.9 18.8-15.1 26.3-24.4-5.1-1.3-11.2-3.1-15.9-5.1-6-2.6-15.1-6.5-24.6-12.3zm-16-11.9c-.1 0-.1 0 0 0-.1 0-.1 0 0 0-.1 0 0 0 0 0z"/><path fill="#484233" d="M186.1 189.1c-6-5.3-15-9.5-15.3-9.7l1.1 1.9c.9 7.4.8 16.8-.1 27.2-.1 1.1-.2 2.2-.3 3.2-1.1 12.2-3 25.5-5.3 38.5 12.6-3.9 24.3-9.7 34.9-17.1l-14.2-41.8-.8-2.2z"/><path fill="#2F1D0F" d="M128 31.6V37c8.3-1.2 15.5-3.7 19.1-3.8.5 0 1 0 1.3.1 4.1 1 12.2 4.8 12.2 4.8s12.2 16.3 12.2 27.3-1.8 16.8 0 19.2c1.8 2.4 3.2 4.8 3.2 6.7 0 1.9-.9 10.1-.9 12.9v9.1l1.8-2.9s1.8-2.4 1.8-4.3-.5-4.3 0-5.7c.5-1.4 2.3-5.3 2.3-5.3l1-.4 1.3-.5s6.9-19.6 3.7-26.8c2.9-9.1-1.2-22.5-4.3-27.3-3.2-4.8-6.2-10.5-21.1-13.4 0 0-2.4-16.3-21.1-18.2-3.5-.4-7.1-.6-10.8-.6H128v23.7z"/><path fill="#1E0C00" d="M97.1 82.1s16.8-.5 20.4 3.1c0 0 1.2 2.6-1.9 5 0 0-17-2.9-24.2-.2 0 0 .4-5.7 5.7-7.9z"/><path fill="#2F1D0F" d="M160.1 82.1s-16.8-.5-20.4 3.1c0 0-1.2 2.6 1.9 5 0 0 17-2.9 24.2-.2 0 0-.5-5.7-5.7-7.9z"/></svg>