<svg xmlns="http://www.w3.org/2000/svg" width="256" height="256"><circle fill="#B1B3B5" cx="128" cy="128" r="128"/><path fill="#C6C0C3" d="M165.7 209.3c-5.2 13.6-13.7 31.9-13.7 31.9-1.1-10-6.7-17.8-9.9-25-.7-1.6-1.8-3.4-3-5.4l-3 10.8-.3.3 7.6 33.1c5.6-.7 11.1-1.7 16.4-3.1 1-5 2-10.1 2.9-14.9l3-27.7z"/><path fill="#9C7360" d="M178.5 99.6h2.5v3.5h-2.1s-.1 12.9-3.8 14.9c-.2.1-.5.3-.9.4-.5 3.5-.9 6.7-1.3 9.6 3.5-.8 4.6-2.3 7.3-6.6 3.5-5.7 3.5-13.1 3.5-18.7s.3-9.4 1.9-12.1c1.6-2.7-.8-4-2.7-5.3-.9-.6-2.7 1-4.5 2.8-.4 2.8-.7 5.8-1.1 8.8 1.2 1.5 1.2 2.7 1.2 2.7zm-21.6 65.1c-8.5 7.6-13.6 11.4-28.7 11.5v19.7c1.8-1.1 14.4-9.2 26-17.9 7.4-5.6 10-12.6 11-16.7l.5-3.3v-.3l.3-2.1v-2.5c-2.3 4.2-5.4 8.2-9.1 11.6z"/><path fill="#C08C76" d="M144.8 88.8c5.5.2 11.4.6 16.2 1.1-2.4-1.1-5.2-2.2-8.1-2.5-3.6-.4-6.1.6-8.1 1.4z"/><path fill="#C08C76" d="M128.2 88.3c1.2 0 5.3.1 10.4.3-1.7-1.5-2-3.6-2-3.6 1 0 3.6 1.2 11.7-.7s12.9 1.4 15.1 2.9c1 .7 1.8 2.1 2.2 3.3 2 .3 3.6.6 4.6 1 4.1 1.7 6.2 3.7 7.3 5.3.4-2.9.8-5.9 1.1-8.8 1.1-8.5 1.9-15.6 1.9-15.6s.8-21-1.3-28.7C168.9 4.7 131.1 8 128 8.4h.2v79.9z"/><path fill="#C08C76" d="M134.6 97.6s.4-6.7 7.9-7.1l-14.3-.3v5.7c1.1 0 4.1 0 6.4 1.7zm13.8 22.7c-8.1-2.2-10.4-7.6-11.9-13.1s-1.7-7.8-1.7-7.8-2.1-1.4-6.5-1.5v78.3c15-.1 20.1-3.9 28.7-11.5 3.8-3.4 6.8-7.4 9.1-11.6 2.7-4.8 4.4-9.7 5.2-14 .7-3.6 1.3-7.3 1.8-11.2.4-3 .8-6.1 1.3-9.6-4.8 1.9-18.5 4-26 2z"/><path fill="#3E3126" d="M152.9 87.4c2.9.3 5.8 1.4 8.1 2.5 1.7.2 3.2.4 4.6.6-.5-1.2-1.2-2.6-2.2-3.3-2.2-1.4-6.9-4.8-15.1-2.9-8.1 1.9-10.8.7-11.7.7 0 0 .3 2.1 2 3.6 2 .1 4.1.1 6.2.2 2-.8 4.5-1.8 8.1-1.4z"/><path fill="#274055" d="M128.2 223.9V256c5.1 0 10.2-.3 15.2-.9l-7.6-33.1c-.7.5-2.6 1.8-7.6 1.9z"/><path fill="#2E373B" d="M192.2 179.9c12.4 14.5 23 39.4 23 39.4l-16.1 8.3 4.9 3.3c11.8-8.7 22-19.4 30.2-31.6-4.8-2.4-9.5-4.7-13.4-6.5-6.6-3-18.1-8.2-28.6-12.9zm-29.5 57.2c.9-4.8 1.7-9.2 2.4-13.2 1.4-7.8 2.5-15.5 3.4-22.4-.7 2.2-1.7 4.9-2.8 7.8l-3 27.8z"/><path fill="#20282C" d="M165.1 161.2c.4-1.6.5-2.8.5-3.3l-.5 3.3zm50.2 58.1s-10.6-24.9-23-39.4c-1.6-1.9-3.3-3.6-5-5.1-14.4-12.6-14.1-18.7-21.1-20.7l-.2 1.4-.3 2.1c3.4 1.2 3.4 8.6 3.4 8.6 6.2 5.5 3.2 21.5 0 33.2l-.6 2.1c-.9 6.9-2 14.6-3.4 22.4-.7 3.9-1.5 8.4-2.4 13.2-.9 4.8-1.9 9.9-2.9 14.9 16.2-4.1 31.2-11.4 44.3-21.1l-4.9-3.3 16.1-8.3z"/><path fill="#2B455B" d="M128.2 195.9zm0 .4v27.6c5-.1 6.9-1.3 7.6-2l.3-.3 3-10.8c-4-6.2-9.7-13.1-10.9-14.5z"/><path fill="#F4F3F7" d="M165.6 157.9c0 .5-.2 1.7-.5 3.3-.9 4.2-3.6 11.2-11 16.7-11.5 8.7-24.2 16.8-26 17.9v.4c1.2 1.4 6.9 8.3 10.9 14.5 1.3 1.9 2.3 3.8 3 5.4 3.2 7.2 8.8 14.9 9.9 25 0 0 8.4-18.3 13.7-31.9 1.1-2.9 2.1-5.5 2.8-7.8.2-.8.5-1.5.6-2.1 3.2-11.6 6.2-27.7 0-33.2 0 0 0-7.4-3.4-8.6.1.1.1.2 0 .4z"/><path fill="#9C7360" d="M174.9 114.5c.6-.8 1-1.9 1.4-3.4.5-2.2.7-5.1.3-8-.4 3.1-.9 6-1.2 8.2-.2 1.1-.4 2.2-.5 3.2z"/><path opacity=".4" fill="#D7B6AC" d="M174.9 114.5c.6-.8 1-1.9 1.4-3.4.5-2.2.7-5.1.3-8-.4 3.1-.9 6-1.2 8.2-.2 1.1-.4 2.2-.5 3.2z"/><path fill="#C08C76" d="M137.4 102.8c.6 2.9 1.4 12.8 10.1 15.4 8.8 2.6 17.5.3 22-.8 2.8-.7 4.4-1.4 5.4-2.9.2-1 .3-2.1.5-3.1.4-2.3.8-5.1 1.2-8.2-.3-2.2-.9-4.4-2-6-1.4-2.2-4.3-3.5-8.4-4.4v.2s-.2-.1-.5-.4c-2.7-.6-5.9-1-9.5-1.3 0 0-5.9-.9-13.3.3-7.2 1.2-6.1 8.2-5.5 11.2z"/><path opacity=".4" fill="#D7B6AC" d="M137.4 102.8c.6 2.9 1.4 12.8 10.1 15.4 8.8 2.6 17.5.3 22-.8 2.8-.7 4.4-1.4 5.4-2.9.2-1 .3-2.1.5-3.1.4-2.3.8-5.1 1.2-8.2-.3-2.2-.9-4.4-2-6-1.4-2.2-4.3-3.5-8.4-4.4v.2s-.2-.1-.5-.4c-2.7-.6-5.9-1-9.5-1.3 0 0-5.9-.9-13.3.3-7.2 1.2-6.1 8.2-5.5 11.2z"/><path fill="#3E3126" d="M166.2 92.7c-.2 0-.3-.1-.5-.1.3.2.5.4.5.4s.1-.2 0-.3z"/><path opacity=".4" fill="#D7B6AC" d="M166.2 92.7c-.2 0-.3-.1-.5-.1.3.2.5.4.5.4s.1-.2 0-.3z"/><path fill="#836559" d="M136.4 107.2c1.5 5.4 3.9 10.8 11.9 13.1 7.5 2.1 21.3-.1 26-2 .3-.1.6-.3.9-.4 3.6-1.9 3.8-14.9 3.8-14.9h2.1v-3.5h-2.5s0-1.2-1.1-2.8c-1-1.6-3.1-3.6-7.3-5.3-1-.4-2.6-.7-4.6-1-1.4-.2-2.9-.4-4.6-.6-4.8-.5-10.7-.8-16.2-1.1-2.2-.1-4.3-.2-6.2-.2-5.1-.2-9.1-.2-10.4-.3v1.9l14.3.3c-7.5.4-7.9 7.1-7.9 7.1-2.4-1.7-5.3-1.7-6.4-1.7v1.9c4.4.1 6.5 1.5 6.5 1.5s.2 2.6 1.7 8zm6.6-15.6c7.4-1.3 13.3-.3 13.3-.3 3.6.4 6.8.8 9.5 1.3.2 0 .3.1.5.1 4.1.9 7 2.2 8.4 4.4 1 1.6 1.7 3.8 2 6 .4 2.8.2 5.8-.3 8-.4 1.5-.8 2.5-1.4 3.4-1 1.4-2.6 2.2-5.4 2.9-4.4 1.1-13.2 3.5-22 .8-8.8-2.6-9.6-12.5-10.1-15.4s-1.8-10 5.5-11.2z"/><path fill="#A49FA3" d="M119.9 221.6l-3-10.8a33.5 33.5 0 0 0-3 5.4c-3.2 7.2-8.8 14.9-9.9 25 0 0-8.4-18.3-13.7-31.9l3 27.8c.9 4.8 1.9 9.9 2.9 14.9 5.3 1.4 10.8 2.4 16.4 3.1l7.6-33.1c-.2-.3-.3-.4-.3-.4z"/><path fill="#876453" d="M80.8 117.9C77.2 116 77 103 77 103h-2v-3.5h2.5s0-1.2 1.1-2.8c-.4-2.9-.8-5.9-1.1-8.8-1.8-1.9-3.6-3.4-4.5-2.8-1.9 1.3-4.3 2.6-2.7 5.3 1.6 2.7 1.9 6.5 1.9 12.1s0 12.9 3.5 18.7c2.7 4.4 3.8 5.8 7.3 6.6-.4-3-.8-6.1-1.3-9.6-.4 0-.6-.2-.9-.3zm9.5 39.7v.3l.5 3.3c.9 4.2 3.6 11.2 11 16.7 11.5 8.7 24.2 16.8 26 17.9l.4.1v-19.8c-15.3 0-20.4-3.8-29.1-11.5-3.8-3.4-6.8-7.4-9.1-11.6v2.5l.3 2.1z"/><path fill="#9C7360" d="M103.1 87.4c-2.9.3-5.8 1.4-8.1 2.5 4.8-.5 10.7-.8 16.2-1.1-2-.8-4.5-1.8-8.1-1.4zm10.4 3.1c7.5.4 7.9 7.1 7.9 7.1 2.9-2.1 6.8-1.7 6.8-1.7v-5.7l-14.7.3z"/><path fill="#9C7360" d="M85.8 91.5c1-.4 2.6-.7 4.6-1 .5-1.2 1.2-2.6 2.2-3.3 2.2-1.4 6.9-4.8 15.1-2.9 8.1 1.9 10.8.7 11.7.7 0 0-.3 2.1-2 3.6 6.2-.2 10.8-.3 10.8-.3V8.4h-.2c-3.1-.4-40.9-3.7-51.2 35.3-2 7.7-1.3 28.7-1.3 28.7s.8 7.1 1.9 15.6c.4 2.8.7 5.8 1.1 8.8 1.1-1.6 3.2-3.6 7.3-5.3zm13.3 73.2c8.6 7.7 13.7 11.5 29.1 11.5V97.9c-4.7 0-6.9 1.5-6.9 1.5s-.1 2.4-1.7 7.8-3.9 10.8-11.9 13.1c-7.5 2.1-21.3-.1-26-2 .5 3.5.9 6.7 1.3 9.6.5 4 1.1 7.6 1.8 11.2.9 4.3 2.6 9.2 5.2 14 2.3 4.2 5.4 8.2 9.1 11.6z"/><path fill="#2F2319" d="M103.1 87.4c3.6-.4 6.1.6 8.1 1.4 2.2-.1 4.3-.2 6.2-.2 1.7-1.5 2-3.6 2-3.6-1 0-3.6 1.2-11.7-.7s-12.9 1.4-15.1 2.9c-1 .7-1.8 2.1-2.2 3.3 1.4-.2 2.9-.4 4.6-.6 2.4-1.1 5.2-2.2 8.1-2.5z"/><path fill="#1B3345" d="M120.2 221.9l-7.6 33.1c5.1.6 10.2.9 15.4.9h.2v-32.1c-5.3.1-7.3-1.2-8-1.9z"/><path fill="#20282C" d="M40.7 219.3s10.6-24.9 23-39.4c-10.4 4.7-22 9.9-28.7 13-3.9 1.8-8.6 4.1-13.4 6.5 8.2 12.2 18.4 22.9 30.2 31.6l4.9-3.3-16-8.4zm50.2 4.6c.7 3.9 1.5 8.4 2.4 13.2l-3-27.8c-1.1-2.9-2.1-5.5-2.8-7.8.9 6.9 2 14.6 3.4 22.4z"/><path fill="#0F171B" d="M90.4 157.9c0 .5.2 1.7.5 3.3l-.5-3.3zm.5 66c-1.4-7.8-2.5-15.5-3.4-22.4-.2-.8-.5-1.5-.6-2.1-3.2-11.6-6.2-27.7 0-33.2 0 0 0-7.4 3.4-8.6l-.3-2.1-.2-1.4c-6.9 2-6.6 8-21.1 20.7-1.7 1.5-3.3 3.2-5 5.1-12.4 14.5-23 39.4-23 39.4l16.1 8.3-4.9 3.3c13.1 9.7 28 16.9 44.3 21.1-1-5-2-10.1-2.9-14.9-.9-4.8-1.7-9.3-2.4-13.2z"/><path fill="#274055" d="M128.2 197.1V196l-.4-.1c.1.1.2.1.2.1s-6.6 7.9-11.1 14.7l3 10.8.3.3c.7.6 2.7 2 8 2v-26.7z"/><path fill="#C6C0C3" d="M128 196s-.1-.1-.2-.1c-1.8-1.1-14.4-9.2-26-17.9-7.4-5.6-10-12.6-11-16.7-.4-1.6-.5-2.8-.5-3.3v-.3c-3.4 1.2-3.4 8.6-3.4 8.6-6.2 5.5-3.2 21.5 0 33.2l.6 2.1c.7 2.2 1.7 4.9 2.8 7.8 5.2 13.6 13.7 31.9 13.7 31.9 1.1-10 6.7-17.8 9.9-25 .7-1.6 1.8-3.4 3-5.4 4.5-7 11.1-14.9 11.1-14.9z"/><path fill="#876453" d="M79.4 103.1c-.4 2.8-.2 5.8.3 8 .4 1.5.8 2.5 1.4 3.4-.2-1-.3-2.1-.5-3.1-.3-2.3-.8-5.2-1.2-8.3z"/><path opacity=".4" fill="#D7B6AC" d="M79.4 103.1c-.4 2.8-.2 5.8.3 8 .4 1.5.8 2.5 1.4 3.4-.2-1-.3-2.1-.5-3.1-.3-2.3-.8-5.2-1.2-8.3z"/><path fill="#9C7360" d="M113 91.6c-7.4-1.3-13.3-.3-13.3-.3-3.6.4-6.8.8-9.5 1.3-.3.2-.5.4-.5.4v-.2c-4.1.9-7 2.2-8.4 4.4-1 1.6-1.7 3.8-2 6 .4 3.1.9 6 1.2 8.2.2 1.1.3 2.1.5 3.1 1 1.4 2.6 2.2 5.4 2.9 4.4 1.1 13.2 3.5 22 .8 8.8-2.6 9.6-12.5 10.1-15.4s1.8-10-5.5-11.2z"/><path opacity=".4" fill="#D7B6AC" d="M113 91.6c-7.4-1.3-13.3-.3-13.3-.3-3.6.4-6.8.8-9.5 1.3-.3.2-.5.4-.5.4v-.2c-4.1.9-7 2.2-8.4 4.4-1 1.6-1.7 3.8-2 6 .4 3.1.9 6 1.2 8.2.2 1.1.3 2.1.5 3.1 1 1.4 2.6 2.2 5.4 2.9 4.4 1.1 13.2 3.5 22 .8 8.8-2.6 9.6-12.5 10.1-15.4s1.8-10-5.5-11.2z"/><path fill="#2F2319" d="M90.2 92.6c-.2 0-.3.1-.5.1v.2s.2-.1.5-.3z"/><path opacity=".4" fill="#D7B6AC" d="M90.2 92.6c-.2 0-.3.1-.5.1v.2s.2-.1.5-.3z"/><path fill="#6B5247" d="M121.4 97.6s-.4-6.7-7.9-7.1l14.7-.3v-1.9s-4.6.1-10.8.3c-2 .1-4.1.1-6.2.2-5.5.2-11.4.6-16.2 1.1-1.7.2-3.2.4-4.6.6-2 .3-3.6.6-4.6 1-4.1 1.7-6.2 3.7-7.3 5.3-1.1 1.6-1.1 2.8-1.1 2.8H75v3.5h2.1s.1 12.9 3.8 14.9c.2.1.5.3.9.4 4.7 1.9 18.4 4.1 26 2 8.1-2.2 10.4-7.6 11.9-13.1s1.7-7.8 1.7-7.8 2.2-1.5 6.9-1.5v-2c-.1 0-4-.5-6.9 1.6zm-2.8 5.2c-.6 2.9-1.4 12.8-10.1 15.4-8.8 2.6-17.5.3-22-.8-2.8-.7-4.4-1.4-5.4-2.9-.6-.8-1-1.9-1.4-3.4-.5-2.2-.7-5.1-.3-8 .3-2.2.9-4.4 2-6 1.4-2.2 4.3-3.5 8.4-4.4.2 0 .3-.1.5-.1 2.7-.6 5.9-1 9.5-1.3 0 0 5.9-.9 13.3.3 7.2 1.2 6.1 8.2 5.5 11.2z"/></svg>