<svg xmlns="http://www.w3.org/2000/svg" width="256" height="256"><circle fill="#B1B3B5" cx="128" cy="128" r="128"/><path fill="#786B49" d="M49.6 211.2c1.4 3.1 2.9 6.3 4.4 9.5 4.8-2.9 9.1-5.7 11-7.8-5-1.9-10.6-2.4-15.4-1.7z"/><path fill="#21291F" d="M33 181.9c1.1-1.9 2.7-3.7 4.6-5.5-2.9-.1-10.8-.1-13.6 2.2-2.5 2.1-7.7 2.7-11.4 4.8a125 125 0 0 0 8.6 15.1c4.6-6 9.4-12.5 11.8-16.6zm16.6 29.3c-2.4.3-4.6.9-6.4 1.7-1.8.9-5.1 1.7-8.8 2.5 3.4 3.6 7 7.1 10.8 10.3 2.8-1.5 5.9-3.2 8.8-4.9-1.5-3.4-3-6.6-4.4-9.6z"/><path fill="#7E7654" d="M228.4 189.9c3.4.7 6.9 1.4 10.5 2.1 1.1-1.8 2.1-3.7 3-5.6-6.1-.6-12.2-1-16.8-1.3.9 1.5 2.1 3.1 3.3 4.8z"/><path fill="#938962" d="M191 212.9c3.1 3.3 12.2 8.7 19.8 12.7 3.8-3.2 7.4-6.6 10.8-10.3-3.7-.7-6.9-1.6-8.8-2.5-5.3-2.4-14.3-2.7-21.8.1zm43.8-14.3c1.4-2.1 2.8-4.3 4.1-6.6-3.6-.7-7.1-1.4-10.5-2.1 2 2.8 4.2 5.8 6.4 8.7z"/><path fill="#786B49" d="M225.1 185.2c-.8-1.2-1.5-2.3-2.1-3.3-5.7-9.6-22.7-17.2-30.7-21.4-5.8-3-15.8-3.3-20.7-3.3-.5 3.2-1 6.9-1.5 10.7v.2l.4-3.3s3.9 10.3 4.3 18.4c3.4 6.9 12.5 24.8 15.6 28.9.2.2.4.4.6.7 7.5-2.8 16.5-2.5 21.8 0 1.8.9 5.1 1.7 8.8 2.5 4.9-5.2 9.3-10.8 13.2-16.8-2.2-2.9-4.4-5.9-6.4-8.7-1.2-1.6-2.4-3.2-3.3-4.6z"/><path fill="#6A5F40" d="M191 212.9c-.2-.2-.4-.4-.6-.7-3.1-4.1-12.2-22.1-15.6-28.9.1 1.5 0 2.9-.2 4.2-1.4 8.1-14.4 25.9-15.8 30.2-.9 2.6-7.3 20.6-12.9 37.1 24.6-3.4 46.9-13.8 64.9-29.1-7.6-4.1-16.7-9.5-19.8-12.8z"/><path fill="#D0A48C" d="M152 200.5c5.5-3.8 13.6-5.2 16.1-15.6.5-5.1 1.3-11.2 2.1-17 .5-3.8 1.1-7.4 1.5-10.7.3-1.7.5-3.3.7-4.8-2.8 5.5-9.5 17.6-14.7 20.8-6.7 4.2-22 8.6-22 8.6l.6-1.9-3.8 1.9-2.2-1.3-2.2 1.3V256c1.3 0 2.5 0 3.8-.1 1.6-10 5.6-26.9 9.8-35.4 5.1-10.5 4.1-15.7 10.3-20z"/><path fill="#938962" d="M166.3 34.1c3.8 2.9 27.8 24.6 28.4 31.3s-6.4 12.2-6.4 12.2 7.3 9.3 7.3 16.9c0 5.1-2.3 11-3.9 14.3 1.8-1.3 4.6-4.7 4.9-13.3.3-12.5-1.6-25.7-1.6-25.7s2.6-4 1.6-8-8.3-15.2-9.6-19.3c-1.3-4.2-10.9-23.9-24.3-28.4C149.4 9.5 128 2.5 128 2.5V12c23.9 6.1 34.5 19.2 38.3 22.1z"/><path fill="#2A2111" d="M188.3 77.5s7-5.5 6.4-12.2-24.6-28.3-28.4-31.2c-3.8-2.9-14.4-16-38.3-22v13.6s31.5 2.9 40.7 12.3c10.9 11.2 21.8 54 21.8 54l-4.7 7c2.1-1.4 4.2-1.8 4.7 1.6.4 3.1.7 6.3.8 9.3.2-.3.3-.7.5-1.1 1.5-3.3 3.9-9.1 3.9-14.3 0-7.7-7.4-17-7.4-17z"/><path fill="#BC9680" d="M190.5 100.5c-.5-3.4-2.6-3-4.7-1.6l-4.1 6.2c-.6 6.6-.8 16.4-1.3 24.2 1.2.2 2.4.5 3.6.8 4.8 1.5 4.2-1.2 4.2-2.8s1.3-5.1 2.4-8c.7-1.7.9-5.3.8-9.5-.2-3-.5-6.3-.9-9.3z"/><path fill="#D7A990" d="M151 157.3c1.9-2.6 2.6-5.7 2.6-8.9s-2.6-9.9-2.6-9.9l-2.9-3.5s-.6-.3-5.4-2.9-11.8-2-11.8-2l-2.9.4v37s15-.6 17.2-2.9c2.3-2.2 3.9-4.7 5.8-7.3z"/><path fill="#D7A990" d="M180.5 80.4c-1.6-9.6-3-17.2-3-17.2l.6 10.9S169 61 159.2 56.2l7.7 9.2s-12.8-12.7-30.3-21.7c0 0 12 12.6 17.4 22.5 2.8-.5 5.8-.9 7.7-.8 3.8.3 7 7 7 7-4.3-3.5-7.9-3.1-12.8-2.2.2.6.4 1.3.5 1.9 0 0-.5-.6-1.4-1.7-.6.1-1.3.3-1.9.4-6.4 1.3-15 4.2-16.9 2.9-1.9-1.3 0-5.7 0-5.7s8 .3 10.9-.3c1-.2 2.5-.6 4.2-.9-4.8-4.4-12.7-10.4-23.2-13.8v71.2s5.7.6 8-1.9c0 0 15.3 9.3 16.6 14 1.3 4.8 3.2 10.5 5.1 12.1s9.6 3.8 11.2 3.5c1.6-.3 4.8-2.1 4.8-2.1 3.2-4.3 4.7-7.2 5.5-10.7.5-2.2.8-5.7 1.1-9.8.5-7.8.7-17.6 1.3-24.2-.1 0 .4-15.1-1.2-24.7z"/><path fill="#372917" d="M168.7 72.4s-3.2-6.7-7-7c-1.9-.2-4.8.2-7.7.8.8 1.4 1.4 2.8 1.9 4.1 4.9-1 8.5-1.4 12.8 2.1zm-17.5-5.7c-1.7.4-3.3.7-4.2.9-2.9.6-10.9.3-10.9.3s-1.9 4.5 0 5.7c1.9 1.3 10.5-1.6 16.9-2.9.7-.1 1.3-.3 1.9-.4-.8-.8-2.1-2.1-3.7-3.6z"/><path fill="#372917" d="M155 70.4c1 1 1.4 1.7 1.4 1.7-.1-.6-.3-1.2-.5-1.9-.4-1.3-1.1-2.7-1.9-4.1-5.4-9.8-17.4-22.5-17.4-22.5 17.6 8.9 30.3 21.7 30.3 21.7l-7.7-9.2C169 60.9 178.1 74 178.1 74l-.6-10.9s1.4 7.7 3 17.2 1.1 24.7 1.1 24.7l4.1-6.2 4.7-7s-10.9-42.8-21.8-54c-9.1-9.4-40.7-12.3-40.7-12.3v27.3c10.5 3.4 18.4 9.4 23.2 13.8 1.7 1.6 3 2.9 3.9 3.8z"/><path fill="#B08C79" d="M168.9 151.9c-1.6.3-9.3-1.9-11.2-3.5s-3.8-7.3-5.1-12.1c-1.3-4.8-16.6-14-16.6-14-2.2 2.6-8 1.9-8 1.9v6.4l2.9-.4s7-.6 11.8 2 5.4 2.9 5.4 2.9l2.9 3.5s2.6 6.7 2.6 9.9-.6 6.4-2.6 8.9c-1.9 2.6-3.5 5.1-5.7 7.3s-17.2 2.9-17.2 2.9v14.3l2.2-1.3 2.2 1.3 3.8-1.9-.6 1.9s15.3-4.5 22-8.6c5.2-3.2 11.9-15.4 14.7-20.8.8-1.6 1.3-2.7 1.3-2.7s-3.2 1.8-4.8 2.1z"/><path fill="#443C2D" d="M174.6 187.5c.2-1.3.3-2.7.2-4.2-.4-8.1-4.3-18.4-4.3-18.4l-.4 3.3-1.4 11.9c-.1 1.8-.3 3.4-.7 4.8-2.4 10.4-10.6 11.8-16.1 15.6-6.2 4.3-5.2 9.5-10.4 20-4.2 8.5-8.2 25.4-9.8 35.4 4.8-.1 9.5-.5 14.1-1.2 5.7-16.5 12.1-34.5 12.9-37.1 1.5-4.2 14.5-21.9 15.9-30.1z"/><path fill="#6A5F40" d="M49.6 211.2c4.8-.6 10.4-.1 15.4 1.7.2-.2.4-.4.6-.7 3.1-4.1 12.2-22.1 15.6-28.9.4-8.1 4.3-18.4 4.3-18.4l.4 3.3v-.2c-.5-3.8-1.1-7.4-1.5-10.7-4.9-.1-14.8.2-20.7 3.3-6.4 3.3-18.5 8.9-26 15.9-1.9 1.7-3.5 3.6-4.6 5.5-2.5 4.1-7.2 10.6-11.8 16.7 3.9 6 8.4 11.6 13.2 16.8 3.7-.7 6.9-1.6 8.8-2.5 1.7-.9 3.9-1.5 6.3-1.8z"/><path fill="#595035" d="M81.4 187.5c-.2-1.3-.3-2.7-.2-4.2-3.4 6.9-12.5 24.8-15.6 28.9-.2.2-.4.4-.6.7-1.9 2-6.2 4.9-11 7.8-2.9 1.7-6 3.4-8.8 4.9 18 15.3 40.4 25.7 64.9 29.1-5.7-16.5-12.1-34.5-12.9-37.1-1.4-4.2-14.4-21.9-15.8-30.1z"/><path fill="#AB8875" d="M125.8 180.6l-2.2 1.3-3.8-1.9.6 1.9s-15.3-4.5-22-8.6c-5.2-3.2-11.9-15.4-14.7-20.8.2 1.4.5 3 .7 4.8.5 3.2 1 6.9 1.5 10.7.8 5.8 1.6 11.8 2.1 17 2.4 10.4 10.6 11.8 16.1 15.6 6.2 4.3 5.2 9.5 10.4 20 4.2 8.5 8.2 25.4 9.8 35.4 1.2 0 2.5.1 3.8.1V182l-2.3-1.4z"/><path fill="#786B49" d="M67.7 77.5s-1.1-5.5-.5-12.1 22.6-47.6 26.4-50.5c3.8-2.9 16-6 34.4-2.9V2.5S110.2-.1 96.8 4.4C83.4 8.9 70.2 38.2 69 42.4c-1.3 4.2-4.9 19-5.9 23s2.5 11.5 2.5 11.5-6.5 6.1-6.2 18.5c.2 8.6 3.1 12 4.9 13.3-1.5-3.3-3.9-9.1-3.9-14.3-.1-7.6 7.3-16.9 7.3-16.9z"/><path fill="#201805" d="M65.5 100.5c.5-3.4 2.6-3 4.7-1.6l-4.7-7s14.7-51.4 25.6-62.6c9.1-9.4 36.9-3.7 36.9-3.7V12c-18.4-3.2-30.6 0-34.5 2.9-3.8 2.9-25.8 43.8-26.4 50.5s.5 12.1.5 12.1-7.3 9.3-7.3 16.9c0 5.1 2.3 11 3.9 14.3.2.4.4.8.5 1.1.1-3 .4-6.3.8-9.3z"/><path fill="#A78573" d="M70.2 98.9c-2.1-1.4-4.2-1.8-4.7 1.6-.4 3.1-.7 6.3-.8 9.3-.1 4.2.1 7.8.8 9.5 1.2 2.9 2.4 6.4 2.4 8s-.6 4.3 4.2 2.8c1.1-.4 2.3-.6 3.6-.8-.5-7.8-.7-17.6-1.3-24.2l-4.2-6.2z"/><path fill="#BC9680" d="M128 130.6l-2.9-.4s-7-.6-11.8 2-5.4 2.9-5.4 2.9l-2.9 3.5s-2.6 6.7-2.6 9.9.6 6.4 2.6 8.9c1.9 2.6 3.5 5.1 5.7 7.3s17.2 2.9 17.2 2.9v-37z"/><path fill="#BC9680" d="M87.1 151.9c1.6.3 9.3-1.9 11.2-3.5s3.8-7.3 5.1-12.1c1.3-4.8 16.6-14 16.6-14 2.2 2.6 8 1.9 8 1.9V52.9c-9.8-4.2-24-7.3-24-7.3 8.8 3.1 15.8 9.3 15.8 9.3C81.2 37.9 77.9 74 77.9 74l.6-10.9s-1.4 7.7-3 17.2-1.1 24.7-1.1 24.7c.6 6.6.8 16.4 1.3 24.2.3 4.1.6 7.7 1.1 9.8.8 3.5 2.3 6.3 5.5 10.7 0 .1 3.2 1.9 4.8 2.2zm.2-79.5s3.2-6.7 7-7c3.8-.3 11.8 1.6 14.7 2.2 2.9.6 10.9.3 10.9.3s1.9 4.5 0 5.7c-1.9 1.3-10.5-1.6-16.9-2.9s-10.6-2.5-15.7 1.7z"/><path fill="#241803" d="M119.9 73.7c1.9-1.3 0-5.7 0-5.7s-8 .3-10.9-.3c-2.9-.6-10.9-2.6-14.7-2.2-3.8.3-7 7-7 7 5.1-4.2 9.3-2.9 15.6-1.6s15.1 4.1 17 2.8z"/><path fill="#241803" d="M128 25.6s-27.8-5.7-36.9 3.7C80.2 40.5 65.5 91.9 65.5 91.9l4.7 7 4.1 6.2s-.5-15.2 1.1-24.7 3-17.2 3-17.2L77.9 74s3.3-36.1 42-19.2c0 0-7-6.2-15.8-9.3 0 0 14.2 3.2 24 7.3V25.6z"/><path fill="#947765" d="M98.3 173.3c6.7 4.2 22 8.6 22 8.6l-.6-1.9 3.8 1.9 2.2-1.3 2.2 1.3v-14.3s-15-.6-17.2-2.9c-2.2-2.2-3.8-4.8-5.7-7.3-1.9-2.6-2.6-5.7-2.6-8.9s2.6-9.9 2.6-9.9l2.9-3.5s.6-.3 5.4-2.9 11.8-2 11.8-2l2.9.4v-6.4s-5.7.6-8-1.9c0 0-15.3 9.3-16.6 14-1.3 4.8-3.2 10.5-5.1 12.1s-9.6 3.8-11.2 3.5c-1.6-.3-4.8-2.1-4.8-2.1s.5 1 1.3 2.7c2.9 5.4 9.5 17.6 14.7 20.8z"/><path fill="#362F21" d="M104 200.5c-5.5-3.8-13.6-5.2-16.1-15.6-.3-1.4-.6-3-.7-4.8l-1.4-11.9-.4-3.3s-3.9 10.3-4.3 18.4c-.1 1.5 0 2.9.2 4.2 1.4 8.1 14.4 25.9 15.8 30.2.9 2.6 7.3 20.6 12.9 37.1 4.6.6 9.3 1 14.1 1.2-1.6-10-5.6-26.9-9.8-35.4-5.1-10.6-4.1-15.8-10.3-20.1z"/></svg>