<svg xmlns="http://www.w3.org/2000/svg" width="256" height="256"><circle fill="#B1B3B5" cx="128" cy="128" r="128"/><path fill="#231F20" d="M171.3 160.5c-.1-2.5-6.7-4.1-6.7-4.1-.1 4.8 0 9.9.1 14.8 3.3-3 6.6-7 6.6-10.7zm-6.7-6v2-2z"/><path fill="#BC9680" d="M145.3 183.8c1.1-.8 3.7-2.2 6.7-3.8l6.7-3.9c1.3-.9 3.7-2.6 6-4.8-.1-4.9-.2-10-.1-14.8v-2c0-1.1 0-2.2.1-3.3v-.7l-.1.1c-3.8 5.1-15 18.2-19.8 22.4s-16.7 3.8-16.7 3.8v15.7c5.1 0 9.9-1.3 14.3-3.3.9-2.7 2-4.7 2.9-5.4z"/><path fill="#36261F" d="M161 30.6c19.4 7.9 22.4 50.5 22.4 50.5.7-8.6 1.4-24.7-.6-40.5-2.9-23.1-27.8-21.7-27.8-21.7-6.5-12-27-10.5-27-10.5v2.9s9 1 16.6 2.6c7.8 1.7 16.4 16.7 16.4 16.7zM183.3 82c0-.3 0-.5.1-.8l-2.4 2.2c.7-.5 1.5-1 2.3-1.4z"/><path fill="#BC9680" d="M179.7 84.5c.5 3.6-1.9 14.1-1.9 14.1s0-.8-.1-1.9c-.7 6.3-2.1 17.2-3.4 26.4 2.7.2 4.4-.2 5.9-1 2.2-1.2 4.1-4.1 4.6-7.4.5-3.4 4.1-5.7 5.3-9.3 1.2-3.6 1.9-12.9 1.7-18-.2-5-2.9-6.2-5.7-6.2-.7 0-1.6.3-2.6.8-.8.4-1.6.8-2.4 1.3l-1.4 1.2z"/><path fill="#D7A990" d="M144.8 173c4.8-4.2 16-17.2 19.8-22.4l.1-.1c3.8-5 6.6-8.6 8.2-18.1.4-2.6.9-5.8 1.4-9.3 1.3-9.2 2.7-20.1 3.4-26.4-.2-2.8-.6-7.7-1.6-9.6-1.4-2.6-1.5-11-.3-17.5s-1.7-9.3-5.7-20.1-20.8-14.1-20.8-14.1l-1.6-1-.3 1.2c-5 6.2-19.3 11-19.3 11v130.1c-.1.1 11.9.4 16.7-3.7zm19.9-88c2.4 0 7 4.8 7 4.8-2.1-1.2-7.5-1-7.5-1s-8.1 4.3-13.2 6.2c-5 1.9-10.1 7.2-12.9 7.2-2.9 0-4.8-5-4.8-5s4.1-.5 5.3 0c1.2.5 11.5-4.6 13.9-6.2s9.8-6 12.2-6z"/><path fill="#5B453C" d="M148.4 17.7c2 5.2.1 13.6-.7 16.7l1.6 1c2.9-10-.9-17.7-.9-17.7z"/><path fill="#36261F" d="M147.3 35.7s.1-.5.3-1.2c.8-3.1 2.7-11.6.7-16.7 0 0 3.8 7.7.9 17.7 0 0 16.8 3.4 20.8 14.1 4 10.8 6.9 13.7 5.7 20.1-1.2 6.5-1.1 14.8.3 17.5 1 1.9 1.4 6.8 1.6 9.6.1 1.2.1 1.9.1 1.9s2.4-10.5 1.9-14.1l1.3-1.2 2.4-2.2s-3-42.6-22.4-50.5c0 0-8.6-15.1-16.3-16.8-7.7-1.7-16.6-2.6-16.6-2.6v35.4s14.3-4.8 19.3-11z"/><path fill="#36261F" d="M138.6 97.2c-1.2-.5-5.3 0-5.3 0s1.9 5 4.8 5S146 96.9 151 95c5-1.9 13.2-6.2 13.2-6.2s5.3-.2 7.5 1c0 0-4.6-4.8-7-4.8s-9.8 4.3-12.2 6-12.7 6.7-13.9 6.2z"/><path fill="#282929" d="M137 208.3c.8-3.5 2.9-13 5.3-19.1-4.4 2-9.2 3.3-14.3 3.3v17.2l6.6-.9c.9-.1 1.7-.3 2.4-.5z"/><path fill="#666A70" d="M150.8 180.6l1.2-.7c-3 1.6-5.5 3-6.7 3.8-1 .7-2 2.8-3 5.4-2.4 6.2-4.5 15.6-5.3 19.1 11.1-2.7 19.4-8.4 24.8-13.2-5.8-12.9-11-14.4-11-14.4z"/><path fill="#76797C" d="M199 195.3c-4.3-1.4-8.7-2.7-12.7-3.9 1.3 6.7-4.1 19.4-8 29.2-4.5 11.2-7 8-7 8-2.8-15.7-6.2-26.3-9.4-33.4-5.5 4.8-13.8 10.5-24.8 13.2-.8.2-1.6.4-2.4.5h.1v47c24.3-1.3 46.7-9.3 65.6-22.2 1.6-16 2.9-29 3.5-34.6-1.4-1.6-3.1-2.9-4.9-3.8z"/><path fill="#EE3F4C" d="M175.6 217.9s-2.4-23-18-41.2c0 0 .4-.3 1.1-.7l-6.7 4-1.2.7s5.2 1.5 11 14.5c3.2 7.1 6.6 17.7 9.4 33.4 0 0 2.6 3.2 7-8 3.9-9.8 9.3-22.5 8-29.2-.2-.9-.5-1.8-1-2.4l-9.6 28.9z"/><path fill="#161617" d="M164.6 151.2l-.1 3.3v2s6.6 1.6 6.7 4.1c.1 3.6-3.2 7.6-6.6 10.7-2.3 2.1-4.6 3.9-6 4.8-.7.5-1.1.7-1.1.7 15.6 18.1 18 41.2 18 41.2l9.8-29c-1.8-5.5-8.3-21.8-10-28.9-1.6-7.3-10.7-8.9-10.7-8.9z"/><path fill="#717477" d="M203.9 199c-.6 5.6-1.9 18.6-3.5 34.6 5.9-4 11.4-8.5 16.5-13.4-3.5-3.9-5.8-7.6-6.7-10.4-1-3.2-3.2-7.4-6.3-10.8z"/><path fill="#666A70" d="M215.9 212.6c.7 1.5 2.1 3.1 3.8 4.7 3.8-3.9 7.3-8 10.6-12.3-7-3.1-15-6.4-23.8-9.6 2.9 3.5 6 9.9 9.4 17.2z"/><path fill="#EE3F4C" d="M215.9 212.6c-3.4-7.2-6.5-13.7-9.5-17.2-.7-.8-1.3-1.4-2-1.9-3.6-2.5-5.4 1.8-5.4 1.8 1.8.9 3.5 2.2 4.9 3.7 3.2 3.3 5.3 7.6 6.3 10.7.9 2.8 3.2 6.6 6.7 10.4 1-.9 1.9-1.9 2.8-2.8-1.7-1.6-3.1-3.2-3.8-4.7z"/><path fill="#55595E" d="M134.8 208.8h-.1l-6.6.9v11.9c1.8 0 3.3 1.5 3.3 3.3 0 1.8-1.5 3.3-3.3 3.3v26.4c1.1 0 2.1.5 2.7 1.4 1.4 0 2.7-.1 4.1-.1v-47.1z"/><path fill="#BB9F23" d="M131.3 224.9c0-1.8-1.5-3.3-3.3-3.3v6.5c1.8 0 3.3-1.4 3.3-3.2zm-3.3 29.7v1.4h2.7c-.6-.9-1.6-1.4-2.7-1.4z"/><path fill="#231F20" d="M91.5 156.5s-6.6 1.6-6.7 4.1c-.1 3.6 3.2 7.6 6.6 10.7.1-5 .1-10.1.1-14.8zm-.1-2z"/><path fill="#AB8875" d="M91.4 151.2c0 1.1 0 2.2.1 3.3v2c.1 4.8 0 9.9-.1 14.8 2.3 2.1 4.6 3.9 6 4.8l6.7 3.9c3 1.6 5.5 3 6.7 3.8 1 .7 2 2.8 3 5.4 4.4 2 9.2 3.3 14.3 3.3v-15.7s-11.9.4-16.7-3.8-16-17.2-19.8-22.4l-.1-.1c-.1.2-.1.5-.1.7z"/><path fill="#271810" d="M72.6 81.2c0 .3 0 .6.1.8.8.4 1.6.8 2.4 1.3l-2.5-2.1zm23.8-52.8c2.8-4.3 9.1-13.2 14.9-14.5 7.7-1.7 16.6-2.6 16.6-2.6V8.4S107.4 7 101 18.9c0 0-24.9-1.4-27.8 21.8-2 15.8-1.2 31.8-.6 40.5 0 0 1.5-20.9 9-36.1 2.5-7.9 7.1-15 14.8-16.7z"/><path fill="#AB8875" d="M78.3 98.7s-2.4-10.5-1.9-14.1l-1.3-1.2c-.8-.5-1.6-1-2.4-1.3-1-.5-1.9-.8-2.6-.8-2.9 0-5.5 1.2-5.7 6.2-.2 5 .5 14.4 1.7 18 1.2 3.6 4.8 6 5.3 9.3.5 3.4 2.4 6.2 4.6 7.4 1.4.8 3.1 1.3 5.9 1-1.5-9.2-2.9-20.2-3.6-26.5v2z"/><path fill="#BC9680" d="M111.2 173c4.8 4.2 16.7 3.8 16.7 3.8V46.7s-29.1-10.5-38.7-7.5c-9.6 3-9.3 28.8-9.3 29.1.1.5.1 1 .2 1.4 1.2 6.5 1.1 14.8-.3 17.5-1 1.9-1.4 6.8-1.6 9.6.7 6.3 2.1 17.2 3.4 26.4.5 3.5 1 6.7 1.4 9.3 1.6 9.5 4.4 13 8.2 18.1l.1.1c4 5 15.1 18.1 19.9 22.3zM84.3 89.8s4.6-4.8 7-4.8 9.8 4.3 12.2 6 12.7 6.7 13.9 6.2c1.2-.5 5.3 0 5.3 0s-1.9 5-4.8 5S110 96.9 105 95c-5-1.9-13.2-6.2-13.2-6.2s-5.4-.2-7.5 1z"/><path fill="#271810" d="M96.4 28.4c16.2-3.7 31.5 18.3 31.5 18.3V11.2s-9 1-16.6 2.6c-5.8 1.3-12.1 10.3-14.9 14.6zM76.3 84.5c-.5 3.6 1.9 14.1 1.9 14.1s0-.8.1-1.9c.2-2.8.6-7.7 1.6-9.6 1.4-2.6 1.5-11 .3-17.5-.1-.5-.2-.9-.2-1.4-1.1-5-1-14.6 1.7-23.2-7.5 15.2-9 36.1-9 36.1l2.4 2.2 1.2 1.2zM105 95.1c5 1.9 10.1 7.2 12.9 7.2 2.9 0 4.8-5 4.8-5s-4.1-.5-5.3 0c-1.2.5-11.5-4.6-13.9-6.2s-9.8-6-12.2-6-7 4.8-7 4.8c2.1-1.2 7.5-1 7.5-1s8.1 4.3 13.2 6.2z"/><path fill="#212122" d="M119 208.3c.8.2 1.6.4 2.4.5l6.6.9v-17.2c-5.1 0-9.9-1.3-14.3-3.3 2.3 6.1 4.5 15.6 5.3 19.1z"/><path fill="#565A60" d="M113.7 189.2c-1-2.6-2-4.7-3-5.4-1.1-.8-3.7-2.2-6.7-3.8l1.2.7s-5.2 1.5-11 14.5c5.5 4.8 13.8 10.5 24.8 13.2-.8-3.6-3-13.1-5.3-19.2z"/><path fill="#717477" d="M121.2 208.8h.1c-.8-.2-1.6-.3-2.4-.5-11.1-2.7-19.4-8.4-24.8-13.2-3.2 7.1-6.6 17.7-9.4 33.4 0 0-2.6 3.2-7-8-3.9-9.8-9.3-22.5-8-29.2-4 1.2-8.4 2.6-12.7 3.9-1.8.9-3.5 2.2-4.9 3.7.6 5.6 1.9 18.6 3.5 34.6 18.8 12.9 41.3 21 65.6 22.2v-46.9z"/><path fill="#AF2B36" d="M77.7 220.6c4.5 11.2 7 8 7 8 2.8-15.7 6.2-26.3 9.4-33.4 5.8-13 11-14.5 11-14.5l-1.1-.7-6.7-3.9c.7.5 1.1.7 1.1.7-15.6 18.1-18 41.2-18 41.2l-9.8-29c-.5.7-.8 1.5-1 2.4-1.2 6.6 4.2 19.4 8.1 29.2z"/><path fill="#0E0E0E" d="M80.4 217.9s2.4-23 18-41.2c0 0-.4-.3-1.1-.7-1.3-.9-3.7-2.6-6-4.8-3.4-3.1-6.7-7.1-6.6-10.7.1-2.5 6.7-4.1 6.7-4.1v-2l-.1-3.3s-9.1 1.6-10.7 8.8c-1.7 7.2-8.2 23.4-10 28.9l9.8 29.1z"/><path fill="#65686B" d="M45.8 209.7c-.9 2.8-3.2 6.6-6.7 10.4 5.1 4.9 10.6 9.4 16.5 13.4-1.6-16-2.9-29-3.5-34.6-3.1 3.5-5.3 7.7-6.3 10.8z"/><path fill="#565A60" d="M40.1 212.6c3.4-7.2 6.5-13.7 9.5-17.2-8.8 3.2-16.8 6.5-23.8 9.6 3.3 4.3 6.8 8.4 10.6 12.3 1.6-1.6 3-3.2 3.7-4.7z"/><path fill="#AF2B36" d="M52.1 199c1.4-1.5 3-2.8 4.9-3.7 0 0-1.8-4.2-5.4-1.8-.7.5-1.3 1.1-2 1.9-3 3.5-6 9.9-9.5 17.2-.7 1.5-2.1 3.1-3.8 4.7.9 1 1.9 1.9 2.8 2.8 3.5-3.9 5.8-7.6 6.7-10.4 1-3.1 3.2-7.3 6.3-10.7z"/><path fill="#464A4F" d="M128 254.6v-26.4c-1.8 0-3.3-1.5-3.3-3.3 0-1.8 1.5-3.3 3.3-3.3v-11.9l-6.6-.9h-.1v47c1.4.1 2.7.1 4.1.1.5-.8 1.5-1.3 2.6-1.3z"/><path fill="#937F17" d="M124.7 224.9c0 1.8 1.5 3.3 3.3 3.3v-6.5c-1.8-.1-3.3 1.4-3.3 3.2zm.6 31.1h2.7v-1.4c-1.1 0-2.1.5-2.7 1.4z"/><path fill="#36261F" d="M96.4 28.4c-7.7 1.8-12.4 8.8-14.8 16.7-2.7 8.6-2.8 18.2-1.7 23.2 0-.3-.3-26.1 9.3-29.1 9.6-3 38.7 7.5 38.7 7.5s-15.3-22.1-31.5-18.3z"/></svg>