<svg xmlns="http://www.w3.org/2000/svg" width="256" height="256"><circle fill="#B1B3B5" cx="128" cy="128" r="128"/><path fill="#446174" d="M163.3 211l-.5-.5c1.5 2.1 3.7 3 3.7 3-6.7 9.4-10.8 26-13.1 40 13.9-2.8 26.9-7.8 38.7-14.7-2.2-8.5-5.3-18.3-10-28.9-9.9.7-18.8 1.1-18.8 1.1zm25.1-1.5c1.5 3.6 4.9 12.8 8.2 26.6 15-9.5 27.8-22 37.7-36.8-7.3 5.6-19.9 6.8-29.4 8.4-3.9.7-10.1 1.3-16.5 1.8z"/><path fill="#587A91" d="M173.6 193.7c0-.1 0-.1.1-.2-1.1 2.4-2.8 3.8-4.4 4.8 1.6-.9 3.2-2.2 4.3-4.6z"/><path fill="#587A91" d="M235.2 194.5c-2.9 0-10.2-7.9-14.7-12.2-3-2.8-21.7-17.1-32-15.7 0 0-11.6-7.2-22.3-10.9l-.9 1.1-.4 14.4 2.9 4.9c.2.4.4.8.5 1.2.1-.4.1-.8.2-1.2l-3-5.2.2-14c16.5 4.3 34.7 20.2 34.7 20.2.5-3.6-7.7-8.6-7.7-8.6 9.1 1.7 12.2 5.3 14.4 9.3s.2 11.5-6.9 20.1c-6.9 8.3-36.4 10.3-38.4 9.6.2 1.1.6 2.1 1.2 2.9l.5.5s8.9-.4 18.8-1c-.2-.4-.3-.7-.5-1.1 0 0 2.2-4.7 6-1 0 0 .3.6.7 1.7 6.5-.5 12.7-1.1 16.5-1.7 9.5-1.6 22.1-2.8 29.4-8.4l2.7-4.2c-.4-.4-.9-.7-1.9-.7z"/><path fill="#C08C76" d="M164.5 154.3c-.2.2-.5.4-.7.6l-2.7 3.9-1 1.4-3.4 4.1-1-1.4s-5.7 6.9-6.9 9.1l-5.5 4.8-.2-1.6c-.2.1-.5.1-.7.2l-2.4 1.4h-1.7l-4.6 2.6.5-2.6-4.8 2.6H128v29.9s15.2-6.9 25-18.4c9.8-11.5 11.6-19.9 11.6-19.9l.2.3.4-14.4-.7-2.6zm18-51.6h2.4l-1.2 1.2s3.8.2-.5 1.9l-4.3 1.7-1.6 1.6c.2.9.2.2.2 1.7 0 1.6-.8 0-.8 0l-.3 3.9-.1.9-1.6 3.5-.7-2.6-.7 2.6s0-.4.1-1c-.3 2.2-.5 4.3-.5 6 0 4.3-.1 8.4-.3 11.9 2-.5 4-1.1 4.7-2 1.7-2.2 4.3-10.1 4.3-12.9 0-2.9 1.7-7.7 3.6-10.8 1.8-2.9 2.9-5.8 2.3-13-1.6 2.2-5 5.4-5 5.4z"/><path fill="#D7A990" d="M140.9 154l-4.6 6.2-1.2-.5s-1.2-1.4-1.2.5-2.4 3.1.2 3.8-1.4 0 2.6.7 6.9 2.2 8.9.2c1.9-1.9 3.1-1.7 4.6-3.4s-.7 3.4 1.5-1.6c2.1-5.1 2.1-5.5 2.1-6.5v-3.1l2.2.7s-1.4-2.2-3.4-4.7c-1.9-2.5.2-2.8-2.4-3.5s-3.1-1.4-3.8-1.4-7.4-1.4-8.4-1.4-5.5 1.4-10.1 1.4v14.1c.1.2 6.1.9 13-1.5zm23.5 0l-.6.9c.2-.2.5-.4.7-.6l-.1-.3zm-21.3 21.1l-.7.4c.2-.1.5-.1.7-.2v-.2z"/><path fill="#D7A990" d="M173.4 118.2c.2-1.6.5-4.7.6-6.1.1-1.9-.6-3.8-.7-5.3s-1-3.3-1-3.9-1-5.9-1-5.9l-1 1s2.1-4.8.6-7.3c-1.4-2.6-2.7-5.3-2.9-5.7-.2-.5-.6-2.1-.6-2.1l2.2.8s-.5-2.6-.5-3-1.8-4.6-1.8-4.6l1.4.2-.5-2.6-1-1.9h1v-2.9l-1-2.9 1 .5c-1-3.6-2-6.1-4.5-7.9h3.1s-7.9-8.4-10.3-9.8c-2.4-1.4-10.1-2.4-11-2.4s-4.8 2.9-4.8 2.9v-2.2l-4.1.2-5.9 3.1 1.7-3.8-4.8 2.2v86.7s6 1.7 8.4 0 8.6 0 8.6 0l5.3 1.7 4.6 2.6s-.5 3.6 1.2 5.5 3.8 5.7 3.8 5.7l1.8-2.4c1.6-5.1 3.3-11 3.9-15.8 0 0-1 7.2-2.1 13.8.6.1 2 .4 3.3-.1 1.7-.6 4.8-4.5 4.8-4.5l-1 5.8c.2-.4.4-.9.6-1.3.7-2.2 1.2-5.8 1.5-10.4.2-3.5.4-7.6.3-11.9.3-1.7.5-3.8.8-6zM156 94.5l2.4-1.2s-4.5 0-6.2 1-8.1 1-9.6 1.4c-1.4.5-4.3-2.7-4.3-2.7s7.6-2.8 13.8-3.6 11.1-.6 13.4 1.8-.5 5.9-3.5 4.5c-3-1.3-6-1.2-6-1.2z"/><path fill="#302922" d="M165.6 91.2c-2.4-2.4-7.3-2.6-13.4-1.8S138.3 93 138.3 93s2.8 3.2 4.3 2.7c1.4-.5 7.8-.5 9.6-1.4s6.2-1 6.2-1l-2.4 1.2s3-.1 6.1 1.2c3 1.4 5.9-2.1 3.5-4.5z"/><path fill="#302922" d="M128 48.6l4.8-2.2-1.7 3.8 5.9-3.1 4.1-.2v2.2s3.8-2.9 4.8-2.9 8.6 1 11 2.4c2.4 1.4 10.3 9.8 10.3 9.8h-3.1c2.5 1.8 3.6 4.3 4.5 7.9l3.6 1.6s-3-3.7-4-4.6c0 0 8.1 2.4 10.2 7.2l-3.2-1.4 1.8 3.4h-1.4s-.2 2.7-.3 3.7c-.2 1-1 2.1-1.2 2.6-.2.5.1 1 0 1.8s1.7-1.3 0 1.6c-1.7 2.9-.7 4.6-.7 4.6s-2.9-.2-2.1 0c.8.2 1.1.6 2.1 4s.3 7.8.7 9.7c.4 1.9.7 3.4 1.7 5.6 1 2.2 1.4 2.2 1.6 3.2l1.6-1.6 4.3-1.7c4.3-1.7.5-1.9.5-1.9l1.2-1.2h-2.4s3.4-3.2 5-5.3c.4-.5.7-1 .8-1.3.5-1.6.2-2.2.2-3.5s1-2 1-2l-1-1.5-1-4.7s.7-3.1.2-5c-.5-1.9-.2-4.1-.2-4.1l1.9-2.6s-3.6-5-4.1-5.7c-.5-.7 0-3.6 0-3.6h1.7l-6.7-6.7c-1.2-1.2-2.6-7.4-2.6-7.4l3.8 5.7c0-4.3-5.2-9.1-5.7-12.2s-3.4-7.9-3.8-10.1c-.5-2.2-8.1-9.8-10.3-12-2.2-2.2-8.1-1.9-12.5-6.5-4.4-4.8-21.3-6-21.3-6v40.2z"/><path fill="#615B58" d="M168.5 68.7v2.9h-1l1 1.9.5 2.6-1.4-.2s1.8 4.2 1.8 4.6.5 3 .5 3l-2.2-.8s.5 1.6.6 2.1c.2.5 1.4 3.2 2.9 5.7 1.4 2.6-.6 7.3-.6 7.3l1-1s1 5.3 1 5.9.8 2.4 1 3.9.8 3.4.7 5.3c-.1 1.4-.4 4.5-.6 6.1-.1.6-.1 1-.1 1l.7-2.6.7 2.6 1.6-3.5.1-.9.3-3.9s.8 1.6.8 0 0-.8-.2-1.7c-.2-1-.6-1-1.6-3.2s-1.3-3.7-1.7-5.6c-.4-1.9.2-6.4-.7-9.7-1-3.4-1.3-3.8-2.1-4-.8-.2 2.1 0 2.1 0s-1-1.8.7-4.6c1.7-2.9-.1-.8 0-1.6s-.2-1.3 0-1.8 1-1.6 1.2-2.6c.2-1 .3-3.7.3-3.7h1.4l-1.8-3.4 3.2 1.4c-2.1-4.8-10.2-7.2-10.2-7.2 1 1 4 4.6 4 4.6l-3.6-1.6-1-.5.7 3.2z"/><path fill="#B5907C" d="M163.5 146.5c1.1-6.7 2.1-13.8 2.1-13.8-.6 4.8-2.3 10.7-3.9 15.8l1.5-2c0-.1.1 0 .3 0z"/><path fill="#826E65" d="M166.8 146.4c-1.3.5-2.7.2-3.3.1-.2 0-.3-.1-.3-.1l-1.5 2-1.8 2.4s-2.2-3.8-3.8-5.7c-1.7-1.9-1.2-5.5-1.2-5.5l-4.6-2.6-5.3-1.7s-6.2-1.7-8.6 0-8.4 0-8.4 0v6.2c4.6 0 9.1-1.4 10.1-1.4s7.7 1.4 8.4 1.4 1.2.7 3.8 1.4.5 1 2.4 3.5 3.4 4.7 3.4 4.7l-2.2-.7v3.1c0 .9 0 1.4-2.1 6.5s0 0-1.5 1.6-2.6 1.4-4.6 3.4c-1.9 1.9-4.8.5-8.9-.2s0 0-2.6-.7-.2-1.9-.2-3.8 1.2-.5 1.2-.5l1.2.5 4.6-6.2c-6.9 2.4-12.9 1.7-12.9 1.7v23.7h1.4l4.8-2.6-.5 2.6 4.6-2.6h1.7l2.4-1.4.7-.4v.2l.2 1.6 5.5-4.8c1.2-2.2 6.9-9.1 6.9-9.1l1 1.4 3.4-4.1 1-1.4 2.7-3.9.6-.9.1.3.7 2.7.9-1.1 3.7-4.5.6-3.6 1-5.8c.1-.1-3 3.7-4.7 4.3z"/><path fill="#8E6857" d="M143.8 217.9c12.3-14.1 22.5-28.5 24.5-40.5-.1-.4-.3-.8-.5-1.2l-2.9-4.9-.2-.3s-1.8 8.4-11.6 19.9c-9.8 11.5-25 18.4-25 18.4V256h1.1c3.4-32.5 14.5-38.1 14.6-38.1z"/><path fill="#A4A9A9" d="M146.6 237.8c1.4-7.5 4.9-15.1 7.5-19.8-6.6 3.3-13.8 8.7-16 17.3-1.7 6.3-2.3 13.7-2.5 20.5 3.4-.2 6.7-.5 10-1 0-6.3.2-12.6 1-17z"/><path fill="#9A573F" d="M154.1 218c-2.6 4.8-6.2 12.3-7.5 19.8-.8 4.4-1 10.7-1 17 2.6-.4 5.2-.8 7.8-1.3 2.4-14 6.4-30.6 13.1-40 0 0-5.9 1.2-12.4 4.5z"/><path fill="#D0D5D3" d="M154.1 218c6.5-3.3 12.4-4.4 12.4-4.4s-2.2-.9-3.7-3c-.6-.8-1-1.7-1.2-2.9-.1 0-.1-.1-.1-.1-.3-6.7 3.9-7.2 7.7-9.2 1.7-1 3.3-2.4 4.4-4.8 3.2-7.6-5.2-17.3-5.2-17.3 0 .4-.1.8-.2 1.2-2 12-12.2 26.3-24.5 40.5-7.8 8.7-10.7 24.8-11.7 38.1 1.2 0 2.4-.1 3.6-.2.2-6.9.8-14.3 2.5-20.5 2.2-8.7 9.4-14.1 16-17.4z"/><path fill="#545858" d="M143.8 217.9c-.1 0-11.2 5.6-14.7 38.1 1 0 2 0 3-.1.9-13.2 3.8-29.3 11.7-38z"/><path fill="#182B2B" d="M173.6 193.5c0 .1 0 .1-.1.2-1 2.4-2.7 3.7-4.4 4.6-3.8 2.1-8 2.5-7.7 9.2 0 0 0 .1.1.1 2 .7 31.5-1.3 38.4-9.6 7.2-8.6 9.1-16 6.9-20.1s-5.3-7.7-14.4-9.3c0 0 8.1 5 7.7 8.6 0 0-18.2-15.9-34.7-20.2l-.2 14 3 5.2c.2 0 8.6 9.7 5.4 17.3z"/><path fill="#29404F" d="M187.6 207.8c-3.8-3.7-6 1-6 1 .2.4.3.7.5 1.1 4.6 10.6 7.8 20.3 10 28.9 1.5-.9 3-1.8 4.4-2.7-3.2-13.9-6.7-23-8.2-26.6-.4-1.1-.7-1.7-.7-1.7zm-136.4 0c-9.5-1.6-22.1-2.8-29.4-8.4 9.9 14.7 22.8 27.2 37.7 36.8 3.2-13.9 6.7-23 8.2-26.6-6.5-.6-12.7-1.2-16.5-1.8zm42 2.7l-.5.5s-8.9-.4-18.8-1c-4.6 10.6-7.8 20.3-10 28.9 11.8 6.9 24.9 11.9 38.7 14.7-2.4-14-6.4-30.6-13.1-40 0-.1 2.2-1 3.7-3.1z"/><path fill="#446174" d="M86.8 198.3c-1.7-1-3.3-2.4-4.4-4.8 0 .1 0 .1.1.2 1 2.4 2.6 3.7 4.3 4.6z"/><path fill="#446174" d="M67.6 209.5c.5-1.1.7-1.7.7-1.7 3.8-3.7 6 1 6 1-.2.4-.3.7-.5 1.1 9.9.6 18.8 1 18.8 1l.5-.5c.6-.8 1-1.7 1.2-2.9-2 .7-31.5-1.3-38.4-9.6-7.2-8.6-9.1-16-6.9-20.1 2.2-4.1 5.3-7.7 14.4-9.3 0 0-8.1 5-7.7 8.6 0 0 18.2-15.9 34.7-20.2l.2 14-3 5.2c0 .4.1.8.2 1.2.1-.4.3-.8.5-1.2l2.9-4.9-.4-14.4-.9-1.1c-10.8 3.7-22.3 10.9-22.3 10.9-10.3-1.4-29.1 12.9-32 15.7-4.4 4.2-11.8 12.2-14.7 12.2-1 0-1.5.3-1.8.6l2.7 4.2c7.3 5.6 19.9 6.8 29.4 8.4 3.8.7 10 1.3 16.4 1.8z"/><path fill="#B17D6B" d="M126.6 179.4l-4.8-2.6.5 2.6-4.6-2.6H116l-2.4-1.4c-.2-.1-.5-.1-.7-.2l-.2 1.6-5.5-4.8c-1.2-2.2-6.9-9.1-6.9-9.1l-1 1.4-3.4-4.1-1-1.4-2.7-3.9c-.2-.2-.5-.4-.7-.6l-.7 2.7.4 14.4.2-.3s1.8 8.4 11.6 19.9c9.8 11.5 25 18.4 25 18.4v-29.9h-1.4zm-44-61.2c.1.6.1 1 .1 1l-.7-2.6-.7 2.6-1.6-3.5-.1-.9-.3-3.9s-.8 1.6-.8 0 0-.8.2-1.7l-1.6-1.6-4.3-1.7c-4.3-1.7-.5-1.9-.5-1.9l-1.2-1.2h2.4s-3.4-3.2-5-5.3c-.6 7.2.5 10.1 2.3 13 1.9 3.1 3.6 7.9 3.6 10.8 0 2.9 2.6 10.8 4.3 12.9.7.9 2.6 1.5 4.7 2-.2-3.5-.4-7.6-.3-11.9 0-1.8-.2-3.9-.5-6.1z"/><path fill="#C08C76" d="M117.9 140.1c-1 0-7.7 1.4-8.4 1.4s-1.2.7-3.8 1.4c-2.6.7-.5 1-2.4 3.5s-3.4 4.7-3.4 4.7l2.2-.7v3.1c0 .9 0 1.4 2.1 6.5s0 0 1.5 1.6 2.6 1.4 4.6 3.4 4.8.5 8.9-.2 0 0 2.6-.7.2-1.9.2-3.8-1.2-.5-1.2-.5l-1.2.5-4.6-6.2c6.9 2.4 12.9 1.7 12.9 1.7v-14.1c-4.5-.2-9-1.6-10-1.6z"/><path fill="#C08C76" d="M89.2 146.4c1.3.5 2.7.2 3.3.1-1.1-6.7-2.1-13.8-2.1-13.8.6 4.8 2.3 10.7 3.9 15.8l1.8 2.4s2.2-3.8 3.8-5.7c1.7-1.9 1.2-5.5 1.2-5.5l4.6-2.6 5.3-1.7s6.2-1.7 8.6 0 8.4 0 8.4 0V48.6l-4.8-2.2 1.7 3.8-5.9-3.1-4.1-.2v2.2s-3.8-2.9-4.8-2.9-8.6 1-11 2.4c-2.4 1.4-10.3 9.8-10.3 9.8h3.1c-2.5 1.8-3.6 4.3-4.5 7.9l1-.5-1 2.9v2.9h1l-1 1.9-.4 2.6 1.4-.2s-1.8 4.2-1.8 4.6-.5 3-.5 3l2.2-.8s-.5 1.6-.6 2.1c-.2.5-1.4 3.2-2.9 5.7-1.4 2.6.6 7.3.6 7.3l-1-1s-1 5.3-1 5.9-.8 2.4-1 3.9c-.2 1.5-.8 3.4-.7 5.3.1 1.4.4 4.5.6 6.1.3 2.2.5 4.3.5 6 0 4.3.1 8.4.3 11.9.3 4.6.8 8.2 1.5 10.4.1.4.3.8.6 1.3l-1-5.8c.2.2 3.3 4 5 4.6zm1.2-55.2c2.4-2.4 7.3-2.6 13.4-1.8s13.8 3.6 13.8 3.6-2.8 3.2-4.3 2.7c-1.4-.5-7.8-.5-9.6-1.4s-6.2-1-6.2-1l2.4 1.2s-3-.1-6.1 1.2c-2.9 1.4-5.8-2.1-3.4-4.5zm1.2 62.8l-.1.3c.2.2.5.4.7.6l-.6-.9zm21.3 21.1v.2c.2.1.5.1.7.2l-.7-.4z"/><path fill="#211B13" d="M93.9 95.8c3-1.4 6.1-1.2 6.1-1.2l-2.4-1.2s4.5 0 6.2 1 8.1 1 9.6 1.4c1.4.5 4.3-2.7 4.3-2.7s-7.6-2.8-13.8-3.6-11.1-.6-13.4 1.8.4 5.8 3.4 4.5z"/><path fill="#211B13" d="M73.5 102.7h-2.4l1.2 1.2s-3.8.2.5 1.9l4.3 1.7 1.6 1.6c.2-1 .6-1 1.6-3.2s1.3-3.7 1.7-5.6c.4-1.9-.2-6.4.7-9.7 1-3.4 1.3-3.8 2.1-4 .8-.2-2.1 0-2.1 0s1-1.8-.7-4.6c-1.7-2.9.1-.8 0-1.6s.2-1.3 0-1.8-1-1.6-1.2-2.6c-.2-1-.3-3.7-.3-3.7H79l1.8-3.4-3.2 1.4c2.1-4.8 10.2-7.2 10.2-7.2-1 1-4 4.6-4 4.6l3.6-1.6c1-3.6 2-6.1 4.5-7.9h-3.1s7.9-8.4 10.3-9.8c2.4-1.4 10.1-2.4 11-2.4s4.8 2.9 4.8 2.9v-2.2l4.1.2 5.9 3.1-1.7-3.8 4.8 2.2v-40s-16.9 1.2-21.2 5.7c-4.3 4.6-10.3 4.3-12.5 6.5-2.2 2.2-9.8 9.8-10.3 12-.5 2.2-3.3 6.9-3.8 10.1s-5.7 7.9-5.7 12.2l3.8-5.7s-1.4 6.2-2.6 7.4L69 63.3h1.7s.5 2.9 0 3.6-4.1 5.7-4.1 5.7l1.9 2.6s.2 2.2-.2 4.1c-.5 1.9.2 5 .2 5l-1 4.7-1 1.5s1 .7 1 2-.2 1.9.2 3.5c.1.3.4.8.8 1.3 1.6 2.2 5 5.4 5 5.4z"/><path fill="#464341" d="M87.8 63.3s-8.1 2.4-10.2 7.2l3.2-1.4-1.8 3.3h1.4s.2 2.7.3 3.7c.2 1 1 2.1 1.2 2.6.2.5-.1 1 0 1.8s-1.7-1.3 0 1.6c1.7 2.9.7 4.6.7 4.6s2.9-.2 2.1 0c-.8.2-1.1.6-2.1 4s-.3 7.8-.7 9.7c-.4 1.9-.7 3.4-1.7 5.6-1 2.2-1.4 2.2-1.6 3.2-.2.9-.2.2-.2 1.7 0 1.6.8 0 .8 0l.3 3.9.1.9 1.6 3.5.7-2.6.7 2.6s0-.4-.1-1c-.2-1.6-.5-4.7-.6-6.1-.1-1.9.6-3.8.7-5.3.2-1.5 1-3.3 1-3.9s1-5.9 1-5.9l1 1s-2.1-4.8-.6-7.3c1.4-2.6 2.7-5.3 2.9-5.7.2-.5.6-2.1.6-2.1l-2.2.8s.5-2.6.5-3 1.8-4.6 1.8-4.6H87l.5-2.6 1-1.9h-1v-2.9l1-2.9-1 .5-3.6 1.6c-.1 0 3-3.6 3.9-4.6z"/><path fill="#B5907C" d="M90.4 132.7s1 7.2 2.1 13.8c.2 0 .3-.1.3-.1l1.5 2c-1.6-5-3.2-10.9-3.9-15.7z"/><path fill="#685851" d="M90.8 157l.7-2.7.1-.3.6.9 2.7 3.9 1 1.4 3.4 4.1 1-1.4s5.7 6.9 6.9 9.1l5.5 4.8.2-1.6v-.2l.7.4 2.4 1.4h1.7l4.6 2.6-.5-2.6 4.8 2.6h1.4v-23.7s-6 .7-12.9-1.7l4.6 6.2 1.2-.5s1.2-1.4 1.2.5 2.4 3.1-.2 3.8c-2.6.7 1.4 0-2.6.7s-6.9 2.2-8.9.2-3.1-1.7-4.6-3.4.7 3.4-1.5-1.6c-2.1-5.1-2.1-5.5-2.1-6.5v-3.1l-2.2.7s1.4-2.2 3.4-4.7c1.9-2.5-.2-2.8 2.4-3.5 2.6-.7 3.1-1.4 3.8-1.4s7.4-1.4 8.4-1.4 5.5 1.4 10.1 1.4v-6.2s-6 1.7-8.4 0-8.6 0-8.6 0l-5.3 1.7-4.6 2.6s.5 3.6-1.2 5.5-3.8 5.7-3.8 5.7l-1.8-2.4-1.5-2s-.1 0-.3.1c-.6.1-2 .4-3.3-.1-1.7-.6-4.8-4.5-4.8-4.5l1 5.8.6 3.6 3.7 4.5 1 1.3z"/><path fill="#7B5A4A" d="M128 209.3s-15.2-6.9-25-18.4C93.2 179.4 91.4 171 91.4 171l-.2.3-2.9 4.9c-.2.4-.4.8-.5 1.2 2 12 12.3 26.5 24.7 40.7.1 0 11 5.5 14.5 37.9h1.1v-46.7z"/><path fill="#777B7C" d="M101.9 218c2.6 4.8 6.2 12.3 7.5 19.8.8 4.4 1 10.7 1 17 3.3.5 6.6.8 10 1-.2-6.9-.8-14.3-2.5-20.5-2.2-8.6-9.4-14-16-17.3z"/><path fill="#7B442F" d="M109.4 237.8c-1.4-7.5-4.9-15.1-7.5-19.8-6.5-3.3-12.4-4.4-12.4-4.4 6.7 9.4 10.8 26 13.1 40 2.6.5 5.1.9 7.8 1.3 0-6.4-.2-12.7-1-17.1z"/><path fill="#A4A9A9" d="M112.4 218.1c-12.4-14.2-22.7-28.7-24.7-40.7-.1-.4-.1-.8-.2-1.2 0 0-8.4 9.7-5.2 17.3 1.1 2.4 2.8 3.8 4.4 4.8 3.8 2.1 8 2.5 7.7 9.2 0 0 0 .1-.1.1-.2 1.1-.6 2.1-1.2 2.9-1.5 2.1-3.7 3-3.7 3s5.9 1.2 12.4 4.4c6.6 3.3 13.8 8.7 16 17.3 1.7 6.3 2.3 13.7 2.5 20.5 1.2.1 2.4.1 3.6.2-.8-13.2-3.6-29.1-11.5-37.8z"/><path fill="#434647" d="M112.4 218.1c7.8 8.7 10.7 24.6 11.6 37.8 1 0 1.9 0 2.9.1-3.4-32.4-14.4-37.8-14.5-37.9z"/><path fill="#0C2020" d="M90.4 157c-16.5 4.3-34.7 20.2-34.7 20.2-.5-3.6 7.7-8.6 7.7-8.6-9.1 1.7-12.2 5.3-14.4 9.3-2.2 4.1-.2 11.5 6.9 20.1 6.9 8.3 36.4 10.3 38.4 9.6.1 0 .1-.1.1-.1.3-6.7-3.9-7.2-7.7-9.2-1.7-.9-3.3-2.2-4.4-4.6 0-.1 0-.1-.1-.2-3.2-7.6 5.2-17.3 5.2-17.3l3-5.2v-14z"/><path fill="#182B2B" d="M74.4 208.8s-2.2-4.7-6-1c0 0-.3.6-.7 1.7-1.5 3.6-4.9 12.8-8.2 26.6 1.5.9 2.9 1.8 4.4 2.7 2.2-8.5 5.3-18.3 10-28.9.2-.3.3-.7.5-1.1z"/></svg>