<svg xmlns="http://www.w3.org/2000/svg" width="256" height="256"><circle fill="#B1B3B5" cx="128" cy="128" r="128"/><path fill="#4F514E" d="M169.9 145.9c0 .9 0 1.8.1 2.8l-.1-2.8zm0-.1c4 2.4 7.6 15.6 9.3 22.8.3.1.5.3.7.4l.7-3.3 1.8 2.8.9-2.8 2.5 4.6-.7-7.2 2.8 3.1s2.1-10.1-1.2-17.2c-2.8-6.1-13-9.1-15.8-9.9-.4 1.5-.7 2.9-1.1 4.3.1.7.1 1.5.1 2.4z"/><path fill="#5B2A00" d="M171.5 161.2c.3.7.7 1.8 1.2 3 .1-.8.2-1.6.3-2.2 1.2-8.3-2.5-10.9-3-11.2.3 3.2.7 7 1.5 10.4z"/><path fill="#AC7433" d="M227.5 208.5c2.1-2.6 4.2-5.4 6.1-8.2-2.7-1.5-4.4-2.4-4.4-2.4-.1 2-.7 5.6-1.7 10.6z"/><path fill="#C08C76" d="M169.9 143.4c-.9 3.3-1.9 6.3-2.9 8.7-.3.7-.7 1.4-1 2.2-.2.4-.4.7-.6 1l-.9 1.5c-1.6 3.3-3.5 6.5-5 7.9-3.8 3.5-9.8 6.4-10.3 6.9s-6.2 4.3-9.2 5.1c-2.8.7-10.4.9-11.9 1V207c3.3-2.1 36.3-24 42.9-46.8 0 0 .2.4.5 1.2-.8-3.4-1.2-7.1-1.4-10.5h-.1v-2c0-1-.1-1.9-.1-2.8v-2.7zm10.5-57.8l.6.1s-.3.3-.6-.1l-2-.4 2.6 8.1-2.1-1.7s.5 2.6.9 4.1 1.4 2.6 1.2 5.9c-.2 2.3-3.5 7.8-5.5 10.5v2.6c-.1 1.8-.4 4.4-.8 7.5 1-.7 2.3-1.8 3.6-3.4 2.9-3.5.9-6.2 1.5-8.6s2.6-6.9 3.2-9.9c.6-3 2-3.2 3.4-10.7 1.4-7.5 0-8.9-2.5-9.7-1.1-.3-2.6.6-4.1 1.8v.2c0 2.4.3 3.4.6 3.7zm-5 19.6z"/><path fill="#D7A990" d="M165.5 155.2c-.2.3-.4.5-.6.7-.1.2-.2.5-.3.7.3-.4.6-.9.9-1.4zm9.9-43.1c-.8 1.1-1.4 1.7-1.4 1.4 0-.7.6-2.3 1-4.2.2-.9.4-1.9.4-2.9v-1.2c-.2-3.5-.9-2.3-1.6-3.6-.7-1.3 1.4-4 .2-8.5-1.2-4.6 0-6.5-1.4-9.1-1.4-2.6-.9-5.4-.9-5.4l2.3 1.2s-1.2-11.1-2.1-13.7c-.9-2.6-2.3-7.9-2.3-7.9l2.3 1.7s-1.8-7.2-2.5-9.8-3.2-5.5-6.7-7.7-5.3 0-5.3 0c-8.2 4.9-26.8 4.4-29.2 4.3v32.8l1.6-.3s.5-6 6.2-6.8v1s-5 1.5-5.2 5.9c0 0 3.9-1.4 5.2-2v1.1s-2.5 1.4-5.3 2.3c0 0 .2 8.2 8.5 8.1l-.7 1s-7.4.6-9-8.8l-1.3.2v21.3c.6 0 2-.2 3.6-.9 2-1 .9-2.6.9-2.6l.9-1.6c.8-1.6-.6-4-.6-4s1.7.6 3.4 0 3.4.5 5.5-2.7c.5-.8.8-1.3 1-1.6 0-.3.3-.5 0 0 0 .2.1.5.4.6 1.2.6 3.2.3 4-1 .8-1.3 1.4-3.3 1.5-4.1s0-5.7 0-5.7 1.2 3.8 1.2 4.5.8 1.3 0 4.3 1.4 2.2 1.4 2.2l.9-1.8V90l5.7 3s3.8-1.6 5.2-3.7c1.4-2.1 1.8-3.5 1.8-3.5l-1.4 5.3-3.5 3 3.2 3s4.6 1.1 6 1.1h1.4s-2.5 1.4-2.5 2.1c0 .6 1.1 2.1 1.2 2.7s.9.6.5 1.6-1.8 2.7-2.5 3.7c-.6 1 .8 6.1.8 6.1l-2.2 3.2.8-3.5-.9-4.9-3.5 1.9-4.6.8v5.7l-.5 1-1.7 3.5.3-9.6-1.7.8-2.5 1.1-3.5-.2-3.1-2.9-2 2.4-3.4.3 2.6-2.7s-.2-2.1-.5-2.9-3.5-3.2-3.5-3.2l-2.8-.3-2.8.5v-1.6l-4.8-1.5v70.3c.9.3 3.8 1.1 7.3-.8 4.2-2.2 4.6 0 6.3-2.6l1.7-2.6h2.6c.9 0-.2.6.9 0s2.5-1.4 2.5-1.4l.9-1.1s.8.3.8.8-3.2 3.4 0 2.7c3.2-.6 2.8-.5 4.6-2.2 1.8-1.8 0 .6 2.8-3 2.8-3.7.8-2.1 2.8-3.7 2-1.6 2-1.3 3.7-2.8 2.3-4.8 4.2-9.6 4.2-9.6s-1.6 5-3 7.9c.4-.7.7-1.4 1-2.2 1-2.4 1.9-5.4 2.9-8.7.4-1.4.8-2.8 1.1-4.3 1.4-5.7 2.7-11.9 3.5-16.9.5-3.1.8-5.7.8-7.5.1-.6.1-1.4.1-2.5z"/><path fill="#572261" d="M142.8 88.9c.3-.6 0-.4 0 0z"/><path fill="#572261" d="M133 105.4l2.8-.5 2.8.3s3.2 2.4 3.5 3.2.5 2.9.5 2.9L140 114l3.4-.3 2-2.4 3.1 2.9 3.5.2 2.5-1.1 1.7-.8-.3 9.6 1.7-3.5.5-1v-5.7l4.6-.8 3.5-1.9.9 4.9-.8 3.5 2.2-3.2s-1.4-5.1-.8-6.1c.6-1 2-2.7 2.5-3.7s-.3-1-.5-1.6-1.2-2.1-1.2-2.7c0-.6 2.5-2.1 2.5-2.1h-1.4c-1.4 0-6-1.1-6-1.1l-3.2-3 3.5-3 1.4-5.3s-.5 1.4-1.8 3.5c-1.4 2.1-5.2 3.7-5.2 3.7l-5.7-3v-2.1l-.9 1.8s-2.2.8-1.4-2.2c.8-3 0-3.7 0-4.3s-1.2-4.5-1.2-4.5.2 4.9 0 5.7-.8 2.9-1.5 4.1c-.8 1.3-2.8 1.6-4 1-.3-.2-.4-.4-.4-.6-.1.3-.4.8-1 1.6-2.2 3.2-3.8 2.1-5.5 2.7-1.7.6-3.4 0-3.4 0s1.4 2.4.6 4l-.9 1.6s1.1 1.6-.9 2.6c-1.5.7-3 .9-3.6.9v.1l4.8 1.5v1.5z"/><path fill="#60605D" d="M127.9 8.4zM181 85.7l-.6-.1c.3.4.6.1.6.1z"/><path fill="#60605D" d="M128.1 37.6v9.1c2.5.1 21.1.6 29.2-4.3 0 0 1.8-2.2 5.3 0s6 5 6.7 7.7 2.5 9.8 2.5 9.8l-2.3-1.7s1.4 5.3 2.3 7.9c.9 2.6 2.1 13.7 2.1 13.7l-2.3-1.2s-.5 2.8.9 5.4c1.4 2.6.2 4.6 1.4 9.1 1.2 4.6-.9 7.2-.2 8.5.7 1.3 1.4.1 1.6 3.6v1.2c0 1-.2 2-.4 2.9-.4 1.9-1 3.5-1 4.2 0 .4.6-.3 1.4-1.4 2-2.7 5.3-8.2 5.5-10.5.2-3.2-.7-4.4-1.2-5.9s-.9-4.1-.9-4.1l2.1 1.7-2.6-8.1 2 .4c-.3-.3-.6-1.3-.6-3.7v-.2c0-4.7-1.1-9.2-.7-11.1.5-1.9 1.2-4.6.7-9.3s-3.5-16.5-7.4-23.2c-3.9-6.7-5.3-12.9-18-15.3 0 0-.3-14.3-26.3-14.4v29.2z"/><path fill="#A98674" d="M165.5 155.2c.2-.3.4-.6.6-1 1.5-2.9 3-7.9 3-7.9s-1.9 4.8-4.2 9.6c.2-.2.4-.4.6-.7zm-37.4 22.2c1.5 0 9.1-.2 11.9-1 3.1-.8 8.8-4.6 9.2-5.1.5-.5 6.5-3.4 10.3-6.9 1.5-1.4 3.4-4.6 5-7.9.1-.2.2-.5.3-.7-1.6 1.5-1.7 1.3-3.7 2.8-2 1.6 0 0-2.8 3.7s-.9 1.3-2.8 3c-1.8 1.8-1.4 1.6-4.6 2.2-3.2.6 0-2.2 0-2.7s-.8-.8-.8-.8l-.9 1.1s-1.4.8-2.5 1.4c-1.1.6 0 0-.9 0h-2.6l-1.7 2.6c-1.7 2.6-2.2.3-6.3 2.6-3.5 1.9-6.4 1.1-7.3.8v4.9z"/><path fill="#713F39" d="M129.5 80.7c1.6 9.5 9 8.8 9 8.8l.7-1c-8.4.1-8.5-8.1-8.5-8.1 2.8-.8 5.3-2.3 5.3-2.3V77c-1.3.6-5.2 2-5.2 2 .2-4.4 5.2-5.9 5.2-5.9v-1c-5.8.8-6.2 6.8-6.2 6.8l-1.6.3v1.5h1.3z"/><path fill="#C5C7C9" d="M171 160c-6.6 22.8-39.6 44.6-42.9 46.8v8.2c2.7-1.5 26.5-14.3 39.5-26.4 2.6-10.5 4.3-19.1 5.1-24.3-.5-1.2-.9-2.2-1.2-3-.3-.9-.5-1.3-.5-1.3z"/><path fill="#6D5A59" d="M167.6 188.5c-12.9 12.2-36.7 25-39.5 26.4V256c6.2 0 12.3-.5 18.3-1.3 3.9-11 7.7-21.9 10.6-30.3 4.5-12.9 8-25.4 10.6-35.9z"/><path fill="#A45625" d="M179.1 168.5c.1 0 .1.1.2.1-1.7-7.2-5.4-20.3-9.3-22.8l.1 2.8v2h.1c.5.3 4.1 2.9 3 11.2-.1.6-.2 1.4-.3 2.2-.8 5.2-2.5 13.8-5.1 24.3-2.6 10.6-6.1 23-10.5 35.9-2.9 8.4-6.7 19.3-10.6 30.3 4-.6 7.9-1.3 11.7-2.3 7.6-21.9 14.2-41.4 16.6-49.4 6.6-22.2 4.1-34.3 4.1-34.3z"/><path fill="#C6843C" d="M229 196.3c-3.7-2.2-8.6.6-13.5-1s-6.5-7-13.2-8.3c-.8-.1-1.5-.3-2.2-.6.9 8.4-3.3 29.3-9 53 1.8-1 3.5-2.1 5.2-3.1 1.7-6.3 2.9-11 3.3-13.2 2.2-13.4 3.1-30.3 3.1-30.3s3.4 14 0 31c0 0 2.7 1.3 6.3 3.4 6.8-5.6 13.1-11.9 18.6-18.7 1-4.9 1.6-8.6 1.7-10.6 0-.9-.1-1.5-.3-1.6zm-38.1-15.8c-.7-.8-1.2-1.5-1.6-2.2-1.8-3-1.6-5.4-9.3-9.3-.2-.1-.5-.2-.7-.4-.1 0-.1-.1-.2-.1 0 0 2.5 12.1-4.3 34.5-2.4 8-9.1 27.5-16.6 49.4 9-2.2 17.7-5.3 25.9-9.3 2.3-8.6 4.3-16 5.6-21.3 7.1-28.5 1.2-41.3 1.2-41.3z"/><path fill="#C6843C" d="M199.9 233.9c1.7-1.2 3.4-2.4 5-3.6-1.1-.6-2.2-1.2-3.4-1.8l-1.6 5.4z"/><path fill="#4F4046" d="M200 186.5c-.1 0-4.2-3.3-9.1-6 0 0 5.8 12.8-1.2 41.3-1.3 5.3-3.3 12.8-5.6 21.3 2.4-1.2 4.7-2.4 7-3.7 5.7-23.7 9.8-44.5 8.9-52.9zm2.6 6.3s-.9 16.9-3.1 30.3c-.4 2.2-1.5 6.9-3.3 13.2 1.2-.8 2.5-1.6 3.7-2.4l1.6-5.4c1.2.6 2.3 1.2 3.4 1.8 1.3-1 2.7-2.1 4-3.1-3.6-2.1-6.3-3.4-6.3-3.4 3.4-17 0-31 0-31z"/><path fill="#502300" d="M85.9 150.7c-.5.3-4.1 2.9-3 11.2.1.6.2 1.4.3 2.2.5-1.2.9-2.2 1.2-3 .9-3.3 1.3-7.1 1.5-10.4z"/><path fill="#A45625" d="M22.3 200.3c1.9 2.8 4 5.6 6.1 8.2-1-4.9-1.6-8.6-1.7-10.6.1 0-1.6.9-4.4 2.4z"/><path fill="#B17D6B" d="M86.1 145.9c0 .9 0 1.8-.1 2.8v2h-.1c-.2 3.4-.6 7.1-1.4 10.5.3-.7.5-1.2.5-1.2 6.9 23.9 43.1 46.9 43.1 46.9v-29.5s-9.1-.2-12.2-1c-3.1-.8-8.8-4.6-9.2-5.1s-6.5-3.4-10.3-6.9c-1.5-1.4-3.4-4.6-5-7.9l-.9-1.5c-.2-.3-.4-.6-.6-1-.4-.7-.7-1.4-1-2.2-1-2.4-1.9-5.4-2.9-8.7.1 1 .1 1.8.1 2.8 0-.1 0-.1 0 0zm-5.5-33.8c-2-2.7-5.3-8.2-5.5-10.5-.2-3.2.7-4.4 1.2-5.9.5-1.4.9-4.1.9-4.1L75 93.4l2.6-8.1-2 .4c-.3.3-.6 0-.6 0l.6-.1c.3-.3.6-1.3.6-3.7v-.2c-1.4-1.2-3-2.2-4.1-1.8-2.5.8-3.8 2.2-2.5 9.7 1.4 7.5 2.8 7.7 3.4 10.7.6 3 2.6 7.5 3.2 9.9.6 2.4-1.4 5.1 1.5 8.6 1.3 1.5 2.6 2.6 3.6 3.4-.5-3.1-.8-5.7-.8-7.5.1-.7.1-1.5.1-2.6zm0-5.7v-1.2 1.2z"/><path fill="#C08C76" d="M91.1 155.9c-.2-.2-.4-.4-.6-.7l.9 1.5c-.1-.3-.2-.5-.3-.8z"/><path fill="#C08C76" d="M88.9 152.1c.3.7.7 1.4 1 2.2-1.5-2.9-3-7.9-3-7.9s1.9 4.8 4.2 9.6c1.6 1.5 1.7 1.3 3.7 2.8 2 1.6 0 0 2.8 3.7s.9 1.3 2.8 3c1.8 1.8 1.4 1.6 4.6 2.2 3.2.6 0-2.2 0-2.7s.8-.8.8-.8l.9 1.1s1.4.8 2.5 1.4c1.1.6 0 0 .9 0h2.6l1.7 2.6c1.7 2.6 2.2.3 6.3 2.6 4.2 2.2 7.5.6 7.5.6v-70.3l-5.1 1.6v1.6l-2.8-.5-2.8.3s-3.2 2.4-3.5 3.2-.5 2.9-.5 2.9l2.6 2.7-3.4-.3-2-2.4-3.1 2.9-3.5.2-2.5-1.1-1.7-.8.3 9.6-1.7-3.5-.5-1v-5.7l-4.6-.8-3.5-1.9-.9 4.9.8 3.5-2.2-3.2s1.4-5.1.8-6.1c-.6-1-2-2.7-2.5-3.7s.3-1 .5-1.6 1.2-2.1 1.2-2.7c0-.6-2.5-2.1-2.5-2.1h1.4c1.4 0 6-1.1 6-1.1l3.2-3-3.5-3-1.4-5.3s.5 1.4 1.8 3.5S98 93 98 93l5.7-3v-2.1l.9 1.8s2.2.8 1.4-2.2c-.8-3 0-3.7 0-4.3s1.2-4.5 1.2-4.5-.2 4.9 0 5.7.8 2.9 1.5 4.1c.8 1.3 2.8 1.6 4 1 .3-.2.4-.4.4-.6-.3-.5 0-.3 0 0 .1.3.4.8 1 1.6 2.2 3.2 3.8 2.1 5.5 2.7s3.4 0 3.4 0-1.4 2.4-.6 4l.9 1.6s-1.1 1.6.9 2.6 3.9 1 3.9 1V80.9l-1.6-.2c-1.6 9.5-9 8.8-9 8.8l-.7-1c8.4.1 8.5-8.1 8.5-8.1-2.8-.8-5.3-2.3-5.3-2.3V77c1.3.6 5.2 2 5.2 2-.2-4.4-5.2-5.9-5.2-5.9v-1c5.8.8 6.2 6.8 6.2 6.8l1.8.4V46.7s-20.8 1-29.5-4.3c0 0-1.8-2.2-5.3 0s-6 5-6.7 7.7c-.7 2.6-2.5 9.8-2.5 9.8l2.3-1.7s-1.4 5.3-2.3 7.9c-.8 2.6-2 13.7-2 13.7l2.3-1.2s.5 2.8-.9 5.4c-1.4 2.6-.2 4.6-1.4 9.1-1.2 4.6.9 7.2.2 8.5-.7 1.3-1.4.1-1.6 3.6v1.2c0 1 .2 2 .4 2.9.4 1.9 1 3.5 1 4.2 0 .4-.6-.3-1.4-1.4v2.6c.1 1.8.4 4.4.8 7.5 1 6.2 2.7 14.3 4.6 21.2 1 3.3 2 6.3 2.9 8.7z"/><path fill="#3F0D46" d="M113.2 88.9c0-.4-.3-.6 0 0z"/><path fill="#3F0D46" d="M124.3 101.3c-2-1-.9-2.6-.9-2.6l-.9-1.6c-.8-1.6.6-4 .6-4s-1.7.6-3.4 0-3.4.5-5.5-2.7c-.5-.8-.8-1.3-1-1.6 0 .2-.1.5-.4.6-1.2.6-3.2.3-4-1-.8-1.3-1.4-3.3-1.5-4.1s0-5.7 0-5.7-1.2 3.8-1.2 4.5-.8 1.3 0 4.3-1.4 2.2-1.4 2.2l-.9-1.8V90L98 93s-3.8-1.6-5.2-3.7-1.8-3.5-1.8-3.5l1.4 5.3 3.5 3-3.2 3s-4.6 1.1-6 1.1h-1.4s2.5 1.4 2.5 2.1c0 .6-1.1 2.1-1.2 2.7s-.9.6-.5 1.6c.5 1 1.8 2.7 2.5 3.7.6 1-.8 6.1-.8 6.1l2.2 3.2-.8-3.5.9-4.9 3.5 1.9 4.6.8v5.7l.5 1 1.7 3.5-.3-9.6 1.7.8 2.5 1.1 3.5-.2 3.1-2.9 2 2.4 3.4.3-2.6-2.7s.2-2.1.5-2.9 3.5-3.2 3.5-3.2l2.8-.3 2.8.5v-1.6l5.1-1.6c-.3.1-2.1.1-4.1-.9z"/><path fill="#4F514E" d="M75.6 85.6l2-.4-2.6 8.2 2.1-1.7s-.5 2.6-.9 4.1c-.5 1.4-1.4 2.6-1.2 5.9.2 2.3 3.5 7.8 5.5 10.5.8 1.1 1.4 1.7 1.4 1.4 0-.7-.6-2.3-1-4.2-.2-.9-.4-1.9-.4-2.9v-1.2c.2-3.5.9-2.3 1.6-3.6.7-1.3-1.4-4-.2-8.5 1.2-4.6 0-6.5 1.4-9.1 1.4-2.6.9-5.4.9-5.4L82 79.8s1.2-11.1 2.1-13.7c.9-2.6 2.3-7.9 2.3-7.9l-2.3 1.7s1.8-7.2 2.5-9.8c.7-2.6 3.2-5.5 6.7-7.7s5.3 0 5.3 0c8.8 5.3 29.5 4.3 29.5 4.3V8.4h-.2c-26 .1-26.3 14.4-26.3 14.4-12.7 2.4-14.1 8.6-18 15.3-3.9 6.7-6.9 18.4-7.4 23.2-.5 4.8.2 7.4.7 9.3.5 1.9-.7 6.3-.7 11.1v.2c0 2.4-.3 3.4-.6 3.7z"/><path fill="#4F514E" d="M75.6 85.6l-.6.1s.3.3.6-.1z"/><path fill="#947765" d="M128.1 175.3v-2.8s-3.4 1.6-7.5-.6c-4.2-2.2-4.6 0-6.3-2.6l-1.7-2.6H110c-.9 0 .2.6-.9 0s-2.5-1.4-2.5-1.4l-.9-1.1s-.8.3-.8.8 3.2 3.4 0 2.7c-3.2-.6-2.8-.5-4.6-2.2-1.8-1.8 0 .6-2.8-3-2.8-3.7-.8-2.1-2.8-3.7-2-1.6-2-1.3-3.7-2.8.1.2.2.5.3.7 1.6 3.3 3.5 6.5 5 7.9 3.8 3.5 9.8 6.4 10.3 6.9s6.2 4.3 9.2 5.1c3.1.8 12.2 1 12.2 1v-2.3zm-37-19.4c-2.3-4.8-4.2-9.6-4.2-9.6s1.6 5 3 7.9c.2.4.4.7.6 1 .2.3.4.5.6.7z"/><path fill="#552C26" d="M128.1 79.5l-1.8-.4s-.5-6-6.2-6.8v1s5 1.5 5.2 5.9c0 0-3.9-1.4-5.2-2v1.1s2.5 1.4 5.3 2.3c0 0-.2 8.2-8.5 8.1l.7 1s7.4.6 9-8.8l1.6.2v-1.6z"/><path fill="#96999B" d="M85 160s-.2.4-.5 1.2c-.3.7-.7 1.8-1.2 3 .8 5.2 2.5 13.8 5.1 24.3 13.8 12.9 39.7 26.6 39.7 26.6v-8.2S91.9 183.9 85 160z"/><path fill="#544544" d="M128.1 216.7V215s-26-13.7-39.7-26.6c2.6 10.6 6.1 23 10.5 35.9 2.9 8.4 6.7 19.3 10.6 30.3 6 .9 12.2 1.3 18.5 1.3h.1v-39.2z"/><path fill="#834419" d="M88.4 188.5c-2.6-10.5-4.3-19.1-5.1-24.3-.1-.8-.2-1.6-.3-2.2-1.2-8.3 2.5-10.9 3-11.2h.1v-2l.1-2.8c-4 2.4-7.6 15.6-9.3 22.8.1 0 .1-.1.2-.1 0 0-2.5 12.1 4.3 34.5 2.4 8 9.1 27.5 16.6 49.4 3.8.9 7.8 1.7 11.7 2.3-3.9-11-7.7-21.9-10.6-30.3-4.6-13.1-8.1-25.6-10.7-36.1z"/><path fill="#AC7433" d="M51.1 230.3c1.6 1.2 3.3 2.4 5 3.6l-1.6-5.4c-1.2.6-2.3 1.2-3.4 1.8z"/><path fill="#AC7433" d="M56 186.5c-.7.2-1.4.4-2.2.6-6.8 1.3-8.3 6.7-13.2 8.3-4.9 1.6-9.8-1.3-13.5 1-.2.1-.3.7-.2 1.6.1 2 .7 5.6 1.7 10.6 5.6 6.9 11.8 13.1 18.6 18.7 3.6-2.1 6.3-3.4 6.3-3.4-3.4-16.9 0-31 0-31s.9 16.9 3.1 30.3c.4 2.2 1.5 6.9 3.3 13.2 1.7 1.1 3.5 2.1 5.2 3.1-5.9-23.8-10-44.6-9.1-53zm20.9-18c-.1 0-.1.1-.2.1-8.4 4.1-8.2 6.6-10 9.7-.4.7-1 1.4-1.6 2.2 0 0-5.8 12.8 1.2 41.3 1.3 5.3 3.3 12.8 5.6 21.3 8.2 4 16.8 7.1 25.9 9.3-7.6-21.9-14.2-41.4-16.6-49.4-6.8-22.4-4.3-34.5-4.3-34.5z"/><path fill="#291E23" d="M65.1 180.5c-4.9 2.7-9 5.9-9.1 6-.9 8.4 3.3 29.3 9 53 2.3 1.3 4.6 2.5 7 3.7-2.3-8.6-4.3-16-5.6-21.3-7.2-28.6-1.3-41.4-1.3-41.4zm-11.7 12.3s-3.4 14 0 31c0 0-2.7 1.3-6.3 3.4 1.3 1.1 2.6 2.1 4 3.1 1.1-.6 2.2-1.2 3.4-1.8l1.6 5.4c1.2.8 2.4 1.6 3.7 2.4-1.7-6.3-2.9-10.9-3.3-13.2-2.2-13.4-3.1-30.3-3.1-30.3z"/></svg>