<svg xmlns="http://www.w3.org/2000/svg" width="256" height="256"><circle fill="#B1B3B5" cx="128" cy="128" r="128"/><path fill="#688BA2" d="M232.6 186.6s-40.2-14.4-50.8-22.5c-4.7-3.7-7.8-10.6-9.8-17.1-1 1.6-2.3 3.3-3.9 5.2-5.3 13.2-17.7 44.9-20.7 56.1 5.1-1.7 8.9-1.7 8.9-1.7 11.2-6.5 28.7-8.1 40-9.8 11.3-1.7 23-8.1 23-8.1-11.5 11.7-32.3 16.3-36.9 17.5-4.6 1.2-17.7.7-24.9 3.1-4.8 1.6-13.5 4.2-18.7 5.7-3.1 2-5.8 3.6-5.7 2.9.3-1.6 15.3-23.6 18.7-38.6 0 0-14.2 18.9-23.4 37.5v22.9c1.6 1.6 6.1 5.8 9.9 7.3 0 0 1.7 4.5.6 8.8 32.4-2.7 61.4-17.5 82.4-39.8-1.9-1.1-2.5-3.9-2.5-3.9 2.3-2.5 4.6-1.2 6 .1 6.8-7.9 12.7-16.6 17.5-26-6.2-.5-9.7.4-9.7.4zM166 243.3c-4.6 1-9.6 0-9.6 0s-.7-4.3 0-9.6 6.5-4.3 6.5-4.3c6.5-4.3 8.4-.7 8.9 1.4.5 2.2 3.6 7.9 3.6 7.9s-4.9 3.6-9.4 4.6zm40.5-17.6c-1.2 4-11.7 4.2-11.7 4.2-1.9-3.6 0-8.4 0-8.4 1.9-2.6 5.5.7 5.4 1.7-.1.9 7.5-1.4 6.3 2.5z"/><path fill="#59798C" d="M150.3 175.2c-.4.3-.8.7-1.2.9-2.6 4.4-6.5 7-10.2 8.5-.9.6-1.9.8-2.8.9-3.5.9-6.5 1-7.8 1v30c9.3-18.6 23.4-37.5 23.4-37.5-3.4 15-18.4 37-18.7 38.6-.1.7 2.6-.9 5.7-2.9-2.5.7-4.2 1.2-4.2 1.2 4.3-4.2 8.9-6.5 12.8-7.8 3-11.2 15.4-42.9 20.7-56.1-2.7 3.2-6.1 6.7-9.4 10.5-3.5 6.2-6.9 11.6-8.3 12.7zm27.7-56.3c5.4-3.3 6.2-8 8.7-13 2.9-5.7 2.9-11.8 1.6-18.5-.4-2.3-1.6-5.3-3.1-8.3-.8 6-2.3 11.6-3 16.4-.8 5.8-2.5 14.7-4.2 23.4z"/><path fill="#7CA6C1" d="M135.2 109.1s-8.1-6.5-4.3-11.6c0 0 .3 7.8 4.6 8.5 4.3.6 12.5-2.1 16.3-5.3 3.8-3.2 7.3-6.9 12.5-3.8 5.1 3 12.3 4.9 16.4 2.2 0 0-10.4 9.3-20.4 12.3-10.1 3-14 1.9-14 1.9l3 4.2s-8-3.7-13.1-6.7c-3.8-2.2-6.6-2.2-7.8-2v71.9c1 0 3-.4 3.3-3.1.5-3.7 2.9-10.7 2.9-10.7s-1.6 13.3 0 14.7 3.7-11.3 6.4-16.3c0 0-4 17.8-1.8 16.4 2.2-1.4 19.2-38.9 24.7-45.9s9.1-11 9.1-11-23.5 34.6-22.7 40.9c.5 3.7 8-9.7 14.1-21.2 4-7.9 7.6-14.9 7.6-14.9s-3.5 7-7.6 14.9c-5.3 10.5-11.4 22.5-10.7 21.8 1.1-1.1 16.8-24.6 16.8-24.6s-6.2 11.3-11.8 20.8c3.2-3.7 6.6-7.3 9.4-10.5 1.6-1.8 2.9-3.6 3.9-5.2.9-1.4 1.5-2.8 1.6-3.9.5-3.9 2.4-13.8 4.4-24.1 1.7-8.7 3.3-17.6 4.2-23.4.7-4.9 2.2-10.4 3-16.4.2-1.2.3-2.4.4-3.6-2.5 6.7-6.8 13.6-6.8 13.6 5-9.7 6.5-17.4 7-21.3 0-.7-.1-1.5-.2-2.2l-11.9 22.1s3.1-8.4 6.9-18.2 1.2-14.6 1.2-14.6c-3.6 11.3-12.5 30.9-12.5 30.9s3-10 5.4-19.4c-4.3 7-15.3 10.5-15.3 10.5s6.7-16.8 11-26.2c1.8-4 1.5-9 .4-13.5-6.5 14.3-20.5 33.7-20.5 33.7s10.3-20.8 13.4-29-1.7-11.3-1.7-11.3c-6 15.8-18.7 37-18.7 37s11-25 12.9-33.4c1.9-8.4-6.7-8.6-6.7-8.6-2.9 12.9-10.1 28.3-10.1 28.3s6.2-22 6.5-26.8c.1-2-3.1-3.6-6.9-4.9-2.1 3-3.5 6.9-3.9 10.4 0 15-5.3 25.9-7.2 29.3v45.4c1.6-.3 4.3-.6 7.3 1.9zm-6.9 75.7v1.7c1.3 0 4.3-.1 7.8-1-2.4.3-4.9-.6-7.8-.7zm12.6-1.9c-.7.8-1.3 1.3-2 1.7 3.7-1.5 7.6-4 10.2-8.5-2.7 2-4.7 2.7-8.2 6.8z"/><path fill="#486576" d="M146.3 27.1c-.2 4.8-6.5 26.8-6.5 26.8s7.2-15.3 10.1-28.3c0 0 8.6.2 6.7 8.6-1.9 8.4-12.9 33.4-12.9 33.4s12.7-21.2 18.7-37c0 0 4.8 3.1 1.7 11.3s-13.4 29-13.4 29 14-19.4 20.5-33.7c-1.5-6.2-4.6-11.7-5.9-12.5-2.2-1.4-6.5 3.4-6.5 3.4 0-5.5-3.4-8.6-10.3-10.3-3.6-.9-6.7 1.2-9 4.4 3.8 1.2 6.9 2.9 6.8 4.9zM182 54.8s2.6 4.8-1.2 14.6-6.9 18.2-6.9 18.2l11.9-22.1.4-.7s0 1-.2 2.9c-.4 3.9-2 11.6-7 21.3 0 0 4.3-6.9 6.8-13.6 1.1-2.8 1.8-5.6 1.8-7.9 0-1.7-.3-4.1-.9-7-.8 3.9-2.4 7-2.4 7 1.7-8.3-2.4-14.2-2.4-14.2s-2.4 4.3-6.2 12c-.2.3-.4.7-.5 1-2.5 9.4-5.4 19.4-5.4 19.4s8.6-19.6 12.2-30.9z"/><path fill="#59798C" d="M136.1 110.7c5.1 3 13.1 6.7 13.1 6.7l-3-4.2s4 1.1 14-1.9c10.1-3 20.4-12.3 20.4-12.3-4.2 2.7-11.3.8-16.4-2.2-5.1-3-8.6.6-12.5 3.8-3.8 3.2-12 5.9-16.3 5.3-4.3-.6-4.6-8.5-4.6-8.5-3.8 5.1 4.3 11.6 4.3 11.6-3-2.5-5.7-2.2-6.8-2v1.5c1.2 0 4.1 0 7.8 2.2z"/><path fill="#486576" d="M172.1 129.6s-3.6 7-7.6 14.9c4.1-7.9 7.6-14.9 7.6-14.9z"/><path fill="#486576" d="M128.3 184.8c2.9.1 5.4.9 7.8.7 1-.1 1.9-.4 2.8-.9.7-.4 1.3-1 2-1.7 3.5-4 5.5-4.8 8.2-6.7l1.2-.9c1.3-1.1 4.7-6.5 8.4-12.7 5.6-9.5 11.8-20.8 11.8-20.8s-15.6 23.5-16.8 24.6c-.6.6 5.4-11.4 10.7-21.8-6.1 11.5-13.6 24.9-14.1 21.2-.8-6.2 22.7-40.9 22.7-40.9s-3.5 4-9.1 11-22.5 44.5-24.7 45.9c-2.2 1.4 1.8-16.4 1.8-16.4-2.7 4.9-4.8 17.7-6.4 16.3s0-14.7 0-14.7-2.4 7-2.9 10.7c-.3 2.7-2.3 3.1-3.3 3.1v4h-.1z"/><path fill="#868E86" d="M128.3 12.2v49.7c1.9-3.4 7.2-14.3 7.2-29.3.5-3.5 1.8-7.5 3.9-10.4 2.3-3.2 5.4-5.3 9-4.4 6.9 1.7 10.3 4.8 10.3 10.3 0 0 4.3-4.8 6.5-3.4 1.2.8 4.3 6.2 5.9 12.5 1.1 4.5 1.4 9.5-.4 13.5-4.3 9.5-11 26.2-11 26.2s11-3.5 15.3-10.5c.2-.3.4-.6.5-1 3.8-7.7 6.2-12 6.2-12s4.1 5.9 2.4 14.2c0 0 1.6-3.1 2.4-7 .5-2.5.7-5.3 0-7.9 0 0-2.4-20.6-6.2-28-3.4-6.6-9.6-16.3-12.9-18.5-.4-.1-.8-.3-1.2-.4l-1.9 3.8s-.5-2.4-1.7-4.8c-3-.9-6.1-1.6-9.3-2.2-.7 1.4-1.5 3.1-2 4.4 0 0-1.4-4.6-4.3-4.6s-3.6 1.2-3.6 1.2-1-1.3-2.4-2.9c-4.2-.4-8.4-.6-12.7-.7v12.2z"/><path fill="#749AB4" d="M138.8 214.8c5.2-1.5 13.9-4.1 18.7-5.7 7.2-2.4 20.4-1.9 24.9-3.1 4.6-1.2 25.4-5.8 36.9-17.5 0 0-11.7 6.5-23 8.1-11.3 1.7-28.8 3.4-40 9.8 0 0-3.8 0-8.9 1.7-3.9 1.3-8.6 3.7-12.8 7.8-.1.1 1.6-.4 4.2-1.1z"/><path fill="#868E86" d="M138.2 246.7c-3.8-1.5-8.2-5.7-9.9-7.3V256c3.5 0 7-.2 10.5-.5 1.1-4.3-.6-8.8-.6-8.8zm24.7-17.3s-5.7-1-6.5 4.3c-.7 5.3 0 9.6 0 9.6s5 1 9.6 0 9.3-4.6 9.3-4.6-3.1-5.7-3.6-7.9c-.4-2.1-2.4-5.7-8.8-1.4zm37.3-6.2c.1-1-3.5-4.3-5.4-1.7 0 0-1.9 4.8 0 8.4 0 0 10.5-.2 11.7-4.2 1.2-3.9-6.4-1.6-6.3-2.5zm18.5-11.4s.7 2.9 2.5 3.9c1.2-1.3 2.4-2.6 3.5-3.9-1.4-1.2-3.8-2.5-6 0z"/><path fill="#59798C" d="M117.8 246.7c4.8-1.9 10.5-8 10.5-8v-20.9c-9.3-19-24.1-38.8-24.1-38.8 3.4 15 18.4 37 18.7 38.6.1.7-2.6-.9-5.7-2.9-5.2-1.5-13.9-4.1-18.7-5.7-7.2-2.4-20.4-1.9-24.9-3.1-4.6-1.2-25.4-5.8-36.9-17.5 0 0 11.7 6.5 23 8.1 11.3 1.7 28.8 3.4 40 9.8 0 0 3.8 0 8.9 1.7-3-11.2-15.4-42.9-20.7-56.1-1.6-1.8-2.9-3.6-3.9-5.2-2 6.5-5.1 13.5-9.8 17.1-10.5 8.1-50.8 22.5-50.8 22.5s-3.6-.9-9.7-.7c4.8 9.4 10.7 18.1 17.5 26 1.4-1.2 3.8-2.5 6-.1 0 0-.7 2.9-2.5 3.9 21 22.3 50 37.1 82.4 39.8-1-4 .7-8.5.7-8.5zm-56.5-16.8s-10.5-.2-11.7-4.2c-1.2-4 6.4-1.6 6.3-2.5-.1-1 3.5-4.3 5.4-1.7 0 0 1.9 4.8 0 8.4zm38.3 13.4s-5 1-9.6 0-9.3-4.6-9.3-4.6 3.1-5.7 3.6-7.9 2.4-5.7 8.9-1.4c0 0 5.7-1 6.5 4.3.6 5.3-.1 9.6-.1 9.6z"/><path fill="#4C697B" d="M128.3 186.5s-3.8.2-8.4-1c-1-.1-1.9-.4-2.8-.9-3.7-1.5-7.6-4-10.2-8.5l-1.2-.9c-1.3-1.1-4.7-6.5-8.4-12.7-3.2-3.7-6.6-7.3-9.4-10.5 5.3 13.2 17.7 44.9 20.7 56.1 3.9 1.3 8.6 3.7 12.8 7.8 0 0-1.7-.5-4.2-1.2 3.1 2 5.8 3.6 5.7 2.9-.3-1.6-15.3-23.6-18.7-38.6 0 0 14.8 19.8 24.1 38.8v-31.3zM70.7 79.1c-1.4 3-2.6 6-3.1 8.3-1.3 6.7-1.3 12.8 1.6 18.5 2.5 5 3.3 9.7 8.7 13-1.7-8.7-3.3-17.6-4.2-23.4-.7-4.8-2.1-10.4-3-16.4z"/><path fill="#688BA2" d="M115.1 182.9c-3.5-4-5.5-4.8-8.2-6.7 2.6 4.4 6.5 7 10.2 8.5-.7-.5-1.4-1-2-1.8zm-17.8-20.4c-5.6-9.5-11.8-20.8-11.8-20.8s15.6 23.5 16.8 24.6c.6.6-5.4-11.4-10.7-21.8-4.2-7.9-7.6-14.9-7.6-14.9s3.6 7 7.6 14.9c6.1 11.5 13.6 24.9 14.1 21.2.8-6.2-22.7-40.9-22.7-40.9s3.5 4 9.1 11 22.5 44.5 24.7 45.9c2.2 1.4-1.8-16.4-1.8-16.4 2.7 4.9 4.8 17.7 6.4 16.3s0-14.7 0-14.7 2.4 7 2.9 10.7c.5 3.7 4 3 4 3v-71.8s-3.4-1.1-8.5 1.9-13.1 6.7-13.1 6.7l3-4.2s-4 1.1-14-1.9C85.6 108.3 75.3 99 75.3 99c4.2 2.7 11.3.8 16.4-2.2 5.1-3 8.6.6 12.5 3.8 3.8 3.2 12 5.9 16.3 5.3 4.3-.6 4.6-8.5 4.6-8.5 3.8 5.1-4.3 11.6-4.3 11.6 4.1-3.3 7.5-1.8 7.5-1.8V63s-7.9-12.2-7.9-30.4c-.5-3.5-1.8-7.5-3.9-10.4-3.8 1.3-7 2.9-6.9 4.9.2 4.8 6.5 26.8 6.5 26.8s-7.2-15.3-10.1-28.3c0 0-8.6.2-6.7 8.6 1.9 8.4 12.9 33.4 12.9 33.4s-12.7-21.2-18.7-37c0 0-4.8 3.1-1.7 11.3s13.4 29 13.4 29-14-19.4-20.5-33.7c-1.1 4.5-1.4 9.5.4 13.5 4.3 9.5 11 26.2 11 26.2s-11-3.5-15.3-10.5c2.5 9.4 5.4 19.4 5.4 19.4s-8.6-19.7-12.2-31c0 0-2.6 4.8 1.2 14.6s6.9 18.2 6.9 18.2L70.2 65.5c-.1.7-.1 1.5-.2 2.2.4 3.9 2 11.6 7 21.3 0 0-4.3-6.9-6.8-13.6.1 1.2.3 2.4.4 3.6.8 6 2.3 11.6 3 16.4.9 5.7 2.6 14.7 4.2 23.4 2 10.3 3.9 20.2 4.4 24.1.2 1.2.7 2.5 1.6 3.9 1 1.6 2.3 3.3 3.9 5.2 3 3.3 6.4 6.8 9.6 10.5zm31 22.3c-3.2 0-5.9 1-8.4.7 4.6 1.2 8.4 1 8.4 1v-1.7z"/><path fill="#3E5868" d="M91.9 41.9c-3.1-8.1 1.7-11.3 1.7-11.3 6 15.8 18.7 37 18.7 37s-11-25-12.9-33.4c-1.9-8.4 6.7-8.6 6.7-8.6 2.9 12.9 10.1 28.3 10.1 28.3s-6.2-22-6.5-26.8c-.1-2 3.1-3.6 6.9-4.9-2.3-3.2-5.4-5.3-9-4.4-6.9 1.7-10.3 4.8-10.3 10.3 0 0-4.3-4.8-6.5-3.4-1.2.8-4.3 6.2-5.9 12.5 6.5 14.3 20.5 33.7 20.5 33.7S95 50 91.9 41.9zM77.1 89.1c-5-9.7-6.5-17.4-7-21.3-.2-1.9-.2-2.9-.2-2.9l.4.7 11.9 22.1s-3.1-8.4-6.9-18.2c-4-9.9-1.3-14.7-1.3-14.7 3.6 11.3 12.5 30.9 12.5 30.9s-3-10-5.4-19.4c-.2-.3-.4-.6-.5-1-3.8-7.7-6.2-12-6.2-12s-4.1 5.9-2.4 14.2c0 0-1.6-3.1-2.4-7-.6 2.9-.9 5.3-.9 7 0 2.2.8 5 1.8 7.9 2.3 6.8 6.6 13.7 6.6 13.7z"/><path fill="#4C697B" d="M128.3 107.4s-3.4-1.6-7.5 1.8c0 0 8.1-6.5 4.3-11.6 0 0-.3 7.8-4.6 8.5-4.3.6-12.5-2.1-16.3-5.3-3.8-3.2-7.3-6.9-12.5-3.8-5.1 3-12.3 4.9-16.4 2.2 0 0 10.4 9.3 20.4 12.3 10.1 3 14 1.9 14 1.9l-3 4.2s8-3.7 13.1-6.7 8.5-1.9 8.5-1.9v-1.6z"/><path fill="#3E5868" d="M105.7 175.2c.4.3.8.7 1.2.9 2.7 1.9 4.7 2.7 8.2 6.7.7.8 1.3 1.3 2 1.7.9.6 1.9.8 2.8.9 2.5.2 5.2-.7 8.4-.7v-4.1s-3.5.6-4-3c-.5-3.7-2.9-10.7-2.9-10.7s1.6 13.3 0 14.7-3.7-11.3-6.4-16.3c0 0 4 17.8 1.8 16.4-2.2-1.4-19.2-38.9-24.7-45.9s-9.1-11-9.1-11 23.5 34.6 22.7 40.9c-.5 3.7-8-9.7-14.1-21.2 5.3 10.5 11.4 22.5 10.7 21.8-1.1-1.1-16.8-24.6-16.8-24.6s6.2 11.3 11.8 20.8c3.6 6.2 7 11.6 8.4 12.7z"/><path fill="#3E5868" d="M83.9 129.6s3.5 7 7.6 14.9c-4-7.9-7.6-14.9-7.6-14.9z"/><path fill="#717872" d="M75.6 24.7c-3.8 7.4-6.2 28-6.2 28-.7 2.6-.5 5.4 0 7.9.8 3.9 2.4 7 2.4 7-1.7-8.3 2.4-14.2 2.4-14.2s2.4 4.3 6.2 12c.2.3.4.7.5 1 4.3 7 15.3 10.5 15.3 10.5s-6.7-16.8-11-26.2c-1.8-4-1.5-9-.4-13.5 1.5-6.2 4.6-11.7 5.9-12.5 2.2-1.4 6.5 3.4 6.5 3.4 0-5.5 3.4-8.6 10.3-10.3 3.6-.9 6.7 1.2 9 4.4 2.1 3 3.5 6.9 3.9 10.4 0 18.2 7.9 30.4 7.9 30.4V0h-.3c-4.4 0-8.8.2-13.1.7-1.5 1.6-2.4 2.9-2.4 2.9s-.7-1.2-3.6-1.2c-2.9 0-4.3 4.6-4.3 4.6-.4-1.3-1.2-3-2-4.4-3.1.6-6.2 1.4-9.3 2.2-1.2 2.5-1.7 4.8-1.7 4.8l-1.9-3.8c-.4.1-.8.3-1.2.4-3.3 2.2-9.5 11.9-12.9 18.5z"/><path fill="#688BA2" d="M108.6 208.2c-5.1-1.7-8.9-1.7-8.9-1.7-11.2-6.5-28.7-8.1-40-9.8-11.3-1.7-23-8.1-23-8.1 11.5 11.7 32.3 16.3 36.9 17.5 4.6 1.2 17.7.7 24.9 3.1 4.8 1.6 13.5 4.2 18.7 5.7 2.5.7 4.2 1.2 4.2 1.2-4.2-4.3-8.9-6.6-12.8-7.9z"/><path fill="#717872" d="M128.3 238.8s-5.7 6.1-10.5 8c0 0-1.7 4.5-.6 8.8 3.6.3 7.2.5 10.8.5h.3v-17.3zm-35.2-9.4c-6.5-4.3-8.4-.7-8.9 1.4-.5 2.2-3.6 7.9-3.6 7.9s4.8 3.6 9.3 4.6 9.6 0 9.6 0 .7-4.3 0-9.6c-.6-5.2-6.4-4.3-6.4-4.3zm-37.3-6.2c.1 1-7.5-1.4-6.3 2.5 1.2 4 11.7 4.2 11.7 4.2 1.9-3.6 0-8.4 0-8.4-1.8-2.6-5.4.7-5.4 1.7zm-18.5-11.4c-2.3-2.5-4.6-1.2-6 .1 1.1 1.3 2.3 2.6 3.5 3.9 1.9-1.2 2.5-4 2.5-4z"/></svg>