<svg xmlns="http://www.w3.org/2000/svg" width="256" height="256"><circle fill="#B1B3B5" cx="128" cy="128" r="128"/><path fill="#CCAD9F" d="M133.1 251.5c-1.4-4.4-2.3-9-2.5-13.8-1-21.1.3-69 9.9-79.8l.3-.3c-5.7 3.6-12.8 2.5-12.8 2.5v96h.7c.8-.9 2.3-2.5 4.4-4.6z"/><path fill="#BC8F86" d="M210.5 216l-4.5-6.6-5.6 7.8-6.2-6.5-5.8 6.5-2.5-3.7c-1.9.3-4.7.7-7.8.8 3.3 7.3 9.1 17.7 14.7 23.9 10.1-6 19.4-13.3 27.5-21.8l-4.3-7.1-5.5 6.7zm12.7-9.3l-3.6 2.6 2.4 5.5c2.1-2.3 4.1-4.6 6-7l-3.4 1.2-1.4-2.3z"/><path fill="#BC8F86" d="M208.3 188.1c-5.7-1.3-14.1-4.1-20.5-6.4-2.9 7.1-6.6 15.2-11.2 18.6 0 0 4.3-10.6 5.7-20.6-1.6-.6-2.9-1-3.5-1.3-2.1 10.6-4.5 25.4-2.5 31.1.2.5.4 1.1.6 1.7 2.5.9 5.4 1.4 8.7 1.7l-3.2-4.8 6.4-6.5 5.8 6.5 4.7-6.5 7.2 6.5 4.7-5 4.1 5 8.2-6.5 1.2 3.8 4.3-1.7.7 1.9c.5-.6 1-1.3 1.4-1.9-6.9-8.4-16.2-14-22.8-15.6zm-32 39.8c2.2 3.1 6.4 8.8 11.1 13.5 1.6-.8 3.2-1.7 4.7-2.6-5.7-3.3-12.7-7.6-15.8-10.9zm.9 10.4s1.4 2.9 3.5 6.4c1-.5 2.1-1 3.1-1.5-2.3-1.3-4.5-2.9-6.6-4.9zM128.7 256c2 0 4.1-.1 6.1-.2-.6-1.4-1.2-2.9-1.7-4.4-2.1 2.2-3.6 3.8-4.4 4.6z"/><path fill="#A4565B" d="M224.7 205.5l-1.2-3.8-8.2 6.5-4.1-5-4.7 5-7.2-6.5-4.7 6.5-5.8-6.5-6.4 6.5 3.2 4.8c1 .1 2.1.1 3.1.1 0 0-1 .3-2.7.6l2.5 3.7 5.8-6.5 6.2 6.5 5.6-7.8 4.5 6.6 5.6-6.6 4.3 7.1c.6-.6 1.1-1.2 1.7-1.8l-2.4-5.5 3.6-2.6 1.4 2.3 3.4-1.2c.6-.7 1.1-1.4 1.7-2.1l-.7-1.9-4.5 1.6z"/><path fill="#1D140F" d="M170.9 76.4v2.3l2.5.8c0-1.9-.1-3.9-.3-5.8-.9-4.7-2.2-9.3-3.7-13.3.9 7.3 1.5 13.9 1.5 16zm-6.7 47c-3.3 8.8-8.2 16.1-12.8 22 5.6-6.6 10.3-12.7 11.7-17.4.9-3.1 2.9-7 4.8-11.3-.7.3-1.3.5-1.9.7-.5 2.1-1.1 4.2-1.8 6z"/><path fill="#CCAD9F" d="M166.1 117.4c.5-.2 1.2-.4 1.9-.7 2.8-6.2 5.6-13.3 5.4-20.5-.1-4.5.2-10.5 0-16.7l-2.5-.8c-.3 7.4-1.5 25.7-4.8 38.7z"/><path fill="#DEBCAD" d="M166.1 117.4c3.3-12.9 4.6-31.3 4.8-38.6v-2.3c0-2.1-.7-8.7-1.5-16-1.3-3.4-2.7-6.4-4.4-8.9-6.3-9.1-12-14.9-19.3-16.1l-2.6.9s.4-.5.7-1.1h-.9l1.1-.3c.5-.8.8-1.7.2-1.6-1.3.2-6.1 2.7-6.1 2.7l.3-1.4c-.6.3-1.3.6-1.9 1l1.6-2.7c-1.4.6-4.5 2.1-6.2 3.5l1.3-2.7-5.3 4v86.9s1.3.2 2.5-.8c1.8-.8 4.1-.1 5.4 1.3 2.5 2.2 2.7 2.8 5.3 3.7 0 0-2.3 3.9-13.2 3.9V160s7.1 1.1 12.8-2.5c3.6-4 7.3-8.2 10.7-12.1 4.6-6 9.5-13.2 12.8-22 .7-1.8 1.3-3.9 1.9-6zm-19.8-39.5c-5.5.9-4.6 2.6-7.9 2.1 0 0-.6-1-.8-2.1-.2-1.4.1-3 2.9-3.2 5-.2 16.8-.7 22.8 6.5 0 0-11.5-4.2-17-3.3z"/><path fill="#4A3931" d="M140.5 74.7c-2.8.1-3.2 1.8-2.9 3.2.2 1.1.8 2.1.8 2.1 3.4.5 2.4-1.2 7.9-2.1 5.5-.9 17 3.3 17 3.3-6-7.2-17.7-6.7-22.8-6.5z"/><path fill="#9D4D5E" d="M141.2 128.7c-2.6-.9-2.8-1.5-5.3-3.7-1.3-1.4-3.6-2.1-5.4-1.3-1.2 1-2.5.8-2.5.8v8.1c10.9 0 13.2-3.9 13.2-3.9z"/><path fill="#694E40" d="M147.2 17.7s-9.3-1.3-11.5 1.3c0 0 16.3.6 21.4 5.1H144s20.8 3.8 21.7 9.9c1 6.1 5.1 20.4 9.6 26.2 4.5 5.7 13.1 14 12.1 23.3-.8 8.1-2.4 39.3 2.8 52.4.9 1.5 1.7 2.8 2.1 3.5-.1-.5-.1-.7-.1-.7l6.1 11.2c-1.1-6.2-3.8-31.5-4.4-37.2.8 4.7 6.3 10.7 6.3 10.7-4.2-6-3.8-23.3-3.8-23.3.3 9.9 6.7 14.4 6.7 14.4-4.5-4.2-3.5-12.8-4.5-24.9-1-12.1-20.1-40.3-22.7-47.3-2.6-7-13.5-26.2-24.7-33.9C140 .7 128 5.5 128 5.5v13.4s5.7-6.3 19.2-1.2z"/><path fill="#694E40" d="M178.2 214.4c-6.9.3-15.3-.9-19.1-7.1 0 0 6.5 21.3 22.6 18.8 0 0-26.6 10.4-33.3-16.4-6.3-25.3 8.8-50.4 10.5-53.1-1.3 2.1-11 16.5-21.1 16.5 0 0 18.6-12.1 21.3-25.6 1.2-6.4 9.2-17.8 14.9-32.2-.2 12.8 1.9 19.2 1.9 19.2s-32.7 65.2.9 76.9c-.2-.6-.4-1.2-.6-1.7-2-5.7.4-20.5 2.5-31.1 1.3-6.7 2.6-11.7 2.6-11.7 1.6 3.3 1.6 8.1.9 13-1.4 10-5.7 20.6-5.7 20.6 4.7-3.4 8.3-11.5 11.2-18.6 1.7-4.1 3.1-7.8 4.4-10.1 3.1-5.6.7-27 .1-31.9-.8-1-1.5-2.3-2.2-3.8-3.5-6.1-9.3-16.9-8.8-22.4 0 0-1.8 21.7 3.8 33.8 1.3 2.4 2.3 3.9 2.3 3.9-.9-1.1-1.6-2.4-2.3-3.9-3.2-5.6-8.6-15.9-8.6-22 0-8.6-.6-16-1-29.7-.1-6.4-.9-14.3-2.4-21.9.1 1.9.2 3.9.3 5.8.1 6.2-.2 12.2 0 16.7.2 7.1-2.6 14.3-5.4 20.5-2 4.3-3.9 8.2-4.8 11.3-1.4 4.6-6.1 10.8-11.7 17.4-3.4 4-7.1 8.1-10.7 12.1l-.3.3c-9.6 10.9-10.9 58.8-9.9 79.8.2 4.8 1.1 9.4 2.5 13.8.5 1.5 1 2.9 1.7 4.4 16.3-.8 31.8-4.7 45.9-11.1-2.1-3.5-3.5-6.4-3.5-6.4 2.1 2 4.4 3.6 6.6 5l3.6-1.8c-4.7-4.7-8.9-10.4-11.1-13.5 3.2 3.3 10.1 7.6 15.8 10.9.3-.2.5-.3.8-.5-5.5-6.5-11.3-16.9-14.6-24.2zm-32.5-179c-.6-.1-1.2-.2-1.8-.2-.4.6-.7 1.1-.7 1.1l2.5-.9zm-12.4-1.8l-1.3 2.7c1.8-1.4 4.8-2.9 6.2-3.5l1.3-2.1s-4.5-1.3-11.5 2.6v4.3l5.3-4zm11-.3c.7-.1.3.8-.2 1.6L151 33s-5.8-1.3-12.4 1.6l-.3 1.4c-.1 0 4.7-2.5 6-2.7z"/><path fill="#4A3931" d="M187.4 83.4c1-9.3-7.7-17.6-12.1-23.3-4.5-5.7-8.6-20.1-9.6-26.2-1-6.1-21.7-9.9-21.7-9.9h13.1c-5.1-4.5-21.4-5.1-21.4-5.1 2.2-2.6 11.5-1.3 11.5-1.3-13.4-5.1-19.2 1.3-19.2 1.3v14.4c7-3.8 11.5-2.6 11.5-2.6l-1.3 2.1-1.6 2.7c.6-.4 1.3-.7 1.9-1C145.1 31.7 151 33 151 33l-6.9 1.9-1.1.3h.9c.6 0 1.2.1 1.8.2 7.3 1.2 13 7 19.3 16.1 1.7 2.5 3.2 5.5 4.4 8.9 1.5 4.1 2.7 8.6 3.7 13.3 1.5 7.6 2.3 15.4 2.4 21.9.3 13.7 1 21.1 1 29.7 0 6.1 5.4 16.4 8.6 22-5.5-12.1-3.8-33.8-3.8-33.8-.4 5.6 5.3 16.3 8.8 22.4-5.1-13.1-3.5-44.4-2.7-52.5zm-2.3 63.9c.7 1.4 1.4 2.8 2.3 3.9 0-.1-1-1.6-2.3-3.9zm7.2-7.6c.2.2.3.4.5.6 0 0-.2-.3-.5-.9-.5-.8-1.2-2-2.1-3.5.6 1.5 1.3 2.8 2.1 3.8z"/><path fill="#4A3931" d="M176 134.4s-2.2-6.4-1.9-19.2c-5.7 14.4-13.7 25.8-14.9 32.2-2.6 13.5-21.3 25.6-21.3 25.6 10.1 0 19.8-14.4 21.1-16.5-1.7 2.7-16.8 27.8-10.5 53.1 6.7 26.8 33.3 16.4 33.3 16.4-16.1 2.5-22.6-18.8-22.6-18.8 3.7 6.3 12.1 7.4 19.1 7.1 3.1-.1 5.9-.5 7.8-.8 1.7-.3 2.7-.6 2.7-.6-1.1 0-2.1 0-3.1-.1-3.3-.2-6.2-.8-8.7-1.7-33.8-11.5-1-76.7-1-76.7z"/><path fill="#B49A8E" d="M115.2 157.5l.3.3c9.6 10.9 10.9 58.8 9.9 79.8-.2 4.8-1.1 9.4-2.5 13.8 2 2.2 3.6 3.7 4.4 4.5h.7v-96c0 .1-7.1 1.2-12.8-2.4z"/><path fill="#9F7B73" d="M32.8 206.7l-1.4 2.3-3.4-1.2c1.9 2.4 3.9 4.7 6 7l2.4-5.5-3.6-2.6zm46.9 21.2c-3.2 3.3-10.1 7.6-15.8 10.9 1.6.9 3.1 1.8 4.7 2.6 4.7-4.7 8.9-10.4 11.1-13.5z"/><path fill="#9F7B73" d="M31.3 205.5l1.2-3.8 8.2 6.5 4.1-5 4.7 5 7.2-6.5 4.7 6.5 5.8-6.5 6.4 6.5-3.2 4.8c3.3-.2 6.2-.8 8.7-1.7.2-.6.4-1.2.6-1.7 2-5.7-.4-20.5-2.5-31.1-.6.2-1.9.7-3.5 1.3 1.4 10 5.7 20.6 5.7 20.6-4.7-3.4-8.3-11.5-11.2-18.6-6.5 2.3-14.9 5.1-20.5 6.4-6.6 1.6-15.9 7.2-22.9 15.7.5.6.9 1.3 1.4 1.9l.7-1.9 4.4 1.6z"/><path fill="#9F7B73" d="M77.8 214.4c-3.1-.1-5.9-.5-7.8-.8l-2.5 3.7-5.8-6.5-6.2 6.5-5.6-7.8-4.5 6.6-5.6-6.6-4.3 7.1c8.1 8.4 17.3 15.8 27.5 21.8 5.7-6.3 11.5-16.7 14.8-24zm45.1 37.1c-.5 1.5-1 2.9-1.7 4.4 2 .1 4 .2 6.1.2-.8-.9-2.3-2.5-4.4-4.6zm-44.1-13.2c-2.1 2-4.4 3.6-6.6 5 1 .5 2.1 1 3.1 1.5 2.1-3.6 3.5-6.5 3.5-6.5z"/><path fill="#854448" d="M45.5 216l4.5-6.6 5.6 7.8 6.2-6.5 5.8 6.5 2.5-3.7c-1.7-.3-2.7-.6-2.7-.6 1.1 0 2.1 0 3.1-.1l3.2-4.8-6.4-6.5-5.8 6.5-4.7-6.5-7.2 6.5-4.7-5-4.1 5-8.2-6.5-1.2 3.8-4.3-1.7-.7 1.9c.5.7 1.1 1.4 1.7 2.1l3.4 1.2 1.4-2.3 3.6 2.6-2.4 5.5c.6.6 1.1 1.2 1.7 1.8l4.3-7.1 5.4 6.7z"/><path fill="#1D140F" d="M89.9 117.4c-.5-.2-1.2-.4-1.9-.7 2 4.3 3.9 8.2 4.8 11.3 1.4 4.6 6.1 10.8 11.7 17.4-4.6-6-9.5-13.2-12.8-22-.6-1.8-1.2-3.9-1.8-6zm-4.8-41c0-2.1.7-8.7 1.5-16-1.5 4.1-2.7 8.6-3.7 13.3-.1 1.9-.2 3.9-.3 5.8l2.5-.8v-2.3z"/><path fill="#B49A8E" d="M85.1 78.7l-2.5.8c-.1 6.2.2 12.2 0 16.7-.2 7.1 2.6 14.3 5.4 20.5.7.3 1.3.5 1.9.7-3.3-13-4.5-31.3-4.8-38.7z"/><path fill="#CCAD9F" d="M128 132.6c-10.9 0-13.2-3.9-13.2-3.9 2.6-.9 2.8-1.5 5.3-3.7 1.3-1.4 3.6-2.1 5.4-1.3 1.2 1 2.5.8 2.5.8V37.6l-5.3-4 1.3 2.7c-1.8-1.4-4.8-2.9-6.2-3.5l1.6 2.7c-.6-.4-1.3-.7-1.9-1l.3 1.4s-4.8-2.6-6.1-2.7c-.7-.1-.3.8.2 1.6l1.1.3h-.9c.4.6.7 1.1.7 1.1l-2.6-.9c-7.3 1.2-13 7-19.3 16.1-1.7 2.5-3.2 5.5-4.4 8.9-.8 7.3-1.5 14-1.5 16v2.3c.2 7.3 1.5 25.7 4.8 38.6.6 2.2 1.2 4.2 1.8 6 3.3 8.8 8.2 16.1 12.8 22 3.4 4 7.1 8.1 10.7 12.1 5.7 3.6 12.8 2.5 12.8 2.5v-27.2zM92.7 81.2c6-7.2 17.7-6.7 22.8-6.5 2.8.1 3.2 1.8 2.9 3.2-.2 1.1-.8 2.1-.8 2.1-3.4.5-2.4-1.2-7.9-2.1s-17 3.3-17 3.3z"/><path fill="#392A23" d="M117.6 80s.6-1 .8-2.1c.2-1.4-.1-3-2.9-3.2-5-.2-16.8-.7-22.8 6.5 0 0 11.5-4.2 17-3.3s4.6 2.6 7.9 2.1z"/><path fill="#884251" d="M125.5 123.7c-1.8-.8-4.1-.1-5.4 1.3-2.5 2.2-2.7 2.8-5.3 3.7 0 0 2.3 3.9 13.2 3.9v-8.1s-1.3.2-2.5-.8z"/><path fill="#5A4336" d="M68.6 83.4c-1-9.3-7-29.8 11.4-49.8 8.3-9 23.5-9.7 29.5-9.7l-19-.7c9.2-6.2 29.9-4.3 29.9-4.3-2.2-2.6-14.8-1.3-14.8-1.3 13.4-5.1 22.4 1.3 22.4 1.3V5.5s-15.8.3-31.8 5.5c-12.9 4.2-23.4 23.1-25.9 30.1S58.4 77.5 57.4 89.6c-1 12.1 0 20.7-4.5 24.9 0 0 6.4-4.5 6.7-14.4 0 0 .3 17.3-3.8 23.3 0 0 5.4-6 6.3-10.7-.6 5.6-3.2 31-4.4 37.2l6.1-11.2s0 .3-.1.7c.5-.8 1.2-2 2.1-3.5 5.2-13.1 3.6-44.4 2.8-52.5z"/><path fill="#5A4336" d="M125.4 237.7c1-21.1-.3-69-9.9-79.8l-.3-.3c-3.6-4-7.3-8.2-10.7-12.1-5.6-6.6-10.3-12.7-11.7-17.4-.9-3.1-2.9-7-4.8-11.3-2.8-6.2-5.6-13.3-5.4-20.5.1-4.5-.2-10.5 0-16.7 0-1.9.1-3.9.3-5.8-1.5 7.6-2.3 15.4-2.4 21.9-.3 13.7-1 21.1-1 29.7 0 6.1-5.4 16.4-8.6 22-.7 1.4-1.4 2.8-2.3 3.9 0 0 1-1.5 2.3-3.9 5.5-12.1 3.8-33.8 3.8-33.8.4 5.6-5.3 16.3-8.8 22.4-.6 1.6-1.3 2.9-2.2 3.8-.6 4.9-3 26.2.1 31.9 1.3 2.3 2.7 6.1 4.4 10.1 2.9 7.1 6.6 15.2 11.2 18.6 0 0-4.3-10.6-5.7-20.6-.7-4.9-.6-9.6.9-13 0 0 1.2 5 2.6 11.7 2.1 10.6 4.5 25.4 2.5 31.1-.2.5-.4 1.1-.6 1.7 33.6-11.6.9-76.9.9-76.9s2.2-6.4 1.9-19.2c5.7 14.4 13.7 25.8 14.9 32.2 2.6 13.5 21.3 25.6 21.3 25.6-10.1 0-19.8-14.4-21.1-16.5 1.7 2.7 16.8 27.8 10.5 53.1-6.7 26.8-33.3 16.4-33.3 16.4 16.1 2.5 22.6-18.8 22.6-18.8-3.7 6.3-12.1 7.4-19.1 7.1-3.3 7.3-9.1 17.7-14.7 23.9.3.2.5.3.8.5 5.7-3.3 12.7-7.6 15.8-10.9-2.2 3.1-6.4 8.8-11.1 13.5l3.6 1.8c2.2-1.4 4.5-3 6.6-5 0 0-1.4 2.9-3.5 6.4 14.1 6.4 29.6 10.3 45.9 11.1.6-1.4 1.2-2.9 1.7-4.4 1.6-4.1 2.4-8.7 2.6-13.5zm-8.9-206.9l1.3 2.1c1.4.6 4.5 2.1 6.2 3.5l-1.3-2.7 5.3 4v-4.3c-7-3.9-11.5-2.6-11.5-2.6zm-3.7 5.5s-.4-.5-.7-1.1c-.6 0-1.2.1-1.8.2l2.5.9zM105 33l6.9 1.9c-.5-.8-.8-1.7-.2-1.6 1.3.2 6.1 2.7 6.1 2.7l-.3-1.4C110.9 31.7 105 33 105 33z"/><path fill="#392A23" d="M91 51.5c6.3-9.1 12-14.9 19.3-16.1.6-.1 1.2-.2 1.8-.2h.9l-1.1-.3L105 33s5.8-1.3 12.4 1.6c.6.3 1.3.6 1.9 1l-1.6-2.7-1.3-2.1s4.5-1.3 11.5 2.6V18.9s-9-6.4-22.4-1.3c0 0 12.5-1.3 14.8 1.3 0 0-20.7-1.9-29.9 4.3l19 .7c-6-.1-21.2.7-29.5 9.7-18.5 20-12.4 40.6-11.4 49.8.8 8.1 2.4 39.3-2.8 52.4 3.5-6.1 9.3-16.9 8.8-22.4 0 0 1.8 21.7-3.8 33.8 3.2-5.6 8.6-15.9 8.6-22 0-8.6.6-16 1-29.7.1-6.4.9-14.3 2.4-21.9.9-4.7 2.2-9.3 3.7-13.3 1.4-3.3 2.9-6.3 4.6-8.8zm-20.1 95.8c-1.3 2.4-2.3 3.9-2.3 3.9.9-1.2 1.6-2.5 2.3-3.9z"/><path fill="#392A23" d="M63.7 139.4c-.3.6-.5.9-.5.9.2-.2.3-.4.5-.6.8-1 1.5-2.3 2.2-3.8-.9 1.5-1.7 2.7-2.2 3.5zm3.6 73.6s1 .3 2.7.6c1.9.3 4.7.7 7.8.8 6.9.3 15.3-.9 19.1-7.1 0 0-6.5 21.3-22.6 18.8 0 0 26.6 10.4 33.3-16.4 6.3-25.3-8.8-50.4-10.5-53.1 1.3 2.1 11 16.5 21.1 16.5 0 0-18.6-12.1-21.3-25.6-1.2-6.4-9.2-17.8-14.9-32.2.2 12.8-1.9 19.2-1.9 19.2s32.7 65.2-.9 76.9c-2.5.9-5.4 1.4-8.7 1.7-1.1-.1-2.1-.1-3.2-.1z"/></svg>