<svg xmlns="http://www.w3.org/2000/svg" width="256" height="256"><circle fill="#B1B3B5" cx="128" cy="128" r="128"/><path fill="#355D72" d="M128 219.6v-12.8c-14-7.8-33.2-9.9-41.3-10.5 5.2 7.2 19.5 23.3 41.3 23.3z"/><path fill="#302D2F" d="M82.2 200.2c-4.1 5.7-7.9 11.5-8.8 14.4 0 0-5.5-31.2-4.9-37.8 0 0 2.3-3.1 6.2-6.6-17.8 4.6-45.2 12.3-59.1 19.2C37.3 229.1 79.5 256 128 256v-30s-27.5 2.2-45.8-25.8z"/><path fill="#B17D6B" d="M109.5 188.3l-3-2.8c12.2 11.6 21.5 10.1 21.5 10.1v-18.9s-18.7 2.6-31.6-24.2c-1.2-2.6-2.3-4.9-3.3-6.9 0 3.5-.3 9.1-1.4 14.9.5 3 3.6 16.6 17.8 27.8zM82.6 107c-2.2-3.5-1.4-6-1.4-8.4 0-3.1-.7-4.8-2.4-6.7-1.3-1.5-1.7-5.4-1.9-7.2-2.2-.8-4.7-1.3-6-.4-2.9 1.9 1.2 5.3 1.4 7.4.2 2.2 3 9.6 3.4 11.7.4 2.2-.1 7.4 3.5 12.2 0 3 0 9.6 5.7 9.2-.1-1-.3-2.1-.6-3.7-.6-4.1-1.3-9.1-1.7-14.1z"/><path fill="#C08C76" d="M128 176.7V78.4s-16.5.2-30.7-6.5c0 0 16.9 4.5 30.7 4.5v-3s-16.5.2-30.7-6.5c0 0 16.9 4.5 30.7 4.5v-4.2s-16.5.2-30.7-6.5c0 0 16.9 4.5 30.7 4.5V49.3c-2.5.7-12.8-1.4-12.8-1.4s2.2 2.6-2.2 1c-4.3-1.7-14.6-5.3-19.2-4.1-4.6 1.2-8.4 14.7-8.4 14.7l1.2 4-.2 3.4-.7 3.1 2.2.7-.5 1.9 2.4-.5s-1.4 2.4-2.2 4.1-.5 11.5-1.9 18.4c-1.4 6.9 0 16 0 16-1.4-1.3-2.4-2.5-3.1-3.6.4 5 1.1 10 1.8 14.2.3 1.6.4 2.7.6 3.7.5 3.6.9 5.7 8.1 20.7 1 2.1 2.1 4.3 3.3 6.9 12.9 26.9 31.6 24.2 31.6 24.2zM98.2 87.9v-1l2.4-.2v-1.3s.8.5 3.4 1.1c2.6.6 9.3 1.6 11.8 2.2 2.6.6 7.8 6.4 7.8 6.4-1.1 1-12.6-3.7-16-4-3.4-.2-12.6.9-12.6.9h-1.1l-.8-1.7-1.4-1.5 6.5-.9z"/><path fill="#352823" d="M81.2 98.7c0 2.4-.8 4.9 1.4 8.4.7 1.1 1.7 2.3 3.1 3.6 0 0-1.4-9.1 0-16s1.2-16.8 1.9-18.4 2.2-4.1 2.2-4.1l-2.4.5.5-1.9-2.2-.7.7-3.1.2-3.4-1.2-4s3.8-13.5 8.4-14.7c4.6-1.2 14.8 2.4 19.2 4.1 4.3 1.7 2.2-1 2.2-1s10.3 2.2 12.8 1.4v-41s-24.1.7-30.5 3.1l3.8 1.2S91 16.3 87.6 19.4s-9.1 9.5-9.1 9.5h3.4S74.2 46.3 74.7 53c.5 6.7 1.9 23.5 1 27.3l-1 3.8 2.2-.2s0 .4.1.9c.1 1.8.6 5.8 1.9 7.2 1.6 1.9 2.3 3.5 2.3 6.7z"/><path fill="#352823" d="M93.9 92H95s9.3-1.1 12.6-.8c3.4.3 14.8 4.9 16 4 0 0-5.3-5.7-7.8-6.4-2.6-.6-9.3-1.6-11.8-2.2-2.6-.6-3.4-1.1-3.4-1.1v1.3l-2.4.2v1l-6.5 1 1.4 1.5.8 1.5z"/><path fill="#263F59" d="M128 206.8s-24.5-16.8-34.6-21.2c0 0-3.5 4.3-7.5 9.6.2.3.5.7.8 1.1 8.1.6 27.3 2.7 41.3 10.5z"/><path fill="#3E3E3F" d="M86.7 196.3c-.3-.4-.5-.8-.8-1.1-1.2 1.6-2.5 3.3-3.7 5 18.3 28 45.8 25.8 45.8 25.8v-6.4c-21.8 0-36.1-16.1-41.3-23.3z"/><path fill="#3E6980" d="M68.5 176.8c-.6 6.6 4.9 37.8 4.9 37.8.8-2.9 4.7-8.7 8.8-14.4 1.2-1.7 2.5-3.4 3.7-5 4.1-5.4 7.5-9.6 7.5-9.6 10.1 4.5 34.6 21.2 34.6 21.2v-1.1l-18.5-17.4c-14.3-11.2-17.3-24.9-17.8-27.8-.1-.4-.1-.6-.1-.6-6.8 1.9-12.7 6.3-16.9 10.1-3.8 3.7-6.2 6.8-6.2 6.8z"/><path fill="#304B69" d="M128 198.3v-2.7s-9.2 1.5-21.5-10.1l3 2.8 18.5 17.4v-7.4z"/><path fill="#AD7F6A" d="M97.3 72c14.2 6.7 30.7 6.5 30.7 6.5v-2c-13.7-.1-30.7-4.5-30.7-4.5zm0-5c14.2 6.7 30.7 6.5 30.7 6.5v-2c-13.7-.1-30.7-4.5-30.7-4.5zm0-6.2c14.2 6.7 30.7 6.5 30.7 6.5v-2c-13.7-.1-30.7-4.5-30.7-4.5z"/><path fill="#3E6980" d="M169.3 196.3c-8.1.6-27.3 2.7-41.3 10.5v12.8c21.8 0 36.1-16.1 41.3-23.3z"/><path fill="#383638" d="M187.5 176.8c.6 6.6-4.9 37.8-4.9 37.8-.8-2.9-4.7-8.7-8.8-14.4-18.3 28-45.8 25.8-45.8 25.8v30c48.5 0 90.7-26.9 112.4-66.7-13.9-6.9-41.3-14.6-59.1-19.2 3.8 3.6 6.2 6.7 6.2 6.7z"/><path fill="#C08C76" d="M128 176.7v18.9s9.2 1.5 21.5-10.1l-3 2.8c14.3-11.2 17.3-24.9 17.8-27.8-1.1-5.8-1.3-11.4-1.4-14.9-1 2.1-2.1 4.3-3.3 6.9-12.9 26.9-31.6 24.2-31.6 24.2zm46.8-78c0 2.4.8 4.9-1.4 8.4-.4 5-1.1 10-1.8 14.2-.3 1.6-.4 2.7-.6 3.7 5.7.4 5.7-6.2 5.7-9.2 3.6-4.8 3.1-10.1 3.5-12.2.4-2.2 3.2-9.6 3.4-11.7.2-2.2 4.3-5.5 1.4-7.4-1.3-.9-3.8-.4-6 .4-.1 1.8-.6 5.8-1.9 7.2-1.6 1.8-2.3 3.4-2.3 6.6z"/><path fill="#D7A990" d="M173.4 107c-.7 1.1-1.7 2.3-3.1 3.6 0 0 1.4-9.1 0-16s-1.2-16.8-1.9-18.4-2.2-4.1-2.2-4.1l2.4.5-.5-1.9 2.2-.7-.7-3.1-.2-3.4 1.2-4s-3.8-13.5-8.4-14.7c-4.6-1.2-14.8 2.4-19.2 4.1-4.3 1.7-2.2-1-2.2-1S130.5 50 128 49.3v15.9c13.7 0 30.7-4.5 30.7-4.5-14.2 6.7-30.7 6.5-30.7 6.5v4.2c13.7 0 30.7-4.5 30.7-4.5-14.2 6.7-30.7 6.5-30.7 6.5v3c13.7 0 30.7-4.5 30.7-4.5-14.2 6.7-30.7 6.5-30.7 6.5v98.3s18.7 2.6 31.6-24.2c1.2-2.6 2.3-4.9 3.3-6.9 7.2-15.1 7.6-17.2 8.1-20.7.1-1 .3-2.1.6-3.7.7-4.2 1.4-9.2 1.8-14.2zm-10.5-16.6l-.8 1.7H161s-9.3-1.1-12.6-.8c-3.4.3-14.8 4.9-16 4 0 0 5.3-5.7 7.8-6.4 2.6-.6 9.3-1.6 11.8-2.2 2.6-.6 3.4-1.1 3.4-1.1v1.3l2.4.2v1l6.5 1-1.4 1.3z"/><path fill="#3A2D28" d="M128 49.3c2.5.7 12.8-1.4 12.8-1.4s-2.2 2.6 2.2 1c4.3-1.7 14.6-5.3 19.2-4.1 4.6 1.2 8.4 14.7 8.4 14.7l-1.2 4 .2 3.4.7 3.1-2.2.7.5 1.9-2.4-.5s1.4 2.4 2.2 4.1.5 11.5 1.9 18.4c1.4 6.9 0 16 0 16 1.4-1.3 2.4-2.5 3.1-3.6 2.2-3.5 1.4-6 1.4-8.4 0-3.1.7-4.8 2.4-6.7 1.3-1.5 1.7-5.4 1.9-7.2 0-.6.1-.9.1-.9l2.2.2-1-3.8c-1-3.8.5-20.6 1-27.3.5-6.7-7.2-24.1-7.2-24.1h3.4s-5.7-6.3-9.1-9.5-13.7-6.7-13.7-6.7l3.8-1.2c-6.5-2.3-30.6-3-30.6-3v40.9z"/><path fill="#3A2D28" d="M157.8 86.9l-2.4-.2v-1.3s-.8.5-3.4 1.1c-2.6.6-9.3 1.6-11.8 2.2-2.6.6-7.8 6.4-7.8 6.4 1.1 1 12.6-3.7 16-4 3.4-.2 12.6.9 12.6.9h1.1l.8-1.7 1.4-1.5-6.5-1v-.9z"/><path fill="#2C4662" d="M170.1 195.2c-4.1-5.4-7.5-9.6-7.5-9.6-10.1 4.5-34.6 21.2-34.6 21.2 14-7.8 33.2-9.9 41.3-10.5.3-.4.6-.7.8-1.1z"/><path fill="#434345" d="M170.1 195.2c-.2.3-.5.7-.8 1.1-5.3 7.2-19.5 23.3-41.3 23.3v6.4s27.5 2.3 45.8-25.8c-1.3-1.7-2.5-3.4-3.7-5z"/><path fill="#477791" d="M146.5 188.3L128 205.7v1.1s24.5-16.8 34.6-21.2c0 0 3.5 4.3 7.5 9.6 1.2 1.6 2.5 3.3 3.7 5 4.1 5.7 7.9 11.5 8.8 14.4 0 0 5.5-31.2 4.9-37.8 0 0-2.3-3.1-6.2-6.6-4.2-3.8-10.1-8.3-16.9-10.1 0 0 0 .2-.1.6-.5 2.8-3.6 16.4-17.8 27.6z"/><path fill="#365474" d="M146.5 188.3l3-2.8c-12.2 11.6-21.5 10.1-21.5 10.1v10.1l18.5-17.4z"/><path fill="#C79884" d="M158.7 72s-16.9 4.5-30.7 4.5v2c0-.1 16.5.2 30.7-6.5zm0-5s-16.9 4.5-30.7 4.5v2c0-.1 16.5.2 30.7-6.5zm0-6.2s-16.9 4.5-30.7 4.5v2s16.5.2 30.7-6.5z"/></svg>