<svg xmlns="http://www.w3.org/2000/svg" width="256" height="256"><circle fill="#B1B3B5" cx="128" cy="128" r="128"/><path fill="#808C80" d="M139.5 227.6s0-.4-.4-1c.6 2 1.7 5.4 2.9 9.4 4.4-6.2 9.3-11.7 14-16.6l-8.8-8.8c-2.2 7-5.1 14.5-7.7 17z"/><path fill="#C08C76" d="M128 176.8v20.8h6.2l-.4-.4c1-3.4 18-12.7 28.3-20.4 8.7-6.5 12.3-16.5 13.2-19.5-.8-1.6-1.8-3.2-2.9-4.8l.4-1.6c-1.4 4.1-3.6 6.8-7.2 11.5-6.5 8.4-37.6 14.4-37.6 14.4z"/><path fill="#29282E" d="M138.4 17.7l-3.8 5.5s7.7-6.2 14-6.8l-3 2.7s8.1-.5 16.8 6.1c8.6 6.5 12.1 10.7 12.3 15.6 0 0 6.1 9.4 7.3 12.6l2.6 4-5.1-1.6s5.1 7.5 5.6 10.4c.5 2.9-1.4 10.5 0 12.8 1.1 1.7 2.6 8 3.2 10.8.6.2 1.2.5 1.6 1.1 0 .1.1.1.1.2-.3-3.8-1.1-8.6-1.1-8.6 1.2-2.6.7-8.9 1.2-10.1.5-1.2-2.2-2.9-2.2-2.9l2.2-1.5c-2.2-2.7-7.4-18.6-7.9-21-.5-2.4-6.7-13.2-7.7-14.4l-7.4-8.1 3.1-1.3c-4.1-.1-7.9-3.7-7.9-3.7h1.9c-4.3-2.4-12.7-6.7-12.7-6.7l1.7-1.4c-5-3.4-25.1-3-25.1-3V21c-.1 0 2.8-1.2 10.3-3.3z"/><path fill="#C08C76" d="M188.2 89.8c.2.9.3 1.5.3 1.5s-4.8-.6-4.8.8 1.3 4.8 1.3 4.8-3.5-3.5-3.7-1c-.1 1.5-1.1 3.8-1.9 5.4-.4 2.9-.8 5.7-1.1 8.2-1.6 11.5-2.6 14.4-3.5 28.4 0 .5-.1 1-.1 1.5 5 3.6 8.4-4.3 8.4-6.6 0-2.6.5-7.7 1.9-10.5 1.4-2.9 3.6-6.7 2.9-10.3-.7-3.6.7-6.7 1.9-10.3 1.2-3.5 3.5-5.9.1-10.6 0-.1-.1-.1-.1-.2-.4-.6-1-.9-1.6-1.1z"/><path fill="#D7A990" d="M178.3 109.5c.3-2.5.7-5.3 1.1-8.2-.5 1.1-1 1.8-1 1.8s-1.3-5.4-2.2-7.7.6-15.3-.6-18.5c-1.3-3.2-3.4-10.2-3.4-10.2l2.4 1.4s-1.1-8.7-2.7-11.9-4.6-15.6-7.8-18-5.4-8.1-9.7-6.1c-4.3 2.1-10.4 4.3-10.4 4.3s1.3-1.9.8-1.8c-.5.2-5.4 2.2-5.4 2.2l.3-1.8s-7.8 3.4-11.7 3v17c28.7-.4 38.1 6.9 38.1 6.9-23.5-5.3-38.1-4.5-38.1-4.5v4.5c19 0 34.2 6.2 34.2 6.2-23.9-6.2-34.2-4-34.2-4v112.7s31.1-6 37.5-14.3c3.6-4.7 5.8-7.5 7.2-11.5l1.1-4.3c.4-2 .7-4.4.9-7.3 0-.5.1-1 .1-1.5.9-14.1 1.9-16.9 3.5-28.4zm-40.1-21.6c-1.6-.7-2.1-4.1-2.1-4.1 1 3 7 2.4 7 2.4l-1.9-.3s8.1-3.4 13.7-3.4 10.7 4.9 10.7 4.9h-1.1l3.5 1.4-1.9.7s8.5 6.4 1.9 2.3c-6.5-4.2-16.4-4.5-21.4-3.2-4.9 1.3-10.5-1.3-10.5-1.3s3.7 1.3 2.1.6z"/><path fill="#C08C76" d="M166.1 61.9s-9.3-7.3-38.1-6.9v2.4s14.6-.8 38.1 4.5zm-3.9 6.2S147 61.9 128 61.9v2.2s10.3-2.2 34.2 4z"/><path fill="#313137" d="M136.1 87.4s5.6 2.6 10.5 1.3 14.8-1 21.4 3.2c6.5 4.2-1.9-2.3-1.9-2.3l1.9-.7-3.5-1.4h1.1s-5.1-4.9-10.7-4.9-13.7 3.4-13.7 3.4l1.9.3s-6.1.6-7-2.4c0 0 .5 3.4 2.1 4.1 1.6.6-2.1-.6-2.1-.6z"/><path fill="#46454D" d="M139.7 35.1l-.3 1.8s4.9-2.1 5.4-2.2c.5-.2-.8 1.8-.8 1.8s6.1-2.2 10.4-4.3c4.3-2.1 6.5 3.7 9.7 6.1s6.2 14.8 7.8 18 2.7 11.9 2.7 11.9l-2.4-1.4s2.1 7 3.4 10.2c1.3 3.2-.3 16.3.6 18.5s2.2 7.7 2.2 7.7.4-.8 1-1.8c.8-1.6 1.8-3.8 1.9-5.4.2-2.6 3.7 1 3.7 1s-1.3-3.4-1.3-4.8 4.8-.8 4.8-.8-.1-.6-.3-1.5c-.6-2.9-2.1-9.1-3.2-10.8-1.4-2.2.5-9.9 0-12.8-.5-2.9-5.6-10.4-5.6-10.4l5.1 1.6-2.6-4c-1.3-3.2-7.3-12.6-7.3-12.6-.2-4.9-3.7-9.1-12.3-15.6-8.6-6.5-16.8-6.1-16.8-6.1l3-2.7c-6.4.6-14 6.8-14 6.8l3.8-5.5c-7.4 2-10.3 3.2-10.3 3.2v17.1c3.8.3 11.7-3 11.7-3z"/><path fill="#323E2F" d="M139.1 226.7c-.8-1.2-3.4-3.1-11.1-3.3V256h3.4c2.5-7.2 6.3-13.9 10.6-19.9-1.3-4.1-2.3-7.5-2.9-9.4z"/><path fill="#424F3E" d="M147.3 210.7l-13-13H128v25.6c7.7.2 10.3 2.1 11.1 3.3.4.6.4 1 .4 1 2.6-2.5 5.5-10 7.8-16.9z"/><path fill="#A5B1A0" d="M162.1 176.9c-10.3 7.7-27.3 17-28.3 20.4l.4.4 13 13 8.8 8.8c3.7-3.8 7.2-7.3 10.3-10.3 6.4-6.4 9.9-15.5 11.8-23.4 1.5-6.8 2.4-17.9-2.9-28.3-.9 2.8-4.4 12.9-13.1 19.4z"/><path fill="#38453C" d="M205.4 182.9s7 16.3 5.9 23c-1.1 6.7-4 15.8-4 15.8s-9.8-8.4-23-10.2c-.4 10.9-3.9 29.5-3.9 29.5s-8.6-6.4-23.9-4.8c-7.5.8-14.5 10.1-19.6 19.4 43.3-2.9 80.7-27.5 101.6-62.9-4.9-1.5-9.9-2.9-12.9-3.1-7.4-.6-20.2-6.7-20.2-6.7z"/><path fill="#47564C" d="M156.4 236.2c15.3-1.6 23.9 4.8 23.9 4.8s3.5-18.6 3.9-29.5l-8.2-19.1s1.1-2.6 2-6.8c-1.9 8-5.4 17-11.8 23.4-3.1 3.1-6.6 6.5-10.3 10.3-4.7 4.9-9.6 10.4-14 16.6-4.3 6-8.1 12.7-10.6 19.9 1.8 0 3.6-.1 5.4-.3 5.3-9.1 12.2-18.5 19.7-19.3z"/><path fill="#202C20" d="M173.8 146.7l-1.1 4.3-.4 1.6c1.1 1.6 2.1 3.2 2.9 4.8 5.3 10.4 4.3 21.5 2.9 28.3-.9 4.2-2 6.8-2 6.8l8.2 19.1c13.2 1.8 23 10.2 23 10.2s2.9-9.1 4-15.8c1.1-6.7-5.9-23-5.9-23s12.8 6.1 20.1 6.7c3 .3 8 1.6 12.9 3.1.4-.7.9-1.5 1.3-2.2-15.8-6.9-39.8-14.8-43.5-16.9-5.2-2.9-22.4-27-22.4-27z"/><path fill="#6C776C" d="M108.7 210.7l-8.8 8.8c4.7 4.9 9.6 10.4 14 16.6 1.3-4 2.3-7.4 2.9-9.4-.4.6-.4 1-.4 1-2.5-2.6-5.4-10.1-7.7-17z"/><path fill="#B17D6B" d="M93.9 176.9c10.3 7.7 27.3 17 28.3 20.4l-.4.4h6.2v-20.8s-31.1-6-37.5-14.3c-3.6-4.7-5.8-7.5-7.2-11.5l.4 1.6c-1.1 1.6-2.1 3.2-2.9 4.8.9 2.8 4.4 12.9 13.1 19.4z"/><path fill="#17161C" d="M67.8 89.8c.6-2.9 2.1-9.1 3.2-10.8 1.4-2.2-.5-9.9 0-12.8.5-2.9 5.6-10.4 5.6-10.4l-5.1 1.6 2.6-4c1.3-3.2 7.3-12.6 7.3-12.6.2-4.9 3.7-9.1 12.3-15.6 8.6-6.5 16.8-6.1 16.8-6.1l-3-2.7c6.4.6 14 6.8 14 6.8l-3.8-5.5C125.1 19.8 128 21 128 21V8.4s-20.1-.4-25.1 3l1.7 1.4s-8.4 4.3-12.7 6.7h1.9s-3.8 3.6-7.9 3.7l3.1 1.3-7.4 8.1c-1 1.2-7.2 12-7.7 14.4-.5 2.4-5.7 18.3-7.9 21l2.2 1.5s-2.6 1.7-2.2 2.9c.5 1.2 0 7.4 1.2 10.1 0 0-.8 4.8-1.1 8.6 0-.1.1-.1.1-.2.4-.6 1-.9 1.6-1.1z"/><path fill="#B17D6B" d="M77.7 109.5c-.3-2.5-.7-5.3-1.1-8.2-.8-1.6-1.8-3.8-1.9-5.4-.2-2.6-3.7 1-3.7 1s1.3-3.4 1.3-4.8-4.8-.8-4.8-.8.1-.6.3-1.5c-.6.2-1.2.5-1.6 1.1 0 .1-.1.1-.1.2-3.4 4.7-1 7 .1 10.6 1.2 3.6 2.6 6.7 1.9 10.3-.7 3.6 1.4 7.4 2.9 10.3 1.4 2.9 1.9 7.9 1.9 10.5 0 2.3 3.4 10.2 8.4 6.6 0-.5-.1-1-.1-1.5-.9-14.1-1.9-16.9-3.5-28.4z"/><path fill="#C08C76" d="M83.3 151c1.4 4.1 3.6 6.8 7.2 11.5 6.4 8.3 37.5 14.3 37.5 14.3V64.1s-10.3-2.2-34.2 4c0 0 15.2-6.2 34.2-6.2v-4.5s-14.6-.8-38.1 4.5c0 0 9.3-7.3 38.1-6.9V38.1c-3.8.3-11.7-3-11.7-3l.3 1.8s-4.9-2.1-5.4-2.2c-.5-.2.8 1.8.8 1.8s-6.1-2.2-10.4-4.3c-4.3-2.1-6.5 3.7-9.7 6.1s-6.2 14.8-7.8 18-2.7 11.9-2.7 11.9l2.4-1.4s-2.1 7-3.4 10.2c-1.3 3.2.3 16.3-.6 18.5s-2.2 7.7-2.2 7.7-.4-.8-1-1.8c.4 2.9.8 5.7 1.1 8.2 1.6 11.5 2.6 14.4 3.5 28.4 0 .5.1 1 .1 1.5.2 2.9.5 5.3.9 7.3l1.1 4.2zm6.5-61.4l-1.9-.7 3.5-1.4h-1.1s5.1-4.9 10.7-4.9 13.7 3.4 13.7 3.4l-1.9.3s6.1.6 7-2.4c0 0-.5 3.4-2.1 4.1-1.6.7 2.1-.5 2.1-.5s-5.6 2.6-10.5 1.3-14.8-1-21.4 3.2c-6.5 4.1 1.9-2.4 1.9-2.4z"/><path fill="#A57965" d="M89.9 61.9c23.5-5.3 38.1-4.5 38.1-4.5V55c-28.7-.4-38.1 6.9-38.1 6.9zm3.9 6.2c23.9-6.2 34.2-4 34.2-4v-2.2c-19 0-34.2 6.2-34.2 6.2z"/><path fill="#24242A" d="M87.9 91.9c6.5-4.2 16.4-4.5 21.4-3.2 4.9 1.3 10.5-1.3 10.5-1.3s-3.7 1.2-2.1.5 2.1-4.1 2.1-4.1c-1 3-7 2.4-7 2.4l1.9-.3s-8.1-3.4-13.7-3.4-10.7 4.9-10.7 4.9h1.1l-3.5 1.4 1.9.7c0 .1-8.4 6.6-1.9 2.4z"/><path fill="#29282E" d="M128 21s-2.9-1.3-10.4-3.4l3.8 5.5s-7.7-6.2-14-6.8l3 2.7s-8.1-.5-16.8 6.1C85 31.6 81.5 35.8 81.3 40.7c0 0-6.1 9.4-7.3 12.6l-2.6 4 5.1-1.6s-5.1 7.5-5.6 10.4c-.5 2.9 1.4 10.5 0 12.8-1.1 1.7-2.6 8-3.2 10.8-.2.9-.3 1.5-.3 1.5s4.8-.6 4.8.8-1.3 4.8-1.3 4.8 3.5-3.5 3.7-1c.1 1.5 1.1 3.8 1.9 5.4.5 1.1 1 1.8 1 1.8s1.3-5.4 2.2-7.7-.6-15.3.6-18.5c1.3-3.2 3.4-10.2 3.4-10.2L81.3 68s1.1-8.7 2.7-11.9 4.6-15.6 7.8-18 5.4-8.1 9.7-6.1c4.3 2.1 10.4 4.3 10.4 4.3s-1.3-1.9-.8-1.8c.5.2 5.4 2.2 5.4 2.2l-.3-1.8s7.8 3.4 11.7 3V21z"/><path fill="#253123" d="M116.9 226.7c-.6 2-1.7 5.4-2.9 9.4 4.3 6 8.1 12.7 10.6 19.9h3.4v-32.7c-7.7.2-10.3 2.2-11.1 3.4z"/><path fill="#323E2F" d="M128 205.9v-8.3h-6.2l-13 13c2.2 6.9 5.1 14.5 7.8 17 0 0 0-.4.4-1 .8-1.2 3.4-3.1 11.1-3.3v-17.4z"/><path fill="#808C80" d="M121.8 197.6l.4-.4c-1-3.4-18-12.7-28.3-20.4-8.7-6.5-12.3-16.5-13.2-19.5-5.3 10.4-4.3 21.5-2.9 28.3 1.9 8 5.4 17 11.8 23.4 3.1 3.1 6.6 6.5 10.3 10.3l8.8-8.8 13.1-12.9z"/><path fill="#29342E" d="M99.6 236.2c-15.3-1.6-23.9 4.8-23.9 4.8s-3.5-18.6-3.9-29.5c-13.2 1.8-23 10.2-23 10.2s-2.9-9.1-4-15.8c-1.1-6.7 5.9-23 5.9-23s-12.8 6.1-20.1 6.7c-3 .3-8 1.6-12.9 3.1 20.8 35.4 58.2 59.9 101.6 62.9-5.3-9.2-12.2-18.6-19.7-19.4z"/><path fill="#38453C" d="M100 219.4c-3.7-3.8-7.2-7.3-10.3-10.3-6.4-6.4-9.9-15.5-11.8-23.4.9 4.2 2 6.8 2 6.8l-8.2 19.1c.4 10.9 3.9 29.5 3.9 29.5s8.6-6.4 23.9-4.8c7.5.8 14.5 10.1 19.6 19.4l5.4.3c-2.5-7.2-6.3-13.9-10.6-19.9-4.3-6.2-9.2-11.8-13.9-16.7z"/><path fill="#152115" d="M50.6 182.9s-7 16.3-5.9 23c1.1 6.7 4 15.8 4 15.8s9.8-8.4 23-10.2l8.2-19.1s-1.1-2.6-2-6.8c-1.5-6.8-2.4-17.9 2.9-28.3.8-1.6 1.8-3.2 2.9-4.8l-.4-1.6-1.1-4.3s-17.2 24.1-22.3 27c-3.7 2.1-27.7 10-43.5 16.9.4.7.8 1.5 1.3 2.2 4.9-1.5 9.9-2.9 12.9-3.1 7.2-.6 20-6.7 20-6.7z"/></svg>