<svg xmlns="http://www.w3.org/2000/svg" width="256" height="256"><circle fill="#B1B3B5" cx="128" cy="128" r="128"/><path fill="#8B8480" d="M99.8 237.7s-9.6-15.5-15.8-26c-5.5-9.3-8-18.5-7.6-24.7-.5.8-1 1.6-1.6 2.4-5.1 6.4-5.9 14.2-9.1 23.5-1 2.8 0 13.9 1.8 28 14.3 7.7 30.2 12.8 47.1 14.5-.8-13.6-2-26.2-3.9-33.7-3.6 6.3-7.7 12.9-10.9 16z"/><path fill="#746F6C" d="M124.4 231.1c0-2 1.6-3.6 3.6-3.6v-11.4c-4.8 0-9.6-1-13.7-2.3-1 2.4-2.3 5.1-3.8 7.8 1.9 7.5 3.1 20 3.9 33.7 4.5.5 9 .7 13.6.7v-21.2c-2 0-3.6-1.7-3.6-3.7z"/><path fill="#886553" d="M87.6 167.8v1.3c.2 4.8.4 9.8.6 14.5v.1c.5.7 1.1 1.4 1.8 2 5.9 5.1 14.2 9.5 21.9 12.2 2.9.9 6 1.7 8.6 2.4.5.1.9.2 1.4.2 0 0-.1 0-.2.1 3.6.9 6.3 1.5 6.3 1.5v-22.8c-7.4 0-12.1-2.1-12.1-2.1s-1.8-.3-3.5-1.3c-1.2-.6-2.3-1.6-3-2.1-7.1-2.4-14.6-6.9-19.4-15.4-1.2-2.1-2.2-4.2-3.2-6.3.2 3.1.4 7.4.6 12.3 0 0 .1 1.4.2 3.4z"/><path fill="#23180B" d="M128 209.4V202s-2.6-.6-6.3-1.5c-.9.2-4.2 1.5-5.1 6.5-.3 1.5-1.1 3.9-2.4 6.8 4.1 1.3 8.8 2.3 13.7 2.3v-6.7zm-7.4-9.2c-2.7-.7-5.7-1.5-8.6-2.4 3 1.1 5.9 1.9 8.6 2.4z"/><path fill="#3F3129" d="M76.3 186.9c-.3 6.2 2.2 15.5 7.6 24.7 6.2 10.5 15.8 26 15.8 26 3.2-3.1 7.4-9.6 10.8-16.1 1.4-2.7 2.7-5.4 3.8-7.8 1.2-2.9 2.1-5.3 2.4-6.8.8-5 4.2-6.3 5.1-6.5.1 0 .2-.1.2-.1-.5-.1-.9-.2-1.4-.2-2.7-.5-5.6-1.3-8.6-2.4-7.7-2.7-16-7.1-21.9-12.2-.7-.6-1.3-1.3-1.8-2 0 0-4.5-4.9-4.4-8.9.2-4.1 3.7-6.9 3.7-6.9-.1-2-.2-3.4-.2-3.4-4 1.8-6.8 3-7 7 0 .3 0 .5-.1.8.2.1.4.1.7.2.1.1-.9 8.3-4.7 14.6zm11.3-19.1z"/><path fill="#23180B" d="M87.6 169.1v-1.3s-3.6 2.9-3.7 6.9c-.2 4.1 4.4 8.9 4.4 8.9v-.1l-.7-14.4z"/><path fill="#232121" d="M65.6 212.8c3.2-9.3 4-17.1 9.1-23.5.6-.7 1.1-1.5 1.6-2.4 3.8-6.3 4.8-14.6 4.8-14.6-.2 0-.5-.1-.7-.2-3.9-.9-2.3-1.6-10.2 6.9-8.3 9-25.6 11.9-43.4 15.4-2.5.5-4.8 1.1-6.9 1.9 11.7 18.7 28.1 34 47.4 44.4-1.8-14-2.7-25.1-1.7-27.9z"/><path fill="#3F3129" d="M124.4 231.1c0 2 1.6 3.6 3.6 3.6v-7.2c-2 0-3.6 1.6-3.6 3.6z"/><path fill="#A49E9B" d="M190.4 212.8c-3.2-9.3-4-17.1-9.1-23.5-.6-.7-1.1-1.5-1.6-2.4.3 6.2-2.2 15.5-7.6 24.7-6.2 10.5-15.8 26-15.8 26-3.2-3.1-7.4-9.6-10.8-16.1-1.9 7.5-3.1 20-3.9 33.7 16.9-1.8 32.8-6.8 47.1-14.5 1.8-14 2.7-25.1 1.7-27.9z"/><path fill="#8B8480" d="M141.7 213.8c-4.1 1.3-8.8 2.3-13.7 2.3v11.4c2 0 3.6 1.6 3.6 3.6s-1.6 3.6-3.6 3.6V256c4.6 0 9.1-.2 13.6-.7.8-13.6 2-26.2 3.9-33.7-1.5-2.7-2.8-5.4-3.8-7.8z"/><path fill="#9C7360" d="M146.6 173.7c-.7.5-1.8 1.5-3 2.1-1.8 1-3.5 1.3-3.5 1.3s-4.7 2.1-12.1 2.1V202s2.6-.6 6.3-1.5c-.1 0-.2-.1-.2-.1.5-.1.9-.2 1.4-.2 2.7-.7 5.7-1.5 8.6-2.4 7.7-2.7 16-7.1 21.9-12.2.7-.6 1.3-1.3 1.8-2v-.1c.2-4.7.4-9.7.6-14.5l.1-1.3c.1-2 .2-3.4.2-3.4.2-4.9.4-9.2.6-12.3-.9 2-2 4.1-3.2 6.3-4.8 8.5-12.4 13-19.5 15.4z"/><path fill="#554F5A" d="M172.5 33s5.9 5.1 9.8 16.3c-.2-1.1-.4-1.9-.5-2.6-.8-4.3-7.3-17-9-22.2-2.4-7.4-8-11.5-8-11.5s5.8 5.8 5.6 18.6c.8.5 1.5.9 2.1 1.4z"/><path fill="#625B67" d="M170.5 31.7c.2-12.8-5.6-18.6-5.6-18.6-7.7-6-36.9-9.2-36.9-9.2v20.6c11.5 0 31.5.9 42.5 7.2z"/><path fill="#9C7360" d="M181.9 93.3c0 .4 0 .7-.1 1.2-.5 3.1-3.1 14.8-3.1 14.8s.7-4.6.3-8.6c-.2 5.9-.5 11.4-.9 14.2-.4 3.5-.7 8.8-1.9 15.4 1.2-.6 3.1-1.6 4.6-3.1 2.6-2.4 4.4-8.9 3.9-15.1-.5-6.2 1.9-9.6 1.9-13.2 0-3.6 1-5-2.9-6.9-.2-.1-.4-.2-.6-.2-.1.4-.3.7-.4 1l-.8.5z"/><path fill="#C08C76" d="M179 100.7c-.1-.8-.2-1.7-.3-2.4-1-4.3 0-13.3 0-13.3l-2.4 1.8s.7-5 0-7.7c-.7-2.6-1.7-4.1-3.8-6.7-2.2-2.6-3.6-5-3.6-5h-1.7v-7.2c-9.1-4.5-22.2-8.8-39.2-8.8v67.4s7.2-.3 9.6-2.9c0 0 8.8 4 10.2 4.3 1.4.3 5.6 1.9 7.8 4s4.5 5.3 4.5 5.3H158v1.4l-1.1-1.6-1.6 1.6s-3.2-6.1-4.2-6.5c-1-.5-.5.8-2.1.2s-3.2-1.1-3.2-1.1-7.8-2.1-9.9-1.6c-2.1.5-5.7 1-8 1v31.5s12-.2 15.6 2.7h-3.8l-.8.8-.2 2.1h-2.2s-.3.3.5 2.9 3.5 8.8 5.9 9.3c2.4.5 5.1-1.3 3.8 0l-1.3 1.3h1.6l-.5.5c7.1-2.4 14.6-6.9 19.4-15.4 1.2-2.1 2.2-4.2 3.2-6.3 3.9-8.2 5.9-15.6 7-21.8 1.2-6.6 1.5-11.9 1.9-15.4.5-2.9.8-8.4 1-14.4zm-26.3-20.8c-1.9-.3-4.9 1.4-4.9 1.4l1.4-1.4s-6.4 2.9-8.1 2.9-2.2-2.1-2.2-2.1c0-1.9 7.5-2.7 7.5-2.7l-1.9-.6c2.9-.8 8.9-1.9 12.8-1.8s10.5 6.8 10.5 6.8h-1v1.3l-1.8-.5 1.1 1.8h-1s-1-.4-2.2-.8c-1.2-.5-2.4-1-2.9-1.4-.9-.8-5.3-2.5-7.3-2.9z"/><path fill="#4B3022" d="M163 84.2c1.2.5 2.2.8 2.2.8h1l-1.1-1.8 1.8.5v-1.3h1s-6.7-6.7-10.5-6.8-9.9 1-12.8 1.8l1.9.6s-7.5.8-7.5 2.7c0 0 .5 2.1 2.2 2.1s8.1-2.9 8.1-2.9l-1.4 1.4s3-1.8 4.9-1.4c1.9.3 6.4 2.1 7.3 2.9.5.4 1.7 1 2.9 1.4z"/><path fill="#936C5A" d="M145.9 123.4s1.6.5 3.2 1.1 1.1-.6 2.1-.2c1 .5 4.2 6.5 4.2 6.5l1.6-1.6 1.1 1.6v-1.4h2.1s-2.2-3.2-4.5-5.3c-2.2-2.1-6.4-3.7-7.8-4-1.4-.3-10.2-4.3-10.2-4.3-2.4 2.6-9.6 2.9-9.6 2.9v4c2.2 0 5.9-.5 8-1 2-.4 9.8 1.7 9.8 1.7zm-2.3 52.4c1.2-.6 2.3-1.6 3-2.1l.5-.5h-1.6l1.3-1.3c1.3-1.3-1.4.5-3.8 0s-5.1-6.7-5.9-9.3c-.8-2.6-.5-2.9-.5-2.9h2.2l.2-2.1.8-.8h3.8c-3.7-2.9-15.6-2.7-15.6-2.7V179c7.4 0 12.1-2.1 12.1-2.1s1.8-.1 3.5-1.1z"/><path fill="#4C4751" d="M172.5 33c-.6-.5-1.3-.9-2.1-1.3-11-6.3-30.9-7.1-42.5-7.1v2.6s13.4-1.9 33.8 3.1c23 5.7 20.8 39 20.8 39-17-18.7-54.6-18.9-54.6-18.9v1c16.9 0 30.1 4.3 39.2 8.8 0 0 5.5 2.5 9.2 5.1 3 2.1 5.9 5 5.9 5s.9.6.9 2.7.7 7.4 1.4 8.1 0 4 0 4-.9 2-2.4 3.7c-1.2 1.4-.4 2.4-.4 4.6l.9-.4c.1-.3.3-.7.4-1 2.6-7.2 2.5-20.5 2.5-20.5.2-9-1.3-16.3-3.3-22-3.7-11.4-9.7-16.5-9.7-16.5z"/><path fill="#3B3740" d="M182.6 69.3s2.1-33.4-20.8-39c-20.4-5-33.8-3.1-33.8-3.1v23.3c0-.1 37.6.1 54.6 18.8z"/><path fill="#4B3022" d="M168.9 67.4s1.4 2.4 3.6 5 3.1 4.1 3.8 6.7c.7 2.6 0 7.7 0 7.7l2.4-1.8s-1 8.9 0 13.3c.2.7.3 1.6.3 2.4.3 4-.3 8.6-.3 8.6s2.6-11.7 3.1-14.8c.1-.4.1-.8.1-1.2 0-2.2-.8-3.1.4-4.6 1.4-1.7 2.4-3.7 2.4-3.7s.7-3.3 0-4-1.4-6-1.4-8.1-.9-2.7-.9-2.7-2.9-2.8-5.9-5c-3.7-2.6-9.2-5.1-9.2-5.1v7.2h1.6z"/><path fill="#4C4751" d="M83.5 33c.6-.5 1.3-.9 2.1-1.3-.3-12.9 5.5-18.7 5.5-18.7s-5.6 4.1-8 11.5c-1.7 5.2-8.1 17.8-9 22.2-.1.6-.3 1.5-.5 2.6C77.5 38.1 83.5 33 83.5 33z"/><path fill="#554F5A" d="M128 24.5V3.9S98.8 7.1 91.1 13c0 0-5.8 5.8-5.6 18.6 11-6.2 31-7.1 42.5-7.1z"/><path fill="#886553" d="M77 100.7c-.3 4 .3 8.6.3 8.6s-2.6-11.7-3.1-14.8c-.1-.4-.1-.8-.1-1.2l-.9-.4c-.1-.3-.3-.7-.4-1-.2 0-.4.1-.6.2-3.8 1.9-2.9 3.4-2.9 6.9 0 3.6 2.4 6.9 1.9 13.2-.5 6.2 1.3 12.7 3.9 15.1 1.6 1.5 3.4 2.5 4.6 3-1.2-6.6-1.5-11.9-1.9-15.4-.3-2.7-.6-8.2-.8-14.2z"/><path fill="#9C7360" d="M109.4 173.7l-.5-.5h1.6l-1.3-1.3c-1.3-1.3 1.4.5 3.8 0s5.1-6.7 5.9-9.3c.8-2.6.5-2.9.5-2.9h-2.2l-.2-2.1-.8-.8h-3.8c3.7-2.9 15.6-2.7 15.6-2.7v-31.5c-2.2 0-5.9-.5-8-1-2.1-.5-9.9 1.6-9.9 1.6s-1.6.5-3.2 1.1-1.1-.6-2.1-.2c-1 .5-4.2 6.5-4.2 6.5L99 129l-1.1 1.6v-1.4h-2.1s2.2-3.2 4.5-5.3c2.2-2.1 6.4-3.7 7.8-4 1.4-.3 10.2-4.3 10.2-4.3 2.4 2.6 9.6 2.9 9.6 2.9V51.4c-16.9 0-30.1 4.3-39.2 8.8v7.2H87s-1.4 2.4-3.6 5-3.1 4.1-3.8 6.7c-.7 2.6 0 7.7 0 7.7L77.2 85s1 8.9 0 13.3c-.2.7-.3 1.6-.3 2.4.2 5.9.5 11.4.9 14.2.4 3.5.7 8.8 1.9 15.4 1.2 6.2 3.2 13.5 7 21.8.9 2 2 4.1 3.2 6.3 4.8 8.4 12.4 12.9 19.5 15.3zm7.7-93s-.5 2.1-2.2 2.1c-1.8 0-8.1-2.9-8.1-2.9l1.4 1.4s-3-1.8-4.9-1.4c-1.9.3-6.4 2.1-7.3 2.9-.5.4-1.8 1-2.9 1.4-1.2.5-2.2.8-2.2.8h-1l1.1-1.8-1.8.5v-1.3h-1s6.7-6.7 10.5-6.8c3.8-.2 9.9 1 12.8 1.8l-1.9.6s7.5.8 7.5 2.7z"/><path fill="#3B2315" d="M111.6 77.4c-2.9-.8-8.9-1.9-12.8-1.8-3.8.2-10.5 6.8-10.5 6.8h1v1.3l1.8-.5L90 85h1s1-.4 2.2-.8c1.2-.5 2.4-1 2.9-1.4 1-.8 5.4-2.6 7.3-2.9 1.9-.3 4.9 1.4 4.9 1.4l-1.4-1.4s6.4 2.9 8.1 2.9c1.8 0 2.2-2.1 2.2-2.1 0-1.9-7.5-2.7-7.5-2.7l1.9-.6z"/><path fill="#7B5A4A" d="M118.4 115.9s-8.8 4-10.2 4.3c-1.4.3-5.6 1.9-7.8 4s-4.5 5.3-4.5 5.3H98v1.4l1.1-1.6 1.6 1.6s3.2-6.1 4.2-6.5c1-.5.5.8 2.1.2s3.2-1.1 3.2-1.1 7.8-2.1 9.9-1.6c2.1.5 5.7 1 8 1v-4c-.1-.2-7.3-.5-9.7-3zm9.6 55.7v-17.3s-12-.2-15.6 2.7h3.8l.8.8.2 2.1h2.2s.3.3-.5 2.9-3.5 8.8-5.9 9.3c-2.4.5-5.1-1.3-3.8 0l1.3 1.3h-1.6l.5.5c.7.5 1.8 1.5 3 2.1 1.8 1 3.5 1.3 3.5 1.3s4.7 2.1 12.1 2.1v-7.8z"/><path fill="#3B3740" d="M74.1 93.3c0-2.2.8-3.1-.4-4.6-1.4-1.7-2.4-3.7-2.4-3.7s-.7-3.3 0-4c.7-.7 1.4-6 1.4-8.1s.9-2.7.9-2.7 2.9-2.8 5.9-5c3.7-2.6 9.2-5.1 9.2-5.1 9.1-4.5 22.2-8.8 39.2-8.8v-1s-37.6.2-54.6 18.9c0 0-2.1-33.4 20.8-39 20.4-5 33.8-3.1 33.8-3.1v-2.6c-11.5 0-31.5.8-42.5 7.1-.7.4-1.4.9-2.1 1.3 0 0-5.9 5.1-9.8 16.3-2 5.7-3.4 13-3.3 22 0 0-.1 13.3 2.5 20.5.1.4.3.7.4 1l1 .6z"/><path fill="#2F2B34" d="M128 39.6V27.2s-13.4-1.9-33.8 3.1c-23 5.7-20.8 39-20.8 39 17-18.7 54.6-18.9 54.6-18.9V39.6z"/><path fill="#3B2315" d="M79.6 65.2c-3 2.1-5.9 5-5.9 5s-.9.6-.9 2.7-.7 7.4-1.4 8.1c-.7.7 0 4 0 4s.9 2 2.4 3.7c1.2 1.4.4 2.4.4 4.6 0 .4 0 .7.1 1.2.5 3.1 3.1 14.8 3.1 14.8s-.7-4.6-.3-8.6c.1-.8.2-1.7.3-2.4 1-4.3 0-13.3 0-13.3l2.4 1.8s-.7-5 0-7.7c.7-2.6 1.7-4.1 3.8-6.7 2.2-2.6 3.6-5 3.6-5h1.7v-7.2c-.1 0-5.6 2.4-9.3 5z"/><path fill="#2D2217" d="M139.3 207c-.8-5-4.2-6.3-5.1-6.5-3.6.9-6.3 1.5-6.3 1.5v14.1c4.8 0 9.6-1 13.7-2.3-1.2-2.8-2-5.3-2.3-6.8zm-3.9-6.8c2.7-.5 5.6-1.3 8.6-2.4-2.8.9-5.9 1.8-8.6 2.4z"/><path fill="#46382F" d="M168.4 167.8s3.6 2.9 3.7 6.9c.2 4.1-4.4 8.9-4.4 8.9-.5.7-1.1 1.4-1.8 2-5.9 5.1-14.2 9.5-21.9 12.2-3 1.1-6 1.9-8.6 2.4-.5.1-.9.2-1.4.2 0 0 .1 0 .2.1.9.2 4.2 1.5 5.1 6.5.3 1.5 1.1 3.9 2.4 6.8 1 2.4 2.3 5.1 3.8 7.8 3.4 6.4 7.6 13 10.8 16.1 0 0 9.6-15.5 15.8-26 5.5-9.3 8-18.5 7.6-24.7-3.8-6.3-4.8-14.6-4.8-14.6.2 0 .5-.1.7-.2 0-.3-.1-.5-.1-.8-.2-4-3-5.3-7-7 .1 0 0 1.4-.1 3.4zm0 0z"/><path fill="#2D2217" d="M172.2 174.7c-.2-4.1-3.7-6.9-3.7-6.9l-.1 1.3-.6 14.5v.1c0-.1 4.5-4.9 4.4-9z"/><path fill="#2C2A2A" d="M185.8 179.2c-7.9-8.6-6.3-7.8-10.2-6.9-.2.1-.4.1-.7.2 0 0 1 8.2 4.8 14.6.5.8 1 1.6 1.6 2.4 5.1 6.4 5.9 14.2 9.1 23.5 1 2.8 0 13.9-1.8 28 19.4-10.4 35.7-25.7 47.5-44.2-2.1-.8-4.4-1.4-6.9-1.9-17.8-3.8-35.1-6.7-43.4-15.7z"/><path fill="#46382F" d="M131.6 231.1c0-2-1.6-3.6-3.6-3.6v7.2c2 .1 3.6-1.6 3.6-3.6z"/></svg>