<svg xmlns="http://www.w3.org/2000/svg" width="256" height="256"><circle fill="#B1B3B5" cx="128" cy="128" r="128"/><path fill="#002A3D" d="M165.2 176.8c3.5 2.4 1.9 7.2 1.9 7.2 1.1 1.8 2.6 3.4 4.4 4.8 2.3-7.3 3.3-13.7 4.4-17.1 2.1-6.5-9.2-22.7-9.2-22.7l.1-.1c-.5.7-1 1.4-1.5 2.2-.5 7.8-.9 18.6-.1 25.7z"/><path fill="#C08C76" d="M155.7 162.7c.1.2-1.9 3.5-1.5 4.2.4.6 1.5.4 1.5.4s-.2-3.5 2.3-3.3c0 0 .8-1.6-1.5-1.3 0 0 2.2-3.3 3.2-2.1 1 1.2 0 3.2 0 3.2h1s2.9-5 2.2-6.9c0 0-1.2 1-2.6.6-1.6 1.9-3.3 3.6-5 5.2.2-.1.4-.1.4 0z"/><path fill="#C08C76" d="M158.6 213.4c5.6-18.6 6.5-36.7 6.5-36.7-.7-7.1-.4-17.9.1-25.7-.7 1-1.4 1.9-2.2 2.9.7.9 1.5 2.4 1 4.2-.9 2.9-1.3 3.5-1.3 3.5s.9-1.4 2-.5v1.2s-.4-1.2-2.1.3l-1.3 2.7v2.3l.5 1.8s-1.6 2.8-1.4 3.7c.2.9 1.1 1.2 1.1 1.2s-2.3-.2-1.9-1.9c.4-1.7 1.1-3.1 1.1-3.1l-.2-1.1-1.9.9s.6 1.1 0 2c-.6.9-1.8 1.2-.9 2.6 0 0-1 .4-1-1.4 0 0 1.4-1.4 1.1-2.3-.3-1-.5-.5-.5-.5h-.6s-.6 2.3-1 2.9c-.3.5-1 1.6-1.1 1.9 0-.4-.7-2 .4-2.5 1.2-.6 1-2.2 1-2.2s-2.2 2.6-2.6 3c-.3.4-1.2-.3-1.2-.3l3.4-3.4-.6-.6s-1-.2-1.7 0c-.6.1-1.6-1.2-1.8-2.8-.2.1-.4.3-.6.4-9.1 6.2-11 9.3-23.3 9.3v66.7c.4-.1 19.7-14.7 31-28.5zm8.5-29.4c-1.1 9.1-2.6 17-4.3 23.9 4.2-6.3 6.8-13.1 8.7-19.1-1.8-1.4-3.3-2.9-4.4-4.8z"/><path fill="#364043" d="M154.8 174.3zm-1.1-6.1c.7-.2 1.7 0 1.7 0l.6.6-3.4 3.4s.9.7 1.2.3c.3-.4 2.6-3 2.6-3s.2 1.5-1 2.2c-1.1.6-.4 2.2-.4 2.5.1-.3.8-1.4 1.1-1.9.3-.6 1-2.9 1-2.9h.6s.2-.5.5.5-1.1 2.3-1.1 2.3c-.1 1.8 1 1.4 1 1.4-1-1.4.3-1.7.9-2.6.6-.9 0-2 0-2l1.9-.9.2 1.1s-.7 1.4-1.1 3.1c-.4 1.7 1.9 1.9 1.9 1.9s-1-.3-1.1-1.2c-.2-.9 1.4-3.7 1.4-3.7l-.5-1.8v-2.3l1.3-2.7c1.7-1.4 2.1-.3 2.1-.3V161c-1.1-1-2 .5-2 .5s.4-.6 1.3-3.5c.6-1.8-.3-3.3-1-4.2-.9 1.2-1.9 2.4-2.8 3.5 1.3.4 2.6-.6 2.6-.6.7 1.9-2.2 6.9-2.2 6.9h-1s1-2 0-3.2c-1-1.2-3.2 2.1-3.2 2.1 2.3-.2 1.5 1.3 1.5 1.3-2.6-.2-2.3 3.3-2.3 3.3s-1.1.2-1.5-.4c-.4-.6 1.6-3.9 1.5-4.2 0-.1-.2-.1-.5 0-1.1 1-2.2 1.9-3.3 2.7-.1 1.8.9 3.1 1.5 3z"/><path fill="#C08C76" d="M177.7 95.8c.3 2.7.6 4.3.2 3.8.1 3 .2 5.7.2 7.5v1c0-.2.1-.4.1-.6 0 0-.4 5.9-1.2 12.7.8-.1 1.5-.3 1.9-.7 1.9-1.9.5-4.5 1.8-7.8 1.3-3.4 1.1-6.4 1.3-9.3.2-2.9 1.6-4.5 2.2-6.5.6-2.1.8-3.8.8-6.7 0-2.9 1-4.8-1.9-6.5-1.2-.7-3.4.2-5.7 1.6-.1.6-.1 1.2-.1 1.8 0 3.3.2 6.7.4 9.7z"/><path fill="#D7A990" d="M148.4 127.5c1.3-.3 5.3 1 7 2.1s4.6 7.7 4.6 7.7 2.4-2.5 4-5.3 1-7.2 3.4-8.8c2.3-1.5 9.1-8.8 10.5-15v-1c0-1.9 0-4.5-.2-7.5-.9-1.3-1.9-11.7-2.7-13.5-.8-1.8 0-11.3 0-13.9s-1-4.6-2.6-7-2.1-5.1-2.3-11.2c-.2-6.1-5.4-18.8-6.9-20.9s-8.5-3.2-14.8-1.5-20.4 1.4-20.4 1.4v96.4s11-.2 13.6-2.1c2.5-1.8 5.6.4 6.8.1zm-8.5-44c-.4-.1-.2-3.6 1.2-4.9 1.4-1.3 6.5-2.4 8.6-3.4 2.2-1 2.9-1 2.9-1l-.9-1s2.5 1 5.1 1 7.9 1.1 9.3 2c1.4 1 2.4 3.4 2.4 3.4s-1.9 0-2.6-.1c-.7-.1-1.7-1.1-3.8-1.1-2.2 0-6.2.7-7.9 1.7-1.6.8-11.4 4-14.3 3.4zm4.7 63.6s-2.2 2.6-.8 2.7c1.4.2 4.3.6 7-2.6s3-3.4 3.2-4.9c.2-1.6 1.9-1.8.2-3.4-1.8-1.6-1.3-2.4-5.6-2.7-4.3-.3-3.7-.8-8.3-.8h-7.8c-2.1 0-4.5-.2-4.5-.2v13.6c0 .1 10.7 1 16.6-1.7zm33.1-51.3c-.2-3.1-.4-6.4-.6-9.8-.1 3.5.2 7.1.6 9.8z"/><path fill="#AE8B77" d="M178 108.1c-1.4 6.3-8.2 13.5-10.5 15-2.4 1.6-1.8 6.1-3.4 8.8s-4 5.3-4 5.3-2.9-6.5-4.6-7.7-5.7-2.4-7-2.1c-1.3.3-4.3-1.9-6.9 0-2.6 1.9-13.6 2.1-13.6 2.1v5.7s2.4.2 4.5.2h7.8c4.6 0 4 .5 8.3.8 4.3.3 3.8 1.1 5.6 2.7 1.8 1.6 0 1.8-.2 3.4-.2 1.6-.5 1.8-3.2 4.9-2.7 3.2-5.6 2.7-7 2.6-1.4-.2.8-2.7.8-2.7-5.9 2.7-16.6 1.8-16.6 1.8v26.3c12.3 0 14.2-3.1 23.3-9.3.2-.1.4-.3.6-.4 1.1-.8 2.2-1.7 3.3-2.7 1.7-1.6 3.4-3.3 5-5.2 1-1.1 1.9-2.3 2.8-3.5.7-1 1.5-1.9 2.2-2.9.5-.7 1-1.5 1.5-2.2l4.2-6.5c.5-.8 1-1.6 1.4-2.3 2.1-3.4 3.5-12.2 4.4-19.8.8-6.9 1.2-12.7 1.2-12.7.2 0 .1.2.1.4z"/><path fill="#5F4A45" d="M128 33.1s14 .3 20.4-1.4 13.4-.6 14.8 1.5S170 48 170.1 54c.2 6.1.6 8.8 2.3 11.2s2.6 4.5 2.6 7-.8 12.1 0 13.9c.8 1.8 1.8 12.2 2.7 13.5.4.5.1-1.1-.2-3.8-.3-2.7-.7-6.4-.6-9.8 0-.6.1-1.2.1-1.8l.3-1.8c1.4-7.2 1.6-20.7.7-25.8-.9-5.1-3.1-24.1-13.2-33.4C155 14 141.7 8.4 128 8.4v24.7z"/><path fill="#5F4A45" d="M162.2 78.3c2.2 0 3.1 1 3.8 1.1.7.1 2.6.1 2.6.1s-1-2.4-2.4-3.4-6.7-2-9.3-2-5.1-1-5.1-1l.9 1s-.8.1-2.9 1c-2.2 1-7.2 2-8.6 3.4-1.4 1.3-1.6 4.8-1.2 4.9 2.9.6 12.7-2.5 14.4-3.5 1.5-.9 5.6-1.6 7.8-1.6z"/><path fill="#002A3D" d="M180.8 222.8c-6.4 5.4-19.6 22.7-19.6 22.7-5.7 1.9-12 1.7-17.5.9-8.4 8.4-15.7 8.6-15.7 8.6v1c20.7 0 40.3-4.9 57.6-13.6.6-8.3 1.3-17.4 1.9-26-2.7 2.8-5.1 5.1-6.7 6.4zm-52.8 19v10.4c4.7-1.1 8.7-3.4 12.3-6.5-7.1-1.5-12.3-3.9-12.3-3.9z"/><path fill="#273134" d="M187.5 216.3c-.7 8.6-1.3 17.7-1.9 26 19.4-9.8 36-24.4 48.2-42.2-9-3-19.7-7.3-28.2-10.9-2.5 9-11.3 19.9-18.1 27.1z"/><path fill="#144056" d="M128 241.8s5.2 2.4 12.3 3.9c8.9-7.6 14.6-20 18.3-32.3-11.3 13.8-30.6 28.4-30.6 28.4z"/><path fill="#144056" d="M166.8 148.9l-.1.1s11.3 16.2 9.2 22.7c-1.1 3.4-2.2 9.7-4.4 17.1-1.9 6.1-4.6 12.8-8.7 19.1-5.1 20.3-12.5 31.9-19.1 38.4 5.5.9 11.8 1 17.5-.9 0 0 13.3-17.2 19.6-22.7 1.5-1.3 3.9-3.6 6.6-6.5 6.8-7.2 15.6-18.2 18-27.1.7-2.5.9-4.8.4-6.8 0 0-12.8-14.4-22.4-21.4-1.9-2.4-5.2-6.5-5.6-9.9-.4-3.4-2.9-4.5-4-5.7-1.1-1.3-2.9-3-2.9-3l-4.1 6.6z"/><path fill="#A0A2A3" d="M162.8 207.9c1.7-6.9 3.2-14.8 4.3-23.9 0 0 1.6-4.8-1.9-7.2 0 0-.9 18.1-6.5 36.7-3.7 12.2-9.4 24.7-18.3 32.3-3.6 3.1-7.7 5.3-12.3 6.5v2.8s7.3-.3 15.7-8.6c6.5-6.8 13.8-18.3 19-38.6z"/><path fill="#001324" d="M88.9 184s-1.6-4.8 1.9-7.2c.7-7.1.4-17.9-.1-25.7-.5-.7-1-1.5-1.5-2.2l.1.1s-11.3 16.2-9.2 22.7c1.1 3.4 2.2 9.7 4.4 17.1 1.8-1.4 3.3-2.9 4.4-4.8z"/><path fill="#B17D6B" d="M88.9 184c-1.1 1.8-2.6 3.4-4.4 4.8 1.9 6.1 4.6 12.8 8.7 19.1-1.7-6.9-3.2-14.8-4.3-23.9zm1.9-7.2s.9 18.1 6.5 36.7c11.3 13.7 30.6 28.4 30.6 28.4v-66.7c-12.3 0-14.2-3.1-23.3-9.3-5.2-3.5-10-9.2-13.9-14.7.5 7.7.9 18.5.1 25.6zM78 108.1v-1c0-1.9 0-4.5.2-7.5-.4.5-.1-1.1.2-3.8.2-3.1.4-6.4.6-9.8 0-.6-.1-1.2-.1-1.8-2.3-1.4-4.5-2.3-5.7-1.6-2.9 1.8-1.9 3.7-1.9 6.5 0 2.9.2 4.6.8 6.7.6 2.1 2.1 3.7 2.2 6.5.2 2.9 0 5.9 1.3 9.3 1.3 3.4-.2 5.9 1.8 7.8.4.4 1.1.6 1.9.7-.8-6.9-1.2-12.7-1.2-12.7-.2.3-.1.5-.1.7z"/><path fill="#C08C76" d="M107.6 31.7c-6.4-1.8-13.4-.6-14.8 1.5S86 48 85.9 54c-.2 6.1-.6 8.8-2.3 11.2s-2.6 4.5-2.6 7 .8 12.1 0 13.9c-.8 1.8-1.8 12.2-2.7 13.5-.1 3-.2 5.7-.2 7.5v1c1.4 6.3 8.2 13.5 10.5 15 2.4 1.6 1.8 6.1 3.4 8.8s4 5.3 4 5.3 2.9-6.5 4.6-7.7 5.7-2.4 7-2.1c1.3.3 4.3-1.9 6.9 0 2.6 1.9 13.6 2.1 13.6 2.1V33.1c-.1 0-14.1.3-20.5-1.4zM85.8 97.5s4.8 6 5.5 7.9 7.7 7.9 7.7 7.9c-7-2.4-14.2-15.1-13.2-15.8zm31.1-14c-2.9.6-12.7-2.5-14.4-3.5-1.7-1-5.7-1.7-7.9-1.7s-3.1 1-3.8 1.1c-.7.1-2.6.1-2.6.1s1-2.4 2.4-3.4 6.7-2 9.3-2c2.6 0 5.1-1 5.1-1l-.9 1s.8.1 2.9 1c2.2 1 7.2 2 8.6 3.4 1.6 1.4 1.7 4.9 1.3 5zm6.6 52h-7.8c-4.6 0-4 .5-8.3.8-4.3.3-3.8 1.1-5.6 2.7-1.8 1.6 0 1.8.2 3.4.2 1.6.5 1.8 3.2 4.9 2.7 3.2 5.6 2.7 7 2.6 1.4-.2-.8-2.7-.8-2.7 5.9 2.7 16.6 1.8 16.6 1.8v-13.6c0-.1-2.4.1-4.5.1zM78.9 86.1c-.2 3.4-.4 6.7-.6 9.8.4-2.8.7-6.4.6-9.8z"/><path fill="#907463" d="M89.2 148.9c.5.7 1 1.4 1.5 2.2 3.9 5.5 8.8 11.2 13.9 14.7 9.1 6.2 11 9.3 23.3 9.3v-26.3s-10.7 1-16.6-1.8c0 0 2.2 2.6.8 2.7-1.4.2-4.3.6-7-2.6s-3-3.4-3.2-4.9c-.2-1.6-1.9-1.8-.2-3.4 1.8-1.6 1.3-2.4 5.6-2.7 4.3-.3 3.7-.8 8.3-.8h7.8c2.1 0 4.5-.2 4.5-.2v-5.7s-11-.2-13.6-2.1c-2.6-1.9-5.6.3-6.9 0-1.3-.3-5.3 1-7 2.1s-4.6 7.7-4.6 7.7-2.4-2.5-4-5.3-1-7.2-3.4-8.8c-2.3-1.5-9.1-8.8-10.5-15 0-.2-.1-.4-.1-.6 0 0 .4 5.9 1.2 12.7.9 7.6 2.4 16.5 4.4 19.8.4.7.9 1.5 1.4 2.3l4.4 6.7z"/><path fill="#4E3C38" d="M78.3 95.8c-.3 2.7-.6 4.3-.2 3.8.9-1.3 1.9-11.7 2.7-13.5.8-1.8 0-11.3 0-13.9s1-4.6 2.6-7 2.1-5.1 2.3-11.2c.2-6.1 5.4-18.8 6.9-20.9s8.5-3.2 14.8-1.5 20.4 1.4 20.4 1.4V8.4c-13.7 0-27 4.4-37 13.7-10.1 9.3-12.3 29.5-13.2 34.6-.9 5.1-.7 18.7.7 25.8l.3 1.8c.1.6.1 1.2.1 1.8.3 3.4 0 7-.4 9.7z"/><path fill="#4E3C38" d="M107.1 75.2c-2.2-1-2.9-1-2.9-1l.9-1s-2.5 1-5.1 1c-2.6 0-7.9 1.1-9.3 2-1.4 1-2.4 3.4-2.4 3.4s1.9 0 2.6-.1c.7-.1 1.7-1.1 3.8-1.1s6.2.7 7.9 1.7c1.7 1 11.5 4.1 14.4 3.5.4-.1.2-3.6-1.2-4.9-1.5-1.5-6.5-2.6-8.7-3.5z"/><path fill="#001324" d="M112.3 246.3c-5.5.9-11.8 1-17.5-.9 0 0-13.3-17.2-19.6-22.7-1.5-1.3-3.9-3.6-6.6-6.5.7 8.6 1.3 17.7 1.9 26 17.3 8.7 36.9 13.6 57.6 13.6v-1c-.1.2-7.4-.1-15.8-8.5zm15.7-4.5s-5.2 2.4-12.3 3.9c3.6 3.1 7.7 5.3 12.3 6.5v-10.4z"/><path fill="#1F282B" d="M50.5 189.2c-8.5 3.6-19.2 7.9-28.2 10.9C34.4 218 51 232.6 70.4 242.4c-.6-8.3-1.3-17.4-1.9-26-6.8-7.3-15.6-18.2-18-27.2z"/><path fill="#002A3D" d="M128 241.8s-19.3-14.6-30.6-28.4c3.7 12.2 9.4 24.7 18.3 32.3 7.1-1.5 12.3-3.9 12.3-3.9z"/><path fill="#002A3D" d="M68.5 216.3c2.7 2.9 5.1 5.2 6.6 6.5 6.4 5.4 19.6 22.7 19.6 22.7 5.7 1.9 12 1.7 17.5.9-6.6-6.6-14-18.1-19.1-38.4-4.2-6.3-6.8-13.1-8.7-19.1-2.3-7.3-3.3-13.7-4.4-17.1-2.1-6.5 9.2-22.7 9.2-22.7l-.1-.1-4.2-6.5s-1.8 1.7-2.9 3c-1.1 1.3-3.7 2.4-4 5.7-.4 3.4-3.6 7.5-5.6 9.9-9.6 7-22.4 21.4-22.4 21.4-.5 2-.3 4.3.4 6.8 2.5 8.9 11.3 19.8 18.1 27z"/><path fill="#808283" d="M115.7 245.7c-8.9-7.6-14.6-20-18.3-32.3-5.6-18.6-6.5-36.7-6.5-36.7-3.5 2.4-1.9 7.2-1.9 7.2 1.1 9.1 2.6 17 4.3 23.9 5.1 20.3 12.5 31.9 19.1 38.4 8.4 8.4 15.7 8.6 15.7 8.6V252c-4.8-1-8.8-3.2-12.4-6.3z"/><path fill="#A4666A" d="M91.3 105.4c-.7-1.9-5.5-7.9-5.5-7.9-1 .7 6.2 13.4 13.2 15.8-.1 0-7-6-7.7-7.9z"/></svg>