<svg xmlns="http://www.w3.org/2000/svg" width="256" height="256"><circle fill="#B1B3B5" cx="128" cy="128" r="128"/><path fill="#00081C" d="M162.6 172.2c-.3-3.7-3.2-6.6-3.2-6.6.4 2.8 1 5 2 5.8.3.3.7.5 1.2.8zm-3.2-6.6l-.1-1c0 .4 0 .7.1 1z"/><path fill="#CCAD9F" d="M146 157.4c-6.4 3.8-18 2.6-18 2.6v48.8h17.2l.7-22.2 9-4.2c.9-.6 1.9-1.2 3-2 3.9-2.7 4.9-5.7 4.6-8.3-.5-.3-.9-.5-1.2-.7-1-.8-1.6-3-2-5.8 0-.3-.1-.6-.1-1-.1-.8-.2-1.6-.2-2.4-.2-3.8-.2-8-.1-11.7-3.6 3.6-6.8 3.2-12.9 6.9zm27.8-70.3c-.3 6.9-.8 15.4-2.5 24.7 1.5.1 3.4.1 4.4-.2 1.9-.5 2.9-6.9 3.4-10.5.4-2.8 1.5-6.7.9-10.8-1.7-1.1-3.9-2.6-6.2-4.3.1.4 0 .8 0 1.1z"/><path fill="#DEBCAD" d="M173.9 86.1c-8.9-6.5-21.1-16.8-28.3-29-8.2-12.2-17.6-17.2-17.6-17.2v93.9s1.3.2 2.5-.8c1.8-.8 4.1-.1 5.4 1.3 2.5 2.2 2.7 2.8 5.3 3.7 0 0-2.3 3.9-13.2 3.9V160s11.7 1.2 18-2.6c6.1-3.7 9.3-3.3 12.9-6.8l.5-.5c3.8-4.2 8.2-21.1 10.8-32.6.4-1.9.8-3.8 1.1-5.6 1.7-9.3 2.2-17.8 2.5-24.7 0-.4.1-.8.1-1.1zm-19.8-3.7c-2.7.6-11.2.4-13.1 1.2-1.9.8-5.7 0-2.2-2.2 3.8-2.4 12.9-3.4 17.2-1.1 4.3 2.2 8.1 2.9 8.8 5.3 0-.1-7.9-3.8-10.7-3.2z"/><path fill="#51473C" d="M156.1 80.3c-4.3-2.2-13.5-1.3-17.2 1.1-3.5 2.2.3 3 2.2 2.2 1.9-.8 10.4-.6 13.1-1.2s10.7 3.2 10.7 3.2c-.7-2.5-4.5-3.1-8.8-5.3z"/><path fill="#9D4D5E" d="M141.2 137.9c-2.6-.9-2.8-1.5-5.3-3.7-1.3-1.4-3.6-2.1-5.4-1.3-1.2 1-2.5.8-2.5.8v8.1c10.9 0 13.2-3.9 13.2-3.9z"/><path fill="#605347" d="M128 33.6s13.1-2.4 21.8 10.5c8.8 13.1 14.2 33 34.8 49 0 0-5.4-6.1-4.3-17.4 1.3-13.9 17.4-65-52.3-67.4v25.3z"/><path fill="#203E54" d="M144.8 221H128v35c5.3 0 10.5-.3 15.7-1l1.1-34z"/><path fill="#20343E" d="M128 210.7V221h16.8l.4-12.2H128z"/><path fill="#122D41" d="M197.4 179c-15.6-1.7-33-14.8-38.4-16.8l.2 2.4.1 1s2.9 2.9 3.2 6.6c.2 2.6-.7 5.5-4.6 8.3-1.1.8-2.1 1.4-3 2l-.3 7.5.4.2c.2-.4.8-1.2 1.6-.8 1.2.5.5 1.6.5 1.6l-.5-.2s.2-.5-.2-.6c-.4-.1-.6.4-.6.4l.5.2 1.9.9.6-1.5 3.7 1.5-.6 1.5 2.2 1 .3.1s.4-.5 0-.7c-.4-.2-.7.3-.7.3l-.6-.2s.5-1.1 1.5-.7c.7.3.6 1.1.5 1.6l3 1.2c.3.6-.4.9-.4.9l-2.9-1.4c-.2.4-.8 1.2-1.6.8-1.2-.5-.5-1.6-.5-1.6l.5.2s-.2.5.2.6c.4.1.6-.4.6-.4l-.5-.2-2-.9-.7 1.8-3.8-1.4.8-1.9-2.1-.9-.3-.1s-.4.5 0 .7c.4.2.7-.3.7-.3l.6.2s-.5 1.1-1.5.7c-.4-.2-.5-.5-.6-.8l-2.3 62c32.3-6.2 60.3-24.6 79-50.1-.3-1.9-.7-3.5-1.1-4.6-4.5-14.1-17.2-18.4-32.8-20.1z"/><path fill="#122D41" d="M154.6 190.8v.3c.1-.1.1-.2 0-.3zm4.4 2.5l.5-.8.5.2-.4.9.7.3.6-1.8-1.6-.8-.8 1.7z"/><path fill="#052032" d="M154.6 191.7v-.8l-2.9-1.2c-.3-.6.4-.9.4-.9l2.5 1.2.3-7.5-9 4.2-.7 22.2-.4 12.2-1.1 34c2.9-.4 5.8-.8 8.7-1.4l2.2-62z"/><path fill="#785843" d="M155.4 191.2l.3.1-.3-.2zm.8-.6l-.5-.2zm-4.5-1l2.9 1.2h.1c.1-.4.2-.6.2-.6s0-.1.1-.2l-.4-.2-2.5-1.2c.1.1-.6.4-.4 1z"/><path fill="#9E755A" d="M154.7 190.9c0 .1-.1.2-.1.3v.5c0 .3.2.6.6.8 1 .5 1.5-.7 1.5-.7l-.6-.2s-.3.5-.7.3c-.4-.2-.1-.7 0-.7l.3.1 2.1.9.3-.7-1.9-.9-.5-.2s.3-.6.6-.4c.4.2.2.6.2.6l.5.2s.7-1.1-.5-1.6c-.9-.3-1.4.5-1.6.8-.1.1-.1.2-.1.2s0 .3-.1.7z"/><path fill="#785843" d="M163.5 194.7l.5.2zm.8-.6l-.3-.1.3.1zm.4 1.1l2.9 1.4s.7-.3.4-.9l-3-1.2c-.1.4-.2.6-.2.6s-.1 0-.1.1z"/><path fill="#9E755A" d="M163.5 194.7l.5.2s-.3.6-.6.4c-.4-.2-.2-.6-.2-.6l-.5-.2s-.7 1.1.5 1.6c.9.3 1.4-.5 1.6-.8.1-.1.1-.2.1-.2l.2-.6c.2-.5.2-1.3-.5-1.6-1-.4-1.5.7-1.5.7l.6.2s.3-.5.7-.3c.4.2.1.7 0 .7l-.4-.2-2.2-1-.3.7 2 1z"/><path fill="#89664E" d="M157 194.1l3.8 1.4.7-1.8.3-.7.6-1.5-3.7-1.5-.6 1.5-.3.7-.8 1.9zm3.9-2l-.6 1.7-.7-.2.4-.9-.5-.2-.4.8-.6-.3.8-1.7 1.6.8z"/><path fill="#3D352B" d="M149.8 44.2c-8.7-13-21.8-10.6-21.8-10.6v6.2s9.4 5 17.6 17.2c7.1 12.1 19.4 22.5 28.3 29 2.4 1.7 4.5 3.2 6.2 4.3 2.8 1.8 4.5 2.8 4.5 2.8-20.6-15.9-26-35.8-34.8-48.9z"/><path fill="#00081C" d="M96.7 164.6l-.1 1c.1-.3.1-.6.1-1zm-.1 1s-2.9 2.9-3.2 6.6c.5-.3.9-.5 1.2-.7 1-.9 1.7-3.1 2-5.9z"/><path fill="#B49A8E" d="M97 162.3c-.1.8-.1 1.6-.2 2.4 0 .3-.1.6-.1 1-.4 2.8-1 5-2 5.8-.3.2-.7.5-1.2.7-.2 2.6.7 5.5 4.6 8.3 1.1.8 2.1 1.4 3 2l9 4.2.7 22.2H128V160s-11.7 1.2-18-2.6c-6.1-3.7-9.3-3.3-12.9-6.8.1 3.6.1 7.9-.1 11.7zM81.2 96.6s-2.4-2.6-5.1-7.1c-.9 4.4.3 8.6.7 11.7.5 3.6 1.6 10.1 3.4 10.5 1.1.3 3 .2 4.4.2-1-5.7-1.6-11.1-2-16-.4.2-.9.5-1.4.7z"/><path fill="#CCAD9F" d="M110 157.4c6.4 3.8 18 2.6 18 2.6v-18.2c-10.9 0-13.2-3.9-13.2-3.9 2.6-.9 2.8-1.5 5.3-3.7 1.3-1.4 3.6-2.1 5.4-1.3 1.2 1 2.5.8 2.5.8V39.9s-3.9 5.2-11.8 16.9c-3.2 7.2-7.7 15.3-14 22.7 4.7-1.1 11.8-.1 15 1.9 3.5 2.2-.3 3-2.2 2.2-1.9-.8-10.4-.6-13.1-1.2-.6-.1-1.4-.1-2.4.1-4.7 5-10.3 9.6-16.8 13.3.4 4.9.9 10.3 2 16 .3 1.8.7 3.7 1.1 5.6 2.6 11.5 7 28.4 10.8 32.6l.5.5c3.6 3.6 6.8 3.2 12.9 6.9z"/><path fill="#3D352B" d="M101.9 82.4c2.7.6 11.2.4 13.1 1.2 1.9.8 5.7 0 2.2-2.2-3.2-2-10.3-3-15-1.9l-2.7 3c.9-.2 1.8-.3 2.4-.1z"/><path fill="#884251" d="M125.5 132.9c-1.8-.8-4.1-.1-5.4 1.3-2.5 2.2-2.7 2.8-5.3 3.7 0 0 2.3 3.9 13.2 3.9v-8.1s-1.3.3-2.5-.8z"/><path fill="#50453A" d="M123 36.2c2.8-2.7 5-2.6 5-2.6V8.4c-7.9.3-14.6 2.5-19.1 7.3 5.7 2.8 10.7 9.4 14.1 20.5z"/><path fill="#122D41" d="M128 221h-16.8l1.1 34c5.1.6 10.4 1 15.7 1v-35z"/><path fill="#172933" d="M128 208.8h-17.2l.4 12.2H128v-10.3z"/><path fill="#052032" d="M101 182.4c-.9-.6-1.9-1.2-3-2-3.9-2.7-4.9-5.7-4.6-8.3.3-3.7 3.2-6.6 3.2-6.6l.1-1 .2-2.4c-5.4 1.9-22.8 15.1-38.4 16.8s-28.3 6-32.8 19.9c-.4 1.2-.7 2.7-1.1 4.6 18.7 25.6 46.7 43.9 79 50.1l-2.6-71.1z"/><path fill="#000F22" d="M111.2 221l-.4-12.2-.7-22.2-9-4.2 2.6 71.2c2.9.6 5.7 1 8.7 1.4l-1.2-34z"/><path fill="#2D251C" d="M123 36.2s-1.7 9-6.8 20.5C124.1 45 128 39.9 128 39.9v-6.2c0-.1-2.2-.1-5 2.5z"/><path fill="#3D352B" d="M82.7 95.8c6.6-3.7 12.1-8.3 16.8-13.3l2.7-3c6.3-7.5 10.8-15.6 14-22.7 5.1-11.5 6.8-20.5 6.8-20.5-3.4-11.1-8.4-17.8-14.1-20.6-11.4-5.6-25.7 4-35.8 24.7-10.2 21.1-2.9 39.5 2.9 49.1 2.7 4.5 5.1 7.1 5.1 7.1.6-.2 1.1-.5 1.6-.8z"/></svg>