<svg xmlns="http://www.w3.org/2000/svg" width="256" height="256"><circle fill="#B1B3B5" cx="128" cy="128" r="128"/><path fill="#726F64" d="M173.6 164c-3.8 4.5-17.8 8-29 10.3l-3.6 39.9 26-33.1c4.4-5.6 12.9-21.9 15.2-26.2 0-.7.1-1.3.1-2-1.5 2.1-4.3 6-8.7 11.1z"/><path fill="#57564D" d="M129.1 177v52.2l11.8-15 3.6-39.9c-8.4 1.7-15.4 2.7-15.4 2.7z"/><path fill="#53565B" d="M207.3 206l-.9-.7C199.1 186.6 167 181 167 181l-26 33.1-11.8 15V256c2.3 0 4.6-.1 6.9-.2 2.8-4.9 7.4-12.2 10.9-14.2 5.3-3.1 18.9-16.2 23.1-17.4l.1-.1h.2c.5-.1 1.4.1 2.6.5 5 1.1 16.1 4 25.3 10.5 6.9-4.5 13.3-9.7 19.2-15.4-4.1-8.1-8.4-12.2-10.2-13.7z"/><path fill="#302F30" d="M186.2 154.1l-1.2 8.1-5.1 2.5 2.9-10.9s-.2.4-.5 1.1c-2.2 4.3-10.8 20.6-15.2 26.2 0 0 32.1 5.5 39.5 24.3 3.1-2.7 8.9 0 8.9 0l9.9 5.8c6.3-7.4 11.8-15.5 16.4-24.3-11.1-6.6-21.1-12.6-23.9-15.3-5.7-5.5-21.4-15.5-31.7-17.5z"/><path fill="#302F30" d="M206.5 205.3l.9.7c-.6-.4-.9-.7-.9-.7z"/><path fill="#847963" d="M194.3 237.5c1.3-.8 2.6-1.6 3.8-2.4-9.2-6.6-20.2-9.5-25.3-10.5 4.4 1.4 12.7 5.9 21.5 12.9zm-24-13.4h-.2l-.1.1c.1-.1.1-.1.3-.1-.1 0 0 0 0 0z"/><path fill="#988971" d="M170.3 224.1s-.1 0 0 0h-.2c-4.2 1.2-17.8 14.3-23.1 17.4-3.5 2-8.1 9.4-10.9 14.2 21.2-1.3 41-7.8 58.2-18.2-8.7-7-17.1-11.5-21.4-13-1.2-.3-2.1-.5-2.6-.4z"/><path fill="#46433F" d="M215.4 205.3s-5.8-2.7-8.9 0c0 0 .3.2.9.7 1.8 1.5 6 5.6 10 13.7 2.8-2.7 5.5-5.6 8-8.5l-10-5.9z"/><path fill="#57564D" d="M84.7 164c-4.4-5.1-7.2-9-8.7-11.2 0 .7.1 1.3.1 2 2.2 4.3 10.8 20.6 15.2 26.2l26 33.1-3.6-39.9c-11.2-2.1-25.2-5.7-29-10.2z"/><path fill="#43433C" d="M129.1 177s-7-.9-15.4-2.6l3.6 39.9 11.8 15V177z"/><path fill="#3E4145" d="M129.1 229.2l-11.8-15-26-33.1s-32.1 5.5-39.5 24.3l-.9.7c-1.9 1.6-6.5 6.1-10.7 15.2C46 226.8 52.3 231.7 59 236c9.4-7.1 21.1-10.2 26.3-11.3 1.2-.4 2.1-.6 2.6-.5h.2l.1.1c4.2 1.2 17.8 14.3 23.1 17.4 3.5 2.1 8.2 9.5 11 14.4 1.9.1 3.8.1 5.7.1h1.1v-27z"/><path fill="#262626" d="M51.8 205.3s-.3.2-.9.7l.9-.7zm-8.9 0s5.8-2.7 8.9 0c7.3-18.8 39.5-24.3 39.5-24.3-4.4-5.6-12.9-21.9-15.2-26.2-.3-.7-.5-1.1-.5-1.1l2.9 10.9-5.1-2.5-1.2-8.1c-10.3 2-26 12-31.6 17.5-2.9 2.9-13.8 9.3-25.6 16.3 4.6 8.7 10.2 16.8 16.6 24.1l11.3-6.6z"/><path fill="#685F4D" d="M59.1 235.9l3.9 2.4c9.1-7.4 17.9-12.2 22.4-13.7-5.2 1.1-16.9 4.2-26.3 11.3zm29.1-11.8c-.1-.1-.1-.1-.2 0h.2z"/><path fill="#847963" d="M111.3 241.5c-5.3-3.1-18.9-16.2-23.1-17.4H88c-.5-.1-1.4.1-2.6.5-4.5 1.5-13.3 6.3-22.4 13.7 17.5 10.3 37.7 16.6 59.3 17.6-2.8-4.9-7.5-12.3-11-14.4z"/><path fill="#3E3C39" d="M50.9 206c.6-.5.9-.7.9-.7-3.1-2.7-8.9 0-8.9 0L31.5 212c2.8 3.2 5.7 6.2 8.8 9.2 4.1-9.1 8.7-13.6 10.6-15.2z"/><path fill="#7E6E62" d="M65.9 120.9s-6.3-6.5-6-11.8c.1-2.9 1.1-5 2-6.2.2-.4.5-.8.8-1.1l.5-.5-1.5-1.4-1.7-.6c-.1 0-.2-.1-.3-.1-4.9-1.1-6.3-2.3-7.4-3.5-1.1-1.2-3.1-2.6-3.6 1.6-.4 4.2-.4 18.5 1.8 26.5 2.1 7.6 10.3 20.6 20.6 24.1L69 134.3l-3.1-13.4z"/><path fill="#998577" d="M94.9 66.3l.2.7s1.4-.4 3.4-.6c-1.4 0-2.5-.3-3.6-.1z"/><path fill="#998577" d="M129.1 29.4l-9.8-2 2.2 2-8-1v1h-1.8c.2.7.3 1.4.3 1.9.3 3.2-2.5 3-6.3 2.9-.4-.1-.9-.1-1.3-.1-.8 1.4-1.6 2.8-2.5 4.1-1.4 2-3 5.5-4.7 9.8l-.6 5.7 2.3-.9v5.4l-5.5 1.7.7 2.9c7.4-1.4 18-.1 20.4 2.3 2.5 2.5 4.2 2.2 4.5 5.1 0 0-9-2.2-15-3.3 1.3.4 2.7 1 3.9 1.9 5.5 4 9.8 7.6 10.3 10.4s2.7 7.2-.6 9.6c-3.3 2.4-16.5 8.6-16.5 8.6l.1 3.9 7.4-3.3-.4 3.3-1.2.9-.6 2.5-3 1.7-.4 2.7-9.5-1.6.7 4.5h7.6l-1 5.7h3.3l-2.7 5.7h-4.9l1.5 3.2h5.1l1.2 6.3h4.5l5.4-4.3-.3 2s-13.8 8.6-16.8 11.8l2.2 3.3 3.7-3.3.6 1.9-1.3 3 3.3 1 6.8-4.3.9 2.1 5.4-2.2-.7 3.3s-9.5 5.8-12.7 10.7l4.8 3 4-5.1-2.2 6.6s6.6 1.2 11.3 1.2l-1.4 5.6c4.4.3 7.7.5 7.7.5V29.4z"/><path fill="#766860" d="M111.6 162.3l2.2-6.6-4 5.1-4.8-3c3.1-4.9 12.7-10.7 12.7-10.7l.7-3.3-5.4 2.2-.9-2.1-6.8 4.3-3.3-1 1.3-3-.6-1.9-3.7 3.3-2.2-3.3c3-3.3 16.8-11.8 16.8-11.8l.3-2-5.4 4.3H104l-1.2-6.3h-5.1l-1.5-3.2h4.9l2.7-5.7h-3.3l1-5.7h-7.6l-.7-4.5 9.5 1.6.4-2.7 3-1.7.6-2.5 1.2-.9.4-3.3-7.4 3.3-.1-3.9s13.2-6.2 16.5-8.6c3.3-2.4 1-6.8.6-9.6s-4.8-6.3-10.3-10.4c-1.2-.9-2.6-1.5-3.9-1.9-2.1-.4-3.8-.6-4.6-.5h-.9c-2 .1-3.4.6-3.4.6l-.2-.7c-1.2.2-2.4 1.1-3.6 4v-2l-2.2 3.6s-2.9-7.4 4.5-8.9c.2 0 .4-.1.5-.1l-.7-2.9 5.5-1.7v-5.4l-2.3.9.6-5.7v-.4l-3 1.9c-.4-3.8.3-7.8 1.4-11.5-2.7 2.2-4.7 4.5-5.2 5.2.2.6.2 1.2 0 1.6-1.1 2.1-2.1 2.2-3.3 1.3-6.7 8.4-8.6 21.5-8.8 28.8 0 7.4-.2 13.9-3 21.9-2.8 8-1.5 13.5-1.5 13.5v.9c0 .9.3 3.1.6 5.8 1.1 6.8 3.3 19 4.7 24.7 1.8 7 7.7 14.4 13.4 20.4 3.5 3.8 9.2 5.3 13.1 5.9 4.3.4 10.9.8 16.1 1.2l1.4-5.6c-4.7-.1-11.2-1.3-11.2-1.3z"/><path fill="#958174" d="M195 101.3l.5.5c.3.3.7.7.8 1.1.9 1.3 1.8 3.3 2 6.2.2 5.4-6 11.8-6 11.8l-3.1 13.4-2.1 13.6c10.3-3.4 18.5-16.5 20.6-24.1 2.2-8 2.2-22.3 1.8-26.5-.4-4.2-2.5-2.8-3.6-1.6-1.1 1.2-2.5 2.4-7.4 3.5-.1 0-.2 0-.3.1l-1.8.6-1.4 1.4z"/><path fill="#AB9484" d="M166 162.1c5.7-6 11.6-13.4 13.4-20.4 1.5-5.7 3.7-17.9 4.7-24.7.4-2.7.6-4.9.6-5.8v-.9s1.3-5.5-1.5-13.5-3-14.5-3.2-21.8c-.2-7.3-2.1-20.4-8.8-28.8-1.2.9-2.2.8-3.3-1.3-.2-.5-.2-1 0-1.6-1.1-1.3-8.4-10.1-15.3-9-3.8.1-6.6.2-6.3-2.9 0-.6.1-1.3.3-1.9h-1.8v-1l-8 1 2.2-2-9.8 2v140.2s15.9-.9 23.8-1.6c3.7-.7 9.4-2.2 13-6zm5.4-55.7c-.2-3.1 3.6-9.1 3.6-9.1-.7 1.2-2.7 5.1-1.6 8.2 1.1 3-1.6 7.6-3.1 11.8-1.6 4.2-2.5 13.2-2.5 13.2s-.7-5.4 0-8.7c.7-3.3 3.8-12.3 3.6-15.4zm-27.6-41.3c2.5-2.5 13.6-3.8 21-2.2 7.4 1.6 4.5 8.9 4.5 8.9l-2.2-3.6v2c-2.5-5.8-4.7-3.6-8-3.8-3.3-.2-19.7 3.8-19.7 3.8.1-2.9 1.9-2.6 4.4-5.1z"/><path fill="#CCC4B7" d="M149.1 22.8zm-3-.6l-2.1.7-.1-1.2-3.7.4 1.1-1.4s-4.6-1.1-5.7 0l.2-1.4-3.5 1.4.6-.9-2.7.9-.1-.8-1 .8v8.7l9.8-2-2.2 2 8-1v1h1.8c.1-.2.1-.4.2-.7.3-.9.8-2.3 1.3-3.5l-.5-1.4-1.4-1.6z"/><path fill="#53565B" d="M193 66.4c.2 0 .4 0 .6.1-.4-.1-.6-.1-.6-.1z"/><path fill="#53565B" d="M161.6 27.7c-2.2 2.2-8.7.9-8.7.9-.9 2.9-.1 3.3.6 3.2.7-.1.9 0 1.7-.8.8-.8.8-1.6 2.8-1 2 .5 7.4 2.5 11.7 10.2.8-1 1.5-1.7 1.5-1.7 3.1 1.6 3.8 4.9 3.8 4.9s-.9.6-1.8 1.3c0 0 5.5 6.9 7.3 13.6 1.8 6.7 2.6 12.5 2.7 16 .1 3.5 1.8 6.6 2.3 8.6.6 2 4.8 13.6 5.1 17.2l-2.7-.7s0 .9-.1 2.1c.1-.8.2-1.5.2-2.1l2.7.7-2.2 9.4s1.7-5.5 6.5-8.3l.5.5-.5-.5-.2-9.3 3.1-3.2s1.8 2.3 1.6 3.9c-.2 1.6-1.2 6.7-1.2 6.7l1.6-.5s.2-6 0-10.7c-.2-4.7-.7-19.4-3.1-20.5 0 0-2.6 2.4-4 4.5-1.3 2.1-3 7.4-3.7 7.1-.7-.3-1-.4-.9-3.6.1-3.1 4.8-9.2 4.8-9.2s-.7-9.8-3.6-14.1h-.1c-.3.3-2.4 2.6-3.1 3.8-.7 1.3-.9 3.7-.9 3.7s-1.9-3-1.6-4.1l3-3.9s-4.9-7.8-4.9-14.3c0 0-6.6-13.2-12.8-15.2.1 0 .1.1.1.1-2.4-.3-5.3 3.1-7.5 5.3z"/><path fill="#53565B" d="M137.4 10.8c5.8.6 10.3 6.5 10.3 6.5-6.1-1.8-18.5-2.1-18.5-2.1v1s9.8.6 13.8 1.7 5.7 1.9 6.5 4l-.3.9-1 2.5c-.5 1.2-1 2.6-1.3 3.5-.1.2-.1.4-.2.7-.2.7-.3 1.4-.3 1.9 0 .1.9 1.4 1.8 1.5 1.3.2 3 0 3.8-3.2.8-3.2 2.7-6.7 5.9-2.8.3.1.5.1.5.1l3.3-4.4c.5-.2 1-.3 1.5-.4-.8-1.1-3.6-4.6-5.3-4.8-2-.2-4.9 1.6-4.9 1.6s-5.1-7.8-9.8-8.9c0 0-8.5-1.6-13.8-1.6v1.8c-.3-.1 2.2 0 8 .5zm54.9 110.1s6.3-6.5 6-11.8c-.1-2.9-1.1-5-2-6.2 0 0 0 .1.1.1-1.8 1.1-7.1 6.5-8.5 9.1.1.5 1.8 7.2 1.3 9.6L187 119s-7.1 29-9.4 32.3-11.4 14.4-15 15.5c-5.9 1.6-13.6 1.6-13.6 1.6s1.6 0 3.9-.4c-7.9.7-23.8 1.6-23.8 1.6v7.4s7-.9 15.4-2.6c11.3-2.3 25.2-5.8 29-10.3 4.4-5.1 7.2-9 8.7-11.2.8-1.1 1.2-1.8 1.2-1.8l-.7 2.7-2.9 10.9 5.1-2.5 1.2-8.1.9-6.2 2.1-13.6 3.2-13.4zm-7.5-10.6s.1-.1.1-.2c0 .1-.1.1-.1.2z"/><path fill="#53565B" d="M184.8 110.4v.7c0 .9-.3 3.1-.6 5.8.2-1.5.4-2.8.5-3.6-.1 0 .1-1 .1-2.9z"/><path fill="#252524" d="M129.1 20.7l1-.8.1.8 2.7-.9-.6.9 3.5-1.4-.2 1.4c1.1-1.1 5.7 0 5.7 0l-1.1 1.4 3.7-.4.1 1.2 2.1-.7 1.5 1.6.5 1.4 1-2.5.3-.9c-.8-2.1-2.5-2.9-6.5-4s-13.8-1.7-13.8-1.7v4.6zm8.3-9.9c-5.8-.6-8.3-.7-8.3-.7v5s12.4.3 18.5 2.1c.1.1-4.4-5.8-10.2-6.4zm15.2 23.4c6.9-1.1 14.2 7.7 15.3 9 .3-1 1.1-2.2 1.8-3.1-4.3-7.7-9.8-9.6-11.7-10.2-2-.6-2 .2-2.8 1-.8.8-1 .7-1.7.8-.7.1-1.5-.3-.6-3.2.6-2.5 3.7-2.1 4.9-1.8-3.2-3.9-5.1-.4-5.9 2.8-.8 3.2-2.5 3.4-3.8 3.2-1-.1-1.8-1.4-1.8-1.5-.3 3.3 2.5 3.1 6.3 3z"/><path fill="#636463" d="M167.9 43.3c-.2.6-.2 1.2 0 1.6 1.1 2.1 2.1 2.2 3.3 1.3l2-1.5c1-.7 1.8-1.3 1.8-1.3s-.7-3.3-3.8-4.9c0 0-.7.7-1.5 1.7-.7.9-1.5 2-1.8 3.1z"/><path fill="#252524" d="M171.2 46.2c6.7 8.4 8.6 21.5 8.8 28.8.2 7.3.4 13.7 3.2 21.8 2.8 8 1.5 13.5 1.5 13.5.1-.1.1-.1.1-.2 1.4-2.1 2.5-5.8 2.9-8.5.1-1.3.1-2.1.1-2.1l2.7.7c-.3-3.6-4.6-15.2-5.1-17.2-.6-2-2.2-5.1-2.3-8.6-.1-3.5-.9-9.3-2.7-16-1.8-6.7-7.3-13.6-7.3-13.6l-1.9 1.4zm13.4 67.1c-.1.8-.3 2.1-.5 3.6-1.1 6.8-3.3 19-4.7 24.7-1.8 7-7.7 14.4-13.4 20.4-3.5 3.8-9.2 5.3-13.1 5.9-2.3.4-3.9.4-3.9.4s7.7 0 13.6-1.6c3.6-1.1 12.6-12.3 15-15.5S187 119 187 119l2.3 2.6c.4-2.4-1.2-9.1-1.3-9.6l-3.4 1.3z"/><path fill="#676A6F" d="M158.3 26.9s-.2-.1-.5-.1c-1.2-.3-4.3-.7-4.9 1.8 0 0 6.5 1.4 8.7-.9 2.2-2.2 5.1-5.7 7.6-5.2l-.1-.1c-.6-.2-2.8-1-6-.3-.5.1-.9.2-1.5.4l-3.3 4.4zm27.1 33s.1-2.4.9-3.7c.7-1.2 2.8-3.5 3.1-3.8-.7-.6-2.6-.4-2.6-.4l-3 3.9c-.4 1 1.6 4 1.6 4zm3.7 19.3c.7.3 2.4-5.1 3.7-7.1 1.3-2.1 4-4.5 4-4.5s-1.3-.8-3.2-1c-.2 0-.4-.1-.6-.1 0 0-4.6 6-4.8 9.2-.1 3 .2 3.2.9 3.5zm-4.2 30.9c-.1.1-.1.2-.2.2v.1c0 1.8-.1 2.9-.1 2.9l3.4-1.3c1.3-2.6 6.7-7.9 8.5-9.1 0 0 0-.1-.1-.1-.2-.4-.5-.8-.8-1.1l-.5-.5c-4.8 2.8-6.5 8.3-6.5 8.3l2.2-9.4-2.7-.7c0 .6 0 1.3-.2 2.1-.4 2.8-1.6 6.5-3 8.6z"/><path fill="#3E4145" d="M197.9 88.8l-3.1 3.2.2 9.3 1.5-1.4 1.8-.6s.9-5.1 1.2-6.7c.2-1.5-1.6-3.8-1.6-3.8z"/><path fill="#CCC4B7" d="M159 66.4c3.3.2 5.6-2 8 3.8v-2l2.2 3.6s2.9-7.4-4.5-8.9c-7.4-1.6-18.5-.2-21 2.2s-4.2 2.2-4.5 5.1c.1 0 16.4-4 19.8-3.8z"/><path fill="#88776A" d="M167.8 130.5s.9-8.9 2.5-13.2c1.6-4.2 4.2-8.8 3.1-11.8s.9-7 1.6-8.2c0 0-3.8 6-3.6 9.1.2 3.1-2.9 12-3.6 15.4-.7 3.4 0 8.7 0 8.7z"/><path fill="#B2ABA1" d="M109.2 22.8zm4.3 5.6l8 1-2.2-2 9.8 2v-8.7l-1-.8-.1.8-2.7-.9.6.9-3.5-1.4.2 1.4c-1.1-1.1-5.7 0-5.7 0l1.1 1.4-3.7-.4-.1 1.2-2.1-.7-1.5 1.6-.5 1.4c.5 1.2 1 2.6 1.3 3.5.1.2.1.4.2.7h1.8v-1z"/><path fill="#3E4145" d="M99.9 26.9s.2-.1.5-.1c3.2-3.9 5.1-.4 5.9 2.8.8 3.2 2.5 3.4 3.8 3.2 1-.1 1.8-1.4 1.8-1.5 0-.6-.1-1.3-.3-1.9-.1-.2-.1-.4-.2-.7-.3-.9-.8-2.3-1.3-3.5l-1-2.5-.3-.9c.8-2.1 2.5-2.9 6.5-4s13.8-1.7 13.8-1.7v-1s-12.4.3-18.5 2.1c0 0 4.5-5.9 10.3-6.5 5.8-.6 8.3-.7 8.3-.7V8.4c-5.4 0-13.8 1.6-13.8 1.6-4.7 1.1-9.8 8.9-9.8 8.9s-2.9-1.8-4.9-1.6c-1.7.2-4.5 3.7-5.3 4.8.5.1.9.2 1.5.4l3 4.4z"/><path fill="#3E4145" d="M60.4 88.8l3.1 3.2-.2 9.3-.5.5.5-.5c4.8 2.8 6.5 8.3 6.5 8.3l-2.2-9.4 2.7-.7c0 .6 0 1.3.2 2.1-.1-1.3-.1-2.1-.1-2.1l-2.7.7C68 96.6 72.3 85 72.8 83c.6-2 2.2-5.1 2.3-8.6.1-3.5.9-9.3 2.7-16 1.8-6.7 7.3-13.6 7.3-13.6-1-.7-1.8-1.3-1.8-1.3s.7-3.3 3.8-4.9c0 0 .7.7 1.5 1.7 4.3-7.7 9.8-9.6 11.7-10.2 2-.6 2 .2 2.8 1 .8.8 1 .7 1.7.8.7.1 1.5-.3.6-3.2 0 0-6.5 1.4-8.7-.9-2.2-2.2-5.1-5.7-7.6-5.2l.1-.1c-6.2 2-12.8 15.2-12.8 15.2 0 6.5-4.9 14.3-4.9 14.3l3 3.9c.3 1.1-1.6 4.1-1.6 4.1s-.1-2.4-.9-3.7c-.7-1.2-2.8-3.5-3.1-3.8h-.1c-2.9 4.2-3.6 14.1-3.6 14.1s4.6 6 4.8 9.2c.1 3.1-.1 3.3-.9 3.6-.7.3-2.4-5.1-3.7-7.1-1.3-2.1-4-4.5-4-4.5-2.5 1.1-2.9 15.9-3.1 20.5-.2 4.7 0 10.7 0 10.7l1.6.5s-.9-5.1-1.2-6.7c-.1-1.7 1.7-4 1.7-4z"/><path fill="#3E4145" d="M64.7 66.5c.2 0 .4-.1.6-.1 0 0-.2 0-.6.1zm13.8 98.2l-2.9-10.9-.7-2.7 1.2 1.8c1.5 2.1 4.3 6.1 8.7 11.2 3.8 4.5 17.8 8 29 10.3 8.5 1.7 15.4 2.6 15.4 2.6v-7.4s-3.3-.2-7.7-.5c-5.2-.3-11.8-.8-16.1-1.2 2.3.4 3.9.4 3.9.4s-7.7 0-13.6-1.6c-3.6-1.1-12.6-12.3-15-15.5S71.3 119 71.3 119l-2.3 2.6c-.4-2.4 1.2-9.1 1.3-9.6-1.3-2.6-6.7-7.9-8.5-9.1 0 0 0-.1.1-.1-.9 1.3-1.8 3.3-2 6.2-.2 5.4 6 11.8 6 11.8l3.1 13.4 2.1 13.6.9 6.2 1.2 8.1 5.3 2.6zm-5-54.3c0-.1 0-.1 0 0-.1-.1-.1-.2-.2-.2.1 0 .1.1.2.2z"/><path fill="#3E4145" d="M74.2 117c-.4-2.7-.6-4.9-.6-5.8v-.7c0 1.8.1 2.9.1 2.9.1.8.2 2 .5 3.6z"/><path fill="#141312" d="M112.2 22.2l2.1.7.1-1.2 3.7.4-1.1-1.4s4.6-1.1 5.7 0l-.2-1.4 3.5 1.4-.6-.9 2.7.9.1-.8 1 .8v-4.5s-9.8.6-13.8 1.7-5.7 1.9-6.5 4l.3.9 1 2.5.5-1.4 1.5-1.7zm8.7-11.4c-5.8.6-10.3 6.5-10.3 6.5 6.1-1.8 18.5-2.1 18.5-2.1v-5s-2.4.1-8.2.6zM90.4 43.3c.5-.6 2.5-3 5.2-5.2 2.5-2 5.6-3.8 8.7-3.9.4 0 .9 0 1.3.1 3.8.1 6.6.2 6.3-2.9 0 .1-.9 1.4-1.8 1.5-1.3.2-3 0-3.8-3.2-.8-3.2-2.7-6.7-5.9-2.8 1.2-.3 4.3-.7 4.9 1.8.9 2.9.1 3.3-.6 3.2-.7-.1-.9 0-1.7-.8-.8-.8-.8-1.6-2.8-1-2 .5-7.4 2.5-11.7 10.2.8.8 1.6 1.9 1.9 3z"/><path fill="#5D5E5D" d="M87 46.2c1.2.9 2.2.8 3.3-1.3.2-.5.2-1 0-1.6-.3-1-1.1-2.2-1.8-3.1-.8-1-1.5-1.7-1.5-1.7-3.1 1.6-3.8 4.9-3.8 4.9s.9.6 1.8 1.3l2 1.5z"/><path fill="#141312" d="M73.3 110.1c0 .1.1.1.1.2 0 0-1.3-5.5 1.5-13.5s3-14.5 3.2-21.8c.2-7.3 2.1-20.4 8.8-28.8l-2-1.5s-5.5 6.9-7.3 13.6c-1.8 6.7-2.6 12.5-2.7 16 .1 3.5-1.6 6.7-2.2 8.7-.6 2-4.8 13.6-5.1 17.2l2.7-.7s0 .9.1 2.1c.4 2.7 1.6 6.4 2.9 8.5zm5.6 31.6c-1.5-5.7-3.7-17.9-4.7-24.7-.2-1.5-.4-2.8-.5-3.6l-3.4-1.3c-.1.5-1.8 7.2-1.3 9.6l2.3-2.6s7.1 29 9.4 32.3 11.4 14.4 15 15.5c5.9 1.6 13.6 1.6 13.6 1.6s-1.6 0-3.9-.4c-3.8-.6-9.5-2.1-13.1-5.9-5.7-6.1-11.6-13.5-13.4-20.5z"/><path fill="#53565B" d="M96.7 27.7c2.2 2.2 8.7.9 8.7.9-.6-2.5-3.7-2.1-4.9-1.8-.3.1-.5.1-.5.1l-3.3-4.4c-.5-.2-1-.3-1.5-.4-3.2-.6-5.4.1-6 .3-.1 0-.1.1-.1.1 2.5-.4 5.3 3 7.6 5.2zM72.9 59.9s1.9-3 1.6-4.1l-3-3.9s-1.9-.2-2.6.4c.3.3 2.4 2.6 3.1 3.8.8 1.4.9 3.8.9 3.8zM65.4 72c1.3 2.1 3 7.4 3.7 7.1.7-.3 1-.4.9-3.6-.1-3.1-4.8-9.2-4.8-9.2-.2 0-.4 0-.6.1-1.9.3-3.2 1-3.2 1s2.7 2.5 4 4.6zm8.2 41.3s-.1-1.1-.1-2.9v-.1c-.1-.1-.1-.2-.2-.2-1.4-2.1-2.5-5.8-2.9-8.5-.1-.8-.2-1.5-.2-2.1l-2.7.7 2.2 9.4s-1.7-5.5-6.5-8.3l-.5.5c-.3.3-.7.7-.8 1.1 0 0 0 .1-.1.1 1.8 1.1 7.1 6.5 8.5 9.1l3.3 1.2z"/><path fill="#34373A" d="M63.3 101.3l.2-9.3-3.1-3.2s-1.8 2.3-1.6 3.9c.2 1.6 1.2 6.7 1.2 6.7l1.8.6 1.5 1.3z"/><path fill="#B2ABA1" d="M89.1 71.8l2.2-3.6v2c1.2-2.8 2.3-3.7 3.6-4 1.1-.2 2.2.1 3.6.2h.9c.9-.1 2.6.2 4.6.5 6 1 15 3.3 15 3.3-.2-2.9-2-2.7-4.5-5.1-2.4-2.4-13.1-3.7-20.4-2.3-.2 0-.4.1-.5.1-7.4 1.5-4.5 8.9-4.5 8.9z"/></svg>