<svg xmlns="http://www.w3.org/2000/svg" width="256" height="256"><circle fill="#B1B3B5" cx="128" cy="128" r="128"/><path fill="#CCAD9F" d="M140 210.9c4.5-7 10.1-15.5 14.2-21.2 7.8-11.2 5.3-41.3 4.6-49.5v-.1c-3.3 4.5-7.5 8.7-11.9 12.5-8.2 7-18.5 7.5-18.5 7.5v51.8l11.6-1z"/><path fill="#0E151A" d="M128.3 226.8h1.6l2.4-4.1s3.3-5.2 7.6-11.8l-11.6.9v15z"/><path fill="#101D29" d="M226.7 184.5c-8.2-5.7-5.3-7.7-21.4-10.5-10.3-1.8-23.5-7.4-31.7-11.1-.4 6.5-1.6 15-5.4 22-7.2 13.4-12.6 21-17.5 24.6-4.8 3.6-18.2 20-18.2 20V256c43.2-1.5 81-24.5 103-58.6-4.3-9.6-8.8-12.9-8.8-12.9z"/><path fill="#0A0F11" d="M167.8 111c-.8 4.7-1.6 9.2-2.2 12.5 5.2-7.4 6.9-13.8 7.4-16.5-1.1 1.6-2.5 3.1-5.2 4z"/><path fill="#CCAD9F" d="M178.6 79.2c0-.1 0-.1 0 0l-.1 5.1-1.9-1.7s-.5 6.9-.5 7.7-1.6-1.9-1.6-1.9l-1.6 6-.8-6.9s.5 11-.8 15.1c0 0-.3-2.4-1.1-6.3-.7 4.6-1.6 9.9-2.4 14.8 2.6-.9 4-2.5 5.2-3.9.5-.7 1-1.3 1.6-1.9 2.4-2.6 4.7-8.3 4.4-11.8s3.2-8 2.1-12.5c0-.1 0-.1-.1-.2l.1 2-2.5-3.6z"/><path fill="#DEBCAD" d="M137.8 85.3c-2.2-1.7-4.5-3.8-6.3-6.3 0 0 2.3 3.5 5.8 7.5.1-.6.2-1 .5-1.2zm.9-.4c.8-.1 1.8.2 1.8.2.6 0 1.3 0 1.9-.1-.5-.4-1-.8-1.5-1.3l-5.6-2.8c1.1 1.4 2.2 2.8 3.4 4zm11.7-6.4l2.4 3.4c.5-.2.9-.4 1.2-.6l-3.6-2.8zm16.7 12.7s-1.2-2.7-3.2-6.7h-.2l3.4 6.7zm-3.6-7.3c-1-2-2.3-4.4-3.7-6.9l3.5 6.8.2.1z"/><path fill="#DEBCAD" d="M170.3 96.2c-.9-4.3-2.4-10.3-5-17.1l-.1 5.6.2.1h-.2v.2c1.1 2.6 1.8 4.7 2 6.2l-4.3-3.3c1.3 2.6 2.4 5.1 3.2 7.5 0 0-3.2-4.7-7.8-11.1l-1.4-1.1-2.5.6 8.2 11.5s-2.4-2.2-6-5.6l-6-4.9-.2.1L162.6 99s-8.6-4.7-18.3-12.6l-3.1.8c.5.4 1 .8 1.4 1.1 1.2.7 2 1.1 2 1.1-.7-.2-1.3-.6-2-1.1-.5-.3-1.1-.6-1.7-1l-2.2.6c3.4 3.7 7.8 7.4 12.3 9 0 0-14.4-4.3-20.6-12.7 0 0 2.1 8.1 10.7 14.1 0 0-9.4-4.1-12.8-9.8v48s1.5.2 2.8-.8c2-.8 4.7-.1 6.1 1.3 2.8 2.2 3.1 2.9 6 3.8 0 0-2.6 4-15 4V160s10.3-.4 18.5-7.5c4.4-3.8 8.6-8 11.9-12.5l4.2-7.1c.7-1.6 1.3-3.3 1.7-5 .3-1.1.6-2.6.9-4.4.7-3.4 1.4-7.8 2.2-12.5 1.1-4.9 1.9-10.1 2.7-14.8z"/><path fill="#9D4D5E" d="M143.3 140.8c-2.9-.9-3.2-1.6-6-3.8-1.5-1.4-4.1-2.1-6.1-1.3-1.4 1-2.8.8-2.8.8v8.2c12.3.1 14.9-3.9 14.9-3.9z"/><path fill="#515B5B" d="M132.6 229.4s13.4-16.4 18.2-20c4.8-3.6 10.2-11.2 17.5-24.6 3.7-6.9 5-15.4 5.4-22 .3-6.1-.1-10.5-.1-10.5l-3.2-3.6v.5c.7 3 1.2 6.2 1 9.4-.7 12.8-1.8 21.4-9.3 34.2-7.5 12.8-19.4 21.5-24.1 26.9-2.9 3.4-6 6.4-7.8 8.1v1.5h1.4v9.9h-3.2V256c1.4 0 2.9 0 4.3-.1v-26.5z"/><path fill="#22333F" d="M158.7 140.1c.7 8.3 3.2 38.4-4.6 49.6-4 5.7-9.6 14.3-14.2 21.2-4.3 6.6-7.6 11.8-7.6 11.8l-2.4 4.1h.2v1c1.9-1.7 4.9-4.7 7.8-8.1 4.6-5.4 16.6-14.2 24.1-26.9 7.5-12.8 8.5-21.4 9.3-34.2.2-3.2-.3-6.4-1-9.4-2.2-9-7.3-16.2-7.3-16.2l-4.3 7.1z"/><path fill="#354040" d="M128.3 233.6v5.6h3.2v-9.9h-1.4v4.3z"/><path fill="#B0B0AC" d="M130.1 226.8h-1.8v6.8h1.8v-5.8z"/><path fill="#B49A8E" d="M128.3 160s-10.3-.4-18.5-7.5c-4.4-3.8-8.6-8-11.9-12.5v.1c-.7 8.2-3.3 38.4 4.6 49.5 4 5.7 9.6 14.3 14.2 21.2l11.6.9V160z"/><path fill="#0E151A" d="M128.3 211.8l-11.6-.9c4.3 6.6 7.6 11.8 7.6 11.8l2.4 4.1h1.6v-15z"/><path fill="#081622" d="M124.1 229.4s-9.1-11.2-15-17.1c-12.4-8.6-32.3-21.8-37.7-31.1 6.9-12.6 8.2-11.4 11.8-18v-.4c-8.2 3.7-21.4 9.3-31.7 11.1-16 2.9-13.9 4.8-22 10.5 0 0-4.5 3.3-8.9 12.9 22.1 34.3 60.2 57.3 103.7 58.6v-26.5z"/><path fill="#0A0F11" d="M83.7 107.1c.5 2.6 2.2 9.1 7.4 16.5-.7-3.4-1.4-7.8-2.2-12.5-2.7-1-4.1-2.5-5.2-4z"/><path fill="#B49A8E" d="M85.7 94.5c-1.1-4.2-2.6-10.9-2.8-15.1h-.2L81 82.9v-3.7c-2.6-.3-5 0-5.4 1.9-1.1 4.5 2.5 8.9 2.1 12.5v.1c1.8-1.4 4-1.7 4-1.7l4 2.5zm.6 2.2c-.2 1-.6 2.4-1.5 3.7l2.6 2.1c-.2-1.5-.5-2.9-.7-4.3 0 0-.1-.6-.4-1.5zm2.5 14.3c-.3-1.6-.5-3.2-.8-4.9l-4.9-3.9c-.6.5-1.4 1-2.3 1.5.4.6.8 1.1 1.2 1.5.5.6 1 1.2 1.6 1.9 1.2 1.5 2.6 3 5.2 3.9z"/><path fill="#CCAD9F" d="M118.5 85c-1.8-2.6-3.8-5.7-5.5-9.2l2.8 9.3h.7c-.1 0 1.1-.3 2-.1z"/><path fill="#CCAD9F" d="M97.9 140.1c3.3 4.5 7.5 8.7 11.9 12.5 8.2 7 18.5 7.5 18.5 7.5v-15.2c-12.4 0-15-4-15-4 2.9-.9 3.2-1.6 6-3.8 1.5-1.4 4.1-2.1 6.1-1.3 1.4 1 2.8.8 2.8.8v-48s-9.1-11.3-13.5-23c2.6 8.2 7.9 24.4 10.3 27.6 0 0-2.5-2.5-5.7-6.8v.2s1 1.3-.8 1.6l-18.2-4.7-8.4 1.4 8.9-4.5s6.7 4.5 14.2 4.8c-3.4-4.7-16.5-23.7-15.4-40.3 0 0-2.8 26.7-11 36.2 0 0 3.7-14.9 3.5-20L86 84.8V86l.6 12.2c.2 1.4.5 2.8.7 4.3l8.2 6.6s.2 2-2 1.6l-5.7-4.5c.3 1.6.5 3.3.8 4.9.8 4.7 1.6 9.2 2.2 12.5.3 1.8.7 3.3.9 4.4.4 1.7 1 3.3 1.7 5l4.5 7.1z"/><path fill="#884251" d="M125.5 135.8c-2-.8-4.7-.1-6.1 1.3-2.8 2.2-3.1 2.9-6 3.8 0 0 2.6 4 15 4v-8.2c-.1-.1-1.5.1-2.9-.9z"/><path fill="#424B4C" d="M128.3 239.2h-3.2v-9.9h1.4v-1.5c-1.9-1.7-4.9-4.7-7.8-8.1-1.3-1.5-4.9-4.1-9.7-7.5 5.9 5.9 15 17.1 15 17.1v26.5c1.3 0 2.6.1 3.9.1h.3v-16.7zm-42.9-80.6c1.8-4 3.4-8.2 4.6-12l-6.8 5.7s-.5 4.4-.1 10.5v.4c.7-1.2 1.4-2.7 2.3-4.6z"/><path fill="#1A2A35" d="M83.1 163.2c-3.6 6.6-4.8 5.4-11.8 18 5.4 9.2 25.3 22.4 37.7 31.1 4.7 3.3 8.4 6 9.7 7.5 2.9 3.4 6 6.4 7.8 8.1v-1h.2l-2.4-4.1s-3.3-5.2-7.6-11.8c-4.5-7-10.1-15.5-14.2-21.2-7.8-11.2-5.3-41.3-4.6-49.5v-.1l-4.2-7.1s-1.3 6.1-3.7 13.6c-1.2 3.8-2.8 8-4.6 12-.9 1.8-1.6 3.3-2.3 4.5z"/><path fill="#283333" d="M126.6 233.6v-4.3h-1.5v9.9h3.2v-5.6z"/><path fill="#8A8B88" d="M128.3 233.6v-6.8h-1.7v6.8z"/><path fill="#242A2F" d="M76.9 97.3s-.3-1.6 1.5-2l6.4 5.1c.9-1.3 1.3-2.7 1.5-3.7-.2-.6-.4-1.3-.6-2.2l-4-2.6s-2.1.3-4 1.7c-.5.4-1.1.9-1.5 1.6-1.8 2.8-1.2 6.6-1.2 6.6l5.1 2.4c.3-.1.5-.2.7-.3.9-.4 1.6-.9 2.3-1.5l-6.2-5.1z"/><path fill="#3D4349" d="M78.4 95.3c-1.8.4-1.5 2-1.5 2l6.3 5 4.9 3.9 5.7 4.5c2.1.4 2-1.6 2-1.6l-8.2-6.6-2.6-2.1-6.6-5.1z"/><path fill="#1F2425" d="M116.4 85.1h-.7l.3 1.1s-.3-.4-.8-1.1c-7.5-.4-14.2-4.8-14.2-4.8l-8.9 4.5 8.4-1.4 18.2 4.7c1.9-.3.8-1.6.8-1.6v-.2c-.3-.4-.6-.9-1-1.3-.9-.2-2.1.1-2.1.1z"/><path fill="#2B3032" d="M154.1 81.3l-1.2.6 1.5 2.1 2.5-.6-2.8-2.1zm-15.4 3.6c.8.9 1.7 1.7 2.5 2.4l3.1-.8c-.6-.5-1.2-1-1.9-1.5-.6.1-1.3.1-1.9.1 0 0-1-.3-1.8-.2zm11-.6l.6.7h.3zm-12.3 2.2c.4.5.9 1 1.3 1.5l2.2-.6c-.9-.6-2-1.3-3.1-2.1-.3.2-.4.6-.4 1.2zm27.9-1.7l-.2-.1v.1zm-1.6-.3h.2l-.3-.6-.2-.1.3.7z"/><path fill="#0A0F11" d="M82.8 79.4l.2-.4v.4c.1 4.2 1.7 10.9 2.8 15.1.2.9.4 1.6.6 2.2.3.9.4 1.5.4 1.5L86.1 86v-1.2l6.1-23.7c.3 5-3.5 20-3.5 20 8.3-9.5 11-36.2 11-36.2-1.1 16.6 11.9 35.6 15.4 40.3.5.7.8 1.1.8 1.1l-.3-1.1-2.8-9.3c1.8 3.5 3.7 6.6 5.5 9.2.3.5.7.9 1 1.3 3.1 4.3 5.7 6.8 5.7 6.8-2.4-3.2-7.7-19.4-10.3-27.6 4.4 11.7 13.5 23 13.5 23V8.4C83.5 8.4 82.9 39 80.5 44.8c-2.4 5.7 2.1 8.6-1.1 14.4C76.2 64.9 81 79 81 79v3.8l1.8-3.4zm52.5 1.5l5.6 2.8c-4.4-3.8-8.8-8.2-12.6-13.1 0 0 3.1 5.3 7 10.3zm21.2 9c-3.9-3.7-9-8.7-13.8-13.7l7 8.1.9.7 5.9 4.9zm10.6 1.3l-3.4-6.7-.3-.7-3.5-6.8c-5.9-10.7-14.8-24.5-23.5-30.3l13.9 18-15.8-15.8s19 20.3 28.3 39.1l4.3 3.2zm-10.3-7.8l1.4 1.1c-7.9-11-19.9-26.9-26.1-31.8l18.3 25.8 3.7 2.8 2.7 2.1zm8.3 1.3l.1-5.6c-3.5-9.3-8.9-20-17.1-29.3-17.3-19.5 9.3 17.4 17 35.2v-.3z"/><path fill="#13181A" d="M142.6 88.5c.7.5 1.4.9 2 1.1 0 0-.8-.4-2-1.1z"/><path fill="#13181A" d="M141.2 98.4c-8.5-6-10.7-14.1-10.7-14.1C136.6 92.7 151 97 151 97c-4.5-1.6-8.9-5.3-12.3-9-.5-.5-.9-1-1.3-1.5-3.5-4-5.8-7.5-5.8-7.5 1.7 2.5 4.1 4.6 6.3 6.3 1.1.8 2.1 1.5 3.1 2.1.6.4 1.2.7 1.7 1-.5-.3-.9-.7-1.4-1.1-.8-.7-1.7-1.5-2.5-2.4-1.2-1.2-2.3-2.6-3.4-4-3.9-5-7-10.3-7-10.3v18c3.4 5.7 12.8 9.8 12.8 9.8z"/><path fill="#13181A" d="M128.3 70.6c3.8 4.9 8.2 9.3 12.6 13.1.5.4 1 .9 1.5 1.3.6.5 1.2 1 1.9 1.5 9.7 7.9 18.3 12.6 18.3 12.6L150.3 85l-.7-.8-7-8.1c4.8 5 10 10 13.8 13.7 3.6 3.4 6 5.6 6 5.6l-8-11.4-1.5-2.1-2.4-3.4-18.3-25.8c6.3 4.9 18.2 20.8 26.1 31.8 4.6 6.3 7.8 11.1 7.8 11.1-.8-2.4-1.9-5-3.2-7.5-9.3-18.8-28.3-39.1-28.3-39.1l15.8 15.8-13.9-18c8.7 5.8 17.6 19.6 23.5 30.3 1.4 2.5 2.6 4.9 3.7 6.9l.3.6c2 4 3.2 6.7 3.2 6.7-.1-1.5-.8-3.7-2-6.2-7.7-17.8-34.3-54.7-17-35.2 8.2 9.3 13.6 20 17.1 29.3 2.6 6.8 4.1 12.9 5 17.1.8 3.9 1.1 6.3 1.1 6.3 1.3-4.1.8-15.1.8-15.1l.8 6.9 1.6-6s1.6 2.6 1.6 1.9.5-7.7.5-7.7l1.9 1.7V79l.1.1 2.5 3.7-.1-2v-.4c1.1-30.7-2.7-38.3-13.9-54.4S128.3 8.4 128.3 8.4v62.2z"/></svg>