<svg xmlns="http://www.w3.org/2000/svg" width="256" height="256"><circle fill="#B1B3B5" cx="128" cy="128" r="128"/><path fill="#908376" d="M77.1 83.9c-.5-2.1-.8-3.8-.8-4.6 0-5-3.4-32.6 13.7-51.7 15.9-18 35.4-18 37.8-18l.2-1.1v-.1c-.5 0-24.6-1.3-36.8 14.4C79 38.6 69.5 52.4 69.8 65.7c.1 4.2.9 10.6 2.2 17.8 1.6-.8 3.4-.4 5.1.4zm24.6 72c0-1.6 1.3-2.9 2.9-2.9h.2c-4.3-3-7.8-6.4-11.2-9.4-3.8-3.4-6.3-11.6-8.1-22.2-.7-.1-1.4-.3-2.1-.9-.6.6-1.4 1-2.2 1 1 3.2 2 6 3 8.3 2.5 6.1 9.4 19.8 17.7 28.4.2-.1.5-.3.7-.4-.6-.4-.9-1.1-.9-1.9z"/><path fill="#777574" d="M104.5 153c-1.6 0-2.9 1.3-2.9 2.9 0 .8.3 1.5.8 2 .3-.1.5-.3.8-.4.3-.6.8-1.1 1.5-1.4.1-1 .2-2 .2-2.9-.1-.1-.2-.1-.2-.2h-.2z"/><path fill="#79808C" d="M54.3 188.9c-12.8 3.3-24 6.5-30.9 12.9 18.5 26.1 46.5 45 78.9 51.6l-16.9-76.5c-7.4 3.7-19.2 9-31.1 12z"/><path fill="#BEA195" d="M127.3 195.3c-1.1 1.2-2.9 1.2-4.1.2-1.1-1-1.2-2.6-.4-3.8-1.1.9-2.7.9-3.8-.1-1.2-1.1-1.2-2.9-.2-4.1 1.1-1.2 2.9-1.2 4.1-.2 1.1 1 1.2 2.6.4 3.8 1.1-.9 2.7-.9 3.8.1.4.4.7.9.8 1.4v-32.2c-9.9 0-17.1-3.2-23-7.2-.1 1-.1 1.9-.2 2.9.3-.1.7-.2 1.1-.2 1.6 0 2.9 1.3 2.9 2.9 0 .6-.2 1.2-.6 1.7 1.6 0 2.8 1.3 2.8 2.9 0 1.2-.7 2.2-1.7 2.6.3-.1.6-.2 1-.2 1.6 0 2.9 1.3 2.9 2.9s-1.3 2.9-2.9 2.9-2.9-1.3-2.9-2.9c0-1.2.7-2.2 1.7-2.6-.3.1-.6.2-1 .2-1.6 0-2.9-1.3-2.9-2.9 0-.6.2-1.2.6-1.7-.4 0-.7-.1-1.1-.2 1.5 20.9 15.8 74.8 21.2 94.6h2v-62c.1.3-.1.8-.5 1.2zm-17.8-21.2c0-1.6 1.3-2.9 2.9-2.9s2.9 1.3 2.9 2.9-1.3 2.9-2.9 2.9-2.9-1.3-2.9-2.9zm2.2 5.6c0-1.6 1.3-2.9 2.9-2.9s2.9 1.3 2.9 2.9-1.3 2.9-2.9 2.9-2.9-1.3-2.9-2.9zm3.8 7.2c-1.2-1.1-1.2-2.9-.2-4.1 1.1-1.2 2.9-1.2 4.1-.2s1.2 2.9.2 4.1c-1.1 1.3-2.9 1.3-4.1.2z"/><path fill="#62676A" d="M103 158.8c0-.4.1-.9.3-1.2-.2.1-.5.2-.8.4-.2.1-.5.2-.7.4-4.9 2.6-14.6 8.7-17 16.1l.6 2.5 16.9 76.5c7.6 1.6 15.5 2.4 23.6 2.5-5.4-19.8-19.8-73.7-21.2-94.6-1-.4-1.7-1.4-1.7-2.6z"/><path fill="#BEA195" d="M83.4 120.5c.7.6 1.3.8 2.1.9-.2-1.4-.5-2.8-.7-4.3 0 1.4-.6 2.6-1.4 3.4zm-.4-19.3c-.3-3.5-.6-7.2-.9-10.8-.1 3.8.1 7.4.9 10.8zm-1.9 11.1c1.5 0 2.9 1.2 3.5 2.8-.4-2.8-.7-5.7-1-8.7-1.3-3.3-4.8-15.5-6.4-22.5-1.7-.8-3.6-1.2-5.1-.4-4.3 2.3-1.2 6.9 0 12.2 1.3 5.3 2 10.1 6.4 17.8.7-.7 1.6-1.2 2.6-1.2z"/><path fill="#CCAD9F" d="M113.6 133.7c2.8-.9 3.1-1.7 5.8-4 1.4-1.5 3.9-2.3 5.9-1.4 1.2 1 2.5.9 2.7.9V32.8c-.5.4-6.2 4.6-21.7 11.7C92.7 50.7 82.5 71.8 82 90.4l.9 10.8c1.3 6.1 1.2 7 .5 5.2.3 3 .7 5.9 1 8.7.2.6.3 1.2.3 1.8v.2c.2 1.5.4 2.9.7 4.3 1.8 10.5 4.3 18.8 8.1 22.2 3.4 3 6.9 6.5 11.2 9.4.1.1.2.1.2.2 5.9 4.1 13.1 7.2 23 7.2V138c-11.8 0-14.3-4.3-14.3-4.3zm-23-56.3s10.7-8.9 21.9-6.1c0 0 5.8.9 3.1 3.3-2.7 2.5-3.9-2.1-12.4-.6s-12.6 3.4-12.6 3.4z"/><path fill="#746353" d="M115.6 74.7c2.7-2.5-3.1-3.3-3.1-3.3-11.2-2.8-21.9 6.1-21.9 6.1s4.1-1.9 12.6-3.3 9.7 3 12.4.5z"/><path fill="#884251" d="M125.3 128.3c-2-.9-4.5-.1-5.9 1.4-2.7 2.4-2.9 3.1-5.8 4 0 0 2.5 4.2 14.3 4.3v-8.8c-.1 0-1.4.1-2.6-.9z"/><path fill="#A89888" d="M83 101.2c-.7-3.4-1-7.1-.9-10.8.5-18.6 10.7-39.7 24.3-45.9 15.5-7.1 21.2-11.3 21.7-11.7V9.6h-.2c-2.4-.1-21.8 0-37.8 18C73 46.7 76.4 74.2 76.4 79.3c0 .8.3 2.5.8 4.6 1.5 7.1 5 19.3 6.4 22.5.6 1.8.7.9-.6-5.2z"/><path fill="#987E25" d="M83.4 120.5c.8-.8 1.4-2 1.4-3.4v-.2c0-.7-.1-1.3-.3-1.8-.6-1.7-1.9-2.8-3.5-2.8-1 0-1.9.5-2.6 1.3-.7.8-1.2 2-1.2 3.4 0 2.6 1.7 4.7 3.8 4.7h.1c.9-.2 1.7-.6 2.3-1.2z"/><path fill="#989593" d="M103.3 157.5c-.2.4-.3.8-.3 1.2 0 1.2.7 2.2 1.8 2.6.3.1.7.2 1.1.2.5-.7 1.4-1.2 2.3-1.2.3-.5.6-1.1.6-1.7 0-1.6-1.3-2.9-2.9-2.9-.4 0-.8.1-1.1.2-.7.5-1.2 1-1.5 1.6z"/><path fill="#989593" d="M105.8 161.6c-.3.5-.6 1.1-.6 1.7 0 1.6 1.3 2.9 2.9 2.9.3 0 .7-.1 1-.2.1 0 .1 0 .2-.1 1-.4 1.7-1.5 1.7-2.6 0-1.6-1.3-2.8-2.8-2.9-1 0-1.9.5-2.4 1.2z"/><path fill="#989593" d="M107.4 168.7c0 1.6 1.3 2.9 2.9 2.9s2.9-1.3 2.9-2.9-1.3-2.9-2.9-2.9c-.3 0-.7.1-1 .2-.1 0-.1 0-.2.1-1 .4-1.7 1.4-1.7 2.6z"/><path fill="#989593" d="M115.2 174.1c0-1.6-1.3-2.9-2.9-2.9s-2.9 1.3-2.9 2.9 1.3 2.9 2.9 2.9 2.9-1.3 2.9-2.9zm2.3 5.6c0-1.6-1.3-2.9-2.9-2.9s-2.9 1.3-2.9 2.9 1.3 2.9 2.9 2.9 2.9-1.3 2.9-2.9z"/><path fill="#989593" d="M119.4 182.7c-1.2-1.1-3-1-4.1.2-1.1 1.2-1 3 .2 4.1 1.2 1.1 3 1 4.1-.2 1-1.2 1-3-.2-4.1z"/><path fill="#989593" d="M123.4 191.1c.8-1.2.7-2.8-.4-3.8-1.2-1.1-3-1-4.1.2-1.1 1.2-1 3 .2 4.1 1.1 1 2.7 1 3.8.1.1-.1.1-.2.2-.3l.3-.3z"/><path fill="#989593" d="M123.4 191.1c-.1.1-.2.1-.3.2s-.1.2-.2.3c-.8 1.2-.7 2.8.4 3.8 1.2 1.1 3 1 4.1-.2.4-.4.6-.8.7-1.3v-1.4c-.1-.5-.4-1-.8-1.4-1.2-.9-2.9-.9-3.9 0z"/><path fill="#A89888" d="M172.6 120.5c-.7.6-1.3.8-2.1.9-1.8 10.5-4.3 18.8-8.1 22.2-3.4 3-6.9 6.5-11.2 9.4h.2c1.6 0 2.9 1.3 2.9 2.9 0 .8-.3 1.5-.8 2 .2.1.5.2.7.4 8.2-8.7 15.2-22.4 17.7-28.4 1-2.4 2-5.2 3-8.3-.9-.1-1.7-.5-2.3-1.1zM128 8.5l.2 1.1c2.4-.1 21.8 0 37.8 18 17 19.2 13.7 46.7 13.7 51.7 0 .8-.3 2.5-.8 4.6 1.7-.8 3.6-1.2 5.1-.4 1.3-7.3 2.1-13.7 2.2-17.8.3-13.3-9.2-27.1-21.5-42.9C152.6 7.1 128.5 8.3 128 8.4v.1z"/><path fill="#C1BBB9" d="M151.5 153h-.2c-.1.1-.2.1-.2.2.1 1 .1 1.9.2 2.9.6.3 1.2.8 1.5 1.4.2.1.5.2.8.4.5-.5.8-1.2.8-2-.1-1.6-1.4-2.9-2.9-2.9z"/><path fill="#89919F" d="M170.6 176.9l-16.9 76.5c32.5-6.6 60.5-25.5 78.9-51.6-6.9-6.4-18-9.6-30.9-12.9-11.9-3-23.7-8.3-31.1-12z"/><path fill="#CCAD9F" d="M150.2 161.6c.3.5.6 1.1.6 1.7 0 1.6-1.3 2.9-2.9 2.9-.3 0-.7-.1-1-.2 1 .4 1.7 1.5 1.7 2.6 0 1.6-1.3 2.9-2.9 2.9s-2.9-1.3-2.9-2.9 1.3-2.9 2.9-2.9c.3 0 .7.1 1 .2-1-.4-1.7-1.5-1.7-2.6 0-1.6 1.3-2.8 2.8-2.9-.3-.5-.6-1.1-.6-1.7 0-1.6 1.3-2.9 2.9-2.9.4 0 .8.1 1.1.2-.1-1-.2-2-.2-2.9-5.9 4.1-13.1 7.2-23 7.2V138v55c.1-.6.4-1.2.9-1.7 1.1-1 2.7-1 3.8-.1-.8-1.2-.7-2.8.4-3.8 1.2-1.1 3-1 4.1.2 1.1 1.2 1 3-.2 4.1-1.1 1-2.7 1-3.8.1.8 1.2.7 2.8-.4 3.8-1.2 1.1-3 1-4.1-.2-.4-.4-.6-.9-.7-1.5v62.2h2c5.4-19.8 19.8-73.7 21.2-94.6-.3.1-.6.1-1 .1zm-9.7 25.3c-1.2 1.1-3 1-4.1-.2-1.1-1.2-1-3 .2-4.1s3-1 4.1.2c1 1.3 1 3.1-.2 4.1zm.9-4.3c-1.6 0-2.9-1.3-2.9-2.9s1.3-2.9 2.9-2.9 2.9 1.3 2.9 2.9-1.3 2.9-2.9 2.9zm2.3-5.6c-1.6 0-2.9-1.3-2.9-2.9s1.3-2.9 2.9-2.9 2.9 1.3 2.9 2.9-1.4 2.9-2.9 2.9z"/><path fill="#71777A" d="M171.2 174.4c-2.4-7.5-12.1-13.5-17-16.1-.2-.1-.5-.3-.7-.4-.3-.1-.5-.3-.8-.4.2.4.3.8.3 1.2 0 1.2-.7 2.2-1.8 2.6-1.5 20.9-15.8 74.8-21.2 94.6 8.1-.1 16-1 23.6-2.5l16.9-76.5.7-2.5z"/><path fill="#CCAD9F" d="M172.6 120.5c-.8-.8-1.4-2-1.4-3.4-.2 1.5-.4 2.9-.7 4.3.7-.1 1.4-.3 2.1-.9zm6.3-36.6c-1.5 7.1-5 19.3-6.4 22.5-.3 3-.7 5.9-1 8.7.6-1.7 1.9-2.8 3.5-2.8 1 0 1.9.5 2.6 1.3 4.4-7.7 5.2-12.5 6.4-17.8 1.3-5.3 4.3-9.9 0-12.2-1.6-.9-3.4-.5-5.1.3zm-5 6.5l-.9 10.8c.8-3.4 1-7 .9-10.8z"/><path fill="#DEBCAD" d="M162.5 143.6c3.8-3.4 6.3-11.6 8.1-22.2.2-1.4.5-2.8.7-4.3v-.2c0-.7.1-1.3.3-1.8.4-2.8.7-5.7 1-8.7-.7 1.8-.8.9.5-5.2.3-3.5.6-7.2.9-10.8-.5-18.6-10.7-39.7-24.3-45.9-16.3-7.4-21.7-11.7-21.7-11.7v96.3s1.4.2 2.7-.9c2-.9 4.5-.1 5.9 1.4 2.7 2.4 2.9 3.1 5.8 4 0 0-2.5 4.3-14.4 4.3v22.5c9.9 0 17.1-3.2 23-7.2.1-.1.2-.1.2-.2 4.3-2.9 7.9-6.4 11.3-9.4zm-22.1-68.9c-2.7-2.5 3.1-3.3 3.1-3.3 11.2-2.8 21.9 6.1 21.9 6.1s-4.1-1.9-12.6-3.3-9.7 3-12.4.5z"/><path fill="#83705F" d="M152.8 74.1c8.5 1.5 12.6 3.3 12.6 3.3s-10.7-8.9-21.9-6.1c0 0-5.8.9-3.1 3.3 2.7 2.6 3.9-2 12.4-.5z"/><path fill="#9D4D5E" d="M142.4 133.7c-2.8-.9-3.1-1.7-5.8-4-1.4-1.5-3.9-2.3-5.9-1.4-1.3 1.1-2.7.9-2.7.9v8.8c11.9 0 14.4-4.3 14.4-4.3z"/><path fill="#BEAA96" d="M128 9.6v23.2s5.4 4.3 21.7 11.7c13.6 6.2 23.8 27.3 24.3 45.9.1 3.7-.2 7.4-.9 10.8-1.3 6.1-1.2 7-.5 5.2 1.3-3.3 4.8-15.5 6.4-22.5.5-2.1.8-3.8.8-4.6 0-5 3.4-32.6-13.7-51.7-15.9-18-35.4-18-37.8-18h-.3z"/><path fill="#B6952F" d="M174.9 112.3c-1.5 0-2.9 1.2-3.5 2.8-.2.6-.3 1.2-.3 1.8v.2c.1 1.4.6 2.6 1.4 3.4.6.6 1.4 1 2.2 1h.1c2.1 0 3.8-2.1 3.8-4.7 0-1.3-.4-2.5-1.2-3.4-.6-.6-1.5-1.1-2.5-1.1z"/><path fill="#CBC5C1" d="M151.3 156.1c-.3-.1-.7-.2-1.1-.2-1.6 0-2.9 1.3-2.9 2.9 0 .6.2 1.2.6 1.7 1 0 1.8.5 2.3 1.2.4 0 .7-.1 1.1-.2 1-.4 1.8-1.5 1.8-2.6 0-.4-.1-.9-.3-1.2-.4-.8-.9-1.3-1.5-1.6z"/><path fill="#CBC5C1" d="M147.9 160.4c-.1 0-.1.1 0 0-1.6 0-2.9 1.3-2.9 2.9 0 1.2.7 2.2 1.7 2.6.1 0 .1 0 .2.1.3.1.6.2 1 .2 1.6 0 2.9-1.3 2.9-2.9 0-.6-.2-1.2-.6-1.7-.5-.7-1.4-1.2-2.3-1.2zm-2.1 5.4c-1.6 0-2.9 1.3-2.9 2.9s1.3 2.9 2.9 2.9 2.9-1.3 2.9-2.9c0-1.2-.7-2.2-1.7-2.6-.1 0-.1 0-.2-.1-.4-.1-.7-.2-1-.2z"/><path fill="#CBC5C1" d="M143.7 171.2c-1.6 0-2.9 1.3-2.9 2.9s1.3 2.9 2.9 2.9 2.9-1.3 2.9-2.9-1.4-2.9-2.9-2.9zm-2.3 5.7c-1.6 0-2.9 1.3-2.9 2.9s1.3 2.9 2.9 2.9 2.9-1.3 2.9-2.9-1.3-2.9-2.9-2.9z"/><path fill="#CBC5C1" d="M136.6 182.7c-1.2 1.1-1.2 2.9-.2 4.1 1.1 1.2 2.9 1.2 4.1.2 1.2-1.1 1.2-2.9.2-4.1-1.1-1.2-2.9-1.2-4.1-.2z"/><path fill="#CBC5C1" d="M133.1 191.7c1.1.9 2.7.9 3.8-.1 1.2-1.1 1.2-2.9.2-4.1-1.1-1.2-2.9-1.2-4.1-.2-1.1 1-1.2 2.6-.4 3.8.1.1.2.1.3.2s.2.3.2.4z"/><path fill="#CBC5C1" d="M128 193.8c.1.5.3 1.1.7 1.5 1.1 1.2 2.9 1.2 4.1.2 1.1-1 1.2-2.6.4-3.8-.1-.1-.1-.2-.2-.3s-.2-.2-.3-.2c-1.1-.9-2.7-.9-3.8.1-.5.5-.8 1.1-.9 1.7-.1.2-.1.5 0 .8z"/></svg>