<svg xmlns="http://www.w3.org/2000/svg" width="256" height="256"><circle fill="#B1B3B5" cx="128" cy="128" r="128"/><path fill="#252225" d="M167.6 159.8l-1 8.7-1.5 13.1-.6 4.8-.8 6.4c2.4-2.5 4.2-4.6 5.1-6.1 4.5-7.8 2.2-29 1.9-31.4l-1.8 3.3-1.3 1.2z"/><path fill="#4C567D" d="M156 172.9l9 8.7 1.5-13.1zm0 0l-.7-4c-.8.5-1.6.9-2.4 1.3l3.1 2.7zm-28 21.6l17.7-11.4-17.7-2.8zm0 29.6s3.4-2.8 8.3-6.8l-8.3-6.8v13.6zm15.9-19.3l2.6 3.7c3.2-2.7 6.4-5.6 9.4-8.3l-1.2-.9-10.8 5.5zm-10.5-6.8l16.1-9.6-3.8-5.3zm30.4-6.4l-.1 1.2.7-6.4z"/><path fill="#B7B9BB" d="M159.7 166.1l-.1.1c-1.4 1-2.9 1.9-4.4 2.7l.7 4 10.6-4.4 1-8.7-2.6 2.1-.1.1c-1.6 1.5-3.3 2.9-5.1 4.1zm5.2-4.2z"/><path fill="#6E98AF" d="M156 172.9l7.8 18.7.6-5.2.6-4.8z"/><path fill="#6E98AF" d="M144.9 173.7l.8 9.4 10.3-10.2-3.2-2.7c-2.7 1.4-5.4 2.6-7.9 3.5z"/><path fill="#6480A1" d="M156 172.9l-10.3 10.2 3.8 5.3 14.3 3.2z"/><path fill="#B7B9BB" d="M149.5 188.4l5.2 11 1.2.9c2.9-2.7 5.6-5.2 7.8-7.4l.1-1.2-14.3-3.3z"/><path fill="#6480A1" d="M154.8 199.4l-5.3-11-5.6 16.4z"/><path fill="#6E98AF" d="M143.4 211.3c1-.9 2.1-1.8 3.2-2.7l-2.6-3.7-.6 6.4z"/><path fill="#B7B9BB" d="M128 210.5l8.3 6.8c2.1-1.8 4.6-3.8 7.1-6l.6-6.5-16 5.7z"/><path fill="#6480A1" d="M128 194.5v16l15.9-5.7-10.5-6.8zm5.4 3.5z"/><path fill="#B7B9BB" d="M133.4 198l10.5 6.8 5.6-16.4-16.1 9.6z"/><path fill="#6E98AF" d="M133.4 198l12.3-14.9-17.7 11.4z"/><path fill="#B7B9BB" d="M138.3 175.9c-3.3.9-6.1 1.5-7.9 1.8l-2.4 2.6 17.7 2.8-.8-9.4c-2.4.9-4.6 1.6-6.6 2.2z"/><path fill="#6480A1" d="M128 180.3l2.4-2.6c-1.5.3-2.4.4-2.4.4v2.2z"/><path fill="#434044" d="M173.6 149.7c-.4 1-.9 2-1.4 2.9l-.2.3-1.3 2.5c.3 2.3 2.6 23.5-1.9 31.4-.8 1.5-2.7 3.6-5.1 6.1-2.2 2.2-4.9 4.8-7.8 7.4-3 2.7-6.2 5.6-9.4 8.3-1.1.9-2.1 1.8-3.2 2.7-2.5 2.2-5 4.2-7.1 6-4.9 4-8.3 6.8-8.3 6.8V256c2.5 0 5.1-.1 7.6-.2 9.2-15.2 24.2-40.2 29.4-50.9 7.7-16 27.8-44.1 8.7-55.2z"/><path fill="#363649" d="M191.8 237.8c-3.8 2.9-10.2 6.1-28.4 5.7 0 0-8.2 2.8-16.9 11.1 21.1-3 40.6-11.3 57.1-23.3l-10.3-8.7c.5 8.5.6 13.6-1.5 15.2z"/><path fill="#393131" d="M220.7 216.2c1.7-1.8 3.3-3.6 4.9-5.5h-1.3l-3.6 5.5z"/><path fill="#575051" d="M223.2 204.8c-.8-.4-1.8-.9-3-1.4 2.6 1.2 5 2.5 6.9 3.6-.9-.6-2.2-1.3-3.9-2.2zm-13.1 20.9l-5.6 1.2-11.7-10.2c.1 2.1.3 4.1.4 5.9l10.3 8.7c6.2-4.5 12-9.6 17.2-15.1l3.6-5.5h1.3c.8-1 1.6-1.9 2.4-2.9-.3-.2-.6-.4-.9-.7-7.5-1.7-17 18.6-17 18.6z"/><path fill="#40393E" d="M191.8 194.5c.1 8.7.6 16.1 1 22.3l11.7 10.2 5.6-1.2s9.4-20.3 17-18.6h-.1c-2-1.2-4.4-2.4-6.9-3.6-9.1-4.3-20.9-8.7-28.5-11.4.1.6.2 1.4.2 2.3z"/><path fill="#4C4765" d="M163.3 243.5c18.2.3 24.6-2.9 28.4-5.7 2.1-1.6 2-6.7 1.4-15.1-.1-1.8-.3-3.8-.4-5.9-.4-6.1-.9-13.6-1-22.3v-2.4c-.4-23.8-1.9-30.8-4.4-36-2.6-5.3-13.8-6.4-13.8-6.4 19.2 11.2-1 39.3-8.6 55.2-5.2 10.7-20.2 35.8-29.4 50.9 3.7-.2 7.3-.6 10.8-1.1 8.9-8.4 17-11.2 17-11.2zm1.2-.7s21.8-11.3 22.3-7.9c.4 3.4-22.3 7.9-22.3 7.9z"/><path fill="#2B273E" d="M164.5 242.8s22.8-4.6 22.3-7.9c-.5-3.3-22.3 7.9-22.3 7.9z"/><path fill="#252225" d="M91 181.6l-1.5-13.1-1-8.7-1.3-1.1-1.8-3.3c-.3 2.3-2.6 23.5 1.9 31.4.8 1.5 2.7 3.6 5.1 6.1l-.8-6.4-.6-4.9z"/><path fill="#373F60" d="M100 172.9l-10.5-4.4 1.5 13.1zm1.2 26.5l-1.2.9c3 2.7 6.2 5.6 9.4 8.3l2.6-3.7-10.8-5.5zm9.1-16.3l17.7 11.4v-14.2zm-9.5-14.2l-.7 4 3.2-2.7c-.9-.4-1.7-.8-2.5-1.3zm18.9 48.4c4.9 4 8.3 6.8 8.3 6.8v-13.6l-8.3 6.8zm2.9-19.3l-12.3-14.9-3.8 5.3 16.1 9.6zm-31-11.6l.7 6.4-.1-1.2z"/><path fill="#898B8D" d="M100 172.9l.7-4c-1.5-.8-2.9-1.8-4.4-2.7l-.1-.1c-1.8-1.2-3.5-2.6-5.1-4.1l-.1-.1-2.6-2.1 1 8.7 10.6 4.4zm-8.9-11z"/><path fill="#56798C" d="M100 172.9l-9 8.7.6 4.8.6 5.2zm3.2-2.7l-3.2 2.7 10.3 10.2.8-9.4c-2.5-.9-5.2-2.1-7.9-3.5z"/><path fill="#4E6580" d="M100 172.9l-7.8 18.7 14.3-3.2 3.8-5.3z"/><path fill="#898B8D" d="M106.5 188.4l-14.3 3.2.1 1.2c2.2 2.2 4.9 4.8 7.8 7.4l1.2-.9 5.2-10.9z"/><path fill="#4E6580" d="M101.2 199.4l10.9 5.4-5.6-16.4z"/><path fill="#56798C" d="M109.5 208.5c1.1.9 2.1 1.8 3.2 2.7l-.6-6.5-2.6 3.8z"/><path fill="#898B8D" d="M112.1 204.8l.6 6.5c2.5 2.2 5 4.2 7.1 6l8.3-6.8-16-5.7z"/><path fill="#4E6580" d="M122.6 198zm0 0l-10.5 6.8 15.9 5.7v-16z"/><path fill="#898B8D" d="M122.6 198l-16.1-9.6 5.6 16.4 10.5-6.8z"/><path fill="#56798C" d="M122.6 198l5.4-3.5-17.7-11.4z"/><path fill="#898B8D" d="M125.6 177.7c-1.8-.3-4.6-.9-7.9-1.8-2-.6-4.3-1.3-6.6-2.1l-.8 9.4 17.7-2.8-2.4-2.7z"/><path fill="#6480A1" d="M125.6 177.7l2.4 2.6v-2.2s-.9-.1-2.4-.4z"/><path fill="#40393E" d="M128 224.1s-3.4-2.8-8.3-6.8c-2.1-1.8-4.6-3.8-7.1-6-1-.9-2.1-1.8-3.2-2.7-3.2-2.7-6.4-5.6-9.4-8.3-2.9-2.7-5.6-5.2-7.8-7.4-2.4-2.5-4.2-4.6-5.1-6.1-4.5-7.8-2.2-29-1.9-31.4l-1.3-2.5-.2-.3c-.5-.9-1-1.9-1.4-2.9-19.2 11.2 1 39.3 8.6 55.2 5.2 10.7 20.2 35.8 29.4 50.9 2.5.1 5 .2 7.6.2v-31.9z"/><path fill="#2B2B3C" d="M92.7 243.5c-18.2.3-24.6-2.9-28.4-5.7-2.1-1.6-2-6.7-1.4-15.1l-10.3 8.7c16.5 12.1 36 20.3 57.1 23.3-8.9-8.4-17-11.2-17-11.2z"/><path fill="#2C2524" d="M31.6 210.7h-1.3c1.6 1.9 3.2 3.7 4.9 5.5l-3.6-5.5z"/><path fill="#464142" d="M32.8 204.8c-1.7.9-3 1.6-3.9 2.3 2-1.2 4.4-2.4 6.9-3.6-1.2.5-2.2.9-3 1.3z"/><path fill="#464142" d="M63.2 216.7l-11.7 10.2-5.6-1.2s-9.4-20.3-17-18.6c-.3.2-.6.5-.9.7.8 1 1.6 2 2.4 2.9h1.3l3.6 5.5c5.3 5.5 11.1 10.6 17.2 15.1l10.3-8.7c.1-1.8.3-3.7.4-5.9z"/><path fill="#393131" d="M45.9 225.7l5.6 1.2 11.7-10.2c.4-6.1.9-13.6 1-22.3V192c-7.6 2.7-19.4 7.1-28.5 11.4-2.6 1.2-5 2.5-6.9 3.6h-.1c7.7-1.6 17.2 18.7 17.2 18.7z"/><path fill="#37334C" d="M82.4 149.7s-11.2 1.1-13.8 6.4c-2.5 5.2-4 12.1-4.4 36v2.4c-.1 8.7-.6 16.1-1 22.3-.1 2.1-.3 4.1-.4 5.9-.6 8.5-.7 13.6 1.4 15.1 3.8 2.9 10.2 6.1 28.4 5.7 0 0 8.2 2.8 16.9 11.1 3.6.5 7.2.9 10.8 1.1-9.2-15.2-24.2-40.2-29.4-50.9-7.5-15.9-27.6-44-8.5-55.1zm-13.2 85.2c.5-3.4 22.3 7.9 22.3 7.9s-22.7-4.5-22.3-7.9z"/><path fill="#1B162C" d="M69.2 234.9c-.5 3.4 22.3 7.9 22.3 7.9s-21.8-11.2-22.3-7.9z"/><path fill="#63709E" d="M181.2 124.4h4.4l-3.4-5.2zm3.2-25.3l1.1 2.4-.6 3.7 6.8-.9-4.6-8.6zm1.1 14.4l.1 10.9 1.8-1.9-1.9-9zm3.9-33l-2.3-.9-1.2 8.3zm-5.9 16.8l3.6-1.6-1.2-7.8-3.8 1.7-.3 4.2z"/><path fill="#7290B6" d="M182.5 83.8l-.1.7-.3 5.1 3.8-1.7 1.2-8.3-4.3 2.9-.2 1.3z"/><path fill="#D4D6D7" d="M192.7 91.6l-3.3-11.1-3.5 7.4z"/><path fill="#80B0CA" d="M187.1 95.7l3.3 1.3 2.3-5.4-6.8-3.7z"/><path fill="#D4D6D7" d="M184.4 99.1l2.7-3.4-3.6 1.6z"/><path fill="#7290B6" d="M191.7 104.3l-1.3-7.3-3.3-1.3z"/><path fill="#80B0CA" d="M184.3 108.9l7.4-4.6-6.8.9z"/><path fill="#D4D6D7" d="M183.8 111.7l-.3 1.6 2 .2 3.7.4 2.5-9.6-7.4 4.6zm1.7 1.8z"/><path fill="#80B0CA" d="M185.5 113.5l1.9 9 1.8-8.6z"/><path fill="#7290B6" d="M185.5 113.5l-2-.2-1.3 5.9 3.4 5.2-.1-10.9z"/><path fill="#7785BE" d="M140.5 25.5L128 19v13.3zm15.5 6.8l-2-12.5-7.9 18.9zm14 105.4l-15.8 6.2 9.9 7.1 6.6-13.5-.7.2z"/><path fill="#7785BE" d="M170.7 137.5l3.8 6.7v-16.9l-4.2 9.8zm-31-84.8L128 60.4l16-.6zm42.1 41.1l.3-4.2.3-5.1.1-.7-14.2-1.7 1.7 18.2zM150 120l-.1-.5c.1.3.1.5.1.5z"/><path fill="#7785BE" d="M150 120l24.5 7.3-13.3-16.1zm-11.7 44l16.5-11.1-17.3-4.8zm1.4-111.3l6.4-14-18.1 1.8zm6.5 55.1L128 90v17.8zm7.8-14l-20.9-7.6 5.2 1.9zm-5.6-26L128 60.4l9.4 13.5zm26.7-30.2s.9-2.6 0-3.5-1.5-3.2-1.5-3.2l-2.1 1.4 3.6 5.3zM148 113.7c.7 2.2 1.3 4.3 1.7 5.4l-1.7-5.4zm17.1-70.5l-12.6 2.7 21.4-4.5zm-18.9 64.6c.5 1.6 1.1 3.6 1.8 5.6l-1.8-5.6zm30.2-60.9s.6-2.2.6-4.2v-4.8l-3.1 3.5 2.5 5.5z"/><path fill="#7785BE" d="M170 54.4l-13.2 5 20.5-7.8-.9-4.7-23.9-1zm3.6 95.3l5.9-5.5V135l-5 9.2zm7.6-84l.9-1.6v-4.8l-.6-1.9-5.8 15.3zm-9.7-33.4l-4.7-1.7-1.7 12.6zm-32.1 88.8L128 107.8v23.5zm12-107.5l-3.1-5.7-8.2 1.3L154 19.8zm6.6 2.6l-1.2-3.8-2.8 7.4zm5.1 5.1h-2.9l-4.2 11zM136.1 5H128l9 9.5z"/><path fill="#7785BE" d="M166.8 30.6v-2.9L156 32.3zm-2.3 128.7l.4 2.6 3.3-7.9-4.2-3 .5 8.3zm-11.3 6.4l6.8-6.4-5.2-6.4z"/><path fill="#7785BE" d="M154.8 169.2l-11.5 5.1-5-10.2v11.8c2-.6 4.3-1.3 6.6-2.1 2.6-1 5.3-2.1 7.9-3.5.8-.4 1.6-.9 2.4-1.3 1.5-.8 2.9-1.8 4.4-2.7l1-3.9-.6-3-5.2 9.8zm10-7.2l-5.1 4.1c1.8-1.2 3.5-2.6 5.1-4.1zM128 178.1s.9-.1 2.4-.4c1.8-.3 4.6-.9 7.9-1.8l-10.3 2.2zm45.6-28.4l-1.4 2.9c.5-1 1-1.9 1.4-2.9zm9.9-36.4l.3-1.6.5-2.8.6-3.7.6-3.7-6.7 16.6 2.2 7.3.2-1 1-5.2z"/><path fill="#84A8D4" d="M128 161.2v16.9l10.3-2.2z"/><path fill="#C9D5E9" d="M138.3 175.9V164l-10.3-2.8z"/><path fill="#84A8D4" d="M143.3 174.3l11.5-21.4-16.5 11.1z"/><path fill="#F5F5F6" d="M143.3 174.3l9.9-8.6 1.6-12.8z"/><path fill="#C9D5E9" d="M154.8 169.2l-1.6-3.5-9.9 8.6z"/><path fill="#F5F5F6" d="M153.2 165.7l1.6 3.5 5.2-9.9z"/><path fill="#84A8D4" d="M154.8 152.9l5.2 6.4 4.1-8.3-9.9-7.1z"/><path fill="#94CCEB" d="M160 159.3l.6 3 3.9-3-.4-8.3z"/><path fill="#F5F5F6" d="M164.5 159.3l-3.9 3-1 3.9.1-.1 5.1-4.1.1-.1z"/><path fill="#84A8D4" d="M168.3 154l-3.4 7.9 2.7-2.1 1.3-1.1 1.8-3.3 1.3-2.5z"/><path fill="#F5F5F6" d="M168.3 154l3.7-1.1.2-.3 1.4-2.9-9.5 1.3zm-13.5-1.1l-.6-9-16.7 4.2z"/><path fill="#84A8D4" d="M138.3 164l-.8-15.9-9.5 13.1z"/><path fill="#94CCEB" d="M128 161.2l9.5-13.1-2.6-14.5-6.9-2.3z"/><path fill="#84A8D4" d="M134.9 133.6l2.6 14.5 16.7-4.2-13.9-3.7z"/><path fill="#C9D5E9" d="M140.3 140.2l4.9-15-5.8-4.1-4.5 12.5z"/><path fill="#84A8D4" d="M134.9 133.6l4.5-12.5-11.4 10.2z"/><path fill="#F5F5F6" d="M146.2 107.8H128l11.4 13.3zm-5.9 32.4l13.9 3.7-9-18.7z"/><path fill="#94CCEB" d="M170.7 137.5l-6.6 13.5 9.5-1.3.9-5.5zm-21-18.4c-.4-1.1-1-3.2-1.7-5.4l-.1-.3c-.6-2-1.3-4.1-1.8-5.6l-6.8 13.3 5.9 4.2 4.8-5.3s-.1-.2-.1-.5l-.2-.4z"/><path fill="#C9D5E9" d="M154.2 143.9L150 120l-4.8 5.2z"/><path fill="#84A8D4" d="M170 137.7L150 120l4.2 23.9zm0 0l.7-.2-.4-.4z"/><path fill="#C9D5E9" d="M174.5 144.2l5-9.2-5-7.7zm-4.5-6.5l.3-.6 4.2-9.8L150 120z"/><path fill="#94CCEB" d="M178.8 118.1l-4.3 9.2 5 7.7 1.5-9.6z"/><path fill="#84A8D4" d="M181.8 93.8l-3 24.3 6.7-16.6-1.1-2.4-.9-1.8z"/><path fill="#F5F5F6" d="M161.2 111.2l13.3 16.1 4.3-9.2z"/><path fill="#84A8D4" d="M147.9 113.4l.1.3 1.7 5.4.2.4.1.5 11.2-8.8-15-3.4z"/><path fill="#94CCEB" d="M181.8 93.8l-11.8 6.5-8.8 10.9 17.6 6.9z"/><path fill="#63709E" d="M139.7 80.5l-1.9 3.3-9.8-3.3V90l5.1-3.8 20.9 7.6 9.4-5.9 4.9-5.8-15-8.3z"/><path fill="#F5F5F6" d="M170 100.3l-6.6-12.4-9.4 5.9 7.2 17.4z"/><path fill="#84A8D4" d="M170 100.3l-1.7-18.2-4.9 5.8z"/><path fill="#C9D5E9" d="M161.2 111.2L154 93.8l-7.8 14z"/><path fill="#F5F5F6" d="M146.2 107.8l7.8-14-15.7-5.7z"/><path fill="#94CCEB" d="M138.3 88.1l-5.2-1.9L128 90l18.2 17.8z"/><path fill="#C9D5E9" d="M139.7 80.5H128l9.8 3.3z"/><path fill="#84A8D4" d="M182.5 83.8h.1l.2-1.3 2.7-13.3-17.2 12.9z"/><path fill="#F5F5F6" d="M175.7 72.7l-7.4 9.4 17.2-12.9-4.3-3.5-5.5 7z"/><path fill="#94CCEB" d="M168.3 82.1V69.2l-15 4.6z"/><path fill="#C9D5E9" d="M168.3 82.1l7.4-9.4 5.8-15.3-13.2 11.8z"/><path fill="#84A8D4" d="M181.2 53.6l-3.9-2 4.2 5.8z"/><path fill="#94CCEB" d="M181.5 57.4l-4.2-5.8-9 17.6z"/><path fill="#F5F5F6" d="M168.3 69.2l9-17.6-20.5 7.8z"/><path fill="#84A8D4" d="M153.3 73.8l15-4.6-11.5-9.8-8.4 8.4z"/><path fill="#C9D5E9" d="M139.7 80.5l13.6-6.7-4.9-6-11 6.1z"/><path fill="#F5F5F6" d="M137.4 73.9l-9.4 6.6h11.7z"/><path fill="#94CCEB" d="M128 60.4v20.1l9.4-6.6z"/><path fill="#C9D5E9" d="M144 59.8l-16 .6 20.4 7.4 8.4-8.4-12.8.4z"/><path fill="#F5F5F6" d="M128 40.5v19.9l11.7-7.7z"/><path fill="#94CCEB" d="M144 59.8l8.5-13.9-6.4-7.2-6.4 14z"/><path fill="#84A8D4" d="M144 59.8l12.8-.4-4.3-13.5z"/><path fill="#C9D5E9" d="M170 54.4l-17.5-8.5 4.3 13.5z"/><path fill="#84A8D4" d="M152.5 45.9l23.9 1-2.5-5.5z"/><path fill="#94CCEB" d="M177 37.9l-1.9-.3-1.2 3.8z"/><path fill="#F5F5F6" d="M173.9 41.4l1.2-3.8-3.6-5.3z"/><path fill="#C9D5E9" d="M173.6 30.9l-6.8-.3 4.7 1.7z"/><path fill="#94CCEB" d="M171.5 32.3l-6.4 10.9 8.8-1.8z"/><path fill="#F5F5F6" d="M165.1 43.2l1.7-12.6-14.3 15.3z"/><path fill="#C9D5E9" d="M128 32.3v8.2l18.1-1.8-11.3-4z"/><path fill="#84A8D4" d="M146.1 38.7l6.4 7.2 14.3-15.3-10.8 1.7z"/><path fill="#F5F5F6" d="M166.8 27.7l-3.7-6.4-7.1 11z"/><path fill="#94CCEB" d="M156 32.3l4.2-11-2.2-5.1-4 3.6z"/><path fill="#C9D5E9" d="M156.8 12.4l-5.4 1.2 2.6 6.2z"/><path fill="#84A8D4" d="M134.8 34.7l11.3 4 7.9-18.9-13.5 5.7z"/><path fill="#F5F5F6" d="M134.8 34.7l5.7-9.2-12.5 6.8z"/><path fill="#84A8D4" d="M137 14.5l-9 4.5 12.5 6.5z"/><path fill="#94CCEB" d="M137 14.5L128 5v14z"/><path fill="#C9D5E9" d="M140.1 9.2l-4-4.2.9 9.5z"/><path fill="#94CCEB" d="M140.5 25.5l-.4-16.3-3.1 5.3z"/><path fill="#F5F5F6" d="M154 19.8L140.1 9.2l.4 16.3z"/><path fill="#84A8D4" d="M140.6 5l-.5 4.2 8.2-1.3z"/><path fill="#4C567D" d="M70.5 113.5l-1.9 9 1.8 1.9.1-10.9zm3.7-19.7l-.3-4.2-3.8-1.7-1.2 7.8 3.6 1.6zm-3.8 30.6h4.4l-1-5.2z"/><path fill="#4C567D" d="M68.9 79.6l-2.3.9 3.5 7.4zm1.6 21.9l1.1-2.4-2.7-3.4-4.6 8.6 6.8.9z"/><path fill="#6480A1" d="M73.9 89.6l-.3-5.1-.1-.7h-.1l-.2-1.3-4.3-2.9 1.2 8.3z"/><path fill="#B7B9BB" d="M66.6 80.5l-3.3 11.1 6.8-3.7z"/><path fill="#6E98AF" d="M70.1 87.9l-6.8 3.7 2.3 5.4 3.3-1.3z"/><path fill="#B7B9BB" d="M68.9 95.7l2.7 3.4.9-1.8z"/><path fill="#6480A1" d="M65.6 97l-1.3 7.3 4.6-8.6z"/><path fill="#6E98AF" d="M71.1 105.2l-6.8-.9 7.4 4.6z"/><path fill="#B7B9BB" d="M70.5 113.5l2-.2-.3-1.6-.5-2.8-7.4-4.6 2.5 9.6zm0 0z"/><path fill="#6E98AF" d="M70.5 113.5l-3.7.4 1.8 8.6 1.9-9z"/><path fill="#6480A1" d="M72.5 113.3l-2 .2-.1 10.9 3.4-5.2z"/><path fill="#63709E" d="M128 60.4l-20.4 7.4 11 6.1zm0 47.4l-11.4 13.3 11.4 10.2zm-16-48l16 .6-11.7-7.7zm-12-27.5l9.9 6.4-7.9-18.9zm-5.2 78.9l-13.3 16.1L106 120zM76.5 135v9.2l5.9 5.5-.9-5.5zm14.4-91.8l-1.7-12.6-4.7 1.7zm4.9-21.9h-2.9l7.1 11zm-13.4 9.6s-.6 2.2-1.5 3.2 0 3.5 0 3.5l3.6-5.3-2.1-1.4z"/><path fill="#63709E" d="M82.1 41.4l21.4 4.5-12.6-2.7zm7.1-13.7v2.9l10.8 1.7zM74.5 57.4l-.6 1.9v4.8l.9 1.6 5.5 7zm11.5-3l17.5-8.5-23.9 1-.9 4.7 20.5 7.8zm23.8 53.4l-1.8 5.6c.7-2 1.3-4.1 1.8-5.6zM99.2 12.4L98 16.2l4 3.6zM128 19l-12.5 6.5 12.5 6.8zm-12.1-9.8l-8.2-1.3-3.1 5.7-2.6 6.2zm12.1 98.6V90l-18.2 17.8zm0-67.3l-18.1-1.8 6.4 14zm-46.5 86.8v16.9l3.8-6.7.4-.4z"/><path fill="#63709E" d="M86 137.7l-.7-.2 6.6 13.5 9.9-7.1zM128 5h-8.1l-.9 9.5zM79 37.9v4.8c0 1.9.6 4.2.6 4.2l2.5-5.4-3.1-3.6zm27 82.1s.1-.2.1-.5l-.1.5zm2-6.3l-1.7 5.4c.3-1.1 1-3.2 1.7-5.4zm14.9-27.5L102 93.8l15.7-5.7zm-4.4 61.9l-17.3 4.8 16.5 11.1z"/><path fill="#63709E" d="M102.8 165.7l-1.6-12.8-5.2 6.4z"/><path fill="#63709E" d="M100.8 168.9c.8.5 1.6.9 2.4 1.3 2.7 1.4 5.4 2.5 7.9 3.5 2.3.9 4.6 1.6 6.6 2.1V164l-5 10.2-11.5-5.1-5.2-9.8-.6 3 1 3.9c1.4 1 2.9 1.9 4.4 2.7zm-9.6-6.9c1.6 1.5 3.3 2.8 5.1 4.1l-5.1-4.1zm-.1-.1l.5-2.5.4-8.3-4.2 3 3.3 7.8zm26.6 14c3.3.9 6.1 1.5 7.9 1.8 1.5.3 2.4.4 2.4.4l-10.3-2.2zm-35.3-26.2c.4 1 .9 2 1.4 2.9l-1.4-2.9zm-5.2-31.6l-6.7-16.6.6 3.7.6 3.7.5 2.8.3 1.6 1.3 5.9 1 5.2.2 1zm8.8-17.8l1.7-18.2-14.2 1.7.1.7.3 5.1.3 4.2z"/><path fill="#7290B6" d="M128 178.1v-16.9l-10.3 14.7z"/><path fill="#B7C2D4" d="M128 161.2l-10.3 2.8v11.9z"/><path fill="#7290B6" d="M112.7 174.3l5-10.3-16.5-11.1z"/><path fill="#D4D6D7" d="M102.8 165.7l9.9 8.6-11.5-21.4z"/><path fill="#B7C2D4" d="M102.8 165.7l-1.6 3.5 11.5 5.1z"/><path fill="#D4D6D7" d="M101.2 169.2l1.6-3.5-6.8-6.4z"/><path fill="#7290B6" d="M96 159.3l5.2-6.4.6-9-9.9 7.1z"/><path fill="#80B0CA" d="M91.5 159.3l3.9 3 .6-3-4.1-8.3z"/><path fill="#D4D6D7" d="M96.3 166.1l.1.1-1-3.9-3.9-3-.4 2.6.1.1z"/><path fill="#7290B6" d="M88.4 159.8l2.7 2.1-3.4-7.9-3.7-1.1 1.3 2.5 1.8 3.3z"/><path fill="#D4D6D7" d="M83.8 152.6l.2.3 3.7 1.1 4.2-3-9.5-1.3zm18-8.7l-.6 9 17.3-4.8z"/><path fill="#7290B6" d="M118.5 148.1l-.8 15.9 10.3-2.8z"/><path fill="#80B0CA" d="M128 131.3l-6.9 2.3-2.6 14.5 9.5 13.1z"/><path fill="#7290B6" d="M121.1 133.6l-5.4 6.6-13.9 3.7 16.7 4.2z"/><path fill="#B7C2D4" d="M110.8 125.2l4.9 15 5.4-6.6-4.5-12.5z"/><path fill="#7290B6" d="M116.6 121.1l4.5 12.5 6.9-2.3z"/><path fill="#D4D6D7" d="M109.8 107.8l6.8 13.3 11.4-13.3zm1 17.4l-9 18.7 13.9-3.7z"/><path fill="#80B0CA" d="M85.3 137.5l-3.8 6.7.9 5.5 9.5 1.3zm31.3-16.4l-6.8-13.3c-.5 1.6-1.1 3.6-1.8 5.6l-.1.3c-.7 2.2-1.3 4.3-1.7 5.4l-.1.4c-.1.3-.1.5-.1.5l4.8 5.3 5.8-4.2z"/><path fill="#B7C2D4" d="M106 120l-4.2 23.9 9-18.7z"/><path fill="#7290B6" d="M86 137.7l15.8 6.2L106 120zm-.3-.6l-.4.4.7.2z"/><path fill="#B7C2D4" d="M81.5 127.3l-5 7.7 5 9.2zm4.5 10.4l20-17.7-24.5 7.3 4.2 9.8z"/><path fill="#80B0CA" d="M77.2 118.1l-2.2 7.3 1.5 9.6 5-7.7z"/><path fill="#7290B6" d="M74.2 93.8l-1.7 3.5-.9 1.8-1.1 2.4 6.7 16.6z"/><path fill="#D4D6D7" d="M77.2 118.1l4.3 9.2 13.3-16.1z"/><path fill="#7290B6" d="M106.3 119.1l1.7-5.4.1-.3 1.7-5.6-15 3.4L106 120l.1-.5z"/><path fill="#80B0CA" d="M94.8 111.2L86 100.3l-11.8-6.5 3 24.3z"/><path fill="#545E87" d="M102 93.8l20.9-7.6L128 90v-9.5l-9.8 3.3-1.9-3.3-13.6-6.7-15 8.3 4.9 5.8z"/><path fill="#D4D6D7" d="M92.6 87.9L86 100.3l8.8 10.9 7.2-17.4z"/><path fill="#7290B6" d="M92.6 87.9l-4.9-5.8-1.7 18.2z"/><path fill="#B7C2D4" d="M102 93.8l-7.2 17.4 15-3.4z"/><path fill="#D4D6D7" d="M117.7 88.1L102 93.8l7.8 14z"/><path fill="#80B0CA" d="M109.8 107.8L128 90l-5.1-3.8-5.2 1.9z"/><path fill="#C9D5E9" d="M118.2 83.8l9.8-3.3h-11.7z"/><path fill="#7290B6" d="M73.5 83.8l14.2-1.7-17.2-12.9 2.7 13.3.2 1.3z"/><path fill="#D4D6D7" d="M80.3 72.7l-5.5-7-4.3 3.5 17.2 12.9z"/><path fill="#80B0CA" d="M87.7 69.2v12.9l15-8.3z"/><path fill="#B7C2D4" d="M80.3 72.7l7.4 9.4V69.2L74.5 57.4l5.8 15.3z"/><path fill="#7290B6" d="M74.8 53.6l-.3 3.8 4.2-5.8z"/><path fill="#80B0CA" d="M78.7 51.6l-4.2 5.8 13.2 11.8z"/><path fill="#D4D6D7" d="M99.2 59.4l-20.5-7.8 9 17.6z"/><path fill="#7290B6" d="M107.6 67.8l-8.4-8.4-11.5 9.8 15 4.6z"/><path fill="#B7C2D4" d="M107.6 67.8l-4.9 6 13.6 6.7 2.3-6.6z"/><path fill="#D4D6D7" d="M116.3 80.5H128l-9.4-6.6z"/><path fill="#80B0CA" d="M118.6 73.9l9.4 6.6V60.4z"/><path fill="#B7C2D4" d="M128 60.4l-16-.6-12.8-.4 8.4 8.4z"/><path fill="#D4D6D7" d="M116.3 52.7l11.7 7.7V40.5z"/><path fill="#80B0CA" d="M112 59.8l4.3-7.1-6.4-14-6.4 7.2z"/><path fill="#7290B6" d="M103.5 45.9l-4.3 13.5 12.8.4z"/><path fill="#B7C2D4" d="M86 54.4l13.2 5 4.3-13.5z"/><path fill="#7290B6" d="M82.1 41.4l-2.5 5.5 23.9-1z"/><path fill="#80B0CA" d="M80.9 37.6l-1.9.3 3.1 3.5z"/><path fill="#D4D6D7" d="M84.5 32.3l-3.6 5.3 1.2 3.8z"/><path fill="#B7C2D4" d="M89.2 30.6l-6.8.3 2.1 1.4z"/><path fill="#80B0CA" d="M84.5 32.3l-2.4 9.1 8.8 1.8z"/><path fill="#D4D6D7" d="M103.5 45.9L89.2 30.6l1.7 12.6z"/><path fill="#B7C2D4" d="M128 32.3l-6.8 2.4-11.3 4 18.1 1.8z"/><path fill="#7290B6" d="M109.9 38.7l-9.9-6.4-10.8-1.7 14.3 15.3z"/><path fill="#D4D6D7" d="M92.9 21.3l-3.7 6.4 10.8 4.6z"/><path fill="#80B0CA" d="M102 19.8l-4-3.6-2.2 5.1 4.2 11z"/><path fill="#B7C2D4" d="M104.6 13.6l-5.4-1.2 2.8 7.4z"/><path fill="#7290B6" d="M115.5 25.5L102 19.8l7.9 18.9 11.3-4z"/><path fill="#D4D6D7" d="M121.2 34.7l6.8-2.4-12.5-6.8z"/><path fill="#7290B6" d="M119 14.5l-3.5 11L128 19z"/><path fill="#80B0CA" d="M128 19V5l-9 9.5z"/><path fill="#B7C2D4" d="M119.9 5l-4 4.2 3.1 5.3z"/><path fill="#80B0CA" d="M119 14.5l-3.1-5.3-.4 16.3z"/><path fill="#D4D6D7" d="M115.5 25.5l.4-16.3L102 19.8z"/><path fill="#7290B6" d="M115.4 5l-7.7 2.9 8.2 1.3z"/></svg>