<svg xmlns="http://www.w3.org/2000/svg" width="256" height="256"><circle fill="#B1B3B5" cx="128" cy="128" r="128"/><path fill="#2C0E00" d="M97.5 173.6c1.3-4.1.4-18.1-.6-28.9-2.3-2.8-4.4-5.7-6-8.4.6 4.8 1.1 8 1.1 8s2.3 23-.7 35.3c3.3-1.9 5.5-3.8 6.2-6z"/><path fill="#B49A8E" d="M128 190.9v-29.7s-13 1.2-20.7-5.5c-3.3-2.9-7.1-6.9-10.4-11 1 10.8 1.9 24.8.6 28.9-.7 2.2-3 4.1-6.2 6-.1.2-.1.5-.2.7-.5 1.8-1.1 3.6-1.8 5.4 13.3 17.6 38.7 14.6 38.7 14.6v4.9-14.3zm0 14.3zm0 44.4v-5.3 1.4z"/><path fill="#958F88" d="M47.6 217.4c-1.8.3-4.5.7-8 .7-.8 0-1.7 0-2.6-.1 2.3 2.3 4.6 4.5 7.1 6.7 2.5-.3 4.4-.7 5.7-1.1-.8-2.2-1.5-4.3-2.2-6.2zm-1.4-3.7c-.8-2-1.4-3.7-2-5.2-1.4.2-3.3.3-5.4.3-1.7 0-3.5-.1-5.3-.4-.8.9-1.6 2-2.4 3.2.6.7 1.3 1.5 1.9 2.2 6 .7 10.5.3 13.2-.1zm-3.5-8.9c-.6-1.6-1-2.4-1-2.4s-1.9.3-4.7 2.6c2.2 0 4.2-.1 5.7-.2zm8.4 22.4c-.8.2-1.8.5-3 .7 1.4 1.2 2.9 2.3 4.4 3.4-.5-1.4-1-2.7-1.4-4.1 0 .1 0 .1 0 0z"/><path fill="#292624" d="M44.2 208.5c-.6-1.5-1.1-2.7-1.4-3.6v-.1c-1.6.2-3.6.3-5.7.1-1.1.9-2.3 2-3.5 3.5 1.8.3 3.6.4 5.3.4 2 0 3.9-.1 5.3-.3zm3.4 8.9v-.1c-.5-1.2-.9-2.4-1.3-3.5-2.7.4-7.3.8-13.2.1 1.3 1.4 2.6 2.8 4 4.2.9 0 1.8.1 2.6.1 3.4-.1 6.1-.5 7.9-.8zm2.2 6.2c-1.4.4-3.3.8-5.7 1 1.3 1.1 2.6 2.2 4 3.3 1.2-.2 2.2-.5 3-.7-.4-1.2-.9-2.4-1.3-3.6z"/><path fill="#AAA39B" d="M72.9 203.4c-.6-1.7-1.1-3.8-1.3-6-4.4 1.4-9.7 3.3-16.1 6-.5 1.2-.9 1.9-.9 1.9.2-.6.3-1.1.4-1.7-3.3 1.4-6.9 3-10.7 4.9v.1c.6 1.5 1.3 3.2 2 5.2 10.3-5 19.2-8.2 26.6-10.4zm55.1 51.1v-4.9c-5.6-.4-20.5-1.1-37.4.9 6.3 1.9 12.7 3.4 19.3 4.3 8.2-.5 14.7-.4 18.1-.3zm0-17.4v-4.4c-8.5-.2-38-.2-62.3 7 1.7 1 3.5 1.9 5.3 2.8 23.4-5.6 48.8-5.5 57-5.4zm0 8.6V241c-7.3-.2-29.8-.2-51.3 4.3 1.9.8 3.8 1.6 5.8 2.4 20-3.4 38.6-2.5 45.5-2zm0-16.7v-4.9c-9.6-.2-45.9-.2-71.4 10.2 1.5 1 3 2 4.6 2.9 25.6-8.5 57.5-8.5 66.8-8.2zm-50.9-33c-1.2.2-2.3 4.4-2.9 7 1.6-.5 3.2-.9 4.6-1.2 0-1.9-.3-6.1-1.7-5.8zm7.9-1.8c-.3.6-.7 1.1-1 1.6-.1.3-.1.5-.1.5s0-.2.1-.4c-1.7 2.6-3.2 4.6-4.1 5.7 6-1.4 10.8-2 14.5-2.3-2.8-1.7-5.2-3.6-7.1-5.3-.5 0-1.3.1-2.3.2zm-13.8-.8c-.1-1.7-.1-3.4-.1-4.9-4.1 1.6-8.7 3.6-13.4 5.7.8 1.8 1.7 3.1 1.7 3.1l-2.2-1.7c0 1-.2 2-.3 3 5.6-2.3 10.3-4 14.3-5.2zm56.8 18.1v-6.2 2.4c-10.4 0-18.7-1.8-25.3-4.3-2.2-.4-19.5-2.7-55.2 13.9v.1c.7 1.9 1.5 4 2.2 6.2 28.6-14.7 67.7-12.9 78.3-12.1z"/><path fill="#AAA39B" d="M128 220.2v-4.9c-9.9-.7-49.3-2.5-76.9 12 .4 1.3.9 2.7 1.4 4 .2.1.3.2.5.3 26.4-11.6 64.7-11.6 75-11.4zm-85.2-15.3c4.3-2.1 8.2-3.8 11.8-5.3-.3-1.1-.8-2.1-1.5-3.2-4.2 2-8.1 4-11.4 6 0 0 .4.8 1.1 2.5 0-.1 0-.1 0 0z"/><path fill="#4A4744" d="M89.3 185.7c-.7 1.7-1.5 3.3-2.3 4.8l1.2 1.5-.1 1.9h-.8c1.9 1.8 4.2 3.6 7.1 5.3.7 0 1.3-.1 1.9-.1 2.2 1.4 4.5 2.5 6.8 3.4l-.2.8h-.2c6.6 2.5 14.9 4.3 25.3 4.3v-7.3s-25.4 3-38.7-14.6zm-34.4 17.9c.2-1.5.1-2.8-.3-4-3.6 1.5-7.6 3.3-11.8 5.3.4.9.9 2.1 1.4 3.6 3.8-1.9 7.4-3.5 10.7-4.9zm16.7-6.3c-.2-1.3-.3-2.6-.3-3.9-4 1.2-8.7 2.9-14.3 5.2-.4 1.9-1 3.6-1.5 4.8 6.3-2.8 11.7-4.7 16.1-6.1z"/><path fill="#4A4744" d="M88.1 194l.1-1.9-1.2-1.5c-.7 1.3-1.4 2.5-2.1 3.7 1-.1 1.8-.2 2.3-.2.6-.1.9-.1.9-.1zm14.6 9.3h.2l.2-.8c-2.3-.9-4.6-2-6.8-3.4-.6 0-1.3.1-1.9.1-3.7.2-8.5.9-14.5 2.3-.6.7-.9 1.1-.9 1.1v-.9c-1.5.4-3 .8-4.6 1.2-.3 1.3-.4 2.2-.4 2.2-.3-.5-.6-1.2-.9-1.9-7.5 2.2-16.3 5.5-26.7 10.3v.1c.4 1.1.9 2.3 1.3 3.5 35.5-16.5 52.8-14.2 55-13.8zm25.3 8.2c-10.6-.8-49.7-2.5-78.2 12.1.4 1.2.8 2.4 1.3 3.6 27.6-14.5 67-12.7 76.9-12v-3.7zm0 12.6v-3.8c-10.3-.2-48.6-.3-75.1 11.4 1.2.9 2.4 1.8 3.7 2.6 25.5-10.4 61.8-10.4 71.4-10.2zm0 8.7V229c-9.3-.2-41.2-.3-66.8 8.2 1.5.9 3 1.8 4.5 2.6 24.3-7.2 53.8-7.2 62.3-7zm0 8.2v-3.8c-8.2-.2-33.6-.3-57.1 5.5l5.7 2.7c21.6-4.6 44.1-4.6 51.4-4.4zm0 8.6v-3.9c-6.9-.5-25.5-1.4-45.6 1.9 2.7 1 5.4 2 8.1 2.8 17-2 31.9-1.2 37.5-.8zm0 4.9c-3.4-.1-9.9-.1-18.1.2 5.9.8 11.9 1.3 18.1 1.3v-1.5z"/><path fill="#522E16" d="M79.1 86.2c0-.8-.1-1.6-.1-2.4-5 12.9-11 26.6-11 26.6s4.2-16.9 1.8-13.7c-2.4 3.3-12.9 10.5-12.9 10.5 6.3-5.1 12.9-15.7 14.1-26.5 1.2-10.9 7.9-29.7 15.6-43.4C103.4 7.2 128 11.4 128 11.4V9.8s-4.8 1.4-6.9 0-13.2-.3-19.8 4.8C94.8 19.7 76.8 33.8 69 57.4 61.2 81 58.2 92.3 57.6 96.7c-.6 4.4-2.1 25.2 0 28.7.9 1.4 1.1 3.8.9 6.5 3.7-6.6 7.1-11.8 8.8-14.1 2.7-3.7 7.8-18.8 11.8-31.6zm-33.8 74.4c0-.1.1-.3.1-.4 0 .1 0 .2-.1.4 0-.1 0-.1 0 0zm-1.2 4.4c-.1-.2-.1-.4-.2-.7-1.5 4.5-2.4 9-1.8 12.5 1.5 9.3 2.4 13.1 2.4 13.1l-.6-10.7c-.2-.6-.3-1.1-.5-1.7-.8-3.4-.5-7.7.7-12.5zm13.8 20.1c4.2-3.5 13.5-3.5 13.5-3.5s-.3 3-.3 6.9c0 1.5 0 3.2.1 4.9l.3 3.9c.3 2.2.7 4.3 1.3 6 .3.7.6 1.3.9 1.9 0 0 .2-1 .4-2.2.6-2.7 1.6-6.8 2.9-7 1.4-.2 1.7 3.9 1.8 5.8v.9s.4-.4.9-1.1c.9-1.2 2.4-3.1 4.1-5.7.4-1.5 1.5-6.8 2.3-13.4-.1-6.2-2.6-25.1-4.4-39-1.6 3.2-2.8 5.2-2.8 5.2 1-2 1.8-4 2.7-6-.9-6.3-1.6-11.4-1.9-13.6-.2.3-.4.6-.5.9-.3 1.3-.9 3.2-2 5.9-.8 2-3.1 4.5-5.9 7.2-7.5 11.8-14.4 21.7-16.2 24.7-3.8 6.3-1 14.4 1.4 22-.3-1.8 0-3.5 1.4-4.7z"/><path fill="#522E16" d="M91.9 164.7c-.6-8.3-8.7-23.9-8.7-23.9s.3 3.8 3 19.3c1.3 7.2.8 15.6 0 22.5v1.4c-.5 5.3-1.8 10.4-2.3 11.9.3-.5.7-1 1-1.6.7-1.1 1.4-2.4 2.1-3.7.8-1.5 1.6-3.1 2.3-4.8.7-1.7 1.3-3.5 1.8-5.4.1-.2.1-.5.2-.7 3-12.3.7-35.3.7-35.3s-.5-3.2-1.1-8c-1.3-2.2-2.3-4.3-2.8-6-.8 1.9-1.6 3.7-2.5 5.5.6 2.3 1.3 4.6 2.4 6.9 5.4 11.7 4.5 30.2 3.9 21.9zm-6.8-31.3c.8-2.3 1.5-4.6 2.1-6.8-.5-2.4-1-5.2-1.6-8.1-.4.8-.8 1.6-1.2 2.3-.2 3.3-.2 7.7.7 12.6zm-27.3 60.8c-.2-.6-.5-1.1-.7-1.8.2 1.1.2 2.2.2 3.2l2.2 1.7c-.1-.1-.9-1.3-1.7-3.1z"/><path fill="#653D1A" d="M84 195.8c.4-1.6 1.8-6.6 2.3-11.9v-1.4c-.9 6.6-2 11.8-2.3 13.3-.1.3-.1.5-.1.5s0-.2.1-.5zm-38.7-35.2c0-.1 0-.1 0 0-.5-5-.4-9.8 1.3-11.5 1.4-1.4 3.5-3.6 5.9-5.9 1.6-3.3 3.3-6.6 5-9.6-7 4.3-14.9 9.7-15.7 16.4-.6 4.7.6 10 2 14.3.1.2.1.4.2.7.4-1.5.9-2.9 1.3-4.4zm31.9-24.7c1.1-2.7 1.7-4.6 2-5.9-2.6 4.5-5.3 8.9-8 13.1 2.9-2.6 5.2-5.2 6-7.2zm7.9-2.5c-.9-4.9-.9-9.3-.7-12.6-1.4 2.8-3 5.6-4.6 8.4.3 2.2 1 7.3 1.9 13.6 1.3-3.2 2.4-6.3 3.4-9.4zm1.1 49.1c.8-6.9 1.3-15.3 0-22.5-2.7-15.4-3-19.3-3-19.3s8.1 15.6 8.7 23.9c.6 8.3 1.5-10.2-3.9-22-1.1-2.3-1.8-4.6-2.4-6.9-1.4 2.9-2.7 5.6-3.8 7.8 1.9 13.8 4.3 32.8 4.4 39z"/><path fill="#CCAD9F" d="M119.4 81.6c1.1 3.3 1.1 8.5-1.8 12.8-1.8 2.7-4.4 4.9-7.9 6.1 3.5-1.2 6-3.3 7.9-6.1 2.9-4.3 2.9-9.5 1.8-12.8-.6-1.8-2.2-3.9-5.2-5.5 3.1 1.6 4.6 3.7 5.2 5.5zm-17 19.9c2.7.1 5.1-.3 7.2-1-2 .7-4.4 1.1-7.2 1z"/><path fill="#CCAD9F" d="M96.9 144.7c3.3 4.1 7.1 8.1 10.4 11 7.6 6.7 20.7 5.5 20.7 5.5V80.3c-4.3 0-6.5 2-6.5 2s1.7 7.9-2.6 13.2c-6 9-14.2 8.7-23.3 6.3-.1 0-.2-.1-.3-.1-.6 3.6-1.1 7.3-1.6 11.3-.6 4.7-2.9 11.2-5.6 17.3.5 1.7 1.5 3.8 2.8 6 1.6 2.6 3.7 5.5 6 8.4zm17.6-15.3c2.7-.9 2.9-1.7 5.4-4 1.3-1.5 3.7-2.3 5.5-1.4 1.2 1.1 2.5.9 2.5.9v8.8c-11.1-.1-13.4-4.3-13.4-4.3zm-30.4-60c-1.2 4-3.1 9.1-5.1 14.4 0 .8.1 1.6.1 2.4 4.2-13.2 7.2-23.9 5-16.8zm27.8 5.8c-2.2-.7-4.9-1.2-8.2-1.2-1.6 0-3.3.2-4.9.5 1.6-.3 3.3-.5 4.9-.5 3.3 0 6 .4 8.2 1.2z"/><path fill="#CCAD9F" d="M116.3 72.3l-1.3-2s3 1.4 5.6 3.2c0 0-1.8 1.5-3.7 2.3 3.5 2.1 4 4.5 4 4.5 2.6-1.6 7.1-2.3 7.1-2.3V45.6s-8.4.9-13.5 2.8c-3.9 1.5-11 11.4-14.4 21.6 1.1-.4 2.1-.6 3.1-.6 3.5 0 10 .9 13.1 2.9zm-29.1 54.3c3.6-12.8 4.7-22.9 4.7-22.9-1.4 4.4-3.6 9.4-6.3 14.8.6 2.8 1.1 5.6 1.6 8.1z"/><path fill="#884251" d="M128 124.8s-1.3.2-2.5-.9c-1.8-.9-4.2-.1-5.5 1.4-2.5 2.4-2.8 3.1-5.4 4 0 0 2.3 4.3 13.5 4.3v-8.8z"/><path fill="#522E16" d="M114.2 76.1c-.7-.4-1.5-.7-2.3-1 .9.3 1.6.7 2.3 1zm2.7-.3c1.9-.8 3.7-2.3 3.7-2.3-2.6-1.8-5.6-3.2-5.6-3.2l1.3 2c-3.2-2-9.6-3-13.2-3-.9 0-2 .2-3.1.6l-.9 3c.9-.1 1.9-.2 3-.2 7.5.1 12.1 1.5 14.8 3.1z"/><path fill="#785C3A" d="M118.9 95.5c4.3-5.3 2.6-13.2 2.6-13.2s2.2-2 6.5-2V78s-4.5.7-7.1 2.3c0 0-.5-2.4-4-4.5-2.7-1.6-7.2-3-14.7-3-1.1 0-2.1.1-3 .2-.1.5-.3 1-.4 1.6 1.6-.3 3.3-.5 4.9-.5 3.3 0 6 .4 8.2 1.2.9.3 1.6.6 2.4 1 3 1.6 4.6 3.7 5.2 5.5 1.1 3.3 1.1 8.5-1.8 12.8-1.8 2.7-4.4 4.9-7.9 6.1h-.1c-2.1.7-4.5 1-7.2 1-3.2-.1-5.4-.6-6.9-1.4-.1.5-.2 1.1-.2 1.6.1 0 .2.1.3.1 9 2.1 17.1 2.4 23.2-6.5zm9.1-17.6z"/><path fill="#CCAD9F" d="M109.6 100.6c0-.1.1-.1 0 0 3.6-1.2 6.1-3.4 8-6.1 2.9-4.4 2.9-9.6 1.8-12.8-.6-1.8-2.2-3.9-5.2-5.5-.6-.2-1.4-.6-2.3-1-2.2-.7-4.9-1.2-8.2-1.2-1.6 0-3.3.2-4.9.5-.3 1.4-.5 2.8-.6 4.2-.6 7.8-1.6 14.5-2.7 21.4 1.5.8 3.6 1.4 6.9 1.4 2.8.1 5.2-.3 7.2-.9z"/><path opacity=".4" fill="#BBBDBF" d="M109.6 100.6c0-.1.1-.1 0 0 3.6-1.2 6.1-3.4 8-6.1 2.9-4.4 2.9-9.6 1.8-12.8-.6-1.8-2.2-3.9-5.2-5.5-.6-.2-1.4-.6-2.3-1-2.2-.7-4.9-1.2-8.2-1.2-1.6 0-3.3.2-4.9.5-.3 1.4-.5 2.8-.6 4.2-.6 7.8-1.6 14.5-2.7 21.4 1.5.8 3.6 1.4 6.9 1.4 2.8.1 5.2-.3 7.2-.9z"/><path fill="#522E16" d="M114.2 76.1c-.7-.4-1.5-.7-2.3-1 1 .5 1.8.8 2.3 1z"/><path opacity=".4" fill="#BBBDBF" d="M114.2 76.1c-.7-.4-1.5-.7-2.3-1 1 .5 1.8.8 2.3 1z"/><path fill="#785C3A" d="M102.4 101.5c-3.2-.1-5.4-.6-6.9-1.4 1.6.8 3.7 1.3 6.9 1.4z"/><path opacity=".4" fill="#BBBDBF" d="M102.4 101.5c-3.2-.1-5.4-.6-6.9-1.4 1.6.8 3.7 1.3 6.9 1.4z"/><path fill="#785C3A" d="M109.7 100.5s-.1 0 0 0c-.1 0 0 0 0 0z"/><path opacity=".4" fill="#BBBDBF" d="M109.7 100.5s-.1 0 0 0c-.1 0 0 0 0 0z"/><path fill="#341600" d="M158.5 173.6c.7 2.2 3 4.1 6.2 6-3-12.3-.7-35.3-.7-35.3s.5-3.2 1.1-8c-1.6 2.7-3.7 5.6-6 8.4-1 10.8-1.9 24.8-.6 28.9zM128 190.9v-41.4 41.4z"/><path fill="#AAA39B" d="M204.9 227.3c-.4 1.3-.9 2.7-1.4 4 1.5-1.1 3-2.2 4.4-3.4-1.1-.2-2.1-.4-3-.6zm3.5-9.9c-.7 1.9-1.5 4-2.2 6.2 1.3.4 3.3.8 5.7 1.1 2.4-2.1 4.8-4.4 7.1-6.7-.9 0-1.8.1-2.6.1-3.5 0-6.2-.4-8-.7zm8.8-8.6c-2.1 0-4-.2-5.4-.3-.6 1.5-1.3 3.2-2 5.2v.1c2.7.4 7.3.8 13.2.1.7-.7 1.3-1.4 1.9-2.2-.8-1.2-1.6-2.3-2.4-3.2-1.8.2-3.6.3-5.3.3zm1.8-3.9c-2.8-2.3-4.7-2.6-4.7-2.6s-.4.9-1 2.4c1.5.2 3.5.3 5.7.2z"/><path fill="#4A4744" d="M213.3 204.8c-.1 0-.1 0 0 0-.4 1-.9 2.2-1.4 3.6v.1c1.4.2 3.3.3 5.4.3 1.7 0 3.5-.1 5.3-.4-1.3-1.5-2.5-2.6-3.5-3.5-2.3.1-4.3 0-5.8-.1zm-3.5 8.9c-.4 1.1-.9 2.3-1.3 3.5v.1c1.8.3 4.5.7 8 .7.8 0 1.7 0 2.6-.1 1.4-1.4 2.7-2.8 4-4.2-6.1.8-10.6.4-13.3 0zm-3.6 9.9c-.4 1.2-.8 2.4-1.3 3.6.8.2 1.8.5 3 .7 1.3-1.1 2.7-2.2 4-3.3-2.5-.2-4.4-.6-5.7-1z"/><path fill="#CCAD9F" d="M128 249.6v-5.3zm0-49.3s25.4 3 38.7-14.6c-.7-1.7-1.3-3.5-1.8-5.4-.1-.2-.1-.5-.2-.7-3.2-1.9-5.5-3.8-6.2-6-1.3-4.1-.4-18.1.6-28.9-3.3 4.1-7.1 8.1-10.4 11-7.6 6.7-20.7 5.5-20.7 5.5v44.1-5z"/><path fill="#C5BBB2" d="M198.2 194.2c-4.6-2.1-9.3-4-13.4-5.7 0 1.5 0 3.2-.1 4.9 7 2.1 16.4 5.7 28.5 11.5v-.1c.6-1.6 1-2.4 1-2.4-4.1-2.5-9.2-5.1-14.5-7.5l-3.1 2.4c0-.1.8-1.3 1.6-3.1zM128 224.1v4.9c9.3-.2 41.2-.3 66.8 8.2 1.6-1 3.1-1.9 4.6-2.9-25.5-10.4-61.8-10.4-71.4-10.2zm0 25.5v4.9c3.4-.1 9.9-.1 18.1.2 6.6-.9 13.1-2.4 19.3-4.3-16.9-2-31.8-1.2-37.4-.8z"/><path fill="#C5BBB2" d="M128 215.3v4.9c10.3-.2 48.6-.3 75.1 11.4.2-.1.3-.2.5-.3.5-1.4.9-2.7 1.4-4-27.7-14.5-67.1-12.7-77-12z"/><path fill="#C5BBB2" d="M153.3 203.3c-6.6 2.5-14.9 4.3-25.3 4.3v-2.4 6.2c10.6-.8 49.7-2.5 78.2 12.1.8-2.2 1.5-4.3 2.2-6.2v-.1c-35.6-16.6-52.9-14.3-55.1-13.9zm31.1-6c-.3 2.2-.7 4.3-1.3 6 7.5 2.2 16.3 5.5 26.7 10.3.7-1.9 1.4-3.7 2-5.2v-.1c-11.6-5.4-20.6-8.9-27.4-11zM128 241v4.8c6.9-.5 25.5-1.4 45.6 1.9 1.9-.7 3.9-1.5 5.8-2.4-21.6-4.5-44.1-4.5-51.4-4.3zm44-45.2c-.3-.5-.7-1-1-1.6-1-.1-1.8-.2-2.3-.2-1.9 1.8-4.2 3.6-7.1 5.3 3.7.2 8.5.9 14.5 2.3-.8-1.2-2.4-3.2-4.1-5.8.1.3.1.5.1.5s0-.2-.1-.5zm6.9.2c-1.4-.2-1.7 3.9-1.8 5.8 1.5.4 3 .8 4.6 1.2-.5-2.7-1.6-6.8-2.8-7zM128 232.8v4.4c8.2-.2 33.6-.3 57.1 5.5 1.8-.9 3.5-1.8 5.3-2.8-24.4-7.3-53.9-7.3-62.4-7.1z"/><path fill="#5B5754" d="M211.8 208.4c.6-1.4 1-2.6 1.4-3.6-12.1-5.8-21.4-9.3-28.5-11.5l-.3 3.9c6.8 2.2 15.8 5.7 27.4 11.2zM168.7 194c.5 0 1.3.1 2.3.2-.3-.5-.6-1-.9-1.6-.4.5-.9.9-1.4 1.4zm14.4 9.4c-.3.7-.6 1.3-.9 1.9 0 0-.2-1-.4-2.2-1.6-.5-3.2-.9-4.6-1.2v.9s-.4-.4-.9-1.1c-6-1.4-10.8-2-14.5-2.3-2.4 1.5-5.2 2.9-8.3 4.1 2.2-.4 19.5-2.7 55.2 13.9.5-1.2.9-2.4 1.3-3.5v-.1c-10.6-5-19.5-8.2-26.9-10.4zm-55.1 8.1v3.9c9.9-.7 49.3-2.5 76.9 12 .4-1.2.8-2.4 1.3-3.6-28.5-14.9-67.6-13.1-78.2-12.3zm0 8.7v3.8c9.6-.2 45.9-.2 71.4 10.2 1.3-.8 2.5-1.7 3.7-2.6-26.5-11.6-64.8-11.6-75.1-11.4zm0 8.8v3.8c8.5-.2 38-.2 62.3 7 1.5-.8 3-1.7 4.5-2.6-25.6-8.5-57.5-8.5-66.8-8.2zm0 8.1v3.8c7.3-.2 29.8-.2 51.3 4.3 1.9-.8 3.8-1.7 5.7-2.7-23.4-5.6-48.8-5.5-57-5.4zm0 8.6v3.9c5.6-.4 20.5-1.1 37.4.9 2.8-.8 5.5-1.8 8.1-2.8-20-3.4-38.6-2.5-45.5-2zm0 8.8v1.5c6.1 0 12.2-.4 18.1-1.3-8.2-.4-14.7-.3-18.1-.2z"/><path fill="#5B5754" d="M170.1 192.6c-1.2-2.1-2.4-4.4-3.4-6.9-13.3 17.6-38.7 14.6-38.7 14.6v7.3c10.4 0 18.7-1.8 25.3-4.3 3.2-1.2 5.9-2.6 8.3-4.1 2.8-1.7 5.2-3.6 7.1-5.3.5-.4 1-.8 1.4-1.3z"/><path fill="#522E16" d="M211.4 177.1c-2.4 12.1-5.4-13.4-10.5-19.2-5.1-5.7-19.8-16.3-22.2-22s-2.4-7.9-2.4-7.9-6.4 44.3-6.6 54.5c.8 6.6 2 11.9 2.3 13.4 1.7 2.6 3.2 4.6 4.1 5.7.6.7.9 1.1.9 1.1v-.9c.1-1.9.4-6.1 1.8-5.8 1.2.2 2.3 4.4 2.9 7 .3 1.3.4 2.2.4 2.2.3-.5.6-1.2.9-1.9.6-1.7 1.1-3.8 1.3-6 .2-1.3.3-2.6.3-3.9.1-1.7.1-3.4.1-4.9 0-3.9-.3-6.9-.3-6.9s9.3 0 13.5 3.5c2.6 2.2 1.4 6.2.2 9.1-.8 1.8-1.7 3.1-1.7 3.1l3.1-2.4 6.4-4.9 6-11.2-.6 11.2s.9-3.8 2.4-13.1c.6-3.5-.3-8-1.8-12.5-.4 1.1-.7 2.1-1.1 3.1 1 3.2 1.2 6.5.6 9.6z"/><path fill="#522E16" d="M210.7 160.5c-.5-1.3-1.1-2.6-1.7-3.9-.4.7-.8 1.3-1.2 1.8.9 1.9 1.8 3.9 2.4 6 .2-1.3.3-2.6.5-3.9zm-11.4-21.3c-3-2.7-5.9-4.9-7.9-5.6-1-.3-1.8-.7-2.5-1.1 2.4 2.7 5.7 6.5 8.9 10.5 2.8 3.5 6.6 8.7 9.5 14.4.2-.8.5-1.7.8-2.7-2-3.9-4.1-7.4-5.7-9.8-1.4-1.8-2.4-3.8-3.1-5.7zM183 112.7c1.3 6.2 3.5 13 6.6 15.3 1.9 1.5 4.8 3.1 8 5.1-.5-3.2-.2-6 .8-7.7 1.4-2.4 1.2-12.9.7-20.7-.9-1.6-1.8-2.7-2.5-3.5-1.4-1.6-5.2-6.2-8.7-10.3-.3 4.7-2.1 9.1-2.2 10.5-.2 1.9-2 7.8-2.7 11.3zm-35.8-85s19.5-6.7 27.5 16.6c4.1 12.1 4.6 28.7 16.8 42.8 2.3 2.6 4.6 5.5 6.7 8.5-.9-5.1-4-16.4-11.2-38.2-7.8-23.6-25.8-37.7-32.3-42.8S137 8.4 134.9 9.8s-6.9 0-6.9 0v1.6s18 1.3 19.2 16.3zM168 130c-.5 1.8-1.5 3.9-2.9 6.2-.6 4.8-1.1 8-1.1 8s-2.3 23 .7 35.3c.1.2.1.5.2.7.5 1.8 1.1 3.6 1.8 5.4 1 2.5 2.2 4.8 3.4 6.9.3.5.6 1.1.9 1.6.3.6.7 1.1 1 1.6-.4-1.6-1.8-6.6-2.3-11.9v-1.4c-.8-6.9-1.3-15.3 0-22.5 2.7-15.4 3-19.3 3-19.3s-8.1 15.6-8.7 23.9c-.6 8.3-1.5-10.2 3.9-22 3.2-7.1 3.8-14.2 3.7-19.4-1.1.2-2 .3-2.3.3-.4 2.6-.8 4.8-1.3 6.6z"/><path fill="#653D1A" d="M210.7 160.5c-.1 1.3-.3 2.7-.5 3.9-.7-2-1.5-4-2.4-6-.9 1.4-1.6 2.1-1.6 2.1s.5-1.2 1.1-3.2c-2.9-5.8-6.7-10.9-9.5-14.4-3.2-3.9-6.5-7.8-8.9-10.5.7.4 1.5.8 2.5 1.1 2.1.7 5 2.9 7.9 5.6 3.8 3.4 7.7 7.5 9.9 9.7.3-2.1.6-4.4.7-6.7-3.3-3.5-8-6.5-12.3-9.1-3.2-1.9-6.1-3.6-8-5.1-3.1-2.4-5.3-9.2-6.6-15.3-.1.8-.2 1.4-.2 1.8 0 2.4-3.6 5.5-4.9 6.9-.8.9-4 1.5-6.2 1.9.1 5.2-.4 12.3-3.7 19.4-5.4 11.8-4.5 30.3-3.9 22 .6-8.3 8.7-23.9 8.7-23.9s-.3 3.8-3 19.3c-1.3 7.2-.8 15.6 0 22.5.2-10.1 6.6-54.5 6.6-54.5s0 2.2 2.4 7.9 17.1 16.3 22.2 22c5.1 5.7 8.1 31.3 10.5 19.2.6-3.1.4-6.4-.4-9.8.4-.9.7-2 1.1-3.1 1.4-4.3 2.6-9.6 2-14.3-.1-1.2-.5-2.4-1.1-3.5-.6 2.5-1.4 4.7-2.2 6.6.1 2.2 0 4.8-.2 7.5z"/><path fill="#653D1A" d="M169.8 183.8c.5 5.3 1.8 10.4 2.3 11.9.1.3.1.5.1.5s0-.2-.1-.4c-.4-1.5-1.5-6.8-2.3-13.4-.1.6 0 1.1 0 1.4z"/><path fill="#CCAD9F" d="M181.3 92.2c-1.8 1.7-2.9 3.4-3.4 4.1.1 1 .1 1.3-.2.4 0 0 3.9 13.7 3.9 20l-6.2-17.9c-.2 1-.4 1.9-.7 2.8l-.2 1.3c-.1.7-.3 1.4-.4 2.1l-.5 3c0 .1 0 .2-.1.3l-.2.9c0 .2-.1.4-.1.5l-.1.6s.1-1.8.1-4.5c-1.7 5.6-2.9 12.1-3.9 17.6.2 0 1.1-.1 2.3-.3 2.2-.3 5.3-1 6.2-1.9 1.3-1.4 4.9-4.6 4.9-6.9 0-.4.1-1.1.2-1.8.7-3.4 2.5-9.4 2.7-11.4.1-1.4 1.9-5.8 2.2-10.5-3.5-4.1-6.6-7.9-6.6-7.9s2.5 7.3.1 9.5z"/><path fill="#DEBCAD" d="M128 77.9s4.5.7 7.1 2.3c0 0 .5-2.4 4-4.5-1.9-.8-3.7-2.3-3.7-2.3 2.6-1.8 5.6-3.2 5.6-3.2l-1.3 2c3.2-2 9.6-3 13.2-3 3.6 0 9.3 3.6 9.3 3.6H160l.3.5c6.1 1.5 8.8 5 9.5 6.3-1.4-4.6-3.3-9.4-5.8-14.1 0 0-2-17.5-15.6-20.4l2.4-2.2-8.7 1.6 4.5-3.5-8.4 1.6.6-2.2-10.8 5.2v32.3zm38.5 14.2c.2-.4.3-.8.5-1.3-.2.5-.3.9-.5 1.3z"/><path fill="#DEBCAD" d="M146.3 100.5c-3.5-1.2-6-3.3-7.9-6.1-2.9-4.4-2.9-9.6-1.8-12.8.6-1.8 2.2-3.9 5.2-5.5-3 1.6-4.6 3.7-5.2 5.5-1.1 3.3-1.1 8.5 1.8 12.8 1.8 2.8 4.4 4.9 7.9 6.1zm6-26.5c-3.3 0-6 .4-8.2 1.2 2.2-.8 4.9-1.2 8.2-1.2zm1.3 27.5c-2.7.1-5.1-.3-7.2-1 2 .7 4.4 1.1 7.2 1z"/><path fill="#DEBCAD" d="M148.7 155.7c3.3-2.9 7.1-6.9 10.4-11 2.3-2.8 4.4-5.7 6-8.4 1.4-2.3 2.4-4.5 2.9-6.2.5-1.8 1-4.1 1.4-6.5 1.1-5.5 2.2-12 3.9-17.6v-2.3c-.1-5-.7-12.4-2.7-20.5h-.5s-2 16.7-9.7 18.7c-9.1 2.3-17.3 2.7-23.3-6.3-4.3-5.3-2.6-13.2-2.6-13.2s-2.2-2-6.5-2v80.8s13 1.2 20.7-5.5zM128 124.8s1.3.2 2.5-.9c1.8-.9 4.2-.1 5.5 1.4 2.5 2.4 2.8 3.1 5.4 4 0 0-2.3 4.3-13.5 4.3v-8.8z"/><path fill="#DEBCAD" d="M168.4 81.6c.4 2.2-.2 5.6-1.2 8.7.9-3.1 1.6-6.6 1.2-8.7-.5-2.6-4.3-5.1-8.9-6.5 4.6 1.3 8.4 3.8 8.9 6.5zm7 17.3l-.1-.3-.2 1c-.1.5-.2 1.1-.3 1.7l-.1.4c.3-.9.5-1.8.7-2.8z"/><path fill="#9D4D5E" d="M141.5 129.4c-2.7-.9-2.9-1.7-5.4-4-1.3-1.5-3.7-2.3-5.5-1.4-1.2 1.1-2.5.9-2.5.9v8.8c11.1-.1 13.4-4.3 13.4-4.3z"/><path fill="#522E16" d="M144.1 75.2c-.9.3-1.6.6-2.3 1 .7-.4 1.4-.8 2.3-1z"/><path fill="#522E16" d="M153.8 72.8c2.5 0 4.6.3 6.4.7l-.3-.5h2.2s-5.7-3.6-9.3-3.6c-3.6 0-10 .9-13.2 3l1.3-2s-3 1.4-5.6 3.2c0 0 1.8 1.5 3.7 2.3 2.8-1.7 7.4-3.1 14.8-3.1z"/><path fill="#653D1A" d="M174.6 44.3c-8-23.3-27.5-16.6-27.5-16.6-1.1-15-19.1-16.3-19.1-16.3v33.3c.6-.4 1.3-.8 2.2-1.3 3.6-3.2 10.9-9 16.8-8.3 8.1 1 22.5 21.4 25.2 29.7 2.7 8.3 9.2 18 9.2 18s3.1 3.7 6.6 7.9c3.5 4.2 7.3 8.7 8.7 10.3.7.8 1.5 2 2.5 3.5 2.8 4.5 6.4 12.3 9.5 23.9 1.2 4.6 1.5 9.3 1.3 13.6-.1 2.4-.4 4.7-.7 6.7-.3 2.2-.8 4.1-1.2 5.8-.3 1-.5 1.9-.8 2.7-.6 2-1.1 3.2-1.1 3.2s.7-.7 1.6-2.1c.4-.5.7-1.1 1.2-1.8.6-1 1.2-2.2 1.8-3.5.8-1.9 1.6-4.1 2.2-6.6.7-2.8 1.2-6 1.2-9.5.2-12.4-6.8-28.2-16-41.3-2.1-3-4.4-5.9-6.7-8.5-12.3-14.1-12.7-30.7-16.9-42.8z"/><path fill="#653D1A" d="M173.2 110.4l.1-.6c0 .4-.1.6-.1.6zm0 0s.3-2.6.2-6.8v2.3c-.1 2.7-.2 4.5-.2 4.5zm.2-1.1l.2-.9c-.1.3-.1.6-.2.9zm.2-1.2l.5-3c-.1 1.1-.3 2.2-.5 3zm8 8.7c0-6.4-3.9-20-3.9-20-1.3-3.8-3.8-12.1-3.8-12.1s2 10.8 1.4 13.9l.1.3 6.2 17.9zm-39.5-72.2l8.7-1.6-2.4 2.3 4.8-2.9zm-3.9-1.9l8.4-1.6-4.5 3.5 8.3-4.8zm0 0l5.5-4.9s-8.6 3.2-13.5 5.8c-1.3 1.2-2.2 2.1-2.2 2.1l10.8-5.1-.6 2.1z"/><path fill="#653D1A" d="M175.1 99.6l.2-1c0 .3-.1.6-.2 1zm-.3 1.7c-.1.5-.2 1.1-.3 1.7l.2-1.3.1-.4zm0-24.3l3.1 7.2-2.2-1.8s1.9 10.6 2.3 13.9c.5-.8 1.6-2.5 3.4-4.1 2.4-2.2 0-9.3 0-9.3l-6.6-5.9z"/><path fill="#48270F" d="M138.2 42.7l12.2-2.9-8.3 4.8 11.2-2.2-4.9 2.9C162 48.2 164 65.7 164 65.7c2.6 4.7 4.4 9.5 5.8 14.1.2.3.3.5.3.5h3.8v2.8h-3.2c2.1 8.1 2.6 15.5 2.7 20.5.1 4.2-.2 6.8-.2 6.8s0-.2.1-.6c0-.2.1-.3.1-.5 0-.3.1-.5.2-.9 0-.1 0-.2.1-.3.2-.9.3-1.9.5-3 .1-.7.3-1.4.4-2.1.1-.6.2-1.2.3-1.7.1-.6.2-1.2.3-1.7.1-.4.1-.8.2-1 .5-3.1-1.4-13.9-1.4-13.9s2.5 8.3 3.8 12.1c.3.9.3.6.2-.4-.3-3.2-2.3-13.9-2.3-13.9l2.2 1.8-3.1-7.2 6.5 5.9s-6.5-9.7-9.2-18c-2.7-8.3-17.1-28.7-25.2-29.7-5.9-.7-13.2 5.1-16.8 8.3 4.9-2.5 13.5-5.8 13.5-5.8l-5.4 4.9zm-8 .8c-.9.5-1.6.9-2.2 1.3v.8s.8-.9 2.2-2.1z"/><path fill="#653D1A" d="M54.9 203.6c-.1.5-.2 1.1-.4 1.7 0 0 .4-.7.9-1.9s1.1-2.8 1.5-4.8c.2-.9.3-1.9.3-3 0-1 0-2.1-.2-3.2-.1-.7-.3-1.4-.5-2.2 0-.1-.1-.3-.1-.4-2.4-7.6-5.2-15.7-1.4-22 1.8-3 8.8-12.9 16.2-24.7 2.7-4.2 5.4-8.6 8-13.1.2-.3.4-.6.5-.9 1.6-2.8 3.2-5.6 4.6-8.4.4-.8.8-1.6 1.2-2.3 2.7-5.3 4.9-10.4 6.3-14.8 0 0-1.1 10.1-4.7 22.9-.6 2.2-1.3 4.5-2.1 6.8-1 3.1-2.1 6.2-3.4 9.3-.8 2-1.7 4-2.7 6 0 0 1.1-2 2.8-5.2 1.1-2.2 2.5-4.8 3.8-7.8.8-1.7 1.7-3.6 2.5-5.5 2.7-6.1 5-12.6 5.6-17.3.5-4 1-7.6 1.6-11.3.1-.5.2-1.1.2-1.6 1.1-6.9 2.1-13.6 2.7-21.4.1-1.4.3-2.8.6-4.2.1-.5.2-1 .4-1.6.3-1 .5-2 .9-3 3.4-10.2 10.5-20.1 14.4-21.6 5.1-1.9 13.5-2.8 13.5-2.8l-5.3-3.5 1 2.7s-2.8-2.8-10.4.1c-7.7 2.9-15.8 24.5-15.8 24.5s.6-3 1.9-11.3c1.3-8.3 12.5-20.1 12.5-20.1-11.8 6.1-17.1 17.4-16.6 23 .4 5.3-2.6 31.3-2.9 33.8.2-1.4 1-9.6.1-21.7-.3-4.4-.2-8.3.2-11.7.8-6.9 2.8-11.9 4.6-14.9 2.6-4.5 8.3-12.1 17.9-11.1s12.9 8.8 12.9 8.8V11.4s-24.6-4.2-41.5 25.9C78.8 51 72.1 69.8 70.9 80.7c-1.2 10.9-7.8 21.5-14.1 26.5 0 0 10.5-7.2 12.9-10.5 2.4-3.3-1.8 13.7-1.8 13.7S74 96.7 79 83.8c2-5.3 3.9-10.4 5.1-14.4 2.1-7.1-.8 3.6-5 16.8-4 12.8-9.1 27.9-11.8 31.5-1.7 2.3-5.1 7.6-8.8 14.1-.3.5-.6 1.1-.9 1.7-1.7 3-3.4 6.2-5 9.6-2.8 5.6-5.3 11.5-7.1 17 0 .1-.1.3-.1.4-.5 1.5-.9 3-1.2 4.4-1.2 4.8-1.5 9.1-.7 12.5.1.6.3 1.2.5 1.7 2.5 8.4 6.8 13 9.3 17.1.6 1.1 1.2 2.1 1.5 3.2.2 1.4.3 2.7.1 4.2z"/><path fill="#48270F" d="M128 43.9s-3.4-7.7-12.9-8.8-15.3 6.6-17.9 11.1c-1.7 3-3.7 7.9-4.6 14.9-.4 3.4-.6 7.3-.2 11.7.9 12.1 0 20.4-.1 21.7.3-2.6 3.4-28.5 2.9-33.8-.5-5.6 4.8-16.9 16.7-22.8 0 0-11.2 11.8-12.5 20.1-1.3 8.3-1.9 11.3-1.9 11.3s8.1-21.6 15.8-24.5c7.7-2.9 10.4-.1 10.4-.1l-1-2.7 5.3 3.5v-1.6zM92.2 94.5z"/><path fill="#917049" d="M137.1 95.5c6 9 14.2 8.7 23.3 6.3 7.7-2 9.7-18.7 9.7-18.7h3.7v-2.8H170s-.1-.2-.3-.5c-.8-1.3-3.5-4.7-9.5-6.3-1.8-.5-3.9-.7-6.4-.7-7.5 0-12 1.4-14.7 3-3.5 2.1-4 4.5-4 4.5-2.6-1.6-7.1-2.3-7.1-2.3v2.3c4.3 0 6.5 2 6.5 2s-1.7 7.9 2.6 13.2zm-.5-13.9c.6-1.8 2.2-3.9 5.2-5.5.7-.4 1.5-.7 2.4-1 2.2-.7 4.9-1.2 8.2-1.2 2.2 0 4.4.3 6.4.8.3.1.5.1.7.2 4.7 1.4 8.4 3.9 8.9 6.5.4 2.2-.2 5.6-1.2 8.7-.1.2-.1.4-.2.6-.1.4-.3.9-.5 1.3-.7 1.7-1.4 3.2-2 4.1-1.9 2.5-3.4 5.2-10.9 5.3-2.7.1-5.1-.3-7.2-1h-.1c-3.5-1.2-6-3.3-7.9-6.1-2.9-4.2-2.9-9.4-1.8-12.7z"/><path fill="#DEBCAD" d="M144.1 75.2c-1 .4-1.8.8-2.3 1-3 1.6-4.6 3.7-5.2 5.5-1.1 3.3-1.1 8.5 1.8 12.8 1.8 2.7 4.4 4.9 7.9 6.1h.1c2.1.7 4.5 1 7.2 1 7.4-.2 9-2.9 10.9-5.3.6-.8 1.4-2.3 2-4.1.2-.4.3-.8.5-1.3.1-.2.1-.4.2-.6 1-3.1 1.6-6.5 1.2-8.7-.5-2.6-4.3-5.1-8.9-6.5-.2-.1-.5-.1-.7-.2-2.1-.5-4.3-.8-6.4-.8-3.4-.1-6.1.3-8.3 1.1z"/><path opacity=".4" fill="#FFF" d="M144.1 75.2c-1 .4-1.8.8-2.3 1-3 1.6-4.6 3.7-5.2 5.5-1.1 3.3-1.1 8.5 1.8 12.8 1.8 2.7 4.4 4.9 7.9 6.1h.1c2.1.7 4.5 1 7.2 1 7.4-.2 9-2.9 10.9-5.3.6-.8 1.4-2.3 2-4.1.2-.4.3-.8.5-1.3.1-.2.1-.4.2-.6 1-3.1 1.6-6.5 1.2-8.7-.5-2.6-4.3-5.1-8.9-6.5-.2-.1-.5-.1-.7-.2-2.1-.5-4.3-.8-6.4-.8-3.4-.1-6.1.3-8.3 1.1z"/><path fill="#522E16" d="M141.8 76.1c.6-.2 1.4-.6 2.3-1-.9.3-1.6.7-2.3 1z"/><path opacity=".4" fill="#FFF" d="M141.8 76.1c.6-.2 1.4-.6 2.3-1-.9.3-1.6.7-2.3 1z"/><path fill="#917049" d="M146.4 100.6c0-.1-.1-.1 0 0-.1-.1 0-.1 0 0z"/><path opacity=".4" fill="#FFF" d="M146.4 100.6c0-.1-.1-.1 0 0-.1-.1 0-.1 0 0z"/><path fill="#917049" d="M153.6 101.5c7.4-.2 9-2.9 10.9-5.3.6-.8 1.4-2.3 2-4.1-.7 1.7-1.4 3.2-2 4.1-1.9 2.4-3.5 5.1-10.9 5.3z"/><path opacity=".4" fill="#FFF" d="M153.6 101.5c7.4-.2 9-2.9 10.9-5.3.6-.8 1.4-2.3 2-4.1-.7 1.7-1.4 3.2-2 4.1-1.9 2.4-3.5 5.1-10.9 5.3z"/><path fill="#917049" d="M167.2 90.2c-.1.2-.1.4-.2.6 0-.2.1-.4.2-.6z"/><path opacity=".4" fill="#FFF" d="M167.2 90.2c-.1.2-.1.4-.2.6 0-.2.1-.4.2-.6z"/><path fill="#917049" d="M158.7 74.8c.3.1.5.1.7.2-.2 0-.4-.1-.7-.2z"/><path opacity=".4" fill="#FFF" d="M158.7 74.8c.3.1.5.1.7.2-.2 0-.4-.1-.7-.2z"/></svg>