<svg id="Layer_1" xmlns="http://www.w3.org/2000/svg" width="256" height="256"><style>.st1{fill:#cdaea0}.st3{fill:#79796f}.st4{fill:#b59a8f}.st6{fill:#63635a}</style><g id="XMLID_1_"><circle id="XMLID_36_" cx="128" cy="128" r="128" fill="#b2b4b5"/><g id="XMLID_37_"><path id="XMLID_39_" class="st1" d="M189.6 187.8c-10.3-3.2-25-8-31.9-11.1-2.3-4.3-1.5-17.5-.3-29.3-4.1 3.2-8.3 6-10.2 7.9-4.5 4.5-19.2 4.6-19.2 4.6v96-54.1c0 .1 50-5.9 61.6-14z"/><path id="XMLID_44_" d="M192 184.2c.2 1.3-.7 2.5-2.4 3.7C178 196 128 202 128 202v54c40.1 0 76-18.5 99.4-47.4-11.3-12-35.4-24.4-35.4-24.4zm-54.1 68.7c-1.3 0-2.3-1-2.3-2.3 0-1.3 1-2.3 2.3-2.3 1.3 0 2.3 1 2.3 2.3 0 1.3-1.1 2.3-2.3 2.3zm8.1-29.2c-1.3 0-2.3-1-2.3-2.3 0-1.3 1-2.3 2.3-2.3 1.3 0 2.3 1 2.3 2.3-.1 1.3-1.1 2.3-2.3 2.3zm21.7 15.2c-1.3 0-2.3-1-2.3-2.3 0-1.3 1-2.3 2.3-2.3 1.3 0 2.3 1 2.3 2.3 0 1.3-1.1 2.3-2.3 2.3zm3.3-22.7c-1.3 0-2.3-1-2.3-2.3 0-1.3 1-2.3 2.3-2.3 1.3 0 2.3 1 2.3 2.3 0 1.3-1.1 2.3-2.3 2.3zm22.5 12c-1.3 0-2.3-1-2.3-2.3 0-1.3 1-2.3 2.3-2.3 1.3 0 2.3 1 2.3 2.3 0 1.3-1 2.3-2.3 2.3zm4.5-25.5c-1.3 0-2.3-1-2.3-2.3 0-1.3 1-2.3 2.3-2.3 1.3 0 2.3 1 2.3 2.3 0 1.3-1 2.3-2.3 2.3z" fill="#f5f2d9"/><circle id="XMLID_51_" class="st3" cx="146" cy="221.4" r="2.3"/><circle id="XMLID_52_" class="st3" cx="171" cy="214" r="2.3"/><circle id="XMLID_53_" class="st3" cx="167.7" cy="236.6" r="2.3"/><circle id="XMLID_54_" class="st3" cx="198" cy="200.4" r="2.3"/><circle id="XMLID_55_" class="st3" cx="193.5" cy="225.9" r="2.3"/><circle id="XMLID_56_" class="st3" cx="137.9" cy="250.6" r="2.3"/><path id="XMLID_57_" class="st4" d="M108.8 155.4c-2-2-6.1-4.8-10.2-7.9 1.2 11.7 1.9 25-.3 29.3-6.9 3.1-21.6 7.8-31.9 11.1C78 196 128 202 128 202v54-96s-14.7-.1-19.2-4.6z"/><path id="XMLID_60_" d="M66.4 187.8c-1.7-1.2-2.6-2.4-2.4-3.7 0 0-24.1 12.4-35.5 24.4C52 237.5 87.8 256 128 256v-54.1s-50-6-61.6-14.1zM58 202.7c-1.3 0-2.3-1-2.3-2.3 0-1.3 1-2.3 2.3-2.3 1.3 0 2.3 1 2.3 2.3-.1 1.3-1.1 2.3-2.3 2.3zm4.5 25.5c-1.3 0-2.3-1-2.3-2.3 0-1.3 1-2.3 2.3-2.3 1.3 0 2.3 1 2.3 2.3 0 1.3-1 2.3-2.3 2.3zM82.7 214c0-1.3 1-2.3 2.3-2.3 1.3 0 2.3 1 2.3 2.3 0 1.3-1 2.3-2.3 2.3-1.2-.1-2.3-1.1-2.3-2.3zm5.6 24.9c-1.3 0-2.3-1-2.3-2.3 0-1.3 1-2.3 2.3-2.3 1.3 0 2.3 1 2.3 2.3 0 1.3-1 2.3-2.3 2.3zm21.7-15.2c-1.3 0-2.3-1-2.3-2.3 0-1.3 1-2.3 2.3-2.3 1.3 0 2.3 1 2.3 2.3 0 1.3-1 2.3-2.3 2.3zm8.1 29.2c-1.3 0-2.3-1-2.3-2.3 0-1.3 1-2.3 2.3-2.3 1.3 0 2.3 1 2.3 2.3 0 1.3-1 2.3-2.3 2.3z" fill="#e0ddc8"/><circle id="XMLID_67_" class="st6" cx="110" cy="221.4" r="2.3"/><circle id="XMLID_68_" class="st6" cx="85" cy="214" r="2.3"/><circle id="XMLID_69_" class="st6" cx="88.3" cy="236.6" r="2.3"/><circle id="XMLID_70_" class="st6" cx="58" cy="200.4" r="2.3"/><circle id="XMLID_71_" class="st6" cx="62.5" cy="225.9" r="2.3"/><circle id="XMLID_72_" class="st6" cx="118.1" cy="250.6" r="2.3"/><path id="XMLID_73_" class="st1" d="M169.9 112.6c6.1 1.2 9.5-5.8 9.5-8.3 0-2.9 2.9-5.5 3.4-8.7.5-3.2-.2-7.3 1.4-10.7s.7-6.2-1.4-7.9-6 4.8-6 4.8h-.1c-.8 5.6-1.9 10.6-3.4 14.2-1.7 4.4-2.7 10.5-3.4 16.6z"/><path id="XMLID_74_" d="M130.3 128.3c1.7-.8 3.8-.1 5 1.3 2.3 2.2 2.5 2.8 4.9 3.7 0 0-2.1 3.9-12.2 3.9V160s14.7-.1 19.2-4.6c2-2 6.1-4.8 10.2-7.9 5.3-4.1 10.5-8.7 10.9-12.8.4-4.3.6-13.2 1.6-22 .7-6.2 1.8-12.3 3.5-16.6 1.4-3.6 2.6-8.6 3.4-14.2 1.4-10.5 1.4-23-1.1-31.8-3.8-13.4-15-40.2-47.6-40.2v119.3c-.1-.1 1.1.2 2.2-.9z" fill="#dfbdad"/><path id="XMLID_75_" d="M140.2 133.3c-2.4-.9-2.6-1.5-4.9-3.7-1.2-1.4-3.3-2.1-5-1.3-1.1 1-2.3.8-2.3.8v8.1c10.1 0 12.2-3.9 12.2-3.9z" fill="#9d867d"/><path id="XMLID_76_" class="st4" d="M79.3 81.8c-.1 0-3.9-6.5-6-4.8s-3.1 4.6-1.4 7.9 1 7.5 1.4 10.7c.5 3.2 3.4 5.9 3.4 8.7 0 2.5 3.4 9.5 9.5 8.3-.7-6.2-1.8-12.3-3.5-16.6-1.5-3.6-2.6-8.6-3.4-14.2z"/><path id="XMLID_77_" class="st1" d="M128 160v-22.7c-10.1 0-12.2-3.9-12.2-3.9 2.4-.9 2.6-1.5 4.9-3.7 1.2-1.4 3.3-2.1 5-1.3 1.1 1 2.3.8 2.3.8V9.8C95.4 9.8 84.3 36.6 80.4 50c-2.5 8.8-2.6 21.3-1.1 31.8.8 5.6 1.9 10.6 3.4 14.2 1.7 4.4 2.8 10.4 3.5 16.6 1 8.8 1.3 17.7 1.6 22 .4 4.1 5.6 8.8 10.9 12.8 4.1 3.2 8.3 6 10.2 7.9 4.4 4.6 19.1 4.7 19.1 4.7z"/><path id="XMLID_78_" d="M125.7 128.3c-1.7-.8-3.8-.1-5 1.3-2.3 2.2-2.5 2.8-4.9 3.7 0 0 2.1 3.9 12.2 3.9v-8.1s-1.2.3-2.3-.8z" fill="#86726a"/></g></g></svg>