<svg xmlns="http://www.w3.org/2000/svg" width="256" height="256"><circle fill="#B2B4B5" cx="128" cy="128" r="128"/><path fill="none" d="M169.1 112.6c-.7 5.8-1 11.8-1.3 16.3 1.2-3.2 2-6 2.3-8.4.3-2.3.6-5 .8-7.9-.6.2-1.2.2-1.8 0zm-71.3 34.9c-5.3-4.1-10.5-8.7-10.9-12.8-.4-4.3-.6-13.2-1.6-22-1.3.2-2.4.1-3.5-.2.3 1.9.6 3.8.9 5.5 1.6 5.3 2.8 10.3 2.8 13.6 0 9.5 1 17.6-2.6 22 0 0 0-6.7-.3-10.6 0 0-4.8 5.8-2.9 10.6 1.3 3.3 2.6 12.8 2.4 20.3 8.4-2.1 15.1-3.6 16.7-4 .4-6.1-.2-14.6-1-22.4zm58 8.9c1.7-4.1 3.8-8.6 5.9-13.1-1.6 1.4-3.3 2.9-5.1 4.2-.3 2.9-.6 5.9-.8 8.9zM50.4 182.2c.1 0 .3-.1.4-.1-2-6.2-2.9-13-.7-19.3 0 0-7.7 11.2-8.9 23v.5c2.8-1.7 5.9-3.1 9.2-4.1z"/><path fill="#B59A8F" d="M108 155.4c-2-2-6.1-4.8-10.2-7.9.8 7.8 1.4 16.3 1 22.4.2-.1.4-.1.4-.1s-.3 4.5-.6 12.2h28.6v-22s-14.7-.1-19.2-4.6z"/><path fill="#B786AC" d="M98.6 182c-.6 14.7-1.5 41-1.3 70.3 9.6 2.4 19.6 3.6 29.9 3.7v-74H98.6z"/><path fill="#AFAE9F" d="M98.6 182c.3-7.7.6-12.2.6-12.2s-.1 0-.4.1c-1.6.4-8.3 1.9-16.7 4-.1 3.4-.5 6.3-1.4 8.1-2.9 5.7-17.9 40.6-7.3 49.8 0 0-12.1-10.5-12.1-30.3 0 0-6.9-8.6-10.5-19.3-.1 0-.3.1-.4.1-3.3 1-6.4 2.3-9.3 4-.1 3 0 5 0 5-.2-1.6-.1-3.3 0-4.9-7 4-12.6 9.7-17.1 16.4 17.5 24.3 43.3 42.3 73.3 49.7-.2-29.5.7-55.8 1.3-70.5z"/><path fill="#CDAEA0" d="M146.4 155.4c-4.5 4.5-19.2 4.6-19.2 4.6v22h29.7c-.1-2.2-.2-4.1-.3-5.8-2.8-2.6-5.3-6.8-3.3-13.2.6-2 1.5-4.2 2.5-6.6.2-3 .5-6 .8-8.9-4.1 3.2-8.3 6-10.2 7.9z"/><path fill="#D299C5" d="M156.9 182h-29.7v74h.8c10.5 0 20.7-1.3 30.5-3.7.1-29.3-.9-55.6-1.6-70.3z"/><path fill="#CDAEA0" d="M170.9 112.8c.6-5.8 1.1-12.1 1.4-16.2-1.6 4.3-2.6 10.2-3.3 16.1.7.1 1.3.1 1.9.1z"/><path fill="#DFBDAD" d="M162.5 73.7c-1.3-1.8-2.8-4.1-4.8-6.7 0 0-14.9-18.7-30.5-20.6v82.7s1.2.2 2.3-.8c1.7-.8 3.8-.1 5 1.3 2.3 2.2 2.5 2.8 4.9 3.7 0 0-2.1 3.9-12.2 3.9V160s14.7-.1 19.2-4.6c2-2 6.1-4.8 10.2-7.9 1.8-1.4 3.5-2.8 5.1-4.2 2.3-5 4.5-9.9 6.2-14.3.3-4.6.6-10.5 1.3-16.3.7-5.9 1.7-11.8 3.3-16.1.1-1.7.2-3 .3-3.8v-1c-.1-.1-5.2-11-10.3-18.1zm-.8 5.9c-2.4-.3-6.7.2-9.1 1.3-2.4 1.1-13.1 3-13.1 3-.9.2-2.6 0-2.6 0l3.5-2.7-1.8-.9s6.2-1.5 8.1-1.9c1.9-.3 7.8-2.2 12-1.6s6.5 4.8 6.5 4.8-1.1-1.7-3.5-2z"/><path fill="#6C5142" d="M158.8 76.9c-4.2-.6-10.1 1.3-12 1.6-1.9.3-8.1 1.9-8.1 1.9l1.8.9L137 84s1.6.2 2.6 0c0 0 10.7-1.9 13.1-3 2.4-1.1 6.7-1.6 9.1-1.3s3.7 2.1 3.7 2.1-2.5-4.3-6.7-4.9z"/><path fill="#8B1826" d="M139.4 133.3c-2.4-.9-2.6-1.5-4.9-3.7-1.2-1.4-3.3-2.1-5-1.3-1.1 1-2.3.8-2.3.8v8.1c10.1 0 12.2-3.9 12.2-3.9z"/><path fill="#B59A8F" d="M75.3 91.5c.1-.8.2-1.5.3-2.3-.2.8-.3 1.6-.3 2.3zm5.4.9c-.4 6.4.3 13.6 1.2 20 1 .4 2.2.5 3.5.2-.7-6.2-1.8-12.3-3.5-16.6-.5-1.1-.9-2.3-1.2-3.6z"/><path fill="#CDAEA0" d="M81.2 87.4c-.3 1.6-.4 3.3-.5 5 .4 1.3.8 2.5 1.2 3.6 1.7 4.4 2.8 10.4 3.5 16.6 1 8.8 1.3 17.7 1.6 22 .4 4.1 5.6 8.8 10.9 12.8 4.1 3.2 8.3 6 10.2 7.9 4.5 4.5 19.2 4.6 19.2 4.6v-22.7c-10.1 0-12.2-3.9-12.2-3.9 2.4-.9 2.6-1.5 4.9-3.7 1.2-1.4 3.3-2.1 5-1.3 1.1 1 2.3.8 2.3.8V46.5L112 45.2l-.1-.2.9 2.1-2.6-2.2 1.9 4.6-6.9-1.4 5 2.9c-18.5 6.7-26.3 19.5-29 36.4zm34.5-7.1l-1.8.9 3.5 2.7s-1.6.2-2.6 0c0 0-10.7-1.9-13.1-3s-6.7-1.6-9.1-1.3-3.6 2.1-3.6 2.1 2.4-4.2 6.5-4.8c4.2-.6 10.1 1.3 12 1.6 2 .3 8.2 1.8 8.2 1.8z"/><path fill="#5C4437" d="M95.6 76.9c-4.2.6-6.5 4.8-6.5 4.8s1.3-1.8 3.7-2.1 6.7.2 9.1 1.3c2.4 1.1 13.1 3 13.1 3 .9.2 2.6 0 2.6 0l-3.5-2.7 1.8-.9s-6.2-1.5-8.1-1.9c-2.2-.3-8.1-2.2-12.2-1.5z"/><path fill="#6C0716" d="M124.9 128.3c-1.7-.8-3.8-.1-5 1.3-2.3 2.2-2.5 2.8-4.9 3.7 0 0 2.1 3.9 12.2 3.9v-8.1s-1.2.3-2.3-.8z"/><path fill="#6F5339" d="M50.8 182.1c3.5 10.7 10.5 19.3 10.5 19.3 0 19.8 12.1 30.3 12.1 30.3-10.5-9.3 4.5-44.1 7.3-49.8.9-1.8 1.3-4.7 1.4-8.1.3-7.5-1.1-17-2.4-20.3-1.9-4.8 2.9-10.6 2.9-10.6.3 3.8.3 10.6.3 10.6 3.5-4.4 2.6-12.5 2.6-22 0-3.3-1.2-8.2-2.8-13.6 1.3 7.3 2.7 12.5 2.7 12.5-1-2.9-4.4-14.7-6.4-21.8 2 9.7 2.1 23.9 2.1 23.9-1.8-17.8-7.5-16.5-5.9-41.1 0-.7.1-1.4.3-2.3C78.9 63.8 99.7 45 99.7 45l5.4 3.1 6.9 1.4-1.9-4.6 2.6 2.2-.9-2.1-3.5-8.8 18.9 1.8V2.1c-8.1.6-16.1 8.6-16.1 8.6C73.4 16.5 70.8 45.6 63.8 67s-4.2 21-7.7 29.6S58 110 58 110c-2.9 4.8 0 10.9 0 17.9 0 7 4.2 15.6-7 29-7.6 9.1-9.4 21.7-9.8 28.7 1.2-11.7 8.9-23 8.9-23-2.2 6.5-1.3 13.4.7 19.5zm18-39.2l1-5.7c-6.4-12.3-4-24.4-4-24.4-1.3 11.3 5.4 22.3 5.4 22.3l3-9.8s-1.9 13.3-3.4 17.7-5.9 13.1-5.9 13.1l.9-7.9c-3.7-5-3.2-20.9-3.2-20.9-.3 5.6 6.2 15.6 6.2 15.6zm31.5-124.3c-4.7.8-11.4 4.2-11.4 4.2 8.4-7.2 22.8-8.4 22.8-8.4l1.2 9.1c-7.7-1-16.5 7-16.5 7 3.4-8.3 15.3-10.2 15.3-10.2-14.1-.7-30.5 14.4-30.5 14.4 6.6-12.9 19.1-16.1 19.1-16.1zM58.1 96.7c2.6-7.4 7.9-23.2 10.3-34.5 0 0-3.4 35.4-8.4 45.5 0 .1-4.6-3.5-1.9-11zm-17 94.5s-.1-1.9 0-5v-.5.5c-.1 1.7-.1 3.3 0 5z"/><path fill="#563F29" d="M127.2 46.5v-8.4l-18.9-1.8 3.5 8.7.1.2zM80.7 92.4c.1-1.7.3-3.4.5-5C84 70.5 91.8 57.7 110.1 51l-5-2.9-5.4-3.1S78.9 63.8 75.5 89.1c-.1.8-.2 1.5-.3 2.3-1.7 24.7 4.1 23.4 5.9 41.1 0 0-.1-14.2-2.1-23.9 2 7.1 5.4 18.9 6.4 21.8 0 0-1.4-5.2-2.7-12.5-.3-1.7-.6-3.6-.9-5.5-.9-6.4-1.5-13.5-1.1-20zm31-72.1s-11.9 1.9-15.3 10.2c0 0 8.8-8 16.5-7l-1.2-9.1s-14.4 1.2-22.8 8.4c0 0 6.7-3.4 11.4-4.2 0 0-12.6 3.2-19.1 16.2 0-.1 16.4-15.2 30.5-14.5zM60 107.8c5-10.1 8.4-45.5 8.4-45.5-2.4 11.2-7.7 27-10.3 34.4-2.7 7.5 1.9 11.1 1.9 11.1zm5.8 40.2l-.9 7.9s4.4-8.7 5.9-13.1 3.4-17.7 3.4-17.7l-3 9.8s-6.7-11-5.4-22.3c0 0-2.4 12.1 4 24.4l-1 5.7s-6.5-10.1-6.2-15.8c0 .2-.5 16.2 3.2 21.1z"/><path fill="#C4C3B1" d="M211.6 184.5c0 1.4-.1 2.8-.3 4.1-2.4 14.4-8.6 29.2-3.6 38.6.1.2.2.5.3.7 9.1-7.3 17.2-15.8 24-25.3-5.2-7.7-11.9-14.1-20.4-18.1zm-29 52.5c-11.3-6.5-17.7-31.4-17.2-41.4 0 0-5.5 19.4 7.9 37.8 0 0-19.6-18.7-14.4-41.2l3.1-12.7s-2.8-1-5.3-3.3c.1 1.6.2 3.6.3 5.8.7 14.7 1.7 41 1.6 70.3 10.1-2.5 19.7-6.1 28.6-10.8-1.3-1.8-2.7-3.4-4.6-4.5z"/><path fill="#8A6749" d="M127.2 38.1s23.9 5.7 30.5 29c1.9 2.6 3.5 4.9 4.8 6.7 5.1 7.1 10.2 18 10.2 18v1c0-.5.1-.8.1-.8s1.3 1.8 3.5 4.5l4.3 4.9c2.1 2.3 4.6 4.7 7.1 6.9l2.9 2.1v.2c2.5 1.8 5.2 3.3 7.7 4 7.4 8.1-.3 17.1-.3 17.1.1.8.2 1.5.3 2 .2 1 .2 2.3 0 3.7 3.2-1.9 7.5-10.2 6.8-13.4-.7-3.2-2.8-14.1-2.8-14.1s.3-5.7 2.2-13.7-1.3-15.7-1.3-15.7c0-3.5-2.9-9.6-6.7-15.3s-16.3-28.1-33.8-49.5C144.9-5.8 127.2 2.1 127.2 2.1v36zm6.1-17.8s26.4.5 32.8 12c0 0-.9-3.1-8.4-9.6 0 0 9.1 6 14.1 14.6 0 0 10.8 18.1 16.4 21.5l-5.6-3.3 18.7 23.3s-24.2-24.9-33.1-39.5-34.9-19-34.9-19z"/><path fill="#967050" d="M211.3 188.6c.2-1.3.3-2.7.3-4.1-.1-13.6-10.4-29.1-13.5-33.3-2.6-3.5-.7-9.5 0-14 .2-1.4.3-2.7 0-3.7-.1-.5-.2-1.2-.3-2-1.5-6.7.3-17.1.3-17.1-2.5-.7-5.1-2.2-7.7-4-.6 2.4-7.4 32.1-3.1 43 4.6 11.3 12 28.4 12 32.7s-12.2 21.8-12.2 21.8 6.5-13.2 8.6-19.9c2.2-6.7-5-22-9.5-28s-7.5-25.2-7.5-25.2-2.4 8.1-2.2 18.5 6.2 18.8 8.1 21.7c1.9 2.9 1.4 11.5 1.4 11.5.5-7.7-8.6-15.8-8.6-15.8s5.3 10.5 6 16.5-8.1 24.7-8.1 24.7-1-2.2-4-14.4 4.7-29.7 4.7-29.7l-1.9-12.5-9.3 28s4.6-26.1 8.9-40c4.3-13.9 4.3-38.3 4.1-35.7s-5 21.8-5 21.8c1.9-9.1 2.4-34.4 2.4-34.4l1 1.2c-2.1-2.6-3.5-4.5-3.5-4.5s0 .3-.1.8c-.1.8-.2 2.1-.3 3.8-.3 4.1-.9 10.4-1.4 16.2-.3 2.9-.6 5.6-.8 7.9-.3 2.3-1.1 5.2-2.3 8.4-1.6 4.4-3.9 9.3-6.2 14.3-2.1 4.5-4.2 9-5.9 13.1-1 2.4-1.8 4.6-2.5 6.6-2 6.4.5 10.7 3.3 13.2 2.5 2.3 5.3 3.3 5.3 3.3l-3.1 12.7c-5.3 22.5 14.4 41.2 14.4 41.2-13.4-18.4-7.9-37.8-7.9-37.8-.5 10.1 6 35 17.2 41.4 1.9 1.1 3.4 2.7 4.5 4.6 7.4-3.9 14.4-8.5 20.9-13.7-.1-.2-.2-.5-.3-.7-4.8-9.2 1.4-24 3.8-38.4z"/><path fill="#967050" d="M183.8 132.6c-.2-6.2 3.7-24.1 3.8-24.5-2.6-2.2-5-4.6-7.1-6.9.5 12.6 3.3 31.4 3.3 31.4z"/><path fill="#6F5339" d="M127.2 45.3v1.2c15.6 1.8 30.5 20.6 30.5 20.6-6.6-23.2-30.5-29-30.5-29v7.2z"/><path fill="#75573C" d="M187.6 108.1s0 .1 0 0c-.1.4-4.1 18.3-3.8 24.5 0 0-2.8-18.9-3.3-31.3l-4.3-4.9-1-1.2s-.5 25.3-2.4 34.4c0 0 4.8-19.2 5-21.8s.2 21.8-4.1 35.7-8.9 40-8.9 40l9.3-28L176 168s-7.8 17.5-4.7 29.7 4 14.4 4 14.4 8.9-18.7 8.1-24.7c-.7-6-6-16.5-6-16.5s9.1 8.1 8.6 15.8c0 0 .5-8.6-1.4-11.5s-7.9-11.3-8.1-21.7c-.2-10.4 2.2-18.5 2.2-18.5s3 19.2 7.5 25.2 11.7 21.3 9.5 28-8.6 19.9-8.6 19.9 12.2-17.5 12.2-21.8-7.4-21.4-12-32.7c-4.4-10.9 2.5-40.6 3.1-43v-.2l-2.8-2.3zm10.5 6.3s-1.8 10.5-.3 17.1c0 0 7.7-9.1.3-17.1zm-29.9-75.1c8.9 14.6 33.1 39.5 33.1 39.5l-18.7-23.3 5.6 3.3c-5.5-3.3-16.4-21.5-16.4-21.5-5-8.6-14.1-14.6-14.1-14.6 7.4 6.5 8.4 9.6 8.4 9.6-6.5-11.5-32.8-12-32.8-12s26.1 4.4 34.9 19z"/></svg>