<svg xmlns="http://www.w3.org/2000/svg" width="256" height="256"><circle fill="#B1B3B5" cx="128" cy="128" r="128"/><path fill="#171616" d="M68 200.4l-10.9 5-5.2-14.3c-3.2 1.3-6.3 2.5-9 3.5-6.5 2.4-12.8 4.6-19.7 6.8 5.6 8 12.2 15.4 19.5 21.9l28.1-6.8-2.8-16.1z"/><path fill="#404041" d="M42.7 223.4c9.8 8.7 20.9 16 33 21.4l-4.9-28.3-28.1 6.9z"/><path fill="#171616" d="M98.8 161.7v2.6s-3.9 5.2-6.9 14.7l5.7-2.1.1-.2c.9-4.4 1.2-9.7 1.1-15z"/><path fill="#8F644C" d="M98.6 155.5c.1 2 .2 4.1.2 6.2.1 5.3-.2 10.6-1.1 15.1l-.1.2.4-.2c.6 20.8 30 24.1 30 24.1v-39s-14.5-.6-23.7-4.8c-2.2-1-4.1-2.1-5.8-3.2 0 .4.1 1 .1 1.6 0-.1 0-.1 0 0z"/><path fill="#9EA0A3" d="M128 200.8s-29.3-3.3-30-24.1l-.4.2-5.7 2.1c-2 6.3-3.7 14.5-3.6 24.2.1 9.4 1.7 28.2 3.6 47.7 11.4 3.3 23.5 5.1 36 5.1v-55.2z"/><path fill="#282728" d="M91.9 178.9c3-9.4 6.9-14.7 6.9-14.7l-.1-2.6-.2-6.2c-6.5 2.2-47 35-47 35l.3.8 5.2 14.3 10.9-5 2.8 16.2 4.9 28.3c5.3 2.4 10.7 4.4 16.3 6-1.9-19.5-3.5-38.3-3.6-47.7-.1-9.9 1.6-18.1 3.6-24.4zm112.2 12.3l-5.2 14.3-10.9-5-2.8 16.2 28.1 6.8c7.3-6.5 13.8-13.9 19.5-21.9-6.9-2.2-13.2-4.4-19.7-6.8-2.7-1.1-5.8-2.3-9-3.6z"/><path fill="#454547" d="M180.3 244.9c12.1-5.4 23.2-12.7 33-21.4l-28.1-6.8-4.9 28.2z"/><path fill="#3B180A" d="M135.1 22.3s12.5 3.2 16.5 5.7 3.6 3.2 8.6 5.6c4.7 2.2 11.8 2.7 18.3 7.5-2.6-3.2-6.3-6.5-10.4-8.5-7.3-3.6-11.6-12.2-16.9-17.5-5.3-5.3-23.2-6.7-23.2-6.7v12.8c8.8-.1 7.1 1.1 7.1 1.1zm46.5 30.1c.4 5.4.6 5.4 2.2 11.8s2.8 7.8 2.4 13.4c-.4 5.6 0 2.1 1.8 6.7 1.8 4.7-.7 8.1-1.2 11.9 0 .2 0 .3-.1.5 1.5-3.4 3.4-7.3 3.7-9.9.4-4.3-2.2-18.4-3.8-25.1-1.4-5.8-3.4-10-4.2-13-.5.9-1 2-.8 3.7zm-6.9 83.3c1.6-.2 1.9-1.3 1.6-2.5-.4.2-.7.2-.8.2-.4-.1-1.6-.8-3.1-1.8l.1.1c0-.1.2 4.1 2.2 4zm-17.5 26l.2-6.2c-.1 2-.2 4.1-.2 6.2z"/><path fill="#3B180A" d="M177.6 132.5c.4 1.7.3 3.9-2.6 4.4-4.4.7-3.6-6.1-3.6-6.1-.3-.2-.6-.4-.9-.7-1.2 5.8-2.3 10.5-3 12.2-1.4 3.2-4.5 7.7-10 11.4 0 .5-.1 1.1-.1 1.6 4.8 1.7 28.4 20.2 40.2 29.6-.9-3.3-2.3-7.9-3.4-10.4-1.8-4.1 3.6-7.9 3.8-11.3s-.4-10.5-.4-10.5 2.2-4.1 2.9-11c.7-6.9-8.5-10.8-11.4-13.9-2.3-2.5-3.2-5.8-3.8-9.7-1 2.2-2.1 4.8-2.4 7.1-.5 3.2-3.3 5.9-5.3 7.3zm4.9-33.1c-.6.2-.7.9-1 1.6.8 0 1.5.1 2.3.3.4.1.8.3 1.1.5.1-.8.5-2 1.1-3.3-1.1 1.2-2.8.6-3.5.9z"/><path fill="#171616" d="M158.3 176.7l.1.2 5.7 2.1c-3-9.4-6.9-14.7-6.9-14.7l.1-2.6h-.1c-.1 5.3.2 10.6 1.1 15z"/><path fill="none" stroke="#2B0700" stroke-width="0" stroke-linecap="round" stroke-linejoin="round" d="M128 8.4h4.9"/><path fill="#2B0700" d="M83.1 132c.1.2.2.4.3.7.1-.6.1-1.1.1-1.1l.1-.1c-.2.1-.3.2-.5.3v.2zM72.2 69.4c-.3-5.2 12.8-20.6 14.1-23.2C87.7 43.6 99 32.1 99 32.1s8.5-10.9 29-10.9V8.4c-11.1 0-22.8 5.6-29.6 12.8S82.6 32.8 79.6 37c-3 4.2-8.8 11-7.8 16s3 8.1-.9 12.9S67 74.8 68 79.3c.2.7.3 1.6.5 2.6 2.3-6.5 3.9-8.1 3.7-12.5zm12.4 61.4s.3 2.1-.3 3.8c1.2 2.2 2.3 3.9 3.2 4.6-.6-2.3-1.3-5.5-2.1-9.1-.2.3-.5.5-.8.7zm-13.5-29c-.3-1.1-.7-2.2-1-3.3-.1-.4-.3-.7-.5-1-.3 1.8-1.4 4-.1 5.7.5-.5 1-1 1.6-1.4z"/><path fill="#A8755A" d="M151.7 157c-9.2 4.2-23.7 4.8-23.7 4.8v39s29.3-3.3 30-24.1l.4.2-.1-.2c-.9-4.4-1.2-9.8-1.1-15.1 0-2.1.1-4.2.2-6.2 0-.6.1-1.1.1-1.6-1.7 1.1-3.6 2.2-5.8 3.2zm29.8-56c-.2.5-.4 1-.9 1-1.2 0-1 .5-2.7 5.1s3 3.2 3.7 8.1-1.6 2-1.6 2-.1-2.1-.9-3.4c-.7-1.3-3-1.1-4.1 0-1.1 1.1-1.5 6.4-1.5 6.4l-.2-3.8c-.9 4.7-1.8 9.5-2.7 13.8.3.2.6.5.9.7l1 .7c1.5 1 2.7 1.7 3.1 1.8.2 0 .5 0 .8-.2-.1-.6-.4-1.3-.7-1.8 0 0 .1-1.4 1.2-.8 0 0 .4.8.7 1.9 2-1.4 4.8-4.1 5.3-7.3.3-2.3 1.4-4.8 2.4-7.1s2-4.2 2.3-5.2c.4-1.8 1.6-8.7-2.6-11.2-.3-.2-.7-.4-1.1-.5-.9-.2-1.6-.3-2.4-.2zm-6.7 7.2c.1-.3.2-.8.2-1.4-.1.5-.2 1.1-.3 1.6 0-.1 0-.2.1-.2z"/><path fill="#BD8265" d="M154.1 53.4l-.1 1.8c-.1 1.8 0 3.4.3 4.8.3 1.3 4.8 4 5.5 4.4-.6-1.2-1-2.4-1.7-3.3-1.5-2-4-7.7-4-7.7zm-21.4-2.6c-.6 8.3-4.7 13.9-4.7 13.9v3.7c6.5-6.9 4.7-17.6 4.7-17.6z"/><path fill="#BD8265" d="M151.7 157c2.2-1 4.1-2.1 5.8-3.2 5.5-3.8 8.6-8.3 10-11.4.7-1.7 1.8-6.4 3-12.2.9-4.3 1.8-9.1 2.7-13.8l-.1-1.5s1-5 1.5-6.5c.1-.5.2-1.1.3-1.6 0-1.6-.2-3.9-.2-4.7 0-1.1 0-8.1-.7-9.6-.7-1.4-1.6-11.7-2.1-14.7-.4-3-6.1-8.8-9.1-10.1-1.6-.7-2.4-2-3.1-3.4-.6-.1-4.5-.9-6.6-2.7-2.2-1.9-.7-5.3-.7-8.6s-.1-3.4-3-7.5c-2.8-4.2-3.1-.5-6.7.5s-1.8.2-1.8.2-1.2-3.4-2.2-2.2c-1 1.1-3.6 4.2-3.6 4.2 0 18-7.1 21.8-7.1 21.8v56.6s1.2.2 2.4-.9c1.7-.9 3.9-.1 5.1 1.4 2.4 2.4 2.6 3.1 5 4 0 0-2.2 4.3-12.5 4.3v26.4s14.5-.6 23.7-4.8zm-16.4-75.3c-.8-1.1.6-3.2.8-4 .2-.7 2.3-1 2.3-1l-1.2 1.8s1.4-.1 2.3-.7c.9-.6 6.3-1.1 10.3-1.1s9.1 2.5 10.6 3c1.6.5 3.9 4.7 3.9 4.7s-5.2-3.8-10.4-4.6-7.7 1.4-10.1 2.5c-2.4 1.2-8.5-.6-8.5-.6z"/><path fill="#BCB06C" d="M174.9 136.9c2.9-.5 3-2.8 2.6-4.4-.3-1.1-.7-1.9-.7-1.9-1.1-.6-1.2.8-1.2.8.3.6.6 1.2.7 1.8.3 1.2 0 2.3-1.6 2.5-2 .1-2.2-4.1-2.2-4.1l-.1-.1-1-.7s-.9 6.8 3.5 6.1z"/><path fill="#703E31" d="M143.9 82.4c2.4-1.1 5-3.2 10.1-2.5s10.4 4.6 10.4 4.6-2.3-4.2-3.9-4.7-6.7-3-10.6-3-9.4.5-10.3 1.1c-.9.6-2.3.7-2.3.7l1.2-1.8s-2.1.2-2.3 1c-.2.7-1.6 2.9-.8 4-.1-.1 6 1.7 8.5.6z"/><path fill="#472216" d="M151.6 28c-4-2.6-16.5-5.7-16.5-5.7s1.6-1.1-7.1-1.1v43.6s4.2-5.6 4.7-13.9c0 0 1.7 10.6-4.7 17.6V70s7.1-3.8 7.3-21.9c0 0 2.5-3 3.6-4.2 1-1.1 2.2 2.2 2.2 2.2s-1.8.8 1.8-.2 3.9-4.6 6.7-.5c2.8 4.2 3 4.2 3 7.5s-1.5 6.7.7 8.6c2.1 1.8 6 2.6 6.6 2.7.6 1.4 1.5 2.7 3.1 3.4 3 1.3 8.6 7 9.1 10.1.4 3 1.3 13.3 2.1 14.7.7 1.4.7 8.5.7 9.6 0 .8.2 3.1.2 4.7 0 .6-.1 1.1-.2 1.4 0 .1-.1.1-.1.2-.5 1.4-1.5 6.5-1.5 6.5l.1 1.5.2 3.8s.4-5.3 1.5-6.4c1.1-1.1 3.4-1.3 4.1 0 .7 1.3.9 3.4.9 3.4s2.4 3 1.6-2-5.3-3.5-3.7-8.1 1.5-5.1 2.7-5.1c.5 0 .8-.4.9-1 .2-.6.4-1.4 1-1.6.8-.2 2.5.3 3.5-.9.3-.4.6-.9.7-1.7 0-.2.1-.3.1-.5.4-3.8 3-7.3 1.2-11.9-1.8-4.7-2.2-1.2-1.8-6.7.4-5.6-.7-7-2.4-13.4-1.6-6.4-1.8-6.4-2.2-11.8-.1-1.8.4-2.9.9-3.7 1-1.7 2.1-2.5-2.5-6.5-.5-.4-.9-.8-1.4-1.1-6.5-4.8-13.6-5.3-18.3-7.5-5.2-2.4-4.8-3-8.8-5.6zm2.7 31.9c-.3-1.4-.4-3-.3-4.8l.1-1.8s2.5 5.7 4 7.7c.7.9 1.1 2.1 1.7 3.3-.7-.4-5.3-3-5.5-4.4z"/><path fill="#935143" d="M140.5 131.2c-2.5-.9-2.7-1.7-5-4-1.2-1.5-3.4-2.3-5.1-1.4-1.1 1.1-2.4.9-2.4.9v8.8c10.4 0 12.5-4.3 12.5-4.3z"/><path fill="#8F644C" d="M72.2 118.1c.8-7 .2-12-1.1-16.3-.6.4-1.2.9-1.6 1.4-2.3 3.1-1.4 8.3-1.1 9.8.3 1.4 2.3 4.8 3.6 8.3 0-.9 0-2 .2-3.2zm4.6 13.2c-1.2-2.5-2.6-3.9-3.6-5.8.4 2.2 2 4.3 3.6 5.8zm6.8.2l1-.7c.3-.2.6-.4.9-.7-.2-.8-.4-1.7-.5-2.6-.6 1.4-1.3 2.9-1.8 4.3.1 0 .2-.1.4-.3z"/><path fill="#A8755A" d="M128 161.8v-26.4c-10.4 0-12.5-4.3-12.5-4.3 2.5-.9 2.7-1.7 5-4 1.2-1.5 3.4-2.3 5.1-1.4 1.1 1.1 2.4.9 2.4.9V70s-4 4.6-5.1 7.6c-1 2.7-2.7 7.4-3.3 10.3-.7 2.9-3.6 5.5-4 11.5-.2 2.8-.6 5.8-.7 8.5.5 1.6.8 2.8.9 3.2.1.3-.2 1.2-.8 2.6.1.7.3 1.3.6 1.7 1.6 2.9-7.8 26.6-7.8 26.6s2.2-11.4 3.8-20.6c-2.1 4.4-4.5 9.3-6 12.7 2.3-7.7 5.7-23.1 4.1-27-2.2-5.3-4.7-10.5-3.3-15.1.8-2.8 2.2-7 3.1-11-1.8-.8-4-1.6-7.3-1.1-1.3.2-2.7.6-4 1.1-.7 5.5-1.4 13.9.6 19.9 2.1 6.1 3.5 15.5 4.4 20.6-4.1-6-6.7-18.4-7.2-19.2-.7-1.2-3 2.2-3 4.1s-4.7 15.1-5.6 16.8c-.3.7-1.3 2.4-2.3 4.5.2.9.4 1.8.5 2.6.8 3.6 1.5 6.8 2.1 9.1.4 1.4.7 2.5 1 3.1 1.4 3.2 4.5 7.7 10 11.4 1.7 1.2 3.6 2.3 5.8 3.2 9 4.1 23.5 4.7 23.5 4.7z"/><path fill="#A8755A" d="M119.9 77.7c.1.3.4 1 .7 1.6 2.5-4.7 5.1-9.2 7.4-10.9v-3.7s-7.3 8.8-8 10.7c-.1.3-.4.9-.8 1.7.3.2.6.4.7.6zm-2.3-4.3s6.1-7.5 6.1-9.3v-9.3s-5.2 6.2-6.7 8c-1.5 1.8.6 10.6.6 10.6zm1.6 8.6c-.9.2-2 .4-3.2.6-2.2 4-4.5 8.6-4.5 10.8 0 .8.1 1.8.4 3.1.2-.6.4-1.2.8-1.6 1.2-1.5 3.7-7.1 6.5-12.9zm-9.2-5.1c.1-.9.2-1.8.2-2.6 0-5.3-.9-13.9-.9-13.9l-4.5 3.6s-6.2 9.6-6.2 12c0 .5-.1 1.5-.3 2.8 2.3-.9 5.3-1.9 7.8-1.9 1.3-.2 2.6-.1 3.9 0zm8.5 1.3c-.1.1-.1.2-.2.3.3 0 .4.1.4.1l-.2-.4zm-31.6 23.7c-.9 4.3-1.6 17.2-1.6 17.2s3.9-11 5-14.4c1.2-3.4 1.9-11.8 1.3-14 0 .1-3.8 6.9-4.7 11.2z"/><path fill="#968E57" d="M84.6 130.8l-1 .7-.1.1s0 .5-.1 1.1c-.2.9-.5 2.1-1.2 2.7-.1.5-.1 1-.1 1.5 1.3-.2 1.9-1.1 2.3-2.3.5-1.7.2-3.8.2-3.8z"/><path fill="#562D21" d="M106.2 76.7c-2.6 0-5.6 1-7.8 1.9-.1.7-.2 1.4-.3 2.3 1.3-.5 2.6-.9 4-1.1 3.3-.5 5.5.2 7.3 1.1.3-1.4.6-2.8.7-4.1-1.4 0-2.7-.1-3.9-.1zm14.4 2.7c-.3-.7-.6-1.3-.7-1.6-.1-.3-.4-.4-.8-.6-.2.3-.4.7-.6 1.1l.2.4s-.2 0-.4-.1c-.7 1.2-1.5 2.6-2.3 4.1 1.2-.1 2.3-.4 3.2-.6.5-1 .9-1.9 1.4-2.7z"/><path fill="#804538" d="M125.6 125.7c-1.7-.9-3.9-.1-5.1 1.4-2.4 2.4-2.6 3.1-5 4 0 0 2.2 4.3 12.5 4.3v-8.8s-1.2.3-2.4-.9z"/><path fill="#3B180A" d="M120.6 79.4c-.5.9-.9 1.8-1.4 2.7-2.9 5.8-5.4 11.4-6.6 12.8-.4.4-.6 1-.8 1.6.6 3.5 2 8.3 2.9 11.5.2-2.7.5-5.8.7-8.5.4-6 3.3-8.6 4-11.5.7-2.9 2.4-7.6 3.3-10.3 1.1-3 5.1-7.6 5.1-7.6v-1.6c-2.1 1.7-4.7 6.1-7.2 10.9zM107.7 142s9.4-23.7 7.8-26.6c-.3-.5-.4-1.1-.6-1.7-.8 1.9-2.1 4.7-3.5 7.7-1.5 9.2-3.7 20.6-3.7 20.6z"/><path fill="#3B180A" d="M82.2 135.4c.2-1 .5-2.2.9-3.4 0-.1 0-.1.1-.2.5-1.5 1.2-3 1.8-4.3 1-2.1 2-3.8 2.3-4.5.9-1.7 5.6-14.8 5.6-16.8s2.2-5.3 3-4.1c.5.9 3 13.3 7.2 19.2-.9-5.2-2.3-14.5-4.4-20.6-2-6-1.2-14.4-.6-19.9.1-.8.2-1.6.3-2.3.2-1.3.3-2.3.3-2.8 0-2.4 6.2-12 6.2-12l4.5-3.6s.9 8.6.9 13.9c0 .8-.1 1.7-.2 2.6-.2 1.3-.4 2.7-.7 4.1-.9 4-2.3 8.2-3.1 11-1.3 4.6 1.1 9.8 3.3 15.1 1.7 3.9-1.8 19.4-4.1 27 1.6-3.4 3.9-8.3 6-12.7 1.4-3 2.7-5.8 3.5-7.7.6-1.4.9-2.3.8-2.6-.1-.4-.5-1.6-.9-3.2-.9-3.2-2.3-8-2.9-11.5-.2-1.2-.4-2.3-.4-3.1 0-2.2 2.3-6.8 4.5-10.8.8-1.5 1.6-2.9 2.3-4.1.1-.1.1-.2.2-.3.2-.4.4-.7.6-1.1.4-.8.7-1.4.8-1.7.7-1.9 8-10.7 8-10.7V21.1C107.5 21.1 99 32 99 32S87.7 43.6 86.3 46.2c-1.3 2.6-14.4 18-14.1 23.2.2 4.4-1.4 6-3.7 12.5-.5 1.3-1 2.8-1.5 4.5-2.9 9.7.7 7.4 2.7 11.1.2.3.3.6.5 1 .4 1.1.7 2.1 1 3.3 1.2 4.3 1.9 9.2 1.1 16.3-.1 1.3-.2 2.3-.1 3.3.1 1.8.5 3.1 1.1 4.2 1 1.9 2.5 3.2 3.6 5.8.3.7.6 1.5.9 2.4 1.3 4.5 3.1 12.6 4.1 17.9.2-4.8.8-11.5.4-14v-.5c-.2-.7-.2-1.2-.1-1.8zm8.1-30.6c-1.2 3.4-5 14.4-5 14.4s.7-12.9 1.6-17.2c.9-4.3 4.8-11.2 4.8-11.2.5 2.2-.2 10.7-1.4 14zm33.4-40.7c0 1.8-6.1 9.3-6.1 9.3s-2.1-8.8-.6-10.5c1.5-1.8 6.7-8 6.7-8v9.2z"/><path fill="#BDBFC1" d="M164.1 178.9l-5.7-2.1-.4-.2c-.6 20.8-30 24.1-30 24.1V256c12.5 0 24.6-1.8 36-5.1 1.9-19.5 3.5-38.3 3.6-47.7.2-9.8-1.5-18-3.5-24.3z"/><path fill="#404041" d="M188 200.4l10.9 5 5.2-14.3.3-.8s-2.7-2.2-6.8-5.4c-11.8-9.4-35.4-27.9-40.2-29.6l-.2 6.2-.1 2.6s3.9 5.2 6.9 14.7c2 6.3 3.7 14.5 3.6 24.2-.1 9.4-1.7 28.2-3.6 47.7 5.6-1.6 11-3.6 16.3-6l4.9-28.3 2.8-16z"/></svg>