<svg xmlns="http://www.w3.org/2000/svg" width="256" height="256"><circle fill="#B1B3B5" cx="128" cy="128" r="128"/><path fill="#5C5363" d="M151.9 253.8c-4.5.3-9.1.9-14.1 1.9 4.8-.4 9.5-1.1 14.1-1.9zm48.8-114.2c-.1.2-.1.5-.2.7-1.4 4.1-29.3 17.5-30.7 18-1.4.5-6.3-1.8-6.3-1.8s-15.2 2.6-21.5 2.6c-4.6 0-6.4-1.8-7-2.8-2.3.2-4.5.2-6.9.2v33.7s60.9-16.8 79.7-30.7c.7-.5 1.5-1.1 2.2-1.6 11.9-9.9 23.5-21.2 28.7-31.3l-14.2-21.2c-1.1 7.5-4.3 15.6-9.3 23.8-2.7 4.3-7.9 7.7-14.5 10.4z"/><path fill="#696074" d="M138.9 102.7c2.7-1.6 9.8-8.7 9.8-8.7s-.5 1.2 0 4.6c.1.5.4.9.9 1.3 4.5.7 9 2.9 9 2.9h.1c1.4.2 2.3.3 2.3.3l13.1-9.1s-7.9 6.2-9.3 10.1c3.8.4 8 .4 12.1 1 1.7.3 3.1 1.3 4.1 2.6l16.7-6.5s-1.7 3.2-1.9 6.4c1.4.9 2.6 1.8 2.9 1.8.6 0 3.7-.6 4.1 3.3.4 3.9-5.5 12.9-5.9 16.6-.1 1.2 0 2.3.2 3.3 2.7 1.1 4.5 3.8 3.7 7.1 6.6-2.7 11.8-6.1 14.4-10.4 5-8.2 8.2-16.3 9.3-23.8 1.8-11.8-1.5-22.1-10.7-29.5-15-12-20.3-21.8-37.3-23.8L160 48.4s-5.2-6.3-17.5-1.9c0 0-9.8-1.6-14.5-1.6v55.7s8.2 3.8 10.9 2.1z"/><path fill="#2F2E35" d="M134.6 155.6c2.7-5.7 14.1-10.4 14.1-10.4l.8-1.9c-2.1-1.2-3.8-2.1-4.1-2.4-.2-.2-.3-.4-.3-.6-2.8-.7-5.8-1.5-7.7-2-4.1-1-6.8 1.2-6.1-2.5.4-2.4 4.4-6 7.2-8.3-.8-.5-4-2.7.2-5.2.3-.2.6-.4.9-.5-4-1.2-4.9-6.2-4.9-6.2 1.1 2 4.4-1.2 4.4-1.2-1.4-2.9 1.2-4.5 1.2-4.5-1.8-3.7-2-4.5 2.3-8.6 1.6-1.6 4.4-1.7 7.2-1.3-.5-.4-.8-.8-.9-1.3-.5-3.3 0-4.6 0-4.6s-7.1 7.1-9.8 8.7-10.9-2.2-10.9-2.2v55.9c2.3 0 4.6-.1 6.9-.2-.5-.4-.5-.7-.5-.7zM174.1 94l-13.1 9.1s-1-.1-2.3-.3c1.8.7 3.8 1 6.1 1.2 1.4-3.8 9.3-10 9.3-10zm17.1 11.5c1.2 0 3 1.1 4.5 2.1.2-3.2 1.9-6.4 1.9-6.4l-16.7 6.5c.5.7 1 1.5 1.4 2.3 2.1-1.4 7.1-4.5 8.9-4.5z"/><path fill="#504656" d="M142.5 101.2c-4.3 4.1-4.1 4.9-2.3 8.6 0 0-2.7 1.6-1.2 4.5 0 0-3.3 3.3-4.4 1.2 0 0 1 5.1 4.9 6.2 4.9-2.8 13.6-6 16.7-6.2 3.3-.2 9.4-3.9 13.4-3.5s11.8-1.4 11.8-1.4.4-.2.9-.6c-.4-.8-.8-1.6-1.4-2.3-1-1.3-2.4-2.3-4.1-2.6-4.1-.6-8.3-.6-12.1-1-2.3-.2-4.3-.6-6.1-1.2h-.1s-4.5-2.2-9-2.9c-2.6-.5-5.4-.4-7 1.2zm55.1 35.6c-1 .8-31.3 12.9-34 12.9-1.8 0-9.3-3.8-14.1-6.4l-.8 1.9s-11.5 4.7-14.1 10.4c0 0 .1.3.3.6.6 1 2.4 2.8 7 2.8 6.3 0 21.5-2.6 21.5-2.6s4.9 2.3 6.3 1.8c1.4-.5 29.3-13.9 30.7-18 .1-.2.1-.5.2-.7.8-3.3-1-6-3.7-7.1.5 2.2 1.4 3.8.7 4.4z"/><path fill="#696074" d="M146.6 133.9c-.6-3.9-5.7-7.6-8-6.3 0 0-.1 0-.2-.1-2.8 2.3-6.8 5.9-7.2 8.3-.6 3.7 2 1.4 6.1 2.5 1.9.5 4.9 1.3 7.7 2 .2-1.2 2.1-3.2 1.6-6.4z"/><path fill="#5C5363" d="M182.3 110l-.9.6s-7.8 1.8-11.8 1.4-10.1 3.3-13.4 3.5c-3.1.2-11.8 3.5-16.7 6.2-.3.2-.6.4-.9.5-4.1 2.5-1 4.7-.2 5.2.1.1.2.1.2.1 2.3-1.2 7.4 2.5 8 6.3.5 3.1-1.4 5.2-1.5 6.3 0 .3 0 .5.3.6.4.3 2 1.2 4.1 2.4 4.8 2.6 12.2 6.4 14.1 6.4 2.7 0 33-12.1 34-12.9.7-.6-.1-2.2-.6-4.3-.2-1-.4-2.1-.2-3.3.4-3.7 6.3-12.7 5.9-16.6-.4-3.9-3.5-3.3-4.1-3.3-.3 0-1.5-.9-2.9-1.8-1.5-1-3.3-2.1-4.5-2.1-1.8.3-6.8 3.4-8.9 4.8z"/><path fill="#363C3D" d="M219 208.1h-10.9s-1.1-2.7-6.6-12-25.1-5.9-25.1-5.9v-7.8s16.9-10.8 33.5-24.6c-.7.6-1.4 1.1-2.2 1.6-18.8 13.9-79.7 30.7-79.7 30.7v55.6s29.9-8.8 52.9-1.7l3.8-10.6h3.5l-3 9c26.9-13.5 48.5-36.2 60.4-64-4.3 2.6-9.2 5.6-12 7.2-5.6 3.4-14.6 22.5-14.6 22.5zm-36 17.2c-4.6 12-44.2 11.5-48.1 5.7-7.5-11.3 20.5-41.5 32.2-38.8 11.8 2.8 20.5 21.1 15.9 33.1z"/><path fill="#43494A" d="M246.7 125.3s-21.8 37.3-70.3 65c0 0 19.7-3.4 25.1 5.9s6.6 12 6.6 12H219s9-19.1 14.6-22.4c2.8-1.6 7.8-4.6 12-7.2 1.5-3.4 2.8-6.8 3.9-10.4-3.9 2-7.2 4.1-9.4 5.3-5.7 3.3-28.9 17.2-31.7 4.4-2.7-12.8 22.1-21.6 43.1-26.5 0 0-.3-8 3.8-11.8.2-2.7.4-5.3.5-8-2.4-2.5-5.4-4.7-9.1-6.3z"/><path fill="#4F5556" d="M209.9 157.9c-16.6 13.8-33.5 24.6-33.5 24.6v7.8c48.4-27.7 70.3-65 70.3-65h-7.5c-.2.4-.4.9-.7 1.4-5.1 9.9-16.7 21.3-28.6 31.2z"/><path fill="#5D3B3C" d="M251.7 151.3c-21 4.9-45.9 13.7-43.1 26.5 2.7 12.8 25.9-1.1 31.7-4.4 2.2-1.2 5.5-3.3 9.4-5.3 3-9.1 5-18.7 5.9-28.6-4.2 3.9-3.9 11.8-3.9 11.8zm-84.6 41c-11.7-2.7-39.7 27.5-32.2 38.8 3.8 5.7 43.4 6.3 48.1-5.7 4.6-12.1-4.1-30.4-15.9-33.1z"/><path fill="#2B3132" d="M184.7 233.5l-3.8 10.6c-22.9-7.1-52.9 1.7-52.9 1.7v10.1c3.3 0 6.6-.1 9.8-.4 4.9-.9 9.6-1.5 14.1-1.9 11.8-2.2 23-6.1 33.4-11.3l3-9h-3.6z"/><path fill="#463F4C" d="M118.2 255.6c-4.9-.9-9.6-1.5-14.1-1.9 4.6.9 9.3 1.6 14.1 1.9z"/><path fill="#504656" d="M46.1 157.9c.7.6 1.4 1.1 2.2 1.6 18.8 13.9 79.7 30.7 79.7 30.7v-33.7c-2.3 0-4.6-.1-6.9-.2-.6 1-2.4 2.8-7 2.8-6.3 0-21.5-2.6-21.5-2.6s-4.9 2.3-6.3 1.8c-1.4-.5-29.3-13.9-30.7-18-.1-.2-.1-.5-.2-.7-6.6-2.7-11.8-6.1-14.4-10.4-5-8.2-8.2-16.3-9.3-23.8l-14.2 21.2c5.1 10 16.7 21.4 28.6 31.3z"/><path fill="#5C5363" d="M55.3 139.6c-.8-3.3 1-6 3.7-7.1.2-1 .4-2.1.2-3.3-.4-3.7-6.3-12.7-5.9-16.6.4-3.9 3.5-3.3 4.1-3.3.3 0 1.5-.9 2.9-1.8-.2-3.2-1.9-6.4-1.9-6.4l16.7 6.5c1-1.3 2.4-2.3 4.1-2.6 4.1-.6 8.3-.6 12.1-1-1.4-3.8-9.3-10.1-9.3-10.1l13.1 9.1s1-.1 2.3-.3h.1s4.5-2.2 9-2.9c.5-.4.8-.8.9-1.3.5-3.3 0-4.6 0-4.6s7.1 7.1 9.8 8.7 10.9-2.2 10.9-2.2V44.9c-4.6 0-14.5 1.6-14.5 1.6-12.3-4.4-17.5 1.9-17.5 1.9l-16.5 3.8C62.5 54.1 57.3 64 42.3 76c-9.2 7.3-12.4 17.7-10.7 29.5 1.1 7.5 4.3 15.6 9.3 23.8 2.6 4.2 7.8 7.6 14.4 10.3z"/><path fill="#25242B" d="M95 103.2L81.9 94s7.9 6.2 9.3 10.1c2.3-.2 4.3-.6 6.1-1.2-1.4.2-2.3.3-2.3.3zM73.7 110c.4-.8.8-1.6 1.4-2.3l-16.7-6.5s1.7 3.2 1.9 6.4c1.5-1 3.3-2.1 4.5-2.1 1.8 0 6.8 3.1 8.9 4.5zm54.3 38.1v-47.5s-8.2 3.8-10.9 2.2-9.8-8.7-9.8-8.7.5 1.2 0 4.6c-.1.5-.4.9-.9 1.3 2.8-.4 5.5-.3 7.2 1.3 4.3 4.1 4.1 4.9 2.3 8.6 0 0 2.7 1.6 1.2 4.5 0 0 3.3 3.3 4.4 1.2 0 0-1 5.1-4.9 6.2.3.2.6.4.9.5 4.1 2.5 1 4.7.2 5.2 2.8 2.3 6.8 5.9 7.2 8.3.6 3.7-2 1.4-6.1 2.5-1.9.5-4.9 1.3-7.7 2 0 .3 0 .5-.3.6-.4.3-2 1.2-4.1 2.4l.8 1.9s11.5 4.7 14.1 10.4c0 0-.1.3-.3.6 2.3.2 4.5.2 6.9.2v-8.3z"/><path fill="#3F3644" d="M74.6 110.6s7.8 1.8 11.8 1.4 10.1 3.3 13.4 3.5c3.1.2 11.8 3.5 16.7 6.2 4-1.2 4.9-6.2 4.9-6.2-1.1 2-4.4-1.2-4.4-1.2 1.4-2.9-1.2-4.5-1.2-4.5 1.8-3.7 2-4.5-2.3-8.6-1.6-1.6-4.4-1.7-7.2-1.3-4.5.7-9 2.9-9 2.9h-.1c-1.8.7-3.8 1-6.1 1.2-3.8.4-8 .4-12.1 1-1.7.3-3.1 1.3-4.1 2.6-.5.7-1 1.5-1.4 2.3.8.4 1.1.7 1.1.7zm32.7 34.6l-.8-1.9c-4.8 2.6-12.2 6.4-14.1 6.4-2.7 0-33-12.1-34-12.9-.7-.6.1-2.2.6-4.3-2.7 1.1-4.5 3.8-3.7 7.1.1.2.1.5.2.7 1.4 4.1 29.3 17.5 30.7 18 1.4.5 6.3-1.8 6.3-1.8s15.2 2.6 21.5 2.6c4.6 0 6.4-1.8 7-2.8l.3-.6c-2.5-5.8-14-10.5-14-10.5z"/><path fill="#5C5363" d="M109.4 133.9c-.5 3.1 1.4 5.2 1.5 6.3 2.8-.7 5.8-1.5 7.7-2 4.1-1 6.8 1.2 6.1-2.5-.4-2.4-4.4-6-7.2-8.3-.1.1-.2.1-.2.1-2.1-1.1-7.3 2.5-7.9 6.4z"/><path fill="#504656" d="M58.4 136.8c1 .8 31.3 12.9 34 12.9 1.8 0 9.3-3.8 14.1-6.4 2.1-1.2 3.8-2.1 4.1-2.4.2-.2.3-.4.3-.6-.1-1.1-2-3.2-1.5-6.3.6-3.9 5.7-7.6 8-6.3 0 0 .1 0 .2-.1.8-.5 4-2.7-.2-5.2-.3-.2-.6-.4-.9-.5-4.9-2.8-13.6-6-16.7-6.2-3.3-.2-9.4-3.9-13.4-3.5s-11.8-1.4-11.8-1.4-.4-.2-.9-.6c-2.1-1.4-7.1-4.5-8.9-4.5-1.2 0-3 1.1-4.5 2.1-1.4.9-2.6 1.8-2.9 1.8-.6 0-3.7-.6-4.1 3.3-.4 3.9 5.5 12.9 5.9 16.6.1 1.2 0 2.3-.2 3.3-.4 1.8-1.3 3.4-.6 4z"/><path fill="#2B3132" d="M71.3 233.5l3.8 10.6c22.9-7.1 52.9 1.7 52.9 1.7v-55.6s-60.9-16.8-79.7-30.7c-.7-.5-1.5-1.1-2.2-1.6 16.6 13.8 33.5 24.6 33.5 24.6v7.8s-19.7-3.4-25.1 5.9-6.6 12-6.6 12H37s-9-19.1-14.6-22.4c-2.8-1.6-7.8-4.6-12-7.2 12 27.8 33.5 50.5 60.4 64l-3-9h3.5zm17.6-41.2c11.7-2.7 39.7 27.5 32.2 38.8-3.8 5.7-43.4 6.3-48.1-5.7-4.6-12.1 4.1-30.4 15.9-33.1z"/><path fill="#363C3D" d="M37 208.1h10.9s1.1-2.7 6.6-12 25.1-5.9 25.1-5.9c-48.4-27.7-70.3-65-70.3-65-3.6 1.6-6.7 3.8-9.2 6.3.1 2.7.2 5.4.5 8 4.1 3.8 3.8 11.8 3.8 11.8 21 4.9 45.9 13.7 43.1 26.5-2.7 12.8-25.9-1.1-31.7-4.4-2.2-1.2-5.5-3.3-9.4-5.3 1.2 3.5 2.5 7 3.9 10.4 4.3 2.6 9.2 5.6 12 7.2C28 189 37 208.1 37 208.1z"/><path fill="#43494A" d="M79.6 190.3v-7.8s-16.9-10.8-33.5-24.6c-11.9-9.9-23.5-21.2-28.7-31.3-.2-.5-.5-.9-.7-1.4H9.3c0 .1 21.8 37.3 70.3 65.1z"/><path fill="#4C2E30" d="M47.5 177.8c2.7-12.8-22.1-21.6-43.1-26.5 0 0 .3-8-3.8-11.8.9 9.9 2.9 19.4 5.9 28.6 3.9 2 7.2 4.1 9.4 5.3 5.6 3.3 28.8 17.3 31.6 4.4zm73.6 53.3c7.5-11.3-20.5-41.5-32.2-38.8-11.7 2.7-20.5 21-15.8 33 4.6 12.1 44.2 11.5 48 5.8z"/><path fill="#1F2525" d="M128 251.7v-5.8s-29.9-8.8-52.9-1.7l-3.8-10.6h-3.5l3 9c10.4 5.2 21.6 9 33.4 11.3 4.5.3 9.1.9 14.1 1.9 3.2.2 6.5.4 9.8.4v-4.5z"/></svg>