<svg xmlns="http://www.w3.org/2000/svg" width="64" height="64"><path fill="#FFF" d="M35 23.9l6.9-6.9-6.5-6.4h-5.2l-5.5 5.5 3.7 3.6 1.2-1.2zm-.5 6.6l-1.9-1.9-6.9 6.9 14.8 14.8 4.2.1 13.2-13.2-.1-4.2L43 18.2l-6.9 6.9L38 27z" opacity=".6"/><path fill="#FFF" d="M27.2 20.9l-3.6-3.7-5.5 5.5v5.2l6.5 6.5 6.8-6.9-5.4-5.4z"/><path fill="#FFF" d="M27.567 22.124l2.05-2.05 6.79 6.788-2.052 2.05z" opacity=".6"/><path fill="#FFF" d="M10.449 16.466l.723-.957 5.346 4.039-.723.957zm-2.251 6.247l.251-1.174L15 22.942l-.25 1.173zm-.045 5.027l6.644-.866.155 1.19-6.644.866zm1.345 5.639l6.228-2.469.442 1.116-6.228 2.469z"/></svg>