<svg xmlns="http://www.w3.org/2000/svg" width="64" height="64"><g fill="#FFF"><path opacity=".6" d="M25.4 31.9l-6.8 6.9-6.5-6.4v-5.3l5.5-5.4 3.6 3.6-1.2 1.2zm6.7-.4l-2-2 6.9-6.9 14.8 14.9.1 4.2-13.2 13.2-4.2-.1L19.7 40l6.9-6.9 1.9 1.9z"/><path d="M22.4 24.2l-3.7-3.7 5.5-5.4 5.2-.1 6.5 6.5-6.9 6.9-5.4-5.4z"/><path opacity=".6" d="M30.407 31.296l-2.05 2.05-6.788-6.788 2.05-2.05z"/><path d="M16.967 8.157l.957-.724 4.039 5.346-.958.724zm6.048-2.746l1.173-.25 1.402 6.551-1.174.251zm5.317 6.414l.867-6.644 1.19.156-.867 6.643zm4.119.885l2.47-6.23 1.115.443-2.47 6.228z"/></g></svg>