<svg xmlns="http://www.w3.org/2000/svg" width="256" height="256"><circle fill="#B1B3B5" cx="128" cy="128" r="128"/><path fill="#D76244" d="M202.6 176.2l-7 21.1c.1 3.1.3 6.3.7 9.2.3 2.1.7 4.5 1 7 3.8 1.6 11.7 4.5 20.3 5.8 3.2-3.2 6.3-6.5 9.2-10.1l-.5-16.8c3.6 1 7.1 3.5 9 5.1.1-.1.2-.3.3-.4-2.2-3-6.9-9.2-11.5-14.8-4.6-5.7-15.5-6.4-21.5-6.1z"/><path fill="#BF573B" d="M199.9 233.9c6.4-4.3 12.4-9.2 17.8-14.6-8.6-1.3-16.5-4.2-20.3-5.8.9 6.4 2 13.9 2.5 20.4z"/><path fill="#4F5050" d="M159.3 151.9c.3 3.2.3 9.5-3 11.5-4.6 2.7-9.6 6.2-28.2 6.2v9.2s35.3-1.8 33.1-28.1l-1.7-1.3c-.1.8-.2 1.7-.2 2.5z"/><path fill="#646465" d="M159.3 151.9c-.3 2.6-1.1 5.3-3 6.4-4.6 2.7-9.6 6.2-28.2 6.2v5.1c18.6 0 23.6-3.5 28.2-6.2 3.3-2 3.2-8.3 3-11.5z"/><path fill="#7A7979" d="M156.2 153.5c-3.6 2.1-7.4 4.7-17.6 5.7-6 2.1-10.6 1.5-10.6 1.5v3.8c18.6 0 23.6-3.5 28.2-6.2 2-1.2 2.8-3.8 3-6.4.1-.8.1-1.6.1-2.4 0-.9 0-1.8-.1-2.5-.2 2.6-1 5.3-3 6.5z"/><path fill="#8C8B8B" d="M156.2 148.5c-1.6.9-3.2 2-5.5 2.9-4 4.1-8.4 6.5-12.1 7.8 10.2-1.1 14-3.6 17.6-5.7 2-1.2 2.8-3.9 3.1-6.5.1-1.2.1-2.3.1-3.3-.1.1-.3.2-.4.3-.5 1.9-1.3 3.6-2.8 4.5z"/><path fill="#9A9898" d="M159 143.9c-2.1 1.7-4.7 3.9-8.2 7.5l-.1.1c2.2-1 3.9-2 5.5-2.9 1.5-1 2.3-2.7 2.8-4.7z"/><path fill="#775B4B" d="M179.8 91c-1.2 1.8-5.1 4.8-4.6 6.5.4 1.8 2.1 3 .9 5.1-1 1.7-2.9 3.6-3.8 3.2-.4 2.8-.9 5.7-1.3 8.4.8 0 1.7 0 2.9-.1 4-.3 6.7-3.8 6.8-7 .1-3.2-.6-3.8.1-8 .6-3.1.9-5.7-.2-8.8-.2.1-.5.3-.8.7z"/><path fill="#8C6C5A" d="M172 105.3c-.3-1.9.4-10.2.3-13.1-.1-2.9-1.9-6.7-1.9-8.9s.1-8.9-1.2-12.3c-1.3-3.4-3.9-6.2-5.1-8.3-1.2-2.1-1.5-2.1-2.1-5.3-.6-3.2-1.6-3.7-2.8-5.7-1.2-2.1.6-3-2.8-5.1-3.4-2.1-5.1-3.7-7.1-3.7s-6.4.3-8.6-.6c-2.2-1-7.2-2.4-12.6-2.4v87.3s1.7.3 3.3-1.1c2.4-1.1 5.4-.1 7.1 1.8 3.3 3 3.5 4 7 5.2 0 0-3 5.5-17.3 5.5v22.3s4.6.5 10.6-1.5c3.8-1.3 8.1-3.6 12.1-7.8l.1-.1c3.5-3.6 6.1-5.8 8.2-7.5.1-.1.3-.2.4-.3 3.9-3.2 5.7-4.8 7.7-11.6 1.3-4.5 2.7-10.9 3.9-17.7.5-2.8.9-5.6 1.3-8.4-.4-.2-.5-.4-.5-.7zm-13.9-29.5c-5.3-.5-18.7.4-20.8 3.3 0 0-.5-5 2.2-5.5 2.6-.5 18.4-2.2 22.3 0 3.8 2.2 6 5.5 6 5.5s-4.5-2.8-9.7-3.3z"/><path fill="#432015" d="M128 39.8c5.4 0 10.4 1.4 12.6 2.4 2.2 1 6.5.6 8.6.6s3.7 1.6 7.1 3.7c3.4 2.1 1.6 3 2.8 5.1 1.2 2.1 2.2 2.6 2.8 5.7.6 3.2.9 3.2 2.1 5.3 1.2 2.1 3.7 4.9 5.1 8.3 1.3 3.4 1.2 10.1 1.2 12.3s1.8 6.1 1.9 8.9c.1 2.9-.6 11.2-.3 13.1.1.3.2.6.4.6.8.4 2.8-1.5 3.8-3.2 1.2-2.1-.4-3.4-.9-5.1-.4-1.8 3.4-4.8 4.6-6.5.3-.4.6-.6.8-.7.9-.3 2 .8 3.9.7 2.5-.2.4-3.2 1.6-5.7s0-3.5-.6-5.8-1.5-2.1-2.1-4.3 1.2-2.1 2.5-3.8.4-3.4 1.2-4.6c.7-1.3-.6-3.2-1.3-5.6-.7-2.4-1-6.5-.7-9.3.3-2.7-1.8-2.2-2.7-3.7-.9-1.4-.7-4.8-1.3-7.3s-2.2-1.4-3.4-2.1c-1.2-.6-.4-4-1.3-5.4s-6.7-4.9-6.7-4.9 2.2 1.1.6-3.7c-1.6-4.8-8-3.7-8.5-5.3-.4-1.6-4.3-2.2-5.2-2.7-.9-.5-4.9-2.6-5.5-2.6s-4.5.2-7.1-2.6c-2.7-2.7-7 0-7 0-1.5-5.1-9-2.1-9-2.1v30.3z"/><path fill="#F26E4C" d="M144.4 183.3l2.3 10.6c2.3-1 4.6-2.3 7-3.8l-4.1-9.1c-1.6.8-3.4 1.6-5.2 2.3zm19.5-18.9l7.1 5.3c.8-1.7 1.6-3.5 2.4-5.3l-7.9-5.2c-.4 1.5-.9 3.2-1.6 5.2zm-4.4 7.9l5.8 6.6c1.3-1.7 2.6-3.6 3.8-5.7l-6.9-5.2c-.8 1.5-1.7 2.9-2.7 4.3zm-6.7 6.6l4 8.9c2.1-1.6 4.1-3.6 6-5.8l-5.9-6.7c-1.2 1.3-2.6 2.5-4.1 3.6zM128 243.6V256h.9c1.3-3.1 3.8-9.1 6.9-15.8l-7.8 3.4zm6.8-58.1l.6 11.7c2.2-.4 4.8-.9 7.6-1.9l-2.3-10.9c-1.8.5-3.8.8-5.9 1.1zm-3.1 12.2l-.6-11.9c-1 0-2 .1-3 .1v11.8c-.1 0 1.3.1 3.6 0zm-3.7 39.9l11.4-5.2c1.2-2.5 2.5-5 3.8-7.5l-15.2 6.8v5.9zm33.5 12.9l1.3-16 15.1-12.1c-5.1 1.4-10.5 3.1-13.7 4.8-6.8 3.7-17.2 19.2-21.3 26.5-.3.5-.5 1-.8 1.5 1.9-.2 3.8-.5 5.7-.8l3.8-4.2 9.9.3zm.4-59.8c-7.6 6.6-18.4 11.8-33.9 11.8v10.9l26.7-13.1v6.5L128 219.6v6.2l15.7-7.2v5.5c4-7.5 8.2-13.8 11.5-16.2 10-7 27.5-11.5 27.5-11.5l-.4-1.5-20.8-3.7c.1-.2.3-.4.4-.5zm28.3 29.5l-19.8 17.6-.6 11.2c9.4-3.2 18.3-7.5 26.5-12.8-1.3-6.4-3.4-13.4-6.1-16z"/><path fill="#F26E4C" d="M128 178.9v2.7s32.7 2.4 35.2-29.2l3.1 2v.5l8.6 5.6c0-.1.1-.2.1-.3l.1.1c-7.8-5.1-13.9-9.5-13.9-9.5 2.1 26.3-33.2 28.1-33.2 28.1z"/><path fill="#BBBBBC" d="M131 185.8l.6 11.9c1.1-.1 2.3-.2 3.8-.4l-.6-11.7c-1.2 0-2.4.1-3.8.2zm9.7-1.4l2.3 10.9c1.2-.4 2.4-.9 3.6-1.4l-2.3-10.6c-1.1.4-2.3.8-3.6 1.1zm8.8-3.4l4.1 9.1c1.1-.7 2.1-1.5 3.2-2.3l-4-8.9c-1 .7-2.1 1.4-3.3 2.1zm7.4-5.7l5.9 6.7c.9-1 1.7-2 2.5-3.1l-5.8-6.6c-.8 1-1.6 2-2.6 3zm5.3-7.3l6.9 5.2c.7-1.1 1.3-2.3 1.9-3.5l-7.1-5.3c-.5 1.1-1 2.4-1.7 3.6zm11.2-3.7c.5-1.2 1-2.5 1.4-3.8l-8.6-5.6c-.1.7-.2 2.3-.7 4.3l7.9 5.1z"/><path fill="#98999A" d="M128 185.9c1 0 2.1 0 3-.1 1.3-.1 2.6-.2 3.8-.3 2.1-.3 4.1-.6 5.9-1.1 1.3-.3 2.5-.7 3.7-1.1 1.9-.7 3.6-1.4 5.1-2.3 1.2-.7 2.3-1.4 3.3-2.1 1.5-1.1 2.9-2.3 4.1-3.6.9-1 1.8-2 2.6-3 1.1-1.4 1.9-2.8 2.7-4.3.7-1.3 1.2-2.5 1.7-3.7.7-1.9 1.3-3.7 1.6-5.2.5-2 .6-3.6.7-4.3v-.5l-3.1-2c-2.5 31.6-35.2 29.2-35.2 29.2v4.4z"/><path fill="#98999A" d="M174.8 160.5c-.4 1.3-.9 2.6-1.4 3.8-.7 1.9-1.5 3.7-2.4 5.3-.6 1.2-1.2 2.4-1.9 3.5-1.2 2.1-2.5 3.9-3.8 5.7-.8 1.1-1.7 2.1-2.5 3.1-2 2.2-4 4.1-6 5.8-1.1.8-2.1 1.6-3.2 2.3-2.4 1.6-4.7 2.8-7 3.8-1.2.5-2.4 1-3.6 1.4-2.8 1-5.4 1.5-7.6 1.9-1.4.2-2.7.4-3.8.4-2.3.2-3.7.1-3.7.1v4.7c15.5 0 26.3-5.2 33.9-11.8 12-13.6 14.1-25.4 14.5-29.5l-1.4-.9-.1-.1v.5z"/><path fill="#F0DD78" d="M154.7 206.8v-6.6L128 213.3v6.3zm-26.7 19v6l15.2-6.8c.2-.3.3-.6.5-.9v-5.5l-15.7 7.2zm0 17.8l7.8-3.5c1.1-2.5 2.4-5.1 3.7-7.7l-11.4 5.2v6z"/><path fill="#D76244" d="M190.2 220.2c-.3-.3-.5-.5-.8-.6 0 0-5.4 1.2-11.4 2.9l-15.1 12.1-1.3 16-9.8-.2-3.8 4.2c7.5-1.2 14.9-3 21.9-5.4l.6-11.2 19.7-17.8z"/><path fill="#63473C" d="M196.3 206.5c-.4-3-.6-6.1-.7-9.2l-13.3-2.4.4 1.5s-17.5 4.5-27.5 11.5c-3.3 2.3-7.5 8.7-11.5 16.2-.2.3-.3.6-.5.9-1.3 2.4-2.6 4.9-3.8 7.5-1.3 2.6-2.5 5.2-3.7 7.7-3.1 6.8-5.6 12.7-6.9 15.8 2.3 0 4.7-.1 7-.2 6.8-12.3 16.3-29.2 21.7-37.1 8.9-13.3 24.4-13.1 24.4-13.1l3.6 8.9s-15.3 3.2-21.5 6.7c-5 2.8-16.5 20.4-24.3 34.3.8-.1 1.7-.2 2.5-.3.3-.5.6-1 .8-1.5 4-7.3 14.4-22.8 21.3-26.5 3.1-1.7 8.6-3.4 13.7-4.8 6-1.7 11.4-2.9 11.4-2.9.3.2.6.4.8.6 2.8 2.6 4.8 9.6 6.1 16 1.2-.8 2.4-1.5 3.6-2.3-.4-6.6-1.5-14-2.5-20.4-.4-2.5-.8-4.8-1.1-6.9z"/><path fill="#BBBBBC" d="M161.9 190.7c-.2.2-.3.4-.5.5l20.8 3.7 13.3 2.4 7-21.1 1.5-4.5s-13.8-11.8-27.6-12c0 0 0 .5-.1 1.5-.3 4-2.4 15.8-14.4 29.5z"/><path fill="#543B31" d="M163.9 221.2c6.2-3.5 21.5-6.7 21.5-6.7l-3.6-8.9s-15.5-.2-24.4 13.1c-5.3 7.9-14.9 24.8-21.7 37.1 1.3-.1 2.5-.2 3.8-.3 7.9-13.9 19.4-31.5 24.4-34.3z"/><path fill="#98999A" d="M226.9 209.2c3-3.7 5.9-7.6 8.5-11.6-2-1.6-5.4-4.1-9-5.1l.5 16.7z"/><path fill="#BF573B" d="M59.7 206.5c.4-3 .6-6.1.7-9.2l-7-21.1c-6.1-.3-16.9.5-21.6 6.2-4.6 5.6-9.3 11.8-11.5 14.8.1.1.2.3.3.4 2-1.6 5.4-4.1 9-5.1l-.5 16.8c2.9 3.5 6 6.9 9.2 10.1 8.6-1.3 16.5-4.2 20.3-5.8.4-2.7.8-5 1.1-7.1z"/><path fill="#AB4D33" d="M38.3 219.3c5.5 5.4 11.5 10.3 17.8 14.6.4-6.6 1.5-14 2.5-20.4-3.8 1.6-11.7 4.5-20.3 5.8z"/><path fill="#404041" d="M128 178.9v-9.2c-18.6 0-23.6-3.5-28.2-6.2-3.4-2-3.3-8.3-3-11.5-.1-.8-.1-1.6-.1-2.4l-1.7 1.3c-2.3 26.2 33 28 33 28z"/><path fill="#4F5050" d="M99.8 158.3c-2-1.2-2.8-3.8-3-6.4-.3 3.2-.3 9.5 3 11.5 4.6 2.7 9.6 6.2 28.2 6.2v-5.1c-18.6.1-23.6-3.4-28.2-6.2z"/><path fill="#646465" d="M96.7 151.9c.3 2.6 1.1 5.3 3 6.4 4.6 2.7 9.6 6.2 28.2 6.2v-3.8s-4.6.5-10.6-1.5c-10.2-1.1-14-3.6-17.6-5.7-2-1.2-2.8-3.9-3.1-6.5-.1.7-.1 1.6-.1 2.5.1.7.2 1.6.2 2.4z"/><path fill="#7A7979" d="M99.8 153.5c3.6 2.1 7.4 4.7 17.6 5.7-3.8-1.3-8.1-3.6-12.1-7.8-2.2-1-3.9-2-5.5-2.9-1.5-.9-2.3-2.7-2.8-4.6-.1-.1-.3-.2-.4-.3 0 1 0 2.2.1 3.3.3 2.7 1.1 5.4 3.1 6.6z"/><path fill="#8C8B8B" d="M97 143.9c.4 2 1.2 3.7 2.8 4.6 1.6.9 3.2 2 5.5 2.9l-.1-.1c-3.5-3.5-6.1-5.7-8.2-7.4z"/><path fill="#60493B" d="M79.9 102.7c-1.2-2.1.4-3.4.9-5.1.4-1.8-3.4-4.8-4.6-6.5-.3-.4-.6-.6-.8-.7-1.1 3.2-.8 5.7-.2 8.8.7 4.2 0 4.8.1 8s2.8 6.7 6.8 7c1.2.1 2.1.1 2.9.1-.5-2.8-.9-5.6-1.3-8.4-.9.4-2.8-1.5-3.8-3.2z"/><path fill="#775B4B" d="M105.2 151.4s.1 0 0 0c4.1 4.2 8.4 6.5 12.2 7.8 6 2.1 10.6 1.5 10.6 1.5v-22.3c-14.3 0-17.3-5.5-17.3-5.5 3.4-1.2 3.7-2.2 7-5.2 1.7-1.9 4.7-2.9 7.1-1.8 1.6 1.4 3.3 1.1 3.3 1.1V39.8c-5.4 0-10.4 1.4-12.6 2.4-2.2 1-6.5.6-8.6.6s-3.7 1.6-7.1 3.7c-3.4 2.1-1.6 3-2.8 5.1-1.2 2.1-2.2 2.6-2.8 5.7-.6 3.2-.9 3.2-2.1 5.3-1.2 2.1-3.7 4.9-5.1 8.3-1.3 3.4-1.2 10.1-1.2 12.3s-1.8 6.1-1.9 8.9c-.1 2.9.6 11.2.3 13.1-.1.3-.2.6-.4.6.4 2.8.9 5.7 1.3 8.4 1.2 6.8 2.6 13.1 3.9 17.7 2 6.8 3.8 8.4 7.7 11.6.1.1.3.2.4.3 2 1.8 4.6 4 8.1 7.6zM87.8 79.1s2.2-3.4 6-5.5c3.8-2.2 19.6-.5 22.3 0 2.6.5 2.2 5.5 2.2 5.5-2.2-2.9-15.6-3.8-20.8-3.3-5.4.5-9.7 3.3-9.7 3.3z"/><path fill="#2A0800" d="M76.2 91c1.2 1.8 5.1 4.8 4.6 6.5-.4 1.8-2.1 3-.9 5.1 1 1.7 2.9 3.6 3.8 3.2.2-.1.3-.3.4-.6.3-1.9-.4-10.2-.3-13.1.1-2.9 1.9-6.7 1.9-8.9s-.1-8.9 1.2-12.3c1.3-3.4 3.9-6.2 5.1-8.3 1.2-2.1 1.5-2.1 2.1-5.3.6-3.2 1.6-3.7 2.8-5.7 1.2-2.1-.6-3 2.8-5.1 3.4-2.1 5.1-3.7 7.1-3.7s6.4.3 8.6-.6c2.2-1 7.2-2.4 12.6-2.4V9.7s-7.6-3-9 2.1c0 0-4.3-2.7-7 0s-6.5 2.6-7.1 2.6-4.6 2.1-5.5 2.6c-.9.5-4.8 1.1-5.2 2.7-.4 1.6-6.8.5-8.5 5.3-1.6 4.8.6 3.7.6 3.7s-5.8 3.5-6.7 4.9-.1 4.8-1.3 5.4c-1.2.6-2.8-.5-3.4 2.1s-.4 5.9-1.3 7.3c-.9 1.4-3 1-2.7 3.7.3 2.7 0 6.9-.7 9.3-.7 2.4-2.1 4.3-1.3 5.6.7 1.3-.1 2.9 1.2 4.6s3.1 1.6 2.5 3.8-1.5 2.1-2.1 4.3-1.8 3.2-.6 5.8-.9 5.6 1.6 5.7c1.9.1 3-1 3.9-.7.2-.1.5.1.8.5z"/><path fill="#D76244" d="M91.8 227.2c-3.1-1.7-8.6-3.4-13.7-4.8l15.1 12.1 1.3 16 9.8-.2 3.8 4.2c1.9.3 3.8.5 5.7.8-.3-.5-.6-1-.8-1.5-4-7.4-14.4-22.9-21.2-26.6zm-26-7c-2.8 2.6-4.8 9.6-6.1 16 8.2 5.2 17.1 9.5 26.5 12.8l-.6-11.2-19.8-17.6zm49.5-35.8l-2.3 10.9c2.8 1 5.4 1.5 7.6 1.9l.6-11.7c-2.1-.3-4.1-.6-5.9-1.1zm4.9 55.8c3.1 6.8 5.6 12.7 6.9 15.8h.9v-12.4l-7.8-3.4zm4.8-54.4l-.6 11.9c2.3.2 3.7.1 3.7.1V186c-1.1-.1-2.2-.2-3.1-.2zm-43.8-25.3l8.6-5.6v-.5l3.1-2c2.5 31.6 35.2 29.2 35.2 29.2v-2.7s-35.3-1.8-33.1-28.1c0 0-6.2 4.4-13.9 9.5l.1-.1v.3zm46.8 65.3v-6.2l-26.7-12.8v-6.5l26.7 13.1v-10.9c-15.5 0-26.3-5.2-33.9-11.8.2.2.3.4.5.5l-20.8 3.7-.4 1.5s17.5 4.5 27.5 11.5c3.3 2.3 7.5 8.7 11.5 16.2v-5.5l15.6 7.2z"/><path fill="#D76244" d="M90.5 159.2l-7.9 5.2c.7 1.9 1.5 3.7 2.4 5.3l7.1-5.3c-.7-2-1.2-3.7-1.6-5.2zm16 21.8l-4.1 9.1c2.4 1.6 4.7 2.8 7 3.8l2.3-10.6c-1.9-.7-3.7-1.5-5.2-2.3zm-12.7-13l-6.9 5.2c1.2 2.1 2.5 3.9 3.8 5.7l5.8-6.6c-1-1.4-1.9-2.8-2.7-4.3zm5.3 7.3l-5.9 6.7c2 2.2 4 4.1 6 5.8l4-8.9c-1.5-1.1-2.9-2.3-4.1-3.6zm28.9 56.5l-15.2-6.8c1.3 2.4 2.6 4.9 3.8 7.5l11.4 5.2v-5.9z"/><path fill="#98999A" d="M121.2 185.5l-.6 11.7c1.4.2 2.7.4 3.8.4l.6-11.9c-1.4 0-2.6-.1-3.8-.2zm-9.6-2.2l-2.3 10.6c1.2.5 2.4 1 3.6 1.4l2.3-10.9c-1.2-.3-2.4-.7-3.6-1.1zm-8.4-4.4l-4 8.9c1.1.8 2.1 1.6 3.2 2.3l4.1-9.1c-1.2-.7-2.3-1.4-3.3-2.1zm-6.7-6.6l-5.8 6.6c.8 1.1 1.7 2.1 2.5 3.1l5.9-6.7c-1-1-1.8-2-2.6-3zm-4.4-7.9l-7.1 5.3c.6 1.2 1.2 2.4 1.9 3.5l6.9-5.2c-.7-1.2-1.2-2.5-1.7-3.6zm-2.3-9.5l-8.6 5.6c.4 1.3.9 2.6 1.4 3.8l7.9-5.2c-.5-2-.6-3.5-.7-4.2z"/><path fill="#7A7979" d="M92.1 164.4c.5 1.2 1 2.4 1.7 3.7.8 1.4 1.6 2.8 2.7 4.3.8 1 1.6 2 2.6 3 1.2 1.3 2.6 2.5 4.1 3.6 1 .7 2.1 1.4 3.3 2.1 1.6.9 3.3 1.6 5.1 2.3 1.2.4 2.4.8 3.7 1.1 1.8.5 3.8.8 5.9 1.1 1.2.1 2.5.3 3.8.3 1 0 2 .1 3 .1v-4.3s-32.7 2.4-35.2-29.2l-3.1 2v.5c.1.7.2 2.3.7 4.3.5 1.4 1 3.1 1.7 5.1z"/><path fill="#7A7979" d="M94.1 190.7c7.6 6.6 18.4 11.8 33.9 11.8v-4.7s-1.4.1-3.7-.1c-1.1-.1-2.3-.2-3.8-.4-2.2-.4-4.8-.9-7.6-1.9-1.2-.4-2.4-.9-3.6-1.4-2.3-1-4.6-2.3-7-3.8-1.1-.7-2.1-1.5-3.2-2.3-2.1-1.6-4.1-3.6-6-5.8-.9-1-1.7-2-2.5-3.1-1.3-1.7-2.6-3.6-3.8-5.7-.7-1.1-1.3-2.3-1.9-3.5-.8-1.7-1.6-3.5-2.4-5.3-.5-1.2-1-2.5-1.4-3.8 0-.1-.1-.2-.1-.3l-.1.1-1.4.9c.5 3.8 2.6 15.6 14.6 29.3z"/><path fill="#C3B664" d="M101.3 206.8l26.7 12.8v-6.3l-26.7-13.1zm26.7 19l-15.7-7.2v5.5c.2.3.3.6.5.9l15.2 6.8v-6zm-11.4 6.6c1.3 2.6 2.5 5.2 3.7 7.7l7.8 3.5v-6l-11.5-5.2z"/><path fill="#BF573B" d="M94.5 250.5l-1.3-16-15.1-12.1c-6-1.7-11.4-2.9-11.4-2.9-.3.2-.6.4-.8.6l19.8 17.6.6 11.2c7 2.4 14.4 4.3 21.9 5.4l-3.8-4.2-9.9.4z"/><path fill="#543B31" d="M116.6 232.4c-1.2-2.5-2.5-5-3.8-7.5-.2-.3-.3-.6-.5-.9-4-7.5-8.2-13.8-11.5-16.2-10-7-27.5-11.5-27.5-11.5l.4-1.5-13.3 2.4c-.1 3.1-.3 6.3-.7 9.2-.3 2.1-.7 4.5-1 7-1 6.4-2.1 13.9-2.5 20.4 1.2.8 2.4 1.6 3.6 2.3 1.3-6.4 3.4-13.4 6.1-16 .3-.3.5-.5.8-.6 0 0 5.4 1.2 11.4 2.9 5.1 1.4 10.5 3.1 13.7 4.8 6.8 3.7 17.2 19.2 21.3 26.5.3.5.5 1 .8 1.5.8.1 1.7.2 2.5.3-7.7-13.9-19.3-31.5-24.3-34.3-6.2-3.5-21.5-6.7-21.5-6.7l3.6-8.9s15.5-.2 24.4 13.1c5.3 7.9 14.9 24.8 21.7 37.1 2.3.1 4.6.2 7 .2-1.3-3.1-3.8-9.1-6.9-15.8-1.3-2.5-2.5-5.2-3.8-7.8z"/><path fill="#98999A" d="M60.4 197.2l13.3-2.4 20.8-3.7c-.2-.2-.3-.4-.5-.5-12-13.6-14.1-25.4-14.5-29.5-.1-1-.1-1.5-.1-1.5-13.8.2-27.6 12-27.6 12l1.5 4.5 7.1 21.1z"/><path fill="#3A251C" d="M74.1 205.5l-3.6 8.9s15.3 3.2 21.5 6.7c5 2.8 16.5 20.4 24.3 34.3 1.3.1 2.5.2 3.8.3-6.8-12.3-16.3-29.2-21.7-37.1-8.9-13.2-24.3-13.1-24.3-13.1z"/><path fill="#7A7979" d="M20.6 197.6c2.6 4 5.5 7.9 8.5 11.6l.5-16.8c-3.7 1.1-7.1 3.6-9 5.2z"/><path fill="#775B4B" d="M145.3 133c-3.4-1.2-3.7-2.2-7-5.2-1.7-1.9-4.7-2.9-7.1-1.8-1.6 1.4-3.3 1.1-3.3 1.1v11.3c14.4.1 17.4-5.4 17.4-5.4z"/><path fill="#60493B" d="M124.7 126c-2.4-1.1-5.4-.1-7.1 1.8-3.3 3-3.5 4-7 5.2 0 0 3 5.5 17.3 5.5v-11.3c.1-.1-1.6.2-3.2-1.2z"/><path fill="#432015" d="M161.7 73.6c-3.8-2.2-19.6-.5-22.3 0-2.6.5-2.2 5.5-2.2 5.5 2.2-2.9 15.6-3.8 20.8-3.3 5.3.5 9.6 3.3 9.6 3.3s-2.1-3.4-5.9-5.5z"/><path fill="#2A0800" d="M118.2 79.1s.5-5-2.2-5.5c-2.6-.5-18.4-2.2-22.3 0-3.8 2.2-6 5.5-6 5.5s4.3-2.7 9.6-3.3c5.3-.6 18.7.4 20.9 3.3z"/></svg>