<svg xmlns="http://www.w3.org/2000/svg" width="256" height="256"><circle fill="#B1B3B5" cx="128" cy="128" r="128"/><path fill="#21041B" d="M94.2 135.8c-.3-.3-.5-.7-.7-1l.1.1s-6.1 1.5-6.1 4.1c0 2 3.5 5.8 8 9.8.9-2.8 1.5-6 1.8-9.1-1.1-1.4-2.2-2.7-3.1-3.9z"/><path fill="#0B5A79" d="M128 167.6V160c-8.3 0-13.2-1.8-17.7-5.2-.2-.1-.3-.2-.5-.4-.1-.1-.3-.2-.4-.3-2.1-1.7-4.5-4.9-7.1-8.5-1.7-2-3.4-4-5-6-.3 3.1-.9 6.3-1.8 9.1 5.6 5 12.8 10.4 16.7 13 2.4 1.7 2.8 4.7 2.2 8L128 173v-5.4z"/><path fill="#250A1F" d="M128 173l-13.6-3.2c-.6 3.2-2 6.6-3.3 9.2.1 0 .2.1.2.1l-2.9 5.6c-.1 0-.1-.1-.2-.1-1.3 2.9-2.7 5.9-3.9 8.8l7.8-3.1c4.7 4.1 15.6 3.5 15.8 3.5V173z"/><path fill="#603243" d="M128 199.2v-5.4c-.3 0-11.1.6-15.8-3.5l-7.8 3.1c-1.6 3.8-3 7.6-3.7 10.9-.6 2.9-6.2 23.1-14.7 44.7 13.1 4.6 27.3 7 42 7v-56.8z"/><path fill="#430A1E" d="M111.1 179c1.3-2.5 2.7-6 3.3-9.2.6-3.3.2-6.3-2.2-8-3.9-2.7-11.1-8-16.7-13-4.5-4-8-7.8-8-9.8 0-2.6 6.1-4.1 6.1-4.1l-.1-.1c-.6-.9-1.2-1.8-1.7-2.8l-.1-.1s-7.3 2.6-8.6 8.2c-.3 1.3-1.4 8.7-3.2 14.8 7.7 15 29 23.3 31.2 24.1z"/><path fill="#5B1D30" d="M16.8 191.5c1.9 3.3 3.9 6.5 6.1 9.6-1.9-4.5-3.8-8.2-4.9-10.2l-1.2.6zm23.5 11.2s-2.4.2-5.3.9c.8 3 1.6 6.2 2.4 9.5 3.8-1.7 4.4-5.5 2.9-10.4zm7.1-31c8.9-4.2 18.5-1.3 18.5-1.3l11.2-8.9s-20.2 3.3-28 6.1c-1 .3-2 .7-3 1.1l1.3 3z"/><path fill="#5B1D30" d="M104.3 193.3c1.2-2.9 2.6-5.8 3.9-8.8-12.4-4-28.5-18.5-28.5-18.5-7 5.1-11.2 16.9-11.2 16.9s.9 3.7 1.8 8.1c4.5-.8 9.9-1.5 16.1-1.8v25.4H69.8v7.4H58.7l-5.4-26.4s1.8-.8 5.2-1.8c-.8-4.3-1.7-8.8-2.7-10.9l-7.1-7-13.6 6.7c1.5 3.9 3.4 9.2 4.9 15.4 0 0-1 .6-2.7 1.3l.3 1.5h3.3s4.5 11.3-3.2 13.6c.5 1.9.9 3.8 1.3 5.7 13.2 12.8 29.2 22.7 47 28.9 8.5-21.6 14.1-41.8 14.7-44.7.7-3.4 2-7.1 3.6-11z"/><path fill="#7A727D" d="M60 204.3s-.6-5.2-1.6-10.5c-3.4 1-5.2 1.8-5.2 1.8l5.4 26.4h11.1v-7.4h16.5v-25.4c-6.2.4-11.6 1-16.1 1.8.8 4.1 1.7 8.8 1.9 12l-12 1.3z"/><path fill="#40071B" d="M65.4 172.5c-7-1.9-17.4 1.4-17.4 1.4l.7 2 7.1 7c1 2 1.9 6.5 2.7 10.9.9 5.4 1.6 10.5 1.6 10.5l12.1-1.3c-.2-3.2-1-7.9-1.9-12-.9-4.4-1.8-8.1-1.8-8.1l-6.1-3.2 3-7.2z"/><path fill="#3E182D" d="M30.3 203.1l-.5-1.6c-1.1.2-2.2.3-3.3.2 0 0-2.1-7-4.5-12.8l-4 1.9c1.1 2 3 5.7 4.9 10.2 1.8 2.6 3.8 5.2 5.8 7.7-.9-2.2-1.2-4.3-1.2-4.3l2.8-1.3z"/><path fill="#3E182D" d="M36.6 213.4c.3-.1.5-.2.8-.3-.8-3.3-1.6-6.5-2.4-9.5-1.9.4-4 1.1-5.6 2.1.1-.1 2.8 9.2 7.2 7.7zm.9 1c-1.6.4-2.9.3-4.1-.2 1.8 2 3.7 4 5.7 5.8-.4-1.9-.9-3.8-1.3-5.7-.2 0-.2.1-.3.1z"/><path fill="#4B354A" d="M22 189c-1.1-2.5-2.2-4.8-3.2-6.1 0 0 6.9-5.1 13.7-6.5 0 0 1.1 2.3 2.6 6.2l13.6-6.7-.7-2s10.4-3.3 17.4-1.4l-3 7.2 6.1 3.2s4.2-11.8 11.2-16.9c0 0 16.1 14.5 28.5 18.6.1 0 .1.1.2.1l2.9-5.6s-.1 0-.2-.1c-2.2-.8-23.5-9.1-31.2-24.1l-2.9 6.6-11.2 8.9s-9.5-2.9-18.5 1.3l-1.3-3.1-1.4-3.4s-23.3 7-33.5 15.3c1.7 3.8 3.6 7.4 5.6 11l1.2-.6L22 189z"/><path fill="#663648" d="M18.8 182.9c1 1.3 2.1 3.6 3.2 6.1 2.4 5.7 4.5 12.8 4.5 12.8 1.1 0 2.2-.1 3.3-.2l-1.4-4.5s4-2.6 7.9-2.3l1.1 4.6c1.6-.7 2.7-1.3 2.7-1.3-1.5-6.1-3.4-11.5-4.9-15.4-1.5-3.9-2.6-6.2-2.6-6.2-7 1.3-13.8 6.4-13.8 6.4z"/><path fill="#7A727D" d="M37.5 214.4c.1 0 .2-.1.3-.1 7.7-2.3 3.2-13.6 3.2-13.6h-3.3l-.3-1.5-1.1-4.6c-4-.2-7.9 2.3-7.9 2.3l1.4 4.5.5 1.6-2.9 1.4s.3 2 1.2 4.3c1.5 1.9 3.1 3.7 4.7 5.5 1.2.5 2.6.6 4.2.2zm-8-8.8c1.6-1 3.7-1.6 5.6-2.1 2.8-.7 5.3-.9 5.3-.9 1.5 4.9.9 8.7-2.9 10.4-.3.1-.5.2-.8.3-4.5 1.6-7.2-7.7-7.2-7.7z"/><path fill="#33192D" d="M168.6 139c0-2.6-4.7-3.3-4.7-3.3-1.5 1.9-3.2 3.9-4.9 5.9.3 2.5.8 4.9 1.6 7.2 4.4-4 8-7.8 8-9.8z"/><path fill="#176E91" d="M128 167.6v5.4l13.6-3.2c-.6-3.3-.2-6.3 2.2-8 3.9-2.7 11.1-8 16.7-13-.7-2.2-1.2-4.7-1.6-7.2-2.6 3-5.3 5.9-7.8 8.3l-.9.9c-1.6 1.5-3 2.8-4.1 3.7-4.7 3.6-9.5 5.5-18.2 5.5v7.6zm44.8-66.5c0 2.7-.2 6.4-.7 10.5 1.8 0 4.2-1.3 4.8-3 .6-1.8 2.7-4.3 3.7-5.3s.9-5.7 1-9.7c.1-4 1.6-8.6 2.1-10.7.4-2.1-.4-5.7-3.3-7-1.7-.8-3.4.5-4.5 1.7l-.5 1.9c-1.1 7.1-2.6 16.6-2.6 21.6z"/><path fill="#1F8BB9" d="M163.6 26.4c-2.3-2.3-4.7-4.4-7-6.3v.1c2.8 2.3 5.1 4.3 7 6.2zm-20.3 10c-2.1.7-2.7-1-2.7-1l.6-1.9c.2-.9.6-1.9.9-3-4.4-2.5-14.1-2.9-14.1-2.9V129s1.1.2 2.2-.8c1.6-.7 3.6-.1 4.8 1.2 2.2 2.1 2.4 2.7 4.7 3.5 0 0-2 3.7-11.6 3.7V160c8.7 0 13.5-1.9 18.2-5.5 1.1-.9 2.6-2.1 4.1-3.7l.8-30.4.1-.1c2.9-3.3 9.8-16.4 12.7-22.1h-.1l-3.2 5.5h-2.9l.6 2s-1.7 2.9-2.2 2.9-5.9-2.3-5.9-2.3-3.4 2.6-4.2 2.3c-.6-.3-1.9-2.9-2.5-4.1l-.3-.6-2-.1-.3-1.9 8.7-1.7 6.7-.4 7.5-8.6 3.2-1.1-1.3-1-2.9.1-.2-2.5 4.4-5.5v-.1c-.3-.9-3.2-8.2-8.1-8-4.8 1.4-10.8 4.1-10.8 4.1V81l-6.7 3.4-4.5 4.3c-1.7.3-2.8-.4-2.8-.4l.5-6.7 2.8-3.4.4-2.8c.4-2.8 2.7-5.5 6.2-6.9.7-.3 1.6-.7 2.5-1.1-1.2-10.8-1.5-23.2-1.5-23.4v-.2l10.8-24.4-.1-.1c-1.4-1.2-3-2.2-4.7-3-.6 1-1.6 3.1-3.2 6.7-2.5 5.7-4.6 13.4-4.6 13.4z"/><path fill="#1F8BB9" d="M175.4 79.3L174 85l-6.4 13.2h-2.7c-2.7 5.4-9.9 19.1-13 22.6l-.7 29.1c2.4-2.4 5.2-5.3 7.8-8.3 1.7-2 3.4-4 4.9-5.9l2.3-3.2c3.2-5.1 5-13.6 5.9-21 .5-4 .7-7.7.7-10.5 0-4.9 1.5-14.4 2.6-21.7z"/><path fill="#3D9CBE" d="M150.2 54l-4.1-3c.2 4.5.6 10.5 1.2 16.1 1.6-.7 3.3-1.5 5.1-2.3L150.2 54z"/><path fill="#3D9CBE" d="M145.9 44.2c0 .5.1 2.8.2 6l.2-.3 4.7 3.4 2.3 11c1.8-.8 3.7-1.7 5.4-2.5 4.9-2.2 7.8 3.8 7.8 3.8V43.7l3.3-10.1c-1.1-1.6-3-4.1-6.2-7.2-1.9-1.8-4.2-3.9-7.1-6.2l-10.6 24z"/><path fill="#176E91" d="M145 44v.1c0 .2.3 12.6 1.5 23.4.3-.1.6-.2.9-.4-.6-5.6-1-11.6-1.2-16.1l4.1 3 2.2 10.8c.3-.1.6-.3.8-.4l-2.3-11-4.7-3.4-.2.3c-.1-3.2-.2-5.5-.2-6l10.6-24.1v-.1c-.2-.2-.5-.4-.7-.6L145 43.9v.1zm6.9 76.8c3.1-3.5 10.2-17.2 13-22.6h-1c-2.9 5.7-9.8 18.8-12.7 22.1l-.1.1-.8 30.4.9-.9.7-29.1z"/><path fill="#004B66" d="M139.6 133.1c-2.3-.8-2.5-1.5-4.7-3.5-1.1-1.3-3.2-2-4.8-1.2-1.1 1-2.2.8-2.2.8v7.7c9.7-.1 11.7-3.8 11.7-3.8z"/><path fill="#555F5E" d="M131.2 9.7l-.9-1.4H128v1.3c1.1.1 2.2.1 3.2.1z"/><path fill="#707A79" d="M128 11.2v16.4s9.7.4 14.1 2.9c2-6 5.4-14.6 6.2-16.7-2.1-1.2-7.6-3.7-17.1-4.1-1-.1-2.1-.1-3.2-.1v1.6z"/><path fill="#555F5E" d="M142.1 30.6c-.4 1.1-.7 2.1-.9 3l-.6 1.9s.6 1.7 2.7 1c0 0 2.1-7.7 4.5-13.3 1.6-3.6 2.6-5.7 3.2-6.7.3-.6.5-.8.5-.8V14s-.4-1-1.7-1.1l-1.3.5s-.1.2-.2.5c-.8 2.1-4.2 10.7-6.2 16.7zm24.4 13.1v22.2s-3-6.1-7.8-3.8c-1.7.8-3.5 1.6-5.4 2.5-.3.1-.6.3-.8.4-1.8.8-3.5 1.6-5.1 2.3-.3.1-.6.3-.9.4-.9.4-1.8.8-2.5 1.1-3.5 1.4-5.8 4.1-6.2 6.9l-.4 2.8-2.8 3.4-.5 6.7s1.1.7 2.8.4l1.2-8.6s1.8-.8 2.3-2.8.7-4 3.2-5c2.6-1.1 10.4-5.1 13.1-5.9 2.7-.7 7.7-.6 9.1 2.3 1.4 2.9 1.3 3.6 1.3 3.6l3.5-5.6-1.7-2.2.3-19.5 1.3-7.3h1.2s.4 0 .8.1c-.7-1.4-1.6-2.9-2.9-4.2l-3.1 9.8z"/><path fill="#707A79" d="M163.5 93.5l3.2-.5 3.1-4.4.8-4.5-5 5.1 1.3 1-3.2 1-7.6 8.7 2.1.7zm-4.7-20.3c4.9-.2 7.7 7.1 8.1 8-.4-1-3.6-9.4-8.1-8zm-15.4 31.3l-.3-.6c.1 0 .2.3.3.6zm13.1-1.5h-5s-1 2.6-2.6 2.9c-1.6.2-2.4-1.4-2.4-1.4h-3c.6 1.2 1.9 3.8 2.5 4.1.8.4 4.2-2.3 4.2-2.3s5.3 2.3 5.9 2.3 2.2-2.9 2.2-2.9l-.6.9-1.2-3.6z"/><path fill="#707A79" d="M172.1 79l-.4 4-1.1 5.7-3.1 4.8-3.5.7-5.1 7.3-3.8-1.6 1.2-.1-6.7.4-8.7 1.7.3 1.9 2 .1h3.7s.9 1.1 2 1.2 2.2-2.7 2.2-2.7h6.3l.9 3.3-.6-2h2.9l3.2-5.5h3.8L174 85l1.5-5.7.5-1.9V77l-3.9 2zm-5.2 2.3z"/><path fill="#707A79" d="M171.9 37.7h-1.2l-1.3 7.3-.4 19.5 1.7 2.2-3.5 5.6s.1-.7-1.3-3.6c-1.4-2.9-6.4-3-9.1-2.3-2.7.7-10.5 4.8-13.1 5.9-2.6 1.1-2.7 3.1-3.2 5s-2.3 2.8-2.3 2.8l-1.2 8.6 4.5-4.3 2.9-8.9s9.4-4.6 13-5.6c3.5-1 6.9.3 8.5 3.2 1.7 3 2.8 6.1 2.8 6.1l-1.7 2-4.4 5.5h3.3l4.9-5.9.8-3.9 5.7-4.1 2.6-3.6s-5.7-29.1-6-30.4c-.2-.6-.6-.9-1-1.1h-1zm4.6 19.6s-.8 4.4-4.3 1.1v-9.2h2.7l1.6 8.1z"/><path fill="#626C6B" d="M165.8 73.2c-1.7-3-5-4.2-8.5-3.2s-13 5.6-13 5.6l-2.9 8.9 6.7-3.4v-3.8s6-2.6 10.8-4.1c4.5-1.3 7.7 7 8.1 8v.1l1.7-2c-.1 0-1.3-3.2-2.9-6.1zm5.6 3.8l-.7 3.9-4.9 5.9h-3.3l.2 2.5 2.9-.1 5-5.1 1.1-1.1.4-4 3.9-2 1.1-4.1z"/><path fill="#626C6B" d="M158.8 101.5l5.1-7.3 3.5-.7 3.2-4.8 1.1-5.7-1.1 1.1-.8 4.5-3.1 4.4-3.2.5-5.3 7.1-2.1-.7H155zm-7.8.9s-1.1 2.8-2.2 2.7-2-1.2-2-1.2h-3.7l.3.6h3s.9 1.6 2.4 1.4c1.6-.2 2.6-2.9 2.6-2.9h5l1.2 3.6.6-.9-.9-3.3H151z"/><path fill="#555F5E" d="M172.2 49.2v9.2c3.5 3.4 4.3-1.1 4.3-1.1l-1.7-8.1h-2.6z"/><path fill="#0B5A79" d="M81 85.6c-.2-2-1.1-5.7-2-9.2-1-.8-2.2-1.2-3.4-.7-2.8 1.3-3.7 4.9-3.3 7 .4 2.1 1.9 6.7 2.1 10.7s0 8.8 1 9.7 3.1 3.5 3.7 5.3 3.3 3.2 5 3c.6-.1 1.1-.5 1.6-1.1-.3-2-.4-3.9-.5-5.7-1.6-7.1-4-16.3-4.2-19z"/><path fill="#176E91" d="M86.3 112.5c0-1.8-.5-4.6-1.2-7.8.1 1.8.3 3.7.5 5.7.2 1.8.5 3.7.9 5.6-.1-1.2-.2-2.4-.2-3.5zm13.1-92.4c-.4.4-.9.8-1.4 1.1.6-.4 1.1-.8 1.4-.9v-.2zm8.6 25.3c0 .2-.4 20.1 0 25.2.2 2 .3 3.6.4 4.8 4.1.9 8.8 1.8 8.8 1.8 1.3.3 2.3 3.5 1.3 3.9-1 .4-8.4-1.5-10.1-1.8-.2 0-.5-.1-.8-.2V81c-3.5-.2-6.4.4-9.5 1.9-3.1 1.5-7.1 6.3-7.1 6.3 7.8 3 16.6 2.1 16.6 2.1v.2h.3c0 .2-1.3 23.7.7 36.9 1.4 8.9 1.7 20 1.7 26.3 4.5 3.3 9.3 5.2 17.7 5.2v-23.2c-9.6 0-11.6-3.7-11.6-3.7 2.3-.8 2.5-1.5 4.7-3.5 1.1-1.3 3.2-2 4.8-1.2 1.1 1 2.2.8 2.2.8V27.7s-9.7.4-14.1 2.9c.4 1.1.7 2.1.9 3l.6 1.9s-.6 1.7-2.7 1c0 0-2.1-7.7-4.5-13.3-1.6-3.6-2.6-5.7-3.2-6.7-1.7.9-3.3 1.8-4.7 3-.1 0-.1.1-.2.1l7.8 25.8zm1.4 108.7v-.3c-1.4-1.5-4.1-4.7-7.1-8.2 2.6 3.7 5.1 6.8 7.1 8.5z"/><path fill="#003951" d="M125.8 128.3c-1.6-.7-3.6-.1-4.8 1.2-2.2 2.1-2.4 2.7-4.7 3.5 0 0 2 3.7 11.6 3.7V129c.1.1-1 .3-2.1-.7z"/><path fill="#368EAC" d="M110.3 154.8zm-16.8-20.1c.2.3.5.7.7 1 .9 1.2 2 2.5 3.1 3.9 1.6 2 3.4 4.1 5 6 3 3.5 5.8 6.6 7.1 8.2-.1-6.4-.4-16.8-1.7-25.2-2.1-13.3-.7-36.9-.7-37.1h.6v-.2s-8.7 1-16.6-2.1c0 0 4-4.9 7.1-6.3 3.1-1.5 5.9-2.1 9.5-1.9v-1.9c-2.5-.6-8.1-2.5-10.3-3.1-2.5-.6-7.3 4.1-7.3 4.1V79s3.1-3.4 4.4-4.4c.9-.7 3.5-1 5.7-.9l2.8-18.5 4.1-3.8c0-3.1.1-5.4.1-5.9l-7.7-25.2c-.3.2-.8.5-1.4.9-3.8 2.7-12.9 9.9-17 21.1-5.2 14.4-4.4 22.4-4 26 .2 1.7 1 4.8 1.9 8.1.9 3.5 1.9 7.2 2 9.2.2 2.7 2.6 11.8 4.1 19.1.7 3.2 1.1 6 1.2 7.8 0 1.1.1 2.2.3 3.5.6 4.7 2.2 10.6 5.2 15.9.5 1 1.1 1.9 1.8 2.8z"/><path fill="#368EAC" d="M107.5 75.2c-.1-1.2-.2-2.7-.4-4.5-.3-3.1-.2-11.7-.1-18l-3.2 3-2.8 18.1c.7.1 1.3.2 1.7.3.7.2 2.6.6 4.8 1.1z"/><path fill="#424A4A" d="M128 8.4h-2.3l-.9 1.4c1-.1 2.1-.1 3.2-.1V8.4z"/><path fill="#626C6B" d="M113.9 30.6c4.4-2.5 14.1-2.9 14.1-2.9v-18c-1.1 0-2.2 0-3.2.1-9.6.5-15 2.9-17.1 4.1.8 2.1 4.2 10.7 6.2 16.7z"/><path fill="#424A4A" d="M112.7 36.4c2.1.7 2.7-1 2.7-1l-.6-1.9c-.2-.9-.6-1.9-.9-3-2-6-5.4-14.6-6.2-16.7-.1-.3-.2-.5-.2-.5l-1.3-.5c-1.3.1-1.7 1.1-1.7 1.1v1.6s.2.3.5.8c.6 1 1.6 3.1 3.2 6.7 2.4 5.7 4.5 13.4 4.5 13.4z"/><path fill="#0B5A79" d="M107.1 45.5c0 .5-.1 2.9-.1 5.9l-4.1 3.8-2.8 18.5c.3 0 .6 0 .9.1l2.7-18.1 3.2-3c-.1 6.3-.1 14.9.1 18 .2 1.8.3 3.3.4 4.5.3.1.6.1.9.2-.1-1.2-.2-2.8-.4-4.8-.4-5 0-25 0-25.2v-.1L100 19.5c-.2.2-.5.4-.7.6l.1.2 7.7 25.2zm2.3 108.6c.1.1.3.2.4.3.2.1.3.3.5.4 0-6.4-.3-17.4-1.7-26.3-2-13.2-.7-36.7-.7-36.9h-.9c0 .2-1.3 23.8.7 37.1 1.3 8.4 1.6 18.7 1.7 25.2v.2z"/><path fill="#29454D" d="M118.5 81.1c1-.4-.1-3.6-1.3-3.9 0 0-4.7-.9-8.8-1.8-.3-.1-.6-.1-.9-.2-2.2-.5-4.1-.9-4.8-1.1-.4-.1-1-.2-1.7-.3-.3 0-.6 0-.9-.1-2.2-.1-4.8.2-5.7.9C93.1 75.7 90 79 90 79v1.1s4.8-4.7 7.3-4.1c2.2.5 7.9 2.4 10.3 3.1.3.1.6.1.8.2 1.7.3 9.1 2.3 10.1 1.8z"/><path fill="#33192D" d="M128 173v20.7s11 .6 15.8-3.5l7.8 3.1c-1.2-2.9-2.6-5.8-3.9-8.8-.1 0-.1.1-.2.1l-2.9-5.6s.1 0 .2-.1c-1.3-2.5-2.7-6-3.3-9.2L128 173z"/><path fill="#703D4F" d="M151.7 193.3l-7.8-3.1c-4.8 4.2-15.8 3.5-15.8 3.5V256c14.7 0 28.8-2.5 42-7-8.5-21.6-14.1-41.8-14.7-44.7-.8-3.4-2.1-7.1-3.7-11z"/><path fill="#5B1D30" d="M163.9 135.7s4.7.7 4.7 3.3c0 2-3.5 5.8-8 9.8-5.6 5-12.8 10.4-16.7 13-2.4 1.7-2.8 4.7-2.2 8 .6 3.2 2 6.6 3.3 9.2 2.2-.8 23.5-9.1 31.2-24.1-1.8-6-2.9-13.5-3.2-14.8-1.2-5.6-6.6-7.7-6.6-7.7l-.1.1-2.4 3.2z"/><path fill="#742C41" d="M215.1 200.7h3.3l.3-1.5c-1.6-.7-2.7-1.3-2.7-1.3 1.5-6.1 3.4-11.5 4.9-15.4l-13.6-6.7-7.1 7c-1 2-1.9 6.5-2.7 10.9 3.4 1 5.2 1.8 5.2 1.8l-5.4 26.4h-11.1v-7.4h-16.5v-25.4c6.2.4 11.6 1 16.1 1.8.9-4.4 1.8-8.1 1.8-8.1s-4.2-11.8-11.2-16.9c0 0-16.1 14.5-28.5 18.6 1.3 2.9 2.7 5.9 3.9 8.8 1.6 3.8 3 7.6 3.7 10.9.6 2.9 6.2 23.1 14.7 44.7 17.8-6.2 33.7-16.1 47-28.9.4-1.9.9-3.8 1.3-5.7-8-2.3-3.4-13.6-3.4-13.6zm18 .4c2.2-3.1 4.2-6.3 6.1-9.6l-1.2-.6c-1.1 2-3.1 5.7-4.9 10.2z"/><path fill="#742C41" d="M215.7 202.7c-1.5 4.9-.9 8.7 2.9 10.4.8-3.3 1.6-6.5 2.4-9.5-2.9-.7-5.3-.9-5.3-.9zm-25.5-32.3s9.5-2.9 18.5 1.3l1.3-3.1c-1-.4-2-.7-3-1.1-7.8-2.8-28-6.1-28-6.1l11.2 9z"/><path fill="#AA9FAD" d="M183.8 203c.2-3.2 1-7.9 1.9-12-4.5-.8-9.9-1.5-16.1-1.8v25.4h16.5v7.4h11.1l5.4-26.4s-1.8-.8-5.2-1.8c-.9 5.4-1.6 10.5-1.6 10.5l-12-1.3z"/><path fill="#5B1D30" d="M183.8 203l12.1 1.3s.6-5.2 1.6-10.5c.8-4.3 1.7-8.8 2.7-10.9l7.1-7 .7-2s-10.4-3.3-17.4-1.4l3 7.2-6.1 3.2s-.9 3.7-1.8 8.1c-.8 4.1-1.7 8.8-1.9 12z"/><path fill="#482036" d="M234 189c-2.4 5.7-4.5 12.8-4.5 12.8-1.1 0-2.2-.1-3.3-.2l-.5 1.6 2.9 1.4s-.3 2-1.2 4.3c2-2.5 3.9-5 5.8-7.7 1.9-4.5 3.8-8.2 4.9-10.2l-4.1-2zm-15.5 25.4c-.1 0-.2-.1-.3-.1-.5 1.9-.9 3.8-1.3 5.7 2-1.9 3.9-3.8 5.7-5.8-1.1.5-2.5.6-4.1.2z"/><path fill="#482036" d="M220.9 203.5c-.8 3-1.6 6.2-2.4 9.5.3.1.5.2.8.3 4.5 1.5 7.2-7.8 7.2-7.8-1.6-.9-3.7-1.5-5.6-2z"/><path fill="#5E455D" d="M209.9 168.6l-1.3 3.1c-8.9-4.2-18.5-1.3-18.5-1.3l-11.2-8.9-2.9-6.6c-7.8 15.1-29 23.3-31.2 24.1-.1 0-.2.1-.2.1l2.9 5.6c.1 0 .1-.1.2-.1 12.4-4.1 28.5-18.6 28.5-18.6 7 5.1 11.2 16.9 11.2 16.9l6.1-3.2-3-7.2c7-1.9 17.4 1.4 17.4 1.4l-.7 2 13.6 6.7c1.5-3.9 2.6-6.2 2.6-6.2 6.9 1.4 13.7 6.5 13.7 6.5-1 1.3-2.1 3.6-3.2 6.1l4 1.9 1.2.6c2-3.6 3.9-7.2 5.6-11-10.1-8.3-33.5-15.3-33.5-15.3l-1.3 3.4z"/><path fill="#854B60" d="M218.7 199.2l1.1-4.6c4-.2 7.9 2.3 7.9 2.3l-1.4 4.5c1.1.2 2.2.3 3.3.2 0 0 2.1-7 4.5-12.8 1.1-2.5 2.2-4.8 3.2-6.1 0 0-6.9-5.1-13.7-6.5 0 0-1.1 2.3-2.6 6.2-1.5 3.9-3.4 9.2-4.9 15.4-.1.1.9.7 2.6 1.4z"/><path fill="#AA9FAD" d="M225.7 203.1l.5-1.6 1.4-4.5s-4-2.6-7.9-2.3l-1.1 4.6-.3 1.5H215s-4.5 11.3 3.2 13.6c.1 0 .2.1.3.1 1.6.4 2.9.3 4.1-.2 1.6-1.8 3.2-3.6 4.7-5.5.9-2.2 1.2-4.3 1.2-4.3l-2.8-1.4zm-6.3 10.3c-.3-.1-.5-.2-.8-.3-3.8-1.7-4.4-5.4-2.9-10.4 0 0 2.4.2 5.3.9 1.9.4 4 1.1 5.6 2.1-.1-.1-2.8 9.2-7.2 7.7z"/></svg>