<svg xmlns="http://www.w3.org/2000/svg" width="256" height="256"><circle fill="#B1B3B5" cx="128" cy="128" r="128"/><path fill="#C08C76" d="M128 210.2v-8.8 8.8zm49.7-61.5c-6.2 18.7-49.7 28.1-49.7 28.1v24.6s7-.8 15.1-3.8c-.4-2.3-.2-4.5.9-6.1 3.5-4.8 10.5-10.2 15.3-15.3 4.8-5.1 17.7-13.7 22.4-33.2l.5-3.7c-.1-1.8-.4-3.8-.7-5.8-.9 4.9-2.1 10.1-3.8 15.2z"/><path fill="#5D4151" d="M143.1 197.6c-8.1 3-15.1 3.8-15.1 3.8v48.3l18.6-42.5c0-.1-2.8-5-3.5-9.6z"/><path fill="#637CA3" d="M175.6 171.2s6.3-24.4 6.6-30.2v-1.8l-.5 3.7c-4.7 19.5-17.6 28.1-22.4 33.2-4.8 5.1-11.8 10.5-15.3 15.3-1.1 1.6-1.3 3.8-.9 6.1.7 4.7 3.5 9.6 3.5 9.6s5.6 10.5 6.6 26.9c.6-1.9 1.3-3.7 1.9-5.6.6-7.5 1-18.3-.8-22.6-2.9-6.9-5.3-14.8-1.9-17s8.1-8.6 8.1-8.6 8.4 3.4 7.2 8.1c-1.1 4.2-5.7 11.9-5.6 20.5.7-1.7 1.3-3.2 1.8-4.4 3.6-8.3 8-21.5 11-31.3.3-.5.5-1.2.7-1.9z"/><path fill="#728BAF" d="M153.2 234.1c-1-16.4-6.6-26.9-6.6-26.9L128 249.6v6.4c6.2 0 12.3-.5 18.3-1.3 1.9-5.8 4.3-13.2 6.9-20.6z"/><path fill="#536681" d="M167.7 188.5c1.2-4.8-7.2-8.1-7.2-8.1s-4.8 6.5-8.1 8.6-1 10.1 1.9 17c1.8 4.3 1.4 15 .8 22.6 2.5-7.3 5-14.3 7.1-19.5-.2-8.8 4.4-16.4 5.5-20.6z"/><path fill="#C8C0C6" d="M173.5 207.1c-1.7-1.7-3.1-3.6-3.6-5.1-1.3-3.2 1.9-14.4 2.6-18.8.2-1.5 1.2-5.3 2.6-9.9-3.1 9.8-7.4 23-11 31.3-.5 1.3-1.2 2.7-1.8 4.4-2 5.2-4.5 12.2-7.1 19.5-.6 1.8-1.3 3.7-1.9 5.6-2.5 7.5-5 14.8-6.9 20.6 7-1 13.8-2.6 20.4-4.6 1.2-13 3.4-30.5 6.7-43z"/><path fill="#90607C" d="M239.5 156.4c-8-4.5-15.6 2.2-22.4 10.4-6.7 8.2-22.4 31.7-24.3 33.6-1.9 1.9-9.9 8.9-13.1 9.8-1.8.5-4.2-1.1-6.3-3.2-3.3 12.5-5.6 30-6.9 43 40.9-12.9 73-45.9 84.6-87.4-4.5-3-8.5-5.1-11.6-6.7.1.4 0 .5 0 .5z"/><path fill="#702F45" d="M185.9 120.9c-.5.1-1.6-.1-2.9-.5 0 .4-.1.8-.1 1.3 3 2.2 7.1 7 5.4 15.9-2.6 13.4-12.7 33.7-12.7 33.7-.2.7-.4 1.4-.6 2-1.3 4.6-2.4 8.4-2.6 9.9-.6 4.5-3.8 15.6-2.6 18.8.6 1.4 2 3.4 3.6 5.1 2.1 2 4.5 3.6 6.3 3.2 3.2-.9 11.2-7.9 13.1-9.8 1.9-1.9 17.6-25.4 24.3-33.6 6.7-8.2 14.4-14.9 22.4-10.4 0 0 .1-.1.2-.3.4-1 1.4-4.2-2.1-7.1 0 0-7.7-10.8-22-10.8 0 0 1.3-17.2-8.9-17.2 0 0-4.9 1.7-5.7 7.4 0 0-6.2 2-8 0-1.6-1.8-1.2-7.1-4.3-10.2-1 1.4-2 2.5-2.8 2.6zm17.5 21.1s-4.2-3.7-5-6.1-3.1-5.1-4.3-5.3c0 0 7.4.8 10.2 3.5l.3-4.6-2.4-1.2s.5-4.5 2.7-3.6c2.2 1 1.3 15.8-.6 24.2-1.9 8.4-9.1 30.1-12.6 38.7-3.5 8.6-7.8 15.8-9.6 17.4s7-12.5 8.3-18.8c1.3-6.4.3-28.9.3-28.9s12.1-9.9 12.7-15.3z"/><path fill="#551E32" d="M190.4 186.2c-1.3 6.4-10.1 20.4-8.3 18.8s6.1-8.8 9.6-17.4c3.5-8.6 10.7-30.3 12.6-38.7 1.9-8.4 2.9-23.2.6-24.2-2.2-1-2.7 3.6-2.7 3.6l2.4 1.2-.3 4.6c-2.9-2.7-10.2-3.5-10.2-3.5 1.2.2 3.5 2.9 4.3 5.3s5 6.1 5 6.1c-.6 5.4-12.7 15.3-12.7 15.3s1 22.5-.3 28.9zm-9-52.7c.4 2 .6 4 .7 5.8v1.8c-.3 5.7-6.6 30.2-6.6 30.2s10.2-20.3 12.7-33.7c1.7-8.9-2.4-13.6-5.4-15.9-.2 3.6-.7 7.6-1.4 11.8z"/><path fill="#C08C76" d="M188.4 88c-.6 5.1-2.2 6.7-2.2 6.7v3.8s-2.2.3-1.6 4.3c.5 2.8-.5 6.7-1.1 8.7 0 2.5-.2 5.5-.4 8.8 1.4.4 2.5.6 2.9.5.8-.1 1.8-1.3 2.6-2.8 1-1.8 1.7-4.1 1.7-6.2 0-3.8.3-8.6.3-13.4 0-4.8 3.8-9.9 1.9-15.3-.9.2-3.6.7-4.1 4.9z"/><path fill="#D7A990" d="M128 36.2V170s26.3-2.8 34.9-21c0 0-8.7 24.2-34.9 24.2v3.6s43.5-9.4 49.7-28.1c1.7-5.1 2.9-10.3 3.7-15.3.7-4.2 1.2-8.1 1.5-11.8 0-.4.1-.9.1-1.3.2-3.3.4-6.3.4-8.8-.3.8-.5 1.4-.5 1.4s1.3-25.9-7.3-34.2l-1.6 5.7-3.5-8.3-1 1 .9 1.8-1.2-.7v3.1s-8.4-7.9-11.7-9.3c-3.4-1.4-11.7 1-14.8 0-3.1-1-1.7-4.1-1.7-4.1 8.1-1 16.3-3.1 20.4-1.9 1.1.3 2.5 1.3 3.8 2.5-2.3-7.2-5.4-16.4-7.6-21.4-.1.1-9.8-12.5-29.6-10.9zm0-7.2v7zm.6 6.5c-.4.3-.6.5-.6.5v.2s.2-.3.6-.7z"/><path fill="#4D3E3E" d="M141 68s-1.4 3.1 1.7 4.1c3.1 1 11.5-1.4 14.8 0 3.4 1.4 11.7 9.3 11.7 9.3v-3.1l1.2.7-.9-1.8-1.3 1.3s-1.3-4.3-3.1-9.9c-1.3-1.2-2.7-2.1-3.8-2.5-4-1.2-12.2.9-20.3 1.9z"/><path fill="#423434" d="M128.6 35.5c1.9-1.7 7.7-6.3 14.9-3.7 8.8 3.2 12.2 5.9 14 15.3 2.2 5 5.3 14.2 7.6 21.4 1.8 5.6 3.1 9.9 3.1 9.9l1.3-1.3 1-1 3.5 8.3 1.6-5.7c8.6 8.3 7.3 34.2 7.3 34.2s.2-.5.5-1.4c.6-2 1.6-5.9 1.1-8.7-.6-4 1.6-4.3 1.6-4.3v-3.8s1.6-1.6 2.2-6.7c.5-4.2 3.2-4.7 4.2-4.8h.3s2.6-16.3-2.2-35.1c-4.8-18.8-18.8-29.4-30.7-36.7-11.8-7.3-32 0-32 0V36c.1 0 .3-.2.7-.5z"/><path fill="#312525" d="M128 36.2c19.8-1.6 29.5 11 29.5 11-1.8-9.4-5.2-12.1-14-15.3-7.2-2.6-13 1.9-14.9 3.7-.4.3-.6.6-.6.6z"/><path fill="#BE9780" d="M162.9 149c-8.6 18.2-34.9 21-34.9 21v3.2c26.2-.1 34.9-24.2 34.9-24.2z"/><path fill="#B17D6B" d="M78.3 148.7c-1.7-5.1-2.9-10.3-3.7-15.3-.4 2-.6 4-.7 5.8l.5 3.7c4.7 19.5 17.6 28.1 22.4 33.2s11.8 10.5 15.3 15.3c1.1 1.6 1.3 3.8.9 6.1 8.1 3 15.1 3.8 15.1 3.8v-24.6c-.1.1-43.6-9.3-49.8-28zm49.7 61.5v-8.8 8.8z"/><path fill="#513847" d="M128 201.4s-7-.8-15.1-3.8c-.7 4.7-3.5 9.6-3.5 9.6l18.6 42.5v-48.3z"/><path fill="#536681" d="M112.9 197.6c.4-2.3.2-4.5-.9-6.1-3.5-4.8-10.5-10.2-15.3-15.3S79 162.4 74.3 143l-.5-3.7v1.8c.3 5.7 6.6 30.2 6.6 30.2.2.7.4 1.4.6 2 3.1 9.8 7.4 23 11.1 31.3.5 1.3 1.2 2.7 1.8 4.4.1-8.7-4.5-16.3-5.6-20.5-1.2-4.8 7.2-8.1 7.2-8.1s4.8 6.5 8.1 8.6 1 10.1-1.9 17c-1.8 4.3-1.4 15-.8 22.6.6 1.8 1.3 3.7 1.9 5.6 1-16.4 6.6-26.9 6.6-26.9s2.8-5.1 3.5-9.7z"/><path fill="#637CA3" d="M128 249.6l-18.6-42.5s-5.6 10.5-6.6 26.9c2.5 7.5 5 14.8 6.9 20.6 6 .9 12.1 1.3 18.3 1.3v-6.3z"/><path fill="#415269" d="M101.7 205.9c2.9-6.9 5.3-14.8 1.9-17s-8.1-8.6-8.1-8.6-8.4 3.4-7.2 8.1c1.1 4.2 5.7 11.9 5.6 20.5 2 5.2 4.5 12.2 7.1 19.5-.7-7.4-1.1-18.2.7-22.5z"/><path fill="#A39DA3" d="M102.8 234.1c-.6-1.9-1.3-3.7-1.9-5.6-2.5-7.3-5-14.3-7.1-19.5-.7-1.7-1.3-3.2-1.8-4.4-3.6-8.3-8-21.5-11.1-31.3 1.3 4.6 2.4 8.4 2.6 10 .6 4.5 3.8 15.6 2.6 18.8-.6 1.4-2 3.4-3.6 5.1 3.3 12.5 5.6 30 6.9 43 6.6 2.1 13.4 3.6 20.4 4.6-2-5.9-4.4-13.3-7-20.7z"/><path fill="#7A5069" d="M82.5 207.1c-2.1 2-4.5 3.6-6.3 3.2-3.2-.9-11.2-7.9-13.1-9.8-1.9-1.9-17.6-25.4-24.3-33.6-6.7-8.2-14.4-14.9-22.4-10.4 0 0-.1-.1-.2-.3-3.1 1.5-7.1 3.7-11.6 6.7 11.7 41.5 43.7 74.4 84.6 87.4-1.2-13.2-3.4-30.7-6.7-43.2z"/><path fill="#551E32" d="M38.9 166.8c6.7 8.2 22.4 31.7 24.3 33.6 1.9 1.9 9.9 8.9 13.1 9.8 1.8.5 4.2-1.1 6.3-3.2 1.7-1.7 3.1-3.6 3.6-5.1 1.3-3.2-1.9-14.4-2.6-18.8-.2-1.5-1.2-5.3-2.6-10-.2-.7-.4-1.3-.6-2 0 0-10.2-20.3-12.7-33.7-1.7-8.9 2.4-13.6 5.4-15.9 0-.4-.1-.9-.1-1.3-1.4.4-2.5.6-2.9.5-.8-.1-1.8-1.3-2.6-2.8-3.1 3-2.7 8.4-4.3 10.2-1.8 2-8 0-8 0-.8-5.7-5.7-7.4-5.7-7.4-10.2 0-8.9 17.2-8.9 17.2-14.4 0-22 10.8-22 10.8-3.4 2.9-2.5 6.1-2.1 7.1.1.2.2.3.2.3 7.8-4.2 15.5 2.5 22.2 10.7zm12.1-42c2.2-1 2.7 3.6 2.7 3.6l-2.4 1.2.3 4.6c2.9-2.7 10.2-3.5 10.2-3.5-1.2.2-3.5 2.9-4.3 5.3s-5 6.1-5 6.1c.6 5.4 12.7 15.3 12.7 15.3s-1 22.5.3 28.9c1.3 6.4 10.1 20.4 8.3 18.8-1.8-1.6-6.1-8.8-9.6-17.4-3.5-8.6-10.7-30.3-12.6-38.7-1.8-8.4-2.8-23.3-.6-24.2z"/><path fill="#3F0B20" d="M64.3 187.7c3.5 8.6 7.8 15.8 9.6 17.4 1.8 1.6-7-12.5-8.3-18.8-1.3-6.4-.3-28.9-.3-28.9s-12.1-9.9-12.7-15.3c0 0 4.2-3.7 5-6.1s3.1-5.1 4.3-5.3c0 0-7.4.8-10.2 3.5l-.3-4.6 2.4-1.2s-.5-4.5-2.7-3.6-1.3 15.8.6 24.2c1.9 8.3 9.1 30 12.6 38.7zm9.5-46.7v-1.8c.1-1.8.4-3.8.7-5.8-.7-4.2-1.2-8.1-1.5-11.8-3 2.2-7.1 7-5.4 15.9 2.6 13.4 12.7 33.7 12.7 33.7.1 0-6.2-24.4-6.5-30.2z"/><path fill="#B17D6B" d="M70.1 120.9c.5.1 1.6-.1 2.9-.5-.2-3.3-.4-6.3-.4-8.8-.6-2-1.6-5.9-1.1-8.7.6-4-1.6-4.3-1.6-4.3v-3.8s-1.6-1.6-2.2-6.7c-.5-4.2-3.2-4.7-4.2-4.8-1.9 5.4 1.9 10.5 1.9 15.3 0 4.8.3 9.6.3 13.4 0 2.1.8 4.4 1.7 6.2.9 1.5 1.9 2.6 2.7 2.7z"/><path fill="#C08C76" d="M128 29v7zm0 7.2V36s-.2-.2-.6-.5c.4.4.6.7.6.7zm-53.4 97.3c.8 5 2 10.2 3.7 15.3 6.2 18.7 49.7 28.1 49.7 28.1v-3.6c-26.2 0-34.9-24.2-34.9-24.2 8.6 18.2 34.9 21 34.9 21V36.2c-19.8-1.6-29.5 11-29.5 11-2.2 5-5.3 14.2-7.6 21.4 1.3-1.2 2.7-2.1 3.8-2.5 4.1-1.2 12.2 1 20.4 1.9 0 0 1.4 3.1-1.7 4.1-3.1 1-11.5-1.4-14.8 0-3.4 1.4-11.7 9.3-11.7 9.3v-3.1l-1.3.7.9-1.8-1-1-3.5 8.3-1.6-5.7c-8.6 8.3-7.3 34.2-7.3 34.2s-.2-.5-.5-1.4c0 2.5.2 5.5.4 8.8 0 .4.1.8.1 1.3.3 3.6.8 7.6 1.5 11.8z"/><path fill="#423434" d="M86.8 78.3v3.1s8.4-7.9 11.7-9.3c3.4-1.4 11.7 1 14.8 0 3.1-1 1.7-4.1 1.7-4.1-8.1-1-16.3-3.1-20.4-1.9-1.1.3-2.5 1.3-3.8 2.5-1.8 5.6-3.1 9.9-3.1 9.9l-1.3-1.3-.8 1.8 1.2-.7z"/><path fill="#312525" d="M67.6 88c.6 5.1 2.2 6.7 2.2 6.7v3.8s2.2.3 1.6 4.3c-.5 2.8.5 6.7 1.1 8.7.3.8.5 1.4.5 1.4S71.7 87 80.3 78.7l1.6 5.7 3.5-8.3 1 1 1.3 1.3s1.3-4.3 3.1-9.9c2.3-7.2 5.4-16.4 7.6-21.4 1.8-9.4 5.2-12.1 14-15.3 7.2-2.6 13 1.9 14.9 3.7.4.3.6.5.6.5V11.4s-20.2-7.3-32 0-25.7 17.9-30.5 36.7c-4.8 18.8-2.2 35.1-2.2 35.1h.3c.9.1 3.6.6 4.1 4.8z"/><path fill="#1A0D0D" d="M128 36.2l-.6-.6c-1.9-1.7-7.7-6.3-14.9-3.7-8.8 3.2-12.2 5.9-14 15.3 0 0 9.7-12.6 29.5-11z"/><path fill="#9E7F6C" d="M93.1 149s8.7 24.2 34.9 24.2V170c0-.1-26.3-2.8-34.9-21z"/></svg>