<svg xmlns="http://www.w3.org/2000/svg" width="256" height="256"><circle fill="#B1B3B5" cx="128" cy="128" r="128"/><path fill="#686554" d="M208 190.7s-1.4-2.1-3.2-4.7c1.1 1.7 2.2 3.5 3.1 5.1l.1-.4zm-23.2-28.5c-.2 6-1.1 23.2-4.6 27.7-4.3 5.5-.9 12.5-5.5 16.5l-4.6 4s7.9-.6 11-3.7c3.1-3.1 8.5-1.8 8.5-1.8s-1.7 3.2-3.3 6.5c.8-.3 1.4-.7 2-1 2.2-1.4 4.3-2.5 6.1-3.6 3.4-4.4 6.4-9 6.7-11.3.8-4.9-3.3-18.3-3.7-19.7-.5-.6-.9-1-1.2-1.3-2.3-1.6-1.4-6.6-.2-12.4.8-4-1.3-11-2.8-15-.3 4.1-.9 7.3-2.1 8.8-1.1 1.4-3.5 3.7-6.3 6.3z"/><path fill="#686554" d="M198.5 177c.7.9 1.6 2.1 2.7 3.6-1-1.3-1.9-2.5-2.7-3.6z"/><path fill="#424134" d="M201.2 195.5c-.4 2.3-3.3 6.8-6.7 11.3 7.4-4.3 11.7-6.9 12.6-11 .6-3.1.9-4.3 1-4.8-.9-1.6-2-3.3-3.1-5.1-1.2-1.9-2.5-3.7-3.7-5.3-1.1-1.5-2-2.7-2.7-3.6-.6-.8-1-1.4-1-1.4v.1c.3 1.4 4.4 14.9 3.6 19.8zm-20.1 11.2c-3.1 3.1-11 3.7-11 3.7l4.6-4c4.6-4 1.2-11 5.5-16.5 3.5-4.5 4.4-21.8 4.6-27.7-6.5 6-15.2 13.5-16.3 15.9-1.6 3.4-3 11.9-5 13.3-1 .7-3.3 2.4-5.4 4-.8 1.1-1.8 2.1-2.9 2.9 0 0-4.3 3.4-3-1.4 1.4-4.8 3.2-8 1.9-16-1.2-1.7-3.5-4.1-6.5-4.1-4.6 0-12.1 3.6-19.6 3.7v42.8c2.4-.3 44.6-5.7 58.3-11.9 1.6-3.3 3.3-6.5 3.3-6.5s-5.5-1.2-8.5 1.8z"/><path fill="#A4A497" d="M173.1 224.3l-11.5 10.5c-7.3 2-31.7 2.3-33.5 2.3v2.8c8.4 3.3 17.3 7.8 26.5 13.2 5.1-1.1 10.2-2.5 15.1-4.2l17.5-22.8c10.9-1.1 19.8-2.4 27.1-3.6 2-1.8 3.9-3.6 5.7-5.5-3.7-.5-6.1-.9-6.1-.9l-40.8 8.2z"/><path fill="#A4A497" d="M182.3 243.9c9.4-4.4 18.2-9.9 26.2-16.4-9.1 1.7-16.1 2.9-16.1 2.9l-10.1 13.5z"/><path fill="#717164" d="M187.1 226.2L169.6 249c4.3-1.5 8.5-3.2 12.6-5.1l10.1-13.4s7-1.2 16.1-2.9c2-1.6 3.9-3.3 5.8-5-7.2 1.3-16.2 2.6-27.1 3.6z"/><path fill="#595748" d="M198.2 44.6c-2.3 1.8-6.7 4.8-10.6 7.9-2.5 2.9-5.5 6.2-8.4 9.1-1.3 1.8-2.6 3.2-4.5 4.3-1.3 1.2-2.6 2.1-3.7 2.8-6.5 3.9-18.3 13.3-27.1 22.4 0 .2 0 .4-.1.6h.1c3.7.2 4.1-.5 6.6 1.1s6.9 5.3 9.2 5.7c2.3.5 28.4-8.5 31.6-11.9 0 0 2.1 8.9 0 11s-4.6 2.5-4.8 4.3c-.2 1.8-6.6 4.8-9.8 5-3.2.2-6.9 0-6.9 0s1.8 11.4 4.3 13 6.6 7.6 7.1 9.6c.5 2.1.9 7.8-1.8 10.5 0 0-6-11.2-9.2-15.1s-11-14.4-11-14.4-5.7-2.7-6.2-4.8-2.7-6.6-2.7-6.6-3.5-1.1-5.9 1.3-7.3 15.2-16.4 15.3v6.4c1.4-.1 15.7-.8 16.8-3.7 1.1-3 5.5-11.7 5.5-11.7s11 17.8 14.2 20.8c2 1.9 4 4.5 5.2 7.1l.3-1.8s3.2 1.4 3 5.7c-.2 3.1-1 5.9-4.4 7.7-2.1 5-5.1 10.5-5.9 11-1.4.8-11.7 2.1-11.7 3.7s2.5 3.9 4.6 3.9c2.1 0 5.5-5 7.8-5s3.7 4.8 3.4 5c-.2.2-1.5 7.1-2.8 10.2 0 0-.8 12.8-6 19.9 2-1.5 4.3-3.3 5.4-4 2.1-1.4 3.4-9.8 5-13.3 1.1-2.4 9.8-9.9 16.3-15.9 2.8-2.6 5.2-4.9 6.4-6.3 1.2-1.5 1.8-4.7 2.1-8.8.7-9.3-.5-22.7-1-28.3-.7-8 1.8-13 1.8-13s5.3-8.7 6.4-9.8-2.5-5.5-3.4-8.5c-.9-3 2.1-5.7 1.1-7.6-.9-1.8-2.3-5.5-2.3-8.7s5.5-12.1 8-15.1-1.4-25.9-1.4-25.9 0 11.7-4.2 14.9z"/><path fill="#76715F" d="M128 8.3zm.1 59.2V84c.8.2 5.3 1.2 9.1 1.6.8-2.1 7-17.6 16.4-24 7.8-5.3 13.5-22.6 15.8-34.7-3.7.4-12.6.9-17.6-2.7-6.4-4.6-10.7-15.8-23.7-15.9v59.2zm15.8 23.7l-.6.6h.6c-.1-.2 0-.4 0-.6zm-15.8 4.7c.8 0 6.3.2 10 .8.3-.5.6-1 1-1.5-1.5-2.1-6.4-8.3-11-8.5v9.2z"/><path fill="#999587" d="M153.6 61.6c-9.4 6.4-15.6 21.9-16.4 24 2.3.2 4.3.1 4.8-.7 1.5-2.1 2.7-7.9 5.2-9.2 2.4-1.2 18.6-13.4 20.5-17.6s9.2-17.9 9.2-17.9.8-18.7-4.1-23.9c-1.1.4-2.2 1.6-2.2 1.6-.1 2.2-.5 5.3-1.2 8.8-2.4 12.3-8 29.5-15.8 34.9z"/><path fill="#595748" d="M180.4 59.7c-.4.7-.8 1.3-1.2 1.9 2.9-2.9 5.8-6.2 8.4-9.1-3.2 2.6-6.1 5.2-7.2 7.2zm-3.6-19.4s-7.3 13.7-9.2 17.9-18 16.3-20.5 17.6c-2.4 1.2-3.7 7-5.2 9.2-.6.8-2.5.9-4.8.7-3.7-.3-8.3-1.4-9.1-1.6v2.7c4.5.1 9.5 6.3 11 8.5 1.1-1.6 2.6-3.1 4.2-3.4l.6-.6c8.8-9.1 20.6-18.5 27.1-22.4 1.1-.6 2.3-1.6 3.7-2.8-1.5.8-3.3 1.5-5.5 2C164 69.2 152.3 79 149 81.9c-.6.5-.9.8-.9.8s.3-.3.9-.8c4.4-3.9 24.5-21.3 28-25.6 3.9-4.8 6.9-15.9 7.6-16.4-2.2-5.3-3.9-18-5.2-19.8-1.5-2.1-6.6-3.7-6.6-3.7 4.8 5.2 4 23.9 4 23.9z"/><path fill="#999587" d="M177 56.3c-3.5 4.3-23.5 21.7-28 25.6 3.3-2.8 15-12.6 20.2-13.9 2.2-.5 4-1.2 5.5-2 1.9-1.1 3.3-2.4 4.5-4.3.4-.6.8-1.2 1.2-1.9 1.1-2.1 4-4.7 7.2-7.2 3.9-3.1 8.4-6.1 10.6-7.9 4.1-3.2 4.3-14.4 4.3-14.4-2.5-1.6-4.3 0-4.3 0-3 5.5-13 9.2-13.7 9.7-.7.4-3.7 11.5-7.5 16.3zm-28 25.6c-.6.5-.9.8-.9.8s.3-.3.9-.8z"/><path fill="#76715F" d="M128.1 158.5v21.9c7.5 0 15-3.7 19.6-3.7 3 0 5.3 2.4 6.5 4.1 0 0 3.7-10 9.9-5.4 1.3-3.1 2.6-10 2.8-10.2.2-.2-1.1-5-3.4-5s-5.7 5-7.8 5c-2.1 0-4.6-2.3-4.6-3.9s10.3-2.9 11.7-3.7c.8-.5 3.8-6.1 5.9-11-1.4.8-3.3 1.3-5.7 1.7 0 0 5.3-4.1 6.2-9.6.3-1.7.5-2.9.6-3.7-1.2-2.6-3.2-5.2-5.2-7.1-3.2-3-14.2-20.8-14.2-20.8s-4.3 8.7-5.5 11.7c-1.1 2.8-15.5 3.6-16.8 3.7v36zm23-14.5s8.2-6 8.9-9.4c.7-3.4-.7-6.4.9-6.7 1.6-.2 3.7 7.3 3.9 10.5.2 3.2-5.7 16.5-5.7 16.5l-4.3-5.5c0 .1-4.4-.6-3.7-5.4zm-11.2-7.3c1.4 3.2 6.2 11.7 6.2 11.7-.7 3.7-6 3-6 3s-3.4-4.3-3.4-6.5c0-2.3 3.2-8.2 3.2-8.2z"/><path fill="#76715F" d="M141.2 97.7c2.1 1.5 3 2.7 3.2 2.9 2.4-2.5 5.9-1.3 5.9-1.3s2.3 4.6 2.7 6.6 6.2 4.8 6.2 4.8 7.8 10.5 11 14.4 9.2 15.1 9.2 15.1c2.7-2.7 2.3-8.5 1.8-10.5-.5-2.1-4.6-8-7.1-9.6s-4.3-13-4.3-13 3.7.2 6.9 0 9.6-3.2 9.8-5c.2-1.8 2.7-2.3 4.8-4.3s0-11 0-11c-3.2 3.4-29.3 12.4-31.6 11.9-2.3-.5-6.6-4.1-9.2-5.7-2.5-1.6-3-.9-6.6-1.1h-.7c-1.6.3-3.1 1.8-4.2 3.4-.4.5-.7 1.1-1 1.5 1.5.2 2.7.5 3.2.9z"/><path fill="#999587" d="M141.2 97.7c-.6-.4-1.8-.7-3.2-1-3.7-.7-9.2-.8-10-.8V116c9.1-.1 16.4-15.3 16.4-15.3-.1-.2-1.1-1.5-3.2-3z"/><path fill="#86897D" d="M146.1 148.3s-4.8-8.5-6.2-11.7c0 0-3.2 6-3.2 8.1 0 2.2 3.4 6.5 3.4 6.5s5.3.8 6-2.9zm8.7 1.2l4.3 5.5s6-13.3 5.7-16.5c-.2-3.2-2.3-10.8-3.9-10.5-1.6.2-.2 3.2-.9 6.7-.7 3.4-8.9 9.4-8.9 9.4-.7 4.7 3.7 5.4 3.7 5.4zm8.2-1.2c2.4-.3 4.3-.9 5.7-1.7 3.4-1.8 4.2-4.7 4.4-7.7.2-4.3-3-5.7-3-5.7l-.3 1.8c-.1.8-.3 2-.6 3.7-.9 5.5-6.2 9.6-6.2 9.6zm-8.8 32.5c1.2 8-.6 11.2-1.9 16-1.4 4.8 3 1.4 3 1.4 1.1-.8 2-1.8 2.9-2.9 5.2-7.1 6-19.8 6-19.9-6.3-4.6-10 5.4-10 5.4z"/><path fill="#888A80" d="M128.1 256c9.1 0 17.9-1 26.5-2.8-9.2-5.4-18.1-9.9-26.5-13.2v16z"/><path fill="#545245" d="M172 221.9l-11.2 9.8s-21.8 2.7-32.8 2.7v2.7c1.8 0 26.2-.3 33.5-2.3l11.5-10.5 40.7-8.2s2.4.4 6.1.9c.9-.9 1.8-1.8 2.6-2.8-2.9-.5-5.8-1.2-8.7-1.9l-41.7 9.6z"/><path fill="#85806E" d="M218.2 195.1l-10.2-4.4-.1.3c-.1.5-.3 1.7-1 4.8-.8 4.1-5.1 6.6-12.6 11-1.8 1.1-3.9 2.3-6.1 3.6-.6.3-1.2.7-2 1-13.7 6.2-55.9 11.6-58.3 11.9v11.2c11 0 32.8-2.7 32.8-2.7l11.2-9.8 41.8-9.6c3 .7 5.9 1.4 8.7 1.9 3.4-3.7 6.6-7.7 9.5-11.8-6.8-2.2-11.7-3.8-11.7-3.8l-2-3.6z"/><path fill="#595748" d="M51.2 185.9c-1.8 2.7-3.2 4.7-3.2 4.7l.1.3c.9-1.5 2-3.2 3.1-5zm3.7-5.3c1.1-1.5 2-2.7 2.7-3.6-.8 1.1-1.7 2.3-2.7 3.6z"/><path fill="#595748" d="M54.9 195.5c.4 2.3 3.3 6.8 6.7 11.3 1.8 1.1 3.9 2.3 6.1 3.6.6.3 1.2.7 2 1-1.6-3.3-3.3-6.5-3.3-6.5s5.5-1.2 8.5 1.8c3.1 3.1 11 3.7 11 3.7l-4.6-4c-4.6-4-1.2-11-5.5-16.5-3.5-4.5-4.4-21.8-4.6-27.7-2.8-2.6-5.2-4.9-6.4-6.3-1.2-1.5-1.8-4.7-2.1-8.8-1.5 4-3.6 11.1-2.8 15 1.2 5.8 2.1 10.8-.2 12.4-.3.2-.7.7-1.2 1.3-.3 1.3-4.4 14.8-3.6 19.7z"/><path fill="#2D2D22" d="M128.1 218.9v-38.5c-7.6 0-15.1-3.7-19.7-3.7-3 0-5.3 2.4-6.5 4.1-1.2 8 .6 11.2 1.9 16 1.4 4.8-3 1.4-3 1.4-1.1-.8-2-1.8-2.9-2.9-2-1.5-4.3-3.3-5.4-4-2.1-1.4-3.4-9.8-5-13.3-1.1-2.4-9.8-9.9-16.3-15.9.2 6 1.1 23.2 4.6 27.7 4.3 5.5.9 12.5 5.5 16.5l4.6 4s-7.9-.6-11-3.7c-3.1-3.1-8.5-1.8-8.5-1.8s1.7 3.2 3.3 6.5c14.1 6.4 58.4 11.9 58.4 11.9v-4.3zM49 195.8c.8 4.1 5.1 6.6 12.6 11-3.4-4.4-6.4-9-6.7-11.3-.8-4.9 3.3-18.3 3.7-19.7v-.1s-.4.5-1 1.4c-.7.9-1.6 2.1-2.7 3.6-1.2 1.6-2.5 3.4-3.7 5.3-1.1 1.7-2.2 3.5-3.1 5.1.1.4.3 1.6.9 4.7z"/><path fill="#8F9085" d="M122.5 237.1c1.9.9 3.7 1.8 5.6 2.7v-2.6s-2.3-.1-5.6-.1z"/><path fill="#3D3D30" d="M71.3 162.2c6.5 6 15.2 13.5 16.3 15.9 1.6 3.4 3 11.9 5 13.3 1 .7 3.3 2.4 5.4 4-5.2-7.1-6-19.8-6-19.9-1.3-3.1-2.6-10-2.8-10.2-.2-.2 1.1-5 3.4-5s5.7 5 7.8 5c2.1 0 4.6-2.3 4.6-3.9s-10.3-2.9-11.7-3.7c-.8-.5-3.8-6.1-5.9-11-3.4-1.8-4.2-4.7-4.4-7.7-.2-4.3 3-5.7 3-5.7l.3 1.8c1.2-2.6 3.2-5.2 5.2-7.1 3.2-3 14.2-20.8 14.2-20.8s4.3 8.7 5.5 11.7c1.1 3 16.9 3.7 16.9 3.7v-6.4c-9.2 0-16.5-15.3-16.5-15.3-2.4-2.5-5.9-1.3-5.9-1.3s-2.3 4.6-2.7 6.6-6.2 4.8-6.2 4.8-7.8 10.5-11 14.4-9.2 15.1-9.2 15.1c-2.7-2.7-2.3-8.5-1.8-10.5s4.6-8 7.1-9.6 4.3-13 4.3-13-3.7.2-6.9 0-9.6-3.2-9.8-5c-.2-1.8-2.7-2.3-4.8-4.3s0-11 0-11C67.9 90.5 94 99.5 96.3 99c2.3-.5 6.6-4.1 9.2-5.7 2.5-1.6 3-.9 6.6-1.1h.1c0-.2 0-.4-.1-.6-8.8-9.1-20.6-18.5-27.1-22.4-1.1-.6-2.3-1.6-3.7-2.8-1.9-1.1-3.3-2.4-4.5-4.3-2.9-2.9-5.8-6.2-8.4-9.1-3.9-3.1-8.4-6.1-10.6-7.9-4.1-3.2-4.3-14.4-4.3-14.4s-3.9 22.9-1.4 25.9 8 11.9 8 15.1-1.4 6.9-2.3 8.7c-.9 1.8 2.1 4.6 1.1 7.6-.9 3-4.6 7.3-3.4 8.5s6.4 9.8 6.4 9.8 2.5 5 1.8 13c-.5 5.6-1.6 19-1 28.3.3 4.1.9 7.3 2.1 8.8 1.3.9 3.7 3.2 6.5 5.8z"/><path fill="#686554" d="M128.1 95.9v-9.1c-4.6 0-9.6 6.3-11.1 8.5.4.5.7 1.1 1 1.5 4-.8 10.1-.9 10.1-.9zm-25.6-34.3c9.4 6.4 15.6 21.9 16.4 24 4.1-.3 9.2-1.6 9.2-1.6V8.3h-.2c-13 .1-17.3 11.3-23.7 15.9-5 3.6-13.9 3.1-17.6 2.7C89 39 94.7 56.2 102.5 61.6zm9.7 29.6c0 .2 0 .4.1.6h.6c-.3-.2-.5-.4-.7-.6z"/><path fill="#76715F" d="M79.2 40.3s7.3 13.7 9.2 17.9 18 16.3 20.5 17.6c2.4 1.2 3.7 7 5.2 9.2.6.8 2.5.9 4.8.7-.8-2.1-7-17.6-16.4-24C94.7 56.2 89 39 86.7 26.8c-.7-3.5-1.1-6.5-1.2-8.8 0 0-1.1-1.3-2.2-1.6-4.8 5.2-4.1 23.9-4.1 23.9z"/><path fill="#3D3D30" d="M68.4 52.5c2.5 2.9 5.5 6.2 8.4 9.1-.4-.6-.8-1.2-1.2-1.9-1.1-2-4-4.6-7.2-7.2zm10.7 3.8c3.5 4.3 23.5 21.7 28 25.6.6.5.9.8.9.8s-.3-.3-.9-.8C103.7 79 92 69.2 86.9 68c-2.2-.5-4-1.2-5.5-2 1.3 1.2 2.6 2.1 3.7 2.8 6.5 3.9 18.3 13.3 27.1 22.4l.6.6c1.6.3 3.1 1.8 4.2 3.4 1.5-2.1 6.5-8.5 11.1-8.5V84s-5.1 1.2-9.2 1.6c-2.3.2-4.3.1-4.8-.7-1.5-2.1-2.7-7.9-5.2-9.2-2.4-1.2-18.6-13.4-20.5-17.6s-9.2-17.9-9.2-17.9-.8-18.7 4.1-23.9c0 0-5.1 1.6-6.6 3.7-1.3 1.8-3 14.5-5.2 19.8.7.6 3.7 11.7 7.6 16.5z"/><path fill="#76715F" d="M57.8 44.6c2.3 1.8 6.7 4.8 10.6 7.9 3.2 2.5 6.1 5.1 7.2 7.2.4.7.8 1.3 1.2 1.9 1.3 1.8 2.6 3.2 4.5 4.3 1.5.8 3.3 1.5 5.5 2 5.2 1.3 16.9 11.1 20.2 14-4.4-3.9-24.5-21.3-28-25.6-3.9-4.8-6.9-15.9-7.6-16.4-.7-.5-10.7-4.2-13.7-9.7 0 0-1.8-1.6-4.3 0 0 0 .3 11.2 4.4 14.4zM107 81.9c.6.5.9.8.9.8s-.3-.3-.9-.8z"/><path fill="#686554" d="M101.9 180.8c1.2-1.7 3.5-4.1 6.5-4.1 4.6 0 12.1 3.7 19.7 3.7v-58s-15.8-.7-16.9-3.7c-1.1-3-5.5-11.7-5.5-11.7s-11 17.8-14.2 20.8c-2 1.9-4 4.5-5.2 7.1.1.8.3 2 .6 3.7.9 5.5 6.2 9.6 6.2 9.6-2.4-.3-4.3-.9-5.7-1.7 2.1 5 5.1 10.5 5.9 11 1.4.8 11.7 2.1 11.7 3.7s-2.5 3.9-4.6 3.9c-2.1 0-5.5-5-7.8-5s-3.7 4.8-3.4 5c.2.2 1.5 7.1 2.8 10.2 6.1-4.5 9.9 5.5 9.9 5.5zm14.3-44.1s3.2 6 3.2 8.1c0 2.2-3.4 6.5-3.4 6.5s-5.3.7-6-3c0 0 4.8-8.4 6.2-11.6zm-25 1.8c.2-3.2 2.3-10.8 3.9-10.5 1.6.2.2 3.2.9 6.7.7 3.4 8.9 9.4 8.9 9.4.7 4.8-3.7 5.5-3.7 5.5l-4.3 5.5c0-.1-5.9-13.4-5.7-16.6z"/><path fill="#686554" d="M114.8 97.7c.6-.4 1.8-.7 3.2-1-.3-.5-.6-1-1-1.5-1.1-1.6-2.6-3.1-4.2-3.4h-.7c-3.7.2-4.1-.5-6.6 1.1s-6.9 5.3-9.2 5.7c-2.3.5-28.4-8.5-31.6-11.9 0 0-2.1 8.9 0 11s4.6 2.5 4.8 4.3c.2 1.8 6.6 4.8 9.8 5 3.2.2 6.9 0 6.9 0s-1.8 11.4-4.3 13-6.6 7.6-7.1 9.6-.9 7.8 1.8 10.5c0 0 6-11.2 9.2-15.1s11-14.4 11-14.4 5.7-2.7 6.2-4.8 2.7-6.6 2.7-6.6 3.5-1.1 5.9 1.3c.2 0 1.1-1.3 3.2-2.8z"/><path fill="#76715F" d="M128.1 103.8v-7.9s-6.1.1-10.1.8c-1.4.3-2.6.6-3.2 1-2.1 1.5-3 2.7-3.2 2.9s7.3 15.3 16.5 15.3v-12.1z"/><path fill="#7A7C71" d="M115.9 151.3s3.4-4.3 3.4-6.5-3.2-8.1-3.2-8.1c-1.4 3.2-6.2 11.7-6.2 11.7.8 3.6 6 2.9 6 2.9zm-14.6-1.8s4.3-.6 3.7-5.5c0 0-8.2-6-8.9-9.4-.7-3.4.7-6.4-.9-6.7-1.6-.2-3.7 7.3-3.9 10.5-.2 3.2 5.7 16.5 5.7 16.5l4.3-5.4zm-14.4-10.8c-.3-1.7-.5-2.9-.6-3.7l-.3-1.8s-3.2 1.4-3 5.7c.2 3.1 1 5.9 4.4 7.7 1.4.8 3.3 1.3 5.7 1.7 0 0-5.3-4.1-6.2-9.6zm13.9 59.5s4.3 3.4 3-1.4c-1.4-4.8-3.2-8-1.9-16 0 0-3.7-10-9.9-5.4 0 0 .8 12.8 6 19.9.8 1.2 1.8 2.2 2.8 2.9z"/><path fill="#3A382E" d="M115.7 233.8c2.3 1.1 4.6 2.1 6.8 3.2 3.3.1 5.6.1 5.6.1v-2.7c-3.4.1-7.9-.2-12.4-.6z"/><path fill="#615E50" d="M43.1 205.2c17.9 6.1 46.2 16.5 72.6 28.6 4.5.4 9 .6 12.4.6v-11.2s-44.3-5.5-58.4-11.9c-.8-.3-1.4-.7-2-1-2.2-1.4-4.3-2.5-6.1-3.6-7.4-4.3-11.7-6.9-12.6-11-.6-3.1-.9-4.3-1-4.8l-.1-.3-6 2.6c.3.7.7 1.3.9 2 1.5 3.3 1.8 6.6.3 10z"/><path fill="#707269" d="M45.4 220l-8.5-2.2c2 2 4 3.9 6.1 5.8l2.4-3.6z"/><path fill="#707269" d="M128.1 239.8c-1.8-.9-3.7-1.8-5.6-2.7-2.3-1.1-4.5-2.2-6.8-3.2-26.3-12.2-54.7-22.5-72.6-28.6-.7 1.6-1.8 3.1-3.3 4.8l17.7 5.2s-4.1 6.6-8.5 13.5l3.6 2.7 8.5-14.2 9.6 2.7-9.5 17.2c1.6 1 3.2 1.9 4.8 2.8l9.4-17.8 8.7 2.6-9.2 19.8c16.2 7.4 34.1 11.5 53.1 11.5h.1v-16.3z"/><path fill="#5B5E56" d="M57.4 215.2L39.8 210c-1.5 1.6-3.4 3.2-5.8 4.8.9 1 1.9 2 2.9 3l8.5 2.2-2.5 3.6c2 1.8 4 3.5 6.1 5.1 4.4-6.9 8.4-13.5 8.4-13.5z"/><path fill="#54574F" d="M39.8 210c1.5-1.6 2.6-3.2 3.3-4.8 1.5-3.4 1.2-6.7-.1-9.9-.3-.7-.6-1.3-.9-2-3.4-6.7-9.3-13.1-9.3-13.1-3.9 0-8.3.5-13 1.4 0 0 1.9 2 3.7 7.1 1.5 4.3 5.9 9.5 1.1 14.7 2.9 4 6.1 7.8 9.4 11.5 2.4-1.7 4.3-3.3 5.8-4.9z"/><path fill="#707269" d="M23.4 188.6c-1.8-5.1-3.7-7.1-3.7-7.1l-8.5-1.4h-.1c3.7 8.2 8.2 16 13.4 23.1 4.8-5.1.4-10.2-1.1-14.6z"/><path fill="#5B5E56" d="M70.7 220l-9.6-2.7-8.5 14.2c2.8 2 5.6 4 8.6 5.8l9.5-17.3zm13.4 4.7l-8.7-2.6L66 240c2.9 1.6 5.9 3.1 8.9 4.5l9.2-19.8z"/></svg>