<svg xmlns="http://www.w3.org/2000/svg" width="256" height="256"><circle fill="#B1B3B5" cx="128" cy="128" r="128"/><path fill="#963233" d="M223.6 180c-.7 2.1-3 4.5-6 6.7 6.9 2.5 11.6 4.2 11.6 4.2l-5.6 9h2.7l3.5-6.3 8.8-1.2c1.3-2.3 2.6-4.6 3.8-7-5.7-1.9-13.3-4-18.8-5.4.1 0 0 0 0 0z"/><path fill="#A47547" d="M226.3 200h7.6c1.7-2.4 3.2-5 4.7-7.5l-8.8 1.2-3.5 6.3z"/><path fill="#180F11" d="M151.2 246l-1.7 3.3c1.6 1.4 3.1 2.7 4.6 4 1.3-.3 2.5-.5 3.7-.8-2.3-2.1-4.5-4.3-6.6-6.5z"/><path fill="#C08C76" d="M141.9 206.6c7.6-5.7 16.7-12.6 22.8-17.6 3.2-2.6 5-5.1 5.9-7.4-.4-1.1-1-2.6-1.5-4.3-1.7-1-3.4-2.1-5.1-3.3-.5.2-1 .3-1.5.4-.7.1-1.4.2-2.1.4-.1 0-14.1 8.3-15.6 13.8-1.6 5.5-9.6 18.4-9.6 18.4 1.1-9.1 5.5-19.4 9.1-26.7-3-.3-6.2-1-8.1-1.6-2.9-.9-6.3 2.4-7.8 4.1v28.8c1.9-.7 7.1-2.1 13.5-5z"/><path fill="#B1816D" d="M144.7 188.5c1.6-5.5 15.6-13.8 15.6-13.8-3 .8-6 2.5-8.4 4.4-1.5 1.2-4.6 1.3-7.7 1-3.7 7.4-8 17.7-9.1 26.7 0 .1 8.1-12.7 9.6-18.3z"/><path fill="#BAAAA1" d="M198.6 170.2c-.7-7.3-9.2-13.7-12.5-20.9-1.1 1.1-1.9 1.8-1.9 1.8s-4.1 8.4-5.8 10.2c-1.8 1.8-9 8.4-9 8.4s-2.4 3.3-5.3 4.4c1.6 1.2 3.3 2.3 5.1 3.3a29 29 0 0 1-1.2-6c.1.1.3-.2.7-.2 4.6.7 14.7 3.8 25.3 7.3 2.7-2.5 4.8-5.3 4.6-8.3z"/><path fill="#180F11" d="M128.4 216.6v1.7h1zm10.4 23c3.7 3.5 7.2 6.8 10.6 9.8l1.7-3.3c-5.8-6.2-10.8-12.6-14.6-17.9-3.3 1.6-6.7 3.2-8.3 3.9v5.2l10.6 2.3zm29.7-68.5c-.4 0-.6.3-.7.2.2 2 .7 4.1 1.2 6 .5 1.7 1.1 3.3 1.5 4.3 2.3-5.9-1.7-10.1-2-10.5zm-40.1 40.5v5s6-4.4 13.5-10c-6.4 2.9-11.6 4.3-13.5 4.8v.2z"/><path fill="#512513" d="M129.4 218.3h-1v13.8c1.5-.7 5-2.3 8.3-3.9-2.8-3.9-4.9-7.2-6.1-9.2-.3.2-.5.3-.5.3l-.7-1z"/><path fill="#916C4D" d="M223.6 200l5.6-9s-4.7-1.8-11.6-4.2c-7.2 5.2-18.9 9.6-25.6 7.9-2.9-.7-5.5-1.7-7.7-2.7-14.6 17.5-34 25.6-34 25.6l4.8 10c5.5-.5 12.3-2.2 16.2-3.3 2.1-2.5 4.8-4.5 8.1-6 10.4-4.6 23.5-4.6 40.8-1.4 5-5.2 9.6-10.8 13.7-16.8h-10.3z"/><path fill="#916C4D" d="M169.4 227c-6.6 1.9-15.9 2.9-15.9 2.9l-6.1-13.3c14.1-4.6 28.4-18.7 34.9-25.7-3.7-1.9-5.8-3.7-5.8-3.7s10.8-3.5 17.3-8.8c-10.6-3.6-20.6-6.7-25.3-7.3 7.2 1.8 12.2 6.3 6.5 15.1-5.3 8.2-40 30.1-44.5 32.8 1.2 2 3.3 5.2 6.1 9.2 3.7 5.2 8.7 11.7 14.6 17.9 2.1 2.2 4.3 4.4 6.6 6.5 4.7-1.1 9.4-2.5 13.9-4.2-.3-.4-.6-.9-.8-1.3-4.8-7.3-4.7-14.5-1.5-20.1z"/><path fill="#B29072" d="M147.3 216.6l6.1 13.3s9.3-1 15.9-2.9c.5-1 1.2-1.9 1.9-2.8-3.9 1.1-10.7 2.8-16.2 3.3l-4.8-10s19.4-8.1 34-25.6c-.7-.3-1.4-.7-2.1-1-6.4 7-20.7 21.1-34.8 25.7z"/><path fill="#DAC6BA" d="M186 149.3c3.3 7.2 11.8 13.6 12.5 20.9.3 3-1.8 5.8-4.8 8.2-6.5 5.3-17.3 8.8-17.3 8.8s2.1 1.8 5.8 3.7c.6.3 1.3.7 2.1 1 2.2 1 4.8 2 7.7 2.7 6.7 1.7 18.4-2.7 25.6-7.9 3.1-2.2 5.3-4.6 6-6.7v-.1c2.3-7.1-.9-12.2-5.4-18.4-4.5-6.3-7.2-26.3-9-35.8-1.8-9.6-7.2-12.2-8.1-17.9-.5-3.3-4.7-7.2-8.1-10-.2 16.2-1.7 34.9-1.7 39.8.1 5.2-3.1 9.4-5.3 11.7z"/><path fill="#D7A990" d="M152 140.6c4.5 2.4 5.7-2.1 5.7-2.1s1.2-7.5-6.6-14c-6.7-5.7-19.4-6.9-22.7-7.1v21.7c6.4 0 19.3-.8 23.6 1.5zm-23.6-88c3.2.1 15.4.6 25.5 4.7 0 0-17.3-4.1-25.5-2.7V57c3.2.1 15.3.5 26.1 4l2-13-1 13.3c.3.1.7.2 1 .4 0 0-.4-.1-1-.2l-.7 9.1c1.2.1 2.6.2 4.1.5 10.7 1.8 7.5 10.4 7.5 10.4-1.5-4.5-10.2-8.1-14.6-6.9-4.5 1.2-12.2-3.6-12.2-3.6 4.5 1.2 7.3-.6 13.6-.5l1.4-9.2c-5.1-1-18.8-3.4-26.1-2.3v54.7c5-.3 5.1-3.6 5.1-3.6s12.2 2.7 17.6 5.7c5.4 3 23 14.6 23 14.6s3-12.8 4.5-20-1.2-26-2.1-31.9c-.9-6-7.8-28.1-10.7-31.9-3-3.9-12.2-14.3-28.4-16.7 0 0 .3-.1.8-.3-4.4-.7-8.2-1-9.7-1.1v24.1h-.2zm10.4 95.8c-3.3-3.8-8.5-4.2-10.4-4.2v9.5c5.5-.4 10.4-5.3 10.4-5.3z"/><path fill="#E8D1C5" d="M127.6 8.4h.4-.4zm.8 20.1c1.6.1 5.3.4 9.7 1.1 3.4-1.2 17-5.5 22.5-1.8 6.3 4.2 6.3 14.3 10.7 21.2 4.5 6.9 12.5 19.4 14 21.8 1.5 2.4-3 0-3 0l5.7 11.9-4.2-1.8 2.7 10.7s-2.1-2.1-2.1 0 3.6 26.3 3.6 26.3l-3 6s1.5 15.2 1.5 16.7-1.5 5.4-1.5 5.4-6.9-12.8-11-15.5c0 0-17.6-11.6-23-14.6-5.4-3-17.6-5.7-17.6-5.7s-.1 3.2-5.1 3.6v3.6c3.3.2 16 1.4 22.7 7.1 7.8 6.6 6.6 14 6.6 14s-1.2 4.5-5.7 2.1c-4.3-2.3-17.2-1.6-23.6-1.5v5.1c2 0 7.1.4 10.4 4.2 0 0-5 4.9-10.4 5.3v28.9c1.5-1.7 4.9-5 7.8-4.1 1.9.6 5 1.3 8.1 1.6 3.2.3 6.2.2 7.7-1 2.4-1.9 5.4-3.7 8.4-4.4.7-.2 1.4-.3 2.1-.4.5 0 1-.2 1.5-.4 2.9-1.1 5.3-4.4 5.3-4.4s7.2-6.6 9-8.4c1.8-1.8 5.8-10.2 5.8-10.2s.8-.7 1.9-1.8c2.2-2.3 5.4-6.5 5.4-11.6 0-4.9 1.6-23.6 1.7-39.8.1-9.4-.3-18-1.7-22.6-3.9-12.5-14.3-23.6-14.9-32.2-.6-8.7-5.1-23.3-21.2-28.4 0 0-12.8-1.2-14.6-3.3-1.7-2-1.6-2.9-12.2-3v20.3z"/><path fill="#BAAAA1" d="M165.7 46.6c3 3.9 9.9 26 10.7 31.9.9 6 3.6 24.8 2.1 31.9s-4.5 20-4.5 20c4.2 2.7 11 15.5 11 15.5s1.5-3.9 1.5-5.4-1.5-16.7-1.5-16.7l3-6s-3.6-24.2-3.6-26.3 2.1 0 2.1 0l-2.7-10.7 4.2 1.8-5.7-11.9s4.5 2.4 3 0-9.6-14.9-14-21.8c-4.5-6.9-4.5-17-10.7-21.2-5.5-3.6-19.1.7-22.5 1.8-.5.2-.8.3-.8.3 16.2 2.5 25.4 12.9 28.4 16.8z"/><path fill="#C08C76" d="M156.5 61.7c-.3-.1-.7-.2-1-.4v.1c.6.2 1 .3 1 .3zm-2-.4V61c-10.8-3.4-23-3.9-26.1-4v2c7.2-1.1 20.9 1.3 26.1 2.3zm-.6-4c-10.2-4-22.4-4.6-25.5-4.7v1.9c8.3-1.3 25.5 2.8 25.5 2.8z"/><path fill="#B29072" d="M170.5 181.6c-.9 2.3-2.6 4.8-5.9 7.4-6.1 4.9-15.2 11.9-22.8 17.6-7.5 5.6-13.5 10-13.5 10l1 1.6.6 1s.2-.1.5-.3c4.5-2.8 39.1-24.6 44.5-32.8 5.7-8.8.7-13.3-6.5-15.1.4.5 4.4 4.7 2.1 10.6z"/><path fill="#4F2E1A" d="M179.3 218.3c-3.2 1.4-6 3.5-8.1 6-.7.9-1.4 1.8-1.9 2.8-3.2 5.6-3.3 12.8 1.6 20-3.2-5.7-3.2-11.1-2.1-14.6 2.4-7.3 12.8-14.8 30.5-13.1 6.1.6 11.1 1.7 15.2 3.1 2-1.8 3.9-3.7 5.7-5.6-17.4-3.2-30.5-3.2-40.9 1.4z"/><path fill="#E1A464" d="M168.9 232.4c-1.1 3.4-1.1 8.9 2.1 14.6.3.4.5.9.8 1.3 1.9-.7 3.8-1.5 5.7-2.2-3-4.7-3.9-9.9-2.8-14.1 2.2-9 12.3-14.1 26.9-11.6 4.1.7 7.8 2.1 11 3.8.7-.6 1.3-1.2 2-1.8-4.1-1.4-9.1-2.5-15.2-3.1-17.7-1.6-28.2 5.8-30.5 13.1z"/><path fill="#EEB683" d="M174.6 232c-1 4.2-.2 9.4 2.8 14.1 12.9-5.4 24.7-12.8 35-21.9-3.2-1.8-6.8-3.1-11-3.8-14.5-2.5-24.5 2.6-26.8 11.6z"/><path fill="#DD9B61" d="M138.8 239.6l-10.4-2.3v16.5l-.4.6 1 1.6c8.6-.1 17-1 25.1-2.7-1.5-1.3-3.1-2.6-4.6-4-3.5-3-7-6.2-10.7-9.7z"/><path fill="#C08C76" d="M153.1 70.5c.5 0 1.1 0 1.7.1l.7-9.1v-.1l1-13.3-2 13v.3l-1.4 9.1z"/><path fill="#E8D1C5" d="M139.5 71.1s7.8 4.8 12.2 3.6c4.5-1.2 13.1 2.4 14.6 6.9 0 0 3.3-8.7-7.5-10.4-1.5-.3-2.8-.4-4.1-.5-.6 0-1.2-.1-1.7-.1-6.2-.2-9.1 1.7-13.5.5z"/><path fill="#802829" d="M29.7 200h2.7l-5.6-9s4.7-1.8 11.6-4.2c-3.1-2.2-5.3-4.6-6-6.7v-.1c-5.4 1.4-13 3.6-18.7 5.5 1.2 2.4 2.5 4.7 3.8 7l8.8 1.2 3.4 6.3z"/><path fill="#8C643B" d="M26.2 193.7l-8.8-1.2c1.5 2.6 3.1 5.1 4.7 7.5h7.6l-3.5-6.3z"/><path fill="#180F11" d="M104.8 246c-2.1 2.2-4.3 4.4-6.6 6.5 1.2.3 2.5.6 3.7.8 1.5-1.3 3.1-2.6 4.6-4l-1.7-3.3z"/><path fill="#B17D6B" d="M128.4 211.6v-28s-4.7-6.3-8.6-5.1c-1.9.6-5 1.3-8.1 1.6 3.7 7.4 8 17.7 9.1 26.7 0 0-8.1-12.8-9.6-18.4-1.6-5.5-15.6-13.8-15.6-13.8-.7-.2-1.4-.3-2.1-.4-.5 0-1-.2-1.5-.4-1.6 1.2-3.3 2.3-5.1 3.3-.5 1.7-1.1 3.3-1.5 4.3.9 2.3 2.6 4.8 5.9 7.4 6.1 4.9 15.2 11.9 22.8 17.6 8.1 3.8 14.3 5.2 14.3 5.2z"/><path fill="#9D6F5F" d="M111.3 188.5c1.6 5.5 9.6 18.4 9.6 18.4-1.1-9.1-5.5-19.4-9.1-26.7-3.2.3-6.2.2-7.7-1-2.4-1.9-5.4-3.7-8.4-4.4 0 0 14 8.2 15.6 13.7z"/><path fill="#A79891" d="M88.2 171.3c-.2 2-.7 4.1-1.2 6 1.7-1 3.4-2.1 5.1-3.3-2.9-1.1-5.3-4.4-5.3-4.4s-7.2-6.6-9-8.4C76 159.4 72 151 72 151s-.8-.7-1.9-1.8c-3.3 7.2-11.8 13.6-12.5 20.9-.3 3 1.8 5.8 4.8 8.2 10.6-3.6 20.6-6.7 25.3-7.3.2.1.4.4.5.3z"/><path fill="#180F11" d="M119.4 228.2c-3.7 5.2-8.7 11.7-14.6 17.9l1.7 3.3c3.4-3 7-6.3 10.6-9.8l11.2-2.5v-4.6c.1-.1-4.6-2.2-8.9-4.3zm9-11.6v-5s-6.2-1.4-14.3-5c7.5 5.6 13.5 10 13.5 10l-1 1.6h1.8v-1.6zm-40.2-45.3c-.1.1-.3-.2-.7-.2-.3.4-4.3 4.6-2 10.5.4-1.1 1-2.6 1.5-4.3.5-1.9 1-4 1.2-6z"/><path fill="#461C08" d="M128.4 232.4v-14.2h-1.8l-.6 1s-.2-.1-.5-.3c-1.2 2-3.3 5.2-6.1 9.2 4.3 2.2 9 4.3 9 4.3z"/><path fill="#846246" d="M76.7 218.3c3.2 1.4 6 3.5 8.1 6 3.9 1.1 10.7 2.8 16.2 3.3l4.8-10s-19.4-8.1-34-25.6c-2.2 1-4.8 2-7.7 2.7-6.7 1.7-18.4-2.7-25.6-7.9-6.9 2.5-11.6 4.2-11.6 4.2l5.6 9H22.2c4.1 6 8.7 11.6 13.7 16.8 17.3-3.1 30.4-3.1 40.8 1.5z"/><path fill="#846246" d="M104.8 246c5.8-6.2 10.8-12.6 14.6-17.9 2.8-3.9 4.9-7.2 6.1-9.2-4.5-2.8-39.1-24.6-44.5-32.8-5.7-8.8-.7-13.3 6.5-15.1-4.6.7-14.7 3.8-25.3 7.3 6.5 5.3 17.3 8.8 17.3 8.8s-2.1 1.8-5.8 3.7c6.5 7 20.9 21 34.9 25.7l-6.1 13.3s-9.3-1-15.9-2.9c3.2 5.6 3.3 12.8-1.6 20-.3.4-.5.9-.8 1.3 4.5 1.6 9.2 3 13.9 4.2 2.4-2 4.6-4.2 6.7-6.4z"/><path fill="#A38569" d="M105.7 217.5l-4.8 10c-5.5-.5-12.3-2.2-16.2-3.3.7.9 1.4 1.8 1.9 2.8 6.6 1.9 15.9 2.9 15.9 2.9l6.1-13.3c-14.1-4.6-28.4-18.7-34.9-25.7-.6.3-1.3.7-2.1 1 14.7 17.5 34.1 25.6 34.1 25.6z"/><path fill="#C6B4AA" d="M57.4 170.2c.7-7.3 9.2-13.7 12.5-20.9-2.2-2.3-5.4-6.5-5.4-11.6 0-4.9-1.6-23.6-1.7-39.8-3.5 2.8-7.6 6.7-8.1 10-.9 5.7-6.3 8.4-8.1 17.9-1.8 9.6-4.5 29.6-9 35.8-4.5 6.2-7.7 11.3-5.4 18.4v.1c.7 2.1 3 4.5 6 6.7 7.2 5.2 18.9 9.6 25.6 7.9 2.9-.7 5.5-1.7 7.7-2.7.7-.3 1.4-.7 2.1-1 3.7-1.9 5.8-3.7 5.8-3.7s-10.8-3.5-17.3-8.8c-2.8-2.5-4.9-5.3-4.7-8.3z"/><path fill="#C08C76" d="M128.4 59.1c-8.7-1.8-28.9 2.6-28.9 2.6 13-4.7 28.9-4.7 28.9-4.7v-2.4c-7.9-1.8-26.3 2.6-26.3 2.6 11.8-4.7 26.3-4.7 26.3-4.7v-24s-4.7.2-10.5 1.1c.5.2.8.3.8.3-16.1 2.4-25.4 12.8-28.4 16.7-3 3.9-9.9 26-10.7 31.9-.9 6-3.6 24.8-2.1 31.9s4.5 20 4.5 20 17.6-11.6 23-14.6 17.6-5.7 17.6-5.7.1 3.6 5.9 3.6V59.1zM122 77.3c-1.8 6.3-5.8 14.8-12.5 18.4s-11.6 4.7-17.2 3.6-9.6-6.7-8.1-18.1c1.6-11.4 1.6-12.8 1.6-12.8s21.9-3.6 32.2-2c0-.1 5.8 4.6 4 10.9zm6.4 66.9s-7.1-.6-11.2 4.2c0 0 5.5 5.4 11.2 5.4v-9.6zm0-26.8s-15.7.6-23.5 7.1-6.6 14-6.6 14 1.2 4.5 5.7 2.1 18.3-1.5 24.4-1.5v-21.7z"/><path fill="#DAC6BA" d="M70 149.3c1.1 1.1 1.9 1.8 1.9 1.8s4.1 8.4 5.8 10.2c1.8 1.8 9 8.4 9 8.4s2.4 3.3 5.3 4.4c.5.2 1 .3 1.5.4.7.1 1.4.2 2.1.4 3 .8 6 2.5 8.4 4.4 1.5 1.2 4.6 1.3 7.7 1 3-.3 6.2-1 8.1-1.6 3.9-1.2 8.6 5.1 8.6 5.1v-29.9c-5.8 0-11.2-5.4-11.2-5.4 4.2-4.8 11.2-4.2 11.2-4.2v-5.1c-6.1 0-19.9-.9-24.4 1.5s-5.7-2.1-5.7-2.1-1.2-7.5 6.6-14 23.5-7.2 23.5-7.2v-3.6c-5.8 0-5.9-3.6-5.9-3.6s-12.2 2.7-17.6 5.7-23 14.6-23 14.6c-4.2 2.7-11 15.5-11 15.5s-1.5-3.9-1.5-5.4 1.5-16.7 1.5-16.7l-3-6s3.6-24.2 3.6-26.3-2.1 0-2.1 0l2.7-10.7-4.2 1.8 5.7-11.9s-4.5 2.4-3 0 9.6-14.9 14-21.8c4.5-6.9 4.5-17 10.7-21.2 5.5-3.6 19.1.7 22.5 1.8 5.8-.9 10.5-1.1 10.5-1.1V8.4h-.8c-10.6 0-10.5.9-12.2 3-1.8 2.1-14.6 3.3-14.6 3.3-16.1 5-20.6 19.6-21.2 28.3-.6 8.7-11 19.7-14.9 32.2-1.4 4.6-1.8 13.2-1.7 22.6.2 16.2 1.7 34.9 1.7 39.8 0 5.2 3.2 9.4 5.4 11.7z"/><path fill="#A79891" d="M79.5 78.5c.9-6 7.8-28.1 10.7-31.9 3-3.9 12.2-14.3 28.4-16.7 0 0-.3-.1-.8-.3-3.4-1.2-17-5.5-22.5-1.8C89.1 32 89.1 42.1 84.6 49c-4.5 6.9-12.5 19.4-14 21.8-1.5 2.4 3 0 3 0l-5.7 11.9 4.2-1.8-2.7 10.7s2.1-2.1 2.1 0-3.6 26.3-3.6 26.3l3 6s-1.5 15.2-1.5 16.7 1.5 5.4 1.5 5.4 6.9-12.8 11-15.5c0 0-3-12.8-4.5-20s1.2-26 2.1-32z"/><path fill="#B17D6B" d="M128.4 57.1s-16 0-28.9 4.7c0 0 20.2-4.4 28.9-2.6v-2.1zm0-4.5s-14.5 0-26.3 4.7c0 0 18.4-4.4 26.3-2.6v-2.1z"/><path fill="#A38569" d="M126.6 218.3l1-1.6s-6-4.4-13.5-10c-7.6-5.7-16.7-12.6-22.8-17.6-3.2-2.6-5-5.1-5.9-7.4-2.3-5.9 1.7-10.1 2-10.5-7.2 1.8-12.2 6.3-6.5 15.1 5.3 8.2 40 30.1 44.5 32.8.3.2.5.3.5.3l.7-1.1z"/><path fill="#381B05" d="M87.1 232.4c1.1 3.4 1.1 8.9-2.1 14.6 4.8-7.2 4.8-14.4 1.6-20-.5-1-1.2-1.9-1.9-2.8-2.1-2.5-4.8-4.5-8.1-6-10.4-4.6-23.5-4.6-40.8-1.4 1.8 1.9 3.7 3.8 5.7 5.6 4.1-1.4 9.1-2.5 15.2-3.1 17.6-1.6 28.1 5.8 30.4 13.1z"/><path fill="#C69159" d="M87.1 232.4c-2.4-7.3-12.8-14.8-30.5-13.1-6.1.6-11.1 1.7-15.2 3.1.7.6 1.3 1.2 2 1.8 3.2-1.8 6.8-3.1 11-3.8C69 217.9 79 223.1 81.3 232c1 4.2.2 9.4-2.8 14.1 1.9.8 3.8 1.5 5.7 2.2.3-.4.6-.9.8-1.3 3.3-5.7 3.3-11.2 2.1-14.6z"/><path fill="#D0A175" d="M81.4 232c-2.2-9-12.3-14.1-26.9-11.6-4.1.7-7.8 2.1-11 3.8 10.3 9.1 22.1 16.5 35 21.9 3.1-4.8 3.9-9.9 2.9-14.1z"/><path fill="#BA8451" d="M128.4 253.8v-16.7l-11.2 2.5c-3.7 3.5-7.2 6.8-10.6 9.8-1.6 1.4-3.1 2.7-4.6 4 8.1 1.7 16.5 2.6 25.1 2.7l1-1.6.3-.7z"/><path fill="#EEB683" d="M118 66.3c-10.3-1.6-32.2 2-32.2 2s0 1.3-1.6 12.8c-1.6 11.4 2.5 17 8.1 18.1s10.5 0 17.2-3.6 10.7-12.1 12.5-18.4c1.8-6.2-4-10.9-4-10.9z"/></svg>