<svg xmlns="http://www.w3.org/2000/svg" width="256" height="256"><circle fill="#B1B3B5" cx="128" cy="128" r="128"/><path fill="#85372B" d="M140.2 222.6c-.7 7.6-2.1 22.2-2.7 29.4 1.3-1.7 2.8-3.5 4.3-5.3l3.5-23.3c-2 0-3.8-.4-5.1-.8zm-4 2.7c-1.2.9-2.5 1.3-3.7 1.5l-1 29.1c1 0 2.1-.1 3.1-.1l1.6-30.5zm60.7-26.6v3.3l-5.3-1.1v2.2h-8.5c-.8 4.9-7.7 1.8-7.7 1.8 0 8.7-8.8 4.9-8.8 4.9-.4 13.1-13 7.1-13 7.1-.4 1.8-1.1 3.1-2 4l-4.1 19.1c8.2-9.2 17.6-18.5 25.7-22.5 18.8-9.3 42.8.7 42.8.7 2.2-3.3 6.1-7.2 8.6-9.6-1.3-.8-2.6-1.5-4-2.1 0 0 .1-.3.4-.8-7.1-3.1-13.7-6.6-19.4-10.2l.1.2-4.8 3z"/><path fill="#D68E4B" d="M145.3 223.4l-3.5 23.3c1.8-2.1 3.7-4.4 5.6-6.6l4.1-19.1c-1.7 1.8-4 2.4-6.2 2.4zm-17.3 3.1V256h3.4l1-29.1c-2.4.2-4.4-.4-4.4-.4zm10.7-4.5c-.7 1.5-1.6 2.6-2.5 3.3l-1.6 30.5c.9-1.2 1.9-2.5 3-3.8.7-7.2 2-21.8 2.7-29.4-1-.3-1.6-.6-1.6-.6z"/><path fill="#847454" d="M132.4 226.8c1.2-.2 2.5-.6 3.7-1.5 1-.7 1.9-1.8 2.5-3.3 0 0 .6.3 1.5.5 1.2.4 3.1.8 5 .8 2.2 0 4.6-.6 6.2-2.4.9-1 1.6-2.3 2-4 0 0 12.6 6 13-7.1 0 0 8.8 3.8 8.8-4.9 0 0 6.9 3.1 7.7-1.8h-2.2s-15.7-10.4-19.9-13.4c-8.2 1.9-18.9 3.4-32.8 3.4v33.3c.1.1 2.1.7 4.5.4z"/><path fill="#94805E" d="M160.9 189.8c4.1 3 19.9 13.4 19.9 13.4h10.7V201l5.3 1.1v-3.3l4.7-2.9-.1-.2-1.4-5.1s-8.3-5.2-16.1-11.4c-.2.3-.4.5-.7.8-1.5 1.3-7.8 6.4-22.3 9.8z"/><path fill="#775B4B" d="M153.7 152.1c-7.1 3.8-12 6.2-17.3 7.4 9.5-1.3 24.7-4.2 32.3-10.3v-5.8c0-3 .1-5.8.3-8-3.9 6.9-9.1 13.4-15.3 16.7zm20.8-30.2c-.1.4-.2.9-.4 1.4.9.7 1.9 1.5 2.9 2.2 3.8 2.7 5.1-3.6 7.3-8.4 1.3-3 1.4-6 1.4-9.1-.9.1-1.8-.2-2.7-.9l.5-9.5s1.5-.8 3.2-.8c1-2.9 2-5.3.8-6.8-.8-.9-2.8-.6-4.9 0-.1.6-.3 1.2-.4 1.8-2.6 9.7-5.4 20.7-7.7 30.1z"/><path fill="#8C6C5A" d="M169.8 26.5l2.6 3c-.8-.9-1.7-1.9-2.6-3zm-7.9-7.1l2.7 2.1c-.9-.8-1.8-1.4-2.7-2.1zM174.5 32l4.8 6.3c-1.2-1.9-2.8-3.9-4.8-6.3zm1.1 30.7l8.5 11.5c.3-8.2.2-16.5 0-21.2-.2-5.4-1.1-9.2-4.9-14.7 2.4 8.1 1.1 20.5 1.1 20.5l3.7 3.8v5.3l-6-7c1-14.5-3.7-29-3.7-29-.6-.8-1.3-1.6-2.1-2.4-4.6-.2-10.2 1.2-10.2 1.2l-.5-11.4c-1-.7-2.1-1.4-3.2-2v3.8c-9.7.6-24 4.6-24 4.6v5.9c7.9-2.6 24.1-4.1 24.1-4.1l.2 3.2c-13.4 1.3-26.8 6-26.8 6v-27c-2.5-.1-4.1-.1-4.1-.1v32.7c14.8-7.7 41.1-9.5 41.1-9.5 6.8 10.1 6.8 29.9 6.8 29.9zm8.6 11.5l-.2 4.1c0-1.3.1-2.7.2-4.1z"/><path fill="#8C6C5A" d="M169.7 26.5c-.2-.2-.4-.5-.6-.7-1.4-1.6-2.9-3-4.4-4.2l.2 5.5 4.8-.6zm-35.1-4.9c12.4-4.2 23.9-4.3 24-4.3-4.4-2.6-9-4.3-13.3-5.5l-10.7 1.8v8zm19.1 130.5c6.2-3.3 11.5-9.8 15.3-16.6 2.4-4.2 4.2-8.5 5.2-12.2.1-.5.3-.9.4-1.4 2.3-9.5 5.1-20.4 7.7-30.2.1-.6.3-1.1.4-1.8.7-3.2 1.1-7.3 1.4-11.5l-11.3-12.7c1.4-11-5-29.7-5-29.7-20.8 0-39.6 10.7-39.6 10.7v77.8s1.5.3 2.9-1c2.1-1 4.8-.1 6.3 1.7 2.9 2.8 3.2 3.7 6.2 4.8 0 0-2.7 5.1-15.5 5.1v25.4s3.4-.2 8.4-.9c5.2-1.3 10.1-3.7 17.2-7.5zM141 71.8c2.7 1 11.7-1.6 15.2-1.8 3.5-.1 6.8 1.2 10.1 3.1s5.1 9.9 5.1 9.9c-.9-2.7-7-7.5-7-7.5-5.3-1.6-12.8.1-17.1.6-4.3.4-6.3-4.3-6.3-4.3z"/><path fill="#BEA378" d="M183.4 97.5l-.5 9.5c.9.8 1.8 1 2.7.9 1.5-.1 2.7-.9 2.7-.9l.6-9.5c-.7-.6-1.5-.8-2.3-.8-1.6 0-3.2.8-3.2.8z"/><path fill="#504B4B" d="M147.3 76.1c4.3-.4 11.8-2.2 17.1-.6 0 0 6.1 4.9 7 7.5 0 0-1.9-8-5.1-9.9s-6.6-3.3-10.1-3.1c-3.5.1-12.5 2.8-15.2 1.8 0 0 2 4.7 6.3 4.3z"/><path fill="#7C5F4F" d="M172.7 65.8L184 78.4v-.1l.2-4.1-8.5-11.5s0-19.8-6.6-29.9c0 0-26.2 1.8-41.1 9.5v4.4S146.8 36 167.6 36c0 .1 6.5 18.8 5.1 29.8zm-13.8-35.1l-.2-3.2s-16.2 1.5-24.1 4.1v-5.9s14.2-4 24-4.6v-3.8s-11.6.1-24 4.3v-8l10.7-1.8s-7.2-2.1-13.2-2.1v27s13.4-4.7 26.8-6zm13.5-1.2l-2.6-3-.1-.1-4.8.6-.2-5.5h-.1l-2.7-2.1-.2-.1.5 11.4s5.6-1.3 10.2-1.2z"/><path fill="#7C5F4F" d="M178.2 61l6 7v-5.3l-3.7-3.8s1.3-12.4-1.1-20.5l-4.8-6.3c-.1-.1 4.6 14.4 3.6 28.9z"/><path fill="#775B4B" d="M143.5 130c-3-1.1-3.3-2-6.2-4.8-1.5-1.8-4.2-2.7-6.3-1.7-1.4 1.3-2.9 1-2.9 1V135c12.7 0 15.4-5 15.4-5z"/><path fill="#BEA378" d="M183.3 179.9c.3-.3.5-.5.7-.8 1.2-1.9-.8-3.4-.8-3.4.9-4.2-2.6-4-2.6-4 1.9-4.2-2.1-4.7-2.1-4.7 1.7-5.1-1.5-6.6-1.5-6.6 1.9-3.9-2.1-5.2-2.1-5.2 1.3-3.8-1.7-4.7-1.7-4.7 2.5-4.7-4.1-7-4.5-7.1v5.8c-7.6 6.1-22.8 9-32.3 10.3-5 .7-8.4.9-8.4.9v1.8s29.8-1.3 43.1-9.6c.2-.1.4-.3.6-.4l.9-.6-.9.6c-.2.1-.4.3-.6.4-4.7 3-20.5 11.8-43.1 11.8v2.4s28.7-1.5 42.7-9.1c1.3-.8 2.3-1.4 2.7-1.6.1-.1.2-.1.3-.2 0 0-.1.1-.3.2-.8.6-1.7 1.1-2.7 1.6-6.2 3.6-21.9 11.3-42.7 11.3v3.7s31.2-.2 48-11.8c0 0-7.2 11.3-48 14v5.2s32.4-.7 49.5-12.2c0 0-8.7 11.8-49.5 14.4v3.3s31.2.1 51.6-13.2c0 0-10.8 12.8-51.6 15.4v1.6s26.9 1.5 54.3-12.5c0 0-13.5 12.1-54.3 14.7v1.5c14 0 24.7-1.4 32.8-3.4 14.6-3.3 20.9-8.4 22.5-9.8z"/><path fill="#847454" d="M171.1 152.6c-13.3 8.3-43.1 9.6-43.1 9.6v2.2c22.6 0 38.4-8.8 43.1-11.8zm.6-.4l.9-.6-.9.6zm-.6.4c.2-.1.4-.2.6-.4-.2.1-.4.2-.6.4zm-.4 5.1c1-.5 1.9-1.1 2.7-1.6-.4.2-1.3.8-2.7 1.6zm2.7-1.6c.2-.1.3-.2.3-.2-.1.1-.2.1-.3.2z"/><path fill="#847454" d="M170.7 157.7c-14 7.6-42.7 9.1-42.7 9.1v2.2c20.9 0 36.5-7.7 42.7-11.3zm5.3 3.2c-16.8 11.5-48 11.8-48 11.8v2.2c40.8-2.7 48-14 48-14zm1.5 7c-17.1 11.5-49.5 12.2-49.5 12.2v2.2c40.8-2.7 49.5-14.4 49.5-14.4z"/><path fill="#847454" d="M179.6 172.4c-20.4 13.3-51.6 13.2-51.6 13.2v2.2c40.8-2.6 51.6-15.4 51.6-15.4z"/><path fill="#847454" d="M182.3 177c-27.4 14.1-54.3 12.5-54.3 12.5v2.3c40.8-2.7 54.3-14.8 54.3-14.8z"/><path fill="#8F554B" d="M181.5 244.3c-3.3 1.1-6.6 2.5-9.7 4 3.3-1.2 6.5-2.5 9.7-4z"/><path fill="#63473C" d="M168.6 229.7c-7.9 5-16.9 15.4-24.4 25.3 9.5-1.2 18.8-3.5 27.5-6.7 3.2-1.5 6.4-2.9 9.7-4 9.7-4.5 18.8-10.1 27-16.8-4.1-1.5-24.1-7.8-39.8 2.2z"/><path fill="#63473C" d="M215.9 218.3s-24-10-42.8-.7c-8.1 4-17.5 13.2-25.7 22.5-2 2.2-3.8 4.4-5.6 6.6-1.5 1.9-3 3.6-4.3 5.3-1.1 1.3-2.1 2.6-3 3.8.4 0 .9-.1 1.3-.1 17.2-24.2 34.4-37.3 47.8-39 15.4-2 29.5 4.2 29.5 4.2l-2.9 5.1c5.8-4.9 11.2-10.3 16.1-16.2l-1.8-1.2c-2.5 2.5-6.4 6.4-8.6 9.7z"/><path fill="#543B31" d="M183.6 216.7c-13.4 1.7-30.6 14.8-47.8 39 2.8-.2 5.6-.4 8.4-.8 7.5-9.9 16.5-20.2 24.4-25.3 15.6-10 35.7-3.7 39.8-2.2l1.8-1.5 2.9-5.1c0 .1-14.1-6.1-29.5-4.1z"/><path fill="#BEA378" d="M220.9 205.8c-.3.5-.4.8-.4.8 1.4.6 2.7 1.3 4 2.1.6.4 1.3.8 1.8 1.2 3.2-3.9 6.2-7.9 9-12.2l-.9-.6c-8.1.3-12.2 6.5-13.5 8.7z"/><path fill="#6E2A1F" d="M110.7 223.4l3.5 23.3c1.5 1.9 3 3.6 4.3 5.3-.7-7.2-2-21.8-2.7-29.4-1.3.4-3.1.8-5.1.8zm9.1 1.9l1.6 30.5c1 .1 2.1.1 3.1.1l-1-29.1c-1.2-.1-2.5-.6-3.7-1.5zm-88.3-16.6c2.5 2.3 6.4 6.3 8.6 9.6 0 0 24-10 42.8-.7 8.1 4 17.5 13.2 25.7 22.5l-4.1-19.1c-.9-1-1.6-2.3-2-4 0 0-12.6 6-13-7.1 0 0-8.8 3.8-8.8-4.9 0 0-6.9 3.1-7.7-1.8h-8.5V201l-5.3 1.1v-3.3l-4.7-2.9.1-.2c-5.8 3.5-12.3 7.1-19.4 10.2.3.5.4.8.4.8-1.5.5-2.9 1.2-4.1 2z"/><path fill="#A56F38" d="M123.6 226.8l1 29.1h3.4v-29.5c0 .1-2 .7-4.4.4zm-19.1-5.8l4.1 19.1c2 2.2 3.8 4.4 5.6 6.6l-3.5-23.3c-2.2 0-4.5-.6-6.2-2.4zm12.8 1s-.6.3-1.5.5c.7 7.6 2.1 22.2 2.7 29.4 1.1 1.3 2.1 2.6 3 3.8l-1.6-30.5c-1-.6-1.9-1.6-2.6-3.2z"/><path fill="#64573D" d="M75.3 203.2h-2.2c.8 4.9 7.7 1.8 7.7 1.8 0 8.7 8.8 4.9 8.8 4.9.4 13.1 13 7.1 13 7.1.4 1.8 1.1 3.1 2 4 1.7 1.9 4 2.4 6.2 2.4 1.9 0 3.8-.4 5-.8l1.5-.5c.7 1.5 1.6 2.6 2.5 3.3 1.2.9 2.5 1.3 3.7 1.5 2.4.3 4.4-.3 4.4-.3v-33.3c-14 0-24.7-1.4-32.8-3.4-4.1 2.9-19.8 13.3-19.8 13.3z"/><path fill="#847454" d="M59.1 198.7v3.3l5.3-1.1v2.2h10.7s15.7-10.4 19.9-13.4c-14.6-3.5-20.9-8.5-22.5-10-.3-.3-.5-.5-.7-.8-7.7 6.2-16.1 11.4-16.1 11.4l-1.4 5.1-.1.2 4.9 3.1z"/><path fill="#60493B" d="M87.4 149.2c7.6 6.1 22.8 9 32.3 10.3-5.3-1.2-10.2-3.6-17.3-7.4-6.2-3.3-11.5-9.8-15.3-16.6.1 2.2.3 5 .3 8v5.7zM73.8 91.7c-.1-.6-.3-1.1-.4-1.8-2-.7-4.1-1-4.9 0-1.2 1.4-.2 3.9.8 6.8 1.7-.1 3.2.8 3.2.8l.5 9.5c-.9.8-1.8 1-2.7.9-.1 3.1.1 6.1 1.4 9.1 2.1 4.9 3.4 11.1 7.3 8.4 1-.7 2-1.4 2.9-2.2-.1-.5-.3-.9-.4-1.4-2.3-9.3-5.1-20.3-7.7-30.1z"/><path fill="#775B4B" d="M76.7 38.3l4.8-6.3c-2 2.4-3.6 4.4-4.8 6.3zM72 78.4l-.2-4.1c.1 1.3.2 2.7.2 4.1z"/><path fill="#775B4B" d="M86.9 32.9s26.2 1.8 41.1 9.5V9.6s-1.5-.1-4.1.1v27s-13.4-4.7-26.8-6l.2-3.2s16.2 1.5 24.1 4.1v-5.9s-14.2-4-24-4.6v-3.8c-1.1.6-2.1 1.3-3.2 2l-.5 11.4s-5.6-1.3-10.2-1.2c-.7.8-1.4 1.7-2.1 2.4 0 0-4.7 14.5-3.7 29l-6 7v-5.3l3.7-3.8s-1.3-12.4 1.1-20.5c-3.8 5.5-4.7 9.3-4.9 14.7-.2 4.7-.3 13.1 0 21.2l8.5-11.5c.3 0 .3-19.8 6.8-29.8z"/><path fill="#775B4B" d="M121.4 13.6l-10.7-1.8c-4.2 1.1-8.8 2.9-13.3 5.5 0 0 11.6.1 24 4.3v-8zm-30.1 7.9c-1.5 1.3-3 2.7-4.4 4.2-.2.2-.4.5-.6.7l4.8.6.2-5.5zm.1 0l2.7-2.1c-.9.7-1.8 1.3-2.7 2.1zm-7.8 8l2.6-3c-.9 1.1-1.8 2.1-2.6 3zm18.7 122.6c7.1 3.8 12 6.2 17.3 7.4 5 .7 8.4.9 8.4.9V135c-12.8 0-15.5-5.1-15.5-5.1 3-1.1 3.3-2 6.2-4.8 1.5-1.8 4.2-2.7 6.3-1.7 1.4 1.3 2.9 1 2.9 1V46.8s-18.8-10.7-39.6-10.7c0 0-6.5 18.7-5 29.7L72 78.4c.3 4.3.7 8.3 1.4 11.5.1.6.3 1.2.4 1.8 2.6 9.8 5.4 20.7 7.7 30.2.1.4.2.9.4 1.4 1 3.7 2.8 8 5.2 12.2 3.8 6.8 9 13.3 15.2 16.6zm-12.5-79c3.3-1.9 6.6-3.3 10.1-3.1 3.5.1 12.5 2.8 15.2 1.8 0 0-2 4.7-6.3 4.3-4.3-.4-11.8-2.2-17.1-.6 0 0-6.1 4.9-7 7.5-.1 0 1.8-8 5.1-9.9z"/><path fill="#BEA378" d="M73.1 107.1l-.5-9.5s-1.5-.8-3.2-.8c-.8 0-1.6.2-2.3.8l.6 9.5s1.2.8 2.7.9c.9 0 1.8-.2 2.7-.9z"/><path fill="#444040" d="M91.6 75.5c5.3-1.6 12.8.1 17.1.6 4.3.4 6.3-4.3 6.3-4.3-2.7 1-11.7-1.6-15.2-1.8-3.5-.1-6.8 1.2-10.1 3.1S84.6 83 84.6 83c.9-2.6 7-7.5 7-7.5z"/><path fill="#644C3E" d="M88.4 36.1c20.8 0 39.6 10.7 39.6 10.7v-4.4c-14.8-7.7-41.1-9.5-41.1-9.5-6.6 10.1-6.6 29.9-6.6 29.9l-8.5 11.5.2 4.1v.1l11.3-12.7c-1.4-11 5.1-29.7 5.1-29.7zm33-10.4v5.9c-7.9-2.6-24.1-4.1-24.1-4.1l-.2 3.2c13.4 1.3 26.8 6 26.8 6v-27c-6 .1-13.2 2.1-13.2 2.1l10.7 1.8v8c-12.4-4.2-23.9-4.3-24-4.3v3.8c9.8.6 24 4.6 24 4.6zm-27.6 5l.5-11.4-.2.1-2.7 2.1h-.1l-.2 5.5-4.8-.6-.1.1-2.6 3c4.6-.1 10.2 1.2 10.2 1.2z"/><path fill="#644C3E" d="M75.5 58.7l-3.7 3.8v5.3l6-7c-1-14.5 3.7-29 3.7-29l-4.8 6.3c-2.5 8.3-1.2 20.6-1.2 20.6z"/><path fill="#60493B" d="M125.1 123.5c-2.1-1-4.8-.1-6.3 1.7-2.9 2.8-3.2 3.7-6.2 4.8 0 0 2.7 5.1 15.5 5.1v-10.5c-.1-.1-1.6.2-3-1.1z"/><path fill="#94805E" d="M95.1 189.8c8.2 1.9 18.9 3.4 32.8 3.4v-1.5C87.2 189.1 73.7 177 73.7 177c27.4 14.1 54.3 12.5 54.3 12.5v-1.6c-40.8-2.7-51.6-15.4-51.6-15.4 20.4 13.3 51.6 13.2 51.6 13.2v-3.3C87.2 179.7 78.5 168 78.5 168c17.1 11.5 49.5 12.2 49.5 12.2V175c-40.8-2.7-48-14-48-14 16.8 11.5 48 11.8 48 11.8V169c-20.9 0-36.5-7.7-42.7-11.3-1-.5-1.9-1.1-2.7-1.6-.2-.1-.3-.2-.3-.2.1.1.2.1.3.2.4.3 1.3.9 2.7 1.6 14 7.6 42.7 9.1 42.7 9.1v-2.4c-22.6 0-38.4-8.8-43.1-11.8-.2-.1-.4-.2-.6-.4l-.9-.6.9.6c.2.1.4.2.6.4 13.3 8.3 43.1 9.6 43.1 9.6v-1.8s-3.4-.2-8.4-.9c-9.5-1.3-24.7-4.2-32.3-10.3v-5.8c-.4.1-6.9 2.4-4.5 7.1 0 0-3 .9-1.7 4.7 0 0-4.1 1.3-2.1 5.2 0 0-3.2 1.5-1.5 6.6 0 0-4.1.4-2.1 4.7 0 0-3.4-.2-2.6 4 0 0-2 1.5-.8 3.4.2.3.4.5.7.8 1.6 1.4 7.9 6.5 22.4 9.9z"/><path fill="#64573D" d="M84.3 152.2l-.9-.6.9.6zm.6.4c4.7 3 20.5 11.8 43.1 11.8v-2.2s-29.8-1.4-43.1-9.6zm0 0c-.2-.1-.4-.3-.6-.4.2.1.4.2.6.4zm-2.3 3.5c-.1-.1-.2-.1-.3-.2.1 0 .1.1.3.2zm2.7 1.6c-1.3-.8-2.3-1.4-2.7-1.6.8.6 1.7 1.1 2.7 1.6z"/><path fill="#64573D" d="M85.3 157.7c6.2 3.6 21.9 11.3 42.7 11.3v-2.2s-28.7-1.5-42.7-9.1zm42.7 17.2v-2.2s-31.2-.2-48-11.8c0 0 7.2 11.3 48 14zm0 7.4v-2.2s-32.4-.7-49.5-12.2c0 0 8.7 11.7 49.5 14.4z"/><path fill="#64573D" d="M128 187.9v-2.2s-31.2.1-51.6-13.2c0-.1 10.8 12.7 51.6 15.4z"/><path fill="#64573D" d="M73.7 177s13.5 12.1 54.3 14.7v-2.3c0 .1-26.9 1.7-54.3-12.4z"/><path fill="#75433B" d="M84.2 248.3c-3.2-1.5-6.4-2.9-9.7-4 3.2 1.5 6.4 2.8 9.7 4z"/><path fill="#543B31" d="M87.4 229.7c-15.6-10-35.7-3.7-39.8-2.2 8.2 6.7 17.3 12.3 27 16.8 3.3 1.1 6.6 2.5 9.7 4 8.8 3.2 18 5.5 27.5 6.7-7.5-9.9-16.6-20.3-24.4-25.3z"/><path fill="#543B31" d="M118.5 252c-1.3-1.7-2.8-3.5-4.3-5.3-1.8-2.1-3.7-4.4-5.6-6.6-8.2-9.2-17.6-18.5-25.7-22.5-18.8-9.3-42.8.7-42.8.7-2.2-3.3-6.1-7.2-8.6-9.6-.6.4-1.3.8-1.8 1.2 4.9 5.9 10.3 11.3 16.1 16.2l-2.9-5.1s14.1-6.2 29.5-4.2c13.4 1.7 30.6 14.8 47.8 39 .4 0 .9.1 1.3.1-1-1.3-1.9-2.6-3-3.9z"/><path fill="#3A251C" d="M72.4 216.7c-15.4-2-29.5 4.2-29.5 4.2l2.9 5.1 1.8 1.5c4.2-1.5 24.2-7.8 39.8 2.2 7.9 5 16.9 15.4 24.4 25.3 2.8.4 5.6.6 8.4.8-17.2-24.2-34.4-37.3-47.8-39.1z"/><path fill="#94805E" d="M35.5 206.6s-.1-.3-.4-.8c-1.2-2.2-5.4-8.5-13.6-8.7l-.9.6c2.8 4.2 5.8 8.3 9 12.2l1.8-1.2c1.3-.8 2.7-1.5 4.1-2.1z"/></svg>