<svg xmlns="http://www.w3.org/2000/svg" width="256" height="256"><circle fill="#B1B3B5" cx="128" cy="128" r="128"/><path fill="#B2AAB7" d="M164.6 224.2c-1.9-2-5.1-6.6-7.7-10.4-11.5 8.1-22.5 14.7-27.6 14.7V256c24.2-.2 46.7-7.2 65.9-19-5.9-2.1-13.8-5.3-20.1-8.1-5.7-2.2-9.7-3.9-10.5-4.7z"/><path fill="#908A96" d="M129.3 228.5c-7.7 0-23.5-14.4-34.9-25.9-1.5 4.4-3.5 9.9-4.9 12.4-.6 1-4 3.7-9 7.2-6.3 5-14.6 11.2-19.9 14.5C80.1 249 103.2 256 128 256h1.3v-27.5z"/><path fill="#3A285B" d="M143.1 175.7l-4.2-4.7c-2.6 1.7-5.6 2.5-7.6 2.8l-2 1v8.5l6.7-.1 7.1-7.5zm-1.4-7.5l3.6 5.5 10.9-12.6-2-4.5.4-1.3c-4.9 4.9-10.6 9.7-12.9 12.9z"/><path fill="#3A285B" d="M168.5 131.9c-.3.8-.6 1.6-.9 2.3l2 16-31.9 36-8.3.1v4.6c6-2.5 13.8-7.5 16.4-9.9 3.4-3.1 18.4-18.9 18.4-18.9l-5.7 15.9 13.8-9.9c-.9-5.8 6.5-42.8 7.3-51.6.3-3.4-.2-11.9-.9-21.1l-7.4 38.8-2.8-2.3zm-39.2 42z"/><path fill="#B2AAB7" d="M157.9 127.9l-2.1 9.9 9-9.2-4.8-4.3zm-13.7 22.9l-3.8 15.5 1.3 1.9v-.1c2.2-3.2 7.9-8 12.8-12.9l4.8-18.3-15.1 13.9zm-14.9 23.1v-3.1 3.1zm9.1-3.6l-7 3.4c2-.3 5-1.1 7.6-2.8l-.6-.6zm28.7-39.6l.4 3.6c.3-.8.6-1.5.9-2.3l-1.3-1.3z"/><path fill="#B2AAB7" d="M141.7 150.1c.1-.6.4-1.2.9-1.6l8-7.1 3.6-11.8c-3 5.4-5.9 10.6-6.7 11.9-1.9 3-9.3-2.9-18.2-2.9v32.2c3.8-1.3 8.7-3.4 8.7-3.4l3.7-17.3z"/><path fill="#908A96" d="M154.7 119.2h.6c-.5-.3-1-.5-1.4-.8l.8.8zm-24.7-6.8c-.5.4-.7.6-.7.6v25.6c8.9 0 16.3 5.9 18.2 2.9.9-1.3 3.8-6.6 6.7-11.9l.5-1.6-1.7-5.8-8.5-7.6c-7.1-2.3-12.6-2.3-14.5-2.2z"/><path fill="#43495D" d="M156 92.4l6.9 7c.6-6.7 1.1-12 1.1-12-2.3 1.2-5.1 3-8 5zm-2.2 26c.5.2 1 .5 1.4.8l4.4-.1 1.3-2.1c.6-4.1 1.1-9.2 1.6-14.1l-9.1-8.9c-4.8 3.4-9.9 7.3-14.2 10.7l14.6 13.7zm-23.8-6c1.9-.1 7.3-.1 14.5 2.2l-8.2-7.4c-2.9 2.4-5.1 4.3-6.3 5.2z"/><path fill="#2A2F3F" d="M164 87.4s-.4 5.3-1.1 12l7.4 7.5-10.3 17.4 4.7 4.2 1.8-1.9.5 4 1.4 1.2 2.7 2.4 7.4-38.8c-1.1-14.3-2.8-30.2-2.8-30.2l-2.7-1.7s-11 .2-26.2 10.2c-2 1.1-3.9 2.2-5.8 3.5l15 15.2c2.9-2 5.7-3.8 8-5z"/><path fill="#2A2F3F" d="M135.5 101.3l3.8 3.6c4.3-3.4 9.3-7.3 14.2-10.7l-15.2-14.9c-2.1 1.5-4.2 3.1-6.2 4.8.4 2.8.9 5.3 1.6 6.5 2 3.7 1.8 10.7 1.8 10.7zm25.5 15.8l6-9.8-4.4-4.3c-.5 4.9-1 10-1.6 14.1zm-31.7-4.6v.6s.3-.2.7-.6c1.1-.9 3.4-2.8 6.4-5.2l-7.1-6.4v11.6z"/><path fill="#686255" d="M136.4 107.2l8.2 7.4 8.5 7.6 1.7 5.8-.5 1.6-3.6 11.8-8 7.1c-.5.4-.8 1-.9 1.6l-3.7 17.3s-4.9 2.1-8.7 3.4v3.9l2-1 7-3.4.5.6 4.2 4.7-7.1 7.4-6.7.1v3.2l8.3-.1 31.9-36-2-16-.4-3.6-.5-4-1.8 1.9-9 9.2 2.1-9.9 2.1-3.6 10.4-17.4-7.4-7.5-6.9-7-14.9-15.1c-.9.6-1.9 1.3-2.8 1.9L153.6 94l9.1 8.9 4.4 4.3-6 9.8-1.3 2.1-4.4.1h-.6l-.8-.8-14.5-13.6-3.8-3.6s.1-6.9-1.8-10.8c-.7-1.3-1.2-3.8-1.6-6.5-1 .8-1.9 1.6-2.8 2.5v14.3l6.9 6.5zm28 25.2l2.3 16.7-8 8.2-1-4.6 3.6-16.7 3.1-3.6zm-9.8 22.9l-.4 1.3 2 4.5-10.9 12.6-3.6-5.5-1.3-1.9 3.8-15.5 15.1-13.9-4.7 18.4z"/><path fill="#504D41" d="M157.6 152.8l1 4.6 8.1-8.2-2.3-16.8-3.2 3.7z"/><path fill="#2A1847" d="M127.3 173.7c-2-.3-5-1.1-7.6-2.8l-4.2 4.7 7.1 7.4 6.7.1v-8.5l-2-.9z"/><path fill="#2A1847" d="M89.6 168.7s8.8 20.3 12.2 22.5c3.4 2.2 17 2.1 22.8 1.3 1.3-.2 2.9-.7 4.7-1.5v-4.6l-8.3-.1-27.9-31.5c-1.3 4.9-2.5 9.7-3.5 13.9zm39.7 5.2v.8-.8z"/><path fill="#2A1847" d="M104 155.3l.4 1.3-2 4.5 10.9 12.6 3.6-5.5v-.1c-2.3-3.1-8-7.9-12.9-12.8z"/><path fill="#908A96" d="M104 155.3c4.9 4.9 10.6 9.8 12.8 12.9v.1l1.3-1.9-3.8-15.5L99.2 137l4.8 18.3z"/><path fill="#908A96" d="M129.3 148.7v-10.1c-8.9 0-16.3 5.9-18.2 2.9-.9-1.3-3.8-6.6-6.7-11.9l3.6 11.8 8 7.1c.5.4.8 1 .9 1.6l3.7 17.3s4.9 2.1 8.7 3.4v-22.1zm-26.5-10.9l-2.1-9.6c-.6 1.8-1.2 3.6-1.9 5.6l4 4zm26.5 33v3.1-3.1zm-9.1-.5l-.5.6c2.6 1.7 5.6 2.5 7.6 2.8l-7.1-3.4z"/><path fill="#77727C" d="M129.3 138.7V113s-.3-.2-.7-.6c-1.9-.1-7.3-.1-14.5 2.2l-8.5 7.6-1.7 5.8.5 1.6c3 5.4 5.9 10.6 6.7 11.9 1.9 3.1 9.3-2.8 18.2-2.8zM104.1 119l.6-.6c-.2.1-.3.2-.5.3 0 .1-.1.2-.1.3z"/><path fill="#323748" d="M128.5 112.4c-1.1-.9-3.4-2.8-6.4-5.2l-8.2 7.4c7.3-2.3 12.7-2.3 14.6-2.2zm-24.3 6.3c.2-.1.3-.2.5-.3l14.5-13.6c-1.3-1.1-2.8-2.2-4.2-3.3-5.7 7-8.8 12.2-8.8 12.2-1 .1-1.7-.3-2.2-.8l-1.4.5c.1.3.2.6.3.8 0 .1 0 .1.1.2l2.3 1.7c-.1 0-.4 1-1.1 2.6z"/><path fill="#202433" d="M123.1 101.3s-.1-6.8 1.8-10.6c-3.8 3.8-7.1 7.5-9.8 10.9 1.5 1.1 2.9 2.3 4.2 3.3l3.8-3.6zm5.4 11.1c.5.4.7.6.7.6v-12.2l-7.1 6.4c3.1 2.4 5.3 4.3 6.4 5.2z"/><path fill="#504D41" d="M124.8 90.7c-1.9 3.8-1.8 10.6-1.8 10.6l-3.8 3.6-14.5 13.6-.6.6c-.8 2.2-2.1 5.4-3.4 9.2l2.1 9.6-3.9-4c-.4 1.3-.8 2.5-1.2 3.8l3.3 15.2-1 4.6-6-6.1c-.3 1.2-.6 2.3-.9 3.5l27.9 31.5 8.3.1v-3.2l-6.7-.1-7.1-7.4 4.2-4.7.5-.6 7 3.4 2 1V171c-3.8-1.3-8.7-3.4-8.7-3.4l-3.7-17.3c-.1-.6-.4-1.2-.9-1.6l-8-7.1-3.6-11.8-.5-1.6 1.7-5.8 8.5-7.6 8.2-7.4 7.1-6.4V86.4c-1.6 1.4-3.1 2.9-4.5 4.3zm-10.4 60.1l3.8 15.5-1.3 1.9-3.6 5.5-10.9-12.6 2-4.5-.4-1.3-4.8-18.3 15.2 13.8z"/><path fill="#3C3930" d="M96.1 143.1c-.7 2.6-1.4 5.4-2.1 8.2l6 6.1 1-4.6-3.3-15.2c-.6 1.9-1.1 3.7-1.6 5.5z"/><path fill="#282934" d="M129.3 211.7v-13.9c-3.3 2-6.4 3.6-8.8 4.4 0 0-10.5-4.6-13.7-4.6s-5.7 0-8.1-3.6c-2.4-3.6-10.5-18.2-9.1-25.4-.8 3.6-1.4 6.7-1.6 8.8-.2 2.4-.4 4.8-.7 6.9 4.3 3.8 9.8 9.4 9.1 12.1-.3 1.3-1.1 3.6-2 6.1 0 .1-.1.2-.1.2 11.4 11.5 27.3 25.9 34.9 25.9v-16.9zm-39.7-43z"/><path fill="#32333F" d="M164.1 162.2s-6.7 9.5-13.6 18.2c-4.8 6-13.6 12.8-21.1 17.4v30.7c5.1 0 16.1-6.7 27.6-14.7-.1-.2-.2-.4-.4-.5-1.5-2.2-2.9-4.2-3.5-5.4-2.1-3.9 9.3-19 9.3-19l16.7-10.2c-3.6-3.8-6.5-7.8-6.9-10.5l-13.8 9.9 5.7-15.9z"/><path fill="#61553F" d="M101.8 191.2c-3.3-2.2-12.2-22.5-12.2-22.5-1.4 7.2 6.7 21.8 9.1 25.4 2.4 3.6 5 3.6 8.1 3.6s13.7 4.6 13.7 4.6c2.4-.9 5.5-2.4 8.8-4.4V191c-1.8.7-3.4 1.3-4.7 1.5-5.8.8-19.4.8-22.8-1.3z"/><path fill="#6F6249" d="M129.3 197.8c7.6-4.6 16.3-11.4 21.1-17.4 6.9-8.6 13.6-18.2 13.6-18.2s-15 15.8-18.3 18.9c-2.6 2.4-10.3 7.4-16.4 9.9v6.8z"/><path fill="#2C2D33" d="M89.5 215s-3.9 3.2-9 7.2c5-3.5 8.4-6.2 9-7.2zm2.1-17.9s-3.6-3.8-6.6-7.3c-.5.3-1.1.5-1.9.5-4.4-.2-12.7-1.9-23.1-8l.2-.5c-.4.4-.7.8-1.1 1.2-5.3 6-16.3 18.9-19.9 21.6-1.3.9-5.5 2.6-10.5 4.4 7.6 9.3 16.5 17.5 26.4 24.4 15.8-9.7 31.4-19.7 31.4-19.7l5.1-16.6zM89.5 215c1.4-2.5 3.4-8 4.9-12.4 0-.1.1-.2.1-.2-2.2 5.7-5 12.6-5 12.6z"/><path fill="#514734" d="M89.5 215s2.9-6.9 5-12.6c.9-2.5 1.7-4.8 2-6.1.6-2.7-4.9-8.2-9.1-12.1-.4 2.5-1 4.6-2.3 5.4 3 3.6 6.6 7.3 6.6 7.3l-5 16.5s-15.6 10-31.4 19.7c1.7 1.2 3.5 2.4 5.3 3.5 5.3-3.3 13.5-9.6 19.9-14.5 5.1-3.9 9-7.1 9-7.1z"/><path fill="#3C3D44" d="M213.6 204.8c-4.9-.8-16.6-10.5-22.8-15.3-2.4-1.9-5.7-4.7-8.8-7.7 0 0-17.6 7.8-17.2 10.3.4 2.4-6.9 15.4-6.9 15.4l9 14.7s17 5.5 34.4 10.8c10.7-7.5 20.2-16.6 28.2-27-7.1-.5-13.8-.9-15.9-1.2zm-49 19.4c.8.8 4.8 2.5 10.6 4.7-6-2.6-10.6-4.7-10.6-4.7zm0 0s-4.5-6-8-10.9c.1.2.2.3.4.5 2.5 3.8 5.7 8.4 7.6 10.4z"/><path fill="#77684F" d="M157.9 207.4s7.3-13 6.9-15.4c-.4-2.4 17.2-10.2 17.2-10.3-1-1-2-2-2.9-3l-16.7 10.2s-11.4 15.1-9.3 19c.6 1.2 2 3.2 3.5 5.4 3.5 5 8 10.9 8 10.9s4.6 2.1 10.6 4.7c6.3 2.7 14.2 6 20.1 8.1 2.1-1.3 4.2-2.7 6.2-4.1-17.4-5.3-34.4-10.8-34.4-10.8l-9.2-14.7z"/><path fill="#12161C" d="M103.2 111s.6-.9 1.8-2.4L91.7 75l-16-13.1c-1.8-5.1 3.2-21.7 3.2-21.7-5.4 5.1-6.7 21.1-6.7 22s15.6 12.5 16.9 14.7c.1.2.3.7.7 1.5.3.8.7 1.8 1.2 2.9.3.8.6 1.7 1 2.6.9 2.3 1.9 5.1 3 8 .8 2.3 1.7 4.7 2.6 7.1 1.1 2.9 2.1 5.8 3 8.3.4 1 .7 1.9 1 2.8.3.9.6 1.7.8 2.4.1.4.2.7.4 1l1.4-.5c-.9-.9-1-2-1-2z"/><path fill="#1F2026" d="M74.5 127.1c.1-.7.1-1.3.2-1.9-.2-3.9-.4-5.8 0-2.9.1.7.1 1.7 0 2.9.3 5.2.5 14-.8 19.6-2.2 9.8-4.1 16.2-4.9 26.5-.4 3.1-3.4 4.9-7.6 9.1 2.5 1.3 15.1 7.5 19.8 5.8 3-1.6 2.9-7.6 4.3-15.3 1.4-7.7 9.9-44.7 16.4-57.3l.9.7c0-.1 0-.1-.1-.2-.1-.2-.2-.5-.3-.8-.1-.3-.2-.6-.4-1-.3-.7-.5-1.5-.8-2.4-.3-.9-.7-1.8-1-2.8-.9-2.5-1.9-5.4-3-8.3-.9-2.3-1.7-4.7-2.6-7.1-1.1-2.9-2.1-5.6-3-8-.4-.9-.7-1.8-1-2.6-.5-1.2-.8-2.2-1.2-2.9-.3-.8-.5-1.3-.7-1.5C87.4 74.5 71.8 63 71.8 62s1.3-16.9 6.7-22c0 0-5 16.7-3.2 21.7l16 13.1 13.3 33.7c3.6-4.8 12.5-16.1 24.4-27.5V8.9c-3.4-1-7.6-1.1-12.6.9-12.9 5.3-39.8 22-50.8 33.5-3.8 6.7-6.2 16.7-2.9 22 1.7 2.6 3 6.7 3.6 10.7 6.2 17.4 7.8 38.2 8.2 51.1z"/><path fill="#837357" d="M88 177.4c.2-2.1.8-5.1 1.6-8.8.9-4.1 2.2-9 3.5-13.9.3-1.2.6-2.3.9-3.5.7-2.8 1.5-5.6 2.1-8.2.5-1.8 1-3.7 1.6-5.5.4-1.3.8-2.6 1.2-3.8.6-1.9 1.2-3.8 1.9-5.6 1.3-3.7 2.5-7 3.4-9.2 0-.1.1-.2.1-.3.6-1.6 1-2.6 1-2.6l-2.3-1.7-.9-.7c-6.5 12.6-15 49.7-16.4 57.3-1.4 7.7-1.3 13.7-4.3 15.3-4.7 1.7-17.3-4.5-19.8-5.8l-1.2 1.2-.2.5c10.4 6.1 18.7 7.8 23.1 8 .7 0 1.4-.2 1.9-.5 1.4-.9 2-2.9 2.3-5.4.1-2 .3-4.4.5-6.8z"/><path fill="#313239" d="M205.8 152.5c-18.7-39.8-22-58-16.8-77.1 0 0 1.4-17.4.5-29.8 0 0-35.4-29.6-41.2-31.6-5.7-1.9-10.5 0-10.5 0s-3.1-3.6-8.5-5.2v72.4c1.8-1.7 3.6-3.4 5.5-5.1 18.7-16.6 42.1-16.9 42.1-16.9s2.9 21.7 3.7 29.7 3.7 23 .5 40.8c-3.2 17.8-3.4 38.4-3.4 38.4 2.7 6.1 9.7 13.7 16.3 19.6 6.5 5.9 17.1 11.3 22.4 13.7 2.5 1.1 9.2 1.4 15.6 1.3 1.6-2.2 3.1-4.4 4.5-6.7-8.9-8.3-20.7-22.1-30.7-43.5z"/><path fill="#837357" d="M104.9 108.6c-1.2 1.5-1.8 2.4-1.8 2.4s.2 1.1.9 1.9c.5.5 1.1.9 2.2.8 0 0 3.2-5.2 8.8-12.2 2.7-3.4 6-7.1 9.8-10.9 1.4-1.4 2.9-2.8 4.5-4.2v-5.3c-11.9 11.4-20.7 22.7-24.4 27.5z"/><path fill="#8D7C5E" d="M216.4 201.4c-5.3-2.4-15.8-7.8-22.4-13.7-6.5-5.9-13.6-13.6-16.3-19.6 0 0 .2-20.6 3.4-38.4 3.2-17.8.3-32.8-.5-40.8s-3.7-29.7-3.7-29.7-23.5.3-42.1 16.9c-1.9 1.7-3.7 3.4-5.5 5.1v5.3c.9-.8 1.9-1.7 2.8-2.5 2-1.6 4-3.2 6.2-4.8.9-.7 1.9-1.3 2.8-1.9 1.9-1.2 3.8-2.4 5.8-3.5 15.2-10.1 26.2-10.2 26.2-10.2l2.7 1.7s1.7 15.8 2.8 30.2c.7 9.1 1.2 17.7.9 21.1-.8 8.8-8.3 45.8-7.3 51.6.5 2.8 3.4 6.7 6.9 10.5.9 1 1.9 2 2.9 3 3.1 3 6.4 5.8 8.8 7.7 6.2 4.8 17.9 14.5 22.8 15.3 2.1.3 8.8.8 15.9 1.1.8-1 1.6-2.1 2.4-3.2-6.3.2-13-.1-15.5-1.2z"/><path fill="#12161C" d="M39.3 200c2.6-3.1 5.7-6.1 9.3-9.7 3.6-3.7 17-19.7 17-19.7s7.3-30.4 8.8-43.4c-.4-12.9-2-33.8-7.8-51.1 0 .1-3.6 21.2-4.4 26-.7 4.8 2.2 9.1 2 12.7-.1 3.6-.8 8.4-3.2 13.7-1.6 3.6-26.2 43.4-41.3 68.1 2.2 3.4 4.5 6.7 7 9.9 5.7-2.5 11.4-5.1 12.6-6.5z"/><path fill="#61553F" d="M39.3 204.5c3.6-2.6 14.6-15.6 19.9-21.6.4-.4.7-.8 1.1-1.2l1.2-1.2c4.1-4.2 7.2-6 7.6-9.1.7-10.3 2.6-16.8 4.9-26.5 1.3-5.6 1-14.4.8-19.6 0 .6-.1 1.2-.2 1.9-1.5 12.9-8.8 43.4-8.8 43.4s-13.4 16-17 19.7c-3.6 3.7-6.7 6.6-9.3 9.7-1.2 1.5-6.9 4.1-12.5 6.4.7.9 1.3 1.7 2 2.6 4.8-1.9 9.1-3.6 10.3-4.5zm35.4-82.2c-.4-2.9-.2-.9 0 2.9.1-1.2.1-2.2 0-2.9z"/></svg>