<svg xmlns="http://www.w3.org/2000/svg" xmlns:xlink="http://www.w3.org/1999/xlink" width="256" height="256"><circle fill="#B1B3B5" cx="128" cy="128" r="128"/><defs><circle id="a" cx="128" cy="128" r="128"/></defs><clipPath id="b"><use xlink:href="#a" overflow="visible"/></clipPath><g clip-path="url(#b)"><path fill="#C6C0C3" d="M169.7 163.6l-41.8 26.7v101.3h41.8l2.2-73.7z"/><path fill="#999699" d="M86.3 163.6l41.8 26.7v101.3H86.3l-2.2-73.7z"/><path fill="#9C7360" d="M81.5 93s-6.7-9.1-8.6-7.8c-1.9 1.3-4.3 2.6-2.7 5.3S72 97 72 102.6s0 12.9 3.5 18.7c3.5 5.7 4.3 6.4 11.3 7.3l7.7-20.9-13-14.7zm8 47.2s1.7 23.7-2.2 34l24.4 21.8H128v-47.2l-38.5-8.6z"/><path fill="#C08C76" d="M99.3 25.1S76.6 35.6 76.6 43.6s-1.3 28.7-1.3 28.7 3.2 27.1 5.1 39 2.6 19.8 4.2 27.8 6.2 18.3 14.4 25.5c8.6 7.7 13.7 11.5 29.1 11.5V16.8l-28.8 8.3z"/><path fill="#3E3126" d="M128.1 7.9v15.8s-7-1.4-13.1 1.8-12.1 1.4-18.2 4.6S85.4 39 81.5 49.7c-4 10.7-2.4 13.9-1.6 19.3s1.4 9.9 1.4 16-1.3 12.6-1.6 16c-.3 3.4 1.6 10.2 1.6 10.2s-3.7-3-3.7-10.1-.5-9.1-2.9-14.4c-2.4-5.3-1.4-9.4-1.4-14s-.6-8.8-1.6-12c-1-3.2-3-6.9 2.6-18.7 5.6-11.8 9.7-20 25.1-26s19.6-8.1 28.7-8.1z"/><path fill="#3E3126" d="M119.3 85s-.5 3.4-3.6 4.6-6-2.9-12.7-2.2-13.4 5.5-13.4 5.5.7-4.3 2.9-5.7c2.2-1.4 6.9-4.8 15.1-2.9s10.7.7 11.7.7z"/><path fill="#0D1318" d="M-4.8 213.3s-3.5-4-5.6 0c-2.1 4-4.9 9.5-5.1 23.2s-5.4 37.9-9.8 55.1h44.2L7.6 220.4l-12.4-7.1z"/><path fill="#1E2429" d="M120.9 218.4l-6.2 73.2h13.4v-73.2z"/><path fill="#1C2227" d="M85.9 169.9s-36.7 16.4-51 23C20.7 199.5-5 213-5 213s8.6 16.9 11.5 38.5c2.8 21.5 5.1 40.2 5.1 40.2H99L85.9 169.9z"/><path fill="#0D1318" d="M89.6 154.1l1.1 7.2-6.1 15.5s1.9 23.2 6.1 47.1c4.2 23.8 13.3 67.7 13.3 67.7H56.1l-19.4-50.5 19.9-13.5-16.1-8.3s13.6-31.9 28-44.5 14.2-18.6 21.1-20.7z"/><path fill="#161C20" d="M115.6 206.7l4.2 14.9s1.3 2.3 8.3 2.3V196l-9.4-3.2-3.1 13.9z"/><path fill="#C6C0C3" d="M90.2 157.6s.2 11.8 11.5 20.4c12.4 9.4 26.2 18.1 26.2 18.1s-10.9 12.9-14.2 20-8.8 14.9-9.9 25c0 0-13.9-30.1-17.1-41.8-3.2-11.6-6.2-27.7 0-33.2 0 .1 0-7.4 3.5-8.5z"/><path fill="#C08C76" d="M174.5 93s6.7-9.1 8.6-7.8c1.9 1.3 4.3 2.6 2.7 5.3S184 97 184 102.6s0 12.9-3.5 18.7c-3.5 5.7-4.3 6.4-11.3 7.3l-7.7-20.9 13-14.7zm-8 48.3s-1.7 23.7 2.2 34l-24.4 21.8H128v-47.2l38.5-8.6z"/><path fill="#D7A990" d="M156.7 25.1s22.7 10.5 22.7 18.5 1.3 28.7 1.3 28.7-3.2 27.1-5.1 39c-1.9 11.8-2.6 19.8-4.2 27.8s-6.2 18.3-14.4 25.5c-8.6 7.7-13.7 11.5-29.1 11.5V16.8l28.8 8.3z"/><path fill="#3E3126" d="M136.7 85s.5 3.4 3.6 4.6c3.1 1.2 6-2.9 12.7-2.2 6.7.7 13.4 5.5 13.4 5.5s-.7-4.3-2.9-5.7c-2.2-1.4-6.9-4.8-15.1-2.9-8.1 1.9-10.7.7-11.7.7z"/><path fill="#1B2025" d="M260.8 213.3s3.5-4 5.6 0c2.1 4 4.9 9.5 5.1 23.2.2 13.8 5.4 37.9 9.8 55.1h-44.2l11.2-71.2 12.5-7.1z"/><path fill="#2C3238" d="M135.1 218.4l6.2 73.2h-13.4v-73.2z"/><path fill="#242A2F" d="M170.1 169.9s36.7 16.4 51 23c14.3 6.6 40 20.1 40 20.1s-8.6 16.9-11.5 38.5c-2.8 21.5-5.1 40.2-5.1 40.2H157l13.1-121.8z"/><path fill="#1B2025" d="M166.4 154.1l-1.1 7.2 6.1 15.5s-1.9 23.2-6.1 47.1-13.3 67.7-13.3 67.7h47.9l19.4-50.5-19.9-13.5 16.1-8.3s-13.6-31.9-28-44.5c-14.5-12.6-14.2-18.6-21.1-20.7z"/><path fill="#1E2429" d="M140.4 206.7l-4.2 14.9s-1.3 2.3-8.3 2.3V196l9.4-3.2 3.1 13.9z"/><path fill="#F4F3F7" d="M165.8 157.6s-.2 11.8-11.5 20.4c-12.4 9.4-26.2 18.1-26.2 18.1s10.9 12.9 14.1 20.1c3.2 7.2 8.8 14.9 9.9 25 0 0 13.9-30.1 17.1-41.8 3.2-11.6 6.2-27.7 0-33.2.1 0 .1-7.5-3.4-8.6z"/><path fill="#3E3126" d="M127.9 7.9v15.8s12.1-.7 17.6.2c6.8 1.2 9.5 1.6 15.6 4.8 6.1 3.2 9.4 10.3 13.4 21s2.4 13.9 1.6 19.3-1.4 9.9-1.4 16 1.3 12.6 1.6 16c.3 3.4-1.6 10.2-1.6 10.2s3.7-3 3.7-10.1 1.9-8.2 4.3-13.5 2.2-10.7 2.2-15.3-.2-10.5.7-13.7c1-3.2-.3-8.9-4.6-17-5.5-10.7-11.1-16.2-25.6-23.9-6.7-3.6-13.9-9.3-27.5-9.8z"/></g><path fill="#242A2F" d="M177.5 108.2s-2.9 5.6 1.6 10.6l5.2-.4s2-3.3 1.6-6.5c-.4-3.2-3.2-4.9-3.2-4.9l-5.2 1.2z"/><path fill="#3D4349" d="M172.7 115s-.9 1.8 1 2.2l10.7-3.5s.9-1.4-.5-2.3l-11.2 3.6z"/></svg>