<svg xmlns="http://www.w3.org/2000/svg" width="256" height="256"><circle fill="#B1B3B5" cx="128" cy="128" r="128"/><path fill="#C08C76" d="M174.7 156l-3-12.5c-1.3 2.7-3.2 6.8-3.5 8-.5 1.9-3.8 6.9-4 8.1-.2 1.3-1.4 1.3-1.8 3.4-.3 2.1-1 2.9-1 2.9l.6-.8-3.5 6.5-.3-1.4-3.4 5.4-.6 1-3.8 3.5h-1.6L145 183l-.3-1.4-4.7 1.4-1.6-.8-2.1 2.4h-1.4l-1.6.8-1-1.1-4.3 1.8v11.2c38-.1 46.7-41.3 46.7-41.3zM185 99.5v-1.7c-.1.9-.1 1.5 0 1.7zm1.1 6.6s-1.2-.7-2.1-1.3c.7 1.5 1.3 4.1 1.3 4.1s-.4-1.4-2.6-2.7c-.5.1-1.1 1.1-1.7 2.6l-2 7.2c-.7 2.9-1.4 5.9-1.7 7.8 0 .5-.1.9-.2 1.3-.2 1.6-.4 3-.6 4.4 6.8 1.8 7.1-4 7.4-10.5.3-6.7 3.5-8.3 2.9-21.3-.6.6-1.1 1.2-1.7 1.9.9 1.4 1 6.5 1 6.5zm-8.8 16.4c-.1.6-.1 1.3-.2 1.9 0-.2.1-.3.1-.5.1-.5.1-.9.1-1.4z"/><path fill="#D7A990" d="M136.5 139.5l5.4 2.4-1.1-1.2 6.1 2.6 3.4 2.9-.6-1.9s3.2 1 3.2 1.9c0 1 .2 7 1.4 8.3l3.8 3.8s9.7-9.3 11.7-12c1.1-1.5 2-3 2.6-4l3.7-9.4c.2-1 .4-2.2.5-3.5.2-1.3.4-2.8.6-4.4-.3 1.5-.2.9.1-.8.1-.6.1-1.2.2-1.9.3-7.6-1.8-23-3.3-28.9-1.3-5.2-1.7-17.4-2-24.4-5-4.8-11.9-8.9-21.5-11.5h-19.2c-2.1 1-3.4 1.7-3.4 1.7v81.3c-.1.2 7.1.7 8.4-1zm4.8-49.4c2.7-1.8 0 .8 0 .8s3.5-1.6 5.7-1.4c2.2.1 8.1 0 11.7 0 3.5 0 6.7.6 7.5 3.2 0 0-6.5 1.4-11.3 2.1-4.8.6-15.5-1.3-18 2.9-.1-.1 1.7-5.8 4.4-7.6z"/><path fill="#D7A990" d="M143 159.3s0-.1 0 0c-.3.1-2.7 1-3.3 1.9-.6 1-2.7 1.6-2.7 1.6l-3.4 1s-2.2 1.3-2.4 2.7 1.4 3.2 2.4 4.5c1 1.3 4.5 3.2 4.8 2.1.3-1.1 0-2.2 1.4-2.4s.3 1.8 2.6-.6 1.8-3 2.9-3.4c1.1-.3 1-2.7 1-2.7s2.1 1.1 2.1-1.1.2-1.6-.3-3.5-.6-1.4-.5-2.9c.2-1.4.3-2.7-1-4.9l-1.3-2.2s-.5 1.1-1.8.5c-1.3-.6-2.9-1.4-2.9-1.4l-1.9.3-4.9-1.4-5.7-.3v12.5c-.1-.4 9.6 1.7 14.9-.3z"/><path fill="#432D20" d="M179 116c0-.1 1.2-23.7-1.4-40.4-1.5-2.2-3.3-4.4-5.5-6.4.2 7 .7 19.2 2 24.4 1.5 6 3.6 21.4 3.3 28.9 0 .5-.1.9-.1 1.4.3-2 1-4.9 1.7-7.9zm2.1-7.1c.6-1.5 1.2-2.5 1.7-2.6 2.2 1.3 2.6 2.7 2.6 2.7s-.6-2.7-1.3-4.1c.9.6 2.1 1.3 2.1 1.3s-.1-5.1-1.1-6.6c-.1-.2-.1-.8 0-1.7-.1-2.4-.6-7-2.4-12.3l-1.6 23.3z"/><path fill="#432D20" d="M177.3 123.8c0 .2-.1.3-.1.5-.3 1.7-.4 2.3-.1.8 0-.4.1-.8.2-1.3zM128 57.7v1.7s1.3-.7 3.4-1.7H128z"/><path fill="#494D50" d="M128 13.6s19.6-1.5 37.5 3.4c-4.9-6.4-8.2-11.1-11.1-14.4C145.9.9 137.1 0 128 0v13.6z"/><path fill="#595D60" d="M179.3 30.9s2.6-3.1 4.8 0v28.4l-1.6 26.2c1.9 5.4 2.3 10 2.4 12.3v1.7c.6-.6 1.2-1.2 1.7-1.9 28.6-31.5.2-57.1.1-63-.2-6-5.1-10.5-5.1-10.5-4.8-3.2-10.4-5.5-16.2-7.1-17.9-4.9-37.5-3.4-37.5-3.4v17.3h51.4z"/><path fill="#595D60" d="M177.6 75.6c-1.4-8.5-3.7-15.3-7.8-16.3v-1.6h-19.2c9.6 2.5 16.5 6.7 21.5 11.5 2.2 2 4 4.2 5.5 6.4z"/><path fill="#785748" d="M154.8 94.7c4.8-.6 11.3-2.1 11.3-2.1-.8-2.6-4-3.2-7.5-3.2s-9.4.1-11.7 0c-2.2-.1-5.7 1.4-5.7 1.4s2.7-2.6 0-.8-4.5 7.5-4.5 7.5c2.7-4 13.3-2.1 18.1-2.8z"/><path fill="#856150" d="M133.3 185.4l1.6-.8h1.4l2.1-2.4 1.6.8 4.8-1.4.3 1.4 3.8-2.9h1.6l3.8-3.5.6-1 3.4-5.4.3 1.4 3.5-6.5-.6.8s.6-.8 1-2.9c.3-2.1 1.6-2.1 1.8-3.4.2-1.3 3.5-6.2 4-8.1.3-1.2 2.2-5.3 3.5-8l.5-1.3c-.6 1-1.5 2.5-2.6 4-1.9 2.7-11.7 12-11.7 12l-3.8-3.8c-1.3-1.3-1.4-7.3-1.4-8.3 0-1-3.2-1.9-3.2-1.9l.6 1.9-3.4-2.9-6.1-2.6 1.1 1.2-5.4-2.4c-1.3 1.8-8.5 1.3-8.5 1.3v6.1l5.7.3 4.9 1.4 1.9-.3s1.6.8 2.9 1.4c1.3.6 1.8-.5 1.8-.5l1.3 2.2c1.3 2.2 1.1 3.5 1 4.9-.2 1.4 0 1 .5 2.9s.3 1.3.3 3.5-2.1 1.1-2.1 1.1.2 2.4-1 2.7c-1.1.3-.6 1-2.9 3.4s-1.1.5-2.6.6-1.1 1.3-1.4 2.4c-.3 1.1-3.8-.8-4.8-2.1s-2.6-3-2.4-4.5 2.4-2.7 2.4-2.7l3.4-1s2.1-.6 2.7-1.6c.6-.9 3-1.8 3.3-1.9-5.3 2.1-15 0-15 0v26.9l4.3-1.8 1.2 1.3zm9.7-26.1c0-.1 0 0 0 0z"/><path fill="#4B677A" d="M169.8 55.2v-4.9c0-6.9.2-13.4-8.1-13.4H128v3.7h34.1v12.7H128v2h41.8z"/><path fill="#384F5F" d="M161.7 36.8c8.3 0 8.1 6.5 8.1 13.4v9.1h9.5V30.9H128v5.9h33.7z"/><path fill="#79B1BE" d="M156.2 53.2h5.9V40.5h-12.7l6.8 12.7zm-12.3 0l-6.6-12.7H128v12.7zm3.1 0h1.1l-6.6-12.7h-1.4l6.9 12.7z"/><path fill="#FFF" d="M148.1 53.2h8.1l-6.8-12.7h-7.9l6.6 12.7zm-4.2 0h3.1l-6.8-12.7h-2.8l6.5 12.7z"/><path fill="#2B404E" d="M184.1 30.9c-2.3-3.1-4.8 0-4.8 0v28.5h4.8V30.9z"/><path fill="#2D373D" d="M177.6 75.6c2.7 16.7 1.4 40.3 1.4 40.4l2.1-7.1 1.4-23.4 1.6-26.2h-14.3c4.1 1 6.4 7.8 7.8 16.3zm-27-17.9h19.2v-2.6H128v2.6h22.6z"/><path fill="#B2B6BD" d="M139.8 199.4c-3.6-1.9-11.8 2.7-11.8 2.7v54c4.5 0 9-.2 13.5-.7 11.4-15.6 19.5-29 25.1-40.5-10.2-6-24.5-14.3-26.8-15.5z"/><path fill="#C6CBD2" d="M139.8 199.4c2.3 1.2 16.6 9.5 26.7 15.4 21-42.9 8.2-58.8 8.2-58.8s-8.7 41.2-46.7 41.2v4.8s8.2-4.6 11.8-2.6z"/><path fill="#1B4571" d="M160.8 251.7c19.6-5.2 37.3-14.9 52.1-27.9-1.3-4.5-2.6-8.7-3.8-12.7-13.3 7.2-32.1 24.4-48.3 40.6zm44.8-51c-2-6-4-11.4-5.9-16.2l-14.6 1.6 20.5 14.6z"/><path fill="#143960" d="M209 211.1c-1.1-3.7-2.3-7.1-3.4-10.4l-20.5-14.6 14.6-1.6c-13.3-33.9-22.2-38.7-22.8-39h-.1l-5.1-1.9 3 12.5s12.8 15.9-8.2 58.8c-5.6 11.5-13.7 24.9-25.1 40.5 6.6-.7 13.1-1.9 19.3-3.5 16.3-16.4 35.1-33.6 48.3-40.8z"/><path fill="#637074" d="M227.1 166.9c-2.1 9.8-1.9 24.8-.3 42.4 8.6-10.5 15.6-22.3 20.6-35.2-7.7-3.3-14.8-5.7-20.3-7.2z"/><path fill="#79868C" d="M227.1 166.9s3.7-6.2-11.6-10.8c-9.8-3-39.6-23.1-39.6-23.1l-3.7 9.4-.5 1.3 5.1 1.9h.1c.5.3 9.5 5.1 22.8 39 1.9 4.8 3.8 10.2 5.9 16.2 1.1 3.3 2.2 6.7 3.4 10.4 1.3 4 2.5 8.2 3.8 12.7 5-4.5 9.7-9.3 14-14.5-1.6-17.7-1.7-32.7.3-42.5z"/><path fill="#B17D6B" d="M122.7 185.4l-1.6-.8h-1.4l-2.1-2.4-1.6.8-4.8-1.4-.3 1.4-3.8-2.9h-1.6l-3.8-3.5-.6-1-3.4-5.4-.3 1.4-3.5-6.5.6.8s-.6-.8-1-2.9c-.3-2.1-1.6-2.1-1.8-3.4-.2-1.3-3.5-6.2-4-8.1-.3-1.2-2.2-5.3-3.5-8l-3 12.5s8.7 41.2 46.7 41.2V186l-4.3-1.8-.9 1.2zm-43.9-61.1c-.1-.6-.1-1.2-.2-1.9 0 .5.1.9.1 1.4.1.2.1.4.1.5zM71 97.9v1.7c.1-.3.1-.9 0-1.7z"/><path fill="#B17D6B" d="M78.9 125.1c-.1-.4-.1-.8-.2-1.3-.4-1.9-1-4.9-1.7-7.8l-2.1-7.1c-.6-1.5-1.2-2.5-1.7-2.6-2.2 1.3-2.6 2.7-2.6 2.7s.6-2.7 1.3-4.1c-.9.6-2.1 1.3-2.1 1.3s.2-5.2 1.2-6.7c-.6-.6-1.2-1.2-1.7-1.9-.6 13 2.6 14.6 2.9 21.3.3 6.4.6 12.2 7.4 10.5-.3-1.3-.5-2.7-.7-4.3z"/><path fill="#C08C76" d="M105.4 57.7c-9.6 2.5-16.5 6.7-21.5 11.5-.2 7-.7 19.2-2 24.4-1.5 6-3.6 21.4-3.3 28.9.1.6.1 1.3.2 1.9.3 1.7.4 2.3.1.8.2 1.6.4 3 .6 4.4.2 1.3.4 2.4.5 3.5l3.7 9.4c.6 1 1.5 2.5 2.6 4 1.9 2.7 11.7 12 11.7 12l3.8-3.8c1.3-1.3 1.4-7.3 1.4-8.3 0-1 3.2-1.9 3.2-1.9l-.6 1.9 3.4-2.9 6.1-2.6-1.1 1.2 5.4-2.4c1.3 1.8 8.5 1.3 8.5 1.3V59.4s-1.3-.7-3.4-1.7h-19.3zm-4.2 37c-4.8-.6-11.3-2.1-11.3-2.1.8-2.6 4-3.2 7.5-3.2s9.4.1 11.7 0c2.2-.1 5.7 1.4 5.7 1.4s-2.7-2.6 0-.8 4.5 7.5 4.5 7.5c-2.7-4-13.3-2.1-18.1-2.8z"/><path fill="#C08C76" d="M117.3 148.6l-1.9-.3s-1.6.8-2.9 1.4-1.8-.5-1.8-.5l-1.3 2.2c-1.3 2.2-1.1 3.5-1 4.9.2 1.4 0 1-.5 2.9s-.3 1.3-.3 3.5 2.1 1.1 2.1 1.1-.2 2.4 1 2.7c1.1.3.6 1 2.9 3.4 2.2 2.4 1.1.5 2.6.6 1.4.2 1.1 1.3 1.4 2.4.3 1.1 3.8-.8 4.8-2.1s2.6-3 2.4-4.5c-.2-1.4-2.4-2.7-2.4-2.7l-3.4-1s-2.1-.6-2.7-1.6c-.6-.9-3-1.8-3.3-1.9 5.3 2.1 15 0 15 0v-12.5l-5.7.3-5 1.7z"/><path fill="#301D0F" d="M78.9 125.1c.3 1.5.2.9-.1-.8 0-.2-.1-.3-.1-.5.1.5.2.9.2 1.3zm-5.4-39.6c-1.9 5.4-2.3 10-2.4 12.3.1.9.1 1.5 0 1.7-1 1.4-1.1 6.6-1.1 6.6s1.2-.7 2.1-1.3c-.7 1.5-1.3 4.1-1.3 4.1s.4-1.4 2.6-2.7c.5.1 1.1 1.1 1.7 2.6l-1.6-23.3zM128 59.4v-1.7h-3.4c2.1 1 3.4 1.7 3.4 1.7zM78.4 75.6C75.8 92.4 77 115.9 77 116c.7 2.9 1.4 5.9 1.7 7.8 0-.4-.1-.9-.1-1.4-.3-7.6 1.8-23 3.3-28.9 1.3-5.2 1.7-17.4 2-24.4-2.2 2.1-4 4.3-5.5 6.5z"/><path fill="#373B3D" d="M108 14c11.2-1 20-.4 20-.4V0c-9 0-17.9.9-26.4 2.7-.6.7-1.2 1.4-1.9 2.2 4.2 1.3 7.4 4.8 8.3 9.1z"/><path fill="#494D50" d="M71 97.9c.1-2.4.6-7 2.4-12.3l-1.6-26.2V30.9c2.3-3.1 4.8 0 4.8 0H97v-.7h3.4l.3-2.6c-1.4.6-2.9.9-4.5.9-5.8 0-10.6-4.1-11.7-9.5-3.7 1.4-7.1 3.1-10.2 5.2 0 0-5 4.6-5.1 10.5-.2 5.9-28.5 31.5.1 63 .6.6 1.1 1.2 1.7 1.9v-1.7z"/><path fill="#494D50" d="M86.2 59.3c-4 1-6.4 7.8-7.8 16.3 1.5-2.2 3.3-4.4 5.5-6.4 5-4.8 11.9-8.9 21.5-11.5H86.2v1.6zM108 14c.2.8.2 1.6.2 2.4 0 3.1-1.2 5.9-3.1 8l2.1 5.7h3.7v.7h17V13.5c.1.1-8.7-.5-19.9.5z"/><path fill="#432D20" d="M114.7 90.1c-2.7-1.8 0 .8 0 .8s-3.5-1.6-5.7-1.4c-2.2.1-8.1 0-11.7 0-3.5 0-6.7.6-7.5 3.2 0 0 6.5 1.4 11.3 2.1 4.8.6 15.5-1.3 18 2.9.1-.1-1.7-5.8-4.4-7.6zm4.8 49.4l-5.4 2.4 1.1-1.2-6.1 2.6-3.4 2.9.6-1.9s-3.2 1-3.2 1.9c0 1-.2 7-1.4 8.3l-3.8 3.8s-9.7-9.3-11.7-12c-1.1-1.5-2-3-2.6-4l.5 1.3c1.3 2.7 3.2 6.8 3.5 8 .5 1.9 3.8 6.9 4 8.1.2 1.3 1.4 1.3 1.8 3.4.3 2.1 1 2.9 1 2.9l-.6-.8 3.5 6.5.3-1.4 3.4 5.4.6 1 3.8 3.5h1.6l3.8 2.9.3-1.4 4.8 1.4 1.6-.8 2.1 2.4h1.4l1.6.8 1-1.1 4.3 1.8v-26.9s-9.7 2.1-15 0c.3.1 2.7 1 3.3 1.9.6 1 2.7 1.6 2.7 1.6l3.4 1s2.2 1.3 2.4 2.7c.2 1.4-1.4 3.2-2.4 4.5-1 1.3-4.5 3.2-4.8 2.1-.3-1.1 0-2.2-1.4-2.4-1.4-.2-.3 1.8-2.6-.6-2.2-2.4-1.8-3-2.9-3.4-1.1-.3-1-2.7-1-2.7s-2.1 1.1-2.1-1.1-.2-1.6.3-3.5.6-1.4.5-2.9c-.2-1.4-.3-2.7 1-4.9l1.3-2.2s.5 1.1 1.8.5 2.9-1.4 2.9-1.4l1.9.3 4.9-1.4 5.7-.3V141c.2-.3-7 .2-8.3-1.5zm-6.5 19.8s0-.1 0 0z"/><path fill="#384F5F" d="M110.9 36.8v.4H97.1v-.4h-2.8c-8.3 0-8.1 6.5-8.1 13.4v4.9H128v-2H93.9V40.5H128v-3.7h-17.1z"/><path fill="#2B404E" d="M97.1 30.9H76.7v28.5h9.5v-9.1c0-6.9-.2-13.4 8.1-13.4h2.8v-6zm13.8 5.9h17v-5.9h-17v5.9z"/><path fill="#5F8C97" d="M93.9 40.5v12.7H128V40.5z"/><path fill="#2D373D" d="M76.7 55.2V30.9s-2.6-3.1-4.8 0v28.4h4.8v-4.1z"/><path fill="#182126" d="M78.4 75.6c1.4-8.5 3.7-15.3 7.8-16.3H71.9l1.6 26.2 1.4 23.4L77 116c0-.1-1.2-23.6 1.4-40.4zm7.8-20.4v2.6H128v-2.6H86.2z"/><path fill="#91969C" d="M116.2 199.4c-2.3 1.2-16.6 9.5-26.7 15.4 5.6 11.5 13.7 24.9 25.1 40.5 4.4.5 8.9.7 13.5.7v-54c-.1 0-8.3-4.6-11.9-2.6z"/><path fill="#B2B6BD" d="M81.3 156s-12.8 15.9 8.2 58.8c10.2-5.9 24.4-14.2 26.7-15.4 3.6-1.9 11.8 2.7 11.8 2.7v-4.8c-38-.1-46.7-41.3-46.7-41.3z"/><path fill="#143960" d="M70.8 186.1l-14.6-1.6c-1.9 4.8-3.8 10.2-5.9 16.2l20.5-14.6zm-23.8 25c-1.3 4-2.5 8.2-3.8 12.7 14.7 13 32.5 22.8 52.1 27.9C79 235.5 60.2 218.3 47 211.1z"/><path fill="#032547" d="M81.3 156l3-12.5-5.1 1.9h-.1c-.5.3-9.5 5.1-22.8 39l14.6 1.6-20.5 14.6c-1.1 3.3-2.2 6.7-3.4 10.4 13.2 7.2 32 24.5 48.2 40.7 6.3 1.7 12.7 2.9 19.3 3.5-11.4-15.6-19.5-29-25.1-40.5-21-42.8-8.1-58.7-8.1-58.7z"/><path fill="#4B575B" d="M28.9 166.9s-.3-.5-.4-1.3c-5.5 1.6-12.7 4-20.4 7.4 5 13.3 12.1 25.6 21 36.4 1.7-17.7 1.8-32.7-.2-42.5z"/><path fill="#637074" d="M50.4 200.7c2-6 4-11.4 5.9-16.2 13.3-33.9 22.2-38.7 22.8-39h.1l5.1-1.9-.5-1.3-3.7-9.4S50.4 153 40.5 156c-10.9 3.3-12.2 7.4-12 9.5.1.8.4 1.3.4 1.3 2.1 9.8 1.9 24.8.3 42.4 4.3 5.2 9 10 14 14.5 1.3-4.5 2.6-8.7 3.8-12.7 1.1-3.6 2.2-7 3.4-10.3z"/><path fill="#243846" d="M97.1 30.2v7h13.8v-7h-10.5z"/><path fill="#2D373D" d="M100.7 27.6l-.3 2.6h6.8l-2.1-5.7c-1.1 1.3-2.6 2.4-4.4 3.1z"/><path fill="#243846" d="M96.3 28.5c1.6 0 3.1-.3 4.5-.9 1.7-.7 3.2-1.8 4.5-3.1 1.9-2.1 3.1-4.9 3.1-8 0-.8-.1-1.6-.2-2.4-.9-4.3-4.1-7.8-8.3-9.1-1.1-.3-2.3-.5-3.5-.5-6.6 0-12 5.4-12 12 0 .9.1 1.7.3 2.6 1 5.3 5.8 9.4 11.6 9.4zM85.9 16.4c0-4.2 2.6-7.9 6.2-9.5 1.3-.5 2.6-.8 4.1-.8h1c.6.1 1.1.2 1.6.3 4.5 1.1 7.8 5.2 7.8 10 0 1.1-.2 2.1-.5 3.1-.2.6-.4 1.2-.7 1.7-.1.2-.2.4-.4.6-.8 1.3-1.8 2.3-3.1 3.2-1.6 1.1-3.6 1.7-5.7 1.7-5.6.1-10.3-4.6-10.3-10.3z"/><path fill="#5F8C97" d="M105 21.9c.1-.2.3-.4.4-.6L97.2 6.2h-1c2.2 3.8 6.4 11.2 8.8 15.7zm1.1-2.3c.3-1 .5-2 .5-3.1 0-4.8-3.3-8.8-7.8-10 2.2 3.8 5.2 9.3 7.3 13.1zm-9.8 7.2c2.1 0 4-.6 5.7-1.7L92.2 7c-3.7 1.6-6.2 5.2-6.2 9.5-.1 5.6 4.6 10.3 10.3 10.3z"/><path fill="#FFF" d="M101.9 25.1c1.2-.8 2.3-1.9 3.1-3.2-2.5-4.5-6.6-11.9-8.8-15.8-1.5 0-2.8.3-4.1.8l9.8 18.2zm3.5-3.8c.3-.5.5-1.1.7-1.7-2.1-3.8-5.1-9.2-7.3-13.1-.5-.1-1.1-.2-1.6-.3l8.2 15.1z"/></svg>