<svg xmlns="http://www.w3.org/2000/svg" width="256" height="256"><circle fill="#B1B3B5" cx="128" cy="128" r="128"/><path fill="#C7C8BF" d="M174.4 180.5c-1 2-8.2 16.5-11.1 21.8-3.1 5.7-6 15.8-6 15.8s-12.7-6.2-11.5-16c.2-1.7.4-3.4.5-5.1l-7.2 10.5 8.3 47c33.8-5.1 63.3-23.4 83-49.5-10.2-4.6-23.7-10.9-29.6-13.7-6.5-2.9-18.9-7.8-26.4-10.8z"/><path fill="#C08C76" d="M128 176.8v7.6s28.7-4.3 37.1-22.5c.5-5.4 1.2-11.1 1.8-15.4-3.3 6.6-7.5 12.4-11.2 19.1-6.7 12.2-27.7 11.2-27.7 11.2zm51.7-85.7l-1.4 1.1s-1.4 6.2-1.4 11.7c0 3.7-1.4 6.9-2.3 8.7-.9 5.4-1.7 10.8-2.2 15.7 0 .3-.1.6-.1.9 2.1 0 3.9-.6 3.6-2.5-.9-4.3 2.5-5.7 2.5-11s2.9-7.9 4.1-12c1.1-3.6 1.5-8.9-.7-11.9l-2.1-.7z"/><path fill="#D7A990" d="M174.5 112.5c-.4.9-.8 1.4-.8 1.4s-.6-5.9-.1-10.4-1-23-1.1-27.9-1.9-10.1-3.5-13.4-2.7-9.3-2.7-9.3-11.2-11-19.2-14.2-19.1-2.4-19.1-2.4v140.5s21 1 27.8-11.1c3.7-6.7 7.9-12.5 11.2-19.1 2.5-5.1 4.5-10.6 5.3-17.4 0-.3.1-.6.1-.9.5-5 1.3-10.4 2.1-15.8zm-35.4-38s11.3-.5 14.8-1.8 4.5-1 5.6 0c1.1 1 4.3 5.9 4.3 5.9h-2.1l.5 1.1s-1.9-1.4-2.9-1.6-3.8-.5-3.8-.5l1.6 1s-5.6-1.3-7-.5c-1.4.8-9.1 1.1-12.1-.3 0 0-1.7-3.2 1.1-3.3z"/><path fill="#31302B" d="M128 36.3s11.1-.8 19.1 2.4 19.2 14.2 19.2 14.2 1.1 5.9 2.7 9.3 3.4 8.5 3.5 13.4 1.6 23.5 1.1 27.9c-.5 4.5.1 10.4.1 10.4s.3-.5.8-1.4c.9-1.8 2.3-5 2.3-8.7 0-5.4 1.4-11.7 1.4-11.7l1.4-1.1 2.1.8-1.9-5.7 1.9 1.9s1.1-11.2.8-15l1.9 3.8s.5-15.6-1.6-20l1.6 2.1s-4.4-21.4-18.9-31l5.4 2.9S159.4 14 131 11.2l5.7-1s-3-1.9-8.9-1.9v28z"/><path fill="#31302B" d="M150.2 78.1c1.4-.8 7 .5 7 .5l-1.6-1s2.9.3 3.8.5 2.9 1.6 2.9 1.6l-.5-1.1h2.1s-3.2-4.9-4.3-5.9c-1.1-1-2.1-1.3-5.6 0-3.5 1.3-14.8 1.8-14.8 1.8-2.9.2-1.1 3.4-1.1 3.4 3 1.4 10.6 1 12.1.2z"/><path fill="#ACAC86" d="M138.8 207.9s-2-2.2-10.8-2.2V256c6.6 0 13-.5 19.3-1.4l-8.3-47-.2.3z"/><path fill="#C3C8A2" d="M138.6 184.6c-8.1 1.7-10.6 2.4-10.6 2.4v18.7c8.8 0 10.8 2.2 10.8 2.2l.2-.3 7.2-10.5c.4-7.7-.9-13.8-7.6-12.5z"/><path fill="#DEDFD4" d="M128 184.4v2.6s2.4-.7 10.6-2.4c6.7-1.4 8.1 4.7 7.6 12.4-.1 1.6-.3 3.3-.5 5.1-1.2 9.8 11.5 16 11.5 16s2.9-10.1 6-15.8c2.9-5.4 10.2-19.8 11.1-21.8.1-.1.1-.2.1-.2 0-9.3-9.3-18.4-9.3-18.4v.1c-8.4 18.1-37.1 22.4-37.1 22.4z"/><path fill="#A7AAA3" d="M109.8 197.1c.1 1.6.3 3.3.5 5.1 1.2 9.8-11.5 16-11.5 16s-2.9-10.1-6-15.8c-2.9-5.4-10.2-19.8-11.1-21.8-7.5 2.9-19.9 7.9-26.2 10.8-5.9 2.7-19.4 9.1-29.6 13.7 19.7 26.1 49.2 44.4 83 49.5l8.3-47-7.4-10.5z"/><path fill="#B17D6B" d="M128 184.4v-7.6s-21 1-27.8-11.1c-3.7-6.7-7.9-12.5-11.2-19.1.6 4.3 1.3 10 1.8 15.4 8.5 18.1 37.2 22.4 37.2 22.4zM78 90.3c-1.1-.2-2-.1-2.7.4-3.4 2.6-2.9 8.9-1.7 12.9 1.2 4.1 4.1 6.7 4.1 12s3.4 6.7 2.5 11c-.4 1.9 1.4 2.4 3.6 2.5 0-.3-.1-.6-.1-.9-1.3-12.5-4.6-28.3-5.7-37.9z"/><path fill="#C08C76" d="M128 176.8V36.4s-15.2 1.5-20.1 5.4c0 0-9.3.5-12 4.6-2.7 4.2-6.3 12.8-5.7 18.6S88.4 78 87 82.1s-1.4 29.4-1.4 29.4-1.9-3-1.9-5.4-1-12.3-1-12.3L81.4 98s-.3-6.9-1-8.9l-2.5.8c0 .2 0 .4.1.6 1.2 9.5 4.4 25.3 5.7 38 0 .3.1.6.1.9.8 6.7 2.8 12.3 5.3 17.4 3.3 6.6 7.5 12.4 11.2 19.1 6.7 11.9 27.7 10.9 27.7 10.9zM96.4 72.7c1.1-1 2.1-1.3 5.6 0 3.5 1.3 14.8 1.8 14.8 1.8 2.9.2 1.1 3.4 1.1 3.4-3 1.4-10.7 1.1-12.1.3-1.4-.8-7 .5-7 .5l1.6-1s-2.9.3-3.8.5-2.9 1.6-2.9 1.6l.5-1.1h-2.1c0-.1 3.2-5 4.3-6z"/><path fill="#1F1E19" d="M93.7 79.7s1.9-1.4 2.9-1.6 3.8-.5 3.8-.5l-1.6 1s5.6-1.3 7-.5c1.4.8 9.1 1.1 12.1-.3 0 0 1.8-3.2-1.1-3.4 0 0-11.3-.5-14.8-1.8s-4.5-1-5.6 0c-1.1 1-4.3 5.9-4.3 5.9h2.1l-.5 1.2z"/><path fill="#949575" d="M128 205.7c-8.8 0-10.8 2.2-10.8 2.2l-.2-.3-8.3 47c6.3.9 12.7 1.4 19.3 1.4v-50.3z"/><path fill="#ACAC86" d="M128 200.9V187s-2.4-.7-10.6-2.4c-6.7-1.4-8.1 4.7-7.6 12.4l7.2 10.5.2.3s2-2.2 10.8-2.2v-4.7z"/><path fill="#C7C8BF" d="M98.7 218.2s12.7-6.2 11.5-16c-.2-1.7-.4-3.4-.5-5.1-.4-7.7.9-13.8 7.6-12.4 8.1 1.7 10.6 2.4 10.6 2.4v-2.6s-28.7-4.3-37.1-22.5v-.1s-9.3 9.1-9.3 18.4c0 0 0 .1.1.2 1 2 8.2 16.5 11.1 21.8 3.2 5.8 6 15.9 6 15.9z"/><path fill="#1F1E19" d="M81.4 97.9l1.3-4.2s1 9.9 1 12.3 1.9 5.4 1.9 5.4 0-25.2 1.4-29.4 3.8-11.3 3.2-17.1 3-14.4 5.7-18.6c2.7-4.2 12-4.6 12-4.6 4.9-4 20.1-5.4 20.1-5.4V8.4c-9.6 0-18 6.9-18 6.9l3.2-4s-6.7 5.1-11.6 8.6c-4.9 3.5-6.1 12.8-6.1 12.8-4.9.3-7.8 3-7.8 3 2.6-1.8 6.5-1.3 6.5-1.3s-11.9 4.2-15.5 10.4C75 51 73.5 66.3 73.5 66.3 70.8 76.9 77.3 90 77.3 90l.7-.2 2.5-.8c.6 2.1.9 8.9.9 8.9z"/></svg>