<svg xmlns="http://www.w3.org/2000/svg" width="256" height="256"><circle fill="#B1B3B5" cx="128" cy="128" r="128"/><path fill="#0C2A44" d="M35.7 216.6c2.4 2.5 4.9 4.9 7.4 7.1 1.6-3.3 3.9-7.8 6.7-12.6-4.2 1.7-9.1 3.5-14.1 5.5z"/><path fill="#14304B" d="M68.9 185.7c3.2-2.7 5.7-5.1 7.7-7.2l-54.4 21.7c4 5.9 8.5 11.4 13.4 16.5 5-2 9.9-3.9 14.1-5.4 5.3-9.2 12.2-19.6 19.2-25.6zm-27.6 14.9c-.8-2.4.8-5.1 3.6-6.1s5.8.1 6.7 2.5c.8 2.4-.8 5.1-3.6 6.1-2.9 1.1-5.9-.1-6.7-2.5z"/><path fill="#849DB3" d="M119.6 231.8l-3.1-10.9c-1.4 2-2.6 3.9-3.4 5.5-3.4 7.1-9.3 14.7-10.5 24.6 0 0-7.1-14.4-12.6-27 0 0 2.4 12.5 5.4 27.7 7.4 1.9 15 3.2 22.9 3.8l2-23.1c-.6-.3-.7-.6-.7-.6zm-29.8-8.2s0 .1 0 0c.1.1.1.3.2.4-.1-.1-.1-.2-.2-.4z"/><path fill="#01192C" d="M83.2 204.8c-2.6-11.1-3.5-25.1 2.1-29.8 0 0 1.2-5.2 4.9-6.3 0 0-.1.5-.1 1.3.1-.9.1-1.7.1-2.6 0-.6 0-1.2-.1-2-5.2 1.6-6.3 5.6-13.4 13-2 2.1-4.5 4.5-7.7 7.2-7.1 6-13.9 16.3-19.2 25.5-2.7 4.8-5 9.3-6.7 12.6 4.8 4.2 9.9 8.1 15.3 11.6l24.8-30.5zM59 226.4l-.1-.3-.4.5-2.8.8-.7-.2.1.4-1.4.4-.1-.4-.3.6-2.7.8-1.3-.6-1.4-4.6 1.6-.5s.7 2.5.9 2.9c.1.5.3 1.1 1 .9.7-.2.7-.7.6-.9s-1-3.3-1-3.3l1.5-.5 1.3 4.2.6-.2-.2-.7 1.3-.4s.2.5.7.4c.6-.2 1.2-.3 1-.7-.1-.4-.8-.1-1.1 0l-.9.3-1.3-.3-.5-1.7.7-1.3 2.6-.8 1.2.5.3 1.1-1.2.2s-.3-.5-1-.3-.9.4-.9.7.4.4 1 .2 1-.3 1-.3l1.5.4.4 1.3.9-.3.4 1.3-1.3.4zm25.5-16.5c-.5-1.6-.9-3.3-1.3-5.1 0 0 .6 5.3 6.7 18.9-2.4-5.4-4.4-10.4-5.4-13.8z"/><path fill="#4C2F24" d="M90 170c-.1 3.2.7 12.1 10.3 18.8 13.1 9.3 27.7 17.8 27.7 17.8v-29.8c-12.3 0-16.9-3.3-23.6-8.2-6.7-4.8-12.7-15.5-15.9-21.9-.2-.5-.4-1-.7-1.5.7 5.2 1.9 14.7 2.2 20.2 0 .7.1 1.4.1 2 0 .9 0 1.7-.1 2.6zM77 83.3l-1.5-3.7s-.5 2.7-.8.9c-.3-1.8-1.6-7.4-1.6-7.4h-.6l.2-.2c-.8-.2-1.5-.2-2 0-1.5.8-1.3 3.8-1.7 6.7-.4 2.9 1 6.3 1.5 9.2.4 2.9 1 6.1.8 10-.2 4 .2 13.8 3.6 15.5 2.8 1.4 3.8 2.6 6.4.1-1.1-7.9-2.7-21.5-4.3-31.8v.7z"/><path fill="#5E3C30" d="M104.4 168.7c6.7 4.8 11.3 8.2 23.6 8.2V12.4v8.5c-5.7 0-10.1-1.3-10.1-1.3l-2.7-.4h-4l.3-1.1s-1-.1-5 2-15.8 11.9-17.3 14-6.3 10.2-8.3 15.6C78.9 55 79 70.1 79 70.1l-.5 2.8v17.3s-1.1-7.4-1.3-7.7c0-.1-.1 0-.1.2 1.6 10.3 3.1 23.9 4.3 31.8l.3 1.8c1.4 9.1 3.4 22 6.2 29 .2.5.4 1.1.7 1.5 3 6.4 9.1 17.1 15.8 21.9zm-6.9-95.9c5.4-.1 14.4 5.1 17.4 5.2 0 0 1.8 0 2.5-1.7 0 0 .8 5-1.8 5.4-2.6.4-13.7-3.6-19.2-1.7 0 0-6.8-2.8-10.5-2.1.1.1 6.2-5 11.6-5.1z"/><path fill="#302323" d="M73.1 73.2s1.3 5.6 1.6 7.4c.3 1.8.8-.9.8-.9l1.5 3.7s0-.4.1-.7c0-.2.1-.4.1-.2.1.3 1.3 7.7 1.3 7.7V72.8L79 70s-.1-15 1.9-20.4c2-5.3 6.7-13.5 8.3-15.6s13.4-11.9 17.3-14c4-2.1 5-2 5-2l-.3 1.1h4l2.7.4s4.4 1.3 10.1 1.3V8.6s.1-.5-1.8 0c-1.9.5-1.7.7-2.8.7-1.1 0-1.8.2-2.3 0-.5-.2-.4-.8-1.5-.4-1 .3-1.5.5-2 .5s-.8-.2-1.9 0c-1 .2.2.2-1 .2h-2.9l-2.7 1.5s-.2-.4-1 0-1.8 1.4-2.3 1.3c-.5-.1-.7-.6-1.3 0-.5.6-1.1.7-1.8.9-.6.2-1.5 0-1.5 0v.5s-4.3 2.7-7.2 4.5c-2.9 1.8-4.2 2.3-4.2 2.3s-2 .6-2 .9V23l-1.4 1-1 .7s-4 5.1-4.9 6.9c-.9 1.8-1.6 2.6-1.6 2.6l-.6.9-.9.6v1s-.1.2 0 .8c.1.6 0 1.3 0 1.3l-.5.9-.5 2.5v3l-.7 1.1-1 1.6v3.7l-1.3 1.3v3.3s-.4.1 0 1.8.5 2.7.5 2.7-.3.6-.7 1.6-.5-.1-.4.9c.1 1 .4 2.4.4 2.4s.4-.3.1.8c-.3 1.1-.4.5-.3 1.1s-.2 2.2-.2 2.2.4 0 .6.6c.2.6.1.7 0 1.5-.1.5-.3.9-.4 1.1-.1.2-.2.2-.2.2h.3z"/><path fill="#302323" d="M96.4 80.1c5.6-2 16.6 2.1 19.2 1.7 2.6-.4 1.8-5.4 1.8-5.4-.7 1.7-2.5 1.7-2.5 1.7-3.1-.1-12-5.3-17.4-5.2S86 78 86 78c3.6-.7 10.4 2.1 10.4 2.1z"/><path fill="#081522" d="M120.3 232.5l-2 23.1c3.2.2 6.4.4 9.7.4v-21.9c-4.5 0-6.6-.9-7.7-1.6z"/><path fill="#081522" d="M128 211.5v-4.8s-6.9 7.6-11.6 14.3l3.1 10.9s.2.3.8.7c1 .7 3.2 1.6 7.7 1.6v-22.7z"/><path fill="#6D8194" d="M128 206.6s-14.5-8.6-27.7-17.8c-9.6-6.7-10.4-15.6-10.3-18.8 0-.8.1-1.3.1-1.3-3.7 1.1-4.9 6.3-4.9 6.3-5.6 4.6-4.6 18.6-2.1 29.8.4 1.8.9 3.5 1.3 5.1 1 3.4 3 8.4 5.3 13.7.1.1.1.3.2.4 5.5 12.6 12.6 27 12.6 27 1.1-9.9 7.1-17.5 10.5-24.6.8-1.6 2-3.5 3.4-5.5 4.7-6.7 11.6-14.3 11.6-14.3z"/><path fill="#001428" d="M90 224.1c-.1-.2-.1-.3-.2-.4-6.1-13.5-6.7-18.8-6.7-18.9l-24.8 30.6c11.2 7.3 23.7 12.9 37 16.4-2.9-15.2-5.3-27.7-5.3-27.7z"/><ellipse transform="rotate(-19.397 46.417 198.825)" fill="#B9BCB9" cx="46.4" cy="198.8" rx="5.4" ry="4.6"/><path fill="#A06F3D" d="M58.9 225l-.4-1.3-1.5-.4s-.4.1-1 .3c-.6.2-.9.1-1-.2s.2-.5.9-.7c.7-.2 1 .3 1 .3l1.3-.4-.3-1.1-1.2-.5-2.6.8-.7 1.3.5 1.7 1.3.3.9-.3c.3-.1 1-.4 1.1 0 .1.4-.4.6-1 .7-.6.2-.7-.4-.7-.4l-1.3.4.2.7-.6.2-1.3-4.2-1.5.5s.9 3.1 1 3.3.1.7-.6.9c-.7.2-.9-.4-1-.9-.1-.5-.9-2.9-.9-2.9l-1.6.5 1.4 4.6 1.3.6 2.7-.8.3-.6.1.4 1.4-.4-.1-.4.7.2 2.8-.8.4-.5.1.3 1.3-.4-.4-1.3-1 .5zm-5.9 2.9l-2.4.7-1.2-.5-1.3-4.3 1.1-.3s.7 2.4.9 3.1c.2.7.7.9 1.4.7.6-.2.9-.7.7-1.3s-.9-3.1-.9-3.1l1-.3 1.3 4.3-.6 1zm6-1.8l-.2-.8-.6 1.1-2.5.7-1.2-.5.2.8-1 .3-.2-.8 1-.3-.2-.8 1-.3s.1.6.7.4c.5-.2.7-.2 1-.3.3-.1.5-.3.4-.7-.1-.4-.4-.5-1-.3l-1.2.4-1.2-.3-.5-1.6.6-1.1 2.4-.7 1.1.4.2.8-1 .3s-.2-.5-1-.3-1.1.5-1 .9.4.5 1 .4 1.1-.3 1.1-.3l1.4.3.4 1.5.9-.3.2.8-.8.3z"/><path fill="#D3B687" d="M51.3 222.8s.7 2.5.9 3.1 0 1.1-.7 1.3c-.6.2-1.2 0-1.4-.7-.2-.7-.9-3.1-.9-3.1l-1.1.3 1.3 4.3 1.2.5 2.4-.7.6-1.1-1.3-4.3-1 .4zm2.3 4.051l1.053-.315.23.766-1.054.316zm5.194-1.609l.863-.258.23.766-.863.258z"/><path fill="#D3B687" d="M57 223.5s-.6.2-1.1.3-.9 0-1-.4.2-.7 1-.9 1 .3 1 .3l1-.3-.2-.8-1.1-.4-2.4.7-.6 1.1.5 1.6 1.2.3 1.2-.4c.6-.2.9-.1 1 .3.1.4-.2.6-.4.7-.3.1-.4.1-1 .3-.5.2-.7-.4-.7-.4l-1 .3.2.8 1.2.5 2.5-.7.6-1.1-.4-1.5-1.5-.3z"/><path fill="#14334E" d="M212.9 223.8c2.6-2.3 5.1-4.7 7.4-7.1-5-2-9.9-3.9-14.1-5.4 2.8 4.7 5.1 9.2 6.7 12.5z"/><path fill="#1D3A58" d="M179.3 178.5c2 2.1 4.5 4.5 7.7 7.2 7.1 6 13.9 16.3 19.2 25.5 4.2 1.5 9.1 3.4 14.1 5.4 4.9-5.1 9.4-10.6 13.4-16.5l-54.4-21.6zm31.8 16c2.8 1 4.4 3.7 3.6 6.1s-3.8 3.5-6.7 2.5c-2.8-1-4.4-3.7-3.6-6.1.9-2.4 3.9-3.5 6.7-2.5z"/><path fill="#9FB4BD" d="M153.4 251c-1.1-9.9-7.1-17.5-10.5-24.6-.8-1.6-2-3.5-3.4-5.5l-3.1 10.9s-.2.3-.8.7l2 23.1c7.9-.6 15.5-1.9 22.9-3.8 3-15.2 5.4-27.7 5.4-27.7-5.4 12.6-12.5 26.9-12.5 26.9zm12.6-27c.1-.1.1-.3.2-.4-.1.2-.1.3-.2.4z"/><path fill="#12283D" d="M187.1 185.7c-3.2-2.7-5.7-5.1-7.7-7.2-7-7.4-8.2-11.4-13.4-13 0 .7-.1 1.4-.1 2 0 .8 0 1.7.1 2.6 0-.8-.1-1.3-.1-1.3 3.7 1.1 4.9 6.3 4.9 6.3 5.6 4.6 4.6 18.6 2.1 29.8l24.8 30.6c3-1.9 5.8-4 8.6-6.1l-1.1-.4.1-.3-.6.2-2.8-.9-.4-.6-.1.4-1.4-.5.1-.4-.6.3-2.7-.9-.7-1.3 1.5-4.6 1.6.5s-.8 2.4-.9 2.9-.4 1.1.3 1.3c.7.2 1-.2 1-.4.1-.2 1.1-3.3 1.1-3.3l1.5.5-1.4 4.2.6.2.2-.7 1.3.4s-.2.5.4.7c.6.2 1.1.4 1.3 0 .1-.4-.6-.6-.9-.7l-.9-.3-.9-1 .6-1.7 1.3-.7 2.6.9.7 1.1-.3 1-1.3-.4s0-.6-.7-.8c-.7-.2-1-.2-1.1.1-.1.3.1.5.7.7s1 .3 1 .3l1 1.2-.4 1.3.9.3-.3 1.1c2.2-1.7 4.3-3.5 6.4-5.3-1.6-3.3-3.9-7.8-6.7-12.6-5.3-9.1-12.2-19.5-19.2-25.5z"/><path fill="#12283D" d="M171.5 209.9c-1 3.4-3 8.4-5.3 13.7 6.1-13.5 6.7-18.8 6.7-18.9-.5 1.9-.9 3.6-1.4 5.2z"/><path fill="#5E3C30" d="M151.6 168.7c-6.7 4.8-11.3 8.2-23.6 8.2v29.8s14.5-8.6 27.7-17.8c9.6-6.7 10.4-15.6 10.3-18.8-.1-.9-.1-1.7-.1-2.6 0-.6 0-1.2.1-2 .3-5.6 1.5-15 2.2-20.2-.2.5-.4 1.1-.7 1.5-3.1 6.4-9.2 17.1-15.9 21.9zm31.3-95.5s-1.3 5.6-1.6 7.4c-.3 1.8-.8-.9-.8-.9l-1.5 3.7s0-.4-.1-.7c-1.6 10.3-3.1 23.9-4.3 31.8 2.6 2.5 3.7 1.3 6.4-.1 3.3-1.7 3.8-11.5 3.6-15.5-.2-4 .4-7.1.8-10 .4-2.9 1.9-6.3 1.5-9.2-.4-2.9-.2-5.9-1.7-6.7-.5-.3-1.2-.2-2 0 .1.2.2.2.2.2h-.5z"/><path fill="#764931" d="M128 176.9c12.3 0 16.9-3.3 23.6-8.2 6.7-4.8 12.7-15.5 15.9-21.9.2-.5.4-1 .7-1.5 2.8-7 4.9-19.9 6.2-29l.3-1.8c1.1-7.9 2.7-21.5 4.3-31.8 0-.2-.1-.4-.1-.2-.1.3-1.3 7.7-1.3 7.7V72.8l-.5-2.8s.1-15-1.9-20.4c-2-5.3-6.7-13.5-8.3-15.6s-13.4-11.9-17.3-14c-4-2.1-5-2-5-2l.3 1.1h-4l-2.7.4s-4.4 1.3-10.1 1.3v-8.5 164.6zm10.5-100.6c.7 1.7 2.5 1.7 2.5 1.7 3.1-.1 12-5.3 17.4-5.2S170 78 170 78c-3.6-.7-10.5 2.1-10.5 2.1-5.6-2-16.6 2.1-19.2 1.7-2.6-.5-1.8-5.5-1.8-5.5z"/><path fill="#3D3030" d="M138.1 19.6l2.7-.4h4l-.3-1.1s1-.1 5 2 15.8 11.9 17.3 14 6.3 10.2 8.3 15.6c2 5.3 1.9 20.4 1.9 20.4l.5 2.8v17.3s1.1-7.4 1.3-7.7c0-.1.1 0 .1.2 0 .3.1.7.1.7l1.5-3.7s.5 2.7.8.9c.3-1.8 1.6-7.4 1.6-7.4h.6l-.2-.2c-.1-.2-.3-.7-.4-1.1-.1-.7-.2-.8 0-1.5.2-.6.6-.6.6-.6s-.4-1.6-.2-2.2 0 0-.3-1.1.1-.8.1-.8.3-1.4.4-2.4c.1-1 0 0-.4-.9s-.7-1.6-.7-1.6.1-1 .5-2.7c.4-1.7 0-1.8 0-1.8V53l-1.3-1.3V48l-1-1.6-.7-1.1v-3l-.5-2.5-.5-.9s-.2-.6 0-1.3c.1-.6 0-.8 0-.8v-1l-.9-.6-.6-.9s-.6-.8-1.6-2.6c-.9-1.8-4.9-6.9-4.9-6.9l-1-.7L168 23v-1.5c0-.3-2-.9-2-.9s-1.3-.5-4.2-2.3c-2.9-1.8-7.2-4.5-7.2-4.5v-.5s-.8.2-1.5 0c-.6-.2-1.3-.3-1.8-.9-.5-.6-.7-.1-1.3 0-.5.1-1.5-.8-2.3-1.3-.8-.4-1 0-1 0L144 9.6h-2.9c-1.3 0 0 0-1-.2s-1.4 0-1.9 0-.9-.2-2-.5c-1-.3-.9.2-1.5.4-.5.2-1.1 0-2.3 0-1.1 0-.9-.2-2.8-.7-1.9-.5-1.8 0-1.8 0v12.3c5.9-.1 10.3-1.3 10.3-1.3z"/><path fill="#3D3030" d="M140.4 81.8c2.6.4 13.7-3.6 19.2-1.7 0 0 6.8-2.8 10.5-2.1 0 0-6.1-5.1-11.6-5.2s-14.4 5.1-17.4 5.2c0 0-1.8 0-2.5-1.7-.1 0-.9 5 1.8 5.5z"/><path fill="#162330" d="M128 234.1V256c3.3 0 6.5-.1 9.7-.4l-2-23.1c-1.1.7-3.2 1.6-7.7 1.6z"/><path fill="#162330" d="M128 206.6V234c4.5 0 6.6-.9 7.7-1.6.6-.4.8-.7.8-.7l3.1-10.9c-4.7-6.6-11.6-14.2-11.6-14.2z"/><path fill="#849DB3" d="M155.7 188.8c-13.1 9.3-27.7 17.8-27.7 17.8s6.9 7.6 11.6 14.3c1.4 2 2.6 3.9 3.4 5.5 3.4 7.1 9.3 14.7 10.5 24.6 0 0 7.1-14.4 12.6-27 .1-.1.1-.3.2-.4 2.3-5.4 4.3-10.4 5.3-13.7.5-1.6.9-3.3 1.3-5.1 2.6-11.1 3.5-25.1-2.1-29.8 0 0-1.2-5.2-4.9-6.3 0 0 .1.5.1 1.3.1 3.2-.7 12.1-10.3 18.8z"/><path fill="#0C2337" d="M172.8 204.8s-.6 5.3-6.7 18.9c-.1.1-.1.3-.2.4 0 0-2.4 12.5-5.4 27.7 13.3-3.5 25.8-9.1 37-16.4l-24.7-30.6z"/><ellipse transform="rotate(-70.603 209.594 198.84)" fill="#B9BCB9" cx="209.6" cy="198.8" rx="4.6" ry="5.4"/><path fill="#A06F3D" d="M205.9 227.8l.4-1.3-1-1.2s-.4-.1-1-.3-.8-.5-.7-.7c.1-.3.4-.3 1.1-.1.7.2.7.8.7.8l1.3.4.3-1-.7-1.1-2.6-.9-1.3.7-.6 1.7.9 1 .9.3c.3.1 1 .2.9.7-.1.4-.7.2-1.3 0-.6-.2-.4-.7-.4-.7l-1.3-.4-.2.7-.6-.2 1.4-4.2-1.5-.5s-1 3.1-1.1 3.3c-.1.2-.3.6-1 .4-.7-.2-.5-.8-.3-1.3s.9-2.9.9-2.9l-1.6-.5-1.5 4.6.7 1.3 2.7.9.6-.3-.1.4 1.4.5.1-.4.4.6 2.8.9.6-.2-.1.3 1.1.4c.1-.1.2-.1.2-.2l.3-1.1-.8-.4zm-6.5-1l-2.4-.8-.7-1.1 1.4-4.2 1.1.4-1 3c-.2.7.1 1.1.7 1.3s1.1-.1 1.3-.7l1-3 1 .3-1.4 4.2-1 .6zm6 1.9l.3-.8-1.1.5-2.4-.8-.7-1.1-.3.8-1-.3.3-.8 1 .3.2-.7 1 .3s-.2.5.3.7c.5.2.7.2.9.3s.6.1.7-.3c.1-.4 0-.6-.6-.8l-1.2-.4-.8-.9.5-1.5 1.1-.5 2.4.8.7.9-.3.8-1-.3s.1-.5-.7-.8c-.8-.3-1.2-.2-1.4.2-.1.4 0 .7.6.9.6.2 1.1.4 1.1.4l1 1.1-.5 1.5.9.3-.3.8-.7-.6z"/><path fill="#D3B687" d="M201.9 222l-1-.3-1 3c-.2.6-.7.9-1.3.7s-1-.7-.7-1.3c.2-.7 1-3 1-3l-1.1-.4-1.4 4.2.7 1.1 2.4.8 1.1-.6 1.3-4.2zm-1.664 5.038l.25-.76 1.044.343-.25.76zm5.126 1.695l.25-.76.855.28-.25.76zm-.162-3.333s-.6-.2-1.1-.4c-.6-.2-.7-.5-.6-.9.1-.4.5-.4 1.4-.2.8.3.7.8.7.8l1 .3.3-.8-.7-.9-2.4-.8-1.1.5-.5 1.5.8.9 1.2.4c.6.2.7.4.6.8-.1.4-.5.4-.7.3s-.4-.1-.9-.3c-.5-.2-.3-.7-.3-.7l-1-.3-.2.7.7 1.1 2.4.8 1.1-.5.5-1.5-1.2-.8z"/></svg>