<svg xmlns="http://www.w3.org/2000/svg" width="256" height="256"><circle fill="#B1B3B5" cx="128" cy="128" r="128"/><path fill="#3C4A57" d="M223.5 212.9c0 .1 0 .3-.1.4 3.6-4 7-8.3 10.1-12.8-2.3-1.8-6.1-2.8-8.9-3.4.4 3.6-.2 9.2-1.1 15.8z"/><path fill="#C08C76" d="M169.7 159.2l1.9-6.8c.2-2 .5-3.9.7-5.7-4 5.4-9.9 10.1-16.2 17.9-9.9 12.5-28.1 12.1-28.1 12.1v6.1c0 .1 30.1-.5 41.7-23.6zm17-60.8c.6 1.1 1.4 1.8.6 2.7-.8 1-1.1 1.8-1.6 2.2-.5.5-.4.6-.7 3-.3 2.4.2 0-.3 2.4s0 2.1-.5 3.2.2-.2-.5 1.1c-.6 1.3-1.4.6-1.8 2.1s-.4.3-.4 1.4c0 .8-1.2 3.2-1.9 3.4-.2 1.7-.5 3.4-.7 5.1 2.2 1.5 4.5 2.6 6 1.8 3.6-1.9 1.4-6.7 1.4-9.8 0-3.1 4.3-9.3 7.4-17 3.1-7.7 2.2-5.7 1.9-7.7-.1-1.1-1-3.9-2.1-6.4-.6.1-2.7.3-4.1.9-1.7.7 0 0 0 1.7s0 1.7-1.9 4.3c-.2 1.4-1.4 4.5-.8 5.6z"/><path fill="#D7A990" d="M156.1 164.7c6.3-7.9 12.1-12.6 16.2-17.9 2.3-3.1 4.1-6.5 4.9-10.8.6-2.9 1.2-6.7 1.8-10.8.2-1.6.5-3.3.7-5.1-.3.1-.5-.2-.5-1 0-3 1.3-1.6 0-4.8-1.3-3.2-1.3-2.2-1.3-3.2s-1.8-.3 0-2.3c1.8-2 2.1-.6 2.1-3s-1-3-.8-3.7c.1-.4.2-.1.3-.4v-.8c0-.2-.1-.5-.1-.9-.3-2.6-.5-3.2-.2-4.6.3-1.3.4-.4.1-3.6s-1-1.4-.8-2.2.5-1 .5-2.7c0-.3-.1-.6-.1-.9-.1-.4-.3-.6-.1-.9-.4-3.1-.7-5.7-.7-5.7l1.9 1.7c-1.4-3.3-2.6-11.8-2.6-11.8h1.4c-1.4-3.8-2.6-9.8-2.6-9.8l3.8 2.6s-2.2-2.6-2.4-5.3c-.2-2.6-.5-3.1-1.2-6.7s-1.7-2.6-4.8-4.6c-3.1-1.9-2.9-1.2-4.3-6.5s-2.4-5.5-2.4-5.5-5.5.2-7.4 0-1.9-1.9-5.3-4.3-2.6-1-4.8-1.4c-2.2-.5-1.5-.4-5.5-5-2-2.4-2.5-2.5-4.8-1.3-1.2.6-1.8-.2-3.1 1.7-1.5 2.2-1.4 2.9-1.2 5.8.2 2.9-4.8 3.6-4.8 3.6v26.9s16-.5 23.5-.8c7.5-.3 9.6 3 9.6 3s-2.1-.8-5.6-1.8c-3.5-1-27.5 1.8-27.5 1.8v6.4s12.3.3 17.1-1.1c4.8-1.4 10.9.5 13.6 2.1 0 0-8.3-2.4-11.2-1.3C144.6 69 128 70 128 70v106.8s18.2.3 28.1-12.1zM138.7 84c3.2 1.6 8-.8 12.3-2.8 4.3-2 15.8-1.8 15.8-1.8l-2.2 1.8 3 1.6h-2.2l4 2.1c-3.2-1.3-7.3-.5-12.6-.5-5.6 0-12.8 4.6-16 4.2l.2.7c-3.3-2.4-2.3-5.3-2.3-5.3z"/><path fill="#4C3F38" d="M128 32.7s5-.7 4.8-3.6c-.2-2.9-.4-3.6 1.2-5.8 1.3-1.8 1.9-1.1 3.1-1.7 2.4-1.2 2.8-1 4.8 1.3 4 4.7 3.4 4.6 5.5 5 2.2.5 1.4-1 4.8 1.4s3.4 4.1 5.3 4.3 7.4 0 7.4 0 1 .2 2.4 5.5 1.2 4.6 4.3 6.5c3.1 1.9 4.1 1 4.8 4.6.7 3.6 1 4.1 1.2 6.7.2 2.6 2.4 5.3 2.4 5.3l-3.8-2.6s1.2 6 2.6 9.8h-1.4s1.2 8.4 2.6 11.8l-1.9-1.7s.3 2.7.7 5.7c.1-.2.4-.6 1.1-1.2 1.9-1.8 2.9-1.1 2.8-2.8-.1-1.8 0-2.7 0-2.7s-.7.2 0-.8.7 1 .7-1c0-1.9.2-1.9 0-2.7-.2-.8-.7-1.4-.7-1.4l-.6-1.8c.5.3 2.4.6 2.7 2.7.3 2.1.5 4.6 1.6 5.9s2.1 1.8 1.6 3.2c-.5 1.4-1.8 3.4-1.8 3.4s.3-3.4-1.1-3.2-2.4 2.6-2.4 3.2-1.8-.3.3 1.9 2.4 1.4 3 3.2c.6 1.8 1.9.5 1.6 1.8 1.9-2.6 1.9-2.6 1.9-4.3s-1.7-1 0-1.7c1.4-.6 3.5-.9 4.1-.9h.2s7.7-7.4 3.4-11.5c0 0-1.5 7.2-4.8 6.7s.2-2.9 0-5.5-2-1.7 0-4.3c2-2.6 1.7-2.9 2.7-3.8s3.6 1.4 3.5-2.4 1.3-4.1 0-5.5c-1.3-1.4-2.5-1.9-2.5-2.9v-3.1c0-1.7-1.7-6-1.7-6s1.7-1.4 0-3.8-2-3.4-2-3.4 3.2-7.6 2.2-9.3-1.4-2.6-1.4-3.4c0-.7 1.4-1 .2-2.6-1.2-1.7-3.1-3.1-3.1-3.1s1.5-2.7 1.3-5.2l-2.1-1.2c.5 1.6.3 3.6-2 5.5 0 0-.7-1-1.2-1.7s-1.9-2.4-1.9-2.4v-1.7l-.4-2.6c-1.8-.9-3.6-1.7-5.4-2.5l-1.6 1.2-8.6-4.6s-.1-.3-.2-.5c-.7-.2-1.5-.5-2.2-.7-.6-.1-1.3-.2-2.1 0-1.4.3.5.6-2.6 0s-3.6 4.6-4.8 3.7c-1.2-1-2.6-1.4-3.8-3.1-1.2-1.7-.5-1.9-2.9-3.8-.3-.3-.6-.5-.9-.7C141.9.6 135 0 128 0v32.7zm50.8 53.4c0 .3.1.6.1.9.1-.4 0-.7-.1-.9zm.6 14.8v.8c.1-.1.1-.4 0-.8z"/><path fill="#A78573" d="M140.9 89.3l-.2-.7c3.2.4 10.4-4.2 16-4.2 5.3 0 9.4-.8 12.6.5l-4-2.1h2.2l-3-1.6 2.2-1.8s-11.5-.3-15.8 1.8c-4.3 2-9.1 4.4-12.3 2.8.1 0-.9 2.9 2.3 5.3z"/><path fill="#C09882" d="M155.5 60.1c3.5 1 5.6 1.8 5.6 1.8s-2.1-3.4-9.6-3c-7.5.3-23.5.8-23.5.8v2.2s24-2.8 27.5-1.8zm3.2 9.1c-2.7-1.6-8.8-3.5-13.6-2.1-4.8 1.4-17.1 1.1-17.1 1.1V70s16.6-1 19.5-2.1c2.9-1.1 11.2 1.3 11.2 1.3z"/><path fill="#6C5A51" d="M178.8 86.1c.1.2.1.5.1.9 0 1.8-.3 1.9-.5 2.7s.5-1 .8 2.2.2 2.2-.1 3.6c-.3 1.3-.2 2 .2 4.6 0 .4.1.7.1.9v.8c0 .3-.2 0-.3.4-.2.6.8 1.3.8 3.7s-.3 1-2.1 3 0 1.4 0 2.3 0 0 1.3 3.2 0 1.8 0 4.8c0 .9.2 1.1.5 1 .7-.2 1.9-2.6 1.9-3.4 0-1.1 0 0 .4-1.4s1.2-.8 1.8-2.1c.6-1.3 0 0 .5-1.1s0-.8.5-3.2c.5-2.4 0 0 .3-2.4s.2-2.6.7-3c.5-.5.8-1.3 1.6-2.2.8-1 0-1.6-.6-2.7s.6-4.2 1-5.5c.3-1.3-1-.1-1.6-1.8-.6-1.8-1-1-3-3.2s-.3-1.3-.3-1.9 1-3 2.4-3.2 1.1 3.2 1.1 3.2 1.3-1.9 1.8-3.4c.5-1.4-.5-1.9-1.6-3.2s-1.3-3.8-1.6-5.9c-.3-2.1-2.2-2.4-2.7-2.7l.6 1.8s.6.6.7 1.4c.2.8 0 .8 0 2.7 0 1.9 0 0-.7 1s0 .8 0 .8-.1 1 0 2.7c.1 1.8-.9 1.1-2.8 2.8-.7.6-1 .9-1.1 1.2-.3 0-.2.2-.1.6z"/><path fill="#3C4A57" d="M159.3 228.2l7-9.3c-3.6-14.2 3.9-33.1 5.5-42.1 1.7-9.1-2.2-17.5-2.2-17.5v-.1c-11.6 23.1-41.7 23.7-41.7 23.7v45.3h31.4z"/><path fill="#262524" d="M175.2 190.9c-4.7 7.1-8.1 24.4-8.7 27.8l13.7-18.2 3.9-21.2c-4.5 1.3-4.9 5.6-8.9 11.6z"/><path fill="#373736" d="M224.5 197.1c-.2-1.5-.5-2.6-1.1-3.4-.4-.6-2.6-1.8-5.6-3.4-.6 7.1-4.6 24-7.7 35.8 4.7-4 9.2-8.3 13.3-12.9 0-.1 0-.3.1-.4.9-6.5 1.5-12.1 1-15.7zm-67.4 41.7l10.5-12.5s4.3.4 10.8 2.3c.8-2.5 2.2-5.6 3.3-9.3 2-7.1 9.2-31.9 11.5-39.9-1.2-.2-2.2-.3-3.1-.4-2.6-.2-4.5-.1-6 .3l-3.9 21.2-13.7 18.2c-.1.4-.1.6-.1.6 0-.1-.1-.2-.1-.3l-7 9.3H128v9.3l29.1 1.2z"/><path fill="#484544" d="M217.9 190.4c.1-1 .1-1.8 0-2.4-.2-1.7-2.2-3.3-4.9-4.8-7.1-1.4-14.6-3.1-19.8-3.9-2.3 8-9.5 32.8-11.5 39.9-1.1 3.8-2.5 6.9-3.3 9.3 5 1.4 11.4 3.8 18.2 7.5 4.7-3 9.2-6.3 13.5-9.9 3.2-11.7 7.2-28.6 7.8-35.7z"/><path fill="#7A7877" d="M178.4 228.6c-6.5-1.9-10.8-2.3-10.8-2.3l-10.5 12.5-29.1-1.2v18.5c11.5 0 22.6-1.5 33.2-4.4 2.7-2.2 6.2-3.5 9.9-3.5.4 0 .7 0 1.1.1 8.6-3.2 16.8-7.2 24.4-12.1-6.7-3.8-13.1-6.2-18.2-7.6z"/><path fill="#514E4F" d="M169.7 159.2c0 .1 3.9 8.5 2.2 17.6-1.7 9-9.2 27.9-5.5 42.1 0 .1.1.2.1.3 0 0 0-.2.1-.6.6-3.4 4-20.7 8.7-27.8 4-6 4.4-10.3 8.9-11.6 1.5-.4 3.4-.6 6-.3.9.1 2 .2 3.1.4 5.2.8 12.6 2.5 19.8 3.9 9.9 1.9 19.1 3.1 21.2.5 0 0-8.6-4.5-15.1-6.9-6.5-2.4-47.4-24.4-47.5-24.4l-2 6.8z"/><path fill="#484544" d="M161.2 251.6c3.7-1 7.4-2.2 11-3.5-.4 0-.7-.1-1.1-.1-3.7.1-7.2 1.4-9.9 3.6z"/><path fill="#34424E" d="M31.5 197.1c-2.9.6-6.6 1.6-8.9 3.4 3.1 4.5 6.5 8.8 10.1 12.8 0-.1 0-.3-.1-.4-1-6.6-1.6-12.2-1.1-15.8z"/><path fill="#B17D6B" d="M99.9 164.7c-6.3-7.9-12.1-12.6-16.2-17.9.2 1.7.5 3.6.7 5.7l1.9 6.8C97.9 182.4 128 183 128 183v-6.1c0-.1-18.2.2-28.1-12.2zm-25.5-48.1c0-1.1 0 0-.4-1.4s-1.2-.8-1.8-2.1c-.6-1.3 0 0-.5-1.1s0-.8-.5-3.2c-.5-2.4 0 0-.3-2.4s-.2-2.6-.7-3c-.5-.5-.8-1.3-1.6-2.2-.8-1 0-1.6.6-2.7s-.6-4.2-1-5.5c-1.9-2.6-1.9-2.6-1.9-4.3s1.7-1 0-1.7c-1.4-.6-3.5-.9-4.1-.9-1.1 2.5-1.9 5.3-2.1 6.4-.2 1.9-1.2 0 1.9 7.7 3.1 7.7 7.4 13.9 7.4 17 0 3.1-2.2 7.9 1.4 9.8 1.5.8 3.8-.3 6-1.8-.2-1.6-.5-3.3-.7-5.1-.5-.3-1.7-2.7-1.7-3.5z"/><path fill="#C08C76" d="M123.2 29.1c.2-2.9.4-3.6-1.2-5.8-1.3-1.8-1.9-1.1-3.1-1.7-2.4-1.2-2.8-1-4.8 1.3-4 4.7-3.4 4.6-5.5 5-2.2.5-1.4-1-4.8 1.4s-3.4 4.1-5.3 4.3-7.4 0-7.4 0-1 .2-2.4 5.5-1.2 4.6-4.3 6.5c-3.1 1.9-4.1 1-4.8 4.6-.7 3.6-1 4.1-1.2 6.7-.2 2.6-2.4 5.3-2.4 5.3l3.8-2.6s-1.2 6-2.6 9.8h1.4s-1.2 8.4-2.6 11.8l1.9-1.7s-.3 2.7-.7 5.7c.2.3 0 .5-.1.9 0 .3-.1.6-.1.9 0 1.8.3 1.9.5 2.7s-.5-1-.8 2.2c-.3 3.2-.2 2.2.1 3.6.3 1.3.2 2-.2 4.6 0 .4-.1.7-.1.9v.8c0 .3.2 0 .3.4.2.6-.8 1.3-.8 3.7s.3 1 2.1 3 0 1.4 0 2.3 0 0-1.3 3.2 0 1.8 0 4.8c0 .9-.2 1.1-.5 1 .2 1.7.5 3.4.7 5.1.6 4.2 1.2 7.9 1.8 10.8.8 4.3 2.5 7.7 4.9 10.8 4 5.4 9.9 10.1 16.2 17.9 9.9 12.5 28.1 12.1 28.1 12.1V70s-16.6-1-19.5-2.1c-2.9-1.1-11.2 1.3-11.2 1.3 2.7-1.6 8.8-3.5 13.6-2.1 4.8 1.4 17.1 1.1 17.1 1.1v-6.4s-23.9-2.7-27.5-1.8c-3.5 1-5.6 1.8-5.6 1.8s2.1-3.4 9.6-3c7.5.3 23.5.8 23.5.8V32.7s-5-.7-4.8-3.6zM105 81.2c4.3 2 9.1 4.4 12.3 2.8 0 0 1 2.9-2.2 5.3l.2-.7c-3.2.4-10.4-4.2-16-4.2-5.3 0-9.4-.8-12.6.5l4-2.1h-2.2l3-1.6-2.2-1.8c-.1 0 11.4-.2 15.7 1.8z"/><path fill="#2E251F" d="M65.7 22.1s-1.9 1.4-3.1 3.1c-1.2 1.7.2 1.9.2 2.6 0 .7-.5 1.7-1.4 3.4s2.2 9.3 2.2 9.3-.3 1-2 3.4 0 3.8 0 3.8S60 52 60 53.6v3.1c0 1-1.2 1.4-2.5 2.9s.1 1.7 0 5.5 2.5 1.4 3.5 2.4.7 1.2 2.7 3.8c2 2.6.2 1.7 0 4.3s3.3 5 0 5.5-4.8-6.7-4.8-6.7C54.5 78.5 62.1 86 62.1 86h.2c.6.1 2.7.3 4.1.9 1.7.7 0 0 0 1.7s0 1.7 1.9 4.3c-.3-1.3 1-.1 1.6-1.8s1-1 3-3.2.3-1.3.3-1.9-1-3-2.4-3.2-1 3.2-1 3.2-1.3-1.9-1.8-3.4c-.5-1.4.5-1.9 1.6-3.2 1.1-1.3 1.3-3.8 1.6-5.9.3-2.1 2.2-2.4 2.7-2.7l-.6 1.8s-.6.6-.7 1.4c-.2.8 0 .8 0 2.7 0 1.9 0 0 .7 1s0 .8 0 .8.1 1 0 2.7c-.1 1.8.9 1.1 2.8 2.8.7.6 1 .9 1.1 1.2.4-3.1.7-5.7.7-5.7L76 81.2c1.4-3.3 2.6-11.8 2.6-11.8h-1.4c1.4-3.8 2.6-9.8 2.6-9.8L76 62.3s2.2-2.6 2.4-5.3c.2-2.6.5-3.1 1.2-6.7s1.7-2.6 4.8-4.6c3.1-1.9 2.9-1.2 4.3-6.5s2.4-5.5 2.4-5.5 5.5.2 7.4 0 1.9-1.9 5.3-4.3 2.6-1 4.8-1.4c2.2-.5 1.5-.4 5.5-5 2-2.4 2.5-2.5 4.8-1.3 1.2.6 1.8-.2 3.1 1.7 1.5 2.2 1.4 2.9 1.2 5.8-.2 2.9 4.8 3.6 4.8 3.6V0c-7 0-13.9.6-20.6 1.7-.3.2-.6.5-.9.7-2.4 1.9-1.7 2.2-2.9 3.8-1.2 1.7-2.7 2.2-3.8 3.1-1.2 1-1.7-4.3-4.8-3.7-3.1.6-1.2.3-2.6 0-.8-.2-1.5-.1-2.1 0-.7.2-1.5.5-2.2.7-.1.3-.2.5-.2.5l-8.6 4.6-1.6-1.2c-1.8.8-3.6 1.6-5.4 2.5l-.4 2.6V17s-1.4 1.7-1.9 2.4-1.2 1.7-1.2 1.7c-2.3-1.9-2.5-3.9-2-5.5l-2.1 1.2c-.4 2.6 1 5.3 1 5.3zM77 87c0-.3.1-.6.1-.9 0 .2-.1.5-.1.9zm-.5 14.7v-.8.8z"/><path fill="#6C5A51" d="M89.2 79.4l2.2 1.8-3 1.6h2.2l-4 2.1c3.2-1.3 7.3-.5 12.6-.5 5.6 0 12.8 4.6 16 4.2l-.2.7c3.2-2.4 2.2-5.3 2.2-5.3-3.2 1.6-8-.8-12.3-2.8s-15.7-1.8-15.7-1.8z"/><path fill="#A48270" d="M94.9 61.9s2.1-.8 5.6-1.8c3.5-1 27.5 1.8 27.5 1.8v-2.2s-16-.5-23.5-.8c-7.5-.4-9.6 3-9.6 3zm16 5.2c-4.8-1.4-10.9.5-13.6 2.1 0 0 8.3-2.4 11.2-1.3C111.4 69 128 70 128 70v-1.8s-12.3.4-17.1-1.1z"/><path fill="#4C3F38" d="M69.3 98.4c-.6 1.1-1.4 1.8-.6 2.7.8 1 1.1 1.8 1.6 2.2.5.5.4.6.7 3 .3 2.4-.2 0 .3 2.4s0 2.1.5 3.2-.2-.2.5 1.1c.6 1.3 1.4.6 1.8 2.1s.4.3.4 1.4c0 .8 1.2 3.2 1.9 3.4.3.1.5-.2.5-1 0-3-1.3-1.6 0-4.8 1.3-3.2 1.3-2.2 1.3-3.2s1.8-.3 0-2.3c-1.8-2-2.1-.6-2.1-3s1-3 .8-3.7c-.1-.4-.2-.1-.3-.4v-.8c0-.2.1-.5.1-.9.3-2.6.5-3.2.2-4.6-.3-1.3-.4-.4-.1-3.6.3-3.2 1-1.4.8-2.2s-.6-.7-.6-2.4c0-.4 0-.6.1-.9.1-.4.3-.6.1-.9-.1-.2-.4-.6-1.1-1.2-1.9-1.8-2.9-1.1-2.8-2.8.1-1.8 0-2.7 0-2.7s.7.2 0-.8-.7 1-.7-1c0-1.9-.2-1.9 0-2.7.2-.8.7-1.4.7-1.4l.6-1.8c-.5.3-2.4.6-2.7 2.7-.3 2.1-.5 4.6-1.6 5.9-1.1 1.3-2.1 1.8-1.6 3.2.5 1.4 1.8 3.4 1.8 3.4s-.3-3.4 1.1-3.2 2.4 2.6 2.4 3.2 1.8-.3-.3 1.9-2.4 1.4-3 3.2-1.9.5-1.6 1.8c.3 1.3 1.5 4.4.9 5.5z"/><path fill="#34424E" d="M86.3 159.2c0 .1-3.9 8.5-2.2 17.6 1.7 9 9.2 27.9 5.5 42.1l7 9.3H128v-45.3s-30.1-.6-41.7-23.7z"/><path fill="#131110" d="M80.8 190.9c-4-6-4.4-10.3-8.9-11.6l3.9 21.2 13.7 18.2c-.6-3.4-4-20.7-8.7-27.8z"/><path fill="#262524" d="M38.1 190.4c-3.1 1.6-5.2 2.8-5.6 3.4-.6.7-.9 1.9-1.1 3.4-.4 3.6.2 9.2 1.1 15.8 0 .1 0 .3.1.4 4.1 4.6 8.6 8.9 13.3 12.9-3.2-11.9-7.2-28.8-7.8-35.9zm58.6 37.8l-7-9.3c0 .1-.1.2-.1.3 0 0 0-.2-.1-.6l-13.7-18.2-3.9-21.2c-1.5-.4-3.4-.6-6-.3-.9.1-2 .2-3.1.4 2.3 8 9.5 32.8 11.5 39.9 1.1 3.8 2.5 6.9 3.3 9.3 6.5-1.9 10.8-2.3 10.8-2.3l10.5 12.5 29.1-1.2v-9.3H96.7z"/><path fill="#373736" d="M77.6 228.6c-.8-2.5-2.2-5.6-3.3-9.3-2-7.1-9.2-31.9-11.5-39.9-5.2.8-12.6 2.5-19.8 3.9-2.7 1.5-4.7 3.1-4.9 4.8-.1.6-.1 1.4 0 2.4.6 7.1 4.6 24 7.7 35.8 4.3 3.6 8.8 6.9 13.5 9.9 6.8-3.8 13.2-6.2 18.3-7.6z"/><path fill="#69696A" d="M128 247.4v-9.8l-29.1 1.2-10.5-12.5s-4.3.4-10.8 2.3c-5 1.4-11.4 3.8-18.2 7.5 7.6 4.9 15.8 8.9 24.4 12.1.4 0 .7-.1 1.1-.1 3.8 0 7.2 1.3 9.9 3.5 10.6 2.8 21.7 4.4 33.2 4.4v-8.6z"/><path fill="#484544" d="M71.9 179.2c4.5 1.4 4.9 5.7 8.9 11.6 4.7 7.1 8.1 24.4 8.7 27.8.1.4.1.6.1.6 0-.1.1-.2.1-.3 3.6-14.2-3.9-33.1-5.5-42.1-1.7-9.1 2.2-17.5 2.2-17.5v-.1l-1.9-6.8s-41 22-47.5 24.4c-6.5 2.4-15.1 6.9-15.1 6.9 2 2.7 11.3 1.4 21.2-.5 7.1-1.4 14.6-3.1 19.8-3.9 1.2-.2 2.2-.3 3.1-.4 2.5-.2 4.4-.1 5.9.3z"/><path fill="#262524" d="M83.8 248.2c3.6 1.3 7.3 2.5 11 3.5-2.7-2.2-6.2-3.5-9.9-3.5-.4-.1-.8-.1-1.1 0z"/></svg>