<svg xmlns="http://www.w3.org/2000/svg" width="256" height="256"><circle fill="#B1B3B5" cx="128" cy="128" r="128"/><path fill="#310E0D" d="M29.3 179.1l-10.7 1.4-.2-.4c-2 .8-4.1 1.7-6.2 2.6 4.7 9.9 10.6 19.2 17.6 27.5.1-.9.3-1.6.5-2.2l-1-28.9z"/><path fill="#282626" d="M29.3 179.1l-.2-6.4s3-3.2 10.1-1.5l6.7-1.4v-2.7L25.5 169l-8.9 6.9 1.9 4.2.2.4 10.6-1.4z"/><path fill="#3B3939" d="M216.8 171.2c7.1-1.7 10.1 1.5 10.1 1.5l-.1 3.6c1.8.5 5.9 1.8 10.7 3.7l1.9-4.2-8.9-6.9-20.4-1.9v2.7l6.7 1.5z"/><path fill="#462121" d="M226.8 176.3l-1.1 31.7c.2.6.3 1.3.5 2.2 7-8.3 12.9-17.6 17.6-27.5-2.1-1-4.2-1.9-6.2-2.6-4.9-2-9-3.3-10.8-3.8z"/><path fill="#952B38" d="M182.9 203.4c-6.7 0-39 19.8-39 19.8l-10 32.7c31.5-1.4 60.1-14.3 81.6-34.5-1.9-10.2-3.6-17.1-3.6-17.1s-22.3-1-29-.9z"/><path fill="#4C5352" d="M206 173.3l-.5-2.4-.4 2.3 2.8.6zm-7.9-4.4l-1 2.7-2.3-.4 3.1.6zm-1.2 6.5c-.7.2-.8 1.7-.8 3.1l1.3.2.2-3.4c-.3 0-.5.1-.7.1zm8 4.4c.2-.9.4-1.8.6-2.3.1-.3-.3-.6-1-.9l-.6 3.1 1 .1z"/><path fill="#4C5352" d="M210.2 171.6s-.7-.2-1.8-.4l.2.4-.6 2.2-1.2 6.3-2.4 18.1-9.5-.4.3-16.6h-.3v-11.6c-2.4-.6-7.9-2.7-10.8-3.5-.6-.1-1.2-.1-1.7-.2-.4.9-3.5 8.1-4.3 9.8-.8 1.8-15.6 19.1-45.1 21.4v4.6c0 1.6-3.6 2.6-3.7 0s0-5.5 0-5.5h-1.1V234c.8 0 3.9 0 6.4-.4l3.9-13.3s36.1-19.6 41.9-21.2c5.8-1.6 32.3 0 32.3 0l4.2-27.9-6.7-1.4v1.8z"/><path fill="#392F2A" d="M180.6 157.8l.8 6.2s9.5 1.3 13.4 3.5l.5.5 3.2-3.9 8.1 2.3 1.8 4.8c1.1.3 1.8.4 1.8.4v-8c-4.8-1.8-12.4-3.6-18.9-4.9l-10.7-.9zm1.8 8.2c.5.2 1.1.2 1.7.3-.9-.3-1.5-.4-1.7-.3z"/><path fill="#080505" d="M166.3 158.6l.1.1-.1-.1zm8.6 9.4c.9-3 1-5.4.8-7.2l-.1-.3v.1c-.3-1.8-.8-2.8-.8-2.8l-8.5 1c2.7 4.2 6.3 5.4 6.3 5.4l.6 2.8 1.7 1z"/><path fill="#3B3939" d="M142.7 174.7s-.4 8.3.1 8.1c.3-.1 1.7-.7 3-1.3.1-.1.3-.1.4-.2l1.4-.7c12.6-5.7 19.5-16.1 19.5-16.1l-2.3-2.2 1-1-3-4.2c-3.5 8-13.1 12.9-16.1 14.2l.1.4-4.1 3zm16.1-22.7l4.5-3.3c0 .3 0 .6.1.8.1-2.7.4-5.6.7-7.7-.1.1-.2.3-.2.4-1.8 3.7-3.8 6.8-5.1 9.8z"/><path fill="#3B3939" d="M162.4 155.6l-.8-3-4.3 2.7c-.6 1-1.2 2-1.9 2.9-1 2.3-3.7 7.5-8.8 11.8v.1c13-5.3 15.8-14.5 15.8-14.5zM132 179.3s4.3-.4 6-1.4c0 0-.2 3.3-2.1 4.3-1.9 1-3.1 2-3.1 2s3.7-1.4 4.8-2.6l1.6 1.7v3.1h1.3v-12.6c-.7.3-1.4.7-2.1.9-.9 1.4-3.2 4-6.4 4.6z"/><path fill="#3B3939" d="M166.2 181l.2-.2c-.1-1.3 1.2-2.9 4.9-6.2 0 0 .4-.5 1.1-1.2 1.2-1.9 1.9-3.7 2.5-5.3l-1.6-1.1.6 2.8-5.6-2.8c-6.9 8.5-18.5 14.4-21.6 15.9l-3.9 2.2-.2 1.8s-1.2.9-3.7 1c0 0-3.3 4.4-5.3 4.9-1.7.5-4.6.1-5.4 0v1.2c2.3 0 25.1-.4 38-13z"/><path fill="#74716D" d="M145.9 181.6c.2-.1.3-.1.4-.2-.2 0-.3.1-.4.2zm12.9-29.6c-.1.2-.2.4-.2.5-.4.9-.8 1.8-1.3 2.7l4.3-2.7.8 3s-2.8 9.2-15.8 14.6l.2 1.5c3-1.3 12.6-6.2 16.1-14.2l3 4.2-1 1 2.3 2.2s-6.9 10.4-19.5 16.1l-.5 1.8-.5.3c3.1-1.5 14.7-7.4 21.6-15.9l5.6 2.8-.6-2.8-.6-2.8s-3.6-1.2-6.3-5.4l-.1-.1-.9-1.5c-1-2-1.7-4.4-2-7.5 0-.3 0-.6-.1-.8l-4.5 3z"/><path fill="#8F8A85" d="M128.1 192.8c.8.1 3.7.4 5.4 0 2-.5 5.3-4.9 5.3-4.9 2.5-.1 3.7-1 3.7-1l.2-1.8 3.9-2.2.5-.3.5-1.8-1.4.7c-.1.1-.3.1-.4.2-1.3.6-2.7 1.2-3 1.3-.5.1-.1-8.1-.1-8.1l4.1-2.7-.1-.4-.2-1.5v-.1c-1.7 1.4-3.6 2.8-5.9 3.9v12.6h-1.3v-3.1l-1.6-1.7c-1.1 1.2-4.8 2.6-4.8 2.6s1.1-1 3.1-2c1.9-1 2.1-4.3 2.1-4.3-1.7 1-6 1.4-6 1.4 3.1-.6 5.5-3.2 6.5-4.4-3 1.2-6.4 1.9-10.4 1.9v15.7h-.1z"/><path fill="#C08C76" d="M174 91.1c-.5.3-2.1 4-2.1 4s.6 1.8 0 2.4-1.6 9.7-1.4 12c.2 2.2 0 4.8 0 5.7s-1.6 5.4-1.6 5.4 0 .8-.1 2c5.6-2.1 6-5.8 7.6-10.3 1.8-5.3 2.5-11.3 4.2-15.8s1.7-9.1 0-12.2c-.5-1-1.7-.7-3.1.1.1 1.2.2 2.1.2 2.1s-3.2 4.3-3.7 4.6zm-5.1 29.5s0 .1 0 0c0 .1 0 0 0 0z"/><path fill="#D7A990" d="M140.2 158s-3 1.6-3.5 3.4c-.5 1.8-1.6 3.7-.5 4.3 1.1.6 6.1 2.1 8.3 0 2.2-2.1 1.4-.6 4.3-5.6 2.9-4.9 2.9-1.8 5.1-7.2s1.3-7 3-10.1c1.7-2.9 11.2-20.8 11.9-22.1v-.1c-.1-.2-1.4-2.4-1.4-3.5v-3.2c0-2.4.1-5.1.4-6.3.3-1.1.9-10.5.4-12.6-.5-2.1-2.1-3.8-3.8-7.7-1.8-3.8-1.3-16.4-1.8-19.8-.5-3.4-3.4-11.5-4.5-9.9s-3.8 3.4-5.4 2.7-12.1-3.4-12.1-3.4V59c-2.5-2.3-11.1-3.9-12.6-4.1V143c3.5-.1 5.9-1.3 7.9-2.1 2.1-.8 3.7 1.4 6.2 1.4s9.4 5.4 8.8 6.3c-.6.9-4.5-3.5-10.5-2.4-5.4 1-11.2.2-12.4 0V159c1.3.1 7.7.7 12.2-1zm-3.2-52.1c.2-2.9 3.1-2.4 8.1-4.3s10.1-1.4 14.1-1.2c4.1.2 5 2.9 4.6 4.2s-7.7.3-11.7-1c-4.1-1.3-15.1 2.3-15.1 2.3zm21.5 46.7c.1-.2.2-.4.2-.5 1.4-3 3.3-6.1 5.1-9.8-3 5.4-6.9 12.3-8.5 15.9.7-1 1.3-2 1.9-2.9.5-1 1-1.8 1.3-2.7z"/><path fill="#7C685D" d="M163.8 104.6c.5-1.4-.5-4-4.6-4.2-4.1-.2-9.1-.7-14.1 1.2s-7.9 1.4-8.1 4.3c0 0 11-3.5 15.1-2.2 4 1.2 11.2 2.3 11.7.9z"/><path fill="#C79D86" d="M168.9 120.7c-.7 1.3-10.2 19.2-11.9 22.1-1.8 3-.8 4.6-3 10.1s-2.2 2.2-5.1 7.2c-2.9 4.9-2.1 3.5-4.3 5.6-2.2 2.1-7.2.6-8.3 0-1.1-.6 0-2.6.5-4.3.5-1.8 3.5-3.4 3.5-3.4-4.5 1.7-10.9 1.1-12.1 1v17.9c3.9 0 7.4-.8 10.4-1.9.7-.3 1.5-.6 2.1-.9 2.2-1.1 4.2-2.5 5.9-3.9 5-4.3 7.7-9.5 8.8-11.8 1.6-3.6 5.5-10.6 8.5-15.9.1-.1.2-.3.2-.4.5-.9 1-1.7 1.4-2.5 2.3-4.1 3.1-12.8 3.3-16.7.1-1.5.1-2.3.1-2.2 0-.1 0 0 0 0z"/><path fill="#C79D86" d="M128.1 146.3c1.1.2 7 1 12.4 0 6.1-1.1 9.9 3.3 10.5 2.4.6-.9-6.2-6.3-8.8-6.3s-4.2-2.2-6.2-1.4c-2 .8-4.4 2-7.9 2.1v3.2z"/><path fill="#493937" d="M128.1 50.1V55c1.5.2 10.1 1.8 12.6 4.1V57s10.5 2.7 12.1 3.4 4.3-1.1 5.4-2.7 4 6.5 4.5 9.9c.5 3.4 0 16 1.8 19.8 1.8 3.8 3.4 5.6 3.8 7.7.5 2.1-.1 11.5-.4 12.6-.3 1.1-.4 3.9-.4 6.3v3.2c0 1.1 1.3 3.2 1.4 3.5s1.6-4.5 1.6-5.4.2-3.5 0-5.7.8-11.3 1.4-12 0-2.4 0-2.4 1.6-3.7 2.1-4c.5-.3 3.7-4.6 3.7-4.6s-.1-.9-.2-2.1c-.1-1.6-.2-3.5.2-4.1.6-1.1.5-3.2 0-3.8-.5-.6 1.6-3 1.6-3l-1.3-1s3.2-1 2.6-2.4-1.4-3.2-1.4-3.2 1.3-5.7 2.6-6.5c1.3-.8 2.1-4.3 2.1-5.3s-1.6-2.2-1.6-2.2l.5-1.9s-.5-2.1-.5-2 0-3.8-.6-5c-.6-1.3-2.4-7.2-8.8-8.3 0 0 1.3-.8 1.8-3.7.5-2.9 1.6-3.5 0-6.7s3-.8-2.9-4.8-.6-1.4-5.9-4c-5.3-2.6-3.7-1.3-8-3.7-1.9-1.1-2.7-1.5-3-1.7v2.4s-2.9-1.8-4.3-2.5-20.1-2.3-22.3-2.5v41.5zm-.2-41.7zm26.8 2.6s-.4-.2 0 0z"/><path fill="#A19D97" d="M165.4 157.1l.9 1.5.1.1 8.5-1s.5 1 .8 2.8v.2c.2 1.8.2 4.2-.8 7.2-.5 1.6-1.3 3.4-2.5 5.3 1.5-1.6 4.2-4.1 5.3-3 2.1 2.1-.6 5.9-2.3 7.2-1.7 1.4-7.3 6.2-8.5 4.5-.3-.4-.5-.8-.5-1.3l-.2.2c-12.9 12.6-35.7 13-38.1 13v2.2h1.1s-.1 2.9 0 5.5 3.7 1.6 3.7 0v-4.6c29.6-2.3 44.3-19.6 45.1-21.4.8-1.7 3.9-8.9 4.3-9.8v-.1c.2-.1.8 0 1.7.3 2.9.8 8.4 2.9 10.8 3.5v-1l.5-.6-.5-.5c-4-2.2-13.4-3.5-13.4-3.5l-.8-6.2 10.7.9c-7.5-4.5-14.8-3.3-17.4-3.2-2.7.4-8.5 1.8-8.5 1.8z"/><path fill="#E83733" d="M166.4 180.7c0 .4.2.9.5 1.3 1.2 1.7 6.8-3.1 8.5-4.5 1.7-1.4 4.3-5.2 2.3-7.2-1.1-1.1-3.8 1.4-5.3 3-.6.7-1.1 1.2-1.1 1.2-3.6 3.3-4.9 4.9-4.9 6.2z"/><path fill="#3B3939" d="M129.6 249.9H128v6.1l5.5-19.1-3.1.3z"/><path fill="#8F8A85" d="M128.1 234v16h1.5l.8-12.7 3.1-.4 1-3.3c-2.5.4-5.6.4-6.4.4z"/><path fill="#080505" d="M204.6 182.4s.1-1.3.4-2.6l-1-.1-.1.4c-3 1.3-6.5-1-6.5-1v-.3l-1.3-.2c0 1.4.2 2.7.2 2.7h-1.2l-.3 16.6 9.5.4 2.4-18.1-.4 2.3h-1.7z"/><path fill="#E83733" d="M197.1 171.6l1-2.7 7.4 2 .5 2.4 1.9.5.7-2.2-.2-.4-1.8-4.8-8.1-2.3-3.2 4-.5.6v2.5z"/><path fill="#74716D" d="M205.1 173.2l-.6 3.4c.7.3 1.2.6 1 .9-.2.5-.4 1.4-.6 2.3l-.4 2.6h1.8l.4-2.3 1.2-6.3-2.8-.6zm-9 5.3c0-1.4.1-3 .8-3.1.2 0 .4-.1.7-.1l.3-3.6-3.1-.6v10.1h1.5s-.2-1.3-.2-2.7z"/><path fill="#392F2A" d="M197.6 175.3l-.2 3.4v.3s3.5 2.3 6.5 1l.1-.4.6-3.1.6-3.4.4-2.4-7.4-1.9-.2 2.8-.4 3.7z"/><path fill="#A19D97" d="M226.8 176.3l.1-3.6s-3-3.2-10.1-1.5l-4.2 27.9s-26.5-1.6-32.3 0c-5.8 1.6-41.9 21.2-41.9 21.2l-3.9 13.3-1 3.3L128 256c2 0 3.9-.1 5.9-.1l10-32.7s32.3-19.7 39-19.8c6.7 0 29.1.9 29.1.9s1.7 6.9 3.6 17.1c3.8-3.5 7.3-7.3 10.6-11.2-.1-.9-.3-1.6-.5-2.2l1.1-31.7zM214 204.8l1.4-9.7h5.3l1.8-22.8c2.7-1.4 3.8.5 3.8.5l-2.1 33.2-10.2-1.2z"/><path fill="#74716D" d="M226.3 172.7s-1.1-1.9-3.8-.5l-1.8 22.8h-5.3l-1.4 9.7 10.2 1.1 2.1-33.1z"/><path fill="#741C26" d="M73.1 203.4c-6.7 0-29.1.9-29.1.9s-1.7 6.9-3.6 17.1c21.6 20.2 50.1 33.1 81.7 34.5L112 223.2c.1-.1-32.2-19.8-38.9-19.8z"/><path fill="#2E3434" d="M50.9 173.2l-.4-2.3-.5 2.4-1.9.5zm9 5.3c0-1.4-.1-3-.8-3.1-.2 0-.4-.1-.7-.1l.2 3.4 1.3-.2zm-9.4-1c.2.5.4 1.4.6 2.3l1-.1-.6-3.1c-.7.2-1.2.6-1 .9zm7.4-8.6l.2 2.9 3.1-.6-2.3.4z"/><path fill="#2E3434" d="M128.1 234v-37.7h-1.3s.1 2.9 0 5.5-3.7 1.6-3.7 0v-4.6c-29.6-2.3-44.3-19.6-45.1-21.4-.8-1.7-3.9-8.9-4.3-9.8-.6.1-1.1.1-1.7.2-2.9.8-8.4 2.9-10.8 3.5v11.6h-.3l.3 16.6-9.5.4-2.4-18.1-1.2-6.3-.6-2.2.2-.4c-1.1.3-1.8.4-1.8.4v-1.8l-6.7 1.4 4.2 27.9s26.5-1.6 32.3 0c5.8 1.6 41.9 21.2 41.9 21.2l3.9 13.3c2.9.4 6.6.3 6.6.3z"/><path fill="#261D18" d="M73.6 166c-.2-.1-.8 0-1.7.3.6-.1 1.2-.2 1.7-.3zm-27.8 5.6s.7-.2 1.8-.4l1.8-4.8 8.1-2.3 3.2 3.9.5-.5c4-2.2 13.4-3.5 13.4-3.5l.8-6.2-10.7.9c-6.5 1.3-14.1 3-18.9 4.9v8z"/><path d="M89.7 158.6l-.1.1c.1 0 .1 0 .1-.1zm-7 8.3l.6-2.8s3.6-1.2 6.3-5.4l-8.5-1s-.5 1-.8 2.8v-.1l-.1.3c-.2 1.8-.2 4.2.8 7.2l1.7-1z"/><path fill="#1E1D1C" d="M100.7 158.2c-.7-1-1.3-2-1.9-3l-4.3-2.7-.8 3s2.8 9.2 15.8 14.6v-.1c-5.1-4.3-7.8-9.5-8.8-11.8zm16 28.3v-3.1l1.6-1.7c1.1 1.2 4.8 2.6 4.8 2.6s-1.1-1-3.1-2c-1.9-1-2.1-4.3-2.1-4.3 1.7 1 6 1.4 6 1.4-3.1-.6-5.5-3.2-6.5-4.4-.7-.3-1.5-.6-2.1-.9v12.6h1.4z"/><path fill="#1E1D1C" d="M109.7 181.4c.1.1.3.1.4.2 1.3.6 2.7 1.2 3 1.3.5.1.1-8.1.1-8.1l-4.1-2.7.1-.4c-3-1.3-12.6-6.2-16.1-14.2l-3 4.2 1 1-2.3 2.2s6.9 10.4 19.5 16.1c0-.3.6 0 1.4.4zM97.2 152c-1.4-3-3.3-6.1-5.1-9.8-.1-.1-.2-.3-.2-.4.2 2.1.5 5 .7 7.7 0-.3 0-.6.1-.8l4.5 3.3z"/><path fill="#1E1D1C" d="M128.1 192.7s-3.6.5-5.6 0c-2-.5-5.3-4.9-5.3-4.9-2.5-.1-3.7-1-3.7-1l-.2-1.8-3.9-2.2c-3.1-1.5-14.7-7.4-21.6-15.9l-5.6 2.8.6-2.8-1.6 1.1c.5 1.6 1.3 3.4 2.5 5.3.6.7 1.1 1.2 1.1 1.2 3.7 3.3 5 4.9 4.9 6.2l.2.2c13.7 13.3 38.3 13 38.3 13v-1.2h-.1z"/><path fill="#5D5B58" d="M90.6 157.1c-.3.5-.6 1.1-.9 1.5l-.1.1c-2.7 4.2-6.3 5.4-6.3 5.4l-.6 2.8-.6 2.8 5.6-2.8c6.9 8.5 18.5 14.4 21.6 15.9l-.5-.3-.5-1.8c-12.6-5.7-19.5-16.1-19.5-16.1l2.3-2.2-1-1 3-4.2c3.5 8 13.1 12.9 16.1 14.2l.2-1.5c-13-5.3-15.8-14.6-15.8-14.6l.8-3 4.3 2.7c-.5-.9-1-1.8-1.3-2.7-.1-.2-.2-.4-.2-.5l-4.5-3.3c0 .3 0 .6-.1.8-.3 3.3-1 5.8-2 7.8zm19.1 24.3c.1.1.3.1.4.2-.1-.1-.2-.2-.4-.2z"/><path fill="#74716D" d="M113.4 186.8s1.2.9 3.7 1c0 0 3.3 4.4 5.3 4.9s5.6 0 5.6 0v-16c-4 0-7.6-.7-10.6-1.9 1 1.2 3.3 3.9 6.5 4.4 0 0-4.3-.4-6-1.4 0 0 .2 3.3 2.1 4.3 1.9 1 3.1 2 3.1 2s-3.7-1.4-4.8-2.6l-1.6 1.7v3.1h-1.3v-12.6c-2.2-1.1-4.2-2.5-5.9-3.9v.1l-.2 1.5-.1.4 4.1 2.7s.4 8.3-.1 8.1c-.3-.1-1.7-.7-3-1.3-.2-.1-.3-.1-.4-.2l-1.4-.7.5 1.8.5.3 3.9 2.2.1 2.1z"/><path fill="#B17D6B" d="M86.5 120.6c-2-2.4-3.7-12.1-3.7-14.8 0-2.6-1.1-9.7 0-10.6 1.1-1 1.5-4.3-.5-6.6-.7-.8-1.6-2-2.4-3.3-1.9-1.5-3.7-2.3-4.4-1-1.7 3.1-1.7 7.7 0 12.2s2.3 10.6 4.2 15.8c1.5 4.5 2 8.2 7.6 10.3 0-.5-.1-.9-.1-1.2-.3-.2-.5-.5-.7-.8z"/><path fill="#C08C76" d="M128.1 146.3s-6.5 1.1-12.6 0-9.9 3.3-10.5 2.4c-.6-.9 6.2-6.3 8.8-6.3s4.2-2.2 6.2-1.4c2.1.8 4.5 2.1 8.1 2.1v-88s-20.3-3.8-24.2.6c-3.9 4.5-9.5 18.2-9.5 18.2s5.6-18.2 3.9-17.2-8.7 11.7-8.7 15.2.6 13.5.2 15.7-2.5 18.5-3.2 20.8c-.6 1.7.6 10 1.2 13.6 2.3 4.4 9.8 18.3 11.3 20.9 1.8 3 .8 4.6 3 10.1s2.2 2.2 5.1 7.2c2.9 4.9 2.1 3.5 4.3 5.6 2.2 2.1 7.2.6 8.3 0 1.1-.6 0-2.6-.5-4.3-.5-1.8-3.5-3.4-3.5-3.4 4.9 1.9 12.3 1 12.3 1v-12.8zm-35.9-41.7c-.5-1.4.5-4 4.6-4.2 4.1-.2 9.1-.7 14.1 1.2s7.9 1.4 8.1 4.3c0 0-11-3.5-15.1-2.2-4 1.2-11.2 2.3-11.7.9zm-.1 37.6c1.8 3.7 3.7 6.7 5.1 9.8.1.2.2.4.2.5.4.9.8 1.8 1.3 2.7.6 1 1.2 2 1.9 2.9-1.5-3.5-5.4-10.5-8.5-15.9z"/><path fill="#493937" d="M119 105.9c-.2-2.9-3.1-2.4-8.1-4.3s-10.1-1.4-14.1-1.2c-4.1.2-5 2.9-4.6 4.2.5 1.4 7.7.3 11.7-1 4.1-1.3 15.1 2.3 15.1 2.3z"/><path fill="#A78573" d="M100.7 158.2c1 2.3 3.7 7.5 8.8 11.8 1.7 1.4 3.6 2.8 5.9 3.9.7.3 1.4.7 2.1.9 3.1 1.2 6.6 1.9 10.6 1.9V159s-7.3 1-12.3-1c0 0 3 1.6 3.5 3.4.5 1.8 1.6 3.7.5 4.3-1.1.6-6.1 2.1-8.3 0-2.2-2.1-1.4-.6-4.3-5.6-2.9-4.9-2.9-1.8-5.1-7.2s-1.3-7-3-10.1c-1.5-2.6-8.9-16.5-11.3-20.9 0 .3.1.6.1.8.2.6.1.8.1.8s0-.3-.1-.8c-.1-.3-.4-.7-.8-1.3 0 .3 0 .7.1 1.2.2 3.9 1 12.6 3.3 16.7.4.8.9 1.6 1.4 2.5.1.1.2.3.2.4 3.1 5.4 7 12.4 8.6 16z"/><path fill="#A78573" d="M120 140.9c-2.1-.8-3.7 1.4-6.2 1.4s-9.4 5.4-8.8 6.3c.6.9 4.5-3.5 10.5-2.4 6.1 1.1 12.6 0 12.6 0V143c-3.7 0-6.1-1.3-8.1-2.1z"/><path fill="#7F7D78" d="M75.4 157.8l-.8 6.2s-9.5 1.3-13.4 3.5l-.5.5.5.6v1c2.4-.6 7.9-2.7 10.8-3.5.9-.2 1.5-.4 1.7-.3v.1c.4.9 3.5 8.1 4.3 9.8.8 1.8 15.6 19.1 45.1 21.4v4.6c0 1.6 3.6 2.6 3.7 0s0-5.5 0-5.5h1.3V194s-24.7.3-38.3-13l-.2-.2c0 .4-.2.9-.5 1.3-1.2 1.7-6.8-3.1-8.5-4.5-1.7-1.4-4.3-5.2-2.3-7.2 1.1-1.1 3.8 1.4 5.3 3-1.2-1.9-1.9-3.7-2.5-5.3-.9-3-1-5.4-.8-7.2v-.2c.3-1.8.8-2.8.8-2.8l8.5 1 .1-.1.9-1.5s-5.8-1.4-8.5-1.5c-2.6-.1-9.9-1.3-17.4 3.2l10.7-1.2z"/><path fill="#A72420" d="M84.7 174.5s-.4-.5-1.1-1.2c-1.5-1.6-4.2-4.1-5.3-3-2.1 2.1.6 5.9 2.3 7.2 1.7 1.4 7.3 6.2 8.5 4.5.3-.4.5-.8.5-1.3 0-1.3-1.3-2.9-4.9-6.2z"/><path fill="#3B3939" d="M128 249.9h-1.6l-.8-12.7-3.1-.3L128 256z"/><path fill="#74716D" d="M128.1 236.5V234s-3.7.1-6.6-.4l1 3.3 3.1.4.8 12.7h1.7v-13.5z"/><path d="M59.9 178.5l-1.3.2v.3s-3.5 2.3-6.5 1l-.1-.4-1 .1.4 2.6h-1.8l-.4-2.3 2.4 18.1 9.5-.4-.3-16.6h-1.2c.1.1.3-1.2.3-2.6z"/><path fill="#A72420" d="M48.1 173.8l1.9-.5.5-2.4 7.4-2 1 2.7 2.3-.4v-2.5l-.5-.6-3.2-4-8.1 2.3-1.8 4.8-.2.4z"/><path fill="#5D5B58" d="M58.4 175.3c.3 0 .6 0 .7.1.7.2.8 1.7.8 3.1 0 1.4-.2 2.7-.2 2.7h1.5v-10.1l-3.1.6.3 3.6zm-7 7.1s-.1-1.3-.4-2.6c-.2-.9-.4-1.8-.6-2.3-.1-.3.3-.6 1-.9l-.6-3.4-2.8.6 1.2 6.3.4 2.3h1.8z"/><path fill="#261D18" d="M51.5 176.6l.6 3.1.1.4c3 1.3 6.5-1 6.5-1v-.3l-.2-3.4-.3-3.6-.2-2.8-7.4 1.9.4 2.4.5 3.3z"/><path fill="#7F7D78" d="M122.5 236.9l-1-3.3-3.9-13.3s-36.1-19.6-41.9-21.2c-5.8-1.6-32.3 0-32.3 0l-4.2-27.9c-7.1-1.7-10.1 1.5-10.1 1.5l.2 6.4 1 28.9c-.2.6-.3 1.3-.5 2.2 3.3 3.9 6.8 7.7 10.6 11.2 1.9-10.2 3.6-17.1 3.6-17.1s22.4-1 29.1-.9c6.7 0 39 19.8 39 19.8l10.1 32.7c1.9.1 3.9.1 5.9.1l-5.6-19.1zm-90.7-31l-2.1-33.2s1.1-1.9 3.8-.5l1.8 22.8h5.3l1.4 9.7-10.2 1.2z"/><path fill="#5D5B58" d="M40.6 195h-5.3l-1.8-22.8c-2.7-1.4-3.8.5-3.8.5l2.1 33.2 10.2-1.1-1.4-9.8z"/><path fill="#2F2220" d="M82.7 95.3c-1.1 1 0 8 0 10.6 0 2.6 1.8 12.4 3.7 14.8.2.3.5.6.6.8.4.6.7 1 .8 1.3 0-.2-.1-.5-.1-.8-.5-3.6-1.7-11.9-1.2-13.6.7-2.2 2.8-18.5 3.2-20.8s-.2-12.2-.2-15.7 6.9-14.3 8.7-15.2-3.9 17.2-3.9 17.2 5.6-13.7 9.5-18.2c3.9-4.5 24.2-.6 24.2-.6V8.4h-.2c-43 .1-46 26.5-44.3 25.3 1.8-1.3 3.5-2.6 3.5-2.6s1.6 1-2.3 4.2C81 38.4 76 41.9 76 41.9h4.6L74.7 51s1 6.1.3 8.4c-.7 2.2 0 4.5 0 9.9s1.8 11.2 1.8 11.2 1.5 2.5 3.1 4.8c.8 1.3 1.7 2.5 2.4 3.3 2 2.4 1.5 5.7.4 6.7zm5.3 28.3s.1-.2-.1-.8c.1.5.1.8.1.8z"/></svg>