<svg xmlns="http://www.w3.org/2000/svg" width="256" height="256"><circle fill="#B2B4B5" cx="128" cy="128" r="128"/><path fill="#040002" d="M64.4 168.5c3.1-1.6 5.7-3.1 7.6-4.6 0 0 3.3 2.1 3.7 4 2.3-3.5 4.5-8.6 4.4-15 0 0-.8-6.9 2.8-8.8.3-.1.5-.2.8-.3v.1c1.5-.4 5.1-1 9.3.9-.1-2.2-.4-4.4-.6-6.4-4.3-5.6-5.2-9.2-7.3-19.9-.4-1.9-.8-4.2-1.2-6.6-1.1-.5-2.4-1.1-3.7-1.7-3.5-1.7-3.9-7.9-4.4-15.3-.4-7.4-4.8-10-2.6-16.6.6-1.7 1.4-2.5 2.5-2.8-.3-8.5-.2-14.9.2-19.1.1-1.2.6-5.3 2.2-10.6-4 5.8-4.3 13.3-12.3 16.9-8.3 3.7-14.4 22.6-13.1 31.5 0 0 7.4-10 8.3-5.4s-1.3 13.4-5.7 17.7-14.4 20.7-14.9 26.5c0 0 7 14.5 2.2 20.6-4.3 5.4-7.5 18.2-5.4 22.1l25.1-8.9 2.1 1.7z"/><path fill="#222D30" d="M84.7 167.6c3.3-2.4 6.2-5 7.3-7.5 1.5-3.2 1.6-9.4 1.2-15.4-4.3-1.9-7.8-1.3-9.3-.9-.1.9-1.9 11.5.8 23.8z"/><path fill="#5E4F46" d="M211.6 191.7L195.2 211s5.4 7.8 10.8 18.5c13.4-10.3 24.6-23.1 33.1-37.8-5.3 0-20.8.3-27.5 0zM128 160.1v55c.6.3 1.3.7 2.1 1.2 9.8-4.4 36.8-36.8 44.6-46.4-4.7-3-9.3-6.6-10.8-9.8-2-4.4-1.4-14.3-.6-21.8-2.1 2.7-4.9 5.7-9 10.2-12.5 13.6-25.6 11.8-26.3 11.6z"/><path fill="#151113" d="M128 4c6.2 0 11.7.9 16.4 2.5 1.6-1.3 2.7-2.9 3.3-5-6.4-1-13-1.5-19.7-1.5v4z"/><path fill="#5E4F46" d="M173.2 101.9c-.5 3.5-1 6.9-1.4 10 1.1-.5 2.4-1.1 3.7-1.7 3.5-1.7 3.9-7.9 4.4-15.3.4-7.4 4.8-10 2.6-16.6-.6-1.7-1.4-2.5-2.5-2.8 0 1.3-.1 2.7-.2 4.1-.4 8.8-5.1 19.3-6.6 22.3z"/><path fill="#7C695B" d="M172.8 102.7l3.5-34.1s-3.5-7.9-14.9-20.1c-11.2-12-32.7-20.2-33.5-20.5v102c.2 0 1.2.1 2.2-.7 1.6-.7 3.7-.1 4.9 1.2 2.3 2 2.5 2.6 4.8 3.4 0 0-2.1 3.6-12 3.6v22.8c.7.1 13.8 2 26.3-11.6 4.1-4.5 7-7.6 9-10.2 4.3-5.6 5.2-9.2 7.3-19.9.4-1.9.8-4.2 1.2-6.6.5-3 1-6.4 1.4-10 0 .4-.2.7-.2.7zm-11.5-49.4l2.9 1.9-7.9 12.5v4.4h-2.6v-4.7l7.6-14.1zm-3.5-5.4l-11.5 16v6.7h-3.9v-7.3l12.6-18 2.8 2.6zm-9-6.7l3.2 2.3-8.4 14-2.9-1.7 8.1-14.6zm4.9 80.7v-19.2h2.9v17.8l-2.9 1.4zm5.3-2.3v-16.9h2.9v14.6l-2.9 2.3zm8-39.9c-2-1.2-17.5-2.6-25.3 2.3 0 0-4.7-5.8 0-6.7s23.3-4.1 28.5 3.3c0 .1-1.2 2.2-3.2 1.1z"/><path fill="#221F21" d="M163.4 19.6c.3.1.5.1.5.1-.1 0-.3 0-.5-.1z"/><path fill="#221F21" d="M128 20.1V28c.7.3 22.3 8.5 33.5 20.5 11.4 12.2 14.9 20.1 14.9 20.1l-3.5 34.1s.2-.3.4-.8c1.4-3 6.2-13.4 6.6-22.3.1-1.4.1-2.8.2-4.1.3-8.5.2-14.9-.2-19.1-.3-3-3-22.2-15.9-36.6-2.8 4.4-11.8 16.5-11.8 16.5 3.9-6.6 8.1-20.3 8.1-20.3-4.3-4.1-9.5-7.4-15.8-9.5C139.7 4.9 134.3 4 128 4v16.1z"/><path fill="#221F21" d="M170.2 78.7c-5.2-7.4-23.9-4.2-28.5-3.3s0 6.7 0 6.7c7.9-5 23.3-3.5 25.3-2.3 2 1 3.2-1.1 3.2-1.1z"/><path fill="#9C9E9F" d="M152 43.6l-3.2-2.4-8.2 14.6 3 1.7zm-9.6 27.1h3.9V64l11.5-16.1-2.8-2.6-12.6 18.1zm11.3 1.4h2.7v-4.4l7.8-12.5-2.9-1.9-7.6 14.1zm0 30.6v19.2l3-1.4v-17.8zm5.3 0v16.9l2.9-2.4v-14.5z"/><path fill="#744548" d="M140 133.8c-2.4-.8-2.6-1.4-4.8-3.4-1.2-1.2-3.3-1.9-4.9-1.2-1 .9-2.1.8-2.2.7v7.4c9.8.1 11.9-3.5 11.9-3.5z"/><path fill="#554F52" d="M152.1 36.3s9-12.2 11.8-16.5c0 0-.2 0-.5-.1-.8-.2-2.4-1-3.2-3.7 0 0-4.2 13.7-8.1 20.3z"/><path fill="#08161D" d="M180.2 168.7v-.2l-3.3-1.1 3.4 1.5c0-.1-.1-.2-.1-.2zm31.4 23c-1.1 0-1.9-.1-2.4-.2-4.1-.6-23.4-16.7-28-21.6-19.3 30.8-36.4 44.2-45.7 49.7 9.9 6.3 25.8 17.2 40.1 27.1 10.9-4.4 21.1-10.3 30.4-17.4-5.4-10.7-10.8-18.5-10.8-18.5l16.4-19.1z"/><path fill="#272E35" d="M130.2 216.3c1.5.9 3.3 2 5.4 3.3 9.2-5.5 26.3-19 45.7-49.7-.5-.5-.8-.9-.9-1.1l-3.4-1.5s-.8 1-2.1 2.6c-8 9.6-35 42-44.7 46.4z"/><path fill="#2D323A" d="M234.9 184.8v1.3s-20.1 1.9-26-.1-17.6-17.3-17.6-17.3l.3-.2c-3.1-1.6-5.7-3.1-7.6-4.6 0 0-4.1 2.6-3.8 4.6v.2s0 .1.1.1c.1.2.4.6.9 1.1 4.6 4.9 23.9 21 28 21.6.5.1 1.4.1 2.4.2 6.7.3 22.2 0 27.5-.1.6-1.1 1.2-2.1 1.8-3.2v-1.8s-2.3-.7-6-1.8z"/><path fill="#121821" d="M208.9 186c5.9 2 26 .1 26 .1v-4.3l-24-.5-17.4-14.3-1.9 1.5-.3.2s11.8 15.4 17.6 17.3z"/><path fill="#484E58" d="M210.9 181.2l24 .6-41.4-14.8z"/><path fill="#212E38" d="M128 226.2V256c13.8 0 27-2.2 39.5-6.2-19.9-13.1-38.8-23.2-39.5-23.6z"/><path fill="#141F22" d="M135.5 219.7c-2.1-1.3-3.9-2.5-5.4-3.3-.8-.5-1.5-.9-2.1-1.2v11c.7.4 19.5 10.5 39.5 23.6 2.8-.9 5.5-1.9 8.2-3-14.4-9.9-30.3-20.8-40.2-27.1z"/><path fill="#574941" d="M47 194.8l-2.6-3.1c-6.7.3-22.2 0-27.5-.1 8 14 18.6 26.3 31.1 36.3 1.5-11.6 1.1-22.5-1-33.1zm81-34.7s-13.5 2.4-26.3-11.6c-4.1-4.5-7-7.6-9-10.2.2 2 .4 4.2.6 6.4.4 6 .3 12.2-1.2 15.4-1.1 2.4-4 5-7.3 7.5.8 3.6 2 7.4 3.8 11.1 4.9 5.8 11.1 13 17.2 19.5 7.8 6.6 15.6 12.7 22.3 17.3v-55.4h-.1z"/><path fill="#040002" d="M111.6 6.5C116.3 4.9 121.8 4 128 4V0c-6.7 0-13.3.5-19.7 1.5.5 2.1 1.7 3.7 3.3 5z"/><path fill="#574941" d="M76.2 79.5c-.1-1.4-.1-2.8-.2-4.1-1 .3-1.9 1.1-2.5 2.8-2.2 6.6 2.2 9.2 2.6 16.6s.9 13.5 4.4 15.3c1.3.6 2.5 1.2 3.7 1.7-.5-3-1-6.4-1.4-10-1.5-2.9-6.2-13.4-6.6-22.3z"/><path fill="#5E4F46" d="M128 160.1v-22.8c-10 0-12-3.6-12-3.6 2.4-.8 2.6-1.4 4.8-3.4 1.2-1.2 3.3-1.9 4.9-1.2 1.1.9 2.3.7 2.3.7V28s-22.1 8.3-33.5 20.5C83.2 60.8 79.7 68.6 79.7 68.6l3.5 34.1s-.2-.3-.4-.8c.5 3.5 1 6.9 1.4 10 .4 2.4.8 4.7 1.2 6.6 2.1 10.7 2.9 14.3 7.3 19.9 2.1 2.7 4.9 5.7 9 10.2 12.8 13.9 26.3 11.5 26.3 11.5zm-33.9-42.9v-14.6H97v16.9l-2.9-2.3zm5.2 3.3v-17.8h2.9v19.2l-2.9-1.4zm7.9-79.3l8.2 14.6-2.9 1.7-8.4-14 3.1-2.3zm-6.2 4.1l12.6 18.1v7.3h-3.9V64L98.2 48l2.8-2.7zm-6.3 8l7.6 14.1v4.7h-2.6v-4.4l-7.9-12.5 2.9-1.9zm-8.9 25.4c5.2-7.4 23.9-4.2 28.5-3.3s0 6.7 0 6.7c-7.9-5-23.3-3.5-25.3-2.3-2 1-3.2-1.1-3.2-1.1z"/><path fill="#151113" d="M92.1 19.7s.2 0 .5-.1c-.2.1-.4.1-.5.1z"/><path fill="#151113" d="M76 75.4c0 1.3.1 2.7.2 4.1.4 8.9 5.1 19.3 6.6 22.3.3.5.4.8.4.8l-3.5-34.1s3.5-7.9 14.9-20.1C105.9 36.3 128 28 128 28V4c-6.2 0-11.7.9-16.5 2.5-6.3 2.1-11.5 5.4-15.8 9.5 0 0 4.2 13.8 8.1 20.3 0 0-9-12.2-11.8-16.5-7.5 8.4-11.6 18.5-13.7 26-1.5 5.3-2 9.4-2.2 10.6-.3 4.1-.3 10.6-.1 19z"/><path fill="#151113" d="M114.3 82s4.7-5.8 0-6.7-23.3-4.1-28.5 3.4c0 0 1.2 2.2 3.2 1s17.5-2.6 25.3 2.3z"/><path fill="#7F8283" d="M115.4 55.8l-8.2-14.6-3.2 2.4 8.4 13.9zm-5.7 8.2v6.7h3.9v-7.3L101 45.3l-2.8 2.6zm-10.1 8.1h2.7v-4.7l-7.6-14.1-2.9 1.9 7.8 12.5zm-.3 30.6v17.8l3 1.4v-19.2zm-5.2 0v14.5l2.9 2.4v-16.9z"/><path fill="#6A3F42" d="M125.8 129.2c-1.6-.7-3.7-.1-4.9 1.2-2.3 2-2.5 2.6-4.8 3.4 0 0 2.1 3.6 12 3.6V130c-.1 0-1.2.2-2.3-.8z"/><path fill="#3D393B" d="M103.9 36.3C100 29.7 95.8 16 95.8 16c-.8 2.7-2.3 3.5-3.2 3.7-.3.1-.5.1-.5.1 2.8 4.3 11.8 16.5 11.8 16.5z"/><path fill="#08161D" d="M47 194.8c-.2-1.1-.4-2.1-.7-3.2-.5 0-1.2.1-1.9.1l2.6 3.1z"/><path fill="#272E35" d="M88.5 178.7c1.9 4 4.4 7.9 7.8 11.4 3.1 2.7 6.2 5.4 9.4 8.1-6.1-6.6-12.3-13.7-17.2-19.5z"/><path fill="#14212A" d="M128 226.5s-31.4 2.8-60.9 14.1C85.2 250.4 106 256 128 256v-29.5z"/><path fill="#0E191C" d="M51.2 189.3c-2 1.3-3.5 2.1-4.4 2.2-.1 0-.3 0-.5.1.2 1.1.5 2.1.7 3.2 2.1 10.6 2.5 21.5 1.1 33.2 1.8 1.4 3.6 2.8 5.4 4.1 4.4-21-2.3-42.8-2.3-42.8zm76.8 37.2v-11c-6.7-4.5-14.5-10.7-22.3-17.3-3.1-2.6-6.3-5.4-9.4-8.1l-25.5-16.4s.4-.3 1-.9c-.8.7-1.6 1.5-2.5 2.3 14.4 17.5 52.7 48.2 52.7 48.2-26.1.7-48.3 8.5-60.9 13.9 2 1.2 3.9 2.3 6 3.4 29.5-11.3 60.9-14.1 60.9-14.1z"/><path fill="#1E232A" d="M44.4 191.7c.8 0 1.4-.1 1.9-.1.2 0 .4 0 .5-.1.9-.1 2.4-1 4.4-2.2l18.1-14.2c.9-.8 1.8-1.6 2.5-2.3 1-.9 2.5-2.6 4-4.9-.4-1.9-3.7-4-3.7-4-1.9 1.5-4.5 3-7.6 4.6l.3.2S53.1 184 47.2 186s-26 .1-26 .1v-1.3c-3.7 1.1-5.9 1.8-5.9 1.8v1.8c.6 1.1 1.2 2.2 1.8 3.2 5.1.1 20.6.4 27.3.1z"/><path fill="#010712" d="M47.1 186c5.9-2 17.6-17.3 17.6-17.3l-.3-.2-1.9-1.5-17.4 14.2-24 .5v4.3c0 .1 20.1 2 26 0z"/><path fill="#3A4048" d="M45.1 181.2L62.5 167l-25.1 8.9-16.3 5.9z"/><path fill="#212C2F" d="M122 223.3s-38.3-30.7-52.7-48.2l-18.1 14.2s6.7 21.9 2.3 42.8c2.5 1.8 5.1 3.5 7.7 5.1 12.5-5.5 34.7-13.2 60.8-13.9z"/><path fill="#0E191C" d="M88.5 178.7c-1.8-3.7-3-7.5-3.8-11.1-2.7-12.2-1-22.9-.8-23.8v-.1c-.3.1-.6.2-.8.3-3.7 2-2.8 8.8-2.8 8.8 0 6.4-2.2 11.5-4.4 15-1.5 2.3-3 3.9-4 4.9-.6.6-1 .9-1 .9L96.4 190c-3.5-3.4-6-7.3-7.9-11.3z"/></svg>