<svg xmlns="http://www.w3.org/2000/svg" width="256" height="256"><circle fill="#B1B3B5" cx="128" cy="128" r="128"/><path fill="#493A2A" d="M164.6 135.3c-1-6.2 18.7-17.7 12.5-25.9-2.7-3.5-4.9-6.9-6.4-11.4-1.7 6.4-3.2 12.2-4.1 14.9-2.4 7.8-5.3 18-12 31-.2.4-.4.8-.7 1.2.5.5.9 1 1.4 1.6 1.9 1.6 5.4 4.7 9.5 9.4v-.2s1.7.4 4.5 1.1c-8.1-7.7-3.9-16.2-4.7-21.7z"/><path fill="#444348" d="M153.7 145.4s.6.4 1.6 1.3c-.5-.6-.9-1.1-1.4-1.6-.3.6-.7 1.1-1.1 1.7.7 3.8 2.2 7.1 5.3 8.4-1.4-5.6-4.4-9.8-4.4-9.8z"/><path fill="#CCAD9F" d="M148 193c6.6-11.1 9.5-22.1 10.6-30 .4-2.8.1-5.5-.5-7.9-3.1-1.4-4.6-4.7-5.3-8.4-7.4 9.8-22.6 12.9-24.6 13.2v96h.8c2.1-16.2 7.8-49.8 19-62.9-.1 0 0 0 0 0z"/><path fill="#647791" d="M163.7 207.8c-.7.9-1.6 1.8-2.6 2.6l.1.1s-16.6 11.8-29.9 45.5c12.5-.3 24.6-2.4 36-6.1-.9-11.4-2.2-26.8-3.6-42.1z"/><path fill="#5B5D69" d="M217.4 172.3c-2.4-1.4-6.4-3-11.2-4.7 2 3.3 3.4 6.7 3.4 9.8 0 11-26.8-2.9-26.8-2.9s9.6 2.4 10.5-4.8c1-7.2-6.7-1.4-20-9.8-1.6-1-2.9-2-4-3-2.8-.7-4.5-1.1-4.5-1.1v.2c8.5 9.6 19.7 25.7 26.2 48.7l8.1 13-16.2 7.9 18 4.7s-.1 1.1-.2 3c5.6-3.9 10.8-8.1 15.7-12.8-4.2-11.7-8-23.3-6.4-23.8 1.9-.6 6.4 11 9.8 20.5.4-.5.9-.9 1.3-1.4-3.7-12.8-9.5-25.7-6.3-25.2 4.9.6 8.1 9.8 10.1 20.9 1.7-1.9 3.3-3.9 4.8-6-4.1-16.8-8.5-30.9-12.3-33.2z"/><path fill="#40414E" d="M182.8 225.6l16.2-7.9-8.1-13c1 3.5 1.9 7.2 2.6 11 0 0-17.7.2-28.8-17.2 1.6 3.9 1 6.7-1.1 9.3 1.3 15.3 2.7 30.8 3.6 42.1 12-3.9 23.3-9.5 33.4-16.5.1-1.9.2-3 .2-3l-18-4.8z"/><path fill="#DEDCE5" d="M153.7 145.4s3 4.2 4.4 9.8c.6 2.4.9 5.1.5 7.9-1.1 7.8-4 18.8-10.6 30 .2.4 6.4 10.8 13.1 17.4 1-.9 1.9-1.7 2.6-2.6 2.1-2.6 2.7-5.3 1.1-9.3 0-.1 2-37.4-11.1-53.2z"/><path fill="#C8C6CF" d="M155.3 146.7c-1-.8-1.6-1.3-1.6-1.3 13.1 15.8 11.1 53.1 11.1 53.1 11 17.4 28.8 17.2 28.8 17.2-.7-3.8-1.6-7.5-2.6-11-6.5-23.1-17.7-39.2-26.2-48.7-4.1-4.6-7.6-7.7-9.5-9.3z"/><path fill="#7B90B2" d="M161.1 210.5s0-.1 0 0c-6.8-6.6-12.9-17-13.2-17.4-11.2 13.1-16.8 46.7-19 63h2.3c13.4-33.8 29.9-45.6 29.9-45.6z"/><path fill="#4E505A" d="M214.8 190.7c-3.2-.6 2.6 12.3 6.3 25.2 1.3-1.4 2.6-2.8 3.8-4.3-2-11.1-5.2-20.3-10.1-20.9zm-4.8 6c-1.6.5 2.2 12.1 6.4 23.8l3.3-3.3c-3.3-9.4-7.8-21.1-9.7-20.5z"/><path fill="#DEBCAD" d="M154.5 143.9c6.7-12.9 9.6-23.2 12-31 .8-2.8 2.4-8.6 4.1-14.9-2.1-6.1-3-14.2-2.2-27.4.3-4.1.2-7.5-.1-10.4-1.1-7.1-4.3-12.1-11.6-16-6.2-3.4-19.4 0-25.6 1.8l-.1.1-2.9.9v85.1c.4 0 1.5 0 2.5-.8 2-.8 4.5-.1 5.9 1.3 2.7 2.2 3 2.9 5.8 3.8 0 0-2.5 3.9-14.2 4v19.5c2-.4 17.3-3.4 24.6-13.2.4-.5.8-1.1 1.1-1.7.3-.3.5-.7.7-1.1zm-19.4-56.5s.6-4.5 7.3-6.4c6.7-1.9 14-1.9 19.5 0 0 0-8.5.3-13.4 1-5.7.7-10.5 5.7-13.4 5.4z"/><path fill="#7B644E" d="M127.9 6zm.2 23v18c2.4-1.7 24.9-16.7 34.3-7.3 9.9 9.9 5.9 37.8 5.9 37.8.6-6.9.8-12.5.1-17.2.3 2.9.3 6.3.1 10.4-.8 13.2.1 21.3 2.2 27.4 1.6 4.5 3.8 7.9 6.4 11.4 6.2 8.1-13.4 19.6-12.5 25.9.8 5.5-3.4 14 4.7 21.7 1.1 1 2.4 2 4 3 13.3 8.4 21 2.6 20 9.8-1 7.2-10.5 4.8-10.5 4.8s26.8 13.9 26.8 2.9c0-3.1-1.4-6.4-3.4-9.8-5.2-8.7-14.7-17.3-15.8-20.4-1.4-4.3 1-13.2 4.3-19.3s12.5-13.8 3.8-33.4c0 0 7.2-7.7 2.9-14.4-4.3-6.7-19.6-17.2-21.6-31.1-1.8-14-11.5-43.1-51.7-43.2v23zm39.8 109.1s.3-6 9.2-19.7c0 0-10 26.8-2.7 34.7 0 .1-7.9-4.4-6.5-15zm26.6-25.2c-3.4 11.1-14.8 27.7-5 36.5 0 0-12.9-6-3.8-26.1 9.1-20.1 5.7-28 2.4-35.9 0 0 9.8 14.5 6.4 25.5zm.5-33.4c4.6 3.4 7.4 5.9 3.4 14.3 0 0-12.2-16.3-15.6-31.8 0 0 7.7 14.1 12.2 17.5zm-44.5-53.8c-10.7.1-20.1 9.7-20.1 9.7s1.2-3.4 4.3-7.4c2.1-2.9 10.7-2.7 15.8-2.3 1.3 0 2.5.1 3.8.4 0-.1-1.6-.3-3.8-.4z"/><path fill="#7B644E" d="M131.2 46.1c-1.5.5-2.6.8-3.1 1l2.9-.9c.1 0 .1 0 .2-.1z"/><path fill="#493A2A" d="M156.8 44.3c7.3 3.9 10.5 8.9 11.6 16 .7 4.7.5 10.4-.1 17.2 0 0 4.1-27.8-5.9-37.8-9.4-9.4-31.9 5.6-34.3 7.3v.1c.5-.2 1.6-.5 3.1-1 6.2-1.9 19.4-5.2 25.6-1.8z"/><path fill="#62503D" d="M195 79.5c-4.6-3.4-12.2-17.5-12.2-17.5 3.4 15.6 15.6 31.8 15.6 31.8 4-8.4 1.2-10.9-3.4-14.3zm-9.3 43.8c-9.1 20.1 3.8 26.1 3.8 26.1-9.8-8.8 1.7-25.4 5-36.5 3.4-11.1-6.5-25.5-6.5-25.5 3.4 7.9 6.8 15.9-2.3 35.9zm-11.3 29.9c-7.3-8 2.7-34.7 2.7-34.7-8.8 13.6-9.2 19.7-9.2 19.7-1.4 10.5 6.5 15 6.5 15zM150.5 25.7c2.3.2 3.8.4 3.8.4-1.3-.4-2.6-.5-3.8-.4zm-15.8 2.2c-3.1 4.1-4.3 7.4-4.3 7.4s9.4-9.6 20.1-9.7c-5.1-.3-13.7-.5-15.8 2.3z"/><path fill="#7B644E" d="M161.9 81c-5.4-1.9-12.8-1.9-19.5 0-6.7 1.9-7.3 6.4-7.3 6.4 2.9.3 7.7-4.7 13.4-5.4 4.9-.6 13.4-1 13.4-1z"/><path fill="#9D4D5E" d="M128.1 135.8v4.6c11.7-.1 14.2-4 14.2-4-2.8-.9-3.1-1.6-5.8-3.8-1.4-1.4-3.9-2.1-5.9-1.3-1 .8-2 .9-2.5.8v3.7z"/><path fill="#2D2113" d="M100.7 146.7c.5-.6.9-1.1 1.4-1.6-.2-.4-.4-.8-.7-1.2-6.7-12.9-9.6-23.2-12-31-.8-2.8-2.4-8.6-4.1-14.9-1.6 4.5-3.8 7.9-6.4 11.4-6.2 8.1 13.4 19.6 12.5 25.9-.8 5.5 3.4 14-4.7 21.7 2.8-.7 4.5-1.1 4.5-1.1v.2c4.1-4.7 7.6-7.8 9.5-9.4z"/><path fill="#353338" d="M100.7 146.7c1-.8 1.6-1.3 1.6-1.3s-3 4.2-4.4 9.8c3.1-1.4 4.6-4.7 5.3-8.4-.4-.5-.8-1.1-1.1-1.7-.5.5-.9 1-1.4 1.6z"/><path fill="#B49A8E" d="M103.3 146.7c-.7 3.8-2.2 7.1-5.3 8.4-.6 2.4-.9 5.1-.5 7.9 1.1 7.8 4 18.8 10.6 30 11.2 13.1 16.8 46.7 19 63h1.1v-96c-.1 0-17-2.7-24.9-13.3z"/><path fill="#53647C" d="M94.9 210.5s0-.1 0 0c-1-.9-1.9-1.8-2.6-2.7-1.3 15.3-2.7 30.8-3.6 42.1 11.4 3.7 23.5 5.8 36 6.1-13.3-33.7-29.8-45.5-29.8-45.5z"/><path fill="#4E505A" d="M73.2 225.6L57 217.7l8.1-13c6.5-23.1 17.7-39.2 26.2-48.7v-.2s-1.7.4-4.5 1.1c-1.1 1-2.4 2-4 3-13.3 8.4-21 2.6-20 9.8 1 7.2 10.5 4.8 10.5 4.8s-26.8 13.9-26.8 2.9c0-3.1 1.4-6.4 3.4-9.8-4.8 1.7-8.9 3.3-11.2 4.7-3.8 2.2-8.2 16.3-12.3 33.3l4.8 6c2-11.1 5.2-20.3 10.1-20.9 3.2-.6-2.6 12.3-6.3 25.2.4.5.9.9 1.3 1.4 3.3-9.5 7.8-21.1 9.8-20.5 1.6.5-2.2 12.1-6.4 23.8 4.9 4.7 10.1 8.9 15.7 12.8-.1-1.9-.2-3-.2-3l18-4.8z"/><path fill="#363742" d="M92.3 207.8c-2.1-2.6-2.7-5.3-1.1-9.3-11 17.4-28.8 17.2-28.8 17.2.7-3.8 1.6-7.5 2.6-11l-8.1 13 16.2 7.9-18 4.7s.1 1.1.2 3c10.2 7 21.4 12.6 33.4 16.5.9-11.3 2.2-26.7 3.6-42z"/><path fill="#C8C6CF" d="M102.3 145.4c-13.1 15.8-11.1 53.1-11.1 53.1-1.6 3.9-1 6.7 1.1 9.3.7.9 1.6 1.8 2.6 2.6 6.7-6.6 12.9-17 13.1-17.4-6.6-11.1-9.5-22.1-10.6-30-.4-2.8-.1-5.5.5-7.9 1.4-5.5 4.4-9.7 4.4-9.7z"/><path fill="#ADACB5" d="M102.3 145.4s-.6.4-1.6 1.3c-1.9 1.6-5.4 4.7-9.5 9.4-8.5 9.6-19.7 25.7-26.2 48.7-1 3.5-1.9 7.2-2.6 11 0 0 17.7.2 28.8-17.2 0-.1-2-37.4 11.1-53.2z"/><path fill="#647791" d="M108 193c-.2.4-6.4 10.8-13.1 17.4l-.1.1s16.6 11.8 29.9 45.5h2.3c-2.1-16.3-7.8-49.9-19-63 .1 0 0 0 0 0z"/><path fill="#40414E" d="M41.2 190.7c-4.9.6-8.1 9.8-10.1 20.9 1.2 1.4 2.5 2.9 3.8 4.3 3.7-12.8 9.5-25.8 6.3-25.2zm4.8 6c-1.9-.6-6.4 11-9.8 20.5l3.3 3.3c4.3-11.7 8.1-23.2 6.5-23.8z"/><path fill="#CCAD9F" d="M128.1 150.9v-10.5c-11.9 0-14.4-4-14.4-4 2.8-.9 3.1-1.6 5.8-3.8 1.4-1.4 3.9-2.1 5.9-1.3 1.3 1 2.7.8 2.7.8v-85l-3.2-1s-.1 0-.1-.1c-6.2-1.9-19.4-5.2-25.6-1.8-7.3 3.9-10.5 8.9-11.6 16-.3 2.9-.3 6.3-.1 10.4.8 13.2-.1 21.3-2.2 27.4 1.7 6.4 3.2 12.2 4.1 14.9 2.4 7.8 5.3 18 12 31 .2.4.4.8.7 1.2.3.6.7 1.1 1.1 1.7 7.9 10.6 24.9 13.3 24.9 13.3v-9.2zM94.1 81c5.4-1.9 12.8-1.9 19.5 0 6.7 1.9 7.3 6.4 7.3 6.4-2.9.3-7.7-4.7-13.4-5.4-4.9-.6-13.4-1-13.4-1z"/><path fill="#62503D" d="M73.2 174.6s-9.6 2.4-10.5-4.8c-1-7.2 6.7-1.4 20-9.8 1.6-1 2.9-2 4-3 8.1-7.7 3.9-16.2 4.7-21.7 1-6.2-18.7-17.7-12.5-25.9 2.7-3.5 4.9-6.9 6.4-11.4 2.1-6.1 3-14.2 2.2-27.4-.3-4.1-.2-7.5.1-10.4-.7 4.7-.5 10.4.1 17.2 0 0-4.1-27.8 5.9-37.8 9.9-9.9 34.5 7.4 34.5 7.4v-.1.1V6h-.2C87.7 6.1 78 35.2 76.1 49.1 74.2 63 58.8 73.5 54.5 80.2c-4.3 6.7 2.9 14.4 2.9 14.4-8.6 19.6.5 27.3 3.8 33.4s5.7 15 4.3 19.3c-1 3.1-10.6 11.7-15.8 20.4-2 3.3-3.4 6.7-3.4 9.8.1 11 26.9-2.9 26.9-2.9zm14.9-36.5c1.4 10.6-6.5 15.1-6.5 15.1 7.3-8-2.7-34.7-2.7-34.7 8.9 13.5 9.2 19.6 9.2 19.6zm17.4-112.4c5.1-.4 13.6-.5 15.8 2.3 3.1 4.1 4.3 7.4 4.3 7.4s-9.3-9.6-20.1-9.7c-2.3.2-3.8.4-3.8.4 1.3-.4 2.6-.5 3.8-.4zM61 79.5C65.5 76.1 73.2 62 73.2 62c-3.4 15.6-15.6 31.8-15.6 31.8-4-8.4-1.2-10.9 3.4-14.3zm.5 33.4C58.1 101.8 68 87.4 68 87.4c-3.4 7.9-6.7 15.9 2.4 35.9 9.1 20.1-3.8 26.1-3.8 26.1 9.7-8.8-1.8-25.4-5.1-36.5z"/><path fill="#62503D" d="M124.8 46.1l.1.1 3.2 1s-1.3-.5-3.3-1.1z"/><path fill="#2D2113" d="M99.2 44.3c6.2-3.4 19.4 0 25.6 1.8 2 .6 3.3 1.1 3.3 1.1s-24.6-17.4-34.5-7.4c-9.9 9.9-5.9 37.8-5.9 37.8-.6-6.9-.8-12.5-.1-17.2 1.1-7.2 4.4-12.2 11.6-16.1z"/><path fill="#493A2A" d="M61 79.5c-4.6 3.4-7.4 5.9-3.4 14.3 0 0 12.2-16.3 15.6-31.8 0 0-7.7 14.1-12.2 17.5zm5.5 69.9s12.9-6 3.8-26.1c-9.1-20.1-5.7-28-2.4-35.9 0 0-9.8 14.4-6.5 25.5 3.4 11.1 14.9 27.7 5.1 36.5zm15.1 3.8s7.9-4.5 6.5-15.1c0 0-.3-6-9.2-19.7.1 0 10 26.8 2.7 34.8zm23.9-127.5c-1.3 0-2.5.1-3.8.4 0-.1 1.6-.3 3.8-.4zm20.2 9.7s-1.2-3.4-4.3-7.4c-2.2-2.8-10.7-2.7-15.8-2.3 10.7.1 20.1 9.7 20.1 9.7z"/><path fill="#62503D" d="M120.9 87.4s-.6-4.5-7.3-6.4c-6.7-1.9-14-1.9-19.5 0 0 0 8.5.3 13.4 1 5.7.7 10.5 5.7 13.4 5.4z"/><path fill="#884251" d="M125.4 131.4c-2-.8-4.5-.1-5.9 1.3-2.7 2.2-3 2.9-5.8 3.8 0 0 2.5 4 14.4 4v-8.2c0-.1-1.4.1-2.7-.9z"/></svg>