
<!DOCTYPE svg PUBLIC "-//W3C//DTD SVG 1.1//EN" "http://www.w3.org/Graphics/SVG/1.1/DTD/svg11.dtd">
<svg version="1.1" id="Layer_1" xmlns="http://www.w3.org/2000/svg" xmlns:xlink="http://www.w3.org/1999/xlink" x="0px" y="0px"
	 width="75.88px" height="72.29px" viewBox="0 0 75.88 72.29" enable-background="new 0 0 75.88 72.29" xml:space="preserve">
<circle opacity="0.3" fill="#333333" cx="40.03" cy="35.53" r="32.48"/>
<polygon fill="#FFFFFF" points="25.73,40.25 31.94,40.25 38.69,46.49 38.69,24.57 32.07,30.82 25.73,30.82 "/>
<path fill="#FFFFFF" d="M43.56,30.51l-1.68,1.68c0.86,0.85,1.4,2.04,1.4,3.35c0,1.31-0.53,2.5-1.4,3.35l1.68,1.68
	c1.28-1.29,2.08-3.06,2.08-5.02C45.64,33.57,44.85,31.8,43.56,30.51z"/>
<path fill="#FFFFFF" d="M50.36,35.53c0-3.26-1.33-6.22-3.47-8.35l-1.66,1.66c1.71,1.71,2.77,4.08,2.77,6.69
	c0,2.61-1.06,4.98-2.77,6.69l1.66,1.66C49.03,41.75,50.36,38.8,50.36,35.53z"/>
<path fill="#FFFFFF" d="M55.07,35.53c0-4.56-1.85-8.7-4.85-11.68l-1.67,1.67c2.57,2.56,4.16,6.1,4.16,10.02
	c0,3.91-1.59,7.46-4.16,10.02l1.67,1.67C53.22,44.23,55.07,40.1,55.07,35.53z"/>
</svg>
