<svg xmlns="http://www.w3.org/2000/svg" width="256" height="256"><circle fill="#B1B3B5" cx="128" cy="128" r="128"/><path fill="#373F4C" d="M58 232.4c-.1 0-.1 0 0 0-.8.4-1.5.8-2.2 1.2.1.1.2.2.4.2.5-.4 1.2-.9 1.8-1.4 0 .1 0 0 0 0z"/><path fill="#757783" d="M54.7 233c.3.2.7.5 1 .7.7-.4 1.4-.8 2.2-1.2-.5 0-1.6.2-3.2.5z"/><path fill="#566071" d="M198.5 230.2c1.1.8 2.1 1.6 3.2 2.4.2-.1.4-.3.6-.4-1.2-.7-2.5-1.5-3.7-2.2-.1.1-.1.2-.1.2z"/><path fill="#9597A7" d="M198.6 230.1c1.2.7 2.5 1.4 3.7 2.2.6-.4 1.2-.9 1.8-1.3-2.6-.5-4.5-.8-5.5-1v.1z"/><path fill="#182536" d="M193 215.5c-5.4 10.6-12.6 23.7-19.1 32.1 2.4-.9 4.7-1.9 7-2.9 4.8-9.7 8.9-20 12.1-29.2zm5.6 14.4c-.5-.1-.8-.1-.8-.1.2.1.4.3.6.4 0-.1.1-.1.1-.2.1 0 .1 0 .1-.1zM177 158.8s3.6 2.8 6.2 7.2c.1-.3.3-.5.4-.8-.9-8.9-7.5-17.4-7.5-17.4.2 2.9.5 6.9.9 11zm-.9-11z"/><path fill="#C08C76" d="M167.1 162.8c-7 7.3-36.8 13.4-39.4 14v9.9c2.5-.1 19.5-.6 27.8-5.1 8.9-4.8 20.5-16.7 21.5-22.8-.3-4.1-.7-8.2-.9-11-1.9 5.1-4.6 10.4-9 15zm18.5-63.9c-.2.1-.5.2-.7.3l-3.8 4.7c-.3 9.2-1.1 22.6-2 30.2 7.5 1.1 7.8-1 8.4-3.9.6-3.2 1-14.4 1.3-17.2.3-2.9 1.6-5.7 0-14-.1-.7-.3-1.2-.5-1.6-.5.5-1.2 1.1-2.7 1.5z"/><path fill="#D7A990" d="M179.2 106.2s.6-2.6 1.2-5.9l-.3-11.7s-.3-6.4-2.6-10.2c-2.2-3.8-1.3-13.1-1.3-13.1l2.9 2.2-1.3-6.4 2 .9v-.1l.4.3 1.2.5s-1.3-6.7-4.2-10.6c-2.9-3.9-8.6-10.8-8.6-10.8-4.2-1-14.7 2.2-14.7 2.2s2.2-3.2 1.3-3.2h-.3c-.9.4-1.5.7-1.5.7l.6-.7c-1.1 0-2.7-.1-4.4-.1l-1.9 1.1.8-1.1-7.2-.2-.2-.9h-.1l.1-.1-.2-.9-8.9 3.8 1-3.5-5.2 3.1v135.1c2.6-.5 32.4-6.6 39.4-14 4.4-4.6 7.1-9.9 9-15l2.2-7.8.3-1.8c.2-1 .4-2.4.6-4.1.8-7.6 1.7-21 2-30.2l-2.1 2.5zm-23.4-29.8c6.9 0 12.2 4.6 12.2 4.6h-2.6l2.6 2.4h-1.4v3.4l-3.6-3.6c-1.7-1.7-5.5-2.9-7.7-2.8-2.2.1-11.3-.8-15.1-.1-3.8.7-4.3-5-4.3-5 5.5-.8 13 1.1 19.9 1.1z"/><path fill="#9A6C60" d="M140.2 80.2c3.8-.7 12.9.1 15.1.1 2.2-.1 6 1.1 7.7 2.8l3.6 3.6v-3.4h1.4l-2.6-2.4h2.6s-5.3-4.6-12.2-4.6c-6.9 0-14.4-1.9-19.9-1.2 0 .1.5 5.8 4.3 5.1z"/><path fill="#656264" d="M127.7 30.9v.1c1.1-1.6 6.4-9.2 14.5-12.4l-7.3 9.6s14.5-7.9 18.4-7.7l-8.9 5.8s18.9-.9 21.6 0c2.6.9-13.9 2.8-13.9 2.8s18.9 1 22 3.4 7.9 10.8 7.9 10.8-14.6-7.7-17.2-6.9c-1.9.5-7.1 2.9-9.7 4.1h.3c1 0-1.3 3.2-1.3 3.2s10.5-3.2 14.7-2.2c0 0 5.7 7 8.6 10.8 2.9 3.9 4.2 10.6 4.2 10.6l-1.2-.5 7.5 5.3-5-1.7 6.7 10.3-4.8-1.1s3.4 6.6 2.6 11.7c-.7 5-2.4 12.5-2.4 12.5.2-.1.5-.2.7-.3 1.4-.4 2.2-1 2.7-1.6.5-.7.5-1.2.5-1.2s0-7.9 1.9-9.5c1.9-1.5 4.2-5.8 4.2-5.8v-9.4s0 1-3-11.5-11.3-22.4-15.2-27.8-10.5-15-16.3-18.2c-5.7-3.2-13.7-5.6-32.7-5.6v22.4zm-.2-22.5z"/><path fill="#656264" d="M181.5 88c-.7-3.6-1.8-6.9-2.5-8.7l.4 1.5-1-2.8s.2.5.5 1.3l-2.2-7.5 3.4 2.2-3.4-6.9s5 2.2 4.6 1.4c-.4-.7-1.3-5.6-1.4-6.4l-2-.9 1.3 6.4-2.9-2.2s-1 9.3 1.3 13.1c2.2 3.8 2.6 10.2 2.6 10.2l.3 11.7c.8-4.1 1.5-9.4 1-12.4zM132 42.1l8.9-3.8.2.9 3.3-5.2s-10.7 2.8-16.6 6.6v1l5.2-3.1-1 3.6zm17.6-1.8c1.7 0 3.4.1 4.4.1l3.7-4.8-8.1 4.7zm-8.5-1.1l.2.9s3.7.1 7.2.2l3.3-4.6-10.7 3.5z"/><path fill="#C5C0BD" d="M127.7 40.6c6-3.8 16.6-6.6 16.6-6.6l-3.3 5.2-.1.1h.1l10.7-3.6-3.3 4.6-.8 1.1 1.9-1.1 8.2-4.7-3.7 4.8-.6.7s.6-.3 1.5-.7c2.6-1.2 7.8-3.5 9.7-4.1 2.6-.7 17.2 6.9 17.2 6.9s-4.8-8.4-7.9-10.8-22-3.4-22-3.4 16.5-1.9 13.9-2.8c-2.6-.9-21.6 0-21.6 0l8.9-5.8c-3.8-.2-18.4 7.7-18.4 7.7l7.3-9.6c-8.1 3.2-13.4 10.8-14.5 12.4v9.7zm52.2 21.5c.1.7 1 5.7 1.4 6.4.5.7-4.6-1.4-4.6-1.4l3.4 6.9-3.4-2.2 2.2 7.5c.7 1.8 1.8 5.1 2.5 8.7.5 2.9-.2 8.2-1 12.3-.6 3.3-1.2 5.9-1.2 5.9l1.9-2.3 3.8-4.7s1.7-7.5 2.4-12.5-2.6-11.7-2.6-11.7l4.8 1.1-6.7-10.3 5 1.7-7.5-5.3-.4-.1c0-.1 0 0 0 0z"/><path fill="#C5C0BD" d="M179.4 80.9l-.4-1.5c-.3-.8-.5-1.3-.5-1.3l.9 2.8z"/><path fill="#465C77" d="M127.8 186.7v12.4c4.6-1 43.8-10.5 55.4-33.1-2.6-4.4-6.2-7.2-6.2-7.2-1 6.1-12.5 18-21.5 22.8-8.3 4.5-25.3 5-27.8 5.1h.1z"/><path fill="#182536" d="M183.2 166c-11.6 22.6-50.8 32-55.4 33.1v23.3c22.4-6.9 38.8-34.3 38.8-34.3 11.5-7.7 16.6-17.2 16.6-17.2.4-1.8.5-3.7.3-5.6 0 .1-.2.4-.3.7z"/><path fill="#545E75" d="M193 215.5c4.7-13.2 7.7-24.3 8.7-28.1.2-3.7.4-7.3 1.3-9.3 1.9-4.2 5.4-5.7 3.8-10.2-1.6-4.5-15.9-27.3-28.6-28l-2.2 7.8s6.7 8.5 7.5 17.4c.2 1.9.1 3.7-.3 5.6 0 0-5.1 9.6-16.6 17.2 0 0-16.4 27.4-38.8 34.3V256h.2c16.2 0 31.7-3 45.9-8.5 6.5-8.4 13.8-21.4 19.1-32z"/><path fill="#000B1D" d="M58.2 232.4H58v.1c0-.1.1-.1.2-.1zm3.6-17.8c3.1 9 7 19.4 11.7 29.2 2.5 1.2 5 2.3 7.5 3.3-6.6-8.6-13.9-21.9-19.2-32.5z"/><path fill="#182536" d="M79.2 147.8zM72 166c2.6-4.4 6.2-7.2 6.2-7.2.3-4.1.7-8.2.9-11 0 0-6.7 8.5-7.5 17.4.2.2.3.5.4.8z"/><path fill="#B17D6B" d="M99.7 181.6c8.6 4.6 26.5 5.1 28 5.1v-9.9s-32.3-6.3-39.6-14c-4.4-4.6-7.1-9.9-9-15-.2 2.8-.6 6.9-.9 11 1 6.1 12.6 18 21.5 22.8zM70.3 99.2c-.2-.1-.5-.2-.7-.3-1.4-.4-2.2-1-2.7-1.6-.2.4-.4.9-.5 1.6-1.6 8.3-.3 11.2 0 14 .3 2.9.6 14 1.3 17.2.6 2.9.9 5 8.4 3.9-.8-7.6-1.7-21-2-30.2l-3.8-4.6z"/><path fill="#C08C76" d="M79.2 147.8c1.8 5.1 4.6 10.4 9 15 7.3 7.7 39.6 14 39.6 14V41.7l-4.7 1.6 1.9-4.2-8.3 4.2.7-4.8s-9.1 4.8-10.1 4.8-1.1-2.7-1.1-2.7-8-.8-12.1.1c0 0-13.3 7.6-16.1 11.5-2.9 3.9-4.2 10.6-4.2 10.6l1.2-.5.4-.3v.1l2-.9-1.4 6.4 2.9-2.2s1 9.3-1.3 13.1C75.3 82.3 75 88.7 75 88.7l-.3 11.7c.6 3.3 1.2 5.9 1.2 5.9L74 104c.3 9.2 1.1 22.6 2 30.2.2 1.7.4 3.1.6 4.1l.3 1.8 2.3 7.7zm8-66.9s5.3-4.6 12.2-4.6c6.9 0 14.4-1.9 19.9-1.2 0 0-.5 5.7-4.3 5s-12.9.1-15.1.1c-2.2-.1-6 1.1-7.7 2.8l-3.6 3.6v-3.4h-1.4l2.6-2.4h-2.6z"/><path fill="#825B50" d="M88.7 83.3v3.4l3.6-3.6c1.7-1.7 5.5-2.9 7.7-2.8 2.2.1 11.3-.8 15.1-.1s4.3-5 4.3-5c-5.5-.7-12.9 1.2-19.9 1.2-6.9 0-12.2 4.6-12.2 4.6h2.6l-2.6 2.4h1.4z"/><path fill="#4C4A4C" d="M69.6 98.9c.2.1.5.2.7.3 0 0-1.7-7.5-2.4-12.5S70.5 75 70.5 75l-4.8 1.1 6.7-10.3-5 1.7 7.5-5.3-1.2.5S75 56 77.9 52.1C80.8 48.4 94 40.8 94 40.8c4.2-1 12.1-.1 12.1-.1s.1 2.7 1.1 2.7 10.1-4.8 10.1-4.8l-.7 4.8 8.3-4.2-1.9 4.2 4.7-1.6v-1c-1.3.9-2.9 2-2.9 2l2.2-5.9-8.2 5 1.9-5.8-9.3 4.4 4-5.4-23.2 4.6s9.4-6.2 12.5-8.6c3.1-2.4-6.2 1.1-6.2 1.1s5.8-3.7 8.5-4.6c2.6-.9 2.2 1.9 2.2 1.9l6.9-4.1c-1.6 3.1-2.2 5.3-2.2 5.3l12.7-7.9c-4.2 8.2 1.3 8.5 1.3 8.5v-23h-.2c-19 0-27 2.4-32.7 5.6-5.7 3.2-12.5 12.8-16.3 18.2-3.8 5.4-12.1 15.3-15.2 27.8-3 12.5-3 11.5-3 11.5v9.4s2.2 4.3 4.2 5.8 1.9 9.5 1.9 9.5 0 .5.5 1.2c.3.6 1.1 1.2 2.5 1.6z"/><path fill="#4C4A4C" d="M78.4 67l-3.3 7 3.4-2.2-2.2 7.5c.3-.8.5-1.3.5-1.3l-1 2.8.4-1.5c-.7 1.8-1.8 5.1-2.5 8.7-.5 2.9.2 8.2 1 12.3l.3-11.6s.3-6.4 2.6-10.2c2.2-3.8 1.3-13.1 1.3-13.1L76 67.6l1.3-6.4-2 .9c-.1.7-1 5.7-1.4 6.4-.5.7 4.5-1.5 4.5-1.5z"/><path fill="#979493" d="M127.7 34.4v-3s-5.4-.4-1.3-8.5l-12.7 7.9s.6-2.2 2.2-5.3l-6.9 4.1s.5-2.8-2.2-1.9c-2.6.9-8.5 4.6-8.5 4.6s9.3-3.5 6.2-1.1c-3.1 2.4-12.5 8.6-12.5 8.6l23.2-4.6-4 5.4 9.3-4.4-1.9 5.8 8.2-5-2.2 5.9s1.6-1.1 2.9-2v-6.5zM67.4 67.5l5-1.7-6.7 10.3 4.8-1.1s-3.4 6.6-2.6 11.7c.7 5 2.4 12.5 2.4 12.5l3.8 4.7 1.9 2.3s-.6-2.6-1.2-5.9c-.8-4.1-1.5-9.4-1-12.3.7-3.6 1.8-6.9 2.5-8.7l2.2-7.5-3.4 2.2 3.4-6.9s-5 2.2-4.6 1.4c.4-.7 1.3-5.6 1.4-6.4V62l-.3.3-7.6 5.2z"/><path fill="#979493" d="M76.8 78.1s-.2.5-.5 1.3l-.4 1.5.9-2.8z"/><path fill="#374A61" d="M127.7 186.7c-1.5 0-19.4-.5-28-5.1-8.9-4.8-20.5-16.7-21.5-22.8 0 0-3.6 2.8-6.2 7.2 12.3 24 55.8 33.2 55.8 33.2v-12.5h-.1z"/><path fill="#000B1D" d="M127.8 199.2S84.3 190 72 166c-.1-.3-.3-.5-.4-.8-.2 1.9-.1 3.7.3 5.6 0 0 5.1 9.6 16.6 17.2 0 0 16.6 27.8 39.3 34.5v-23.3z"/><path fill="#40495B" d="M127.8 226.6v-4.2c-22.7-6.7-39.3-34.5-39.3-34.5-11.4-7.6-16.5-17.2-16.5-17.2-.4-1.8-.5-3.7-.3-5.6.9-8.9 7.5-17.4 7.5-17.4l-2.2-7.8c-12.8.6-27 23.5-28.6 28-1.6 4.5 1.9 6.1 3.8 10.2 1 2.2 1.2 6.4 1.4 10.6l.4-.1s2.8 11.3 7.8 26c5.3 10.6 12.6 23.9 19.2 32.5 14.5 5.7 30.3 8.9 46.8 8.9v-29.4z"/><path fill="#636E7D" d="M218.4 189.7l-16.3-3.7s-.1.5-.4 1.4c-1 3.8-4 14.8-8.7 28.1-3.3 9.2-7.4 19.5-12.2 29.1 7.3-3.3 14.3-7.3 20.8-11.9-1.1-.8-2.2-1.6-3.2-2.4-.2-.1-.4-.3-.6-.4 0 0 .3 0 .8.1 1 .2 2.9.5 5.5 1 9.9-7.4 18.8-16.1 26.2-26-3.4-5.7-7.4-11-11.9-15.3z"/><path fill="#4E5764" d="M61.8 214.6c-5.1-14.7-7.8-26-7.8-26l-.4.1-16 3.6c-4.1 3.9-7.8 8.7-11 13.8 8 10.3 17.4 19.4 28.1 26.9 1.6-.3 2.7-.5 3.2-.5h.3c-.1 0-.1.1-.2.1-.6.5-1.3.9-1.9 1.4 5.5 3.7 11.3 7.1 17.4 9.9-4.7-9.9-8.6-20.3-11.7-29.3z"/></svg>