<svg id="Layer_1" xmlns="http://www.w3.org/2000/svg" width="256" height="256"><style>.st2{fill:#c08c76}.st4{fill:#d8aa91}.st5{fill:#b8927d}.st6{fill:#d6d4d4}.st8{fill:#b27d6b}.st10{fill:#a1806e}.st11{fill:#a0a0a1}.st14{fill:#6d7175}.st16{fill:#252a34}.st19{fill:#7c672a}.st21{fill:#8b7742}.st22{fill:#aa9052}.st23{fill:#5b4d19}.st24{opacity:.6;fill:#773d29}.st25{fill:#988149}.st26{fill:#665620}.st28{fill:#746436}</style><g id="XMLID_5_"><circle id="XMLID_134_" cx="128" cy="128.5" r="128" fill="#b2b4b5"/><g id="XMLID_3_"><path id="XMLID_4_" d="M128 239.5v17-17z" fill="none"/><path id="XMLID_156_" class="st2" d="M136.3 177.5c-4.3.6-7.9.7-8.3.7v23.7c4.2 0 7.9-.4 11.3-1.2-.2-7.1-1.8-17.1-3-23.2z"/><path id="XMLID_157_" class="st2" d="M156.5 168.5c-.2.1-.4.2-.7.3-1.5.7-3.8 2-3.8 2-.8.6-1.9 1.6-3.5 2.9-1.6 1.3-4.2 2.3-6.9 2.9l5.7 21.7c11-4.6 16.4-12.4 18.1-15.2.2-3.3.4-6.4.5-9.5 0 0 2.8-13.9 2.6-17.4v.1c-.4-2.1-.7-4.2-1-6.2-1 3.3-1.9 6.2-2.6 8.3-1.9 6.2-5.8 8.9-8.4 10.1z"/><path id="XMLID_158_" d="M147.3 198.3l-5.7-21.7c-1.7.4-3.5.7-5.2 1 1.1 6.1 2.8 16.1 3 23.3 2.8-.8 5.5-1.6 7.9-2.6z" fill="#a87b67"/><path id="XMLID_159_" class="st2" d="M184 81.4c-.8 2.5 1.5 7.3 1.5 7.3l-1.9-.5.6 4.3-2.1-1.9s-.3 5.3-.8 7.9c-.3 1.6-1.3 4.5-2 6.5-.4 2.2-.7 4.2-1 5.9-.6 3.6-2 9.3-3.8 15.5 6.1 1.7 7.8-5.1 9.6-10.4 2.1-6.1 1.6-14.5.8-19.5-.8-4.9 1.9-5.3 1.4-13.4-.1-.9-.3-1.6-.6-2.1-.4-.5-1.1-1.1-1.7.4z"/><path id="XMLID_160_" class="st4" d="M136.1 89.3H128v3.6c3.3 0 5.2.9 6.1 1.5.3-2.2 1-3.8 2-5.1z"/><path id="XMLID_161_" class="st4" d="M143.2 85.9c1.1-.1 2.1-.2 3.1-.2h24.6c4.3 0 5.3 1.9 5.5 4.1h1.2c.3-1.4.4-2.9.1-3.5-.8-1.4-2-6.4-2-6.4s2.7-13.5 1.8-19.6c-1-6.1-6.5-17.6-11.2-23.9-4.6-6.4-11.5-8.9-19-5.9-7.3 2.9-18.6 5.7-19.3 5.9V73c.7 0 12-.1 17.8-2.7 6.1-2.7 15.5 0 15.5 0s-10.9-.9-13.3.8c-2.4 1.6-11.5 3.9-20.1 3.9v3.9c.7 0 12-.1 17.8-2.7 6.1-2.7 15.5 0 15.5 0s-10.9-.9-13.3.8c-2.4 1.6-11.5 3.9-20.1 3.9v5.2l15.4-.2z"/><path id="XMLID_162_" class="st4" d="M156.5 168.5l-.6.3c.1-.1.3-.2.6-.3z"/><path id="XMLID_165_" class="st4" d="M179.4 105c-.4 1.2-.8 2.1-.8 2.1v-8.6l-1.3 1.5c-.2-1.2 0-2.7.2-3.9h-1.1v15.2c0 3.4-2.2 4.3-9.1 4.3h-18.2c-6.3 0-13.7-8.8-15-17.1-2.6-2.8-6-2.7-6.2-2.7V135c.4 0 6 .3 9.4-3.7 0 0 4.3-.1 6.7 1.9v-.7s3.2 1.2 4.1 1.8c.8.6 1.1-1.4 1-3 0 0 1 4.2 1.9 5.6 1 1.4 1.7 3.8 1.7 3.8l-1.6-.6s1 1.6 1 1.9c0 .4-1.7 0-1.7 0v2.4s-3.6-1.4-4.9-2.6c-1.3-1.2-1 1.3-1 1.3l-3.4-1.4s-.1 2.2-1.7 1.6c-1.6-.6-3.7-.8-5-.2-1.3.6-2 1.4-6.5 1.4v33.8c.4 0 4-.1 8.3-.7 1.7-.2 3.5-.5 5.2-1 2.8-.7 5.3-1.6 6.9-2.9 1.6-1.3 2.8-2.3 3.5-2.9 0 0 3.8-7.3 3.1-11.7-.7-4.4-1.5-8.3-1.5-8.3s4.3 10.1 1.6 17c0 0 3.5-4 5.4-8.4 0 0-2.7 8.6-4.1 9.1 2.7-1.2 6.6-3.9 8.5-10.2.7-2.1 1.6-5 2.6-8.3 2.1-6.9 4.8-15.7 7.1-23.6 1.8-6.3 3.2-11.9 3.8-15.5.3-1.7.7-3.7 1.1-5.9zm-29.9 26c-2.4-3.5-6.5-9.8-10.4-11 0 0 6.4 1.7 10.9 9.1s7 9.7 7.7 15.7c.1 0-5.4-9.7-8.2-13.8z"/><path id="XMLID_166_" class="st5" d="M156.5 168.5c1.4-.5 4.1-9.1 4.1-9.1-1.9 4.4-5.4 8.4-5.4 8.4 2.7-6.9-1.6-17-1.6-17s.8 3.8 1.5 8.3c.7 4.4-3.1 11.7-3.1 11.7s2.3-1.3 3.8-2c.3-.2.5-.2.7-.3z"/><path id="XMLID_167_" class="st6" d="M132.7 10.6l-2.9 6.2c3.1-1.9 7.2-6.2 7.2-6.2l-1.5 6.7 3.6-3.8c1.7-1.9 7.2-1 7.2-1l-1.5 5c2.2-2.6 6.2-2.6 6.2-2.6s13.2 2.8 23 19.2c-8-6-17.5-7.7-17.5-7.7h-6.9L152 24c-2.2 0-7.7 3.4-7.7 3.4v-1.7l-5.7 2.4v-2.4l-6.2 4.2 1.9-4.2c-3.4 2.2-5.9 7.6-6.3 8.3v2.3c.7-.2 12-3 19.3-5.9 7.5-3 14.4-.5 19 5.9s10.2 17.9 11.2 23.9c1 6.1-1.8 19.6-1.8 19.6s1.2 5 2 6.4c.3.6.2 2-.1 3.5h2.7V96h-2.7c-.3 1.3-.4 2.7-.2 3.9l1.3-1.5v8.6s.3-.9.8-2.1c.7-2 1.7-4.9 2-6.5.5-2.6.8-7.9.8-7.9l2.1 1.9-.6-4.3 1.9.5s-2.3-4.8-1.5-7.3c.5-1.6 1.3-1 1.9-.5 0-2.1 3.1-12.9 2.9-14.8-.2-1.9.6-10.9-3.5-17.6-4.2-6.7-7.3-13.9-10.7-18-3.4-4.1-15.5-21.7-46.6-21.7v6.9l4.5-5z"/><path id="XMLID_169_" class="st5" d="M128 74.9c8.6 0 17.7-2.2 20.1-3.9 2.4-1.6 13.3-.8 13.3-.8s-9.4-2.7-15.5 0c-5.9 2.6-17.1 2.7-17.8 2.7v2z"/><path id="XMLID_170_" class="st5" d="M128 80.7c8.6 0 17.7-2.2 20.1-3.9 2.4-1.6 13.3-.8 13.3-.8s-9.4-2.7-15.5 0c-5.9 2.6-17.1 2.7-17.8 2.7v2z"/><path id="XMLID_171_" class="st6" d="M134.5 143c1.3-.6 3.5-.4 5 .2 1.6.6 1.7-1.6 1.7-1.6l3.4 1.4s-.4-2.5 1-1.3c1.3 1.2 4.9 2.6 4.9 2.6V142s1.7.4 1.7 0-1-1.9-1-1.9l1.6.6s-.7-2.4-1.7-3.8-1.9-5.6-1.9-5.6c.1 1.6-.1 3.6-1 3-.8-.6-4.1-1.8-4.1-1.8v.7c-2.4-2-6.7-1.9-6.7-1.9-3.4 4.1-9 3.7-9.4 3.7v9.5c4.6-.1 5.2-.9 6.5-1.5z"/><path id="XMLID_172_" class="st5" d="M150 129.1c-4.6-7.4-10.9-9.1-10.9-9.1 3.8 1.2 8 7.5 10.4 11 2.8 4.1 8.3 13.8 8.3 13.8-.7-6-3.2-8.3-7.8-15.7z"/><path id="XMLID_173_" d="M128 21.8v12.1c.3-.7 2.9-6.1 6.3-8.3l-1.9 4.2 6.2-4.2V28l5.7-2.4v1.7s5.5-3.4 7.7-3.4l-2.4 2.4h6.9S166 28 174 34c-9.8-16.4-23-19.2-23-19.2s-4 0-6.2 2.6l1.5-5s-5.5-1-7.2 1l-3.6 3.8 1.5-6.7s-4.1 4.3-7.2 6.2l2.9-6.2-4.6 5.2v6.1z" fill="#b0b0b0"/><path id="XMLID_174_" class="st8" d="M108.8 198.3l5.8-21.7c-2.8-.7-5.3-1.6-6.9-2.9-1.6-1.3-2.8-2.3-3.5-2.9 0 0-2.3-1.3-3.8-2l-.6-.3c-2.7-1.2-6.6-3.9-8.5-10.2-.7-2.1-1.6-5-2.6-8.3-.3 2-.6 4.1-1 6.1-.3 3.4 2.6 17.4 2.6 17.4.1 3.1.3 6.2.5 9.5 1.5 2.9 6.9 10.7 18 15.3z"/><path id="XMLID_175_" class="st8" d="M128 211.5v-33.2s-3.8-.1-8.3-.7c-1.1 6.1-2.8 16.1-3 23.3 3.4.7 7.1 1.2 11.3 1.2v37.4-28z"/><path id="XMLID_176_" d="M108.8 198.3c2.4 1 5 1.8 8 2.5.2-7.2 1.9-17.2 3-23.3-1.7-.2-3.5-.5-5.2-1l-5.8 21.8z" fill="#906958"/><path id="XMLID_178_" class="st8" d="M72 81.4c-.5-1.6-1.3-1-1.9-.5-.2.4-.4.8-.5 1.4l2.5.7c.1-.6.1-1.1-.1-1.6z"/><path id="XMLID_179_" class="st8" d="M73.9 90.6l-2.1 1.9.6-4.3-1.9.5s.8-1.6 1.2-3.4l-2.2-.6c-.1 5.8 1.6 7 1.6 10.2l2.8-3.1v-1.2z"/><path id="XMLID_180_" class="st8" d="M76.7 105c-.7-2-1.7-4.9-2-6.5-.2-1-.3-2.3-.5-3.6l-3.5 3.8c-.6 5-.7 12 1.1 17.3 1.8 5.4 3.5 12.2 9.6 10.4-1.8-6.3-3.2-11.9-3.8-15.5-.2-1.7-.6-3.7-.9-5.9z"/><circle id="XMLID_181_" class="st2" cx="90" cy="76" r="3.8"/><path id="XMLID_182_" class="st2" d="M80.5 81.2c.9 0 1.8.3 2.6.7l2.7-2.9c-1.4-2-1.3-4.7.4-6.5 1.9-2.1 5.2-2.3 7.4-.3 1.1 1 1.7 2.4 1.7 3.8 2-.5 9.7-2.2 15 .1 6.1 2.7 17.9 2.7 17.9 2.7v-3.9c-8.6 0-17.7-2.2-20.1-3.9-2.4-1.6-13.3-.8-13.3-.8s9.4-2.7 15.5 0 17.9 2.7 17.9 2.7V36.3s-11.8-2.9-19.3-5.9-14.4-.5-19 5.9-10.2 17.9-11.2 23.9c-1 6.1 1.8 19.6 1.8 19.6s-.1.5-.3 1.3v.1h.3z"/><path id="XMLID_185_" class="st2" d="M99.6 168.5c-1.4-.5-4.1-9.1-4.1-9.1 1.9 4.4 5.4 8.4 5.4 8.4-2.7-6.9 1.6-17 1.6-17s-.8 3.8-1.5 8.3c-.7 4.4 3.1 11.7 3.1 11.7.8.6 1.9 1.6 3.5 2.9 1.6 1.3 4.2 2.3 6.9 2.9 1.7.4 3.5.7 5.2 1 4.5.6 8.3.7 8.3.7v-33.8c-4.6 0-5.2-.8-6.5-1.4-1.3-.6-3.5-.4-5 .2-1.6.6-1.7-1.6-1.7-1.6l-3.4 1.4s.4-2.5-1-1.3c-1.3 1.2-4.9 2.6-4.9 2.6V142s-1.7.4-1.7 0 1-1.9 1-1.9l-1.6.6s.7-2.4 1.7-3.8 1.9-5.6 1.9-5.6c-.1 1.6.1 3.6 1 3 .8-.6 4.1-1.8 4.1-1.8v.7c2.4-2 6.7-1.9 6.7-1.9 3.5 4.2 9.4 3.7 9.4 3.7V80.8c-8.6 0-17.7-2.2-20.1-3.9-2.1-1.4-10.6-.9-12.7-.8 0 1.2-.4 2.5-1.3 3.5-1.7 1.8-4.4 2.2-6.4 1l-2.7 2.9c.5.7.8 1.4.9 2.3h5.8c1.2-.7 2.6-1 4.1-.6.5.1.9.3 1.3.6h12.9c1 0 2.1.1 3.1.2H128v3.4h-8.1c1 1.2 1.7 2.9 2 5.1.9-.6 2.8-1.5 6.1-1.5v2.9s-3.6-.2-6.2 2.7c-1.3 8.3-8.7 17.1-15 17.1H88.6c-6.9 0-9.1-1-9.1-4.3V96.2h-1c.3 1.3.4 2.7.2 3.9l-1.3-1.5v8.6s-.3-.9-.8-2.1c.4 2.2.7 4.2 1 5.9.6 3.6 2 9.3 3.8 15.5 2.2 7.9 4.9 16.7 7.1 23.6 1 3.3 1.9 6.2 2.6 8.3 1.9 6.2 5.8 8.9 8.5 10.1zm17.3-48.5c-3.8 1.2-8 7.5-10.4 11-2.8 4.1-8.3 13.8-8.3 13.8.7-6 3.2-8.3 7.7-15.7 4.7-7.4 11-9.1 11-9.1z"/><path id="XMLID_186_" class="st2" d="M100.2 168.7c-.2-.1-.5-.2-.6-.3.2.2.4.3.6.3z"/><path id="XMLID_187_" class="st10" d="M101 159c.7-4.4 1.5-8.3 1.5-8.3s-4.3 10.1-1.6 17c0 0-3.5-4-5.4-8.4 0 0 2.7 8.6 4.1 9.1l.6.3c1.5.7 3.8 2 3.8 2 .1 0-3.8-7.2-3-11.7z"/><path id="XMLID_188_" class="st11" d="M72 81.4c.1.5.2 1 .2 1.6l3.7 1c.3-.6.7-1.1 1.2-1.6l-2.8-8.2.7-.3-.3-.9-2.5.8v-4.4l3.8-1.3 2.6 3.5-2.5.8.3.9.7-.3 2.7 7.9c.2-.8.3-1.3.3-1.3S77.4 66.1 78.3 60c1-6.1 6.5-17.6 11.2-23.9 4.6-6.4 11.5-8.9 19-5.9s19.3 5.9 19.3 5.9V34s-2.7-6-6.3-8.4l1.9 4.2-6.2-4.2V28l-5.7-2.4v1.7s-5.5-3.4-7.7-3.4l2.4 2.4h-6.9S89.8 28 81.8 34c9.8-16.4 23-19.2 23-19.2s4 0 6.2 2.6l-1.5-5s5.5-1 7.2 1l3.6 3.8-1.5-6.7s4.1 4.3 7.2 6.2l-2.9-6.2 4.7 5.3V8.9c-31.1 0-43.2 17.6-46.6 21.7-3.4 4.2-6.5 11.3-10.7 18-4.2 6.7-3.4 15.6-3.5 17.6 0 1.9 3.2 12.7 3.2 14.8.5-.5 1.3-1.1 1.8.4z"/><path id="XMLID_189_" class="st11" d="M75.3 86.2l-3.5-.9c-.5 1.8-1.2 3.4-1.2 3.4l1.9-.5-.6 4.3 2.1-1.9s0 .5.1 1.2l1.7-1.9v-.1h.1l.4-.4c-.6-.8-.9-1.9-.9-3-.2-.1-.1-.1-.1-.2z"/><path id="XMLID_190_" class="st11" d="M75.7 93.3l-1.4 1.6c.1 1.3.3 2.6.5 3.6.3 1.6 1.3 4.5 2 6.5.4 1.2.8 2.1.8 2.1v-8.6l1.3 1.5c.2-1.2 0-2.7-.2-3.9h-2.8v-2.8z"/><path id="XMLID_191_" class="st10" d="M110.2 70.2c-6.1-2.7-15.5 0-15.5 0s10.9-.9 13.3.8c2.4 1.6 11.5 3.9 20.1 3.9V73c-.1-.1-11.9-.1-17.9-2.8z"/><path id="XMLID_192_" class="st10" d="M128 78.8s-11.8 0-17.9-2.7c-5.2-2.3-13-.6-15-.1v.1c2.2-.2 10.7-.6 12.7.8 2.4 1.6 11.5 3.9 20.1 3.9v-2z"/><path id="XMLID_193_" class="st11" d="M128 135s-5.9.5-9.4-3.7c0 0-4.3-.1-6.7 1.9v-.7s-3.2 1.2-4.1 1.8c-.8.6-1.1-1.4-1-3 0 0-1 4.2-1.9 5.6-1 1.4-1.7 3.8-1.7 3.8l1.6-.6s-1 1.6-1 1.9c0 .4 1.7 0 1.7 0v2.4s3.6-1.4 4.9-2.6c1.3-1.2 1 1.3 1 1.3l3.4-1.4s.1 2.2 1.7 1.6c1.6-.6 3.7-.8 5-.2 1.3.6 2 1.4 6.5 1.4V135z"/><path id="XMLID_194_" class="st10" d="M98.3 144.8s5.5-9.6 8.3-13.8c2.4-3.5 6.5-9.8 10.4-11 0 0-6.4 1.7-10.9 9.1-4.6 7.4-7.1 9.7-7.8 15.7z"/><path id="XMLID_195_" d="M128 21.8v-6l-4.7-5.3 2.9 6.2c-3.1-1.9-7.2-6.2-7.2-6.2l1.5 6.7-3.6-3.8c-1.7-1.9-7.2-1-7.2-1l1.5 5c-2.2-2.6-6.2-2.6-6.2-2.6S91.8 17.6 82 34c8-6 17.5-7.7 17.5-7.7h6.9L104 24c2.2 0 7.7 3.4 7.7 3.4v-1.7l5.7 2.4v-2.4l6.2 4.2-1.9-4.2C125.3 28 128 34 128 34V21.8z" fill="#898a8b"/><path id="XMLID_196_" d="M128 211.5v45c10 0 19.7-1.1 29-3.3 2.4-16 5.2-36 7.1-54.9-14.2 14.9-36.1 13.2-36.1 13.2z" fill="#7e8287"/><path id="XMLID_197_" class="st14" d="M147.3 198.3c-2.4 1-5 1.9-8 2.5-3.4.7-7.1 1.2-11.3 1.2v9.5s21.9 1.7 36-13.2c.5-5.2.9-10.3 1.3-15.2-1.6 2.8-7 10.5-18 15.2z"/><path id="XMLID_198_" d="M171.9 162.2c.3 1 .6 2.1.7 3.3 0 0 .2 16.5-1.2 28.1-1.2 10.3-4.4 34.7-7.5 57.8 31.2-9.1 57.5-29.7 73.9-57-8.3-3.1-13.7-4.7-25.7-10.6-20.7-10.3-37.4-19.9-40.2-21.6z" fill="#303640"/><path id="XMLID_199_" class="st16" d="M172.6 165.5c-.1-1.2-.4-2.2-.7-3.3-1.1-3.2-3-5.6-3.3-6v-.1c.3 3.4-2.6 17.4-2.6 17.4-.1 3.1-.3 6.2-.5 9.5-.3 4.9-.8 10-1.3 15.2-1.9 18.9-4.6 39-7.1 54.9 2.3-.5 4.6-1.1 6.9-1.8 3.1-23.2 6.3-47.5 7.5-57.8 1.3-11.6 1.1-28 1.1-28z"/><path id="XMLID_200_" class="st14" d="M128 211.5s-21.9 1.7-36-13.2c1.9 18.9 4.6 39 7.1 54.9 9.3 2.2 19 3.3 29 3.3v-45z"/><path id="XMLID_201_" d="M116.7 200.8c-2.9-.6-5.6-1.5-8-2.5-11.1-4.6-16.4-12.4-18.1-15.3.3 4.9.8 10 1.3 15.2 14.1 14.9 36 13.2 36 13.2v-9.5c-4.1 0-7.8-.4-11.2-1.1z" fill="#55595d"/><path id="XMLID_202_" d="M83.4 165.5c.1-1.2.4-2.2.7-3.3-2.8 1.6-19.5 11.3-40.2 21.5-12 6-17.4 7.5-25.7 10.6 16.4 27.2 42.7 47.9 73.9 57-3.1-23.2-6.3-47.5-7.5-57.8-1.4-11.6-1.2-28-1.2-28z" fill="#131821"/><path id="XMLID_203_" class="st16" d="M90.7 183c-.2-3.3-.4-6.4-.5-9.5 0 0-2.8-13.9-2.6-17.4 0 0-2.2 2.5-3.4 6.1-.3 1-.6 2.1-.7 3.3 0 0-.2 16.5 1.2 28.1 1.2 10.3 4.4 34.7 7.5 57.8 2.3.7 4.6 1.3 6.9 1.8-2.4-16-5.2-36-7.1-54.9-.6-5.2-1-10.3-1.3-15.3z"/><path id="XMLID_204_" class="st19" d="M176.5 92v4.1h3.8v-6.3h-3.9c.1.7.1 1.4.1 2.2z"/><path id="XMLID_205_" d="M173.2 93.4c0-2.3.1-4.5-4.6-4.5h-20.3c-4.5 0-10.2.6-10.2 7.8s6.9 15.8 12.5 15.8h15c5.7 0 7.5-.8 7.5-3.5s.1-13.3.1-15.6z" opacity=".6" fill="#844530"/><path id="XMLID_206_" class="st19" d="M143.2 85.9H128v3.4h8.1c1.8-2.1 4.4-3.1 7.1-3.4z"/><path id="XMLID_207_" class="st19" d="M134.2 98.5c-.1-.8-.2-1.6-.2-2.4 0-.6 0-1.2.1-1.7-.9-.6-2.8-1.5-6.1-1.5v2.9c.2 0 3.7 0 6.2 2.7z"/><path id="XMLID_210_" class="st21" d="M176.5 89.8c-.2-2.2-1.2-4.1-5.5-4.1h-24.6c-1 0-2.1.1-3.1.2-2.7.4-5.3 1.3-7.1 3.4-1 1.2-1.7 2.9-2 5.1-.1.5-.1 1.1-.1 1.7 0 .8.1 1.6.2 2.4 1.3 8.3 8.7 17.1 15 17.1h18.2c6.9 0 9.1-1 9.1-4.3V92c-.1-.8-.1-1.5-.1-2.2zm-2.6 3.3c0-.5.4-.9.9-.9s.9.4.9.9-.4.9-.9.9-.9-.4-.9-.9zm-8.3 19.4h-15c-5.7 0-12.5-8.5-12.5-15.8 0-7.2 5.7-7.8 10.2-7.8h20.3c4.8 0 4.6 2.2 4.6 4.5V109c0 2.7-1.9 3.5-7.6 3.5zm-26-24.3c0-.5.4-.9.9-.9s.9.4.9.9-.4.9-.9.9-.9-.5-.9-.9zm11.3-1.1c0-.5.4-.9.9-.9s.9.4.9.9-.4.9-.9.9-.9-.4-.9-.9zm22.8.5c.5 0 .9.4.9.9s-.4.9-.9.9-.9-.4-.9-.9.4-.9.9-.9zm-4.8-1.3c.5 0 .9.4.9.9s-.4.9-.9.9-.9-.4-.9-.9.5-.9.9-.9zm-5.4 0c.5 0 .9.4.9.9s-.4.8-.9.8-.9-.4-.9-.9.4-.8.9-.8zm-4.8.8c0 .5-.4.9-.9.9s-.9-.4-.9-.9.4-.9.9-.9c.5.1.9.5.9.9zm-12.7-.8c.5 0 .9.4.9.9s-.4.8-.9.8-.9-.4-.9-.9.4-.8.9-.8zm-9.2 4.2c.5 0 .9.4.9.9s-.4.9-.9.9-.9-.4-.9-.9c.1-.6.5-.9.9-.9zm-1.7 5.5c0-.5.4-.9.9-.9s.9.4.9.9-.4.9-.9.9-.9-.4-.9-.9zm.9 5.1c0-.5.4-.9.9-.9s.9.4.9.9-.4.9-.9.9-.9-.4-.9-.9zm2.9 5.9c-.5 0-.9-.4-.9-.9s.4-.9.9-.9.9.4.9.9-.4.9-.9.9zm3.8 4.2c-.5 0-.9-.4-.9-.9s.4-.9.9-.9.9.4.9.9-.4.9-.9.9zm4.6 3c-.5 0-.9-.4-.9-.9s.4-.9.9-.9.9.4.9.9-.4.9-.9.9zm5.6.6c-.5 0-.9-.4-.9-.9s.4-.9.9-.9.9.4.9.9-.4.9-.9.9zm6 0c-.5 0-.9-.4-.9-.9s.4-.9.9-.9.9.4.9.9-.4.9-.9.9zm5.7 0c-.5 0-.9-.4-.9-.9s.4-.9.9-.9.9.4.9.9-.4.9-.9.9zm5.4 0c-.5 0-.9-.4-.9-.9s.4-.9.9-.9.9.4.9.9-.4.9-.9.9zm4.5-2.3c-.5 0-.9-.4-.9-.9s.4-.9.9-.9.9.4.9.9-.4.9-.9.9zm.3-4.9c-.5 0-.9-.4-.9-.9s.4-.9.9-.9.9.4.9.9c-.1.5-.5.9-.9.9zm0-5c-.5 0-.9-.4-.9-.9s.4-.9.9-.9.9.4.9.9c-.1.5-.5.9-.9.9zm0-4.5c-.5 0-.9-.4-.9-.9s.4-.9.9-.9.9.4.9.9c-.1.5-.5.9-.9.9z"/><circle id="XMLID_233_" class="st22" cx="146" cy="87.1" r=".9"/><circle id="XMLID_234_" class="st22" cx="151.7" cy="87.1" r=".9"/><circle id="XMLID_235_" class="st22" cx="157.8" cy="87.1" r=".9"/><circle id="XMLID_236_" class="st22" cx="163.5" cy="87.1" r=".9"/><circle id="XMLID_237_" class="st22" cx="168.9" cy="87.1" r=".9"/><circle id="XMLID_238_" class="st22" cx="173.7" cy="88.5" r=".9"/><circle id="XMLID_239_" class="st22" cx="174.8" cy="93.1" r=".9"/><circle id="XMLID_240_" class="st22" cx="174.8" cy="97.2" r=".9"/><circle id="XMLID_241_" class="st22" cx="174.8" cy="101.7" r=".9"/><circle id="XMLID_242_" class="st22" cx="174.8" cy="106.7" r=".9"/><circle id="XMLID_243_" class="st22" cx="174.5" cy="111.6" r=".9"/><circle id="XMLID_244_" class="st22" cx="170" cy="113.9" r=".9"/><circle id="XMLID_245_" class="st22" cx="164.6" cy="113.9" r=".9"/><circle id="XMLID_246_" class="st22" cx="158.9" cy="113.9" r=".9"/><circle id="XMLID_247_" class="st22" cx="152.9" cy="113.9" r=".9"/><circle id="XMLID_248_" class="st22" cx="147.3" cy="113.3" r=".9"/><circle id="XMLID_249_" class="st22" cx="142.7" cy="110.3" r=".9"/><circle id="XMLID_250_" class="st22" cx="138.9" cy="106.1" r=".9"/><circle id="XMLID_251_" class="st22" cx="136.8" cy="101.1" r=".9"/><circle id="XMLID_252_" class="st22" cx="136" cy="96" r=".9"/><circle id="XMLID_253_" class="st22" cx="136.8" cy="91.3" r=".9"/><circle id="XMLID_254_" class="st22" cx="140.5" cy="88.2" r=".9"/><path id="XMLID_255_" class="st23" d="M79.5 91.5c-.6-.1-1.1-.3-1.6-.6l-2.2 2.4V96h3.8v-4.5z"/><path id="XMLID_256_" class="st23" d="M75.7 89.9l.1-.1h-.1z"/><path id="XMLID_257_" class="st24" d="M85.9 101.1l1.6 4.7-1.5.5-1.6-4.7-.7.3-.9-2.5v9.6c0 2.7 1.8 3.5 7.5 3.5h15c5.7 0 12.5-8.5 12.5-15.8 0-7.2-5.7-7.8-10.2-7.8H99c.2.8.2 1.7 0 2.6-.8 2.8-3.6 4.4-6.4 3.7-2.4-.7-3.9-2.9-3.8-5.3l-3.2-.9c-.3.1-.5.1-.8.2-.4.6-1 1.2-1.6 1.6l3.4 10.1-.7.2z"/><path id="XMLID_258_" class="st24" d="M90.5 88.9c0 .1-.1.2-.1.3-.5 2 .6 4.1 2.7 4.6 2 .5 4.1-.6 4.6-2.7.2-.8.2-1.6-.1-2.3-3.1.1-5.1.1-7.1.1z"/><path id="XMLID_259_" class="st23" d="M119.9 89.3h8.1v-3.4h-15.2c2.7.3 5.3 1.3 7.1 3.4z"/><path id="XMLID_260_" class="st23" d="M121.8 98.5c2.6-2.8 6.2-2.7 6.2-2.7v-2.9c-3.4 0-5.3.9-6.1 1.5.1.5.1 1.1.1 1.7-.1.8-.1 1.6-.2 2.4z"/><path id="XMLID_263_" class="st19" d="M98.2 86.3c.5 0 .9.4.9.9 0 .3-.1.5-.3.6.2.3.3.7.4 1.1h8.6c4.5 0 10.2.6 10.2 7.8s-6.9 15.8-12.5 15.8h-15c-5.7 0-7.5-.8-7.5-3.5v-9.6l-.7-2.2v.1c0 .5-.4.9-.9.9s-.9-.4-.9-.9.4-.9.9-.9c.3 0 .6.2.7.4l-1-2.9c-.4-.1-.6-.4-.6-.8 0-.2.1-.4.2-.5l-.3-1c-.2 0-.5 0-.7-.1v19.7c0 3.4 2.2 4.3 9.1 4.3H107c6.3 0 13.7-8.8 15-17.1.1-.8.2-1.6.2-2.4 0-.6 0-1.2-.1-1.7-.2-2.2-1-3.8-2-5.1-1.8-2.1-4.4-3.1-7.1-3.4-1.1-.1-2.1-.2-3.1-.2H97c.3.2.7.5.9.7h.3zm6.1 1.7c-.5 0-.9-.4-.9-.9s.4-.9.9-.9.9.4.9.9-.5.9-.9.9zm11.2 1c-.5 0-.9-.4-.9-.9s.4-.9.9-.9.9.4.9.9-.4.9-.9.9zm-34.3 11.9c.5 0 .9.4.9.9s-.4.9-.9.9-.9-.4-.9-.9c.1-.6.5-.9.9-.9zm-.8 5.8c0-.5.4-.9.9-.9s.9.4.9.9-.4.9-.9.9-.9-.4-.9-.9zm1.1 5.8c-.5 0-.9-.4-.9-.9s.4-.9.9-.9.9.4.9.9c-.1.5-.4.9-.9.9zm4.5 2.3c-.5 0-.9-.4-.9-.9s.4-.9.9-.9.9.4.9.9c-.1.5-.5.9-.9.9zm5.4 0c-.5 0-.9-.4-.9-.9s.4-.9.9-.9.9.4.9.9-.4.9-.9.9zm5.7 0c-.5 0-.9-.4-.9-.9s.4-.9.9-.9.9.4.9.9-.4.9-.9.9zm6 0c-.5 0-.9-.4-.9-.9s.4-.9.9-.9.9.4.9.9-.4.9-.9.9zm5.6-.6c-.5 0-.9-.4-.9-.9s.4-.9.9-.9.9.4.9.9-.4.9-.9.9zm4.6-3c-.5 0-.9-.4-.9-.9s.4-.9.9-.9.9.4.9.9-.4.9-.9.9zm3.8-4.2c-.5 0-.9-.4-.9-.9s.4-.9.9-.9.9.4.9.9c-.1.5-.5.9-.9.9zm2.1-5c-.5 0-.9-.4-.9-.9s.4-.9.9-.9.9.4.9.9-.5.9-.9.9zm1.7-6c0 .5-.4.9-.9.9s-.9-.4-.9-.9.4-.9.9-.9.9.5.9.9zm-1.7-3.8c-.5 0-.9-.4-.9-.9s.4-.9.9-.9.9.4.9.9c-.1.5-.5.9-.9.9zm-9.2-5.9c.5 0 .9.4.9.9s-.4.8-.9.8-.9-.4-.9-.9.4-.8.9-.8z"/><path id="XMLID_279_" class="st19" d="M85.7 86.7l.6.2c.1-.3.4-.6.8-.6.5 0 .9.4.9.9v.1l1.6.4c.4-.9 1.1-1.5 1.9-2h-5.8c0 .2.1.5.1.7-.1.1-.1.2-.1.3z"/><path id="XMLID_280_" class="st19" d="M95.1 86.5c-.7-.2-1.4-.2-2 0 .2.2.3.4.3.6 0 .5-.4.9-.9.9-.4 0-.8-.3-.8-.7-.5.4-.9 1-1.1 1.6h7.1c-.4-1.2-1.4-2.1-2.6-2.4z"/><path id="XMLID_281_" class="st19" d="M85 88.9c-.1.1-.1.2-.2.3.2-.1.5-.1.8-.2l-.6-.1z"/><circle id="XMLID_282_" class="st21" cx="110" cy="87.1" r=".9"/><circle id="XMLID_283_" class="st21" cx="104.3" cy="87.1" r=".9"/><path id="XMLID_284_" class="st21" d="M99 87.1c0-.5-.4-.9-.9-.9-.2 0-.3.1-.4.1.4.4.8.9 1 1.4.2-.1.3-.3.3-.6z"/><path id="XMLID_285_" class="st21" d="M92.5 88c.5 0 .9-.4.9-.9 0-.3-.1-.5-.3-.6-.5.1-1 .4-1.4.7 0 .5.3.8.8.8z"/><path id="XMLID_286_" class="st21" d="M87.9 87.1c0-.5-.4-.9-.9-.9-.4 0-.7.2-.8.6l1.6.4c.1 0 .1 0 .1-.1z"/><path id="XMLID_287_" class="st21" d="M80.4 93.1c0 .4.3.7.6.8l-.4-1.3c-.2.1-.2.3-.2.5z"/><path id="XMLID_288_" class="st21" d="M81.2 96.4c-.5 0-.9.4-.9.9s.4.9.9.9.9-.4.9-.9v-.1l-.1-.4c-.2-.2-.5-.4-.8-.4z"/><circle id="XMLID_289_" class="st21" cx="81.2" cy="101.7" r=".9"/><circle id="XMLID_290_" class="st21" cx="81.2" cy="106.7" r=".9"/><circle id="XMLID_291_" class="st21" cx="81.5" cy="111.6" r=".9"/><circle id="XMLID_292_" class="st21" cx="86" cy="113.9" r=".9"/><circle id="XMLID_293_" class="st21" cx="91.4" cy="113.9" r=".9"/><circle id="XMLID_294_" class="st21" cx="97.1" cy="113.9" r=".9"/><circle id="XMLID_295_" class="st21" cx="103.1" cy="113.9" r=".9"/><circle id="XMLID_296_" class="st21" cx="108.7" cy="113.3" r=".9"/><circle id="XMLID_297_" class="st21" cx="113.3" cy="110.3" r=".9"/><circle id="XMLID_298_" class="st21" cx="117.1" cy="106.1" r=".9"/><circle id="XMLID_299_" class="st21" cx="119.2" cy="101.1" r=".9"/><circle id="XMLID_300_" class="st21" cx="120" cy="96" r=".9"/><circle id="XMLID_301_" class="st21" cx="119.2" cy="91.3" r=".9"/><circle id="XMLID_302_" class="st21" cx="115.5" cy="88.2" r=".9"/><path id="XMLID_303_" transform="rotate(-18.702 75.64 73.286)" class="st25" d="M74.9 72.8h1.6v1h-1.6z"/><path id="XMLID_304_" transform="rotate(71.306 85.96 103.73)" class="st25" d="M83.5 102.9h4.9v1.6h-4.9z"/><path id="XMLID_305_" class="st26" d="M80 81.2l-2.7-8-.7.3-1.5.5-.7.3 2.8 8.2c.7-.7 1.7-1.2 2.8-1.3z"/><path id="XMLID_306_" class="st26" d="M81 93.9l1 2.9.1.3.7 2.2.9 2.5.7-.3 1.5-.5.7-.3-3.4-10.1c-.8.5-1.8.8-2.8.8h-.3l.3 1 .6 1.5z"/><path id="XMLID_307_" class="st19" d="M78.7 71.8l-2.6-3.5-3.8 1.3v4.3l2.5-.8 1.4-.5z"/><path id="XMLID_308_" class="st25" d="M85.7 79L83 81.9c.7.4 1.3.9 1.7 1.5l2.7-2.9c-.3-.2-.6-.4-.9-.7-.3-.2-.6-.5-.8-.8z"/><path id="XMLID_309_" class="st25" d="M75.7 93.3l2.2-2.4c-.7-.4-1.3-.9-1.7-1.5l-.4.4-.1.1-1.7 1.9-2.8 3.1-4.7 5.1 1.7 1.5 2.6-2.8 3.5-3.8 1.4-1.6z"/><path id="XMLID_312_" d="M93.5 72.1c-2.1-1.9-5.4-1.8-7.4.3-1.7 1.8-1.8 4.5-.4 6.5.2.3.5.6.8.9.3.3.6.5.9.7 2.1 1.2 4.8.8 6.4-1 .9-1 1.3-2.2 1.3-3.5v-.1c.1-1.4-.5-2.8-1.6-3.8zm-.7 6.4c-1.4 1.5-3.8 1.7-5.3.2-1.5-1.4-1.6-3.8-.2-5.3 1.4-1.5 3.8-1.7 5.3-.2 1.5 1.4 1.6 3.8.2 5.3z" fill="#897541"/><path id="XMLID_313_" class="st28" d="M75.3 86.2c0-.8.2-1.5.6-2.2l-3.7-1-2.5-.7-7.7-2.1-.6 2.2 8.1 2.2 2.2.6 3.6 1z"/><path id="XMLID_314_" class="st28" d="M88.9 89.9c0-.4.1-.8.2-1.1.1-.4.3-.7.4-1.1l-1.6-.4-1.6-.4-.6-.2c0 .8-.3 1.5-.6 2.2l.6.2 3.2.8z"/><path id="XMLID_317_" class="st22" d="M89.5 87.7c-.2.3-.3.7-.4 1.1-.1.4-.2.8-.2 1.1-.1 2.4 1.4 4.6 3.8 5.3 2.8.8 5.6-.9 6.4-3.7.2-.9.2-1.8 0-2.6-.1-.4-.2-.7-.4-1.1-.3-.5-.6-1-1-1.4-.3-.3-.6-.5-.9-.7-.4-.2-.8-.5-1.3-.6-1.4-.4-2.9-.1-4.1.6-.8.5-1.5 1.2-1.9 2zm8.2 3.4c-.5 2-2.6 3.2-4.6 2.7-2-.5-3.2-2.6-2.7-4.6 0-.1.1-.2.1-.3.2-.6.6-1.2 1.1-1.6.4-.4.9-.6 1.4-.7.6-.2 1.3-.2 2 0 1.2.3 2.2 1.3 2.6 2.4.3.6.4 1.4.1 2.1z"/><path id="XMLID_318_" d="M83 81.9c-.8-.4-1.6-.7-2.6-.7h-.5c-1.1.1-2.1.5-2.9 1.2-.5.4-.9 1-1.2 1.6-.3.7-.6 1.4-.6 2.2v.2c0 1.1.3 2.1.9 3 .4.6 1 1.1 1.7 1.5.5.3 1 .5 1.6.6.2 0 .5.1.7.1h.3c1 0 2-.3 2.8-.8.6-.4 1.2-.9 1.6-1.6.1-.1.1-.2.2-.3.4-.7.6-1.4.6-2.2v-.3c0-.2 0-.5-.1-.7-.1-.8-.4-1.6-.9-2.3-.3-.6-.9-1.1-1.6-1.5z" fill="#bc9e63"/></g></g></svg>