<svg id="Layer_1" xmlns="http://www.w3.org/2000/svg" width="256" height="256"><style>.st2{fill:#443a31}.st4{fill:#4e433a}.st5{fill:#c08c76}.st7{fill:#d8aa91}.st8{fill:#b8927d}.st9{fill:#d6d4d4}.st12{fill:#b27d6b}.st14{fill:#a1806e}.st15{fill:#a0a0a1}.st18{fill:#565656}.st21{fill:#4d4e4e}</style><g id="XMLID_3_"><circle id="XMLID_50_" cx="128" cy="128" r="128" fill="#b2b4b5"/><g id="XMLID_9_"><path id="XMLID_89_" class="st2" d="M12.3 182.9c5.1 10.6 11.5 20.5 19.2 29.2-4.6-14.9-8.3-26.6-9.6-32.3-3 .9-6.3 1.9-9.6 3.1z"/><path id="XMLID_90_" d="M76.4 161.7v.1c2.2-5.1 5.8-9.6 11.7-9.9.1-.8.2-1.6.4-2.4-1.4-4.6-3.1-10-4.7-15.5l-.4-.3s-34.9 16.2-48.8 22.2c0 0-15.6 8.1-13.2 21.7.1.6.3 1.3.4 2.1 1.4 5.7 5 17.4 9.6 32.3.7.8 1.3 1.5 2 2.3 3.5-6.5 8-13.8 8-13.8 15-26.8 35-38.8 35-38.8z" fill="#2f271f"/><path id="XMLID_91_" class="st4" d="M224.5 212.1c7.6-8.8 14.1-18.6 19.2-29.2-3.3-1.2-6.6-2.2-9.5-3.1-1.4 5.7-5.1 17.4-9.7 32.3z"/><path id="XMLID_92_" class="st2" d="M234.6 177.7C237 164 221.4 156 221.4 156c-13.9-6-48.8-22.2-48.8-22.2l-.4.3c-1.6 5.4-3.3 10.9-4.7 15.5.1.8.2 1.6.4 2.4 5.8.3 9.4 4.8 11.7 9.8 0 0 20.1 12 34.9 38.8 0 0 4.5 7.3 8 13.8.7-.7 1.4-1.5 2-2.3 4.6-14.9 8.3-26.6 9.6-32.3.2-.9.4-1.6.5-2.1z"/><path id="XMLID_93_" class="st5" d="M128 177.7V239v-50.3c3.7 0 7-.4 10-1.1-.6-3.9-1.2-7.6-1.7-10.5-4.2.5-7.9.6-8.3.6z"/><path id="XMLID_96_" class="st5" d="M156.4 168c-.2.1-.4.2-.7.3-1.5.7-3.8 2-3.8 2-.8.6-1.9 1.6-3.5 2.9-1.6 1.3-4.2 2.3-6.9 2.9l2.4 9.2c21-11.4 23.9-33.4 23.9-33.4-.1-.8-.2-1.6-.4-2.4-1 3.3-1.9 6.2-2.6 8.3-1.8 6.3-5.7 9-8.4 10.2z"/><path id="XMLID_110_" d="M141.5 176.1c-1.7.4-3.5.7-5.2 1 .5 2.9 1.2 6.6 1.7 10.5 1.1-.3 2.1-.5 3.2-.9.9-.4 1.9-.9 2.7-1.4l-2.4-9.2z" fill="#a87b67"/><path id="XMLID_111_" class="st5" d="M184 80.9c-.8 2.5 1.5 7.3 1.5 7.3l-1.9-.5.6 4.3-2.1-1.9s-.3 5.3-.8 7.9c-.3 1.6-1.3 4.5-2 6.5-.4 2.2-.7 4.2-1 5.9-.6 3.6-2 9.3-3.8 15.5 6.1 1.7 7.8-5.1 9.6-10.4 2.1-6.1 1.6-14.5.8-19.5-.8-4.9 1.9-5.3 1.4-13.4-.1-.9-.3-1.6-.6-2.1-.4-.5-1.2-1.1-1.7.4z"/><path id="XMLID_112_" class="st7" d="M167.9 107.9c.7-1 1.3-2 1.7-2.9.3-.7.5-1.4.7-2.3-.2.8-.4 1.6-.7 2.3-.4.9-1 1.9-1.7 2.9z"/><path id="XMLID_113_" class="st7" d="M159.1 87.6c-.3 0-.6 0-.9-.1.3 0 .6.1.9.1z"/><path id="XMLID_116_" class="st7" d="M128 93.5c.3 0 1.9-.1 4.1 1.1 0 0 2.7-4.4 5.9-6.1 0-.2 0-.3.1-.5h-10v5.5z"/><path id="XMLID_117_" class="st7" d="M159.1 113.7c.3 0 .5 0 .8-.1-.3.1-.6.1-.8.1z"/><path id="XMLID_118_" class="st7" d="M145.9 69.7c6.1-2.7 15.5 0 15.5 0s-10.9-.9-13.3.8c-2.4 1.6-11.5 3.9-20.1 3.9v3.9c.7 0 12-.1 17.8-2.7 6.1-2.7 15.5 0 15.5 0s-10.9-.9-13.3.8c-2.4 1.6-11.5 3.9-20.1 3.9V86h22.2c3.3-.8 5.8-.5 7.6 0h3.9c4.9 0 9.3 1.4 10.1 5.3h5.5c.4-1.9.9-4.4.4-5.3-.8-1.4-2-6.4-2-6.4s2.7-13.5 1.8-19.6c-.2-1.1-.5-2.3-.9-3.6-9.5 4.5-25.7 10-48.6 10v6.2c.8-.2 12.1-.2 18-2.9z"/><path id="XMLID_119_" class="st7" d="M156.4 168l-.6.3.6-.3z"/><path id="XMLID_122_" class="st7" d="M179.3 104.5c-.4 1.2-.8 2.1-.8 2.1V98l-1.3 1.5c-.5-3.1 1.3-7.4 1.3-7.4l-1.1.7v.6H172s1.7 11.1-2 15.4c-3.7 4.3-6 6.9-14.7 6.9s-13.9 0-18.1-7.7c-4.2-7.7-6-12.1-6-12.1s-1.2-.7-3.1-.7v39.2c.4 0 6 .3 9.4-3.7 0 0 4.3-.1 6.7 1.9v-.7s3.2 1.2 4.1 1.8c.8.6 1.1-1.4 1-3 0 0 1 4.2 1.9 5.6 1 1.4 1.7 3.8 1.7 3.8l-1.6-.6s1 1.6 1 1.9c0 .4-1.7 0-1.7 0v2.4s-3.6-1.4-4.9-2.6c-1.3-1.2-1 1.3-1 1.3l-3.4-1.4s-.1 2.2-1.7 1.6c-1.6-.6-3.7-.8-5-.2-1.3.6-2 1.4-6.5 1.4v33.8c.4 0 4-.1 8.3-.7 1.7-.2 3.5-.5 5.2-1 2.8-.7 5.3-1.6 6.9-2.9 1.6-1.3 2.8-2.3 3.5-2.9 0 0 3.8-7.3 3.1-11.7-.7-4.4-1.5-8.3-1.5-8.3s4.3 10.1 1.6 17c0 0 3.5-4 5.4-8.4 0 0-2.7 8.6-4.1 9.1 2.7-1.2 6.6-3.9 8.5-10.2.7-2.1 1.6-5 2.6-8.3 1.4-4.6 3.1-10 4.7-15.5.8-2.7 1.6-5.5 2.3-8.1 1.8-6.3 3.2-11.9 3.8-15.5.2-1.6.6-3.6.9-5.8zm-29.8 26c-2.4-3.5-6.5-9.8-10.4-11 0 0 6.4 1.7 10.9 9.1 4.6 7.4 7 9.7 7.7 15.7.1 0-5.4-9.7-8.2-13.8z"/><path id="XMLID_123_" class="st8" d="M155.8 168.2c.2-.1.5-.2.6-.3 1.4-.5 4.1-9.1 4.1-9.1-1.9 4.4-5.4 8.4-5.4 8.4 2.7-6.9-1.6-17-1.6-17s.8 3.8 1.5 8.3c.7 4.4-3.1 11.7-3.1 11.7.1 0 2.4-1.3 3.9-2z"/><path id="XMLID_124_" class="st9" d="M176.6 56.2c.4 1.3.7 2.6.9 3.6 1 6.1-1.8 19.6-1.8 19.6s1.2 5 2 6.4c.5.9 0 3.4-.4 5.3h.3v1.6l1.1-.7s-1.8 4.4-1.3 7.4l1.3-1.5v8.6s.3-.9.8-2.1c.7-2 1.7-4.9 2-6.5.5-2.6.8-7.9.8-7.9l2.1 1.9-.6-4.3 1.9.5s-2.3-4.8-1.5-7.3c.5-1.6 1.3-1 1.9-.5 0-2.1 3.1-12.9 2.9-14.8-.1-1.7.5-9-2.3-15.3-.2.2-3.6 2.8-10.1 6z"/><path id="XMLID_125_" class="st8" d="M148.1 70.5c2.4-1.6 13.3-.8 13.3-.8s-9.4-2.7-15.5 0c-5.9 2.6-17.1 2.7-17.8 2.7v1.9c8.5 0 17.6-2.2 20-3.8z"/><path id="XMLID_126_" class="st8" d="M148.1 76.3c2.4-1.6 13.3-.8 13.3-.8s-9.4-2.7-15.5 0c-5.9 2.6-17.1 2.7-17.8 2.7v1.9c8.5.1 17.6-2.1 20-3.8z"/><path id="XMLID_127_" class="st9" d="M134.5 142.5c1.3-.6 3.5-.4 5 .2 1.6.6 1.7-1.6 1.7-1.6l3.4 1.4s-.4-2.5 1-1.3c1.3 1.2 4.9 2.6 4.9 2.6v-2.4s1.7.4 1.7 0-1-1.9-1-1.9l1.6.6s-.7-2.4-1.7-3.8-1.9-5.6-1.9-5.6c.1 1.6-.1 3.6-1 3-.8-.6-4.1-1.8-4.1-1.8v.7c-2.4-2-6.7-1.9-6.7-1.9-3.4 4.1-9 3.7-9.4 3.7v9.5c4.6 0 5.2-.8 6.5-1.4z"/><path id="XMLID_128_" class="st8" d="M150 128.6c-4.6-7.4-10.9-9.1-10.9-9.1 3.8 1.2 8 7.5 10.4 11 2.8 4.1 8.3 13.8 8.3 13.8-.8-6-3.2-8.3-7.8-15.7z"/><path id="XMLID_129_" class="st9" d="M150.2 85.8h7.6c-1.8-.5-4.3-.7-7.6 0z"/><path id="XMLID_131_" class="st9" d="M145.1 88.4l1.5-.3-1.5.3z"/><path id="XMLID_132_" class="st9" d="M150.4 87.6c.5 0 .9-.1 1.3-.1-.4.1-.8.1-1.3.1z"/><path id="XMLID_133_" class="st9" d="M158.2 87.5c-1.5-.1-3.1-.1-4.6-.1 1.5 0 3.1 0 4.6.1z"/><path id="XMLID_134_" class="st9" d="M143.3 88.8c.4-.1.9-.2 1.4-.3-.5.1-.9.2-1.4.3z"/><path id="XMLID_135_" class="st9" d="M138.9 88h-.9c0 .1-.1.3-.1.5.4-.2.7-.4 1-.5z"/><path id="XMLID_136_" class="st9" d="M140.4 89.9c.4-.2.8-.4 1.1-.5-.3.1-.7.3-1.1.5z"/><path id="XMLID_137_" class="st9" d="M139.5 90.4c-.3.2-.7.4-1 .6.3-.2.7-.4 1-.6z"/><path id="XMLID_141_" d="M137.1 108.1c4.2 7.7 9.3 7.7 18.1 7.7s11-2.6 14.7-6.9c3.7-4.3 2-15.4 2-15.4h5.5v-2.2h-5.8c-.7-3.8-5.1-5.3-10.1-5.3h-33.7v2h10.9c-.3.1-.6.3-1 .5-3.2 1.8-5.9 6.1-5.9 6.1-2.2-1.2-3.8-1.1-4.1-1.1v1.8c1.9 0 3.1.7 3.1.7s2.2 4.5 6.3 12.1zm-2-14c.1-.2.3-.4.4-.6.5-.5 1-1.1 1.7-1.6.4-.3.9-.7 1.3-.9.4-.2.7-.4 1-.6.3-.2.6-.3.9-.5.4-.2.8-.4 1.1-.5.2-.1.3-.1.4-.2.1-.1.3-.1.3-.1.3-.1.7-.2 1-.3.4-.1.9-.2 1.4-.3.1 0 .2-.1.4-.1l1.5-.3c.4-.1.8-.1 1.2-.2.9-.1 1.7-.2 2.4-.3h.2c.5 0 .9-.1 1.3-.1 1.1-.1 1.8-.1 1.8-.1 1.6 0 3.1 0 4.6.1.3 0 .6 0 .9.1 5.4.4 9.9 1.4 10.7 3.7.7 1.9 1 4.4 1 6.9v.9c-.1 1.2-.2 2.5-.4 3.6-.2.8-.4 1.6-.7 2.3-.4.9-1 1.9-1.7 2.9-.2.2-.4.5-.6.7-.4.5-.8 1-1.3 1.4l-.7.7c-1.2 1.1-2.5 2-3.9 2.5-.5.2-1.1.4-1.6.4-.3 0-.5.1-.8.1h-7.8c-5.5 0-8.5-1.8-11.3-5.4-2.8-3.6-5.5-8.6-5.5-12.6.2-.5.4-1 .8-1.6z" fill="#907047"/><path id="XMLID_142_" d="M151.3 113.7h7.8c.3 0 .5 0 .8-.1.5-.1 1.1-.2 1.6-.4 1.3-.5 2.7-1.4 3.9-2.5.2-.2.5-.4.7-.7.5-.5.9-.9 1.3-1.4.2-.2.4-.5.6-.7.7-1 1.3-2 1.7-2.9.3-.7.5-1.4.7-2.3.2-1.1.4-2.3.4-3.6v-.9c0-2.5-.3-5-1-6.9-.8-2.3-5.4-3.3-10.7-3.7-.3 0-.6 0-.9-.1-1.5-.1-3.1-.1-4.6-.1 0 0-.7 0-1.8.1-.4 0-.8.1-1.3.1h-.2c-.7.1-1.6.2-2.4.3-.4.1-.8.1-1.2.2l-1.5.3c-.1 0-.3.1-.4.1-.5.1-.9.2-1.4.3-.4.1-.7.2-1 .3-.1 0-.2.1-.3.1-.1.1-.3.1-.4.2-.3.1-.7.3-1.1.5-.3.1-.6.3-.9.5-.3.2-.7.4-1 .6-.5.3-.9.6-1.3.9-.6.5-1.2 1-1.7 1.6-.2.2-.3.4-.4.6-.4.6-.6 1.1-.6 1.7 0 4 2.8 9 5.5 12.6 2.6 3.6 5.6 5.3 11.1 5.3z" opacity=".6" fill="#844530"/><path id="XMLID_143_" class="st12" d="M88.1 151.9c.1 0 .1 0 0 0 .1 0 .2.9.5 2.4 1.4 6 6.7 21.8 23.4 31l2.4-9.2c-2.8-.7-5.3-1.6-6.9-2.9-1.6-1.3-2.8-2.3-3.5-2.9 0 0-2.3-1.3-3.8-2l-.6-.3c-2.7-1.2-6.6-3.9-8.5-10.2-.7-2.1-1.6-5-2.6-8.3-.1.8-.2 1.6-.4 2.4z"/><path id="XMLID_144_" class="st12" d="M119.7 177c-.5 2.9-1.2 6.6-1.7 10.5 3 .7 6.4 1.1 10.1 1.1v-10.9c-.1 0-3.9-.1-8.4-.7z"/><path id="XMLID_145_" d="M114.5 176.1l-2.4 9.2c.8.4 1.7.9 2.6 1.3 1.1.4 2.2.7 3.3.9.6-3.9 1.2-7.6 1.7-10.5-1.7-.2-3.5-.5-5.2-.9z" fill="#906958"/><path id="XMLID_146_" class="st12" d="M76.7 104.5c-.7-2-1.7-4.9-2-6.5-.5-2.6-.8-7.9-.8-7.9L71.8 92l.6-4.3-1.9.5s2.3-4.8 1.5-7.3c-.5-1.6-1.3-1-1.9-.5-.3.5-.5 1.2-.6 2.1-.5 8.1 2.2 8.5 1.4 13.4-.8 4.9-1.3 13.4.8 19.5 1.8 5.4 3.5 12.2 9.6 10.4-1.8-6.3-3.2-11.9-3.8-15.5-.1-1.6-.5-3.6-.8-5.8z"/><path id="XMLID_147_" class="st5" d="M85.7 102.7c.2.8.4 1.6.7 2.3.4.9 1 1.9 1.7 2.9-.7-1-1.3-2-1.7-2.9-.3-.7-.5-1.4-.7-2.3z"/><path id="XMLID_148_" class="st5" d="M118.8 92c-.4-.3-.9-.7-1.3-.9.5.2.9.5 1.3.9z"/><path id="XMLID_149_" class="st5" d="M96.9 113.7c-.3 0-.5 0-.8-.1.3.1.6.1.8.1z"/><path id="XMLID_150_" class="st5" d="M84.3 91.1c.7-3.8 5.1-5.3 10.1-5.3h3.9c1.8-.5 4.3-.8 7.6 0h22.3v-5.7c-8.6 0-17.7-2.2-20.1-3.9-2.4-1.6-13.3-.8-13.3-.8s9.4-2.7 15.5 0 17.9 2.7 17.9 2.7v-3.9c-8.6 0-17.7-2.2-20.1-3.9-2.4-1.6-13.3-.8-13.3-.8s9.4-2.7 15.5 0 17.9 2.7 17.9 2.7V66c-22.5-1.1-38.3-3.4-49.5-6.1-.8 6.2 1.8 19.2 1.8 19.2s-1.2 5-2 6.4c-.5.9 0 3.4.4 5.3h5.4z"/><path id="XMLID_153_" class="st5" d="M97.8 87.5c-.3 0-.6 0-.9.1.3 0 .6-.1.9-.1z"/><path id="XMLID_154_" class="st5" d="M128 88h-10c0 .1.1.3.1.5 3.2 1.8 5.9 6.1 5.9 6.1 2.3-1.3 4-1.1 4.1-1.1L128 88z"/><path id="XMLID_157_" class="st5" d="M91.1 157.8c1.9 6.3 5.8 9 8.5 10.2-1.4-.5-4.1-9.1-4.1-9.1 1.9 4.4 5.4 8.4 5.4 8.4-2.7-6.9 1.6-17 1.6-17s-.8 3.8-1.5 8.3c-.7 4.4 3.1 11.7 3.1 11.7.8.6 1.9 1.6 3.5 2.9 1.6 1.3 4.2 2.3 6.9 2.9 1.7.4 3.5.7 5.2 1 4.5.6 8.3.7 8.3.7v-33.9c-4.6 0-5.2-.8-6.5-1.4s-3.5-.4-5 .2c-1.6.6-1.7-1.6-1.7-1.6l-3.4 1.4s.4-2.5-1-1.3c-1.3 1.2-4.9 2.6-4.9 2.6v-2.4s-1.7.4-1.7 0 1-1.9 1-1.9l-1.6.6s.7-2.4 1.7-3.8 1.9-5.6 1.9-5.6c-.1 1.6.1 3.6 1 3 .8-.6 4.1-1.8 4.1-1.8v.7c2.4-2 6.7-1.9 6.7-1.9 3.5 4.2 9.4 3.7 9.4 3.7V95.3c-1.9 0-3.2.7-3.2.7s-1.8 4.4-6 12.1c-4.2 7.7-9.3 7.7-18.1 7.7s-11-2.6-14.7-6.9c-3.7-4.3-2-15.4-2-15.4h-5.5v-.6l-1.1-.9s1.8 4.4 1.3 7.4L77.4 98v8.6s-.3-.9-.8-2.1c.4 2.2.7 4.2 1 5.9.6 3.6 2 9.3 3.8 15.5.7 2.6 1.5 5.4 2.3 8.1 1.6 5.4 3.3 10.9 4.7 15.5 1.1 3.3 2 6.2 2.7 8.3zm14.9-29.2c4.6-7.4 10.9-9.1 10.9-9.1-3.8 1.2-8 7.5-10.4 11-2.8 4.1-8.3 13.8-8.3 13.8.8-6 3.2-8.3 7.8-15.7z"/><path id="XMLID_158_" class="st5" d="M100.2 168.2c-.2-.1-.5-.2-.6-.3.2.2.4.3.6.3z"/><path id="XMLID_159_" class="st14" d="M99.6 168l.6.3c1.5.7 3.8 2 3.8 2s-3.8-7.3-3.1-11.7c.7-4.4 1.5-8.3 1.5-8.3s-4.3 10.1-1.6 17c0 0-3.5-4-5.4-8.4.1 0 2.8 8.6 4.2 9.1z"/><path id="XMLID_160_" class="st15" d="M72 80.9c.8 2.5-1.5 7.3-1.5 7.3l1.9-.5-.6 4.3 2.1-1.9s.3 5.3.8 7.9c.3 1.6 1.3 4.5 2 6.5.4 1.2.8 2.1.8 2.1V98l1.3 1.5c.5-3.1-1.3-7.4-1.3-7.4l1.1.7v-1.6h.3c-.4-1.9-.9-4.4-.4-5.3.8-1.4 2-6.4 2-6.4s-2.6-13-1.8-19.2c-4.2-1-7.8-2.1-10.8-3.1-.6 4-.4 7.5-.5 8.6-.2 1.9 2.9 12.7 2.9 14.8.4-.6 1.2-1.2 1.7.3z"/><path id="XMLID_161_" class="st14" d="M128 72.4s-11.8 0-17.9-2.7c-6.1-2.7-15.5 0-15.5 0s10.9-.9 13.3.8c2.4 1.6 11.5 3.9 20.1 3.9v-2z"/><path id="XMLID_162_" class="st14" d="M128 78.3s-11.8 0-17.9-2.7c-6.1-2.7-15.5 0-15.5 0s10.9-.9 13.3.8c2.4 1.6 11.5 3.9 20.1 3.9v-2z"/><path id="XMLID_163_" class="st15" d="M128 134.5s-5.9.5-9.4-3.7c0 0-4.3-.1-6.7 1.9v-.7s-3.2 1.2-4.1 1.8c-.8.6-1.1-1.4-1-3 0 0-1 4.2-1.9 5.6-1 1.4-1.7 3.8-1.7 3.8l1.6-.6s-1 1.6-1 1.9c0 .4 1.7 0 1.7 0v2.4s3.6-1.4 4.9-2.6c1.3-1.2 1 1.3 1 1.3l3.4-1.4s.1 2.2 1.7 1.6c1.6-.6 3.7-.8 5-.2s2 1.4 6.5 1.4v-9.5z"/><path id="XMLID_164_" class="st14" d="M98.2 144.3s5.5-9.6 8.3-13.8c2.4-3.5 6.5-9.8 10.4-11 0 0-6.4 1.7-10.9 9.1s-7 9.7-7.8 15.7z"/><path id="XMLID_165_" class="st15" d="M117.5 91c-.4-.2-.7-.4-1-.6.3.2.7.4 1 .6z"/><path id="XMLID_166_" class="st15" d="M104.3 87.5c.4 0 .8.1 1.3.1-.5 0-.9 0-1.3-.1z"/><path id="XMLID_167_" class="st15" d="M117.1 88c.3.1.6.3 1 .5 0-.2 0-.3-.1-.5h-.9z"/><path id="XMLID_168_" class="st15" d="M102.5 87.4c-1.6 0-3.1 0-4.6.1 1.4-.1 3-.1 4.6-.1z"/><path id="XMLID_169_" class="st15" d="M111.3 88.5c.5.1.9.2 1.4.3-.5-.1-.9-.2-1.4-.3z"/><path id="XMLID_170_" class="st15" d="M109.4 88.1l1.5.3-1.5-.3z"/><path id="XMLID_171_" class="st15" d="M98.2 85.8h7.6c-3.3-.7-5.8-.5-7.6 0z"/><path id="XMLID_172_" class="st15" d="M105.8 87.7c.7.1 1.6.2 2.4.3-.9-.2-1.7-.3-2.4-.3z"/><path id="XMLID_173_" class="st15" d="M114.5 89.4c.3.1.7.3 1.1.5-.4-.2-.8-.4-1.1-.5z"/><path id="XMLID_176_" d="M128 93.5c-.1 0-1.8-.2-4.2 1.1 0 0-2.7-4.4-5.9-6.1-.3-.2-.6-.3-1-.5h11v-2.2H94.1c-4.9 0-9.3 1.4-10.1 5.3h-5.8v2.2H84s-1.7 11.1 2 15.4c3.7 4.3 6 6.9 14.7 6.9s13.9 0 18.1-7.7c4.2-7.7 6-12.1 6-12.1s1.2-.7 3.2-.7v-1.6zm-12 14.9c-2.8 3.6-5.7 5.4-11.3 5.4h-7.8c-.3 0-.5 0-.8-.1-.5-.1-1.1-.2-1.6-.4-2.2-.8-4.3-2.7-5.8-4.6-.2-.2-.4-.5-.6-.7-.7-1-1.3-2-1.7-2.9-.3-.7-.5-1.4-.7-2.3-.2-1.1-.4-2.3-.4-3.6v-.9c0-2.5.3-5 1-6.9.7-2.4 5.3-3.4 10.6-3.8.3 0 .6 0 .9-.1 1.5-.1 3.1-.1 4.6-.1 0 0 .7 0 1.8.1.4 0 .8.1 1.3.1h.2c.7.1 1.6.2 2.4.3.4.1.8.1 1.2.2l1.5.3c.1 0 .3.1.4.1.5.1.9.2 1.4.3.4.1.7.2 1 .3.1 0 .2.1.3.1.1.1.3.1.4.2.3.1.7.3 1.1.5.3.1.6.3.9.5.3.2.7.4 1 .6.5.3.9.6 1.3.9.6.5 1.2 1 1.7 1.6.2.2.3.4.4.6.4.6.6 1.1.6 1.7.2 4-2.6 9-5.3 12.6z" fill="#785d39"/><path id="XMLID_177_" d="M120.5 93.5c-.5-.5-1-1.1-1.7-1.6-.4-.3-.9-.7-1.3-.9-.4-.2-.7-.4-1-.6-.3-.2-.6-.3-.9-.5-.4-.2-.8-.4-1.1-.5-.2-.1-.3-.1-.4-.2-.1-.1-.3-.1-.3-.1-.3-.1-.7-.2-1-.3-.4-.1-.9-.2-1.4-.3-.1 0-.2-.1-.4-.1l-1.5-.3c-.4-.1-.8-.1-1.2-.2-.9-.1-1.7-.2-2.4-.3h-.2c-.5 0-.9-.1-1.3-.1-1.1-.1-1.8-.1-1.8-.1-1.6 0-3.1 0-4.6.1-.3 0-.6 0-.9.1-5.5.4-10.1 1.4-10.9 3.7-.7 1.9-1 4.4-1 6.9v.9c.1 1.2.2 2.5.4 3.6.2.8.4 1.6.7 2.3.4.9 1 1.9 1.7 2.9.2.2.4.5.6.7 1.6 2 3.7 3.8 5.8 4.6.5.2 1.1.4 1.6.4.3 0 .5.1.8.1h7.8c5.5 0 8.5-1.8 11.3-5.4 2.8-3.6 5.5-8.6 5.5-12.6 0-.6-.2-1.1-.6-1.7 0-.1-.1-.3-.3-.5z" opacity=".6" fill="#6d3723"/><path id="XMLID_178_" class="st18" d="M179.6 161.7c-2.3-5-5.8-9.5-11.7-9.8 20.2 24-28.4 35.5-28.4 35.5.6-.2 1.1-.5 1.7-.8-1 .3-2.1.6-3.2.9-3 .7-6.4 1.1-10 1.1V256c12 0 23.7-1.7 34.7-4.8 7.1-26.4 13.7-57.4 16.9-89.5z"/><path id="XMLID_179_" d="M144 185.3c-.9.5-1.8.9-2.7 1.4-.6.3-1.1.5-1.7.8 0 0 48.5-11.5 28.4-35.5-.1-.1-3 21.8-24 33.3z" fill="#1a1a1a"/><path id="XMLID_180_" d="M179.6 161.7c-3.2 32.1-9.8 63.1-16.8 89.5 23.3-6.5 43.9-19.5 59.7-36.9-3.5-6.5-8-13.8-8-13.8-14.9-26.7-34.9-38.7-34.9-38.8z" fill="#5a4d43"/><path id="XMLID_182_" class="st21" d="M128 188.6c-3.7 0-7-.4-10.1-1.1-1.2-.3-2.3-.6-3.3-.9.6.3 1.2.6 1.9.8 0 0-48.5-11.5-28.4-35.5-5.9.3-9.4 4.9-11.7 9.9 3.2 32 9.8 63 16.8 89.4 11 3.1 22.7 4.8 34.7 4.8v-67.4z"/><path id="XMLID_183_" class="st21" d="M88.1 151.9s.1.9.5 2.4c-.3-1.5-.4-2.4-.5-2.4.1 0 .1 0 0 0z"/><path id="XMLID_184_" d="M88.6 154.3c-.4-1.5-.5-2.4-.5-2.4-20.2 24 28.4 35.5 28.4 35.5-.6-.3-1.3-.6-1.9-.8-.9-.4-1.7-.8-2.6-1.3-16.7-9.1-22-25-23.4-31z" fill="#0d0d0d"/><path id="XMLID_185_" class="st4" d="M76.5 161.8v-.1s-20.1 12-34.9 38.8c0 0-4.5 7.3-8 13.8 15.9 17.4 36.5 30.3 59.7 36.9-7.1-26.4-13.6-57.3-16.8-89.4z"/><path id="XMLID_186_" class="st21" d="M128 62.1V3.6C69.7 17.2 43.7 41 53.5 49.3c-1.4-1.4-1.7-2.4-1.7-2.4C75.9 61.4 125.9 62 128 62.1z"/><path id="XMLID_187_" class="st18" d="M128 62.1c1.8 0 31.8-.7 51.9-12.6 0-.2 4.3-29.8-17.2-43.1-12-3.9-25.7-4.1-34.6-2.8l-.1 58.5z"/><path id="XMLID_188_" class="st21" d="M179.8 49.5c-20 11.8-50.1 12.6-51.8 12.6v4.2c22.8 0 39.1-5.5 48.6-10 6.6-3.1 9.9-5.8 9.9-5.8l-.3-5.3c0-.1-2.3 2.1-6.4 4.3z"/><path id="XMLID_189_" d="M78.5 60.2c11.2 2.6 27.1 5 49.5 6.1v-4.2h-.1c-2 0-52.1-.7-76.1-15.1 0 0 .3.9 1.7 2.4 1.9 1.9 5.9 4.8 14.1 7.7 3.1 1 6.6 2.1 10.9 3.1z" fill="#3f4040"/><path id="XMLID_190_" d="M179.8 49.5c4-2.2 6.3-4.4 6.3-4.4C198 11.7 162.5 6.4 162.5 6.4c21.6 13.3 17.4 42.9 17.3 43.1z" fill="#646363"/></g></g></svg>