<svg id="Layer_1" xmlns="http://www.w3.org/2000/svg" width="256" height="256"><style>.st1{fill:none}.st2{opacity:.7;fill:#9fb7bd}.st3{fill:#483e3a}.st4{fill:#905e3e}.st5{opacity:.7;fill:#bfdbe2}.st6{fill:#6c5d58}.st7{fill:#c08c76}.st8{fill:#d8aa91}.st9{fill:#b8927d}.st10{fill:#d6d4d4}.st12{fill:#b27d6b}.st13{fill:#a1806e}.st14{fill:#a0a0a1}.st16{fill:#888989}.st18{fill:#767576}.st19{fill:#969696}.st21{fill:#616161}.st22{opacity:.5;fill:#dde6e8}.st26{fill:#945d3e}.st27{fill:#9f6443}.st28{fill:#7f5336}.st29{opacity:.5;fill:#c5ced0}</style><g id="XMLID_3_"><circle id="XMLID_167_" cx="128" cy="128.5" r="128" fill="#b2b4b5"/><circle id="XMLID_163_" class="st1" cx="128" cy="128.5" r="128"/><g id="XMLID_9_"><path id="XMLID_117_" class="st1" d="M128 249.8l-.1 6.7v-6.7z"/><path id="XMLID_122_" class="st2" d="M7.6 85c-.1 1.5-.1 3-.1 4.6 0-1.6 0-3.1.1-4.6z"/><path id="XMLID_123_" class="st2" d="M60.9 115.9c3-1.6 6.3-3.2 9.8-4.6-.7-5.2-.3-11 .3-14.7.8-4.9-1.9-5.3-1.4-13.4.1-.9.3-1.6.6-2.1 0-2.1-3.1-12.9-2.9-14.8.2-1.9-.6-10.9 3.5-17.6 4.2-6.7 7.3-13.9 10.7-18C84.7 26.4 96.9 8.9 128 8.9V.5c-16.7 0-32.6 3.2-47.2 9-23.6 33.1-32.6 75.9-19.9 106.4z"/><path id="XMLID_124_" class="st3" d="M26.5 154.5v.1z"/><path id="XMLID_125_" class="st3" d="M87 145.2c-1.8-5.9-3.8-12.6-5.5-18.7-6.1 1.7-7.8-5.1-9.6-10.4-.5-1.5-.9-3.1-1.1-4.7-3.6 1.4-6.8 3-9.8 4.6 5 12.1 13.5 22.3 26 29.2z"/><path id="XMLID_126_" class="st4" d="M152 228.7h.2-.2z"/><path id="XMLID_134_" class="st4" d="M240.4 176.6c-5.3 11.8-28.5 40.6-77.5 50.4h.1l-14.1 22.9H128v6.7c53.4 0 99.2-32.8 118.4-79.3-2-1.1-3.7-2.1-5.1-2.8-.3.6-.6 1.3-.9 2.1z"/><path id="XMLID_135_" class="st5" d="M248.5 89.5c0 23.9-7 46.2-19 65v.1c12-18.8 19-41.1 19-65.1z"/><path id="XMLID_136_" class="st5" d="M248.5 86.6v-.2.2z"/><path id="XMLID_137_" class="st5" d="M174.6 30.6c3.4 4.2 6.5 11.3 10.7 18 4.2 6.7 3.4 15.6 3.5 17.6.2 1.9-2.9 12.7-2.9 14.8.3.5.5 1.2.6 2.1.5 8.1-2.2 8.5-1.4 13.4.6 3.8 1 9.5.3 14.7 3.5 1.4 6.8 3 9.8 4.6 12.7-30.5 3.8-73.2-19.8-106.3-14.6-5.8-30.6-9-47.3-9v8.4c31 0 43.2 17.5 46.5 21.7z"/><path id="XMLID_139_" class="st2" d="M128 8.9l.1-8.4-.1 8.4z"/><path id="XMLID_138_" class="st5" d="M128 8.9l.1-8.4-.1 8.4z"/><path id="XMLID_140_" class="st6" d="M174.6 126.4c-1.7 6.1-3.7 12.8-5.5 18.7 12.4-6.8 21-17.1 26.1-29.2-3-1.6-6.3-3.2-9.8-4.6-.2 1.7-.6 3.3-1.1 4.7-1.9 5.4-3.7 12.2-9.7 10.4z"/><path id="XMLID_141_" class="st6" d="M229.5 154.6c0-.1 0-.1 0 0-.1.1-.3.3-.4.5.1-.2.3-.4.4-.5z"/><path id="XMLID_142_" class="st7" d="M128 210s0 .1 0 0c0 .1 0 .1 0 0v7.1-7.1z"/><path id="XMLID_143_" class="st7" d="M184 81.4c-.8 2.5 1.5 7.3 1.5 7.3l-1.9-.5.6 4.3-2.1-1.9s-.3 5.3-.8 7.9c-.3 1.6-1.3 4.5-2 6.5-.4 2.2-.7 4.2-1 5.9-.6 3.6-2 9.3-3.8 15.5 6.1 1.7 7.8-5.1 9.6-10.4.5-1.5.9-3.1 1.1-4.7.7-5.2.3-11-.3-14.7-.8-4.9 1.9-5.3 1.4-13.4-.1-.9-.3-1.6-.6-2.1-.4-.6-1.2-1.2-1.7.3z"/><path id="XMLID_144_" class="st8" d="M168.9 90.7c-1.6-1.2-4.8-1.6-8.7-1.7 3.9.1 7.1.5 8.7 1.7z"/><path id="XMLID_145_" class="st8" d="M167.9 108.4c.7-1 1.3-2 1.7-2.9.3-.7.5-1.4.7-2.3-.2.8-.4 1.6-.7 2.3-.4.9-1 1.9-1.7 2.9z"/><path id="XMLID_146_" class="st8" d="M133 93.2s.9-1.9 3.1-3.1l-8-.1v2c.3 0 2.7 0 4.9 1.2z"/><path id="XMLID_147_" class="st8" d="M145.9 70.2c6.1-2.7 15.5 0 15.5 0s-10.9-.9-13.3.8c-2.4 1.6-11.5 3.9-20.1 3.9v3.9c.7 0 12-.1 17.8-2.7 6.1-2.7 15.5 0 15.5 0s-10.9-.9-13.3.8c-2.4 1.6-11.5 3.9-20.1 3.9v2.9h45.8v8h3.4c.4-1.9.9-4.4.4-5.3-.8-1.4-2-6.4-2-6.4s2.7-13.5 1.8-19.6c-1-6.1-6.5-17.6-11.2-23.9s-11.5-8.9-19-5.9c-7.3 2.9-18.6 5.7-19.3 5.9v36.6c.9-.2 12.2-.2 18.1-2.9z"/><path id="XMLID_151_" class="st8" d="M173.8 93.9V105c0 5.5-9.8 9.7-9.8 9.7-2.1 1.1-4.7 1.6-8.8 1.6-8.7 0-13.9 0-18.1-7.7-4.2-7.7-6-12.1-6-12.1s-1.2-.7-3.1-.7V135c.4 0 6 .3 9.4-3.7 0 0 4.3-.1 6.7 1.9v-.7s3.2 1.2 4.1 1.8c.8.6 1.1-1.4 1-3 0 0 1 4.2 1.9 5.6 1 1.4 1.7 3.8 1.7 3.8l-1.6-.6s1 1.6 1 1.9c0 .4-1.7 0-1.7 0v2.4s-3.6-1.4-4.9-2.6c-1.3-1.2-1 1.3-1 1.3l-3.4-1.4s-.1 2.2-1.7 1.6c-1.6-.6-3.7-.8-5-.2-1.3.6-2 1.4-6.5 1.4v10c9.6 0 18.1-1.1 25.6-3.2-.1-.3-.1-.5-.1-.5l.2.4c5.6-1.5 10.7-3.6 15.3-6.1 1.8-5.9 3.8-12.6 5.5-18.7 1.8-6.3 3.2-11.9 3.8-15.5.3-1.7.6-3.7 1-5.9-.4 1.2-.8 2.1-.8 2.1v-8.6l-1.3 1.5c-.5-3.1 1.3-7.4 1.3-7.4l-1.1.7v.6h-3.6zM149.5 131c-2.4-3.5-6.5-9.8-10.4-11 0 0 6.4 1.7 10.9 9.1 4.6 7.4 7 9.7 7.7 15.7.1 0-5.4-9.7-8.2-13.8z"/><path id="XMLID_152_" class="st9" d="M153.6 150.8s0 .2.1.5h.1c-.2-.4-.2-.5-.2-.5z"/><path id="XMLID_153_" class="st10" d="M132.6 10.6l-2.9 6.2c3.1-1.9 7.2-6.2 7.2-6.2l-1.5 6.7 3.6-3.8c1.7-1.9 7.2-1 7.2-1l-1.5 5c2.2-2.6 6.2-2.6 6.2-2.6s13.2 2.8 23 19.2c-8-6-17.5-7.7-17.5-7.7h-6.9L152 24c-2.2 0-7.7 3.4-7.7 3.4v-1.7l-5.7 2.4v-2.4l-6.2 4.2 1.9-4.2c-3.4 2.2-5.9 7.6-6.3 8.3v2.3c.7-.2 12-3 19.3-5.9 7.5-3 14.4-.5 19 5.9s10.2 17.9 11.2 23.9c1 6.1-1.8 19.6-1.8 19.6s1.2 5 2 6.4c.5.9 0 3.4-.4 5.3h.3v1.6l1.1-.7s-1.8 4.4-1.3 7.4l1.3-1.5v8.6s.3-.9.8-2.1c.7-2 1.7-4.9 2-6.5.5-2.6.8-7.9.8-7.9l2.1 1.9-.6-4.3 1.9.5s-2.3-4.8-1.5-7.3c.5-1.6 1.3-1 1.9-.5 0-2.1 3.1-12.9 2.9-14.8-.2-1.9.6-10.9-3.5-17.6-4.2-6.7-7.3-13.9-10.7-18-3.4-4.1-15.5-21.7-46.6-21.7v6.9l4.4-4.9z"/><path id="XMLID_156_" class="st9" d="M148.1 71c2.4-1.6 13.3-.8 13.3-.8s-9.4-2.7-15.5 0c-5.9 2.6-17.1 2.7-17.8 2.7v1.9c8.5 0 17.6-2.2 20-3.8z"/><path id="XMLID_157_" class="st9" d="M148.1 76.8c2.4-1.6 13.3-.8 13.3-.8s-9.4-2.7-15.5 0c-5.9 2.6-17.1 2.7-17.8 2.7v1.9c8.5.1 17.6-2.1 20-3.8z"/><path id="XMLID_158_" class="st10" d="M134.5 143c1.3-.6 3.5-.4 5 .2 1.6.6 1.7-1.6 1.7-1.6l3.4 1.4s-.4-2.5 1-1.3c1.3 1.2 4.9 2.6 4.9 2.6V142s1.7.4 1.7 0-1-1.9-1-1.9l1.6.6s-.7-2.4-1.7-3.8-1.9-5.6-1.9-5.6c.1 1.6-.1 3.6-1 3-.8-.6-4.1-1.8-4.1-1.8v.7c-2.4-2-6.7-1.9-6.7-1.9-3.4 4.1-9 3.7-9.4 3.7v9.5c4.6-.1 5.2-.9 6.5-1.5z"/><path id="XMLID_159_" class="st9" d="M150 129.1c-4.6-7.4-10.9-9.1-10.9-9.1 3.8 1.2 8 7.5 10.4 11 2.8 4.1 8.3 13.8 8.3 13.8-.8-6-3.2-8.3-7.8-15.7z"/><path id="XMLID_160_" d="M128 21.8v12.1c.3-.7 2.9-6.1 6.3-8.3l-1.9 4.2 6.2-4.2V28l5.7-2.4v1.7s5.5-3.4 7.7-3.4l-2.4 2.4h6.9S166 28 174 34c-9.8-16.4-23-19.2-23-19.2s-4 0-6.2 2.6l1.5-5s-5.5-1-7.2 1l-3.6 3.8 1.5-6.7s-4.1 4.3-7.2 6.2l2.9-6.2-4.6 5.2v6.1z" fill="#b0b0b0"/><path id="XMLID_161_" class="st10" d="M142.3 89.6c1.7-.3 3.6-.4 5.5-.5-2.2 0-4.4.2-5.5.5z"/><path id="XMLID_162_" class="st10" d="M160.3 89c-.1 0-.1 0 0 0-2.1-.1-4.4-.1-6.7-.1h-.2.2c2.2 0 4.5 0 6.7.1z"/><path id="XMLID_164_" class="st12" d="M128 217.1v-7h-.1l.1 7z"/><path id="XMLID_165_" class="st12" d="M81.4 126.4c-1.8-6.3-3.2-11.9-3.8-15.5-.3-1.7-.6-3.7-1-5.9-.7-2-1.7-4.9-2-6.5-.5-2.6-.8-7.9-.8-7.9l-2.1 1.9.6-4.3-1.9.5s2.3-4.8 1.5-7.3c-.5-1.6-1.3-1-1.9-.5-.3.5-.5 1.2-.6 2.1-.5 8.1 2.2 8.5 1.4 13.4-.6 3.8-1 9.5-.3 14.7.2 1.7.6 3.3 1.1 4.7 2 5.6 3.8 12.4 9.8 10.6z"/><path id="XMLID_168_" class="st7" d="M95.8 89c-3.8.1-7.1.5-8.7 1.7 1.6-1.2 4.8-1.6 8.7-1.7z"/><path id="XMLID_169_" class="st7" d="M82.2 91.6v-8H128v2.7-5.6c-8.6 0-17.7-2.2-20.1-3.9-2.4-1.6-13.3-.8-13.3-.8s9.4-2.7 15.5 0 17.9 2.7 17.9 2.7v-3.9c-8.6 0-17.7-2.2-20.1-3.9-2.4-1.6-13.3-.8-13.3-.8s9.4-2.7 15.5 0 17.9 2.7 17.9 2.7V36.3s-11.8-2.9-19.3-5.9c-7.5-3-14.4-.5-19 5.9s-10.2 17.9-11.2 24c-1 6.1 1.8 19.6 1.8 19.6s-1.2 5-2 6.4c-.5.9 0 3.4.4 5.3h3.5z"/><path id="XMLID_170_" class="st7" d="M86.4 105.5c-.3-.7-.5-1.4-.7-2.3.2.9.4 1.6.7 2.3z"/><path id="XMLID_172_" class="st7" d="M96.9 114.2c-.3 0-.5 0-.8-.1.3.1.6.1.8.1z"/><path id="XMLID_173_" class="st7" d="M119.9 90.1c2.1 1.2 3.1 3.1 3.1 3.1 2.2-1.2 4.6-1.2 5-1.2v-2l-8.1.1z"/><path id="XMLID_176_" class="st7" d="M102.2 151.3c.1-.3.2-.5.2-.5s0 .2-.2.5c7.6 2.1 16.2 3.2 25.7 3.2v-.1h.1v-10c-4.6 0-5.2-.8-6.5-1.4-1.3-.6-3.5-.4-5 .2-1.6.6-1.7-1.6-1.7-1.6l-3.4 1.4s.4-2.5-1-1.3c-1.3 1.2-4.9 2.6-4.9 2.6V142s-1.7.4-1.7 0 1-1.9 1-1.9l-1.6.6s.7-2.4 1.7-3.8 1.9-5.6 1.9-5.6c-.1 1.6.1 3.6 1 3s4.1-1.8 4.1-1.8v.7c2.4-2 6.7-1.9 6.7-1.9 3.5 4.2 9.4 3.7 9.4 3.7V95.8c-1.9 0-3.2.7-3.2.7s-1.8 4.4-6 12.1c-4.2 7.7-9.3 7.7-18.1 7.7-4.1 0-6.8-.6-8.8-1.6 0 0-9.8-4.2-9.8-9.7V93.9h-3.7v-.6l-1.1-.7s1.8 4.4 1.3 7.4l-1.3-1.5v8.6s-.3-.9-.8-2.1c.4 2.2.7 4.2 1 5.9.6 3.6 2 9.3 3.8 15.5 1.7 6.1 3.7 12.8 5.5 18.7 4.7 2.6 9.8 4.6 15.4 6.2zm3.8-22.2c4.6-7.4 10.9-9.1 10.9-9.1-3.8 1.2-8 7.5-10.4 11-2.8 4.1-8.3 13.8-8.3 13.8.8-6 3.2-8.3 7.8-15.7z"/><path id="XMLID_177_" class="st13" d="M102.4 150.8s-.1.2-.2.5h.1c.1-.3.1-.5.1-.5z"/><path id="XMLID_178_" class="st14" d="M72 81.4c.8 2.5-1.5 7.3-1.5 7.3l1.9-.5-.6 4.3 2.1-1.9s.3 5.3.8 7.9c.3 1.6 1.3 4.5 2 6.5.4 1.2.8 2.1.8 2.1v-8.6l1.3 1.5c.5-3.1-1.3-7.4-1.3-7.4l1.1.7v-1.6h.3c-.4-1.9-.9-4.4-.4-5.3.8-1.4 2-6.4 2-6.4s-2.7-13.5-1.8-19.6c1-6.1 6.5-17.6 11.2-23.9s11.5-8.9 19-5.9 19.3 5.9 19.3 5.9V34s-2.7-6-6.3-8.4l1.9 4.2-6.2-4.2V28l-5.7-2.4v1.7s-5.5-3.4-7.7-3.4l2.4 2.4h-6.9S90.2 28 82.2 34c9.8-16.4 23-19.2 23-19.2s4 0 6.2 2.6l-1.5-5s5.5-1 7.2 1l3.6 3.8-1.5-6.7s4.1 4.3 7.2 6.2l-2.9-6.2 4.7 5.3V8.9C97.1 8.9 85 26.5 81.6 30.6c-3.4 4.2-6.5 11.3-10.7 18-4.2 6.7-3.4 15.6-3.5 17.6-.4 1.9 2.7 12.7 2.7 14.8.6-.5 1.4-1.1 1.9.4z"/><path id="XMLID_179_" class="st13" d="M128 72.9s-11.8 0-17.9-2.7c-6.1-2.7-15.5 0-15.5 0s10.9-.9 13.3.8c2.4 1.6 11.5 3.9 20.1 3.9v-2z"/><path id="XMLID_180_" class="st13" d="M128 78.8s-11.8 0-17.9-2.7c-6.1-2.7-15.5 0-15.5 0s10.9-.9 13.3.8c2.4 1.6 11.5 3.9 20.1 3.9v-2z"/><path id="XMLID_181_" class="st14" d="M128 135s-5.9.5-9.4-3.7c0 0-4.3-.1-6.7 1.9v-.7s-3.2 1.2-4.1 1.8-1.1-1.4-1-3c0 0-1 4.2-1.9 5.6-1 1.4-1.7 3.8-1.7 3.8l1.6-.6s-1 1.6-1 1.9c0 .4 1.7 0 1.7 0v2.4s3.6-1.4 4.9-2.6c1.3-1.2 1 1.3 1 1.3l3.4-1.4s.1 2.2 1.7 1.6c1.6-.6 3.7-.8 5-.2 1.3.6 2 1.4 6.5 1.4V135z"/><path id="XMLID_182_" class="st13" d="M98.2 144.8s5.5-9.6 8.3-13.8c2.4-3.5 6.5-9.8 10.4-11 0 0-6.4 1.7-10.9 9.1-4.6 7.4-7 9.7-7.8 15.7z"/><path id="XMLID_184_" d="M128 21.8v-6l-4.7-5.3 2.9 6.2c-3.1-1.9-7.2-6.2-7.2-6.2l1.5 6.7-3.6-3.8c-1.7-1.9-7.2-1-7.2-1l1.5 5c-2.2-2.6-6.2-2.6-6.2-2.6S91.7 17.6 82 34c8-6 17.5-7.7 17.5-7.7h6.9L104 24c2.2 0 7.7 3.4 7.7 3.4v-1.7l5.7 2.4v-2.4l6.2 4.2-1.9-4.2C125.3 28 128 34 128 34V21.8z" fill="#898a8b"/><path id="XMLID_185_" class="st14" d="M102.5 88.9h.2-.2c-2.3 0-4.6 0-6.7.1 2.1-.1 4.4-.1 6.7-.1z"/><path id="XMLID_186_" class="st14" d="M108.2 89c1.8.1 3.8.3 5.5.5-1.1-.2-3.3-.4-5.5-.5z"/><path id="XMLID_187_" class="st16" d="M173.8 91.6v2.3h3.7v-2.2h-3.7z"/><path id="XMLID_190_" class="st16" d="M131.2 96.5s1.8 4.4 6 12.1c4.2 7.7 9.3 7.7 18.1 7.7 4.1 0 6.8-.6 8.8-1.6 4.7-3.4 7.2-9.5 7.2-14.7V88.1H128V90l8 .1c-2.1 1.2-3.1 3.1-3.1 3.1-2.2-1.2-4.6-1.2-4.9-1.2v3.8c1.9 0 3.2.7 3.2.7zm11.1-6.9c1.2-.3 3.3-.5 5.5-.5 2.6-.1 4.8-.1 5.5-.1h.2c2.3 0 4.6 0 6.7.1 3.8.1 7.1.5 8.7 1.7.4.3.7.7.9 1.1 1.1 3 1.3 7.8.5 11.4-.2.8-.4 1.6-.7 2.3-.4.9-1 1.9-1.7 2.9-.2.2-.4.5-.6.7-2.2 2.7-5.3 5.1-8.3 5.1h-7.8c-5.5 0-8.5-1.8-11.3-5.4-2.8-3.6-5.5-8.6-5.5-12.6.1-3 6.2-6.4 7.9-6.7zm-9.9 4.3c.6 0 1.1.5 1.1 1.1s-.5 1-1.1 1-1.1-.5-1.1-1.1.5-1 1.1-1z"/><path id="XMLID_192_" d="M140 108.9c2.8 3.6 5.7 5.4 11.3 5.4h7.8c2.9 0 6.1-2.4 8.3-5.1.2-.2.4-.5.6-.7.7-1 1.3-2 1.7-2.9.3-.7.5-1.4.7-2.3.8-3.6.6-8.4-.5-11.4-.2-.4-.5-.8-.9-1.1-1.6-1.2-4.8-1.6-8.7-1.7-2.1-.1-4.4-.1-6.7-.1h-.2c-.7 0-3 0-5.5.1-1.8.1-3.8.3-5.5.5-1.7.3-7.8 3.7-7.8 6.7-.1 4 2.7 9 5.4 12.6z" opacity=".8" fill="#606161"/><path id="XMLID_195_" class="st18" d="M128 86.3v1.8h43.2v-.3l2.6-.5v-3.7H128v2.7zm42-1.5c.6 0 1.1.5 1.1 1.1 0 .6-.5 1.1-1.1 1.1s-1.1-.5-1.1-1.1c0-.6.5-1.1 1.1-1.1zm-18 0c.6 0 1.1.5 1.1 1.1 0 .6-.5 1.1-1.1 1.1s-1.1-.5-1.1-1.1c0-.6.5-1.1 1.1-1.1zm-18.5 0c.6 0 1.1.5 1.1 1.1 0 .6-.5 1.1-1.1 1.1s-1.1-.5-1.1-1.1c0-.6.5-1.1 1.1-1.1z"/><path id="XMLID_198_" class="st18" d="M171.2 88.1V100c0 5.2-2.5 11.3-7.2 14.7 0 0 9.8-4.2 9.8-9.7V87.3l-2.6.5v.3z"/><circle id="XMLID_199_" class="st19" cx="133.5" cy="85.9" r="1.1"/><circle id="XMLID_200_" class="st19" cx="170" cy="85.9" r="1.1"/><circle id="XMLID_202_" class="st19" cx="152" cy="85.9" r="1.1"/><circle id="XMLID_203_" class="st18" cx="132.4" cy="95" r="1.1"/><path id="XMLID_204_" class="st18" d="M82.2 93.9v-2.3h-3.7v2.2h3.7z"/><path id="XMLID_207_" class="st18" d="M128 95.8V92c-.3 0-2.7 0-5 1.2 0 0-.9-1.9-3.1-3.1l8.1-.1v-3.7 1.8H84.8V100c0 5.2 2.5 11.3 7.2 14.7 2.1 1.1 4.7 1.6 8.8 1.6 8.7 0 13.9 0 18.1-7.7 4.2-7.7 6-12.1 6-12.1s1.2-.7 3.1-.7zm-12 13.1c-2.8 3.6-5.7 5.4-11.3 5.4h-7.8c-.3 0-.5 0-.8-.1-3-.4-6-3.1-8-5.8-.2-.2-.4-.5-.5-.7-.5-.7-.9-1.5-1.2-2.1-.3-.7-.5-1.4-.7-2.3-.3-1.4-.5-2.9-.5-4.5 0-2.5.3-5 1-6.9.2-.4.5-.8.9-1.1 1.6-1.2 4.8-1.6 8.7-1.7 2.1-.1 4.4-.1 6.7-.1h.2c.7 0 3 0 5.5.1 2.1.1 4.3.3 5.5.5 1.7.3 7.8 3.7 7.8 6.7 0 4-2.8 9-5.5 12.6zm7.6-12.9c-.6 0-1.1-.5-1.1-1.1s.5-1.1 1.1-1.1c.6 0 1.1.5 1.1 1.1s-.5 1.1-1.1 1.1z"/><path id="XMLID_209_" d="M113.7 89.6c-1.7-.3-3.6-.4-5.5-.5-2.6-.1-4.8-.1-5.5-.1h-.2c-2.3 0-4.6 0-6.7.1-3.8.1-7.1.5-8.7 1.7-.4.3-.7.7-.9 1.1-.7 1.9-1 4.4-1 6.9 0 1.6.2 3.1.5 4.5.2.8.4 1.6.7 2.3.3.7.7 1.4 1.2 2.1.2.2.3.5.5.7 2 2.7 5.1 5.4 8 5.8.3 0 .5.1.8.1h7.8c5.5 0 8.5-1.8 11.3-5.4 2.8-3.6 5.5-8.6 5.5-12.6 0-3-6.1-6.4-7.8-6.7z" opacity=".8" fill="#4e4f4f"/><path id="XMLID_212_" class="st21" d="M84.8 88.1H128v-4.5H82.2v3.7l2.6.5v.3zm37.7-3.3c.6 0 1.1.5 1.1 1.1 0 .6-.5 1.1-1.1 1.1s-1.1-.5-1.1-1.1c.1-.6.6-1.1 1.1-1.1zm-18.5 0c.6 0 1.1.5 1.1 1.1 0 .6-.5 1.1-1.1 1.1-.6 0-1.1-.5-1.1-1.1.1-.6.6-1.1 1.1-1.1zm-18 0c.6 0 1.1.5 1.1 1.1 0 .6-.5 1.1-1.1 1.1s-1-.6-1-1.1c0-.6.4-1.1 1-1.1z"/><path id="XMLID_215_" class="st21" d="M84.8 100V87.8l-2.6-.5V105c0 5.5 9.8 9.7 9.8 9.7-4.8-3.4-7.2-9.6-7.2-14.7z"/><circle id="XMLID_216_" class="st16" cx="122.5" cy="85.9" r="1.1"/><circle id="XMLID_217_" class="st16" cx="86" cy="85.9" r="1.1"/><circle id="XMLID_218_" class="st16" cx="104" cy="85.9" r="1.1"/><circle id="XMLID_219_" class="st21" cx="123.6" cy="95" r="1.1"/><path id="XMLID_220_" class="st22" d="M248.4 85c0 .5 0 1 .1 1.4 0-.5-.1-.9-.1-1.4z"/><path id="XMLID_223_" class="st5" d="M195.1 115.8c28.4 15.3 34.1 37.5 34.4 38.6 12-18.8 19-41.1 19-65v-3.1c0-.5 0-1-.1-1.4C236 50.6 209.2 23 175.3 9.5c23.5 33.1 32.5 75.9 19.8 106.3z"/><path id="XMLID_222_" class="st22" d="M195.1 115.8c28.4 15.3 34.1 37.5 34.4 38.6 12-18.8 19-41.1 19-65v-3.1c0-.5 0-1-.1-1.4C236 50.6 209.2 23 175.3 9.5c23.5 33.1 32.5 75.9 19.8 106.3z"/><path id="XMLID_225_" class="st6" d="M169 145.1c-.5 1.7-1 3.4-1.5 4.9 1.1 7.4 2.7 16 5.1 21.9l-16.8 32.5c21.1-5.3 50.2-18.2 73.3-49.4.1-.2.2-.4.4-.6-.3-1.2-6-23.4-34.4-38.6-5.1 12.2-13.6 22.4-26.1 29.3z"/><path id="XMLID_224_" class="st22" d="M169 145.1c-.5 1.7-1 3.4-1.5 4.9 1.1 7.4 2.7 16 5.1 21.9l-16.8 32.5c21.1-5.3 50.2-18.2 73.3-49.4.1-.2.2-.4.4-.6-.3-1.2-6-23.4-34.4-38.6-5.1 12.2-13.6 22.4-26.1 29.3z"/><path id="XMLID_227_" class="st7" d="M136.3 177.5c-4.3.6-7.9.7-8.3.7v-16.4V210v-1.8s3.8.1 10.2-.5l.8-1.8c1.1-6.4-1.2-20.6-2.7-28.4z"/><path id="XMLID_226_" class="st22" d="M136.3 177.5c-4.3.6-7.9.7-8.3.7v-16.4V210v-1.8s3.8.1 10.2-.5l.8-1.8c1.1-6.4-1.2-20.6-2.7-28.4z"/><path id="XMLID_230_" class="st7" d="M156.4 168.5c-.2.1-.4.2-.7.3-1.5.7-3.8 2-3.8 2-.8.6-1.9 1.6-3.5 2.9-1.6 1.3-4.2 2.3-6.9 2.9l5.9 22.3c-.7 1.8-3.8 5.4-6.6 8.5 4.2-.5 9.4-1.4 15.1-2.9l16.8-32.5c-2.4-5.9-4.1-14.5-5.1-21.9-1 3.3-1.9 6.2-2.6 8.3-2 6.2-5.9 8.9-8.6 10.1z"/><path id="XMLID_228_" class="st22" d="M156.4 168.5c-.2.1-.4.2-.7.3-1.5.7-3.8 2-3.8 2-.8.6-1.9 1.6-3.5 2.9-1.6 1.3-4.2 2.3-6.9 2.9l5.9 22.3c-.7 1.8-3.8 5.4-6.6 8.5 4.2-.5 9.4-1.4 15.1-2.9l16.8-32.5c-2.4-5.9-4.1-14.5-5.1-21.9-1 3.3-1.9 6.2-2.6 8.3-2 6.2-5.9 8.9-8.6 10.1z"/><path id="XMLID_232_" d="M141.5 176.6c-1.7.4-3.5.7-5.2 1 1.4 7.8 3.8 21.9 2.8 28.4l-.8 1.8c.8-.1 1.7-.2 2.5-.3 2.8-3 5.9-6.6 6.6-8.5l-5.9-22.4z" fill="#a87b67"/><path id="XMLID_231_" class="st22" d="M141.5 176.6c-1.7.4-3.5.7-5.2 1 1.4 7.8 3.8 21.9 2.8 28.4l-.8 1.8c.8-.1 1.7-.2 2.5-.3 2.8-3 5.9-6.6 6.6-8.5l-5.9-22.4z"/><path id="XMLID_234_" class="st8" d="M128 154.5v23.7c.4 0 4-.1 8.3-.7 1.7-.2 3.5-.5 5.2-1 2.8-.7 5.3-1.6 6.9-2.9 1.6-1.3 2.8-2.3 3.5-2.9 0 0 3.8-7.3 3.1-11.7-.6-3.5-1.2-6.7-1.4-7.8-7.5 2.1-16 3.2-25.6 3.3z"/><path id="XMLID_233_" class="st22" d="M128 154.5v23.7c.4 0 4-.1 8.3-.7 1.7-.2 3.5-.5 5.2-1 2.8-.7 5.3-1.6 6.9-2.9 1.6-1.3 2.8-2.3 3.5-2.9 0 0 3.8-7.3 3.1-11.7-.6-3.5-1.2-6.7-1.4-7.8-7.5 2.1-16 3.2-25.6 3.3z"/><path id="XMLID_236_" class="st8" d="M153.7 151.2c.8 2 3.8 10.5 1.4 16.6 0 0 3.5-4 5.4-8.4 0 0-2.7 8.6-4.1 9.1 2.7-1.2 6.6-3.9 8.5-10.2.7-2.1 1.6-5 2.6-8.3.5-1.6 1-3.2 1.5-4.9-4.5 2.5-9.6 4.6-15.3 6.1z"/><path id="XMLID_235_" class="st22" d="M153.7 151.2c.8 2 3.8 10.5 1.4 16.6 0 0 3.5-4 5.4-8.4 0 0-2.7 8.6-4.1 9.1 2.7-1.2 6.6-3.9 8.5-10.2.7-2.1 1.6-5 2.6-8.3.5-1.6 1-3.2 1.5-4.9-4.5 2.5-9.6 4.6-15.3 6.1z"/><path id="XMLID_238_" class="st8" d="M156.4 168.5l-.6.3.6-.3z"/><path id="XMLID_237_" class="st22" d="M156.4 168.5l-.6.3.6-.3z"/><path id="XMLID_240_" class="st9" d="M152 170.7s2.3-1.3 3.8-2c.2-.1.5-.2.6-.3 1.4-.5 4.1-9.1 4.1-9.1-1.9 4.4-5.4 8.4-5.4 8.4 2.4-6.1-.6-14.6-1.4-16.6h-.1c.2 1.1.8 4.3 1.4 7.8.8 4.6-3 11.8-3 11.8z"/><path id="XMLID_239_" class="st22" d="M152 170.7s2.3-1.3 3.8-2c.2-.1.5-.2.6-.3 1.4-.5 4.1-9.1 4.1-9.1-1.9 4.4-5.4 8.4-5.4 8.4 2.4-6.1-.6-14.6-1.4-16.6h-.1c.2 1.1.8 4.3 1.4 7.8.8 4.6-3 11.8-3 11.8z"/><path id="XMLID_242_" class="st12" d="M128 178.2v19.7-19.7z"/><path id="XMLID_241_" class="st22" d="M128 178.2v19.7-19.7z"/><path id="XMLID_244_" class="st7" d="M128 154.5c0-.1 0-.1 0 0 0-.1 0 0 0 0z"/><path id="XMLID_243_" class="st22" d="M128 154.5c0-.1 0-.1 0 0 0-.1 0 0 0 0z"/><path id="XMLID_245_" d="M229.1 155.1c-23.1 31.2-52.2 44.1-73.3 49.4-5.7 1.4-10.8 2.3-15.1 2.9-.9.1-1.7.2-2.5.3-6.4.7-10.2.5-10.2.5v8.9l23.9-2.6c24.5-4.7 61.5-17.7 80.3-53.7-1-3.6-2.1-7-2.7-6.2-.1.1-.3.3-.4.5z" fill="#724a2f"/><path id="XMLID_246_" d="M151.9 214.5s-7.2 6.4 0 14.2h.2l10.8-1.8c49-9.7 72.3-38.5 77.5-50.4.3-.8.6-1.5.8-2.1 4.1-12.4-9-13.7-9-13.7-18.8 36.1-55.8 49.1-80.3 53.8z" fill="#aa6b48"/><path id="XMLID_247_" class="st26" d="M152 214.5l-23.9 2.6v24.4h16.1l7.8-12.8c-7.2-7.9 0-14.2 0-14.2z"/><path id="XMLID_248_" class="st27" d="M163 226.9h-.1l-10.8 1.8h-.1l-7.9 12.8H128v8.3h20.9z"/><path id="XMLID_249_" class="st28" d="M103.9 228.7h.2-.2z"/><path id="XMLID_250_" class="st28" d="M107.1 249.8L93 226.9h.1c-49-9.7-72.3-38.5-77.5-50.4-.3-.8-.6-1.5-.8-2.1-1.4.8-3.2 1.7-5.1 2.8 19.2 46.5 64.9 79.3 118.4 79.3v-6.7h-21z"/><path id="XMLID_252_" class="st2" d="M26.5 154.5s5.2-23 34.4-38.7C48.2 85.4 57.2 42.6 80.8 9.5 46.8 23 20 50.5 7.6 85c-.1 1.5-.1 3-.1 4.6 0 23.9 7 46.2 19 64.9z"/><path id="XMLID_251_" class="st29" d="M26.5 154.5s5.2-23 34.4-38.7C48.2 85.4 57.2 42.6 80.8 9.5 46.8 23 20 50.5 7.6 85c-.1 1.5-.1 3-.1 4.6 0 23.9 7 46.2 19 64.9z"/><path id="XMLID_254_" class="st3" d="M100.2 204.5L83.4 172c2.4-5.9 4.1-14.5 5.1-21.9-.5-1.5-1-3.2-1.5-4.9-12.5-6.9-21-17.1-26.1-29.3-29.1 15.7-34.4 38.7-34.4 38.7 23.1 31.5 52.5 44.5 73.7 49.9z"/><path id="XMLID_253_" class="st29" d="M100.2 204.5L83.4 172c2.4-5.9 4.1-14.5 5.1-21.9-.5-1.5-1-3.2-1.5-4.9-12.5-6.9-21-17.1-26.1-29.3-29.1 15.7-34.4 38.7-34.4 38.7 23.1 31.5 52.5 44.5 73.7 49.9z"/><path id="XMLID_256_" class="st7" d="M128 210c0 .1 0 .1 0 0 0 .1 0 0 0 0z"/><path id="XMLID_255_" class="st29" d="M128 210c0 .1 0 .1 0 0 0 .1 0 0 0 0z"/><path id="XMLID_258_" class="st12" d="M114.5 176.6c-2.8-.7-5.3-1.6-6.9-2.9-1.6-1.3-2.8-2.3-3.5-2.9 0 0-2.3-1.3-3.8-2l-.6-.3c-2.7-1.2-6.6-3.9-8.5-10.2-.7-2.1-1.6-5-2.6-8.3-1.1 7.4-2.7 16-5.1 21.9l16.8 32.5c5.7 1.4 10.8 2.3 15.1 2.9-2.8-3-5.9-6.6-6.6-8.5l5.7-22.2z"/><path id="XMLID_257_" class="st29" d="M114.5 176.6c-2.8-.7-5.3-1.6-6.9-2.9-1.6-1.3-2.8-2.3-3.5-2.9 0 0-2.3-1.3-3.8-2l-.6-.3c-2.7-1.2-6.6-3.9-8.5-10.2-.7-2.1-1.6-5-2.6-8.3-1.1 7.4-2.7 16-5.1 21.9l16.8 32.5c5.7 1.4 10.8 2.3 15.1 2.9-2.8-3-5.9-6.6-6.6-8.5l5.7-22.2z"/><path id="XMLID_260_" class="st12" d="M128 210.1c0-.1 0-.1 0 0z"/><path id="XMLID_259_" class="st29" d="M128 210.1c0-.1 0-.1 0 0z"/><path id="XMLID_262_" class="st12" d="M128 178.2c-.2 0-4-.1-8.3-.7-1.4 7.8-3.8 21.9-2.8 28.4l.8 1.8c6.4.7 10.2.5 10.2.5v1.8c.1 0 .1-15.4.1-31.8z"/><path id="XMLID_261_" class="st29" d="M128 178.2c-.2 0-4-.1-8.3-.7-1.4 7.8-3.8 21.9-2.8 28.4l.8 1.8c6.4.7 10.2.5 10.2.5v1.8c.1 0 .1-15.4.1-31.8z"/><path id="XMLID_264_" d="M119.7 177.5c-1.7-.2-3.5-.5-5.2-1l-5.9 22.3c.7 1.8 3.8 5.4 6.6 8.5.9.1 1.7.2 2.5.3l-.8-1.8c-1-6.3 1.3-20.5 2.8-28.3z" fill="#906958"/><path id="XMLID_263_" class="st29" d="M119.7 177.5c-1.7-.2-3.5-.5-5.2-1l-5.9 22.3c.7 1.8 3.8 5.4 6.6 8.5.9.1 1.7.2 2.5.3l-.8-1.8c-1-6.3 1.3-20.5 2.8-28.3z"/><path id="XMLID_266_" class="st7" d="M99.6 168.5c-1.4-.5-4.1-9.1-4.1-9.1 1.9 4.4 5.4 8.4 5.4 8.4-2.4-6 .6-14.4 1.4-16.5-5.6-1.5-10.7-3.6-15.3-6.1.5 1.7 1 3.3 1.5 4.9 1 3.3 1.9 6.2 2.6 8.3 1.9 6.2 5.8 8.9 8.5 10.1z"/><path id="XMLID_265_" class="st29" d="M99.6 168.5c-1.4-.5-4.1-9.1-4.1-9.1 1.9 4.4 5.4 8.4 5.4 8.4-2.4-6 .6-14.4 1.4-16.5-5.6-1.5-10.7-3.6-15.3-6.1.5 1.7 1 3.3 1.5 4.9 1 3.3 1.9 6.2 2.6 8.3 1.9 6.2 5.8 8.9 8.5 10.1z"/><path id="XMLID_268_" class="st7" d="M100.2 168.7c-.2-.1-.5-.2-.6-.3.2.2.4.3.6.3z"/><path id="XMLID_267_" class="st29" d="M100.2 168.7c-.2-.1-.5-.2-.6-.3.2.2.4.3.6.3z"/><path id="XMLID_270_" class="st7" d="M128 154.5c-9.6 0-18.1-1.1-25.6-3.2-.2 1.2-.8 4.3-1.4 7.7-.7 4.4 3.1 11.7 3.1 11.7.8.6 1.9 1.6 3.5 2.9 1.6 1.3 4.2 2.3 6.9 2.9 1.7.4 3.5.7 5.2 1 4.3.6 8.1.7 8.3.7v-23.7z"/><path id="XMLID_269_" class="st29" d="M128 154.5c-9.6 0-18.1-1.1-25.6-3.2-.2 1.2-.8 4.3-1.4 7.7-.7 4.4 3.1 11.7 3.1 11.7.8.6 1.9 1.6 3.5 2.9 1.6 1.3 4.2 2.3 6.9 2.9 1.7.4 3.5.7 5.2 1 4.3.6 8.1.7 8.3.7v-23.7z"/><path id="XMLID_272_" class="st13" d="M100.9 159c.6-3.5 1.2-6.5 1.4-7.7h-.1c-.8 2.1-3.8 10.5-1.4 16.5 0 0-3.5-4-5.4-8.4 0 0 2.7 8.6 4.1 9.1l.6.3c1.5.7 3.8 2 3.8 2 .1-.1-3.7-7.3-3-11.8z"/><path id="XMLID_271_" class="st29" d="M100.9 159c.6-3.5 1.2-6.5 1.4-7.7h-.1c-.8 2.1-3.8 10.5-1.4 16.5 0 0-3.5-4-5.4-8.4 0 0 2.7 8.6 4.1 9.1l.6.3c1.5.7 3.8 2 3.8 2 .1-.1-3.7-7.3-3-11.8z"/><path id="XMLID_281_" class="st12" d="M128 210v-31.8V210z"/><path id="XMLID_280_" class="st22" d="M128 210v-31.8V210z"/><path id="XMLID_279_" class="st29" d="M128 210v-31.8V210z"/><path id="XMLID_284_" class="st7" d="M128 161.8v-7.3h-.1v23.7c.1-5.6.1-11.2.1-16.4z"/><path id="XMLID_283_" class="st22" d="M128 161.8v-7.3h-.1v23.7c.1-5.6.1-11.2.1-16.4z"/><path id="XMLID_282_" class="st29" d="M128 161.8v-7.3h-.1v23.7c.1-5.6.1-11.2.1-16.4z"/><path id="XMLID_285_" d="M104.1 214.5l23.9 2.6v-8.9s-3.8.1-10.2-.5c-.8-.1-1.7-.2-2.5-.3-4.2-.5-9.4-1.4-15.1-2.9-21.2-5.3-50.5-18.4-73.6-49.9-.6-.8-1.7 2.6-2.7 6.2 18.7 36 55.7 49 80.2 53.7z" fill="#5c3a22"/><path id="XMLID_286_" class="st27" d="M104.1 228.7c7.2-7.9 0-14.2 0-14.2-24.5-4.7-61.5-17.7-80.3-53.7 0 0-13.1 1.3-9 13.7.2.7.5 1.4.8 2.1 5.3 11.8 28.5 40.6 77.5 50.4l10.8 1.8c0-.1.1-.1.2-.1z"/><path id="XMLID_287_" d="M128 217.1l-24-2.6s7.2 6.4 0 14.2l7.8 12.8h16.3v-24.4z" fill="#845336"/><path id="XMLID_288_" class="st26" d="M128 241.5h-16.1l-7.9-12.8h-.1l-10.8-1.8H93l14.1 22.9H128v-8.3z"/></g></g></svg>