<svg id="Layer_1" xmlns="http://www.w3.org/2000/svg" width="256" height="256"><style>.st1{fill:#c08c76}.st3{fill:#d8aa91}.st4{fill:#b8927d}.st5{fill:#d6d4d4}.st9{fill:#b27d6b}.st11{fill:#a1806e}.st12{fill:#a0a0a1}.st16{fill:#a5a595}.st17{fill:#262d32}.st21{fill:#97988a}</style><g id="XMLID_3_"><circle id="XMLID_128_" cx="128" cy="128" r="128" fill="#b2b4b5"/><g id="XMLID_8_"><path id="XMLID_85_" class="st1" d="M156.5 168c-.2.1-.4.2-.7.3-1.5.7-3.8 2-3.8 2-.8.6-1.9 1.6-3.5 2.9-1.6 1.3-4.2 2.3-6.9 2.9l2.6 9.8c3.8-2.5 7.9-5.2 12-8.1 12.1-8.5 12.6-21.1 12.6-21.3-.4-2.4-.8-4.7-1.1-7-1 3.3-1.9 6.2-2.6 8.3-2.1 6.3-6 9-8.6 10.2z"/><path id="XMLID_86_" class="st1" d="M138.4 189.5c-.6-4.6-1.4-9.2-2-12.5-4.3.6-7.9.7-8.3.7v18.2c.5-.4 4.6-2.8 10.3-6.4z"/><path id="XMLID_87_" d="M144.1 185.8l-2.6-9.8c-1.7.4-3.5.7-5.2 1 .6 3.3 1.4 7.9 2 12.5 1.9-1.1 3.8-2.3 5.8-3.7z" fill="#a87b67"/><path id="XMLID_88_" class="st1" d="M184 80.9c-.8 2.5 1.5 7.3 1.5 7.3l-1.9-.5.6 4.3-2.1-1.9s-.3 5.3-.8 7.9c-.3 1.6-1.3 4.5-2 6.5-.4 2.2-.7 4.2-1 5.9-.6 3.6-2 9.3-3.8 15.5 6.1 1.7 7.8-5.1 9.6-10.4 2.1-6.1 1.6-14.5.8-19.5s1.9-5.3 1.4-13.4c-.1-.9-.3-1.6-.6-2.1s-1.1-1.1-1.7.4z"/><path id="XMLID_89_" class="st3" d="M138.5 91c-.5.3-.9.6-1.3.9.4-.3.9-.6 1.3-.9z"/><path id="XMLID_90_" class="st3" d="M159.1 113.7c.3 0 .5 0 .8-.1-.3.1-.5.1-.8.1z"/><path id="XMLID_93_" class="st3" d="M145.9 69.7c6.1-2.7 15.5 0 15.5 0s-10.9-.9-13.3.8c-2.4 1.6-11.5 3.9-20.1 3.9v3.9c.7 0 12-.1 17.8-2.7 6.1-2.7 15.5 0 15.5 0s-10.9-.9-13.3.8c-2.4 1.6-11.5 3.9-20.1 3.9V86h22.2c3.3-.8 5.8-.5 7.6 0h3.9c4.9 0 9.3 1.4 10.1 5.3h5.5c.4-1.9.9-4.4.4-5.3-.8-1.4-2-6.4-2-6.4s2.7-13.5 1.8-19.6c-1-6.1-6.5-17.6-11.2-23.9-4.6-6.4-11.5-8.9-19-5.9-7.3 2.9-18.6 5.7-19.3 5.9v36.6c.9-.3 12.1-.3 18-3z"/><path id="XMLID_108_" class="st3" d="M167.9 107.9c.7-1 1.3-2 1.7-2.9.3-.7.5-1.4.7-2.3-.2.8-.4 1.6-.7 2.3-.4.9-.9 1.9-1.7 2.9z"/><path id="XMLID_109_" class="st3" d="M128.1 93.5c.3 0 1.9-.1 4.1 1.1 0 0 2.7-4.4 5.9-6.1 0-.2 0-.3.1-.5h-10v5.5z"/><path id="XMLID_110_" class="st3" d="M159.1 87.6c-.3 0-.6 0-.9-.1.3 0 .6.1.9.1z"/><path id="XMLID_112_" class="st3" d="M156.5 168l-.6.3c.1-.1.4-.2.6-.3z"/><path id="XMLID_115_" class="st3" d="M179.4 104.5c-.4 1.2-.8 2.1-.8 2.1V98l-1.3 1.5c-.5-3.1 1.3-7.4 1.3-7.4l-1.1.7v.6H172s1.7 11.1-2 15.4c-3.7 4.3-6 6.9-14.7 6.9s-13.9 0-18.1-7.7c-4.2-7.7-6-12.1-6-12.1s-1.2-.7-3.1-.7v39.2c.4 0 6 .3 9.4-3.7 0 0 4.3-.1 6.7 1.9v-.7s3.2 1.2 4.1 1.8c.8.6 1.1-1.4 1-3 0 0 1 4.2 1.9 5.6 1 1.4 1.7 3.8 1.7 3.8l-1.6-.6s1 1.6 1 1.9-1.7 0-1.7 0v2.4s-3.6-1.4-4.9-2.6c-1.3-1.2-1 1.3-1 1.3l-3.4-1.4s-.1 2.2-1.7 1.6c-1.6-.6-3.7-.8-5-.2-1.3.6-2 1.4-6.5 1.4v33.8c.4 0 4-.1 8.3-.7 1.7-.2 3.5-.5 5.2-1 2.8-.7 5.3-1.6 6.9-2.9 1.6-1.3 2.8-2.3 3.5-2.9 0 0 3.8-7.3 3.1-11.7-.7-4.4-1.5-8.3-1.5-8.3s4.3 10.1 1.6 17c0 0 3.5-4 5.4-8.4 0 0-2.7 8.6-4.1 9.1 2.7-1.2 6.6-3.9 8.5-10.2.7-2.1 1.6-5 2.6-8.3 2.1-6.9 4.8-15.7 7.1-23.6 1.8-6.3 3.2-11.9 3.8-15.5.2-1.6.5-3.6.9-5.8zm-29.9 26c-2.4-3.5-6.5-9.8-10.4-11 0 0 6.4 1.7 10.9 9.1s7 9.7 7.7 15.7c.1 0-5.4-9.7-8.2-13.8z"/><path id="XMLID_116_" class="st4" d="M155.8 168.2c.2-.1.5-.2.6-.3 1.4-.5 4.1-9.1 4.1-9.1-1.9 4.4-5.4 8.4-5.4 8.4 2.7-6.9-1.6-17-1.6-17s.8 3.8 1.5 8.3c.7 4.4-3.1 11.7-3.1 11.7.1 0 2.4-1.3 3.9-2z"/><path id="XMLID_118_" class="st5" d="M132.7 10.1l-2.9 6.2c3.1-1.9 7.2-6.2 7.2-6.2l-1.5 6.7 3.6-3.8c1.7-1.9 7.2-1 7.2-1l-1.5 5c2.2-2.6 6.2-2.6 6.2-2.6s13.2 2.8 23 19.2c-8-6-17.5-7.7-17.5-7.7h-6.9l2.4-2.4c-2.2 0-7.7 3.4-7.7 3.4v-1.7l-5.7 2.4v-2.4l-6.2 4.2 1.9-4.2c-3.4 2.2-5.9 7.6-6.3 8.3v2.4c.7-.2 12-3 19.3-5.9 7.5-3 14.4-.5 19 5.9s10.2 17.9 11.2 23.9c1 6.1-1.8 19.6-1.8 19.6s1.2 5 2 6.4c.5.9 0 3.4-.4 5.3h.3v1.6l1.1-.7s-1.8 4.4-1.3 7.4l1.3-1.5v8.6s.3-.9.8-2.1c.7-2 1.7-4.9 2-6.5.5-2.6.8-7.9.8-7.9l2.1 1.9-.6-4.3 1.9.5s-2.3-4.8-1.5-7.3c.5-1.6 1.3-1 1.9-.5 0-2.1 3.1-12.9 2.9-14.8-.2-1.9.6-10.9-3.5-17.6-4.2-6.7-7.3-13.9-10.7-18-3.4-4.1-15.5-21.7-46.6-21.7v6.9l4.5-5z"/><path id="XMLID_119_" class="st4" d="M148.1 70.5c2.4-1.6 13.3-.8 13.3-.8s-9.4-2.7-15.5 0c-5.9 2.6-17.1 2.7-17.8 2.7v1.9c8.6 0 17.6-2.2 20-3.8z"/><path id="XMLID_120_" class="st4" d="M148.1 76.3c2.4-1.6 13.3-.8 13.3-.8s-9.4-2.7-15.5 0c-5.9 2.6-17.1 2.7-17.8 2.7v1.9c8.6.1 17.6-2.1 20-3.8z"/><path id="XMLID_121_" class="st5" d="M134.6 142.5c1.3-.6 3.5-.4 5 .2 1.6.6 1.7-1.6 1.7-1.6l3.4 1.4s-.4-2.5 1-1.3c1.3 1.2 4.9 2.6 4.9 2.6v-2.4s1.7.4 1.7 0-1-1.9-1-1.9l1.6.6s-.7-2.4-1.7-3.8-1.9-5.6-1.9-5.6c.1 1.6-.1 3.6-1 3-.8-.6-4.1-1.8-4.1-1.8v.7c-2.4-2-6.7-1.9-6.7-1.9-3.4 4.1-9 3.7-9.4 3.7v9.5c4.5 0 5.2-.8 6.5-1.4z"/><path id="XMLID_122_" class="st4" d="M150.1 128.6c-4.6-7.4-10.9-9.1-10.9-9.1 3.8 1.2 8 7.5 10.4 11 2.8 4.1 8.3 13.8 8.3 13.8-.8-6-3.3-8.3-7.8-15.7z"/><path id="XMLID_123_" d="M128.1 21.3v12.1c.3-.7 2.9-6.1 6.3-8.3l-1.9 4.2 6.2-4.2v2.4l5.7-2.4v1.7s5.5-3.4 7.7-3.4l-2.4 2.4h6.9s9.5 1.7 17.5 7.7c-9.8-16.4-23-19.2-23-19.2s-4 0-6.2 2.6l1.5-5s-5.5-1-7.2 1l-3.6 3.8 1.5-6.7s-4.1 4.3-7.2 6.2l2.9-6.2-4.6 5.2v6.1z" fill="#b0b0b0"/><path id="XMLID_124_" class="st5" d="M145.1 88.4l1.5-.3-1.5.3z"/><path id="XMLID_125_" class="st5" d="M143.4 88.8c.4-.1.9-.2 1.4-.3-.5.1-1 .2-1.4.3z"/><path id="XMLID_126_" class="st5" d="M140.4 89.9c.4-.2.8-.4 1.1-.5-.3.1-.7.3-1.1.5z"/><path id="XMLID_127_" class="st5" d="M158.2 87.5c-1.5-.1-3.1-.1-4.6-.1 1.5 0 3.1 0 4.6.1z"/><path id="XMLID_129_" class="st5" d="M150.3 85.8h7.6c-1.9-.5-4.4-.7-7.6 0z"/><path id="XMLID_130_" class="st5" d="M139 88h-.9c0 .1-.1.3-.1.5.3-.2.7-.4 1-.5z"/><path id="XMLID_131_" class="st5" d="M150.4 87.6c.5 0 .9-.1 1.3-.1-.3.1-.8.1-1.3.1z"/><path id="XMLID_132_" class="st5" d="M147.9 87.9c.9-.1 1.7-.2 2.4-.3l-2.4.3z"/><path id="XMLID_133_" class="st5" d="M139.6 90.4c-.3.2-.7.4-1 .6.3-.2.6-.4 1-.6z"/><path id="XMLID_136_" d="M137.2 108.1c4.2 7.7 9.3 7.7 18.1 7.7s11-2.6 14.7-6.9c3.7-4.3 2-15.4 2-15.4h5.5v-2.2h-5.8c-.7-3.8-5.1-5.3-10.1-5.3h-33.7v2h10.9c-.3.1-.6.3-1 .5-3.2 1.8-5.9 6.1-5.9 6.1-2.2-1.2-3.8-1.1-4.1-1.1v1.8c1.9 0 3.1.7 3.1.7s2.1 4.5 6.3 12.1zm-2.1-14c.1-.2.3-.4.4-.6.5-.5 1-1.1 1.7-1.6.4-.3.9-.7 1.3-.9.4-.2.7-.4 1-.6.3-.2.6-.3.9-.5.4-.2.8-.4 1.1-.5.2-.1.3-.1.4-.2.1-.1.3-.1.3-.1.3-.1.7-.2 1-.3.4-.1.9-.2 1.4-.3.1 0 .2-.1.4-.1l1.5-.3c.4-.1.8-.1 1.2-.2.9-.1 1.7-.2 2.4-.3h.2c.5 0 .9-.1 1.3-.1 1.1-.1 1.8-.1 1.8-.1 1.6 0 3.1 0 4.6.1.3 0 .6 0 .9.1 5.4.4 9.9 1.4 10.7 3.7.7 1.9 1 4.4 1 6.9 0 1.6-.2 3.1-.5 4.5-.2.8-.4 1.6-.7 2.3-.4.9-1 1.9-1.7 2.9-.2.2-.4.5-.6.7-.4.5-.8 1-1.3 1.4l-.7.7c-1.2 1.1-2.5 2-3.9 2.5-.5.2-1.1.4-1.6.4-.3 0-.5.1-.8.1H151c-5.5 0-8.5-1.8-11.3-5.4-2.8-3.6-5.5-8.6-5.5-12.6.3-.5.6-1 .9-1.6z" fill="#907047"/><path id="XMLID_137_" d="M151.3 113.7h7.8c.3 0 .5 0 .8-.1.5-.1 1.1-.2 1.6-.4 1.3-.5 2.7-1.4 3.9-2.5.2-.2.5-.4.7-.7.5-.5.9-.9 1.3-1.4.2-.2.4-.5.6-.7.7-1 1.3-2 1.7-2.9.3-.7.5-1.4.7-2.3.3-1.4.5-2.9.5-4.5 0-2.5-.3-5-1-6.9-.8-2.3-5.4-3.3-10.7-3.7-.3 0-.6 0-.9-.1-1.5-.1-3.1-.1-4.6-.1 0 0-.7 0-1.8.1-.4 0-.8.1-1.3.1h-.2c-.7.1-1.6.2-2.4.3-.4.1-.8.1-1.2.2l-1.5.3c-.1 0-.3.1-.4.1-.5.1-.9.2-1.4.3-.4.1-.7.2-1 .3-.1 0-.2.1-.3.1-.1.1-.3.1-.4.2-.3.1-.7.3-1.1.5-.3.1-.6.3-.9.5-.3.2-.7.4-1 .6-.5.3-.9.6-1.3.9-.6.5-1.2 1-1.7 1.6-.2.2-.3.4-.4.6-.4.6-.6 1.1-.6 1.7 0 4 2.8 9 5.5 12.6 2.5 3.6 5.5 5.3 11 5.3z" opacity=".6" fill="#844530"/><path id="XMLID_138_" class="st9" d="M99.9 177.8c4 2.8 8.2 5.6 12 8.1l2.6-9.8c-2.8-.7-5.3-1.6-6.9-2.9-1.6-1.3-2.8-2.3-3.5-2.9 0 0-2.3-1.3-3.8-2l-.6-.3c-2.7-1.2-6.6-3.9-8.5-10.2-.7-2.1-1.6-5-2.6-8.3-.3 2.3-.7 4.8-1.2 7.3.1 2 1.5 13.2 12.5 21z"/><path id="XMLID_139_" class="st9" d="M128.1 195.8v-18.2s-3.8-.1-8.3-.7c-.6 3.4-1.4 7.9-2 12.5 5.9 4 10.2 6.5 10.3 6.4-.1.1-.1.1 0 0z"/><path id="XMLID_140_" d="M114.5 176.1l-2.6 9.8c2 1.3 4 2.6 5.8 3.7.6-4.6 1.4-9.2 2-12.5-1.7-.3-3.5-.6-5.2-1z" fill="#906958"/><path id="XMLID_141_" class="st9" d="M76.7 104.5c-.7-2-1.7-4.9-2-6.5-.5-2.6-.8-7.9-.8-7.9l-2 1.9.6-4.3-1.9.5s2.3-4.8 1.5-7.3c-.5-1.6-1.3-1-1.9-.5-.3.5-.5 1.2-.6 2.1-.5 8.1 2.2 8.5 1.4 13.4s-1.3 13.4.8 19.5c1.8 5.4 3.5 12.2 9.6 10.4-1.8-6.3-3.2-11.9-3.8-15.5-.2-1.6-.5-3.6-.9-5.8z"/><path id="XMLID_143_" class="st1" d="M118.9 92c-.4-.3-.9-.7-1.3-.9.4.2.8.5 1.3.9z"/><path id="XMLID_144_" class="st1" d="M84.3 91.1c.7-3.8 5.1-5.3 10.1-5.3h3.9c1.8-.5 4.3-.8 7.6 0h22.3v-5.7c-8.6 0-17.7-2.2-20.1-3.9-2.4-1.6-13.3-.8-13.3-.8s9.4-2.7 15.5 0 17.9 2.7 17.9 2.7v-3.9c-8.6 0-17.7-2.2-20.1-3.9-2.4-1.6-13.3-.8-13.3-.8s9.4-2.7 15.5 0 17.9 2.7 17.9 2.7V35.8s-11.8-2.9-19.3-5.9-14.4-.5-19 5.9-10.2 17.9-11.2 23.9c-1 6.1 1.8 19.6 1.8 19.6s-1.2 5-2 6.4c-.5.9 0 3.4.4 5.3h5.4z"/><path id="XMLID_146_" class="st1" d="M97.8 87.5c-.3 0-.6 0-.9.1.4 0 .7-.1.9-.1z"/><path id="XMLID_147_" class="st1" d="M97 113.7c-.3 0-.5 0-.8-.1.2.1.5.1.8.1z"/><path id="XMLID_148_" class="st1" d="M85.7 102.7c.2.8.4 1.6.7 2.3.4.9 1 1.9 1.7 2.9-.7-1-1.3-2-1.7-2.9-.2-.7-.5-1.4-.7-2.3z"/><path id="XMLID_149_" class="st1" d="M128 88h-10c0 .1.1.3.1.5 3.2 1.8 5.9 6.1 5.9 6.1 2.3-1.3 4-1.1 4.1-1.1L128 88z"/><path id="XMLID_150_" class="st1" d="M100.2 168.2c-.2-.1-.5-.2-.6-.3.2.2.4.3.6.3z"/><path id="XMLID_153_" class="st1" d="M99.6 168c-1.4-.5-4.1-9.1-4.1-9.1 1.9 4.4 5.4 8.4 5.4 8.4-2.7-6.9 1.6-17 1.6-17s-.8 3.8-1.5 8.3c-.7 4.4 3.1 11.7 3.1 11.7.8.6 1.9 1.6 3.5 2.9 1.6 1.3 4.2 2.3 6.9 2.9 1.7.4 3.5.7 5.2 1 4.5.6 8.3.7 8.3.7v-33.9c-4.6 0-5.2-.8-6.5-1.4s-3.5-.4-5 .2c-1.6.6-1.7-1.6-1.7-1.6l-3.4 1.4s.4-2.5-1-1.3c-1.3 1.2-4.9 2.6-4.9 2.6v-2.4s-1.7.4-1.7 0 1-1.9 1-1.9l-1.6.6s.7-2.4 1.7-3.8 1.9-5.6 1.9-5.6c-.1 1.6.1 3.6 1 3 .8-.6 4.1-1.8 4.1-1.8v.7c2.4-2 6.7-1.9 6.7-1.9 3.5 4.2 9.4 3.7 9.4 3.7V95.3c-1.9 0-3.2.7-3.2.7s-1.8 4.4-6 12.1c-4.2 7.7-9.3 7.7-18.1 7.7s-11-2.6-14.7-6.9c-3.7-4.3-2-15.4-2-15.4h-5.5v-.6l-1.1-.9s1.8 4.4 1.3 7.4L77.4 98v8.6s-.3-.9-.8-2.1c.4 2.2.7 4.2 1 5.9.6 3.6 2 9.3 3.8 15.5 2.2 7.9 4.9 16.7 7.1 23.6 1 3.3 1.9 6.2 2.6 8.3 1.9 6.3 5.8 9 8.5 10.2zm6.4-39.4c4.6-7.4 10.9-9.1 10.9-9.1-3.8 1.2-8 7.5-10.4 11-2.8 4.1-8.3 13.8-8.3 13.8.8-6 3.3-8.3 7.8-15.7z"/><path id="XMLID_155_" class="st11" d="M101 158.5c.7-4.4 1.5-8.3 1.5-8.3s-4.3 10.1-1.6 17c0 0-3.5-4-5.4-8.4 0 0 2.7 8.6 4.1 9.1l.6.3c1.5.7 3.8 2 3.8 2 .1 0-3.7-7.2-3-11.7z"/><path id="XMLID_156_" class="st12" d="M72 80.9c.8 2.5-1.5 7.3-1.5 7.3l1.9-.5-.5 4.3 2.1-1.9s.3 5.3.8 7.9c.3 1.6 1.3 4.5 2 6.5.4 1.2.8 2.1.8 2.1V98l1.3 1.5c.5-3.1-1.3-7.4-1.3-7.4l1.1.7v-1.6h.3c-.4-1.9-.9-4.4-.4-5.3.8-1.4 2-6.4 2-6.4S77.9 66 78.8 59.9c1-6.1 6.5-17.6 11.2-23.9 4.6-6.4 11.5-8.9 19-5.9s19.3 5.9 19.3 5.9v-2.3s-2.7-6-6.3-8.4l1.9 4.2-6.2-4.2v2.4l-5.7-2.4V27s-5.5-3.4-7.7-3.4l2.4 2.4h-6.9s-9.5 1.7-17.5 7.7c9.8-16.4 23-19.2 23-19.2s4 0 6.2 2.6l-1.5-5s5.5-1 7.2 1l3.6 3.8-1.5-6.7s4.1 4.3 7.2 6.2l-2.9-6.2 4.7 5.3V8.4C97.2 8.4 85.1 26 81.7 30.1c-3.4 4.2-6.5 11.3-10.7 18-4.2 6.7-3.4 15.6-3.5 17.6-.2 1.9 2.9 12.7 2.9 14.8.3-.5 1.1-1.1 1.6.4z"/><path id="XMLID_157_" class="st11" d="M128.1 72.4s-11.8 0-17.9-2.7c-6.1-2.7-15.5 0-15.5 0s10.9-.9 13.3.8c2.4 1.6 11.5 3.9 20.1 3.9v-2z"/><path id="XMLID_158_" class="st11" d="M128.1 78.3s-11.8 0-17.9-2.7c-6.1-2.7-15.5 0-15.5 0s10.9-.9 13.3.8c2.4 1.6 11.5 3.9 20.1 3.9v-2z"/><path id="XMLID_159_" class="st12" d="M128.1 134.5s-5.9.5-9.4-3.7c0 0-4.3-.1-6.7 1.9v-.7s-3.2 1.2-4.1 1.8c-.8.6-1.1-1.4-1-3 0 0-1 4.2-1.9 5.6-1 1.4-1.7 3.8-1.7 3.8l1.6-.6s-1 1.6-1 1.9 1.7 0 1.7 0v2.4s3.6-1.4 4.9-2.6c1.3-1.2 1 1.3 1 1.3l3.4-1.4s.1 2.2 1.7 1.6c1.6-.6 3.7-.8 5-.2s2 1.4 6.5 1.4v-9.5z"/><path id="XMLID_160_" class="st11" d="M98.3 144.3s5.5-9.6 8.3-13.8c2.4-3.5 6.5-9.8 10.4-11 0 0-6.4 1.7-10.9 9.1-4.6 7.4-7.1 9.7-7.8 15.7z"/><path id="XMLID_161_" d="M128.1 21.3v-6l-4.7-5.3 2.9 6.2c-3.1-1.9-7.2-6.2-7.2-6.2l1.5 6.7-3.6-3.8c-1.7-1.9-7.2-1-7.2-1l1.5 5c-2.2-2.6-6.2-2.6-6.2-2.6s-13.2 2.8-23 19.2c8-6 17.5-7.7 17.5-7.7h6.9l-2.4-2.4c2.2 0 7.7 3.4 7.7 3.4v-1.7l5.7 2.4v-2.4l6.2 4.2-1.9-4.2c3.6 2.4 6.3 8.4 6.3 8.4V21.3z" fill="#898a8b"/><path id="XMLID_162_" class="st12" d="M114.5 89.4c.3.1.7.3 1.1.5-.4-.2-.7-.4-1.1-.5z"/><path id="XMLID_163_" class="st12" d="M117.1 88c.3.1.6.3 1 .5 0-.2 0-.3-.1-.5h-.9z"/><path id="XMLID_164_" class="st12" d="M102.5 87.4c-1.6 0-3.1 0-4.6.1 1.5-.1 3-.1 4.6-.1z"/><path id="XMLID_165_" class="st12" d="M117.5 91c-.4-.2-.7-.4-1-.6.3.2.7.4 1 .6z"/><path id="XMLID_166_" class="st12" d="M111.3 88.5c.5.1.9.2 1.4.3-.4-.1-.9-.2-1.4-.3z"/><path id="XMLID_167_" class="st12" d="M109.4 88.1l1.5.3c-.4-.1-.9-.2-1.5-.3z"/><path id="XMLID_168_" class="st12" d="M105.8 87.7c.7.1 1.6.2 2.4.3-.8-.2-1.7-.3-2.4-.3z"/><path id="XMLID_169_" class="st12" d="M104.3 87.5c.4 0 .8.1 1.3.1-.4 0-.9 0-1.3-.1z"/><path id="XMLID_170_" class="st12" d="M98.2 85.8h7.6c-3.3-.7-5.8-.5-7.6 0z"/><path id="XMLID_173_" d="M128.1 93.5c-.1 0-1.8-.2-4.2 1.1 0 0-2.7-4.4-5.9-6.1-.3-.2-.6-.3-1-.5h11v-2.2H94.2c-4.9 0-9.3 1.4-10.1 5.3h-5.8v2.2h5.5s-1.7 11.1 2 15.4c3.7 4.3 6 6.9 14.7 6.9s13.9 0 18.1-7.7c4.2-7.7 6-12.1 6-12.1s1.2-.7 3.2-.7v-1.6zM116 108.4c-2.8 3.6-5.7 5.4-11.3 5.4h-7.8c-.3 0-.5 0-.8-.1-.5-.1-1.1-.2-1.6-.4-2.2-.8-4.3-2.7-5.8-4.6-.2-.2-.4-.5-.6-.7-.7-1-1.3-2-1.7-2.9-.3-.7-.5-1.4-.7-2.3-.3-1.4-.5-2.9-.5-4.5 0-2.5.3-5 1-6.9.9-2.4 5.4-3.4 10.8-3.8.3 0 .6 0 .9-.1 1.5-.1 3.1-.1 4.6-.1 0 0 .7 0 1.8.1.4 0 .8.1 1.3.1h.2c.7.1 1.6.2 2.4.3.4.1.8.1 1.2.2l1.5.3c.1 0 .3.1.4.1.5.1.9.2 1.4.3.4.1.7.2 1 .3.1 0 .2.1.3.1.1.1.3.1.4.2.3.1.7.3 1.1.5.3.1.6.3.9.5.3.2.7.4 1 .6.5.3.9.6 1.3.9.6.5 1.2 1 1.7 1.6.2.2.3.4.4.6.4.6.6 1.1.6 1.7.1 4-2.6 9-5.4 12.6z" fill="#785d39"/><path id="XMLID_174_" d="M120.5 93.5c-.5-.5-1-1.1-1.7-1.6-.4-.3-.9-.7-1.3-.9-.4-.2-.7-.4-1-.6-.3-.2-.6-.3-.9-.5-.4-.2-.8-.4-1.1-.5-.2-.1-.3-.1-.4-.2-.1-.1-.3-.1-.3-.1-.3-.1-.7-.2-1-.3-.4-.1-.9-.2-1.4-.3-.1 0-.2-.1-.4-.1l-1.5-.3c-.4-.1-.8-.1-1.2-.2-.9-.1-1.7-.2-2.4-.3h-.2c-.5 0-.9-.1-1.3-.1-1.1-.1-1.8-.1-1.8-.1-1.6 0-3.1 0-4.6.1-.3 0-.6 0-.9.1-5.4.4-9.9 1.4-10.7 3.7-.7 1.9-1 4.4-1 6.9 0 1.6.2 3.1.5 4.5.2.8.4 1.6.7 2.3.4.9 1 1.9 1.7 2.9.2.2.4.5.6.7 1.6 2 3.7 3.8 5.8 4.6.5.2 1.1.4 1.6.4.3 0 .5.1.8.1h7.8c5.5 0 8.5-1.8 11.3-5.4 2.8-3.6 5.5-8.6 5.5-12.6 0-.6-.2-1.1-.6-1.7-.3-.1-.4-.3-.6-.5z" opacity=".6" fill="#6d3723"/><path id="XMLID_175_" class="st16" d="M153.8 240.9c-1.1-10-7.2-17.8-10.6-25-.3-.7-.8-1.5-1.2-2.2l-2.2 7.7s-.3.2-1 .4l5.7 33.1c6.3-.8 12.4-2.1 18.3-3.7l4.5-39c-5.6 13.2-13.5 28.7-13.5 28.7z"/><path id="XMLID_176_" class="st17" d="M138.8 221.8c-1.7.7-5.5 1.9-10.8 1.9V256c5.6 0 11.1-.4 16.5-1.1l-5.7-33.1z"/><path id="XMLID_177_" class="st16" d="M183.3 170.6c-5.2-2.2-9-3.9-10.2-4.4 1.7 8.3 2.3 20.7-.9 32.9-.9 3.3-2.7 8-4.9 13.1l-4.5 39a122 122 0 0 0 17.8-6.5c5.2-41.5 2.7-74.1 2.7-74.1z"/><path id="XMLID_178_" d="M128 195.9v27.8c5.3 0 9.1-1.2 10.8-1.9.6-.2 1-.4 1-.4l2.2-7.7c-4.4-7.3-14-17.8-14-17.8z" fill="#40474c"/><path id="XMLID_179_" d="M156.1 177.8c-4 2.8-8.1 5.6-12 8.1-2 1.3-4 2.6-5.8 3.7-5.7 3.6-9.8 6-10.3 6.3h-.1s9.6 10.5 13.9 17.8c.5.8.9 1.5 1.2 2.2 3.4 7.2 9.5 14.9 10.6 25 0 0 7.9-15.6 13.5-28.7 2.2-5.1 4-9.8 4.9-13.1 3.2-12.2 2.7-24.6.9-32.9-1.2-5.6-2.9-9.3-4.4-9.8.2.3-.4 12.9-12.4 21.4z" fill="#bebfae"/><path id="XMLID_180_" d="M183.3 170.6s2.5 32.6-2.7 74.1c24.6-11.1 45-29.7 58.4-52.9-7.4-3.6-26.9-12.5-55.7-21.2z" fill="#3d4449"/><path id="XMLID_181_" class="st21" d="M117.2 221.8c-.6-.2-1-.4-1-.4l-2.2-7.7c-.5.8-.9 1.5-1.2 2.2-3.4 7.2-9.5 14.9-10.6 25 0 0-7.9-15.6-13.5-28.7l4.5 39c5.9 1.7 12 2.9 18.3 3.7l5.7-33.1z"/><path id="XMLID_182_" d="M128 223.7c-5.3 0-9.1-1.2-10.8-1.9l-5.7 33.1c5.4.7 10.9 1.1 16.5 1.1v-32.3z" fill="#151a1f"/><path id="XMLID_184_" class="st21" d="M83.8 199.2c-3.2-12.2-2.7-24.6-.9-32.9-1.2.5-5 2.1-10.2 4.4 0 0-2.5 32.6 2.7 74.1a122 122 0 0 0 17.8 6.5l-4.5-39c-2.2-5.1-4-9.8-4.9-13.1z"/><path id="XMLID_185_" class="st17" d="M128 198.7v-2.8s-9.6 10.5-13.9 17.8l2.2 7.7s.3.2 1 .4c1.7.7 5.5 1.9 10.8 1.9v-25z"/><path id="XMLID_186_" class="st16" d="M83.8 199.2c.9 3.3 2.7 8 4.9 13.1 5.6 13.1 13.5 28.7 13.5 28.7 1.1-10 7.2-17.8 10.6-25 .3-.7.8-1.5 1.2-2.2 4.4-7.3 13.9-17.8 13.9-17.8s-4.3-2.5-10.3-6.3c-1.8-1.1-3.7-2.4-5.8-3.7-3.8-2.5-8-5.3-12-8.1-11-7.8-12.4-19-12.6-21v-.3c-1.5.5-3.2 4.2-4.4 9.8-1.6 8.1-2.2 20.6 1 32.8z"/><path id="XMLID_187_" class="st17" d="M72.7 170.6c-28.8 8.7-48.3 17.6-55.7 21.2 13.4 23.2 33.8 41.8 58.4 52.9-5.2-41.5-2.7-74.1-2.7-74.1z"/></g></g></svg>