<svg id="Layer_1" xmlns="http://www.w3.org/2000/svg" width="256" height="256"><style>.st2{fill:#c08c76}.st4{fill:#d8aa91}.st5{fill:#b8927d}.st6{fill:#d6d4d4}.st7{fill:#b27d6b}.st9{fill:#a1806e}.st10{fill:#a0a0a1}.st11{fill:#4c3618}.st12{fill:#563e1d}.st13{fill:#bcbbbb}.st15{fill:#3a2814}.st16{fill:#897b67}.st17{fill:#978873}.st18{fill:#b29f86}.st19{fill:#342413}.st21{fill:#d3b789}.st22{fill:#a9a8a8}.st23{fill:#402c0e}.st24{fill:#786c5b}.st25{fill:#281905}.st26{fill:#8b8c8d}.st27,.st29{opacity:.4;fill:#d8b7ad}.st29{fill:#bda199}</style><g id="XMLID_3_"><circle id="XMLID_103_" cx="128" cy="128" r="128" fill="#b2b4b5"/><g id="XMLID_8_"><path id="XMLID_231_" d="M128 239v17-17z" fill="none"/><path id="XMLID_234_" class="st2" d="M128 221.2v-22s4.5-2.6 10.7-6.6c-.6-5.6-1.6-11.5-2.4-15.6-4.3.6-7.9.7-8.3.7V239v-17.8z"/><path id="XMLID_235_" class="st2" d="M156.4 168c-.2.1-.4.2-.7.3-1.5.7-3.8 2-3.8 2-.8.6-1.9 1.6-3.5 2.9-1.6 1.3-4.2 2.3-6.9 2.9l3.3 12.7c3.5-2.3 7.2-4.8 10.9-7.3 11-7.8 13.5-18.3 13.8-19.9l-.6-3.6c-.5-2.8-1-5.7-1.4-8.4-1 3.3-1.9 6.2-2.6 8.3-1.9 6.2-5.8 8.9-8.5 10.1z"/><path id="XMLID_236_" d="M141.5 176.1c-1.7.4-3.5.7-5.2 1 .8 4.1 1.8 10 2.4 15.6 1.9-1.2 4-2.5 6.1-3.9l-3.3-12.7z" fill="#a87b67"/><path id="XMLID_237_" class="st2" d="M184 80.9c-.8 2.5 1.5 7.3 1.5 7.3l-1.9-.5.6 4.3-2.1-1.9s-.3 5.3-.8 7.9c-.3 1.6-1.3 4.5-2 6.5-.4 2.2-.7 4.2-1 5.9-.6 3.6-2 9.3-3.8 15.5 6.1 1.7 7.8-5.1 9.6-10.4 2.1-6.1 1.6-14.5.8-19.5s1.9-5.3 1.4-13.4c-.1-.9-.3-1.6-.6-2.1-.4-.5-1.2-1.1-1.7.4z"/><path id="XMLID_243_" class="st4" d="M156.4 168l-.6.3.6-.3z"/><path id="XMLID_246_" class="st4" d="M179.3 104.5c-.4 1.2-.8 2.1-.8 2.1V98l-1.3 1.5c-.5-3.1 1.3-7.4 1.3-7.4l-1.9 1.3s1.8-6.1 1-7.5c-.2-.3-.3-.7-.5-1.2-2.2 1.3-6.1 2.2-10.6 2.9 5.1 2.7 5.1 6 5.1 6h2.2v3H172s-.1 11.1-3.2 12.8c-3.1 1.7-16.2 3.9-23.1 2-6.9-1.9-9-6.6-10.3-11.2s-1.4-6.7-1.4-6.7-1.9-1.3-6-1.3v-1.7s3.3-.4 5.9 1.4c0 0 .1-.9.5-2-3.6.1-6 .1-6.4.1v44.6c.4 0 6 .3 9.4-3.7 0 0 4.3-.1 6.7 1.9v-.7s3.2 1.2 4.1 1.8 1.1-1.4 1-3c0 0 1 4.2 1.9 5.6 1 1.4 1.7 3.8 1.7 3.8l-1.6-.6s1 1.6 1 1.9c0 .4-1.7 0-1.7 0v2.4s-3.6-1.4-4.9-2.6c-1.3-1.2-1 1.3-1 1.3l-3.4-1.4s-.1 2.2-1.7 1.6c-1.6-.6-3.7-.8-5-.2-1.3.6-2 1.4-6.5 1.4v33.6c.4 0 4-.1 8.3-.7 1.7-.2 3.5-.5 5.2-1 2.8-.7 5.3-1.6 6.9-2.9 1.6-1.3 2.8-2.3 3.5-2.9 0 0 3.8-7.3 3.1-11.7-.7-4.4-1.5-8.3-1.5-8.3s4.3 10.1 1.6 17c0 0 3.5-4 5.4-8.4 0 0-2.7 8.6-4.1 9.1 2.7-1.2 6.6-3.9 8.5-10.2.7-2.1 1.6-5 2.6-8.3 2.1-6.9 4.8-15.7 7.1-23.6 1.8-6.3 3.2-11.9 3.8-15.5.2-1.6.6-3.6.9-5.8zm-29.9 26c-2.4-3.5-6.5-9.8-10.4-11 0 0 6.4 1.7 10.9 9.1s7 9.7 7.7 15.7c.1 0-5.4-9.7-8.2-13.8z"/><path id="XMLID_258_" class="st5" d="M155.8 168.2c.2-.1.5-.2.6-.3 1.4-.5 4.1-9.1 4.1-9.1-1.9 4.4-5.4 8.4-5.4 8.4 2.7-6.9-1.6-17-1.6-17s.8 3.8 1.5 8.3c.7 4.4-3.1 11.7-3.1 11.7s2.4-1.3 3.9-2z"/><path id="XMLID_259_" class="st6" d="M187.9 64.1c.3.6.6 1.2.9 1.7v-2.6l-.9.9z"/><path id="XMLID_260_" class="st6" d="M177.6 84.3c-.1.1-.3.2-.4.2.2.5.3.9.5 1.2.8 1.4-1 7.5-1 7.5l1.9-1.3s-1.8 4.4-1.3 7.4l1.3-1.5v8.6s.3-.9.8-2.1c.7-2 1.7-4.9 2-6.5.5-2.6.8-7.9.8-7.9l2.1 1.9-.6-4.3 1.9.5s-2.3-4.8-1.5-7.3c.5-1.6 1.3-1 1.9-.5 0-.5.2-1.7.5-3.1-2.3 2.7-5.4 5-8.9 7.2z"/><path id="XMLID_261_" class="st6" d="M188.7 61.3c0-.6-.1-1.3-.1-2-.1 0-.3-.1-.4-.1.2.8.4 1.6.5 2.1z"/><path id="XMLID_262_" class="st6" d="M134.5 142.5c1.3-.6 3.5-.4 5 .2 1.6.6 1.7-1.6 1.7-1.6l3.4 1.4s-.4-2.5 1-1.3c1.3 1.2 4.9 2.6 4.9 2.6v-2.4s1.7.4 1.7 0-1-1.9-1-1.9l1.6.6s-.7-2.4-1.7-3.8-1.9-5.6-1.9-5.6c.1 1.6-.1 3.6-1 3s-4.1-1.8-4.1-1.8v.7c-2.4-2-6.7-1.9-6.7-1.9-3.4 4.1-9 3.7-9.4 3.7v9.5c4.6 0 5.2-.8 6.5-1.4z"/><path id="XMLID_263_" class="st5" d="M150 128.6c-4.6-7.4-10.9-9.1-10.9-9.1 3.8 1.2 8 7.5 10.4 11 2.8 4.1 8.3 13.8 8.3 13.8-.8-6-3.2-8.3-7.8-15.7z"/><path id="XMLID_264_" class="st7" d="M100.3 181.4c3.6 2.5 7.3 5 10.8 7.3l3.3-12.6c-2.8-.7-5.3-1.6-6.9-2.9-1.6-1.3-2.8-2.3-3.5-2.9 0 0-2.3-1.3-3.8-2l-.6-.3c-2.7-1.2-6.6-3.9-8.5-10.2-.7-2.1-1.6-5-2.6-8.3-.4 2.7-.8 5.5-1.4 8.4l-.6 3.6c.3 1.6 2.8 12.1 13.8 19.9z"/><path id="XMLID_265_" class="st7" d="M119.7 177c-.8 4.1-1.8 10-2.4 15.6 6.2 3.9 10.7 6.6 10.7 6.6V239v-61.3s-3.8-.1-8.3-.7z"/><path id="XMLID_266_" d="M111.1 188.7c2.2 1.4 4.2 2.7 6.1 3.9.6-5.6 1.6-11.5 2.4-15.6-1.7-.2-3.5-.5-5.2-1l-3.3 12.7z" fill="#906958"/><path id="XMLID_267_" class="st7" d="M76.6 104.5c-.7-2-1.7-4.9-2-6.5-.5-2.6-.8-7.9-.8-7.9l-2 1.9.6-4.3-1.9.5s2.3-4.8 1.5-7.3c-.5-1.6-1.3-1-1.9-.5-.3.5-.5 1.2-.6 2.1-.5 8.1 2.2 8.5 1.4 13.4s-1.3 13.4.8 19.5c1.8 5.4 3.5 12.2 9.6 10.4-1.8-6.3-3.2-11.9-3.8-15.5-.1-1.6-.5-3.6-.9-5.8z"/><path id="XMLID_270_" class="st2" d="M99.5 168c-1.4-.5-4.1-9.1-4.1-9.1 1.9 4.4 5.4 8.4 5.4 8.4-2.7-6.9 1.6-17 1.6-17s-.8 3.8-1.5 8.3c-.7 4.4 3.1 11.7 3.1 11.7.8.6 1.9 1.6 3.5 2.9 1.6 1.3 4.2 2.3 6.9 2.9 1.7.4 3.5.7 5.2 1 4.5.6 8.3.7 8.3.7v-33.9c-4.6 0-5.2-.8-6.5-1.4s-3.5-.4-5 .2c-1.6.6-1.7-1.6-1.7-1.6l-3.4 1.4s.4-2.5-1-1.3c-1.3 1.2-4.9 2.6-4.9 2.6v-2.4s-1.7.4-1.7 0 1-1.9 1-1.9l-1.6.6s.7-2.4 1.7-3.8 1.9-5.6 1.9-5.6c-.1 1.6.1 3.6 1 3s4.1-1.8 4.1-1.8v.7c2.4-2 6.7-1.9 6.7-1.9 3.5 4.2 9.4 3.7 9.4 3.7V89.9c-.1 0-2.6 0-6.4-.1.5 1.1.5 2 .5 2 2.5-1.8 5.9-1.4 5.9-1.4v1.7c-4.1 0-6 1.3-6 1.3s-.1 2-1.4 6.7-3.3 9.3-10.3 11.2c-6.9 1.9-20-.4-23.1-2-3.1-1.7-3.2-12.8-3.2-12.8h-1.8v-3h2.2s0-3.2 5.1-6c-4.6-.7-8.4-1.7-10.6-2.9-.2.5-.3.9-.5 1.2-.8 1.4 1 7.5 1 7.5L77.4 92s1.8 4.4 1.3 7.4L77.4 98v8.6s-.3-.9-.8-2.1c.4 2.2.7 4.2 1 5.9.6 3.6 2 9.3 3.8 15.5 2.2 7.9 4.9 16.7 7.1 23.6 1 3.3 1.9 6.2 2.6 8.3 1.9 6.3 5.8 9 8.4 10.2zm6.5-39.4c4.6-7.4 10.9-9.1 10.9-9.1-3.8 1.2-8 7.5-10.4 11-2.8 4.1-8.3 13.8-8.3 13.8.7-6 3.2-8.3 7.8-15.7z"/><path id="XMLID_271_" class="st2" d="M100.2 168.2c-.2-.1-.5-.2-.6-.3.2.2.4.3.6.3z"/><path id="XMLID_272_" class="st9" d="M100.9 158.5c.7-4.4 1.5-8.3 1.5-8.3s-4.3 10.1-1.6 17c0 0-3.5-4-5.4-8.4 0 0 2.7 8.6 4.1 9.1l.6.3c1.5.7 3.8 2 3.8 2 .1 0-3.7-7.2-3-11.7z"/><path id="XMLID_273_" class="st10" d="M67.4 59.4c-.1.6-.1 1.2-.1 1.8.2-.5.3-1.2.5-1.9-.2 0-.3 0-.4.1z"/><path id="XMLID_274_" class="st10" d="M67.2 63.3v2.4c.2-.5.5-1.1.8-1.6-.3-.3-.6-.5-.8-.8z"/><path id="XMLID_275_" class="st10" d="M72 80.9c.8 2.5-1.5 7.3-1.5 7.3l1.9-.5-.6 4.3 2.1-1.9s.3 5.3.8 7.9c.3 1.6 1.3 4.5 2 6.5.4 1.2.8 2.1.8 2.1V98l1.3 1.5c.5-3.1-1.3-7.4-1.3-7.4l1.9 1.3s-1.8-6.1-1-7.5c.1-.3.3-.7.5-1.2-.2-.1-.3-.2-.5-.3-3.4-2.2-6.5-4.4-8.7-6.9.3 1.4.5 2.5.5 3.1.5-.6 1.2-1.2 1.8.3z"/><path id="XMLID_276_" class="st10" d="M128 134.5s-5.9.5-9.4-3.7c0 0-4.3-.1-6.7 1.9v-.7s-3.2 1.2-4.1 1.8-1.1-1.4-1-3c0 0-1 4.2-1.9 5.6-1 1.4-1.7 3.8-1.7 3.8l1.6-.6s-1 1.6-1 1.9c0 .4 1.7 0 1.7 0v2.4s3.6-1.4 4.9-2.6c1.3-1.2 1 1.3 1 1.3l3.4-1.4s.1 2.2 1.7 1.6c1.6-.6 3.7-.8 5-.2s2 1.4 6.5 1.4v-9.5z"/><path id="XMLID_277_" class="st9" d="M98.2 144.3s5.5-9.6 8.3-13.8c2.4-3.5 6.5-9.8 10.4-11 0 0-6.4 1.7-10.9 9.1s-7.1 9.7-7.8 15.7z"/><path id="XMLID_278_" class="st11" d="M201.5 232.8c4.3-3 8.3-6.2 12.2-9.7l-14.2 7.1 2 2.6z"/><path id="XMLID_279_" class="st11" d="M215.3 221.6c3.5-3.3 6.8-6.7 10-10.4-7.8-3.2-15.5-6.2-21.5-8.3 5.7 8.9 10.3 16.6 11.5 18.7z"/><path id="XMLID_282_" class="st12" d="M196.2 180.4c-.7 2-3 3.2-5.4 2.8 4.3 6 9 13.1 13.1 19.6 6 2.1 13.7 5.1 21.5 8.3 3-3.5 5.8-7.2 8.4-11l-2.1-1.1 3.3-.7c.2-.3.4-.6.6-1l.3-2.2.7.6c.3-.5.7-1.1 1-1.6L196 177.5c.4 1 .5 2 .2 2.9zm28.6 11.7l4.2.2-1.8 2.5 2.2 3.2-4.3-1.3-2.9 1.8-.8-3.3-4-2.1 3.8-.8.4-3.1 3.2 2.9zm-14.5-5.9l4.2.2-1.8 2.5 2.2 3.2-4.3-1.3-2.9 1.8-.8-3.3-4-2.1 3.8-.8.4-3.1 3.2 2.9z"/><path id="XMLID_284_" class="st12" d="M188.3 174.6l-5.5-2.2c.9 1.3 2 2.8 3.2 4.4.4-1.2 1.2-1.9 2.3-2.2z"/><path id="XMLID_285_" class="st13" d="M185.9 176.8c.4.5.7 1 1.1 1.5 1.2 1.5 2.4 3.2 3.7 5 2.4.3 4.7-.8 5.4-2.8.3-1 .2-1.9-.2-2.8-.7-1.2-2-2.3-3.7-2.8-1.5-.5-2.9-.6-4-.2-1 .2-1.8.9-2.3 2.1z"/><path id="XMLID_286_" d="M166.2 216.2v-.3c-5.5 12.8-12.8 27.7-12.8 27.7-1.1-9.9-7.1-17.5-10.5-24.6-.4-.9-1-1.9-1.6-2.9l-3.3 8.3s-.2.1-.5.3l4.7 30.5c5.7-.6 11.4-1.6 16.9-3 3.6-18.5 6.9-35.6 6.9-35.6.1-.1.1-.2.2-.4z" fill="#bdb0a0"/><path id="XMLID_289_" class="st15" d="M190.8 183.3c-1.3-1.8-2.5-3.5-3.7-5-.4-.5-.8-1-1.1-1.5-1.2-1.6-2.2-3-3.2-4.4-6.5-9.3-7.9-12.8-13.9-14.5l.6 3.6v-.2c3.7 1.1 7.4 24 2 41.1-1 3.3-3 8.2-5.3 13.5v.3c6.1-13.6 6.7-18.9 6.7-18.9l26.6 32.9 14.2-7.1c.6-.5 1.1-1 1.7-1.5-1.2-2-5.8-9.7-11.5-18.7-4.2-6.5-8.8-13.6-13.1-19.6zm16.3 33.6l-.3 1-1.3-.4s0-.6-.7-.8c-.7-.2-1-.2-1.1.1-.1.3.1.5.7.7.6.2 1 .3 1 .3l1 1.2-.4 1.3.9.3-.4 1.3-1.2-.4.1-.3-.6.2-2.8-.9-.4-.6-.1.4-1.4-.5.1-.4-.6.3-2.7-.9-.7-1.3 1.5-4.6 1.6.5s-.8 2.4-.9 2.9-.4 1.1.3 1.3c.7.2 1-.2 1-.4.1-.2 1.1-3.3 1.1-3.3l1.5.5-1.4 4.2.6.2.2-.7 1.3.4s-.2.5.4.7c.6.2 1.1.4 1.3 0 .1-.4-.6-.6-.9-.7l-.9-.3-.9-1 .6-1.7 1.3-.7 2.6.9.6 1.2z"/><path id="XMLID_290_" class="st16" d="M137.5 224.7c-1.1.6-4 2-9.5 2V256c4.8 0 9.5-.3 14.2-.8l-4.7-30.5z"/><path id="XMLID_291_" class="st17" d="M128 199.2v27.4c5.5 0 8.4-1.3 9.5-2 .3-.2.5-.3.5-.3l3.3-8.3c-4.4-7.1-13.3-16.8-13.3-16.8z"/><path id="XMLID_292_" class="st18" d="M155.7 181.4c-3.6 2.6-7.4 5.1-10.9 7.3-2.2 1.4-4.2 2.7-6.1 3.9-6.2 3.9-10.7 6.6-10.7 6.6s8.8 9.7 13.3 16.9c.6 1 1.2 2 1.6 2.9 3.4 7.1 9.3 14.7 10.5 24.6 0 0 7.3-14.9 12.8-27.7 2.3-5.2 4.2-10.1 5.3-13.5 5.4-17.2 1.6-40-2-41.1v.2c-.3 1.6-2.8 12.1-13.8 19.9z"/><path id="XMLID_293_" class="st19" d="M172.9 197.4s-.5 5.3-6.7 18.9c-.1.1-.1.3-.2.4 0 0-3.3 17.1-6.9 35.6 15.4-3.9 29.8-10.5 42.4-19.4l-2.1-2.6-26.5-32.9z"/><path id="XMLID_296_" d="M202.5 215.6l-.6 1.7.9 1 .9.3c.3.1 1 .2.9.7-.1.4-.7.2-1.3 0-.6-.2-.4-.7-.4-.7l-1.3-.4-.2.7-.6-.2 1.4-4.2-1.5-.5s-1 3.1-1.1 3.3c-.1.2-.3.6-1 .4-.7-.2-.5-.8-.3-1.3s.9-2.9.9-2.9l-1.6-.5-1.5 4.6.7 1.3 2.7.9.6-.3-.1.4 1.4.5.1-.4.4.6 2.8.9.6-.2-.1.3 1.2.4.4-1.3-.9-.3.4-1.3-1-1.2s-.4-.1-1-.3c-.6-.2-.8-.5-.7-.7.1-.3.4-.3 1.1-.1.7.2.7.8.7.8l1.3.4.3-1-.7-1.1-2.6-.9-1.2.6zm-3.1 3.7l-2.4-.8-.7-1.1 1.4-4.2 1.1.4-1 3c-.2.6.1 1.1.7 1.3s1.1-.1 1.3-.7l1-3 1 .3-1.4 4.2-1 .6zm7.4-2.4l-.3.8-1-.3s.1-.5-.7-.8-1.2-.2-1.4.2c-.1.4 0 .7.6.9.6.2 1.1.4 1.1.4l1 1.1-.5 1.5.9.3-.3.8-.9-.3.3-.8-1.1.5-2.4-.8-.7-1.1-.3.8-1-.3.3-.8 1 .3.2-.7 1 .3s-.2.5.3.7c.5.2.7.2.9.3.3.1.6.1.7-.3.1-.4 0-.6-.6-.8l-1.2-.4-.8-.9.5-1.5 1.1-.5 2.4.8.9.6z" fill="#a16f3d"/><path id="XMLID_298_" class="st21" d="M201.9 214.5l-1-.3-1 3c-.2.6-.7.9-1.3.7s-1-.7-.7-1.3 1-3 1-3l-1.1-.4-1.4 4.2.7 1.1 2.4.8 1.1-.6 1.3-4.2z"/><path id="XMLID_299_" transform="rotate(-161.823 200.85 219.353)" class="st21" d="M200.3 218.9h1.1v.8h-1.1z"/><path id="XMLID_301_" transform="rotate(108.18 205.97 221.04)" class="st21" d="M205.6 220.6h.8v.9h-.8z"/><path id="XMLID_302_" class="st21" d="M202.7 215.7l-.5 1.5.8.9 1.2.4c.6.2.7.4.6.8-.1.4-.5.4-.7.3-.3-.1-.4-.1-.9-.3-.5-.2-.3-.7-.3-.7l-1-.3-.2.7.7 1.1 2.4.8 1.1-.5.5-1.5-1-1.1s-.6-.2-1.1-.4c-.6-.2-.7-.5-.6-.9.1-.4.5-.4 1.4-.2s.7.8.7.8l1 .3.3-.8-.7-.9-2.4-.8-1.3.8z"/><path id="XMLID_303_" class="st13" d="M210 187.2l-3.3-.8-3.8.8z"/><path id="XMLID_304_" class="st13" d="M212.7 188.8l1.8-2.5-4.5.9z"/><path id="XMLID_305_" class="st13" d="M210 187.2l-3.1 2.1.8 3.3z"/><path id="XMLID_306_" class="st13" d="M210.3 186.2l-3.2-2.9 2.9 3.9z"/><path id="XMLID_307_" class="st13" d="M210 187.2l.6 3.6 4.3 1.2z"/><path id="XMLID_308_" class="st22" d="M210 187.2h-7.1l4 2.1z"/><path id="XMLID_309_" class="st22" d="M210 187.2l-2.3 5.4 2.9-1.8z"/><path id="XMLID_311_" class="st22" d="M210 187.2l4.9 4.8-2.2-3.2z"/><path id="XMLID_312_" class="st22" d="M206.7 186.4l3.3.8-2.9-3.9z"/><path id="XMLID_313_" class="st22" d="M214.5 186.3l-4.2-.1-.3 1z"/><path id="XMLID_314_" class="st13" d="M224.5 193.1l2.7 1.7 1.9-2.5z"/><path id="XMLID_315_" class="st13" d="M225.1 196.7l4.3 1.3-4.9-4.9z"/><path id="XMLID_316_" class="st13" d="M221.4 195.2l.8 3.3 2.3-5.4z"/><path id="XMLID_317_" class="st13" d="M224.5 193.1l.3-1-3.2-2.8z"/><path id="XMLID_318_" class="st13" d="M221.2 192.4l-3.8.7h7.1z"/><path id="XMLID_319_" class="st22" d="M217.4 193.1l4 2.1 3.1-2.1z"/><path id="XMLID_322_" class="st22" d="M222.2 198.5l2.9-1.8-.6-3.6z"/><path id="XMLID_323_" class="st22" d="M229.4 198l-2.2-3.2-2.7-1.7z"/><path id="XMLID_324_" class="st22" d="M221.2 192.4l3.3.7-2.9-3.8z"/><path id="XMLID_325_" class="st22" d="M224.5 193.1l4.6-.8-4.3-.2z"/><path id="XMLID_326_" class="st13" d="M236.4 196c0-.1.1-.1.1-.2l-.7-.6.6.8z"/><path id="XMLID_327_" class="st13" d="M234.5 199.1c.1-.2.3-.4.4-.7l-3.3.7h2.9z"/><path id="XMLID_329_" class="st22" d="M233.7 200.2c.2-.4.5-.7.7-1.1h-2.8l2.1 1.1z"/><path id="XMLID_330_" class="st22" d="M235.5 197.4c.3-.5.6-1 .9-1.4l-.6-.8-.3 2.2z"/><path id="XMLID_331_" class="st23" d="M30.7 211.2c3.1 3.6 6.4 7.1 10 10.4 1.2-2 5.8-9.7 11.5-18.7-6 2.1-13.7 5.1-21.5 8.3z"/><path id="XMLID_332_" class="st23" d="M42.3 223.1c3.8 3.5 7.9 6.7 12.2 9.7l2.1-2.6-14.3-7.1z"/><path id="XMLID_333_" class="st11" d="M70.1 176.8c1.2-1.6 2.2-3 3.2-4.4l-5.5 2.2c1 .3 1.8 1 2.3 2.2z"/><path id="XMLID_337_" class="st11" d="M65.2 183.3c-2.4.3-4.7-.8-5.4-2.8-.3-1-.2-1.9.2-2.8l-41.6 16.6c.3.5.7 1.1 1 1.6l.7-.6.3 2.2c.2.3.4.6.6 1l3.3.7-2.1 1.1c2.6 3.8 5.4 7.5 8.4 11 7.8-3.2 15.5-6.2 21.5-8.3 4.2-6.6 8.8-13.7 13.1-19.7zm-30.6 11.9l-.8 3.3-2.9-1.8-4.3 1.3 2.2-3.2-1.8-2.5 4.2-.2 3.2-2.8.4 3.1 3.8.8-4 2zm10.8-4.4l-4.3 1.3 2.2-3.2-1.8-2.5 4.2-.2 3.2-2.8.4 3.1 3.8.8-4 2.1-.8 3.3-2.9-1.9z"/><path id="XMLID_339_" class="st22" d="M67.7 174.6c-1.1-.4-2.5-.3-4 .2-1.7.6-3 1.6-3.7 2.8-.5.9-.6 1.8-.2 2.8.7 2 3 3.2 5.4 2.8 1.3-1.8 2.5-3.5 3.7-5 .4-.5.8-1 1.1-1.5-.4-1.1-1.2-1.8-2.3-2.1z"/><path id="XMLID_340_" class="st18" d="M118.5 224.7c-.3-.2-.5-.3-.5-.3l-3.3-8.3c-.6 1-1.2 2-1.6 2.9-3.4 7.1-9.3 14.7-10.5 24.6 0 0-7.3-14.9-12.8-27.7v.3c.1.1.1.3.2.4 0 0 3.3 17.1 6.9 35.6 5.5 1.4 11.1 2.4 16.9 3l4.7-30.5z"/><path id="XMLID_341_" class="st19" d="M83.1 197.4s.5 5.3 6.7 18.9v-.3c-2.3-5.2-4.2-10.1-5.3-13.5-5.4-17.2-1.6-40 2-41.1v.2l.6-3.6c-5.9 1.7-7.3 5.2-13.8 14.5-.9 1.3-2 2.8-3.2 4.4-.4.5-.7 1-1.1 1.5-1.2 1.5-2.4 3.2-3.7 5-4.3 6-9 13.1-13.1 19.6-5.7 8.9-10.3 16.7-11.5 18.7.5.5 1.1 1 1.7 1.5l14.2 7.1 26.5-32.9z"/><path id="XMLID_343_" class="st24" d="M128 239v-12.4c-5.5 0-8.4-1.3-9.5-2l-4.7 30.5c4.7.5 9.4.8 14.2.8V239z"/><path id="XMLID_344_" class="st16" d="M128 199.2s-8.8 9.7-13.3 16.9l3.3 8.3s.2.1.5.3c1.1.6 4 2 9.5 2v-27.5z"/><path id="XMLID_345_" class="st17" d="M128 199.2s-4.5-2.6-10.7-6.6c-1.9-1.2-4-2.5-6.1-3.9-3.5-2.3-7.2-4.8-10.8-7.3-11-7.8-13.5-18.3-13.8-19.9v-.2c-3.7 1.1-7.4 24-2 41.1 1 3.3 3 8.2 5.3 13.5 5.5 12.8 12.8 27.7 12.8 27.7 1.1-9.9 7.1-17.5 10.5-24.6.4-.9 1-1.9 1.6-2.9 4.3-7.2 13.2-16.9 13.2-16.9z"/><path id="XMLID_346_" class="st25" d="M89.8 216.2c-6.1-13.6-6.7-18.9-6.7-18.9l-26.6 32.9-2.1 2.6c12.7 8.9 27 15.5 42.4 19.4-3.6-18.5-6.9-35.6-6.9-35.6 0-.1 0-.2-.1-.4z"/><path id="XMLID_347_" class="st22" d="M46 187.2l-4.9 4.8 4.3-1.2z"/><path id="XMLID_348_" class="st22" d="M46 187.2h7.1l-3.8-.8z"/><path id="XMLID_349_" class="st22" d="M48.9 183.3l-3.2 2.9.3 1z"/><path id="XMLID_350_" class="st22" d="M46 187.2l-4.5-.9 1.8 2.5z"/><path id="XMLID_351_" class="st22" d="M46 187.2l2.3 5.4.8-3.3z"/><path id="XMLID_352_" class="st26" d="M46 187.2l3.1 2.1 4-2.1z"/><path id="XMLID_353_" class="st26" d="M46 187.2l-.6 3.6 2.9 1.8z"/><path id="XMLID_354_" class="st26" d="M46 187.2l-2.7 1.6-2.2 3.2z"/><path id="XMLID_355_" class="st26" d="M49.3 186.4l-.4-3.1-2.9 3.9z"/><path id="XMLID_356_" class="st26" d="M45.7 186.2l-4.2.1 4.5.9z"/><path id="XMLID_357_" class="st22" d="M33.8 198.5l.8-3.3-3.1-2.1z"/><path id="XMLID_358_" class="st22" d="M31.5 193.1l2.9-3.8-3.2 2.8z"/><path id="XMLID_359_" class="st22" d="M26.9 192.3l1.9 2.5 2.7-1.7z"/><path id="XMLID_360_" class="st22" d="M31.5 193.1h7.1l-3.8-.7z"/><path id="XMLID_361_" class="st22" d="M26.6 198l4.3-1.3.6-3.6z"/><path id="XMLID_362_" class="st26" d="M34.6 195.2l4-2.1h-7.1z"/><path id="XMLID_363_" class="st26" d="M30.9 196.7l2.9 1.8-2.3-5.4z"/><path id="XMLID_364_" class="st26" d="M28.8 194.8l-2.2 3.2 4.9-4.9z"/><path id="XMLID_365_" class="st26" d="M31.5 193.1l3.3-.7-.4-3.1z"/><path id="XMLID_366_" class="st26" d="M31.5 193.1l-.3-1-4.3.2z"/><path id="XMLID_367_" class="st22" d="M19.4 195.8c0 .1.1.1.1.2l.6-.8-.7.6z"/><path id="XMLID_368_" class="st22" d="M21.1 198.4c.1.2.3.4.4.7h2.8l-3.2-.7z"/><path id="XMLID_369_" class="st26" d="M21.5 199.1c.2.4.5.7.7 1.1l2.1-1.1h-2.8z"/><path id="XMLID_372_" class="st26" d="M20.2 195.2l-.6.8c.3.5.6 1 .9 1.4l-.3-2.2z"/><path id="XMLID_374_" class="st4" d="M136.3 96.3c.5 2.5 1.2 11 8.7 13.3 7.5 2.3 15.1.2 18.9-.7s5-2 5.9-5.4c.8-3.3.6-8.9-1.4-12.1-1-1.6-2.8-2.6-5.4-3.3-1 .1-1.9.2-2.9.3 3.9 1.9 4.5 3.7 4.5 3.7l-1.6.4 1.6 1.2s-.7.1-1.7-.1 0 1.6 0 1.6c-2.6-2-10.3-5.3-13.1-5.3s-11.1 1.7-11.1 1.7c-.3-.6-.5-1.2-.7-1.7h-1.5c-1 2.1-.5 4.9-.2 6.4z"/><path id="XMLID_373_" class="st27" d="M136.3 96.3c.5 2.5 1.2 11 8.7 13.3 7.5 2.3 15.1.2 18.9-.7s5-2 5.9-5.4c.8-3.3.6-8.9-1.4-12.1-1-1.6-2.8-2.6-5.4-3.3-1 .1-1.9.2-2.9.3 3.9 1.9 4.5 3.7 4.5 3.7l-1.6.4 1.6 1.2s-.7.1-1.7-.1 0 1.6 0 1.6c-2.6-2-10.3-5.3-13.1-5.3s-11.1 1.7-11.1 1.7c-.3-.6-.5-1.2-.7-1.7h-1.5c-1 2.1-.5 4.9-.2 6.4z"/><path id="XMLID_376_" class="st6" d="M149.8 89.8c2.8 0 10.4 3.2 13.1 5.3 0 0-1-1.8 0-1.6s1.7.1 1.7.1l-1.6-1.2 1.6-.4s-.6-1.8-4.5-3.7c-7.5.8-15.8 1.2-22 1.4.1.6.3 1.2.7 1.7-.1.1 8.3-1.6 11-1.6z"/><path id="XMLID_375_" class="st27" d="M149.8 89.8c2.8 0 10.4 3.2 13.1 5.3 0 0-1-1.8 0-1.6s1.7.1 1.7.1l-1.6-1.2 1.6-.4s-.6-1.8-4.5-3.7c-7.5.8-15.8 1.2-22 1.4.1.6.3 1.2.7 1.7-.1.1 8.3-1.6 11-1.6z"/><path id="XMLID_377_" d="M128 90.4v1.7c4.1 0 6 1.3 6 1.3s.1 2 1.4 6.7 3.3 9.3 10.3 11.2c6.9 1.9 20-.4 23.1-2 3.1-1.7 3.2-12.8 3.2-12.8h1.8v-3h-2.2s0-3.2-5.1-6c-1.1.2-2.3.4-3.6.5 2.5.7 4.4 1.8 5.4 3.3 2 3.2 2.3 8.7 1.4 12.1-.8 3.3-2 4.4-5.9 5.4s-11.4 3-18.9.7c-7.5-2.3-8.3-10.8-8.7-13.3-.3-1.5-.7-4.3.3-6.5h-2.1c-.5 1.1-.5 2-.5 2-2.5-1.7-5.9-1.3-5.9-1.3z" fill="#846559"/><path id="XMLID_380_" class="st2" d="M87.7 91.4c-2 3.2-2.3 8.7-1.4 12.1.8 3.3 2 4.4 5.9 5.4s11.4 3 18.9.7c7.5-2.3 8.3-10.8 8.7-13.3.3-1.5.7-4.3-.3-6.5H118c-.1.6-.3 1.2-.7 1.7 0 0-8.4-1.7-11.1-1.7S95.7 93 93.1 95.1c0 0 1-1.8 0-1.6s-1.7.1-1.7.1l1.6-1.2-1.6-.4s.6-1.8 4.5-3.7c-1-.1-1.9-.2-2.9-.3-2.5.8-4.4 1.8-5.3 3.4z"/><path id="XMLID_379_" class="st29" d="M87.7 91.4c-2 3.2-2.3 8.7-1.4 12.1.8 3.3 2 4.4 5.9 5.4s11.4 3 18.9.7c7.5-2.3 8.3-10.8 8.7-13.3.3-1.5.7-4.3-.3-6.5H118c-.1.6-.3 1.2-.7 1.7 0 0-8.4-1.7-11.1-1.7S95.7 93 93.1 95.1c0 0 1-1.8 0-1.6s-1.7.1-1.7.1l1.6-1.2-1.6-.4s.6-1.8 4.5-3.7c-1-.1-1.9-.2-2.9-.3-2.5.8-4.4 1.8-5.3 3.4z"/><path id="XMLID_382_" class="st10" d="M91.4 92.1l1.6.4-1.6 1.2s.7.1 1.7-.1 0 1.6 0 1.6c2.6-2 10.3-5.3 13.1-5.3s11.1 1.7 11.1 1.7c.3-.6.5-1.2.7-1.7-6.3-.2-14.5-.6-22-1.4-4 1.8-4.6 3.6-4.6 3.6z"/><path id="XMLID_381_" class="st29" d="M91.4 92.1l1.6.4-1.6 1.2s.7.1 1.7-.1 0 1.6 0 1.6c2.6-2 10.3-5.3 13.1-5.3s11.1 1.7 11.1 1.7c.3-.6.5-1.2.7-1.7-6.3-.2-14.5-.6-22-1.4-4 1.8-4.6 3.6-4.6 3.6z"/><path id="XMLID_383_" d="M119.4 89.8c1 2.2.6 5 .3 6.5-.5 2.5-1.2 11-8.7 13.3-7.5 2.3-15.1.2-18.9-.7s-5-2-5.9-5.4c-.8-3.3-.6-8.9 1.4-12.1 1-1.6 2.8-2.6 5.3-3.3-1.2-.2-2.4-.3-3.6-.5-5.1 2.7-5.1 6-5.1 6H82v3h2s.1 11.1 3.2 12.8c3.1 1.7 16.2 3.9 23.1 2 6.9-1.9 9-6.6 10.3-11.2s1.4-6.7 1.4-6.7 1.9-1.3 6-1.3v-1.7s-3.3-.4-5.9 1.4c0 0-.1-.9-.5-2-.7-.1-1.4-.1-2.2-.1z" fill="#6d5449"/><path id="XMLID_384_" class="st12" d="M187 64.8h-59v25.1c.4 0 2.8 0 6.4-.1h3.6c6.3-.2 14.5-.6 22-1.4 1-.1 2-.2 2.9-.3 1.2-.2 2.4-.3 3.6-.5 4.6-.7 8.4-1.7 10.6-2.9.1-.1.3-.2.4-.2 3.5-2.2 6.6-4.5 8.8-7 3-3.4 4.3-7.2 2.4-11.6-.2-.6-.5-1.1-.9-1.7-.3.3-.8.6-.8.6z"/><path id="XMLID_386_" class="st12" d="M205.9 42.3c-1 1-2 1.9-3.1 2.8l.3.2c-.1 0 1.1-1 2.8-3z"/><path id="XMLID_387_" class="st11" d="M129.3.5s2.4.1 2.1 2.9c0 0 1.2.3 1.6.8 0 0 0-1.1 1-1.7 0 0-.5-1.1-2.2-1.4l-.1-.4.4-.6h-2.9s-.1.1.1.4z"/><path id="XMLID_388_" class="st11" d="M131.5 7.1l.9.7s1.6.3 2.3-.1c.7-.4 1.5-.9 1.5-2s-.5-1.4-.7-2.3c0 0-.8.3-.8 1.4 0 1.1-1.2 1.3-1.2 1.3s-1.5.6-1.6 0 .2-.7-.6-1.1l-.5 1c.1.1.7.7.7 1.1z"/><path id="XMLID_389_" class="st11" d="M135 1.5c.3.1 1.2.3 1.2.3l1.4-1.4c-.7 0-1.3-.1-2-.1-1.2.9-.9 1.2-.6 1.2z"/><path id="XMLID_390_" class="st11" d="M128 54.6v10.2h59s.4-.3.9-.7c.3-.3.6-.5.8-.8.3-.4.5-.7.3-1-.1-.1-.2-.5-.4-.9-.2-.6-.3-1.3-.5-2.1-3.7-1-20.4-4.7-60.1-4.7z"/><path id="XMLID_391_" class="st11" d="M140.8 17.5s.1-3.9 0-3.9h-.4l.4-1.5-.7-.2s.9 1.2-1 .9c0 0 .6 1.2-1.3.6 0 0 .4 1.1-1.2.6 0 0 .1 1.1-1.3.4 0 0 .3 1.1-1.5.5 0 0 3.5 2.4 3.3 3.5 0 0 1.4.4 2 .2 0-.1.7-1.6 1.7-1.1z"/><path id="XMLID_393_" class="st11" d="M145.2 2.4s1.7.1.3 1.3c0 0 1.5.5-.7 1.5 0 0 1.7.5-.1 1.4l.3.2.7-.5.2 1 1.5-1.6.3.3.1 1.9.4-.3-.1 2 .6-.4-.6 2.2.4-.1-1.1 2.5-.4-.2-4.3 4.5s1.2.5.1 1.2c0 0 .4 1-.9 1.2 0 0 .2.6-.4.9l.2.3-.1 2.7-.6-.3v.3l-.6-.1v.6l-.7-.5-.2.5-.5-.4-.4.1-.4-.6-.3.3-.7-.3.3-.5-1.3-.2v-.5l1.6-2.1 1.1-.1.2-.7s-1.6-.5-3.7-.3c0 0-.3.3-1.2.2-.9-.1-3.4-.6-3.4-.6l-.2.5s2.4 1.9 2.9 2.5.5 1.1.1 1.4c-.4.3-.8 0-.8 0s.5.7.1 1.1c-.4.4-1.3-.2-1.3-.2s.4 1-.1 1.3c-.4.3-1.3-.3-1.3-.3s.2 1-.4 1.1c-.6.1-1.1.1-1.6-1 0 0 .2 1.3-.5 1.4v.7c1.2 0 43.8-1.2 60.2 17.8l-.9 3.4c2.1.7 3.8 1.5 5.2 2.3l-.6 1.4c3.1-1.7 7.2-4.3 10.9-7.3 1.1-.9 2.2-1.9 3.1-2.8 1.1-1.1 2.1-2.2 2.9-3.4 1.5-2.1 2.8-4.5 3.6-7.2C193.9 15.9 171 5 145.9 1.4c.4.1.3.4-.7 1z"/><path id="XMLID_394_" class="st15" d="M128 43c1.1 0 41.4-.2 59.3 5.8l.9-3.4c-16.4-19-59-17.8-60.2-17.8V43z"/><path id="XMLID_395_" class="st24" d="M128 43v11.6c39.7 0 56.4 3.7 60.2 4.7.2 0 .3.1.4.1.3.1.5.1.5.1l2.8-7 .6-1.4c-1.4-.9-3.1-1.6-5.2-2.3-18-6-58.2-5.8-59.3-5.8z"/><path id="XMLID_398_" d="M128 26.9c.6 0 .5-1.4.5-1.4.5 1.1 1 1.1 1.6 1 .6-.1.4-1.1.4-1.1s.9.6 1.3.3.1-1.3.1-1.3.8.7 1.3.2c.4-.4-.1-1.1-.1-1.1s.5.3.8 0c.4-.3.4-.8-.1-1.4s-2.9-2.5-2.9-2.5l.2-.5s2.5.5 3.4.6c.9.1 1.2-.2 1.2-.2 2.1-.2 3.7.3 3.7.3l-.2.7-1.1.1-1.6 2.1v.5l1.3.2-.3.5.7.3.3-.3.4.6.4-.1.5.4.2-.5.7.5v-.6l.6.1V24l.6.3.1-2.7-.2-.3c.6-.3.4-.9.4-.9 1.3-.2.9-1.2.9-1.2 1.1-.7-.1-1.2-.1-1.2l4.3-4.5.4.2 1.1-2.5-.4.1.6-2.2-.6.4.1-2-.4.3-.4-1.8-.3-.3-1.5 1.6-.2-1-.7.5-.3-.2c1.8-.9.1-1.4.1-1.4 2.2-1 .7-1.5.7-1.5 1.4-1.2-.3-1.3-.3-1.3 1.1-.6 1.1-1 .9-1.1-2.8-.4-5.6-.7-8.5-.9l-1.4 1.4s-.9-.2-1.2-.3c-.3-.1-.6-.3.6-1.3-1.2-.1-2.3-.1-3.5-.2l-.4.6.1.4c1.7.3 2.2 1.4 2.2 1.4-1.1.6-1 1.7-1 1.7-.3-.5-1.6-.8-1.6-.8.3-2.8-2.1-2.9-2.1-2.9-.2-.3 0-.4 0-.4h.7-2v26.9zm11.1-8.4c-.6.2-2-.2-2-.2.2-1.1-3.3-3.5-3.3-3.5 1.7.7 1.5-.5 1.5-.5 1.4.7 1.3-.4 1.3-.4 1.6.5 1.2-.6 1.2-.6 1.9.6 1.3-.6 1.3-.6 1.8.3 1-.9 1-.9l.7.2-.4 1.5h.4c.1 0 0 3.9 0 3.9-1-.4-1.7 1.1-1.7 1.1zm-7.7-13.4c.7.4.4.5.6 1.1s1.6 0 1.6 0 1.2-.2 1.2-1.3.8-1.4.8-1.4c.1.9.7 1.3.7 2.3s-.8 1.6-1.5 2c-.7.4-2.3.1-2.3.1l-.9-.7c0-.4-.6-1-.6-1l.4-1.1z" fill="#d1a966"/><path id="XMLID_401_" class="st11" d="M78.3 84.3c.1.1.3.2.5.3 2.3 1.2 6.1 2.2 10.6 2.9 1.1.2 2.3.4 3.6.5.9.1 1.9.2 2.9.3 7.5.8 15.8 1.2 22 1.4h3.6c3.8.1 6.2.1 6.4.1V64.7h-59s-.4-.3-.9-.7c-.3.5-.6 1.1-.8 1.6-1.9 4.5-.6 8.3 2.4 11.8 2.2 2.5 5.3 4.8 8.7 6.9z"/><path id="XMLID_402_" class="st11" d="M52.9 45.3l.3-.2c-1.1-.9-2.2-1.9-3.1-2.8 1.6 2 2.8 3 2.8 3z"/><path id="XMLID_403_" class="st15" d="M119.7 1.8s.9-.2 1.2-.3c.3-.1.6-.3-.6-1.3-.7 0-1.3.1-2 .1.8.8 1.4 1.5 1.4 1.5z"/><path id="XMLID_404_" class="st15" d="M124.1 1.1c-1.7.3-2.2 1.4-2.2 1.4 1.1.6 1 1.7 1 1.7.3-.5 1.6-.8 1.6-.8-.3-2.8 2.1-2.9 2.1-2.9.2-.3 0-.4 0-.4h-.7c-.7 0-1.4 0-2.2.1l.4.6v.3z"/><path id="XMLID_405_" class="st15" d="M50 42.3c1 1 2 1.9 3.1 2.8 3.7 3 7.8 5.6 10.9 7.3l-.6-1.4c1.4-.9 3.1-1.6 5.2-2.3l-.9-3.4C84.4 26.1 128 27.6 128 27.6v-.7c-.7 0-.5-1.4-.5-1.4-.5 1.1-1 1.1-1.6 1-.6-.1-.4-1.1-.4-1.1s-.9.6-1.3.3-.1-1.3-.1-1.3-.8.7-1.3.2c-.4-.4.1-1.1.1-1.1s-.5.3-.8 0c-.4-.3-.4-.8.1-1.4s2.9-2.5 2.9-2.5l-.2-.5s-2.5.5-3.4.6-1.2-.2-1.2-.2c-2.1-.2-3.7.3-3.7.3l.2.7 1.1.1 1.6 2.1v.5l-1.3.2.3.5-.7.3-.3-.3-.4.6-.4-.1-.5.4-.2-.5-.7.5v-.6l-.6.1V24l-.6.3-.1-2.7.2-.3c-.6-.3-.4-.9-.4-.9-1.3-.2-.9-1.2-.9-1.2-1.1-.7.1-1.2.1-1.2l-4.3-4.5-.4.2-1.1-2.5.4.1-.6-2.2.6.4-.1-2 .4.3.1-1.9.3-.3 1.5 1.6.2-1 .7.5.3-.2c-1.8-.9-.1-1.4-.1-1.4-2.2-1-.7-1.5-.7-1.5-1.4-1.2.3-1.3.3-1.3-1-.6-1.1-.9-.9-1.1-25.2 3.6-48 14.5-66.2 30.5.7 2.6 2 5 3.5 7.1 1 1.3 2 2.4 3.1 3.5z"/><path id="XMLID_406_" class="st15" d="M121.2 7.7c.7.4 2.3.1 2.3.1l.9-.7c0-.4.6-1 .6-1l-.5-1c-.7.4-.4.5-.6 1.1s-1.6 0-1.6 0-1.2-.2-1.2-1.3-.8-1.4-.8-1.4c-.1.9-.7 1.3-.7 2.3s.9 1.5 1.6 1.9z"/><path id="XMLID_407_" class="st15" d="M68 64.1c.5.4.9.7.9.7h59V54.6c-39.7 0-56.4 3.7-60.2 4.7-.2.7-.3 1.3-.5 1.9-.2.6-.3 1-.4 1.1-.2.2 0 .6.4 1 .2.3.5.5.8.8z"/><path id="XMLID_408_" class="st15" d="M120.6 14.4c-1.4.7-1.3-.4-1.3-.4-1.6.5-1.2-.6-1.2-.6-1.9.6-1.3-.6-1.3-.6-1.8.3-1-.9-1-.9l-.7.2.4 1.5h-.4c-.1 0 0 3.9 0 3.9.9-.5 1.7 1.1 1.7 1.1.6.2 2-.2 2-.2-.2-1.1 3.3-3.5 3.3-3.5-1.8.6-1.5-.5-1.5-.5z"/><path id="XMLID_409_" class="st25" d="M128 43V27.6s-43.6-1.5-60.2 17.8l.9 3.4C86.8 42.7 128 43 128 43z"/><path id="XMLID_410_" d="M128 54.6V43s-41.1-.3-59.3 5.8c-2.1.7-3.8 1.5-5.2 2.3l.6 1.4 2.8 7s.2-.1.5-.2c.1 0 .2-.1.4-.1 3.7-.9 20.4-4.6 60.2-4.6z" fill="#62584a"/><path id="XMLID_413_" d="M110.7 2.4s-1.7.1-.3 1.3c0 0-1.5.5.7 1.5 0 0-1.7.5.1 1.4l-.2.2-.7-.5-.2 1-1.5-1.6-.4.3-.1 1.9-.4-.3.1 2-.6-.4.6 2.2-.4-.1 1.1 2.5.4-.2 4.3 4.5s-1.2.5-.1 1.2c0 0-.4 1 .9 1.2 0 0-.2.6.4.9l-.2.3.1 2.7.6-.3v.3l.6-.1v.6l.7-.5.2.5.5-.4.4.1.4-.6.3.3.7-.3-.3-.5 1.3-.2v-.5l-1.6-2.1-1.1-.1-.2-.7s1.6-.5 3.7-.3c0 0 .3.3 1.2.2s3.4-.6 3.4-.6l.2.5s-2.4 1.9-2.9 2.5-.5 1.1-.1 1.4c.4.3.8 0 .8 0s-.5.7-.1 1.1c.4.4 1.3-.2 1.3-.2s-.4 1 .1 1.3c.4.3 1.3-.3 1.3-.3s-.2 1 .4 1.1c.6.1 1.1.1 1.6-1 0 0-.2 1.4.5 1.4V0h-2 .7s.2.1 0 .4c0 0-2.4.1-2.1 2.9 0 0-1.2.3-1.6.8 0 0 0-1.1-1-1.7 0 0 .5-1.1 2.2-1.4l.1-.4-.4-.6c-1.2 0-2.3.1-3.5.2 1.2.9.9 1.2.6 1.3-.3.1-1.2.3-1.2.3L118.6.4c-2.9.2-5.7.5-8.5.9-.5.2-.4.5.6 1.1zm8.1 16s-1.4.4-2 .2c0 0-.7-1.5-1.7-1.1 0 0-.1-3.9 0-3.9h.4l-.4-1.5.7-.2s-.9 1.2 1 .9c0 0-.6 1.2 1.3.6 0 0-.4 1.1 1.2.6 0 0-.1 1.1 1.3.4 0 0-.3 1.1 1.5.5 0 0-3.6 2.4-3.3 3.5zm1.6-15s.8.3.8 1.4 1.2 1.3 1.2 1.3 1.5.6 1.6 0-.2-.7.6-1.1l.5 1s-.6.6-.6 1l-.9.7s-1.6.3-2.3-.1c-.7-.4-1.5-.9-1.5-2s.4-1.3.6-2.2z" fill="#a88a52"/></g></g></svg>