<svg id="Layer_1" xmlns="http://www.w3.org/2000/svg" width="256" height="256"><style>.st1{fill:#c08c76}.st3{fill:#d8aa91}.st4{fill:#b8927d}.st5{fill:#d6d4d4}.st9{fill:#b27d6b}.st11{fill:#a1806e}.st12{fill:#a0a0a1}.st17{fill:#7b6c60}.st18{fill:#665a4f}.st19{fill:#1e4354}.st20{fill:#223a3d}.st21{fill:#2a4a5e}.st25{fill:#f8e9af}.st26{fill:#fbd490}.st27{fill:#d6c990}.st28{fill:#50636c}.st29{fill:#687e89}</style><g id="XMLID_4_"><circle id="XMLID_110_" cx="128" cy="128" r="128" fill="#b2b4b5"/><g id="XMLID_3_"><path id="XMLID_224_" class="st1" d="M156.4 168c-.2.1-.4.2-.7.3-1.5.7-3.8 2-3.8 2-.8.6-1.9 1.6-3.5 2.9-1.6 1.3-4.2 2.3-6.9 2.9l5.3 20c9.1-10.6 17.2-23.2 17.2-23.2s2.8-13.7 3.5-23.3c-1 3.3-1.9 6.2-2.6 8.3-2 6.2-5.9 8.9-8.5 10.1z"/><path id="XMLID_225_" class="st1" d="M130.3 192.6c.7 0 1.3.6 1.3 1.3v1.5h1.5c.7 0 1.3.6 1.3 1.3v2.1c0 .7-.6 1.3-1.3 1.3h-1.5v2.8h2.9c.9 0 1.5.8 1.3 1.7l-.6 2.7c1.3-.9 2.6-2 3.9-3.2.5-6.9-1.6-19.7-2.9-26.9-4.3.6-7.9.7-8.3.7v14.9h2.4z"/><path id="XMLID_226_" d="M139.2 203.9c2.5-2.3 5.1-5 7.6-7.9l-5.3-20c-1.7.4-3.5.7-5.2 1 1.3 7.2 3.4 20 2.9 26.9z" fill="#a87b67"/><path id="XMLID_227_" class="st1" d="M183.9 80.9c-.8 2.5 1.5 7.3 1.5 7.3l-1.9-.5.6 4.3-2.1-1.9s-.3 5.3-.8 7.9c-.3 1.6-1.3 4.5-2 6.5-.4 2.2-.7 4.2-1 5.9-.6 3.6-2 9.3-3.8 15.5 6.1 1.7 7.8-5.1 9.6-10.4 2.1-6.1 1.6-14.5.8-19.5s1.9-5.3 1.4-13.4c-.1-.9-.3-1.6-.6-2.1s-1.1-1.1-1.7.4z"/><path id="XMLID_228_" class="st3" d="M138.4 91c-.5.3-.9.6-1.3.9.4-.3.9-.6 1.3-.9z"/><path id="XMLID_230_" class="st3" d="M159 87.6c-.3 0-.6 0-.9-.1.3 0 .6.1.9.1z"/><path id="XMLID_231_" class="st3" d="M145.8 69.7c6.1-2.7 15.5 0 15.5 0s-10.9-.9-13.3.8c-2.4 1.6-11.5 3.9-20.1 3.9v3.9c.7 0 12-.1 17.8-2.7 6.1-2.7 15.5 0 15.5 0s-10.9-.9-13.3.8c-2.4 1.6-11.5 3.9-20.1 3.9V86H150c3.3-.8 5.8-.5 7.6 0h3.9c4.9 0 9.3 1.4 10.1 5.3h5.5c.4-1.9.9-4.4.4-5.3-.8-1.4-2-6.4-2-6.4s2.7-13.5 1.8-19.6c-1-6.1-6.5-17.6-11.2-23.9-4.6-6.4-11.5-8.9-19-5.9-7.3 2.9-18.6 5.7-19.3 5.9v36.6c.9-.3 12.1-.3 18-3z"/><path id="XMLID_232_" class="st3" d="M159 113.7c.3 0 .5 0 .8-.1-.3.1-.6.1-.8.1z"/><path id="XMLID_233_" class="st3" d="M167.8 107.9c.7-1 1.3-2 1.7-2.9.3-.7.5-1.4.7-2.3-.2.8-.4 1.6-.7 2.3-.4.9-1 1.9-1.7 2.9z"/><path id="XMLID_234_" class="st3" d="M127.9 93.5c.3 0 1.9-.1 4.1 1.1 0 0 2.7-4.4 5.9-6.1 0-.2 0-.3.1-.5h-10v5.5z"/><path id="XMLID_235_" class="st3" d="M156.4 168l-.6.3c.1-.1.3-.2.6-.3z"/><path id="XMLID_238_" class="st3" d="M179.3 104.5c-.4 1.2-.8 2.1-.8 2.1V98l-1.3 1.5c-.5-3.1 1.3-7.4 1.3-7.4l-1.1.7v.6h-5.5s1.7 11.1-2 15.4c-3.7 4.3-6 6.9-14.7 6.9s-13.9 0-18.1-7.7c-4.2-7.7-6-12.1-6-12.1s-1.2-.7-3.1-.7v39.2c.4 0 6 .3 9.4-3.7 0 0 4.3-.1 6.7 1.9v-.7s3.2 1.2 4.1 1.8 1.1-1.4 1-3c0 0 1 4.2 1.9 5.6 1 1.4 1.7 3.8 1.7 3.8l-1.6-.6s1 1.6 1 1.9c0 .4-1.7 0-1.7 0v2.4s-3.6-1.4-4.9-2.6c-1.3-1.2-1 1.3-1 1.3l-3.4-1.4s-.1 2.2-1.7 1.6c-1.6-.6-3.7-.8-5-.2-1.3.6-2 1.4-6.5 1.4v33.8c.4 0 4-.1 8.3-.7 1.7-.2 3.5-.5 5.2-1 2.8-.7 5.3-1.6 6.9-2.9 1.6-1.3 2.8-2.3 3.5-2.9 0 0 3.8-7.3 3.1-11.7-.7-4.4-1.5-8.3-1.5-8.3s4.3 10.1 1.6 17c0 0 3.5-4 5.4-8.4 0 0-2.7 8.6-4.1 9.1 2.7-1.2 6.6-3.9 8.5-10.2.7-2.1 1.6-5 2.6-8.3 2.1-6.9 4.8-15.7 7.1-23.6 1.8-6.3 3.2-11.9 3.8-15.5.2-1.6.5-3.6.9-5.8zm-29.9 26c-2.4-3.5-6.5-9.8-10.4-11 0 0 6.4 1.7 10.9 9.1s7 9.7 7.7 15.7c.1 0-5.4-9.7-8.2-13.8z"/><path id="XMLID_239_" class="st4" d="M155.7 168.2c.2-.1.5-.2.6-.3 1.4-.5 4.1-9.1 4.1-9.1-1.9 4.4-5.4 8.4-5.4 8.4 2.7-6.9-1.6-17-1.6-17s.8 3.8 1.5 8.3c.7 4.4-3.1 11.7-3.1 11.7.1 0 2.4-1.3 3.9-2z"/><path id="XMLID_241_" class="st5" d="M132.6 10.1l-2.9 6.2c3.1-1.9 7.2-6.2 7.2-6.2l-1.5 6.7L139 13c1.7-1.9 7.2-1 7.2-1l-1.5 5c2.2-2.6 6.2-2.6 6.2-2.6s13.2 2.8 23 19.2c-8-6-17.5-7.7-17.5-7.7h-6.9l2.4-2.4c-2.2 0-7.7 3.4-7.7 3.4v-1.7l-5.7 2.4v-2.4l-6.2 4.2 1.9-4.2c-3.4 2.2-5.9 7.6-6.3 8.3v2.4c.7-.2 12-3 19.3-5.9 7.5-3 14.4-.5 19 5.9s10.2 17.9 11.2 23.9c1 6.1-1.8 19.6-1.8 19.6s1.2 5 2 6.4c.5.9 0 3.4-.4 5.3h.3v1.6l1.1-.7s-1.8 4.4-1.3 7.4l1.3-1.5v8.6s.3-.9.8-2.1c.7-2 1.7-4.9 2-6.5.5-2.6.8-7.9.8-7.9l2.1 1.9-.6-4.3 1.9.5s-2.3-4.8-1.5-7.3c.5-1.6 1.3-1 1.9-.5 0-2.1 3.1-12.9 2.9-14.8-.2-1.9.6-10.9-3.5-17.6-4.2-6.7-7.3-13.9-10.7-18-3.4-4.1-15.5-21.7-46.6-21.7v6.9l4.5-5z"/><path id="XMLID_242_" class="st4" d="M148 70.5c2.4-1.6 13.3-.8 13.3-.8s-9.4-2.7-15.5 0c-5.9 2.6-17.1 2.7-17.8 2.7v1.9c8.6 0 17.6-2.2 20-3.8z"/><path id="XMLID_243_" class="st4" d="M148 76.3c2.4-1.6 13.3-.8 13.3-.8s-9.4-2.7-15.5 0c-5.9 2.6-17.1 2.7-17.8 2.7v1.9c8.6.1 17.6-2.1 20-3.8z"/><path id="XMLID_244_" class="st5" d="M134.5 142.5c1.3-.6 3.5-.4 5 .2 1.6.6 1.7-1.6 1.7-1.6l3.4 1.4s-.4-2.5 1-1.3c1.3 1.2 4.9 2.6 4.9 2.6v-2.4s1.7.4 1.7 0-1-1.9-1-1.9l1.6.6s-.7-2.4-1.7-3.8-1.9-5.6-1.9-5.6c.1 1.6-.1 3.6-1 3s-4.1-1.8-4.1-1.8v.7c-2.4-2-6.7-1.9-6.7-1.9-3.4 4.1-9 3.7-9.4 3.7v9.5c4.5 0 5.1-.8 6.5-1.4z"/><path id="XMLID_245_" class="st4" d="M149.9 128.6c-4.6-7.4-10.9-9.1-10.9-9.1 3.8 1.2 8 7.5 10.4 11 2.8 4.1 8.3 13.8 8.3 13.8-.7-6-3.2-8.3-7.8-15.7z"/><path id="XMLID_246_" d="M127.9 21.3v12.1c.3-.7 2.9-6.1 6.3-8.3l-1.9 4.2 6.2-4.2v2.4l5.7-2.4v1.7s5.5-3.4 7.7-3.4l-2.4 2.4h6.9s9.5 1.7 17.5 7.7c-9.8-16.4-23-19.2-23-19.2s-4 0-6.2 2.6l1.5-5s-5.5-1-7.2 1l-3.6 3.8 1.5-6.7s-4.1 4.3-7.2 6.2l2.9-6.2-4.6 5.2v6.1z" fill="#b0b0b0"/><path id="XMLID_247_" class="st5" d="M138.9 88h-.9c0 .1-.1.3-.1.5.3-.2.6-.4 1-.5z"/><path id="XMLID_248_" class="st5" d="M158.1 87.5c-1.5-.1-3.1-.1-4.6-.1 1.5 0 3.1 0 4.6.1z"/><path id="XMLID_249_" class="st5" d="M139.5 90.4c-.3.2-.7.4-1 .6.3-.2.6-.4 1-.6z"/><path id="XMLID_250_" class="st5" d="M150.1 85.8h7.6c-1.8-.5-4.3-.7-7.6 0z"/><path id="XMLID_251_" class="st5" d="M143.3 88.8c.4-.1.9-.2 1.4-.3-.6.1-1 .2-1.4.3z"/><path id="XMLID_252_" class="st5" d="M145 88.4l1.5-.3-1.5.3z"/><path id="XMLID_254_" class="st5" d="M150.3 87.6c.5 0 .9-.1 1.3-.1-.3.1-.8.1-1.3.1z"/><path id="XMLID_255_" class="st5" d="M140.3 89.9c.4-.2.8-.4 1.1-.5-.3.1-.7.3-1.1.5z"/><path id="XMLID_259_" d="M137.1 108.1c4.2 7.7 9.3 7.7 18.1 7.7s11-2.6 14.7-6.9c3.7-4.3 2-15.4 2-15.4h5.5v-2.2h-5.8c-.7-3.8-5.1-5.3-10.1-5.3h-33.7v2h10.9c-.3.1-.6.3-1 .5-3.2 1.8-5.9 6.1-5.9 6.1-2.2-1.2-3.8-1.1-4.1-1.1v1.8c1.9 0 3.1.7 3.1.7s2.1 4.5 6.3 12.1zm-2.1-14c.1-.2.3-.4.4-.6.5-.5 1-1.1 1.7-1.6.4-.3.9-.7 1.3-.9.4-.2.7-.4 1-.6.3-.2.6-.3.9-.5.4-.2.8-.4 1.1-.5.2-.1.3-.1.4-.2.1-.1.3-.1.3-.1.3-.1.7-.2 1-.3.4-.1.9-.2 1.4-.3.1 0 .2-.1.4-.1l1.5-.3c.4-.1.8-.1 1.2-.2.9-.1 1.7-.2 2.4-.3h.2c.5 0 .9-.1 1.3-.1 1.1-.1 1.8-.1 1.8-.1 1.6 0 3.1 0 4.6.1.3 0 .6 0 .9.1 5.4.4 9.9 1.4 10.7 3.7 1.1 3 1.3 7.8.5 11.4-.2.8-.4 1.6-.7 2.3-.4.9-1 1.9-1.7 2.9-.2.2-.4.5-.6.7-.4.5-.8 1-1.3 1.4l-.7.7c-1.2 1.1-2.5 2-3.9 2.5-.5.2-1.1.4-1.6.4-.3 0-.5.1-.8.1h-7.8c-5.5 0-8.5-1.8-11.3-5.4-2.8-3.6-5.5-8.6-5.5-12.6.3-.5.6-1 .9-1.6z" fill="#907047"/><path id="XMLID_260_" d="M151.2 113.7h7.8c.3 0 .5 0 .8-.1.5-.1 1.1-.2 1.6-.4 1.3-.5 2.7-1.4 3.9-2.5.2-.2.5-.4.7-.7.5-.5.9-.9 1.3-1.4.2-.2.4-.5.6-.7.7-1 1.3-2 1.7-2.9.3-.7.5-1.4.7-2.3.8-3.6.6-8.4-.5-11.4-.8-2.3-5.4-3.3-10.7-3.7-.3 0-.6 0-.9-.1-1.5-.1-3.1-.1-4.6-.1 0 0-.7 0-1.8.1-.4 0-.8.1-1.3.1h-.2c-.7.1-1.6.2-2.4.3-.4.1-.8.1-1.2.2l-1.5.3c-.1 0-.3.1-.4.1-.5.1-.9.2-1.4.3-.4.1-.7.2-1 .3-.1 0-.2.1-.3.1-.1.1-.3.1-.4.2-.3.1-.7.3-1.1.5-.3.1-.6.3-.9.5-.3.2-.7.4-1 .6-.5.3-.9.6-1.3.9-.6.5-1.2 1-1.7 1.6-.2.2-.3.4-.4.6-.4.6-.6 1.1-.6 1.7 0 4 2.8 9 5.5 12.6 2.5 3.6 5.5 5.3 11 5.3z" opacity=".8" fill="#51413b"/><path id="XMLID_261_" class="st9" d="M88.4 149.5c0 .1 0 .1 0 0z"/><path id="XMLID_262_" class="st9" d="M116.7 203.8c2 1.9 4 3.4 5.9 4.6l-.9-3.9c-.2-.9.5-1.7 1.4-1.7h2.9V200h-1.5c-.7 0-1.3-.6-1.3-1.3v-2.1c0-.7.6-1.3 1.3-1.3h1.5v-1.5c0-.7.6-1.3 1.3-1.3h.7v-14.9s-3.8-.1-8.3-.7c-1.4 7.3-3.5 19.9-3 26.9z"/><path id="XMLID_263_" class="st9" d="M114.4 176.1c-2.8-.7-5.3-1.6-6.9-2.9-1.6-1.3-2.8-2.3-3.5-2.9 0 0-2.3-1.3-3.8-2l-.6-.3c-2.7-1.2-6.6-3.9-8.5-10.2-.6-2-1.4-4.6-2.4-7.6.8 9.6 3.5 22.6 3.5 22.6s8 12.5 17.1 23.1l5.1-19.8z"/><path id="XMLID_264_" d="M116.7 203.8c-.5-7 1.6-19.6 2.9-26.8-1.7-.2-3.5-.5-5.2-1l-5.2 19.8c2.4 3 5 5.7 7.5 8z" fill="#906958"/><path id="XMLID_265_" class="st9" d="M76.6 104.5c-.7-2-1.7-4.9-2-6.5-.5-2.6-.8-7.9-.8-7.9L71.7 92l.6-4.3-1.9.5s2.3-4.8 1.5-7.3c-.5-1.6-1.3-1-1.9-.5-.3.5-.5 1.2-.6 2.1-.5 8.1 2.2 8.5 1.4 13.4s-1.3 13.4.8 19.5c1.8 5.4 3.5 12.2 9.6 10.4-1.8-6.3-3.2-11.9-3.8-15.5-.1-1.6-.4-3.6-.8-5.8z"/><path id="XMLID_266_" class="st1" d="M84.2 91.1c.7-3.8 5.1-5.3 10.1-5.3h3.9c1.8-.5 4.3-.8 7.6 0h22.3v-5.7c-8.6 0-17.7-2.2-20.1-3.9-2.4-1.6-13.3-.8-13.3-.8s9.4-2.7 15.5 0 17.9 2.7 17.9 2.7v-3.9c-8.6 0-17.7-2.2-20.1-3.9-2.4-1.6-13.3-.8-13.3-.8s9.4-2.7 15.5 0 17.9 2.7 17.9 2.7V35.8s-11.8-2.9-19.3-5.9-14.4-.5-19 5.9c-4.8 6.4-10.4 17.9-11.4 24-1 6.1 1.8 19.6 1.8 19.6s-1.2 5-2 6.4c-.5.9 0 3.4.4 5.3h5.6z"/><path id="XMLID_267_" class="st1" d="M85.6 102.7c.2.8.4 1.6.7 2.3.4.9 1 1.9 1.7 2.9-.7-1-1.3-2-1.7-2.9-.3-.7-.5-1.4-.7-2.3z"/><path id="XMLID_269_" class="st1" d="M96.9 113.7c-.3 0-.5 0-.8-.1.2.1.5.1.8.1z"/><path id="XMLID_270_" class="st1" d="M118.8 92c-.4-.3-.9-.7-1.3-.9.4.2.8.5 1.3.9z"/><path id="XMLID_271_" class="st1" d="M97.7 87.5c-.3 0-.6 0-.9.1.3 0 .6-.1.9-.1z"/><path id="XMLID_272_" class="st1" d="M127.9 88h-10c0 .1.1.3.1.5 3.2 1.8 5.9 6.1 5.9 6.1 2.3-1.3 4-1.1 4.1-1.1l-.1-5.5z"/><path id="XMLID_273_" class="st1" d="M100.1 168.2c-.2-.1-.5-.2-.6-.3.2.2.4.3.6.3z"/><path id="XMLID_276_" class="st1" d="M88.6 149.5c0 .2 0 .4.1.7.9 3 1.8 5.6 2.4 7.6 1.9 6.3 5.8 9 8.5 10.2-1.4-.5-4.1-9.1-4.1-9.1 1.9 4.4 5.4 8.4 5.4 8.4-2.7-6.9 1.6-17 1.6-17s-.8 3.8-1.5 8.3c-.7 4.4 3.1 11.7 3.1 11.7.8.6 1.9 1.6 3.5 2.9 1.6 1.3 4.2 2.3 6.9 2.9 1.7.4 3.5.7 5.2 1 4.5.6 8.3.7 8.3.7v-33.9c-4.6 0-5.2-.8-6.5-1.4s-3.5-.4-5 .2c-1.6.6-1.7-1.6-1.7-1.6l-3.4 1.4s.4-2.5-1-1.3c-1.3 1.2-4.9 2.6-4.9 2.6v-2.4s-1.7.4-1.7 0 1-1.9 1-1.9l-1.6.6s.7-2.4 1.7-3.8 1.9-5.6 1.9-5.6c-.1 1.6.1 3.6 1 3s4.1-1.8 4.1-1.8v.7c2.4-2 6.7-1.9 6.7-1.9 3.5 4.2 9.4 3.7 9.4 3.7V95.3c-1.9 0-3.2.7-3.2.7s-1.8 4.4-6 12.1c-4.2 7.7-9.3 7.7-18.1 7.7s-11-2.6-14.7-6.9c-3.7-4.3-2-15.4-2-15.4h-5.5v-.6l-1.2-.9s1.8 4.4 1.3 7.4L77.3 98v8.6s-.3-.9-.8-2.1c.4 2.2.7 4.2 1 5.9.6 3.6 2 9.3 3.8 15.5 2.2 7.9 4.9 16.7 7.1 23.6v.1c.1 0 .2-.1.2-.1zm17.3-20.9c4.6-7.4 10.9-9.1 10.9-9.1-3.8 1.2-8 7.5-10.4 11-2.8 4.1-8.3 13.8-8.3 13.8.8-6 3.3-8.3 7.8-15.7z"/><path id="XMLID_277_" class="st11" d="M99.5 168l.6.3c1.5.7 3.8 2 3.8 2s-3.8-7.3-3.1-11.7c.7-4.4 1.5-8.3 1.5-8.3s-4.3 10.1-1.6 17c0 0-3.5-4-5.4-8.4.1 0 2.8 8.6 4.2 9.1z"/><path id="XMLID_278_" class="st12" d="M71.9 80.9c.8 2.5-1.5 7.3-1.5 7.3l1.9-.5-.6 4.3 2.1-1.9s.3 5.3.8 7.9c.3 1.6 1.3 4.5 2 6.5.4 1.2.8 2.1.8 2.1V98l1.3 1.5c.5-3.1-1.3-7.4-1.3-7.4l1.1.7v-1.6h.3c-.4-1.9-.9-4.4-.4-5.3.8-1.4 2-6.4 2-6.4S77.7 66 78.6 59.9c1-6.1 6.5-17.6 11.2-23.9 4.6-6.4 11.5-8.9 19-5.9s19.3 5.9 19.3 5.9v-2.3s-2.7-6-6.3-8.4l1.9 4.2-6.2-4.2v2.4l-5.7-2.4V27s-5.5-3.4-7.7-3.4l2.4 2.4h-6.9s-9.5 1.7-17.5 7.7c9.8-16.4 23-19.2 23-19.2s4 0 6.2 2.6l-1.5-5s5.5-1 7.2 1l3.6 3.8-1.5-6.7s4.1 4.3 7.2 6.2l-2.9-6.2 4.7 5.3V8.4C97 8.4 84.9 26 81.5 30.1c-3.4 4.2-6.5 11.3-10.7 18-4.2 6.7-3.4 15.6-3.5 17.6-.2 1.9 2.9 12.7 2.9 14.8.4-.5 1.2-1.1 1.7.4z"/><path id="XMLID_279_" class="st11" d="M127.9 72.4s-11.8 0-17.9-2.7c-6.1-2.7-15.5 0-15.5 0s10.9-.9 13.3.8c2.4 1.6 11.5 3.9 20.1 3.9v-2z"/><path id="XMLID_280_" class="st11" d="M127.9 78.3s-11.8 0-17.9-2.7c-6.1-2.7-15.5 0-15.5 0s10.9-.9 13.3.8c2.4 1.6 11.5 3.9 20.1 3.9v-2z"/><path id="XMLID_281_" class="st12" d="M127.9 134.5s-5.9.5-9.4-3.7c0 0-4.3-.1-6.7 1.9v-.7s-3.2 1.2-4.1 1.8-1.1-1.4-1-3c0 0-1 4.2-1.9 5.6-1 1.4-1.7 3.8-1.7 3.8l1.6-.6s-1 1.6-1 1.9c0 .4 1.7 0 1.7 0v2.4s3.6-1.4 4.9-2.6c1.3-1.2 1 1.3 1 1.3l3.4-1.4s.1 2.2 1.7 1.6c1.6-.6 3.7-.8 5-.2s2 1.4 6.5 1.4v-9.5z"/><path id="XMLID_282_" class="st11" d="M98.2 144.3s5.5-9.6 8.3-13.8c2.4-3.5 6.5-9.8 10.4-11 0 0-6.4 1.7-10.9 9.1-4.6 7.4-7.1 9.7-7.8 15.7z"/><path id="XMLID_283_" d="M127.9 21.3v-6l-4.7-5.3 2.9 6.2c-3.1-1.9-7.2-6.2-7.2-6.2l1.5 6.7-3.6-3.8c-1.7-1.9-7.2-1-7.2-1l1.5 5c-2.2-2.6-6.2-2.6-6.2-2.6s-13.2 2.8-23 19.2c8-6 17.5-7.7 17.5-7.7h6.9l-2.4-2.4c2.2 0 7.7 3.4 7.7 3.4v-1.7l5.7 2.4v-2.4l6.2 4.2-1.9-4.2c3.6 2.4 6.3 8.4 6.3 8.4V21.3z" fill="#898a8b"/><path id="XMLID_284_" class="st12" d="M109.3 88.1l1.5.3c-.4-.1-1-.2-1.5-.3z"/><path id="XMLID_285_" class="st12" d="M104.2 87.5c.4 0 .8.1 1.3.1-.5 0-.9 0-1.3-.1z"/><path id="XMLID_286_" class="st12" d="M114.4 89.4c.3.1.7.3 1.1.5-.4-.2-.8-.4-1.1-.5z"/><path id="XMLID_287_" class="st12" d="M102.4 87.4c-1.6 0-3.1 0-4.6.1 1.5-.1 3-.1 4.6-.1z"/><path id="XMLID_288_" class="st12" d="M117.4 91c-.4-.3-.9-.5-1.3-.8.5.3.9.6 1.3.8z"/><path id="XMLID_289_" class="st12" d="M105.7 87.7c.7.1 1.6.2 2.4.3-.8-.2-1.7-.3-2.4-.3z"/><path id="XMLID_290_" class="st12" d="M98.1 85.8h7.6c-3.3-.7-5.8-.5-7.6 0z"/><path id="XMLID_291_" class="st12" d="M117 88c.3.1.6.3 1 .5 0-.2 0-.3-.1-.5h-.9z"/><path id="XMLID_292_" class="st12" d="M111.2 88.5c.5.1.9.2 1.4.3-.4-.1-.9-.2-1.4-.3z"/><path id="XMLID_295_" d="M128 93.5s-.1 0 0 0c-.1 0-1.8-.2-4.2 1.1 0 0-2.7-4.4-5.9-6.1-.3-.2-.6-.3-1-.5h11v-2.2H94.1c-4.9 0-9.3 1.4-10.1 5.3h-5.8v2.2h5.5s-1.7 11.1 2 15.4c3.7 4.3 6 6.9 14.7 6.9s13.9 0 18.1-7.7c4.2-7.7 6-12.1 6-12.1s1.2-.7 3.2-.7v-1.6zm-6.9 4.6c-.8 3.5-3 7.3-5.2 10.2-1 1.3-2.1 2.4-3.3 3.3-.6.4-1.3.8-2 1.1-1.6.7-3.6 1-6 1h-7.8c-.3 0-.5 0-.8-.1-.5-.1-1.1-.2-1.6-.4-2.2-.8-4.3-2.7-5.8-4.6-.2-.2-.4-.5-.6-.7-.7-1-1.3-2-1.7-2.9-.3-.7-.5-1.4-.7-2.3-.3-1.4-.5-2.9-.5-4.5 0-2.5.3-5 1-6.9.9-2.3 5.4-3.3 10.8-3.7.3 0 .6 0 .9-.1 1.5-.1 3.1-.1 4.6-.1 0 0 .7 0 1.8.1.4 0 .8.1 1.3.1h.2c.7.1 1.6.2 2.4.3.4.1.8.1 1.2.2l1.5.3c.1 0 .3.1.4.1.5.1.9.2 1.4.3.4.1.7.2 1 .3.1 0 .2.1.3.1.1.1.3.1.4.2.3.1.7.3 1.1.5l.6.3c.4.2.9.5 1.3.8.5.3.9.6 1.3.9 1.5 1.1 2.7 2.5 2.7 3.8.1.8 0 1.6-.2 2.4z" fill="#785d39"/><path id="XMLID_296_" d="M118.8 92c-.4-.3-.9-.7-1.3-.9-.4-.3-.9-.5-1.3-.8l-.6-.3c-.4-.2-.8-.4-1.1-.5-.2-.1-.3-.1-.4-.2-.1-.1-.3-.1-.3-.1-.3-.1-.7-.2-1-.3-.4-.1-.9-.2-1.4-.3-.1 0-.2-.1-.4-.1l-1.5-.3c-.4-.1-.8-.1-1.2-.2-.9-.1-1.7-.2-2.4-.3h-.2c-.5 0-.9-.1-1.3-.1-1.1-.1-1.8-.1-1.8-.1-1.6 0-3.1 0-4.6.1-.3 0-.6 0-.9.1-5.6.3-10.1 1.3-10.9 3.6-.7 1.9-1 4.4-1 6.9 0 1.6.2 3.1.5 4.5.2.8.4 1.6.7 2.3.4.9 1 1.9 1.7 2.9.2.2.4.5.6.7 1.6 2 3.7 3.8 5.8 4.6.5.2 1.1.4 1.6.4.3 0 .5.1.8.1h7.8c2.4 0 4.3-.3 6-1 .7-.3 1.4-.7 2-1.1 1.2-.8 2.3-1.9 3.3-3.3 2.2-2.9 4.5-6.8 5.2-10.2.2-.8.3-1.6.3-2.3-.1-1.3-1.3-2.7-2.7-3.8z" opacity=".8" fill="#42332f"/><path id="XMLID_297_" d="M159.6 214.3l-10.4 13.8s-3-3.7-5.8-7.5c-3.8 0-6.9 1.2-9.3 2.6l.1 1 .2 1.9.2 1.9.2 1.9.6 6.5h-.9c1.5 0 2.8 1.2 2.8 2.8 0 1.5-1.2 2.8-2.8 2.8h3.7c1 0 1.9.8 1.9 1.9s-.8 1.9-1.9 1.9h18c2.4-9.6 4.1-19.9 5.2-29.7-.9-.6-1.5-1.1-1.8-1.8z" fill="#8a786b"/><path id="XMLID_298_" class="st17" d="M139.2 203.9c-1.3 1.2-2.6 2.3-3.9 3.2l-.9 4h.5c.9 0 1.6.5 2 1.2 3.5 1.6 6.5 8.2 6.5 8.2 2.8 3.8 5.8 7.5 5.8 7.5l10.4-13.8c-.1-.3-.2-.6-.2-.9 0-1.3 1-2.3 2.3-2.3v-.1c-.8-.2-1.4-.9-1.4-1.8 0-1 .8-1.8 1.8-1.8h-1.8l-4.6-10.2h3.7l2.6 4.4c.1.1.2.2.4.2h.1c1.3-16.6 1.3-29 1.3-29s-8.1 12.6-17.2 23.2c-2.4 3-4.9 5.7-7.4 8z"/><path id="XMLID_299_" class="st18" d="M137.1 213.4c0 1.3-1 2.3-2.3 2.3h-1.4l.7 7.4c2.4-1.4 5.4-2.6 9.3-2.6 0 0-3.1-6.6-6.5-8.2.1.3.2.7.2 1.1z"/><path id="XMLID_300_" class="st19" d="M220.3 216.7l.3-.3c-.2-.1-.4-.2-.5-.3 0 .2.1.4.2.6z"/><path id="XMLID_301_" class="st19" d="M217.4 211.1c0-3.2 2.7-5.8 5.9-5.8 2 0 3.8 1 4.8 2.5 2.3-2.9 4.5-5.9 6.6-9.1L196.8 180c6.8 8.7 14 19 20.6 31.1z"/><path id="XMLID_302_" class="st20" d="M156.6 243.6c0-1 .8-1.9 1.9-1.9h3.7c-1.5 0-2.8-1.2-2.8-2.8 0-1.5 1.2-2.8 2.8-2.8h-.9l1.9-20.4h-1.4c-.2 0-.3 0-.5-.1-1.2 9.8-2.8 20.2-5.2 29.7h2.5c-1.1.1-2-.7-2-1.7z"/><path id="XMLID_303_" class="st20" d="M162.2 211.1c-.1 0-.3 0-.4-.1v.1h.4z"/><path id="XMLID_304_" class="st20" d="M162.6 201.8h2.7c.3 0 .5-.3.5-.6l-.8-4h5.6l-.8 4c-.1.3.2.6.5.6h2.8c.2 0 .3-.1.4-.2l2.4-4c-3.6-9-7.6-17.8-12-24.7 0-.1 0 12.4-1.3 28.9z"/><path id="XMLID_305_" class="st20" d="M162.1 207.4s.1 0 0 0z"/><path id="XMLID_306_" class="st20" d="M177.6 202.1l-2.4 5.4h-1.9c1 0 1.9.8 1.9 1.9 0 1-.8 1.9-1.9 1.9h.5c1.3 0 2.3 1 2.3 2.3 0 1.3-1 2.3-2.3 2.3h-1.4l1.9 20.4h-.9c1.5 0 2.8 1.2 2.8 2.8 0 1.5-1.2 2.8-2.8 2.8h3.7c1 0 1.9.8 1.9 1.9s-.8 1.9-1.9 1.9h1.9c3.6-1.6 7.2-3.3 10.7-5.2-1.9-7.3-6.2-22.8-12.1-38.4z"/><path id="XMLID_307_" class="st21" d="M200.1 216.9h-.2.2z"/><path id="XMLID_308_" class="st21" d="M196.6 216.8s0-.1 0 0c0-.1 0 0 0 0z"/><path id="XMLID_309_" class="st21" d="M197.3 217h-.2c.1-.1.2-.1.2 0z"/><path id="XMLID_310_" class="st21" d="M198 217.1h-.2.2z"/><path id="XMLID_311_" class="st21" d="M200.7 216.7c-.1 0-.1.1 0 0-.1.1-.1 0 0 0z"/><path id="XMLID_312_" class="st21" d="M217.3 211.2s.1 0 0 0c-6.6-12.2-13.7-22.5-20.5-31.2-15.7-20-29.4-30.5-29.4-30.5-.7 9.6-3.5 23.3-3.5 23.3 4.4 6.9 8.4 15.7 12 24.7l.2-.4h3.7l-2.2 4.9c5.8 15.6 10.2 31.1 12 38.2.3-.1.5-.3.8-.4-.1-.3-.1-.5-.1-.8 0-1.5 1.2-2.8 2.8-2.8h-.4l.7-6.6.6-5.3h-1.6c-1.3 0-2.3-1-2.3-2.3 0-1.3 1-2.3 2.3-2.3h3.6v-3.3c-1.9-1-3.3-3-3.3-5.3 0-3.3 2.6-5.9 5.9-5.9 3.3 0 5.9 2.6 5.9 5.9 0 2.3-1.3 4.3-3.3 5.3v3.3h3.6c1.3 0 2.3 1 2.3 2.3 0 1.3-1 2.3-2.3 2.3h-1.6l.6 5.3.2 1.4c3.8-2.8 7.3-5.7 10.8-8.9v-.1c0-1.3 1-2.3 2.3-2.3h.2l3-3-.3-.6c-1.6-1-2.7-2.8-2.7-4.9z"/><path id="XMLID_313_" class="st21" d="M199.5 217h-.2c0 .1.1.1.2 0z"/><path id="XMLID_314_" class="st17" d="M97.5 219.7h3l-6.2-8.3c.3 3.1.7 6.4 1.2 9.6.3-.7 1.1-1.3 2-1.3z"/><path id="XMLID_315_" class="st17" d="M98.6 229.6l.6-5.3h-1.6c-.7 0-1.3-.3-1.7-.8.6 4.1 1.3 8.3 2.1 12.5l.6-6.4z"/><path id="XMLID_316_" class="st17" d="M117.7 243.6c0-1 .8-1.9 1.9-1.9h3.7c-1.5 0-2.8-1.2-2.8-2.8 0-1.5 1.2-2.8 2.8-2.8h-.9l.6-6.5.2-1.9.2-1.9.2-1.8c-2.5-1.9-6.1-3.5-10.7-3.6-.2.2-.3.4-.5.7.1.3.2.5.2.8 0 1.3-1 2.3-2.3 2.3h-.3c-.4.6-.8 1.1-1.2 1.5l.4 3.7.4 3.3.4 3.3h-.3c1.5 0 2.8 1.2 2.8 2.8 0 1.5-1.2 2.8-2.8 2.8h3.7c1 0 1.9.8 1.9 1.9s-.8 1.9-1.9 1.9h6.5c-1.4 0-2.2-.8-2.2-1.8z"/><path id="XMLID_317_" class="st17" d="M97.9 236.2h.3-.3z"/><path id="XMLID_318_" class="st18" d="M101.1 219.7v-3.3c-1.9-1-3.3-3-3.3-5.3 0-3.3 2.6-5.9 5.9-5.9 3.3 0 5.9 2.6 5.9 5.9 0 2.3-1.3 4.3-3.3 5.3v3.3h3.6c1 0 1.8.6 2.1 1.5.2-.2.3-.4.5-.7 0 0 4.1-8.8 8.2-8.6h.2c.4-.5 1.1-.8 1.8-.8h.5l-.6-2.8c-1.9-1.1-3.9-2.7-5.9-4.6-2.5-2.3-5-5-7.5-7.9-9.1-10.5-17.1-23.1-17.1-23.1s0 17.5 2.2 38.6l6.2 8.3h.6z"/><path id="XMLID_319_" class="st18" d="M108.5 225.9l1.2-1.5h-1.4l.2 1.5z"/><path id="XMLID_320_" class="st18" d="M101.8 216.8s-.1-.1 0 0c-.1-.1 0 0 0 0z"/><path id="XMLID_321_" class="st18" d="M104.6 217h-.2c.1.1.1.1.2 0z"/><path id="XMLID_322_" class="st18" d="M105.2 216.9h-.2.2z"/><path id="XMLID_323_" class="st18" d="M103.1 217.1h-.2.2z"/><path id="XMLID_324_" class="st18" d="M102.5 217h-.2c.1-.1.1-.1.2 0z"/><path id="XMLID_325_" class="st18" d="M105.8 216.7s0 .1 0 0c0 .1 0 0 0 0z"/><path id="XMLID_326_" d="M124.2 215.8h-1.4c-1.3 0-2.3-1-2.3-2.3 0-.6.2-1.1.5-1.5h-.2c-4.1-.2-8.2 8.6-8.2 8.6 4.7 0 8.2 1.7 10.7 3.6l.9-8.4z" fill="#564c43"/><path id="XMLID_327_" d="M21.3 198.7c4.3 6.4 9.1 12.4 14.4 18 7.4-14.5 15.7-26.8 23.4-36.7l-37.8 18.7z" fill="#163a49"/><path id="XMLID_328_" d="M94.5 245.4c-1 0-1.9-.8-1.9-1.9s.8-1.9 1.9-1.9h3.7c-1.5 0-2.8-1.2-2.8-2.8 0-1.4 1.1-2.6 2.5-2.8h-.1v-.2c-.8-4.1-1.5-8.3-2.1-12.5-.3-.4-.5-.9-.5-1.5 0-.3.1-.7.2-.9-.4-3.3-.8-6.5-1.2-9.6-2.2-21.1-2.2-38.6-2.2-38.6-12.6 19.9-22.6 55.6-25.7 67.4 3.5 1.9 7 3.7 10.7 5.2h17.5z" fill="#182f32"/><path id="XMLID_329_" class="st19" d="M92.1 172.8s-2.7-13.1-3.5-22.6c0-.2 0-.4-.1-.7l-.1.1c-1.5 1.2-14.5 11.6-29.2 30.4-7.8 9.9-16.1 22.2-23.4 36.7 8.9 9.3 19.3 17.2 30.7 23.5 3-11.8 13-47.4 25.6-67.4z"/><path id="XMLID_330_" class="st25" d="M133.4 215.8h-9.2l-.8 8.3h10.8l-.1-1z"/><path id="XMLID_331_" class="st25" d="M122.9 229.7l-.6 6.5h13l-.6-6.5z"/><path id="XMLID_332_" class="st26" d="M123.2 226l-.1 1.8h11.4l-.1-1.8z"/><path id="XMLID_333_" class="st27" d="M123.1 227.8l-.2 1.9h11.8l-.2-1.9z"/><path id="XMLID_334_" class="st27" d="M123.4 224.1l-.2 1.9h11.2l-.2-1.9z"/><path id="XMLID_335_" class="st26" d="M131.6 202.8V200h1.5c.7 0 1.3-.6 1.3-1.3v-2.1c0-.7-.6-1.3-1.3-1.3h-1.5v-1.5c0-.7-.6-1.3-1.3-1.3h-3.1c-.7 0-1.3.6-1.3 1.3v1.5h-1.5c-.7 0-1.3.6-1.3 1.3v2.1c0 .7.6 1.3 1.3 1.3h1.5v2.8h5.7z"/><path id="XMLID_336_" class="st25" d="M134.5 202.8h-11.4c-.9 0-1.5.8-1.4 1.7l.9 3.9.6 2.8h11.1l.9-4 .6-2.7c.2-.9-.4-1.7-1.3-1.7z"/><path id="XMLID_337_" class="st26" d="M123.2 211.1h-.5c-.7 0-1.4.3-1.8.8-.3.4-.5.9-.5 1.5 0 1.3 1 2.3 2.3 2.3h12.1c1.3 0 2.3-1 2.3-2.3 0-.4-.1-.8-.3-1.1-.4-.7-1.1-1.2-2-1.2h-11.6z"/><path id="XMLID_338_" class="st26" d="M123.2 236.2c-1.5 0-2.8 1.2-2.8 2.8 0 1.5 1.2 2.8 2.8 2.8h11.1c1.5 0 2.8-1.2 2.8-2.8 0-1.5-1.2-2.8-2.8-2.8h-11.1z"/><path id="XMLID_339_" class="st25" d="M139.9 243.6c0-1-.8-1.9-1.9-1.9h-18.5c-1 0-1.9.8-1.9 1.9s.8 1.9 1.9 1.9h18.6c1-.1 1.8-.9 1.8-1.9z"/><path id="XMLID_340_" class="st28" d="M162.2 207.4s-.1 0 0 0c-1 0-1.9.9-1.9 1.9 0 .9.6 1.6 1.4 1.8.1 0 .3.1.4.1h11.1c1 0 1.9-.8 1.9-1.9 0-1-.8-1.9-1.9-1.9h-11z"/><path id="XMLID_341_" class="st28" d="M161.3 236.2h12.9l-1.8-20.4h-9.3z"/><path id="XMLID_342_" class="st29" d="M162.2 236.2c-1.5 0-2.8 1.2-2.8 2.8 0 1.5 1.2 2.8 2.8 2.8h11.1c1.5 0 2.8-1.2 2.8-2.8 0-1.5-1.2-2.8-2.8-2.8h-11.1z"/><path id="XMLID_343_" class="st28" d="M162.2 241.7h-3.7c-1 0-1.9.8-1.9 1.9s.8 1.9 1.9 1.9H177c1 0 1.9-.8 1.9-1.9s-.8-1.9-1.9-1.9h-14.8z"/><path id="XMLID_344_" class="st29" d="M161.8 211.1c-1.3 0-2.4 1-2.4 2.3 0 .3.1.6.2.9.3.7.9 1.2 1.7 1.4.2 0 .3.1.5.1h12.1c1.3 0 2.3-1 2.3-2.3 0-1.3-1-2.3-2.3-2.3h-12.1z"/><path id="XMLID_345_" class="st29" d="M173.5 201.6c-.1.1-.3.2-.4.2h-2.8c-.3 0-.5-.3-.5-.6l.8-4H165l.8 4c.1.3-.2.6-.5.6h-2.8c-.2 0-.3-.1-.4-.2l-2.6-4.4h-3.7l4.6 10.2h14.9l2.4-5.4 2.2-4.9h-3.7l-.2.4-2.5 4.1z"/><path id="XMLID_346_" class="st26" d="M190.3 239c0 .3.1.6.1.8 2.1-1.1 4.1-2.3 6-3.6H193c-1.5 0-2.7 1.2-2.7 2.8z"/><path id="XMLID_347_" class="st26" d="M196.6 216.7s0 .1 0 0c.3.1.4.1.6.2h.2c.2 0 .3.1.5.1h1.8c.2 0 .3-.1.5-.1h.2c.2 0 .3-.1.5-.2h.1c.2-.1.4-.2.6-.2 1.9-1 3.3-3 3.3-5.3 0-3.3-2.6-5.9-5.9-5.9-3.3 0-5.9 2.6-5.9 5.9 0 2.3 1.3 4.3 3.3 5.3-.2.1 0 .2.2.2z"/><path id="XMLID_348_" class="st25" d="M203.8 229.6l-.6-5.3H194l-.6 5.3z"/><path id="XMLID_349_" class="st25" d="M193.1 232.9l.4-3.3-.7 6.6h3.8c1.7-1.1 3.3-2.2 4.9-3.3h-8.4z"/><path id="XMLID_350_" class="st26" d="M203.8 229.6h-10.4l-.4 3.3h8.3c.9-.6 1.7-1.2 2.6-1.9l-.1-1.4z"/><path id="XMLID_351_" class="st26" d="M203.2 224.3h1.6c1.3 0 2.3-1 2.3-2.3 0-1.3-1-2.3-2.3-2.3h-12.4c-1.3 0-2.3 1-2.3 2.3 0 1.3 1 2.3 2.3 2.3h10.8z"/><path id="XMLID_352_" class="st25" d="M201.2 216.5c-.2.1-.4.2-.6.2h-.1c-.2.1-.3.1-.5.2h-.2c-.2 0-.3.1-.5.1h-1.8c-.2 0-.3 0-.5-.1h-.2c-.2 0-.3-.1-.5-.2h-.1c-.2-.1-.4-.2-.6-.2v3.3h5.3v-3.3z"/><path id="XMLID_353_" class="st26" d="M109.3 241.7c1.5 0 2.8-1.2 2.8-2.8 0-1.5-1.2-2.8-2.8-2.8H97.9c-1.4.1-2.5 1.3-2.5 2.8 0 1.5 1.2 2.8 2.8 2.8h11.1z"/><path id="XMLID_354_" class="st25" d="M114.9 243.6c0-1-.8-1.9-1.9-1.9H94.5c-1 0-1.9.8-1.9 1.9s.8 1.9 1.9 1.9h18.6c1-.1 1.8-.9 1.8-1.9z"/><path id="XMLID_355_" class="st26" d="M101.7 216.7s.1.1 0 0c.3.1.4.1.6.2h.2c.2 0 .3.1.5.1h1.8c.2 0 .3-.1.5-.1h.2c.2 0 .3-.1.5-.2h.1c.2-.1.4-.2.6-.2 1.9-1 3.3-3 3.3-5.3 0-3.3-2.6-5.9-5.9-5.9-3.3 0-5.9 2.6-5.9 5.9 0 2.3 1.3 4.3 3.3 5.3-.2.1 0 .2.2.2z"/><path id="XMLID_356_" class="st25" d="M109.3 236.2h.4l-.4-3.3H98.2l.4-3.2-.7 6.3v.2h.3z"/><path id="XMLID_357_" class="st25" d="M99.2 224.3l-.6 5.3H109l-.5-3.7-.1-1.6z"/><path id="XMLID_358_" class="st26" d="M98.6 229.6v.1l-.4 3.2h11.1l-.3-3.3H98.6z"/><path id="XMLID_359_" class="st26" d="M97.5 224.3H110c1.3 0 2.3-1 2.3-2.3 0-.3-.1-.6-.2-.8-.3-.8-1.2-1.5-2.1-1.5H97.5c-.9 0-1.7.6-2.1 1.4-.1.3-.2.6-.2.9 0 .6.2 1.1.5 1.5.5.5 1.1.8 1.8.8z"/><path id="XMLID_360_" class="st25" d="M106.4 216.5c-.2.1-.4.2-.6.2h-.1c-.2.1-.3.1-.5.2h-.2c-.2 0-.3.1-.5.1h-1.8c-.2 0-.3-.1-.5-.1h-.2c-.2 0-.3-.1-.5-.2h-.1c-.2-.1-.4-.2-.6-.2v3.3h5.3v-3.3h.3z"/><path id="XMLID_361_" class="st29" d="M223.3 205.3c-3.2 0-5.9 2.6-5.9 5.8v.1c0 2.1 1 3.9 2.6 4.9.2.1.4.2.5.3 2.6-2.8 5.2-5.7 7.6-8.7-1.1-1.4-2.8-2.4-4.8-2.4z"/><path id="XMLID_362_" class="st29" d="M214.7 222c0 .1 0 .1 0 0 .9-.7 1.7-1.5 2.5-2.3h-.2c-1.2 0-2.3 1.1-2.3 2.3z"/><path id="XMLID_363_" d="M177 245.4H77c15.6 6.8 32.8 10.6 51 10.6s35.3-3.8 51-10.6h-2z" fill="#7f7f7f"/></g></g></svg>