<svg id="Layer_1" xmlns="http://www.w3.org/2000/svg" width="256" height="256"><style>.st2{fill:#c08c76}.st3{fill:#a87b67}.st4{fill:#d8aa91}.st5{fill:#b8927d}.st6{fill:#d6d4d4}.st10{fill:#b27d6b}.st11{fill:#906958}.st12{fill:#a1806e}.st13{fill:#a0a0a1}.st17{fill:#9a9a9b}.st18{fill:#121212}.st19{fill:#696a6b}.st27{opacity:.6;fill:#d8e3db}</style><g id="XMLID_3_"><circle id="XMLID_4_" cx="128.5" cy="128.5" r="128" fill="#b2b4b5"/><g id="XMLID_9_"><path id="XMLID_111_" d="M128.5 239.5l-.1 17v-17z" fill="none"/><path id="XMLID_112_" class="st2" d="M157 168.5c-.2.1-.4.2-.7.3-1.5.7-3.8 2-3.8 2-.8.6-1.9 1.6-3.5 2.9-1.6 1.3-4.2 2.3-6.9 2.9l5 18.8c18.4-12.6 24.2-28.8 24.3-28.9-1.4-5.1-2.5-11-3.2-16.3-1 3.3-1.9 6.2-2.6 8.3-2.1 6.1-6 8.8-8.6 10z"/><path id="XMLID_113_" class="st2" d="M139.8 199.6c-.3-7-1.9-16.3-2.9-22.1-4.3.6-7.9.7-8.3.7V202c-.1 0 4.6.4 11.2-2.4z"/><path id="XMLID_115_" class="st3" d="M141 199c2.1-1.2 4.1-2.4 6-3.7l-5-18.8c-1.7.4-3.5.7-5.2 1 1.1 5.7 2.6 15 2.9 22.1.5-.2.9-.4 1.3-.6z"/><path id="XMLID_116_" class="st2" d="M184.5 81.4c-.8 2.5 1.5 7.3 1.5 7.3l-1.9-.5.6 4.3-2.1-1.9s-.3 5.3-.8 7.9c-.3 1.6-1.3 4.5-2 6.5-.4 2.2-.7 4.2-1 5.9-.6 3.6-2 9.3-3.8 15.5 6.1 1.7 7.8-5.1 9.6-10.4 2.1-6.1 1.6-14.5.8-19.5s1.9-5.3 1.4-13.4c-.1-.9-.3-1.6-.6-2.1-.4-.5-1.1-1.1-1.7.4z"/><path id="XMLID_119_" class="st4" d="M128.5 94c.3 0 1.9-.1 4.1 1.1 0 0 2.7-4.4 5.9-6.1 0-.2 0-.3.1-.5h-10V94z"/><path id="XMLID_131_" class="st4" d="M139 91.5c-.5.3-.9.6-1.3.9.4-.3.9-.6 1.3-.9z"/><path id="XMLID_132_" class="st4" d="M159.6 114.2c.3 0 .5 0 .8-.1-.3.1-.6.1-.8.1z"/><path id="XMLID_133_" class="st4" d="M146.4 70.2c6.1-2.7 15.5 0 15.5 0s-10.9-.9-13.3.8c-2.4 1.6-11.5 3.9-20.1 3.9v3.9c.7 0 12-.1 17.8-2.7 6.1-2.7 15.5 0 15.5 0s-10.9-.9-13.3.8c-2.4 1.6-11.5 3.9-20.1 3.9v5.7h22.2c3.3-.8 5.8-.5 7.6 0h3.9c4.9 0 9.3 1.4 10.1 5.3h5.5c.4-1.9.9-4.4.4-5.3-.8-1.4-2-6.4-2-6.4s2.7-13.5 1.8-19.6c-1-6.1-6.5-17.6-11.2-23.9-4.6-6.4-11.5-8.9-19-5.9-7.3 2.9-18.6 5.7-19.3 5.9v36.6c.8-.3 12.1-.3 18-3z"/><path id="XMLID_134_" class="st4" d="M168.4 108.4c.7-1 1.3-2 1.7-2.9.3-.7.5-1.4.7-2.3-.2.8-.4 1.6-.7 2.3-.4.9-1 1.9-1.7 2.9z"/><path id="XMLID_135_" class="st4" d="M159.6 88.1c-.3 0-.6 0-.9-.1.3 0 .6.1.9.1z"/><path id="XMLID_136_" class="st4" d="M157 168.5l-.6.3c.1-.1.3-.2.6-.3z"/><path id="XMLID_139_" class="st4" d="M179.9 105c-.4 1.2-.8 2.1-.8 2.1v-8.6l-1.3 1.5c-.5-3.1 1.3-7.4 1.3-7.4l-1.1.7v.6h-5.5s1.7 11.1-2 15.4c-3.7 4.3-6 6.9-14.7 6.9s-13.9 0-18.1-7.7c-4.2-7.7-6-12.1-6-12.1s-1.2-.7-3.1-.7V135c.4 0 6 .3 9.4-3.7 0 0 4.3-.1 6.7 1.9v-.7s3.2 1.2 4.1 1.8 1.1-1.4 1-3c0 0 1 4.2 1.9 5.6 1 1.4 1.7 3.8 1.7 3.8l-1.6-.6s1 1.6 1 1.9c0 .4-1.7 0-1.7 0v2.4s-3.6-1.4-4.9-2.6c-1.3-1.2-1 1.3-1 1.3l-3.4-1.4s-.1 2.2-1.7 1.6c-1.6-.6-3.7-.8-5-.2-1.3.6-2 1.4-6.5 1.4v33.8c.4 0 4-.1 8.3-.7 1.7-.2 3.5-.5 5.2-1 2.8-.7 5.3-1.6 6.9-2.9 1.6-1.3 2.8-2.3 3.5-2.9 0 0 3.8-7.3 3.1-11.7-.7-4.4-1.5-8.3-1.5-8.3s4.3 10.1 1.6 17c0 0 3.5-4 5.4-8.4 0 0-2.7 8.6-4.1 9.1 2.7-1.2 6.6-3.9 8.5-10.2.7-2.1 1.6-5 2.6-8.3 2.1-6.9 4.8-15.7 7.1-23.6 1.8-6.3 3.2-11.9 3.8-15.5.1-1.7.5-3.7.9-5.9zM150 131c-2.4-3.5-6.5-9.8-10.4-11 0 0 6.4 1.7 10.9 9.1s7 9.7 7.7 15.7c.1 0-5.4-9.7-8.2-13.8z"/><path id="XMLID_140_" class="st5" d="M156.3 168.7c.2-.1.5-.2.6-.3 1.4-.5 4.1-9.1 4.1-9.1-1.9 4.4-5.4 8.4-5.4 8.4 2.7-6.9-1.6-17-1.6-17s.8 3.8 1.5 8.3c.7 4.4-3.1 11.7-3.1 11.7.1 0 2.4-1.3 3.9-2z"/><path id="XMLID_141_" class="st6" d="M133.1 10.6l-2.9 6.2c3.1-1.9 7.2-6.2 7.2-6.2l-1.5 6.7 3.6-3.8c1.7-1.9 7.2-1 7.2-1l-1.5 5c2.2-2.6 6.2-2.6 6.2-2.6s13.2 2.8 23 19.2c-8-6-17.5-7.7-17.5-7.7H150l2.4-2.4c-2.2 0-7.7 3.4-7.7 3.4v-1.7l-5.7 2.4v-2.4l-6.2 4.2 1.9-4.2c-3.4 2.2-5.9 7.6-6.3 8.3v2.3c.7-.2 12-3 19.3-5.9 7.5-3 14.4-.5 19 5.9s10.2 17.9 11.2 23.9c1 6.1-1.8 19.6-1.8 19.6s1.2 5 2 6.4c.5.9 0 3.4-.4 5.3h.3v1.6l1.1-.7s-1.8 4.4-1.3 7.4l1.3-1.5v8.6s.3-.9.8-2.1c.7-2 1.7-4.9 2-6.5.5-2.6.8-7.9.8-7.9l2.1 1.9-.6-4.3 1.9.5s-2.3-4.8-1.5-7.3c.5-1.6 1.3-1 1.9-.5 0-2.1 3.1-12.9 2.9-14.8-.2-1.9.6-10.9-3.5-17.6-4.2-6.7-7.3-13.9-10.7-18-3.4-4.1-15.5-21.7-46.6-21.7v6.9l4.5-4.9z"/><path id="XMLID_143_" class="st5" d="M148.6 71c2.4-1.6 13.3-.8 13.3-.8s-9.4-2.7-15.5 0c-5.9 2.6-17.1 2.7-17.8 2.7v1.9c8.5 0 17.6-2.2 20-3.8z"/><path id="XMLID_144_" class="st5" d="M148.6 76.8c2.4-1.6 13.3-.8 13.3-.8s-9.4-2.7-15.5 0c-5.9 2.6-17.1 2.7-17.8 2.7v1.9c8.5.1 17.6-2.1 20-3.8z"/><path id="XMLID_145_" class="st6" d="M135 143c1.3-.6 3.5-.4 5 .2 1.6.6 1.7-1.6 1.7-1.6l3.4 1.4s-.4-2.5 1-1.3c1.3 1.2 4.9 2.6 4.9 2.6V142s1.7.4 1.7 0-1-1.9-1-1.9l1.6.6s-.7-2.4-1.7-3.8-1.9-5.6-1.9-5.6c.1 1.6-.1 3.6-1 3s-4.1-1.8-4.1-1.8v.7c-2.4-2-6.7-1.9-6.7-1.9-3.4 4.1-9 3.7-9.4 3.7v9.5c4.6-.1 5.2-.9 6.5-1.5z"/><path id="XMLID_146_" class="st5" d="M150.5 129.1c-4.6-7.4-10.9-9.1-10.9-9.1 3.8 1.2 8 7.5 10.4 11 2.8 4.1 8.3 13.8 8.3 13.8-.8-6-3.2-8.3-7.8-15.7z"/><path id="XMLID_147_" d="M128.5 21.8v12.1c.3-.7 2.9-6.1 6.3-8.3l-1.9 4.2 6.2-4.2V28l5.7-2.4v1.7s5.5-3.4 7.7-3.4l-2.4 2.4h6.9s9.5 1.7 17.5 7.7c-9.8-16.4-23-19.2-23-19.2s-4 0-6.2 2.6l1.5-5s-5.5-1-7.2 1l-3.6 3.8 1.5-6.7s-4.1 4.3-7.2 6.2l2.9-6.2-4.6 5.2v6.1z" fill="#b0b0b0"/><path id="XMLID_148_" class="st6" d="M158.7 88c-1.5-.1-3.1-.1-4.6-.1 1.5 0 3.1 0 4.6.1z"/><path id="XMLID_150_" class="st6" d="M139.4 88.5h-.9c0 .1-.1.3-.1.5.4-.2.7-.4 1-.5z"/><path id="XMLID_151_" class="st6" d="M150.9 88.1c.5 0 .9-.1 1.3-.1-.4.1-.8.1-1.3.1z"/><path id="XMLID_152_" class="st6" d="M140.1 90.9c-.3.2-.7.4-1 .6.3-.2.6-.4 1-.6z"/><path id="XMLID_153_" class="st6" d="M140.9 90.4c.4-.2.8-.4 1.1-.5-.3.1-.7.3-1.1.5z"/><path id="XMLID_155_" class="st6" d="M150.7 86.3h7.6c-1.8-.5-4.3-.7-7.6 0z"/><path id="XMLID_156_" class="st6" d="M143.8 89.3c.4-.1.9-.2 1.4-.3-.5.1-.9.2-1.4.3z"/><path id="XMLID_157_" class="st6" d="M145.6 88.9l1.5-.3-1.5.3z"/><path id="XMLID_160_" d="M137.7 108.6c4.2 7.7 9.3 7.7 18.1 7.7s11-2.6 14.7-6.9c3.7-4.3 2-15.4 2-15.4h5.5v-2.2h-5.8c-.7-3.8-5.1-5.3-10.1-5.3h-33.7v2.2h10.9c-.3.1-.6.3-1 .5-3.2 1.8-5.9 6.1-5.9 6.1-2.2-1.2-3.8-1.1-4.1-1.1V96c1.9 0 3.1.7 3.1.7s2.1 4.3 6.3 11.9zm-2.1-14c.1-.2.3-.4.4-.6.5-.5 1-1.1 1.7-1.6.4-.3.9-.7 1.3-.9.4-.2.7-.4 1-.6.3-.2.6-.3.9-.5.4-.2.8-.4 1.1-.5.2-.1.3-.1.4-.2.1-.1.3-.1.3-.1.3-.1.7-.2 1-.3.4-.1.9-.2 1.4-.3.1 0 .2-.1.4-.1l1.5-.3c.4-.1.8-.1 1.2-.2.9-.1 1.7-.2 2.4-.3h.2c.5 0 .9-.1 1.3-.1 1.1-.1 1.8-.1 1.8-.1 1.6 0 3.1 0 4.6.1.3 0 .6 0 .9.1 5.4.4 9.9 1.4 10.7 3.7 1.1 3 1.3 7.8.5 11.4-.2.8-.4 1.6-.7 2.3-.4.9-1 1.9-1.7 2.9-.2.2-.4.5-.6.7-.4.5-.8 1-1.3 1.4l-.7.7c-1.2 1.1-2.5 2-3.9 2.5-.5.2-1.1.4-1.6.4-.3 0-.5.1-.8.1h-7.8c-5.5 0-8.5-1.8-11.3-5.4-2.8-3.6-5.5-8.6-5.5-12.6.3-.5.5-1 .9-1.6z" fill="#907047"/><path id="XMLID_161_" d="M151.8 114.2h7.8c.3 0 .5 0 .8-.1.5-.1 1.1-.2 1.6-.4 1.3-.5 2.7-1.4 3.9-2.5.2-.2.5-.4.7-.7.5-.5.9-.9 1.3-1.4.2-.2.4-.5.6-.7.7-1 1.3-2 1.7-2.9.3-.7.5-1.4.7-2.3.8-3.6.6-8.4-.5-11.4-.8-2.3-5.4-3.3-10.7-3.7-.3 0-.6 0-.9-.1-1.5-.1-3.1-.1-4.6-.1 0 0-.7 0-1.8.1-.4 0-.8.1-1.3.1h-.2c-.7.1-1.6.2-2.4.3-.4.1-.8.1-1.2.2l-1.5.3c-.1 0-.3.1-.4.1-.5.1-.9.2-1.4.3-.4.1-.7.2-1 .3-.1 0-.2.1-.3.1-.1.1-.3.1-.4.2-.3.1-.7.3-1.1.5-.3.1-.6.3-.9.5-.3.2-.7.4-1 .6-.5.3-.9.6-1.3.9-.6.5-1.2 1-1.7 1.6-.2.2-.3.4-.4.6-.4.6-.6 1.1-.6 1.7 0 4 2.8 9 5.5 12.6 2.5 3.6 5.5 5.3 11 5.3z" opacity=".6" fill="#844530"/><path id="XMLID_165_" class="st10" d="M110 195.3l5-18.8c-2.8-.7-5.3-1.6-6.9-2.9-1.6-1.3-2.8-2.3-3.5-2.9 0 0-2.3-1.3-3.8-2l-.6-.3c-2.7-1.2-6.6-3.9-8.5-10.2-.7-2.1-1.6-5-2.6-8.3-.8 5.3-1.8 11.3-3.3 16.4.2.8 6.2 16.6 24.2 29z"/><path id="XMLID_166_" class="st10" d="M128.5 232.4v-54.2s-3.8-.1-8.3-.7c-1.1 5.7-2.6 15-2.9 22.1 6.6 2.8 11.2 2.4 11.2 2.4v30.4l-.1 7.1v-7.1z"/><path id="XMLID_167_" class="st11" d="M110 195.3c1.8 1.3 3.8 2.5 5.9 3.7.4.2.9.4 1.3.6.3-7 1.9-16.3 2.9-22.1-1.7-.2-3.5-.5-5.2-1l-4.9 18.8z"/><path id="XMLID_168_" class="st10" d="M77.2 105c-.7-2-1.7-4.9-2-6.5-.5-2.6-.8-7.9-.8-7.9l-2.1 1.9.6-4.3-1.9.5s2.3-4.8 1.5-7.3c-.5-1.6-1.3-1-1.9-.5-.3.5-.5 1.2-.6 2.1-.5 8.1 2.2 8.5 1.4 13.4s-1.3 13.4.8 19.5c1.8 5.4 3.5 12.2 9.6 10.4-1.8-6.3-3.2-11.9-3.8-15.5-.1-1.6-.5-3.6-.8-5.8z"/><path id="XMLID_169_" class="st2" d="M119.4 92.5c-.4-.3-.9-.7-1.3-.9.4.2.8.5 1.3.9z"/><path id="XMLID_170_" class="st2" d="M98.3 88c-.3 0-.6 0-.9.1.3 0 .6-.1.9-.1z"/><path id="XMLID_171_" class="st2" d="M86.2 103.2c.2.8.4 1.6.7 2.3.4.9 1 1.9 1.7 2.9-.7-1-1.3-2-1.7-2.9-.3-.7-.5-1.4-.7-2.3z"/><path id="XMLID_172_" class="st2" d="M84.8 91.6c.7-3.8 5.1-5.3 10.1-5.3h3.9c1.8-.5 4.3-.8 7.6 0h22.3v-5.7c-8.6 0-17.7-2.2-20.1-3.9-2.4-1.6-13.3-.8-13.3-.8s9.4-2.7 15.5 0 17.9 2.7 17.9 2.7v-3.9c-8.6 0-17.7-2.2-20.1-3.9-2.4-1.6-13.3-.8-13.3-.8s9.4-2.7 15.5 0 17.9 2.7 17.9 2.7V36.3s-11.8-2.9-19.3-5.9-14.4-.5-19 5.9C85.6 42.7 80 54.2 79 60.3c-1 6.1 1.8 19.6 1.8 19.6s-1.2 5-2 6.4c-.5.9 0 3.4.4 5.3h5.6z"/><path id="XMLID_173_" class="st2" d="M97.5 114.2c-.3 0-.5 0-.8-.1.2.1.5.1.8.1z"/><path id="XMLID_175_" class="st2" d="M128.5 88.5h-10c0 .1.1.3.1.5 3.2 1.8 5.9 6.1 5.9 6.1 2.3-1.3 4-1.1 4.1-1.1l-.1-5.5z"/><path id="XMLID_178_" class="st2" d="M100.1 168.5c-1.4-.5-4.1-9.1-4.1-9.1 1.9 4.4 5.4 8.4 5.4 8.4-2.7-6.9 1.6-17 1.6-17s-.8 3.8-1.5 8.3c-.7 4.4 3.1 11.7 3.1 11.7.8.6 1.9 1.6 3.5 2.9 1.6 1.3 4.2 2.3 6.9 2.9 1.7.4 3.5.7 5.2 1 4.5.6 8.3.7 8.3.7v-33.8c-4.6 0-5.2-.8-6.5-1.4s-3.5-.4-5 .2c-1.6.6-1.7-1.6-1.7-1.6l-3.4 1.4s.4-2.5-1-1.3c-1.3 1.2-4.9 2.6-4.9 2.6V142s-1.7.4-1.7 0 1-1.9 1-1.9l-1.6.6s.7-2.4 1.7-3.8 1.9-5.6 1.9-5.6c-.1 1.6.1 3.6 1 3s4.1-1.8 4.1-1.8v.7c2.4-2 6.7-1.9 6.7-1.9 3.5 4.2 9.4 3.7 9.4 3.7V95.8c-1.9 0-3.2.7-3.2.7s-1.8 4.4-6 12.1c-4.2 7.7-9.3 7.7-18.1 7.7s-11-2.6-14.7-6.9c-3.7-4.3-2-15.4-2-15.4H79v-.6l-1.1-.7s1.8 4.4 1.3 7.4l-1.3-1.5v8.6s-.3-.9-.8-2.1c.4 2.2.7 4.2 1 5.9.6 3.6 2 9.3 3.8 15.5 2.2 7.9 4.9 16.7 7.1 23.6 1 3.3 1.9 6.2 2.6 8.3 1.9 6.2 5.8 8.9 8.5 10.1zm6.4-39.4c4.6-7.4 10.9-9.1 10.9-9.1-3.8 1.2-8 7.5-10.4 11-2.8 4.1-8.3 13.8-8.3 13.8.8-6 3.2-8.3 7.8-15.7z"/><path id="XMLID_179_" class="st2" d="M100.7 168.7c-.2-.1-.5-.2-.6-.3.2.2.4.3.6.3z"/><path id="XMLID_180_" class="st12" d="M101.4 159c.7-4.4 1.5-8.3 1.5-8.3s-4.3 10.1-1.6 17c0 0-3.5-4-5.4-8.4 0 0 2.7 8.6 4.1 9.1l.6.3c1.5.7 3.8 2 3.8 2 .2 0-3.7-7.2-3-11.7z"/><path id="XMLID_181_" class="st13" d="M72.5 81.4c.8 2.5-1.5 7.3-1.5 7.3l1.9-.5-.6 4.3 2.1-1.9s.3 5.3.8 7.9c.3 1.6 1.3 4.5 2 6.5.4 1.2.8 2.1.8 2.1v-8.6l1.3 1.5c.5-3.1-1.3-7.4-1.3-7.4l1.1.7v-1.6h.3c-.4-1.9-.9-4.4-.4-5.3.8-1.4 2-6.4 2-6.4s-2.9-13.7-2-19.7c1-6.1 6.5-17.6 11.2-23.9 4.6-6.4 11.5-8.9 19-5.9s19.3 5.9 19.3 5.9V34s-2.7-6-6.3-8.4l1.9 4.2-6.2-4.2V28l-5.7-2.4v1.7s-5.5-3.4-7.7-3.4l2.4 2.4H100S90.5 28 82.5 34c9.8-16.4 23-19.2 23-19.2s4 0 6.2 2.6l-1.5-5s5.5-1 7.2 1l3.6 3.8-1.5-6.7s4.1 4.3 7.2 6.2l-2.9-6.2 4.7 5.3V8.9c-31.1 0-43.2 17.6-46.6 21.7-3.4 4.2-6.5 11.3-10.7 18-4.2 6.7-3.4 15.6-3.5 17.6-.2 1.9 2.9 12.7 2.9 14.8.6-.5 1.4-1.1 1.9.4z"/><path id="XMLID_182_" class="st12" d="M128.5 72.9s-11.8 0-17.9-2.7c-6.1-2.7-15.5 0-15.5 0s10.9-.9 13.3.8c2.4 1.6 11.5 3.9 20.1 3.9v-2z"/><path id="XMLID_183_" class="st12" d="M128.5 78.8s-11.8 0-17.9-2.7c-6.1-2.7-15.5 0-15.5 0s10.9-.9 13.3.8c2.4 1.6 11.5 3.9 20.1 3.9v-2z"/><path id="XMLID_184_" class="st13" d="M128.5 135s-5.9.5-9.4-3.7c0 0-4.3-.1-6.7 1.9v-.7s-3.2 1.2-4.1 1.8-1.1-1.4-1-3c0 0-1 4.2-1.9 5.6-1 1.4-1.7 3.8-1.7 3.8l1.6-.6s-1 1.6-1 1.9c0 .4 1.7 0 1.7 0v2.4s3.6-1.4 4.9-2.6c1.3-1.2 1 1.3 1 1.3l3.4-1.4s.1 2.2 1.7 1.6c1.6-.6 3.7-.8 5-.2s2 1.4 6.5 1.4V135z"/><path id="XMLID_185_" class="st12" d="M98.8 144.8s5.5-9.6 8.3-13.8c2.4-3.5 6.5-9.8 10.4-11 0 0-6.4 1.7-10.9 9.1-4.7 7.4-7.1 9.7-7.8 15.7z"/><path id="XMLID_186_" d="M128.5 21.8v-6l-4.7-5.3 2.9 6.2c-3.1-1.9-7.2-6.2-7.2-6.2l1.5 6.7-3.6-3.8c-1.7-1.9-7.2-1-7.2-1l1.5 5c-2.2-2.6-6.2-2.6-6.2-2.6s-13.2 2.8-23 19.2c8-6 17.5-7.7 17.5-7.7h6.9l-2.4-2.4c2.2 0 7.7 3.4 7.7 3.4v-1.7l5.7 2.4v-2.4l6.2 4.2-1.9-4.2c3.6 2.4 6.3 8.4 6.3 8.4V21.8z" fill="#898a8b"/><path id="XMLID_187_" class="st13" d="M115 89.9c.3.1.7.3 1.1.5-.4-.2-.8-.4-1.1-.5z"/><path id="XMLID_188_" class="st13" d="M111.8 89c.5.1.9.2 1.4.3-.5-.1-.9-.2-1.4-.3z"/><path id="XMLID_189_" class="st13" d="M109.9 88.6l1.5.3-1.5-.3z"/><path id="XMLID_190_" class="st13" d="M117.6 88.5c.3.1.6.3 1 .5 0-.2 0-.3-.1-.5h-.9z"/><path id="XMLID_191_" class="st13" d="M98.7 86.3h7.6c-3.3-.7-5.8-.5-7.6 0z"/><path id="XMLID_192_" class="st13" d="M118 91.5c-.4-.3-.9-.5-1.3-.8.4.3.9.6 1.3.8z"/><path id="XMLID_194_" class="st13" d="M106.3 88.2c.7.1 1.6.2 2.4.3-.9-.2-1.7-.3-2.4-.3z"/><path id="XMLID_195_" class="st13" d="M104.8 88c.4 0 .8.1 1.3.1-.5 0-.9 0-1.3-.1z"/><path id="XMLID_196_" class="st13" d="M103 87.9c-1.6 0-3.1 0-4.6.1 1.4-.1 3-.1 4.6-.1z"/><path id="XMLID_199_" d="M128.5 94c-.1 0-1.8-.2-4.2 1.1 0 0-2.7-4.4-5.9-6.1-.3-.2-.6-.3-1-.5h11v-2.2H94.6c-4.9 0-9.3 1.4-10.1 5.3H79v2.2h5.5s-1.7 11.1 2 15.4c3.7 4.3 6 6.9 14.7 6.9s13.9 0 18.1-7.7c4.2-7.7 6-12.1 6-12.1s1.2-.7 3.2-.7V94zm-6.8 4.6c-.8 3.5-3 7.3-5.2 10.2-1 1.3-2.1 2.4-3.3 3.3-.6.4-1.3.8-2 1.1-1.6.7-3.6 1-6 1h-7.8c-.3 0-.5 0-.8-.1-.5-.1-1.1-.2-1.6-.4-2.2-.8-4.3-2.7-5.8-4.6-.2-.2-.4-.5-.6-.7-.7-1-1.3-2-1.7-2.9-.3-.7-.5-1.4-.7-2.3-.3-1.4-.5-2.9-.5-4.5 0-2.5.3-5 1-6.9.8-2.3 5.4-3.3 10.7-3.7.3 0 .6 0 .9-.1 1.5-.1 3.1-.1 4.6-.1 0 0 .7 0 1.8.1.4 0 .8.1 1.3.1h.2c.7.1 1.6.2 2.4.3.4.1.8.1 1.2.2l1.5.3c.1 0 .3.1.4.1.5.1.9.2 1.4.3.4.1.7.2 1 .3.1 0 .2.1.3.1.1.1.3.1.4.2.3.1.7.3 1.1.5l.6.3c.4.2.9.5 1.3.8.5.3.9.6 1.3.9 1.5 1.1 2.7 2.5 2.7 3.8.2.8.1 1.6-.1 2.4z" fill="#785d39"/><path id="XMLID_200_" d="M119.4 92.5c-.4-.3-.9-.7-1.3-.9-.4-.3-.9-.5-1.3-.8l-.6-.3c-.4-.2-.8-.4-1.1-.5-.2-.1-.3-.1-.4-.2-.1-.1-.3-.1-.3-.1-.3-.1-.7-.2-1-.3-.4-.1-.9-.2-1.4-.3-.1 0-.2-.1-.4-.1l-1.5-.3c-.4-.1-.8-.1-1.2-.2-.9-.1-1.7-.2-2.4-.3h-.2c-.5 0-.9-.1-1.3-.1-1.1-.1-1.8-.1-1.8-.1-1.6 0-3.1 0-4.6.1-.3 0-.6 0-.9.1-5.4.4-9.9 1.4-10.7 3.7-.7 1.9-1 4.4-1 6.9 0 1.6.2 3.1.5 4.5.2.8.4 1.6.7 2.3.4.9 1 1.9 1.7 2.9.2.2.4.5.6.7 1.6 2 3.7 3.8 5.8 4.6.5.2 1.1.4 1.6.4.3 0 .5.1.8.1h7.8c2.4 0 4.3-.3 6-1 .7-.3 1.4-.7 2-1.1 1.2-.8 2.3-1.9 3.3-3.3 2.2-2.9 4.5-6.8 5.2-10.2.2-.8.3-1.6.3-2.3-.3-1.4-1.5-2.8-2.9-3.9z" opacity=".6" fill="#6d3723"/><path id="XMLID_201_" class="st17" d="M168.5 202.8c-8.7.7-26.7 3-40 10.4V226c20.7-7.6 34-17.9 40-23.2z"/><path id="XMLID_202_" class="st18" d="M171.2 208.4c-19.2 16.9-42.7 24-42.7 24v24.1c15 0 29.3-2.6 42.7-7.3v-40.8z"/><path id="XMLID_203_" class="st18" d="M214.9 195.8c.1.5.1 3.1.1 7v4.1c2.3 1.4 6.2 3.9 9.4 6.4 5.2-5.8 9.8-12.2 13.9-18.9-7.7-3.6-18.2-7.3-28.7-10.7 2.2 4.2 5.1 10 5.3 12.1z"/><path id="XMLID_205_" class="st19" d="M168.5 202.8c.7-.6 1.3-1.2 1.8-1.6-3.9-5.2-7.2-9.2-7.2-9.2-10.1 4.5-34.6 21.2-34.6 21.2 13.3-7.4 31.3-9.7 40-10.4z"/><path id="XMLID_206_" d="M170.3 201.2c-.5.5-1.1 1-1.8 1.6-6 5.3-19.3 15.6-40 23.2v6.4s23.5-7 42.7-24v-6l-.9-1.2z" fill="#1c1c1c"/><path id="XMLID_207_" d="M147 195.3c-1.9 1.3-3.9 2.5-6 3.7 2.9-1.4 6.1-3.4 9.5-6.2l-21.9 19.3v1.1s24.5-16.8 34.6-21.2c0 0 3.3 4 7.2 9.2.3.4.6.8 1 1.3 0-3.8.1-6.2.1-6.7.4-3.4 7.9-16.8 7.9-16.8-.2-1.3-.1-3.5.1-6.3-2.3-2.2-5-4.4-8.1-6.3-.2.2-6.1 16.3-24.4 28.9z" fill="#c6c6c5"/><path id="XMLID_208_" class="st3" d="M150.5 192.8c-3.3 2.9-6.6 4.9-9.5 6.2l-1.2.6c-6.6 2.8-11.2 2.4-11.2 2.4v10.1l21.9-19.3z"/><path id="XMLID_209_" class="st19" d="M88.5 202.8c6 5.3 19.3 15.6 40 23.2v-12.8c-13.3-7.4-31.3-9.7-40-10.4z"/><path id="XMLID_210_" d="M128.5 232.4s-25.7-7.7-45.3-26.4c-4.3 5.8-8.4 12-9.2 15 0 0-5.5-31.2-4.9-37.8 0 0 2-3.4 5.8-7.6-15.1 4.2-40.9 11.8-56.1 18.9 22.4 37.2 63.1 62.1 109.7 62.1v-24.2z"/><path id="XMLID_211_" d="M93.9 192s-3.3 4-7.2 9.2c.5.5 1.1 1 1.8 1.6 8.7.7 26.7 3 40 10.4 0 0-24.5-16.8-34.6-21.2z" fill="#535455"/><path id="XMLID_212_" class="st18" d="M88.5 202.8c-.7-.6-1.3-1.2-1.8-1.6-1.2 1.5-2.4 3.2-3.6 4.8 19.6 18.7 45.3 26.4 45.3 26.4V226c-20.6-7.6-33.9-17.9-39.9-23.2z"/><path id="XMLID_213_" class="st17" d="M86.7 201.2c3.9-5.2 7.2-9.2 7.2-9.2 10.1 4.5 34.6 21.2 34.6 21.2v-1.1l-21.9-19.3c3.3 2.9 6.6 4.9 9.5 6.2-2.1-1.2-4.1-2.4-5.9-3.7C92 182.9 86 167.1 85.7 166.4c-4.5 2.8-8.2 6.1-10.9 9.2-3.8 4.2-5.8 7.6-5.8 7.6-.6 6.6 4.9 37.8 4.9 37.8.9-3 5-9.1 9.2-15 1.2-1.7 2.5-3.3 3.6-4.8z"/><path id="XMLID_214_" class="st11" d="M106.5 192.8l21.9 19.3V202s-4.6.4-11.2-2.4c-.4-.2-.8-.4-1.3-.6-2.8-1.4-6-3.3-9.4-6.2z"/><path id="XMLID_215_" class="st2" d="M215.1 216h2.2c1.4 0 2.6.3 3.8.9 1.2-1.2 2.3-2.4 3.4-3.7-3.1-2.5-7-5-9.4-6.4-.1 2.8-.1 5.9 0 9.2z"/><path id="XMLID_216_" d="M171.2 202.8h1.8c0-4.6 0-7.3.1-7.3.2.2 3-9.1 7.2-15.4 0 0-.7-6.4.5-11.4h12.3v-30.3c-5 0-8.3 1.3-8.5 1.4-.9 4.4-4.3 22.5-5.3 32.9-.3 2.8-.3 5-.1 6.3 0 0-7.5 13.4-7.9 16.8-.1.5-.1 2.9-.1 6.7v46.8-46.5z" opacity=".6" fill="#c3cdc7"/><path id="XMLID_217_" d="M193.1 137.1v-8.7s-9.2-.7-9.9 5.3c0 0 .4 2.4 1.9 3.1l-.6 3c.1-.1 3.4-1.4 8.5-1.4v-1.3z" fill="#514d27"/><path id="XMLID_218_" d="M193.1 168.7h-12.3c-1.2 5-.5 11.4-.5 11.4-4.2 6.4-7 15.7-7.2 15.4 0 0-.1 2.7-.1 7.3h20.1v-34.1z" opacity=".7" fill="#839834"/><path id="XMLID_219_" d="M182.3 239.6c-1.1-1.4-1.7-3.1-1.7-4.9 0-2 .8-3.8 2-5.2-1.2-1.4-2-3.2-2-5.2 0-4.5 3.7-8.1 8.1-8.1h4.4V203h-21.9v46.4c3.2-1.1 6.3-2.4 9.4-3.8 0-.3-.1-.6-.1-.9.1-2.1.8-3.8 1.8-5.1z" fill="#774423"/><path id="XMLID_220_" class="st27" d="M193.1 168.7h12.3c1.2 5 .5 11.4.5 11.4 4.2 6.4 7 15.7 7.2 15.4 0 0 .1 2.7.1 7.3h1.8c0-4-.1-6.5-.1-7-.2-2.1-3.1-7.9-5.3-12.1-1.4-2.7-2.6-4.7-2.6-4.7.9-5.9-4.3-33.5-5.4-39.2-.1-.1-3.4-1.4-8.5-1.4v30.3z"/><path id="XMLID_221_" class="st27" d="M215 216v-13.3V216z"/><path id="XMLID_222_" d="M193.1 138.4c5 0 8.3 1.3 8.5 1.4l-.6-3c1.5-.7 1.9-3.1 1.9-3.1-.7-6-9.9-5.3-9.9-5.3v10z" fill="#635d32"/><path id="XMLID_223_" d="M213.2 195.5c-.2.2-3-9.1-7.2-15.4 0 0 .7-6.4-.5-11.4h-12.3v34.1h20.1c-.1-4.6-.1-7.3-.1-7.3z" opacity=".7" fill="#93aa3c"/><path id="XMLID_224_" fill="#8d512d" d="M193.1 202.8V216H215v-13.2h-1.8z"/><path id="XMLID_225_" class="st4" d="M215.1 216h-26.3c-4.5 0-8.1 3.7-8.1 8.1 0 2 .8 3.8 2 5.2-1.2 1.4-2 3.2-2 5.2 0 1.9.7 3.5 1.7 4.9-1.1 1.4-1.7 3.1-1.7 4.9 0 .3 0 .6.1.9 15.3-6.8 28.9-16.5 40.3-28.4-1.1-.6-2.4-.9-3.8-.9h-2.2z"/></g></g></svg>