<svg id="Layer_1" xmlns="http://www.w3.org/2000/svg" width="256" height="256"><style>.st2{fill:#c08c76}.st4{fill:#d8aa91}.st5{fill:#b8927d}.st6{fill:#d6d4d4}.st10{fill:#b27d6b}.st12{fill:#a1806e}.st13{fill:#a0a0a1}.st17{fill:#857f72}.st18{fill:#605d53}.st20{fill:#333630}.st23{fill:#292c26}</style><g id="XMLID_3_"><circle id="XMLID_181_" cx="127.8" cy="128" r="128" fill="#b2b4b5"/><g id="XMLID_1_"><path id="XMLID_2_" d="M127.8 239v17-17z" fill="none"/><path id="XMLID_99_" class="st2" d="M156.2 168c-.2.1-.4.2-.7.3-1.5.7-3.8 2-3.8 2-.8.6-1.9 1.6-3.5 2.9-1.6 1.3-4.2 2.3-6.9 2.9l5.9 22.3c-.2.6-.7 1.3-1.3 2.2 14.9-15.5 23.5-33 24.5-35.1-1.4-5-2.4-10.8-3.1-15.9-1 3.3-1.9 6.2-2.6 8.3-1.9 6.2-5.8 8.9-8.5 10.1z"/><path id="XMLID_100_" class="st2" d="M127.8 217.9v-2.5z"/><path id="XMLID_101_" class="st2" d="M127.7 239h.1-.1z"/><path id="XMLID_104_" class="st2" d="M127.8 215.3c3.4-2.1 6.5-4.4 9.5-6.9l1.5-3.1c1-6.4-1.3-20.6-2.8-28.4-4.3.6-7.9.7-8.3.7l.1 37.7c0 .1 0 0 0 0z"/><path id="XMLID_105_" d="M138.8 205.4l-1.5 3.1c3-2.5 5.9-5.2 8.5-7.9.6-.8 1.1-1.6 1.3-2.2l-5.9-22.3c-1.7.4-3.5.7-5.2 1 1.5 7.7 3.8 21.9 2.8 28.3z" fill="#a87b67"/><path id="XMLID_106_" class="st2" d="M183.8 80.9c-.8 2.5 1.5 7.3 1.5 7.3l-1.9-.5.6 4.3-2.1-1.9s-.3 5.3-.8 7.9c-.3 1.6-1.3 4.5-2 6.5-.4 2.2-.7 4.2-1 5.9-.6 3.6-2 9.3-3.8 15.5 6.1 1.7 7.8-5.1 9.6-10.4 2.1-6.1 1.6-14.5.8-19.5s1.9-5.3 1.4-13.4c-.1-.9-.3-1.6-.6-2.1-.4-.5-1.2-1.1-1.7.4z"/><path id="XMLID_107_" class="st4" d="M138.2 91c-.2.2-.5.3-.7.5.3-.2.5-.3.7-.5z"/><path id="XMLID_108_" class="st4" d="M167.6 107.9c.7-1 1.3-2 1.7-2.9.3-.7.5-1.4.7-2.3-.2.8-.4 1.6-.7 2.3-.3.9-.9 1.9-1.7 2.9z"/><path id="XMLID_109_" class="st4" d="M135.7 93c.1 0 .1 0 0 0 .1 0 .1 0 0 0z"/><path id="XMLID_110_" class="st4" d="M127.8 93.5c.3 0 1.9-.1 4.1 1.1 0 0 2.7-4.4 5.9-6.1 0-.2 0-.3.1-.5h-10v5.5z"/><path id="XMLID_111_" class="st4" d="M158.8 113.7c.3 0 .5 0 .8-.1-.3.1-.5.1-.8.1z"/><path id="XMLID_112_" class="st4" d="M136.8 92.1c.2-.2.5-.4.7-.6-.2.2-.5.4-.7.6z"/><path id="XMLID_113_" class="st4" d="M145.6 69.7c6.1-2.7 15.5 0 15.5 0s-10.9-.9-13.3.8c-2.4 1.6-11.5 3.9-20.1 3.9v3.9c.7 0 12-.1 17.8-2.7 6.1-2.7 15.5 0 15.5 0s-10.9-.9-13.3.8c-2.4 1.6-11.5 3.9-20.1 3.9V86h22.2c3.3-.8 5.8-.5 7.6 0h3.9c4.9 0 9.3 1.4 10.1 5.3h5.5c.4-1.9.9-4.4.4-5.3-.8-1.4-2-6.4-2-6.4s2.7-13.5 1.8-19.6c-1-6.1-6.5-17.6-11.2-23.9s-11.5-8.9-19-5.9c-7.3 2.9-18.6 5.7-19.3 5.9v36.6c.9-.3 12.1-.3 18-3z"/><path id="XMLID_115_" class="st4" d="M156.2 168l-.6.3.6-.3z"/><path id="XMLID_118_" class="st4" d="M179.1 104.5c-.4 1.2-.8 2.1-.8 2.1V98l-1.3 1.5c-.5-3.1 1.3-7.4 1.3-7.4l-1.1.7v.6h-5.5s1.7 11.1-2 15.4c-3.7 4.3-6 6.9-14.7 6.9s-13.9 0-18.1-7.7c-4.2-7.7-6-12.1-6-12.1s-1.2-.7-3.1-.7v39.2c.4 0 6 .3 9.4-3.7 0 0 4.3-.1 6.7 1.9v-.7s3.2 1.2 4.1 1.8c.8.6 1.1-1.4 1-3 0 0 1 4.2 1.9 5.6s1.7 3.8 1.7 3.8l-1.6-.6s1 1.6 1 1.9c0 .4-1.7 0-1.7 0v2.4s-3.6-1.4-4.9-2.6c-1.3-1.2-1 1.3-1 1.3l-3.4-1.4s-.1 2.2-1.7 1.6c-1.6-.6-3.7-.8-5-.2-1.3.6-2 1.4-6.5 1.4v33.8c.4 0 4-.1 8.3-.7 1.7-.2 3.5-.5 5.2-1 2.8-.7 5.3-1.6 6.9-2.9 1.6-1.3 2.8-2.3 3.5-2.9 0 0 3.8-7.3 3.1-11.7-.7-4.4-1.5-8.3-1.5-8.3s4.3 10.1 1.6 17c0 0 3.5-4 5.4-8.4 0 0-2.7 8.6-4.1 9.1 2.7-1.2 6.6-3.9 8.5-10.2.7-2.1 1.6-5 2.6-8.3 2.1-6.9 4.8-15.7 7.1-23.6 1.8-6.3 3.2-11.9 3.8-15.5.2-1.6.5-3.6.9-5.8zm-29.9 26c-2.4-3.5-6.5-9.8-10.4-11 0 0 6.4 1.7 10.9 9.1 4.6 7.4 7 9.7 7.7 15.7.1 0-5.4-9.7-8.2-13.8z"/><path id="XMLID_119_" class="st5" d="M156.2 168c1.4-.5 4.1-9.1 4.1-9.1-1.9 4.4-5.4 8.4-5.4 8.4 2.7-6.9-1.6-17-1.6-17s.8 3.8 1.5 8.3c.7 4.4-3.1 11.7-3.1 11.7s2.3-1.3 3.8-2c.3-.2.5-.2.7-.3z"/><path id="XMLID_121_" class="st6" d="M132.4 10.1l-2.9 6.2c3.1-1.9 7.2-6.2 7.2-6.2l-1.5 6.7 3.6-3.8c1.7-1.9 7.2-1 7.2-1l-1.5 5c2.2-2.6 6.2-2.6 6.2-2.6s13.2 2.8 23 19.2c-8-6-17.5-7.7-17.5-7.7h-6.9l2.4-2.4c-2.2 0-7.7 3.4-7.7 3.4v-1.7l-5.7 2.4v-2.4l-6.2 4.2 1.9-4.2c-3.4 2.2-5.9 7.6-6.3 8.3v2.4c.7-.2 12-3 19.3-5.9 7.5-3 14.4-.5 19 5.9s10.2 17.9 11.2 23.9c1 6.1-1.8 19.6-1.8 19.6s1.2 5 2 6.4c.5.9 0 3.4-.4 5.3h.3v1.6l1.1-.7s-1.8 4.4-1.3 7.4l1.3-1.5v8.6s.3-.9.8-2.1c.7-2 1.7-4.9 2-6.5.5-2.6.8-7.9.8-7.9l2.1 1.9-.6-4.3 1.9.5s-2.3-4.8-1.5-7.3c.5-1.6 1.3-1 1.9-.5 0-2.1 3.1-12.9 2.9-14.8s.6-10.9-3.5-17.6c-4.2-6.7-7.3-13.9-10.7-18-3.4-4.1-15.5-21.7-46.6-21.7v6.9l4.5-5z"/><path id="XMLID_122_" class="st5" d="M147.9 70.5c2.4-1.6 13.3-.8 13.3-.8s-9.4-2.7-15.5 0c-5.9 2.6-17.1 2.7-17.8 2.7v1.9c8.5 0 17.6-2.2 20-3.8z"/><path id="XMLID_123_" class="st5" d="M147.9 76.3c2.4-1.6 13.3-.8 13.3-.8s-9.4-2.7-15.5 0c-5.9 2.6-17.1 2.7-17.8 2.7v1.9c8.5.1 17.6-2.1 20-3.8z"/><path id="XMLID_124_" class="st6" d="M134.3 142.5c1.3-.6 3.5-.4 5 .2 1.6.6 1.7-1.6 1.7-1.6l3.4 1.4s-.4-2.5 1-1.3c1.3 1.2 4.9 2.6 4.9 2.6v-2.4s1.7.4 1.7 0-1-1.9-1-1.9l1.6.6s-.7-2.4-1.7-3.8-1.9-5.6-1.9-5.6c.1 1.6-.1 3.6-1 3-.8-.6-4.1-1.8-4.1-1.8v.7c-2.4-2-6.7-1.9-6.7-1.9-3.4 4.1-9 3.7-9.4 3.7v9.5c4.5 0 5.2-.8 6.5-1.4z"/><path id="XMLID_125_" class="st5" d="M149.8 128.6c-4.6-7.4-10.9-9.1-10.9-9.1 3.8 1.2 8 7.5 10.4 11 2.8 4.1 8.3 13.8 8.3 13.8-.8-6-3.3-8.3-7.8-15.7z"/><path id="XMLID_126_" d="M127.8 21.3v12.1c.3-.7 2.9-6.1 6.3-8.3l-1.9 4.2 6.2-4.2v2.4l5.7-2.4v1.7s5.5-3.4 7.7-3.4l-2.4 2.4h6.9s9.5 1.7 17.5 7.7c-9.8-16.4-23-19.2-23-19.2s-4 0-6.2 2.6l1.5-5s-5.5-1-7.2 1l-3.6 3.8 1.5-6.7s-4.1 4.3-7.2 6.2l2.9-6.2-4.6 5.2v6.1z" fill="#b0b0b0"/><path id="XMLID_127_" class="st6" d="M150 85.8h7.6c-1.8-.5-4.4-.7-7.6 0z"/><path id="XMLID_128_" class="st6" d="M138.7 88h-.9c0 .1-.1.3-.1.5.4-.2.7-.4 1-.5z"/><path id="XMLID_129_" class="st6" d="M150.1 87.6c.5 0 .9-.1 1.3-.1-.3.1-.8.1-1.3.1z"/><path id="XMLID_132_" class="st6" d="M154.7 87.4c.9 0 1.9 0 2.8.1-.9 0-1.9-.1-2.8-.1z"/><path id="XMLID_133_" class="st6" d="M144.6 88.4c.6-.1 1.2-.2 1.7-.3-.5.1-1.1.2-1.7.3z"/><path id="XMLID_134_" class="st6" d="M153.3 87.4h1.4-1.4z"/><path id="XMLID_135_" class="st6" d="M138.5 90.9c-.1 0-.1.1-.2.1 0 0 .1-.1.2-.1z"/><path id="XMLID_136_" class="st6" d="M143.1 88.8c.5-.1 1-.3 1.6-.4-.6.1-1.1.2-1.6.4z"/><path id="XMLID_139_" d="M136.9 108.1c4.2 7.7 9.3 7.7 18.1 7.7 8.7 0 11-2.6 14.7-6.9 3.7-4.3 2-15.4 2-15.4h5.5v-2.2h-5.7c-.7-3.8-5.1-5.3-10.1-5.3h-33.7v2h10.9c-.3.1-.6.3-1 .5-3.2 1.8-5.9 6.1-5.9 6.1-2.2-1.2-3.8-1.1-4.1-1.1v1.8c1.9 0 3.1.7 3.1.7s2 4.5 6.2 12.1zM135.7 93c.1 0 .1 0 0 0 .3-.3.7-.6 1.1-.9.2-.2.5-.4.7-.6.2-.2.5-.3.7-.5.1 0 .1-.1.2-.1 1-.6 2-1.2 2.8-1.5.2-.1.3-.1.4-.2.1-.1.3-.1.3-.1.3-.1.7-.2 1-.3.5-.1 1-.3 1.6-.4.6-.1 1.2-.2 1.7-.3.4-.1.7-.1 1.1-.2.9-.1 1.8-.2 2.5-.3h.2c.5 0 .9-.1 1.3-.1 1.1-.1 1.8-.1 1.8-.1h1.4c.9 0 1.9 0 2.8.1s1.8.1 2.7.2c4.8.5 8.7 1.5 9.4 3.6.7 1.9 1 4.4 1 6.9v.9c-.1 1.2-.2 2.5-.4 3.6-.2.8-.4 1.6-.7 2.3-.4.9-1 1.9-1.7 2.9-.2.2-.4.5-.6.7-2 2.4-4.8 4.7-7.5 5.1-.3 0-.5.1-.8.1h-8.8c-3.6-.2-6-1.2-8.1-3-.2-.2-.4-.3-.6-.5-.5-.5-1.1-1.2-1.6-1.8-.3-.4-.7-.9-1-1.4-.3-.5-.7-1-1-1.5-1.9-3.1-3.5-6.7-3.5-9.7.2-1.1.8-2 1.6-2.9z" fill="#907047"/><path id="XMLID_140_" d="M137.7 105.4c.3.5.7 1 1 1.5.3.5.7 1 1 1.4.5.7 1 1.3 1.6 1.8.2.2.4.4.6.5 2.1 1.9 4.5 2.9 8.1 3h8.8c.3 0 .5 0 .8-.1 2.7-.4 5.5-2.6 7.5-5.1.2-.2.4-.5.6-.7.7-1 1.3-2 1.7-2.9.3-.7.5-1.4.7-2.3.2-1.1.4-2.3.4-3.6V98c0-2.5-.3-5-1-6.9-.7-2.1-4.6-3.2-9.4-3.6-.9-.1-1.8-.1-2.7-.2s-1.8-.1-2.8-.1h-1.4s-.7 0-1.8.1c-.4 0-.8.1-1.3.1h-.2c-.8.1-1.6.2-2.5.3-.4 0-.7.1-1.1.2-.6.1-1.2.2-1.7.3-.5.1-1.1.2-1.6.4-.4.1-.7.2-1 .3-.1 0-.2.1-.3.1-.1.1-.3.1-.4.2-.7.3-1.8.9-2.8 1.5-.1 0-.1.1-.2.1-.2.2-.5.3-.7.5-.3.2-.5.4-.7.6-.4.3-.7.6-1 .9-.9.9-1.5 1.8-1.5 2.8-.1 3.2 1.4 6.7 3.3 9.8z" opacity=".6" fill="#844530"/><path id="XMLID_141_" class="st10" d="M108.3 198.4l5.9-22.3c-2.8-.7-5.3-1.6-6.9-2.9-1.6-1.3-2.8-2.3-3.5-2.9 0 0-2.3-1.3-3.8-2l-.6-.3c-2.7-1.2-6.6-3.9-8.5-10.2-.7-2.1-1.6-5-2.6-8.3-.7 5.2-1.8 10.9-3.1 15.9 1 2.1 9.6 19.6 24.5 35.1-.7-.8-1.1-1.6-1.4-2.1z"/><path id="XMLID_142_" class="st10" d="M127.8 215.4v-37.7s-3.8-.1-8.3-.7c-1.4 7.8-3.8 21.9-2.8 28.4l1.5 3.1c3 2.4 6.1 4.8 9.6 6.9-.1-.1-.1 0 0 0v4.7-4.7z"/><path id="XMLID_143_" class="st10" d="M127.8 224.9c-.1 0-.1 0 0 0V239v-14.1z"/><path id="XMLID_144_" d="M119.4 177c-1.7-.2-3.5-.5-5.2-1l-5.9 22.3c.2.6.7 1.3 1.3 2.2 2.6 2.7 5.5 5.4 8.5 7.9l-1.5-3.1c-.9-6.3 1.4-20.5 2.8-28.3z" fill="#906958"/><path id="XMLID_145_" class="st10" d="M76.4 104.5c-.7-2-1.7-4.9-2-6.5-.5-2.6-.8-7.9-.8-7.9l-2 1.9.6-4.3-1.9.5s2.3-4.8 1.5-7.3c-.5-1.6-1.3-1-1.9-.5-.3.5-.5 1.2-.6 2.1-.5 8.1 2.2 8.5 1.4 13.4s-1.3 13.4.8 19.5c1.8 5.4 3.5 12.2 9.6 10.4-1.8-6.3-3.2-11.9-3.8-15.5-.2-1.6-.5-3.6-.9-5.8z"/><path id="XMLID_146_" class="st2" d="M85.5 102.7c.2.8.4 1.6.7 2.3.4.9 1 1.9 1.7 2.9-.7-1-1.3-2-1.7-2.9-.3-.7-.6-1.4-.7-2.3z"/><path id="XMLID_147_" class="st2" d="M97.6 87.5c-.3 0-.6 0-.9.1.3 0 .6-.1.9-.1z"/><path id="XMLID_148_" class="st2" d="M84 91.1c.7-3.8 5.1-5.3 10.1-5.3H98c1.8-.5 4.3-.8 7.6 0h22.3v-5.7c-8.6 0-17.7-2.2-20.1-3.9-2.4-1.6-13.3-.8-13.3-.8s9.4-2.7 15.5 0 17.9 2.7 17.9 2.7v-3.9c-8.6 0-17.7-2.2-20.1-3.9-2.4-1.6-13.3-.8-13.3-.8s9.4-2.7 15.5 0 17.9 2.7 17.9 2.7V35.8s-11.8-2.9-19.3-5.9c-7.5-3-14.4-.5-19 5.9s-10.4 17.9-11.3 24c-1 6.1 1.8 19.6 1.8 19.6s-1.2 5-2 6.4c-.5.9 0 3.4.4 5.3H84z"/><path id="XMLID_149_" class="st2" d="M118.2 91.7c.2.2.5.4.7.5-.2-.1-.4-.3-.7-.5z"/><path id="XMLID_150_" class="st2" d="M119.8 93.1c.3.3.6.7.9 1-.3-.4-.6-.7-.9-1z"/><path id="XMLID_151_" class="st2" d="M117.7 91.3c-.1-.1-.3-.2-.4-.3.1.1.2.2.4.3z"/><path id="XMLID_153_" class="st2" d="M127.7 88h-10c0 .1.1.3.1.5 3.2 1.8 5.9 6.1 5.9 6.1 2.3-1.3 4-1.1 4.1-1.1l-.1-5.5z"/><path id="XMLID_156_" class="st2" d="M99.3 168c-1.4-.5-4.1-9.1-4.1-9.1 1.9 4.4 5.4 8.4 5.4 8.4-2.7-6.9 1.6-17 1.6-17s-.8 3.8-1.5 8.3c-.7 4.4 3.1 11.7 3.1 11.7.8.6 1.9 1.6 3.5 2.9 1.6 1.3 4.2 2.3 6.9 2.9 1.7.4 3.5.7 5.2 1 4.5.6 8.3.7 8.3.7v-33.9c-4.6 0-5.2-.8-6.5-1.4-1.3-.6-3.5-.4-5 .2s-1.7-1.6-1.7-1.6l-3.4 1.4s.4-2.5-1-1.3c-1.3 1.2-4.9 2.6-4.9 2.6v-2.4s-1.7.4-1.7 0 1-1.9 1-1.9l-1.6.6s.7-2.4 1.7-3.8 1.9-5.6 1.9-5.6c-.1 1.6.1 3.6 1 3 .8-.6 4.1-1.8 4.1-1.8v.7c2.4-2 6.7-1.9 6.7-1.9 3.5 4.2 9.4 3.7 9.4 3.7V95.3c-1.9 0-3.2.7-3.2.7s-1.8 4.4-6 12.1c-4.2 7.7-9.3 7.7-18.1 7.7s-11-2.6-14.7-6.9c-3.7-4.3-2-15.4-2-15.4h-5.5v-.6l-1-.9s1.8 4.4 1.3 7.4L77.2 98v8.6s-.3-.9-.8-2.1c.4 2.2.7 4.2 1 5.9.6 3.6 2 9.3 3.8 15.5 2.2 7.9 4.9 16.7 7.1 23.6 1 3.3 1.9 6.2 2.6 8.3 1.9 6.3 5.7 9 8.4 10.2zm6.4-39.4c4.6-7.4 10.9-9.1 10.9-9.1-3.8 1.2-8 7.5-10.4 11-2.8 4.1-8.3 13.8-8.3 13.8.8-6 3.3-8.3 7.8-15.7z"/><path id="XMLID_157_" class="st2" d="M100 168.2c-.2-.1-.5-.2-.6-.3.1.2.4.3.6.3z"/><path id="XMLID_158_" class="st12" d="M100.7 158.5c.7-4.4 1.5-8.3 1.5-8.3s-4.3 10.1-1.6 17c0 0-3.5-4-5.4-8.4 0 0 2.7 8.6 4.1 9.1l.6.3c1.5.7 3.8 2 3.8 2 .1 0-3.7-7.2-3-11.7z"/><path id="XMLID_159_" class="st13" d="M71.7 80.9c.8 2.5-1.5 7.3-1.5 7.3l1.9-.5-.5 4.3 2.1-1.9s.3 5.3.8 7.9c.3 1.6 1.3 4.5 2 6.5.4 1.2.8 2.1.8 2.1V98l1.3 1.5c.5-3.1-1.3-7.4-1.3-7.4l1.1.7v-1.6h.3c-.4-1.9-.9-4.4-.4-5.3.8-1.4 2-6.4 2-6.4S77.6 66 78.5 59.9c1-6.1 6.5-17.6 11.2-23.9s11.5-8.9 19-5.9S128 36 128 36v-2.3s-2.7-6-6.3-8.4l1.9 4.2-6.2-4.2v2.4l-5.7-2.4V27s-5.5-3.4-7.7-3.4l2.4 2.4h-6.9S90 27.7 82 33.7c9.8-16.4 23-19.2 23-19.2s4 0 6.2 2.6l-1.5-5s5.5-1 7.2 1l3.6 3.8-1.5-6.7s4.1 4.3 7.2 6.2l-2.9-6.2 4.7 5.3V8.4C96.9 8.4 84.8 26 81.4 30.1c-3.4 4.2-6.5 11.3-10.7 18s-3.4 15.6-3.5 17.6 2.9 12.7 2.9 14.8c.3-.5 1.1-1.1 1.6.4z"/><path id="XMLID_160_" class="st12" d="M127.8 72.4s-11.8 0-17.9-2.7c-6.1-2.7-15.5 0-15.5 0s10.9-.9 13.3.8c2.4 1.6 11.5 3.9 20.1 3.9v-2z"/><path id="XMLID_161_" class="st12" d="M127.8 78.3s-11.8 0-17.9-2.7c-6.1-2.7-15.5 0-15.5 0s10.9-.9 13.3.8c2.4 1.6 11.5 3.9 20.1 3.9v-2z"/><path id="XMLID_162_" class="st13" d="M127.8 134.5s-5.9.5-9.4-3.7c0 0-4.3-.1-6.7 1.9v-.7s-3.2 1.2-4.1 1.8c-.8.6-1.1-1.4-1-3 0 0-1 4.2-1.9 5.6s-1.7 3.8-1.7 3.8l1.6-.6s-1 1.6-1 1.9c0 .4 1.7 0 1.7 0v2.4s3.6-1.4 4.9-2.6c1.3-1.2 1 1.3 1 1.3l3.4-1.4s.1 2.2 1.7 1.6 3.7-.8 5-.2c1.3.6 2 1.4 6.5 1.4v-9.5z"/><path id="XMLID_163_" class="st12" d="M98 144.3s5.5-9.6 8.3-13.8c2.4-3.5 6.5-9.8 10.4-11 0 0-6.4 1.7-10.9 9.1-4.6 7.4-7.1 9.7-7.8 15.7z"/><path id="XMLID_164_" d="M127.8 21.3v-6l-4.7-5.3 2.9 6.2c-3.1-1.9-7.2-6.2-7.2-6.2l1.5 6.7-3.6-3.8c-1.7-1.9-7.2-1-7.2-1l1.5 5c-2.2-2.6-6.2-2.6-6.2-2.6s-13.2 2.8-23 19.2c8-6 17.5-7.7 17.5-7.7h6.9l-2.4-2.4c2.2 0 7.7 3.4 7.7 3.4v-1.7l5.7 2.4v-2.4l6.2 4.2-1.9-4.2c3.6 2.4 6.3 8.4 6.3 8.4V21.3z" fill="#898a8b"/><path id="XMLID_165_" class="st13" d="M98 85.8h7.6c-3.3-.7-5.9-.5-7.6 0z"/><path id="XMLID_166_" class="st13" d="M117.3 91c-.2-.1-.4-.3-.6-.4.1.2.3.3.6.4z"/><path id="XMLID_167_" class="st13" d="M102.2 87.4c-1.6 0-3.1 0-4.6.1 1.5-.1 3-.1 4.6-.1z"/><path id="XMLID_168_" class="st13" d="M116.8 88c.3.1.6.3 1 .5 0-.2 0-.3-.1-.5h-.9z"/><path id="XMLID_169_" class="st13" d="M109.2 88.1l1.5.3-1.5-.3z"/><path id="XMLID_170_" class="st13" d="M111.1 88.5c.5.1.9.2 1.4.3-.5-.1-1-.2-1.4-.3z"/><path id="XMLID_171_" class="st13" d="M104 87.5c.4 0 .8.1 1.3.1-.4 0-.9 0-1.3-.1z"/><path id="XMLID_172_" class="st13" d="M105.5 87.7c.7.1 1.6.2 2.4.3-.8-.2-1.6-.3-2.4-.3z"/><path id="XMLID_175_" d="M127.8 93.5c-.1 0-1.8-.2-4.2 1.1 0 0-2.7-4.4-5.9-6.1-.3-.2-.6-.3-1-.5h11v-2.2H93.9c-4.9 0-9.3 1.4-10.1 5.3H78v2.2h5.5s-1.7 11.1 2 15.4c3.7 4.3 6 6.9 14.7 6.9s13.9 0 18.1-7.7c4.2-7.7 6-12.1 6-12.1s1.2-.7 3.2-.7v-1.6zm-7.3 6.2c-.3.8-.6 1.7-1 2.5-.3.5-.5 1.1-.8 1.6-.1.3-.3.5-.5.8-.8 1.3-1.6 2.6-2.5 3.7-2.8 3.6-5.7 5.4-11.3 5.4h-7.8c-2.9 0-6.1-2.4-8.3-5.1-.2-.2-.4-.5-.6-.7-.7-1-1.3-2-1.7-2.9-.3-.7-.5-1.4-.7-2.3-.2-1.1-.4-2.3-.4-3.6-.1-2.8.2-5.7 1-7.8.8-2.3 5.4-3.3 10.7-3.7.3 0 .6 0 .9-.1 1.5-.1 3.1-.1 4.6-.1 0 0 .7 0 1.8.1.4 0 .8.1 1.3.1h.2c.7.1 1.6.2 2.4.3.4.1.8.1 1.2.2l1.5.3c.1 0 .3.1.4.1.5.1.9.2 1.4.3.4.1.7.2 1 .3.1 0 .2.1.3.1.7.3 1.7.8 2.8 1.4.2.1.4.3.6.4.1.1.3.2.4.3.2.1.4.3.5.4.2.2.5.4.7.5.3.2.6.5.8.7.3.3.6.7.9 1 .4.6.6 1.1.6 1.7.3 1.4.1 2.8-.4 4.1z" fill="#785d39"/><path id="XMLID_176_" d="M119.8 93.1c0-.1 0-.1 0 0-.1-.1-.1-.1 0 0-.3-.3-.6-.6-.9-.8-.2-.2-.5-.4-.7-.5-.2-.1-.4-.3-.5-.4-.1-.1-.3-.2-.4-.3-.2-.1-.4-.3-.6-.4-1.1-.7-2.1-1.2-2.8-1.4-.1-.1-.3-.1-.3-.1-.3-.1-.7-.2-1-.3-.4-.1-.9-.2-1.4-.3-.1 0-.2-.1-.4-.1l-1.5-.3c-.4-.1-.8-.1-1.2-.2-.9-.1-1.7-.2-2.4-.3h-.2c-.5 0-.9-.1-1.3-.1-1.1-.1-1.8-.1-1.8-.1-1.6 0-3.1 0-4.6.1-.3 0-.6 0-.9.1-5.6.3-10.1 1.3-10.9 3.6-.7 2.1-1.1 5-1 7.8.1 1.2.2 2.5.4 3.6.2.8.4 1.6.7 2.3.4.9 1 1.9 1.7 2.9.2.2.4.5.6.7 2.2 2.7 5.3 5.1 8.3 5.1h7.8c5.5 0 8.5-1.8 11.3-5.4.9-1.1 1.7-2.4 2.5-3.7.2-.3.3-.5.5-.8.3-.5.6-1.1.8-1.6.4-.8.7-1.7 1-2.5.5-1.4.7-2.7.7-4 0-.6-.2-1.1-.6-1.7l-.9-.9z" opacity=".6" fill="#6d3723"/><path id="XMLID_177_" class="st17" d="M166 227.1l-2.7-1c-1.3-4.5-2.5-8.2-3.7-11.4-8.1 1-30.4 9.6-31.8 10.1v31.1c14.7 0 28.8-2.5 41.9-7 3.4-16.4 6.5-34 7.9-49.4-4.8 13.3-11.6 27.6-11.6 27.6z"/><path id="XMLID_178_" class="st17" d="M127.8 217.8v-2.5 2.5z"/><path id="XMLID_179_" class="st18" d="M127.8 224.9c-.1 0-.1 0 0 0-.1 0-.1 0 0 0z"/><path id="XMLID_180_" class="st18" d="M152.5 200.3l-24.7 24.5c1.4-.6 23.7-9.1 31.8-10.1-4-10.8-7.1-14.4-7.1-14.4z"/><path id="XMLID_182_" d="M137.4 208.5c-3 2.5-6.2 4.8-9.5 6.9v9.6l24.7-24.5s3.1 3.6 7.1 14.4c1.2 3.1 2.4 6.9 3.7 11.4l2.7 1s6.7-14.3 11.5-27.5c.9-10.2 1.1-19.4.1-26.7-.8-1.3-1.5-1.9-1.9-2.2-.1-.1-.2-.1-.3-.2 0 0 .1.1.3.2.4.3.9.6 1.3.9l-.7-1.1c-1.1-1.5-3.3-3-5.9-5.3 0 0 0 .1-.1.2-1 2.1-9.6 19.6-24.5 35.1-2.7 2.6-5.5 5.2-8.5 7.8z" fill="#a8a293"/><path id="XMLID_184_" class="st20" d="M194.1 181.1l17 44c9.6-8.3 18-18 24.8-28.7-2.1-.5-4.1-1.1-5.9-1.7-8.6-2.8-22.2-7.1-35.9-13.6z"/><path id="XMLID_185_" class="st20" d="M175.8 170.7c-.2-.1-.3-.2-.3-.2.1.1.2.2.3.2z"/><path id="XMLID_186_" class="st20" d="M177.7 172.9c0-.2 0-.4-.1-.5l-.5-.8c-.4-.3-.9-.6-1.3-.9.4.3 1.1 1 1.9 2.2z"/><path id="XMLID_187_" d="M193.8 180.2c-6.8-5.3-17.1-9.5-17.4-9.7l.7 1.1.5.8c0 .2 0 .4.1.5.9 7.3.8 16.5-.1 26.7-1.4 15.4-4.4 33-7.9 49.4 15.4-5.3 29.4-13.5 41.5-23.9l-17-44-.4-.9z" fill="#494b44"/><path id="XMLID_188_" class="st18" d="M127.7 215.3v2.5-2.5c0 .1 0 0 0 0z"/><path id="XMLID_189_" class="st18" d="M127.7 224.9c-1.2-.5-23.7-9.1-31.8-10.1-1.2 3.1-2.4 6.9-3.7 11.4l-2.7 1s-6.7-14.3-11.5-27.5c1.4 15.4 4.4 33 7.9 49.4 13.1 4.5 27.2 7 41.9 7v-17l-.1-14.2z"/><path id="XMLID_190_" d="M127.7 224.9c.1 0 .1 0 0 0 .1 0 .1 0 0 0 .1 0 .1 0 0 0L103 200.3s-3.1 3.6-7.1 14.4c8.1 1.1 30.6 9.7 31.8 10.2z" fill="#4b4941"/><path id="XMLID_191_" class="st17" d="M103 200.3l24.8 24.6v-9.4c-3.4-2.1-6.5-4.4-9.5-6.9s-5.9-5.2-8.5-7.9c-14.9-15.5-23.5-33-24.5-35.1-.1-.1-.1-.2-.1-.2-2.6 2.3-4.7 3.8-5.9 5.3l-.7 1.1c.4-.3.9-.6 1.3-.9.2-.1.3-.2.3-.2-.1.1-.2.1-.3.2-.4.3-1.1.9-1.9 2.2-.9 7.3-.8 16.5.1 26.7 4.8 13.2 11.5 27.5 11.5 27.5l2.7-1c1.3-4.5 2.5-8.2 3.7-11.4 3.9-11 7-14.6 7-14.6z"/><path id="XMLID_192_" class="st23" d="M25.4 194.7c-1.8.6-3.8 1.1-5.9 1.7 6.8 10.8 15.2 20.5 24.8 28.7l17-44c-13.6 6.5-27.2 10.8-35.9 13.6z"/><path id="XMLID_193_" class="st23" d="M79.7 170.7c-.4.3-.9.6-1.3.9l-.5.8c0 .2 0 .4-.1.5.8-1.2 1.5-1.9 1.9-2.2z"/><path id="XMLID_194_" class="st23" d="M79.7 170.7c.1-.1.2-.1.3-.2.1 0-.1.1-.3.2z"/><path id="XMLID_195_" class="st20" d="M77.8 172.9c0-.2 0-.4.1-.5l.5-.8.7-1.1c-.4.1-10.6 4.3-17.4 9.7l-.3.9-17 44c12.1 10.4 26.1 18.5 41.5 23.9-3.4-16.4-6.5-34-7.9-49.4-.9-10.2-1.1-19.4-.2-26.7z"/></g></g></svg>