<svg xmlns="http://www.w3.org/2000/svg" width="256" height="256"><circle fill="#B1B3B5" cx="128" cy="128" r="128"/><path fill="#494F58" d="M140.6 218.1l-8.1 16 15.7 20.4c19.4-3.1 37.3-10.5 52.7-21.2-17.6-1-37.8-2.4-37.8-2.4l-22.5-12.8zm.5-5.8l.2-.6h-.4l.2.6z"/><path fill="#140E0C" d="M162.2 178.8c11.7-6.3 7.4-16.3 7.4-16.3-1.4-2.1-3.5-3.8-5.5-5.1-.7.9-1.3 1.8-1.9 2.6-.6 4.9-1.1 12.1 0 18.8z"/><path fill="#C08C76" d="M162.2 159.9c-.9 1.2-1.6 2.3-2.1 3.1-2.9 5-16 10.3-16 10.3l-6.3 3.2-1.8-1.1-3.7 2.1-1.6-2.4-2.6 1.1v8.6s14 .4 25-2.2l.3-.6c3.8-.9 6.7-2 9-3.2-1.3-6.7-.8-13.9-.2-18.9z"/><path fill="#4E4734" d="M182.4 122.2c-2.9 2.5-4.2 4-7.1 3-.5 5.4-.8 11.4-1.4 15-.1 1-.5 2-1 3.2h1.5v-3.2l4.7 1.3c-2.1-1.6-4.2-9.5-4.2-9.5 1.3 3.2 6.8 3.7 6.8 3.7l-4.2-7.1h7.1l-.8-1.8 2.9-1.3s-.8-1.8-3.2-3.3c-.2-.1-.4-.4-.5-.8 0 .2-.3.5-.6.8zM148 12.6c-7.4-2-11.4 1.7-13.5 6.3 2.2-1.6 4.6-2.6 7-3.3 8.4-3.9 19.1 2.7 19.1 2.7-3.7-1.3-6.5-1-8.8 0 5.5.1 10.7 2 13.7 3.4 1.5.6 2.7 1.3 3.5 1.8.3.1.5.3.7.5l.1.1-.1-.1c-.1-.1-.4-.3-.7-.5-.3-.2-.6-.3-.9-.5-2-.6-4-.8-5.8-.8 1.4.5 2.7 1.1 3.9 1.8 6.9 2.2 11.3 7.4 11.3 7.4-1.7-.9-3.2-1.4-4.4-1.7 1.2 1.4 2.1 2.8 3 4.2 10.6 6.8 14 19.8 11.2 15.3-1.7-2.7-4.7-4.4-7.3-5.3.1.6.3 1.1.4 1.6 9.2 7.5 11 23.9 11 23.9-1.5-3.9-5-6.2-7.4-7.4 2.3 5.3 3.3 9.8 3.3 9.8s-1.2-1.6-2.6-3.5c1.3 4.2 2 8.5 2.3 11.2.1.8.2 1.8.3 2.8 0 0-.1-1.1-.3-2.8-.8-5-3.1-6.4-3.1-6.4.3.9.5 2 .7 3.1.5 2.4.9 4.4 1.2 5.5.1.3.2.5.2.7.1.5 0 .2-.2-.7-.1-.3-.2-.6-.4-1 .3 2 .5 3.9.6 5.5.9 0 1.9.8 2.9 2.8.2.3.3.6.4.9 2.2-6.2 2.2-17.6 2.2-17.6 7.6-5-2.1-29.2-4.2-33.9-2.1-4.7-13.7-11.6-13.7-11.6s-8.9-9.2-11.8-12.1-10.5-3.2-19.7-6.8C132.7 4.5 128 8 128 8v6.2c8.7-8.4 20-1.6 20-1.6z"/><path fill="#C08C76" d="M185.9 86.5c.2 2.1.3 3.5.3 3.5-5.1.7-6.9 7.8-7.3 9.5 0 .1 0 .2-.1.4v2.2c0 2.9 0 8.9-1.7 12.6-.8 1.7-1.3 5.8-1.7 10.5 2.9.9 4.2-.5 7.1-3 .3-.2.6-.5.8-.8 3.1-3.3 5.6-9.2 7-14.8 1.5-5.7 1.2-11.1-1.2-16.3-.1-.3-.3-.6-.4-.9-1-2.2-2-2.9-2.8-2.9z"/><path fill="#D7A990" d="M139.6 149.9c-2.4 1.8-2.1 5.5-2.1 5.5 8.2 2.6 10.5-3.9 12.1-6.6s.5-6 .3-7.4c-.3-1.3-6.6-8.2-11.6-10.3-5-2.1-10.3.3-10.3.3v15.2c8.2 0 14.2-3.4 14.2-3.4s-.3 4.9-2.6 6.7z"/><path fill="#D7A990" d="M143.8 125.5c3.9 1.6 8.7 5.5 8.7 7.5.1 1.9 1.5 10.4 1.5 10.4 11.8-4.5 18.9-31.6 21.4-35.5 2.5-3.9 1.7-15.3 0-19.2-1.7-3.9-1.2-9.2-.1-12.6s-5.5-24.2-6-26.6-6.8-12.1-12.6-14.7c-5.8-2.6-28.7 2.6-28.7 2.6v84.8c1.8 0 4.7-2.2 4.7-2.2.8 1.5 7.1 3.9 11.1 5.5zM134 79.7s6.6-3.7 12.4-3.2c5.8.5 19.7 3.2 19.7 3.2h-5.5l5.5 2.4h-6.3s-12.1-.8-16 0c-4 .8-10.8 3.4-9.8-2.4zm44.8 19.8c0 .2-.1.3-.1.4.1-.2.1-.3.1-.4z"/><path fill="#564F3B" d="M173 29.9c1.2.3 2.7.8 4.4 1.7 0 0-4.5-5.1-11.3-7.4 2.8 1.6 5.1 3.6 6.9 5.7zm0 18.5c5.2 3.1 8.7 8.8 10.9 13.9 2.4 1.2 5.8 3.5 7.4 7.4 0 0-1.9-16.4-11-23.9.6 3 .6 5 .6 5-2.9-2.6-7.9-2.4-7.9-2.4zm-10.8-26c1.8 0 3.8.2 5.8.8-3.2-1.4-7.4-1.4-7.4-1.4.6.2 1.1.4 1.6.6z"/><path fill="#564F3B" d="M144.8 27.1c5.9-9.6 15.2-7.5 20.7-5.2-2.9-1.4-8.1-3.4-13.7-3.4-5.2 2.3-7 8.6-7 8.6zm42.4 22.4c2.8 4.5-.6-8.5-11.2-15.3 2 3.5 3.2 7 3.9 10 2.6.9 5.6 2.5 7.3 5.3zm-7.4 12.6c1.5 2.1 2.9 6.8 4 11.2 0 0 2.3 1.4 3.1 6.4-.3-2.7-1-7-2.3-11.2-3-4-7.1-9.6-4.8-6.4zm7.1 17.7c.2 1.7.3 2.8.3 2.8-.1-1.1-.2-2-.3-2.8zm-3.1-6.5c.3 1.1.5 2.1.7 3.1-.2-1.1-.4-2.1-.7-3.1zm-51.6-41.5c1.4-9.5 5.1-14.2 9.3-16.1-2.4.6-4.8 1.6-7 3.3-2.5 5.7-2.3 12.8-2.3 12.8zm48.1 43.1c2.6 6 3.7 11.5 3.7 11.5l-3.2 4.8-2.1-1.8v10.5s0-.1.1-.4c.4-1.7 2.2-8.9 7.3-9.5 0 0-.1-1.4-.3-3.5-.1-1.6-.3-3.5-.6-5.5-1.8-3.8-7.1-11.1-4.9-6.1z"/><path fill="#615B4D" d="M168.9 23.7c.3.2.6.4.7.5-.2-.2-.4-.4-.7-.5zm17 58.9c0-.2-.1-.4-.2-.7.1.9.2 1.2.2.7zm-10.5 42.6c.4-4.6.9-8.8 1.7-10.5 1.7-3.7 1.7-9.7 1.7-12.6V89.4l2.1 1.8 3.2-4.8s-1.1-5.5-3.7-11.5c-2.2-5.1 3.1 2.2 4.9 6 .2.4.3.7.4 1-.2-1.1-.6-3.1-1.2-5.5-.2-1-.5-2-.7-3.1-1.1-4.4-2.5-9.1-4-11.2-2.3-3.2 1.8 2.4 4.8 6.5 1.4 2 2.6 3.5 2.6 3.5s-1-4.5-3.3-9.8c-2.2-5.1-5.8-10.8-10.9-13.9 0 0 5-.3 7.9 2.4 0 0-.1-2-.6-5-.1-.5-.2-1.1-.4-1.6-.7-2.9-1.9-6.5-3.9-10-.8-1.4-1.8-2.9-3-4.2-1.8-2.2-4.1-4.1-6.9-5.7-1.2-.7-2.5-1.3-3.9-1.8-.5-.2-1-.4-1.6-.5 0 0 4.2 0 7.4 1.4.3.1.6.3.9.5-.8-.5-2-1.1-3.5-1.8-5.4-2.3-14.8-4.4-20.7 5.2 0 0 1.8-6.3 7-8.6 2.3-1 5.1-1.3 8.8 0 0 0-10.7-6.6-19.1-2.7-4.2 2-7.9 6.6-9.3 16.1 0 0-.2-7.2 2.3-12.9 2.1-4.6 6-8.3 13.5-6.3 0 0-11.3-6.8-20 1.6v23.2s22.9-5.3 28.7-2.6c5.8 2.6 12.1 12.4 12.6 14.7s7.1 23.1 6 26.6-1.6 8.7.1 12.6c1.7 3.9 2.5 15.3 0 19.2-2.5 3.9-9.6 31-21.4 35.5 0 0-1.5-8.5-1.5-10.4-.1-1.9-4.8-5.9-8.7-7.5-3.9-1.6-10.3-3.9-11-5.5 0 0-2.9 2.2-4.7 2.2v9.4s5.3-2.4 10.3-.3c5 2.1 11.3 8.9 11.6 10.3.3 1.3 1.3 4.7-.3 7.4s-3.9 9.2-12.1 6.6c0 0-.3-3.7 2.1-5.5 2.4-1.8 2.6-6.6 2.6-6.6s-6 3.4-14.2 3.4v29l2.6-1.1 1.6 2.4 3.7-2.1 1.8 1.1 6.3-3.2s13.2-5.3 16-10.3c.5-.9 1.2-2 2.1-3.1.6-.8 1.2-1.7 1.9-2.6 3.2-4.3 7.1-9.6 9-14 .5-1.1.8-2.2 1-3.2.6-3.6.9-9.6 1.4-14.9zm-5.7-101.1l.1.1-.1-.1z"/><path fill="#615B4D" d="M143.8 82.1c3.9-.8 16 0 16 0h6.3l-5.5-2.4h5.5s-13.9-2.6-19.7-3.2c-5.8-.5-12.4 3.2-12.4 3.2-1 5.8 5.8 3.2 9.8 2.4z"/><path fill="#181A1E" d="M128 184.8v25.8h12.8l.2 1h.4l11.6-29c-11 2.6-25 2.2-25 2.2z"/><path fill="#2B2D38" d="M140.6 218.1l-.1-.1v-4.2l.6-1.6-.1-.6-.2-1H128v33.6l7.4 11.5c4.3-.2 8.5-.7 12.7-1.4L132.5 234l8.1-15.9z"/><path fill="#1A232A" d="M140.4 213.9v4.2l.1.1 22.6 12.7s20.2 1.5 37.8 2.4c1.5-1 2.9-2 4.3-3.1-17.8-.9-42.4-2.5-42.4-2.5l-22.4-13.8z"/><path fill="#414B5B" d="M193.5 189l-.5-.2c.1.2.1.3.1.3l.4-.1zm33 13.8l3.4 1.7.4.4c.1-.1.2-.3.3-.4l-4.1-1.7zm-26.1 18.9l-24-1-15.4-10 12-16v-11.9h-.1l.1-.4v-.4h.1l1.1-5.2c.3-4.6.1-12-4.5-14.3 0 0 4.4 9.9-7.4 16.3-2.3 1.3-5.3 2.4-9 3.2l-.3.6-11.6 29-.2.6-.6 1.6 22.4 13.7s24.6 1.6 42.4 2.5c.3-.2.6-.5 1-.7-.6-.9-1.1-1.6-1.5-2.1-1.6-1.5-3-3.4-4.5-5.5z"/><path fill="#26252B" d="M128 256c2.5 0 5-.1 7.4-.2l-7.4-11.5V256z"/><path fill="#394251" d="M173 182.3l.1-.3h-.1v.3zm0 12.4l-12 16 15.3 10.1 24 1c-5.5-7.5-11.7-17.6-14.9-25.1-3.9-9.1-11.7-13.4-12.5-13.9v11.9z"/><path fill="#8E8786" d="M229.8 204.6l-3.4-1.7 2.7 3.5c.3-.4.7-.9 1-1.3-.1-.4-.3-.5-.3-.5zm-4.9-2.4l1 .3-1.8-.9c.3.2.5.4.8.6zm-19.5 21.7l-2.5-5.5.7-.2c-1.9-2.6-3.5-5.1-4.7-7.5-6.1-11.8-20.1-31.3-20.1-31.3.1 0 .2.1.3.1-1.8-1.1-3.5-2.1-4.9-2.7l-1.1 5.2-.1.3-.1.4h.1c.8.4 8.5 4.8 12.5 13.9 3.3 7.5 9.5 17.6 14.9 25.1 1.5 2.1 2.9 3.9 4.2 5.5.4.5.9 1.2 1.5 2.1 1.2-1 2.5-1.9 3.6-2.9 0 0 0-.1-.1-.1-2.8-1.1-4.2-2.4-4.2-2.4z"/><path fill="#40413D" d="M198.9 210.7c1.2 2.4 2.9 4.9 4.7 7.5l5-1.5-1.4-2.9-5.3 1.2-1.2-2.8 3.3-2.7-2.3.4-2.6-6.1 9.3-5.2-6.1-8.4-5-2.6-3.8 1.3-.4.1s0-.1-.1-.3c-.6-1.1-3.2-5-14-9.3-.1 0-.2-.1-.3-.1.1.1 14.1 19.5 20.2 31.4zm14.8-12.1l11.2 3.6c-.3-.2-.5-.4-.8-.6-1.1-.8-1.6-.9-1.6-.9l-12.5-6.5 3.7 4.4zm14.2 9.4c.2-.2.4-.5.6-.7h-2.1l1.5.7zm-18.1 18.5s0-.1 0 0c0-.1 0-.1 0 0-.1-.1 0-.1 0 0z"/><path fill="#40413D" d="M210.1 209.2l13.6-1-1.2-2.7 2.9 1.3-1.9-3-17.7 1.5.9 2.1 1.8-1.5z"/><path fill="#8E8786" d="M210.1 209.2l3.8 7.6 7-.6c1.5-1.5 2.9-3.1 4.3-4.8l-1.4-3.1-13.7.9z"/><path fill="#A7A99F" d="M225.7 207.3l-.3-.5-2.9-1.3 1.2 2.7 1.4 3.1c1-1.1 1.9-2.2 2.8-3.4l-1.5-.7h-.7zm-15.6 1.9l-1.6-3.2-1.8 1.5.7 1.7-3.4.5-3.3 2.7 1.2 2.8 5.3-1.2 1.4 2.9-5 1.5-.7.2 2.5 5.5s1.4 1.3 4.3 2.5h.1c3.9-3.2 7.6-6.7 11-10.3l-7 .6-3.7-7.7z"/><path fill="#91948C" d="M226.5 202.8l-.1-.1-.4-.1-1-.3-11.2-3.6-3.6-4.3-3.8-4.5h-4.3l.4.5 6.1 8.4-9.3 5.2 2.6 6.1 2.3-.4 3.4-.5-.7-1.7-.9-2.1 17.7-1.4 1.9 3 .3.5h2.8c.2-.3.5-.6.7-.9l-2.9-3.8z"/><path fill="#393E46" d="M115.4 218.1l-22.6 12.7s-20.2 1.5-37.8 2.4c15.4 10.7 33.4 18.1 52.7 21.2l15.7-20.4-8-15.9zm-.5-5.8l.1-.6h-.4l.3.6z"/><path fill="#140E0C" d="M93.8 178.8c1.1-6.7.6-13.9 0-18.8-.6-.8-1.2-1.7-1.9-2.6-2 1.3-4.1 3-5.5 5.1 0 0-4.4 9.9 7.4 16.3z"/><path fill="#B17D6B" d="M128 184.8v-8.6l-2.6-1.1-1.6 2.4-3.7-2.1-1.8 1.1-6.3-3.2S98.8 168 96 163c-.5-.9-1.2-2-2.1-3.1.6 4.9 1 12.2 0 18.8 2.3 1.3 5.3 2.4 9 3.2l.3.6c10.8 2.7 24.8 2.3 24.8 2.3z"/><path fill="#3D3827" d="M70.1 86.5c.1-1.6.3-3.5.6-5.5-.2.4-.3.7-.4 1-.2.8-.2 1.1-.2.7 0-.2.1-.4.2-.7.2-1.1.6-3.1 1.2-5.5.2-1.1.4-2.1.7-3.1 0 0-2.3 1.4-3.1 6.4-.2 1.7-.3 2.8-.3 2.8 0-1.1.1-2 .3-2.8.3-2.7 1-7 2.3-11.2-1.4 2-2.6 3.5-2.6 3.5s1-4.5 3.3-9.8c-2.4 1.2-5.8 3.5-7.4 7.4 0 0 2-17.3 11.8-24.5.1-.4.3-.9.4-1.4-2.8.9-6.2 2.6-8.1 5.6-2.9 4.8 1-10 13-16.4.7-1.1 1.5-2.3 2.3-3.3-1.4.1-3.3.6-5.6 1.8 0 0 4.1-4.7 10.5-7.1.8-.7 1.7-1.4 2.7-2-1.2.1-2.5.3-3.8.7 0 0 4.7-2.9 10.9-4.1.6-.1 1.3-.2 1.9-.3 1-1.2 2.3-2.3 3.8-3.3l-.5-.4s.6-.1 1.6-.1c3.1-1.7 7.2-2.6 12.7-2.1 0 0-2.4.6-5.1 2.6.7.1 1.4.3 2.1.5 3.1-2.3 7.1-4.3 12.2-5.1 0 0-4 2.8-6.9 7.5.5.3 1.1.7 1.6 1.2 1.7-2.1 3.7-4.1 6-5.2V8s-4.7-3.6-13.9.1-16.8 3.9-19.7 6.8-12.1 12.2-12.1 12.2-11.6 6.8-13.7 11.6c-2.1 4.7-11.8 28.9-4.2 33.9 0 0 0 11.4 2.2 17.6.1-.3.3-.6.4-.9 1.1-2.1 2.1-2.8 2.9-2.8z"/><path fill="#3D3827" d="M96.9 23.2c.3 0 .7 0 1 .1.1-.1.1-.3.2-.4-.3-.1-.7-.1-1-.2 0 .2-.1.4-.2.5zm12.6-4.1c.6.1 1.1.3 1.7.5l.1-.1-1.5-.9c-.1.1-.2.3-.3.5zM80.6 125.2c-2.9.9-4.2-.5-7.1-3-.3-.2-.6-.5-.8-.8-.1.4-.3.7-.5.8-2.4 1.5-3.2 3.3-3.2 3.3l2.9 1.3-.8 1.8h7.1l-4.2 7.1s5.5-.5 6.8-3.7c0 0-2.1 7.9-4.2 9.5l4.7-1.3v3.2h1.5c-.5-1.1-.8-2.2-1-3.2-.4-3.7-.7-9.7-1.2-15z"/><path fill="#B17D6B" d="M73.6 122.2c2.9 2.5 4.2 4 7.1 3-.4-4.6-.9-8.8-1.7-10.5-1.7-3.7-1.7-9.7-1.7-12.6v-2.2c0-.1 0-.2-.1-.4-.4-1.7-2.2-8.9-7.3-9.5 0 0 .1-1.4.3-3.5-.9 0-1.9.8-2.9 2.8-.2.3-.3.6-.4.9-2.4 5.2-2.6 10.6-1.2 16.3 1.5 5.5 3.9 11.5 7 14.8l.9.9z"/><path fill="#C08C76" d="M99.3 34.7c-5.8 2.6-12.1 12.4-12.6 14.7s-7.1 23.1-6 26.6 1.6 8.7-.1 12.6c-1.7 3.9-2.5 15.3 0 19.2 2.5 3.9 9.6 31 21.4 35.5 0 0 1.5-8.5 1.5-10.4.1-1.9 4.8-5.9 8.7-7.5 3.9-1.6 10.3-3.9 11-5.5 0 0 2.9 2.2 4.7 2.2V37.4c.1 0-22.8-5.3-28.6-2.7zm12.9 47.4c-3.9-.8-16 0-16 0h-6.3l5.5-2.4h-5.5s13.9-2.6 19.7-3.2c5.8-.5 12.4 3.2 12.4 3.2 1 5.8-5.8 3.2-9.8 2.4z"/><path fill="#C08C76" d="M128 131.5s-5.3-2.4-10.3-.3c-5 2.1-11.3 8.9-11.6 10.3-.3 1.3-1.3 4.7.3 7.4s3.9 9.2 12.1 6.6c0 0 .3-3.7-2.1-5.5-2.4-1.8-2.6-6.6-2.6-6.6s6 3.4 14.2 3.4v-15.3zM77.2 99.9s0-.1-.1-.4c.1.1.1.2.1.4z"/><path fill="#4E4734" d="M69.1 79.8c-.1.8-.2 1.8-.3 2.8 0 0 .1-1.1.3-2.8zm-4.4-10.1c1.5-3.9 5-6.2 7.4-7.4 2.2-5.1 5.8-10.8 10.9-13.9 0 0-5-.3-7.9 2.4 0 0 .4-2.3 1.4-5.6-9.8 7.2-11.8 24.5-11.8 24.5zm7.5 3.6c-.3.9-.5 2-.7 3.1.2-1 .4-2 .7-3.1zm0 0c1.1-4.4 2.5-9.1 4-11.2 2.3-3.2-1.8 2.4-4.8 6.5-1.3 4.2-2 8.5-2.3 11.2.8-5.1 3.1-6.5 3.1-6.5zm-3.4-23.8c1.9-3 5.4-4.7 8.1-5.6 1-3.1 2.6-7 4.9-10.7-12 6.3-15.9 21-13 16.3zm35.8-34.1c.3-.2.6-.4.9-.5-1 .1-1.6.1-1.6.1l.7.4zm-26 16.2c2.3-1.2 4.1-1.7 5.6-1.8 1.4-1.9 3.1-3.7 4.9-5.3-6.4 2.4-10.5 7.1-10.5 7.1zm13.2-9.1c2.1-1.4 4.5-2.6 7.1-3.4-6.2 1.3-10.9 4.1-10.9 4.1 1.3-.4 2.6-.6 3.8-.7zm5.4.2c.3.1.7.1 1 .2.6-1.3 1.5-2.8 2.7-4.1-.7.1-1.3.2-1.9.3-.1 0-1 1.6-1.8 3.6zM106 28s1.4-4.1 5.2-8.4c-.6-.2-1.1-.4-1.7-.5-1.6 2.2-3 5.1-3.5 8.9zm11.7-1.7s1.7-3.6 4.4-6.9c-.5-.4-1-.8-1.6-1.2-1.4 2.3-2.6 5-2.8 8.1zm-7.8-7.7l1.5.9c1.1-1.2 2.4-2.4 3.9-3.6-.7-.2-1.4-.4-2.1-.5-1.1.8-2.3 1.9-3.3 3.2zm-13.5 10s.3-2.4 1.6-5.3c-.3 0-.7-.1-1-.1-.8 2-1.3 4.2-.6 5.4zM69.9 90c5.1.7 6.9 7.8 7.3 9.5 0 .2.1.3.1.4V89.4l-2.1 1.8-3.2-4.7S73.1 81 75.7 75c2.2-5.1-3.1 2.2-4.9 6-.3 2-.5 3.9-.6 5.5-.2 2.1-.3 3.5-.3 3.5z"/><path fill="#564F3B" d="M95.9 163.1c2.9 5 16 10.3 16 10.3l6.3 3.2 1.8-1.1 3.7 2.1 1.6-2.4 2.6 1.1v-29.6c-8.2 0-14.2-3.4-14.2-3.4s.3 4.7 2.6 6.6c2.4 1.8 2.1 5.5 2.1 5.5-8.2 2.6-10.5-3.9-12.1-6.6s-.5-6-.3-7.4c.3-1.3 6.6-8.2 11.6-10.3 5-2.1 10.3.3 10.3.3V122c-1.8 0-4.7-2.2-4.7-2.2-.8 1.6-7.1 3.9-11 5.5-3.9 1.6-8.7 5.5-8.7 7.5-.1 1.9-1.5 10.4-1.5 10.4-11.8-4.5-18.9-31.6-21.4-35.5-2.5-3.9-1.7-15.3 0-19.2 1.7-3.9 1.2-9.2.1-12.6s5.5-24.2 6-26.6 6.8-12.1 12.6-14.7c5.8-2.6 28.7 2.6 28.7 2.6v-23c-2.3 1.1-4.3 3.1-6 5.2-2.7 3.4-4.4 6.9-4.4 6.9.3-3.1 1.4-5.8 2.8-8.1 2.9-4.7 6.9-7.5 6.9-7.5-5.1.9-9.1 2.8-12.2 5.1-1.5 1.1-2.8 2.3-3.9 3.6l-.1.1c-3.8 4.3-5.2 8.4-5.2 8.4.5-3.8 1.9-6.7 3.5-8.9.1-.2.3-.3.4-.5 1.1-1.3 2.2-2.4 3.3-3.2 2.7-2 5.1-2.6 5.1-2.6-5.5-.6-9.6.4-12.7 2.1-.3.2-.6.4-.9.5-1.5 1-2.8 2.1-3.8 3.3-1.2 1.4-2 2.8-2.7 4.1 0 .3-.1.5-.1.6-1.3 2.9-1.6 5.3-1.6 5.3-.7-1.2-.2-3.4.6-5.4.1-.2.1-.4.2-.5.8-2 1.7-3.6 1.7-3.6-2.7.8-5 2-7.1 3.4-.9.6-1.8 1.3-2.7 2-1.9 1.6-3.5 3.4-4.9 5.3-.8 1.1-1.6 2.2-2.3 3.3-2.3 3.8-3.9 7.6-4.9 10.7-.2.5-.3.9-.4 1.4-1 3.3-1.4 5.6-1.4 5.6 2.9-2.6 7.9-2.4 7.9-2.4-5.2 3.1-8.7 8.8-10.9 13.9-2.3 5.3-3.3 9.8-3.3 9.8s1.2-1.6 2.6-3.5c2.9-4 7.1-9.6 4.8-6.5-1.5 2.1-2.9 6.8-4 11.2-.3 1.1-.5 2.1-.7 3.1-.5 2.4-.9 4.4-1.2 5.5.1-.3.2-.6.4-1 1.8-3.8 7.2-11.1 4.9-6-2.7 6-3.7 11.6-3.7 11.6l3.2 4.8 2.1-1.8v12.7c0 2.9 0 8.9 1.7 12.6.8 1.7 1.3 5.8 1.7 10.5.5 5.4.8 11.4 1.4 15 .1 1 .5 2 1 3.2 1.8 4.4 5.8 9.7 9 14 .7.9 1.3 1.8 1.9 2.6.7 1 1.4 2.1 1.9 3zM70.3 81.9c-.1.3-.2.5-.2.7 0 .5.1.2.2-.7z"/><path fill="#564F3B" d="M109.6 76.6c-5.8.5-19.7 3.2-19.7 3.2h5.5l-5.5 2.4h6.3s12.1-.8 16 0c3.9.8 10.8 3.4 9.7-2.4.1-.1-6.5-3.8-12.3-3.2z"/><path fill="#0E0E14" d="M128 198.5v-13.7s-14 .4-25-2.2l11.6 29h.4l.2-1H128v-12.1z"/><path fill="#26252B" d="M128 212.3v-1.6h-12.8l-.2 1-.1.6.6 1.6v4.2l-.1.1 8.1 16-15.7 20.4c4.2.7 8.4 1.1 12.7 1.4l7.4-11.5v-32.2z"/><path fill="#0C151C" d="M115.4 218.1l.1-.1v-4.2l-22.4 13.7s-24.6 1.6-42.4 2.5c1.4 1.1 2.8 2.1 4.3 3.1 17.6-1 37.8-2.4 37.8-2.4l22.6-12.6z"/><path fill="#394251" d="M63 188.8l-.5.2.4.1s0-.1.1-.3zm-36.8 15.8l3.4-1.7-4.1 1.7c.1.1.2.3.3.4.2-.3.4-.4.4-.4zm89.4 9.3l-.6-1.6-.2-.6-11.6-29-.3-.6c-3.8-.9-6.7-2-9-3.2-11.7-6.3-7.4-16.3-7.4-16.3-4.6 2.3-4.9 9.7-4.5 14.3l1.1 5.2h.1v.3l.1.4h-.1v11.9l12 16-15.3 10.1-24 1c-1.5 2.1-2.9 3.9-4.2 5.5-.4.5-.9 1.2-1.5 2.1.3.2.6.5 1 .7 17.8-.9 42.4-2.5 42.4-2.5l22-13.7z"/><path fill="#181A1E" d="M120.6 255.8c2.5.1 4.9.2 7.4.2v-11.7l-7.4 11.5z"/><path fill="#2D3644" d="M83 182s-.1 0 0 0v.3-.3zm-12.5 14.6c-3.3 7.5-9.5 17.6-14.9 25.1l24-1 15.4-10-12-16v-11.9c-.8.4-8.5 4.8-12.5 13.8z"/><path fill="#666261" d="M31.1 202.2c.3-.2.5-.4.8-.6l-1.8.9 1-.3zm-4.9 2.4l-.4.4c.3.4.7.9 1 1.3l2.7-3.5-3.3 1.8zm29.4 17.1c5.5-7.5 11.7-17.6 14.9-25.1 3.9-9.1 11.7-13.4 12.5-13.9h.1l-.1-.4-.1-.3-1.1-5.2c-1.4.7-3.1 1.6-4.9 2.7.1 0 .2-.1.3-.1 0 0-14 19.5-20.1 31.3-1.2 2.4-2.9 4.9-4.7 7.5l.7.2-2.5 5.5s-1.4 1.3-4.3 2.5c0 0 0 .1-.1.1 1.2 1 2.4 2 3.6 2.9.6-.9 1.1-1.6 1.5-2.1 1.4-1.6 2.8-3.5 4.3-5.6z"/><path fill="#2E2F2C" d="M47.6 198.6l9.3 5.2-2.6 6.1-2.3-.4 3.3 2.7-1.2 2.8-5.3-1.2-1.4 2.9 5 1.5c1.9-2.6 3.5-5.1 4.7-7.5 6.1-11.8 20.1-31.3 20.1-31.3-.1 0-.2.1-.3.1-10.8 4.2-13.4 8.1-14 9.3-.1.2-.1.3-.1.3l-.4-.1-3.8-1.3-5 2.6-6 8.3zm-20.1 8.7c.2.2.4.5.6.7l1.5-.7h-2.1zm3.6-5.1l11.2-3.6 3.6-4.3-12.5 6.5s-.6.1-1.6.9c-.2.1-.4.3-.7.5zm15.1 24.2s0 .1 0 0h.1-.1z"/><path fill="#2E2F2C" d="M32.5 203.8l-1.9 3 2.9-1.3-1.2 2.7 13.6 1 1.6-3.3 1.8 1.5.9-2.1z"/><path fill="#6F6A69" d="M45.9 209.2l-13.6-1-1.4 3.1c1.4 1.6 2.8 3.2 4.3 4.8l7 .6 3.7-7.5z"/><path fill="#91948C" d="M50.6 223.9l2.5-5.5-.7-.2-5-1.5 1.4-2.9 5.3 1.2 1.2-2.8-3.3-2.7-3.4-.5.7-1.7-1.8-1.5-1.6 3.2-3.8 7.6-7-.6c3.5 3.7 7.2 7.1 11 10.3h.1c3-1.1 4.4-2.4 4.4-2.4zm-17.1-18.4l-2.9 1.3-.3.5h-.7l-1.5.7c.9 1.1 1.8 2.3 2.8 3.4l1.4-3.1 1.2-2.8z"/><path fill="#777A73" d="M30.3 207.3l.3-.5 1.9-3 17.7 1.4-.9 2.1-.7 1.7 3.4.5 2.3.4 2.6-6.1-9.3-5.2 6.1-8.4.4-.5h-4.3l-3.8 4.5-3.6 4.3-11.2 3.6-1 .3-.4.1-.1.1-2.7 3.5c.2.3.5.6.7.9h2.6z"/></svg>