<svg xmlns="http://www.w3.org/2000/svg" width="240.1" height="23.4"><path fill="#fff" d="M203.5 2.9l-3.7 11-3.3-11h-6.4v.4c.9.1 1.5.6 1.5 2.2v11c0 1.8-.6 3.2-2.2 3.4v.4h5.4V20c-1.6-.2-2.2-1.4-2.2-3.3V4.6h.1l5.2 15.8h.7l5.5-16.1C204 6 204 9 204 10.4v7c0 2-1.1 2.4-1.8 2.5v.4h7.6V20c-.6-.1-1.7-.5-1.7-2.5V5.7c0-1.9 1.1-2.3 1.7-2.3v-.5h-6.3zm-16.8 2.8c0-2 1.1-2.3 1.9-2.3v-.5h-7.9v.4c.7.1 1.8.4 1.8 2.3v11.8c0 2-1.1 2.4-1.8 2.5v.4h7.6V20c-.6-.1-1.6-.5-1.6-2.5V5.7zm30.2 14.1v-8.1h1.4c2.1 0 2.9.7 3.4 2.2h.5v-5h-.5c-.6 1.4-1.4 2.2-3.4 2.2h-1.4V3.5h1.7c2 0 4.4.4 5.4 3.3h.5V2.9h-13.2v.4c.6.1 1.5.3 1.5 2.2v12c0 2-1 2.3-1.5 2.4v.4h13.4v-4h-.5c-1 2.4-1.9 3.5-5.1 3.5h-2.2zM164.7 2.9v3.9h.5c1.1-2.6 2.8-3.3 4.3-3.3h.6v14c0 2-1.2 2.4-1.9 2.5v.4h8V20c-.8-.1-1.9-.5-1.9-2.5v-14h.6c1.7 0 3.2.8 4.3 3.3h.5V2.9h-15zM231 20c-2.5 0-3.6-2-4.3-3.7h-.5V20c1.1.3 2.8.5 4.7.5 3.5 0 6.8-1.5 6.8-5.4 0-2.5-1.3-4.3-4.6-5.5-2.3-.8-3.6-1.7-3.6-3.7 0-1.9 1.5-2.9 3-2.9 2.2 0 3.3 1.6 4 3.6h.5V3.1c-1-.2-2.5-.5-4.2-.5-4.3 0-6.6 2.1-6.6 5.1 0 3.1 2.1 4.3 4.4 5.2 2.4 1 3.7 1.9 3.7 4-.1 2.1-1.4 3.1-3.3 3.1M35.2 5.7c0-2 1.1-2.3 1.8-2.3v-.5h-7.8v.4c.7.1 1.8.4 1.8 2.4V11h-5.9V5.7c0-2 1.1-2.3 1.8-2.3v-.5h-7.8v.4c.7.1 1.8.4 1.8 2.3v11.8c0 2-1.1 2.4-1.8 2.5v.4h7.8V20c-.7-.1-1.8-.5-1.8-2.5v-5.7H31v5.7c0 2-1.1 2.4-1.8 2.5v.4H37V20c-.7-.1-1.8-.5-1.8-2.5V5.7zm8.9 14.1v-8.1h1.4c2.1 0 2.8.7 3.4 2.2h.5v-5h-.5c-.6 1.4-1.4 2.2-3.4 2.2h-1.4V3.5h1.7c2 0 4.4.3 5.4 3.3h.5V2.9H38.4v.4c.6.1 1.5.3 1.5 2.2v12c0 2-1 2.3-1.5 2.4v.4H52v-4h-.5c-1.2 3-2.6 3.5-5.1 3.5h-2.3zM3 2.9v3.9h.5c1.1-2.6 2.7-3.3 4.3-3.3h.6v14c0 2-1.2 2.4-1.9 2.5v.4h8V20c-.8-.1-1.9-.5-1.9-2.5v-14h.6c1.7 0 3.2.8 4.3 3.3h.5V2.9H3zM64.4 20c-2.5 0-3.6-2-4.3-3.7h-.5V20c1.1.3 2.8.5 4.6.5 3.5 0 6.9-1.5 6.9-5.4 0-2.5-1.3-4.3-4.6-5.5-2.3-.7-3.7-1.6-3.7-3.6 0-1.9 1.5-2.9 3-2.9 2.2 0 3.3 1.6 4 3.6h.5V3c-1-.2-2.5-.4-4.2-.4-4.3 0-6.6 2.1-6.6 5.1 0 3.1 2.1 4.3 4.4 5.2 2.4 1 3.7 1.9 3.7 4S66.3 20 64.4 20m87.8 0c-2.5 0-3.6-2-4.3-3.7h-.5V20c1.1.3 2.8.5 4.7.5 3.5 0 6.8-1.5 6.8-5.4 0-2.5-1.3-4.3-4.6-5.5-2.3-.8-3.6-1.7-3.6-3.7 0-1.9 1.5-2.9 3-2.9 2.2 0 3.4 1.6 4.1 3.6h.5V3.1c-1.1-.2-2.5-.5-4.2-.5-4.3 0-6.7 2.1-6.7 5.1 0 3.1 2.1 4.3 4.4 5.2 2.4 1 3.7 1.9 3.7 4s-1.4 3.1-3.3 3.1M71.8 2.9v3.9h.5c1.1-2.6 2.7-3.3 4.3-3.3h.6v14c0 2-1.2 2.4-1.9 2.5v.4h7.9V20c-.8-.1-1.8-.5-1.8-2.5v-14h.6c1.7 0 3.2.8 4.3 3.3h.5V2.9h-15zm59.7 0v3.9h.5c1.1-2.6 2.8-3.3 4.3-3.3h.6v14c0 2-1.2 2.4-1.9 2.5v.4h8V20c-.8-.1-1.9-.5-1.9-2.5v-14h.6c1.7 0 3.2.8 4.3 3.3h.5V2.9h-15zm-2.9 2.8c0-2 1.1-2.3 1.8-2.4v-.4h-7.8v.4c.7.1 1.8.4 1.8 2.4v11.7c0 2-1.1 2.4-1.8 2.5v.4h7.8V20c-.7-.1-1.8-.5-1.8-2.5V5.7zM120.2 18l-4.6-15.1H110v.4c.8.1 1.1.6 1.1 1 0 .3-.1.6-.2 1l-3.7 10.4c-1.2 3.3-2 4.2-2.9 4.3v.4h4.9V20c-.9-.1-1.6-.9-1.6-1.9 0-.8.2-1.5.5-2.5l.4-1.1h6.1c.3 1.5 1 3.2 1 4.3 0 .6-.4 1.2-1.2 1.3v.4h7.6V20c-.7-.1-1.3-.6-1.8-2m-11.3-4.3l3-8.8h.1l2.5 8.8h-5.6zm-5 6.7V20c-.6-.1-.8-.4-1.6-3-1-3.3-2.2-5.4-5.2-5.5l.1-.2c2.8-.1 5.1-1.4 5.1-4.2 0-3.4-3.6-4.1-7.5-4.1h-6.9v.4c.7.1 1.8.3 1.8 2.3v11.8c0 2-1.1 2.4-1.8 2.5v.4h7.5V20c-.7-.1-1.5-.6-1.5-2.6v-5.5h.3c2 0 3.1 2.2 4.1 5.7.6 2.1.7 2.5.7 2.7v.1h4.9zm-9.5-9.2h-.6V3.5c.3-.1.7-.1.9-.1 2.3 0 3.6.9 3.6 3.5 0 3-1.4 4.3-3.9 4.3"/></svg>