<svg xmlns="http://www.w3.org/2000/svg" width="256" height="256"><circle fill="#B1B3B5" cx="128" cy="128" r="128"/><path fill="#A7A087" d="M180.4 211l28 7.7 4 5.5c1.5-1.3 2.9-2.6 4.3-3.9l-36.4-12.2c.1 1 .1 1.9.1 2.9z"/><path fill="#928E78" d="M162.1 233.4c-1.9 4.6-.6 10.5-1.3 12.5-.2.7-1 3.3-1.9 6.3 5.3-1.3 10.4-2.9 15.4-4.9l-8.4-26.7s-1.9 8.2-3.8 12.8zM147 254.6c.9-.1 1.9-.3 2.8-.4-1.2-2.9-2.2-5.2-2.2-5.2s-.3 2.6-.6 5.6zm33.4-43.6c.2 5 .3 8.9.2 9.9-.3 3.2-8-9.6-9.1-11.4.5 7.6 2.6 30 3.3 37.7 13.9-5.5 26.5-13.3 37.5-22.9l-4-5.5-27.9-7.8z"/><path fill="#807461" d="M234.3 168s-33.7 12.1-46.6 12.5c-3 .1-5.8.5-8.5 1.2.2 5.6.8 17.2 1.2 26.4l36.4 12.2c13.9-13.4 24.9-29.9 31.6-48.5l-14.1-4v.2z"/><path fill="#3D3229" d="M191.6 161.3c-5-1.5-11.3-3.8-16.9-5.5 2.1 8.6 4.7 21 4.4 22.8v3.1c2.6-.6 5.5-1.1 8.5-1.2 13-.4 46.6-12.5 46.6-12.5l-.1-.2-4.6-7.2-4.1-5.3c-2.6 1-24.1 8.8-33.8 6z"/><path fill="#615245" d="M187.8 139.4c-1.4 0-5.4.6-10.5-1.6-.7 3.6-1.7 7.3-2.8 10.9-.3.8-.6 1.6-1 2.3.4 1.3.8 2.9 1.2 4.7 5.6 1.7 11.9 4 16.9 5.5 9.7 2.8 31.2-5 33.9-5.9.2-.1.3-.1.3-.1L190.1 134c-.4 2.7-1.1 5.4-2.3 5.4z"/><path fill="#7F525D" d="M177.3 137.8c5.1 2.2 9.1 1.6 10.5 1.6 1.2 0 1.9-2.7 2.3-5.4.2-1.7.3-3.4.3-4.4 0-2.6-1.3-12.1 1.6-17.3 2.9-5.2 0-11.8 0-17.8 0-3.8-3.9-2.8-6.7-1.5-.4 6.9-.9 12.9-2.1 15.2-2.7 5-3.2 16.9-5.9 29.6z"/><path fill="#92606C" d="M137.6 122.7c1.6-2 2.3-2.9 4.2-1.6 1.9 1.3.3 4.5 4.8 3.9 4.5-.6 6.4-1.2 7.4 2s1 4 5.2 8.3c4.2 4.3 11.6 8.9 13.2 12.4.3.6.6 1.7 1.1 3.3.4-.7.8-1.5 1-2.3 1.2-3.6 2.1-7.3 2.8-10.9 2.6-12.8 3.2-24.6 5.9-29.7 1.2-2.3 1.8-8.3 2.1-15.2.6-12.5.5-28 1.7-29.7 1.9-2.6-2.4-22-10.1-30.7-7.7-8.6-11.1-13.9-18.3-15.7-2.7-.6-6-2.7-9.1-5.1-.6.8-1.7 1.1-3.2.9-1.9-.3-3.5-1.7-3.5-1.7s-3.5-2.6-6.4-2.3c-3 .4-8.4 6.4-8.4 6.4v110s8-.3 9.6-2.3zm19.9-17.9c-6.9-3.7-12-8.9-13.2-10.2 1.4 1.6 8 8.8 8.9 11.1 1 2.6.7 11.4 3.9 12.3 0 0 1.7 4.3-1.9 2.6s-5.5-8.4-5.5-10.4 0-5.4-2.4-7.8-4.8-3.5-4.8-3.5-1.4 2.2.7 5.7 3.9 7.4 2.9 8.5-4.8-4.5-4.8-4.5-1-11.5-2.9-12.6c-1.9-1.2-2.9-3.6-3.1-6.1-.1-1.1 6-2.4 6.5-4.5.5-2.2 2.2-8.4 6.3-11.4s10.1-3 15.5-2.6c5.3.4 12.3 5 11.6 7.6-.7 2.6-.6 9.2.1 12.8.7 3.6-.8 13.3-2.2 14.2-1.8.9-7.6 3-15.6-1.2zm-20.7-46.6c3.5-6.6 2.6-5.8 9.7-11.2 7.1-5.5 10-8.6 7.1-7.8-2.9.9-4.6 2-8.6 3.2s-7.2 2-5.3-1.7c1.9-3.7.6 2.3 5.3-4.3s3.7-3.2 5.7-8.6c1.9-5.5 3.8-6.6 4-7.5s1.4-2.4 1.4-2.4 9.9 2.8 10.9 4c1 1.2 4.5 7.6 4.5 7.6l-5 3.5s-3.5 2.3-6.8 5.5-4.8 4.1-4.8 5.5c0 1.4 5.5-.5 6.8 0 1.3.5 2.3-.2 5.2 0 2.9.2 2.6-2.3 5.2 0s4.5 2.8 4.5 4 0 1.7-4.2 2c-4.2.3-6.1.3-9 .3-2.9 0-6.4-1.2-10.3 1.4s-4.8.6-6.1 3.2c-1.3 2.6-3.5 1.4-3.9 5.8-.3 4.3-2.9 6.9 1.6 6.3 4.5-.6 5.8-.9 8.4-3.5s2.6-5.8 5.5-5.8 9-2.6 5.2 1.2-6.1 3.7-5.8 5.5c.3 1.7 1.3 2.3 4.8 2.3s5.8-1.7 10 0 9 4.2 8 4.7-5.2-.2-7.4 0c-2.3.2-6.4-1.2-11.6-1.5-5.2-.3-6.1-.6-10-.6-3.9 0-9.3 3.9-12.9 2.1-4-2.1-5.7-6.6-2.1-13.2z"/><path fill="#92606C" d="M142.1 146l4.5-.3s-.3 2.9.6 3.7c1 .9 1.3 3.5 1.3 4.6s-.6 3.2.6 2.6c1.3-.6 2.6-1.4 2.6-7.2 0-5.8 1.9-2.9 0-8.1l-1.9-5.2s-5.5-4.3-6.8-4.6c-1.3-.3-5.2-1.4-5.2-1.4L128 129v20s9.6.5 14.1-3z"/><path fill="#845B64" d="M174.9 91.8c-.7-3.6-.8-10.2-.1-12.8.7-2.6-6.3-7.1-11.6-7.6-5.2-.4-11.3-.4-15.4 2.6s-5.8 9.3-6.3 11.4c-.5 2.2-6.6 3.5-6.5 4.5.2 2.6 1.2 5 3.1 6.1 1.9 1.2 2.9 12.6 2.9 12.6s3.9 5.6 4.8 4.5-.7-5-2.9-8.5-.7-5.7-.7-5.7 2.4 1.1 4.8 3.5 2.4 5.8 2.4 7.8 1.9 8.6 5.5 10.4 1.9-2.6 1.9-2.6c-3.1-.9-2.9-9.7-3.9-12.3-.9-2.3-7.4-9.6-8.9-11.1 1.2 1.3 6.3 6.5 13.2 10.2 8 4.2 13.8 2 15.2 1.2 1.8-.9 3.2-10.6 2.5-14.2z"/><path fill="#845B64" d="M138.7 71.2c3.5 1.8 9-2.1 12.9-2.1 3.9 0 4.8.3 10 .6s9.3 1.7 11.6 1.5c2.3-.2 6.4.5 7.4 0s-3.9-3-8-4.7c-4.2-1.7-6.4 0-10 0-3.5 0-4.5-.6-4.8-2.3-.3-1.7 1.9-1.7 5.8-5.5s-2.3-1.2-5.2-1.2c-2.9 0-2.9 3.2-5.5 5.8s-3.9 2.9-8.4 3.5c-4.5.6-1.9-2-1.6-6.3.3-4.3 2.6-3.2 3.9-5.8 1.3-2.6 2.3-.6 6.1-3.2s7.4-1.4 10.3-1.4c2.9 0 4.8 0 9-.3s4.2-.9 4.2-2-1.9-1.7-4.5-4-2.3.2-5.2 0c-2.9-.2-3.9.5-5.2 0-1.3-.5-6.8 1.4-6.8 0s1.6-2.3 4.8-5.5 6.8-5.5 6.8-5.5l5-3.5s-3.5-6.4-4.5-7.6c-1-1.2-10.9-4-10.9-4s-1.2 1.5-1.4 2.4-2.1 2-4 7.5-1 2-5.7 8.6-3.3.6-5.3 4.3c-1.9 3.7 1.3 2.9 5.3 1.7s5.7-2.3 8.6-3.2c2.9-.9 0 2.3-7.1 7.8s-6.1 4.6-9.7 11.2c-3.4 6.8-1.7 11.3 2.1 13.2z"/><path fill="#3F2926" d="M180.7 220.9c.1-1 0-4.9-.2-9.9 0-.9-.1-1.9-.1-2.9-.4-9.2-1-20.9-1.2-26.4 0-1.6-.1-2.7 0-3.1.2-1.8-2.3-14.2-4.4-22.8-.4-1.8-.9-3.4-1.2-4.7-.4-1.6-.8-2.7-1.1-3.3-1.6-3.5-9-8.1-13.2-12.4-4.2-4.3-4.2-5.2-5.2-8.3s-2.9-2.6-7.4-2c-4.5.6-2.9-2.6-4.8-3.9-1.9-1.3-2.6-.4-4.2 1.6S128 125 128 125v4l9.9 1.2s3.9 1.2 5.2 1.4c1.3.3 6.8 4.6 6.8 4.6l1.9 5.2c1.9 5.2 0 2.3 0 8.1s-1.3 6.6-2.6 7.2c-1.3.6-.6-1.4-.6-2.6s-.3-3.7-1.3-4.6c-1-.9-.6-3.7-.6-3.7l-4.5.3c-4.5 3.5-14.1 3-14.1 3V256c6.5 0 12.8-.5 19-1.4.3-3 .6-5.7.6-5.7s.9 2.3 2.2 5.2c3.1-.5 6.1-1.2 9.2-1.9.9-3.1 1.7-5.6 1.9-6.3.6-2-.6-7.9 1.3-12.5s3.8-12.8 3.8-12.8l8.4 26.7c.2-.1.4-.1.5-.2-.7-7.7-2.8-30.1-3.3-37.7.9 1.9 8.7 14.7 9 11.5zM128 15s5.4-6 8.3-6.3c2.9-.3 6.4 2.3 6.4 2.3s1.6 1.4 3.5 1.7c1.5.2 2.6-.1 3.2-.9.2-.2.3-.5.4-.9.3-1.4-4.5 3 1.3-6.3.5-.9 1-1.6 1.5-2.4C144.7.8 136.4 0 128 0v15z"/><path fill="#928E78" d="M75.6 211c0-.9.1-1.9.1-2.9l-36.4 12.2c1.4 1.3 2.8 2.7 4.3 3.9l4-5.5 28-7.7z"/><path fill="#7B7865" d="M93.9 233.4c-1.9-4.6-3.8-12.8-3.8-12.8l-8.4 26.7c5 1.9 10.1 3.6 15.4 4.9-.9-3.1-1.7-5.6-1.9-6.3-.6-2 .6-7.9-1.3-12.5zm12.3 20.7c.9.2 1.9.3 2.8.4-.3-3-.6-5.7-.6-5.7s-.9 2.4-2.2 5.3zm-30.9-33.2c-.1-1 0-4.9.2-9.9l-28 7.7-4 5.5c11 9.7 23.7 17.5 37.5 22.9.7-7.7 2.8-30.1 3.3-37.7-.9 1.9-8.7 14.7-9 11.5z"/><path fill="#665D4D" d="M76.9 181.6c-2.6-.6-5.5-1.1-8.5-1.2-13-.4-46.6-12.5-46.6-12.5l.1-.2-14.1 4c6.8 18.5 17.7 35.1 31.6 48.5L75.8 208c.3-9.1.9-20.8 1.1-26.4z"/><path fill="#362D23" d="M68.4 180.5c3 .1 5.8.5 8.5 1.2 0-1.6.1-2.7 0-3.1-.2-1.8 2.3-14.2 4.4-22.8-5.6 1.7-11.9 4-16.9 5.5-9.7 2.8-31.2-5-33.9-5.9l-4.1 5.3-4.6 7.2-.1.2c0-.1 33.7 12 46.7 12.4z"/><path fill="#53463B" d="M64.4 161.3c5-1.5 11.3-3.8 16.9-5.5.4-1.8.9-3.4 1.2-4.7-.4-.7-.8-1.5-1-2.3-1.2-3.6-2.1-7.3-2.8-10.9-5.1 2.2-9.1 1.6-10.5 1.6-1.2 0-1.9-2.7-2.3-5.4l-35.6 21.3s.1 0 .3.1c2.6.8 24.1 8.6 33.8 5.8z"/><path fill="#69434C" d="M68.2 139.4c1.4 0 5.4.6 10.5-1.6-2.6-12.8-3.2-24.6-5.9-29.7-1.2-2.3-1.8-8.3-2.1-15.2-2.8-1.3-6.7-2.3-6.7 1.5 0 6-2.9 12.7 0 17.8 2.9 5.2 1.6 14.7 1.6 17.3 0 1 .1 2.7.3 4.4.4 2.8 1.1 5.5 2.3 5.5z"/><path fill="#7F525D" d="M112.9 131.6c-1.3.3-6.8 4.6-6.8 4.6l-1.9 5.2c-1.9 5.2 0 2.3 0 8.1s1.3 6.6 2.6 7.2c1.3.6.6-1.4.6-2.6s.3-3.7 1.3-4.6c1-.9.6-3.7.6-3.7l4.5.3c4.5 3.5 14.1 3 14.1 3v-20l-9.9 1.2c.1-.1-3.8 1-5.1 1.3z"/><path fill="#7F525D" d="M78.7 137.8c.7 3.6 1.7 7.3 2.8 10.9.3.8.6 1.6 1 2.3.4-1.6.8-2.7 1.1-3.3 1.6-3.5 9-8.1 13.2-12.4s4.2-5.2 5.2-8.3 2.9-2.6 7.4-2c4.5.6 2.9-2.6 4.8-3.9 1.9-1.3 2.6-.4 4.2 1.6s9.6 2.3 9.6 2.3V15s-5.4-6-8.3-6.3c-2.9-.3-6.4 2.3-6.4 2.3s-1.6 1.4-3.5 1.7c-1.5.2-2.6-.1-3.2-.9-3.1 2.4-6.4 4.4-9.1 5.1-7.2 1.7-10.6 7-18.3 15.7C71.4 41.2 67 60.7 69 63.2c1.2 1.7 1.1 17.2 1.7 29.7.4 6.9.9 12.9 2.1 15.2 2.7 5.1 3.2 17 5.9 29.7zm39.1-41.6c-1.9 1.2-2.9 12.6-2.9 12.6s-3.9 5.6-4.8 4.5.7-5 2.9-8.5.7-5.7.7-5.7-2.4 1.1-4.8 3.5-2.4 5.8-2.4 7.8-1.9 8.6-5.5 10.4-1.9-2.6-1.9-2.6c3.1-.9 2.9-9.7 3.9-12.3.9-2.3 7.4-9.6 8.9-11.1-1.2 1.3-6.3 6.5-13.2 10.2-8 4.2-13.8 2-15.2 1.2-1.4-.9-2.9-10.6-2.2-14.2s.8-10.2.1-12.8c-.7-2.6 6.3-7.1 11.6-7.6 5-.6 11.1-.6 15.2 2.4s5.8 9.3 6.3 11.4c.5 2.2 6.6 3.5 6.5 4.5-.3 2.7-1.3 5.1-3.2 6.3zM83.5 66.6c4.2-1.7 6.4 0 10 0 3.5 0 4.5-.6 4.8-2.3.3-1.7-1.9-1.7-5.8-5.5-3.9-3.7 2.3-1.2 5.2-1.2 2.9 0 2.9 3.2 5.5 5.8s3.9 2.9 8.4 3.5c4.5.6 1.9-2 1.6-6.3-.3-4.3-2.6-3.2-3.9-5.8-1.3-2.6-2.3-.6-6.1-3.2-3.9-2.6-7.4-1.4-10.3-1.4-2.9 0-4.8 0-9-.3s-4.2-.9-4.2-2 1.9-1.7 4.5-4 2.3.2 5.2 0c2.9-.2 3.9.5 5.2 0 1.3-.5 6.8 1.4 6.8 0s-1.6-2.3-4.8-5.5-6.8-5.5-6.8-5.5l-5-3.5s3.5-6.4 4.5-7.6c1-1.2 10.9-4 10.9-4s1.2 1.5 1.4 2.4c.2.9 2.1 2 4 7.5s1 2 5.7 8.6 3.3.6 5.3 4.3c1.9 3.7-1.3 2.9-5.3 1.7s-5.7-2.3-8.6-3.2c-2.9-.9 0 2.3 7.1 7.8s6.1 4.6 9.7 11.2c3.5 6.6 1.9 11.1-1.9 13-3.5 1.8-9-2.1-12.9-2.1s-4.8.3-10 .6-9.3 1.7-11.6 1.5c-2.3-.2-6.4.5-7.4 0-1.2-.3 3.6-2.8 7.8-4.5z"/><path fill="#6D4A52" d="M114.4 85.5c-.5-2.2-2.2-8.4-6.3-11.4s-10.1-3-15.5-2.6c-5.3.4-12.3 5-11.6 7.6.7 2.6.6 9.2-.1 12.8s.8 13.3 2.2 14.2c1.4.9 7.2 3 15.2-1.2 6.9-3.7 12-8.9 13.2-10.2-1.4 1.6-8 8.8-8.9 11.1-1 2.6-.7 11.4-3.9 12.3 0 0-1.7 4.3 1.9 2.6s5.5-8.4 5.5-10.4 0-5.4 2.4-7.8 4.8-3.5 4.8-3.5 1.4 2.2-.7 5.7-3.9 7.4-2.9 8.5 4.8-4.5 4.8-4.5 1-11.5 2.9-12.6c1.9-1.2 2.9-3.6 3.1-6.1.6-1.1-5.6-2.4-6.1-4.5z"/><path fill="#6D4A52" d="M82.9 71.2c2.3.2 6.4-1.2 11.6-1.5 5.2-.3 6.1-.6 10-.6s9.3 3.9 12.9 2.1c3.8-2 5.5-6.4 1.9-13-3.5-6.6-2.6-5.8-9.7-11.2-7.1-5.5-10-8.6-7.1-7.8 2.9.9 4.6 2 8.6 3.2s7.2 2 5.3-1.7c-1.9-3.7-.6 2.3-5.3-4.3s-3.7-3.2-5.7-8.6-3.8-6.6-4-7.5c-.2-.9-1.4-2.4-1.4-2.4s-9.9 2.8-10.9 4c-1 1.2-4.5 7.6-4.5 7.6l5 3.5s3.5 2.3 6.8 5.5 4.8 4.1 4.8 5.5c0 1.4-5.5-.5-6.8 0-1.3.5-2.3-.2-5.2 0-2.9.2-2.6-2.3-5.2 0s-4.5 2.8-4.5 4 0 1.7 4.2 2c4.2.3 6.1.3 9 .3 2.9 0 6.4-1.2 10.3 1.4 3.9 2.6 4.8.6 6.1 3.2 1.3 2.6 3.5 1.4 3.9 5.8.3 4.3 2.9 6.9-1.6 6.3-4.5-.6-5.8-.9-8.4-3.5s-2.6-5.8-5.5-5.8-9-2.6-5.2 1.2c3.9 3.7 6.1 3.7 5.8 5.5-.1 1.6-1.1 2.2-4.6 2.2-3.5 0-5.8-1.7-10 0s-9 4.2-8 4.7c.9.4 5.1-.3 7.4-.1z"/><path fill="#2A1613" d="M128 184.2V149s-9.6.5-14.1-3l-4.5-.3s.3 2.9-.6 3.7c-1 .9-1.3 3.5-1.3 4.6s.6 3.2-.6 2.6c-1.3-.6-2.6-1.4-2.6-7.2 0-5.8-1.9-2.9 0-8.1l1.9-5.2s5.5-4.3 6.8-4.6c1.3-.3 5.2-1.4 5.2-1.4l9.9-1.2v-4s-8-.3-9.6-2.3-2.3-2.9-4.2-1.6c-1.9 1.3-.3 4.5-4.8 3.9-4.5-.6-6.4-1.2-7.4 2s-1 4-5.2 8.3-11.6 8.9-13.2 12.4c-.3.6-.6 1.7-1.1 3.3-.4 1.3-.8 2.9-1.2 4.7-2.1 8.6-4.7 21-4.4 22.8v3.1c-.2 5.6-.8 17.2-1.2 26.4 0 1-.1 2-.1 2.9-.2 5-.3 8.9-.2 9.9.3 3.2 8-9.6 9.1-11.4-.5 7.6-2.6 30-3.3 37.7.2.1.3.1.5.2l8.4-26.7s1.9 8.1 3.8 12.8.6 10.5 1.3 12.5c.2.7 1 3.3 1.9 6.3 3 .7 6.1 1.4 9.2 1.9 1.2-2.9 2.2-5.2 2.2-5.2s.3 2.7.6 5.7c6.2.9 12.5 1.4 19 1.4v-71.7zM106.1 11c.1.3.2.6.4.9.6.8 1.7 1.1 3.2.9 1.9-.3 3.5-1.7 3.5-1.7s3.5-2.6 6.4-2.3c3 .2 8.4 6.2 8.4 6.2V0c-8.4 0-16.7.8-24.6 2.4.5.7 1 1.5 1.5 2.4 5.8 9.2.9 4.8 1.2 6.2z"/></svg>