<svg xmlns="http://www.w3.org/2000/svg" width="256" height="256"><circle fill="#B2B4B5" cx="128" cy="128" r="128"/><path fill="none" d="M91.9 147.8c0 .2.1.3.2.5-.1-.2-.2-.4-.2-.5-.1 0 0 0 0 0zm73.5-.1l-.3.6c.1-.1.2-.3.3-.6 0 .1 0 .1 0 0z"/><path fill="#433B33" d="M128.7 251.5v-.6c-.1.3-.1.5 0 .6l-.1 4.5c15.8 0 31-2.9 45-8.2-4.6-7.8-9.3-15.2-12.6-20.3l-32.3 24zm50.8-39.3l-13.3 11.6c4.9 6.6 9.6 14.3 13.5 21.6 6.8-3 13.2-6.5 19.3-10.5-7.2-10-14.9-18.2-19.5-22.7zm12-18.8l-6.5 13.7c.8 1.2 1.5 2.3 2.1 3.4 7 6.4 12.6 13.6 17.1 20.8 3.5-2.6 6.8-5.3 10-8.2-6.7-15.2-13.8-26.3-13.8-26.3l-8.9-3.4zm28.5-9.2l-10.7 13.5s4 9.8 8.8 21.8c8.4-8.2 15.7-17.6 21.6-27.9-3.5-1.6-7.2-3-11.4-4.4-2.6-.9-5.5-1.9-8.3-3z"/><path fill="#383129" d="M177.8 161.7v-.2h-.1l.1.2zm9.4 48.8c.4.6.7 1.3 1 1.9l-4.6-3.7-4 3.5c4.6 4.5 12.3 12.7 19.6 22.7 1.8-1.2 3.5-2.4 5.2-3.6-4.6-7.2-10.3-14.4-17.2-20.8zm-21.1 13.4l-.2.1c.4 1.4.7 2.8.8 4 0 0-.9-1.2-2.3-2.9l-3.4 2.5c3.3 5 8 12.4 12.6 20.3 2.1-.8 4.1-1.6 6.1-2.5-4-7.3-8.6-15-13.5-21.6l-.1.1zm53.9-39.7s-13.8-6.2-19.7-8.8c-1.1-.5-2.6-1.3-4.4-2.4 1.1 1.2 2 2.3 2.6 3.4 0 0-3.4-2.1-7.5-4.4l2.2 12.1c4.2 3.5 8.3 7.3 10.2 10 0 0-4.4-2.6-9.6-5.4l-2.2 4.7 9 3.4s7.1 11.1 13.8 26.3c1.3-1.2 2.6-2.4 3.8-3.6-4.8-11.9-8.8-21.8-8.8-21.8l10.6-13.5z"/><path fill="#433B33" d="M128.6 200.8l.7 1c4.2-1 25.8-6.9 37.2-26.5l-3.4-19.5s-.1 0-.1.1c-1.8 1.3-3.8 4-4.8 7s-.6 4.9-1.3 5.7-1.8-.2-2.4 1.8c-.6 1.9-2.2 2.2-3.7 3.8-1.4 1.6.3 1.1-1.9 2.2-2.2 1.1-1.9.5-3 1.1s-3.2 1.6-3.2 2.6.3 1.6-1.3 1.8-1.9 1.9-3.5 2.2-4.9 1-4.9 1l-1.1 1.3-3.3 1.3v13.1z"/><path fill="#383129" d="M166.5 175.2c-11.4 19.6-33 25.5-37.2 26.5l1.5 1.9c6.8-1.4 27.9-7 39.6-26.1 0 0-2.3-16.3-5.3-24.7-.6 1.3-1.3 2.3-2 2.8l3.4 19.6z"/><path fill="#2C251E" d="M165.1 152.9c3 8.4 5.3 24.7 5.3 24.7-11.7 19.1-32.8 24.7-39.6 26.1l1.6 2.1c1.5.1 2.6.5 3.5 1 5-2.2 9.5-4.5 13.5-6.7l1-2.7 1-.5 1 1.5c5.3-3.1 9.8-6 13.4-8.7l.5-1.7 1-.6s.3.2.7.7c6.9-5.2 10.1-8.8 10.1-8.8-.9-9.6-3.9-17.8-5.4-21.4l-3.9-2.9.4-1.4c-1.2-.9-2.3-1.7-3.3-2.4-.2.5-.5 1.1-.8 1.7z"/><path fill="#2F2821" d="M148.6 207.6l-11.9 5c-4 13-7.4 34.7-8 38.3v.6l32.4-23.9 3.4-2.5c-3.7-4.7-11.1-13.6-15.9-17.5zm22.7-16.5l.3.3 10.9-8.6c-.4-.2-.8-.4-1.1-.5l-.9.8-9.2 8zm-5 6l-10.2 6.9c3.5 5.6 7.9 13.6 9.8 20l.2-.1.1-.1 13.3-11.6 4-3.5-3.6-2.9c-4.4-3.3-9.8-7-13.6-8.7zm16.5-21.1c2.2 1.7 6.3 4.8 10.3 8.2l-2.2-12.1c-3.1-1.8-6.6-3.7-9.4-5l1.3 8.9zm-10.4 16.2c3.8 3.9 8.9 9.5 12.6 14.9l6.5-13.7 2.2-4.7c-3.4-1.9-7-3.8-10-5.3l-11.3 8.8zm-24.9 14.5l-.1.1zm7.5-4.5c.2.2.3.5.5.7l9.7-6.3-.9-.3-9.3 5.9z"/><path fill="#1A130B" d="M170.4 190.2l10.2-8.2c-1.3-.5-2.2-.8-2.7-.8l1.5-3.4.9-2.7-1.9-9.4c-.7-.2-1.3-.3-1.7-.3l.8-2-1.3-3.2-3.5-2.6c1.5 3.6 4.6 11.8 5.4 21.4 0 0-3.2 3.6-10.1 8.8.6.7 1.4 1.4 2.4 2.4zm-32.3 18.2l7.5-2.7s.7-2.2 3.4-4.5l.5-1.3c-4 2.2-8.6 4.5-13.5 6.7 1.4.9 2.1 1.8 2.1 1.8zm24.5-12.2s.4-3.4 2.7-4.9l.5-1.7c-3.6 2.6-8.1 5.6-13.4 8.7.5.8 1.2 1.8 2 3.1l8.2-5.2zm-25.5 15l10.3-4.4h.1c-.2-.1-.4-.3-.6-.4l-9.4 3.6c-.1.4-.2.8-.4 1.2zm44-36.4s.3.2.8.6l-1.6-8.8c-.3-.1-.5-.2-.8-.3l1.6 8.5zm-26.3 27.1c.1.1.1.2.2.3l9.2-5.9c-.1 0-.2-.1-.3-.1l-9.1 5.7zm25.6-18.8l-9.4 7.7.3.3 9.1-8z"/><path fill="#775B4B" d="M178.5 95c-.1.3-.1.6-.2.8-.8 3.2-2.3 18.1-4.8 29 5.4 1.2 5.7-3 8.1-6.7 2.6-4.1 2.6-9.8 2.6-12.9s1.2-5.7 3.1-10.8c1.9-5-.5-4.8-3.8-4.8-1 0-2.4.5-3.8 1.1-.7 2.7-1.2 4.3-1.2 4.3z"/><path fill="#8D6C5A" d="M143.6 166.5c1.8-2.6 1.3-1.8 1.9-3.4.6-1.6-.9-.1.6-1.6s2.2-1.9 3.2-3.8.3-2.4 1-3.2c.6-.8.6-.8 1.6-2.1s1.6-1.9 1.9-3.7 2.6-3.4 2.9-4.8c.3-1.4 1.6-2.1.3-3.5-.5-.6-.2-.6.1-.6-.4-.1-1.1-.3-2.7-.9-5.6-1.9-2.2-1.9-5.6-1.9s-1 1.4-4.5 0-2.6-1-4.3-1.8-1.8-.8-1.8-.8-3.1 1.3-9.7 1.3v33.5s4.3-1.1 8.6-1.4c4.4-.2 4.7 1.2 6.5-1.3z"/><path fill="#8D6C5A" d="M178.5 95s-.6-8.1-.6-8.7-.6-5.4-1.4-7.2c-.8-1.8.8-3.5 0-5.4s-1-2.7-1.9-4c-1-1.3-2.6-2.2-4.9-4.2-2.4-1.9-.6-2.4-.5-3.2s.2-1.9.8-4.2.5-1.6 0-3.5-2.1-2.1-3.4-3.8c-1.3-1.8-1.3-.6-4.2-2.6-2.9-1.9-1-.6-3.8-2.7-2.9-2.1-3.2-1.4-4.5-1.9s-4.3-.6-6.1-1-3.7-1.3-5.6-3c-1.9-1.7-1.1-.2-3.4-2.1-2.2-1.9-1.4 0-1.9 0s-1.1 1.3-2.6 1.9-6-.6-6-.6V131s7 .2 9.4-.8 8.8 2.7 10.4 2.9c1.6.2 9.8 3.4 11.5 3.9 1.8.5 2.1 3 1.8 4s-1 .8-1.3 4-2.3 5.8-.8 6.1c1.3.3 4.6-1.2 5.6-2.8l.3-.6c.5-1.6 1.7-4.2 1.9-4.6 1.6-4 3.1-8.1 4.5-12.3.6-1.7 1.1-3.8 1.6-5.9 2.6-11 4-25.8 4.8-29 .2-.3.3-.6.3-.9zm-16.4-11.4c-1.9-.7-7.8-2.4-9.6-1.9s-7 2.9-8.9 3.7c-1.9.8-5.4-2.2-5.4-2.2 1.1-1.4 6.9-3.8 9.1-3.8s3-.8 7.2-.8 9.1 1.1 12.1 3.1 1.9 2.5 1.1 2.8c-.8.2-3.7-.3-5.6-.9z"/><path fill="#604239" d="M166.6 81.6c-3-2-8-3.1-12.1-3.1s-4.9.8-7.2.8-8 2.4-9.1 3.8c0 0 3.5 3 5.4 2.2s7.2-3.2 8.9-3.7c1.8-.5 7.7 1.3 9.6 1.9 1.9.7 4.8 1.1 5.6.8.8-.2 1.9-.7-1.1-2.7z"/><path fill="#3B2E2D" d="M165.4 147.8c0 .2-.1.3-.2.5-1 1.6-4.3 3.1-5.6 2.8-1.4-.3.5-3 .8-6.1.3-3.2 1-3 1.3-4s0-3.5-1.8-4-9.9-3.8-11.5-3.9c-1.6-.2-8-3.8-10.4-2.9s-9.4.8-9.4.8v4.8c6.6 0 9.7-1.3 9.7-1.3l1.8.8c1.8.8.8.3 4.3 1.8 3.5 1.4 1.1 0 4.5 0s0 0 5.6 1.9c1.5.5 2.3.8 2.7.9-.3 0-.6 0-.1.6 1.3 1.4 0 2.1-.3 3.5s-2.6 3-2.9 4.8-1 2.4-1.9 3.7c-1 1.3-1 1.3-1.6 2.1s0 1.3-1 3.2-1.6 2.3-3.2 3.8 0 0-.6 1.6-.2.8-1.9 3.4-2.1 1.1-6.4 1.4c-4.3.3-8.6 1.4-8.6 1.4v18.2l3.3-1.3 1.1-1.3s3.4-.6 4.9-1c1.6-.3 1.9-2.1 3.5-2.2s1.3-.8 1.3-1.8 2.1-1.9 3.2-2.6c1.1-.6.8 0 3-1.1s.5-.6 1.9-2.2 3-1.9 3.7-3.8c.6-1.9 1.8-1 2.4-1.8s.3-2.7 1.3-5.7 3-5.7 4.8-7c0 0 .1 0 .1-.1.6-.5 1.3-1.6 2-2.8.3-.6.6-1.2.8-1.8.8-1.8 1.4-3.6 1.6-4.5.5-2.1-.2-3.5-.2-3.5v.1c-.3.4-1.5 2.9-2 4.6zM128.6 38.9s4.6 1.3 6 .6 2.1-1.9 2.6-1.9-.3-1.9 1.9 0 1.4.4 3.4 2.1c1.9 1.7 3.8 2.7 5.6 3s4.8.5 6.1 1 1.6-.2 4.5 1.9 1 .8 3.8 2.7c2.9 1.9 2.9.8 4.2 2.6s2.9 1.9 3.4 3.8.6 1.3 0 3.5-.6 3.4-.8 4.2-1.9 1.3.5 3.2 4 2.9 4.9 4.2c1 1.3 1.2 2.1 1.9 4 .8 1.9-.8 3.7 0 5.4.8 1.8 1.4 6.5 1.4 7.2 0 .6.6 8.7.6 8.7s.5-1.7 1.2-4.4c.9-3.7 1.9-9.4 2.1-15.7.3-10.9.6-6.7.6-12.1s-.3-4.8 0-7.2-.2-3.5-.8-4.8-1.6-1.1-1.8-3 .2-2.4 0-3.8-.2-.3-1.9-2.7-2.1-2.2-2.1-3.4-.3.5 0-1.1 2.3-.3.7-2.9-1.1-2.2-2.6-3.5c-1.4-1.3-2.1-2.2-3.8-3.2s-3.4-1.6-4.3-3.4c-1-1.8-1.4-2.7-2.2-2.9s-1.1.8-1.8-1 1.1-1.4-.8-3.2-2.5-2.6-5-3.7-1.4-1.3-4-1.3-6.2-1.9-6.2-1.9-1.4-1.3-2.1-1.4c-.7-.2-5.4-3-7.7-1.9-2.2 1.1-3.3 2.1-3.8 1.9s-2.5-2.3-3.6-2.2v15.4l-.1 17.2z"/><path fill="#7A6D31" d="M177.5 163.6l.4-1-.1-.9-.1-.2-1.4-1.1zm-40 46.4l9.4-3.6c-.5-.3-.9-.5-1.3-.6l-7.5 2.7c-.2.4-.4.9-.6 1.5zm16.9-8.6c.1.2.2.3.3.5l9.1-5.6c-.5-.1-.9-.1-1.3-.1l-8.1 5.2zm16-11.2l.7.7 9.4-7.7.9-.8c-.3-.1-.5-.2-.7-.3l-10.3 8.1zm9.9-15l.7-.4-1.5-8.6c-.4-.2-.8-.3-1.1-.4l1.9 9.4zm-8.7 16.2c.3.3.5.6.8.8l11.3-8.8-1.2-.6-10.9 8.6zM155.5 203c.2.3.4.7.6 1l10.2-6.9c-.4-.2-.8-.3-1.2-.5l-9.6 6.4zm26.4-27.7c.3.2.6.4.9.7l-1.3-8.9c-.4-.2-.8-.4-1.2-.5l1.6 8.7zm-44.8 35.9c-.2.5-.3.9-.4 1.4l11.9-5c-.4-.3-.7-.6-1.1-.8h-.1l-10.3 4.4z"/><path fill="#A28742" d="M132.4 205.7l-1.6-2.1-1.5-1.9-.7-1v50.6c0-12.4 3.8-45.6 3.8-45.6z"/><path fill="#BBA67B" d="M136.7 212.6c.1-.5.3-1 .4-1.4.1-.4.3-.8.4-1.2.2-.5.4-1.1.6-1.6 0 0-.7-.9-2.2-1.7-.9-.5-2.1-.9-3.5-1 0 0-3.7 33.1-3.7 45.7 0 0 0-.2.1-.5.4-3.6 3.9-25.3 7.9-38.3z"/><path fill="#A28742" d="M156.1 204c-.2-.4-.4-.7-.6-1-.2-.3-.3-.5-.5-.7-.1-.1-.1-.2-.2-.3-.1-.2-.2-.3-.3-.5-.8-1.3-1.5-2.3-2-3.1-.7-1-1-1.5-1-1.5l-1 .5-1 2.7-.5 1.3s13.7 17.5 17.8 26.7c-.1-1.2-.4-2.6-.8-4-2-6.5-6.4-14.4-9.9-20.1z"/><path fill="#BBA67B" d="M149 201.3c-2.6 2.3-3.4 4.5-3.4 4.5.4.1.8.3 1.3.6.2.1.4.2.6.4.3.2.7.5 1.1.8 4.8 3.9 12.2 12.9 15.9 17.5 1.4 1.8 2.3 2.9 2.3 2.9-4.1-9.3-17.8-26.7-17.8-26.7z"/><path fill="#A28742" d="M172.4 192.2l-.8-.8-.3-.3-.3-.3-.7-.7c-1-1-1.7-1.7-2.3-2.2-.5-.4-.7-.7-.7-.7l-1 .6-.5 1.7-.5 1.7s15.2 11.4 22.8 21c-.3-.6-.6-1.2-1-1.9-.6-1.1-1.4-2.3-2.1-3.4-3.7-5.2-8.8-10.8-12.6-14.7zm7.5 13.6l3.6 2.9 4.6 3.7c.1 0-3.6-3.1-8.2-6.6z"/><path fill="#BBA67B" d="M165.3 191.4c-2.3 1.4-2.7 4.9-2.7 4.9.4 0 .8 0 1.3.1.1 0 .2.1.3.1l.9.3c.4.1.8.3 1.2.5 3.8 1.7 9.2 5.4 13.6 8.7 4.6 3.5 8.3 6.6 8.3 6.6-7.6-9.8-22.9-21.2-22.9-21.2z"/><path fill="#A28742" d="M181.9 175.3c-.5-.4-.8-.6-.8-.6h-.1l-.7.3v.1l-.9 2.7s19.2 11.7 23.9 16.3c-1.9-2.7-6-6.5-10.2-10-4-3.4-8.1-6.5-10.3-8.2-.3-.2-.7-.4-.9-.6z"/><path fill="#BBA67B" d="M179.5 177.9l-1.5 3.4c.5 0 1.4.3 2.7.8.2.1.5.2.7.3.4.2.7.3 1.1.5l1.2.6c3 1.5 6.7 3.4 10 5.3 5.2 2.9 9.6 5.4 9.6 5.4-4.7-4.7-23.8-16.3-23.8-16.3z"/><path fill="#A28742" d="M172.8 157.8l3.5 2.6 1.4 1.1.1.1-.4-2.9.6-.5s.3.2.8.5c-4.1-4.9-9-9.3-9-9.3l-.8.5.6 2.8-.2.8-.4 1.4 3.8 2.9z"/><path fill="#BBA67B" d="M177.3 158.6l.4 2.9v.2l.1.9-.4 1-.8 2c.4-.1 1 .1 1.7.3.3.1.7.2 1.1.4.2.1.5.2.8.3.4.2.8.3 1.2.5 2.8 1.3 6.3 3.2 9.4 5 4.1 2.3 7.5 4.4 7.5 4.4-.7-1.1-1.6-2.2-2.6-3.4-5.2-5.8-14.4-12.5-17.1-14.4-.5-.3-.8-.5-.8-.5l-.5.4z"/><path fill="#383129" d="M128.6 251.4s0-.2-.1-.5l.1.5-20.3-14.8 6.1 18.6c4.6.5 9.3.8 14.1.8l.1-4.6zm-37.9-76.2c11.4 19.6 33 25.5 37.2 26.5l.7-1v-13.2l-3.3-1.3-1.1-1.3s-3.4-.6-4.9-1c-1.6-.3-1.9-2.1-3.5-2.2s-1.3-.8-1.3-1.8-2.1-1.9-3.2-2.6c-1.1-.6-.8 0-3-1.1s-.5-.6-1.9-2.2-3-1.9-3.7-3.8c-.6-1.9-1.8-1-2.4-1.8s-.3-2.7-1.3-5.7-3-5.7-4.8-7c0 0-.1 0-.1-.1l-3.4 19.6z"/><path fill="#2C251E" d="M126.4 203.7l1.5-1.9c-4.2-1-25.8-6.9-37.2-26.5l3.4-19.5c-.6-.5-1.3-1.6-2-2.8-2 5.6-3.7 14.9-4.6 20.3l3.3 10c12 14.5 29.5 19.2 35.6 20.4z"/><path fill="#221B14" d="M84.4 157.8c-.3.8-.7 1.7-1.1 2.8l4.2 12.6c.9-5.4 2.6-14.7 4.6-20.3-.3-.6-.6-1.2-.8-1.8-1 .7-2.2 1.5-3.3 2.4l.4 1.4-4 2.9zm21.5 39l1 .5 1 2.7c4 2.2 8.6 4.5 13.5 6.7.9-.5 2.1-.9 3.5-1l1.6-2.1c-6.1-1.2-23.6-5.9-35.7-20.5l2.6 7.9c3.2 2.3 7 4.7 11.4 7.2.7-.8 1.1-1.4 1.1-1.4zm14.6 15.8l-11.9-5c-2.1 1.7-4.8 4.5-7.4 7.4l7.1 21.6 20.2 14.9v-.6c-.5-3.6-4-25.3-8-38.3zM96.6 201l2.2 6.8c.8-1.3 1.5-2.6 2.3-3.8l-4.5-3zm5.2 2c.2-.3.3-.5.5-.7l-6.6-4.2.4 1.2 5.7 3.7z"/><path fill="#160F07" d="M84.4 157.8l-1.6 1.2.5 1.6c.4-1.1.8-2.1 1.1-2.8zm23.9 43.5c2.6 2.3 3.4 4.5 3.4 4.5l7.5 2.7s.7-.9 2.2-1.7c-5-2.2-9.5-4.5-13.5-6.7l.4 1.2zm-5.5.1c.8-1.3 1.5-2.3 2-3.1-4.4-2.5-8.2-5-11.4-7.2l1.8 5.5 7.6 4.8zm7 5.3l10.3 4.5c-.1-.4-.3-.8-.4-1.2l-9.4-3.6c-.2.1-.3.2-.5.3zm-7.6-4.5c.1-.1.1-.2.2-.3l-6.9-4.3.1.4 6.6 4.2z"/><path fill="#60493B" d="M78.7 95s-.5-1.7-1.2-4.4c-1.4-.6-2.8-1.1-3.8-1.1-3.4 0-5.7-.2-3.8 4.8 1.9 5 3.1 7.7 3.1 10.8s0 8.9 2.6 12.9c2.4 3.7 2.6 8 8.1 6.7-2.6-11-4-25.8-4.8-29-.1-.1-.1-.4-.2-.7z"/><path fill="#775B4B" d="M128.6 135.8c-6.6 0-9.7-1.3-9.7-1.3l-1.8.8c-1.8.8-.8.3-4.3 1.8-3.5 1.4-1.1 0-4.5 0s0 0-5.6 1.9c-1.5.5-2.3.8-2.7.9.3 0 .6 0 .1.6-1.3 1.4 0 2.1.3 3.5s2.6 3 2.9 4.8 1 2.4 1.9 3.7c1 1.3 1 1.3 1.6 2.1s0 1.3 1 3.2 1.6 2.3 3.2 3.8 0 0 .6 1.6.2.8 1.9 3.4 2.1 1.1 6.4 1.4c4.3.3 8.6 1.4 8.6 1.4v-19.7l.1-13.9z"/><path fill="#775B4B" d="M92.1 148.3c1 1.6 4.3 3.1 5.6 2.8 1.4-.3-.5-3-.8-6.1-.3-3.2-1-3-1.3-4s0-3.5 1.8-4 9.9-3.8 11.5-3.9c1.6-.2 8-3.8 10.4-2.9s9.4.8 9.4.8V38.9s-4.6 1.3-6 .6-2.1-1.9-2.6-1.9.3-1.9-1.9 0c-2.2 1.9-1.4.4-3.4 2.1-1.9 1.7-3.8 2.7-5.6 3s-4.8.5-6.1 1c-1.3.5-1.6-.2-4.5 1.9s-1 .8-3.8 2.7c-2.9 1.9-2.9.8-4.2 2.6-1.3 1.8-2.9 1.9-3.4 3.8s-.6 1.3 0 3.5.6 3.4.8 4.2 1.9 1.3-.5 3.2-4 2.9-4.9 4.2c-1 1.3-1.2 2.1-1.9 4-.8 1.9.8 3.7 0 5.4-.8 1.8-1.4 6.5-1.4 7.2 0 .6-.6 8.7-.6 8.7.1.3.1.6.2.8.8 3.2 2.3 18.1 4.8 29 .5 2.2 1.1 4.2 1.6 5.9 1.4 4.3 2.9 8.3 4.5 12.3.2.5 1.5 3 1.9 4.6.2.2.3.4.4.6zm-1.5-66.7c3-2 8-3.1 12.1-3.1s4.9.8 7.2.8 8 2.4 9.1 3.8c0 0-3.5 3-5.4 2.2s-7.2-3.2-8.9-3.7c-1.8-.5-7.7 1.3-9.6 1.9-1.9.7-4.8 1.1-5.6.8-.8-.2-1.9-.7 1.1-2.7z"/><path fill="#462E26" d="M89.5 84.4c.8.3 3.7-.2 5.6-.8 1.9-.7 7.8-2.4 9.6-1.9 1.8.5 7 2.9 8.9 3.7 1.9.8 5.4-2.2 5.4-2.2-1.1-1.4-6.9-3.8-9.1-3.8s-3-.8-7.2-.8-9.1 1.1-12.1 3.1-1.9 2.4-1.1 2.7z"/><path fill="#211514" d="M92.1 152.9c.6 1.3 1.3 2.3 2 2.8 0 0 .1 0 .1.1 1.8 1.3 3.8 4 4.8 7s.6 4.9 1.3 5.7 1.8-.2 2.4 1.8c.6 1.9 2.2 2.2 3.7 3.8 1.4 1.6-.3 1.1 1.9 2.2 2.2 1.1 1.9.5 3 1.1s3.2 1.6 3.2 2.6-.3 1.6 1.3 1.8 1.9 1.9 3.5 2.2 4.9 1 4.9 1l1.1 1.3 3.3 1.3v-18.2s-4.3-1.1-8.6-1.4c-4.3-.3-4.6 1.1-6.4-1.4s-1.3-1.8-1.9-3.4c-.6-1.6.9-.1-.6-1.6s-2.2-1.9-3.2-3.8-.3-2.4-1-3.2c-.6-.8-.6-.8-1.6-2.1s-1.6-1.9-1.9-3.7-2.6-3.4-2.9-4.8c-.3-1.4-1.6-2.1-.3-3.5.5-.6.2-.6-.1-.6.4-.1 1.1-.3 2.7-.9 5.6-1.9 2.2-1.9 5.6-1.9s1 1.4 4.5 0 2.6-1 4.3-1.8 1.8-.8 1.8-.8 3.1 1.3 9.7 1.3V131s-7 .2-9.4-.8-8.8 2.7-10.4 2.9-9.8 3.4-11.5 3.9c-1.8.5-2.1 3-1.8 4 .3 1 1 .8 1.3 4s2.3 5.8.8 6.1c-1.3.3-4.6-1.2-5.6-2.8-.1-.2-.2-.3-.2-.5v-.1c-.5-1.6-1.7-4.2-1.9-4.6v-.1s-.6 1.4-.2 3.5c.2 1 .8 2.8 1.6 4.5.1.7.4 1.3.7 1.9zM78.7 95s.6-8.1.6-8.7.6-5.4 1.4-7.2c.8-1.8-.8-3.5 0-5.4s1-2.7 1.9-4c1-1.3 2.6-2.2 4.9-4.2 2.4-1.9.6-2.4.5-3.2s-.2-1.9-.8-4.2-.5-1.6 0-3.5 2.1-2.1 3.4-3.8c1.3-1.8 1.3-.6 4.2-2.6 2.9-1.9 1-.6 3.8-2.7 2.9-2.1 3.2-1.4 4.5-1.9s4.3-.6 6.1-1 3.7-1.3 5.6-3 1.1-.2 3.4-2.1c2.2-1.9 1.4 0 1.9 0s1.1 1.3 2.6 1.9 6-.6 6-.6V6.4c-1.1-.1-3.1 2-3.6 2.2s-1.6-.8-3.8-1.9c-2.2-1.1-7 1.7-7.7 1.9s-2.1 1.4-2.1 1.4-3.7 1.9-6.2 1.9-1.4.2-4 1.3c-2.5 1.1-3.1 1.9-5 3.7s-.2 1.4-.8 3.2-1 .8-1.8 1-1.3 1.1-2.2 2.9c-1 1.8-2.6 2.4-4.3 3.4s-2.4 1.9-3.8 3.2c-1.4 1.3-1 1-2.6 3.5-1.6 2.6.4 1.3.7 2.9.3 1.6 0 0 0 1.1s-.3 1-2.1 3.4-1.8 1.3-1.9 2.7c-.2 1.4.2 1.9 0 3.8s-1.1 1.8-1.8 3c-.6 1.3-1.1 2.4-.8 4.8.3 2.4 0 1.8 0 7.2s.3 1.3.6 12.1c.2 6.3 1.2 12 2.1 15.7.6 2.6 1.1 4.2 1.1 4.2z"/><path fill="#5E5623" d="M110.3 206.4l9.4 3.6c-.2-.5-.4-1.1-.6-1.6l-7.5-2.7c-.4.1-.8.4-1.3.7zm-7.8-4.5c.1-.2.2-.3.3-.5l-7.6-4.8.4 1.1 6.9 4.2zm-.7 1.1l-5.7-3.7.6 1.7 4.5 3c.2-.3.4-.7.6-1zm8 3.7c-.3.2-.7.5-1.1.8l11.9 5c-.1-.5-.3-1-.4-1.4l-10.4-4.4z"/><path fill="#8A7337" d="M126.4 203.7l-1.6 2.1s3.7 33 3.7 45.6V201l-.7 1-1.4 1.7z"/><path fill="#71602B" d="M124.9 205.7c-1.5.1-2.6.5-3.5 1-1.5.8-2.2 1.7-2.2 1.7.2.5.4 1 .6 1.6.1.4.3.8.4 1.2.2.5.3.9.4 1.4 4 13 7.4 34.7 8 38.3 0 .3.1.5.1.5v-.1c-.1-12.6-3.8-45.6-3.8-45.6zm-16.6-4.4l-.5-1.3-1-2.7-1-.5-1 1.5c-.5.8-1.2 1.8-2 3.1-.1.2-.2.3-.3.5-.1.1-.1.2-.2.3-.2.2-.3.5-.5.7-.2.3-.4.7-.6 1-.7 1.2-1.5 2.4-2.3 3.8l1.4 4.3c4.2-5.9 8-10.7 8-10.7z"/><path fill="#A28742" d="M108.7 207.6c.4-.3.7-.6 1.1-.8.2-.1.4-.3.6-.4.5-.3.9-.5 1.3-.6 0 0-.7-2.2-3.4-4.5 0 0-3.8 4.8-8 10.8l1 3c2.6-3 5.2-5.8 7.4-7.5z"/><path fill="#71602B" d="M82.8 159l1.6-1.2 3.9-2.9-.4-1.4-.2-.8.6-2.8-.8-.5s-3.2 2.9-6.6 6.6c.3-.1.5-.1.8-.2l1.1 3.2z"/><path fill="#54292A" d="M69.1 218.3l5.3-2.1L58.3 171c-1.5.9-3.5 2.1-5.9 3.4h.1c0-.1 11.4 28.4 16.6 43.9zm-20.3-41.9l.1-.1c-2.9 1.5-6.2 3.2-9.7 4.9l3.5-1.3 12 24.2-3.4 1.5 1.4 4.2-4.1 2.1 8.2 22.2 3.7-1.1 1.5 4.5c.3.2.6.4.9.5l3.4-1.2 1.4 3.9c.8.5 1.7.9 2.6 1.4l3-.7c-8.6-25-19.7-56-24.5-65zm16.8-11.3c-1.7 1.7-3.1 3.1-4.2 4l.2-.1c1.1 1.1 17 49.7 27.1 80.7 1.8.6 3.6 1.2 5.5 1.7-9.3-29.1-24.3-75.5-28.6-86.3zm10.2 54.5l-5.5 2.3 8.1 23.8c2.2.9 4.4 1.8 6.6 2.6l-9.2-28.7zm25.4-4.6l-1-3-1.4-4.3-2.2-6.8-.6-1.7-.4-1.2-.1-.4-.4-1.1-1.8-5.5-2.6-7.9-3.3-10-4.2-12.6-.5-1.6-1.1-3.2c-.3 0-.5.1-.8.2-3.6.8-6.5 2.2-9.1 3.9.2.4 21.7 57.8 32.8 93.9 3.2.6 6.5 1.1 9.8 1.5l-6.1-18.6-7-21.6z"/><path fill="#1F1E1C" d="M71.9 159.8c-2.6.6-6.3 5.3-6.3 5.3 4.3 10.8 19.3 57.2 28.6 86.2 3.4 1 6.9 1.8 10.5 2.4-11.1-36-32.7-93.4-32.8-93.9z"/><path fill="#61463C" d="M61.5 169l-.2.1-3.1 1.9 16.1 45.1-5.3 2.1c-5.2-15.5-16.6-43.9-16.6-43.9h-.1l-3.5 1.9-.1.1c4.8 9 15.9 40 24.6 64.9l.3-.1 1 2.9c1.2.6 2.4 1.1 3.7 1.6l-8.1-23.8 5.5-2.3 9.2 28.8c1.2.4 2.4.9 3.6 1.3-9.9-31-25.8-79.5-27-80.6z"/><path fill="#2A351B" d="M63 237.9c1.6.9 3.2 1.9 4.8 2.7l-1.4-3.9-3.4 1.2zm-6.1-3.9l-8.2-22.2 4.1-2.1-1.4-4.2 3.4-1.5-12-24.2-3.5 1.3-7.3 2.6 1.5 3.7 3.4-1.7 1.1 2.5 5.7-1.3 5.1 13.6-6.1 3.4 2.1 4.6-2.6 3.2s3.1 7.9 6 15.8c4.4 3.6 9.1 6.8 13.9 9.8l-1.5-4.5-3.7 1.2zm-38.5-45.3l-2.1.8c.5 1 1.1 1.9 1.6 2.8l1.6-.6-1.1-3zm55 52.6l-3 .7c1.4.7 2.9 1.4 4.4 2.1l-1-2.9-.4.1z"/><path fill="#918233" d="M30.8 210.6c.2.2.4.5.6.7-.1-.3-.3-.5-.4-.8l-.2.1zm11.4 1.2l2.6-3.2-2.1-4.6 6.1-3.4-5.1-13.6-5.7 1.3-1.1-2.5-3.4 1.7-1.5-3.7-13.5 4.9 1.1 3-1.6.6c1 1.8 2.1 3.5 3.2 5.2l.5-.2-1.4-3.2 3.2-1.1-2.3-5.3 5.7-2s1.9 3.7 2 4.5c.5-.3 3.1-1 3.1-1l1.4 3.2 3.4-1.6 3.7 9.3-3.4 1.4 2.6 5.3-2.9 1.8s2.2 5.9 4.8 13.3c2.2 2 4.4 4 6.7 5.8-3-8-6.1-15.9-6.1-15.9z"/><path fill="#12120B" d="M36.6 208.4l2.9-1.8-2.6-5.3 3.4-1.4-3.7-9.3-3.4 1.6-1.4-3.2s-2.6.7-3.1 1c-.1-.7-2-4.5-2-4.5l-5.7 2 2.3 5.3-3.2 1.1 1.4 3.2-.5.2c3 4.6 6.2 9 9.7 13.1l.2-.1c.1.3.3.5.4.8 3.1 3.7 6.5 7.2 10 10.5-2.5-7.2-4.7-13.2-4.7-13.2z"/></svg>