<svg xmlns="http://www.w3.org/2000/svg" width="256" height="256"><circle fill="#B1B3B5" cx="128" cy="128" r="128"/><path fill="#775B4B" d="M165.2 148.4c0 .5-.8 2.1-1 2.7-.2.6-1.3 2.1-1.8 2.7-.5.6 0 2.7 0 3.4 0 .6-1.3 1.6-3.4 2.8-2.1 1.2-1.6 1.3-2.6 1.6s-.6 1-1.4 2.6-2.4 1.8-2.7 3c-.1.3 0 .4.1.4s.1 0 0 0c-.2 0-1.1.2-3.6 1.3-5.4 2.2-3 0-4.1 1.6-1.1 1.6-1.2 1-2.1 1.2-1 .2-.3 2.2-2.1 3s-2.2.8-3 1-1.6.3-5.4 1.4c-3.8 1.1-.6-1.9-.6-1.9l-3.5 1.7v31.8l2.3-2.4c.7-5.8 2.6-20.5 2.9-25.1.3-5.7 5.7-4.8 14-8 7.1-2.7 18.1-11.9 21-14.4-.4-5.9-.4-12.5-.3-17.9-.7 1.2-2.7 3.5-2.7 3.5v4zM181 90.5c-.2-.1-.4-.1-.6-.1h-.6c-2.7.2-3.9 3-3.9 3-1 8.2-2.4 17.3-4.3 26.8l.1 2.1c2.6-.3 5.3-.8 6.2-1.3 2-1.3 2.5-11.2 5.4-19.5 2.7-7.7 2.3-9.7-1.4-10.7h-.1c-.3-.2-.5-.2-.8-.3z"/><path fill="#8C6C5A" d="M139.4 153c.8 0 2.5-.6 2.5-.6l1.9-2.9 2.9-2.6s.3-1.8.6-2.9c.3-1.1.3-2.1.3-2.1s.6-3.5 1.2-4.9c.5-1.4-.7-3.7-1.3-4.9-.6-1.3 1.8-2.4 1.3-3.8s-4.9-3.8-7.5-5.7c-2.6-1.9-8.6-3.5-8.6-3.5l-1.9-1.8.5-.8-1.4-.9s1.9-.9 2.6-.9c.6 0 3.2 1.8 3.2 1.8s5.9 2.6 7.2 3c1.3.5 2.1 1.3 2.1 1.3s1 .8 2.4 1.4 4.5 3.4 5.1 4c.6.6.8 3.4.8 4.2s.8 3 .8 3l-.2 6.4s-1 1.8-2.6 4.3.5 3.5.5 3.5 1.1.3 2.4-.2c1.3-.5 3.7-1.4 4.2-1.5.5 0 .5-1.1 1.3-1.7s.6-.8 2.7-2.6 1.3-2.4 1.3-2.4 1.4-1.1 1.4-1.9 1.7-.8 1.7-.8.6-.8.8-1.8c.5-2.3.9-2.3 1.4-3.9.5-1.6 2.8-10.4 2.9-10.6 1.9-9.6 3.3-18.6 4.3-26.8.2-3.4-2.4-28.5-2.4-28.5-3.6-6.5-7.2-18.9-8.4-21.3-1.2-2.4-21.8-12.7-26.8-10.1-5 2.6-10.3 2.9-10.3 2.9v118.4c4.9 0 6.9-1.8 6.9-1.8h4.2zm.3-86.7s8 .8 12.5-.8 11.5 1 11.5 1l-1.9 1.6 1 1-.6.8.8 2.2s-10.7.6-12.1 0c-1.4-.6-8.1 2.2-11-1.8-3.1-4-.2-4-.2-4z"/><path fill="#423427" d="M128 36.4s5.3-.2 10.3-2.9c5-2.6 25.6 7.7 26.8 10.1 1.2 2.4 4.8 14.8 8.4 21.3 0 0 2.6 25.1 2.4 28.5 0 0 1.2-2.7 3.9-3h.6c.4 0 .9.1 1.4.3h.2s2.1-3.8 1.7-6.1c-.4-2.3-1.1-2.6 0-4.4 1.2-1.8 1.6-1.3 1.2-3.4-.5-2-.5-2-.6-2.9s-.1 1.8-.1-2 .7-2.5-.6-5.6c-1.3-3.1-1.3-2.9-1.3-4.2s2-2.8 1.2-5.5c-.8-2.8-1.3-3.5-1.9-4.7-.6-1.2-1.1.7-1.3-2.4-.2-3.1 1-1.7-.2-3.1-1.2-1.4 0 .4-2.2-2.2-2.2-2.5-2.2-.7-2.5-3.2-.4-2.5 1.2-1-.4-2.5s1.9.8-1.6-1.6c-3.5-2.4-3.2-1.3-3.5-2.4-.2-1.1.1-1.7-.2-2.4-.4-.7 1.1.5-1.1-1.9s-2.4-2-2.8-2.9c-.4-.8 0-4-1.9-5.6s1.6 0-1.9-1.7-.1 2.6-3.5-1.7-.8-3.4-3.4-4.3c-2.5-1-2.4-1-4.3-1.1-1.9-.1-.6.8-2.8 0-2.2-.8-2-.6-3.5-1-1.4-.4-.8 0-2.5-.8s-1.4-1.3-2.6-.8c-1.2.5-.2.2-1.2.5-1 .2-2.2-.1-3.6-.7-1.4-.5-.6.1-1.4-.5s-2.2-1.3-5.3-1.3v28.1z"/><path fill="#423427" d="M150.7 72.1c1.4.6 12.1 0 12.1 0l-.8-2.2.6-.8-1-1 1.9-1.6s-7-2.6-11.5-1-12.5.8-12.5.8-2.9 0 0 4c3 4 9.7 1.1 11.2 1.8zm1.8 95.5c.1 0 .2 0 0 0zm19.1-47.4c-.1.2-2.4 9-2.9 10.6-.5 1.6-.8 1.6-1.4 3.9-.2 1-.8 1.8-.8 1.8s-1.7 0-1.7.8-1.4 1.9-1.4 1.9.8.6-1.3 2.4c-2.1 1.8-1.9 1.9-2.7 2.6s-.8 1.7-1.3 1.7-2.9 1-4.2 1.5c-1.3.5-2.4.2-2.4.2s-2.1-1-.5-3.5 2.6-4.3 2.6-4.3l.2-6.4s-.8-2.2-.8-3-.2-3.5-.8-4.2c-.6-.6-3.7-3.4-5.1-4s-2.4-1.4-2.4-1.4-.8-.8-2.1-1.3-7.2-3-7.2-3-2.6-1.8-3.2-1.8c-.6 0-2.6.9-2.6.9l1.4.9-.5.8 1.9 1.8s6.1 1.6 8.6 3.5c2.6 1.9 7 4.3 7.5 5.7.5 1.4-1.9 2.6-1.3 3.8.6 1.3 1.9 3.5 1.3 4.9-.5 1.4-1.2 4.9-1.2 4.9s0 1-.3 2.1-.6 2.9-.6 2.9l-2.9 2.6-1.9 2.9s-1.7.6-2.5.6h-4.5s-1.9 1.8-6.9 1.8v22l3.5-1.7s-3.2 3 .6 1.9c3.8-1.1 4.6-1.3 5.4-1.4s1.3-.2 3-1 1.1-2.8 2.1-3c1-.2 1 .4 2.1-1.2s-1.3.6 4.1-1.6c2.5-1 3.3-1.2 3.6-1.3-.1 0-.2-.1-.1-.4.3-1.1 1.9-1.4 2.7-3s.5-2.2 1.4-2.6.5-.4 2.6-1.6c2.1-1.2 3.4-2.2 3.4-2.8 0-.6-.5-2.7 0-3.4.5-.6 1.6-2.1 1.8-2.7.2-.6 1-2.2 1-2.7v-4s2-2.3 2.7-3.5c.2-.3.3-.5.3-.6 0-.6.7-3.9 1.2-4.6.5-.6.2-1.1.8-2.4.6-1.3.6-1.8 1-2.2s.8-2.4.8-2.4v-2.4l-.2-4.1.1-1.9z"/><path fill="#2E2E2B" d="M139.8 211.3c-.1 0-.2.1-.2.1.5.3 1.8.8 2.9 1.2.7.2 1.3.5 1.8.7-1.4-1.4-3-2.6-4.5-2zm35.9-11.2c.1 0 .4.1.9-.3.6-.4.5-.8.5-.9 0-.9-1.7-2-3.1-2.9-.5-.3-1-.7-1.4-1 .3.6.7 1.3 1 2 .6 1.4 1.3 2.9 2.1 3.1zM137.5 216s0 .2.1.5c.3 1.3 1.5 1.3 3.3 1.2h.2c-.5-.2-.9-.5-1.4-.7-.8-.4-1.9-1-2.2-1zm42.6-46.9c1.4.5 3.7 1.3 4.6 1.3-.7-.3-1.4-.6-2-.9-1-.2-2.1-.4-2.9-.5.1.1.2.1.3.1zm-41.8 51.5c-.2 0-.4 0-.5.1-.1.1-.2.3-.2.5 0 .3.1.4.2.5.4.3 1.8 0 2.9-.3.2-.1.5-.1.7-.2l-1.2-.3c-.6-.1-1.4-.3-1.9-.3zm.9-6.9c-.5-.4-1.1-.8-1.4-1 .2.3.7.7 1.4 1zm36.2-44.9c-.1 0-.3 0-.3.1.1 1.1 3 1.3 5.1 1.5.3 0 .5.1.8.1-.4-.1-.8-.3-1.2-.4-1.3-.5-3.6-1.3-4.4-1.3zm-30.8 59.5c.3-.2.4-.5.5-.9.1-.3 0-.6-.1-.7-.4-.3-1.9.2-3 .5-1.1.4-2.3.7-3.2.8.6 0 1.3.2 2 .3 1.5.2 3.1.5 3.8 0zm6.8-17.3c.1-1 .1-2.3-.3-2.7-.1-.1-.3-.1-.5-.1-.3 0-.7.1-1 .2-.8.3-1.2.6-1.3.9-.1.6 1 1.6 1.9 2.4.5.4.9.8 1.2 1.1V211zm18.3-9.8c-.3-1.3-.6-2.8-1.3-3.1-.1 0-.2-.1-.4-.1-.3 0-.7.1-1.2.4-.6.3-.9.7-.9.9 0 .5 1.3 1.2 2.2 1.7.7.4 1.4.7 1.8 1.1 0-.2-.1-.6-.2-.9zm1.9 2.2c.2.1.5-.1.7-.2.3-.2.5-.4.5-.7.1-.8-1-2.1-2-3.2-.4-.4-.7-.8-1-1.2.4.8.7 1.8.9 2.8.2 1.1.5 2.3.9 2.5zm-26.1 6.7s0 .1 0 0c-.1.2.5.8 1 1.4-.3-.6-.7-1.4-1-1.4zm28.5-43.5c.1.6 3.5 1.1 5.4 1.4-1.2-.6-2.3-1.1-3.3-1.5-1-.3-1.8-.3-2.1.1zm2.9 9c-.3 0-.5 0-.6.1-.1 0-.1.1-.2.3 0 .2 0 .3.1.3.4.4 2 .3 3.2.2.5 0 1.1-.1 1.6-.1-.3-.1-.7-.2-1-.3-1-.1-2.3-.5-3.1-.5zm-38.8 69.9c-.2 0-.4 0-.5.1 0 0-.1.1-.1.4 0 .1 0 .2.1.2.5.4 2.2.3 3.7.2h.3c-.2-.1-.5-.1-.7-.2-1-.3-2.1-.7-2.8-.7zm38.5-66.1h-.2s-.1.1-.1.3c0 .3.1.4.2.5.4.4 1.6.4 2.7.3h1c-.5-.2-1-.3-1.4-.5-.7-.2-1.7-.6-2.2-.6zm7.3-3.7v-.2c-.4-.4-2.2-.4-3.7-.4h-.9c.3.1.7.2 1.1.3 1.3.4 3 .9 3.5.5-.1 0 0 0 0-.2z"/><path fill="#2E2E2B" d="M181.6 195c2.3-8.9 4.4-22.7 4.5-23.9-.1-.1-.2-.1-.3-.2l-.3.3c-.2.1-.4.1-.6.2.2.1.3.3.4.4.1.3.3.7 0 1.2-.9 1.8-3.9 1-6.6.3-1.3-.4-3.1-.9-3.5-.6v.3c.2 1.2 2.9 1.1 5 1.1 2 0 3.8 0 4.4.8.2.3.3.6.3 1-.1.4-.2.7-.5.9-.2.1-.5.2-.8.2.2.1.4.3.6.4.4.4.5 1 .3 1.7s-.5 1.2-1.1 1.5c-.3.2-.6.2-1 .3.2.1.3.2.5.4.4.4.5 1 .4 1.6-.1.7-.4 1.2-.8 1.4-.9.5-2.2 0-3.6-.6-1-.4-2.1-.9-2.6-.7-.1 0-.2.1-.3.4-.1.2-.1.3 0 .4.3.4 1.5.4 2.5.4 1.6 0 3.2.1 3.9 1 .3.4.5.9.4 1.6-.1.6-.3 1.1-.8 1.3-.9.5-2.2 0-3.7-.6-1.2-.5-2.5-1-3.2-.7-.1.1-.3.2-.5.5-.1.2-.1.4 0 .5.3.4 1.8.4 3 .4 1.7 0 3.6 0 4.3 1 .3.4.4 1 .1 1.7-.2.7-.7 1.2-1.2 1.5-1.2.5-2.7-.4-4.2-1.3-1.3-.7-2.7-1.5-3.2-1 .1.4 1.6.8 2.5 1.1 1.9.6 3.9 1.2 4.3 2.4.2.5 0 1.1-.4 1.6-.4.6-1 .9-1.6.9-1.5.1-3-1.1-4.4-2.3-.6-.5-1.5-1.2-1.8-1.2-.2.6 1.4 1.7 2.6 2.5 1.7 1.1 3.4 2.3 3.5 3.6 0 .6-.3 1.2-.9 1.6-.6.4-1.1.6-1.7.5-1.2-.3-1.9-1.9-2.7-3.6-.6-1.3-1.3-2.8-2-3-.1 0-.3-.1-.8.2-.4.3-.5.6-.5.7-.1.9 1.1 2.2 2.1 3.3 1.2 1.4 2.4 2.7 2.2 4-.1.5-.4 1-1 1.3-.6.4-1.1.5-1.6.3-.3-.1-.5-.3-.6-.5-.2.6-1.1 1.1-1.7 1.4-1.3.6-2.3.7-3 .3-1.1-.5-1.4-1.8-1.6-2.8-.1-.6-.3-1.3-.6-1.3-.1 0-.3-.1-.9.4-.4.3-.6.6-.7.9 0 .6.8 1.3 1.6 2 1 .9 2 1.8 2 2.9 0 .6-.4 1.2-1.1 1.7-.7.5-1.4.7-1.9.5-1-.4-1.3-1.8-1.6-3.3-.2-1-.5-2.3-1-2.5-.2-.1-.6.1-.9.3-1.4 1-.9 1.9.1 3.3.6.9 1.2 1.7 1 2.6-.1.5-.5 1-1.1 1.4-.6.4-1.2.5-1.6.3-.9-.4-1.1-1.7-1.4-3.2-.2-.9-.4-2.1-.7-2.3-.1-.1-.3 0-.6.2-1 .6-.8 1.3 0 2.8.5 1 1 2 .6 3-.2.6-.8 1.1-1.6 1.5-.8.4-1.4.4-1.8.1h-.1v.2c-.1.4-.3.6-.8.8-.7.3-1.3.3-1.8.1v.2c0 .2-.1.5-.5.8-.5.3-.9.2-1.5 0-.1.2-.2.5-.5.7-.4.4-.9.5-1.4.5 0 .2-.1.4-.3.6-.3.4-.7.6-1.1.6.2.3.3.7.3 1.2 0 .6-.2 1-.5 1.3.4 0 .8.2 1.1.4.4.3.6.9.6 1.6 0 .7-.2 1.2-.7 1.6-.9.7-2.3.6-3.8.4-1.2-.2-2.5-.3-3 .2-.2.2-.3.5-.3 1 0 .6.3.7.3.8.7.5 2.4-.1 3.8-.6 1.7-.5 3.1-1 3.9-.3.4.3.5.9.4 1.6-.1.7-.4 1.2-.9 1.5-1.1.8-2.8.4-4.4.1-1.2-.2-2.5-.5-3-.1-.1 0-.2.2-.2.6 0 .4.2.6.2.6.4.4 1.7.1 2.8-.1 1.6-.3 3.3-.7 4.4.1.5.4.9 1 1 1.9.1.9-.1 1.5-.5 1.9-.9.8-2.5.4-4.2-.1-1.3-.3-2.7-.7-3.2-.3-.1.1-.2.2-.2.5 0 .4.1.6.2.6.5.5 2 .3 3.4.2 1.6-.2 3.2-.4 4 .4.3.3.5.7.5 1.2s-.2 1-.6 1.2c-.7.6-2 .4-3.3.2-2-.3-3.4-.4-3.7.8-.1.3-.1.5 0 .5.3.3 1.7 0 2.8-.3 2.2-.5 4.8-1.1 5.4 1.1.1.6.1 1-.2 1.3-.7.7-2.1.5-4 .2-1.6-.2-3.6-.5-4.3.1-.2.2-.3.5-.3.9 0 .6.2.7.2.7.5.4 2 0 3.4-.4 1.8-.5 3.6-1.1 4.7-.3.5.4.8 1 .8 1.9 0 .9-.2 1.5-.7 1.9-.1 0-.1.1-.2.1.2.1.3.2.5.3.3.3.5.7.5 1.3 0 .6-.3 1-.5 1.2-.9.8-2.9.4-4.9-.1-1.2-.3-3-.6-3.4-.3v.3c.2 1.1 1.9 1 4.2.7 1.8-.2 3.4-.4 4.2.4.3.3.5.7.5 1.3 0 .5-.2.9-.6 1.2-.1.1-.1.1-.2.1l.6.3c.3.3.5.6.6 1 .3 0 .6-.1.9-.1-.8-16.6-2.3-35-2.3-35s33-14.6 35.4-23.9z"/><path fill="#2E2E2B" d="M135.4 210l.4-.1c.2 0 8.4-2.2 17.2-6.4-8.4 3.3-17.1 4.6-20.9 4.9v47.5c1.1 0 2.2-.1 3.3-.1V210zm28.2 14.3s0-.1 0 0c.5-.6 1-1.1 1.4-1.7-1.6-1.4-3.4-2.5-4.6-2.6h-.2c-.4 0-.6.1-.7.2-1.5 1.3-.4 3.5 2 6.7 1.2-1.6 2.1-2.6 2.1-2.6zm5.6 2.5c-.6-.8-1.6-1.9-2.8-2.9-.4.6-.9 1.1-1.4 1.7-.1.1-1.1 1.3-2.4 2.9.2.2.4.5.6.7.8 1 1.8 2.3 3 4 .2.3.5.7.8 1 1.3-1.7 2.7-3.5 4.1-5.1-.8-.8-1.4-1.6-1.9-2.3zm1.5-1.2c.5.6 1 1.3 1.6 2 1.4-1.7 2.8-3.3 4-4.5l.8-.8c-1-1.1-2-2.1-3-3.1-.9-.9-1.6-1.4-2.2-1.3-1 .1-2.2 1.7-3.6 3.6-.2.3-.5.7-.8 1 1.5 1.1 2.6 2.4 3.2 3.1zm-9.1 4.8c-.1-.1-.2-.2-.3-.4-.5.6-.9 1.2-1.4 1.9-2.4 3.3-1.9 4.8-.7 7 .4.7 1 1.7 1.9 3 1.3-1.8 2.9-4 4.6-6.2-.4-.5-.7-1-1.1-1.4-1.2-1.6-2.2-3-3-3.9zm13.3 14c.6.7 1.1 1.4 1.7 2.1 2.2-.9 4.3-1.8 6.5-2.9-1.1-1.4-2.4-2.9-3.7-4.4-1.4 1.6-2.9 3.4-4.5 5.2zm12.5-10.7l-.2-.3c-.4-.5-1-1.1-1.5-1.8-.4.5-.8 1-1.2 1.4-.5.6-1 1.2-1.4 1.7-.5.7-1.4 1.7-2.4 3 1.5 1.8 2.9 3.5 4.2 5.1.7-.3 1.4-.7 2-1 .5-.6 1-1.1 1.4-1.5 2.3-2.7 1.7-3.4-.9-6.6zm-20.5 3.6c-1.8 2.4-3.4 4.6-4.7 6.4 1.3 2 2.8 4.2 4.4 6.4.3-.1.7-.2 1-.3 1.4-1.5 3-3.4 4.7-5.4-1.8-2.4-3.6-4.9-5.4-7.1zm4.5 11.2c1.1-.4 2.2-.8 3.4-1.3-.4-.4-.7-.9-1.1-1.3-.8.9-1.6 1.7-2.3 2.6zm-11.1-1.9l-.4.6c-1.4 2.3-2.4 4-2.5 5.4 2.5-.6 4.9-1.2 7.3-1.9-1.3-1.8-2.5-3.6-3.6-5.3-.3.5-.6.9-.8 1.2zm-21.3 6.2c-.4 0-.7.1-.9.2-.1 0-.1.1-.1.3 0 .2.1.2.1.3.4.4 2.1 0 3.4-.2.2 0 .5-.1.7-.1-.2 0-.4-.1-.6-.1-.9-.2-1.9-.4-2.6-.4zm33.3-22.2c-1.4 1.7-2.8 3.4-4.1 5.2 1.7 2.2 3.6 4.7 5.5 7.1 1.6-1.8 3.1-3.6 4.4-5.2-.5-.6-1.1-1.3-1.6-1.9-1.5-1.9-2.9-3.6-4.2-5.2z"/><path fill="#2E2E2B" d="M141.5 244c-1 .3-1.9.6-2.7.6.7.1 1.5.4 2.4.7 1.5.5 3.5 1.1 4.2.5.3-.2.4-.6.4-1.1 0-.6-.1-.9-.4-1.1-.8-.5-2.5 0-3.9.4zm64.6-55.4c-3.2 10.2-9.9 18.3-14.7 22.2-4.2 4-8.6 3.5-11.5 3.2-2.6-.3-3.1-.2-3.3.7-.1.2-.1.4 0 .5.4.5 3.1.4 4.8.3 2.6-.1 5.3-.3 7 .7 4.5 2.5 4.5 7.1 4.5 8.7v.5c-.1 5.4.7 9.3 2.1 11.8 19-11.7 34.7-28.3 45.5-47.9-13.7-4.1-27.3-7.3-33.7-9.2.4 2.4.3 5.4-.7 8.5z"/><path fill="#2E2E2B" d="M191 224.7c0-2.4-.4-5.3-3.5-7-1.2-.7-3.8-.6-6-.4-2.9.1-5.4.3-6.4-1-.3-.4-.6-1.1-.3-2.2.7-2.6 3.1-2.3 5.4-2 2.9.3 6.5.7 10.1-2.7 5-4 11.2-12.1 14.1-21.3 1-3.2.9-6.2.4-8.8-1.1-.4-2.5-1-4-1.6 0 0 .2 15.2-3.8 19.7s-9.6 12.7-19.2 12.9-9.6 5-12.2 6c-2.6 1-6.9-.3-9.6 1.9-3.4 2.8 1.3 7.3.8 10.8-.5 3.5-3.7 3.4-4.1 6.6-.4 3.2 3.2 4 3.2 7.1 0 2.5-3.5 6.8-3.1 11l2.7-.6c0-2.2 1.4-4.5 2.8-6.8l.4-.6c.3-.5.7-1.2 1.3-1.9-1.1-1.6-1.9-3-2.4-3.8-1.7-3.1-2-5.2.8-9 .6-.8 1.2-1.6 1.8-2.3-2.8-3.7-4.8-7.2-2-9.7.6-.5 1.4-.8 2.4-.7 1.7.2 3.8 1.5 5.6 3l.6-.9c1.7-2.4 3.1-4.2 5-4.3 1.2-.1 2.4.5 3.7 1.9.9 1 2 2.1 3 3.1 1.5-1.3 3.5-2.6 5.7-2.8 1.5-.1 2.9.3 4 1.4 3.4 3 1.2 7.2-1.3 10.6.7.8 1.3 1.5 1.8 2.1l.2.3c2.1 2.5 3.6 4.3 2.3 6.9.7-.4 1.5-.8 2.2-1.3-1.6-2.8-2.4-7.1-2.4-12.8v-.8z"/><path fill="#2E2E2B" d="M177.7 224.3c-1.3 1.4-2.8 3-4.2 4.8 1.4 1.7 2.9 3.5 4.5 5.5.5.5.9 1.1 1.4 1.6.9-1.1 1.7-2 2.1-2.6.4-.5.9-1.1 1.5-1.8.5-.5.9-1.1 1.4-1.6-1.7-2-3.9-4.3-6-6.5-.3.2-.5.4-.7.6zM172 186c-.7 2-1.7 4-3.1 6-.2.3-.5.7-.7 1 1.3-1.5 2.5-3 3.3-4.6 1.2-2.2 1.7-4.6 1.7-6.9-.1.4-.2.9-.3 1.3-.2 1-.5 2.1-.9 3.2z"/><path fill="#2E2E2B" d="M141.7 254.3c-1.8.3-3.4.6-4.2 0-.2-.2-.4-.5-.4-1 0-.6.2-.9.5-1.1.8-.7 2.4-.4 4.3-.1 1.5.3 3.4.6 4 .1.1-.1.2-.2.2-.5s-.1-.5-.2-.6c-.5-.5-2.1-.3-3.5-.1-2.3.3-4.8.5-5.3-1.4-.1-.6.1-1 .3-1.2.7-.7 2.3-.4 4.3 0 1.6.3 3.5.7 4.1.3.1-.1.2-.2.2-.5s-.1-.5-.2-.6c-.6-.6-2.5-.5-4.2-.3-1.9.1-3.6.3-4.4-.5-.3-.2-.4-.6-.5-.9 0-.7.3-1 .5-1.2.2-.2.5-.2.8-.3-.2-.1-.5-.1-.7-.3-.4-.3-.6-.8-.6-1.5s.2-1.2.7-1.6c1.1-.9 3.1-.6 5.1-.3 1.2.2 2.8.4 3.1.1.1-.1 0-.3 0-.4-.3-1.2-1.9-.9-4.2-.4-1.6.4-3 .7-3.6 0-.3-.3-.4-.8-.3-1.4.5-2.2 2.9-1.8 4.8-1.5 1 .2 2.2.4 2.6 0 0 0 .2-.2.2-.5s-.1-.4-.1-.5c-.5-.4-1.9-.3-3.2-.1-1.7.2-3.3.4-4.2-.4-.3-.3-.5-.8-.5-1.4 0-.5.3-1 .6-1.2.9-.6 2.4-.2 4 .2 1.3.3 2.8.7 3.3.3.2-.2.3-.5.2-1.1-.1-.6-.3-1-.6-1.2-.8-.6-2.3-.3-3.7 0-1.5.3-2.8.6-3.6-.1-.4-.3-.6-.8-.6-1.3 0-.6.2-1.1.5-1.4.4-.3.8-.4 1.4-.4-.4 0-.7-.1-1-.3-.5-.3-.7-.8-.8-1.5 0-.8.1-1.3.6-1.7.8-.8 2.3-.6 3.7-.4 1.2.1 2.5.3 3-.2.2-.2.3-.5.3-.9 0-.6-.2-.8-.2-.8-.5-.4-2-.1-3.3.3-1.5.4-2.9.7-3.7.1-.3-.3-.5-.7-.5-1.2 0-.6.2-1 .5-1.3.7-.6 1.9-.3 3.2.1 1 .3 2.2.6 2.6.2.1 0 .2-.2.2-.7 0-.4-.1-.6-.2-.8-.4-.3-1.3-.3-2.2-.2-1.6.1-3.8.3-4.3-1.9-.1-.3-.3-1.1.3-1.5.6-.5 1.7.1 3.2.9 1.5.8 3.6 1.9 4.3 1.1l.1-.1c-1-.3-2-.9-3-1.6-.1 0-.2-.1-.3-.1-2.3-.7-4.5-1.4-4.3-2.9.1-.5.3-.7.5-.8.6-.3 1.4.3 3 1.7.5.4 1 .8 1.6 1.3 1.5.5 2.8.9 3.3 1.7.4 0 .7-.1 1-.3.1-.1.3-.2.2-.3-.1-.7-2.8-1.6-4.4-2.2-2.5-.9-3.6-1.3-3.6-2.1 0-.6.7-.9 1-1 2.4-.9 4.6 1.3 6.4 3.1.9.9 2 2 2.5 1.8.2-.4-1.2-1.7-1.8-2.3-1.3-1.3-2.2-2.1-2-2.9 0-.2.2-.5.6-.7 1.2-.5 1.8.8 2.5 2.1 1 2 1.7 3.3 3.3 2.7l.2-.1c0-.2-.9-1-1.4-1.4-1.1-1-2.4-2.1-2.2-3.3.1-.7.7-1.2 1.9-1.7 1.1-.4 1.9-.4 2.4 0 .9.7.8 2.1.7 3.5 0 .8-.1 1.9.2 2.1 0 0 .2.1.9-.2.6-.3 1-.6 1.1-1 .2-.6-.2-1.4-.6-2.3-.6-1.3-1.4-2.9.4-4 .6-.4 1-.4 1.5-.2.8.4 1.1 1.7 1.3 3 .2 1 .4 2.3.8 2.4.2.1.5-.1.7-.2.4-.2.6-.5.7-.8.1-.5-.4-1.2-.8-1.9-.9-1.3-2.1-3.1.2-4.6.7-.5 1.2-.6 1.8-.4 1 .4 1.3 1.7 1.6 3.2.2 1.1.5 2.4 1 2.6.3.1.7-.1 1-.4.5-.3.7-.7.8-1 0-.6-.8-1.4-1.7-2.1-1-.9-2-1.7-1.9-2.8 0-.6.4-1.1 1-1.6.5-.3 1.2-.8 1.8-.5.7.3.9 1.1 1.2 2 .2.9.5 1.8 1.1 2.1.5.2 1.2.1 2.2-.3 1.1-.5 1.2-.8 1.2-.9 0-.4-1.2-1.1-2-1.5-1.4-.8-2.7-1.5-2.7-2.6 0-.6.4-1.2 1.4-1.8 1-.6 1.8-.7 2.5-.4.2.1.4.2.6.4-.6-.8-.9-1.5-.8-2.3.1-.5.3-1 .9-1.4.5-.4 1.1-.5 1.6-.4.1 0 .1 0 .2.1-.2-.3-.2-.7-.1-1.1.2-.5.4-.6.6-.7.7-.2 1.5.5 2.7 1.4 1.2 1 2.6 2.2 3.7 2.1.4 0 .7-.2 1-.6.2-.3.3-.5.3-.7-.2-.7-2.2-1.3-3.6-1.8-1.9-.6-3-.9-3.2-1.7-.1-.2-.1-.6.3-1 1-1.1 2.7-.2 4.4.8 1.2.7 2.7 1.5 3.4 1.2.3-.1.5-.4.7-.9.1-.4.1-.7 0-.9-.4-.6-2.1-.6-3.5-.6-1.7 0-3.2 0-3.8-.8-.3-.4-.3-.8-.1-1.4.2-.5.5-.9 1-1.1 1.1-.5 2.5.2 3.9.7 1.1.5 2.3 1 2.8.7.2-.1.3-.3.3-.6 0-.4 0-.6-.2-.8-.5-.6-2-.6-3.2-.6-1.5 0-2.7-.1-3.3-.8-.2-.3-.3-.8-.2-1.2.1-.5.4-.8.8-1 .9-.4 2.1.1 3.4.7 1.1.4 2.3 1 2.8.7.2-.1.3-.4.3-.7.1-.4 0-.7-.2-.9-.4-.5-1.7-.5-2.9-.4-1.4 0-2.7.1-3.4-.6-.3-.3-.5-.7-.5-1.2s.2-.9.5-1.1c.7-.5 1.9 0 3.3.5 1.3.5 2.9 1.1 3.7.7.3-.1.5-.4.6-.9.1-.6 0-.8-.1-.9-.5-.6-2.4-.5-3.8-.4-1.8.1-3.3.2-4-.5-.2-.2-.4-.5-.4-1.1 0-.6.3-.9.6-1 .1-.1.2-.1.3-.2-1-.3-1.8-.7-1.9-1.7-.1-.6.1-1 .3-1.1.7-.7 2.3-.2 4.4.4 2.2.6 4.9 1.4 5.5.2.1-.2.1-.3.1-.3-.3-.6-2.6-.8-4.3-.9-3-.3-5.8-.5-6-2.3-.1-.5.1-.8.3-1l.1-.1c-.7-.2-1.2-.5-1.4-.9-.1-.3-.1-.6 0-.9.2-.4.5-.6.9-.7-1.6-.8-2.6-1.2-2.6-1.2 1.1 3.4 2.2 8 2.1 13 1.1 4 .7 7.8-1.2 11.5-7.1 13.8-32.6 21-36.1 22v45c.4 0 .8 0 1.1-.1l.2-.2c.6-.5 1.7-.4 3-.1 2-.2 3.9-.4 5.8-.7-.1-.2-.1-.3-.3-.4-1.2-.9-3.3-.5-4.9-.2zm45.2-33.4c-.7-.6-1.4-.9-2.3-.9h-.3c-1.6.1-3.2 1.2-4.5 2.3 2 2.2 4 4.4 5.8 6.3 2.1-3 3.4-5.8 1.3-7.7zM128 208.6l2.1-.8c.1-.4.1-.9.2-1.5l-2.3 2.3z"/><path fill="#23231F" d="M132 208.4c-1.3.1-2 .2-2 .2s0-.3.1-.8l-2.1.8V256c1.3 0 2.7 0 4-.1v-47.5z"/><path fill="#86817D" d="M192.9 224.7c0-1.5 0-6.2-4.5-8.7-1.7-.9-4.4-.8-7-.7-1.7.1-4.4.2-4.8-.3v-.5c.2-.8.7-.9 3.3-.7 2.9.3 7.4.8 11.5-3.2 4.7-3.8 11.4-11.9 14.7-22.2 1-3.2 1.1-6.1.7-8.7-.8-.3-1.5-.5-2.1-.7.5 2.6.6 5.6-.4 8.8-2.9 9.2-9.2 17.3-14.1 21.3-3.6 3.4-7.2 3-10.1 2.7-2.3-.3-4.7-.5-5.4 2-.3 1.1 0 1.8.3 2.2 1 1.3 3.5 1.2 6.4 1 2.2-.1 4.8-.2 6 .4 3.1 1.7 3.5 4.6 3.5 7v.5c-.1 5.8.7 10 2.4 12.8.6-.3 1.1-.7 1.7-1-1.5-2.4-2.2-6.4-2.1-11.8v-.2z"/><path fill="#86817D" d="M188.9 232.5l-.2-.3c-.5-.6-1.1-1.3-1.8-2.1 2.6-3.4 4.7-7.6 1.3-10.6-1.2-1-2.5-1.5-4-1.4-2.2.2-4.2 1.5-5.7 2.8-1-1.1-2-2.2-3-3.1-1.3-1.4-2.5-2-3.7-1.9-1.9.1-3.3 2-5 4.3l-.6.9c-1.8-1.5-3.9-2.8-5.6-3-.9-.1-1.7.2-2.4.7-2.9 2.5-.9 5.9 2 9.7-.6.7-1.2 1.5-1.8 2.3-2.8 3.8-2.5 5.9-.8 9 .4.8 1.3 2.2 2.4 3.8-.5.8-1 1.4-1.3 1.9l-.4.6c-1.5 2.4-2.9 4.6-2.8 6.8.6-.1 1.3-.3 1.9-.4.1-1.4 1.1-3.1 2.5-5.4l.4-.6c.2-.3.5-.7.8-1.2 1.1 1.7 2.3 3.5 3.6 5.3.6-.2 1.3-.4 1.9-.6-1.5-2.2-3.1-4.4-4.4-6.4 1.2-1.8 2.9-4 4.7-6.4 1.7 2.2 3.6 4.6 5.5 7-1.7 2-3.4 3.9-4.7 5.4 1.2-.4 2.5-.8 3.7-1.3.7-.8 1.5-1.7 2.3-2.6.4.5.7.9 1.1 1.3.6-.2 1.2-.5 1.9-.8-.6-.7-1.1-1.4-1.7-2.1 1.6-1.8 3.1-3.6 4.5-5.2 1.3 1.6 2.5 3.1 3.7 4.4l1.8-.9c-1.3-1.6-2.7-3.3-4.2-5.1 1-1.3 1.9-2.3 2.4-3 .4-.5.9-1 1.4-1.7.4-.4.8-.9 1.2-1.4.6.7 1.1 1.3 1.5 1.8l.2.3c2.6 3.2 3.2 3.9.8 6.5-.4.4-.9 1-1.4 1.5 1.5-.8 2.9-1.5 4.3-2.4 1.2-2.1-.3-3.9-2.3-6.4zm-20.6-11.2c1.4-1.9 2.6-3.5 3.6-3.6.5 0 1.3.4 2.2 1.3.9 1 1.9 2 3 3.1l-.8.8c-1.2 1.3-2.6 2.8-4 4.5-.6-.7-1.1-1.4-1.6-2-.6-.7-1.7-2-3.1-3.3.2-.1.5-.5.7-.8zm-8.9-1.1c.1-.1.3-.2.7-.2h.2c1.3.1 3 1.2 4.6 2.6-.4.6-.9 1.1-1.4 1.7 0 0-.9 1.1-2.2 2.6-2.3-3.2-3.4-5.4-1.9-6.7zm1.7 21.8c-.8-1.3-1.5-2.4-1.9-3-1.2-2.2-1.8-3.7.7-7 .5-.7 1-1.3 1.4-1.9.1.1.2.2.3.4.7 1 1.8 2.3 3 3.9.3.4.7.9 1.1 1.4-1.7 2.2-3.3 4.4-4.6 6.2zm5.1-8.8c-1.2-1.6-2.3-3-3-4-.2-.3-.4-.5-.6-.7 1.4-1.7 2.4-2.8 2.4-2.9.5-.6 1-1.1 1.4-1.7 1.1 1.1 2.1 2.1 2.8 2.9.5.7 1.2 1.4 1.8 2.3-1.4 1.6-2.7 3.4-4.1 5.1-.2-.4-.5-.7-.7-1zm7.5 9.7c-1.9-2.4-3.8-4.9-5.5-7.1 1.3-1.7 2.7-3.5 4.1-5.2 1.3 1.6 2.8 3.4 4.3 5.2.5.6 1.1 1.3 1.6 1.9-1.4 1.5-2.9 3.3-4.5 5.2zm9.3-11.1c-.6.7-1.1 1.3-1.5 1.8-.5.6-1.2 1.5-2.1 2.6-.5-.5-.9-1.1-1.4-1.6-1.6-1.9-3.1-3.8-4.5-5.5 1.5-1.8 2.9-3.4 4.2-4.7v-.1c.2-.2.4-.4.6-.7 2.1 2.3 4.2 4.6 6 6.5-.4.6-.9 1.1-1.3 1.7zm2.5-3.2c-1.7-1.9-3.7-4.1-5.8-6.3 1.3-1.1 3-2.2 4.5-2.3h.3c.9 0 1.6.3 2.3.9 2.2 1.9.9 4.7-1.3 7.7zm-13.1-39.8c1.9-3.7 2.3-7.6 1.2-11.5 0 1.4-.2 2.8-.4 4.2 0 2.4-.5 4.7-1.7 6.9-.8 1.6-2 3.2-3.3 4.6-3.8 4.8-9.5 8.2-15.3 10.5-8.7 4.2-17 6.4-17.2 6.4l-.4.1v45.8c.3 0 .6 0 1-.1v-45c3.5-.9 28.9-8.1 36.1-21.9z"/><path fill="#86817D" d="M155.9 242.6c0-3.1-3.6-3.8-3.2-7.1.4-3.2 3.6-3.1 4.1-6.6.5-3.5-4.2-8-.8-10.8 2.7-2.2 6.9-1 9.6-1.9 2.6-1 2.6-5.7 12.2-6s15.1-8.4 19.2-12.9 3.8-19.7 3.8-19.7l-14.6-6.6v.1c-.2 1.1-2.2 14.9-4.5 23.9-2.4 9.3-35.7 24.4-35.7 24.4s1.5 18.4 2.3 35c1.6-.2 3.1-.5 4.6-.8-.4-4.2 3-8.5 3-11zm-18.3 12.9c-.1 0-.1.1-.2.2 1-.1 2.1-.2 3.1-.3-1.2-.3-2.3-.4-2.9.1z"/><path fill="#86817D" d="M146.2 253.2c.1 0 .1-.1.2-.1.4-.3.5-.7.6-1.2 0-.5-.2-1-.5-1.3-.8-.8-2.5-.6-4.2-.4-2.3.3-4 .4-4.2-.7v-.3c.3-.3 2.2 0 3.4.3 2 .4 3.9.8 4.9.1.2-.2.5-.6.5-1.2 0-.5-.2-.9-.5-1.3-.1-.1-.3-.2-.5-.3.1 0 .1-.1.2-.1.5-.4.8-1 .7-1.9 0-.9-.3-1.5-.8-1.9-1.1-.8-2.9-.2-4.7.3-1.3.4-2.8.8-3.4.4-.1 0-.2-.2-.2-.7 0-.4.1-.7.3-.9.7-.6 2.7-.3 4.3-.1 1.8.3 3.3.5 4-.2.3-.3.4-.8.2-1.3-.5-2.2-3.2-1.6-5.4-1.1-1 .2-2.5.6-2.8.3-.1-.1-.1-.3 0-.5.3-1.3 1.7-1.2 3.7-.8 1.3.2 2.6.4 3.3-.2.3-.3.5-.7.6-1.2 0-.5-.1-.9-.5-1.2-.8-.7-2.3-.6-4-.4-1.4.1-2.9.3-3.4-.2-.1-.1-.2-.2-.2-.6 0-.3.1-.5.2-.5.5-.4 1.9 0 3.2.3 1.7.4 3.3.9 4.2.1.5-.4.6-1 .5-1.9-.1-.8-.4-1.5-1-1.9-1.1-.8-2.8-.5-4.4-.1-1.1.2-2.4.5-2.8.1-.1 0-.2-.2-.2-.6 0-.5.1-.6.2-.6.4-.4 1.8-.1 3 .1 1.6.3 3.4.6 4.4-.1.5-.3.8-.9.9-1.5.1-.7 0-1.2-.4-1.6-.8-.7-2.2-.2-3.9.3-1.4.4-3.1 1-3.8.6-.1-.1-.3-.2-.3-.8 0-.5.1-.8.3-1 .5-.5 1.8-.3 3-.2 1.4.2 2.9.4 3.8-.4.4-.4.6-.9.7-1.6 0-.7-.2-1.2-.6-1.6-.3-.2-.6-.3-1.1-.4.3-.3.5-.7.5-1.3 0-.5-.1-.9-.3-1.2.4-.1.8-.3 1.1-.6.2-.2.3-.4.3-.6.5 0 1-.2 1.4-.5.3-.3.5-.5.5-.7.5.3 1 .3 1.5 0 .4-.2.5-.5.5-.8v-.2c.5.2 1.1.2 1.8-.1.4-.2.7-.5.8-.8v-.2h.1c.4.3 1 .3 1.8-.1.9-.4 1.4-.9 1.6-1.5.4-1-.1-2-.6-3-.7-1.5-.9-2.2 0-2.8.3-.2.5-.2.6-.2.4.2.6 1.4.7 2.3.2 1.4.5 2.8 1.4 3.2.5.2 1 .1 1.6-.3.6-.4 1-.8 1.1-1.4.2-.9-.4-1.8-1-2.6-1-1.4-1.5-2.3-.1-3.3.3-.2.6-.4.9-.3.5.2.8 1.5 1 2.5.3 1.5.6 2.9 1.6 3.3.6.2 1.2.1 1.9-.5.7-.5 1.1-1.1 1.1-1.7.1-1.1-1-2-2-2.9-.8-.7-1.6-1.4-1.6-2 0-.3.2-.6.7-.9.6-.5.9-.4.9-.4.2.1.4.8.6 1.3.3 1 .6 2.3 1.6 2.8.8.4 1.8.3 3-.3.6-.3 1.4-.7 1.7-1.4.2.2.4.4.6.5.5.2 1 .1 1.6-.3.6-.4.9-.8 1-1.3.2-1.2-1-2.6-2.2-4-1-1.2-2.2-2.5-2.1-3.3 0-.2.1-.4.5-.7.4-.3.7-.3.8-.2.7.2 1.4 1.7 2 3 .8 1.7 1.5 3.3 2.7 3.6.6.1 1.1 0 1.7-.5.6-.5.9-1 .9-1.6-.1-1.4-1.8-2.5-3.5-3.6-1.2-.8-2.8-1.9-2.6-2.5.3 0 1.2.7 1.8 1.2 1.4 1.1 2.9 2.4 4.4 2.3.6-.1 1.2-.4 1.6-.9.4-.6.6-1.1.4-1.6-.4-1.2-2.4-1.8-4.3-2.4-.9-.3-2.5-.7-2.5-1.1.5-.6 1.9.3 3.2 1 1.5.9 3.1 1.7 4.2 1.3.6-.2 1-.7 1.2-1.5.2-.7.2-1.3-.1-1.7-.7-1-2.6-1-4.3-1-1.1 0-2.7 0-3-.4-.1-.1 0-.3 0-.5.1-.4.3-.5.5-.5.7-.3 2 .3 3.2.7 1.4.6 2.8 1.2 3.7.6.4-.2.7-.7.8-1.3.1-.6 0-1.2-.4-1.6-.8-.9-2.4-.9-3.9-1-1 0-2.3-.1-2.5-.4-.1-.1-.1-.2 0-.4.1-.3.2-.4.3-.4.5-.2 1.6.2 2.6.7 1.4.6 2.7 1.1 3.6.6.5-.3.7-.7.8-1.4.1-.7-.1-1.2-.4-1.6-.1-.1-.3-.3-.5-.4.4 0 .7-.1 1-.3.5-.3.9-.8 1.1-1.5.2-.7.1-1.3-.3-1.7-.2-.2-.4-.3-.6-.4.3 0 .6-.1.8-.2.3-.2.5-.5.5-.9.1-.4 0-.7-.3-1-.7-.8-2.4-.8-4.4-.8-2.2 0-4.8 0-5-1.1v-.3c.3-.3 2.2.2 3.5.6 2.7.7 5.7 1.6 6.6-.3.3-.6.2-1 0-1.2-.1-.2-.2-.3-.4-.4.2 0 .5-.1.6-.2l.3-.3c-.4-.2-.7-.3-1.1-.5-.9 0-3.2-.8-4.6-1.3-.1 0-.2-.1-.4-.1.9.1 2 .3 2.9.5-1.1-.5-2.2-1-3.2-1.5-1.9-.3-5.3-.8-5.4-1.4.2-.4 1.1-.4 2.2-.1-.8-.4-1.5-.7-2.1-1-.4.1-.7.3-.9.7-.2.3-.2.6 0 .9.2.4.7.7 1.4.9 0 0-.1 0-.1.1-.2.2-.4.5-.3 1 .2 1.7 3 2 6 2.3 1.7.2 4 .4 4.3.9 0 0 .1.1-.1.3-.6 1.1-3.3.4-5.5-.2-2-.6-3.7-1-4.4-.4-.2.2-.4.5-.3 1.1.1.9.9 1.4 1.9 1.7-.1 0-.2.1-.3.2-.2.2-.5.5-.6 1 0 .5.2.9.4 1.1.7.7 2.2.6 4 .5 1.5-.1 3.3-.2 3.8.4.1.1.2.3.1.9-.1.4-.3.7-.6.9-.8.4-2.4-.2-3.7-.7-1.4-.6-2.6-1-3.3-.5-.3.2-.5.6-.5 1.1 0 .5.2.9.5 1.2.7.7 2 .6 3.4.6 1.1 0 2.4-.1 2.9.4.2.2.2.5.2.9s-.2.6-.3.7c-.5.3-1.7-.2-2.8-.7-1.3-.6-2.5-1.1-3.4-.7-.4.2-.6.5-.8 1-.1.5-.1.9.2 1.2.5.7 1.8.8 3.3.8 1.3 0 2.7.1 3.2.6.2.2.2.5.2.8 0 .3-.1.5-.3.6-.5.3-1.7-.2-2.8-.7-1.4-.6-2.9-1.2-3.9-.7-.5.2-.8.6-1 1.1-.2.5-.2 1 .1 1.4.6.8 2 .8 3.8.8 1.4 0 3.1 0 3.5.6.1.2.1.5 0 .9-.2.5-.4.8-.7.9-.8.3-2.2-.5-3.4-1.2-1.7-.9-3.4-1.9-4.4-.8-.3.4-.3.7-.3 1 .2.8 1.3 1.1 3.2 1.7 1.4.4 3.4 1 3.6 1.8.1.2 0 .4-.3.7-.3.3-.6.5-1 .6-1.1.1-2.5-1.1-3.7-2.1-1.1-.9-1.9-1.6-2.7-1.4-.2.1-.5.2-.6.7-.1.4-.1.7.1 1.1-.1 0-.1-.1-.2-.1-.5-.1-1 0-1.6.4-.5.4-.8.8-.9 1.4-.1.7.3 1.5.8 2.3-.2-.2-.3-.3-.6-.4-.7-.3-1.5-.2-2.5.4-.9.6-1.4 1.1-1.4 1.8 0 1.1 1.3 1.8 2.7 2.6.8.4 2.1 1.1 2 1.5 0 0 0 .4-1.2.9-1 .4-1.7.5-2.2.3-.6-.3-.9-1.3-1.1-2.1-.2-.9-.5-1.8-1.2-2-.6-.2-1.4.2-1.8.5-.7.5-1 1-1 1.6 0 1.1 1 1.9 1.9 2.8.8.7 1.7 1.5 1.7 2.1 0 .3-.3.7-.8 1-.3.2-.7.5-1 .4-.5-.2-.8-1.5-1-2.6-.3-1.5-.6-2.8-1.6-3.2-.5-.2-1.1-.1-1.8.4-2.2 1.6-1 3.3-.2 4.6.5.7 1 1.4.8 1.9-.1.3-.3.5-.7.8-.2.1-.5.3-.7.2-.4-.2-.7-1.5-.8-2.4-.2-1.4-.5-2.7-1.3-3-.4-.2-.9-.1-1.5.2-1.8 1.1-1 2.7-.4 4 .4.8.8 1.6.6 2.3-.1.4-.5.7-1.1 1-.6.3-.8.2-.9.2-.3-.2-.2-1.3-.2-2.1.1-1.4.2-2.8-.7-3.5-.6-.4-1.3-.4-2.4 0-1.1.4-1.7 1-1.9 1.7-.2 1.2 1.1 2.3 2.2 3.3.5.4 1.4 1.2 1.4 1.4l-.2.1c-1.5.6-2.3-.7-3.3-2.7-.6-1.3-1.3-2.7-2.5-2.1-.4.2-.5.5-.6.7-.1.8.7 1.6 2 2.9.6.6 2 1.9 1.8 2.3-.4.2-1.5-.9-2.5-1.8-1.8-1.8-4-3.9-6.4-3.1-.2.1-1 .3-1 1 0 .8 1.2 1.3 3.6 2.1 1.6.6 4.2 1.5 4.4 2.2 0 .1-.2.3-.2.3-.3.2-.7.3-1 .3-.5-.7-1.8-1.2-3.3-1.7-.5-.4-1.1-.9-1.6-1.3-1.6-1.3-2.4-1.9-3-1.7-.2.1-.4.3-.5.8-.2 1.5 2 2.2 4.3 2.9.1 0 .2.1.3.1 1 .7 2 1.4 3 1.6 0 0 0 .1-.1.1-.7.8-2.7-.3-4.3-1.1-1.5-.8-2.6-1.4-3.2-.9-.5.4-.3 1.2-.3 1.5.5 2.2 2.7 2.1 4.3 1.9.9-.1 1.8-.1 2.2.2.2.2.2.4.2.8 0 .5-.2.6-.2.7-.4.3-1.6 0-2.6-.2-1.3-.3-2.5-.7-3.2-.1-.4.3-.5.7-.5 1.3 0 .5.2.9.5 1.2.8.6 2.2.3 3.7-.1 1.2-.3 2.7-.7 3.3-.3.1.1.3.2.2.8 0 .4-.1.7-.3.9-.5.5-1.8.3-3 .2-1.4-.2-2.9-.4-3.7.4-.4.4-.6 1-.6 1.7s.3 1.2.8 1.5c.3.2.6.3 1 .3-.6 0-1 .1-1.4.4-.4.3-.6.8-.5 1.4 0 .6.2 1 .6 1.3.8.6 2.1.4 3.6.1 1.4-.3 2.9-.6 3.7 0 .3.2.5.6.6 1.2.1.5 0 .9-.2 1.1-.5.4-2.1 0-3.3-.3-1.6-.4-3.1-.8-4-.2-.4.3-.6.7-.6 1.2-.1.6.1 1.1.5 1.4.8.8 2.4.6 4.2.4 1.3-.1 2.8-.3 3.2.1.1.1.2.2.1.5 0 .4-.2.5-.2.5-.4.3-1.6.1-2.6 0-1.9-.3-4.3-.7-4.8 1.5-.2.6-.1 1.1.3 1.4.7.7 2 .4 3.6 0 2.3-.5 4-.8 4.2.4 0 .1.1.3 0 .4-.3.3-1.9.1-3.1-.1-2-.3-4-.6-5.1.3-.4.4-.7.9-.7 1.6 0 .7.2 1.2.6 1.5.2.1.4.2.7.3-.3 0-.6.1-.8.3-.2.2-.5.5-.5 1.2 0 .4.2.7.5.9.8.7 2.5.6 4.4.5 1.7-.1 3.6-.3 4.2.3.1.1.2.2.2.6 0 .3-.1.4-.2.5-.6.5-2.5.1-4.1-.3-2-.4-3.6-.7-4.3 0-.2.2-.4.6-.3 1.2.5 2 3 1.7 5.3 1.4 1.4-.2 3-.3 3.5.1.1.1.2.2.2.6 0 .3-.1.4-.2.5-.6.5-2.5.2-4-.1-1.9-.3-3.5-.6-4.3.1-.2.2-.5.5-.5 1.1 0 .5.2.8.4 1 .8.6 2.4.3 4.2 0 1.7-.3 3.7-.7 4.5-.1.1.1.2.3.3.4.3 0 .6-.1 1-.1-.1-.4-.3-.8-.6-1 .4-.4.2-.5 0-.6zm-4.1-26c1.1-.4 2.6-.8 3-.5.1.1.1.3.1.7-.1.4-.2.7-.5.9-.8.5-2.3.2-3.7 0-.7-.1-1.4-.3-2-.3.8-.1 2-.4 3.1-.8zM174 196c1.3.9 3 2 3.1 2.9 0 .1 0 .4-.5.9-.5.4-.8.3-.9.3-.8-.2-1.5-1.7-2.1-3-.3-.7-.6-1.4-1-2 .5.3.9.6 1.4.9zm6.2-25.6c-2.1-.2-5-.5-5.1-1.5.1-.1.2-.1.3-.1.9 0 3.1.8 4.4 1.3.4.1.8.3 1.2.4-.3-.1-.5-.1-.8-.1zm-.7 6.3c-1.3.1-2.8.2-3.2-.2 0-.1-.1-.1-.1-.3 0-.2.1-.3.2-.3.1-.1.3-.1.6-.1.8 0 2.1.4 3.1.7.4.1.7.2 1 .3-.6-.2-1.1-.2-1.6-.1zm.8-1.3c-.4-.1-.7-.2-1.1-.3h.9c1.5 0 3.3 0 3.7.4 0 0 .1.1 0 .2 0 .1-.1.2-.1.2-.4.4-2.1-.1-3.4-.5zm-1.1 5.2c-1.1 0-2.3.1-2.7-.3-.1-.1-.2-.2-.2-.5 0-.2 0-.3.1-.3h.2c.5 0 1.5.4 2.2.7.5.2.9.4 1.4.5-.3-.1-.7-.1-1-.1zm-8.4 18.8c1 1.1 2.1 2.4 2 3.2 0 .3-.2.5-.5.7-.2.1-.5.3-.7.2-.4-.2-.7-1.4-.9-2.5-.2-1-.4-2.1-.9-2.8.3.3.7.7 1 1.2zm-2.7 1.7c-.9-.5-2.2-1.2-2.2-1.7 0-.2.3-.6.9-.9.5-.3.9-.4 1.2-.4.1 0 .3 0 .4.1.7.3 1.1 1.8 1.3 3.1.1.4.2.7.2 1-.4-.5-1.1-.9-1.8-1.2zm-17.9 10.7c-.8-.7-2-1.7-1.9-2.4.1-.3.5-.7 1.3-.9.3-.1.7-.2 1-.2.2 0 .3 0 .5.1.5.4.4 1.6.3 2.7 0 .7-.1 1.4 0 1.9-.3-.4-.7-.8-1.2-1.2zm-4.8-1.6c.1 0 .1-.1 0 0 .3 0 .7.7 1.1 1.4-.5-.6-1.1-1.2-1.1-1.4zm-3 2.3c-1-.4-2.4-.9-2.9-1.2.1 0 .1-.1.2-.1 1.5-.5 3.1.6 4.5 1.9-.5-.1-1.1-.3-1.8-.6zm-4.6.2c.3.2.9.6 1.4 1-.7-.3-1.2-.7-1.4-1zm3 5c-1.8.1-3 .1-3.3-1.2-.1-.3-.1-.5-.1-.5.3 0 1.4.6 2.2 1 .4.2.9.5 1.4.7h-.2zm-.1 3.8c-1.1.3-2.5.6-2.9.3 0 0-.2-.1-.2-.5 0-.3.1-.5.2-.5.1-.1.3-.1.5-.1.5 0 1.3.2 1.9.4l1.2.3c-.2 0-.5 0-.7.1zm.6 24.9c-1.5.1-3.2.2-3.7-.2-.1-.1-.1-.2-.1-.2 0-.3.1-.3.1-.4.1-.1.3-.1.5-.1.7 0 1.8.4 2.8.7.2.1.5.1.7.2h-.3zm4.1-.6c-.7.5-2.6-.1-4.2-.5-.9-.3-1.7-.5-2.4-.7.8-.1 1.7-.3 2.7-.6 1.5-.4 3.1-.9 3.8-.4.3.2.4.6.4 1.1 0 .6-.1.9-.3 1.1zm-3.9 7.6c-1.3.3-3 .6-3.4.2 0 0-.1-.1-.1-.3 0-.2.1-.3.1-.3.2-.1.5-.2.9-.2.7 0 1.8.2 2.7.3.2 0 .4.1.6.1-.3.1-.6.1-.8.2z"/><path fill="#23231F" d="M152 174.1c-4.6 2.1-7.9 3.1-10.4 3.8-3.6 1-4.8 1.4-5.1 3.8l-.4 3.3c-.7 5.1-1.8 12.9-2.3 15.8-.3 1.8-.5 3.2 0 3.7.4.4 1.2.4 2.7.1l.7-.1c21.6-4.1 31.4-13.7 35.9-21.6.1-.4.2-.9.3-1.3.2-1.4.4-2.8.4-4.2.1-5-1-9.6-2.1-13-.5-1.5-1-2.7-1.4-3.7-3.9 3.6-10.7 9.8-18.3 13.4z"/><path fill="#23231F" d="M133.2 181.1c-.3 4.6-2.1 19.3-2.9 25.1-.1.6-.1 1.1-.2 1.5-.1.5-.1.8-.1.8s.7 0 2-.2c3.8-.4 12.5-1.6 20.9-4.9 5.8-2.3 11.5-5.7 15.3-10.5.3-.3.5-.6.7-1 1.4-1.9 2.4-3.9 3.1-6-5.2 7.5-15.3 15.5-34.8 19.2l-.6.1c-.7.1-1.3.2-1.8.2-.8 0-1.4-.2-1.8-.6-.8-.8-.6-2.2-.2-4.5.5-2.8 1.6-10.6 2.3-15.7l.4-3.3c.4-3.1 2.2-3.6 5.8-4.6 2.4-.7 5.7-1.6 10.2-3.7 7.6-3.5 14.5-10 18-13.6-.4-.9-.7-1.4-.7-1.4s-.3.2-.7.6c-2.9 2.5-13.8 11.6-21 14.4-8.2 3.4-13.6 2.4-13.9 8.1z"/><path fill="#86817D" d="M151.6 173.2c-4.5 2.1-7.8 3.1-10.2 3.7-3.6 1-5.4 1.5-5.8 4.6l-.4 3.3c-.7 5.1-1.8 12.9-2.3 15.7-.4 2.3-.6 3.7.2 4.5.4.4.9.6 1.8.6.5 0 1.1-.1 1.8-.2l.6-.1c19.5-3.7 29.6-11.8 34.8-19.2.4-1.1.7-2.2.9-3.3-4.4 7.9-14.2 17.5-35.9 21.6l-.7.1c-1.4.3-2.3.3-2.7-.1-.5-.5-.3-1.8 0-3.7.5-2.8 1.6-10.6 2.3-15.8l.4-3.3c.3-2.5 1.5-2.8 5.1-3.8 2.4-.7 5.8-1.7 10.4-3.8 7.5-3.5 14.4-9.8 18.1-13.6-.2-.3-.3-.7-.4-.9-3.5 3.8-10.4 10.2-18 13.7z"/><path fill="#60493B" d="M122.8 181.1c.3 4.6 2.1 19.3 2.9 25.1l2.3 2.4v-31.8l-3.5-1.7s3.2 3-.6 1.9-4.6-1.3-5.4-1.4-1.3-.2-3-1c-1.8-.8-1.1-2.8-2.1-3-1-.2-1 .4-2.1-1.2s1.3.6-4.1-1.6c-2.5-1-3.3-1.2-3.6-1.3-.1 0-.1 0 0 0s.2-.1.1-.4c-.3-1.1-1.9-1.4-2.7-3-.8-1.6-.5-2.2-1.4-2.6s-.5-.4-2.6-1.6c-2.1-1.2-3.4-2.2-3.4-2.8 0-.6.5-2.7 0-3.4-.5-.6-1.6-2.1-1.8-2.7s-1-2.2-1-2.7v-4s-2-2.3-2.7-3.5c.1 5.4.1 12-.3 17.9 2.9 2.5 13.8 11.6 21 14.4 8.3 3.3 13.7 2.3 14 8z"/><path fill="#23231F" d="M78.9 198.9c0 .1 0 .4.5.9.5.4.8.3.9.3.8-.2 1.5-1.7 2.1-3 .3-.7.6-1.4 1-2-.4.3-.9.6-1.4 1-1.4.8-3.1 2-3.1 2.8zm-3.2-23.5c.4-.1.7-.2 1.1-.3h-.9c-1.5 0-3.3 0-3.7.4 0 0-.1.1 0 .2 0 .1.1.2.1.2.4.4 2.1-.1 3.4-.5zm9.5 24c-1 1.1-2.1 2.4-2 3.2 0 .3.2.5.5.7.2.1.5.3.7.2.4-.2.7-1.4.9-2.5.2-1 .4-2.1.9-2.8-.3.3-.7.7-1 1.2zm-10.3-22.8c.5 0 1.1 0 1.6.1 1.3.1 2.8.2 3.2-.2 0-.1.1-.1.1-.3 0-.2-.1-.3-.2-.3-.1-.1-.3-.1-.6-.1-.8 0-2.1.4-3.1.7-.3-.1-.6 0-1 .1zm4.6 3.6c.1-.1.2-.2.2-.5 0-.2 0-.3-.1-.3h-.2c-.5 0-1.5.4-2.2.7-.5.2-.9.4-1.4.5h1c1.1 0 2.3.1 2.7-.4zm1.4-11.4c-.1-.1-.2-.1-.3-.1-.9 0-3.1.8-4.4 1.3-.4.1-.8.3-1.2.4.3 0 .5-.1.8-.1 2.1-.1 5-.4 5.1-1.5zm29.6 41.3c-.3 0-.7.7-1 1.4.5-.5 1.1-1.1 1-1.4 0 .1 0 0 0 0zm4.3 35.2c.9-.3 1.7-.5 2.4-.7-.8-.1-1.7-.3-2.7-.6-1.5-.4-3.1-.9-3.8-.4-.3.2-.4.6-.4 1.1 0 .6.1.9.4 1.1.7.6 2.6 0 4.1-.5zm-.4 1.1h.3c1.5.1 3.2.2 3.7-.2.1-.1.1-.2.1-.2 0-.3-.1-.3-.1-.4-.1-.1-.3-.1-.5-.1-.7 0-1.8.4-2.8.7-.2.1-.5.1-.7.2z"/><path fill="#23231F" d="M98.3 201.3c-3.7-1.9-7.1-4.4-9.8-7.4-4.9-5-8-11.1-6.6-18.4l.5.1c.1-4.3 1.1-8.3 2.1-11.3 0 0-1 .5-2.6 1.2.4.1.7.3.9.7.2.3.2.6 0 .9-.2.4-.7.7-1.4.9 0 0 .1 0 .1.1.2.2.4.5.3 1-.2 1.7-3 2-6 2.3-1.7.2-4 .4-4.3.9 0 0-.1.1.1.3.6 1.1 3.3.4 5.5-.2 2-.6 3.7-1 4.4-.4.2.2.4.5.3 1.1-.1.9-.9 1.4-1.9 1.7.1 0 .2.1.3.2.2.2.5.5.6 1 0 .5-.2.9-.4 1.1-.7.7-2.2.6-4 .5-1.5-.1-3.3-.2-3.8.4-.1.1-.2.3-.1.9.1.4.3.7.6.9.8.4 2.4-.2 3.7-.7 1.4-.6 2.6-1 3.3-.5.3.2.5.6.5 1.1 0 .5-.2.9-.5 1.2-.7.7-2 .6-3.4.6-1.1 0-2.4-.1-2.9.4-.2.2-.2.5-.2.9s.2.6.3.7c.5.3 1.7-.2 2.8-.7 1.3-.6 2.5-1.1 3.4-.7.4.2.6.5.8 1 .1.5.1.9-.2 1.2-.5.7-1.8.8-3.3.8-1.3 0-2.7.1-3.2.6-.2.2-.2.5-.2.8 0 .3.1.5.3.6.5.3 1.7-.2 2.8-.7 1.4-.6 2.9-1.2 3.9-.7.5.2.8.6 1 1.1.2.5.2 1-.1 1.4-.6.8-2 .8-3.8.8-1.4 0-3.1 0-3.5.6-.1.2-.1.5 0 .9.2.5.4.8.7.9.8.3 2.2-.5 3.4-1.2 1.7-.9 3.4-1.9 4.4-.8.3.4.3.7.3 1-.2.8-1.3 1.1-3.2 1.7-1.4.4-3.4 1-3.6 1.8-.1.2 0 .4.3.7.3.3.6.5 1 .6 1.1.1 2.5-1.1 3.7-2.1 1.1-.9 1.9-1.6 2.7-1.4.2.1.5.2.6.7.1.4.1.7-.1 1.1.1 0 .1-.1.2-.1.5-.1 1 0 1.6.4.5.4.8.8.9 1.4.1.7-.3 1.5-.8 2.3.2-.2.3-.3.6-.4.7-.3 1.5-.2 2.5.4.9.6 1.4 1.1 1.4 1.8 0 1.1-1.3 1.8-2.7 2.6-.8.4-2.1 1.1-2 1.5 0 0 0 .4 1.2.9 1 .4 1.7.5 2.2.3.6-.3.9-1.3 1.1-2.1.2-.9.5-1.8 1.2-2 .6-.2 1.4.2 1.8.5.7.5 1 1 1 1.6 0 1.1-1 1.9-1.9 2.8-.8.7-1.7 1.5-1.7 2.1 0 .3.3.7.8 1 .3.2.7.5 1 .4.5-.2.8-1.5 1-2.6.3-1.5.6-2.8 1.6-3.2.5-.2 1.1-.1 1.8.4 2.2 1.6 1 3.3.2 4.6-.5.7-1 1.4-.8 1.9.1.3.3.5.7.8.2.1.5.3.7.2.4-.2.7-1.5.8-2.4.2-1.4.5-2.7 1.3-3 .4-.2.9-.1 1.5.2 1.8 1.1 1 2.7.4 4-.4.8-.8 1.6-.6 2.3.1.4.5.7 1.1 1 .6.3.8.2.9.2.3-.2.2-1.3.2-2.1-.1-1.4-.2-2.8.7-3.5.6-.4 1.3-.4 2.4 0 1.1.4 1.7 1 1.9 1.7.2 1.2-1.1 2.3-2.2 3.3-.5.4-1.4 1.2-1.4 1.4l.2.1c1.5.6 2.3-.7 3.3-2.7.6-1.3 1.3-2.7 2.5-2.1.4.2.5.5.6.7.1.8-.7 1.6-2 2.9-.6.6-2 1.9-1.8 2.3.4.2 1.5-.9 2.5-1.8 1.8-1.8 4-3.9 6.4-3.1.2.1 1 .3 1 1 0 .8-1.2 1.3-3.6 2.1-1.6.6-4.2 1.5-4.4 2.2 0 .1.2.3.2.3.3.2.7.3 1 .3.5-.7 1.8-1.2 3.3-1.7.5-.4 1.1-.9 1.6-1.3 1.6-1.3 2.4-1.9 3-1.7.2.1.4.3.5.8.2 1.5-2 2.2-4.3 2.9-.1 0-.2.1-.3.1-1 .7-2 1.4-3 1.6 0 0 0 .1.1.1.7.8 2.7-.3 4.3-1.1 1.5-.8 2.6-1.4 3.2-.9.5.4.3 1.2.3 1.5-.5 2.2-2.7 2.1-4.3 1.9-.9-.1-1.8-.1-2.2.2-.2.2-.2.4-.2.8 0 .5.2.6.2.7.4.3 1.6 0 2.6-.2 1.3-.3 2.5-.7 3.2-.1.4.3.5.7.5 1.3 0 .5-.2.9-.5 1.2-.8.6-2.2.3-3.7-.1-1.2-.3-2.7-.7-3.3-.3-.1.1-.3.2-.2.8 0 .4.1.7.3.9.5.5 1.8.3 3 .2 1.4-.2 2.9-.4 3.7.4.4.4.6 1 .6 1.7s-.3 1.2-.8 1.5c-.3.2-.6.3-1 .3.6 0 1 .1 1.4.4.4.3.6.8.5 1.4 0 .6-.2 1-.6 1.3-.8.6-2.1.4-3.6.1-1.4-.3-2.9-.6-3.7 0-.3.2-.5.6-.6 1.2-.1.5 0 .9.2 1.1.5.4 2.1 0 3.3-.3 1.6-.4 3.1-.8 4-.2.4.3.6.7.6 1.2.1.6-.1 1.1-.5 1.4-.8.8-2.4.6-4.2.4-1.3-.1-2.8-.3-3.2.1-.1.1-.2.2-.1.5 0 .4.2.5.2.5.4.3 1.6.1 2.6 0 1.9-.3 4.3-.7 4.8 1.5.2.6.1 1.1-.3 1.4-.7.7-2 .4-3.6 0-2.3-.5-4-.8-4.2.4 0 .1-.1.3 0 .4.3.3 1.9.1 3.1-.1 2-.3 4-.6 5.1.3.4.4.7.9.7 1.6 0 .7-.2 1.2-.6 1.5-.2.1-.4.2-.7.3.3 0 .6.1.8.3.2.2.5.5.5 1.2 0 .4-.2.7-.5.9-.8.7-2.5.6-4.4.5-1.7-.1-3.6-.3-4.2.3-.1.1-.2.2-.2.6 0 .3.1.4.2.5.6.5 2.5.1 4.1-.3 2-.4 3.6-.7 4.3 0 .2.2.4.6.3 1.2-.5 2-3 1.7-5.3 1.4-1.4-.2-3-.3-3.5.1-.1.1-.2.2-.2.6 0 .3.1.4.2.5.6.5 2.5.2 4-.1 1.9-.3 3.5-.6 4.3.1.2.2.5.5.5 1.1 0 .5-.2.8-.4 1-.8.6-2.4.3-4.2 0-1.7-.3-3.7-.7-4.5-.1-.1.1-.2.3-.3.4 1.9.3 3.9.5 5.8.7 1.3-.3 2.3-.4 3 .1.1 0 .1.1.2.2.7.1 1.4.1 2.1.1l-.2-45.2c-2.6-.3-13.1-3.3-22.6-9z"/><path fill="#23231F" d="M90.1 199.3c0-.2-.3-.6-.9-.9-.5-.3-.9-.4-1.2-.4-.1 0-.3 0-.4.1-.7.3-1.1 1.8-1.3 3.1-.1.4-.2.7-.2 1 .5-.4 1.1-.8 1.8-1.1.9-.6 2.2-1.3 2.2-1.8zm20.8 27.4c-.1.1-.1.3-.1.7.1.4.2.7.5.9.8.5 2.3.2 3.7 0 .7-.1 1.4-.3 2-.3-1 0-2.1-.4-3.2-.8-1-.3-2.5-.8-2.9-.5zm-5.1-14.9c.8-.7 2-1.7 1.9-2.4-.1-.3-.5-.7-1.3-.9-.3-.1-.7-.2-1-.2-.2 0-.3 0-.5.1-.5.4-.4 1.6-.3 2.7 0 .7.1 1.4 0 1.9.3-.4.7-.8 1.2-1.2zm10.6-.5c-.1 0-.1-.1-.2-.1-1.5-.5-3.1.6-4.5 1.9.6-.2 1.2-.4 1.8-.7 1.1-.2 2.5-.7 2.9-1.1zm-63.7 9c3.1-2.4 9-3.1 11.4-1.5 1 .7 1.4 1.8 1.1 3-.5 1.9.8 5.1 2.8 6.1 1.1.6 2.2.8 3.7-1 1.7-2.1 2.3-4 1.7-5.6-.8-2.2-3.9-4-8.1-4.8-2.9-.5-7.3.6-11.2 1.6-5 1.3-9 2.3-10.1 0-1-2.1 1-4.1 2.8-6.1 1.8-1.9 3-3.2 2.3-4-.7-.8-2.8-.3-5.1.3-3.6.9-8.6 2.1-13.4 0-4.8-2.1-6-4.9-6.1-7-.2-2.6 1.2-5.3 3.6-6.9 2.7-1.8 7.4-2.9 10.4-1.6 1.4.6 2.3 1.7 2.6 3.2.3 1.9.8 3 1.5 3.5.7.4 1.8.4 3.5-.1.6-.2.9-.5 1.1-1.1.6-2.1-1.3-6-2.7-7.6-.8-.9-3.1-2.4-5.5-4-1.3-.9-2.8-1.8-4.2-2.8-5.8 1.5-12.5 3.3-19.2 5.3 8.1 14.9 19.2 28.1 32.3 38.6.9-3.2 2.9-6 4.8-7.5z"/><path fill="#23231F" d="M59.5 223.1S58.9 233 71 232s6.7-15.3 4.8-16.9c-1.9-1.6-10.9-6.4-23.6-1.9 0 0 3.5-3.2 2.6-8-1-4.8-9.3 1-16 0-6.7-1-12.5-5.7-8.1-7.7 4.3-1.9 4.8 1.7 6.7 3.6 1.9 1.9 10.3 4.8 15.3-2.4s-6.2-11-10.1-13.4c-.9-.6-2.2-1.5-3.6-2.6-.6.2-1.2.3-1.8.5 1 .6 1.9 1.3 2.8 1.9 2.7 1.8 4.9 3.2 5.9 4.3 1.8 2 3.9 6.5 3.1 9.4-.3 1.2-1.2 2.1-2.4 2.5-2.3.7-3.8.7-5 0-1.3-.8-2-2.2-2.4-4.8-.1-.8-.6-1.4-1.5-1.8-2.3-1-6.3 0-8.6 1.5-1.5 1-2.9 3-2.8 5.2.2 2.1 1.9 4 5 5.4 4.3 1.9 8.7.8 12.2-.1 3-.7 5.6-1.4 7.1.3 1.8 2.1-.4 4.5-2.4 6.5-1.3 1.4-2.9 3.1-2.5 4 .4.9 5.1-.3 7.9-1 4.1-1.1 8.7-2.3 12-1.7 4.9.9 8.5 3.2 9.6 6 .8 2.3.1 4.8-2 7.5-2.8 3.4-4.7 2.4-5.9 1.8-3-1.5-4.6-6.1-3.9-8.7.1-.4 0-.7-.3-.9-1.6-1.1-6.5-.6-9.2 1.4-1.7 1.3-3.6 4.1-4.4 7.2.6.5 1.3 1 1.9 1.5.1-2.7 2.2-5.4 8.1-7.5zM82 166.6c-.2-.4-1.1-.4-2.2-.1-1 .5-2.1 1-3.3 1.5 1.9-.3 5.3-.8 5.5-1.4zm-8.5 77.2c1.7.8 3.4 1.6 5.2 2.3 0-.4-.1-.8-.4-1.2-1-1.4-2.6-1.5-4.8-1.1zm2.4-74.7c.1 0 .2-.1.4-.1-.9.1-2 .3-2.9.5-.7.3-1.3.6-2 .9.7.1 3.1-.8 4.5-1.3zm42.3 43.6c-.3.2-.9.6-1.4 1 .7-.3 1.2-.7 1.4-1zm-.3 40.9s.1-.1.1-.3c0-.2-.1-.3-.1-.3-.2-.1-.5-.2-.9-.2-.7 0-1.8.2-2.7.3-.2 0-.4.1-.6.1.2 0 .5.1.7.1 1.5.3 3.1.6 3.5.3zm.3-31.8s.2-.1.2-.5c0-.3-.1-.5-.2-.5-.1-.1-.3-.1-.5-.1-.5 0-1.3.2-1.9.4l-1.2.3c.2.1.5.1.7.2 1.1.1 2.5.5 2.9.2z"/><path fill="#23231F" d="M109.8 253.2c-.1 0-.1-.1-.2-.1-.4-.3-.5-.7-.6-1.2 0-.5.2-1 .5-1.3.8-.8 2.5-.6 4.2-.4 2.3.3 4 .4 4.2-.7v-.3c-.3-.3-2.2 0-3.4.3-2 .4-3.9.8-4.9.1-.2-.2-.5-.6-.5-1.2 0-.5.2-.9.5-1.3.1-.1.3-.2.5-.3-.1 0-.1-.1-.2-.1-.5-.4-.8-1-.7-1.9 0-.9.3-1.5.8-1.9 1.1-.8 2.9-.2 4.7.3 1.3.4 2.8.8 3.4.4.1 0 .2-.2.2-.7 0-.4-.1-.7-.3-.9-.7-.6-2.7-.3-4.3-.1-1.8.3-3.3.5-4-.2-.3-.3-.4-.8-.2-1.3.5-2.2 3.2-1.6 5.4-1.1 1 .2 2.5.6 2.8.3.1-.1.1-.3 0-.5-.3-1.3-1.7-1.2-3.7-.8-1.3.2-2.6.4-3.3-.2-.3-.3-.5-.7-.6-1.2 0-.5.1-.9.5-1.2.8-.7 2.3-.6 4-.4 1.4.1 2.9.3 3.4-.2.1-.1.2-.2.2-.6 0-.3-.1-.5-.2-.5-.5-.4-1.9 0-3.2.3-1.7.4-3.3.9-4.2.1-.5-.4-.6-1-.5-1.9.1-.8.4-1.5 1-1.9 1.1-.8 2.8-.5 4.4-.1 1.1.2 2.4.5 2.8.1.1 0 .2-.2.2-.6 0-.5-.1-.6-.2-.6-.4-.4-1.8-.1-3 .1-1.6.3-3.4.6-4.4-.1-.5-.3-.8-.9-.9-1.5-.1-.7 0-1.2.4-1.6.8-.7 2.2-.2 3.9.3 1.4.4 3.1 1 3.8.6.1-.1.3-.2.3-.8 0-.5-.1-.8-.3-1-.5-.5-1.8-.3-3-.2-1.4.2-2.9.4-3.8-.4-.4-.4-.6-.9-.7-1.6 0-.7.2-1.2.6-1.6.3-.2.6-.3 1.1-.4-.3-.3-.5-.7-.5-1.3 0-.5.1-.9.3-1.2-.4-.1-.8-.3-1.1-.6-.2-.2-.3-.4-.3-.6-.5 0-1-.2-1.4-.5-.3-.3-.5-.5-.5-.7-.5.3-1 .3-1.5 0-.4-.2-.5-.5-.5-.8v-.2c-.5.2-1.1.2-1.8-.1-.4-.2-.7-.5-.8-.8v-.2h-.1c-.4.3-1 .3-1.8-.1-.9-.4-1.4-.9-1.6-1.5-.4-1 .1-2 .6-3 .7-1.5.9-2.2 0-2.8-.3-.2-.5-.2-.6-.2-.4.2-.6 1.4-.7 2.3-.2 1.4-.5 2.8-1.4 3.2-.5.2-1 .1-1.6-.3-.6-.4-1-.8-1.1-1.4-.2-.9.4-1.8 1-2.6 1-1.4 1.5-2.3.1-3.3-.3-.2-.6-.4-.9-.3-.5.2-.8 1.5-1 2.5-.3 1.5-.6 2.9-1.6 3.3-.6.2-1.2.1-1.9-.5-.7-.5-1.1-1.1-1.1-1.7-.1-1.1 1-2 2-2.9.8-.7 1.6-1.4 1.6-2 0-.3-.2-.6-.7-.9-.6-.5-.9-.4-.9-.4-.2.1-.4.8-.6 1.3-.3 1-.6 2.3-1.6 2.8-.8.4-1.8.3-3-.3-.6-.3-1.4-.7-1.7-1.4-.2.2-.4.4-.6.5-.5.2-1 .1-1.6-.3-.6-.4-.9-.8-1-1.3-.2-1.2 1-2.6 2.2-4 1-1.2 2.2-2.5 2.1-3.3 0-.2-.1-.4-.5-.7-.4-.3-.7-.3-.8-.2-.7.2-1.4 1.7-2 3-.8 1.7-1.5 3.3-2.7 3.6-.6.1-1.1 0-1.7-.5-.6-.5-.9-1-.9-1.6.1-1.4 1.8-2.5 3.5-3.6 1.2-.8 2.8-1.9 2.6-2.5-.3 0-1.2.7-1.8 1.2-1.4 1.1-2.9 2.4-4.4 2.3-.6-.1-1.2-.4-1.6-.9-.4-.6-.6-1.1-.4-1.6.4-1.2 2.4-1.8 4.3-2.4.9-.3 2.5-.7 2.5-1.1-.5-.6-1.9.3-3.2 1-1.5.9-3.1 1.7-4.2 1.3-.6-.2-1-.7-1.2-1.5-.2-.7-.2-1.3.1-1.7.7-1 2.6-1 4.3-1 1.1 0 2.7 0 3-.4.1-.1 0-.3 0-.5-.1-.4-.3-.5-.5-.5-.7-.3-2 .3-3.2.7-1.4.6-2.8 1.2-3.7.6-.4-.2-.7-.7-.8-1.3-.1-.6 0-1.2.4-1.6.8-.9 2.4-.9 3.9-1 1 0 2.3-.1 2.5-.4.1-.1.1-.2 0-.4-.1-.3-.2-.4-.3-.4-.5-.2-1.6.2-2.6.7-1.4.6-2.7 1.1-3.6.6-.5-.3-.7-.7-.8-1.4-.1-.7.1-1.2.4-1.6.1-.1.3-.3.5-.4-.4 0-.7-.1-1-.3-.5-.3-.9-.8-1.1-1.5-.2-.7-.1-1.3.3-1.7.2-.2.4-.3.6-.4-.3 0-.6-.1-.8-.2-.3-.2-.5-.5-.5-.9-.1-.4 0-.7.3-1 .7-.8 2.4-.8 4.4-.8 2.2 0 4.8 0 5-1.1v-.3c-.3-.3-2.2.2-3.5.6-2.7.7-5.7 1.6-6.6-.3-.3-.6-.2-1 0-1.2.1-.2.2-.3.4-.4-.2 0-.5-.1-.6-.2l-.3-.3c-.5.2-.9.4-1.4.6.6 10.2 2.3 25.4 7.6 29.3 13.6 10 32.1 19.2 32.1 19.2s-.6 15.3-1.2 34.3c.4.1.9.1 1.3.2.1-.4.3-.8.6-1 0-.6.2-.7.4-.8zm8.6-36.7c.1-.3.1-.5.1-.5-.3 0-1.4.6-2.2 1-.4.2-.9.5-1.4.7h.2c1.9.1 3 .1 3.3-1.2zm-51.8 23.8c1.4.8 2.8 1.5 4.3 2.2 3.2-.9 7-1.7 9.1 1.3.7 1.1.9 2.1.6 3 .7.3 1.4.5 2.1.8.4-1.1.7-2.6.8-4.5 0-5.5-9.7-3.6-16.9-2.8z"/><path fill="#23231F" d="M124 208.4c-2.9-.3-8.6-1.1-14.8-2.9 6.6 2.8 11.8 4.2 11.9 4.2l.4.1v.4l.2 45.6c.8 0 1.5.1 2.3.1v-47.5zm1.9-.6l2.1.8-2.3-2.4c.1.7.1 1.2.2 1.6z"/><path fill="#13120E" d="M128 208.6l-2.1-.8c.1.5.1.8.1.8s-.7 0-2-.2v47.5c1.3 0 2.7.1 4 .1v-47.4z"/><path fill="#6B6864" d="M114.3 254.3c1.8.3 3.4.6 4.2 0 .2-.2.4-.5.4-1 0-.6-.2-.9-.5-1.1-.8-.7-2.4-.4-4.3-.1-1.5.3-3.4.6-4 .1-.1-.1-.2-.2-.2-.5s.1-.5.2-.6c.5-.5 2.1-.3 3.5-.1 2.3.3 4.8.5 5.3-1.4.1-.6-.1-1-.3-1.2-.7-.7-2.3-.4-4.3 0-1.6.3-3.5.7-4.1.3-.1-.1-.2-.2-.2-.5s.1-.5.2-.6c.6-.6 2.5-.5 4.2-.3 1.9.1 3.6.3 4.4-.5.3-.2.4-.6.5-.9 0-.7-.3-1-.5-1.2-.2-.2-.5-.2-.8-.3.2-.1.5-.1.7-.3.4-.3.6-.8.6-1.5s-.2-1.2-.7-1.6c-1.1-.9-3.1-.6-5.1-.3-1.2.2-2.8.4-3.1.1-.1-.1 0-.3 0-.4.3-1.2 1.9-.9 4.2-.4 1.6.4 3 .7 3.6 0 .3-.3.4-.8.3-1.4-.5-2.2-2.9-1.8-4.8-1.5-1 .2-2.2.4-2.6 0 0 0-.2-.2-.2-.5s.1-.4.1-.5c.5-.4 1.9-.3 3.2-.1 1.7.2 3.3.4 4.2-.4.3-.3.5-.8.5-1.4 0-.5-.3-1-.6-1.2-.9-.6-2.4-.2-4 .2-1.3.3-2.8.7-3.3.3-.2-.2-.3-.5-.2-1.1.1-.6.3-1 .6-1.2.8-.6 2.3-.3 3.7 0 1.4.3 2.8.6 3.6-.1.4-.3.6-.8.6-1.3 0-.6-.2-1.1-.5-1.4-.4-.3-.8-.4-1.4-.4.4 0 .7-.1 1-.3.5-.3.7-.8.8-1.5 0-.8-.1-1.3-.6-1.7-.8-.8-2.3-.6-3.7-.4-1.2.1-2.5.3-3-.2-.2-.2-.3-.5-.3-.9 0-.6.2-.8.2-.8.5-.4 2-.1 3.3.3 1.5.4 2.9.7 3.7.1.3-.3.5-.7.5-1.2 0-.6-.2-1-.5-1.3-.7-.6-1.9-.3-3.2.1-1 .3-2.2.6-2.6.2-.1 0-.2-.2-.2-.7 0-.4.1-.6.2-.8.4-.3 1.3-.3 2.2-.2 1.6.1 3.8.3 4.3-1.9.1-.3.3-1.1-.3-1.5-.6-.5-1.7.1-3.2.9-1.5.8-3.6 1.9-4.3 1.1l-.1-.1c1-.3 2-.9 3-1.6.1 0 .2-.1.3-.1 2.3-.7 4.5-1.4 4.3-2.9-.1-.5-.3-.7-.5-.8-.6-.3-1.4.3-3 1.7-.5.4-1 .8-1.6 1.3-1.5.5-2.8.9-3.3 1.7-.4 0-.7-.1-1-.3-.1-.1-.3-.2-.2-.3.1-.7 2.8-1.6 4.4-2.2 2.5-.9 3.6-1.3 3.6-2.1 0-.6-.7-.9-1-1-2.4-.9-4.6 1.3-6.4 3.1-.9.9-2 2-2.5 1.8-.2-.4 1.2-1.7 1.8-2.3 1.3-1.3 2.2-2.1 2-2.9 0-.2-.2-.5-.6-.7-1.2-.5-1.8.8-2.5 2.1-1 2-1.7 3.3-3.3 2.7l-.1-.4c0-.2.9-1 1.4-1.4 1.1-1 2.4-2.1 2.2-3.3-.1-.7-.7-1.2-1.9-1.7-1.1-.4-1.9-.4-2.4 0-.9.7-.8 2.1-.7 3.5 0 .8.1 1.9-.2 2.1 0 0-.2.1-.9-.2-.6-.3-1-.6-1.1-1-.2-.6.2-1.4.6-2.3.6-1.3 1.4-2.9-.4-4-.6-.4-1-.4-1.5-.2-.8.4-1.1 1.7-1.3 3-.2 1-.4 2.3-.8 2.4-.2.1-.5-.1-.7-.2-.4-.2-.6-.5-.7-.8-.1-.5.4-1.2.8-1.9.9-1.3 2.1-3.1-.2-4.6-.7-.5-1.2-.6-1.8-.4-1 .4-1.3 1.7-1.6 3.2-.2 1.1-.5 2.4-1 2.6-.3.1-.7-.1-1-.4-.5-.3-.7-.7-.8-1 0-.6.8-1.4 1.7-2.1 1-.9 2-1.7 1.9-2.8 0-.6-.4-1.1-1-1.6-.5-.3-1.2-.8-1.8-.5-.7.3-.9 1.1-1.2 2-.2.9-.5 1.8-1.1 2.1-.5.2-1.2.1-2.2-.3-1.1-.5-1.2-.8-1.2-.9 0-.4 1.2-1.1 2-1.5 1.4-.8 2.7-1.5 2.7-2.6 0-.6-.4-1.2-1.4-1.8-1-.6-1.8-.7-2.5-.4-.2.1-.4.2-.6.4.6-.8.9-1.5.8-2.3-.1-.5-.3-1-.9-1.4-.5-.4-1.1-.5-1.6-.4-.1 0-.1 0-.2.1.2-.3.2-.7.1-1.1-.2-.5-.4-.6-.6-.7-.7-.2-1.5.5-2.7 1.4-1.2 1-2.6 2.2-3.7 2.1-.4 0-.7-.2-1-.6-.2-.3-.3-.5-.3-.7.2-.7 2.2-1.3 3.6-1.8 1.9-.6 3-.9 3.2-1.7.1-.2.1-.6-.3-1-1-1.1-2.7-.2-4.4.8-1.2.7-2.7 1.5-3.4 1.2-.3-.1-.5-.4-.7-.9-.1-.4-.1-.7 0-.9.4-.6 2.1-.6 3.5-.6 1.7 0 3.2 0 3.8-.8.3-.4.3-.8.1-1.4-.2-.5-.5-.9-1-1.1-1.1-.5-2.5.2-3.9.7-1.1.5-2.3 1-2.8.7-.2-.1-.3-.3-.3-.6 0-.4 0-.6.2-.8.5-.6 2-.6 3.2-.6 1.5 0 2.7-.1 3.3-.8.2-.3.3-.8.2-1.2-.1-.5-.4-.8-.8-1-.9-.4-2.1.1-3.4.7-1.1.4-2.3 1-2.8.7-.2-.1-.3-.4-.3-.7-.1-.4 0-.7.2-.9.4-.5 1.7-.5 2.9-.4 1.4 0 2.7.1 3.4-.6.3-.3.5-.7.5-1.2s-.2-.9-.5-1.1c-.7-.5-1.9 0-3.3.5-1.3.5-2.9 1.1-3.7.7-.3-.1-.5-.4-.6-.9-.1-.6 0-.8.1-.9.5-.6 2.4-.5 3.8-.4 1.8.1 3.3.2 4-.5.2-.2.4-.5.4-1.1 0-.6-.3-.9-.6-1-.1-.1-.2-.1-.3-.2 1-.3 1.8-.7 1.9-1.7.1-.6-.1-1-.3-1.1-.7-.7-2.3-.2-4.4.4-2.2.6-4.9 1.4-5.5.2-.1-.2-.1-.3-.1-.3.3-.6 2.6-.8 4.3-.9 3-.3 5.8-.5 6-2.3.1-.5-.1-.8-.3-1l-.1-.1c.7-.2 1.2-.5 1.4-.9.1-.3.1-.6 0-.9-.2-.4-.5-.6-.9-.7-.6.3-1.3.6-2.1 1 1.1-.2 2-.3 2.2.1-.1.6-3.5 1.1-5.4 1.4-1 .5-2.1 1-3.2 1.5 1-.2 2.1-.4 2.9-.5-.1 0-.2.1-.4.1-1.4.5-3.7 1.3-4.6 1.3-.3.2-.7.3-1.1.5l.3.3c.2.1.4.1.6.2-.2.1-.3.3-.4.4-.1.3-.3.7 0 1.2.9 1.8 3.9 1 6.6.3 1.3-.4 3.1-.9 3.5-.6v.3c-.2 1.2-2.9 1.1-5 1.1-2 0-3.8 0-4.4.8-.2.3-.3.6-.3 1 .1.4.2.7.5.9.2.1.5.2.8.2-.2.1-.4.3-.6.4-.4.4-.5 1-.3 1.7s.5 1.2 1.1 1.5c.3.2.6.2 1 .3-.2.1-.3.2-.5.4-.4.4-.5 1-.4 1.6.1.7.4 1.2.8 1.4.9.5 2.2 0 3.6-.6 1-.4 2.1-.9 2.6-.7.1 0 .2.1.3.4.1.2.1.3 0 .4-.3.4-1.5.4-2.5.4-1.6 0-3.2.1-3.9 1-.3.4-.5.9-.4 1.6.1.6.3 1.1.8 1.3.9.5 2.2 0 3.7-.6 1.2-.5 2.5-1 3.2-.7.1.1.3.2.5.5.1.2.1.4 0 .5-.3.4-1.8.4-3 .4-1.7 0-3.6 0-4.3 1-.3.4-.4 1-.1 1.7.2.7.7 1.2 1.2 1.5 1.2.5 2.7-.4 4.2-1.3 1.3-.7 2.7-1.5 3.2-1-.1.4-1.6.8-2.5 1.1-1.9.6-3.9 1.2-4.3 2.4-.2.5 0 1.1.4 1.6.4.6 1 .9 1.6.9 1.5.1 3-1.1 4.4-2.3.6-.5 1.5-1.2 1.8-1.2.2.6-1.4 1.7-2.6 2.5-1.7 1.1-3.4 2.3-3.5 3.6 0 .6.3 1.2.9 1.6.6.4 1.1.6 1.7.5 1.2-.3 1.9-1.9 2.7-3.6.6-1.3 1.3-2.8 2-3 .1 0 .3-.1.8.2.4.3.5.6.5.7.1.9-1.1 2.2-2.1 3.3-1.2 1.4-2.4 2.7-2.2 4 .1.5.4 1 1 1.3.6.4 1.1.5 1.6.3.3-.1.5-.3.6-.5.2.6 1.1 1.1 1.7 1.4 1.3.6 2.3.7 3 .3 1.1-.5 1.4-1.8 1.6-2.8.1-.6.3-1.3.6-1.3.1 0 .3-.1.9.4.4.3.6.6.7.9 0 .6-.8 1.3-1.6 2-1 .9-2 1.8-2 2.9 0 .6.4 1.2 1.1 1.7.7.5 1.4.7 1.9.5 1-.4 1.3-1.8 1.6-3.3.2-1 .5-2.3 1-2.5.2-.1.6.1.9.3 1.4 1 .9 1.9-.1 3.3-.6.9-1.2 1.7-1 2.6.1.5.5 1 1.1 1.4.6.4 1.2.5 1.6.3.9-.4 1.1-1.7 1.4-3.2.2-.9.4-2.1.7-2.3.1-.1.3 0 .6.2 1 .6.8 1.3 0 2.8-.5 1-1 2-.6 3 .2.6.8 1.1 1.6 1.5.8.4 1.4.4 1.8.1h.1v.2c.1.4.3.6.8.8.7.3 1.3.3 1.8.1v.2c0 .2.1.5.5.8.5.3.9.2 1.5 0 .1.2.2.5.5.7.4.4.9.5 1.4.5 0 .2.1.4.3.6.3.4.7.6 1.1.6-.2.3-.3.7-.3 1.2 0 .6.2 1 .5 1.3-.4 0-.8.2-1.1.4-.4.3-.6.9-.6 1.6 0 .7.2 1.2.7 1.6.9.7 2.3.6 3.8.4 1.2-.2 2.5-.3 3 .2.2.2.3.5.3 1 0 .6-.3.7-.3.8-.7.5-2.4-.1-3.8-.6-1.7-.5-3.1-1-3.9-.3-.4.3-.5.9-.4 1.6.1.7.4 1.2.9 1.5 1.1.8 2.8.4 4.4.1 1.2-.2 2.5-.5 3-.1.1 0 .2.2.2.6 0 .4-.2.6-.2.6-.4.4-1.7.1-2.8-.1-1.6-.3-3.3-.7-4.4.1-.5.4-.9 1-1 1.9-.1.9.1 1.5.5 1.9.9.8 2.5.4 4.2-.1 1.3-.3 2.7-.7 3.2-.3.1.1.2.2.2.5 0 .4-.1.6-.2.6-.5.5-2 .3-3.4.2-1.6-.2-3.2-.4-4 .4-.3.3-.5.7-.5 1.2s.2 1 .6 1.2c.7.6 2 .4 3.3.2 2-.3 3.4-.4 3.7.8.1.3.1.5 0 .5-.3.3-1.7 0-2.8-.3-2.2-.5-4.8-1.1-5.4 1.1-.1.6-.1 1 .2 1.3.7.7 2.1.5 4 .2 1.6-.2 3.6-.5 4.3.1.2.2.3.5.3.9 0 .6-.2.7-.2.7-.5.4-2 0-3.4-.4-1.8-.5-3.6-1.1-4.7-.3-.5.4-.8 1-.8 1.9 0 .9.2 1.5.7 1.9.1 0 .1.1.2.1-.2.1-.3.2-.5.3-.3.3-.5.7-.5 1.3 0 .6.3 1 .5 1.2.9.8 2.9.4 4.9-.1 1.2-.3 3-.6 3.4-.3v.3c-.2 1.1-1.9 1-4.2.7-1.8-.2-3.4-.4-4.2.4-.3.3-.5.7-.5 1.3 0 .5.2.9.6 1.2.1.1.1.1.2.1l-.6.3c-.3.3-.5.6-.6 1 .3 0 .6.1 1 .1.1-.2.1-.3.3-.4 1.3 0 3.4.4 5 .7zm.1-1.2c.9-.2 1.9-.3 2.7-.3.4 0 .7.1.9.2.1 0 .1.1.1.3 0 .2-.1.2-.1.3-.4.4-2.1 0-3.4-.2-.2 0-.5-.1-.7-.1.1-.1.3-.1.5-.2zm1.4-32.1c.6-.2 1.4-.4 1.9-.4.2 0 .4 0 .5.1.1.1.2.3.2.5 0 .3-.1.4-.2.5-.4.3-1.8 0-2.9-.3-.2-.1-.5-.1-.7-.2.4 0 .8-.1 1.2-.2zm.5-4c.7-.4 1.9-1 2.2-1 0 0 0 .2-.1.5-.3 1.3-1.5 1.3-3.3 1.2h-.2c.5-.3 1-.5 1.4-.7zm1.9-4.3c-.1.4-.7.7-1.4 1 .5-.5 1-.9 1.4-1zm-2-1.4c.1 0 .2.1.2.1-.5.3-1.8.8-2.9 1.2-.7.2-1.3.5-1.8.7 1.4-1.4 3-2.6 4.5-2zm-5.7-1.2s0 .1 0 0c.1.2-.5.8-1 1.4.3-.6.7-1.4 1-1.4zM77.2 180c.7-.3 1.7-.7 2.2-.7h.2s.1.1.1.3c0 .3-.1.4-.2.5-.4.4-1.6.4-2.7.3h-1c.4 0 .9-.2 1.4-.4zm-1-10c1.3-.5 3.6-1.3 4.4-1.3.1 0 .3 0 .3.1-.1 1.1-3 1.3-5.1 1.5-.3 0-.5.1-.8.1.4-.1.8-.2 1.2-.4zm3.5 5.8c.1 0 .1.1.2.3 0 .2 0 .3-.1.3-.4.4-2 .3-3.2.2-.5 0-1.1-.1-1.6-.1.3-.1.7-.2 1-.3 1.1-.3 2.3-.7 3.1-.7.3.1.5.2.6.3zm-7.5.1s-.1-.1-.1-.2v-.2c.4-.4 2.2-.4 3.7-.4h.9c-.3.1-.7.2-1.1.3-1.2.4-2.9.9-3.4.5zM82.4 197c-.6 1.3-1.3 2.9-2.1 3-.1 0-.4.1-.9-.3-.6-.4-.5-.8-.5-.9 0-.9 1.7-2 3.1-2.9.5-.3 1-.7 1.4-1-.4.7-.7 1.4-1 2.1zm2.9 4c-.2 1-.5 2.3-.9 2.5-.2.1-.5-.1-.7-.2-.3-.2-.5-.4-.5-.7-.1-.8 1-2.1 2-3.2.4-.4.7-.8 1-1.2-.4.7-.7 1.7-.9 2.8zm1 .2c.3-1.3.6-2.8 1.3-3.1.1 0 .2-.1.4-.1.3 0 .7.1 1.2.4.6.3.9.7.9.9 0 .5-1.3 1.2-2.2 1.7-.7.4-1.4.7-1.8 1.1 0-.2.1-.6.2-.9zm18.3 11.7c.1-.5 0-1.2 0-1.9-.1-1-.1-2.3.3-2.7.1-.1.3-.1.5-.1.3 0 .7.1 1 .2.8.3 1.2.6 1.3.9.1.6-1 1.6-1.9 2.4l-1.2 1.2zm10.5 15.4c-1.4.3-3 .6-3.7 0-.3-.2-.4-.5-.5-.9-.1-.3 0-.6.1-.7.4-.3 1.9.2 3 .5 1.1.4 2.3.7 3.2.8-.7 0-1.4.1-2.1.3zm2.8 17.2c.2 0 .4 0 .5.1 0 0 .1.1.1.4 0 .1 0 .2-.1.2-.5.4-2.2.3-3.7.2h-.3c.2-.1.5-.1.7-.2 1-.3 2.1-.7 2.8-.7zm-7.2-1.9c.7-.5 2.4 0 3.8.4 1 .3 1.9.6 2.7.6-.7.1-1.5.4-2.4.7-1.5.5-3.5 1.1-4.2.5-.3-.2-.4-.6-.4-1.1.1-.6.2-.9.5-1.1zm7.7 11.9c-.6-.5-1.7-.4-3-.1 1 .1 2.1.2 3.1.3 0-.1 0-.2-.1-.2z"/><path fill="#6B6864" d="M76.5 200.9c-5.3-3.9-7-19.2-7.6-29.3-6.6 3.1-13.7 6.2-17.6 7.7-2.3.8-6.7 2-12.4 3.5 1.4 1.2 2.7 2.1 3.6 2.6 3.8 2.4 15.1 6.2 10.1 13.4s-13.4 4.3-15.3 2.4c-1.9-1.9-2.4-5.5-6.7-3.6-4.3 1.9 1.4 6.7 8.1 7.7 6.7 1 15.1-4.8 16 0 1 4.8-2.6 8-2.6 8 12.8-4.5 21.7.3 23.6 1.9 1.9 1.6 7.3 16-4.8 16.9-12.1 1-11.5-8.9-11.5-8.9-5.9 2.1-8 4.8-8.1 7.4 4.8 3.6 9.9 6.9 15.2 9.8 7.2-.8 16.9-2.7 16.9 2.9-.1 1.9-.4 3.3-.8 4.5 7.9 3 16.2 5.2 24.7 6.6.6-18.9 1.2-34.3 1.2-34.3s-18.5-9.2-32-19.2z"/><path fill="#6B6864" d="M121.5 209.9l-.4-.1c-.1 0-5.4-1.4-11.9-4.2-3.6-1-7.4-2.4-10.9-4.3 9.5 5.7 20 8.7 22.2 9.3l.2 45.2c.3 0 .6 0 1 .1l-.2-45.6v-.4zM84 186c-.4-1.1-.7-2.2-.9-3.3-.5-2.5-.7-4.9-.6-7.2l-.5-.1c-1.4 7.3 1.7 13.4 6.6 18.4-.5-.6-1-1.2-1.5-1.9-1.4-1.8-2.4-3.8-3.1-5.9zm-30.2 35.9c2.7-2 7.6-2.5 9.2-1.4.4.2.4.5.3.9-.7 2.5.9 7.1 3.9 8.7 1.1.6 3.1 1.6 5.9-1.8 2.2-2.7 2.9-5.2 2-7.5-1-2.9-4.6-5.1-9.6-6-3.3-.6-7.9.6-12 1.7-2.8.7-7.5 1.9-7.9 1-.4-.9 1.2-2.6 2.5-4 2-2.1 4.2-4.4 2.4-6.5-1.4-1.7-4.1-1.1-7.1-.3-3.5.9-7.9 1.9-12.2.1-3.1-1.4-4.8-3.2-5-5.4-.2-2.2 1.2-4.2 2.8-5.2 2.2-1.5 6.3-2.5 8.6-1.5.8.4 1.3 1 1.5 1.8.4 2.5 1.2 4 2.4 4.8 1.2.7 2.8.8 5 0 1.2-.4 2-1.2 2.4-2.5.8-2.9-1.4-7.4-3.1-9.4-1-1.1-3.1-2.5-5.9-4.3-.9-.6-1.9-1.2-2.8-1.9-.8.2-1.6.4-2.5.6 1.4 1 2.9 1.9 4.2 2.8 2.4 1.6 4.7 3.1 5.5 4 1.5 1.6 3.3 5.5 2.7 7.6-.2.6-.5 1-1.1 1.1-1.7.5-2.8.6-3.5.1-.7-.4-1.2-1.6-1.5-3.5-.2-1.5-1.1-2.6-2.6-3.2-3-1.3-7.7-.1-10.4 1.6-2.4 1.6-3.8 4.3-3.6 6.9.2 2 1.4 4.9 6.1 7 4.9 2.1 9.8.9 13.4 0 2.4-.6 4.5-1.1 5.1-.3.6.8-.6 2.1-2.3 4-1.9 2-3.8 4-2.8 6.1 1.1 2.4 5.1 1.3 10.1 0 3.9-1 8.3-2.1 11.2-1.6 4.2.8 7.3 2.6 8.1 4.8.6 1.6 0 3.5-1.7 5.6-1.5 1.8-2.6 1.6-3.7 1-2-1-3.3-4.3-2.8-6.1.3-1.2-.1-2.3-1.1-3-2.4-1.6-8.3-.8-11.4 1.5-1.9 1.4-3.8 4.2-4.9 7.4.5.4 1.1.9 1.6 1.3 1-2.9 2.9-5.7 4.6-7zm26.1 22c-2.1-3-5.9-2.3-9.1-1.3.9.4 1.8.9 2.7 1.3 2.1-.4 3.8-.3 4.8 1.1.3.4.4.8.4 1.2.6.3 1.2.5 1.8.8.3-1.1.1-2.1-.6-3.1z"/><path fill="#171612" d="M104.4 173.2c4.5 2.1 7.8 3.1 10.2 3.7 3.6 1 5.4 1.5 5.8 4.6l.4 3.3c.7 5.1 1.8 12.9 2.3 15.7.4 2.3.6 3.7-.2 4.5-.4.4-.9.6-1.8.6-.5 0-1.1-.1-1.8-.2l-.6-.1C99.2 201.6 89.2 193.5 84 186c.7 2 1.7 4 3.1 6 .5.6 1 1.3 1.5 1.9 2.7 3.1 6.1 5.5 9.8 7.4 3.5 1.8 7.3 3.2 10.9 4.3 6.2 1.8 11.9 2.6 14.8 2.9 1.3.1 2 .2 2 .2s0-.3-.1-.8c-.1-.4-.1-.9-.2-1.5-.7-5.8-2.6-20.5-2.9-25.1-.3-5.7-5.7-4.8-14-8-7.1-2.7-18.1-11.9-21-14.4-.5-.4-.7-.6-.7-.6s-.3.5-.7 1.4c3.4 3.6 10.3 10 17.9 13.5z"/><path fill="#171612" d="M82.4 175.5c-.1 2.3.1 4.8.6 7.2 4.4 7.9 14.2 17.5 35.9 21.6l.7.1c1.4.3 2.3.3 2.7-.1.5-.5.3-1.8 0-3.7-.5-2.8-1.6-10.6-2.3-15.8l-.4-3.3c-.3-2.5-1.5-2.8-5.1-3.8-2.4-.7-5.8-1.7-10.4-3.8-7.5-3.5-14.4-9.8-18.1-13.6-.4 1-.9 2.2-1.4 3.7-1.1 3.3-2.1 7.2-2.2 11.5z"/><path fill="#6B6864" d="M104 174.1c4.6 2.1 7.9 3.1 10.4 3.8 3.6 1 4.8 1.4 5.1 3.8l.4 3.3c.7 5.1 1.8 12.9 2.3 15.8.3 1.8.5 3.2 0 3.7-.4.4-1.2.4-2.7.1l-.7-.1c-21.6-4.1-31.4-13.7-35.9-21.6.2 1.1.5 2.2.9 3.3 5.2 7.5 15.3 15.5 34.8 19.2l.6.1c.7.1 1.3.2 1.8.2.8 0 1.4-.2 1.8-.6.8-.8.6-2.2.2-4.5-.5-2.8-1.6-10.6-2.3-15.7l-.4-3.3c-.4-3.1-2.2-3.6-5.8-4.6-2.4-.7-5.7-1.6-10.2-3.7-7.6-3.5-14.5-10-18-13.6-.1.3-.3.6-.4.9 3.7 3.7 10.5 9.9 18.1 13.5z"/><path fill="#60493B" d="M84.4 120.2c-1.9-9.6-3.3-18.6-4.3-26.8 0 0-1.2-2.7-3.9-3h-.6c-.2 0-.4 0-.6.1-.3.1-.5.1-.8.2h-.1c-3.7 1.1-4.1 3-1.4 10.7 2.9 8.3 3.4 18.2 5.4 19.5.9.6 3.6 1 6.2 1.3l.1-2z"/><path fill="#775B4B" d="M128 36.4s-5.3-.2-10.3-2.9c-5-2.6-25.6 7.7-26.8 10.1-1.2 2.4-4.8 14.8-8.4 21.3 0 0-2.6 25.1-2.4 28.5 1 8.2 2.4 17.3 4.3 26.8.1.2 2.4 9 2.9 10.6.5 1.6.8 1.6 1.4 3.9.2 1 .8 1.8.8 1.8s1.7 0 1.7.8 1.4 1.9 1.4 1.9-.8.6 1.3 2.4c2.1 1.8 1.9 1.9 2.7 2.6s.8 1.7 1.3 1.7 2.9 1 4.2 1.5c1.3.5 2.4.2 2.4.2s2.1-1 .5-3.5-2.6-4.3-2.6-4.3l-.2-6.4s.8-2.2.8-3 .2-3.5.8-4.2 3.7-3.4 5.1-4c1.4-.6 2.4-1.4 2.4-1.4s.8-.8 2.1-1.3 7.2-3 7.2-3 2.6-1.8 3.2-1.8 2.6.9 2.6.9l-1.4.9.5.8-1.9 1.8s-6.1 1.6-8.6 3.5c-2.6 1.9-7 4.3-7.5 5.7-.5 1.4 1.9 2.6 1.3 3.8-.6 1.3-1.9 3.5-1.3 4.9.5 1.4 1.2 4.9 1.2 4.9s0 1 .3 2.1.6 2.9.6 2.9l2.9 2.6 1.9 2.9s1.7.6 2.5.6h4.5s1.9 1.8 6.9 1.8V36.4zm-11.7 33.9c-2.9 4-9.6 1.1-11 1.8-1.4.6-12.1 0-12.1 0l.8-2.2-.6-.9 1-1-1.9-1.6s7-2.6 11.5-1 12.5.8 12.5.8 2.7.1-.2 4.1z"/><path fill="#2F2216" d="M75.6 90.4h.6c2.7.2 3.9 3 3.9 3-.2-3.4 2.4-28.5 2.4-28.5 3.6-6.5 7.2-18.9 8.4-21.3 1.2-2.4 21.8-12.7 26.8-10.1 5 2.6 10.3 2.9 10.3 2.9v-28c-3.1 0-4.4.7-5.3 1.3s0 0-1.4.5-2.6.9-3.6.7c-1-.2 0 0-1.2-.5s-1 0-2.6.8-1.1.5-2.5.8c-1.4.4-1.3.1-3.5 1-2.2.8-.8-.1-2.8 0-1.9.1-1.8.1-4.3 1.1s0 0-3.4 4.3 0 0-3.5 1.7 0 0-1.9 1.7-1.6 4.8-1.9 5.6c-.4.8-.6.5-2.8 2.9-2.2 2.4-.7 1.2-1.1 1.9-.4.7 0 1.3-.2 2.4-.2 1.1 0 0-3.5 2.4s0 0-1.6 1.6 0 0-.4 2.5-.4.7-2.5 3.2c-2.2 2.5-1 .7-2.2 2.2-1.2 1.4 0 0-.2 3.1s-.7 1.2-1.3 2.4c-.6 1.2-1.1 1.9-1.9 4.7-.8 2.8 1.2 4.2 1.2 5.5s0 1.1-1.3 4.2-.6 1.8-.6 5.6 0 1.2-.1 2-.1.8-.6 2.9c-.5 2 0 1.6 1.2 3.4 1.2 1.8.4 2.2 0 4.4s1.7 6.1 1.7 6.1h.2c.6-.3 1.1-.4 1.5-.4z"/><path fill="#2F2216" d="M116.3 66.3s-8 .8-12.5-.8-11.5 1-11.5 1l1.9 1.6-1 1 .6.8-.8 2.2s10.7.6 12.1 0c1.4-.6 8.1 2.2 11-1.8 3.1-4 .2-4 .2-4zm-12.8 101.3c-.2 0-.1 0 0 0zm-12.7-19.2c0 .5.8 2.1 1 2.7s1.3 2.1 1.8 2.7c.5.6 0 2.7 0 3.4 0 .6 1.3 1.6 3.4 2.8 2.1 1.2 1.6 1.3 2.6 1.6s.6 1 1.4 2.6c.8 1.6 2.4 1.8 2.7 3 .1.3 0 .4-.1.4.2 0 1.1.2 3.6 1.3 5.4 2.2 3 0 4.1 1.6 1.1 1.6 1.2 1 2.1 1.2 1 .2.3 2.2 2.1 3 1.8.8 2.2.8 3 1s1.6.3 5.4 1.4.6-1.9.6-1.9l3.5 1.7v-22.1c-4.9 0-6.9-1.8-6.9-1.8h-4.5c-.8 0-2.5-.6-2.5-.6l-1.9-2.9-2.9-2.6s-.3-1.8-.6-2.9c-.3-1.1-.3-2.1-.3-2.1s-.6-3.5-1.2-4.9c-.5-1.4.7-3.7 1.3-4.9.6-1.3-1.8-2.4-1.3-3.8s4.9-3.8 7.5-5.7c2.6-1.9 8.6-3.5 8.6-3.5l1.9-1.8-.5-.8 1.4-.9s-1.9-.9-2.6-.9-3.2 1.8-3.2 1.8-5.9 2.6-7.2 3c-1.3.5-2.1 1.3-2.1 1.3s-1 .8-2.4 1.4c-1.4.6-4.5 3.4-5.1 4s-.8 3.4-.8 4.2-.8 3-.8 3l.2 6.4s1 1.8 2.6 4.3-.5 3.5-.5 3.5-1.1.3-2.4-.2c-1.3-.5-3.7-1.4-4.2-1.5-.5 0-.5-1.1-1.3-1.7s-.6-.8-2.7-2.6-1.3-2.4-1.3-2.4-1.4-1.1-1.4-1.9-1.7-.8-1.7-.8-.6-.8-.8-1.8c-.5-2.3-.9-2.3-1.4-3.9-.5-1.6-2.8-10.4-2.9-10.6l-.1 2.1-.2 4.1v2.4s.5 1.9.8 2.4c.3.5.3 1 1 2.2.6 1.3.3 1.8.8 2.4.5.6 1.2 3.9 1.2 4.6 0 .1.1.3.3.6.7 1.2 2.7 3.5 2.7 3.5s.2 3.4.2 3.9z"/></svg>