<svg xmlns="http://www.w3.org/2000/svg" width="256" height="256"><circle fill="#B1B3B5" cx="128" cy="128" r="128"/><path fill="#27160D" d="M101 248.2c-3.8-1-25.9-6.2-52.1-19.6 16.6 13.1 36.5 22.1 58.2 25.7-.5-3.3-1.3-4.8-6.1-6.1z"/><path fill="#140000" d="M19.6 194.1l2.5-6.2 30.2-6.8-.7-1 20.9-3.6c.1.4.1.7.2 1 .8-5.3 1.3-10.4 1.2-14-.1-5.6.6-21 1.4-35.6 0-.8-.1-1.7-.1-2.6v1.5c-6.5 1.9-7.6 8.4-7.6 8.4l-2.8 41.4c-17.2-.5-44.4 8.6-50.3 10.7 1.9 3.6 4 7.1 6.2 10.6-.8-3-1.1-3.8-1.1-3.8z"/><path fill="#27160D" d="M53.9 166l-2.1-15.7c-9.8 4.3-32 14-44.9 19.3 1.3 3.9 2.8 7.6 4.5 11.3l40-10.8 2.5-4.1z"/><path fill="#675073" d="M128 179.5c-.3.2-1.8.9-3.4.6v.1c-.1 0-.2-.1-.3-.2-.4-.1-.7-.3-1.1-.5-1.5-1-3.2-.8-4.9-1.4v.1c-1.5-.5-2.4-1.5-3.1-2.7v-.1s-3 1.3-5.1-1.5c-.5-.4-1-.9-1.4-1.5-1.2-.6-3.5-1.8-5.7-2.2-2.2-.4-4-.8-5.4-1.6-1-.4-1.8-.9-2.3-1.7-.9-.3-1.6.4-2.8-.9v.1c-1.4-.3-2.1-1.7-2.6-3.5-2.9-3.3-7.7-6.8-9.7-10.5-2.3-4.5-4.1-7.3-4.7-20.1-.1-1.2-.1-2.6-.2-4-.8 14.6-1.5 30-1.4 35.6.1 3.7-.5 8.7-1.2 14 1.3 6.1 3.7 7 14.3 13.4 11.1 6.7 29.5 9.3 29.5 9.3l.2 4.2c1.2.1 2.4.2 3.7.2v10.7l7.6.5v-36.4z"/><path fill="#423731" d="M86.9 190.9c-10.5-6.4-13-7.3-14.3-13.4-.1-.3-.1-.6-.2-1l-20.9 3.6.7 1 13.7-3.1s5 23 50.7 26.4l-.2-4.2c.1 0-18.4-2.6-29.5-9.3z"/><path fill="#55422D" d="M120.4 215.3V232h7.6v-16.2z"/><path fill="#735942" d="M128 235.6V232h-7.6v23.8c2.5.1 5.1.2 7.6.2v-20.4z"/><path fill="#533F2D" d="M120.4 232v-27.4c-1.3-.1-2.5-.1-3.7-.2-45.7-3.4-50.8-26.3-50.8-26.3l-13.7 3.1L22 188l-2.5 6.2s.3.9 1.1 3.7c7.7 11.8 17.2 22.2 28.2 30.8 26.2 13.4 48.3 18.6 52.1 19.6 4.8 1.3 5.6 2.8 6.1 6.1 4.4.7 8.8 1.2 13.3 1.5V232zm-53.9-3.2c-16.4-7.2-37.1-19.4-37.1-19.4L27.5 190l4.8-1.2 3.5 16.3 11.3 11 12.2-2.2 4.6 8.7 39.5 11 5.5-3.4-41.3-12.9-2.5-3.4H75l39.2 10.9-1.2-10.9-36.9-7.2h-13l-14.2-20.5-4.5.7 12.5 21.6-8.1 1.4-9.5-8.9-3.2-14.1 28.1-5.5s6.9 14.1 21.5 18.2c14.5 4.1 30.2 7.1 30.2 7.1l1.4 39.1s-34.4-9.8-50.8-17z"/><path fill="#735942" d="M115.9 206.7s-15.7-3-30.2-7.1-21.5-18.2-21.5-18.2l-28.1 5.5 3.2 14.1 9.5 8.9 8.1-1.4-12.5-21.6 4.5-.7 14.2 20.5h13.2l36.9 7.2 1.2 10.9-39.2-10.9h-9.9l2.5 3.4 41.3 12.9-5.5 3.4-39.5-11-4.6-8.7-12.2 2.2-11.3-11-3.5-16.3-4.8 1.2 1.8 19.4s20.8 12.2 37.1 19.4 50.8 17 50.8 17l-1.5-39.1z"/><path fill="#55422D" d="M64.8 176.5l2.8-41.4s1.2-6.5 7.6-8.4v-1.5c0-.8-.1-1.6-.1-2.5-1 .5-7.4 3.6-8.9 7.1-1.6 3.8-4.6 10.8-6.2 12.5s-8.5 4.7-8.5 4.7l.4 3.2 2.1 15.7-2.5 4-40 10.8c1 2.2 2 4.3 3.1 6.4 5.8-2 33-11.1 50.2-10.6z"/><path fill="#2F1F20" d="M148.9 254.3c21.7-3.6 41.6-12.6 58.2-25.7-26.2 13.4-48.3 18.6-52.1 19.6-4.8 1.3-5.6 2.8-6.1 6.1z"/><path fill="#27160D" d="M191.2 176.5l-2.8-41.4s-1.2-6.5-7.6-8.4v-.1c0 .7-.1 1.3-.1 1.9.8 14.4 1.4 29.4 1.3 34.9-.1 3.7.5 8.7 1.2 14 .1-.3.1-.6.2-1l20.9 3.6-.7 1 30.2 6.8 2.5 6.2s-.3.9-1.1 3.7c2.2-3.4 4.3-6.9 6.2-10.6-5.8-2-33-11.1-50.2-10.6z"/><path fill="#412E26" d="M202.1 166l2.5 4 40 10.8c1.7-3.7 3.2-7.5 4.5-11.3-12.9-5.2-35.1-14.9-44.9-19.3l-2.1 15.8z"/><path fill="#7C6288" d="M175.9 151.9c-2 3.7-6.8 7.3-9.7 10.5-.5 1.8-1.2 3.2-2.6 3.5v-.1c-1.2 1.2-2 .6-2.8.9-.6.8-1.3 1.3-2.3 1.7-1.4.7-3.2 1.1-5.4 1.6-2.3.5-4.6 1.6-5.7 2.2-.4.6-.9 1.1-1.4 1.5-2.1 2.8-5.1 1.5-5.1 1.5v.1c-.6 1.2-1.6 2.2-3.1 2.7v-.1c-1.7.7-3.5.4-4.9 1.4-.4.2-.7.4-1.1.5-.1.1-.2.1-.3.2v-.1c-1.7.4-3.2-.4-3.4-.6v36.4l7.6-.5v-10.7c1.3-.1 2.5-.1 3.7-.2l.2-4.2s18.5-2.6 29.5-9.3c10.5-6.4 13-7.3 14.3-13.4-.8-5.3-1.3-10.4-1.2-14 .1-5.5-.6-20.5-1.3-34.9-.1 1.1-.1 2.2-.2 3.2-.7 12.9-2.5 15.8-4.8 20.2z"/><path fill="#594B44" d="M169.1 190.9c-11.1 6.7-29.5 9.3-29.5 9.3l-.2 4.2c45.7-3.4 50.7-26.4 50.7-26.4l13.7 3.1.7-1-20.9-3.6c-.1.4-.1.7-.2 1-1.3 6.1-3.8 7-14.3 13.4z"/><path fill="#6C553C" d="M128 232h7.6v-16.7l-7.6.5z"/><path fill="#876B5E" d="M135.6 232H128v24c2.6 0 5.1-.1 7.6-.2V232z"/><path fill="#735942" d="M236.4 194.1l-2.5-6.2-30.2-6.8L190 178s-5 23-50.7 26.4c-1.2.1-2.4.2-3.7.2v51.2c4.5-.3 8.9-.8 13.3-1.5.5-3.3 1.3-4.8 6.1-6.1 3.8-1 25.9-6.2 52.1-19.6 11-8.7 20.5-19.1 28.2-30.8.8-2.9 1.1-3.7 1.1-3.7zm-9.8 15.3s-20.8 12.2-37.1 19.4-50.8 17-50.8 17l1.4-39.1s15.7-3 30.2-7.1 21.5-18.2 21.5-18.2l28.1 5.5-3.2 14.1-9.5 8.9-8.1-1.4 12.5-21.6-4.5-.7-14.2 20.5h-13.2l-36.9 7.2-1.2 10.9 39.2-10.9h9.9l-2.5 3.4-41.2 13 5.5 3.4 39.5-11 4.6-8.7 12.2 2.2 11.3-11 3.5-16.3 4.8 1.2-1.8 19.3z"/><path fill="#876B5E" d="M228.5 190l-4.8-1.2-3.5 16.3-11.3 11-12.2-2.2-4.6 8.7-39.5 11-5.5-3.4 41.3-12.9 2.5-3.4H181l-39.2 10.9 1.2-10.9 36.9-7.2h13.2l14.2-20.5 4.5.7-12.5 21.6 8.1 1.4 9.5-8.9 3.2-14.1-28.1-5.5s-6.9 14.1-21.5 18.2c-14.5 4.1-30.2 7.1-30.2 7.1l-1.4 39.1s34.4-9.8 50.8-17 37.1-19.4 37.1-19.4l1.7-19.4z"/><path fill="#6C553C" d="M202.1 166l2.1-15.7.4-3.2s-6.9-3-8.5-4.7-4.6-8.6-6.2-12.5c-1.5-3.5-7.6-6.5-8.8-7.1-.1 1.3-.2 2.6-.2 3.9v.1c6.5 1.9 7.6 8.4 7.6 8.4l2.8 41.4c17.2-.5 44.4 8.6 50.3 10.7 1.1-2.1 2.1-4.2 3.1-6.4l-40-10.8-2.6-4.1z"/><path fill="#7C6288" d="M181.3 118.1c1-.5 2.1-1 2.9-1.3 2.7-1 2-7.9 3.1-11.4 1.2-3.5 1.5-10.5 2.1-14.7.6-4.2-.3-6.4-1.5-9.3-1.2-2.9-3.5-4.5-4.4-2.6-.4.8-1.2 1.3-2 1.7.2 2 .4 4 .6 5.9.6 7.2-.1 20.1-.8 31.7z"/><path fill="#9677A5" d="M128 8.4zm.1 168.4v2.6c.2.1 1.7 1 3.4.6.2-1.4 2-17.8 1.7-24.5-.2-6.9-.9-19.6-.9-20.4v-9.8s1.5 7.9.9 11.5c-.6 3.6 5.1 39-1.5 43.1.4-.1.7-.3 1.1-.5 1.5-1 3.2-.8 4.9-1.4.2-.6 2.2-6.7 2.2-11.9v-14.8c0-3.6.4-5.5 0-7.9-.4-2.4-2.2-10.5-1-18 0 0 .1 9.6 1.2 12.7 1.1 3.1 1.8 10.4 1.8 14.7v17.6c0 1.3-.2 3.3-1.1 4.9v-.1s3 1.3 5.1-1.5c-.4.3-.8.6-1.3.7 0 0 2.6-4.6 2.9-7.9.2-3.4 1.1-15.1 0-18.9s-3.4-13.4-1.2-22.3c0 0-1.4 7.7 0 12.7 1.4 5 2.7 9.3 2.7 13.7s.4 13.7 0 16.3c-.2 1.5-.8 3-1.7 4.3 1.2-.6 3.5-1.8 5.7-2.2 0 0 2-9.1 2-14.8s-2.2-11.5-2-14.1c.2-2.6-2-5.5-.9-17 0 0 1.5 14.4 2.9 19.9s3.5 17.7 2.2 20.8-4.2 5.3-4.2 5.3c2.2-.4 4-.8 5.4-1.6-.3.1-.5.2-.8.2 0 0 3.8-3.1 3.1-12.5-.7-9.3-8-23.7-6-30.9 0 0 .4 11 2.9 14.4s4 8.9 4.2 12 .4 10.1 0 12.5c-.2 1-.5 1.9-1.1 2.6.9-.3 1.6.4 2.8-.9.1-1.4 1.5-16.9 0-21.6-1.5-4.9-6.2-17.1-7-23.3 0 0 5.7 15.6 6.8 18.4 1.1 2.9 4.2 13.2 3.7 16.3-.2 1.7-.4 4.5-.9 6.8 2.9-3.3 7.7-6.8 9.7-10.5 2.3-4.5 4.1-7.3 4.7-20.1 0-1 .1-2.1.2-3.2 0-.6.1-1.3.1-1.9.1-1.2.1-2.5.2-3.9.1-1.5.2-3.1.3-4.8.7-11.5 1.3-24.5.7-31.6-.2-2-.4-3.9-.6-5.9-.9-8.5-2-16.9-2.7-21.5-.9-5.7-1.5-23.6-6.7-30-5.3-6.4-12.3-20.6-44-20.6v168.2zm23.2-85c1.1-.7 1.3-5.7 1.3-5.7l-2.7-1.8 4.4.6 2.2-3-4.4-1.7c2.9-.5 4.2.2 9.9 1.4s7.9 8.1 7.9 8.1-2.6-4.7-5.1-5.4-7-2-7-2l-2 3.1s4.8 1 8.1 3.1c2.2 1.4 3.4 5.8 3.9 8.6.3.9.5 1.8.4 2.4 0 0-.1-1-.4-2.4-.7-1.9-2-4-2.6-5-.9-1.4-11.2-5.7-11.2-5.7l-2.6 6.9c-3.7 2.4-5.7 6.2-5.7 6.2.1-4.1 4.5-6.9 5.6-7.7z"/><path fill="#7C6288" d="M131.7 179.9c6.6-4.1.8-39.5 1.5-43.1.6-3.6-.9-11.5-.9-11.5v9.8c0 .7.7 13.4.9 20.4.2 6.6-1.6 23.1-1.7 24.5v.1c.1 0 .1-.1.2-.2zm9.1-4.6c.9-1.7 1.1-3.7 1.1-4.9v-17.6c0-4.2-.7-11.6-1.8-14.7-1.1-3.1-1.2-12.7-1.2-12.7-1.2 7.4.6 15.6 1 18 .4 2.4 0 4.3 0 7.9v14.8c0 5.2-2 11.3-2.2 11.9v.1c1.5-.5 2.5-1.6 3.1-2.8zm6.6-3c.9-1.2 1.5-2.8 1.7-4.3.4-2.6 0-12 0-16.3s-1.3-8.6-2.7-13.7c-1.4-5 0-12.7 0-12.7-2.3 8.9.1 18.4 1.2 22.3s.2 15.6 0 18.9c-.2 3.4-2.9 7.9-2.9 7.9.5-.2.9-.4 1.3-.7.5-.4 1-.9 1.4-1.4zm9.9-7.5c1.3-3.1-.9-15.3-2.2-20.8s-2.9-19.9-2.9-19.9c-1.1 11.5 1.1 14.4.9 17-.2 2.6 2 8.4 2 14.1s-2 14.8-2 14.8 2.9-2.1 4.2-5.2z"/><path fill="#7C6288" d="M160.8 166.8c.5-.7.9-1.6 1.1-2.6.4-2.4.2-9.3 0-12.5s-1.8-8.6-4.2-12-2.9-14.4-2.9-14.4c-2 7.2 5.3 21.6 6 30.9.7 9.3-3.1 12.5-3.1 12.5.3-.1.6-.2.8-.2 1-.4 1.8-1 2.3-1.7z"/><path fill="#7C6288" d="M166.2 162.5c.6-2.2.7-5.1.9-6.8.4-3.1-2.6-13.4-3.7-16.3-1.1-2.9-6.8-18.4-6.8-18.4.9 6.2 5.5 18.4 7 23.3 1.5 4.7.1 20.1 0 21.6v.1c1.4-.3 2.2-1.7 2.6-3.5zm-14.7-69.2l2.6-6.9s10.3 4.3 11.2 5.7c.6 1 1.9 3.1 2.6 5-.6-2.8-1.7-7.2-3.9-8.6-3.3-2.2-8.1-3.1-8.1-3.1l2-3.1s4.6 1.3 7 2 5.1 5.4 5.1 5.4-2.2-6.9-7.9-8.1c-5.7-1.2-7-1.9-9.9-1.4l4.4 1.7-2.2 3-4.4-.6 2.7 1.8s-.2 5-1.3 5.7c-1.1.7-5.5 3.6-5.5 7.6-.1.1 1.9-3.7 5.6-6.1zm16.5 3.8c.3 1.4.4 2.4.4 2.4.1-.7-.1-1.5-.4-2.4z"/><path fill="#634D6E" d="M74 86.5c.2-2 .4-3.9.6-5.9-.9-.4-1.7-1-2-1.7-.9-1.9-3.2-.3-4.4 2.6-1.2 2.9-2.1 5.1-1.5 9.3.6 4.2.9 11.2 2.1 14.7 1.2 3.5.4 10.4 3.1 11.4.8.3 1.8.8 2.9 1.3-.7-11.7-1.4-24.6-.8-31.7z"/><path fill="#7C6288" d="M75.2 125.3c0 .9.1 1.7.1 2.6.1 1.4.1 2.7.2 4 .6 12.8 2.3 15.6 4.7 20.1 2 3.7 6.8 7.3 9.7 10.5-.6-2.3-.7-5.1-.9-6.8-.4-3.1 2.6-13.4 3.7-16.3 1.1-2.9 6.8-18.4 6.8-18.4-.9 6.2-5.5 18.4-7 23.3-1.5 4.7-.1 20.1 0 21.6 1.2 1.2 2 .6 2.8.9-.5-.7-.9-1.6-1.1-2.6-.4-2.4-.2-9.3 0-12.5s1.8-8.6 4.2-12 2.9-14.4 2.9-14.4c2 7.2-5.3 21.6-6 30.9-.7 9.3 3.1 12.5 3.1 12.5-.3-.1-.6-.2-.8-.2 1.4.7 3.2 1.1 5.4 1.6 0 0-2.9-2.2-4.2-5.3s.9-15.3 2.2-20.8c1.3-5.5 2.9-19.9 2.9-19.9 1.1 11.5-1.1 14.4-.9 17 .2 2.6-2 8.4-2 14.1s2 14.8 2 14.8c2.3.5 4.6 1.6 5.7 2.2-.9-1.2-1.5-2.8-1.7-4.3-.4-2.6 0-12 0-16.3s1.3-8.6 2.7-13.7 0-12.7 0-12.7c2.3 8.9-.1 18.4-1.2 22.3-1.1 3.8-.2 15.6 0 18.9.2 3.4 2.9 7.9 2.9 7.9-.5-.2-.9-.4-1.3-.7 2.1 2.8 5.1 1.5 5.1 1.5v.1c-.9-1.7-1.1-3.7-1.1-4.9v-17.6c0-4.2.7-11.6 1.8-14.7s1.2-12.7 1.2-12.7c1.2 7.4-.6 15.6-1 18-.4 2.4 0 4.3 0 7.9V166c0 5.2 2 11.3 2.2 11.9 1.7.7 3.5.4 4.9 1.4.4.2.7.4 1.1.5-6.6-4.1-.8-39.5-1.5-43.1-.6-3.6.9-11.5.9-11.5v9.8c0 .7-.7 13.4-.9 20.4-.2 6.6 1.6 23.1 1.7 24.5 1.6.4 3-.4 3.4-.6V8.4C96.3 8.4 89.3 22.6 84 29c-5.3 6.4-5.9 24.3-6.7 30-.7 4.7-1.8 13.1-2.7 21.5-.2 2-.4 4-.6 5.9-.6 7.1.1 20.1.7 31.6.1 1.6.2 3.2.3 4.7.1.9.1 1.8.2 2.6z"/><path fill="#634D6E" d="M124.6 180c-.2-1.4-2-17.8-1.7-24.5.2-6.9.9-19.6.9-20.4v-9.8s-1.5 7.9-.9 11.5c.6 3.6-5.1 39 1.5 43.1.1.1.2.1.3.2-.1 0-.1 0-.1-.1zm-6.3-1.9s0-.1 0 0c-.2-.7-2.2-6.8-2.2-12v-14.8c0-3.6-.4-5.5 0-7.9.4-2.4 2.2-10.5 1-18 0 0-.1 9.6-1.2 12.7s-1.8 10.4-1.8 14.7v17.6c0 1.3.2 3.3 1.1 4.9.7 1.2 1.7 2.3 3.1 2.8zm-8.2-4.4c.4.3.8.6 1.3.7 0 0-2.6-4.6-2.9-7.9-.2-3.4-1.1-15.1 0-18.9 1.1-3.8 3.4-13.4 1.2-22.3 0 0 1.4 7.7 0 12.7s-2.7 9.3-2.7 13.7-.4 13.7 0 16.3c.2 1.5.8 3 1.7 4.3.4.5.9 1 1.4 1.4zm-7.1-32.6c-.2-2.6 2-5.5.9-17 0 0-1.5 14.4-2.9 19.9-1.3 5.5-3.5 17.7-2.2 20.8s4.2 5.3 4.2 5.3-2-9.1-2-14.8 2.2-11.6 2-14.2z"/><path fill="#634D6E" d="M97.6 168.5c.3.1.5.2.8.2 0 0-3.8-3.1-3.1-12.5.7-9.3 8-23.7 6-30.9 0 0-.4 11-2.9 14.4s-4 8.9-4.2 12-.4 10.1 0 12.5c.2 1 .5 1.9 1.1 2.6.5.7 1.3 1.3 2.3 1.7z"/><path fill="#634D6E" d="M92.4 166v-.1c-.1-1.4-1.5-16.9 0-21.6 1.5-4.9 6.2-17.1 7-23.3 0 0-5.7 15.6-6.8 18.4-1.1 2.9-4.2 13.2-3.7 16.3.2 1.7.4 4.5.9 6.8.5 1.8 1.3 3.2 2.6 3.5z"/></svg>