<svg id="Layer_1" xmlns="http://www.w3.org/2000/svg" width="256" height="256"><style>.st1{fill:none}.st3{fill:#202627}.st4{fill:#c08c76}.st6{fill:#3d4344}.st7{fill:#2c3233}.st8{fill:#a5a4a4}.st9{fill:#8f8f8f}.st10{fill:#b4363a}.st12{fill:#8d2528}.st13{fill:#62513e}.st14{fill:#d8aa91}.st15{fill:#78634e}.st17{fill:#9d7360}.st24{fill:#4f4031}</style><g id="XMLID_1_"><circle id="XMLID_84_" cx="128" cy="128.5" r="128" fill="#b2b4b5"/><g id="XMLID_9_"><path id="XMLID_10_" class="st1" d="M68.5 110.5c.4-1 .7-2.1.9-3.3-.2-1.3-.4-2.7-.6-4.2-1.1 3.3-2.3 5.9-2.3 5.9-1 2.5-2.1 4.8-3.2 6.7-3.5 6.2-4.5 8.9-3 15.6s1.5 10.1 1.5 13.7c0 2 .7 4.8 1.3 8.1 2.1-1.4 4-2.8 5.3-4 1.4-1.3 2.5-4.7 3.3-8.9-1.2-6.7-3.9-12.1-4.9-15.3-1.7-4.9-.8-7.3 1.7-14.3z"/><path id="XMLID_81_" class="st1" d="M69.5 127.4c.9 2.6 2.1 4.9 3.2 7.1.7-4.9 1.2-10 1.4-13.7-2.4-2.4-2.6-5.6-3.5-8.9-2.2 5.3-3 10.2-1.1 15.5z"/><path id="XMLID_82_" class="st1" d="M185.4 111.8c-.9 3.4-1.1 6.5-3.5 8.9.3 3.7.7 8.8 1.4 13.7 1.1-2.2 2.3-4.5 3.2-7.1 1.9-5.2 1.1-10.1-1.1-15.5z"/><path id="XMLID_95_" class="st1" d="M195.7 131.2c1.5-6.7.5-9.4-3-15.6-1.1-1.9-2.2-4.2-3.2-6.7 0 0-1.3-2.6-2.3-5.9-.2 1.4-.3 2.9-.6 4.2.2 1.1.5 2.2.9 3.3 2.5 7 3.3 9.4 1.7 14.4-1.1 3.2-3.8 8.5-4.9 15.3.9 4.2 2 7.6 3.3 8.9 1.3 1.2 3.2 2.5 5.3 4 .6-3.3 1.3-6.1 1.3-8.1 0-3.7 0-7.1 1.5-13.8z"/><path id="XMLID_96_" d="M155.6 238.2c-3.5-2.1-8.3-5.1-10.1-6.4-3-2.2-5.4-2.2-3.7-11.3.3-1.4.5-2.8.7-4.2l-14.5 1v39.2h1.2v-2l26.4-16.3z" fill="#464c4e"/><path id="XMLID_97_" class="st3" d="M188.8 228.9c-1.7-.5-3.3-1.1-4.9-1.8-1.2.6-2.5 1.1-3.8 1.4l-.7 2.2 9.7 5s-20.8 8.5-27.1 13.6c-1.4 1.1-2.4 2.3-3.1 3.4 9.2-2.3 18-5.6 26.3-9.7l8.6-5.3.5.3c4-2.4 7.8-5 11.4-7.8-6.4.3-12.5 0-16.9-1.3z"/><path id="XMLID_98_" class="st4" d="M128 198.7c1.1-.2 15.5-2.6 28-7.5 2.1-6.9 4.5-14.7 3.7-21.2-.3-2.2-.5-4.6-.8-6.8-.8 1.2-1.5 2.2-2.1 2.8l-.5-2.4-5.8 7-1.1 1.3-15.1 6.5 2-2.2s-4.1 2.1-8.4 2.9v19.6z"/><path id="XMLID_99_" d="M144.3 203.1l9.4-4c.6-2.4 1.4-5 2.3-7.8-12.5 4.9-26.9 7.4-28 7.5v18.4l14.5-1c1.2-7.2 1.8-13.1 1.8-13.1z" fill="#753b30"/><path id="XMLID_100_" class="st6" d="M159.1 214.2c-3.9-2.9-7.4-4.8-5.9-12.9.1-.7.3-1.5.5-2.2l-9.4 4s-.6 5.9-1.8 13.2c-.2 1.4-.5 2.7-.7 4.2-1.7 9.1.7 9.1 3.7 11.3 1.8 1.3 6.6 4.3 10.1 6.4l17.4-10.7 6.4 3.3.7-2.2c-.6.1-1.2.3-1.8.3 0 0-15.4-11.8-19.2-14.7z"/><path id="XMLID_101_" class="st7" d="M159.7 170c.8 6.5-1.6 14.3-3.7 21.2-.9 2.8-1.7 5.5-2.3 7.8-.2.8-.4 1.5-.5 2.2-1.5 8.1 2 10.1 5.9 12.9 3.9 2.9 19.3 14.7 19.3 14.7l1.8-.3c1.3-.3 2.6-.8 3.8-1.4-9.9-4.3-16.9-12.2-19.7-17-3.2-5.3-.2-21.9 18.2-31.6-1.3-1.4-2.7-2.8-4.3-4.1-9.1-7.7-13.8-12.1-15.6-17.1-1.3 2.2-2.5 4.2-3.6 5.8.2 2.4.5 4.7.7 6.9z"/><path id="XMLID_102_" class="st8" d="M185.2 243c3.1-1.6 6.2-3.2 9.1-5l-.5-.3-8.6 5.3z"/><path id="XMLID_103_" class="st8" d="M161.9 249.4c6.4-5.1 27.1-13.6 27.1-13.6l-9.7-5-6.4-3.3-17.4 10.7-26.3 16.2v2c1 0 2.1 0 3.1-.1l41.4-26.3 10.5 5.4s-23.8 9.3-31.1 14l-.7 4.6c2.1-.4 4.2-.9 6.3-1.4.8-1 1.8-2.1 3.2-3.2z"/><path id="XMLID_104_" class="st9" d="M153.2 249.5c7.4-4.8 31.1-14 31.1-14l-10.5-5.4-41.4 26.3c6.9-.2 13.6-1 20.1-2.3l.7-4.6z"/><path id="XMLID_105_" class="st10" d="M217.8 180.2c2 1.4 9.1 8.4 15.2 15.7 1.9-1.2 3.9-2.4 5.9-3.5 1.5-2.6 2.9-5.2 4.2-7.8-9.6-3.9-21.6-7.8-29.9-9 1.6 2 3.3 3.7 4.6 4.6z"/><path id="XMLID_106_" class="st10" d="M235.1 198.6c.5-.8 1.1-1.7 1.6-2.5-.9.4-1.8.8-2.6 1.2.3.5.6.9 1 1.3z"/><path id="XMLID_107_" class="st10" d="M206.2 222.6s-2.5 5-7 6.2c0 0 2.3-3.7 3.2-8.7-2.8 1.3-5.9 2.1-9.2 2.1-11.3 0-20.5-8.7-20.5-19.5 0-8.7 6-16.1 14.3-18.6-1.3-1.9-2.8-3.7-4.5-5.5-18.4 9.7-21.3 26.3-18.2 31.6 2.8 4.8 9.8 12.7 19.7 17 1.6.7 3.2 1.3 4.9 1.8 4.5 1.2 10.5 1.6 16.9 1.3.4-.3.8-.6 1.1-.9-.6-2.2-.8-4.5-.7-6.8z"/><path id="XMLID_108_" d="M172.6 202.7c0 10.8 9.2 19.5 20.5 19.5 3.3 0 6.5-.8 9.2-2.1.3-1.6.4-3.3.3-5.1-2.7 1.9-6 3-9.6 3-8.9 0-16.1-6.9-16.1-15.3 0-7.2 5.2-13.3 12.3-14.9-.7-1.2-1.6-2.5-2.4-3.7-8.2 2.5-14.2 9.9-14.2 18.6z" fill="#757676"/><path id="XMLID_109_" class="st8" d="M177 202.7c0 8.5 7.2 15.3 16.1 15.3 3.6 0 6.9-1.1 9.6-3-.2-3.3-1.3-6.9-4-10.1l-1.3 4.6s-1.4-10.5-8.1-21.6c-7 1.5-12.3 7.6-12.3 14.8z"/><path id="XMLID_110_" class="st12" d="M234 197.3c.9-.4 1.7-.8 2.6-1.2.7-1.2 1.5-2.4 2.2-3.6-2 1.1-4.1 2.3-5.9 3.5.4.4.8.9 1.1 1.3z"/><path id="XMLID_111_" class="st13" d="M232.9 196c-6.1-7.3-13.2-14.3-15.2-15.7-1.3-1-3-2.6-4.6-4.6-2.5-3-5-6.8-6.2-10.3-1.2-3.5-6.5-7.2-11.5-10.6-.8 4.5-1.9 9.9-1 15.2 0 0-2.2-.8-2.3-8-.1-3.2.4-6.2.9-8.9-2.1-1.4-4-2.8-5.3-4-1.4-1.3-2.5-4.7-3.3-8.9-.7 3.8-.8 8.1.1 12.7 0 0-3.3-1.4-3.9-8-.3-4 1.1-7.2 2.8-10.5-.7-4.9-1.2-10-1.4-13.7-.3.3-.6.5-.9.8-1.4 1.1-3.7 1.8-6 2.3-.8 4.9-1.8 9.8-2.5 12.5-1.2 4.5-5.9 13.9-10 21.1 1.8 5 6.5 9.4 15.6 17.1 1.5 1.3 3 2.7 4.3 4.1 1.7 1.8 3.2 3.7 4.5 5.5.9 1.2 1.7 2.5 2.4 3.7 6.7 11.1 8.1 21.6 8.1 21.6l1.3-4.6c2.7 3.2 3.8 6.7 4 10.1.1 1.8-.1 3.5-.3 5.1-.9 5-3.2 8.7-3.2 8.7 4.5-1.2 7-6.2 7-6.2-.1 2.3.1 4.5.6 6.7 11-8.6 20.6-19 28.2-30.7-.3-.4-.7-.9-1-1.3-.4-.3-.8-.8-1.2-1.2z"/><path id="XMLID_112_" class="st4" d="M183.7 108.1c-1.5-3.2-2.3-8.6-2.6-14.4-.5.6-.9 1.1-1.1 1.5-.9 1.4-2.6 8.1-3.4 9.1-.1 1.3-.1 2.6-.2 3.9.9 0-.1 8-1.5 15.8 2.3-.5 4.6-1.2 6-2.3.3-.3.6-.5.9-.8 2.4-2.4 2.6-5.6 3.5-8.9-.4-1.4-1-2.7-1.6-3.9z"/><path id="XMLID_113_" class="st4" d="M185.6 93.8v1c0-.3 0-.6.1-.8 0 0 0-.1-.1-.2z"/><path id="XMLID_114_" class="st4" d="M185.6 95.3c0 2.8.1 7.6 1 11.9.2-1.3.4-2.7.6-4.2-.8-2.4-1.6-5.3-1.6-7.7z"/><path id="XMLID_115_" class="st14" d="M140.8 152.8s-4.2 1.3-4.7 2.7.2 4.6 1.3 4.8c1.2.2 9.2-2.7 10.5-7.2 1.3-4.5 1-10.5-1.5-12-2.5-1.4-4-4.5-18.5-4.5v12.1c.9 0 9.4-.2 12.9 4.1z"/><path id="XMLID_119_" class="st14" d="M128 131.1c.8 0 7.7.1 10.3-.8 2.7-1 8.4 5.7 10.5 7.8 2.2 2.1 6.5 6.4 6.5 6.4s3.3-7.8 4.5-10.2 7.4-4.5 11.4-13.4 3.6-12.5 5.2-12.8c.1-1.3.1-2.6.2-3.9-.1.1-.2.2-.2.1-.7-.5-.1-7.4-.6-11.4s-2.3-12.6-4-15.5c-1.7-2.9-2.3-8.6-2.3-8.6h1.8l-2-5.6 3.5 2.1s-4.7-8-6-12.1c-.7-2.2-6.5-5.3-12.4-7.1-5.1-1.6-10.4-2.2-12.4-.4-4.2 3.7-13.2 5.7-14 5.9v79.5zM140.3 90c3.5-2.6 12.1-4.9 16.6-4.5 4.5.5 5.2 3.3 5.2 3.3s-1.8.6-4 .1-9.7.8-15.4 3.2-9.5-1.4-9.5-1.4c2.3.8 7.1-.7 7.1-.7z"/><path id="XMLID_120_" class="st15" d="M176.5 108.1c-1.5.3-1.2 3.8-5.2 12.8s-10.2 11-11.4 13.4-4.5 10.2-4.5 10.2-4.4-4.3-6.5-6.4c-2.2-2.1-7.9-8.8-10.5-7.8-2.5.9-9.5.8-10.3.8v5.6c14.5 0 16 3 18.5 4.5 2.5 1.4 2.8 7.5 1.5 12-1.3 4.5-9.4 7.4-10.5 7.2-1.2-.2-1.8-3.4-1.3-4.8s4.7-2.7 4.7-2.7c-3.5-4.3-12-4-12.8-4v30.2c4.4-.8 8.4-2.9 8.4-2.9l-2 2.2 15.1-6.5 1.1-1.3 5.8-7 .5 2.4c.5-.6 1.2-1.6 2.1-2.8 1-1.6 2.3-3.6 3.6-5.8 4.1-7.2 8.8-16.5 10-21.1.7-2.7 1.7-7.5 2.5-12.5 1-7.7 2.1-15.8 1.2-15.7z"/><path id="XMLID_121_" class="st15" d="M142.7 92.1c5.7-2.4 13.2-3.7 15.4-3.2 2.2.5 4-.1 4-.1s-.7-2.8-5.2-3.3-13.1 1.9-16.6 4.5c0 0-4.9 1.4-7.2.6 0 .1 3.9 3.9 9.6 1.5z"/><path id="XMLID_122_" class="st15" d="M180.5 68.9c.5-3.4-2.2-12.6-7.7-17.2S154.5 46 154.4 46c5.9 1.8 11.7 4.9 12.4 7.1 1.3 4.2 6 12.1 6 12.1l-3.5-2.1 2 5.6h-1.8s.7 5.7 2.3 8.6c1.7 2.9 3.5 11.5 4 15.5s-.1 10.9.6 11.4c.1 0 .1 0 .2-.1.8-1 2.5-7.6 3.4-9.1.2-.3.6-.8 1.1-1.5l-.3-7.8c-.3-5.6-.7-14.5-.3-16.8z"/><path id="XMLID_124_" class="st15" d="M128 40.4v11.2c.8-.2 9.8-2.2 14-5.9 2-1.8 7.3-1.2 12.4.4 0 0 11.3-11.5 20.2-1.4 4.2 3.8 7.6 10.1 8.1 13.6.7 4.3 1.3 3.2 1.3 3.2s.8.8 2 2.2c-.4-2.9-.9-5.8-1.6-7.4 0 0 0-4.2-.8-5.6s-1.3-6.5-3.7-9.3c-2.3-2.7-4.9-4.8-4.7-6.5s-6.5-10.5-10.5-11.7c0 0-2.7-5.4-10.7-6.9-1 .5-1.8-4.6-7.9-3.5 0 0-4.1-3.9-18-3.9v31.5z"/><path id="XMLID_125_" d="M182.7 58.3c-.5-3.5-3.9-9.8-8.1-13.6-.1 0-9.2-2.9-15.4.3 0 0 9-1.8 14.7 4s9.7 10.1 8.4 24.3-1.2 17.9-1.2 17.9-.1-2.2-.3-5.2c0 2.5.1 5.2.3 7.8.3 5.8 1.1 11.2 2.6 14.4.6 1.3 1.2 2.5 1.7 3.8 2.2 5.3 3 10.2 1.1 15.6-.9 2.6-2.1 4.9-3.2 7.1-1.7 3.4-3.1 6.6-2.8 10.5.5 6.5 3.9 8 3.9 8-.9-4.6-.7-8.9-.1-12.7 1.2-6.7 3.9-12.1 4.9-15.3 1.7-5 .8-7.4-1.7-14.4-.4-1-.7-2.1-.9-3.3-.9-4.3-1-9.1-1-11.9v-1.5c-.1-1.1-.7-6.9 0-13 .9-6.9-1.5-14.9-1.5-14.9s5.2 5.7 4.4 10.5c-.8 4.8-2.9 22.7 1 32.6 1 2.5 2.1 4.8 3.2 6.7 3.5 6.2 4.5 8.9 3 15.6s-1.5 10.1-1.5 13.7c0 2-.7 4.8-1.3 8.1-.5 2.7-.9 5.7-.9 8.9.2 7.2 2.3 8 2.3 8-.9-5.3.2-10.7 1-15.2.5-2.5.9-4.7.8-6.5-.2-4.9.5-9.9 3.2-18s-3.7-17.9-7.2-23.5-.3-23.6 0-30.2c.2-4.5-3.8-10-6.3-13-1.1-1.3-2-2.2-2-2.2s-.5.9-1.1-3.4z" fill="#8a715a"/><path id="XMLID_126_" class="st13" d="M154.4 46s12.9 1 18.4 5.7c5.5 4.6 8.2 13.9 7.7 17.2-.3 2.2.1 11.1.4 16.9.2 3 .3 5.2.3 5.2s-.2-3.7 1.2-17.9-2.7-18.5-8.4-24.3-14.7-4-14.7-4c6.2-3.2 15.3-.3 15.4-.3-9-10-20.3 1.5-20.3 1.5z"/><path id="XMLID_128_" class="st13" d="M189.6 108.9c-.1 0-.1 0 0 0-3.9-9.9-1.8-27.9-1-32.6.8-4.8-4.4-10.5-4.4-10.5s2.3 8.1 1.5 14.9c-.8 6.2-.2 11.9 0 13v.2c0 .3 0 .5-.1.8v.5c0 2.4.8 5.2 1.6 7.7 1.1 3.4 2.4 6 2.4 6z"/><path id="XMLID_129_" class="st6" d="M113.5 216.3c.2 1.4.5 2.7.7 4.2 1.7 9.1-.7 9.1-3.7 11.3-1.8 1.3-6.6 4.3-10.1 6.4l26.3 16.2v2h1.3v-39.2l-14.5-.9z"/><path id="XMLID_130_" class="st3" d="M94.1 249.4c-6.4-5.1-27.1-13.6-27.1-13.6l9.7-5-.7-2.2c-1.3-.3-2.6-.8-3.8-1.4-1.6.7-3.2 1.3-4.9 1.8-4.5 1.2-10.5 1.6-16.9 1.3 3.7 2.8 7.5 5.4 11.4 7.8l.5-.3 8.6 5.3c8.3 4.2 17.1 7.4 26.3 9.7-.7-1.2-1.7-2.3-3.1-3.4z"/><path id="XMLID_131_" class="st17" d="M119.5 176.1l2 2.2-15.1-6.5-1.1-1.3-5.8-7-.5 2.4c-.5-.6-1.2-1.6-2.1-2.8-.3 2.2-.5 4.5-.8 6.8-.8 6.5 1.6 14.3 3.7 21.2 13 5.1 28.1 7.5 28.1 7.5V179c-4.2-.8-8.4-2.9-8.4-2.9z"/><path id="XMLID_132_" d="M128 207.3v-8.5s-15.1-2.4-28.1-7.5c.9 2.8 1.7 5.5 2.3 7.8l9.4 4s.6 5.9 1.8 13.2l14.6 1v-10z" fill="#643126"/><path id="XMLID_133_" class="st7" d="M111.7 203.1l-9.4-4c.2.8.4 1.5.5 2.2 1.5 8.1-2 10.1-5.9 12.9-3.9 2.9-19.3 14.7-19.3 14.7l-1.8-.3.7 2.2 6.4-3.3 17.4 10.7c3.5-2.1 8.3-5.1 10.1-6.4 3-2.2 5.4-2.2 3.7-11.3-.3-1.4-.5-2.8-.7-4.2-1.1-7.3-1.7-13.2-1.7-13.2z"/><path id="XMLID_134_" d="M96.9 214.2c3.9-2.9 7.4-4.8 5.9-12.9-.1-.7-.3-1.5-.5-2.2-.6-2.4-1.4-5-2.3-7.8-2.1-6.9-4.5-14.7-3.7-21.2.3-2.2.5-4.6.8-6.8-1-1.6-2.3-3.6-3.6-5.8-1.8 5-6.5 9.4-15.6 17.1-1.5 1.3-3 2.7-4.3 4.1 18.4 9.7 21.3 26.3 18.2 31.6-2.8 4.8-9.8 12.7-19.7 17 1.2.6 2.5 1.1 3.8 1.4.6.1 1.2.3 1.8.3 0-.1 15.4-11.9 19.2-14.8z" fill="#1f2426"/><path id="XMLID_135_" class="st9" d="M100.4 238.2L83 227.5l-6.4 3.3-9.7 5s20.8 8.5 27.1 13.6c1.4 1.1 2.4 2.3 3.1 3.4 2.1.5 4.2 1 6.3 1.4l-.7-4.6c-7.4-4.8-31.1-14-31.1-14l10.5-5.4 41.4 26.3c1 0 2.1.1 3.1.1v-2l-26.2-16.4z"/><path id="XMLID_136_" class="st9" d="M61.7 238c3 1.8 6 3.5 9.1 5l-8.6-5.3-.5.3z"/><path id="XMLID_137_" d="M82.2 230l-10.5 5.4s23.8 9.3 31.1 14l.7 4.6c6.5 1.3 13.3 2 20.1 2.3L82.2 230z" fill="#797a7a"/><path id="XMLID_138_" class="st12" d="M19.3 196.1c.5.9 1.1 1.7 1.6 2.5.3-.4.7-.9 1-1.3-.8-.4-1.7-.8-2.6-1.2z"/><path id="XMLID_139_" class="st12" d="M38.2 180.2c1.3-1 3-2.6 4.6-4.6-8.3 1.2-20.3 5.2-29.9 9 1.3 2.7 2.7 5.3 4.2 7.8 2 1.1 4.1 2.3 5.9 3.5 6.2-7.3 13.3-14.2 15.2-15.7z"/><path id="XMLID_140_" class="st12" d="M67.2 228.9c1.7-.5 3.3-1.1 4.9-1.8 9.9-4.3 16.9-12.2 19.7-17 3.2-5.3.2-21.9-18.2-31.6-1.7 1.8-3.2 3.7-4.5 5.5 8.3 2.5 14.3 9.9 14.3 18.6 0 10.8-9.2 19.5-20.5 19.5-3.3 0-6.5-.8-9.2-2.1.9 5 3.2 8.7 3.2 8.7-4.5-1.2-7-6.2-7-6.2.1 2.3-.1 4.5-.6 6.7.4.3.8.6 1.1.9 6.3.4 12.4.1 16.8-1.2z"/><path id="XMLID_141_" d="M79 202.7c0 8.5-7.2 15.3-16.1 15.3-3.6 0-6.9-1.1-9.6-3-.1 1.8.1 3.5.3 5.1 2.8 1.3 5.9 2.1 9.2 2.1 11.3 0 20.5-8.7 20.5-19.5 0-8.7-6-16.1-14.3-18.6-.9 1.2-1.7 2.5-2.4 3.7 7.1 1.6 12.4 7.7 12.4 14.9z" fill="#636465"/><path id="XMLID_142_" class="st9" d="M62.9 218c8.9 0 16.1-6.9 16.1-15.3 0-7.2-5.2-13.3-12.3-14.9-6.7 11.1-8.1 21.6-8.1 21.6l-1.3-4.6c-2.7 3.2-3.8 6.7-4 10.1 2.7 2 6 3.1 9.6 3.1z"/><path id="XMLID_143_" d="M23.1 196c-1.9-1.2-3.9-2.4-5.9-3.5.7 1.2 1.4 2.4 2.2 3.6l2.7 1.2c.2-.4.6-.9 1-1.3z" fill="#610d0f"/><path id="XMLID_144_" d="M49.8 222.6s2.5 5 7 6.2c0 0-2.3-3.7-3.2-8.7-.3-1.6-.4-3.3-.3-5.1.2-3.3 1.3-6.9 4-10.1l1.3 4.6s1.4-10.5 8.1-21.6c.7-1.2 1.6-2.5 2.4-3.7 1.3-1.9 2.8-3.7 4.5-5.5 1.3-1.4 2.7-2.8 4.3-4.1 9.1-7.7 13.8-12.1 15.6-17.1-4.1-7.2-8.8-16.5-10-21.1-.7-2.7-1.7-7.5-2.5-12.5-2.3-.5-4.6-1.2-6-2.3-.3-.3-.6-.5-.9-.8-.3 3.7-.7 8.8-1.4 13.7 1.7 3.4 3.1 6.6 2.8 10.5-.5 6.5-3.9 8-3.9 8 .9-4.6.7-8.9.1-12.7-.9 4.2-2 7.6-3.3 8.9-1.3 1.2-3.2 2.5-5.3 4 .5 2.7.9 5.7.9 8.9-.2 7.2-2.3 8-2.3 8 .9-5.3-.2-10.7-1-15.2-5 3.3-10.3 7.1-11.5 10.6-1.2 3.5-3.7 7.3-6.2 10.3-1.6 2-3.3 3.6-4.6 4.6-2 1.4-9.1 8.4-15.2 15.7-.4.5-.7.9-1.1 1.4-.3.4-.7.9-1 1.3 7.7 11.7 17.2 22.1 28.2 30.7.4-2.3.6-4.6.5-6.9z" fill="#534433"/><path id="XMLID_145_" class="st17" d="M70.4 94.8v-1 1z"/><path id="XMLID_146_" class="st17" d="M69.4 107.2c.9-4.3 1-9.1 1-11.9 0 2.4-.8 5.2-1.6 7.7.2 1.5.3 2.9.6 4.2z"/><path id="XMLID_147_" class="st17" d="M79.5 108.1c-.1-1.3-.1-2.6-.2-3.9-.8-1-2.5-7.6-3.4-9.1-.2-.3-.6-.8-1.1-1.5-.3 5.8-1.1 11.2-2.6 14.4-.6 1.3-1.2 2.5-1.7 3.8.9 3.4 1.1 6.5 3.5 8.9.3.3.6.5.9.8 1.4 1.1 3.7 1.8 6 2.3-1.2-7.7-2.3-15.8-1.4-15.7z"/><path id="XMLID_150_" class="st4" d="M101.6 46c-5.9 1.8-11.7 4.9-12.4 7.1-1.3 4.2-6 12.1-6 12.1l3.5-2.1-2 5.6h1.8s-.7 5.7-2.3 8.6c-1.7 2.9-3.5 11.5-4 15.5s.1 10.9-.6 11.4c-.1 0-.1 0-.2-.1.1 1.3.1 2.6.2 3.9 1.5.3 1.1 3.8 5.2 12.8s10.2 11 11.4 13.4 4.5 10.2 4.5 10.2 4.4-4.3 6.5-6.4c2.2-2.1 7.9-8.8 10.5-7.8s10.3.8 10.3.8V51.5s-9.7-2.1-14-5.9c-2-1.7-7.2-1.1-12.4.4zm14.1 44s4.9 1.4 7.2.6c0 0-3.9 3.8-9.5 1.4s-13.2-3.7-15.4-3.2c-2.2.5-4-.1-4-.1s.7-2.8 5.2-3.3c4.4-.3 13 2 16.5 4.6z"/><path id="XMLID_151_" class="st4" d="M109.5 141.1c-2.5 1.4-2.8 7.5-1.5 12 1.3 4.5 9.4 7.4 10.5 7.2s1.8-3.4 1.3-4.8-4.7-2.7-4.7-2.7c3.7-4.5 12.9-4 12.9-4v-12.1c-14.6-.1-16 3-18.5 4.4z"/><path id="XMLID_152_" class="st13" d="M99.1 166l.5-2.4 5.8 7 1.1 1.3 15.1 6.5-2-2.2s4.1 2.1 8.5 2.9v-30.2s-9.2-.5-12.9 4c0 0 4.2 1.3 4.7 2.7s-.2 4.6-1.3 4.8-9.2-2.7-10.5-7.2c-1.3-4.5-1-10.5 1.5-12 2.5-1.4 4-4.5 18.6-4.5v-5.6s-7.7.2-10.3-.8-8.4 5.7-10.5 7.8c-2.2 2.1-6.5 6.4-6.5 6.4s-3.3-7.8-4.5-10.2-7.4-4.5-11.4-13.4-3.6-12.5-5.2-12.8c-.9 0 .1 8 1.5 15.8.8 4.9 1.8 9.8 2.5 12.5 1.2 4.5 5.9 13.9 10 21.1 1.3 2.2 2.5 4.2 3.6 5.8.5 1.1 1.2 2.1 1.7 2.7z"/><path id="XMLID_153_" class="st13" d="M99.1 85.6c-4.5.5-5.2 3.3-5.2 3.3s1.8.6 4 .1 9.7.8 15.4 3.2 9.5-1.4 9.5-1.4c-2.3.8-7.2-.6-7.2-.6-3.4-2.8-12-5.1-16.5-4.6z"/><path id="XMLID_154_" class="st13" d="M73.3 58.3c.5-3.5 3.9-9.8 8.1-13.6 8.9-10.1 20.2 1.3 20.2 1.4 5.1-1.6 10.4-2.2 12.4-.4 4.4 3.8 14 5.9 14 5.9V8.9c-13.9 0-18 3.9-18 3.9-6-1.1-6.9 4-7.9 3.5-8 1.4-10.7 6.9-10.7 6.9-4 1.1-10.7 9.9-10.5 11.7s-2.3 3.8-4.7 6.5c-2.3 2.7-2.8 7.8-3.7 9.3s-.8 5.6-.8 5.6c-.7 1.7-1.2 4.5-1.6 7.4 1.1-1.3 2-2.2 2-2.2s.6 1.1 1.2-3.2z"/><path id="XMLID_155_" class="st13" d="M79.4 104.2c.1.1.2.2.2.1.7-.5.1-7.4.6-11.4s2.3-12.6 4-15.5c1.7-2.9 2.3-8.6 2.3-8.6h-1.8l2-5.6-3.5 2.1s4.7-8 6-12.1c.7-2.2 6.5-5.3 12.4-7.1 0 0-12.9 1-18.4 5.7-5.5 4.6-8.2 13.9-7.7 17.2.3 2.2-.1 11.1-.4 16.9 0 2.5-.1 5.2-.3 7.8.5.6.9 1.1 1.1 1.5 1 1.4 2.7 8 3.5 9z"/><path id="XMLID_156_" class="st15" d="M61.6 170s2.2-.8 2.3-8c.1-3.2-.4-6.2-.9-8.9-.6-3.3-1.3-6.1-1.3-8.1 0-3.7 0-7-1.5-13.7s-.5-9.4 3-15.6c1.1-1.9 2.2-4.2 3.2-6.7 3.9-9.9 1.8-27.8 1-32.6-.8-4.8 4.4-10.5 4.4-10.5s-2.3 8.1-1.5 14.9c.8 6.2.2 11.9 0 13v1.5c0 2.8-.1 7.6-1 11.9-.2 1.1-.5 2.2-.9 3.3-2.5 7-3.3 9.4-1.7 14.4 1.1 3.2 3.8 8.5 4.9 15.3.7 3.8.8 8.1-.1 12.7 0 0 3.3-1.4 3.9-8 .3-4-1.1-7.2-2.8-10.5-1.1-2.2-2.3-4.5-3.2-7.1-1.9-5.3-1-10.2 1.1-15.6.5-1.2 1.1-2.5 1.7-3.8 1.5-3.2 2.3-8.6 2.6-14.4l.3-7.8c-.2 3-.3 5.2-.3 5.2s.2-3.7-1.2-17.9 2.7-18.5 8.4-24.3 14.7-4 14.7-4c-6.2-3.2-15.3-.3-15.4-.3-4.2 3.8-7.6 10.1-8.1 13.6-.7 4.3-1.3 3.2-1.3 3.2s-.8.8-2 2.2c-2.5 3-6.5 8.5-6.3 13 .3 6.5 3.5 24.6 0 30.2-3.5 5.6-9.9 15.3-7.2 23.5s3.3 13.1 3.2 18c-.1 1.8.3 4 .8 6.5 1 4.7 2.1 10.1 1.2 15.4z"/><path id="XMLID_157_" class="st24" d="M75.5 68.9c-.5-3.4 2.2-12.6 7.7-17.2s18.3-5.7 18.4-5.7c0 0-11.3-11.5-20.2-1.4.1 0 9.2-2.9 15.4.3 0 0-9-1.8-14.7 4S72.4 59 73.7 73.3s1.2 17.9 1.2 17.9.1-2.2.3-5.2c.3-5.9.7-14.8.3-17.1z"/><path id="XMLID_158_" class="st24" d="M68.8 103.1c.8-2.5 1.6-5.3 1.6-7.7v-.5c0-.3 0-.6-.1-.8v-.2c.1-1.1.7-6.9 0-13C69.4 74 71.8 66 71.8 66s-5.2 5.7-4.4 10.5c.8 4.8 2.9 22.7-1 32.6 0-.2 1.3-2.8 2.4-6z"/></g></g></svg>