<svg xmlns="http://www.w3.org/2000/svg" width="256" height="256"><circle fill="#B1B3B5" cx="128" cy="128" r="128"/><path fill="#98B6C9" d="M182 142.2s-6.5 2.6-6.5 4.8c0 2.1.4 5 1.4 12l13-.6 5.3 9.3.3-.3c-.7-2-5.8-15.9-7.3-20.8-1.7-5.3-1.7-6.2-8.4-5.3-4.4.6-9.6 1.4-12.7 1.8-.1.2-.2.5-.2.7 3.8-.2 10.7-.7 15.1-1.6zm-3.7 27.1l-.6-4.7c.2 1.6.3 3.2.6 4.7-.1 0 0 0 0 0z"/><path fill="#101720" d="M178.2 169.2c-.2-1.4-.3-3-.5-4.6l-.8-5.6c-1-7-1.4-9.9-1.4-12 0-2.2 6.5-4.8 6.5-4.8-4.5.9-11.3 1.4-15.1 1.6-.2.7-.5 1.4-.7 2.1 0 .1 0 .1-.1.2 1.7 10.7 7 18.2 12.1 23.1z"/><path fill="#C08C76" d="M165.2 185.1c7.4-2.6 11.5-6.7 13.9-10.1l-.8-5.7-.1-.1c-5.1-4.9-10.4-12.5-12-23.2-3.1 9.5-12.7 19.5-12.7 19.5l-2.4 3.8-2.9 2.4-2.5 2.4h-3.8l-4.3 3-2.8.5-2.5 1.2c-2.5 1.2.5-1.7.5-1.7l-4.6 1.7v19.9c-.2.1 22.8-8.6 37-13.6zm9.8-91l-1 3.2s.2-2.8.1-6.2c-.4 5-.9 9.6-1.5 13.5-.2 1.5-.4 3-.5 4.4 1.1-5.3 2-11.7 2-11.7-.2 9.8-.7 17.2-1.4 23.1 5.1-2.1 5.6-3 9.9-10.9 5.1-9.6 2.8-15.8 2.8-20.8s2.5-6.7-1.5-8.4c-1.2-.5-3.1.1-5.1 1.1-1 2.9-2 4.8-2 4.8l-1.8 7.9z"/><path fill="#D7A990" d="M145.6 130.8c8.4 2.4 10.7 12.9 12.5 10.8s1.5-9.6 2.5-12.5c1-2.9 7.9-10.3 9.7-13.7.6-1.1 1.2-3.6 1.8-6.4.1-1.4.3-2.9.5-4.4.5-3.9 1.1-8.5 1.5-13.5-.1-4.8-.6-11-2.8-12.7-3.7-2.9-6.1-8.9-6.8-12.5-.7-3.5-2.4-15.3-6.8-14.7-4.4.6-10.9 5.1-15.6 6.7-4.8 1.6-4.7 1.9-14.1 1.9v69.8c6.6.2 9.2-1.2 17.6 1.2zm-15.2-41.6s4.5 2.4 9.1.6c4.6-1.8 12.9-6.9 18-4.5s6.1 5.1 6.1 5.1-11.7-1.4-17.4 0c-5.7 1.5-13.4 5-15.8-1.2zm11.7 57.1c0 7.7-9.2 9.8-9.2 9.8-.3 3.1 10.4 2.4 14 0 3.6-2.4 4.2-8.6 4.2-8.6s-.6-3.4-3.2-6.9c-2.5-3.6-19.9-2.2-19.9-2.2v11.3c8.1 0 14.1-3.4 14.1-3.4z"/><path fill="#6E5643" d="M128 59.9c9.4 0 9.3-.3 14.1-1.9 4.8-1.6 11.2-6.1 15.6-6.7 4.4-.6 6.1 11.2 6.8 14.7.7 3.5 3.1 9.6 6.8 12.5 2.2 1.7 2.7 7.8 2.8 12.7.1 3.4-.1 6.2-.1 6.2l1-3.2 1.7-8s1.1-1.8 2-4.8c.4-1.1.7-2.4 1-3.8 1-5.1-.7-9.9-.7-9.9s0-3.5-.7-5.4c-.7-1.9 0 0 0-4.2s3.4-3.2 3.4-3.2-.3-4.5-1.7-8.9c-1.4-4.5-1.7-5.4-1.7-5.4l1.7-4.2s-2.7-2.6-4.4-3.7c-1.7-1.1-4.1-4-4.4-4.9-.3-1 1.7-1.6 1.7-1.6l-7.1-6.1-6.5-4.2c-6.5-4.2 0 0-2.4-2.6s-7.1-3.8-8.5-3.8h-3.1c-1 0-2.7-1.1-2.7-1.1l-1-.5c-1-.5-3.4.5-3.4.5v-3H128v54.5z"/><path fill="#816957" d="M172.2 109.1c-.6 2.8-1.2 5.2-1.8 6.4-1.8 3.4-8.7 10.8-9.7 13.7-1 2.9-.8 10.3-2.5 12.5s-4.1-8.4-12.5-10.8c-8.4-2.4-11-1-17.6-1v8.6s17.4-1.4 19.9 2.2 3.2 6.9 3.2 6.9-.6 6.2-4.2 8.6c-3.6 2.4-14.3 3.1-14 0 0 0 9.2-2.1 9.2-9.8 0 0-5.9 3.4-14.1 3.4V179l4.6-1.7s-3.1 2.9-.5 1.7l2.5-1.2 2.8-.5 4.3-3h3.8l2.5-2.4 2.9-2.4 2.4-3.8s9.6-9.9 12.7-19.5c0-.1 0-.1.1-.2.2-.7.5-1.4.7-2.1.1-.2.2-.5.2-.7 1.9-5.5 4.1-10.8 5.5-22.7.7-5.8 1.2-13.2 1.4-23.1.2-.1-.7 6.3-1.8 11.7z"/><path fill="#6E5643" d="M163.6 90.4s-1-2.7-6.1-5.1-13.4 2.7-18 4.5c-4.6 1.8-9.1-.6-9.1-.6 2.4 6.2 10.1 2.7 15.8 1.3 5.8-1.5 17.4-.1 17.4-.1z"/><path fill="#2F3646" d="M179.1 175c-2.3 3.4-6.5 7.5-13.9 10.1-14.3 5-37.2 13.7-37.2 13.7v8.6s2.5-.4 6.1-1v-.2l2.9-.6-.1.4c8.7-1.6 21.3-4 26.1-6 7.6-3 14.5-12.1 14.5-12.1l3-1v-.1l-1.4-11.8z"/><path fill="#59606F" d="M163.1 199.8c-4.8 1.9-17.4 4.4-26.1 6l-2.8 20.5h-1l.9-20c-3.6.6-6.1 1-6.1 1v36.8l11.5-7.7 3.8-31.1 29.4-5.3s3.3-6.2 7.8-13.4l-3 1c0 .1-6.8 9.2-14.4 12.2z"/><path fill="#30343F" d="M133.2 226.3h.9l2.8-20.5.1-.4-2.9.6v.3z"/><path fill="#98B6C9" d="M176.9 159l.8 5.6.6 4.7.8 5.7 1.6 11.6c4.2-6.7 9.6-14.3 14.6-18.9l-5.3-9.3-13.1.6z"/><path fill="#66748C" d="M244.1 174.6c-.2-1.7-1-2.6-5.7-3.2-4.7-.6-3.3-.2-17.3-1.4-14-1.3-25.3-2.7-25.3-2.7-.1 0-.1.1-.2.2l-.3.3c-5 4.6-10.4 12.2-14.6 18.9v.1c-4.6 7.3-7.8 13.4-7.8 13.4l-29.4 5.3-3.8 31.1-11.5 7.7v11.8c11.5 0 22.7-1.5 33.4-4.4l6.7-3.5c-1.6-3.6-2.4-7.5-2.4-11.6 0-6 1.8-11.5 4.9-16.2l-3.7-1.8-1.3-8.6 1.3-4.2 1.1 9.6 4.4 2.6c5.5-6.6 13.9-10.8 23.3-10.8 6.8 0 13.1 2.2 18.1 6l10.2-4.8-5.6-7s15.6-31.9 23.2-27c0 0-7.7 1.9-14 13.4-6.4 11.5-7.5 13.7-7.5 13.7l3 4.2s16.6-33.8 23.2-28.7c0 0-9.3 7-14.6 16.3-5.3 9.3-7.5 13.6-7.5 13.6l1.3 1.9-1 1.8-9.1 3.8c.8.6 1.5 1.3 2.2 2l3.9-.5c11.1-11.8 20-25.7 26-41h-.8c-2.2-.2-2.8-.3-2.8-.3z"/><path fill="#59606F" d="M167.3 249.8c.4-.1.9-.3 1.3-.4 0-.1-.1-.2-.1-.2l-1.2.6z"/><path fill="#2F3646" d="M224.3 210.3l1-1.8-1.3-1.9s2.2-4.3 7.5-13.6 14.6-16.3 14.6-16.3c-6.5-5.1-23.2 28.7-23.2 28.7l-3-4.2s1.1-2.2 7.5-13.7 14-13.4 14-13.4c-7.5-4.9-23.2 27-23.2 27l5.6 7-10.2 4.8c.5.4 1 .7 1.4 1.1l9.3-3.7zm-56.3 5l-1.1-9.6-1.3 4.2 1.3 8.6 3.7 1.8c.6-.9 1.2-1.7 1.8-2.5l-4.4-2.5zm51 2.7c.8-.8 1.5-1.5 2.2-2.3l-3.9.5c.6.5 1.2 1.1 1.7 1.8zm-51 30.1l-6.7 3.5c2-.5 4-1.1 6-1.8l1.2-.7c-.1-.3-.3-.7-.5-1z"/><path fill="#2F3646" d="M217.4 216.1c-.7-.7-1.4-1.4-2.2-2-.5-.4-.9-.8-1.4-1.1-5-3.7-11.3-6-18.1-6-9.4 0-17.8 4.2-23.3 10.8-.7.8-1.3 1.6-1.8 2.5-3.1 4.6-4.9 10.2-4.9 16.2 0 4.1.9 8 2.4 11.6.2.4.3.7.5 1.1 0 .1.1.2.1.2l3.3-1.2c-1.8-3.5-2.9-7.5-2.9-11.8 0-14.4 11.9-26 26.6-26 8.5 0 16 3.9 20.9 9.9.8-.8 1.7-1.6 2.5-2.4-.6-.6-1.2-1.2-1.7-1.8z"/><path fill="#0D1621" d="M195.7 210.5c-14.7 0-26.6 11.6-26.6 26 0 4.2 1 8.2 2.9 11.8 16.8-6.1 31.9-15.7 44.6-27.8-4.9-6.1-12.5-10-20.9-10z"/><path fill="#768D9C" d="M78.3 164.6l-.6 4.7.1-.1c.2-1.4.3-3 .5-4.6zm-12.2-6.2l13 .6c1-7 1.4-9.9 1.4-12 0-2.2-6.5-4.8-6.5-4.8 4.5.9 11.3 1.4 15.1 1.6-.1-.2-.2-.5-.2-.7-3-.4-8.2-1.2-12.7-1.8-6.7-1-6.7 0-8.4 5.3-1.6 4.9-6.6 18.8-7.3 20.8l.3.3 5.3-9.3z"/><path fill="#070F18" d="M78.3 164.6c-.2 1.6-.4 3.2-.5 4.6 5.1-4.9 10.4-12.5 12-23.2 0-.1 0-.1-.1-.2-.2-.7-.5-1.4-.7-2.1-3.7-.2-10.6-.7-15.1-1.6 0 0 6.5 2.6 6.5 4.8 0 2.1-.4 5-1.4 12l-.7 5.7z"/><path fill="#9C7360" d="M77.8 169.2c0 .1-.1.1 0 0l-.9 5.8c2.3 3.4 6.5 7.5 13.9 10.1 14.3 5 37.2 13.7 37.2 13.7v-19.9l-4.6-1.7s3.1 2.9.5 1.7l-2.5-1.2-2.8-.5-4.3-3h-3.8l-2.5-2.4-2.9-2.4-2.4-3.8s-9.6-9.9-12.7-19.5c-1.8 10.7-7.1 18.2-12.2 23.1zm6-60.1c-.1-1.4-.3-2.9-.5-4.4-.5-3.9-1.1-8.5-1.5-13.5-.1 3.4.1 6.2.1 6.2l-1-3.2-1.7-8s-1.1-1.8-2-4.8c-2-1.1-3.9-1.6-5.1-1.1-4.1 1.7-1.5 3.4-1.5 8.4s-2.3 11.3 2.8 20.8c4.2 8 4.8 8.8 9.9 10.9-.7-5.8-1.2-13.2-1.4-23.1-.1 0 .8 6.4 1.9 11.8z"/><path fill="#C08C76" d="M108.1 140.6c-2.5 3.6-3.2 6.9-3.2 6.9s.6 6.2 4.2 8.6c3.6 2.4 14.3 3.1 14 0 0 0-9.2-2.1-9.2-9.8 0 0 5.9 3.4 14.1 3.4v-11.3s-17.4-1.4-19.9 2.2zm5.8-82.6c-4.8-1.6-11.2-6.1-15.6-6.7-4.4-.6-6.1 11.2-6.8 14.7-.7 3.5-3.1 9.6-6.8 12.5-2.2 1.7-2.7 7.8-2.8 12.7.4 5 .9 9.6 1.5 13.5.2 1.5.4 3 .5 4.4.6 2.8 1.2 5.2 1.8 6.4 1.8 3.4 8.7 10.8 9.7 13.7 1 2.9.8 10.3 2.5 12.5s4.1-8.4 12.5-10.8c8.4-2.4 11-1 17.6-1v-70c-9.4 0-9.3-.3-14.1-1.9zm6.7 34.7c.1.1.2.3.3.4.2.4.4.7.4 1.1v.1c.3 2.1-.6 5-2.1 7.6-.2.3-.4.6-.6 1-.9 1.5-2.1 2.8-3.3 3.8-.2.2-.4.4-.6.5-.5.4-1 .7-1.5.9-2.9.7-5.6.8-8.1.5-2.1 3.3-6.5 8.6-8.9 11.4-.5.7-1.1 1.3-1.7 1.9 0 0 .7-.8 1.7-1.9 3.2-4 5.4-8.5 6.5-11.8-.3-.1-.6-.1-.9-.2-.3-.1-.5-.1-.8-.2-1-.3-2-.6-2.9-1-.4-.2-.7-.3-1-.5-2.4-1.2-4.1-2.5-4.8-3.2-.1-.2-.3-.4-.5-.6-.2-.3-.4-.6-.7-1-2.2-3.7-5.4-11.2.5-12.5.5-.1 1-.2 1.6-.3.9-1 2.4-2.3 5-3.5.4-.2.8-.3 1.3-.4V75c.7 2.3 1.3 6.4 1.7 9.6 5-.1 11.3 3.6 15.1 5.1 4.6 1.8 9.1-.6 9.1-.6-.8 2.6-2.6 3.5-4.8 3.6z"/><path fill="#5F4A39" d="M81 94.1l1 3.2s-.2-2.8-.1-6.2c.1-4.8.6-11 2.8-12.7 3.7-2.9 6.1-8.9 6.8-12.5.7-3.5 2.4-15.3 6.8-14.7 4.4.6 10.9 5.1 15.6 6.7 4.8 1.6 4.7 1.9 14.1 1.9V5.3h-10.3v3s-2.4-1-3.4-.5l-1 .5s-1.7 1.1-2.7 1.1h-3.1c-1.4 0-6.1 1.3-8.5 3.8s4.1-1.6-2.4 2.6L90.2 20 83 26.1s2 .6 1.7 1.6c-.3 1-2.7 3.8-4.4 4.9-1.7 1.1-4.4 3.7-4.4 3.7l1.7 4.2s-.3 1-1.7 5.4c-1.4 4.5-1.7 8.9-1.7 8.9s3.4-1 3.4 3.2.7 2.2 0 4.2c-.7 1.9-.7 5.4-.7 5.4s-1.7 4.8-.7 9.9c.3 1.4.6 2.7 1 3.8 1 2.9 2 4.8 2 4.8l1.8 8z"/><path fill="#6E5643" d="M89.7 145.8c0 .1 0 .1.1.2 3.1 9.5 12.7 19.5 12.7 19.5l2.4 3.8 2.9 2.4 2.5 2.4h3.8l4.3 3 2.8.5 2.5 1.2c2.5 1.2-.5-1.7-.5-1.7l4.6 1.7v-29.2c-8.1 0-14.1-3.4-14.1-3.4 0 7.7 9.2 9.8 9.2 9.8.3 3.1-10.4 2.4-14 0-3.6-2.4-4.2-8.6-4.2-8.6s.6-3.4 3.2-6.9c2.5-3.6 19.9-2.2 19.9-2.2v-8.6c-6.6 0-9.2-1.4-17.6 1-8.4 2.4-10.7 12.9-12.5 10.8s-1.5-9.6-2.5-12.5c-1-2.9-7.9-10.3-9.7-13.7-.6-1.1-1.2-3.6-1.8-6.4-1.1-5.3-2-11.7-2-11.7.2 9.8.7 17.2 1.4 23.1 1.4 11.9 3.6 17.2 5.5 22.7.1.2.2.5.2.7.5.8.7 1.4.9 2.1z"/><path fill="#5F4A39" d="M116.5 89.8c-3.8-1.4-10.1-5.2-15.1-5.1.2 1.5.3 2.8.4 3.6 7.5.1 16.1 1.2 18.7 4.4 2.2-.1 4-1 5-3.6.1.1-4.4 2.5-9 .7zm-16.8-4.9c-.4.1-.9.2-1.3.4-2.6 1.2-4.1 2.5-5 3.5 1.7-.2 3.9-.4 6.2-.4v-3.5z"/><path fill="#222937" d="M92.9 199.8c4.8 1.9 17.4 4.4 26.1 6l-.1-.4 2.9.6v.2c3.6.6 6.1 1 6.1 1v-8.6s-23-8.6-37.2-13.7c-7.4-2.6-11.5-6.7-13.9-10.1l-1.6 11.6v.1l3 1c.3.2 7.1 9.3 14.7 12.3z"/><path fill="#4B515E" d="M128 207.3s-2.5-.4-6.1-1l.9 20h-1l-2.8-20.5c-8.7-1.6-21.3-4-26.1-6-7.6-3-14.5-12.1-14.5-12.1l-3-1c4.6 7.3 7.8 13.4 7.8 13.4l29.4 5.3 3.8 31.1 11.5 7.7v-36.9z"/><path fill="#29303F" d="M119 205.4l.1.4 2.8 20.5h.9l-.9-20v-.3z"/><path fill="#768D9C" d="M76.9 175l.8-5.7.6-4.7.8-5.6-13-.6-5.3 9.3c5 4.6 10.4 12.2 14.6 18.9l1.5-11.6z"/><path fill="#5D6A80" d="M128 244.2l-11.5-7.7-3.8-31.1-29.4-5.3s-3.3-6.2-7.8-13.4v-.1c-4.2-6.7-9.6-14.3-14.6-18.9l-.3-.3c-.1 0-.1-.1-.2-.2 0 0-11.3 1.4-25.3 2.7-14 1.3-12.6.9-17.3 1.4-4.7.6-5.6 1.5-5.7 3.2 0 0-.6.1-2.3 0H9c6 15.3 14.9 29.2 26 41l3.9.5c.7-.7 1.4-1.4 2.2-2l-9.1-3.8-1-1.8 1.3-1.9s-2.2-4.3-7.5-13.6-14.6-16.3-14.6-16.3c6.5-5.1 23.2 28.7 23.2 28.7l3-4.2s-1.1-2.2-7.5-13.7-14-13.4-14-13.4c7.5-4.9 23.2 27 23.2 27l-5.6 7 10.2 4.8c5-3.7 11.3-6 18.1-6 9.4 0 17.8 4.2 23.3 10.8l4.4-2.6 1.1-9.6 1.3 4.2-1.3 8.6-3.7 1.8c3.1 4.6 4.9 10.2 4.9 16.2 0 4.1-.9 8-2.4 11.6l6.7 3.5c10.6 2.9 21.8 4.4 33.4 4.4v-11.5z"/><path fill="#4B515E" d="M87.3 249.4c.4.1.9.3 1.3.4l-1.2-.7c0 .1 0 .2-.1.3z"/><path fill="#29303F" d="M38.6 216.1l-3.9-.5c.7.8 1.5 1.6 2.2 2.3.6-.6 1.2-1.2 1.7-1.8zm50.6 2.4l1.3-8.6-1.3-4.2-1.1 9.6-4.4 2.6c.7.8 1.3 1.6 1.8 2.5l3.7-1.9zm-1.7 30.7l1.2.7 6 1.8-6.7-3.5c-.2.2-.4.6-.5 1zM32 208.3l5.6-7s-15.6-31.9-23.2-27c0 0 7.7 1.9 14 13.4 6.4 11.5 7.5 13.7 7.5 13.7l-3 4.2s-16.6-33.8-23.2-28.7c0 0 9.3 7 14.6 16.3 5.3 9.3 7.5 13.6 7.5 13.6l-1.3 1.9 1 1.8 9.1 3.8c.5-.4.9-.8 1.4-1.1l-10-4.9z"/><path fill="#29303F" d="M88 248.1c1.6-3.6 2.4-7.5 2.4-11.6 0-6-1.8-11.5-4.9-16.2-.6-.9-1.2-1.7-1.8-2.5-5.5-6.6-13.9-10.8-23.3-10.8-6.8 0-13.1 2.2-18.1 6-.5.4-1 .7-1.4 1.1-.8.6-1.5 1.3-2.2 2-.6.6-1.1 1.2-1.7 1.8.8.8 1.6 1.6 2.5 2.4 4.9-6.1 12.4-9.9 20.9-9.9 14.7 0 26.6 11.6 26.6 26 0 4.2-1 8.2-2.9 11.8l3.3 1.2c0-.1.1-.2.1-.2.1-.4.3-.8.5-1.1z"/><path fill="#010815" d="M86.9 236.5c0-14.4-11.9-26-26.6-26-8.5 0-16 3.9-20.9 9.9 12.7 12.1 27.8 21.7 44.6 27.8 1.9-3.5 2.9-7.5 2.9-11.7z"/><path fill="#8C5B41" d="M96.3 120.2c2.4-2.8 6.9-8.2 8.9-11.4-.9-.1-1.7-.2-2.5-.4-1.1 3.3-3.2 7.8-6.4 11.8zm0 0c-1 1.2-1.7 1.9-1.7 1.9.6-.6 1.1-1.2 1.7-1.9zm5.5-31.9c-.1-.9-.2-2.2-.4-3.6-.4-3.2-1-7.3-1.7-9.6v13.3c.7-.1 1.4-.1 2.1-.1z"/><path fill="#26201B" d="M101.8 88.3h-2.1c-2.4 0-4.5.2-6.2.4-.6.1-1.1.2-1.6.3-5.9 1.3-2.7 8.8-.5 12.5.1-.8.1-1.7.1-2.6 0-.4-.1-.9-.2-1.2-.1-.4-.3-.8-.5-1.3-.3-.9-.4-1.7-.5-2.4-.2-1.4-.1-2.4-.1-2.4s.2.9.6 2.3c.2.7.4 1.4.8 2.2.1.4.4.7.6 1.2.2.5.2 1 .3 1.5.1 1.3-.1 2.6-.4 3.7.2.3.4.5.5.6.6.8 2.3 2.1 4.8 3.2-.4-1.7-1-3.7-2-5.5-.3-.6-.6-1.1-1-1.6-.3-.5-.7-1.1-1-1.6-.6-1.1-1-2.2-1.3-3.2-.2-1-.2-1.8-.2-2.4 0-.6.1-.9.1-.9s.1 1.3.9 3.1c.4.9.9 1.9 1.6 2.8.3.5.7.9 1.1 1.5.4.5.8 1.1 1.1 1.7 1.2 2.2 1.7 4.7 1.8 6.6.9.4 1.8.7 2.9 1v-.2c.1-1.1 0-2.3-.4-3.6-.4-1.3-1-2.6-1.9-3.7-.4-.6-.8-1.1-1.3-1.7-.5-.5-1-1.2-1.3-1.9-.7-1.3-1.1-2.7-1.1-3.9-.1-2.4.5-3.8.5-3.8v1c0 .7.1 1.6.3 2.6.2 1.1.7 2.2 1.4 3.3.4.6.8 1 1.3 1.6.5.5 1 1.2 1.5 1.8.9 1.3 1.6 2.8 1.9 4.2.3 1.5.2 2.9 0 4 0 .1-.1.2-.1.3.3.1.6.1.9.2.8.2 1.6.3 2.5.4 2.5.3 5.2.2 8.1-.5.5-.2 1-.6 1.5-.9-1.1-.9-2.6-1.8-4.2-2.7-.8-.4-1.7-.8-2.5-1.2-.8-.4-1.8-.7-2.8-1.1-1-.4-1.9-.9-2.8-1.5-.9-.6-1.6-1.3-2.3-2-1.3-1.5-2.1-3.2-2.6-4.6-.5-1.5-.7-2.7-.7-3.6-.1-.9 0-1.4 0-1.4s.1.5.3 1.3c.2.8.6 2 1.2 3.4.6 1.3 1.5 2.8 2.8 4.1.6.6 1.3 1.2 2.1 1.7s1.6 1 2.5 1.3c.9.4 1.9.7 2.8 1.1.9.4 1.8.9 2.6 1.4 1.7 1 3 2.2 4.1 3.2 1.2-1 2.3-2.4 3.3-3.8-.5-.9-1.1-1.8-2-2.7-1-1-2.1-1.9-3.4-2.6-1.3-.8-2.6-1.3-4-1.9-1.4-.6-2.6-1.7-3.2-2.7-.7-1-.9-2-1-2.7-.1-.7-.1-1.1-.1-1.1s.1.4.3 1c.2.6.7 1.5 1.4 2.3.7.8 1.8 1.6 3.1 2 .6.3 1.4.4 2.1.8.7.3 1.5.6 2.2 1 .7.4 1.4.9 2 1.4.6.5 1.2 1.1 1.7 1.7.7.8 1.2 1.7 1.6 2.6 1.5-2.6 2.4-5.5 2.1-7.6-.3.2-.5.4-.9.6-.4.2-.8.4-1.2.5-1.8.6-3.6.2-4.8-.3-1.2-.5-1.8-1.2-1.8-1.2s.8.2 2 .4 2.7.2 4.1-.2c.7-.2 1.3-.6 2-.9l.1-.1c-.1-.1-.2-.3-.3-.4-3.1-2.9-11.7-4.1-19.2-4.2z"/><path fill="#0E0D0C" d="M92 97.4c-.2-.5-.4-.8-.6-1.2-.3-.8-.6-1.5-.8-2.2-.4-1.4-.6-2.3-.6-2.3s-.1.9.1 2.4c.1.7.2 1.5.5 2.4.1.5.4.9.5 1.3.1.3.2.8.2 1.2 0 .9 0 1.7-.1 2.6.2.4.5.7.7 1 .2-1.1.4-2.3.4-3.7 0-.5-.1-.9-.3-1.5zm3.4 1.2c-.4-.6-.8-1-1.1-1.5-.7-1-1.2-2-1.6-2.8-.8-1.8-.9-3.1-.9-3.1s-.1.3-.1.9c0 .6 0 1.4.2 2.4s.6 2.1 1.3 3.2c.3.5.7 1.1 1 1.6.4.6.7 1 1 1.6 1 1.8 1.6 3.8 2 5.5.3.2.7.3 1 .5 0-2-.6-4.4-1.8-6.6-.2-.6-.6-1.2-1-1.7zm6.6 5.2c-.3-1.5-1-2.9-1.9-4.2-.4-.6-1-1.3-1.5-1.8-.5-.6-.9-1-1.3-1.6-.7-1.1-1.1-2.3-1.4-3.3-.2-1.1-.3-2-.3-2.6v-1s-.6 1.3-.5 3.7c.1 1.2.4 2.6 1.1 3.9.4.6.9 1.3 1.3 1.9.5.6.9 1.1 1.3 1.7.8 1.2 1.5 2.4 1.9 3.7.4 1.3.5 2.5.4 3.6v.2c.2.1.5.1.8.2 0-.1.1-.2.1-.3.2-1.2.3-2.6 0-4.1z"/><path fill="#0E0D0C" d="M111.2 103.5c-.8-.5-1.7-1-2.6-1.4-.9-.5-1.9-.7-2.8-1.1-.9-.3-1.7-.8-2.5-1.3s-1.5-1.1-2.1-1.7c-1.2-1.3-2.2-2.7-2.8-4.1-.6-1.3-1-2.5-1.2-3.4-.2-.8-.3-1.3-.3-1.3v1.4c.1.9.2 2.2.7 3.6.5 1.4 1.3 3.1 2.6 4.6.7.7 1.4 1.4 2.3 2 .9.6 1.8 1.1 2.8 1.5.9.4 1.9.7 2.8 1.1.9.4 1.7.8 2.5 1.2 1.6.9 3 1.7 4.2 2.7.2-.2.4-.3.6-.5-1.1-1.1-2.5-2.3-4.2-3.3zm4.8-5.8c-.6-.5-1.3-1-2-1.4-.7-.4-1.4-.7-2.2-1-.7-.3-1.5-.5-2.1-.8-1.3-.5-2.3-1.2-3.1-2-.7-.8-1.2-1.7-1.4-2.3-.2-.6-.3-1-.3-1s0 .4.1 1.1c.1.7.4 1.7 1 2.7.7 1 1.8 2.1 3.2 2.7 1.4.6 2.8 1.1 4 1.9 1.3.7 2.5 1.6 3.4 2.6.8.9 1.5 1.8 2 2.7.2-.3.4-.6.6-1-.4-.8-.9-1.7-1.6-2.6-.4-.5-.9-1.1-1.6-1.6zm2.8-3.6c-1.4.5-2.9.4-4.1.2-1.2-.1-2-.4-2-.4s.6.6 1.8 1.2c1.2.5 3 .9 4.8.3.4-.1.8-.3 1.2-.5l.9-.6v-.1c-.1-.4-.2-.8-.4-1.1l-.1.1c-.8.4-1.4.8-2.1.9z"/></svg>