<svg xmlns="http://www.w3.org/2000/svg" width="256" height="256"><circle fill="#B1B3B5" cx="128" cy="128" r="128"/><path fill="#929DA5" d="M100.6 167.5c-3.3.3-3.5 1.1-3.5 1.1s1.3 2 3.6 5c-.1-2.1-.1-4.1-.1-6.1z"/><path fill="#B2C6D5" d="M113.7 199.8c-4.7 4.2-13.2 13.6-16.7 27.7l-2.4.9c1.3 7.8 2.8 16.1 4.4 24.4 5.2 1.2 10.4 2.1 15.8 2.6l4.6-36.8c-2.8-5.9-5.1-16-5.7-18.8z"/><path fill="#AD4725" d="M119.5 218.6l-4.6 36.8c4.3.4 8.7.7 13.1.7v-35.2c-4.9-.1-8.5-2.3-8.5-2.3z"/><path fill="#B17D6B" d="M100.6 173.7c4.8 6.4 13.7 17.6 23 25l4.4 1v-23.4s-18.4 2.3-27.6-14.3c.1 1.6.1 3.5.2 5.5v6.2zm-21.1-70.5c-2.2-.4-1.4 4.7-1.4 4.7-.1-.2-.3-.4-.4-.7.7 6.6 1.2 14.5 3.6 17.4 2.3 2.7 3.2 4.1 5.3 4.3-.6-4.9-1.1-10.9-1.4-17l-5.7-8.7z"/><path fill="#CC9985" d="M108.9 122.3c-6.9.2-15.1-.1-17.4-4.5-1-1.9-1.5-5.2-1.5-8.5-.1 3.3.5 6.6 1.5 8.5 2.3 4.4 10.5 4.7 17.4 4.5 6.9-.2 8.7-5.6 11.7-10.3 1.7-2.6 2.5-5 2.5-7.1 0 2.2-.9 4.5-2.5 7.1-3 4.7-4.8 10.1-11.7 10.3zm12.7-24.8c1.3.7 2.6 1.9 3.1 3.6.4.8.7.7 3.3.7v-5.7h-5.7c-.1.5-.4 1-.7 1.4z"/><path fill="#CC9985" d="M103.3 150.1s-2.8 8.6 0 12.6 9.2 8.6 9.2 8.6 4.2-7.4 10.4-10.6l-3-7.2s3.8 2 8.1 2v-11s-19.3-1-19.5 6.4c0 0-5.6-7.6 1.4-10.2 7-2.6 18.1-2.6 18.1-2.6v-33s-2.3-.8-3.7 2.6-4.8 13.2-10.5 15.3c-5.6 2.1-17.9 1.9-21.5-1.7s-3.7-6.7-4.3-10.5c-.4-2.8-1.4-4.2-2.9-5.2.1 3.9.3 6.7.3 6.7l-.2-.4c.3 6.1.7 12.1 1.4 17 .4 3.3.9 6 1.5 7.9 2.4 7.8 6.6 15.3 10.4 21.2 0 0 0-3.9 4.8-7.9zm-14-49.7c1.8-1.9 3.2-5.3 11-5.9-2.7-.3-5.4-.2-7.7.8 0 0-.4-3 3.2-4.6 3.6-1.6 6.2-3 13.8 0s12.6 4.8 12.8 1.2c0 0 .3 1.1.2 2.5h5.3v-47c-10.9 0-18.7 2.6-18.7 2.6s-9.6 2.6-12.2 5.2-3.2 7.8-4.8 12.4-5.6 7.2-6.8 16.6c-.6 4.6-.6 11.5-.5 17.3 1.5.2 3.3.1 4.4-1.1z"/><path fill="#3D2E23" d="M128 176.3v-20.8c-4.3 0-8.1-2-8.1-2l3 7.2c-6.2 3.2-10.4 10.6-10.4 10.6s-6.4-4.6-9.2-8.6c-2.8-4 0-12.6 0-12.6-4.8 4-4.8 8-4.8 8 .6 1.4 1.2 2.8 1.9 4 9.2 16.5 27.6 14.2 27.6 14.2zm-18.1-35.6c-7 2.6-1.4 10.2-1.4 10.2.2-7.4 19.5-6.4 19.5-6.4v-6.4s-11.1 0-18.1 2.6z"/><path fill="#4C3A2E" d="M117.7 96.1s2 .3 3.9 1.4c.4-.4.6-.9.8-1.4h-4.7zm4.7-4.3c-.2 3.6-5.2 1.8-12.8-1.2s-10.2-1.6-13.8 0c-3.6 1.6-3.2 4.6-3.2 4.6 2.3-.9 5-1 7.7-.8.7-.1 1.5-.1 2.4-.1 6.2-.1 14.6-.1 20 0 0-1.3-.3-2.5-.3-2.5z"/><path fill="#3D2E23" d="M79.5 103.2l5.8 8.7.2.4s-.2-2.7-.3-6.7c-.5-.4-1.2-.7-1.9-1 0 0-2.5-1.4 0-3.4 0 0 .7.2 1.7.3-.1-5.8-.1-12.7.5-17.3 1.2-9.4 5.2-12 6.8-16.6s2.2-9.8 4.8-12.4 12.2-5.2 12.2-5.2 7.8-2.6 18.7-2.6V9.6s-16.3-1-27.1 4.6-10 11.4-19.6 14.8-16.4 13.8-14.2 21c2.2 7.2 2 11.4 3.4 19.2 1.4 7.8 2.4 8.2 1.2 15.4-1.2 7.2 4.4 7.6 5.2 11 .8 3.3-1.7 6.9.8 11.6.1.2.2.4.4.7 0 0-.8-5.1 1.4-4.7z"/><path fill="#121112" d="M124.7 101.1c-.6-1.7-1.8-2.9-3.1-3.6-1.9-1.1-3.9-1.4-3.9-1.4h10.4v-1.8h-5.3c-5.4 0-13.8-.1-20 0-.9 0-1.6.1-2.4.1-7.8.7-9.2 4-11 5.9-1.1 1.2-2.9 1.3-4.3 1.1-1-.1-1.7-.3-1.7-.3-2.5 2.1 0 3.4 0 3.4.7.3 1.3.6 1.9 1 1.6 1 2.5 2.4 2.9 5.2.6 3.7.7 6.9 4.3 10.5s15.8 3.7 21.5 1.7c5.6-2.1 9.1-11.8 10.5-15.3s3.7-2.6 3.7-2.6v-3.3c-2.8.1-3.1.2-3.5-.6zm-4.1 10.9c-2.9 4.7-4.8 10.1-11.7 10.3-6.9.2-15.1-.1-17.4-4.5-1-1.9-1.5-5.2-1.5-8.5.1-4.2 1.1-8.4 3.1-9.6 4.2-2.3 8.7-3.4 12.6-3.4s13.5.2 15.9 3.8c1 1.6 1.5 3.2 1.5 4.8 0 2.1-.9 4.5-2.5 7.1z"/><path fill="#CC9985" d="M119.7 98.5c-.2 0-.3.1-.5.1-2.1.3-5.8-1-10.1-2.2-1.3-.1-2.5-.1-3.4-.1-3.8 0-8.4 1.1-12.6 3.4-2.1 1.1-3 5.3-3.1 9.5-.1 3.3.5 6.6 1.5 8.5 2.3 4.4 10.6 4.7 17.4 4.5 6.9-.2 8.7-5.6 11.7-10.3 1.6-2.6 2.5-4.9 2.5-7.1 0-1.7-.5-3.3-1.5-4.8-.4-.5-1.1-1.1-1.9-1.5z"/><path opacity=".8" fill="#BF5A28" d="M119.7 98.5c-.2 0-.3.1-.5.1-2.1.3-5.8-1-10.1-2.2-1.3-.1-2.5-.1-3.4-.1-3.8 0-8.4 1.1-12.6 3.4-2.1 1.1-3 5.3-3.1 9.5-.1 3.3.5 6.6 1.5 8.5 2.3 4.4 10.6 4.7 17.4 4.5 6.9-.2 8.7-5.6 11.7-10.3 1.6-2.6 2.5-4.9 2.5-7.1 0-1.7-.5-3.3-1.5-4.8-.4-.5-1.1-1.1-1.9-1.5z"/><path fill="#4C3A2E" d="M119.2 98.6c.2 0 .4-.1.5-.1-2.7-1.5-7.1-2-10.6-2.1 4.3 1.2 8 2.5 10.1 2.2z"/><path opacity=".8" fill="#BF5A28" d="M119.2 98.6c.2 0 .4-.1.5-.1-2.7-1.5-7.1-2-10.6-2.1 4.3 1.2 8 2.5 10.1 2.2z"/><path fill="#121112" d="M121.6 100.1c-2.4-3.6-12-3.8-15.9-3.8s-8.4 1.1-12.6 3.4c-2.1 1.1-3 5.3-3.1 9.6.1-4.2 1.1-8.4 3.1-9.5 4.2-2.3 8.7-3.4 12.6-3.4.9 0 2.1 0 3.4.1 3.5.2 7.9.6 10.6 2.1.8.3 1.5.9 1.9 1.5 1 1.6 1.5 3.2 1.5 4.8 0-1.7-.5-3.3-1.5-4.8z"/><path opacity=".8" fill="#BF5A28" d="M121.6 100.1c-2.4-3.6-12-3.8-15.9-3.8s-8.4 1.1-12.6 3.4c-2.1 1.1-3 5.3-3.1 9.6.1-4.2 1.1-8.4 3.1-9.5 4.2-2.3 8.7-3.4 12.6-3.4.9 0 2.1 0 3.4.1 3.5.2 7.9.6 10.6 2.1.8.3 1.5.9 1.9 1.5 1 1.6 1.5 3.2 1.5 4.8 0-1.7-.5-3.3-1.5-4.8z"/><path fill="#BF5A28" d="M128 201.9l-11.1-4.8s-1.3.9-3.2 2.6c.6 2.8 2.9 12.9 5.8 18.7 0 0 3.5 2.2 8.5 2.2v-18.7z"/><path fill="#CDD9E0" d="M91.3 176.7c-1.2 10.7-.3 25.5 1.7 41.4.5 3.3 1.1 6.7 1.7 10.3l2.4-.9c3.5-14.1 12.1-23.4 16.7-27.7 1.9-1.7 3.2-2.6 3.2-2.6l11.1 4.8c-1.5-1-2.9-2-4.4-3.2-9.3-7.5-18.2-18.6-23-25-2.3-3-3.6-5-3.6-5-2.3 2.3-3.6 3.8-4.6 5.3l-.6 1c-.2.3-.4.8-.6 1.6z"/><path fill="#3F4D56" d="M78.8 218.6l-8.6-5.8 6.9-29.2c4.1-3.6 9.5-6.7 12.7-8.4-15.1 7.6-36.3 19-45.3 22.8-5.9 2.5-14.1 4.7-19.5 6 12.2 16.5 28.3 30 46.9 39-4.4-15.8-7.4-28.3-7.4-28.3l14.3 3.9zm12.6-42.8c0 .3-.1.6-.1.8.2-.7.4-1.3.6-1.7l-.5.9zm1.6 42.3c1.4 11.3 3.3 23.2 5.4 34.5.2.1.5.1.7.2-1.6-8.3-3.1-16.6-4.4-24.4-.7-3.6-1.2-7.1-1.7-10.3z"/><path fill="#334047" d="M93 218.1c-2-15.9-2.9-30.7-1.7-41.4 0-.3.1-.6.1-.8l.5-.8.6-1s-1 .5-2.7 1.3c-3.2 1.7-8.6 4.7-12.7 8.4L70.2 213l8.6 5.8-14.3-3.7s3 12.5 7.4 28.3c8.3 4.1 17.2 7.3 26.4 9.4-2-11.6-3.9-23.4-5.3-34.7z"/><path fill="#A4ACB2" d="M155.4 173.7c2.3-3 3.6-5 3.6-5s-.2-.8-3.5-1.1c-.1 1.9-.1 3.9-.1 6.1z"/><path fill="#C2D2E1" d="M159 227.5c-3.5-14.1-12.1-23.4-16.7-27.7-.6 2.8-2.9 12.9-5.8 18.7l4.6 36.8c5.4-.5 10.7-1.4 15.8-2.6 1.6-8.3 3.1-16.6 4.4-24.4l-2.3-.8z"/><path fill="#BC5728" d="M136.5 218.6s-3.5 2.2-8.5 2.2V256c4.4 0 8.8-.2 13.1-.7l-4.6-36.7z"/><path fill="#C08C76" d="M128 176.3v23.4l4.4-1c9.3-7.5 18.2-18.6 23-25 0-2.1 0-4.2.1-6.2s.1-3.9.2-5.5c-9.3 16.6-27.7 14.3-27.7 14.3zm48.5-73.1l-5.8 8.7c-.3 6.1-.7 12.1-1.4 17 2.1-.2 3-1.6 5.3-4.3 2.4-2.8 2.9-10.8 3.6-17.4-.1.2-.2.4-.4.7.1 0 .9-5.1-1.3-4.7z"/><path fill="#D7A990" d="M135.4 112c2.9 4.7 4.8 10.1 11.7 10.3 6.9.2 15.1-.1 17.4-4.5 1-1.9 1.5-5.2 1.5-8.5.1 3.3-.5 6.6-1.5 8.5-2.3 4.4-10.6 4.7-17.4 4.5-6.9-.2-8.7-5.6-11.7-10.3-1.6-2.6-2.5-5-2.5-7.1 0 2.1.9 4.5 2.5 7.1zm-2.1-17.7c0-1.3.2-2.5.2-2.5.2 3.6 5.2 1.8 12.8-1.2s10.2-1.6 13.8 0c3.6 1.6 3.2 4.6 3.2 4.6-2.3-.9-5-1-7.7-.8 7.8.7 9.2 4 11 5.9 1.1 1.2 2.9 1.3 4.3 1.1.1-5.8.1-12.7-.5-17.3-1.2-9.4-5.2-12-6.8-16.6s-2.2-9.8-4.8-12.4-12.1-5.1-12.1-5.1-7.8-2.6-18.7-2.6v47c0-.1 2.1-.1 5.3-.1zm-2 6.8c.6-1.7 1.8-2.9 3.1-3.6-.4-.4-.6-.9-.8-1.4H128v5.7c2.6 0 2.9.1 3.3-.7z"/><path fill="#D7A990" d="M170.5 112.3s.2-2.7.3-6.7c-1.6 1-2.5 2.4-2.9 5.2-.6 3.7-.7 6.9-4.3 10.5s-15.8 3.7-21.5 1.7c-5.6-2.1-9.1-11.8-10.5-15.3s-3.7-2.6-3.7-2.6v33s11.1 0 18.1 2.6c7 2.6 1.4 10.2 1.4 10.2-.2-7.4-19.5-6.4-19.5-6.4v11c4.3 0 8.1-2 8.1-2l-3 7.2c6.2 3.2 10.4 10.6 10.4 10.6s6.4-4.6 9.2-8.6c2.8-4 0-12.6 0-12.6 4.8 4 4.8 8 4.8 8 3.8-5.8 8-13.4 10.4-21.2.6-1.9 1.1-4.6 1.5-7.9.6-4.9 1.1-10.9 1.4-17l-.2.3z"/><path fill="#4C3A2E" d="M152.7 150.1s2.8 8.6 0 12.6-9.2 8.6-9.2 8.6-4.2-7.4-10.4-10.6l3-7.2s-3.8 2-8.1 2v20.8s18.4 2.3 27.6-14.3c.7-1.2 1.3-2.5 1.9-4 0 0 0-3.9-4.8-7.9zm-5.2.8s5.6-7.6-1.4-10.2c-7-2.6-18.1-2.6-18.1-2.6v6.4s19.3-1 19.5 6.4zm15.9-55.7s.4-3-3.2-4.6c-3.6-1.6-6.2-3-13.8 0s-12.6 4.8-12.8 1.2c0 0-.3 1.1-.2 2.5 5.4 0 13.8-.1 20 0 .9 0 1.6.1 2.4.1 2.6-.2 5.3-.1 7.6.8zm-25.1.9h-4.7c.2.5.4 1 .8 1.4 1.9-1.1 3.9-1.4 3.9-1.4z"/><path fill="#4C3A2E" d="M128 47.4c10.9 0 18.7 2.6 18.7 2.6s9.6 2.6 12.2 5.2 3.2 7.8 4.8 12.4 5.6 7.2 6.8 16.6c.6 4.6.6 11.5.5 17.3 1-.1 1.7-.3 1.7-.3 2.5 2.1 0 3.4 0 3.4-.7.3-1.3.6-1.9 1-.1 3.9-.3 6.7-.3 6.7l.2-.4 5.8-8.7c2.2-.4 1.4 4.7 1.4 4.7.1-.2.3-.4.4-.7 2.6-4.8.1-8.4.8-11.6.8-3.4 6.4-3.8 5.2-11-1.2-7.2-.2-7.6 1.2-15.4 1.4-7.8 1.2-12 3.4-19.2 2.2-7.2-4.6-17.6-14.2-21s-8.8-9.2-19.6-14.8S128 9.6 128 9.6v37.8z"/><path fill="#121112" d="M131.7 107.7c1.4 3.4 4.8 13.2 10.5 15.3 5.6 2.1 17.9 1.9 21.5-1.7s3.7-6.7 4.3-10.5c.4-2.8 1.4-4.2 2.9-5.2.5-.4 1.2-.7 1.9-1 0 0 2.5-1.4 0-3.4 0 0-.7.2-1.7.3-1.4.1-3.2 0-4.3-1.1-1.8-1.9-3.2-5.3-11-5.9-.7-.1-1.5-.1-2.4-.1-6.2-.1-14.6-.1-20 0h-5.3v1.8h10.4s-2 .3-3.9 1.4c-1.3.7-2.6 1.9-3.1 3.6-.4.8-.7.7-3.3.7v3.3c-.2-.1 2.1-1 3.5 2.5zm2.7-7.6c2.4-3.6 12-3.8 15.9-3.8s8.4 1.1 12.6 3.4c2.1 1.1 3 5.3 3.1 9.6.1 3.3-.5 6.6-1.5 8.5-2.3 4.4-10.6 4.7-17.4 4.5-6.9-.2-8.7-5.6-11.7-10.3-1.7-2.6-2.5-5-2.5-7.1 0-1.7.5-3.3 1.5-4.8z"/><path fill="#D7A990" d="M147.1 122.3c6.9.2 15.1-.1 17.4-4.5 1-1.9 1.5-5.2 1.5-8.5-.1-4.2-1.1-8.4-3.1-9.5-4.2-2.3-8.7-3.4-12.6-3.4-.9 0-2.1 0-3.4.1-4.2 1.2-8 2.5-10.1 2.2-.2 0-.4-.1-.5-.1-.8.4-1.4.9-1.8 1.6-1 1.6-1.5 3.1-1.5 4.8 0 2.2.9 4.5 2.5 7.1 2.9 4.6 4.7 10 11.6 10.2z"/><path opacity=".8" fill="#CE6828" d="M147.1 122.3c6.9.2 15.1-.1 17.4-4.5 1-1.9 1.5-5.2 1.5-8.5-.1-4.2-1.1-8.4-3.1-9.5-4.2-2.3-8.7-3.4-12.6-3.4-.9 0-2.1 0-3.4.1-4.2 1.2-8 2.5-10.1 2.2-.2 0-.4-.1-.5-.1-.8.4-1.4.9-1.8 1.6-1 1.6-1.5 3.1-1.5 4.8 0 2.2.9 4.5 2.5 7.1 2.9 4.6 4.7 10 11.6 10.2z"/><path fill="#4C3A2E" d="M136.8 98.6c2.1.3 5.8-1 10.1-2.2-3.5.2-7.9.6-10.6 2.1.1.1.3.1.5.1z"/><path opacity=".8" fill="#CE6828" d="M136.8 98.6c2.1.3 5.8-1 10.1-2.2-3.5.2-7.9.6-10.6 2.1.1.1.3.1.5.1z"/><path fill="#121112" d="M136.3 98.5c2.7-1.5 7.1-2 10.6-2.1 1.3-.1 2.5-.1 3.4-.1 3.8 0 8.4 1.1 12.6 3.4 2.1 1.1 3 5.3 3.1 9.5-.1-4.2-1.1-8.4-3.1-9.6-4.2-2.3-8.7-3.4-12.6-3.4s-13.5.2-15.9 3.8c-1 1.6-1.5 3.2-1.5 4.8 0-1.7.5-3.3 1.5-4.8.4-.5 1.1-1.1 1.9-1.5z"/><path opacity=".8" fill="#CE6828" d="M136.3 98.5c2.7-1.5 7.1-2 10.6-2.1 1.3-.1 2.5-.1 3.4-.1 3.8 0 8.4 1.1 12.6 3.4 2.1 1.1 3 5.3 3.1 9.5-.1-4.2-1.1-8.4-3.1-9.6-4.2-2.3-8.7-3.4-12.6-3.4s-13.5.2-15.9 3.8c-1 1.6-1.5 3.2-1.5 4.8 0-1.7.5-3.3 1.5-4.8.4-.5 1.1-1.1 1.9-1.5z"/><path fill="#CE6828" d="M139.1 197.2L128 202v18.8c4.9 0 8.5-2.2 8.5-2.2 2.9-5.8 5.2-16 5.8-18.7-2-1.8-3.2-2.7-3.2-2.7z"/><path fill="#DBE6EF" d="M132.4 198.7c-1.5 1.2-2.9 2.3-4.4 3.2l11.1-4.8s1.3.9 3.2 2.6c4.7 4.2 13.2 13.6 16.7 27.7l2.4.9c.6-3.6 1.2-7 1.7-10.3 2-15.9 2.9-30.7 1.7-41.4-.2-.7-.4-1.3-.6-1.7l-.6-1c-1-1.5-2.3-3-4.6-5.3 0 0-1.3 2-3.6 5-4.8 6.5-13.7 17.6-23 25.1z"/><path fill="#4D5B66" d="M166.2 175.3c3.2 1.7 8.6 4.7 12.7 8.4l6.9 29.2-8.6 5.8 14.3-3.7s-3 12.5-7.4 28.3c18.6-9.1 34.7-22.5 46.9-39-5.4-1.3-13.6-3.5-19.5-6-9-4.1-30.2-15.5-45.3-23zm-1.6.5l-.5-.8c.2.4.4 1 .6 1.7 0-.3 0-.6-.1-.9zm-1.6 42.3c-.5 3.3-1.1 6.7-1.7 10.3-1.3 7.8-2.8 16.1-4.4 24.4.2-.1.5-.1.7-.2 2.1-11.4 4-23.2 5.4-34.5z"/><path fill="#3F4D56" d="M177.2 218.6l8.6-5.8-6.9-29.2c-4.1-3.6-9.5-6.7-12.7-8.4-1.6-.8-2.7-1.3-2.7-1.3l.6 1 .5.8c0 .3.1.6.1.8 1.2 10.7.3 25.5-1.7 41.4-1.4 11.3-3.3 23.2-5.4 34.5 9.2-2.2 18.1-5.4 26.4-9.4 4.4-15.8 7.4-28.3 7.4-28.3l-14.2 3.9z"/></svg>