<svg xmlns="http://www.w3.org/2000/svg" width="256" height="256"><circle fill="#B1B3B5" cx="128" cy="128" r="128"/><path fill="#1C1D1D" d="M217.4 171.4c0-7.3-2.6-12.3-2.6-12.3-2.9-.7-6.2 6.1-7.6 9.4l.2.2s3.5 44.7 5.4 48.9c.2.3.4.9.8 1.7l-1.3-3.5 3.2-34.8 6.4-2.7 20.3 7.3c.2-.3.3-.7.5-1l-17.3-6.8-8-6.4z"/><path fill="#4E4946" d="M246.1 172.3l.3 4.4c.7-1.7 1.3-3.4 2-5.1-.9 0-1.8.1-2.5.6l.2.1zm-22.8-9s-1.8-3.8-8.5-4.2c0 0 2.6 4.9 2.6 12.3l8.1 6.4 17.3 6.8c.8-1.6 1.6-3.3 2.3-4.9l-21.5-8-.3-8.4z"/><path fill="#725135" d="M245.8 172.2l-22.6-8.9.3 8.3 21.5 8c.4-1 .8-1.9 1.2-2.9l-.3-4.4-.1-.1z"/><path fill="#323430" d="M215.6 181l-3.2 34.8 1.3 3.5c.3.7.7 1.6 1.2 2.7 1.4-1.3 2.7-2.6 4-3.9l4.3-34.1 16.7 6c.8-1.5 1.6-2.9 2.4-4.5l-20.3-7.3-6.4 2.8z"/><path fill="#715032" d="M218.9 218.1c8.2-8.3 15.3-17.8 21.1-28.1l-16.7-6-4.4 34.1z"/><path fill="#1C1D1D" d="M184.1 109.9c-1.2 0-3.1-1.6-4.7-3.2-.2 0-.3 0-.5-.1-.3 20.1-7.1 24.6-14 39.1-1.3 2.7-3.3 4.9-5.8 6.7.6 1.8 1.2 3.5 2 5.2 17.9-26.3 37.6-34.2 30.3-47.7-1-.8-2.8-1.4-5-2-1 1.3-1.7 2-2.3 2z"/><path fill="#856432" d="M145.4 207c-8.4.3-15.3.2-17.2.2V256c14.3 0 28-2.4 40.8-6.7-5.8-2.8-12.6-5-20.6-6.2 0 0-3.8-16.2-3-36.1zm-17.2-46v37.5c6.3.1 12.3-.4 17.9-1.2 1.3-11 4.3-22.4 10.2-32.5 1.5-2.6 3-4.9 4.6-7.2-.7-1.7-1.4-3.5-2-5.2-10.1 7.5-27.6 8.5-30.7 8.6z"/><path fill="#9C7360" d="M182.4 84.7l-4.8-5.1c.9 9.4 1.3 18.5 1.3 25.8v.7c.2.2.3.4.5.5 1.6 1.6 3.5 3.2 4.7 3.2.6 0 1.4-.8 2.1-2 2.2-3.6 4.5-11.2 4.5-15.3 0-5.4 3.5-15.3-1.6-19.8-1.3-1.1-2.7-1.1-4.2-.5-4 3.1-2.5 12.5-2.5 12.5z"/><path fill="#C08C76" d="M129.7 30.8v20.3h-1.5v6.5h1.5V63h-1.5v98c3.1-.1 20.6-1.2 30.7-8.6 2.5-1.8 4.5-4 5.8-6.7 6.9-14.4 13.8-19 14-39.1v-1.2c0-7.4-.5-16.4-1.3-25.8v-.1l-.9-.9c0-7-7.8-16.6-7.8-16.6 2.1-3.5-1.4-14.4-1.4-14.4h1.4l-3.6-6.4h3.6l-12.9-9.6 4.5-1.6-12.1-4s3.8-1.6 6.3-2.3c-2.8.1-7.7-.1-11.1-.1l-6.8 1.2.8-2.6-5.8 2.6v-3.1l-3.3 2.7V31h1.4zm36.4 58.1l1.8 2.3-7.7 6.3-1.8-2.3 7.7-6.3zM157 67.5c4.3 1 6.2 2.9 6.2 2.9s-4.2-1-11.4-1.7-9.6 3.3-12.1 3.3c-2.6 0-3.9-3.5-3.9-3.5 9.2-6.9 21.2-1 21.2-1zm-19.8-36.7h2.7v6h-2.7v-6zm0 7.2h2.7v9.2h-2.7V38zm-2 12h7V30.8h2.4v21.5h-9.4V50zm-.6 6.3h9.3v3.3h-6.2v4.2l-6.3 3.6v10.7h-2.7V65.4l5.9-3.1v-6zm-3.1-25.5h2.4v25.5H129V54h2.4V30.8z"/><path fill="#1F2125" d="M143.4 23.5c3.4.1 8.3.2 11.1.1-2.6.7-6.3 2.3-6.3 2.3l12.1 4.2-4.5 1.6 12.9 9.6h-3.6l3.6 6.4h-1.4s3.5 10.9 1.4 14.4c0 0 7.8 9.6 7.8 16.6l.9.9 4.8 5.1s-1.4-9.4 2.5-12.3c.2-.2.4-.3.7-.4 0 0 3.8-7.7-2.6-24.3s-5.1-23.9-27.5-33.8L153 13l-9.6 10.5z"/><path fill="#97918D" d="M128.2 24.3l3.3-2.7v3.1l5.8-2.6-.8 2.6 6.8-1.2L153 13s-6.6-5.9-24.7-6v17.3zM127.8 7h.2-.2z"/><path fill="#1F2125" d="M139.6 72c2.6 0 4.9-4 12.1-3.3s11.4 1.7 11.4 1.7-1.8-1.9-6.2-2.9c0 0-12-6-21.3 1 .1 0 1.4 3.5 4 3.5z"/><path fill="#FFFCF9" d="M158.314 95.192l7.76-6.306 1.83 2.25-7.761 6.307zM128.2 30.8h1.5v20.3h-1.5zm9 0h2.7v6h-2.7zm0 7.2h2.7v9.2h-2.7zm-8.5 40.1h2.7V67.4l6.4-3.6v-4.2h6.1v-3.3h-9.3v6.1l-5.9 3zm-.5-20.5h1.5V63h-1.5z"/><path fill="#FFFCF9" d="M129.1 56.3h4.8V30.8h-2.4V54h-2.4zm15.5-25.5h-2.4V50h-7v2.3h9.4z"/><path fill="#1F1710" d="M128.2 198.6v8.6c1.8 0 8.8.1 17.2-.2.1-3.1.4-6.3.8-9.6-5.6.8-11.7 1.2-18 1.2z"/><path fill="#616462" d="M212.9 217.5c-1.9-4.2-5.4-48.9-5.4-48.9l-.2-.2-4.9-4.2c.1 2.7 1 20.8 1.3 36.7.1 5.9 3 15.3 6.7 25 1.6-1.3 3.1-2.7 4.6-4.1-.5-1-.9-1.9-1.2-2.7-.5-.6-.7-1.2-.9-1.6zm-47.3-55.2c7.4-12.3 27.8-36.9 29.2-38.6.1-.2.1-.1.1-.1l-.1.1c-.1.3-.3 1.5-.5 5.8.5-5.3 1.1-9.8 1-12.2-.3-8-4.1-7.3-4.1-7.3 7.3 13.5-12.4 21.4-30.3 47.7-1.5 2.3-3.1 4.7-4.6 7.2-5.9 10.1-8.9 21.6-10.2 32.5-.4 3.3-.6 6.5-.8 9.6-.8 19.9 3 36.1 3 36.1 8 1.2 14.8 3.3 20.6 6.2 2.2-.7 4.4-1.6 6.6-2.4-11.8-7.5-21.5-7.9-21.5-7.9-6.6-44.4 3.9-63.9 11.6-76.7z"/><path fill="#3E423E" d="M194.8 123.7l.1-.1-.1.1zm8.8 77.2c-.3-15.9-1.1-34-1.3-36.7v-.4s-8.6-6.1-8.3-23.6c.1-4.9.2-8.3.3-10.8.2-4.3.4-5.5.5-5.8-1.4 1.7-21.9 26.3-29.2 38.6-7.7 12.8-18.2 32.3-11.5 76.6 0 0 9.7.4 21.5 7.9 12.7-5.1 24.4-12.2 34.7-20.9-3.7-9.6-6.6-18.9-6.7-24.9z"/><path fill="#0E0E0E" d="M40.4 181l3.2 34.8-1.3 3.5c.4-.8.7-1.4.8-1.7 1.9-4.2 5.4-48.9 5.4-48.9l.2-.2c-1.4-3.3-4.7-10.1-7.6-9.4 0 0-2.6 4.9-2.6 12.3l-8.1 6.4-17.3 6.8c.2.3.3.7.5 1l20.3-7.3 6.5 2.7z"/><path fill="#323430" d="M10.2 172.2c-.7-.4-1.6-.6-2.5-.6.6 1.7 1.3 3.4 2 5.1l.3-4.4.2-.1zm28.4-.8c0-7.3 2.6-12.3 2.6-12.3-6.7.3-8.5 4.2-8.5 4.2l-.3 8.3-21.5 8c.7 1.7 1.5 3.3 2.3 4.9l17.3-6.8 8.1-6.3z"/><path fill="#715032" d="M32.7 163.3l-22.6 8.9-.3.1-.3 4.4c.4 1 .8 2 1.2 2.9l21.5-8 .5-8.3z"/><path fill="#282A26" d="M43.6 215.8L40.4 181l-6.4-2.7-20.3 7.3c.8 1.5 1.5 3 2.4 4.5l16.7-6 4.3 34.1c1.3 1.3 2.6 2.6 4 3.9.5-1 .9-1.9 1.2-2.7l1.3-3.6z"/><path fill="#5D4126" d="M16 190c5.7 10.3 12.8 19.8 21.1 28.1L32.7 184 16 190z"/><path fill="#161717" d="M95.1 157.6c.7-1.7 1.4-3.5 2-5.2-2.5-1.8-4.5-4-5.8-6.7-6.9-14.4-13.8-19-14-39.1-.2 0-.3 0-.5.1-1.6 1.6-3.5 3.2-4.7 3.2-.6 0-1.4-.8-2.1-2-2.2.5-4 1.2-5 2-7.5 13.6 12.2 21.4 30.1 47.7z"/><path fill="#795A2C" d="M128.2 198.6V161s-20.1-.4-31.2-8.6c-.6 1.8-1.2 3.5-2 5.2 1.5 2.3 3.1 4.7 4.6 7.2 5.9 10.1 8.9 21.6 10.2 32.5 5.8.9 12 1.4 18.4 1.3zm0 8.6s-7.8.1-17.6-.2c.8 19.9-3 36.1-3 36.1-8 1.2-14.8 3.3-20.6 6.2 12.9 4.4 26.7 6.7 41 6.7h.2v-48.8z"/><path fill="#886553" d="M71.9 109.9c1.2 0 3.1-1.6 4.7-3.2.2-.2.3-.4.5-.5v-.7c0-7.4.5-16.4 1.3-25.8l-4.8 5.1s1.4-9.4-2.5-12.3c-1.4-.6-2.9-.6-4.2.5-5.1 4.5-1.6 14.4-1.6 19.8 0 4.1 2.3 11.7 4.5 15.3.8 1.1 1.5 1.8 2.1 1.8z"/><path fill="#9C7360" d="M128.2 161V63h-2v-5.4h2v-6.5h-2V30.8h2v-6.2l-3.8-3.1v3.1l-5.8-2.6.8 2.6-6.8-1.2c-3.4.1-8.3.2-11.1.1 2.6.7 6.3 2.3 6.3 2.3L95.7 30l4.5 1.6-12.9 9.6h3.6l-3.6 6.4h1.4S85.2 58.5 87.3 62c0 0-7.8 9.6-7.8 16.6l-.9.9v.1c-.9 9.4-1.3 18.5-1.3 25.8v1.2c.3 20.1 7.1 24.6 14 39.1 1.3 2.7 3.3 4.9 5.8 6.7 11.1 8.2 31.1 8.6 31.1 8.6zm-6.1-130.2h2.4V54h2.4v2.3H122V30.8zm5.2 34.6v12.7h-2.7V67.4l-6.3-3.6v-4.2h-6.2v-3.3h9.3v6l5.9 3.1zm-11.2-34.6h2.7v6h-2.7v-6zm0 7.2h2.7v9.2h-2.7V38zm-4.7-7.2h2.4V50h7v2.3h-9.4V30.8zM99 67.5s12-6 21.3 1c0 0-1.4 3.5-3.9 3.5-2.6 0-4.9-4-12.1-3.3s-11.4 1.7-11.4 1.7 1.8-1.9 6.1-2.9zm-9.1 21.4l7.7 6.3-1.8 2.3-7.7-6.3 1.8-2.3z"/><path fill="#121317" d="M73.6 84.7l4.8-5.1.9-.9c0-7 7.8-16.6 7.8-16.6-2.1-3.5 1.4-14.4 1.4-14.4h-1.4l3.6-6.4h-3.6l12.9-9.6-4.5-1.6 12.1-4.2s-3.8-1.6-6.3-2.3c2.8.1 7.7-.1 11.1-.1L103 13l-2.6.8c-22.3 9.9-21 17.3-27.4 33.9S70.5 72 70.5 72c.2.1.5.3.7.4 3.9 2.9 2.4 12.3 2.4 12.3z"/><path fill="#7A7673" d="M112.6 23.5l6.8 1.2-.8-2.6 5.8 2.6v-3.1l3.8 3.1V7h-.4c-18.1.1-24.7 6-24.7 6l9.5 10.5z"/><path fill="#1F2125" d="M116.4 72c2.6 0 3.9-3.5 3.9-3.5-9.3-6.9-21.3-1-21.3-1-4.3 1-6.2 2.9-6.2 2.9s4.2-1 11.4-1.7 9.7 3.3 12.2 3.3z"/><path fill="#C1C2C1" d="M88.106 91.17l1.829-2.25 7.76 6.305-1.828 2.251zM127.8 30.8h-1.5v20.4h1.9V30.8zm-11.7 0h2.7v6h-2.7zm0 7.2h2.7v9.2h-2.7zm-4 18.3v3.3h6.1v4.2l6.4 3.6v10.7h2.7V65.4l-5.9-3v-6.1zm15.7 1.3h-1.5V63h1.9v-5.4z"/><path fill="#C1C2C1" d="M126.9 54h-2.4V30.8h-2.4v25.5h4.8zm-6.1-4h-7V30.8h-2.4v21.5h9.4z"/><path fill="#160C05" d="M128.2 198.6c-6.4.1-12.7-.4-18.4-1.2.4 3.3.6 6.5.8 9.6 9.8.3 17.6.2 17.6.2v-8.6z"/><path fill="#4C4F4E" d="M110.6 207c-.1-3.1-.4-6.3-.8-9.6-1.3-11-4.3-22.4-10.2-32.5-1.5-2.6-3-4.9-4.6-7.2-17.9-26.3-37.6-34.2-30.3-47.7 0 0-3.8-.6-4.1 7.3-.1 2.4.5 6.9 1 12.2-.2-4.3-.4-5.5-.5-5.8l-.1-.1.1.1c1.4 1.7 21.9 26.3 29.2 38.6 7.7 12.8 18.2 32.3 11.5 76.6 0 0-9.7.4-21.5 7.9 2.2.9 4.3 1.7 6.6 2.4 5.8-2.8 12.6-5 20.6-6.2.1.1 3.9-16.1 3.1-36zm-58.2-6.1c.3-15.9 1.1-34 1.3-36.7l-4.9 4.2-.2.2s-3.5 44.7-5.4 48.9c-.2.3-.4.9-.8 1.7-.3.7-.7 1.6-1.2 2.7 1.5 1.4 3 2.7 4.6 4.1 3.6-9.8 6.5-19.1 6.6-25.1z"/><path fill="#323532" d="M61.1 123.6l.1.1-.1-.1zm29.3 38.7C83 150 62.6 125.5 61.2 123.7c.1.3.3 1.5.5 5.8.1 2.4.2 5.9.3 10.8.3 17.6-8.3 23.6-8.3 23.6v.4c-.1 2.7-1 20.8-1.3 36.7-.1 5.9-3 15.3-6.7 25 10.3 8.7 22 15.8 34.7 20.9 11.8-7.5 21.5-7.9 21.5-7.9 6.7-44.4-3.8-63.9-11.5-76.7z"/></svg>