<svg xmlns="http://www.w3.org/2000/svg" width="256" height="256"><circle fill="#B1B3B5" cx="128" cy="128" r="128"/><path fill="#9A673E" d="M74.8 232.8c1-7.7 1.7-3.8 1.7-6.7s-1.2-3.6-1.4-7.4c-.2-3.8.5-4.1.7-5.5.1-.5.4-1.4.9-2.4-17.1-10-40.5-2.1-40.5-2.1l25.4-26.8 8.2-4.2-48 22c13.4 19.9 32.3 35.8 54.5 45.6v-.1c-.7-2.9-2.4-4.8-1.5-12.4z"/><path fill="#805531" d="M36.2 208.6s23.3-7.9 40.5 2.1c.7-1.7 1.7-3.9 2.5-5.9 1.2-3.4-2.2-6.9-2.4-7.9-.2-1-2.4-9.8-2.4-9.8s-.7-3.1-.5-6.2c.2-3 1.1-3.3 2.9-6.8l-7 3.6-8.2 4.2-25.4 26.7z"/><path fill="#A37864" d="M78.8 112.5s.1.3.1.7c-.1-1.7-.2-3.4-.3-5.2v1.3c-2.6-2.4-3.1-7.9-3.1-7.9l-.2-13.7-.1-1c-1.6-1.5-3.3-2.6-5-2.1-4.5 1.3-4.2 6.1-4.8 9.3-.6 3.2-3.5 5.1 1 12.8 4.5 7.7 3.5 15.6 6.4 20.1.8 1.2 1.8 2.1 2.9 2.7.3-2.4.7-4.7 1.1-6.3 1.2-5.1 2-10.7 2-10.7z"/><path fill="#C08C76" d="M112 151.6s-3.1 2.2-3.8 2.4c-.7.2-3.6 2.6-3.6 2.6l-1.2 3.8s-.7 8.6 3.8 8.6c4.6 0 7.4-6.7 7.4-6.7 7.1-1.4 13.2-.5 13.4-.5v-11h-9.6l-6.4.8zm-5.3-103.5l-8.1 1-9.1 2.9-3.1 4.8s-3.6 4.1-3.8 4.8c-.2.7-2.6 3.1-2.9 5-.2 1.9 1 9.6.2 17-.6 6.2-1 20.1-1.2 24.3.1 1.8.2 3.5.3 5.2.3 1.2.8 3.6 1 4.3.2 1 .4 4.5.9 6.9.5 2.4 0 4.3.7 6.9.7 2.6 2.6 6.7 3.1 8.9s3.8 6.5 3.8 6.5l2.2 2.9 3.1-2.2c5.7-7 18.2-11.3 18.2-11.3s1.7 3.8 4.8 5.3c3.1 1.4 11.1 1.7 11.2 1.7V43.1c-12.7 0-21.3 5-21.3 5zm.2 45.5c-5-1.2-16.8 1.9-16.8 1.9-3.9 1.3-3.9 2.2-3.8 2.4-1.4-2.9 5.8-7.2 11-10 5.3-2.9 13.9 2.2 17.5 2.9 3.6.7 6.2-2.2 6.2-2.2s-.7 2.9-1.7 5c-1 2.2-7.4 1.2-12.4 0z"/><path fill="#464126" d="M114.8 90.8c-3.6-.7-12.2-5.7-17.5-2.9-5.3 2.9-12.4 7.2-11 10 0-.1-.1-1.1 3.8-2.4 0 0 11.7-3.1 16.8-1.9 5 1.2 11.5 2.2 12.5 0s1.7-5 1.7-5-2.8 2.9-6.3 2.2zm-28.5 7.1z"/><path fill="#3B371D" d="M128 21.3V8.6h-1.9c-16.5 0-21.7 11.2-23.2 16 11.7-3.7 24.9-3.3 25.1-3.3z"/><path fill="#464126" d="M75.6 101.3s.5 5.5 3.1 7.9v-1.3c.1-4.3.6-18.1 1.2-24.3.7-7.4-.5-15.1-.2-17 .2-1.9 2.6-4.3 2.9-5 .2-.7 3.8-4.8 3.8-4.8l3.1-4.8 9.1-2.9 8.1-1s8.6-5 21.3-5V21.3c-.2 0-13.4-.4-25.1 3.3-5.2 1.7-10.1 4.2-13.5 7.9-10.7 12.3-12.6 19.9-12.6 19.9l-.5 2.4-1.7 1.9 1 1.7s.2 2.4-.2 3.4c-.5 1-1.7 2.9-1.4 3.6s1.2 2.9 1.2 2.9v8.2s-1.4.7-1.2 1.7 1 4.3 1 4.3l.4 4.2.1 1 .1 13.6zm52.4 60.6c-.2 0-6.3-.9-13.4.5 0 0-2.9 6.7-7.4 6.7-4.6 0-3.8-8.6-3.8-8.6l1.2-3.8s2.9-2.4 3.6-2.6c.7-.2 3.8-2.4 3.8-2.4l6.5-.7h9.6v-8c-.2 0-8.2-.3-11.2-1.7-3.1-1.4-4.8-5.3-4.8-5.3s-12.5 4.3-18.2 11.3l-3.1 2.2-2.2-2.9s-3.4-4.3-3.8-6.5c-.5-2.2-2.4-6.2-3.1-8.9-.7-2.6-.2-4.6-.7-6.9-.5-2.4-.6-5.9-.9-6.9-.2-.7-.7-3.1-1-4.3-.1-.4-.1-.7-.1-.7s-.9 5.6-2.1 10.6c-.4 1.6-.8 3.9-1.1 6.3-.7 4.9-1.3 10.2-1.3 10.7 0 .7-.7 5-.5 6.9.2 1.9-.2 1.9 1.7 7.4s2.6 8.4 2.6 10.8.7 4.6-1.2 8.4c-.1.1-.1.3-.2.4-1.8 3.5-2.7 3.8-2.9 6.8-.2 3.1.5 6.2.5 6.2s2.2 8.9 2.4 9.8c.2 1 3.6 4.6 2.4 7.9-.7 2.1-1.8 4.3-2.5 5.9-.4 1-.8 1.9-.9 2.4-.2 1.4-1 1.7-.7 5.5.2 3.8 1.4 4.6 1.4 7.4s-.7-1-1.7 6.7.7 9.6 1.4 12.2v.1c15.8 7 33.3 10.9 51.7 10.9v-93.8z"/><path fill="#AF7548" d="M194.4 181.8l25.4 26.8s-23.3-7.9-40.5 2.1c.4 1 .8 1.9.9 2.4.2 1.4 1 1.7.7 5.5-.2 3.8-1.4 4.6-1.4 7.4s.7-1 1.7 6.7-.7 9.6-1.4 12.2v.1c22.2-9.8 41.1-25.7 54.5-45.6l-48-22 8.1 4.4z"/><path fill="#9A673E" d="M182.1 180.8c.2 3.1-.5 6.2-.5 6.2s-2.2 8.9-2.4 9.8c-.2 1-3.6 4.6-2.4 7.9.7 2.1 1.8 4.3 2.5 5.9 17.1-10 40.5-2.1 40.5-2.1l-25.4-26.8-8.2-4.2-7-3.6c1.8 3.6 2.7 3.9 2.9 6.9z"/><path fill="#C08C76" d="M180.4 101.3s-.5 5.5-3.1 7.9v-1.3c-.1 1.8-.2 3.5-.3 5.2.1-.4.1-.7.1-.7s.9 5.6 2.1 10.6c.4 1.6.8 3.9 1.1 6.3 1.1-.6 2.1-1.5 2.9-2.7 2.9-4.5 1.9-12.5 6.4-20.1 4.5-7.7 1.6-9.6 1-12.8-.6-3.2-.3-8-4.8-9.3-1.7-.5-3.5.6-5 2.1l-.1 1-.3 13.8z"/><path fill="#D7A990" d="M128 161.9s6.2-1 13.4.5c0 0 2.9 6.7 7.4 6.7 4.6 0 3.8-8.6 3.8-8.6l-1.2-3.8s-2.9-2.4-3.6-2.6c-.7-.2-3.8-2.4-3.8-2.4l-6.5-.7H128v10.9zm48.1-78.3c-.7-7.4.5-15.1.2-17-.2-1.9-2.6-4.3-2.9-5-.2-.7-3.8-4.8-3.8-4.8l-3.1-4.8-9.1-2.9-8.1-1s-8.6-5-21.3-5V143s8.1-.2 11.3-1.7c3.1-1.4 4.8-5.3 4.8-5.3s12.5 4.3 18.2 11.3l3.1 2.2 2.2-2.9s3.4-4.3 3.8-6.5c.5-2.2 2.4-6.2 3.1-8.9.7-2.6.2-4.6.7-6.9.5-2.4.6-5.9.9-6.9.2-.7.7-3.1 1-4.3.1-1.7.2-3.4.3-5.2-.2-4.2-.7-18.1-1.3-24.3zm-6.4 14.3c0-.2.1-1.1-3.8-2.4 0 0-11.7-3.1-16.8-1.9-5 1.2-11.5 2.2-12.5 0s-1.7-5-1.7-5 2.6 2.9 6.2 2.2c3.6-.7 12.2-5.7 17.5-2.9 5.4 2.8 12.5 7.1 11.1 10z"/><path fill="#565032" d="M169.7 97.9zm-11-10c-5.3-2.9-13.9 2.2-17.5 2.9-3.6.7-6.2-2.2-6.2-2.2s.7 2.9 1.7 5c1 2.2 7.4 1.2 12.5 0 5-1.2 16.8 1.9 16.8 1.9 3.9 1.3 3.9 2.2 3.8 2.4 1.3-2.9-5.8-7.2-11.1-10z"/><path fill="#464126" d="M128 21.3s13.3-.5 25.1 3.3c-1.5-4.8-6.7-16-23.2-16H128v12.7z"/><path fill="#565032" d="M128 21.3v21.8c12.7 0 21.3 5 21.3 5l8.1 1 9.1 2.9 3.1 4.8s3.6 4.1 3.8 4.8c.2.7 2.6 3.1 2.9 5 .2 1.9-1 9.6-.2 17 .6 6.2 1 20.1 1.2 24.3v1.3c2.6-2.4 3.1-7.9 3.1-7.9l.2-13.7.1-1 .4-4.2s.7-3.4 1-4.3-1.2-1.7-1.2-1.7v-8.2s1-2.2 1.2-2.9-1-2.6-1.4-3.6c-.5-1-.2-3.4-.2-3.4l1-1.7-1.7-1.9-.5-2.4s-1.9-7.7-12.7-19.9c-3.3-3.8-8.2-6.3-13.5-7.9-11.8-3.6-25.1-3.2-25.1-3.2zm53.2 211.5c-1-7.7-1.7-3.8-1.7-6.7s1.2-3.6 1.4-7.4c.2-3.8-.5-4.1-.7-5.5-.1-.5-.4-1.4-.9-2.4-.7-1.7-1.7-3.9-2.5-5.9-1.2-3.4 2.2-6.9 2.4-7.9.2-1 2.4-9.8 2.4-9.8s.7-3.1.5-6.2c-.2-3-1.1-3.3-2.9-6.8-.1-.1-.1-.3-.2-.4-1.9-3.8-1.2-6-1.2-8.4s.7-5.2 2.6-10.8 1.4-5.5 1.7-7.4c.2-1.9-.5-6.2-.5-6.9 0-.5-.5-5.8-1.3-10.7-.3-2.4-.7-4.7-1.1-6.3-1.2-5-2.1-10.6-2.1-10.6s-.1.3-.1.7c-.3 1.2-.8 3.6-1 4.3-.2 1-.4 4.5-.9 6.9-.5 2.4 0 4.3-.7 6.9-.7 2.6-2.6 6.7-3.1 8.9s-3.8 6.5-3.8 6.5l-2.2 2.9-3.1-2.2C156.5 140.3 144 136 144 136s-1.7 3.8-4.8 5.3c-3.1 1.4-11.3 1.7-11.3 1.7v7.9h9.6l6.5.7s3.1 2.2 3.8 2.4c.7.2 3.6 2.6 3.6 2.6l1.2 3.8s.7 8.6-3.8 8.6c-4.6 0-7.4-6.7-7.4-6.7-7.2-1.4-13.4-.5-13.4-.5V256c18.4 0 35.9-3.9 51.7-10.9v-.1c.7-2.7 2.4-4.6 1.5-12.2z"/><circle fill="#A37864" cx="118.8" cy="82" r="2.1"/></svg>