<svg xmlns="http://www.w3.org/2000/svg" width="256" height="256"><circle fill="#B1B3B5" cx="128" cy="128" r="128"/><path fill="#383638" d="M208.1 191.3l-1-.1-23.7 8.1.1.1-6.2 3.4s-19.7 13.8-26.7 51.2c.8-.1 1.6-.3 2.4-.5 3.4-15.6 10.9-33.5 25.8-50.7l29.3-11.5zm-.9-.1l.9.1 6.9-2.7v-.1zm-38.3-11.4c8.2 3.1 27.3 9.5 38 6.6l-33.8-17.2-4.7-7.6c-.5.7-1.1 1.4-1.6 2l2.1 16.2z"/><path fill="#454547" d="M131.8 213.5l8-2.2.6-4.2h.1l-8.7-.3zm-3.7-24.3v13.6l14.9 1.3 3.5-4.2v-3.3s-9.6.2-18.4-7.4zm5.6-6.5l1.1.6s7.7-2.2 15-1.9l.5-6.2c-4.9 1.9-11 2.6-15.6 2.9l-1 4.6z"/><path fill="#454547" d="M128.1 178.2v7.9c1.6.9 15 8.4 20.7 7.4l1-9.1s-12.6.2-15.6 2.4l-3.4-2.4-.3-6.1c-1.3-.1-2.1-.1-2.4-.1z"/><path fill="#383638" d="M157.2 170.9c-.1 0-.2.1-.3.1-1.6 1.8-3.9 3.2-6.6 4.2l-.5 6.2c-7.3-.3-15 1.9-15 1.9l-1.1-.6 1-4.7c-1.7.1-3.2.1-4.3.1l.3 6.1 3.4 2.4c3-2.2 15.6-2.4 15.6-2.4l-1 9.1c-5.7 1-19.1-6.5-20.7-7.4v3.2c8.8 7.5 18.4 7.4 18.4 7.4v3.3l9.6-11.4 1.2-17.5z"/><path fill="#696A6C" d="M166.8 163.5c-2.7 3.2-6 6-9.6 7.3l-1 17.7 8.8-10.4s1.5.7 4 1.6l-2.2-16.2z"/><path fill="#383638" d="M155 147.3c.5.7 1.1 1.2 1.9 1.4-.8-.4-1.4-.9-1.9-1.4zm31.3-67.6l.3.2s0 .1-.1.1l5.1 9s-13 9.2-24.1 22.7l12.9-4.5 6.5-4.3s-5.7 30.4-7.7 33.8c0 0 12.9-5.5 16.5-37.6 0 0-3.8 6-5.5 3.8s0-6.5 3.4-12.9c0 0 1.6-8.8-8.7-17.6 0 0-1.4 1.6-3.8 4.3l5.2 3c0 .1 0 0 0 0zm-32.7 62.6c12.1-1.1 13.9-30.4 13.9-30.5-6.5 7.9-12.3 17.3-14.3 27.1 0 0-.1 2.2.4 4.6-.1-.7 0-1.2 0-1.2zm-6.1-2.6l5.7-.8h-7.8z"/><path fill="#383638" d="M196.9 94.6s-1.1-22.5-13.3-33.8v-.1c.1.9.3 1.8.4 2.8 0 0 10.7 13.6 12.9 31.1zm-57.3 42.1v3.4h5.1l.6-.1c0-.7.1-1.1.1-1.1h-2.7l-3-4.1h-11.6v3.1l11.5-1.2zm27.2-55s-3.8-6.5-7.7-11.2c-.7.7-1.4 1.5-2.2 2.4 4.5 4 7.5 8.6 7.5 8.6l-4.1 4.1c-3.4-2.2-8.2-2.4-11.9-2.1-2.9 4.3-5.3 9-6.2 13.6-.4 1.9-.7 4-1 6.1 5.9-4.1 16.3-11.7 25.6-21.5z"/><path fill="#454547" d="M186.6 80l-.3-.2.2.3.1-.1z"/><path fill="#454547" d="M186.3 79.8l-5.2-3c-10.5 12-39.4 45.8-41.4 56.2v1.9l3 4.1c0-.1 15.1-36.7 43.6-59.2z"/><path fill="#696A6C" d="M162.6 67s-.3.2-.7.7c3.1 3.4 6.9 8.3 8.5 13.7 0 0-20 20.2-29.8 27.8-.9 9.7-1 19.6-1 23.7 2-10.4 30.9-44.2 41.4-56.2 2.3-2.7 3.8-4.3 3.8-4.3l-.9-9c-.1-.9-.3-1.9-.4-2.8l-.8-5c-2.1-11.8-5-19.7-5-19.7-.1 0-.2.1-.3.2L162.6 67z"/><path fill="#454547" d="M170.4 81.4c-1.6-5.4-5.5-10.3-8.5-13.7-.6.6-1.6 1.5-2.7 2.7 3.9 4.8 7.7 11.2 7.7 11.2-9.3 9.8-19.7 17.5-25.6 21.4-.3 2-.5 4-.7 6.1 9.8-7.5 29.8-27.7 29.8-27.7z"/><path fill="#77787B" d="M128.1 49.1c3 0 5.3-1.3 5.3-1.3l4.2-37.7c.8 0 1.5.1 2.2.1-4.2-2.5-11-2-11.8-1.9h.1v40.8z"/><path fill="#696A6C" d="M133.4 47.8s-2.3 1.2-5.3 1.3v13.4c16.7-22 19.3-50.9 19.3-50.9-1.9-.5-4.4-1-7.6-1.3-.7-.1-1.5-.1-2.2-.1l-4.2 37.6z"/><path fill="#454547" d="M128.1 62.4v2.1c.9-.6 5.7-4 9.6-13.3 4.3-10.3 12-27.9 11.5-41.1l-1.9 1.4c.1.1-2.5 28.9-19.2 50.9z"/><path fill="#696A6C" d="M160.4 85.5l4.1-4.1s-3.1-4.7-7.5-8.6c-2.6 2.8-5.7 6.5-8.4 10.6 3.6-.3 8.4-.1 11.8 2.1z"/><path fill="#5E5F61" d="M137.7 51.2c-3.9 9.3-8.7 12.7-9.6 13.3v70.3h11.6v-1.9c0-4.1.1-14 1-23.7.2-2.1.4-4.1.7-6.1.3-2.1.6-4.2 1-6.1.9-4.6 3.3-9.3 6.2-13.6 2.7-4.1 5.8-7.8 8.4-10.6.8-.9 1.6-1.7 2.2-2.4l2.7-2.7c.5-.4.7-.7.7-.7l14.9-30.9.2-.5c-6.9-12-28.5-25.5-28.5-25.5.5 13.3-7.2 30.8-11.5 41.1z"/><path fill="#77787B" d="M167.5 111.8c11-13.5 24.1-22.7 24.1-22.7l-5.1-9-.2-.3v-.1c-28.5 22.5-43.6 59.1-43.6 59.1h10.5c2-9.7 7.8-19.1 14.3-27z"/><path fill="#77787B" d="M183.6 60.7v.1c12.2 11.3 13.3 33.8 13.3 33.8-2.2-17.5-12.9-31.1-12.9-31.1l.9 9c10.3 8.8 8.7 17.6 8.7 17.6-3.4 6.5-5 10.8-3.4 12.9s5.5-3.8 5.5-3.8c-3.6 32.1-16.5 37.6-16.5 37.6 1.9-3.4 7.7-33.8 7.7-33.8l-6.5 4.3c-4.7 33.6-11.8 41.4-19.7 41.9-1.6.1-2.8-.1-3.8-.6-.8-.2-1.4-.7-1.9-1.4-1-1.2-1.4-2.8-1.5-3.8-.5-2.3-.4-4.6-.4-4.6l-5.7.8c0 15.6 6.1 19.6 11.3 19.4 5.3-.1 14.4-15.7 14.4-15.7l.7.8c-4.3 10.1-10.4 16.4-15.5 16.9-12.9 1-13.1-16.5-13-21.2l-.6.1h.2l-5.5 5.3s-1.9 11.3 1.9 19.2c3.8 7.9 15.8 6.2 15.8 6.2-.1.1-.1.2-.2.2.1 0 .2-.1.3-.1 3.6-1.4 6.9-4.1 9.6-7.3.6-.7 1.1-1.3 1.6-2 6-8 9.3-17.6 9.3-17.6 27.8-21.6 26.6-36.9 25.4-50.1-1.2-13.2-20.4-38.3-20.4-38.3v.1l.9 5.2z"/><path fill="#5E5F61" d="M128.1 161.2V175c5.6-.1 7-4.5 7-4.5v-24.4l4.1-6h.5v-3.4l-11.6 1.2v23.3z"/><path fill="#696A6C" d="M139.2 140.1l-4.1 6v24.4s-1.4 4.5-7 4.5v3.1h2.3c1.1 0 2.6 0 4.3-.1 4.6-.3 10.7-1 15.6-2.9 2.7-1 5-2.4 6.6-4.2l.2-.2s-12 1.7-15.8-6.2c-3.8-7.9-1.9-19.2-1.9-19.2l5.5-5.3h-5.7z"/><path fill="#454547" d="M167.5 111.8c0 .1-1.8 29.4-13.9 30.6v1.1c.1 1 .4 2.6 1.5 3.8.5.6 1.1 1 1.9 1.4 1 .4 2.2.6 3.8.6 7.8-.5 14.9-8.3 19.7-41.9l-13 4.4z"/><path fill="#454547" d="M145.4 138.9s0 .4-.1 1.1c-.2 4.6.1 22.2 13 21.2 5.1-.5 11.2-6.9 15.5-16.9l-.7-.8s-9.1 15.6-14.4 15.7c-5.3.1-11.3-3.9-11.3-19.4l-2-.9z"/><path fill="#5E5F61" d="M139.8 211.3l-8 2.3v-6.7l8.7.2 2.5-3-14.9-1.3V256c1.7 0 3.4 0 5.1-.1l6.6-44.6z"/><path fill="#77787B" d="M177.3 202.8l6.2-3.4-.1-.1-.4.1-18.1-21.3-8.8 10.4-9.6 11.4-3.5 4.2-2.5 3-.1.1-.6 4.1-6.7 44.6c5.9-.2 11.7-.9 17.4-1.9 7.1-37.3 26.8-51.2 26.8-51.2z"/><path fill="#5E5F61" d="M168.4 161.5l4.7 7.6 33.8 17.2c-10.8 2.9-29.8-3.5-38-6.6-2.5-.9-4-1.6-4-1.6l18.1 21.3.4-.1 23.7-8.1 7.8-2.7 2-.7 9-3.5c.2-.1.5-.2.7-.3L175 162.8l-6.6-1.3z"/><path fill="#696A6C" d="M180 219.9c19.6-18.4 32-28.4 45.9-35.6l-9 3.5-1.9.7-6.9 2.7-29.4 11.5c-14.9 17.3-22.4 35.1-25.8 50.7 2.8-.5 5.5-1.2 8.2-1.9 3.7-11.4 9.5-22.8 18.9-31.6z"/><path fill="#5E5F61" d="M225.9 184.4c-13.9 7.2-26.3 17.2-45.9 35.6-9.4 8.8-15.2 20.2-18.8 31.7 16.4-4.4 31.5-11.9 44.6-22 7.8-13.8 18.3-26.9 32.5-36.5 3.3-5.5 6.2-11.3 8.6-17.4-7.5 2.5-14 5.1-20.2 8.2-.3.1-.6.2-.8.4z"/><path fill="#77787B" d="M205.7 229.7c13-10 24.1-22.4 32.5-36.5-14.2 9.6-24.7 22.7-32.5 36.5z"/><path fill="#231F20" d="M78.7 202.8l-6.2-3.4.1-.1-23.7-8.1-1 .1 29.4 11.5c14.9 17.3 22.4 35.1 25.8 50.7.8.2 1.6.3 2.4.5-7.1-37.3-26.8-51.2-26.8-51.2zM41 188.5v.1l6.9 2.7.9-.1zm48.2-25c-.6-.7-1.1-1.3-1.6-2l-4.7 7.6-33.8 17.2c10.8 2.9 29.8-3.5 38-6.6l2.1-16.2z"/><path fill="#383638" d="M128.1 189.2v-3.3 3.2c-8.9 7.7-18.6 7.5-18.6 7.5v3.3l3.5 4.2 15.1-1.3v-13.6zm0-28v13.9-.1z"/><path fill="#383638" d="M128.1 178.2h-2.5l-.3 6.1-3.4 2.4c-3-2.2-15.6-2.4-15.6-2.4l1 9.1c6.1 1.1 20.8-7.5 20.8-7.5v-7.7zm-11.9 33.1l8 2.2v-6.7l-8.7.3h.1z"/><path fill="#383638" d="M106.1 181.4c7.3-.3 15 1.9 15 1.9l1.1-.6-1-4.7c-4.6-.3-10.7-1-15.6-2.9l.5 6.3z"/><path fill="#231F20" d="M128.1 189.1v-3.2s-14.7 8.6-20.8 7.5l-1-9.1s12.6.2 15.6 2.4l3.4-2.4.3-6.1c-1.1 0-2.6 0-4.3-.1l1 4.7-1.1.6s-7.7-2.2-15-1.9l-.5-6.2c-2.7-1-5-2.4-6.6-4.2-.1 0-.2-.1-.3-.1l1 17.7 9.6 11.4v-3.3c.1-.2 9.8 0 18.7-7.7z"/><path fill="#5E5F61" d="M98.8 170.9c-3.6-1.4-6.9-4.1-9.6-7.3l-2.1 16.2c2.5-.9 4-1.6 4-1.6l8.8 10.4-1.1-17.7z"/><path fill="#231F20" d="M110.6 138.9h-7.8l5.7.8zm4.1-35.8c-.3-2.1-.6-4.2-1-6.1-.9-4.6-3.3-9.3-6.2-13.6-3.7-.3-8.5 0-11.9 2.1l-4.1-4.1s3.1-4.7 7.5-8.6c-.8-.9-1.6-1.7-2.2-2.4-3.9 4.8-7.7 11.2-7.7 11.2 9.4 9.9 19.8 17.5 25.6 21.5zm-50.3-14l5.1-9-.1-.1.3-.2v-.1l5.2-3c-2.3-2.7-3.8-4.3-3.8-4.3C60.9 81.3 62.5 90 62.5 90c3.4 6.5 5 10.8 3.4 12.9s-5.5-3.8-5.5-3.8c3.6 32.1 16.5 37.6 16.5 37.6-1.9-3.4-7.7-33.8-7.7-33.8l6.5 4.3 12.9 4.5C77.5 98.3 64.4 89.1 64.4 89.1z"/><path fill="#231F20" d="M102.4 142.3v1.1c.5-2.3.4-4.6.4-4.6-2-9.8-7.8-19.2-14.3-27.1 0 .2 1.8 29.5 13.9 30.6zm-30-81.5C60.2 72.1 59.1 94.6 59.1 94.6 61.3 77.1 72 63.5 72 63.5c.1-.9.3-1.9.4-2.8v.1zm44 75.9l11.7 1.2v5.1-8.2h-11.8l-3 4.1h-2.7s0 .4.1 1.1l.6.1h5.1v-3.4zM99 148.6c.8-.2 1.4-.7 1.9-1.4-.4.6-1 1.1-1.9 1.4zm29.1-80.4v33.2-33.2z"/><path fill="#383638" d="M69.5 80.1l.2-.3-.3.2.1.1zm43.8 58.8l3-4.1v-1.9c-2-10.4-30.9-44.2-41.4-56.2l-5.2 3c28.5 22.6 43.6 59.2 43.6 59.2z"/><path fill="#5E5F61" d="M72.4 60.7c-.1.9-.3 1.8-.4 2.8l-.9 9s1.4 1.6 3.8 4.3c10.5 12 39.4 45.8 41.4 56.2 0-4.1-.1-14-1-23.7-9.8-7.6-29.8-27.8-29.8-27.8 1.6-5.4 5.5-10.3 8.5-13.7-.5-.4-.7-.7-.7-.7l-14.8-31c-.1 0-.2-.1-.3-.2 0 0-2.8 7.9-5 19.7l-.8 5.1z"/><path fill="#383638" d="M114.7 103.1c-5.8-4-16.2-11.6-25.6-21.4 0 0 3.8-6.5 7.7-11.2l-2.7-2.7c-3.1 3.4-6.9 8.3-8.5 13.7 0 0 20 20.2 29.8 27.8-.2-2.2-.4-4.2-.7-6.2z"/><path fill="#696A6C" d="M122.6 47.8s2.4 1.3 5.5 1.3V8.4h-.1c-.8-.1-7.5-.6-11.8 1.9.7-.1 1.5-.1 2.2-.1l4.2 37.6z"/><path fill="#5E5F61" d="M128.1 68.2zm0-5.5V49.1c-3.1 0-5.5-1.3-5.5-1.3l-4.2-37.7c-.8 0-1.5.1-2.2.1-3.1.2-5.7.8-7.6 1.3 0 .1 2.6 29.1 19.5 51.2z"/><path fill="#383638" d="M118.3 51.2c4.3 10.3 9.8 13.4 9.8 13.4v3.6-5.6c-16.8-22-19.4-51.1-19.4-51.1l-1.9-1.4c-.5 13.3 7.2 30.8 11.5 41.1z"/><path fill="#696A6C" d="M91.5 81.4l4.1 4.1c3.4-2.2 8.2-2.4 11.9-2.1-2.7-4.1-5.8-7.8-8.4-10.6-4.5 4-7.6 8.6-7.6 8.6z"/><path fill="#4E4F51" d="M93.4 67s.3.2.7.7c.6.6 1.6 1.5 2.7 2.7.7.7 1.4 1.5 2.2 2.4 2.6 2.8 5.7 6.5 8.4 10.6 2.9 4.3 5.3 9 6.2 13.6.4 1.9.7 4 1 6.1.3 2 .5 4 .7 6.1.9 9.7 1 19.6 1 23.7v1.9h11.8V64.6s-5.5-3.1-9.8-13.4c-4.3-10.3-12-27.9-11.5-41.1 0 0-21.6 13.6-28.5 25.5l.2.5L93.4 67z"/><path fill="#696A6C" d="M113.3 138.9s-15.1-36.6-43.6-59.1v.1l-.2.3-5.1 9s13 9.2 24.1 22.7c6.5 7.9 12.3 17.3 14.3 27.1h10.5z"/><path fill="#696A6C" d="M87.6 161.5c.5.7 1.1 1.4 1.6 2.1 2.7 3.2 6 6 9.6 7.3.1 0 .2.1.3.1l-.2-.2s12 1.7 15.8-6.2c3.8-7.9 1.9-19.2 1.9-19.2l-5.5-5.3h.2l-.6-.1c.2 4.6-.1 22.2-13 21.2-5.1-.5-11.2-6.9-15.5-16.9l.7-.8s9.1 15.6 14.4 15.7c5.3.1 11.3-3.9 11.3-19.4l-5.7-.8s.1 2.2-.4 4.6c-.1 1-.4 2.6-1.5 3.8-.5.7-1.1 1.2-1.9 1.4-1 .4-2.2.6-3.8.6-7.8-.5-14.9-8.3-19.7-41.9l-6.5-4.3s5.7 30.4 7.7 33.8c0 0-12.9-5.5-16.5-37.6 0 0 3.8 6 5.5 3.8s0-6.5-3.4-12.9c0 0-1.6-8.8 8.7-17.6l.9-9S61.2 77.4 59.1 94.8c0 0 1.1-22.5 13.3-33.8v-.1l.8-5v-.1S54 80.9 52.8 94.1c-1.2 13.2-2.4 28.5 25.4 50.1.1-.3 3.4 9.3 9.4 17.3z"/><path fill="#4E4F51" d="M128.1 161.2v-23.3l-11.7-1.2v3.4h.5l4.1 6v24.4s1.4 4.6 7.2 4.6v-13.9z"/><path fill="#5E5F61" d="M105.7 175.2c4.9 1.9 11 2.6 15.6 2.9 1.7.1 3.2.1 4.3.1h2.5v-3.1c-5.8 0-7.2-4.6-7.2-4.6v-24.4l-4.1-6H111l5.5 5.3s1.9 11.3-1.9 19.2c-3.8 7.9-15.8 6.2-15.8 6.2.1.1.1.2.2.2 1.7 1.8 4 3.2 6.7 4.2z"/><path fill="#454547" d="M102.4 142.3c-12.1-1.1-13.9-30.4-13.9-30.5l-12.9-4.5c4.7 33.6 11.8 41.4 19.7 41.9 1.6.1 2.8-.1 3.8-.6.8-.4 1.4-.8 1.9-1.4 1-1.2 1.4-2.8 1.5-3.8 0-.6-.1-1.1-.1-1.1z"/><path fill="#383638" d="M108.5 139.7c0 15.6-6.1 19.6-11.3 19.4-5.3-.1-14.4-15.7-14.4-15.7l-.7.8c4.3 10.1 10.4 16.4 15.5 16.9 12.9 1 13.1-16.5 13-21.2 0-.7-.1-1.1-.1-1.1l-2 .9z"/><path fill="#4E4F51" d="M128.1 202.8l-15.1 1.3 2.5 3 8.7-.2v6.7l-8-2.3 6.7 44.6c1.7.1 3.4.1 5.2.1h.1v-53.2z"/><path fill="#696A6C" d="M116.2 211.3l-.6-4.1-.1-.1-2.5-3-3.5-4.2-9.6-11.4-8.8-10.4L73 199.5l-.4-.1-.1.1 6.2 3.4s19.7 13.8 26.7 51.2c5.7 1 11.5 1.6 17.4 1.9l-6.6-44.7z"/><path fill="#454547" d="M39.1 187.9l2 .7 7.8 2.7 23.7 8.1.4.1 18.1-21.3s-1.5.7-4 1.6c-8.2 3.1-27.3 9.5-38 6.6l33.8-17.2 4.7-7.6-6.6 1.3L29.4 184c.2.1.5.2.7.3l9 3.6z"/><path fill="#5E5F61" d="M47.9 191.3l-6.9-2.7-1.9-.7-9-3.5C44 191.6 56.4 201.6 76 220c9.4 8.8 15.2 20.2 18.8 31.7 2.7.7 5.4 1.4 8.2 1.9-3.4-15.6-10.9-33.5-25.8-50.7l-29.3-11.6z"/><path fill="#454547" d="M76 219.9c-19.6-18.4-32-28.4-45.9-35.6-.2-.1-.5-.2-.7-.3-6.2-3.1-12.6-5.7-20.2-8.2 2.4 6 5.3 11.8 8.6 17.4 14.2 9.7 24.7 22.7 32.5 36.5 13.1 10 28.2 17.6 44.6 22-3.7-11.6-9.5-23-18.9-31.8z"/><path fill="#5E5F61" d="M17.8 193.1c8.4 14.2 19.4 26.6 32.5 36.5-7.8-13.7-18.3-26.8-32.5-36.5z"/></svg>