<svg xmlns="http://www.w3.org/2000/svg" width="256" height="256"><circle fill="#B1B3B5" cx="128" cy="128" r="128"/><path fill="#383638" d="M202.6 205l3.3-2-3.3-2.9-3.5 1.6-12.8-7-7.3-12.8v-2.6l-4.2-1.3v3.8h-3.1l.7 9.1 1 1.5 21.8 20.1v4.8l-15.9 1.1 5.1 4.3.2 9.2 15.5-11.4s2.1 2.3 5.3 6.2c2.8-1.9 9-6.2 9-6.2l-3.9-8.8-7-1.5-.9-5.2z"/><path fill="#77787B" d="M170.9 166.4l-.4-.8.2 1.8zm.8 15.5h3.1v-3.8l4.1 1.3v2.5l7.4 12.8 12.7 7 3.6-1.6 3.2 2.9-3.2 2 .9 5.3 7 1.5-2.5-5.6 2.7-1.1-1.1-1.5 1.5-2.2-29.3-23.3h-1.6L171 172z"/><path fill="#454547" d="M145.1 239.4l2.6-3.5-2.1-.7-1.4-7.8-16.3 4.6v24c10.6 0 20.9-1.3 30.8-3.7l.1-.2-13.7-12.7zM128 206.2v15.3l14.9-2-3.6-20.3.4-4.7-2.3 11.7zm19.2 15.3l.7 5.8L161 219l1.5 4.3 6.7-5.5v-18l-7-1.9-5.5 3.7 3.3 13.8zm1.6-45.4l5.1 17-8.9 3.5.6 4.5 9.9-4.5.2.9 6.4-3.8-2.3-27.7c-.6 2.1-3 6.9-11 10.1z"/><path fill="#656668" d="M159.9 166l2.3 27.7-6.4 3.8 1 4.1 5.4-3.8 7 1.9v18l4.8-3.9v-20.5l-.6-.9-1-1.5-.7-9.1-.7-10-.3-4.5-.1-1.9-.7-9.4c-2.3 4.7-5.6 8.7-10 10z"/><path fill="#555658" d="M128 183.5v22.7h9.4l2.2-11.7 1.4-16.2c-3.6.7-7.9 1.1-13 1.1v4.1zm0 38v10.6l16.3-4.7-1.4-7.9z"/><path fill="#696A6C" d="M162.5 223.3L161 219l-13.2 8.3-.6-5.7 12.8-6.1-3.3-13.8-1-4.1-.2-.9-9.9 4.5-.6-4.5 8.9-3.5-5.1-17c-2.1.9-4.7 1.6-7.8 2.2l-1.4 16.2-.4 4.7 3.6 20.4 1.4 7.9 1.4 7.8 2.1.7 1.3-1.7 13.5-11.1z"/><path fill="#77787B" d="M179.1 70.8c-.7 0-.3 7.8-.4 15.2 0 0 2.8 3.3 3.5 7 .1.7.2 1.5.3 2.2.1.5.2 1.2.2 2.1 0 .7.1 1.5.1 2.2.4 4.4 1.5 12.8 3.4 16.9 0 0-.7 18.5-6.7 31.5h2s6.9-23 8.1-33.5c1.2-10.5 2.9-37.6 1.2-49.1s-9.1-22-10.8-21.6 1 3.6 3.6 12.9-.2 23.2-.2 23.2-3-9-4.3-9z"/><path fill="#383638" d="M139.7 144.2l3.1 3 4.8-3 13.2 12.7c.1-.3.2-.6.4-.9l-3.1-3.4-3.7-3.9s1.8-1.1 3.8-4.6c2.1-3.5 4.8-12.1 1.1-14.4-.8-.5-1.6-.4-2.3 0-1.5 2.4-2.8 4.7-3.9 6.6-.1.3-.2.5-.2.5v-.3c-2 3.5-3.2 5.8-3.2 5.8l-3.6-3H128v4.8h11.7z"/><path fill="#77787B" d="M175.6 115.9l-3 .3c-2.4.2-4.8.1-6.5.1 3.1 5.2 4.5 9.8 4.5 17.3 0 10.5-8.4 23.5-8.4 23.5l-1-1.1c-.1.3-.3.6-.4.9l1.4 1.3s-1.7 3.7-3.7 7.4l1.7-.7s0 .4-.3 1c4.5-1.3 7.7-5.3 10-9.9 2-4 3.3-8.4 4-11.9.6-2.7.9-6.7 1.2-10.9l.5-17.3zM128 139.5h9.6l8.1-128C140.6 7.6 128 8.2 128 8.2v131.3z"/><path fill="#696A6C" d="M137.6 139.5h8.7l.9-2.5H140l2.3-36.9 7.4-8.9s21.1-6.2 24.2-5.3c1.4.4 1.8 2 1.8 3.7l3.1-3.7c.1-7.4-.3-15.2.4-15.2 1.3 0 4.4 8.9 4.4 8.9s-4.4-23.6-8.2-39.3c-3.8-15.6-29.5-29.1-29.5-29.1l-8.3 128.3zm10 4.7l-4.8 3-3.1-3s-3.8 25.9 4.8 28.7c2.9 0 9.3-5.4 9.3-5.4l4.7-1.9c2-3.6 3.7-7.4 3.7-7.4l-1.4-1.3-13.2-12.7z"/><path fill="#77787B" d="M153.7 167.6s-6.4 5.4-9.3 5.4c-8.6-2.9-4.8-28.7-4.8-28.7H128v35.1c5.1 0 9.4-.4 13-1.1 3-.6 5.6-1.3 7.8-2.2 8-3.2 10.4-8 11-10.1.2-.6.3-1 .3-1l-1.7.7-4.7 1.9z"/><path fill="#555658" d="M175.6 106.6c-2.7 1.4-6.1 5.1-9.5 9.7.6-.8 8.6-10.3 10.6-6.9 2 3.6-4.1 6.8-4.1 6.8 1-.1 2.1-.2 3-.3h.1c.7-.3 4.2-2.7 6.2-15.4-.8 2-2.6 4.2-6.3 6.1zm7.2-7.2c0-.7 0-1.4-.1-2.2v.7c-.1.4 0 .9.1 1.5zm-.3-4.3c-.1-.7-.2-1.5-.3-2.2.1.5.2 1.1.2 1.6-.1.1 0 .3.1.6zm-16.4 21.2c1.7 0 4.1 0 6.5-.1l-6.5.1z"/><path fill="#696A6C" d="M159.9 125.2c2.5-.4 6 .5 6.5 8.3.7 11.5-7.7 19.8-7.7 19.8l-.6-.7 3.1 3.4 1 1.1s8.4-13 8.4-23.5c0-7.5-1.4-12.1-4.5-17.3-2.1 2.8-4.2 5.8-6.2 8.9z"/><path fill="#555658" d="M153 136.7l.8-8.1 3.7-2.6s1.1-.6 2.5-.9c1.9-3 4-6.1 6.1-8.9v-.1c3.4-4.5 6.8-8.3 9.5-9.7 3.6-1.8 5.4-4.1 6.3-6.1.2-1.2.4-2.5.6-4 0 0 0 .5.1 1.4V97c0-.9-.1-1.6-.2-2.1-.1-.4-.1-.6-.1-.6 0-.5-.1-1.1-.2-1.6-.7-3.7-3.5-7-3.5-7l-3.1 3.7c-.1 2.2-1 4.6-1.8 5.4-1.4 1.4-23.8 33.3-26.7 41.9l-.9 2.5 3.6 3c.1.3 1.3-2 3.3-5.5z"/><path fill="#555658" d="M153.1 136.5c1.1-1.9 2.4-4.2 3.9-6.6-2 1.3-3.4 5.2-3.9 6.6z"/><path fill="#555658" d="M166.4 133.5c-.5-7.8-4-8.7-6.5-8.3-1.4.2-2.5.9-2.5.9l-3.7 2.6-.8 8.1v.3s.1-.2.2-.5c.5-1.4 1.9-5.3 3.9-6.6.7-.5 1.5-.5 2.3 0 3.7 2.2 1 10.9-1.1 14.4s-3.8 4.6-3.8 4.6l3.7 3.9.6.7c0-.3 8.4-8.6 7.7-20.1z"/><path fill="#454547" d="M176.7 109.4c-1.9-3.5-9.9 6.1-10.6 6.9v.1l6.5-.1c0-.2 6.1-3.4 4.1-6.9z"/><path fill="#383638" d="M182.8 99.4c-.1-.6-.1-1.1-.1-1.5-.1-.9-.1-1.4-.1-1.4-.2 1.4-.4 2.7-.6 4-2.1 12.7-5.5 15.1-6.2 15.4h-.2l-.5 17.4 5.9-4.5c-.5 9.3-2.9 15.4-2.9 15.4l1.4 3.5c6-12.9 6.7-31.5 6.7-31.5-2-4-3-12.3-3.4-16.8z"/><path fill="#5E5F61" d="M173.8 95.1c.8-.8 1.7-3.2 1.8-5.4.1-1.7-.4-3.3-1.8-3.7-3.1-1-24.2 5.3-24.2 5.3l-7.4 8.9-2.3 36.9h7.2c2.9-8.7 25.2-40.6 26.7-42zm-23-2.9l24.2-4.6s-6.7 4.6-7.9 10.6l-22.8 2.6 6.5-8.6z"/><path fill="#383638" d="M175 87.5l-24.2 4.6-6.5 8.6 22.8-2.6c1.2-5.9 7.9-10.6 7.9-10.6z"/><path fill="#656668" d="M149 234.3l11.8 10.5 23.6-22-5.1-4.3-5.3-4.6-4.8 3.9-6.7 5.5z"/><path fill="#555658" d="M160.8 244.8L149 234.3l-1.3 1.6-2.6 3.5 13.8 12.6.4-1.4 25.3-18.6-.2-9.2z"/><path fill="#656668" d="M210.7 205.1l-2.7 1.1 2.5 5.6 3.9 8.8s-6.2 4.3-9 6.2c.5.6 1 1.3 1.6 1.9 5.2-4.1 10-8.5 14.5-13.4l-4.5-1.4-6.3-8.8z"/><path fill="#77787B" d="M200.2 220.6L184.6 232l-25.3 18.6-.4 1.4-.1.2c17.9-4.4 34.2-12.6 48.2-23.6-.6-.7-1.1-1.3-1.6-1.9-3.1-3.8-5.2-6.1-5.2-6.1z"/><path fill="#5E5F61" d="M218.7 189.9c-7.5 1.3-7.7 11.5-7.7 11.5l-1.4 2.2 1.1 1.5 6.4 8.8 4.5 1.4c7.6-8.1 14.1-17.3 19.4-27.2-9.7-.4-18.3 1.1-22.3 1.8z"/><path fill="#383638" d="M76.7 218.5l-15.9-1.1v-4.8l21.8-20.1 1-1.5.7-9.1h-3.1v-3.8l-4.2 1.3v2.6l-7.3 12.8-12.8 7-3.5-1.6-3.3 2.9 3.3 2-1 5.4-7 1.5-3.9 8.8s6.2 4.3 9 6.2c3.2-3.8 5.3-6.2 5.3-6.2L71.4 232l.2-9.2 5.1-4.3z"/><path fill="#67686B" d="M45.3 205.1l2.7 1.1-2.5 5.6 7-1.5.9-5.3-3.2-2 3.2-2.9 3.6 1.6 12.7-7 7.4-12.8v-2.5l4.1-1.3v3.8h3.1l.7-9.9-9.2 6.1h-1.6l-29.3 23.3 1.5 2.2zm39.8-38.7l.2 1 .2-1.8z"/><path fill="#404041" d="M95 219l13.1 8.3.7-5.8-12.8-6.1 3.3-13.8-5.5-3.7-7 1.9v18l6.7 5.5zm16.7 8.4l-1.4 7.8-2.1.7 2.6 3.5L97.1 252l.1.2c9.9 2.4 20.2 3.7 30.8 3.7V232l-16.3-4.6zm-1.3-26.3l.6-4.5-8.9-3.5 5.1-17c-8-3.2-10.4-8-11-10.1l-2.3 27.7 6.4 3.8.2-.9 9.9 4.5zm8.2 5.1l-2.3-11.7.4 4.7-3.6 20.3 14.9 2v-15.3z"/><path fill="#5C5D60" d="M84.3 181.9l-.7 9.1-1 1.5-.6.9v20.5l4.8 3.9v-18l7-1.9 5.4 3.8 1-4.1-6.4-3.8 2.3-27.7c-4.5-1.3-7.7-5.3-10-9.9l-.7 9.4-.1 1.9-.3 4.5-.7 9.9z"/><path fill="#454547" d="M128 206.2v-26.9c-5.1 0-9.4-.4-13-1.1l1.4 16.2 2.2 11.7h9.4z"/><path fill="#555658" d="M113.1 219.5l-1.4 7.9 16.3 4.7v-10.6z"/><path fill="#58595B" d="M116.7 199.2l-.4-4.7-1.4-16.2c-3-.6-5.6-1.3-7.8-2.2l-5.1 17 8.9 3.5-.6 4.5-9.9-4.5-.2.9-1 4.1-3.2 13.8 12.8 6.1-.6 5.7L95 219l-1.4 4.4 13.5 11 1.3 1.7 2.1-.7 1.4-7.8 1.4-7.9 3.4-20.5z"/><path fill="#67686B" d="M73.2 99.4c0-.7 0-1.4.1-2.2 0-.9.1-1.6.2-2.1.1-.7.2-1.5.3-2.2.7-3.7 3.5-7 3.5-7-.1-7.4.3-15.2-.4-15.2-1.3 0-4.4 8.9-4.4 8.9s-2.8-13.9-.2-23.2c2.6-9.3 5.3-12.5 3.6-12.9s-9.1 10.1-10.8 21.6 0 38.6 1.2 49.1 8.1 33.5 8.1 33.5h2c-6-12.9-6.7-31.5-6.7-31.5 2.1-4 3.1-12.3 3.5-16.8z"/><path fill="#231F20" d="M108.4 144.2l4.8 3 3.1-3H128v-4.8h-18.3l-3.6 3s-1.2-2.3-3.2-5.8v.3s-.1-.2-.2-.5c-1.1-1.9-2.4-4.2-3.9-6.6-.7-.5-1.5-.5-2.3 0-3.7 2.2-1 10.9 1.1 14.4s3.8 4.6 3.8 4.6l-3.7 3.9-3.1 3.4c.1.3.3.6.4.9l13.4-12.8z"/><path fill="#67686B" d="M96.1 166s.1 0 0 0c-.2-.6-.2-1-.2-1l1.7.7c-2-3.6-3.7-7.4-3.7-7.4l1.4-1.3c-.1-.3-.2-.6-.4-.9l-1 1.1s-8.4-13-8.4-23.5c0-7.5 1.4-12.1 4.5-17.3-1.7 0-4.1 0-6.5-.1-1-.1-2.1-.2-3-.3h.1l.5 17.4c.3 4.2.7 8.3 1.2 10.9.7 3.5 2 7.9 4 11.9 2.1 4.5 5.4 8.5 9.8 9.8zm22.3-26.5h9.6V8.2s-12.6-.6-17.7 3.2l8.1 128.1z"/><path fill="#58595B" d="M76.9 70.8c.7 0 .3 7.8.4 15.2l3.1 3.7c-.1-1.7.4-3.3 1.8-3.7 3.1-1 24.2 5.3 24.2 5.3l7.4 8.9 2.3 36.9h-7.2l.9 2.5h8.7l-8.1-128S84.7 25 80.9 40.7C77.1 56.3 72.7 80 72.7 80s2.9-9.2 4.2-9.2zm25.4 96.8s6.4 5.4 9.3 5.4c8.6-2.9 4.8-28.7 4.8-28.7l-3.1 3-4.8-3L95.3 157l-1.4 1.3s1.7 3.7 3.7 7.4l4.7 1.9z"/><path fill="#67686B" d="M107.2 176.1c2.1.9 4.7 1.6 7.8 2.2 3.6.7 7.9 1.1 13 1.1v-35.1h-11.7s3.8 25.9-4.8 28.7c-2.9 0-9.3-5.4-9.3-5.4l-4.7-1.9-1.7-.7s0 .4.3 1c.7 2.1 3.1 6.9 11.1 10.1z"/><path fill="#404041" d="M79.3 109.4c1.9-3.5 9.9 6.1 10.6 6.9-3.4-4.5-6.8-8.3-9.5-9.7-3.6-1.8-5.4-4.1-6.3-6.1 2.1 12.7 5.5 15.1 6.2 15.4h.1l3 .3c0-.1-6.1-3.3-4.1-6.8zm-6.1-10c.1-.6.1-1.1.1-1.5v-.7c0 .8 0 1.5-.1 2.2zm.6-6.4s0-.1 0 0c-.1.7-.2 1.4-.3 2.2.1-.4.1-.6.1-.6.1-.5.1-1.1.2-1.6z"/><path fill="#404041" d="M83.4 116.2c2.4.2 4.8.1 6.5.1l-6.5-.1z"/><path fill="#58595B" d="M97.9 152.7l-.6.7s-8.4-8.3-7.7-19.8c.5-7.8 4-8.7 6.5-8.3-1.9-3-4-6.1-6.1-8.9-3.1 5.2-4.5 9.8-4.5 17.3 0 10.5 8.4 23.5 8.4 23.5l1-1.1 3-3.4z"/><path fill="#404041" d="M99 129.9c1.5 2.4 2.8 4.7 3.9 6.6-.5-1.4-1.9-5.3-3.9-6.6z"/><path fill="#404041" d="M96.1 125.2c1.4.2 2.5.9 2.5.9l3.7 2.6.8 8.1c2 3.5 3.2 5.8 3.2 5.8l3.6-3-.9-2.5c-2.9-8.6-25.2-40.5-26.7-41.9-.8-.8-1.7-3.2-1.8-5.4L77.3 86s-2.8 3.3-3.5 7c-.1.5-.2 1.1-.2 1.6 0 0-.1.2-.1.6-.1.5-.2 1.2-.2 2.1v.7c.1-.9.1-1.4.1-1.4.2 1.4.4 2.7.6 4 .9 2 2.7 4.3 6.3 6.1 2.7 1.4 6.1 5.1 9.5 9.7v.1c2.2 2.6 4.3 5.6 6.3 8.7z"/><path fill="#404041" d="M102.3 128.6l-3.7-2.6s-1.1-.6-2.5-.9c-2.5-.4-6 .5-6.5 8.3-.7 11.5 7.7 19.8 7.7 19.8l.6-.7 3.7-3.9s-1.8-1.1-3.8-4.6c-2.1-3.5-4.8-12.1-1.1-14.4.8-.5 1.6-.4 2.3 0 2 1.2 3.4 5.2 3.9 6.6.1.3.2.5.2.5v-.3l-.8-7.8z"/><path fill="#3B3A3C" d="M89.9 116.3s0-.1 0 0c-.7-.8-8.7-10.4-10.6-6.9-2 3.6 4.1 6.8 4.1 6.8l6.5.1z"/><path fill="#231F20" d="M80.4 115.9c-.1 0-.1 0 0 0-.8-.4-4.2-2.7-6.3-15.4-.2-1.2-.4-2.5-.6-4 0 0 0 .5-.1 1.4 0 .4-.1.9-.1 1.5-.4 4.4-1.5 12.8-3.4 16.9 0 0 .7 18.5 6.7 31.5l1.4-3.5s-2.4-6.1-2.9-15.4l5.9 4.5-.6-17.5z"/><path fill="#4D4D4F" d="M108.9 137h7.2l-2.3-36.9-7.4-8.9S85.3 85 82.2 85.9c-1.4.4-1.8 2-1.8 3.7.1 2.2 1 4.6 1.8 5.4 1.5 1.5 23.8 33.4 26.7 42zm-3.7-44.8l6.5 8.6-22.8-2.6c-1.2-6-7.9-10.6-7.9-10.6l24.2 4.6z"/><path fill="#231F20" d="M88.9 98.2l22.8 2.6-6.5-8.6L81 87.5s6.7 4.7 7.9 10.7z"/><path fill="#5C5D60" d="M71.6 222.8l23.6 22 11.8-10.5-13.5-11-6.7-5.5-4.8-3.9-5.3 4.6z"/><path fill="#4D4D4F" d="M95.2 244.8l-23.6-22-.2 9.2 25.3 18.6.4 1.4 13.8-12.6-2.6-3.5-1.3-1.6z"/><path fill="#5C5D60" d="M41.6 220.6l3.9-8.8 2.5-5.6-2.7-1.1-6.4 8.8-4.5 1.4c4.5 4.8 9.3 9.3 14.5 13.4.6-.7 1.1-1.3 1.6-1.9-2.7-2-8.9-6.2-8.9-6.2z"/><path fill="#67686B" d="M96.7 250.6L71.4 232l-15.5-11.4s-2.1 2.3-5.3 6.2c-.5.6-1 1.3-1.6 1.9 14 11 30.4 19.2 48.2 23.6l-.1-.2-.4-1.5z"/><path fill="#4D4D4F" d="M45.3 205.1l1.1-1.5-1.4-2.2s-.2-10.2-7.7-11.5c-4-.7-12.6-2.2-22.3-1.7 5.3 9.9 11.8 19 19.4 27.2l4.5-1.4 6.4-8.9z"/></svg>