<svg xmlns="http://www.w3.org/2000/svg" width="256" height="256"><circle fill="#B2B4B5" cx="128" cy="128" r="128"/><path fill="none" d="M174.4 126.6l-.5 4.1-3.1 1.9c-.2.8-.5 1.7-.7 2.7l1-1.7c.2.3 1.1 4.5 2.7 11.1 9.8-12.2 11.2-21.9 11.2-21.9l-.9-1.6v-4.5l-5.4-4.5c-.9 1-1.8 1.9-2.7 2.9l-1.6 11.5zm-88.8 8.8c-.3-1-.5-2-.8-2.8l-3.1-1.9-.5-4.1-1.5-11.5c-.9-1-1.9-1.9-2.7-2.9l-5.4 4.5v4.5l-.9 1.6s1.4 9.8 11.3 22.1c1.6-6.6 2.5-10.8 2.7-11l.9 1.5z"/><path fill="#1F1F1F" d="M227.6 208.4c1.9-2.4 3.7-4.8 5.5-7.3-3.4 2.1-4.9 5.2-5.5 7.3zm-57.8 9.8l31 4.9 12.6.1c.8-.7 1.6-1.5 2.4-2.2h-8.7l-37.3-2.8zm-16.9-48.7c-.1.1-.2.3-.5.6l3.8 2.6c-.1-1.8-.1-3.5-.1-5.3-.7.8-1.7 1.7-3.2 2.1zm29.5 5.7c3.7 11.3 8.3 23.2 13.7 33.2l12 2.1c.1-.1.3-.4.6-.8-3.8-21.2-19.5-31.2-26.3-34.5zm-30.5 75.6V249h-16.4v-13h16.4v-1.4h-16.5s-.4-11.8-7.5-18.3V256h.2c2.5 0 5-.1 7.5-.2v-4.9h16.3v-.1zm17.7-32.6l-8.2 33.4c.8-.2 1.6-.4 2.4-.7l5.8-32.7zm-41.8-46.8v11.5h12.3l1.6 1.3 11.6-7.4h.2l-5.5-3.4c-3.8 2-10.1 4.1-20.2 4.1v-6.1z"/><path fill="#363636" d="M169.7 218.2h.1l37.3 2.8-38.7-8.7s-13.5 1.5-14.4 41c2.5-.5 4.9-1.1 7.3-1.7l8.2-33.4h.2z"/><path fill="#656668" d="M127.8 213.1v3.3c7.1 6.5 7.5 18.3 7.5 18.3h16.5V213l-24 .1zm0-25.9v22.4h10.1v-22.4z"/><path fill="#7D7D7D" d="M153.5 176.8h-.2l-11.6 7.4 14.1 11.3 2.2.1c-.2-1.5-.3-3.1-.5-4.8-.3-3.8-.7-7.9-.9-12l-3.1-2zm1 23l-16.2-12.6h-.5v22.4H153l6.3-2.4c-.1-1.2-.5-3.8-.9-7.4h-3.9z"/><path fill="#ED2224" d="M127.8 182.9v4.3h10.6l16.2 12.6h3.9c-.1-1.3-.3-2.7-.4-4.2l-2.2-.1-14.1-11.3-1.6-1.3h-12.4zm24.6-12.8c-.7.7-2 2-4.4 3.3l5.5 3.4 3.1 1.9c-.1-1.5-.2-3-.2-4.5 0-.5 0-1-.1-1.5l-3.9-2.6z"/><path fill="#363636" d="M180.9 170.4l1.5 4.8c6.7 3.4 22.5 13.4 26.3 34.5 1.8-2.3 7.3-8.9 16.5-15.4-20.6-20.5-39.7-28.8-46.6-31.3.3 1.2.7 2.4 1.1 3.6l1.2 3.8z"/><path fill="#6E6E6E" d="M176 153.3c.8 3 1.7 6.2 2.7 9.6 6.8 2.5 26 10.8 46.6 31.3 1.3-.9 2.7-1.9 4.2-2.8 4.2-2.6 8.2-3.7 11.9-3.9.4-.8.9-1.6 1.3-2.5-19.9-8.9-54.7-24.6-66.7-32v.3z"/><path fill="#9E9E9E" d="M225.2 194.2c-9.2 6.5-14.7 13.1-16.5 15.4-.4.5-.6.8-.6.8h.2l19.2-2.1c.6-2.1 2.1-5.2 5.5-7.3 3-4.4 5.8-8.9 8.3-13.7-3.7.2-7.8 1.3-11.9 3.9-1.5 1.1-2.9 2-4.2 3z"/><path fill="#303030" d="M157.2 165.9s-.3.7-1.1 1.5c0 1.7.1 3.5.1 5.3 0 .5 0 1 .1 1.5l-.1-3.6 5.7-4.6c-.2-2.3-.3-4.7-.4-7-1.3 2.6-2.8 5-4.3 6.9zm1.2 33.9c.4 3.6.7 6.3.9 7.4l7.1-2.8c-.3-2.1-1.2-7.5-2.1-14.7l-6.5 4.5-.3-3.5c.2 1.7.3 3.3.5 4.8.1 1.6.3 3 .4 4.3z"/><path fill="#303030" d="M156.6 178.7c.3 4.2.6 8.3.9 12l6.1-4.9h.2c-.6-4.8-1.1-10.2-1.6-15.7l-5.9 4.1c.1 1.6.2 3.1.3 4.5z"/><path fill="#7D7D7D" d="M170.1 135.3c-1.1 3.8-2.5 8.7-4.3 13.7h4.4c1.4-1.4 2.6-2.9 3.7-4.3-1.6-6.6-2.5-10.8-2.7-11.1l-1.1 1.7zm10.8 35.1l-7.3.1 4.5 15.7 8.4.4 1.8 5.2-7.9-1.2 4.6 14.9h-2.7l-5.3-14.6-12.6-1.1c.9 7.2 1.7 12.6 2.1 14.7l2.2-.8 27.6 4.8c-5.4-10-10-21.9-13.7-33.2-.7-1.8-1.2-3.3-1.7-4.9zm-11.7-17.2l3.6 12.6 6.9.6v.1c-.4-1.2-.7-2.4-1.1-3.6-1-3.4-1.9-6.6-2.7-9.6v.1l-6.7-.2zm-7.7 5.8c.1 2.3.2 4.7.4 7l.2-.2h7.6l-3-12.6H164c-.7 2-1.6 3.9-2.5 5.8z"/><path fill="#7D7D7D" d="M174.7 185.9l-4.2-15.5-8.1-.3-.1.1c.4 5.5 1 10.9 1.6 15.7h10.8z"/><path fill="#656668" d="M172.8 152.6h-2.7V149h-4.4c-.5 1.4-1.1 2.9-1.6 4.3h2.7l3 12.6h-7.6l-.2.2-5.7 4.6.1 3.6 5.9-4.1.1-.1 8.1.3 4.2 15.5h-11.1l-6.1 4.9.3 3.5 6.5-4.5 12.6 1.1 5.3 14.6h2.7l-4.6-14.9 7.9 1.2-1.8-5.2-8.4-.4-4.5-15.7h7.4v-.1l-1.2-3.9v-.1l-6.9-.6-3.6-12.6 6.8.1v-.1l-.1-.3-.7-2.7c-1.5 1.6-2.4 2.4-2.4 2.4z"/><path fill="#595959" d="M170.8 132.6l3.1-1.9.5-4.1-5.8 3.5c-3.4 19.1-13.8 24.8-13.8 24.8l-2.1-.6v-4.9l-4.7-1-3.1 3.1s.1 23.2 12.2 14.6c1.5-1.9 3-4.3 4.3-7 .9-1.8 1.8-3.7 2.6-5.7.6-1.4 1.1-2.8 1.6-4.3 1.8-5 3.3-9.9 4.3-13.7.4-1.1.7-2 .9-2.8zm-4.6-4.3h-.2l-.3 2.7c.3-1.7.5-2.7.5-2.7zM145 151.4l-3.2.2z"/><path fill="#7D7D7D" d="M154.8 154.8c7-7.2 9.9-18.6 10.9-23.8.1-.9.2-1.7.3-2.7-2.2.4-4.4 1.7-5.5 2.3-3.9 4.9-7.9 11-7.6 15.8v2.8h-.2v4.9l2.1.7z"/><path fill="#1F1F1F" d="M160.5 130.7c1.1-.7 3.3-1.9 5.5-2.3h.2s-.1 1-.5 2.7c-1 5.2-3.9 16.6-10.9 23.8 0 0 10.4-5.7 13.8-24.8l5.8-3.5 1.5-11.5c-2.7 2.7-5.5 5.4-8.2 7.7 0 0-3.6 3.4-7.2 7.9zm25.1-59.5s.4.6 1.1 1.8c-.4-.7-.7-1.3-1.1-1.8z"/><path fill="#1F1F1F" d="M178.6 112.2l5.4 4.5v4.5l.9 1.6s-1.4 9.8-11.2 21.9c-1.1 1.4-2.3 2.8-3.7 4.3v3.6h2.7v-3.9s20.7-24.7 21.1-38.8c.5-14.1-8.2-38.7-8.2-38.7l-1 .4v8.5s4.4 11.8 3.4 17.2c-.1.6-.2.8-.2.8-.4 3.5-4.3 8.8-9.2 14.1z"/><path fill="#656668" d="M175.1 98c-.3 1.1-1.2 3.3-4.2 4 0 0-2.9 2.7-2.9 6 0 0-3.8 4.3-10.9 5.1-1.6 1.3-3.1 2.4-4.3 3.3-.5.9-1.1 1.9-2.1 2.4 0 0-.2.3-.4.8l8 9.6-8.7-8.4c-2.1 4.1-6.4 13.7-6.6 22.9l5.8-.4s1.5-10.8 18.9-20.6c2.6-2.3 5.5-5 8.2-7.7.9-1 1.9-1.9 2.7-2.9 4.9-5.3 8.8-10.6 9.2-14.1 0 0 .1-.3.2-.8.2-2 .1-7.8-5.1-20.6h-.1c-.4 6.8-1.4 13.1-3.3 16.3-.7 1.3-2.3 3.1-4.4 5.1zm-18.9 28.6l-1.5-1.6s23.2-16.3 27.8-26.8c0 0-2.5 9.4-26.3 28.4z"/><path fill="#696A6D" d="M135.5 72.2h-.1l.1.1zm-7.7 94.7v10.6c10.1 0 16.4-2 20.2-4.1 2.4-1.3 3.8-2.6 4.4-3.3.3-.3.4-.5.5-.6-1.3.4-2.9.4-4.9-.2-6.4-2.2-6.2-10.4-6.2-17.7l-14 1v14.3z"/><path fill="#696A6D" d="M127.8 90.7h6.4l.3-8.9.8-9.6s0-.2.1-.6c.6-6.8 1.4-14.5 2.5-21.2v-.1c.2-1.1.4-2.2.6-3.2 3.1-19.7-1.2-37.4-1.2-37.4l-9.6-1.4v68.2l.1 14.2z"/><path fill="#696A6D" d="M134.7 81.9c-.1-.1-.2-.1-.2-.1l.2.1c0 .1 0 .1 0 0z"/><path fill="#595959" d="M141.2 143.9c1.2-10.8 5.6-20.6 7.4-24.1L135.4 102h-7.6v42.9l13.4-1z"/><path fill="#1F1F1F" d="M138.6 47.1c.2-1 .4-1.9.6-2.8 3.7-16.9 0-35.9 0-35.9l-1.8 1.4s4.3 17.6 1.2 37.3z"/><path fill="#595959" d="M140.4 74.3l-5-2 7.3 3.9 5.5-8.9s13.8-.6 21.3-15c7-13.5 3.8-22.1 3.4-23.1v-.1.1c.5 1.2 6 14.6-2.2 26.2-8.6 12.2-20.8 15.8-20.8 15.8s-4.6 15.2-5.7 14.9c-1-.3-8.3-3.5-9.5-4.1v.1l10.8 8.3s9.6-6.6 20.2-6.6l9.4 11.3v2.4s0 .3-.1.7c2.1-2 3.7-3.8 4.5-5.1 2-3.3 3-9.6 3.3-16.3.4-6.9.1-14.4-.6-19.4-.8-6.7-3.3-24.1-16-36.3.2 10-25.8 53.2-25.8 53.2zm4.5-64.8c1.7.4 3.2.9 4.7 1.3-1.5-.5-3.1-.9-4.7-1.3zm8.8 103.8s-.2 1.6-1 3.2c1.2-.9 2.7-2 4.3-3.3-1 .1-2.1.1-3.3.1zm-25.9-17.9v5.4h8.6l12.9 17.8v-.1s2.9-1.1 3.7-6.9l-3.5-2.7.5-2.7-5.8-4.2s-3.8.9-2.5-2.5l-7.4-8.9h-6.4v.4l-.1 4.4z"/><path fill="#595959" d="M175.2 97.4s-2.2-1.4-5.1-2.6l5.1 2.6zm-36.1-53.1c-.2.9-.4 1.9-.6 2.8-.2 1-.4 2.1-.6 3.2v.1c-1.1 6.7-1.9 14.4-2.5 21.2.7-3.2 4.2-18.9 7.2-35.9 3.3-18.5 1.4-26 1.3-26.4-1.6-.3-3.2-.7-4.8-.9 0 0 3.7 19 0 35.9z"/><path fill="#656668" d="M141.6 99.6c.1-.1.1-.3.2-.4 0 0 1.1 1.7 1.8 1.7.1 0 .3-.1.6-.3l2.5-7.7 18.1-4.3c3.7 1.9 10.3 8.7 10.3 8.7V95l-9.4-11.3c-10.6 0-20.2 6.6-20.2 6.6L134.7 82l-.2-.2-.3 8.9 7.4 8.9z"/><path fill="#7D7D7D" d="M164.8 88.7L146.7 93l-2.5 7.7c2.1-1.4 9.7-7.7 20.3-8.6l5.6 2.8c3 1.2 5.1 2.6 5.1 2.6s-6.7-6.9-10.4-8.8z"/><path fill="#696A6D" d="M142.7 35.7c-3 17.1-6.5 32.8-7.2 35.9-.1.4-.1.6-.1.6h.1l5 2s26-43.2 25.9-53.4c0 0-3.8-5.8-16.7-10-1.4-.5-3-.9-4.7-1.3-.3-.1-.6-.2-.9-.2 0 .4 1.9 7.9-1.4 26.4z"/><path fill="#ED2224" d="M144.3 86c1.1.3 5.7-14.9 5.7-14.9s12.2-3.6 20.8-15.8c8.2-11.6 2.7-25 2.2-26.2.4 1 3.6 9.6-3.4 23.1-7.5 14.4-21.3 15-21.3 15l-5.5 8.9-7.3-3.9h-.1l-.8 9.6s.1 0 .2.1c1.2.6 8.5 3.8 9.5 4.1z"/><path fill="#1F1F1F" d="M141.1 144.2v-.3l-13.4 1v7.7l14-1 3.1-.2 3.1-3.1 4.7 1h.2v-2.8l-4.1-3.1-5.8.4v.6l-1.8-.2z"/><path fill="#303030" d="M152.9 146.5c-.3-4.8 3.7-10.9 7.6-15.8 3.6-4.5 7.2-7.9 7.2-7.9-17.4 9.8-18.9 20.6-18.9 20.6l4.1 3.1z"/><path fill="#656668" d="M141.8 151.6c0 7.3-.2 15.5 6.2 17.7 2 .7 3.6.6 4.9.2 1.5-.4 2.5-1.3 3.2-2.1s1.1-1.5 1.1-1.5c-12.2 8.7-12.2-14.6-12.2-14.6l-3.2.3z"/><path fill="#1F1F1F" d="M148.6 119.8c-1.8 3.5-6.3 13.3-7.4 24.1v.3l1.9.2v-.6c.2-9.2 4.5-18.8 6.6-22.9l-.8-.8-.3-.3zM164.5 92c-10.6 1-18.2 7.2-20.3 8.6-.3.2-.5.3-.6.3-.8 0-1.8-1.7-1.8-1.7-.1.1-.1.3-.2.4-1.4 3.4 2.5 2.5 2.5 2.5l5.8 4.2-.5 2.7 3.5 2.7c-.8 5.8-3.7 6.9-3.7 6.9v.1l.3.4.7.8c.3-.5.4-.8.4-.8 1-.6 1.6-1.5 2.1-2.4.8-1.6 1-3.2 1-3.2 1.2.1 2.3 0 3.3-.1 7.1-.8 10.9-5.1 10.9-5.1 0-3.3 2.9-6 2.9-6 3-.7 3.9-2.9 4.2-4 .1-.4.1-.7.1-.7L170 95l-5.5-3z"/><path fill="#595959" d="M193.9 109.9c-.5 14.1-21.1 38.8-21.1 38.8v3.9s.9-.9 2.5-2.4c6.2-6.2 22.1-23.7 22.1-40.4 0-16.8-7.7-31.7-10.6-36.8-.7-1.2-1.1-1.8-1.1-1.8s8.6 24.6 8.2 38.7z"/><path fill="#1F1F1F" d="M149.6 118.9l-.3-.4-12.9-17.8h-8.6v1.4h7.6l13.2 17.7.2.3.8.8 8.7 8.5-8.1-9.7z"/><path fill="#ED2224" d="M154.7 125l1.5 1.6c23.9-19 26.3-28.4 26.3-28.4-4.6 10.5-27.8 26.8-27.8 26.8z"/><path fill="#AEC3C3" d="M166.4 204.4l-7.1 2.8-6.3 2.4h-25.2v3.4h24.1l16.6-6.7v-2.7z"/><path fill="#94A6A7" d="M208.1 210.5l-12-2.1-27.6-4.8v8.7l38.7 8.7h8.7c4.2-3.9 8.1-8.1 11.7-12.6l-19.2 2.1h-.3z"/><path fill="#718181" d="M168.5 212.3v-6l-16.7 6.8v40.8c.8-.1 1.5-.3 2.3-.5.9-39.6 14.4-41.1 14.4-41.1z"/><path fill="#656668" d="M135.5 236.1h16.4v13h-16.4zm0 14.7v4.9c5.6-.3 11-1 16.4-2v-2.9h-16.4z"/><path fill="#6E6E6E" d="M169.8 218.2h-.1l-5.9 32.7c18.7-5.4 35.6-15 49.7-27.7l-12.6-.1-31.1-4.9z"/><path fill="#171717" d="M127.8 183v-5.5c-10 0-16.3-2-20.1-4l-5.6 3.4h.2l11.5 7.4 1.6-1.3h12.4zm-28.3-15.5c0 1.7-.1 3.5-.1 5.3l3.9-2.6c-.3-.3-.5-.6-.6-.7-1.4-.4-2.5-1.2-3.2-2zm-52.4 42.1c.4.5.6.7.6.8l12-2.1c5.4-10 10-21.9 13.7-33.1-6.8 3.4-22.5 13.4-26.3 34.4zm73.2 25.1h-16.5v1.4h16.3v13h-16.3v1.8h16.3v5c2.5.2 5.1.2 7.7.2v-39.6c-7.1 6.4-7.5 18.2-7.5 18.2zM86 218.2l5.9 32.6c.8.2 1.6.5 2.4.7l-8.1-33.3H86zm-62.9-16.8c1.6 2.3 3.3 4.5 5 6.7-.6-2-2.1-4.8-5-6.7zm62.8 16.8L48.6 221h-8.5c.8.7 1.6 1.5 2.4 2.2l12.4-.1 31-4.9z"/><path fill="#2B2B2B" d="M87.2 212.3L48.6 221l37.3-2.8h.2l8.1 33.3c2.4.7 4.8 1.2 7.3 1.8-.8-39.5-14.3-41-14.3-41z"/><path fill="#262626" d="M103.8 213.1v21.7h16.5s.4-11.8 7.5-18.3v-3.3l-24-.1zm13.9-25.8v22.4h10.1v-22.4z"/><path fill="#7D7D7D" d="M99.9 195.5l14.1-11.2-11.5-7.4h-.2l-3.1 1.9c-.3 4.1-.6 8.2-.9 12-.2 1.7-.3 3.3-.5 4.8l2.1-.1zm17.4-8.2l-16.1 12.5h-3.9c-.4 3.6-.7 6.2-.9 7.4l6.2 2.4h15.1v-22.4h-.4v.1z"/><path fill="#A91314" d="M117.3 187.3h10.6V183h-12.2l-1.6 1.3-14.1 11.2-2.2.1c-.2 1.5-.3 2.9-.4 4.2h3.9l16-12.5zm-18.2-8.4l3.1-1.9 5.6-3.4c-2.4-1.3-3.8-2.5-4.5-3.3l-3.9 2.6c0 .5 0 1-.1 1.5 0 1.5-.1 3-.2 4.5z"/><path fill="#262626" d="M73.3 175.3l1.5-4.8 1.2-3.9c.4-1.2.7-2.4 1.1-3.6-6.8 2.5-25.9 10.8-46.4 31.2 9.2 6.5 14.6 13.1 16.4 15.4 3.8-21 19.5-31 26.2-34.3z"/><path fill="#656668" d="M30.6 194.2C51.1 173.8 70.2 165.5 77 163c1-3.4 1.9-6.6 2.6-9.6l.1-.3c-12 7.3-46.5 23-66.4 31.8.4.9.9 1.7 1.3 2.5 3.7.3 7.7 1.3 11.8 3.9 1.5 1 2.9 2 4.2 2.9z"/><path fill="#7D7D7D" d="M47.7 210.5c-.1-.1-.3-.4-.6-.8-1.8-2.3-7.3-8.9-16.4-15.4-1.3-.9-2.7-1.9-4.2-2.8-4.1-2.6-8.1-3.6-11.8-3.9 2.5 4.8 5.3 9.4 8.4 13.8 2.9 2 4.4 4.7 5 6.7.1.1.2.3.3.4l19 2h.3z"/><path fill="#1F1F1F" d="M99.5 167.5c-.8-.8-1.1-1.6-1.1-1.6-1.5-1.8-2.9-4.2-4.3-6.8-.1 2.3-.2 4.7-.4 7l5.7 4.6-.1 3.6c0-.5 0-1 .1-1.5.1-1.8.1-3.6.1-5.3zm-3.1 39.7c.1-1.2.5-3.8.9-7.4.1-1.3.3-2.7.4-4.2.2-1.5.3-3.1.5-4.8l-.3 3.5-6.4-4.5c-.9 7.2-1.7 12.6-2 14.6l6.9 2.8z"/><path fill="#1F1F1F" d="M99.3 174.4l-5.9-4.1c-.4 5.5-1 10.9-1.6 15.7h.2l6.1 4.9c.3-3.7.7-7.8.9-12 .2-1.5.3-3 .3-4.5z"/><path fill="#595959" d="M84.6 133.8c-.2.3-1.1 4.5-2.7 11 1.1 1.4 2.3 2.7 3.6 4.2v.1h4.4c-1.8-5-3.3-9.9-4.4-13.8l-.9-1.5zm-8.5 32.7l6.8-.6 3.6-12.5-6.8.1v-.1c-.8 3-1.7 6.2-2.6 9.6-.4 1.2-.7 2.4-1 3.5zm13.2 38c.3-2.1 1.2-7.5 2-14.6L78.9 191l-5.3 14.6h-2.7l4.6-14.9-7.9 1.2 1.8-5.2 8.4-.4 4.5-15.6h-7.4v-.1l-1.5 4.8c-3.7 11.3-8.3 23.1-13.7 33.1l27.5-4.8 2.1.8z"/><path fill="#595959" d="M93.3 170.2l-8.1.3L81 186h10.8c.6-4.8 1.1-10.2 1.6-15.7l-.1-.1zm-1.7-16.8H89l-3 12.5h7.6l.2.2c.2-2.3.3-4.7.4-7-1-1.8-1.8-3.7-2.6-5.7z"/><path fill="#58595B" d="M79.7 153.5l6.8-.1-3.6 12.5-6.8.6v.1l-1.2 3.9v.1h7.4l-4.5 15.6-8.4.4-1.8 5.2 7.9-1.2-4.6 14.9h2.7l5.3-14.6 12.5-1.1 6.4 4.5.3-3.5-6.1-4.9H81l4.2-15.5 8.1-.3.1.1 5.9 4.1.1-3.6-5.7-4.6-.2-.2h-7.6l3-12.5h2.6c-.6-1.4-1.1-2.8-1.6-4.3h-4.4v3.5h-2.7s-.9-.8-2.3-2.2l-.7 2.8-.1.3z"/><path fill="#656668" d="M113.8 151.6l-3.2-.2 3.2.2zm-24.4-23.3s.1 1 .5 2.7c-.1-.9-.2-1.7-.3-2.7h-.2zm4.7 30.8c1.3 2.6 2.8 5 4.3 6.8 12.2 8.7 12.2-14.6 12.2-14.6l-3.1-3.1-4.7 1v4.9l-2.1.6s-10.4-5.7-13.8-24.8l-5.8-3.5.5 4.1 3.1 1.9c.2.8.5 1.8.8 2.8 1.1 3.8 2.5 8.8 4.4 13.8.5 1.4 1.1 2.9 1.6 4.3.9 2.1 1.7 4 2.6 5.8z"/><path fill="#303030" d="M102.7 146.5c.3-4.8-3.7-10.9-7.6-15.8-1.1-.7-3.3-1.9-5.5-2.3l.3 2.7c1 5.2 3.9 16.6 10.9 23.8l2.1-.6v-4.9h-.2v-2.9z"/><path fill="#171717" d="M81.2 126.6L87 130c3.4 19.1 13.8 24.8 13.8 24.8-7-7.2-9.9-18.6-10.9-23.8-.3-1.7-.5-2.7-.5-2.7h.2c2.2.4 4.4 1.7 5.5 2.3-3.6-4.5-7.2-7.9-7.2-7.9-2.6-2.3-5.5-5-8.2-7.7l1.5 11.6zM68.9 73c.7-1.2 1.1-1.8 1.1-1.8-.4.5-.7 1.1-1.1 1.8z"/><path fill="#171717" d="M61.8 109.9c.5 14.1 21.1 38.8 21.1 38.8v3.9h2.7V149c-1.3-1.4-2.5-2.8-3.6-4.2-9.9-12.3-11.3-22.1-11.3-22.1l.9-1.6v-4.5l5.4-4.5c-4.9-5.3-8.8-10.6-9.2-14.1 0 0-.1-.3-.2-.8C66.6 91.8 71 80 71 80v-8.5l-1-.4c0 .1-8.7 24.7-8.2 38.8z"/><path fill="#2B2B2B" d="M77 112.2c.9 1 1.8 1.9 2.7 2.9 2.7 2.7 5.5 5.4 8.2 7.7 17.4 9.8 18.9 20.6 18.9 20.6l5.8.4c-.2-9.2-4.5-18.8-6.6-22.9l-8.6 8.4 8-9.6c-.3-.5-.4-.8-.4-.8-1-.6-1.6-1.5-2.1-2.4-1.2-.9-2.7-2-4.3-3.3-7.1-.8-10.9-5.1-10.9-5.1 0-3.3-2.9-6-2.9-6-3-.7-3.9-2.9-4.2-4-2.1-2-3.7-3.8-4.5-5.1-2-3.3-3-9.6-3.3-16.3h-.1c-5.2 12.8-5.3 18.6-5.1 20.6.1.6.2.8.2.8.4 3.5 4.3 8.8 9.2 14.1zm23.9 12.8l-1.5 1.6c-23.9-19-26.3-28.4-26.3-28.4 4.6 10.5 27.8 26.8 27.8 26.8z"/><path fill="#303030" d="M117 47.1c.2 1 .4 2.1.6 3.2v.1c1.1 6.7 1.9 14.4 2.5 21.2.1.4.1.6.1.6l.8 9.6.3 8.9h6.4V8.4l-9.6 1.4c.1 0-4.2 17.6-1.1 37.3zm10.8 124.4v-18.9l-14-1c0 7.3.2 15.5-6.2 17.7-2 .7-3.6.6-4.9.2.1.1.2.3.6.7.7.8 2.1 2 4.5 3.3 3.8 2 10.1 4 20.1 4l-.1-6z"/><path fill="#303030" d="M120.9 81.9c0 .1 0 .1 0 0l.2-.1c0 .1-.1.1-.2.1z"/><path fill="#696A6D" d="M120.2 102.1L107 119.8c1.8 3.5 6.3 13.3 7.4 24.1l13.4 1V102l-7.6.1z"/><path fill="#1F1F1F" d="M116.5 44.3c.2.9.4 1.9.6 2.8-3.1-19.7 1.2-37.4 1.2-37.4l-1.8-1.4c0 .1-3.7 19.1 0 36z"/><path fill="#696A6D" d="M106 10.8c1.4-.5 3-.9 4.7-1.3-1.6.4-3.2.8-4.7 1.3zm-7.4 102.4c1.6 1.3 3.1 2.4 4.3 3.3-.8-1.6-1-3.2-1-3.2-1.2 0-2.3 0-3.3-.1zM80.6 98c-.1-.4-.1-.7-.1-.7V95l9.4-11.3c10.6 0 20.2 6.6 20.2 6.6l10.8-8.3v-.1c-1.3.6-8.6 3.8-9.5 4.1-1.1.3-5.7-14.9-5.7-14.9s-12.2-3.6-20.8-15.8c-8.2-11.6-2.7-25-2.2-26.2V29v.1c-.4 1-3.6 9.6 3.4 23.1 7.5 14.4 21.3 15 21.3 15l5.5 8.9 7.3-3.9-5 2S89.2 31 89.3 20.8C76.6 33 74.1 50.4 73.3 57.1c-.6 5.1-.9 12.5-.6 19.4.4 6.8 1.4 13.1 3.3 16.3.8 1.4 2.5 3.2 4.6 5.2z"/><path fill="#696A6D" d="M80.4 97.4l5.1-2.6c-2.9 1.2-5.1 2.6-5.1 2.6zm33.6 2.2c1.4 3.4-2.5 2.5-2.5 2.5l-5.8 4.2.5 2.7-3.5 2.7c.8 5.8 3.7 6.9 3.7 6.9v.1l12.9-17.8h8.6V90.7h-6.4l-7.5 8.9zm-1.1-63.9c3 17.1 6.5 32.8 7.2 35.9-.6-6.8-1.4-14.5-2.5-21.2v-.1c-.2-1.1-.4-2.2-.6-3.2s-.4-1.9-.6-2.8c-3.7-16.9 0-35.9 0-35.9-1.7.2-3.3.5-4.8.9-.1.4-2 7.9 1.3 26.4z"/><path fill="#3B3B3B" d="M90.8 88.7l18.1 4.3 2.5 7.7c.3.2.5.3.6.3.8 0 1.8-1.7 1.8-1.7.1.1.1.3.2.4l7.4-8.9-.3-8.9-.2.2-10.8 8.3s-9.6-6.6-20.2-6.6L80.4 95v2.4s6.7-6.8 10.4-8.7z"/><path fill="#595959" d="M91.2 92c10.6 1 18.2 7.2 20.3 8.6l-2.5-7.7-18.1-4.3c-3.7 1.9-10.3 8.7-10.3 8.7s2.2-1.4 5.1-2.6l5.5-2.7z"/><path fill="#303030" d="M115.2 74.3l5-2h.1s0-.2-.1-.6c-.7-3.2-4.2-18.9-7.2-35.9-3.3-18.5-1.4-26-1.3-26.4-.3.1-.6.1-.9.2-1.7.4-3.2.9-4.7 1.3-12.9 4.2-16.7 10-16.7 10-.2 10.2 25.8 53.4 25.8 53.4z"/><path fill="#A91314" d="M120.2 72.2l-7.4 3.9-5.5-8.9s-13.8-.6-21.3-15c-7-13.5-3.8-22.1-3.4-23.1-.5 1.2-6 14.6 2.2 26.2 8.6 12.2 20.8 15.8 20.8 15.8s4.6 15.2 5.7 14.9c1-.3 8.3-3.5 9.5-4.1.1-.1.2-.1.2-.1l-.8-9.6z"/><path fill="#171717" d="M102.7 146.5v2.8h.2l4.7-1 3.1 3.1 3.1.2 14 1v-7.7l-13.4-1v.3l-1.9.2v-.6l-5.8-.4-4 3.1z"/><path fill="#242424" d="M95.1 130.7c3.9 4.9 7.9 11 7.6 15.8l4.1-3.1s-1.5-10.8-18.9-20.6c0 0 3.6 3.4 7.2 7.9z"/><path fill="#262626" d="M102.7 169.5c1.3.4 2.9.4 4.9-.2 6.4-2.2 6.2-10.4 6.2-17.7l-3.1-.2s-.1 23.2-12.2 14.6c0 0 .4.7 1.1 1.6.6.7 1.7 1.5 3.1 1.9z"/><path fill="#171717" d="M106.1 118.9l.3-.4v-.1s-2.9-1.1-3.7-6.9l3.5-2.7-.5-2.7 5.8-4.2s3.8.9 2.5-2.5c-.1-.1-.1-.3-.2-.4 0 0-1.1 1.7-1.8 1.7-.1 0-.3-.1-.6-.3-2.1-1.4-9.7-7.7-20.3-8.6l-5.6 2.8-5.1 2.6s0 .3.1.7c.3 1.1 1.2 3.3 4.2 4 0 0 2.9 2.7 2.9 6 0 0 3.8 4.3 10.9 5.1 1 .1 2.1.2 3.3.1 0 0 .2 1.6 1 3.2.5.9 1.1 1.9 2.1 2.4 0 0 .2.3.4.8l.8-.6zm8.4 25.3v-.3c-1.2-10.8-5.6-20.6-7.4-24.1l-.2.3-.8.8c2.1 4.1 6.4 13.7 6.6 22.9v.6l1.8-.2z"/><path fill="#3B3B3B" d="M82.9 152.6v-3.9S62.2 124 61.8 109.9C61.3 95.8 70 71.2 70 71.2s-.4.6-1.1 1.8c-2.9 5.1-10.6 20-10.6 36.8s16.1 34.5 22.2 40.5c1.5 1.5 2.4 2.3 2.4 2.3z"/><path fill="#171717" d="M107 119.8l13.2-17.7h7.6v-1.4h-8.6l-12.9 17.8-.2.4-.7.8-8 9.7 8.6-8.5.8-.8z"/><path fill="#A91314" d="M99.4 126.6l1.5-1.6s-23.2-16.3-27.8-26.8c0 0 2.5 9.4 26.3 28.4z"/><path fill="#94A6A7" d="M127.8 213v-3.3h-25.1l-6.3-2.5-7.1-2.7-2.1-.9v2.7l16.6 6.8h24z"/><path fill="#718181" d="M87.2 212.3v-8.7l-27.5 4.8-12 2.1h-.2l-19-2c3.6 4.4 7.5 8.6 11.6 12.6h8.5l38.6-8.8z"/><path fill="#5D6B6C" d="M103.8 249v-36l-16.6-6.8v6s13.5 1.5 14.3 40.9c.8.2 1.5.3 2.3.5V249z"/><path fill="#262626" d="M103.8 236.1h16.3v13h-16.3zm0 14.7v2.9c5.3 1 10.8 1.7 16.3 2v-5h-16.3v.1z"/><path fill="#595959" d="M86 218.2L54.9 223l-12.4.1c14 12.6 30.8 22.1 49.4 27.6L86 218.2z"/></svg>