<svg xmlns="http://www.w3.org/2000/svg" width="256" height="256"><circle fill="#B1B3B5" cx="128" cy="128" r="128"/><path fill="#CCAD9F" d="M156.8 212.9c-2.4 2.6-2.1 4.3-.5 5.8 2.7-2.7 5.3-5.6 7.6-8.6-.2-1-.4-2-.4-3.1-2.6 2.1-4.9 4-6.7 5.9zm-28.3 8.1s.5-.7 1.5-.7c2.1 0 2.5 1 2.5 4.1 0 3.2-4.2 4.8-4.5 4.9v11.5c.5-.3 8.8-5.3 18.1-12.9-3.6-3-7.5-5.3-8.8-6.9-1-1.2-.3-3.7 1.2-6.7-4.9 3.9-8.7 5.3-10.1 5.7v1zm24.1-69.9c-7.5 4.7-24.1 8.7-24.6 8.9v57.5c5.6-1.2 10.7-5 15.2-10.2.8-1 1.5-1.9 2.4-2.9 5.4-7 9.7-15.6 13-23.2.9-4.2 1.2-7.1 1-5.9-.5 2.7-5.7 9.6-5.7 9.6 2.5-3.7 4.1-12.6 5-18.5-.2-.6-.4-1.3-.5-2l-.3-1.5-7.3 10.3s3.8-7 6.6-13.6c-.8-4.1-1.4-7.5-1.7-10.5-1.1.8-2.1 1.4-3.1 2z"/><path fill="#561927" d="M128 217.5v.2h.5v2.3c1.4-.4 5.1-1.7 10.1-5.7 1.1-2.2 2.8-4.6 4.6-7-4.5 5.2-9.6 9.1-15.2 10.2zm22.7-18.4c4.1-3.8 6.6-12.1 7.9-17.8-3.3 7.6-7.6 16.2-13 23.2 1.6-2 3.4-3.9 5.1-5.4z"/><path fill="#813E4F" d="M128 220.1v9.1c.3-.1 4.5-1.6 4.5-4.9 0-3-.4-4.1-2.5-4.1-1 0-1.5.7-1.5.7v-3.3h-.5v2.5z"/><path fill="#875266" d="M164.6 250.7c.1 0 .3-.1.4-.1v-.7c-.1.2-.3.5-.4.8zm-36.6-10v3c2.6-1.1 14.7-11.9 18.7-15.4-.2-.2-.4-.3-.5-.5-9.4 7.6-17.7 12.6-18.2 12.9zm28.3-22c.8.8 2 1.5 3.3 2.3 2.2-2.1 4.3-4.2 6.2-6.2-.8-1.5-1.5-3-1.9-4.8-2.3 3.1-4.9 6-7.6 8.7zm-7 12.1c-.7-.8-1.5-1.6-2.4-2.3l-11.7 15.3c0-.1 6.4-5.9 14.1-13zM164 222l-.1 1.4c.7.4 1.5.9 2.2 1.4l.1-3.1c1.1-.8 2-1.6 3-2.5-.3-.3-.6-.7-.9-1-1.3 1.4-2.8 2.7-4.3 3.8z"/><path fill="#252326" d="M146.9 228.5c-.1-.1-.2-.1-.2-.2-4 3.6-16.1 14.3-18.7 15.4V256c2.4 0 4.9-.1 7.3-.2l-.1-12.1 11.7-15.2z"/><path fill="#5A3446" d="M144.4 238l6.6-4.8c-.5-.8-1.1-1.6-1.8-2.4-7.6 7.1-14.1 12.9-14.1 12.9l.1 12.1c3.1-.2 6.1-.4 9.1-.8v-17zm15.2-17c1.3.7 2.8 1.5 4.3 2.4l.1-1.4c1.6-1.2 3-2.5 4.3-3.8-.9-1.1-1.7-2.2-2.4-3.4-1.9 1.9-4 4-6.3 6.2z"/><path fill="#36182A" d="M154.2 245.6c-.8 2.7-3.4 6-6 8.8 1.9-.3 3.7-.6 5.6-1 .5-4.4.4-7.8.4-7.8zm-1.5-5.8c.3-2.4-.4-4.6-1.7-6.6l-6.6 4.8v17c.5-.1.9-.1 1.4-.2 3.1-4.4 6.4-10.1 6.9-15z"/><path fill="#813E4F" d="M165 249.8v.7c1.9-.6 3.8-1.2 5.6-1.8-.1-5.8-2.1-11.6-2.1-11.6-.4 4.7-1.7 9-3.5 12.7zm1.1-25c1.7 1.2 3.3 2.7 4.5 4.5 3.4 5.2 2.5 12.8 1.3 18 4.5-4.8 13.2-13.2 6.6-19.7-2.9-2.8-6.4-5.4-9.3-8.5-.9.9-1.9 1.7-3 2.5l-.1 3.2zm42.9-46.2c7 2.9 14 5.9 20 8.7 4.4 2 7.6 3.5 9.8 4.8.7-1.3 1.4-2.5 2.1-3.8-9.9-4.5-23.9-8.2-32-10.1.1.1.1.3.1.4z"/><path fill="#561927" d="M209 178.6c1.2 4.1 1.5 7.7.8 10.5-.1.3-.2.6-.2.9 1.3 1.1 2.8 1.8 4.1 2.6 3.2 1.8 10.8 8.9 13.8 15.9 4.2-5.2 8-10.7 11.3-16.5-2.2-1.3-5.3-2.8-9.8-4.8-5.9-2.6-13-5.7-20-8.6z"/><path fill="#84421E" d="M208.5 176.8c1-2.4 2.3-4.1 3.5-5.5-2.4-.2-4.4-.7-6.2-1.4 1.1 2.4 2 4.7 2.7 6.9zm-32.3-70.2c1.1 6.9 2.9 14.9 5.9 21.8 0-.3-1.6-13.2-2.6-16-.4-1.2-1.8-3.3-3.3-5.8z"/><path fill="#84421E" d="M134.2 12.2c37-5.7 57.2 51.4 60.3 71.5s.3 34.2 1.6 46.7 18.5 29 18.5 29c-8.9-1.6-15.6-8.6-15.6-8.6 2.7 10.9 10.3 16.7 14.5 19 2.5-2.4 4.8-4 5-8.2.3-7.3-2.9-13.7-2.9-13.7l9.6 8.3-13.2-17.8 7 4.5c-7-8.9-6.7-22-12.8-31.3-6.1-9.3-11.5-46.9-17.2-62.3S163.5 18 155.2 12.9c-8.3-5.1-23.3-3.2-23.3-3.2H128v1.7c2 .1 4.1.4 6.2.8zm79.4 180.4c-1.3-.8-2.8-1.5-4.1-2.6-3 11.7-4.5 25.9-26.3 26.9 0 0 7.4-3.5 9.1-9.6 0 0-4.4 3.8-11.7 5.4 0 0 5.4-2.2 7.7-7.7 0 0-8 8.3-21.4 8.3 0 0 18.2-15 19.2-24.9.3-2.9 0-6.7-.7-11 .3 9.7-3 15.9-3 15.9 2.9-9.7 0-16.2 0-16.2-1.5 15.3-11.2 23.5-18.9 29.8.1 1.1.2 2.1.4 3.1.4 1.7 1.1 3.3 1.9 4.8.7 1.2 1.5 2.3 2.4 3.4.3.4.6.7.9 1 2.9 3.1 6.4 5.7 9.3 8.5 6.6 6.4-2 14.8-6.6 19.7-.1.3-.1.6-.2.9 22-8 41.3-21.9 55.8-39.8-2.9-7-10.6-14-13.8-15.9z"/><path fill="#DEBCAD" d="M172.5 97c0-5.3-2.1-37-9-44.7 0 0-3.4-4.3-6.9-4.8l4.7.7s-4.9-3.8-9.2-5.5l6.2-.5s-6.9-4.1-14.5-5.5l4.7-1.8s-7.6.2-10.3.9c-2.9-1.5-6.6-2.6-10.1-3.5v94.5c.1 0 1.3.2 2.5-.8 1.8-.8 4.1-.1 5.4 1.3 2.5 2.2 2.7 2.8 5.3 3.7 0 0-2.3 3.9-13.2 3.9V160c.5-.1 17.1-4.1 24.6-8.9 1-.6 2-1.3 2.9-2 3.1-2.4 6.1-5.5 8.6-11.2 2.1-7 4-13.4 4.3-14.2.4-8.3 1.9-17.9 4-26.7zm-19.2-27.6c8.9-1.3 13.7 7 13.7 7-11.8-6.1-16.3-1.5-21.4-.3-5.1 1.3-6.1-2.6-6.1-2.6-.8-1.4 4.8-2.8 13.8-4.1zm-.4-34.3c.5.3 1.8 1.1 3.5 2.5-1.1-1-2.3-1.9-3.5-2.5z"/><path fill="#A56D57" d="M145.6 76.1c5.1-1.3 9.6-5.9 21.4.3 0 0-4.8-8.2-13.7-7-8.9 1.3-14.5 2.7-13.7 4.2 0-.1.9 3.8 6 2.5z"/><path fill="#9D4D5E" d="M141.2 131.1c-2.6-.9-2.8-1.5-5.3-3.7-1.3-1.4-3.6-2.1-5.4-1.3-1.1 1-2.3.8-2.5.8v8.1c10.9 0 13.2-3.9 13.2-3.9z"/><path fill="#A56D57" d="M199 150.8s6.7 7 15.6 8.6c0 0-17.2-16.5-18.5-29-1.3-12.5 1.6-26.5-1.6-46.7s-23.3-77.3-60.3-71.5v17.4c2.8 3.2 3.8 6.3 3.9 6.2 0 0 6-13 21.1-3.6 0 0-7.2-1.8-10.5-1 0 0 13.7 1.5 18.7 10.4 0 0-6.9-6.2-14.6-6.5 0 0 .1 0 .2.1 1.2.6 2.4 1.4 3.5 2.5 4.2 3.3 10.9 9.6 14.2 18.5 5 13.7 4.8 41.2 8.4 48.4 3.6 7.2 6.7 15.6 3.1 23.9 1 2.3 2.1 4.5 3.4 6.6 6.5 10.3 15.1 23.5 20.3 34.9 1.7.7 3.8 1.2 6.2 1.4 1.3.1 2.7.1 4.2-.1 0 0-1.1-.4-2.8-1.4-4.2-2.4-11.8-8.2-14.5-19.1z"/><path fill="#885946" d="M170.6 229.4c-1.2-1.8-2.8-3.3-4.5-4.5-.7-.5-1.5-1-2.2-1.4-1.5-.9-2.9-1.7-4.3-2.4-1.3-.8-2.5-1.5-3.3-2.3-1.6-1.5-1.8-3.3.5-5.8 1.7-1.9 4.1-3.8 6.7-5.9 7.7-6.3 17.5-14.5 18.9-29.8 0 0 2.9 6.5 0 16.2 0 0 3.3-6.1 3-15.9-1.7-10.1-5.8-22.5-10.1-29.9l5.4 23.8s-6.4-20.6-10.5-29.5c-1.7-3.7-2.2-10.4-1.7-18.2-.2.8-2.2 7.3-4.3 14.2-1.8 6.1-3.8 12.6-4.8 15.9-.5 1.8-1.3 3.8-2.2 5.8-2.8 6.6-6.6 13.6-6.6 13.6L158 163l1.6-2.2s-.2 2.4-.7 5.7c-.8 5.9-2.5 14.7-5 18.5 0 0 5.2-7 5.7-9.6.2-1.1-.1 1.7-1 5.9-1.3 5.7-3.8 14-7.9 17.8-1.7 1.6-3.4 3.4-5.1 5.4-.8.9-1.6 1.9-2.4 2.9-1.8 2.4-3.5 4.8-4.6 7-1.6 3-2.2 5.4-1.2 6.7 1.3 1.6 5.2 3.9 8.8 6.9.2.2.4.3.5.5.1.1.2.1.2.2.8.7 1.6 1.5 2.4 2.3.7.8 1.3 1.5 1.8 2.4 1.2 2 1.9 4.2 1.7 6.6-.6 4.9-3.9 10.7-6.9 15l2.4-.3c2.7-2.8 5.2-6.1 6-8.8 0 0 .1 3.4-.5 7.8 3.7-.7 7.3-1.7 10.8-2.7.1-.3.3-.6.4-.8 1.8-3.8 3.1-8 3.5-12.7 0 0 2 5.8 2.1 11.6.4-.1.7-.3 1.1-.4.1-.3.1-.6.2-.9 1.2-5.6 2.1-13.2-1.3-18.4z"/><path fill="#94614D" d="M185.5 135c-1.3-2-2.4-4.3-3.4-6.6-3-7-4.8-14.9-5.9-21.8-1.8-3.1-3.7-6.7-3.7-9.6-2.1 8.8-3.5 18.4-4 26.7-.4 7.8 0 14.5 1.7 18.2 4.2 8.9 10.5 29.5 10.5 29.5l-5.4-23.8c4.3 7.4 8.4 19.8 10.1 29.9.7 4.2 1 8 .7 11-1 9.9-19.2 24.9-19.2 24.9 13.4 0 21.4-8.3 21.4-8.3-2.2 5.4-7.7 7.7-7.7 7.7 7.3-1.6 11.7-5.4 11.7-5.4-1.7 6.1-9.1 9.6-9.1 9.6 21.8-.9 23.2-15.2 26.3-26.9.1-.3.2-.6.2-.9.8-2.8.4-6.4-.8-10.5 0-.1-.1-.3-.1-.4-.1-.5-.3-.9-.4-1.4-.7-2.2-1.6-4.5-2.7-6.8-5-11.6-13.6-24.8-20.2-35.1z"/><path fill="#603525" d="M143.7 36.8c7.7 1.4 14.5 5.5 14.5 5.5l-6.2.5c4.3 1.7 9.2 5.5 9.2 5.5l-4.7-.7c3.6.5 6.9 4.8 6.9 4.8 6.9 7.7 9 39.4 9 44.6 0 2.9 1.9 6.5 3.7 9.6 1.5 2.4 2.9 4.6 3.3 5.8.9 2.8 2.6 15.7 2.6 16 3.6-8.3.5-16.7-3.1-23.9-3.6-7.2-3.4-34.7-8.4-48.4-3.3-9-10-15.3-14.2-18.5-1.7-1.4-3.1-2.2-3.5-2.5-.1-.1-.2-.1-.2-.1 7.7.4 14.6 6.5 14.6 6.5-5-8.9-18.7-10.4-18.7-10.4 3.4-.8 10.5 1 10.5 1-15.1-9.3-21.1 3.6-21.1 3.6 2.6-.7 10.3-.9 10.3-.9l-4.5 2z"/><path fill="#B49A8E" d="M128 217.5V160s-17-4.1-24.7-8.9c-1-.6-2-1.3-2.9-2-.3 3-.8 6.5-1.7 10.5 2.8 6.6 6.6 13.6 6.6 13.6L98 163l-.3 1.5c-.2.7-.3 1.3-.5 2 .8 5.9 2.5 14.7 5 18.5 0 0-5.2-7-5.7-9.6-.2-1.1.1 1.7 1 5.9 3.3 7.6 7.6 16.2 13 23.2.8.9 1.6 1.9 2.4 2.9 4.4 5.1 9.5 9 15.1 10.1zm-28.3 1.2c1.6-1.5 1.8-3.3-.5-5.8-1.7-1.9-4.1-3.8-6.7-5.9-.1 1.1-.2 2.1-.4 3.1 2.3 3 4.9 5.9 7.6 8.6zm28.3 22v-11.5s-4.5-1.5-4.5-4.9c0-3 .4-4.1 2.5-4.1 1 0 1.5.7 1.5.7v-1c-1.4-.4-5.1-1.7-10.1-5.7 1.6 3 2.2 5.4 1.2 6.7-1.3 1.6-5.2 3.9-8.8 6.9 9.7 7.9 18.2 12.9 18.2 12.9z"/><path fill="#420817" d="M127.5 217.7h.5v-.2c-5.6-1.2-10.7-5-15.2-10.2 1.8 2.4 3.5 4.8 4.6 7 4.9 3.9 8.7 5.3 10.1 5.7v-2.3zm-22.2-18.6c1.7 1.6 3.4 3.4 5.1 5.4-5.4-7-9.7-15.6-13-23.2 1.3 5.7 3.8 13.9 7.9 17.8z"/><path fill="#561927" d="M127.5 217.7v3.3s-.5-.7-1.5-.7c-2.1 0-2.5 1-2.5 4.1 0 3.4 4.5 4.9 4.5 4.9v-11.5h-.5z"/><path fill="#512D3E" d="M91 250.6c.1 0 .3.1.4.1-.1-.3-.3-.6-.4-.8v.7zm1-40.5c-.4 1.7-1.1 3.3-1.9 4.8l6.2 6.2c1.3-.8 2.5-1.5 3.3-2.3-2.6-2.8-5.2-5.7-7.6-8.7zm14.7 20.7c7.6 7.1 14.1 12.9 14.1 12.9l-11.7-15.3-2.4 2.4zm-19-12.6c-.3.4-.6.7-.9 1 .9.9 1.9 1.7 3 2.5l.1 3.1c.7-.5 1.5-1 2.2-1.4L92 222c-1.5-1.1-3-2.4-4.3-3.8zm22.2 9.6c-.2.2-.4.3-.5.5 4 3.6 16.2 14.4 18.7 15.5v-3c-.1-.1-8.6-5.1-18.2-13z"/><path fill="#050105" d="M109.3 228.3c-.1.1-.2.1-.2.2l11.7 15.3-.1 12.1c2.4.1 4.8.2 7.3.2v-12.3c-2.5-1.1-14.7-12-18.7-15.5z"/><path fill="#36182A" d="M106.7 230.8c-.7.8-1.3 1.5-1.8 2.4l6.6 4.8v17c3 .4 6.1.7 9.1.8l.1-12.1c.1 0-6.3-5.8-14-12.9zm-16.6-16c-.7 1.2-1.5 2.3-2.4 3.4 1.3 1.4 2.8 2.7 4.3 3.8l.1 1.4c1.5-.9 2.9-1.7 4.3-2.4-2.3-2.2-4.4-4.3-6.3-6.2z"/><path fill="#200013" d="M102.2 253.4c1.8.4 3.7.7 5.6 1-2.7-2.8-5.2-6.1-6-8.8 0 0-.1 3.4.4 7.8zm9.4-15.4l-6.6-4.8c-1.2 2-1.9 4.2-1.7 6.6.6 4.9 3.9 10.7 6.9 15 .5.1.9.1 1.4.2v-17z"/><path fill="#672E3D" d="M87.5 237.2s-2 5.8-2.1 11.6c1.8.7 3.7 1.3 5.6 1.8v-.7c-1.8-3.8-3.1-8.1-3.5-12.7zm-.7-18c-2.9 3.1-6.4 5.7-9.3 8.5-6.6 6.4 2 14.8 6.6 19.7-1.2-5.2-2-12.8 1.3-18 1.2-1.8 2.8-3.3 4.5-4.5l-.1-3.1c-1.1-.9-2.1-1.7-3-2.6zM47 178.6c0-.1.1-.3.1-.4-8.1 1.9-22.1 5.5-32 10.1.7 1.3 1.4 2.6 2.1 3.8 2.2-1.3 5.3-2.8 9.8-4.8 5.9-2.7 13-5.8 20-8.7z"/><path fill="#460C1B" d="M42.4 192.6c1.3-.8 2.8-1.5 4.1-2.6-.1-.3-.2-.6-.2-.9-.8-2.8-.4-6.4.8-10.5-7 2.9-14 5.9-20 8.7-4.4 2-7.6 3.5-9.8 4.8 3.4 5.8 7.2 11.3 11.3 16.5 2.9-7.1 10.6-14.1 13.8-16z"/><path fill="#632F0B" d="M57 150.8s-6.7 7-15.6 8.6c0 0 2.9-2.7 6.3-6.8-2.9.7-6.1 1.2-9.4 1.5-.5 2.2-.9 4.8-.8 7.6.2 4.2 2.4 5.8 5 8.2 4.2-2.4 11.8-8.2 14.5-19.1zm2.9-20.4c1.3-12.5-1.6-26.5 1.6-46.7 3-19.2 19.2-76.6 66.5-72.3V9.7h-3.9s-15-1.9-23.3 3.2-28.1 21-33.8 36.4-11.2 53-17.2 62.3c-6.1 9.3-5.7 22.4-12.8 31.3l7-4.5-13.1 17.9 9.6-8.3s-1.1 2.2-2 5.6c3-1.7 10.6-6.2 17.9-13.2 1.8-3.4 3.2-6.8 3.5-10zM44 171.3c1.2 1.4 2.5 3.1 3.5 5.5.7-2.2 1.6-4.5 2.7-6.8-1.7.6-3.8 1.2-6.2 1.3zm33.5 56.5c2.9-2.8 6.4-5.4 9.3-8.5.3-.3.6-.7.9-1 .9-1.1 1.7-2.2 2.4-3.4.8-1.5 1.5-3 1.9-4.8.2-1 .4-2 .4-3.1-7.7-6.3-17.5-14.5-18.9-29.8 0 0-2.9 6.5 0 16.2 0 0-3.3-6.1-3-15.9-.7 4.2-1 8-.7 11 1 9.9 19.2 24.9 19.2 24.9-13.4 0-21.4-8.3-21.4-8.3 2.2 5.4 7.7 7.7 7.7 7.7-7.3-1.6-11.7-5.4-11.7-5.4 1.7 6.1 9.1 9.6 9.1 9.6-21.8-1-23.3-15.3-26.3-27-1.3 1.1-2.8 1.8-4.1 2.6-3.2 1.8-10.8 8.9-13.8 15.9 14.5 17.9 33.7 31.8 55.8 39.8-.1-.3-.1-.6-.2-.9-4.5-4.8-13.2-13.2-6.6-19.6z"/><path fill="#CCAD9F" d="M100.4 149.1c1 .7 1.9 1.4 2.9 2 7.7 4.8 24.7 8.9 24.7 8.9v-25c-10.9 0-13.2-3.9-13.2-3.9 2.6-.9 2.8-1.5 5.3-3.7 1.3-1.4 3.6-2.1 5.4-1.3 1.2 1 2.5.8 2.5.8V32.4c-6-1.5-11.5-2.1-11.5-2.1l4.9 4.5c-9.2-.8-16 1.8-19.8 3.8-.6.8-1.3 1.7-1.9 2.8l4.3 1.4c-2.4.9-5 2.5-6.8 3.8-.2.5-.4 1-.5 1.5l2.8-.4c-1.1.1-2.1.6-3 1.2-.6 1.9-1.2 4-1.6 6.3-.8 4.1-1 9.8-1.3 16.6 2.3-1.6 5.4-2.8 9.2-2.3 8.9 1.3 14.5 2.7 13.7 4.2 0 0-1 3.8-6.1 2.6-4.4-1.1-8.4-4.7-17-1.7-.6 12.7-1.5 28.3-6.4 42.3.3 2.4.5 4.7.6 7 .2.8 2.2 7.3 4.3 14.2 2.4 5.5 5.4 8.7 8.5 11z"/><path fill="#94614D" d="M110.4 76.1c5.1 1.3 6.1-2.6 6.1-2.6.8-1.5-4.8-2.9-13.7-4.2-3.9-.6-7 .7-9.2 2.3 0 .9-.1 1.8-.1 2.8 8.5-3 12.5.6 16.9 1.7z"/><path fill="#884251" d="M125.5 126.1c-1.8-.8-4.1-.1-5.4 1.3-2.5 2.2-2.7 2.8-5.3 3.7 0 0 2.3 3.9 13.2 3.9v-8.1s-1.3.3-2.5-.8z"/><path fill="#94614D" d="M126.9 29.5c-2.6-3.5-12-5.6-15.7-5.6l-1.5.3c0-.2.6-.4 1.5-.3 12.4-2.6 19.3 1.6 23 5.8V12.2c-2.1-.4-4.2-.7-6.2-.9-47.3-4.2-63.5 53.2-66.5 72.5-3.2 20.1-.3 34.2-1.6 46.7-.3 3.2-1.7 6.6-3.5 9.9 7.4-7.1 14.4-16.9 15.9-29 0 0-2.3 10.6-6 14.4 0 0 5.3-17.8 6-29.3.6-9.8 4-59.6 26.6-66 11.5-6.1 28-1 28-1zM63 146.8c-4.4 2.5-9.5 4.4-15.3 5.8-3.5 4.1-6.3 6.8-6.3 6.8 8.9-1.6 15.6-8.6 15.6-8.6-2.7 10.9-10.3 16.7-14.5 19-1.7 1-2.8 1.4-2.8 1.4 1.5.2 2.9.2 4.2.1 2.4-.2 4.4-.7 6.2-1.4 3.4-7.4 8.2-15.5 12.9-23.1z"/><path fill="#84421E" d="M103.3 239.8c-.3-2.4.4-4.6 1.7-6.6.5-.8 1.1-1.6 1.8-2.4.7-.8 1.5-1.6 2.4-2.3.1-.1.2-.1.2-.2.2-.2.4-.3.5-.5 3.6-3 7.5-5.3 8.8-6.9 1-1.2.3-3.7-1.2-6.7-1.1-2.2-2.8-4.6-4.6-7-.8-1-1.5-1.9-2.4-2.9-1.7-2-3.4-3.8-5.1-5.4-4.1-3.8-6.6-12.1-7.9-17.8-.9-4.2-1.2-7.1-1-5.9.5 2.7 5.7 9.6 5.7 9.6-2.5-3.7-4.1-12.6-5-18.5-.5-3.3-.7-5.7-.7-5.7L98 163l7.3 10.3s-3.8-7-6.6-13.6c-.9-2-1.6-4-2.2-5.8-1-3.4-3-9.8-4.8-15.9-2.1-7-4-13.4-4.3-14.2.4 7.8 0 14.5-1.7 18.2-4.2 8.9-10.5 29.5-10.5 29.5l5.4-23.8c-4.3 7.4-8.4 19.8-10.1 29.9-.3 9.7 3 15.9 3 15.9-2.9-9.7 0-16.2 0-16.2 1.5 15.3 11.2 23.5 18.9 29.8 2.6 2.1 5 4 6.7 5.9 2.4 2.6 2.1 4.3.5 5.8-.8.8-2 1.5-3.3 2.3-1.3.7-2.8 1.5-4.3 2.4-.7.4-1.5.9-2.2 1.4-1.7 1.2-3.3 2.7-4.5 4.5-3.4 5.2-2.5 12.8-1.3 18 .1.3.1.6.2.9.4.1.7.3 1.1.4.1-5.8 2.1-11.6 2.1-11.6.4 4.7 1.7 8.9 3.5 12.7.1.3.3.6.4.8 3.5 1.1 7.1 2 10.8 2.7-.5-4.4-.5-7.8-.5-7.8.8 2.7 3.4 6 6 8.8l2.4.3c-2.9-4.2-6.2-9.9-6.7-14.8z"/><path fill="#885946" d="M46.2 189.1c.1.3.2.6.2.9 3 11.7 4.5 25.9 26.3 26.9 0 0-7.4-3.5-9.1-9.6 0 0 4.4 3.8 11.7 5.4 0 0-5.4-2.2-7.7-7.7 0 0 8 8.3 21.4 8.3 0 0-18.2-15-19.2-24.9-.3-2.9 0-6.7.7-11 1.7-10.1 5.8-22.5 10.1-29.9l-5.4 23.8s6.4-20.6 10.5-29.5c1.7-3.7 2.2-10.4 1.7-18.2-.1-2.2-.3-4.6-.6-7-4.2 12.1-11.5 23.1-23.9 30.1-4.7 7.6-9.5 15.7-12.8 23.2-1.1 2.4-2 4.7-2.7 6.8-.2.5-.3.9-.4 1.4 0 .1-.1.3-.1.4-1.1 4.2-1.5 7.8-.7 10.6z"/><path fill="#481C00" d="M99.8 41.3c-.9 1.5-1.7 3.2-2.5 5.2 1.8-1.2 4.4-2.8 6.8-3.8l-4.3-1.4zm21.6-6.6l-4.9-4.5s5.5.6 11.5 2.1c3.5.9 7.1 2 10.1 3.5-.1.1-1.1-3.1-3.9-6.2-3.7-4.1-10.6-8.4-23-5.8 3.7.1 13.2 2.1 15.7 5.6 0 0-16.5-5-28 1 3.8-1.1 8.2-.9 13.2.9 0 0-5.4.7-10.4 7.2 3.7-2 10.6-4.6 19.7-3.8zM96.7 48c-.1.3-.2.5-.3.8.9-.6 2-1.1 3-1.2l-2.7.4z"/><path fill="#481C00" d="M109.7 24.2l1.5-.3c-.9 0-1.5.1-1.5.3z"/><path fill="#A56D57" d="M63 146.8c12.5-7 19.7-18 23.9-30.1 4.9-14 5.9-29.6 6.4-42.3 0-.9.1-1.9.1-2.8.3-6.7.5-12.5 1.3-16.6.5-2.3 1-4.4 1.6-6.3.1-.3.2-.5.3-.8.2-.5.4-1 .5-1.5.8-2 1.6-3.7 2.5-5.2.6-1 1.2-1.9 1.9-2.8 5-6.5 10.4-7.2 10.4-7.2-5-1.8-9.4-2-13.2-.9-22.6 6.4-26 56.2-26.6 66-.7 11.5-6 29.3-6 29.3 3.8-3.8 6-14.4 6-14.4-1.5 12.1-8.5 21.8-15.9 29-7.2 7-14.8 11.5-17.9 13.2-.9.5-1.4.7-1.4.7.4 0 .8-.1 1.2-.1 3.3-.3 6.4-.9 9.4-1.5 6-1.3 11.1-3.2 15.5-5.7z"/></svg>