<svg xmlns="http://www.w3.org/2000/svg" width="256" height="256"><circle fill="#B2B4B5" cx="128" cy="128" r="128"/><path fill="none" d="M95 166.9l.6-6.7-7.3-2.8c.8 2.8 1.6 5.8 2.2 8 .5 1 .8 2 .9 2.8 1.3-1.5 3-1.4 3.6-1.3zm77.5-11.4l-1.2.5c-1.9 2.9-4.4 6.5-5.8 9.4-.3 1.3-.6 2.3-.8 3 .4.5.8 1.2 1 2.1l3.6-1.3c.1-1.6.2-2.8.2-2.8l3-10.9zm.7 14.7c.5 1.3 1.2 3.2 2 5.1l2.4-7.2c.1 0-2.2.9-4.4 2.1zm-92.4 5.1c.8-1.9 1.5-3.8 2-5.1-2.3-1.2-4.5-2.1-4.5-2.1l2.5 7.2zm80.2-8.4c.7-.1 2.3-.1 3.6 1.3.1-.8.4-1.7.9-2.8.6-2.3 1.4-5.2 2.2-8l-7.3 2.8.6 6.7zm-70.5-1.5c-1.4-2.9-3.9-6.5-5.8-9.4l-1.2-.5 2.9 10.9s.1 1.2.2 2.8l3.6 1.3c.3-.9.6-1.6 1-2.1-.1-.7-.4-1.7-.7-3z"/><path fill="#4C3B38" d="M197.8 92.2c-2.9-3.5-7-5.1-7-5.1s4.4 7.4 8.9 15.3c-.2-4.3-.7-8.6-1.9-10.2zm-5.2 86.1c-.5 1-.8 1.8-.9 2.4l.9-2.4z"/><path fill="#4C3B38" d="M128.1 26c.8-.8 5.4-5.6 11.3-5 6.4.6 28.1 15 33.5 23.3s23.9 43.1 29.1 47.9c3.1 2.9 2.9 11.8 2.6 18.9 1.2 2.2 2.3 4.1 3.1 5.7.3-4.7.7-8.9.4-11.2-.6-6.1-.3-15.9-3.5-19.4s-4.2-11.8-4.2-11.8 1-8-2.6-13.7c-3.5-5.7-19.5-22-20.8-26.5s-12.1-13.7-18.2-19.8c-5.9-5.9-29.6-5.9-30.8-5.9h.1V26zM168 130.5l-6.4 22.7c-.4 1.1-1 2.1-1.5 3.1l.3 3.7 7.3-2.8c.7-2.5 1.4-4.8 2-6.4 1.9-4.8 7.9-23.3 6.6-27.8-.4-1.5-1.1-3.8-1.7-6.2-1.1 6.2-2.4 10-3 11.7 0 4-.1 7.5 0 9.6.1 7.1-5.1 11.3-5.1 11.3s4.6-11.7 3.3-19.1c0-.1 0-.3-.1-.4l-1.7.6zm36.5 20.5c1.3-7.1 1.6-25.3-2.2-30s-8-13.4-8-13.4 5.1 13.1 2.6 23.9c-2.6 10.9-17 28.6-13.1 34.9 0 0-5.4-8.1-2.5-18.6s-2.9-2.9-2.9-2.9 2.9-8.9 1.6-14.3c0 0-4.8 18.4-6.7 22.3-.4.8-1.1 1.9-1.9 3.1l1.2-.5-2.9 10.9s-.1 1.2-.2 2.8l3-1s.3.8.7 2.1c2.3-1.2 4.5-2.1 4.5-2.1l-2.4 7.2c.3.7.6 1.5 1 2.2 2-3 4.7-6.6 7.5-9.4 5.7-5.8 14.7-6 14.7-6l-5.8 16.1c2.4-4.7 9.4-12.8 12.2-15.8-.7-3.6-1.1-8-.4-11.5z"/><path fill="#484445" d="M160.1 156.4c-3 5.3-8 9.7-13.1 13.3l-.4 1.3-3 2.6c-.5 1.2-.9 1.5-.9 1.5-4.5 3.7-13.5 5.4-14.6 5.6v1.9c2-.3 30.1-4.5 32.6-15.6h.3l-.6-6.7-.3-3.9z"/><path fill="#16202A" d="M164.6 169c-.1-.3 0-.6 0-.9-1.3-1.4-2.9-1.4-3.6-1.3h-.3c-2.5 11.1-30.6 15.3-32.6 15.6v9.9h27.8l2.9-5.1c2.6-4.7 6-11.8 7-16.9-.3-.9-.6-1.6-1-2.1-.2.6-.2.8-.2.8z"/><path fill="#D8AA91" d="M135.1 94.7l.4-2.9c2.4-.5 9.3-3.7 15.7-6.9 0-3.2.2-5.8.6-6.8.9-2.3.9-9.9 0-16.4-4.6-9.4-13.6-11.5-18.2-12-1.8 1.4-4.1 3-5.5 3.1v42.5l7-.6zm19.5-14.4c-.2 1-.4 2.1-.6 3.3.1-.1.3-.1.4-.2 0-1.1.1-2.1.2-3.1zm10.3-6.6s-.1 1.7-.2 4.6l.4.4c0-2-.1-3.7-.2-5z"/><path fill="#7B6E6F" d="M160.1 156.4c.6-1 1.1-2.1 1.5-3.1l6.4-22.7s-1.8-1.9-3-2.5c-.4-.2-2.6-.6-5.4-1.1l-7.2 7.2-2.9 16.8 2.9 3.1-5.3 15.7c5-3.7 9.9-8.1 13-13.4z"/><path fill="#4B494A" d="M132.9 116.3c0 .1.1.2.1.2 3.4 9.3 11.5 12.5 11.5 12.5l.6 5.6-2.4 1.3-.6 16.9 4.6 4.9c-.9 9.5-2.2 13.9-3.1 15.9l3-2.6.4-1.3 5.3-15.7-2.9-3.1 2.9-16.8 7.2-7.2c-.4-.1-.9-.2-1.3-.2-.3.6-.6 1.1-1 1.4 0 0 .1-.6.3-1.5-4.6-.8-10.2-1.9-13-2.8-3.7-1.3-9-5.3-11.6-7.5z"/><path fill="#3E3B3F" d="M128.1 131.5v5h5.4v1.8h-5.4v2.5h5.4v1.8h-5.4v1.3h5.4v1.8h-5.4v2h5.4v1.8h-5.4v1.4h5.4v1.8h-5.4v1.8h5.4v1.8h-5.4v1.8h5.4v1.8h-5.4v4.5h5.4v1.8h-5.4v1.8h5.4v1.8h-5.4v10.7c1.1-.2 10.1-1.8 14.6-5.6 0 0 .4-.3.9-1.5.9-2 2.2-6.4 3.1-15.9l-4.6-4.9.6-16.9 2.4-1.3-.6-5.6s-8.1-3.2-11.5-12.5c0 0 0-.1-.1-.2-1-.8-1.7-1.4-1.7-1.4h-3.1v16.8z"/><path fill="#262427" d="M128.1 168.1h5.4v1.8h-5.4zm0-3.6h5.4v1.8h-5.4zm0-6.3h5.4v1.8h-5.4zm0-3.6h5.4v1.8h-5.4zm0-3.6h5.4v1.8h-5.4zm0-3.2h5.4v1.8h-5.4zm0-3.9h5.4v1.8h-5.4zm0-3.1h5.4v1.8h-5.4zm0-4.3h5.4v1.8h-5.4zM165 128c1.2.6 3 2.5 3 2.5l1.7-.4c-.1-.4-.1-.9-.2-1.4l-4.6-2.7s-2.4-.4-5.9-1.2c-.3.7-.5 1.3-.8 1.8.5.1.9.2 1.3.2 2.8.6 5 1 5.5 1.2zm-31.5-15.3c-.2-.2-.4-.3-.6-.4-1.8-.9-4.2-.8-4.8-.7v3.3h3.1s.7.6 1.7 1.4c2.7 2.2 7.9 6.2 11.6 7.4 2.8.9 8.4 2 13 2.8.1-.5.2-1.2.3-1.9-8-2-20.3-5.9-24.3-11.9z"/><path fill="#484445" d="M171.9 106.9s-.2 12.2-.3 21.9c.7-1.7 2-5.6 3-11.7-1.3-4.9-2.7-10.2-2.7-10.2zm-5.1-11.6c.1 1.5.2 5.8-.2 10.8l1.4 7.1c-.6-8-1.1-15.9-1.2-17.9zm-10.9-.2c-.8-3.7-1.5-7.8-1.4-11.7-.1.1-.3.1-.4.2-.7 4-1.4 8.9-1.9 13 .6-.2 1.3-.5 1.9-.7.5-.3 1.2-.5 1.8-.8zm-20.8-.4l1.2 4.2-4.3 1.3-.8 3.2h-3.1v8.1c.6-.1 3-.2 4.8.7.2.1.4.2.6.4 0 0-.6-8.1 7.6-11.8 2-.9 6.2-2.5 10.3-4.1-.1-3.6-.3-8.2-.2-11.9-6.4 3.2-13.3 6.4-15.7 6.9l-.4 3zm29.5-.4c.4-5.8.6-11.4.5-15.7l-.4-.4c-.2 3.4-.4 8.4-.8 14h.1s.3.8.6 2.1z"/><path fill="#3E3B3C" d="M164.8 126.1l4.6 2.7c-.5-3.6-1-9.6-1.5-15.6l-1.4-7.1c-.5 5.4-1.6 11.7-4.3 15.9 0 0 .2-1.7.4-4.4-.2.5-.4.9-.7 1.4 0 0-.5 0-1.5-.1-.5 2.4-1 4.4-1.6 6 3.6.8 6 1.2 6 1.2zm-31.3-13.4c4 6 16.3 9.9 24.3 11.8.3-1.6.6-3.7.8-5.9-6.4-.5-19.6-2.5-19.9-9.9-.2-4.4 6.1-8.6 12.8-11.8v-.2c-4.2 1.6-8.3 3.2-10.3 4.1-8.3 3.8-7.7 11.9-7.7 11.9zm18.6-16.1z"/><path fill="#262427" d="M138.7 108.8c.3 7.3 13.5 9.3 19.9 9.9.6-5 1-10.6.2-13.2-.7-2.2-1.9-6-3-10.4-.6.2-1.2.5-1.8.8s-1.3.6-1.9.9c-.2 2.2-.4 4.1-.3 5.5 0 .7.1 1.2.1 1.2 0-.3-.1-.7-.1-1.2-.1-1.1-.2-3-.2-5.2-6.7 3.1-13.1 7.3-12.9 11.7zm24.1 8.7c.5-5.2 1.3-14.3 1.8-23.1-.3-1.4-.6-2.1-.6-2.1h-.1c-.7 8.9-1.7 19.2-3.2 26.6.9 0 1.5.1 1.5.1.1-.6.3-1 .6-1.5z"/><path fill="#3E3B3C" d="M132 100.2l4.3-1.3-1.2-4.2-7 .7v8h3.1z"/><path fill="#322522" d="M151.8 61.8c-.4-2.7-.9-5.2-1.6-7-6.7-17.2-13.9-7.3-13.9-7.3s-1.2 1.1-2.7 2.3c4.6.5 13.6 2.6 18.2 12z"/><path fill="#624E4A" d="M206 168.9c.1.1.1.1 0 0 .1.1.1.1 0 0zm-4.1-76.7c-5.1-4.8-23.6-39.6-29.1-47.9S145.7 21.6 139.3 21c-5.8-.6-10.5 4.2-11.3 5v26.9c1.5-.1 3.7-1.6 5.5-3.1 1.5-1.2 2.7-2.3 2.7-2.3s7.1-9.9 13.9 7.3c.7 1.8 1.2 4.3 1.6 7 .9 6.4.9 14.1 0 16.4-.4 1-.5 3.6-.6 6.8 0 3.7.1 8.3.2 11.9v.2c.1 2.2.2 4.1.2 5.2 0-1.4.1-3.3.3-5.5v-.1c.4-4.1 1.2-9 1.9-13 .2-1.2.4-2.3.6-3.3-.1 1-.1 2.1-.1 3.1 0 4 .6 8.1 1.4 11.7 1 4.5 2.3 8.3 3 10.4.8 2.5.4 8.2-.2 13.2-.3 2.2-.6 4.2-.8 5.9-.1.7-.2 1.4-.3 1.9l-.3 1.5c.3-.3.7-.8 1-1.4.3-.5.5-1.1.8-1.8.6-1.6 1.1-3.7 1.6-6 1.5-7.4 2.6-17.7 3.2-26.6.4-5.6.7-10.6.8-14 .1-2.8.2-4.6.2-4.6.2 1.3.2 3 .3 5 0 4.3-.2 9.9-.5 15.7-.5 8.8-1.3 17.9-1.8 23.1-.3 2.7-.4 4.4-.4 4.4 2.7-4.2 3.8-10.4 4.3-15.9.4-5 .3-9.3.2-10.8.1 2.1.6 10 1.2 17.9.4 6 1 12 1.5 15.6.1.5.1 1 .2 1.4 0 .1 0 .3.1.4 1.3 7.4-3.3 19.1-3.3 19.1s5.2-4.2 5.1-11.3v-9.6c.1-9.7.3-21.9.3-21.9s1.4 5.3 2.8 10.1c.7 2.4 1.3 4.7 1.7 6.2 1.3 4.5-4.8 23-6.6 27.8-.6 1.5-1.3 3.9-2 6.4-.8 2.8-1.6 5.8-2.2 8 1.4-2.9 3.9-6.5 5.8-9.4.8-1.2 1.5-2.3 1.9-3.1 1.9-3.9 6.7-22.3 6.7-22.3 1.3 5.4-1.6 14.3-1.6 14.3s5.7-7.6 2.9 2.9c-2.9 10.5 2.5 18.6 2.5 18.6-3.9-6.3 10.6-24 13.1-34.9 2.6-10.9-2.6-23.9-2.6-23.9s4.2 8.6 8 13.4 3.5 23 2.2 30c-.6 3.5-.3 7.9.3 11.5.5 3.3 1.2 6 1.3 6.4-.2-.8-1.6-7.2 2.6-12.5 4.5-5.7 3.2-30.7 0-37.5-.3-.6-.6-1.3-1.1-2.1-.8-1.6-1.9-3.5-3.1-5.7.4-7 .6-15.9-2.5-18.8zm-11.2-5.1s4.2 1.6 7 5.1c1.3 1.6 1.7 5.9 1.8 10.2-4.4-7.9-8.8-15.3-8.8-15.3z"/><path fill="#624E4A" d="M164.6 169s.1-.3.2-.7c.2-.6.4-1.7.8-3-.5 1-.8 2-.9 2.8-.2.4-.2.7-.1.9zm-12.9-66.7c0 .4 0 .8.1 1.2 0-.1 0-.5-.1-1.2z"/><path fill="#232C35" d="M190.6 203.7l-7.3-4.6-4.8-16c.3 0 .6.1.8.2-1.1-1.4-2.2-3.6-3.3-5.8-.3-.7-.7-1.5-1-2.2-.8-1.9-1.5-3.8-2-5.1s-.7-2.1-.7-2.1l-3 1-3.6 1.3c-1 5.2-4.5 12.2-7 16.9l22.6 25.2v20.1H128v17.2h39c8.7-2.8 17-6.5 24.8-10.9 1.7-15.5.8-26.9-1.2-35.2z"/><path fill="#232C35" d="M128.1 218v9.3h49.8v-11.9l-22-23h-27.8z"/><path fill="#3A444F" d="M155.9 192.4l22 23v11.9h-49.8v5.4h53.3v-20.1l-22.6-25.3zM128.1 256c13.6 0 26.7-2.1 39-6.1h-39v6.1zm96.8-53.6s-6.5-3.1-14.8-6.9c4.7 6.1 7.2 14.4 8.2 23.3 4.9-4.9 9.4-10.1 13.4-15.7-1.4-1.2-4.3-2.8-6.8-.7zm-34.3 1.3c-3.9-16.7-12-20.5-12-20.5l4.8 16 7.2 4.5z"/><path fill="#161A24" d="M198.4 222.2c-.3-29.8-14.5-37.4-15.6-37.9-1.1-.4-2.2-.7-3.4-.9-.3-.1-.6-.1-.8-.2 0 0 8.1 3.8 12 20.5 1.9 8.2 2.8 19.6 1.2 35.3 2.1-1.2 4.1-2.4 6-3.7.4-4.6.6-9 .6-13.1z"/><path fill="#20242E" d="M210.1 195.5c-.4-.5-.7-1-1.1-1.4 0 0-.4-.3-1.2-.8 4.9 7.4 7.2 18.1 8.1 27.8.8-.8 1.6-1.5 2.4-2.3-1.1-9-3.5-17.2-8.2-23.3zm-21.9-10.6c-1.8-.4-3.6-.6-5.4-.7h.1c1.1.5 15.3 8.1 15.6 37.9 0 4.2-.2 8.6-.5 13.1 1.4-.9 2.7-1.8 4-2.7 1.3-34.4-13.8-47.6-13.8-47.6z"/><path fill="#3A444F" d="M207.7 193.2c-.9-1.4-1.9-2.7-3-3.8 0 0-3.6-4.6-12.9-6.2l-3.6 1.7s15.1 13.2 13.7 47.6c4.9-3.5 9.6-7.3 14-11.5-1-9.7-3.3-20.3-8.2-27.8z"/><path fill="#352725" d="M63.4 178.3l.9 2.4c-.1-.7-.4-1.5-.9-2.4zm-5.2-86.1c-1.3 1.6-1.7 5.9-1.8 10.2 4.5-7.9 8.9-15.3 8.9-15.3s-4.2 1.6-7.1 5.1z"/><path fill="#352725" d="M54.1 92.2c5.1-4.8 23.6-39.6 29.1-47.9s27.1-22.7 33.5-23.3c6.4-.6 11.4 5.1 11.4 5.1V8.4h-.1c-1.2 0-24.9 0-30.8 5.9-6.1 6-16.9 15.3-18.2 19.8S61.8 54.9 58.2 60.6c-3.5 5.7-2.6 13.7-2.6 13.7s-1 8.3-4.2 11.8-2.9 13.3-3.5 19.4c-.2 2.3.1 6.6.4 11.2.8-1.6 1.9-3.5 3.1-5.7-.2-7-.4-15.9 2.7-18.8zm41.8 64.2c-.6-1-1.1-2.1-1.5-3.1L88 130.5l-1.7-.4c0 .1 0 .3-.1.4-1.3 7.4 3.3 19.1 3.3 19.1s-5.2-4.2-5.1-11.3v-9.6c-.7-1.7-2-5.6-3-11.7-.7 2.4-1.3 4.7-1.7 6.2-1.3 4.5 4.8 23 6.6 27.8.6 1.5 1.3 3.9 2 6.4l7.3 2.8.3-3.8zm-17.6 11.7s2.2.9 4.5 2.1c.5-1.3.7-2.1.7-2.1l3 1c-.1-1.6-.2-2.8-.2-2.8l-2.9-10.9 1.2.5c-.8-1.2-1.5-2.3-1.9-3.1-1.9-3.9-6.7-22.3-6.7-22.3-1.3 5.4 1.6 14.3 1.6 14.3s-5.7-7.6-2.9 2.9c2.9 10.5-2.5 18.6-2.5 18.6 3.9-6.3-10.6-24-13.1-34.9-2.6-10.9 2.6-23.9 2.6-23.9s-4.2 8.6-8 13.4-3.5 23-2.2 30c.6 3.5.3 7.9-.3 11.5 2.8 3 9.8 11.1 12.2 15.8l-5.8-16.1s9 .2 14.7 6c2.8 2.8 5.5 6.4 7.5 9.4.3-.7.7-1.5 1-2.2l-2.5-7.2z"/><path fill="#3A3838" d="M113.3 175.1s-.4-.3-.9-1.5l-3-2.6-.4-1.3c-5.1-3.5-10.1-8-13.1-13.3l-.3 3.7-.6 6.7h.3c2.6 11.5 32.7 15.6 32.7 15.6v-1.9c.1.1-9.9-1.5-14.7-5.4z"/><path fill="#030E18" d="M100.1 192.4H128v-9.9s-30.2-4.2-32.7-15.6H95c-.7-.1-2.3-.1-3.6 1.3 0 .3.1.6 0 .9 0 0-.1-.3-.2-.7-.4.5-.8 1.2-1 2.1 1 5.2 4.5 12.2 7 16.9l2.9 5z"/><path fill="#C08C76" d="M101.4 80.3c.1 1 .1 2.1.1 3.1.1.1.3.1.4.2-.1-1.2-.3-2.3-.5-3.3zm19.5 14.4l7.2.7V52.9c-1.4 0-3.8-1.6-5.7-3.1-4.6.5-13.6 2.6-18.2 12-.9 6.4-.9 14.1 0 16.4.4 1 .5 3.6.6 6.8 6.4 3.2 13.3 6.4 15.7 6.9l.4 2.8zm-29.8-21c-.2 1.3-.2 3-.3 5l.4-.4c0-2.9-.1-4.6-.1-4.6z"/><path fill="#635A5B" d="M109 169.7l-5.3-15.7 2.9-3.1-2.9-16.8-7.2-7.2c-2.8.5-5 .9-5.4 1.1-1.2.6-3 2.5-3 2.5l6.4 22.7c.4 1.1 1 2.1 1.5 3.1 3 5.4 7.9 9.8 13 13.4z"/><path fill="#3E3B3F" d="M103.7 134.1l2.9 16.8-2.9 3.1 5.3 15.7.4 1.3 3 2.6c-.9-2-2.2-6.4-3.1-15.9l4.6-4.9-.6-16.9-2.4-1.3.6-5.6s8.1-3.2 11.5-12.5c0 0 0-.1.1-.2-2.7 2.2-7.9 6.2-11.6 7.4-2.8.9-8.4 2-13 2.8l.3 1.5c-.3-.3-.7-.8-1-1.4-.5.1-.9.2-1.3.2l7.2 7.3z"/><path fill="#2F2C30" d="M113.3 175.1c4.8 4 14.7 5.6 14.7 5.6v-10.8h-5.5v-1.8h5.5v-1.8h-5.5v-1.8h5.5V160h-5.5v-1.8h5.5v-1.8h-5.5v-1.8h5.5v-1.8h-5.5V151h5.5v-1.4h-5.5v-1.8h5.5v-2h-5.5V144h5.5v-1.3h-5.5v-1.8h5.5v-2.5h-5.5v-1.8h5.5V115h-3.2s-.7.6-1.7 1.4c0 .1-.1.2-.1.2-3.4 9.3-11.5 12.5-11.5 12.5l-.6 5.6 2.4 1.3.6 16.9-4.6 4.9c.9 9.5 2.2 13.9 3.1 15.9.6 1 .9 1.4.9 1.4z"/><path fill="#100C10" d="M127.9 168.1h-5.4v1.8h5.6v-1.8zm0-3.6h-5.4v1.9h5.6v-1.9zm0-6.3h-5.4v1.8h5.6v-1.8zm0-3.6h-5.4v1.8h5.6v-1.8zm0-3.6h-5.4v1.8h5.6V151zm0-3.2h-5.4v1.8h5.6v-1.8zm0-3.9h-5.4v1.9h5.6v-1.9zm0-3.1h-5.4v1.8h5.6v-1.8zm0-4.3h-5.4v1.8h5.6v-1.8z"/><path fill="#191619" d="M88 130.5s1.8-1.9 3-2.5c.4-.2 2.6-.6 5.4-1.1.4-.1.9-.2 1.3-.2-.3-.5-.5-1.1-.8-1.8-3.5.8-5.9 1.2-5.9 1.2l-4.6 2.7c-.1.5-.1 1-.2 1.4l1.8.3zm35.1-14.2c1-.8 1.7-1.4 1.7-1.4h3.2v-3.3s-2.9-.4-4.9.7c-.2.1-.4.2-.6.4-4 6-16.3 9.9-24.3 11.8.1.7.2 1.4.3 1.9 4.6-.8 10.2-1.9 13-2.8 3.7-1.1 9-5.1 11.6-7.3z"/><path fill="#3B3939" d="M84.1 106.9s-1.4 5.3-2.8 10.1c1.1 6.2 2.4 10 3 11.7 0-9.6-.2-21.8-.2-21.8zm5.1-11.6c-.1 2.1-.6 10-1.2 17.9l1.4-7.1c-.5-5.1-.3-9.4-.2-10.8zm33.3 17.4c.2-.2.4-.3.6-.4 2-1.1 4.9-.7 4.9-.7v-8.1h-3.2l-.8-3.2-4.3-1.3 1.2-4.2-.4-2.9c-2.4-.5-9.3-3.7-15.7-6.9 0 3.7-.1 8.3-.2 11.9 4.2 1.6 8.3 3.2 10.3 4.1 8.2 3.6 7.6 11.7 7.6 11.7zm-18.6-16.1c-.4-4.1-1.2-9-1.9-13-.1-.1-.3-.1-.4-.2 0 4-.6 8.1-1.4 11.7.6.2 1.2.5 1.8.8.6.2 1.3.5 1.9.7zm-11.7-4.4c-.4-5.6-.7-10.6-.8-14l-.4.4c0 4.3.2 9.9.5 15.7.3-1.4.6-2.1.6-2.1h.1z"/><path fill="#302D2E" d="M122.5 112.7s.6-8.1-7.6-11.8c-2-.9-6.2-2.5-10.3-4.1v.2c6.6 3.1 12.9 7.3 12.8 11.8-.3 7.3-13.5 9.3-19.9 9.9.3 2.2.6 4.2.8 5.9 7.9-2 20.2-5.9 24.2-11.9zm-18.6-15.9zm-12.7 29.3s2.4-.4 5.9-1.2c-.6-1.6-1.1-3.7-1.6-6-.9 0-1.5.1-1.5.1-.2-.5-.5-.9-.7-1.4.3 2.7.4 4.4.4 4.4-2.7-4.2-3.8-10.4-4.3-15.9l-1.4 7.1c-.4 6-1 12-1.5 15.6l4.7-2.7z"/><path fill="#191619" d="M95.4 118.8c-1.5-7.4-2.6-17.7-3.2-26.6h-.1s-.3.8-.6 2.1c.5 8.8 1.3 17.9 1.8 23.1.2.5.4.9.7 1.4-.1.1.5.1 1.4 0zm21.9-10c.2-4.4-6.1-8.6-12.8-11.8-.1 2.2-.2 4.1-.2 5.2 0 .4 0 .8-.1 1.2 0 0 0-.4.1-1.2 0-1.4-.1-3.3-.3-5.5-.6-.3-1.3-.6-1.9-.9s-1.2-.5-1.8-.8c-1 4.5-2.3 8.3-3 10.4-.8 2.5-.4 8.2.2 13.2 6.3-.4 19.5-2.4 19.8-9.8z"/><path fill="#302D2E" d="M128.1 95.4l-7.2-.7-1.2 4.2 4.3 1.3.8 3.2h3.3v-.7z"/><path fill="#231513" d="M122.4 49.8c-1.5-1.2-2.7-2.3-2.7-2.3s-7.1-9.9-13.9 7.3c-.7 1.8-1.2 4.3-1.6 7 4.6-9.4 13.6-11.5 18.2-12z"/><path fill="#4C3B38" d="M50 168.9c-.1.1-.1.1 0 0-.1.1-.1.1 0 0zm1.5-17.9c-1.3-7.1-1.6-25.3 2.2-30s8-13.4 8-13.4-5.1 13.1-2.6 23.9c2.6 10.9 17 28.6 13.1 34.9 0 0 5.4-8.1 2.5-18.6s2.9-2.9 2.9-2.9-2.9-8.9-1.6-14.3c0 0 4.8 18.4 6.7 22.3.4.8 1.1 1.9 1.9 3.1 1.9 2.9 4.4 6.5 5.8 9.4-.6-2.3-1.4-5.2-2.2-8-.7-2.5-1.4-4.8-2-6.4-1.9-4.8-7.9-23.3-6.6-27.8.4-1.5 1.1-3.8 1.7-6.2 1.3-4.8 2.8-10.1 2.8-10.1s.2 12.2.3 21.9c0 4 .1 7.5 0 9.6-.1 7.1 5.1 11.3 5.1 11.3s-4.6-11.7-3.3-19.1c0-.1 0-.3.1-.4.1-.4.1-.9.2-1.4.5-3.6 1-9.6 1.5-15.6.6-8 1.1-15.8 1.2-17.9-.1 1.5-.2 5.8.2 10.8.5 5.4 1.6 11.7 4.3 15.9 0 0-.2-1.7-.4-4.4-.5-5.2-1.3-14.3-1.8-23.1-.4-5.8-.6-11.4-.5-15.7 0-2 .1-3.7.3-5 0 0 .1 1.7.2 4.6.2 3.4.4 8.4.8 14 .7 8.9 1.7 19.2 3.2 26.6.5 2.4 1 4.4 1.6 6 .3.7.5 1.3.8 1.8.3.6.6 1.1 1 1.4 0 0-.1-.6-.3-1.5-.1-.5-.2-1.2-.3-1.9-.3-1.6-.6-3.7-.8-5.9-.6-5-1-10.6-.2-13.2.7-2.2 1.9-6 3-10.4.8-3.7 1.5-7.8 1.4-11.7 0-1 0-2.1-.1-3.1.2 1 .4 2.1.6 3.3.7 4 1.4 8.9 1.9 13v.1c.2 2.2.4 4.1.3 5.5.1-1.1.2-3 .2-5.2V97c.1-3.6.3-8.2.2-11.9 0-3.2-.2-5.8-.6-6.8-.9-2.3-.9-9.9 0-16.4.4-2.7.9-5.2 1.6-7 6.7-17.2 13.9-7.3 13.9-7.3s1.2 1.1 2.7 2.3c1.9 1.5 4.2 3.1 5.7 3.1V26.1s-5-5.7-11.4-5.1-28.1 15-33.5 23.3-24 43.1-29.1 47.9c-3.1 2.9-2.9 11.8-2.6 18.9-1.2 2.2-2.3 4.1-3.1 5.7-.4.8-.8 1.5-1.1 2.1-3.2 6.8-4.5 31.8 0 37.5 4.2 5.3 2.8 11.7 2.6 12.5.1-.5.8-3.1 1.3-6.4.6-3.6 1-8 .3-11.5zm6.7-58.8c2.9-3.5 7-5.1 7-5.1s-4.4 7.4-8.9 15.3c.2-4.3.7-8.6 1.9-10.2zM91.4 169c.1-.3 0-.6 0-.9-.1-.8-.4-1.7-.9-2.8.3 1.3.6 2.3.8 3 .1.5.1.7.1.7z"/><path fill="#4C3B38" d="M104.3 102.3c0 .7-.1 1.2-.1 1.2.1-.4.1-.8.1-1.2z"/><path fill="#172028" d="M128.1 249.9v-17.2H74.6v-20.1l22.6-25.2c-2.6-4.7-6-11.8-7-16.9l-3.6-1.3-3-1s-.3.8-.7 2.1c-.5 1.3-1.2 3.2-2 5.1-.3.7-.6 1.5-1 2.2-1 2.3-2.2 4.4-3.3 5.8.3-.1.6-.1.8-.2l-4.8 16-7.3 4.6c-1.9 8.2-2.8 19.6-1.2 35.3 7.8 4.5 16.1 8.2 24.8 10.9h39.2v-.1z"/><path fill="#172028" d="M100.1 192.4l-22 23v11.9h50v-34.9h-.2z"/><path fill="#2B343E" d="M127.9 227.3H78.1v-11.9l22-23-2.9-5.1-22.6 25.3v20.1h53.5v-5.4zm0 22.6H89c12.3 3.9 25.4 6.1 39 6.1h.1v-6.1h-.2zm-62.5-46.2l7.3-4.6 4.8-16c-.1.1-8.3 3.9-12.1 20.6zm-19.5-8.2c-8.3 3.8-14.8 6.9-14.8 6.9-2.5-2.1-5.4-.5-6.8.7 4.1 5.6 8.5 10.8 13.4 15.7 1.1-9 3.5-17.2 8.2-23.3z"/><path fill="#00020E" d="M65.4 203.7c3.9-16.7 12-20.5 12-20.5-.3 0-.6.1-.8.2-1.2.2-2.3.5-3.4.9-1.1.5-15.3 8.1-15.6 37.9 0 4.2.2 8.6.5 13.1 2 1.3 4 2.5 6 3.7-1.6-15.6-.7-27 1.3-35.3z"/><path fill="#161A24" d="M48.3 193.2c-.8.5-1.2.8-1.2.8-.4.5-.8.9-1.1 1.4-4.7 6.1-7.2 14.4-8.2 23.3.8.8 1.6 1.6 2.4 2.3.9-9.7 3.2-20.3 8.1-27.8zm9.3 29c.3-29.8 14.5-37.4 15.6-37.9h.1c-1.8.1-3.7.3-5.4.7 0 0-15.1 13.2-13.7 47.6 1.3.9 2.7 1.8 4 2.7-.4-4.6-.6-9-.6-13.1z"/><path fill="#2B343E" d="M67.8 184.9l-3.6-1.7c-9.3 1.7-12.9 6.2-12.9 6.2-1.1 1.1-2.1 2.4-3 3.8-4.9 7.4-7.2 18.1-8.1 27.8 4.4 4.1 9.1 8 14 11.5-1.5-34.4 13.6-47.6 13.6-47.6z"/></svg>