<svg xmlns="http://www.w3.org/2000/svg" width="256" height="256"><circle fill="#B1B3B5" cx="128" cy="128" r="128"/><path fill="#133961" d="M31.5 193.2c-3.3-6.8-4.7-11.4-4.7-11.4.2-.1.5-.2.7-.2-4.6-1.4-11.2-2.9-17-2.7.6 1.4 1.2 2.8 1.9 4.2 9.9.3 15.7 5.1 19.1 10.1z"/><path fill="#504E32" d="M34.4 198.9c1.5 3.9 1.7 7 1.7 7-1.7 1.6-3.4 3.5-5.1 5.6 11.5 13.4 25.8 24.3 41.9 32-4.6-4-9-7.8-12.9-11.3-12.1-10.9-20.3-23.5-25.6-33.3z"/><path fill="#A7816E" d="M187.7 206.5c4.3-.2 8.2-.5 11.7-.9.6-.7 2.2-2.2 4.3-3.9-6.4-2.7-7.4-4.9-9.3-7.2-1.7-2-11.6-12.3-17.2-18.1.1 9 .5 17 1.7 19 1.8 3.3 5.9 8 8.8 11.1z"/><path fill="#1E4977" d="M215.8 195.5c-4.3.4-8.8 3.5-12.1 6.1-2.1 1.7-3.6 3.2-4.3 3.9 15.1-1.7 23.9-4.8 28.3-6.3 1.9-.6 4.6-1.1 7.6-1.5.2-.2.3-.5.5-.7-11.1-1.2-12.8-2.2-20-1.5z"/><path fill="#775B4B" d="M167.4 165.7h-1.3s.3 0-2.9 3.8c-3.2 3.8-8 7-8.5 7.8-.5.8-2.6 3.2-2.6 3.2l-.6-2.1s-1.1.5-4 2.1-4.6 1.4-4.6 1.4l1.4-1-4 1.1s-.8-1.9-3.2-.7c-2.4 1.1-3.7 2.4-3.7 2.4l-.5-2.9-2.1 1.9s-2.4-.6-3.2 1v17.2c.1.1 10.8 5.3 43.7 6 5.9.1 11.3 0 16.2-.2-2.8-3.1-7-7.8-8.8-11.1-1.1-2.1-1.5-10-1.7-19-.1-7.2 0-15 .2-21-.9 1.7-1.8 3-2.5 3.7-2.2 2.1-7.3 6.4-7.3 6.4z"/><path fill="#7C8692" d="M36.1 205.9s-.3-3.1-1.7-7c-1.1-2-2-3.9-2.9-5.7-3.4-5.1-9.2-9.8-19.1-10.2 4.9 10.3 11.2 19.9 18.6 28.4 1.7-2 3.4-3.9 5.1-5.5z"/><path fill="#775B4B" d="M185.5 124.2s-1.3 7.7-2.7 13.7c2.6 1.7 6.5 2.9 10.1.3 5.4-3.8 3.8-12.3 2.6-16.3-1.3-4-1.1-8.9-1.1-12.8 0-3.8 1.3-7.3 1.1-8.6-.2-1.3-3.9-2.6-5.5-2.4h-1.9c-.2 5.3-.4 9.7-.6 11.6-.5 4.6-.4 6.7-2 14.5z"/><path fill="#8C6C5A" d="M185.6 83.1c.5-4.6-.8-15.2-2.4-21.6s-5.7-15.8-10.9-21.6c-5.1-5.7-15.6-16.3-44.5-16.3V120c.1 0 5.4-1 8-3.4 2.6-2.4 6.5 2.4 9.3 3.4 2.7 1 8.5 3.5 10.5 4.9 2.1 1.4 6.7 9.3 6.7 9.3h-1.8l.2 2.2.3 3.3s-5.7-4.7-6.1-6.4c-.3-1.8-6.2-6.9-10.9-8.6-4.6-1.8-8.9-3.7-10.5-3-1.6.6-1.9 1.4-5.7 1.4v20.3c.1 0 12.6.6 17.2-1.3 0 0-5.9 2.7-6.4 4.6-.5 1.9-2.9 3.5-3.4 4.6-.5 1.1-.5 1.3 1.1 3.2 1.6 1.9 4.9 3.2 6.4 4.6s1.4 2.7 3.7 1.1c2.2-1.6 2.1 1.4 5.3-3.2 3.2-4.6.3-2.9 3.5-5.5s-.8-2.8 5.1-2.6c5.9.2 4.5 2.6 8.6-1.3 4.2-3.8-.3-4.7 4.9-7.9 5.3-3.3 5.6-2.6 7.5-5 1.9-2.4 4-10.4 4-10.5 1.6-7.8 1.6-9.9 2-14.5.2-2 .4-6.3.6-11.6v-.3c-.1 2.2-2.8-10.1-2.3-14.7zm1 11.8c.2.8-.1 1.5-.6 1.6-.5.1-1.1-.4-1.3-1.2-.2-.8.1-1.5.6-1.6.5-.1 1.1.5 1.3 1.2zm-4.8 9.5c.2.7-.1 1.4-.6 1.5-.5.1-1-.4-1.2-1.1-.2-.7.1-1.4.6-1.5.5-.1 1.1.4 1.2 1.1zm-.1-9.2c-.5.1-1-.4-1.2-1.1s.1-1.4.6-1.5 1 .4 1.2 1.1c.1.8-.1 1.4-.6 1.5zm0 3.9c-.5.1-1-.4-1.2-1.1s.1-1.4.6-1.5 1 .4 1.2 1.1c.1.8-.1 1.4-.6 1.5zm-.4-8.7c-.5.1-1-.4-1.2-1.1-.2-.7.1-1.4.6-1.5.5-.1 1 .4 1.2 1.1.1.7-.1 1.4-.6 1.5zm-.6 9.6c.5-.1 1 .4 1.2 1.1.2.7-.1 1.4-.6 1.5-.5.1-1-.4-1.2-1.1-.2-.7.1-1.4.6-1.5zm1.9 6.5c.5-.1 1.1.4 1.3 1.2.2.8-.1 1.5-.6 1.6-.5.1-1.1-.4-1.3-1.2s.1-1.5.6-1.6zm1-1.2c-.5.1-1.1-.4-1.3-1.2-.2-.8.1-1.5.6-1.6.5-.1 1.1.4 1.3 1.2s0 1.5-.6 1.6zm0-3.4c-.5.1-1.1-.4-1.3-1.2s.1-1.5.6-1.6c.5-.1 1.1.4 1.3 1.2s0 1.5-.6 1.6zm0-4c-.5.1-1.1-.4-1.3-1.2s.1-1.5.6-1.6c.5-.1 1.1.4 1.3 1.2.2.8 0 1.5-.6 1.6zm-.6-7.3c.5-.1 1.1.4 1.3 1.2s-.1 1.5-.6 1.6c-.5.1-1.1-.4-1.3-1.2-.2-.7.1-1.5.6-1.6zm2.5 1.5c-.4.1-.9-.4-1.1-1.2s0-1.5.5-1.6c.4-.1.9.4 1.1 1.2s0 1.5-.5 1.6zm.1-5.6c.2.8 0 1.4-.3 1.5-.3.1-.8-.5-1-1.2s0-1.4.3-1.5c.4-.1.8.4 1 1.2zm-1.4-5.2c.4-.1.8.5 1 1.2s0 1.4-.3 1.5c-.4.1-.8-.5-1-1.2s0-1.4.3-1.5zm-.4 5.7c.2.8-.1 1.5-.6 1.6-.5.1-1.1-.4-1.3-1.2s.1-1.5.6-1.6c.6 0 1.2.5 1.3 1.2zm-1.8-5.6c.5-.1 1.1.4 1.3 1.2s-.1 1.5-.6 1.6c-.5.1-1.1-.4-1.3-1.2s.1-1.4.6-1.6zm-2.3 1.9c.5-.1 1 .4 1.2 1.1.2.7-.1 1.4-.6 1.5-.5.1-1-.4-1.2-1.1-.1-.7.1-1.4.6-1.5zm0 23.3c.5-.1 1 .4 1.2 1.1.2.7-.1 1.4-.6 1.5-.5.1-1-.4-1.2-1.1-.1-.7.1-1.4.6-1.5zm-.6 9.4c.2.8-.1 1.5-.6 1.6-.5.1-1.1-.4-1.3-1.2-.2-.8.1-1.5.6-1.6.6 0 1.1.5 1.3 1.2zm-4.7 5.8c-.2-.8.1-1.5.6-1.6.5-.1 1.1.4 1.3 1.2s-.1 1.5-.6 1.6c-.5.1-1.1-.4-1.3-1.2zm1.3-3.7c-.5.1-1.1-.4-1.3-1.2s.1-1.5.6-1.6c.5-.1 1.1.4 1.3 1.2s-.1 1.4-.6 1.6zm2.1 1.8c.5-.1 1.1.4 1.3 1.2s-.1 1.5-.6 1.6c-.5.1-1.1-.4-1.3-1.2-.1-.8.1-1.5.6-1.6zm.1-11.2c.5-.1 1 .4 1.2 1.1.2.7-.1 1.4-.6 1.5s-1-.4-1.2-1.1.1-1.4.6-1.5zm-.7 2.1c.2.7-.1 1.4-.6 1.5-.5.1-1-.4-1.2-1.1s.1-1.4.6-1.5c.5-.1 1 .4 1.2 1.1zm-39-35.5c.5-2.7 5.1-2.9 5.1-2.9l-1.4-1.8s4.9-.3 8-1.3c3-1 12.3-.2 15.5.6s7.2 7 8.6 9.3c1.4 2.2 1.9 4 1.9 4-1.9-.6-10.7-7.3-12.9-8-2.2-.6-7.2-1.3-7.2-1.3l2.7 1.3s-8.6 1.3-12.9 2.6c-4.4 1.3-7.4-2.5-7.4-2.5zm26.6 41.9c-.7.2-1.4-.4-1.6-1.2-.2-.8.2-1.6.9-1.8s1.4.4 1.6 1.2c.2.8-.2 1.6-.9 1.8zm0 5.1c-.7.2-1.4-.4-1.6-1.2-.2-.8.2-1.6.9-1.8s1.4.4 1.6 1.2c.2.9-.2 1.7-.9 1.8zm-2.3-10.3c-.7.2-1.4-.4-1.6-1.2-.2-.8.2-1.6.9-1.8.7-.2 1.4.4 1.6 1.2.2.9-.2 1.7-.9 1.8zm1.6-.6c-.2-.8.2-1.6.9-1.8.7-.2 1.4.4 1.6 1.2s-.2 1.6-.9 1.8c-.6.2-1.4-.4-1.6-1.2zm2.9 8.3c.7-.2 1.4.4 1.6 1.2s-.2 1.6-.9 1.8c-.7.2-1.4-.4-1.6-1.2-.1-.8.2-1.6.9-1.8zm.9-1.9c-.7.2-1.4-.4-1.6-1.2-.2-.8.2-1.6.9-1.8.7-.2 1.4.4 1.6 1.2.2.8-.2 1.6-.9 1.8zm.9-4.8c-.7.2-1.4-.4-1.6-1.2s.2-1.6.9-1.8c.7-.2 1.4.4 1.6 1.2s-.2 1.7-.9 1.8zm-8.4-3.1c0 .9-.7 1.6-1.6 1.6-.9 0-1.6-.7-1.6-1.6 0-.9.7-1.6 1.6-1.6.9.1 1.6.8 1.6 1.6zm-3.9-.4c0 .9-.7 1.6-1.6 1.6-.9 0-1.6-.7-1.6-1.6s.7-1.6 1.6-1.6c.9 0 1.6.7 1.6 1.6zm-7.1 0c0-.9.7-1.6 1.6-1.6.9 0 1.6.7 1.6 1.6s-.7 1.6-1.6 1.6c-.9-.1-1.6-.8-1.6-1.6zm2 4.4c0-.9.7-1.6 1.6-1.6.9 0 1.6.7 1.6 1.6 0 .9-.7 1.6-1.6 1.6-.9 0-1.6-.7-1.6-1.6zm2.7 6.4c-.9 0-1.6-.7-1.6-1.6 0-.9.7-1.6 1.6-1.6.9 0 1.6.7 1.6 1.6-.1.9-.7 1.6-1.6 1.6zm1.6-5.9c0-.9.7-1.6 1.6-1.6.9 0 1.6.7 1.6 1.6 0 .9-.7 1.6-1.6 1.6-.9 0-1.6-.7-1.6-1.6zm1.9 6.5c-.9 0-1.6-.7-1.6-1.6 0-.9.7-1.6 1.6-1.6.9 0 1.6.7 1.6 1.6 0 .9-.7 1.6-1.6 1.6zm3.5-7.3c.9 0 1.6.7 1.6 1.6 0 .9-.7 1.6-1.6 1.6-.9 0-1.6-.7-1.6-1.6 0-.9.7-1.6 1.6-1.6zm.1 8c-.9 0-1.6-.7-1.6-1.6 0-.9.7-1.6 1.6-1.6.9 0 1.6.7 1.6 1.6 0 .9-.7 1.6-1.6 1.6zm9.4 1.4c-.5.1-1.1-.4-1.3-1.2s.1-1.5.6-1.6c.5-.1 1.1.4 1.3 1.2s-.1 1.5-.6 1.6zm0-4.9c-.5.1-1.1-.4-1.3-1.2s.1-1.5.6-1.6c.5-.1 1.1.4 1.3 1.2s-.1 1.4-.6 1.6zm-.2-6.3c-.2-.8.1-1.5.6-1.6.5-.1 1.1.4 1.3 1.2.2.8-.1 1.5-.6 1.6-.6.1-1.2-.4-1.3-1.2zm2.7 11.8c-.5.1-1.1-.4-1.3-1.2-.2-.8.1-1.5.6-1.6.5-.1 1.1.4 1.3 1.2s0 1.5-.6 1.6zm0-5.5c-.5.1-1.1-.4-1.3-1.2s.1-1.5.6-1.6c.5-.1 1.1.4 1.3 1.2s0 1.4-.6 1.6zm-.2-6.3c-.2-.7.1-1.4.6-1.5.5-.1 1 .4 1.2 1.1.2.7-.1 1.4-.6 1.5s-1.1-.4-1.2-1.1zm7.9 8.9c-.5.1-1.1-.4-1.3-1.2-.2-.8.1-1.5.6-1.6.5-.1 1.1.4 1.3 1.2s-.1 1.5-.6 1.6zm0-4.9c-.5.1-1.1-.4-1.3-1.2-.2-.8.1-1.5.6-1.6.5-.1 1.1.4 1.3 1.2s-.1 1.5-.6 1.6zm.2-4.6c-.2-.8.1-1.5.6-1.6.5-.1 1.1.4 1.3 1.2s-.1 1.5-.6 1.6c-.6.1-1.2-.4-1.3-1.2zm2.2 7.4c-.5.1-1.1-.4-1.3-1.2s.1-1.5.6-1.6c.5-.1 1.1.4 1.3 1.2.2.7-.1 1.4-.6 1.6zm1-3.3c-.5.1-1.1-.4-1.3-1.2s.1-1.5.6-1.6c.5-.1 1.1.4 1.3 1.2s-.1 1.5-.6 1.6zm1-3.4c-.5.1-1.1-.4-1.3-1.2-.2-.8.1-1.5.6-1.6.5-.1 1.1.4 1.3 1.2s-.1 1.5-.6 1.6zm.4-3.8c-.5.1-1.1-.4-1.3-1.2-.2-.8.1-1.5.6-1.6.5-.1 1.1.4 1.3 1.2s0 1.5-.6 1.6zm.6-3.4c-.5.1-1.1-.4-1.3-1.2-.2-.8.1-1.5.6-1.6.5-.1 1.1.4 1.3 1.2s-.1 1.5-.6 1.6zm.6-5.8c.2.8-.1 1.5-.6 1.6-.5.1-1.1-.4-1.3-1.2-.2-.8.1-1.5.6-1.6.6 0 1.2.5 1.3 1.2z"/><path fill="#4B4242" d="M127.8 18.9v4.8c28.9 0 39.4 10.5 44.5 16.3 5.1 5.7 9.3 15.2 10.9 21.6s2.9 16.9 2.4 21.6 2.2 16.9 2.5 14.7c.3-2.2 4.5-16.8 4-21.1-.5-4.3 3.2-16.4-13.1-42.8-16.2-26.4-51.1-25.6-51.2-25.6v10.5z"/><path fill="#4B4242" d="M155.7 74s4.9.6 7.2 1.3c2.2.6 11 7.3 12.9 8 0 0-.5-1.8-1.9-4s-5.4-8.5-8.6-9.3-12.5-1.6-15.5-.6-8 1.3-8 1.3l1.4 1.8s-4.6.2-5.1 2.9c0 0 3 3.8 7.3 2.6 4.3-1.3 12.9-2.6 12.9-2.6l-2.6-1.4zm-22.2 47.6c1.6-.6 5.9 1.3 10.5 3 4.6 1.8 10.5 6.9 10.9 8.6.3 1.8 6.1 6.4 6.1 6.4l-.3-3.3-.2-2.2h1.8s-4.6-7.8-6.7-9.3c-2.1-1.4-7.8-4-10.5-4.9-2.7-1-6.7-5.7-9.3-3.4-2.5 2.4-7.9 3.3-8 3.4v3c3.8.1 4.1-.7 5.7-1.3z"/><path fill="#4B4242" d="M185.5 124.2c0 .1-2.1 8.1-4 10.5-1.9 2.4-2.2 1.8-7.5 5-5.3 3.3-.8 4.1-4.9 7.9-4.2 3.8-2.7 1.4-8.6 1.3-5.9-.2-1.9 0-5.1 2.6-3.2 2.6-.3.9-3.5 5.5s-3 1.6-5.3 3.2c-2.2 1.6-2.2.3-3.7-1.1s-4.8-2.7-6.4-4.6c-1.6-1.9-1.6-2.1-1.1-3.2s2.9-2.7 3.4-4.6c.5-1.9 6.4-4.6 6.4-4.6-4.6 1.9-17.1 1.3-17.2 1.3v40.2c.8-1.6 3.2-1 3.2-1l2.1-1.9.5 2.9s1.3-1.3 3.7-2.4c2.4-1.1 3.2.7 3.2.7l4-1.1-1.4 1s1.8.2 4.6-1.4c2.9-1.6 4-2.1 4-2.1l.6 2.1s2.1-2.4 2.6-3.2c.5-.8 5.3-4 8.5-7.8s2.9-3.8 2.9-3.8h1.3s5.1-4.3 7.5-6.5c.7-.7 1.6-2 2.5-3.7 2.1-3.9 4.3-9.7 4.2-12.9.4-1.3.8-2.9 1.2-4.7.9-6 2.3-13.6 2.3-13.6z"/><circle fill="#FFDB9A" cx="151" cy="109.5" r="1.6"/><circle fill="#FFDB9A" cx="155" cy="109.5" r="1.6"/><path fill="#FFDB9A" d="M157.2 109.9c0 .9.7 1.6 1.6 1.6.9 0 1.6-.7 1.6-1.6 0-.9-.7-1.6-1.6-1.6-.9.1-1.6.8-1.6 1.6zm6.2.3c-.2-.8-.9-1.4-1.6-1.2-.7.2-1.1 1-.9 1.8.2.8.9 1.4 1.6 1.2s1.1-.9.9-1.8zm3.2.6c-.2-.8-.9-1.4-1.6-1.2-.7.2-1.1 1-.9 1.8s.9 1.4 1.6 1.2c.7-.1 1.1-.9.9-1.8zm-.9 4.6c-.2-.8-.9-1.4-1.6-1.2s-1.1 1-.9 1.8c.2.8.9 1.4 1.6 1.2.7-.2 1.1-1 .9-1.8zm-1.6 3.9c-.7.2-1.1 1-.9 1.8.2.8.9 1.4 1.6 1.2.7-.2 1.1-1 .9-1.8-.2-.8-.9-1.4-1.6-1.2zm3.6 3.5c.7-.2 1.1-1 .9-1.8s-.9-1.4-1.6-1.2c-.7.2-1.1 1-.9 1.8.2.8 1 1.3 1.6 1.2zm1.1-6.8c-.2-.8-.9-1.4-1.6-1.2-.7.2-1.1 1-.9 1.8.2.8.9 1.4 1.6 1.2s1.1-1 .9-1.8zm.9-4.8c-.2-.8-.9-1.4-1.6-1.2-.7.2-1.1 1-.9 1.8s.9 1.4 1.6 1.2c.7-.1 1.1-1 .9-1.8zm2.5.2c-.2-.8-.7-1.3-1.3-1.2-.5.1-.8.8-.6 1.6s.7 1.3 1.3 1.2c.5-.1.8-.9.6-1.6zm-2.2 3.9c-.5.1-.8.8-.6 1.6s.7 1.3 1.3 1.2c.5-.1.8-.8.6-1.6s-.8-1.3-1.3-1.2zm0 4.9c-.5.1-.8.8-.6 1.6s.7 1.3 1.3 1.2c.5-.1.8-.8.6-1.6s-.8-1.3-1.3-1.2zm2.5.6c-.5.1-.8.8-.6 1.6.2.8.7 1.3 1.3 1.2.5-.1.8-.8.6-1.6s-.8-1.3-1.3-1.2zm3.2 2.2c.5-.1.8-.8.6-1.6s-.7-1.3-1.3-1.2c-.5.1-.8.8-.6 1.6s.8 1.3 1.3 1.2zm2.8-.4c.5-.1.8-.8.6-1.6s-.7-1.3-1.3-1.2c-.5.1-.8.8-.6 1.6.2.8.8 1.3 1.3 1.2zm1.6-4.6c-.5.1-.8.8-.6 1.6.2.8.7 1.3 1.3 1.2.5-.1.8-.8.6-1.6s-.7-1.4-1.3-1.2zm2.5-2.2c-.5.1-.8.8-.6 1.6s.7 1.3 1.3 1.2c.5-.1.8-.8.6-1.6-.2-.8-.8-1.3-1.3-1.2zm1-3.2c-.5.1-.8.8-.6 1.6s.7 1.3 1.3 1.2c.5-.1.8-.8.6-1.6s-.8-1.4-1.3-1.2zm1-3.5c-.5.1-.8.8-.6 1.6.2.8.7 1.3 1.3 1.2.5-.1.8-.8.6-1.6s-.8-1.3-1.3-1.2zm.4-3.7c-.5.1-.8.8-.6 1.6.2.8.7 1.3 1.3 1.2.5-.1.8-.8.6-1.6s-.8-1.3-1.3-1.2zm.6-3.5c-.5.1-.8.8-.6 1.6.2.8.7 1.3 1.3 1.2.5-.1.8-.8.6-1.6s-.8-1.3-1.3-1.2zm0-4.1c-.5.1-.8.8-.6 1.6.2.8.7 1.3 1.3 1.2.5-.1.8-.8.6-1.6s-.8-1.3-1.3-1.2zm-.3-4c-.5.1-.8.8-.6 1.6.2.8.7 1.3 1.3 1.2.5-.1.8-.8.6-1.6s-.8-1.4-1.3-1.2zm-.4-4.4c-.4.1-.6.8-.5 1.6s.7 1.3 1.1 1.2c.4-.1.6-.8.5-1.6s-.7-1.3-1.1-1.2zm-.3-4.2c-.3.1-.5.8-.3 1.5s.6 1.3 1 1.2c.3-.1.5-.8.3-1.5s-.6-1.2-1-1.2zm.3-1.1c.4-.1.5-.8.3-1.5s-.6-1.3-1-1.2c-.4.1-.5.8-.3 1.5s.6 1.3 1 1.2zm-12.4 31.2c-.5.1-.8.8-.6 1.6s.7 1.3 1.3 1.2c.5-.1.8-.8.6-1.6s-.8-1.3-1.3-1.2zm2.6 0c-.5.1-.8.8-.6 1.6s.7 1.3 1.3 1.2c.5-.1.8-.8.6-1.6s-.8-1.3-1.3-1.2zm2.1 1.2c.2.8.7 1.3 1.3 1.2.5-.1.8-.8.6-1.6s-.7-1.3-1.3-1.2c-.5.1-.7.8-.6 1.6zm2.9-3.5c-.5.1-.8.8-.6 1.6.2.8.7 1.3 1.3 1.2.5-.1.8-.8.6-1.6s-.7-1.3-1.3-1.2zm2.1-.6c.5-.1.8-.8.6-1.6s-.7-1.3-1.3-1.2c-.5.1-.8.8-.6 1.6.2.8.8 1.3 1.3 1.2zm1-3.1c.5-.1.8-.8.6-1.6-.2-.8-.7-1.3-1.3-1.2-.5.1-.8.8-.6 1.6s.8 1.3 1.3 1.2zm1.1-5.6c-.2-.8-.7-1.3-1.3-1.2-.5.1-.8.8-.6 1.6.2.8.7 1.3 1.3 1.2s.7-.8.6-1.6zm0-3.4c-.2-.8-.7-1.3-1.3-1.2-.5.1-.8.8-.6 1.6s.7 1.3 1.3 1.2c.5-.1.7-.8.6-1.6zm0-4c-.2-.8-.7-1.3-1.3-1.2-.5.1-.8.8-.6 1.6s.7 1.3 1.3 1.2c.5-.1.7-.8.6-1.6zm-.7-2.9c.5-.1.8-.8.6-1.6s-.7-1.3-1.3-1.2c-.5.1-.8.8-.6 1.6.3.8.8 1.3 1.3 1.2zm-1-7.5c-.5.1-.8.8-.6 1.6s.7 1.3 1.3 1.2c.5-.1.8-.8.6-1.6s-.8-1.3-1.3-1.2z"/><ellipse transform="rotate(-13.262 182.343 82.835)" fill="#FFDB9A" cx="182.3" cy="82.8" rx="1" ry="1.4"/><path fill="#FFDB9A" d="M174.6 111.3c-.2-.7-.7-1.2-1.2-1.1-.5.1-.7.8-.6 1.5s.7 1.2 1.2 1.1.8-.8.6-1.5zm.8-.1c.2.7.7 1.2 1.2 1.1.5-.1.7-.8.6-1.5-.2-.7-.7-1.2-1.2-1.1-.5.1-.7.8-.6 1.5zm3.1 0c.5-.1.7-.8.6-1.5-.2-.7-.7-1.2-1.2-1.1-.5.1-.7.8-.6 1.5s.7 1.2 1.2 1.1zm1.8-2c.5-.1.7-.8.6-1.5-.2-.7-.7-1.2-1.2-1.1-.5.1-.7.8-.6 1.5.2.7.8 1.2 1.2 1.1zm.4-5.9c-.5.1-.7.8-.6 1.5.2.7.7 1.2 1.2 1.1.5-.1.7-.8.6-1.5-.2-.7-.8-1.2-1.2-1.1zm-.6-1.8c.2.7.7 1.2 1.2 1.1.5-.1.7-.8.6-1.5-.2-.7-.7-1.2-1.2-1.1-.5.1-.8.8-.6 1.5zm1-4.9c-.5.1-.7.8-.6 1.5s.7 1.2 1.2 1.1.7-.8.6-1.5c-.2-.8-.7-1.3-1.2-1.1zm1.2-2.9c-.2-.7-.7-1.2-1.2-1.1s-.7.8-.6 1.5.7 1.2 1.2 1.1.7-.7.6-1.5zm-1.6-5.9c-.5.1-.7.8-.6 1.5.2.7.7 1.2 1.2 1.1.5-.1.7-.8.6-1.5-.2-.7-.8-1.2-1.2-1.1zm-.4-2c.5-.1.7-.8.6-1.5-.2-.7-.7-1.2-1.2-1.1-.5.1-.7.8-.6 1.5.2.8.8 1.3 1.2 1.1z"/><circle fill="#FFDB9A" cx="153" cy="113.9" r="1.6"/><path fill="#FFDB9A" d="M157.2 116c.9 0 1.6-.7 1.6-1.6 0-.9-.7-1.6-1.6-1.6-.9 0-1.6.7-1.6 1.6.1.9.8 1.6 1.6 1.6z"/><circle fill="#FFDB9A" cx="161.1" cy="115.1" r="1.6"/><circle fill="#FFDB9A" cx="154.1" cy="118.8" r="1.6"/><circle fill="#FFDB9A" cx="157.6" cy="119.3" r="1.6"/><path fill="#FFDB9A" d="M162.8 120.1c0-.9-.7-1.6-1.6-1.6-.9 0-1.6.7-1.6 1.6 0 .9.7 1.6 1.6 1.6.9-.1 1.6-.8 1.6-1.6z"/><path fill="#8B6C5B" d="M78.1 184.8c.1-3.1.2-6.5.2-10.1-2.1 2.3-4.5 6-6.4 9.6 2 0 4.1.2 6.2.5z"/><path fill="#60493B" d="M94.5 189.1c8.6 3.5 33.3 11.6 33.3 11.6v-17.2c-.8-1.6-3.2-1-3.2-1l-2.1-1.9-.5 2.9s-1.3-1.3-3.7-2.4c-2.4-1.1-3.2.7-3.2.7l-4-1.1 1.4 1s-1.8.2-4.6-1.4c-2.9-1.6-4-2.1-4-2.1l-.6 2.1s-2.1-2.4-2.6-3.2c-.5-.8-5.3-4-8.5-7.8s-2.9-3.8-2.9-3.8H88s-5.1-4.3-7.5-6.5c-.7-.7-1.6-2-2.5-3.7.1 5.5.2 12.5.2 19.3 0 3.6-.1 7-.2 10.1 5.6.8 11.7 2.5 16.5 4.4zm-24.4-64.9c-1.6-7.8-1.6-9.9-2-14.5-.2-2-.4-6.3-.6-11.6h-1.9c-1.6-.2-5.3 1.2-5.5 2.4-.2 1.3 1.1 4.8 1.1 8.6s.1 8.8-1.1 12.8c-1.3 4-2.9 12.5 2.6 16.3 3.6 2.6 7.5 1.4 10.1-.3-1.4-6.1-2.7-13.7-2.7-13.7z"/><path fill="#775B4B" d="M70.1 124.2c0 .1 2.1 8.1 4 10.5 1.9 2.4 2.2 1.8 7.5 5 5.3 3.3.8 4.1 4.9 7.9 4.2 3.8 2.7 1.4 8.6 1.3 5.9-.2 1.9 0 5.1 2.6 3.2 2.6.3.9 3.5 5.5s3 1.6 5.3 3.2c2.2 1.6 2.2.3 3.7-1.1s4.8-2.7 6.4-4.6c1.6-1.9 1.6-2.1 1.1-3.2s-2.9-2.7-3.4-4.6c-.5-1.9-6.4-4.6-6.4-4.6 4.6 1.9 17.2 1.3 17.2 1.3V123c-3.8 0-4.2-.8-5.7-1.4-1.6-.6-5.9 1.3-10.5 3-4.6 1.8-10.5 6.9-10.9 8.6-.3 1.8-6.1 6.4-6.1 6.4l.3-3.3.2-2.2h-1.8s4.6-7.8 6.7-9.3c2.1-1.4 7.8-4 10.5-4.9 2.7-1 6.7-5.7 9.3-3.4s8 3.4 8 3.4V23.7c-28.9 0-39.4 10.5-44.5 16.3-5.1 5.7-9.3 15.2-10.9 21.6S69.5 78.5 70 83.1c.5 4.6-2.2 16.9-2.5 14.7v.3c.2 5.3.4 9.7.6 11.6.4 4.6.4 6.7 2 14.5zm-1.3-21.1c.2-.8.7-1.3 1.3-1.2.5.1.8.8.6 1.6-.2.8-.7 1.3-1.3 1.2-.6-.1-.8-.9-.6-1.6zm.5 3.4c.2-.8.7-1.3 1.3-1.2.5.1.8.8.6 1.6-.2.8-.7 1.3-1.3 1.2-.5-.1-.8-.8-.6-1.6zm2-10.2c.2-.8.7-1.3 1.3-1.2.5.1.8.8.6 1.6s-.7 1.3-1.3 1.2c-.5-.1-.8-.8-.6-1.6zm8 20.2c.2-.8.7-1.3 1.3-1.2.5.1.8.8.6 1.6s-.7 1.3-1.3 1.2c-.5-.2-.8-.9-.6-1.6zm1.2 3.7c.5.1.8.8.6 1.6s-.7 1.3-1.3 1.2c-.5-.1-.8-.8-.6-1.6s.8-1.3 1.3-1.2zm-4 .8c.2-.8.7-1.3 1.3-1.2.5.1.8.8.6 1.6-.2.8-.7 1.3-1.3 1.2-.5-.1-.8-.8-.6-1.6zm1.9-4.5c-.2.8-.7 1.3-1.3 1.2-.5-.1-.8-.8-.6-1.6s.7-1.3 1.3-1.2c.5.1.7.8.6 1.6zm-2-8.4c-.2.7-.7 1.2-1.2 1.1-.5-.1-.7-.8-.6-1.5s.7-1.2 1.2-1.1c.5.1.8.8.6 1.5zm-.3 6.5c-.2.8-.7 1.3-1.3 1.2-.5-.1-.8-.8-.6-1.6s.7-1.3 1.3-1.2c.5.1.7.9.6 1.6zm-.6-25.3c-.2.7-.7 1.2-1.2 1.1-.5-.1-.7-.8-.6-1.5.2-.7.7-1.2 1.2-1.1s.8.8.6 1.5zm0 12.2c-.2.7-.7 1.2-1.2 1.1-.5-.1-.7-.8-.6-1.5.2-.7.7-1.2 1.2-1.1s.8.8.6 1.5zm-1-8.8c.5.1.7.8.6 1.5s-.7 1.2-1.2 1.1-.7-.8-.6-1.5c.2-.8.7-1.2 1.2-1.1zm-1.2 4.9c.2-.7.7-1.2 1.2-1.1s.7.8.6 1.5-.7 1.2-1.2 1.1-.8-.7-.6-1.5zm1.6 5.7c.5.1.7.8.6 1.5-.2.7-.7 1.2-1.2 1.1-.5-.1-.7-.8-.6-1.5s.7-1.2 1.2-1.1zm-3.2 4.4c.2-.8.7-1.3 1.3-1.2.5.1.8.8.6 1.6s-.7 1.3-1.3 1.2c-.5-.1-.7-.9-.6-1.6zm-.4-4c.2-.8.7-1.3 1.3-1.2.5.1.8.8.6 1.6-.2.8-.7 1.3-1.3 1.2s-.8-.8-.6-1.6zm1.9-2.9c-.2.8-.7 1.3-1.3 1.2-.5-.1-.8-.8-.6-1.6s.7-1.3 1.3-1.2c.5.1.8.8.6 1.6zm-1.9-9c.2-.8.7-1.3 1.3-1.2.5.1.8.8.6 1.6-.2.8-.7 1.3-1.3 1.2-.5-.1-.8-.9-.6-1.6zm-.9 20.1c-.5-.1-.8-.8-.6-1.6s.7-1.3 1.3-1.2c.5.1.8.8.6 1.6-.2.8-.8 1.3-1.3 1.2zm1 3.4c-.5-.1-.8-.8-.6-1.6s.7-1.3 1.3-1.2c.5.1.8.8.6 1.6s-.8 1.3-1.3 1.2zm2.2 2.1c-.2.8-.7 1.3-1.3 1.2-.5-.1-.8-.8-.6-1.6.2-.8.7-1.3 1.3-1.2.5.1.8.9.6 1.6zm-.2-5c-.5-.1-.8-.8-.6-1.6s.7-1.3 1.3-1.2c.5.1.8.8.6 1.6-.3.8-.8 1.3-1.3 1.2zm1.4 8.3c-.5-.1-.8-.8-.6-1.6s.7-1.3 1.3-1.2c.5.1.8.8.6 1.6-.2.8-.8 1.4-1.3 1.2zm6.7-7.9c-.5-.1-.7-.8-.6-1.5.2-.7.7-1.2 1.2-1.1.5.1.7.8.6 1.5-.1.8-.7 1.2-1.2 1.1zm2.2 9.6c-.2.8-.7 1.3-1.3 1.2-.5-.1-.8-.8-.6-1.6s.7-1.3 1.3-1.2c.5.1.8.9.6 1.6zm0-5.5c-.2.8-.7 1.3-1.3 1.2-.5-.1-.8-.8-.6-1.6s.7-1.3 1.3-1.2c.5.1.8.8.6 1.6zm.3-3.9c-.5-.1-.8-.8-.6-1.6.2-.8.7-1.3 1.3-1.2.5.1.8.8.6 1.6s-.8 1.3-1.3 1.2zm8.4 2.9c-.2.8-.9 1.4-1.6 1.2-.7-.2-1.1-1-.9-1.8.2-.8.9-1.4 1.6-1.2s1.1 1 .9 1.8zm-.2-5.7c.2-.8.9-1.4 1.6-1.2.7.2 1.1 1 .9 1.8-.2.8-.9 1.4-1.6 1.2-.7-.1-1.1-.9-.9-1.8zm.2 10.9c-.2.8-.9 1.4-1.6 1.2-.7-.2-1.1-1-.9-1.8.2-.8.9-1.4 1.6-1.2s1.1 1 .9 1.8zm-1-9.7c-.2.8-.9 1.4-1.6 1.2s-1.1-1-.9-1.8.9-1.4 1.6-1.2c.7.2 1.1 1 .9 1.8zm-2 10.1c-.2.8-.9 1.4-1.6 1.2s-1.1-1-.9-1.8.9-1.4 1.6-1.2c.7.2 1.1 1 .9 1.8zm-.2-5c-.2.8-.9 1.4-1.6 1.2-.7-.2-1.1-1-.9-1.8.2-.8.9-1.4 1.6-1.2.8.2 1.1 1 .9 1.8zm-.9-4.7c-.2.8-.9 1.4-1.6 1.2-.7-.2-1.1-1-.9-1.8s.9-1.4 1.6-1.2c.8.1 1.1.9.9 1.8zm-2.1 5.1c-.2.8-.7 1.3-1.3 1.2-.5-.1-.8-.8-.6-1.6s.7-1.3 1.3-1.2c.5.1.8.8.6 1.6zM85 123c-.5-.1-.8-.8-.6-1.6s.7-1.3 1.3-1.2c.5.1.8.8.6 1.6s-.8 1.3-1.3 1.2zm9.4-1.4c-.9 0-1.6-.7-1.6-1.6 0-.9.7-1.6 1.6-1.6.9 0 1.6.7 1.6 1.6-.1.9-.8 1.6-1.6 1.6zm.1-4.9c-.9 0-1.6-.7-1.6-1.6 0-.9.7-1.6 1.6-1.6.9 0 1.6.7 1.6 1.6 0 .9-.7 1.6-1.6 1.6zm.7-6.8c0-.9.7-1.6 1.6-1.6.9 0 1.6.7 1.6 1.6 0 .9-.7 1.6-1.6 1.6-.9 0-1.6-.7-1.6-1.6zm2.8 11c-.9 0-1.6-.7-1.6-1.6 0-.9.7-1.6 1.6-1.6.9 0 1.6.7 1.6 1.6-.1.9-.8 1.6-1.6 1.6zm.3-4.9c-.9 0-1.6-.7-1.6-1.6 0-.9.7-1.6 1.6-1.6.9 0 1.6.7 1.6 1.6 0 .9-.7 1.6-1.6 1.6zm.8-6.5c0-.9.7-1.6 1.6-1.6.9 0 1.6.7 1.6 1.6s-.7 1.6-1.6 1.6c-.9-.1-1.6-.8-1.6-1.6zm2.4 10.8c-.9 0-1.6-.7-1.6-1.6 0-.9.7-1.6 1.6-1.6.9 0 1.6.7 1.6 1.6-.1.9-.7 1.6-1.6 1.6zm1.1-4.8c-.9 0-1.6-.7-1.6-1.6 0-.9.7-1.6 1.6-1.6.9 0 1.6.7 1.6 1.6 0 .9-.7 1.6-1.6 1.6zm2-4.5c-.9 0-1.6-.7-1.6-1.6s.7-1.6 1.6-1.6c.9 0 1.6.7 1.6 1.6s-.7 1.6-1.6 1.6zM81.7 79.3c1.4-2.2 5.4-8.5 8.6-9.3s12.5-1.6 15.5-.6 8 1.3 8 1.3l-1.4 1.8s4.6.2 5.1 2.9c0 0-3 3.8-7.3 2.6-4.3-1.3-12.9-2.6-12.9-2.6l2.7-1.3s-4.9.6-7.2 1.3c-2.2.6-11 7.3-12.9 8-.2-.1.3-1.9 1.8-4.1zm-3.3 31.5c.2-.7.7-1.2 1.2-1.1.5.1.7.8.6 1.5s-.7 1.2-1.2 1.1c-.5-.1-.8-.8-.6-1.5zm-1.9-1.1c.2-.7.7-1.2 1.2-1.1.5.1.7.8.6 1.5-.2.7-.7 1.2-1.2 1.1-.5-.1-.7-.8-.6-1.5zm-1.8-25.4c.2-.7.7-1.2 1.2-1.1.5.1.7.8.6 1.5-.2.7-.7 1.2-1.2 1.1-.5-.1-.8-.7-.6-1.5zm-2.4-1.7c.2-.8.7-1.3 1.3-1.2.5.1.8.8.6 1.6s-.7 1.3-1.3 1.2c-.5-.1-.8-.8-.6-1.6zm.7 3.3c.5.1.8.8.6 1.6s-.7 1.3-1.3 1.2c-.5-.1-.8-.8-.6-1.6s.8-1.3 1.3-1.2zm-2.6-3.3c.2-.8.6-1.3 1-1.2.4.1.5.8.3 1.5s-.6 1.3-1 1.2c-.3-.1-.5-.8-.3-1.5zm-.4 3.9c.2-.8.6-1.3 1-1.2.3.1.5.8.3 1.5s-.6 1.3-1 1.2c-.3-.1-.5-.8-.3-1.5zm-.4 4c.2-.8.7-1.3 1.1-1.2.4.1.6.8.5 1.6s-.7 1.3-1.1 1.2c-.5-.1-.7-.8-.5-1.6zm-.6 4.4c.2-.8.7-1.3 1.3-1.2.5.1.8.8.6 1.6-.2.8-.7 1.3-1.3 1.2-.5-.1-.8-.8-.6-1.6zm1 2.9c.5.1.8.8.6 1.6-.2.8-.7 1.3-1.3 1.2-.5-.1-.8-.8-.6-1.6s.8-1.3 1.3-1.2z"/><path fill="#393132" d="M70 83.1c-.5-4.6.8-15.2 2.4-21.6S78.1 45.8 83.3 40c5.1-5.7 15.6-16.3 44.5-16.3V8.4c-.1 0-35-.7-51.2 25.6-16.3 26.3-12.7 38.4-13.1 42.7-.5 4.3 3.7 18.8 4 21.1.3 2.2 3-10.1 2.5-14.7z"/><path fill="#393132" d="M99.9 74l-2.7 1.3s8.6 1.3 12.9 2.6c4.3 1.3 7.3-2.6 7.3-2.6-.5-2.7-5.1-2.9-5.1-2.9l1.4-1.8s-4.9-.3-8-1.3c-3-1-12.3-.2-15.5.6s-7.2 7-8.6 9.3c-1.4 2.2-1.9 4-1.9 4 1.9-.6 10.7-7.3 12.9-8 2.3-.5 7.3-1.2 7.3-1.2zm27.9 46s-5.4-1-8-3.4-6.5 2.4-9.3 3.4c-2.7 1-8.5 3.5-10.5 4.9-2.1 1.4-6.7 9.3-6.7 9.3h1.8l-.2 2.2-.3 3.3s5.7-4.7 6.1-6.4c.3-1.8 6.2-6.9 10.9-8.6 4.6-1.8 8.9-3.7 10.5-3 1.6.6 1.9 1.4 5.7 1.4V120z"/><path fill="#393132" d="M88.2 165.7h1.3s-.3 0 2.9 3.8c3.2 3.8 8 7 8.5 7.8.5.8 2.6 3.2 2.6 3.2l.6-2.1s1.1.5 4 2.1 4.6 1.4 4.6 1.4l-1.4-1 4 1.1s.8-1.9 3.2-.7c2.4 1.1 3.7 2.4 3.7 2.4l.5-2.9 2.1 1.9s2.4-.6 3.2 1v-40.2s-12.6.6-17.2-1.3c0 0 5.9 2.7 6.4 4.6.5 1.9 2.9 3.5 3.4 4.6.5 1.1.5 1.3-1.1 3.2-1.6 1.9-4.9 3.2-6.4 4.6s-1.4 2.7-3.7 1.1c-2.2-1.6-2.1 1.4-5.3-3.2-3.2-4.6-.3-2.9-3.5-5.5s.8-2.8-5.1-2.6c-5.9.2-4.5 2.6-8.6-1.3-4.2-3.8.3-4.7-4.9-7.9-5.3-3.3-5.6-2.6-7.5-5-1.9-2.4-4-10.4-4-10.5s1.3 7.7 2.7 13.7c.4 1.8.8 3.4 1.2 4.7-.1 3.2 2.1 9 4.2 12.9.9 1.7 1.8 3 2.5 3.7 2 2.1 7.1 6.4 7.1 6.4z"/><circle fill="#9B8761" cx="104.6" cy="109.5" r="1.6"/><circle fill="#9B8761" cx="100.6" cy="109.5" r="1.6"/><circle fill="#9B8761" cx="96.8" cy="109.9" r="1.6"/><path fill="#9B8761" d="M93.1 112c.7.2 1.4-.4 1.6-1.2.2-.8-.2-1.6-.9-1.8-.7-.2-1.4.4-1.6 1.2-.2.9.2 1.7.9 1.8zm-2.5-2.4c-.7-.2-1.4.4-1.6 1.2s.2 1.6.9 1.8 1.4-.4 1.6-1.2c.1-.8-.3-1.6-.9-1.8zm.9 4.5c-.7-.2-1.4.4-1.6 1.2-.2.8.2 1.6.9 1.8.7.2 1.4-.4 1.6-1.2.2-.8-.2-1.6-.9-1.8zm0 5.2c-.7-.2-1.4.4-1.6 1.2-.2.8.2 1.6.9 1.8.7.2 1.4-.4 1.6-1.2.2-.8-.2-1.6-.9-1.8zm-2.9.4c-.7-.2-1.4.4-1.6 1.2s.2 1.6.9 1.8 1.4-.4 1.6-1.2c.1-.8-.3-1.6-.9-1.8zm-.2-5c-.7-.2-1.4.4-1.6 1.2-.2.8.2 1.6.9 1.8.7.2 1.4-.4 1.6-1.2.1-.8-.2-1.6-.9-1.8zm-.9-4.7c-.7-.2-1.4.4-1.6 1.2s.2 1.6.9 1.8c.7.2 1.4-.4 1.6-1.2s-.2-1.7-.9-1.8zm-2.3 1.8c.2-.8-.1-1.5-.6-1.6-.5-.1-1.1.4-1.3 1.2-.2.8.1 1.5.6 1.6.6.1 1.1-.4 1.3-1.2z"/><ellipse transform="rotate(-76.738 85.283 116.677)" fill="#9B8761" cx="85.3" cy="116.7" rx="1.4" ry="1"/><ellipse transform="rotate(-76.738 85.283 121.619)" fill="#9B8761" cx="85.3" cy="121.6" rx="1.4" ry="1"/><path fill="#9B8761" d="M83.1 120.8c-.5-.1-1.1.4-1.3 1.2s.1 1.5.6 1.6c.5.1 1.1-.4 1.3-1.2.2-.7-.1-1.5-.6-1.6zm-3.2 2.2c.5.1 1.1-.4 1.3-1.2s-.1-1.5-.6-1.6c-.5-.1-1.1.4-1.3 1.2s.1 1.5.6 1.6zm-1.5-1.5c.2-.8-.1-1.5-.6-1.6-.5-.1-1.1.4-1.3 1.2s.1 1.5.6 1.6c.5 0 1.1-.5 1.3-1.2zm-2.3-1.9c.2-.8-.1-1.5-.6-1.6-.5-.1-1.1.4-1.3 1.2s.1 1.5.6 1.6c.5.1 1.1-.5 1.3-1.2zm-3.1-3.8c-.5-.1-1.1.4-1.3 1.2-.2.8.1 1.5.6 1.6.5.1 1.1-.4 1.3-1.2s-.1-1.5-.6-1.6zm-.4-1.6c.2-.8-.1-1.5-.6-1.6-.5-.1-1.1.4-1.3 1.2s.1 1.5.6 1.6c.6 0 1.2-.5 1.3-1.2zm-1-3.5c.2-.8-.1-1.5-.6-1.6-.5-.1-1.1.4-1.3 1.2s.1 1.5.6 1.6c.6.1 1.2-.4 1.3-1.2zm-.4-3.7c.2-.8-.1-1.5-.6-1.6-.5-.1-1.1.4-1.3 1.2s.1 1.5.6 1.6c.6.1 1.1-.5 1.3-1.2zm-.6-3.5c.2-.8-.1-1.5-.6-1.6-.5-.1-1.1.4-1.3 1.2s.1 1.5.6 1.6c.6.1 1.2-.4 1.3-1.2zm-1.8-4.6c-.2.8.1 1.5.6 1.6.5.1 1.1-.4 1.3-1.2.2-.8-.1-1.5-.6-1.6-.6 0-1.2.5-1.3 1.2zm.8-2.4c.5.1 1.1-.4 1.3-1.2.2-.8-.1-1.5-.6-1.6-.5-.1-1.1.4-1.3 1.2s.1 1.5.6 1.6zm.5-4.4c.4.1.9-.4 1.1-1.2s0-1.5-.5-1.6c-.4-.1-.9.4-1.1 1.2s0 1.5.5 1.6zm.2-4.1c.3.1.8-.5 1-1.2s0-1.4-.3-1.5c-.3-.1-.8.5-1 1.2s0 1.4.3 1.5zm.4-3.9c.4.1.8-.5 1-1.2s0-1.4-.3-1.5c-.4-.1-.8.5-1 1.2s0 1.4.3 1.5zm12.4 31.2c-.5-.1-1.1.4-1.3 1.2s.1 1.5.6 1.6c.5.1 1.1-.4 1.3-1.2s-.1-1.5-.6-1.6zm-2 1.6c.2-.8-.1-1.5-.6-1.6-.5-.1-1.1.4-1.3 1.2s.1 1.5.6 1.6c.6.1 1.2-.4 1.3-1.2zm-3.4-2c-.5-.1-1.1.4-1.3 1.2s.1 1.5.6 1.6c.5.1 1.1-.4 1.3-1.2.2-.8 0-1.5-.6-1.6zm-3.5-.7c-.2.8.1 1.5.6 1.6.5.1 1.1-.4 1.3-1.2.2-.8-.1-1.5-.6-1.6-.6-.1-1.1.4-1.3 1.2zm-.2-4.6c-.5-.1-1.1.4-1.3 1.2s.1 1.5.6 1.6c.5.1 1.1-.4 1.3-1.2.2-.7-.1-1.4-.6-1.6zm-1.6-.3c.5.1 1.1-.4 1.3-1.2s-.1-1.5-.6-1.6c-.5-.1-1.1.4-1.3 1.2-.2.7 0 1.5.6 1.6zm.8-5.1c.2-.8-.1-1.5-.6-1.6-.5-.1-1.1.4-1.3 1.2s.1 1.5.6 1.6 1.1-.5 1.3-1.2zm-.6-5c-.5-.1-1.1.4-1.3 1.2s.1 1.5.6 1.6c.5.1 1.1-.4 1.3-1.2s-.1-1.5-.6-1.6zm.6-2.4c.2-.8-.1-1.5-.6-1.6-.5-.1-1.1.4-1.3 1.2-.2.8.1 1.5.6 1.6.6 0 1.1-.5 1.3-1.2zm-1.3-3.4c.5.1 1.1-.4 1.3-1.2.2-.8-.1-1.5-.6-1.6-.5-.1-1.1.4-1.3 1.2s.1 1.5.6 1.6z"/><ellipse transform="rotate(-76.732 72.692 87.26)" fill="#9B8761" cx="72.7" cy="87.3" rx="1.4" ry="1"/><path fill="#9B8761" d="M72.9 84.2c.5.1 1.1-.4 1.3-1.2s-.1-1.5-.6-1.6c-.5-.1-1.1.4-1.3 1.2s.1 1.5.6 1.6zm9.8 27.6c.2-.7-.1-1.4-.6-1.5-.5-.1-1 .4-1.2 1.1-.2.7.1 1.4.6 1.5.5 0 1.1-.4 1.2-1.1zm-3.7.5c.5.1 1-.4 1.2-1.1s-.1-1.4-.6-1.5c-.5-.1-1 .4-1.2 1.1-.2.7.1 1.4.6 1.5zm-1.9-1.1c.5.1 1-.4 1.2-1.1.2-.7-.1-1.4-.6-1.5-.5-.1-1 .4-1.2 1.1-.1.7.1 1.4.6 1.5zm-1.2-4.6c-.5-.1-1 .4-1.2 1.1s.1 1.4.6 1.5c.5.1 1-.4 1.2-1.1.1-.7-.2-1.4-.6-1.5zm-1.6-.7c.5.1 1-.4 1.2-1.1.2-.7-.1-1.4-.6-1.5-.5-.1-1 .4-1.2 1.1s.1 1.4.6 1.5zm.6-5.9c-.5-.1-1 .4-1.2 1.1-.2.7.1 1.4.6 1.5.5.1 1-.4 1.2-1.1.2-.7-.1-1.4-.6-1.5zm-1-.9c.5.1 1-.4 1.2-1.1s-.1-1.4-.6-1.5-1 .4-1.2 1.1c-.2.8.1 1.4.6 1.5zm0-3.9c.5.1 1-.4 1.2-1.1s-.1-1.4-.6-1.5-1 .4-1.2 1.1c-.2.8.1 1.4.6 1.5zm1-7.4c-.5-.1-1 .4-1.2 1.1-.2.7.1 1.4.6 1.5.5.1 1-.4 1.2-1.1.2-.7-.1-1.4-.6-1.5zm.3-2c.5.1 1-.4 1.2-1.1.2-.7-.1-1.4-.6-1.5-.5-.1-1 .4-1.2 1.1s.2 1.4.6 1.5z"/><circle fill="#9B8761" cx="102.6" cy="113.9" r="1.6"/><circle fill="#9B8761" cx="98.3" cy="114.4" r="1.6"/><circle fill="#9B8761" cx="94.5" cy="115.1" r="1.6"/><path fill="#9B8761" d="M101.5 117.2c-.9 0-1.6.7-1.6 1.6 0 .9.7 1.6 1.6 1.6.9 0 1.6-.7 1.6-1.6-.1-.9-.7-1.6-1.6-1.6z"/><circle fill="#9B8761" cx="98" cy="119.3" r="1.6"/><path fill="#9B8761" d="M94.4 118.5c-.9 0-1.6.7-1.6 1.6 0 .9.7 1.6 1.6 1.6.9 0 1.6-.7 1.6-1.6-.1-.9-.8-1.6-1.6-1.6z"/><path fill="#285D93" d="M222.6 213.1c-3.7 4.6-27 11.2-40.6 10.4-13.6-.8-52.8-15.2-54.3-15.8V256h.2c27.3 0 52.6-8.5 73.4-23.1-3.8-1.5-6.8-2.6-8.1-2.7 0 0 4.3.6 10 1.3 8.4-6.1 16-13.2 22.6-21.1-1.1.6-2.2 1.5-3.2 2.7z"/><path fill="#285D93" d="M199.4 205.5c-3.6.4-7.5.7-11.7.9-4.9.2-10.3.3-16.2.2-32.9-.7-43.5-5.9-43.7-6v6.9s50.8 9.3 63.5 8.5 29.5-11.7 38.5-12h1.1c1.5-2.1 3-4.2 4.4-6.3-3 .4-5.7.9-7.6 1.5-4.4 1.5-13.2 4.6-28.3 6.3z"/><path fill="#214E7E" d="M191.3 216.1c-12.8.8-63.5-8.5-63.5-8.5 1.4.6 40.7 15 54.3 15.8 13.6.8 36.9-5.7 40.6-10.4.9-1.2 2.1-2 3.3-2.7 1.7-2.1 3.4-4.2 5-6.3h-1.1c-9 .5-25.8 11.3-38.6 12.1zm10.1 16.8c.7-.5 1.3-.9 2-1.4-5.8-.7-10-1.3-10-1.3 1.2.1 4.2 1.2 8 2.7zm-73.6-23.3v-8.8s-24.7-8.1-33.3-11.6c-4.8-2-10.9-3.6-16.4-4.4-2.2-.3-4.2-.4-6.1-.4-1.9 0-3.6.2-5 .6-6.1 1.9-11.8 2.5-16.9-.7-4.9-3.1-15.3-5.1-22.6-2.7-.2.1-.5.2-.7.2 0 0 1.4 4.5 4.7 11.4.8 1.8 1.8 3.6 2.9 5.7 5.3 9.8 13.6 22.4 25.6 33.3 3.9 3.5 8.3 7.4 12.9 11.3 16.6 7.9 35.2 12.4 54.9 12.4v-46.3z"/></svg>