<svg xmlns="http://www.w3.org/2000/svg" width="256" height="256"><circle fill="#B1B3B5" cx="128" cy="128" r="128"/><path fill="#453238" d="M188.4 232.6c-16.5 11.7-31.1 18.3-41.8 22.1 41.7-6.1 76.9-32.3 95.4-68.5-5.3-2.3-11.7-5.2-15.7-7-.3 2.7-5 30.2-37.9 53.4z"/><path fill="#C08C76" d="M158.3 161.6c-1 1-2.1 1.9-3.2 2.6s-7.3 5.9-12.2 7.5c-4.9 1.6-10.3 4.3-10.3 4.3l.4-2.2-5 2.2v41.3s51.1-18.4 54.4-60.2c-.2-3.8-.3-7.4-.3-9.5-5.4 6.4-13.9 4.6-23.8 14zm28.6-77.3c.1 1 .9 5.6.9 9.2.8 9.2 1.1 19.3.6 28.4 4.9 3.9 6.3 2.7 7.5.5 1.5-2.7-2.1-7.2.1-15s-.4-14.7-.1-20.1c.3-5.4-.6-7.5-3.9-8.4-.9-.3-2.3.3-3.8 1.2-.6 1.3-1.5 3.2-1.3 4.2z"/><path fill="#D7A990" d="M187.8 93.5c0 2.2-.2 4-.9 4.3-2 .9-.7-8.8-2.2-11-1.6-2.2.2-9.9 0-12.8s-8.5-15.1-9.4-16.2c-.9-1.1-4.3-6.5-3.4-11.5.9-4.9-2.2-9-2.2-9C159.2 27 128 27.5 128 27.5v89.4s4.3.7 6.5-1.6c0 0 9.9 5.8 12.8 8.1 2.9 2.2 6.3 6.5 6.1 8.8-.2 2.2-1.8 4.5-1.8 4.5s-.7-3.4-.9-4c-.2-.7-2.5-4-2.5-4l-.9 1.8s-1.1-1.3-2.2-2.9c-1.1-1.6-4.7-5.2-6.5-6.1-1.8-.9-4.7-.2-4.7-.2l-5.8.7v45s8.3.7 11.7-4.5c0 0-.7 1.8 0 2.3.7.4 4-2.3 4-2.3s-.4 2.1 0 2.3c.4.2 5.2 1.6 7 0 1.8-1.6 4.3-.6 4.3-.5 1.1-.8 2.2-1.6 3.2-2.6 9.9-9.4 18.4-7.6 23.9-14 1.3-1.6 2.4-3.6 3.4-6.4 1.6-4.8 2.5-11.7 2.9-19.4.4-9.1.1-19.2-.7-28.4zm-43-25.8c-3.1 1.1-5.8-5.2-5.8-5.2 20.4-3.8 24.5.2 27.2 1.8 2.7 1.6 7 7 5.6 7.2-1.3.2-8.1-6.7-13.3-7.6-5.1-.9-10.5 2.7-13.7 3.8z"/><path fill="#765A4C" d="M138.6 121.4c1.8.9 5.4 4.5 6.5 6.1 1.1 1.6 2.2 2.9 2.2 2.9l.9-1.8s2.2 3.4 2.5 4c.2.7.9 4 .9 4s1.6-2.2 1.8-4.5c.2-2.2-3.1-6.5-6.1-8.8-2.9-2.2-12.8-8.1-12.8-8.1-2.2 2.2-6.5 1.6-6.5 1.6v4.9l5.8-.7c0 .2 3-.5 4.8.4zm-6.1 54.6s5.4-2.7 10.3-4.3c4.9-1.6 12.2-7.5 12.2-7.5-.1 0-2.6-1-4.3.5-1.8 1.6-6.5.2-7 0-.4-.2 0-2.3 0-2.3s-3.4 2.7-4 2.3c-.7-.4 0-2.3 0-2.3-3.4 5.2-11.7 4.5-11.7 4.5v9l4.9-2.2-.4 2.3zm26.1-112.1c5.2.9 11.9 7.9 13.3 7.6 1.3-.2-2.9-5.6-5.6-7.2-2.7-1.6-6.7-5.6-27.2-1.8 0 0 2.7 6.3 5.8 5.2s8.5-4.7 13.7-3.8z"/><path fill="#535552" d="M128 27.5s31.2-.4 41.6 9.9c0 0 3.1 4 2.2 9-.9 4.9 2.5 10.3 3.4 11.5.9 1.1 9.2 13.3 9.4 16.2s-1.6 10.6 0 12.8c1.6 2.2.2 11.9 2.2 11 .8-.3 1-2.1.9-4.3-.1-3.6-.8-8.2-.9-9.2-.1-1 .8-2.9 1.5-4.2.4-.8.8-1.3.8-1.3s-.7-19.9-2.9-27.6C184 43.7 172.3 8.4 128 8.4v19.1z"/><path fill="#33333C" d="M128 217.3v35s38.9-13 56.2-26.7c17.3-13.7 37.1-39.9 31.7-52.3-2.7-1.4-5.9-3-8.2-4.1-4.7-2.2-16.2-9.2-18.6-11.9s-6.5-3.4-6.5-3.4c0 1.1-.1 2.1-.2 3.2-3.3 41.8-54.4 60.2-54.4 60.2z"/><path fill="#2A2A33" d="M226.4 179.1v-.2c-2.7-5.6-10.5-5.6-10.5-5.6 5.4 12.4-14.4 38.6-31.7 52.3-17.3 13.7-56.2 26.7-56.2 26.7v3.7c6.3 0 12.6-.5 18.7-1.4 10.7-3.7 25.2-10.3 41.8-22.1 32.8-23.1 37.5-50.6 37.9-53.4z"/><path fill="#37262B" d="M29.6 179.1c-4 1.8-10.5 4.7-15.7 7 18.5 36.2 53.7 62.4 95.4 68.5-10.7-3.7-25.2-10.3-41.8-22.1-32.8-23.1-37.5-50.6-37.9-53.4z"/><path fill="#B17D6B" d="M128 217.3V176l-4.9-2.2.4 2.2s-5.4-2.7-10.3-4.3c-4.9-1.6-12.2-7.5-12.2-7.5-1.1-.8-2.2-1.6-3.2-2.6-9.9-9.4-18.4-7.6-23.9-14 0 2.2-.1 5.7-.3 9.5 3.3 41.8 54.4 60.2 54.4 60.2zM68.2 93.5c.1-3.6.8-8.2.9-9.2.1-1-.8-2.9-1.5-4.2-1.5-.9-2.8-1.5-3.8-1.2-3.3.9-4.2 3-3.9 8.4s-2.2 12.3-.1 20.1c2.2 7.8-1.4 12.4.1 15 1.2 2.2 2.7 3.4 7.5-.5-.3-9.1 0-19.2.8-28.4z"/><path fill="#C08C76" d="M97.7 161.6c1 1 2.1 1.9 3.2 2.6.1 0 2.6-1 4.3.5 1.8 1.6 6.5.2 7 0 .4-.2 0-2.3 0-2.3s3.4 2.7 4 2.3c.7-.4 0-2.3 0-2.3 3.4 5.2 11.7 4.5 11.7 4.5v-45.2l-5.8-.7s-2.9-.7-4.7.2c-1.8.9-5.4 4.5-6.5 6.1s-2.2 2.9-2.2 2.9l-.9-1.8s-2.2 3.4-2.5 4c-.2.7-.9 4-.9 4s-1.6-2.2-1.8-4.5c-.2-2.2 3.1-6.5 6.1-8.8 2.9-2.2 12.8-8.1 12.8-8.1 2.2 2.2 6.5 1.6 6.5 1.6V27.5s-31.2-.4-41.6 9.9c0 0-3.1 4-2.2 9 .9 4.9-2.5 10.3-3.4 11.5-.9 1.1-9.2 13.3-9.4 16.2s1.6 10.6 0 12.8c-1.6 2.2-.2 11.9-2.2 11-.8-.3-1-2.1-.9-4.3-.8 9.2-1.1 19.3-.6 28.4.4 7.7 1.3 14.5 2.9 19.4.9 2.8 2.1 4.8 3.4 6.4 5.3 6.2 13.8 4.4 23.7 13.8zm-7.9-97.3c2.7-1.6 6.7-5.6 27.2-1.8 0 0-2.7 6.3-5.8 5.2s-8.5-4.7-13.7-3.8c-5.2.9-11.9 7.9-13.3 7.6-1.4-.2 2.9-5.6 5.6-7.2z"/><path fill="#624A3E" d="M121.5 115.3s-9.9 5.8-12.8 8.1c-2.9 2.2-6.3 6.5-6.1 8.8.2 2.2 1.8 4.5 1.8 4.5s.7-3.4.9-4c.2-.7 2.5-4 2.5-4l.9 1.8s1.1-1.3 2.2-2.9 4.7-5.2 6.5-6.1c1.8-.9 4.7-.2 4.7-.2l5.8.7v-4.9c.1-.2-4.2.5-6.4-1.8zM128 167s-8.3.7-11.7-4.5c0 0 .7 1.8 0 2.3-.7.4-4-2.3-4-2.3s.4 2.1 0 2.3c-.4.2-5.2 1.6-7 0-1.8-1.6-4.3-.6-4.3-.5s7.3 5.9 12.2 7.5c4.9 1.6 10.3 4.3 10.3 4.3l-.4-2.2 4.9 2.2V167zM84.2 71.5c1.3.2 8.1-6.7 13.3-7.6 5.2-.9 10.6 2.7 13.7 3.8s5.8-5.2 5.8-5.2c-20.4-3.8-24.5.2-27.2 1.8-2.7 1.6-7 7-5.6 7.2z"/><path fill="#424442" d="M69.1 84.3c-.1 1-.9 5.6-.9 9.2 0 2.2.2 4 .9 4.3 2 .9.7-8.8 2.2-11 1.6-2.2-.2-9.9 0-12.8s8.5-15.1 9.4-16.2c.9-1.1 4.3-6.5 3.4-11.5-.9-4.9 2.2-9 2.2-9C96.8 27 128 27.5 128 27.5V8.4c-44.3 0-55.9 35.3-58.2 42.9-2.2 7.6-2.9 27.6-2.9 27.6s.3.5.8 1.3c.7 1.2 1.6 3.1 1.4 4.1z"/><path fill="#2A2A33" d="M71.8 225.6c17.3 13.7 56.2 26.7 56.2 26.7v-35s-51.1-18.4-54.4-60.2c-.1-1-.1-2.1-.2-3.2 0 0-4 .7-6.5 3.4S53 167 48.2 169.2c-2.3 1.1-5.5 2.7-8.2 4.1-5.3 12.4 14.5 38.6 31.8 52.3z"/><path fill="#1F1F28" d="M128 252.4s-38.9-13-56.2-26.7c-17.3-13.7-37.1-39.9-31.7-52.3 0 0-7.8 0-10.5 5.6v.2c.4 2.8 5.1 30.2 37.9 53.5 16.5 11.7 31.1 18.3 41.8 22.1 6.1.9 12.3 1.4 18.7 1.4v-3.8z"/></svg>