<svg xmlns="http://www.w3.org/2000/svg" width="256" height="256"><circle fill="#B1B3B5" cx="128" cy="128" r="128"/><path fill="#AD7F6A" d="M94.6 165s0-.1 0 0c1.4 1.9 17.7 23.5 33.4 33.1v-21h-8.4c-5.7 0-8.8-6.2-8.8-6.2s-6.1-5.3-10.4-9.8c-1.3-1.4-2.5-2.8-3.6-4.2-.6 2.4-1.4 5.2-2.4 8.2l.1-.1c0-.2 0-.1.1 0zM77.2 97.7c-.8-3.8-1.2-4.6-2.3-6.3-1-1.7-.9-4-.9-4l-2-1.9s0-.2-.1-.4c-1.5-.9-3.2-1.4-4.6-.8-4.2 1.6-4.5 10.2-1.4 15.6s6.2 11.2 7.3 16.3c1 5.1 6.2 8.3 8.3 9.6.9.6 2.3.6 3.7.5-.6-3-1-5.8-1.5-8.4-1.9 1-5.8-16.4-6.5-20.2z"/><path fill="#C08C76" d="M128.1 8.4s-.1 0 0 0c-.1 0 0 0 0 0zM75.6 58.5c0 13.2 3.6 22.4 3.6 23.2 0 .6-.7 3.3-.2 4.9h6.8s.2-1.3 1.4-2.8c-.5-1.8-.4-5.3 5.8-10 0 0 7.3-2.9 17.4-.2 10.1 2.6 12 0 12 0s.3 4.8-2.9 6.7c-1 .6-3.1.5-5.7.1 2.8 1 4.3 2.4 5.8 3.9 0 0 2.2-2.4 8.3-2.4V61.1c-1.6 0-16.1-.3-28-5 0 0 19.5 4.6 28 2.8v-2.5c-1.7 0-17.7-.3-30.8-5 0 0 21.4 4.6 30.8 2.8V8.4c-21 0-34.6 10-43.2 20.7.1-.1.3-.2.4-.3 0 0-9.5 16.5-9.5 29.7zm20.3 90.2c3.6 1.2 8.6-1.4 8.6-1.4l10 7.3 3-9c2.8 2.4 9.5 2.6 10.5 2.6v-64c-.7-.1-3.5-.4-7.3 1.9 0 0 1.6 10.4-5 19.6 0 0-5.5 5.9-22 2.4 0 0-8.1-4.8-9.7-18.4h-2.1c.2.4.2.8.2 1.4 0 2.4 0 2.9-.8 4.3s-1 .7-.8 3.6c.3 2.9.8 3.4 1 4.8s1.8 11 1.8 11 2.1 1.7.3 2.9c.5 2.6.9 5.5 1.5 8.4.8 4.4 1.8 9 3.1 13.3-.2-.9-.2-1.4-.2-1.4s4.2 9.5 7.9 10.7z"/><path fill="#766861" d="M74 87.4s-.2 2.3.9 4c1 1.7 1.5 2.5 2.3 6.3.8 3.8 4.7 21.2 6.5 20.1 1.8-1.2-.3-2.9-.3-2.9s-1.6-9.6-1.8-11-.8-1.9-1-4.8c-.3-2.9 0-2.2.8-3.6s.8-1.9.8-4.3c0-.6-.1-1.1-.2-1.4h-5.4v-3.2h2.6c-.6-1.7.2-4.3.2-4.9 0-.7-3.6-10-3.6-23.2s9.5-29.7 9.5-29.7c-.1.1-.3.2-.4.3-5 3.5-8.6 10.3-12.9 22.2-4.1 11.2-.5 30.6.1 33.7.1.3.1.4.1.4l1.8 2zm36.7 83.3s3.1 6.2 8.8 6.2h8.4v-28.6c-1 0-7.7-.3-10.5-2.6l-3 9-10-7.3s-4.9 2.6-8.6 1.4c-3.6-1.2-7.8-10.6-7.8-10.6s0 .5.2 1.4c.5 2.8 2.4 9.5 8.4 17.2 1.1 1.4 2.2 2.7 3.6 4.2 4.4 4.4 10.5 9.7 10.5 9.7zm-10.3-92.1c6.6 0 10.7.7 13.5 1.7 2.6.4 4.7.5 5.7-.1 3.1-1.9 2.9-6.7 2.9-6.7s-1.8 2.6-12 0-17.5.3-17.5.3c-6.2 4.7-6.4 8.3-5.8 10 1.6-2.3 5.3-5.2 13.2-5.2z"/><path fill="#AD7F6A" d="M97.2 51.3c13.1 4.7 29.1 5 30.8 5v-2.2c-9.4 1.9-30.8-2.8-30.8-2.8zm2.7 4.8c11.9 4.7 26.4 5 28 5v-2.2c-8.5 1.8-28-2.8-28-2.8z"/><path fill="#B4836E" d="M102.4 81.2c-17-.6-17.5 10.1-13.2 17.9 4.3 7.8 9 8.1 17.8 8 8.8-.2 10.4-10.4 11.3-16.8.9-6.4-5.5-8.7-15.9-9.1z"/><path fill="#DDC8C2" d="M119.6 84.2c-1.5-1.4-3-2.8-5.8-3.9-2.8-1-6.9-1.7-13.5-1.7-7.9 0-11.5 2.8-13.2 5.1-1.1 1.5-1.4 2.8-1.4 2.8h-9.4v3.2h7.5c1.6 13.6 9.7 18.4 9.7 18.4 16.5 3.5 22-2.4 22-2.4 6.6-9.3 5-19.6 5-19.6 3.8-2.4 6.6-2.1 7.3-1.9v-2.4c-6 .1-8.2 2.4-8.2 2.4zm-1.2 6.1c-.9 6.4-2.4 16.6-11.3 16.8-8.8.2-13.5-.2-17.8-8-4.3-7.8-3.8-18.5 13.2-17.9 10.3.4 16.7 2.7 15.9 9.1z"/><path fill="#ADA39C" d="M112.6 196c-4.2 3.5-11.3 10.5-15.7 20.9 2.1 12.3 4.7 25.1 7.4 37 3 .6 6 1 9.1 1.4l5.5-40.4c-3.2-6-5.7-16.1-6.3-18.9z"/><path fill="#554533" d="M127.9 216.9c-5.3 0-9-2.2-9-2.2l-5.5 40.4c4.8.5 9.6.8 14.6.8v-39h-.1z"/><path fill="#624F3B" d="M127.9 211v-13l-11.9-4.7s-1.4.9-3.5 2.6c.6 2.8 3.1 12.9 6.3 18.7 0 0 3.8 2.2 9 2.2V211z"/><path fill="#C9BCB4" d="M94.6 165l-.1-.1-.1.1c-.1 0-.1.1-.1.1.1-.1.3-.1.3-.1z"/><path fill="#C9BCB4" d="M127.9 198c-15.7-9.6-32-31.2-33.4-33.1l-1.2 1.9c-1.6 12.2.2 30.6 3.5 50 4.5-10.3 11.5-17.3 15.7-20.9 2.1-1.7 3.5-2.6 3.5-2.6l11.9 4.7z"/><path fill="#ADA39C" d="M30 196.8c-2.8.8-5.8 1.6-8.5 2.3 4.9 7.3 10.6 14.2 16.9 20.3-1.9-15.5-8.5-22.3-8.5-22.3 0-.1 0-.2.1-.3z"/><path fill="#403223" d="M79.8 209.6l-17.7-2.4 7.7-28.1c-7 3.5-15.1 7.2-21.2 9-12.6 3.7-17.2 5.2-18.6 8.8 0 .1-.1.2-.1.3 0 0 6.6 6.8 8.5 22.3 8.5 8.4 18.2 15.6 28.9 21.3-5.3-12.5-9.3-21.4-9.3-21.4l21.8-9.8z"/><path fill="#332718" d="M93.4 166.8l1.2-1.9s-.1 0-.4.1c-2.6.8-17.4 5.5-23.4 10.5l-1 3.5-7.7 28.1 17.7 2.4-21.8 9.7s4 8.9 9.3 21.4c11.4 6.2 23.9 10.7 37.1 13.1-2.7-11.9-5.4-24.6-7.4-37-3.4-19.3-5.2-37.7-3.6-49.9z"/><path fill="#C08C76" d="M145.3 170.7s-3.1 6.2-8.8 6.2h-8.6V198c15.7-9.5 32.1-31.3 33.5-33.1l.1-.1.1.1c-1-3-1.8-5.8-2.4-8.2-1.1 1.4-2.2 2.7-3.6 4.2-4.2 4.5-10.3 9.8-10.3 9.8zM182 87.4s.2 2.3-.9 4c-1 1.7-1.5 2.5-2.3 6.3-.8 3.8-4.7 21.2-6.5 20.1-.5 2.6-.9 5.5-1.5 8.4 1.3.1 2.8 0 3.7-.5 2.1-1.3 7.3-4.5 8.3-9.6 1-5.1 4.2-10.9 7.3-16.3s2.8-14-1.4-15.6c-1.4-.5-3 0-4.6.8-.1.3-.1.4-.1.4l-2 2z"/><path fill="#D7A990" d="M158.8 51.3c-13.9 5-30.9 5-30.9 5v2.5C136.3 60.7 156 56 156 56c-12.6 5-28.1 5-28.1 5v20.7c6.2 0 8.5 2.4 8.5 2.4 1.5-1.4 3-2.8 5.8-3.9-2.6.4-4.7.5-5.7-.1-3.1-1.9-2.9-6.7-2.9-6.7s1.8 2.6 12 0c10.1-2.6 17.4.2 17.4.2 6.2 4.7 6.4 8.3 5.8 10 1.1 1.5 1.4 2.8 1.4 2.8h6.8c.6-1.7-.2-4.3-.2-4.9 0-.7 3.6-10 3.6-23.2s-9.5-29.7-9.5-29.7c.1.1.3.2.4.3-8.6-10.5-22.3-20.5-43.2-20.5h-.2v45.7c9.3 1.9 30.9-2.8 30.9-2.8zm13.6 66.5c-1.8-1.2.3-2.9.3-2.9s1.6-9.6 1.8-11 .8-1.9 1-4.8c.3-2.9 0-2.2-.8-3.6s-.8-1.9-.8-4.3c0-.6.1-1.1.2-1.4H172c-1.6 13.6-9.7 18.4-9.7 18.4-16.5 3.5-22-2.4-22-2.4-6.6-9.3-5-19.6-5-19.6-4.3-2.7-7.4-1.9-7.4-1.9v64s7.6-.1 10.7-2.6l3 9 10-7.3s4.9 2.6 8.6 1.4c3.6-1.2 7.8-10.6 7.8-10.6s0 .5-.2 1.4c1.3-4.3 2.3-8.9 3.1-13.3.5-3 1-5.9 1.5-8.5z"/><path fill="#83746D" d="M180.4 58.5c0 13.2-3.6 22.4-3.6 23.2 0 .6.7 3.3.2 4.9h2.6v3.2h-5.4c-.2.4-.2.8-.2 1.4 0 2.4 0 2.9.8 4.3s1 .7.8 3.6c-.3 2.9-.8 3.4-1 4.8s-1.8 11-1.8 11-2.1 1.7-.3 2.9c1.8 1.1 5.7-16.3 6.5-20.1.8-3.8 1.2-4.6 2.3-6.3 1-1.7.9-4 .9-4l2.1-1.9s0-.2.1-.4c.6-3.1 4.1-22.5.1-33.7-4.3-11.9-7.9-18.8-12.9-22.2-.1-.1-.3-.2-.4-.3-.3-.1 9.2 16.4 9.2 29.6zm-20.3 90.2c-3.6 1.2-8.6-1.4-8.6-1.4l-10 7.3-3-9c-3 2.6-10.7 2.6-10.7 2.6v28.7h8.6c5.7 0 8.8-6.2 8.8-6.2s6.1-5.3 10.4-9.8c1.3-1.4 2.5-2.8 3.6-4.2 6-7.7 7.9-14.4 8.4-17.2.2-.9.2-1.4.2-1.4s-4 9.4-7.7 10.6zm8.7-64.9c.5-1.8.4-5.3-5.8-10 0 0-7.3-2.9-17.4-.2-10.1 2.6-12 0-12 0s-.3 4.8 2.9 6.7c1 .6 3.1.5 5.7.1 2.8-1 6.9-1.7 13.5-1.7 7.8-.1 11.5 2.8 13.1 5.1z"/><path fill="#C08C76" d="M158.8 51.3s-21.7 4.7-30.9 2.8v2.2s17.1 0 30.9-5zm-2.7 4.8s-19.7 4.7-28.1 2.8v2.2c-.1 0 15.5 0 28.1-5z"/><path fill="#BE8F7B" d="M137.6 90.3c.9 6.4 2.4 16.6 11.3 16.8 8.8.2 13.5-.2 17.8-8 4.3-7.8 3.8-18.5-13.2-17.9-10.3.4-16.7 2.7-15.9 9.1z"/><path fill="#DDC8C2" d="M135.4 86.1s-1.6 10.4 5 19.6c0 0 5.5 5.9 22 2.4 0 0 8.1-4.8 9.7-18.4h7.5v-3.2h-9.4s-.2-1.3-1.4-2.8c-1.7-2.3-5.3-5.1-13.2-5.1-6.6 0-10.7.7-13.5 1.7-2.8 1-4.3 2.4-5.8 3.9 0 0-2.3-2.4-8.5-2.4v2.4c.1 0 3.2-.8 7.6 1.9zm18.2-4.9c17-.6 17.5 10.1 13.2 17.9-4.3 7.8-9 8.1-17.8 8-8.8-.2-10.4-10.4-11.3-16.8-.9-6.4 5.5-8.7 15.9-9.1z"/><path fill="#C9BCB4" d="M143.4 196c-.6 2.8-3.1 12.9-6.3 18.7l5.5 40.4c3.1-.3 6.1-.8 9.1-1.4 2.7-11.9 5.4-24.6 7.4-37-4.4-10.2-11.5-17.2-15.7-20.7z"/><path fill="#624F3B" d="M137.1 214.7s-3.9 2.2-9.2 2.2V256h.1c5 0 9.8-.3 14.7-.8l-5.6-40.5z"/><path fill="#715B46" d="M127.9 198.1V217c5.3 0 9.2-2.2 9.2-2.2 3.2-5.8 5.6-16 6.3-18.7-2.1-1.7-3.5-2.6-3.5-2.6l-12 4.6z"/><path fill="#ECDCD0" d="M127.9 198.1l12-4.8s1.4.9 3.5 2.6c4.2 3.5 11.3 10.5 15.7 20.9 3.3-19.4 5.1-37.8 3.5-50l-1.2-1.9c-1.4 1.9-17.7 23.7-33.5 33.2z"/><path fill="#ECDCD0" d="M161.4 165s.1 0 .4.1l-.1-.1-.1-.1c-.1-.1-.1 0-.2.1z"/><path fill="#C9BCB4" d="M226.1 197.1s-6.6 6.8-8.5 22.3c6.3-6.2 11.9-13 16.9-20.3-2.7-.7-5.6-1.4-8.5-2.3.1.1.1.2.1.3z"/><path fill="#4A3B2B" d="M226 196.8c-1.4-3.6-5.9-5.1-18.6-8.8-6.1-1.8-14.2-5.5-21.2-9l7.7 28.1-17.7 2.4 21.8 9.7s-4 8.9-9.3 21.4c10.6-5.7 20.3-12.9 28.9-21.3 1.9-15.5 8.5-22.3 8.5-22.3s0-.1-.1-.2z"/><path fill="#403223" d="M176.2 209.6l17.7-2.4-7.7-28.1-1-3.5c-6-5-20.9-9.7-23.4-10.5-.2-.1-.4-.1-.4-.1l1.2 1.9c1.6 12.2-.2 30.6-3.5 50-2.1 12.3-4.7 25.1-7.4 37 13.2-2.5 25.6-6.9 37.1-13.1 5.3-12.5 9.3-21.4 9.3-21.4l-21.9-9.8z"/></svg>