<svg xmlns="http://www.w3.org/2000/svg" width="256" height="256"><circle fill="#B2B4B5" cx="128" cy="128" r="128"/><path fill="#775B4B" d="M128 176.4v22.2c22.4 0 31.7-8.8 35.5-15.4.8-8.4 1.1-13.6 1.1-13.6-.8-4.8-1-9.4-1-13.5-1.2 2-3.1 4.5-6.1 7.8-6.5 7.1-29.5 12.5-29.5 12.5z"/><path fill="#3B3C3D" d="M167 189.6c4.3-5.1 5.8-9.4 5.8-9.4-1.9-.9-3.5-1.7-4.9-2.5-.2 4.1-.5 8-.9 11.9zm-39 8.9v7.4c16.5 0 27.4-5.6 34.3-11.6.5-4.2.9-7.9 1.2-11.2-3.8 6.6-13.1 15.4-35.5 15.4z"/><path fill="#574963" d="M172.9 180.2s-1.6 4.3-5.8 9.4c-2.5 26.5-6.4 47.7-10.1 63.1 32.3-7.5 59.9-27.1 77.8-53.9-15.4-5-46.3-15-61.9-18.6zm-10.6 14.2c-6.9 6-17.8 11.6-34.3 11.6v50c8.2 0 16.3-.8 24.1-2.3 5.1-21.1 8.3-43.1 10.2-59.3z"/><path fill="#775B4B" d="M180.4 97.5c-.7 7.8-1.4 15.3-2.1 20.7 4.5.6 4.8-3.8 5.6-6.6 1-3.4 4.6-10.5 6.9-14.8 2.4-4.3 2.6-11.5 1.9-12.9s-3.4-3.6-5-1.9c-.9.9-3.6 2-5.8 2.8-1.1 6.1-1.2 13.5-1.2 13.5l-.3-.8z"/><path fill="#8D6C5A" d="M179.6 96.1c-1.2-5.3 1.2-16.3 1.2-18.9s-1.2-6.7-2.9-8.9-4.8 0-4.8 0 .2-11 .2-12.2 1.4-6.7 2.4-9.3-1.7.5-13.9-3.6-33.8-3.8-33.8-3.8v137.1s23-5.4 29.5-12.5c3-3.3 4.9-5.7 6.1-7.8 2.7-4.3 2.5-6.5 4.4-9.8 2.9-4.8 7.3-12.5 9.3-22 .3-1.4.6-3.5.9-6.1.7-5.4 1.4-12.9 2.1-20.7l-.7-1.5zM165 85c-4.6-3.1-8.6-2.4-10.5-1.2-1.9 1.2-10.8 2.4-10.8 2.4-1.7-2.9 0-4.9 0-4.9s5.7-1.5 9.6-2.3 8.1.2 10.8 2.3c2.6 2 8.1 4.9 8.1 4.9s-2.7 1.9-7.2-1.2z"/><path fill="#452E27" d="M153.2 79c-3.8.7-9.6 2.3-9.6 2.3s-1.7 2 0 4.9c0 0 8.9-1.2 10.8-2.4 1.9-1.2 6-1.9 10.5 1.2 4.6 3.1 7.2 1.2 7.2 1.2s-5.5-2.9-8.1-4.9c-2.6-2-7-3-10.8-2.3z"/><path fill="#2F1B13" d="M128 39.3s21.6-.2 33.8 3.8c12.2 4.1 14.8 1 13.9 3.6s-2.4 8.1-2.4 9.3-.2 12.2-.2 12.2 3.1-2.2 4.8 0 2.9 6.2 2.9 8.9-2.4 13.7-1.2 18.9l.8 1.5.4.7s.1-7.5 1.2-13.5c.4-2.3 1-4.5 1.7-5.9 2.6-5 4.1-13.9 3.6-24S181 8.3 128.1 8.3v31h-.1z"/><path fill="#A28742" d="M167 189.6c.4-3.9.7-7.8 1-11.9 0 0 .9-3.9-3.4-8 0 0-.3 5.2-1.1 13.6-.3 3.3-.7 7.1-1.2 11.2-1.9 16.2-5 38.2-10.2 59.3 1.6-.3 3.2-.6 4.8-1 3.7-15.6 7.6-36.7 10.1-63.2z"/><path fill="#60493B" d="M92.5 183.2c3.8 6.5 13.1 15.4 35.5 15.4v-22.2s-23-5.4-29.5-12.5c-3-3.3-4.9-5.7-6.1-7.8.1 4.1-.2 8.7-1 13.5 0 0 .3 5.2 1.1 13.6z"/><path fill="#28292A" d="M89 189.6c-.4-3.9-.7-7.8-1-11.9-1.3.8-3 1.7-4.9 2.5 0 0 1.6 4.3 5.9 9.4zm3.5-6.4c.3 3.3.7 7.1 1.2 11.2 6.9 6 17.8 11.6 34.3 11.6v-7.4c-22.4-.1-31.7-8.9-35.5-15.4z"/><path fill="#60493B" d="M75.2 98.2s-.1-7.5-1.2-13.5c-2.2-.8-4.8-1.8-5.8-2.8-1.7-1.7-4.3.5-5 1.9s-.5 8.6 1.9 12.9 6 11.5 6.9 14.8c.8 2.8 1.1 7.1 5.6 6.6-.7-5.4-1.4-12.9-2.1-20.7l-.3.8z"/><path fill="#775B4B" d="M128 176.4V39.3s-21.6-.2-33.8 3.8c-12.2 4.1-14.8 1-13.9 3.6 1 2.6 2.4 8.1 2.4 9.3s.2 12.2.2 12.2-3.1-2.2-4.8 0-2.9 6.2-2.9 8.9 2.4 13.7 1.2 18.9l-.8 1.5c.7 7.8 1.4 15.3 2.1 20.7.3 2.6.6 4.7.9 6.1 1.9 9.6 6.4 17.2 9.3 22 2 3.3 1.8 5.5 4.4 9.8 1.2 2 3.1 4.5 6.1 7.8 6.6 7.1 29.6 12.5 29.6 12.5zM83.9 86.2s5.5-2.9 8.1-4.9 6.9-3 10.8-2.3c3.8.7 9.6 2.3 9.6 2.3s1.7 2 0 4.9c0 0-8.9-1.2-10.8-2.4-1.9-1.2-6-1.9-10.5 1.2s-7.2 1.2-7.2 1.2z"/><path fill="#2F1B13" d="M101.6 83.8c1.9 1.2 10.8 2.4 10.8 2.4 1.7-2.9 0-4.9 0-4.9s-5.7-1.5-9.6-2.3c-3.8-.7-8.1.2-10.8 2.3-2.6 2-8.1 4.9-8.1 4.9s2.6 1.9 7.2-1.2 8.6-2.4 10.5-1.2z"/><path fill="#1C0500" d="M75.6 97.5l.8-1.5c1.2-5.3-1.2-16.3-1.2-18.9s1.2-6.7 2.9-8.9 4.8 0 4.8 0-.2-11-.2-12.2-1.4-6.7-2.4-9.3 1.7.5 13.9-3.6 33.8-3.8 33.8-3.8V8.4c-52.9 0-58.7 36.4-59.2 46.5s1 18.9 3.6 24c.7 1.4 1.3 3.5 1.7 5.9 1.1 6.1 1.2 13.5 1.2 13.5l.3-.8z"/><path fill="#4B3E56" d="M128 206c-16.5 0-27.4-5.6-34.3-11.6 1.9 16.2 5 38.2 10.2 59.3 7.8 1.5 15.9 2.3 24.1 2.3v-50zm-39-16.4c-4.3-5.1-5.8-9.4-5.8-9.4-15.6 3.6-46.5 13.6-61.8 18.6 17.8 26.8 45.4 46.5 77.8 53.9-3.8-15.5-7.7-36.6-10.2-63.1z"/><path fill="#907839" d="M93.7 194.4c-.5-4.2-.9-7.9-1.2-11.2-.8-8.4-1.1-13.6-1.1-13.6-4.4 4.1-3.4 8-3.4 8 .3 4.1.6 8 1 11.9 2.5 26.5 6.4 47.7 10.1 63.1 1.6.4 3.2.7 4.8 1-5.1-21-8.3-43-10.2-59.2z"/></svg>