<svg xmlns="http://www.w3.org/2000/svg" width="256" height="256"><circle fill="#B1B3B5" cx="128" cy="128" r="128"/><path fill="#975848" d="M187.2 241.5c2.4-1.3 4.8-2.6 7.1-4-.2-1-.4-1.9-.6-2.7-2 2.5-4.1 4.7-6.5 6.7z"/><path fill="#191819" d="M166.1 208.9c9.3-4.4 16.6-11.5 16.6-23.2 0-9-8.6-17.2-10.4-18.9-1.3 14.1-2.8 29-3.7 31.6-.9 2.4-1.8 6.8-2.5 10.5z"/><path fill="#775B4B" d="M173.3 145.9s-3 9.1-6.2 11.9c-3.2 2.9-4.5 9.7-6.5 12-2.1 2.2-1.6 2.2-3.5 3.7-1.9 1.4-5.2 3.3-6.2 3.3s-.2.7-1 0-1.2-1-2-.1c-.8 1 1.6 0-.8 1s-2.4.8-3.7 1.1c-1.3.3-2.4 0-2.4 0s-.2.3-1.3.1c-1.1-.1-2.7 0-2.7 0s-2.7.2-3.5 0-.6-.1-1.8.1c-1.1.2-3.7 1.5-3.7 1.5v35s22 .9 38.1-6.7c.7-3.7 1.6-8 2.4-10.5.9-2.6 2.4-17.5 3.7-31.6l-.3-.3 1.4-11.4c.4-4 .7-7.6.9-10.2-.4.5-.8 1.1-1.2 1.6.2-.3.3-.5.3-.5z"/><path fill="#775B4B" d="M170.8 148.9c.9-.9 1.6-1.8 2.1-2.4-.6.8-1.3 1.6-2.1 2.4zm11.3-31c.2.3.5.6.7.9 4.3 5.7 5.5 2.4 8.4-3.4 2.9-5.7 4.1-9.8 5-14.8s1.2-7.4 2.6-11c1.4-3.6 1.2-9.1-5.4-11.5-2.5-.9-4.6-.9-6.3-.5-.2 2.6-.5 5.3-1.1 8.1-2 10.4-3 22.7-3.9 32.2z"/><path fill="#8C6C5A" d="M137.6 133.6s-3.7.3-4.5 1.1-1.1.2-1.3 1.4c-.2 1.3-.5.6-.8 2.7-.3 2.1-2.7 1.9 0 4.5s2.2 1.9 3 3.8c.8 1.9 1.1 3.2 1.6 2.1s-.2-1.9.6-1.8.6-.6 1.4.8-.2 2.1 1.3 2.1-1.3 1.1 1.4 0 1.1.6 3.5-1.3 2.7-1.3 2.7-3c0-1.8-.5-3 .2-4 .6-1 .6-1.3 1.8-1.9 1.1-.6 1.3-1.1 1.7-2.4.4-1.3.3.3.6-2.7s-.5-2.9 0-4.5.3-1 0-2.7c-.3-1.8-1-2.6-1.8-3.2s-1.6-1.4-3.5-2.8c-1.9-1.5-2.6-2.3-2.6-2.3l-3.7-1.9s-4-2.6-11.4-2.6v16.4c.2.1 6.1-.5 9.8 2.2z"/><path fill="#8C6C5A" d="M134.2 109.9c2.4 1 8.9 5.7 11.3 7 2.4 1.3 9.6 5.4 10.1 6.9.5 1.4-.2 10.2 0 12.1.2 1.9-1.3 4.2-1.1 5.1.2 1 1.8-1 1.3 2.2s.6 4 1.3 4.3c.6.3-2.2-2.2 2.1 0 4.3 2.2 3.7 1.4 4.9 2.9 1.3 1.4-.3 1.4 2.2 1.4 1.3 0 3.1-1.5 4.5-3.1l2.1-2.4c.4-.5.8-1 1.2-1.6 3.4-4.8 5.5-9.9 6.6-15.1.6-2.7 1-6.9 1.5-11.9.9-9.4 1.9-21.8 4-32.2.6-2.8.9-5.5 1.1-8.1.9-12.6-2.4-23.9-8.7-36.6C161.7 3.6 128 8.4 128 8.4V110c0-.1 3.9-1 6.2-.1zm11.5-51.2c2.6-.7 4.3-.2 7.7 0s8.3 2.2 9 3.1 7.7 6.7 5.7 6.5c-1.9-.2-7.5-5.5-11.6-6.5s-12 3.4-15.1 5.3c-3.1 1.9-4.9-2.7-4.9-2.7 3.7-1.4 6.6-5 9.2-5.7z"/><path fill="#4C3523" d="M141.4 67.1c3.1-1.9 11-6.2 15.1-5.3s9.7 6.2 11.6 6.5c1.9.2-5-5.5-5.7-6.5s-5.6-2.9-9-3.1-5-.7-7.7 0-5.6 4.3-9.2 5.7c.1 0 1.8 4.6 4.9 2.7zm-8 111.8c.8.2 3.5 0 3.5 0s1.6-.2 2.7 0c1.1.1 1.3-.1 1.3-.1s1.1.3 2.4 0c1.3-.3 1.3-.2 3.7-1.1s0 0 .8-1 1.3-.6 2 .1c.8.7 0 0 1 0s4.3-1.8 6.2-3.3c1.9-1.4 1.4-1.4 3.5-3.7 2.1-2.2 3.4-9.1 6.5-12 3.2-2.9 6.2-11.9 6.2-11.9s-.2.2-.4.5c-.4.6-1.2 1.5-2.1 2.4-1.4 1.5-3.2 3.1-4.5 3.1-2.6 0-1 0-2.2-1.4-1.3-1.4-.6-.6-4.9-2.9-4.3-2.2-1.4.3-2.1 0-.6-.3-1.8-1.1-1.3-4.3s-1.1-1.3-1.3-2.2c-.2-1 1.3-3.2 1.1-5.1-.2-1.9.5-10.7 0-12.1-.5-1.4-7.7-5.6-10.1-6.9-2.4-1.3-8.9-6.1-11.3-7-2.4-1-6.2 0-6.2 0v5.1c7.3 0 11.4 2.6 11.4 2.6l3.7 1.9s.6.8 2.6 2.3c1.9 1.5 2.7 2.2 3.5 2.8s1.4 1.4 1.8 3.2c.3 1.8.5 1.1 0 2.7s.3 1.4 0 4.5c-.3 3-.2 1.4-.6 2.7-.4 1.3-.5 1.8-1.7 2.4-1.1.6-1.1 1-1.8 1.9-.6 1-.2 2.2-.2 4 0 1.8-.3 1.1-2.7 3-2.4 1.9-.8.2-3.5 1.3s0 0-1.4 0-.5-.6-1.3-2.1-.6-.6-1.4-.8-.2.6-.6 1.8c-.5 1.1-.8-.2-1.6-2.1-.8-1.9-.3-1.3-3-3.8s-.3-2.4 0-4.5.6-1.4.8-2.7c.2-1.3.5-.6 1.3-1.4s4.5-1.1 4.5-1.1c-3.7-2.7-9.6-2.1-9.6-2.1v49s2.6-1.3 3.7-1.5c1-.3.8-.3 1.6-.2z"/><path fill="#603A7F" d="M216.7 188.4c-7.3-1.4-24.2-7.9-24.2-7.9v.3c4.6 5.2 14.1 19 8.8 38.1-1.7 6-4.2 11.3-7.7 15.9l.6 2.7c15.3-9.2 28.4-21.6 38.7-36.2-.1-.2-.1-.3-.2-.4-.6-2.2-8.6-11.1-16-12.5z"/><path fill="#40463A" d="M193.6 234.8c3.5-4.6 6-9.9 7.7-15.9 5.4-19.1-4.2-32.9-8.8-38.1-1.3-1.5-2.3-2.3-2.3-2.3 0-15.4-16.7-23.2-17.1-23.4l-1.4 11.4.3.3c1.8 1.6 10.4 9.9 10.4 18.9 0 11.7-7.3 18.9-16.6 23.2-16.1 7.6-38.1 6.7-38.1 6.7v9s49.4 1.1 59.1-22c0 0-9 33-59.1 33V256c21.3 0 41.5-5.2 59.2-14.5 2.7-2 4.8-4.2 6.7-6.7zm-54.9 10.4s59.1-.5 52.4-47.9l.5-5.1s20.2 55-52.9 53z"/><path fill="#31372D" d="M187.1 202.5c-9.7 23.2-59.1 22-59.1 22v11c50.1.1 59.1-33 59.1-33z"/><path fill="#31372D" d="M191.6 192.2l-.5 5.1c6.7 47.4-52.4 47.9-52.4 47.9 73.1 2 52.9-53 52.9-53z"/><path fill="#6A3B2E" d="M62.4 234.8l-.6 2.7c2.3 1.4 4.7 2.7 7.1 4-2.5-2-4.6-4.2-6.5-6.7z"/><path fill="#100F10" d="M83.8 166.8c-1.8 1.6-10.4 9.9-10.4 18.9 0 11.7 7.3 18.9 16.6 23.2-.7-3.7-1.6-8-2.4-10.5-.9-2.6-2.5-17.6-3.8-31.6z"/><path fill="#60493B" d="M83.1 146.4c.4.6 1.2 1.5 2.1 2.4-.8-.7-1.5-1.5-2.1-2.4z"/><path fill="#60493B" d="M84.2 166.5l-.3.3c1.3 14.1 2.8 29 3.7 31.6.8 2.5 1.7 6.9 2.4 10.5 16.1 7.6 38.1 6.7 38.1 6.7v-35s-2.6-1.3-3.7-1.5c-1.1-.2-1-.3-1.8-.1s-3.5 0-3.5 0-1.6-.2-2.7 0c-1.1.1-1.3-.1-1.3-.1s-1.1.3-2.4 0c-1.3-.3-1.3-.2-3.7-1.1-2.4-1 0 0-.8-1s-1.3-.6-2 .1c-.8.7 0 0-1 0s-4.3-1.8-6.2-3.3c-1.9-1.4-1.4-1.4-3.5-3.7-2.1-2.2-3.4-9.1-6.5-12-3.2-2.9-6.2-11.9-6.2-11.9s.2.2.4.5c-.4-.5-.8-1-1.2-1.6.2 2.6.5 6.1.9 10.2l1.3 11.4zM68.8 77.6c-1.7-.4-3.8-.4-6.3.5-6.6 2.4-6.8 7.9-5.4 11.5 1.4 3.6 1.7 6 2.6 11s2.2 9.1 5 14.8c2.9 5.7 4.1 9.1 8.4 3.4.2-.3.5-.6.7-.9-.9-9.4-1.9-21.8-4-32.2-.5-2.8-.8-5.5-1-8.1z"/><path fill="#775B4B" d="M113 119.5s-.6.8-2.6 2.3c-1.9 1.5-2.7 2.2-3.5 2.8s-1.4 1.4-1.8 3.2-.5 1.1 0 2.7-.3 1.4 0 4.5.2 1.4.6 2.7c.4 1.3.5 1.8 1.7 2.4 1.1.6 1.1 1 1.8 1.9.6 1 .2 2.2.2 4 0 1.8.3 1.1 2.7 3 2.4 1.9.8.2 3.5 1.3s0 0 1.4 0 .5-.6 1.3-2.1.6-.6 1.4-.8.2.6.6 1.8c.5 1.1.8-.2 1.6-2.1.8-1.9.3-1.3 3-3.8 2.7-2.6.3-2.4 0-4.5s-.6-1.4-.8-2.7c-.2-1.3-.5-.6-1.3-1.4s-4.5-1.1-4.5-1.1c3.7-2.7 9.6-2.1 9.6-2.1v-16.4c-7.3 0-11.4 2.6-11.4 2.6l-3.5 1.8z"/><path fill="#775B4B" d="M83.1 146.4c.6.8 1.3 1.6 2.1 2.4 1.4 1.5 3.2 3.1 4.5 3.1 2.6 0 1 0 2.2-1.4 1.3-1.4.6-.6 4.9-2.9 4.3-2.2 1.4.3 2.1 0 .6-.3 1.8-1.1 1.3-4.3s1.1-1.3 1.3-2.2c.2-1-1.3-3.2-1.1-5.1s-.5-10.7 0-12.1c.5-1.4 7.7-5.6 10.1-6.9 2.4-1.3 8.9-6.1 11.3-7 2.4-1 6.2 0 6.2 0V8.4S95.1 4.8 77.5 41c-6.3 12.7-9.6 24-8.7 36.6.2 2.6.5 5.3 1.1 8.1 2.1 10.4 3.1 22.8 4 32.2.5 5 .9 9.2 1.5 11.9 1.1 5.2 3.2 10.3 6.6 15.1.3.5.7 1 1.1 1.5zm10.5-84.6c.7-1 5.6-2.9 9-3.1 3.4-.2 5-.7 7.7 0s5.6 4.3 9.2 5.7c0 0-1.8 4.6-4.9 2.7-3.1-1.9-11-6.2-15.1-5.3s-9.7 6.2-11.6 6.5c-1.9.2 5-5.5 5.7-6.5z"/><path fill="#392513" d="M87.9 68.3c1.9-.2 7.5-5.5 11.6-6.5s12 3.4 15.1 5.3c3.1 1.9 4.9-2.7 4.9-2.7-3.6-1.4-6.5-5-9.2-5.7s-4.3-.2-7.7 0c-3.4.2-8.3 2.2-9 3.1-.7 1-7.6 6.7-5.7 6.5zm40.1 79.5v-16.3s-5.9-.6-9.6 2.1c0 0 3.7.3 4.5 1.1s1.1.2 1.3 1.4c.2 1.3.5.6.8 2.7.3 2.1 2.7 1.9 0 4.5s-2.2 1.9-3 3.8c-.8 1.9-1.1 3.2-1.6 2.1s.2-1.9-.6-1.8-.6-.6-1.4.8.2 2.1-1.3 2.1c-1.4 0 1.3 1.1-1.4 0s-1.1.6-3.5-1.3-2.7-1.3-2.7-3c0-1.8.5-3-.2-4-.6-1-.6-1.3-1.8-1.9-1.1-.6-1.3-1.1-1.7-2.4-.4-1.3-.3.3-.6-2.7s.5-2.9 0-4.5-.3-1 0-2.7 1-2.6 1.8-3.2 1.6-1.4 3.5-2.8c1.9-1.5 2.6-2.3 2.6-2.3l3.7-1.9s4-2.6 11.4-2.6v-5.1s-3.9-1-6.2 0c-2.4 1-8.9 5.7-11.3 7-2.4 1.3-9.6 5.4-10.1 6.9-.5 1.4.2 10.2 0 12.1s1.3 4.2 1.1 5.1c-.2 1-1.8-1-1.3 2.2s-.6 4-1.3 4.3c-.6.3 2.2-2.2-2.1 0-4.3 2.2-3.7 1.4-4.9 2.9-1.3 1.4.3 1.4-2.2 1.4-1.3 0-3.1-1.5-4.5-3.1-.9-.9-1.6-1.8-2.1-2.4-.3-.3-.4-.5-.4-.5s3 9.1 6.2 11.9c3.2 2.9 4.5 9.7 6.5 12 2.1 2.2 1.6 2.2 3.5 3.7 1.9 1.4 5.2 3.3 6.2 3.3s.2.7 1 0 1.2-1 2-.1c.8 1-1.6 0 .8 1 2.4 1 2.4.8 3.7 1.1 1.3.3 2.4 0 2.4 0s.2.3 1.3.1c1.1-.1 2.7 0 2.7 0s2.7.2 3.5 0 .6-.1 1.8.1c1.1.2 3.7 1.5 3.7 1.5v-32.6z"/><path fill="#53306E" d="M54.7 218.9c-5.4-19.1 4.2-32.9 8.8-38.1v-.3s-16.8 6.5-24.2 7.9c-7.3 1.4-15.3 10.3-16 12.5 0 .1-.1.3-.2.4 10.2 14.6 23.4 26.9 38.7 36.2.2-1 .4-1.9.6-2.7-3.5-4.6-6-9.9-7.7-15.9z"/><path fill="#31372D" d="M128 241.2v-5.6c-50.1 0-59.1-33-59.1-33 9.7 23.2 59.1 22 59.1 22v-9s-22 .9-38.1-6.7c-9.3-4.4-16.6-11.5-16.6-23.2 0-9 8.6-17.2 10.4-18.9l.3-.3-1.2-11.5c-.3.2-17.1 8-17.1 23.4 0 0-.9.8-2.3 2.3-4.6 5.2-14.1 19-8.8 38.1 1.7 6 4.2 11.3 7.7 15.9 1.9 2.4 4 4.7 6.4 6.7 17.7 9.2 37.8 14.5 59.2 14.5v-14.7zm-63.6-49l.5 5.1c-6.7 47.4 52.4 47.9 52.4 47.9-73.1 2-52.9-53-52.9-53z"/><path fill="#1F251B" d="M68.9 202.5s9 33 59.1 33v-11c0 .1-49.4 1.2-59.1-22z"/><path fill="#1F251B" d="M117.3 245.2s-59.1-.5-52.4-47.9l-.5-5.1s-20.2 55 52.9 53z"/></svg>