<svg xmlns="http://www.w3.org/2000/svg" width="256" height="256"><circle fill="#B1B3B5" cx="128" cy="128" r="128"/><path fill="#533429" d="M128 180.1v38.2s29.6-1.5 37.2-9.3c1.9-14.3 3.1-23.9 3.1-23.9.3-9.5 2.7-23.1 3.4-27.2-1.7 2.6-3.6 5.2-5.6 7.6-8.6 10-29.8 14.6-38.1 14.6zm64.3-80.5c-1.5.8-.6 1.5-.1 3.5l.3-3.6c-.1.1-.1.1-.2.1zm-2.2 27.1c2-4.2 3-11.2 2-15.3-.1-.6-.2-1.4-.2-2.2-.2 0-.6-1.6-2.5-.4-3 1.9-4.2 0-4.2 0s.4 1.4 0 4.6c-.2 1.3-.5 1.7-.9 1.5-.5 5.3-1.2 11.1-1.8 15.7 3.2-.4 6.4-1.5 7.6-3.9z"/><path fill="#764931" d="M138.8 121.9s9.5 3.9 13.5 8.6c4 4.6 7.8 16.1 7.8 16.1s.5-.5 3.3-6.7-2.5-4.6 2-11c4.5-6.5 6.3-5.3 10.3-10.3 4-5 5.5-7 6.3-9.8.1-.4.2-.7.4-1.1 0-1 0-2.4-.1-4.6-.5-6.5-.5-1.9-.8-12.9-.3-11 .3-4.6.5-8.6.3-4.1 1.5-8.1 2.8-13.4 1.3-5.3 0-4.8 0-8.1s-3.3-5.5-5.3-6.9c-2-1.4.3.7-3 0S167 40.7 165 38.4c-2-2.4-7-8.4-14.3-6.7S128 33 128 33v90.3s7.5 1 10.8-1.4zM150 61.5c5.3-.7 12.8 2.6 15.3 4.6s6.3 4.3 9.5 6.7 2.5 4.8 2.5 4.8c-4.8-5.3-13.3-7.4-17.3-8.6-4-1.2-13 .2-17 1.4s-5.8-6-5.8-6c3.6-.2 7.6-2.1 12.8-2.9z"/><path fill="#764931" d="M136.8 157.8c-3 2.2.3 6.9 2.3 6.7 2-.2 12.5-5.5 13.5-8.4 1-2.9.3-10.8-.8-14.1-1-3.4-1.5-6.2-3.8-8.9-2.3-2.6-5.3-6.5-20-6.5v25.6s12.5 0 15.5-1.4c0 .1-3.7 4.8-6.7 7z"/><path fill="#623B26" d="M175.6 118.5c-4 5-5.8 3.8-10.3 10.3-4.5 6.5.8 4.8-2 11s-3.3 6.7-3.3 6.7-3.8-11.5-7.8-16.1c-4-4.6-13.5-8.6-13.5-8.6-3.3 2.4-10.8 1.4-10.8 1.4v3.4c14.8 0 17.8 3.8 20 6.5 2.3 2.6 2.8 5.5 3.8 8.9 1 3.4 1.8 11.3.8 14.1-1 2.9-11.5 8.1-13.5 8.4-2 .2-5.3-4.5-2.3-6.7s6.8-6.9 6.8-6.9c-3 1.4-15.5 1.4-15.5 1.4V180c8.3 0 29.5-4.6 38-14.6 2-2.4 3.9-5 5.6-7.6 5.4-8.3 9-17.2 10.3-24.7.2-.9.3-1.8.5-2.8.7-4.5 1.3-10.4 1.8-15.7-.5-.3-1.1-1.6-1.7-3.1-.7-1.7-.5-2.1-.4-4-.2.4-.3.8-.4 1.1-.6 3-2.1 4.9-6.1 9.9z"/><path fill="#2F2011" d="M143 70.4c4-1.2 13-2.6 17-1.4 4 1.2 12.5 3.4 17.3 8.6 0 0 .8-2.4-2.5-4.8s-7-4.8-9.5-6.7-10-5.3-15.3-4.6c-5.3.7-9.3 2.6-12.8 2.9.1 0 1.8 7.2 5.8 6z"/><path fill="#2F2011" d="M128 33s15.3 0 22.5-1.7 12.3 4.3 14.3 6.7c2 2.4 8.3 14.1 11.5 14.8s1-1.4 3 0 5.3 3.6 5.3 6.9 1.3 2.9 0 8.1c-1.3 5.3-2.5 9.3-2.8 13.4-.3 4.1-.8-2.4-.5 8.6.3 11 .3 6.5.8 12.9.2 2.2.2 3.6.1 4.6-.1 1.9-.3 2.3.4 4 .6 1.5 1.2 2.8 1.7 3.1.4.2.7-.1.9-1.5.4-3.1 0-4.6 0-4.6s1.2 1.9 4.2 0c1.9-1.2 2.3.4 2.5.4.1 0 .2-.5.5-2.3.2-1.6.1-2.8-.1-3.7-.5-2-1.4-2.7.1-3.5.1 0 .1-.1.2-.1 2.1-1.1 1.4-.9 3.8-2.3 2.5-1.4 3.3 0 3.3-2.6s.5-3.4 0-5.3-2-2.9-1.3-5.7c.8-2.9 1.7-3.6 1.5-6s1.3-3.8 1.3-3.8l1-3.1V67s4 1.3 3.3 2.5c-.8 1.1-2.3 2.3-2.3 2.3s4.3-.3 4.3-2.3c0-2 2-.1 0-3.9s-2.3-4.1-2.5-5.7c-.3-1.7.3-1.2-.3-4.6-.5-3.4-2.8-5.5-3.5-6.9s-1.3-4.8 0-4.8.3-.2 2-1.4c1.8-1.2.5-.5 1.8-1.2s2-.7 2.3-2.9c.3-2.2-1.3-3.8-2.3-3.8s-1.3 0-2.3-.7c-1-.7-1.5-2.4-1.5-2.4s.8 2.3 1.3 0 2.7 1.5.5-2.3-4.8-4-4.8-4-2.2-1.2-5.8-3.9c-3.5-2.6-2.3 1.9-3.5-2.6-.4-1.5-.3-2.4-.2-2.9C170.6 5.5 150 0 128 0v33z"/><path fill="#CFD2D3" d="M174.1 193.1c-.6-.8-1.5-1.2-2.3-1.4-.5 2.5-3.7 20.5-6.9 54.8-.1 1.5-.3 3-.6 4.4 23.6-7 44.4-20.6 60.2-38.7-8.3-2.3-18.2-3.5-23.6-7.4-7-5.2-24.9-9.5-26.8-11.7zm-8.9 15.9c-7.5 7.8-37.2 9.3-37.2 9.3V256c10.6 0 20.9-1.3 30.7-3.7.6-2 1-4.1 1.4-6.5 1.9-13.5 3.7-26.4 5.1-36.8z"/><path fill="#898D8F" d="M171.8 191.7c0-.2.1-.3.1-.3l-3.6-6.2c0 .1-1.2 9.6-3.1 23.9-1.4 10.4-3.1 23.2-5.1 36.7-.3 2.4-.8 4.5-1.4 6.5 1.9-.5 3.7-1 5.6-1.5.2-1.4.4-2.8.6-4.4 3.3-34.3 6.5-52.3 6.9-54.7z"/><path fill="#44291E" d="M128 218.3v-38.2c-8.3 0-29.5-4.6-38-14.6-2-2.4-3.9-5-5.6-7.6.8 4.1 3.2 17.7 3.4 27.2 0 .1 1.2 9.6 3.1 23.9 7.5 7.8 37.1 9.3 37.1 9.3zm-57.1-105c-.4-3.1 0-4.6 0-4.6s-1.2 1.9-4.2 0c-1.9-1.2-2.3.4-2.5.4 0 .9-.1 1.6-.2 2.2-1 4.2 0 11.2 2 15.3 1.2 2.4 4.4 3.5 7.7 3.7-.7-4.5-1.3-10.4-1.8-15.7-.5.4-.8 0-1-1.3zm-7.2-13.7c-.1 0-.1-.1-.2-.1l.3 3.6c.5-2 1.4-2.7-.1-3.5z"/><path fill="#623B26" d="M108 133.1c-2.3 2.6-2.8 5.5-3.8 8.9-1 3.4-1.8 11.3-.8 14.1 1 2.9 11.5 8.1 13.5 8.4 2 .2 5.3-4.5 2.3-6.7s-6.8-6.9-6.8-6.9c3 1.4 15.5 1.4 15.5 1.4v-25.6c-14.7 0-17.7 3.8-19.9 6.4z"/><path fill="#623B26" d="M80.4 118.5c4 5 5.8 3.8 10.3 10.3 4.5 6.5-.8 4.8 2 11s3.3 6.7 3.3 6.7 3.8-11.5 7.8-16.1c4-4.6 13.5-8.6 13.5-8.6 3.3 2.4 10.8 1.4 10.8 1.4V33s-15.3 0-22.5-1.7-12.3 4.3-14.3 6.7c-2 2.4-8.3 14.1-11.5 14.8s-1-1.4-3 0-5.3 3.6-5.3 6.9-1.3 2.9 0 8.1c1.3 5.3 2.5 9.3 2.8 13.4s.8-2.4.5 8.6c-.3 11-.3 6.5-.8 12.9-.2 2.2-.2 3.6-.1 4.6.2.4.3.8.4 1.1.6 3.2 2.1 5.1 6.1 10.1zm.8-45.7c3.3-2.4 7-4.8 9.5-6.7s10-5.3 15.3-4.6 9.3 2.6 12.8 2.9c0 0-1.8 7.2-5.8 6-4-1.2-13-2.6-17-1.4-4 1.2-12.5 3.4-17.3 8.6 0 0-.8-2.4 2.5-4.8z"/><path fill="#533429" d="M128 180.1v-27.7s-12.5 0-15.5-1.4c0 0 3.7 4.8 6.8 6.9 3 2.2-.3 6.9-2.3 6.7-2-.2-12.5-5.5-13.5-8.4-1-2.9-.3-10.8.8-14.1 1-3.4 1.5-6.2 3.8-8.9 2.3-2.6 5.3-6.5 20-6.5v-3.4s-7.5 1-10.8-1.4c0 0-9.5 3.9-13.5 8.6-4 4.6-7.8 16.1-7.8 16.1s-.5-.5-3.3-6.7 2.5-4.6-2-11c-4.5-6.5-6.3-5.3-10.3-10.3-4-5-5.5-7-6.3-9.8-.1-.4-.2-.7-.4-1.1.1 1.9.3 2.3-.4 4-.6 1.5-1.2 2.8-1.7 3.1.5 5.3 1.2 11.1 1.8 15.7.2 1 .3 2 .5 2.8 1.3 7.5 4.9 16.4 10.3 24.7 1.7 2.6 3.6 5.2 5.6 7.6 8.7 9.9 29.9 14.5 38.2 14.5z"/><path fill="#201100" d="M96 69c4-1.2 13 .2 17 1.4s5.8-6 5.8-6c-3.5-.2-7.5-2.2-12.8-2.9s-12.8 2.6-15.3 4.6-6.3 4.3-9.5 6.7-2.5 4.8-2.5 4.8C83.4 72.3 92 70.2 96 69z"/><path fill="#201100" d="M67.2 18.2c-1.3 4.6 0 0-3.5 2.6s-5.8 3.9-5.8 3.9-2.6.2-4.8 4c-2.2 3.8 0 0 .5 2.3s1.3 0 1.3 0-.5 1.7-1.5 2.4-1.3.7-2.3.7c-1 0-2.5 1.7-2.3 3.8.3 2.2 1 2.2 2.3 2.9 1.3.7 0 0 1.8 1.2s.8 1.4 2 1.4c1.3 0 .8 3.4 0 4.8s-3 3.6-3.5 6.9c-.5 3.4 0 2.9-.3 4.6-.3 1.7-.5 1.9-2.5 5.7-2 3.8 0 1.9 0 3.9s4.3 2.3 4.3 2.3-1.5-1.2-2.3-2.3c-.8-1.1 3.3-2.5 3.3-2.5v3.6l1 3.1s1.5 1.4 1.3 3.8.7 3.1 1.5 6-.8 3.8-1.3 5.7 0 2.6 0 5.3c0 2.6.8 1.2 3.3 2.6 2.4 1.4 1.8 1.2 3.8 2.3.1 0 .1.1.2.1 1.5.8.6 1.5.1 3.5-.2.9-.4 2.1-.1 3.7.3 1.8.3 2.3.5 2.3s.6-1.6 2.5-.4c3 1.9 4.2 0 4.2 0s-.4 1.4 0 4.6c.2 1.3.5 1.7.9 1.5.5-.3 1.1-1.6 1.7-3.1.7-1.7.5-2.1.4-4 0-1 0-2.4.1-4.6.5-6.5.5-1.9.8-12.9.3-11-.3-4.6-.5-8.6s-1.5-8.1-2.8-13.4c-1.3-5.3 0-4.8 0-8.1s3.3-5.5 5.3-6.9c2-1.4-.3.7 3 0s9.5-12.5 11.5-14.8c2-2.4 7-8.4 14.3-6.7S128 33 128 33V0c-22 0-42.6 5.5-60.7 15.3.2.5.3 1.4-.1 2.9z"/><path fill="#C0C3C4" d="M84.2 191.7c-.8.2-1.7.7-2.3 1.4-1.9 2.2-19.7 6.5-26.8 11.6-5.4 3.9-15.3 5.1-23.6 7.4 15.8 18.1 36.6 31.7 60.2 38.7-.2-1.4-.4-2.8-.6-4.4-3.3-34.3-6.5-52.3-6.9-54.7zm43.8 26.6s-29.6-1.5-37.2-9.3c1.4 10.4 3.1 23.2 5.1 36.7.3 2.4.8 4.5 1.4 6.5 9.8 2.4 20.1 3.7 30.7 3.7v-37.6z"/><path fill="#707375" d="M90.8 209c-1.9-14.3-3.1-23.9-3.1-23.9l-3.6 6.2s0 .1.1.3c.5 2.5 3.7 20.5 6.9 54.8.1 1.5.3 3 .6 4.4 1.8.5 3.7 1 5.6 1.5-.6-2-1-4.1-1.4-6.5-1.9-13.5-3.7-26.4-5.1-36.8z"/></svg>