<svg xmlns="http://www.w3.org/2000/svg" width="256" height="256"><circle fill="#B2B4B5" cx="128" cy="128" r="128"/><path fill="#49361E" d="M92.4 209.1c-4.1-8.9-6.3-25.1-7.3-40.8-2.3-5.1-4.3-11.4-4.1-17.7.3-12.8-1-14.6-5.7-22.6-3.2-5.3-3.8-11.3-3.6-17.4-6.8 11.8-21.8 34.6-42.8 46.9-6.3 3.7-13.6 8.5-21.3 13.8 1.8 5.1 3.9 10 6.4 14.7 1.8-2.6 2.9-4.3 2.9-4.3s-.6 3.2-1.3 7.3c2.4 4.4 5 8.6 7.8 12.6 7.8-12.4 19.9-30.9 19.9-30.9s-11.5 26.8-7.7 22 17.7-16.3 17.7-16.3c-4.7 17.2-14.9 27-24 32.9 1.8 2.2 3.7 4.3 5.6 6.3 9.7-7.2 12.6-16.7 12.6-16.7s1 6.2-1.9 15.4c-.8 2.6-2.1 5.5-3.5 8.4 1.3 1.2 2.7 2.4 4 3.5 2.7-3.3 5.4-7.3 7.6-11.9 7.2-15.2 7.7-35.4 7.7-35.4s1 19 .5 24.3 24.9 34.5 24.9 34.5v11.4c12.9 4.4 26.8 6.8 41.2 6.8v-.1c-1.8-1.7-26.3-26.9-35.6-46.7z"/><path fill="#1F160E" d="M106.2 204c-5.1-7.7-12.1-20.4-14.7-24.3-1.3-1.9-4.1-6.1-6.4-11.4 1.1 15.7 3.2 31.9 7.3 40.8 9.2 19.8 33.7 45 35.5 46.8v-47.4c-1.3.2-16.8 2.8-21.7-4.5z"/><path fill="#5A4526" d="M75.3 128c4.8 8 6.1 9.9 5.7 22.6-.2 6.3 1.8 12.5 4.1 17.7 2.4 5.3 5.1 9.5 6.4 11.4 2.6 3.8 9.6 16.6 14.7 24.3 4.9 7.3 20.3 4.7 21.7 4.5V8.4c-22.4 0-34.2 9.8-42.7 19-21 23.9-14.8 46.9-13.6 55.6s1.7 8.9.8 18.2c-.3 3.1-.6 6.3-.7 9.4-.3 6.1.4 12.1 3.6 17.4zm22.2 25.9c-2.6 9.6-8.5 14-4.1 25.1 0 0-9.1-19.8-9.5-26.8s3.8-9.6-3.9-16.3c0 0 20 8.4 17.5 18zm1.5 5.3s2.9-13.4 4.8-15.8c1.9-2.4 8.1 0 12.5-9.6 0 0 0 5.3 3.8 6.7s5.7 10.5 5.7 10.5-12.9-12-19.2-4.3c-6.2 7.8-7.6 12.5-7.6 12.5zm13.9-44.7c4.2-1.3 1.3-11.5 1.3-11.5s2.8 7.7 2.5 11.7c-.3 4.1-5.1 9.6-16.9 11.6-11.8 2-18.5-11.7-18.5-11.7s6.4-4.9 10.5-5.9 16.9 7.1 21.1 5.8zM76.5 59c4.1 10.6.8 25-1.5 32.5-.3 2-.8 3.7-1.7 5.1 0 0 .8-2 1.7-5.1.8-5.8-.5-14-1.7-23.3-1.6-12.4 3.2-9.2 3.2-9.2z"/><path fill="#3D2C1A" d="M81.3 114.7s6.7 13.6 18.5 11.7 16.6-7.5 16.9-11.6-2.5-11.7-2.5-11.7 2.8 10.2-1.3 11.5c-4.2 1.3-16.9-6.7-21.1-5.7s-10.5 5.8-10.5 5.8z"/><path fill="#49361E" d="M75 91.5c-.9 3.2-1.7 5.1-1.7 5.1.9-1.3 1.4-3.1 1.7-5.1zm0 0c2.3-7.6 5.5-22 1.5-32.5 0 0-4.8-3.2-3.2 9.3 1.1 9.2 2.5 17.4 1.7 23.2z"/><path fill="#3D2C1A" d="M80 135.9c7.7 6.7 3.5 9.3 3.9 16.3s9.5 26.8 9.5 26.8c-4.5-11.2 1.5-15.6 4.1-25.1 2.5-9.6-17.5-18-17.5-18z"/><path fill="#49361E" d="M125.8 151.1s-1.9-9.1-5.7-10.5c-3.8-1.4-3.8-6.7-3.8-6.7-4.3 9.6-10.5 7.2-12.5 9.6-1.9 2.4-4.8 15.8-4.8 15.8s1.4-4.8 7.7-12.5c6.2-7.7 19.1 4.3 19.1 4.3z"/><path fill="#3A2A18" d="M13.9 186.1c.5 1 1 2 1.6 3 .8-4 1.3-7.3 1.3-7.3s-1.1 1.7-2.9 4.3zM47.5 199s-2.9 9.5-12.6 16.7c2.3 2.5 4.7 4.8 7.2 7.1 1.4-2.9 2.7-5.9 3.5-8.4 2.8-9.2 1.9-15.4 1.9-15.4zm5.7-22.5S39.3 188 35.5 192.8s7.7-22 7.7-22-12.1 18.4-19.9 30.9c1.9 2.7 3.9 5.3 6 7.8 9-6 19.3-15.8 23.9-33zm8.6 26.8c.5-5.3-.5-24.3-.5-24.3s-.5 20.1-7.7 35.4c-2.2 4.6-4.9 8.6-7.6 11.9 11.9 9.9 25.7 17.8 40.7 22.9v-11.4s-25.4-29.2-24.9-34.5z"/><path fill="#5A4526" d="M184.4 110.6c.2 6.1-.4 12.1-3.6 17.4-4.8 8-6.1 9.9-5.7 22.6.2 6.3-1.8 12.5-4.1 17.7-1.1 15.7-3.2 31.9-7.3 40.8C154 229.7 128 256 127.9 256h.1c14.4 0 28.3-2.4 41.3-6.8v-11.4s25.4-29.2 24.9-34.5.5-24.3.5-24.3.5 20.1 7.7 35.4c2.2 4.6 4.9 8.6 7.6 11.9 1.4-1.1 2.7-2.3 4-3.5-1.4-2.9-2.7-5.9-3.5-8.4-2.9-9.2-1.9-15.4-1.9-15.4s2.9 9.5 12.6 16.7c1.9-2 3.8-4.1 5.6-6.3-9-6-19.3-15.7-24-32.9 0 0 13.9 11.5 17.7 16.3s-7.7-22-7.7-22 12.1 18.4 19.9 30.9c2.8-4 5.5-8.2 7.8-12.6-.8-4-1.3-7.3-1.3-7.3s1.1 1.7 2.9 4.3c2.4-4.7 4.5-9.7 6.4-14.7-7.6-5.3-15-10.1-21.3-13.8-21-12.4-36.1-35.2-42.8-47z"/><path fill="#302314" d="M163.6 209.1c4.1-8.9 6.3-25.1 7.3-40.8-2.4 5.3-5.1 9.5-6.4 11.4-2.6 3.8-9.6 16.6-14.7 24.3-5.1 7.7-21.8 4.5-21.8 4.5V256s26-26.3 35.6-46.9z"/><path fill="#6C572F" d="M127.9 126.5v81.9s16.7 3.2 21.8-4.5c5.1-7.7 12.1-20.4 14.7-24.3 1.3-1.9 4.1-6.1 6.4-11.4 2.3-5.1 4.3-11.4 4.1-17.7-.3-12.8 1-14.6 5.7-22.6 3.2-5.3 3.8-11.3 3.6-17.4-.1-3.1-.4-6.3-.7-9.4-1-9.3-.4-9.6.8-18.2s7.4-31.6-13.6-55.6c-8.5-9.2-20.3-19-42.7-19h-.2l.1 118.2zm21.4 20.3c-6.2-7.7-19.2 4.3-19.2 4.3s1.9-9.1 5.7-10.5 3.8-6.7 3.8-6.7c4.3 9.6 10.5 7.2 12.5 9.6 1.9 2.4 4.8 15.8 4.8 15.8s-1.3-4.8-7.6-12.5zm22.7 5.4c-.4 7-9.5 26.8-9.5 26.8 4.5-11.2-1.5-15.6-4.1-25.1-2.6-9.6 17.4-18 17.4-18-7.5 6.7-3.4 9.3-3.8 16.3zm7.5-93.2s4.8-3.2 3.2 9.3c-1.2 9.3-2.5 17.5-1.7 23.3.9 3.2 1.7 5.1 1.7 5.1-.9-1.4-1.4-3.1-1.7-5.1-2.3-7.6-5.5-22-1.5-32.6zm-37.7 44s-2.8 10.2 1.3 11.5c4.2 1.3 16.9-6.7 21.1-5.7s10.5 5.9 10.5 5.9-6.7 13.6-18.5 11.7-16.6-7.5-16.9-11.6c-.3-4.1 2.5-11.8 2.5-11.8z"/><path fill="#49361E" d="M156.2 126.4c11.8 1.9 18.5-11.7 18.5-11.7s-6.4-4.9-10.5-5.9-16.9 7-21.1 5.7c-4.2-1.3-1.3-11.5-1.3-11.5s-2.8 7.7-2.5 11.7c.3 4.2 5.1 9.7 16.9 11.7z"/><path fill="#5A4526" d="M181 91.5c.3 2 .8 3.7 1.7 5.1 0 .1-.7-1.9-1.7-5.1zm1.7-23.3c1.6-12.5-3.2-9.3-3.2-9.3-4.1 10.6-.8 25 1.5 32.5-.8-5.7.6-13.9 1.7-23.2z"/><path fill="#49361E" d="M158.5 153.9c2.6 9.6 8.5 14 4.1 25.1 0 0 9.1-19.8 9.5-26.8s-3.8-9.6 3.9-16.3c0 0-20 8.4-17.5 18z"/><path fill="#5A4526" d="M152.2 143.4c-1.9-2.4-8.1 0-12.5-9.6 0 0 0 5.3-3.8 6.7s-5.7 10.5-5.7 10.5 12.9-12 19.2-4.3c6.2 7.7 7.7 12.5 7.7 12.5s-3-13.4-4.9-15.8z"/><path fill="#4F3B22" d="M240.5 189c.5-1 1.1-2 1.6-3-1.8-2.6-2.9-4.3-2.9-4.3s.6 3.3 1.3 7.3zm-20 3.8c-3.8-4.8-17.7-16.3-17.7-16.3 4.7 17.2 14.9 27 24 32.9 2.1-2.5 4.1-5.1 6-7.8-7.8-12.4-19.9-30.9-19.9-30.9s11.4 26.9 7.6 22.1zm-12 6.2s-1 6.2 1.9 15.4c.8 2.6 2.1 5.5 3.5 8.4 2.5-2.3 4.9-4.6 7.2-7.1-9.6-7.2-12.6-16.7-12.6-16.7zm-13.8-20s-1 19-.5 24.3-24.9 34.5-24.9 34.5v11.4c15-5.1 28.8-12.9 40.7-22.9-2.7-3.3-5.4-7.3-7.6-11.9-7.3-15.2-7.7-35.4-7.7-35.4z"/></svg>