<svg xmlns="http://www.w3.org/2000/svg" width="256" height="256"><circle fill="#B1B3B5" cx="128" cy="128" r="128"/><path fill="#003838" d="M171.8 167.8c2.7-9.2.6-18.7-.6-21.2-.9 3.9-1.6 7.9-1.8 9.8-.2 3.2 1 10.2 1.7 13.7.3-.8.5-1.5.7-2.3z"/><path fill="#2A6D6A" d="M238.2 182.5c-.1 1.9-.3 3.8-.4 5.8-.1 2-.2 4.1-.3 6.2 2.3-3.8 4.4-7.8 6.4-11.9-1.9-1.1-4.4-.6-5.7-.1z"/><path fill="#C08C76" d="M138.1 247.4c-.3-3.1-.4-6.9-.2-11.2.3-5.6.9-11.9 2.1-17.8 0 0 .2-4.8 2.8-10.3.6-1.4 1.4-2.8 2.3-3.9.9-1.3 1.9-2.4 2.9-3.4l.2-.2c.1-.1.2-.2.4-.3 1.5-1.4 3.2-2.6 5.2-3.7 1.5-.9 2.6-1.2 2.6-1.2h.1-.3c7.7-6.2 12.2-16.2 15-25.2-.7-3.6-1.9-10.5-1.7-13.7.1-1.9.9-5.8 1.8-9.8-.1-.1-.1-.2-.2-.3.8-3.6 1.9-8.5 1.9-8.5l.2.2c.4-1.5.6-2.4.6-2.4-2.6 7.3-7.8 15.6-10.1 19.5-1.2 2-3.6 4.6-6.5 7.3-2.5 3.5-6.2 6.9-11.7 10-.2.2-.4.3-.6.5-6.3 5.3-16.8 3.9-16.8 3.9V256c3.3 0 6.6-.1 9.9-.4.2-1.9.3-3.7.3-5.4-.1-1-.1-1.9-.2-2.8zM181 91.5c-.2 2.6-1 3.8-1.6 7.4 0 .2-.1.4-.1.7-.4 7.3-1.4 14.8-2.4 21l.9.6c5.6 5.7 8.6-5.3 8.6-7.2 0-1.9 1.4-9.3 1.2-17.2-.2-7.9 1.9-11.3-2.5-13.7v1.4c-.2 0-3.9 4.3-4.1 7z"/><path fill="#D7A990" d="M178.7 102.5s-.5-11-.9-13.9c-.5-2.9-1.4-1.3-.5-5.9.9-4.6 2.4-2.5.5-8.7-1.8-6.2-1.5-5.5-1.5-9.1v-6.5c0-3.8.7-6.2-1.9-12-2.5-5.7.2-3.6-3.7-7.7-3.9-4.1-8.6-8.6-10-10.5-1.4-1.9-6.2-4.4-10.4-7.2s-6.1-3.8-8.2-4.5c-2.1-.7-3.7-1.8-5.3-.8-4.9 3.3-3.1-.4-4.7 0-1.4.4-2.2 1.6-4.2 1.6v159.5s10.6 1.4 16.8-3.9c.2-.2.4-.3.6-.5 0 0 8.6-7.6 11.3-13.3 2.6-5.7 3.1-17.6 10.8-28.1 0 0-5.7 13.7-6 19.5-.2 3.2-1.3 7.6-4.4 12 2.9-2.7 5.3-5.2 6.5-7.3 2.3-4 7.5-12.2 10.1-19.5.5-1.5 1-3 1.3-4.4.5-2.6 1.2-6.3 1.9-10.6 1-6.2 2-13.7 2.4-21l-.5 2.8zm-11.8-14.9c-.5.4-1.9-1.3-2.9-1.8-1.1-.4-3.6-1.8-4.9-1.8-1.4 0-7.3.2-13.6 2.2-6.3 2.1-9.4 1.1-10 1.1 0 0-.5-1.9 1.7-1.9s7.3-2.1 9.4-2.8c2.2-.7 3.4-1.2 8.6-1.5 5.3-.3 8 1.6 9.9 2.9 1.9 1.3 2.5 1.3 2.8 1.9-1.3.5-1.4.3-1.4.3s.3.4.4 1.4z"/><path fill="#958680" d="M128 17.4c2 0 2.9-1.2 4.2-1.6 1.6-.4-.2 3.3 4.7 0 1.6-1 3.2.1 5.3.8 2.1.7 4 1.7 8.2 4.5 4.2 2.8 9 5.3 10.4 7.2 1.4 1.9 6 6.5 10 10.5 3.9 4.1 1.2 1.9 3.7 7.7 2.5 5.7 1.9 8.1 1.9 12V65c0 3.6-.4 2.9 1.5 9.1 1.8 6.2.4 4.1-.5 8.7s0 3 .5 5.9c.5 2.9.9 13.9.9 13.9l.6-2.9c0-.2.1-.4.1-.7.7-3.6 1.4-4.8 1.6-7.4.2-2.6 3.9-6.9 3.9-6.9v-1.8s-.2-1.8-.5-3.7c-.2-1.6-.5-3.2-.7-3.8-.5-1.2-1.9-6-1.9-6l1.9 2.4s-1.9-13.4-1.9-15.1-3.9-13.8-4.9-16.5c-.9-2.6-10-11.3-10.7-12.5-.7-1.2-4.6-4.3-6-5.3s-3.5-1.9-3.5-1.9l-4.2-6s1.9 5.8-1.3 2.4c-3.1-3.4-6.6-3.6-6.6-3.6s-.9.5-1.6 0c-.7-.5-8.3-5-8.3-5l1.6 2.9-8.4-2.8v9z"/><path fill="#A27767" d="M167.8 85.9c-.3-.6-.9-.6-2.8-1.9-1.9-1.3-4.6-3.2-9.9-2.9-5.3.3-6.5.8-8.6 1.5-2.2.7-7.3 2.8-9.4 2.8s-1.7 1.9-1.7 1.9c.6 0 3.7 1 10-1.1S157.6 84 159 84c1.4 0 3.9 1.3 4.9 1.8 1.1.4 2.5 2.2 2.9 1.8-.2-1-.5-1.3-.5-1.3s.3.1 1.5-.4z"/><path fill="#C09882" d="M167.5 131c-7.7 10.5-8.2 22.4-10.8 28.1-2.6 5.7-11.3 13.3-11.3 13.3 5.5-3 9.2-6.5 11.7-10 3.1-4.4 4.2-8.8 4.4-12 .3-5.7 6-19.4 6-19.4z"/><path fill="#226768" d="M155.6 234.8c.1-8 .1-14.8.1-19 0-3 0-6.2.2-9.5-2-.4-3.9-.7-5.6-1.1-3 2.5-6.4 6.6-10.2 13.1-1.1 5.8-1.8 12.1-2.1 17.8 5.5-.4 11.8-.9 17.6-1.3zm62.8-48.4c1.9-.5 4-.6 6.2-.5.5-4.6 1.1-8.7 1.6-11.9h-.1c-5.7-2-14.1-2.3-22.2-3.6-.2 5.4-.4 12.7-.9 20.5 4.9-1.6 10.2-3.2 15.4-4.5zm-80.2 63.9c0 1.7-.1 3.5-.3 5.4 6-.5 11.8-1.3 17.5-2.6 0-1.1 0-2.2.1-3.3-6.2.3-12.4.4-17.3.5zm85.2-51.8c-6.5.1-14.1 2-21.3 4.2 0 .4-.1.8-.1 1.2-.4 4.6-.7 12.3-.8 21.5.8-.3 1.6-.5 2.3-.7 3.1-.8 7.5-2.1 12-3.4 2.6-2.4 5.1-5 7.5-7.6v-2.1c0-4.2.1-8.7.4-13.1zm-35.3 10.2v-1.4c-.9.3-1.7.6-2.5.8-1 .3-2.3.5-3.7.6-1.1 9.7-2.3 17.9-2.3 17.9l-.2-.2v.2c-3.9-4.2-7.7-9.5-10.1-13.1-.3 5-.5 12.2-.6 20.6h3.9c3.7.2 9.5-1.6 15.4-3.8.2-9.1.2-16.9.1-21.6zm-3.9-27.4c0 3.7-.4 9-.9 14.7h.2c1.2.1 3-.2 5-.7.6-10.4 1.9-21.2 2.8-28.1-2.7-.9-5.3-1.8-7.6-2.5.6 5.8.5 11.6.5 16.6zm-15.4 68.1c.9-.3 1.7-.6 2.6-.9-.8.1-1.7.2-2.6.3v.6zm-23.7-45.2c-.8 1.2-1.6 2.5-2.3 3.9.7-1.2 1.4-2.6 2.3-3.9z"/><path fill="#3C8988" d="M230.9 186.6c.5-3.9 1-7.2 1.3-9.6-1.7-1.1-3.7-2.2-6.1-3-.5 3.2-1.1 7.3-1.6 11.9 2.1 0 4.3.3 6.4.7zm6.9 1.6c.1-2 .2-3.9.4-5.8v-.2s-1.4-1.9-4.2-4c-.3 2.3-.8 5.3-1.2 8.8 1.6.3 3.3.7 5 1.2zm-12 10.3h-2.4c-.3 4.4-.5 8.9-.4 13.1v2.1c2-2.3 4-4.6 5.9-7 .2-2.7.4-5.2.6-7.7-1.2-.2-2.5-.4-3.7-.5zm5.6.9c-.1 1.5-.3 3-.4 4.6 1-1.3 1.9-2.6 2.8-3.9-.8-.3-1.6-.5-2.4-.7zm-35.9 28.1c2.1-.8 4.1-1.5 5.8-2.1.1-9.2.3-16.9.8-21.5 0-.4.1-.8.1-1.2-2 .6-4 1.3-6 1.9-.4 7.5-.7 15.3-.7 22.9zm-7.4-18.8c.1 4.7 0 12.5-.1 21.6 1.9-.7 3.8-1.4 5.6-2.1 0-7.6.3-15.5.7-23-2.2.7-4.3 1.4-6.2 2.1v1.4zm6.9-15.3c.7-10.2 1.4-19 2-24.5-.9-.2-1.8-.5-2.6-.8-1-.3-2-.7-3-1-.9 6.9-2.2 17.7-2.8 28.1 1.8-.4 4-1 6.4-1.8zm8-2.5c.5-7.7.7-15.1.9-20.5-1.7-.3-3.5-.6-5.1-1-.5 5.3-1.2 13.7-1.9 23.4 1.9-.6 4-1.2 6.1-1.9zm-36.2 18.6l.2-.2c-.1-.2-.2-.7-.5-1.3-1.2-.1-2.3-.3-3.5-.5-.3 7.5-.6 15.3-.6 22.7v4.2c2.5-.1 4.7-.2 6.5-.3.1-8.4.3-15.6.6-20.6-1.7-2.4-2.7-4-2.7-4zm-11.4 40.3c0 1.1 0 2.2-.1 3.3 1.7-.4 3.4-.8 5.2-1.2v-2.3c-1.7 0-3.4.1-5.1.2zm7-.4v1.9c2.2-.6 4.3-1.3 6.4-2v-.6c-2 .3-4.2.5-6.4.7zm-6.5-43.1c-.1 3.3-.2 6.5-.2 9.5.1 4.2 0 11-.1 19 1.7-.1 3.3-.2 4.9-.3v-4.3c0-7.6.2-15.4.6-23-1.8-.3-3.6-.6-5.2-.9z"/><path fill="#378280" d="M137.9 236.2c-.2 4.2-.1 8.1.2 11.2.1.9.1 1.9.1 2.9 4.9 0 11.1-.2 17.2-.5l5.1-.3v-15c-1.6.1-3.2.2-4.9.3-5.8.4-12.1.9-17.7 1.4zm63.4-10.8c-1.7.6-3.7 1.3-5.8 2.1v9.3c7.2-4.5 14-9.7 20.1-15.5-4.5 1.3-8.9 2.6-12 3.4-.7.2-1.5.4-2.3.7zm-7.7 2.8c-1.8.7-3.7 1.4-5.6 2.1-5.8 2.2-11.7 4-15.4 3.8-.9-.1-2.2-.1-3.9 0-1.8 0-4 .2-6.5.3v15c2.2-.2 4.4-.4 6.4-.6.9-.1 1.7-.2 2.6-.3 7.8-2.8 15.3-6.4 22.3-10.6v-7.7c.1-.6.1-1.3.1-2zM183.5 196h-.2c-.4 4.2-.9 8.7-1.3 12.8 1.4-.1 2.7-.3 3.7-.6.8-.2 1.6-.5 2.5-.8 1.9-.6 4-1.3 6.2-2.1.2-4.1.4-8 .7-11.8-2.4.8-4.6 1.4-6.5 1.8-2.1.5-3.9.7-5.1.7zm34.9-9.6c-5.2 1.3-10.5 2.9-15.4 4.5-2.1.7-4.2 1.4-6.1 2-.2 3.8-.5 7.7-.7 11.8 1.9-.6 3.9-1.3 6-1.9 7.2-2.2 14.8-4.1 21.3-4.2h2.4c1.2.1 2.4.2 3.8.5.4-4.6.9-8.8 1.3-12.4-2.2-.4-4.3-.7-6.3-.7-2.3-.2-4.4-.1-6.3.4zm-64.6 10.2c.8-.4 1.7-.9 2.6-1.2-.1-.1-1.1.3-2.6 1.2zm-5.6 4c.1-.1.2-.2.4-.3-.1.1-.3.2-.4.3zm-.2.2c-1 1-2 2.1-2.9 3.4h.1c.8-1.1 1.7-2.3 2.8-3.4zm84.8-13.9c-.5 3.6-.9 7.8-1.3 12.5l2.4.6c1.3-1.8 2.5-3.7 3.6-5.6.1-2.1.2-4.2.3-6.2-1.7-.5-3.4-.9-5-1.3zm-82.6 18.4c1.7.3 3.6.7 5.6 1.1 1.7.3 3.4.6 5.2.9l.3-5.4c-2.2-.7-6-.9-11.1 3.4zm13-2.5c-.1 1.6-.2 3.1-.2 4.7 1.2.2 2.3.3 3.5.5-.7-1.6-1.8-3.9-3.3-5.2z"/><path fill="#226768" d="M232.8 186.9c.4-3.5.9-6.4 1.2-8.8-.5-.4-1.1-.8-1.7-1.2-.4 2.4-.8 5.7-1.3 9.6-.5 3.6-.9 7.8-1.3 12.4-.2 2.4-.4 5-.6 7.7l2.1-2.7c.1-1.6.3-3.1.4-4.6.2-4.5.7-8.7 1.2-12.4zm-37.3 40.6c.1-7.6.3-15.4.7-22.9.2-4.1.4-8 .7-11.8.6-9.7 1.4-18.1 1.9-23.4-.6-.1-1.2-.3-1.8-.4-.5 5.5-1.3 14.3-2 24.5-.2 3.8-.5 7.7-.7 11.8-.4 7.5-.6 15.4-.7 23v9.7c.6-.4 1.2-.8 1.9-1.1v-9.4zm-33.1 6.9v-4.2c0-7.5.2-15.2.6-22.7.1-1.6.2-3.2.2-4.7-.5-.5-1.1-.8-1.8-1l-.3 5.4c-.4 7.6-.6 15.4-.6 23v21.6c.6-.2 1.2-.3 1.9-.5v-16.9z"/><path fill="#2A6D6A" d="M184 181.3c0 12.5-4.1 42.4-4.5 45.1l.2.2s1.1-8.1 2.3-17.9c.5-4.1 1-8.6 1.3-12.8.5-5.7.9-10.9.9-14.7 0-5 .1-10.7-.5-16.6-.9-9.7-3.4-19.7-10.5-26.8v.2c11.2 11.6 10.8 30.3 10.8 43.3zm-26.9 13.9c-.3 0-.6.1-.8.1h-.1c.4 0 .7-.1.9-.1z"/><path fill="#2A6D6A" d="M171 146.3c.1.1.1.2.2.3 1.3 2.5 3.3 12 .6 21.2-.2.8-.5 1.5-.7 2.3-2.8 9-7.3 19-15 25.2h.3c.2 0 .4-.1.8-.1 16.6-3.3 18.7 7.2 9.9 14.3v-.2l-.2.2s1 1.6 2.6 4.1c2.4 3.6 6.2 8.9 10.1 13.1v-.2c.4-2.7 4.5-32.6 4.5-45.1 0-13 .4-31.7-10.9-43.2l-.2-.2c-.1-.1-1.2 4.7-2 8.3z"/><path fill="#1B5653" d="M166.5 208c.3.6.4 1.1.5 1.3v.2c8.9-7.1 6.8-17.6-9.9-14.3-.3.1-.5.1-.8.2-.9.4-1.8.8-2.6 1.2-2 1.1-3.7 2.4-5.2 3.7-.1.1-.2.2-.4.3l-.2.2c-1.1 1.1-2 2.2-2.9 3.4-.9 1.3-1.7 2.6-2.3 3.9-2.6 5.5-2.8 10.3-2.8 10.3 3.8-6.5 7.2-10.6 10.2-13.1 5-4.3 8.8-4 11.1-3.5.7.2 1.3.5 1.8 1 1.7 1.3 2.8 3.6 3.5 5.2z"/><path fill="#003838" d="M84.2 167.8c.2.8.5 1.5.7 2.3.7-3.6 1.9-10.5 1.7-13.7-.1-1.9-.9-5.8-1.8-9.8-1.2 2.5-3.3 12-.6 21.2z"/><path fill="#1E5A58" d="M17.8 182.5c-1.3-.4-3.8-1-5.6.1 1.9 4.1 4 8 6.4 11.9-.1-2.1-.2-4.2-.3-6.2-.2-2.1-.3-4-.5-5.8z"/><path fill="#B17D6B" d="M128 184.2v-7.4s-10.6 1.4-16.8-3.9c-.2-.2-.4-.3-.6-.5-5.5-3-9.2-6.5-11.7-10-2.9-2.7-5.3-5.2-6.5-7.3-2.3-4-7.5-12.2-10.1-19.5 0 0 .2.9.6 2.4l.2-.2s1.1 4.9 1.9 8.5c-.1.1-.1.2-.2.3.9 3.9 1.6 7.9 1.8 9.8.2 3.2-1 10.2-1.7 13.7 2.8 9 7.3 19 15 25.2h-.3.1s1 .4 2.6 1.2c2 1.1 3.7 2.4 5.2 3.7.1.1.2.2.4.3l.2.2c1 1 2 2.1 2.9 3.4.8 1.2 1.6 2.5 2.3 3.9 2.6 5.5 2.8 10.3 2.8 10.3 1.1 5.8 1.8 12.1 2.1 17.8.2 4.2.1 8.1-.2 11.2-.1.9-.1 1.9-.1 2.9 0 1.7.1 3.5.3 5.4 3.3.2 6.6.4 9.9.4v-71.8zM76.7 98.9c-.7-3.6-1.4-4.8-1.6-7.4-.2-2.6-3.9-6.9-3.9-6.9v-1.4c-4.4 2.4-2.3 5.7-2.5 13.7s1.2 15.3 1.2 17.2c0 1.9 3 12.9 8.6 7.2l.9-.6c-1-6.2-2-13.7-2.4-21-.3-.4-.3-.6-.3-.8z"/><path fill="#C08C76" d="M92.4 155.2c1.2 2 3.6 4.6 6.5 7.3-3.1-4.4-4.2-8.8-4.4-12-.3-5.7-6-19.5-6-19.5 7.7 10.5 8.2 22.4 10.8 28.1 2.6 5.7 11.3 13.3 11.3 13.3.2.2.4.3.6.5 6.3 5.3 16.8 3.9 16.8 3.9V17.4c-2 0-2.9-1.2-4.2-1.6-1.6-.4.2 3.3-4.7 0-1.6-1-3.2.1-5.3.8s-4 1.7-8.2 4.5c-4.2 2.8-9 5.3-10.4 7.2-1.4 1.9-6 6.5-10 10.5-3.9 4.1-1.2 1.9-3.7 7.7-2.5 5.7-1.9 8.1-1.9 12V65c0 3.6.4 2.9-1.5 9.1-1.8 6.2-.4 4.1.5 8.7s0 3-.5 5.9-.9 13.9-.9 13.9l-.6-2.9c.4 7.3 1.4 14.8 2.4 21 .7 4.4 1.4 8.1 1.9 10.6.3 1.4.7 2.9 1.3 4.4 2.7 7.3 7.9 15.5 10.2 19.5zm-1.5-71.1c1.9-1.3 4.6-3.2 9.9-2.9 5.3.3 6.5.8 8.6 1.5 2.2.7 7.3 2.8 9.4 2.8 2.2 0 1.7 1.9 1.7 1.9-.6 0-3.7 1-10-1.1s-12.2-2.2-13.6-2.2c-1.4 0-3.9 1.3-4.9 1.8-1.1.4-2.5 2.2-2.9 1.8.2-1 .5-1.3.5-1.3s-.1.2-1.4-.3c.3-.8.9-.8 2.7-2z"/><path fill="#7C706A" d="M75 91.5c.2 2.6 1 3.8 1.6 7.4 0 .2.1.4.1.7l.6 2.9s.5-11 .9-13.9 1.4-1.3.5-5.9c-.9-4.6-2.4-2.5-.5-8.7 1.8-6.2 1.5-5.5 1.5-9.1v-6.5c0-3.8-.7-6.2 1.9-12 2.5-5.7-.2-3.6 3.7-7.7 3.9-4.1 8.6-8.6 10-10.5 1.4-1.9 6.2-4.4 10.4-7.2s6.1-3.8 8.2-4.5 3.7-1.8 5.3-.8c4.9 3.3 3.1-.4 4.7 0 1.4.4 2.2 1.6 4.2 1.6V8.4l-8.5 2.9 1.6-2.9s-7.6 4.6-8.3 5c-.7.5-1.6 0-1.6 0s-3.4.2-6.6 3.6-1.3-2.4-1.3-2.4l-4.2 6s-2.1 1-3.5 1.9c-1.4 1-5.3 4.1-6 5.3-.8 1.2-9.8 9.8-10.7 12.4-.9 2.6-4.9 14.6-4.9 16.3s-1.9 15.1-1.9 15.1l1.9-2.4s-1.4 4.8-1.9 6c-.2.5-.5 2.2-.7 3.8-.3 1.9-.5 3.7-.5 3.7v1.8c.1 0 3.8 4.3 4 7z"/><path fill="#856254" d="M89.5 86.3s-.3.4-.5 1.3c.5.4 1.9-1.3 2.9-1.8 1.1-.4 3.6-1.8 4.9-1.8 1.4 0 7.3.2 13.6 2.2 6.3 2.1 9.4 1.1 10 1.1 0 0 .5-1.9-1.7-1.9s-7.3-2.1-9.4-2.8c-2.2-.7-3.4-1.2-8.6-1.5-5.3-.3-8 1.6-9.9 2.9-1.9 1.3-2.5 1.3-2.8 1.9 1.4.5 1.5.4 1.5.4z"/><path fill="#A48270" d="M99.3 159.1c-2.6-5.7-3.1-17.6-10.8-28.1 0 0 5.7 13.7 6 19.5.2 3.2 1.3 7.6 4.4 12 2.5 3.5 6.2 6.9 11.7 10 0-.1-8.7-7.7-11.3-13.4z"/><path fill="#195859" d="M37.6 186.4c5.2 1.3 10.5 2.9 15.4 4.5-.5-7.7-.7-15.1-.9-20.5-8.1 1.2-16.5 1.5-22.2 3.6h-.1c.5 3.2 1.1 7.3 1.6 11.9 2.2-.1 4.3 0 6.2.5zm38.9 40.2v-.2l-.2.2s-1.1-8.1-2.3-17.9c-1.4-.1-2.7-.3-3.7-.6-.8-.2-1.6-.5-2.5-.8v1.4c-.1 4.7 0 12.5.1 21.6 5.8 2.2 11.7 4 15.4 3.8.9-.1 2.2-.1 3.9 0-.1-8.4-.3-15.6-.6-20.6-2.4 3.6-6.2 8.9-10.1 13.1zm8.2 21.9c.8.3 1.7.6 2.6.9v-.6c-1-.1-1.8-.2-2.6-.3zM72.5 196h.2c-.5-5.7-.9-10.9-.9-14.7 0-5-.1-10.7.5-16.6-2.3.8-4.9 1.6-7.6 2.5.9 6.9 2.2 17.7 2.8 28.1 2 .5 3.8.7 5 .7zm-17.8 29.4c-.1-9.2-.3-16.9-.8-21.5 0-.4-.1-.8-.1-1.2-7.2-2.2-14.8-4.1-21.3-4.2.3 4.4.5 8.9.4 13.1v2.1c2.4 2.6 4.9 5.2 7.5 7.6 4.5 1.3 8.9 2.6 12 3.4.7.2 1.5.4 2.3.7zm45.9 24.4c0 1.1 0 2.2.1 3.3 5.7 1.2 11.5 2.1 17.5 2.6-.2-1.9-.3-3.7-.3-5.4-5-.1-11.2-.2-17.3-.5zm5.2-44.5c-1.7.3-3.6.7-5.6 1.1.1 3.3.2 6.5.2 9.5-.1 4.2 0 11 .1 19 5.8.4 12.2.9 17.7 1.4-.3-5.6-.9-11.9-2.1-17.8-3.9-6.6-7.3-10.7-10.3-13.2zm7.4 2.9c-.6-1.4-1.4-2.8-2.3-3.9h-.1c1 1.2 1.7 2.6 2.4 3.9z"/><path fill="#378280" d="M22.2 200c.9 1.3 1.8 2.6 2.8 3.9-.1-1.6-.3-3.1-.4-4.6-.8.3-1.6.5-2.4.7zm10.4-1.5h-2.4c-1.2.1-2.4.2-3.8.5.2 2.4.4 5 .6 7.7 1.9 2.4 3.8 4.8 5.9 7v-2.1c.1-4.2 0-8.7-.3-13.1zm-1.2-12.6c-.5-4.6-1.1-8.7-1.6-11.9-2.4.9-4.4 1.9-6.1 3 .4 2.4.8 5.7 1.3 9.6 2.2-.4 4.4-.7 6.4-.7zm-8.2 1c-.4-3.5-.9-6.4-1.2-8.8-2.8 2.1-4.2 4-4.2 4v.2c.1 1.9.3 3.8.4 5.8 1.7-.4 3.4-.8 5-1.2zm44.7 21.8v-1.4c-1.9-.6-4-1.3-6.2-2.1.4 7.5.6 15.4.7 23 1.8.7 3.7 1.4 5.6 2.1-.2-9.1-.2-16.9-.1-21.6zm-8.8-15.9c-.6-9.7-1.4-18.1-1.9-23.4-1.7.4-3.4.7-5.1 1 .2 5.4.4 12.7.9 20.5 2.1.7 4.2 1.3 6.1 1.9zM54 204c.4 4.6.7 12.3.8 21.5 1.7.6 3.7 1.3 5.8 2.1-.1-7.6-.3-15.4-.7-22.9-1.9-.6-3.9-1.3-6-1.9 0 .3 0 .7.1 1.2zm13.5-8.7c-.6-10.4-1.9-21.2-2.8-28.1-1 .3-2 .7-3 1-.9.3-1.7.5-2.6.8.5 5.5 1.3 14.3 2 24.5 2.3.7 4.5 1.3 6.4 1.8zm28 54.2v2.3c1.7.4 3.4.9 5.2 1.2 0-1.1 0-2.2-.1-3.3-1.7 0-3.4-.1-5.1-.2zM89 209.3l.2.2s-1 1.6-2.6 4.1c.3 5 .5 12.2.6 20.6 1.8 0 4 .2 6.5.3v-4.2c0-7.5-.2-15.2-.6-22.7-1.2.2-2.3.3-3.5.5-.3.5-.5 1-.6 1.2zm11.3 6.5c0-3 0-6.2-.2-9.5-1.7.3-3.4.6-5.2.9.4 7.6.6 15.4.6 23v4.3c1.6.1 3.2.2 4.9.3-.1-8-.2-14.8-.1-19zm-13.1 33v.6c2.1.7 4.3 1.4 6.4 2v-1.9c-2.2-.3-4.4-.5-6.4-.7z"/><path fill="#2E7370" d="M100.4 234.8c-1.7-.1-3.3-.2-4.9-.3v15l5.1.3c6.1.3 12.3.4 17.2.5 0-1 0-2 .1-2.9.3-3.1.4-6.9.2-11.2-5.6-.5-11.9-1-17.7-1.4zm-39.9-7.3c-2.1-.8-4.1-1.5-5.8-2.1-.8-.3-1.6-.5-2.3-.7-3.1-.8-7.5-2.1-12-3.4 6.2 5.8 12.9 11 20.1 15.5v-9.3zm33.1 21.9v-15c-2.5-.1-4.7-.2-6.5-.3h-3.9c-3.7.2-9.5-1.6-15.4-3.8-1.9-.7-3.8-1.4-5.6-2.1v9.7c7 4.2 14.5 7.8 22.3 10.6.8.1 1.7.2 2.6.3 2.1.2 4.3.4 6.5.6zm-23.3-41.3c1 .3 2.3.5 3.7.6-.5-4.1-1-8.6-1.3-12.8h-.2c-1.2.1-3-.2-5-.7-1.9-.5-4.1-1.1-6.5-1.8.2 3.8.5 7.7.7 11.8 2.2.7 4.3 1.4 6.2 2.1.8.3 1.7.6 2.4.8zm-32.7-21.7c-1.9-.5-4-.6-6.2-.5-2 .1-4.1.3-6.3.7.5 3.6.9 7.8 1.3 12.4 1.3-.3 2.6-.4 3.8-.5h2.4c6.5.1 14.1 2 21.3 4.2 2 .6 4 1.3 6 1.9-.2-4.1-.4-8-.7-11.8-1.9-.6-4-1.3-6.1-2-5-1.5-10.3-3.1-15.5-4.4zm73.3 17.8c-.9-1.3-1.9-2.4-2.9-3.4 1.1 1.1 2 2.3 2.9 3.4zm-11.2-8.9c.9.4 1.8.8 2.6 1.2-1.6-.8-2.6-1.2-2.6-1.2zm7.7 5c.1.1.2.2.4.3-.1-.1-.3-.2-.4-.3zm-82.8-.9c-.4-4.6-.9-8.8-1.3-12.5-1.7.4-3.4.8-5 1.3.1 2 .2 4.1.3 6.2 1.2 1.9 2.4 3.8 3.6 5.6l2.4-.6zm64.9 8.6c1.2-.1 2.3-.3 3.5-.5-.1-1.6-.2-3.2-.2-4.7-1.5 1.3-2.6 3.6-3.3 5.2zm10.6-1.7c2-.4 3.9-.7 5.6-1.1-5-4.3-8.8-4-11.1-3.5l.3 5.4c1.8-.2 3.6-.5 5.2-.8z"/><path fill="#195859" d="M25.1 186.6c-.5-3.9-1-7.2-1.3-9.6-.6.4-1.2.8-1.7 1.2.3 2.3.8 5.3 1.2 8.8.5 3.6.9 7.8 1.3 12.5.1 1.5.3 3 .4 4.6l2.1 2.7c-.2-2.7-.4-5.2-.6-7.7-.5-4.7-1-8.9-1.4-12.5zm37.3 41.6c0-7.6-.3-15.5-.7-23-.2-4.1-.4-8-.7-11.8-.7-10.2-1.4-19-2-24.5-.6.2-1.2.3-1.8.4.5 5.3 1.2 13.7 1.9 23.4.2 3.8.5 7.7.7 11.8.4 7.5.7 15.3.7 22.9v9.3c.6.4 1.2.8 1.9 1.1v-9.6zm33.1 6.3v-4.3c0-7.6-.2-15.4-.6-23l-.3-5.4c-.7.2-1.3.5-1.8 1 .1 1.6.2 3.1.2 4.7.3 7.5.6 15.3.6 22.7v21.1c.6.2 1.2.3 1.9.5v-17.3z"/><path fill="#2A6D6A" d="M71.8 181.3c0 3.7.4 9 .9 14.7.4 4.2.9 8.7 1.3 12.8 1.1 9.7 2.3 17.9 2.3 17.9l.2-.2c-.4-2.7-4.5-32.6-4.5-45.1 0-13-.4-31.7 10.9-43.2v-.2c-7.1 7.1-9.6 17.1-10.5 26.8-.7 5.7-.6 11.5-.6 16.5zm27.1 13.9c.3.1.5.1.8.2h-.1c-.2-.1-.4-.2-.7-.2z"/><path fill="#1E5A58" d="M72 181.3c0 12.5 4.1 42.4 4.5 45.1v.2c3.9-4.2 7.7-9.5 10.1-13.1 1.6-2.4 2.6-4.1 2.6-4.1l-.2-.2v.2c-8.9-7.1-6.8-17.6 9.9-14.3.3 0 .6.1.8.1h.3C92.3 189 87.8 179 85 170c-.2-.8-.5-1.6-.7-2.3-2.7-9.2-.6-18.7.6-21.2.1-.1.1-.2.2-.3-.8-3.6-1.9-8.5-1.9-8.5l-.2.2c-11.4 11.7-11 30.4-11 43.4z"/><path fill="#0E4644" d="M98.9 195.2c-16.6-3.3-18.7 7.2-9.9 14.3v-.2c.1-.2.2-.7.5-1.3.6-1.5 1.7-3.9 3.3-5.2.5-.5 1.1-.8 1.8-1 2.3-.5 6.1-.8 11.1 3.5 3 2.5 6.4 6.6 10.2 13.1 0 0-.2-4.8-2.8-10.3-.6-1.3-1.4-2.6-2.3-3.9-.8-1.2-1.8-2.3-2.9-3.4l-.2-.2c-.1-.1-.2-.2-.4-.3-1.5-1.4-3.2-2.6-5.2-3.7-.8-.4-1.7-.9-2.6-1.2-.1-.1-.4-.2-.6-.2z"/></svg>