<svg xmlns="http://www.w3.org/2000/svg" width="256" height="256"><circle fill="#B1B3B5" cx="128" cy="128" r="128"/><path fill="#272827" d="M187.7 142.4c-1.1 6.9-1.9 12.1-2.1 12.4-.6.6-3.6 2.5-5.9 3.2l.1.1s-1.6.6-3.2.6c-7.7 12.8-48.6 9.4-48.6 9.4v75.7s43.6-8.1 53.8-52.8c-2-1.6-4.9-4.6-4.6-7.8.4-4.9 4.4-22.2 4.4-22.2l3.6-2.6 3.1-15.7h-.7l.1-.3z"/><path fill="#433830" d="M211.7 102.8c.3.1.5.1.8.1-.2-.1-.5-.1-.8-.1z"/><path fill="#433830" d="M193.7 115.3c-.8 2.1-1.6 4-2 4.6-.2.4-.3.3 0-.4.2-.5.2-1.2.3-2-.6 2.8-1.2 5.8-1.7 8.9l-2.6 15.9v.2h.7c9.5-.2 16.6-12 19.5-17.2 3-5.3 5.6-13 4.7-15.7s0-6.8 0-6.8-12.4.9-18.9 12.5z"/><path fill="#4C4038" d="M145.4 19.2c.9.9 1.3 1.6 1.3 1.6-.2-.6-.6-1.1-1.3-1.6zm31.2 139.5c-1.4 0-2.8-.5-2.8-2.6 0-4.2 5.6-22.5 7.8-28.9 2.2-6.4 4.2-13.1 2.9-18.5 0-3.2.5-7.6.3-9.3 0 0-3-19.3-4-21.2-1-1.9-.6-19-4.1-22.1s-6.5-8.6-9.1-9.9S156.5 35.3 150 35c0 0-6.4 1.9-5.9-4.1 0-2.9 3.4-6.7 2.6-10.1-4.9-4.2-18.7-3.4-18.7-3.4v150.7s40.8 3.4 48.6-9.4zm-38.1-92.2c5.6-3.1 11.8-5.6 18.9-5.6s16.9 8.4 16.9 8.4h-3.1l3.1 6c-3.1-3.3-10.7-6.9-16.2-8.9-5.6-2-16.7 5.6-18 5.8-1.3.2-1.6-1.8-1.6-1.8h-2.2l2.2-3.9z"/><path fill="#53565B" d="M162.2 25.9c.8 1.7 8.8 4.9 9.4 7.4l-3.5 1.9-1.3.9s-6.5-6.7-10.7-4c-4.1 2.7 4.9 4.7 5.8 5.9.9 1.2 1.6 4 3.6 4.9 1.9.9 5.3 1.5 5.3 1.5s3.9-1.6 4.7-3.7c0 0-1.3 4.3-3.9 5.9 0 0 1.9 4.9 3.9 5.5 1.9.6 4.6 7 5 8.9.4 1.9.7 14.2 1.6 15.4.9 1.2 2.4 4.7 2.7 7.3.3 2.5.7 4.4 2.5 4.9s3.4-3.4 3.4-3.4-1.2 6.4-2.5 8.3-3.6 6.1-3.6 6.1c.2 1.6-.3 6-.3 9.3 0 0 2.9 3.8 1.6 10.2-1.3 6.4-11.3 33.3-9.3 35.8 1.7 2 2.7 3 3 3.2 2.4-.8 5.4-2.6 5.9-3.2.3-.3 1-5.5 2.1-12.4.7-4.8 1.6-10.5 2.6-15.9.6-3.1 1.1-6.2 1.7-8.9.3-4.6-.9-13.3-1.2-15.9-.3-3 3.6-9.7 3.6-9.7v8.9s4.6-5.9 8.9-6.2c1.5-.1 2.3.4 2.8 1.2-.2-9.3-1.2-26.8-5.4-33-1.6 1.6-10.7 10.7-11.4 16.5l-3.5-2.4s.7-6.3 2-8l6.7-6.8s-.9-9.2-2.7-12.7l-6 6.2-6 .4 6.4-7.8s-8.9-21.9-10.7-23.1c-1.7-1.1-9.7-4.2-10.8-4.7-.4.2-3.1 3.7-2.4 5.3z"/><path fill="#53565B" d="M145.4 19.2c.7.5 1.2 1 1.3 1.6.8 3.4-2.5 7.2-2.6 10.1.1.3 1.2 3.3 4.4 2.2 2.6-.9 7.4-5 13.5-2.5-3.7-2.2-8.5-4.1-12.8-2.5 0 0 2.1-3.5 4-3.8s3.6-.5 4.3-1.8c.6-1.3 3.7-2.6 7-2.2-.1-.4-1.3-3.8-7.4-3.8 0 0-8.6-3-12.4-6.5 0 0-8.6-1.5-16.6-1.5v5c9.9-.1 15.1 3.6 17.3 5.7z"/><path fill="#877D74" d="M140 72.3c1.3-.2 12.4-7.8 18-5.8s13.1 5.6 16.2 8.9l-3.1-6h3.1s-9.8-8.4-16.9-8.4-13.3 2.4-18.9 5.6l-2.2 4h2.2c.1-.1.3 1.9 1.6 1.7z"/><path fill="#252524" d="M128 17.4s13.8-.8 18.7 3.4c0 0-.4-.6-1.3-1.6-2.2-2.2-7.4-5.9-17.4-5.9v4.1zM150 35c6.5.3 14.8 9.9 17.4 11.3s5.6 6.8 9.1 9.9 3.1 20.2 4.1 22.1c1 1.9 4 21.2 4 21.2s2.2-4.2 3.6-6.1 2.5-8.3 2.5-8.3-1.6 3.9-3.4 3.4-2.2-2.4-2.5-4.9c-.3-2.5-1.8-6.1-2.7-7.3-.9-1.2-1.2-13.5-1.6-15.4-.4-1.9-3.1-8.3-5-8.9-1.9-.6-3.9-5.5-3.9-5.5 2.5-1.6 3.9-5.9 3.9-5.9-.9 2.1-4.7 3.7-4.7 3.7s-3.4-.6-5.3-1.5-2.7-3.7-3.6-4.9c-.9-1.2-9.9-3.3-5.8-5.9 4.2-2.7 10.7 4 10.7 4l1.3-.9s-2.5-2.5-6.1-4.6c-6.1-2.4-10.9 1.6-13.5 2.5-3.2 1.1-4.3-1.9-4.4-2.2-.5 6.1 5.9 4.2 5.9 4.2zm31.5 92.2c-2.2 6.4-7.8 24.7-7.8 28.9 0 2 1.4 2.6 2.8 2.6 1.5 0 3.2-.6 3.2-.6l-.1-.1c-.3-.3-1.3-1.2-3-3.2-2-2.4 8-29.3 9.3-35.8 1.3-6.4-1.6-10.2-1.6-10.2 1.4 5.3-.6 12-2.8 18.4z"/><path fill="#676A6F" d="M157.4 22.4c-.6 1.3-2.3 1.4-4.3 1.8s-4 3.8-4 3.8c4.3-1.5 9.1.3 12.8 2.5 3.6 2.1 6.1 4.6 6.1 4.6l3.5-1.9c-.6-2.5-8.7-5.7-9.4-7.4-.7-1.6 2-5.1 2.4-5.6l.1-.1h-.2c-3.2-.4-6.3 1-7 2.3zm22.3 33.4l6-.4 6-6.2c-2-1.2-5.6-1.2-5.6-1.2l-6.4 7.8zm6 21l3.5 2.4c.8-5.8 9.8-15 11.4-16.5.2-.1.2-.2.2-.2-3.1-1.6-6.5-.5-6.5-.5l-6.7 6.8c-1.2 1.7-1.9 8-1.9 8z"/><path fill="#2D241D" d="M191.7 119.9zm3.7-11.1c0 1.6-.8 4.3-1.6 6.6 6.4-11.6 18.8-12.4 18.8-12.4-.3 0-.5-.1-.8-.1-3.7-.8-5.1-3.3-5.1-3.3-3.7-3.1-11.3 9.2-11.3 9.2z"/><path fill="#676A6F" d="M203.2 94.6c-4.3.3-8.9 6.2-8.9 6.2v-8.9s-3.9 6.7-3.6 9.7c.3 2.6 1.5 11.3 1.2 15.9 0 .8-.1 1.5-.3 2-.2.7-.2.8 0 .4.4-.6 1.2-2.5 2-4.6.9-2.3 1.6-4.9 1.6-6.6 0 0 7.6-12.2 11.3-9.3 0 0 .4-2.3-.6-3.7-.3-.7-1.2-1.2-2.7-1.1z"/><path fill="#53565B" d="M198.9 201.7c-2.1-1-3.7-1.7-4.5-2.1-7.3-3.4-11.7-12.7-11.7-12.7-.2 1.4-.5 2.7-.8 4.1-10.2 44.6-53.8 52.8-53.8 52.8V256c31.4 0 60.2-11.3 82.5-30.1-1.9-3.5-3.9-7.3-5.6-10.9-2.1-3.9-4.1-8.3-6.1-13.3z"/><path fill="#988971" d="M216 220.9c4.3-4 8.3-8.4 11.9-13l-21.7-9.6c.1.1 5.6 12.3 9.8 22.6zm-17.2-19.4c0 .1.1.2.1.3 2 4.9 4.1 9.4 6 13.2-3.5-7.3-6.1-13.5-6.1-13.5z"/><path fill="#867A64" d="M206.3 198.4l-7.6 3.1s2.6 6.2 6.1 13.5c1.7 3.6 3.7 7.4 5.6 10.9 1.9-1.6 3.8-3.3 5.6-5-4.2-10.3-9.7-22.5-9.7-22.5z"/><path fill="#1E1F1D" d="M128 243.8v-75.7s-40.8 3.3-48.6-9.4c-1.5 0-3.2-.6-3.2-.6l.1-.1c-2.4-.8-5.4-2.6-5.9-3.2-.3-.3-1-5.5-2.1-12.4v.2h-.7l3.1 15.7 3.6 2.6s4 17.3 4.4 22.2c.3 3.2-2.6 6.1-4.6 7.8 10.3 44.7 53.9 52.9 53.9 52.9z"/><path fill="#392F28" d="M43.5 102.9c.3 0 .5-.1.8-.1-.3 0-.6 0-.8.1zm24.8 39.5l-2.6-15.9c-.6-3.1-1.1-6.2-1.7-8.9 0 .8.1 1.5.3 2 .2.7.2.8 0 .4-.4-.6-1.2-2.5-2-4.6-6.4-11.6-18.8-12.4-18.8-12.4s.9 4.1 0 6.8 1.8 10.4 4.7 15.7c2.9 5.2 10 16.9 19.5 17.2h.7l-.1-.3z"/><path fill="#433830" d="M128 17.4s-13.8-.8-18.7 3.4c-.8 3.4 2.5 7.2 2.6 10.1.4 6.1-5.9 4.1-5.9 4.1-6.5.3-14.8 9.9-17.4 11.3-2.6 1.3-5.6 6.8-9.1 9.9s-3.1 20.2-4.1 22.1c-1 1.9-4 21.2-4 21.2-.2 1.6.3 6 .3 9.3-1.3 5.3.7 12 2.9 18.5 2.2 6.4 7.8 24.7 7.8 28.9 0 2-1.4 2.6-2.8 2.6 7.7 12.8 48.6 9.4 48.6 9.4V17.4zm-46.3 52S91.5 61 98.6 61s13.3 2.4 18.9 5.6l2.2 4h-2.2s-.2 2-1.6 1.8c-1.3-.2-12.4-7.8-18-5.8s-13.1 5.6-16.2 8.9l3.1-6h-3.1z"/><path fill="#433830" d="M109.3 20.8s.4-.6 1.3-1.6c-.7.5-1.1 1-1.3 1.6z"/><path fill="#3E4145" d="M98.6 22.4c.6 1.3 2.3 1.4 4.3 1.8s4 3.8 4 3.8c-4.3-1.5-9.1.3-12.8 2.5 6.1-2.4 10.9 1.6 13.5 2.5 3.2 1.1 4.3-1.9 4.4-2.2 0-2.9-3.4-6.7-2.6-10.1.1-.5.6-1.1 1.3-1.6 2.2-2.2 7.4-5.9 17.4-5.9v-5c-8 0-16.6 1.5-16.6 1.5-3.9 3.6-12.4 6.5-12.4 6.5-6.1 0-7.3 3.4-7.4 3.8 3.1-.3 6.2 1.1 6.9 2.4z"/><path fill="#3E4145" d="M52.8 94.6c4.3.3 8.9 6.2 8.9 6.2v-8.9s3.9 6.7 3.6 9.7c-.3 2.6-1.5 11.3-1.2 15.9.6 2.8 1.2 5.8 1.7 8.9 1 5.4 1.9 11.1 2.6 15.9 1.1 6.9 1.8 12.1 2.1 12.4.6.6 3.6 2.5 5.9 3.2.3-.3 1.3-1.2 3-3.2 2-2.4-8-29.3-9.3-35.8-1.3-6.4 1.6-10.2 1.6-10.2 0-3.2-.5-7.6-.3-9.3 0 0-2.2-4.2-3.6-6.1S65.3 85 65.3 85s1.6 3.9 3.4 3.4 2.2-2.4 2.5-4.9c.3-2.5 1.8-6.1 2.7-7.3.9-1.2 1.2-13.5 1.6-15.4.4-1.9 3.1-8.3 5-8.9 1.9-.6 3.9-5.5 3.9-5.5-2.5-1.6-3.9-5.9-3.9-5.9.9 2.1 4.7 3.7 4.7 3.7s3.4-.6 5.3-1.5 2.7-3.7 3.6-4.9c.9-1.2 9.9-3.3 5.8-5.9s-10.7 4-10.7 4l-1.3-.9-3.5-1.9c.6-2.5 8.7-5.7 9.4-7.4.7-1.6-2-5.1-2.4-5.6-1.1.4-9.2 3.6-10.8 4.7-1.8 1.2-10.7 23.1-10.7 23.1l6.4 7.8-6-.4-6-6.2C62.5 52.8 61.6 62 61.6 62l6.7 6.8c1.3 1.7 2 8 2 8l-3.5 2.4c-.8-5.8-9.8-15-11.4-16.5-4.2 6.2-5.2 23.7-5.4 33 .4-.7 1.3-1.2 2.8-1.1z"/><path fill="#776D66" d="M97.9 66.5c5.6-2 16.7 5.6 18 5.8 1.3.2 1.6-1.8 1.6-1.8h2.2l-2.2-4C112 63.4 105.7 61 98.6 61s-16.9 8.4-16.9 8.4h3.1l-3.1 6c3.1-3.3 10.7-6.9 16.2-8.9z"/><path fill="#141312" d="M128 17.4v-4c-10 0-15.2 3.7-17.4 5.9-.9.9-1.3 1.6-1.3 1.6 4.9-4.3 18.7-3.5 18.7-3.5zM79.4 56.2c3.6-3.1 6.5-8.6 9.1-9.9 2.6-1.3 10.9-11 17.4-11.3 0 0 6.4 1.9 5.9-4.1-.1.3-1.2 3.3-4.4 2.2-2.6-.9-7.4-5-13.5-2.5-3.6 2.1-6.1 4.6-6.1 4.6l1.3.9s6.5-6.7 10.7-4-4.8 4.7-5.7 5.9c-.9 1.2-1.6 4-3.6 4.9s-5.3 1.5-5.3 1.5-3.9-1.6-4.7-3.7c0 0 1.3 4.3 3.9 5.9 0 0-1.9 4.9-3.9 5.5-1.9.6-4.6 7-5 8.9-.4 1.9-.7 14.2-1.6 15.4-.9 1.2-2.4 4.7-2.7 7.3-.3 2.5-.7 4.4-2.5 4.9s-3.4-3.4-3.4-3.4 1.2 6.4 2.5 8.3 3.6 6.1 3.6 6.1 3-19.3 4-21.2c.9-2 .5-19.1 4-22.2zm2.9 99.9c0-4.2-5.6-22.5-7.8-28.9-2.2-6.4-4.2-13.1-2.9-18.5 0 0-2.9 3.8-1.6 10.2 1.3 6.4 11.3 33.3 9.3 35.8-1.7 2-2.7 3-3 3.2l-.1.1s1.6.6 3.2.6c1.5.1 2.9-.4 2.9-2.5z"/><path fill="#53565B" d="M93.8 25.9c-.8 1.7-8.8 4.9-9.4 7.4l3.5 1.9s2.5-2.5 6.1-4.6c3.7-2.2 8.5-4.1 12.8-2.5 0 0-2.1-3.5-4-3.8s-3.6-.5-4.3-1.8c-.6-1.3-3.7-2.6-7-2.2h-.2l.1.1c.4.4 3.1 3.9 2.4 5.5zM76.3 55.8L69.9 48s-3.6 0-5.6 1.2l6 6.2 6 .4zm-9.5 23.5l3.5-2.4s-.7-6.3-2-8L61.6 62s-3.4-1-6.5.5l.2.2c1.6 1.6 10.7 10.7 11.5 16.6z"/><path fill="#271E17" d="M62.3 115.3c-.9-2.3-1.6-4.9-1.6-6.6 0 0-7.6-12.2-11.3-9.3 0 0-1.4 2.5-5.1 3.3-.3.1-.5.1-.8.1 0 .1 12.3.9 18.8 12.5zm2 4.6z"/><path fill="#53565B" d="M60.6 108.8c0 1.6.8 4.3 1.6 6.6.8 2.1 1.6 4 2 4.6.2.4.3.3 0-.4-.2-.5-.2-1.2-.3-2-.3-4.6.9-13.3 1.2-15.9.3-3-3.6-9.7-3.6-9.7v8.9s-4.6-5.9-8.9-6.2c-1.5-.1-2.3.4-2.8 1.2-1 1.5-.6 3.7-.6 3.7 3.8-3.1 11.4 9.2 11.4 9.2z"/><path fill="#3E4145" d="M128 243.8s-43.6-8.1-53.8-52.8c-.3-1.3-.6-2.7-.8-4.1 0 0-4.5 9.3-11.7 12.7-.8.4-2.4 1.1-4.5 2.1-2 4.9-4.1 9.4-6 13.2-1.7 3.6-3.7 7.4-5.6 10.9 22.3 18.8 51 30.1 82.5 30.1v-12.1z"/><path fill="#847963" d="M49.7 198.4L28 207.9c3.7 4.6 7.7 8.9 11.9 13 4.3-10.3 9.8-22.5 9.8-22.5zm1.5 16.6c1.9-3.9 3.9-8.3 6-13.2 0-.1.1-.2.1-.3-.1 0-2.7 6.2-6.1 13.5z"/><path fill="#685F4D" d="M57.2 201.5l-7.6-3.1s-5.5 12.2-9.7 22.6c1.8 1.7 3.7 3.4 5.6 5 1.9-3.5 3.9-7.3 5.6-10.9 3.5-7.4 6.1-13.6 6.1-13.6z"/></svg>