<svg xmlns="http://www.w3.org/2000/svg" width="256" height="256"><circle fill="#B1B3B5" cx="128" cy="128" r="128"/><path fill="#322C1E" d="M62.1 221.5c-22.3-35.1-17.9-47.7-14.9-58.3-7.3 3.2-20.3 10.4-23.9 21.9-1 3.2-2.5 6.5-4.3 10 21.3 34.5 58.4 58.1 101.2 60.7-.8-1.5-1.7-3-2.7-4.5-8.8-13.8-37.7-10.9-55.4-29.8z"/><path fill="#261F1B" d="M74.2 140.1l.4.6c0-.2 0-.4-.1-.5-.1-.1-.2-.1-.3-.1zm-11.6 23.6c-1.7-4 12.6-10.6 15.5-11.9-1.7-3.2-2.8-6.2-3.3-9.2-3 1.4-13.6 7.1-14.1 21.4-.3 10 3.8 22.8 11.6 32.5-.1-3.8-.9-8-1.2-11.1-.5-5.4-6.6-17.2-8.5-21.7z"/><path fill="#261F1B" d="M82 158l-.6-.9c-2.5.1-13.6.9-8.4 12.1 6.4 12.9 51.5 20.8 54.9 21.4v-12.7c-2.2 0-21.9-.1-28.2-2.6-6.6-2.6-13-10.6-17.7-17.3z"/><path fill="#322C1E" d="M127.9 190.5c-3.4-.6-48.6-8.5-54.9-21.4-5.2-11.1 5.9-12 8.4-12.1-1.2-1.8-2.3-3.6-3.2-5.3-2.9 1.3-17.2 7.9-15.5 11.9 1.9 4.5 8 16.3 8.5 21.7.3 3.1 1.1 7.3 1.2 11.1 5.2 6.5 12.1 11.6 20.5 13.5 19.5 4.5 33.2 16.1 35.1 17.7v-37.1z"/><path fill="#4E4535" d="M127.9 227.9v-.2c-1.8-1.6-15.6-13.2-35.1-17.7-8.4-1.9-15.3-7-20.5-13.5-7.8-9.7-11.9-22.5-11.6-32.5.5-14.3 11.1-20 14.1-21.4-.1-.7-.2-1.4-.3-2l-.4-.6c-1.5-.2-3.6-.7-4.7-2.4-.9-1.3-2.2-5.3-3.5-10.3-1.7 1.3-17.1 13.1-17.1 26.7 0 3.2-.7 6-1.6 9-3 10.7-7.5 23.2 14.9 58.3 17.8 18.8 46.7 16 55.4 29.7 1 1.5 1.9 3 2.7 4.5 2.6.2 5.1.2 7.7.2v-27.8z"/><path fill="#A37864" d="M69.4 137.7c1.1 1.6 3.2 2.2 4.7 2.4h.3c0-.2-.1-.5-.1-.7-.1-1.2-.2-2.6-.4-4-2.5-10.5-4.1-22.3-5-30.6-.3-.8-.6-1.7-.6-2.3v-4.2c-.2-2.6-.3-4.1-.3-4.1l.1-.6-1.6-3.6s0-.4.1-1c-1.6-1.4-3.5-1.9-4.7.9-2.8 6.2-.8 6.7.4 18.2.6 6.2 2.1 13.6 3.6 19.4 1.3 4.9 2.6 8.9 3.5 10.2z"/><path fill="#C08C76" d="M68.1 93.5l-.1.6s.1 1.5.3 4.1v-4.1l-.2-.6zm3.8 31.6s18.3 35.4 27.6 41.5c8.7 5.7 26.3 4.6 28.4 4.5v-43.2c-5.2 0-11.1 1.9-11.1 1.9l-2.8 2.4-3.6 1.9-4 1.4-2.6 2.4-2.2.5-4 4.6s-.2-3.8.4-6c.6-2.2 3.8-8.4 7.2-9.6 3.4-1.2 8.8-5.7 11.7-8.1 2.7-2.2 9.7.4 10.9.9V21.9c-8.4 0-5.7 0-19-3 0 0-2.7-1-3.7-.6-1.1.3-1.6-.6-2.7 1.3s-4 4.2-4 4.2-1.3.6-5 4.2c-3.7 3.5-5.3 4.8-6.4 7-1.1 2.2-5.3 7-6.9 8.9-1.6 1.9-3.7 7.3-3.7 9.3 0 1.9-2.9 14.7-2.9 14.7L73 79.1l-1.9 7.3-1.1 14.1.3 6.7s-.7-1.2-1.2-2.5c.9 8.3 2.5 20.1 5 30.6-.8-5-2.2-10.2-2.2-10.2zM86 75.3c2.4-2.6 11.1-6.7 19.1-4.5 8 2.2 11.7-1.6 11.7-1.6s-.8 7.7-3.4 8c-2.7.3-10.9-2.2-18.6 0-7.7 2.2-9.5 6.1-9.5 6.1s-1.7-5.5.7-8z"/><path fill="#695B49" d="M128.1 7.9s-.1 0 0 0c-.1 0 0 0 0 0zm-60 85.6l.3.6v8.3c0 .6.3 1.5.6 2.3.5 1.3 1.2 2.5 1.2 2.5l-.3-6.7 1.3-14.4 1.9-7.3.5-11.2s2.9-12.8 2.9-14.7c0-1.9 2.1-7.3 3.7-9.3 1.6-1.9 5.8-6.7 6.9-8.9 1.1-2.2 2.7-3.5 6.4-7s5-4.2 5-4.2 2.9-2.2 4-4.2 1.6-1 2.7-1.3c1.1-.3 3.7.6 3.7.6 13.2 3 10.6 3 19 3V7.7c-12.3 0-17.1 3.5-21.1 4.1-4 .6-7.4 3.5-9.8 6.1-2.4 2.6-6.4 3.8-11.1 6.4-4.8 2.6-6.9 4.5-9 8.6-2.1 4.2-4.2 8.9-6.1 13.4-1.9 4.5-3.2 18.5-3.2 23.6 0 4.3-.7 15.3-1 18.7 0 .7-.1 1-.1 1l1.6 3.9z"/><path fill="#695B49" d="M94.8 77.2c7.7-2.2 15.9.3 18.6 0 2.7-.3 3.4-8 3.4-8s-3.7 3.8-11.7 1.6c-8-2.2-16.7 1.9-19.1 4.5-2.4 2.6-.8 8-.8 8s1.9-3.9 9.6-6.1z"/><path fill="#83725D" d="M127.9 120.1c-1.2-.5-8.2-3.1-10.9-.9-3 2.4-8.4 6.9-11.7 8.1-3.4 1.2-6.6 7.4-7.2 9.6-.6 2.2-.4 6-.4 6l4-4.6 2.2-.5 2.6-2.4 4-1.4 3.6-1.9 2.8-2.4s6-1.9 11.1-1.9c-.1-2.4-.1-5-.1-7.7 0 .1 0 .1 0 0zm-46.5 37l.6.9c4.8 6.7 11.1 14.7 17.8 17.2 6.3 2.4 26 2.5 28.2 2.6v-6.7c-2.1.2-19.7 1.2-28.4-4.5-9.3-6.1-27.6-41.5-27.6-41.5s1.4 5.2 2.1 10.3c.2 1.4.4 2.8.4 4 0 .2 0 .5.1.7 0 .2 0 .4.1.5.1.7.2 1.3.3 2 .6 2.9 1.7 6 3.3 9.2.8 1.7 1.8 3.5 3.1 5.3z"/><path fill="#423A2B" d="M208.8 163.2c3 10.7 7.5 23.2-14.9 58.3-17.8 18.8-46.7 16-55.4 29.7-1 1.5-1.9 3-2.7 4.5 42.8-2.6 79.9-26.2 101.2-60.7-1.8-3.4-3.3-6.8-4.3-10-3.6-11.4-16.6-18.6-23.9-21.8z"/><path fill="#322B27" d="M193.4 163.7c-1.9 4.5-8 16.3-8.5 21.7-.3 3.1-1.1 7.3-1.2 11.1 7.8-9.7 11.9-22.5 11.6-32.5-.5-14.3-11.1-20-14.1-21.4-.6 2.9-1.7 6-3.3 9.2 2.9 1.3 17.2 7.9 15.5 11.9zm-11.9-23.1l.4-.6h-.3c-.1.3-.1.4-.1.6z"/><path fill="#322B27" d="M127.9 190.5s48.5-8 55.2-21.4c5.2-11.1-5.9-12-8.4-12.1l-.6.9c-4.8 6.7-11.1 14.7-17.8 17.2s-28.4 2.6-28.4 2.6v12.8z"/><path fill="#423A2B" d="M193.4 163.7c1.7-4-12.6-10.6-15.5-11.9-.9 1.7-2 3.5-3.2 5.3 2.5.1 13.6.9 8.4 12.1-6.6 13.4-55.2 21.4-55.2 21.4V228s14.3-13.1 35.3-17.9c8.4-1.9 15.3-7 20.5-13.5.1-3.8.9-8 1.2-11.1.5-5.5 6.6-17.3 8.5-21.8z"/><path fill="#584D3C" d="M193.9 221.5c22.3-35.1 17.9-47.7 14.9-58.3-.9-3-1.6-5.9-1.6-9 0-13.6-15.4-25.4-17.1-26.7-1.3 5-2.6 8.9-3.5 10.3-1.1 1.6-3.2 2.2-4.7 2.4l-.4.6c-.1.7-.2 1.3-.3 2 3 1.4 13.6 7.1 14.1 21.4.3 10-3.8 22.8-11.6 32.5-5.2 6.5-12.1 11.6-20.5 13.5-20.9 4.8-35.3 17.9-35.3 17.9V256h.1c2.6 0 5.2-.1 7.8-.2.8-1.5 1.7-3 2.7-4.5 8.8-13.8 37.7-10.9 55.4-29.8z"/><path fill="#C08C76" d="M187.9 93.5l.1.6s-.1 1.5-.3 4.1v4.2c0 .6-.3 1.5-.6 2.3-.9 8.3-2.5 20.1-5 30.6-.2 1.4-.4 2.8-.4 4 0 .2 0 .5-.1.7h.3c1.5-.2 3.6-.7 4.7-2.4.9-1.3 2.2-5.3 3.5-10.3 1.5-5.9 3-13.2 3.6-19.4 1.2-11.5 3.2-12 .4-18.2-1.3-2.8-3.1-2.3-4.7-.9 0 .7.1 1 .1 1l-1.6 3.7z"/><path fill="#D7A990" d="M127.9 11.7zm0 108.5s8.2-3.4 11.1-1c3 2.4 8.4 6.9 11.7 8.1 3.4 1.2 6.6 7.4 7.2 9.6.6 2.2.4 6 .4 6l-4-4.6-2.2-.5-2.6-2.4-4-1.4-3.6-1.9-2.8-2.4s-6-1.9-11.1-1.9l-.1-7.6v50.9s19.4 1.6 28.6-4.5c9.3-6.1 27.6-41.5 27.6-41.5s-1.4 5.2-2.1 10.3c2.5-10.5 4.1-22.3 5-30.6-.5 1.3-1.2 2.5-1.2 2.5l.3-6.7-1.3-14.4-1.9-7.3-.5-11.2s-2.9-12.8-2.9-14.7c0-1.9-2.1-7.3-3.7-9.3-1.6-1.9-5.8-6.7-6.9-8.9-1.1-2.2-2.7-3.5-6.4-7s-5-4.2-5-4.2-2.9-2.2-4-4.2-1.6-1-2.7-1.3c-1.1-.3-3.7.6-3.7.6-13.4 3-10.5 3-19.2 3v-3.2 101.7zm23-49.4c8-2.2 16.7 1.9 19.1 4.5 2.4 2.6.8 8 .8 8s-1.9-3.8-9.5-6.1c-7.7-2.2-15.9.3-18.6 0-2.7-.3-3.4-8-3.4-8s3.7 3.8 11.6 1.6zm37 22.7l-.3.6v4.1c.2-2.6.3-4.1.3-4.1v-.6z"/><path fill="#7C6B57" d="M127.9 18v3.8c8.7 0 5.8 0 19.2-3 0 0 2.7-1 3.7-.6 1.1.3 1.6-.6 2.7 1.3s4 4.2 4 4.2 1.3.6 5 4.2c3.7 3.5 5.3 4.8 6.4 7 1.1 2.2 5.3 7 6.9 8.9 1.6 1.9 3.7 7.3 3.7 9.3 0 1.9 2.9 14.7 2.9 14.7l.5 11.2 1.9 7.3 1.3 14.4-.3 6.7s.7-1.2 1.2-2.5c.3-.8.6-1.7.6-2.3v-8.3l.3-.6 1.6-3.6s0-.4-.1-1c-.2-3.4-1-14.5-1-18.7 0-5.1-1.3-19.2-3.2-23.6-1.9-4.5-4-9.3-6.1-13.4-2.1-4.2-4.2-6.1-9-8.6-4.8-2.6-8.8-3.8-11.1-6.4-2.4-2.6-5.8-5.4-9.8-6.1-4-.6-8.8-4.1-21.1-4.1h-.2V18z"/><path fill="#7C6B57" d="M142.7 77.2c2.7.3 10.9-2.2 18.6 0 7.7 2.2 9.5 6.1 9.5 6.1s1.6-5.4-.8-8c-2.4-2.6-11.1-6.7-19.1-4.5-8 2.2-11.7-1.6-11.7-1.6s.8 7.7 3.5 8z"/><path fill="#927E68" d="M128.1 127.9c5.2 0 11.1 1.9 11.1 1.9l2.8 2.4 3.6 1.9 4 1.4 2.6 2.4 2.2.5 4 4.6s.2-3.8-.4-6c-.6-2.2-3.8-8.4-7.2-9.6-3.4-1.2-8.8-5.7-11.7-8.1-3-2.4-11.1 1-11.1 1l.1 7.6zm53.5 11.5c.1-1.2.2-2.6.4-4 .7-5 2.1-10.3 2.1-10.3s-18.3 35.4-27.6 41.5c-9.3 6.1-28.6 4.5-28.6 4.5v6.7s21.7 0 28.4-2.6 13-10.5 17.8-17.2l.6-.9c1.2-1.8 2.3-3.6 3.2-5.3 1.7-3.2 2.8-6.2 3.3-9.2.1-.7.2-1.4.3-2 0-.2 0-.4.1-.5v-.7z"/></svg>