<svg xmlns="http://www.w3.org/2000/svg" width="256" height="256"><circle fill="#B2B4B5" cx="128" cy="128" r="128"/><path fill="#A37864" d="M88.7 164.5c.2-.1.3-.2.3-.2-.1.2-.2.5-.3.7.3 2.9 4 15.2 39.1 33.6v-21.5c-11.5 0-14.1-2.6-24.3-11.2-6-5.1-10.9-12-14.7-18.9.6 5.2.9 11.8-.3 17.5h.2c0-.1 0-.1 0 0zm-10-67.2c0-4.8-4.8-12.1-4.8-12.1s-.2-1.4-.6-3.7c-1.3-.9-2.7-1.4-4-.7-4.3 2.2-1.2 5-.7 8.4S70 94.8 70 99.9s3.4 5 4.1 8.6c.6 2.9 2.6 9.3 5.9 11.1-.3-3.7-.4-7.5-.4-11.2-1.4-1.6-.9-6.9-.9-11.1z"/><path fill="#C08C76" d="M103.6 166c10.1 8.5 12.7 11.1 24.3 11.2v-26.8c-5.2 0-6.5-.4-13.4-1.9-7-1.6-11.5-1-11.5-1 3.2-4.8 3.2-3.8 10.9-2.2s14-1 14-1v-86c-1.5-.1-8.4-.5-13.7-4.5-6.1-4.5-22.4-6.1-25.5-1-3.2 5.1-.3 12.1.3 18.5s-5.7 17.2-5.4 22c.3 4.8-1 15.6-3.2 15.3-.3 0-.5-.2-.7-.4 0 3.7.1 7.5.4 11.2.4 5 1.2 9.7 2.6 13.5 1.6 4.2 3.7 9.1 6.4 13.9 3.6 7.1 8.5 14.1 14.5 19.2zm.9-66.9c8.1 3.1 15.3 6.7 17 6.7 0 0-4.3 1.2-6.9.2s-11.7-4.3-16-4.3-6 1.4-6.9-1.9c-.1.1 4.7-3.8 12.8-.7z"/><path fill="#39261A" d="M78.7 97.3c0 4.2-.5 9.5.9 11.1.2.2.4.4.7.4 2.2.3 3.5-10.5 3.2-15.3s6.1-15.6 5.4-22c-.6-6.4-3.5-13.4-.3-18.5s19.5-3.5 25.5 1c5.4 3.9 12.2 4.4 13.7 4.5V8.2h.2c-1.7-.2-16.3-1.9-24.4 3.2-8.6 5.4-24.6 6.7-27.1 15-2.6 8.3-7.3 23.3-6.1 34.5.9 7.5 2.1 15.8 2.9 20.5.4 2.3.6 3.7.6 3.7s4.8 7.4 4.8 12.2zm19.8 4.5c4.3 0 13.4 3.4 16 4.3 2.6 1 6.9-.2 6.9-.2-1.7 0-8.9-3.6-17-6.7s-12.9.7-12.9.7c1.1 3.3 2.7 1.9 7 1.9zm29.3 42.4s-6.4 2.6-14 1c-7.7-1.6-7.7-2.6-10.9 2.2 0 0 4.5-.6 11.5 1 6.9 1.6 8.3 1.9 13.4 1.9v-6.1z"/><path fill="#959A9A" d="M88.7 164.5v-.2.2c-.4.2-.8.4-1.1.7.4-.3.8-.5 1.1-.7zm39.1 34.3v-.2C92.7 180.2 89 168 88.7 165c-4.4 11.7 6.3 18.2 6.3 18.2l32.8 28.1v-12.5z"/><path fill="#B4BAB8" d="M127.8 211.6v-.3L95 183.2s-10.7-6.5-6.3-18.2c.1-.2.2-.5.3-.7 0 0-.1.1-.3.2-.2.1-.6.4-1.1.7-2.4 1.6-7.2 5.1-8.2 8.4-1.3 4.5 1 11.8-.6 17.9 0 0-23 10.5-39.6 15.6-3.8 1.2-7 2.1-9.5 2.8 23.4 28.1 58.7 46 98.2 46.1v-28.4l-.1-16z"/><path fill="#C08C76" d="M152.4 166c-10.2 8.6-12.8 11.2-24.6 11.2v21.7c35.5-18.6 39.1-30.9 39.5-33.8-.1-.2-.2-.5-.3-.7 0 0 .1.1.3.2v-.2l.1.1c-1.2-5.7-.9-12.2-.3-17.5-3.8 6.9-8.7 13.9-14.7 19zm24.9-68.7c0 4.2.5 9.5-.9 11.1 0 3.7-.1 7.5-.4 11.2 3.2-1.8 5.3-8.1 5.9-11.1.7-3.6 4.1-3.6 4.1-8.6s1-7.4 1.4-10.8 3.6-6.2-.7-8.4c-1.3-.7-2.7-.2-4 .7-.4 2.3-.6 3.7-.6 3.7s-4.8 7.4-4.8 12.2z"/><path fill="#D8AA91" d="M175.7 108.8c-2.2.3-3.5-10.5-3.2-15.3s-6.1-15.6-5.4-22c.6-6.4 3.5-13.4.3-18.5s-19.5-3.5-25.5 1c-6.1 4.5-14 4.5-14 4.5v92l.3-6.1s6.4 2.6 14 1c7.7-1.6 7.7-2.6 10.9 2.2 0 0-4.5-.6-11.5 1s-8.3 1.9-13.7 1.9v26.8c11.8 0 14.4-2.6 24.6-11.2 6-5.1 10.9-12 14.7-18.9 2.7-4.9 4.8-9.7 6.4-13.9 1.4-3.8 2.2-8.6 2.6-13.5.3-3.7.4-7.5.4-11.2-.3 0-.6.2-.9.2zm-34.3-2.7c-2.6 1-6.9-.2-6.9-.2 1.7 0 8.9-3.6 17-6.7s12.9.7 12.9.7c-1 3.4-2.6 1.9-6.9 1.9-4.4 0-13.5 3.3-16.1 4.3z"/><path fill="#473226" d="M127.8 39.8v18.5s8 0 14-4.5c6.1-4.5 22.4-6.1 25.5-1 3.2 5.1.3 12.1-.3 18.5s5.7 17.2 5.4 22 1 15.6 3.2 15.3c.3 0 .5-.2.7-.4 1.3-1.6.9-6.9.9-11.1 0-4.8 4.8-12.1 4.8-12.1s.2-1.4.6-3.7c.8-4.7 2-13 2.9-20.5 1.3-11.2-3.5-26.2-6.1-34.5s-18.5-9.6-27.1-15c-8-5-22.6-3.3-24.3-3.1h-.2v31.6zm36.6 60.1s-4.8-3.8-12.9-.7-15.3 6.7-17 6.7c0 0 4.3 1.2 6.9.2 2.6-1 11.7-4.3 16-4.3 4.4 0 6 1.4 7-1.9zm-22.8 48.5c7-1.6 11.5-1 11.5-1-3.2-4.8-3.2-3.8-10.9-2.2s-14-1-14-1l-.3 6.1c5.4 0 6.6-.3 13.7-1.9z"/><path fill="#B4BAB8" d="M127.8 198.8v12.8l33.1-28.4s10.7-6.5 6.3-18.2c-.2 3-3.9 15.3-39.4 33.8zm39.5-34.3c.2.1.6.4 1.1.7-.3-.3-.6-.5-1-.8l-.1-.1v.2z"/><path fill="#D3D8D5" d="M177.3 191.5c-1.6-6.1.6-13.4-.6-17.9-.9-3.3-5.8-6.8-8.2-8.4-.5-.3-.9-.5-1.1-.7-.2-.1-.3-.2-.3-.2.1.2.2.5.3.7 4.4 11.7-6.3 18.2-6.3 18.2L128 211.6V256h.2c39.5 0 74.9-17.9 98.3-46.1-2.5-.7-5.6-1.6-9.5-2.8-16.8-5.1-39.7-15.6-39.7-15.6zm-36.4 30c-3.2 0-5.7-2.6-5.7-5.7s2.6-5.7 5.7-5.7 5.7 2.6 5.7 5.7-2.5 5.7-5.7 5.7z"/><circle fill="#B4BAB8" cx="140.9" cy="215.8" r="5.7"/></svg>