<svg xmlns="http://www.w3.org/2000/svg" width="256" height="256"><circle fill="#B1B3B5" cx="128" cy="128" r="128"/><path fill="#55492A" d="M173.7 180.9c0 .1.1.1.1.2-.1-.1-.1-.2-.1-.2zm41.2-50.9v.1-.1zm-41.2 50.9c2.3-1.6 7.6 3.1 12.5 8.5l14.7 8.7v-.1c3.4-9.5 4.3-43.1 4.3-43.1 7.2-8.1 9.6-25 9.6-25H211c-4.6 9.7-15.4 19.5-24.9 26.7-3.7 6-8.4 13-14.1 19.8.6 1.7 1.1 3.2 1.7 4.5z"/><path fill="#C08C76" d="M168.7 192.3c6.8-5.1 5.4-10.1 5-11.2 0-.1-.1-.1-.1-.2-.5-1.3-1.1-2.9-1.7-4.5-9.9 11.8-22.7 23-37.7 27.7 0 .1-.1.1-.1.2l-.1-.1c-.1 0-.2.1-.3.1l.2-.2-3.6-3.6 12.8-25.2c-7.2 1.7-12.9 1.6-14.8 1.5v41.3c12.3-.6 32.9-20.2 40.4-25.8z"/><path fill="#D7A990" d="M128.3 165.5v11.3c1.9.1 7.6.1 14.8-1.5l16.7-32.8s8.9-2.5 15.4-13.6c.8-14.9-.7-29.7-1.9-39.3-1.2-9.7-12.8-15.7-18.8-18.2-8.4 6.8-17.2 30.9-19.3 36.9 0 .5-.1.9-.2 1.4h-6.7v55.8z"/><path fill="#41221A" d="M156.1 70.4c-.5.3-1 .6-1.5 1 6 2.5 17.6 8.5 18.8 18.2 1.2 9.6 2.7 24.4 1.9 39.3 3.8-6.4 6.8-15.7 6.8-29.1-.1-24.7-13.8-31.9-26-29.4z"/><path fill="#6A402A" d="M173 18.9c-7.4-6.3-28.4-9.1-39-10 1.7 11.6 6.8 20.7 19.2 20.7 2.2 0 4.2-.2 6.2-.4 4.9-1.5 10.8-4 16.2-8.1-.9-.7-1.7-1.5-2.6-2.2zm-39 185.3l-.1-.1-.2.2c.1-.1.2-.1.3-.1zm32.7-148.4c13.4 1.4 23.9 25.1 22.5 48.7s-7.6 31.1-24.3 39.9c0 0-9.9 34.6-30.6 59.7 15.1-4.7 27.8-15.9 37.7-27.7 5.7-6.8 10.4-13.7 14.1-19.8 6.1-10 9.4-17.5 9.4-17.5s1.4-59.9 0-82.9c-.4-5.7-1.3-10.4-2.7-14.2-15.6 8.7-32.3 8-32.3 8s-2.8 2.5-6.5 7.6c3.5-1.4 7.8-2.3 12.7-1.8z"/><path fill="#6A402A" d="M154.5 71.5c.5-.4 1-.8 1.5-1-5 1.1-9.8 3.8-13.3 7.6-3.4 8.3-6.3 18.4-7.6 30.4 2.2-6.1 11-30.2 19.4-37z"/><path fill="#805D43" d="M156.1 70.4c12.3-2.6 26 4.7 26 29.4 0 13.4-3 22.7-6.8 29.1-6.5 11-15.4 13.6-15.4 13.6l-16.7 32.8-12.8 25.2 3.6 3.6.1.1.1.1c0-.1.1-.1.1-.2 20.7-25.1 30.6-59.7 30.6-59.7 16.8-8.8 22.9-16.3 24.3-39.9s-9.1-47.3-22.5-48.7c-4.9-.5-9.2.4-12.6 1.8-3.4 4.7-7.7 11.5-11.4 20.4 3.5-3.8 8.3-6.5 13.4-7.6z"/><path fill="#4C3B31" d="M158.6 41.1c-23 14.7-23.9 68.7-23.9 68.7h.3c0-.5.1-.9.2-1.4 1.3-12 4.2-22.1 7.6-30.4 3.7-9 7.9-15.8 11.4-20.4 3.7-5 6.5-7.6 6.5-7.6s16.7.7 32.3-8c5.6-3.1 11.1-7.5 15.6-13.6-4.2-3.4-8.6-6.5-13.1-9.3-12.6 19.2-36.9 22-36.9 22zm-9.1-9.7s4.2-.4 9.9-2.2c-2 .3-4 .4-6.2.4-12.5 0-17.5-9.1-19.2-20.7-.4-2.8-.7-5.8-.8-8.8-1.6-.1-3.2-.1-4.9-.1v4c3.6 22.8 21.2 27.4 21.2 27.4zm-14.8 78.4l-6.4-3.2v3.2z"/><path fill="#877B79" d="M175.6 21.1c-5.4 4.1-11.3 6.6-16.2 8.1-5.7 1.8-9.9 2.2-9.9 2.2S131.9 26.8 128.3 4v102.6l6.4 3.1s1-54 23.9-68.7c0 0 24.3-2.8 36.7-22-3.7-2.3-7.6-4.5-11.6-6.4-2.3 3.4-5.1 6.2-8.1 8.5z"/><path fill="#272421" d="M184.4 188.4l1.8 1c-4.9-5.4-10.2-10.1-12.5-8.5 0 0 0 .1.1.2.4 1 1.8 6.1-5 11.2-7.5 5.6-28.2 25.2-40.4 25.8v29.5c2.8-1 14.2-5.1 28.2-12.5l27.8-46.7z"/><path fill="#6B5043" d="M206.3 201.3l-.4-.3c-.1.2-.1.3-.1.3.1.1.3.1.5 0zm-21.9-12.9l-27.9 46.8c11.5-6.1 24.8-14.4 36.3-24.9 3.8-4.8 7-9 8.1-12l-14.7-8.7-1.8-1.2z"/><path fill="#926643" d="M224.9 208.1c-29.7 7.2-51.2 37.4-51.2 37.4 0-11.7 11.1-25 19.2-35.3-11.5 10.5-24.8 18.8-36.3 24.9-14 7.4-25.4 11.5-28.2 12.5v8.3c23-.1 44.5-6.2 63.1-16.8 9.1-13.6 33.4-31 33.4-31z"/><path fill="#99754D" d="M206.3 201.3c-.2 0-.4 0-.6.1 0 0 0-.1.1-.3 1.4-3.9 15.3-43.8 9-71v-.1s-2.4 16.8-9.6 25c0 0-1 33.6-4.3 43.1v.1c-1.1 3.1-4.3 7.2-8.1 12-8.1 10.3-19.2 23.6-19.2 35.3 0 0 21.6-30.2 51.2-37.4 0 0-24.3 17.4-33.5 31.1 4.1-2.3 8-4.9 11.7-7.6 5-5.3 10.9-10.2 16.5-14.3 5.1-5.2 9.7-10.8 13.8-16.8-7.7-.2-18.1-.1-27 .8z"/><path fill="#6D5744" d="M203.2 231.6c5.9-4.3 11.4-9.1 16.5-14.3-5.6 4.1-11.5 9-16.5 14.3z"/><path fill="#3E361A" d="M41.1 130zM55 198.1s.1 0 0 0l14.8-8.7c4.9-5.4 10.2-10.1 12.5-8.5.5-1.3 1.1-2.9 1.7-4.5-5.7-6.8-10.4-13.7-14.1-19.8-9.5-7.3-20.3-17-24.9-26.7h-3.8s2.4 16.8 9.6 25c-.1 0 .9 33.6 4.2 43.2zm27.3-17c0-.1.1-.1.1-.2-.1 0-.1.1-.1.2z"/><path fill="#9C7360" d="M82.3 180.9c0 .1-.1.1-.1.2-.4 1-1.8 6.1 5 11.2 7.7 5.7 28.9 25.9 41 25.9v-41.3s-6.6.5-15.4-1.5l12.8 25.2-3.6 3.6.2.2c-.1 0-.2-.1-.3-.1l-.1.1c0-.1-.1-.1-.1-.2-15.1-4.7-27.8-15.9-37.7-27.7-.6 1.6-1.1 3.1-1.7 4.4z"/><path fill="#C08C76" d="M101.5 71.5c-6 2.5-17.6 8.5-18.8 18.2-1.2 9.6-2.7 24.4-1.9 39.3 6.5 11 15.4 13.6 15.4 13.6l16.7 32.8c8.8 2 15.4 1.5 15.4 1.5v-67H121c0-.5-.1-.9-.2-1.4-2.1-6.1-10.9-30.2-19.3-37z"/><path fill="#2C0F05" d="M82.7 89.6c1.2-9.7 12.8-15.7 18.8-18.2-.5-.4-1-.8-1.5-1-12.3-2.6-26 4.7-26 29.4 0 13.4 3 22.7 6.8 29.1-.8-14.9.7-29.7 1.9-39.3z"/><path fill="#5B3521" d="M122 8.9c-10.6 1-31.6 3.7-39 10-.9.7-1.7 1.4-2.6 2.1 5.4 4.1 11.3 6.6 16.2 8.1 2 .3 4 .4 6.2.4 12.4.1 17.5-9 19.2-20.6zm.1 195.1l-.1.1c.1 0 .2.1.3.1 0 .1-.1 0-.2-.2zm-.4.1C101 179 91.1 144.4 91.1 144.4c-16.8-8.8-22.9-16.3-24.3-39.9s9.1-47.3 22.5-48.7c4.9-.5 9.2.4 12.6 1.8-3.7-5-6.5-7.6-6.5-7.6s-16.7.7-32.3-8c-1.4 3.9-2.3 8.5-2.7 14.2-1.4 23 0 82.9 0 82.9s3.3 7.5 9.4 17.5c3.7 6 8.4 13 14.1 19.8 10 11.8 22.7 23 37.8 27.7z"/><path fill="#5B3521" d="M99.9 70.4c.5.3 1 .6 1.5 1 8.4 6.8 17.2 30.9 19.3 36.9-1.3-12-4.2-22.1-7.6-30.4-3.3-3.7-8.1-6.4-13.2-7.5z"/><path fill="#664934" d="M89.3 55.8c-13.4 1.4-23.9 25.1-22.5 48.7s7.6 31.1 24.3 39.9c0 0 9.9 34.6 30.6 59.7 0 .1.1.1.1.2l.1-.1.1-.1 3.6-3.6-12.8-25.2-16.7-32.8s-8.9-2.5-15.4-13.6c-3.7-6.4-6.7-15.7-6.7-29 0-24.7 13.7-32 26-29.4 5 1.1 9.8 3.8 13.3 7.6-3.7-9-7.9-15.8-11.4-20.4-3.4-1.5-7.7-2.4-12.6-1.9z"/><path fill="#372C24" d="M63.2 42c15.6 8.7 32.3 8 32.3 8s2.8 2.5 6.5 7.6c3.4 4.7 7.7 11.5 11.4 20.4 3.4 8.3 6.3 18.4 7.6 30.4 0 .5.1.9.2 1.4h.3s-1-54-23.9-68.7c0 0-24.3-2.8-36.7-22-4.6 2.8-9 6-13.1 9.3 4.3 6.1 9.7 10.5 15.4 13.6zm39.6-12.4c-2.2 0-4.2-.2-6.2-.4 5.7 1.8 9.9 2.2 9.9 2.2s19.6-5 21.7-31.4h-.1c-1.8 0-3.5 0-5.2.1-.1 3-.3 5.9-.8 8.8-1.8 11.6-6.9 20.7-19.3 20.7z"/><path fill="#372C24" d="M128.3 109.8v-3.5l-7 3.5h6.4z"/><path fill="#756A68" d="M97.4 41.1c23 14.7 23.9 68.7 23.9 68.7l7-3.4V0h-.2c-2.1 26.3-21.7 31.4-21.7 31.4s-4.2-.4-9.9-2.2c-4.9-1.5-10.8-4-16.2-8.1-3-2.3-5.8-5-8.1-8.3-4 1.9-7.9 4.1-11.6 6.4 12.5 19.1 36.8 21.9 36.8 21.9z"/><path fill="#1F1B19" d="M128.3 218.2c-12.1 0-33.4-20.1-41-25.9-6.8-5.1-5.4-10.1-5-11.2 0-.1.1-.2.1-.2-2.3-1.6-7.6 3.1-12.5 8.5l1.8-1 27.9 46.8c16.1 8.5 28.9 12.7 28.9 12.7v-29.7z"/><path fill="#513C31" d="M50.1 201.1l-.4.3c.2 0 .4 0 .6.1 0-.1-.1-.2-.2-.4zm21.5-12.7l-1.8 1-14.7 8.7c1.1 3.1 4.3 7.2 8.1 12C74.7 220.6 88 228.9 99.5 235l-27.9-46.6z"/><path fill="#835B3B" d="M128.3 252.2v-4.3s-12.7-4.2-28.9-12.7c-11.5-6.1-24.8-14.4-36.3-24.9 8.1 10.3 19.2 23.6 19.2 35.3 0 0-21.6-30.2-51.2-37.4 0 0 24.3 17.4 33.5 31.1C83.3 249.9 104.9 256 128 256h.3v-3.8z"/><path fill="#644C2E" d="M31.1 208.1c29.7 7.2 51.2 37.4 51.2 37.4 0-11.7-11.1-25-19.2-35.3-3.8-4.8-7-9-8.1-12v-.1c-3.4-9.5-4.3-43.1-4.3-43.1-7.2-8.1-9.6-25-9.6-25v.1c-6.3 27.2 7.6 67 9 71 .1.2.1.3.1.3-.2 0-.4 0-.6-.1-8.9-1-19.3-1-27.2-.9 4.1 6 8.8 11.6 13.8 16.8 5.6 4.1 11.5 8.9 16.5 14.3 3.8 2.7 7.7 5.3 11.7 7.6-9-13.6-33.3-31-33.3-31z"/><path fill="#554333" d="M36.3 217.3c5.1 5.2 10.6 10 16.5 14.3-5-5.3-10.9-10.2-16.5-14.3z"/></svg>