<svg xmlns="http://www.w3.org/2000/svg" width="256" height="256"><circle fill="#B1B3B5" cx="128" cy="128" r="128"/><path fill="#D9B051" d="M215.3 204c-6.2 0-19-.6-30.1-7.5-3.4 4.4-8.8 3.5-12.7 3.5-4.4 0-6.6-5.1-8.6-12.8l-5.9 3.2h.3l-12.5 11.3 6.2 6.5-1.7 5 3.6 3.8-2.7 4.3c1.8 1.8 17.1 16.3 26.9 24.5 21.3-9.1 39.6-23.8 53.1-42.2-6.6-1.1-12.1.4-15.9.4zm-76.1 40.6l-.1.1h-11V256c7.1 0 14-.6 20.8-1.7-4.3-4.5-7.9-8-9.7-9.7z"/><path fill="#887030" d="M131.9 193.9c-.2.7-1 3.2-3.8 3.4v47.4h11l.1-.1-1.1-1.1 5.3-22.5h7.7l.2.2 2.7-4.3-3.6-3.8 1.7-5-6.2-6.5 12.5-11.3h-.4l-15 8.1-11.1-4.5z"/><path fill="#6E5922" d="M154.3 151.1c-5.7 5-16.4 8.2-22.3 9.6v33.2l11.1 4.6 15-8.1 5.9-3.2c-.2-.7-.3-1.4-.5-2.1-2.2-8.9-3.1-25.6-2.6-29.5.4-3.6 4.6-6.9 5.2-7.4l-3.5-5.2c-2.4 2.8-4.9 5.1-8.3 8.1z"/><path fill="#6E5922" d="M166.1 148.5c-.1 0-.1.1-.1.3 0-.2.1-.3.1-.3z"/><path fill="#B39243" d="M128.2 190.4v6.9c2.8-.2 3.6-2.7 3.8-3.4v-33.2c-1.8.5-3.2.7-3.8.9v28.8z"/><path fill="#EFC159" d="M171.2 58.7c-11.1-8.8-21.4-11.5-20.8-18.4l-22.2 15.9v75.2c.4 0 1.2-.1 1.9-.8 1.7-.8 3.8-.1 5 1.3 2.3 2.2 2.5 2.8 4.9 3.7 0 0-2.1 3.8-11.8 3.9v22.1c.6-.1 2-.4 3.8-.9 5.9-1.4 16.6-4.6 22.3-9.6 3.4-3 6-5.3 8.2-8.1 3.1-3.8 5.5-8.3 8.6-16.4 1.1-3 2.3-6.7 3.4-10.8.4-3.7 2.1-19.9 2.4-29.4 0-7.1-3.4-19.9-5.7-27.7zm-12.4 18.6c-2.2-1.3-6.9.3-14.4 1-7.4.7-6.9-2.2-6.9-2.2 2.6-2.9 4.1-1.2 6.7-1.2 2.6 0 11.7-1.2 13.9-1.2 2.2 0 8.1 7.2 8.1 7.2s-5.2-2.4-7.4-3.6z"/><path fill="#C07F3E" d="M158.1 73.8c-2.2 0-11.3 1.2-13.9 1.2-2.6 0-4.1-1.7-6.7 1.2 0 0-.5 2.9 6.9 2.2 7.4-.7 12.2-2.3 14.4-1 2.2 1.3 7.4 3.7 7.4 3.7s-5.9-7.3-8.1-7.3z"/><path fill="#D0933F" d="M140 135.7c-2.4-.9-2.6-1.5-4.9-3.7-1.2-1.4-3.3-2.1-5-1.3-.7.7-1.5.8-1.9.8v8.1c9.7-.1 11.8-3.9 11.8-3.9z"/><path fill="#816A2C" d="M172.9 60.1c-.6-.5-1.1-.9-1.7-1.4 2.3 7.8 5.8 20.5 5.6 27.7-.2 9.5-1.9 25.7-2.4 29.4-.1.5-.1.8-.1.8s2.7-6.5 5.2-14c-.1.3-.2.5-.3.8 0 0 7.5-31.6-6.3-43.3z"/><path fill="#B39243" d="M156.8 35.7l2.9 5.1 2.7-1 2.4 3.8 9.1-7c12.8 13.1 9.4 45 9.4 45s-1.1-12.8-2.7-17.6-8.6-14.5-15.2-17.5c-6.5-3-10.1-2.6-12.3-4.5-.9-.8-1.2-1.9-1.3-2.8l-1.5 1.1c-.6 7 9.7 9.6 20.8 18.4.6.4 1.1.9 1.7 1.4 13.9 11.7 6.4 43.3 6.4 43.3.1-.3.2-.5.3-.8 7.5-17.1 7.6-38 5.3-50.5-2.4-12.7-15.6-27.5-15.6-27.5l-.1.1c.5 1 .7 1.6.7 1.6l-13 9.4z"/><path fill="#D5AD50" d="M153.2 42.1c2.2 1.9 5.7 1.4 12.3 4.5 6.5 3 13.6 12.7 15.2 17.5s2.7 17.6 2.7 17.6 3.4-31.9-9.4-45l-9.1 7-2.4-3.8-2.7 1-2.9-5.1-5 3.6c0 .8.4 1.9 1.3 2.7zM127.8 8.4h.2-.2zm.4 39.9l23-37.3s-6.8-2.6-23-2.6v39.9zm11.8-7.8l27.8-18.1 2 3.9s-.2-.6-.7-1.6c-1.3-2.7-4.8-8.1-13-11.6L140 40.5z"/><path fill="#C39F49" d="M128.2 48.3v8l22.2-16 1.5-1.1 4.9-3.5 13-9.4-2-3.9L140 40.5l16.2-27.3-3.8 2.4-1.2-4.6z"/><path fill="#B39243" d="M160.7 155.7c-.5 3.8.5 20.6 2.6 29.5.2.7.3 1.4.5 2.1 2 7.7 4.2 12.8 8.6 12.8 3.9 0 9.3 1 12.7-3.5.7-1 1.4-2.2 1.9-3.7 2.9-8.6.5-9.3-5-10.3s-16.5-6-16.3-17.7c.2-9.6.2-14.6.2-16v-.5l-.1.1c-.4.2-4.6 3.6-5.1 7.2z"/><path fill="#937935" d="M151.1 221h-7.7s16.4 13.7 32 25.8c.9-.4 1.8-.7 2.7-1.1-9.8-8.3-25-22.8-26.9-24.5 0-.1-.1-.2-.1-.2z"/><path fill="#B39243" d="M143.5 221l-5.3 22.5 1.1 1.1c1.7 1.7 5.4 5.2 9.7 9.7 9.2-1.5 18.1-4 26.5-7.4-15.6-12.2-32-25.9-32-25.9z"/><path fill="#BF9C48" d="M102 217l3.6-3.8-1.7-5 6.2-6.5-12.5-11.3h.4l-5.9-3.2c-2 7.7-4.2 12.8-8.6 12.8-3.9 0-9.3 1-12.7-3.5-11.1 6.8-23.9 7.5-30.1 7.5-3.8 0-9.3-1.4-16.1-.4 13.5 18.5 31.8 33.2 53.1 42.2 9.8-8.3 25-22.8 26.9-24.5L102 217zm25.8 27.7h-11l-.1-.1c-1.7 1.7-5.4 5.2-9.7 9.7 6.8 1.1 13.8 1.7 21 1.7h.2v-11.3h-.4z"/><path fill="#735E25" d="M124.1 193.9l-11.1 4.6-15-8.1h-.3l12.5 11.3-6.2 6.5 1.7 5-3.7 3.8 2.7 4.3.2-.2h7.7l5.3 22.5-1.1 1.1.1.1h11.3v-47.4c-3.1-.1-4-2.7-4.1-3.5z"/><path fill="#5E4C19" d="M89.9 148.5s0 .1.1.3c0-.2 0-.3-.1-.3zm5.4 7.2c.5 3.8-.5 20.6-2.6 29.5-.2.7-.3 1.4-.5 2.1l5.9 3.2 15 8.1 11.1-4.6v-33.2c-5.9-1.4-16.6-4.6-22.3-9.6-3.4-3-6-5.3-8.2-8.1l-3.5 5.2c.4.4 4.6 3.8 5.1 7.4z"/><path fill="#997E38" d="M128.2 197.3v-35.6s-1.6-.3-4.2-.9V194c.2.7 1.1 3.3 4.2 3.3z"/><path fill="#D9B051" d="M101.7 151.1c5.7 5 16.4 8.2 22.3 9.6 2.5.6 4.2.9 4.2.9v-22c-10.1 0-12.2-3.9-12.2-3.9 2.4-.9 2.6-1.5 4.9-3.7 1.2-1.4 3.3-2.1 5-1.3 1.1 1 2.3.8 2.3.8v-75l-22.5-16.2c.6 7-9.7 9.6-20.8 18.4-2.3 7.8-5.8 20.5-5.6 27.7.2 9.5 1.9 25.7 2.4 29.4 1.1 4.1 2.3 7.9 3.4 10.8 3.1 8.1 5.5 12.6 8.6 16.4 2.1 2.8 4.6 5.1 8 8.1zm-3.8-77.3c2.2 0 11.3 1.2 13.9 1.2s4.1-1.7 6.7 1.2c0 0 .5 2.9-6.9 2.2-7.4-.7-12.2-2.3-14.4-1-2.2 1.3-7.4 3.7-7.4 3.7s5.9-7.3 8.1-7.3z"/><path fill="#9D6831" d="M111.6 78.3c7.4.7 6.9-2.2 6.9-2.2-2.6-2.9-4.1-1.2-6.7-1.2s-11.7-1.2-13.9-1.2c-2.2 0-8.1 7.2-8.1 7.2s5.3-2.4 7.4-3.7c2.1-1.2 6.9.4 14.4 1.1z"/><path fill="#B27F35" d="M128.2 131.5s-1.2.2-2.3-.8c-1.7-.8-3.8-.1-5 1.3-2.3 2.2-2.5 2.8-4.9 3.7 0 0 2.1 3.9 12.2 3.9v-8.1z"/><path fill="#6B5721" d="M84.8 58.7c-.6.4-1.1.9-1.7 1.4-13.9 11.7-6.4 43.3-6.4 43.3-.1-.3-.2-.5-.3-.8 2.5 7.5 5.2 14 5.2 14s0-.3-.1-.8c-.4-3.7-2.1-19.9-2.4-29.4 0-7.1 3.4-19.9 5.7-27.7z"/><path fill="#997E38" d="M83.1 60.1c.6-.5 1.1-.9 1.7-1.4 11.1-8.8 21.4-11.5 20.8-18.4l-1.5-1.1c-.1 1-.4 2-1.3 2.8-2.2 1.9-5.7 1.4-12.3 4.5-6.5 3-13.6 12.7-15.2 17.5s-2.7 17.6-2.7 17.6-3.4-31.9 9.4-45l9.1 7 2.4-3.8 2.7 1 2.9-5.1-13-9.3s.2-.6.7-1.6l-.1-.1S73.5 39.5 71.1 52.2c-2.4 12.5-2.2 33.4 5.3 50.5.1.3.2.5.3.8.1-.1-7.4-31.7 6.4-43.4z"/><path fill="#C39F49" d="M96.3 40.8l-2.7-1-2.4 3.8-9.1-7c-12.8 13.1-9.4 45-9.4 45s1.1-12.8 2.7-17.6S84 49.6 90.5 46.5c6.5-3 10.1-2.6 12.3-4.5.9-.8 1.2-1.9 1.3-2.8l-5-3.6-2.8 5.2zm31.9 8V8.4h-.4c-16.2 0-23 2.6-23 2.6l23.4 37.8zm-40-26.4L116 40.5 99.8 13.2c-8.2 3.5-11.7 8.9-13 11.6-.5 1-.7 1.6-.7 1.6l2.1-4z"/><path fill="#B39243" d="M116 40.5L88.2 22.4l-2 3.9 13 9.4 4.9 3.5 1.5 1.1 22.6 16.2v-7.7L104.8 11l-1.2 4.6-3.8-2.4z"/><path fill="#997E38" d="M83.5 200c4.4 0 6.6-5.1 8.6-12.8.2-.7.3-1.4.5-2.1 2.2-8.9 3.1-25.6 2.6-29.5-.4-3.6-4.6-6.9-5.2-7.4l-.1-.1v.5c0 1.5 0 6.4.2 16 .2 11.7-10.8 16.8-16.3 17.7-5.5 1-7.9 1.7-5 10.3.5 1.5 1.2 2.8 1.9 3.7 3.5 4.6 8.9 3.7 12.8 3.7z"/><path fill="#887030" d="M112.5 221h-7.7l-.2.2c-1.8 1.8-17.1 16.3-26.9 24.5.9.4 1.8.8 2.7 1.1 15.7-12.1 32.1-25.8 32.1-25.8z"/><path fill="#917834" d="M116.8 244.6l1.1-1.1-5.3-22.5s-16.4 13.7-32 25.8c8.4 3.4 17.3 5.9 26.5 7.4 4.3-4.4 7.9-7.9 9.7-9.6z"/></svg>