<svg xmlns="http://www.w3.org/2000/svg" width="256" height="256"><circle fill="#B2B4B5" cx="128" cy="128" r="128"/><path fill="#2A292E" d="M128 182.5v9.1c.6-.1 6.8-1 14.9-3.1.5-.1 1-.3 1.4-.4l-3-8.5c-.5-1.9-12.4 2.5-13.3 2.9zm85.5-11.5c-4.5-3.5-8.6-7.6-8.6-7.6s-5.5-1.6-12.2-3.6c-.1.4-.5 2.6-2.1 5.6 8.6 1.8 18.4 4.4 22.9 5.6zm-63.3-5.9c-.1 1.2-.2 2.3-.4 3.3l.8-.1 4.6 5.9-3.7 5.1 7.1 4.1c1.5-.6 3-1.2 4.4-1.9 2.9-1.3 5.7-2.8 8.3-4.5l.8-.7-.7-4.5 6-14 4.2 10.2c2.3-3 4-6.3 4.8-10-9.1-2.7-18.3-5.6-19.1-6.4-1.1-.9-1.7-6.5-2.1-10.6-5.7 10.3-12.1 18.5-12.1 18.5l-2.9 5.6zm64 6.5l-26.1-2.1c-1.2 1.6-2.7 3.4-4.5 5.2 0 0 17.5 9.5 23.4 16.5-7.5-3.4-29.6-11.3-29.6-11.3-2.3 1.7-5 3.3-8 5 0 0 8.9 12.9 11.3 18.4l.3.6-11.6-8.7c-1.6 3.1-5.8 11.4-6.8 16-1.2 5.7-8.9 17.7-8.9 17.7-.2 8.2-6.3 20.1-9 26 25.9-3.4 49.3-14.5 67.9-30.9-2.2-9.1-4.3-16.5-5.3-17.8-2.6-3.6-6-7.7-6-7.7l4.3-3.4 6.5 8.1s2.2 7.2 4.8 16.7c1.8-1.7 3.5-3.4 5.1-5.2-1.9-6.8-3.2-11.5-3.2-11.5l-5-8.1 3.8-3.6 7.4 13.2s.5 2 1.4 5.2c7.2-8.6 13.3-18.3 18.1-28.6-10.6-2.6-20.9-4.6-24.1-6-2-.8-4.2-2.2-6.2-3.7zm-69.4 55.7c-1.7-6.7-6-14.1-6-14.1l5.2-10.8-5-7.1c-3.4.7-7.1 1.3-11 1.9V256c2.9 0 5.8-.1 8.7-.3 5.3-11.1 9.2-24 8.1-28.4z"/><path fill="#584569" d="M205.6 195.2l-4.3 3.4s3.4 4.1 6 7.7c1 1.4 3.1 8.8 5.3 17.8 1.5-1.3 2.9-2.6 4.3-4-2.6-9.6-4.8-16.7-4.8-16.7l-6.5-8.2zm12-3.6l-3.8 3.6 5 8.1s1.3 4.7 3.2 11.5c1.5-1.6 2.9-3.2 4.3-4.9-.8-3.2-1.4-5.2-1.4-5.2l-7.3-13.1zm-55.1 19.6c1-4.6 5.2-13 6.8-16l-8.5-6.4c-3.3 1.3-6.9 2.6-10.8 3.7 0 0 1.9 13.1 2.2 21.5l-8.2-11.7-5.2 10.8s4.3 7.4 6 14.1c1.1 4.4-2.8 17.3-8.1 28.4 2.7-.2 5.4-.4 8-.8 2.6-5.8 8.8-17.8 9-26 0 .1 7.6-11.8 8.8-17.6zM145.6 174l-.1.2h-.1c-1.3 1.2-2.4 2.1-2.4 2.1h-15v6.1c.9-.3 12.7-4.8 13.4-2.9l3 8.5c4.4-1.2 9.3-2.7 14.1-4.7l-7.1-4.1 3.7-5.1-4.6-5.9-.8.1c-.2.9-.5 1.7-1 2.3-.7 1.2-2 2.4-3.1 3.4zm36-6l-4.2-10.2-6 14 .7 4.5-.8.7c4-2.6 7.6-5.6 10.3-9z"/><path fill="#242327" d="M168.8 45.3v14.5l-.2.2 1.5 2.1c5.3 3.5 9.4 8.6 9.4 8.6v-.2c-.1-.7-1-3.2-9.7-11l1.3-3.9 4.7-17.7-3.2-7.5 5.4-14.7s2.5 30.7-.9 37.6l.8 9.2c.7.9 1.3 1.7 1.6 2.4-.1-6.6-.3-11.5-.3-11.5 1.6-22.7-.6-39-.6-39-8-.4-14.2 2.6-14.2 2.6l-2.4 3c0-.1 6.4 18.1 6.8 25.3z"/><path fill="#242327" d="M174 58.2c.4.4.8.8 1.3 1.2-.4-.4-.8-.8-1.3-1.2zm5.4 12.4c.2 6.1-.3 14-.3 14v1.6c.4-5.4.5-11.9.5-17.8 0 .6-.1 1.3-.1 2 0 .2-.1.2-.1.2z"/><path fill="#333237" d="M133.2 89.7l-.2-.5.2.5zm5.3 52c-4.1-.2-10.1 0-10.5 0v30.1h5.7l4.7-8.5 6.7 2.4s.6 3 .6 5.5c.5-.7.8-1.6.8-2.5 0-3.4-.5-14.8 1.3-21.4-2.7-2.3-6.9-5.5-9.3-5.6z"/><path fill="#333237" d="M128 48.3c.2.2 1.3.7 3.4-1.6 2.4-2.7 4.1-27.5 4.1-27.5s2.3 23.9 2.3 26.2c0 2.2 5.3-3.8 5.3-3.8l-7.5 21.1 7.5 8.1L133 89.2l10.2-9.2 2.2.4 18-15.1s10.3 8.3 12.5 15.8c0 0-8.9-9.7-14.4-10.4l-23.9 19.1c7.4-.1 16.8-.4 18.8-1.8l6.5-4.3s11.2 1.3 10.9 6.1c-.3 4.9-1.9 9.7-9.9 17.5l6.6 10.4c.4-.4.7-.9 1-1.3 0 0-.2.7-.7 1.7l.5.8-1.8 1.6c-1.2 2-3 4.3-5.7 6.1 0 0-10.2 13.6-11.7 19.3-.2.8-.4 1.6-.6 2.3l.1.1-.1.1c-.9 4.1-1.2 6.3-1.2 9.5 0 2 .1 4.8 0 7.3l2.9-5.5s6.5-8.3 12.1-18.5c3.6-6.5 6.9-13.8 8-20.4 2.3-13.3 5.5-20.9 5.9-34.4v-1.6c-.8-6.7-13.7-19.4-13.7-19.4L170 62c.1 0 .1.1.2.1l-1.5-2.1-21.4 18-2.9-1.1 12-9.1 6.9-14s.2-17.9-1.1-33.8l2.4-3S150 8.6 128.2 8.5v39.8h-.2zm18.6 2l-2.1-8.3s1.6-17.9 8.6-23.8v38.6L151 67.1l-6.2 6.9 1.8-5.6-8.1-7.5 5.1-15 3 4.4z"/><path fill="#333237" d="M138.6 139.8c3 .1 7.2 3.3 10 5.7.2-.4.4-.8.6-1.1 2.9-4.7 11.5-18.1 12.8-20.2-2.8-3-9.9-9.3-16.8-4.6-8.8 6.1-8 11-17.1 11v9.1c.7.1 6.5-.1 10.5.1zm7 34.2c-.1.1-.2.1-.2.2h.1l.1-.2z"/><path fill="#242327" d="M171.1 118.9l-.5-.8c-.3.7-.7 1.5-1.3 2.4l1.8-1.6zm-33.6-25.3l-2.5 1-1.8-4.9h-.1l1.2 6.8H128v21.1h10.5l7.3-6.2c-.1-4.2 1.3-5.9 4.5-6.6 9.9-3.7 15.8-10.5 15.8-10.5-4.3-2.2-12.8.2-12.3-1.3.5-1.4 5.3-1.3 8.3-1.7 3-.4 2.9-2 2.9-2 3.7-.6 6.1 1.3 6.1 1.3-5.6 10.9-19.6 16.2-21.1 16.7-2.5.9-1.7 4-2.2 5.2-.5 1.1-9.6 7.8-9.6 7.8H128v10.4c9.1 0 8.3-5 17.1-11 6.8-4.7 13.9 1.5 16.8 4.6.1-.2.2-.3.2-.3s5.4-2.9 8.3-6.4l-6.6-10.4c8-7.8 9.6-12.6 9.9-17.5.3-4.9-10.9-6.1-10.9-6.1l-6.5 4.3c-2.1 1.4-11.4 1.8-18.8 1.8l-1.1.9 1.1 3zm-1.6 8.2c-1.6 0-.6-5.3-.6-5.3h3s.6 5.6-2.4 5.3z"/><path fill="#6E5782" d="M145.1 165.8l-6.7-2.4-4.7 8.5h2.2c2.5 0 4.9 1.2 6.1 2.7 1.2-.7 2.8-1.8 3.8-3.3-.1-2.5-.7-5.5-.7-5.5z"/><path fill="#CFCFD4" d="M147.8 112.5c.5-1.1-.3-4.2 2.2-5.2 1.5-.5 15.5-5.9 21.1-16.7 0 0-2.4-1.9-6.1-1.3 0 0 .2 1.6-2.9 2-3 .4-7.8.2-8.3 1.7-.5 1.4 8-1 12.3 1.3 0 0-5.9 6.7-15.8 10.5-3.2.7-4.6 2.4-4.5 6.6l-7.3 6.2H128v2.7h10.2c.1 0 9.2-6.7 9.6-7.8z"/><path fill="#151418" d="M178 15.6l-5.4 14.7 3.2 7.5 1.4 15.4c3.3-7 .8-37.6.8-37.6z"/><path fill="#6E5782" d="M128 96.5h6.2l-1.2-6.8-.1-.5L143 70.8l-7.5-8.1 7.5-21.1s-5.3 6.1-5.3 3.8c0-2.2-2.3-26.2-2.3-26.2s-1.7 24.7-4.1 27.5c-2.1 2.3-3.1 1.8-3.4 1.6v48.2h.1z"/><path fill="#6E5782" d="M146.6 68.4l-1.8 5.6 6.2-6.9 2.1-10.2V18.3c-7 5.9-8.6 23.8-8.6 23.8l2.1 8.3-3-4.5-5.1 15 8.1 7.5z"/><path fill="#6E5782" d="M168.8 45.3c-.3-7.2-6.7-25.4-6.7-25.4 1.3 16 1.1 33.8 1.1 33.8l-6.9 14-12 9.1 2.9 1.1 21.4-18 .2-.2V45.3zm5.2 12.9c.5.4.9.8 1.3 1.2 1 1 1.9 2 2.7 2.9l-.8-9.2-1.4-15.4-4.7 17.7c0 .1 1.3 1.2 2.9 2.8zm5.4 12.4s-4-5.1-9.4-8.6c-.1 0-.1-.1-.2-.1l-4.5 3.4S178.2 78 179 84.7c.1-.1.6-8 .4-14.1z"/><path fill="#CFCFD4" d="M179.5 70.4v.2c-.1 0 0 0 0-.2zm-4.2-11c-.4-.4-.8-.8-1.3-1.2-1.6-1.6-3-2.7-3-2.7l-1.3 3.9c8.7 7.8 9.6 10.4 9.7 11 .1-.7.1-1.4.1-2 .1-2.5 0-3.6 0-3.6v-.1c-.3-.7-.8-1.5-1.6-2.4-.7-.9-1.7-1.9-2.6-2.9zM135 94.6l2.5-1-1.2-3 1.1-.9 23.9-19.1c5.5.7 14.4 10.4 14.4 10.4-2.2-7.5-12.5-15.8-12.5-15.8l-18 15.1-2.2-.4-10 9.3.2.5 1.8 4.9zm.9 7.2c3 .4 2.4-5.3 2.4-5.3h-3s-1 5.3.6 5.3z"/><path fill="#242327" d="M128 139.8s.1 0 0 0v1.9c.4 0 6.4-.2 10.5 0 2.4.1 6.6 3.3 9.4 5.8.2-.7.4-1.4.7-2-2.8-2.4-7-5.6-10-5.7-4-.2-9.8 0-10.6 0zm23.5 8.4s0-.1 0 0c-.1 0-.1.1-.1.1l.1-.1z"/><path fill="#CFCFD4" d="M162.1 124s-.1.1-.2.3c-1.3 2-9.8 15.4-12.8 20.2-.2.3-.4.7-.6 1.1-.3.6-.5 1.2-.7 2-1.8 6.6-1.3 18-1.3 21.4 0 .9-.3 1.7-.8 2.5-1 1.4-2.6 2.6-3.8 3.3.5.6.8 1.2.9 1.8 0 0 1.1-.9 2.4-2.1.1-.1.2-.1.2-.2 1.1-1 2.4-2.3 3.2-3.4.4-.6.7-1.4 1-2.3.2-1 .4-2.1.4-3.3.2-2.5 0-5.3 0-7.3 0-3.2.2-5.4 1.2-9.5v-.2c.2-.7.3-1.5.6-2.3 1.4-5.7 11.7-19.3 11.7-19.3 2.6-1.8 4.5-4.1 5.7-6.1.6-.9 1-1.7 1.3-2.4.5-1 .7-1.7.7-1.7-.3.4-.6.9-1 1.3-2.7 3.3-8.1 6.2-8.1 6.2z"/><path fill="#242327" d="M142.9 176.3c-.1-.6-.4-1.2-.9-1.8-1.2-1.5-3.6-2.7-6.1-2.7H128v4.5h14.9z"/><path fill="#333237" d="M163 181.5c-1.5.7-2.9 1.3-4.4 1.9-4.8 2-9.7 3.5-14.1 4.7-.5.1-1 .3-1.4.4l6.9 4c4-1.1 7.6-2.4 10.8-3.7l2.2-7.3zm-35 10.1v5.5c3.9-.6 7.5-1.2 11-1.9l4-6.7c-8.2 2.1-14.3 3-15 3.1zm43.3-14.6c-2.6 1.7-5.4 3.2-8.3 4.5l6.3 3.4c3.1-1.6 5.7-3.3 8-5l-.6-6.9 6.8 1.7c1.8-1.8 3.3-3.6 4.5-5.2l-4-5.2c2 .3 4.2.7 6.5 1.1 1.6-3.1 2-5.2 2.1-5.6v-.1l-6.2-1.9v.1c-.8 3.7-2.5 7.1-4.8 10-2.7 3.5-6.3 6.5-10.3 9.1z"/><path fill="#D8D8D8" d="M143.1 188.5s6.9 13.5 9.2 25.5c-.4-8.4-2.2-21.5-2.2-21.5l-7-4z"/><path fill="#9E9F9E" d="M143 188.5l-4 6.7 5 7.1 8.2 11.7c-2.2-12-9.2-25.5-9.2-25.5z"/><path fill="#D8D8D8" d="M163 181.5s12.9 13.4 17.6 21.8c-2.4-5.5-11.3-18.4-11.3-18.4l-6.3-3.4z"/><path fill="#9E9F9E" d="M163 181.5l-2.2 7.3 8.5 6.4 11.6 8.7-.3-.6c-4.7-8.4-17.6-21.8-17.6-21.8z"/><path fill="#D8D8D8" d="M176.8 173c12.9 5.7 30.2 18.2 30.2 18.2-5.9-7-23.4-16.5-23.4-16.5l-6.8-1.7z"/><path fill="#9E9F9E" d="M176.8 173l.6 6.9s22.1 7.9 29.6 11.3c0 0-17.3-12.5-30.2-18.2zm7.3-8.7l4 5.2 26.1 2.1 1.7.1s-.9-.3-2.5-.7c-4.5-1.2-14.3-3.8-22.9-5.6-2.2-.4-4.4-.8-6.4-1.1z"/><path fill="#1C1B20" d="M78.6 157.8l6 14-.7 4.5.8.7c2.6 1.7 5.4 3.2 8.3 4.5 1.5.7 2.9 1.3 4.4 1.9l7.1-4.1-3.7-5.1 4.6-5.9.8.1c-.2-1-.4-2.1-.4-3.3l-2.9-5.5s-6.5-8.3-12.1-18.5c-.4 4.1-1 9.7-2.1 10.6-.8.7-10 3.6-19.1 6.4.8 3.7 2.5 7.1 4.8 10l4.2-10.3zm-15.3 2c-6.8 2-12.2 3.6-12.2 3.6s-4 4.1-8.6 7.6c4.5-1.2 14.3-3.8 22.9-5.6-1.6-3-2-5.2-2.1-5.6zm30.2 51.4c-1-4.6-5.2-13-6.8-16L75 203.9l.3-.6c2.4-5.5 11.3-18.4 11.3-18.4-3.1-1.6-5.7-3.3-8-5 0 0-22.1 7.9-29.6 11.3 5.9-7 23.4-16.5 23.4-16.5-1.8-1.8-3.3-3.6-4.5-5.2l-26.1 2.1c-2.1 1.6-4.2 2.9-6.1 3.7-3.3 1.4-13.6 3.4-24.1 6 4.8 10.4 10.8 20 18.1 28.6.8-3.2 1.4-5.2 1.4-5.2l7.4-13.2 3.8 3.6-5 8.1s-1.3 4.7-3.2 11.5c1.7 1.8 3.4 3.5 5.1 5.2 2.6-9.6 4.8-16.7 4.8-16.7l6.5-8.1 4.3 3.4s-3.4 4.1-6 7.7c-1 1.4-3.1 8.8-5.3 17.8 18.6 16.4 42.1 27.5 67.9 30.9-2.6-5.8-8.8-17.8-9-26-.1 0-7.7-11.9-8.9-17.7zm23.5-16l-5 7.1 5.2 10.8s-4.3 7.4-6 14.1c-1.1 4.4 2.8 17.3 8.1 28.4 2.9.2 5.8.3 8.7.3V197c-3.9-.5-7.5-1.1-11-1.8zm-2.5-15.6l-3 8.5c.5.1 1 .3 1.4.4 8.6 2.2 15 3.1 15 3.1v-9.1c.1 0-12.6-4.9-13.4-2.9z"/><path fill="#423251" d="M54.7 198.5l-4.3-3.4-6.5 8.1s-2.2 7.2-4.8 16.7c1.4 1.3 2.8 2.7 4.3 3.9 2.2-9.1 4.3-16.5 5.3-17.8 2.6-3.4 6-7.5 6-7.5zm-12.5-3.3l-3.8-3.6-7.4 13.2s-.5 2-1.4 5.2c1.4 1.7 2.8 3.3 4.3 4.9 1.9-6.8 3.2-11.5 3.2-11.5l5.1-8.2zm69 32.1c1.7-6.7 6-14.1 6-14.1l-5.2-10.8-8.2 11.7c.4-8.4 2.2-21.5 2.2-21.5-4-1.1-7.6-2.4-10.8-3.7l-8.5 6.4c1.6 3.1 5.8 11.4 6.8 16 1.2 5.7 8.9 17.7 8.9 17.7.2 8.2 6.3 20.1 9 26 2.6.3 5.3.6 8 .8-5.4-11.2-9.3-24.1-8.2-28.5zm-26.6-55.4l-6-14-4.2 10.1c2.7 3.5 6.3 6.4 10.3 9l-.8-.7.7-4.4zm29.9 7.7c.7-2 13.5 2.9 13.5 2.9v-6.1h-14.9s-1.1-.9-2.4-2.1h-.1l-.1-.2c-1.1-1-2.4-2.3-3.2-3.4-.4-.6-.7-1.4-1-2.3l-.8-.1-4.6 5.9 3.7 5.1-7.1 4.1c4.8 2 9.7 3.5 14.1 4.7l2.9-8.5z"/><path fill="#1C1B20" d="M78.8 53.1c-3.3-6.9-.8-37.5-.8-37.5l5.4 14.7-3.2 7.5 4.7 17.7 1.3 3.9c-8.7 7.8-9.6 10.4-9.7 11v.2s4-5.1 9.4-8.6l1.5-2.1-.2-.2V45.3c.3-7.2 6.7-25.4 6.7-25.4l-2.4-3s-6.2-3-14.2-2.6c0 0-2.2 16.4-.6 39 0 0-.2 4.9-.3 11.5.3-.7.8-1.5 1.6-2.4l.8-9.3z"/><path fill="#1C1B20" d="M80.7 59.4c.4-.4.8-.8 1.3-1.2-.5.4-.9.8-1.3 1.2zm-3.8 25.2s-.5-7.9-.3-14v-.2c-.1-.7-.1-1.4-.1-2 0 5.9.1 12.4.5 17.8-.1-.5-.1-1-.1-1.6z"/><path fill="#242327" d="M128 139.8v-9.1c-9.2 0-8.4-4.9-17.2-11-6.8-4.7-13.9 1.5-16.8 4.6 1.3 2 9.8 15.4 12.8 20.2.2.3.4.7.6 1.1 2.8-2.4 7-5.6 10-5.7 4.2-.3 10.3-.1 10.6-.1zm-5.1-50.1l.1-.5-.1.5z"/><path fill="#242327" d="M110.9 165.8l6.7-2.4 4.7 8.5h5.8v-31 .9c-.1 0-6.3-.2-10.5 0-2.4.1-6.6 3.3-9.4 5.8 1.8 6.6 1.3 18 1.3 21.4 0 .9.3 1.7.8 2.5 0-2.7.6-5.7.6-5.7z"/><path fill="#242327" d="M105.8 165.1c-.2-2.5 0-5.3 0-7.3 0-3.2-.2-5.4-1.2-9.5l-.1-.1s.1 0 .1-.1c-.2-.7-.3-1.5-.6-2.3-1.4-5.7-11.7-19.3-11.7-19.3-2.6-1.8-4.5-4.1-5.7-6.1l-1.8-1.6.5-.8c-.5-1-.7-1.7-.7-1.7.3.4.6.9 1 1.3l6.6-10.4c-8-7.8-9.6-12.6-9.9-17.5s10.9-6.1 10.9-6.1l6.5 4.3c2.1 1.4 11.4 1.8 18.8 1.8L94.6 70.6C89.1 71.3 80.2 81 80.2 81c2.2-7.5 12.5-15.8 12.5-15.8l18 15.1 2.2-.4 10.2 9.2L113 70.8l7.5-8.1-7.5-21.1s5.3 6.1 5.3 3.8c0-2.2 2.3-26.2 2.3-26.2s1.7 24.7 4.1 27.5 3.4 1.6 3.4 1.6V8.4c-21.8 0-36.4 8.5-36.4 8.5l2.4 3c-1.3 16-1.1 33.8-1.1 33.8l6.9 14 12 9.1-2.9 1.1-21.4-18-1.7 2.1c.1 0 .1-.1.2-.1l4.5 3.4S77.7 78 76.9 84.7v1.6c.4 13.5 3.6 21.1 5.9 34.4 1.1 6.6 4.4 13.9 8 20.4 5.7 10.3 12.1 18.5 12.1 18.5l2.9 5.5zm5.4-91.1l-6.2-6.9-2.1-10.2V18.3c7 5.9 8.6 23.8 8.6 23.8l-2.1 8.3 3-4.5 5.1 15-8.1 7.5 1.8 5.6zm-.6 100.3c0-.1-.1-.1-.1-.2l.1.2z"/><path fill="#17151A" d="M84.9 118.9l1.8 1.6c-.6-.9-1-1.7-1.3-2.4l-.5.8zm9 5.1s.1.1.2.3c2.8-3 9.9-9.3 16.8-4.6 8.8 6.1 8 11 17.2 11v-10.4h-10.3s-9.1-6.7-9.6-7.8c-.5-1.1.3-4.2-2.2-5.2-1.5-.5-15.5-5.9-21.1-16.7 0 0 2.4-1.9 6.1-1.3 0 0-.2 1.6 2.9 2 3 .4 7.8.2 8.3 1.7.5 1.4-8-1-12.3 1.3 0 0 5.9 6.7 15.8 10.5 3.2.7 4.6 2.4 4.5 6.6l7.3 6.2h10.6V96.5h-6.3l1.2-6.8h-.1l-1.8 4.9-2.5-1 1.2-3-1.1-.9c-7.4-.1-16.8-.4-18.8-1.8l-6.5-4.3s-11.2 1.3-10.9 6.1 1.9 9.7 9.9 17.5l-6.6 10.4c2.7 3.5 8.1 6.4 8.1 6.4zm23.8-27.5h3s1 5.3-.6 5.3c-3 .3-2.4-5.3-2.4-5.3z"/><path fill="#584569" d="M120.1 171.9h2.2l-4.7-8.5-6.7 2.4s-.6 3-.6 5.5c1 1.4 2.6 2.6 3.8 3.3 1.2-1.5 3.5-2.7 6-2.7z"/><path fill="#919297" d="M128 117.6h-10.5l-7.3-6.2c.1-4.2-1.3-5.9-4.5-6.6-9.9-3.7-15.8-10.5-15.8-10.5 4.3-2.2 12.8.2 12.3-1.3-.5-1.4-5.3-1.3-8.3-1.7-3-.4-2.9-2-2.9-2-3.7-.6-6.1 1.3-6.1 1.3 5.6 10.9 19.6 16.2 21.1 16.7 2.5.9 1.7 4 2.2 5.2.5 1.1 9.6 7.8 9.6 7.8h10.3l-.1-2.7z"/><path fill="#07040A" d="M83.4 30.2L78 15.6s-2.5 30.7.9 37.6l1.4-15.4 3.1-7.6z"/><path fill="#584569" d="M121.7 96.5h6.3V48.3s-1 1.1-3.4-1.6-4.1-27.5-4.1-27.5-2.3 23.9-2.3 26.2c0 2.2-5.3-3.8-5.3-3.8l7.5 21.1-7.5 8.1L123 89.2l-.1.5-1.2 6.8z"/><path fill="#584569" d="M117.6 60.9l-5.1-15-3 4.5 2.1-8.3S110 24.2 103 18.3v38.6l2.1 10.2 6.2 6.9-1.8-5.6 8.1-7.5z"/><path fill="#584569" d="M87.2 59.8l.2.2 21.4 18 2.9-1.1-12-9.1-6.9-14s-.2-17.9 1.1-33.8c0 0-6.4 18.2-6.7 25.4v14.4zm-8.4-6.7l-.8 9.3c.8-1 1.7-2 2.7-2.9.4-.4.8-.8 1.3-1.2 1.6-1.6 3-2.7 3-2.7l-4.7-17.7-1.5 15.2zm-2.2 17.5c-.2 6.1.3 14 .3 14 .8-6.7 13.7-19.4 13.7-19.4l-4.5-3.4c-.1 0-.1.1-.2.1-5.3 3.6-9.3 8.7-9.3 8.7z"/><path fill="#919297" d="M86.2 59.4l-1.3-3.9s-1.3 1.2-3 2.7c-.4.4-.8.8-1.3 1.2-1 1-1.9 2-2.7 2.9-.7.9-1.3 1.7-1.6 2.4v.1s-.1 1.2 0 3.6c0 .6.1 1.3.1 2 .2-.6 1.1-3.2 9.8-11zm-9.6 11.2v-.2c-.1.2 0 .2 0 .2zm41.9 23l2.5 1 1.8-4.9.2-.5-10.2-9.2-2.2.4-18-15.1s-10.3 8.3-12.5 15.8c0 0 8.9-9.7 14.4-10.4l23.9 19.1 1.1.9-1 2.9zm1.6 8.2c1.6 0 .6-5.3.6-5.3h-3s-.6 5.6 2.4 5.3z"/><path fill="#17151A" d="M117.5 141.7c4.2-.2 10.5 0 10.5 0v-1.9c-.3 0-6.4-.2-10.6 0-3 .1-7.2 3.3-10 5.7.3.6.5 1.2.7 2 2.8-2.5 7-5.7 9.4-5.8zm-13 6.5l.1.1c0-.1 0-.1-.1-.1 0-.1 0 0 0 0z"/><path fill="#919297" d="M110.4 174c.1.1.2.1.2.2 1.3 1.2 2.4 2.1 2.4 2.1.1-.6.4-1.2.9-1.8-1.2-.7-2.8-1.8-3.8-3.3-.5-.7-.8-1.6-.8-2.5 0-3.4.5-14.8-1.3-21.4-.2-.7-.4-1.4-.7-2-.2-.4-.4-.8-.6-1.1-2.9-4.7-11.5-18.1-12.8-20.2-.1-.2-.2-.3-.2-.3s-5.4-2.9-8.3-6.4c-.4-.4-.7-.9-1-1.3 0 0 .2.7.7 1.7.3.7.7 1.5 1.3 2.4 1.2 2 3 4.3 5.7 6.1 0 0 10.2 13.6 11.7 19.3.2.8.4 1.6.6 2.3v.2c.9 4.1 1.2 6.3 1.2 9.5 0 2-.1 4.8 0 7.3.1 1.2.2 2.3.4 3.3.2.9.5 1.7 1 2.3 1 1.4 2.3 2.6 3.4 3.6z"/><path fill="#242327" d="M128 171.9h-7.9c-2.5 0-4.9 1.2-6.1 2.7-.5.6-.8 1.2-.9 1.8h15v-4.5h-.1z"/><path fill="#28272C" d="M112.9 188.5c-.5-.1-1-.3-1.4-.4-4.4-1.2-9.3-2.7-14.1-4.7-1.5-.6-3-1.2-4.4-1.9l2.2 7.3c3.3 1.3 6.9 2.6 10.8 3.7l6.9-4zm-41-24.2l-4 5.2c1.2 1.6 2.7 3.4 4.5 5.2l6.8-1.7-.6 6.9c2.3 1.7 5 3.3 8 5l6.3-3.4c-2.9-1.3-5.7-2.8-8.3-4.5-4-2.6-7.6-5.6-10.3-9-2.3-3-4-6.3-4.8-10v-.1l-6.2 1.9v.1c.1.4.5 2.6 2.1 5.6 2.3-.5 4.5-.9 6.5-1.2zm41.1 24.2l4 6.7c3.4.7 7.1 1.3 11 1.9v-5.5s-6.4-.9-15-3.1z"/><path fill="#797A7A" d="M113 188.5l-7 4s-1.9 13.1-2.2 21.5c2.2-12 9.2-25.5 9.2-25.5z"/><path fill="#9E9F9E" d="M113 188.5s-6.9 13.5-9.2 25.5l8.2-11.7 5-7.1-4-6.7z"/><path fill="#797A7A" d="M93 181.5l-6.3 3.4s-8.9 12.9-11.3 18.4c4.7-8.4 17.6-21.8 17.6-21.8z"/><path fill="#9E9F9E" d="M93 181.5s-12.9 13.4-17.6 21.8l-.3.6 11.6-8.7 8.5-6.4-2.2-7.3z"/><path fill="#797A7A" d="M79.2 173l-6.8 1.7s-17.5 9.5-23.4 16.5c0 0 17.3-12.5 30.2-18.2z"/><path fill="#9E9F9E" d="M79.2 173C66.3 178.7 49 191.2 49 191.2c7.5-3.4 29.6-11.3 29.6-11.3l.6-6.9zm-11.3-3.5l4-5.2c-2 .3-4.2.7-6.5 1.1-8.6 1.7-18.4 4.3-22.9 5.6-1.5.4-2.5.7-2.5.7l1.7-.1 26.2-2.1z"/></svg>