<svg xmlns="http://www.w3.org/2000/svg" width="256" height="256"><circle fill="#B1B3B5" cx="128" cy="128" r="128"/><path fill="#7B5042" d="M167.4 118.9c-.4 1.3-.9 2.5-1.3 3.4-3.4 7.4-7.6 13.6-12 18.8-.2 1.2-.3 2.5-.5 3.9 5 .4 3.2 11.9 4.2 14.1 1 2.2 6.1 3.5 6.1 3.5l-.5.9 2.1 1.8.7-1.1s4.9 4.3 13 8.8c2.3 1.2 4.8 2.4 7.4 3.8 2.1 1 4.3 1.9 6.7 2.7 3.4 1.2 6.7 2.4 9.8 3.5l2.1-4.1c8.3-10.5 1.9-20-5.7-31-1-1.4-1.9-3.3-2.7-5.6-.3.1-.6.1-.9.2-5 .9-20.6-11.9-28.5-23.6zm-38.7-99.7c11.9 1.7 20.7 7.2 20.7 7.2v.3c7 .9 19.3 4.3 22.7 17.3 3.9 14.8 5.4 28.3 7.8 36.5 3 2.7 6.6 5.1 9.8 7.7v-2.5c0-8.6-10.5-29.1-17.6-53-7-23.9-26.2-18.5-26.2-18.5-2.8-3.8-13.5-4.6-17.7-4.7v9.6c.2 0 .4.1.5.1z"/><path fill="#623E32" d="M44.9 162.8s0 .1.1.2c4.4-1.7 8.3-5.7 11-9.2-4.6 1.6-9.6 2.8-13.6 3.3.4 4.4 2.5 5.7 2.5 5.7zm56.7-138.3c8.8-5.5 18.1-6.4 26.2-5.4.2 0 .3 0 .5.1V9.5S97.6 4.1 83.6 26.4C70.6 47 62.2 66.9 58.8 80.3c3.1-1.3 6.7-2.6 10.5-3.9 7.1-16.6 20.4-44.4 32.3-51.9zM60.4 130.2c3.7-4.1 3.3-17.8 3.1-28.5-3 .3-5.9.4-8.3.3-1.6 11.5-3.6 24.7-8 35.8 4.3-.8 9.3-3.3 13.2-7.6zm29.5 34.1l1 1.7 2.1-1.8-.9-1.4s5.1-1.3 6.1-3.5-.9-13.7 4.2-14.1c-.2-1.4-.3-2.7-.5-3.9-4.4-5.2-8.6-11.4-12-18.8-.6-1.4-1.2-3.1-1.8-5 .4 2.2.7 3.7.7 4.5 0 .9-.7 2.2-1.9 3.8-.3 2.8-.9 5.8-1.9 8.7-4.5 12.5-16.3 36.4-30 40.2-3.4 1-6.9 1.2-10.3.9-.8 1.4-1.9 2.5-3.6 3.3 0 0 9.9 6.1 18.5 1 0 0 0 .4-.2 1.1 1.1-.4 2.3-.8 3.4-1.2 16.1-5.9 27.1-15.5 27.1-15.5z"/><path fill="#BEA195" d="M127.8 159.7c-8.1 0-6.9-1.1-14.9-7.7-3.7-3-7.4-6.6-11-10.9.2 1.2.3 2.5.5 3.9h.1s2.2 9 5 12.2c2.9 3.2 10.9 5.1 11.5 11.8.6 6.7 6.4 71.2 6.4 71.2l2.4 3.5v-84z"/><path fill="#CCAD9F" d="M112.9 152.1c8 6.6 6.8 7.6 14.9 7.7v-19.9c-11.5-.1-13.9-4.2-13.9-4.2 2.8-.9 3.1-1.7 5.8-4 1.4-1.5 3.9-2.3 5.9-1.4.8.7 1.7.9 2.2.9V48.9c-3.8 3.9-6.7 9.1-10.2 14-3.5 4.8-9.5 11.6-16.2 18.1 6.9-.3 13.2 2.5 14.1 3.1 1.3.9 1.7 4.3 1.7 4.3s-4.8-1.1-8.4-3.5c-1.9-1.3-6.2-1.7-9.7-1.8-4.8 4.5-9.7 8.6-14.2 11.7.5 8.6 2.3 17.4 3.3 22.7.6 1.9 1.2 3.6 1.8 5 3.4 7.4 7.6 13.6 12 18.8 3.5 4.1 7.2 7.7 10.9 10.8z"/><path fill="#884251" d="M125.5 130.2c-2-.9-4.5-.1-5.9 1.4-2.7 2.4-2.9 3.1-5.8 4 0 0 2.4 4.1 13.9 4.2V131c-.5.1-1.3-.1-2.2-.8z"/><path fill="#CCAD9F" d="M154.1 141.2c-3.6 4.3-7.3 7.9-11 10.9-8.1 6.7-6.7 7.7-15.3 7.7v84.1l.2.3 2.6-3.8s5.7-64.5 6.4-71.2c.6-6.7 8.6-8.6 11.5-11.8 2.9-3.2 5-12.2 5-12.2h.1c.2-1.5.3-2.8.5-4z"/><path fill="#DEBCAD" d="M135.2 44c-1.4.4-2.6 1-3.7 1.8-1.4 1-2.6 2.3-3.7 3.9v81.4s1.4.2 2.7-.9c2-.9 4.5-.1 5.9 1.4 2.7 2.4 2.9 3.1 5.8 4 0 0-2.5 4.3-14.4 4.3v19.9c8.6 0 7.2-1 15.3-7.7 3.7-3 7.4-6.6 11-10.9 4.4-5.2 8.6-11.4 12-18.8.5-1 .9-2.1 1.3-3.4-2-2.9-3.5-5.7-4.2-8.2-2.7-9.1-4-18.4-4.6-27.7-3.8 0-9.7.3-12.1 1.8-3.7 2.4-8.4 3.5-8.4 3.5s.4-3.5 1.7-4.3c1.1-.8 10.3-4.8 18.7-2.4-.2-3.3-.3-6.6-.4-9.8-.3-11.2-.2-21.9-9.7-27.6-1.4-.1-3.1.1-5.6.4h-.3v-.1c-2.8-1-5.2-1.1-7.3-.6z"/><path fill="#9D4D5E" d="M142.1 135.6c-2.8-.9-3.1-1.7-5.8-4-1.4-1.5-3.9-2.3-5.9-1.4-1.3 1.1-2.7.9-2.7.9v8.8c12 0 14.4-4.3 14.4-4.3z"/><path fill="#86584E" d="M55 174.6c13.7-3.8 25.5-27.8 30-40.2 1-2.9 1.6-5.9 1.9-8.7-4.6 6-15.9 15.7-18.2 20.5-1.3 2.7-6.6 5.5-12.7 7.7-2.7 3.5-6.6 7.4-11 9.2-2.9 1.1-6 1.3-9.2-.2-6.2-3-4.8-5.1-1.7-6.5-1.5-.9-2.3-2.3-2.8-3.8-4.4 1.2-8.5 3.6-7.4 8.4 1.7 7.4 10.6 13.6 20.7 14.6 3.4.2 6.9-.1 10.4-1z"/><path fill="#7A4F46" d="M143.9 30.4l.5-4s2.1-.1 5.1.3v-.3s-8.9-5.5-20.7-7.2c8.9 1.7 15.5 7.2 15.5 7.2l-.4 4zm-42.3-5.9C89.7 32 76.4 59.8 69.3 76.4c2.9-1 5.9-2.1 9-3.4 14-5.7 40.2-30.3 46.3-37 .9-.9 2-1.6 3.2-2.1V19.1c-8.1-1-17.4-.1-26.2 5.4zM34.1 156.3c.5.3 1 .6 1.7.7 1.5.4 3.8.4 6.5.1 4.1-.5 9.1-1.7 13.6-3.3 6.1-2.1 11.4-5 12.7-7.7 2.3-4.8 13.6-14.5 18.2-20.5 1.2-1.5 1.9-2.9 1.9-3.8 0-.8-.3-2.4-.7-4.5-1-5.3-2.8-14-3.3-22.7-2.5 1.7-4.8 3-6.9 3.8-4.3 1.8-9.5 2.7-14.4 3.1.2 10.7.5 24.4-3.1 28.5-3.9 4.4-8.9 6.8-13.2 7.7-2 .4-3.8.5-5.4.3-4.8-.6-11.2 2.9-10.9 5.4.2 1.6-.6 5.6.4 8.8.6 1.8 1.5 3.2 2.9 4.1z"/><path fill="#86584E" d="M170 83.6c-5.3-9.1-9.6-32.6-14.4-35.9-3.2-2.2-4.5-3.3-7.3-3.5 9.5 5.7 9.4 16.5 9.7 27.6.1 3.3.2 6.6.4 9.8 1.2.4 2.4.8 3.6 1.5 0 0-1.4-.1-3.5-.1.6 9.3 1.9 18.6 4.6 27.7.8 2.5 2.3 5.3 4.2 8.2 7.9 11.7 23.5 24.5 28.4 23.7.3 0 .6-.1.9-.2 5.2-1.4 5.3-7.1 7.4-11.9 2.2-5.1-2.6-22.7-5.1-24.9-.5-.5-1.4-1.3-2.4-2.3-2.2-1.2-21.5-11.2-26.5-19.7z"/><path fill="#86584E" d="M144.4 26.4l-.5 4-.3 3.9c1 .2 1.8.5 2.6.7 5.1-1.5 15-2.9 19.3 6.8 6 13.4 6.7 31.6 14.4 38.6l.1.1c-2.4-8.3-3.9-21.7-7.8-36.5-3.4-13-15.7-16.4-22.7-17.3-3.1-.4-5.1-.3-5.1-.3z"/><path fill="#37353D" d="M55.4 193.1s35.1-15.6 42.5-21.1l-4.9-7.9-2.1 1.8 2.6 4.3c-4.6 3.8-25.1 13.4-38.1 18.4-12.9 5-21.1 12.7-21.1 12.7l-2.4-4.1-.9 2.6c.6 1.2 4.4 9.6 9.3 21.4 1.7 1.6 3.5 3.2 5.3 4.7-4.9-12.6-8.8-21.9-8.8-21.9 4.8-5 14.6-8.4 14.6-8.4s11.7 25.5 21 47.7c1.9.9 3.9 1.8 5.9 2.7-9-21.1-22.9-52.9-22.9-52.9z"/><path fill="#28262D" d="M128 244.2l-.2-.3-2.4-3.5s-5.7-64.5-6.4-71.2c-.6-6.7-8.6-8.6-11.5-11.8-2.9-3.2-5-12.2-5-12.2h-.1c-5 .4-3.2 11.9-4.2 14.1-1 2.2-6.1 3.5-6.1 3.5l.9 1.4 4.9 7.9c-7.3 5.4-42.5 21.1-42.5 21.1s13.9 31.8 22.9 52.9c15.2 6.4 31.9 10 49.5 10v-11.5l.2-.4zm-76.6-48.5s-9.8 3.4-14.6 8.4c0 0 3.9 9.3 8.8 21.9 8.1 6.9 17.1 12.7 26.8 17.4-9.3-22.3-21-47.7-21-47.7z"/><path fill="#28262D" d="M55.4 188.7c12.9-5 33.5-14.6 38.1-18.4l-2.6-4.3-1-1.7s-11 9.6-27.1 15.3c-1.2.4-2.3.8-3.4 1.2-14.6 5.2-27.3 10-28.2 15.3l.7 1.2 2.4 4.1c.1 0 8.2-7.7 21.1-12.7zm-24.4 11c-1.7 1.5-2.9 4-3.8 7.1 4 5.1 8.4 9.9 13.2 14.4-4.9-11.8-8.7-20.1-9.3-21.4-.1 0-.1-.1-.1-.1z"/><path fill="#3F3D45" d="M226.3 201.2l-1.6-4.9-3 5.1s-8.1-7.7-21.1-12.7c-12.9-5-33.5-14.6-38.1-18.4l2.9-4.8-2.1-1.8-5.2 8.4c7.3 5.4 42.5 21.1 42.5 21.1s-13.9 31.8-22.9 52.9c2-.8 3.9-1.7 5.9-2.7 9.3-22.2 21-47.7 21-47.7s9.8 3.4 14.6 8.4c0 0-3.9 9.3-8.8 21.9 1.8-1.5 3.5-3.1 5.3-4.7 5.3-12.8 9.3-21.5 9.3-21.5.5.3.9.8 1.3 1.4z"/><path fill="#3F3D45" d="M179.1 173.1c2.2 1.3 4.7 2.5 7.4 3.8-2.6-1.3-5.1-2.6-7.4-3.8z"/><path fill="#302E35" d="M200.6 193.1s-35.1-15.6-42.5-21.1l5.2-8.4.5-.9s-5.1-1.3-6.1-3.5.9-13.7-4.2-14.1h-.1s-2.2 9-5 12.2c-2.9 3.2-10.9 5.1-11.5 11.8-.6 6.7-6.4 71.2-6.4 71.2l-2.6 3.8-.2.3V256h.2c17.6 0 34.4-3.6 49.7-10 9.1-21.1 23-52.9 23-52.9zm4 2.6s-11.7 25.5-21 47.7c9.7-4.7 18.7-10.5 26.8-17.4 4.9-12.6 8.8-21.9 8.8-21.9-4.7-5.1-14.6-8.4-14.6-8.4z"/><path fill="#302E35" d="M186.5 176.9c-2.7-1.2-5.2-2.5-7.4-3.8-8.1-4.6-13-8.8-13-8.8l-.7 1.1-2.9 4.8c4.6 3.8 25.1 13.4 38.1 18.4 12.9 5 21.1 12.7 21.1 12.7l3-5.1.1-.2c-.8-4.5-10-8.6-21.8-13-3.1-1.2-6.4-2.3-9.8-3.5-2.4-.7-4.6-1.7-6.7-2.6zm38.5 22.8s-4 8.8-9.3 21.5c4.7-4.5 9.2-9.3 13.2-14.4-.6-2.3-1.5-4.2-2.5-5.7-.5-.5-.9-1-1.4-1.4z"/><path fill="#86584E" d="M133.2 33c3.6-.1 7.5.7 10.4 1.4l.3-3.9.3-4s-6.6-5.5-15.5-7.2c-.2 0-.3-.1-.5-.1s-.3 0-.5-.1v14.8c.3-.1.7-.2 1-.3 1.4-.5 2.9-.7 4.5-.6z"/><path fill="#7B5042" d="M139.8 84c-1.3.9-1.7 4.3-1.7 4.3s4.8-1.1 8.4-3.5c2.4-1.5 8.3-1.8 12.1-1.8 2 0 3.5.1 3.5.1-1.2-.7-2.4-1.2-3.6-1.5-8.4-2.4-17.5 1.6-18.7 2.4z"/><path fill="#623E32" d="M108.8 84.8c3.7 2.4 8.4 3.5 8.4 3.5s-.4-3.5-1.7-4.3c-.9-.6-7.3-3.4-14.1-3.1-.8.7-1.5 1.5-2.3 2.2 3.5.1 7.8.5 9.7 1.7z"/><path fill="#86584E" d="M63.5 101.7c4.9-.4 10.1-1.4 14.4-3.1 2.1-.8 4.4-2.2 6.9-3.8 4.5-3 9.5-7.2 14.2-11.7.8-.7 1.5-1.5 2.3-2.2 6.7-6.5 12.7-13.3 16.2-18.1 3.5-4.9 6.4-10.1 10.2-14V34c.3-.2.7-.3 1-.5-.3.1-.7.2-1 .3-1.2.5-2.3 1.1-3.2 2.1-6.1 6.7-32.3 31.3-46.3 37-3 1.2-6.1 2.3-9 3.4-3.8 1.4-7.4 2.6-10.5 3.9-5.4 2.3-9.4 4.9-10.5 8.7 0 0 1.6 2.9 1 5.7-.6 2.9-3.2 5.4-2.2 6.4.4.4 3.7.8 8.2.9 2.5.2 5.3.1 8.3-.2zm68-55.9c1.1-.7 2.4-1.3 3.7-1.8-1.3.4-2.6 1-3.7 1.8zm1.7-12.8c5.1.2 10.5 2.8 10.5 2.8v.2c.6-.2 1.4-.6 2.5-.9-.7-.2-1.6-.5-2.6-.7-3-.8-6.8-1.5-10.4-1.4z"/><path fill="#9A655A" d="M142.8 44.6s-.1 0 0 0c-.1 0 0 0 0 0zm-11.3 1.2c1.1-.8 2.4-1.4 3.7-1.8 2.1-.5 4.4-.4 7.3.5l.5-8.3s.2-.1.7-.3v-.2s-5.4-2.6-10.5-2.8c-1.6-.1-3.1.1-4.4.6-.4.1-.7.3-1 .5v15.6c1.1-1.5 2.3-2.8 3.7-3.8z"/><path fill="#9A655A" d="M179.8 80.5c-7.7-6.9-8.4-25.1-14.4-38.6-4.3-9.7-14.2-8.3-19.3-6.8-1.1.3-2 .7-2.5.9-.4.2-.7.3-.7.3l-.5 8.3v.1h.3c2.5-.4 4.2-.5 5.6-.4 2.8.2 4.1 1.3 7.3 3.5 4.8 3.4 9.1 26.8 14.4 35.9 5 8.6 24.3 18.6 26.5 19.7.1.1.2.1.2.1 1.9-6.4-2-11-7-15.1-3.2-2.7-6.8-5.2-9.9-7.9.1 0 .1 0 0 0z"/></svg>