<svg id="Layer_1" xmlns="http://www.w3.org/2000/svg" width="256" height="256"><style>.st1{fill:#574a3e}.st3{fill:#20201d}.st7{fill:#484a4c}.st9{fill:#353439}.st17{fill:#ac9388}.st18{fill:#0f0e0a}.st19{fill:#272e38}.st22{fill:#2a292d}.st24{fill:#cdaea0}.st26{fill:#684c49}.st28{fill:#6e5e4f}</style><g id="XMLID_1_"><circle id="XMLID_69_" cx="128" cy="128.2" r="128" fill="#b2b4b5"/><g id="XMLID_9_"><path id="XMLID_67_" class="st1" d="M89.2 133.7c.4 3.5 1.4 7 2.5 9.9 1.1-2.6 2.9-5 6-6.4-2.6-4.5-5.1-9.5-7.1-14.6-1 3.8-1.7 7.9-1.4 11.1z"/><path id="XMLID_68_" class="st1" d="M99.3 144.8c.3-1.2.6-2.4.9-3.5-.2-.3-.3-.5-.5-.8l-.4 1.4c-.1 1-.1 2 0 2.9z"/><path id="XMLID_76_" d="M142.6 160.3c1.8-.1 4.2-.4 6.6-1.7-.9-1.8-1.1-3.8-1.2-5.3 0 .1-.1.1-.1.2-6 8.9-19.9 6.5-19.9 6.5v50.8l4.1-4.1c.1-2.4.5-4.7 1-7 .8-9.2 2.1-25.3 2.8-29.9 1-6.4 1.7-9.3 6.7-9.5z" fill="#bca094"/><path id="XMLID_77_" class="st3" d="M132.1 207.2v-.5l-4.1 4.1v45.4c1.3 0 2.5 0 3.8-.1-.1-22 0-42.2.3-48.9z"/><path id="XMLID_78_" class="st3" d="M149.2 158.7c-2.3 1.2-4.7 1.6-6.6 1.7-5 .1-5.7 3.1-6.7 9.5-.7 4.5-2.1 20.7-2.8 29.9 3-12.9 11.5-22.4 17.2-28.2 2.3-2.4 4.2-5.2 5.8-8-1.5-.4-2.8-1-3.9-1.5-1.4-1-2.4-2.1-3-3.4z"/><path id="XMLID_79_" d="M134.5 239v-4.5c6.4-.3 3.7-.2 10.5 2.3 6.9 2.5 21.2 0 21.2 0h1v-20.4s.1-.1.4-.3c-4.5-.5-22.9-2.6-32.2-5.8 0 0 8.8-35.6 19.3-39.3 0 0 26.5 15.8 44.2 22.2 3.6 1.3 6.8 2.5 9.7 3.6-5.7-10.8-11.1-19.1-11.1-19.1-9.1-3.9-18.8-8.5-24.1-12.4l-.4-3c-5.7 2.6-12.3 2.4-17.1 1-1.6 2.9-3.5 5.7-5.8 8-5.7 5.9-14.2 15.3-17.2 28.2-.5 2.2-.8 4.5-1 7v.5c-.3 6.7-.3 26.9-.3 48.9 18.8-.5 36.6-5.1 52.5-12.9-21.3-3-49.6-4-49.6-4z" fill="#373e4a"/><path id="XMLID_80_" d="M154.8 171.1c-10.5 3.7-19.3 39.3-19.3 39.3 9.3 3.2 27.7 5.3 32.2 5.8 1-.6 3.8-2 7.3.3v1.4c7.2-.6 23.1-.9 36.2 4.9 1.9-3.6 3.6-7 5.2-9.9-2.3-5.5-5-11-7.6-15.9-2.9-1.1-6.1-2.3-9.7-3.6-17.8-6.5-44.3-22.3-44.3-22.3z" fill="#2b2b2d"/><path id="XMLID_81_" d="M174.9 238s-2.9 3.7-7.7 0v-1.2h-1s-14.4 2.5-21.2 0c-6.9-2.5-4.2-2.6-10.5-2.3v4.5s28.3 1 49.8 4.2c2.5-1.2 4.9-2.5 7.3-3.9-4.3-.8-9.8-1.4-16.6-1.7v.4z" fill="#212732"/><path id="XMLID_83_" class="st7" d="M174.9 217.8v19.8c6.8.2 12.3.9 16.6 1.7 6-3.5 11.8-7.4 17.2-11.8.8-1.6 1.7-3.2 2.5-4.8-13.2-5.8-29.1-5.4-36.3-4.9z"/><path id="XMLID_84_" d="M167.6 216.2c-.2.2-.4.3-.4.3v21.6c4.8 3.7 7.7 0 7.7 0v-21.6c-3.4-2.4-6.3-.9-7.3-.3z" fill="#737376"/><path id="XMLID_85_" class="st9" d="M230 205.4c2.5-3.3 4.8-6.7 7-10.2-5.6-1.7-10.3-3.6-12.9-4.7 1.9 3.6 4.1 9.4 5.9 14.9z"/><path id="XMLID_86_" class="st9" d="M216.3 212.9c-1.5 2.9-3.3 6.2-5.2 9.9-.8 1.6-1.6 3.2-2.5 4.8 3.4-2.8 6.7-5.8 9.9-8.9-.6-2-1.4-3.9-2.2-5.8z"/><path id="XMLID_87_" d="M222.7 188s-6.7-8.5-25.1-10.1c0 0 5.4 8.2 11.1 19.1 2.6 5 5.3 10.5 7.6 15.9.8 1.9 1.6 3.8 2.2 5.7 4.1-4.1 8-8.5 11.5-13.2-1.9-5.6-4-11.3-5.9-14.9-.4-1-.9-1.8-1.4-2.5z" fill="#48464c"/><path id="XMLID_90_" d="M165.9 114.6c1.9-9.1 4.6-21.7 2.1-31.6-2.6-9.9-3.8-12-4.3-18.4s-5.4-15.3-14.8-18.5-10.6 1.3-20.8 1.3V132s1.6.3 3.1-1c2.2-1 5.1-.1 6.7 1.6 3.1 2.7 3.3 3.5 6.5 4.6 0 0-2.8 4.8-16.3 4.8v18s13.9 2.4 19.9-6.5c0-.1.1-.1.1-.2v-1.9s15.9-27.7 17.8-36.8zM154 81.2c5.3.2 9.3 3.3 9.3 3.3s-3.1 1.7-7.4.3c-4.3-1.4-19.9 3.6-19.9 3.6 2.7-4.3 18-7.2 18-7.2z" fill="#dfbdad"/><path id="XMLID_91_" d="M144.3 137.1c-3.2-1.1-3.5-1.9-6.5-4.6-1.6-1.7-4.4-2.6-6.7-1.6-1.5 1.3-3.1 1-3.1 1v10c13.5 0 16.3-4.8 16.3-4.8z" fill="#9e4d5d"/><path id="XMLID_92_" d="M155.9 84.8c4.3 1.4 7.4-.3 7.4-.3s-4.1-3.1-9.3-3.3c0 0-15.3 2.9-18 7.2 0 0 15.6-5 19.9-3.6z" fill="#7e5d59"/><path id="XMLID_95_" d="M148.2 33.8s-7.9.8-10 3.2c0 0 14.8.5 21.5 7.2 0 0-1.9-3.2-6.5-5.7 0 0 5.3-.1 9.4 7.1 4.2 7.2 3.4 6.7 3.4 6.7s-5.3-5.9-10.7-6.5c0 0 9.9 8.9 12.1 13.7l-5.1-3.2s6.7 12.6 8.3 24.9c1.6 12.3 1.3 15.6 4 19.8 2.7 4.2 1 15.5 1 15.5s-1.1-4.8-3.4-8.9c0 0-3.4 23-8.1 32.4s-10.7 10.2-10.4 9.7c.3-.5 2.6-4.6 2.6-9.4 0 0-4 9.3-8.1 11.2 0 0-.1.8 0 1.9 0 1.4.3 3.5 1.2 5.3.6 1.3 1.6 2.5 3 3.3 1.1.6 2.4 1.1 3.9 1.5 4.8 1.4 11.4 1.7 17.1-1 3.4-1.6 6.5-4.2 8.8-8.2v5s4.1-3.1 4.8-6.2l-1.2 5.5s6-1.4 6.7-16.6c.7-15.2 4.8-36.8-5.3-64.1-10.1-27.3-21.6-73.5-55.1-67.1L128 8.5V36s11.7-3.5 20.2-2.2zm25.4 27.3c2.7 8 10.4 17.7 10.4 17.7l-5.3-5.1s3.1 7.5 5.7 11.1c2.6 3.6 3.7 15.2 3.7 15.2-1.1-4.6-4-9.4-4-9.4 1.6 8.1 1.6 24.3 1.9 30.2.3 5.9 2.9 16.3 3 21.1.2 4.8-4.6 9.5-4.6 9.5 1.1-1.9 1.3-19 .6-15.2-.6 3.8-3.2 7.9-3.2 7.9.5-4.8-2.2-15.5-2.2-15.5 1.3 2.2 3.4 5.9 3.4 5.9s0-3.7-2.1-8.9c-2.1-5.3.3-7.8 1.1-13.6.8-5.7-.3-18.7-3.3-32.1-2.9-13.4-17.3-42.1-17.3-42.1 8.5 8 9.5 15.3 12.2 23.3z" fill="#c4ad9d"/><path id="XMLID_96_" d="M128 44.1v3.3c10.3 0 11.4-4.5 20.8-1.3s14.4 12.1 14.8 18.5 1.8 8.5 4.3 18.4c2.6 9.9-.2 22.5-2.1 31.6-1.9 9.1-17.9 36.9-17.9 36.9 4.2-1.9 8.1-11.2 8.1-11.2 0 4.8-2.2 8.9-2.6 9.4-.3.5 5.6-.3 10.4-9.7s8.1-32.4 8.1-32.4c2.2 4.2 3.4 8.9 3.4 8.9s1.8-11.3-1-15.5c-2.7-4.2-2.4-7.5-4-19.8S162 56.3 162 56.3l5.1 3.2c-2.2-4.8-12.1-13.7-12.1-13.7 5.4.6 10.7 6.5 10.7 6.5s.8.5-3.4-6.7-9.4-7.1-9.4-7.1c4.6 2.5 6.5 5.7 6.5 5.7-6.7-6.7-21.5-7.2-21.5-7.2 2.1-2.4 10-3.2 10-3.2C139.7 32.5 128 36 128 36v8.1z" fill="#877362"/><path id="XMLID_97_" d="M181.9 112c-.8 5.7-3.2 8.3-1.1 13.6 2.1 5.3 2.1 8.9 2.1 8.9s-2.1-3.7-3.4-5.9c0 0 2.7 10.7 2.2 15.5 0 0 2.6-4.1 3.2-7.9.6-3.8.5 13.3-.6 15.2 0 0 4.8-4.7 4.6-9.5-.2-4.8-2.7-15.2-3-21.1-.3-5.9-.3-22-1.9-30.2 0 0 2.9 4.8 4 9.4 0 0-1.1-11.7-3.7-15.2-2.6-3.6-5.7-11.1-5.7-11.1l5.3 5.1s-7.7-9.7-10.4-17.7-3.7-15.3-12.3-23.3c0 0 14.4 28.7 17.3 42.1 3.1 13.5 4.2 26.4 3.4 32.1z" fill="#b29e90"/><path id="XMLID_98_" class="st17" d="M128 160s-11.8 2-18.3-4.6c-.3.7-1 2.1-2 3.6 2.1.9 4.1 1.2 5.7 1.3 5 .1 5.7 3.1 6.7 9.5.7 4.5 2.1 20.7 2.8 29.9.5 2.2.8 4.5 1 7l4.1 4.1V160z"/><path id="XMLID_99_" class="st17" d="M106.1 150.6c-1.1 1.3-2.5 2.5-4.3 3.3.6.9 1.2 1.7 1.8 2.4 2.2 0 4.3-.2 5.8-1.1-.5-.5-.9-1.1-1.3-1.7-.6-.8-1.3-1.8-2-2.9z"/><path id="XMLID_100_" class="st17" d="M99.3 144.8c.1 2.1.4 4 .9 5.6 1.5-.4 2.9-1.2 4.3-2.2-1.4-2.1-2.9-4.4-4.4-6.9-.2 1.1-.5 2.3-.8 3.5z"/><path id="XMLID_101_" class="st18" d="M99.3 141.9s-4.6 3.5-4.3 7.5c0 .4.1.8.2 1.3 1.7.2 3.4 0 5.1-.5-.5-1.6-.8-3.4-.9-5.6-.2-.7-.2-1.7-.1-2.7z"/><path id="XMLID_102_" class="st18" d="M128 210.8l-4.1-4.1v.5c.3 6.7.3 26.9.3 48.9 1.3 0 2.5.1 3.8.1v-45.4z"/><path id="XMLID_103_" class="st18" d="M120.1 169.8c-1-6.5-1.7-9.4-6.7-9.5-1.6 0-3.7-.4-5.7-1.3-1.5 2.1-3.8 4.5-7 5.7 1.4 2.4 3.1 4.7 5 6.7 5.7 5.9 14.2 15.3 17.2 28.2-.8-9.1-2.1-25.2-2.8-29.8z"/><path id="XMLID_104_" class="st18" d="M96.2 154.9c0 .2.1.3.2.5 2 .4 4.7.9 7.3.9-.7-.7-1.3-1.5-1.8-2.4-1.7.7-3.5 1.1-5.7 1z"/><path id="XMLID_105_" class="st19" d="M123.9 207.2v-.5c-.1-2.4-.5-4.7-1-7-3-12.9-11.5-22.4-17.2-28.2-1.9-2-3.6-4.3-5-6.7-3.7 1.4-8.6 1.4-15-2.1 0 0-1.1.3-2.9.4l-.3 2.4c-5.4 3.9-15 8.5-24.1 12.4 0 0-5.4 8.2-11.1 19.1 2.9-1.1 6.1-2.3 9.7-3.6 17.7-6.4 44.2-22.2 44.2-22.2 10.5 3.7 19.3 39.3 19.3 39.3-9.3 3.2-27.7 5.3-32.2 5.8.2.2.4.3.4.3V237h1s14.4 2.5 21.2 0c6.9-2.5 4.2-2.6 10.5-2.3v4.5s-28.3 1-49.8 4.2c15.9 7.8 33.7 12.4 52.5 12.9.2-22.2.1-42.4-.2-49.1z"/><path id="XMLID_106_" class="st19" d="M99.3 141.9l.4-1.4c-.6-1.1-1.3-2.2-1.9-3.3-3.1 1.4-4.9 3.8-6 6.4 1.6 4.3 3.4 7.2 3.4 7.3-.1-.5-.2-1-.2-1.3-.3-4.2 4.3-7.7 4.3-7.7z"/><path id="XMLID_107_" class="st19" d="M96.2 154.9c-.9 0-1.9-.1-2.9-.3 0 0 1.2.4 3.1.7-.1 0-.2-.2-.2-.4z"/><path id="XMLID_108_" class="st3" d="M44.9 222.8c13.1-5.9 29-5.5 36.2-4.9v-1.4c3.5-2.3 6.3-.9 7.3-.3 4.5-.5 22.9-2.6 32.2-5.8 0 0-8.8-35.6-19.3-39.3 0 0-26.5 15.8-44.2 22.2-3.6 1.3-6.8 2.5-9.7 3.6-2.6 5-5.3 10.5-7.6 15.9 1.4 3 3.2 6.4 5.1 10z"/><path id="XMLID_110_" d="M121.5 239v-4.5c-6.4-.3-3.7-.2-10.5 2.3-6.9 2.5-21.2 0-21.2 0h-1v1.2c-4.8 3.7-7.7 0-7.7 0v-.4c-6.8.2-12.3.9-16.6 1.7 2.4 1.4 4.8 2.6 7.3 3.9 21.4-3.2 49.7-4.2 49.7-4.2z" fill="#0d121d"/><path id="XMLID_111_" d="M81.1 217.8c-7.2-.6-23.1-.9-36.2 4.9.8 1.6 1.6 3.2 2.5 4.8 5.4 4.4 11.1 8.3 17.2 11.8 4.3-.8 9.8-1.4 16.6-1.7v-19.8z" fill="#3a3d3f"/><path id="XMLID_112_" class="st7" d="M81.1 216.5v21.6s2.9 3.7 7.7 0v-21.6s-.1-.1-.4-.3c-1-.6-3.9-2.1-7.3.3z"/><path id="XMLID_113_" class="st22" d="M18.9 195.2c2.2 3.5 4.5 6.9 7 10.2 1.9-5.6 4-11.3 5.9-14.9-2.6 1.1-7.3 3-12.9 4.7z"/><path id="XMLID_114_" class="st22" d="M39.7 212.9c-.8 1.9-1.6 3.8-2.2 5.7 3.1 3.1 6.4 6.1 9.9 8.9-.8-1.6-1.7-3.2-2.5-4.8-1.9-3.5-3.7-6.9-5.2-9.8z"/><path id="XMLID_115_" d="M39.7 212.9c2.3-5.5 5-11 7.6-15.9 5.7-10.8 11.1-19.1 11.1-19.1C40 179.5 33.3 188 33.3 188c-.5.6-.9 1.5-1.4 2.5-1.9 3.7-4 9.4-5.9 14.9 3.5 4.7 7.4 9.1 11.5 13.2.6-1.9 1.4-3.8 2.2-5.7z" fill="#39373c"/><path id="XMLID_117_" class="st24" d="M100.6 80.1c0 .4 0 .9.1 1.3 0-.5 0-.9-.1-1.3z"/><path id="XMLID_118_" class="st24" d="M128 160v-18.1c-13.5 0-16.3-4.8-16.3-4.8 3.2-1.1 3.5-1.9 6.5-4.6 1.6-1.7 4.4-2.6 6.7-1.6 1.5 1.3 3.1 1 3.1 1V47.4s-8.2-.9-18.7 8c-4.5 3.8-6.7 16.5-7.8 25.9h.5s15.3 2.9 18 7.2c0 0-13.5-4.3-18.8-3.8-.1.8-.1 1.6-.2 2.3.4 9.1-3.2 18.4-6.8 25.5-1 2.5-2.4 6.2-3.5 10.2 2 5.1 4.5 10 7.1 14.6.6 1.1 1.3 2.3 1.9 3.3.2.3.3.5.5.8 1.5 2.5 3 4.8 4.4 6.9 2-1.4 3.8-3.5 5.4-6.2 0 0-.6 4.9-3.8 8.6.7 1.1 1.4 2.1 2 3 .4.6.9 1.2 1.3 1.7.2-.1.3-.2.4-.3 0 0-.1.2-.2.5 6.5 6.4 18.3 4.4 18.3 4.4z"/><path id="XMLID_119_" d="M124.9 130.9c-2.2-1-5.1-.1-6.7 1.6-3.1 2.7-3.3 3.5-6.5 4.6 0 0 2.8 4.8 16.3 4.8v-10s-1.6.3-3.1-1z" fill="#894250"/><path id="XMLID_120_" class="st26" d="M100.7 81.4c0 1 .1 2.1.2 3.3-.1-1.1-.1-2.2-.2-3.3z"/><path id="XMLID_121_" class="st26" d="M120 88.4c-2.6-4.3-18-7.2-18-7.2h-.5c-.1 1.2-.2 2.3-.3 3.3 5.3-.4 18.8 3.9 18.8 3.9z"/><path id="XMLID_122_" d="M100.7 164.8c3.2-1.3 5.5-3.6 7-5.7 1.1-1.5 1.7-2.9 2-3.6.1-.3.2-.5.2-.5-.1.1-.3.2-.4.3-1.5.8-3.7 1.1-5.8 1.1-2.6 0-5.3-.5-7.3-.9-1.8-.4-3.1-.7-3.1-.7 1 .2 2 .3 2.9.3 2.2 0 4-.4 5.6-1.1 1.8-.8 3.2-2 4.3-3.3 3.2-3.8 3.8-8.6 3.8-8.6-1.6 2.7-3.4 4.8-5.4 6.2-1.4 1-2.8 1.7-4.3 2.2-1.7.5-3.4.7-5.1.5s-8.8-.4-10.4-8.3c0 0-2.6 13.2 10.5 17.7 0 0-13.6-.6-17.1-10.1-2.8-7.3-.1-15.1 4.7-21.6 4.1-5.5 9.4-12.6 11.7-17 .6-1.3.9-2.1.9-2.1-.2.6-.5 1.3-.9 2.1-.1.2-.2.5-.3.8 3.6-7.1 7.2-16.4 6.8-25.5 0 .5-.1.9-.1 1.3-.1 2.6-.2 3.9-.2 3.9s.1-1.5.2-3.9v-3.6c-.1-1.1-.1-2.2-.2-3.3 0-.4 0-.9-.1-1.3-.1-1.6-.3-3.4-.5-5.4-1.3-11.8 1.8-14.5 6.9-22.5 5.1-8 18.9-8.1 18.9-8.1-11.6-2.4-20.8 6.8-20.8 6.8C114 37.8 128 36 128 36V8.5S108.9 2 93 18.6C79 33.2 72.2 50.9 66.8 70.3c-5.4 19.5-18.5 28.4-18.8 52C47.6 146 62 154 62 154c8.6 8.4 16.7 9.3 20.8 9.1 1.8-.1 2.9-.4 2.9-.4 6.4 3.5 11.3 3.5 15 2.1z" fill="#a18f82"/><path id="XMLID_123_" class="st28" d="M101.5 81.3c1-9.4 3.2-22.1 7.8-25.9 10.5-8.9 18.7-8 18.7-8V36s-14 1.8-22.8 14.8c0 0 9.1-9.1 20.8-6.8 0 0-13.8.2-18.9 8.1-5.1 8-8.1 10.7-6.9 22.5.2 2 .4 3.8.5 5.4 0 .4.1.9.1 1.3.1 1.2.1 2.3.1 3.3v3.6c0-.4.1-.9.1-1.3.1-.7.1-1.5.2-2.3.1-1 .2-2.2.3-3.3z"/><path id="XMLID_124_" class="st28" d="M100.9 88.2c-.2 2.4-.2 3.9-.2 3.9s.1-1.2.2-3.9z"/><path id="XMLID_125_" class="st28" d="M91.7 143.5c-1.1-2.9-2.1-6.3-2.5-9.9-.3-3.2.4-7.2 1.4-11.1 1.1-4 2.5-7.7 3.5-10.2.1-.3.2-.5.3-.8-2.3 4.4-7.7 11.5-11.7 17-4.8 6.5-7.4 14.3-4.7 21.6 3.6 9.4 17.1 10.1 17.1 10.1-13.2-4.6-10.5-17.7-10.5-17.7 1.7 7.9 10.4 8.3 10.4 8.3.1 0-1.7-3-3.3-7.3z"/><path id="XMLID_126_" class="st28" d="M94.5 111.7c.4-.8.7-1.5.9-2.1 0 0-.4.8-.9 2.1z"/></g></g></svg>