<svg xmlns="http://www.w3.org/2000/svg" width="256" height="256"><circle fill="#B1B3B5" cx="128" cy="128" r="128"/><path fill="#C08C76" d="M128 179.4v5.4s37.6-3.2 37.6-14.7v-6.6c-.8-3.8-1.3-7.6-1.8-11-5 7.3-12.8 17-14.6 18.7-2.4 2.4-9 8.2-21.2 8.2z"/><path fill="#373943" d="M154.8 223.9l13.8-13.4s2.2.1 5.4.6c1.5-1.4 3-2.7 4.5-4.1-2-4.9-3.2-9.1-3.4-12.3-1.2-16-9.4-31.1-9.4-31.1v6.5c0 11.5-37.6 14.7-37.6 14.7V256h2.2c4-4.5 12.9-14.5 24.5-26.3v-5.8zm45.6-15.2c-1.2 1.1-2.5 2.4-3.8 3.8 2 6 5.7 11.6 10.1 16.5 15.4-12 27.9-27.4 36.5-45.1-.6-.3-1.2-.7-1.8-.9 0-.1-18.8 4.3-41 25.7zm-18.3 26.7l-12.8 5.2c-3.7 3.9-7.5 7.9-11.1 11.8 13.8-3.3 26.6-8.9 38.2-16.3-2.6-3.2-5-6.4-7.2-9.5l-7.1 8.8zm11-40.9c8-6.5 16.1-12.5 24-17.3-8.2-1.7-16.3-3.2-20-3.4-1.5-.1-3.8-.6-6.3-1.4 0 0-.3 5.7 2.3 22.1z"/><path fill="#C08C76" d="M179.4 116.5c2.5-3.8 2.1-12.5 1.4-16.6s.4-7.7 1.4-11.5c1.1-3.8 1.8-2.9-1.8-5.7-1-.8-2.4-.8-4-.5.2 1.9.5 3.4.5 3.4l-3.4-1.9c0 .1-.1.3-.1.4v12.2l-1.2-1.6c-.6 8-1 18.3-1.6 27.4 4.8 1.2 6.8-2.5 8.8-5.6z"/><path fill="#D7A990" d="M135.7 134.1s4.5-.4 6.9.9c2.4 1.3 9.5 5.1 10.1 5.9.5.7 9.5-.5 12.2-2.4 2.5-1.8 5.2-9.4 5.5-10.3.1-1.9.3-3.9.4-6 .6-9 1-19.4 1.6-27.4l-.3-.3-1.7 4.1s2.6-15.3 1.3-20.6c-1.3-5.3-1.9-13.2-1.9-13.2v-8.5l-1.3-1.1v-2.6l-2.9.7 1.6-2.2s-8.5 3.1-17.2 6.9c-8.7 3.8-22 3.4-22 3.4v74.2c0-.1 4.8 1.1 7.7-1.5zm9.5-44.1c4.5-1.9 11.1-.2 13.5 0s7.7 2.9 7.7 2.9h-3.7s2.9 1.4 1.9 1.7c-1.1.2-7.2-1.7-11.9-1.7-4.8 0-12.7 3.4-13.8 3.4-1.1 0-1.3-3.4-1.3-3.4 2.9.3 3.1-.9 7.6-2.9zm-6.6 66.6s-2.9 3.1-1.9 3.8c1.1.7 8.5-2.4 9.5-3.8 1.1-1.4 4.5-5 4.8-7.7.3-2.6-2.9-5.3-2.9-5.3s-6.9-3.6-12.7-3.1c-5.8.5-7.4.5-7.4.5v17c0 .1 8.2-.2 10.6-1.4zm35-73z"/><path fill="#4B4241" d="M138.9 96.3c1.1 0 9-3.4 13.8-3.4 4.8 0 10.9 1.9 11.9 1.7 1.1-.2-1.9-1.7-1.9-1.7h3.7s-5.3-2.6-7.7-2.9-9-1.9-13.5 0-4.8 3.1-7.7 2.9c0 0 .3 3.4 1.4 3.4z"/><path fill="#453C3B" d="M151.3 12.4c-.1-.2-.1-.3 0 0z"/><path fill="#453C3B" d="M128 61.3s13.2.5 22-3.4c8.7-3.8 17.2-6.9 17.2-6.9l-1.6 2.2 2.9-.7v2.6l1.3 1.1v8.5s.5 7.9 1.9 13.2c1.3 5.3-1.3 20.6-1.3 20.6l1.7-4.1.3.3 1.2 1.6V83.6h.1l3.4 1.9s-.3-1.5-.5-3.4c-.4-2.9-.6-6.7.5-7.4 1.9-1.2-1.9-15.1-1.6-19.2.3-4.1.3-16.3-.3-18.4s-4.2-6-4.2-7.9c0-1.9-5.3-8.6-9-10.1-3.7-1.4-10.3-6-10.6-6.7.1.3.3.7.3.7l-4.5-6.2-.5 1.9-10.9-6.9-.3 2.2s-4.9-2.4-6.8-4.1h-.7v61.3z"/><path fill="#B28D79" d="M164.8 138.4c-2.6 1.9-11.7 3.1-12.2 2.4-.5-.7-7.7-4.6-10.1-5.9-2.4-1.3-6.9-.9-6.9-.9-2.9 2.6-7.7 1.4-7.7 1.4v5.5s1.6 0 7.4-.5c5.8-.5 12.7 3.1 12.7 3.1s3.2 2.6 2.9 5.3c-.3 2.6-3.7 6.2-4.8 7.7-1.1 1.4-8.5 4.6-9.5 3.8-1.1-.7 1.9-3.8 1.9-3.8-2.4 1.2-10.6 1.4-10.6 1.4v21.3c12.2 0 18.8-5.7 21.2-8.1 1.8-1.7 9.6-11.4 14.6-18.7 1.9-2.7 3.3-5.1 3.9-6.7 1.9-5 2.6-17.8 2.6-17.8v.1c-.2 1-2.9 8.6-5.4 10.4z"/><path fill="#352B34" d="M191 218.1c1.1.9 2.1 1.8 3 2.9l-4.6 5.5c2.1 3.1 4.5 6.3 7.2 9.5 3.5-2.2 6.9-4.6 10.1-7.1-4.4-4.9-8.1-10.4-10.1-16.5-1.8 1.8-3.6 3.7-5.6 5.7zm-15.9-23.4c.2 3.2 1.4 7.4 3.4 12.3 4.8-4.3 9.7-8.5 14.6-12.5-2.6-16.4-2.3-22.1-2.3-22.1s-13.4-10.9-26.2-14.3l1 5.4v.1s8.3 15 9.5 31.1z"/><path fill="#767B84" d="M188.1 216.1c1 .6 2 1.3 2.9 2 2-2 3.8-3.9 5.6-5.6l3.8-3.8c22.2-21.4 41-25.8 41-25.8-.8-1.1-1.7-2.1-2.6-2.9-.1 0-11-1.5-50.7 36.1zm5-21.6c-4.9 4-9.8 8.2-14.6 12.5-1.5 1.4-3 2.7-4.5 4.1.6.1 1.3.2 2 .4 18.7-17.7 38.2-33.9 49.4-36.2-4.7.3-8.2 1.9-8.3 1.9-7.9 4.8-16 10.8-24 17.3zm-23.9 46.2l-4.1-1.7c-4.5 4.6-9.2 9.6-14.1 15 2.5-.4 4.9-1 7.3-1.6 3.6-3.9 7.3-7.8 11.1-11.8l-.2.1zm-14.4-11c-11.6 11.8-20.5 21.7-24.5 26.3.8 0 1.6 0 2.4-.1 4.7-5.2 12.7-13.8 22.1-23.4v-2.8z"/><path fill="#656A73" d="M176 211.5c3.7.8 8.2 2.1 12.2 4.6 39.7-37.6 50.6-36.1 50.7-36.1-5.4-6.3-13.3-4.7-13.3-4.7h-.2c-11.2 2.3-30.8 18.5-49.4 36.2zm-21.2 23.1v-2.1c-9.4 9.7-17.3 18.2-22.1 23.4 6.2-.2 12.3-.9 18.3-2 5-5.4 9.7-10.4 14.1-15l-10.3-4.3z"/><path fill="#23252D" d="M176 211.5c-.7-.1-1.4-.3-2-.4-3.2-.5-5.4-.6-5.4-.6l-13.8 13.4v10.7l10.3 4.3 4.1 1.7.1-.1 12.8-5.2 7.3-8.8 4.6-5.5c-.9-1.1-1.9-2.1-3-2.9-.9-.8-1.9-1.4-2.9-2-4-2.5-8.5-3.8-12.1-4.6zm14.3 8.7l-11.4 12.7c-9.5-8.6-21.6-8.3-21.6-8.3l12.2-12.3c11.1.4 20.8 7.9 20.8 7.9z"/><path fill="#30333B" d="M169.5 212.3l-12.2 12.3s12.1-.4 21.6 8.3l11.4-12.7s-9.7-7.5-20.8-7.9z"/><path fill="#B17D6B" d="M90.4 170.1c0 11.5 37.6 14.7 37.6 14.7v-5.4c-12.2 0-18.8-5.7-21.2-8.1-1.8-1.7-9.6-11.4-14.6-18.7-.4 3.4-1 7.2-1.8 11v6.5zm-8-73.8l-1.5-13.7-1.1 4.3s-.4-2.2-1-4.8c-1.3-.2-2.5-.1-3.3.6-3.5 2.9-2.8 1.9-1.8 5.7 1.1 3.8 2.1 7.3 1.4 11.5s-1.1 12.8 1.4 16.6c2 3.1 4 6.8 8.6 5.6-.6-9-1-19.4-1.6-27.4l-1.1 1.6z"/><path fill="#C08C76" d="M91.2 138.4c2.6 1.9 11.7 3.1 12.2 2.4.5-.7 7.7-4.6 10.1-5.9 2.4-1.3 6.9-.9 6.9-.9 2.9 2.6 7.7 1.4 7.7 1.4V61.3s-13.2.5-22-3.4C97.3 54.1 88.8 51 88.8 51l1.6 2.2-2.9-.7v2.6l-1.3 1.1v8.5s-.5 7.9-1.9 13.2c-1.3 5.3 1.3 20.6 1.3 20.6l-1.7-4.1-.3.3c.6 8 1 18.3 1.6 27.4.1 2.1.3 4.1.4 6 .4.9 3.1 8.5 5.6 10.3zM97.3 90c2.4-.2 9-1.9 13.5 0s4.8 3.1 7.7 2.9c0 0-.3 3.4-1.3 3.4-1.1 0-9-3.4-13.8-3.4-4.8 0-10.9 1.9-11.9 1.7-1.1-.2 1.9-1.7 1.9-1.7h-3.7c-.1 0 5.2-2.6 7.6-2.9zm23.3 50.6c-5.8-.5-12.7 3.1-12.7 3.1s-3.2 2.6-2.9 5.3c.3 2.6 3.7 6.2 4.8 7.7 1.1 1.4 8.5 4.6 9.5 3.8 1.1-.7-1.9-3.8-1.9-3.8 2.4 1.2 10.6 1.4 10.6 1.4v-17c0-.1-1.6-.1-7.4-.5z"/><path fill="#3E3636" d="M91.4 94.6c1.1.2 7.2-1.7 11.9-1.7 4.8 0 12.7 3.4 13.8 3.4 1.1 0 1.3-3.4 1.3-3.4-2.9.2-3.2-1-7.7-2.9s-11.1-.2-13.5 0-7.7 2.9-7.7 2.9h3.7c.1 0-2.8 1.4-1.8 1.7z"/><path fill="#38302F" d="M120.6 4.1l-.3-2.2-10.9 6.9-.5-1.9-4.3 5.9v-.4c.1-4.1-7.5-.2-11.2 1.2S76.8 28.3 80.9 31.4c1.5 1.2-2.7-.5-1.9 4.9.3 2.2-2.1 15.6-1.8 19.6.3 4.1-.6 16.4 0 18.6.4 1.6 1.1 4.8 1.7 7.5.5 2.6 1 4.8 1 4.8l1.1-4.3 1.5 13.7 1.2-1.6.3-.3 1.7 4.1s-2.6-15.3-1.3-20.6c1.3-5.3 1.9-13.2 1.9-13.2v-8.5l1.3-1.1v-2.6l2.9.7-1.7-2.1s8.5 3.1 17.2 6.9c8.7 3.8 22 3.4 22 3.4V0h-.7c-1.8 1.7-6.7 4.1-6.7 4.1z"/><path fill="#987A69" d="M128 179.4v-21.3s-8.2-.2-10.6-1.4c0 0 2.9 3.1 1.9 3.8-1.1.7-8.5-2.4-9.5-3.8-1.1-1.4-4.5-5-4.8-7.7-.3-2.6 2.9-5.3 2.9-5.3s6.9-3.6 12.7-3.1c5.8.5 7.4.5 7.4.5v-5.5s-4.8 1.2-7.7-1.4c0 0-4.5-.4-6.9.9-2.4 1.3-9.5 5.1-10.1 5.9-.5.7-9.5-.5-12.2-2.4-2.5-1.8-5.2-9.4-5.5-10.3v-.1s.8 12.9 2.6 17.8c.6 1.5 2 3.9 3.9 6.7 5 7.3 12.8 17 14.6 18.7 2.5 2.2 9.1 8 21.3 8z"/><path fill="#2A2C35" d="M73.9 235.4l-7.3-8.8c-2.1 3.1-4.5 6.3-7.2 9.5 11.6 7.4 24.5 12.9 38.2 16.3-3.6-3.9-7.3-7.8-11.1-11.8l-12.6-5.2zm-18.3-26.7c-22.2-21.4-41-25.8-41-25.8l-1.8.9C21.4 201.6 34 217 49.3 229c4.4-4.9 8.1-10.4 10.1-16.5-1.3-1.4-2.6-2.6-3.8-3.8zm7.3-14.2c2.6-16.4 2.3-22.1 2.3-22.1-2.6.8-4.8 1.3-6.3 1.4-3.7.2-11.8 1.8-20 3.4 7.9 4.8 16 10.8 24 17.3zm65.1-9.7s-37.6-3.2-37.6-14.7v-6.5s-8.3 15.1-9.4 31.1c-.2 3.2-1.4 7.4-3.4 12.3 1.5 1.4 3 2.7 4.5 4.1 3.2-.5 5.4-.6 5.4-.6l13.8 13.4v5.8c11.6 11.8 20.5 21.7 24.5 26.3h2.2v-71.2z"/><path fill="#271D25" d="M62.9 194.5c4.9 4 9.8 8.2 14.6 12.5 2-4.9 3.2-9.1 3.4-12.3 1.2-16 9.4-31.1 9.4-31.1v-.1l1-5.4c-12.7 3.4-26.2 14.3-26.2 14.3.1 0 .4 5.7-2.2 22.1zM62 221c.9-1.1 1.9-2.1 3-2.9-2-2-3.8-3.9-5.6-5.6-2 6-5.7 11.6-10.1 16.5 3.3 2.5 6.6 4.9 10.1 7.1 2.6-3.2 5-6.4 7.2-9.5L62 221z"/><path fill="#656A73" d="M86.8 240.7l-.1-.1c3.7 3.9 7.5 7.9 11.1 11.8 2.4.6 4.9 1.1 7.3 1.6-5-5.4-9.7-10.4-14.1-15l-4.2 1.7zm-27.4-28.2l5.6 5.6c.9-.8 1.9-1.4 2.9-2C28.2 178.5 17.3 180 17.2 180c-.9.8-1.8 1.8-2.6 2.9 0 0 18.8 4.4 41 25.8 1.2 1.2 2.5 2.4 3.8 3.8zm41.8 20c9.4 9.7 17.3 18.2 22.1 23.4.8 0 1.6.1 2.4.1-4-4.5-12.9-14.5-24.5-26.3v2.8zm-21.2-21c.7-.1 1.4-.3 2-.4-1.5-1.4-3-2.7-4.5-4.1-4.8-4.3-9.7-8.5-14.6-12.5-8-6.5-16.1-12.5-24-17.3 0 0-3.6-1.7-8.3-1.9 11.2 2.3 30.8 18.5 49.4 36.2z"/><path fill="#50555C" d="M67.9 216.1c4-2.4 8.5-3.8 12.2-4.6-18.7-17.7-38.2-33.9-49.4-36.2h-.2s-7.9-1.6-13.3 4.7c.1 0 11-1.5 50.7 36.1zm33.3 18.5l-10.3 4.3c4.5 4.6 9.2 9.6 14.1 15 6 1.1 12.1 1.7 18.3 2-4.7-5.2-12.7-13.8-22.1-23.4v2.1z"/><path fill="#1A1C24" d="M67.9 216.1c-1 .6-2 1.3-2.9 2-1.1.9-2.1 1.8-3 2.9l4.6 5.5 7.3 8.8 12.8 5.2.1.1 4.1-1.7 10.3-4.3v-10.7l-13.8-13.4s-2.2.1-5.4.6c-.6.1-1.3.2-2 .4-3.6.8-8.1 2.1-12.1 4.6zm18.6-3.8l12.2 12.3s-12.1-.4-21.6 8.3l-11.4-12.7s9.7-7.5 20.8-7.9z"/><path fill="#23252D" d="M65.7 220.2l11.4 12.7c9.5-8.6 21.6-8.3 21.6-8.3l-12.2-12.3c-11.1.4-20.8 7.9-20.8 7.9z"/></svg>