<svg xmlns="http://www.w3.org/2000/svg" width="256" height="256"><circle fill="#B1B3B5" cx="128" cy="128" r="128"/><path fill="#34333A" d="M43.1 212.9c4.6-7 10.9-13.8 17.1-19.9-10.1 2.7-22.9 6.5-35.2 11.2 7.4 9.9 16.1 18.8 26 26.2l4.2-3.1-12.1-14.4z"/><path fill="#B17D6B" d="M99.6 197.3c7.8 7.9 17.8 35.6 17.8 35.6l10.2 17.4v-73.6c-8.6 0-19.9-.1-27.1-5.5-3.2-2.4-6.1-5.8-8.7-9.3-.2 1.5-.4 3.2-.7 4.9-1.1 11.9 1.6 23.6 8.5 30.5z"/><path fill="#2F3433" d="M80.8 137.4h-.3c-3.9 0-7.2-3.3-9-8.6 0 1.6 0 3.1.4 3.3 1 .7 2.2 3.1 2.6 3.8.5.7 1.4 1.9 1.4 3.6 0 1.7-.7-.5 0 1.7s2.4 4.1 3.1 5.3c.7 1.2-4.1.5 0 2.6l4.1 2.2h2.2c-.4-.8-.9-1.5-1.2-2.2-1.4-2.2-2.5-6.7-3.3-11.7z"/><path fill="#B17D6B" d="M80.4 137.5h.3c-.6-3.3-1.1-6.8-1.5-10.1 0 0-.5-4.1-1.3-4.8s.9-2.7 0-3.2-2-2-2.3-3.5c-.2-1.4.7-1.7 0-3.1s1.1-1.7 0-3.4c-1.2-1.7-1.6-3.6-1.6-3.6l-1.9-2.6s-1.9-2.4-5-.7-2.6 4.6-2.6 4.6-.2-.2-.4-.6c.1.9.4 2.1.9 3.7 1.4 5 4.3 8.9 5.7 15.8.2 1 .5 2 .8 2.9 1.7 5.2 5.1 8.6 8.9 8.6z"/><path fill="#C08C76" d="M118.7 97.1c5 1.4 7.7 1.7 8.9 1.7V46c-1.3 0-4.2.1-8 0-12.6 2.5-22.2-3.6-22.2-3.6s-10.1 6.2-9.8 10.3 1.4 12.7-1.7 19.2-2.6 6.7-2.4 8.1c.2 1.4-.2 6-.2 6s-.8 4.6-1.5 5.3 0-1.2 0 4.8v3.5c19-4.7 30.2-4.4 36.9-2.5zm-30.9-6s5.7-5 11.5-5 21.8 2.6 21.8 2.6-1.4 3.6-4.6 4.6c-3.1 1-10.5-2.4-15.1-2.3-4.5.1-12.8 2.5-13.6.1zm12.8 80.1c7.2 5.4 18.6 5.5 27.1 5.5v-75.4c-6.2.8-5.6 12.5-7.9 17.4-2.5 5.2-17.7 4.1-21.6 3.7-6.5-1.1-8.9-8.4-10.3-11.1-1.5-2.7-7.1-7.1-7.1-7.1v-1.6c-1.1.6-2.6 1.5-2.6 2 0 .7.2 2.6 0 4.1s0 4.1 0 4.1.7 2.6 1 5.3c.2 2.6-.2.7.2 2.6.5 1.9.5 3.4.5 3.4l.7 1.7-1.2 1.7c.4 3.3.9 6.8 1.5 10.1.9 5 1.9 9.4 3.3 11.7.4.6.8 1.4 1.2 2.2 1.7 3 4 6.9 6.6 10.6 2.4 3.3 5.4 6.7 8.6 9.1z"/><path fill="#2F3433" d="M128.3 8.4h-.3.3zM67 102.5c3.1-1.7 5 .7 5 .7l1.9 2.6s.5 1.9 1.6 3.6c1.2 1.7-.7 1.9 0 3.4s-.2 1.7 0 3.1c.2 1.4 1.4 2.9 2.3 3.5s-.9 2.5 0 3.2 1.3 4.8 1.3 4.8l1.2-1.7-.7-1.7s0-1.4-.5-3.4c-.5-1.9 0 0-.2-2.6s-1-5.3-1-5.3-.2-2.6 0-4.1 0-3.4 0-4.1c0-.4 1.5-1.4 2.6-2v-2.8l1.2-.3v-3.5c0-6-.7-4.1 0-4.8s1.5-5.3 1.5-5.3.4-4.6.2-6c-.2-1.4-.7-1.7 2.4-8.1s1.9-15.1 1.7-19.2 9.8-10.3 9.8-10.3 3-6.8 11.9-11c5.4-2.5 11.9-3.3 18.3-2.2V8.4c-25.2.2-27.3 10.1-27.3 10.1-21.8-5-31.4 20.1-31.6 22.8-.2 2.6-3.8 7.4-6.9 13.2-3.1 5.7 0 0-.7 1.9s-.7 5.7-1 6.7-.2 2.2-.2 4.1v5.2s-1.7 2.6-2.6 3.4 0 2.6 0 2.6.5 1.2 1.6 2.2 0 2.4 0 3.1 1.2 1.9 2 4.3.5 3.6-1.2 7.7 0 0-.5 2.2 1.2 3.6 1.2 3.6 2.6 3.7 3.7 5.2c.2.4.4.6.4.6s-.5-3.1 2.6-4.8zm60.7-61.7c-4 1.3-8 5.2-8 5.2 3.8.1 6.7 0 8 0v-5.2z"/><path fill="#2F3433" d="M116.6 93.3c3.1-1 4.6-4.6 4.6-4.6s-16-2.6-21.8-2.6-11.5 5-11.5 5c.7 2.4 9.1 0 13.7-.1 4.4-.1 11.9 3.3 15 2.3z"/><path fill="#312F56" d="M127.7 250.4L117.5 233s-16.8-14.3-21.6-16.2c-4-1.6-6.7-9.2-12-9.7-.1 8 0 16.9.2 26 .1 4.5.7 9.9 1.7 15.8 13.1 4.6 27.2 7.1 41.9 7.2v-5.7z"/><path fill="#414048" d="M83.8 207c-1-.1-2.1 0-3.3.5-7.7 3-6.7 32-6.7 32s-1.5 0-1.8-1c-1.3-9.3-2.8-34.1-1.3-43.9.9-6 5.6-13.5 10.3-19.8-4.6 3.8-12.8 10.4-20.9 18.3-6.3 6.1-12.5 13-17.1 19.9l12.2 14.4-4.2 3.1A129.4 129.4 0 0 0 85.6 249c-.9-5.9-1.5-11.3-1.7-15.8-.1-9.3-.1-18.2-.1-26.2z"/><path fill="#3C3B66" d="M70.8 194.5c-1.5 9.8 0 34.6 1.3 43.9.3 1 1.8 1 1.8 1s-1-29.1 6.7-32c1.2-.5 2.3-.6 3.3-.5 5.3.6 8 8.1 12 9.7 4.8 1.9 21.6 16.2 21.6 16.2s-10-27.7-17.8-35.6c-6.9-6.9-9.6-18.7-8.4-30.5.2-1.6.4-3.3.7-4.9 0 0-5.4 5.6-10.8 12.8-4.8 6.4-9.5 14-10.4 19.9z"/><path fill="#C08C76" d="M106.2 97.4c-12.5 0-18.1 3.4-18.1 3.4s1.2 15.1 7.4 18.6c7.4 3 15.6 1.1 19.3.6 3.7-.5 6.8-13.2 7.3-16.3s-3.4-6.3-15.9-6.3z"/><path opacity=".5" fill="#FFF" d="M106.2 97.4c-12.5 0-18.1 3.4-18.1 3.4s1.2 15.1 7.4 18.6c7.4 3 15.6 1.1 19.3.6 3.7-.5 6.8-13.2 7.3-16.3s-3.4-6.3-15.9-6.3z"/><path fill="#987E5A" d="M127.7 98.9c-1.2 0-4-.3-8.9-1.7-6.7-1.9-18-2.2-36.9 2.4l-1.2.3v4.4s5.7 4.4 7.1 7.1c1.5 2.7 3.8 10 10.3 11.1 3.9.4 19.2 1.5 21.6-3.7 2.4-5 1.8-16.7 7.9-17.4v-2.5zm-5.6 4.7c-.5 3.2-3.6 15.9-7.3 16.3-3.7.5-11.9 2.3-19.3-.6-6.1-3.4-7.4-18.6-7.4-18.6s5.5-3.4 18.1-3.4 16.4 3.1 15.9 6.3z"/><path fill="#414048" d="M212.9 212.9l-12.2 14.4 4.2 3.1c9.9-7.4 18.7-16.3 26-26.2-12.3-4.6-25-8.4-35.2-11.2 6.3 6 12.6 12.9 17.2 19.9z"/><path fill="#C08C76" d="M155.4 171.2c-7.4 5.5-19.2 5.5-27.8 5.5v74.7l10.9-18.6s10-27.7 17.8-35.6c6.9-6.9 9.6-18.7 8.4-30.5-.3-1.8-.5-3.4-.7-4.9-2.4 3.6-5.4 7-8.6 9.4z"/><path fill="#393F3D" d="M175.6 137.5h-.3c-.9 5-1.9 9.4-3.3 11.7-.4.6-.8 1.4-1.2 2.2h2.2l4.1-2.2c4.1-2.2-.7-1.4 0-2.6.7-1.2 2.4-3.1 3.1-5.3.7-2.2 0 0 0-1.7s1-2.9 1.4-3.6c.5-.7 1.7-3.1 2.6-3.8.4-.3.5-1.7.4-3.3-1.8 5.2-5.2 8.6-9 8.6z"/><path fill="#C08C76" d="M189 102.5c-3.1-1.7-5 .7-5 .7l-1.9 2.6s-.5 1.9-1.6 3.6c-1.2 1.7.7 1.9 0 3.4s.2 1.7 0 3.1c-.2 1.4-1.4 2.9-2.3 3.5s.9 2.5 0 3.2-1.3 4.8-1.3 4.8c-.4 3.3-.9 6.8-1.5 10.1h.3c3.9 0 7.2-3.3 9-8.6.3-.9.6-1.9.8-2.9 1.4-6.9 4.3-10.8 5.7-15.8.5-1.6.8-2.8.9-3.7-.2.4-.4.6-.4.6s.4-2.9-2.7-4.6z"/><path fill="#D7A990" d="M159.8 79.9v2.6s-3.5 2.2-12.8-3.2c-8.5-5-9.2-20.2-11.5-31.3-4.5 0-7.9-2-7.9-2v52.9s2.7.2 9.6-1.7c6.7-1.9 18-2.2 36.9 2.4v-3.5c0-6 .7-4.1 0-4.8s-1.5-5.3-1.5-5.3-3.7-3-6.8-9.4-13-10.1-16.3-12.5c-.1-.1-.2-.1-.2-.2.2 1.7.4 3.5.7 5.1 2.2 13.4 9.8 10.9 9.8 10.9zm9.1 11.2c-.7 2.4-9.1 0-13.7-.1s-12 3.2-15.1 2.3-4.6-4.6-4.6-4.6 16-2.6 21.8-2.6 11.6 5 11.6 5zm6.3 46.3c.6-3.3 1.1-6.8 1.5-10.1l-1.2-1.7.7-1.7s0-1.4.5-3.4c.5-1.9 0 0 .2-2.6s1-5.3 1-5.3.2-2.6 0-4.1 0-3.4 0-4.1c0-.4-1.5-1.4-2.6-2v1.6s-5.7 4.4-7.1 7.1c-1.5 2.7-3.8 10-10.3 11.1-3.9.4-19.2 1.5-21.6-3.7-2.5-5.2-1.7-17.5-8.6-17.5v75.4c8.6 0 20.4 0 27.8-5.5 3.2-2.4 6.1-5.8 8.7-9.3 2.7-3.7 4.9-7.6 6.6-10.6.4-.8.9-1.5 1.2-2.2 1.3-1.9 2.4-6.4 3.2-11.4z"/><path fill="#393F3D" d="M139.9 33.7c8.5 5.1 8.1 18.1 9.4 30.2.1.1.2.1.2.2 3.3 2.4 13.2 6 16.3 12.5s6.8 9.4 6.8 9.4.8 4.6 1.5 5.3 0-1.2 0 4.8v3.5l1.2.3v2.8c1.1.6 2.6 1.5 2.6 2 0 .7-.2 2.6 0 4.1s0 4.1 0 4.1-.7 2.6-1 5.3c-.2 2.6.2.7-.2 2.6-.5 1.9-.5 3.4-.5 3.4l-.7 1.7 1.2 1.7s.5-4.1 1.3-4.8-.9-2.7 0-3.2 2-2 2.3-3.5c.2-1.4-.7-1.7 0-3.1s-1.1-1.7 0-3.4c1.2-1.7 1.6-3.6 1.6-3.6l1.9-2.6s1.9-2.4 5-.7 2.6 4.6 2.6 4.6.2-.2.4-.6c1-1.5 3.7-5.2 3.7-5.2s1.7-1.4 1.2-3.6 1.2 1.9-.5-2.2-1.9-5.3-1.2-7.7 2-3.6 2-4.3-1.1-2.2 0-3.1 1.6-2.2 1.6-2.2 1-1.9 0-2.6-2.6-3.4-2.6-3.4v-5.2c0-1.9 0-3.1-.2-4.1s-.2-4.8-1-6.7c-.7-1.9 2.4 3.8-.7-1.9-3.1-5.7-6.7-10.5-6.9-13.2-.2-2.6-9.8-27.8-31.6-22.8 0 0-2.1-9.9-27.3-10.1h-.6v20.8c4.2.7 8.3 2.2 12.2 4.5zM135.6 48c-.2-1-.4-1.9-.6-2.8-1.2-4.8-4.2-5.3-7.2-4.3V46c-.1 0 3.3 2 7.8 2z"/><path fill="#393F3D" d="M135.6 88.8s1.4 3.6 4.6 4.6 10.5-2.4 15.1-2.3c4.6.1 12.9 2.4 13.7.1 0 0-5.7-5-11.5-5s-21.9 2.6-21.9 2.6z"/><path fill="#3C3B66" d="M172.2 207c-5.3.6-8 8.1-12 9.7-4.8 1.9-21.6 16.2-21.6 16.2l-10.9 18.6v4.5h.3c14.8 0 29-2.5 42.3-7.2.9-5.9 1.5-11.3 1.7-15.8.2-9.1.2-18 .2-26z"/><path fill="#4D4C54" d="M212.9 212.9c-4.6-7-10.9-13.8-17.1-19.9-8.1-7.9-16.2-14.5-20.9-18.3 4.7 6.3 9.4 13.9 10.3 19.8 1.5 9.8 0 34.6-1.3 43.9-.3 1-1.8 1-1.8 1s1-29.1-6.7-32c-1.2-.5-2.3-.6-3.3-.5.1 8 0 16.9-.2 26-.1 4.5-.7 9.9-1.7 15.8a129.4 129.4 0 0 0 34.6-18.5l-4.2-3.1 12.3-14.2z"/><path fill="#464675" d="M156.4 197.3c-7.8 7.9-17.8 35.6-17.8 35.6s16.8-14.3 21.6-16.2c4-1.6 6.7-9.2 12-9.7 1-.1 2.1 0 3.3.5 7.7 3 6.7 32 6.7 32s1.5 0 1.8-1c1.3-9.3 2.8-34.1 1.3-43.9-.9-6-5.6-13.5-10.3-19.8-5.4-7.2-10.8-12.8-10.8-12.8.3 1.6.5 3.3.7 4.9 1.1 11.8-1.6 23.5-8.5 30.4z"/><path fill="#D7A990" d="M149.8 97.4c-12.5 0-16.3 3.1-15.9 6.3s3.6 15.9 7.3 16.3c3.7.5 11.9 2.3 19.3-.6 6.1-3.4 7.4-18.6 7.4-18.6s-5.6-3.4-18.1-3.4z"/><path opacity=".5" fill="#FFF" d="M149.8 97.4c-12.5 0-16.3 3.1-15.9 6.3s3.6 15.9 7.3 16.3c3.7.5 11.9 2.3 19.3-.6 6.1-3.4 7.4-18.6 7.4-18.6s-5.6-3.4-18.1-3.4z"/><path fill="#AD8E66" d="M137.3 97.1c-6.9 2-9.6 1.7-9.6 1.7v2.4c6.9 0 6.1 12.3 8.6 17.5 2.5 5.2 17.7 4.1 21.6 3.7 6.5-1.1 8.9-8.4 10.3-11.1 1.5-2.7 7.1-7.1 7.1-7.1v-4.4l-1.2-.3c-18.9-4.6-30.1-4.3-36.8-2.4zm23.2 22.3c-7.4 3-15.6 1.1-19.3.6-3.7-.5-6.8-13.2-7.3-16.3s3.3-6.3 15.9-6.3 18.1 3.4 18.1 3.4-1.3 15.1-7.4 18.6z"/><path fill="#494F4C" d="M119.7 46s4-3.9 8-5.2c3-1 6-.5 7.2 4.3.2.9.4 1.9.6 2.8 2.3 11.1 3 26.3 11.5 31.3 9.3 5.4 12.8 3.2 12.8 3.2v-2.6s-7.7 2.5-9.9-10.9c-.3-1.7-.5-3.4-.7-5.1-1.3-12.1-.9-25.1-9.4-30.2-3.8-2.3-8-3.8-12.2-4.5-6.4-1.1-12.9-.3-18.3 2.2-8.9 4.2-11.9 11-11.9 11s9.7 6.2 22.3 3.7z"/></svg>