<svg xmlns="http://www.w3.org/2000/svg" width="256" height="256"><circle fill="#B1B3B5" cx="128" cy="128" r="128"/><path fill="#070E10" d="M209.3 161.1c.1-.4.2-.8.1-1.3-.1.6-.2 1.2-.3 1.7 0-.2.1-.3.2-.4zm-9-105.5c1.9 9.2 3.1 18.5 3.4 25.5.1-8-1.3-17-3.4-25.5zm-2.1 117s1.5-1 3.4-2.5c-1.1.4-2.1.6-2.6.7-.2 1.1-.8 1.8-.8 1.8zm3.9-21.4c4.7 3.8 6.4 6.1 7 7.3-2.3-6.2-15.6-16.4-19-21.1-3.6-5.2.5-10.9 2.5-15.9-2.1 3.9-3.8 6.8-4.5 8.4-2.2 5.1 6.6 15.4 14 21.3zM128 4.9v1.3s8.8.7 18.9 3.6c.1-3.1 1.4-5.8 3.3-7.9-2.4-.4-4.9-.8-7.4-1.1h-1.3C136.4.9 128 4.9 128 4.9z"/><path fill="#070E10" d="M174.6 29.4c7.1 16.8 3.1 42.4 1.5 51 1.3-.6 2.6-.9 3.7-.5 3.4 1.3 1.1 4.9.6 7.8-.5 2.9-2.1 11.2-2.1 13.7s-1.4 7.2-1.4 9.4-2.9 5.4-5.3 5.6c-.8.1-2.5-.4-4.3-1.1-.5 1.5-.9 3-1.3 4.3-1 3.6-3.1 8.9-5.2 13.7 5.3 9.1 21.5 24.9 26.9 31.4 2 2.4 2.4 4.9 1.9 7.1 1.4.7 2.8 1.4 4.1 2.1 1.7-3.2 2.6-8.2 2.6-8.2 2.4 1.8 2.9 3.5 2.8 4.7.6-.6 1.6-1.7 2.5-3.9 1.4-3.4-4.2-10.4-8.9-16.4-4.8-6.1-10.2-8.5-14.8-18.4-4.6-9.9 2.7-20.1 2.7-20.1s-1.8 7.5-1.4 11.8c.3 4.3 5.6 11 5.6 11-2.6-5.9-2.6-10.5-1.4-16 1.1-5.4 7.3-8.5 9.4-16.3 2.1-7.8-1.6-21.7-1.6-21.7 1.6 2.4 5.6 13.7 5.6 13.7.8-6.9-8.5-27.1-8.5-27.1 4.5 3.8 7.5 13.4 7.5 13.4s-1.8-14.7-2.3-15.8c1.8 3 6.4 29.5 6.4 29.5l-1-12.5s-2.9-10.5-3.2-17.1-7.5-26.5-7.5-26.5c5.6 5.1 11.2 21.9 11.2 21.9-1.8-13.1-11.2-31.1-11.2-31.1l6.7 10.1-4.2-11.9c-5-10.7-10.7-16-15.9-17.7-1.1-.4-2-.7-2.9-1 .1.7.2 1.5.2 2.3 0 3.9-1.8 7.4-4.5 9.7 3 2.5 5.4 5.5 7 9.1z"/><path fill="#5F233E" d="M188.2 28.7s9.4 18 11.2 31.1c0 0-5.6-16.8-11.2-21.9 0 0 7.2 20.1 7.5 26.7s3.2 17.1 3.2 17.1l1 12.5s-4.6-26.5-6.4-29.5c.4 1.1 2.3 15.8 2.3 15.8s-3.1-9.6-7.5-13.4c0 0 9.3 20.3 8.5 27.1 0 0-4-11.3-5.6-13.7 0 0 3.7 13.9 1.6 21.7-2.1 7.8-8.3 10.9-9.4 16.3-1.1 5.4-1.1 10.1 1.4 16 0 0-5.3-6.7-5.6-11-.3-4.3 1.4-11.8 1.4-11.8s-7.3 10.2-2.7 20.1c4.6 9.9 10.1 12.3 14.8 18.4 4.8 6.1 10.4 13.1 8.9 16.4-.9 2.1-1.9 3.3-2.5 3.9-.3.3-.6.5-.6.5s.2 0 .5-.1c.5-.1 1.5-.3 2.6-.7 2.7-1 6.3-3.4 7.4-8.6.1-.5.2-1.1.3-1.7v-.3s0-.3-.3-1c-.6-1.2-2.3-3.5-7-7.3-7.3-5.9-16.1-16.2-13.9-21.3.7-1.6 2.4-4.5 4.5-8.4 4.8-9 11.4-23.2 11.2-37.8 0-.8 0-1.6-.1-2.5-.3-7-1.6-16.3-3.4-25.5-2.5-12-6-23.8-10.1-29.9l.5 1.3 4.2 11.8-6.7-10.3z"/><path fill="#263F42" d="M167.5 20.2c2.8-2.3 4.5-5.8 4.5-9.7 0-.8-.1-1.5-.2-2.3 0-.2-.1-.4-.1-.5-6.9-2.5-14.1-4.5-21.6-5.8-1.9 2.1-3.2 4.9-3.3 7.9 7.2 2.2 15 5.4 20.7 10.4z"/><path fill="#853763" d="M227.8 187c-6.7-5.1-19.5-6.1-22.7-7.3-1.5-.6-6-3.1-11.3-5.8-1.3-.7-2.7-1.4-4.1-2.1-4.9-2.5-10-4.9-13.6-6.1-.4-.1-.8-.2-1.3-.4 2 2.1 2.3 4 1.5 5.9 6.7 10.8 25.7 41.2 31.2 48.4 1.2 1.6 2.2 3.8 3 6.3 9.9-8.4 18.6-18.2 25.6-29.2-2.8-4.4-5.7-7.6-8.3-9.7z"/><path fill="#1E0F24" d="M160.8 150c-.1-1.8-4.3-2.3-4.3-2.3-.1 1.6-.1 3.1.2 4.6.1.4.2.8.3 1.1 2-.6 3.9-1.8 3.8-3.4zm-4.3-2.5z"/><path fill="#853763" d="M158.3 188.3c-.6.5-.9.8-.9.8s-4.3-22.4-1.4-35.3c.3-.1.7-.2 1-.3-.1-.4-.2-.7-.3-1.1-.3-1.5-.3-3-.2-4.6s0-.1 0-.2v-.1c0-.4.1-1.1.2-1.8.4-2.9 1.3-5.7 2.1-8-1.5 3.1-2.7 5.5-3.3 6.2-1.7 1.9-10.5 10.8-13.9 14.1-3.4 3.4-13.6 1.9-13.6 1.9V256c2.3 0 4.6-.1 6.9-.2 1.2-3.4 2.4-7.2 3.5-11.1 3.8-12.8 15.2-43.9 19.9-56.4z"/><path fill="#BA7CB1" d="M176.2 171.2c-.4.9-1 1.8-1.7 2.7-1.9 2.3-13 11.6-16.3 14.4-4.6 12.5-16 43.6-19.8 56.5-1.2 3.9-2.4 7.7-3.5 11.1 28.7-1.5 54.9-12.5 75.5-29.9-.8-2.5-1.7-4.7-3-6.3-5.5-7.4-24.5-37.8-31.2-48.5z"/><path fill="#853763" d="M167.3 115.4c1.8.6 3.5 1.1 4.3 1.1 2.4-.2 5.3-3.4 5.3-5.6s1.4-6.9 1.4-9.4 1.6-10.9 2.1-13.7c.5-2.9 2.7-6.5-.6-7.8-1-.4-2.3-.1-3.7.5-.2 1.2-.4 2.1-.5 2.5-.7 4.7-1.4 9-1.9 11.1-1.2 4.7-4.2 14-6.4 21.3z"/><path fill="#A4477A" d="M166 119.7c.4-1.3.8-2.7 1.3-4.3 2.2-7.3 5.2-16.6 6.4-21.4.5-2.1 1.2-6.4 1.9-11.1-.1.3-.1.4-.1.4s-4.3-9.7-11.9-19.8c-6-5.8-14.3-12.3-21.5-13-13.1-1.1-14-.6-14-.6V134s1.1.2 2.2-.8c1.6-.7 3.6-.1 4.8 1.2 2.2 2.1 2.4 2.7 4.7 3.5 0 0-2 3.7-11.6 3.7v18.1s10.2 1.4 13.6-1.9c3.4-3.4 12.2-12.2 13.9-14.1.6-.7 1.9-3.1 3.3-6.2.6-1.3 1.3-2.8 2-4.3 1.8-4.6 3.9-10 5-13.5zM138.4 89s4.8-2.2 7.5-3.4c2.7-1.1 4.9-1.4 8-1.3 3 .2 8.8 3.2 8.8 3.2-3-.8-7-.5-10.7 0-3.7.5-14.2 2.7-14.2 2.7l.6-1.2z"/><path fill="#67334F" d="M162.6 87.6s-5.7-3-8.8-3.2c-3-.2-5.3.2-8 1.3s-7.5 3.4-7.5 3.4l-.6 1.3s10.5-2.2 14.2-2.7c3.7-.6 7.7-.9 10.7-.1z"/><path fill="#601336" d="M139.6 138c-2.3-.8-2.5-1.5-4.7-3.5-1.1-1.3-3.2-2-4.8-1.2-1.1 1-2.2.8-2.2.8v7.7c9.7-.1 11.7-3.8 11.7-3.8z"/><path fill="#475772" d="M171.8 162c-1.9 3.6-8.6 13.8-10 16.5-1 1.8-4.4 10.6-4.4 10.6s.3-.3.9-.8c3.3-2.8 14.4-12.1 16.3-14.4.7-.9 1.3-1.8 1.7-2.7.8-1.9.5-3.8-1.5-5.9l-.2-.2c-.8-.7-1.8-1.8-2.8-3.1zm-4.5-5.9c-1.8-2.5-3.3-4.8-3.9-6.1-1.4-3-3.9-4-6.7-4.4-.1.7-.2 1.4-.2 1.8v.3s4.2.5 4.3 2.3c.1 1.5-1.8 2.7-3.9 3.4-.3.1-.7.2-1 .3 0 0 6.9 1.6 11.4 2.4z"/><path fill="#303D53" d="M171.8 162l.3-.6c1.4-3 1.1-4.4-3-5-.5-.1-1.1-.2-1.8-.3-4.5-.8-11.4-2.3-11.4-2.3-2.9 12.9 1.4 35.3 1.4 35.3s3.5-8.8 4.4-10.6c1.5-2.7 8.1-12.9 10.1-16.5z"/><path fill="#1E212A" d="M174.5 58.3c-.3 5.8-1.8 10-2.7 11.9l.1 2.1s-.2-.3-.7-.8c-1.2-1.4-4-4.6-7.6-8.1 7.6 10.2 11.9 19.8 11.9 19.8s0-.1.1-.4c.1-.5.3-1.3.5-2.5 1.6-8.6 5.6-34.2-1.5-51-1.5-3.6-4-6.7-7-9.3-5.8-5-13.5-8.2-20.6-10.3-10.1-3-18.9-3.6-18.9-3.6V17c46.9-.3 46.7 35.4 46.4 41.3z"/><path fill="#3F2E26" d="M151.3 24.2h-10.5s13.9 3.7 18.2 7.5l-1.6-3.5s9.4 5.9 12.3 14.5l-6.4-4.2 6.4 7.7s-12.9-9.7-6.5-3.2 8.3 13.6 8.6 16.6c.3 3 0 7.5 0 7.5l.1 3.2c.9-2 2.4-6.2 2.7-11.9.3-6 .5-41.7-46.5-41.2v5.3c1.3-.1 16.9-2.5 23.2 1.7zm19.9 47.4z"/><path fill="#11131C" d="M171.7 59.6c-.3-3-2.2-10.1-8.6-16.6s6.5 3.2 6.5 3.2l-6.4-7.7 6.4 4.2c-2.9-8.6-12.3-14.5-12.3-14.5l1.6 3.5c-4.3-3.8-18.2-7.5-18.2-7.5h10.5c-6.2-4.2-21.8-1.8-23.3-1.8v27.4s.9-.5 14 .6c7.2.6 15.5 7.2 21.5 13 3.6 3.5 6.4 6.6 7.6 8.1.4.5.7.8.7.8l-.1-2.1-.1-3.2c.2.1.6-4.3.2-7.4z"/><path fill="#000001" d="M128 6.2V4.9S119.6.8 114.5.8h-1.3c-2.5.3-5 .6-7.4 1.1 1.9 2.1 3.2 4.9 3.3 7.9C119.2 6.9 128 6.2 128 6.2zm-38.2 53l5.2-4.7c-12.6-9-11.1-6.4-5.2 4.7zm-35.9 92c7.3-5.9 16.1-16.2 13.9-21.3-.7-1.6-2.4-4.5-4.5-8.4 2.1 5.1 6.2 10.7 2.5 15.9-3.3 4.8-16.7 14.9-19 21.1.7-1.2 2.4-3.5 7.1-7.3zM98 51.9c-1.1.8-2.1 1.7-3 2.6l3.3-2.4c0-.1-.2-.1-.3-.2zM46.7 161.1c0 .1.1.2.2.4-.1-.5-.2-1.1-.3-1.7 0 .4 0 .9.1 1.3z"/><path fill="#000001" d="M68.3 164.7c5.4-6.5 21.6-22.3 26.9-31.4-2.1-4.8-4.2-10.1-5.2-13.7-.4-1.3-.8-2.7-1.3-4.3-1.8.6-3.5 1.1-4.3 1.1-2.4-.2-5.3-3.4-5.3-5.6s-1.4-6.9-1.4-9.4-1.6-10.9-2.1-13.7c-.5-2.9-2.7-6.5.6-7.8 1-.4 2.3-.1 3.7.5-1.6-8.6-5.6-34.2 1.5-51 1.5-3.6 4-6.7 7-9.3-2.8-2.3-4.5-5.8-4.5-9.7 0-.8.1-1.5.2-2.3-.9.3-1.8.7-2.9 1-5.2 1.7-11 7-15.9 17.7l-4.2 11.8 6.7-10.1s-9.4 18-11.2 31.1c0 0 5.6-16.8 11.2-21.9 0 0-7.2 20.1-7.5 26.7s-3.2 17.1-3.2 17.1l-1 12.5s4.6-26.5 6.4-29.5c-.4 1.1-2.3 15.8-2.3 15.8s3.1-9.6 7.5-13.4c0 0-9.3 20.3-8.5 27.1 0 0 4-11.3 5.6-13.7 0 0-3.7 13.9-1.6 21.7s8.3 10.9 9.4 16.3c1.1 5.4 1.1 10.1-1.4 16 0 0 5.3-6.7 5.6-11 .3-4.3-1.4-11.8-1.4-11.8s7.3 10.2 2.7 20.1c-4.6 9.9-10.1 12.3-14.8 18.4-4.8 6.1-10.4 13.1-8.9 16.4.9 2.1 1.9 3.3 2.5 3.9-.1-1.3.4-3 2.8-4.7 0 0 .9 5 2.6 8.2 1.3-.7 2.7-1.4 4.1-2.1-.5-2.2-.1-4.6 1.9-7zm-16-83.6c.3-7 1.6-16.3 3.4-25.5-2.1 8.5-3.5 17.5-3.4 25.5zm5.5 91.5s-.6-.7-.8-1.8c-.5-.1-1.5-.3-2.6-.7 1.9 1.5 3.4 2.5 3.4 2.5z"/><path fill="#4F1831" d="M54.4 166.5c-1.4-3.4 4.2-10.4 8.9-16.4 4.8-6.1 10.2-8.5 14.8-18.4 4.6-9.9-2.7-20.1-2.7-20.1s1.8 7.5 1.4 11.8c-.3 4.3-5.6 11-5.6 11 2.6-5.9 2.6-10.5 1.4-16-1.1-5.4-7.3-8.5-9.4-16.3S65 80.5 65 80.5c-1.6 2.4-5.6 13.7-5.6 13.7-.8-6.9 8.4-27.2 8.4-27.2-4.5 3.8-7.5 13.4-7.5 13.4s1.8-14.7 2.3-15.8c-1.8 3-6.4 29.5-6.4 29.5l1-12.5s2.9-10.5 3.2-17.1S67.8 38 67.8 38c-5.6 5.1-11.2 21.9-11.2 21.9 1.8-13.1 11.2-31.1 11.2-31.1l-6.7 10.1L65.3 27l.5-1.3c-4 6.1-7.6 17.9-10.1 29.9-1.9 9.2-3.1 18.5-3.4 25.5 0 .9-.1 1.7-.1 2.5-.2 14.6 6.4 28.8 11.2 37.8 2.1 3.9 3.8 6.8 4.5 8.4 2.2 5.2-6.5 15.4-13.9 21.3-4.7 3.8-6.4 6.1-7 7.3-.3.7-.3 1-.3 1v.3c.1.6.2 1.2.3 1.7 1.2 5.2 4.8 7.6 7.4 8.6 1.1.4 2.1.6 2.6.7.3.1.5.1.5.1s-.2-.1-.6-.5c-.6-.5-1.6-1.7-2.5-3.8z"/><path fill="#172F32" d="M83.9 10.5c0 3.9 1.8 7.4 4.5 9.7 5.8-5 13.5-8.2 20.6-10.3-.1-3.1-1.4-5.8-3.3-7.9-7.4 1.3-14.6 3.2-21.6 5.8 0 .2-.1.4-.1.5 0 .6-.1 1.4-.1 2.2z"/><path fill="#6D2950" d="M79.8 171.2c-.8-1.9-.5-3.8 1.5-5.9-.5.1-.9.2-1.3.4-3.6 1.2-8.6 3.6-13.6 6.1-1.4.7-2.8 1.4-4.1 2.1-5.3 2.8-9.8 5.2-11.3 5.8-3.2 1.3-16 2.2-22.7 7.3-2.7 2-5.5 5.3-8.2 9.7 7 11 15.7 20.9 25.6 29.2.8-2.5 1.7-4.7 3-6.3 5.4-7.3 24.4-37.7 31.1-48.4z"/><path fill="#100015" d="M99.5 147.4c0 .1 0 .1 0 0 0 .1 0 .1 0 0zm-4.3 2.6c-.1 1.5 1.8 2.7 3.9 3.4.1-.4.2-.7.3-1.1.3-1.5.3-3 .2-4.6-.1 0-4.3.5-4.4 2.3z"/><path fill="#6D2950" d="M128 164.4V160s-10.2 1.4-13.6-1.9c-3.4-3.4-12.2-12.2-13.9-14.1-.6-.7-1.9-3.1-3.3-6.2.8 2.3 1.6 5.1 2.1 8 .1.6.2 1.4.2 1.8v.3c.1 1.6.1 3.1-.2 4.6-.1.4-.2.8-.3 1.1.3.1.7.2 1 .3 2.9 12.9-1.4 35.3-1.4 35.3s-.3-.3-.9-.8c4.6 12.5 16 43.6 19.8 56.5 1.2 3.9 2.4 7.7 3.5 11.1 2.3.1 4.6.2 6.9.2v-91.8z"/><path fill="#905F89" d="M97.7 188.3c-3.3-2.8-14.4-12.1-16.3-14.4-.7-.9-1.3-1.8-1.7-2.7C73 182 54 212.4 48.5 219.6c-1.2 1.6-2.2 3.8-3 6.3 20.6 17.4 46.8 28.3 75.5 29.9-1.2-3.4-2.4-7.2-3.5-11.1-3.7-12.8-15.1-43.9-19.8-56.4z"/><path fill="#6D2950" d="M80.4 82.9c-.1-.5-.3-1.3-.5-2.5-1.3-.6-2.6-.9-3.7-.5-3.4 1.3-1.1 4.9-.6 7.8.5 2.9 2.1 11.2 2.1 13.7s1.4 7.2 1.4 9.4 2.9 5.4 5.3 5.6c.8.1 2.5-.4 4.3-1.1-2.2-7.3-5.2-16.6-6.4-21.4-.5-1.9-1.2-6.3-1.9-11z"/><path fill="#853763" d="M128 144.6v-2.8c-9.6 0-11.6-3.7-11.6-3.7 2.3-.8 2.5-1.5 4.7-3.5 1.1-1.3 3.2-2 4.8-1.2 1.1 1 2.2.8 2.2.8V49.9h-1c-2.4.2-5.6.8-8.9 1.5-6.2 1.6-12 3.5-17.5 1.4h-.1c-.8-.2-1.5-.4-2.2-.7L95 54.5l-5.2 4.7c-8.9 11.1-9.3 24.1-9.3 24.1s0-.1-.1-.4c.7 4.7 1.4 9 1.9 11.1 1.2 4.8 4.2 14.1 6.4 21.4.5 1.5.9 3 1.3 4.3 1 3.6 3.1 8.9 5.2 13.7.7 1.5 1.3 3 2 4.3 1.5 3.1 2.7 5.5 3.3 6.2 1.7 1.9 10.5 10.8 13.9 14.1 3.4 3.4 13.6 1.9 13.6 1.9v-15.3zm-25.9-60.2c3-.2 5.3.2 8 1.3s7.5 3.4 7.5 3.4l.6 1.3s-10.5-2.2-14.2-2.7c-3.7-.5-7.7-.8-10.7 0 .1-.1 5.8-3.2 8.8-3.3z"/><path fill="#4A1F38" d="M104.1 87.6c3.7.5 14.2 2.7 14.2 2.7l-.6-1.3s-4.8-2.2-7.5-3.4c-2.7-1.1-4.9-1.4-8-1.3-3 .2-8.8 3.2-8.8 3.2 3-.7 7-.4 10.7.1z"/><path fill="#4D0428" d="M125.8 133.2c-1.6-.7-3.6-.1-4.8 1.2-2.2 2.1-2.4 2.7-4.7 3.5 0 0 2 3.7 11.6 3.7V134c.1 0-1 .2-2.1-.8z"/><path fill="#303D53" d="M92.6 150c-.6 1.3-2.1 3.6-3.9 6.1 4.5-.8 11.4-2.3 11.4-2.3-.3-.1-.7-.2-1-.3-2.1-.7-4-1.9-3.9-3.4.1-1.8 4.3-2.3 4.3-2.3v-.3c0-.4-.1-1.1-.2-1.8-2.8.3-5.3 1.3-6.7 4.3zm-8.4 12c-1 1.3-2 2.4-2.8 3.1l-.2.2c-2 2.1-2.3 4-1.5 5.9.4.9 1 1.8 1.7 2.7 1.9 2.3 13 11.6 16.3 14.4.6.5.9.8.9.8s-3.5-8.8-4.4-10.6c-1.4-2.7-8-12.9-10-16.5z"/><path fill="#1C2739" d="M88.7 156.1c-.7.1-1.3.2-1.8.3-4.1.6-4.4 2-3 5l.3.6c1.9 3.6 8.6 13.8 10 16.5 1 1.8 4.4 10.6 4.4 10.6s4.3-22.4 1.4-35.3c.1-.1-6.8 1.5-11.3 2.3z"/><path fill="#12151D" d="M81.4 29.4c-7.1 16.8-3.1 42.4-1.5 51 .2 1.2.4 2.1.5 2.5.1.3.1.4.1.4s.4-13 9.3-24.1c-5.9-11.1-7.4-13.7 5.2-4.7 1-.9 2-1.7 3-2.6-2.7-1.2-4.6-3.6-5.2-7.6-2.1-15.8 15-27.2 35.1-27.2V6.2s-8.8.7-18.9 3.6c-7 2.2-14.8 5.4-20.5 10.4-3.1 2.6-5.5 5.6-7.1 9.2z"/><path fill="#2C1D15" d="M127 49.9c-3.1.1-6.1.8-8.9 1.5 3.3-.7 6.4-1.3 8.9-1.5zm-26.5 2.8c-8.3-3.2-4-13.9-4-13.9l1.3 5.4c-1.2-6.7 4.8-12.5 4.8-12.5v6.2c2.7-8.5 9.8-13.2 12.1-14.4.2-.1.3-.2.5-.3.1-.1.2-.1.2-.1-.1 0-.1.1-.2.1-.1.1-.3.2-.5.3-2.9 1.9-3.7 6.9-3.7 6.9 8.9-8.9 17-8 17-8v-5.3c-20.1 0-37.3 11.4-35.1 27.2.5 4 2.5 6.3 5.2 7.6.1 0 .2.1.3.1.6.4 1.4.6 2.1.7z"/><path fill="#03040E" d="M114.7 23.5c.2-.1.4-.2.5-.3-.1.1-.3.2-.5.3zm.6-.3c.1 0 .1-.1.2-.1 0 0-.1 0-.2.1zM128 40.4V22.5s-8.1-1-17 8c0 0 .8-5 3.7-6.9-2.3 1.3-9.4 5.9-12.1 14.4v-6.2s-6 5.9-4.8 12.5l-1.3-5.4s-4.3 10.7 4 13.9h.1c5.5 2.1 11.3.2 17.5-1.4 2.9-.7 5.9-1.4 8.9-1.5h1v-9.5z"/></svg>