<svg xmlns="http://www.w3.org/2000/svg" width="256" height="256"><circle fill="#B1B3B5" cx="128" cy="128" r="128"/><path fill="#4A3323" d="M177.9 53.8c.9.6 1.4 1.1 1.8 1.4 1.7 1.6 3 7.9 3.3 9.2.4.8.7 1.6 1 2.4 1 2.6 1.4 5.4 1.4 8.2l2.5 2.3s-1.5-14.3-9.7-27.6c0 1.7.1 3.5-.3 4.1zm-12.3-11.5s0 .3.1.8c.2.1.3.2.5.3l-.6-1.1zm-24.3-9.7s0 .2.1.4c.2 0 .4.1.6.1l-.7-.5zm36.6 69.4c-.5.9-1 3.5-1.5 6.4 3.1-1.8 6.5-2.7 7.3.9 1.4 7-3.5 10.4-3 14 .6 3.7.1 6.5 0 9.1s-.3 5.7-3.3 6.5c-2 .5-3.7.4-5.8-1.3-1 4.3-2 8-2.7 10-1.6 4.3-5.7 8.7-12.1 14.6-1 6.5-2.1 16-1.3 20.3.6 3 2.9 6.2 5.3 8.7 1.2-2.3 1.4-3.9 1.4-3.9.6 1.8 2.6 4 4.7 6l34.8 16.2s4.1.5 9.2 3.7c-4.1-10-17.9-44.9-17.9-54.8 0-11.5-6.8-29.1-5.2-35.5 1.6-6.4-1.4-29.1-1.4-29.1l3.2 6.3-4.5-21.6c-.9 8.1-4.4 15.3-4.4 15.3s-1.5 6-2.8 8.2z"/><path fill="#CCAD9F" d="M160.8 191.3c-2.4-2.5-4.7-5.6-5.3-8.7-.8-4.2.4-13.8 1.3-20.3-2.1 2-4.5 4.1-7.1 6.5-10 9.1-20.7 8.3-21.7 8.2v29c22-.1 30-9.3 32.8-14.7zm16.6-52.2c3-.8 3.2-4 3.3-6.5s.6-5.4 0-9.1c-.6-3.7 4.4-7 3-14-.7-3.6-4.1-2.7-7.3-.9-.4 2.5-.8 5.3-1.1 7.3 0 3.6-1.9 13.9-3.8 22.1 2.3 1.4 4 1.6 5.9 1.1z"/><path fill="#DEBCAD" d="M149.8 168.8c2.6-2.4 5-4.5 7.1-6.5 6.4-6 10.5-10.3 12.1-14.6.7-2 1.7-5.7 2.7-10 1.9-8.2 3.7-18.4 3.8-22.1-.2 1.8-.4 3-.4 3s-.7-17.2-5.4-24.2c-3.8-5.6-10.9-24.8-10.9-24.8l4 12.5c-5.8-3.5-8.8-14.5-8.8-14.5v7.5l-7.5-7.5 4 7.5-12-12 7.3 8.8c-7.6-2.4-16.7-8.1-17.7-8.7v88.1c.4 0 2.4.1 3.4-.8 1.7-.8 4-.1 5.2 1.3 2.4 2.2 6.2 1.2 8.7 2 0 0-6.8 4.6-17.3 4.6V177c.9.1 11.6 1 21.7-8.2zm-7.8-54.9c-2.9 0-3.6-3.6-3.6-3.6 3.8-1.2 15.8-2.6 18.4-1.4 2.6 1.2 9.3 5.3 7.4 5-1.9-.2-6.9-2.2-10.8-2.3-3.7-.1-8.5 2.3-11.4 2.3z"/><path fill="#5E4332" d="M164.3 113.9c1.9.2-4.8-3.8-7.4-5-2.6-1.2-14.6.2-18.4 1.4 0 0 .7 3.6 3.6 3.6s7.7-2.4 11.5-2.3c3.7.2 8.8 2.1 10.7 2.3z"/><path fill="#9F6269" d="M128 158.6c10.5 0 17.3-4.6 17.3-4.6-2.5-.9-6.3.1-8.7-2-1.3-1.4-3.5-2.1-5.2-1.3-1 .9-3 .8-3.4.8v7.1z"/><path fill="#5E4332" d="M155.1 42.7s-5 1.6-8.6 2.1c5.5.6 10.2 1.3 14.1 2.2-2.7-1.9-5.5-4.3-5.5-4.3zm-12.2.4c-.1.6-.4 1-.7 1.4.3 0 .6 0 .9.1-.1-.4-.1-1.2-.2-1.5zm28.5 7h-.4c.3.1.7.3 1 .4-.4-.2-.6-.4-.6-.4zM128 43.9c2.7 0 5.3.1 7.8.1-3.3-1.3-7.2-3.2-7.8-3.5v3.4zm56 22.8c-.3-.7-.6-1.5-1-2.4v.3c-16.1-17.6-53.3-14-55-13.8v12.5c.9.6 10.1 6.3 17.7 8.7l-7.3-8.8 12 12-4-7.5 7.5 7.5v-7.5s3 11 8.8 14.5l-4-12.5s7.1 19.2 10.9 24.8c4.7 7 5.4 24.2 5.4 24.2s.1-1.2.4-3c.3-2 .6-4.7 1.1-7.3.5-2.9 1-5.6 1.5-6.4 1.2-2.2 2.8-8.1 2.8-8.1s3.5-7.2 4.4-15.3c.1-1.2.2-2.5.2-3.7 0-2.8-.4-5.6-1.4-8.2zm-42.6-33.6c.1.9.6 3.2 1.4 6.5.2.8.3 1.4.3 2 .5-2.5 2-5.8 2-5.8l-3-2.6c-.3 0-.5-.1-.7-.1zm24.3 10c.1.6.2 1.6.2 2.6.2-1 .5-1.7.5-1.7l-.2-.5c-.2-.2-.3-.3-.5-.4z"/><path fill="#6A6E84" d="M136.2 29.9c0 .4 5.3-4.7 5.3-4.7l-8.9-2.8-4.5-7.3V35l8.5 3c-.1 0-.4-8.5-.4-8.1zm34.6 13.2l-1.9 4.6 4.2-2 3.3 3.3-.4-4.7 2.7-2-3.7-1.9-1.1-3.9-2.4 2.3-3.3-1.2zm-18.4-13.4l-6.7-.4 4.8 4.7-1.3 5.9 5.7-2.1 4.9 3.2-.1-4.9 3.9-2.7-6.5-2.4-2.2-6.1z"/><path fill="#7B5258" d="M128 8zm0 7v.1l4.5 7.3 8.9 2.8s-5.3 5-5.3 4.7c0-.4.4 8.1.4 8.1l-8.5-3v5.5c.6.3 4.5 2.2 7.8 3.5 2.2.1 4.4.2 6.4.3.3-.3.6-.8.7-1.4 0 .3.1 1.1.2 1.4 1.2.1 2.3.2 3.4.3 3.6-.5 8.6-2.1 8.6-2.1s2.8 2.4 5.5 4.3c4.3 1 7.6 2.1 10.3 3.1h.4s.2.2.5.4c2.8 1.2 4.7 2.4 6 3.2.4-.6.4-2.4.2-4.1-.1-1.6-.4-3-.4-3s3.6-2.9 3.6-4.3-4.6-3-4.6-3-1.2-5.5-3.3-5.9c-2.2-.4-3.2.6-3.2.6s1.3-1.9-.1-3c-1.4-1.1-9.1-4.3-9.1-4.3s-1.1-8.3-4.4-8.7c-3.4-.5-6.1 5.3-6.1 5.3s-1-2.5-2.6-2.5-10.7-2.8-10.7-2.8-3.1-4.6-4.6-6.8c-1.3-2-3-3-4.5-3v7zm29.1 16l6.5 2.4-3.9 2.7.2 4.9-4.9-3.2-5.7 2.1 1.3-5.8-4.8-4.8 6.7.4L155 25l2.1 6zm16.8 5.5l1.1 3.8 3.7 2-2.7 2 .3 4.6-3.3-3.3-4.2 2 1.9-4.6-2.6-5.5 3.4 1.2 2.4-2.2zm-30.8 5.1c0-.6-.1-1.2-.3-2-.8-3.3-1.2-5.6-1.4-6.5 0-.3-.1-.4-.1-.4l.7.6 3 2.6c0-.1-1.5 3.2-1.9 5.7zm22.8 4.1c0-1-.1-1.9-.2-2.6-.1-.5-.1-.8-.1-.8l.6 1.1.2.5s-.2.8-.5 1.8z"/><path fill="#865A61" d="M128 50.8c1.7-.2 38.9-3.8 55 13.8v-.3c-.3-1.3-1.6-7.6-3.3-9.2-.3-.3-.9-.8-1.8-1.4-1.3-.9-3.2-2-6-3.2-.3-.1-.6-.3-1-.4-2.7-1.1-6-2.2-10.3-3.1-3.9-.9-8.6-1.7-14.1-2.2-1.1-.1-2.2-.2-3.4-.3-.3 0-.6 0-.9-.1-2-.1-4.2-.3-6.4-.3-2.5-.1-5-.1-7.8-.1v6.8z"/><path fill="#383854" d="M162.2 187.4s-.3 1.6-1.4 3.9C158 196.7 150 205.9 128 206v7c1.7-.1 30.9-1.6 38.9-19.6-2.1-2-4-4.2-4.7-6z"/><path fill="#B1A7B6" d="M202.3 224.5l-.2-4.3-.5-10.6-34.8-16.2c-7.9 18-37.2 19.5-38.9 19.6v43c27.9 0 53.6-8.9 74.6-24l-.2-7.5c.1 0 0 0 0 0z"/><path fill="#383854" d="M210.9 213.3c-5.1-3.2-9.2-3.7-9.2-3.7l.5 10.6-.1-2s5.5 3.5 13.8 2.8c.7-.6 1.3-1.3 2-1.9-2.4-2.5-4.8-4.4-7-5.8zm-8.5 11.2l.3 7.4-.1-1.6s.5.2 1.4.6c2.2-1.7 4.4-3.4 6.6-5.2-2.9 0-5.8-.3-8.2-1.2z"/><path fill="#9A718F" d="M202.1 218.3l.1 2 .2 4.3c2.4.9 5.4 1.2 8.3 1.2 1.8-1.5 3.5-3.1 5.2-4.7-8.3.7-13.8-2.8-13.8-2.8zm.5 12.1l.1 1.6c.5-.3.9-.7 1.4-1l-1.5-.6z"/><path fill="#311D0E" d="M114.7 32.6l-.7.6c.2 0 .4-.1.6-.1 0-.3.1-.5.1-.5zm-24.3 9.7l-.6 1.1c.2-.1.3-.2.5-.3 0-.4.1-.8.1-.8zm-1.3 151.1c2.1-2 4-4.2 4.7-6 0 0 .3 1.6 1.4 3.9 2.4-2.5 4.7-5.6 5.3-8.7.8-4.2-.4-13.8-1.3-20.3-6.4-6-10.5-10.3-12.1-14.6-.7-2-1.7-5.7-2.7-10-2.1 1.6-3.8 1.8-5.8 1.3-3-.8-3.2-4-3.3-6.5s-.6-5.4 0-9.1c.6-3.7-4.4-7-3-14 .7-3.6 4.1-2.7 7.3-.9-.5-2.9-1-5.6-1.5-6.4-1.2-2.2-2.8-8.1-2.8-8.1s-3.5-7.2-4.4-15.3l-4.5 21.6 3.2-6.3s-3 22.7-1.4 29.1c1.6 6.4-5.2 24-5.2 35.5 0 9.8-13.9 44.8-17.9 54.8 5.1-3.2 9.2-3.7 9.2-3.7l34.8-16.3zM72 66.7c.3-.7.6-1.5 1-2.4.3-1.3 1.6-7.6 3.3-9.2.3-.3.9-.8 1.8-1.4-.4-.6-.4-2.4-.2-4.1-8.3 13.3-9.7 27.6-9.7 27.6l2.5-2.3c-.1-2.8.3-5.6 1.3-8.2zM128 32v-7 7z"/><path fill="#B49A8E" d="M128 213v-36s-11.3 1.4-21.8-8.1c-2.6-2.4-5-4.5-7.1-6.5 1 6.5 2.1 16 1.3 20.3-.6 3-2.9 6.2-5.3 8.7C98 196.8 106 206 128 206v50-43zM79.6 108.4c-3.1-1.8-6.5-2.7-7.3.9-1.4 7 3.5 10.4 3 14-.6 3.7-.1 6.5 0 9.1s.3 5.7 3.3 6.5c2 .5 3.7.4 5.8-1.3-1.9-8.2-3.7-18.4-3.8-22.1-.2-1.8-.6-4.5-1-7.1z"/><path fill="#CCAD9F" d="M110.6 153.9c2.5-.9 6.3.1 8.7-2 1.3-1.4 3.5-2.1 5.2-1.3 1.2 1 3.5.8 3.5.8V63.2s-2-1.1-7.3-2.6l6.5 6.5-12.7-4.9 2.9 4.5-8.3-3.2 1.4 4.6s-5.6-2.9-11.3.6c0 0-6 6.2-9.8 11.8-4.7 7-8.6 38-8.6 38s-.1-1.2-.4-3c0 3.6 1.9 13.9 3.8 22.1 1 4.3 2 8 2.7 10 1.6 4.3 5.7 8.7 12.1 14.6 2.1 2 4.5 4.1 7.1 6.5 10.5 9.6 21.8 8.1 21.8 8.1v-18.4c-10.4.2-17.3-4.5-17.3-4.5zm-18.9-40c-1.9.2 4.8-3.8 7.4-5 2.6-1.2 14.6.2 18.4 1.4 0 0-.7 3.6-3.6 3.6s-7.7-2.4-11.5-2.3c-3.7.2-8.8 2.1-10.7 2.3z"/><path fill="#4A3323" d="M114 113.9c2.9 0 3.6-3.6 3.6-3.6-3.8-1.2-15.8-2.6-18.4-1.4-2.6 1.2-9.3 5.3-7.4 5 1.9-.2 6.9-2.2 10.8-2.3 3.7-.1 8.5 2.3 11.4 2.3z"/><path fill="#884C4F" d="M124.6 150.6c-1.7-.8-4-.1-5.2 1.3-2.4 2.2-6.2 1.2-8.7 2 0 0 6.9 4.6 17.4 4.6v-7.1c-.1 0-2.4.3-3.5-.8z"/><path fill="#4A3323" d="M114 33.2l-3 2.6s1.5 3.3 2 5.8c0-.6.1-1.2.3-2 .8-3.3 1.2-5.6 1.4-6.5-.3 0-.5.1-.7.1zM89.8 43.5l-.2.5s.3.8.5 1.7c0-1 .1-1.9.2-2.6-.2.1-.3.2-.5.4zm11.1-.8s-2.8 2.4-5.5 4.3c3.9-.9 8.6-1.7 14.1-2.2-3.6-.5-8.6-2.1-8.6-2.1zM78.1 102c.5.9 1 3.5 1.5 6.4.4 2.5.8 5.3 1.1 7.3.2 1.8.4 3 .4 3s3.9-31 8.6-38c3.8-5.6 9.8-11.8 9.8-11.8 5.8-3.5 11.3-.6 11.3-.6l-1.4-4.6 8.3 3.2-2.9-4.5 12.7 4.9-6.5-6.5c5.3 1.4 7.3 2.6 7.3 2.6V51s-38.6-4.2-55 13.8v-.3c-.4.8-.7 1.6-1 2.4-1 2.6-1.4 5.4-1.4 8.2 0 1.2.1 2.5.2 3.7.9 8.1 4.4 15.3 4.4 15.3s1.3 5.7 2.6 7.9zm6.5-51.9s-.2.2-.5.4c.3-.1.6-.3 1-.4h-.5zm28.5-7c0 .3-.1 1.1-.2 1.4.3 0 .6 0 .9-.1-.3-.3-.6-.7-.7-1.3zM128 32v3zm0 11.9v-3.4s-4.3 2.1-7.9 3.5c2.6 0 5.2-.1 7.9-.1z"/><path fill="#5D6175" d="M128 32V15l-4.6 7.4-8.9 2.8s5.3 5 5.3 4.7c0-.4-.4 8.1-.4 8.1l8.6-3v-3z"/><path fill="#6A6E84" d="M96.3 36.1l-.1 4.9 4.9-3.2 5.7 2.1-1.3-5.9 4.8-4.7-6.7.4-2.5-4.8-2.2 6.1-6.5 2.4zm-19 6.2l2.7 2-.4 4.7 3.3-3.3 4.2 2-1.9-4.6 2.6-5.5-3.3 1.2-2.4-2.3-1.1 3.9z"/><path fill="#644147" d="M78.1 53.8c1.3-.9 3.2-2 6-3.2.3-.3.5-.4.5-.4h.4c2.7-1.1 6-2.2 10.3-3.1 2.7-1.9 5.5-4.3 5.5-4.3s5 1.6 8.6 2.1c1.1-.1 2.2-.2 3.4-.3.1-.3.2-1.1.2-1.4.1.6.4 1 .7 1.4 2-.1 4.2-.3 6.4-.3 3.5-1.4 7.9-3.5 7.9-3.5v-5.5l-8.6 3s.4-8.5.4-8.1c0 .4-5.3-4.7-5.3-4.7l8.9-2.8L128 15V8c-1.5 0-3.1 1-4.5 3.1-1.4 2.2-4.6 6.8-4.6 6.8s-9 2.8-10.7 2.8-2.6 2.5-2.6 2.5-2.8-5.7-6.1-5.3c-3.4.5-4.4 8.7-4.4 8.7s-7.7 3.2-9.1 4.3c-1.4 1.1-.1 3-.1 3s-1.1-1-3.2-.6c-2.2.4-3.3 5.9-3.3 5.9s-4.6 1.6-4.6 3 3.6 4.3 3.6 4.3-.2 1.4-.4 3c-.2 1.9-.3 3.7.1 4.3zm6.4-15l3.4-1.2-2.6 5.5 1.9 4.6-4.2-2-3.4 3.3.3-4.6-2.7-2 3.7-2 1.1-3.8 2.5 2.2zM98.9 31l2.2-6 2.5 4.7 6.7-.4-4.8 4.8 1.3 5.8-5.7-2.1-4.9 3.2.2-4.9-3.9-2.7 6.4-2.4zm-9.3 12.9l.2-.5.6-1.1s0 .3-.1.8c-.1.6-.2 1.6-.2 2.6-.3-1-.5-1.8-.5-1.8zm23.3-2.3c-.5-2.5-2-5.8-2-5.8l3-2.6.7-.6s0 .2-.1.4c-.1.9-.6 3.2-1.4 6.5-.1.8-.1 1.5-.2 2.1z"/><path fill="#7B5258" d="M128 43.9c-2.8 0-5.4.1-7.9.1-2.2.1-4.4.2-6.4.3-.3 0-.6 0-.9.1-1.2.1-2.3.2-3.4.3-5.5.6-10.2 1.3-14.1 2.2C91 47.9 87.7 49 85 50c-.3.1-.7.3-1 .4-2.8 1.2-4.7 2.4-6 3.2-.9.6-1.4 1.1-1.8 1.4-1.7 1.6-3 7.9-3.3 9.2v.3c16.4-18 55-13.8 55-13.8v-6.8z"/><path fill="#28273F" d="M89.1 193.4c8.2 18.5 39 19.6 39 19.6v-7c-22.1 0-30-9.2-32.8-14.7-1.2-2.3-1.4-3.9-1.4-3.9-.8 1.8-2.7 4-4.8 6z"/><path fill="#8E8794" d="M128 213s-30.8-1.1-39-19.6l-34.8 16.2-.5 10.6-.2 4.3-.3 7.4c21 15.1 46.8 24 74.7 24V213z"/><path fill="#28273F" d="M53.9 218.3l-.1 2 .5-10.6s-4.1.5-9.2 3.7c-2.2 1.4-4.6 3.3-6.9 5.8.7.6 1.3 1.3 2 1.9 8.2.7 13.7-2.8 13.7-2.8zm-8.5 7.4c2.1 1.8 4.3 3.5 6.6 5.2.9-.3 1.4-.6 1.4-.6l-.1 1.6.3-7.4c-2.4.9-5.3 1.2-8.2 1.2z"/><path fill="#7A5972" d="M53.6 224.5s.1 0 0 0l.2-4.3.1-2s-5.5 3.5-13.8 2.8c1.7 1.6 3.5 3.2 5.2 4.7 3 0 5.9-.3 8.3-1.2zm-1.7 6.4c.5.3.9.7 1.4 1l.1-1.6c0 .1-.5.3-1.5.6z"/></svg>