<svg xmlns="http://www.w3.org/2000/svg" width="256" height="256"><circle fill="#B1B3B5" cx="128" cy="128" r="128"/><path fill="#886E41" d="M128.2 8.9h-.2.2zM79.4 178.2c19.7 2.6 25.4-10.8 26.2-24.6-5.3-5.2-9.6-14.2-13.8-28.2-.8-2.8-1.6-6.4-2.4-10.6-1-.2-2.4-.6-4.1-1.3-3.6-1.4-7.9-7.7-8.9-11.5s-4.3-11.5-5.3-15.6-.2-8.1 4.8-9.3c.6-.1 1.2-.2 1.9-.1-.7-.3-1.2-.4-1.2-.4C71.2 22.9 99 28.7 99 28.7S96.1 13 125.8 18.4c.7.1 1.3.3 1.9.4v-10c-4 .2-37.5 2.4-48 28.2-11.2 27.5-16 61.9-11.5 95.2 4.5 33.2-.6 40.6-12.8 47.3 0 0 .6.7 1.8 1.5 9.6-2.1 20.8-6.6 20.8-6.6.3 1.3.8 2.6 1.4 3.8z"/><path fill="#BEA195" d="M84.6 85.6v-.4c-1.5-5.2-4.9-7.4-6.7-8.2-.6-.1-1.3 0-1.9.1-5 1.2-5.7 5.3-4.8 9.3 1 4.1 4.3 11.7 5.3 15.6s5.3 10.1 8.9 11.5c1.7.7 3.1 1.1 4.1 1.3-1.1-5.9-2-12.8-2.8-19.6l-2.1-9.6zm24.4 70.8c-1.2-.8-2.3-1.7-3.4-2.7-.8 13.8-6.5 27.2-26.2 24.6 5 11.4 15.4 16.7 23.4 21.9 8.9 5.7 6.4 16.3 6.4 16.3 0 17 4.6 30.2 9.4 39.2 3 .2 6.1.3 9.2.3v-96.1c-8.3 0-11.8.9-18.8-3.5z"/><path fill="#CCAD9F" d="M116.2 138.2c-2.2-3.1-4.1-5.9-4.9-7.1-1.3-.5-2.1-1-2.1-1 5.3-1.4 6.5-2.6 9.8-4.3 2.8-1.4 7.3 1.1 8.7 1.9V49.8c-6-6.7-13.7-8.6-21.9-4.2-.1.3-.2.4-.2.4s-2.2-1.4-9.6 2.2c-9.5 5.3-9.1 49-9.1 49l-.4-2c.8 6.9 1.8 13.8 2.8 19.6.7 4.2 1.5 7.8 2.4 10.6 4.2 14 8.5 23 13.8 28.2 1.1 1.1 2.2 2 3.4 2.7 6.9 4.4 10.4 3.5 18.7 3.5V143c-1-.1-6.3-.5-11.4-4.8zM95.7 82.9s-1.4-1.4 0-2.2 5.1-3.9 10.9-2.2c5.7 1.8 10.1 3.7 12.8 7.3 0 0-6.4-4-14-4.9-7.8-.4-9.7 2-9.7 2z"/><path fill="#BCACAE" d="M127.8 135.3V131c-1.4 0-5.9.1-10.1.7-.6.1-1.1.1-1.6.1 2 1.5 6.4 4.3 11.8 4.4v-.9z"/><path fill="#884251" d="M119.1 125.7c-3.4 1.7-4.6 2.9-9.8 4.3 0 0 .8.5 2.1 1-.3-.4-.4-.6-.4-.6l3.8.4s.4.4 1.2 1c.5 0 1.1 0 1.6-.1 4.2-.6 8.8-.7 10.1-.7v-3.5c-1.3-.7-5.8-3.2-8.6-1.8z"/><path fill="#884251" d="M127.8 136.3c-5.4-.2-9.7-2.9-11.8-4.4-.8-.6-1.2-1-1.2-1l-3.8-.4s.1.2.4.6c.8 1.2 2.7 4.1 4.9 7.1 5.1 4.4 10.4 4.8 11.6 4.8v-6.7z"/><path fill="#BEA195" d="M37.4 184.5s-9 .5-16.2 14.1c6.9 10.4 15.3 19.8 24.8 27.7v-.9c-.3-32.3-8.6-40.9-8.6-40.9z"/><path fill="#24275A" d="M102.8 200.1c-8.1-5.2-18.4-10.5-23.4-21.9-.6-1.3-1.1-2.6-1.5-4 0 0-11.2 4.5-20.8 6.6-3.4.7-6.5 1.2-8.9 1-9.3-.6-8.9-1.3-10.9 2.6 0 0 8.3 8.6 8.6 40.9v.9c20 16.7 45.1 27.4 72.6 29.4-4.7-9.1-9.4-22.3-9.4-39.2.1 0 2.7-10.5-6.3-16.3z"/><path fill="#A2814E" d="M140.4 23.8c7.8-.4 21.8-.3 26.6 6.6 6.7 9.6 10.8 38.8 10.8 38.8l-4.2 9.4c2-1.2 4.4-2 6.4-1.5 5 1.2 5.7 5.3 4.8 9.3-.2.8-.4 1.7-.8 2.6 2.1 1.9 3.5 3.1 3.5 3.1-1.5-.1-3-.2-4.4-.4-1.3 3.7-2.9 7.7-3.6 10.2-1 3.8-5.3 10.1-8.9 11.5-1.7.7-3.1 1.1-4.1 1.3-.7 4.2-1.5 7.8-2.4 10.6-4 13.1-7.9 21.8-12.8 27.1 1.2 14.2 6.9 28.3 25.2 25.7.6-1.3 1.1-2.6 1.5-4 0 0 11.2 4.5 20.8 6.6 1.2-.8 1.8-1.5 1.8-1.5-12.1-6.7-17.2-14-12.8-47.3 4.5-33.2-.3-67.7-11.5-95.2-10.5-25.8-44-27.9-48.1-28.1h-.4v10c5.1 1.4 9.2 3.1 12.6 5.2z"/><path fill="#CCAD9F" d="M184 89.1c.3-1 .6-1.9.8-2.6 1-4.1.2-8.1-4.8-9.3-2.1-.5-4.4.3-6.4 1.5 3.9 4.2 7.7 7.9 10.4 10.4zm-17.4 25.7c1-.2 2.4-.6 4.1-1.3 3.6-1.4 7.9-7.7 8.9-11.5.6-2.5 2.2-6.6 3.6-10.2-4.7-.6-9-2-12.9-3.6-1.1 9.1-2.3 18.8-3.7 26.6zm-13.4 85.3c8-5.2 18.4-10.5 23.4-21.9-18.2 2.6-23.9-11.5-25.2-25.7-1.4 1.6-2.9 2.8-4.5 3.8-7 4.5-10.5 3.5-19.2 3.5V256h.2c3.2 0 6.3-.1 9.4-.3 4.7-9.1 9.4-22.3 9.4-39.2.1-.1-2.5-10.6 6.5-16.4z"/><path fill="#DEBCAD" d="M166.6 114.8c1.4-7.9 2.6-17.5 3.6-26.6-4-1.7-7.6-3.7-10.5-5.6-.1.2-.3.3-.3.3s-1.9-2.5-9.6-2.1c-7.6.9-14 4.9-14 4.9 2.7-3.6 7-5.5 12.8-7.3 2-.6 3.7-.6 5.2-.4-2.5-2.1-3.9-3.5-3.9-3.5-.1-.1-.2-.3-.3-.4-4.1-4.1-14.6-14.9-19.7-21.9-.6-.9-1.3-1.7-2-2.5v78.1s5.7-3.8 9.1-2.2 4.6 2.9 9.8 4.3c0 0-.8.5-2.1 1-.8 1.2-2.7 4.1-4.9 7.1-5.8 5.1-11.8 5-11.8 5l-.1-5.8v22.6c8.6 0 12.1 1 19.2-3.5 1.6-1 3.1-2.3 4.5-3.8 4.8-5.3 8.8-14 12.8-27.1.6-2.8 1.4-6.4 2.2-10.6z"/><path fill="#D2BFC1" d="M127.8 135.3v.9c5.6 0 10.1-2.9 12.2-4.4-.5 0-1.1 0-1.6-.1-5-.7-10.5-.7-10.5-.7v4.3zm0 1v.9z"/><path fill="#9D4D5E" d="M127.8 131s5.5 0 10.5.7c.6.1 1.1.1 1.6.1.8-.6 1.2-1 1.2-1l3.8-.4s-.1.2-.4.6c1.3-.5 2.1-1 2.1-1-5.3-1.4-6.5-2.6-9.8-4.3s-9.1 2.2-9.1 2.2v3.1z"/><path fill="#9D4D5E" d="M141.2 130.8s-.4.4-1.2 1c-2.1 1.6-6.6 4.4-12.2 4.4v1l.1 5.8s6.1.2 11.8-4.8c2.2-3.1 4.1-5.9 4.9-7.1.3-.4.4-.6.4-.6l-3.8.3z"/><path fill="#CCAD9F" d="M218.6 184.5s-8.3 8.6-8.6 40.9v.9c9.6-8 17.9-17.3 24.8-27.7-7.2-13.6-16.2-14.1-16.2-14.1z"/><path fill="#353C79" d="M218.6 184.5c-1.9-3.8-1.6-3.2-10.9-2.6-2.4.2-5.6-.3-8.9-1-9.6-2.1-20.8-6.6-20.8-6.6-.4 1.4-.9 2.7-1.5 4-5 11.4-15.4 16.7-23.4 21.9-8.9 5.7-6.4 16.3-6.4 16.3 0 17-4.6 30.2-9.4 39.2 27.5-2 52.6-12.7 72.6-29.4v-.9c.4-32.3 8.7-40.9 8.7-40.9z"/><path fill="#A2814E" d="M161 61.5c2.5 5.5 7.6 11.7 12.6 17.1l4.2-9.4S173.7 40 167 30.4c-4.8-6.8-18.7-7-26.6-6.6 15.1 9.6 15.7 27.3 20.6 37.7z"/><path fill="#7F5639" d="M105.3 80.9c7.6.9 14 4.9 14 4.9-2.7-3.6-7-5.5-12.8-7.3-5.7-1.8-9.4 1.4-10.9 2.2s0 2.2 0 2.2 2-2.4 9.7-2z"/><path fill="#936445" d="M148.5 78.5c-5.7 1.8-10.1 3.7-12.8 7.3 0 0 6.4-4 14-4.9 7.7-.4 9.6 2.1 9.6 2.1l.3-.3c-2.4-1.6-4.4-3.1-6-4.4-1.4-.4-3.1-.4-5.1.2z"/><path fill="#AF8E5E" d="M84.6 85.2c-.1-4.1-.6-36.1 6.7-42.4 7.8-6.7 14.4 3.1 14.4 3.1l.2-.4h-.1s.7-11.3 11.1-10.2c10.4 1 24.9 23.5 34.2 40.5l-1.6-1.6c.1.1.2.3.3.4 0 0 1.4 1.5 3.9 3.5 1.6 1.3 3.6 2.8 6 4.4 3 1.9 6.5 3.9 10.5 5.6 3.9 1.6 8.2 2.9 12.9 3.6 1.4.2 2.9.3 4.4.4 0 0-1.3-1.2-3.5-3.1-2.7-2.5-6.6-6.2-10.5-10.4-5-5.4-10-11.7-12.6-17.1-4.8-10.4-5.4-28.2-20.5-37.7-3.4-2.1-7.6-3.9-12.7-5-.6-.1-1.3-.3-1.9-.4C96.1 13 99 28.7 99 28.7S71.2 23 76.6 76.6c0 0 .5.1 1.2.4 1.9.8 5.3 3 6.8 8.2z"/><path fill="#A2814E" d="M151.1 75.8c-9.3-16.9-23.8-39.4-34.2-40.5-10.4-1-11.1 10.2-11.1 10.2h.1c8.2-4.3 15.9-2.5 21.9 4.2.7.8 1.4 1.6 2 2.5 5 7 15.6 17.9 19.7 21.9 1 1.1 1.6 1.7 1.6 1.7z"/><path fill="#886E41" d="M91.3 42.9c-7.3 6.3-6.8 38.3-6.7 42.4v.4l2 9.5.4 2s-.4-43.7 9.1-49c7.3-3.5 9.6-2.2 9.6-2.2s-6.5-9.8-14.4-3.1z"/></svg>