<svg xmlns="http://www.w3.org/2000/svg" width="256" height="256"><circle fill="#B1B3B5" cx="128" cy="128" r="128"/><path fill="#AE806B" d="M158.1 165.2c-1.1.9-2.4 1.7-3.7 2.5-9.7 6.8-10.5 9.3-26.4 9.3v16.3s13.8-5.7 26.3-14.5c11.3-8 10.6-19.8 10.6-19.8.1 0 .1.1.2.1l-.1-1.4c-2 3.1-4.3 5.9-6.9 7.5z"/><path fill="#AE806B" d="M128.1 193.4c-.1-.1-.1-.2-.1-.2v.2h.1z"/><path fill="#15222E" d="M186.1 176.6c13.6 12.3 26.2 40.8 26.2 40.8l-15.6 7.8 8 5.2c12.7-9.6 23.6-21.5 32.1-35-2.5-1-4.8-1.9-6.9-2.7-10.1-3.8-30-11.1-43.8-16.1z"/><path fill="#0A222F" d="M166.1 207.5c-5.2 12.8-14 30.3-14 30.3-1.1-9.4-6.7-16.6-9.9-23.4-.8-1.7-2.1-3.8-3.6-6.1l-2.6 9s-.2.4-.9.8l3.3 37.4c6.6-.5 13-1.6 19.3-3.1 2.2-10.8 4.5-22.2 6.1-30.8.8-4.7 1.6-9.6 2.3-14.1z"/><path fill="#202D39" d="M212.4 217.4s-12.6-28.5-26.2-40.8c-.3-.3-.6-.5-.9-.8-13.5-11.5-13.7-17.1-19.8-19.1-.2.3-.3.6-.5.9l.1 1.4c3.3 1.3 4.3 8.8 4.3 8.8 6.2 5.1 3.2 20.1 0 31-.7 2.3-1.8 5.3-3.2 8.7-.7 4.6-1.4 9.4-2.3 14.2-1.6 8.6-3.8 20.1-6.1 30.8 17.3-4.1 33.3-11.8 47.1-22.1l-8-5.2 15.5-7.8z"/><path fill="#2C3433" d="M128 219.5V256c3.5 0 7-.1 10.4-.4l-3.3-37.4c-1 .5-3.1 1.3-7.1 1.3z"/><path fill="#3E4746" d="M128.1 193.4h-.1v26c4 0 6.1-.7 7.1-1.4.7-.4.9-.8.9-.8l2.6-9c-4.1-6.2-9.6-13.6-10.5-14.8z"/><path fill="#19313F" d="M154.3 178.7c-12.5 8.8-26.3 14.5-26.3 14.5s0 .1.1.2c.9 1.2 6.4 8.6 10.5 14.9 1.5 2.3 2.8 4.5 3.6 6.1 3.2 6.7 8.9 14 9.9 23.4 0 0 8.7-17.6 14-30.3 1.4-3.4 2.5-6.4 3.2-8.7 3.2-10.9 6.2-25.9 0-31 0 0-.9-7.5-4.3-8.8-.1 0-.1-.1-.2-.1 0 0 .8 11.9-10.5 19.8z"/><path fill="#C08C76" d="M176.1 117.2c.1 0 .2.1.3.1 6.9 3.1 9.8-3.8 9.6-6.7-.2-2.9.5-8.1 0-12.7s0-7.4 0-12.7c0-5.3-1-9.8-3.4-12.2-1.2-1.2-3.2.1-4.9 1.7 0 15.6-1 33.9-1.6 42.5z"/><path fill="#D7A990" d="M146.7 145.9s-.5 2.1-1.9 4.6-2.9 3.5-.5 4.2 4.6-1.7 7.8-3.1c3.2-1.4 4.7-.2 4.9-5s2.9-2.4.2-7.9c-2.6-5.5 0-7.2-5.1-7.9-5.1-.7-4.9-2.6-9.9-1.9-5 .7-4.6 1.9-14.1 1.9v15.8c-.1 0 12.8.9 18.6-.7z"/><path fill="#D7A990" d="M151.3 54.9c5.6-.2 15.6 5.9 15.6 5.9s-10.2-2.6-12.9-3.7c-2.7-1.1-6.9-.5-10.5 1-3.7 1.4-15.5 1.8-15.5 1.8v4c4.8 0 12.5-.5 17.2-1.6 3.9-.9 11.9 1.9 14.8 3 .8.3 1.1.4 1.1.4s-.4-.2-1.1-.4c-.9-.3-2.5-.7-5.3-1.2-5.3-1-10.9-.8-16.2.7-5.3 1.5-10.7.7-10.7.7v58.9s12.7.7 17.2-1.7c4.6-2.4 7.9-1 9.8 1.8 1.9 2.8 5.5 10.2 5.5 10.9s1.2 7.2 1.9 7.4c.7.2 5.7-5.5 6.7-8.6 1-3.1 1.4-6.7 2.6-8.1 1-1.2 3.4-5.1 4.1-6.3.1-.7.1-1.5.2-2.4.6-8.7 1.6-27 1.6-42.5 0-10.3-.5-19.4-1.8-23.6C172.4 40 168.1 8.4 128 8.4v50.3c11.5 0 17.7-3.7 23.3-3.8zm16.4 22c-.5.5-2.4-1.5-3.9-1.8-1.5-.3-9.2-.4-10.5.1s-7 3.8-10.5 5.2c-3.5 1.5-4.9-4-4.9-4 2.3-.2 9.9-3.6 13.6-5s6.4-.7 8.4.3c2.2 1 8.3 4.7 7.8 5.2zm-13.3 90.8c1.3-.8 2.5-1.6 3.6-2.4-1.3.8-2.5 1.6-3.6 2.4z"/><path fill="#B7917D" d="M169.2 134.1c-1 3.1-6 8.9-6.7 8.6-.7-.2-1.9-6.7-1.9-7.4s-3.6-8.1-5.5-10.9c-1.9-2.8-5.3-4.2-9.8-1.8-4.6 2.4-17.2 1.7-17.2 1.7v6.5c9.6 0 9.1-1.2 14.1-1.9s4.8 1.2 9.9 1.9c5.1.7 2.5 2.4 5.1 7.9 2.6 5.5 0 3.1-.2 7.9s-1.7 3.6-4.9 5-5.4 3.8-7.8 3.1-1-1.7.5-4.2 1.9-4.6 1.9-4.6c-5.7 1.7-18.7.7-18.7.7V177c15.9 0 16.7-2.5 26.4-9.3 1.1-.8 2.3-1.6 3.6-2.4h.1c2.6-1.7 4.8-4.4 6.8-7.7.2-.3.3-.6.5-.9 7.8-14 10.7-37.4 10.7-37.4s-.1.1-.2.4c-.7 1.2-3.1 5.1-4.1 6.3-1.2 1.4-1.7 5-2.6 8.1z"/><path fill="#413D48" d="M151.6 71.4c-3.7 1.4-11.3 4.8-13.6 5 0 0 1.3 5.5 4.9 4 3.5-1.5 9.1-4.7 10.5-5.2s9-.4 10.5-.1c1.5.3 3.4 2.3 3.9 1.8.5-.5-5.6-4.2-7.7-5.2-2.1-.9-4.8-1.7-8.5-.3z"/><path fill="#B7917D" d="M138.7 64.7c5.3-1.5 10.9-1.7 16.2-.7 2.7.5 4.3.9 5.3 1.2-2.9-1.1-11-3.9-14.8-3-4.8 1.1-12.5 1.6-17.2 1.6v1.6c-.2 0 5.2.8 10.5-.7z"/><path fill="#B7917D" d="M160.1 65.2c.7.3 1.1.4 1.1.4s-.3-.2-1.1-.4zm-6.1-8.1c2.7 1.1 12.9 3.7 12.9 3.7s-10.1-6.1-15.6-5.9c-5.6.2-11.8 3.8-23.3 3.8v1.1s11.8-.3 15.5-1.8c3.7-1.4 7.8-2 10.5-.9z"/><path fill="#9A6D5D" d="M101.7 178.7c12.5 8.8 26.3 14.5 26.3 14.5V177c-15.9 0-16.7-2.5-26.4-9.3-1.3-.8-2.5-1.6-3.6-2.4h-.1c-2.6-1.7-4.8-4.4-6.8-7.7L91 159c.1 0 .1-.1.2-.1 0 0-.8 11.9 10.5 19.8zm26.3 14.8v-.2s0 .1-.1.2h.1z"/><path fill="#0C1925" d="M43.6 217.4s12.6-28.5 26.2-40.8c-13.8 5-33.7 12.3-43.8 16.1-2.1.8-4.4 1.7-6.9 2.7 8.4 13.6 19.3 25.5 32.1 35l8-5.2-15.6-7.8z"/><path fill="#001522" d="M120 217.3l-2.6-9c-1.5 2.3-2.8 4.5-3.6 6.1-3.2 6.7-8.9 14-9.9 23.4 0 0-8.7-17.6-14-30.3.7 4.6 1.4 9.4 2.3 14.2 1.6 8.6 3.8 20.1 6.1 30.8 6.3 1.5 12.7 2.5 19.3 3.1l3.3-37.4c-.7-.5-.9-.9-.9-.9z"/><path fill="#15222E" d="M89.9 207.5c-1.4-3.4-2.5-6.4-3.2-8.7-3.2-10.9-6.2-25.9 0-31 0 0 .9-7.5 4.3-8.8l.1-1.4c-.2-.3-.3-.6-.5-.9-6.1 2-6.3 7.7-19.8 19.1-.3.3-.6.5-.9.8-13.6 12.3-26.2 40.8-26.2 40.8l15.6 7.8-8 5.2c13.8 10.4 29.8 18 47.1 22.1-2.2-10.8-4.5-22.2-6.1-30.8-.9-4.8-1.7-9.7-2.4-14.2z"/><path fill="#1F2626" d="M120.9 218.1l-3.3 37.4c3.4.3 6.9.4 10.4.4v-36.5c-4 .1-6.1-.7-7.1-1.3z"/><path fill="#2C3433" d="M128 209.9v-16.4h-.1c-.9 1.2-6.4 8.6-10.5 14.9l2.6 9s.2.4.9.8c1 .6 3.1 1.4 7.1 1.4v-9.7z"/><path fill="#122A38" d="M127.9 193.4c.1-.1.1-.2.1-.2s-13.8-5.7-26.3-14.5c-11.3-8-10.6-19.8-10.6-19.8-.1 0-.1.1-.2.1-3.3 1.3-4.3 8.8-4.3 8.8-6.2 5.1-3.2 20.1 0 31 .7 2.3 1.8 5.3 3.2 8.7 5.2 12.8 14 30.3 14 30.3 1.1-9.4 6.7-16.6 9.9-23.4.8-1.7 2.1-3.8 3.6-6.1 4.2-6.3 9.7-13.7 10.6-14.9z"/><path fill="#B17D6B" d="M78.3 74.8c-1.8-1.6-3.8-2.9-4.9-1.7C71 75.5 70 80 70 85.3c0 5.3.5 8.1 0 12.7s.2 9.8 0 12.7c-.2 2.9 2.6 9.8 9.6 6.7.1 0 .2-.1.3-.1-.6-8.7-1.6-27-1.6-42.5z"/><path fill="#C08C76" d="M113.9 128.9c-5-.7-4.8 1.2-9.9 1.9-5.1.7-2.5 2.4-5.1 7.9s0 3.1.2 7.9 1.7 3.6 4.9 5 5.4 3.8 7.8 3.1 1-1.7-.5-4.2c-1.4-2.6-1.9-4.6-1.9-4.6 5.7 1.7 18.7.7 18.7.7v-15.8c-9.7 0-9.2-1.2-14.2-1.9z"/><path fill="#C08C76" d="M86.8 134.1c1 3.1 6 8.9 6.7 8.6.7-.2 1.9-6.7 1.9-7.4s3.6-8.1 5.5-10.9c1.9-2.8 5.3-4.2 9.8-1.8 4.6 2.4 17.2 1.7 17.2 1.7V65.4s-5.4.8-10.7-.7c-5.3-1.5-10.9-1.7-16.2-.7-2.7.5-4.3.9-5.3 1.2-.7.3-1.1.4-1.1.4s.3-.2 1.1-.4c2.9-1.1 11-3.9 14.8-3 4.8 1.1 12.5 1.6 17.2 1.6v-4s-11.8-.3-15.5-1.8c-3.7-1.4-7.8-2.1-10.5-1-2.4 1.2-12.7 3.8-12.7 3.8s10.1-6.1 15.6-5.9c5.6.2 11.8 3.8 23.3 3.8V8.4c-40 0-44.3 31.6-47.8 42.8-1.3 4.2-1.8 13.3-1.8 23.6 0 15.5 1 33.8 1.6 42.5.1.9.1 1.7.2 2.4.7 1.2 3.1 5.1 4.1 6.3 1.2 1.4 1.7 5 2.6 8.1zm9.5-62.8c2.1-.8 4.8-1.4 8.4.2 3.7 1.6 11 5.5 13.3 5.8 0 0-1.6 5.4-5.1 3.7-3.5-1.7-8.9-5.2-10.2-5.8-1.3-.6-9-.9-10.5-.7-1.5.2-3.5 2.1-4 1.6s6-4 8.1-4.8zm1.6 94c1.1.9 2.3 1.7 3.6 2.4-1-.8-2.2-1.6-3.6-2.4z"/><path fill="#9A7C6A" d="M91.1 157.5c2 3.3 4.2 6 6.8 7.7h.1c1.3.9 2.5 1.7 3.6 2.4 9.7 6.8 10.5 9.3 26.4 9.3v-30.5s-12.9 1-18.7-.7c0 0 .5 2.1 1.9 4.6 1.4 2.6 2.9 3.5.5 4.2s-4.6-1.7-7.8-3.1c-3.2-1.4-4.7-.2-4.9-5s-2.9-2.4-.2-7.9 0-7.2 5.1-7.9c5.1-.7 4.9-2.6 9.9-1.9 5 .7 4.6 1.9 14.1 1.9v-6.5s-12.7.7-17.2-1.7c-4.6-2.4-7.9-1-9.8 1.8-1.9 2.8-5.5 10.2-5.5 10.9s-1.2 7.2-1.9 7.4c-.7.2-5.7-5.5-6.7-8.6s-1.4-6.7-2.6-8.1c-1-1.2-3.4-5.1-4.1-6.3l-.2-.4s2.9 23.3 10.7 37.4c.1.4.3.7.5 1z"/><path fill="#35323C" d="M92.3 74.5c1.5-.2 9.2.1 10.5.7 1.3.6 6.7 4.1 10.2 5.8 3.5 1.7 5.1-3.7 5.1-3.7-2.3-.3-9.7-4.2-13.3-5.8-3.7-1.6-6.3-1-8.4-.2-2.1.8-8.4 4.2-8 4.7s2.4-1.3 3.9-1.5z"/><path fill="#9A7C6A" d="M110.8 62.2c-3.9-.9-11.9 1.9-14.8 3 .9-.3 2.5-.7 5.3-1.2 5.3-1 10.9-.8 16.2.7 5.3 1.5 10.7.7 10.7.7v-1.6c-5 0-12.7-.5-17.4-1.6z"/><path fill="#B7917D" d="M95.9 65.2c-.8.3-1.1.4-1.1.4s.4-.2 1.1-.4z"/><path fill="#9A7C6A" d="M104.7 54.9c-5.6-.2-15.7 5.9-15.7 5.9s10.2-2.6 12.9-3.7c2.7-1.1 6.9-.5 10.5 1 3.7 1.4 15.5 1.8 15.5 1.8v-1.1c-11.4-.1-17.6-3.8-23.2-3.9z"/></svg>