<svg xmlns="http://www.w3.org/2000/svg" width="256" height="256"><circle fill="#B1B3B5" cx="128" cy="128" r="128"/><path fill="#534C3F" d="M185.6 160c.8 1 1.3 2.1 1.5 3.4.1.9.2 1.9.2 3l43.2 16.5c4-.1 6.5 1.3 8.1 4.1l2.4 1.2c.5-.9 1-1.9 1.5-2.8-23.3-13.2-49.8-25.8-56.9-25.4z"/><path fill="#977F60" d="M239.9 190.1c.4-.6.7-1.3 1-1.9l-2.4-1.2c.6.9 1 1.9 1.4 3.1z"/><path fill="#886F54" d="M199.5 221.6h-25.4l-.8-2.8h-3.1c-4.1 9.5-8.2 21.3-9.8 33.1 22.2-5.8 42-17.4 57.8-33.1h-17.1l-1.6 2.8zm-18.3-25h8.6v.1c18 .2 35.1 1.1 43.7 3.3l-3.2-16.9h.2l-43.2-16.5c0 7.8-2.8 21.6-6.1 30z"/><path fill="#171520" d="M169.3 193.7c.3-.6.6-1.2.8-1.8-1.4 1.8-3 3.6-4.6 4.5-.1.1-.2.1-.4.2h2.8c.5-.9.9-1.9 1.4-2.9zM128 218.8V256c7 0 13.9-.6 20.6-1.7 2.4-12.9 5.9-24.7 10-35.6H128z"/><path fill="#5B5346" d="M176.3 162.1c-.5 3.5.8 6.5 2.2 9.2 1.4 2.7-3.2 13.5-4.3 14.9-.6.8-2.2 3.3-4.1 5.7-.3.6-.5 1.2-.8 1.8-.5 1-.9 1.9-1.4 2.9 2.1 0 4.2 0 6.3-.1h7c3.3-8.4 6-22.2 6-30.1 0-1.1 0-2.2-.2-3-.2-1.3-.7-2.5-1.5-3.4-2.5-3.2-7.5-4.8-10.9-5.5 1.2 3.1 2 6.1 1.7 7.6zm-17.7 56.7c-4 10.9-7.6 22.7-10 35.6 4-.7 8-1.5 11.8-2.5 1.6-11.8 5.7-23.6 9.8-33.1h-11.6z"/><path fill="#5E4831" d="M176.8 199.5l-2.6-2.9c-2.1 0-4.2 0-6.3.1h-2.8c-3.9 2.4-15.9 8.4-37.1 8.4v13.7h45.4l7.1-1.4-3.7-17.9zm13-2.9l-2.8 4.1 4.9 16.6 9.3 1.4h17.1c5.6-5.6 10.8-11.8 15.3-18.3l-.1-.5c-8.6-2.2-25.7-3-43.7-3.3z"/><path fill="#999C9B" d="M181.2 196.6h-7l2.6 2.9 3.7 17.8-7.1 1.5.8 2.8h25.3l1.7-2.8-9.4-1.5-4.8-16.5 2.8-4.2z"/><path fill="#7C644B" d="M230.4 183h-.2l3.2 16.9.1.5c2.3-3.3 4.4-6.8 6.4-10.3-.4-1.2-.8-2.2-1.4-3.1-1.6-2.8-4-4.1-8.1-4z"/><path fill="#C08C76" d="M161.8 189.2l3.3-23.8s.4-2.7 1-5.1c-.2-.9-.3-1.4-.3-1.4l1.2-2.7c-.5.8-1 1.7-1.6 2.6-7.9 12.6-35.7 17.9-37.4 18.2v16c1.4 0 23.2.8 33.8-3.8z"/><path fill="#130C0C" d="M161.8 189.2c3-1.3 5.1-3.1 5.6-5.4 1.7-8.7-.4-19.6-1.3-23.5-.7 2.3-1 5.1-1 5.1l-3.3 23.8z"/><path fill="#2D2727" d="M167 156.1l-1.2 2.7s.1.5.3 1.4c.9 3.8 3 14.7 1.3 23.5-.5 2.3-2.6 4.1-5.6 5.4-10.6 4.6-32.5 3.8-33.8 3.8V205c21.2 0 33.2-6.1 37.1-8.4.1-.1.3-.2.4-.2 1.5-.9 3.1-2.7 4.6-4.5 1.9-2.4 3.5-5 4.1-5.7 1.1-1.4 5.7-12.2 4.3-14.9-1.4-2.7-2.7-5.7-2.2-9.2.2-1.5-.6-4.5-1.6-7.6-1-2.9-2.1-5.8-2.8-7.4-1.4 3-3 6-4.9 9z"/><path fill="#C08C76" d="M184.1 83.1c-.6.4 1.6 3.3 1.6 3.3l-3.2 1.7V92l-1.6 17.2v-.8c-.2 1.8-.3 3.6-.5 5.2-.6 5.5-1.3 10.1-2.1 14.2 1.5-.7 3.1-1.5 4.2-2.3 3-2.2 3-10.5 4.2-16 1.2-5.4 5.5-14.9 6.9-19.7 1.4-4.9 1.4-9.7-1.9-11.1-1.4-.6-4.1.9-6.6 2.7-.3.7-.7 1.5-1 1.7z"/><path fill="#D7A990" d="M180.9 108.4v-8.7s-.4-10.8 0-13.6c.4-2.8-2.4-17-2.4-17-4.8 2-11.1 4.5-14.5 5.5-1.4.4-3 .8-4.9 1.4 4.3 1 9 2.8 9 2.8h-2.4l4.2 3.5-1.5-.6 1.5 2.4S157.6 79 152.7 81c-4.9 2-11.8 2.4-11.8 2.4-2.3-.5-2.6-3.2-1.4-3.2.3 0 1.2-.3 2.4-.8-4.1.5-8.8.8-14 .8v45.3c.5.1 3.6.5 6.8-1.8 0 0 10.1 2.4 11.8 3.7 1.6 1.2 6.2 7.2 7.6 7.3s7.3 4.3 7.3 4.3h-2.8l2.8 2.2h-4.6l.9 3.1-6-3s-2.6-2.2-2.4-1.2c.1.9.4 1.8.4 1.8l-2.7-3.5s-2.1-1.2-2.4-.4c-.3.8-2.9-4.1-2.7-2.7s-3.1-.8-3 .1c.1.9-3.8-1.4-3.8-1.4l-2.2.8-1.1-.8-.4 1.1-2-1.1-.4 1.4-1.1-.8V177c1.7-.3 29.5-5.6 37.4-18.2.5-.9 1.1-1.7 1.6-2.6 1.9-3.1 3.5-6 5-9 2.7-5.5 4.7-11.4 6.3-19.2.8-4.1 1.5-8.8 2.1-14.2.3-1.8.4-3.5.6-5.4z"/><path fill="#784533" d="M140.9 83.3s6.9-.4 11.8-2.4 17.2 3.1 17.2 3.1l-1.5-2.4 1.5.6-4.2-3.5h2.4s-4.7-1.8-9-2.8c-4.2 1.1-9.9 2.5-17.1 3.3-1.2.5-2.1.8-2.4.8-1.3 0-1 2.7 1.3 3.3zm-11.3 50.5l2 1.1.4-1.1 1.1.8 2.2-.8s3.9 2.3 3.8 1.4c-.1-.9 3.1 1.2 3-.1s2.4 3.5 2.7 2.7c.3-.8 2.4.4 2.4.4l2.7 3.5s-.3-.8-.4-1.8c-.1-.9 2.4 1.2 2.4 1.2l6 3-.9-3.1h4.6l-2.8-2.2h2.8s-6-4.2-7.3-4.3-6-6.1-7.6-7.3c-1.6-1.2-11.8-3.7-11.8-3.7-3.2 2.2-6.3 1.9-6.8 1.8v9.1l1.1.8.4-1.4z"/><path fill="#6F544A" d="M128 11.1l15.8 16.7V37c20.7.7 40.3 2.3 42.7 2.6-.1-3.1-.2-6.8-.2-10.7 0-4.4-.3-10.1-1.7-15.7C167.6 4.8 148.4 0 128 0v11.1zm33 59c5.6-2.4 9.6-4.6 12.7-6.8H128v11.3c1.5 0 22.2.2 33-4.5z"/><path fill="#413632" d="M143.9 53.6l-1.6 1.1L128 41.4v21.9h45.7c3.2-2.2 5.5-4.5 8-7.2 1.8-2 3.8-3.8 5.8-5.3l-.6-11.2h-.3c-2.4-.2-22-1.9-42.7-2.6v16.6z"/><path fill="#433127" d="M181.7 56.1c-2.4 2.7-4.8 5-8 7.2s-7.1 4.4-12.7 6.8c-10.8 4.7-31.5 4.5-33 4.5V80c5.2 0 9.8-.3 14-.8 7.2-.8 12.8-2.2 17.1-3.3 1.9-.5 3.6-1 4.9-1.4 3.4-.9 9.6-3.4 14.5-5.5l9.7-4.2-1 2.7s-.4 2.2-.4 2.8-.6 1.6-.6 2.2c0 .3.4.8.9 1.3 10.1-5.9 11.9-11.1 12.9-18.6 1-7.7-6.1-8.9-6.1-8.9s-3 1.7-6.4 4.3c-2 1.7-4.1 3.5-5.8 5.5z"/><path fill="#784533" d="M186.8 70.5c0-.6.4-2.8.4-2.8l1-2.7-9.7 4.2s2.8 14.2 2.4 17c-.4 2.8 0 13.6 0 13.6v9.5l1.6-17.2v-3.8l3.2-1.7s-2.2-2.9-1.6-3.3c.3-.2.7-.9 1-1.6.3-.7.6-1.3.6-1.3l1-2.8 1.4-2.2s-.6-.5-1.1-1.1c-.5-.5-.9-1-.9-1.3.1-.9.7-1.9.7-2.5z"/><path fill="#171520" d="M128 17.2l14.5 14.3v6.3l-.5 1.1-14-13.5v4.1l14.5 14.3V50l-.5 1.2-14-13.6v3.8l14.3 13.3 1.6-1.1V27.9L128 11.1v6.1z"/><path fill="#786F5D" d="M142 51.2l.5-1.2v-6.2L128 29.5v1.7l13.5 12.9v5.1L128 36.4v1.2z"/><path fill="#5F5649" d="M128 36.4l13.5 12.8v-5.1L128 31.2v5.1z"/><path fill="#786F5D" d="M142 38.9l.5-1.1v-6.3L128 17.2v1.7l13.5 12.9v5.1L128 24.1v1.3z"/><path fill="#5F5649" d="M128 24.1l13.5 12.8v-5.1L128 18.9V24z"/><path fill="#3E392E" d="M25.6 183l43.2-16.5c0-1.1 0-2.2.2-3 .2-1.3.7-2.5 1.5-3.4-7.1-.4-33.5 12.2-56.8 25.4.5.9 1 1.9 1.5 2.8l2.4-1.2c1.5-2.9 3.9-4.2 8-4.1z"/><path fill="#886F54" d="M15 188.2c.3.6.7 1.3 1 1.9.4-1.2.8-2.2 1.4-3.1l-2.4 1.2z"/><path fill="#7C644B" d="M74.8 196.6c-3.3-8.4-6-22.2-6-30.1L25.6 183h.2l-3.2 16.9c8.6-2.2 25.7-3 43.7-3.3v-.1h8.5zm7.8 22.2l-.8 2.8H56.5l-1.6-2.8H37.8c15.8 15.7 35.6 27.3 57.8 33.1-1.6-11.8-5.7-23.6-9.8-33.1h-3.2z"/><path fill="#070411" d="M90.5 196.5c-1.5-.9-3.1-2.7-4.6-4.5.3.6.5 1.2.8 1.8.5 1 .9 1.9 1.4 2.9h2.8c-.2-.1-.3-.2-.4-.2zm37.5 22.3H97.4c4 10.9 7.6 22.7 10 35.6 6.7 1.1 13.6 1.7 20.7 1.7l-.1-37.3z"/><path fill="#534C3F" d="M68.7 166.5c0 8 2.7 21.7 6 30.1h7c2.1 0 4.2 0 6.3.1-.4-1-.9-1.9-1.4-2.9-.3-.6-.6-1.2-.8-1.8-1.9-2.4-3.5-5-4.1-5.7-1.1-1.4-5.7-12.2-4.3-14.9 1.4-2.7 2.7-5.7 2.2-9.2-.2-1.5.6-4.5 1.6-7.6-3.3.7-8.4 2.3-10.9 5.5-.8 1-1.3 2.1-1.5 3.4 0 .8-.1 1.8-.1 3zm17 52.3c4.1 9.5 8.2 21.3 9.8 33.1 3.9 1 7.8 1.8 11.8 2.5-2.4-12.9-5.9-24.7-10-35.6H85.7z"/><path fill="#4D3B25" d="M64.2 217.3l4.9-16.6-2.8-4.1c-18 .2-35.1 1.1-43.7 3.3l-.1.5c4.5 6.6 9.6 12.7 15.3 18.3h17.1l9.3-1.4zm26.6-20.6H88c-2.1 0-4.2 0-6.3-.1l-2.6 2.9-3.7 17.9 7.1 1.4h45.6v-13.7c-21.3 0-33.3-6.1-37.3-8.4z"/><path fill="#838786" d="M79.2 199.5l2.6-2.9H66.2l2.8 4.2-4.8 16.5-9.4 1.5 1.7 2.8h25.3l.8-2.8-7.1-1.5z"/><path fill="#5C4C36" d="M25.7 183h-.2c-4-.1-6.5 1.3-8.1 4.1-.5.9-1 1.9-1.4 3.1 2 3.5 4.1 7 6.4 10.3l.1-.5 3.2-17z"/><path fill="#B17D6B" d="M90.6 158.7c-.5-.9-1.1-1.7-1.6-2.6l1.2 2.7s-.1.5-.3 1.4c.7 2.3 1 5.1 1 5.1l3.3 23.8c11 4.8 33.8 3.8 33.8 3.8v-16c0 .1-29.3-5.2-37.4-18.2z"/><path fill="#130C0C" d="M89.9 160.3c-.9 3.8-3 14.7-1.3 23.5.5 2.3 2.6 4.1 5.6 5.4l-3.3-23.8c0-.1-.4-2.8-1-5.1z"/><path fill="#211B1B" d="M79.7 162.1c.5 3.5-.8 6.5-2.2 9.2-1.4 2.7 3.2 13.5 4.3 14.9.6.8 2.2 3.3 4.1 5.7 1.4 1.8 3 3.6 4.6 4.5.1.1.2.1.4.2 3.9 2.4 16 8.4 37.2 8.4v-12.1s-22.9 1-33.8-3.8c-3-1.3-5.1-3.1-5.6-5.4-1.7-8.7.4-19.6 1.3-23.5.2-.9.3-1.4.3-1.4l-1.2-2.7c-1.9-3.1-3.5-6-5-9-.7 1.6-1.8 4.5-2.8 7.4-1.1 3.1-1.9 6.1-1.6 7.6z"/><path fill="#B17D6B" d="M75.1 108.4v.8L73.5 92v-3.8l-3.2-1.7s2.2-2.9 1.6-3.3c-.3-.2-.7-.9-1-1.6-2.5-1.8-5.2-3.3-6.6-2.7-3.3 1.2-3.3 6.1-2 11 1.4 4.9 5.6 14.3 6.9 19.7 1.2 5.4 1.2 13.8 4.2 16 1.1.8 2.7 1.6 4.2 2.3-.8-4.1-1.5-8.8-2.1-14.2-.1-1.7-.2-3.4-.4-5.3z"/><path fill="#C08C76" d="M89 156.1c.5.8 1 1.7 1.6 2.6 8.1 13 37.4 18.3 37.4 18.3v-42.6l-1.2.8-.4-1.4-2 1.1-.4-1.1-1.1.8-2.2-.8s-3.9 2.3-3.8 1.4c.1-.9-3.1 1.2-3-.1s-2.4 3.5-2.7 2.7c-.3-.8-2.4.4-2.4.4l-2.7 3.5s.3-.8.4-1.8c.1-.9-2.4 1.2-2.4 1.2l-6 3 .9-3.1h-4.6l2.8-2.2h-2.8s6-4.2 7.3-4.3 6-6.1 7.6-7.3c1.6-1.2 11.8-3.7 11.8-3.7 3.5 2.4 6.9 1.8 6.9 1.8V80c-5.2 0-9.9-.3-14-.8 1.2.5 2.1.8 2.4.8 1.2 0 .9 2.7-1.4 3.2 0 0-6.9-.4-11.8-2.4S86 83.9 86 83.9l1.5-2.4-1.5.6 4.2-3.5h-2.4s4.7-1.8 9-2.8c-1.9-.5-3.6-1-4.9-1.4-3.4-.9-9.6-3.4-14.5-5.5 0 0-2.8 14.2-2.4 17 .4 2.8 0 13.6 0 13.6v8.7c.2 1.8.3 3.6.5 5.2.6 5.5 1.3 10.1 2.1 14.2 1.6 7.9 3.6 13.7 6.3 19.2 1.6 3.3 3.2 6.3 5.1 9.3z"/><path fill="#623727" d="M87.9 78.7h2.4l-4.2 3.5 1.5-.6-1.5 2.4s12.3-5.1 17.2-3.1c4.9 2 11.8 2.4 11.8 2.4 2.3-.5 2.6-3.2 1.4-3.2-.3 0-1.2-.3-2.4-.8-7.2-.8-12.8-2.2-17.1-3.3-4.4.9-9.1 2.7-9.1 2.7zm40.1 46.6s-3.4.7-6.9-1.8c0 0-10.1 2.4-11.8 3.7-1.6 1.2-6.2 7.2-7.6 7.3s-7.3 4.3-7.3 4.3h2.8l-2.8 2.2H99l-.9 3.1 6-3s2.6-2.2 2.4-1.2c-.1.9-.4 1.8-.4 1.8l2.7-3.5s2.1-1.2 2.4-.4c.3.8 2.9-4.1 2.7-2.7s3.1-.8 3 .1c-.1.9 3.8-1.4 3.8-1.4l2.2.8 1.1-.8.4 1.1 2-1.1.4 1.4 1.2-.8v-9.1z"/><path fill="#654C43" d="M69.5 39.6c2.4-.2 22-1.9 42.7-2.6v-9.2L128 11V0c-20.4 0-39.6 4.8-56.7 13.2-1.3 5.7-1.7 11.3-1.7 15.7.1 4 0 7.6-.1 10.7zM128 63.3H82.3c3.2 2.2 7.1 4.4 12.7 6.8 11.2 4.9 33 4.5 33 4.5V63.3z"/><path fill="#302623" d="M74.3 56.1c2.4 2.7 4.8 5 8 7.2h45.8v-22l-14.3 13.4-1.6-1.1V37.1c-20.7.7-40.3 2.3-42.7 2.6h-.3l-.6 11.2c1.9 1.4 4 3.2 5.7 5.2z"/><path fill="#36261C" d="M69.2 70.5c0-.6-.4-2.8-.4-2.8l-1-2.7 9.7 4.2c4.8 2 11.1 4.5 14.5 5.5 1.4.4 3 .8 4.9 1.4 4.2 1.1 9.9 2.5 17.1 3.3 4.2.5 8.8.8 14 .8v-5.5s-21.9.4-33-4.5c-5.6-2.4-9.6-4.6-12.7-6.8-3.2-2.2-5.5-4.5-8-7.2-1.8-2-3.8-3.8-5.8-5.3-3.4-2.6-6.4-4.3-6.4-4.3S55 47.8 56 55.5C57 63 58.8 68.2 69 74c.5-.5.9-1 .9-1.3-.1-.6-.7-1.6-.7-2.2z"/><path fill="#623727" d="M71.9 83.1c.6.4-1.6 3.3-1.6 3.3l3.2 1.7V92l1.6 17.2v-9.5s.4-10.8 0-13.6c-.4-2.8 2.4-17 2.4-17l-9.7-4.2 1 2.7s.4 2.2.4 2.8.6 1.6.6 2.2c0 .3-.4.8-.9 1.3-.5.6-1.1 1.1-1.1 1.1l1.4 2.2 1 2.8s.3.6.6 1.3c.4.8.8 1.6 1.1 1.8z"/><path fill="#0B0815" d="M112.1 53.6l1.6 1.1L128 41.3v-3.8l-14 13.7-.5-1.2v-6.2L128 29.4v-4.1l-14 13.6-.5-1.1v-6.3L128 17.2V11l-15.9 16.9v9.2z"/><path fill="#5F5649" d="M128 36.8v-.5l-13.5 12.9v-5.1l13.5-13v-1.7l-14.5 14.4V50l.5 1.2 14-13.7z"/><path fill="#4F473C" d="M114.5 44.1v5.1L128 36.3v-5.2z"/><path fill="#5F5649" d="M128 24l-13.5 12.9v-5.1l13.5-13v-1.6l-14.5 14.3v6.3l.5 1.1 14-13.6v-1.2z"/><path fill="#4F473C" d="M114.5 31.8v5.1L128 24v-5.2z"/></svg>