<svg xmlns="http://www.w3.org/2000/svg" width="256" height="256"><circle fill="#B1B3B5" cx="128" cy="128" r="128"/><path fill="#232D21" d="M54.3 209.5c2.2-4.1-.1-5.9-2-6.7-6.2 3.1-13.4 6.4-20.7 9.4 5 5.8 10.6 11.1 16.6 15.8-.4-.8-.7-2.1-.8-4.3-.7-8.1 3.5-7.9 6.9-14.2zm13.4-26.1c-.4-1.2-.7-2.2-1-2.9 0 0-19.7 15.4-41.3 24 .6.8 1.3 1.7 1.9 2.5 8.7-3.6 29.4-12.9 40.4-23.6z"/><path fill="#221711" d="M73.1 230.6c-1.8.3-1.7 1.9-1.7 11.9v.4c1.4.7 2.9 1.4 4.3 2-.2-5.1-.5-9.8-.8-14.2-.5-.1-1.2-.2-1.8-.1z"/><path fill="#7D7764" d="M73.1 230.6c.6-.1 1.2-.1 1.8 0-1.2-17.1-3-29-4.7-37.2-2.6 1.4-9.4 5.1-18 9.3 1.9.8 4.2 2.6 2 6.7-3.4 6.3-7.5 6.1-6.9 14.2.2 2.2.4 3.5.8 4.3 7.2 5.7 15 10.7 23.3 14.8v-.4c.1-9.7-.1-11.4 1.7-11.7z"/><path fill="#476045" d="M70.3 193.5c-.9-4.4-1.8-7.8-2.6-10.1-11 10.7-31.7 20-40.4 23.6 1.4 1.8 2.8 3.5 4.3 5.2 7.2-3 14.4-6.3 20.7-9.4 8.6-4.2 15.3-7.9 18-9.3z"/><path fill="#B17D6B" d="M105 178.5v-4.8c-2.4-.2-6-1.5-9.5-3 .2.5.5 1 .7 1.6 3.2 3.3 6.6 5.4 9 6.5-.2-.2-.2-.3-.2-.3z"/><path fill="#B17D6B" d="M127.8 183.4c-7.4 0-12.5-.8-15.9-1.7-.9 0-1.8-.1-2.9-.2-4.1-.5-8.1-3.2-11.1-5.6 1.3 2.8 2.7 5.8 4.1 9 2.6 5.6 5.5 13.6 8.1 21.8 4.5 2.3 11.3 5.2 17.7 5.3v-28.6z"/><path fill="#4D4938" d="M127.8 217.7V212c-6.4-.1-13.2-3-17.7-5.3 5.4 16.7 9.8 34.4 9.8 34.4s2.9 2.3 7.9 2.4v-25.8z"/><path fill="#4D4938" d="M98.9 236.7l2.4-16.5-10.6 4.5c.2 2.8.4 5.5.5 8.2.6 2.8 1.2 5.8 1.7 8.7 3.7 1.1 13.4 3.5 27.1 4.2V241l-21.1-4.3zm2.4 16.5c6.1 1.3 12.3 2.1 18.6 2.5v-.7c-5.3-.4-12.3-1-18.6-1.8z"/><path fill="#676D56" d="M80.4 239s-5.8-19.6-5.1-34.1l7.8-.9c-1.2-10-2.8-19.8-3.9-23.5-.5-1.5-.8-2.9-1-4.1-3.5.7-8.8 1.7-12.3 2.2 0 0 .3.6.8 1.9.3.7.6 1.7 1 2.9.7 2.3 1.6 5.7 2.6 10.1 1.7 8.1 3.5 20.1 4.7 37.2.3 4.4.6 9.1.8 14.2 2.2 1 4.5 1.9 6.8 2.8-.4-2.5-.6-5.6-.8-8.9l-1.4.2z"/><path fill="#476045" d="M127.8 255.5c-1.1-.1-4-.2-7.9-.5v.7c2.6.2 5.2.3 7.9.3v-.5zm0-12c-5-.1-7.9-2.4-7.9-2.4v4.7c2.5.1 5.1.2 7.9.2v-2.5z"/><path fill="#1E1E13" d="M127.8 255.5V246c-2.8 0-5.4-.1-7.9-.2-13.7-.7-23.4-3.1-27.1-4.2.7 4.4.9 8.2.1 9.6 2.7.8 5.5 1.5 8.4 2.1 6.3.8 13.3 1.4 18.6 1.8 3.9.2 6.8.4 7.9.4z"/><path fill="#302D22" d="M89.3 225.3c.4 1.6 1.1 4.4 1.8 7.6-.1-2.6-.2-5.4-.5-8.2l-1.3.6zm-6.2-21.4l-7.8.9c-.7 14.5 5.1 34.1 5.1 34.1l1.4-.2c-.3-4.7-.5-9.8-.9-14l3.6-.5c.1-5.1-.5-12.7-1.4-20.3z"/><path fill="#495232" d="M92.8 241.6c-.4-2.8-1-5.9-1.7-8.7-.7-3.2-1.4-5.9-1.8-7.6l-5.1 2.2c.1-.9.2-2 .2-3.1l-3.6.5c.4 4.2.6 9.3.9 14 .2 3.3.5 6.4.8 8.9 3.4 1.3 6.8 2.4 10.3 3.4.9-1.5.7-5.3 0-9.6zm-4.8 7.7c-1.8 0-3.3-1.5-3.3-3.3 0-1.8 1.5-3.3 3.3-3.3 1.8 0 3.3 1.5 3.3 3.3 0 1.8-1.5 3.3-3.3 3.3z"/><path fill="#121716" d="M88 242.7c-1.8 0-3.3 1.5-3.3 3.3 0 1.8 1.5 3.3 3.3 3.3 1.8 0 3.3-1.5 3.3-3.3 0-1.8-1.5-3.3-3.3-3.3z"/><path fill="#232D21" d="M94.4 170.1l1.8 2.1c-.2-.5-.5-1-.7-1.6-.4-.1-.8-.3-1.1-.5zm-11.3 33.8c.9 7.5 1.5 15.2 1.3 20.4 0 1.2-.1 2.2-.2 3.1l5.1-2.2 1.3-.6 10.6-4.5-2.4 16.5 21 4.4s-4.5-17.6-9.8-34.4c-2.6-8.2-5.5-16.2-8.1-21.8-1.5-3.1-2.9-6.1-4.1-9-1.8-1.5-3.2-2.9-3.9-3.5-1-.9-2.2-2.5-3.2-3.9-2.5-1.3-4.3-2.2-4.3-2.2v-5.3c-1.6 3.2-4.2 6.9-8.2 9.4 0 0-.7 1.9.1 6.1.2 1.2.5 2.5 1 4.1 1 3.6 2.7 13.4 3.8 23.4z"/><path fill="#2C2C26" d="M93.2 153.9l-1.9 2 2.7-.9c-.2-.3-.5-.7-.8-1.1zm-3.5-2.5l1-.3c-.1-.1-.2-.3-.3-.4l-.7.7zm38.1 24.3c-13.2.3-17.5-3.6-20.9-6.2l-1.2-.9c-1-.7-2-1.5-2.9-2.6-.2-.2-.3-.3-.4-.5l-.2-.2c-.2-.2-.4-.5-.6-.7-1.6-1.9-3.3-4.2-5.3-6.9l-2 2s1.7-.3 2.3 1.4c.7 1.7-4.2 5.9-4.2 5.9.7 1.1 1.4 2.1 2.1 3 .4.2.8.3 1.1.5 3.4 1.5 7.1 2.8 9.5 3v4.8l.2.2c1.1.5 1.9.8 2.5 1 2.4.8 9.7-.1 9.7-.1l.2 1s-1.3 1.2-5.7 1.1c3.5.9 8.6 1.7 15.9 1.7v-7.5zm-37.6-21.6l-3.9.6v2.5z"/><path fill="#2C2C26" d="M90.7 168.4c-.9-1.2-1.5-2.3-1.6-2.6-.2-.6 4.4-2.9 4.4-2.9s-1.2.4-2.5.4c-1.4 0-2.2-1.1-2.2-1.1l3.2-3.5-4.2.7c-.8-.2-1.3-1.7-1.4-2.2v8.8c-.1.2 1.7 1.2 4.3 2.4z"/><path fill="#CBCBC7" d="M87.8 159.5l4.2-.7-3.2 3.5s.8 1.1 2.2 1.1c1.4 0 2.5-.4 2.5-.4s-4.6 2.3-4.4 2.9c.1.3.8 1.4 1.6 2.6 1 1.4 2.2 3 3.2 3.9.7.7 2.1 2.1 3.9 3.5 2.9 2.4 7 5.1 11.1 5.6 1.1.1 2.1.2 2.9.2 4.3.1 5.7-1.1 5.7-1.1l-.2-1s-7.3.9-9.7.1c-.6-.2-1.4-.5-2.5-1-2.4-1.1-5.8-3.2-9-6.5-.6-.6-1.2-1.3-1.8-2.1-.7-.9-1.4-1.9-2.1-3 0 0 4.9-4.1 4.2-5.9-.7-1.7-2.3-1.4-2.3-1.4l2-2c-.7-.9-1.4-1.8-2.1-2.8l-2.7.9 1.9-2c-.1-.2-.3-.4-.4-.6 0 0 0-.1-.1-.1-.7-.6-1.4-1.4-2-2.2l-1 .3.7-.8c-.8-1.1-1.5-2.2-2.2-3.5l-1.2.4.9-.9c-.5-1-.9-2.1-1.3-3.2l-1.1.3.9-1c-.5-1.4-.9-2.8-1.3-4.3l-.5.1.4-.4c-.5-1.8-.9-3.7-1.2-5.6l-3.3 1.2s-.5 1.8.5 2.6l3.5.2-3.5 2.1s0 1.9 1.3 2.2l3-.5L82 144s-.2 2.1 1.2 2.2l3.8-.7-3 2.6s0 2 1.2 2l3.3-.6-3.3 2.7s-.4 1.8.8 2.3l.5-.1 3.8-.7-3.8 3.1v.2c0 .8.5 2.4 1.3 2.5z"/><path fill="#B17D6B" d="M81.7 110.7c-.1-1.6-.2-3.1-.3-4.5-.2.9-.4 1.4-.4 1.4s-2.9-3.6-3.9-5.2-.3-4.8-.6-8.4c-.2-2.5-2-4-4.4-6.2-.8.1-1.5.4-2 .9-2.7 3.1-1.7 7.3 0 12.4 1.7 5.1 3.6 16.2 3.6 19.9s-.7 10.5 4.4 9.7c2-.3 3.7-1.1 4.9-1.8-1.3-9.8-1.3-18.2-1.3-18.2z"/><path fill="#C08C76" d="M127.8 48.2c-1.5.2-6.8.5-12.5-2-6.8-2.9-14.5-7.1-20-4.2-5.5 2.9-4.5 34.6-4.5 34.6-5.8 1.9-7.4 9.7-7.1 14.9.3 4-1.5 11.5-2.2 14.7l.3 4.5c3.1 13.3 9.8 22.4 12.7 25 2.9 2.6 8.7 14.2 8.7 14.2 3.7-1.3 7.1-10.8 9.7-12.8 2.3-1.7 12.7-2 14.9-2.1V48.2zm-7.7 45.5c-2.3-1.1-7.9-1.8-11.4-2.6s-14.1 1.1-14.1 1.1l-2.4-1.8 2.3-2.2h-3.4l3.4-1.9s2.6-.5 3.2-.5-3.2-.5-3.2-.5 2.4-1.1 5.2-2.1c2.7-1 6.1 0 6.1 0l11.3 5.3s2.9 4.8 5.5 5 3.9-4.2 3.9-4.2c-1.5 6.2-4.1 5.5-6.4 4.4z"/><path fill="#C08C76" d="M127.8 149.9v-6.7c-6.7 0-5-.8-8.9-1.4-4-.6-5.2 3.6-8.1 7.9-2.9 4.4 1 9.2 1 9.2 2.4-.5 6.9-4.5 6.9-4.5 3.7 1.6 7.8 1.5 9.1 1.5v-6zm-22.1 18.8l1.2.9-1.2-.9zm-4.2-3.9c.2.2.4.5.6.7-.2-.3-.4-.5-.6-.7zm1.2 1.3c-.1-.2-.3-.3-.4-.5.1.2.3.4.4.5zm-9.9-12.7c.1.2.3.4.4.6.3.4.5.7.8 1.1.7 1 1.4 1.9 2.1 2.8-1-1.5-2.1-3-3.3-4.5z"/><path fill="#524137" d="M76.5 94c.3 3.6-.3 6.8.6 8.4 1 1.6 3.9 5.2 3.9 5.2s.1-.5.4-1.4c.8-3.2 2.5-10.7 2.2-14.7-.3-5.2 1.3-12.9 7.1-14.9 0 0-1-31.7 4.5-34.6 5.5-2.9 13.2 1.3 20 4.2 5.7 2.5 11 2.1 12.5 2V9.4s.1 0 .2-.1c-1.8-.5-15.1-4-29.8 6.9C82.4 27.8 82 34.9 76.2 40.7c-5.8 5.8-3.6 12-7.4 17.8-3.9 5.8-3.9 21.3 0 25.8 1.2 1.4 2.3 2.5 3.4 3.5 2.3 2.2 4.1 3.7 4.3 6.2zm31-58.7c-3.1-2.5-12.6-6.2-12.6-6.2 12.6.5 24.5 9 24.5 9-1-2.4-10.7-11.6-10.7-11.6 10.7 3.9 17.7 17.7 17.7 17.7l-5.3-5.3 1 3.4c-1.5-1.9-11.6-6.9-11.6-6.9l3.9 4c-6.1-3.4-25.7-6.5-25.7-6.5 3.3-1.2 18.8 2.4 18.8 2.4z"/><path fill="#524137" d="M122.6 93.7c-2.6-.2-5.5-5-5.5-5l-11.3-5.3s-3.4-1-6.1 0c-2.7 1-5.2 2.1-5.2 2.1s3.9.5 3.2.5-3.2.5-3.2.5l-3.4 1.9h3.4l-2.3 2.2 2.4 1.8s10.7-1.9 14.1-1.1 9.1 1.5 11.4 2.6c2.3 1.1 4.8 1.8 6.3-4.2 0-.2-1.3 4.1-3.8 4z"/><path fill="#6B594A" d="M114.3 39.3l-3.9-4s10.2 5 11.6 6.9l-1-3.4 5.3 5.3s-7-13.8-17.7-17.7c0 0 9.7 9.2 10.7 11.6 0 0-11.9-8.5-24.5-9 0 0 9.4 3.6 12.6 6.2 0 0-15.5-3.5-18.9-2.5.2 0 19.8 3.2 25.8 6.6z"/><path fill="#A97766" d="M85 138.4c.4 1.5.8 2.9 1.3 4.3.1.2.2.5.3.7.4 1.1.9 2.2 1.3 3.2.1.2.2.4.3.5.6 1.3 1.4 2.5 2.2 3.5.1.1.2.3.3.4.6.8 1.3 1.5 2 2.2 0 0 0 .1.1.1 1.2 1.6 2.3 3.1 3.4 4.4 2.1 2.8 3.8 5.1 5.3 6.9.2.2.4.5.6.7l.2.2c.1.2.3.3.4.5 1 1 1.9 1.9 2.9 2.6l1.2.9c3.4 2.6 7.7 6.5 20.9 6.2v-19.8c-1.3.1-5.4.1-9.1-1.5 0 0-4.5 4-6.9 4.5 0 0-3.9-4.8-1-9.2 2.9-4.4 4-8.6 8.1-7.9 4 .6 2.2 1.4 8.9 1.4V135c-2.2 0-12.6.4-14.9 2.1-2.6 1.9-6 11.5-9.7 12.8 0 0-5.8-11.6-8.7-14.2-2.9-2.6-9.7-11.7-12.7-25 0 0-.1 8.5 1.4 18.1.2 1.3.4 2.5.6 3.8.3 1.9.8 3.7 1.2 5.6.1 0 .1.1.1.2z"/><path fill="#303E2F" d="M201.7 209.5c3.4 6.3 7.5 6.1 6.9 14.2-.2 2.2-.4 3.5-.8 4.3 6-4.8 11.5-10.1 16.6-15.8-7.2-3-14.4-6.3-20.7-9.4-1.8.8-4.2 2.6-2 6.7zm-12.4-29c-.3.7-.6 1.7-1 2.9 11 10.7 31.7 20 40.4 23.6.6-.8 1.3-1.6 1.9-2.5-21.6-8.7-41.3-24-41.3-24z"/><path fill="#34241A" d="M182.9 230.6c-.6-.1-1.2-.1-1.8 0-.3 4.4-.6 9.1-.8 14.2 1.5-.7 2.9-1.3 4.3-2v-.4c-.1-9.8.1-11.5-1.7-11.8z"/><path fill="#8D8874" d="M201.7 209.5c-2.2-4.1.1-5.9 2-6.7-8.6-4.2-15.4-7.9-18-9.3-1.7 8.1-3.5 20.1-4.7 37.2.6-.1 1.3-.1 1.8 0 1.8.3 1.7 1.9 1.7 11.9v.4c8.3-4.1 16.1-9.1 23.3-14.8.4-.8.7-2.1.8-4.3.7-8.3-3.5-8.1-6.9-14.4z"/><path fill="#567254" d="M188.3 183.4c-.7 2.3-1.6 5.7-2.6 10.1 2.6 1.4 9.4 5.1 18 9.3 6.2 3.1 13.4 6.4 20.7 9.4 1.5-1.7 2.9-3.4 4.3-5.2-8.7-3.6-29.4-12.9-40.4-23.6z"/><path fill="#C08C76" d="M127.8 212c6.5 0 13.5-2.9 18.1-5.3 2.6-8.2 5.5-16.2 8.1-21.8 2.4-5.2 4.6-10 6.5-14.2-3.4 1.5-7.1 2.8-9.5 3v4.8s-4.2 4.8-23.2 4.8V212z"/><path fill="#5A5744" d="M154.8 220.2l2.4 16.5-21 4.4v4.7c13.7-.7 23.4-3.1 27.1-4.2.4-2.8 1-5.9 1.7-8.7.1-2.6.2-5.4.5-8.2l-10.7-4.5zm-18.7 35.5c6.3-.4 12.6-1.3 18.6-2.5-6.3.8-13.3 1.4-18.6 1.8v.7zm-8.3-43.7v31.4c5.2 0 8.3-2.4 8.3-2.4s4.5-17.6 9.8-34.4c-4.6 2.4-11.6 5.4-18.1 5.4z"/><path fill="#777F65" d="M185.7 193.5c.9-4.4 1.8-7.8 2.6-10.1.4-1.2.7-2.2 1-2.9.5-1.3.8-1.9.8-1.9-3.5-.5-8.8-1.5-12.3-2.2-.2 1.2-.5 2.5-1 4.1-1.1 3.7-2.8 13.5-3.9 23.5l7.8.9c.7 14.5-5.1 34.1-5.1 34.1l-1.4-.2c-.2 3.3-.5 6.4-.8 8.9 2.3-.9 4.6-1.8 6.8-2.8.2-5.1.5-9.8.8-14.2 1.2-17.1 3-29.1 4.7-37.2z"/><path fill="#567254" d="M127.8 243.5v2.5c2.9 0 5.7-.1 8.3-.2V241s-3.1 2.5-8.3 2.5zm0 12v.5h.2c2.7 0 5.4-.1 8.1-.3v-.7c-4.9.4-8.3.5-8.3.5z"/><path fill="#30301E" d="M163.2 241.6c-3.7 1.1-13.4 3.5-27.1 4.2-2.6.1-5.4.2-8.3.2v9.5s3.4-.2 8.3-.5c5.3-.4 12.3-1 18.6-1.8 2.8-.6 5.6-1.3 8.4-2.1-.8-1.4-.6-5.2.1-9.5z"/><path fill="#3F3C2D" d="M164.9 232.9c.7-3.2 1.4-5.9 1.8-7.6l-1.3-.6c-.3 2.8-.5 5.6-.5 8.2zm6.6-8.6l3.6.5c-.4 4.2-.6 9.3-.9 14l1.4.2s5.8-19.6 5.1-34.1l-7.8-.9c-.9 7.5-1.5 15.1-1.4 20.3z"/><path fill="#58633E" d="M175.1 224.8l-3.6-.5c0 1.2.1 2.2.2 3.1l-5.1-2.2c-.4 1.6-1.1 4.4-1.8 7.6-.6 2.8-1.2 5.8-1.7 8.7-.7 4.4-.9 8.2-.1 9.6 3.5-1 6.9-2.1 10.3-3.4.4-2.5.6-5.6.8-8.9.4-4.7.6-9.8 1-14zm-7.1 24.5c-1.8 0-3.3-1.5-3.3-3.3 0-1.8 1.5-3.3 3.3-3.3 1.8 0 3.3 1.5 3.3 3.3 0 1.8-1.4 3.3-3.3 3.3z"/><path fill="#121716" d="M168 242.7c-1.8 0-3.3 1.5-3.3 3.3 0 1.8 1.5 3.3 3.3 3.3 1.8 0 3.3-1.5 3.3-3.3 0-1.8-1.4-3.3-3.3-3.3z"/><path fill="#303E2F" d="M160.5 170.7c-1.9 4.2-4 9-6.5 14.2-2.6 5.6-5.5 13.6-8.1 21.8-5.4 16.7-9.8 34.4-9.8 34.4l21-4.4-2.4-16.5 10.6 4.5 1.3.6 5.1 2.2c-.1-.9-.2-2-.2-3.1-.1-5.2.5-12.9 1.3-20.4 1.2-10 2.8-19.8 3.9-23.5.5-1.5.8-2.9 1-4.1.7-4.2.1-6.1.1-6.1-4-2.6-6.6-6.3-8.2-9.4v5.3c.1 0-4.3 2.4-9.1 4.5z"/><path fill="#2C2C38" d="M163.3 153.3c-.1 0-.1 0 0 0-1.2 1.7-2.3 3.1-3.4 4.5-2.1 2.8-3.8 5.1-5.4 7-.2.2-.4.5-.6.7l-.2.2c-.1.2-.3.3-.4.5-1 1-1.9 1.9-2.9 2.6l-1.2.9c-3.4 2.6-7.8 6.6-21.3 6.1v7.7c19.1 0 23.2-4.8 23.2-4.8v-4.8c2.4-.2 6-1.5 9.5-3 4.8-2.1 9.2-4.5 9.2-4.5v-13.6l-3.2-3.2c-1.1 1.3-2.1 2.6-3.3 3.7z"/><path fill="#C08C76" d="M179.5 94c-.3 3.6.3 6.8-.6 8.4-1 1.6-3.9 5.2-3.9 5.2s-.1-.5-.4-1.4l-.3 4.5s.1 8.5-1.4 18.1c1.3.8 2.9 1.5 4.9 1.8 5.1.8 4.4-6.1 4.4-9.7s1.9-14.8 3.6-19.9c1.7-5.1 2.7-9.2 0-12.4-.5-.6-1.2-.8-2-.9-2.3 2.3-4.1 3.8-4.3 6.3z"/><path fill="#D7A990" d="M143.1 137.1c2.6 1.9 6 11.5 9.7 12.8 0 0 5.8-11.6 8.7-14.2 2.9-2.6 9.7-11.7 12.7-25 .1-1.6.2-3.1.3-4.5-.8-3.2-2.5-10.7-2.2-14.7.3-5.2-1.3-12.9-7.1-14.9 0 0 1-31.7-4.5-34.6-5.5-2.9-13.2 1.3-20 4.2s-12.9 1.9-12.9 1.9V135s12.7.2 15.3 2.1zm-9.7-43.4c2.6-.2 5.5-5 5.5-5l11.3-5.3s3.4-1 6.1 0c2.7 1 5.2 2.1 5.2 2.1s-3.9.5-3.2.5 3.2.5 3.2.5l3.4 1.9h-3.4l2.3 2.2-2.4 1.8s-10.7-1.9-14.1-1.1-9.1 1.5-11.4 2.6c-2.3 1.1-4.8 1.8-6.3-4.2 0-.2 1.3 4.1 3.8 4z"/><path fill="#D7A990" d="M127.8 149.9v6s5 .5 9.5-1.5c0 0 4.5 4 6.9 4.5 0 0 3.9-4.8 1-9.2-2.9-4.4-4-8.6-8.1-7.9s-2.1 1.4-9.4 1.4v6.7zm35.4 3.5c-1.2 1.6-2.3 3.1-3.4 4.4 1.1-1.4 2.3-2.9 3.4-4.4zm-9.3 12.1c.2-.2.4-.5.6-.7-.2.2-.4.4-.6.7zm-.2.2c-.1.2-.3.3-.4.5.1-.2.3-.4.4-.5zm-4.6 3.9l1.2-.9-1.2.9z"/><path fill="#6B594A" d="M127.8 29.1v19.1s6.1 1 12.9-1.9 14.5-7.1 20-4.2c5.5 2.9 4.5 34.6 4.5 34.6 5.8 1.9 7.4 9.7 7.1 14.9-.3 4 1.5 11.5 2.2 14.7.2.9.4 1.4.4 1.4s2.9-3.6 3.9-5.2.3-4.8.6-8.4c.2-2.5 2-4 4.4-6.2 1-1 2.2-2.1 3.4-3.5 3.9-4.5 3.9-20 0-25.8-3.9-5.8-1.6-12-7.4-17.8-5.8-5.8-6.1-12.9-22-24.5-14.7-10.8-28-7.4-29.8-6.9-.1 0-.2.1-.2.1v19.6zm8.8 8.9s11.9-8.5 24.5-9c0 0-9.4 3.6-12.6 6.2 0 0 15.5-3.5 18.9-2.5 0 0-19.6 3.1-25.7 6.5l3.9-4s-10.2 5-11.6 6.9l1-3.4-5.3 5.3s7-13.8 17.7-17.7c-.2.1-9.8 9.3-10.8 11.7z"/><path fill="#6B594A" d="M135.9 93.7c2.3-1.1 7.9-1.8 11.4-2.6s14.1 1.1 14.1 1.1l2.4-1.8-2.3-2.2h3.4l-3.4-1.9s-2.6-.5-3.2-.5 3.2-.5 3.2-.5-2.4-1.1-5.2-2.1c-2.7-1-6.1 0-6.1 0l-11.3 5.3s-2.9 4.8-5.5 5-3.9-4.2-3.9-4.2c1.5 6.2 4.1 5.5 6.4 4.4z"/><path fill="#867767" d="M129.6 44.1l5.3-5.3-1 3.4c1.5-1.9 11.6-6.9 11.6-6.9l-3.9 4c6.1-3.4 25.7-6.5 25.7-6.5-3.4-1-18.9 2.5-18.9 2.5 3.1-2.5 12.6-6.2 12.6-6.2-12.6.5-24.5 9-24.5 9 1-2.4 10.7-11.6 10.7-11.6-10.6 3.8-17.6 17.6-17.6 17.6z"/><path fill="#C39582" d="M174.3 110.7c-3.1 13.3-9.8 22.4-12.7 25-2.9 2.6-8.7 14.2-8.7 14.2-3.7-1.3-7.1-10.8-9.7-12.8-2.6-1.9-15.3-2.1-15.3-2.1v8.2c7.3 0 5.3-.8 9.4-1.4s5.2 3.6 8.1 7.9c2.9 4.4-1 9.2-1 9.2-2.4-.5-6.9-4.5-6.9-4.5-4.5 1.9-9.5 1.5-9.5 1.5v19.8c13.5.4 17.9-3.5 21.3-6.1l1.2-.9c1-.7 2-1.5 2.9-2.6.1-.2.3-.3.4-.5l.2-.2c.2-.2.4-.4.6-.7 1.6-1.9 3.3-4.2 5.4-7 1-1.4 2.1-2.8 3.4-4.4 0 0 0-.1.1-.1 1.2-1.1 2.3-2.4 3.2-3.9 3.4-5.4 5.4-13.3 6.4-20.6 1.2-9.6 1.2-18 1.2-18z"/></svg>