<svg xmlns="http://www.w3.org/2000/svg" width="256" height="256"><circle fill="#B1B3B5" cx="128" cy="128" r="128"/><path fill="#364041" d="M128 195.5V256c49.8 0 92.9-28.4 114.1-69.9-23.8-11.7-49.1-19.9-49.1-19.9s-7.4 29.3-65 29.3zm58.4-46.9c.1.2.3.3.4.5-.1-.2-.3-.4-.4-.5zm-8.2-1.3s.1.1 0 0c1.1.2 2.6.5 3.9 1-1-.6-2.2-1-3.9-1zm8.6 1.7c3.2 4 6.2 17.2 6.2 17.2s-2.9-13-6.2-17.2z"/><path fill="#0F1214" d="M182.1 148.3c-1.3-.5-2.8-.8-3.8-.9 2.3 3.7 4.1 7.9 3.8 11.7 2.6-4.5 3-8.9 0-10.8z"/><path fill="#695E54" d="M181.2 65.4s.5 7.2 2.6 8.9l-2.2-1.7v4.3h-2.4v2.4c1.1-.2 2.1-.2 3 .2l.1-.2 2.3-.4-.3-3.6h4.8s-2.2-1.9-4.5-6.4c-.1-.2-.2-.5-.3-.7-1.2-.8-2.4-1.7-3.1-2.8zM156 28.3s-5-2.3-11-2.4c0 0 8.4 2 16.6 8.6 2.1 1.7 4.2 3.7 6.1 6l-6.2-3.8s1.7 3 7.4 9.3c0 0 7.1 8.1 13.5 14.6-.3-2.3-.4-4.1-.4-4.1l4.7 2.6c-4.9-5.4-11.1-26.2-24.8-38.5-13.7-12.3-34-10.1-34-10.1v11.3c.1 0 15.9-3.1 28.1 6.5z"/><path fill="#C08C76" d="M179.2 79.3v.9l-1.4 5h-2.6l.2 6-1.2 2.2.7 4.3-1 1.5.2 3.5-.5 2.4-.3 7.5-.1 3.1s-.2-2.9-.6-7.5c-.3 4.8-.8 9.3-1.4 13.6l1.8-.6s-.1 1-.2 2.8c4.9.4 6.8-3.7 7.3-5.1.6-1.6 3.2-12.5 5.4-19.5s1-12.1-1.6-18.2c-.4-1-1-1.5-1.8-1.9-.7-.2-1.7-.2-2.9 0z"/><path fill="#C08C76" d="M171.3 121.9c-2.2 16.4-6.2 29.3-9.8 36.7-5.7 12-33.5 18.2-33.5 18.2v2.4c32.9-4.9 43-32.3 44.8-37.8-.4-7.4-.1-13.8.1-17.3.1-1.8.2-2.8.2-2.8l-1.8.6z"/><path fill="#D7A990" d="M131 47.7c0-3.8-1.8-7.2-3-9v.2c.9 2.2.8 5.7.4 8.9.5-.1 1.4-.1 2.6-.1zm23.2 3.6C144.8 40 132.4 37 132.4 37c.6 2.7-.3 7.6-1 10.6 4.9.1 14.4.6 22.8 3.7z"/><path fill="#D7A990" d="M161.5 158.6c3.6-7.5 7.5-20.3 9.8-36.7.6-4.3 1.1-8.9 1.4-13.6-1.1-13.8-3.5-42.5-4.7-50-.1-.5-.2-1-.2-1.3 0 0-2.9-12.2-7.4-17.7h1.9S151.8 29.2 136 24.9h-.4c8 4.2 13.6 11.4 13.6 11.4l-5.5-.5c12.2 7.4 16.5 24.9 16.5 24.9-1.6-3.4-3.4-6.3-5.4-8.8-4.4-.6-16.3-2.1-23.9-2.1-.1.2-.1.4-.1.4 0-.1 0-.3.1-.4-1 0-1.9 0-2.7.1 0 .1 0 .2-.1.3v3.4s16-1 28.4 4.5c0 0-19.8-2.9-28.4-2.3v121c-.1 0 27.7-6.3 33.4-18.2zm-14-71.2c4.8-1.9 6.2-1 8.1 1.4s5.3 6.5 5.3 6.5h-1.7V97s-6.9-7.7-8.9-7.4c-1.9.2-11.7 3.8-12.7 3.6-1-.2-1.4-2.9-1.4-2.9s6.5-1 11.3-2.9z"/><path fill="#77736F" d="M169 46c-5.7-6.4-7.4-9.3-7.4-9.3l6.2 3.8c-1.9-2.3-4-4.3-6.1-6-8.3-6.6-16.6-8.6-16.6-8.6 6 .1 11 2.4 11 2.4-12.2-9.6-28-6.5-28-6.5v.5c2.7.5 5.2 1.4 7.5 2.6h.4c15.8 4.3 26.3 14.4 26.3 14.4h-1.9c4.6 5.5 7.4 17.7 7.4 17.7.1.3.2.7.2 1.3 1.2 7.5 3.6 36.2 4.7 50 .4 4.5.6 7.5.6 7.5l.1-3.1.3-7.5.5-2.4-.2-3.5 1-1.5-.7-4.3 1.2-2.2-.2-6h2.6l1.4-5V77h2.4v-4.3l2.2 1.7c-2.2-1.7-2.6-8.9-2.6-8.9.7 1.1 1.9 2 3.2 2.8 1.8 1.1 3.5 1.7 3.5 1.7l-4.1-5.5 5.7 2.4c-1.9-1.4-4.4-3.7-7.1-6.3C176 54.1 169 46 169 46z"/><path fill="#695E54" d="M137.7 93.2c1 .2 10.8-3.4 12.7-3.6 1.9-.2 8.9 7.4 8.9 7.4v-1.7h1.7s-3.4-4.1-5.3-6.5-3.4-3.4-8.1-1.4c-4.8 1.9-11.3 2.9-11.3 2.9s.5 2.6 1.4 2.9z"/><path fill="#C08C76" d="M131 47.7h-2.6c-.1.8-.2 1.5-.4 2.2.8-.1 1.7-.1 2.7-.1.2-.7.3-1.4.3-2.1zm.4 0c-.2 1-.4 1.7-.5 2.2 7.6 0 19.5 1.5 23.9 2.1-.2-.2-.3-.4-.5-.6-8.5-3.2-18-3.7-22.9-3.7zm25 10.3C144 52.6 128 53.6 128 53.6v2.2c8.6-.7 28.4 2.2 28.4 2.2z"/><path fill="#574E46" d="M96.1 36.8c.3-.3.6-.5.9-.8-.7.4-1.1.7-1.1.7l.2.1z"/><path fill="#574E46" d="M82.6 67.6l-3.8 1.9 3.8-9.2-3.4.5c2.4-4.8 12.1-25.1 12.1-25.1l-7.4 1.2c2.9-4.1 11.7-7.4 11.7-7.4-1.2-1.2-9.1 0-9.1 0 3.8-3.1 11-1.9 11-1.9L92 23.5c10.1-2.3 15.3 4.1 16.3 5.7.3-.1.6-.3.9-.4.5-.5 1.3-1.1 2.6-1.9 5-4.1 10-5.3 14.7-4.9.5-.1 1-.2 1.6-.3V10.4S103 8.2 89.2 20.5C75.4 32.9 78.5 53.6 73.6 59l4.7-2.6s-2.3 8-4.6 12.5c-2.2 4.5-4.5 6.4-4.5 6.4H74l-.3 3.6 1.8.3c1.3 0 2.7.4 4.1 1 1.7-5.8 3-12.6 3-12.6z"/><path fill="#9C7360" d="M84.9 121.9c-.5-4-1-8.3-1.3-12.8l-1.9-8.1-1.4-11h-1.7l1.4-4h-2.9c.8-1.4 1.7-3.6 2.4-5.9-1.4-.6-2.8-1-4.1-1-1.5 0-2.8.6-3.5 2.2-2.6 6.1-3.8 11.2-1.6 18.2 2.2 7 4.8 17.9 5.4 19.5.5 1.4 2.5 5.5 7.3 5.1-.1-1.8-.2-2.8-.2-2.8l2.1.6z"/><path fill="#9C7360" d="M128 179.1v-2.4s-27.8-6.2-33.5-18.2c-3.6-7.5-7.3-20.3-9.5-36.6l-2-.7s.1 1 .2 2.8c.2 3.5.5 9.9.1 17.3 1.7 5.5 11.8 32.9 44.7 37.8z"/><path fill="#C08C76" d="M127.7 38.3c.1.2.2.4.3.5v-.2l-.3-.3zm.3 15.3v-3.4c-.2 1.3-.5 2.4-.7 3.3.4.1.7.1.7.1z"/><path fill="#C08C76" d="M128 55.8c-.4 0-.8-.1-1.3-.1 0 .1-.1.2-.1.2v-.2c-9.2-.3-27.1 2.3-27.1 2.3 10.5-4.6 23.5-4.6 27.3-4.5.1-1.3.1-2.5 0-3.7-9.1-.4-27.3 2.3-27.3 2.3 10.2-4.5 22.8-4.6 27-4.5-1.8-10.3-9.5-17.1-9.5-17.1V36c0-5.4-3.9-7-5.8-7.5l-2.7.9-6 3.1 1.9 1.2c-3 0-5.9 1.4-7.5 2.2-.3.2-.6.5-.9.8l1.9.6C92.4 40.4 90 49.2 90 49.2c-4.1 7.4-3.1 29-3.1 29l-1.4-4.1c-3.1 13.2-1.9 35-1.9 35v-.1c.3 4.5.8 8.7 1.3 12.8 2.2 16.4 6 29.2 9.5 36.6 5.7 12 33.5 18.2 33.5 18.2V55.8zm-8.3 34.5s-.5 2.6-1.4 2.9c-1 .2-10.8-3.4-12.7-3.6-1.9-.2-8.9 7.4-8.9 7.4v-1.7H95s3.4-4.1 5.3-6.5c1.9-2.4 3.4-3.4 8.1-1.4 4.9 1.9 11.3 2.9 11.3 2.9z"/><path fill="#C08C76" d="M109.2 28.8c-.3.1-.6.3-.9.4.1.2.2.3.2.3s.2-.3.7-.7z"/><path fill="#574E46" d="M100.3 88.8c-1.9 2.4-5.3 6.5-5.3 6.5h1.7V97s6.9-7.7 8.9-7.4c1.9.2 11.7 3.8 12.7 3.6 1-.2 1.4-2.9 1.4-2.9s-6.5-1-11.3-2.9c-4.7-1.9-6.2-1-8.1 1.4z"/><path fill="#9C7360" d="M99.6 52.2s18.2-2.7 27.3-2.3c-.1-.7-.2-1.5-.3-2.2-4.2-.1-16.8 0-27 4.5zm27.1 3.5c.5 0 .9 0 1.3.1v-2.2h-.7c-.3 1-.5 1.8-.6 2.1zM99.6 58s17.9-2.7 27.1-2.3c.1-.7.2-1.5.2-2.2-3.8-.1-16.8 0-27.3 4.5z"/><path fill="#64615D" d="M85.5 74.3l1.4 4.1s-1-21.6 3.1-29c0 0 2.4-8.8 7.9-11.9l-1.9-.6-.2-.1s.4-.3 1.1-.7c1.6-.8 4.5-2.2 7.5-2.2l-1.9-1.2 6-3.1s-.1-.1-.2-.3c-1.1-1.5-6.2-8-16.3-5.7l5.5 4.1s-7.2-1.2-11 1.9c0 0 7.9-1.2 9.1 0 0 0-8.9 3.4-11.7 7.4l7.4-1.2s-9.7 20.3-12.1 25.1l3.4-.5-3.8 9.2 3.8-1.9s-1.3 6.8-3.1 12.5c-.7 2.3-1.5 4.5-2.4 5.9H80l-1.4 4.1h1.7l1.4 11 1.9 8.1v.1c0-.1-1.2-21.9 1.9-35.1zM128 21.8c-.5.1-1 .2-1.6.3.5 0 1 .1 1.6.2v-.5zm-19.5 7.7l2.7-.9c-.7-.2-1.1-.2-1.1-.2.6-.5 1.1-1 1.7-1.5-1.3.7-2.1 1.4-2.6 1.9-.5.4-.7.7-.7.7z"/><path fill="#77736F" d="M110.1 28.4s.5 0 1.1.2c2 .5 5.8 2.1 5.8 7.5v-5.5s7.7 6.8 9.5 17.1c.1.7.2 1.4.3 2.2.1 1.2.1 2.4 0 3.7 0 .7-.1 1.4-.2 2.2v.2s0-.1.1-.2c.1-.3.3-1.1.6-2.2.2-.9.5-2.1.7-3.3 0-.1 0-.2.1-.3.1-.7.3-1.5.4-2.2.4-3.2.5-6.6-.4-8.9-.1-.2-.2-.4-.3-.5.1.1.2.3.3.4 1.2 1.8 3.1 5.2 3 9 0 .7-.1 1.4-.2 2.2 0 .1 0 .3-.1.4 0 0 0-.1.1-.4.1-.4.3-1.2.5-2.2.7-3 1.7-7.9 1-10.6 0 0 12.4 3 21.8 14.3.2.2.3.4.5.6 2 2.5 3.9 5.4 5.4 8.8 0 0-4.3-17.5-16.5-24.9l5.5.5s-5.6-7.2-13.6-11.4c-2.3-1.2-4.9-2.2-7.5-2.6-.5-.1-1-.2-1.6-.2-4.7-.4-9.7.8-14.7 4.9-.5.2-1 .7-1.6 1.2z"/><path fill="#315356" d="M128 179.1v4.2s30.6-3.6 47.1-16.5c3-2.3 5.4-5 6.9-7.7.3-3.8-1.5-8-3.8-11.7 0 0 0-.1-.1-.1h-.4l-1.6-2.7h.2c-1.2-1.6-2.3-3.1-3.4-4.3 0 0-.1.4-.3 1-1.6 5.5-11.7 32.9-44.6 37.8z"/><path fill="#3D4748" d="M176.2 144.6l1.6 2.7h.4c1.6.1 2.9.4 3.9 1 3 1.9 2.7 6.3 0 10.8-1.6 2.7-4 5.4-6.9 7.7-16.5 12.8-47.1 16.5-47.1 16.5v12.1c57.6 0 65-29.3 65-29.3s-3-13.2-6.2-17.2c-.1-.2-.3-.3-.4-.5-3-3.2-8.7-3.8-9.9-3.9-.3.1-.4.1-.4.1z"/><path fill="#2C3637" d="M77.8 147.3c-1.6.1-2.9.4-3.9 1 1.3-.5 2.8-.8 3.9-1-.1.1 0 0 0 0zM63 166.2s-25.3 8.2-49.1 19.9C35.1 227.6 78.2 256 128 256v-60.5c-57.6 0-65-29.3-65-29.3z"/><path fill="#2C3637" d="M69.6 148.6c-.2.2-.3.3-.4.5-3.3 4.2-6.2 17.2-6.2 17.2s3-13.2 6.2-17.2c.1-.2.3-.4.4-.5z"/><path fill="#020507" d="M77.7 147.4c-1 .1-2.5.4-3.8.9-3 1.9-2.7 6.3 0 10.8-.3-3.8 1.5-8 3.8-11.7z"/><path fill="#27474A" d="M79.8 144.6l-1.6 2.7h-.4s0 .1-.1.1c-2.3 3.7-4.1 7.9-3.8 11.7 1.6 2.7 4 5.4 6.9 7.7 16.5 12.8 47.1 16.5 47.1 16.5v-4.2c-32.9-4.9-43-32.3-44.8-37.8-.2-.6-.3-1-.3-1-1 1.2-2.2 2.7-3.4 4.3h.4z"/><path fill="#364041" d="M128 195.5v-12.1s-30.6-3.6-47.1-16.5c-3-2.3-5.4-5-6.9-7.7-2.7-4.5-3-8.9 0-10.8.9-.6 2.2-1 3.9-1h.4l1.6-2.7h-.2c-1.2.1-6.9.8-9.9 3.9-.1.2-.3.3-.4.5-3.2 4-6.2 17.2-6.2 17.2s7.2 29.2 64.8 29.2z"/></svg>