<svg xmlns="http://www.w3.org/2000/svg" width="256" height="256"><circle fill="#B1B3B5" cx="128" cy="128" r="128"/><path fill="#C08C76" d="M128.4 176.7v24.8c18-10.2 36.5-32.9 36.5-32.9.1.1.2.2.3.2.4-5.2.9-9 .9-9-.9 1-1.9 2-3 3.2-9.1 9.5-30.5 13-34.7 13.7z"/><path fill="#DFC8B0" d="M128.4 10.8c8.2.1 14.8 1.1 20.1 2.7 3.2 1 5.9 2.1 8.2 3.4l-1.1-2.2c2 1.5 3.7 3.1 5 4.6 7.8 5.8 9.1 12.5 9.1 12.5 31 5.7 17.2 56.5 16.3 59.1-.4 1.2-1.3 3.7-2 6.2 1.2 0 2.4 0 3.4-.1.6 0 1.2-.1 1.8-.2.3-2.2.7-4.7 1-5.8.6-2.2 4.5-9.3 3.4-12.5s-1.1-7.3-.2-13.4c1-6.1-2.2-15-5.4-21.7-3.2-6.7-8.3-9.6-12.8-11.5-4.5-1.9-2.2-4.5-5.1-8-2.9-3.5-5.7-6.4-15-11.5-8.5-4.7-24.3-4.1-26.9-4h.4v2.4z"/><path fill="#C08C76" d="M183.8 97.1l-2.6 13.1-.2-8.4v.1c-1.2 10.3-4.1 28.5-5 37.8-.1 1.3-.3 2.5-.4 3.6 9.2-.3 11.1-10.1 11.9-15.2.9-5.7 6.7-8.7 8.7-11.9s1.3-13.1 0-17.3c-1.1-3.5-3.9-2.7-7.1-2.1-.6.1-1.2.2-1.8.2-1.1 0-2.3.1-3.5.1z"/><path fill="#D7A990" d="M180.9 101.8l-5.2 8.3s.6-2.1 1.3-5.7c.2-4.5 1.7-17.9.2-25.4-3.5-5.4-6.1-26.2-9.9-31s-8-11.5-8-11.5c-7-1.6-8.3-2.9-8.3-2.9l2.6-2.5s-8.6.6-8.9 0c-.3-.6 0-2.2 0-2.2-6.9 3.2-14 2.2-16.3 1.8v145.9c4.2-.6 25.6-4.1 34.6-13.6 1.1-1.2 2.1-2.2 3-3.2 6.4-6.9 8.5-10.3 9.5-16.7.2-1.1.3-2.3.4-3.6.9-9.1 3.8-27.4 5-37.7zm-32.4-27.5s6.7-1 16.6 1.6l5.7 3.2-2.6 1.9 2.6 2.6h-2.2l2.2 2.9s-15.3-8-23.9-4.8c-8.6 3.2-8.6-2.6-8.6-2.6s4.4-2.6 10.2-4.8z"/><path fill="#DFC8B0" d="M160.6 24.7l-4-7.7c-2.3-1.3-5-2.4-8.2-3.4 8.5 3.9 12.2 11.1 12.2 11.1zm-32.2-10.6c5.8 1.9 14.5 9 14.5 9-1.2-4.5-12.5-11.1-12.5-11.1 6.7.7 22.3 13.2 22.3 13.2-4.4-5.8-14.5-13.2-14.5-13.2 9.3 1.7 17.6 10.8 17.6 10.8l-7.4-9.2c-5.3-1.6-11.9-2.7-20.1-2.7v3.2h.1zM165.6 34l-3.5 5.3s18.8-2.3 27.4 19.1l-5.8-4 5.8 11-4.4-4.8s5 8.6 3.8 15.9l-4.1-7.7s3.4 12.8-.9 28.3c.8-2.4 1.6-5 2-6.2 1-2.6 14.7-53.3-16.3-59.1 0 0-1.3-6.6-9.1-12.5 6.3 7.5 5.1 14.7 5.1 14.7z"/><path fill="#DFC8B0" d="M144.6 29s-.3 1.6 0 2.2c.3.6 8.9 0 8.9 0l-2.6 2.5s1.3 1.3 8.3 2.9c0 0 4.2 6.7 8 11.5s6.4 25.5 9.9 31c1.5 7.5 0 20.9-.2 25.4 2.2-12.1 4.9-41.4-15-65.2 1.4-6.5-3.8-15.1-3.8-15.1 1.2 2.4 1.7 11 1.7 11-1.9-6.4-6.2-12.7-6.2-12.7 1.4 3.7 2.2 8.9 2.2 8.9-2.9-3.6-12.2-11.5-12.2-11.5 2 3.9 5.2 9.9 5.2 9.9-2.3-3.8-12.1-7.7-12.1-7.7 2.9 3.6 3 6.8 3 6.8s-3.8-6.9-11.3-10.7v12.7c2.2.3 9.4 1.2 16.2-1.9z"/><path fill="#DFC8B0" d="M146.9 81.7c8.6-3.2 23.9 4.8 23.9 4.8l-2.2-2.9h2.2l-2.6-2.6 2.6-1.9-5.7-3.2c-9.9-2.6-16.6-1.6-16.6-1.6-5.7 2.2-10.2 4.8-10.2 4.8s0 5.7 8.6 2.6z"/><path fill="#BBA08D" d="M138.3 12s10.2 7.4 14.5 13.2c0 0-15.6-12.5-22.3-13.2 0 0 11.3 6.6 12.5 11.1 0 0-8.7-7.1-14.5-9v4c7.6 3.8 11.3 10.7 11.3 10.7s-.2-3.2-3-6.8c0 0 9.8 3.9 12.1 7.7 0 0-3.2-6-5.2-9.9 0 0 9.3 7.9 12.2 11.5 0 0-.8-5.2-2.2-8.9 0 0 4.4 6.2 6.2 12.7 0 0-.5-8.6-1.7-11 0 0 5.3 8.6 3.8 15.1l3.5-5.3s1.2-7.2-5.1-14.6c-1.3-1.5-2.9-3.1-5-4.6l1.1 2.2 4 7.7s-3.7-7.2-12.2-11.1l7.4 9.2c.1 0-8.1-9.1-17.4-10.7z"/><path fill="#948071" d="M184.7 68.7l4.1 7.7c1.2-7.3-3.8-15.9-3.8-15.9l4.4 4.8-5.8-11 5.8 4C180.9 36.9 162 39.2 162 39.2c19.9 23.8 17.2 53.1 15 65.2-.7 3.6-1.3 5.7-1.3 5.7l5.2-8.3v-.1l.2 8.4 2.6-13.1c4.4-15.5 1-28.3 1-28.3z"/><path fill="#C2D2E1" d="M164.9 227.5c-4.2-14.1-14.5-23.4-20.1-27.7-.7 2.8-3.5 12.9-7 18.7l5.5 36.5c6.6-.8 13.1-2.1 19.4-3.9 1.8-7.8 3.5-15.5 5-22.9l-2.8-.7z"/><path fill="#4D5B66" d="M137.8 218.6s-3.9 2-9.4 2.2V256c5.1 0 10.1-.3 15-.9l-5.6-36.5z"/><path fill="#3F4D56" d="M128.4 201.7v19.1c5.5-.2 9.4-2.2 9.4-2.2 3.5-5.8 6.2-16 7-18.7-2.3-1.7-3.8-2.6-3.8-2.6l-12.6 4.4z"/><path fill="#DBE6EF" d="M128.4 201.5v.2l12.6-4.5s1.5.9 3.8 2.6c5.6 4.2 15.9 13.6 20.1 27.7l2.8.9c.7-3.6 1.4-7 2-10.3 2.4-15.9 3.5-30.7 2.1-41.4-.2-.7-.5-1.3-.7-1.7l-.7-1c-1.2-1.4-2.7-2.9-5.2-5.1-.1-.1-.2-.2-.3-.2 0-.1-18.5 22.6-36.5 32.8z"/><path fill="#625A57" d="M170.4 173.9s25.5 19.7 32.9 25.2l3 14.9h-12.7l16.4 12.3c9.1-7.6 17.2-16.5 23.9-26.4-2.1-.6-4-1.2-5.9-1.8-11.4-4.1-39.3-16.7-57.6-24.2z"/><path fill="#625A57" d="M171.7 175.8l-.6-.8c.2.4.5 1 .7 1.7 0-.3-.1-.6-.1-.9zm-1.9 42.3c-.6 3.3-1.3 6.7-2 10.3-1.5 7.3-3.2 15.1-5 22.9.3-.1.6-.2.8-.2 2.4-10.9 4.6-22.2 6.2-33z"/><path fill="#494441" d="M206.3 214l-3-14.9c-7.3-5.4-32.9-25.2-32.9-25.2l.7 1 .6.8c0 .3.1.6.1.8 1.4 10.7.3 25.5-2.1 41.4-1.6 10.8-3.8 22.1-6.1 32.9 17.2-5 32.9-13.5 46.4-24.7L193.6 214h12.7z"/><path fill="#B17D6B" d="M128.4 201.9v-25.2S103.1 173.6 93 163c-1.1-1.2-2.1-2.2-3-3.2 0 0 .5 3.8.9 9 .1-.1.2-.2.3-.2-.1 0 18.9 23.4 37.2 33.3z"/><path fill="#BBA08D" d="M72.2 97.1c-.8-2.4-1.6-5-2-6.2-1-2.6-14.7-53.3 16.3-59.1 0 0 .1-.5.4-1.2 1.2-3.6 6.3-13.8 24.2-18l-2.8-.9c3.1-.2 5.8-.2 8.1-.1 3.6-.5 7.6-.8 12.1-.8V8.4h-.4c-2.6-.1-18.4-.7-26.9 4-9.3 5.1-29.7 24.3-32.9 31-3.2 6.6-6.4 15.6-5.5 21.7 1 6.1.9 10.2-.2 13.4-1.1 3.2 2.7 10.2 3.4 12.5.3 1.1.7 3.6 1 5.8.6.1 1.2.2 1.8.2 1 0 2.2.1 3.4.1z"/><path fill="#B17D6B" d="M75 100.8l-1 1.9s-.9-2.7-1.8-5.7c-1.2 0-2.4 0-3.4-.1-.6 0-1.2-.1-1.8-.2-3.2-.5-6-1.4-7.1 2.1-1.3 4.2-1.9 14.1 0 17.3 1.9 3.2 7.7 6.2 8.7 11.9.8 5.1 2.7 14.9 11.9 15.2-.2-1.1-.3-2.3-.4-3.6-1-9.5-4-28.8-5.1-38.8z"/><path fill="#C08C76" d="M128.4 176.8V30.5s-8.7 2.2-17-1.6c0 0 .3 1.6 0 2.2-.3.6-8.9 0-8.9 0l2.6 2.5s-1.3 1.3-8.3 2.9c0 0-4.2 6.7-8 11.5s-6.4 25.5-9.9 31c-1.9 9.3 1 27.8 0 26.8S76 98.7 76 98.7l-1 1.9c1.1 10 4.2 29.3 5.1 38.8.1 1.3.3 2.5.4 3.6 1 6.4 3.1 9.8 9.5 16.7.9 1 1.9 2 3 3.2 10 10.7 35.4 13.9 35.4 13.9zM85.2 83.6l2.6-2.6-2.6-1.9 5.7-3.2c9.9-2.6 16.6-1.6 16.6-1.6 5.7 2.2 10.2 4.8 10.2 4.8s0 5.7-8.6 2.6-23.9 4.8-23.9 4.8l2.2-2.9h-2.2z"/><path fill="#BBA08D" d="M113.5 21c-8.8-2.5-20.4 1.6-20.4 1.6 8.2-6.7 21-5.4 21-5.4l-11.7-1.5c8.9-3 16.5-.4 16.5-.4l-7.8-2.6c-17.9 4.2-23 14.5-24.2 18 8.2-9.8 26.6-9.7 26.6-9.7zm14.9-6.9v-3.3c-4.5 0-8.5.3-12.1.8 8.6.4 12.1 2.5 12.1 2.5z"/><path fill="#BBA08D" d="M128.4 18.1c-3.8-2.8-11.7-1.5-11.7-1.5 5.7.7 11.4 7 11.4 7-5.8-3.4-15.9-5.1-15.9-5.1 3.5 1.7 7.7 4.9 7.7 4.9-4.6-.6-16.8.2-16.8.2 4.2 1.4 11.4 3.5 11.4 3.5-4.3-1.2-12.7 1.3-12.7 1.3 3.9.4 5.7 1.4 5.7 1.4s-8.4-1.7-24.4 9.4C92 29 104.9 26.4 104.9 26.4c-9.1-1-18.1 4.2-18.1 4.2-.3.8-.4 1.2-.4 1.2-31 5.7-17.2 56.5-16.3 59.1.4 1.2 1.3 3.7 2 6.2.9 2.9 1.8 5.7 1.8 5.7l1-1.9 1-1.9s1.9 6.1 2.9 7.1-1.9-17.6 0-26.8c3.5-5.4 6.1-26.2 9.9-31 3.8-4.8 8-11.5 8-11.5 7-1.6 8.3-2.9 8.3-2.9l-2.6-2.5s8.6.6 8.9 0c.3-.6 0-2.2 0-2.2 8.3 3.8 17 1.6 17 1.6V18.1z"/><path fill="#BBA08D" d="M109.1 81.7c8.6 3.2 8.6-2.6 8.6-2.6s-4.5-2.6-10.2-4.8c0 0-6.7-1-16.6 1.6l-5.7 3.2 2.6 1.9-2.6 2.6h2.2l-2.2 2.9c0-.1 15.3-8 23.9-4.8z"/><path fill="#948071" d="M104.9 26.4S92 29 83.2 39.2c16-11 24.4-9.4 24.4-9.4s-1.9-1.1-5.7-1.4c0 0 8.4-2.5 12.7-1.3 0 0-7.2-2.1-11.4-3.5 0 0 12.2-.8 16.8-.2 0 0-4.2-3.2-7.7-4.9 0 0 10 1.7 15.9 5.1 0 0-5.7-6.3-11.4-7 0 0 7.8-1.2 11.7 1.5v-4s-3.4-2.1-12.1-2.5c-2.3-.1-5-.1-8.1.1l2.8.9 7.8 2.6s-7.6-2.6-16.5.4l11.7 1.5s-12.7-1.2-21 5.4c0 0 11.6-4.1 20.4-1.6 0 0-18.4-.1-26.7 9.6 0 .1 9-5.2 18.1-4.1z"/><path fill="#A0AEBB" d="M118.2 218.6c-3.5-5.8-6.2-16-7-18.7-5.6 4.2-15.9 13.6-20.1 27.7l-2.8.9c1.5 7.3 3.2 15.1 5 22.9 6.3 1.8 12.8 3.1 19.4 3.9l5.5-36.7z"/><path fill="#3F4D56" d="M128.4 220.8c-5.9 0-10.2-2.2-10.2-2.2l-5.5 36.5c5 .6 10.2.9 15.4.9h.4v-35.2z"/><path fill="#2D3941" d="M128.4 201.9l-13.3-4.8s-1.5.9-3.8 2.6c.7 2.8 3.5 12.9 7 18.7 0 0 4.3 2.2 10.2 2.2v-18.7z"/><path fill="#C2D2E1" d="M84.2 176.7c-1.4 10.7-.3 25.5 2.1 41.4.6 3.3 1.3 6.7 2 10.3l2.8-.9c4.2-14.1 14.5-23.4 20.1-27.7 2.3-1.7 3.8-2.6 3.8-2.6l13.3 4.8C110.1 192 91 168.7 91 168.7c-.1.1-.2.2-.3.2-2.6 2.1-4.1 3.6-5.2 5.1l-.7 1c-.1.4-.4.9-.6 1.7z"/><path fill="#494441" d="M49.7 214l3-14.9c7.3-5.4 32.9-25.2 32.9-25.2-18.3 7.5-46.2 20.1-57.6 24.2-1.8.6-3.8 1.3-5.9 1.8 6.7 9.9 14.8 18.7 23.9 26.4L62.4 214H49.7z"/><path fill="#494441" d="M84.3 175.8c0 .3-.1.6-.1.8.2-.7.5-1.3.7-1.7l-.6.9zm1.9 42.3c1.6 10.8 3.8 22.1 6.1 32.9.3.1.6.2.8.2-1.8-7.8-3.5-15.5-5-22.9-.6-3.5-1.2-7-1.9-10.2z"/><path fill="#3A3533" d="M86.2 218.1c-2.4-15.9-3.5-30.7-2.1-41.4 0-.3.1-.6.1-.8l.6-.8.7-1S60 193.8 52.6 199.3l-3 14.9h12.7L46 226.3C59.4 237.5 75.2 246 92.4 251c-2.4-10.8-4.6-22.1-6.2-32.9z"/></svg>