<svg xmlns="http://www.w3.org/2000/svg" width="256" height="256"><circle fill="#B1B3B5" cx="128" cy="128" r="128"/><path fill="#80512A" d="M174.9 132.6c0 2 .1 3.9.2 5.6 3.1 1.1 7.8 3.2 11.8 6.4.2.2.4.3.6.5 6.7-.3 9.2-4.7 9.2-4.7-9.1-2.6-7.7-15.6-7.7-15.6 1.2 2.2 7.7 5 7.7 5-4.9-5.8-7.7-12.2-8.9-17.8-2 6.4-4.9 13.2-6 15.1-.9 2-3.1 4.4-6.9 5.5zm-2.8 2.5c-.2.7-.3 1.3-.5 2 .2.1.5.1 1 .3-.2-.8-.3-1.6-.5-2.3zM175 43c.5.8 1.1 1.8 1.6 2.8.7.4 1.4.7 2 .8 0 0-.6.2-1.4.3.5 1.1 1 2.2 1.4 3.4 2.4.7 5.3.9 8.1.2 0 0-2.8 1.6-7.5 1.5 2.3 6.4 4.2 13.7 5.2 18 .4 1.2.7 2.5.8 3.6 0 0-.3-1.4-.8-3.6-1-3.4-2.5-6.6-2.5-6.6 1 2.1-1.1 11.3-2.5 20.9 2.2-.5 4.7-.4 6.7 1.8 3.2 3.5 4.2 7.4 4.3 11.8 2.7-3.3 5.6-6 4.8-7.5-1-1.9 1.7-5.7 1.7-10.5s-4.6-23.2-4.6-23.2c3.4 5 4.6 12 4.6 12-.2-10.1-6.9-22.3-9.3-25.9-.3-.5-.7-1.1-1.2-1.8-5.3-1.2-11.6-2.8-16.9-4.8 2.1 2.4 4.1 4.7 5.5 6.8zm-11-20.3c7.5 7.7 14.3 14.4 22 17.9-3-4.6-8.1-12.5-9.5-12.9-1.6-.5-10.4-11-18.5-15.6s-30-3.8-30-3.8V11s25.2.7 36 11.7z"/><path fill="#443C2E" d="M128 238.1s5.4 2.4 31.5-11.2c0-.8 0-1.6.1-2.4-5.7 1.4-17.9 4-31.6 4v9.6zm16.4-15.1c5.1-.6 10.6-1.8 15.5-4.1.6-6.5 1.9-12.4 4.2-16.3 9-14.8 22.8-21.8 26.5-31.1-.2-1.5-.4-3.5-.6-5.6-3.7 2.7-9 6.1-16.5 10.8-19.3 12.1-25.2 19.7-29.1 46.3zm29.7-81.6c-1.5-.1-2.9-.1-3.7-.1-2 5.9-4.6 10.5-7.4 14.3.9 6 2.2 13.4 3.9 18.9 10.9-11.9 17.7-21.2 17.1-27-.4-4-4.8-5.5-8.7-6 .1 1.1.2 1.8.2 1.8-.5-.5-1-1.1-1.4-1.9z"/><path fill="#C08C76" d="M157.9 162.2c.3 4-7.7 11.4-11.8 12.7-4.3 1.3-13.9 5.4-13.9 5.4l-.5-1.4-2.9 1.4-.8 1.9v41.2s6 .5 13.6-.1c.6-6.3 3.5-26.1 16.6-39.6 3.1-3.2 6-6.3 8.7-9.2-1.7-5.5-3-12.8-3.9-18.9-1.7 2.4-3.4 4.5-5.1 6.6zM128 177v5.2-5.2z"/><path fill="#C6995F" d="M175.1 138.1c.1 1.3.2 2.5.2 3.4 3.9.5 8.3 2 8.7 6 .6 5.8-6.3 15.1-17.1 27-2.7 2.9-5.6 6-8.7 9.2-13.1 13.5-16 33.3-16.6 39.6.9-.1 1.9-.2 2.8-.3 3.8-26.6 9.8-34.2 29.1-46.3 7.5-4.7 12.8-8.1 16.5-10.8 6.1-4.5 8.1-7.1 9.1-10.7 1.6-5.6-4.9-5.1-11.6-10.1-.2-.2-.4-.3-.6-.5-4-3.3-8.6-5.3-11.8-6.5z"/><path fill="#C6995F" d="M174.1 141.4c-.6-1.1-1.1-2.6-1.4-4.1-.4-.1-.8-.2-1-.3-.4 1.5-.8 2.9-1.3 4.2.8 0 2.1 0 3.7.2z"/><path fill="#C08C76" d="M179.4 84.4c-.7 4.9-1.2 9.8-1 14 .5 12.4-1.3 27.5-1.3 27.5s-.2-11.2-1.6-4.3c-.6 2.8-.7 7.1-.6 11 3.8-1.1 6-3.5 7.1-5.4 1-1.9 4-8.7 6-15.1.8-2.5 1.4-4.9 1.7-7 .4-2.5.7-4.8.7-7.1 0-4.4-1.1-8.3-4.3-11.8-2-2.2-4.5-2.3-6.7-1.8z"/><path fill="#D7A990" d="M128 122.1s2 2.8 5.1-2.8c0 0 3.1 1.8 5.3 5.4 2.2 3.6.7-.5 6.2 3.1s8.1 6.7 10.3 12.2c0 0-3.1.7-4.3-1.9-1.2-2.6-6.9-6.7-10.3-6.9-3.4-.2-12.3-1.5-12.3-1.5v-7.6V177v-27.8s7.2 3.1 11.3.6c.5-.4.8-.6.8-.6-.2.2-.5.4-.8.6-1.6 1.2-5.1 4.1-5.2 5.4-.2 1.7 2 4.8 6 4.8s12.9-3.1 13.7-7.2 1.7-.5 4.1-5.3c0 0-1.2 10.3 0 14.1.1.2.1.4.1.5 1.7-2.1 3.4-4.2 5.1-6.6 2.7-3.9 5.3-8.4 7.4-14.3.5-1.3.9-2.7 1.3-4.2.2-.6.3-1.3.5-2-.6-3.1-.8-5.9-.8-5.9-1.1 1.6-2.1 8.8-2.1 8.8-.7-4.9 1.4-13.3 1.4-13.3s-2.8 4.5-3.3 4.5 6.1-20.6 6.4-27.5c.1-2.8 0-6.9-.3-10.9l-.6-.9c-3.4-4.3-8.4-10.8-12-16.4-.9.1-1.9.3-2.9.6l.3.6-.3-.6c-.4.1-.7.2-1.1.3-9.1 3.8-16 4.3-16 4.3v-2.4s2.9-1.7 5.5-3.6c2-1.4 4.8-2.6 9.8-2.5-3.9-8.2-12-25.4-11.8-27.9-5.3-7.4-7.8 4.8-16.4 4.8v75.1z"/><path fill="#D7A990" d="M156.3 64.7s.1 2.8.6 5.7c.6 0 1.3.1 2 .2-1.3-2.5-2.3-4.5-2.6-5.9zm8.6-15.8c.6 2.5 1.6 5.6 3 8.3-1.1-6.3-2.3-11-3-8.3zm8.6 41.9c-.4-5.7-1.1-11.4-2-13.8-.8-2.1-2.1-11.8-3.5-19.3-.9-1.2-2.2-2.9-3.5-4.9.1 7 3.2 17.5 3.2 17.5s-6.7-18.2-11.8-27.9c1.6 4.4 3.2 9.1 4 12.9 1 4.7 2 10.1 3.8 15.9 6.8 1.6 5.5 4.3 4.4 3.2-.5-.5-1.9-.9-3.7-1 1.8 5.4 4.4 11 8.4 16.6.3.3.5.5.7.8z"/><path fill="#754A25" d="M184.4 70c.5 2.2.8 3.6.8 3.6-.1-1.1-.4-2.3-.8-3.6zM171 46.7s3.2 2.5 7.7 3.7c-.5-1.2-.9-2.3-1.4-3.4-1.8.3-4.7.7-6.3-.3zm-1.6-10.5c-4.1-1.5-7.5-3.2-9.2-5.1 0 0 10.1 11.2 16.5 14.7-.5-1.1-1.1-2-1.6-2.8-1.5-2.1-3.5-4.4-5.7-6.8zm4.1 54.6c1.8 2.3 3.1 3.8 3.1 3.8-1.2-1.2-2.2-2.5-3.1-3.8.3 4.1.4 8.1.3 11-.3 6.9-6.9 27.5-6.4 27.5s3.3-4.5 3.3-4.5-2.1 8.4-1.4 13.3c0 0 1-7.2 2.1-8.8 0 0 .2 2.7.8 5.9.1.7.3 1.5.5 2.2.4 1.5.8 2.9 1.4 4.1.4.8.9 1.5 1.4 1.9 0 0-.1-.7-.2-1.8-.1-.9-.2-2-.2-3.4-.1-1.7-.2-3.6-.2-5.6-.1-4 0-8.2.6-11 1.4-6.9 1.6 4.3 1.6 4.3s1.8-15 1.3-27.5c-.2-4.2.3-9.1 1-14 1.4-9.6 3.5-18.8 2.5-20.9 0 0 1.5 3.2 2.5 6.6-1-4.3-2.9-11.6-5.2-18-1.9 0-4-.3-6.4-1 0 0 5.9 15.6 3.7 24 0 0-6.8-24.9-12.5-29.9 0 0 .3 1.6.9 3.9.8-2.6 1.9 2 3 8.3.5.9 1 1.8 1.6 2.5 0 0-.6-.7-1.5-1.9 1.4 7.6 2.7 17.2 3.5 19.3.9 2.1 1.6 7.8 2 13.5z"/><path fill="#754A25" d="M164.5 52.8c-2.9-4.4-6.2-10.1-7-14.5-1.4-8.4-7.7-10.5-7.7-10.5s3.1 6.8 6 14.6c5.1 9.7 11.8 27.9 11.8 27.9s-2.9-10.5-3.1-17.5z"/><path fill="#915C32" d="M140.3 131.2c3.4.2 9.1 4.3 10.3 6.9 1.2 2.6 4.3 1.9 4.3 1.9-2.2-5.5-4.8-8.6-10.3-12.2-5.5-3.6-4.1.5-6.2-3.1-2.2-3.6-5.3-5.4-5.3-5.4-3.1 5.6-5.1 2.8-5.1 2.8v7.6c0 .1 8.9 1.3 12.3 1.5zm-8.6 47.7l.5 1.4s9.6-4.1 13.9-5.4c4.1-1.3 12.2-8.7 11.8-12.7 0-.2 0-.4-.1-.5-1.2-3.8 0-14.1 0-14.1-2.4 4.8-3.4 1.2-4.1 5.3s-9.6 7.2-13.7 7.2-6.2-3.1-6-4.8c.2-1.3 3.6-4.1 5.2-5.4-4.1 2.5-11.3-.6-11.3-.6v33.1l.8-1.9 3-1.6z"/><path fill="#915C32" d="M139.3 149.8c.3-.2.5-.4.8-.6 0 0-.4.2-.8.6z"/><path fill="#754A25" d="M146.3 72.8c-2.6 1.9-5.5 3.6-5.5 3.6v2.4s6.9-.5 16-4.3c.4-.1.7-.2 1.1-.3-.3-.7-1-2.1-1.8-3.8-5-.2-7.8 1-9.8 2.4zm12.7-2.3c-.7-.1-1.4-.1-2-.2.2 1.3.6 2.7 1 3.8 1-.3 1.9-.5 2.9-.6-.7-1-1.4-2-1.9-3zm4.7.7c.2.7.5 1.5.7 2.2 1.8.1 3.1.5 3.7 1 1.1 1.2 2.4-1.6-4.4-3.2z"/><path fill="#915C32" d="M187.7 41.3c2.8 1.1 5.7 1.7 8.9 1.8 0 0-3.8-.6-8.9-1.8zM164 22.7c-10.8-11-36-11.7-36-11.7v36.2c8.5 0 11.1-12.2 16.4-4.8-.2 2.5 7.8 19.7 11.8 27.9.8 1.8 1.5 3.1 1.8 3.8l.3.6-.3-.6c-.5-1.1-.8-2.4-1-3.8-.5-2.9-.6-5.7-.6-5.7.3 1.4 1.3 3.5 2.6 5.8.6 1 1.2 2 1.9 3.1 3.6 5.6 8.6 12.2 12 16.4-4-5.5-6.6-11.2-8.4-16.6-.2-.7-.5-1.5-.7-2.2-1.8-5.8-2.8-11.2-3.8-15.9-.9-3.9-2.4-8.6-4-12.9-2.9-7.8-6-14.6-6-14.6s6.2 2.2 7.7 10.5c.8 4.4 4 10.1 7 14.5 1.3 2 2.6 3.7 3.5 4.9.9 1.2 1.5 1.9 1.5 1.9-.6-.7-1.1-1.6-1.6-2.5-1.4-2.6-2.4-5.8-3-8.3-.6-2.2-.9-3.9-.9-3.9 5.7 5 12.5 29.9 12.5 29.9 2.2-8.4-3.7-24-3.7-24 2.4.7 4.5 1 6.4 1 4.7.1 7.5-1.5 7.5-1.5-2.9.8-5.7.5-8.1-.2-4.5-1.2-7.7-3.7-7.7-3.7 1.6 1 4.5.6 6.2.3.8-.2 1.4-.3 1.4-.3-.6-.2-1.3-.5-2-.8-6.4-3.5-16.5-14.7-16.5-14.7 1.7 1.9 5.1 3.6 9.2 5.1 5.3 2 11.6 3.6 16.9 4.8.5.1 1 .2 1.4.3-.6-.2-1.1-.5-1.7-.7-7.7-3.1-14.5-9.9-22-17.6zm9.5 68.2c.9 1.3 2 2.5 3.1 3.7-.1 0-1.3-1.5-3.1-3.7l-.6-.9.6.9z"/><path fill="#7A6239" d="M141.6 223.3c-7.6.7-13.6.1-13.6.1v5.1c13.6 0 25.9-2.6 31.6-4 .1-1.9.2-3.8.3-5.6-4.9 2.2-10.4 3.4-15.5 4.1-.9.1-1.9.2-2.8.3z"/><path fill="#7B7F74" d="M131.9 255.9c10-.3 19.7-1.8 29.1-4.2-.3-2.9-.7-6.3-.9-9.8-7.5 4.1-21.1 11.4-28.2 14zm-3.9-17.8V255c3.2 0 19.5-8.4 31.9-15.3-.3-4.2-.4-8.5-.4-12.8-26.1 13.6-31.5 11.2-31.5 11.2z"/><path fill="#443C2E" d="M159.9 239.8c-12.3 6.8-28.6 15.3-31.9 15.3v1c1.3 0 2.6 0 3.9-.1 7.2-2.7 20.7-10 28.1-14.1 0-.7-.1-1.4-.1-2.1z"/><path fill="#282E23" d="M174.1 241.6c-1.7 1.7-3.4 4-4 7.3 2.4-.8 4.8-1.8 7.2-2.7 4.8-4.8 11.3-11.5 13.5-13.7 1.8-1.8 3.1-2.8 5.3-2.9 1.7-.1 3.9.5 7.3 1.8 1.7-1.2 3.3-2.5 4.9-3.8l-9.8-4.5-24.4 18.5z"/><path fill="#98805C" d="M192.6 234.7c-2.4 2.6-5.1 5.7-5.1 5.7.9-.4 1.8-.5 2.5-.4 3.8-2.1 7.5-4.4 11-6.8-3.3-1-6.2-1-8.4 1.5zm-11 9.6l.6-.3c.5-.7.8-1.2.8-1.2l-1.4 1.5zm14.4-14.6c1.7 0 3.9.6 7.3 1.8-3.3-1.3-5.6-1.9-7.3-1.8z"/><path fill="#A59C84" d="M190.7 232.5c-2.2 2.2-8.7 8.8-13.5 13.7 1.5-.6 2.9-1.2 4.3-1.9l1.4-1.5s-.3.4-.8 1.2c2.6-1.2 5.2-2.6 7.8-4-.7-.1-1.5 0-2.5.4 0 0 2.7-3.1 5.1-5.7 2.2-2.5 5.1-2.5 8.4-1.5.8-.6 1.6-1.1 2.4-1.7-3.4-1.3-5.6-1.8-7.3-1.8-2.1 0-3.5 1-5.3 2.8z"/><path fill="#535752" d="M191.2 170.1c.2-.6.7-1.9 1.4-2.9-.6.5-1 1.5-1.4 2.9zm-.5 1.2c.2-.4.3-.8.4-1.3-.1.5-.2.9-.4 1.3zm-28.1 71.3c-.2-6.9 2.2-7.7 7.2-12.9 0 0 13.4-10.1 21.1-16.5 7.7-6.5 10.1-1.9 14.8 0 4.1-2.8 10.5-7.3 16.7-12-2.1-1.6-4.3-3.3-5.5-4.2-.3-.2-.5-.4-.7-.7l-.4-.3v-.2c-1-1.8.5-3.9 3.1-7.9 3.2-4.9 7.3-4.2 10.1-2.8 2 1 5.9 3.4 8.1 4.8.4-.3.8-.7 1.2-1-2.9-1.8-6.4-3.9-8.1-5.1-3.4-2.4-3.4-1-14.8-4.1-10.4-2.8-16.4-8.1-19.6-11.1-1.2.5-2.9 1.6-4.3 5.1-2.9 7.2-7.2 9.3-13.2 15.3-6 6-12.5 12.5-15.6 25.9-1.9 8.5-.8 25.3.2 36.4.1 0 .2-.1.3-.1-.3-3.1-.5-6.2-.6-8.6z"/><path fill="#535752" d="M198 223s-17.5 13.9-19.9 15.6c-1 .7-2.5 1.6-4.1 3.1l24.4-18.5-.4-.2z"/><path fill="#58432D" d="M216.8 196.9c1.2.9 3.4 2.6 5.5 4.2l-6.3-4.9c.3.3.5.5.8.7zm2.1-9c-2.6 4-4.2 6.2-3.1 7.9.1-.6.6-2.8 2.5-5.7 2.2-3.5 6.2-4.2 6.2-4.2l11.3 4.9c.4-.3.8-.7 1.2-1-2.2-1.4-6.1-3.8-8.1-4.8-2.7-1.3-6.8-2.1-10 2.9z"/><path fill="#98805C" d="M218.3 190.1c-1.9 3-2.4 5.1-2.5 5.7v.2l.4.3 6.3 4.9c5-3.7 9.8-7.4 13.4-10.4l-11.3-4.9c-.1 0-4.1.6-6.3 4.2z"/><path fill="#656963" d="M238.2 188.8c-.4.3-.7.6-1.2 1-.4.3-.8.7-1.2 1-3.6 2.9-8.5 6.7-13.4 10.4-6.2 4.6-12.5 9.2-16.7 12-4.8-1.9-7.2-6.5-14.8 0-7.7 6.5-21.1 16.5-21.1 16.5-5 5.3-7.4 6-7.2 12.9.1 2.4.3 5.5.5 8.5 2.3-.7 4.7-1.4 7-2.2.6-3.3 2.3-5.6 4-7.3 1.5-1.5 3.1-2.4 4.1-3.1 2.4-1.7 19.9-15.6 19.9-15.6l.5.2 9.8 4.5c14.2-11.5 25.9-25.9 34.2-42.4-.6.2-1.1.5-1.6 1-.7.7-1.6 1.6-2.8 2.6z"/><path fill="#999A97" d="M162.6 214.8c3.1-13.4 9.6-19.9 15.6-25.9s10.3-8.1 13.2-15.3c1.4-3.5 3.2-4.6 4.3-5.1 1.2-.5 1.7-.4.3-1.6-1.4-1.2-2.5-.7-3.3.3-.7.9-1.2 2.3-1.4 2.9-.1.4-.3.9-.4 1.3 0 .1 0 .1-.1.2-3.7 9.3-17.6 16.3-26.5 31.1-2.4 3.9-3.7 9.8-4.2 16.3-.2 1.8-.3 3.7-.3 5.6 0 .8 0 1.6-.1 2.4-.1 4.3.1 8.7.4 12.8 0 .7.1 1.4.1 2.1.3 3.5.6 6.9.9 9.8.6-.2 1.2-.3 1.9-.5-1.3-11.1-2.4-27.8-.4-36.4z"/><path fill="#784C26" d="M92 22.7c10.8-11 36-11.7 36-11.7V8.4s-21.9-.7-30 3.8-16.9 15.1-18.5 15.6c-1.4.4-6.5 8.2-9.5 12.8 7.7-3.4 14.5-10.2 22-17.9zM80.9 138.1c.1-1.7.2-3.6.2-5.6-3.8-1.1-6-3.5-7.1-5.4-1-1.9-4-8.7-6-15.1-1.2 5.5-4 12-8.9 17.8 0 0 6.5-2.9 7.7-5 0 0 1.4 12.9-7.7 15.6 0 0 2.5 4.4 9.2 4.7.2-.2.4-.3.6-.5 4.2-3.3 8.8-5.3 12-6.5zm3-3c-.1.7-.3 1.5-.5 2.2.4-.1.8-.2 1-.3-.2-.6-.4-1.2-.5-1.9zm-7.3-50.7c-1.4-9.6-3.5-18.8-2.5-20.9 0 0-1.5 3.2-2.5 6.6-.5 2.2-.8 3.6-.8 3.6.1-1.1.4-2.4.8-3.6 1-4.3 2.9-11.6 5.2-18-4.7.1-7.5-1.5-7.5-1.5 2.9.8 5.7.5 8.1-.2.5-1.2.9-2.3 1.4-3.4-.8-.2-1.4-.3-1.4-.3.6-.2 1.3-.5 2-.8.5-1.1 1.1-2 1.6-2.8 1.4-2.1 3.4-4.4 5.6-6.8-5.3 2-11.6 3.6-16.9 4.8-.5.7-.9 1.3-1.2 1.8-2.4 3.6-9.1 15.8-9.3 25.9 0 0 1.2-6.9 4.6-12 0 0-4.6 18.4-4.6 23.2s2.6 8.6 1.7 10.5c-.8 1.5 2.2 4.2 4.8 7.5 0-4.4 1.1-8.3 4.3-11.8 1.9-2.2 4.4-2.3 6.6-1.8z"/><path fill="#383124" d="M128 238.1v-9.6c-13.6 0-25.9-2.6-31.6-4 0 .8 0 1.6.1 2.4 26.1 13.6 31.5 11.2 31.5 11.2zm-36.1-35.5c2.4 3.9 3.7 9.8 4.2 16.3 4.9 2.2 10.4 3.4 15.5 4.1-3.8-26.6-9.8-34.2-29.1-46.3-7.5-4.7-12.8-8.1-16.5-10.8-.3 2.2-.5 4.1-.6 5.6 3.6 9.3 17.5 16.3 26.5 31.1zm-6.3-61.3c-.8 0-2.2 0-3.7.1-.4.8-.9 1.5-1.4 1.9 0 0 .1-.7.2-1.8-3.9.5-8.3 2-8.7 6-.6 5.8 6.3 15.1 17.1 27 1.7-5.5 3-12.8 3.9-18.9-2.7-3.9-5.3-8.4-7.4-14.3z"/><path fill="#9C7360" d="M128 223.4v-41.2l-.8-1.9-2.9-1.4-.5 1.4s-9.6-4.1-13.9-5.4c-4.1-1.3-12.2-8.7-11.8-12.7-1.7-2.1-3.4-4.2-5.1-6.6-.9 6-2.2 13.4-3.9 18.9 2.7 2.9 5.6 6 8.7 9.2 13.1 13.5 16 33.3 16.6 39.6 7.6.7 13.6.1 13.6.1z"/><path fill="#C6995F" d="M84.4 137c-.2.1-.5.1-1 .3-.4 1.5-.8 2.9-1.4 4.1 1.5-.1 2.9-.1 3.7-.1-.5-1.4-1-2.8-1.3-4.3z"/><path fill="#C6995F" d="M111.6 223c1 .1 1.9.2 2.8.3-.6-6.3-3.5-26.1-16.6-39.6-3.1-3.2-6-6.3-8.7-9.2-10.9-11.9-17.7-21.2-17.1-27 .4-4 4.8-5.5 8.7-6 .1-.9.2-2 .2-3.4-3.1 1.1-7.8 3.2-11.8 6.4-.2.2-.4.3-.6.5-6.7 5-13.2 4.5-11.6 10.1 1 3.6 3 6.2 9.1 10.7 3.7 2.7 9 6.1 16.5 10.8 19.3 12.2 25.2 19.8 29.1 46.4z"/><path fill="#9C7360" d="M81.1 132.6c.1-4 0-8.2-.6-11-1.4-6.9-1.6 4.3-1.6 4.3s-1.8-15-1.3-27.5c.2-4.2-.3-9.1-1-14-2.2-.5-4.7-.4-6.7 1.8-3.2 3.5-4.2 7.4-4.3 11.8 0 2.2.3 4.6.7 7.1.3 2.1 1 4.5 1.7 7 2 6.4 4.9 13.2 6 15.1 1.1 1.9 3.3 4.3 7.1 5.4z"/><path fill="#C08C76" d="M82.5 90.8c.2-.3.4-.5.6-.8 4-5.5 6.6-11.2 8.4-16.6-1.8.1-3.1.5-3.7 1-1.1 1.1-2.4-1.7 4.4-3.2C94 65.4 95 60 96.1 55.3c.9-3.9 2.4-8.6 4-12.9-5.1 9.7-11.8 27.9-11.8 27.9s3-10.5 3.2-17.5c-1.3 2-2.6 3.7-3.5 4.9-1.4 7.6-2.7 17.2-3.5 19.3-.9 2.4-1.6 8.1-2 13.8zm17.2-26.1c-.3 1.4-1.3 3.5-2.6 5.8.7-.1 1.4-.1 2-.2.5-2.8.6-5.6.6-5.6zm-11.6-7.6c1.4-2.6 2.4-5.8 3-8.3-.7-2.6-1.9 2.1-3 8.3z"/><path fill="#C08C76" d="M82.5 90.9c-.3 4-.4 8.1-.3 10.9.3 6.9 6.9 27.5 6.4 27.5s-3.3-4.5-3.3-4.5 2.1 8.4 1.4 13.3c0 0-1-7.2-2.1-8.8 0 0-.2 2.7-.8 5.9.2.7.3 1.3.5 2 .4 1.5.8 2.9 1.3 4.2 2 5.9 4.6 10.5 7.4 14.3 1.7 2.4 3.4 4.5 5.1 6.6 0-.2 0-.4.1-.5 1.2-3.8 0-14.1 0-14.1 2.4 4.8 3.4 1.2 4.1 5.3s9.6 7.2 13.7 7.2 6.2-3.1 6-4.8c-.2-1.3-3.6-4.1-5.2-5.4-.3-.2-.5-.4-.8-.6 0 0 .3.2.8.6 4.1 2.5 11.3-.6 11.3-.6V130s-8.9 1.2-12.3 1.5c-3.4.2-9.1 4.3-10.3 6.9-1.2 2.6-4.3 1.9-4.3 1.9 2.2-5.5 4.8-8.6 10.3-12.2 5.5-3.6 4.1.5 6.2-3.1 2.2-3.6 5.3-5.4 5.3-5.4 3.1 5.6 5.1 2.8 5.1 2.8V47.2c-8.5 0-11.1-12.2-16.4-4.8.2 2.5-7.8 19.7-11.8 27.9 5-.1 7.8 1 9.8 2.5 2.6 1.9 5.5 3.6 5.5 3.6v2.4s-6.9-.5-16-4.3c-.4-.1-.7-.2-1.1-.3l-.3.6.3-.6c-1-.3-1.9-.5-2.9-.6-3.6 5.6-8.6 12.2-12 16.4-.3.3-.5.6-.7.9z"/><path fill="#6A421F" d="M71.6 70c-.4 1.2-.7 2.5-.8 3.6 0 .1.2-1.3.8-3.6zm24.2-38.9c-1.7 1.9-5.1 3.6-9.2 5.1-2.3 2.4-4.2 4.7-5.6 6.8-.5.8-1.1 1.8-1.6 2.8 6.3-3.4 16.4-14.7 16.4-14.7zM78.8 47c-.5 1.1-1 2.2-1.4 3.4 4.5-1.2 7.7-3.7 7.7-3.7-1.7 1-4.6.6-6.3.3z"/><path fill="#6A421F" d="M81.9 141.4c.6-1.1 1.1-2.6 1.4-4.1.2-.7.4-1.5.5-2.2.6-3.1.8-5.9.8-5.9 1.1 1.6 2.1 8.8 2.1 8.8.7-4.9-1.4-13.3-1.4-13.3s2.8 4.5 3.3 4.5-6.1-20.6-6.4-27.5c-.1-2.8 0-6.9.3-10.9-.9 1.3-2 2.5-3.1 3.7 0 0 1.2-1.5 3.1-3.8.4-5.7 1.1-11.4 2-13.8.8-2.1 2.1-11.8 3.5-19.3-.9 1.2-1.5 1.9-1.5 1.9.6-.7 1.1-1.6 1.6-2.5 1.1-6.3 2.3-10.9 3-8.3.6-2.1.9-3.7.9-3.7-5.8 5-12.5 30-12.5 30-2.2-8.4 3.7-24 3.7-24-2.4.7-4.5 1-6.4 1-2.3 6.4-4.2 13.7-5.2 18 1-3.4 2.5-6.6 2.5-6.6-1 2.1 1.1 11.3 2.5 20.9.7 4.9 1.2 9.8 1 14-.5 12.4 1.3 27.5 1.3 27.5s.2-11.2 1.6-4.3c.6 2.8.7 7.1.6 11 0 2-.1 3.9-.2 5.6-.1 1.3-.2 2.5-.2 3.4-.1 1.1-.2 1.8-.2 1.8.5-.5 1-1.1 1.4-1.9z"/><path fill="#6A421F" d="M100.1 42.4c2.9-7.8 6-14.6 6-14.6s-6.2 2.2-7.7 10.5c-.8 4.4-4 10.1-7 14.5-.1 7-3.2 17.5-3.2 17.5s6.8-18.2 11.9-27.9z"/><path fill="#754A25" d="M122.9 119.4s-3.1 1.8-5.3 5.4c-2.2 3.6-.7-.5-6.2 3.1s-8.1 6.7-10.3 12.2c0 0 3.1.7 4.3-1.9 1.2-2.6 6.9-6.7 10.3-6.9 3.4-.2 12.3-1.5 12.3-1.5v-7.6c0-.1-2 2.8-5.1-2.8zm-6.2 30.4c-.5-.4-.8-.6-.8-.6.3.2.6.4.8.6z"/><path fill="#754A25" d="M128 155.2v-6s-7.2 3.1-11.3.6c1.6 1.2 5.1 4.1 5.2 5.4.2 1.7-2 4.8-6 4.8s-12.9-3.1-13.7-7.2-1.7-.5-4.1-5.3c0 0 1.2 10.3 0 14.1-.1.2-.1.4-.1.5-.3 4 7.7 11.4 11.8 12.7 4.3 1.3 13.9 5.4 13.9 5.4l.5-1.4 2.9 1.4.8 1.9v-26.9z"/><path fill="#6A421F" d="M99 70.3c-.6 0-1.3.1-2 .2-.6 1-1.2 2-1.9 3.1.9.1 1.9.3 2.9.6.5-1.2.8-2.5 1-3.9zm-11.1 4.2c.5-.5 1.9-.9 3.7-1 .2-.7.5-1.5.7-2.2-6.8 1.5-5.5 4.3-4.4 3.2zm27.3 4.3v-2.4s-2.9-1.7-5.5-3.6c-2-1.4-4.8-2.6-9.8-2.5-.8 1.8-1.5 3.1-1.8 3.8.4.1.7.2 1.1.3 9 3.9 16 4.4 16 4.4z"/><path fill="#754A25" d="M68.3 41.3c-5.1 1.1-8.9 1.8-8.9 1.8 3.2-.1 6.1-.7 8.9-1.8zm14.2 49.5c-1.8 2.3-3.1 3.8-3.1 3.8 1.2-1.2 2.2-2.5 3.1-3.8.2-.2.4-.5.6-.8-.2.3-.4.5-.6.8zm13.3-59.7S85.7 42.3 79.3 45.8c-.7.4-1.4.7-2 .8 0 0 .6.2 1.4.3 1.7.3 4.6.7 6.2-.3 0 0-3.2 2.5-7.7 3.7-2.4.7-5.3.9-8.1.2 0 0 2.8 1.6 7.5 1.5 1.9 0 4-.3 6.4-1 0 0-5.9 15.6-3.7 24 .2 0 6.9-25 12.7-30 0 0-.3 1.6-.9 3.9-.6 2.5-1.6 5.6-3 8.3-.5.9-1 1.8-1.6 2.5 0 0 .6-.7 1.5-1.9s2.2-2.9 3.5-4.9c2.9-4.4 6.2-10.1 7-14.5 1.4-8.4 7.7-10.5 7.7-10.5s-3.1 6.8-6 14.6c-1.6 4.4-3.2 9.1-4 12.9-1 4.7-2 10.1-3.8 15.9-.2.7-.5 1.5-.7 2.2-1.8 5.4-4.4 11-8.4 16.6 3.4-4.3 8.4-10.8 12-16.4.7-1.1 1.3-2.1 1.9-3.1 1.4-2.4 2.4-4.4 2.6-5.8 0 0-.1 2.8-.6 5.7-.2 1.3-.6 2.7-1 3.8l-.3.6.3-.6c.3-.7 1-2.1 1.8-3.8 3.9-8.2 12-25.4 11.8-27.9 5.3-7.4 7.8 4.8 16.4 4.8V11s-25.2.7-36 11.7c-7.5 7.7-14.3 14.4-22 17.9-.6.3-1.1.5-1.7.7.5-.1.9-.2 1.4-.3 5.3-1.2 11.6-2.8 16.9-4.8 3.9-1.5 7.3-3.2 9-5.1z"/><path fill="#7A6239" d="M128 225.3v-1.9s-6 .5-13.6-.1c-.9-.1-1.9-.2-2.8-.3-5.1-.6-10.6-1.8-15.5-4.1.2 1.8.3 3.7.3 5.6 5.7 1.4 17.9 4 31.6 4v-3.2z"/><path fill="#656963" d="M95.1 251.7c9.3 2.5 19 3.9 29.1 4.2-7.2-2.7-20.7-10-28.1-14.1-.4 3.6-.7 7-1 9.9zm32.9-13.6s-5.4 2.4-31.5-11.2c.1 4.3-.1 8.7-.4 12.8 12.3 6.8 28.6 15.3 31.9 15.3v-16.9z"/><path fill="#383124" d="M96.1 239.8c0 .7-.1 1.4-.1 2.1 7.4 4.1 21 11.4 28.1 14.1 1.3 0 2.6.1 3.9.1v-1c-3.2-.1-19.5-8.5-31.9-15.3z"/><path fill="#1F261B" d="M81.9 241.6l-24.4-18.5-9.8 4.5c1.6 1.3 3.2 2.5 4.9 3.8 3.4-1.3 5.6-1.8 7.3-1.8 2.2 0 3.5 1.1 5.3 2.9 2.2 2.2 8.7 8.8 13.5 13.7 2.4 1 4.8 1.9 7.2 2.7-.6-3.3-2.3-5.6-4-7.3z"/><path fill="#7B6949" d="M52.6 231.5c3.4-1.2 5.6-1.8 7.3-1.8-1.6-.1-3.9.5-7.3 1.8zm15.9 8.9s-2.7-3.1-5.1-5.7c-2.2-2.5-5.1-2.5-8.4-1.5 3.5 2.5 7.2 4.7 11 6.8.7-.1 1.6 0 2.5.4zm5.3 3.6l.6.3-1.4-1.5c.1 0 .4.5.8 1.2z"/><path fill="#98805C" d="M60 229.7c-1.7 0-3.9.6-7.3 1.8.8.6 1.6 1.1 2.4 1.7 3.2-1 6.2-1 8.4 1.5 2.4 2.6 5.1 5.7 5.1 5.7-.9-.4-1.8-.5-2.5-.4 2.5 1.4 5.1 2.7 7.8 4-.5-.7-.8-1.2-.8-1.2l1.4 1.5c1.4.7 2.9 1.3 4.3 1.9-4.8-4.8-11.3-11.5-13.5-13.7-1.8-1.8-3.2-2.8-5.3-2.8z"/><path fill="#474B46" d="M65.3 171.3c-.6-1.9-1.1-3.5-1.9-4.1.7.9 1.2 2.3 1.4 2.9.1.4.3.8.5 1.2zm28.1 43.5c-3.1-13.4-9.6-19.9-15.6-25.9s-10.3-8.1-13.2-15.3c-1.4-3.5-3.2-4.6-4.3-5.1-3.2 3-9.3 8.3-19.6 11.1-11.5 3.1-11.5 1.7-14.8 4.1-1.7 1.2-5.2 3.3-8.1 5.1.4.3.7.6 1.2 1 2.2-1.4 6.1-3.8 8.1-4.8 2.7-1.3 6.9-2.1 10.1 2.8 2.6 4 4.2 6.2 3.1 7.9v.2l-.4.3-.7.7c-1.2.9-3.4 2.6-5.5 4.2 6.2 4.6 12.5 9.2 16.7 12 4.8-1.9 7.2-6.5 14.8 0 7.7 6.5 21.1 16.5 21.1 16.5 5 5.3 7.4 6 7.2 12.9-.1 2.4-.3 5.5-.5 8.5.1 0 .2.1.3.1 1-11 2.1-27.7.1-36.3z"/><path fill="#474B46" d="M77.9 238.5C75.5 236.8 58 223 58 223l-.5.2 24.4 18.5c-1.5-1.5-3.1-2.5-4-3.2z"/><path fill="#3E2D1A" d="M33.7 201.2c2.1-1.6 4.3-3.3 5.5-4.2.3-.2.5-.4.7-.7l-6.2 4.9c-.1-.1-.1-.1 0 0zm-2.2-15.3s4 .6 6.2 4.2c1.9 3 2.4 5.1 2.5 5.7 1-1.8-.5-3.9-3.1-7.9-3.2-4.9-7.3-4.2-10.1-2.8-2 1-5.9 3.4-8.1 4.8.4.3.8.7 1.2 1l11.4-5z"/><path fill="#7B6949" d="M31.5 185.9l-11.3 4.9c3.6 2.9 8.5 6.7 13.4 10.4l6.3-4.9.4-.3v-.2c-.1-.6-.6-2.8-2.5-5.7-2.3-3.6-6.3-4.2-6.3-4.2z"/><path fill="#535752" d="M93.4 242.6c.2-6.9-2.2-7.7-7.2-12.9 0 0-13.4-10.1-21.1-16.5-7.7-6.5-10.1-1.9-14.8 0-4.1-2.8-10.5-7.3-16.7-12-5-3.7-9.8-7.4-13.4-10.4-.4-.3-.8-.7-1.2-1-.4-.3-.8-.7-1.2-1-1.2-1-2.1-1.9-2.7-2.5-.4-.5-1-.8-1.6-1 8.3 16.5 20 30.9 34.2 42.4l9.8-4.5.5-.2s17.5 13.9 19.9 15.6c1 .7 2.5 1.6 4.1 3.1 1.7 1.7 3.4 4 4 7.3 2.3.8 4.6 1.5 7 2.2.1-3.1.3-6.2.4-8.6z"/><path fill="#7B7F74" d="M96.1 239.8c.3-4.2.4-8.5.4-12.8 0-.8 0-1.6-.1-2.4-.1-1.9-.2-3.8-.3-5.6-.6-6.5-1.9-12.4-4.2-16.3-9-14.8-22.8-21.8-26.5-31.1 0-.1 0-.1-.1-.2-.2-.4-.3-.8-.4-1.3-.2-.6-.7-1.9-1.4-2.9-.8-1-1.9-1.5-3.3-.3-1.5 1.2-.9 1.1.3 1.6s2.9 1.6 4.3 5.1c2.9 7.2 7.2 9.3 13.2 15.3 6 6 12.5 12.5 15.6 25.9 1.9 8.5.8 25.3-.2 36.4.6.2 1.2.3 1.9.5.3-2.9.7-6.3.9-9.8-.2-.7-.1-1.4-.1-2.1z"/></svg>