<svg xmlns="http://www.w3.org/2000/svg" width="256" height="256"><circle fill="#B1B3B5" cx="128" cy="128" r="128"/><path fill="#938962" d="M223.4 213.3c7.5-8.4 14-17.9 19.1-28.1l-26.2-9.3 7.1 37.4zm-29 24.1c9.1-5.5 17.4-12.1 24.8-19.7l-39.9-2c3.9 7.6 8.9 15.6 15.1 21.7z"/><path fill="#786B49" d="M216 174.1l-22.9-12.5v.2c.5 4-7.5 21.8-18.9 43 1.3 3.3 3 7.1 5.1 11l39.9 2c1.4-1.5 2.9-3 4.2-4.5l-7.1-37.4-.3-1.8z"/><path fill="#6A5F40" d="M179.3 215.8c-2-4-3.7-7.8-5.1-11-.9 1.7-1.9 3.5-2.8 5.2-2.8 5.1-6.5 10-10.5 14.5l-12.2 29.8c16.5-2.7 31.9-8.5 45.7-16.9-6.2-6.1-11.2-14.1-15.1-21.6z"/><path fill="#362F21" d="M160.9 224.5C146.6 240.7 128 252 128 252v3.9c7.1 0 14-.6 20.8-1.7l12.1-29.7z"/><path fill="#5E3C30" d="M156.7 204.4c7.2-8.6 13-38.4 14.4-45.9-3.9 4.2-14.5 14.1-18.1 15.6-3.9 1.6-13 4-25 4v40.6s20.4-4.4 28.7-14.3z"/><path fill="#443C2D" d="M172 157.4c-.2.3-.6.7-1 1.1-1.4 7.5-7.2 37.3-14.4 45.9-8.2 9.9-28.7 14.2-28.7 14.2v33.3s18.6-11.3 32.9-27.5c4-4.5 7.6-9.4 10.5-14.5 1-1.8 1.9-3.5 2.8-5.2 11.4-21.2 19.5-39 18.9-43v-.2c-.7-4.4-7.6-14.7-7.6-14.7s.9-11.7-8.4-15.1c-.8 7.4-2.9 23.3-5 25.7z"/><path fill="#5E3C30" d="M177.8 124.9c8.5 7.2 9.6.2 9.6-3.4 0-3.7 2.9-13 1.8-16.7s2.4-9.3 0-13c-1.3-2-4.9.6-7.9 3.4-.2 3.1-.5 6.3-.9 9.6-1 8.5-1.7 14.8-2.6 20.1z"/><path fill="#764931" d="M154.3 45.6c-5.6 0-15.6 3-26.3 6.8v84.9s9 1.4 12.7 0c3.7-1.4 10.4.9 13.7 3.9 3.3 3 8.8 2.6 10.8 1.4 1.8-1.1 10.5-12.1 12.1-14.2.2-1.1.4-2.3.6-3.5.8-5.3 1.6-11.7 2.5-20.1.4-3.3.7-6.5.9-9.6 1.1-14 .8-25.6-.3-35.4 0 .1-.1.2-.1.2-1.7-8.7-12.7-14.4-26.6-14.4zm-15.9 48.8c-3.5-2.3 0-4.9 0-4.9s8.8-4.4 18.5-4.9 11.9 8.1 11.9 8.1-3.5-.7-10.1-1.5c-6.6-.9-20.3 3.2-20.3 3.2zm14.6 61.4c3.4-5.8-.6-9-2.6-11.4S137 139.6 135 140c-2 .5-3.6 3-7 3v22.5c0 .1 21.6-3.9 25-9.7z"/><path fill="#43322C" d="M168.9 92.7s-2.2-8.5-11.9-8.1c-9.7.5-18.5 4.9-18.5 4.9s-3.5 2.6 0 4.9c0 0 13.7-4.1 20.3-3.2 6.5.8 10.1 1.5 10.1 1.5z"/><path fill="#53311C" d="M165.2 142.6c-2 1.2-7.5 1.6-10.8-1.4-3.3-3-9.9-5.3-13.7-3.9-3.7 1.4-12.7 0-12.7 0v5.8c3.4 0 5-2.6 7-3 2-.5 13.5 2.1 15.4 4.4s6 5.6 2.6 11.4c-3.4 5.8-25 9.7-25 9.7v12.6c12 0 21.1-2.3 25-4 3.5-1.5 14.2-11.3 18.1-15.6.4-.4.7-.8 1-1.1 2-2.5 4.2-18.3 5.1-25.7.3-2.2.4-3.7.4-3.7l-.3.3c-1.6 2-10.3 13.1-12.1 14.2z"/><path fill="#786B49" d="M13.5 185.2c5.1 10.2 11.6 19.7 19.1 28.1l7.1-37.4-26.2 9.3zm63.2 30.6l-39.9 2c7.4 7.5 15.7 14.1 24.8 19.7 6.2-6.2 11.2-14.2 15.1-21.7z"/><path fill="#6A5F40" d="M81.8 204.8c-11.4-21.2-19.5-39-18.9-43v-.2L40 174.1l-.3 1.8-7.1 37.4 4.2 4.5 39.9-2c2-4 3.7-7.8 5.1-11z"/><path fill="#595035" d="M95.1 224.5c-4-4.5-7.6-9.4-10.5-14.5-1-1.8-1.9-3.5-2.8-5.2-1.3 3.3-3 7.1-5.1 11-3.9 7.5-8.9 15.5-15.1 21.6 13.7 8.4 29.2 14.2 45.7 16.9l-12.2-29.8z"/><path fill="#272214" d="M95.1 224.5l12.2 29.8c6.8 1.1 13.7 1.7 20.8 1.7v-3.9c-.1 0-18.7-11.4-33-27.6z"/><path fill="#4C2F24" d="M103 174.1c-3.5-1.5-14.2-11.3-18.1-15.6 1.4 7.5 7.2 37.3 14.4 45.9 8.2 9.9 28.7 14.2 28.7 14.2V178c-12 .1-21.1-2.2-25-3.9z"/><path fill="#362F21" d="M81.8 204.8c.9 1.7 1.9 3.5 2.8 5.2 2.8 5.1 6.5 10 10.5 14.5C109.4 240.7 128 252 128 252v-33.3s-20.4-4.3-28.7-14.2c-7.2-8.6-13-38.4-14.4-45.9-.4-.4-.7-.8-1-1.1-2-2.5-4.2-18.3-5.1-25.7-9.3 3.5-8.4 15.1-8.4 15.1s-6.9 10.2-7.6 14.7v.2c-.5 4 7.5 21.7 19 43z"/><path fill="#4C2F24" d="M74.8 95.3c-3-2.8-6.6-5.5-8-3.4-2.4 3.7 1.2 9.3 0 13s1.8 13 1.8 16.7c0 3.6 1.1 10.6 9.6 3.4-.8-5.3-1.6-11.7-2.5-20.1-.4-3.3-.7-6.5-.9-9.6z"/><path fill="#5E3C30" d="M128 143.1c-3.4 0-5-2.6-7-3-2-.5-13.5 2.1-15.4 4.4s-6 5.6-2.6 11.4c3.4 5.8 25 9.7 25 9.7v-22.5zm-37.2-.5c2 1.2 7.5 1.6 10.8-1.4 3.3-3 9.9-5.3 13.7-3.9 3.7 1.4 12.7 0 12.7 0V52.4c-4.9 1.7-9.9 3.6-14.7 5.5L83.7 70c-7.4 4.4-9.3 10.9-9.3 10.9l-.3-.6c0 4.8.2 9.8.6 15.1.2 3.1.5 6.3.9 9.5.9 8.4 1.7 14.8 2.5 20.1.2 1.2.4 2.3.6 3.5 1.6 1.9 10.3 13 12.1 14.1zm8.2-58c9.7.5 18.5 4.9 18.5 4.9s3.5 2.6 0 4.9c0 0-13.7-4.1-20.3-3.2-6.6.9-10.1 1.5-10.1 1.5s2.2-8.5 11.9-8.1z"/><path fill="#3A2B25" d="M117.6 94.4c3.5-2.3 0-4.9 0-4.9s-8.8-4.4-18.5-4.9-11.9 8.1-11.9 8.1 3.5-.7 10.1-1.5c6.6-.9 20.3 3.2 20.3 3.2z"/><path fill="#492915" d="M84 157.4c.2.3.6.7 1 1.1 3.9 4.2 14.5 14.1 18.1 15.6 3.9 1.6 13 4 25 4v-12.6s-21.6-3.9-25-9.7c-3.4-5.8.6-9 2.6-11.4s13.5-4.9 15.4-4.4c2 .5 3.6 3 7 3v-5.8s-9 1.4-12.7 0c-3.7-1.4-10.4.9-13.7 3.9-3.3 3-8.8 2.6-10.8 1.4-1.8-1.1-10.5-12.1-12.1-14.2l-.3-.3s.2 1.5.4 3.7c.9 7.4 3 23.3 5.1 25.7z"/><path fill="#786B49" d="M178.9 45.6c4.2 6.6 2.8 12.2 2.2 14 0 .2.1.4.1.6 0 0 3.1-6.6-2-14.5C174.4 38.2 149.1 8 129 8.4c20.1-.2 45.1 29.7 49.9 37.2zM74.5 80.9s1.9-6.5 9.3-10.9l-1.1.5s6-37.7 18.4-48.9c0 0 .8 24.1 18 34l-5.9 2.4c4.8-1.9 9.8-3.8 14.7-5.5 10.7-3.8 20.7-6.8 26.3-6.8h-.2c-5.5 0-15.5 2.9-26.2 6.7v-44c-.9.1-1.9.2-2.8.5 0 0-13.1-1.7-17.4-2.8-4.3-1.1-13.4 2.3-15.4 5.1s-6.8 10-6.8 13.7c0 3.7-6 11.5-6.3 18.5-.3 6.8-7.1 30.8-5.1 36.9.3.2.3.4.5.6z"/><path fill="#938962" d="M127.9 52.3c10.7-3.8 20.6-6.7 26.2-6.7h.2c13.8.1 24.8 5.7 26.5 14.5 0 0 0-.1.1-.2 0-.1.1-.2.2-.4.6-1.7 2-7.4-2.2-14-4.8-7.4-29.8-37.4-49.8-37.3H128v44.1z"/><path fill="#5E5438" d="M119.1 55.5c-17.3-9.9-18-34-18-34-12.5 11.3-18.5 49-18.5 49l1.1-.5 29.5-12.1 5.9-2.4z"/></svg>