<svg xmlns="http://www.w3.org/2000/svg" width="256" height="256"><circle fill="#B1B3B5" cx="128" cy="128" r="128"/><path fill="#805F6C" d="M191.8 208.6c-1.7 1.1-3.9.9-3.9.9l-8.1-4.8c-.1-.6-.2-1.1-.3-1.6h-.1v6.4l1.3.6c.1-.4.1-.9.2-1.3l8.9 3.6s0 .6-.1 1.9l1.1.5 1-6.2z"/><path fill="#805F6C" d="M176.6 198l3.4 1.6c1.1-2.3 3.5-2.6 3.5-2.6 3.4-6.7 4.9-21.8 5.6-33.7-6 13.6-19.4 37.9-41 47.9v38.4c7.6-.7 16.6-1.5 25.5-2.6 2-8.6 4.1-19.5 6.5-33.3l-5.9-2.7 2.4-13zm17.1 5.1c.1.9.1 1.7 0 2.3l1.9.9-2.9 13.2-3.3-1.5c-.2 2.2-.5 5.1-1 8.7l9.4-4c.2-.2.4-.3.7-.4-1.2-7.1-2.4-15-3.4-22.9-.8 2.3-1.4 3.7-1.4 3.7zm-7.8 39.1c.8-.4 1.7-.9 2.5-1.3-.4-2.1-.9-4.1-1.3-5.8-.3 2.1-.7 4.5-1.2 7.1zm38.1-83.4s3.9 19 6.7 45.6c7.4-9.9 13.4-21 17.7-32.9-3-1.5-7.7-4.1-13.5-8.2-2.6-1.8-6.5-3.3-10.9-4.5z"/><path fill="#50463A" d="M224 158.8c-2.7-4.6-15.5-3.7-15.5-3.7s2.1 38.4 5.2 66.7c.2.2.5.4.7.6 5.9-5.5 11.4-11.5 16.2-18-2.7-26.7-6.5-45.6-6.6-45.6zm-26.3 63.9l-9.4 4c-.3 2.4-.7 5.2-1.2 8.3.4 1.7.9 3.7 1.3 5.8 1-.5 1.9-1 2.9-1.6l-1.7-8.2c0 .1 3.3-4.9 8.1-8.3z"/><path fill="#C58A54" d="M134.7 215.3v35.5c3.5-.3 8.1-.6 13.4-1.1v-38.4c-4.2 1.9-8.6 3.3-13.4 4z"/><path fill="#433532" d="M128 215.8v35.4c.4 0 2.8-.2 6.7-.5v-35.5c-2.2.4-4.4.6-6.7.6z"/><path fill="#62473E" d="M172.4 119.3c0 .9-.1 1.7-.1 2.5 3.3 2.9 3 6.2 3 6.2 0 36.1-33.4 52.3-47.2 52.3v14.4c42.7 0 57-57.8 57-57.8l-8.9-19.3c-.1.2-.3.3-.4.5-1.1.8-2.2 1.1-3.4 1.2z"/><path fill="#62473E" d="M128 201.7v14c2.3 0 4.5-.2 6.7-.5 4.8-.7 9.2-2.1 13.4-4 21.5-10 34.9-34.3 41-47.9.5-9.2.5-16.6.5-16.6l-3.3-7.2 2 4.4c-14.8 57.1-58.6 57.8-60.3 57.8z"/><path fill="#37241D" d="M165.3 147c-.7 1.5-2.6 4.2-4.8 7.1 0 0-8.4 23.7-32.5 23.8v2.4c13.8 0 47.2-16.2 47.2-52.3 0 0 .3-3.4-3-6.2-.1 1.6-.1 3-.2 4.2-.4 9.1-4.3 16.2-6.7 21z"/><path fill="#C08C76" d="M172.4 119.3c1.2-.1 2.4-.4 3.3-1.2.2-.1.3-.3.4-.5 2.6-2.9 2.2-7.9 2.7-11.8.5-4.1 3.8-9.6 5.5-16s-2.2-10.3-5-10.3c-.9 0-2.1.5-3.3 1.3-.8 6.1-1.8 11-1.8 11.1-.9 6.8-1.5 18.7-1.8 27.4z"/><path fill="#D7A990" d="M128 136.3v35.6c.8-.1 10.2-1.9 17.3-5.9 6.1-3.4 10.2-11.4 13-17.2l-5.4 14.2 7.6-8.7c2.2-3 4.1-5.6 4.8-7.1 2.4-4.8 6.2-12 6.7-21.1.1-1.2.1-2.6.2-4.2 0-.8.1-1.6.1-2.5.4-8.7.9-20.6 1.8-27.4.5-9.1-4.6-26.2-4.6-26.2.2-5.6-3.9-25-3.9-25L167 37s-6.2 6-11.7 11.5c-5.4 5.4-26.1 3.7-27.2 3.6v84.2zm16.2-46c2.6-1.3 19.5-1.6 19.5-1.6l-1.6.8 1.6.6V92l-2.7 1.7s-10.5-1.1-14.2 0c-3.7 1.1-8.1 3-8.8 1.6 0-.1 3.6-3.7 6.2-5z"/><path fill="#9A7C6A" d="M170.6 55.1c-1.9-2.9-2.2-10.5-2.2-10.5l-1.4-4.8-1.4 1s4.1 19.4 3.9 25c0 0 5.1 17.1 4.6 26.2 0-.1 1.1-5 1.8-11.1.3-2.7.6-5.6.7-8.4-.5-5.9-4.1-14.6-6-17.4z"/><path fill="#484B4B" d="M128 8.4zm0 43.6c1.1.1 21.9 1.8 27.2-3.6 5.5-5.5 11.7-11.5 11.7-11.5l-1.4 3.8 1.4-1 1.4 4.8s.2 7.6 2.2 10.5c1.9 2.8 5.5 11.6 6.1 17.3v.4s2-13.9-4.4-32.6c-3.1-8.9-7.4-20.1-16.5-24.2-9.1-4.1-12.4-7.7-27.7-7.7V52zm18.7 41.6c3.7-1.1 14.2 0 14.2 0l2.7-1.7v-1.8l-1.6-.6 1.6-.8s-16.9.3-19.5 1.6c-2.6 1.3-6.2 4.9-6.2 4.9.7 1.5 5.2-.5 8.8-1.6z"/><path fill="#AD8976" d="M128 177.9c24.1 0 32.5-23.8 32.5-23.8l-7.6 8.7 5.4-14.2c-2.8 5.9-6.9 13.8-13 17.2-7 4-16.5 5.8-17.3 5.9v6.2z"/><path fill="#823D33" d="M128 194.7v7c1.7 0 45.5-.7 60.3-57.7l-2-4.4-1.3-2.7s-14.3 57.7-57 57.8z"/><path fill="#9D907D" d="M148.1 249.7c-5.3.5-9.9.8-13.4 1.1-3.9.3-6.3.4-6.7.5v4.8c16 0 31.3-3 45.5-8.3 0-.2.1-.4.1-.6-9 1-17.9 1.8-25.5 2.5z"/><path fill="#716354" d="M193.7 203.1s.6-1.4 1.3-3.8c-3.3-26-5.4-52.5-5.4-52.5s0 7.3-.5 16.6c-.7 11.9-2.2 27-5.6 33.7l10.2 6z"/><path fill="#C1C3C5" d="M195.5 206.4l-1.9-.9c-.2 1.6-1 2.6-1.9 3.2l-1 6.1-1.1-.5c-.1.9-.2 2.2-.3 3.8l3.3 1.5 2.9-13.2zm-16.1-3.3c-.1-1.5.1-2.6.6-3.5l-3.4-1.6-2.4 13.2 5.9 2.7c.2-1.2.4-2.5.6-3.7l-1.3-.6v-6.5z"/><path fill="#7E6E5E" d="M180 199.6c-.4.9-.6 2-.5 3.5 0 .5.1 1 .3 1.6l8.1 4.8s2.2.3 3.9-.9c.9-.6 1.7-1.6 1.9-3.2.1-.7.1-1.4 0-2.3l-10.2-6.1s-2.4.4-3.5 2.6z"/><path fill="#716354" d="M188.4 226.7c.5-3.6.8-6.5 1-8.7.2-1.6.3-2.9.3-3.8.1-1.3.1-1.9.1-1.9l-8.9-3.6c-.1.5-.1.9-.2 1.3-.2 1.3-.4 2.5-.6 3.7-2.3 13.7-4.5 24.6-6.5 33.3 0 .2-.1.4-.1.6 4.3-1.6 8.4-3.5 12.5-5.5.4-2.6.8-4.9 1.2-7.1.4-3.1.8-5.8 1.2-8.3z"/><path fill="#847463" d="M195 199.3c1 8 2.2 15.9 3.4 22.9 4.3-2.9 9.8-4.4 15.4-.5-3.1-28.2-5.2-66.7-5.2-66.7s-4.9-1.6-9.5-6.4c-4.5-4.7-9.3-2-9.5-1.9s2 26.6 5.4 52.6z"/><path fill="#756A52" d="M198.4 222.2c-.2.1-.4.3-.7.4-4.9 3.5-8.1 8.4-8.1 8.4l1.7 8.2c8.4-4.8 16.2-10.5 23.2-16.9-.2-.2-.5-.4-.7-.6-5.6-3.9-11.1-2.4-15.4.5z"/><path fill="#674B57" d="M60.5 206.4l1.9-.9c-.1-.7-.1-1.4 0-2.3 0 0-.6-1.4-1.3-3.8-1 8-2.2 15.9-3.4 22.9.2.1.4.3.7.4l9.4 4c-.5-3.6-.8-6.5-1-8.7l-3.3 1.5-3-13.1zm6.4-43c.7 11.9 2.2 27 5.6 33.7 0 0 2.4.3 3.5 2.6l3.4-1.6 2.4 13.2-5.9 2.7c2.3 13.7 4.5 24.6 6.5 33.3 9 1.1 17.9 1.9 25.5 2.6v-38.4c-21.5-10.3-34.9-34.6-41-48.1zm-45.8-.1c-5.9 4.1-10.6 6.7-13.5 8.2 4.3 11.9 10.3 22.9 17.7 32.9 2.8-26.6 6.7-45.6 6.7-45.6-4.4 1.2-8.3 2.7-10.9 4.5z"/><path fill="#674B57" d="M76.6 203.1c-.1.5-.2 1-.3 1.6l-8.1 4.8s-2.2.3-3.9-.9l1 6.1 1.1-.5c-.1-1.3-.1-1.9-.1-1.9l8.9-3.6c.1.5.1.9.2 1.3l1.3-.6v-6.3zm-9 37.8c.8.4 1.7.9 2.5 1.3-.4-2.6-.8-4.9-1.2-7.1-.5 1.7-.9 3.6-1.3 5.8z"/><path fill="#483E2B" d="M47.4 155.1s-12.8-1-15.5 3.7c0 0-3.9 19-6.7 45.6 4.8 6.5 10.3 12.5 16.2 18 .2-.2.5-.4.7-.6 3.2-28.3 5.3-66.7 5.3-66.7zm20.2 71.6l-9.4-4c4.9 3.5 8.1 8.4 8.1 8.4l-1.7 8.2c1 .5 1.9 1.1 2.9 1.6.4-2.1.9-4.1 1.3-5.8-.4-3.2-.8-5.9-1.2-8.4z"/><path fill="#956A3F" d="M107.9 211.3v38.4c5.3.5 9.9.8 13.4 1.1v-35.5c-4.8-.7-9.2-2.1-13.4-4z"/><path fill="#2C201D" d="M128 215.8c-2.3 0-4.6-.2-6.7-.5v35.5c4.2.3 6.7.5 6.7.5v-35.5z"/><path fill="#4A352D" d="M66.9 163.4c6 13.6 19.4 37.9 41 47.9 4.2 1.9 8.6 3.3 13.4 4 2.2.3 4.4.5 6.7.5v-14s-45.2.4-60.3-57.7l2-4.4-3.3 7.2s0 7.2.5 16.5z"/><path fill="#4A352D" d="M128 194.7v-14.4c-13.8 0-47.3-16.2-47.3-52.3 0 0-.3-3.4 3-6.2 0-.8-.1-1.6-.1-2.5-1.2-.1-2.4-.4-3.3-1.2-.2-.1-.3-.3-.4-.5L71 136.9s14.3 57.8 57 57.8z"/><path fill="#2C1A13" d="M128 177.9c-24.2 0-32.5-23.8-32.5-23.8-2.2-3-4.1-5.6-4.8-7.1-2.4-4.8-6.2-12-6.7-21.1-.1-1.2-.1-2.6-.2-4.2-3.3 2.9-3 6.2-3 6.2 0 36.1 33.5 52.3 47.3 52.3v-2.3z"/><path fill="#B17D6B" d="M83.6 119.3c-.4-8.7-.9-20.6-1.8-27.4 0-.1-1.1-5-1.8-11.1-1.2-.7-2.4-1.3-3.3-1.3-2.9 0-6.7 3.8-5 10.3s5 12 5.5 16c.5 3.9.1 8.8 2.7 11.8.1.2.3.3.4.5 1 .8 2.1 1.1 3.3 1.2z"/><path fill="#C08C76" d="M90.7 147c.7 1.5 2.6 4.2 4.8 7.1l7.6 8.7-5.4-14.2c2.8 5.9 6.9 13.8 13 17.2 7.3 4.2 17.3 5.9 17.3 5.9V52s-21.8 1.9-27.3-3.6S89 36.9 89 36.9l1.4 3.8s-4.1 19.4-3.9 25c0 0-5.1 17.1-4.6 26.2.8 6.9 1.4 18.7 1.8 27.4 0 .9.1 1.7.1 2.5.1 1.6.1 3 .2 4.2.4 9.1 4.3 16.2 6.7 21zm1.6-56.9l1.6-.6-1.6-.8s16.9.3 19.5 1.6c2.6 1.3 6.2 4.9 6.2 4.9-.6 1.4-5.1-.5-8.8-1.6-3.7-1.1-14.2 0-14.2 0L92.3 92v-1.9z"/><path fill="#8B6F5F" d="M81.9 91.9c-.5-9.1 4.6-26.2 4.6-26.2-.2-5.6 3.9-25 3.9-25l-1.4-1-1.4 4.8s-.2 7.6-2.2 10.5c-1.9 2.8-5.5 11.6-6.1 17.3.1 2.8.4 5.7.7 8.4.8 6.1 1.9 11.1 1.9 11.2z"/><path fill="#343737" d="M85.4 55.1c1.9-2.9 2.2-10.5 2.2-10.5l1.4-4.8 1.4 1-1.4-3.9s6.2 6 11.7 11.5S128 52 128 52V8.4c-15.3 0-18.6 3.6-27.7 7.7-9.1 4.1-13.5 15.3-16.5 24.2-6.4 18.7-4.4 32.6-4.4 32.6v-.4c.5-5.9 4.1-14.6 6-17.4zm23.9 38.5c3.7 1.1 8.1 3 8.8 1.6 0 0-3.7-3.7-6.2-4.9-2.6-1.3-19.5-1.6-19.5-1.6l1.6.8-1.6.6V92l2.7 1.7c0-.1 10.5-1.2 14.2-.1z"/><path fill="#8B6F5F" d="M128 176.8v-4.9s-10-1.8-17.3-5.9c-6.1-3.4-10.2-11.4-13-17.2l5.4 14.2-7.6-8.7s8.4 23.8 32.5 23.8v-1.3z"/><path fill="#682E25" d="M128 201.7v-7c-42.7 0-57-57.8-57-57.8l-1.3 2.7-2 4.4c15.1 58.1 60.3 57.7 60.3 57.7z"/><path fill="#847463" d="M121.3 250.7c-3.5-.3-8.1-.6-13.4-1.1-7.6-.7-16.6-1.5-25.5-2.6 0 .2.1.4.1.6C96.6 253 112 256 128 256v-4.8s-2.5-.1-6.7-.5z"/><path fill="#645640" d="M72.5 197c-3.4-6.7-4.9-21.8-5.6-33.7-.5-9.2-.5-16.6-.5-16.6s-2 26.5-5.4 52.5c.7 2.4 1.3 3.8 1.3 3.8l10.2-6z"/><path fill="#9C9EA1" d="M64.2 208.6c-.9-.6-1.7-1.6-1.9-3.2l-1.9.9 2.9 13.2 3.3-1.5c-.2-1.6-.3-2.9-.3-3.8l-1.1.5-1-6.1zM79.4 198l-3.4 1.6c.4.9.6 2 .5 3.5h.1v6.4l-1.3.6c.2 1.3.4 2.5.6 3.7l5.9-2.7-2.4-13.1z"/><path fill="#716354" d="M62.3 205.5c.2 1.6 1 2.6 1.9 3.2 1.7 1.1 3.9.9 3.9.9l8.1-4.8c.1-.6.2-1.1.3-1.6.1-1.5-.1-2.6-.5-3.5-1.1-2.3-3.5-2.6-3.5-2.6l-10.2 6.1c-.1.8-.1 1.6 0 2.3z"/><path fill="#645640" d="M75.9 213.8c-.2-1.2-.4-2.5-.6-3.7-.1-.4-.1-.9-.2-1.3l-8.9 3.6s0 .6.1 1.9c.1.9.2 2.2.3 3.8.2 2.2.5 5.1 1 8.7.3 2.4.7 5.2 1.2 8.3.3 2.2.7 4.6 1.2 7.1 4 2.1 8.2 3.9 12.5 5.5 0-.2-.1-.4-.1-.6-2-8.6-4.1-19.5-6.5-33.3z"/><path fill="#6C5E50" d="M42.2 221.8c5.5-4 11-2.4 15.4.5 1.2-7.1 2.4-15 3.4-22.9 3.3-26 5.4-52.5 5.4-52.5-.1-.1-5-2.8-9.5 1.9-4.6 4.8-9.5 6.4-9.5 6.4s-2.1 38.3-5.2 66.6z"/><path fill="#5E5642" d="M58.3 222.7c-.2-.2-.4-.3-.7-.4-4.3-2.9-9.8-4.4-15.4-.5-.2.2-.5.4-.7.6 7.1 6.5 14.8 12.2 23.2 16.9l1.7-8.2s-3.3-5-8.1-8.4z"/></svg>