<svg xmlns="http://www.w3.org/2000/svg" width="256" height="256"><circle fill="#B1B3B5" cx="128" cy="128" r="128"/><path fill="#523A2D" d="M165.9 192.2l6.1 14.5c-1-13.6-3.7-25.9-5.8-45-.7 9-1.2 20.5-.3 30.5z"/><path fill="#C08C76" d="M156 170.8c-7.7 7.7-19.2 7.3-24.9 6.6v.4h-2.8v59.6h19.8c2.2-9.2 6-9.3 11.7-10 4.3-12.6 6.1-35.1 6.1-35.2-.9-10-.5-21.5.3-30.6.1-1 .2-1.9.2-2.9-2.9 4.2-6.4 8.2-10.4 12.1z"/><path fill="#656460" d="M188.1 89.8c1.9-5.7 4.3-13.4 6.2-14.1 1.9-.7 0-3.1 0-3.1l.9-4.3-2.8-2.4 2.8-3.4v-3.4l2-2.9L192 52l5.3-2.9s-8.1-1.9-8.1-5.7 1-7.2 1-8.6-1-4.3-1-4.3h-11s-3.4-1-5.3 0-10.3-5.3-10.3-5.3h-.2c.5 7.2 2.4 11 2.4 11l14.4 1-10.5 4.8s11 1 18.2 1.4L173 46.3s12.9 7.2 18.2 7.2l-11 .5s1.5 6 6.5 6.7h2.1c-.8.1-1.5.1-2.1 0H179s2.9 13.9 8.1 16.3h-5.3l1.4 4.3-2.9 2.4 1 4.3 3.8 4.6-2.3 3.8c1.2-1 2.3-1.9 3.4-2.5.9-1.6 1.6-3 1.9-4.1z"/><path fill="#C08C76" d="M176.2 133.4c-.4 3.4-1.1 6.6-2 9.6 9.6 1.4 13.2-10.1 13.7-14 .5-3.8 6.4-7.6 3.9-18.1-1.1-4.6 5.8-14.4-1.3-18.2-1-.5-2.5 0-4.2 1-1.1.7-2.2 1.5-3.4 2.5l-4 6.5-.2-.6c-.7 12-1.7 24.3-2.5 31.3z"/><path fill="#D7A990" d="M128.3 145.1h2.8v32.3c5.7.7 17.2 1.1 24.9-6.6 3.9-3.9 7.4-7.8 10.4-12 3.3-4.7 6-9.8 7.7-15.7.9-3 1.6-6.1 2-9.6.8-7 1.8-19.4 2.7-31.3l-5-16.2h2.6l-2.6-9.1s5.3 4.8 2.6 2.4c-2.6-2.4-2.6-15.3-2.6-15.3h2.6l-11.7-18.2h2.9l-9.6-7.7-10.1-3.8h-10.1l-4.8 2.4-4.8 2.6v105.8zm34-68.7c1.9.6 8.6 11.5 8.6 11.5s-9.3-8.3-13.1-8.7c-3.8-.4-10.2 1.7-13.1 2.7-2.9 1-2.9-5.4-2.9-5.4 2 1.2 18.6-.7 20.5-.1z"/><path fill="#797772" d="M128.3 20.9v18.4l4.8-2.6 4.8-2.4H148l10.1 3.8 9.6 7.7h-2.9L176.4 64h-2.6s0 12.9 2.6 15.3l-2.6-2.4 2.6 9.1h-2.6l5.1 16.2.2.6 4-6.5 2.3-3.8-3.8-4.6-1-4.3 2.9-2.4-1.4-4.3h5.3c-5.3-2.4-8.1-16.3-8.1-16.3h7.4c-5-.7-6.5-6.7-6.5-6.7l11-.5c-5.3 0-18.2-7.2-18.2-7.2l13.9-2.9c-7.2-.5-18.2-1.4-18.2-1.4l10.5-4.8-14.4-1s-1.9-3.8-2.4-11c-.6-7.2-14-18.1-14-18.1v6.2l-7.2-12 .5 9.1-2.4-6.2c-.6-1.3-1.3-2.5-2.1-3.8-3-.2-5.9-.3-8.9-.3v20.9z"/><path fill="#797772" d="M188.6 60.6h-2.1c.6.1 1.3.1 2.1 0zm-46.8 15.8s0 6.4 2.9 5.4 9.3-3.1 13.1-2.7c3.8.4 13.1 8.7 13.1 8.7s-6.7-10.9-8.6-11.5-18.5 1.4-20.5.1z"/><path fill="#58818C" d="M131.1 177.4v-32.3h-2.8v32.6h2.8z"/><path fill="#3F6273" d="M148.1 237.3h-19.8V256c5.8 0 11.5-.4 17.2-1.2.7-4.9 1.2-8.6 1.5-10.8.3-2.6.6-4.8 1.1-6.7z"/><path fill="#8E6857" d="M165.9 192.2c0 .1-1.8 22.5-6.1 35.2.2 0 .4 0 .6-.1 3-.4 7.6-1.4 11.9-2.5.3-6.6.2-12.5-.3-18.1l-6.1-14.5z"/><path fill="#A13B41" d="M156.5 234l15.3-2.3c.2-2.4.3-4.7.4-6.9-4.4 1.1-9 2.1-11.9 2.5-.2 0-.4 0-.6.1-5.7.7-9.5.8-11.7 10-.4 1.8-.8 4-1.1 6.7-.3 2.2-.8 5.9-1.5 10.8 2.8-.4 5.5-.8 8.2-1.4l2.9-19.5z"/><path fill="#476D80" d="M156.5 234l-2.9 19.4c5.5-1.1 10.9-2.6 16.1-4.4 1-6.4 1.7-12.1 2.1-17.4l-15.3 2.4z"/><path fill="#7A6544" d="M200.3 233.6c9.9-6.8 18.8-14.9 26.4-24.2-5-1.7-9.4-3.2-12.9-4.4-3.5 7.7-8.4 17.9-13.5 28.6z"/><path fill="#AB3F46" d="M220 192.2s-19.9-6.8-26.1-14.5c-6.2-7.7-27.6-16.3-27.6-16.3v.2c2.1 19.1 4.8 31.4 5.8 45 .4 5.6.6 11.5.3 18.1-.1 2.2-.2 4.5-.4 6.9-.4 5.2-1.1 10.9-2.1 17.4 11-3.8 21.2-9 30.6-15.4 5.1-10.7 9.9-20.9 13.5-28.6 3.6-7.7 6-12.8 6-12.8z"/><path fill="#523A2D" d="M90.1 192.2c.9-10 .5-21.5-.3-30.6-2.1 19.1-4.8 31.4-5.8 45l6.1-14.4z"/><path fill="#9C7360" d="M90.1 192.2c0 .1 1.8 22.5 6.1 35.2 5.7.7 9.5.8 11.7 10h20.4v-59.6h-3.4v-.4c-5.7.7-17.2 1.1-24.9-6.6-3.9-3.9-7.4-7.8-10.4-12 .1.9.2 1.9.2 2.9.7 9 1.2 20.5.3 30.5z"/><path fill="#50504D" d="M70.7 92.5l3.8-4.6 1-4.3-2.9-2.4 1.4-4.3h-5.3c5.3-2.4 8.1-16.3 8.1-16.3h-7.4c-.7.1-1.4.1-2.1 0h2.1c5-.7 6.5-6.7 6.5-6.7l-11-.5c5.3 0 18.2-7.2 18.2-7.2l-13.9-2.9c7.2-.5 18.2-1.4 18.2-1.4L77 37.1l14.4-1s1.9-3.8 2.4-11h-.2s-8.4 6.2-10.3 5.3-5.3 0-5.3 0H67s-1 2.9-1 4.3 1 4.8 1 8.6-8.1 5.7-8.1 5.7l5.1 3-5.3 4.3 2 2.9v3.4l2.8 3.4-2.8 2.4.9 4.3s-1.9 2.4 0 3.1c1.9.7 4.3 8.4 6.2 14.1.4 1.1 1 2.4 1.8 3.9 1.1.7 2.2 1.5 3.4 2.5l-2.3-3.8z"/><path fill="#9C7360" d="M77.2 102.2l-.2.6-4-6.5c-1.2-1-2.3-1.9-3.4-2.5-1.7-1-3.2-1.5-4.2-1-7.2 3.8-.3 13.6-1.3 18.2-2.5 10.5 3.5 14.3 3.9 18.1.5 3.8 4.1 15.4 13.7 14-.9-3-1.6-6.1-2-9.6-.7-7.1-1.7-19.4-2.5-31.3z"/><path fill="#C08C76" d="M100 170.8c7.7 7.7 19.2 7.3 24.9 6.6v-32.3h3.4V39.6l-5.3-2.9-4.8-2.4h-10.1L98 38.1l-9.6 7.7h2.9L79.6 64h2.6s0 12.9-2.6 15.3l2.6-2.4-2.6 9.1h2.6l-5.1 16.2c.9 11.9 1.9 24.3 2.7 31.3.4 3.4 1.1 6.6 2 9.6 1.8 5.9 4.4 11 7.7 15.7 3 4.1 6.5 8.1 10.5 12zm-6.3-94.4c1.9-.6 18.5 1.3 20.4 0 0 0 0 6.4-2.9 5.4s-9.3-3.1-13.1-2.7c-3.8.4-13.1 8.7-13.1 8.7s6.8-10.7 8.7-11.4z"/><path fill="#656460" d="M114.3 10.3l.5-9.1-7.2 12V7S94.2 18 93.7 25.2c-.5 7.2-2.4 11-2.4 11l-14.4 1L87.4 42s-11 1-18.2 1.4l13.9 2.9s-12.9 7.2-18.2 7.2l11 .5s-1.5 6-6.5 6.7H77S74.1 74.6 68.9 77h5.3l-1.4 4.3 2.9 2.4-1 4.3-3.8 4.6 2.3 3.8 4 6.5.2-.6L82.2 86h-2.6l2.6-9.1s-5.3 4.8-2.6 2.4c2.6-2.4 2.6-15.3 2.6-15.3h-2.6l11.7-18.2h-2.9l9.6-7.7 10.1-3.8h10.1l4.8 2.4 5.3 2.9V0h-.3c-3.1 0-6.2.1-9.2.3-.8 1.2-1.5 2.5-2.1 3.8l-2.4 6.2z"/><path fill="#656460" d="M69.5 60.6h-2.1c.8.1 1.5.1 2.1 0zm41.8 21.2c2.9 1 2.9-5.4 2.9-5.4-1.9 1.3-18.5-.6-20.4 0s-8.6 11.5-8.6 11.5 9.3-8.3 13.1-8.7c3.7-.5 10.1 1.7 13 2.6z"/><path fill="#4A7079" d="M128.3 176.8v-31.7h-3.4v32.6h3.4z"/><path fill="#31505E" d="M128.3 237.3h-20.4c.4 1.8.8 4 1.1 6.7.3 2.2.8 5.9 1.5 10.8 5.7.8 11.5 1.2 17.4 1.2h.3v-18.7z"/><path fill="#6D4F40" d="M90.1 192.2L84 206.7c-.4 5.6-.6 11.5-.3 18.1 4.4 1.1 9 2.1 11.9 2.5.2 0 .4 0 .6.1-4.3-12.7-6.1-35.1-6.1-35.2z"/><path fill="#8A3137" d="M107.9 237.3c-2.2-9.2-6-9.3-11.7-10-.2 0-.4 0-.6-.1-3-.4-7.6-1.4-11.9-2.5.1 2.2.2 4.5.4 6.9l15.3 2.3 2.9 19.4c2.7.6 5.5 1 8.2 1.4-.7-4.9-1.2-8.6-1.5-10.8-.3-2.5-.6-4.7-1.1-6.6z"/><path fill="#3F6273" d="M99.5 234l-15.3-2.3c.4 5.2 1.1 10.9 2.1 17.4 5.2 1.8 10.6 3.3 16.1 4.4L99.5 234z"/><path fill="#5F4F34" d="M29.2 209.4c7.6 9.2 16.5 17.4 26.4 24.2-5.1-10.7-9.9-20.9-13.5-28.6-3.4 1.2-7.8 2.7-12.9 4.4z"/><path fill="#872F35" d="M83.7 224.8c-.3-6.6-.2-12.5.3-18.1 1-13.6 3.7-25.9 5.8-45v-.2s-21.4 8.7-27.6 16.3c-6.2 7.7-26.1 14.5-26.1 14.5s2.4 5.1 6.1 12.8c3.6 7.6 8.5 17.9 13.5 28.6C65 240 75.3 245.3 86.3 249c-1-6.4-1.7-12.1-2.1-17.4-.3-2.3-.4-4.6-.5-6.8z"/></svg>