<svg xmlns="http://www.w3.org/2000/svg" width="256" height="256"><circle fill="#B2B4B5" cx="128" cy="128" r="128"/><path fill="none" d="M167.7 19.3c.2.6.3 1 .4 1.4-.2-.9-.3-1.4-.4-1.4zm10.3-6.6l2-1.7c-.5-.2-1-.4-1.5-.7l-.1.7-.4 1.7z"/><path fill="#533C0A" d="M36.6 217.6c3.5 3.6 7.2 7 11.1 10.1-2.6-2.8-6.4-7.2-9.5-10.7-.6.3-1.2.5-1.6.6zm8.9-4.1c1.9 1 3.4 1.8 3.4 1.8s7.9 3.1 13.4 5 2.2 1.2 5.7 3.1c3.6 1.9 4.6 1.2 4.8 1.4.3.2 4.1-1.2 0-1.4s-4.3-1.9-4.3-1.9l-17.7-8.7c-.2.1-.4.1-.6.1-1.3 0-2.8 0-4.7.6zM80.9 191c1.2-3 2.2-4.9 3.1-6.1 1-1.2 1.7-1.4 1.7-2.6 0-1.2 0-2.6-.2-4.1-.2-1.4-.5-4.1-.5-4.1s-11.7 12.2-14.6 15.3-.1 1.9-5.4 4.8c-.1.1-.3.1-.4.2 4.4 1.4 8.3 4.6 8.3 4.6s.9 0 2.3.2c.1-.5.3-.9.7-1.4 1.2-1.2 3.9-3.8 5-6.8zm-43.3 25.2c-2.4-2.7-4.1-4.8-4.1-4.8v-2.1s1.7-1.4 4.1 0c1.1.6 3.4 1.9 5.7 3.1.9-.6 1.5-.9 1.5-.9s.7-.3 1.7-.9l-2.6-1.3 1.5-4.9c2.2-1.8 4.8-.4 4.8-.4l4-4.9c-.6.2-1 .5-1.3.6-1.7 1-2.6-.7-1.9-1.4.7-.7 2.6-1.6 2.6-1.6s-1.2-1-5 1.9-9.7 6.2-12.3 7.4c-1.5.7-4.3 2.1-6.9 3.4 2.3 2.7 4.6 5.4 7.1 7.9.1-.2.5-.6 1.1-1.1z"/><path fill="#533C0A" d="M29 205.9c4.3-4.3 4.3-3.8 6.9-5.5 2.6-1.7 5-3.8 5-3.8s-1 .2-1-1-.5-1.4 1.7-2.2c2.2-.7.2.2 4.3-2.5 4.1-2.8 5.5-3.5 5.5-3.5s2.6-.2 5-1.9 3.4-3.1 5-4.8.2-1.4 3.1-2.9c2.9-1.4 8.4-3.6 8.4-3.6s-5.7 4.3-7.2 6.5c-1.4 2.2-3.6 3.1-4.8 5.3s-2.4 2.6-3.4 3.8-.2 1.4-1.2 2.4-1.4 1.9 0 1.9-.2.5 1.4 0c.5-.2 1.1-.3 1.7-.4 1.1-.2 2.1-.6 2.9-1.5 1.2-1.4 2.4-2.4 2.4-2.4l1.9-1 5-3.8s8.9-8.6 10.1-10.5 5-5.5 5.5-10.3v6.7c0 2.2-1.4 3.6 0 7.2s-.2 3.1 0 8.1 1.9 8.9 1.9 8.9l1.7 1.5 1.3 7.3c9.2 4.7 5.2 2.2 7.1 4.8s1.9 2.9 4.8 5 3.6.7 4.1 2.9 3.9 1.9 3.9 1.9c0-.3-.1-.7-.1-1-.4-.3-1-.6-1.7-1.1-5.5-3.4-4.3-6-4.3-6s-.2-1.7 2.2-1.7c.8 0 1.7.2 2.8.5-2.7-23-2.1-21.4-3.6-27.5-1.7-6.7-4.6-8.9-4.6-8.9s.7 7.7 0 8.9-1 3.1 0 11.3c1 8.1-1 10.8-2.4 2.4s-.5-6-2.6-9.6-2.2-5-1.9-6c.2-1 1.7-2.9 1.2-4.6-.5-1.7-2.6-7.2-2.6-7.2s-1.7-1.9-1.7 0 .5 5.5 0 6.7-1.2 3.8-1.7 2.4-1.9-4.1-2.4-5.7c-.5-1.7 0-4.2 0-4.2l2.2-8.7.5.1c-.1-1.3-1.5-4.6-2.2-7.1l-3.5 9.3-5.7 8-12.5 3.8s-21.1 5.7-29.1 11.5-15 16-15 16-.5-.1-1.4-.2c1.7 2.5 3.5 5 5.4 7.4.7-.4 1.2-.9 1.7-1.4zm87.1 4.5c0 .1.1.3.1.6.4.2.9.3 1.4.5l-.9-1c-.2.9-.5.3-.6-.1zm10.4-11.9c-.5-4.1-1.4-7.4-1.9-8.9-.5-1.4-3.6-7.7-3.6-7.7s-2.9-1.4-2.9 3.4v6.5l-1.4 3.8 2.9 6.5s1 2.9 1 3.8c0 .6.2 4.1.3 6.7 4.3 1.4 6 1.7 6.7 1.6l-1-2.3c-.1 0 .4-9.3-.1-13.4zm-61.1 41.2c8.1 4.5 16.7 8.2 25.8 11-4.6-2.5-12.3-5.9-23.1-9.9-1-.5-1.9-.8-2.7-1.1z"/><path fill="#533C0A" d="M86.8 194.9c-1.3-2.6-1-6.9-2-6.3-1 .6-1.2 2.8-1.7 3.5s-2.2 3.1-2.2 3.1-1.9 2.9-1.7 3.6c.1.2.2.6.3 1 2.3.4 5 1.1 7.7 2 .2-2.9.1-5.8-.4-6.9z"/><path fill="#3D2A00" d="M112.1 217.6c0 .3.1.7.1 1 .1 0 2.8.9-.1-1zm-7.4-50.9c-2.2-1.2-7.4-4.6-7.4-4.6s-5.7-1.7-5.7-3.4v-.1l-.5-.1-2.2 8.7s-.5 2.5 0 4.2 1.9 4.3 2.4 5.7 1.2-1.2 1.7-2.4 0-4.8 0-6.7 1.7 0 1.7 0 2.2 5.5 2.6 7.2c.5 1.7-1 3.6-1.2 4.6s-.2 2.4 1.9 6 1.2 1.2 2.6 9.6c1.4 8.4 3.4 5.7 2.4-2.4s-.7-10.1 0-11.3 0-8.9 0-8.9 2.9 2.2 4.6 8.9c1.5 6.1.9 4.5 3.6 27.5 1.3.4 2.9 1 5.1 1.7-.1-.3-.1-.5-.1-.6.1.4.4 1 .6.1l.9 1c1 .3 2 .7 3.2 1.1-.1-2.5-.3-6.1-.3-6.7 0-1-1-3.8-1-3.8l-2.9-6.5 1.4-3.8v-6.5c0-4.8 2.9-3.4 2.9-3.4s3.1 6.2 3.6 7.7c.5 1.4 1.4 4.8 1.9 8.9.5 4.1 0 13.4 0 13.4l1 2.3c.5 0 .5-.2.5-.2v-37.3s-11.6-1-14.4-3.1c-2.9-2-6.8-5.6-8.9-6.8zm-61.4 45.7c.8.4 1.5.8 2.2 1.1 1.9-.6 3.4-.6 4.8-.6.2 0 .4 0 .6-.1l-4.4-2.2c-1 .5-1.7.9-1.7.9s-.6.3-1.5.9zm-5.7 3.8c-.6.5-1.1.8-1.3 1.1l.3.3c.4-.1 1-.3 1.7-.6-.2-.3-.4-.5-.7-.8zm51.7-21s-1.7-3.8-1.9-8.9c-.2-5 1.4-4.6 0-8.1-1.4-3.6 0-5 0-7.2v-6.7c-.5 4.8-4.3 8.4-5.5 10.3-1.2 1.9-10.1 10.5-10.1 10.5l-5 3.8-1.9 1s-1.2 1-2.4 2.4c-.8.9-1.8 1.3-2.9 1.5 1.6-.2 3.3.1 4.9.6.1-.1.3-.1.4-.2 5.4-2.9 2.6-1.7 5.4-4.8 2.9-3.1 14.6-15.3 14.6-15.3s.2 2.6.5 4.1c.2 1.4.2 2.9.2 4.1 0 1.2-.7 1.4-1.7 2.6-1 1.2-1.9 3.1-3.1 6.1s-3.8 5.6-5 6.8c-.4.4-.6.9-.7 1.4 1.2.1 2.7.3 4.4.6-.1-.4-.3-.8-.3-1-.2-.7 1.7-3.6 1.7-3.6s1.7-2.4 2.2-3.1.7-2.9 1.7-3.5.7 3.7 2 6.3c.5 1.1.6 4 .5 6.9 1.7.6 3.3 1.3 5 2.1l-1.3-7.3-1.7-1.4zm-40.9 3.3c3.8-2.9 5-1.9 5-1.9s-1.9.9-2.6 1.6c-.7.7.2 2.4 1.9 1.4.3-.2.8-.4 1.3-.6l3.9-4.9c-1.7.5 0 0-1.4 0s-1-1 0-1.9.2-1.2 1.2-2.4 2.2-1.7 3.4-3.8c1.2-2.2 3.4-3.1 4.8-5.3s7.2-6.5 7.2-6.5-5.5 2.2-8.4 3.6c-2.9 1.4-1.4 1.2-3.1 2.9s-2.6 3.1-5 4.8-5 1.9-5 1.9-1.4.7-5.5 3.5-2.2 1.8-4.3 2.5c-2.2.7-1.7 1-1.7 2.2s1 1 1 1-2.4 2.1-5 3.8-2.6 1.2-6.9 5.5l-1.4 1.4c.5.7 1.1 1.4 1.6 2 2.6-1.4 5.4-2.7 6.9-3.4 2.3-1.1 8.2-4.5 12.1-7.4z"/><path fill="#6E511C" d="M217.5 184.2c-8-5.7-29.1-11.5-29.1-11.5l-12.5-3.8-5.7-8 2.2-8-1.1-.7c-.2 1.2-.3 2-.5 2.2-.6 1.3-4.8 5.1-4.8 5.1 0 1-.1 1.9-.3 2.7l1.2 5s.5 2.5 0 4.2-1.9 4.3-2.4 5.7-1.2-1.2-1.7-2.4 0-4.8 0-6.7c0-.2 0-.4-.1-.6-.5.4-1.1.6-1.7.8-.4 1.1-2.1 5.5-2.5 6.9-.5 1.7 1 3.6 1.2 4.6s.2 2.4-1.9 6c-2.2 3.6-1.2 1.2-2.6 9.6-1.4 8.4-3.4 5.7-2.4-2.4s.7-10.1 0-11.3 0-8.9 0-8.9-2.9 2.2-4.6 8.9-.7 4-4.6 35.6c-.2 1.5-.4 2.9-.5 4.2 1.6 1.7 3 3.7 3.1 4.4.2 1.2 6.9 8.7 6.9 8.7l-1.9 4.7-3.1-2.6 2.4 4.6s-.7 1.7-1.7 1.9-2.6 0-2.6 0l-3.6-2.2c.2 1.9.5.2 2.2 2.3 1.3 1.6 1.5 7 4.6 10.7l6.3-1.2c-.8-1.4-3-3.5-3-5.1 0-1.7-1.4-1.4.2-3.1s1.7-1.7 1.7-1.7-.2-2.2 1.9-2.2c2.2 0 7.1 1 7.1 1s6.1-.5 9.2-.2c1.7.1 5.9 1.2 9.5 2.2 1.3-.6 2.6-1.3 3.9-1.9-4.9-1.7-2.8-1.2-7.9-2.4-5.7-1.4-8.6-1.2-11-1.5s-4.3.9-6.9 0c-2.6-.9-3.8.3-4.8-1.1-1-1.4.5-3.1-1.4-3.1s-2.2-1.2-1.7-1.9 2.4-3.1 2.4-3.1.5-3.1 1.2-4.8 2.2-6.2 2.2-6.2 4.3 2.4 5 2.2 6.2 0 7.7.5c1.4.5-4.1-2.6-5.7-2.6h-3.8s-1.9-1-1-1.7c1-.7 3.6.2 4.3-1.9.5-1.5 1-2.3 1.6-3l-4.4 1.8 2.9-16.2 1.7-1.5s1.7-3.8 1.9-8.9c.2-5-1.4-4.6 0-8.1 1.4-3.6 0-5 0-7.2v-6.7c.5 4.8 4.3 8.4 5.5 10.3 1.2 1.9 10.1 10.5 10.1 10.5l5 3.8 1.9 1s1.2 1 2.4 2.4 2.9 1.4 4.6 1.9c1.7.5 0 0 1.4 0s1-1 0-1.9c-1-1-.2-1.2-1.2-2.4s-2.2-1.7-3.4-3.8c-1.2-2.2-3.4-3.1-4.8-5.3-1.4-2.2-7.2-6.5-7.2-6.5s5.5 2.2 8.4 3.6c2.9 1.4 1.4 1.2 3.1 2.9s2.6 3.1 5 4.8 5 1.9 5 1.9 1.4.7 5.5 3.5 2.2 1.8 4.3 2.5c2.2.7 1.7 1 1.7 2.2s-1 1-1 1 2.4 2.1 5 3.8 2.6 1.2 6.9 5.5l1.4 1.4c1.9-2.4 3.7-4.9 5.4-7.4-.9.1-1.4.2-1.4.2s-6.6-10.3-14.6-16z"/><path fill="#6E511C" d="M207.6 198.5c-3.8-2.9-5-1.9-5-1.9s1.9.9 2.6 1.6c.7.7-.2 2.4-1.9 1.4s-6.9-2.6-12.3-5.5-2.6-1.7-5.4-4.8C182.7 186.2 171 174 171 174s-.2 2.6-.5 4.1c-.2 1.4-.2 2.9-.2 4.1 0 1.2.7 1.4 1.7 2.6 1 1.2 1.9 3.1 3.1 6.1 1.2 3 3.8 5.6 5 6.8s.5 2.6 2.2 4.8 6.7-.7 8.8-1.2 3.7 1 3.7 1 1.4 1.7 2.4 2.1c1 .4 14.2 7 14.2 7s.7.5 1.7 1.1c6 1.3 6.1-.4 8.5 2.9 1.8-2 3.6-4 5.3-6-2.6-1.4-5.4-2.7-6.9-3.4-2.6-1.2-8.5-4.6-12.4-7.5zm-67.7 11.9c-.1.4-.4 1-.6.1l-4.3 4.8s.5-8.4.5-9.3 1-3.8 1-3.8l2.9-6.5-1.4-3.8v-6.5c0-4.8-3-3.4-3-3.4s-3.1 6.2-3.6 7.7c-.5 1.4-1.4 4.8-1.9 8.9-.5 4.1 0 13.4 0 13.4l-1.1 2.3c1.6.7 7 2.9 10 4.1.3-1.4.5-3 .9-4.8.4-1.9.5-2.8.6-3.2zm35.9-2.1c-.5-1.6 0-4.6 0-5.5 0-1.2.7-3.4 1-4.1s-1.7-3.6-1.7-3.6-1.7-2.4-2.2-3.1c-.5-.7-.7-2.9-1.7-3.5s-.7 3.7-2 6.3c-1.1 2.2-.3 11.5-.1 14.3.7-.3 1.3-.4 1.3-.4s2.6 0 5.4-.4z"/><path fill="#533C0A" d="M163 174.8c.5 1.2 1.2 3.8 1.7 2.4s1.9-4.1 2.4-5.7c.5-1.7 0-4.2 0-4.2l-1.2-5c-.5 2.7-1.5 4.3-2.9 5.3 0 .1.1.3.1.6-.1 1.8-.5 5.4-.1 6.6zm-34.5 39.5l1.1-2.3s-.5-9.3 0-13.4 1.4-7.4 1.9-8.9c.5-1.4 3.6-7.7 3.6-7.7s2.9-1.4 2.9 3.4v6.5l1.4 3.8-2.9 6.5s-1 2.9-1 3.8-.5 9.3-.5 9.3l4.3-4.8c.2 1 .5.3.6-.1-.1.4-.3 1.3-.6 3.1-.3 1.9-.6 3.5-.9 4.8.5.2 1 .4 1.3.5 1.1.4 2.4 1.5 3.6 2.7.2-1.3.3-2.7.5-4.2 3.8-31.6 2.9-28.9 4.6-35.6s4.6-8.9 4.6-8.9-.7 7.7 0 8.9 1 3.1 0 11.3 1 10.8 2.4 2.4.5-6 2.6-9.6c2.2-3.6 2.2-5 1.9-6-.2-1-1.7-2.9-1.2-4.6.4-1.5 2.1-5.8 2.5-6.9-1.1.3-2.2.4-3.4.4-4.2 0-8 3.2-13.7 5.7s-16.1 2.2-16.1 2.2v37.3c0 .2.2.3.5.4z"/><path fill="#886427" d="M166.5 13c-.1-.8-.2-1.7-.4-2.6l.5 3.2c-.1-.2-.1-.4-.1-.6zm7.9 6c-.7 2.7-.2 1.6-1 4.5s2.2 3.1 3.1 2.6c1-.5 2.4-.5 2.4-.5l-1.2 3.8c-1.2 3.8-2.2 5.7-3.1 7.9-1 2.2.2 4.3 0 5.5s-4 6.5-4 6.5 1.3-5 2.3-6.5c1-1.4 0-6.7 0-6.7l-3.6 6.7s1.2-4.1 1.4-4.7c.2-.6-.2-5.2-1.2-5.9s.5-3.1 0-6c-.3-1.8-1-4.2-1.4-5.7-.1-.3-.3-.8-.4-1.4-.3-1-.6-2.4-.9-3.7 0 .1-1.6 2.6-2 3.5-.5.9-1.4 4-1.4 4-1.2 2.6-3.3 5.2-3.1 6.3.2 1 0 4 0 4v2.5s-1 4.4-1.2 5.2c-.2.7-2.2 3.7-3.7 5.9s-2.5 4.4-2.5 4.4l-.7-3.7s2.7-2.5 3.2-4.7.7-2 0-2.7-1-2.4-1-2.4-2.2 1.4-2 0 .2-1.8.2-1.8l-1.8-.4c-.7 1.6-3.1 6.8-3.1 6.8l-5.3 12-2.4 12.3s-2.6 12.9-2.6 14.8v5.3s6.7-3.1 7.2-2.9 3.6 0 3.6 0l.2-2.2s-2.9 0-.7-2.9 2.6-3.9 3.1-4.8 1.2-2.4 1.2-3.6.7-2.6.7-2.6l2.9-2.9c3.4-3.4 8.7-8.6 8.8-9.1.1-.4-1-.2-2 .1-.7.7-1.3.4-1.3.4s.6-.2 1.3-.4c.6-.6 1.4-1.9 2-4.6 1.4-6 1.9-7.5 1.9-7.5L164.9 54l3.8.7s-3.6 2.6-4.8 4.1c-1.2 1.4-9.6 8.1-9.6 9.3 0 1.2-.5 5.6-2.6 6.7s-1.2 5.3-1.2 5.3l.5 3.1 2.6 1.4 3.1-3.4.5-5.3 7.7-6.9-5.7 7.7-.2 6.7s.7 1.9 1.4 1.7 3.4-1.7 3.4-1.7l2.4 1.2s.5 8.1 2.6 9.8l-3.6 2.9s1.2 6.7 1.2 8.9-7.9 7.4-7.9 7.4l4.6-6.5v-5.5l-3.1 3.6s-6.9 2.4-8.9 2.2c-1.9-.2-9.8-4.3-9.8-4.3l.2-9.8 1.7-6.2s-2.4-.5-3.1 0c-.7.5-2.6 2.4-4.8 1.9s-4.8-2.2-4.8-2.2l-2.4.7v3.8l1.8-2.6-.9 3.1s4.3-.5 5.3 0c1.1.5 1.8 0 1.8 0v-2l.7 2.2h4.3l-3.6 1.2-1 12.7s0-11.5-.2-12.8-1.7-.5-1.7-.5l-1-.2-.8.7-.6 3-.6.5s.7-2.2.1-3l-.6-.8-3 .4v83.5s10.4.4 16.1-2.2 9.6-5.7 13.7-5.7c1.2 0 2.3-.1 3.4-.4.6-.2 1.2-.5 1.7-.8 1.4-1 2.4-2.6 2.9-5.3.1-.8.2-1.7.3-2.7 0 0 4.2-3.8 4.8-5.1.1-.3.3-1.1.5-2.2.6-4.1 1.2-12.6 1.5-19.8.3-9.3 1.6-16.3 3.2-18.5 1.6-2.2 2.9-10.5 2.9-15.3V86.2s5.7-1.6 7-3.2 2.6-3.5 1.6-7.3 3.5-12.5.3-13.1c-1.6-.3-2.6-.3-3.2-.2 1.6-.6 5.7-2.3 5.7-4.9 0-3.2-3.2-4.8-2.9-6.7s2.9-8.6-1.9-9.3c0 0 5.4-10.2 4.8-12.1-.6-1.9-2.2-3.8-2.2-3.8l2.3-8.9-5.8-1.4-.6-2.2c-1.4-.7-2.8-1.3-4.2-1.9l-2 1.7c0-.2-2.9 3.4-3.6 6.1zm-21.7 90.9c4.6-.5 6.5-.9 6.5-.9s-3.8 3-5.4 2.8-4.2-1.1-4.2-1.1l-1.3 1.1s3.2 4.5 4.2 4.6 4.8.6 6.7 0c0 0-6.7 3.5-8.9 3s-3.2-2.1-2.7-1.9 2.4.6 2.9.5c.5-.2.6-1.3 0-1.6-.6-.3-5.7-2.7-5.7-2.7h4.3l-2.7-3.4s-1.8-.8-2.1-2.4c-.1.1 3.8 2.5 8.4 2zm26.2-27.4c1-.8 1.1-8.5 1.1-8.5l1.8-1.6c1.2 2.3-.5 8.5-1.4 10.4-1 1.9-6.9 5.1-7 6.1-.2 1 .5 5.9.5 5.9s-1.9-6.1-2.2-7.7 1-11.3 1.1-13.1c.2-1.8 4.9-4.8 4.9-4.8s-1.1 1.8-2.6 3.2-1.8 6.4-1.8 6.4.5-1.6 3-3.7c2.6-2.1 8-10.4 8-10.4.3 2.4-1.8 5.4-3.4 6.7-1.6 1.3-4.2 5.1-4.2 5.1s1.3 6.8 2.2 6z"/><path fill="#886427" d="M129.9 85.2h2.9l2.4 1.4s-.7-6 1.2-11.5 5-23 6.2-28.5c.8-3.6 1-6.2 1.3-8.9-.6 2.2-2.9-4.6-2.9-4.6s4.8-3.8 2.2-2.2-5.4 3.2-5.4 3.2c-1.6-.3-5.4-.6-1.6-6.4s2.9-4.8 3.5-9.3 1.9-14 2.6-16.9c0-.2.1-.5.2-.7-4.8-.5-9.6-.8-14.5-.8v77.8l1.9 7.4z"/><path fill="#5B4210" d="M162.4 55.9c-.7.2-1.3.4-1.3.4s.5.3 1.3-.4z"/><path fill="#5B4210" d="M149.4 18.8c1 2.2 1 6.7 1 6.7l-1.6 6.7s-4.2 3.3-4.9 5.6c-.2 2.7-.5 5.4-1.3 8.9-1.2 5.5-4.3 23-6.2 28.5s-1.2 11.5-1.2 11.5l-2.4-1.4h-2.9l-1.9-7.4v9.8l2.4-.7s2.6 1.7 4.8 2.2 4.1-1.4 4.8-1.9 3.1 0 3.1 0l-1.7 6.2-.2 9.8s7.9 4.1 9.8 4.3c1.9.2 8.9-2.2 8.9-2.2l3.1-3.6v5.5l-4.6 6.5s7.9-5.3 7.9-7.4-1.2-8.9-1.2-8.9l3.6-2.9c-2.2-1.7-2.6-9.8-2.6-9.8l-2.4-1.2s-2.6 1.4-3.4 1.7-1.4-1.7-1.4-1.7l.2-6.7 5.7-7.7-7.7 6.9-.5 5.3-3.1 3.4-2.6-1.4-.5-3.1s-.9-4.2 1.2-5.3c2.1-1.1 2.6-5.5 2.6-6.7s8.4-7.9 9.6-9.3c1.2-1.4 4.8-4.1 4.8-4.1l-3.8-.7 1.4-10.3s-.5 1.4-1.9 7.5c-.7 2.8-1.4 4-2 4.6 1-.3 2.2-.5 2-.1-.2.5-5.4 5.7-8.8 9.1-1.7 1.6-2.9 2.9-2.9 2.9s-.7 1.4-.7 2.6-.7 2.6-1.2 3.6-1 1.9-3.1 4.8c-2.2 2.9.7 2.9.7 2.9l-.2 2.2s-3.1.2-3.6 0-7.2 2.9-7.2 2.9v-5.3c0-1.9 2.6-14.8 2.6-14.8l2.4-12.2 5.3-12s2.4-5.3 3.1-6.8l-.4-4 1.5-3.7V12.8l4.7-4.1V3.6l.2-.4c-1-.2-2.1-.5-3.1-.7-.1 1.6-.2 3-.5 3.7-.9 2.3-4.7 10.3-3.7 12.6z"/><path fill="#65662B" d="M139.7 18.4c-.6 4.5.3 3.5-3.5 9.3s0 6.1 1.6 6.4c0 0 2.9-1.6 5.4-3.2 2.6-1.6-2.2 2.2-2.2 2.2s2.3 6.9 2.9 4.6c.6-2.2 4.9-5.6 4.9-5.6l1.6-6.7s0-4.5-1-6.7 2.8-10.3 3.7-12.5c.3-.7.4-2 .5-3.7-3.7-.7-7.4-1.3-11.2-1.7-.1.2-.1.5-.2.7-.6 2.9-1.9 12.5-2.5 16.9z"/><path fill="#5B4210" d="M131 92.9l.6.8c.6.8-.1 3-.1 3l.6-.5.6-3 .8-.7 1 .2s1.5-.8 1.7.5.2 12.8.2 12.8l1-12.7 3.6-1.2h-4.3l-.7-2.2v2s-.7.5-1.8 0-5.3 0-5.3 0l.9-3.1-1.8 2.6v1.8l3-.3zm15.3 17.5l2.7 3.4h-4.3s5.1 2.4 5.7 2.7c.6.3.5 1.4 0 1.6s-2.4-.3-2.9-.5.5 1.4 2.7 1.9 8.9-3 8.9-3c-1.9.6-5.7.2-6.7 0s-4.2-4.6-4.2-4.6l1.3-1.1s2.6 1 4.2 1.1 5.4-2.8 5.4-2.8-1.9.4-6.5.9-8.5-1.9-8.5-1.9c.5 1.5 2.2 2.3 2.2 2.3zm34.7-39c1.6-1.3 3.7-4.3 3.4-6.7 0 0-5.4 8.3-8 10.4s-3 3.7-3 3.7.3-4.9 1.8-6.4 2.6-3.2 2.6-3.2-4.8 3-4.9 4.8c-.2 1.8-1.4 11.5-1.1 13.1.3 1.6 2.2 7.7 2.2 7.7s-.6-4.9-.5-5.9c.2-1 6.1-4.2 7-6.1 1-1.9 2.6-8.1 1.4-10.4L180 74s-.2 7.7-1.1 8.5-2.1-5.9-2.1-5.9 2.6-3.9 4.2-5.2zm-13.3-52.1s.2.6.4 1.4c.4 1.5 1.1 3.8 1.4 5.7.5 2.9-1 5.3 0 6s1.4 5.3 1.2 5.9c-.2.6-1.4 4.7-1.4 4.7l3.6-6.7s1 5.3 0 6.7-2.3 6.5-2.3 6.5 3.7-5.3 4-6.5c.2-1.2-1-3.4 0-5.5 1-2.2 1.9-4.1 3.1-7.9l1.2-3.8s-1.4 0-2.4.5-3.8.2-3.1-2.6.2-1.7 1-4.5 3.6-6.3 3.6-6.3l.3-1.6.1-.7c-1.5-.6-2.9-1.2-4.4-1.8l-6.3 10.5zm-2.9-.3c.5-.9 2-3.4 2-3.5l-.3-1.9-.5-3.2s-1.9 3.6-2.4 4.3-1.2 1.7-1.2 2.5v3.7c0 1.2-1 2.5-2.1 4.9-1.1 2.5-.4 2.5-.1 3.5-.1-1.1 2-3.7 3.1-6.3.1 0 1-3.1 1.5-4z"/><path fill="#65662B" d="M156.5 8.4l-4.7 4.1v15.3l-1.5 3.7.4 4 1.8.4s0 .4-.2 1.8 2 0 2 0 .2 1.7 1 2.4c.7.7.5.5 0 2.7s-3.2 4.7-3.2 4.7l.7 3.7s1-2.2 2.5-4.4 3.5-5.2 3.7-5.9 1.2-5.2 1.2-5.2v-2.5s.2-3 0-4-1-1 .1-3.5 2.1-3.7 2.1-4.9v-3.7c0-.7.7-1.7 1.2-2.5s2.4-4.3 2.4-4.3c0-.1-.2-2.3-.3-4.8-3-.9-6-1.7-9.1-2.4-.1.3-.2.4-.2.4v4.9h.1z"/><path fill="#6E511C" d="M120.5 88.8l-.7-1.4-1.9 1.4-.3 1.7-2.6 2.7.2 1.5 5.5-2.7 3.6-.5h3.7v-3.9l-5.8 1.2zm-1.4-61.2c0 .1-.1.3-.1.4l.1-.4z"/><path fill="#6E511C" d="M79.1 46.3L82.7 57l4.1 8.9V68l3.4 3.8 1.2 3.8-1.2 5.3 2.4 5.7h2.2l3.6.5 1.9-1.9 2.4-.7-2.4-4.8 4.6 5 2.9 2.2L110 90l2.6 2.2 2.9-1.2-2.4-3.4-8.4-13.6v-3.6l2.4 1V74s2.9 6 3.8 8.2c1 2.2 4.8 6.7 4.8 6.7l1.8-1.9v-1.4l7.7 1.4 1.5-1.4 1.2-1.9-5.1-24.4-.5-7.9v-12l-3.1-4.6-1.8.7-2.3-.7-.2 1.4s1.2 6.7 1.2 7.4v2.7s0 1.1-.2 3-1.7 5.3-1.7 5.3l1.4 4.3 1.8 3.6 5.1 23-1.2-3.5-6-17.3-3.6-2-.7-3.6 1-4.1-2.9-2.4h3.4l1.2-10.1L112 36l1.2-3.6s-2.6-2.2-3.6-3.8-1.7-1.6-1.7-1.6l.2-2.3-1.2-4.3-2.2 5-5.4.3-1.1-3.5V19l-.8-4.4-1-.3s1.1 5.6-.2 9.6 1.1 14.7 1.1 15.4-5.6 4.2-5.6 4.2h-2.4l-3-22 1.1 16.7-4-1.7-.3-4-1.4-2.1s.4 2.9.5 4.6c0 .6 0 1-.1 1.2-.3.6-.3 2.7-.6 4-.3 1.3-2-.9-2-.9l-2-2.9.2 5.7 1.4 4.2zm39.5-17.4c-.3.6-.6 1.2-.9 1.9l.2-.1.7-1.8zm-14.1-11.2c3 3.9 1.9-7.3 1.9-7.3v3.9c0 .1.2 4.9-1.9 3.4z"/><path fill="#6E511C" d="M111.4 24.8l4 6.9c-1-1.8-2.5-5-2.8-6.9-.5-2.9-3.1-12.9-3.1-12.9l-1.6-.8v5.7l-.8 3.8 2.4 1.7 1.9 2.5zm8.4-14.4c.4 1.2.4 3.6.3 5.6l2.3 3-1.2 4.2v4l1.4 7.3 1.9 3.7s.3 13.5 0 15.2c-.2 1.7 3.4 24.4 3.4 24.4V0c-3.5 0-6.9.1-10.3.4.2.7.4 1.3.4 1.7.3 1.2 1.1 6.3 1.8 8.3zm-45 8.6l-1.4 3.7 5.2 9.4 1.9-2.7s2.2-5.4 2.2-6.7c0-1.3-.7-4.8-.7-4.8l1-3.5s2.9 4.8 3 5.4c.2.6-.8-8.8-.8-8.8l-.6-3.6c-3.7 1.3-7.3 2.8-10.9 4.5l.5 1.8.6 5.3zm16.7 139.8c0 1.7 5.7 3.4 5.7 3.4s5.3 3.4 7.4 4.6c2.2 1.2 6 4.8 8.9 6.9 2.9 2.2 14.4 3.1 14.4 3.1V93.3l-2.7.3-.2 3.9-2.4-2.7h-2.4l-4.3 1.3-.5 7.2-1.2 4.8s-1.9 3.6-6 4.1-14.8-4.1-14.8-4.1 7.2 1.2 11 1.7 8.4-1.7 8.4-1.7l.7-3.6s-5.5 2.2-9.8 1.7-8.6-2.9-8.6-2.9h-3.8l-1-2.6-.7-5.8-1.4-1.4-1-5.7 2.4 3.8 1.4.2 1.2-2.9-3.1-6 .2-4.7-1.1-4.2-1.9-3.1v7.2l.5 1.6-1.9 7.2-.5 6.5-.7-6.7 1.7-6.9-.2-7.2-1.2-6.7-3.1-3.6.7-4.1-3.1-5.7-1.5-6.8-1.8-1.9L73 55.9v-9.5l1.2-7.8 2-1.3-3-7c-1.9-1.4-9.6-3-9.6-3l-2 1.7 2.6 5.7-4.1 4.6s6.5 21.3 6.9 23.5 1.4 6.2 1.7 8.4c.2 2.2 6.2 8.6 6.2 8.6s-.2 2.9 0 3.8c.2 1 2.4 4.3 2.4 4.3v2.6l2.2 1.9c-1.7 12.9 5.3 22.3 6 27.1s2.9 6.2 2.9 8.5-.5 3.9-1.2 5.4 1.7 13.4 1.7 15.8c0 .6.2 1.4.4 2.3.7 2.6 2.1 5.8 2.2 7.1v.2z"/><path fill="#533C0A" d="M108 27.2s.7-.1 1.7 1.6 3.6 3.8 3.6 3.8l-1.2 3.6 1.7 6.5-1.2 10.1h-3.4l2.9 2.4-1 4.1.7 3.6 3.6 2 6 17.3 1.2 3.5-5.1-23-1.8-3.6-1.4-4.3s1.4-3.4 1.7-5.3c.2-1.9.2-3 .2-3v-2.7c0-.7-1.2-7.4-1.2-7.4l.2-1.4 2.3.7 1.8-.7 3.1 4.6v12l.5 7.9 5.1 24.4v-5.7s-3.7-22.8-3.4-24.4c.2-1.7 0-15.2 0-15.2l-1.9-3.7-1.4-7.3v-4l1.2-4.2-2.3-3-2.2 9.8 1.2 1.7v.1h-.2l-.4.9-.7 1.8-.2.1-2.3 1-4-6.9-1.9-2.6-2.4-1.7 1.2 4.3-.3 2.3z"/><path fill="#533C0A" d="M74 38.5l-1.2 7.8v9.5L75 43.7l1.8 1.9 1.5 6.8 3.1 5.7-.7 4.1 3.1 3.6 1.2 6.7.2 7.2-1.7 6.9.7 6.7.5-6.5 1.9-7.2-.5-1.6v-7.2l1.9 3.1 1.2 4.2-.2 4.7 3.1 6-1.1 2.9-1.4-.2-2.4-3.8 1 5.7 1.4 1.4.7 5.8 1 2.6h3.8s4.3 2.4 8.6 2.9 9.8-1.7 9.8-1.7l-.7 3.6s-4.6 2.2-8.4 1.7-11-1.7-11-1.7 10.8 4.6 14.8 4.1c4.1-.5 6-4.1 6-4.1l1.2-4.8.5-7.2 4.3-1.3h2.4l2.4 2.7.2-3.9 2.7-.3v-1.8h-3.7l-3.6.5-5.5 2.8-.2-1.6 2.6-2.6.2-1.7 1.9-1.4.7 1.4h1.7l5.8-1.2v-4.1l-1.2 1.9-1.5 1.4-7.7-1.4v1.4l-1.8 1.9s-3.8-4.6-4.8-6.7c-1-2.2-3.8-8.2-3.8-8.2v-2.6l-2.4-1V74l8.1 13.7 2.4 3.4-2.9 1.2-2.6-2.2-2.2-3.1-2.9-2.2-4.6-5 2.4 4.8-2.4.7-1.9 1.9-3.6-.5h-2.2L89.8 81l1.2-5.3-1.2-3.8-3.1-3.9v-2.2l-4-8.8-3.6-10.7-1.2-4.2-.2-5.7-4.6-6.2 3 7-2.1 1.3z"/><path fill="#545722" d="M86 19.9c-.2-.6-3-5.4-3-5.4L82 18s.7 3.5.7 4.8-2.2 6.7-2.2 6.7l-1.9 2.7-5.2-9.4 4.3 13.7 2 2.9s1.7 2.2 2 .9.3-3.4.6-4c.1-.2.1-.6.1-1.2-.1-1.7-.5-4.6-.5-4.6l1.4 2.1.3 4 4 1.7-1.1-16.7 3 22h2.4s5.6-3.5 5.6-4.2S95.1 28 96.4 24s.2-9.6.2-9.6l1 .3.8 4.4v3.4l1.1 3.5 5.4-.3 2.2-5 .8-3.8v-5.7l-1.5-.7s1 11.2-1.9 7.3c-2-2.6-5.3-9.6-7.2-14-4.3 1.1-8.5 2.3-12.6 3.8l.6 3.6c-.1-.1.9 9.3.7 8.7z"/><path fill="#533C0A" d="M220.1 200.4c-2.6-1.7-5-3.8-5-3.8s1 .2 1-1 .5-1.4-1.7-2.2c-2.2-.7-.2.2-4.3-2.5-4.1-2.8-5.5-3.5-5.5-3.5s-2.6-.2-5-1.9-3.4-3.1-5-4.8-.2-1.4-3.1-2.9c-2.9-1.4-8.4-3.6-8.4-3.6s5.7 4.3 7.2 6.5c1.4 2.2 3.6 3.1 4.8 5.3s2.4 2.6 3.4 3.8.2 1.4 1.2 2.4 1.4 1.9 0 1.9.2.5-1.4 0c-1.7-.5-3.4-.5-4.6-1.9-1.2-1.4-2.4-2.4-2.4-2.4l-1.9-1-5-3.8s-8.9-8.6-10.1-10.5c-1.2-1.9-5-5.5-5.5-10.3v6.7c0 2.2 1.4 3.6 0 7.2s.2 3.1 0 8.1-1.9 8.9-1.9 8.9l-1.7 1.5-2.9 16.2 4.4-1.8c.2-.3.5-.6.8-.8.5-.5 1.2-.8 1.8-1-.3-2.8-1-12.1.1-14.3 1.3-2.6 1-6.9 2-6.3 1 .6 1.2 2.8 1.7 3.5s2.2 3.1 2.2 3.1 1.9 2.9 1.7 3.6-1 2.9-1 4.1c0 .9-.5 3.9 0 5.5 2.4-.3 5.1-.8 6.4-1.4 2.9-1.4 2.9-2.6 4.1-2.5 1.2.1 5.3-1 7.2 0s5.5 2.5 7.4 3.7-5.5-1.2 6.5 2.9c2.3.8 4.1 1.3 5.6 1.6-1-.7-1.7-1.1-1.7-1.1s-13.2-6.6-14.2-7-2.4-2.1-2.4-2.1-1.6-1.4-3.7-1c-2.1.5-7.1 3.4-8.8 1.2s-1-3.6-2.2-4.8-3.8-3.8-5-6.8-2.2-4.9-3.1-6.1c-1-1.2-1.7-1.4-1.7-2.6 0-1.2 0-2.6.2-4.1.2-1.4.5-4.1.5-4.1s11.7 12.2 14.6 15.3c2.9 3.1.1 1.9 5.4 4.8 5.4 2.9 10.6 4.6 12.3 5.5s2.6-.7 1.9-1.4c-.7-.7-2.6-1.6-2.6-1.6s1.2-1 5 1.9 9.7 6.2 12.3 7.4c1.5.7 4.3 2.1 6.9 3.4.6-.7 1.1-1.3 1.6-2l-1.4-1.4c-4.4-4.5-4.4-4-7-5.7z"/><path fill="#886427" d="M163.9 241.9s-4.9-1-7.1-1c-2.2 0-1.9 2.2-1.9 2.2l-1.7 1.7c-1.7 1.7-.2 1.4-.2 3.1 0 1.6 2.2 3.6 3 5.1 9.3-2.1 18.2-5.1 26.6-9.1-3.6-1-7.8-2.1-9.5-2.2-3.1-.3-9.2.2-9.2.2zm-21-.7l3.6 2.2s1.7.2 2.6 0c1-.2 1.7-1.9 1.7-1.9l-2.4-4.6 3.1 2.6 1.9-4.7s-6.7-7.5-6.9-8.7c-.1-.7-1.5-2.7-3.1-4.4-1.2-1.2-2.5-2.3-3.6-2.7-.3-.1-.8-.3-1.3-.5-3-1.2-8.4-3.4-10-4.1-.3-.1-.5-.2-.5-.2V256c7.4 0 14.6-.6 21.7-1.8-3.1-3.7-3.3-9.2-4.6-10.7-1.7-2.1-1.9-.4-2.2-2.3zm70.1-28.6c-1.5-.3-3.3-.8-5.6-1.6-12-4.1-4.6-1.7-6.5-2.9s-5.5-2.6-7.4-3.7c-1.9-1-6 .1-7.2 0s-1.2 1-4.1 2.5c-1.3.7-4 1.1-6.4 1.4-2.8.3-5.3.5-5.3.5s-.6.1-1.3.4c-.6.2-1.3.6-1.8 1-.3.3-.5.6-.8.8-.6.7-1.1 1.5-1.6 3-.7 2.2-3.4 1.2-4.3 1.9-1 .7 1 1.7 1 1.7h3.8c1.7 0 7.2 3.1 5.7 2.6-1.4-.5-6.9-.7-7.7-.5-.7.2-5-2.2-5-2.2s-1.4 4.6-2.2 6.2-1.2 4.8-1.2 4.8-1.9 2.4-2.4 3.1c-.5.7-.2 1.9 1.7 1.9s.5 1.7 1.4 3.1c1 1.4 2.2.2 4.8 1.1 2.6.9 4.6-.4 6.9 0s5.3.1 11 1.5c5 1.3 2.9.7 7.9 2.4 13.2-6.8 25-15.8 35-26.5-2.4-2.9-2.5-1.3-8.4-2.5z"/><path fill="#6E511C" d="M128 214.1s0 .1-.5.2c-.7 0-2.4-.2-6.7-1.6-1.2-.4-2.3-.7-3.2-1.1-.5-.2-1-.3-1.4-.5-2.2-.8-3.8-1.4-5.1-1.7-1.1-.3-2-.5-2.8-.5-2.5 0-2.2 1.7-2.2 1.7s-1.2 2.6 4.3 6c.7.4 1.3.8 1.7 1.1 2.9 2 .1 1 .1 1s-3.4.3-3.9-1.9-1.3-.8-4.1-2.9c-2.9-2.1-2.9-2.4-4.8-5s2.1-.1-7.1-4.8c-1.6-.9-3.3-1.6-5-2.1-2.8-1-5.4-1.6-7.7-2-1.7-.3-3.3-.5-4.4-.6-1.5-.1-2.3-.2-2.3-.2s-3.9-3.1-8.3-4.6c-1.6-.5-3.3-.8-4.9-.6-.6.1-1.1.2-1.7.4l-3.9 4.9-4 4.9s-2.6-1.3-4.8.4l-1.5 4.9 2.6 1.3 4.4 2.2 17.7 8.7s.3 1.7 4.3 1.9c4.1.2.3 1.7 0 1.4-.3-.2-1.2.5-4.8-1.4-3.6-1.9-.2-1.2-5.7-3.1-5.5-1.9-13.4-5-13.4-5s-1.5-.8-3.4-1.8c-.7-.4-1.4-.7-2.2-1.1-2.3-1.2-4.6-2.4-5.7-3.1-2.4-1.4-4.1 0-4.1 0v2.1s1.7 2 4.1 4.8c.2.2.4.5.6.7 3.1 3.5 6.9 8 9.5 10.7 5.5 4.4 11.4 8.4 17.6 11.9.8.3 1.7.7 2.7 1 10.8 4.1 18.5 7.5 23.1 9.9 11.7 3.5 24 5.4 36.9 5.4v-41.9z"/></svg>