<svg xmlns="http://www.w3.org/2000/svg" width="256" height="256"><circle fill="#B2B4B5" cx="128" cy="128" r="128"/><path fill="none" d="M150.8 177.9h.7c0-1.2-.1-3.1-.5-4.3-.3-1.1-1.6-3.2-2.4-4.5.3 4.7 1.5 7.5 2.2 8.8zm-14.6-98.1c0 2.1 1 2.4 2 1.9s1.2-1.6.9-2.9-.8-2.1-.9-3.4c0-.7-1.1-2-2.1-3-.2.1-.4.2-.7.3 0 .4.2 1.8.3 3.3.2 1.9.5 1.7.5 3.8z"/><path fill="#76756F" d="M74.9 194.6l7.3 52.8c14.3 5.6 29.9 8.6 46.3 8.6h.2v-47.4c.1 0-50.7-.3-53.8-14z"/><path fill="#98968E" d="M128.8 208.6v-2.7s-42.5-3.4-48.9-11.2c-.6-.5-.9-.9-.9-1.5 0-.2 0-.4.1-.5.1-.8.6-1.6 1.4-2.4-.1-.3-.1-.5.2-.6.1 0 .3-.1.4-.1 5-4.1 18.2-7.3 33.7-8.5.8-1.3.5-1.4.7-2.8-16 1.2-40.7 4.6-40.7 14.8 0 .5.1.9.2 1.3 3 13.9 53.8 14.2 53.8 14.2z"/><path fill="#85837D" d="M80.4 193.2c.2-.6 1-.1.7-1.3-.1-.7-.6-1.2-.7-1.6-.8.8-1.2 1.6-1.4 2.4 0 0 1.2 1.1 1.4.5z"/><path fill="#85837D" d="M79 193.2c0 .5.3 1 .9 1.5-.5-.6-.8-1.3-.8-2-.1.2-.1.3-.1.5zm20.6-2.6c.2-.2.3-.4.5-.7-.3.2-.5.4-.5.7zm-17.3-.6s.5-.5 1.1-1-.2.3.6-.5-.8-.4.8-.7c1.7-.4.4.8 2.4-.2l2-1.1 1.2-.1 2.4-.8s1-.7 1.4 0c.5.7-1.8 1.8.2 1.7s1.9 0 3.4-.2c1.4-.2.7-1 2.4-.1 1.7.8 2.3.8 2.3.8l.4-.8 3.6.1s-1.8.8-2.8 1.1c.1 0 .2-.1.3-.1 1.4-.6 2.9-1.1 3.2-1.6.4-.5 2.3-2.3 2.3-2.3s.6.1 2.9 0 .8-.6 2-2.5c.1-.2.2-.3.2-.4-15.5 1.2-28.7 4.4-33.7 8.5.9-.1 1.4.2 1.4.2zm46.5 18.6V256c21.5 0 41.8-5.4 59.6-14.8l6-47.1c-3.8 14.5-65.6 14.5-65.6 14.5z"/><path fill="#B4AFA6" d="M190.3 191.8c0 1.1-.4 2.1-1 2.9v.1s-.2.2-.6.5c-1.1 1-2.6 1.8-4.6 2.6-7.2 3.3-23.1 8-55.4 8v2.7s61.8 0 65.5-14.6c.1-.4.2-.9.2-1.4 0-11.1-30.2-14-41.6-14.7.1.9.1 1.7.2 2.5 11.6.9 37.3 3.7 37.3 11.4zm-38.8-12.9v-1h-.7c.4.7.7 1 .7 1z"/><path fill="#98968E" d="M168.6 186.3s4-.2 5.1 0 2.9.2 3.7 1.1 1.6 2.1 1.6 2.1 1.6 1 3.4 1c1.8 0 3 .5 3 .5l2.4.8 1.6 2.9c.7-.8 1-1.7 1-2.9 0-7.7-25.7-10.4-37.3-11.3.1 1.9.2 3.2.2 3.2s.3-.1.8-.2c-.1-.2-.2-.3-.2-.3s10.7 1.9 14.7 3.1zm15.6 11.6c1.9-.8 3.5-1.6 4.6-2.6-.8.5-2.2 1.4-4.6 2.6z"/><path fill="#6E511C" d="M183.5 92.5s1.9-.6 2.9 0c.8.5 1.3 1.6 1.1 1.9l.1-.1c.5-.6 0-2.4-1.6-2.9 0 0 .7-.4 1.8-.8-1.9.1-3 .6-3 .6l-1.3 1.3zm-6.7 4.5c.3-1.1.6-2.1-.6-1.4s-.6.1-2.2 1.4c-.5.4-1.1.9-1.8 1.3h.2c3 0 4.1-.2 4.4-1.3zm16.6-7.4c-.4.3-1.1.6-2 .8.9-.1 1.6-.4 2-.8z"/><path fill="#6E511C" d="M136.1 72.5c.9 1 2 2.3 2.1 3 .1 1.3.6 2.1.9 3.4.3 1.3.1 2.4-.9 2.9s-2 .2-2-1.9-.3-1.9-.5-3.7c-.1-1.5-.3-2.9-.3-3.3-2.4.9-6.6 1.8-6.6 1.8v5.9s4.2 6.1 4 7.7-.1 3.4 0 4.8-.1 2.4.7 3.7c.8 1.3 2.1 2.4 2.1 2.4s1.1-1.9.7-3.4c-.3-1.5-.5-5.2-.7-6.3-.2-1.1-1.8-2.4-1.4-2.9.4-.5.6-8.6.6-8.6s2.2 5.9 1.9 7.5-.1 4.9 0 5.7c.1.8 2.4 4.6 1.4 6.2 0 .1-.1.2-.1.2 2 1.6 7.6 6 8.7 7.3 1.4 1.6 2.9 1.8 7.3 1.8 4.5 0 8.9-2.1 12.5-5.1 0 0 3.7-.5 6.2-1.1 1.6-.4 2.5-.2 3.5-.7-.5.1-1.1.3-1.8.4-1.9.3-3-.4-3-.4s-.4-.3-.6-.5c-.8.5-1.4.9-1.4.9s-1.4.4-2.6.8c-.7.3 3-1.6 1.1-1.5l-1.9.2s1.1-.5 2.6-1 1.8-1.4 1.8-1.4h-2.2s4.5-1.1 5.7-2.4c1.3-1.3 4.2-3.4 6.3-4.3 2-1 4.9-1.3 7.3-1.6 2.4-.3 6.2-1 6.2 0v.1c.3-.5.4-1.1.3-1.4-.3-.8-2.2-1.4-3.8-1.1s-5.7.5-7.7.5-4.3.5-4.8 1.1-6.5 5.6-7.7 6.2c-1.1.6-1.9.5-3.8.5s-7 3.4-8.6 3.8c-1.6.5-4.8.8-6.2.2s-5.7-4.5-7.7-6.5c-2-2.1-2.6-3.7-3.3-5.1-.6-1.4-.3-2.6 0-3.8.3-1.3 1.3-3.4 2.4-4.5 1.1-1.1 1.6-1.6.9-1.9-.7-.3-1.1-.3-1.7 0-.6.3-1.3-.2-1.6-1.3-.2-.7-2-2.6-3.3-3.9-.3.2-.6.5-1 .6.1-.1.1-.1 0 0zm5.4 18.6c.8 1.3 1.6 1.1 2.2 2.3.6 1.2 1.3 1.8 3.2 3.2 1.9 1.4 3.4 3.2 3.4 3.2s.2 1.3-.8 1-7.9-4.2-7.9-4.2l-1-2.2s-.1-2.9-1.1-4c-.9-1.1-.4-4.5-.4-4.5.1 1.9 1.5 3.9 2.4 5.2zm-4.1 28.3s-3.9-5.7-4.7-6.5c-.7-.8-3-3.2-3-3.8 0-.6-1-1.8-1-1.8v4.6c.1 0 4.3 5.7 8.7 7.5z"/><path fill="#6E511C" d="M138.1 103.2s1.2 4 1.4 4.9c.2 1 0 5.3 0 5.3s-3.2-10.9-4.8-12.8-3.3-1.9-3.5-5-.5-4.6-.7-5.3c-.2-.8-1.8-5.4-1.8-5.4v20s2.6 3.4 4.7 5.7c2.1 2.4 7.1 5.1 8.7 8.6 0 0-4.9-4.3-5.6-4.8-.8-.5-3.8-2.4-3.8-2.4s4 4.3 5.7 6.2c1.7 1.9 4.4 6.5 5.6 7.5 1.1 1 1.5 4 1.9 5.1.3 1.1 0 6.9 0 6.9s-4.3-10.4-5.4-12.5-4.5-4.9-6.3-5.9-5.5-4.2-5.5-4.2v4s7.5 6.5 8.6 8c1.2 1.4 3.1 7.2 4.7 8.7 1.7 1.5 4.9 3.6 4.4 3.9-.5.3-1.7.8-1.7.8s1 3.7 1.2 4.8 1.5 19 1.7 21.7 2.5 10.1 2.7 10.7c.2.6 1.1 6 1.1 6s-1.3-.3-2.2-1.6-2.6-8.6-3.2-10.2c-.6-1.6-.6-4.8-1.2-5.6s-.2-12.5 0-14-.1-8-.7-9.7-2.1-3.3-2-3.8-4.7-8.3-5.6-8.1c-1 .2 3.4 7 3.6 8.3s2.8 9.6 3.2 11.2c.5 1.6 1.1 4.5.5 3.8s-1-2.1-1.7-1 .5 2.9 0 3.7-2.4 8-2.6 9.9c-.3 1.9.3 9.5 1 11.2.8 1.7.8 4.3-.4 6-1.1 1.5-4.8 7.2-5.8 8.6.6.1.9.2.9.2s-.3 1.4 1 1.9.3 1.9.3 1.9l2.9.6s.8.8 1.1.2v-.3c0-.4-.4-.6.1-.8.2-1.8.7-3.8 1.5-4.9v2.6s2.2-2.9 2.7-4.8.8-1.4 1-3.5 0-1.8 1-.8.3-.8 1 1c.6 1.8 1.9 3.7 1.4 4.5s-1.7 2.6.1 3.7 2.3 1.9 3 2.9c.2.3.6.9 1 1.6h.3c.6 0-.6.8.6 0 1.3-.8 0-2.1 0-2.1l-1.6-2.4s-1 0-1-1.3-1.9-.2 0-1.3l1.9-1.1s.5-1 .5-1.6-1.4-.6-.3-1.4.8.3 1.1-.8c.2-.9-.5-2.3-.8-2.9-.5.1-.8.2-.8.2s-.1-1.4-.2-3.2c-.1-.8-.1-1.6-.2-2.5 0-.3-.1-.7-.1-1-.3-3.4-1-7.7-4.1-10.9l-.1.2c0-.6 0-1.2.1-1.8.8-10.4-2-23.9-2-23.9s1.4-4 1-7.2c-.5-3.2-3.2-9.7-3.9-12s-3.3-8.6-3.3-10.1c0-1.4-.7-5.1-1.4-7-.4-1.2-1-3.6-1.4-5.4 0 1.9.5 4.3.5 4.3zm12.9 70.5c.3 1.2.4 3.1.5 4.3v1s-.3-.3-.7-1c-.8-1.3-2-4.1-2.2-8.8.9 1.2 2.1 3.3 2.4 4.5zm32.9-79.6h-.2c2.1-.2 3 .4 3.5.4-.6-.2-1.7-.6-3.3-.4z"/><path fill="#6E511C" d="M128.8 163.3v31.3s1.2-1.5 1.8-1.9v-.1c-.2-.1-1-.1 0-.1.1-2.5.3-7.3.6-8.2.4-1.3.5-14.4 0-16.6-.5-2.2 1.2-3.5 1.5-4.9.2-1.4 1.6-2.7 2.9-4.3 1.2-1.6 4.8-6.7 4.9-8 .1-1.3-1.9-9.9-2.1-10.9-.2-1-4.2-9.9-4.3-11.7-.2-1.8-5.3-5.7-5.3-5.7v12.3s1.8 10.2 3.5 12.8l-3.5 4v12zm52.6-68.7l-.3.3c.6-.4 1.3-.6 2.3-.8-1 .1-.8-.1-2 .5z"/><path fill="#533C0A" d="M136.7 91.1c-.1-.8-.4-4.2 0-5.7.3-1.6-1.9-7.5-1.9-7.5s-.2 8.1-.6 8.6c-.4.5 1.2 1.8 1.4 2.9s.4 4.8.7 6.3-.7 3.4-.7 3.4-1.3-1.1-2.1-2.4-.6-2.2-.7-3.7c-.1-1.4-.2-3.2 0-4.8.2-1.6-4-7.7-4-7.7v4.3s1.7 4.6 1.8 5.4c.2.8.5 2.2.7 5.3.2 3.1 1.9 3.1 3.5 5s4.8 12.8 4.8 12.8.2-4.3 0-5.3-1.4-4.9-1.4-4.9-.5-2.4-.4-4.3c0-.5.1-1 .3-1.4 0-.1.1-.2.1-.2.8-1.5-1.4-5.3-1.5-6.1zm2.7-.6c.9 1.1 1.1 4 1.1 4l1 2.2s7 3.8 7.9 4.2c1 .3.8-1 .8-1s-1.5-1.8-3.4-3.2c-1.9-1.4-2.6-2-3.2-3.2-.6-1.2-1.3-1.1-2.2-2.3-.8-1.3-2.3-3.4-2.4-5.1 0-.1-.5 3.3.4 4.4zm48.3-1.6c-2.4.3-5.3.6-7.3 1.6s-5 3-6.3 4.3-5.7 2.4-5.7 2.4h2.2s-.3 1-1.8 1.4c-1.5.5-2.6 1-2.6 1l1.9-.2c1.9-.2-1.8 1.8-1.1 1.5 1.1-.4 2.6-.8 2.6-.8s.6-.4 1.4-.9c.2.3.6.5.6.5s1.1.7 3 .4c.7-.1 1.3-.2 1.8-.4 1-.3 1.7-.7 2.4-1.4.8-.9 1.8-2.6 2.5-3.4l.3-.3c1.1-.7 1-.4 2-.5h.5c1.6-.2 2.6.2 3.3.4.1 0 .2 0 .2-.1.2-.3-.3-1.4-1.1-1.9-1-.6-2.9 0-2.9 0l1.3-1.3s1.1-.5 3-.6h1c.9 0 1.9-.1 2.7-.3.8-.2 1.5-.5 2-.8.2-.2.4-.4.4-.6v-.1c-.1-.9-3.9-.2-6.3.1zm-15.4 9.4h-.2c.6-.4 1.3-.9 1.8-1.3 1.6-1.3 1-.6 2.2-1.4s1 .2.6 1.4c-.2 1.1-1.3 1.3-4.4 1.3zm-31.8 27c1 2.1 5.4 12.5 5.4 12.5s.3-5.7 0-6.9c-.3-1.1-.8-4.2-1.9-5.1-1.1-1-3.8-5.6-5.6-7.5-1.7-1.9-5.7-6.2-5.7-6.2s3 1.9 3.8 2.4 5.6 4.8 5.6 4.8c-1.5-3.5-6.6-6.2-8.7-8.6-2.1-2.4-4.7-5.7-4.7-5.7v2.4s1 1.1 1 1.8c0 .6 2.2 3 3 3.8.7.8 4.7 6.5 4.7 6.5-4.4-1.8-8.6-7.5-8.6-7.5v3.4s3.8 3.2 5.5 4.2c1.7.7 5.2 3.6 6.2 5.7zm-9.9 67.2v.1c.1 0 .1-.1 0-.1zm3.7 0c1-1.4 4.7-7.1 5.8-8.6 1.2-1.8 1.2-4.3.4-6s-1.3-9.3-1-11.2 2.1-9.1 2.6-9.9-.7-2.6 0-3.7 1.1.3 1.7 1 0-2.2-.5-3.8-3-9.9-3.2-11.2-4.6-8.1-3.6-8.3 5.7 7.7 5.6 8.1c-.1.5 1.4 2.1 2 3.8s1 8.1.7 9.7-.6 13.3 0 14 .5 4 1.2 5.6c.6 1.6 2.3 8.9 3.2 10.2s2.2 1.6 2.2 1.6-.9-5.4-1.1-6c-.2-.6-2.6-8-2.7-10.7s-1.5-20.6-1.7-21.7c-.2-1.1-1.2-4.8-1.2-4.8s1.2-.5 1.7-.8-2.7-2.4-4.4-3.9-3.6-7.3-4.7-8.7c-1.2-1.4-8.6-8-8.6-8v2.9s5.2 4 5.3 5.7c.2 1.8 4.2 10.7 4.3 11.7.2 1 2.2 9.6 2.1 10.9-.1 1.3-3.7 6.4-4.9 8s-2.6 2.9-2.9 4.3c-.2 1.4-2 2.7-1.5 4.9s.4 15.3 0 16.6c-.3.9-.5 5.7-.6 8.2h.6c1.5-.2 2.5 0 3.2.1z"/><path fill="#533C0A" d="M145.3 196.5l1.8.6s3.4.5 4.5.8c.9.3 1.3.4 1.8.5-.4-.7-.8-1.3-1-1.6-.6-1-1.1-1.8-3-2.9-1.8-1.1-.6-2.9-.1-3.7s-.8-2.7-1.4-4.5c-.6-1.8 0 0-1-1s-.8-1.3-1 .8-.4 1.6-1 3.5c-.5 1.9-2.7 4.8-2.7 4.8v-2.6c-.9 1.2-1.3 3.1-1.5 4.9.2 0 .5-.1 1-.1 2 .2 1.8-.2 3.6.5z"/><path fill="#767380" d="M184.2 197.9c2.4-1.1 3.9-2.1 4.6-2.6.4-.3.6-.5.6-.5v-.1l-1.6-2.9-2.4-.8s-1.3-.5-3-.5c-1.8 0-3.4-1-3.4-1s-.8-1.1-1.6-2.1-2.6-1-3.7-1.1c-1.1-.2-5.1 0-5.1 0-4-1.1-14.7-3-14.7-3s.1.1.2.3c.3.6 1 2 .8 2.9-.3 1.1 0 0-1.1.8s.3.8.3 1.4-.5 1.6-.5 1.6l-1.9 1.1c-1.9 1.1 0 0 0 1.3s1 1.3 1 1.3l1.6 2.4s1.3 1.3 0 2.1 0 0-.6 0h-.3c-.5 0-.8-.2-1.8-.5-1.1-.3-4.5-.8-4.5-.8l-1.8-.6c-1.8-.6-1.6-.3-3.7-.3-.5 0-.8 0-1 .1-.5.1-.1.4-.1.8v.3c-.3.6-1.1-.2-1.1-.2l-2.9-.6s1-1.4-.3-1.9-1-1.9-1-1.9-.3-.1-.9-.2c-.7-.1-1.8-.2-3.1-.1h-.6c-1 .1-.2 0 0 .1.1 0 .1.1 0 .1-.6.3-1.8 1.9-1.8 1.9V206c32.2-.1 48.2-4.8 55.4-8.1z"/><path fill="#573F0E" d="M126.3 79.3c-.7-.8-2.5-3.8-2.5-3.8s-.1.7-.1 1.1.2 1.8.4 2.4c.1.6-.5 1.7-.5 2 0 .4 1.1 1.4 1.1 1.4s.7 3.4.5 4.1 1 3 1.3 4.2.4 1.7.7 3.9c.4 2.3 1.2 1.1.9 2.6-.8 3.8.7 7.5.7 7.5v-20L128 82s-1-1.8-1.7-2.7z"/><path fill="#573F0E" d="M128.8 121.9s-1.8-2.5-2.1-2.7c-.3-.2-1.1-1.4-1.9-2.1s-.2-.6-1.7-1.9-1-.8-1.3-1.8-1-5.4-1-5.4.9 1.4 1.3 2.1c.4.6.2.7.4 1.1.2.4-.1.6 0 2.2s.5.3.7.7c.2.4.4.5 1.2 1 .8.6 4.3 4 4.3 4v-4s-3.7-3.1-4.5-4c-.8-1-3.1-6.3-3.1-6.3l-.6-2.2s-.8-1.3-.7-1.8-.6-.6 0-1.8c.6-1.2-1.1-2.2-1.1-2.2s-.8.8-1.6 1.3c-.7.5-1.8.1-3.4.7s-3-1.6-3-1.6 3.5.4 4.4-.1c1-.5 1.2-.8 1.7-1.6s0-.9 0-2.2c0-1.3 1.3-1.5 1.3-2.1s.4-1.4 1.1-2.3c.7-.8.8-.7.8-.7s.6-.1-.1.8-.4.7-.6 1.9c-.2 1.2.1 2 0 2.4-.1.3 1.8 6.5 2.2 9.8.4 3.4 7.1 8.6 7.1 8.6v-4.6s-2-3.6-2.4-4.5 0-2.5 0-3.2-2.2-3.6-2.4-3.8-1.3-3.4-1.8-4.7c-.5-1.3-.7-2.6-.7-2.6s1.2.8 1.4 1.3c.2.5.5.8 1 2.2.5 1.3 2.5 5.1 2.5 5.1l-.1-2.3s-2.3-6.7-2.5-7.6c-.2-1-1.3-5.5-1.6-6.2s-.1-1.9 0-2.9c.1-.7.9-3.1 1.4-4.5l-.9-.3c-.3 2.3-.8 6.2-1.6 11 0 0-2.2.1-3.8 1.3-1.7 1.2-2.6-.2-3.8 2.4-1.2 2.6-1.4 3.5-1.4 4.1s-1.3 5.1-1.3 5.1-3.7-2.2-4.8-3.5l-1.1-1.3s-1.2-3.7-3-6.1c-1.8-2.5-4.1-5.6-4.1-5.6s.2-4.2 0-5-2.5-3.3-2.6-4.9 1-2.6 1-2.6 0-3.5-.8-4.7-2.1-1.9-3.1-2.2c-1-.2-2.6 0-2.6 0s-4.4-3.5-4.8-5c-.4-1.6-.6-2.4-1-2.8-.4-.4.6 0-.4-.4l-1-.4s-.8.4-.8.8v1.3s-1.7-1.8-2.3-2.2c-.6-.4-.6 0-1.7 0s-2.2-.4-1.9.6c.2 1-.1-.1.6 1.6s1.3 3.5 1.3 3.5-.7 3.2 0 4.3 5.9 4.9 9.2 7.9 4.2 4.5 4.7 5.6.7 1.4.7 2.5-1.8 2.2-1.3 4 2.3 4.9 2.3 5.8-1 2-.8 2.5c.1.5-.1.8.8 1.8 1 1 .6 1.6 1.9 2s1 .5 1.9 1c1 .6 1.2.3 1.8 1.3.6 1 4.7 4.1 6.1 4.9s6.6 2.3 9.2 1.6c2.6-.7 5.5 2 5.5 2s1.1 10.1 2.3 12.1c1.2 2 5.1 10.7 5.7 11.9.6 1.2 1.2 4.6 1.2 4.6v-12h.1zm-16.6-27.4s1-1 1.7-1.8c.7-.7.9-1 1.3-1.5.4-.6.9-2.9.9-2.9s-.8.5-1.3.9-1.6 1.6-1.6 1.6l-.6 1.6s-.4 1.1-.4.7c0-.5-.4-.6 0-1.5.2-.5.7-2.3.9-2.6s1.5-1.2 2.2-1.7 1-.6 2.4-1.4.9-.6 1.7-1c.8-.5 1.7-.6 1.7-.6l-.1 1.1s-.3-.2-.8-.1-.8.6-.8.6 1.6-.2 1.6 0c0 .5 0 .5-.2.8s-.8.6-1.5.7-1.1.3-1.4.4-.5.7-1.3 2.6c-.8 1.8-4.3 5.2-4.3 5.2-1.4.7-.1-1.1-.1-1.1zm13.2-17.9c1.2 1.9.8.5 1.8 1.3s1.5 2.7 1.5 2.7v-5.9s-2.5-.5-4.7-1.2v.4c0 .6.2.8 1.4 2.7zm2.6 87.8c-.7.6 0 1.6 0 1.6l.7-.8v-1.8c.1-.1.1.4-.7 1zm0 14.6l-1.4 8s-.2 1.2-.2 2 .1 1.9 0 3.7c-.1 1.7 1 .5 1 .5l1.4-1.2v-15.5l-.8 2.5z"/><path fill="#573F0E" d="M114.5 181.6c-1.2 1.9.2 2.3-2 2.5s-2.9 0-2.9 0-1.9 1.8-2.3 2.3-1.8 1-3.2 1.6c-.1.1-.2.1-.3.1-.2.1-.3.1-.4.1-.7.2-1.4-.1-2.3.8-.4.4-.8.7-1.1.9-.2.2-.3.5-.5.7v.4c.1.9-.6.8 0 1.7s-.2 1.2 1.6 1.9 2.8.8 2.8.8l1-.8-1.1-1.3s-1.1.4-.2-.5c.8-.9.6-1 1.4-1s.8.1 1.7-.5l.8-.6s1.7-.8 2.8-.8h2.2s.5.7.7 1.1c.2.4-.4 1.6 0 2.3s-.4 1.4.4.7c.3-.3.7-.6.9-.8-.1-.5-.1-.9-.1-1 .1-.4 1.1-1.3 2-2s1-1.2 1.2-1.1c.2.1 1.2-.8 1-2.5s-.1-1.3-.4-3.3c-.2-2-1.7-.8-1.8-1.2-.1-.4.6-.7 1.3-1.3s-.1-1.3 0-2 .6-1.7.6-1.7.1.8 0 1.6.4 2.5.6 3.2.2 1 .4 3c.1 2 0 3 0 4.2v4.2c0 .3-.2.9-.4 1.4.1.1.3.3.5.7.7 1.2.6.8 1.6 1.4.1.1.2.2.4.3.4 0 1.2.1 1.4 0 .4-.1.6-.4 1.2-1.3.6-1 .2-1.2.6-3s-.6-2.1-.5-6.3-.2-2.3 0-4.1 0-6.7 0-6.7-.5-1-1.6-2.3-.1-1.3 0-1.8 1.4-4.3 1.4-4.3v1.8c0 .5 1.1 1.4 1.1 1.4l1.1-.5c1.1-.5.4-1.1.7-2.5.4-1.4-.1-1.8 0-2.5s2-3 2-3v-10.8s-5.2 7.2-4.8 10.8c0 0-3.1 4.4-4.4 6.9s-3.5 6.8-4 8.9c-.1.2-.1.4-.1.6-.2 1.3 0 1.5-.7 2.8-.1.1-.2.2-.3.4z"/><path fill="#412E00" d="M128 97.3c.3-1.6-.6-.4-.9-2.6-.4-2.3-.5-2.7-.7-3.9s-1.5-3.5-1.3-4.2-.5-4.1-.5-4.1-1.1-1.1-1.1-1.4c0-.4.6-1.4.5-2s-.4-2-.4-2.4.1-1.1.1-1.1 1.8 3 2.5 3.8S128 82 128 82l.7 2.9v-4.3s-.6-1.9-1.5-2.7-.6.6-1.8-1.3c-1.2-1.9-1.4-2-1.4-2.8v-.4c-.1 0-.3-.1-.4-.1-.5 1.4-1.3 3.9-1.4 4.5-.1 1-.2 2.2 0 2.9s1.3 5.3 1.6 6.2c.2 1 2.5 7.6 2.5 7.6l.1 2.3s-2-3.8-2.5-5.1c-.5-1.3-.7-1.7-1-2.2-.2-.5-1.4-1.3-1.4-1.3s.2 1.3.7 2.6c.5 1.3 1.6 4.5 1.8 4.7s2.4 3.1 2.4 3.8-.4 2.3 0 3.2 2.4 4.5 2.4 4.5v-2.4c0 .2-1.5-3.5-.8-7.3zm-6.4 6c-.4-3.4-2.3-9.5-2.2-9.8.1-.3-.3-1.2 0-2.4.2-1.2-.1-1.1.6-1.9s.1-.8.1-.8-.1-.2-.8.7c-.7.8-1.1 1.7-1.1 2.3 0 .6-1.3.8-1.3 2.1s.5 1.4 0 2.2c-.5.8-.7 1.2-1.7 1.6-1 .5-4.4.1-4.4.1s1.4 2.2 3 1.6 2.6-.2 3.4-.7c.7-.5 1.6-1.3 1.6-1.3s1.6 1 1.1 2.2c-.6 1.2.1 1.3 0 1.8s.7 1.8.7 1.8l.6 2.2s2.3 5.4 3.1 6.3c.8 1 4.5 4 4.5 4v-3.4s-6.8-5.3-7.2-8.6zm2.8 11.9c-.8-.6-1-.6-1.2-1s-.6.9-.7-.7.2-1.8 0-2.2c-.2-.4 0-.5-.4-1.1s-1.3-2.1-1.3-2.1.6 4.5 1 5.4c.3 1-.2.5 1.3 1.8s1 1.2 1.7 1.9 1.6 1.8 1.9 2.1c.3.2 2.1 2.7 2.1 2.7v-2.7c0-.1-3.6-3.5-4.4-4.1zm-12.2-19.5s3.5-3.4 4.3-5.2c.8-1.8 1-2.5 1.3-2.6s.8-.2 1.4-.4 1.3-.4 1.5-.7c.2-.3.2-.3.2-.8 0-.2-1.6 0-1.6 0s.2-.6.8-.6.8.1.8.1l.1-1.1s-.9.1-1.7.6c-.8.5-.3.2-1.7 1s-1.7 1-2.4 1.4-2.1 1.4-2.2 1.7-.7 2.2-.9 2.6c-.4.9 0 1 0 1.5 0 .3.4-.7.4-.7l.6-1.6s1.1-1.2 1.6-1.6 1.3-.9 1.3-.9-.5 2.4-.9 2.9c-.4.6-.6.8-1.3 1.5-.7.7-1.7 1.8-1.7 1.8s-1.2 1.7.1 1.1zm11.1 102.2c1.1-.5 2.4-1.5 3-1.7s2.5-1.6 2.5-1.6V192l-1.4 1.2s-1.1 1.2-1-.5 0-2.8 0-3.7.2-2 .2-2l1.4-8 .7-2.5v-11.4l-.7.8s-.7-1 0-1.6.7-1.1.7-1.1V162s-1.9 2.3-2 3 .4 1.1 0 2.5.4 2-.7 2.5l-1.1.5s-1.1-1-1.1-1.4v-1.8s-1.3 3.8-1.4 4.3-1.1.5 0 1.8 1.6 2.3 1.6 2.3.2 4.9 0 6.7.1-.1 0 4.1.8 4.4.5 6.3c-.4 1.8 0 2.1-.6 3-.6 1-.8 1.2-1.2 1.3-.3.1-1 0-1.4 0 .7.5 1.1 1.1 2 .8zm-6.7-5.2c.8-.3 1.1-.1 1.4 0 .4.1-.6.4 0 1.3.4.6.5.5.8.7.2-.5.4-1.1.4-1.4v-4.2c0-1.2.1-2.1 0-4.2-.1-2-.1-2.3-.4-3-.2-.7-.7-2.5-.6-3.2s0-1.6 0-1.6-.5 1-.6 1.7.7 1.4 0 2-1.4 1-1.3 1.3c.1.4 1.6-.8 1.8 1.2.2 2 .1 1.6.4 3.3.2 1.7-.7 2.6-1 2.5-.2-.1-.3.4-1.2 1.1-.9.7-1.9 1.7-2 2 0 .1 0 .5.1 1 .4-.3.6-.4.6-.4s.7.2 1.6-.1z"/><path fill="#6B6874" d="M128.8 200.2v-5.6s-1.9 1.5-2.5 1.6-1.9 1.2-3 1.7c-.9.4-1.3-.2-2-.8-.1-.1-.2-.2-.4-.3-1-.6-.8-.2-1.6-1.4-.2-.4-.4-.6-.5-.7-.3-.2-.4-.2-.8-.7-.6-.8.4-1.2 0-1.3s-.6-.3-1.4 0-1.6 0-1.6 0l-.6.4c-.3.2-.6.5-.9.8-.7.7 0 0-.4-.7s.2-1.9 0-2.3c-.2-.4-.7-1.1-.7-1.1h-2.2c-1.1 0-2.8.8-2.8.8l-.8.6c-.8.6-.8.5-1.7.5s-.6.1-1.4 1 .2.5.2.5l1.1 1.3-1 .8s-1-.1-2.8-.8-1-1-1.6-1.9.1-.8 0-1.7v-.4c.1-.3.2-.5.5-.7s.7-.5 1.1-.9c.8-1 1.6-.6 2.3-.8.1 0 .2-.1.4-.1 1-.4 2.8-1.1 2.8-1.1l-3.6-.1-.4.8s-.6 0-2.3-.8c-1.7-.8-1-.1-2.4.1s-1.3.1-3.4.2c-2 .1.2-1-.2-1.7-.5-.7-1.4 0-1.4 0l-2.4.8-1.2.1-2 1.1c-2 1.1-.7-.1-2.4.2-1.7.4 0 0-.8.7s0 0-.6.5-1.1 1-1.1 1-.6-.3-1.2-.3c-.1 0-.3 0-.4.1-.3.1-.4.3-.2.6.2.4.6.9.7 1.6.2 1.2-.5.7-.7 1.3s-1.4-.5-1.4-.5c0 .7.3 1.4.8 2 6.4 7.8 48.9 11.2 48.9 11.2v-5.6z"/><path fill="#886427" d="M128.8 70.5v4.1s4.3-.9 6.6-1.8c.3-.1.5-.2.7-.3.1 0 .1-.1.2-.1l.9-.6c1.6-1.3 3.2-3.4 3.6-5 .5-1.9.1-5.1.7-6 .5-.9.7-3.3.7-3.3s3.3-3.6 4-4.9c.7-1.3 1.9-3.9 1.9-3.9l-.7.3.1-1.4s-.4-.5-.7-.5-1.1.4-1.1.4-.3 1-.7 1.4.2-1.9 0-2.2 0-.8 0-.8-.9-.1-1 .4c-.1.4-.8 1.5-.8 1.5v1.4c-.5.5-.7 1.1-.7 1.1l-.2.7-.6-.9s-.6.1-.5.5.2 4.3.2 4.3-1.1-3.5-.7-4.6c.4-1.1.5-1.3 1.4-2.4.9-1.1 3.9-5.3 4.2-6.8.1-.3.1-.6.2-1 .3-1.5.8-3.3.8-3.8v-.6h.8s-.9 4.8-1.1 5.5c-.2.7-.3.8-.6 1.3s-1 1.2-1 2 .1.6 1 .3c.4-.1 1-.4 1.6-.6.8-.3 1.4-.2 1.4-.2h-.1c.2 0 .4-.1.5-.1.8 0 1.6-.4 1.7-.8s0-2.3 0-2.3-1.9-.9-1.7-1.6c.2-.7-.2-2.1-.6-2.9-.4-.8-1.7-2.3-2.4-2.7s-1.2-.8-1.9-1.3-1.5-1.6-1.5-1.6l1.5-.8-.1-.8-1.6-1.7-.9-.5s.3.9-.3.9c-.5 0 0 1.1-.5 0s-1.3-1.9-1.3-1.9-.2-.3-.6-1.1c-.4-.8-.1-.9-1.1-1.5-.9-.5-1.6-.7-1.6-.7l-1.5-.4.1 1.2s1.3.1 1.6.8-.1 1.5.3 2.3c.4.8 1.2 2.5 1.2 2.5s-.3.8-1.2.4-1.2-.4-1.6-.8c-.4-.4-.7-.1-.7-1.2s.1-1.1 0-2.1.1-.7-.4-1.9-.7-.7-.5-1.9-.1-2.4-.7-2.5c-.5-.1.4-.3-.5-.1s-.7-.9-.9.1c-.3 1.1-.3 1.7-.3 1.7-.8-.7-.7-2.8-3-3.1v52.9zm14.3-28.2s.3-2.1.5-2.6c0-.1 0-.3.1-.8.3-1.5-.1-.6 0-1.2s.2-.1.1-.6-.6-.1-.1-.5 0 .1.5-.4.5-.1.5-.5v-.4l.1-1.6 1.2 1v.4s-.5.6-.7.9.4-.3-.1.3c-.5.5-.3.1-.5.5s-.2.5-.1.7 0 .6.1 1l.1.4s-.5 0-.5.2v.5s-.4 2.1-.4 2.4-.1.7-.1.9c-.1.2-.1.3-.3.5s-.4.1-.5.1h-.6s-.9-.1-1.1 0-.3.1-.5.3-.3-.7-.1.3.2 1.1.1 1.4c-.1.3-.5.6-.3.5s.9-.5.9-.5l.5-.4s-.1 1.4-.6 1c-.5-.5-.3.5-.3.5l-1.2 1.7s.1-.3 0-.5 0-.5 0-.5l.3-.5s-.6.5-.4-.5.4-.5.4-1.2c0-.8-.3-1.2 0-1.4s1.5-.7 1.5-.7.3-.2.6-.3.9-.4.9-.4zm-3.9-5.1c.3-.1.3-1 .6-1.7.3-.6.5-1.8.5-1.8s.5-.6.7-1.1 1.5-.3 1.1 0c-.5.3-.7.9-.8 1.1s-.3.8-.3 1 .1.8.2 1.3.2.7.4 2.3 0 1.8 0 1.8-.5 1-.6 1.6-1.7 0-1.7 0l.1-1.4s.4-.9.5-1.1c.1-.2.3-.4.7-1 .3-.6.1-.3.1-1.3-.1-.9-.5.3-.5.3s-.4.2-.7.4-.4.5-.4.5l-.1.9-.7 1.3s-.3-.4 0-1.1c.3-.7 0 0 .2-.3s-.1-.4 0-1.3c0-.8.3-.3.7-.4zm-6.1-3.4c.1-.1.8-1.4.8-1.4s.3-.7.3-1 0-.6.4-1.1 0 0 .4-.1.5 0 .7 0 .5.4.9.3.6-.2 1-.3c.4-.1.8 0 .8 0v1.7c0 1.5-.1.5-.5 1.7s-1.1 1.8-1.1 1.8l-.2-1.4s0-.4.1-.7-.3-.4-.3-.4l.3-.6s-.3-.2-.5 0-.7-.2-1.1 0c-.4.2-.7.5-1.3 1s-.4.7-.5 1.1c-.1.4-.6 1.3 0 1.3.3 0 .4 0 .5-.1 0-.1.1-.2.1-.2s0 .1-.1.2c0 .1-.1.2-.1.3 0 .2-.8.7-.8.7s-.1-1.3-.3-2.4c0-1 .4-.4.5-.4zm-2.9-4.1c.2-.7.5-1.1.8-2.3.3-1.2.3-1 .3-1.6v-2s.3-.3.3-.5-.3-.9-.3-.9-.3.1-.3-.3c.1-.4.7-.5.7-.5.1.2 1 1 .9 1.2s-.5 1-.5 1.2v.6c0 .9-.1 1.1 0 1.5s1.2-1.5 0 .9c-1.2 2.3-1.5 2.8-1.5 2.8s-.7 1.4-.9 1.7c-.1.1.3-1.2.5-1.8z"/><path fill="#886427" d="M147.4 45.2c.2.9 1 1.4 1 1.7s-.4 1.7-.4 1.7l1.6-.1-1-2.3-.5-1.9s.4-.2.9-.3c-.3.1-1.7.4-1.6 1.2z"/><path fill="#5B4210" d="M147.8 44.1c-.6.2-1.2.4-1.6.6-.9.3-1 .5-1-.3s.7-1.5 1-2 .4-.6.6-1.3c.2-.7 1.1-5.5 1.1-5.5h-.8v.6c0 .5-.5 2.3-.8 3.8-.1.4-.2.7-.2 1-.3 1.5-3.3 5.7-4.2 6.8s-1 1.3-1.4 2.4c-.4 1.1.7 4.6.7 4.6s-.1-3.9-.2-4.3c-.1-.4.5-.5.5-.5l.6.9.2-.7s.2-.6.7-1.1v-1.4s.7-1.1.8-1.5 1-.4 1-.4-.2.5 0 .8-.5 2.6 0 2.2.7-1.4.7-1.4.8-.4 1.1-.4.7.5.7.5l-.1 1.4.7-.3s.4-1.4.4-1.7-.8-.8-1-1.7c-.2-.8 1.2-1.1 1.7-1.2h.2s-.6-.1-1.4.1zm-6.4-1s-1.1.5-1.5.7c-.3.2 0 .6 0 1.4 0 .8-.1.3-.4 1.2s.4.5.4.5l-.3.5s-.1.3 0 .5 0 .5 0 .5l1.2-1.7s-.2-1 .3-.5.6-1 .6-1l-.5.4s-.7.4-.9.5.2-.1.3-.5c.1-.3.1-.5-.1-1.4s0 0 .1-.3.3-.2.5-.3 1.1 0 1.1 0h.6c.2 0 .3.1.5-.1s.2-.3.3-.5.1-.5.1-.9.4-2.4.4-2.4v-.5c0-.2.5-.2.5-.2l-.1-.4c-.1-.4 0-.7-.1-1s-.1-.3.1-.7 0 0 .5-.5 0 0 .1-.3.7-.9.7-.9v-.4l-1.2-1-.1 1.6v.4c0 .4 0 0-.5.5s0 0-.5.4 0 0 .1.5 0 0-.1.6.3-.3 0 1.2c-.1.5-.1.7-.1.8-.2.5-.5 2.6-.5 2.6s-.7.3-1.1.4-.4.3-.4.3z"/><path fill="#5B4210" d="M138.4 39.1c-.2.3.1-.5-.2.3-.3.7 0 1.1 0 1.1l.7-1.3.1-.9s.1-.3.4-.5c.3-.2.7-.4.7-.4s.4-1.2.5-.3.3.7-.1 1.3c-.3.6-.5.8-.7 1-.1.2-.5 1.1-.5 1.1l-.1 1.4s1.6.6 1.7 0 .6-1.6.6-1.6.2-.3 0-1.8-.3-1.8-.4-2.3c-.1-.5-.2-1.1-.2-1.3s.2-.9.3-1 .3-.8.8-1.1-.9-.5-1.1 0c-.2.5-.7 1.1-.7 1.1s-.3 1.1-.5 1.8c-.3.6-.3 1.6-.6 1.7-.3.1-.7-.4-.7.5 0 .8.2.9 0 1.2zm-4.5-3.3c.1-.1.1-.2.1-.2s-.1.1-.1.2z"/><path fill="#5B4210" d="M133 36.7s.8-.5.8-.7c0-.1 0-.2.1-.3-.1.1-.2.2-.5.1-.6-.1-.1-.9 0-1.3s-.1-.6.5-1.1.9-.8 1.3-1c.4-.2.9.2 1.1 0 .2-.2.5 0 .5 0l-.3.6s.3.1.3.4c-.1.3-.1.7-.1.7l.2 1.4s.7-.6 1.1-1.8.5-.3.5-1.7v-1.7s-.3-.1-.8 0c-.4.1-.6.2-1 .3-.4.1-.7-.3-.9-.3s-.3-.1-.7 0 0-.4-.4.1-.4.7-.4 1.1c0 .3-.3 1-.3 1s-.7 1.3-.8 1.4c-.1.1-.5-.6-.3.5 0 1.1.1 2.3.1 2.3zm-3.2-5.3c.2-.3.9-1.7.9-1.7s.3-.5 1.5-2.8.1-.5 0-.9 0-.6 0-1.5v-.6c0-.2.4-1 .5-1.2s-.8-1-.9-1.2c0 0-.7.1-.7.5-.1.4.3.3.3.3s.3.7.3.9c0 .2-.3.5-.3.5v2c0 .6 0 .4-.3 1.6s-.6 1.6-.8 2.3c-.3.7-.7 2-.5 1.8z"/><path fill="#6E511C" d="M110.1 45.2c.2-.8-1.2-1.1-1.7-1.2.5.1.9.3.9.3l-.5 1.9-1 2.3 1.6.1s-.4-1.4-.4-1.7c.1-.3.9-.8 1.1-1.7z"/><path fill="#6E511C" d="M124 73.4c2.2.7 4.7 1.2 4.7 1.2v-57c-2.3.3-2.2 2.4-3 3.1 0 0 0-.7-.3-1.7-.3-1.1 0 0-.9-.1s0 0-.5.1-.8 1.3-.7 2.5c.1 1.2 0 .7-.5 1.9s-.3.8-.4 1.9 0 1.1 0 2.1-.3.8-.7 1.2c-.4.4-.7.4-1.6.8s-1.2-.4-1.2-.4.8-1.7 1.2-2.5c.4-.8 0-1.6.3-2.3s1.6-.8 1.6-.8l.1-1.2-1.5.4s-.7.1-1.6.7c-.9.5-.7.7-1.1 1.5s-.6 1.1-.6 1.1-.7.8-1.3 1.9c-.5 1.1 0 0-.5 0s-.3-.9-.3-.9l-.9.5-1.6 1.7-.1.8 1.5.8s-.8 1.1-1.5 1.6-1.2.9-1.9 1.3-2 1.9-2.4 2.7-.8 2.3-.6 2.9c.2.7-1.7 1.6-1.7 1.6s-.1 1.9 0 2.3.9.8 1.7.8c.2 0 .4 0 .5.1h-.1s.6-.1 1.4.2c.6.2 1.2.4 1.6.6.9.3 1 .5 1-.3s-.7-1.5-1-2-.4-.6-.6-1.3-1.1-5.5-1.1-5.5h.8v.6c0 .5.5 2.3.8 3.8.1.4.2.7.2 1 .3 1.5 3.3 5.7 4.2 6.8.9 1.1 1 1.3 1.4 2.4.4 1.1-.7 4.6-.7 4.6s.1-3.9.2-4.3c.1-.4-.5-.5-.5-.5l-.6.9-.2-.7s-.2-.6-.7-1.1v-1.4s-.7-1.1-.8-1.5c-.1-.4-1-.4-1-.4s.2.5 0 .8.5 2.6 0 2.2-.7-1.4-.7-1.4-.8-.4-1.1-.4c-.3 0-.7.5-.7.5l.1 1.4-.7-.3s1.2 2.5 1.9 3.9c.7 1.3 4 4.9 4 4.9s.1 2.4.7 3.3.1 4.1.7 6c.5 1.9 2.7 4.5 4.5 5.6.4.2.9.4 1.6.7l.9.3h.3zm1.3-47.4c.1-.3 0-.6 0-1.5v-.6c0-.2-.4-1-.5-1.2s.8-1 .9-1.2c0 0 .7.1.7.5.1.4-.3.3-.3.3s-.3.7-.3.9c0 .2.3.5.3.5v2c0 .6 0 .4.3 1.6s.6 1.6.8 2.3c.2.7.5 2 .3 1.7s-.9-1.7-.9-1.7-.3-.5-1.5-2.8c-1-2.2.2-.4.2-.8zm-7.7 20.9l.3.5s.1.3 0 .5 0 .5 0 .5l-1.2-1.7s.2-1-.3-.5-.6-1-.6-1l.5.4s.7.4.9.5-.2-.1-.3-.5c-.1-.3-.1-.5.1-1.4s0 0-.1-.3-.3-.2-.5-.3-1.1 0-1.1 0h-.6c-.2 0-.3.1-.5-.1s-.2-.3-.3-.5c-.1-.2-.1-.5-.1-.9s-.4-2.4-.4-2.4v-.5c0-.2-.5-.2-.5-.2l.1-.4c.1-.4 0-.7.1-1s.1-.3-.1-.7 0 0-.5-.5 0 0-.1-.3-.7-.9-.7-.9v-.4l1.2-1 .1 1.6v.4c0 .4 0 0 .5.5s0 0 .5.4 0 0-.1.5 0 0 .1.6-.3-.3 0 1.2c.1.5.1.7.1.8.2.5.5 2.6.5 2.6s.7.3 1.1.4.6.3.6.3 1.1.5 1.5.7c.3.2 0 .6 0 1.4 0 .8.1.3.4 1.2s-.6.5-.6.5zm1.7-6.4l-.7-1.3-.1-.9s-.1-.3-.4-.5-.7-.4-.7-.4-.4-1.2-.5-.3-.3.7.1 1.3.5.8.7 1c.1.2.5 1.1.5 1.1l.1 1.4s-1.6.6-1.7 0-.6-1.6-.6-1.6-.2-.3 0-1.8.3-1.8.4-2.3.2-1.1.2-1.3-.2-.9-.3-1-.3-.8-.8-1.1.9-.5 1.1 0 .7 1.1.7 1.1.3 1.1.5 1.8c.3.6.3 1.6.6 1.7.3.1.7-.4.7.5.1.9-.2 1.1 0 1.3.2.3-.1-.5.2.3.3.6 0 1 0 1zm2-8.1c-.2-.2-.5 0-.5 0l.2.6s-.3.1-.3.4c.1.3.1.7.1.7l-.2 1.4s-.7-.6-1.1-1.8c-.3-1.2-.5-.3-.5-1.7v-1.7s.3-.1.8 0c.4.1.6.2 1 .3.4.1.7-.3.9-.3.2 0 .3-.1.7 0 .4.1 0-.4.4.1s.4.7.4 1.1c0 .3.3 1 .3 1s.7 1.3.8 1.4c.1.1.5-.6.3.5-.1 1.1-.3 2.4-.3 2.4s-.8-.5-.8-.7c0-.1 0-.2-.1-.3s-.1-.2-.1-.2 0 .1.1.2.2.2.5.1c.6-.1.1-.9 0-1.3s.1-.6-.5-1.1-.9-.8-1.3-1c-.1-.3-.6.1-.8-.1z"/><path fill="#412E00" d="M110.1 47.5s.4-.5.7-.5c.3 0 1.1.4 1.1.4s.3 1 .7 1.4-.2-1.9 0-2.2 0-.8 0-.8.9-.1 1 .4c.1.4.8 1.5.8 1.5v1.4c.5.5.7 1.1.7 1.1l.2.7.6-.9s.6.1.5.5-.2 4.3-.2 4.3 1.1-3.5.7-4.6-.5-1.3-1.4-2.4c-.9-1.1-3.9-5.3-4.2-6.8-.1-.3-.1-.6-.2-1-.3-1.5-.8-3.3-.8-3.8v-.6h-.8s.9 4.8 1.1 5.5.3.8.6 1.3 1 1.2 1 2-.1.6-1 .3c-.4-.1-1-.4-1.6-.6-.8-.3-1.4-.2-1.4-.2h.2c.4.1 1.8.5 1.7 1.2-.2.9-1 1.4-1 1.7s.4 1.7.4 1.7l.7.3-.1-1.3zm7.5-2.3c0-.8.3-1.2 0-1.4s-1.5-.7-1.5-.7-.3-.2-.6-.3-1.1-.4-1.1-.4-.3-2.1-.5-2.6c0-.1 0-.3-.1-.8-.3-1.5.1-.6 0-1.2s-.2-.1-.1-.6.6-.1.1-.5 0 .1-.5-.4-.5-.1-.5-.5v-.4l-.1-1.6-1.2 1v.4s.5.6.7.9-.4-.3.1.3c.5.5.3.1.5.5s.2.5.1.7c-.1.3 0 .6-.1 1l.2.4s.5 0 .5.2v.5s.4 2.1.4 2.4.1.7.1.9c.1.2.1.3.3.5.2.2.4.1.5.1h.6s.9-.1 1.1 0 .3.1.5.3.3-.7.1.3-.2 1.1-.1 1.4c.1.3.5.6.3.5s-.9-.5-.9-.5l-.5-.4s.1 1.4.6 1c.5-.5.3.5.3.5l1.2 1.7s-.1-.3 0-.5 0-.5 0-.5l-.3-.5s.6.5.4-.5-.5-.4-.5-1.2z"/><path fill="#412E00" d="M119.1 39.1c-.2-.3.1-.4 0-1.3s-.4-.4-.7-.5c-.3-.1-.3-1-.6-1.7-.3-.6-.5-1.8-.5-1.8s-.5-.6-.7-1.1-1.5-.3-1.1 0 .7.9.8 1.1.3.8.3 1-.1.8-.2 1.3-.2.7-.4 2.3 0 1.8 0 1.8.5 1 .6 1.6 1.7 0 1.7 0l-.1-1.4s-.4-.9-.5-1.1c-.1-.2-.3-.4-.7-1s-.1-.3-.1-1.3c.1-.9.5.3.5.3s.4.2.7.4c.3.2.4.5.4.5l.1.9.7 1.3s.3-.4 0-1.1c-.4-.7 0 0-.2-.2zm4.5-3.3c0-.1-.1-.2-.1-.2s0 .1.1.2z"/><path fill="#412E00" d="M124.1 34.6c.1.4.6 1.3 0 1.3-.3 0-.4 0-.5-.1 0 .1.1.2.1.3 0 .2.8.7.8.7s.1-1.3.3-2.4c.1-1.1-.3-.5-.3-.5-.1-.1-.8-1.4-.8-1.4s-.3-.7-.3-1 0-.6-.4-1.1 0 0-.4-.1-.5 0-.7 0-.5.4-.9.3-.6-.2-1-.3c-.4-.1-.8 0-.8 0V32c0 1.5.1.5.5 1.7.3 1.2 1.1 1.8 1.1 1.8l.2-1.4s0-.4-.1-.7.3-.4.3-.4l-.3-.6s.3-.2.5 0 .7-.2 1.1 0 .7.5 1.3 1 .3.8.3 1.2zm2.7-4.9s.7 1.4.9 1.7c.2.3-.1-1-.3-1.7-.2-.7-.5-1.1-.8-2.3-.3-1.2-.3-1-.3-1.6v-2s-.3-.3-.3-.5.3-.9.3-.9.3.1.3-.3c-.1-.4-.7-.5-.7-.5-.1.2-1 1-.9 1.2s.5 1 .5 1.2v.6c0 .9.1 1.1 0 1.5-.1.3-1.2-1.5 0 .9 1 2.2 1.3 2.7 1.3 2.7z"/></svg>