<svg xmlns="http://www.w3.org/2000/svg" width="256" height="256"><circle fill="#B1B3B5" cx="128" cy="128" r="128"/><path fill="#2A2D38" d="M228.3 135.5l.8.4 22.5-41.3c-.6-2.3-1.3-4.6-2.1-6.9-10.2 20.7-21.2 47.8-21.2 47.8zm4.2 2.3s10.3-14.7 20.4-30.6c.3-.7.6-1.4 1-2.1-.4-2.1-.8-4.1-1.3-6.2l-20.9 38.4.8.5z"/><path fill="#1A1D27" d="M222.79 147.53l.813-1.492 2.634 1.436-.813 1.492zm9.01-10.13L252.7 99c-.3-1.4-.7-2.9-1.1-4.3L229.1 136l2.7 1.4z"/><path fill="#2D313C" d="M228.5 148.7l5.5-10.1-1.5-.8-.7-.4-2.7-1.4-.8-.5-1.4-.7-5.5 10 2.2 1.3 2.7 1.4z"/><path fill="#2A2D38" d="M248.5 146.5l.8.4 6.6-12c.1-2.1.2-4.2.2-6.2-4.5 10.2-7.6 17.8-7.6 17.8zm4.2 2.3s.8-1.1 2.1-3c.2-1.2.3-2.3.4-3.5l-3.3 6.1.8.4z"/><path fill="#1A1D27" d="M242.93 158.553l.814-1.492 2.634 1.435-.813 1.493zm8.97-10.153l3.3-6.1c.3-2.5.5-4.9.6-7.4l-6.6 12 2.7 1.5z"/><path fill="#2D313C" d="M248.6 159.7l5.5-10.1-1.4-.8-.8-.4-2.7-1.4-.7-.5-1.5-.8-5.5 10.1 2.2 1.2 2.7 1.5z"/><path fill="#333743" d="M238.4 141l.8.4 15.9-29.1c-.3-2.4-.7-4.8-1.1-7.2-.3.7-.7 1.4-1 2.1-7.8 17.2-14.6 33.8-14.6 33.8zm4.2 2.3s6-8.5 13.3-19.6c-.1-2-.2-4.1-.3-6.1l-13.8 25.2.8.5z"/><path fill="#1A1D27" d="M232.887 153.003l.814-1.492 2.634 1.436-.814 1.492zM241.8 142.9l13.8-25.2c-.1-1.8-.3-3.5-.5-5.3l-15.9 29.1 2.6 1.4z"/><path fill="#2D313C" d="M231.4 150.3l2.3 1.3 2.6 1.4 2.3 1.2 5.5-10.1-1.5-.8-.8-.4-2.6-1.4-.8-.5-1.5-.8z"/><path fill="#3F4350" d="M226.724 163.064l3.255-5.97 17.121 9.332-3.255 5.97z"/><path fill="#2D313C" d="M228.7 179.1l-2.9 5.3c1.8.4 4.1-.8 6.2-.1l.9-1.7c-1.2-1.4-2.7-2.6-4.2-3.5zm-8.4-3.1l-3.5 6.4h.4c.5-.9.9-1.7 1.3-2.3 0 0 1.5-.6 3 .2.5.3 1 .7 1.5 1.3.1.1.2.2.2.3l2.4-4.3c-1.8-.8-3.6-1.3-5.3-1.6zm-3.5-.6c-1.5-.2-2.5-.1-2.5-.1l-3.9 7.1h2.6l3.8-7z"/><path fill="#1A1D27" d="M213 182.4c1.6 0 2.9 0 3.9-.1l3.5-6.4c-1.4-.3-2.6-.5-3.6-.6l-3.8 7.1zm12.6-4.8l-2.4 4.3c.1.2.3.4.4.7.6 1.1 1.3 1.6 2.2 1.8l2.9-5.3c-1-.6-2.1-1.1-3.1-1.5zm7.3 5l-.9 1.7c.2.1.4.1.5.2.6.3 1.1.7 1.6 1.2.2.2.4.5.6.7l.4-.7c-.6-1.1-1.3-2.2-2.2-3.1z"/><path fill="#2A2D38" d="M198.6 181.3c4 .7 8.2 1 11.7 1l3.9-7.1s1 0 2.5.1c1 .1 2.2.3 3.6.6 1.6.3 3.4.8 5.3 1.6 1 .4 2.1.9 3 1.5 1.5.9 3 2.1 4.3 3.5.8.9 1.6 2 2.2 3.1.4.8.8 1.6 1.1 2.5l8.4-15.5-.8-.4-17.1-9.3 3.2-5.9 17.1 9.3.8.4 2.4-4.4-4.7-2.5-2.6-1.4-7.4-4-2.6-1.4-7.4-4-2.6-1.4-4.7-2.5.2.1-19.8 36.1zm22.2-49.9s16.9-24.1 28.7-43.9c-.7-2.2-1.5-4.3-2.3-6.4L220 131l.8.4zm-4.2-2.3l.8.4 28.3-52c-.5-1.2-1.1-2.4-1.6-3.6-3.6 6.5-8.2 14.1-12.9 21.4-7.9 17.2-14.6 33.8-14.6 33.8z"/><path fill="#1A1D27" d="M211.019 141.152l.814-1.492 2.634 1.435-.814 1.493zM220 131l27.2-49.8-1.5-3.6-28.3 52 2.6 1.4z"/><path fill="#2D313C" d="M209.6 138.4l2.2 1.3 2.7 1.4 2.2 1.2 5.5-10.1-1.4-.8-.8-.4-2.7-1.4-.7-.5-1.5-.8z"/><path fill="#2A2D38" d="M200.6 120.5s10.3-14.7 20.4-30.6c5.2-11.3 10.8-22.9 15.3-30-.7-1.1-1.4-2.1-2.1-3.2L199.8 120l.8.5zm-3.4-1.9L232.4 54c-.9-1.3-1.9-2.7-2.9-3.9-10.5 12.5-33.1 68.1-33.1 68.1l.8.4z"/><path fill="#1A1D27" d="M190.88 130.132l.813-1.493 2.634 1.436-.814 1.493zM199.8 120l34.5-63.3c-.6-.9-1.3-1.9-1.9-2.8l-35.2 64.6 2.6 1.5z"/><path fill="#2D313C" d="M196.6 131.3l5.5-10-1.5-.8-.8-.5-2.6-1.4-.8-.4-1.4-.8-5.5 10.1 2.2 1.2 2.6 1.4z"/><path fill="#333743" d="M210.7 125.9s10.3-14.7 20.4-30.6c4.7-7.3 9.3-14.9 12.9-21.4-.9-2-1.9-3.9-2.9-5.8l-31.3 57.3.9.5zm-4.2-2.3l.8.4 32.2-59-3-5.1c-4.5 7.1-10.1 18.6-15.3 30-8 17.1-14.7 33.7-14.7 33.7z"/><path fill="#1A1D27" d="M200.992 135.588l.813-1.493 2.635 1.436-.814 1.493zM209.9 125.5l31.3-57.3c-.6-1.1-1.1-2.1-1.7-3.1l-32.2 59 2.6 1.4z"/><path fill="#2D313C" d="M199.5 132.9l2.3 1.3 2.6 1.4 2.3 1.2 5.5-10.1-1.5-.8-.8-.4-2.6-1.4-.8-.5-1.5-.7z"/><path fill="#343743" d="M181.418 138.377l3.254-5.97 17.121 9.332-3.254 5.97z"/><path fill="#21242E" d="M180.1 169c.2.4.5.8.8 1.2l3.6 2 6.6-12.2c-1.2-1.2-2.6-2.4-4.2-3.6l-6.8 12.6zm7.4 4.8l2 1.1 5.5-10.1s-.5-.8-1.5-2l-6 11zm-8.6-9.7l5.1-9.4c-1.6-.8-3.4-1.4-5.3-1.7l-4.1 7.5c1.6.6 3.4 1.6 4.3 3.6z"/><path fill="#343743" d="M186.3 176c.6.5 1.2 1.1 1.8 1.6l1.4-2.6-2-1.1-1.2 2.1zm-5.4-5.8c.8 1.1 1.8 2.2 2.9 3.4l.7-1.4-3.6-2z"/><path fill="#11131E" d="M184.5 172.2l-.7 1.4c.8.8 1.7 1.7 2.6 2.4l1.2-2.2 6-11.1c-.6-.8-1.4-1.7-2.4-2.7l-6.7 12.2zm-5.6-8.1c.3.8.5 1.7.5 2.8 0 .6.3 1.3.7 2.1l6.8-12.5c-.9-.6-1.9-1.2-2.9-1.7l-5.1 9.3zm-4.3-3.5l4.1-7.5c-1.2-.2-2.5-.2-3.8-.1l-3.6 6.6c.1.2.1.3.2.5 0-.1 1.5-.1 3.1.5z"/><path fill="#11131E" d="M171.5 160c0 .1.1.2.1.3l-.1-.3z"/><path fill="#232731" d="M178.7 153.1c1.9.3 3.7.9 5.3 1.7 1 .5 2 1.1 2.9 1.7 1.6 1.1 3 2.4 4.2 3.6 1 1 1.8 1.9 2.4 2.7 1 1.2 1.5 2 1.5 2l-5.5 10.1-1.4 2.6c.2.2.4.3.6.5 2.6 1.6 6.2 2.6 10 3.2l19.7-36.2-.2-.1-4.5-2.4-2.6-1.4-7.4-4-2.6-1.4-7.4-4-2.6-1.4-4.7-2.5-2.4 4.4.8.4 17.1 9.3-3.2 5.9-17.1-9.3-.8-.4-8.4 15.5c.9-.2 1.8-.4 2.7-.5 1.1-.3 2.4-.2 3.6 0z"/><path fill="#31365C" d="M201.1 218c-7.2 8.4-25.8 10.3-32.6 10.8-7.7.6-12.8.3-13.4-4.5-.1-1-.3-2-.4-2.9h-13.9c-.3 6.5-.9 20-1.5 34 19.3-1.7 37.5-7.7 53.4-17 2.7-6.7 5.6-13.7 8.4-20.4z"/><path fill="#262936" d="M136.1 221.5l-1.7 11.5-6.5 2.4V256c3.8 0 7.5-.2 11.2-.5.6-14 1.2-27.5 1.5-34h-4.5z"/><path d="M172 161.7c.5 1.4.9 2.9 1.4 4.3.3-.2.6-.3.8-.4 5.7-3-2.1-3.9-2.2-3.9zm-.4-1.3c.1.2.1.4.2.6l-.2-.6z"/><path fill="#C08C76" d="M152.2 175.5c-7.2 5.7-24.2 4.3-24.2 4.3v22h15c.9-6.2 3.6-20.2 11.5-25.4 9.4-6.1 15.6-8.8 19-10.4-.5-1.5-1-2.9-1.4-4.3l-.2-.7c-.1-.2-.1-.4-.2-.6 0-.1-.1-.2-.1-.3-.1-.2-.1-.3-.2-.5-.4-1.2-.7-2.4-1.1-3.5-4.8 7.2-13.1 15.5-18.1 19.4zm26.5-63.1c-1.1 6.2-2.4 14.1-3.4 21.1 5.1.2 7.2-3.2 7.5-5.5.4-2.9 2.2-7.7 3.1-11.8s2.6-11.5 3.2-14.4c.6-2.9 1-6.4-1.3-8.6-.7-.7-2.2-.5-3.9 0-2 3.5-5.4 20.4-5.4 20.4s.1-.5.2-1.2z"/><path fill="#D7A990" d="M178.6 98.9c-.9-3.4-4.3-16.8-4.3-16.8l4.3 2.4s-.5-2.9 0-7.7c.5-4.8-5.7-10.5-7.2-12.5s-4.8-10.8-4.8-10.8V58s-6.7-2.9-16.3-4.3-22.3 4.5-22.3 4.5v121.6s17 1.4 24.2-4.3c5-4 13.3-12.3 18.1-19.6 2.1-3.3 3.5-6.3 3.5-8.7 0-2.8.6-7.9 1.5-13.8 1-7 2.4-14.9 3.4-21.1.2-3 .6-10.7-.1-13.4zm-21-7.3c3.5.3 7.6 5.3 7.6 5.3l-3.2-1.8c-3.2-1.8-12.9 3.2-18.4 5.3s-7-5.3-7-5.3c3.5 2.3 21-3.5 21-3.5z"/><path fill="#462F28" d="M128 58.2s12.7-5.7 22.3-4.3 16.3 4.3 16.3 4.3v-4.5s3.4 8.9 4.8 10.8 7.7 7.7 7.2 12.5 0 7.7 0 7.7l-4.3-2.4s3.4 13.4 4.3 16.8c.7 2.7.3 10.4.1 13.5-.1.8-.1 1.2-.1 1.2s3.4-16.9 5.4-20.4c.1-.2.2-.4.3-.5 1.9-1.9 8.1-12.9 6.7-21.6-1.4-8.6-7.2-32.6-16.8-41.2-9.6-8.6-14.6-15.8-14.6-15.8v3.4L145 6.9l.5 4.3L128 4.1v54.1z"/><path fill="#1E1C21" d="M154 201.9c2.8-5.3 12-5.2 20.6-9.4 10.5-5.1 14.1-14.4 14.1-14.4-.2-.2-.4-.3-.6-.5-.6-.5-1.2-1-1.8-1.6-.9-.8-1.7-1.6-2.6-2.4-1.1-1.1-2.1-2.3-2.9-3.4-.3-.4-.6-.8-.8-1.2-.4-.8-.7-1.5-.7-2.1 0-1.1-.2-2-.5-2.8-.9-2-2.6-3.1-4.2-3.6-1.7-.6-3.2-.6-3.2-.6l.1.3.2.6.2.7s7.9.9 2.3 3.9c-.3.1-.5.3-.8.4-3.3 1.7-9.6 4.3-19 10.4-7.9 5.2-10.6 19.2-11.5 25.4H154z"/><path fill="#181A1E" d="M153.2 206.8c-.2-2.1.1-3.7.8-4.9h-26v33.6l6.5-2.4 1.7-11.5h18.5c-.4-3.4-.8-6.5-1.5-14.8z"/><path fill="#262936" d="M213 182.4h-2.6c-3.5-.1-7.7-.4-11.7-1-3.8-.6-7.3-1.7-10-3.2 0 0-3.5 9.3-14.1 14.4-8.6 4.2-17.8 4.1-20.6 9.4-.7 1.3-1 2.9-.8 4.9.7 8.2 1.1 11.4 1.5 14.7.1.9.2 1.8.4 2.9.6 4.8 5.7 5.1 13.4 4.5 6.8-.6 25.4-2.4 32.6-10.8 6.5-15.4 12.5-29 16.1-35.7h-.4c-.9-.2-2.3-.1-3.8-.1zm17.7 13.3c-.6 1.5-1.4 6.2-2.2 11.7 4.1-5.2 7.9-10.8 11.2-16.7-1.4-.3-2.7-.5-3.7-.7-.9.4-4 2.1-5.3 5.7z"/><path fill="#3D3750" d="M221.5 180.2c-1.5-.8-3-.2-3-.2-.4.6-.8 1.4-1.3 2.3-3.6 6.7-9.6 20.4-16.1 35.7-2.8 6.7-5.7 13.6-8.6 20.5 1.5-.9 3-1.8 4.4-2.7 9.5-22.6 19.4-45.6 24.6-55.6zm5.2 14.6c1.2-5.9 4.6-8.3 7.4-9.2-.4-.4-.9-.8-1.6-1.2-.2-.1-.4-.2-.5-.2-2.1-.7-4.4.5-6.2.1-.8-.2-1.6-.6-2.2-1.8-.1-.2-.3-.5-.4-.7-.1-.1-.2-.2-.2-.3-5 9.6-14.2 30.9-23.1 52.4 8.7-5.9 16.7-12.9 23.7-20.8 1.1-6.9 2.3-14.1 3.1-18.3z"/><path fill="#3D3750" d="M235.9 190c.1-.1.2-.1.2-.1s-.1-1.3-.8-2.6c-2.4.6-5.6 2.4-6.7 7.9-.7 3.6-1.7 9.3-2.7 15.2.8-1 1.7-2 2.5-3.1.8-5.5 1.6-10.2 2.2-11.7 1.4-3.5 4.5-5.2 5.3-5.6z"/><path fill="#332E44" d="M223 181.6c-.5-.6-1-1-1.5-1.3-5.2 9.9-15.1 33-24.5 55.6 1-.6 1.9-1.3 2.9-1.9 8.9-21.5 18.1-42.8 23.1-52.4zm5.6 13.6c1.1-5.5 4.3-7.3 6.7-7.9-.1-.3-.3-.6-.5-.9-.2-.3-.4-.5-.6-.7-2.8.9-6.3 3.2-7.4 9.2-.8 4.2-2 11.4-3.2 18.4.8-.9 1.6-1.8 2.4-2.8.9-6 1.9-11.8 2.6-15.3z"/><path fill="#232749" d="M101.3 221.5c-.1.9-.2 1.8-.4 2.9-.6 4.8-5.7 5.1-13.4 4.5-6.8-.6-25.4-2.4-32.6-10.8 2.8 6.7 5.7 13.6 8.6 20.5 15.9 9.3 34 15.3 53.4 17-.6-14-1.2-27.5-1.5-34h-14.1z"/><path fill="#1B1D2C" d="M121.5 233l-1.7-11.5h-4.6c.3 6.5.9 20 1.5 34 3.7.3 7.4.5 11.2.5v-20.6l-6.4-2.4z"/><path d="M81.7 165.6c.3.1.5.3.8.4.5-1.5 1-2.9 1.4-4.3 0 0-7.8.9-2.2 3.9zm2.7-5.2l-.2.6c.1-.2.1-.4.2-.6z"/><path fill="#9C7360" d="M84.5 160.1c0 .1-.1.2-.1.3-.1.2-.1.4-.2.6l-.2.8c-.5 1.4-.9 2.9-1.4 4.3 3.3 1.7 9.6 4.3 19 10.4 7.9 5.2 10.6 19.2 11.5 25.4h15v-22s-17 1.4-24.2-4.3c-5-4-13.3-12.3-18.1-19.6-.4 1.3-.8 2.6-1.3 4.1zm-7.1-46.5S74 96.7 72 93.2c-1.7-.6-3.1-.7-3.9 0-2.2 2.2-1.9 5.7-1.3 8.6.6 2.9 2.2 10.2 3.2 14.4s2.7 8.9 3.1 11.8c.3 2.3 2.4 5.7 7.5 5.5-1-7-2.4-14.9-3.4-21.1.2.7.2 1.2.2 1.2z"/><path fill="#C08C76" d="M103.8 175.5c7.2 5.7 24.2 4.3 24.2 4.3V58.2s-12.7-5.7-22.3-4.3-16.3 4.3-16.3 4.3v-4.5s-3.4 8.9-4.8 10.8-7.7 7.7-7.2 12.5 0 7.7 0 7.7l4.3-2.4s-3.4 13.4-4.3 16.8c-.7 2.7-.3 10.4-.1 13.5 1.1 6.2 2.4 14.1 3.4 21.1.9 5.9 1.5 11.1 1.5 13.8 0 2.4 1.4 5.4 3.5 8.7 4.8 7.1 13.1 15.4 18.1 19.3zm-4.2-83.9s17.5 5.8 21.1 3.5c0 0-1.5 7.3-7 5.3s-15.2-7-18.4-5.3-3.3 1.8-3.3 1.8 4.1-5 7.6-5.3z"/><path fill="#39241D" d="M77.3 112.4c-.2-3-.7-10.8.1-13.5.9-3.4 4.3-16.8 4.3-16.8l-4.3 2.4s.5-2.9 0-7.7c-.5-4.8 5.7-10.5 7.2-12.5s4.8-10.8 4.8-10.8V58s6.7-2.9 16.3-4.3S128 58 128 58V4.1l-17.5 7.2.5-4.3-14.6 10.5v-3.4s-5 7.2-14.6 15.8S66.4 62.5 65 71.1c-1.4 8.6 4.8 19.6 6.7 21.6.1.1.2.3.3.5 2 3.5 5.4 20.4 5.4 20.4s0-.5-.1-1.2z"/><path fill="#151419" d="M81.4 192.5c8.6 4.2 17.8 4.1 20.6 9.4h11c-.9-6.2-3.6-20.2-11.5-25.4-9.4-6.1-15.6-8.8-19-10.4-.3-.2-.6-.3-.8-.4-5.6-3 2.3-3.9 2.3-3.9l.2-.8.2-.6.1-.3v-.1s-8 0-7.9 6.9c0 2.8-5.3 7.8-9.2 11.2 0 0 3.5 9.2 14 14.4z"/><path fill="#131419" d="M128 214.5v-12.6h-26c.7 1.3 1 2.9.8 4.9-.7 8.2-1.1 11.4-1.5 14.7h18.5l1.7 11.5 6.5 2.4v-20.9z"/><path fill="#1B1D2C" d="M54.9 218c7.2 8.4 25.8 10.3 32.6 10.8 7.7.6 12.8.3 13.4-4.5.1-1 .3-2 .4-2.9.4-3.3.8-6.4 1.5-14.7.2-2.1-.1-3.7-.8-4.9-2.8-5.3-12-5.2-20.6-9.4-10.5-5.1-14.1-14.4-14.1-14.4-7.8 4.6-23.8 4.4-28.6 4.2 3.6 6.8 9.7 20.5 16.2 35.8zm-34.8-28c-1 .2-2.3.4-3.7.7 3.3 5.9 7 11.4 11.2 16.7-.8-5.5-1.6-10.2-2.2-11.7-1.4-3.6-4.5-5.3-5.3-5.7z"/><path fill="#332E44" d="M33 181.6c-.2.3-.4.6-.6 1-1.9 3.8-5.7.3-8.9 1.9-.6.3-1.1.7-1.6 1.2 2.8.9 6.3 3.2 7.4 9.2.8 4.2 2 11.4 3.2 18.4 7 7.8 14.9 14.8 23.7 20.8-9-21.6-18.2-42.9-23.2-52.5zm5.8.7c-.5-.9-.9-1.7-1.3-2.3 0 0-1.5-.6-3 .2 5.2 9.9 15.1 33 24.5 55.6 1.4.9 2.9 1.8 4.4 2.7-2.8-6.9-5.7-13.8-8.6-20.5-6.4-15.3-12.5-29-16-35.7z"/><path fill="#332E44" d="M27.4 195.2c-1.1-5.5-4.3-7.3-6.7-7.9-.7 1.4-.8 2.6-.8 2.6s.1 0 .2.1c.8.4 3.8 2.1 5.2 5.7.6 1.5 1.4 6.2 2.2 11.7.8 1 1.7 2.1 2.5 3.1-.9-6-1.9-11.8-2.6-15.3z"/><path fill="#241E33" d="M34.5 180.2c-.5.3-1 .7-1.5 1.3 5 9.6 14.2 30.9 23.1 52.4 1 .6 1.9 1.3 2.9 1.9-9.4-22.6-19.3-45.6-24.5-55.6zm-5.2 14.6c-1.2-5.9-4.6-8.3-7.4-9.2-.5.5-.9 1.1-1.1 1.6 2.4.6 5.6 2.4 6.7 7.9.7 3.6 1.7 9.3 2.7 15.2.8.9 1.6 1.9 2.4 2.8-1.3-6.9-2.5-14.1-3.3-18.3z"/><path fill="#462F28" d="M143.6 100.4c5.6-2 15.2-7 18.4-5.3s3.2 1.8 3.2 1.8-4.1-5-7.6-5.3c0 0-17.5 5.8-21.1 3.5.1 0 1.5 7.3 7.1 5.3z"/><path fill="#39241D" d="M113.7 100.4c5.6 2 7-5.3 7-5.3-3.5 2.3-21.1-3.5-21.1-3.5-3.5.3-7.6 5.3-7.6 5.3l3.2-1.8c3.2-1.8 12.9 3.2 18.5 5.3z"/></svg>