<svg xmlns="http://www.w3.org/2000/svg" width="256" height="256"><circle fill="#B1B3B5" cx="128" cy="128" r="128"/><path fill="#E0DDDB" d="M219.3 193.6c-3.5-2.6-17.6-11.2-21.7-11.5-4.2-.3-19.2-4.8-19.2-4.8l-.9.1 2.1.8 6.4 13.7-23.3 18.5H128V256c41.8 0 78.8-20 102.2-50.9-5.2-5.6-9.4-10.4-10.9-11.5z"/><path fill="#CCCAC9" d="M128 188.5v22h34.8l23.3-18.5-6.4-13.7-2.1-.8-13.9-5.4c.9 3.5 1.9 6.1 1.9 6.1s-3.8 10.3-37.6 10.3z"/><path fill="#CCAD9F" d="M128 160v5.3s29.6 1.6 32-12.8c.2-1.3.3-2.2.4-2.7.3-4.9.5-9.8.8-13.3-3.3 5.5-7.3 10.9-11.1 16.4-6.1 8.8-22.1 7.1-22.1 7.1z"/><path fill="#1C1C1F" d="M148.9 21.2c12.4 1.7 4.1 1.3-.5 1 5.1.5 16.1 2.3 17.4 8.8 0 0-5.7-3.5-14.8-1.8 0 0 17.6 1.1 19.6 7.7 0 0 2.9 4 1.9 6.9 0 0-10.4-2.9-16-2.6 0 0 17.1 11 20.8 17.9 2.6 4.9 4 13.3 3.4 19.4.4-.1.8-.1 1.1 0l.9.3c.8-4 .2-9.7.1-12.8-.2-3.8-2.6-4.3-2.1-8s-2.2-13.1-2.2-13.1c.8-5.3-6.2-10-6.2-10 .3-4.4-3.2-7.1-3.2-7.1-1.1-5.7-11.3-7.7-11.3-7.7-1.9-5.7-8.3-4.5-12-7.7-3.8-3-17.8-4-17.8-4V28s4.6-9.1 20.9-6.8zm27.8 59.3c.1-.1.2-.2.4-.3l-.4-.8v1.1z"/><path fill="#CCAD9F" d="M172.4 90.3c-.3 5.3-.9 10.4-1.5 15-.3 1.9-.6 3.7-.9 5.4 0 .9.1 1.7.1 2.6 1.4.1 3.1 0 4.6-.6-.1-7.6-.7-15.5-2.3-22.4zm8.3-11.8c-.2 2.4-.7 4.5-1.6 5.9l-2-4.2c-.1.1-.2.2-.4.3 0 3.8.1 17.3-.5 31.7.5-.3 1.1-.6 1.6-1 3.8-3 .5-7.3 3.8-10.1 3.4-2.7 3.7-9.1 4.6-12.5.9-3.1.1-8.3-3.6-9.9l-.9-.3c-.2 0-.6 0-1 .1z"/><path fill="#DEBCAD" d="M163.9 65.9s4.9 22.5 6.1 44.9c.3-1.7.6-3.6.9-5.4 0-.3.3-23.7-7-39.5zm-.5 15.5c-7-22.4-13.3-26-13.3-26s7.5 14.7 10.3 25.6c.9.6 1.7 1.2 2.2 1.9 0 0-.2.8-1.7.7.2 1.2.4 2.3.4 3.3 0 0-.4-1.3-1.2-3.4-.5-.1-1-.3-1.7-.6-2.1-.9-13.4.3-18.7 1.6-1.6 0-2.7-.8-1.1-2.7 0 0 9.9-3.7 16-3.3 0 0 2.2.6 4.3 1.7-3.7-9.5-11.2-26.2-19-29.4 0 0-5.3-1-7.8.8l2.9-2.4-5.7 3 .5-2.4-1.9 1.6V132s1.3.2 2.5-.8c1.8-.8 4.1-.1 5.4 1.3 2.5 2.2 2.7 2.8 5.3 3.7 0 0-2.3 3.9-13.2 3.9V160s16 1.7 22-7.2c3.7-5.5 7.8-10.9 11.1-16.4 2-3.3 3.7-6.7 5-10.1 1-2.7 1.9-6 2.7-9.7-.4-10.9-1.8-24.3-5.3-35.2z"/><path fill="#DEBCAD" d="M169 75.3c1.5 8.5 3 20.3 1.9 30 .7-4.6 1.2-9.7 1.5-15-1.4-6.3-2.5-11.2-3.4-15z"/><path fill="#332D2E" d="M162.8 82.8c-.5-.7-1.4-1.3-2.2-1.9.2.9.4 1.8.6 2.6 1.4.1 1.6-.7 1.6-.7zm-24-1.1c-1.6 1.9-.5 2.7 1.1 2.7 5.3-1.3 16.6-2.5 18.7-1.6.7.3 1.2.5 1.7.6-.3-.9-.8-2-1.2-3.3-2.2-1.1-4.3-1.7-4.3-1.7-6.1-.4-16 3.3-16 3.3z"/><path fill="#6D423E" d="M141.2 136.3c-2.6-.9-2.8-1.5-5.3-3.7-1.3-1.4-3.6-2.1-5.4-1.3-1.2 1-2.5.8-2.5.8v8.1c10.9 0 13.2-3.9 13.2-3.9z"/><path fill="#1C1616" d="M176.7 80.5v-1l.4.8 2 4.2c.9-1.4 1.4-3.5 1.6-5.9.6-6.2-.7-14.5-3.4-19.4-3.7-6.9-20.8-17.9-20.8-17.9 5.6-.3 16 2.6 16 2.6 1-2.9-1.9-6.9-1.9-6.9-2.1-6.5-19.6-7.7-19.6-7.7 9.1-1.8 14.8 1.8 14.8 1.8-1.3-6.5-12.4-8.3-17.4-8.8 4.6.3 12.9.7.5-1C132.6 18.9 128 28 128 28v23.4l1.9-1.6-.5 2.4 5.7-3-2.9 2.4c2.6-1.8 7.8-.8 7.8-.8 7.8 3.2 15.2 19.9 19 29.4.5 1.2.9 2.3 1.2 3.3.8 2.1 1.2 3.4 1.2 3.4 0-1-.2-2.1-.4-3.3-.2-.8-.4-1.7-.6-2.6-2.8-10.8-10.3-25.6-10.3-25.6s6.2 3.7 13.3 26c3.4 10.9 4.8 24.3 5.4 35.2.6 11.5.2 20.2.2 20.2 1.2-6.9 1.4-15.1 1.1-23.4 0-.9-.1-1.7-.1-2.6-1.2-22.4-6.1-44.9-6.1-44.9 7.3 15.9 7 39.2 7 39.5 1.1-9.7-.3-21.5-1.9-30 .8 3.8 2 8.7 3.4 15 1.6 6.9 2.2 14.8 2.3 22.5.3 17.1-2 33-2 33 1.9-8.3 2.9-21.3 3.4-33.6.7-14.6.6-28.1.6-31.8z"/><path fill="#50676D" d="M128 165.3v23.2c33.8 0 37.5-10.3 37.5-10.3s-.9-2.6-1.9-6.1c-1.1-4.1-2.2-9.5-2-13.5.5-7.4-1.3-9.8-1.3-9.8v.9c0 .6-.2 1.5-.4 2.7-2.3 14.5-31.9 12.9-31.9 12.9z"/><path fill="#CCCAC9" d="M88.1 191.8c8.4-.8 39.9-3.4 39.9-3.4-33.8 0-37.5-10.3-37.5-10.3s.6-1.7 1.4-4.3c0 0-29.3 7.9-33.4 8.2-4.2.3-18.2 8.9-21.7 11.5-1.5 1.1-5.7 5.9-10.9 11.5 12.9 17.1 30.1 30.9 49.9 39.8-1.7-11.2-3.3-22.5-3.8-27.1-2.1-16.3 3.2-24.7 16.1-25.9z"/><path fill="#CCCAC9" d="M96.1 230.8c.4 3.5 1.8 12.9 3.2 22 9.2 2.1 18.9 3.2 28.7 3.2v-45.5c-30.1 0-33.4 5.3-31.9 20.3z"/><path fill="#B49A8E" d="M128 165.3V160s-16 1.7-22-7.2c-3.7-5.5-7.8-10.9-11.1-16.4.2 3.5.5 8.4.8 13.3 0 .6.2 1.5.4 2.7 2.3 14.5 31.9 12.9 31.9 12.9z"/><path fill="#060308" d="M79.3 79.4l-.4.8c.1.1.2.2.4.3v-1.1zm-4-.9c-.6-6.2.7-14.5 3.4-19.5 3.7-6.9 20.8-17.9 20.8-17.9-5.6-.3-16 2.6-16 2.6-1-2.9 1.9-6.9 1.9-6.9 2.1-6.5 19.6-7.7 19.6-7.7-9.1-1.8-14.8 1.8-14.8 1.8 1.3-6.5 12.4-8.3 17.4-8.8-4.6.3-12.9.7-.5-1C123.4 18.9 128 28 128 28V8.4s-14 1-17.7 4.2c-3.7 3.2-10.1 1.9-12 7.7 0 0-10.2 1.9-11.3 7.7 0 0-3.5 2.7-3.2 7.1 0 0-7 4.7-6.2 10 0 0-2.7 9.4-2.2 13.1.5 3.7-1.9 4.2-2.1 8-.1 3.1-.8 8.8.1 12.8l.9-.3c.2-.3.6-.3 1-.2z"/><path fill="#B49A8E" d="M79.3 80.5c-.1-.1-.2-.2-.4-.3l-2 4.2c-.9-1.4-1.4-3.5-1.6-5.9-.4-.1-.8-.1-1.1 0l-.9.3c-3.7 1.6-4.5 6.8-3.6 9.9 1 3.4 1.3 9.7 4.6 12.5 3.4 2.7 0 7 3.8 10.1.5.4 1 .7 1.6 1-.5-14.6-.4-28.1-.4-31.8zm5.8 24.8c-.7-4.6-1.2-9.7-1.5-15-1.6 6.9-2.2 14.8-2.3 22.5 1.6.5 3.2.6 4.6.6 0-.9.1-1.7.1-2.6-.3-1.8-.6-3.6-.9-5.5z"/><path fill="#CCAD9F" d="M128 160v-19.8c-10.9 0-13.2-3.9-13.2-3.9 2.6-.9 2.8-1.5 5.3-3.7 1.3-1.4 3.6-2.1 5.4-1.3 1.2 1 2.5.8 2.5.8V51.3l-1.9-1.6.5 2.4-5.7-3 2.9 2.4c-2.6-1.8-7.8-.8-7.8-.8-7.8 3.2-15.2 19.9-19 29.4 2.2-1.1 4.3-1.7 4.3-1.7 6.1-.4 16 3.3 16 3.3 1.6 1.9.5 2.7-1.1 2.7-5.3-1.3-16.6-2.5-18.7-1.6-.7.3-1.2.5-1.7.6-.8 2.1-1.2 3.4-1.2 3.4 0-1 .2-2.1.4-3.3-1.5.1-1.7-.7-1.7-.7.5-.7 1.4-1.3 2.2-1.9 2.8-10.8 10.3-25.6 10.3-25.6s-6.2 3.7-13.3 26c-3.4 10.9-4.8 24.3-5.4 35.2.8 3.7 1.8 7 2.7 9.7 1.3 3.5 3 6.8 5 10.1 3.3 5.5 7.3 10.9 11.1 16.4 6.1 9 22.1 7.3 22.1 7.3zM92.1 65.9c-7.3 15.9-7 39.2-7 39.5.3 1.9.6 3.7.9 5.4 1.2-22.4 6.1-44.9 6.1-44.9z"/><path fill="#CCAD9F" d="M87 75.3c-.8 3.8-2 8.7-3.4 15 .3 5.3.9 10.4 1.5 15-1.1-9.7.3-21.4 1.9-30z"/><path fill="#272122" d="M97.4 82.8c2.1-.9 13.4.3 18.7 1.6 1.6 0 2.7-.8 1.1-2.7 0 0-9.9-3.7-16-3.3 0 0-2.2.6-4.3 1.7-.5 1.2-.9 2.3-1.2 3.3.5-.1 1-.3 1.7-.6zm-4.2 0s.2.8 1.7.7c.2-.8.4-1.7.6-2.6-.9.6-1.7 1.2-2.3 1.9z"/><path fill="#603936" d="M125.5 131.3c-1.8-.8-4.1-.1-5.4 1.3-2.5 2.2-2.7 2.8-5.3 3.7 0 0 2.3 3.9 13.2 3.9v-8.1s-1.3.2-2.5-.8z"/><path fill="#0D0505" d="M92.6 81.4c7-22.4 13.3-26 13.3-26S98.4 70.1 95.6 81c-.2.9-.4 1.8-.6 2.6-.2 1.2-.4 2.3-.4 3.3 0 0 .4-1.3 1.2-3.4.3-.9.8-2 1.2-3.3 3.7-9.5 11.2-26.2 19-29.4 0 0 5.3-1 7.8.8l-2.9-2.4 5.7 3-.5-2.4 1.9 1.6V28s-4.6-9.1-20.9-6.9c-12.4 1.7-4.1 1.3.5 1-5.1.5-16.1 2.3-17.4 8.8 0 0 5.7-3.5 14.8-1.8 0 0-17.6 1.1-19.6 7.7 0 0-2.9 4-1.9 6.9 0 0 10.4-2.9 16-2.6 0 0-17.1 11-20.8 17.9-2.6 4.9-4 13.3-3.4 19.4.2 2.4.7 4.5 1.6 5.9l2-4.2.4-.8v1c0 3.8-.1 17.3.5 31.7.5 12.3 1.5 25.4 3.4 33.6 0 0-2.3-15.9-2-33 .1-7.7.8-15.6 2.3-22.5 1.5-6.3 2.6-11.2 3.4-15-1.5 8.5-3 20.3-1.9 30 0-.3-.3-23.6 7-39.5 0 0-4.9 22.5-6.1 44.9 0 .9-.1 1.7-.1 2.6-.3 8.3-.1 16.5 1.1 23.4 0 0-.4-8.7.2-20.2.6-10.6 2-24 5.5-34.9z"/><path fill="#43575D" d="M128 188.5v-23.2s-29.6 1.6-32-12.8c-.2-1.3-.3-2.2-.4-2.7-.1-.6 0-.9 0-.9s-1.7 2.3-1.3 9.8c.3 4.6-1.3 11.1-2.5 15.3-.7 2.6-1.4 4.3-1.4 4.3s3.8 10.2 37.6 10.2z"/><path fill="#BBBABA" d="M128 210.5v-22s-31.5 2.6-39.9 3.4c-12.9 1.2-18.2 9.6-16.2 25.9.6 4.6 2.2 15.9 3.8 27.1 7.5 3.4 15.4 6 23.6 7.9-1.4-9.1-2.8-18.5-3.2-22-1.5-15 1.8-20.3 31.9-20.3z"/></svg>