<svg xmlns="http://www.w3.org/2000/svg" width="256" height="256"><circle fill="#B1B3B5" cx="128" cy="128" r="128"/><path fill="#15396B" d="M188.8 182.8c-.4 4.9-6.3 15.4-11.6 19.7.5.4 1 .7 1.5.9 7.1-6.1 12.5-11.8 14.4-15 5.7-9.6-2.9-14.8-2.9-14.8s-7.8-1.4-16.8-8.1c-.3 2.9-.6 6-.8 9.1 6 1.3 16.5 4.2 16.2 8.2z"/><path fill="#062853" d="M188.8 182.8c.3-4-10.2-6.9-16.1-8.2-.7 11.7-.1 23.9 4.6 27.9 5.2-4.2 11.1-14.8 11.5-19.7z"/><path fill="#5E3C30" d="M157.2 172.3c-11.4 8-28 4.7-29.1 4.4v53.5c15 0 36.4-14.3 50.7-26.7-.6-.2-1.1-.5-1.5-.9-4.7-4-5.3-16.2-4.6-27.9.2-3.1.5-6.2.8-9.1.8-7.5 1.9-13.6 2.1-15-3.8 10.1-9.3 15.4-18.4 21.7zm25.5-45.1c2.2 3.2 7.8 3.7 8.9 2.2 1.1-1.4 3.4-6.4 3.4-11.3s0-14 .8-22.2.2-11-1.6-12.8-4.2-.3-5.6 1.8c-.8 1.2-2.7 2.3-4.1 3-.7 11.9-2 25.7-3.5 37 .6.6 1.1 1.4 1.7 2.3z"/><path fill="#764931" d="M128 8.4zm0 150.6v17.8c1.2.2 17.8 3.6 29.1-4.4 9.1-6.4 14.6-11.6 18.4-21.9 1.1-3.1 2.1-6.6 3-10.7.8-3.9 1.7-9.1 2.5-15 1.5-11.2 2.8-25 3.5-37 .6-10.9.8-20.3.1-24.7-1.9-11.8-8-48.8-56.6-54.8V159zm22-95.8c2.4-.5 6.2-1 10.2 0 4 1 5.1 3.6 8 7.2 2.9 3.6 2.4 2.9 3.1 4.6.7 1.7 2.9 2.9 2.9 2.9s-1.2.2-2.6 0c-1.4-.2-6-5.3-7.4-6.2-1.4-1-6.7-3.1-9.3-1.9-2.6 1.2-8.6 1.9-8.6 1.9s-1.2 0-1.2-1.3-1.7-3.2-1.7-3.2 4.2-3.5 6.6-4z"/><path fill="#4E4039" d="M146.2 71.6s6-.7 8.6-1.9c2.6-1.2 7.9 1 9.3 1.9 1.4 1 6 6 7.4 6.2 1.4.2 2.6 0 2.6 0s-2.2-1.2-2.9-2.9c-.7-1.7-.2-1-3.1-4.6-2.9-3.6-4.1-6.2-8-7.2-4-1-7.8-.5-10.2 0-2.4.5-6.7 3.8-6.7 3.8s1.7 1.9 1.7 3.2c.1 1.5 1.3 1.5 1.3 1.5z"/><path fill="#194070" d="M191.7 216.4c-15.5 14.2-61.7 20.2-63.7 20.5V256c25.4 0 49.2-7.4 69.1-20.2 6-11.4 7.9-23.8 8.5-32.1-4.3 3.6-8.9 8-13.9 12.7z"/><path fill="#166FB4" d="M229.5 197.6c-7.2-5.9-14.8-1.7-23.9 6.1-.5 8.3-2.4 20.7-8.5 32.1 13.9-8.9 26-20.5 35.5-34-1.1-1.9-2.2-3.5-3.3-4.9.2.4.2.7.2.7z"/><path fill="#204E89" d="M193.1 188.5c-1.9 3.2-7.3 8.8-14.4 15-14.3 12.3-35.7 26.6-50.7 26.7v6.7c2-.2 48.2-6.3 63.7-20.5 5-4.6 9.6-9.1 13.9-12.7 9.1-7.8 16.8-11.9 23.9-6.1 0 0-.1-.3-.2-.7-.9-3.4-5.5-18.3-20-20.4 0 0-5.3-6.2-14.8-5.3l-4.3 2.4c.1 0 8.7 5.3 2.9 14.9z"/><path fill="#062853" d="M62.9 188.5c1.9 3.2 7.3 8.8 14.4 15 .6-.2 1.1-.5 1.5-.9-5.3-4.3-11.2-14.8-11.6-19.7-.3-4 10.2-6.9 16.1-8.2-.2-3.1-.5-6.2-.8-9.1-9.1 6.8-16.8 8.1-16.8 8.1s-8.6 5.2-2.8 14.8z"/><path fill="#00123A" d="M83.4 174.6c-6 1.3-16.5 4.2-16.1 8.2.4 4.9 6.3 15.4 11.6 19.7 4.6-4 5.2-16.2 4.5-27.9z"/><path fill="#4C2F24" d="M128 236.8V256v-19.2zm-49.2-34.3c-.5.4-1 .7-1.5.9 14.3 12.4 35.8 26.7 50.8 26.7v-53.3s-17.4 3.9-29.2-4.4c-9.1-6.4-14.6-11.6-18.4-21.9.3 1.4 1.3 7.5 2.1 15 .3 2.9.6 6 .8 9.1.7 11.7.1 23.9-4.6 27.9zM67.4 84.8c-1.4-2.1-3.8-3.5-5.6-1.8s-2.4 4.6-1.6 12.8.8 17.2.8 22.2 2.2 9.9 3.4 11.3c1.1 1.4 6.7 1 8.9-2.2.6-.8 1.2-1.6 1.7-2.4-1.5-11.2-2.8-25-3.5-37-1.5-.6-3.3-1.7-4.1-2.9z"/><path fill="#5E3C30" d="M98.8 172.3c11.8 8.3 29.2 4.4 29.2 4.4V8.4c-48.6 5.9-54.7 42.9-56.6 54.8-.7 4.4-.6 13.8.1 24.7.7 11.9 2 25.7 3.5 37 .8 5.9 1.6 11.1 2.5 15 .9 4.1 1.9 7.6 3 10.7 3.7 10.1 9.2 15.4 18.3 21.7zM84.7 75c.7-1.7.2-1 3.1-4.6 2.9-3.6 4.1-6.2 8-7.2 4-1 7.8-.5 10.2 0 2.4.5 6.7 3.8 6.7 3.8s-1.7 2-1.7 3.3c0 1.3-1.2 1.3-1.2 1.3s-6-.7-8.6-1.9c-2.6-1.2-7.9 1-9.3 1.9-1.4 1-6 6-7.4 6.2-1.4.2-2.6 0-2.6 0s2.1-1.2 2.8-2.8z"/><path fill="#3A2F29" d="M84.4 77.8c1.4-.2 6-5.3 7.4-6.2 1.4-1 6.7-3.1 9.3-1.9 2.6 1.2 8.6 1.9 8.6 1.9s1.2 0 1.2-1.3 1.7-3.2 1.7-3.2-4.3-3.4-6.7-3.8c-2.4-.5-6.2-1-10.2 0-4 1-5.1 3.6-8 7.2-2.9 3.6-2.4 2.9-3.1 4.6S81.7 78 81.7 78s1.3.1 2.7-.2z"/><path fill="#0B2D56" d="M128 236.8c-2-.2-48.2-6.3-63.7-20.5-5-4.6-9.6-9.1-13.9-12.7.5 8.3 2.4 20.7 8.5 32.1C78.8 248.6 102.5 256 128 256v-19.2z"/><path fill="#135F9B" d="M26.5 197.6s.1-.3.2-.7c-1.1 1.4-2.2 3-3.3 4.9 9.5 13.5 21.6 25.1 35.5 34-6-11.4-7.9-23.8-8.5-32.1-9.1-7.9-16.7-12-23.9-6.1z"/><path fill="#15396B" d="M50.4 203.6c4.3 3.7 8.9 8.1 13.9 12.7 15.5 14.2 61.7 20.2 63.7 20.5h.1v-6.7c-15 0-36.5-14.3-50.8-26.7-7.1-6.1-12.5-11.8-14.4-15-5.7-9.6 2.9-14.8 2.9-14.8l-4.3-2.4c-9.6-1-14.8 5.3-14.8 5.3-14.4 2.1-19.1 17-20 20.4-.1.4-.2.7-.2.7 7.2-5.9 14.8-1.8 23.9 6z"/></svg>