<svg xmlns="http://www.w3.org/2000/svg" width="256" height="256"><circle fill="#B1B3B5" cx="128" cy="128" r="128"/><path fill="#AB7E69" d="M81.2 113.4c0-.6-1.8-1.6-1.4-3.8.3-2.2-.2-4.1-.2-4.1s.4-1.8 0-2.4.4-1.4 0-1.9.4-1.9 0-2.4c-.3-.5-1.6-1.1-1.9-1.8-.3-.6-2.2-3.5-2.2-3.5l2.2-.6-4.3-1.8v-1.5c-1.9-.6-3.9-.9-5.2-.6-3.7.8-4.3 6.2-4 9.9.3 3.7 1.3 8.8 3.8 13.6s4 10.2 5.6 12.5 5.4 5.9 8.1 5.3c.4-.1.9-.2 1.3-.3-.6-4.5-1.1-9.4-1.5-14.3-.1-1.1-.3-2-.3-2.3zm46.7 92.7v-29.2c-.5.2-2.6.6-10.4-.1-10-.9-24-17.4-29.5-25.9.4 6.6.7 13.4.9 15.8.1 2.1.3 4.8.9 7.7l.1-.1c0-.2 15.4 19.8 38 31.8z"/><path fill="#C08C76" d="M117.5 176.7c7.8.7 9.8.4 10.4.1v-27.2c-.2-.1-.7-.4-.8-.6-.2-.4-.8-.2-.8-.2l-.4-.1c-.4-.1-.6.5-.6.5h-.9c-.3 0-2 .4-2 .4l-.8.6s-.9-.1-1.5-.1-1 .4-1.8 1.1c-.8.7-1.4.2-2.6 0s-1.5.4-1.5.4-.4.6-1.2 1.3c-.8.7-1.2 0-1.5 0s-1.5.6-1.5.6 1.4-5.9 2.7-7.7c1.2-1.8 6.2-2.3 9.2-2.2 2.5.1 5.3-.9 6-1.1V79.3s-15.7 0-28.5-5c0 0 20 4.7 28.5 2.8v-2.8s-8 .4-14.2-1.3c-6.2-1.7-8.2-1.4-10.3-1.3 0 0 5.3-1.1 12.2-.1 7 1 12.2 1.1 12.2 1.1v-3.1s-14.3 0-25.9-5c0 0 18.2 4.7 25.9 2.8V44.8c-1.5-.3-11.8-2.5-17.4-4.7-6.1-2.4-8.6-2.2-8.6-2.2l2.2 2.7-3.1-.6 2.8 4.9H99l-2.8 1.6 1 3.7s-1.6.3-2.1.8-.7 1.3 0 2.2.7 2.1.7 2.1-.6.3-1.1 1.4c-.6 1.1-.8 4.3-.8 4.3v1.6s0-1-1 1.3c-1 2.2-1.4 1-1.6 3.8s0 4.9 0 4.9-2.2 4.2-3.5 4.6c-1.2.5-2.4 2.7-2.4 2.7v4.2s1.2 3 0 4.9c-1.2 1.8-1.9 3.9-1.9 3.9s-.2 2.9 0 4.8-.2 2.1-.1 3.5.2 3 0 3.2c-.3.3 1.1 4.7 1.6 5.2s.5 1.4.5 1.4l-.5 2.7s.2 2.1.2 2.7v1.9c0 .6.2 1.9.2 1.9l-3.3-1.6s-.4-1.7-.7-3.1c.5 4.9 1 9.8 1.5 14.3 1.2 9.4 2.5 17.1 4 19.6.3.4.6.9.9 1.4 5.7 8.5 19.7 25 29.7 25.9zm-10.3-84.5c6.3 1.2 10.2 1.9 11.4 1.1 0 0 .4 4.3-1.7 4.3-2 0-17.1-3.1-24.8-1 0 0 8.8-5.6 15.1-4.4z"/><path fill="#928C87" d="M116.9 97.6c2 0 1.7-4.3 1.7-4.3-1.2.8-5 .1-11.4-1.1-6.3-1.2-15.1 4.4-15.1 4.4 7.7-2.1 22.8 1 24.8 1z"/><path fill="#ACA49E" d="M121.9 143.6c-2.9-.1-7.9.4-9.2 2.2-1.2 1.8-2.7 7.7-2.7 7.7s1.2-.6 1.5-.6.7.7 1.5 0 1.2-1.3 1.2-1.3.4-.6 1.5-.4 1.8.7 2.6 0 1.2-1.1 1.8-1.1 1.5.1 1.5.1l.8-.6s1.7-.4 2-.4h.9s.2-.6.6-.5l.4.1s.6-.1.8.2c.1.2.5.5.8.6v-7.3c-.7.4-3.5 1.4-6 1.3z"/><path fill="#757064" d="M119.1 223.9c-2.4-4.8-6-14.3-7.8-19.3-3.4 4.6-10.7 15.5-14.4 30.4l-2.4 1s-5.9-14.3-10.1-27.5c1 13 3.1 27.6 5.6 41.8 8.3 2.6 16.9 4.3 25.8 5.2l3.9-31.3-.6-.3z"/><path fill="#1C1E1E" d="M127.9 225.4c-3.8 0-7-.9-8.3-1.3l-3.9 31.3c4 .4 8.1.6 12.2.6v-30.6z"/><path fill="#343635" d="M127.9 206.8l-14.8-4.6s-.7.8-1.9 2.4c1.8 5 5.4 14.4 7.8 19.3 0 0 .2.1.6.2 1.3.4 4.5 1.3 8.3 1.3v-18.6z"/><path fill="#928E80" d="M85.3 179.4l-1.1 1.9c-.9 7.4-.8 16.8.1 27.2 4.2 13.2 10.1 27.5 10.1 27.5l2.4-1c3.7-14.9 11-25.8 14.4-30.4 1.2-1.6 1.9-2.4 1.9-2.4l14.8 4.5v-.7c-22.6-12-38-32-38-32l-.1.1c-2.2 2.3-3.5 3.8-4.5 5.3z"/><path fill="#252722" d="M44.6 203.6c-4.7 2-10.9 3.8-16 5.1 7.6 9.3 16.5 17.6 26.4 24.5l14.2-41.8c-9.4 5.7-18.6 9.6-24.6 12.2zm40.7-24.2z"/><path fill="#333630" d="M84.3 181.3l1.1-1.9c-.3.1-9.3 4.3-15.3 9.7l-.8 2.2L55 233.2c10.6 7.4 22.3 13.2 34.9 17.1-2.4-14.1-4.5-28.7-5.6-41.8-.8-10.5-.9-19.9 0-27.2z"/><path fill="#ACA49E" d="M128.1 9.1c-.1 0 0 0 0 0zm-54.6 82l4.3 1.8-2.2.6s1.9 2.9 2.2 3.5c.3.6 1.6 1.3 1.9 1.8.3.5-.4 1.9 0 2.4s-.4 1.3 0 1.9 0 2.4 0 2.4.5 1.9.2 4.1c-.3 2.2 1.4 3.2 1.4 3.8 0 .3.2 1.1.4 2.1.3 1.5.7 3.1.7 3.1l3.3 1.6s-.2-1.3-.2-1.9v-1.9c0-.6-.2-2.7-.2-2.7l.5-2.7s0-1-.5-1.4c-.5-.5-1.9-4.9-1.6-5.2.3-.3.1-1.8 0-3.2-.1-1.4.2-1.6.1-3.5-.2-1.9 0-4.8 0-4.8s.7-2.1 1.9-3.9c1.2-1.8 0-4.9 0-4.9v-4.2s1.2-2.2 2.4-2.7 3.5-4.6 3.5-4.6-.2-2.1 0-4.9.4-1.7 1.4-3.9c1-2.2 1-1.3 1-1.3v-1.6s.2-3.2.8-4.3c.6-1.1 1.1-1.4 1.1-1.4s0-1.1-.7-2.1-.5-1.8 0-2.2c.5-.5 2.1-.8 2.1-.8l-1-3.7 2.8-1.6h4.7l-2.8-4.9 3.1.6-2.2-2.7s2.6-.2 8.6 2.2c5.6 2.2 15.9 4.4 17.4 4.7V9.2c-.7.1-3.2.6-4 .2-.9-.5-1.7 0-1.7 0h-2.1s-1.2.6-2.6 2.5c-1.4 1.9-2.4 0-2.4 0s-1.4.2-3.3 0-1.4 1.8-1.4 1.8l-.2 1.4-1.9 1.6s-.9-.1-1.4 0c-.5.2-5.4-.2-6.6 0-1.2.2-2.8 2.6-2.8 2.6l-2.4 2.4-1.9 1.9L91 26l-1.4 1-1.7 1-2.6 2.1H81l-2.9 4.6s-1 .8-1.4 1.3c-.3.5.2 2.4.2 2.4l-.9 3.8c-.9 3.8-.5 1.4-.5 1.4s-.7.5-.7 2.4-.2 2.4-.2 2.4L72.3 50l-.7 2.6c-.7 2.6-.2 1.3-.7 2.2s-.4 1.3-.9 3.2c-.5 1.9 0 1.3 0 2.1s-.3.8-1.7 2.2c-1.4 1.4 0 0-.5.6s2.1 3.8 1.9 4.8.9 1.6.9 1.6L68.8 72s.2 2.6.1 3c-.2.5 0 .8 0 .8s.1.9 1.1 3.2c1 2.3-1.2 0-1.2 0v1.7s2.1 1.1 3.5 2.6c1 1 1.2 4.4 1.2 6.3v1.5z"/><path fill="#C08C76" d="M182.5 91.1l-4.3 1.8 2.2.6s-1.9 2.9-2.2 3.5c-.3.6-1.6 1.3-1.9 1.8-.3.5.4 1.9 0 2.4s.4 1.3 0 1.9 0 2.4 0 2.4-.5 1.9-.2 4.1c.3 2.2-1.4 3.2-1.4 3.8 0 .3-.2 1.1-.4 2.1-.5 4.9-1 9.8-1.5 14.3.4.1.9.2 1.3.3 2.7.6 6.5-3 8.1-5.3s3-7.7 5.6-12.5 3.5-9.9 3.8-13.6c.3-3.7-.3-9.1-4-9.9-1.4-.3-3.3 0-5.2.6.1 1.1.1 1.7.1 1.7zm-44 85.6c-10.6 1-10.6 0-10.6 0v29.4c22.7-12 38.2-32.1 38.2-32.1l.1.1c.6-2.9.8-5.5.9-7.7.2-2.4.5-9.2.9-15.8-5.5 8.7-19.5 25.2-29.5 26.1z"/><path fill="#D7A990" d="M173.7 118.7l-3.3 1.6s.2-1.3.2-1.9v-1.9c0-.6.2-2.7.2-2.7l-.5-2.7s0-1 .5-1.4c.5-.5 1.9-4.9 1.6-5.2-.3-.3-.1-1.8 0-3.2.1-1.4-.2-1.6-.1-3.5.2-1.9 0-4.8 0-4.8s-.7-2.1-1.9-3.9c-1.2-1.8 0-4.9 0-4.9V80s-1.2-2.2-2.4-2.7-3.5-4.6-3.5-4.6.2-2.1 0-4.9-.5-1.8-1.5-4-1-1.3-1-1.3v-1.6s-.2-3.2-.8-4.3c-.6-1.1-1.1-1.4-1.1-1.4s0-1.1.7-2.1.5-1.8 0-2.2c-.5-.5-2.1-.8-2.1-.8l1-3.7-2.8-1.6h-4.7l2.8-4.9-3.1.6 2.2-2.7s-2.6-.2-8.6 2.2-17.6 4.8-17.6 4.8v22.7c7.8 1.9 25.9-2.8 25.9-2.8-11.6 5-25.9 5-25.9 5v3.1s5.3-.1 12.2-1.1c7-1 12.2.1 12.2.1-2.2-.1-4.2-.4-10.3 1.3-6.2 1.7-14.2 1.3-14.2 1.3v2.8c8.5 1.9 28.5-2.8 28.5-2.8-12.8 5-28.5 5-28.5 5v63.1s3.3 1.3 6.2 1.2c2.9-.1 7.9.4 9.2 2.2 1.2 1.8 2.7 7.7 2.7 7.7s-1.2-.6-1.5-.6-.7.7-1.5 0-1.2-1.3-1.2-1.3-.4-.6-1.5-.4-1.8.7-2.6 0-1.2-1.1-1.8-1.1-1.5.1-1.5.1l-.8-.6s-1.7-.4-2-.4h-.9s-.2-.6-.6-.5l-.4.1s-.6-.1-.8.2c-.2.4-1 .7-1 .7v27s0 1 10.6 0c10-.9 24-17.4 29.5-25.9.3-.5.6-1 .9-1.4 1.5-2.5 2.8-10.1 4-19.6.6-4.5 1.1-9.4 1.5-14.3-.2 1.4-.6 3.1-.6 3.1zm-34.6-21.1c-2 0-1.7-4.3-1.7-4.3 1.2.8 5 .1 11.4-1.1 6.3-1.2 15.1 4.4 15.1 4.4-7.7-2.1-22.8 1-24.8 1z"/><path fill="#ACA49E" d="M163.9 96.6s-8.7-5.6-15.1-4.4c-6.3 1.2-10.2 1.9-11.4 1.1 0 0-.4 4.3 1.7 4.3 2 0 17.1-3.1 24.8-1z"/><path fill="#CFC5BC" d="M128.9 149.1c.2-.4.8-.2.8-.2l.4-.1c.4-.1.6.5.6.5h.9c.3 0 2 .4 2 .4l.8.6s.9-.1 1.5-.1 1 .4 1.8 1.1c.8.7 1.4.2 2.6 0s1.5.4 1.5.4.4.6 1.2 1.3c.8.7 1.2 0 1.5 0s1.5.6 1.5.6-1.4-5.9-2.7-7.7c-1.2-1.8-6.2-2.3-9.2-2.2-2.9.1-6.2-1.2-6.2-1.2v7.5c0-.2.8-.6 1-.9z"/><path fill="#847F72" d="M161.6 236l-2.4-1c-3.7-14.9-11-25.8-14.4-30.4-1.8 5-5.4 14.4-7.8 19.3 0 0-.2.1-.6.2l3.9 31.3c8.9-.9 17.5-2.6 25.8-5.2 2.4-14.1 4.5-28.7 5.6-41.8-4.2 13.3-10.1 27.6-10.1 27.6z"/><path fill="#2C2E2E" d="M127.9 225.4V256h.1c4.2 0 8.3-.2 12.3-.6l-3.9-31.3c-1.3.4-4.6 1.3-8.5 1.3z"/><path fill="#404241" d="M127.9 206.8v18.6c3.9 0 7.2-.9 8.5-1.3.4-.1.6-.2.6-.2 2.4-4.8 6-14.3 7.8-19.3-1.2-1.6-1.9-2.4-1.9-2.4l-15 4.6z"/><path fill="#A7A192" d="M127.9 206.2v.7l15-4.6s.7.8 1.9 2.4c3.4 4.6 10.7 15.5 14.4 30.4l2.4 1s5.9-14.3 10.1-27.5c.8-10.4 1-19.8.1-27.2l-1.1-1.9c-1-1.5-2.2-3-4.4-5.2l-.1-.1c-.1-.1-15.6 20-38.3 32z"/><path fill="#333630" d="M186.8 191.3l14.2 41.8c9.9-6.9 18.8-15.1 26.4-24.5-5.1-1.3-11.3-3.1-16-5.1-6-2.5-15.2-6.4-24.6-12.2zm-16.1-11.9z"/><path fill="#494B44" d="M186 189.1c-6-5.3-15-9.5-15.3-9.7l1.1 1.9c.9 7.4.8 16.8-.1 27.2-1 13-3.1 27.6-5.6 41.8 12.6-3.9 24.3-9.7 34.9-17.1l-14.2-41.8-.8-2.3z"/><path fill="#CFC5BC" d="M127.9 44.7s11.6-2.4 17.6-4.7 8.6-2.2 8.6-2.2l-2.2 2.7 3.1-.6-2.8 4.9h4.7l2.8 1.6-1 3.7s1.6.3 2.1.8.7 1.3 0 2.2-.7 2.1-.7 2.1.6.3 1.1 1.4c.6 1.1.8 4.3.8 4.3v1.6s0-1 1 1.3c1 2.2 1.4 1 1.6 3.8s0 4.9 0 4.9 2.2 4.2 3.5 4.6c1.2.5 2.4 2.7 2.4 2.7V84s-1.2 3 0 4.9c1.2 1.8 1.9 3.9 1.9 3.9s.2 2.9 0 4.8.2 2.1.1 3.5-.2 3 0 3.2c.3.3-1.1 4.7-1.6 5.2s-.5 1.4-.5 1.4l.5 2.7s-.2 2.1-.2 2.7v1.9c0 .6-.2 1.9-.2 1.9l3.3-1.6s.4-1.7.7-3.1c.2-1 .4-1.9.4-2.1 0-.6 1.8-1.6 1.4-3.8-.3-2.2.2-4.1.2-4.1s-.4-1.8 0-2.4-.4-1.4 0-1.9-.4-1.9 0-2.4c.3-.5 1.6-1.1 1.9-1.8.3-.6 2.2-3.5 2.2-3.5l-2.2-.6 4.3-1.8v-1.5c0-2 .2-5.4 1.2-6.3 1.4-1.4 3.5-2.6 3.5-2.6V79s-2.2 2.3-1.2 0c1-2.3 1.2-3.1 1.2-3.1s.2-.3 0-.8.1-3 .1-3l-1.8-2.7s1-.6.9-1.6 2.4-4.2 1.9-4.8.9.8-.5-.6-1.7-1.4-1.7-2.2.5-.2 0-2.1c-.5-1.9-.3-2.2-.9-3.2s0 .3-.7-2.2-.7-2.6-.7-2.6l-2.4-1.8s-.2-.5-.2-2.4-.7-2.4-.7-2.4.3 2.4-.5-1.4l-.9-3.8s.5-1.9.2-2.4-1.4-1.3-1.4-1.3l-2.9-4.6h-4.3l-2.6-2.1-1.7-1-1.4-1-2.2-2.4-1.9-1.9-2.4-2.4s-1.6-2.4-2.8-2.6c-1.2-.2-6.1.2-6.6 0s-1.4 0-1.4 0L146 15l-.2-1.4s.5-1.9-1.4-1.8c-1.9.2-3.3 0-3.3 0s-1 1.9-2.4 0-2.6-2.5-2.6-2.5H134s-.9-.5-1.7 0c-.7.4-3.3 0-4-.2h-.2v35.6z"/><path fill="#C08C76" d="M156.4 74.3s-20 4.7-28.5 2.8v2.2s15.7 0 28.5-5zm-2.5-9.6s-18.2 4.7-25.9 2.8v2.2c-.1 0 14.2 0 25.9-5zM142.1 73c6.2-1.7 8.2-1.4 10.3-1.3 0 0-5.3-1.1-12.2-.1-7 1-12.2 1.1-12.2 1.1v1.5c-.1.1 7.9.5 14.1-1.2z"/><path fill="#AE806B" d="M99.4 74.3c12.8 5 28.5 5 28.5 5v-2.2c-8.5 1.9-28.5-2.8-28.5-2.8zm2.6-9.6c11.6 5 25.9 5 25.9 5v-2.2c-7.8 1.9-25.9-2.8-25.9-2.8zm13.7 6.9c-7-1-12.2.1-12.2.1 2.2-.1 4.2-.4 10.3 1.3 6.2 1.7 14.2 1.3 14.2 1.3v-1.5c-.1 0-5.4-.1-12.3-1.2z"/></svg>