<svg xmlns="http://www.w3.org/2000/svg" width="256" height="256"><circle fill="#B2B4B5" cx="128" cy="128" r="128"/><path fill="#A37864" d="M78.5 93.5c-.8-1.5-1.6-1.5-1.6-1.5l1-2.9-1-2.6-.4-.8c-2-1.4-4.1-2.4-5.1-2.3-2.6.5-2.2 4-1.4 8.1s3.5 11.5 4.2 15.7c.6 4.1 2.6 12.3 4.6 13.5 1.5.9 3 1.3 5.2.9-.2-4.9-1.1-12.8-2.2-20.6.1.3-2.5-6.1-3.3-7.5zm49.3 103.1v-19.8c-9.3-.1-11.9-2.1-17.7-4.7-5.8-2.7-17.5-17.6-21.5-24.1.6 3.8 1.6 10.3 1.8 17.4 2.7 3.2 17.1 20.4 37.4 31.2z"/><path fill="#C08C76" d="M110.1 172c5.8 2.7 8.4 4.7 17.7 4.7v-34.9c-1.1-.2-4.7-.5-11.8.8-8.6 1.6-7 5.1-7 5.1l-3.8-1.9c4.1-8.4 20.1-9.6 22.6-9.7V53.9c-1.6-.2-8.5-1.1-16.1-3.2-8.6-2.4-13.7-4.5-19.3-2.4 0 0-2.7 4.3-2.6 8.8.2 4.5.6 12.1-1.8 14S83.1 76 83.1 76l-1.8 2.1s.2.8 0 1.3 0 1.1 0 1.1l-.1.8s-.2 4.8 0 5.3.7 2.9.7 3.4.8 8.9-.1 11.3c1 7.7 2 15.6 2.2 20.6v1.2c.2 11.3.5 18.2 4.3 24.6.1.1.1.2.2.3 4.1 6.4 15.8 21.3 21.6 24zM97 85.8s5.7 3.5 11.7 5.1c5.9 1.6 12.5 2.9 12.3 5.7l-1.9.8s-14.8-4-18.8-4.2-10.7-1.4-10.7-1.4 4.4-6.8 7.4-6z"/><path fill="#3D2E23" d="M77.9 89.2l-1 2.9s.8 0 1.6 1.4 3.4 7.8 3.4 7.8c1-2.4.1-10.8.1-11.3s-.5-2.9-.7-3.4 0-5.3 0-5.3l.1-.8s-.2-.6 0-1.1 0-1.3 0-1.3l1.8-2.1s2.6-3 4.9-4.9c2.4-1.9 1.9-9.6 1.8-14-.2-4.5 2.6-8.8 2.6-8.8 5.6-2.1 10.7 0 19.3 2.4 7.6 2.1 14.5 3 16.1 3.2V8.4c-7 0-11 1.3-12.7 1.9-1.8.6-4.9 0-8.1 0s-7.3 1.8-11 4-7.5 7.2-10.1 8.6-3.7 5.9-3.8 8.9c-.2 3-5.9 9.3-5.9 9.3s-.6 1.8-1.4 2.7c-.8 1-.3 2.4-.8 3.6-.5 1.2-.1 1.5 0 2.4.1 1 .7 3.2.7 3.2l1.4 3.8s-.5 1.3-1 1.8-1.2 2.2-1.2 2.2v1.8l1.2 2.9s-.2 2.1-1 4.8c-.8 2.7 1.1 10.4 1.1 10.4v2.9l.8 1 .6 1.3.4.8.8 2.5z"/><path fill="#3D2E23" d="M119.1 97.5l1.9-.8c.2-2.9-6.4-4.2-12.3-5.7-5.9-1.6-11.7-5.1-11.7-5.1-3-.8-7.5 6.1-7.5 6.1s6.7 1.3 10.7 1.4 18.9 4.1 18.9 4.1zm-13.9 48.3l3.8 1.9s-1.6-3.5 7-5.1c7.1-1.3 10.7-1 11.8-.8v-5.7c-2.5.2-18.5 1.4-22.6 9.7z"/><path fill="#96909E" d="M119.1 209.5c-2.6-4.2-6.7-12.7-8.3-16.3-3.1 1-8.5 4.7-11.9 18.3l-.4.2L115 231l4.5-21.5h-.4zm8.7-12.2h-.1l.1.1z"/><path fill="#504A53" d="M127.8 210.7c-3.9 0-7.3-.8-8.3-1.1L115 231l12.9 15.2-.1-35.5z"/><path fill="#3F3B42" d="M119.1 209.5s.1 0 .4.1c1.1.3 4.4 1 8.3 1.1v-13.3l-.2-.1-14.5-4.4s-.9-.1-2.4.3c1.8 3.5 5.8 12.1 8.4 16.3z"/><path fill="#66646A" d="M127.8 246.3L115 231l-16.4-19.4-2 .8s-4.1-5.9-8.2-12.9c.3 2.6.6 5.2.8 7.7v.1c1.6 16.2 2.1 30.7 2 43.3 11.6 3.5 23.9 5.3 36.6 5.4v-9.7z"/><path fill="#4C4B50" d="M36.1 194.2c-4.4 1.5-9.9 2.9-15.1 4.1 6.2 9.5 13.7 18.1 22.1 25.6L70 179.8c-12.8 6.9-25.6 11.5-33.9 14.4z"/><path fill="#5A585E" d="M70.1 179.7l12.2-8.1c-3.2 1.7-8.3 4.6-12.2 8.1zm18.1 19.6c.5 4.4.9 7.5.9 7.9-.2-2.5-.5-5.1-.8-7.7 0 0 0-.1-.1-.2zm1 8C75 216.2 60 230.2 56.1 233.9c10.7 7.2 22.5 12.9 35.1 16.7.1-12.6-.4-27.1-2-43.3z"/><path fill="#66646A" d="M89.2 207.3c-.1-.5-.5-3.6-1-8-4.8-8.2-9.4-17.9-7.3-21.4 2.2-3.8 3.1-5.9 4.5-7.9.2-.3.4-.6.7-.9l-3.8 2.5-12.2 8.1-26.9 44.1c4.1 3.6 8.4 7 13 10.1 3.8-3.7 18.8-17.7 33-26.6z"/><path fill="#797480" d="M80.9 177.9c-2.1 3.5 2.6 13.2 7.3 21.4 0 .1.1.1.1.2 4.1 7 8.2 12.9 8.2 12.9l2-.8.4-.2c3.4-13.6 8.8-17.3 11.9-18.3 1.4-.5 2.4-.3 2.4-.3l14.5 4.4h.2v-.7c-20.3-10.8-34.7-28-37.4-31.3-.3-.4-.5-.6-.5-.6-1.8 1.8-3 3.1-3.9 4.3-.2.3-.5.6-.7.9-1.4 2.3-2.2 4.3-4.5 8.1z"/><path fill="#C08C76" d="M178.1 89.2l1 2.9s-.8 0-1.6 1.4-3.4 7.8-3.4 7.8c-1 7.7-2 15.6-2.2 20.6 2.2.4 3.7 0 5.2-.9 2.1-1.3 4-9.4 4.6-13.5s3.4-11.5 4.2-15.7 1.1-7.7-1.4-8.1c-1-.2-3 .9-5.1 2.3l-.4.8-.9 2.4zM145.9 172c-5.9 2.7-8.5 4.7-18 4.7v20c20.5-10.8 35.1-28.2 37.7-31.5.3-7.1 1.2-13.6 1.8-17.4-4 6.6-15.7 21.5-21.5 24.2z"/><path fill="#D8AA91" d="M174.1 101.3c-1-2.4-.1-10.8-.1-11.3s.5-2.9.7-3.4 0-5.3 0-5.3l-.1-.8s.2-.6 0-1.1 0-1.3 0-1.3l-1.8-2.1s-2.6-3-4.9-4.9c-2.4-1.9-1.9-9.6-1.8-14 0-1.1.1-1.8.1-2.2-5.6-2.1-10.7-2.9-20.3-1.9-8.9.9-18.1 1-18.1 1v82.2s18.5.6 23 9.7l-3.8 1.9s1.6-3.5-7-5.1-12.1-.7-12.1-.7v34.8c9.6 0 12.1-2 18-4.7 5.8-2.7 17.5-17.6 21.5-24.1.1-.1.1-.2.2-.3 3.8-6.4 4.2-13.3 4.3-24.6v-1.2c.2-5 1.1-12.9 2.2-20.6zm-37.2-3.8l-1.9-.8c-.2-2.9 6.4-4.2 12.3-5.7 5.9-1.6 11.7-5.1 11.7-5.1 3-.8 7.5 6.1 7.5 6.1s-6.7 1.3-10.7 1.4-18.9 4.1-18.9 4.1z"/><path fill="#4C3A2E" d="M127.8 45.1v8.7s9.2-.1 18.1-1c9.6-1 14.7-.2 20.3 1.9 0 .4 0 1.1-.1 2.2-.2 4.5-.6 12.1 1.8 14 2.4 1.9 4.9 4.9 4.9 4.9l1.8 2.1s-.2.8 0 1.3 0 1.1 0 1.1l.1.8s.2 4.8 0 5.3-.7 2.9-.7 3.4-.8 8.9.1 11.3c0 0 2.6-6.4 3.4-7.8.8-1.4 1.6-1.4 1.6-1.4l-1-2.9 1-2.6.4-.8.6-1.3.8-1v-2.9s1.9-7.7 1.1-10.4c-.8-2.7-1-4.8-1-4.8l1.2-2.9v-1.8s-.7-1.8-1.2-2.2c-.5-.5-1-1.8-1-1.8l1.4-3.8s.5-2.2.7-3.2c.1-1 .5-1.2 0-2.4s0-2.7-.8-3.6c-.8-1-1.4-2.7-1.4-2.7s-5.7-6.2-5.9-9.3c-.2-3-1.3-7.5-3.8-8.9-2.6-1.4-6.4-6.4-10.1-8.6-3.7-2.2-7.8-4-11-4s-6.4.6-8.1 0c-1.7-.6-5.8-1.9-12.7-1.9h-.4v37h-.1zm38.4 9.3c0-.1 0-.1 0 0z"/><path fill="#4C3A2E" d="M166.5 91.9S162 85 159 85.8c0 0-5.7 3.5-11.7 5.1-5.9 1.6-12.5 2.9-12.3 5.7l1.9.8s14.8-4 18.8-4.2 10.8-1.3 10.8-1.3zM140 142.6c8.6 1.6 7 5.1 7 5.1l3.8-1.9c-4.5-9.1-23-9.7-23-9.7v5.8s3.5-.9 12.2.7z"/><path fill="#C9CAD7" d="M145.2 193.2c-1.6 3.6-5.7 12.1-8.3 16.3 0 0-.1 0-.4.1L141 231l16.4-19.4-.4-.2c-3.4-13.5-8.7-17.2-11.8-18.2zm-16.9 4.1l-.5.1v.1z"/><path fill="#665F68" d="M127.8 210.7v36L141 231l-4.5-21.5c-1.1.3-4.6 1.2-8.7 1.2z"/><path fill="#504A53" d="M127.8 197.5v13.1c4.1 0 7.6-.8 8.7-1.1.2-.1.4-.1.4-.1 2.6-4.2 6.7-12.7 8.3-16.3-1.4-.5-2.4-.3-2.4-.3l-14.5 4.4-.5.3z"/><path fill="#747078" d="M166.8 207.3c.3-2.6.5-5.2.8-7.8-4.1 7-8.2 12.9-8.2 12.9l-2-.8L141 231l-13.2 15.6v9.3h.2c12.8 0 25.1-1.9 36.8-5.4-.1-12.5.4-27 2-43.2z"/><path fill="#5A585E" d="M185.9 179.7l26.9 44.1c8.5-7.5 15.9-16.1 22.1-25.6-5.1-1.2-10.6-2.6-15.1-4.1-8.2-2.8-21-7.4-33.9-14.4z"/><path fill="#66646A" d="M173.7 171.6l12.2 8.1c-3.9-3.5-9-6.4-12.2-8.1zm-6.1 28c-.3 2.6-.6 5.2-.8 7.7.1-.4.4-3.5.9-7.9 0 0 0 .1-.1.2zm-.8 7.7c-1.6 16.2-2.1 30.7-2 43.3 12.6-3.8 24.4-9.5 35.1-16.7-3.9-3.7-18.9-17.7-33.1-26.6z"/><path fill="#747078" d="M185.9 179.7l-12.2-8.1-3.8-2.5c.2.3.5.6.7.9 1.4 2.1 2.3 4.1 4.5 7.9 2.1 3.5-2.6 13.2-7.3 21.4-.5 4.4-.9 7.5-.9 7.9v.1c14.2 8.9 29.2 22.9 33.1 26.6 4.6-3.1 8.9-6.5 13-10.1l-27.1-44.1z"/><path fill="#96909E" d="M127.8 196.8v.6l.5-.2 14.5-4.4s.9-.1 2.4.3c3.1 1 8.5 4.7 11.9 18.3l.4.2 2 .8s4.1-5.9 8.2-12.9c0-.1.1-.1.1-.2 4.8-8.2 9.4-17.9 7.3-21.4-2.2-3.8-3.1-5.9-4.5-7.9-.2-.3-.4-.6-.7-.9-.9-1.2-2.1-2.6-3.9-4.3 0 0-.2.2-.5.6-2.6 3.2-17.2 20.6-37.7 31.4z"/></svg>