<svg xmlns="http://www.w3.org/2000/svg" width="256" height="256"><circle fill="#B2B4B5" cx="128" cy="128" r="128"/><path fill="#282222" d="M197.2 108.8c1.6.4 3.3.8 5.2 1.4.1-.2.1-.3.2-.5.9-1.8-.9-5.6-.1-8.2.7-2.6-1.4-9.3-1.4-9.3l-.7 1.1c-.2.9-.3 1.8-.5 2.7-1 4.8-1.9 9.1-2.7 12.8z"/><path fill="#211D1E" d="M57.7 96c-.2-.9-.4-1.8-.5-2.7l-.7-1.1s-2.2 6.7-1.4 9.3c.7 2.6-1 6.4-.1 8.2.1.1.1.3.2.5 1.9-.5 3.6-1 5.2-1.4-.8-3.7-1.7-8-2.7-12.8z"/><path fill="#6C662D" d="M115.3 245.9c1.8.5 3 .8 3 .8-49.4-.8-51.7-14-59.1-19.7-3.1-2.3-6.7-1.4-10.6 1.4C70.4 245.7 98 256 128 256h.3v-11.1c-2.1.3-6.9.9-13 1zM14.1 132.3c-4.2-.4-9-.4-14.1.2.1 4.2.5 8.4 1 12.6 4.3-4.9 8.7-9.1 13.1-12.8z"/><path fill="#7F7737" d="M39.3 199.1l-5.1 3.7s1.9-1.1 5.1-3.7zm20.4-22.2l-2.8 3.9c1-1.2 1.9-2.6 2.8-3.9zm-5.8 7.7l-11.3 11.8c3.1-2.9 7-6.7 11.3-11.8z"/><path fill="#7F7737" d="M5.5 161.9l4.8-7.4s22.5 19.4 29 44.6c1-.8 2.1-1.7 3.3-2.8 0 0-11-30.9-28.2-44.3l7-7.2 4.9 5.3-3.8 4.2 3.4 3.8 2.7-3.7 4.5 5.3-3.5 3 2.6 3.8 2.8-2s6.7 12.2 9.3 17.6l2.1-3.3s-9.6-20.5-15.9-25.9l2.9-1s16.9 19.6 20.7 32.5c1-1.2 2-2.4 3-3.8-4.8-12.5-18.7-26.4-18.7-26.4 10.5-8 15.6 2.7 15.6 2.7l-2.9 4.8-3.6-4.1 1.6-1.4c-3.9-4.8-6.6-1.9-6.6-1.9 6.2 6.2 17.4 22.1 17.5 22.3 4.1-6.1 7.4-13.1 10-19.3l-.8-.8-2.2-19.9s-1.9-6.3-6.5-27.9c-1.6.4-3.3.8-5.2 1.4-10.8 3.2-26.1 9.5-41 22.1-4.4 3.7-8.8 7.9-13 12.8 2.3 17.1 7.9 33.1 16.3 47.4 9.8 5.3 16.8 10.3 16.8 10.3s-12.9-30.1-28.9-40.8zm122.7 47.3c-4.2.5-22.8 2.1-27.6-5.2-1.7-2.5-4.3-7.4-7.2-12.9-5.8-2.3-12.4-5.3-15.4-8.1-1.6-1.5-2.8-4.1-3.8-6.9-4 2.6-8.2 5.2-11.7 6.7-9.1 4-19.9 25.9-19.9 25.9s22.2 12.2 30.7 20.1c7 6.6 33.1 14.6 41.9 17.2 6.1-.1 10.9-.7 12.9-1.1v-21.2l.1-14.5z"/><path fill="#575321" d="M59.2 227.1c7.4 5.7 9.7 18.9 59.1 19.7 0 0-1.1-.3-3-.8-8.8-2.6-34.9-10.6-41.9-17.2-8.5-8-30.7-20.1-30.7-20.1s10.8-21.9 19.9-25.9c3.5-1.5 7.7-4.1 11.7-6.7-2.5-7.5-3.2-17.3-3.2-17.3l-1.3-1.3c-2.6 6.3-6 13.2-10 19.3l-.1.1c-.9 1.3-1.8 2.6-2.8 3.9-1 1.3-2 2.6-3 3.8-4.3 5.1-8.1 9-11.3 11.8-1.2 1.1-2.3 2-3.3 2.8-3.2 2.6-5.1 3.7-5.1 3.7s-7-5-16.8-10.3c8.1 13.9 18.7 26 31.2 35.9 3.9-2.8 7.5-3.8 10.6-1.4z"/><path fill="#7F7737" d="M139.3 246.8s1.1-.3 3-.8c-8.3-.2-14-1.2-14-1.2V256c24.1-.1 46.7-6.8 65.9-18.4.3-2.3.6-4.8.9-7.2-6 6.3-14.3 15.7-55.8 16.4z"/><path fill="#8C823D" d="M199.6 190.5s-2.3-1.8-.3-4.8c-1.4-1.3-2.8-2.3-4.2-2.9-3.5-1.5-7.7-4.1-11.7-6.7-1 2.9-2.2 5.4-3.8 6.9-2.9 2.8-9.6 5.8-15.4 8.1-2.9 5.5-5.6 10.4-7.2 12.9-5.1 7.8-25.5 5.5-28.1 5.1-.1 0-.3 0-.6.1v35.5s5.8 1.1 14 1.2c8.8-2.6 34.9-10.6 41.9-17.2 2.9-2.7 7.4-5.9 12.1-9 .3-2.9.7-5.9 1-8.9h-.1s-2.9-2.3.6-6.1h.2c.5-4.6 1.1-9.4 1.6-14.2zm-8.8-53.8l-2.2 19.9-.8.8c3.2 7.7 7.5 16.4 12.9 23.3.4-3.6.8-7.1 1.1-10.6-.5-.4-2.3-2.6.6-5.9.5-5.1 1.1-10 1.5-14.7-.6-.6-2-2.6.6-5.6.6-5.5 1.1-10.5 1.5-14.9 0 0-2.9-2.3.6-6.1.6-5.9 1-9.9 1.1-11.1-1.9-.7-3.7-1.2-5.4-1.7-1.9-.5-3.6-1-5.2-1.4-4.4 21.8-6.3 28-6.3 28z"/><path fill="#69642B" d="M199.3 185.7c.2-.4.5-.8.9-1.2h.1c.1-1.2.3-2.5.4-3.7-5.4-6.9-9.7-15.6-12.9-23.3l-1.3 1.3s-.6 9.8-3.2 17.3c4 2.6 8.2 5.2 11.7 6.7 1.4.5 2.8 1.6 4.3 2.9zm-57 60.2c-1.8.5-3 .8-3 .8 41.4-.6 49.7-10 55.7-16.4.4-3.4.8-6.9 1.3-10.5-4.7 3-9.1 6.2-12.1 9-7 6.5-33.1 14.5-41.9 17.1z"/><path fill="#6A2C28" d="M97.6 17.6h.2l.7-.3c.9-2.3 2.2-4.2 4.1-4.8 3.9-1.2 8.5-1.2 8.5-1.2l.1.1c.5-.1 1.1-.1 1.6-.2L111 1.1c-3.6.5-7.1 1.1-10.6 1.9h2.4c-6.1 4.7-5.2 14.6-5.2 14.6z"/><path fill="#69642B" d="M89.8 90.5c1.2-.3 2.5-.6 3.7-.5 2.6.3 8 2.9 10.9 5.9s10.1 6.5 13.4 7.8c2.7 1 4.8-.3 5.5-.9-1.8-.1-3-.2-3-.2L99.5 87.7c-3.5.1-7.9.6-10.7 2.2.2.2.5.4 1 .6z"/><path fill="#69642B" d="M128.2 209.2c.2 0 .4 0 .6-.1h-.3v-20.3c-1.2.2-3.9.5-6.6-.1-3.5-.8-12.6-5.4-16.9-16-.2-.4-.3-.7-.4-1.1-.9-1.6-8.4-16.3-7.4-27.9.6-6 3.5-10.9 6.7-14.6-.3-.8-2.9-6.9-2.9-15.4 0 0 1.3-.2 2.5 0 0 0 .5 9.1 2.5 12.8l-1 1.3c1.3-1.4 2.6-2.6 3.8-3.6l-1 .8-1.3-4.4 3.2-1-.6-1.6-2.8 1.3-1-3.6s2.7-1.8 4.2-2l2.3 8-2.9 2.4c1.5-1.2 2.7-2.2 3.5-2.9 3.3-2.7 9.2-7.3 9.2-7.3s1.8-.6 2.6 1.7c0 0-5.6.6-5.7 3s1.1 4.5 1.1 4.5 3.7-1.6 5.3 1.8c0 0-4.8 1.1-6.4-.8-.5-.6-.8-1.3-1-1.9-8 5-7.8 17.8-7.8 17.8-4.1-12.3 7.3-20.3 7.3-20.3l.1.3v-.5s-6.1 3.6-7.2 7.3c-1.1 3.7-3.4 11.3-3.1 16.8 1.6-1.8 4.2-3.2 7.1-3.3 4-.1 12.3 0 14.6 0v-35.1h-2c-2.1.2-4.8 4.5-4.8 4.5s-3.2-3.2-5.6-2.6-7-4.9-10.5-6.8S93.5 97 93.5 97s4.3 0 2.4-.6c-.8-.3-2.6-.3-4.4-.3-.2.2-.6.3-1.5 0 .1.1 4.7 5.8 9.2 7.2l-1.2.8s-7.2-3-8.6-6.5c0 0 1.1 5.9 6.9 7.2l-1.3.8s-5.9-2.5-6.6-4.8l-1.8 3.8-2.9-6.7c-1 2.9-1.1 5.4.4 7.9 0 0-3.1 7.7 1.4 12.2l.7.7c-.4-.4-.6-.8-.6-.8s2-1.5 3.1-2.8.1-4.3.1-4.3-1.2 0 4.1-1.4 7.7 1.4 7.7 1.4-1.9.6-3.2 1.4c-1.3.8-2.9-.7-2.9-.7l1.7-2.2c-2.7.4-3.3 2.9-3.3 2.9l5.4 1.1 1.2 9.3c-3 .8-4.7 0-4.7 0l1.9-6.3c-1.4-1.5-3.5-1.9-5-2-1.6-.1-2.8 6.9-2.8 6.9 2.4 2.1 3.7 2.9 3.7 2.9s-2.4 7.9.2 18.4 3.8 31.6 20.4 41.9l-1.4 5.7-6.1-1.8-2 6.1s-4.7-1.5-10.3-3.6c2.9 5.5 5.6 10.4 7.2 12.9 4.9 7.6 23.5 5.9 27.6 5.5zm-14.7-97.7l2.8 6.6-3 2.4-2.6-7.8 2.8-1.2zm-18.6-3.3c-5.3 0-10.2 3.2-10.2 3.2l-1.2-2.4c5.4-2.8 12.7-2.4 12.7-2.4l-1.3 1.6z"/><path fill="#BFBEC7" d="M116.2 118.2l-2.7-6.7-2.8 1.2 2.6 7.9zm-4.4 3.5l-2.3-8c-1.5.1-4.2 2-4.2 2l1 3.6 2.8-1.3.6 1.6-3.2 1 1.3 4.4 1-.8c.1 0 .1-.1.1-.1l2.9-2.4zm-5.8 4.8c-2-3.7-2.5-12.8-2.5-12.8-1.2-.2-2.5 0-2.5 0 0 8.5 2.5 14.6 2.9 15.4.4-.4.7-.8 1.1-1.2l1-1.4zm-14.3-12c1.6.1 3.6.5 5 2l-1.9 6.3s1.7.8 4.7 0l-1.2-9.3-5.4-1.1s.6-2.5 3.3-2.9l-1.7 2.2s1.6 1.6 2.9.7c1.3-.8 3.2-1.4 3.2-1.4s-2.4-2.9-7.7-1.4c-5.3 1.4-4.1 1.4-4.1 1.4s1 3-.1 4.3-3.1 2.8-3.1 2.8.2.3.6.8c1 1 2 1.9 2.8 2.6-.1-.1 1.2-7.2 2.7-7zm-8.1-5.4l1.2 2.4s4.9-3.2 10.2-3.2l1.3-1.6s-7.3-.4-12.7 2.4zm33.4 10.7s-11.4 8-7.3 20.3c0 0-.2-12.8 7.8-17.8-.3-.9-.4-1.7-.4-2.2l-.1-.3zM89.3 94.7l-1.8-1.1 2.9-.8-2.9-1.4s.9-.5 2.2-.9l-1-.5c-.9.5-1.7 1.2-2.1 2-1.3 2.2-2.4 4.1-3 6l2.9 6.7 1.8-3.8c.7 2.3 6.6 4.8 6.6 4.8l1.3-.8c-5.9-1.3-6.9-7.2-6.9-7.2 1.4 3.5 8.6 6.5 8.6 6.5l1.2-.8c-4.5-1.4-9.1-7-9.2-7.2-1.9 0-3.5.1-3.5.1l2.9-1.6z"/><path fill="#BFBEC7" d="M91.5 96H90c.8.4 1.3.3 1.5 0z"/><path fill="#222108" d="M117.8 103.7c-3.4-1.3-10.5-4.8-13.4-7.8S96 90.3 93.5 90c-1.2-.1-2.5.1-3.6.5h-.1c-1.3.4-2.2.9-2.2.9l2.9 1.4-2.9.8 1.8 1.1-2.9 1.4s1.6-.1 3.5-.1h1.5c1.8 0 3.6.1 4.4.3 1.9.6-2.4.6-2.4.6s8.6 1.4 12.1 3.3 8.1 7.4 10.5 6.8 5.6 2.6 5.6 2.6 2.7-4.3 4.8-4.5h2V103c-1.9 0-3.8-.1-5.2-.2-.7.5-2.8 1.9-5.5.9z"/><path fill="#222108" d="M113.2 184.6c-16.5-10.3-17.7-31.4-20.4-41.9-2.6-10.5-.2-18.4-.2-18.4s-1.3-.8-3.7-2.9c-.8-.7-1.7-1.6-2.8-2.6l-.7-.7c-4.6-4.6-1.4-12.2-1.4-12.2-1.5-2.5-1.4-5-.4-7.9.7-1.8 1.7-3.8 3-6 .5-.8 1.2-1.5 2.1-2 2.8-1.6 7.1-2.1 10.7-2.2l-4.1-3s-7.4 3.8-9.1 4.6-10.8-3.8-10.8-3.8l-3.6 7.7s6.9 21.1 8.6 26.1 6.7 2.6 6.7 2.6l-1.7 6.1s2.2 25 5.5 35.3 16.8 18.7 16.8 18.7l-2.1 6.6 6.1 1.8 1.5-5.9z"/><path fill="#8F8D8F" d="M119 27.2h-.2l.3.1c0-.1-.1-.1-.1-.1zm-29.4-6.4c-.1 0-.1 0 0 0l-.6.2c.2 0 .4-.1.6-.2z"/><path fill="#8F8D8F" d="M60.4 108.8c4.6 21.6 6.5 27.9 6.5 27.9l2.2 19.9.8.8 1.3 1.3s.6 9.8 3.2 17.3c1 2.9 2.2 5.4 3.8 6.9 2.9 2.8 9.6 5.8 15.4 8.1 5.5 2.2 10.3 3.6 10.3 3.6l2-6.1 2.1-6.6s-13.4-8.4-16.8-18.7-5.7-35.2-5.7-35.2l1.7-6.1s-5 2.4-6.7-2.6-8.6-26.1-8.6-26.1l3.6-7.7s9.1 4.6 10.8 3.8 9.1-4.6 9.1-4.6l4.1 3 20.8 14.9s1.2.1 3 .2c1.5.1 3.3.1 5.2.2v-2.6h-6.6L99.9 84l.5-3.7-3.6-1.7-.8-17.4-.8-.6-4.8 1.9 4.6-4.2.8.6-.1-2.3h5.7v-2.5h-5.7V43.3l-.6-.5-4.8 1.9 4.6-4.2.7.5v-.7l1-6.9s10.1-1.2 15.6-6.7l6.5.4-3.7-2h-6.4s-5.1 4.9-8.5 5.7-7.3 1.2-7.3 1.2l.6-1.6 3.2-1.2s0-6.9 1.8-11.9l-.7.3-5.3 12.8s-2.7 2.6-4.5 3c-1.5.4-9.6 1.2-11.7 1.4-.2.7-.5 1.4-.7 2.2l14.8-2.2s-.2 1.4-.5 3.9l-.4 6.6c-.1 1.5-.1 3.1-.1 4.9l.1 7.6c0 1.8.1 3.6.1 5.4v4.7c0 1.7 0 3.6-.1 5.5-.1 3.8-1.6 5.9-4.3 5.4-1.9-.3-8.9-1.6-8.9-1.6-.7-.1-1.1-.2-1.1-.2s-5.6-22.9-2.9-34.4c2.8-11.5 8.6-19.9 8.6-19.9s3.4-2.4 7.1-2.7c-1.5-.5-4.1-.5-8.2 1.7-4.8 2.6-5 2.2-5 2.2l-4.8 10.5c2.8-5.9 5.1-9.8 5.1-9.8l4.2-.6c-3.7 4.9-9.3 10.4-9.3 10.4l-3.4.7-4.6 11.5s-.4.6-.9 1.7l2.4-1.7c-2.1 13.9 1.3 28.3 4.2 37.2.7-.4 1.3-.2 1.9-.6 1-.6 3.5-5.6 3.5-5.6l1.9 1-5.1 7.9h-1.3c1.3 3.6 2.3 5.8 2.3 5.8 2.6 10.1 10.3 30.6 10.3 30.6l4.7.2-1.6 4.1v4.3l-3.5-2.5s-7.3-19.3-14-36.6c-.2-.6-.5-1.3-.7-1.9-1.4 2.4-2.7 4-3.7 5.1l3.1 2.3c1.6 5.9 13.9 34.7 13.9 34.7h1.6c2.2 5.7 3.2 21.8 5.4 32.2s16.3 18.4 16.3 18.4l-3.8 9.4h-1.4l3.4-8.6c-10.5-7.8-13.4-12.5-16.3-18.7s-6.1-32.6-6.1-32.6C72 121.1 64.2 98 64.2 98l-2-2.1c-1.5 1.7-2.4 2.1-2.4 2.1v-2.7s3.2-5 5.2-8.1c-4.5-16.2-4.2-36.6-4.1-38.5-2.5 5.1-8.3 20.4-4 44.7.2.9.3 1.8.5 2.7 1.3 4.7 2.2 9 3 12.7zm3.4-62.1c.5-4.8 4.5-10.9 4.5-10.9h3.1l1.4 1.2-1.4 2.3H70l-6.2 7.4zm49.9-30.2l-.9-5.2c-.5.1-1.1.1-1.6.2l1.9 2 .6 3z"/><path fill="#766E6F" d="M113.7 16.5l1.6 8.7h-.1l3.7 2h.2l.5-1.1-1.9-.6 1.9-3.2-.9-13.9 3.1-.4 3.8 3.7.1-2.6-4.2-3.5-2.8.4-.8-5.6c-.2 0-.5 0-.7.1l-.9.9.2 7.8-1.2 1.4-.9-9.8c-1.1.1-2.3.3-3.4.4l1.8 10.2.9 5.1z"/><path fill="#1E1818" d="M121.6 5.6l4.2 3.5-.1 2.6-3.9-3.7-3.1.4.9 13.9-1.9 3.2 1.9.6.4-.9h8.5V4.6c-1.3-.2-4.3-1-5.3-3.2 0 0-.2-.5-.6-1.3-1.6.1-3.2.2-4.7.3l.8 5.6 2.9-.4zm-5.1 3.5l-.2-7.8.9-.9c-.9.1-1.9.2-2.8.3l.9 9.8 1.2-1.4z"/><path fill="#1E1818" d="M120 25.1s1.1.4 2.4.9c-.7-.3-1.5-.6-2.4-.9z"/><path fill="#211D1E" d="M96.6 29.2l-3.2 1.2-.6 1.6s4.2-.3 7.5-1.1 8.5-5.7 8.5-5.7h6.5l-1.6-8.7-.6-3-1.9-2-.1-.1s-4.6 0-8.5 1.2c-1.9.6-3.2 2.5-4.1 4.8-1.9 4.9-1.9 11.8-1.9 11.8z"/><path fill="#413D40" d="M82.2 24.4c-.1.1-3.4 3.5-5.8 10.4 2-.2 10.1-1 11.7-1.4 1.8-.5 4.5-3 4.5-3l5.3-12.8s-4.1 1.4-8.2 3.1c-.3.2-.5.3-.7.3l-6.8 3.4z"/><path fill="#3A3234" d="M96.8 33.5l-1 6.9v.7l1.8 1.3 4.9-3 1.9 1.1 2.2-1.1 18.4 8.5c-.6-5.8-1.3-11-2.3-15-1.4-3.5-3.3-5.1-3.7-5.5l-.3-.1-6.5-.4c-5.4 5.4-15.4 6.6-15.4 6.6z"/><path fill="#3A3234" d="M102.6 57.1l1.9 1.1 2.2-1.1 19.6 9c-.2-5.8-.6-11.6-1.1-17.1l-17.9-7.9s.6 2.1 0 3.7-9.3.3-9.3.3l-2.2-1.8v10.8h5.7v2.5h-5.7l.1 2.3 1.7 1.2 5-3z"/><path fill="#3A3234" d="M126.9 99.4s.2-15.4-.5-32.1l-19-8.4s.6 2.1 0 3.7-9.4.2-9.4.2l-2-1.6.8 17.3 3.6 1.7-.5 3.7 22 16.4h6.6v-1h-1.6v.1z"/><path fill="#191212" d="M107.4 44.8c.6-1.6 0-3.7 0-3.7l17.9 7.9c0-.4-.1-.8-.1-1.2l-18.4-8.5-2.2 1.1-1.9-1.1-4.9 3L96 41l-.7-.5-4.6 4.2 4.8-1.9.6.5 2.2 1.8c-.3 0 8.4 1.3 9.1-.3zm0 17.7c.6-1.6 0-3.7 0-3.7l19 8.4v-1.1l-19.6-9-2.2 1.1-1.9-1.1-4.9 3-1.7-1.2-.8-.6-4.6 4.2 4.8-1.9.8.6 2 1.6c-.3 0 8.4 1.3 9.1-.3z"/><path fill="#A29FA3" d="M119.1 27.3c.5.4 2.3 2 3.7 5.5 1 4 1.7 9.2 2.3 15 0 .4.1.8.1 1.2.5 5.4.9 11.3 1.1 17.1v1.1c.7 16.8.5 32.1.5 32.1h1.7V70.1l-1.7-40.9s-1.6-1.8-4.4-3.1c-1.3-.6-2.4-.9-2.4-.9l-.4.9-.5 1.1c-.1 0 0 0 0 .1z"/><path fill="#615D5F" d="M128.5 60.9V29.2h-1.7l1.7 40.9v-.5z"/><path fill="#302827" d="M126.8 29.2h1.7v-4.1H120c.9.3 1.7.6 2.4.9 2.8 1.5 4.4 3.2 4.4 3.2z"/><path fill="#211D1E" d="M72.5 42.6C69.7 54.1 75.4 77 75.4 77s.4.1 1.1.2c-.1-.7-1.3-10.3-1.7-14.3l15 .3c0-1.8-.1-3.6-.1-5.4l-15.8.4s-.5-3.4-.3-7.6l15.9-.4c0-1.7 0-3.4.1-4.9v.1l-16 .9 1.2-6.3L90 38.7c.2-2.5.5-3.9.5-3.9L75.7 37c.2-.8.5-1.5.7-2.2 2.4-6.9 5.7-10.3 5.8-10.4L89 21l.6-.3.2-.1-1.4-.6h-.1c-3.7.3-7.1 2.7-7.1 2.7s-5.9 8.4-8.7 19.9z"/><path fill="#211D1E" d="M89.7 67.9v-4.7c.1.2.1 2.2 0 4.7z"/><path fill="#7F7777" d="M74.8 40l-1.2 6.3 16-.9v-.1l.4-6.6zm-.9 18.2l15.8-.4-.1-7.6-15.9.4c-.3 4.2.2 7.6.2 7.6zm2.5 19s7 1.3 8.9 1.6c2.8.5 4.2-1.6 4.3-5.4 0-1.9.1-3.8.1-5.5v-4.7l-15-.3c.4 4 1.6 13.6 1.7 14.3z"/><path fill="#413D40" d="M79.5 24.1l-4.2.6s-2.3 4-5.1 9.8c0 0 5.5-5.5 9.3-10.4zm-8.2 15.2l1.4-2.3-1.4-1.2h-3.1s-4 6.1-4.5 10.9l6.1-7.4h1.5z"/><path fill="#7F7777" d="M65.4 87.1c.5-.7.9-1.4 1.1-1.8.5-.8 1-1.2 1.4-1.5-2.8-8.9-6.2-23.3-4.2-37.2l-2.4 1.7-.1.1v.1c0 2-.4 22.4 4.2 38.6zm1 3.4c.2.6.4 1.3.7 1.9 6.6 17.3 14 36.6 14 36.6l3.5 2.5v-4.3l1.6-4.1-4.7-.2s-7.7-20.5-10.3-30.6c0 0-1-2.2-2.3-5.8h-.3c-.8 1.6-1.5 2.9-2.2 4z"/><path fill="#211D1E" d="M66.5 85.3c-.3.4-.7 1.1-1.1 1.8-2 3.1-5.2 8.1-5.2 8.1v2.7s.9-.4 2.4-2.1l-1.1-1.1 1.2.9c1-1.1 2.3-2.8 3.7-5.1.7-1.1 1.4-2.4 2.2-3.9h1.6l5.1-7.9-1.9-1s-2.6 4.9-3.5 5.6c-.6.4-1.2.2-1.9.6-.5.2-1 .6-1.5 1.4z"/><path fill="#191212" d="M62.6 95.9l2 2.1s7.8 23.2 14.2 34.7c0 0 3.2 26.4 6.1 32.6s5.7 10.9 16.3 18.7l-3.4 8.6h1.4l3.8-9.4s-14-8-16.3-18.4-3.2-26.5-5.4-32.2h-1.6s-12.3-28.8-13.9-34.7l-3.1-2.3-1.2-.9 1.1 1.2z"/><path fill="#31341E" d="M105 147.3c.2-1.3.8-2.5 1.8-3.6-.3-5.5 2-13.2 3.1-16.8 1.1-3.7 7.2-7.3 7.2-7.3v.5c0 .5.1 1.3.4 2.2.2.6.5 1.3 1 1.9 1.6 1.9 6.4.8 6.4.8-1.6-3.4-5.3-1.8-5.3-1.8s-1.3-2.1-1.1-4.5 5.7-3 5.7-3c-.8-2.2-2.6-1.7-2.6-1.7s-5.9 4.6-9.2 7.3c-.8.7-2.1 1.6-3.5 2.9-.1 0-.1.1-.1.1-1.2 1-2.5 2.2-3.8 3.6-.4.4-.7.8-1.1 1.2-3.2 3.7-6.1 8.6-6.7 14.6-1.1 11.5 6.5 26.3 7.4 27.9-3.6-10.3-.1-21.1.4-24.3z"/><path fill="#453514" d="M108.9 169c.1.1.1.2.2.3v-.1l-.2-.2z"/><path fill="#453514" d="M128.5 184.6c-2.6-.2-4.4-1.1-6.6-1.4-2.4-.3-5.8-1.6-9.6-5.3-3.5-3.4-3.7-8.4-3.7-9.1-.7-.8-1.3-1.7-1.6-2.6-2.6-7.4-2.3-11.5-1-14.8s3.4-7.1 9-6.5h.2c.8 0 1.6 0 2.4.2.3.1.5.1.8.2 3.3.5 5.8 1 10 1v-5.9c-2.3 0-10.6-.1-14.6 0-2.9.1-5.5 1.5-7.1 3.3-1 1.1-1.6 2.3-1.8 3.6-.5 3.2-4 14.1-.4 24.3.1.4.2.7.4 1.1 4.3 10.5 13.4 15.2 16.9 16 2.7.6 5.4.3 6.6.1v-.1l.1-4.1z"/><path fill="#1F100F" d="M128.5 146.3c-4.2 0-6.6-.5-10-1 3.2.7 8.3 1 10 1zM108.9 169l.2.2v-.1c-1.6-1.5-.7-2.7-.2-3.2-.3-1.7-1.1-7.2 1.4-8.8 3-1.9 4.7-3.8 9.8-1.6 4 1.8 7.2 2.4 8.4 2.6v-4.5c-4.3 2-6.8-.3-6.8-.3-3.5 1.4-4.9-1.1-4.9-1.1-2.9 1.1-3.9-.6-3.9-.6-2.8 1-3.8-.8-3.8-.8v-2.2c0-.6.3-1.4.8-1.7-.1-.2-.1-.3-.1-.3s2.7-1.4 5.5-1.5h-.2c-5.6-.6-7.7 3.1-9 6.5s-1.7 7.4 1 14.8c.3.9.9 1.7 1.6 2.6v-.1c0-.1.1 0 .2.1z"/><path fill="#4B160F" d="M112.2 168.8c.5.1 1.8 2.8 1.8 2.8 3.2.2 3.1 3 3.1 3 2.5-.4 3.5 1.5 3.5 1.5 2.5-.9 3.4.3 3.4.3 2.1-.6 3.7-.2 4.6.1v-18.4c-1.2-.2-4.4-.8-8.4-2.6-5.1-2.3-6.8-.4-9.8 1.6-2.5 1.6-1.7 7.1-1.4 8.8l.2-.2c1.8-.3 2.5 3 3 3.1z"/><path fill="#683C30" d="M110 146.7c.2-.1.4-.2.7-.2 1 0 1.8 1.5 1.8 1.5s0-1.8.9-2 3.4 2.5 3.4 2.5.3-1 1.8-1.2 3 2.1 3 2.1 1.6-1.8 3.2-2.1c1.1-.2 2.9.8 3.7 1.4v-2.3c-1.7-.1-6.9-.4-10-1.1-.3-.1-.6-.1-.8-.2-.8-.2-1.6-.3-2.4-.2-2.8.2-5.5 1.5-5.5 1.5s.1.2.2.3zm17.5 35.6c-1.6-.2-2.8-.9-2.8-.9s-1.1 1.1-2.6.8c-1.6-.2-2.5-1.7-2.5-1.7-3 1.1-3.7-.8-3.7-.8-1.8-.2-1.6-2.5-1.6-2.5-2.5-.1-2.8-2.4-2.8-2.4-2.5-.8-2.6-4.6-2.5-5.5-.1-.1-.1-.2-.2-.3s-.2-.2-.2-.3v.1c0 .7.2 5.7 3.7 9.1 3.8 3.7 7.2 4.9 9.6 5.3 2.2.3 4.1 1.3 6.6 1.4v-2.3h-1z"/><path fill="#AE988B" d="M128.5 152.1v-3.4c-.9-.6-2.6-1.6-3.7-1.4-1.6.2-3.2 2.1-3.2 2.1s-1.5-2.4-3-2.1-1.8 1.2-1.8 1.2-2.5-2.7-3.4-2.5-.9 2-.9 2-.9-1.5-1.8-1.5c-.3 0-.5.1-.7.2-.5.4-.8 1.2-.8 1.7v2.2s1 1.8 3.8.8c0 0 1 1.8 3.9.6 0 0 1.4 2.5 4.9 1.1 0 0 2.5 2.3 6.8.3v-1.3h-.1zm0 26.9v-2.4c-.8-.3-2.5-.7-4.6-.1 0 0-.8-1.2-3.4-.3 0 0-1-1.9-3.5-1.5 0 0 .1-2.8-3.1-3 0 0-1.3-2.6-1.8-2.8s-1.2-3.5-3.1-3.1l-.2.2c-.5.4-1.4 1.7.2 3.2v.2c0 .9 0 4.7 2.5 5.5 0 0 .2 2.3 2.8 2.4 0 0-.2 2.3 1.6 2.5 0 0 .7 1.9 3.7.8 0 0 1 1.4 2.5 1.7 1.6.2 2.6-.8 2.6-.8s1.2.7 2.8.9c.4.1.8 0 1-.1V179z"/><path fill="#3F0B06" d="M128.5 4.6V0h-.6c-1.8 0-3.6 0-5.3.1.4.8.6 1.3.6 1.3 1 2.2 4 3 5.3 3.2z"/><path fill="#823935" d="M146.4 11.5l.1-.1s4.6 0 8.5 1.2c1.9.6 3.2 2.5 4.1 4.8l.7.3h.2s.9-9.9-5.3-14.7h.7c-2.9-.6-5.9-1.2-8.9-1.6l-1.8 10c.7 0 1.2 0 1.7.1z"/><path fill="#7F7737" d="M139.9 103.7c3.4-1.3 10.5-4.8 13.4-7.8s8.3-5.6 10.9-5.9c1.2-.1 2.5.1 3.6.5 1.3.4 2.3 1 2.3 1l-2.9 1.4 2.9.8-1.8 1.1 2.9 1.4s-7.5-.5-9.4.2c-1.9.6 2.4.6 2.4.6s-8.6 1.4-12.1 3.3-8.1 7.4-10.5 6.8-5.6 2.6-5.6 2.6-2.7-4.3-4.8-4.5h-2.6v35.1s10.5-.2 15.2 0c2.9.1 5.5 1.5 7.1 3.3.3-5.5-2-13.2-3.1-16.8-1.1-3.7-7.2-7.3-7.2-7.3s.2 2.6-1.4 4.5c-1.6 1.9-6.4.8-6.4.8 1.6-3.4 5.3-1.8 5.3-1.8s1.3-2.1 1.1-4.5-5.7-3-5.7-3c.8-2.2 2.6-1.7 2.6-1.7s5.9 4.6 9.2 7.3c3.3 2.7 14.1 10.2 15.2 22.4 1.1 11.5-6.5 26.3-7.4 27.9-.1.4-.2.7-.4 1.1-4.3 10.5-13.4 15.2-16.9 16s-7.2 0-7.2 0v20.4h.3c2.6.3 23.1 2.6 28.1-5.1 1.7-2.5 4.3-7.4 7.2-12.9-5.5 2.2-10.3 3.6-10.3 3.6l-2-6.1-6.1 1.8-1.4-5.7c16.5-10.3 17.7-31.4 20.4-41.9 2.6-10.5.2-18.4.2-18.4s2.6-1.7 7.2-6.2c4.6-4.6 1.4-12.2 1.4-12.2 2.4-4.1.7-8.4-2.6-13.9-2-3.3-8.1-4.1-12.8-4.2l-20.8 14.9s-1.2.1-3 .2c.6.5 2.7 1.9 5.5.9z"/><path fill="#2C2B14" d="M129.1 105.3h2c2.1.2 4.8 4.5 4.8 4.5s3.2-3.2 5.6-2.6 7-4.9 10.5-6.8 12.1-3.3 12.1-3.3-4.3 0-2.4-.6 9.4-.2 9.4-.2l-2.9-1.4 1.8-1.1-2.9-.8 2.9-1.4s-1-.5-2.3-1c-1.1-.3-2.4-.6-3.6-.5-2.6.3-8 2.9-10.9 5.9s-10.1 6.5-13.4 7.8c-2.7 1-4.8-.3-5.5-.9-1.6.1-3.7.2-5.8.2v2.3l.6-.1z"/><path fill="#2C2B14" d="M171 92c3.4 5.5 5 9.8 2.6 13.9 0 0 3.1 7.7-1.4 12.2-4.6 4.6-7.2 6.2-7.2 6.2s2.4 7.9-.2 18.4c-2.6 10.5-3.8 31.6-20.4 41.9l1.4 5.7 6.1-1.8-2.1-6.6s13.4-8.4 16.8-18.7 5.5-35.3 5.5-35.3l-1.7-6.1s5 2.4 6.7-2.6 8.6-26.1 8.6-26.1l-3.6-7.7s-9.1 4.6-10.8 3.8-9.1-4.6-9.1-4.6l-4.1 3c4.8.3 10.9 1.1 12.9 4.4z"/><path fill="#B5B1B2" d="M168.1 20.8l.6.3-.6-.3zm-7.3 12.7l1 6.9v.7l.7-.5 4.6 4.2-4.8-1.9-.6.5v10.8H156v2.5h5.7l-.1 2.3.8-.6 4.6 4.2-4.8-1.9-.8.6-.8 17.3-3.6 1.7.5 3.7-22 16.4h-7.2v2.6c2.1 0 4.2-.1 5.8-.2 1.8-.1 3-.2 3-.2l20.8-14.9 4.1-3s7.4 3.8 9.1 4.6 10.8-3.8 10.8-3.8l3.6 7.7s-6.9 21.1-8.6 26.1-6.7 2.6-6.7 2.6l1.7 6.1s-2.2 25-5.5 35.3-16.6 18.7-16.6 18.7l2.1 6.6 2 6.1s4.7-1.5 10.3-3.6c5.8-2.3 12.4-5.3 15.4-8.1 1.6-1.5 2.8-4.1 3.8-6.9 2.5-7.5 3.2-17.3 3.2-17.3l1.3-1.3.8-.8 2.2-19.9s1.9-6.3 6.5-27.9c.8-3.8 1.7-8 2.6-12.8.2-.9.4-1.8.5-2.7 4.3-24.3-1.5-39.5-4-44.7 0 1.8.4 22.3-4.1 38.5 2 3.1 5.2 8.1 5.2 8.1V98s-.9-.4-2.4-2.1l-2 2.1s-7.8 23.2-14.2 34.7c0 0-3.2 26.4-6.1 32.6-2.9 6.2-5.7 10.9-16.3 18.7l3.4 8.6h-1.4l-3.8-9.4s14-8 16.3-18.4 3.2-26.5 5.4-32.2h1.6s12.3-28.8 13.9-34.7l3.1-2.3c-1-1.1-2.3-2.8-3.7-5.1-.2.6-.4 1.3-.7 1.9-6.6 17.3-14 36.6-14 36.6l-3.5 2.5v-4.3l-1.6-4.1 4.7-.2s7.7-20.5 10.3-30.6c0 0 1-2.2 2.3-5.8h-1.3l-5.1-7.9 1.9-1s2.6 4.9 3.5 5.6c.6.4 1.2.2 1.9.6 2.8-8.9 6.2-23.3 4.2-37.2l2.4 1.7c-.6-1.1-.9-1.7-.9-1.7l-4.6-11.5-3.4-.7s-5.6-5.5-9.3-10.4l4.2.6s2.3 4 5.1 9.8l-4.8-10.5s-.2.4-5-2.2c-4.1-2.2-6.7-2.2-8.2-1.7 3.7.3 7.1 2.7 7.1 2.7s5.8 8.4 8.6 19.9-2.9 34.4-2.9 34.4-.4.1-1.1.2c0 0-7 1.2-8.9 1.6-2.8.5-4.2-1.6-4.3-5.4 0-1.9-.1-3.8-.1-5.5v-4.7c0-1.8.1-3.6.1-5.4l.1-7.6c0-1.7 0-3.4-.1-4.9l-.4-6.6c-.2-2.5-.5-3.9-.5-3.9l14.8 2.2c-.2-.8-.5-1.5-.7-2.2-2-.2-10.1-1-11.7-1.4-1.8-.5-4.5-3-4.5-3l-5.3-12.8-.7-.3c1.9 5 1.8 11.9 1.8 11.9l3.2 1.2.6 1.6s-4.2-.3-7.5-1.1c-3.4-.8-8.5-5.7-8.5-5.7h-6.4l-3.7 2 6.5-.4c5.8 5.5 15.8 6.7 15.8 6.7zm24.1 3.5l1.4-1.2h3.1s4 6.1 4.5 10.9l-6.1-7.4h-1.4l-1.5-2.3z"/><path fill="#B5B1B2" d="M138.5 27.3l.3-.1h-.2s-.1 0-.1.1zm7.9-15.8c-.5-.1-1.1-.1-1.6-.2l-.9 5.2.6-3 1.9-2z"/><path fill="#958A8A" d="M136.1 5.6l-4.2 3.5.1 2.6 3.8-3.7 3.1.4-.9 13.9 1.9 3.2-1.9.6.5 1.1h.2l3.7-2h-.1l1.6-8.7.9-5.2 1.8-10c-1.1-.2-2.3-.3-3.4-.4l-.9 9.6-1.2-1.4.2-7.8-.7-.7c-.3 0-.6-.1-.9-.1l-.8 5.5-2.8-.4z"/><path fill="#282222" d="M141.1 9.1l1.2 1.4.9-9.6c-.9-.1-1.7-.2-2.6-.3l.7.7-.2 7.8zm-12.6-4.4v20.5h9.1l.4.9 1.9-.6-1.9-3.2.9-13.9-3.1-.4-3.8 3.7-.1-2.6 4.2-3.5 2.9.4.7-5.4c-1.6-.1-3.1-.3-4.7-.3l-.6 1.2c-1.3 2.7-5.9 3.2-5.9 3.2z"/><path fill="#282222" d="M137.6 25.1c-.9.3-1.7.6-2.4.9 1.3-.5 2.4-.9 2.4-.9z"/><path fill="#383536" d="M157.3 30.9c3.4.8 7.5 1.1 7.5 1.1l-.6-1.6-3.2-1.2s0-6.9-1.8-11.9c-.9-2.3-2.2-4.2-4.1-4.8-3.9-1.2-8.5-1.2-8.5-1.2l-.1.1-1.9 2-.6 3-1.6 8.7h6.5c-.1 0 5 5 8.4 5.8z"/><path fill="#504B4E" d="M165.1 30.4s2.7 2.6 4.5 3c1.5.4 9.6 1.2 11.7 1.4-2.4-6.9-5.7-10.3-5.8-10.4l-6.8-3.4-.6-.3c-4.1-1.7-8.2-3.1-8.2-3.1l5.2 12.8z"/><path fill="#4D4345" d="M134.7 32.8c-1 4-1.7 9.2-2.3 15l18.4-8.5 2.2 1.1 1.9-1.1 4.9 3 1.8-1.3v-.7l-1-6.9s-10.1-1.2-15.6-6.7l-6.5.4-.3.1c-.2.5-2.1 2.1-3.5 5.6z"/><path fill="#4D4345" d="M150.9 57.1l2.2 1.1 1.9-1.1 4.9 3 1.7-1.2.1-2.3H156v-2.5h5.7V43.3l-2.2 1.8s-8.8 1.3-9.4-.3 0-3.7 0-3.7L132.4 49c-.5 5.4-.9 11.3-1.1 17.1l19.6-9z"/><path fill="#4D4345" d="M134.1 100.3h1.6l22-16.4-.5-3.7 3.6-1.7.8-17.3-2 1.6s-8.8 1.3-9.4-.3 0-3.7 0-3.7l-19 8.4c-.7 16.8-.5 32.1-.5 32.1h-2.3v1h5.7z"/><path fill="#282222" d="M150.2 44.8c.6 1.6 9.4.3 9.4.3l2.2-1.8.6-.5 4.8 1.9-4.6-4.2-.7.5-1.8 1.3-4.9-3-1.9 1.1-2.2-1.1-18.4 8.5c0 .4-.1.8-.1 1.2l17.9-7.9c-.3 0-.9 2.1-.3 3.7zm0 14s-.6 2.1 0 3.7 9.4.3 9.4.3l2-1.6.8-.6 4.8 1.9-4.6-4.2-.8.6-1.7 1.2-4.9-3-1.9 1.1-2.2-1.1-19.6 9v1.1l18.7-8.4z"/><path fill="#C3BDC2" d="M130.8 29.2l-2.3 54.7v15.4h2.3s-.2-15.4.5-32.1v-1.1c.2-5.8.6-11.6 1.1-17.1 0-.4.1-.8.1-1.2.6-5.8 1.3-11 2.3-15 1.4-3.5 3.3-5.1 3.7-5.5l.1-.1-.5-1.1-.4-.9s-1.1.4-2.4.9c-2.9 1.4-4.5 3.1-4.5 3.1z"/><path fill="#797375" d="M130.8 29.2h-2.3v54.7z"/><path fill="#3A3231" d="M128.5 26.8v2.4h2.3s1.6-1.8 4.4-3.1c.7-.4 1.5-.7 2.4-.9h-9.1v1.6z"/><path fill="#383536" d="M175.4 24.4c.1.1 3.4 3.5 5.8 10.4.2.7.5 1.4.7 2.2l-14.8-2.2s.2 1.4.5 3.9l15.2 1.3 1.2 6.3-16-.9v-.1c.1 1.5.1 3.1.1 4.9l15.9.4c.2 4.1-.3 7.6-.3 7.6l-15.7-.4c0 1.8-.1 3.6-.1 5.4l15-.3c-.4 4-1.6 13.6-1.7 14.3.7-.1 1.1-.2 1.1-.2s5.6-22.9 2.9-34.4c-2.8-11.5-8.6-19.9-8.6-19.9s-3.4-2.4-7.1-2.7h-.1l-1.4.6.2.1.6.3 6.6 3.4z"/><path fill="#958A8A" d="M184 46.3l-1.2-6.3-15.2-1.3.4 6.6v.1zm0 4.3l-15.9-.4-.1 7.6 15.8.4s.4-3.4.2-7.6zm-1.1 12.3l-15 .3v4.7c0 1.7 0 3.6.1 5.5.1 3.8 1.6 5.9 4.3 5.4 1.9-.3 8.9-1.6 8.9-1.6.1-.7 1.3-10.3 1.7-14.3z"/><path fill="#504B4E" d="M178.2 24.1c3.7 4.9 9.3 10.4 9.3 10.4-2.8-5.9-5.1-9.8-5.1-9.8l-4.2-.6zm9.5 15.2l6.1 7.4c-.5-4.8-4.5-10.9-4.5-10.9h-3.1l-1.4 1.2 1.4 2.3h1.5z"/><path fill="#958A8A" d="M189.7 83.9c.4.2.9.6 1.4 1.5.3.4.7 1.1 1.1 1.8 4.5-16.2 4.2-36.6 4.1-38.5v-.1l-.1-.1-2.4-1.7c2.1 13.8-1.3 28.2-4.1 37.1zm-1 2.7c-1.3 3.6-2.3 5.8-2.3 5.8-2.6 10.1-10.3 30.6-10.3 30.6l-4.7.2 1.6 4.1v4.3l3.5-2.5s7.3-19.3 14-36.6c.2-.6.5-1.3.7-1.9-.7-1.1-1.4-2.4-2.2-3.9l-.3-.1z"/><path fill="#383536" d="M189.7 83.9c-.7-.4-1.3-.2-1.9-.6-1-.6-3.5-5.6-3.5-5.6l-1.9 1 5.1 7.9h1.6c.8 1.5 1.5 2.8 2.2 3.9 1.4 2.4 2.7 4 3.7 5.1l1.2-.9-1.1 1.1c1.5 1.7 2.4 2.1 2.4 2.1v-2.7s-3.2-5-5.2-8.1c-.5-.7-.9-1.4-1.1-1.8-.6-.8-1.1-1.2-1.5-1.4z"/><path fill="#282222" d="M194.9 95.7l-3.1 2.3c-1.6 5.9-13.9 34.7-13.9 34.7h-1.6c-2.2 5.7-3.2 21.8-5.4 32.2s-16.3 18.4-16.3 18.4l3.8 9.4h1.4l-3.4-8.6c10.5-7.8 13.4-12.5 16.3-18.7 2.9-6.2 6.1-32.6 6.1-32.6 6.4-11.6 14.2-34.7 14.2-34.7l2-2.1 1.1-1.1-1.2.8z"/><path fill="#393C25" d="M153 171.6c.8-1.6 8.4-16.3 7.4-27.9-1.1-12.2-11.9-19.7-15.2-22.4-3.3-2.7-9.2-7.3-9.2-7.3s-1.8-.6-2.6 1.7c0 0 5.6.6 5.7 3s-1.1 4.5-1.1 4.5-3.7-1.6-5.3 1.8c0 0 4.8 1.1 6.4-.8 1.6-1.9 1.4-4.5 1.4-4.5s6.1 3.6 7.2 7.3c1.1 3.7 3.4 11.3 3.1 16.8 1 1.1 1.6 2.3 1.8 3.6.5 3.1 4.1 13.9.4 24.2z"/><path fill="#4F3E1C" d="M148.5 169.3c.1-.1.1-.2.2-.3-.1.1-.1.1-.2.3 0-.1 0-.1 0 0z"/><path fill="#4F3E1C" d="M128.5 146.3c4.5 0 7.1-.5 10.6-1 .3-.1.6-.1.8-.2.8-.2 1.6-.3 2.4-.2h.2c5.6-.6 7.7 3.1 9 6.5s1.7 7.4-1 14.8c-.3.9-.9 1.7-1.6 2.6 0 .7-.2 5.7-3.7 9.1-3.8 3.7-7.2 4.9-9.6 5.3-2.4.3-4.3 1.4-7.2 1.4v4.1s3.7.8 7.2 0 12.6-5.4 16.9-16c.2-.4.3-.7.4-1.1 3.6-10.2.1-21-.4-24.3-.2-1.3-.8-2.5-1.8-3.6-1.6-1.8-4.2-3.2-7.1-3.3-4.6-.2-15.2 0-15.2 0v5.9h.1z"/><path fill="#1F100F" d="M147.7 146.7c.5.4.8 1.2.8 1.7v2.2s-1 1.8-3.8.8c0 0-1 1.8-3.9.6 0 0-1.4 2.5-4.9 1.1 0 0-2.7 2.6-7.3 0v4.9s3.8-.4 9-2.6c5.1-2.3 6.8-.4 9.8 1.6 2.5 1.6 1.7 7.1 1.4 8.8.5.4 1.4 1.7-.2 3.2v.1l.2-.2c.1-.1.2-.2.2-.3v.1c.7-.8 1.3-1.7 1.6-2.6 2.6-7.4 2.3-11.5 1-14.8-1.3-3.4-3.4-7.1-9-6.5h-.2c2.8.2 5.5 1.5 5.5 1.5s-.2.3-.2.4zm-19.2-.3s6.8-.3 10.6-1.1c-3.5.5-6 1-10.6 1v.1z"/><path fill="#541D17" d="M128.5 176.8s2.2-1.2 5.1-.4c0 0 .8-1.2 3.4-.3 0 0 1-1.9 3.5-1.5 0 0-.1-2.8 3.1-3 0 0 1.3-2.6 1.8-2.8.5-.1 1.2-3.5 3.1-3.1l.2.2c.3-1.7 1.1-7.2-1.4-8.8-3-1.9-4.7-3.8-9.8-1.6-5.1 2.3-9 2.6-9 2.6v18.7z"/><path fill="#7E4A3E" d="M128.5 146.4v2.7s2.7-2.1 4.3-1.8c1.6.2 3.2 2.1 3.2 2.1s1.5-2.4 3-2.1 1.8 1.2 1.8 1.2 2.5-2.7 3.4-2.5.9 2 .9 2 .9-1.5 1.8-1.5c.3 0 .5.1.7.2.1-.2.1-.3.1-.3s-2.7-1.4-5.5-1.5c-.8 0-1.6 0-2.4.2-.3.1-.5.1-.8.2-3.7.8-10.5 1.1-10.5 1.1zm7.2 36.7c2.4-.3 5.8-1.6 9.6-5.3 3.5-3.4 3.7-8.4 3.7-9.1v-.1c-.1.1-.2.2-.2.3-.1.1-.1.2-.2.3 0 .9 0 4.7-2.5 5.5 0 0-.2 2.3-2.8 2.4 0 0 .2 2.3-1.6 2.5 0 0-.7 1.9-3.7.8 0 0-1 1.4-2.5 1.7-1.6.2-2.6-.8-2.6-.8s-1.2.7-2.8.9-1.6-.9-1.6-.9v3.1c2.9.2 4.8-1 7.2-1.3z"/><path fill="#C1A899" d="M128.5 152.1v1.2c4.6 2.6 7.3 0 7.3 0 3.5 1.4 4.9-1.1 4.9-1.1 2.9 1.1 3.9-.6 3.9-.6 2.8 1 3.8-.8 3.8-.8v-2.2c0-.6-.3-1.4-.8-1.7-.2-.1-.4-.2-.7-.2-1 0-1.8 1.5-1.8 1.5s0-1.8-.9-2-3.4 2.5-3.4 2.5-.3-1-1.8-1.2-3 2.1-3 2.1-1.6-1.8-3.2-2.1c-1.6-.2-4.3 1.8-4.3 1.8v2.8zm20 17c1.6-1.5.7-2.7.2-3.2l-.2-.2c-1.9-.4-2.6 3-3.1 3.1s-1.8 2.8-1.8 2.8c-3.2.2-3.1 3-3.1 3-2.5-.4-3.5 1.5-3.5 1.5-2.5-.9-3.4.3-3.4.3-3-.8-5.1.4-5.1.4v4.6s0 1.1 1.6.9c1.6-.2 2.8-.9 2.8-.9s1.1 1.1 2.6.8c1.6-.2 2.5-1.7 2.5-1.7 3 1.1 3.7-.8 3.7-.8 1.8-.2 1.6-2.5 1.6-2.5 2.5-.1 2.8-2.4 2.8-2.4 2.5-.8 2.6-4.6 2.5-5.5v-.1l-.1-.1z"/><path fill="#4C1612" d="M128.5 4.7s4.6-.4 5.8-3.3l.6-1.2c-2.1-.1-4.3-.2-6.4-.2v4.7z"/><path fill="#BFBEC7" d="M10.3 154.5l-4.8 7.4c16 10.6 28.7 40.9 28.7 40.9l5.1-3.7c-6.5-25.2-29-44.6-29-44.6z"/><path fill="#BFBEC7" d="M30.3 153.1c6.4 5.4 15.9 25.9 15.9 25.9l-2.1 3.3c-2.6-5.4-9.3-17.6-9.3-17.6l-2.8 2-2.6-3.8 3.5-3-4.5-5.3-2.7 3.7-3.4-3.8 3.8-4.2-4.9-5.3-7 7.2c17.2 13.4 28.2 44.3 28.2 44.3l11.3-11.8C49.9 171.8 33 152.2 33 152.2l-2.7.9zm18.6 3.3l-1.6 1.4 3.6 4.1 2.9-4.8s-5.1-10.7-15.6-2.7c0 0 13.8 13.9 18.7 26.4l2.8-3.9.1-.1c-.1-.1-11.3-16-17.5-22.3 0 0 2.7-2.9 6.6 1.9z"/><path fill="#5D482A" d="M224.4 147.8l.4.2c.5-5.7.9-10.9 1.2-15.4 0 0-11.4-4.3-19.8-3.5-.4 4.4-1 9.4-1.5 14.9.1-.1.1-.2.2-.3-.1.1 10.2-.9 19.5 4.1zm-2.3 20.5l.8.5c.5-5.3.9-10.4 1.3-15.2l-.3-.2s-11.4-4.3-19.8-3.5l-.2-.2c-.5 4.7-1 9.6-1.5 14.7l.1-.1c0-.1 10.3-1 19.6 4zm-15.4-45.2s10.3-.9 19.6 4.1c.4-5.6.6-9.2.7-10.3-.7-.4-1.2-.7-1.6-.9-5.6-1.9-11.5-3.4-17.5-4.4v.4c-.2 1.2-.6 5.1-1.2 11.1zm-7.1 67.4c-.5 4.8-1.1 9.6-1.6 14.3 1.3-.1 10.8-.6 19.4 4.1l1.1.6 1.8-15-.9-.6c0 .1-11.4-4.2-19.8-3.4zm20.2-2l1.1.6c.5-5.1 1.1-10.1 1.5-14.9l-.7-.5s-11.4-4.3-19.8-3.5l-.1-.1c-.4 3.5-.8 7-1.1 10.6-.1 1.2-.3 2.5-.4 3.7.8 0 10.6-.7 19.5 4.1zm-2.8 25.9s-11.3-4.3-19.7-3.5c-.3 3-.7 6-1 8.9-.4 3.6-.8 7.1-1.3 10.5-.3 2.5-.6 4.9-.9 7.2 8.3-5.1 16.1-11 23-17.8.2-1.6.4-3.2.7-4.8l-.8-.5z"/><path fill="#3F3930" d="M222.9 168.8l3.7 2.1c.4-5.2.8-10.3 1.2-15.1l-3.5-2.3c-.4 4.8-.9 10-1.4 15.3zm3-36.1c-.3 4.4-.7 9.6-1.2 15.4l3.5 2c.4-5.8.8-11 1-15.2l-3.3-2.2zm.4-5.5l3.3 1.9c.2-3.8.4-6 .4-6 2.5.5 5.1 1.3 7.8 2.4-.7-1.9-1.6-3.2-2.8-4-3.8-2.3-6.4-3.8-8-4.7-.1 1.1-.3 4.8-.7 10.4zm-5.4 62l3.6 2.1v3.5c.6-5.9 1.1-12 1.6-18l-3.7-2.4c-.4 4.7-1 9.7-1.5 14.8zm3.4 8l-4-2.6-1.8 15 3.7 2.1v2.9l.2-.2c.6-5.1 1.3-11 1.9-17.2zm-7.1 22.6c1.1-1 2.1-2.1 3.2-3.2l-2.5-1.6c-.3 1.6-.5 3.2-.7 4.8z"/><path fill="#E1D385" d="M226.3 127.2c-9.3-5-19.6-4.1-19.6-4.1-3.5 3.8-.6 6.1-.6 6.1 8.4-.8 19.8 3.5 19.8 3.5l3.3 2.2c.1-2.2.3-4.1.4-5.8l-3.3-1.9zm-1.9 20.6c-9.3-5-19.6-4.1-19.6-4.1-.1.1-.2.2-.2.3-2.6 3-1.1 5-.6 5.6l.2.2c8.4-.8 19.8 3.5 19.8 3.5l.3.2 3.5 2.3c.1-2 .3-3.9.4-5.8l-3.5-2-.3-.2zm-2.3 20.5c-9.3-5-19.6-4.1-19.6-4.1l-.1.1c-2.9 3.3-1.1 5.4-.6 5.9l.1.1c8.4-.8 19.8 3.5 19.8 3.5l.7.5 3.7 2.4c.2-1.9.3-3.9.5-5.8l-3.7-2.1-.8-.5zm-1.2 20.9l-1.1-.6c-8.9-4.8-18.7-4.2-19.5-4.1h-.1c-.4.4-.7.8-.9 1.2-1.9 3.1.3 4.8.3 4.8 8.4-.8 19.8 3.5 19.8 3.5l.9.6 4 2.6c.1-.8.2-1.7.2-2.5v-3.5l-3.6-2zm-2.4 20.4l-1.1-.6c-8.6-4.7-18.1-4.2-19.4-4.1h-.2c-3.5 3.8-.6 6.1-.6 6.1h.1c8.4-.7 19.7 3.5 19.7 3.5l.8.5 2.5 1.6c.6-.6 1.2-1.3 1.8-2v-2.9l-3.6-2.1z"/><path fill="#725836" d="M237.8 125.5c-2.7-1.1-5.3-1.9-7.8-2.4 0 0-.1 2.2-.4 6-.1 1.6-.2 3.6-.4 5.8-.3 4.3-.6 9.4-1 15.2-.1 1.9-.3 3.8-.4 5.8-.4 4.8-.7 9.9-1.2 15.1-.2 1.9-.3 3.8-.5 5.8-.5 6.1-1.1 12.2-1.6 18-.1.8-.2 1.7-.2 2.5-.6 6.2-1.3 12-1.9 17.2 3-3.3 5.9-6.8 8.6-10.4 6.7-34 11.3-66.7 6.8-78.6z"/><path fill="#272D2D" d="M245.5 107.6c-8.6-4.5-21.1 7.8-21.1 7.8s.3.1 1 .5c.4.2.9.5 1.6.9 1.6.9 4.2 2.4 8 4.7 1.2.8 2.1 2.1 2.8 4 4.5 11.9 0 44.6-6.9 78.6 15.7-21.3 25-47.6 25-76.1 0-4.2-.2-8.3-.6-12.3-2.4-4.1-6-6.2-9.8-8.1z"/></svg>