<svg xmlns="http://www.w3.org/2000/svg" width="256" height="256"><circle fill="#B1B3B5" cx="128" cy="128" r="128"/><path d="M64.6 150.9c.9 2.5 2.6 6.8 4.6 12.3l10.8-3.7c0-3.3.9-6.4 3.3-8.8 3.8-4 6.4-7.7 7.2-11.2 0 0 .1.3.2.9l-.2-2.8c-1.1-2.4-2-4.8-2.5-7.1-.4-1.8-1.2-4.9-2.2-8.8-6.4 2.6-14.3 6.2-17.8 10.1-1 1.1-2 2.1-2.8 3.1.4-.4.9-.8 1.3-1.1 0-.1-5.7 6.9-1.9 17.1z"/><path fill="#B49A8E" d="M128 164.4v-3.2s-18.8 0-25.3-6.4c-4.7-4.6-9.3-11-12.2-17.2l.2 2.8c.8 3.8 4.3 19 15.2 30.1 12.5 12.8 22.2 15.5 22.2 15.5v-21.6z"/><path fill="#000E18" d="M77.4 188.9c3.8 14 6.9 29.4 6.6 42.8-.1 4.6-.3 10.2-.6 16.3 8.9 3.3 18.3 5.7 28.1 6.9-2.8-15.2-6.5-29.1-11.4-36-6.9-9.8-15.6-21.1-22.7-30zm2.6-29.4l-10.8 3.7c.8 2.3 1.7 4.8 2.6 7.6l9.4-3.5c-.7-2.7-1.2-5.3-1.2-7.8z"/><path fill="#022837" d="M128 185.9s-15.5 10.7-18.8 13.9c-3.3 3.2-5.8 4.9-7.3 3.5s-15-20.3-18-28.3c-.9-2.4-1.9-5.1-2.7-7.8l-9.4 3.5c1.9 5.5 3.8 11.6 5.6 18.1 7 8.9 15.8 20.2 22.8 30.1 4.9 6.9 8.6 20.8 11.4 36 5.4.7 10.8 1 16.4 1v-70z"/><path fill="#9A9491" d="M105.8 170.4c-10.8-11.1-14.4-26.3-15.2-30.1-.1-.6-.2-.9-.2-.9-.8 3.5-3.4 7.2-7.2 11.2-2.5 2.4-3.4 5.5-3.3 8.8 0 2.5.5 5.1 1.3 7.8s1.8 5.4 2.7 7.8c3 8 16.6 26.8 18 28.3s4-.3 7.3-3.5 18.8-13.9 18.8-13.9-9.7-2.7-22.2-15.5z"/><path fill="#0A3040" d="M77.4 188.9c-1.8-6.5-3.7-12.7-5.6-18.1-.9-2.7-1.8-5.2-2.6-7.6-2-5.5-3.7-9.8-4.6-12.3-3.8-10.2 1.9-17.2 1.9-17.2-.5.3-.9.7-1.3 1.1-9.7 8.8-15.3 29.6-15.3 29.6s-22.8 9.4-39.5 14.2c13.8 32 40.3 57.3 73.1 69.5.3-6.1.5-11.7.6-16.3.3-13.5-2.8-28.9-6.7-42.9z"/><path fill="#0C0D11" d="M165.5 137.6l-.2 2.8c.1-.6.2-.9.2-.9.8 3.5 3.4 7.2 7.2 11.2 2.5 2.4 3.4 5.5 3.3 8.8l10.8 3.7c2-5.5 3.7-9.8 4.6-12.3 3.8-10.2-1.9-17.2-1.9-17.2.5.3.9.7 1.3 1.1-.8-.9-1.8-1.9-2.8-3.1-3.5-3.8-11.3-7.5-17.8-10.1-1 3.9-1.8 7-2.2 8.8-.5 2.4-1.3 4.8-2.5 7.2z"/><path fill="#CCAD9F" d="M150.2 170.4c10.8-11.1 14.4-26.3 15.2-30.1l.2-2.8c-2.9 6.2-7.6 12.6-12.2 17.2-6.5 6.4-25.3 6.4-25.3 6.4v24.7c-.1.1 9.6-2.6 22.1-15.4zm26.8-71l-.4-.9c-1.9 7-4.3 15.5-6.1 22.3l.2.2c7.9 6.5 11.3-2.6 12.4-5.3 1-2.7 1.8-7.2 2.4-12s2.9-11.5 0-15.3c-.9-1.1-2-1.3-3.2-1-1.2 2.3-2.1 4.6-2.1 4.6l-3.2 7.4zm1.9 20.9c-.7 1.1-4.7 1.4-4.3-1.6 0 0-.7-3 1.2-3.4 1.9-.4.4 2.9 1.3 3.4.9.6 2.4.6 1.8 1.6z"/><path fill="#DEBCAD" d="M158.7 73.7c-.5 0-.9.1-1.4.1 1.5 1 2.8 2.2 3.5 3.1 1.9 2.6.9 4 .9 4-1.9-2.9-5.9-4.8-8.8-4.5-2.9.3-7.5-1.1-15.2 0 0 0-2.4-3.2 0-4.2 1.2-.5 3.6-1.1 6.1-1.5-4.8-2.1-10.2-5.6-15.7-11.3v68.9s1.2.2 2.3-.8c1.7-.8 3.8-.1 5 1.3 2.3 2.2 2.5 2.8 4.9 3.7 0 0-2.1 3.9-12.2 3.9v24.8s18.8 0 25.3-6.4c4.7-4.6 9.3-11 12.2-17.2 1.1-2.4 2-4.8 2.5-7.1.4-1.8 1.2-4.9 2.2-8.8l.3-.9c1.8-6.7 4.1-15.3 6.1-22.3l-1.5-3.2V92s.9-6 .9-7.4-2.6-5.3-2.6-5.3-1.5-2.1-5-8.4c-2.3 1.2-4.5 1.9-6.8 2.4-.2 0-1.2.2-3 .4z"/><path fill="#B2A59A" d="M175.9 84.5c0 1.4-.9 7.4-.9 7.4v3.4l1.5 3.2.4.9L180 92s.8-2.3 2.1-4.6c.6-1 1.2-2.1 1.9-2.9v-7.2s-.4-3.6 0-8.1c.4-4.6 1.8-7.4 1.8-7.4s-4.9-12-5.7-17c-.3-2-.3-4-.1-6-.5 1-.9 2-1.3 2.8 2.2 10.4 1.7 22.5-9.3 28.7-.4.2-.7.4-1.1.6 3.6 6.3 5 8.4 5 8.4s2.6 3.8 2.6 5.2z"/><path fill="#C8C3C0" d="M177.1 118.8c-.9-.5.6-3.7-1.3-3.4-1.9.4-1.2 3.4-1.2 3.4-.4 2.9 3.6 2.6 4.3 1.6.6-1.1-.9-1.1-1.8-1.6z"/><path fill="#503C32" d="M137.6 76.4c7.7-1.1 12.2.3 15.2 0 2.9-.3 6.9 1.6 8.8 4.5 0 0 1-1.4-.9-4-.7-1-2-2.1-3.5-3.1-1.8 0-3.7-.1-5.5-.5-2.4-.4-5-1.2-8-2.5-2.5.4-4.9 1-6.1 1.5-2.3.9 0 4.1 0 4.1z"/><path fill="#8A1826" d="M140.2 132.5c-2.4-.9-2.6-1.5-4.9-3.7-1.2-1.4-3.3-2.1-5-1.3-1.1 1-2.3.8-2.3.8v8.1c10.1 0 12.2-3.9 12.2-3.9z"/><path fill="#B49A8E" d="M79 99.4L75.9 92s-.8-2.3-2.1-4.6c-1.2-.3-2.4-.2-3.2 1-2.9 3.8-.6 10.5 0 15.3.6 4.8 1.3 9.3 2.4 12 1 2.7 4.4 11.8 12.4 5.3l.2-.2c-1.8-6.7-4.1-15.3-6.1-22.3l-.5.9zm1.2 16c1.9.4 1.2 3.4 1.2 3.4.4 2.9-3.6 2.6-4.3 1.6-.7-1.1.9-1.1 1.8-1.6s-.5-3.7 1.3-3.4z"/><path fill="#CCAD9F" d="M90.5 137.6c2.9 6.2 7.6 12.6 12.2 17.2 6.5 6.4 25.3 6.4 25.3 6.4v-24.9c-10.1 0-12.2-3.9-12.2-3.9 2.4-.9 2.6-1.5 4.9-3.7 1.2-1.4 3.3-2.1 5-1.3 1.1 1 2.3.8 2.3.8V59.3s-.4-.5-1.2-1.3c-1.5-1.8-2.8-3.6-3.9-5.3-3 1.5-8.8 2.8-14.8 1.7-9 6.1-18.3 12.8-20.1 16-3.8 6.7-5.3 8.9-5.3 8.9s-2.6 3.8-2.6 5.3.9 7.4.9 7.4v3.4l-1.5 3.2c1.9 7 4.3 15.5 6.1 22.3l.3.9c1 3.9 1.8 7 2.2 8.8.4 2.2 1.2 4.6 2.4 7zm4.8-60.7c1.9-2.6 7.7-6.2 11-6.5 3.3-.3 9.8 1 12.1 1.9 2.4 1 0 4.2 0 4.2-7.7-1.1-12.2.3-15.2 0-2.9-.3-6.9 1.6-8.8 4.5 0-.1-1-1.6.9-4.1z"/><path fill="#8F8174" d="M79 99.4l.4-.9 1.5-3.2V92s-.9-6-.9-7.4 2.6-5.3 2.6-5.3 1.5-2.2 5.3-8.9c1.8-3.2 11-9.9 20.2-16.1-3.5-.6-7.2-2.1-10.3-4.8-5.7-4.9-7.9-9.6-8.3-14.7-1.2-1.7-2.5-3.6-3.7-5.4-2.4-3.7-2.9-6.8-2.3-10-1 1.8-1.9 3.4-2.1 3.8-.4 1.2-4.6 4.6-5.7 7.7-1.1 3.1.9 8.9 0 13.9s-5.7 17-5.7 17 1.3 2.9 1.8 7.4c.4 4.6 0 8.1 0 8.1v7.2c.7.8 1.3 1.8 1.9 2.9 1.2 2.3 2.1 4.6 2.1 4.6l3.2 7.4z"/><path fill="#C8C3C0" d="M78.9 118.8c-.9.5-2.4.5-1.8 1.6.7 1.1 4.7 1.4 4.3-1.6 0 0 .7-3-1.2-3.4-1.8-.3-.4 2.9-1.3 3.4z"/><path fill="#3D2C22" d="M103.2 76.4c2.9.3 7.5-1.1 15.2 0 0 0 2.4-3.2 0-4.2s-8.8-2.2-12.1-1.9c-3.3.3-9.1 4-11 6.5-1.9 2.6-.9 4-.9 4 1.9-2.8 5.9-4.7 8.8-4.4z"/><path fill="#7B101E" d="M125.7 127.5c-1.7-.8-3.8-.1-5 1.3-2.3 2.2-2.5 2.8-4.9 3.7 0 0 2.1 3.9 12.2 3.9v-8.1s-1.2.2-2.3-.8z"/><path fill="#787063" d="M177.5 10.7c0 2.8-.4 4.9-.5 5.4.5-1.8.6-3.7.5-5.4zm-4.6 13.2c2.1-2.6 3.4-5.1 4.1-7.6-.2-2-1-4.7-2.3-7.5-3.7-1.5-7.5-2.8-11.4-3.9 3.2 5.3 6.6 11.7 9.6 19zm-24.3-12.1c-3.6-1.7-8.3-3.5-14.4-5.6 0 0-2.4-2.1-3.7-5.4 0 0 0-.1.1-.3L128 6.2v1.7s11.6.2 20.6 3.9z"/><path fill="#685F56" d="M165.3 46.2c2.6-1.7 4.6-8.1-.7-18.2-3.3-6.3-5.1-10-11.8-14 2.5 1.6 4.4 3.7 5.3 6.3 3.2 9.4-.1 14.3-.1 14.3s2.4-16.1-13.5-14.1c0 0 13 4.2 13.2 11.3.2 7.1 4.9 16.1 7.6 14.4z"/><path fill="#867B6F" d="M130.6.5c0-.1.1-.3.2-.5h-2.7v6.2l2.5-5.7zM177 16.1v.2c-.7 2.5-1.9 5-4.1 7.6 1.5 3.6 2.9 7.3 4.1 11.3.6 2 1.2 4.1 1.7 6.4.4-.9.9-1.8 1.3-2.8 3.2-6.8 7.3-16.7 7.3-22.8v-1.5c-3.2-1.7-6.5-3.2-9.8-4.6v.7c.1 1.8 0 3.7-.5 5.5z"/><path fill="#8F8174" d="M157.2 73.7c.5 0 .9 0 1.4-.1-1.7.1-4.1.1-7-.4 2 .4 3.8.6 5.6.5z"/><path fill="#8F8174" d="M130.5.8c1.3 3.4 3.7 5.4 3.7 5.4 6.2 2.1 10.8 3.9 14.4 5.6-9-3.7-20.6-3.9-20.6-3.9v41.7s20.7 25.2 33.5 23.7c2.3-.5 4.5-1.2 6.8-2.4.4-.2.7-.4 1.1-.6 11-6.2 11.5-18.3 9.3-28.7-.5-2.2-1-4.4-1.7-6.4-1.3-4-2.6-7.8-4.1-11.3-3-7.3-6.4-13.7-9.7-19-10.3-3-21.2-4.6-32.5-4.9-.1.2-.1.3-.2.5v.3zm13.9 19.8c16-2 13.5 14.1 13.5 14.1s3.3-4.9.1-14.3c-.9-2.6-2.8-4.7-5.3-6.3 6.7 3.9 8.5 7.7 11.8 14 5.3 10.1 3.4 16.5.7 18.2-2.6 1.7-7.4-7.3-7.6-14.4-.2-7.1-13.2-11.3-13.2-11.3zm17.1 43.5c-13.9.5-23.3-19.6-23.3-19.6 2.1 4 14.8 15.5 23.3 16.6 8.5 1.1 13.6-11.4 13.6-11.4s.2 13.9-13.6 14.4z"/><path fill="#685F56" d="M177 16.3v-.2c.1-.5.5-2.6.5-5.4V10c-.9-.4-1.9-.8-2.9-1.2 1.4 2.8 2.2 5.4 2.4 7.5z"/><path fill="#787063" d="M128 59.4c5.6 5.7 11 9.2 15.7 11.3 2.9 1.3 5.6 2.1 8 2.5 2.9.5 5.3.6 7 .4 1.8-.1 2.8-.4 2.8-.4-12.8 1.6-33.5-23.6-33.5-23.6v9.8zm33.5 1.6c-8.5-1.1-21.2-12.6-23.3-16.6 0 0 9.4 20.1 23.3 19.6s13.6-14.5 13.6-14.5-5.2 12.6-13.6 11.5z"/><path fill="#7B7165" d="M85.9 12.2c-1.1 2.7-1.9 5-2.3 7.2-.6 3.3-.1 6.3 2.3 10 1.2 1.8 2.5 3.7 3.7 5.4-.2-2.8.2-5.8.9-9 .8-3.9 3.8-7.4 7.5-10.4 0 0 5.9-13.7 15.3-9.9 3.4-2 6.6-1.5 9.1-.3.2-1.2.5-3 1.2-5.1-10.1.3-19.8 1.9-29.2 4.4-4.1 2.4-7.4 5-8.5 7.7zM128 9.9V0h-1.8c-.4 2.3-.8 4.7-1.1 7 1.8 1.5 2.9 2.9 2.9 2.9z"/><path fill="#595249" d="M125.2 7c.2-2.3.6-4.7 1.1-7-.9 0-1.8 0-2.7.1-.7 2.1-1.1 3.9-1.2 5.1 1 .5 2 1.2 2.8 1.8zm-12-1.5c-9.4-3.8-15.3 9.9-15.3 9.9 4.8-3.9 10.8-7.2 15.3-9.9z"/><path fill="#6A6458" d="M97.9 49.6c3.1 2.7 6.7 4.1 10.3 4.8 6 1.1 11.7-.2 14.8-1.7-8.4-13.6-4.3-24.1-4.3-24.1C121.1 17.9 128 14 128 14v-4s-1.1-1.5-2.8-2.9c-.8-.7-1.8-1.3-2.8-1.8-2.5-1.2-5.7-1.7-9.1.3-4.6 2.7-10.6 6-15.3 9.9-3.7 3.1-6.6 6.6-7.5 10.4-.7 3.2-1.1 6.1-.9 9 .4 5 2.6 9.8 8.3 14.7z"/><path fill="#787063" d="M128 59.3c-.4-.4-.8-.9-1.2-1.3.8.8 1.2 1.3 1.2 1.3zm-9.3-30.7c2 10.8 9.3 21 9.3 21V14s-6.9 3.9-9.3 14.6z"/><path fill="#595249" d="M118.7 28.6c0-.1 0-.1 0 0 0 0-4.2 10.5 4.3 24.1 1.1 1.7 2.3 3.5 3.9 5.3.4.4.8.9 1.2 1.3v-9.7c-.1 0-7.4-10.2-9.4-21z"/><path fill="#0B1A23" d="M178.6 188.9c-7 8.9-15.8 20.2-22.8 30.1-4.9 6.9-8.6 20.8-11.4 36 9.8-1.2 19.2-3.6 28.1-6.9-.3-6.1-.5-11.7-.6-16.3-.3-13.5 2.8-28.9 6.7-42.9zm-3.8-21.7l9.4 3.5c.9-2.7 1.8-5.2 2.6-7.6l-10.8-3.7c0 2.6-.5 5.2-1.2 7.8z"/><path fill="#0A3040" d="M178.6 188.9c1.8-6.5 3.7-12.7 5.6-18.1l-9.4-3.5c-.8 2.7-1.8 5.4-2.7 7.8-3 8-16.6 26.8-18 28.3s-4-.3-7.3-3.5S128 186 128 186v70c5.6 0 11-.4 16.4-1 2.8-15.2 6.5-29.1 11.4-36 7-9.9 15.7-21.2 22.8-30.1z"/><path fill="#B4ADA8" d="M176 159.5c0-3.3-.9-6.4-3.3-8.8-3.8-4-6.4-7.7-7.2-11.2 0 0-.1.3-.2.9-.8 3.8-4.3 19-15.2 30.1-12.5 12.8-22.2 15.5-22.2 15.5s15.5 10.7 18.8 13.9c3.3 3.2 5.8 4.9 7.3 3.5s15-20.3 18-28.3c.9-2.4 1.9-5.1 2.7-7.8.8-2.7 1.3-5.3 1.3-7.8z"/><path fill="#213A4A" d="M190.8 134.8c-.4-.4-.9-.8-1.3-1.1 0 0 5.7 7 1.9 17.2-.9 2.5-2.6 6.8-4.6 12.3-.8 2.3-1.7 4.8-2.6 7.6-1.9 5.5-3.8 11.6-5.6 18.1-3.8 14-6.9 29.4-6.6 42.8.1 4.6.3 10.2.6 16.3 32.8-12.2 59.3-37.5 73.1-69.5-16.7-4.8-39.5-14.2-39.5-14.2s-5.7-20.7-15.4-29.5z"/></svg>