<svg xmlns="http://www.w3.org/2000/svg" width="256" height="256"><circle fill="#B2B4B5" cx="128" cy="128" r="128"/><path fill="#3F3F41" d="M116.1 243.1l-5.6-1.3-1.3 1.7s-25.5-10.2-64.9-18.7c18.8 16.2 42.4 27.1 68.3 30.2l4.5-4.8-1-7.1zm5.2 8.3l-1.1 4.4c2.6.2 5.1.2 7.8.2v-4.6h-6.7zM53.2 110.1c-1 .4-2.1.9-3.1 1.3-5.3 2.6-15.4 9.4-12.2 23 4.3 18.2 11 31 11 31l-6.7 4.4s17.2 16.8 40.7 25.9l3.3 4.5 31.7 14.2v23.5H128v-60.3H91.5c-3.6-1.4-7.5-4.3-11.3-7.8 0 0-9.9-9.2-15.5-17.6v-.1c-1.2-1.7-2-2.7-2-2.7v-45.1c-4.4 2.1-10.5 5.2-17.7 9.5 1.7-.7 3.3-1.4 5-2.2 1.9-1.1 3.2-1.5 3.2-1.5z"/><path fill="#8C92A4" d="M78.1 65.5c12.8 2 35.4 10.4 35.4 10.4v18.2H128V13.6c-10.7 0-19.8.6-28.6 3.9-21.7 23.2-21.3 48-21.3 48zm39.7 86.3v-11.5H128V98.9H78.4c-10.8 0-15.6 6.3-15.6 6.3v43.9s.7 1 2 2.7v-30.5s.6-7 6.4-7 20.5 12.8 20.5 40.9v22.2H128v-25.6h-10.2zm-6.7 0H94.4s2.4-11.5 9.6-11.5h7.2l-.1 11.5zm-30.9 17.8c3.8 3.5 7.7 6.5 11.3 7.8h.1s-4.4-1.9-11.4-8.2v.4z"/><path fill="#767B8B" d="M71.1 114.3c-5.7 0-6.4 7-6.4 7v9.4s15.5 7 15.5 21.1v17.4c7 6.3 11.4 8.2 11.4 8.2v-22.2c0-28.1-14.8-40.9-20.5-40.9z"/><path fill="#4E5465" d="M80.2 151.9c0-14-15.5-21.1-15.5-21.1V152c5.6 8.5 15.5 17.6 15.5 17.6v-17.7z"/><path fill="#767B8B" d="M67.3 65.1H73c1.4-.1 3.1.1 5.1.4 0 0-.4-24.8 21.3-48-.3.1-36.6 7-36.6 59.5v25.5l4.6-3.5-.1-33.9z"/><path fill="#3F3F41" d="M78.3 98.9h49.6v-4.8h-14.4V75.9s-22.6-8.4-35.4-10.4c-2-.3-3.7-.5-5.1-.4h-5.7V99l-4.6 3.5v2.7s4.8-6.3 15.6-6.3zm-9.4-32.2s8.5-.9 13.8.7 28.9 9.1 28.9 9.1v20h-35c-6.9 0-7.7 1.6-7.7 1.6V66.7z"/><path fill="#767B8B" d="M76.7 96.5h35v-20S88.1 69 82.8 67.4 69 66.7 69 66.7V98c-.1.1.8-1.5 7.7-1.5zm31-17.1v10.9H75.4V73l32.3 6.4z"/><path fill="#3F3F41" d="M75.4 90.3h8.5V77.8l23.8 4.5v-2.9L75.4 73z"/><path fill="#FFF" d="M83.9 90.3h23.8v-8l-23.8-4.5z"/><path fill="#3F3F41" d="M117.8 140.3h10.1v11.5h-10.1zm-23.4 11.5h16.8v-11.5H104c-7.2 0-9.6 11.5-9.6 11.5z"/><path fill="#4E5465" d="M86.2 200.1l27.4 37.7-3.1 4 5.6 1.3-.8-5.3h2.5v-23.5z"/><path fill="#8C92A4" d="M110.5 241.8l3-4-27.4-37.7-3.3-4.5c-23.5-9.1-40.7-25.9-40.7-25.9l6.7-4.4s-6.7-12.8-11-31c-3.2-13.6 6.9-20.4 12.2-23-1.7.7-3.4 1.4-5 2.2-18.7 8.2-34.3 17-44.8 23.3 2.4 35.1 19 66.4 44 88 39.3 8.4 64.9 18.7 64.9 18.7l1.4-1.7zM50.1 111.4c1-.4 2.1-.9 3.1-1.3 0 0-1.3.4-3.1 1.3zm77.9 140v-13.6h-12.7l.8 5.3 1.1 7.1-4.5 4.8c2.5.3 5 .5 7.5.7l1.1-4.4 6.7.1z"/><path fill="#515153" d="M145.5 241.8l-5.6 1.3-1.1 7.1 4.5 4.8c25.9-3.1 49.5-14 68.3-30.2-39.3 8.4-64.9 18.7-64.9 18.7l-1.2-1.7zm-17.5 9.6v4.6c2.6 0 5.2-.1 7.8-.2l-1.1-4.4H128zm65.3-102.2s-.7 1-2 2.7v.1c-5.6 8.5-15.5 17.6-15.5 17.6-3.8 3.5-7.7 6.5-11.3 7.8 0 0 0 1.1 0 0H128v60.3h10.2v-23.5l31.7-14.2 3.3-4.5c23.5-9.1 40.7-25.9 40.7-25.9l-6.7-4.4s6.7-12.8 11-31c3.2-13.6-6.9-20.4-12.2-23-1-.4-2.1-.9-3.1-1.3 0 0 1.3.4 3.1 1.3 1.7.7 3.4 1.4 5 2.2-7.2-4.3-13.3-7.4-17.7-9.5v45.3z"/><path fill="#9BA0B4" d="M128 94.1h14.4V75.9s22.6-8.4 35.4-10.4c0 0 .4-24.8-21.3-48-8.8-3.3-17.9-3.9-28.6-3.9l.1 80.5zm36.5 83.3c3.6-1.4 7.5-4.3 11.3-7.8v-.3c-7 6.3-11.3 8.1-11.3 8.1z"/><path fill="#9BA0B4" d="M164.5 177.4v-22.2c0-28.1 14.7-40.9 20.5-40.9s6.4 7 6.4 7v30.5c1.2-1.7 2-2.7 2-2.7v-43.9s-4.8-6.3-15.6-6.3h-49.7v41.4h10.2v11.5H128v25.6h36.5zm-19.6-25.6v-11.5h7.2c7.2 0 9.6 11.5 9.6 11.5h-16.8z"/><path fill="#B9BCC6" d="M175.8 151.9c0-14 15.5-21.1 15.5-21.1v-9.4s-.6-7-6.4-7-20.5 12.8-20.5 40.9v22.2c0 1.1 0 0 0 0s4.3-1.9 11.3-8.2c.1-1.2.1-5.7.1-17.4z"/><path fill="#5F667A" d="M175.8 151.9v17.7s9.9-9.2 15.5-17.6v-21.2s-15.5 7-15.5 21.1z"/><path fill="#B9BCC6" d="M177.9 65.5c2-.3 3.7-.4 5.1-.4h5.7V99l4.6 3.5V77c0-52.5-36.3-59.5-36.6-59.5 21.6 23.2 21.2 48 21.2 48z"/><path fill="#515153" d="M188.7 65.1H183c-1.4-.1-3.1.1-5.1.4-12.8 1.9-35.4 10.4-35.4 10.4v18.2H128v4.8h49.7c10.8 0 15.6 6.3 15.6 6.3v-2.7l-4.6-3.5V65.1zm-44.3 31.4v-20s23.6-7.5 28.9-9.1c5.3-1.6 13.8-.7 13.8-.7V98s-.9-1.6-7.7-1.6c-6.9.1-35 .1-35 .1z"/><path fill="#898EA0" d="M187.1 98.1V66.7s-8.5-.9-13.8.7-28.9 9.1-28.9 9.1v20h35c6.8 0 7.7 1.6 7.7 1.6zm-15-7.8h-23.8V79.4l32.3-6.4v17.2h-8.5v.1z"/><path fill="#515153" d="M180.6 73l-32.3 6.4v2.9l23.8-4.5v12.5h8.5z"/><path fill="#FFF" d="M148.3 82.3v8h23.8V77.8z"/><path fill="#515153" d="M128 151.8h10.2v-11.5H128zm24.1-11.5h-7.2v11.5h16.8c-.1 0-2.5-11.5-9.6-11.5z"/><path fill="#5F667A" d="M138.2 237.8h2.5l-.8 5.3 5.6-1.3-3.1-4 27.4-37.7-31.6 14.2z"/><path fill="#9BA0B4" d="M205.9 111.4c-1.8-.9-3.1-1.3-3.1-1.3 1 .4 2.1.8 3.1 1.3zm0 0c5.3 2.6 15.4 9.4 12.2 23-4.3 18.2-11 31-11 31l6.7 4.4s-17.2 16.8-40.7 25.9l-3.3 4.5-27.4 37.7 3 4 1.3 1.7s25.5-10.2 64.9-18.7c25.1-21.7 41.6-52.9 44-88-10.4-6.4-26-15.2-44.8-23.3-1.5-.8-3.2-1.5-4.9-2.2zm-66 131.7l.8-5.3H128v13.6h6.7l1.1 4.4c2.5-.2 5.1-.4 7.5-.7l-4.5-4.8 1.1-7.2z"/></svg>