<svg xmlns="http://www.w3.org/2000/svg" width="256" height="256"><circle fill="#B1B3B5" cx="128" cy="128" r="128"/><path fill="#A37864" d="M76.2 110.9l-1 1.9s-2.4-14.5-5.8-26c-1.8-.7-3.4-1-4.3-.5-2.4 1.1-1.4 6.5-2.1 10.4s-.5 6.1.3 11-1.9 5.7 2.1 12.8c4 7 6.7 8.8 10.5 7l2.1-.9c-.2-2-.5-3.8-.7-5.4-.3-2.5-.7-6.1-1.1-10.3zm51.7 92.9v-26.1c-1.9.1-13.7.9-20.1-2.4-5.3-2.8-11.4-8.1-17-14 .1 3.4 0 7.3-.4 11.2 2.8 3.4 17.2 20.5 37.5 31.3z"/><path fill="#C08C76" d="M107.8 175.3c6.4 3.3 18.2 2.6 20.1 2.4V42.1c-2 1.4-15.1 10.5-42.1 17.8L83.1 68s-5.3 3.6-5.3 8.6 1 29.2 1 29.2l-2.6 5.1c.4 4.2.8 7.8 1.2 10.3.3 1.5.5 3.4.7 5.4 1.1 9.5 2.4 22.8 7.9 29.4 1.5 1.8 3.2 3.6 4.8 5.4 5.6 5.8 11.6 11.1 17 13.9zM87.7 89.1s1.2-4.6 4.1-6.9l-2.6.2s8.1-5.5 15.6-4.1 14.8 4.3 14.8 4.3 0 3.4-3.8 3.6-8.4-3.4-12.2-3.8c-4-.5-13.5 3.6-15.9 6.7z"/><path fill="#2C281C" d="M128.1 8.4h-.1.1zM76.2 110.9l2.6-5.1s-1-24.2-1-29.2 5.3-8.6 5.3-8.6l2.6-8.1c27-7.3 40.2-16.3 42.1-17.8V8.4c-31.9 0-42.4 5.6-54.6 22.5-12.2 17-10.1 38.8-5.7 50.3.6 1.7 1.3 3.6 1.9 5.6 3.4 11.4 5.8 26 5.8 26l1-1.9z"/><path fill="#2C281C" d="M103.5 82.4c3.8.5 8.4 4.1 12.2 3.8s3.8-3.6 3.8-3.6-7.4-2.9-14.8-4.3-15.6 4.1-15.6 4.1l2.6-.2c-2.9 2.4-4.1 6.9-4.1 6.9 2.5-3.1 12-7.2 15.9-6.7z"/><path fill="#8C8981" d="M119.1 221.7c-2.4-4.8-6-14.3-7.8-19.3-3.4 4.6-10.7 15.5-14.4 30.4l-2.4 1s-5.9-14.3-10.1-27.5c1.1 13.8 3.4 29.3 6 44.1 8.1 2.5 16.4 4.2 25.1 5l4.2-33.5c-.4-.2-.6-.2-.6-.2z"/><path fill="#344645" d="M127.9 223.2c-3.7 0-7-.9-8.2-1.3l-4.2 33.5c4.1.4 8.2.6 12.4.6v-32.8z"/><path fill="#253635" d="M127.9 210.7v-6.2l-14.7-4.5s-.7.8-1.9 2.4c1.8 5 5.4 14.4 7.8 19.3 0 0 .2.1.6.2 1.2.4 4.5 1.3 8.2 1.3v-12.5z"/><path fill="#A39F95" d="M85.3 177.3l.2-.2c-.1.1-.1.2-.2.2l-1 1.7c-.9 7.4-.8 16.8.1 27.2 4.2 13.2 10.1 27.5 10.1 27.5l2.4-1c3.7-14.9 11-25.8 14.4-30.4 1.2-1.6 1.9-2.4 1.9-2.4l14.7 4.5v-.5c-20.2-10.8-34.7-27.9-37.4-31.3-.3-.4-.5-.6-.5-.6-2.3 2.3-3.6 3.8-4.6 5.3h-.1z"/><path fill="#332718" d="M36.2 201.3c-3.2 1.1-7 2.2-10.9 3.2 8.1 10.9 17.9 20.4 29.1 28.3L70 187c-12.8 6.9-25.7 11.5-33.8 14.3zm49.1-24c.1 0 .1-.1.2-.2 0 .1-.1.1-.2.2z"/><path fill="#413425" d="M84.3 179l1-1.7.1-.2c-.2.1-9.3 4.3-15.3 9.7l-.1.2-15.6 45.7c10.9 7.6 22.9 13.6 35.9 17.6-2.6-14.9-4.9-30.4-6-44.1-.8-10.4-.9-19.8 0-27.2z"/><path fill="#C08C76" d="M179.8 110.9c-.4 4.2-.8 7.8-1.2 10.3-.3 1.5-.5 3.4-.7 5.4l2.1.9c3.8 1.8 6.5 0 10.5-7s1.3-7.8 2.1-12.8 1-7.2.3-11 .3-9.3-2.1-10.4c-.9-.4-2.5-.1-4.3.5-3.4 11.4-5.8 26-5.8 26l-.9-1.9zm-31.6 64.4c-6.9 3.6-20.4 2.4-20.4 2.4v26.2c20.4-10.8 34.9-28 37.7-31.5-.4-3.9-.4-7.7-.4-11.2-5.5 6-11.5 11.3-16.9 14.1z"/><path fill="#D7A990" d="M179.8 110.9l-2.6-5.1s1-24.2 1-29.2-5.3-8.6-5.3-8.6-8.4-8.4-6-27.1c-20.4-7.9-39.1 1-39.1 1v135.8s13.4 1.2 20.4-2.4c5.3-2.8 11.4-8.1 17-14 1.7-1.8 3.3-3.6 4.8-5.4 5.5-6.5 6.8-19.9 7.9-29.4.2-2 .5-3.8.7-5.4.4-2.4.8-6 1.2-10.2zm-27.3-28.5c-3.8.5-8.4 4.1-12.2 3.8s-3.8-3.6-3.8-3.6 7.4-2.9 14.8-4.3 15.6 4.1 15.6 4.1l-2.6-.2c2.9 2.4 4.1 6.9 4.1 6.9-2.5-3.1-12-7.2-15.9-6.7z"/><path fill="#3C382A" d="M127.9 28.3V42s18.7-8.9 39.1-1c-2.4 18.7 6 27.1 6 27.1s5.3 3.6 5.3 8.6-1 29.2-1 29.2l2.6 5.1 1 1.9s2.4-14.5 5.8-26c.6-2 1.2-3.9 1.9-5.6 7.2-16.8 1.5-51.5-16-52.7-3.1-15-12.4-20.1-44.3-20.1h-.2v19.8z"/><path fill="#3C382A" d="M164.3 82.1l2.6.2s-8.1-5.5-15.6-4.1-14.8 4.3-14.8 4.3 0 3.4 3.8 3.6 8.4-3.4 12.2-3.8c3.8-.5 13.4 3.6 15.8 6.7 0 .1-1.2-4.5-4-6.9z"/><path fill="#A39F95" d="M161.5 233.8l-2.4-1c-3.7-14.9-11-25.8-14.4-30.4-1.8 5-5.4 14.4-7.8 19.3 0 0-.2.1-.6.2l4.2 33.5c8.6-.8 17-2.5 25.1-5 2.6-14.9 4.9-30.4 6-44.1-4.1 13.2-10.1 27.5-10.1 27.5z"/><path fill="#425655" d="M127.9 223.2V256h.1c4.2 0 8.4-.2 12.6-.6l-4.2-33.5c-1.3.4-4.7 1.3-8.5 1.3z"/><path fill="#344645" d="M127.9 204.6v18.6c3.9 0 7.2-.9 8.5-1.3.4-.1.6-.2.6-.2 2.4-4.8 6-14.3 7.8-19.3-1.2-1.6-1.9-2.4-1.9-2.4l-15 4.6z"/><path fill="#B6B0A5" d="M127.9 204v.7l15-4.6s.7.8 1.9 2.4c3.4 4.6 10.7 15.5 14.4 30.4l2.4 1s5.9-14.3 10.1-27.5c.8-10.4 1-19.8.1-27.2l-1-1.7-.2-.2s.1 0 .2.2l-.1-.2c-1-1.5-2.3-3-4.6-5.3 0 0-.2.2-.5.6-2.8 3.3-17.3 20.6-37.7 31.4z"/><path fill="#413425" d="M186 187l15.6 45.7c11.1-7.8 20.9-17.4 29.1-28.3-3.8-1-7.6-2-10.9-3.2-8.1-2.7-21-7.3-33.8-14.2zm-15.3-9.7l-.2-.2c.1.1.1.2.2.2z"/><path fill="#4D3E2D" d="M186 186.8c-6.1-5.4-15.2-9.6-15.3-9.7l.1.2 1 1.7c.9 7.4.8 16.8-.1 27.2-1.1 13.8-3.4 29.3-6 44.1 13-4 25.1-10 35.9-17.6L186 187v-.2z"/></svg>