<svg xmlns="http://www.w3.org/2000/svg" width="256" height="256"><circle fill="#B1B3B5" cx="128" cy="128" r="128"/><path fill="#0A2D3B" d="M38.4 203.3l1.1-4.3c6.3-6.5 14-13 21.1-18.5l-37.4 21c10.6 15.1 24.5 27.9 40.5 37.2-.8-2.9-1.5-5.9-2-8.9-17.6-15.8-23.3-26.5-23.3-26.5z"/><path fill="#1E4354" d="M39.5 199l-1.1 4.3s5.7 10.7 23.3 26.5c-1.3-7.7-1.4-15.7.3-23.6 4.4-20.5 12.2-33.1 19.1-40.6-3.3 2.2-11.4 7.8-20.5 14.9-7.1 5.5-14.8 12-21.1 18.5z"/><path fill="#A37864" d="M79.2 114s-1.6-11-3.5-14.7c-2.3-1.2-4.9-1.8-7 .1-4.8 4.3-1 5.7-1 9.6 0 3.8-1.4 10.5 1.4 16.3 2.9 5.7 1.7 6.2 6 10.8 2 2.1 4.7 2.8 7 2.9-1.1-7.6-1.8-17.1-2.6-23.2-.1-.7-.2-1.2-.3-1.8zm27.1 57.5c-3.6-3.1-7.9-7.2-11.7-11.2l1.6 21.6s-.6 6.2-.7 15.7l32.4 45.3v-66.4c-5.7 0-14 1.4-21.6-5z"/><path fill="#282E33" d="M127.9 242.8l-32.4-45.3c-.1 14.5.9 36.6 6.8 55.8 8.3 1.7 16.9 2.6 25.7 2.6v-13.1z"/><path fill="#2C464A" d="M95.5 197.6c.1-9.5.7-15.7.7-15.7l-1.6-21.6c-1.1-1.2-2.2-2.3-3.2-3.4-2.4 1.5-6.2 4.1-10.3 8.7-6.9 7.5-14.7 20.1-19.1 40.6-1.7 7.9-1.6 15.9-.3 23.6.5 3 1.2 6 2 8.9 11.8 6.9 24.8 11.9 38.6 14.7-5.9-19.2-6.9-41.3-6.8-55.8z"/><path fill="#C08C76" d="M94.6 160.3c3.8 4 8.1 8.1 11.7 11.2 7.6 6.4 15.9 5.1 21.6 5V41.1c-14.2 0-13.9-1.6-21.6-2.6-7.7-1-12.1 2.2-19.5 8.6-2.2 1.9-3.4 4.7-4.1 7.8l.1-.1s-2 9.9 1.4 19.9c0 0-4.6 14.8-4.3 21.8.2 6.9.7 16.3.7 16.3l-1.4 1.2c.1.6.2 1.1.2 1.7.9 6.1 1.5 15.7 2.6 23.2.7 4.6 1.6 8.5 2.9 10.3 1.3 1.8 3.6 4.6 6.4 7.7 1.1 1.1 2.2 2.2 3.3 3.4zM96.9 86c7.8-3 19.2-2.2 22.5-.6 0 0 2.1 3.4.5 6.5 0 0-8.9-3.2-15.2-2.1-6.2 1.1-16 7-16 7s.4-7.8 8.2-10.8z"/><path fill="#2F1E10" d="M128.1 8.2h-.1.1zM82.8 54.9c.7-3 1.9-5.9 4.1-7.8 7.3-6.4 11.8-9.6 19.5-8.6 7.6 1 7.4 2.5 21.6 2.6V8.2l-6.9.9-5.1 2.6-4.8-2.2s-.3-2.6-1.3-.6c-1 1.9 2.2 1-1 1.9s-3.2 1-3.2 1l-3.5 3.2s-.6-.3-1.9 0c-1.3.3-2.2-.6-3.2 1.3s1 1-1 1.9c-1.9 1-.3.3-3.8 1.6-3.5 1.2-1.3-1.7-3.5 1.2s-4.2 4.5-6.1 5.1c-1.9.6-3.5 0-3.8 1.3s-1.3 1.9-1.3 3.2c0 1.3.3 1-.3 3.2s-2.2 2.6-3.5 4.2c-1.3 1.6-1 0-1.3 1.6s-.3 1-.3 3.5c0 2.6 1 4.5-.3 5.7L70.6 50l1.3 5.7s-1.8 4.6.6 12.8c0 0 .8-3.6 10.3-13.6z"/><path fill="#806257" d="M79.2 114l1.4-1.2s-.5-9.3-.7-16.3c-.2-6.9 4.3-21.8 4.3-21.8-3.4-9.9-1.4-19.9-1.4-19.9l-.1.1c-9.5 10-10.3 13.6-10.3 13.6s.7 6.2.5 11.5c-.4 9.7 2.2 18.4 2.2 18.4.2.2.4.5.6.9 1.9 3.7 3.5 14.7 3.5 14.7zm40.7-22.1c1.6-3.2-.5-6.5-.5-6.5-3.4-1.6-14.7-2.4-22.5.6-7.8 3-8.1 10.9-8.1 10.9s9.7-5.9 16-7c6.2-1.2 15.1 2 15.1 2z"/><path fill="#1E4354" d="M216.5 199l1.1 4.3s-5.7 10.7-23.3 26.5c-.5 3-1.2 6-2 8.9 16-9.3 29.9-22.1 40.5-37.2l-37.4-21c7.1 5.5 14.8 12 21.1 18.5z"/><path fill="#2A4A5E" d="M194 206.2c1.7 7.9 1.6 15.9.3 23.6 17.6-15.8 23.3-26.5 23.3-26.5l-1.1-4.3c-6.3-6.5-14-13-21.1-18.5-9-7.1-17.2-12.7-20.5-14.9 6.9 7.5 14.7 20.1 19.1 40.6z"/><path fill="#C08C76" d="M176.8 114c-.1.6-.2 1.1-.2 1.7-.9 6.1-1.5 15.7-2.6 23.2 2.3-.1 4.9-.7 7-2.9 4.3-4.6 3.1-5 6-10.8 2.9-5.7 1.4-12.5 1.4-16.3 0-3.8 3.8-5.3-1-9.6-2.1-1.9-4.7-1.3-7-.1-2 3.8-3.6 14.8-3.6 14.8zm-27.1 57.5c-7.7 6.5-16 5-21.8 5v66.6l32.6-45.5c-.1-9.5-.7-15.7-.7-15.7l1.6-21.6c-3.8 4-8 8.1-11.7 11.2z"/><path fill="#394046" d="M160.5 197.6l-32.6 45.5V256h.1c8.8 0 17.4-.9 25.7-2.6 5.9-19.2 6.9-41.3 6.8-55.8z"/><path fill="#3D5A5E" d="M194 206.2c-4.4-20.5-12.2-33.1-19.1-40.6-4.1-4.5-7.9-7.2-10.3-8.7-1 1.1-2.1 2.3-3.2 3.4l-1.6 21.6s.6 6.2.7 15.7c.1 14.5-.9 36.6-6.8 55.8 13.8-2.8 26.8-7.9 38.6-14.7.8-2.9 1.5-5.9 2-8.9 1.3-7.7 1.4-15.7-.3-23.6z"/><path fill="#D7A990" d="M176.8 114l-1.4-1.2s.5-9.3.7-16.3c.2-6.9-4.3-21.8-4.3-21.8 3.4-9.9 1.4-19.9 1.4-19.9l.1.1c-.7-3-1.9-5.9-4.1-7.8-7.3-6.4-11.8-9.6-19.5-8.6-7.7 1-7.3 2.6-21.7 2.6v135.4c5.7 0 14.1 1.4 21.8-5 3.6-3.1 7.9-7.2 11.7-11.2 1.1-1.2 2.2-2.3 3.2-3.4 2.8-3.1 5.1-5.8 6.4-7.7 1.3-1.8 2.2-5.7 2.9-10.3 1.1-7.6 1.8-17.1 2.6-23.2 0-.6.1-1.1.2-1.7zm-40.3-28.7c3.4-1.6 14.7-2.4 22.5.6 7.8 3 8.1 10.9 8.1 10.9s-9.7-5.9-16-7c-6.2-1.1-15.2 2.1-15.2 2.1-1.4-3.2.6-6.6.6-6.6z"/><path fill="#432F22" d="M142.6 12.1c-.1.1-.2.1-.3.1 1.2.7 2.9-1.4.3-.1z"/><path fill="#432F22" d="M127.9 41.1c14.4 0 14-1.6 21.7-2.6 7.7-1 12.1 2.2 19.5 8.6 2.2 1.9 3.4 4.7 4.1 7.8 9.3 9.8 10.2 13.5 10.3 13.6 2.3-8.1-3-12.8-3-12.8l1.3-5.7-1.3-1.3c-1.3-1.3-.3-3.2-.3-5.7 0-2.6 0-1.9-.3-3.5s-2.4-.8-3.7-2.4c-1.3-1.6-3.2-1.1-3.8-3.4s-.3-1.9-.3-3.2c0-1.3-1-1.9-1.3-3.2-.3-1.3-1.9-.6-3.8-1.3-1.9-.6-4.3-2.2-6.5-5.1s0 0-3.5-1.3-1.9-.6-3.8-1.6 0 0-1-1.9-1.9-1-3.2-1.3c-1.3-.3-2.9-1-2.9-1l.9-.9c-4.7-.1-5.9-.1-4.5-.8-.2-.1-.3-.3-.4-.5-.7-1.5-2.7-1.1-3.6-.9L135.1 9l-6.9-.9h-.2v33z"/><path fill="#957366" d="M173.2 54.9c-.1-.1 1.9 9.8-1.5 19.8 0 0 4.6 14.8 4.3 21.8-.2 6.9-.7 16.3-.7 16.3l1.4 1.2s1.6-11 3.5-14.7c.2-.4.4-.7.6-.9 0 0 2.6-8.7 2.2-18.4-.2-5.3.5-11.5.5-11.5-.1-.1-1-3.8-10.3-13.6zm-22 34.9c6.2 1.1 16 7 16 7s-.3-7.8-8.1-10.9c-7.8-3-19.2-2.2-22.5-.6 0 0-2.1 3.4-.5 6.5 0 .1 8.9-3.1 15.1-2z"/></svg>