<svg xmlns="http://www.w3.org/2000/svg" width="256" height="256"><circle fill="#B1B3B5" cx="128" cy="128" r="128"/><path fill="#36383C" d="M225.9 191.3c1.1 4.1 2.2 9.5 2.5 16.1 3.1-4 6-8.1 8.7-12.5-2.2-1.4-4.3-2.4-5.4-2.4-1.3 0-3.7-.6-5.8-1.2z"/><path fill="#191E24" d="M187.1 167.6l-5.5 1.9-1 2.3 4.9 1.1z"/><path fill="#292C2F" d="M155.6 160.7c-1.7 2.2-4.3 5.3-6.3 6.9l.1-.3c-2 2.6-3.9 5.1-5.9 6.9-3.9 3.4-15.5 2.7-15.5 2.7v72.9l5.3 1.6c.4-7.1 3.3-14.4 8.8-20.5 7.6-8.5 25-35.8 21.4-62.4-1.7-5.3-2.5-10.8-2.8-15-1.7 3.3-3.5 5.9-5.1 7.2z"/><path fill="#C08C76" d="M171.3 98.7c-.1.6-.1 1.1-.2 1.7.1-.5.2-1 .2-1.7zm5.6-20.2s-1.9 10-3.3 12.5c-1.4 2.6-1.7 16.4-3.1 14.3-.4 3-.7 6.4-1.1 9.7 3.4-1.5 7.3-3.3 8.6-4.6 2.6-2.6 1.1-5.4 2.6-9.6s1.1-8.3 0-13.1c-.9-4.1-.3-7-1.2-9.1-.8.8-2.5-.1-2.5-.1z"/><path fill="#D7A990" d="M170.5 105.3c-1.1-1.7.1-2.7.6-4.8.1-.6.2-1.2.2-1.7.1-3.5-1.4-7.8-2.5-10.3-1.1-2.6 2.2-14.4 2.9-22 .7-7.7-4.4-15.6-5.5-17.2-1.1-1.6-5.9-9.3-5.9-9.3s-8.1 2.2-12.5 5.1c-4.4 2.9-19.9 0-19.9 0v131.8s11.6.7 15.5-2.7c2-1.8 3.9-4.3 5.9-6.9l12-41.8s-2.6 28.4-4 32.9c0 0-.7 1-1.8 2.4 1.7-1.3 3.4-3.9 5.1-7.3 3.4-6.7 6.3-16 7-22.4.4-3.9 1.1-9.9 1.7-16 .5-3.4.9-6.8 1.2-9.8zM156 90c-4.8.6-14.3 6.7-16.9 7.3-2.6.6-3-4.7-3-4.7 3.2 1.9 11.8-3.5 17.7-5.1s10.7 0 10.7 0l-2 1 2 1.5c-.1 0-3.8-.7-8.5 0z"/><path fill="#C19983" d="M155.6 160.7c1.1-1.4 1.8-2.4 1.8-2.4 1.5-4.5 4-32.9 4-32.9l-12 41.8-.1.3c2-1.5 4.6-4.6 6.3-6.8z"/><path fill="#3D3839" d="M162.4 88.4l2-1s-4.8-1.6-10.7 0-14.5 7-17.7 5.1c0 0 .4 5.3 3 4.7 2.6-.6 12.1-6.7 16.9-7.3 4.8-.6 8.5 0 8.5 0l-2-1.5z"/><path fill="#312D2E" d="M128 44.9s15.5 2.9 19.9 0c4.4-2.9 12.5-5.1 12.5-5.1s4.8 7.7 5.9 9.3c1.1 1.6 6.3 9.6 5.5 17.2-.7 7.7-4 19.5-2.9 22 1.1 2.6 2.6 6.8 2.5 10.3 0 .7-.1 1.2-.2 1.7-.5 2.2-1.7 3.1-.6 4.8 1.4 2.2 1.7-11.7 3.1-14.3 1.4-2.6 3.3-12.5 3.3-12.5s1.7 1 2.5.1c.3-.3.5-.7.5-1.5 0-3.1-1.1-2.8 0-4.5 1.1-1.8 3.7-4.3 3.7-5.9v-9.2s.4-2.2 0-4.5c-.4-2.2 1.4-2.9.2-3.8-1.3-1-4.2-17.2-10.5-19.8 0 0 0-3.5-2.9-4.8-2.9-1.3-4-2.9-4.8-3.8-.7-1-2.2-2.9-3.3-3.2-1.1-.3-4-1.6-4-1.6h-2.1s-3.8-4.5-7.5-4.5-12.5-3-20.6-3v36.6z"/><path fill="#5A6473" d="M133.3 251.2l-5.3-1.6v6.4c1.8 0 3.6 0 5.3-.1-.1-1.5-.1-3.1 0-4.7z"/><path fill="#4C5059" d="M223 182.9l-5.1-1.3s2.8 17 5.1 32.3c1.9-2.1 3.7-4.3 5.5-6.5-.4-6.5-1.4-12-2.5-16.1-1.5-5.4-3-8.4-3-8.4zm-79.5 58.3c7.2-9.8 30-45.3 27.6-71.6l-7.6-2c0 .3.1.6.1.9 3.5 26.6-13.8 53.8-21.4 62.4-5.5 6.1-8.4 13.4-8.8 20.5-.1 1.6-.1 3.1.1 4.6 2.6-.1 5.2-.3 7.7-.5-.6-5.7-.2-11 2.3-14.3z"/><path fill="#282E34" d="M217.9 181.6l-13.2-3.4 1.3-5-18.8-5.6-1.7 5.3-4.9-1.1-9.6-2.2c2.4 26.3-20.4 61.8-27.6 71.6-2.4 3.3-2.9 8.6-2.4 14.2 32.4-3.3 61.2-18.7 81.9-41.5-2.2-15.4-5-32.3-5-32.3z"/><path fill="#27282D" d="M24.3 192.5c-1.1 0-3.2.9-5.4 2.4 2.7 4.3 5.6 8.5 8.7 12.5.4-6.5 1.4-12 2.5-16.1-2.1.6-4.5 1.2-5.8 1.2z"/><path d="M75.4 171.8l-1-2.3-5.5-1.9 1.6 5.3z"/><path fill="#1E2124" d="M113.9 230.8c5.5 6.1 8.4 13.4 8.8 20.5l5.3-1.6v-72.9s-11.6.7-15.5-2.7c-2-1.8-3.9-4.3-5.9-6.9l.1.3c-2-1.6-4.6-4.7-6.3-6.8-1.7-1.3-3.4-3.9-5.1-7.3-.4 4.2-1.1 9.7-2.8 15-3.6 26.6 13.8 53.8 21.4 62.4z"/><path fill="#B17D6B" d="M84.7 98.7c0 .7.1 1.2.2 1.7-.1-.6-.2-1.1-.2-1.7zM82.4 91c-1.4-2.6-3.3-12.5-3.3-12.5s-1.7 1-2.5.1c-.9 2.2-.3 5.1-1.2 9.1-1.1 4.8-1.5 8.9 0 13.1s0 7 2.6 9.6c1.3 1.3 5.2 3.1 8.6 4.6-.4-3.3-.7-6.6-1.1-9.7-1.4 2.1-1.7-11.7-3.1-14.3z"/><path fill="#C08C76" d="M100.4 160.7c-1.1-1.4-1.8-2.4-1.8-2.4-1.5-4.5-4-32.9-4-32.9l12 41.8c2 2.6 3.9 5.1 5.9 6.9 3.9 3.4 15.5 2.7 15.5 2.7V44.9s-15.5 2.9-19.9 0c-4.4-2.9-12.5-5.1-12.5-5.1s-4.8 7.7-5.9 9.3c-1.1 1.6-6.3 9.6-5.5 17.2.7 7.7 4 19.5 2.9 22-1.1 2.6-2.6 6.8-2.5 10.3.1.6.1 1.1.2 1.7.5 2.2 1.7 3.1.6 4.8.4 3 .7 6.4 1.1 9.7.7 6.1 1.3 12.2 1.7 16 .7 6.4 3.7 15.8 7 22.4 1.8 3.6 3.6 6.2 5.2 7.5zm-8.8-73.3s4.8-1.6 10.7 0 14.5 7 17.7 5.1c0 0-.4 5.3-3 4.7-2.6-.6-12.1-6.7-16.9-7.3-4.8-.6-8.5 0-8.5 0l2-1.5-2-1z"/><path fill="#9E7F6C" d="M94.6 125.4s2.6 28.4 4 32.9c0 0 .7 1 1.8 2.4 1.7 2.2 4.3 5.3 6.3 6.8l-.1-.3-12-41.8z"/><path fill="#302C2D" d="M100 90c4.8.6 14.3 6.7 16.9 7.3 2.6.6 3-4.7 3-4.7-3.2 1.9-11.8-3.5-17.7-5.1s-10.7 0-10.7 0l2 1-2 1.5c.1 0 3.8-.7 8.5 0z"/><path fill="#221E1E" d="M79.1 78.5s1.9 10 3.3 12.5c1.4 2.6 1.7 16.4 3.1 14.3 1.1-1.7-.1-2.7-.6-4.8-.1-.5-.2-1.1-.2-1.7-.1-3.5 1.4-7.8 2.5-10.3 1.1-2.6-2.2-14.4-2.9-22-.7-7.7 4.4-15.6 5.5-17.2 1.1-1.6 5.9-9.3 5.9-9.3s8.1 2.2 12.5 5.1c4.4 2.9 19.9 0 19.9 0V8.4c-8.1 0-16.9 3-20.6 3s-7.5 4.5-7.5 4.5h-2.1s-2.9 1.3-4 1.6c-1.1.3-2.6 2.2-3.3 3.2-.7 1-1.8 2.6-4.8 3.8-2.9 1.3-2.9 4.8-2.9 4.8-6.3 2.6-9.2 18.8-10.5 19.8-1.3 1 .5 1.6.2 3.8-.4 2.2 0 4.5 0 4.5v9.2c0 1.6 2.6 4.2 3.7 5.9 1.1 1.8 0 1.4 0 4.5 0 .8.2 1.2.5 1.5.6.9 2.3 0 2.3 0z"/><path fill="#434C58" d="M122.7 251.2c.1 1.6.1 3.1-.1 4.6 1.8.1 3.6.1 5.3.1v-6.4l-5.2 1.7z"/><path fill="#33373E" d="M38.1 181.6l-5.1 1.3s-1.5 3-2.9 8.4c-1.1 4.1-2.2 9.5-2.5 16.1 1.8 2.2 3.6 4.4 5.5 6.5 2.2-15.4 5-32.3 5-32.3zm84.6 69.6c-.4-7.1-3.3-14.4-8.8-20.5-7.6-8.5-25-35.8-21.4-62.4 0-.3.1-.6.1-.9l-7.6 2c-2.4 26.3 20.4 61.8 27.6 71.6 2.4 3.3 2.9 8.6 2.4 14.2 2.5.3 5.1.4 7.7.5.1-1.3.1-2.9 0-4.5z"/><path fill="#1D2228" d="M112.5 241.2c-7.2-9.8-30-45.3-27.6-71.6l-9.6 2.2-4.9 1.1-1.7-5.3-18.8 5.6 1.3 5-13.2 3.4s-2.8 17-5.1 32.3c20.7 22.9 49.5 38.3 81.9 41.5.6-5.6.2-10.9-2.3-14.2z"/></svg>