<svg xmlns="http://www.w3.org/2000/svg" width="256" height="256"><circle fill="#B1B3B5" cx="128" cy="128" r="128"/><path fill="#C08C76" d="M174.6 160c-.9 2.6-.9 2.1-.9 4s1.4 2.6 0 3.6 1.1-.7-1.4 1 1.1.7-2.9 3.3-3.6 0-4.1 2.6c-.5 2.6-.5.7-.5 2.6 0 1.9.7 2.4.5 4-.2 1.7.7 1.9-1.4 2.6-2 .7-2.7-1-3.2 1.7s0 2.4-.5 4 1.4 2.6-2.3 2.6-1.6-.7-3.6 0-3.6.2-3.6 1.4-.2 2.4-.2 2.4 2 .5-.5 1.4-.7-1.7-2.5 1-1.8 2.6-1.8 2.6-.9 1-1.6 1.7c-.7.7-2 0-3.6 0s-1.4-1.7-3.2.3 2 1.6-1.8 2.1-4.5 0-4.5 0c-1.8.2-3.4 4.5-3.4 4.5v11.3c25.3 0 42.1-15.5 50.1-25.2 0-5.3-.9-25.9-2.5-36.2-.4 0 .2-1.5-.6.7z"/><path fill="#444445" d="M166.3 241.5c5.1-17.9 11.8-42 11.8-45.9-8 9.6-24.8 25.2-50.1 25.2V256c11.7 0 23.1-1.6 33.9-4.5.6-1.8 1.3-3.5 2.3-5.2.6-1.1 1.3-2.8 2.1-4.8z"/><path fill="#283133" d="M223.7 186.2S212 200 209.5 203.1c-1.9 2.4-9.2 12.9-13 18.8l-1.5 2.4c-.4.6-.7 1.1-.8 1.4-.7 1.6-4 5.6-6.1 8.1-3.2 4.1-6.7 8.3-10.1 12.2 25.7-10.9 47.2-30.1 61-54.1-3.7-.8-7.5-1.9-10.8-3.6l-4.5-2.1z"/><path fill="#57554E" d="M177.7 154.1c-.5 1-.5 1.2-.5 2.1v.5c3.8 2.9 10.3 8.5 10.5 12.4.3 5.5 1.1 28.2.8 33.6-.3 5.4-2.1 10.3-1.7 9.7.5-.6 17-24.9 17.1-31.4.1-4.1-.6-6.6-1.2-7.8-.2-.4-.4-.7-.6-1.1l-4.6-6.2c-.7-.7-1.5-1.3-2.2-1.9h.4c-3.2-2.9-5.8-5.5-6.7-6.9-1.6-2.6-3.9-4.5-7.1-5.4-.1 0-.2.1-.3.1-2.7 1.6-3.4 1.3-3.9 2.3zm-13.6 92.2c-.9 1.7-1.7 3.4-2.3 5.2.5-.1 1.1-.3 1.6-.5.8-2.8 1.8-6 2.7-9.5-.6 2-1.3 3.7-2 4.8zm29.1-28c-.1.4.1 1.2.2 2.1 1.7-3.7 3.4-7.8 5.2-11.8-2.9 4.8-5.3 9.2-5.4 9.7zm3.3 3.6c-.6.9-1.1 1.7-1.5 2.4.6-.9 1.1-1.7 1.5-2.4zm-8.3 11.8c-1.1 1.3-1.8 2.2-1.8 2.2s1.6-3.5 4-8.6l-18.4 21c2.1-.8 4.1-1.6 6.1-2.4 3.4-4 6.9-8.1 10.1-12.2z"/><path fill="#494842" d="M202.2 172.2c.2.3.4.7.6 1-.3-.7-.6-1-.6-1z"/><path fill="#494842" d="M197.6 165.9l-.2-.3s5.3-.2 7.4 1.4c2.1 1.6 7.1 7.9 6.9 11.9 0 0-1.5-2.2-3.5-3.8 0 0 1.2 16.6-1.7 20.6-1.5 2-4.9 7.7-8 12.8-1.7 4-3.5 8.1-5.2 11.8.2 1.3.6 2.6.6 2.6l-3.7 4.2c-2.3 5.1-4 8.6-4 8.6s.8-.9 1.8-2.2c2.1-2.5 5.3-6.5 6.1-8.1.1-.3.4-.8.8-1.4.4-.6.9-1.5 1.5-2.4 3.8-5.9 11.1-16.5 13-18.8 2.5-3.1 14.2-16.9 14.2-16.9l4.5 2c-.2-5.4-9.7-11.7-11.9-11.7-2.3 0-4.5-5.5-7.4-9.5-2.6-3.5-11-3.1-13.1-2.9h-.4c.8.8 1.6 1.4 2.3 2.1z"/><path fill="#363530" d="M190.3 227.2l3.7-4.2-.6-2.6c-.2-.9-.3-1.7-.2-2.1.1-.5 2.5-4.8 5.4-9.7 3-5.1 6.5-10.8 8-12.8 2.9-4 1.7-20.6 1.7-20.6 2 1.6 3.5 3.8 3.5 3.8.2-4-4.8-10.3-6.9-11.9-2.1-1.6-7.4-1.4-7.4-1.4l.2.3 4.6 6.2s.3.3.6 1c.6 1.2 1.3 3.7 1.2 7.8-.2 6.5-16.7 30.7-17.1 31.4-.5.6 1.4-4.3 1.7-9.7.3-5.4-.5-28.1-.8-33.6-.2-3.9-6.7-9.5-10.5-12.4.1.9.2 2-1.1 2.6-.2.1-.4.1-.6.1 1.6 10.3 2.5 30.9 2.5 36.2 0 3.9-6.7 28-11.8 45.9-1 3.5-1.9 6.7-2.7 9.5 2.8-.8 5.7-1.7 8.4-2.7l18.2-21.1z"/><path fill="#C08C76" d="M182.8 94.3c-1.6 4.3.9 2.3-.9 8-1 3.2-1.6 4.2-2 3.6-.3 2.1-.7 4.2-1 6.3.1.4.1.9.1 1.5 0 2.6.9 1.7 1.1 3.3.1.8.7 2.1 1.2 3.3.4-.4.7-.8 1-1.2 1.8-1.9 4.5-9 5.2-12.1.2-.8.4-2.2.7-3.8-1.5-3.4-3.4-6.5-5.4-9.3.1.1.1.2 0 .4zm8.2-4.9c.4-1.5.2-3-.3-4.3.1 1.5.2 2.9.3 4.3z"/><path fill="#D7A990" d="M136.6 134.6c2 1.2 9 3.9 9 3.9V137s.2.2.5.4c0 0 2 1.7 4.5 3.6 1.1.7 2.8 1.9 4.5 2.6 2.3 1 2.3 1.9 4.3 2.1l2 .2s2.5.5 2.9-2.6c.5-3.1-.7-2.9 0-4.5.7-1.7.5-1.9 1.4-3.3.9-1.4-1.1-1.7 0-3.6 1.1-1.9-.5 0 1.1-1.9s-.9 0 1.6-1.9 5.2-3.6 5.2-3.6.5 0 .9-1.7c.5-1.6-.2-2.4.5-4s1.6-4.8 1.6-4.8l1.6-4.5s.7.9 1 2.6c.3-2.1.6-4.2 1-6.3-.3-.4-.5-1.3-.6-2.7-.2-1.7.4-2.4 0-4-.5-1.7.2-2.6 0-4.8-.2-2.1-1.1-2.9-1.8-5-.4-1.3-.3-1.8-.4-2.3-19.4-18.3-49-18.4-49-18.4v65.8c-.4.2 6.1-1 8.2.2zm1.8-51.2c2.7-1.4 6.9.3 10.7-1.7s6.8-1.9 9-1.9 4.1 1 5.7 1.9c1.7 1 6.5 5.2 6.5 5.2s-5-1.1-8.9-2c-3.9-.9-9 .4-13.1 1s-7.2 3-9.3 2.2c-2.1-.8-.6-3.2-1.4-4.4l.8-.3z"/><path fill="#9F8B7B" d="M179.2 94.4c.2 2.1-.5 3.1 0 4.8.5 1.7-.2 2.3 0 4 .2 1.4.4 2.4.6 2.7.4.6 1-.4 2-3.6 1.8-5.7-.7-3.7.9-8 .1-.1.1-.3.1-.4-1.8-2.5-3.8-4.7-6-6.7.1.5 0 1 .4 2.3.9 2 1.8 2.8 2 4.9z"/><path fill="#857668" d="M139 88.1c2.1.8 5.3-1.6 9.3-2.2 4.1-.6 9.2-1.9 13.1-1 3.9.9 8.9 2 8.9 2s-4.8-4.2-6.5-5.2c-1.7-1-3.5-1.9-5.7-1.9s-5.3-.1-9 1.9-8 .3-10.7 1.7l-.8.3c.8 1.3-.7 3.6 1.4 4.4z"/><path fill="#75675B" d="M179.1 113.7c0-.5-.1-1-.1-1.5-.3-1.7-1-2.6-1-2.6l-1.6 4.5 3.4 3.8v-.2 5.2c0 1.4 1.1 1.4 0 2.6-1.1 1.2-1.8 2.3-1.8 2.4 0 0 .1.1.7 1.7.7 1.9 1.1 2.8.7 4-.5 1.2-4.5 1.7-4.5 3.1v4.5c0 1.2.5 1.2-.5 3.6-.9 2.4-1.1 4.5-1.1 4.5s0 1.4-.7 2.1c-.7.7-1.4-1.4-2.5 0s-.2 2.6-1.4 3.8-.9 2.1-2.3 2.1h-2.9s1.8 3.3-.5 2.1c-2.3-1.2-3.4-3.1-4.1-3.1s-.9 1.9-.9 1.9-.5-2.9-2.7-3.1-2.6-.4-2.6.3.2 2.8-1.9 1.1c-2-1.7-.2-2.1-1.6-3.8-1.1 1-.6 1.3-1.3 2-.7.7.6 3-2.1.2-2.7-2.9-5.2-5.7-5.2-5.7l-1.1-.7-1.1 2.1s-.9-.7-1.1-1.4l-.2-.7-1.6-1.4s1.4.2-1.4-1.2c-2.7-1.4-3.2-1.7-3.8-1.7s-2.5-.7-2.5-.7v65.9s1.6-4.3 3.4-4.5c0 0 .7.5 4.5 0s0 0 1.8-2.1 1.6-.3 3.2-.3 2.9.7 3.6 0c.7-.7 1.6-1.7 1.6-1.7l1.8-2.6c1.8-2.6 0 0 2.5-1s.5-1.4.5-1.4.2-1.2.2-2.4 1.6-.7 3.6-1.4 0 0 3.6 0 1.8-1 2.3-2.6 0-1.4.5-4 1.1-1 3.2-1.7c2-.7 1.1-1 1.4-2.6.2-1.7-.5-2.1-.5-4s0 0 .5-2.6 0 0 4.1-2.6.5-1.7 2.9-3.3c2.5-1.7 0 0 1.4-1s0-1.7 0-3.6c0-1.9 0-1.4.9-4 .8-2.2.2-.7 1-.6.1 0 .3 0 .6-.1 1.3-.6 1.2-1.7 1.1-2.6v-.5c0-1 0-1.2.5-2.1s1.1-.7 4.1-2.1c.1 0 .2-.1.3-.1 2.6-1.3 1.7-1.4 1.7-3.7 0-2.4.9-7.4.7-10.9-.2-3.6 1.1-2.1 1.1-2.1s-1.4-1.9-2.7-3.1c-1.3-1.2-.2-3.1 0-4.2s-.7-2-.2-2.9c.5-1 0-1.9 0-1.9l-1.3-2.6c-.6-1.2-1.1-2.6-1.2-3.3-.5-1.9-1.4-.9-1.4-3.5z"/><path fill="#75675B" d="M146.1 137.5c1 .8 3 2.6 3.5 2.9.2.1.5.4.9.6-2.4-1.8-4.4-3.5-4.4-3.5z"/><path fill="none" stroke="#857668" stroke-width="0" stroke-linecap="round" stroke-linejoin="round" d="M179.8 117.9v-.2"/><path fill="#857668" d="M134.3 146c2.7 1.4 1.4 1.2 1.4 1.2l1.6 1.4.2.7c.2.7 1.1 1.4 1.1 1.4l1.1-2.1 1.1.7s2.5 2.9 5.2 5.7c2.7 2.9 1.4.6 2.1-.2.7-.7.2-1 1.3-2 1.4 1.7-.5 2.1 1.6 3.8 2 1.7 1.9-.4 1.9-1.1 0-.7.4-.6 2.6-.3s2.7 3.1 2.7 3.1.2-1.9.9-1.9 1.8 1.9 4.1 3.1c2.3 1.2.5-2.1.5-2.1h2.9c1.3 0 1.1-1 2.3-2.1s.2-2.4 1.4-3.8 1.8.7 2.5 0 .7-2.1.7-2.1.2-2.1 1.1-4.5c.9-2.4.5-2.4.5-3.6v-4.5c0-1.4 4.1-1.9 4.5-3.1.5-1.2 0-2.1-.7-4-.6-1.6-.7-1.7-.7-1.7s.7-1.2 1.8-2.4 0-1.2 0-2.6v-5l-3.4-3.8s-.9 3.1-1.6 4.8 0 2.4-.5 4-.9 1.7-.9 1.7-2.7 1.7-5.2 3.6c-2.5 1.9 0 0-1.6 1.9s0 0-1.1 1.9.9 2.1 0 3.6c-.9 1.4-.7 1.7-1.4 3.3-.7 1.7.5 1.4 0 4.5s-2.9 2.6-2.9 2.6l-2-.2c-2-.2-2-1.2-4.3-2.1-1.6-.7-3.4-1.8-4.5-2.6-.4-.3-.7-.5-.9-.6-.5-.4-2.6-2.1-3.5-2.9-.3-.3-.5-.4-.5-.4v1.5s-7-2.7-9-3.9c-2-1.2-8.6 0-8.6 0v9s1.8.7 2.5.7 1 0 3.7 1.4z"/><path fill="#263D53" d="M128 41.4c26.8 0 51.5 8 59.3 15.1C179.1 5 128 8.4 128 8.4v33z"/><path fill="#1E3247" d="M128 41.4v27.3s29.6.1 49 18.4c2.1 2 4.1 4.2 6 6.7 2.1 2.8 3.9 5.9 5.4 9.3 0 0 2.4 1 2.9-5.7.1-1.8 0-4.7-.2-8.1-.1-1.4-.2-2.8-.3-4.3-.6-8.7-1.5-19.1-.8-23.9.2-1.4-.7-3.1-2.5-4.7-8-7-32.7-15-59.5-15z"/><path fill="#B17D6B" d="M124.6 204.9s-.7.5-4.5 0 0 0-1.8-2.1-1.6-.3-3.2-.3-2.9.7-3.6 0c-.7-.7-1.6-1.7-1.6-1.7l-1.8-2.6c-1.8-2.6 0 0-2.5-1s-.5-1.4-.5-1.4-.2-1.2-.2-2.4-1.6-.7-3.6-1.4 0 0-3.6 0-1.8-1-2.3-2.6c-.5-1.7 0-1.4-.5-4s-1.1-1-3.2-1.7c-2-.7-1.1-1-1.4-2.6-.2-1.7.5-2.1.5-4s0 0-.5-2.6 0 0-4.1-2.6-.5-1.7-2.9-3.3c-2.5-1.7 0 0-1.4-1s0-1.7 0-3.6c0-1.9 0-1.4-.9-4-.8-2.2-.2-.7-1-.6-1.6 10.3-2.5 30.9-2.5 36.2 8 9.6 24.8 25.2 50.1 25.2v-11.3c.4 0-1.2-4.3-3-4.6z"/><path fill="#3A3A3A" d="M128 220.8c-25.3 0-42.1-15.5-50.1-25.2 0 3.9 6.7 28 11.8 45.9.8 2 1.5 3.7 2.1 4.8.9 1.7 1.7 3.4 2.3 5.2 10.8 3 22.1 4.5 33.9 4.5v-35.2z"/><path fill="#1E2627" d="M67.8 233.7c-2.1-2.5-5.3-6.5-6.1-8.1-.1-.3-.4-.8-.8-1.4l-1.5-2.4c-3.8-5.9-11.1-16.5-13-18.8-2.5-3.1-14.2-16.9-14.2-16.9l-4.5 2c-3.4 1.6-7.1 2.8-10.8 3.6 13.8 24.1 35.2 43.2 61 54.1-3.4-3.9-6.9-8-10.1-12.1z"/><path fill="#494842" d="M58.4 165.9l-4.6 6.2c-.2.3-.4.7-.6 1.1-.6 1.2-1.3 3.7-1.2 7.8.2 6.5 16.7 30.7 17.1 31.4.5.6-1.4-4.3-1.7-9.7-.3-5.4.5-28.1.8-33.6.2-3.9 6.7-9.5 10.5-12.4v-.5c0-1 0-1.2-.5-2.1s-1.1-.7-4.1-2.1c-.1 0-.2-.1-.3-.1-3.2.9-5.4 2.8-7.1 5.4-.8 1.3-3.5 3.9-6.7 6.9h.4c-.5.4-1.3 1-2 1.7zm31.3 75.6c1 3.5 1.9 6.7 2.7 9.5.5.2 1.1.3 1.6.5-.6-1.8-1.3-3.5-2.3-5.2-.5-1.1-1.2-2.8-2-4.8zm-26.9-23.2c-.1-.5-2.5-4.8-5.4-9.7 1.7 4 3.5 8.1 5.2 11.8.1-.9.3-1.8.2-2.1zm-1.8 5.9c-.4-.6-.9-1.5-1.5-2.4.4.8.9 1.6 1.5 2.4zm4.7 3c2.3 5.1 4 8.6 4 8.6s-.8-.9-1.8-2.2c3.2 4.1 6.7 8.3 10.1 12.2 2 .9 4.1 1.7 6.1 2.4l-18.4-21z"/><path fill="#363530" d="M46.5 203c1.9 2.4 9.2 12.9 13 18.8.6.9 1.1 1.7 1.5 2.4.4.6.7 1.1.8 1.4.7 1.6 4 5.6 6.1 8.1 1.1 1.3 1.8 2.2 1.8 2.2s-1.6-3.5-4-8.6L62 223l.6-2.6c-1.7-3.7-3.4-7.8-5.2-11.8-3-5.1-6.5-10.8-8-12.8-2.9-4-1.7-20.6-1.7-20.6-2 1.6-3.5 3.8-3.5 3.8-.2-4 4.8-10.3 6.9-11.9 2.1-1.6 7.4-1.4 7.4-1.4l-.2.3c.7-.7 1.5-1.3 2.2-1.9h-.4c-2-.2-10.5-.7-13.1 2.9-2.9 4-5.2 9.5-7.4 9.5s-11.7 6.3-11.9 11.7l4.5-2c.1 0 11.8 13.7 14.3 16.8z"/><path fill="#363530" d="M53.8 172.2s-.3.3-.6 1c.2-.3.4-.7.6-1z"/><path fill="#24241F" d="M77.9 195.6c0-5.3.9-25.9 2.5-36.2-.1 0-.3 0-.6-.1-1.3-.6-1.2-1.7-1.1-2.6-3.8 2.9-10.3 8.5-10.5 12.4-.3 5.5-1.1 28.2-.8 33.6.3 5.4 2.1 10.3 1.7 9.7-.5-.6-17-24.9-17.1-31.4-.1-4.1.6-6.6 1.2-7.8.3-.7.6-1 .6-1l4.6-6.2.2-.3s-5.3-.2-7.4 1.4c-2.1 1.6-7.1 7.9-6.9 11.9 0 0 1.5-2.2 3.5-3.8 0 0-1.2 16.6 1.7 20.6 1.5 2 4.9 7.7 8 12.8 2.9 4.8 5.3 9.2 5.4 9.7.1.4-.1 1.2-.2 2.1-.2 1.3-.6 2.6-.6 2.6l3.7 4.2 18.4 21c2.8 1 5.6 1.9 8.4 2.7-.8-2.8-1.8-6-2.7-9.5-5.3-17.8-12-41.9-12-45.8z"/><path fill="#B17D6B" d="M76.9 113.7c0-.5.1-1 .1-1.5-.3-2.1-.6-4.2-1-6.3-.4.6-1-.4-2-3.6-1.8-5.7.7-3.7-.9-8-.1-.1-.1-.3-.1-.4-2.1 2.8-3.9 5.9-5.4 9.3.3 1.6.6 3 .7 3.8.7 3.1 3.4 10.2 5.2 12.1.3.4.7.8 1 1.2.6-1.2 1.1-2.6 1.2-3.3.3-1.7 1.2-.7 1.2-3.3zM65 89.4c.1-1.4.2-2.8.3-4.3-.5 1.3-.7 2.8-.3 4.3z"/><path fill="#C08C76" d="M81.2 118.9c.7 1.7 0 2.4.5 4s.9 1.7.9 1.7 2.7 1.7 5.2 3.6c2.5 1.9 0 0 1.6 1.9s0 0 1.1 1.9-.9 2.1 0 3.6c.9 1.4.7 1.7 1.4 3.3.7 1.7-.5 1.4 0 4.5s2.9 2.6 2.9 2.6l2-.2c2-.2 2-1.2 4.3-2.1 1.6-.7 3.4-1.8 4.5-2.6 2.4-1.9 4.5-3.6 4.5-3.6.3-.3.5-.4.5-.4v1.5s7-2.7 9-3.9c2-1.2 8.6 0 8.6 0v-66s-29.6.1-49 18.4c-.1.5 0 1-.4 2.3-.7 2.1-1.6 2.9-1.8 5-.2 2.1.5 3.1 0 4.8-.5 1.7.2 2.3 0 4-.2 1.4-.4 2.4-.6 2.7.3 2.1.7 4.2 1 6.3.3-1.7 1-2.6 1-2.6l1.6 4.5c-.4 0 .5 3.1 1.2 4.8zm11.1-37.2c1.7-1 3.5-1.9 5.7-1.9 2.3 0 5.3-.1 9 1.9s8 .3 10.7 1.7l.8.3c-.8 1.3.8 3.6-1.4 4.4-2.1.8-5.3-1.6-9.3-2.2-4.1-.6-9.2-1.9-13.1-1-3.9.9-8.9 2-8.9 2s4.8-4.2 6.5-5.2z"/><path fill="#857668" d="M76.8 99.2c.5-1.7-.2-2.6 0-4.8.2-2.1 1.1-2.9 1.8-5 .4-1.3.3-1.8.4-2.3-2.1 2-4.1 4.2-6 6.7 0 .1.1.3.1.4 1.6 4.3-.9 2.3.9 8 1 3.2 1.6 4.2 2 3.6.3-.4.5-1.3.6-2.7.3-1.7-.3-2.3.2-3.9z"/><path fill="#75675B" d="M107.7 85.9c4.1.6 7.2 3 9.3 2.2 2.1-.8.6-3.2 1.4-4.4l-.8-.3c-2.7-1.4-6.9.3-10.7-1.7s-6.8-1.9-9-1.9c-2.3 0-4.1 1-5.7 1.9-1.7 1-6.5 5.2-6.5 5.2s5-1.1 8.9-2c4-.9 9.1.4 13.1 1z"/><path fill="#5D5348" d="M78.3 154.1c.5 1 .5 1.2.5 2.1v.5c-.1.9-.2 2 1.1 2.6.2.1.4.1.6.1.8-.1.3-1.6 1 .6.9 2.6.9 2.1.9 4s-1.4 2.6 0 3.6-1.1-.7 1.4 1-1.1.7 2.9 3.3c4.1 2.6 3.6 0 4.1 2.6.5 2.6.5.7.5 2.6 0 1.9-.7 2.4-.5 4 .2 1.7-.7 1.9 1.4 2.6 2 .7 2.7-1 3.2 1.7s0 2.4.5 4c.5 1.7-1.4 2.6 2.3 2.6 3.6 0 1.6-.7 3.6 0s3.6.2 3.6 1.4.2 2.4.2 2.4-2 .5.5 1.4.7-1.7 2.5 1 1.8 2.6 1.8 2.6.9 1 1.6 1.7c.7.7 2 0 3.6 0s1.4-1.7 3.2.3-2 1.6 1.8 2.1 4.5 0 4.5 0c1.8.2 3.4 4.5 3.4 4.5v-65.8s-1.8.7-2.5.7-1.1.2-3.8 1.7c-2.7 1.4-1.4 1.2-1.4 1.2l-1.6 1.4-.2.7c-.2.7-1.1 1.4-1.1 1.4l-1.1-2.1-1.1.7s-2.5 2.9-5.2 5.7c-2.7 2.9-1.4.6-2.1-.2-.7-.7-.2-1-1.3-2-1.4 1.7.5 2.1-1.6 3.8-2 1.7-1.9-.4-1.9-1.1 0-.7-.4-.6-2.6-.3s-2.7 3.1-2.7 3.1-.2-1.9-.9-1.9-1.8 1.9-4.1 3.1-.5-2.1-.5-2.1h-2.9c-1.4 0-1.1-1-2.3-2.1s-.2-2.4-1.4-3.8c-1.1-1.4-1.8.7-2.5 0s-.7-2.1-.7-2.1-.2-2.1-1.1-4.5c-.9-2.4-.5-2.4-.5-3.6v-4.5c0-1.4-4.1-1.9-4.5-3.1s0-2.1.7-4c.6-1.6.7-1.7.7-1.7s-.7-1.2-1.8-2.4 0-1.2 0-2.6v-5.2.2l3.4-3.8-1.6-4.5s-.7.9-1 2.6c-.1.4-.1.9-.1 1.5 0 2.6-.9 1.7-1.1 3.3-.1.8-.7 2.1-1.2 3.3-.6 1.4-1.3 2.6-1.3 2.6s-.5 1 0 1.9c.5 1-.4 1.8-.2 2.9.2 1.1 1.3 3 0 4.2-1.3 1.2-2.7 3.1-2.7 3.1s1.4-1.4 1.1 2.1c-.2 3.6.7 8.6.7 10.9 0 2.3-.8 2.4 1.7 3.7.1 0 .2.1.3.1 2.6 1.5 3.3 1.2 3.8 2.2z"/><path fill="#5D5348" d="M105.5 141c.4-.3.7-.5.9-.6.5-.4 2.6-2.1 3.5-2.9 0 0-2 1.7-4.4 3.5z"/><path fill="none" stroke="#75675B" stroke-width="0" stroke-linecap="round" stroke-linejoin="round" d="M76.2 117.9v-.2"/><path fill="#75675B" d="M128 134.6s-6.5-1.2-8.6 0c-2 1.2-9 3.9-9 3.9V137s-.2.2-.5.4c-1 .8-3 2.6-3.5 2.9-.2.1-.5.4-.9.6-1.1.7-2.8 1.9-4.5 2.6-2.3 1-2.3 1.9-4.3 2.1l-2 .2s-2.5.5-2.9-2.6c-.5-3.1.7-2.9 0-4.5-.7-1.7-.5-1.9-1.4-3.3-.9-1.4 1.1-1.7 0-3.6-1.1-1.9.5 0-1.1-1.9s.9 0-1.6-1.9-5.2-3.6-5.2-3.6-.5 0-.9-1.7c-.5-1.6.2-2.4-.5-4s-1.6-4.8-1.6-4.8l-3.4 3.8v5c0 1.4-1.1 1.4 0 2.6 1.1 1.2 1.8 2.3 1.8 2.4 0 0-.1.1-.7 1.7-.7 1.9-1.1 2.8-.7 4s4.5 1.7 4.5 3.1v4.5c0 1.2-.5 1.2.5 3.6.9 2.4 1.1 4.5 1.1 4.5s0 1.4.7 2.1c.7.7 1.4-1.4 2.5 0s.2 2.6 1.4 3.8.9 2.1 2.3 2.1h2.9s-1.8 3.3.5 2.1 3.4-3.1 4.1-3.1.9 1.9.9 1.9.5-2.9 2.7-3.1 2.6-.4 2.6.3-.2 2.8 1.9 1.1c2-1.7.2-2.1 1.6-3.8 1.1 1 .6 1.3 1.3 2 .7.7-.6 3 2.1.2 2.7-2.9 5.2-5.7 5.2-5.7l1.1-.7 1.1 2.1s.9-.7 1.1-1.4l.2-.7 1.6-1.4s-1.4.2 1.4-1.2c2.7-1.4 3.2-1.7 3.8-1.7s2.5-.7 2.5-.7v-8.7z"/><path fill="#1E3247" d="M128 41.4v-33s-51.1-3.5-59.3 48c7.8-7 32.5-15 59.3-15z"/><path fill="#112537" d="M79 87.1c19.4-18.3 49-18.4 49-18.4V41.4c-26.8 0-51.5 8-59.3 15.1-1.8 1.7-2.8 3.3-2.5 4.7.7 4.8-.2 15.1-.8 23.9-.1 1.5-.2 3-.3 4.3-.2 3.4-.3 6.3-.2 8.1.5 6.7 2.9 5.7 2.9 5.7 1.5-3.4 3.4-6.5 5.4-9.3 1.7-2.5 3.7-4.8 5.8-6.8z"/></svg>