<svg xmlns="http://www.w3.org/2000/svg" width="256" height="256"><circle fill="#B1B3B5" cx="128" cy="128" r="128"/><path fill="#9C7360" d="M127 201.4h-.2l1.2.7v-25.6h-7.2c-7.3 0-19.2-10.9-27.5-16-2.5-1.5-4.1-4.4-5.3-7.9.2 2.2.3 4.9.3 7.7 2.1 3.3 20.1 29.9 38.7 41.1zm-44-83.2c-.7-2.3-2-6.7-2.5-8.3-.6-2.2-3.5-5.4-4.8-6.7-1.3-1.3-3.5-.3-3.5-.3s0-.2-.1-.4c-.4.1-.7.4-1 .7-2.9 3.2-.6 1.6 1 9.6s2.6 17.6 6.7 19.5c2 .9 4.3 1.2 6.2 1.2-.3-3.3-.5-6.4-.9-8.9-.3-1.8-.7-4-1.1-6.4z"/><path fill="#C08C76" d="M118.5 93.5c5.6 1.6 8.5 1.8 9.4 1.7v-57c-4.3.1-12.6.5-17.4 1.9 0 0-16 3.2-19.8 15.3s2.6 18.2-2.6 23.6c-5.1 5.4-6.4 7.7-6.4 14.7 0 .7 0 1.3.1 2 18.8-4.4 30-4.1 36.7-2.2zm-21.9-5.9l-8.6 2s-.5-4.1 4.8-4.8c5.3-.7 19.4-6.9 28.7-3.1 0 0 .5 5-2.4 7.4 0 0-15.5-3.4-22.5-1.5zm-3.3 72.9c8.3 5.1 20.1 16 27.5 16h7.2v-75.8c-6.6.3-5.9 9.5-8.4 14.6-2.5 5.2-17.9 4.1-21.9 3.7-6.6-1.1-8.9-8.5-10.4-11.2-.8-1.4-2.7-3.3-4.4-4.8.7 4.1 1.6 7.7 1.2 8.6-.6 1.6-.6 8-.6 8s-.2-.6-.4-1.5c.4 2.5.8 4.6 1 6.3.4 2.5.6 5.6.9 8.9.5 6.4 1.2 13.7 3 19.3 1.1 3.6 2.8 6.4 5.3 7.9z"/><path fill="#43342F" d="M121.5 81.7c-9.3-3.8-23.5 2.4-28.7 3.1-5.3.7-4.8 4.8-4.8 4.8l8.6-1.9c6.9-1.9 22.5 1.4 22.5 1.4 2.9-2.4 2.4-7.4 2.4-7.4zm9.4-73.5h-.6.6z"/><path fill="#43342F" d="M75.7 103.1c1.3 1.3 4.2 4.5 4.8 6.7.5 1.6 1.8 6 2.5 8.3.3.9.4 1.5.4 1.5s-.1-6.4.6-8c.4-.9-.4-4.4-1.2-8.6-1.5-1.4-2.8-2.4-2.8-2.4v-4.5c.6-.2 1.2-.3 1.8-.4 0-.7-.1-1.4-.1-2 0-7 1.3-9.3 6.4-14.7 5.1-5.4-1.3-11.5 2.6-23.6s19.8-15.3 19.8-15.3c4.8-1.4 13.2-1.8 17.4-1.9v-.1h-.2V8.3C102.5 9.7 102.8 27 102.8 27c-13.4-2.6-24.9 8.3-28.1 12.5s-3.8 14-6.1 19.2c-2.2 5.1-3.8 13.7-2.2 21.1 1.4 6.6 4.9 20 5.6 22.6.1.3.1.4.1.4s2.3-.9 3.6.3z"/><path fill="#959089" d="M117 222.2c-2.5-4.6-4.6-11.4-6-16.5-4.2 3.3-12.5 10.8-18.5 22.2l10.1 25.5c3.5.7 7 1.3 10.6 1.7l4.3-32.7c-.4-.1-.5-.2-.5-.2z"/><path fill="#4D4E58" d="M127.9 224.9c-5.3 0-9.3-1.8-10.5-2.4l-4.3 32.7c4.9.6 9.8.9 14.9.9v-31.2h-.1z"/><path fill="#5C5D68" d="M127.9 216.2v-14.1l-1.2-.7-13.2 2.3s-1 .6-2.6 1.9c1.4 5.1 3.5 11.9 6 16.5 0 0 .1.1.4.2 1.2.6 5.3 2.4 10.5 2.4v-8.5z"/><path fill="#B3ACA3" d="M92.4 227.9c6-11.5 14.3-19 18.5-22.2 1.6-1.3 2.6-1.9 2.6-1.9l13.2-2.3h.2c-18.6-11.2-36.5-37.7-38.7-41.1-.1-.2-.2-.3-.2-.3-3 2.7-6.3 7.3-7.7 9.1-1.8 2.5-3.8 6.5-6.7 11.2l18.8 47.5z"/><path fill="#453939" d="M73.6 180.3s-30.3 13.5-49.9 22c18.5 25.9 46.4 44.6 78.7 51.2L92.3 228l-18.7-47.7z"/><path fill="#C08C76" d="M162.7 160.5c-8.3 5.1-20.1 16-27.5 16h-7.3v25.7l1.3-.7h-.2c18.6-11.2 36.5-37.7 38.7-41.1-.1-2.9.1-5.5.3-7.7-1.1 3.5-2.8 6.3-5.3 7.8zm15.9-56.6c-1.4 2.2-4.6 11.6-4.6 11.6-.1-.2-.3-.4-.4-.6-.7 3.8-1.2 7.2-1.6 9.5-.4 2.5-.6 5.6-.9 8.9 1.9 0 4.2-.3 6.2-1.2 4.2-1.9 5.1-11.5 6.7-19.5s3.8-6.4 1-9.6c-.6-.7-1.5-.9-2.5-.8v.1s-3.1.4-3.9 1.6z"/><path fill="#D7A990" d="M128.1 95.3h.1c.6 0 3.5 0 9.5-1.7 6.8-2 18.2-2.2 37.5 2.5.7-4.7 1.8-13.9-.7-15.9-3.1-2.6-1.9-18.6-8.8-29.8-6.5-10.7-35.5-12-37.9-12.1v57.1c.2-.1.2-.1.3-.1zm6.4-13.6c9.3-3.8 23.5 2.4 28.7 3.1 5.3.7 4.8 4.8 4.8 4.8l-8.6-1.9c-6.9-1.9-22.5 1.4-22.5 1.4-2.9-2.4-2.4-7.4-2.4-7.4zm39.1 33.2c-1.4-2.7-.5-8.2.3-12.1-1.7 1.5-3.9 3.6-4.8 5.2-1.5 2.7-3.9 10.1-10.4 11.2-4 .4-19.4 1.5-21.9-3.7s-1.8-14.6-8.6-14.7h-.2v75.8h7.3c7.3 0 19.2-10.9 27.5-16 2.5-1.5 4.1-4.4 5.3-7.9 1.9-5.6 2.5-12.9 3-19.3.3-3.3.5-6.4.9-8.9.4-2.4.9-5.8 1.6-9.6z"/><path fill="#56433E" d="M136.9 89.1s15.6-3.4 22.5-1.4l8.6 1.9s.5-4.1-4.8-4.8c-5.3-.7-19.4-6.9-28.7-3.1 0 0-.5 5 2.4 7.4z"/><path fill="#B3ACA3" d="M145 205.7c-1.4 5.1-3.5 11.9-6 16.5 0 0-.1.1-.4.2l4.3 32.7c3.6-.4 7.1-1 10.6-1.7l10.1-25.5c-6-11.4-14.4-18.9-18.6-22.2z"/><path fill="#5C5D68" d="M127.9 224.9V256h.1c5 0 10-.3 14.9-.9l-4.3-32.7c-1.3.7-5.3 2.5-10.7 2.5z"/><path fill="#656672" d="M129.3 201.4l-1.3.7v22.6c5.3 0 9.4-1.8 10.7-2.4.3-.1.4-.2.4-.2 2.5-4.6 4.6-11.4 6-16.5-1.6-1.3-2.6-1.9-2.6-1.9l-13.2-2.3z"/><path fill="#D4CABE" d="M129 201.4h.2l13.2 2.3s1 .6 2.6 1.9c4.2 3.3 12.5 10.8 18.5 22.2l18.8-47.6c-2.9-4.6-4.9-8.7-6.7-11.2-1.3-1.8-4.7-6.4-7.7-9.1 0 0-.1.1-.2.3-2.1 3.4-20.1 30-38.7 41.2z"/><path fill="#584A4A" d="M163.6 227.9l-10.1 25.5c32.3-6.5 60.2-25.3 78.7-51.2-19.6-8.5-49.9-22-49.9-22l-18.7 47.7z"/><path fill="#C08C76" d="M105.9 93.8c-12.7 0-18.3 3.5-18.3 3.5s1.2 15.3 7.5 18.8c7.5 3 15.8 1.1 19.5.6 3.7-.5 6.8-13.3 7.3-16.5.5-3.3-3.4-6.4-16-6.4z"/><path opacity=".5" fill="#FFF" d="M105.9 93.8c-12.7 0-18.3 3.5-18.3 3.5s1.2 15.3 7.5 18.8c7.5 3 15.8 1.1 19.5.6 3.7-.5 6.8-13.3 7.3-16.5.5-3.3-3.4-6.4-16-6.4z"/><path fill="#231F20" d="M128.2 100.7c-.1 0-.1 0 0 0l-.1-5.5h-.2c-.9 0-3.7-.1-9.4-1.7-6.7-1.9-17.9-2.2-36.7 2.3-.6.1-1.2.3-1.8.4v4.5s1.3 1 2.8 2.4c1.7 1.5 3.6 3.4 4.4 4.8 1.5 2.7 3.9 10.1 10.4 11.2 4 .4 19.4 1.5 21.9-3.7 2.4-5.1 1.8-14.4 8.4-14.6.1 0 .2-.1.3-.1zm-6.3-.6c-.5 3.2-3.6 16-7.3 16.5-3.7.5-12.1 2.4-19.5-.6-6.2-3.5-7.5-18.8-7.5-18.8s5.6-3.5 18.3-3.5 16.5 3.2 16 6.4zm6.3-4.8z"/><path fill="#D7A990" d="M150.5 93.8c-12.7 0-16.5 3.1-16 6.3.5 3.2 3.6 16 7.3 16.5 3.7.5 12.1 2.4 19.5-.6 6.2-3.5 7.5-18.8 7.5-18.8s-5.7-3.4-18.3-3.4z"/><path opacity=".5" fill="#FFF" d="M150.5 93.8c-12.7 0-16.5 3.1-16 6.3.5 3.2 3.6 16 7.3 16.5 3.7.5 12.1 2.4 19.5-.6 6.2-3.5 7.5-18.8 7.5-18.8s-5.7-3.4-18.3-3.4z"/><path fill="#231F20" d="M137.8 93.5c-6 1.7-8.9 1.8-9.5 1.7h-.2v5.5h.1c6.9.1 6.1 9.5 8.6 14.7 2.5 5.2 17.9 4.1 21.9 3.7 6.6-1.1 8.9-8.5 10.4-11.2.8-1.5 3-3.6 4.8-5.2.4-2 .9-3.7.9-4.2.1-.3.2-1.3.4-2.6-19.2-4.6-30.6-4.3-37.4-2.4zm23.5 22.5c-7.5 3-15.8 1.1-19.5.6-3.7-.5-6.8-13.3-7.3-16.5-.5-3.2 3.4-6.3 16-6.3 12.7 0 18.3 3.5 18.3 3.5s-1.3 15.2-7.5 18.7z"/><path fill="#56433E" d="M127.8 38.2h.2c2.4.1 31.4 1.4 37.9 12.1 6.8 11.2 5.6 27.2 8.8 29.8 2.4 2 1.4 11.3.7 15.9-.2 1.3-.4 2.2-.4 2.6-.1.5-.5 2.1-.9 4.2-.8 3.9-1.7 9.4-.3 12.1.1.2.2.4.4.6 0 0 3.2-9.3 4.6-11.6.8-1.3 3.8-1.7 3.8-1.7v-.1c.3-.9 5.2-15.3 4.7-22.7-.6-7.7-.1-19.9.2-22.8.3-2.9-2-10.4-6.2-14.8-4.3-4.5-10.3-18.4-14.5-20.6-4.3-2.2-11.9-5.7-14.2-8.9-1.9-2.7-14.7-3.9-21.5-4.1h-3.2v30z"/></svg>