<svg xmlns="http://www.w3.org/2000/svg" width="256" height="256"><circle fill="#B1B3B5" cx="128" cy="128" r="128"/><path fill="#DECBB8" d="M151 253.9c2.6-.5 5.3-1 7.8-1.7 3.2-6 6.3-12.1 9.1-18-4.5 5.8-10.7 12.9-16.9 19.7z"/><path fill="#5A5D3E" d="M172.1 248.2c14.5-5.3 27.8-13.2 39.3-23.1-9.3-6.8-17.6-11.3-21.7-13.3-4.6 10.2-10.9 23.7-17.6 36.4z"/><path fill="#47503B" d="M197.5 194.3s-.7 1.7-2 4.6c1.4 1.1 11.7 9.3 23.2 19.4 3.3-3.3 6.4-6.8 9.4-10.5-12.9-6-25.9-12-30.5-14.2-.1.4-.1.7-.1.7zm-3.6 8.2c-1.1 2.6-2.5 5.7-4.1 9.2 4.1 2 12.4 6.5 21.7 13.3 1.9-1.6 3.7-3.2 5.4-4.9-11.2-9.1-21.3-16.4-23-17.6z"/><path fill="#503227" d="M160.3 162.4c-2.2 2.9-8.2 17.2-32.3 17.2v29.5s27.1-18.2 39-33.5c3.2-4.2 5.3-8.2 6.7-11.9l2.4-24.4c-1.8 5.4-3.8 10.3-5.2 11.5-3.4 2.9-8.4 8.7-10.6 11.6z"/><path fill="#5E3C30" d="M183.6 85c-.8 2.6-.5 17.6-.5 17.6s-.1-.4-.2-1c.2 4.1.2 7.5.1 9.8-.1 3.7-.3 7.4-.9 9.6 1.4-.4 2.6-.8 3-1.3 1-1.2 2.2-6.9 3.6-9.8 1.4-2.9 1.2-6 1-9.4-.2-3.4.5-7.2 1-13.4s-3.1-4.8-5-4.8c-.4.9-1.3.2-2.1 2.7z"/><path fill="#764931" d="M165.4 128.4c1.7-2.4 8.6-14.6 9.3-16.5.7-1.8 7.1-10 8-11.1-1.1-6.5-4.8-27.9-6.8-35.5-2.4-8.9-2.6-16-4.3-18.7-1.8-2.7-8-6.2-16.6-6.1s-27-2.6-27-2.6v93.8s13.2.2 18.9 3.1c5.8 2.9 16.8-4 18.5-6.4zm-31-42.6s4.3-1.4 6.7-1.3 2.9.2 4.3.2 2.6-.3 7.5-1.8 6.9-2.1 6.9-2.1 2.1 1 5.3 2.7 2.4 2.2 2.4 2.2l-1.6 1v1.2s-3-.5-7.5 0-4.9 2.6-6.4 2.1c-1.4-.5-6.1 0-8.8 0-2.7 0-8.8-4.2-8.8-4.2zm17.5 66.3c0-3.1 4.6-3.4 6.7-7.2 2.2-3.8-.8-3.7-3.2-4.8-2.2-1-5.5-2.4-10.2-1.7s-17.2.2-17.2.2v17.7s12.9-.3 15.6-1.9c3.6-2 8.3 4.1 8.3-2.3zm31-40.7c.2-2.3.1-5.8-.1-9.8.1 1.8.2 5.8.1 9.8z"/><path fill="#663F28" d="M182.9 101.6c0-.3-.1-.5-.1-.9-.9 1.1-7.4 9.4-8 11.1-.7 1.9-7.7 14.1-9.3 16.5-1.7 2.4-12.7 9.3-18.4 6.5-5.7-2.9-18.9-3.1-18.9-3.1v6.9s12.5.5 17.2-.2 8.1.7 10.2 1.7c2.3 1.1 5.3 1 3.2 4.8-2.2 3.8-6.7 4.1-6.7 7.2 0 6.4-4.8.3-8.3 2.4-2.7 1.6-15.6 1.9-15.6 1.9v23.2c24.2 0 30.2-14.4 32.3-17.2 2.2-2.9 7.2-8.6 10.5-11.5 1.4-1.2 3.4-6.1 5.2-11.5 2.5-7.4 4.9-15.7 5.6-17.2.1-.3.3-.7.4-1.1.6-2.2.8-5.9.9-9.6-.1-4.1-.2-8.1-.2-9.9z"/><path fill="#49241C" d="M128 37.9s18.4 2.7 27 2.6 14.8 3.4 16.6 6.1c1.8 2.7 1.9 9.7 4.3 18.7 2 7.6 5.7 29 6.8 35.5.1.3.1.6.1.9.1.6.2 1 .2 1s-.3-15 .5-17.6c.8-2.5 1.7-1.8 1.9-2.6s1.9-18.1 1.9-20.5-.3-22.4-7.8-31c-7.5-8.6-20.1-18.4-30.7-20.4C138.4 8.4 128 8.4 128 8.4v29.5zM151.9 90c1.4.5 1.9-1.6 6.4-2.1s7.5 0 7.5 0v-1.2l1.6-1s.8-.5-2.4-2.2-5.3-2.7-5.3-2.7-1.9.6-6.9 2.1-6.1 1.8-7.5 1.8-1.9 0-4.3-.2-6.7 1.3-6.7 1.3 6.1 4.2 8.8 4.2c2.8 0 7.4-.5 8.8 0z"/><path fill="#DECBB8" d="M128 209.1v13.4s26.7-29.4 39.2-44.7c12.5-15.3 8.1-30.6 8.1-30.6s1.8 6.9-1.7 16.6c-1.3 3.7-3.4 7.7-6.7 11.9-11.8 15.2-38.9 33.4-38.9 33.4z"/><path fill="#8B8679" d="M167.2 177.8c-12.5 15.3-39.2 44.7-39.2 44.7v8.9s35.2-46.2 43.8-57.2c8.6-11 5.3-24.9 5.3-24.9-.6-.8-1.2-1.5-1.8-2.1 0 0 4.3 15.2-8.1 30.6z"/><path fill="#4E5161" d="M189.1 183s.2.1.5.2c-.1-10.6-4.2-20.7-4.2-20.7h.1c-2.3-5.8-5.2-11.1-8.3-13.2 0 0 3.3 13.9-5.3 24.9-8.6 11-43.8 57.2-43.8 57.2V256c7.9 0 15.6-.7 23-2.1 6.2-6.8 12.4-13.9 16.9-19.7 12.9-27.2 21.1-51.2 21.1-51.2z"/><path fill="#4F5849" d="M185.4 162.4s4.1 10.1 4.2 20.7c3.1 1.1 19.2 7.1 26.3 11.1 2.3 1.3 8.7 4.2 16.6 7.6 3.9-5.4 7.3-11.2 10.3-17.2-11.5-5.9-46.7-21.2-57.4-22.2.1 0 0 0 0 0z"/><path fill="#748062" d="M189.6 183.2c-.3-.1-.5-.2-.5-.2 8.1 3.7 8.6 8.8 8.5 10.6 4.6 2.2 17.7 8.2 30.5 14.2 1.5-1.9 3-3.9 4.4-5.9-7.9-3.4-14.3-6.3-16.6-7.6-7.1-4.1-23.2-10-26.3-11.1z"/><path fill="#685F57" d="M189.8 211.8c1.6-3.5 3-6.6 4.1-9.2-.2-.1-.2-.2-.2-.2l1.7-3.6s.1 0 .2.1c1.3-2.9 2-4.6 2-4.6s.1-.2.1-.7c.1-1.8-.3-7-8.5-10.6 0 0-8.1 24-21.1 51.3-2.8 5.9-5.8 12-9.1 18 4.5-1.1 8.9-2.5 13.2-4 6.6-12.8 12.9-26.3 17.6-36.5z"/><path fill="#555B45" d="M195.5 198.9c-.1-.1-.2-.1-.2-.1l-1.7 3.6.2.2c1.7 1.2 11.8 8.4 23 17.6.6-.6 1.2-1.2 1.9-1.8-11.5-10.2-21.9-18.4-23.2-19.5z"/><path fill="#8B8679" d="M97.1 252.2c2.6.6 5.2 1.2 7.8 1.7-6.2-6.8-12.4-13.9-16.9-19.7 2.9 6 5.9 12 9.1 18z"/><path fill="#4C4F34" d="M66.2 211.8c-4.1 2-12.4 6.5-21.7 13.3 11.5 9.9 24.8 17.8 39.3 23.1-6.6-12.7-12.9-26.2-17.6-36.4z"/><path fill="#38412E" d="M60.5 198.9c-1.3-2.9-2-4.6-2-4.6s-.1-.2-.1-.7c-4.6 2.2-17.7 8.2-30.5 14.2 2.9 3.7 6.1 7.2 9.4 10.5 11.5-10.1 21.9-18.3 23.2-19.4zm1.6 3.6c-1.7 1.2-11.8 8.4-23 17.6 1.8 1.7 3.6 3.3 5.4 4.9 9.3-6.8 17.6-11.3 21.7-13.3-1.6-3.4-2.9-6.6-4.1-9.2z"/><path fill="#43271D" d="M128 209.1v-29.5c-24.2 0-30.2-14.4-32.3-17.2-2.2-2.9-7.2-8.6-10.5-11.5-1.4-1.2-3.4-6.1-5.2-11.5l2.4 24.4c1.3 3.7 3.4 7.7 6.7 11.9 11.8 15.2 38.9 33.4 38.9 33.4z"/><path fill="#503227" d="M73.1 101.6c-.1.6-.2 1-.2 1s.3-15-.5-17.6c-.8-2.5-1.7-1.8-1.9-2.6-1.9 0-5.5-1.4-5 4.8.5 6.2 1.2 10 1 13.4-.2 3.4-.5 6.5 1 9.4 1.4 2.9 2.6 8.6 3.6 9.8.3.4 1.6.9 3 1.3-.6-2.2-.8-5.9-.9-9.6-.3-2.4-.2-5.8-.1-9.9z"/><path fill="#5E3C30" d="M110.8 138.4c-4.8-.7-8.1.7-10.2 1.7-2.3 1.1-5.3 1-3.2 4.8 2.2 3.8 6.7 4.1 6.7 7.2 0 6.4 4.8.3 8.3 2.4 2.7 1.6 15.6 1.9 15.6 1.9v-17.7s-12.5.4-17.2-.3zM101 40.5c-8.6-.2-14.8 3.4-16.6 6.1-1.8 2.7-1.9 9.7-4.3 18.7-2 7.6-5.7 29-6.8 35.5.9 1.1 7.4 9.4 8 11.1.7 1.9 7.7 14.1 9.3 16.5 1.7 2.4 12.7 9.3 18.4 6.5 5.7-2.9 18.9-3.1 18.9-3.1V37.9c.1 0-18.3 2.7-26.9 2.6zM112.8 90c-2.7 0-7.3-.5-8.8 0-1.4.5-1.9-1.6-6.4-2.1s-7.5 0-7.5 0v-1.2l-1.6-1s-.8-.5 2.4-2.2 5.3-2.7 5.3-2.7 1.9.6 6.9 2.1c4.9 1.4 6.1 1.8 7.5 1.8 1.4 0 1.9 0 4.3-.2s6.7 1.3 6.7 1.3-6.1 4.2-8.8 4.2zm-39.7 21.4c-.1-4.1 0-8 .1-9.9-.2 4.2-.3 7.6-.1 9.9z"/><path fill="#502F1A" d="M95.7 162.4c2.2 2.9 8.2 17.2 32.3 17.2v-23.2s-12.9-.3-15.6-1.9c-3.5-2.1-8.3 4-8.3-2.4 0-3.1-4.6-3.4-6.7-7.2-2.2-3.8.8-3.7 3.2-4.8 2.2-1 5.5-2.4 10.2-1.7s17.2.2 17.2.2v-6.9s-13.2.2-18.9 3.1c-5.7 2.9-16.8-4.1-18.4-6.5-1.7-2.4-8.6-14.6-9.3-16.5-.7-1.8-7.1-10-8-11.1-.1.3-.1.6-.1.9-.1 1.8-.2 5.8-.1 9.9.1 3.7.3 7.4.9 9.6.1.4.2.8.4 1.1.7 1.5 3.1 9.9 5.6 17.2 1.8 5.4 3.8 10.3 5.2 11.5 3.2 2.8 8.2 8.6 10.4 11.5z"/><path fill="#300F04" d="M72.4 85c.8 2.6.5 17.6.5 17.6s.1-.4.2-1c0-.3.1-.5.1-.9 1.1-6.5 4.8-27.9 6.8-35.5 2.4-8.9 2.6-16 4.3-18.7 1.8-2.7 8-6.2 16.6-6.1s27-2.6 27-2.6V8.4s-10.4 0-20.9 2.1c-10.5 2.1-23.2 11.8-30.7 20.4-7.5 8.6-7.8 28.6-7.8 31s1.8 19.7 1.9 20.5 1.2.1 2 2.6zm42.5-.5c-2.4.2-2.9.2-4.3.2s-2.6-.3-7.5-1.8c-4.9-1.4-6.9-2.1-6.9-2.1s-2.1 1-5.3 2.7-2.4 2.2-2.4 2.2l1.6 1v1.2s3-.5 7.5 0 4.9 2.6 6.4 2.1c1.4-.5 6.1 0 8.8 0 2.7 0 8.8-4.2 8.8-4.2s-4.3-1.4-6.7-1.3z"/><path fill="#8B8679" d="M88.8 177.8c12.5 15.3 39.2 44.7 39.2 44.7v-13.4s-27.1-18.2-39-33.5c-3.2-4.2-5.3-8.2-6.7-11.9-3.5-9.6-1.7-16.6-1.7-16.6s-4.2 15.3 8.2 30.7z"/><path fill="#685F57" d="M84.2 174.1c8.6 11 43.8 57.2 43.8 57.2v-8.9s-26.7-29.4-39.2-44.7c-12.5-15.3-8.1-30.6-8.1-30.6-.7.6-1.3 1.3-1.8 2.1 0 0-3.3 13.9 5.3 24.9z"/><path fill="#404351" d="M128 234.9v-3.6s-35.2-46.2-43.8-57.2c-8.6-11-5.3-24.9-5.3-24.9-3.1 2.1-6.1 7.4-8.3 13.2h.1s-4.1 10.1-4.2 20.7c.3-.1.5-.2.5-.2s8.1 24 21.1 51.3c4.5 5.7 10.7 12.8 16.9 19.7 7.5 1.4 15.2 2.1 23 2.1v-21.1z"/><path fill="#3D4638" d="M66.4 183.2c.1-10.6 4.2-20.7 4.2-20.7h-.1c-10.6.9-45.8 16.2-57.3 22.2 3 6 6.4 11.8 10.3 17.2 7.9-3.4 14.3-6.3 16.6-7.6 7.1-4.1 23.2-10 26.3-11.1z"/><path fill="#4F5849" d="M66.9 183s-.2.1-.5.2c-3.1 1.1-19.2 7.1-26.3 11.1-2.3 1.3-8.7 4.2-16.6 7.6 1.4 2 2.9 4 4.4 5.9 12.9-6 25.9-12 30.5-14.2-.1-1.8.4-7 8.5-10.6z"/><path fill="#534C46" d="M66.9 183c-8.1 3.7-8.6 8.8-8.5 10.6 0 .4.1.7.1.7s.7 1.7 2 4.6c.1-.1.2-.1.2-.1l1.7 3.6-.2.2c1.1 2.6 2.5 5.7 4.1 9.2 4.7 10.3 11 23.7 17.7 36.4 4.3 1.6 8.7 2.9 13.2 4-3.2-6-6.3-12.1-9.1-18C75.1 207 66.9 183 66.9 183z"/><path fill="#4A503C" d="M62.1 202.5c.2-.1.2-.2.2-.2l-1.7-3.6s-.1 0-.2.1c-1.4 1.1-11.7 9.3-23.2 19.4.6.6 1.2 1.2 1.9 1.8 11.2-9 21.3-16.3 23-17.5z"/></svg>