<svg xmlns="http://www.w3.org/2000/svg" width="256" height="256"><circle fill="#B1B3B5" cx="128" cy="128" r="128"/><path fill="#5C575F" d="M235.9 179.4c-1.7-.5-1.8.5 0 3.8s1.7 7.8 1.7 7.8-.8 2.1-2.4 4.8c-.3.6-.6 1.4-.7 2.2.1.1.2.3.4.4 2.8-4.2 5.3-8.5 7.5-13-2.2-2.6-5.4-5.7-6.5-6z"/><path fill="#1E1B20" d="M203 190.3c-1-.6-2.3-.7-3.6-.7h-1.1c-2.8.3-5.3 1.3-5.3 1.3l-.5-.3c3.7 2 7.7 4.2 11.6 6.3.9-3.9.5-5.7-1.1-6.6z"/><path fill="#5E3C30" d="M177 239.6c2.1-5.7 11.3-16 16.1-16.8.4-.1.9-.2 1.5-.3.3-.6.5-1.3.8-1.9 4.6-11.8 7.4-19 8.6-23.5-3.8-2.2-7.8-4.4-11.6-6.3l-2.7-1.4-.3-.1h.1c-4.6-2.5-8.5-4.5-10.5-5.7-6.2-3.8-5.3-6.5-5.5-12.2-.2-3.9 1-17.4 1.7-25.8-3.6 9.6-10.4 17.9-19 24.1-1.6 1.1-3.4 2.1-5.3 2.9.1 0 .1 0 .2.1l-2 2.3-1.7 1.4h-1.2l-3 3.4-.2-1.3-1.7 3.8-.6-1-2.8 3.4-.5-1.2-3.2 1.8.5-1.4-2.4 1.4-.4-1.2-3.4 2.4.1-1.2-.7 1.2V256c17.3 0 33.8-3.4 48.8-9.7-.8-1.7-.8-3.7.3-6.7z"/><path fill="#472B20" d="M127.3 185.1l.1 1.2-3.4-2.4-.4 1.2-2.4-1.4.5 1.4-3.2-1.8-.5 1.2-2.8-3.4-.6 1-1.7-3.8-.2 1.3-3-3.4h-1.2l-1.7-1.4-2-2.3c.1 0 .1 0 .2-.1-1.9-.8-3.7-1.8-5.3-2.9-8.6-6.2-15.4-14.5-19-24.1.8 8.4 1.9 21.9 1.7 25.8-.2 5.7.7 8.4-5.5 12.2-3.1 1.9-10.6 5.8-18.5 10.1l-2.6 1.5c3 17.2 9.3 30 17 39.6 7.4 5.2 15.2 10.2 18.8 12.5 1.6 1 4.4 3.2 7.6 5.7 9.3 2.1 18.9 3.3 28.8 3.3v-69.7l-.7-1.3zm-68.4 10l.3-.1s.5.7-.3.1z"/><path fill="#5E3C30" d="M182.8 108c-.6 3.3-1.2 7.6-2 12.3 1.3.4 2.6.8 3.5.8 3 .2 5.1-3 6-5.9.9-2.9 5-8.8 6.3-12.8 1.3-4 2.4-11.8 1.3-16.6s-4.5-2.8-7.5-2.4c-1.2.2-2.8 1-4.2 1.9-.1.2-.1.3-.2.5-.9 7.3-2.2 16.8-3.2 22.2z"/><path fill="#764931" d="M139.1 153.8v1.3s.6 1.1 0 1c-.6-.1-1.2 0-1.2 0l-.8 1.7s-1.2-1.6-.8 0c.4 1.6-.8 0-.8 0s-2-.5-1.7.1c.2.5.6 2.9.7 3.5-.2-.5-1.4-1.8-1.4-1.8s-.8 1-.7 1.3 1.4 2.2 2.8 3c1.3.8 3.7 2.3 3.7 2.3l-.6-1.9 1.2 1.9 1.2-1.6s1.1-1 1.1-.4v3.1s1.6 1.1 2.2.7 1.9-1.3 1.9-1.3l-.5 1.4s.5 1.6 1.3 1.7c.8.1 2.6 0 2.6 0s.5 2.2 1.8 2.6c1.9-.8 3.7-1.8 5.3-2.9 8.6-6.2 15.4-14.5 19-24.1.4-1.1.8-2.3 1.1-3.4 1.9-6.7 3.3-14.6 4.5-21.7.8-4.7 1.4-8.9 2-12.3.9-5.4 2.2-14.9 3.2-22.3-.9 2.5-1.9 4.9-2 5.2-.4.6-1-5 0-6.6 1-1.6 1.4-3.9 1.4-3.9s-1.8-.5-2.6 1.1-2.3 5.3-2.3 3.8.1-1.6 1-4c.8-2.4 0-1.3 1.3-4.7 1.3-3.4 2.9-2.4 1.7-5.4-1.2-3-.3-3-1-2s-1.3 1.3-1.4 3.8c-.1 2.5-.4 2.2-.1 3.7.2 1.6-.5 3.2-.8 3-.4-.2-1.1-.8-.6-1.5s.7-1.4.7-2.2v-.7l-.9 1.2s-1.3 1.5-1.4.8c-.1-.8-.6-.6 0-1.2s.8.5 1.3-1.3.1-1.6.7-3.2c.6-1.7.6-2.2 1.2-3l.6-.7s-3.6 1-5.6 3.4c0 0-.5-1.8.8-2.8 1-.7 2.9-2.1 4.3-3.2-.7-.4-1.8-1.1-1.5-2.1l1.6-.7c-.1-.4-.1-.7-.1-1.1-.3-.2-.6-.3-.9-.3-1.1.1-3.9 1.6-4.3 2.6-.4 1.1-1.8 3.7-1.8 4.7s.2 3.1 0 3.4c-.2.2-1.2-.4-1.1-1.7.1-1.3.5-7.2 2.6-9 2-1.7 4.6-2.4 5.2-2.7-.1-.8-.1-1.6-.1-2.3l-.5.4s-.7-.5-.2-1.7l.6-.5c0-2.1 0-3.9.1-5.4-.8-.2-1.3-.7-1.5-1.1-.7-.3-1.3-.6-1.6-.7-.8-.2-1-.6-2.2-.8-1.2-.2-3.8-.6-3.8-.6l-3.1-1.2s-3.2-1.4-3.8-1.6c-.6-.1-1.9.6-1.8 0 .1-.6 1.9-.7 2.5-.7.6 0 6.3 1.8 6.8 2 .5.2 2.9.1 2.9.1l-4.8-2.2s.1-.7-1.2-1.4-2.5-1.3-2.5-1.3-.1-.7.5-.6c.6.1 1.6.5 1.6.5l1.1.6s-2.3-2-2.4-3.4c-.1-1.3-.2-2.8-.2-2.8s1.1.4 1.1 1-.4.7.1 1.4.1 0 1.3 1.8 1.4 2.2 1.7 2.6-.6.2 1.1 1.1c1.7.8 2.3 1.2 2.3 1.2s4 3.1 4.4 3.1c.3-.4.9-1.1 1.7-1.8 0-.2-.1-.6-.7-.4-1 .2-1.3.7-1.7.7s-1.8-.5-1.1-.8 1.7-.7 1.7-.7.1-.4 1-.4c.8 0 .7-.2 1.4.2.3.2.4.3.6.3.4-.3.7-.6 1.1-1-.2-2.2-4.2-8.7-6.3-12.1-1.4.7-2.6 1.7-2.6 1.7-2.6-.8-1.9-2.6-1.9-2.6.5-.8 1-1.7 1.6-2.4-2.3-2-3.7-3.4-3.9-3.5-4-3.4-8.2-6.3-11.8-7.6-10.9-3.8-14-7.2-31.2-7.2V153c-.5.1 6.2-.7 10.6.8zm12.8-73.9c4.5-1.6 8-3.5 13.1-1.9s7.8 1.8 7.8 1.8l-1.4.9 1.4.5-.6 1 .6 1.1s-6.7-1.3-9.7-1-15.6 2.2-22-.2c0 0 6.4-.6 10.8-2.2z"/><path fill="#3A1D07" d="M163.1 82.3c3-.3 9.7 1 9.7 1l-.6-1.1.6-1-1.4-.5 1.4-.9s-2.7-.2-7.8-1.8-8.6.3-13.1 1.9c-4.5 1.6-10.9 2.2-10.9 2.2 6.5 2.4 19.1.5 22.1.2z"/><path fill="#868F9F" d="M134.5 161.5v-.1c-.1.1 0 .1 0 .1z"/><path fill="#868F9F" d="M149.2 169.9s-1.8.1-2.6 0-1.3-1.7-1.3-1.7l.5-1.4s-1.3 1-1.9 1.3-2.2-.7-2.2-.7v-3.1c0-.6-1.1.4-1.1.4l-1.2 1.6-1.2-1.9.6 1.9s-2.4-1.4-3.7-2.3c-1.3-.8-2.6-2.6-2.8-3s.7-1.3.7-1.3 1.2 1.3 1.4 1.8c-.1-.6-.5-3-.7-3.5-.3-.6 1.7-.1 1.7-.1s1.2 1.6.8 0c-.4-1.6.8 0 .8 0l.8-1.7s.6-.1 1.2 0 0-1 0-1v-1.3c-4.4-1.6-11.1-.7-11.1-.7v33.2l.7-1.2-.1 1.2 3.4-2.4.4 1.2 2.4-1.4-.5 1.4 3.2-1.8.5 1.2 2.8-3.4.6 1 1.7-3.8.2 1.3 3-3.4h1.2l1.7-1.4 2-2.3c-.1 0-.1 0-.2-.1-1.3-.5-1.7-2.6-1.7-2.6z"/><path fill="#5E3C30" d="M182.4 42.7c-.7-.5-.6-.2-1.4-.2-.8 0-1 .4-1 .4s-1 .4-1.7.7.7.8 1.1.8.7-.5 1.7-.7c.7-.2.8.2.7.4.4-.3.7-.7 1.2-1.1-.1 0-.3-.1-.6-.3z"/><path fill="#5E3C30" d="M180.1 46.1c0-.1.1-.1 0 0 .1-.1.1-.1 0 0-.4-.1-4.4-3.2-4.4-3.2s-.6-.4-2.3-1.2c-1.7-.8-.8-.6-1.1-1.1s-.5-.8-1.7-2.6-.8-1.1-1.3-1.8-.1-.8-.1-1.4c0-.6-1.1-1-1.1-1l.2 2.8c.1 1.3 2.4 3.4 2.4 3.4l-1.1-.6s-1-.4-1.6-.5c-.6-.1-.5.6-.5.6s1.2.6 2.5 1.3c1.3.7 1.2 1.4 1.2 1.4l4.8 2.2s-2.4.1-2.9-.1-6.2-2-6.8-2c-.6 0-2.4.1-2.5.7-.1.6 1.2-.1 1.8 0 .6.1 3.8 1.6 3.8 1.6l3.1 1.2s2.6.4 3.8.6c1.2.2 1.3.6 2.2.8.3.1.9.3 1.6.7-.2-1 0-1.8 0-1.8zm-3.3 15c-2.2 1.8-2.5 7.7-2.6 9-.1 1.3.8 1.9 1.1 1.7.2-.2 0-2.4 0-3.4s1.4-3.6 1.8-4.7c.4-1.1 3.2-2.5 4.3-2.6.3 0 .6.1.9.3l-.3-3c-.6.2-3.2 1-5.2 2.7zm8.7 17.6s2.1-1.6 2.5-2.7l-.9-1.3v-1.4s.8.1 1.6-.1c.1-.3.1-.7.1-1.1l-2.1-.2s-1-.9-.3-1.6l2.6-.1v-.5l-.2-.2c-2.4.1-4.8-.7-4.8-.7-.4-1-.7-2.1-1-3.2 0 0-.3-.1-.7-.3-1.4 1.1-3.3 2.5-4.3 3.2-1.3 1-.8 2.8-.8 2.8 2-2.4 5.6-3.4 5.6-3.4l-.6.7c-.6.7-.6 1.3-1.2 3s-.2 1.4-.7 3.2c-.5 1.8-.7.7-1.3 1.3-.6.6-.1.5 0 1.2.1.8 1.4-.8 1.4-.8l.9-1.2v.7c0 .7-.2 1.4-.7 2.2s.2 1.3.6 1.5c.4.2 1.1-1.5.8-3-.2-1.6 0-1.2.1-3.7s.7-2.9 1.4-3.8c.7-1-.2-1 1 2s-.4 2-1.7 5.4c-1.3 3.4-.5 2.3-1.3 4.7-.8 2.4-1 2.5-1 4s1.4-2.3 2.3-3.8c.8-1.6 2.6-1.1 2.6-1.1s-.5 2.4-1.4 3.9c-1 1.6-.4 7.2 0 6.6.2-.3 1.1-2.7 2-5.2.1-.2.1-.3.2-.5 1-2.5 1.9-5.1 2.1-5.6.1-.3.2-1 .2-1.7-.7.4-1.6.7-3 .8z"/><path fill="#575B65" d="M180 29.2c.7 1 1.5 2 2 2.5.1.2.4.5.7.9.1 0-.7-2.1-1.1-4-.3.2-.7.4-1.1.5-.3.1-.4.1-.5.1zm-1.9-5.7c-1.6-.4-3.9-.6-7-.4.1.1 1.6 1.6 3.9 3.5 1-1.3 2.2-2.5 3.1-3.1zm17.7 36.4s.2-6.1 0-6.8c-.1-.4-1.1-2.4-2.1-4.3l-.4 16.4c1.7-1.1 2.5-5.3 2.5-5.3zM187 40.1c.5-.4 1.1-.7 1.7-1 .1-.1.3-.1.4-.2-1-2.1-2.9-2.4-4.1-2.3.8 1.3 1.5 2.7 2 3.5z"/><path fill="#35363B" d="M193.8 46.5v-.4c0-1.1-.1-2.5-.6-3.2-.9-1.2-3.8-1.1-5.3-.6-1.5.6-6 6.5-6 6.5-.1 1.5-.1 3.4-.1 5.4l5.4-3.9s.7.3.6 1.4l-1.4 1.4.2 7.3 1.8-1s1.2 1 0 2.1l-4.2 2.2s4.8 3 6.9 5.3c.1 0 .1-.1.2-.1l2-2.9v-.8l.4-16.4v-1.1h-.1s.1-.5.2-1.2z"/><path fill="#35363B" d="M185.7 61l-.3-7.7-3.5 2.7c0 .8.1 1.5.1 2.3l.3 3c0 .4.1.7.1 1.1l3.3-1.4zm3.1 8.5c-.9-1-2.8-2.8-5.8-3.9.3 1.1.6 2.2 1 3.2-.1 0 2.4.9 4.8.7zM180 29.2c-.7.2-1.4.5-2.1.8 2.1 3.4 6 9.9 6.3 12.1.9-.7 1.8-1.4 2.8-2.1-.5-.8-1.2-2.1-2-3.5-.9-1.5-1.8-3-2.4-3.9-.3-.4-.5-.8-.7-.9-.4-.5-1.2-1.5-1.9-2.5z"/><path fill="#B0B1B6" d="M174.9 26.7c-.6.8-1.1 1.6-1.6 2.4 0 0-.7 1.8 1.9 2.6 0 0 1.2-.9 2.6-1.7.7-.3 1.4-.7 2.1-.8.1 0 .3-.1.4-.1.4-.1.8-.2 1.1-.5 1.3-1 1.6-3.1 1.2-4-.6-1.1-2.6-2-3.9-1.5-.2.1-.4.2-.7.4-.8.6-2 1.8-3.1 3.2zM187 40.1c-1 .7-2 1.4-2.8 2.1-.4.3-.8.6-1.1 1-.4.4-.8.7-1.2 1.1-.8.8-1.4 1.4-1.7 1.8 0 0 0 .1-.1.1 0 0-.2.9.2 1.7.2.5.7.9 1.5 1.1 0 0 4.4-6 6-6.5 1.5-.6 4.5-.6 5.3.6.5.7.6 2.1.6 3.2v.4c0 .7-.1 1.2-.1 1.2h.1c.4-.1 3.7-1.3 3.6-4.1-.1-2.9-4.3-6.7-8.3-4.7-.1.1-.3.1-.4.2-.5.1-1.1.4-1.6.8z"/><path fill="#8B909E" d="M184.2 63.7l4.2-2.2c1.2-1.1 0-2.1 0-2.1l-1.8 1-.2-7.3 1.4-1.4c.2-1-.6-1.4-.6-1.4l-5.4 3.9-.6.5c-.6 1.2.2 1.7.2 1.7l.5-.4 3.5-2.7.3 7.7-3.3 1.5-1.6.7c-.2 1 .8 1.7 1.5 2.1.4.2.7.3.7.3 3 1.1 4.9 2.9 5.8 3.9l.2.2c.2.3.4.5.4.5h-.4l-2.6.1c-.6.7.3 1.6.3 1.6l2.1.2 1 .1c0 .6-.6.8-1.2 1-.7.2-1.6.1-1.6.1v1.4l.9 1.3c-.4 1.1-2.5 2.7-2.5 2.7 1.4-.1 2.3-.4 3-.8.9-.5 1.2-1.1 1.3-1.6.2-1-1.4-1.4-1.4-1.4s1.9-.6 2.8-1c.9-.4 1.4-1.4.8-3.6-.1-.4-.4-.9-.9-1.4-2-2.2-6.8-5.2-6.8-5.2z"/><path fill="#3F3C42" d="M207.8 197.9c-1.1 4.5-4.7 14.9-8.5 23.6 3.4-.5 7.7-.8 13 .2 1.7-3.3 3.1-6.3 4-8.7 2.4-6.6 3.4-11.3 4-14.2-1.4-.9-2.8-1.9-4.1-2.8-1.1-.8-2.2-1.5-3.3-2.3l-1.6-1.1c-1.5-1.1-2.8-2.1-3.6-2.8 1 1.5 1.1 3.8.1 8.1zm-8.9-8.3h.4-.4zm-.7.1zm-8.5-.4zm5.8 42.1c-.4.1-.7.3-1.1.5-.1.2-.3.4-.4.6-1.4 2.4-3.1 4.8-5 7.2.1.2.2.4.4.6 6.2-3.4 12-7.3 17.5-11.6-5.2-.1-8.7 1.6-11.4 2.7z"/><path fill="#5C575F" d="M189.7 189.3l2.7 1.4.5.3s2.5-1 5.3-1.3h1.1c1.3 0 2.6.1 3.6.7 1.7.9 2 2.7 1 6.8-1.2 4.4-4 11.6-8.6 23.5-.3.7-.5 1.3-.8 1.9 1.3-.3 2.9-.7 4.8-1 3.7-8.8 7.4-19.2 8.5-23.6 1-4.3.8-6.6-.2-8-.6-.8-1.4-1.3-2.4-1.8-4-2-15 .9-15.8 1.1h-.1.4zm4.8 42.6c-3.5 1.7-6.8 4.8-5.3 7.8 1.9-2.3 3.5-4.7 5-7.2 0-.2.1-.4.3-.6z"/><path fill="#868686" d="M227.1 194.4c-.2-4.3-4.5-3.2-4.5-3.2-3.7-5.7-11 1.1-11.4 1.5l1.6 1.1 3.3 2.3h.1l-3.4-2.3s4.5-4.1 6.9-2.7c1.3.8 1.4 2.9 1.2 4.7 0 .1 0 .2-.1.3-.2 1.5-.5 2.8-.5 2.8-.6 2.9-1.6 7.6-4 14.2-.8 2.3-2.3 5.4-4 8.7.7.1 1.5.3 2.3.5 1.5-1.3 2.9-2.7 4.3-4.1 6.7-19.2 3.9-26.5 3.9-26.5 3 5.8 1 16.1-1.3 23.9 1.4-1.5 2.8-3.1 4.2-4.7 2.8-11.8 1.4-16.5 1.4-16.5z"/><path fill="#868686" d="M234.5 198c-1.1-1.1-3-1.1-3-1.1-.8-4.3-4.3-2.6-4.3-2.6 1.4 3.7 1.1 9.1.1 14.5 1.4-1.7 2.7-3.4 4-5.1.6-4.6.2-6.6.2-6.6.5 1.5.7 3.3.7 5.3.9-1.3 1.8-2.6 2.7-4-.2-.1-.3-.2-.4-.4z"/><path fill="#1E1B20" d="M220.3 198.9s.4-1.3.5-2.8v-.3c.2-1.8.1-4-1.2-4.7-2.4-1.4-6.9 2.7-6.9 2.7l3.4 2.3 4.2 2.8z"/><path fill="#757676" d="M222.8 191.6s2.8 7.3-3.9 26.5c.9-.9 1.7-1.8 2.6-2.7 2.2-7.7 4.3-18 1.3-23.8zm4.3 2.8s1.4 4.7-1.5 16.4c.5-.6 1.1-1.3 1.6-1.9 1-5.4 1.3-10.8-.1-14.5zm4.1 9.3c.3-.4.6-.9.9-1.3 0-1.9-.2-3.7-.7-5.3 0 .1.4 2-.2 6.6z"/><path fill="#AFB8C1" d="M199.4 221.5c-1.9.3-3.5.7-4.8 1l-1.5.3c-4.8.8-14 11.1-16.1 16.8-1.1 3-1.2 5-.2 6.7 1.1-.5 2.3-1 3.4-1.5l-1.5-1.8s.9.6 2.5 1.4c.7-.3 1.4-.7 2.1-1-1-.7-2.1-1.5-3-2.6 0 0 5.1-13.1 12.1-15.2l-2.7 2.8s9.4-4.5 18.2-3.9c1.2.1 2.5.2 3.7.4l3-2.7c-.8-.2-1.5-.4-2.3-.5-5.3-1-9.6-.7-12.9-.2z"/><path fill="#AFB8C1" d="M193 228.5c-6.8 2.2-8.4 8.4-8.4 8.4l1.8.1s-3.8 2.3-4.1 3.8c0 0 1.1.8 2.7 1.7 1.5-.8 3-1.5 4.5-2.3-.1-.2-.3-.4-.4-.6-1.4-3 1.9-6.1 5.3-7.8.4-.2.7-.3 1.1-.5 2.7-1.1 6.1-2.8 11.5-2.7 1.1-.8 2.1-1.7 3.1-2.5-7.2-.6-12.8 1-17.1 2.4z"/><path fill="#828A91" d="M207.8 224.6c-8.8-.6-18.2 3.9-18.2 3.9l2.7-2.8c-7 2.1-12.1 15.2-12.1 15.2.9 1 1.9 1.9 3 2.6.6-.3 1.1-.5 1.7-.8-1.6-.9-2.7-1.7-2.7-1.7.4-1.6 4.1-3.8 4.1-3.8l-1.8-.1s1.5-6.2 8.4-8.4c4.3-1.4 10-3 17.2-2.3.5-.4.9-.8 1.4-1.2-1.2-.4-2.4-.5-3.7-.6zm-29.1 18.5c.5.7 1 1.2 1.5 1.8.3-.1.6-.3.9-.4-1.5-.8-2.4-1.4-2.4-1.4z"/><path fill="#472B20" d="M69.9 85.3c-1.5-1-3.1-1.8-4.3-2-3-.4-6.4-2.4-7.5 2.4s0 12.7 1.3 16.6c1.3 4 5.4 9.9 6.3 12.8.9 2.9 2.9 6.1 6 5.9.9 0 2.1-.4 3.5-.8-.8-4.7-1.4-8.9-2-12.3-1-5.4-2.3-15.1-3.3-22.6z"/><path fill="#5E3C30" d="M70.8 39.9c-.1.1-.1.2-.2.3.1 0 .2-.1.3-.1 0 0 0-.1-.1-.2zm28.9 129.6c1.6 1.1 3.4 2.1 5.3 2.9 1.3-.4 1.8-2.6 1.8-2.6s1.8.1 2.6 0 1.3-1.7 1.3-1.7l-.5-1.4s1.3 1 1.9 1.3c.6.4 2.2-.7 2.2-.7v-3.1c0-.6 1.1.4 1.1.4l1.2 1.6 1.2-1.9-.6 1.9s2.4-1.4 3.7-2.3c1.3-.8 2.6-2.6 2.8-3 .1-.4-.7-1.3-.7-1.3s-1.2 1.3-1.4 1.8c.1-.6.5-3 .7-3.5.3-.6-1.7-.1-1.7-.1s-1.2 1.6-.8 0c.4-1.6-.8 0-.8 0l-.8-1.7s-.6-.1-1.2 0 0-1 0-1v-1.3c4.4-1.6 11.1-.7 11.1-.7V8.4c-17.2 0-20.4 3.4-31.2 7.2-6.2 2.2-12.7 8.5-17.3 13.6-5.4 7.2-1.3 12.6-.6 15.3.7 2.8-1.6 4.3-1.6 4.3-1.2-1.3-5.1-2.3-7.2-1.8-.8.2-1.2.8-1.3 1.5 0 .7 0 1.5.1 2.3-1 8.9-.6 20.5-.1 25.5.2 1.7.6 5 1.1 8.9 1 7.5 2.3 17.2 3.3 22.7.6 3.3 1.2 7.6 2 12.3 1.2 7.1 2.6 15.1 4.5 21.7.3 1.2.7 2.3 1.1 3.4 3.4 9.7 10.3 18 18.8 24.2zM83.1 81.2l1.4-.5-1.4-.9s2.7-.2 7.8-1.8 8.6.3 13.1 1.9c4.5 1.6 10.9 2.2 10.9 2.2-6.4 2.4-19 .5-22 .2s-9.7 1-9.7 1l.6-1.1-.7-1z"/><path fill="#301300" d="M92.9 82.3c3 .3 15.6 2.2 22-.2 0 0-6.4-.6-10.9-2.2s-8-3.5-13.1-1.9-7.8 1.8-7.8 1.8l1.4.9-1.4.5.6 1-.6 1.1s6.7-1.3 9.8-1z"/><path fill="#686F7C" d="M121.6 161.4v.1c-.1 0-.1 0 0-.1z"/><path fill="#686F7C" d="M128 171.5v-18.4s-6.7-.8-11.1.7v1.3s-.6 1.1 0 1c.6-.1 1.2 0 1.2 0l.8 1.7s1.2-1.6.8 0c-.4 1.6.8 0 .8 0s2-.5 1.7.1c-.2.5-.6 2.9-.7 3.5.2-.5 1.4-1.8 1.4-1.8s.8 1 .7 1.3c-.1.4-1.4 2.2-2.8 3-1.3.8-3.7 2.3-3.7 2.3l.6-1.9-1.2 1.9-1.2-1.6s-1.1-1-1.1-.4v3.1s-1.6 1.1-2.2.7c-.6-.4-1.9-1.3-1.9-1.3l.5 1.4s-.5 1.6-1.3 1.7-2.6 0-2.6 0-.5 2.2-1.8 2.6c-.1 0-.1 0-.2.1l2 2.3 1.7 1.4h1.2l3 3.4.2-1.3 1.7 3.8.6-1 2.8 3.4.5-1.2 3.2 1.8-.5-1.4 2.4 1.4.4-1.2 3.4 2.4-.1-1.2.7 1.2v-14.8z"/><path fill="#575B65" d="M68.8 48.6c.1-.7.5-1.3 1.3-1.5 2-.5 6 .5 7.2 1.8-1.1-2.9-4.1-5.6-6.3-8.7-.1 0-.2.1-.3.1-1.2.4-2.6 1.1-3 2.1-.8 2 0 4.2 0 5.1 0 1 1.3 3.4 1.3 3.4s-.4-1.2-.2-2.3z"/><path fill="#B0B1B6" d="M77.3 48.9s2.3-1.6 1.6-4.3c-.7-2.8-4.8-8.1.6-15.3-.3 0-8.4-1.2-9.7 0-1.3 1.2-2.3 5.1 0 9.1.3.5.7 1.1 1 1.6l.2.2c2.2 3.1 5.2 5.7 6.3 8.7z"/><path fill="#222630" d="M26.9 206.5c.3.4.6.7.8 1.1.4-.6.9-1.3 1.3-1.9l-2.1.8zm14.3-4.1c1.5.9 5.9-1.2 6.3-4.3l-8 3.2c.5.5 1.1.7 1.7 1.1zm9.5 19.9s1.8-12.2-4.1-13.3c-4.2-.8-10.2.7-14.9 3.3 3.4 3.8 7 7.5 10.8 10.9 4.2-.7 8.2-.9 8.2-.9zm8.7-2.1c1.8 2.3 1.5 3.9.9 4.8 3.1 2.7 7.7 6.1 12.6 9.5-7.7-9.6-14-22.4-17-39.6l-1.2.7c-.1.1 1.6 20.6 4.7 24.6zm15.4 24.2c3.1 1.4 6.3 2.7 9.5 3.9-2.5-1.7-7.3-4.8-9.5-3.9zm-20.8-12c.4.3.9.6 1.3.9-.4-.4-.8-.7-1.3-.9z"/><path fill="#868686" d="M72.8 234.6c-4.9-3.4-9.5-6.8-12.6-9.5-.4.6-.9.9-.9.9s7.5 1.6 4.5 10.4c-.2.7-.4 1.4-.6 2 1.9 1.1 3.8 2.2 5.7 3.2.3-.4.6-.8 1-1.1 5.1-4.9 19 4.8 20.6 6.5 1.2 1.2.9 2.1-.6 3.3 3 .9 6.1 1.8 9.2 2.5-3.2-2.5-5.9-4.6-7.6-5.7-3.5-2.3-11.3-7.4-18.7-12.5z"/><path fill="#757676" d="M88.6 248.8s-11.2-10.1-17.3-6c1.2.6 2.3 1.1 3.5 1.7 2.2-1 7 2.1 9.5 3.9 1.1.4 2.3.8 3.4 1.2.6-.5.9-.8.9-.8z"/><path fill="#757676" d="M90.5 246.9c-1.6-1.7-15.5-11.4-20.6-6.5-.4.3-.7.7-1 1.1.5.2 1 .5 1.4.7l.1-.1c4.9-4.6 16.2 3.4 17.7 4.6 1.5 1.3 1.8 2.1 1.8 2.1s-.5.4-1.2.9c.4.1.8.3 1.2.4 1.5-1.1 1.8-2 .6-3.2z"/><path fill="#575858" d="M89.9 248.9s-.2-.8-1.8-2.1c-1.5-1.3-12.8-9.3-17.7-4.6l-.1.1c.3.2.6.3 1 .5 6.2-4 17.3 6 17.3 6s-.4.3-.9.7c.3.1.6.2 1 .3.7-.5 1.2-.9 1.2-.9z"/><path fill="#AFB8C1" d="M58.9 195.1c.7.5.3-.1.3-.1l-.3.1zm-5.1 28.7s.1-9.3-2.8-13.3c-2.9-3.9-8.4-4.5-16.3-1.3-1.4.6-2.7 1.2-3.9 1.9.3.4.6.7 1 1.1 4.7-2.7 10.6-4.1 14.9-3.3 5.9 1.1 4.1 13.3 4.1 13.3s-4 .2-8.2.9c.5.4.9.8 1.4 1.2 4.6-.4 9.8-.5 9.8-.5zm-3.6 5.5h-.3c1.3 1 2.7 2.1 4.1 3 .5.2 1 .5 1.3.9 1.3.9 2.6 1.8 3.9 2.6-.6-2.9-2.4-7-9-6.5z"/><path fill="#AFB8C1" d="M59.4 226s.5-.3.9-.9c.6-.9.9-2.5-.9-4.8-3-4-4.7-24.5-4.7-24.5l1.2-.7 2.6-1.5c-.5-.4-1.2.2-3.6-2-5.7-5.4-17.6 1-25.9 5.6-2.1 1.2-4.1 2.6-6 4.1.2.3.4.5.6.8 5.6-4.4 12.8-7.7 15.1-8.6 2.8-1.1 10.4-4.5 12.3 2.9 0 0 .7 3.1-1.6 7.3l-3.8-.6s4.4-2.2 3.1-6.1c-1.3-4-3.4-5.1-9.8-2.6-4.8 1.8-10.7 5.7-14.5 8.7.2.3.4.5.6.8l.1-.1c2.3-1.7 7.7-5.6 12.9-7.8 5.3-2.2 8.9-2.4 9.6 1.2.1.4.1.7 0 1.1-.4 3-4.8 5.1-6.3 4.3-.7-.4-1.2-.7-1.7-1-.6-.6-.9-1.4-.5-3.2 0-1.4-5.6.6-7.1 3 0 0-1.3 2.1-2.9 4.4-.4.7-.9 1.3-1.3 1.9.5.6 1 1.3 1.5 1.9 1.4-.8 2.9-1.5 4.6-2.3 8.1-3.4 17-4.2 19.5 1.6 2.5 5.8 4.9 15.4 2.2 17.2-1.8 1.3-5.4.3-9.8.2.6.5 1.3 1.1 1.9 1.6 3.3-.2 6 0 7.5.7 2.7 1.3 5.2 3.1 5.7 5.7.2 1 .2 2 .1 3 .7.4 1.4.8 2 1.2.2-.7.4-1.3.6-2 3.3-8.9-4.2-10.5-4.2-10.5zm-29.5-17.8s3-4.1 3.6-6.2c.6-2.1 3.1-2.8 3.5-1.9s.8 3.2 2.1 3.8c0 .1-5.5 1.3-9.2 4.3z"/><path fill="#686F76" d="M61 234.2c-.5-2.6-3-4.5-5.7-5.7-1.5-.7-4.3-.9-7.5-.7.7.6 1.4 1.1 2.1 1.6h.3c6.6-.5 8.4 3.6 9 6.6.7.4 1.3.8 2 1.2 0-1 0-2-.2-3z"/><path fill="#828A91" d="M55.6 226c2.7-1.8.2-11.4-2.2-17.2-2.5-5.8-11.3-5-19.5-1.6-1.8.7-3.3 1.5-4.6 2.3l1.5 1.8c1.2-.7 2.5-1.3 3.9-1.9 7.9-3.3 13.3-2.6 16.3 1.3 2.9 3.9 2.8 13.3 2.8 13.3s-5.2.1-9.9.6c.7.6 1.3 1.1 2 1.7 4.3 0 7.9.9 9.7-.3zM37 200.2c-.4-1-2.9-.2-3.5 1.9-.6 2.1-3.6 6.2-3.6 6.2 3.7-3.1 9.2-4.2 9.2-4.2-1.3-.7-1.8-2.9-2.1-3.9z"/><path fill="#828A91" d="M48.7 196.9c1.3 4-3.1 6.1-3.1 6.1l3.8.6c2.4-4.1 1.6-7.3 1.6-7.3-1.9-7.4-9.5-4-12.3-2.9-2.3.9-9.5 4.2-15.1 8.6.3.4.5.7.8 1.1 3.9-3 9.8-6.9 14.5-8.7 6.3-2.6 8.4-1.4 9.8 2.5z"/></svg>