<svg xmlns="http://www.w3.org/2000/svg" width="256" height="256"><circle fill="#B1B3B5" cx="128" cy="128" r="128"/><path fill="#4F5058" d="M198.5 160.1l-3.5-5.4-2.2-3.8-3.5-3.2-2.6-4.5-2.6-1.1c.4 1.1 1 2.3 1.4 3.6.8 1.6 1.5 3 1.8 4.3.7 3.7-6.3 15.6-7.3 16.8-.5.6-3.9 1.3-7.3 1.8l-1 4.9-3.8 8.3v11.5l5.4-15 3.2-1.3v5.1l-6.4 13.7-4.5 3.8v4.8l5.4 2.2 5.4-4.8 2.2 4.8-6.5 5.7-3.4-3.2-8.3 3.2s-6.7 10.2-7 11.2c-.3 1-12.8 5.1-12.8 5.1s-3.5 3.5-6.8 6.6l20.5 17.9c5.5-1.1 10.8-2.6 16-4.5 17.5-41.3 27.6-85.1 28.4-88.6l-.2.1z"/><path fill="#3C3D44" d="M165.6 169.7c-1.4 1.3-3.2 2.3-5.3 3.2-10.8 4.5-29.2 4.2-32 4.2v53.4l5.6 4.9c3.3-3.1 6.8-6.6 6.8-6.6s12.5-4.2 12.8-5.1c.3-1 7-11.2 7-11.2l8.3-3.2 3.4 3.2 6.5-5.7-2.2-4.8-5.4 4.8-5.4-2.2v-4.8l4.5-3.8 6.4-13.7V177l-3.2 1.3-5.4 15v-11.5l3.8-8.3 1-4.9c-2.2.4-4.4.7-5.7.9-1 .1-1.5.2-1.5.2zm-82.2 33.5c2 .9 4 2 6.2 3.1l7.4-6.6h-2.9l-2.2-4.5-7.3-10.9-6.7-5.7-2.6 1.6s-2.6 7.7-4.2 11.2-5.7-21.1-5.7-21.1l3.2-6.7 2.6 1.9v-10.2L78 157l-.1-2.3-2.7-6.9 2.2-6.2-4.8-7.7-1.9-4.8-3.8 4.8-1.6 5.2-8.3 5.3-1.6 4.5v5.4h-3.5l-9.6 2.6s-3.2 3.1-5.1 4.2c-1 .5-6 5.4-10.8 10.2 1.5.1 2.4.3 2.4.3s37.4 23.6 54.6 31.6z"/><path fill="#303238" d="M127.9 177h-15l-8.9-.4-7.3-3.9h-4.2l-14.4-13.1-.1-2.6-6.9-1.7v10.2l-2.6-1.9-3.2 6.7s4.2 24.6 5.7 21.1 4.2-11.2 4.2-11.2l2.6-1.6 6.7 5.7 7.3 10.9 2.2 4.5h3l-7.4 6.6c16.9 8.9 38.2 23.7 38.2 23.7l.5.4V177h-.4z"/><path fill="#707880" d="M190.5 94.6l-3.8 4.8c.6-.3 3.8-4.8 3.8-4.8zm-7 40.2c-.1.4-.1.8-.2 1.1.1-.4.2-.7.2-1.1zm2.9-76.3c.1.9.3 2.8.6 5.1l-.6-5.1zm-58.5 14.3l7.9 4.3 4.8-9.6 5.5-4.1-2.2 3.8 7.7 4.3.7-3.8 1.4 2.6 9.1.5-4.8-5.5 13.7 6.5 2.3-4.3 1 9.6-1.2-11 10.3-13.2-2.4-6-2.5-2.2-2.6 3.4s-.5 8.9-1 9.6-1.4-6.9-1.4-6.9l-2.4 2.4-10.5-1s-13.4 9.3-14.1 9.3c-.7 0 14.4-12.7 14.4-12.7h8.1l7.4-5.5 2.1-2.6-2.8-1.9h-8.6l-7.6-6.5 7.6 1.4h2.6l4.3 1.4 4.5-2.9s1.9-3.5-.3-6.7v-4.2l.3-4.8-2.9-5.1-.3-2.1c-14.1-5.7-29.5-9-45.6-9.3l-2.5 1v71.8zm58.4-14.9v.2-.2zm1.7 14.9l-.7-5.9c.3 1.9.5 4 .7 5.9zm2 7c1.3 3.1 2.8 5.3 2.8 5.3l-2.8-5.3zm-4.5 65.9c-.5-1.3-1-2.5-1.4-3.6-.2-.5-.4-1.1-.6-1.6.5 1.9 1.2 3.6 2 5.2zm-57.6 22.7v8.6h.4c2.9.1 21.2.3 32-4.2l1.8-6.6-.5-5.5-4.3-4.1-3.4 1.4-7.9-3.1h7.2l4.1-.7 1.9-6.2 1 7.9 5.4 4.1 7.9-7.9-2.9-9.1 7.2-2.6s-3.4-5.3-3.4-6 2.9-3.4 2.9-3.4l-2.6-4.8 4.6-7.9s-5.3-1-6.2-1.2c-1-.2-7.4 4.3-7.4 4.3l-7.2-4.1-7.9-7.2 9.7 3.1 14-1 2.2-4.8 3.1-3.1-3.1-8.1-9.6-2.6-3.6-3.6-7.2 3.6h-6.7l-3.4 3.6-8.9-10.1-9.3.2v80.3c.1.1.1.4.1.8zm37.7 1.3s.5-.1 1.3-.2c-.8.1-1.3.2-1.3.2zm-5.3 3.1c2.1-.9 3.9-1.9 5.3-3.2l-5.3 3.2z"/><path fill="#585963" d="M179.6 89.3l.5 4.3h-13.2l9.6 2.6 3.1 8.1-3.1 3.1-2.2 4.8-14 1-9.7-3.1 7.9 7.2 7.2 4.1s6.5-4.6 7.4-4.3c1 .2 6.2 1.2 6.2 1.2l-4.6 7.9 2.6 4.8s-2.9 2.6-2.9 3.4 3.4 6 3.4 6l-7.2 2.6 2.9 9.1-7.9 7.9-5.4-4.1-1-7.9-1.9 6.2-4.1.7H146l7.9 3.1 3.4-1.4 4.3 4.1.5 5.5-1.8 6.6 5.3-3.2s.5-.1 1.3-.2c1.3-.2 3.5-.5 5.7-.9 3.4-.6 6.8-1.3 7.3-1.8 1-1.2 8-13 7.3-16.8-.2-1.3-1-2.7-1.8-4.3-.8-1.5-1.5-3.3-2-5.2-.3-1.4-.4-2.9-.2-4.6 0-.4.1-.7.2-1.1 0-.2.1-.3.1-.5 1.8-7.5 3-11.5 3-11.5l-2.6-2.9 2.6-5.7V99.4l3.8-4.8 2.2-9.6s-1.5-2.2-2.8-5.3c-.9-2-1.7-4.5-1.9-7-.2-1.9-.4-3.9-.7-5.9-.1-1.1-.3-2.2-.4-3.2-.3-2.3-.5-4.2-.6-5.1v-.6l2.6-6.1-3.5-15-6.1-4.5-4.5 2.9-4.3-1.4h-2.6l-7.6-1.4 7.6 6.5h8.6l2.8 1.9-2.1 2.6-7.4 5.5h-8.1s-15.1 12.7-14.4 12.7c.7 0 14.1-9.3 14.1-9.3l10.5 1 2.4-2.4s1 7.7 1.4 6.9 1-9.6 1-9.6l2.6-3.4 2.5 2.2 2.4 6-10.3 13.2 1.2 11 7.2 8.1-2.5 4z"/><path fill="#3E4047" d="M137.2 87.2l8.9 10 3.4-3.5h6.7l7.1-3.6 3.6 3.6h13.2l-.5-4.4 2.7-4.1-7.2-8.1-1.1-9.6-2.3 4.4-13.6-6.5 4.8 5.5-9.1-.5-1.5-2.6-.7 3.8-7.7-4.3 2.2-3.8-5.5 4-4.8 9.6-7.9-4.3v14.6z"/><path fill="#585963" d="M66.6 61.7l-3.2-4.2c0 1 3.2 4.2 3.2 4.2zm-3.2 40.9l1.3 4.5 4.4 5.1-4.9-6.7zm7.3-19.2l9.1 3.3c0-.1-10.1-4.1-9.1-3.3zM84.5 8.7l-2.2 2.6 1.4 4.3 5.5-2.2 3.8 3.8v3.6l-10.7 2.9 1.8 3.6 4.6-1.9 12.5-.5 1.4 2.4-3.4 3.4h-4.5l-3.9 4.8-.2-5-5.3-.5-5 7.4-2.4 1.4L79 49.4s3.1-.7 4.1 0 5.7 0 5.7 0L96 52H85.2l9.4 7.7L83 52.3l-4 .6.2 6.7 5.5 3.8-1.4 7.4v1.7l6.9 4.3 11.7 1.7 10.8-3.1 1-6.7-3.6-6.7 9.1 6.5 5.5 6.9 3.1-2.6V1.1l-4.5 3.2-2.2-1.6-3-2.3c-10 .8-19.7 2.7-29 5.6v.5l-4.6 2.2zM73 31.1zm4.4 110.5l-7.3-14.1.6 1.5 2 4.9zm.5 13.1zm50 22.3V87.4h-3.1s-3.8 5.5-3.8 6.5-10.3 3.3-10.3 3.3l-13-3.3H87.6l-11.8 5.9 8.2 15.4-5.5 6.5-4.1 4.3h4.8l3.1 2.4h6.2l6.1 6-4.9 7.9 8.1 1.9-7.2 3.4-8.6 9.1s10.1-8.4 10.1-7.7 10.3-1.7 10.3-1.7v5.3l4.6 4.1-4.6 3.8 6.2-1 5 6.7-9.8 10.5 8.9.4 15.2-.1z"/><path fill="#4F5058" d="M77.4 141.6l-2.2 6.2 2.7 6.9.1 2.3.1 2.8 14.4 13.1h4.2l7.3 3.9 9.8-10.5-5-6.7-6.2 1 4.6-3.8-4.6-4.1v-5.3s-10.3 2.4-10.3 1.7-10.1 7.7-10.1 7.7l8.6-9.1 7.2-3.4-8.1-1.9 4.9-7.9-6.1-6h-6.2l-3.1-2.4h-4.8l4.1-4.3 5.5-6.5L76 99.9l-5.2-4.7h5.3l2.2-4.6-7.4-7.2c-1-.7 9.1 3.3 9.1 3.3l3.8-6.3-.2-7.8v-1.7l1.4-7.4-5.5-3.8-.5-6.8 4.1-.7 11.6 7.4-9.4-7.6H96l-7.2-2.6s-4.8.7-5.7 0-4.1 0-4.1 0l-1.2-10.5 2.4-1.4 5-7.4 5.3.5.2 5 3.9-4.8h4.5l3.4-3.4-1.4-2.4-12.5.5-4.6 1.9-1.8-3.6 10.7-2.9v-3.6l-3.8-3.8-5.5 2.2-1.4-4.3-5.1 1.6L73 31.1l-5.4 5.4v4.2l-4.2 10.2v6.7l3.2 4.2 1.6 3.5-6.7 9.9V93l2.6 4.2-.6 5.3.8 2.9 4.9 6.7 1.9 9.9-1 5.4 7.3 14.2z"/><path fill="#33343B" d="M83.6 80.4l-3.8 6.3-9.1-3.3 7.4 7.2-2.2 4.6h-5.3l5.2 4.7L87.6 94h10.1l13 3.3S121 95.1 121 94c0-1 3.8-6.5 3.8-6.5h3.1V72.8l-3.1 2.6-5.5-6.9-9.1-6.5 3.6 6.7-1 6.7-10.8 3.2-11.7-1.7-6.9-4.3.2 7.8z"/><path fill="#574038" d="M128.3 230.4l-.5-.4v26h.2c9.1 0 17.9-.9 26.4-2.7l-20.5-17.9-5.6-5z"/><path fill="#433029" d="M127.8 230s-21.3-14.8-38.2-23.7c-2.2-1.1-4.2-2.2-6.2-3.1-17.2-8-54.6-31.6-54.6-31.6s-.9-.2-2.4-.3c-3.5-.3-10.4-.6-18.5 1.2.4 1.2.9 2.4 1.4 3.5 7.9-2.5 15-3.5 16.5-2 1.6 1.6-7.7 4.8-13.6 7-.2.1-.4.2-.7.3 1.3 2.9 2.7 5.7 4.2 8.4 1.7-.9 3.8-1.7 6.2-2.6 8.8-3 17.2-4.3 18.8-2.7 1.6 1.6-7.9 4.9-13.9 7.2-2.4.9-5.4 2.3-8.1 3.4 3.6 5.8 7.6 11.3 12 16.4 1.3-2.6 5.7-5.8 12.3-8.9 9.8-4.6 19.2-7.1 21.3-5.5s-8.4 6.6-15.1 10c-4.9 2.5-11.5 6.9-15.5 7.8 7.4 8 15.8 15.1 25 21 1.3-3.1 6.2-7.1 13.5-11.2 10.9-6.1 21.6-9.8 24.2-8 2.5 1.8-9.2 8.3-16.6 12.7-4.9 2.9-11.3 7.7-15.7 9.7 18.7 10.8 40.5 17 63.7 17.1V230z"/><path fill="#5F554B" d="M25.8 174c-1.5-1.5-8.6-.5-16.5 2 .7 1.8 1.5 3.5 2.3 5.2.2-.1.4-.2.7-.3 5.8-2.1 15.1-5.3 13.5-6.9zm15 10.4c-1.6-1.6-10-.4-18.8 2.7-2.4.8-4.5 1.7-6.2 2.6 1 1.8 2 3.5 3.1 5.3 2.7-1.1 5.6-2.5 8.1-3.4 6-2.3 15.5-5.6 13.8-7.2zm23.6 12.5c-2.1-1.7-11.5.8-21.3 5.5-6.6 3.1-11 6.2-12.3 8.9 1 1.2 2 2.3 3 3.4 3.9-.9 10.5-5.3 15.5-7.8 6.7-3.3 17.2-8.3 15.1-10zm32.1 19.6c-2.5-1.8-13.2 1.9-24.2 8-7.3 4.1-12.2 8-13.5 11.2 1.7 1.1 3.5 2.2 5.3 3.2 4.5-2 10.8-6.8 15.7-9.7 7.5-4.3 19.2-10.9 16.7-12.7z"/><path fill="#27160F" d="M205.7 155.6l-6.9 4.4s0 .1-.1.2c-.8 3.4-10.8 47.3-28.4 88.6 2-.7 3.9-1.4 5.8-2.2 14.4-35.1 29.6-91 29.6-91z"/><path fill="#3A2822" d="M176.2 246.6c3.2-1.3 6.3-2.7 9.4-4.3-.2-.6-.3-1.2 0-1.9.5-1.6 3-1.9 6.2-1.4 8.6-4.9 16.5-10.8 23.7-17.6-10-3.7-17.8-6.4-16.5-10.5 1.5-4.7 19.2 2.2 23.2 3.8 5.6-6.1 10.7-12.7 15-19.8-2.2-.8-4.6-1.8-7.1-2.8-13.7-5.7-26.8-8.6-25.1-13.9 1.7-5.3 23.9 4.1 23.9 4.1 3.9 1.5 8.5 3.1 12.8 4.7 2.7-5.2 5-10.6 7-16.1l-42.9-15.3c-.1 0-15.3 55.9-29.6 91z"/><path fill="#55483A" d="M204.9 178.2c-1.7 5.3 11.5 8.1 25.1 13.9 2.5 1.1 4.9 2 7.1 2.8 1.6-2.6 3.1-5.2 4.5-7.9-4.2-1.6-8.8-3.2-12.8-4.7.1 0-22.2-9.4-23.9-4.1zm-6 32.8c-1.3 4.1 6.5 6.8 16.5 10.5 2.3-2.2 4.6-4.4 6.7-6.7-3.9-1.6-21.7-8.5-23.2-3.8zm-13.4 29.5c-.2.7-.2 1.3 0 1.9 2.1-1 4.1-2.1 6.1-3.3-3.1-.5-5.6-.3-6.1 1.4z"/></svg>