<svg xmlns="http://www.w3.org/2000/svg" width="256" height="256"><circle fill="#B1B3B5" cx="128" cy="128" r="128"/><path fill="#451C24" d="M62.7 222.6s-8.7-18.7-11.6-33.8l-30.6 8.6c.1.2.2.4.3.5 8.5 13 19.3 24.4 31.9 33.5l1.5-1.5 8.5-7.3z"/><path fill="#370702" d="M70.9 215.6c-.9-1.6-1.8-3.2-2.8-4.8C53.6 187.7 86 172.9 86 172.9l.4 6.2c-.5-7.8-1-15-1.5-20.3-11.7 3.3-22.3 7.6-30.8 12-4.5 2.2-4.7 9.5-3 18 3 15.1 11.6 33.8 11.6 33.8l8.2-7z"/><path fill="#201313" d="M86.4 179.1l.2 3.3s-21.1 3.9-7.7 25.1c2.3 3.6 5.2 5.9 8.5 7.3.3-10-.2-23.5-1-35.7z"/><path fill="#252228" d="M54.1 230l-1.5 1.5c5.8 4.2 11.9 8 18.4 11.2-5.2-6.2-11.3-11.8-16.9-12.7z"/><path fill="#643F15" d="M70.9 215.6l-8.2 7-8.6 7.4c5.6.9 11.7 6.4 16.9 12.6 3.6 1.8 7.3 3.4 11.1 4.9-1.7-8.8-5.1-20.6-11.2-31.9z"/><path fill="#5A2C34" d="M182.5 209c-.3 4.8-1.1 20.1-1.8 35.7 22.5-10.2 41.6-26.7 54.9-47.3l-45.1-12.7c.8 3.1 2.5 13.5-8 24.3z"/><path fill="#471A1D" d="M175.1 215.2s.9 14.5 1.2 31.4c1.5-.6 3-1.2 4.4-1.9.7-15.5 1.6-30.9 1.8-35.7-2 2.1-4.5 4.2-7.4 6.2z"/><path fill="#201313" d="M170.6 172.1c1.1-1.4 2.1-2.8 3.1-4.3-.5-4.4-1-8.5-1.8-12l.2-2.7c-.4 3.9-1 10.9-1.5 19z"/><path fill="#C08C76" d="M170.6 172.1c.6-8.1 1.2-15.1 1.5-19 .2-2.2.3-3.5.3-3.5s-.5 2.1-1.9 5.3c-.3.9-.6 1.5-.8 1.9-.1.1-.2.3-.3.4-2.3 4.5-6 10.3-11.9 15.6-2.6 2.3-5.3 3.3-5.3 3.3l-.9-.6-2.4 1.4-.4-.8-2 .8-1.2-.8-1.6 3-2-3-3.9 5.2-3.4-2.2-2.1 3.6-1.4-2.2-2.4 3.6v21.2c1.5-.8 26.5-12.9 42.1-33.2z"/><path fill="#B17D6B" d="M84.2 149.6zm3.2 65.2c16.1 6.7 40.8-9.4 40.8-9.4h.1v-21.2l-2.5-3.6-.9 2.4-2.6-3.8-2.8 1.6-4.6-4.6-2 3-1.6-3-1.2.8-2-.8-.4.8-2.4-1.4-.9.6s-2.7-1-5.3-3.3c-5.9-5.3-9.7-11.1-11.9-15.6-.1-.2-.2-.3-.3-.4-.2-.4-.5-1-.8-1.9-1.4-3.2-1.9-5.3-1.9-5.3s.3 3.6.8 9.3c.4 5.3 1 12.5 1.5 20.3.7 12 1.2 25.5.9 35.5z"/><path fill="#C08C76" d="M181.7 95c.6 3 .7 5.9.7 9.3 0 3.4-3.1 17.8-4.6 25.3 7.5.4 12.9-7.8 12.9-10.4 0-2.8 2.9-9.5 2.9-12.2 0-2.8 1.8-7.2 2-9.2s3.3-9.7 1.4-11.8-4.7-2.1-8.2 0c-.6.4-1.4 1-2.1 1.8l-5 7.2z"/><path fill="#D7A990" d="M136.9 113.3c3.3-2.2 6 1.8 7.6 3.7s9 7.6 9.5 12.7 3.5 9.5 5.2 8.8 10.3-5.5 11.2-10.2c.8-4.6-1.4-16.3 1.4-18.5s9-12 9.6-16.3c-.7-6.4-3.3-29.5-4.7-35.1-1.6-6.5-4.4-13.6-4.4-13.6l4.6-3.4 4.6 5.2s-10.3-15.1-12.3-16.9-17.2-8.9-21-8c-3.8.9-10.8 3.1-20.1 3.1V115c.9.2 5.8.3 8.8-1.7zM148.2 64c5.3-2.4 9-1.6 13.7-1.8 4.7-.2 2.3 1.6 2.3 1.6l-.6 1.8 2.1 1.8s-4.2-.9-8.5-.9-13.2 3.2-16.1 3.6-5.5-5.9-5.5-5.9c2.9.9 10.3.9 12.6-.2z"/><path fill="#D7A990" d="M145.6 141.2s-1.6 6.2-3.3 7.9c-1.6 1.5-12.9 3.1-14 3.2v6.2c1.4-.1 20.6-1 22-4.3 1.4-3.4 3.5-7.4 1.9-14.8s-3.8-14.2-4.6-14.8-3.8-3.7-6-4.6c-2.2-.9-9.2 1.2-13.2 1.2v25c1 0 13.1-1.4 17.2-5z"/><path fill="#B28D79" d="M172.4 149.6zm-2.8 7.1c.2-.4.5-1 .8-1.9-.3.7-.7 1.5-1.1 2.3.1-.1.2-.3.3-.4zM181.7 95l-.1.2s-.1-.6-.2-1.6c-.5 4.3-6.9 14.2-9.6 16.3s-.5 13.9-1.4 18.5c-.8 4.6-9.5 9.5-11.2 10.2s-4.6-3.7-5.2-8.8c-.5-5.1-7.9-10.9-9.5-12.7s-4.4-5.9-7.6-3.7c-3 2-7.9 1.9-8.6 1.9v6.2c4.1 0 11.1-2.1 13.2-1.2 2.2.9 5.2 4 6 4.6s3 7.4 4.6 14.8-.5 11.4-1.9 14.8c-1.3 3.3-20.5 4.2-22 4.3v14.1c.3.2 1.6.9 3.4.9 2 0 1.6 2.1 3.9-.7 2.2-2.8-3.5-2.6 3.5-4.1 6.9-1.5 5.3 1 6.5.8 1.2-.2 7.3 1 9.7.3 2.5-.7 14.2-16.6 14.2-16.6l2.9-3.9c2-5.8 4.3-13.3 4.8-16.6.1-.8.3-1.9.6-3.3 1.5-7.5 4.6-21.9 4.6-25.3.1-3.5 0-6.3-.6-9.4z"/><path fill="#B28D79" d="M128.3 152.3c1.1-.1 12.4-1.7 14-3.2 1.6-1.6 3.3-7.9 3.3-7.9-4.1 3.5-16.2 4.9-17.3 5.1v6z"/><path fill="#917564" d="M128.3 12.9v12c9.2 0 16.3-2.2 20.1-3.1 3.8-.9 19.1 6.2 21 8s12.3 16.9 12.3 16.9l-4.6-5.2-4.6 3.4s2.7 7.1 4.4 13.6c1.4 5.6 4 28.7 4.7 35.1.1 1 .2 1.6.2 1.6l.1-.2 5.1-7.1s1.9-14.9 1.6-26.3c-.3-11.4-7.1-23.7-17.2-37.3-1.8-2.5-4.4-4.6-7.4-6.3 0 .9 0 1.9-.1 1.8-.2-.2-2.5-.2-5.1-2.1-2.7-1.8 0 0-1.8 0s-2-1.2-4.1-1.2c-2 0-1.8-1.2-3.1-1.4-1.2-.2-1.8-.9-3.7-.9s-4.3.7-8.8 0c-4.5-.7-2-2.8-4.1-3.9-1.8-1-4.3-.8-4.8-.7v3.3z"/><path fill="#664D38" d="M141.1 70.3c2.9-.4 11.8-3.6 16.1-3.6 4.3 0 8.5.9 8.5.9l-2.1-1.8.6-1.8s2.4-1.8-2.3-1.6c-4.7.2-8.4-.7-13.7 1.8-2.3 1-9.7 1.1-12.5.3 0-.2 2.5 6.1 5.4 5.8zM132 182.7l2.1-3.6 3.4 2.2 3.9-5.2 2 3 1.6-3 1.2.8 2-.8.4.8 2.4-1.4.9.6s2.7-1 5.3-3.3c5.9-5.3 9.7-11.1 11.9-15.6.4-.8.8-1.6 1.1-2.3 1.4-3.2 1.9-5.3 1.9-5.3l-2.9 3.9s-11.7 15.9-14.2 16.6c-2.5.7-8.5-.5-9.7-.3-1.2.2.4-2.2-6.5-.8-6.9 1.5-1.2 1.3-3.5 4.1-2.2 2.8-1.8.7-3.9.7-1.8 0-3-.7-3.4-.9v11.2l2.4-3.6 1.6 2.2zM128.3 9.6c.5-.1 3-.3 4.8.7 2 1.2-.4 3.2 4.1 3.9 4.5.7 6.9 0 8.8 0s2.5.7 3.7.9c1.2.2 1 1.4 3.1 1.4 2 0 2.2 1.2 4.1 1.2s-.8-1.8 1.8 0c2.7 1.8 4.9 1.8 5.1 2.1.1.1.1-.9.1-1.8 0-.7-.1-1.4-.1-1.4s-5.3-6.7-8.5-13.6c-8.7-2-17.7-3-27-3v9.6z"/><path fill="#B17D6B" d="M74.8 95l-5.1-7.1c-.8-.8-1.5-1.5-2.1-1.8-3.5-2.1-6.3-2.1-8.2 0s1.2 9.7 1.4 11.8 2 6.5 2 9.2c0 2.8 2.9 9.5 2.9 12.2 0 2.6 5.3 10.8 12.9 10.4-1.5-7.5-4.6-21.9-4.6-25.3.1-3.5.2-6.3.8-9.4z"/><path fill="#C08C76" d="M108.2 21.8c-3.8-.9-19.1 6.2-21 8S75 46.8 75 46.8l4.6-5.2 4.6 3.4s-2.7 7.1-4.4 13.6c-1.4 5.6-4 28.7-4.7 35.1.5 4.3 6.9 14.2 9.6 16.3s.5 13.9 1.4 18.5c.8 4.6 9.5 9.5 11.2 10.2s4.6-3.7 5.2-8.8c.5-5.1 7.9-10.9 9.5-12.7s4.4-5.9 7.6-3.7c3.3 2.2 8.7 1.8 8.7 1.8V24.9c-9.2 0-16.3-2.2-20.1-3.1zm7.2 48.5c-2.9-.4-11.8-3.6-16.1-3.6-4.3 0-8.5.9-8.5.9l2.1-1.8-.6-1.8s-2.4-1.8 2.3-1.6c4.7.2 8.4-.7 13.7 1.8 2.3 1 9.7 1.1 12.5.3.1-.2-2.5 6.1-5.4 5.8z"/><path fill="#C08C76" d="M128.3 152.3s-12.5-1.6-14.1-3.2-3.3-7.9-3.3-7.9c4.3 3.7 17.4 5.1 17.4 5.1v-25c-4.1 0-11.2-2.2-13.3-1.2-2.2.9-5.2 4-6 4.6s-3 7.4-4.6 14.8c-1.6 7.4.5 11.4 1.9 14.8 1.4 3.4 22.1 4.3 22.1 4.3v-6.3z"/><path fill="#977968" d="M86.9 156.7c.1.1.2.3.3.4-.4-.8-.8-1.6-1.1-2.3.3.9.6 1.6.8 1.9zm.2-3.2s11.7 15.9 14.2 16.6c2.5.7 8.5-.5 9.7-.3 1.2.2-.4-2.2 6.5-.8 6.9 1.5 1.2 1.3 3.5 4.1 2.2 2.8 1.8.7 3.9.7 2 0 3.5-.9 3.5-.9v-14.4s-20.7-.9-22.1-4.3c-1.4-3.4-3.5-7.4-1.9-14.8s3.8-14.2 4.6-14.8 3.8-3.7 6-4.6c2.2-.9 9.3 1.2 13.3 1.2V115s-5.4.3-8.7-1.8c-3.3-2.2-6 1.8-7.6 3.7s-9 7.6-9.5 12.7-3.5 9.5-5.2 8.8-10.3-5.5-11.2-10.2c-.8-4.6 1.4-16.3-1.4-18.5s-9-12-9.6-16.3c-.1 1-.2 1.6-.2 1.6h-.1c-.6 3-.7 5.9-.7 9.3 0 3.4 3.1 17.8 4.6 25.3.3 1.4.5 2.5.6 3.3.5 3.3 2.8 10.8 4.8 16.6l3 4z"/><path fill="#977968" d="M128.3 149.6v-3.2s-13.1-1.4-17.4-5.1c0 0 1.6 6.2 3.3 7.9s14.1 3.2 14.1 3.2v-2.8z"/><path fill="#7E6455" d="M74.8 95l.1.2s.1-.6.2-1.6c.7-6.4 3.3-29.5 4.7-35.1 1.6-6.5 4.4-13.6 4.4-13.6l-4.6-3.4-4.6 5.3s10.3-15.1 12.3-16.9 17.2-8.9 21-8c3.8.9 10.9 3.1 20.1 3.1V9.6s-2.9-.5-4.9.7c-2 1.2.4 3.2-4.1 3.9-4.5.7-6.9 0-8.8 0s-2.5.7-3.7.9c-1.2.2-1 1.4-3.1 1.4-2 0-2.2 1.2-4.1 1.2s.8-1.8-1.8 0c-2.7 1.8-4.9 1.8-5.1 2.1-.1.1-.1-.9-.1-1.8-3 1.8-5.6 3.9-7.4 6.3-10.1 13.5-16.9 25.9-17.2 37.2-.3 11.4 1.6 26.3 1.6 26.3l5.1 7.2z"/><path fill="#513C2A" d="M108.3 64c-5.3-2.4-9-1.6-13.7-1.8-4.7-.2-2.3 1.6-2.3 1.6l.6 1.8-2.1 1.8s4.2-.9 8.5-.9 13.2 3.2 16.1 3.6 5.5-5.9 5.5-5.9c-2.8.9-10.3.9-12.6-.2zm-21.1 93.1c2.3 4.5 6 10.3 11.9 15.6 2.6 2.3 5.3 3.3 5.3 3.3l.9-.6 2.4 1.4.4-.8 2 .8 1.2-.8 1.6 3 2-3 4.6 4.6 2.8-1.6 2.6 3.8.9-2.4 2.5 3.6v-11.3s-1.4.9-3.5.9c-2 0-1.6 2.1-3.9-.7-2.2-2.8 3.5-2.6-3.5-4.1-6.9-1.5-5.3 1-6.5.8-1.2-.2-7.3 1-9.7.3-2.5-.7-14.2-16.6-14.2-16.6l-2.9-3.9s.5 2.1 1.9 5.3l1.2 2.4zM92.7 18c0 .9 0 1.9.1 1.8.2-.2 2.5-.2 5.1-2.1 2.7-1.8 0 0 1.8 0s2-1.2 4.1-1.2c2 0 1.8-1.2 3.1-1.4 1.2-.2 1.8-.9 3.7-.9s4.3.7 8.8 0c4.5-.7 2-2.8 4.1-3.9 2-1.2 4.9-.7 4.9-.7V0h-.3c-9.2 0-18.1 1-26.7 2.8-3.1 7-8.5 13.7-8.5 13.7s-.2.7-.2 1.5z"/><path fill="#232026" d="M175.2 202.2c-.2 1.2-.3 2.4-.5 3.7.2-.2.4-.4.5-.6v-3.1zm-4.6-30.1c-15.6 20.4-40.6 32.4-42.2 33.2h-.1v29s23.9-17.1 31.5-30.7c7.6-13.6 11.5-20.8 11.5-20.8v25.8s2.8-7.5 2.5-27.6c0 0-3-8.3 0-10.1 0 0 0 .1.1.4-.1-1.1-.2-2.3-.3-3.4l-3 4.2z"/><path fill="#201313" d="M175.2 205.3l-.6.8c-2 12-6.2 27.1-13 38.7-1.6 2.8-3.5 5.5-5.4 8.1 2.2-.5 4.3-1 6.4-1.6 5.8-16.2 12.5-36 12.5-36s.1-4 .1-10zm-.1 9.9z"/><path fill="#794E20" d="M161.6 244.8c6.8-11.6 11-26.6 13-38.7v-.2c.2-1.3.4-2.5.5-3.7 0-8.7-.3-20.4-1.2-31 0-.2-.1-.4-.1-.4-3 1.9 0 10.1 0 10.1.2 20.1-2.5 27.6-2.5 27.6v-25.8s-3.9 7.2-11.5 20.8c-7.6 13.6-31.5 30.7-31.5 30.7v21.7c9.6 0 19-1.1 27.9-3.1 1.9-2.5 3.8-5.2 5.4-8z"/><path fill="#521E1B" d="M172.4 149.6l-.3 3.5-.2 2.7c.8 3.5 1.3 7.6 1.8 12 .1 1.1.2 2.3.3 3.4.9 10.7 1.2 22.4 1.2 31v3.1c0 6-.1 9.9-.1 9.9 3-2 5.4-4.1 7.4-6.2 10.5-10.8 8.8-21.3 8-24.3l-.3-.9c-4.3-2.5-9.9-11.7-9.9-11.7s.7-3.1 0-8.3c-1.3-10.8-7.9-14.2-7.9-14.2z"/><path fill="#50262A" d="M175.1 215.2s-6.7 19.8-12.5 36c4.7-1.3 9.2-2.9 13.7-4.7-.4-16.8-1.2-31.3-1.2-31.3z"/><path fill="#33313A" d="M18.6 193.8c-.1.1-.2.1-.3.2.8 1.4 1.7 2.7 2.5 4-.1-.2-.2-.4-.3-.5-1.1-2.5-1.9-3.7-1.9-3.7z"/><path fill="#18141B" d="M128.2 234.3v-29s-24.8 16.1-40.8 9.4c-3.3-1.4-6.2-3.7-8.5-7.3-13.4-21.3 7.7-25.1 7.7-25.1l-.2-3.3-.4-6.2s-32.4 14.8-17.9 37.9c1 1.6 1.9 3.2 2.8 4.8 6.1 11.3 9.4 23.1 11.2 32 5.3 2.1 10.9 3.8 16.5 5.1l29.6-18.3z"/><path fill="#643F15" d="M128.2 244.8v-10.5l-29.6 18.3c9.4 2.2 19.3 3.4 29.4 3.4h.2v-11.2z"/></svg>