<svg xmlns="http://www.w3.org/2000/svg" width="256" height="256"><circle fill="#B1B3B5" cx="128" cy="128" r="128"/><path fill="#792B14" d="M192.4 201c5.8-5.3 6.1-13.6 5.9-17.3-3.9-3.3-8.1-6.9-11.6-9.9-2.5-2.1-4.8-7.5-6.6-13.4-.3.2-.6.5-.9.8l2.1 4.6s-13.4 28.1-19.5 38.3-18.8 14-18.8 14c15-6.1 19.8-23 25.5-34.2 3.9-7.7 6.8-17 8.3-22.1l-7.7-8.2c-2.2 2.7-3.9 4.4-3.9 4.4-10.5 13-37.2 22.9-37.2 22.9V256c4.7 0 9.4-.3 14-.8 17.4-19 45.2-49.4 50.4-54.2zm-14.8-16.8c2.9-2.6 6.6-1.2 3.7-9.8 0 0 5.2 6.9 1.8 12.9-3.4 6-21 22.8-21 22.8s12.7-23.3 15.5-25.9zm3.7 23.5c-2.6 3.5-16.1 14.9-20.1 18.3-.4.3-.7.6-1.1.9 0 0 .4-.3 1.1-.9 7.6-6.6 17.4-22.3 17.4-22.3 1.7.2 4.1-1.7 5.7-4.3s3.2-4.6 3.2-8.4c0-3.8 3.1-10 3.1-10s2.6 4.2 1.4 5.7c-1.2 1.4-3.1 7.9-3 10.8.1 2.7-4.6 6.1-7.7 10.2zm18.8-11.1c-2.9 5.7-21.4 25.5-29.1 33-3.6 3.5-13.4 14.3-22.7 24.8 4.1-.7 8.1-1.5 12.1-2.5 4.9-6.6 9.9-12.6 14.1-16.6 13.7-13.5 25.6-38.7 25.6-38.7z"/><path fill="#792B14" d="M213.7 197.2c-3-2.3-5.4-4.3-6.6-5.4-1-1-2.2-2.1-3.5-3.3-3 20.8-10.7 32.7-26.3 48.2-3.6 3.6-7.5 8.4-11.4 13.6 22.2-6.9 41.9-19.7 57.1-36.6-.2-3.8-2-10.1-9.3-16.5z"/><path fill="#5F1816" d="M177.8 163.1l-1-1.1c-1.4 5.1-4.3 14.4-8.3 22.1-5.7 11.2-10.5 28.1-25.5 34.2 0 0 12.8-3.8 18.8-14s19.5-38.3 19.5-38.3l-2.1-4.6c-.5.5-1 1.1-1.4 1.7zm5.4 24.2c3.4-6-1.8-12.9-1.8-12.9 3 8.6-.8 7.2-3.7 9.8-2.9 2.6-15.5 25.9-15.5 25.9s17.6-16.8 21-22.8zm7.4-6.4s-3.1 6.1-3.1 10c0 3.8-1.6 5.7-3.2 8.4s-4 4.6-5.7 4.3c0 0-9.8 15.7-17.4 22.3 3.9-3.3 17.5-14.8 20.1-18.3 3-4.1 7.8-7.4 7.7-10.3-.1-2.9 1.8-9.3 3-10.8 1.2-1.3-1.4-5.6-1.4-5.6zm-29.4 45c-.7.6-1.1.9-1.1.9.4-.2.8-.6 1.1-.9z"/><path fill="#B08777" d="M236 83.6c0-1.7 1-6.1 1.7-8.6-9.8 3.8-26.1 9-31.6 11.3-8.1 3.4-8.3 6.2-4.9 8.6 2.6 1.8 25.9-2.6 36.8-3.9.1-.1.2-.1.2-.1s-2.2-4.8-2.2-7.3zm-10.5 23.5c.5-4.1 6.7-10.6 10.3-14-14.7 3.1-44.9 8.1-46.2 12.1-1.3 4.2 25.6 7.7 36.4 10-.5-1.7-1-4.5-.5-8.1zm-13 16.3c4.4-3.5 13.2-6.5 13.9-6.7-10.2-1-37.1-5.3-39.5-2.1-2.1 3 12.7 11.2 20.3 15.8.7-1.6 2.2-4.6 5.3-7zm-6.4 8.6c-7.4-3.1-19.8-8.5-23-4.3-3.2 4.2 8.2 11.3 14.9 15.5.3-1.5 1-4.2 1.9-6.6 1.1-2.8 4.6-4.2 6.2-4.6zm-15.4 17.5c2.4-4.3 6.9-5 6.9-5-5.3-3.2-13.6-8.2-18.2-4.3-5.2 4.4 4.2 9.8 9.8 15.1 0-1.3.2-3.3 1.5-5.8zM201.5 80c1.6 3 23.5-4.6 35.8-7.9-1.4-1.7-4.2-5.2-4.3-7.9-.1-1.8.4-5.3.9-8.2-.4-.6-.8-1.1-1.2-1.7-4.6 3.7-10 7.9-14.4 10.9-9.6 6.4-18.9 10.8-16.8 14.8zm0-9.1s17.2-11.9 29.3-19.2c-3.8-5.1-7.9-9.9-12.4-14.4-1.5 4.8-3.6 9-6.2 13.3-3.7 7.8-8.2 17-10.7 20.3zM176.8 162l1 1.1c.4-.7.9-1.3 1.4-1.8.3-.3.6-.5.9-.8 2.9-2.3 6.9-3.3 8.6-3.7-4.3-3.2-11.2-8-15.4-8.7-1.4 2.1-2.9 4.1-4.2 5.7l7.7 8.2z"/><path fill="#5F1816" d="M212.2 50.7c-2.1 3.5-4.6 7.1-7.3 11.2-6.3 9.3-11.4 18.8-14.8 26.5-1.8 6.7-3.6 13.9-4.3 18.8-1.7 11.5-5.3 25.6-8.6 34-1 2.4-2.3 4.8-3.8 7 4.2.8 11.1 5.5 15.4 8.7 2.4 1.8 4 3.1 4 3.1-.5-1.5-1.8-3.1-3.5-4.7-5.6-5.3-14.9-10.7-9.8-15.1 4.6-3.9 12.9 1.1 18.2 4.3 2.5 1.5 4.3 2.6 4.8 2.2.4-.3-1.7-1.6-4.5-3.4-6.7-4.2-18-11.3-14.9-15.5 3.2-4.2 15.6 1.2 23 4.3 3.1 1.3 5.4 2.2 5.5 1.7.1-.4-1.7-1.6-4.3-3.2-7.6-4.7-22.5-12.9-20.3-15.8 2.3-3.2 29.2 1.1 39.5 2.1 2.4.2 3.9.3 3.9 0 0-.4-1.6-.9-4.3-1.5-10.7-2.3-37.7-5.8-36.4-10 1.3-4 31.5-9 46.2-12.1 4.9-1 8.1-1.8 7.9-2.3-.1-.4-2.3-.3-5.7.1-10.9 1.4-34.2 5.8-36.8 3.9-3.4-2.4-3.3-5.3 4.9-8.6 5.5-2.3 21.8-7.4 31.6-11.3 2.4-.9 4.4-1.8 5.7-2.5-.3-.6-.6-1.1-.8-1.7-1.4.2-3.2.7-5.3 1.3C225 75.4 203.1 83 201.5 80c-2.2-4.1 7.2-8.4 16.8-14.8 4.4-3 9.8-7.2 14.4-10.9-.6-.9-1.2-1.7-1.9-2.6-12.1 7.3-29.3 19.2-29.3 19.2 2.5-3.3 7-12.5 10.7-20.2z"/><path fill="#712220" d="M173.3 148.1c1.5-2.2 2.9-4.7 3.8-7 3.4-8.4 6.9-22.5 8.6-34 .7-4.9 2.5-12.1 4.3-18.8-2 4.7-3.4 8.7-4 11.5-1.6 7.3-7.7 18.2-13.4 27.1s-7.3 31.3-7.3 31.3 1.7-1.7 3.9-4.4c1.2-1.6 2.7-3.5 4.1-5.7z"/><path fill="#8E351E" d="M197.2 51.6c-7.3 6.7-11.5 4.2-12.1 1.9S178.2 9.6 128 9.6v171.3s26.7-9.9 37.3-22.7c0 0 1.6-22.4 7.3-31.3s11.8-19.8 13.4-27.1c.6-2.8 2-6.8 4.1-11.5 3.3-7.7 8.4-17.2 14.8-26.5 2.8-4.1 5.2-7.7 7.3-11.2 2.6-4.3 4.7-8.5 6.2-13.3-2.2-2.2-4.5-4.4-6.9-6.4-4 10.1-10 16.8-14.3 20.7zm-24.3 47.7c-1-.6-3.6 8.7-22.5 3.5 0 0-4 13.1-5.5 16.8s3.4 14.8 3.8 17.2c.5 2.4-5.5 23.2-5.5 23.2s4.8-17.5 4.1-21.6-4.8-13.9-4.1-19.4 1.9-24.9 7.2-31.9c5.3-6.9 13.4-9.6 20.8-5.5s10-4.8 10-4.8l1.3-9.3s2.6-.4 1.4 6.6c-1.2 7-6.2 14.4-6.2 14.4s-3.9 11.4-4.8 10.8z"/><path fill="#792B14" d="M183.9 74.2c1.2-7-1.4-6.6-1.4-6.6l-1.3 9.3s-2.6 8.9-10 4.8c-7.4-4.1-15.6-1.4-20.8 5.5-5.3 6.9-6.5 26.3-7.2 31.9s3.4 15.3 4.1 19.4-4.1 21.6-4.1 21.6 6-20.8 5.5-23.2c-.5-2.4-5.4-13.5-3.8-17.2s5.5-16.8 5.5-16.8c18.9 5.3 21.6-4.1 22.5-3.5 1 .6 4.8-10.7 4.8-10.7s5-7.5 6.2-14.5z"/><path fill="#3C2D2D" d="M203.7 188.5c.1-.5.2-1 .2-1.5 0 0-.3-3.2-5.7-5.1 0 0 .1.7.2 1.9.2 3.7-.1 11.9-5.9 17.3-5.2 4.8-33 35.2-50.4 54.2 2.1-.2 4.2-.5 6.3-.8 9.3-10.4 19.1-21.2 22.7-24.8 7.7-7.5 26.2-27.3 29.1-33 0 0-11.8 25.2-25.5 38.6-4.2 4.1-9.1 10.1-14.1 16.6 1.9-.5 3.7-1 5.6-1.6 3.8-5.2 7.7-10 11.4-13.6 15.4-15.5 23-27.4 26.1-48.2z"/><path fill="#363233" d="M213.7 197.2c7.3 6.4 9.1 12.7 9.4 16.4 3.1-3.5 6.1-7.1 8.8-10.9-.8 0-1.2-.1-1.2-.1-6.7-5.7-17-5.4-17-5.4z"/><path fill="#403B3D" d="M239 191.8c2.9-5.1 5.5-10.4 7.7-15.9-2.1.1-4 .2-5.2.2-4.5 0-2.7 8-2.5 15.7z"/><path fill="#5A1900" d="M90.7 158.3s-1.7-1.7-3.9-4.4l-7.7 8.2c1.4 5.1 4.3 14.4 8.3 22.1 5.7 11.2 10.5 28.1 25.5 34.2 0 0-12.8-3.8-18.8-14s-19.5-38.3-19.5-38.3l2.1-4.6c-.3-.3-.6-.5-.9-.8-1.9 5.9-4.1 11.2-6.6 13.4-3.5 3-7.7 6.5-11.6 9.9-.2 3.7.1 11.9 5.9 17.3 5.2 4.8 33 35.2 50.4 54.2 4.6.5 9.3.8 14 .8v-75.1c.1-.3-26.6-10.2-37.2-22.9zm-16 16.1c-3 8.6.8 7.2 3.7 9.8 2.9 2.6 15.5 25.9 15.5 25.9s-17.6-16.8-21-22.8c-3.4-6 1.8-12.9 1.8-12.9zm0 33.3c-3-4.1-7.8-7.4-7.7-10.3.1-2.9-1.8-9.3-3-10.8-1.2-1.4 1.4-5.7 1.4-5.7s3.1 6.1 3.1 10c0 3.8 1.6 5.7 3.2 8.4s4 4.6 5.7 4.3c0 0 9.8 15.7 17.4 22.3.7.6 1.1.9 1.1.9-.4-.3-.7-.6-1.1-.9-4-3.3-17.5-14.8-20.1-18.2zM85 229.6c-7.7-7.5-26.2-27.3-29.1-33 0 0 11.8 25.2 25.5 38.6 4.2 4.1 9.1 10.1 14.1 16.6 4 1 8 1.9 12.1 2.5-9.2-10.3-19-21.1-22.6-24.7z"/><path fill="#5A1900" d="M52.3 188.5c-1.3 1.2-2.5 2.3-3.5 3.3-1.1 1.1-3.5 3.1-6.6 5.4-7.3 6.4-9.1 12.7-9.4 16.4 15.2 16.9 34.8 29.7 57.1 36.6-3.8-5.2-7.7-10-11.4-13.6-15.5-15.4-23.1-27.3-26.2-48.1z"/><path fill="#420100" d="M76.8 161.3l-2.1 4.6s13.4 28.1 19.5 38.3 18.8 14 18.8 14c-15-6.1-19.8-23-25.5-34.2-3.9-7.7-6.8-17-8.3-22.1l-1 1.1c-.4-.5-.9-1.1-1.4-1.7zm17 48.8s-12.6-23.2-15.5-25.9c-2.9-2.6-6.6-1.2-3.7-9.8 0 0-5.2 6.9-1.8 12.9 3.4 6 21 22.8 21 22.8zm1 15.8c.4.3.7.6 1.1.9-.1 0-.5-.3-1.1-.9zm-17.4-22.3c-1.7.2-4.1-1.7-5.7-4.3s-3.2-4.6-3.2-8.4c0-3.8-3.1-10-3.1-10s-2.6 4.2-1.4 5.7c1.2 1.4 3.1 7.9 3 10.8-.1 2.9 4.6 6.2 7.7 10.3 2.6 3.5 16.1 14.9 20.1 18.3-7.6-6.7-17.4-22.4-17.4-22.4z"/><path fill="#816457" d="M54.8 94.9c3.4-2.4 3.3-5.3-4.9-8.6C44.4 84 28.1 78.8 18.3 75c.6 2.5 1.7 6.9 1.7 8.6 0 2.5-2.2 7.2-2.2 7.2s.1 0 .2.1c10.9 1.4 34.2 5.8 36.8 4zm11.7 10.3c-1.3-4-31.5-9-46.2-12.1 3.5 3.4 9.8 9.9 10.3 14 .5 3.6 0 6.4-.5 8.1 10.7-2.3 37.7-5.8 36.4-10zM43.8 50.7c-2.6-4.3-4.7-8.5-6.2-13.3-4.5 4.5-8.6 9.3-12.4 14.4C37.3 59 54.5 70.9 54.5 70.9c-2.5-3.3-7-12.5-10.7-20.2zM23 64.2c-.1 2.6-2.8 6.2-4.3 7.9C31 75.4 52.9 83 54.5 80c2.2-4.1-7.2-8.4-16.8-14.8-4.4-3-9.8-7.2-14.4-10.9-.4.6-.8 1.1-1.2 1.7.5 2.9 1 6.4.9 8.2zm53.5 75.9c-4.6-3.9-12.9 1.1-18.2 4.3s4.6.7 6.9 5c1.4 2.5 1.6 4.5 1.5 5.8 5.6-5.2 15-10.6 9.8-15.1zm-3.6-12.4c-3.2-4.2-15.6 1.2-23 4.3 1.5.5 5.1 1.8 6.2 4.6 1 2.4 1.6 5.1 1.9 6.6 6.8-4.3 18.1-11.3 14.9-15.5zm-3.8-13.1c-2.3-3.2-29.2 1.1-39.5 2.1.7.2 9.5 3.2 13.9 6.7 3.1 2.4 4.6 5.4 5.3 7.1 7.6-4.7 22.4-12.9 20.3-15.9zm9.1 48.5l1-1.1 7.7-8.2c-1.3-1.6-2.8-3.6-4.2-5.7-4.2.8-11.1 5.5-15.4 8.7 1.7.4 5.7 1.4 8.6 3.7.3.2.6.5.9.8.5.6 1 1.2 1.4 1.8z"/><path fill="#450400" d="M49.9 86.3c8.1 3.4 8.3 6.2 4.9 8.6-2.6 1.8-25.9-2.6-36.8-3.9-3.3-.4-5.6-.6-5.7-.1-.1.5 3.1 1.2 7.9 2.3 14.7 3.1 44.9 8.1 46.2 12.1 1.3 4.2-25.6 7.7-36.4 10-2.7.6-4.4 1.1-4.3 1.5 0 .3 1.5.2 3.9 0 10.2-1 37.1-5.3 39.5-2.1 2.1 3-12.7 11.2-20.3 15.8-2.7 1.6-4.5 2.8-4.3 3.2.1.5 2.4-.4 5.5-1.7 7.4-3.1 19.8-8.5 23-4.3 3.2 4.2-8.2 11.3-14.9 15.5-2.9 1.8-4.9 3.1-4.5 3.4.5.4 2.3-.7 4.8-2.2 5.3-3.2 13.6-8.2 18.2-4.3 5.2 4.4-4.2 9.8-9.8 15.1-1.7 1.6-3 3.2-3.5 4.7 0 0 1.6-1.3 4-3.1 4.3-3.2 11.2-8 15.4-8.7-1.5-2.2-2.9-4.7-3.8-7-3.4-8.4-6.9-22.5-8.6-34-.7-4.9-2.5-12.1-4.3-18.8-3.3-7.7-8.4-17.2-14.8-26.5-2.8-4.1-5.2-7.7-7.3-11.2 3.7 7.7 8.2 16.9 10.7 20.3 0 0-17.2-11.9-29.3-19.2-.6.9-1.3 1.7-1.9 2.6 4.6 3.7 10 7.9 14.4 10.9C47.3 71.6 56.6 76 54.5 80c-1.6 3-23.5-4.6-35.8-7.9-2.1-.6-3.9-1-5.3-1.3-.3.6-.6 1.1-.8 1.7 1.4.7 3.4 1.5 5.7 2.5 9.8 3.8 26.1 9 31.6 11.3z"/><path fill="#5F1816" d="M90.7 158.3s-1.6-22.4-7.3-31.3c-5.8-9-11.8-19.8-13.4-27.2-.6-2.8-2-6.8-4.1-11.5 1.8 6.7 3.6 13.9 4.3 18.8 1.7 11.5 5.3 25.6 8.6 34 1 2.4 2.3 4.8 3.8 7 1.4 2.1 2.9 4.1 4.2 5.7 2.2 2.7 3.9 4.5 3.9 4.5z"/><path fill="#712220" d="M51.1 61.8c6.3 9.3 11.4 18.8 14.8 26.5C68 93 69.4 97 70 99.8c1.6 7.3 7.7 18.2 13.4 27.1 5.7 8.9 7.3 31.3 7.3 31.3 10.5 12.8 37.3 22.7 37.3 22.7V9.6c-50.2 0-56.4 41.7-57.1 43.9s-4.8 4.8-12.1-1.9C54.5 47.7 48.5 41 44.5 31c-2.4 2.1-4.7 4.2-6.9 6.4 1.5 4.8 3.6 9 6.2 13.3 2.1 3.5 4.6 7.1 7.3 11.1zm22.5 5.8l1.3 9.3s2.6 8.9 10 4.8c7.4-4.1 15.6-1.4 20.8 5.5 5.3 6.9 6.5 26.3 7.2 31.9s-3.4 15.3-4.1 19.4 4.1 21.6 4.1 21.6-6-20.8-5.5-23.2c.5-2.4 5.4-13.5 3.8-17.2s-5.5-16.8-5.5-16.8c-18.9 5.3-21.6-4.1-22.5-3.5-1 .6-4.8-10.7-4.8-10.7s-5-7.4-6.2-14.4c-1.3-7.1 1.4-6.7 1.4-6.7z"/><path fill="#5A1900" d="M72.1 74.2c1.2 7 6.2 14.4 6.2 14.4s3.8 11.3 4.8 10.7c1-.6 3.6 8.7 22.5 3.5 0 0 4 13.1 5.5 16.8s-3.4 14.8-3.8 17.2c-.5 2.4 5.5 23.2 5.5 23.2s-4.8-17.5-4.1-21.6 4.8-13.9 4.1-19.4-1.9-24.9-7.2-31.9c-5.3-6.9-13.4-9.6-20.8-5.5s-10-4.8-10-4.8l-1.3-9.3c.1.1-2.6-.3-1.4 6.7z"/><path fill="#231515" d="M63.6 201c-5.8-5.3-6.1-13.6-5.9-17.3.1-1.2.2-1.9.2-1.9-5.4 1.9-5.7 5.1-5.7 5.1.1.5.2 1 .2 1.5 3 20.8 10.7 32.7 26.3 48.2 3.6 3.6 7.5 8.4 11.4 13.6 1.8.6 3.7 1.1 5.6 1.6-4.9-6.6-9.9-12.6-14.1-16.6-13.7-13.4-25.5-38.6-25.5-38.6 2.9 5.7 21.4 25.5 29.1 33 3.6 3.5 13.4 14.3 22.7 24.8 2.1.3 4.2.6 6.3.8-17.6-19-45.4-49.4-50.6-54.2z"/><path fill="#1A1617" d="M42.3 197.2s-10.3-.3-17 5.4c0 0-.5 0-1.2.1 2.7 3.8 5.7 7.5 8.8 10.9.3-3.7 2.1-10 9.4-16.4z"/><path fill="#252122" d="M14.4 176.1c-1.2 0-3-.1-5.2-.2 2.2 5.5 4.8 10.8 7.7 15.9.3-7.7 2.1-15.7-2.5-15.7z"/></svg>