<svg xmlns="http://www.w3.org/2000/svg" width="256" height="256"><circle fill="#B2B4B5" cx="128" cy="128" r="128"/><path fill="#4A494D" d="M213.8 171.5c.5 8.3-.6 19.2-9.1 23.9-3.1 1.7-6.5 2.5-10.1 2.4-7 6.3-18.6 16.5-25.4 20.1-10.1 5.3-12 14.4-12.5 19.6-.5 5.3-5.7 3.4-5.7 3.4-4.8-13.9 13.4-50.8 13.4-50.8-19.2 12.5-21.6 51.7-21.6 51.7-2.9 5.7-14.9 3.4-14.9 3.4V256c38.3 0 72.7-16.8 96.1-43.5 1.7-5.3 2.7-11 3-17.1.7-11.4-5.2-18.9-13.2-23.9z"/><path fill="#181818" d="M142.9 241.9s2.4-39.3 21.6-51.7c0 0-18.2 36.9-13.4 50.8 0 0 5.3 1.9 5.7-3.4.5-5.3 2.4-14.4 12.5-19.6 6.7-3.5 18.4-13.7 25.4-20.1-13.1-.2-27.7-11.2-33.2-24.3-.5 1.2-.8 2.5-1.1 3.8.8 2.3.9 4.1-.2 4.8-4.3 2.9-15.8-5.7-19.2-5.7h-13v68.7s12.1 2.4 14.9-3.3z"/><path fill="#6F685A" d="M197.9 123.3c.6 4.3 1.5 9.2 2.5 13.4 2.3 2.9 10.1 13.3 11.6 24v-.2s1.3 4.8 1.7 11c8 5 13.9 12.5 13.3 23.9-.3 6.1-1.3 11.8-3 17.1 13.4-15.3 23.3-33.7 28.2-54.1-13.2-19.3-44.9-31.8-54.3-35.1z"/><path fill="#6F685A" d="M197.3 119c23 4.2 44.6 17.3 56.6 32.2.5-3 1-6 1.3-9-18.2-16.8-45.4-25.2-58.6-28.4.2 1.1.4 3 .7 5.2z"/><path fill="#4E4A3F" d="M197.3 119c.2 1.3.4 2.8.6 4.3 9.4 3.4 41.1 15.8 54.5 35.1.6-2.4 1.1-4.8 1.5-7.2-12.1-14.9-33.7-28-56.6-32.2z"/><path fill="#4A494D" d="M128 12v10.7s34.6-.5 43.7 12.5c9.1 12.9 18.2 16.8 20.1 22 1.1 3.1-.1 14.7-1.2 24 .3 3.1.8 10.3-1.6 12v.4c0 .3.2 1.8.6 4 2.1.4 1.9 3.5 1.4 7.3.5 2.8 1.2 5.7 1.9 8.6l3.7-1.6 1.1-22.7c4 0 8 .3 11.6.8 0 0 9.6-8.2 6.1-21.3-8.5-2.4-19-5.9-18.3-7.7.7-2.6 11-3.5 19.4-3.8-.4-.1-.7-.1-.7-.1s4.1-5.5.9-14.4c-7-1.4-13.6-2.5-13.2-4.7.3-1.7 6.4-2.5 13-2.9-15.4-14.7-34.6-25.6-55.8-31.2C144.2 13.9 128 12 128 12z"/><path fill="#242427" d="M167.4 149.6c2.9-3.8 8.3-9.7 15.5-12.8-6.1 1.7-13.2 4-19 6.6 1.2 1.8 2.4 4 3.5 6.2zm-11-1.9c-1.8 1.4-3.1 2.9-3.4 4.4-1.8 7.4 5.3 18.7 7.4 25.3.2-1.3.6-2.6 1.1-3.8-.1-.1-.1-.3-.2-.4-4-10-5.2-19.3-4.9-25.5zm40.7-21c3.8 6.2 0 6.7 0 6.7s-2.8.6-6.9 1.6c3-.3 6.2-.1 9.6 1 0 0 .2.3.6.8-1-4.2-1.9-9.1-2.5-13.4-.2-1.5-.4-3-.6-4.3-.3-2.2-.5-4-.6-5.3-.1-1.1-.2-1.7-.2-1.7l-3.7 1.6c1.3 5.4 2.8 10.6 4.3 13z"/><path fill="#DEC97F" d="M216.5 42.9c3.2 8.9-.9 14.4-.9 14.4s.3 0 .7.1c1.5.2 5.5.7 9.1 1.2 2.4.3 6.6.7 10.6.5-3.3-5.1-6.9-9.9-10.8-14.5-4.9-1.1-8.7-1.7-8.7-1.7zm-1.3 26c3.5 13.1-6.1 21.3-6.1 21.3s14.7 3.6 20.1 4.9c5.4 1.3 20.4 9.9 22.7 1.9.1-.2.1-.4.1-.7-.4-1.7-.9-3.3-1.4-5-4.5-7.3-19.4-16.1-35.4-22.4z"/><path fill="#630F0F" d="M160.2 182.2c1.1-.8 1-2.5.2-4.8-2.1-6.6-9.2-17.9-7.4-25.3.4-1.5 1.6-3 3.4-4.4.2-4.3 1.2-7.1 2.7-7.8 1.6-.7 3.2.9 4.9 3.5 5.8-2.6 12.8-4.8 19-6.6 2.2-.9 4.6-1.6 7.2-1.9 4.1-1 6.9-1.6 6.9-1.6s3.8-.5 0-6.7c-1.5-2.4-3-7.5-4.3-13.1-.7-2.9-1.3-5.9-1.9-8.6-.3 2.2-.7 4.7-.8 7-.3 6.7 3.8 12.1 0 13-4.2-.8-3.5-8.8-3.5-8.8-4.5 8.9-25.5 7-25.5 7 0 4.8-5.7 3.8-5.7 3.8l.6 2.9c7-1 5.1 8.3 1.6 9.9-3.5 1.6-2.2 7.4-2.2 7.4-6.4-4.8-3.8-18.2-3.2-22.7.5-3.4-4-7.7.2-9.7-5.2-4.1-9.9-10.4-9.9-10.4s-4.3-4-14.3-4v76.1h13c3.4 0 14.7 8.7 19 5.8zm-23.8-59.8c.6-3 1.3-4.9 6.7-6.9 0 0 6.4 1 5.1 4.2-1.3 3.2-7 .6-7.3 10.2s.3 13.4-2.9 13.4-2.3-17.9-1.6-20.9zM187 93.6v.5c0 1.1.5 2.3 1 3.6.2 0 .5-.1.7-.1h.8c-.4-2.2-.6-3.7-.6-4v-.4c-.2.1-.3.2-.5.3-.5.1-.9.2-1.4.1zm-35.4-11s-.3 4.3-1 7.7c.5-.5 1-1 1.5-1.6 5.1-6.7 9.9-14.4 21.7-12.1 0 0-16.6-19.5-9.6-38.3 0 0 2.6 16 7.3 15.6 4.8-.3 2.2-14 2.2-14s6.7 8.9 5.7 13.7-3 10.5.1 11.5 2.8 7.7 2.8 7.7 6.1-8.3 4.2-18.2c0 0 6.7 17.2 3.8 25.2 0 0 .1.6.2 1.5 1.2-9.3 2.4-20.9 1.2-24-1.9-5.3-11-9.1-20.1-22-9-13-43.6-12.6-43.6-12.6V97s19.1-2.9 23.6-14.4z"/><path fill="#8A683F" d="M190.1 135c-2.6.3-5 .9-7.2 1.9-7.3 3.1-12.6 9-15.5 12.8 1.6 3.1 3.3 6.1 5.1 7.7 4.8 4.4 36.7 17.4 39.5 3.4-1.5-10.7-9.3-21.1-11.6-24-.4-.5-.6-.8-.6-.8-3.4-1.1-6.7-1.3-9.7-1z"/><path fill="#DEC97F" d="M172.5 157.3c-1.7-1.6-3.4-4.6-5.1-7.7-1.2-2.2-2.3-4.4-3.5-6.2-1.6-2.6-3.3-4.2-4.9-3.5-1.4.7-2.4 3.5-2.7 7.8-.3 6.2.9 15.5 4.9 25.4.1.1.1.3.2.4 5.4 13 20.1 24.1 33.2 24.3 3.5 0 7-.7 10.1-2.4 8.5-4.7 9.6-15.6 9.1-23.9-.4-6.2-1.7-11-1.7-11v.2c-2.9 14.1-34.8 1.1-39.6-3.4z"/><path fill="#310000" d="M152.2 114.7c1.3-.6 3.6-1.1 7.1-1.1 14.7-.3 25.2-10.8 25.2-10.8s-.3-4.3 3.4-5.1c-.5-1.3-1-2.6-1-3.6v-.5c-3.4-.2-7.3-4.3-17.4-2.1-11.5 2.6-6.4 11.3-16.6 11.2-10.2-.1-16.3-4.2-16.3-4.2s-2.2-1.6 0-3.8c0 0 8.5.5 13.8-4.4.7-3.4 1-7.7 1-7.7C147.1 94.1 128 97 128 97v3.4c10 0 14.3 4 14.3 4s4.8 6.3 9.9 10.3z"/><path fill="#DEC97F" d="M186.5 54.5c1.9 9.9-4.2 18.2-4.2 18.2s.3-6.7-2.8-7.7-1.1-6.7-.1-11.5-5.7-13.7-5.7-13.7 2.6 13.7-2.2 14-7.3-15.6-7.3-15.6c-7 18.8 9.6 38.3 9.6 38.3-11.8-2.2-16.6 5.4-21.7 12.1-.5.6-1 1.1-1.5 1.6-5.4 5-13.8 4.4-13.8 4.4-2.2 2.2 0 3.8 0 3.8s6.1 4.2 16.3 4.2c10.2.1 5.1-8.7 16.6-11.2 10-2.2 14 1.9 17.4 2.1.5 0 1 0 1.5-.2.2-.1.4-.2.5-.3 2.4-1.7 1.9-8.8 1.6-12-.1-.9-.2-1.5-.2-1.5 2.7-7.7-4-25-4-25zm1.5 43.2c-3.7.8-3.4 5.1-3.4 5.1s-10.5 10.5-25.2 10.8c-3.6.1-5.8.5-7.1 1.1-4.2 2 .3 6.3-.2 9.7-.6 4.5-3.2 17.9 3.2 22.7 0 0-1.3-5.8 2.2-7.4 3.5-1.6 5.4-10.8-1.6-9.9l-.6-2.9s5.7 1 5.7-3.8c0 0 21.1 1.9 25.5-7 0 0-.6 8 3.5 8.8 3.8-.8-.3-6.2 0-13 .1-2.3.5-4.8.8-7 .5-3.8.8-6.9-1.4-7.3-.2 0-.5-.1-.8 0-.1 0-.4.1-.6.1zm-50 45.6c3.2 0 2.6-3.8 2.9-13.4.3-9.6 6.1-7 7.3-10.2 1.3-3.2-5.1-4.2-5.1-4.2-5.4 1.9-6.1 3.8-6.7 6.9s-1.6 20.9 1.6 20.9z"/><path fill="#363539" d="M113.1 241.9s-2.4-39.3-21.6-51.7c0 0 18.2 36.9 13.4 50.8 0 0-5.3 1.9-5.7-3.4-.5-5.3-2.4-14.4-12.5-19.6-6.7-3.5-18.4-13.7-25.4-20.1-3.5 0-7-.7-10.1-2.4-8.5-4.7-9.6-15.6-9.1-23.9-8 5-13.9 12.5-13.3 23.9.3 6.1 1.3 11.8 3 17.1C55.3 239.2 89.7 256 128 256v-10.8s-12.1 2.4-14.9-3.3z"/><path fill="#0F0E0E" d="M95.8 182.2c-1.1-.8-1-2.5-.2-4.8-.2-1.3-.6-2.6-1.1-3.8-5.4 13-20.1 24.1-33.2 24.3 7 6.3 18.6 16.5 25.4 20.1 10.1 5.3 12 14.4 12.5 19.6.5 5.3 5.7 3.4 5.7 3.4 4.8-13.9-13.4-50.8-13.4-50.8 19.2 12.5 21.6 51.7 21.6 51.7 2.9 5.7 14.9 3.4 14.9 3.4v-68.7h-13c-3.4-.1-14.9 8.5-19.2 5.6z"/><path fill="#4E4A3F" d="M58.7 119c.3-2.2.5-4 .6-5.3C46.2 117 19 125.4.8 142.1c.3 3 .8 6 1.3 9 12.1-14.8 33.7-27.9 56.6-32.1z"/><path fill="#4E4A3F" d="M42.2 171.5c.4-6.2 1.7-11 1.7-11v.2c1.5-10.7 9.3-21.1 11.6-24 1-4.2 1.9-9.1 2.5-13.4-9.4 3.4-41.1 15.8-54.5 35.1 5 20.4 14.8 38.9 28.2 54.1-1.7-5.3-2.7-11-3-17.1-.4-11.4 5.5-18.9 13.5-23.9z"/><path fill="#39362D" d="M58.1 123.3c.2-1.5.4-3 .6-4.3-23 4.2-44.6 17.3-56.6 32.2.4 2.4 1 4.9 1.5 7.2 13.4-19.3 45.1-31.8 54.5-35.1z"/><path fill="#363539" d="M52.7 38.2c.4 2.2-6.3 3.3-13.2 4.7-3.2 8.9.9 14.4.9 14.4s-.3 0-.7.1c8.4.3 18.6 1.1 19.4 3.8.7 1.8-9.8 5.3-18.3 7.7-3.5 13.1 6.1 21.3 6.1 21.3 3.6-.5 7.6-.8 11.6-.8l1.1 22.7 3.7 1.6c.7-2.9 1.3-5.9 1.9-8.6-.5-3.8-.8-6.9 1.4-7.3.4-2.2.6-3.7.6-4v-.4c-2.4-1.7-1.9-8.8-1.6-12-1.2-9.3-2.4-20.9-1.2-24 1.9-5.3 11-9.1 20.1-22C93.4 22.3 128 22.7 128 22.7V12s-16.2 1.8-32.4-7.9C74.3 9.7 55.2 20.6 39.7 35.3c6.6.4 12.7 1.2 13 2.9z"/><path fill="#242427" d="M65.9 135c-4.1-1-6.9-1.6-6.9-1.6s-3.8-.5 0-6.7c1.5-2.4 3-7.5 4.3-13.1l-3.7-1.6s-.1.6-.2 1.7c-.1 1.2-.3 3.1-.6 5.3-.2 1.3-.4 2.8-.6 4.3-.6 4.3-1.5 9.2-2.5 13.4.4-.5.6-.8.6-.8 3.3-1 6.6-1.2 9.6-.9zm28.8 38.1c-.1.1-.1.3-.2.4.5 1.2.8 2.5 1.1 3.8 2.1-6.6 9.2-17.9 7.4-25.3-.4-1.5-1.6-3-3.4-4.4.3 6.3-.9 15.6-4.9 25.5zm-6.1-23.5c1.2-2.2 2.3-4.4 3.5-6.2-5.8-2.6-12.8-4.8-19-6.6 7.2 3.1 12.6 9 15.5 12.8z"/><path fill="#A89A62" d="M30.7 58.7c3.6-.5 7.5-1 9.1-1.2.4-.1.7-.1.7-.1s-4.1-5.5-.9-14.4c0 0-3.8.6-8.6 1.7-3.9 4.6-7.5 9.4-10.8 14.5 3.8.1 8.1-.2 10.5-.5zm-3.9 36.4c5.4-1.3 20.1-4.9 20.1-4.9s-9.6-8.2-6.1-21.3C24.8 75.2 9.9 84 5.3 91.3c-.5 1.6-1 3.3-1.4 5 .1.2.1.5.2.7 2.2 8 17.2-.7 22.7-1.9z"/><path fill="#4E0000" d="M68 97.7c.5-1.3 1-2.6 1-3.6v-.5c-.5 0-1 0-1.5-.2-.2-.1-.4-.2-.5-.3v.4c0 .3-.2 1.8-.6 4 .2 0 .5-.1.8 0 .3.1.6.2.8.2zm35.8 17c4.2 2-.3 6.3.2 9.7.6 4.5 3.2 17.9-3.2 22.7 0 0 1.3-5.8-2.2-7.4-3.5-1.6-5.4-10.8 1.6-9.9l.6-2.9s-5.7 1-5.7-3.8c0 0-21.1 1.9-25.5-7 0 0 .6 8-3.5 8.8-3.8-.8.3-6.2 0-13-.1-2.3-.5-4.8-.8-7-.5 2.8-1.2 5.7-1.9 8.6-1.3 5.6-2.9 10.7-4.3 13.1-3.8 6.2 0 6.7 0 6.7s2.8.6 6.9 1.6c2.6.3 5 .9 7.2 1.9 6.1 1.7 13.2 4 19 6.6 1.6-2.6 3.3-4.2 4.9-3.5 1.4.7 2.4 3.5 2.7 7.8 1.8 1.4 3.1 2.9 3.4 4.4 1.8 7.4-5.3 18.7-7.4 25.3-.8 2.3-.9 4.1.2 4.8 4.3 2.9 15.8-5.7 19.2-5.7h13v-76.1c-10 0-14.3 4-14.3 4s-5 6.3-10.1 10.3zm15.8 7.7c.6 3 1.6 20.9-1.6 20.9s-2.6-3.8-2.9-13.4-6.1-7-7.3-10.2c-1.3-3.2 5.1-4.2 5.1-4.2 5.5 1.9 6.1 3.8 6.7 6.9zM84.3 35.2c-9.1 12.9-18.2 16.8-20.1 22-1.1 3.1.1 14.7 1.2 24 .1-.9.2-1.5.2-1.5-2.9-8 3.8-25.2 3.8-25.2-1.9 9.9 4.2 18.2 4.2 18.2s-.3-6.7 2.8-7.7c3.1-1 1.1-6.7.1-11.5s5.7-13.7 5.7-13.7-2.6 13.7 2.2 14c4.8.3 7.3-15.6 7.3-15.6 7 18.8-9.6 38.3-9.6 38.3 12-2.2 16.8 5.5 21.9 12.2.5.6 1 1.1 1.5 1.6-.7-3.4-1-7.7-1-7.7C108.9 94.1 128 97 128 97V22.7s-34.6-.4-43.7 12.5z"/><path fill="#674E2C" d="M83.5 157.3c1.7-1.6 3.4-4.6 5.1-7.7-2.9-3.8-8.3-9.7-15.5-12.8-2.2-.9-4.6-1.6-7.2-1.9-3-.3-6.2-.1-9.6 1 0 0-.2.3-.6.8-2.3 2.9-10.1 13.3-11.6 24 2.7 14.1 34.6 1.1 39.4-3.4z"/><path fill="#A89A62" d="M94.5 173.6c.1-.1.1-.3.2-.4 4-9.9 5.3-19.2 4.9-25.4-.2-4.3-1.2-7.1-2.7-7.8-1.6-.7-3.2.9-4.9 3.5-1.1 1.8-2.3 4-3.5 6.2-1.6 3.1-3.3 6.1-5.1 7.7-4.8 4.4-36.7 17.4-39.5 3.4v-.2s-1.3 4.8-1.7 11c-.5 8.3.6 19.2 9.1 23.9 3.1 1.7 6.5 2.5 10.1 2.4 13-.2 27.7-11.3 33.1-24.3z"/><path fill="#240000" d="M104.4 82.6s.3 4.3 1 7.7c5.4 5 13.8 4.4 13.8 4.4 2.2 2.2 0 3.8 0 3.8s-6.1 4.2-16.3 4.2c-10.2.1-5.1-8.7-16.6-11.2-10-2.2-14 1.9-17.4 2.1v.5c0 1.1-.5 2.3-1 3.6 3.7.8 3.4 5.1 3.4 5.1s10.5 10.5 25.2 10.8c3.6.1 5.8.5 7.1 1.1 5.2-4.1 9.9-10.4 9.9-10.4s4.3-4 14.3-4V97c.2 0-18.9-2.9-23.4-14.4z"/><path fill="#A89A62" d="M69 93.6c3.4-.2 7.3-4.3 17.4-2.1 11.5 2.6 6.4 11.3 16.6 11.2 10.2-.1 16.3-4.2 16.3-4.2s2.2-1.6 0-3.8c0 0-8.5.5-13.8-4.4-.5-.5-1-1-1.5-1.6-5.1-6.7-9.9-14.4-21.7-12.1 0 0 16.6-19.5 9.6-38.3 0 0-2.6 16-7.3 15.6-4.8-.3-2.2-14-2.2-14s-6.7 8.9-5.7 13.7 3 10.5-.1 11.5-2.8 7.7-2.8 7.7-6.1-8.3-4.2-18.2c0 0-6.7 17.2-3.8 25.2 0 0-.1.6-.2 1.5-.3 3.1-.8 10.3 1.6 12 .2.1.3.2.5.3.4 0 .8.1 1.3 0zM66 125c4.2-.8 3.5-8.8 3.5-8.8 4.5 8.9 25.5 7 25.5 7 0 4.8 5.7 3.8 5.7 3.8l-.6 2.9c-7-1-5.1 8.3-1.6 9.9 3.5 1.6 2.2 7.4 2.2 7.4 6.4-4.8 3.8-18.2 3.2-22.7-.5-3.4 4-7.7-.2-9.7-1.3-.6-3.6-1.1-7.1-1.1-14.7-.3-25.2-10.8-25.2-10.8s.3-4.3-3.4-5.1c-.2 0-.5-.1-.7-.1h-.8c-2.1.4-1.9 3.5-1.4 7.3.3 2.2.7 4.7.8 7 .4 6.7-3.8 12.1.1 13zm41.8-5.3c1.3 3.2 7 .6 7.3 10.2s-.3 13.4 2.9 13.4 2.2-17.9 1.6-20.9-1.3-4.9-6.7-6.9c0 0-6.4 1-5.1 4.2z"/></svg>