<svg xmlns="http://www.w3.org/2000/svg" width="256" height="256"><circle fill="#B1B3B5" cx="128" cy="128" r="128"/><path fill="#35261E" d="M185.6 182.3c2.4 2.3 4.9 4.5 7.5 6.7 6.3 5.1 17.8 16.8 27.7 27.1 4.3-4.5 8.3-9.4 11.9-14.5-7.8-3.3-15.3-5.8-21.3-8-8.5-3.2-18.5-7.8-25.8-11.3z"/><path fill="#C08C76" d="M128 178.1v32.6s32.6-.8 43.4-24.7c-1.5-3.8-3.1-6.5-4.5-8.3-.7-.6-1.2-1.2-1.5-1.9-.5-.6-.9-.9-.9-.9v-4.1c-.3-4.9 0-11.9.3-16.6-3.3 4.8-7.1 10-10 14.9-5.4 9.3-26.8 9-26.8 9zm49.8-64.5l-1.9 4c-.8 6.5-1.8 12.9-2.8 17.9l1.2-.6c3.6-2.6 2.6-6 2.8-8.6.3-2.6 3-7.4 3-10.5s1.5-9.3 1.8-11.5 2.8-6 0-8.1c-1-.5-2-.7-3.1-.5-.2.7-1.8 5.9-1.8 7.9 0 2.1.8 10 .8 10z"/><path fill="#D7A990" d="M175.2 118.9s1.3-15.1-2.8-27.5-5.9-21.1-5.9-23.9-3.1-10.1-3.1-10.1 0-3.1-1.5-6.2c0 0-15.8-8.6-18.6-8.4l-1.3-2.2s-6.6.5-8.7 1.7c-2 1.2-5.4 1.4-5.4 1.4v134.4s21.4.3 26.9-8.9c2.9-4.9 6.7-10.1 10-14.9 2.9-4.2 5.3-8.2 6.3-11.3.5-1.7 1.1-4.3 1.8-7.4 1-5 2.1-11.4 2.8-17.9l-.5 1.2zm-19.6-33.5c4.4-.3 10.7 4.9 13.3 7.3 2.6 2.4 2.7 4.5 1.5 4.6-1.2.2-5.8-3.5-9.4-4.5-3.6-1-12.1-.2-18.5.6-6.5.8-6.5-4-6.5-4 3.9 0 15.1-3.7 19.6-4z"/><path fill="#44453A" d="M142.5 93.5c6.5-.8 15-1.6 18.5-.6 3.6 1 8.2 4.6 9.4 4.5 1.2-.2 1-2.2-1.5-4.6-2.6-2.4-8.8-7.7-13.3-7.3-4.4.3-15.7 4-19.6 4.2 0-.2 0 4.6 6.5 3.8z"/><path fill="#44453A" d="M128 43.7s3.3-.2 5.4-1.4c2-1.2 8.7-1.7 8.7-1.7l1.3 2.2c2.8-.2 18.6 8.4 18.6 8.4 1.5 3.1 1.5 6.2 1.5 6.2s3.1 7.2 3.1 10.1 1.8 11.5 5.9 23.9 2.8 27.5 2.8 27.5l.6-1.3 1.9-4s-.8-7.9-.8-10.1c0-2 1.6-7.3 1.8-7.9v-.1s.8-8.3 2.6-10.2c1.8-1.9-1.3-12.2-1.3-12.2s.3-10.3 0-13.7-2-8.4-3.1-11.7c-1-3.4 1.3-5.7 1.3-8.1s-1.8-6.4-1.3-8.1c.5-1.7-2.3-3.6-2.6-8.1s-5.4-4.8-6.9-5.7-5.1-1.2-5.4-2.6c-.3-1.4-4.6-2.4-6.9-3.6-2.3-1.2-4.1-1.9-6.1-3.6-2-1.7-4.1 4.8-7.7 0C138 3 128 5.1 128 5.1v38.6z"/><path fill="#2A2A28" d="M175 226.7c0-4.3 0-10.2.1-18 .1-9.9-1.6-17.4-3.7-22.8-10.8 23.8-43.4 24.7-43.4 24.7V256c16.5 0 32.3-3.1 46.9-8.8v-20.5h.1z"/><path fill="#423129" d="M193.2 189c-2.6-2.1-5.1-4.4-7.5-6.7-8.9-8.5-16-17.1-21.1-18.9v11.5l.9.9c.4.5.9 1.1 1.5 1.9 1.3 1.8 3 4.5 4.5 8.3 2.1 5.4 3.8 12.8 3.7 22.8-.1 7.8-.1 13.6-.1 18 6.1 3.4 13 6.9 20.1 10.3 9.5-5.8 18.1-12.9 25.8-20.9-10.1-10.5-21.6-22.1-27.8-27.2z"/><path fill="#24150C" d="M62.8 189c2.6-2.1 5.1-4.4 7.5-6.7-7.2 3.5-17.2 8.1-25.8 11.3-6 2.2-13.5 4.7-21.3 8 3.6 5.1 7.6 10 11.9 14.5 10-10.4 21.5-22 27.7-27.1z"/><path fill="#9A6D5D" d="M90.6 175.8c-.3.7-.9 1.3-1.5 1.9-1.3 1.8-3 4.5-4.5 8.3 10.8 23.8 43.4 24.7 43.4 24.7v-32.6s-21.4.3-26.9-8.9c-2.9-4.9-6.7-10.1-10-14.9.3 4.6.6 11.6.3 16.6v4.1c0-.1-.3.2-.8.8zm-12.4-62.2s.8-7.9.8-10.1c0-2-1.6-7.3-1.8-7.9-1-.2-2.1 0-3.1.5-2.8 2.1-.3 6 0 8.1.3 2.2 1.8 8.4 1.8 11.5s2.8 7.9 3 10.5c.3 2.6-.8 6 2.8 8.6.4.3.8.5 1.2.6-1-5-2.1-11.4-2.8-17.9l-1.9-3.9z"/><path fill="#C08C76" d="M128 178.1V43.7s-3.3-.2-5.4-1.4c-2-1.2-8.7-1.7-8.7-1.7l-1.3 2.2c-2.8-.2-18.6 8.4-18.6 8.4-1.5 3.1-1.5 6.2-1.5 6.2s-3.1 7.2-3.1 10.1-1.8 11.5-5.9 23.9-2.8 27.5-2.8 27.5l-.6-1.3c.8 6.5 1.8 12.9 2.8 17.9.6 3.1 1.2 5.7 1.8 7.4 1 3.1 3.4 7.1 6.3 11.3 3.3 4.8 7.1 10 10 14.9 5.6 9.3 27 9 27 9zM87.2 92.7c2.6-2.4 8.8-7.7 13.3-7.3 4.4.3 15.7 4 19.6 4.2 0 0 0 4.8-6.5 4-6.5-.8-15-1.6-18.5-.6-3.6 1-8.2 4.6-9.4 4.5-1.3-.3-1.1-2.4 1.5-4.8z"/><path fill="#32342A" d="M85.6 97.3c1.2.2 5.8-3.5 9.4-4.5 3.6-1 12.1-.2 18.5.6 6.5.8 6.5-4 6.5-4-3.9-.2-15.1-3.8-19.6-4.2-4.4-.3-10.7 4.9-13.3 7.3-2.5 2.6-2.7 4.7-1.5 4.8z"/><path fill="#32342A" d="M78.2 113.6l1.9 4 .6 1.3s-1.3-15.1 2.8-27.5 5.9-21.1 5.9-23.9 3.1-10.1 3.1-10.1 0-3.1 1.5-6.2c0 0 15.8-8.6 18.6-8.4l1.3-2.2s6.6.5 8.7 1.7c2 1.2 5.4 1.4 5.4 1.4V5.1s-10-2.2-13.5 2.6c-3.6 4.8-5.6-1.7-7.7 0-2 1.7-3.8 2.4-6.1 3.6-2.3 1.2-6.6 2.2-6.9 3.6-.3 1.4-3.8 1.7-5.4 2.6s-6.6 1.2-6.9 5.7-3.1 6.4-2.6 8.1c.5 1.7-1.3 5.7-1.3 8.1s2.3 4.8 1.3 8.1c-1 3.4-2.8 8.4-3.1 11.7s0 13.7 0 13.7-3.1 10.3-1.3 12.2c1.8 1.9 2.6 10.2 2.6 10.2v.1c.2.7 1.8 5.9 1.8 7.9.1 2.4-.7 10.3-.7 10.3z"/><path fill="#171614" d="M128 210.7s-32.6-.8-43.4-24.7c-2.1 5.4-3.8 12.8-3.7 22.8.1 7.8.1 13.6.1 18 0 0 .1 0 .1-.1v20.5c14.5 5.7 30.3 8.8 46.9 8.8v-45.3z"/><path fill="#35261E" d="M81 226.7c0-4.3 0-10.2-.1-18-.1-9.9 1.6-17.4 3.7-22.8 1.5-3.8 3.1-6.5 4.5-8.3.6-.8 1.1-1.5 1.5-1.9.5-.6.9-.9.9-.9v-11.5c-5.1 1.8-12.1 10.3-21.1 18.9-2.4 2.3-4.9 4.5-7.5 6.7-6.3 5.1-17.8 16.8-27.7 27.1 7.6 8 16.3 15.1 25.8 20.9 7-3.2 13.9-6.7 20-10.2z"/><path fill="#423129" d="M81 226.7c-6.1 3.4-13 6.9-20.1 10.3 6.4 3.9 13.1 7.3 20.2 10.1v-20.5c0 .1 0 .1-.1.1z"/><path fill="#4B3830" d="M175 226.7s-.1 0-.1-.1v20.5c7.1-2.8 13.8-6.2 20.2-10.1-7.1-3.3-14-6.8-20.1-10.3z"/></svg>