<svg xmlns="http://www.w3.org/2000/svg" width="256" height="256"><circle fill="#B1B3B5" cx="128" cy="128" r="128"/><path fill="#A2755F" d="M155.1 188.2c0-4.3-3.9-16-6.6-11.5-1.6 2.6-2.3 8.8-2.7 13.6 3-.3 6.1-.7 9.2-1.3.1-.2.1-.5.1-.8z"/><path fill="#A2755F" d="M147.1 148.7C140.5 157.6 128 160 128 160v31.2s6.8.2 15.3-.6c-1.3-8.9 3.4-19.5 6.1-23.9 2.5-4 7.5-13 9.9-19.9-1.1-3.7-2.1-7.7-2.9-11-3.1 4.8-6.4 9-9.3 12.9z"/><path fill="#996327" d="M224.9 211.6l4.2-5.1c-1.8.4-3 .6-3 .6-.3 1.6-.7 3.1-1.2 4.5zm13.5-39.3s-.4.3-1.2.8c-2.1 2-5.8 7.4-10.3 22.5 2.4 1 5.5 1.6 8.5 1.9 3.6-5.5 6.8-11.4 9.5-17.5-2.9-6.5-6.5-7.7-6.5-7.7z"/><path fill="#C8C1B2" d="M128 240.1v2.9c5.1-.1 15.7-.4 26.1-1.7l.2-2.9c-10.5 1.3-21.2 1.6-26.3 1.7zm27.4-22.3c-.2.4-.3.8-.5 1.3.1 0 .3 0 .4-.1l.1-1.2zM128 231.1v2.9c4.5-.1 13.5-.4 22.7-1.4-.2-.5-.4-.9-.6-1.4-.2-.4-.4-.9-.5-1.4-8.9 1-17.2 1.3-21.6 1.3zm0 4.4v3.2c5-.1 15.2-.4 25.3-1.7-.7-.9-1.3-1.9-1.9-2.9-9.5 1.1-18.7 1.3-23.4 1.4zm0 9v2.9c5-.1 15.6-.4 25.9-1.7l.2-2.9c-10.5 1.3-21 1.6-26.1 1.7zm27.2-24c-.2 0-.5.1-.7.1-.2.9-.2 1.9-.2 2.9.2 0 .5-.1.7-.1l.2-2.9zM128 253.3v2.7c8.7 0 17.3-.9 25.5-2.5l.1-1.8c-10.3 1.2-20.6 1.5-25.6 1.6zm0-26.6v2.9c4.3-.1 12.5-.3 21.2-1.2-.2-.9-.4-1.9-.5-2.9-8.5.9-16.5 1.2-20.7 1.2zm27-1.8c-.2 0-.4 0-.6.1.1.9.2 1.9.4 2.9l.2-3zm-27 24v2.9c5-.1 15.4-.4 25.7-1.7l.2-2.9c-10.4 1.3-20.9 1.6-25.9 1.7zm0-26.6v2.9c4.2-.1 12.1-.3 20.5-1.1-.1-.9-.2-1.9-.2-2.9-8.4.8-16.2 1.1-20.3 1.1zm0-9v2.9c4.1-.1 11.9-.3 20.3-1.1 0-1 .1-2 .1-2.9-8.4.8-16.2 1.1-20.4 1.1zm0 4.4v3.2c4.1-.1 11.9-.3 20.3-1.1v-3.2c-8.4.8-16.2 1.1-20.3 1.1zm0-8.8v2.9c4.2-.1 12-.3 20.5-1.1.1-1.1.1-2 .2-2.9-8.6.8-16.5 1.1-20.7 1.1zm0-4.3v2.9c4.2-.1 12.2-.3 20.8-1.2.1-1.3.2-2.3.2-2.8v-.1c-8.7.9-16.7 1.1-21 1.2zm0-9.1v2.9c4.7-.1 14.2-.4 23.8-1.5.5-1 1.1-2.1 1.5-3.1-2.6.3-5.2.6-7.7.8-.1 1.3-.1 2.1-.1 2.1-.4-.7-.8-1.3-1.1-2.1-6.8.7-12.9.9-16.4.9zm27-6.4c-3.1.6-6.2 1-9.2 1.3-.1 1-.1 2-.2 2.8 2.7-.2 5.5-.5 8.4-.9.5-1.1.9-2.3 1-3.2zm-27 10.8v3.2c4.3-.1 12.6-.3 21.4-1.2.4-.9.9-2.1 1.6-3.3-9.4 1-18.4 1.3-23 1.3zm0-8.7v2.9c3.4-.1 9.3-.2 15.9-.7-.3-.9-.5-1.8-.6-2.7-8.5.7-15.3.5-15.3.5z"/><path fill="#514F42" d="M128 195.5c3.5-.1 9.6-.2 16.5-.8-.2-.5-.4-.9-.5-1.4-6.7.5-12.5.7-15.9.7v1.5zm26-3.1c-2.8.4-5.6.6-8.4.9 0 .5-.1 1-.1 1.5 2.5-.2 5.1-.5 7.7-.8.4-.6.6-1.1.8-1.6zm-26 6.1v1.5c4.6-.1 13.6-.3 23-1.4.3-.5.5-1 .8-1.6-9.6 1.1-19.1 1.4-23.8 1.5zm0 6.1c4.3-.1 12.3-.3 21-1.1 0-.4.2-.9.4-1.5-8.8.9-17.1 1.1-21.4 1.2v1.4zm0 4.3c4.2-.1 12.1-.3 20.7-1.1 0-.5.1-1 .1-1.5-8.5.8-16.6 1.1-20.8 1.2v1.4zm0 4.4c4.2-.1 12-.3 20.4-1.1 0-.5.1-1 .1-1.5-8.4.8-16.3 1.1-20.5 1.1v1.5zm0 4.4c4.1-.1 11.9-.3 20.2-1.1v-1.5c-8.4.8-16.1 1-20.3 1.1v1.5zm0 4.6c4.1-.1 11.9-.3 20.3-1.1 0-.5 0-1-.1-1.5-8.3.8-16.1 1-20.3 1.1v1.5zm27.3-3.3c-.1 0-.3 0-.4.1-.1.5-.3 1-.4 1.5.2 0 .5-.1.7-.1l.1-1.5zm-.2 4.4c-.2 0-.5.1-.7.1 0 .5 0 1 .1 1.5.2 0 .4 0 .6-.1v-1.5zm-27.1 3.3c4.2-.1 12.2-.3 20.7-1.1-.1-.5-.1-1-.2-1.5-8.4.8-16.4 1.1-20.5 1.1v1.5zm0 4.4c4.4-.1 12.7-.3 21.6-1.2-.1-.5-.3-.9-.4-1.4-8.7.9-16.9 1.1-21.2 1.2v1.4zm26.8-3.3s0 .1 0 0zm-26.8 7.7c4.7-.1 13.9-.3 23.5-1.4-.3-.5-.5-.9-.7-1.4-9.3 1-18.2 1.3-22.7 1.4v1.4zm0 4.6c5.1-.1 15.8-.4 26.3-1.7v-.1c-.3-.4-.6-.8-.9-1.3-10.1 1.2-20.4 1.6-25.3 1.7v1.4zm0 4.4c5.1-.1 15.6-.4 26-1.7l.1-1.5c-10.4 1.3-21 1.7-26.1 1.7v1.5zm0 4.4c5-.1 15.5-.4 25.8-1.7l.1-1.5c-10.3 1.3-20.9 1.6-25.9 1.7v1.5zm0 4.4c5-.1 15.3-.4 25.6-1.7l.1-1.5c-10.3 1.3-20.7 1.6-25.7 1.7v1.5z"/><path fill="#86571F" d="M187.5 241.4c3.5-1.9 7-3.9 10.3-6.1-2.8-2.2-5.8-3.4-8.7-4.1l-1.6 10.2zm18.4-11.8c0-.1.1-.1 0 0 0-.1-.1-.1-.1-.1.1 0 .1 0 .1.1zm-.1-35.4s-3.4 12.5 2.7 19.4c0 0-8.6-7.7-8-14.6 0 0-7.7 8.6-6.4 12.2 1.4 3.6 14.3 11.7 14.3 11.7s13.3-6.2 12.3-14.4c-.8-8.1-14.9-14.3-14.9-14.3zm18-.9c.6 1 1.8 1.7 3.2 2.4 4.4-15 8.2-20.5 10.3-22.5 1.2-1.1 1.8-1.1 1.8-1.1-3.5-2.1-15.5-4.1-27.7-5.6 3 4.8 9.1 21.6 12.4 26.8z"/><path fill="#996327" d="M177.9 230.9l-.7 9.8c.7-9.8-20.7-24.7-20.7-24.7-.5.5-.8 1.1-1.1 1.8l-.1 1.2-.1 1.5-.2 2.9-.1 1.5-.2 2.9v.1c1.7 8.8 7.1 18.3 7.1 18.3s-4-3.2-7.7-7.9v.1l-.2 2.9-.1 1.5-.2 2.9-.1 1.5-.2 2.9-.1 1.5-.1 1.8c12-2.4 23.4-6.5 34-12.1l1.6-10.2c-5.7-1.3-10.8-.2-10.8-.2z"/><path fill="#CD9277" d="M163.1 92.2s-3.6 11.9-4.8 19.6c-.6 4.2.9 11 2.3 16.4.1-.2.2-.4.3-.5.7-14.5 2.2-35.5 2.2-35.5z"/><path fill="#CD9277" d="M128 129.7s1.4.3 2.7-1.1c2-1 4.5-.1 6 1.7 2.7 2.9 3 3.8 5.8 4.9 0 0-2.5 5.2-14.5 5.2v19.5s12.5-2.4 19.1-11.3c2.9-3.9 6.2-8.1 9.3-13 1.2-2 2.4-4 3.6-6.2-.8-1.8-1.8-4-2.8-6.5-3.4-8.1 0-23.5 3-35.9.4-1.7.7-3.5.8-5.3-.1.2-.3.3-.5.2-.6-.1-2.4.1-4 .3-1.2.2-2.2.3-2.2.3l1.1-1.3s-4.7 1-8 1.4c-3.3.5-8.4 1.9-8.2.6 0 0 0-2.9 2.3-4.6v1.6l3.5-2.6v1s5.3-1.8 7.1-1.9c1.8-.2 7.4.6 8.5 1.3.3.2.5.5.6.9.2-10.9-3.7-23-8.4-29.9-9.3-8.6-24.6-6.5-24.6-6.5v87.2z"/><path fill="#A66065" d="M142.5 135.3c-2.9-1.2-3.1-2.1-5.8-4.9-1.4-1.8-4-2.8-6-1.7-1.3 1.4-2.7 1.1-2.7 1.1v10.8c12-.1 14.5-5.3 14.5-5.3z"/><path fill="#493622" d="M160.4 78.3c-1.1-.6-6.7-1.4-8.5-1.3-1.8.2-7.1 1.9-7.1 1.9v-1l-3.5 2.6v-1.6c-2.3 1.8-2.3 4.6-2.3 4.6-.2 1.2 4.9-.2 8.2-.6 3.3-.5 8-1.4 8-1.4l-1.1 1.3s1-.2 2.2-.3c1.5-.2 3.4-.4 4-.3.2 0 .4-.1.5-.2.1-.9.1-1.8.1-2.7 0-.5-.2-.8-.5-1z"/><path fill="#32210E" d="M223.8 193.3c-3.3-5.1-9.4-21.9-12.5-26.9-.1-.2-.2-.3-.3-.4-3-4.3-7.5-10.3-7.3-18.9.2-8.6 5.2-15.6 3.2-25.6-2-10.1-10.7-40-16.4-53.2-5.7-13.2-9.6-28.7-14.3-34.2S151.8 1.2 128 11.2v31.7s15.3-2.2 24.6 6.5c4.7 6.9 8.6 19 8.4 29.9 0 .9 0 1.8-.1 2.7-.1 1.8-.4 3.6-.8 5.3-3 12.5-6.4 27.8-3 35.9 1 2.5 2 4.6 2.8 6.5.3.6.5 1.2.8 1.7-.2 4.5-.3 7.9-.2 9.3.1 1.6-.4 3.8-1.3 6.3-2.4 6.8-7.4 15.8-9.9 19.9-2.7 4.4-7.4 15.1-6.1 23.9.1.9.3 1.9.6 2.7.2.5.3 1 .5 1.4.3.7.7 1.4 1.1 2.1 0 0 0-.8.1-2.1 0-.4 0-.9.1-1.5 0-.9.1-1.8.2-2.8.4-4.8 1.1-11 2.7-13.6 2.7-4.6 6.6 7.2 6.6 11.5 0 .3 0 .5-.1.8-.1 1-.5 2.1-1 3.3-.2.5-.4 1-.7 1.6-.5 1-1 2.1-1.5 3.1-.3.5-.6 1.1-.8 1.6-.6 1.2-1.2 2.4-1.6 3.3-.2.6-.4 1.1-.4 1.5v.1c0 .5-.1 1.5-.2 2.8 0 .5-.1 1-.1 1.5-.1.9-.1 1.9-.2 2.9 0 .5-.1 1-.1 1.5 0 .9-.1 1.9-.1 2.9v4.7c0 .5 0 1 .1 1.5 0 1 .1 1.9.2 2.9.1.5.1 1 .2 1.5.1 1 .3 2 .5 2.9.1.5.2 1 .4 1.4.2.5.3 1 .5 1.4.2.5.4.9.6 1.4.2.5.5.9.7 1.4.6 1 1.2 2 1.9 2.9.3.4.6.9.9 1.3 3.6 4.7 7.7 7.9 7.7 7.9s-5.4-9.4-7.1-18.3v-.1c-.2-1-.3-1.9-.4-2.9 0-.5-.1-1-.1-1.5 0-1 0-2 .2-2.9.1-.5.2-1 .4-1.5.1-.4.3-.9.5-1.3.3-.6.7-1.2 1.1-1.8 0 0 21.4 14.8 20.7 24.7l.7-9.8s5.2-1.1 11.2.3c2.9.7 5.9 1.9 8.7 4.1 2.8-1.8 5.5-3.7 8.1-5.8 0 0 0-.1-.1-.1 0 0 .1 0 .2.1 6.9-5.3 13.2-11.3 18.9-17.9.5-1.4.9-2.9 1.2-4.5 0 0 1.2-.2 3-.6 2.3-2.9 4.4-5.9 6.4-9-3-.3-6.2-.9-8.5-1.9-1.6-.9-2.7-1.7-3.3-2.6zm-63.2-65.1c-1.5-5.3-3-12.2-2.3-16.4 1.1-7.7 4.8-19.6 4.8-19.6s-1.5 20.9-2.2 35.4c0 .4 0 .9-.1 1.3 0-.2-.1-.5-.2-.7zm48 94.8s-13-8.1-14.3-11.7c-1.4-3.6 6.4-12.2 6.4-12.2-.7 6.9 8 14.6 8 14.6-6.1-6.9-2.7-19.4-2.7-19.4s14.1 6.2 15.1 14.4c.8 8-12.5 14.3-12.5 14.3z"/><path fill="#8A6450" d="M107.5 176.7c-2.7-4.6-6.6 7.2-6.6 11.5 0 .3 0 .5.1.8 3.1.6 6.2 1 9.2 1.3-.4-4.8-1.2-11-2.7-13.6z"/><path fill="#8A6450" d="M128 191.2V160s-12.5-2.4-19.1-11.3c-2.9-3.9-6.2-8.1-9.3-13-.8 3.3-1.8 7.3-2.9 11 2.4 6.8 7.4 15.8 9.9 19.9 2.7 4.4 7.4 15.1 6.1 23.9 8.5.9 15.3.7 15.3.7z"/><path fill="#86571F" d="M26.9 206.5c1.4 1.7 2.8 3.5 4.2 5.1-.5-1.4-.9-2.9-1.2-4.5 0 0-1.2-.2-3-.6zm-8.1-33.4c-.8-.5-1.2-.8-1.2-.8S14 173.5 11 180c2.7 6.1 5.9 11.9 9.5 17.5 3-.3 6.2-.9 8.5-1.9-4.4-15-8.1-20.5-10.2-22.5z"/><path fill="#A39E93" d="M101.6 225c-.2 0-.4 0-.6-.1l.2 2.9c.2-.9.3-1.9.4-2.8zm26.4-7.3c-4.1-.1-11.9-.3-20.2-1.1v3.2c8.3.8 16.1 1 20.3 1.1v-3.2zm0-15.6v-2.2c-4.6-.1-13.6-.3-23-1.4.6 1.2 1.2 2.4 1.6 3.3 8.8.9 17.1 1.1 21.4 1.2v-.9zm0 2.5c-4.3-.1-12.3-.3-21-1.1v.1c0 .5.1 1.5.2 2.8 8.5.8 16.6 1.1 20.8 1.2v-3zm-27.4 13.2l.1 1.2c.1 0 .3 0 .4.1-.1-.5-.3-.9-.5-1.3zm27.4 4.5c-4.1-.1-11.9-.3-20.3-1.1 0 1-.1 1.9-.2 2.9 8.4.8 16.4 1.1 20.5 1.1v-2.9zm0-9c-4.2-.1-12-.3-20.4-1.1 0 .9.1 1.9.1 2.9 8.4.8 16.1 1 20.3 1.1v-2.9zm0-4.4c-4.2-.1-12.1-.3-20.7-1.1.1.9.1 1.9.2 2.9 8.4.8 16.3 1.1 20.5 1.1v-2.9zm0 40c-5-.1-15.5-.4-25.8-1.7l.2 2.9c10.3 1.3 20.7 1.6 25.7 1.7v-2.9zm0-22.2c-4.2-.1-12.2-.3-20.7-1.1-.1 1-.3 2-.5 2.9 8.7.9 16.9 1.1 21.2 1.2v-3zm0 13.4c-5.1-.1-15.8-.4-26.3-1.7l.2 2.9c10.4 1.3 21 1.7 26.1 1.7v-2.9zm0-4.6c-4.7-.1-13.9-.3-23.5-1.4-.6 1-1.2 2-1.9 2.9 10.1 1.2 20.4 1.6 25.3 1.7v-3.2zm0 9c-5.1-.1-15.6-.4-26-1.7l.2 2.9c10.3 1.3 20.9 1.6 25.9 1.7v-2.9zm0-13.4c-4.4-.1-12.7-.3-21.6-1.2-.2.5-.3 1-.5 1.4-.2.5-.4.9-.6 1.4 9.3 1 18.2 1.3 22.7 1.4v-3zm-26.5-10.5c-.2 0-.5-.1-.7-.1l.2 2.9c.2 0 .5.1.7.1 0-1-.1-2-.2-2.9zm.9 31l.1 1.8c8.2 1.7 16.8 2.5 25.5 2.5v-2.7c-5 0-15.3-.3-25.6-1.6zm7.7-61.2c-3-.3-6.1-.7-9.2-1.3.1 1 .5 2.1 1 3.3 2.8.4 5.6.6 8.4.9 0-.9-.1-1.9-.2-2.9zm17.9.8s-6.8.2-15.3-.6c-.1.9-.3 1.9-.6 2.7 6.7.5 12.5.7 15.9.7v-2.8zm0 7.3v-2.9c-3.5-.1-9.6-.2-16.5-.8-.3.7-.7 1.4-1.1 2.1 0 0 0-.8-.1-2.1-2.5-.2-5.1-.5-7.7-.8.5 1 1 2.1 1.5 3.1 9.7 1 19.2 1.3 23.9 1.4z"/><path fill="#3B3A2F" d="M110.3 193.2c-2.7-.2-5.5-.5-8.4-.9.2.5.4 1 .7 1.6 2.6.3 5.2.6 7.7.8.1-.4.1-.9 0-1.5zm17.7 2.3v-1.4c-3.4-.1-9.3-.2-15.9-.7-.2.5-.3 1-.5 1.4 6.8.5 12.9.7 16.4.7zm0 4.4v-1.5c-4.7-.1-14.2-.4-23.8-1.5.3.5.6 1.1.8 1.6 9.4 1.1 18.4 1.4 23 1.4zm0 4.7v-1.4c-4.3-.1-12.6-.3-21.4-1.2.2.6.4 1.1.4 1.5 8.7.8 16.7 1 21 1.1zm0 4.3v-1.4c-4.2-.1-12.2-.3-20.8-1.2 0 .5.1 1 .1 1.5 8.6.8 16.5 1.1 20.7 1.1zm0 4.4v-1.4c-4.2-.1-12-.3-20.5-1.1 0 .5.1 1 .1 1.5 8.4.7 16.2 1 20.4 1zm0 4.4v-1.4c-4.1-.1-11.9-.3-20.3-1.1v1.5c8.4.7 16.2 1 20.3 1zm0 4.6v-1.4c-4.1-.1-11.9-.3-20.3-1.1 0 .5 0 1-.1 1.5 8.5.7 16.3 1 20.4 1zm-26.9-3.2c-.1 0-.3 0-.4-.1l.1 1.5c.2 0 .5.1.7.1-.1-.6-.2-1.1-.4-1.5zm26.9 7.6v-1.5c-4.2-.1-12.1-.3-20.5-1.1-.1.5-.1 1-.2 1.5 8.5.8 16.5 1.1 20.7 1.1zm-26.3-3.2c-.2 0-.5-.1-.7-.1l.1 1.5c.2 0 .4 0 .6.1-.1-.5 0-1 0-1.5zm26.3 7.6v-1.5c-4.3-.1-12.5-.3-21.2-1.2-.1.5-.2 1-.4 1.4 8.9 1 17.2 1.3 21.6 1.3zm-26.8-3.3c0 .1 0 0 0 0zm26.8 7.7V234c-4.5-.1-13.5-.4-22.7-1.4-.2.5-.5.9-.7 1.4 9.5 1.2 18.7 1.4 23.4 1.5zm0 4.6v-1.5c-5-.1-15.2-.4-25.3-1.7-.3.4-.6.9-.9 1.3v.1c10.4 1.4 21.1 1.7 26.2 1.8zm0 4.4V243c-5.1-.1-15.7-.4-26.1-1.7l.1 1.5c10.4 1.3 20.9 1.6 26 1.7zm0 4.4v-1.5c-5-.1-15.6-.4-25.9-1.7l.1 1.5c10.3 1.3 20.8 1.6 25.8 1.7zm-25.7 1.3l.1 1.5c10.3 1.3 20.6 1.6 25.6 1.7v-1.5c-5-.1-15.4-.5-25.7-1.7z"/><path fill="#67410F" d="M50 229.5s.1 0 0 0c.1 0 .1 0 .2-.1 0 0-.1 0-.2.1zm-2.6-15.9c6.1-6.9 2.7-19.4 2.7-19.4S36 200.4 35 208.6c-1 8.1 12.3 14.4 12.3 14.4s13-8.1 14.3-11.7c1.4-3.6-6.4-12.2-6.4-12.2.9 6.8-7.8 14.5-7.8 14.5zm10.8 21.7c3.3 2.2 6.8 4.2 10.3 6.1l-1.6-10.2c-2.8.7-5.9 1.9-8.7 4.1zM29 195.6c1.4-.6 2.5-1.4 3.2-2.4 3.3-5.1 9.4-21.9 12.5-26.9-12.2 1.5-24.2 3.5-27.7 5.6 0 0 .7 0 1.8 1.1 2.1 2.1 5.8 7.6 10.2 22.6z"/><path fill="#86571F" d="M102.3 250.2l-.2-2.9-.1-1.5-.2-2.9-.1-1.5-.2-2.9v-.1c-3.6 4.7-7.7 7.9-7.7 7.9s5.4-9.4 7.1-18.3v-.1l-.2-2.9-.1-1.5-.2-2.9-.1-1.5-.1-1.2c-.3-.6-.7-1.2-1.1-1.8 0 0-21.4 14.8-20.7 24.7l-.7-9.8s-5.2-1.1-11.2.3l1.6 10.2c10.5 5.5 21.9 9.7 34 12.1l-.1-1.8.3-1.6z"/><path fill="#A2755F" d="M103.4 49.3c-4.7 6.9-8.6 19-8.4 29.9.1-.4.3-.8.6-.9 1.1-.6 6.7-1.4 8.5-1.3 1.8.2 7.1 1.9 7.1 1.9v-1l3.5 2.6v-1.6c2.3 1.8 2.3 4.6 2.3 4.6.2 1.2-4.9-.2-8.2-.6-3.3-.5-8-1.4-8-1.4l1.1 1.3s-1-.2-2.2-.3c-1.5-.2-3.4-.4-4-.3-.2 0-.4-.1-.5-.2.1 1.8.4 3.6.8 5.3 3 12.5 6.4 27.8 3 35.9-1 2.5-2 4.6-2.8 6.5 1.1 2.2 2.3 4.3 3.6 6.2 3.1 4.9 6.4 9 9.3 13 6.6 8.9 19.1 11.3 19.1 11.3v-19.5c-12 0-14.5-5.2-14.5-5.2 2.9-1.2 3.1-2.1 5.8-4.9 1.4-1.8 4-2.8 6-1.7 1.3 1.4 2.7 1.1 2.7 1.1V42.9c-.2 0-15.5-2.2-24.8 6.4z"/><path fill="#A2755F" d="M95.1 127.7c.1.2.2.4.3.5 1.5-5.3 3-12.2 2.3-16.4-1.1-7.7-4.8-19.6-4.8-19.6s1.5 21 2.2 35.5z"/><path fill="#8C5055" d="M125.3 128.7c-2-1-4.5-.1-6 1.7-2.7 2.9-3 3.8-5.8 4.9 0 0 2.5 5.2 14.5 5.2v-10.8s-1.4.3-2.7-1z"/><path fill="#32210E" d="M95.6 82.1c.6-.1 2.4.1 4 .3 1.2.2 2.2.3 2.2.3l-1.1-1.3s4.7 1 8 1.4c3.3.5 8.4 1.9 8.2.6 0 0 0-2.9-2.3-4.6v1.6l-3.5-2.6v1s-5.3-1.8-7.1-1.9c-1.8-.2-7.4.6-8.5 1.3-.3.2-.5.5-.6.9 0 .9 0 1.8.1 2.7.2.3.4.4.6.3z"/><path fill="#1C0B00" d="M78.1 230.9l.7 9.8c-.7-9.8 20.7-24.7 20.7-24.7.5.5.8 1.1 1.1 1.8.2.4.3.8.5 1.3.1.5.3 1 .4 1.5.2.9.2 1.9.2 2.9 0 .5 0 1-.1 1.5-.1.9-.2 1.9-.4 2.9v.1c-1.7 8.8-7.1 18.3-7.1 18.3s4-3.2 7.7-7.9c.3-.4.6-.8.9-1.3.7-.9 1.3-1.9 1.9-2.9.3-.5.5-.9.7-1.4.2-.5.4-.9.6-1.4.2-.4.4-.9.5-1.4.1-.5.3-.9.4-1.4.2-.9.4-1.9.5-2.9.1-.5.1-1 .2-1.5.1-.9.2-1.9.2-2.9 0-.5 0-1 .1-1.5v-4.7c0-1-.1-2-.1-2.9 0-.5-.1-1-.1-1.5-.1-1.1-.1-2-.2-2.9 0-.5-.1-1-.1-1.5-.1-1.3-.2-2.3-.2-2.8v-.1c0-.4-.2-.9-.4-1.5-.4-.9-.9-2.1-1.6-3.3-.3-.5-.5-1-.8-1.6-.5-1-1.1-2.1-1.5-3.1-.2-.5-.5-1-.7-1.6-.5-1.2-.9-2.3-1-3.3 0-.3-.1-.6-.1-.8 0-4.3 3.9-16 6.6-11.5 1.6 2.6 2.3 8.8 2.7 13.6.1 1 .1 2 .2 2.8 0 .5.1 1 .1 1.5.1 1.3.1 2.1.1 2.1.4-.7.8-1.3 1.1-2.1.2-.5.4-.9.5-1.4.3-.9.5-1.8.6-2.7 1.3-8.9-3.4-19.5-6.1-23.9-2.5-4-7.5-13-9.9-19.9-.9-2.5-1.4-4.7-1.3-6.3.1-1.4 0-4.8-.2-9.3.2-.5.5-1.1.8-1.7.8-1.8 1.8-4 2.8-6.5 3.4-8.1 0-23.5-3-35.9-.4-1.7-.7-3.5-.8-5.3-.2-.7-.2-1.6-.2-2.5-.2-10.9 3.7-23 8.4-29.9 9.3-8.6 24.6-6.5 24.6-6.5V11.2C104.2 1.2 84.5 28.5 79.7 34s-8.6 21.1-14.3 34.2c-5.7 13.2-14.3 43.1-16.4 53.2-2 10.1 3 17 3.2 25.6.2 8.6-4.3 14.6-7.3 18.9-.1.1-.2.3-.3.4-3.1 5-9.1 21.8-12.5 26.9-.6 1-1.8 1.7-3.2 2.4-2.4 1-5.5 1.6-8.5 1.9 2 3.1 4.2 6.1 6.4 9 1.8.4 3 .6 3 .6.3 1.6.7 3.1 1.2 4.5 5.7 6.6 12 12.6 18.9 17.9.1-.1.2-.1.2-.1s0 .1-.1.1c2.6 2 5.3 3.9 8.1 5.8 2.8-2.2 5.8-3.4 8.7-4.1 6.2-1.4 11.3-.3 11.3-.3zm19.6-119.1c.6 4.2-.9 11-2.3 16.4-.1.2-.1.5-.2.7 0-.4 0-.9-.1-1.3-.7-14.5-2.2-35.4-2.2-35.4s3.7 12 4.8 19.6zm-35.9 99.4c-1.4 3.6-14.3 11.7-14.3 11.7s-13.3-6.2-12.3-14.4c1-8.1 15.1-14.4 15.1-14.4s3.4 12.5-2.7 19.4c0 0 8.6-7.7 8-14.6-.2.1 7.5 8.7 6.2 12.3z"/></svg>