<svg xmlns="http://www.w3.org/2000/svg" width="256" height="256"><circle fill="#B1B3B5" cx="128" cy="128" r="128"/><path fill="#111314" d="M161.2 157.8c.8 3.8 1.7 7.7 2.8 11.4 2.9-3.4 5.1-6.6 6-8.8 0 0 0 .1.1.1l-.3-3.8c-1.7-.6-3.7-1.5-6.2-2.8l-2.4 3.9z"/><path fill="#C08C76" d="M164 169.1c-1-3.7-2-7.5-2.8-11.4-5.4 8.6-10.9 16.5-10.9 16.5l-2.3-1.3.4-2.3c-4.9 5.5-17.2 4.6-20 4.3v34.5c1.5-.1 6-.7 11.5-2.9.7-4.2 3.1-15.4 9.1-21.4 4.5-4.5 10.5-10.6 15-16z"/><path fill="#1E2122" d="M128.3 51.6c1.9-.1 8.4-.6 13.1-1.2 4.5-.6 24.4-6.6 31.5-8.8 1-1.9 2.2-4.3 3.7-7.2-.2-.5-.3-.9-.5-1.3-2-5.6-18.1-12.8-20.8-15.9-2.7-3-9.1-.7-13.1-4.7-3.6-3.6-12.5-2.4-14.2-2.1.2 0 .3.1.3.1v41.1zM179.4 83c1.5.5 2.7 1.7 3 4.3.7 7-.5 27.7-7.5 31.5v.1l-.3.4c-1.4 9.7-3 18.4-4.5 22.3-1.3 3.3-3.8 7.8-6.6 12.4 2.4 1.3 4.5 2.2 6.2 2.8 6.4 2.3 8 .7 8 .7-5.4-.1-3-6.3-5-9.3-2-3 8.1 6 10.7 6 2.7 0-2-7.7 3.7-9.3s-2.7-8.8 0-8.8-.3-7 1.9-6.4c2.2.7 2.5-8.4 1.6-10.7-.9-2.3-4.5-14.4-1.6-19.5 2.9-5 1.8-17.1-2.5-20.8-2.8-2.4-3.1-7-3-11.5-1.1 3.7-2.3 7.6-3.1 10.4-.3 1.1-.6 3-1 5.4z"/><path fill="#C08C76" d="M182.4 87.3c-.2-2.6-1.5-3.8-3-4.3-1.2 7.8-2.7 21.6-4.5 34l-.1 1.8c7.1-3.8 8.3-24.5 7.6-31.5z"/><path fill="#D7A990" d="M128.3 166.2v8.8c2.8.3 15.1 1.2 20-4.3l4.9-32s.3-.2.9-.7l-.1-.6s4.3-5.3 7.8-9.8c3.5-4.5 8.1-12.6 8.3-21.7.2-6.4-2.4-16.9-3.9-22.7L139.4 90l-11.1 5.7v70.5zm12-71.8c6-3 21.1-1 22.5 0 1.3 1-.7 5.4-6.7 3.4-6-2-20.1 1.7-20.1 1.7s-1.7-2.1 4.3-5.1z"/><path fill="#452C27" d="M174.9 118.8l.1-1.8c-.1.8-.2 1.5-.3 2.3l.2-.5zm-4.8-12.7c-.3 9.1-4.8 17.1-8.3 21.7-3.5 4.5-7.8 9.8-7.8 9.8l.1.6c2.6-2.2 10.9-9.5 15.5-18.9l3.3-22.9-3.8-13.6-2.9.7c1.5 5.6 4.1 16.2 3.9 22.6z"/><path fill="#8D884A" d="M128.3 51.6v12.6l7.7-4.4 2.3-2.7 15.8-6.9.7 1.2c.3-.1.4-.2.4-.2s-.1.2-.2.5l.2.3-11.1 34.4-5.7 2.2-5.5 3.2-4.6 2.2v1.9l11.1-5.7 26.8-6.8 2.9-.7 2.4-1 2.7 13.6L171 119s-1 7.6-15.7 20.8l-5 34.6s5.5-7.9 10.9-16.5c.8-1.3 1.6-2.5 2.3-3.8 2.7-4.6 5.2-9.1 6.6-12.4 1.6-3.9 3.1-12.5 4.5-22.3.1-.7.2-1.5.3-2.3 1.8-12.4 3.3-26.2 4.5-34 .4-2.4.7-4.3 1-5.4.8-2.9 1.9-6.7 3.1-10.4.1-.5.3-.9.4-1.3-7.7 5.7-14.5 6.4-14.5 6.4s-.5 5.5-3.4 7-16.6 3.2-16.6 3.2 1.7-21.7 13.6-34.2l7.6-2.3s.8-1.6 2.3-4.3c-7.1 2.2-26.9 8.2-31.5 8.8-4.7.5-11.2.9-13.1 1zm30.7 109l-7 9.4 3.8-18.9 7.3-6.3-4.1 15.8z"/><path fill="#6A6F54" d="M128.3 79.6v14.5l4.6-2.2 5.5-3.2 5.7-2.2 11.1-34.4-.2-.3c-1.8 4.1-14.3 32.8-15.9 35.8-1.7 3.2-9.4 4.2-9.4 4.2l10.1-33.4c3.6-2.5 12.9-6.1 15-6.9l-.7-1.2-15.8 6.9-2.3 2.7-7.7 4.4v15.3z"/><path fill="#14292A" d="M129.7 91.7s7.7-1 9.4-4.2c1.6-3 14.1-31.7 15.9-35.8.1-.3.2-.5.2-.5l-.4.2c-2.1.8-11.4 4.4-15 6.9l-10.1 33.4z"/><path fill="#71613B" d="M172.9 41.6c-1.4 2.7-2.3 4.3-2.3 4.3l-7.6 2.3c-11.9 12.6-13.6 34.2-13.6 34.2s13.8-1.7 16.6-3.2c2.9-1.5 3.4-7 3.4-7s6.7-.7 14.5-6.4c2.9-2.1 5.8-4.9 8.7-8.5 4.8-6.1 9.6-16.8 14.1-30.2l-.2-.2c-11.9 30.4-21.1 42.3-40 44.6 0 0 20.2-28.6 31.8-50.5-2.9-1.9-5.9-3.7-9-5.4-1.5 4.7-3 9-4.4 12.4-6.5 16.4-18.6 32.2-18.6 32.2l9.8-9s-8.3 20.3-25.4 29.6c0 0 6.5-20.9 9.8-22.4 3.3-1.5 14.1-16.9 16.6-22.7 1.1-2.5 5-11.1 9.5-21.6l-.6-.3c-3.4 7.8-6.8 15-9.5 20.5-1.4 3-2.7 5.4-3.6 7.3z"/><path fill="#293028" d="M160.5 58.5c-3.3 1.5-9.8 22.4-9.8 22.4 17.1-9.3 25.4-29.6 25.4-29.6l-9.8 9s12.1-15.9 18.6-32.2c1.3-3.4 2.8-7.7 4.4-12.4-.9-.5-1.8-1-2.7-1.4-4.4 10.5-8.4 19.1-9.5 21.6-2.5 5.7-13.3 21.1-16.6 22.6z"/><path fill="#53462E" d="M166.5 71.5c18.9-2.3 28.2-14.2 40-44.6-2.7-2.1-5.4-4-8.2-5.9-11.7 21.9-31.8 50.5-31.8 50.5z"/><path fill="#14292A" d="M163 144.8l-7.3 6.3-3.8 18.9 7.1-9.4z"/><path fill="#4C3D35" d="M156.1 97.8c6 2 8.1-2.3 6.7-3.4-1.3-1-16.4-3-22.5 0-6 3-4.4 5-4.4 5s14.1-3.7 20.2-1.6z"/><path fill="#B7AF65" d="M169.6 119.2c-4.7 9.4-12.9 16.7-15.5 18.9-.5.4-.9.7-.9.7l-4.9 32-.4 2.3 2.3 1.3 5-34.6c14.8-13.3 15.7-20.8 15.7-20.8l3.2-23.7-2.7-13.6-2.4 1 3.8 13.6-3.2 22.9z"/><path fill="#455154" d="M164 169.1c-4.5 5.4-10.4 11.4-15 16-6 6-8.4 17.2-9.1 21.4 5.4-2.1 11.7-5.7 17.2-11.9 6.2-6.9 10.3-11.3 12.9-14-2.3-1.5-3.8-2.5-3.8-2.5l-1-1.8 7.5-10.3c-1.2-2.7-2.3-4.9-2.6-5.5 0-.1-.1-.1-.1-.1-.9 2.2-3.2 5.3-6 8.7z"/><path fill="#383C41" d="M205.6 207.7l1.1-.9c-4-3.2-10-8.6-14.6-11.6-4.3-2.8-16.2-10.5-22.3-14.6-2.6 2.7-6.7 7.1-12.9 14-5.5 6.2-11.9 9.8-17.2 11.9-5.5 2.2-10 2.7-11.5 2.9v18.4c.1 0 .1-.1.2-.1 2.2-1.1 8.7-4.5 10.7-6.7l4 7s-9.3 8.3-14.9 8.9V256c32.4-.1 62-12.2 84.5-32.1-1.3-4.9-2.5-9.5-3.6-13.5l-3.5-2.7z"/><path fill="#292D32" d="M212.8 223.9c2.2-1.9 4.3-3.9 6.3-5.9l-9.9-7.5c1.1 3.9 2.3 8.4 3.6 13.4z"/><path fill="#465051" d="M216.1 208.5c-3.1.6-5.5.8-6.3.3-.8-.4-1.8-1.1-3-2.1l-1.1.9 3.5 2.7 9.9 7.5c1.2-1.3 2.5-2.5 3.7-3.8l-6.6-5.2v-.3z"/><path fill="#292D32" d="M214.4 206.1c-6.8 2.5-8.4-1.8-13.7-6.5-7.4-6.5-35.6-23.3-35.6-23.3l1 1.8s1.5 1 3.8 2.5c6.1 4 18 11.7 22.3 14.6 4.6 3 10.6 8.4 14.6 11.6 1.2.9 2.2 1.7 3 2.1.8.4 3.2.2 6.3-.3v-2.4c1.8-.4 9.8-2.6 16.6-4.4.3-.5.6-.9 1-1.4-6.6 1.7-15.3 4.2-19.3 5.7z"/><path fill="#535C5E" d="M172.6 166l-7.5 10.3s28.2 16.8 35.6 23.3c5.3 4.7 6.9 9 13.7 6.5 4-1.5 12.7-4 19.2-5.8 3.1-4.6 6-9.4 8.5-14.3-9.5-3.7-46.4-17.4-69.5-20z"/><path fill="#4A4648" d="M216.1 206.1v2.8l6.6 5.2c.6-.6 1.1-1.2 1.7-1.9l-.6.2-7.7-6.3z"/><path fill="#6D6669" d="M223.8 212.4l.6-.2c2.9-3.4 5.7-6.9 8.3-10.5-6.8 1.8-14.8 4-16.6 4.4l7.7 6.3z"/><path fill="#111314" d="M92 169.1c1-3.7 2-7.5 2.8-11.4-.8-1.3-1.6-2.5-2.3-3.8-2.4 1.3-4.5 2.2-6.2 2.8l-.3 3.8c0-.1.1-.1.1-.1.8 2.2 3.1 5.3 5.9 8.7z"/><path fill="#9C7360" d="M128.3 175s-15 2-20.6-4.2l.4 2.3-2.3 1.3s-5.5-7.9-10.9-16.5c-.8 3.8-1.7 7.7-2.8 11.4 4.5 5.4 10.4 11.4 15 16 6 6 8.4 17.2 9.1 21.4 6.8 2.7 12.1 2.9 12.1 2.9V175z"/><path fill="#161A1B" d="M128.3 51.7V10.5s-.1 0-.3-.1c-1.7-.3-10.5-1.6-14.2 2.1-4 4-10.4 1.7-13.1 4.7-2.6 3-18.7 10.2-20.8 15.8-.1.4-.3.9-.5 1.3 1.4 2.9 2.7 5.3 3.7 7.2 7.1 2.2 26.9 8.2 31.5 8.8 5.5.9 13.7 1.4 13.7 1.4zm-42.4 89.9c-1.6-3.9-3.1-12.5-4.5-22.3l-.3-.4v-.1c-7.1-3.8-8.2-24.5-7.5-31.5.2-2.6 1.5-3.8 3-4.3-.4-2.4-.7-4.3-1-5.4-.8-2.9-1.9-6.7-3.1-10.4.1 4.4-.1 9.1-3 11.5-4.4 3.7-5.4 15.8-2.5 20.8 2.9 5-.7 17.1-1.6 19.5-.9 2.3-.6 11.4 1.6 10.7 2.2-.7-.8 6.4 1.9 6.4s-5.7 7.2 0 8.8 1 9.3 3.7 9.3 12.8-9.1 10.7-6c-2 3 .3 9.2-5 9.3 0 0 1.6 1.6 8-.7 1.7-.6 3.7-1.5 6.2-2.8-2.8-4.6-5.2-9.1-6.6-12.4z"/><path fill="#9C7360" d="M76.6 83c-1.5.5-2.7 1.7-3 4.3-.7 7 .5 27.7 7.5 31.5L81 117c-1.7-12.4-3.3-26.2-4.4-34z"/><path fill="#C08C76" d="M85.9 106.1c.3 9.1 4.8 17.1 8.3 21.7 3.5 4.5 7.8 9.8 7.8 9.8l-.1.6c.5.4.9.7.9.7l4.9 32c5.6 6.2 20.6 4.2 20.6 4.2V96.2l-11.7-6-26.8-6.8c-1.5 5.7-4.1 16.3-3.9 22.7zm7.3-11.7c1.3-1 16.4-3 22.5 0 6 3 4.4 5 4.4 5S106 95.7 100 97.7c-6.1 2.1-8.1-2.3-6.8-3.3z"/><path fill="#3D2520" d="M81.1 117l.1 1.8v.1l.3.4c-.2-.8-.3-1.5-.4-2.3zm5.3 2.2c4.7 9.4 12.9 16.7 15.5 18.9l.1-.6s-4.3-5.3-7.8-9.8c-3.5-4.5-8.1-12.6-8.3-21.7-.2-6.4 2.4-16.9 3.9-22.7l-2.9-.7-3.8 13.6 3.3 23z"/><path fill="#7F7B42" d="M76.6 83c1.2 7.8 2.7 21.6 4.5 34 .1.8.2 1.5.3 2.3 1.4 9.7 3 18.4 4.5 22.3 1.3 3.3 3.8 7.8 6.6 12.4.8 1.3 1.5 2.5 2.3 3.8 5.4 8.6 10.9 16.5 10.9 16.5l-5-34.6C86 126.5 85 118.9 85 118.9l-3.2-23.7 2.7-13.6 2.4 1 2.9.7 26.8 6.8 11.7 6v-1.9l-5.2-2.5-5.5-3.2-5.7-2.2-11.1-34.4.2-.3c-.1-.3-.2-.5-.2-.5l.4.2.7-1.2 15.8 6.9 2.3 2.7 8.2 4.7V51.6s-8.1-.5-13.7-1.3c-4.5-.6-24.4-6.6-31.5-8.8 1.4 2.7 2.3 4.3 2.3 4.3l7.6 2.3c11.9 12.6 13.6 34.2 13.6 34.2s-13.8-1.7-16.6-3.2c-2.9-1.5-3.4-7-3.4-7s-6.7-.7-14.5-6.4c.1.4.3.9.4 1.3 1.1 3.7 2.3 7.6 3.1 10.4.4 1.3.7 3.2 1.1 5.6zm27.5 87l-7-9.4-4-15.7 7.3 6.3 3.7 18.8z"/><path fill="#63684E" d="M128.3 79.6V64.5l-8.2-4.7-2.3-2.7-15.8-6.9-.7 1.2c2.1.8 11.4 4.4 15 6.9l10.1 33.4s-7.7-1-9.4-4.2c-1.6-3-14.1-31.7-15.9-35.8l-.2.3L112 86.4l5.7 2.2 5.5 3.2 5.2 2.5V79.6z"/><path fill="#071D1E" d="M116.9 87.5c1.7 3.2 9.4 4.2 9.4 4.2l-10.1-33.4c-3.6-2.5-12.9-6.1-15-6.9-.3-.1-.4-.2-.4-.2s.1.2.2.5c1.8 4.1 14.3 32.8 15.9 35.8z"/><path fill="#655734" d="M72.1 65.8c7.7 5.7 14.5 6.4 14.5 6.4s.5 5.5 3.4 7 16.6 3.2 16.6 3.2-1.7-21.7-13.6-34.2l-7.6-2.3s-.8-1.6-2.3-4.3c-1-1.9-2.2-4.3-3.7-7.2-2.7-5.5-6.1-12.7-9.5-20.5l-.6.3c4.4 10.5 8.4 19.1 9.5 21.6 2.5 5.8 13.3 21.1 16.6 22.7 3.3 1.5 9.8 22.4 9.8 22.4-17.1-9.3-25.4-29.6-25.4-29.6l9.8 9S77.5 44.4 71 28.1c-1.3-3.4-2.8-7.7-4.4-12.4-3.1 1.7-6.1 3.5-9 5.4C69.3 43 89.4 71.6 89.4 71.6c-18.9-2.3-28.2-14.2-40-44.6l-.2.2c4.5 13.4 9.3 24.1 14.1 30.2 2.9 3.6 5.9 6.3 8.8 8.4z"/><path fill="#212820" d="M89.7 60.2l-9.8-9s8.3 20.3 25.4 29.6c0 0-6.5-20.9-9.8-22.4-3.3-1.4-14.1-16.8-16.6-22.6-1.1-2.5-5-11.1-9.5-21.6-.9.5-1.8.9-2.7 1.4 1.5 4.7 3 9 4.4 12.4 6.5 16.4 18.6 32.2 18.6 32.2z"/><path fill="#473C25" d="M89.5 71.5S69.3 42.9 57.7 21c-2.8 1.9-5.6 3.8-8.2 5.9 11.9 30.4 21.1 42.3 40 44.6z"/><path fill="#071D1E" d="M93 144.8l4 15.8 7.1 9.4-3.8-18.9z"/><path fill="#42352D" d="M99.9 97.8c6-2 20.1 1.7 20.1 1.7s1.7-2-4.4-5c-6-3-21.1-1-22.5 0-1.2.9.8 5.3 6.8 3.3z"/><path fill="#B7AF65" d="M107.7 170.7l-4.9-32s-.3-.2-.9-.7c-2.6-2.2-10.9-9.5-15.5-18.9l-3.3-22.9 3.8-13.6-2.4-1-2.7 13.6 3.2 23.7s1 7.6 15.7 20.8l5 34.6 2.3-1.3-.3-2.3z"/><path fill="#354042" d="M90.9 176.3l-1 1.8s-1.5 1-3.8 2.5c2.6 2.7 6.7 7.1 12.9 14 5.5 6.2 11.9 9.8 17.2 11.9-.7-4.2-3.1-15.4-9.1-21.4-4.6-4.6-10.6-10.7-15-16-2.9-3.4-5.1-6.6-6-8.8 0 0 0 .1-.1.1-.3.6-1.4 2.8-2.6 5.5l7.5 10.4z"/><path fill="#2B2F34" d="M128 237h-.3c-5.6-.6-14.9-8.9-14.9-8.9l4-7c1.9 2.2 8.5 5.6 10.7 6.7.2.1.3.2.5.2.1 0 .2-.1.3-.1v-18.4s-5.2-.2-12.1-2.9c-5.4-2.1-11.7-5.7-17.2-11.9-6.2-6.9-10.3-11.3-12.9-14-6.1 4-18 11.7-22.3 14.6-4.6 3-10.6 8.4-14.6 11.6l1.1.9-3.5 2.7c-1.1 4-2.3 8.6-3.6 13.5 22.6 20 52.3 32.1 84.8 32.1h.3v-18.9c-.1-.1-.2-.1-.3-.2z"/><path fill="#1A1D22" d="M36.9 217.9c2 2 4.1 4 6.3 5.9 1.3-4.9 2.5-9.5 3.6-13.5l-9.9 7.6z"/><path fill="#384142" d="M50.4 207.7l-1.1-.9c-1.2.9-2.2 1.7-3 2.1-.8.4-3.2.2-6.3-.3v.4l-6.6 5.2c1.2 1.3 2.4 2.6 3.7 3.8l9.9-7.5 3.4-2.8z"/><path fill="#1A1D22" d="M39.9 208.5c3.1.6 5.5.8 6.3.3.8-.4 1.8-1.1 3-2.1 4-3.2 10-8.6 14.6-11.6 4.3-2.8 16.2-10.5 22.3-14.6 2.3-1.5 3.8-2.5 3.8-2.5l1-1.8S62.7 193 55.3 199.5c-5.3 4.7-6.9 9-13.7 6.5-4-1.5-12.7-4-19.2-5.8.3.5.6.9 1 1.4 6.8 1.8 14.8 4 16.6 4.4v2.5z"/><path fill="#465051" d="M41.6 206.1c6.8 2.5 8.4-1.8 13.7-6.5 7.4-6.5 35.6-23.3 35.6-23.3L83.4 166c-23.1 2.6-59.9 16.3-69.5 20 2.5 5 5.4 9.8 8.5 14.3 6.5 1.8 15.2 4.3 19.2 5.8z"/><path fill="#3F3B3D" d="M39.9 208.5v-2.4l-7.7 6.3-.6-.2c.5.6 1.1 1.3 1.7 1.9l6.6-5.2v-.4z"/><path fill="#4A4648" d="M39.9 206.1c-1.8-.4-9.8-2.6-16.6-4.4 2.6 3.7 5.3 7.2 8.3 10.5l.6.2 7.7-6.3z"/><path fill="#7C6F54" d="M128 228c-.1-.1-.3-.1-.5-.2-2.2-1.1-8.7-4.5-10.7-6.7l-4 7s9.3 8.3 14.9 8.9v-8.9c0 .1.1 0 .3-.1zm.3 9.1h-.3.3z"/><path fill="#8B7D5F" d="M127.7 228.2v8.9h.6c5.6-.6 14.9-8.9 14.9-8.9l-4-7c-1.9 2.2-8.5 5.6-10.7 6.7-.1 0-.1.1-.2.1-.1.1-.2.1-.3.1-.2 0-.3.1-.3.1z"/></svg>