<svg xmlns="http://www.w3.org/2000/svg" width="256" height="256"><circle fill="#B1B3B5" cx="128" cy="128" r="128"/><path fill="#CCAD9F" d="M134.4 223.3V212c2.2-3.2 7.4-10.2 12.6-17.1.9-6.7 3.4-16.2 1.9-15.4-2.1 1.1-10.1 11.8-10.1 11.8s5.9-11 9-15.3c2.6-3.6 5.3-23.8 6.1-30.6.1-.8.2-1.5.3-2.2v-.1c-.9 1.4-1.9 2.9-2.9 4.5-7.5 11.3-23.2 11.3-23.2 11.3V256h2l10.1-32.7h-5.8z"/><path fill="#A49892" d="M146.9 200.6c-.4-1-.3-3.2 0-5.7-5.2 6.9-10.4 13.9-12.6 17.1v11.3h5.8L130 256c8.5-.1 16.8-1.1 24.8-2.8 3.2-9 7.2-21.1 10.5-34.8-11.8-5.2-17-14.2-18.4-17.8zm-9.3 16.2c0-1.7 1.4-3 3.1-3s3.1 1.3 3.1 3-1.4 3-3.1 3-3.1-1.3-3.1-3zm17.3-13.4c.4 2.5 7 9.8 10.7 13.7.2-1 .5-2.1.7-3.2-7.9-5.5-11.7-12.7-11.4-10.5z"/><path fill="#533721" d="M143.9 216.8c0-1.7-1.4-3-3.1-3s-3.1 1.3-3.1 3 1.4 3 3.1 3 3.1-1.3 3.1-3z"/><path fill="#36464C" d="M198.6 189.2c.9 4.3 1.1 8 1.1 8 3.3 2.2 4.8 11.2 4.8 11.2-1.2-3.7-9.5-7.2-9.5-7.2 4.3 7.5-2.2 22.2-2.2 22.2-.2-8.1-23.4-19.8-21.6-13.6s16.4 9.7 16.4 9.7c-9 1-16.1-2-21.3-5.6-.2 1.1-.5 2.1-.7 3.2 1.4 1.5 2.4 2.4 2.4 2.4-.9-.3-1.8-.7-2.7-1.1-3.3 13.6-7.2 25.7-10.5 34.8 32.1-6.8 59.7-25.7 77.9-51.6-.6-.2-1.2-.4-1.9-.5-7.8-1.7-20.5-6.8-32.2-11.9z"/><path fill="#DEBCAD" d="M155.8 140.2l6-11.1c.7-3.2 4.6-20.4 6.6-35.1 0 0 .2-8.9.2-14.4 0 0-.3-.3-.9-.8-2.6-2.6-10.5-11.5-14.9-25.5l-.4-.4c-3-2.4-7.7-2.6-7.7-2.6V49l-3.2.4-.6-1.3-1.2.5c-2.5-5.1-11.7-2.7-11.7-2.7v85s1.2.2 2.4-.8c1.7-.8 4-.1 5.2 1.3 2.4 2.2 2.6 2.8 5.1 3.7 0 0-2.2 3.9-12.7 3.9v19.8s15.6 0 23.2-11.3c1-1.5 2-3 2.9-4.5.1 0 .7-1.1 1.7-2.8zm-15.6-57.8c-2.8.1-2.6-3.5-2.6-3.5 9.6-2.4 15.5-1.6 15.5-1.6 3.9 1 9.7 7.4 7.9 7.1-1.8-.4-6.1-5.4-9.8-5.5-3.6-.1-8.2 3.4-11 3.5z"/><path fill="#85523D" d="M161.1 84.4c1.8.4-4-6.1-7.9-7.1 0 0-5.9-.8-15.5 1.6 0 0-.1 3.6 2.6 3.5 2.8-.1 7.4-3.6 11-3.5 3.6.1 8 5.2 9.8 5.5z"/><path fill="#9D4D5E" d="M140.7 135.2c-2.5-.9-2.7-1.5-5.1-3.7-1.3-1.4-3.5-2.1-5.2-1.3-1.2 1-2.4.8-2.4.8v8.1c10.5 0 12.7-3.9 12.7-3.9z"/><path fill="#7E522F" d="M131.2 19.8l-1.6 3.1 4.6-1.6-1 3.1s6-4.1 13.9-1.4l4.4 2.5s-9.9-2.8-13.3-1.2-5.1 2.6-5.1 2.6h8.5s-3.8 1.9-3.1 1.9c.6 0 16.6 0 21.8 4.7s5.9 8.4 5.9 8.4c.1.1.2.3.4.7 4.6 7.8 17.1 14.6 17.1 14.6-8.7-1.9-8.9-3.4-8.9-3.4s-.7-3.2.2 3c.8 6.2 9.5 12.8 9.5 12.8-.8 4 8.7 9.6 8.7 9.6-4.2 1.8-10.7-1.8-10.7-1.8l4.7 3.4c-9.7-2.9-11.5-11.2-12.9-19-1.1-6.6-6.3-16.4-7.8-19.2-.1-.2-.3-.5-.4-.7-.1-.1-6.3-8.9-12.7-9.7-6.4-.8-5.6-.4-5.6-.4s7.6 3.1 9.9 5.1c2.3 2 4.9 4.9 4.9 4.9s-8.3-5.4-10.9-5-2.5 2-2.5 2 5.9.8 6.8 1.7-3.1 1.3-3.1 1.3 9.4-.1 13.3 10.5c0 0-4.9-6-9.7-6.7 0 0 6.6 7.8 7.4 16 .8 8.3 4.7 17.8 4.7 17.8s9 6.1 19.5 6.7c0 0 5.3 3.4 5.5 10.4l-2.7-4.2s1.5 12.6-.2 18.2-2.2 7.2-2.2 7.2 1.3-7.7-.8-12.5l-.2 7.5s-2.2-7-4.3-8.8c0 0-2.5 8.1-6.9 13.7l-.2-5.1-5.7 6.7 1-3.3s-3.3 9.5-9.8 13.3c-.2 2.2-.7 11.7 1.8 15.5 2.8 4.3 18.4 12.3 17.2 17.7 0 0-7.7-8.3-13-7.8 0 0 10.9 12.6 9.9 16-1 3.4-1.8 3.8-1.8 3.8l-8-4.8s-12.4 13.6-11.4 19.6c1 6.1 4.8 16.6 4.8 16.6s-12-14.9-9.4-20.5c2.7-5.7 6.9-16.8 6.9-16.8l-3 2.7 2.8-7.3-3 2.7-.5-5.7-2.5 4.2s3.1-13.7 3.3-25.2c-1 1.7-1.6 2.8-1.7 3s0 0 0 .1c0 .2-.1 1-.3 2.2-.8 6.8-3.5 27-6.1 30.6-3.2 4.3-9 15.3-9 15.3s8-10.7 10.1-11.8c1.5-.8-1 8.6-1.9 15.4-.3 2.5-.5 4.7 0 5.7 1.4 3.6 6.6 12.5 18.4 17.8.9.4 1.8.7 2.7 1.1l-2.4-2.4c-3.7-3.8-10.3-11.1-10.7-13.7-.3-2.1 3.5 5 11.4 10.5 5.3 3.6 12.4 6.6 21.3 5.6 0 0-14.5-3.5-16.4-9.7s21.4 5.4 21.6 13.6c0 0 6.5-14.7 2.2-22.2 0 0 8.4 3.5 9.5 7.2 0 0-1.5-8.9-4.8-11.2 0 0-.2-3.7-1.1-8-.6-2.8-1.5-5.8-2.8-8.2 0 0 12.7-4.5 9.9-9.1s-8.7-17.4-8.9-23.3 1.3-10.5 3.3-16.4c2-5.9-3.8-11.8-4.5-15.5-.7-3.7 4-1 4.3-11.3s-1-25.9-3-29.1-7-7.3-6.2-8.9 3.8-5.6 2-8.1c-1.8-2.6-4.5-4.3-5.2-7.3-.7-3-1.7-4.3-5.7-6.5S161.5 25.7 157.5 21c-4-4.8-16.9-14.8-29.8-10.9v12.7l3.5-3zm56.6 99.9c-1.5 7.2-3.2 10.5.3 13.3 3.5 2.7 3.7 5.3 2.7 6.1-1 .9-7.7-1.2-8.2-6.1-.5-5 5.2-13.3 5.2-13.3zm-.9 88.8c.7-4.1-2.9-12.2-9.2-14.2-6.3-2-8 6.8-8 6.8s-2-8.1 3-10.5 9.8-10.5 9.8-10.5l-2.8 7.4c12.3 7.3 7.2 21 7.2 21zm16-36.3c2.2 2.9-8.2 6.2-8.2 6.2-3.8-5.2-7.3-17.4-8.3-20.9 2.4 7.7 14.4 12 16.5 14.7z"/><path fill="#7E522F" d="M144.7 50.4s4.7.2 7.7 2.6c.1.1.3.2.4.4 0-.1 0-.1-.1-.2-1.4-4.8-8-2.8-8-2.8zm23.1 28.4c.5.6.9.8.9.8s-.4-.3-.9-.8zm-28.1-30.1s-3.5-7.2-11.7-4.6V46c0-.1 9.2-2.5 11.7 2.7zm1.2-.5l.6 1.2 3.4-2.8zm4.4-6.2l-3.9-4.2 5.4 2.8s-4.3-4.7-7-6l4.3 1s-5.2-5.1-16-5.1v11.7c-.1-.1 10.6-3.4 17.2-.2zm-.6 7v1.4l3.7-1.9z"/><path fill="#502610" d="M139.7 48.7l1.2-.5 4-1.6-3.3 2.9 3.2-.4 3.7-.5-3.7 1.9s6.6-2 8.1 2.8c0 .1 0 .1.1.2 4.4 14 12.3 22.8 14.9 25.5.5.5.9.8.9.8s-3.9-9.6-4.7-17.8c-.8-8.3-7.4-16-7.4-16 4.8.7 9.7 6.7 9.7 6.7-3.9-10.7-13.3-10.5-13.3-10.5s4-.5 3.1-1.3-6.8-1.7-6.8-1.7-.1-1.7 2.5-2 10.9 5 10.9 5-2.6-2.9-4.9-4.9c-2.3-2-9.9-5.1-9.9-5.1s-.8-.5 5.6.4c6.4.8 12.6 9.6 12.7 9.7s-.6-3.7-5.9-8.4-21.2-4.7-21.8-4.7c-.6 0 3.1-1.9 3.1-1.9h-8.5s1.8-1.1 5.1-2.6 13.3 1.2 13.3 1.2l-4.4-2.5c-7.9-2.6-13.9 1.4-13.9 1.4l1-3.1-4.6 1.6 1.6-3.1-3.2 3.1v7.5c10.8 0 16 5.1 16 5.1l-4.3-1c2.8 1.3 7 6 7 6l-5.4-2.8 3.9 4.2c-6.5-3.2-17.3.1-17.3.1v1.9c8.2-2.9 11.7 4.4 11.7 4.4zm22.2 80.4v.5c6.5-3.8 9.8-13.3 9.8-13.3l-1 3.3 5.7-6.7.2 5.1c4.3-5.6 6.9-13.7 6.9-13.7 2.2 1.8 4.3 8.8 4.3 8.8l.2-7.5c2.2 4.8.8 12.5.8 12.5s.5-1.6 2.2-7.2c1.7-5.6.2-18.2.2-18.2l2.7 4.2c-.2-7-5.5-10.4-5.5-10.4-10.5-.6-19.5-6.7-19.5-6.7 0 5.4-.2 14.4-.2 14.4-2.3 14.5-6.1 31.8-6.8 34.9z"/><path fill="#502610" d="M161.9 129.1l-6 11.1c-.2 11.5-3.3 25.2-3.3 25.2l2.5-4.2.5 5.7 3-2.7-2.8 7.3 3-2.7s-4.2 11.2-6.9 16.8c-2.7 5.7 9.4 20.5 9.4 20.5s-3.8-10.5-4.8-16.6c-1-6.1 11.4-19.6 11.4-19.6l8 4.8s.8-.5 1.8-3.8c1-3.4-9.9-16-9.9-16 5.3-.5 13 7.8 13 7.8 1.2-5.4-14.4-13.4-17.2-17.7-2.5-3.8-1.9-13.3-1.8-15.5 0-.2.1-.4.1-.4z"/><path fill="#714928" d="M190.8 139.1c1-.9.8-3.4-2.7-6.1-3.5-2.7-1.8-6.1-.3-13.3 0 0-5.7 8.3-5.2 13.3.5 4.9 7.2 6.9 8.2 6.1zm-4.4 18.4c.9 3.5 4.4 15.7 8.3 20.9 0 0 10.4-3.4 8.2-6.2-2.1-2.7-14.1-7-16.5-14.7zm0 0c-.2-.6-.3-1-.3-1 .1.4.2.7.3 1zm.8-76.7l-4.7-3.4s6.5 3.5 10.7 1.8c0 0-9.5-5.6-8.7-9.6 0 0-8.7-6.5-9.5-12.8-.8-6.2-.2-3-.2-3s.2 1.4 8.9 3.4c0 0-12.5-6.7-17.1-14.6 1.5 2.8 6.6 12.5 7.8 19.2 1.3 7.8 3.1 16.1 12.8 19zm-21-38.9c.1.2.3.5.4.7-.2-.4-.4-.6-.4-.7z"/><path fill="#502610" d="M182.5 180s-4.8 8.1-9.8 10.5-3 10.5-3 10.5 1.7-8.9 8-6.8c6.3 2 9.9 10.2 9.2 14.2 0 0 5.1-13.7-7.2-21.1l2.8-7.3z"/><path fill="#B49A8E" d="M104.8 147.6c-1-1.5-2-3-2.9-4.5s0 0 0 .1c.1.7.2 1.4.3 2.2.8 6.8 3.5 27 6.1 30.6 3.2 4.3 9 15.3 9 15.3s-8-10.7-10.1-11.8c-1.5-.8 1 8.6 1.9 15.4 5.2 6.9 10.4 13.9 12.6 17.1v11.3h-5.8L126 256h2v-97.1s-15.6 0-23.2-11.3z"/><path fill="#89807C" d="M101.1 203.4c.3-2.1-3.5 5-11.4 10.5.2 1.1.5 2.1.7 3.2 3.7-3.9 10.3-11.2 10.7-13.7zm20.5 19.9V212c-2.2-3.2-7.4-10.2-12.6-17.1.3 2.5.5 4.7 0 5.7-1.4 3.6-6.6 12.5-18.4 17.8 3.3 13.6 7.2 25.7 10.5 34.8 8 1.7 16.3 2.7 24.8 2.8l-10.1-32.7h5.8zm-6.3-9.4c1.7 0 3.1 1.3 3.1 3s-1.4 3-3.1 3-3.1-1.3-3.1-3c-.1-1.7 1.3-3 3.1-3z"/><path fill="#462C17" d="M115.3 219.8c1.7 0 3.1-1.3 3.1-3s-1.4-3-3.1-3-3.1 1.3-3.1 3c-.1 1.7 1.3 3 3.1 3z"/><path fill="#28373C" d="M88 219.5l2.4-2.4c-.2-1-.5-2.1-.7-3.2-5.3 3.6-12.4 6.6-21.3 5.6 0 0 14.5-3.5 16.4-9.7 1.8-6.2-21.4 5.4-21.6 13.6 0 0-6.5-14.7-2.2-22.2 0 0-8.4 3.5-9.5 7.2 0 0 1.5-8.9 4.8-11.2 0 0 .2-3.7 1.1-8-11.7 5.1-24.4 10.2-32.3 11.8-.6.1-1.2.3-1.9.5 18.2 25.9 45.9 44.8 77.9 51.6-3.2-9-7.2-21.1-10.5-34.8-.7.5-1.6.8-2.6 1.2z"/><path fill="#CCAD9F" d="M128 139.1c-10.5 0-12.7-3.9-12.7-3.9 2.5-.9 2.7-1.5 5.1-3.7 1.3-1.4 3.5-2.1 5.2-1.3 1.2 1 2.4.8 2.4.8V46s-14.3 16.1-23.5 21.6c-3.2 2.1-17.1 12-17.1 12 0 5.4.2 14.4.2 14.4 2 14.7 5.8 32 6.6 35.1l6 11.1c1 1.7 1.6 2.8 1.7 3 .9 1.4 1.9 2.9 2.9 4.5C112.3 159 128 159 128 159v-19.9zM94.9 84.4c-1.8.4 4-6.1 7.9-7.1 0 0 5.9-.8 15.5 1.6 0 0 .1 3.6-2.6 3.5-2.8-.1-7.4-3.6-11-3.5-3.6.1-8 5.2-9.8 5.5z"/><path fill="#5C3A1C" d="M115.8 82.4c2.8.1 2.6-3.5 2.6-3.5-9.6-2.4-15.5-1.6-15.5-1.6-3.9 1-9.7 7.4-7.9 7.1 1.8-.4 6.1-5.4 9.8-5.5 3.6-.1 8.2 3.4 11 3.5z"/><path fill="#884C4F" d="M125.6 130.2c-1.7-.8-4-.1-5.2 1.3-2.4 2.2-2.6 2.8-5.1 3.7 0 0 2.2 3.9 12.7 3.9V131s-1.2.2-2.4-.8z"/><path fill="#5C3A1C" d="M51.4 208.3c1.2-3.7 9.5-7.2 9.5-7.2-4.3 7.5 2.2 22.2 2.2 22.2.2-8.1 23.4-19.8 21.6-13.6-1.8 6.2-16.4 9.7-16.4 9.7 9 1 16.1-2 21.3-5.6 8-5.5 11.7-12.6 11.4-10.5-.4 2.5-7 9.8-10.7 13.7-1.4 1.5-2.4 2.4-2.4 2.4.9-.3 1.8-.7 2.7-1.1 11.8-5.2 17-14.2 18.4-17.8.4-1 .3-3.2 0-5.7-.9-6.7-3.4-16.2-1.9-15.4 2.1 1.1 10.1 11.8 10.1 11.8s-5.9-11-9-15.3c-2.6-3.6-5.3-23.8-6.1-30.6-.1-1.2-.2-2-.3-2.2v-.1c-.1-.1-.7-1.3-1.7-3 .2 11.5 3.3 25.2 3.3 25.2l-2.5-4.2-.5 5.7-3-2.7 2.8 7.3-3-2.7s4.2 11.2 6.9 16.8c2.7 5.7-9.4 20.5-9.4 20.5s3.8-10.5 4.8-16.6c1-6.1-11.4-19.6-11.4-19.6l-8 4.8s-.8-.5-1.8-3.8c-1-3.4 9.9-16 9.9-16-5.3-.5-13 7.8-13 7.8-1.2-5.4 14.4-13.4 17.2-17.7 2.5-3.8 1.9-13.3 1.8-15.5-6.5-3.8-9.8-13.3-9.8-13.3l1 3.3-5.7-6.7-.2 5.1c-4.3-5.6-6.9-13.7-6.9-13.7-2.2 1.8-4.3 8.8-4.3 8.8l-.2-7.5c-2.2 4.8-.8 12.5-.8 12.5s-.5-1.6-2.2-7.2c-1.7-5.6-.2-18.2-.2-18.2l-2.7 4.2c.2-7 5.5-10.4 5.5-10.4 10.5-.6 19.5-6.7 19.5-6.7s13.9-9.9 17.1-12c9.2-5.5 23.5-21.6 23.5-21.6V44s-4.4 2.9-14 12c-7.5 7.2-23.1 16.7-29.3 20.4-.9.6-1.8 1.1-2.7 1.6 0 0 1-.6 2.7-1.6 9.6-6.2 23.7-20.7 23.7-20.7-3.6 2.3-18.6 13.6-18.6 13.6C107.4 51.1 128 42.1 128 42.1V30.4s-12 0-34.5 10.4c0 0 14.4-9.9 19.4-11.3L104 32s4.1-5.7 14.4-6.1l-3.2-2.7s8.9 1 10.5 3.2l-2-6.7 4.3 3.1V10.2c-12.9-4-25.7 6.1-29.8 10.9-4 4.7-20.2 22.1-24.2 24.3-4 2.2-5 3.4-5.7 6.5-.7 3-3.3 4.8-5.2 7.3s1.2 6.5 2 8.1c.8 1.6-4.2 5.7-6.2 8.9s-3.3 18.7-3 29.1c.3 10.4 5 7.7 4.3 11.3-.7 3.7-6.5 9.6-4.5 15.5s3.5 10.5 3.3 16.4c-.2 5.9-6 18.7-8.9 23.3s9.9 9.1 9.9 9.1c-1.3 2.4-2.2 5.4-2.8 8.2-.9 4.3-1.1 8-1.1 8-3.2 2.3-4.7 11.2-4.7 11.2zm20-138.7s8.7-6.5 9.5-12.8.2-3 .2-3-.2 1.4-8.9 3.4c0 0 12.5-6.7 17.1-14.6.3-.5.4-.8.4-.8-.1.3-.3.5-.4.8-1.5 2.8-6.6 12.5-7.8 19.2-1.3 7.8-3.2 16.1-12.9 19l4.7-3.4s-6.5 3.5-10.7 1.8c.1 0 9.7-5.6 8.8-9.6zm-3.5 63.3c3.5-2.7 1.8-6.1.3-13.3 0 0 5.7 8.3 5.2 13.3-.5 4.9-7.2 7-8.2 6.1-1-.8-.8-3.3 2.7-6.1zm-14.8 39.3c2.1-2.8 14-7 16.5-14.7.2-.6.3-1 .3-1-.1.3-.2.6-.3 1-.9 3.5-4.4 15.7-8.3 20.9 0 .1-10.4-3.3-8.2-6.2zm20.4 7.8s4.8 8.1 9.8 10.5c5 2.4 3 10.5 3 10.5s-1.7-8.9-8-6.8c-6.3 2-9.9 10.2-9.2 14.2 0 0-5.1-13.7 7.2-21.1l-2.8-7.3z"/><path fill="#371300" d="M94.1 129.1c-.7-3.2-4.6-20.4-6.6-35.1 0 0-.2-8.9-.2-14.4 0 0-9 6.1-19.5 6.7 0 0-5.3 3.4-5.5 10.4l2.7-4.2s-1.5 12.6.2 18.2 2.2 7.2 2.2 7.2-1.3-7.7.8-12.5l.2 7.5s2.2-7 4.3-8.8c0 0 2.5 8.1 6.9 13.7l.2-5.1 5.7 6.7-1-3.3s3.3 9.5 9.8 13.3c-.1-.1-.2-.3-.2-.3z"/><path fill="#371300" d="M94.1 129.1v.5c.2 2.2.7 11.7-1.8 15.5-2.8 4.3-18.4 12.3-17.2 17.7 0 0 7.7-8.3 13-7.8 0 0-10.9 12.6-9.9 16 1 3.4 1.8 3.8 1.8 3.8l8-4.8s12.4 13.6 11.4 19.6c-1 6.1-4.8 16.6-4.8 16.6s12-14.9 9.4-20.5c-2.7-5.7-6.9-16.8-6.9-16.8l3 2.7-2.8-7.3 3 2.7.5-5.7 2.5 4.2s-3.1-13.7-3.3-25.2l-5.9-11.2z"/><path fill="#442809" d="M73.4 132.9c.5-4.9-5.2-13.3-5.2-13.3 1.5 7.2 3.2 10.5-.3 13.3-3.5 2.7-3.7 5.3-2.7 6.1 1 .9 7.7-1.1 8.2-6.1zm-3.8 24.6c-2.4 7.7-14.4 11.9-16.5 14.7-2.2 2.9 8.2 6.2 8.2 6.2 3.8-5.1 7.3-17.4 8.3-20.9zm0 0c.1-.3.2-.6.3-1-.1.1-.2.4-.3 1zM89.4 42.6c.2-.3.3-.5.4-.8 0 .1-.1.3-.4.8zm-16 34.9l-4.7 3.4c9.7-2.9 11.5-11.2 12.9-19 1.1-6.6 6.3-16.4 7.8-19.2-4.6 7.8-17.1 14.6-17.1 14.6 8.7-1.9 8.9-3.4 8.9-3.4s.7-3.2-.2 3-9.5 12.8-9.5 12.8c.8 4-8.7 9.6-8.7 9.6 4.1 1.7 10.6-1.8 10.6-1.8z"/><path fill="#371300" d="M69.1 208.5c-.7-4.1 2.9-12.2 9.2-14.2 6.3-2 8 6.8 8 6.8s2-8.1-3-10.5c-5-2.4-9.8-10.5-9.8-10.5l2.8 7.4c-12.3 7.3-7.2 21-7.2 21zM84.7 76.4C83 77.4 82 78 82 78c.9-.5 1.8-1 2.7-1.6zm5.1-7.1s14.9-11.3 18.6-13.6c0 0-14 14.5-23.7 20.7 6.2-3.7 21.8-13.2 29.3-20.4 9.5-9.1 14-12 14-12v-1.9s-20.6 9-38.2 27.2zm33.9-49.5l2 6.7c-1.7-2.2-10.5-3.2-10.5-3.2l3.2 2.7c-10.4.3-14.4 6-14.4 6l8.9-2.6c-5 1.4-19.4 11.3-19.4 11.3C116 30.5 128 30.4 128 30.4v-7.5l-4.3-3.1z"/></svg>