<svg xmlns="http://www.w3.org/2000/svg" xmlns:xlink="http://www.w3.org/1999/xlink" width="256" height="256"><circle fill="#B1B3B5" cx="128" cy="128" r="128"/><path fill="#434E60" d="M183.7 221.5v17.1s-4.6 5.6-55.9 5.6v-19.8l55.9-2.9z"/><path fill="#605C58" d="M152 225c8.4 0 31.8-1 31.8-3.3s-13.3-3.3-24.6-3.3L152 225z"/><path fill="#3D434A" d="M169.6 211.4v9.5l-41.8 5.7v-9.4z"/><path fill="#76758B" d="M161.3 28l9.8-14.4s13.4-2.2 16.7 10.5l-16.6 25.3-9.9-11.5V28z"/><defs><path id="a" d="M161.3 28l9.8-14.4s13.4-2.2 16.7 10.5l-16.6 25.3-9.9-11.5V28z"/></defs><clipPath id="b"><use xlink:href="#a" overflow="visible"/></clipPath><g clip-path="url(#b)" fill="#131519"><path d="M178.7 19.8c-7-4.9-14.9-.8-15.2-.6l.7 1.1c.1 0 7.5-3.9 13.7.5 6.7 4.7 7.6 9.3 7.7 12.4h1.4c-.2-3.4-1.2-8.5-8.3-13.4z"/><path d="M160 23.7l.7 1.1c.1 0 7.5-3.9 13.7.5 6.7 4.7 7.6 9.3 7.7 12.4h1.4c-.1-3.3-1.1-8.4-8.2-13.4-7.1-4.8-15-.8-15.3-.6z"/><path d="M156.5 28.7l.7 1.1c.1 0 7.5-3.8 13.7.5 6.7 4.7 7.6 9.3 7.7 12.4h1.4c-.1-3.3-1.1-8.4-8.2-13.4-7-4.8-14.9-.7-15.3-.6z"/><path d="M153.1 34l.7 1.1c.1 0 7.5-3.9 13.7.5 6.7 4.7 7.6 9.3 7.7 12.4h1.4c-.1-3.3-1.1-8.4-8.2-13.4-7.1-4.8-15-.8-15.3-.6z"/></g><path fill="#343036" d="M132.8 19.3l-5-1.2v25.6s12.8.9 12.8 0V21.1l-7.8-1.8z"/><path fill="#7394A8" d="M134.7 17.4l-1.8 1.9s2.3 17.7 1.9 23.2l-6.9 1.2v1.7l10.9-1.3 2.4-18.9-6.5-7.8z"/><path fill="#76758B" d="M194.8 131.6l14-10.8s13.5 1.8 12.5 14.9l-24.1 19.2-5.7-13.8 3.3-9.5z"/><defs><path id="c" d="M194.8 131.6l14-10.8s13.5 1.8 12.5 14.9l-24.1 19.2-5.7-13.8 3.3-9.5z"/></defs><clipPath id="d"><use xlink:href="#c" overflow="visible"/></clipPath><g clip-path="url(#d)" fill="#131519"><path d="M214 128.8c-5-6.6-13.9-5.1-14.3-5l.3 1.3c.1 0 8.4-1.5 12.9 4.5 4.8 6.4 4.2 11 3.3 14l1.3.4c1-3.2 1.7-8.3-3.5-15.2z"/><path d="M194.9 127.2l.3 1.3c.1 0 8.4-1.5 12.9 4.5 4.8 6.4 4.2 11 3.3 14l1.3.4c1-3.2 1.7-8.3-3.5-15.1-5.1-6.8-13.9-5.2-14.3-5.1z"/><path d="M190 131l.3 1.3c.1 0 8.4-1.5 12.9 4.5 4.8 6.4 4.2 11 3.3 14l1.3.4c1-3.2 1.7-8.3-3.5-15.1-5.1-6.8-13.9-5.2-14.3-5.1z"/><path d="M185 135l.3 1.3c.1 0 8.4-1.5 12.9 4.5 4.8 6.4 4.2 11 3.3 14l1.3.4c1-3.2 1.7-8.3-3.5-15.1-5.1-6.8-13.9-5.2-14.3-5.1z"/></g><path fill="#586883" d="M195.2 116.2h2.3s-3.1 23.4 0 32.9 4.2 12.9 4.2 12.9l-19 14.7-54.8-1.3v-20.5l67.3-38.7z"/><path fill="#8E98AE" d="M127.8 55.7s36.1-11.8 48.5-1.6c12.5 10.1 20.1 35.3 22.2 55.9 0 0-14.9 32.7-15.6 42.9-.7 10.1 2.1 23.2 5.5 29.4 0 0-10.7 25.5-22.9 37.6-12 12.1-19.3 14.1-19.3 14.1l-18.4 1V55.7z"/><path fill="#5E6875" d="M198.5 110.2s-2.3-41-33.9-40.6-20.1 57.9-18.8 78c1 15.2 11.5 78 11.5 78s28.1-26.2 31.1-43c0 0-8.8-18.3-3.2-38.6 6.6-20.7 13.3-33.8 13.3-33.8z"/><path fill="#424954" d="M152.3 141.4c-1-6.9-1.9-8.8 3.8-9.5 5.7-.7 15.6.5 20.1-6.5 4.5-7 8-19.5 8-19.5l6.6 4.9s-14.2 31.1-12.3 50.9c1.9 19.8 4.3 24.7 4.3 24.7l-11.6 17.5-8.8-6.7-10.1-55.8z"/><path fill="#705D61" d="M158.9 178.6s7.8-13.2 17-17.4c0 0-.3-13.4 4.7-27s7.3-21.9 7.3-21.9l-4.7-3.3s-6 17.3-11.1 19.8c-5 2.5-14.2 3-16.4 3.1-2.8.2-4.8.7-4 6.7.8 6.1 7.2 40 7.2 40z"/><ellipse fill="#31373C" cx="167" cy="103.1" rx="14.2" ry="23.1"/><ellipse fill="#121911" cx="165.7" cy="103.5" rx="11" ry="18.5"/><path fill="#1F9E49" d="M154.8 104.6l21.8 1.3-1.3 6.4-20.4-5.2z"/><path fill="#585E67" d="M127.8 150.9h2.7l15.9 9.7s4.7 61.8 4.8 74.4c0 0-1.9 3.4-6.8 1.5h-3.1s-1.9 3-6.2.6H132s-.8.9-4.2.9v-87.1z"/><path fill="#3D434A" d="M132.1 237.1s-1.9-69.2-1.9-73.4c0-4.3.6-5.1 2-5.1s2.3.2 2.5 5.5c.2 5.2.5 73.1.5 73.1h-3.1zm9.3-.6s-3-68-3-72.3c0-4.3.6-5.1 2-5.1s2.3.2 2.5 5.5c.2 5.2 1.6 72 1.6 72h-3.1z"/><defs><path id="e" d="M132 158.5c-1.4 0-2 .9-2 5.1 0 4.3 1.9 73.4 1.9 73.4h3.1s-.3-67.8-.5-73.1c-.2-5.1-1.1-5.4-2.5-5.4z"/></defs><clipPath id="f"><use xlink:href="#e" overflow="visible"/></clipPath><path clip-path="url(#f)" fill="#1F9E49" d="M127.7 170.5h17.4v46h-17.4z"/><defs><path id="g" d="M142.8 164.5c-.2-5.2-1.2-5.5-2.5-5.5s-2 .9-2 5.1c0 4.3 3 72.3 3 72.3h3.1c0 .1-1.4-66.7-1.6-71.9z"/></defs><clipPath id="h"><use xlink:href="#g" overflow="visible"/></clipPath><path clip-path="url(#h)" fill="#1F9E49" d="M127.7 170.5h17.4v46h-17.4z"/><path d="M127.8 208.3h18.8v3.6h-18.8zm0-29.7h18.8v3.6h-18.8z" fill="#585E67"/><defs><path id="i" d="M127.8 55.7s36.1-11.8 48.5-1.6c12.5 10.1 20.1 35.3 22.2 55.9 0 0-14.9 32.7-15.6 42.9-.7 10.1 2.1 23.2 5.5 29.4 0 0-10.7 25.5-22.9 37.6-12 12.1-19.3 14.1-19.3 14.1l-18.4 1V55.7z"/></defs><clipPath id="j"><use xlink:href="#i" overflow="visible"/></clipPath><g clip-path="url(#j)" fill="#424954"><path d="M125.5 112.9h9v4.2l-4.5 5h-4.5v1.3h5.1l5.3-5.8v-6h-10.4z"/><path d="M180.8 185.5l1.6 6.3-10.4 16.4-4.2-1.5 3.2-5.8-1.2-.6-7.5 13.4-2.3-.8c-.4-2.5-3-17.5-7.7-46.9-4.4-27.4-4-46.1-3.8-51.1.6.5 1.1 1 1.7 1.5.6 1.4 5.2 11.4 15.9 11.4h1.2c11.4-.8 13.7-14.1 15.1-22.1.1-.8.3-1.5.4-2.2.8-4.1 1.5-17.6-5.2-25.3-2.9-3.4-6.8-5.1-11.6-5.2-4-.1-7.4 1.1-10 3.6-7.1 6.5-7.2 19.9-7.2 24.3v.7c-.1 3.2.7 9.6 1.1 12.7-5.5-4.9-6-5.1-6.1-5.1-.2-.1-1.6-.2-3.7-.3.1-2 1.7-23.4 5-30.9 3.3-7.7 7-13.6 14.8-19.2l2.6-1.8-18.7 4-.1.3c-.1.2-7.8 16.9-7.7 30.5h-10.2v1.3h11.6v-.7c-.3-12.5 6.4-28 7.4-30.3l12-2.6c-6.5 5.3-9.9 10.9-12.9 18-3.3 7.8-4.9 29-5.1 31.2-4.1-.3-9.9-.7-14-1l-.1 1.3c7.1.5 18 1.2 18.6 1.3.3.2 2 1.6 4 3.4-.2 2.6-1 22.3 3.8 52.4 5.1 32.2 7.8 47.1 7.8 47.3l.1.4 4.2 1.5 4.2-7.5 5.5 1.9 11.3-17.8-1.7-6.8-1.7.4zM150 100.9c0-4.3.1-17.3 6.8-23.4 2.3-2.1 5.3-3.2 8.7-3.2h.3c4.4.1 7.9 1.7 10.6 4.7 5.9 6.8 5.8 19.3 4.9 24.3-.1.7-.3 1.4-.4 2.2-1.3 7.6-3.6 20.3-13.9 21-11 .7-15.3-9.6-15.7-10.6-.1-.9-1.4-10.3-1.3-14.2v-.8zm45.9-13.6l-1.5 9.2c-3.8 5-8.5 12.1-8.6 12.2l1.2.7c0-.1 4.9-7.3 8.6-12.3l1.7-9.6-1.4-.2z"/></g><path fill="#375264" d="M127.8 62.7s14.4-1 21.4-3.1c7-2.1 19.7-4.4 27.1 0 7.4 4.4 17.8 12.1 22.7 36l-2.8 2s-1.5-21.8-17.8-32.7c-10.2-6.9-20.2-4.6-30.1-2.6-9.9 2-20.5 3.4-20.5 3.4v-3z"/><path fill="#94BFD9" d="M199 95.6l.5-1.1c-5.2-33.2-22.8-53.3-34.3-63.6s-30.6-13.4-30.6-13.4l2.4 22.9h-9.2v22.4s11.4-1 21.4-3.1c10.1-2.1 19.1-4.1 26.3-.4s17.3 15 20.1 24.6c2.8 9.5 3.4 11.7 3.4 11.7z"/><path fill="#CB877A" d="M127.8 11.9h2.6l1.9 27.5h-4.5z"/><path fill="#495C7B" d="M145.6 17.4s13.1 2.5 26.8 16c13.7 13.5 19.1 24.3 23.4 35.2 0 0-19.6-23.4-32.8-30.2 0 .1-11.4-17.8-17.4-21z"/><path fill="#283555" d="M142.1 19.2l3.2-1.7s8.1 2.8 18.4 21c0 0 28.8 16 32.1 30.3 2.8 11.9 3.3 14.3 3.3 14.3l-1.3 2.9s-3.3-25.4-33.4-42.9c-2.8-1.4-3.6-2.3-5.4-5.8s-7.9-14.3-16.9-18.1z"/><path fill="#343D4E" d="M72.3 221.5v17.1s4.6 5.6 55.9 5.6v-19.8l-55.9-2.9z"/><path fill="#4E4B49" d="M104 225c-8.4 0-31.8-1-31.8-3.3s13.3-3.3 24.6-3.3l7.2 6.6z"/><path fill="#3D434A" d="M86.4 211.4v9.5l41.8 5.7v-9.4z"/><path fill="#59586B" d="M94.7 28l-9.8-14.4s-13.4-2.2-16.7 10.5l16.6 25.3 9.9-11.5V28z"/><defs><path id="k" d="M94.7 28l-9.8-14.4s-13.4-2.2-16.7 10.5l16.6 25.3 9.9-11.5V28z"/></defs><clipPath id="l"><use xlink:href="#k" overflow="visible"/></clipPath><g clip-path="url(#l)" fill="#131519"><path d="M77.3 19.8c7-4.9 14.9-.8 15.2-.6l-.7 1.1c-.1 0-7.5-3.9-13.7.5-6.7 4.7-7.6 9.3-7.7 12.4H69c.2-3.4 1.2-8.5 8.3-13.4z"/><path d="M96 23.7l-.7 1.1c-.1 0-7.5-3.9-13.7.5C75 30 74.1 34.7 74 37.7h-1.4c.1-3.3 1.1-8.4 8.2-13.4 7-4.8 14.9-.8 15.2-.6z"/><path d="M99.5 28.7l-.7 1.1c-.1 0-7.5-3.8-13.7.5-6.7 4.7-7.6 9.3-7.7 12.4H76c.1-3.3 1.1-8.4 8.2-13.4 7-4.8 14.9-.7 15.3-.6z"/><path d="M102.9 34l-.7 1.1c-.1 0-7.5-3.9-13.7.5C81.9 40.3 81 45 80.9 48h-1.4c.1-3.3 1.1-8.4 8.2-13.4 7-4.8 14.9-.8 15.2-.6z"/></g><path fill="#343036" d="M123.2 19.3l5-1.2v25.6s-12.8.9-12.8 0V21.1l7.8-1.8z"/><path fill="#4D6776" d="M121.3 17.4l1.8 1.9s-2.3 17.7-1.9 23.2l6.9 1.2v1.7l-10.9-1.3-2.4-18.9 6.5-7.8z"/><path fill="#59586B" d="M61.2 131.6l-14-10.8s-13.5 1.8-12.5 14.9l24.1 19.2 5.7-13.8-3.3-9.5z"/><defs><path id="m" d="M61.2 131.6l-14-10.8s-13.5 1.8-12.5 14.9l24.1 19.2 5.7-13.8-3.3-9.5z"/></defs><clipPath id="n"><use xlink:href="#m" overflow="visible"/></clipPath><g clip-path="url(#n)"><path d="M42 128.8c5-6.6 13.9-5.1 14.3-5l-.3 1.3c-.1 0-8.4-1.5-12.9 4.5-4.8 6.4-4.2 11-3.3 14l-1.3.4c-1-3.2-1.7-8.3 3.5-15.2z"/><path d="M61.1 127.2l-.3 1.3c-.1 0-8.4-1.5-12.9 4.5-4.8 6.4-4.2 11-3.3 14l-1.3.4c-1-3.2-1.7-8.3 3.5-15.1 5.1-6.8 13.9-5.2 14.3-5.1z"/><path d="M66 131l-.3 1.3c-.1 0-8.4-1.5-12.9 4.5-4.8 6.4-4.2 11-3.3 14l-1.3.4c-1-3.2-1.7-8.3 3.5-15.1 5.1-6.8 13.9-5.2 14.3-5.1z"/><path d="M71 135l-.3 1.3c-.1 0-8.4-1.5-12.9 4.5-4.8 6.4-4.2 11-3.3 14l-1.3.4c-1-3.2-1.7-8.3 3.5-15.1 5.1-6.8 13.9-5.2 14.3-5.1z"/></g><path fill="#435067" d="M60.8 116.2h-2.3s3.1 23.4 0 32.9-4.2 12.9-4.2 12.9l19 14.7 54.8-1.3v-20.5l-67.3-38.7z"/><path fill="#757E8F" d="M128.2 55.7s-36.1-11.8-48.5-1.6S59.5 89.4 57.5 110c0 0 14.9 32.7 15.6 42.9.7 10.1-2.1 23.2-5.5 29.4 0 0 10.7 25.5 22.9 37.6 12.1 12.1 19.4 14.1 19.4 14.1l18.4 1V55.7z"/><path fill="#525C67" d="M57.5 110.2s2.3-41 33.9-40.6 20.1 57.9 18.8 78c-1 15.2-11.5 78-11.5 78s-28.1-26.2-31.1-43c0 0 8.8-18.3 3.2-38.6-6.6-20.7-13.3-33.8-13.3-33.8z"/><path fill="#2A3039" d="M103.7 141.4c1-6.9 1.9-8.8-3.8-9.5-5.7-.7-15.6.5-20.1-6.5s-8-19.5-8-19.5l-6.6 4.9s14.2 31.1 12.3 50.9c-1.9 19.8-4.3 24.7-4.3 24.7l11.6 17.5 8.8-6.7 10.1-55.8z"/><path fill="#5B4B4F" d="M97.1 178.6s-7.8-13.2-17-17.4c0 0 .3-13.4-4.7-27s-7.3-21.9-7.3-21.9l4.7-3.3s6 17.3 11.1 19.8c5 2.5 14.2 3 16.4 3.1 2.8.2 4.8.7 4 6.7-.8 6.1-7.2 40-7.2 40z"/><ellipse fill="#262C31" cx="89" cy="103.1" rx="14.2" ry="23.1"/><ellipse cx="90.3" cy="103.5" rx="11" ry="18.5"/><path fill="#0C7C37" d="M101.2 104.6l-21.8 1.3 1.3 6.4 20.4-5.2z"/><path fill="#484E56" d="M128.2 150.9h-2.7l-15.9 9.7s-4.7 61.8-4.8 74.4c0 0 1.9 3.4 6.8 1.5h3.1s1.9 3 6.2.6h3.1s.8.9 4.2.9v-87.1z"/><path fill="#23282E" d="M123.9 237.1s1.9-69.2 1.9-73.4c0-4.3-.6-5.1-2-5.1s-2.3.2-2.5 5.5c-.2 5.2-.5 73.1-.5 73.1h3.1zm-9.3-.6s3-68 3-72.3c0-4.3-.6-5.1-2-5.1s-2.3.2-2.5 5.5c-.2 5.2-1.6 72-1.6 72h3.1z"/><defs><path id="o" d="M124 158.5c1.4 0 2 .9 2 5.1 0 4.3-1.9 73.4-1.9 73.4H121s.3-67.8.5-73.1c.2-5.1 1.1-5.4 2.5-5.4z"/></defs><clipPath id="p"><use xlink:href="#o" overflow="visible"/></clipPath><path clip-path="url(#p)" fill="#0C7C37" d="M110.9 170.5h17.4v46h-17.4z"/><defs><path id="q" d="M113.2 164.5c.2-5.2 1.2-5.5 2.5-5.5s2 .9 2 5.1c0 4.3-3 72.3-3 72.3h-3.1c0 .1 1.4-66.7 1.6-71.9z"/></defs><clipPath id="r"><use xlink:href="#q" overflow="visible"/></clipPath><path clip-path="url(#r)" fill="#0C7C37" d="M110.9 170.5h17.4v46h-17.4z"/><path d="M109.4 208.3h18.8v3.6h-18.8zm0-29.7h18.8v3.6h-18.8z" fill="#484E56"/><defs><path id="s" d="M128.2 55.7s-36.1-11.8-48.5-1.6S59.5 89.4 57.5 110c0 0 14.9 32.7 15.6 42.9.7 10.1-2.1 23.2-5.5 29.4 0 0 10.7 25.5 22.9 37.6 12.1 12.1 19.4 14.1 19.4 14.1l18.4 1V55.7z"/></defs><clipPath id="t"><use xlink:href="#s" overflow="visible"/></clipPath><g clip-path="url(#t)" fill="#2A3039"><path d="M130.5 112.9h-9v4.2l4.5 5h4.5v1.3h-5.1l-5.3-5.8v-6h10.4z"/><path d="M73.9 185.2l-1.7 6.8 11.3 17.8 5.5-1.9 4.2 7.5 4.2-1.5.1-.4c0-.1 2.7-15.1 7.8-47.3 4.8-30.1 3.9-49.8 3.8-52.4 2-1.7 3.7-3.2 4-3.4.6-.1 11.5-.8 18.6-1.3l-.1-1.3c-4.1.3-9.9.7-14 1-.2-2.3-1.7-23.5-5.1-31.2-3.1-7.1-6.4-12.7-12.9-18l12 2.6c1 2.3 7.7 17.9 7.4 30.3v.7h11.6v-1.3h-10.2c.1-13.6-7.6-30.4-7.7-30.5l-.1-.3-18.7-4 2.6 1.8c7.9 5.6 11.5 11.5 14.8 19.2 3.2 7.5 4.8 28.8 5 30.9-2.1.2-3.5.3-3.7.3-.2 0-.6.2-6.1 5.1.4-3.1 1.1-9.5 1.1-12.7v-.7c0-4.4-.1-17.8-7.2-24.3-2.7-2.5-6-3.6-10-3.6-4.8.1-8.7 1.8-11.6 5.2-6.7 7.7-6 21.2-5.2 25.3.1.7.3 1.4.4 2.2 1.4 8 3.7 21.3 15.1 22.1h1.2c10.7 0 15.3-10.1 15.9-11.4.5-.5 1.1-1 1.7-1.5.2 5 .6 23.7-3.8 51.1-4.7 29.4-7.3 44.4-7.7 46.9l-2.3.8-7.5-13.4-1.2.6 3.2 5.8-4.2 1.5L74 191.9l1.6-6.3-1.7-.4zm32.1-83.5c.1 4-1.2 13.3-1.3 14.2-.4 1-4.8 11.4-15.7 10.6-10.3-.7-12.5-13.4-13.9-21-.1-.8-.3-1.5-.4-2.2-1-5-1-17.5 4.9-24.3 2.6-3.1 6.2-4.6 10.6-4.7h.3c3.5 0 6.4 1.1 8.7 3.2 6.6 6.1 6.7 19.1 6.8 23.4v.8zM60.1 87.3l1.5 9.2c3.8 5 8.5 12.1 8.6 12.2l-1.2.7c0-.1-4.9-7.3-8.6-12.3l-1.7-9.6 1.4-.2z"/></g><path fill="#2C4455" d="M128.2 62.7s-14.4-1-21.4-3.1-19.7-4.4-27.1 0C72.2 64 61.8 71.7 57 95.6l2.8 2s1.5-21.8 17.8-32.7c10.2-6.9 20.2-4.6 30.1-2.6 9.9 2 20.5 3.4 20.5 3.4v-3z"/><path fill="#7496AA" d="M57 95.6l-.5-1.1c5.2-33.2 22.8-53.3 34.3-63.6s30.6-13.4 30.6-13.4L119 40.4h9.2v22.4s-11.4-1-21.4-3.1-19.1-4.1-26.3-.4-17.3 15-20.1 24.6C57.6 93.4 57 95.6 57 95.6z"/><path fill="#A67064" d="M128.2 11.9h-2.6l-1.9 27.5h4.5z"/><path fill="#283555" d="M110.4 17.4s-13.1 2.5-26.8 16-19.1 24.3-23.4 35.3c0 0 19.6-23.4 32.8-30.2 0 0 11.4-17.9 17.4-21.1z"/><path fill="#0D1732" d="M113.9 19.2l-3.2-1.7s-8.1 2.8-18.4 21c0 0-28.8 16-32.1 30.3C57.5 80.6 56.9 83 56.9 83l1.3 2.9S61.5 60.5 91.6 43c2.8-1.4 3.6-2.3 5.4-5.8s7.9-14.2 16.9-18z"/></svg>