<svg xmlns="http://www.w3.org/2000/svg" width="256" height="256"><circle fill="#B2B4B5" cx="128" cy="128" r="128"/><path fill="#694625" d="M75.3 232.8c1-7.7 1.7-3.8 1.7-6.7s-1.2-3.6-1.4-7.4c-.2-3.8.5-4.1.7-5.5s2.2-5 3.4-8.4c1.2-3.4-2.2-6.9-2.4-7.9-.1-.4-.5-2.2-1-4.2-4.6 18-9.4 32.8-14.2 45 4.8 2.9 9.7 5.4 14.8 7.7 0-.1-.1-.2-.1-.4-.8-2.7-2.4-4.6-1.5-12.2z"/><path fill="#7E5D3C" d="M76.2 155c-.1-.2-.1-.4-.2-.6-.2 1-.5 2-.8 3.1.4-.9.7-1.7 1-2.5zm-1.4 32s-.7-3.1-.5-6.2c.2-3.1 1.2-3.4 3.1-7.2s1.2-6 1.2-8.4v-.4C71.1 183 63 209.6 56.2 234c1.9 1.3 3.8 2.5 5.8 3.7 4.8-12.2 9.6-27 14.2-45-.6-2.7-1.4-5.7-1.4-5.7z"/><path fill="#877C4B" d="M75.3 157.5c.3-1 .5-2 .8-3.1-1.9-5.5-1.4-5.5-1.7-7.4-.1-.7 0-1.8 0-2.8-4.5 3.7-9.4 8.8-10.7 14.3-2.4 11-18.4 27.1-18.4 27.1S9.4 166 6.5 147.3c-.2-1.3-.3-2.5-.3-3.7-.8 3.9-1.7 8.9-2.6 14.5 6.2 25.7 20.1 48.3 39.1 65.4 17.4-29.5 27.8-53.8 32.6-66z"/><path fill="#6A623A" d="M45.3 185.6s16-16 18.4-27.1c1.2-5.6 6.1-10.7 10.7-14.3.2-1.8.4-3.7.4-4.1 0-.5.5-5.8 1.3-10.7-1.1-.6-2.1-1.5-2.9-2.7-.5-.9-1-1.8-1.3-2.9-8.8-1.3-24.8-3.5-36.7-3.8-16.1-.4-29.6 7.4-29.1 23.6 0 1.2.1 2.4.3 3.7 3 18.7 38.9 38.3 38.9 38.3zm22-58s-11 1.9-17.2 15.3-14.8 18.9-26.3 23.5c-8.4-4.1-21.6-22-11.5-35 10-12.9 31.1-10 55-3.8z"/><path fill="#071300" d="M23.7 166.4c11.5-4.6 20.1-10.1 26.3-23.5s17.2-15.3 17.2-15.3c-23.9-6.2-45-9.1-55.1 3.8-9.9 13 3.3 31 11.6 35z"/><path fill="#A37864" d="M76.1 129.4c.3-2.4.7-4.7 1.1-6.3 1.2-5 2.1-10.6 2.1-10.6s.1.3.1.7c-.1-1.7-.2-3.4-.3-5.2v1.3c-2-1.8-2.7-5.3-3-6.9h-.4s-1.2-1.8 0-4.2h.3l-.2-10.5-.1-1c-1.6-1.5-3.3-2.6-5-2.1-4.5 1.3-4.2 6.1-4.8 9.3-.6 3.2-3.5 5.1 1 12.8 3.6 6.2 3.7 12.6 5.1 17.2.3 1.1.7 2.1 1.3 2.9.7 1.1 1.7 2 2.8 2.6z"/><path fill="#C08C76" d="M124.3 104.5s1.1 9.9-9.1 18.4c-4.6 2.6-16.1 6.4-26.2-.2-2.7-1.5-8.8-12.8-9.3-20.4h-.4c-.1 2.4-.1 4.4-.2 5.7.1 1.8.2 3.5.3 5.2.3 1.2.8 3.6 1 4.3.2 1 .4 4.5.9 6.9s0 4.3.7 6.9 2.6 6.7 3.1 8.9 3.8 6.5 3.8 6.5l2.2 2.9 3.1-2.2c5.7-6.9 18.2-11.3 18.2-11.3s1.7 3.8 4.8 5.3c2.5 1.1 8.1 1.5 10.3 1.6v-38.4l-3.2-.1zm-3.8-9.8s2.4 4.2 2.9 6.7h4.2v-6.7h-7.1zm-8.1 56.9s-3.1 2.2-3.8 2.4c-.7.2-3.6 2.6-3.6 2.6l-1.2 3.8s-.7 8.6 3.8 8.6c4.6 0 7.4-6.7 7.4-6.7 5.5-1.1 10.4-.8 12.5-.6v-10.9h-8.6l-6.5.8zM90.7 92.2c2.1-1.5 4.8-3.1 7.1-4.3 5.3-2.9 13.9 2.2 17.5 2.9 3.6.7 6.2-2.2 6.2-2.2s-.4 1.6-1 3.3h7.1V43.1c-12.2.2-20.4 5-20.4 5l-8.1 1-9.2 2.9-3.1 4.8s-3.6 4.1-3.8 4.8c-.2.7-2.6 3.1-2.9 5-.2 1.9 1 9.6.2 17-.3 3.5-.6 9.3-.8 14.5h.9s.2-4.6 10.3-5.9zm28.8-12.3c1.2 0 2.1.9 2.1 2.1s-.9 2.1-2.1 2.1-2.1-.9-2.1-2.1 1-2.1 2.1-2.1z"/><path fill="#464126" d="M115.2 90.8c-3.6-.8-12.2-5.8-17.5-2.9-2.3 1.2-4.9 2.8-7.1 4.3 1.6-.2 3.4-.3 5.5-.3h24.2c.6-1.7 1-3.3 1-3.3s-2.5 2.9-6.1 2.2z"/><path fill="#3B371D" d="M127.5 21.3V8.6h-1c-16.5 0-21.7 11.2-23.2 16 10-3.2 21-3.3 24.2-3.3z"/><path fill="#464126" d="M76 98.1h3.5c.2-5.2.5-11.1.8-14.5.7-7.4-.5-15.1-.2-17 .2-1.9 2.6-4.3 2.9-5 .2-.7 3.8-4.8 3.8-4.8l3.1-4.8 9.1-2.9 8.1-1s8.2-4.8 20.4-5V21.3c-3.2 0-14.2.2-24.1 3.3-5.2 1.7-10.1 4.2-13.5 7.9-10.8 12.3-12.7 19.9-12.7 19.9l-.5 2.4-1.7 1.9 1 1.7s.2 2.4-.2 3.4-1.7 2.9-1.4 3.6c.2.7 1.2 2.9 1.2 2.9v8.2s-1.4.7-1.2 1.7c.2 1 1 4.3 1 4.3l.4 4.2.1 1 .1 10.4zm.2 4.2c.3 1.7 1 5.2 3 6.9v-1.3c0-1.2.1-3.3.2-5.7l-3.2.1z"/><path fill="#AA854B" d="M76.2 155c-.3.8-.6 1.6-1 2.5-4.7 12.1-15.1 36.5-32.6 65.9 4.3 3.8 8.8 7.4 13.5 10.6 6.8-24.4 14.8-51 22.4-69.2.1-2.2-.6-4.9-2.3-9.8z"/><path fill="#464126" d="M127.5 161.9v-.1c-2-.2-6.9-.5-12.5.6 0 0-2.9 6.7-7.4 6.7-4.6 0-3.8-8.6-3.8-8.6l1.2-3.8s2.9-2.4 3.6-2.6c.7-.2 3.8-2.4 3.8-2.4l6.5-.7h8.6v-8c-2.2-.1-7.8-.5-10.3-1.6-3.1-1.4-4.8-5.3-4.8-5.3s-12.5 4.3-18.2 11.3l-3.1 2.2-2.2-2.9s-3.4-4.3-3.8-6.5c-.5-2.2-2.4-6.2-3.1-8.9s-.2-4.6-.7-6.9-.6-5.9-.9-6.9c-.2-.7-.7-3.1-1-4.3-.1-.4-.1-.7-.1-.7s-.9 5.6-2.1 10.6c-.4 1.6-.8 3.9-1.1 6.3-.7 4.9-1.3 10.2-1.3 10.7 0 .4-.3 2.3-.4 4.1-.1 1.1-.1 2.1 0 2.8.2 1.9-.2 1.9 1.7 7.4.1.2.1.4.2.6 1.7 4.9 2.4 7.6 2.4 9.8v.4c0 2.4.7 4.6-1.2 8.4-1.9 3.8-2.9 4.1-3.1 7.2-.2 3.1.5 6.2.5 6.2s.7 3 1.4 5.6c.5 2 .9 3.8 1 4.2.2 1 3.6 4.6 2.4 7.9-1.2 3.4-3.1 6.9-3.4 8.4-.2 1.4-1 1.7-.7 5.5.2 3.8 1.4 4.6 1.4 7.4s-.7-1-1.7 6.7.7 9.6 1.4 12.2c0 .1.1.3.1.4 15.5 6.8 32.7 10.6 50.7 10.6v-94z"/><path fill="#77512D" d="M178.8 196.8c-.2 1-3.6 4.6-2.4 7.9 1.2 3.4 3.1 6.9 3.4 8.4.2 1.4 1 1.7.7 5.5-.2 3.8-1.4 4.6-1.4 7.4s.7-1 1.7 6.7-.7 9.6-1.4 12.2c0 .1-.1.3-.1.4 5.1-2.2 10.1-4.8 14.8-7.7-4.8-12.2-9.6-27-14.2-45-.6 2-1 3.8-1.1 4.2z"/><path fill="#8C6844" d="M177.3 165.2c0 2.4-.7 4.6 1.2 8.4 1.9 3.8 2.9 4.1 3.1 7.2.2 3.1-.5 6.2-.5 6.2s-.7 3-1.4 5.6c4.6 18 9.4 32.8 14.2 45 2-1.2 3.9-2.4 5.8-3.7-6.8-24.4-14.8-51-22.4-69.2v.5zm3.4-7.7c-.3-1-.5-2-.8-3.1-.1.2-.1.4-.2.6.4.8.7 1.6 1 2.5z"/><path fill="#978955" d="M249.5 147.3c-2.9 18.7-38.8 38.3-38.8 38.3s-16-16-18.4-27.1c-1.2-5.6-6.1-10.7-10.7-14.3.1 1.1.1 2.1 0 2.8-.2 1.9.2 1.9-1.7 7.4.2 1 .5 2 .8 3.1 4.7 12.1 15.1 36.5 32.6 65.9 19-17 33-39.7 39.1-65.4-.9-5.6-1.8-10.6-2.6-14.5 0 1.3-.1 2.5-.3 3.8z"/><path fill="#877C4B" d="M179.9 129.4c.7 4.9 1.3 10.2 1.3 10.7 0 .4.3 2.3.4 4.1 4.5 3.7 9.4 8.8 10.7 14.3 2.4 11 18.4 27.1 18.4 27.1s35.9-19.6 38.8-38.3c.2-1.3.3-2.5.3-3.7.5-16.2-13-24.1-29.1-23.6-11.9.3-27.9 2.5-36.7 3.8-.3 1.1-.7 2.1-1.3 2.9-.7 1.2-1.7 2.1-2.8 2.7zm63.9 2.1c10.1 12.9-3.1 30.9-11.5 35-11.5-4.6-20.1-10.1-26.3-23.5s-17.2-15.3-17.2-15.3c23.8-6.3 44.9-9.2 55 3.8z"/><path fill="#1D2617" d="M205.9 143c6.2 13.4 14.8 18.9 26.3 23.5 8.4-4.1 21.6-22 11.5-35-10.1-12.9-31.1-10.1-55.1-3.8.1-.1 11.1 1.9 17.3 15.3z"/><path fill="#C08C76" d="M180 98.1h.2c1.2 2.3 0 4.2 0 4.2h-.4c-.3 1.7-1 5.2-3 6.9v-1.3c-.1 1.8-.2 3.5-.3 5.2.1-.4.1-.7.1-.7s.9 5.6 2.1 10.6c.4 1.6.8 3.9 1.1 6.3 1.1-.6 2.1-1.5 2.9-2.7.5-.9 1-1.8 1.3-2.9 1.4-4.6 1.5-11 5.1-17.2 4.5-7.7 1.6-9.6 1-12.8-.6-3.2-.3-8-4.8-9.3-1.7-.5-3.5.6-5 2.1l-.1 1-.2 10.6z"/><path fill="#D8AA91" d="M132.6 101.5c.5-2.6 2.9-6.7 2.9-6.7h-8v6.7h5.1zm-4.1-9.6h7.1c-.6-1.7-1-3.3-1-3.3s2.6 2.9 6.2 2.2c3.6-.7 12.2-5.7 17.5-2.9 2.3 1.2 4.9 2.8 7.1 4.3 10.1 1.3 10.3 5.9 10.3 5.9h.9c-.2-5.2-.5-11.1-.8-14.5-.7-7.4.5-15.1.2-17-.2-1.9-2.6-4.3-2.9-5-.2-.7-3.8-4.8-3.8-4.8l-3.1-4.8-9.1-2.9-8.1-1s-8.6-5-21.3-5v48.8h.8zm-1 70s6.2-1 13.4.5c0 0 2.9 6.7 7.4 6.7 4.6 0 3.8-8.6 3.8-8.6l-1.2-3.8s-2.9-2.4-3.6-2.6c-.7-.2-3.8-2.4-3.8-2.4l-6.5-.7h-9.6v10.9h.1zm49.1-59.6h-.4c-.5 7.7-6.6 19-9.3 20.4-10.1 6.5-21.6 2.8-26.2.2-10.2-8.5-9.1-18.4-9.1-18.4h-4.2v38.4s8.1-.2 11.3-1.7c3.1-1.4 4.8-5.3 4.8-5.3s12.5 4.3 18.2 11.3l3.1 2.2 2.2-2.9s3.4-4.3 3.8-6.5c.5-2.2 2.4-6.2 3.1-8.9s.2-4.6.7-6.9.6-5.9.9-6.9c.2-.7.7-3.1 1-4.3.1-1.7.2-3.4.3-5.2 0-1.1-.1-3.1-.2-5.5z"/><path fill="#565032" d="M165.3 92.2c-2.1-1.5-4.8-3.1-7.1-4.3-5.3-2.9-13.9 2.2-17.5 2.9-3.6.7-6.2-2.2-6.2-2.2s.4 1.6 1 3.3h24.2c2.2 0 4 .1 5.6.3z"/><path fill="#464126" d="M127.5 21.3s13.3-.5 25.1 3.3c-1.5-4.8-6.7-16-23.2-16h-2l.1 12.7z"/><path fill="#565032" d="M176.6 102.3c.1 2.4.1 4.4.2 5.7v1.3c2-1.8 2.7-5.3 3-6.9l-3.2-.1zm-49.1-81v21.8c12.7 0 21.3 5 21.3 5l8.1 1L166 52l3.1 4.8s3.6 4.1 3.8 4.8 2.6 3.1 2.9 5c.2 1.9-1 9.6-.2 17 .3 3.5.6 9.3.8 14.5h3.5l.2-10.5.1-1 .4-4.2s.7-3.4 1-4.3c.2-1-1.2-1.7-1.2-1.7v-8.2s1-2.2 1.2-2.9c.2-.7-1-2.6-1.4-3.6s-.2-3.4-.2-3.4l1-1.7-1.7-1.9-.5-2.4s-1.9-7.7-12.7-19.9c-3.3-3.8-8.2-6.3-13.5-7.9-11.8-3.6-25.1-3.2-25.1-3.2z"/><path fill="#C79A59" d="M180.7 157.5c-.3-.9-.7-1.7-1-2.5-1.7 4.9-2.4 7.6-2.4 9.8 7.6 18.2 15.7 44.8 22.4 69.2 4.8-3.2 9.3-6.8 13.5-10.6-17.3-29.4-27.7-53.7-32.5-65.9z"/><path fill="#565032" d="M180.7 232.8c-1-7.7-1.7-3.8-1.7-6.7s1.2-3.6 1.4-7.4c.2-3.8-.5-4.1-.7-5.5s-2.2-5-3.4-8.4 2.2-6.9 2.4-7.9c.1-.4.5-2.2 1-4.2.7-2.7 1.4-5.6 1.4-5.6s.7-3.1.5-6.2c-.2-3.1-1.2-3.4-3.1-7.2-1.9-3.8-1.2-6-1.2-8.4v-.4c.1-2.2.8-4.9 2.4-9.8.1-.2.1-.4.2-.6 1.9-5.5 1.4-5.5 1.7-7.4.1-.7 0-1.8 0-2.8-.2-1.8-.4-3.7-.4-4.1 0-.5-.5-5.8-1.3-10.7-.3-2.4-.7-4.7-1.1-6.3-1.2-5-2.1-10.6-2.1-10.6s-.1.3-.1.7c-.3 1.2-.8 3.6-1 4.3-.2 1-.4 4.5-.9 6.9s0 4.3-.7 6.9-2.6 6.7-3.1 8.9-3.8 6.5-3.8 6.5l-2.2 2.9-3.1-2.2c-5.7-6.9-18.2-11.3-18.2-11.3s-1.7 3.8-4.8 5.3c-3.1 1.4-11.3 1.7-11.3 1.7v7.9h9.6l6.5.7s3.1 2.2 3.8 2.4 3.6 2.6 3.6 2.6l1.2 3.8s.7 8.6-3.8 8.6c-4.6 0-7.4-6.7-7.4-6.7-7.2-1.4-13.4-.5-13.4-.5v94h.5c18.2 0 35.5-3.8 51.2-10.6 0-.1.1-.2.1-.4.6-2.7 2.2-4.6 1.3-12.2z"/><circle fill="#A37864" cx="119.5" cy="82" r="2.1"/><path fill="#715835" d="M79.4 102.3h.4c.5 7.7 6.6 19 9.3 20.4 10.1 6.5 21.6 2.8 26.2.2 10.2-8.5 9.1-18.4 9.1-18.4h3.2v-3h-4.2c-.5-2.6-2.9-6.7-2.9-6.7h7v-2.9H96.2c-2.1 0-4 .1-5.5.3-10.1 1.3-10.3 5.9-10.3 5.9h-4.6c-1.2 2.3 0 4.2 0 4.2h3.6zm3.5-5.3c4.5-4.6 13.7-4.1 19.6-4.1s16.2-.3 18.7 5.8c2.8 7 1.8 15.9-6.2 21.8-7.6 4.9-17.5 5.3-25.9-.4-6.4-5.8-8.6-20.7-6.2-23.1z"/><path fill="#071300" d="M89 120.1c8.5 5.7 18.4 5.3 25.9.4 8-5.9 9.1-14.8 6.2-21.8-2.5-6.1-12.9-5.8-18.7-5.8s-15-.5-19.5 4.1c-2.4 2.4-.2 17.3 6.1 23.1z"/><path fill="#8D6F45" d="M165.3 92.2c-1.6-.2-3.4-.3-5.5-.3h-32.3v2.9h8s-2.4 4.2-2.9 6.7h-5.2v3h4.2s-1.1 9.9 9.1 18.4c4.6 2.6 16.1 6.4 26.2-.2 2.7-1.5 8.8-12.8 9.3-20.4h4s1.2-1.8 0-4.2h-4.6s-.2-4.6-10.3-5.9zm1.7 27.9c-8.5 5.7-18.4 5.3-25.9.4-8-5.9-9.1-14.8-6.2-21.8 2.5-6.1 12.9-5.8 18.7-5.8s15.1-.6 19.6 4.1c2.3 2.4.1 17.3-6.2 23.1z"/><path fill="#1D2617" d="M173.1 97c-4.5-4.6-13.7-4.1-19.6-4.1s-16.2-.3-18.7 5.8c-2.8 7-1.8 15.9 6.2 21.8 7.6 4.9 17.5 5.3 25.9-.4 6.4-5.8 8.6-20.7 6.2-23.1z"/></svg>