<svg xmlns="http://www.w3.org/2000/svg" width="256" height="256"><circle fill="#B1B3B5" cx="128" cy="128" r="128"/><path fill="#2A593A" d="M196.8 229.2c-.4 2.5-.7 4.9-1 7.4 18.1-11.3 33.2-27.1 43.7-45.8l-27.7-12.7c-2.7 5.6-10.7 23.4-15 51.1z"/><path fill="#141019" d="M195.4 172.5c5.8.6 9.6.8 9.6.8l-6.8-28.1c-.3 4.9-1 12.4-2.2 23.3-.1 1.3-.4 2.7-.6 4zm-24.2-27.6c-2.2 6.9-9.7 16.1-13.6 20.6 1.9.6 3.7 1.1 5.7 1.6 4.4-11.7 7.9-22.2 7.9-22.2zm-19.3 18.6c.2-.2.4-.4.5-.6l4 2.2c.3.1.5.2.8.3 5.9-9.5 11.3-29.3 13.2-45.1-3.4 6.7-8.6 26.8-16 35-1.1 1.2-2.4 2.2-3.9 3.1.3 1.6.7 3.4 1.1 5.1.1-.1.2-.1.3 0z"/><path fill="#CCAD9F" d="M151.7 163.7c0-.1-.1-.2-.1-.3-.5-1.8-.8-3.5-1.1-5.1-8.7 4.9-22.5 4.6-22.5 4.6v10.5c0-.1 17.1-2.6 23.7-9.7z"/><path fill="#DEBCAD" d="M128 37.6v97.5s1.2.2 2.3-.8c1.7-.8 3.8-.1 5 1.3 2.3 2.2 2.5 2.8 4.9 3.7 0 0-2.1 3.9-12.2 3.9v19.6s13.8.3 22.5-4.6c1.5-.9 2.8-1.9 3.9-3.1 7.4-8.1 12.6-28.3 16-35 .7-5.7 1-10.9.7-14.9-.5-6.4-2.6-15-5.3-23.8-2-.8-4.2-1.5-5.5-1.9-3-.8-4.2 0-7.5 0s-11 4.3-13.3 4.8c-2.2.5-.8-3.2-.8-3.2s11.8-5.6 18.5-4.3c2.9.5 5.7 1.8 8.1 3.1-4.2-13.2-9.9-26.6-14-33.8-1.8-3.1-4.2-5.2-6.8-6.5.2 2.2.9 2.6.9 2.6-8.3 8.3-11 0-11 0s1.3-2.1 2.8-4.8c-5-.7-9.2.2-9.2.2z"/><path fill="#68473E" d="M157.2 76.9c-6.7-1.3-18.5 4.3-18.5 4.3s-1.4 3.7.8 3.2 9.9-4.8 13.3-4.8 4.5-.8 7.5 0c1.3.4 3.5 1.1 5.5 1.9-.2-.5-.3-1-.5-1.5-2.3-1.3-5.2-2.6-8.1-3.1z"/><path fill="#9F595D" d="M140.2 139.3c-2.4-.9-2.6-1.5-4.9-3.7-1.2-1.4-3.3-2.1-5-1.3-1.1 1-2.3.8-2.3.8v8.1c10.1 0 12.2-3.9 12.2-3.9z"/><path fill="#316342" d="M205.1 176.3c-3.4-.7-6.9-1.2-10.2-1.6-6.2 24.2-31.7 47.8-31.7 47.8l4.8-9.3-8.3 5.1c5.4-4.5 11.6-32.9 11.6-32.9-5.9 14-21.6 24.3-21.6 24.3l5.8-12c-5.5 5.1-13.1 9.1-23.6 9.9h.2v48.3c20.7-.6 40.1-6.2 57.2-15.5.5-4.3 1.1-8.6 2-12.5 5.6-25.3 13.3-50 13.8-51.6z"/><path fill="#1E4C28" d="M149.6 196.3c3.6-4.4 8.8-16.5 13.1-27.8l-5.3-2.9c-1.4 1.6-2.3 2.6-2.3 2.6.7-.8 1.3-1.7 2-2.7l-.7-.4-4-2.2c-.2.2-.3.4-.5.6l-.2.2c-6.6 7.1-23.7 9.6-23.7 9.6v34.4l3.8-.2c10.5-.8 18.1-4.8 23.6-9.9l3.2-6.5-9 5.2z"/><path fill="#53886D" d="M131.8 207.6l-3.8.2V256c1.4 0 2.7 0 4.1-.1v-48.3h-.3z"/><path fill="#0A0909" d="M211.8 178.1c.6-1.3 1-1.9 1-1.9-2.8-4.8-7.7 0-7.7 0v.1c-.5 1.6-8.2 26.3-13.8 51.6-.9 4-1.5 8.2-2 12.5 2.2-1.2 4.4-2.5 6.6-3.8.3-2.4.6-4.9 1-7.4 4.2-27.7 12.2-45.5 14.9-51.1z"/><path fill="#2F2C35" d="M151.3 46.2c4.1 7.1 9.8 20.6 14 33.8.2.5.3 1 .5 1.5 2.8 8.8 4.8 17.4 5.3 23.8.3 4 0 9.2-.7 14.9-1.9 15.8-7.3 35.6-13.2 45.1l-.1.1c-.7 1-1.3 2-2 2.7 0 0 .9-1 2.3-2.6l.2-.2c3.9-4.5 11.4-13.6 13.6-20.6 0 0-3.5 10.5-7.9 22.2l-.6 1.5c-4.3 11.3-9.5 23.3-13.1 27.8l9-5.1-3.2 6.5-5.8 12s15.7-10.2 21.6-24.3c0 0-6.2 28.4-11.6 32.9l8.3-5.1-4.8 9.3s25.5-23.6 31.7-47.8c.2-.7.4-1.4.5-2.1.3-1.3.5-2.7.7-4 1.2-11 1.8-18.4 2.2-23.3.5-6.9.4-8.9.4-8.9s2.2 15.6 8.6 16c0 0-4.8-5.4-8-29.4S189 63.1 184.2 50c-3.7-10.2-13.2-31.2-34.6-38.9-1.2 5.1-2.3 9.8-3.1 13.4-2 8.4-2.2 12.8-2 15.2 2.6 1.3 5 3.4 6.8 6.5zM128 37.6s4.2-.9 9.2-.2c1.5-2.7 3.2-6 4.2-8.9 1-2.6 3.1-9.9 5.5-18.3-5.5-1.6-11.8-2.3-18.9-1.8v29.2z"/><path fill="#DEBCAD" d="M141.4 28.5c-1.1 2.9-2.8 6.2-4.2 8.9-1.5 2.8-2.8 4.8-2.8 4.8s2.7 8.3 11 0c0 0-.6-.4-.9-2.6-.2-2.4 0-6.8 2-15.2.9-3.6 1.9-8.2 3.1-13.4.7-2.8 1.4-5.8 2.2-8.9-.8-.2-1.7-.3-2.5-.5-.8 2.9-1.6 5.7-2.4 8.4-2.4 8.6-4.5 15.9-5.5 18.5z"/><path fill="#204D31" d="M44.2 178.1l-27.7 12.7c10.5 18.7 25.6 34.4 43.7 45.8-.3-2.4-.6-4.9-1-7.4-4.3-27.7-12.3-45.5-15-51.1z"/><path fill="#000003" d="M103.6 162.8c.2.2.3.4.5.6.1 0 .2-.1.3-.1.5-1.8.8-3.5 1.1-5.1-1.5-.9-2.8-1.9-3.9-3.1-7.4-8.1-12.6-28.3-16-35 1.9 15.8 7.3 35.6 13.2 45.1.3-.1.5-.2.8-.3l4-2.1zm-45.8-17.6L51 173.3s3.8-.2 9.6-.8c-.3-1.3-.5-2.7-.7-4-1.1-11-1.8-18.4-2.1-23.3zm27-.3s3.5 10.5 7.9 22.2c1.9-.5 3.8-1 5.7-1.6-4-4.6-11.4-13.7-13.6-20.6z"/><path fill="#B49A8E" d="M104.3 163.7c6.6 7.1 23.7 9.6 23.7 9.6v-10.5s-13.8.3-22.5-4.6c-.3 1.6-.7 3.4-1.1 5.1 0 .2-.1.3-.1.4z"/><path fill="#CCAD9F" d="M104.7 46.2c-4.1 7.1-9.8 20.6-14 33.8 2.3-1.3 5.2-2.6 8.1-3.1 6.7-1.3 18.5 4.3 18.5 4.3s1.4 3.7-.8 3.2-9.9-4.8-13.3-4.8c-3.4 0-4.5-.8-7.5 0-1.3.4-3.5 1.1-5.5 1.9-2.8 8.8-4.8 17.4-5.3 23.8-.3 4 0 9.2.7 14.9 3.4 6.7 8.6 26.8 16 35 1.1 1.2 2.4 2.2 3.9 3.1 8.7 4.9 22.5 4.6 22.5 4.6v-19.7c-10.1 0-12.2-3.9-12.2-3.9 2.4-.9 2.6-1.5 4.9-3.7 1.2-1.4 3.3-2.1 5-1.3 1.1 1 2.3.8 2.3.8V37.6s-4.2-.9-9.2-.2c1.5 2.8 2.8 4.8 2.8 4.8s-2.7 8.3-11 0c0 0 .6-.4.9-2.6-2.6 1.4-5 3.5-6.8 6.6z"/><path fill="#68473E" d="M103.2 79.6c3.4 0 11 4.3 13.3 4.8 2.2.5.8-3.2.8-3.2s-11.8-5.6-18.5-4.3c-2.9.5-5.7 1.8-8.1 3.1-.2.5-.3 1-.5 1.5 2-.8 4.2-1.5 5.5-1.9 3.1-.8 4.2 0 7.5 0z"/><path fill="#9F595D" d="M125.7 134.3c-1.7-.8-3.8-.1-5 1.3-2.3 2.2-2.5 2.8-4.9 3.7 0 0 2.1 3.9 12.2 3.9v-8.1s-1.2.2-2.3-.8z"/><path fill="#2A593A" d="M124.2 207.6c-10.5-.8-18.1-4.8-23.6-9.9l5.8 12s-15.7-10.2-21.6-24.3c0 0 6.2 28.4 11.6 32.9l-8.3-5.1 4.8 9.3s-25.5-23.6-31.7-47.8c-3.3.4-6.8.9-10.2 1.6.5 1.6 8.2 26.3 13.8 51.6.9 4 1.5 8.2 2 12.5 17.1 9.3 36.5 14.9 57.2 15.5v-48.3h.2z"/><path fill="#0E3C1B" d="M128 182.7v-9.4s-17.1-2.5-23.7-9.6l-.2-.2c-.2-.2-.4-.4-.5-.6l-4 2.2-.7.4c.7 1 1.3 2 2 2.7 0 0-.9-1-2.3-2.6l-5.3 2.9c4.3 11.3 9.5 23.3 13.1 27.8l-9-5.1 3.2 6.5c5.5 5.1 13.1 9.1 23.6 9.9l3.8.2v-25.1z"/><path fill="#3F6D56" d="M124.2 207.6h-.2v48.3c1.4 0 2.7.1 4.1.1v-48.2l-3.9-.2z"/><path fill="#020000" d="M50.9 176.3c0-.1 0-.1 0 0 0-.1-5-4.9-7.8-.1 0 0 .4.6 1 1.9 2.8 5.6 10.8 23.4 15 51.1.4 2.5.7 4.9 1 7.4 2.1 1.3 4.3 2.6 6.6 3.8-.5-4.3-1.1-8.6-2-12.5-5.6-25.3-13.3-50-13.8-51.6z"/><path fill="#141019" d="M128 37.6V8.4c-7.1-.5-13.4.2-18.9 1.8 2.4 8.4 4.5 15.7 5.5 18.3 1.1 2.9 2.8 6.2 4.2 8.9 5-.7 9.2.2 9.2.2zM92.9 222.5l-4.8-9.3 8.3 5.1c-5.4-4.5-11.6-32.9-11.6-32.9 5.9 14 21.6 24.3 21.6 24.3l-5.8-12-3.2-6.5 9 5.1c-3.6-4.4-8.8-16.5-13.1-27.8l-.6-1.5c-4.4-11.7-7.9-22.2-7.9-22.2 2.2 6.9 9.7 16.1 13.6 20.6l.2.2c1.4 1.6 2.3 2.6 2.3 2.6-.7-.8-1.3-1.7-2-2.7l-.1-.1c-5.9-9.5-11.3-29.3-13.2-45.1-.7-5.7-1-10.9-.7-14.9.5-6.4 2.6-15 5.3-23.8.2-.5.3-1 .5-1.5 4.2-13.2 9.9-26.6 14-33.8 1.8-3.1 4.2-5.2 6.8-6.5.2-2.4 0-6.8-2-15.2-.9-3.6-1.9-8.2-3.1-13.4C85 18.8 75.5 39.9 71.8 50 67 63.1 60 98.9 56.8 122.8c-3.2 23.9-8 29.4-8 29.4 6.4-.3 8.6-16 8.6-16s-.1 2.1.4 8.9c.3 4.9 1 12.4 2.2 23.3.1 1.3.4 2.7.7 4 .1.7.3 1.4.5 2.1 6.2 24.4 31.7 48 31.7 48z"/><path fill="#CCAD9F" d="M109.5 24.5c2 8.4 2.2 12.8 2 15.2-.2 2.2-.9 2.6-.9 2.6 8.3 8.3 11 0 11 0s-1.3-2.1-2.8-4.8c-1.5-2.7-3.2-6-4.2-8.9-1-2.6-3.1-9.9-5.5-18.3-.8-2.7-1.6-5.6-2.4-8.4-.9.1-1.7.3-2.5.5.8 3.1 1.5 6 2.2 8.9 1.2 4.9 2.2 9.6 3.1 13.2z"/></svg>