<svg id="Layer_1" xmlns="http://www.w3.org/2000/svg" width="256" height="256"><style>.st0{fill:#4a4b4c}.st1{fill:#71c6e9}.st2{fill:#8870ac}.st4{fill:#84c085}.st5{fill:#b5b5b5}</style><circle class="st0" cx="128" cy="128" r="128"/><path class="st1" d="M120.2 66.9l3.2-1.2-7.4-20.1c-1 .5-2.1.8-3.3 1.1l7.5 20.2z"/><path class="st2" d="M115.7 131.7l-1.8-2.9-43.3 26.7c.6 1 1.1 2 1.6 3.1l43.5-26.9zm-62.6 12c1.2.2 2.3.4 3.4.8l42.9-99c-1.1-.5-2.1-1.1-3-1.7l-43.3 99.9z"/><path d="M163.5 128.8l-2 2.8 45.4 31.8 1.8-3-45.2-31.6z" fill="#bd5751"/><path class="st1" d="M184.5 97.7l1.6 3.1 31.8-16.3c-.6-1-1-2.1-1.4-3.2l-32 16.4z"/><path class="st4" d="M127.8 24.6l46.9-15.8c-1.7-.7-3.4-1.3-5.2-1.9L127 21.2c.5 1.1.7 2.3.8 3.4zm0 5.6c-.2 1.2-.4 2.3-.8 3.4l91.2 34.6c.6-1 1.4-2 2.2-2.8l-92.6-35.2z"/><path class="st5" d="M128 27.2c0-.9-.1-1.7-.2-2.6-.1-1.2-.4-2.3-.7-3.4C124.6 13 116.9 7 107.9 7c-11.1 0-20.1 9-20.1 20.1 0 6.8 3.4 12.8 8.6 16.5.9.7 2 1.2 3 1.7 2.6 1.2 5.5 1.9 8.5 1.9 1.7 0 3.3-.2 4.9-.6 1.1-.3 2.2-.6 3.3-1.1 5.1-2.3 9.1-6.6 10.9-11.9.4-1.1.6-2.2.8-3.4.1-1 .2-2 .2-3zm92.4 38.2c-.9.9-1.6 1.8-2.2 2.8-1.5 2.4-2.4 5.3-2.4 8.4 0 1.6.2 3.2.7 4.7.3 1.1.8 2.2 1.4 3.2 2.7 4.8 7.9 8.1 13.8 8.1 7.3 0 13.5-5 15.3-11.7-2.6-6.6-5.8-12.9-9.4-18.9-1.8-.7-3.8-1.2-5.9-1.2-4.4-.1-8.4 1.7-11.3 4.6zm-11.7 95.1c-.6 1-1.3 1.9-1.8 3-2.7 4.9-4.2 10.6-4.2 16.6 0 14.6 9 27.1 21.7 32.2 15.2-17.4 25.8-38.9 29.8-62.7-5-2.7-10.7-4.3-16.8-4.3-11.9-.1-22.5 6-28.7 15.2z"/><path class="st4" d="M81.1 215.8c1-.6 2-1.2 3.1-1.6l-19.7-26.6c-.9.7-1.9 1.4-2.9 1.9l19.5 26.3zM46 143.6L27.5 48.7c-1 1.2-1.9 2.4-2.8 3.7l17.9 91.9c1.1-.3 2.2-.5 3.4-.7zm94.1 16.2l-2.8-2-39.4 57.5c1 .6 1.9 1.3 2.8 2l39.4-57.5z"/><path class="st2" d="M38.6 190.4l-8.3 20.3c.8 1 1.7 2 2.5 2.9l8.9-21.9c-1-.4-2.1-.8-3.1-1.3zm35.3 38.7c0-.6 0-1.2.1-1.7H47.4c1.5 1.2 2.9 2.3 4.4 3.5H74c0-.6-.1-1.2-.1-1.8z"/><path class="st5" d="M49.3 143.4c-1.1 0-2.3.1-3.4.2-1.2.2-2.3.4-3.4.7-10.4 2.9-18 12.5-18 23.8 0 9.8 5.7 18.2 13.9 22.3 1 .5 2.1.9 3.2 1.3 2.4.8 4.9 1.2 7.6 1.2 4.5 0 8.7-1.2 12.3-3.3 1-.6 2-1.2 2.9-1.9 5.8-4.5 9.5-11.6 9.5-19.5 0-3.4-.7-6.6-1.9-9.5-.4-1.1-1-2.1-1.6-3.1-3.1-5.3-8.2-9.3-14.1-11.1-1.1-.3-2.3-.6-3.4-.8-1.1-.2-2.3-.3-3.6-.3zm24.7 84c-.1.6-.1 1.1-.1 1.7s0 1.2.1 1.7c.9 8 7.6 14.2 15.8 14.2 8.8 0 15.9-7.1 15.9-15.9 0-4.6-2-8.8-5.2-11.7-.8-.8-1.8-1.5-2.8-2-2.3-1.4-5.1-2.1-8-2.1-2 0-3.9.4-5.6 1-1.1.4-2.2.9-3.1 1.6-3.8 2.5-6.5 6.7-7 11.5z"/><circle cx="145.7" cy="115.1" r="60" fill="#efeff0"/><path class="st0" d="M170.2 71V49.9h-15.6l-7.3 14.9h-1.2c-27.9 0-50.6 22.9-50.6 51.2 0 11.1 3.5 21.3 9.4 29.7l4.3-8.4c-3.6-6.3-5.6-13.6-5.6-21.3 0-23 17.9-41.8 40.3-42.9l-46.4 94.7 18.9.4 15.3-34.6h23.2v6.9l17.1-13.1-16.5-15.5v6.7H138l17.6-41.9v30.8l14.3 13.5V80.3c11.3 7.7 18.7 20.8 18.7 35.7 0 23.7-19 43-42.5 43-7.3 0-14.1-1.8-20.1-5.1l-3.6 7.4c7.1 3.8 15.1 5.9 23.6 5.9 27.9 0 50.6-22.9 50.6-51.2.1-19.5-10.6-36.4-26.4-45z"/><path class="st0" d="M155 145.2h14.9v-12.7z"/></svg>