<svg xmlns="http://www.w3.org/2000/svg" width="256" height="256"><circle fill="#B1B3B5" cx="128" cy="128" r="128"/><path fill="#929DA5" d="M93.7 173.5c-4.1.4-4.4 1.3-4.4 1.3s1.7 2.3 4.5 5.8c0-2.5-.1-4.9-.1-7.1z"/><path fill="#9DAFBD" d="M110.1 210.7c-5.8 4.9-16.5 15.6-20.9 31.9l-3 1c.4 1.9.7 3.8 1.1 5.8 8.6 2.9 17.6 4.9 26.9 5.9l3.1-22.9c-3.6-6.8-6.4-18.5-7.2-21.7z"/><path fill="#384E68" d="M117.4 232.3l-3.1 22.9c4.5.5 9.1.7 13.7.7v-21.1c-6.2.1-10.6-2.5-10.6-2.5z"/><path fill="#A37864" d="M93.3 164.2c.1 2.3.3 5.5.4 9.3.1 2.3.1 4.7.1 7.1 6 7.4 17.1 20.3 28.7 28.9l5.5 1.1v-33.9c-16.3 0-20.6-1.9-29.2-7.7-1.9-1.2-3.8-2.9-5.5-4.8z"/><path fill="#2B3E54" d="M114.1 207.7s-1.6 1-4 3c.7 3.2 3.6 14.9 7.2 21.6 0 0 4.4 2.5 10.6 2.5v-21.7l-13.8-5.4z"/><path fill="#B2C6D5" d="M93.7 180.6c-2.8-3.5-4.5-5.8-4.5-5.8-2.9 2.6-4.5 4.4-5.7 6.1l-.8 1.2c-.2.5-.5 1.1-.7 1.9-1.5 12.3-.3 29.4 2.1 47.8.6 3.8 1.3 7.7 2.1 11.8l3-1c4.4-16.3 15.1-27 20.9-31.9 2.4-2 4-3 4-3l13.9 5.5c-1.8-1.1-3.7-2.4-5.5-3.7-11.6-8.6-22.8-21.5-28.8-28.9z"/><path fill="#000002" d="M66.4 232.3l-10.7-6.7 8.6-33.6c5-4.1 11.8-7.7 15.8-9.6-17 7.9-40.1 19.3-52.7 24.7 6.2 7.9 13.4 15.1 21.3 21.3-.1-.3-.1-.4-.1-.4l17.8 4.3zm15.7-49.2c0 .3-.1.6-.1 1 .3-.8.5-1.5.7-1.9l-.6.9zm2.1 48.7c.8 5.7 1.7 11.6 2.6 17.4.2.1.4.1.5.2-.4-1.9-.7-3.9-1.1-5.8-.7-4.1-1.4-8-2-11.8z"/><path fill="#17181A" d="M84.2 231.8c-2.5-18.3-3.6-35.4-2.1-47.8 0-.3.1-.7.1-1l.6-1 .8-1.2s-1.3.6-3.4 1.6c-4 1.9-10.8 5.5-15.8 9.6l-8.6 33.6 10.7 6.7-17.9-4.3s0 .2.1.4c11.3 8.9 24.2 16 38.1 20.7-1-5.7-1.9-11.6-2.6-17.3z"/><path fill="#929DA5" d="M162.3 180.6c2.8-3.5 4.5-5.8 4.5-5.8s-.3-1-4.4-1.3c-.1 2.2-.2 4.6-.1 7.1z"/><path fill="#B2C6D5" d="M166.8 242.6c-4.4-16.3-15.1-27-20.9-31.9-.7 3.2-3.6 14.9-7.2 21.6l3.1 22.9c9.3-1 18.3-3 26.9-5.9.4-1.9.7-3.9 1.1-5.8l-3-.9z"/><path fill="#3D5671" d="M138.6 232.3s-4.4 2.5-10.6 2.5V256c4.6 0 9.2-.3 13.7-.7l-3.1-23z"/><path fill="#B17D6B" d="M162.3 180.6c0-2.5 0-4.9.1-7.1.1-3.7.3-7 .4-9.3-1.8 1.9-3.6 3.6-5.5 4.9-8.6 5.7-12.9 7.7-29.2 7.7v33.9l5.5-1.1c11.5-8.7 22.7-21.6 28.7-29z"/><path fill="#384E68" d="M138.6 232.3c3.6-6.7 6.5-18.4 7.2-21.6-2.4-2-4-3-4-3l-13.9 5.5v21.7c6.3 0 10.7-2.6 10.7-2.6z"/><path fill="#CDD9E0" d="M141.9 207.7s1.6 1 4 3c5.8 4.9 16.5 15.6 20.9 31.9l3 1c.8-4.1 1.5-8.1 2.1-11.8 2.5-18.3 3.6-35.4 2.1-47.8-.3-.8-.5-1.5-.7-1.9l-.8-1.2c-1.3-1.7-2.9-3.5-5.7-6.1 0 0-1.7 2.3-4.5 5.8-6 7.4-17.1 20.3-28.7 28.9-1.8 1.4-3.7 2.6-5.5 3.7l13.8-5.5z"/><path fill="#17181A" d="M191.7 192l8.6 33.6-10.7 6.7 17.8-4.3s0 .2-.1.4c7.9-6.3 15.1-13.4 21.3-21.3-12.6-5.4-35.7-16.8-52.7-24.7 4 2 10.8 5.5 15.8 9.6zm-17.8-8.9l-.6-1c.2.5.5 1.1.7 1.9-.1-.3-.1-.6-.1-.9zm-2.1 48.7c-.6 3.8-1.3 7.7-2.1 11.8-.4 1.9-.7 3.8-1.1 5.8.2-.1.4-.1.5-.2 1.1-5.8 2-11.7 2.7-17.4z"/><path fill="#282A2B" d="M189.6 232.3l10.7-6.7-8.6-33.6c-5-4.1-11.8-7.7-15.8-9.6-2.1-1-3.4-1.6-3.4-1.6l.8 1.2.6 1c0 .3.1.6.1 1 1.5 12.3.3 29.4-2.1 47.8-.8 5.7-1.7 11.6-2.6 17.4 13.9-4.7 26.8-11.8 38.1-20.7.1-.3.1-.4.1-.4l-17.9 4.2z"/><path fill="#A37864" d="M75.1 100.1c-2.2-2.4.2-6-2.4-9.1s-1-5-1-7.4c0-1.4-1.2-2.4-2.2-3.1-.9-.5-1.9-.7-2.8-.3-2.9 1.2-2.6 6.5-1.4 11.5 1.2 5 .5 11.7 2.2 14.8 1.7 3.1 2.6 8.9 3.4 13.4.7 4.3 1.8 9.8 8 8.1-.7-9.2-1.4-20.1-2.3-26.3-.4-.3-.9-.8-1.5-1.6z"/><path fill="#C08C76" d="M101.6 41.7l-1.5-.3c-5.5 1.5-10.3 3-10.3 3L87.6 46l-1.2.9c-2.2 2-3.7 5.3-3.7 5.3l1.1 1.1-1.4 3.5 2.1 1.8-2.4 4.3 2.5.2-1.3 5.3h1.9l-2.1 7.7h1.4s-3 5.4-3.2 5.9c-.2.5 2.7.2 2.7.2L81.7 88l2.4.5-6.7 13.6v-.7c-.1.7-.2 1.1-.2 1.1l-.7-.8c.9 6.3 1.6 17.1 2.3 26.3.6 7.5 1.2 14 1.9 16.1 1.3 3.7 6.3 13.3 12.5 20 1.8 1.9 3.6 3.6 5.5 4.9 8.6 5.7 12.9 7.7 29.2 7.7V72.6c-5.6 0-4.3.1-9.9-.8S97.7 75 97.7 75c9.9-5.9 19.3-4.8 23.3-4.5 4 .3 7 0 7 0V68c-9.3-1.8-23.3-1.1-23.3-1.1 6.5-2.6 23.3-.8 23.3-.8V63c-7.1 0-8.6-.3-12.5-1.4-3.9-1.1-12.5.8-12.5.8s2.2-1 5.7-2.4 7.8-.3 10.1 1c2.2 1.3 9.2 0 9.2 0V43c-4.3 0-8.4-3.1-14.1-3.6-5.8-.6-12.3 2.3-12.3 2.3zm-3.3 40.9c4-1.4 19 4.5 19 4.5 2.2 1.8 2.1 3.5 2.1 3.5s-11.3-4.2-16.6-4.2c-5.3 0-13.7 6.9-13.7 6.9v-3.8c-.1 0 5.2-5.4 9.2-6.9z"/><path fill="#1A110A" d="M71.7 83.6c0 2.4-1.7 4.3 1 7.4s.2 6.7 2.4 9.1c.7.8 1.1 1.3 1.5 1.6.7.7.7.8.7.8s.1-.4.2-1.1c0-1.4.1-4.6.3-5.3.3-1 .3-4.5.3-4.5l-1.9-2.1s1.8-4 1.8-4.5-3.5 2.1-3.5 2.1 3.8-5.9 4-6.7-1.4-2.4-1.1-3c.3-.6 1.3-3.8 1.6-4.5.3-.6-3.2 1.4-3.2 1.4l3.4-7.5-4.6 1.8 3.2-8-5.3 2.1s2.7-6.7 5.9-10.1c3.1-3.3 9.4-6.6 9.6-6.7l2.2-1.6s4.8-1.5 10.3-3L89.9 39s14.1.5 15.3.5c1.2 0-2.2-1.9-2.2-1.9l12.2-.7s-11.6-7.8-14.8-9.5c-.6-.2-.9-.3-.8-.3.1 0 .4.1.8.3 3.4 1.1 16.7 4.9 16.7 4.9s-2.4-3.1-3.4-4.1c-1-1 5.7 1.7 5.7 1.7s-3.1-6-3.4-7.2c-.2-1.2 10.3 12.5 10.3 12.5l1.4 1v-7c-1.7-3.8-3.5-8-3.5-8l3.5 3.4v-16s-10.8-1.2-22.5 5-15.6 3.1-20.8 7.7c-5.3 4.6-11.3 13.2-13.2 16.5-1.9 3.4-5 11.7-5.3 18.7-.2 6.9 1.9 16.8 1.9 23.2 0 0 .7.3 1.4.8 1.3.7 2.5 1.7 2.5 3.1zm10.5-20.8z"/><path fill="#1A110A" d="M87.7 45.9c-.4.2-.8.6-1.2.9l1.2-.9z"/><path fill="#5D4E49" d="M89 89.5v3.8s8.5-6.9 13.7-6.9c5.3 0 16.6 4.2 16.6 4.2s.2-1.8-2.1-3.5c0 0-15-5.9-19-4.5-3.9 1.5-9.2 6.9-9.2 6.9z"/><path fill="#6C6866" d="M72.3 62.7l5.3-2.1-3.2 8 4.6-1.8-3.4 7.5s3.5-2.1 3.2-1.4c-.3.6-1.3 3.8-1.6 4.5-.3.6 1.3 2.2 1.1 3s-4 6.7-4 6.7 3.5-2.6 3.5-2.1-1.8 4.5-1.8 4.5l1.9 2.1s0 3.5-.3 4.5c-.2.7-.3 3.9-.3 5.3v.7L84 88.5l-2.3-.5 2.6-6.1s-2.9.3-2.7-.2c.2-.5 3.2-5.9 3.2-5.9h-1.4l2.1-7.7h-1.9l1.3-5.3-2.5-.2 2.4-4.3-2.1-1.8 1.4-3.5-1.1-1.1s1.5-3.3 3.7-5.3c.4-.4.8-.7 1.2-.9-.2.1-6.4 3.4-9.6 6.7-3.3 3.6-6 10.3-6 10.3zm28.2-35.3c-.4-.2-.6-.3-.8-.3-.1 0 .2.1.8.3zm27.5 8.8l-1.4-1s-10.5-13.7-10.3-12.5c.2 1.2 3.4 7.2 3.4 7.2s-6.7-2.6-5.7-1.7c1 1 3.4 4.1 3.4 4.1s-13.3-3.8-16.7-4.9c3.2 1.7 14.8 9.5 14.8 9.5l-12.2.7s3.4 1.9 2.2 1.9c-1.2 0-15.3-.5-15.3-.5l10.3 2.3 1.5.3s6.5-2.9 12.2-2.4c5.7.5 9.8 3.6 14.1 3.6v-6.6z"/><path fill="#C08C76" d="M185 85.8c0 2.4 1 2.1-1.6 5.2s-1 3.6-3.1 6c-.1.1-.1.2-.2.3-.1 1.4-.3 2.9-.5 4.3-.9 6.2-1.6 17.2-2.4 26.5 6.3 1.7 7.4-3.8 8-8.1.7-4.6 1.7-10.3 3.4-13.4 1.7-3.1 1-9.8 2.2-14.8 1.2-4.9 1.4-10-1.2-11.4v1.3c-.1 0-4.6 1.7-4.6 4.1z"/><path fill="#D7A990" d="M162.7 164.2c6.2-6.8 11.2-16.3 12.5-20 .7-2.1 1.4-8.6 1.9-16.1.7-9.3 1.4-20.3 2.4-26.5.2-1.4.4-2.9.5-4.3-2.1 2.8-4.9 12.5-4.9 12.5s0-1-.1-2.6v1l-5.4-20 2.4-.3-2.1-6.2s2.8.5 2.7.1c-.1-.5-2.7-6.1-2.7-6.1l1.4.1-1.5-7.8 1.9.2-.9-5.4h2.6l-2-4.5 2.2-1.6-1.2-3.6-.9-.6s-.8-3.9-2.4-6.6l-10.7-11.1c-.4.6-.9 1.1-1.5 1.7-3 2.6-8.8 2.7-14.5 4.5-5.6 1.7-13.9 2.1-14.3 2.1v18s7 1.3 9.2 0c2.2-1.3 6.5-2.4 10.1-1 3.5 1.4 5.7 2.4 5.7 2.4s-8.6-1.9-12.5-.8c-3.9 1.1-5.5 1.4-12.5 1.4v3.1s16.7-1.8 23.3.8c0 0-14-.6-23.3 1.1v2.6s3 .3 7 0 13.4-1.4 23.3 4.5c0 0-14.8-4.2-20.4-3.2s-4.2.8-9.9.8v104c16.3 0 20.6-1.9 29.2-7.7 1.8-1.3 3.7-3 5.4-4.9zm-24.3-77.1s15-5.9 19-4.5c4 1.4 9.3 6.9 9.3 6.9v3.8s-8.5-6.9-13.7-6.9c-5.3 0-16.6 4.2-16.6 4.2s-.2-1.8 2-3.5z"/><path fill="#261E18" d="M133.9 25l7.3 6.5s-4.9-12.1-10.5-14.7c0 0 12.9 5.7 15 10.4 2.1 4.6 0-5.4 0-5.4l5.6 4.3s-7-11.3-15-13.9c0 0 20.9 6.5 22.2 12.9 1 5 1.3 7.5-.1 9.5l10.7 11.1c-.5-.8-1.1-1.6-1.7-2 0 0 7.9 5.4 10.8 9 2.9 3.6 5.1 10.5 5.1 10.5l-5.1-2.5 2.6 8.2-4.5-2.1 2.7 7.7s-3.3-2.3-3.1-1.7c.3.7 1 3.9 1.2 4.6s-1.4 2.1-1.4 2.9c.1.8 3.4 7 3.4 7s-3.3-2.8-3.3-2.3 1.4 4.6 1.4 4.6l-2.1 1.9s-.3 3.5 0 4.5c.2.8-.1 8.3-.3 11 .1 1.6.1 2.6.1 2.6s2.8-9.7 4.9-12.5c.1-.1.1-.2.2-.3 2.2-2.4.5-2.9 3.1-6s1.6-2.8 1.6-5.2 4.5-4.2 4.5-4.2v-1.3c.3-6.7 2.4-18.1 2.2-24.6-.2-6.9-5.2-14.6-7.1-18-1.9-3.4-8.3-11.7-13.6-16.2-12.1.6-11.2 4.5-15.3-6.1C143.9 9.3 128 8.6 128 8.6v16l5.5 5.4.4-5zm-3.5 9.1c-.6-.9-1.4-2.8-2.4-4.8v6.9c.4 0 3.9.4 2.4-2.1z"/><path fill="#5D4E49" d="M152.9 86.4c5.3 0 13.7 6.9 13.7 6.9v-3.8s-5.3-5.4-9.3-6.9c-4-1.4-19 4.5-19 4.5-2.2 1.8-2.1 3.5-2.1 3.5s11.5-4.2 16.7-4.2z"/><path fill="#807A77" d="M175.2 96.1c-.2-1 0-4.5 0-4.5l2.1-1.9s-1.4-4.1-1.4-4.6 3.3 2.3 3.3 2.3-3.4-6.2-3.4-7c-.1-.8 1.6-2.3 1.4-2.9s-1-3.9-1.2-4.6c-.3-.7 3.1 1.7 3.1 1.7l-2.7-7.7 4.5 2.1-2.6-8.2 5.1 2.5s-2.2-6.9-5.1-10.5c-2.9-3.6-10.8-9-10.8-9 .7.4 1.2 1.2 1.7 2 1.6 2.7 2.4 6.6 2.4 6.6l.9.6 1.2 3.6-2.2 1.6 2 4.5h-2.6l.9 5.4-1.9-.2 1.5 7.8-1.4-.1s2.6 5.7 2.7 6.1c.1.5-2.7-.1-2.7-.1l2.1 6.2-2.4.3 5.4 20v-1c0-2.7.3-10.2.1-11zm-18.3-59.8c.7-.6 1.2-1.1 1.5-1.7 1.4-2.1 1.1-4.5.1-9.5-1.3-6.4-22.2-12.9-22.2-12.9 8 2.6 15 13.9 15 13.9l-5.6-4.3s2.1 10.1 0 5.4c-2.1-4.6-15-10.4-15-10.4 5.6 2.6 10.5 14.7 10.5 14.7l-7.3-6.5-.3 4.9-5.5-5.4-3.5-3.4s1.8 4.3 3.5 8v.1c.9 2 1.8 3.9 2.4 4.8 1.5 2.6-2 2.1-2.4 2.1v6.7c.4 0 8.7-.4 14.3-2.1 5.7-1.7 11.4-1.8 14.5-4.4z"/><path fill="#C08C76" d="M151.3 66.9c-6.5-2.6-23.3-.8-23.3-.8V68c9.3-1.8 23.3-1.1 23.3-1.1zm-13.4 4.9c5.6-1 20.4 3.2 20.4 3.2-9.9-5.9-19.3-4.8-23.3-4.5-4 .3-7 0-7 0v2.1c5.6 0 4.3.2 9.9-.8zm15.2-9.5s-2.2-1-5.7-2.4-7.8-.3-10.1 1c-2.2 1.3-9.2 0-9.2 0V63c7.1 0 8.6-.3 12.5-1.4 3.9-1.2 12.5.7 12.5.7z"/><path fill="#A37864" d="M104.7 66.9s14-.6 23.3 1.1v-1.9s-16.7-1.8-23.3.8zm16.3 3.7c-4-.3-13.4-1.4-23.3 4.5 0 0 14.8-4.2 20.4-3.2s4.2.8 9.9.8v-2.1s-3 .3-7 0zm-2.2-9.7c-2.2-1.3-6.5-2.4-10.1-1-3.5 1.4-5.7 2.4-5.7 2.4s8.6-1.9 12.5-.8c3.9 1.1 5.5 1.4 12.5 1.4v-2.1c0 .1-7 1.4-9.2.1z"/></svg>