<svg xmlns="http://www.w3.org/2000/svg" width="256" height="256"><circle fill="#B1B3B5" cx="128" cy="128" r="128"/><path fill="#67492C" d="M51.4 156.7s-5.4 5.7-5.1 15c.2 7.2 3.4 23.3-7.4 32.2 3.3-1 6.7-1.9 10.1-3 1.1-6.4 2.1-13 3-18.1 2.2-12.8 17.6-27.8 22.7-34.5 5.1-6.7 2.9-40.9 2.9-40.9s-3.8 23-6.7 29.1C68 142.6 52 152.9 52 152.9s-.6-7.3-.3-18.8 13.4-22.7 20.8-56.8c7.3-34.2 14.7-44.4 22-50.1 5.4-4.2 16.3-.7 21.9 1.4 6.3-1.4 11.7-2.1 11.7-2.1v-16s-15.3-4.2-22.4.3c-7 4.5-22.4 16.6-28.7 26.5-6.5 9.9-18 46-21.5 58.7-3.5 12.8-11.5 31.6-12.4 38-1 6.4 3.2 14-3.5 22S13.4 180.3 16 187.3c.8 2.1 1.8 4.7 2.9 7.4 2 3.3 4.2 6.6 6.6 9.7-.5-4-1.5-9.7-3.4-13.9-3.3-7.3.5-12.4 29.3-33.8z"/><path fill="#412C12" d="M83 112.9c-1.9-9.6-3.2-21.7-1-26.5s2.9-16.3 5.7-27.5 3.2-16.3 8.6-22.7c3-3.5 12.2-6.1 20-7.8-5.5-2.2-16.5-5.6-21.9-1.4-7.3 5.7-14.7 16-22 50.1-7.3 34.3-20.4 45.4-20.7 56.9-.3 11.5.3 18.8.3 18.8s16-10.2 18.8-16.3c2.9-6.1 6.7-29.1 6.7-29.1s2.2 34.2-2.9 40.9c-5.1 6.7-20.4 21.7-22.7 34.5-.9 5.1-1.9 11.6-3 18.1 16-4.7 31.7-9.7 34-11.8 4.5-4.2 6.5-31.1 5.6-35.6-1-4.5 6.3-7.8 6.7-5.3.6 3.8 1.2 7.6 1.8 11.3-.7-5.9-1.5-11.2-2.1-15.2-11.3-11-10.2-22.9-11.9-31.4z"/><path fill="#BEA195" d="M100.2 148.7c-2-1.5-3.8-2.9-5.3-4.4.7 4.1 1.4 9.4 2.1 15.2 2 13 4 25.5 5.9 37.3 5.4 6.2 13.6 12.1 25 12.2v-49.8c-10.8 0-10.8 1.6-27.7-10.5z"/><path fill="#CCAD9F" d="M96.4 36.3C91 42.7 90.6 47.8 87.8 59S84.3 81.7 82 86.4s-1 16.9 1 26.5c1.7 8.4.7 20.3 11.9 31.3 1.5 1.5 3.3 3 5.3 4.4 16.9 12.1 16.9 10.5 27.8 10.5V133c-13.5 0-16.3-4.8-16.3-4.8 3.2-1.1 3.5-1.9 6.5-4.6 1.6-1.7 4.4-2.6 6.7-1.6 1.5 1.3 3.1 1 3.1 1V26.4s-5.3.7-11.7 2.1c-7.7 1.7-16.9 4.3-19.9 7.8zm20.4 33.4c-5.5-1.2-18.4-4.3-22-1-3.6 3.4-6.7 8.9-6.7 8.9s3.6-11.7 13.7-12.7 15.6 1.7 15.6 1.7 4.9 4.3-.6 3.1z"/><path fill="#9D4D5E" d="M124.9 122.1c-2.2-1-5.1-.1-6.7 1.6-3.1 2.7-3.3 3.5-6.5 4.6 0 0 2.8 4.8 16.3 4.8v-10s-1.6.3-3.1-1z"/><path fill="#412C12" d="M46.3 171.7c-.3-9.3 5.1-15 5.1-15-28.7 21.4-32.6 26.5-29.4 33.8 1.9 4.3 2.8 9.9 3.4 13.9l2.1 2.7c3.5-1 7.4-2.1 11.5-3.3 10.6-8.8 7.5-24.9 7.3-32.1z"/><path fill="#1C2835" d="M127.7 223.4c-2-.1-11.6-.5-21.2-4.9 2.3 14 4.4 26.3 6.1 36.5 4.9.6 10 .9 15.1.9v-32.5zM103 196.8c.8 4.7 1.5 9.2 2.2 13.7 5.6 3.7 13 6.6 22.5 6.7v-8.1h.3c-11.5-.2-19.6-6.1-25-12.3z"/><path fill="#36474D" d="M106.5 218.5c9.6 4.4 19.2 4.8 21.2 4.9v-6.2c-9.5-.1-16.9-3-22.5-6.7.4 2.7.9 5.4 1.3 8z"/><path fill="#0D171A" d="M106.5 218.5c-.4-2.6-.9-5.3-1.3-8-.7-4.4-1.5-9-2.2-13.7-1.9-11.8-3.9-24.3-5.9-37.3-.6-3.7-1.2-7.5-1.8-11.3-.4-2.5-7.7.8-6.7 5.3S87.5 185 83 189.1c-2.3 2.1-17.9 7.1-34 11.8-3.4 1-6.8 2-10.1 3-4.1 1.2-8 2.3-11.5 3.3 20.4 26 50.7 43.8 85.2 47.9-1.7-10.2-3.8-22.6-6.1-36.6z"/><path fill="#432D14" d="M117.3 66.6s-5.5-2.6-15.6-1.7C91.6 65.9 88 77.6 88 77.6s3.1-5.5 6.7-8.9c3.6-3.4 16.5-.2 22 1 5.6 1.2.6-3.1.6-3.1z"/><path fill="#7E5A39" d="M216.4 156.1c-6.7-8-2.6-15.6-3.5-22-1-6.4-8.9-25.2-12.5-38-3.5-12.8-15-48.9-21.4-58.8-6.4-9.9-21.7-22-28.7-26.5s-22.4-.3-22.4-.3v16s5.3.7 11.7 2.1c5.5-2.2 16.5-5.6 21.9-1.4 7.3 5.7 14.7 16 22 50.1 7.3 34.2 20.4 45.3 20.8 56.8.3 11.5-.3 18.8-.3 18.8s-16-10.2-18.8-16.3c-2.9-6.1-6.7-29.1-6.7-29.1s-2.2 34.2 2.9 40.9c5.1 6.7 20.4 21.7 22.7 34.5.9 5.1 1.9 11.6 3 18.1 3.4 1 6.8 2 10.1 3-10.8-8.9-7.6-25-7.4-32.2.3-9.3-5.1-15-5.1-15 28.7 21.4 32.6 26.5 29.4 33.8-1.9 4.3-2.8 9.9-3.4 13.9 2.3-3.1 4.5-6.4 6.6-9.7 1-2.7 2.1-5.4 2.9-7.4 2.4-7.1-17-23.4-23.8-31.3z"/><path fill="#4E361C" d="M159.6 36.3c5.4 6.4 5.7 11.5 8.6 22.7s3.5 22.7 5.7 27.5 1 16.9-1 26.5c-1.7 8.4-.7 20.3-11.9 31.3-.7 4.1-1.4 9.4-2.1 15.2.6-3.7 1.2-7.5 1.8-11.3.4-2.5 7.7.8 6.7 5.3s1.1 31.5 5.6 35.6c2.3 2.1 17.9 7.1 34 11.8-1.1-6.4-2.1-13-3-18.1-2.2-12.8-17.6-27.8-22.7-34.5-5.1-6.7-2.9-40.9-2.9-40.9s3.8 23 6.7 29.1c2.9 6.1 18.8 16.3 18.8 16.3s.6-7.3.3-18.8-13.4-22.7-20.8-56.8c-7.3-34.2-14.7-44.4-22-50.1-5.4-4.2-16.3-.7-21.9 1.4 7.9 1.7 17.1 4.3 20.1 7.8z"/><path fill="#CCAD9F" d="M155.8 148.7c-16.9 12.1-16.9 10.5-27.8 10.5V209c11.5-.1 19.6-6 25-12.2 1.9-11.8 3.9-24.3 5.9-37.3.7-5.9 1.5-11.2 2.1-15.2-1.4 1.5-3.2 3-5.2 4.4z"/><path fill="#DEBCAD" d="M128 123.1s1.6.3 3.1-1c2.2-1 5.1-.1 6.7 1.6 3.1 2.7 3.3 3.5 6.5 4.6 0 0-2.8 4.8-16.3 4.8v26.1c10.9 0 10.9 1.6 27.8-10.5 2-1.5 3.8-2.9 5.3-4.4 11.3-11 10.2-22.9 11.9-31.3 1.9-9.6 3.2-21.7 1-26.5s-2.9-16.3-5.7-27.5-3.2-16.3-8.6-22.7c-3-3.5-12.2-6.1-20-7.8-6.3-1.4-11.7-2.1-11.7-2.1v96.7zm26.3-58.2c10.1 1 13.7 12.7 13.7 12.7s-3.1-5.5-6.7-8.9c-3.6-3.4-16.5-.2-22 1s-.5-3.1-.5-3.1 5.4-2.7 15.5-1.7z"/><path fill="#9D4D5E" d="M144.3 128.3c-3.2-1.1-3.5-1.9-6.5-4.6-1.6-1.7-4.4-2.6-6.7-1.6-1.5 1.3-3.1 1-3.1 1v10c13.5 0 16.3-4.8 16.3-4.8z"/><path fill="#4E361C" d="M204.6 156.7s5.4 5.7 5.1 15c-.2 7.2-3.4 23.3 7.4 32.2 4.1 1.2 8 2.3 11.5 3.3l2.1-2.7c.5-4 1.5-9.7 3.4-13.9 3.1-7.4-.7-12.5-29.5-33.9z"/><path fill="#263441" d="M149.5 218.5c-10.8 4.9-21.6 4.9-21.6 4.9v-6.2c9.7 0 17.2-3 22.9-6.7.7-4.4 1.5-9 2.2-13.7-5.4 6.2-13.6 12.1-25 12.2h-.3v47h.3c5.2 0 10.4-.3 15.4-.9 1.7-10.2 3.8-22.6 6.1-36.6z"/><path fill="#485B62" d="M127.9 217.2v6.2s10.8 0 21.6-4.9c.4-2.6.9-5.3 1.3-8-5.7 3.7-13.2 6.7-22.9 6.7z"/><path fill="#1D272A" d="M207 200.9c-16-4.7-31.7-9.7-34-11.8-4.5-4.2-6.5-31.1-5.6-35.6 1-4.5-6.3-7.8-6.7-5.3-.6 3.8-1.2 7.6-1.8 11.3-2 13-4 25.5-5.9 37.3-.8 4.7-1.5 9.2-2.2 13.7-.4 2.7-.9 5.4-1.3 8-2.3 14-4.4 26.3-6.1 36.5 34.5-4.1 64.8-22 85.2-47.9-3.5-1-7.4-2.1-11.5-3.3-3.3-.9-6.7-1.9-10.1-2.9z"/><path fill="#432D14" d="M139.2 69.7c5.5-1.2 18.4-4.3 22-1 3.6 3.4 6.7 8.9 6.7 8.9s-3.6-11.7-13.7-12.7-15.6 1.7-15.6 1.7-4.9 4.3.6 3.1z"/></svg>