<svg xmlns="http://www.w3.org/2000/svg" width="256" height="256"><circle fill="#B1B3B5" cx="128" cy="128" r="128"/><path fill="#545353" d="M166.6 159.9c.1 1.7.3 3.4.5 4.9 1-4.3-.2-4.9-.5-4.9zm.6-8.2c-.5.8-.6 1.1-.8 1.4 0 1.7.1 3.6.2 5.4.3.2 4.3 3.9 7.1 5.1 2.9 1.3 6.7 3.2 6.7 3.2s-.1.6-.4 1.7l2 .7c2.5-1.2 10-4.8 10.8-5.5 1-.8-7.2-.4-7.2-.4s-8.4 1.7-1.9-1.9c6.5-3.6 14.8 0 14.8 0l-18.2-7.9s-6.9-1.9-7.9-3.1c-1-1.2-1.9-1.2-3.8-2.9l-.1-.1c-.1.2-.3.6-.3 1.3-.4 2.2-.1 1.6-1 3zm22.5 17.9c2.6-1.5-4.4-.6-7.4-.2l4.6 1.6c1.1-.5 2-1 2.8-1.4z"/><path fill="#6E645F" d="M129.5 213.8c-1 .4-1.5.7-1.5.7v21.9s2.6-.3 6.7-.7c2.5-2.2 7.2-6.4 12.4-11-5.8-4.8-14.2-9.2-17.6-10.9zm33.1-18c-4.9 3.4-10.9 6.8-16.4 9.8 4.5 3.7 9 8.1 11 10.1 5-4.5 9.2-8.3 10.7-9.6 2-1.9 7.9-6.4 13.6-10.7-4 1.3-7.5 2.4-7.3 2 .5-.7 1.7-2.6 2.4-4.1s3.6-3.1 3.6-3.1-10.8 1.7-9.8 0 4.1-4.6 9.8-6.9c5.7-2.4 1.7-4.3 1.7-4.3l4.8-5.3h-6.5s3.6-1.2 6.8-2.7l-4.6-1.6c-.8.1-1.3.2-1.3.2s.3-.1.8-.4l-2-.7c-1.4 5.1-6.3 19.7-17.3 27.3z"/><path fill="#88898A" d="M147.1 224.7c3.4-3 6.9-6.1 10.2-9-2-2-6.6-6.4-11-10.1-7.2 3.8-13.8 6.9-16.7 8.2 3.3 1.7 11.7 6.1 17.5 10.9z"/><path fill="#775B4B" d="M165.8 169c.6-1.7 1-3.1 1.3-4.2-.2-1.5-.4-3.2-.5-4.9h-.1v-1.4c-.1-1.9-.1-3.7-.2-5.4-.1.2-.3.4-.9.8-1.2 1-2 .7-2.5 1.4s-.1-1.6-1.1 1.2-.8 3.6-1.6 4.6-2.4 1.3-2.4 1.3l-1.2 1.2s-1.8 1.2-1.9 3 .1 1.9-.1 2.8c-.2.8-.6 1.9-.8 2.6-.2.7.2.7-.4 1.8s.4.1-2.5 2.2c-2.9 2-1.8-.4-2.9 2-1.1 2.4-.8 2-1.2 3s1 1.4-1.8 1.8c-2.8.4-2.4.2-4.1.6-1.7.4-2.8.4-3.2 1-.5.6.7 1-1.4.7s-.6-.1-2.2-.2-1.9-.3-2.3.3c-.4.6-.4.8-.8 1.2-.5.5.6 0-.5.5s-1.8 0-1.8 0l-.7.1v5.5s34.5-14.5 37.8-23.5z"/><path fill="#9D9D9D" d="M166.5 159.9s.1 0 0 0c.3.1 1.6.6.6 4.9-.3 1.1-.7 2.5-1.3 4.2-3.3 9-37.8 23.5-37.8 23.5v22s.6-.2 1.5-.7c2.9-1.3 9.5-4.4 16.7-8.2 5.6-3 11.5-6.4 16.4-9.8 11-7.6 15.9-22.3 17.3-27.3.3-1.1.4-1.7.4-1.7s-3.8-1.9-6.7-3.2c-2.8-1.2-6.9-4.9-7.1-5.1v1.4zm-9.3 55.8c-3.2 2.9-6.8 6-10.2 9-5.2 4.6-10 8.8-12.4 11 16.6-1.8 58.6-6.4 60.3-6 .8.2 2.5-.1 4.8.1-.2 0-.4-.1-.5-.1-4.8-.5-15.8 0-15.8 0l-6.5-6.9c-2.8-.9-5.2-2-5.2-2s1-.7 2.5-1.7l-.8-1.1-4.8-3.6s12.2-8.1 14.8-12.2c1.3-1.9 3.3-4 5.1-5.7-.6-.1-.1-.2.7-.7 1.7-1.5 3-2.5 3-2.5h.1c2.6-3.4-.5-1.4-.5-1.4s-5.5 1.9-10.4 3.5c-5.8 4.3-11.6 8.8-13.6 10.7-1.3 1.3-5.5 5.1-10.6 9.6z"/><path fill="#747475" d="M199.7 229.8c-2.3-.2-3.9.1-4.8-.1-1.7-.4-43.7 4.2-60.3 6-4.1.4-6.7.7-6.7.7V256c28.1 0 54.1-9.1 75.3-24.5-1.2-.8-2.4-1.5-3.5-1.7z"/><path fill="#693922" d="M218.1 210.4c1.2.3 2.8 1.2 4.3 2.2v-.1l-5-4.3c-1.3-.5-3.4-1.4-4.5-1.8l-1.1.7c2.5 1.4 4.8 2.8 6.3 3.3zm-31.6 11.9c-1 .5-1.8.9-2.3 1.1-.4.2-.8.2-1.2.3-1.7.1-4-.4-6.1-1l6.5 6.9s11-.5 15.8 0c.2 0 .3 0 .5.1 1 .2 2.3.9 3.5 1.8 6.4-4.6 12.3-9.9 17.7-15.6-3 .3-6.6.8-8.9 1.3-4 .9-15.2 1.4-25.5 5.1zm2.7-26.5c.8-.4 2-1.1 3.1-2.5h-.1c.1 0-1.3 1-3 2.5zm-5.8 6.3c-2.6 4.1-14.8 12.2-14.8 12.2l4.8 3.6.8 1.1c3.3-2.3 9-6.2 10.8-7.8 2.5-2.2 10.1-11.2 10.4-11.5.1-.7.2-1.5.2-2.4 0-3.5-2.2-.3-5.7-.8-.6-.1-1-.1-1.2-.2-2 1.8-4.1 3.9-5.3 5.8z"/><path fill="#8D5136" d="M212.8 206.4c0-.1 0-.1 0 0-1.1-.4-1.7-.3-2.9-.2.6.3 1.3.6 1.9.9l1-.7zm9.9 2.9c0 .1-.2.2-.3-.7-.5-2.4-3.8 0-3.8 0s-.5-.2-1.2-.5l5 4.3c.1-2 .2-2.9.3-3.1zm-36.2 13c-1.2.4-2.4.9-3.5 1.4.5 0 .9-.1 1.2-.3.5-.2 1.3-.6 2.3-1.1z"/><path fill="#8D5136" d="M185 211.3c-1.8 1.6-7.5 5.5-10.8 7.8-1.5 1-2.5 1.7-2.5 1.7s2.4 1.1 5.2 2c2.1.7 4.4 1.2 6.1 1 0 0 6.6-4.3 9.5-9.2 2.9-4.9 6.1-10.5 11.3-10.2.3 0 .7.1 1 .1 0-.7.1-1.4 0-2-.2-1.7-4.8 1.9-8.1 3.4s0 0-1.2-1.4c-.9-1.1-.5-2.4-.2-4.4-.2 0-7.8 9-10.3 11.2z"/><path fill="#AF6548" d="M222.4 212.5c-1.5-.9-3.1-1.8-4.3-2.2-1.5-.4-3.7-1.9-6.3-3.3-.6-.3-1.2-.6-1.9-.9-.6.1-1.5.2-2.6.2-2.1.1-2.4-.8-2.4-1.9-.3-.1-.7-.1-1-.1-5.3-.3-8.5 5.3-11.3 10.2-2.9 4.9-9.5 9.2-9.5 9.2 1.2-.5 2.3-1 3.5-1.4 10.4-3.7 21.5-4.2 25.6-5.1 2.3-.5 5.8-.9 8.9-1.3.4-.5.9-.9 1.3-1.4 0-.5 0-1 .1-1.7-.2 0-.1-.1-.1-.3z"/><path fill="#C8C2C0" d="M247.5 136.8c-2.2 0-7.2 5.2-7.2 5.2v-3.3h-1.7s-3.8 1.2-4.6-1.9c-.7-3.1-1.4-6-1.4-6l-1.9 5s0-.5-2.6.7-1.9 1.4-3.8 2.6c-1.9 1.2-.3 9.4-3.1 2.8-2.8-6.6-3.1-11.2-3.8-7.8s-1.9 7.8-1.9 7.8-3.1-4.2-4.1-1.6c-1 2.6-.7 6.4-1.4 5.8-.7-.6-1.4.6-3.1 0-1.7-.6-3.1.6-3.8 0-.7-.6 1.9 5.3-1.7 0-3.6-5.3-5.7-8.9-5.7-8.9v4.7s-.5 1.7-2.4 1.7-5-2.6-6.5-.2c-1.4 2.4-1.2 1.6-2.4 2.7s-4.1 1.1-4.1 1.1-1.4 1.9-2.2 1.9c-.4 0-4.3-1.9-7.6-3.6-.1.2-.3.4-.6.7-.7.8-1.1.6-1.5 1.1l.1.1c1.9 1.7 2.9 1.7 3.8 2.9 1 1.2 7.9 3.1 7.9 3.1l18.2 7.9s-8.4-3.6-14.8 0c-6.5 3.6 1.9 1.9 1.9 1.9s8.1-.4 7.2.4c-.8.7-8.3 4.3-10.8 5.5-.5.2-.8.4-.8.4s.5-.1 1.3-.2c3-.4 10-1.3 7.4.2-.8.5-1.8.9-2.8 1.4-3.2 1.4-6.8 2.7-6.8 2.7h6.5l-4.8 5.3s4.1 1.9-1.7 4.3c-5.7 2.4-8.9 5.3-9.8 6.9s9.8 0 9.8 0-2.9 1.7-3.6 3.1-1.9 3.4-2.4 4.1c-.2.3 3.3-.8 7.3-2 4.9-1.6 10.4-3.5 10.4-3.5s3.1-1.9.5 1.4c-1.1 1.3-2.3 2.1-3.1 2.5-.9.4-1.3.5-.7.7.2 0 .6.1 1.2.2 3.6.5 5.7-2.8 5.7.8 0 .9-.1 1.7-.2 2.4-.3 2-.7 3.4.2 4.4 1.2 1.4-2.2 2.9 1.2 1.4s7.9-5 8.1-3.4c.1.6 0 1.4 0 2 0 1.1.3 2 2.4 1.9 1.2 0 2-.1 2.6-.2 1.2-.1 1.8-.2 2.9.2h.1c1.1.4 3.2 1.2 4.5 1.8.7.3 1.2.5 1.2.5s3.3-2.4 3.8 0c.2.9.3.8.3.7 0 .3-.1 1.1-.3 3.2v.5c0 .6-.1 1.2-.1 1.7 17.5-19 29.3-43.4 32.7-70.4-1.6.2-2.4.2-2-.5.2-.4 1.2-1.2 2.3-1.9.1-.6.1-1.2.2-1.7-6.8 2.5-9.2 3.2-9.2 3.2s3.4-6.4 1.3-6.4z"/><path fill="#8C6C5A" d="M174.8 49.3h-1c-.5 0-.5 2.7-1.6 4.3-1.1 1.6-.6 1.3-1.4 3.2-.8 1.9-2.2 1.9-3.4 1-1.1-1 .6-1.4 0-2.1-.6-.6 0-2.9 0-2.9s-1.6-4.2-2.2-4.9.5-4 0-4h-2.6c-1.8 0-2.2-.5-6.5-2.7s-2.2 0-6.7.1-1.6-.3-5.6 0c-4 .3-4.2-.2-6.5 0s-4.2 1.6-5.3 2.6c-1.1 1-4 1.3-4 1.3V128c.7-.1 3.8.2 6-1.3 0 0 2.3 2.4 2.9 2.4.6 0 3.5.7 3.5.7s-2.4 0 0 1.4 4 1.7 4 1.7 1 .1 2.4 1.2c1.4 1.1 2.4 1.7 2.4 1.7l1.1 1.1.8.8s2.9 2.5 2.8 3.1c-.1.6.6 2.8.6 2.8s-1.8 2.2 0 .6 1-1.2 3.4-2.5 2.5-.7 3.8-2.5c1.3-1.8 0-2.2 2.2-3.4 2.2-1.2 2.5-2.6 3.7-3.6 1.2-1.1 2.5-2.2 2.9-3.1.4-1 2.2-5.9 2.2-5.9s2-18.2 2.2-25.6c-.1-3.7-.3-6.7-.3-6.7s1.4-2.2 2.6-4c.2-1.4.3-2.6.4-3.6.5-5.4 2.2-20.9-.8-33.5v.3l-2-.8zm-9.7 40.9c-2.2-1.6-3-1.1-4.9-.9-1.9.1-4-1.2-7.7-.9-3.7.2-8.9 1.2-11.9 1.8-3 .6-5.6-1.8-5.6-1.8 3.2-.1 15.2-4.3 19.2-4.8s3.2 1 5.3 1.8c2 .8 4.8 1.9 5.9 3 1.1 1.1 0 0 .4.6s2.5 2.9 2.5 2.9-1-.2-3.2-1.7z"/><path fill="#8C6C5A" d="M132.8 169.3c1 0 1.6.6 3.2 0 1.7-.6 2.3-.8 3-1.3.7-.5-.4-.6 1.6-1.2 1.9-.6 2.4-.7 2.9-1.4s.5-1.1 1.1-1.8 1.3-1.8 1.3-2.2c0-.4-.2-1.4-.1-1.8.1-.4.8-2.3.8-2.3s3.1-4.2 3.2-5c.1-.8 1.3-1.1.1-1.4-1.2-.4-1 .4-1.2-.4-.2-.7-.7-1-.4-1.6.4-.6.6-1 .6-1.6s-.2-2.2-.6-2.2c-.4 0-.7.4-.5-.6.2-1 .4-.5.2-1.7-.1-1.2.5-1.2-.7-1.9s-1.3-1-1.9-1.6c-.6-.6-.7-.6-1.3-1.4-.6-.8.4-.2-.6-.8-1-.6-1.1 2.5-1.6 1s-.2-1.4-.8-2.3 1.8-.1-.6-.8-3.4-.8-3.8-1c-.5-.1-.8-.5-1.1-.8-.2-.4.8-.2-1.1-.7-1.9-.5-2.2-.6-2.6-.6-.5 0-1.7 1-4 1v36.5s2.2-.1 2.5-.1h2.4z"/><path fill="#775B4B" d="M174.6 97.5v-.6s.6 1.8.8 2.5c.2.7 1 .5.7 2.4-.2 1.9-.2 2.5-.5 3.4-.2.8-.8 3-.8 3l.5 2 .1.5s-.2 6.7-.1 7.9c.1.6.3.9.5 1.3.8-1 1.2-2.5 1.4-4 .3-2.7 1.1-4.6 1.9-5.9.8-1.3 1.4-6.5 1.6-8.5s1.1-6.2.8-8 .8-3.5.8-5.8-3.2-3.3-3.7-3.1c-.2.1-.9 1-1.7 2.2-1.2 1.8-2.6 4-2.6 4s.2 3 .3 6.7z"/><path fill="#393233" d="M149.7 9.9h-.3c-.2-.1 0 0 .3 0zm0 0c1.6.1.5.1 0 0z"/><path fill="#393233" d="M128 45.1s2.8-.3 4-1.3c1.1-1 2.9-2.4 5.3-2.6s2.6.3 6.5 0c4-.3 1.1.1 5.6 0s2.4-2.3 6.7-.1c4.3 2.2 4.8 2.7 6.5 2.7h2.6c.5 0-.6 3.2 0 4s2.2 4.9 2.2 4.9-.6 2.2 0 2.9c.6.6-1.1 1.1 0 2.1s2.6 1 3.4-1c.8-1.9.3-1.6 1.4-3.2 1.1-1.6 1.1-4.3 1.6-4.3h1l1.8.6v-.3c0-.3.1-1 .1-2.2.2-2.6 1-2.4 0-3.8s-1.1-1.9-1.3-3.3c-.2-1.4 1.3-1-.2-3.7-1.4-2.7-2.4-2.4-2.6-4.2s-.3-3-.3-3.7c0-.6-.2-1.1.2-2.1.3-1 .6-1.6.6-2.6s-.5-2.6-1.4-3.2-.5-.8-2.1-.8 3 3.4-1.6 0-4.2-3-6.1-3.8c-1.9-.8-1.9-.3-2.7-1.6s-.6-2.2-1.9-2.6c-1.3-.3-1.1-.6-2.2-.6s2.6 1.1-1.1 0c-2.9-.9-3.8-1.4-4.3-1.5-.2 0-.5 0-.8-.1-3.7-.3-4.2-.3-5.4-1.3-1.3-1-1.6-1.8-2.4-2.1s.6-.3-.8-.3-3.2-1-4.5-1.3c-1.3-.3-1.9-.5-3 0s-1.3.6-1.9.6-2.9-.7-2.9-.7v40.5zm37.4 43.2c-1.1-1.1-3.8-2.2-5.9-3-2-.8-1.3-2.3-5.3-1.8-4 .5-15.9 4.7-19.2 4.8 0 0 2.6 2.4 5.6 1.8 3-.6 8.1-1.6 11.9-1.8 3.7-.2 5.7 1.1 7.7.9 1.9-.1 2.8-.6 4.9.9 2.2 1.6 3.1 1.6 3.1 1.6s-2.2-2.3-2.5-2.9c-.3-.5.8.5-.3-.5zm10 22.4l-.1-.5c-.1-.5-.5-2-.5-2s.6-2.2.8-3c.2-.8.2-1.4.5-3.4.2-1.9-.5-1.7-.7-2.4-.2-.7-.8-2.5-.8-2.5v.6c-.1 7.4-2.2 25.6-2.2 25.6s-1.8 4.9-2.2 5.9c-.4 1-1.7 2-2.9 3.1s-1.6 2.4-3.7 3.6c-2.2 1.2-.8 1.6-2.2 3.4-1.3 1.8-1.4 1.2-3.8 2.5s-1.6 1-3.4 2.5 0-.6 0-.6-.7-2.2-.6-2.8c.1-.6-2.8-3.1-2.8-3.1l-.8-.8-1.1-1.1s-1-.6-2.4-1.7-2.4-1.2-2.4-1.2-1.6-.2-4-1.7 0-1.4 0-1.4-2.9-.7-3.5-.7c-.6 0-2.9-2.4-2.9-2.4-2.2 1.6-5.3 1.2-6 1.3v4.9c2.3 0 3.5-1 4-1s.7.1 2.6.6c1.9.5.8.4 1.1.7.2.4.6.7 1.1.8.5.1 1.4.2 3.8 1s0 0 .6.8.4.7.8 2.3.6-1.6 1.6-1c1 .6 0 0 .6.8s.7.8 1.3 1.4c.6.6.7.8 1.9 1.6 1.2.7.6.7.7 1.9.1 1.2 0 .7-.2 1.7s.1.6.5.6.6 1.6.6 2.2-.2 1-.6 1.6c-.4.6.1.8.4 1.6.2.7 0 0 1.2.4s0 .6-.1 1.4c-.1.8-3.2 5-3.2 5s-.7 1.9-.8 2.3c-.1.4.1 1.4.1 1.8 0 .4-.7 1.4-1.3 2.2s-.6 1.1-1.1 1.8c-.5.7-1 .8-2.9 1.4-1.9.6-.8.7-1.6 1.2-.7.5-1.3.7-3 1.3-1.7.6-2.3 0-3.2 0h-2.3c-.4 0-2.5.1-2.5.1V187l.9-.2s.7.5 1.8 0 0 0 .5-.5.5-.6.8-1.2c.4-.6.7-.4 2.3-.3s0 0 2.2.2 1-.1 1.4-.7c.5-.6 1.6-.6 3.2-1 1.7-.4 1.3-.2 4.1-.6 2.8-.4 1.4-.8 1.8-1.8s.1-.6 1.2-3c1.1-2.4 0 0 2.9-2s1.9-1.1 2.5-2.2.1-1.1.4-1.8c.2-.7.6-1.8.8-2.6.2-.8 0-1 .1-2.8s1.9-3 1.9-3l1.2-1.2s1.7-.4 2.4-1.3.6-1.8 1.6-4.6.6-.5 1.1-1.2 1.3-.5 2.5-1.4c.5-.4.7-.6.9-.8.2-.3.3-.5.8-1.4 1-1.4.6-.8.8-3 .1-.7.2-1.1.3-1.3.3-.5.8-.3 1.5-1.1.3-.4.5-.6.6-.7.3-.4.5-.5 1-1.7.8-1.7 0-1.2 0-2.9s0 0 1.3-2.3.6-.5 1.7-1.9 0 0-.1-.6-.1-.7.4-4.3c.5-3.6.6-.8.7-1.8.1-1 0-1.1 0-3s0-1.2.2-2 1-2 .5-2.8c-.4-.7.1-.7 0-1.6 0-.4-.2-.7-.4-1-.2-.3-.4-.7-.5-1.3.1-.9.3-7.6.3-7.6z"/><path fill="#3E3C3D" d="M88.9 164.8c.2-1.5.4-3.2.5-4.9-.3 0-1.5.6-.5 4.9zm-13.2 2s3.8-1.9 6.7-3.2c2.8-1.2 6.9-4.9 7.1-5.1.1-1.9.1-3.7.2-5.4-.2-.3-.3-.5-.8-1.4-1-1.4-.6-.8-.8-3-.1-.7-.2-1.1-.3-1.3l-.1.1c-1.9 1.7-2.9 1.7-3.8 2.9-1 1.2-7.9 3.1-7.9 3.1l-18.2 7.9s8.4-3.6 14.8 0c6.5 3.6-1.9 1.9-1.9 1.9s-8.1-.4-7.2.4c.8.7 8.3 4.3 10.8 5.5l2-.7c-.5-1.1-.6-1.7-.6-1.7zm-9.4 2.8c.8.5 1.8.9 2.8 1.4l4.6-1.6c-3.1-.5-10.1-1.3-7.4.2z"/><path fill="#5A524F" d="M126.5 213.8c-3.4 1.7-11.8 6.1-17.5 10.9 5.2 4.6 10 8.8 12.4 11 4.1.4 6.7.7 6.7.7v-21.9c-.1 0-.7-.2-1.6-.7zm-27.7 1.9c2-2 6.6-6.4 11-10.1-5.6-3-11.5-6.4-16.4-9.8-11-7.6-15.9-22.3-17.3-27.3l-2 .7c.5.2.8.4.8.4s-.5-.1-1.3-.2L69 171c3.2 1.4 6.8 2.7 6.8 2.7h-6.5l4.8 5.3s-4.1 1.9 1.7 4.3c5.7 2.4 8.9 5.3 9.8 6.9s-9.8 0-9.8 0 2.9 1.7 3.6 3.1 1.9 3.4 2.4 4.1c.2.3-3.3-.8-7.3-2 5.8 4.3 11.6 8.8 13.6 10.7 1.4 1.3 5.6 5.1 10.7 9.6z"/><path fill="#747475" d="M98.8 215.7c3.2 2.9 6.8 6 10.2 9 5.8-4.8 14.1-9.2 17.5-10.9-2.9-1.3-9.5-4.4-16.7-8.2-4.5 3.7-9 8.1-11 10.1z"/><path fill="#60493B" d="M89.5 158.5v1.4h-.1c-.1 1.7-.3 3.4-.5 4.9.3 1.1.7 2.5 1.3 4.2 3.3 9 37.8 23.5 37.8 23.5V187l-.9-.2s-.7.5-1.8 0 0 0-.5-.5-.5-.6-.8-1.2c-.4-.6-.7-.4-2.3-.3s0 0-2.2.2-1-.1-1.4-.7c-.5-.6-1.6-.6-3.2-1-1.7-.4-1.3-.2-4.1-.6-2.8-.4-1.4-.8-1.8-1.8-.4-1-.1-.6-1.2-3-1.1-2.4 0 0-2.9-2s-1.9-1.1-2.5-2.2-.1-1.1-.4-1.8c-.2-.7-.6-1.8-.8-2.6-.2-.8 0-1-.1-2.8s-1.9-3-1.9-3l-1.2-1.2s-1.7-.4-2.4-1.3c-.7-1-.6-1.8-1.6-4.6s-.6-.5-1.1-1.2c-.5-.7-1.3-.5-2.5-1.4-.5-.4-.7-.6-.9-.8.1 1.8.1 3.6 0 5.5z"/><path fill="#88898A" d="M128 206.9v-14.3s-34.5-14.5-37.8-23.5c-.6-1.7-1-3.1-1.3-4.2-1-4.3.2-4.8.5-4.9h.1v-1.4c-.3.2-4.3 3.9-7.1 5.1-2.9 1.3-6.7 3.2-6.7 3.2s.1.6.4 1.7c1.4 5 6.3 19.7 17.3 27.3 4.9 3.4 10.9 6.8 16.4 9.8 7.2 3.8 13.8 6.9 16.7 8.2 1 .4 1.5.7 1.5.7v-7.7zm-29.2 8.8c-5-4.5-9.2-8.3-10.7-9.6-2-1.9-7.9-6.4-13.6-10.7-4.9-1.6-10.4-3.5-10.4-3.5s-3.1-1.9-.5 1.4h.1s1.3 1 3 2.5c.9.4 1.3.5.7.7 1.8 1.7 3.9 3.8 5.1 5.7 2.6 4.1 14.8 12.2 14.8 12.2l-4.8 3.6-.8 1.1c1.5 1 2.5 1.7 2.5 1.7s-2.4 1.1-5.2 2l-6.5 6.9s-11-.5-15.8 0c-.2 0-.3 0-.5.1 2.3-.2 3.9.1 4.8-.1 1.7-.4 43.7 4.2 60.3 6-2.5-2.2-7.2-6.4-12.4-11-3.4-3-6.9-6.1-10.1-9z"/><path fill="#5F6061" d="M128 241.2v-4.8s-2.6-.3-6.7-.7c-16.6-1.8-58.6-6.4-60.3-6-.8.2-2.5-.1-4.8.1-1 .2-2.3.9-3.5 1.8C73.9 246.9 99.9 256 128 256v-14.8z"/><path fill="#522A14" d="M38.7 208.1l-5 4.3v.1c1.5-.9 3.1-1.8 4.3-2.2 1.5-.4 3.7-1.9 6.3-3.3l-1.1-.7c-1.1.5-3.2 1.3-4.5 1.8zm32.3 3.2c1.8 1.6 7.5 5.5 10.8 7.8l.8-1.1 4.8-3.6s-12.2-8.1-14.8-12.2c-1.3-1.9-3.3-4-5.1-5.7-.2 0-.6.1-1.2.2-3.6.5-5.7-2.8-5.7.8 0 .9.1 1.7.2 2.4.1.2 7.7 9.2 10.2 11.4zm-7.4-18c1.1 1.3 2.3 2.1 3.1 2.5-1.7-1.5-3-2.5-3-2.5h-.1zm-7.3 36.5c.2 0 .4-.1.5-.1 4.8-.5 15.8 0 15.8 0l6.5-6.9c-2.1.7-4.4 1.2-6.1 1-.5 0-.9-.1-1.2-.3-.5-.2-1.3-.6-2.3-1.1-10.4-3.7-21.5-4.2-25.6-5.1-2.3-.5-5.8-.9-8.9-1.3 5.4 5.7 11.3 10.9 17.7 15.6 1.3-.9 2.5-1.6 3.6-1.8z"/><path fill="#693922" d="M81.8 219.1c-3.3-2.3-9-6.2-10.8-7.8-2.5-2.2-10.1-11.2-10.4-11.5.3 2 .7 3.4-.2 4.4-1.2 1.4 2.2 2.9-1.2 1.4s-7.9-5-8.1-3.4c-.1.6 0 1.4 0 2 .3-.1.7-.1 1-.1 5.3-.3 8.5 5.3 11.3 10.2 2.9 4.9 9.5 9.2 9.5 9.2 1.7.1 4-.4 6.1-1 2.8-.9 5.2-2 5.2-2s-.9-.4-2.4-1.4zm-44.3-10.5s-3.3-2.4-3.8 0c-.2.9-.3.8-.3.7 0 .3.1 1.1.3 3.2l5-4.3c-.7.2-1.2.4-1.2.4zm5.7-2.3l1 .7c.6-.3 1.2-.6 1.9-.9-1.2-.1-1.8-.2-2.9.2zm28.6 17.2c.4.2.8.2 1.2.3-1.2-.5-2.3-1-3.5-1.4 1 .4 1.8.8 2.3 1.1z"/><path fill="#8D5136" d="M69.5 222.3c1.2.4 2.4.9 3.5 1.4 0 0-6.6-4.3-9.5-9.2-2.9-4.9-6.1-10.5-11.3-10.2-.3 0-.7.1-1 .1 0 1.1-.3 2-2.4 1.9-1.2 0-2-.1-2.6-.2-.6.3-1.3.6-1.9.9-2.6 1.4-4.9 2.8-6.3 3.3-1.2.3-2.8 1.2-4.3 2.2v.4c0 .6.1 1.2.1 1.7.4.5.9.9 1.3 1.4 3 .3 6.6.8 8.9 1.3 4 .8 15.2 1.3 25.5 5z"/><path fill="#A6A2A1" d="M33.6 212.5c-.2-2.2-.3-3-.3-3.3 0 .1.2.2.3-.7.5-2.4 3.8 0 3.8 0s.5-.2 1.2-.5c1.3-.5 3.4-1.4 4.5-1.8h.1c1.1-.4 1.7-.3 2.9-.2.6.1 1.5.2 2.6.2 2.1.1 2.4-.8 2.4-1.9 0-.7-.1-1.4 0-2 .2-1.7 4.8 1.9 8.1 3.4s0 0 1.2-1.4c.9-1.1.5-2.4.2-4.4-.1-.7-.2-1.5-.2-2.4 0-3.5 2.2-.3 5.7-.8.6-.1 1-.1 1.2-.2.6-.1.1-.2-.7-.7-.8-.4-2-1.1-3.1-2.5-2.6-3.4.5-1.4.5-1.4s5.5 1.9 10.4 3.5c4 1.3 7.5 2.4 7.3 2-.5-.7-1.7-2.6-2.4-4.1s-3.6-3.1-3.6-3.1 10.8 1.7 9.8 0-4.1-4.6-9.8-6.9C70 180.9 74 179 74 179l-4.8-5.3h6.5s-3.6-1.2-6.8-2.7c-1-.5-2-.9-2.8-1.4-2.6-1.5 4.4-.6 7.4-.2.8.1 1.3.2 1.3.2s-.3-.1-.8-.4c-2.5-1.2-10-4.8-10.8-5.5-1-.8 7.2-.4 7.2-.4s8.4 1.7 1.9-1.9c-6.5-3.6-14.8 0-14.8 0l18.2-7.9s6.9-1.9 7.9-3.1c1-1.2 1.9-1.2 3.8-2.9l.1-.1c-.3-.5-.8-.3-1.5-1.1-.3-.4-.5-.6-.6-.7-3.3 1.7-7.2 3.6-7.6 3.6-.7 0-2.2-1.9-2.2-1.9s-2.9 0-4.1-1.1c-1.2-1.1-1-.3-2.4-2.7-1.4-2.4-4.6.2-6.5.2-1.9 0-2.4-1.7-2.4-1.7v-4.7s-2.2 3.6-5.7 8.9c-3.6 5.3-1-.6-1.7 0s-2.2-.6-3.8 0c-1.7.6-2.4-.6-3.1 0-.7.6-.5-3.2-1.4-5.8-1-2.6-4.1 1.6-4.1 1.6s-1.2-4.5-1.9-7.8c-.7-3.4-1 1.2-3.8 7.8s-1.2-1.6-3.1-2.8c-1.9-1.2-1.2-1.4-3.8-2.6-2.6-1.2-2.6-.7-2.6-.7l-1.9-5s-.7 2.9-1.4 6-4.6 1.9-4.6 1.9h-1.7v3.3s-5-5.2-7.2-5.2 1.2 6.5 1.2 6.5-2.3-.7-9.2-3.2c.1.6.1 1.2.2 1.7 1.1.8 2.1 1.5 2.3 1.9.4.7-.4.7-2 .5 3.4 27 15.2 51.3 32.7 70.4 0-.5 0-1-.1-1.7.2-.2.1-.3.1-.5z"/><path fill="#775B4B" d="M128 132.9c-2.3 0-3.5-1-4-1s-.7.1-2.6.6c-1.9.5-.8.4-1.1.7-.2.4-.6.7-1.1.8-.5.1-1.4.2-3.8 1s0 0-.6.8-.4.7-.8 2.3c-.5 1.6-.6-1.6-1.6-1-1 .6 0 0-.6.8s-.7.8-1.3 1.4c-.6.6-.7.8-1.9 1.6-1.2.7-.6.7-.7 1.9-.1 1.2 0 .7.2 1.7s-.1.6-.5.6-.6 1.6-.6 2.2.2 1 .6 1.6c.4.6-.1.8-.4 1.6s0 0-1.2.4 0 .6.1 1.4c.1.8 3.2 5 3.2 5s.7 1.9.8 2.3c.1.4-.1 1.4-.1 1.8 0 .4.7 1.4 1.3 2.2s.6 1.1 1.1 1.8c.5.7 1 .8 2.9 1.4 1.9.6.8.7 1.6 1.2.7.5 1.3.7 3 1.3 1.7.6 2.3 0 3.2 0h2.3c.4 0 2.5.1 2.5.1v-36.5z"/><path fill="#775B4B" d="M81.4 97.5c.1 7.4 2.2 25.6 2.2 25.6s1.8 4.9 2.2 5.9c.4 1 1.7 2 2.9 3.1s1.6 2.4 3.7 3.6c2.2 1.2.8 1.6 2.2 3.4s1.4 1.2 3.8 2.5 1.6 1 3.4 2.5 0-.6 0-.6.7-2.2.6-2.8 2.8-3.1 2.8-3.1l.8-.8 1.1-1.1s1-.6 2.4-1.7 2.4-1.2 2.4-1.2 1.6-.2 4-1.7 0-1.4 0-1.4 2.9-.7 3.5-.7c.6 0 2.9-2.4 2.9-2.4 2.2 1.6 5.3 1.2 6 1.3V45.1s-2.8-.3-4-1.3c-1.1-1-2.9-2.4-5.3-2.6s-2.6.3-6.5 0c-4-.3-1.1.1-5.6 0s-2.4-2.3-6.7-.1c-4.3 2.2-4.8 2.7-6.5 2.7h-2.6c-.5 0 .6 3.2 0 4-.6.8-2.2 4.9-2.2 4.9s.6 2.2 0 2.9c-.6.6 1.1 1.1 0 2.1s-2.6 1-3.4-1c-.8-1.9-.3-1.6-1.4-3.2-1.1-1.6-1.1-4.3-1.6-4.3h-1l-1.8.6v-.3c-3 12.6-1.3 28.1-.8 33.5.1 1 .2 2.2.4 3.6 1.2 1.8 2.6 4 2.6 4s-.4 3.2-.5 6.9zm8.9-8.6c.4-.6-.7.5.4-.6s3.8-2.2 5.9-3c2-.8 1.3-2.3 5.3-1.8 4 .5 15.9 4.7 19.2 4.8 0 0-2.6 2.4-5.6 1.8s-8.1-1.6-11.9-1.8c-3.7-.2-5.7 1.1-7.7.9-1.9-.1-2.8-.6-4.9.9-2.2 1.6-3.1 1.6-3.1 1.6s2-2.2 2.4-2.8z"/><path fill="#60493B" d="M80.6 110.7l.1-.5c.1-.5.5-2 .5-2s-.6-2.2-.8-3c-.2-.8-.2-1.4-.5-3.4-.2-1.9.5-1.7.7-2.4.2-.7.8-2.5.8-2.5v.6c.1-3.7.3-6.7.3-6.7s-1.4-2.2-2.6-4c-.8-1.2-1.5-2.1-1.7-2.2-.5-.2-3.7.8-3.7 3.1s1.1 4.1.8 5.8c-.3 1.8.6 6.1.8 8s.8 7.2 1.6 8.5c.8 1.3 1.6 3.2 1.9 5.9.2 1.5.6 2.9 1.4 4 .2-.3.4-.7.5-1.3.1-1.2-.1-7.9-.1-7.9z"/><path fill="#201A1A" d="M106.6 9.8h-.3c.3.1.5 0 .3 0zm-.3.1c-.5.1-1.6.1 0 0z"/><path fill="#201A1A" d="M81.2 49.3h1c.5 0 .5 2.7 1.6 4.3 1.1 1.6.6 1.3 1.4 3.2.8 1.9 2.2 1.9 3.4 1 1.1-1-.6-1.4 0-2.1.6-.6 0-2.9 0-2.9s1.6-4.2 2.2-4.9c.6-.8-.5-4 0-4h2.6c1.8 0 2.2-.5 6.5-2.7s2.2 0 6.7.1 1.6-.3 5.6 0c4 .3 4.2-.2 6.5 0s4.2 1.6 5.3 2.6c1.1 1 4 1.3 4 1.3V4.6s-2.2.9-2.8.9-.8-.2-1.9-.6c-1.1-.5-1.8-.3-3 0s-3 1.3-4.5 1.3c-1.4 0 0 0-.8.3s-1.1 1.1-2.4 2.1c-1.3 1-1.8 1-5.4 1.3-.3 0-.6.1-.8.1-.5.2-1.4.7-4.3 1.5-3.7 1.1 0 0-1.1 0s-1 .3-2.2.6c-1.3.3-1.1 1.3-1.9 2.6s-.8.8-2.7 1.6c-1.9.8-1.4.5-6.1 3.8s0 0-1.6 0-1.1.2-2.1.8c-1 .6-1.4 2.2-1.4 3.2s.3 1.6.6 2.6.2 1.4.2 2.1c0 .6-.2 1.9-.3 3.7s-1.1 1.4-2.6 4.2c-1.4 2.7 0 2.2-.2 3.7s-.3 1.9-1.3 3.3-.2 1.3 0 3.8c.1 1.3.1 1.9.1 2.2v.3l1.7-.7zm14.6 39.9c1.9.1 4-1.2 7.7-.9 3.7.2 8.9 1.2 11.9 1.8s5.6-1.8 5.6-1.8c-3.2-.1-15.2-4.3-19.2-4.8s-3.2 1-5.3 1.8c-2 .8-4.8 1.9-5.9 3-1.1 1.1 0 0-.4.6s-2.5 2.9-2.5 2.9 1 0 3.1-1.6c2.2-1.6 3.1-1.1 5-1zm-8.1 58.3c.1.2.3.6.3 1.3.2 2.2-.1 1.6.8 3 .5.8.6 1.1.8 1.4.1.2.3.4.9.8 1.2 1 2 .7 2.5 1.4s.1-1.6 1.1 1.2.8 3.6 1.6 4.6c.7 1 2.4 1.3 2.4 1.3l1.2 1.2s1.8 1.2 1.9 3-.1 1.9.1 2.8c.2.8.6 1.9.8 2.6.2.7-.2.7.4 1.8s-.4.1 2.5 2.2c2.9 2 1.8-.4 2.9 2 1.1 2.4.8 2 1.2 3 .4 1-1 1.4 1.8 1.8 2.8.4 2.4.2 4.1.6 1.7.4 2.8.4 3.2 1 .5.6-.7 1 1.4.7 2.2-.2.6-.1 2.2-.2s1.9-.3 2.3.3c.4.6.4.8.8 1.2.5.5-.6 0 .5.5s1.8 0 1.8 0l.9.2v-17.6s-2.2-.1-2.5-.1h-2.3c-1 0-1.6.6-3.2 0-1.7-.6-2.3-.8-3-1.3-.7-.5.4-.6-1.6-1.2-1.9-.6-2.4-.7-2.9-1.4s-.5-1.1-1.1-1.8-1.3-1.8-1.3-2.2c0-.4.2-1.4.1-1.8-.1-.4-.8-2.3-.8-2.3s-3.1-4.2-3.2-5c-.1-.8-1.3-1.1-.1-1.4 1.2-.4 1 .4 1.2-.4s.7-1 .4-1.6c-.4-.6-.6-1-.6-1.6s.2-2.2.6-2.2c.4 0 .7.4.5-.6s-.4-.5-.2-1.7c.1-1.2-.5-1.2.7-1.9s1.3-1 1.9-1.6c.6-.6.7-.6 1.3-1.4.6-.8-.4-.2.6-.8 1-.6 1.1 2.5 1.6 1 .5-1.6.2-1.4.8-2.3.6-.8-1.8-.1.6-.8s3.4-.8 3.8-1c.5-.1.8-.5 1.1-.8.2-.4-.8-.2 1.1-.7 1.9-.5 2.2-.6 2.6-.6.5 0 1.7 1 4 1V128c-.7-.1-3.8.2-6-1.3 0 0-2.3 2.4-2.9 2.4-.6 0-3.5.7-3.5.7s2.4 0 0 1.4-4 1.7-4 1.7-1 .1-2.4 1.2c-1.4 1.1-2.4 1.7-2.4 1.7l-1.1 1.1-.8.8s-2.9 2.5-2.8 3.1-.6 2.8-.6 2.8 1.8 2.2 0 .6-1-1.2-3.4-2.5-2.5-.7-3.8-2.5 0-2.2-2.2-3.4c-2.2-1.2-2.5-2.6-3.7-3.6-1.2-1.1-2.5-2.2-2.9-3.1-.4-1-2.2-5.9-2.2-5.9s-2-18.3-2.2-25.6V97s-.6 1.8-.8 2.5c-.2.7-1 .5-.7 2.4.2 1.9.2 2.5.5 3.4.2.8.8 3 .8 3l-.5 2-.1.5s.2 6.7.1 7.9c-.1.6-.3.9-.5 1.3-.2.3-.4.6-.4 1-.1.9.4.9 0 1.6-.4.7.3 1.9.5 2.8.2.8.2.1.2 2s-.1 2 0 3 .2-1.8.7 1.8c.5 3.6.5 3.7.4 4.3-.1.6-1.2-.8-.1.6s.4-.4 1.7 1.9c1.3 2.3 1.3.6 1.3 2.3s-.8 1.2 0 2.9c.6 1.2.7 1.3 1 1.7.1.2.3.4.6.7.8.6 1.3.4 1.7.9z"/></svg>