<svg xmlns="http://www.w3.org/2000/svg" width="256" height="256"><circle fill="#B1B3B5" cx="128" cy="128" r="128"/><path fill="#775B4B" d="M150.3 149.5c-2.4 2-4.1 3.2-4.1 3.2-1.3 2.5-3.3 4.2-5.6 5.3-1 9.6-4.2 28.8-12.5 28.8v39.1s11.7-5.5 25-14.5c6.2-25.7 7.6-41.5 7.6-41.5-6.1-5.7-3.4-20.4-.1-31.7-.1.1-.1.3-.2.4-2.8 4.4-7 8.3-10.1 10.9zm-6 30c-4.6-2.7 0-15 0-15s.6 5.9.3 8.6c-.3 2.7 10.4 10 10.4 10s-6-.9-10.7-3.6z"/><path fill="#775B4B" d="M156.7 208.7c11.9-8.5 24.3-19.7 30.4-32.3h-.1l-9.4-2.8c-9.1-2.4-17-3.7-17-3.7l3.5.7c-2.5 14.4-5 27.1-7.4 38.1z"/><path fill="#664E40" d="M140.5 157.9c-5.6 2.6-12.5 1.9-12.5 1.9v26.8c8.4.1 11.5-19.2 12.5-28.7z"/><path fill="#775B4B" d="M171.1 69.5c.2 3.7.4 6.7.6 8.4 1 6.2 2.2 23.2 0 27.4-1.3 2.5-1.6 6.5-2.1 10.3 3.7 1.2 7.2.5 8.5-.7 1.7-1.8 1.1-6.6 0-10.8-.8-2.9 1.2-5.2 3.1-9 .6-6.9-4.9-17.8-10.1-25.6z"/><path fill="#8C6C5A" d="M146.2 152.6s1.8-1.2 4.1-3.1l-4.1 3.1z"/><path fill="#8C6C5A" d="M171.7 77.9c-.2-1.6-.4-4.7-.6-8.4-2-3.1-4-5.6-5.6-7.3-5.5-5.8-37.5-5.7-37.5-5.7v103.3s6.9.7 12.5-1.9c2.3-1.1 4.4-2.8 5.6-5.3 0 0 5.6-11.6 6.9-20.1 0 0 1.6 5.5-2.7 16.9 3.1-2.6 7.2-6.5 9.9-11 .1-.1.2-.3.2-.4 4.6-7.7 5.8-10.8 7.7-15.5.8-2 1.1-4.4 1.5-7 .5-3.8.8-7.7 2.1-10.3 2.2-4.1 1-21.1 0-27.3zm-33.2-12c.5-1.7 6-5.5 10.5-3.8 4.5 1.8 13.6 2 14.6 3.5.4.5.7.9 1 1.2.4.2.7.4.9.6 0 0-.4-.1-.9-.6-2.4-1.1-7-.9-7-.9l2.9 2.5c-1.4-.6-8.1-2.7-12.7-2.4-4.5.2-7.6 5.3-9.3 4.9s0-5 0-5zM153 111c-2.9-3.5-11.2-10.8-11.2-10.8s9.9 4.6 13.7 10.8c3.8 6.3 1.3 19.5 1.3 19.5s-.9-16-3.8-19.5z"/><path fill="#7C5F4F" d="M150.3 149.5c4.4-11.4 2.7-16.9 2.7-16.9-1.3 8.5-6.9 20.1-6.9 20.1l4.2-3.2zm5.3-38.5c-3.8-6.3-13.7-10.8-13.7-10.8s8.3 7.4 11.2 10.8c2.9 3.5 3.8 19.5 3.8 19.5s2.5-13.2-1.3-19.5z"/><path fill="#614843" d="M164.6 66.8c.5.5.9.6.9.6-.2-.2-.5-.4-.9-.6zm-26.1 4c1.7.4 4.8-4.6 9.3-4.9 4.5-.2 11.2 1.8 12.7 2.4l-2.9-2.5s4.6-.2 7 .9c-.3-.3-.7-.7-1-1.2-1-1.5-10-1.7-14.6-3.5-4.5-1.8-10 2-10.5 3.8 0 .1-1.7 4.5 0 5z"/><path fill="#664E40" d="M144.7 173c.3-2.7-.3-8.6-.3-8.6s-4.6 12.4 0 15c4.6 2.7 10.7 3.5 10.7 3.5s-10.8-7.2-10.4-9.9z"/><path fill="#606266" d="M149.8 19.8s-12 4.2-12 13.8c0 9.7 12 14.8 12 14.8H128v8s32-.1 37.5 5.7c1.6 1.6 3.6 4.2 5.6 7.3 5.2 7.8 10.7 18.7 10.1 25.4 0 0 2.7-5.1 5.7-11l1.5-9.2s-4.5-15-14.1-17.7l-1.4 4.6s-7.6 2.4-10.4-3.6l5-20.2s8.8-3 11.5 4.7l-1.4 5.8s8.6 5.5 12.9 13.2l.6-3.6s-3.8-10-10-20c-8.8-11.7-19.8-20.2-20-20.4-10.3-5.9-22.1-8.2-33-12.3v14.3h21.7z"/><path fill="#4F5154" d="M181.1 38.2c6.2 10 10 20 10 20-1.5-7.1-5.5-14-10-20z"/><path fill="#4F5154" d="M128 5.5c10.9 4 22.7 6.4 33 12.3 10.2 4.7 21.8 5 34.9 12.7 13.1 7.7-4.8 27.6-4.8 27.6l-.6 3.6c1.2 2.2 2.2 4.6 2.4 7.1l-1.8 5.1-2.8.9-1.5 9.2c28.6-5.4 18-24.7 19.2-40.1.5-5.7 2.6-10 5-13.2C188.8 11.6 159.7 0 128 0v5.5z"/><path fill="#3A3C3F" d="M181.1 38.2c4.5 6 8.5 12.9 10 20 0 0 18-19.9 4.8-27.6-13.1-7.7-24.8-8.1-34.9-12.7.3.1 11.3 8.6 20.1 20.3z"/><path fill="#A8A8A8" d="M137.8 33.6c0-9.7 12-13.8 12-13.8H128v5.8h6.9v17.1H128v5.8h21.8s-12-5.2-12-14.9z"/><path fill="#CACCCE" d="M128 42.7h6.9V25.6H128v8z"/><path fill="#898A8A" d="M175.9 53.1l1.7-4.6 1.4-5.8c-2.6-7.8-11.5-4.7-11.5-4.7l-5 20.2c2.9 5.9 10.4 3.6 10.4 3.6l1.4-4.6c9.7 2.7 14.1 17.7 14.1 17.7l2.8-.9c0-.1-2.2-15.6-15.3-20.9z"/><path fill="#7A7C7C" d="M177.6 48.5l-1.7 4.6c13.1 5.3 15.3 20.8 15.3 20.8l1.8-5.1c-.2-2.5-1.1-4.9-2.4-7.1-4.4-7.7-13-13.2-13-13.2z"/><path fill="#525454" d="M222.7 176.7s-12.9-11.5-16.7-12.2c-3.8-.7-14.3-.1-15.8 0-1.4.1-12.6 9-12.6 9l9.4 2.8h.1l-7-2.1 3.8-3.1s2.9-1.2 4.1 0c1.2 1.2-.8 5.3-.8 5.3-6.2 12.6-18.6 23.8-30.4 32.3-5.1 23.3-9.8 38.6-12.4 46.3 8-1 15.8-2.8 23.3-5.2 18.2-50.3 55-73.1 55-73.1zM153 211.3c-13.3 9.1-25 14.5-25 14.5v29.8h10.3c.5 0 1.1-.1 1.6-.1 5.8-16.7 10-31.7 13.1-44.2z"/><path fill="#3D3F3F" d="M188 171.1c-1.2-1.2-4.1 0-4.1 0l-3.8 3.1 7 2.1s2.1-4 .9-5.2z"/><path fill="#C0A66F" d="M222.7 176.7s-36.8 22.8-55.1 73c35.1-11.4 63.5-37.6 78-71.2-18.1-10.5-22.9-1.8-22.9-1.8z"/><path fill="#3B3D3D" d="M156.7 208.7c2.4-11 4.9-23.7 7.4-38.1l-3.5-.7s-1.4 15.8-7.6 41.5c-3.1 12.6-7.3 27.5-13.1 44.2 1.5-.1 2.9-.3 4.4-.5 2.5-7.8 7.2-23.2 12.4-46.4z"/><path fill="#7F8080" d="M128 256c3.5 0 6.9-.1 10.3-.4H128v.4z"/><path fill="#60493B" d="M128 225.8v-39.1c-8.4 0-11.5-19.2-12.5-28.8-2.3-1.1-4.4-2.8-5.6-5.3 0 0-1.8-1.2-4.1-3.1-3.1-2.6-7.2-6.5-9.9-11-.1-.1-.2-.3-.2-.4 3.3 11.3 6.1 26-.1 31.7 0 0 1.4 15.8 7.6 41.5 13.1 9 24.8 14.5 24.8 14.5zM111.3 173c-.3-2.7.3-8.6.3-8.6s4.6 12.4 0 15-10.7 3.5-10.7 3.5 10.8-7.2 10.4-9.9zM69 176.3c-.1 0-.1 0 0 0 6.1 12.6 18.5 23.8 30.4 32.4-2.4-11-4.9-23.7-7.4-38.1l3.5-.7s-8 1.3-17 3.7l-9.5 2.7z"/><path fill="#543F33" d="M115.5 157.9c1 9.6 4.2 28.8 12.5 28.8v-26.8c0-.1-6.9.6-12.5-2z"/><path fill="#60493B" d="M84.3 77.9c.2-1.6.4-4.7.6-8.4-5.2 7.8-10.7 18.7-10.1 25.4 1.9 3.8 3.9 6.1 3.1 9-1.1 4.2-1.7 9.1 0 10.8 1.3 1.3 4.7 2 8.5.7-.5-3.8-.8-7.7-2.1-10.3-2.2-4-1-21 0-27.2z"/><path fill="#775B4B" d="M109.8 152.6l-4.1-3.1c2.4 1.9 4.1 3.1 4.1 3.1z"/><path fill="#775B4B" d="M105.7 149.5c-4.4-11.4-2.7-16.9-2.7-16.9 1.3 8.5 6.9 20.1 6.9 20.1 1.3 2.5 3.3 4.2 5.6 5.3 5.6 2.6 12.5 1.9 12.5 1.9V56.5s-32-.1-37.5 5.7c-1.6 1.6-3.6 4.2-5.6 7.3-.2 3.7-.4 6.7-.6 8.4-1 6.2-2.2 23.2 0 27.4 1.3 2.5 1.6 6.5 2.1 10.3.3 2.6.7 5 1.5 7 1.9 4.8 3.1 7.9 7.7 15.5.1.1.1.3.2.4 2.6 4.5 6.8 8.4 9.9 11zm-6.5-18.9s-2.5-13.3 1.3-19.5c3.8-6.3 13.7-10.8 13.7-10.8s-8.3 7.4-11.2 10.8c-2.9 3.4-3.8 19.5-3.8 19.5zm-7.8-63.8c.3-.3.7-.7 1-1.2 1-1.5 10-1.7 14.6-3.5 4.5-1.8 10 2 10.5 3.8 0 0 1.7 4.4 0 4.9-1.7.4-4.8-4.6-9.3-4.9-4.5-.2-11.2 1.8-12.7 2.4l2.9-2.5c0 .1-4.6-.1-7 1-.5.5-.9.6-.9.6.2-.2.5-.4.9-.6z"/><path fill="#664E40" d="M105.7 149.5l4.1 3.2s-5.6-11.6-6.9-20.1c.1-.1-1.6 5.5 2.8 16.9zm8.4-49.3s-9.9 4.6-13.7 10.8c-3.8 6.3-1.3 19.5-1.3 19.5s1-16.1 3.8-19.5c3-3.4 11.2-10.8 11.2-10.8z"/><path fill="#47342F" d="M98.4 65.9l-2.9 2.5c1.4-.6 8.1-2.7 12.7-2.4 4.5.2 7.6 5.3 9.3 4.9 1.7-.4 0-4.9 0-4.9-.5-1.7-6-5.5-10.5-3.8-4.5 1.8-13.6 2-14.6 3.5-.4.5-.7.9-1 1.2 2.4-1.2 7-1 7-1zm-7.9 1.5s.4-.1.9-.6c-.4.2-.7.4-.9.6z"/><path fill="#543F33" d="M111.7 164.5s-.6 5.9-.3 8.6c.3 2.7-10.4 10-10.4 10s6.1-.9 10.7-3.5 0-15.1 0-15.1z"/><path fill="#4F5154" d="M84.9 69.5c2-3.1 4-5.6 5.6-7.3 5.5-5.8 37.5-5.7 37.5-5.7v-8h-21.8s12-5.2 12-14.8c0-9.7-12-13.8-12-13.8H128V5.5c-10.9 4-22.7 6.4-33 12.3-.3.2-11.3 8.7-20 20.4-6.2 10-10 20-10 20l.6 3.6c4.3-7.7 12.9-13.2 12.9-13.2L77 42.7c2.6-7.8 11.5-4.7 11.5-4.7l5 20.2c-2.9 5.9-10.4 3.6-10.4 3.6l-1.4-4.6C72 59.7 67.6 74.7 67.6 74.7l1.5 9.2c2.9 5.9 5.7 11 5.7 11-.6-6.7 4.9-17.6 10.1-25.4z"/><path fill="#3D4043" d="M69.1 83.9l-1.5-9.2-2.8-.9-1.8-5.1c.2-2.5 1.1-4.9 2.4-7.1l-.6-3.6s-18-19.9-4.8-27.6c13.1-7.7 24.8-8.1 34.9-12.7 10.3-5.9 22.1-8.2 33-12.3V0c-31.6 0-60.7 11.6-83 30.7 2.4 3.1 4.5 7.4 5 13.2 1.2 15.3-9.4 34.7 19.2 40z"/><path fill="#3D4043" d="M64.9 58.1s3.8-10 10-20c-4.5 6.1-8.5 13-10 20z"/><path fill="#26282B" d="M74.9 38.2C83.7 26.5 94.7 18 95 17.8c-10.2 4.7-21.8 5-34.9 12.7-13.1 7.7 4.8 27.6 4.8 27.6 1.5-7 5.5-13.9 10-19.9z"/><path fill="#7A7C7C" d="M121.1 42.7V25.6h6.9v-5.8h-21.8s12 4.2 12 13.8c0 9.7-12 14.8-12 14.8H128v-5.8h-6.9z"/><path fill="#A8A8A8" d="M121.1 42.7h6.9V25.6h-6.9z"/><path fill="#7A7C7C" d="M81.7 57.1l1.4 4.6s7.6 2.4 10.4-3.6l-5-20.2s-8.8-3-11.5 4.7l1.4 5.8 1.7 4.6C67 58.4 64.8 73.9 64.8 73.9l2.8.9c0-.1 4.4-15.1 14.1-17.7z"/><path fill="#626464" d="M80.1 53.1l-1.7-4.6S69.8 54 65.5 61.7c-1.2 2.2-2.2 4.6-2.4 7.1l1.8 5.1c-.1 0 2.1-15.5 15.2-20.8z"/><path fill="#3D4043" d="M128 242.6v-16.8s-11.7-5.5-25-14.5c3.1 12.6 7.3 27.5 13.1 44.2.5 0 1.1.1 1.6.1H128v-13zm-28.7-33.9C87.4 200.2 75 189 68.9 176.4c0 0-2-4-.8-5.3 1.2-1.2 4.1 0 4.1 0l3.8 3.1-7 2.1h.1l9.4-2.8s-11.2-8.8-12.6-9c-1.4-.1-12-.7-15.8 0-3.8.7-16.7 12.2-16.7 12.2s36.8 22.8 55.1 73c7.5 2.4 15.3 4.2 23.3 5.2-2.6-7.6-7.3-23-12.5-46.2z"/><path fill="#3D3F3F" d="M75.9 174.2l-3.8-3.1s-2.9-1.2-4.1 0c-1.2 1.2.8 5.3.8 5.3l7.1-2.2z"/><path fill="#958257" d="M33.3 176.7s-4.8-8.7-22.9 1.9c14.5 33.6 42.9 59.7 78 71.2-18.3-50.3-55.1-73.1-55.1-73.1z"/><path fill="#353637" d="M103 211.3c-6.2-25.7-7.6-41.5-7.6-41.5l-3.5.7c2.4 14.5 5 27.2 7.4 38.1 5.1 23.3 9.8 38.6 12.4 46.3 1.5.2 2.9.3 4.4.5-5.8-16.6-10-31.6-13.1-44.1z"/><path fill="#686A6A" d="M117.7 255.6c3.4.3 6.8.4 10.3.4v-.4h-10.3z"/><path fill="#513D31" d="M128 123.5s-1.5.3-2.9-1c-2.1-1-4.8-.1-6.3 1.7-2.9 2.8-3.2 3.7-6.2 4.8 0 0 2.7 5.1 15.5 5.1v-10.6z"/><path fill="#60493B" d="M128 123.5s1.5.3 2.9-1c2.1-1 4.8-.1 6.3 1.7 2.9 2.8 3.2 3.7 6.2 4.8 0 0-2.7 5.1-15.5 5.1v-10.6z"/></svg>