<svg xmlns="http://www.w3.org/2000/svg" width="256" height="256"><circle fill="#B1B3B5" cx="128" cy="128" r="128"/><path fill="#507884" d="M179.4 116.2c-6.3 4.7-5.6 8.9-5.6 8.9s-1.2.8-2.9 1.6c-.5 4.5-.7 11 1.1 17.8.1-.1.2-.2.4-.2h3.5s4.8 23.3 9.4 32.4c1.1.7 2.3 1.4 3.8 2.2l7.5 2.9c1.3-14.3 0-32-6.2-44.2-5.4-10.5-6.6-19.9-6.7-26-1.1 1.7-2.5 3.2-4.3 4.6z"/><path fill="#272727" d="M139.8 216.5v-25.2l.1-.1c-.8-.2-1.7-.5-2.6-.8l-.9.3.4.7v24.9l-8.8 11.5V256c1.5 0 2.9 0 4.4-.1v-28.3l7.4-11.1zm23.8 7.6l-27.1 12.3-.8 3.9s26.5-10.5 29.9-12.7c4.4-.9 33-3.1 47.6-4.2.3-.2.5-.5.8-.7-1.4-.7-2.9-1.5-4.5-2.4-17.3.1-45.9 3.8-45.9 3.8z"/><path fill="#3B3938" d="M207.4 207.5c-2.1-1.9-3.8-3.7-4.7-4.8L168 189.3c-1.4.6-3 1.1-4.5 1.6l23.5 8.7 30 20.5c.7-.7 1.5-1.4 2.2-2.2-3.7-3-8.6-6.9-11.8-10.4zm-18.3-28.6c-1.5-.8-2.7-1.6-3.8-2.2.2.3.3.7.5 1l3.3 1.2zm20.4 41.5c1.7.9 3.2 1.7 4.5 2.4.8-.7 1.5-1.4 2.3-2.1-1.9-.2-4.3-.3-6.8-.3z"/><path fill="#525151" d="M172 144.6c-1.8-6.8-1.6-13.3-1.1-17.8-.4.2-.8.4-1.3.6.1 3.4.2 5.3.2 5.3s-9.9 15.4-23.7 20.8c-7.3 7-18.1 6.6-18.1 6.6v17.6l8.4 12.9.9-.3s12.1-30.8 34.7-45.7z"/><path fill="#231E1E" d="M169.8 120.1c-.1 2.8-.1 5.3-.1 7.2.4-.2.9-.4 1.3-.6 1.6-.8 2.9-1.6 2.9-1.6s-.6-4.2 5.6-8.9c1.8-1.4 3.2-2.9 4.3-4.6 2.6-4.1 3.4-8.7 3.7-12.1.2-2.6.2-10 .1-16.2-2.3 2.5-4.7 4.8-6.4 6.2-.5 6.3-1.4 15.2-3.3 18.4-.9 1.7-4.2 6.5-8.1 12.2zm.9-93c3.5 7.9 2.7 18.3 1.6 25.3l.1-.1c6.3-4.8 6.9-8.6 6.6-16-.2-4.1-1.4-9.9-2.8-15.9-2.4-.4-2.9.3-2.9.3s-2 1.2-5.1 1.9c-.5.3-1 .5-1.5.7 1.9.8 3.2 2 4 3.8z"/><path fill="#938F91" d="M128.1 124.5s1.2.2 2.2-.8c1.6-.8 3.7-.1 4.9 1.3 2.2 2.2 2.4 2.8 4.8 3.7 0 0-2 3.9-11.9 3.9V160s10.8.5 18.1-6.6c-.9.3 4.1-22.5 12.5-34 5.8-8 11.1-16.2 13.8-24.8-9.6 4.7-24.9 11-28.5 9.2-5.2-2.6-9.2-12.1-10.4-15.3-.7-2.1-2.8-2.5-4.2-2.6h-1.3v38.6zm41.7-4.4c4-5.8 7.2-10.6 8.1-12.2 1.9-3.2 2.8-12.1 3.3-18.4l-.3.3c-4.6 9.2-10.6 22.3-11 28 0 .8-.1 1.6-.1 2.3z"/><path fill="#696569" d="M140 128.7c-2.3-.9-2.5-1.5-4.8-3.7-1.2-1.4-3.2-2.1-4.9-1.3-1.1 1-2.2.8-2.2.8v8.1c9.9 0 11.9-3.9 11.9-3.9z"/><path fill="#726265" d="M132.4 28.4s-2.3 3.8-4.3 3.8v46.2l2.5-1.7c-.1-.8-.2-1.8-.2-3.1 0-5.4 6.3-8.3 14.7-8.6 8.3-.3 20.9-7.9 27.2-12.7 1.1-7 1.9-17.4-1.6-25.3-.8-1.8-2.1-3-3.9-3.8-3.1 1.1-7.1 1.3-9 .3-2.8-1.4-13.7 4.5-16.7 7.2 0 0-2.5-.2-4.7-1.1-.6.4-3.2 1.6-4-1.2zm-4.3 57.5h1.3c-.7-.1-1.3 0-1.3 0z"/><path fill="#3B3938" d="M146.2 153.4c13.8-5.4 23.7-20.8 23.7-20.8s-.2-1.9-.2-5.3c0-1.9 0-4.4.1-7.2 0-.8.1-1.5.1-2.3.4-5.7 6.4-18.8 11-28-.2.2-.5.4-.6.5-.9.7-3.9 2.4-7.7 4.3-2.8 8.6-8 16.8-13.8 24.8-8.5 11.5-13.5 34.3-12.6 34z"/><path fill="#4D4A49" d="M179.1 36.4c.3 7.3-.3 11.2-6.6 16l-.1.1c-6.4 4.8-18.9 12.4-27.2 12.7-8.3.3-14.7 3.2-14.7 8.6 0 1.3.1 2.3.2 3.1 0 0 7.8 11.3 10.3 6.2-.8-8 15.1-9.1 15.1-9.1s12.7.2 12.7 6.7c0 5-11.6 9.1-13.8 10.5-2.2 1.4-4.3 6.7-10.4 4.1-6-2.6-6-4.8-6-4.8s8.3 2.4 13.4 1 2.6-2.4 2.6-2.4-7.3 1.4-11 .5c-3.7-1-8.7-5.6-15.3-5.6v2s.5-.1 1.3 0c1.4.1 3.4.5 4.2 2.6 1.2 3.2 5.2 12.8 10.4 15.3 3.7 1.8 18.9-4.5 28.5-9.2 3.9-1.9 6.8-3.5 7.7-4.3.2-.2.4-.3.6-.5l.3-.3c1.6-1.4 4-3.7 6.4-6.2 3.2-3.4 6.2-7.2 6.5-9.6.6-4.5 2-18.2 4.6-27.1s-3.5-10.2-6.6-20.1c-1.3-4.1-3.3-8.2-5.4-12.3-4.2-2.2-8.5-4.1-12.9-5.8.7 3.8 1.7 8 2.6 12 1.2 6 2.4 11.8 2.6 15.9z"/><path fill="#3C3737" d="M143.4 89.5c3.7 1 11-.5 11-.5s2.5 1-2.6 2.4-13.4-1-13.4-1 0 2.2 6 4.8c6 2.6 8.2-2.6 10.4-4.1 2.2-1.4 13.7-5.5 13.8-10.5.1-6.5-12.7-6.7-12.7-6.7S140 75 140.8 83c-2.4 5.1-10.3-6.2-10.3-6.2l-2.5 1.7v5.4c6.7-.1 11.7 4.6 15.4 5.6z"/><path fill="#507884" d="M128.1 29.3v.2s1.7 1.1 3.5-4.3c1.7-5.4 12.4-18.8 21-18.4 0 0-4.6 10.3-7.8 12.2-3.2 1.9-9.5 4.1-9.8 5.6s-.6 4.3 1.6 5c0 0-.1 0-.1.1 2.2.9 4.7 1.1 4.7 1.1s3.7-11.3 11.4-13.3c7.7-1.9 16.9-3.7 18.2-9.6 0 0 1.5 10.2-.6 13.1-.4.6-1.1 1.1-1.9 1.5 3-.7 5.1-1.9 5.1-1.9s.4-7-.9-12.8c-13.9-5-28.8-7.8-44.4-7.8v29.3z"/><path fill="#3A5C66" d="M132.4 28.4c.8 2.8 3.4 1.6 4 1.3.1 0 .1-.1.1-.1-2.2-.7-1.9-3.6-1.6-5s6.6-3.7 9.8-5.6c3.2-1.9 7.8-12.2 7.8-12.2-8.6-.5-19.3 12.9-21 18.4-1.7 5.4-3.5 4.3-3.5 4.3v2.7c2.1 0 4.4-3.8 4.4-3.8zm25.5-4.8c1.9 1 5.9.8 9-.3.5-.2 1-.4 1.5-.7.8-.4 1.4-.9 1.9-1.5 2.1-2.9.6-13.1.6-13.1-1.3 5.9-10.5 7.7-18.2 9.6-7.7 1.9-11.4 13.3-11.4 13.3 2.9-2.8 13.8-8.7 16.6-7.3z"/><path fill="#6F716F" d="M185.8 177.7c-.2-.3-.3-.6-.5-1-4.6-9.1-9.4-32.4-9.4-32.4h-3.5c-.1.1-.2.2-.4.2-22.6 14.9-34.7 45.7-34.7 45.7.9.3 1.7.6 2.6.8l5.6-6.9 18 6.7c1.6-.5 3.1-1 4.5-1.6l-19.7-7.6c.1.1 26.2 4.1 37.5-3.9z"/><path fill="#EFEEEE" d="M128.1 177.7v49.9l8.8-11.5v-24.9l-.4-.6z"/><path fill="#EFEEEE" d="M187 199.5l-23.5-8.7-18-6.7-5.6 6.9-.1.1v25.2l-7.3 11.2v28.3c31-1.1 59.1-13.1 80.7-32.4-14.6 1.1-43.1 3.3-47.6 4.2-3.5 2.2-29.9 12.7-29.9 12.7l.8-3.9 27.1-12.3s28.7-3.7 45.9-3.7c2.6 0 4.9.1 6.8.3.2-.2.5-.4.7-.7l-30-20.5z"/><path fill="#3A5C66" d="M69.3 177.7c.6-.3 1.1-.7 1.6-1 4.6-9.1 9.4-32.4 9.4-32.4h3.5c.1.1.2.2.4.2 1.8-6.8 1.6-13.3 1.1-17.8-1.6-.8-2.9-1.6-2.9-1.6s.6-4.2-5.6-8.9c-1.8-1.4-3.2-2.9-4.3-4.6 0 6.1-1.3 15.5-6.7 26-6.2 12.1-7.5 29.6-6.3 43.8l9.8-3.7z"/><path fill="#161515" d="M119.3 216.1v-24.9l.4-.7-.9-.3c-.9.3-1.7.6-2.6.8l.1.1v25.2l7.3 11.2v28.3c1.4 0 2.8.1 4.3.1h.1v-28.4l-8.7-11.4zm1.2 24.2l-.8-3.9-27.1-12.3s-28.7-3.7-45.9-3.7c-1.7.9-3.3 1.7-4.7 2.5.2.2.4.4.7.6 14.5 1.1 43.3 3.3 47.8 4.2 3.5 2.2 30 12.6 30 12.6z"/><path fill="#201F1E" d="M70.4 177.7c.2-.3.3-.6.5-1-.5.3-1.1.6-1.6 1 .9.6 1.9 1.2 3 1.7-1.2-1.1-1.9-1.7-1.9-1.7zm-1.2 21.8l23.5-8.7c-1.8-.5-3.5-1.2-5.1-1.8l-35.3 13.6-15.4 15.2 2.2 2.2 30.1-20.5zm-29.5 21.2c.8.7 1.6 1.5 2.3 2.2 1.4-.7 3-1.6 4.7-2.5-2.6 0-5 .1-7 .3z"/><path fill="#424242" d="M128.1 177.7V160s-10.8.5-18.1-6.6c-13.8-5.4-23.7-20.8-23.7-20.8s.2-1.9.2-5.3c-.4-.2-.9-.4-1.3-.6.5 4.5.7 11-1.1 17.8 22.6 14.9 34.7 45.7 34.7 45.7l.9.3 8.4-12.8z"/><path fill="#191414" d="M76.8 116.2c6.3 4.7 5.6 8.9 5.6 8.9s1.2.8 2.9 1.6c.4.2.8.4 1.3.6 0-1.9 0-4.4-.1-7.2-4-5.8-7.2-10.6-8.1-12.2-1.9-3.2-2.8-12.1-3.3-18.4-1.6-1.4-4-3.7-6.4-6.2-.1 6.2-.1 13.6.1 16.2.3 3.4 1.1 8 3.7 12.1 1.1 1.7 2.5 3.2 4.3 4.6z"/><path fill="#080102" d="M85.5 27.1c.8-1.8 2.1-3 3.9-3.8-.5-.2-1-.4-1.5-.7-3-.7-5.1-1.9-5.1-1.9s-.5-.6-2.9-.3c-1.4 6-2.6 11.8-2.8 15.9-.3 7.3.3 11.2 6.6 16l.1.1c-1-6.9-1.8-17.3 1.7-25.3z"/><path fill="#807D7E" d="M110 153.4c7.3 7 18.1 6.6 18.1 6.6v-27.4c-9.8 0-11.9-3.9-11.9-3.9 2.3-.9 2.5-1.5 4.8-3.7 1.2-1.4 3.2-2.1 4.9-1.3 1.1 1 2.2.8 2.2.8V85.9h-1.3c-1.4.1-3.4.5-4.2 2.6-1.2 3.2-5.2 12.8-10.4 15.3-3.7 1.8-18.9-4.5-28.5-9.2 2.8 8.6 8 16.8 13.8 24.8 8.4 11.5 13.4 34.3 12.5 34zm-23.6-33.3c0-.8-.1-1.5-.1-2.3-.4-5.7-6.4-18.8-11-28l-.3-.3c.5 6.3 1.4 15.2 3.3 18.4 1 1.7 4.2 6.5 8.1 12.2z"/><path fill="#525151" d="M125.9 123.7c-1.6-.8-3.7-.1-4.9 1.3-2.2 2.2-2.4 2.8-4.8 3.7 0 0 2 3.9 11.9 3.9v-8.1s-1.1.2-2.2-.8z"/><path fill="#594D50" d="M128.1 46.1V32.2c-2 0-4.3-3.8-4.3-3.8-.8 2.8-3.4 1.6-4 1.3-2.2.9-4.7 1.1-4.7 1.1-3-2.7-13.9-8.6-16.7-7.2-1.9 1-5.9.8-9-.3-1.7.8-3.1 2.1-3.9 3.8-3.5 7.9-2.7 18.3-1.6 25.3 6.4 4.8 18.9 12.4 27.2 12.7 8.3.3 14.7 3.2 14.7 8.6 0 1.3-.1 2.3-.2 3.1l2.5 1.7V46.1zm-1.3 39.7h1.3c0 .1-.5 0-1.3 0z"/><path fill="#231E1E" d="M86.4 120.1c.1 2.8.1 5.3.1 7.2-.1 3.4-.2 5.3-.2 5.3s9.9 15.4 23.7 20.8c.9.3-4.1-22.5-12.5-34-5.8-8-11.1-16.2-13.8-24.8-3.9-1.9-6.8-3.5-7.7-4.3-.2-.2-.4-.3-.6-.5 4.6 9.2 10.6 22.3 11 28v2.3z"/><path fill="#3C3737" d="M57.6 46.6c2.6 8.9 4 22.7 4.6 27.1.3 2.4 3.3 6.2 6.5 9.6 2.3 2.5 4.7 4.8 6.4 6.2l.3.3c.2.2.5.4.6.5.9.7 3.9 2.4 7.7 4.3 9.6 4.7 24.9 11 28.5 9.2 5.2-2.6 9.2-12.1 10.4-15.3.7-2.1 2.8-2.5 4.2-2.6h1.3v-2c-6.6 0-11.6 4.7-15.3 5.6-3.7 1-11-.5-11-.5s-2.5 1 2.6 2.4 13.4-1 13.4-1 0 2.2-6 4.8c-6 2.6-8.2-2.6-10.4-4.1-2.2-1.4-13.7-5.5-13.8-10.5-.1-6.5 12.7-6.7 12.7-6.7s15.9 1.1 15.1 9.1c2.4 5.1 10.3-6.2 10.3-6.2.1-.8.2-1.8.2-3.1 0-5.4-6.3-8.3-14.7-8.6-8.3-.3-20.9-7.9-27.2-12.7l-.1-.1c-6.3-4.8-6.9-8.6-6.6-16 .2-4.1 1.4-9.9 2.8-15.9.9-4.1 1.9-8.3 2.6-12.1C78.3 10 74 11.9 69.8 14c-2.1 4.1-4.2 8.3-5.5 12.5-3.3 9.9-9.3 11.2-6.7 20.1z"/><path fill="#231E1E" d="M128.1 78.4l-2.5-1.7s-7.8 11.3-10.3 6.2c.8-8-15.1-9.1-15.1-9.1s-12.7.2-12.7 6.7c0 5 11.6 9.1 13.8 10.5 2.2 1.4 4.3 6.7 10.4 4.1 6-2.6 6-4.8 6-4.8s-8.3 2.4-13.4 1-2.6-2.4-2.6-2.4 7.3 1.4 11 .5c3.7-1 8.7-5.6 15.3-5.6v-5.4z"/><path fill="#3A5C66" d="M82.8 20.7s2 1.2 5.1 1.9c-.8-.4-1.4-.9-1.9-1.5-2.1-3-.5-13.1-.5-13.1 1.3 5.9 10.5 7.7 18.2 9.6S115 30.8 115 30.8s2.5-.2 4.7-1.1c-.1 0-.1-.1-.1-.1 2.2-.7 1.9-3.6 1.6-5-.3-1.4-6.6-3.7-9.8-5.6s-7.8-12.2-7.8-12.2c8.6-.5 19.3 12.9 21 18.4 1.7 5.4 3.5 4.3 3.5 4.3V0h-.1c-15.5 0-30.4 2.8-44.2 7.8-1.3 5.9-1 12.9-1 12.9z"/><path fill="#28454D" d="M123.8 28.4s2.3 3.8 4.3 3.8v-2.7s-1.7 1.1-3.5-4.3c-1.7-5.4-12.4-18.8-21-18.4 0 0 4.6 10.3 7.8 12.2s9.5 4.1 9.8 5.6c.3 1.4.6 4.3-1.6 5 0 0 .1 0 .1.1.7.3 3.3 1.5 4.1-1.3zm-25.4-4.8c2.8-1.4 13.7 4.5 16.7 7.2 0 0-3.7-11.3-11.4-13.3S86.8 13.9 85.5 8c0 0-1.5 10.2.6 13.1.4.6 1.1 1.1 1.9 1.5.5.3 1 .5 1.5.7 2.9 1.1 7 1.3 8.9.3z"/><path fill="#595C5A" d="M84.2 144.6c-.1-.1-.2-.2-.4-.2h-3.5s-4.8 23.3-9.4 32.4c-.2.3-.3.7-.5 1 0 0 .6.7 1.8 1.7 12.3 5.7 34.4 2.3 34.4 2.3l-19 7.2c1.6.7 3.3 1.3 5.1 1.8l18-6.7 5.6 6.9c.8-.2 1.7-.5 2.6-.8 0 .1-12.1-30.7-34.7-45.6z"/><path fill="#C1C1C3" d="M128.1 177.7l-8.3 12.9-.5.6v24.9l8.8 11.5v-34.1z"/><path fill="#C1C1C3" d="M116.5 216.5v-25.2l-.1-.1-5.6-6.9-18 6.7-23.5 8.7-30.1 20.5.6.6c2-.2 4.4-.3 7-.3 17.2 0 45.9 3.7 45.9 3.7l27.1 12.3.8 3.9s-26.5-10.5-29.9-12.7c-4.5-.9-33.3-3.1-47.8-4.2 21.6 19.3 49.9 31.4 81 32.5v-28.3l-7.4-11.2zm69.3-38.8c-11.3 8-37.4 4-37.4 4l19.7 7.6 34.7 13.4s2.2-8 5.3-16.4l-11.4-4.4-7.5-2.9-3.4-1.3z"/><path fill="#99999A" d="M87.6 189l19.1-7.4s-22.1 3.4-34.4-2.3c-1.1-.5-2.1-1-3-1.7h-.1l-9.7 3.7-17 6.5c-2.1.4-4.2.9-6.2 1.5l3.7 4.1c-7.1 3.5-12.1 6.8-15.6 9.8 3.8 5.2 7.9 10.1 12.4 14.6l15.4-15.2L87.6 189z"/><path fill="#AF997D" d="M225.5 160s-1.2.9-8.3 8.5c-3.3 3.4-6.5 10.7-9.1 17.7-3.1 8.5-5.3 16.4-5.3 16.4.9 1.2 2.6 2.9 4.7 4.8-.3-.3-.6-.6-.8-.9 4.2-2.9 4.8-3.4 4.8-3.4l12.3 9.9c7.2-8.1 13.3-17 18.3-26.7-3-.8-5.5-1.4-6.9-2.2-5.7-2.8-9.7-24.1-9.7-24.1z"/><path fill="#C6B7A6" d="M206.6 206.6c.3.3.5.6.8.9 3.2 3.5 8 7.4 11.8 10.3 1.5-1.5 3-3.1 4.4-4.7l-12.3-9.9s-.5.4-4.7 3.4z"/><path fill="#424242" d="M36.4 189.4s-.1 0 0 0c-.3 0-8.5 0-18 4.8 1.9 3.1 3.9 6.2 6.1 9.1 3.5-3 8.4-6.3 15.6-9.8l-3.7-4.1z"/></svg>