<svg xmlns="http://www.w3.org/2000/svg" width="256" height="256"><circle fill="#B1B3B5" cx="128" cy="128" r="128"/><path fill="#6D3E23" d="M127.8 178c-1 .2-5.8 1.2-9.9.6-4.7-.6-11.6-4.8-13.8-6.7-1-.8-2-2.2-3-3.8l-.1 1.8c1 1.5 2.1 2.8 3 3.8 3.7 3.8 9.8 8.6 14.1 14.6 3.2 1.2 6.6 2.1 9.7 2.1V178z"/><path fill="#504030" d="M127.8 190.4c-3.1-.1-6.5-1-9.7-2.1 2.8 3.9 4.8 8.2 4.8 13.2 0 2.5.1 4.9.2 7.5l4.6 1.9v-20.5h.1z"/><path fill="#474542" d="M127.8 211v-.1l-4.6-1.9c.3 8.5.7 20 .1 47 1.5.1 3 .1 4.6.1V211z"/><path fill="#23221F" d="M25.6 199.7l-1.2-.6c-.7.3-1.5.7-2.2 1 7.8 11.4 17.4 21.5 28.4 29.8-7.2-12-17-26-25-30.2z"/><path fill="#191815" d="M96.7 242.7s2.3-48.8-6-69.7c-.1-.3-.2-.5-.3-.8 0-.1-.1-.2-.1-.3l-.6-1.2s-9.7-10.1-1-23.2l1.1 2.2c-1.5-3.8-2.7-7.5-3.8-10.9-4.3 1.7-10.4 5.1-17.5 11.6C55 162.9 28.8 184 16.5 191c1.1 1.9 2.2 3.7 3.3 5.5 1.2.7 2.7 1.6 4.6 2.6l1.2.6c8 4.2 17.8 18.2 25 30.3 13.4 10.2 28.9 17.8 45.7 22.1.2-3.1.4-6.2.4-9.4.1 0 .1 0 0 0zm3.6-76c-.8-.8-1.6-1.7-2.4-2.7-1-1.3-1.9-2.5-2.7-3.9 1.8 3.4 3.9 6.9 5.8 9.6l.1-1.8c-.3-.3-.6-.7-.8-1.2z"/><path fill="#2A2926" d="M123.2 208.9c-.1-2.7-.2-5.1-.2-7.5-.1-5-2.1-9.3-4.8-13.2-4.3-6-10.5-10.8-14.1-14.6-.9-1-2-2.3-3-3.8-1.9-2.8-4-6.3-5.8-9.6-2.2-3.4-3.9-7-5.4-10.5l-1.1-2.2c-8.7 13.2 1 23.2 1 23.2s4.2 5.4 15.6 15c11.5 9.6 11.3 23.4-8.6 56.9-.1 3.2-.3 6.4-.4 9.4 8.6 2.2 17.6 3.5 26.9 3.8.5-26.9.2-38.4-.1-46.9z"/><path fill="#2A2926" d="M90.8 173.1c-.1-.3-.2-.5-.3-.8.1.2.2.5.3.8zm-1-2.4l.6 1.2c-.3-.3-.4-.8-.6-1.2z"/><path d="M90.5 172.3c.1.3.2.5.3.8 8.3 20.9 6 69.7 6 69.7v-.1c19.9-33.5 20.1-47.4 8.6-56.9-11.5-9.6-15.6-15-15.6-15l.6 1.2c0 .1 0 .2.1.3z"/><path fill="#6D3E23" d="M70.8 79.5c-3-1.9-5.7-2.4-5.7 2.6s.5 8.6 2 11.5c1.5 2.9 5 8.9 5 13.7s.5 8.6 3.2 10.8c1.6 1.2 3.9 1 5.7.5-1.4-7.5-2.9-18.1-5.3-35.9-1.6-1.1-3.5-2.3-4.9-3.2z"/><path fill="#804B2D" d="M128.2 8.5h-.2.2zm-13.9 39.9c3.3 2.9 8.4 7.5 13.5 12V8.5c-3 .1-24.4 1.2-37.7 10.9.1 0 .2-.1.2-.1 2.9 6.3 15.6 21.7 24 29.1zm13.5 114v-30c-2-.1-11.7-.1-16.6 4.6-5.5 5.3-6.5 10.5-6.5 10.5l-.3 8.6s5.8 9.1 10.6 11.7c0 0 4.7-5.2 12.6-5.4h.2z"/><path fill="#804B2D" d="M95.2 160.2c.8 1.3 1.7 2.6 2.7 3.9.8 1 1.6 1.9 2.4 2.7-1-1.7-2.1-3.5-3-5.1-2.2-3.5-4.8-5.6-2.5-11.3s5.8-8.6 8.3-11c2.5-2.4 2-5.3 5.7-7 3.7-1.8 7.7-5.6 11.5-5.3 3.7.3 2.9-1 7.6-1.1V67.9c-5.2-5-11.6-10.8-18-15.5C95.9 42.1 84.4 25 84.4 25v-.1c-.6.8-1.2 1.6-1.8 2.5-11 18.2-11.3 22.7-7 55.2v.1c2.4 17.8 3.9 28.5 5.3 35.9 1.1 6.1 2.1 10.1 3.3 14.1.6 1.9 1.1 3.9 1.8 6 1 3.5 2.2 7.2 3.8 10.9 1.4 3.6 3.2 7.2 5.4 10.6zm-8.4-80.9s2.8-3 10.1-.5c7.3 2.6 15.1 3.7 18.8 2.6 0 0 0 3.5-1.8 3.8-1.8.3-10.5-.5-15.8-2.9s-11.6.6-12.3 1.4c0 0-.7-2.8 1-4.4z"/><path fill="#4B2C1C" d="M104.1 171.9c2.2 1.9 9.1 6.1 13.8 6.7 4.1.6 8.9-.4 9.9-.6h-.2v-15.5c-7.9.2-12.6 5.4-12.6 5.4-4.8-2.6-10.6-11.7-10.6-11.7l.3-8.6s1-5.3 6.5-10.5c4.9-4.7 14.6-4.7 16.6-4.6V126c-4.7.1-3.9 1.4-7.6 1.1-3.8-.3-7.8 3.5-11.5 5.3-3.7 1.8-3.2 4.6-5.7 7-2.5 2.4-6 5.3-8.3 11s.3 7.8 2.5 11.3c1 1.6 2 3.4 3 5.1.3.4.5.9.8 1.3 1.1 1.5 2.1 2.9 3.1 3.8zm23.7-9.5zM98.1 82.3c5.3 2.4 14 3.2 15.8 2.9 1.8-.3 1.8-3.8 1.8-3.8-3.7 1.1-11.5 0-18.8-2.6-7.3-2.6-10.1.5-10.1.5-1.7 1.6-1 4.5-1 4.5.6-.9 7-3.9 12.3-1.5z"/><path fill="#804B2D" d="M151.9 171.9c-2.2 1.9-9.1 6.1-13.8 6.7-4.2.6-9.3-.4-10.3-.6v12.4c3.2 0 6.8-.9 10.1-2.2 4.3-6 10.5-10.8 14.1-14.6.9-1 2-2.3 3-3.8l-.1-1.8c-1 1.6-2 3-3 3.9z"/><path fill="#64503F" d="M127.8 190.4v20.5l5-2c.1-2.7.2-5.1.2-7.5.1-5 2.1-9.3 4.8-13.2-3.2 1.2-6.8 2.2-10 2.2z"/><path fill="#514E4B" d="M132.8 208.9l-5 2V256h.2c1.6 0 3.2 0 4.7-.1-.5-27-.2-38.5.1-47z"/><path fill="#2A2926" d="M230.4 199.7c-8 4.2-17.8 18.2-25 30.3 11-8.4 20.6-18.4 28.4-29.8-.8-.4-1.5-.7-2.2-1-.4.1-.8.3-1.2.5z"/><path fill="#23221F" d="M170 138.8c-1 3.5-2.2 7.2-3.8 10.9l1.1-2.2c8.7 13.2-1 23.2-1 23.2l-.6 1.2c0 .1-.1.2-.1.3-.1.3-.2.5-.3.8-8.3 20.9-6 69.7-6 69.7v-.1c.1 3.2.3 6.4.4 9.4 16.8-4.3 32.3-11.9 45.7-22.1 7.2-12 17-26.1 25-30.3l1.2-.6c1.9-1 3.4-1.8 4.6-2.6 1.1-1.8 2.2-3.6 3.3-5.5-12.3-7.1-38.5-28.1-52-40.6-7.1-6.5-13.2-9.8-17.5-11.5zm-14.3 27.9c-.3.4-.5.9-.8 1.3l.1 1.8c1.9-2.8 4-6.3 5.8-9.6-.8 1.3-1.7 2.6-2.7 3.9-.8.9-1.6 1.8-2.4 2.6z"/><path fill="#353431" d="M165.5 172.3c-.1.3-.2.5-.3.8.1-.3.2-.6.3-.8z"/><path fill="#353431" d="M150.6 185.8c11.5-9.6 15.6-15 15.6-15s9.7-10.1 1-23.2l-1.1 2.2c-1.4 3.5-3.2 7-5.4 10.5-1.8 3.4-3.9 6.9-5.8 9.6-1 1.5-2.1 2.8-3 3.8-3.7 3.8-9.8 8.6-14.1 14.6-2.8 3.9-4.8 8.2-4.8 13.2 0 2.5-.1 4.9-.2 7.5-.3 8.5-.7 20-.1 47 9.2-.3 18.2-1.6 26.9-3.8-.2-3-.3-6.2-.4-9.4-19.9-33.6-20.1-47.5-8.6-57z"/><path fill="#353431" d="M166.2 170.7l-.6 1.2c.3-.3.4-.8.6-1.2z"/><path fill="#12100D" d="M150.6 185.8c-11.5 9.6-11.3 23.4 8.6 56.9v.1s-2.3-48.8 6-69.7c.1-.3.2-.5.3-.8 0-.1.1-.2.1-.3l.6-1.2c0-.1-4.1 5.4-15.6 15z"/><path fill="#804B2D" d="M175.5 115.9c-.2 1-.3 1.9-.5 2.7 1.7.4 4.1.7 5.7-.5 2.7-2.2 3.2-6 3.2-10.8s3.5-10.8 5-13.7c1.5-2.9 2-6.5 2-11.5s-2.7-4.6-5.7-2.6c-1.4.9-3.3 2.1-4.8 3.2-1.4 10.5-2.5 18.6-3.5 24.9.8 2.7-.9 7.1-1.4 8.3z"/><path fill="#9B5B3A" d="M142.8 73.7c1.2-.6 2.4-1.1 3.6-1.5-3-8.9-5.2-15.1-5.2-15.4l8.2 14.5c.7-.2 1.4-.3 2.1-.4l-1.2-8.8 3.4 8.6c4.8-.4 9.5.6 14.1 2.8 10.5 4.9 4.8 21.1 2.2 25.5-.1.1-.1.2-.2.3 3.3 3.3 6.6 6.9 7 8.3v.1c1-6.3 2.1-14.4 3.5-24.9v-.1c4.3-32.6 4-37-7-55.2C163 10.4 131.8 8.8 128.1 8.7h-.4v51.9c6.5 5.5 12.8 11.1 15.1 13.1zm-15 77.9v10.9c8 .1 13.1 5.4 13.1 5.4 4.8-2.6 10.6-11.7 10.6-11.7l-.3-8.6s-1-5.3-6.5-10.5c-5.5-5.3-17-4.6-17-4.6v19.1z"/><path fill="#9B5B3A" d="M175.4 116.1c.2-3.9-5-10-8.3-13.4-.9 1-1.9 1.9-3.1 2.8 1 6.2 1.6 11.7 1.9 14.1.1.5.1.9.1 1.2 0 0 0-.4-.1-1.2-.4-2.6-1.9-7.7-3.5-12.9-.8.6-1.7 1-2.7 1.5 1 10.8 1.6 22.3 1.6 22.3-.3-5.6-1.8-13.3-3.9-21.5-2.2.6-4.5.8-6.9.1-8.8-2.4-26.3-21.7-16.1-30 .9-.7 1.7-1.3 2.6-2-1.7-1.8-5-5.2-9.2-9.2v57.9c5.2 0 4.2 1.4 8 1.1 3.8-.3 7.8 3.5 11.5 5.3 3.7 1.8 3.2 4.6 5.7 7 2.5 2.4 6 5.3 8.3 11s-.3 7.8-2.5 11.3c-1 1.6-2 3.4-3 5.1.8-.8 1.6-1.7 2.4-2.7 1-1.3 1.9-2.5 2.7-3.9 2.2-3.4 3.9-7 5.4-10.5 1.5-3.8 2.7-7.5 3.8-10.9.6-2.1 1.2-4.1 1.8-6 1.2-4 2.2-8 3.3-14.1.2-.9.3-1.8.5-2.7l-.3.3z"/><path fill="#5D3929" d="M127.8 132.4s11.5-.6 17 4.6c5.5 5.3 6.5 10.5 6.5 10.5l.3 8.6s-5.8 9.1-10.6 11.7c0 0-5.1-5.3-13.1-5.4h-.2v15.5h.2c1 .2 6.1 1.2 10.3.6 4.7-.6 11.6-4.8 13.8-6.7 1-.8 2-2.2 3-3.8.3-.4.5-.9.8-1.3 1-1.7 2.1-3.5 3-5.1 2.2-3.5 4.8-5.6 2.5-11.3s-5.8-8.6-8.3-11c-2.5-2.4-2-5.3-5.7-7-3.7-1.8-7.7-5.6-11.5-5.3-3.8.3-2.8-1.1-8-1.1v6.5z"/><path fill="#804B2D" d="M141.1 56.7c0 .3 2.2 6.5 5.2 15.4 1-.3 2-.7 3-.9l-8.2-14.5zm24.8 62.9c-.3-2.3-.9-7.8-1.9-14.1-.5.4-1.1.8-1.6 1.2 1.6 5.2 3.1 10.3 3.5 12.9zm-4.6 10.9s-.6-11.5-1.6-22.3c-.7.3-1.5.6-2.3.8 2.1 8.3 3.6 15.9 3.9 21.5zm4.6-10.9c.1.8.1 1.2.1 1.2 0-.3 0-.7-.1-1.2zM150.3 62l1.2 8.8c.7-.1 1.5-.2 2.2-.3l-3.4-8.5z"/><path fill="#1E2220" d="M175.4 116.1s0-.1.1-.3c.5-1.1 2.1-5.6 1.3-8.3v-.1c-.5-1.5-3.7-5-7-8.3-.6 1.1-1.6 2.3-2.7 3.5 3.3 3.6 8.5 9.6 8.3 13.5zm-65.6-63.7c6.4 4.7 12.8 10.6 18 15.5 4.2 4 7.5 7.4 9.2 9.2 1.9-1.4 3.9-2.5 5.8-3.5-2.3-2-8.6-7.6-14.9-13.2-5.1-4.5-10.3-9.1-13.5-12C106 41 93.3 25.6 90.5 19.3c0 0-.1 0-.2.1-1 .3-5 1.5-5.7 5.4v.1c-.2.1 11.3 17.2 25.2 27.5z"/><path fill="#252927" d="M150.5 109.1c2.4.7 4.7.5 6.9-.1.8-.2 1.5-.5 2.3-.8.9-.4 1.8-.9 2.7-1.5.6-.4 1.1-.7 1.6-1.2 1.2-.9 2.2-1.9 3.1-2.8 1.2-1.2 2.1-2.5 2.7-3.5.1-.1.1-.2.2-.3 2.6-4.5 8.3-20.6-2.2-25.5-4.6-2.2-9.3-3.1-14.1-2.8-.7.1-1.5.1-2.2.3-.7.1-1.4.3-2.1.4-1 .2-2 .5-3 .9-1.2.4-2.4.9-3.6 1.5-1.9.9-3.8 2.1-5.8 3.5-.9.6-1.7 1.3-2.6 2-10.2 8.2 7.3 27.5 16.1 29.9z"/></svg>