<svg xmlns="http://www.w3.org/2000/svg" width="256" height="256"><circle fill="#B1B3B5" cx="128" cy="128" r="128"/><path fill="#775B4B" d="M150.4 167.4c-2.2 1.8-2.3 3.5-3.7 4.5-1.3 1-.8.3-3.3 1.8s-3.1 3.1-3.3 3.1c-.2 0 .1.1-1.9.4-2 .3-1 .3-2 .3h-1s0 .6-.8.6h-1.7c-1.2 0-1.5 1-1.5 1s-.5-.3-1 0-2.2 0-2.2 0v11.1c16.7 0 27.5-8.5 33.3-15.1.9-8.4 1.2-13.6 1.2-13.6l.1.1c-1.2-2.8-1.9-6-2.3-8.9-2.5 2.9-4.8 5.6-5.3 6.6-.9 1.6-2.4 6.4-4.6 8.1zm16.2 0zm8.9-78.1c-.2-.3-.3-2-.4-3.9-.5 9.6-1.2 19.3-1.3 28.3 1.6-.4 3.2-1.2 4.1-2.9 2.2-4.6 4.5-10.3 3.8-13.4-.8-3.1 1-3.1 2-10.1 1-6.9.5-8.6-2.3-9.8-1-.4-2.6-.4-4.1-.1-.6 5.9-1.5 12.5-1.8 11.9z"/><path fill="#8C6C5A" d="M174.8 78.5c-.3-1.9-2.7-4.8-3.5-5.3s.2-1.1.8-3.2-.8-5.1-.8-8.5c0-3.4-1.8-8.9-1.8-10.1v-2.9c0-1.1-.8-1.6-2.3-2.2-1.5-.6-4.8-3.2-10.7-6.9-5.9-3.7-28.4-4.8-28.4-4.8V127h3c.8 0 3.2 1.8 5.3 1.4 2.2-.3 7 1 9.9 2.9 2.8 1.9 5.3 4 5.8 4.5s-1.8.8-2.5 0-3.2-.8-4.5-.8-2.5 0-4.7-1.1-12.4-.8-12.4-.8v34.3s7.5-.6 9.9-1.9c2.3-1.3.5-2.6 4.7-3.5 4.2-1 5-.3 7.4-2.9 2.3-2.6.8-.3 3.8-4.6s2.8-5.1 7.2-7.7c3.7-2.2 6.6-6 8.3-9 .2-.4.4-.8.6-1.1.1-.1.2-.3.2-.4 3.1-6 3.7-10.6 3.7-21.2v-1.2c.1-9.1.8-18.7 1.3-28.3-.1-2.8-.1-6-.3-7.1zm-11.9 5.6c-3-1-7-1.2-12 0s-14 0-14 0c-1.8-3.4 5-1.7 10-3.1 5-1.4 13.5-2.2 14-1.2s6.3 2.2 7.3 3.5c1 1.3 0 2.7 0 2.7s-2.3-1-5.3-1.9z"/><path fill="#503128" d="M168.1 83.3c-1-1.3-6.8-2.5-7.3-3.5s-9-.2-14 1.2-11.8-.2-10 3.1c0 0 9 1.2 14 0s9-1 12 0 5.3 1.9 5.3 1.9 1-1.4 0-2.7z"/><path fill="#472C2A" d="M140.4 133.9c2.2 1.1 3.3 1.1 4.7 1.1s3.8 0 4.5.8c.7.8 3 .5 2.5 0s-3-2.6-5.8-4.5-7.7-3.2-9.9-2.9c-2.2.3-4.5-1.4-5.3-1.4h-3v6.1c-.1 0 10.1-.3 12.3.8zm29.5 2.8c-.2.4-.4.7-.6 1.1-1.7 3-4.7 6.8-8.3 9-4.3 2.6-4.2 3.4-7.2 7.7-3 4.3-1.5 2.1-3.8 4.6-2.3 2.6-3.2 1.9-7.4 2.9s-2.3 2.2-4.7 3.5c-2.3 1.3-9.9 1.9-9.9 1.9v11.7s1.7.3 2.2 0c.5-.3 1 0 1 0s.3-1 1.5-1h1.7c.8 0 .8-.6.8-.6h1c1 0 0 0 2-.3s1.6-.4 1.9-.4c.2 0 .8-1.7 3.3-3.1s2-.8 3.3-1.8c1.3-1 1.5-2.7 3.7-4.5 2.2-1.8 3.7-6.5 4.5-8.1.5-1 2.9-3.8 5.3-6.6 1.4-1.6 2.9-3.3 4-4.7 3.2-3.8 5.8-11.6 5.8-11.6.1 0 0 .2-.1.3zM128 34.7s22.6 1.1 28.4 4.8c5.9 3.7 9.2 6.2 10.7 6.9 1.5.6 2.3 1.1 2.3 2.2v2.9c0 1.1 1.8 6.7 1.8 10.1 0 3.4 1.5 6.4.8 8.5s-1.7 2.7-.8 3.2 3.2 3.4 3.5 5.3c.2 1.1.2 4.3.3 7 .1 1.9.2 3.5.4 3.9.3.5 1.2-6 1.8-11.8.3-3.2.6-6.2.6-7.6 0 0 .7-23.5-6.7-35.1-7.4-11.7-9.3-14.8-18.2-19-8.9-4.2-13.2-7.4-24.9-7.4v26.1z"/><path fill="#2C2743" d="M165.1 183.8c-3.3 30.8-8.7 54.3-13.2 69.9 35.4-6.7 65.6-27.9 84.2-57.2-18.9-6.2-52.9-18-63.5-25.1-1.4 4.4-3.9 8.7-7.5 12.4zm-5.4 4.7c-7.5 5.4-18.1 9-31.7 9V256c6.4 0 12.7-.5 18.9-1.4 6.6-22.8 10.5-47.7 12.8-66.1z"/><path fill="#8B8A8B" d="M165.1 183.8c3.6-3.8 6.1-8 7.5-12.4.1-.2.1-.4.2-.6 0 0-1.3-3.5-6.2-3.5-.4 5.8-.9 11.3-1.5 16.5zm-37.1 6.3v7.4c13.6 0 24.2-3.6 31.7-9 .6-5.1 1.1-9.6 1.5-13.5-5.7 6.6-16.5 15.1-33.2 15.1z"/><path fill="#A18642" d="M165.1 183.8c.6-5.3 1.1-10.7 1.5-16.4 0 0 .3-1.8-4.1-5.9l-.1-.1s-.3 5.2-1.2 13.6c-.4 3.9-.9 8.4-1.5 13.5-2.3 18.3-6.3 43.3-12.8 66.1 1.7-.2 3.4-.5 5-.9 4.5-15.5 9.9-39.1 13.2-69.9z"/><path fill="#60493B" d="M94.7 175c5.8 6.6 16.5 15.1 33.3 15.1V179s-1.7.3-2.2 0c-.5-.3-1 0-1 0s-.3-1-1.5-1h-1.7c-.8 0-.8-.6-.8-.6h-1c-1 0 0 0-2-.3s-1.6-.4-1.9-.4c-.2 0-.8-1.7-3.3-3.1s-2-.8-3.3-1.8c-1.3-1-1.5-2.7-3.7-4.5-2.2-1.8-3.7-6.5-4.5-8.1-.5-1-2.9-3.8-5.3-6.6-.4 2.9-1.1 6.1-2.3 8.9l.1-.1s.3 5.2 1.1 13.6zm-5.3-7.6zm-8.9-78.1c-.3.5-1.2-6-1.8-11.8-1.6-.3-3.1-.3-4.1.1-2.8 1.2-3.3 2.9-2.3 9.8s2.8 6.9 2 10.1c-.8 3.1 1.5 8.9 3.8 13.4.9 1.7 2.4 2.6 4.1 2.9-.1-9.1-.8-18.7-1.3-28.3-.1 1.9-.2 3.5-.4 3.8z"/><path fill="#775B4B" d="M86.1 136.7c.2.4.4.7.6 1.1 1.7 3 4.7 6.8 8.3 9 4.3 2.6 4.2 3.4 7.2 7.7 3 4.3 1.5 2.1 3.8 4.6 2.3 2.6 3.2 1.9 7.4 2.9s2.3 2.2 4.7 3.5c2.3 1.3 9.9 1.9 9.9 1.9v-34.3s-10.2-.3-12.4.8c-2.2 1.1-3.3 1.1-4.7 1.1-1.3 0-3.8 0-4.5.8-.7.8-3 .5-2.5 0s3-2.6 5.8-4.5 7.7-3.2 9.9-2.9c2.2.3 4.5-1.4 5.3-1.4h3V34.7s-22.6 1.1-28.4 4.8c-5.9 3.7-9.2 6.2-10.7 6.9-1.5.6-2.3 1.1-2.3 2.2v2.9c0 1.1-1.8 6.7-1.8 10.1 0 3.4-1.5 6.4-.8 8.5.7 2.1 1.7 2.7.8 3.2-.8.5-3.2 3.4-3.5 5.3-.2 1.1-.2 4.3-.3 7 .5 9.6 1.2 19.3 1.3 28.3v1.2c0 10.7.6 15.3 3.7 21.2 0 .1.1.3.2.4zm1.8-53.4c1-1.3 6.8-2.5 7.3-3.5s9-.2 14 1.2 11.8-.2 10 3.1c0 0-9 1.2-14 0s-9-1-12 0-5.3 1.9-5.3 1.9-1-1.4 0-2.7z"/><path fill="#472C2A" d="M93.1 84.1c3-1 7-1.2 12 0s14 0 14 0c1.8-3.4-5-1.7-10-3.1-5-1.4-13.5-2.2-14-1.2s-6.3 2.2-7.3 3.5c-1 1.3 0 2.7 0 2.7s2.3-1 5.3-1.9z"/><path fill="#311916" d="M125 127c-.8 0-3.2 1.8-5.3 1.4-2.2-.3-7 1-9.9 2.9-2.8 1.9-5.3 4-5.8 4.5s1.8.8 2.5 0 3.2-.8 4.5-.8c1.3 0 2.5 0 4.7-1.1s12.4-.8 12.4-.8V127H125zm-19.4 40.4c2.2 1.8 2.3 3.5 3.7 4.5 1.3 1 .8.3 3.3 1.8s3.1 3.1 3.3 3.1c.2 0-.1.1 1.9.4 2 .3 1 .3 2 .3h1s0 .6.8.6h1.7c1.2 0 1.5 1 1.5 1s.5-.3 1 0 2.2 0 2.2 0v-11.7s-7.5-.6-9.9-1.9c-2.3-1.3-.5-2.6-4.7-3.5-4.2-1-5-.3-7.4-2.9-2.3-2.6-.8-.3-3.8-4.6s-2.8-5.1-7.2-7.7c-3.7-2.2-6.6-6-8.3-9-.2-.4-.4-.8-.6-1.1-.1-.1-.2-.3-.2-.4 0 .1 2.7 7.8 5.8 11.6 1.2 1.4 2.6 3.1 4 4.7 2.5 2.9 4.8 5.6 5.3 6.6.9 1.7 2.4 6.5 4.6 8.2zM80.5 89.3c.2-.3.3-2 .4-3.9.1-2.7.1-5.9.3-7 .3-1.9 2.7-4.8 3.5-5.3.8-.5-.2-1.1-.8-3.2-.7-2.1.8-5.1.8-8.5 0-3.4 1.8-8.9 1.8-10.1v-2.9c0-1.1.8-1.6 2.3-2.2 1.5-.6 4.8-3.2 10.7-6.9 5.9-3.7 28.4-4.8 28.4-4.8V8.4c-11.7 0-16 3.2-24.9 7.4-8.9 4.2-10.9 7.3-18.2 19-7.4 11.7-6.7 35.1-6.7 35.1 0 1.5.2 4.5.6 7.6.6 5.8 1.5 12.4 1.8 11.8z"/><path fill="#25203C" d="M128 197.6c-13.6 0-24.2-3.6-31.7-9 2.3 18.3 6.3 43.3 12.8 66.1 6.2.9 12.5 1.4 18.9 1.4v-58.5zm-37.1-13.8c-3.6-3.8-6.1-8-7.5-12.4-10.6 7.1-44.6 18.9-63.5 25.1 18.6 29.3 48.8 50.5 84.2 57.2-4.5-15.5-9.9-39.1-13.2-69.9z"/><path fill="#737374" d="M128 190.1c-16.7 0-27.5-8.5-33.3-15.1.4 3.9.9 8.4 1.5 13.5 7.5 5.4 18.1 9 31.7 9v-7.4zm-37.1-6.3c-.6-5.3-1.1-10.7-1.5-16.4-4.9 0-6.2 3.5-6.2 3.5.1.2.1.4.2.6 1.4 4.3 3.9 8.6 7.5 12.3z"/><path fill="#8F7839" d="M96.3 188.5c-.6-5.1-1.1-9.6-1.5-13.5-.9-8.4-1.2-13.6-1.2-13.6l-.1.1c-4.4 4-4.1 5.9-4.1 5.9.4 5.7.9 11.1 1.5 16.4 3.3 30.8 8.7 54.3 13.2 69.9 1.7.3 3.3.6 5 .9-6.6-22.8-10.5-47.7-12.8-66.1z"/></svg>