<svg xmlns="http://www.w3.org/2000/svg" width="256" height="256"><circle fill="#B1B3B5" cx="128" cy="128" r="128"/><path fill="#262524" d="M181.2 185.6l5.1 2.3c-.1-.8-.2-1.8-.4-2.9l-9.3-2.4c.2.4.5.9.8 1.4l3.8 1.6zm-4.7-3.1l-.8-1.4c.2.4.5.8.8 1.4z"/><path fill="#C08C76" d="M175.1 179.9l-.1-.2s0 .1.1.2z"/><path fill="#C08C76" d="M173.1 164.8s-17.3 4.2-18.2 4.2c-.2 0 0-1.9.4-5.1-1.1.8-2.8 1.9-5.1 3-1.3 2.9-4.1 7.7-9.3 8.9-6.5 1.6-11.7 1.9-12.8 2v16.7c3.2 0 39.6-.7 46.9-14.8h.1c-.8-7-.8-13.9-.6-19.5-.6.1-.9.2-.9.2l-.5 4.4z"/><path fill="#D7A990" d="M128.1 106v57.7c2.1 0 18.4 0 28.1-6.7 2.3-15.7 6.4-41.3 6.4-41.3l.9-6.3-9.9-2.9-3.6-3.2-.3-.4c-8.5 5-19.9 3.4-21.6 3.1z"/><path fill="#5C6266" d="M156.2 157.1c-9.7 6.8-26 6.8-28.1 6.7v3.5h15.7l5.8-5.2 1.3 2.6s-.3.9-.8 2.2c2.3-1.1 4-2.2 5.1-3 .3-1.9.6-4.2 1-6.8z"/><path fill="#70787C" d="M156.2 157.1c-.4 2.6-.7 4.9-.9 6.8-.4 3.1-.6 5.1-.4 5.1.9 0 18.2-4.2 18.2-4.2l.5-4.3.1-1.5h-.1l.6-6.5 3.8-38.6h-.1c-3 13.5-10.7 48.2-11 50-.4 2.2-10.1 3.8-10.1 3.8l1.8-15h4.7l6.4-41.3-6.3-1.9-.9 6.3c.1-.1-4 25.6-6.3 41.3z"/><path fill="#D1C947" d="M163.4 152.6h-4.7l-1.8 15s9.6-1.6 10.1-3.8c.4-1.8 8-36.5 11-50l-8.3-2.4-6.3 41.2z"/><path fill="#A3ACB1" d="M128.1 36.1l3.4 24.6c14.2.3 28.2 3.7 36.5 6.1h.2c1.1-16.2 4.3-31.9 5.3-36.7l-2.4-1.8-2.6 8-4.6-2.9 4.9-6.9-2.1-1.6-6.1 6-3.9-2.4 3.3-2.1 5.8-6 14.8 10.4c-2.2 12-2 52.4-2 52.4l-3.6 2.9c-7.1-2.2-14.7-3.2-21-3.8l-3.9 20.3c-.1.1-.2.1-.3.2l.3.4 3.6 3.2 9.9 2.9 6.3 1.9 8.3 2.4h.1l-3.8 38.6s8.2-15.5 20.5-20.9c-.1.8-.1 1.6-.2 2.5 1.8-20.1 1.7-60.9-5.4-84.8 0 0-9-41-49.3-41h-11.7v28.1z"/><path fill="#A3ACB1" d="M173.5 72.7c.1 0 .2.1.3.1-.1 0-.2 0-.3-.1zm.2 86.2l.5-6.5-.6 6.5h.1z"/><path fill="#B5BEC3" d="M140 81.9v-8.3l9.2-7.4c-2.4-.4-4.8-.7-7-.9-.3 0-8.8-.3-10.5 8.3-1.4 7-3 15.7-3.6 18.9V106c1.7.3 13.1 1.9 21.6-3.2.1-.1.2-.1.3-.2l3.9-20.3c-8-.6-13.9-.4-13.9-.4z"/><path fill="#BF7A71" d="M128.1 83.3v9.2c.6-3.2 2.2-11.9 3.6-18.9 1.8-8.6 10.2-8.3 10.5-8.3-7.4-.8-13-.9-14.1-.9v18.9z"/><path fill="#889094" d="M178.2 31.4c-1.4 9.1-2.3 28.9-2.6 37.8l-.2 4.5-.5 12.6 3.6-2.9s-.2-40.4 2-52.4l-14.8-10.4-5.8 6 5.6-3.5 1.8 1.3-.7.7 2.1 1.6.6-.9 2.1 1.4-.4 1.2 2.4 1.8.3-1.5 4.5 2.7z"/><path fill="#D1C947" d="M175.6 69.1c.4-8.8 1.3-28.7 2.6-37.8l-4.4-2.8-.3 1.5c-1 4.8-4.2 20.4-5.3 36.7h-.2c4.7 1.4 7.6 2.4 7.6 2.4z"/><path fill="#AB513C" d="M128.1 62.2v2.2c1.1 0 6.7.1 14.1.9 2.2.2 4.5.5 7 .9 9.7.5 20.2 4.6 24.3 6.5.1 0 .2.1.3.1 1 .5 1.6.7 1.6.7l.2-4.5v-.1s-2.9-1.1-7.6-2.4c-8.3-2.4-22.4-5.8-36.5-6.1l-3.4-24.6v26.4z"/><path fill="#D1C947" d="M169.4 25.7l-.6.9-4.9 6.8 4.6 2.9 2.6-8 .4-1.2zm-3.8-2.7l-5.6 3.5-3.3 2 3.8 2.5 6.1-6 .8-.7z"/><path fill="#241B13" d="M173.9 72.9c-.1 0-.2-.1-.3-.1-4.2-1.9-14.6-6-24.3-6.5l-9.2 7.4V82s5.9-.2 14 .5c6.3.5 13.8 1.6 21 3.8l.5-12.6c-.2-.1-.7-.4-1.7-.8z"/><path fill="#889094" d="M174.3 152.4l-.5 6.5-.1 1.5s.3-.1.9-.2c2.8-.7 11.3-2.8 15.1-5 4.1-2.4 4.4-13.6 5-21.2.1-.9.1-1.8.2-2.5-12.4 5.3-20.6 20.9-20.6 20.9z"/><path fill="#A3ACB1" d="M149.6 162.1l-5.8 5.2h-15.7v10.6c1.1-.1 6.2-.4 12.8-2 5.1-1.2 8-6.1 9.3-8.9.6-1.3.8-2.2.8-2.2l-1.4-2.7z"/><path fill="#3C4A57" d="M160 234.1c-1.1 1.4-2 2.6-2.7 3.5l2.7-3.5zm-31.9-11.3v15.1H157l.2-.1c.1-1.3 1-14.5 7-24.8.3-2.3.9-4.7 1.6-6.7 3.8-10.5 11.5-22.3 11.5-22.3-.3-.5-.6-1-.8-1.4-.3-.5-.6-1-.8-1.4-.3-.5-.5-.9-.6-1.2-.1-.1-.1-.2-.1-.2-7.3 14.1-43.7 14.8-46.9 14.8v28.2zm29.2 14.9c0 .1-.1.1-.1.2l.1-.2z"/><path fill="#3C4A57" d="M157 237.8h.2v-.1l-.2.1z"/><path fill="#262524" d="M186.3 188.2v-.4l-5.1-2.3c0 .1 2 1.1 5.1 2.7zm-7.7 12.9l2.6-15.5-3.9-1.7s-7.7 11.8-11.5 22.3c-.8 2.1-1.3 4.4-1.6 6.7 1.4-2.3 3-4.4 4.9-6.3l.6-.6.2-.2c.6-.5 1.3-1 2-1.3 2.8-1.1 4.9-2.3 6.7-3.4z"/><path fill="#373736" d="M181.2 185.6l-2.6 15.5c2.4-1.5 4-3 5.1-4.5 1.7-3.3 2.9-4.6 2.6-8.4-3.1-1.6-5.1-2.6-5.1-2.6zm-53.1 52.2v8.7l27 1.1L165 236s4 .4 10.2 2.1c.8-2.3 2.1-5.2 3.1-8.8 1-3.4 3.2-11.1 5.4-18.8-7.1 4.4-17.9 16.3-23.6 23.5l-2.7 3.5-.1.2h-29.2zm81.1-20c-.8 3.7-1.8 7.6-2.7 11.3 3.2-2.5 6.3-5.1 9.3-7.9-2.1-1.2-4.3-2.3-6.6-3.4z"/><path fill="#484544" d="M209.2 217.8c-9.1-4.6-18.2-8.8-21.1-8.9-1.2 0-2.7.6-4.5 1.7-2.2 7.7-4.4 15.4-5.4 18.8-1 3.5-2.3 6.4-3.1 8.8 3.2.9 6.9 2.2 10.9 4 7.3-3.7 14.2-8.1 20.6-13.1.9-3.7 1.8-7.6 2.6-11.3z"/><path fill="#7A7877" d="M175.1 238.2C169 236.4 165 236 165 236l-9.9 11.7-27-1.1v9.4c20.8 0 40.5-5 57.9-13.9-4-1.7-7.7-3-10.9-3.9zm14-57.1s3.8 7.9 1.1 18.4c0 0-24.6 9.3-33 38.4 0-.1.1-.1.1-.2.7-.9 1.6-2.1 2.7-3.5 5.7-7.2 16.5-19.1 23.6-23.5 1.8-1.1 3.3-1.8 4.5-1.7 3 .1 12 4.3 21.1 8.9 2.2 1.1 4.4 2.3 6.6 3.4 6.2-5.8 11.8-12.3 16.7-19.2-15.9-7.9-34.7-17.3-36.8-18.8-1.1-1.1-3.7-1.7-6.6-2.2zm-3.9-.6c-4.8-.6-9.4-.8-10.1-.8h-.1s5.7.3 10.2.8zm-16.1 26.2l.6-.6-.6.6z"/><path fill="#7A7877" d="M178.6 201.1c-1.8 1.1-3.9 2.3-6.6 3.5-.7.3-1.4.8-2 1.3.4-.2 11.7-5.3 13.8-9.3-1.2 1.5-2.8 3-5.2 4.5z"/><path fill="#6A6968" d="M175 179.7l.1.2.6 1.2.8 1.4 9.3 2.4c.2 1.1.4 2.1.4 2.9v.4c.3 3.8-.9 5.1-2.6 8.4-2.1 4-13.3 9.1-13.8 9.3l-.2.2-.6.6c-1.9 1.8-3.5 4-4.9 6.3-6 10.2-7 23.5-7 24.8v.1c8.4-29 33-38.4 33-38.4 2.8-10.5-1.1-18.4-1.1-18.4-.9-.2-2.3-.4-3.9-.6-4.4-.5-10.1-.8-10.1-.8z"/><path fill="#262524" d="M74.8 185.6l3.9-1.7c.3-.5.6-1 .8-1.4l-9.3 2.4c-.2 1.1-.4 2.1-.4 2.9l5-2.2zm5.5-4.5l-.8 1.4c.3-.6.6-1 .8-1.4z"/><path fill="#B17D6B" d="M81 179.7l-.1.2c.1-.1.1-.2.1-.2z"/><path fill="#B17D6B" d="M128.1 194.5v-16.7s-5.6-.2-13-2c-5.1-1.2-8-6.1-9.3-8.9-2.3-1.1-4-2.2-5.1-3 .4 3.1.6 5.1.4 5.1-.9 0-18.2-4.2-18.2-4.2l-.5-4.3s-.3-.1-.9-.2c.2 5.6.2 12.5-.6 19.5h.1c7.6 14.7 47.1 14.7 47.1 14.7z"/><path fill="#C08C76" d="M99.8 157.1c10.4 7.3 28.3 6.7 28.3 6.7V106s-12.6 2.3-21.8-3.1l-.3.4-3.6 3.2-9.9 2.9.9 6.3s4.1 25.7 6.4 41.4z"/><path fill="#4C5256" d="M106.4 162.1l5.8 5.2h15.9v-3.5s-17.9.5-28.3-6.7c.4 2.6.7 4.9.9 6.8 1.1.8 2.8 1.9 5.1 3-.6-1.3-.8-2.2-.8-2.2l1.4-2.6z"/><path fill="#595F63" d="M99.8 157.1c-2.3-15.7-6.4-41.3-6.4-41.3l-.9-6.3-6.3 1.9 6.4 41.3h4.7l1.8 15s-9.6-1.6-10.1-3.8c-.4-1.8-8-36.5-11-50h-.1l3.8 38.6.6 6.5h-.1l.1 1.5.5 4.3s17.3 4.2 18.2 4.2c.2 0 0-1.9-.4-5.1-.1-1.9-.4-4.2-.8-6.8z"/><path fill="#9E9A35" d="M89 163.8c.4 2.2 10.1 3.8 10.1 3.8l-1.8-15h-4.7l-6.4-41.3-8.3 2.4c3 13.6 10.7 48.3 11.1 50.1z"/><path fill="#889094" d="M81.7 152.4l-3.8-38.6h.1l8.3-2.4 6.3-1.9 9.9-2.9 3.6-3.2.3-.4c-.1-.1-.2-.1-.3-.2L102 82.4c-6.3.5-13.8 1.6-21 3.8l-3.6-2.9s.2-40.4-2-52.4l14.8-10.4 5.8 6 3.3 2.1-3.8 2.4-6.1-6-2.1 1.6 4.9 6.9-4.6 2.9-2.6-8-2.4 1.8c1 4.8 4.2 20.4 5.3 36.7h.2c8.3-2.4 22.4-5.8 36.5-6.1l3.6-26.2V8.2h-11.9c-40.4 0-49.3 41-49.3 41-7.1 23.9-7.2 64.7-5.4 84.8-.1-.9-.1-1.8-.2-2.5 12.1 5.3 20.3 20.9 20.3 20.9z"/><path fill="#889094" d="M82.5 72.7c-.1 0-.2.1-.3.1.1 0 .2 0 .3-.1zm-.8 79.7l.5 6.5h.1l-.6-6.5z"/><path fill="#A3ACB1" d="M128.1 106V93.8s-2-11.4-3.8-20.2c-1.8-8.6-10.2-8.3-10.5-8.3-2.2.2-4.5.5-7 .9l9.2 7.4v8.3s-5.9-.2-14 .5l3.9 20.3c.1.1.2.1.3.2 9.3 5.4 21.9 3.1 21.9 3.1z"/><path fill="#AB513C" d="M128.1 83.3V64.4s-6 0-14.3.9c.3 0 8.8-.3 10.5 8.3 1.8 8.7 3.8 20.2 3.8 20.2V83.3z"/><path fill="#666D71" d="M80.4 69.1c-.4-8.9-1.3-28.7-2.6-37.8l4.4-2.8.3 1.5 2.4-1.8-.4-1.2 2.1-1.4.6.9 2.1-1.6-.7-.7 1.8-1.3 5.6 3.5-5.8-6-14.8 10.5c2.2 12 2 52.4 2 52.4l3.6 2.9-.5-12.6-.1-4.5z"/><path fill="#9E9A35" d="M77.8 31.4c1.4 9.1 2.3 28.9 2.6 37.8 0 0 2.9-1.1 7.6-2.4h-.2c-1.1-16.2-4.3-31.9-5.3-36.7l-.3-1.5-4.4 2.8z"/><path fill="#8B402E" d="M80.4 69.1l.2 4.5s.6-.3 1.6-.7c.1 0 .2-.1.3-.1 4.2-1.9 14.6-6 24.3-6.5 2.4-.4 4.8-.7 7-.9 8.3-.9 14.3-.9 14.3-.9V34.4l-3.6 26.2c-14.2.3-28.2 3.7-36.5 6.1-4.7 1.4-7.6 2.4-7.6 2.4z"/><path fill="#9E9A35" d="M84.5 27.1l.4 1.2 2.6 8 4.6-2.9-4.9-6.8-.6-.9zm4.1-2.8l.8.7 6.1 6 3.8-2.5-3.3-2-5.6-3.5z"/><path fill="#130800" d="M116 81.9v-8.3l-9.2-7.4c-9.7.5-20.2 4.6-24.3 6.5-.1 0-.2.1-.3.1-1 .5-1.6.7-1.6.7l.5 12.6c7.1-2.2 14.7-3.2 21-3.8 8-.6 13.9-.4 13.9-.4z"/><path fill="#666D71" d="M82.4 160.4l-.1-1.5-.5-6.5s-8.2-15.5-20.5-20.9c.1.8.1 1.6.2 2.5.5 7.6.8 18.8 5 21.2 3.9 2.2 12.4 4.4 15.1 5 .5.2.8.2.8.2z"/><path fill="#889094" d="M128.1 171.4v-4.2h-15.9l-5.8-5.2-1.3 2.6s.3.9.8 2.2c1.3 2.9 4.1 7.7 9.3 8.9 7.4 1.8 13 2 13 2v-6.3z"/><path fill="#34424E" d="M98.7 237.7c-.7-.9-1.6-2.1-2.7-3.5l2.7 3.5zm29.2.1h.2v-43.4s-39.5 0-47.1-14.8c0 0 0 .1-.1.2l-.6 1.2c-.2.4-.5.9-.8 1.4-.2.4-.5.9-.8 1.4 0 0 7.7 11.8 11.5 22.3.8 2.1 1.3 4.4 1.6 6.7 6 10.2 7 23.5 7 24.8l.2.1h28.9zm-29.1-.1v.1h.2l-.2-.1zm0 .1c0-.1-.1-.1-.1-.2l.1.2z"/><path fill="#262524" d="M69.7 187.8v.4c3.1-1.6 5.1-2.7 5.1-2.7l-5.1 2.3zm9-3.9l-3.9 1.7 2.6 15.5c1.8 1.1 3.9 2.3 6.6 3.5.7.3 1.4.8 2 1.3l.2.2.6.6c1.9 1.8 3.5 4 4.9 6.3-.3-2.3-.9-4.7-1.6-6.7-3.8-10.6-11.4-22.4-11.4-22.4z"/><path fill="#252524" d="M127.9 237.8H98.8l-.1-.2-2.7-3.5c-5.7-7.2-16.5-19.1-23.6-23.5 2.2 7.7 4.4 15.4 5.4 18.8 1 3.5 2.3 6.4 3.1 8.8C87 236.4 91 236 91 236l9.9 11.7 27.2-1.1v-8.7h-.2zm-81.1-20c-2.2 1.1-4.4 2.3-6.6 3.4 3 2.8 6 5.4 9.3 7.9-1-3.7-1.9-7.6-2.7-11.3zm30.6-16.7l-2.6-15.5s-2 1-5.1 2.7c-.3 3.8.9 5.1 2.6 8.4 1.1 1.4 2.7 2.9 5.1 4.4z"/><path fill="#393636" d="M80.9 238.2c-.8-2.3-2.1-5.2-3.1-8.8-1-3.4-3.2-11.1-5.4-18.8-1.8-1.1-3.3-1.8-4.5-1.7-3 .1-12 4.3-21.1 8.9.8 3.7 1.8 7.6 2.7 11.3 6.4 5 13.3 9.4 20.6 13.1 3.9-1.8 7.6-3.1 10.8-4z"/><path fill="#69696A" d="M128.1 246.6l-27.2 1.1L91 236s-4 .4-10.2 2.1c-3.2.9-6.9 2.2-10.9 4 17.4 8.9 37.1 13.9 58 13.9h.1v-9.4z"/><path fill="#6A6968" d="M81 179.7c-.8 0-5.4.3-10.2.8 4.5-.5 10.2-.8 10.2-.8zm5.3 26.4l.6.6-.6-.6zm-8.9-5c-2.4-1.5-4-3-5.1-4.5 2.1 4 13.3 9.1 13.8 9.3-.6-.5-1.3-1-2-1.3-2.8-1.2-4.9-2.4-6.7-3.5z"/><path fill="#6A6968" d="M46.8 217.8c9.1-4.6 18.2-8.8 21.1-8.9 1.2 0 2.7.6 4.5 1.7 7.1 4.4 17.9 16.3 23.6 23.5 1.1 1.4 2 2.6 2.7 3.5 0 .1.1.1.1.2-8.4-29-33-38.4-33-38.4-2.8-10.5 1.1-18.4 1.1-18.4-2.9.5-5.5 1.2-6.6 2-2 1.5-20.9 11-36.8 18.8 4.9 6.9 10.5 13.4 16.7 19.2 2.1-1 4.3-2.1 6.6-3.2z"/><path fill="#595958" d="M65.9 199.4s24.6 9.3 33 38.4v-.1c-.1-1.3-1-14.5-7-24.8-1.4-2.3-3-4.4-4.9-6.3l-.6-.6-.2-.2c-.4-.2-11.7-5.3-13.8-9.3-1.7-3.3-2.9-4.6-2.6-8.4v-.4c.1-.8.2-1.8.4-2.9l9.3-2.4.8-1.4.6-1.2.1-.2s-5.8.3-10.2.8c-1.6.2-3 .4-3.9.6 0 .1-3.8 8-1 18.4z"/></svg>