<svg xmlns="http://www.w3.org/2000/svg" width="256" height="256"><circle fill="#B1B3B5" cx="128" cy="128" r="128"/><path fill="#8F8A76" d="M43.6 217.4s12.6-28.5 26.2-40.8c-13.8 5-33.7 12.3-43.8 16.1-2.1.8-4.4 1.7-6.9 2.7 8.4 13.6 19.3 25.5 32.1 35l8-5.2-15.6-7.8z"/><path fill="#9C7360" d="M128 193.3s0 .1-.1.2h.1v-.2zm-26.3-14.6c12.5 8.8 26.3 14.5 26.3 14.5v-13.6s-16.2.9-27.6-12.3c-5.4-6.3-7.8-9.9-9.1-12.9 0 1.5-.1 3-.2 4.5h.1s-.8 11.9 10.5 19.8z"/><path fill="#73909A" d="M120 217.3l-2.6-9c-1.5 2.3-2.8 4.5-3.6 6.1-3.2 6.7-8.9 14-9.9 23.4 0 0-8.7-17.6-14-30.3.7 4.6 1.4 9.4 2.3 14.2 1.6 8.6 3.8 20.1 6.1 30.8 6.3 1.5 12.7 2.5 19.3 3.1l3.3-37.4c-.7-.5-.9-.9-.9-.9z"/><path fill="#7F7B68" d="M89.9 207.5c-1.4-3.4-2.5-6.4-3.2-8.7-3.2-10.9-6.2-25.9 0-31 0 0 .9-7.5 4.3-8.8l.2-2.5c-6.7 1.9-6.4 7.5-20.4 19.3-.3.3-.6.5-.9.8-13.6 12.3-26.2 40.8-26.2 40.8l15.6 7.8-8 5.2c13.8 10.4 29.8 18 47.1 22.1-2.2-10.8-4.5-22.2-6.1-30.8-.9-4.8-1.7-9.7-2.4-14.2z"/><path fill="#404948" d="M120.9 218.1l-3.3 37.4c3.4.3 6.9.4 10.4.4v-36.5c-4 .1-6.1-.7-7.1-1.3z"/><path fill="#535D5B" d="M128 207.2v-13.7h-.1c-.9 1.2-6.4 8.6-10.5 14.9l2.6 9s.2.4.9.8c1 .6 3.1 1.4 7.1 1.4v-12.4z"/><path fill="#9C7360" d="M81.8 98.2c-.8-5.9-1.6-12.5-2.4-19.5-1.3-.8-3.3-1.7-5.4-1.3-3.6.6-3.2 3.4-3.4 6.4s-.6 8.7 1.3 15.1 2.1 12.3 5.3 14c1.9 1 4.2 2.2 5.8 3-.6-2.8-1.7-10.6-1.2-17.7z"/><path fill="#C08C76" d="M107.6 133.1c-4.7 4.9-3.6 4.3-3.6 4.3s5.3 13.6 13.4 14.7c5.3 0 6-4.3 5.1-6.4-.9-2.1-3-5.5-3-5.5s3.6-1.5 8.5-1.5V130c0-.1-15.7-1.8-20.4 3.1zM81.8 97.3s3.2 14.1 5.5 19.8c2.3 5.7 5.7 18.3 11.3 13.2 5.5-5.1 14-12.8 20.4-11.3 6.4 1.5 3 1.7 8.9 1.7V63.1c-7.1 0-8.6-.3-12.5-1.4-3.9-1.1-12.5.8-12.5.8s2.2-1 5.7-2.4 7.8-.3 10.1 1c2.2 1.3 9.2 0 9.2 0v-7.3c-5.6 0-4.3.1-9.9-.8s-20.4 3.2-20.4 3.2c9.9-5.9 19.3-4.8 23.3-4.5 4 .3 7 0 7 0v-6.4c-9.3-1.8-23.3-1.1-23.3-1.1 6.5-2.6 23.3-.8 23.3-.8v-35s-20.8-.8-33.5 13.3c-12.8 14-18.5 24.6-16 48.9.3 2.8.6 5.5.9 8.3.8 7 1.6 13.6 2.4 19.5.1-.5.1-.8.1-1.1zM95.5 74c4.6-3.5 10.1.7 15.4 3.8 5.4 3.1 10.1 3.5 10.1 3.5-.5 2-1.4 2-1.4 2-5.9.7-15.8-4.2-19.3-5.4-3.5-1.2-9.4 1.9-9.4 1.9s0-2.3 4.6-5.8z"/><path fill="#828279" d="M128 179.7v-41.1c-4.9 0-8.5 1.5-8.5 1.5s2.1 3.4 3 5.5c.9 2.1.2 6.4-5.1 6.4-8.1-1.1-13.4-14.7-13.4-14.7s-1.1.6 3.6-4.3c4.7-4.9 20.4-3.2 20.4-3.2v-9.1c-6 0-2.5-.2-8.9-1.7s-14.9 6.2-20.4 11.3c-5.5 5.1-8.9-7.4-11.3-13.2-2.3-5.7-5.5-19.8-5.5-19.8 0 .3-.1.6-.1 1-.5 7.1.7 14.9 1.1 17.7.1.7.2 1.1.2 1.1-.3 13.3 1.7 18.7 4.9 27 1.7 4.4 1.8 6.9 3.3 10.3 1.3 3 3.6 6.7 9.1 12.9 11.4 13.2 27.6 12.4 27.6 12.4z"/><path fill="#9C7360" d="M104.7 44.1s14-.6 23.3 1.1v-1.9s-16.7-1.7-23.3.8zm16.3 7.5c-4-.3-13.4-1.4-23.3 4.5 0 0 14.8-4.2 20.4-3.2s4.2.8 9.9.8v-2.1s-3 .4-7 0zm-2.2 9.5c-2.2-1.3-6.5-2.4-10.1-1-3.5 1.4-5.7 2.4-5.7 2.4s8.6-1.9 12.5-.8c3.9 1.1 5.5 1.4 12.5 1.4V61c0 .1-7 1.3-9.2.1z"/><path fill="#828279" d="M100.3 77.9c3.5 1.2 13.4 6.1 19.3 5.4 0 0 1 0 1.4-2 0 0-4.7-.4-10.1-3.5-5.4-3.1-10.9-7.3-15.4-3.8-4.6 3.5-4.6 5.9-4.6 5.9s5.9-3.2 9.4-2z"/><path fill="#86A9B4" d="M86.7 167.7c-6.2 5.1-3.2 20.1 0 31 .7 2.3 1.8 5.3 3.2 8.7 5.2 12.8 14 30.3 14 30.3 1.1-9.4 6.7-16.6 9.9-23.4.8-1.7 2.1-3.8 3.6-6.1 4.1-6.3 9.6-13.7 10.5-14.9.1-.1.1-.2.1-.2s-13.8-5.7-26.3-14.5c-11.3-8-10.6-19.8-10.6-19.8H91s-.1 0-.1.1c-3.3 1.4-4.2 8.8-4.2 8.8z"/><path fill="#9B9588" d="M186.1 176.6c13.6 12.3 26.2 40.8 26.2 40.8l-15.6 7.8 8 5.2c12.7-9.6 23.6-21.5 32.1-35-2.5-1-4.8-1.9-6.9-2.7-10.1-3.8-30-11.1-43.8-16.1z"/><path fill="#C08C76" d="M128 179.7v13.6s13.8-5.7 26.3-14.5c11.3-8 10.6-19.8 10.6-19.8h.1c-.1-1.5-.2-3-.2-4.5-1.3 3-3.6 6.7-9.1 12.9-11.5 13.1-27.7 12.3-27.7 12.3z"/><path fill="#C08C76" d="M128.1 193.4c-.1-.1-.1-.2-.1-.2v.2h.1z"/><path fill="#86A9B4" d="M166.1 207.5c-5.2 12.8-14 30.3-14 30.3-1.1-9.4-6.7-16.6-9.9-23.4-.8-1.7-2.1-3.8-3.6-6.1l-2.6 9s-.2.4-.9.8l3.3 37.4c6.6-.5 13-1.6 19.3-3.1 2.2-10.8 4.5-22.2 6.1-30.8.8-4.7 1.6-9.6 2.3-14.1z"/><path fill="#8F8A76" d="M212.4 217.4s-12.6-28.5-26.2-40.8c-.3-.3-.6-.5-.9-.8-14-11.8-13.7-17.5-20.4-19.3l.2 2.5c3.3 1.3 4.3 8.8 4.3 8.8 6.2 5.1 3.2 20.1 0 31-.7 2.3-1.8 5.3-3.2 8.7-.7 4.6-1.4 9.4-2.3 14.2-1.6 8.6-3.8 20.1-6.1 30.8 17.3-4.1 33.3-11.8 47.1-22.1l-8-5.2 15.5-7.8z"/><path fill="#535D5B" d="M128 219.5V256c3.5 0 7-.1 10.4-.4l-3.3-37.4c-1 .5-3.1 1.3-7.1 1.3z"/><path fill="#606A68" d="M128.1 193.4h-.1v26c4 0 6.1-.7 7.1-1.4.7-.4.9-.8.9-.8l2.6-9c-4.1-6.2-9.6-13.6-10.5-14.8z"/><path fill="#C08C76" d="M173.1 116c1.6-.8 3.9-2 5.8-3 3.2-1.7 3.4-7.7 5.3-14 1.9-6.4 1.5-12.1 1.3-15.1s.2-5.7-3.4-6.4c-2.2-.4-4.2.5-5.4 1.3-.8 7-1.6 13.6-2.4 19.5.4 7-.7 14.8-1.2 17.7z"/><path fill="#D7A990" d="M151.3 44.1s-14-.6-23.3 1.1v6.4s3 .3 7 0 13.4-1.4 23.3 4.5c0 0-14.8-4.2-20.4-3.2s-4.2.8-9.9.8V61s7 1.3 9.2 0c2.2-1.3 6.5-2.4 10.1-1 3.5 1.4 5.7 2.4 5.7 2.4s-8.6-1.9-12.5-.8C136.6 62.7 135 63 128 63v57.6c6 0 2.5-.2 8.9-1.7s14.9 6.2 20.4 11.3c5.5 5.1 8.9-7.4 11.3-13.2 2.3-5.7 5.5-19.8 5.5-19.8 0 .3.1.6.1 1 .8-5.9 1.6-12.5 2.4-19.5.3-2.7.6-5.5.9-8.3 2.6-24.3-3.2-34.8-16-48.9C148.8 7.6 128 8.4 128 8.4v35c0-.1 16.7-1.8 23.3.7zm9.2 29.9c4.6 3.5 4.6 5.9 4.6 5.9s-5.9-3.1-9.4-1.9c-3.5 1.2-13.4 6.1-19.3 5.4 0 0-1 0-1.4-2 0 0 4.7-.4 10.1-3.5 5.4-3.2 10.9-7.4 15.4-3.9zm-27 71.6c-.9 2.1-.2 6.4 5.1 6.4 8.1-1.1 13.4-14.7 13.4-14.7s1.1.6-3.6-4.3c-4.7-4.9-20.4-3.2-20.4-3.2v8.7c4.9 0 8.5 1.5 8.5 1.5s-2.1 3.5-3 5.6z"/><path fill="#9A998D" d="M174.2 98.2c0-.3 0-.6-.1-1 0 0-3.2 14.1-5.5 19.8-2.3 5.7-5.7 18.3-11.3 13.2-5.5-5.1-14-12.8-20.4-11.3-6.4 1.5-3 1.7-8.9 1.7v9.1s15.7-1.7 20.4 3.2c4.7 4.9 3.6 4.3 3.6 4.3s-5.3 13.6-13.4 14.7c-5.3 0-6-4.3-5.1-6.4.9-2.1 3-5.5 3-5.5s-3.6-1.5-8.5-1.5v41.2s16.2.9 27.6-12.3c5.4-6.3 7.8-9.9 9.1-12.9 1.4-3.3 1.6-5.9 3.3-10.3 3.2-8.3 5.2-13.8 4.9-27 0 0 .1-.4.2-1.1.5-3 1.6-10.8 1.1-17.9z"/><path fill="#C08C76" d="M151.3 44.1c-6.5-2.6-23.3-.8-23.3-.8v1.9c9.3-1.7 23.3-1.1 23.3-1.1zm-13.4 8.8c5.6-1 20.4 3.2 20.4 3.2-9.9-5.9-19.3-4.8-23.3-4.5-4 .3-7 0-7 0v2.1c5.6 0 4.3.2 9.9-.8zm15.1 9.6s-2.2-1-5.7-2.4-7.8-.3-10.1 1c-2.2 1.3-9.2 0-9.2 0v2.1c7.1 0 8.6-.3 12.5-1.4 3.9-1.2 12.5.7 12.5.7z"/><path fill="#9A998D" d="M145.1 77.8c-5.4 3.1-10.1 3.5-10.1 3.5.5 2 1.4 2 1.4 2 5.9.7 15.8-4.2 19.3-5.4 3.5-1.2 9.4 1.9 9.4 1.9s0-2.4-4.6-5.9c-4.5-3.4-10 .8-15.4 3.9z"/><path fill="#9CBCC5" d="M154.3 178.7c-12.5 8.8-26.3 14.5-26.3 14.5s0 .1.1.2c.9 1.2 6.4 8.6 10.5 14.9 1.5 2.3 2.8 4.5 3.6 6.1 3.2 6.7 8.9 14 9.9 23.4 0 0 8.7-17.6 14-30.3 1.4-3.4 2.5-6.4 3.2-8.7 3.2-10.9 6.2-25.9 0-31 0 0-.9-7.5-4.3-8.8 0 0-.1 0-.1-.1h-.1s.8 11.9-10.5 19.8z"/></svg>