<svg xmlns="http://www.w3.org/2000/svg" width="256" height="256"><circle fill="#B1B3B5" cx="128" cy="128" r="128"/><path fill="#617782" d="M152.6 22.6c3 2.7 6.7 5.8 10.4 8.7 2.7.3 5.1.9 6.4 1.8 0 0-15.4-24.8-41.4-24.8v7.6s13.6-3.3 24.6 6.7z"/><path fill="#4A5D67" d="M103.4 22.6c11-10.1 24.6-6.7 24.6-6.7V8.4c-26 0-41.4 24.8-41.4 24.8 1.4-.9 3.7-1.5 6.4-1.8 3.8-3 7.4-6 10.4-8.8z"/><path fill="#A2ABAC" d="M222 153.9c-1.1-1.2-2.9-2.4-4.9-3.4-3.7 1.6-8.1 3.2-11.9 4.8 5.6 7.4 11.8 16.2 13.1 19.7 2.4 6.7 5.7 21.8 9.2 21.6 3.5-.2 1.4-21.3 1.8-23.2.5-1.9 6.7 2.6 6.7 2.6l7.6 6.9c1.6-3.3 3-6.6 4.3-10.1-9.8-6.2-21.9-14.7-25.9-18.9z"/><path fill="#403934" d="M155.6 83.5c-1.1-3.4 3.5-25.9 0-25.9s-1.1 22.5-1.1 22.5l-8.6 1s1-23.9-1-24.4c-1.9-.5-2.4 23.5-2.4 23.5h-7.2s-1.4-23.5-2.9-23.5-1.4 30.1-1.4 30.1h-3v47.7h2.7s-.3 4-.5 8c.7 1.9.3 5.5.2 8.1.1.2.1.3.2.4 1.2 1 1.7-16.5 1.7-16.5h2.9s-.4 3.1-.6 6.7c.1 0 .3-.1.4-.1 1.4-.1 1.9.9 2 2.3.4-4.4.5-9 .5-9h4.6s.1 3.3.4 7.1c1.1.6 3.2 2.3 3.8 2.8 5.9-2.9 10.6-7.4 12.5-8.1.6-.2 1.1-.2 1.5 0l.3-.6c.7-1.7 2.4-6.7.7-16.9-.3-1.8-.6-3.4-.9-4.6-1-4.8 2.6-21.7 2.6-22.7 0-.1 0-.2.1-.4-.4-3.2-.8-6.5-1.2-9.6-.6 1.8-1.2 3.6-1.8 5.3.2.1-3.4.1-4.5-3.2z"/><path fill="#49413C" d="M205 144.3l-8.8-.9c.6.8 4.6 5.8 9.1 11.8 3.8-1.6 8.2-3.2 11.9-4.8 4-1.7 7.2-3.3 7.9-4.6 2.2-3.8 5.1-7.3 4.5-9.6-.1-.5-.6-1.6-1.3-3 0 .1 0 .3-.1.4-.5 2.8-12.9 10.2-23.2 10.7z"/><path fill="#49413C" d="M213.1 45.8c-7.7 3.7-24 17-28.1 14.6-2.6-1.5 2.9-6.4-.7-6.6-1 .5-1.8.9-2.5 1.5-1.6 1.3-5.2 3.6-8.8 4.6-3.5 3.6-6.2 7.5-6.2 7.5-1.4 4-3.1 9.2-4.8 14.3.4 3.1.8 6.4 1.2 9.6.6-2.5 4.7-14.2 8.2-17.8 3.8-3.8 25.1-7.3 25.1-7.3-.8 8.6-13.3 10.2-16.8 13.7-2.9 2.9-8.2 16.4-10.2 26.8-.7 5.5-1.1 18.2.5 21.9 1.9 4.5-4.2 17.5-4.2 17.5 2.8 3.6 6.5 7.6 7.8 9.1 4.4-6.7 11.3-15.7 17.1-16.9 0 0-5.7 60.3-3.4 64.7 2.4 4.3 2.9-.7 3.4-3.8.5-3.1 0-12.9 0-12.9s12.2 24.4 16.3 28.7c3.5 3.7 8.3 4.9 9.7 5.2l.2-.2c-2.1-3-23.5-34.7-23.7-44.8-.3-10.1 2.6-30.3 2.8-31.8l-1-.1-1.1-4.6s25.6-.2 24.4-5.7c-1.2-5.5-14.6 4.1-25.1 2.9l-1.3-6s25.7.8 24.3-3.8c-1.4-4.6-15.8 1.9-25.1 0l-1.7-5.8s23.9 2.9 26.1-3.4c1.7-4.8-11.8-14.5-19-14.5-5.7 0-6.6-3.5-7.2-6.7l3.4-3.2c5.4-5.1 15.6-15 19.2-20.1 2.4-3.2 12.5-9.4 22.8-15.1-2.9-4.4-6.2-8.7-9.6-12.7-5.2-.1-9.7.1-12 1.2zm-20.6 175.8c-2.2-.3-4.6-.6-7.2-.9 3.2 1.1 5.2 1.8 5.2 1.8l2-.9zm-49.9-10.8c1.2 0 2.3.1 3.5.2 6.1-8.9 20.4-30 21-35.1.4-3.6 1-7.3 1.5-9.9-.6.6-1.1 1.1-1.7 1.6l-24.3 43.2zm70.1 13.1c.7-.6 1.3-1.2 2-1.8-2 .1-4 .3-5.8.3 1.2.5 2.5 1 3.8 1.5z"/><path fill="#2D2823" d="M146.9 176.8c-.1-.1-.2-.3-.3-.7-.1.1-.1.2-.1.2-.5.4-1.1.7-1.7 1-.1.8-.2 1.5-.3 1.8-.7 2.4-9.9 2.9-16.5 2.9v28.7s6.6-.1 14.6.2l24.3-43.2c-8 7-19.2 9.6-20 9.1z"/><path fill="#839EAE" d="M183.2 46.6s-8.1-.5-16.8-3.4c-8.6-2.9-7.8-5.7-10.9-2.9-3 2.9 11.8 9.1 14.7 12 .3.3.6.7.8 1 0 0 20-7.6 33.7-13.2-3.8 1-10.6 2.6-15.6 2.5-7.3-.1-19.8-9.5-19.8-9.5-1.4-.9-3.7-1.5-6.4-1.8 10 8 20.3 15.3 20.3 15.3zm1.1 7.2c-.7 0-1.7.1-3.1.4-2.7.7-5.7 3.1-8.2 5.6 3.6-1 7.2-3.3 8.8-4.6.7-.5 1.6-1 2.5-1.4z"/><path fill="#C7D1D1" d="M155.6 40.4c3-2.9 2.2 0 10.9 2.9 8.6 2.9 16.8 3.4 16.8 3.4s-10.4-7.3-20.3-15.2c-3.7-3-7.4-6-10.4-8.7-11-10.1-24.6-6.7-24.6-6.7v70.8h3s0-30.2 1.4-30.2 2.9 23.5 2.9 23.5h7.2s.5-23.9 2.4-23.5c1.9.5 1 24.4 1 24.4l8.6-1s-2.4-22.5 1.1-22.5-1.1 22.5 0 25.9c1.1 3.4 4.6 3.4 4.6 3.4.6-1.7 1.2-3.5 1.8-5.3 1.7-5 3.4-10.3 4.8-14.3l4.3-14c-.2-.3-.5-.7-.8-1-2.9-2.8-17.7-9.1-14.7-11.9z"/><path fill="#D5E0DF" d="M204.8 40.1c-13.6 5.6-33.7 13.2-33.7 13.2l-4.3 14s2.7-3.9 6.2-7.5c2.5-2.6 5.5-5 8.2-5.6 1.4-.3 2.4-.5 3.1-.4 3.6.2-1.9 5.1.7 6.6 4.1 2.4 20.4-10.9 28.1-14.6 2.3-1.1 6.8-1.3 12-1.1-2.8-3.3-5.8-6.4-9-9.4-5 2-9 3.9-11.3 4.8z"/><path fill="#5A504A" d="M144.5 152c1.9 3.1 1 19.6.3 25.3.6-.3 1.2-.6 1.7-1 0 0 0-.1.1-.2-.6-3.2.4-16.2.3-22.2-.1-6.7-3.5-8.1-3.5-8.1 1-.4 2-.8 2.9-1.3-.6-.5-2.7-2.2-3.8-2.8.3 3.9.9 8.4 2 10.3zm15.9-15.6zM135.2 151c.9.1 1.5-3.6 1.8-7.6-.1-1.5-.7-2.4-2-2.3-.2 0-.3 0-.4.1-.3 4.5-.5 9.7.6 9.8zm-4.8-.4c0-2.6.5-6.1-.2-8.1-.1 3.4-.1 6.9.2 8.1zm30-14.2l.3-.6-.3.6zm1.1-17.5c-.2-1.4-.5-3-.9-4.6.2 1.2.6 2.8.9 4.6zm-.9-4.6s.4-9.8 9.5-10.1c-.2.4-.3 1.2-.5 2.4 1.9-10.3 7.3-23.9 10.2-26.8 3.5-3.5 16-5.1 16.8-13.7 0 0-21.3 3.5-25.1 7.3-3.6 3.6-7.6 15.3-8.2 17.8 0 .2-.1.3-.1.4-.1 1-3.6 17.9-2.6 22.7z"/><path fill="#A3B2B1" d="M128 153.9v28c6.7 0 15.8-.5 16.5-2.9.1-.3.2-.9.3-1.8.7-5.7 1.6-22.2-.3-25.3-1.1-1.8-1.7-6.3-2-10.3-.3-3.8-.4-7.1-.4-7.1h-4.6s-.1 4.6-.5 9c-.4 3.9-.9 7.7-1.8 7.6-1.1-.1-.9-5.3-.6-9.9.2-3.5.6-6.7.6-6.7h-2.9s-.5 17.5-1.7 16.5c-.1-.1-.2-.2-.2-.4-.4-1.2-.4-4.7-.2-8.1.1-4.1.5-8 .5-8H128v19.4z"/><path fill="#7D4A4E" d="M160.6 114.3c.4 1.6.7 3.2.9 4.6 1.6 10.2 0 15.2-.7 16.9l-.3.6c1.2.5 1.7 2.2 1.7 3.8 0 .8 1.7 3.2 3.8 5.8 0 0 6.1-13 4.2-17.5-1.6-3.7-1.2-16.4-.5-21.9.2-1.2.3-2 .5-2.4-9.2.3-9.6 10.1-9.6 10.1z"/><path fill="#92A09F" d="M162.1 140.2c0-1.6-.5-3.3-1.7-3.8-.4-.2-.9-.2-1.5 0-2 .6-6.7 5.1-12.5 8.1-.9.5-1.9.9-2.9 1.3 0 0 3.4 1.4 3.5 8.1.1 6-.8 19-.3 22.2.1.4.2.6.3.7.7.6 12-2 20-9.1.6-.5 1.2-1.1 1.7-1.6.4-2.1.7-3.5.7-3.5s1.8-3.2 4.5-7.3c-1.4-1.5-5-5.6-7.8-9.1-2.3-2.8-4-5.2-4-6z"/><path fill="#D5E0DF" d="M196.2 143.5l8.8.9c10.3-.5 22.7-7.9 23.1-10.5 0-.1 0-.3.1-.4.9-5.4 1.4-10.3-3.1-18.5-6.4-12-14.1-12-23.1-15.6-7.7-3.1-9.3-6.9-9.3-6.9l-3.4 3.2c.6 3.3 1.5 6.7 7.2 6.7 7.3 0 20.7 9.7 19 14.5-2.2 6.3-26.1 3.4-26.1 3.4l1.7 5.8c9.3 1.9 23.7-4.6 25.1 0 1.4 4.6-24.3 3.8-24.3 3.8l1.3 6c10.5 1.2 23.9-8.4 25.1-2.9 1.2 5.5-24.4 5.7-24.4 5.7l1.1 4.6 1.2.2-.1-.1s.1 0 .1.1z"/><path fill="#2D2823" d="M229.4 173.3c-.5 1.9 1.7 23-1.8 23.2-3.5.2-6.8-14.8-9.2-21.6-1.3-3.6-7.5-12.3-13.1-19.7-4.5-6-8.5-11-9.1-11.8l-.1-.1v.1c-.2 1.5-3.1 21.6-2.8 31.8.2 10 21.7 41.7 23.7 44.8 11-10.6 20-23.2 26.7-37.1l-7.6-6.9c0-.1-6.2-4.6-6.7-2.7z"/><path fill="#2D2823" d="M207.1 214.9c-4.1-4.3-16.3-28.7-16.3-28.7s.5 9.8 0 12.9c-.5 3.1-1 8.1-3.4 3.8s3.4-64.7 3.4-64.7c-5.8 1.2-12.7 10.2-17.1 16.9-2.7 4.1-4.5 7.3-4.5 7.3s-.3 1.4-.7 3.5c-.5 2.6-1.1 6.3-1.5 9.9-.6 5.1-14.8 26.2-21 35.1 7.2.4 14.8 1.3 19.5 2.9 6.7 2.4 14.6 5.1 19.7 6.8 2.5.3 4.9.6 7.2.9l6.4-3.1s4.1 1.7 10 3.9c1.8-.1 3.8-.2 5.8-.3.7-.7 1.4-1.3 2.1-2-1.2-.1-6.1-1.4-9.6-5.1z"/><path fill="#564C47" d="M164.9 235.8c-8.1-6.7-36.9-5.6-36.9-5.6v6.1s18.2-.5 27.8 4.8c0 0-10.7 1.6-11.4 13.9 10.8-1.4 21.3-4.1 31.1-8.1-2-2.7-5.6-7-10.6-11.1z"/><path fill="#D5E0DF" d="M155.8 241.1c-9.6-5.3-27.8-4.8-27.8-4.8V256c5.6 0 11-.4 16.4-1 .7-12.3 11.4-13.9 11.4-13.9z"/><path fill="#A3B2B1" d="M165.7 222.6H128v7.6s28.8-1.1 36.9 5.6c5 4.1 8.6 8.4 10.6 11.1 5.4-2.1 10.5-4.6 15.5-7.5-4.2-1.2-6.8-1.9-6.8-1.9l-18.5-14.9z"/><path fill="#D5E0DF" d="M198.9 218.5l-6.4 3.1-1.9.9s-2.1-.7-5.2-1.8c-5.1-1.8-13-4.5-19.7-6.8-4.7-1.7-12.3-2.5-19.5-2.9-1.2-.1-2.4-.1-3.5-.2-8-.3-14.6-.2-14.6-.2v12h37.7l18.5 15s2.6.7 6.8 1.9c7.8-4.4 15.1-9.6 21.7-15.5-1.3-.5-2.6-1-3.8-1.5-6-2.3-10.1-4-10.1-4z"/><path fill="#7A8585" d="M26.6 173.3c.5 1.9-1.7 23 1.8 23.2 3.5.2 6.8-14.8 9.2-21.6 1.3-3.6 7.5-12.3 13.1-19.7-3.8-1.6-8.2-3.2-11.9-4.8-2 1.1-3.7 2.2-4.9 3.4C30 158 17.8 166.5 8 172.7c1.3 3.4 2.7 6.8 4.3 10.1l7.6-6.9s6.2-4.5 6.7-2.6z"/><path fill="#2B2521" d="M95.4 114.3c-.2 1.2-.6 2.8-.9 4.6-1.6 10.2 0 15.2.7 16.9l.3.6c.4-.2.9-.2 1.5 0 2 .6 6.7 5.1 12.5 8.1.6-.5 2.7-2.2 3.8-2.8.3-3.8.4-7.1.4-7.1h4.6s.1 4.6.5 9c.1-1.5.7-2.4 2-2.3.2 0 .3 0 .4.1-.2-3.5-.6-6.7-.6-6.7h2.9s.5 17.5 1.7 16.5c.1-.1.2-.2.2-.4 0-2.6-.5-6.1.2-8.1-.1-4.1-.5-8-.5-8h2.7V86.8h-3s0-30.2-1.4-30.2-2.9 23.5-2.9 23.5h-7.2s-.5-23.9-2.4-23.5c-1.9.5-1 24.4-1 24.4l-8.6-1s2.4-22.5-1.1-22.5 1.1 22.5 0 25.9c-1.1 3.4-4.6 3.4-4.6 3.4-.6-1.7-1.2-3.5-1.8-5.3-.4 3.1-.8 6.4-1.2 9.6 0 .2.1.3.1.4.2 1.1 3.7 18 2.7 22.8z"/><path fill="#322C28" d="M87.4 166c.5 2.6 1.1 6.3 1.5 9.9.6 5.1 14.8 26.2 21 35.1 1.2-.1 2.4-.1 3.5-.2l-24.3-43.2c-.6-.5-1.2-1-1.7-1.6zm-38.5 48.9c4.1-4.3 16.3-28.7 16.3-28.7s-.5 9.8 0 12.9 1 8.1 3.4 3.8-3.4-64.7-3.4-64.7c5.8 1.2 12.7 10.2 17.1 16.9 1.4-1.5 5-5.6 7.8-9.1 0 0-6.1-13-4.2-17.5 1.6-3.7 1.2-16.4.5-21.9-1.9-10.3-7.3-23.9-10.2-26.8-3.5-3.5-16-5.1-16.8-13.7 0 0 21.3 3.5 25.1 7.3 3.6 3.6 7.6 15.3 8.2 17.8.4-3.2.8-6.5 1.2-9.6-1.7-5-3.4-10.3-4.8-14.3 0 0-2.7-3.9-6.2-7.5-3.6-1-7.2-3.3-8.8-4.6-.7-.5-1.5-1-2.5-1.5-3.6.2 1.9 5.1-.7 6.6-4.1 2.4-20.4-10.9-28.1-14.6-2.3-1.1-6.8-1.3-12-1.1-3.5 4-6.7 8.3-9.6 12.7C31.5 63.1 41.7 69.2 44 72.5c3.7 5.1 13.9 15 19.2 20.1l3.4 3.2c-.6 3.3-1.5 6.7-7.2 6.7-7.3 0-20.7 9.7-19 14.5 2.2 6.3 26.1 3.4 26.1 3.4l-1.7 5.8c-9.3 1.9-23.7-4.6-25.1 0C38.3 130.8 64 130 64 130l-1.3 6c-10.5 1.2-23.9-8.4-25.1-2.9-1.2 5.5 24.4 5.7 24.4 5.7l-1.1 4.6-1 .1c.2 1.5 3.1 21.6 2.8 31.8-.2 9.9-21.7 41.6-23.7 44.7l.2.2c1.3-.3 6.2-1.6 9.7-5.3zm16.5 7.7s2.1-.7 5.2-1.8c-2.5.3-4.9.6-7.2.9l2 .9z"/><path fill="#322C28" d="M51 144.3c-10.3-.5-22.7-7.9-23.1-10.5 0-.1 0-.3-.1-.4-.7 1.4-1.2 2.4-1.3 3-.6 2.2 2.2 5.7 4.5 9.6.8 1.3 3.9 2.9 7.9 4.6 3.7 1.6 8.1 3.2 11.9 4.8 4.5-6 8.5-11 9.1-11.8l-8.9.7zm-9.7 77.8c.7.6 1.3 1.2 2 1.8 1.3-.5 2.6-1 3.8-1.5-1.8 0-3.8-.1-5.8-.3z"/><path fill="#130C06" d="M111.5 179c-.1-.3-.2-.9-.3-1.8-.6-.3-1.2-.6-1.7-1 0 0 0-.1-.1-.2-.1.4-.2.6-.3.7-.7.6-12-2-20-9.1l24.3 43.2c8-.3 14.6-.2 14.6-.2v-28.7c-6.7 0-15.8-.5-16.5-2.9z"/><path fill="#617782" d="M85.7 52.3c2.9-2.9 17.7-9.1 14.7-12-3-2.9-2.2 0-10.9 2.9-8.6 2.9-16.8 3.4-16.8 3.4S83.1 39.3 93 31.4c-2.7.3-5.1.9-6.4 1.8 0 0-12.5 9.3-19.8 9.5-5 .1-11.7-1.5-15.6-2.5 13.6 5.6 33.7 13.2 33.7 13.2.2-.4.5-.7.8-1.1zm-10.9 1.9c-1.4-.3-2.4-.5-3.1-.4 1 .5 1.8.9 2.5 1.5 1.6 1.3 5.2 3.6 8.8 4.6-2.5-2.7-5.5-5.1-8.2-5.7z"/><path fill="#A3B2B1" d="M100.4 83.5c1.1-3.4-3.5-25.9 0-25.9s1.1 22.5 1.1 22.5l8.6 1s-1-23.9 1-24.4c1.9-.5 2.4 23.5 2.4 23.5h7.2s1.4-23.5 2.9-23.5c1.4 0 1.4 30.2 1.4 30.2h3v-71s-13.6-3.4-24.6 6.7c-3 2.7-6.7 5.8-10.4 8.7-9.9 7.9-20.3 15.2-20.3 15.2s8.1-.5 16.8-3.4c8.6-2.9 7.8-5.7 10.9-2.9 3 2.9-11.8 9.1-14.7 12-.3.3-.6.7-.8 1l4.3 14c1.4 4 3.1 9.2 4.8 14.3.6 1.8 1.2 3.6 1.8 5.3-.1 0 3.5 0 4.6-3.3z"/><path fill="#C7D1D1" d="M42.9 45.8c7.7 3.7 24 17 28.1 14.6 2.6-1.5-2.9-6.4.7-6.6.7 0 1.7.1 3.1.4 2.7.7 5.7 3.1 8.2 5.6 3.5 3.6 6.2 7.5 6.2 7.5l-4.3-14s-20-7.6-33.7-13.2c-2.3-.9-6.4-2.8-11.4-4.9-3.1 3-6.1 6.1-9 9.4 5.3-.1 9.8.1 12.1 1.2z"/><path fill="#49413C" d="M94.5 118.9c.3-1.8.6-3.4.9-4.6-.4 1.6-.6 3.2-.9 4.6zm1.1 17.5l-.3-.6c.1.4.3.6.3.6zm0 0zm30.2 6.1c-.7 1.9-.3 5.5-.2 8.1.3-1.2.3-4.7.2-8.1zm-5 8.5c1.1-.1.9-5.3.6-9.9-.1 0-.3-.1-.4-.1-1.4-.1-1.9.9-2 2.3.3 4.1.9 7.8 1.8 7.7zm-9.3 1c1.1-1.8 1.7-6.3 2-10.3-1.1.6-3.2 2.3-3.8 2.8.9.5 1.9.9 2.9 1.3 0 0-3.4 1.4-3.5 8.1-.1 6 .8 19 .3 22.2.1.1.1.2.1.2.5.4 1.1.7 1.7 1-.8-5.8-1.6-22.2.3-25.3zm-16.1-37.7c1-4.8-2.6-21.7-2.6-22.7 0-.1 0-.2-.1-.4-.6-2.5-4.7-14.2-8.2-17.8-3.8-3.8-25.1-7.3-25.1-7.3.8 8.6 13.3 10.2 16.8 13.7 2.9 2.9 8.2 16.4 10.2 26.8-.2-1.2-.3-2-.5-2.4 9.1.3 9.5 10.1 9.5 10.1z"/><path fill="#92A09F" d="M125.8 142.5c.1 3.4.1 6.9-.2 8.1-.1.2-.1.3-.2.4-1.2 1-1.7-16.5-1.7-16.5h-2.9s.4 3.1.6 6.7c.3 4.5.5 9.8-.6 9.9-.9.1-1.5-3.6-1.8-7.6-.4-4.4-.5-9-.5-9h-4.6s-.1 3.3-.4 7.1c-.3 4-.9 8.5-2 10.3-1.9 3.1-1 19.6-.3 25.3.1.8.2 1.5.3 1.8.7 2.4 9.9 2.9 16.5 2.9v-47.4h-2.7s.4 4 .5 8z"/><path fill="#643A3D" d="M93.9 140.2c0-1.6.5-3.3 1.7-3.8l-.3-.6c-.7-1.7-2.4-6.7-.7-16.9.2-1.4.5-3 .9-4.6 0 0-.4-9.8-9.5-10.1.2.4.3 1.2.5 2.4.7 5.5 1.1 18.2-.5 21.9-2 4.5 4.1 17.5 4.1 17.5 2.1-2.6 3.8-5 3.8-5.8z"/><path fill="#7A8585" d="M109.1 176.8c.1-.1.2-.3.3-.7.6-3.2-.4-16.2-.3-22.2.1-6.7 3.5-8.1 3.5-8.1-1-.4-2-.8-2.9-1.3-5.9-2.9-10.6-7.4-12.5-8.1-.6-.2-1.1-.2-1.5 0-1.2.5-1.7 2.2-1.7 3.8 0 .8-1.7 3.2-3.8 5.8-2.8 3.6-6.5 7.6-7.8 9.1 2.7 4.1 4.5 7.3 4.5 7.3s.3 1.4.7 3.5c.6.6 1.1 1.1 1.7 1.6 7.8 7.2 19 9.8 19.8 9.3z"/><path fill="#A3B2B1" d="M54 99.4c-9 3.6-16.7 3.6-23.2 15.4-4.4 8.2-4 13.2-3.1 18.5 0 .1 0 .3.1.4.5 2.6 12.8 10.1 23.1 10.5l8.8-.9.1-.1v.1l1-.1 1.1-4.6s-25.6-.2-24.4-5.7c1.2-5.5 14.6 4.1 25.1 2.9l1.3-6s-25.7.8-24.3-3.8c1.4-4.6 15.8 1.9 25.1 0l1.7-5.8s-23.9 2.9-26.1-3.4c-1.7-4.8 11.8-14.5 19-14.5 5.7 0 6.6-3.5 7.2-6.7l-3.4-3.2c.1.1-1.5 3.9-9.1 7z"/><path fill="#130C06" d="M62.7 175.2c.3-10.1-2.6-30.3-2.8-31.8v-.1l-.1.1c-.6.8-4.6 5.8-9.1 11.8-5.6 7.4-11.8 16.2-13.1 19.7-2.4 6.7-5.7 21.8-9.2 21.6-3.5-.2-1.4-21.3-1.8-23.2-.5-1.9-6.7 2.6-6.7 2.6l-7.6 6.9c6.6 14 15.7 26.5 26.7 37.2 2-3.1 23.5-34.8 23.7-44.8z"/><path fill="#130C06" d="M57.1 218.5l6.4 3.1c2.2-.3 4.6-.6 7.2-.9 5.1-1.8 13-4.5 19.7-6.8 4.7-1.7 12.3-2.5 19.5-2.9-6.1-8.9-20.4-30-21-35.1-.4-3.6-1-7.3-1.5-9.9-.4-2.1-.7-3.5-.7-3.5s-1.8-3.2-4.5-7.3c-4.4-6.7-11.3-15.7-17.1-16.9 0 0 5.7 60.3 3.4 64.7-2.4 4.3-2.9-.7-3.4-3.8s0-12.9 0-12.9-12.2 24.4-16.3 28.7c-3.5 3.7-8.3 4.9-9.7 5.2.7.7 1.4 1.3 2.1 2 2 .1 4 .3 5.8.3 6-2.3 10.1-4 10.1-4z"/><path fill="#2D2823" d="M100.2 241.1c9.6-5.3 27.8-4.8 27.8-4.8v-6.1s-28.8-1.1-36.9 5.6c-5 4.1-8.6 8.4-10.6 11.1 9.8 3.9 20.2 6.7 31.1 8.1-.7-12.3-11.4-13.9-11.4-13.9z"/><path fill="#A3B2B1" d="M100.2 241.1s10.7 1.6 11.4 13.9c5.4.7 10.8 1 16.4 1v-19.7s-18.2-.5-27.8 4.8z"/><path fill="#7A8585" d="M91.1 235.8c8.1-6.7 36.9-5.6 36.9-5.6v-7.6H90.3l-18.5 15s-2.6.7-6.8 1.9c5 2.8 10.2 5.3 15.5 7.5 2-2.8 5.6-7.1 10.6-11.2z"/><path fill="#A3B2B1" d="M90.3 222.6H128v-12s-6.6-.1-14.6.2c-1.2 0-2.3.1-3.5.2-7.2.4-14.8 1.3-19.5 2.9-6.7 2.4-14.6 5.1-19.7 6.8-3.2 1.1-5.2 1.8-5.2 1.8l-1.9-.9-6.4-3.1s-4.1 1.7-10 3.9c-1.2.5-2.5 1-3.8 1.5 6.7 5.9 13.9 11.1 21.7 15.5 4.2-1.2 6.8-1.9 6.8-1.9l18.4-14.9z"/></svg>