<svg xmlns="http://www.w3.org/2000/svg" width="256" height="256"><circle fill="#B1B3B5" cx="128" cy="128" r="128"/><path fill="#5A0D1B" d="M191.8 58.9c2-.6.4-4.7 1-7.4.7-3.1 4.8-6.9 4.8-6.9 0-3.7-4.8-9.3-4.8-9.3l-.1.1c-.3 2.7-1.9 6.3-2.6 9-.9 4.4.5 11.9 1.7 14.5z"/><path fill="#423A30" d="M188 60.9c2-.4 3.8-1.9 3.8-1.9v-.1c-1.2-2.6-2.6-10.1-1.6-14.4.6-2.7 2.3-6.3 2.6-9 .2-1.5-.1-2.8-1.4-3.4-1.8-.9-3.4.5-4.4 1.9 0 .6.1 1.1.1 1.7.9-1.4 2-2.7 2.7-2.4 1.4.7 1.9 1.9 0 5.3-.7 1.3-1.6 4.2-2.3 7.3.1 4.7.2 9.1.2 12.6.1.2.2.3.3.5v1.9z"/><path fill="#192017" d="M189.8 33.3c-.7-.4-1.8 1-2.7 2.4.2 3.5.3 6.9.4 10.2.7-3.1 1.5-6 2.3-7.3 1.9-3.4 1.4-4.6 0-5.3z"/><path fill="#56111D" d="M185.1 72.6l.9 5.4c1.5 2.1 2.8 4.1 3.9 5.9 5.1 8.6 2.2 23.6 8.3 30l2.4 2.7c17.6 1.5 20.3-11.5 20.5-18.9.1-3.8-.3-6.9-1.7-9.8-5.8-9.5-21.5-11.8-34.3-15.3z"/><path fill="#24394B" d="M203.7 195c-.7 0-1.5-.2-2.4-.4 7 6.3 14.1 13.2 20.5 20.4 4.7-5 8.9-10.4 12.8-16.2-8-2.5-16.4-4.9-24.3-7-1.6 1.9-2.8 3.4-6.6 3.2z"/><path fill="#38261F" d="M190 83.9c-1.1-1.8-2.4-3.8-3.9-5.9l.7 4.3s-3.8 6.4-3.5 9.2c0 .4 0 .9-.1 1.5.4.5.6 1.2.7 2 1.3 8-1.9 14-1.9 17.6s-1.3 12.5-6.4 12.8c-1.3.1-2.6 0-3.8-.1-1.6 6.7-3.5 13-5.8 18-1.4 3.1-4.5 5.6-8.4 7.8-.2 4.2-.4 9.4-.3 14.5.1-.7.1-1.2.1-1.6 0-.3 0-.6-.1-.8 0 0 3.3-1.1 8 2.7 0 0 17.4 12.1 35.9 28.9.9.2 1.7.3 2.4.4 3.8.2 5-1.3 6.6-3.1 1.1-1.2 2.4-2.6 4.9-3.6 6.1-2.6 4.8-12.5 4.8-12.5-2.2 4.2-8.3 1.6-12.8-2.2-4.5-3.8.6-12.1 1.9-13.6 1.3-1.5.7-7.8-4.8-11-5.4-3.2 3.5-14.4 4.6-17.2 1-2.5-3.2-9.3-8.3-15.2l-2.4-2.7c-5.9-6.6-3-21.6-8.1-30.2z"/><path fill="#2B4154" d="M201.3 194.7c-18.5-16.7-35.9-28.9-35.9-28.9 3.2 2.6 7 7.4 10.8 16.4 9.6 22.4 17.6 50.8 17.6 50.8l-9.2 9.9c14.1-6.9 26.7-16.4 37.3-27.8-6.5-7.2-13.6-14.2-20.6-20.4z"/><path fill="#CCAD9F" d="M136.2 238.5c1.7-12.2 3.3-20.8 5.1-27.7 1.2-5 2.4-9.1 3.6-11.9.6-1.5 1.2-2.9 1.8-4.2 1.5-3.7 3.1-7.3 5-11.5.8-2 1.6-3.8 2.3-5.6 2.3-6.1 3.1-9.8 3.4-12-.1-5 .1-10.3.3-14.5-11.5 6.4-29.6 8.9-29.6 8.9v96c1.9 0 3.8 0 5.7-.1.7-5.8 1.5-11.7 2.4-17.4zm39.4-113.1c5.1-.3 6.4-9.3 6.4-12.8s3.2-9.6 1.9-17.6c-.1-.9-.4-1.5-.7-2-.6 3.5-3.7 9.4-5.3 11.6-1.9 2.6-2.8 6.1-2.8 6.1-.1-.2-.2-.4-.4-.6-.7 4.9-1.7 10.1-2.9 15.1 1.2.2 2.5.3 3.8.2z"/><path fill="#DEBCAD" d="M157.7 151.1c3.9-2.1 7-4.7 8.4-7.8 2.2-5 4.2-11.3 5.8-18 1.2-5 2.2-10.2 2.9-15.1-2.5-4 0-8.8.3-10.9.3-2.2-.6-7-2.6-9.6-1.9-2.6.6-6.1 0-11.2-.5-4-4.5-9.9-6.2-12.3-12.9-4.7-32-11.7-38.3-14.2v72.2s1.3.2 2.5-.8c1.8-.8 4.1-.1 5.4 1.3 2.5 2.2 2.7 2.8 5.3 3.7 0 0-2.3 3.9-13.2 3.9V160s18.2-2.6 29.7-8.9zm-18.4-79.5c1.7.2 13.4-2.6 15.3-2.6 1.9 0 10.8 4.8 10.8 4.8s-6.9-1.7-13.2-2.2-10.3 4.8-12.9 4.3c-2.7-.5 0-4.3 0-4.3z"/><path fill="#0F1A13" d="M139.3 75.9c2.6.5 6.7-4.8 12.9-4.3s13.2 2.2 13.2 2.2-8.9-4.8-10.8-4.8c-1.9 0-13.7 2.9-15.3 2.6 0 0-2.7 3.8 0 4.3z"/><path fill="#1A251E" d="M177.8 104.6c1.6-2.2 4.7-8.2 5.3-11.6.1-.6.2-1.1.1-1.5-.3-2.8 3.5-9.2 3.5-9.2L186 78l-.9-5.4c-2.4-.7-4.7-1.4-6.9-2.2-1.4-.5-3-1.1-4.7-1.8 1.8.7 3.4 1.3 4.5 1.8 0 0-5-1.8-12-4.3 1.7 2.4 5.7 8.3 6.2 12.3.6 5.1-1.9 8.6 0 11.2 1.9 2.6 2.9 7.3 2.6 9.6-.3 2.1-2.8 6.9-.3 10.9.1.2.2.4.4.6.1 0 1-3.5 2.9-6.1z"/><path fill="#8A1826" d="M141.2 128.4c-2.6-.9-2.8-1.5-5.3-3.7-1.3-1.4-3.6-2.1-5.4-1.3-1.2 1-2.5.8-2.5.8v8.1c10.9 0 13.2-3.9 13.2-3.9z"/><path fill="#BCA190" d="M157.4 163.1c0 .3.1.6.1.8-.1-.6-.1-.8-.1-.8z"/><path fill="#BCA190" d="M176.2 182.2c-3.9-9-7.7-13.8-10.8-16.4-4.7-3.9-8-2.7-8-2.7 14.9 8.3 29.4 67.7 29.4 67.7-5.3 4.8-12 11.6-19 18.9 5.8-1.9 11.4-4.2 16.7-6.8l9.2-9.9c.1 0-7.9-28.4-17.5-50.8zm-34.9 28.5c1.7-6.4 3.4-11.3 5.4-16.1l-1.8 4.2c-1.2 2.8-2.4 6.9-3.6 11.9zm10.4-27.7c.9-2 1.6-3.9 2.3-5.5-.7 1.7-1.4 3.6-2.3 5.5 0 .1 0 .1 0 0zm-15.5 55.5c-.9 5.7-1.7 11.6-2.5 17.4h.2c.7-5.4 1.4-11.2 2.3-17.4z"/><path fill="#D8D9CB" d="M186.8 230.8s-14.5-59.4-29.4-67.7c0 0 .1.2.1.8 0 .4 0 .9-.1 1.6-.2 2.1-1 5.9-3.4 12-.6 1.7-1.4 3.5-2.3 5.5-1.8 4.2-3.5 7.8-5 11.5-2 4.8-3.8 9.7-5.4 16.1-1.8 6.9-3.5 15.5-5.1 27.7-.9 6.2-1.6 12-2.4 17.4 11.8-.5 23.2-2.7 33.9-6.2 7-7.1 13.7-13.9 19.1-18.7z"/><path fill="#A61E22" d="M183.4 53.3c-7.6-8.9-25.4-25.4-55.4-29.1V28c13.3 0 41.6 11 55.4 25.3z"/><path fill="#A61E22" d="M187.2 57.8c.2.3.4.5.5.8 0-3.6-.1-7.9-.2-12.6-.1-3.3-.2-6.7-.4-10.2 0-.6-.1-1.1-.1-1.7-.4-7.3-1.1-14.7-2-20.6C167.8 4.8 148.5 0 128 0v21c13.5 0 49.4 15.1 59.2 36.8z"/><path fill="#F5BFD7" d="M183.4 53.3c1.4 1.5 2.7 2.9 3.7 4.5C177.4 36.1 141.5 21 128 21v3.2c30.1 3.7 47.9 20.2 55.4 29.1z"/><path fill="#452325" d="M156.4 44c10.9 4.8 18.9 12.1 31.6 19.7V59c-.1-.2-.2-.3-.3-.5-.2-.3-.3-.5-.5-.8-1.1-1.5-2.3-3-3.7-4.5C169.6 39 141.3 28 128 28v7.4c.4 0 14.9 2.6 28.4 8.6z"/><path fill="#E61C3D" d="M173.6 68.7c1.7.7 3.3 1.3 4.7 1.8 2.1.8 4.4 1.5 6.9 2.2 12.8 3.5 28.4 5.8 34.4 15.3 0 0-.9-8.9-20.7-18.4-4-1.9-7.6-3.9-10.8-5.8-12.8-7.6-20.7-14.8-31.6-19.7-13.5-6-28-8.5-28.4-8.6V51v-2.6c-.1 0 31 14.3 45.5 20.3z"/><path fill="#56111D" d="M178.1 70.4c-1.2-.4-2.7-1-4.5-1.8-14.5-5.9-45.6-20.2-45.6-20.2V52c6.3 2.6 25.4 9.5 38.1 14.2 7 2.4 12 4.2 12 4.2z"/><path fill="#182C3C" d="M54.7 194.7c-.9.2-1.7.3-2.4.4-3.8.2-5-1.3-6.6-3.1-7.9 2.1-16.3 4.5-24.3 7 3.8 5.7 8.1 11.1 12.8 16.2 6.4-7.3 13.5-14.3 20.5-20.5z"/><path fill="#27160D" d="M90 143.3c-2.2-5-4.2-11.3-5.8-18-1.2.1-2.5.2-3.8.1-5.1-.3-6.4-9.3-6.4-12.8S70.8 103 72.1 95c.1-.9.4-1.5.7-2-.1-.6-.2-1.1-.1-1.5.2-1.6-.9-4.2-1.9-6.2-.9.3-1.9.5-3 .5-1 0-1.8-.1-2.6-.4-4 8.8-1.8 22.5-7.5 28.5-6.1 6.4-11.8 15-10.7 17.9 1.1 2.9 10.1 14 4.6 17.2-5.4 3.2-6 9.5-4.8 11 1.3 1.5 6.4 9.8 1.9 13.6-4.5 3.8-10.5 6.4-12.8 2.2 0 0-1.3 9.9 4.8 12.5 2.5 1 3.8 2.4 4.9 3.6 1.6 1.8 2.8 3.3 6.6 3.1.7 0 1.5-.2 2.4-.4 18.5-16.7 35.9-28.9 35.9-28.9 4.7-3.9 8-2.7 8-2.7 0 .3-.1.6-.1.8 0 .4 0 .9.1 1.6.1-5-.1-10.3-.3-14.5-3.7-2-6.8-4.6-8.2-7.6z"/><path fill="#24394B" d="M79.8 182.2c3.9-9 7.7-13.8 10.8-16.4 0 0-17.4 12.1-35.9 28.9-7 6.3-14.1 13.2-20.5 20.4 10.6 11.4 23.2 20.9 37.3 27.8l-9.2-9.9c-.1 0 7.9-28.4 17.5-50.8z"/><path fill="#B49A8E" d="M128 160s-18.2-2.6-29.6-8.9c.2 4.2.4 9.4.3 14.5.2 2.1 1 5.9 3.4 12 .7 1.7 1.4 3.6 2.3 5.6 1.8 4.2 3.5 7.8 5 11.5l1.8 4.2c1.2 2.8 2.4 6.9 3.6 11.9 1.8 6.9 3.5 15.5 5.1 27.7.9 5.7 1.7 11.6 2.5 17.4 1.9.1 3.8.1 5.7.1v-96zm-49.8-55.4c-1.6-2.2-4.7-8.2-5.3-11.6-.4.5-.6 1.2-.7 2-1.3 8 1.9 14 1.9 17.6s1.3 12.5 6.4 12.8c1.3.1 2.6 0 3.8-.1-1.2-5-2.2-10.2-2.9-15.1-.1.2-.2.4-.4.6 0-.1-.9-3.6-2.8-6.2z"/><path fill="#CCAD9F" d="M122 50.7c-5.8-.3-13.2 5.3-13.2 5.3-3 9.4-8.7 5.5-13.7 11.6-1.5 1.8-2.7 3.7-3.6 5.7 2.2-1.2 8.4-4.4 10-4.4 1.9 0 13.7 2.9 15.3 2.6 0 0 2.6 3.8 0 4.3s-6.7-4.8-12.9-4.3c-5.1.4-10.6 1.6-12.5 2-2.3 4.9-3 10.2-1.5 14.3 2.2 5.9-3.8 12.9-3.8 12.9s1.6-4.5-.6-8c-.9-1.3-1.1-3-1.2-4.6-.1.5-.3 1-.6 1.4-1.9 2.6-2.9 7.3-2.6 9.6.3 2.1 2.8 6.9.3 10.9.7 4.9 1.7 10.1 2.9 15.1 1.6 6.7 3.5 13 5.8 18 1.4 3.1 4.5 5.6 8.4 7.8 11.5 6.4 29.6 8.9 29.6 8.9v-27.7c-10.9 0-13.2-3.9-13.2-3.9 2.6-.9 2.8-1.5 5.3-3.7 1.3-1.4 3.6-2.1 5.4-1.3 1.2 1 2.5.8 2.5.8V52l-6.1-1.3z"/><path fill="#000C03" d="M103.8 71.6c6.2-.5 10.3 4.8 12.9 4.3 2.6-.5 0-4.3 0-4.3-1.7.2-13.4-2.6-15.3-2.6-1.6 0-7.7 3.2-10 4.4 0 .1-.1.2-.1.3 1.9-.5 7.4-1.7 12.5-2.1z"/><path fill="#0F1A13" d="M81.4 81c-3.5-2.5-5.3 2.6-10.5 4.3 1 2.1 2.1 4.7 1.9 6.2 0 .4 0 .9.1 1.5.6 3.5 3.7 9.4 5.3 11.6 1.9 2.6 2.8 6.1 2.8 6.1.1-.2.2-.4.4-.6 2.5-4 0-8.8-.3-10.9-.3-2.2.6-7 2.6-9.6.3-.4.5-.9.6-1.4-.3-2.7-.4-5.4-2.9-7.2z"/><path fill="#7B101E" d="M125.5 123.4c-1.8-.8-4.1-.1-5.4 1.3-2.5 2.2-2.7 2.8-5.3 3.7 0 0 2.3 3.9 13.2 3.9v-8.1s-1.3.2-2.5-.8z"/><path fill="#998578" d="M98.6 163.9c0-.3 0-.6.1-.8-.1 0-.1.2-.1.8zm-29.4 66.9s14.5-59.4 29.4-67.7c0 0-3.3-1.1-8 2.7-3.2 2.6-7 7.4-10.8 16.4-9.6 22.4-17.6 50.8-17.6 50.8l9.2 9.9c5.4 2.7 11 4.9 16.7 6.8-6.8-7.3-13.5-14.1-18.9-18.9zm35.1-47.7c-.8-2-1.6-3.8-2.3-5.6.6 1.7 1.4 3.5 2.3 5.6zm6.8 15.7c-.6-1.5-1.2-2.9-1.8-4.2 2 4.8 3.8 9.7 5.4 16.1-1.2-5-2.4-9.1-3.6-11.9zm8.7 39.7c.9 6.2 1.6 12 2.4 17.4h.2c-.9-5.8-1.7-11.7-2.6-17.4z"/><path fill="#BABCB1" d="M119.8 238.5c-1.7-12.2-3.4-20.9-5.1-27.8-1.7-6.4-3.4-11.3-5.4-16.1-1.5-3.7-3.1-7.3-5-11.5-.9-2-1.6-3.9-2.3-5.5-2.3-6.1-3.1-9.8-3.4-12-.1-.7-.1-1.2-.1-1.6 0-.6.1-.8.1-.8-14.9 8.3-29.4 67.7-29.4 67.7 5.3 4.8 12 11.6 19 18.9 10.8 3.5 22.1 5.6 33.9 6.2-.7-5.5-1.4-11.3-2.3-17.5z"/><path fill="#8B1518" d="M77.9 26c14.2-10.1 50.1-5 50.1-5V0c-14.3 0-28 2.3-40.8 6.6-3.8 6.6-7.6 13.5-10.4 18.9.3.2.7.4 1.1.5z"/><path fill="#8B1518" d="M128 28v-3.8c-25.6-5-41.2-.7-48.6 2.4 1.9.8 3.9 1.5 5.8 2.3 18.6-3.3 42.8-.9 42.8-.9z"/><path fill="#CA9EB4" d="M128 24.2V21s-35.9-5.1-50.1 5l1.5.6c7.3-3.2 23-7.5 48.6-2.4z"/><path fill="#AF0F2B" d="M128 35.4c-9-1.4-20-1.4-29.6-.8 16.6 7.3 29.5 13.9 29.5 13.9V35.4z"/><path fill="#2F0F11" d="M128 35.4V28s-24.2-2.4-42.8 1c4.5 1.9 9 3.8 13.2 5.6 9.6-.6 20.6-.6 29.6.8z"/><path fill="#44020F" d="M62.3 64.1c2.8-3.1 7.1-5.4 7-8-.2-3.9-.7-18.1 9.3-17.5 27 4.2 43.4 12.1 43.4 12.1l6 1.3v-3.5s-12.9-6.6-29.5-13.9c-4.2-1.9-8.7-3.8-13.2-5.6-1.9-.8-3.9-1.6-5.8-2.3l-1.5-.6c-.4-.2-.8-.3-1.2-.5-5.7-2.2-11.4-4.3-16.9-5.9-8 5.1-15.5 11-22.2 17.7 6.6 9.5 16.1 20.1 24.6 26.7z"/><path fill="#0F1A13" d="M70.8 85.3c5.3-1.7 7.1-6.7 10.5-4.3 2.5 1.8 2.6 4.5 2.9 7.2.1 1.7.4 3.3 1.2 4.6 2.2 3.5.6 8 .6 8s5.9-7 3.8-12.9c-1.5-4.1-.8-9.4 1.5-14.3 0-.1.1-.2.1-.3 1-2 2.2-4 3.6-5.7 5-6.1 10.7-2.2 13.7-11.6 0 0 7.4-5.7 13.2-5.3 0 0-16.5-8-43.4-12.1-10-.7-9.5 13.5-9.3 17.4.2 2.7-4.1 4.9-7 8-1.3 1.4-2.3 3-2.4 4.9-.3 5.2.2 14.4 5.4 16.4.8.3 1.6.4 2.6.4 1.2.1 2.2-.1 3-.4z"/></svg>