<svg xmlns="http://www.w3.org/2000/svg" width="256" height="256"><circle fill="#B1B3B5" cx="128" cy="128" r="128"/><path fill="#746171" d="M83.9 180.5c-9.9 4.1-23.2 9.2-33.8 12-12 3.1-21 4.7-26.7 9.3 14.4 20.3 34.5 36.3 58.1 45.5l-9.4-22.6c1.5-19.5 6.4-33.8 11.8-44.2z"/><path fill="#CC9B86" d="M105.2 153.4c-.2 2.6-.4 5.3-.6 8.2.3 20.7 7 73.4 9.7 93.7 4.5.5 9.1.7 13.7.7v-95.6c-9.8 0-17-3-22.8-7z"/><path fill="#685665" d="M104.6 156.9s-11.3 6-20.7 23.7c-5.5 10.3-10.3 24.7-11.9 44.1l9.4 22.6c10.3 4 21.4 6.8 32.8 8-2.7-20.3-9.4-73-9.7-93.7 0-1.9.1-3.5.1-4.7z"/><path fill="#746171" d="M172.1 180.5c5.5 10.3 10.3 24.7 11.9 44.1l-9.5 22.7c23.6-9.2 43.8-25.2 58.2-45.5-5.8-4.6-14.7-6.2-26.7-9.3-10.8-2.7-24.1-7.9-33.9-12z"/><path fill="#D7A990" d="M150.8 153.4c-5.9 4-13.1 7.1-22.8 7.1V256c4.9 0 9.8-.3 14.6-.8 2.5-20.4 8.6-72.8 8.8-93.5-.2-2.9-.4-5.7-.6-8.3z"/><path fill="#685665" d="M172.1 180.5c-5.2-9.8-11-16.1-15.2-19.6-2.9-1.9-5.5-3.1-5.5-3.1v-.1c0 1.1.1 2.5 0 4-.3 20.8-6.4 73.2-8.8 93.5 11.1-1.3 21.7-3.9 31.8-7.8l9.5-22.7c-1.5-19.5-6.4-33.8-11.8-44.2z"/><path fill="#AE6D5C" d="M76.1 105.3c-1.7-4.2-2.4-7.6-3.2-11.2-.6-2.4-1.5-4.7-2-6.7.4 6.7.6 12.8.1 16.7-1 7.9-2.6 18.4 7.9 25.5 3.7 2.5 7.2 4.9 10.3 6.9-.5-1.4-1-2.9-1.5-4.5-4.6-4-14.2-13.8-11.6-26.7zm-3.2-23.5c.9-.5 2-.5 3.1-.3 0 0 0-.1-.1-.1-3.3-8-.3-50.6 25.8-66.2 8.9-5.3 26.3-6.8 26.3-6.8S103.5 7 91.2 22.8C79 38.6 69.5 52.4 69.8 65.7c.1 5.9.6 12.5 1 18.8.2-1.1.8-2 2.1-2.7z"/><path fill="#CC9B86" d="M76.1 105.3c.8 2.1 1.9 4.3 3.4 6.9 2.8 4.8 4.2 6.5 5.6 7.2-1.5-9.3-2.4-20.2-3.3-31.1-1.2 6.3-2.5 13.1-3.2 17 0 0 .5-15.8-2.8-23.8-1.1-.2-2.1-.2-3.1.3-1.3.7-1.9 1.6-2.2 2.7-.2.9-.1 1.8.2 2.9.5 2 1.4 4.2 2 6.7 1.1 3.6 1.7 6.9 3.4 11.2z"/><path fill="#CDAA9D" d="M128 160.4V138c-11.9 0-14.4-4.3-14.4-4.3 2.8-.9 3.1-1.7 5.8-4 1.4-1.5 3.9-2.3 5.9-1.4 1.3 1.1 2.7.9 2.7.9V38.8c-9.9-3.8-20.7-1.2-24-.3-5.5 6.6-10.9 18.8-13 25.6-1.1 3.5-1.9 6.9-2.4 9.8 1.3-1.1 12.6-10.2 22.5-3.3 0 0 5.6 2.9 2.5 5.9s-3.5-4.3-12.1-4.2c-7.8 0-12.2 1.4-12.9 1.7-.8 4.3-1.1 7.3-1.1 7.3l-2.6-8.5s-1.4 7.3-3 15.4c.8 10.9 1.8 21.8 3.3 31.1.7 4.7 1.6 9 2.6 12.7.5 1.6.9 3.1 1.5 4.5 1.2 3.2 2.6 5.6 4.3 7.1 3.5 3.1 7.2 6.7 11.6 9.8 5.8 4 13 7 22.8 7zM118 107c-.6 0-1.1-.4-1.1-.9s.6-.8 1.2-.8 1.1.4 1.1.9-.5.9-1.2.8zm3.7-3.5c-.6 0-1.1-.4-1.1-.9s.6-.8 1.2-.8 1.1.4 1.1.9-.5.9-1.2.8zm.3-7c-.6 0-1.1-.4-1.1-.9s.6-.8 1.2-.8 1.1.4 1.1.9-.5.9-1.2.8zm4.1 3c-.6 0-1.1-.4-1.1-.9s.6-.8 1.2-.8 1.1.4 1.1.9-.5.8-1.2.8zm.4-7c-.6 0-1.1-.4-1.1-.9s.6-.8 1.2-.8 1.1.4 1.1.9c-.1.5-.6.8-1.2.8zm-9 .3c.6 0 1.1.4 1.1.9s-.6.8-1.2.8-1.1-.4-1.1-.9c.1-.5.6-.8 1.2-.8zm-.3 7.5c.6 0 1.1.4 1.1.9s-.6.8-1.2.8-1.1-.4-1.1-.9c0-.4.5-.8 1.2-.8zm-3.5 9c.6 0 1.1.4 1.1.9s-.6.8-1.2.8-1.1-.4-1.1-.9c0-.4.6-.8 1.2-.8zm-3.3-13.5c.6 0 1.1.4 1.1.9s-.6.8-1.2.8-1.1-.4-1.1-.9.6-.8 1.2-.8zm-.3 7c.6 0 1.1.4 1.1.9s-.6.8-1.2.8-1.1-.4-1.1-.9c0-.4.6-.8 1.2-.8zm-4.1-3c.6 0 1.1.4 1.1.9s-.6.8-1.2.8-1.1-.4-1.1-.9c0-.4.6-.8 1.2-.8zm-.3 7c.6 0 1.1.4 1.1.9s-.6.8-1.2.8-1.1-.4-1.1-.9c0-.4.5-.8 1.2-.8z"/><path fill="#AE6D5C" d="M101.4 72.3c8.6 0 9 7.3 12.1 4.2s-2.5-5.9-2.5-5.9c-9.9-6.8-21.2 2.2-22.5 3.3v.1c.7-.2 5.1-1.7 12.9-1.7z"/><path fill="#C0806C" d="M180.1 81.3s0 .1-.1.1c1.1-.2 2.1-.2 3.1.3.4.2.7.4 1 .7 1.1-6 2.1-11.9 2.1-16.8.3-13.3-9.2-27.1-21.5-42.9C152.5 7 128 8.4 128 8.4s17.4 1.5 26.3 6.8c26.1 15.5 29.1 58.2 25.8 66.1zm-9.2 38c-1.8 11.5-4.4 20.6-8.4 24.2-3.5 3.1-7.1 6.7-11.6 9.7l.5 4.4v.1s2.5 1.3 5.5 3.1c1 .7 2.1 1.4 3.2 2.2 10.5-7.2 21.3-46.5 20.3-54.4-.2-1.2-.1-2.7 0-4.5-.9 2.4-2.1 5-3.9 8-2.8 4.9-4.2 6.6-5.6 7.2z"/><path fill="#D7A990" d="M180 81.5c-.1.2-.2.5-.3.7-.4 11.9-2 23.1-2 23.1s.3-6.8-1.9-14.4c-1.4 3.2-2.4 5.3-2.4 5.3V96c-.7 8.2-1.5 16.3-2.6 23.4 1.4-.6 2.8-2.3 5.6-7.2 1.8-3.1 3-5.7 3.9-8 1.4-3.7 2-6.8 2.8-10.1 1.2-4.9 3.8-9.1 1-11.6-.3-.2-.6-.5-1-.7-.9-.5-2-.5-3.1-.3z"/><path fill="#DEBCAD" d="M162.5 143.6c4-3.6 6.6-12.7 8.4-24.2 1.1-7.1 2-15.1 2.6-23.4.4-4.7.4-8.4.1-11.1-.6-1.3-1.4-2.5-2.2-3.7l-2.1 6.6s-.5-4.9-1.4-10.7c-1.9-1.7-4.1-3.2-6.7-4.3-.2-.1-.3-.1-.5-.2-1.7-.2-3.8-.3-6.1-.3-8.6 0-9 7.3-12.1 4.2s2.5-5.9 2.5-5.9c2.4-1.6 4.8-2.4 7.2-2.5-10.7-7.2-15-16.8-22.7-28.6l-1.5-.6v90.3s1.4.2 2.7-.9c2-.9 4.5-.1 5.9 1.4 2.7 2.4 2.9 3.1 5.8 4 0 0-2.5 4.3-14.4 4.3v22.5c9.8 0 17-3.1 22.8-7.1 4.5-3.1 8.2-6.7 11.7-9.8zm-9.2-38.3c0 .5-.6.8-1.2.8s-1.1-.4-1.1-.9.6-.8 1.2-.8c.6.1 1.1.5 1.1.9zm-2.1-5.8c.6 0 1.1.4 1.1.9s-.6.8-1.2.8-1.1-.4-1.1-.9.5-.9 1.2-.8zm-3.5 8.9c.6 0 1.1.4 1.1.9s-.6.8-1.2.8-1.1-.4-1.1-.9c0-.4.6-.8 1.2-.8zm-2.5-5.5c0 .5-.6.8-1.2.8s-1.1-.4-1.1-.9.6-.8 1.2-.8 1.2.4 1.1.9zm.4-7.1c0 .5-.6.8-1.2.8s-1.1-.4-1.1-.9.6-.8 1.2-.8 1.1.5 1.1.9zM129.7 106c-.6 0-1.1-.4-1.1-.9s.6-.8 1.2-.8 1.1.4 1.1.9-.5.9-1.2.8zm2.4-9.9c0-.5.6-.8 1.2-.8s1.1.4 1.1.9-.6.8-1.2.8-1.1-.4-1.1-.9zm2.1 5.9c-.6 0-1.1-.4-1.1-.9s.6-.8 1.2-.8 1.1.4 1.1.9c-.1.5-.6.8-1.2.8zm2.6-6.6c-.6 0-1.1-.4-1.1-.9s.6-.8 1.2-.8 1.1.4 1.1.9-.6.9-1.2.8zm2.8 12.3c-.6 0-1.1-.4-1.1-.9s.6-.8 1.2-.8 1.1.4 1.1.9-.6.8-1.2.8zm.3-7c-.6 0-1.1-.4-1.1-.9s.6-.8 1.2-.8 1.1.4 1.1.9-.5.8-1.2.8z"/><path fill="#C0806C" d="M145 70.6s-5.6 2.9-2.5 5.9 3.5-4.3 12.1-4.2c2.4 0 4.4.1 6.1.3-3.3-1.4-6.1-2.9-8.5-4.5-2.3.1-4.8.9-7.2 2.5z"/><path fill="#B48268" d="M75.9 81.3s0 .1.1.1c3.3 8 2.8 23.8 2.8 23.8.7-3.9 1.9-10.7 3.2-17 1.5-8 3-15.4 3-15.4l2.6 8.5s.3-3 1.1-7.3v-.1c.6-2.8 1.3-6.3 2.4-9.8 2.1-6.8 7.5-19 13-25.6-.6.2-1 .3-1 .3s1.8-4 5.1-7.5c3.7-7.4 8.4-12.2 19.9-12.5V8.4s-17.4 1.5-26.3 6.8C75.6 30.7 72.6 73.4 75.9 81.3z"/><path fill="#C19072" d="M144 20.5c23.9 4.6 29.2 26 33.8 38.3 2 5.2 2.3 14.5 1.9 23.4.1-.2.2-.5.3-.7 0 0 0-.1.1-.1 3.3-8 .3-50.6-25.8-66.2-8.9-5.3-26.3-6.8-26.3-6.8v10.5c4.3-.2 9.5.4 16 1.6zm23.9 56.6c.9 5.8 1.4 10.7 1.4 10.7l2.1-6.6c-1-1.5-2.2-2.8-3.5-4.1zm5.7 7.8c.3 2.7.4 6.4-.1 11.1v.2s1-2.1 2.4-5.3c-.5-2-1.3-4.1-2.3-6z"/><path fill="#A76B5B" d="M129.3 39.1c-9.7-14.8-21.2-7.7-21.2-7.7s0-.1.1-.1c-3.3 3.5-5.1 7.5-5.1 7.5s.4-.1 1-.3c3.3-.9 14.1-3.5 24 .3l1.5.6c-.2 0-.3-.1-.3-.3z"/><path fill="#C29D76" d="M129.3 39.1c.1.1.1.2.2.3 7.7 11.8 12.1 21.5 22.7 28.6 2.5 1.6 5.3 3.2 8.5 4.5.2.1.3.1.5.2 2.6 1.1 4.8 2.6 6.7 4.3 1.4 1.2 2.5 2.6 3.5 4 .8 1.2 1.6 2.4 2.2 3.7 1 2 1.8 4 2.3 6 2.2 7.6 1.9 14.4 1.9 14.4s1.5-11.2 2-23.1c.3-8.9 0-18.1-1.9-23.4-4.6-12.3-10-33.7-33.8-38.3-6.5-1.2-11.7-1.8-16-1.6-11.5.3-16.1 5.1-19.9 12.5 0 0 0 .1-.1.1 0 .2 11.5-7 21.2 7.8z"/><path fill="#C08C76" d="M122.1 94.8c-.6 0-1.2.3-1.2.8s.5.9 1.1.9c.6 0 1.2-.3 1.2-.8.1-.5-.4-.9-1.1-.9zm-.3 7c-.6 0-1.2.3-1.2.8s.5.9 1.1.9c.6 0 1.2-.3 1.2-.8s-.5-.9-1.1-.9zm4.7-11c-.6 0-1.2.3-1.2.8s.5.9 1.1.9c.6 0 1.2-.3 1.2-.8.1-.5-.4-.9-1.1-.9zm-.3 7c-.6 0-1.2.3-1.2.8s.5.9 1.1.9c.6 0 1.2-.3 1.2-.8.1-.5-.4-.9-1.1-.9z"/><path fill="#D7A990" d="M129.8 104.3c-.6 0-1.2.3-1.2.8s.5.9 1.1.9c.6 0 1.2-.3 1.2-.8.1-.5-.4-.9-1.1-.9zm4.4-4c-.6 0-1.2.3-1.2.8s.5.9 1.1.9c.6 0 1.2-.3 1.2-.8.1-.5-.4-.9-1.1-.9zm.2-4.1c0-.5-.5-.9-1.1-.9-.6 0-1.2.3-1.2.8s.5.9 1.1.9c.7.1 1.2-.3 1.2-.8zm5.6 2.7c-.6 0-1.2.3-1.2.8s.5.9 1.1.9c.6 0 1.2-.3 1.2-.8s-.4-.8-1.1-.9zm-.3 7.1c-.6 0-1.2.3-1.2.8s.5.9 1.1.9c.6 0 1.2-.3 1.2-.8s-.5-.9-1.1-.9zm3.5-10.3c0 .5.5.9 1.1.9.6 0 1.2-.3 1.2-.8s-.5-.9-1.1-.9c-.6 0-1.2.4-1.2.8zm-6.3-2c-.6 0-1.2.3-1.2.8s.5.9 1.1.9c.6 0 1.2-.3 1.2-.8s-.5-.9-1.1-.9zm6 9.1c0 .5.5.9 1.1.9.6 0 1.2-.3 1.2-.8s-.5-.9-1.1-.9c-.6-.1-1.2.3-1.2.8zm4.7 7.4c.6 0 1.2-.3 1.2-.8s-.5-.9-1.1-.9c-.6 0-1.2.3-1.2.8 0 .4.5.9 1.1.9zm3.3-5c0 .5.5.9 1.1.9.6 0 1.2-.3 1.2-.8s-.5-.9-1.1-.9c-.6 0-1.2.4-1.2.8zm.2-4c.6 0 1.2-.3 1.2-.8s-.5-.9-1.1-.9c-.6 0-1.2.3-1.2.8s.5.9 1.1.9z"/><path fill="#C08C76" d="M105.9 101.6c.6 0 1.2-.3 1.2-.8s-.5-.9-1.1-.9c-.6 0-1.2.3-1.2.8 0 .4.5.8 1.1.9zm-.3 7c.6 0 1.2-.3 1.2-.8s-.5-.9-1.1-.9c-.6 0-1.2.3-1.2.8 0 .4.5.9 1.1.9zm4.7-11.1c.6 0 1.2-.3 1.2-.8s-.5-.9-1.1-.9c-.6 0-1.2.3-1.2.8s.5.9 1.1.9zm7.2-3c.6 0 1.2-.3 1.2-.8s-.5-.9-1.1-.9c-.6 0-1.2.3-1.2.8-.1.5.4.9 1.1.9zm-7.5 10.1c.6 0 1.2-.3 1.2-.8s-.5-.9-1.1-.9c-.6 0-1.2.3-1.2.8 0 .4.5.8 1.1.9zm3.6 6.5c.6 0 1.2-.3 1.2-.8s-.5-.9-1.1-.9c-.6 0-1.2.3-1.2.8 0 .4.5.8 1.1.9zm4.5-5.8c-.6 0-1.2.3-1.2.8s.5.9 1.1.9c.6 0 1.2-.3 1.2-.8.1-.5-.4-.9-1.1-.9zm-1-3.2c.6 0 1.2-.3 1.2-.8s-.5-.9-1.1-.9c-.6 0-1.2.3-1.2.8 0 .4.5.9 1.1.9z"/><path fill="#884251" d="M128 129.2s-1.4.2-2.7-.9c-2-.9-4.5-.1-5.9 1.4-2.7 2.4-2.9 3.1-5.8 4 0 0 2.5 4.3 14.4 4.3v-8.8z"/><path fill="#9D4D5E" d="M142.4 133.7c-2.8-.9-3.1-1.7-5.8-4-1.4-1.5-3.9-2.3-5.9-1.4-1.3 1.1-2.7.9-2.7.9v8.8c11.9 0 14.4-4.3 14.4-4.3z"/></svg>