<svg xmlns="http://www.w3.org/2000/svg" width="256" height="256"><circle fill="#B1B3B5" cx="128" cy="128" r="128"/><path fill="#100D0E" d="M163.4 175.6c3.6-1.7 8.9-3.1 11.9-7.7 7.4-11.5-.3-15.2-.9-15.4-3.1-1-7.1-1-9.8-.9-.6 7.4-1.3 17.2-1.2 24z"/><path fill="#C08C76" d="M155.2 160.3c-2.1 3.5-5.2 8-8.5 10.7l-1.2.9h-.1c-.2.1-.3.2-.5.3-.1.1-.2.1-.3.2-.1.1-.3.2-.4.2-6.7 3.5-9.6 4.5-16.2 4.5v20.5s19.9-2.9 33.4-8.4c-.8-4.3-1.4-7.9-1.5-9.6-.2-2 1.3-3.2 3.5-4.2-.1-6.8.6-16.6 1.2-24 .2-2.1.3-3.9.5-5.5-2.4 5.4-5.6 10.5-9.9 14.4zm21.3-53.5c-.3 6.7-2.3 12.1-4.5 16.1 0 .1-.1.3-.1.5 2 .4 4 .7 5.2.5 3.7-.5 5.2-5.6 6.1-7.9.9-2.3 0-10.7.9-14.8.9-3.8 2.2-11.5.3-18.2-.4.3-1.7 1-2.9 1.7-1.6.9-4.3 5.9-5 22.1zm-3.6 10.1c.1-.6.3-1.2.4-1.7v-1.1c-.2.9-.3 1.9-.4 2.8z"/><path fill="#D7A990" d="M144.3 172.8c.1-.1.3-.2.4-.2-.1 0-.3.1-.4.2zm2.5-1.8c-.4.3-.8.7-1.2.9.4-.2.8-.5 1.2-.9zm-1.3 1c-.2.1-.3.2-.5.3.2-.1.4-.2.5-.3zm27.8-86.9c-.6-3.3-2.8-5.5-4.5-7.8-.6-.4-1-.9-1.3-1.9-.9-4.1 3.6-9.9.7-15.2-3.6-3.5-8.7-6.7-10-8.1-1.1-1.1-.7-2.8-.3-4.7 0-.8.2-1.6.3-2.7 0-2.8-2.3-6.2-7-4.3-1.6.6-4.9 1.1-8.5 1.3-3.8.6-8.6 1.1-14.7 1.1V127s5.3.3 7.1-1.5c0 0 14 6.8 15.1 9.3 1.2 2.6-1.9 5.8-1.9 5.8s-5.7-4.4-9.1-5.1c-3.4-.7-11.3 0-11.3 0v30.8s9.9-.2 12.7 1.4c2.1 1.3 11.1-6.7 15.2-10.4 1.7-4.7 4.3-13.1 4.1-20.1 0 0 2.4-2.6 5.2-6 4.3-5.2 6.6-10.3 7.5-14.2.1-.9.2-1.9.3-2.9.3-4.5.3-19.9.4-29zm-26.6 1.7c-6.7 2.8-11.6-1.3-11.6-1.3.2-3.1 1.4-2.3 4.2-2s5.7 1.5 11.2-1.2c5.5-2.8 15.5-.8 15.5-.8l-2.8.1 2.9 2.3c-4.1-1-12.7.1-19.4 2.9z"/><path fill="#A78573" d="M139.4 135.5c3.4.7 9.1 5.1 9.1 5.1s3-3.3 1.9-5.8c-1.2-2.6-15.1-9.3-15.1-9.3-1.9 1.9-7.1 1.5-7.1 1.5v8.5c-.1 0 7.7-.7 11.2 0zm4.9 37.3c.1-.1.3-.2.4-.2.1-.1.2-.1.3-.2.2-.1.3-.2.5-.3h.1l1.2-.9c3.2-2.8 6.3-7.2 8.5-10.7l-.6.6s.6-1.4 1.4-3.6c-4.1 3.8-13.1 11.7-15.2 10.4-2.8-1.6-12.7-1.4-12.7-1.4v11c6.5-.2 9.3-1.3 16.1-4.7z"/><path fill="#A78573" d="M165.2 131.3l.1-.1c-2.8 3.4-5.2 6-5.2 6 .2 7-2.4 15.4-4.1 20.1-.8 2.2-1.4 3.6-1.4 3.6l.6-.6c4.2-3.9 7.5-9 9.9-14.2 4.2-9 6.1-18.5 6.8-22.7 0-.2.1-.3.1-.5-3.1 5.6-6.8 8.4-6.8 8.4z"/><path fill="#5C3C21" d="M128.1 29.4s5.6 2.2 9.3 2.5 4.7-5.9 4.7-5.9l1.9 5.9s4-4.4 4.3-7.8c0 0 2.5 7.8 1.6 10.3s6.2.6 7.5 0c1.2-.6.6 4 2.8 7.8s11.8 8.7 13.7 11.2c1.9 2.5 7.5-2.8 7.5-2.8s-2.2 5-8.7 6.2c0 0 6.2 3.4 8.7 0 0 0-2.7 6.4-5.2 7.3-2.5.9 1.2 3.2 3 2 0 0-2.2 6.5-5.3 8.1 0 0 5.9-.6 7.5-1.6 0 0-1.9 9.3-3.1 13.7s-4.9 29-4.9 29v-.1c-.1.5-.2 1.1-.4 1.7-.9 4-3.2 9-7.5 14.2l-.1.1s3.6-2.8 6.8-8.4c2.3-4 4.3-9.4 4.5-16.1.6-16.2 3.4-21.2 5-22.1 1.3-.7 2.5-1.5 2.9-1.7.1-.1.2-.1.2-.1s-1.2-7.5 0-10.9.9-15.2 0-20.5c-.9-5.3-4.3-16.5-7.5-19.9-3.1-3.4-13.7-14.3-16.8-17.7-3.1-3.4-18-5.6-32.3-5.6v21.2z"/><path fill="#5C3C21" d="M158.2 44.7c.1-.6.2-1.3.2-2.1.2-5.2-6.1-3.5-6.1-3.5s-3.1 1.5-9.6 2.6c3.6-.3 6.9-.7 8.5-1.3 4.7-2 7 1.5 7 4.3zm0 7.4c1.3 1.3 6.4 4.5 10 8.1-.5-.8-1.1-1.7-2-2.5-6.9-6.4-8.3-8.3-8.4-10.3-.3 1.9-.6 3.7.4 4.7zm15.1 33c0-2.9.1-5.1.1-6.1.1-1.7-2.8-.6-4.6-1.7 1.7 2.3 3.9 4.5 4.5 7.8z"/><path fill="#402214" d="M128.1 42.8c6 0 10.9-.5 14.7-1.1 6.5-1.1 9.6-2.6 9.6-2.6s6.3-1.7 6.1 3.5c0 .8-.1 1.5-.2 2.1-.2 1.1-.4 1.9-.3 2.7.1 2 1.5 4 8.4 10.3.9.8 1.5 1.6 2 2.5 2.9 5.3-1.6 11.2-.7 15.2.2 1 .7 1.6 1.3 1.9 1.8 1.1 4.8 0 4.6 1.7-.1 1-.1 3.3-.1 6.1-.1 9-.1 24.5-.1 28.9v1.2s3.6-24.7 4.9-29 3.1-13.7 3.1-13.7c-1.6.9-7.5 1.6-7.5 1.6 3.1-1.6 5.3-8.1 5.3-8.1-1.9 1.2-5.5-1-3-2 2.5-.9 5.2-7.3 5.2-7.3-2.5 3.4-8.7 0-8.7 0 6.5-1.2 8.7-6.2 8.7-6.2s-5.6 5.3-7.5 2.8c-1.9-2.5-11.5-7.5-13.7-11.2s-1.6-8.4-2.8-7.8c-1.2.6-8.4 2.5-7.5 0S148.3 24 148.3 24c-.3 3.4-4.3 7.8-4.3 7.8l-1.9-5.9s-.9 6.2-4.7 5.9-9.3-2.5-9.3-2.5v13.5z"/><path fill="#5C3C21" d="M163.2 81.6l2.8-.1s-10.1-2-15.5.8c-5.5 2.8-8.3 1.5-11.2 1.2s-4.1-1.1-4.2 2c0 0 4.9 4.1 11.6 1.3 6.7-2.8 15.4-3.9 19.4-2.9l-2.9-2.3z"/><path fill="#B17D6B" d="M91 146.1c.2 1.6.3 3.4.5 5.5 1.3.1 2.2.2 2.6.2-1.2-1.8-2.2-3.8-3.1-5.7zm37.1 51.6v-20.5c-6.6 0-9.5-1-16.2-4.5-.1-.1-.3-.2-.4-.2-.1-.1-.2-.1-.3-.2-.2-.1-.3-.2-.5-.3h-.1l-1.2-.9c-3.2-2.8-6.3-7.2-8.5-10.7-2.6-2.4-4.8-5.2-6.7-8.2v24.4c1.2.8 2 1.8 1.9 3.3-.1 1.6-.8 5.3-1.5 9.6 13.5 5.5 33.4 8.4 33.4 8.4v23h.1v-23.2zm-48.5-90.9c-.6-16.2-3.4-21.2-5-22.1-1.3-.7-2.5-1.5-2.9-1.7-1.9 6.8-.6 14.4.3 18.2.9 4 0 12.4.9 14.8.9 2.3 2.5 7.5 6.1 7.9 1.2.2 3.1-.1 5.2-.5 0-.2-.1-.3-.1-.5-2.2-4-4.2-9.4-4.5-16.1zm3.1 5.9c0 1.2.2 2.6.6 4.2-.2-1.6-.4-3.2-.6-4.9v.7z"/><path fill="#C08C76" d="M100.7 48.8c.2-1.8.5-5 .9-8.1-.5 2.8-.8 5.8-.9 8.1zm10.8 123.7c.1.1.3.2.4.2-.2 0-.3-.1-.4-.2zm3.8-4.8c2.8-1.6 12.7-1.4 12.7-1.4v-30.8s-7.8-.7-11.3 0c-3.4.7-9.1 5.1-9.1 5.1s-3-3.3-1.9-5.8c1.2-2.6 15.1-9.3 15.1-9.3 1.9 1.9 7.1 1.5 7.1 1.5V42.8c-13.9 0-26.5 7.1-27.5 7.6-.1 1.9-.1 3.2-.1 3.2-.2-.5-.3-1.2-.5-2.2-1.6 2.7-4.5 3.7-7.2 4.6-2.3 1.8-4.9 3.9-6.6 6 0 3.1 1.2 9 2.5 13.4-1.4 2.5-3.7 4.5-5 7.3-.5 3.7-.8 12.3-1 18.9 0 4.3.1 8.2.1 10.3.2 1.7.4 3.4.6 4.9.9 4 3.2 9 7.5 14.2 2.8 3.4 5.2 6 5.2 6-.2 7 2.4 15.4 4.1 20.1 4.2 3.9 13.2 11.9 15.3 10.6zM90 83.9l2.9-2.3-2.8-.1s10.1-2 15.5.8c5.5 2.8 8.3 1.5 11.2 1.2 2.8-.3 4.1-1.1 4.2 2 0 0-4.9 4.1-11.6 1.3-6.6-2.8-15.3-3.9-19.4-2.9zm20.6 88.1l-1.2-.9c.3.3.8.6 1.2.9zm.5.3c-.2-.1-.3-.2-.5-.3.2.1.4.2.5.3z"/><path fill="#8D7161" d="M120.9 125.5s-14 6.8-15.1 9.3c-1.2 2.6 1.9 5.8 1.9 5.8s5.7-4.4 9.1-5.1c3.4-.7 11.3 0 11.3 0V127s-5.3.4-7.2-1.5zm7.2 40.8s-9.9-.2-12.7 1.4c-2.1 1.3-11.1-6.7-15.2-10.4.8 2.2 1.4 3.6 1.4 3.6l-.6-.6c2.1 3.5 5.2 8 8.5 10.7.4.3.8.7 1.2.9h.1c.2.1.3.2.5.3.1.1.2.1.3.2.1.1.3.2.4.2 6.7 3.5 9.6 4.5 16.2 4.5v-10.8z"/><path fill="#8D7161" d="M94.2 151.8v.2c1.9 3 4.1 5.9 6.7 8.2l.6.6s-.6-1.4-1.4-3.6c-1.7-4.7-4.3-13.1-4.1-20.1 0 0-2.4-2.6-5.2-6l.1.1s-3.6-2.8-6.8-8.4c0 .1.1.3.1.5.7 4.2 2.6 13.7 6.8 22.7.9 1.9 1.9 3.9 3.1 5.7l.1.1z"/><path fill="#452A11" d="M79.6 106.8c.3 6.7 2.3 12.1 4.5 16.1 3.1 5.6 6.8 8.4 6.8 8.4l-.1-.1c-4.3-5.2-6.6-10.3-7.5-14.2-.4-1.6-.6-3.1-.6-4.2v-.7c0-2.1-.1-6.1-.1-10.3-.1 5-.2 9-.2 9s-.5-19.2-.8-21.7c-.2-2.6-1.2-15.9-2.2-17.6s-5.3-10.9-5.3-10.9 8.6.9 6.5 0c-2-1-7.8-10.6-7.8-10.6 3.5 4.9 14.2 5.8 14.2 5.8l-4.9-4.2c6.1 2.6 10.7.7 10.7.7-6.1-.9-10.7-11.9-10.7-11.9 3.3-5.5 13-8.6 16.8-9.6.5-6.9 2.2-13 6-14.3 9-3.1 20.7 10.9 20.7 10.9.3.3.5.8.7 1.3 1.1.4 1.8.8 1.8.8V8.3c-14.3 0-29.2 2.2-32.3 5.6S82.1 28.2 79 31.6c-3.1 3.4-6.5 14.6-7.5 19.9-.9 5.3-1.2 17.1 0 20.5s0 10.9 0 10.9.1 0 .2.1c.4.3 1.7 1 2.9 1.7 1.6.9 4.4 5.9 5 22.1z"/><path fill="#452A11" d="M86.6 59.1c-2.4 3.5 2 16.3 2 16.3-1.2-4.3-2.5-10.3-2.5-13.4 1.7-2.1 4.3-4.2 6.6-6-2.5.9-4.9 1.5-6.1 3.1zm-2.9 22.8c0 .2-.1.5-.1.8 1.3-2.8 3.6-4.8 5-7.3 0 0-3.9 1.2-4.9 6.5z"/><path fill="#55361D" d="M121 85.5c-.2-3.1-1.4-2.3-4.2-2-2.8.3-5.7 1.5-11.2-1.2-5.5-2.8-15.5-.8-15.5-.8l2.8.1-2.9 2.3c4.1-1 12.8 0 19.4 2.9 6.8 2.8 11.6-1.3 11.6-1.3z"/><path fill="#2B0E00" d="M126.2 36.6s-9.5-5.3-17.7-6.1c-3.9-.4-5.9 4.7-6.9 10.3-.4 3.2-.8 6.3-.9 8.1 0 .6-.1 1.1-.1 1.6 1-.6 13.6-7.6 27.5-7.6V29.4s-.7-.3-1.8-.8c.9 2.9-.1 8-.1 8zM83.6 82.8c0-.3.1-.6.1-.8.9-5.4 4.9-6.5 4.9-6.5s-4.4-12.8-2-16.3c1.1-1.6 3.6-2.2 6.1-3 2.8-.9 5.6-1.9 7.2-4.6-.8-4.4-1.7-13-1.1-20.7-3.8 1-13.5 4.1-16.8 9.6 0 0 4.7 10.9 10.7 11.9 0 0-4.7 1.9-10.7-.7l4.9 4.2s-10.7-.9-14.2-5.8c0 0 5.8 9.6 7.9 10.5 2.1.9-6.5 0-6.5 0s4.3 9.2 5.3 10.9 1.9 15 2.2 17.6c.2 2.6.8 21.7.8 21.7s.1-4 .2-9c.2-6.8.5-15.3 1-19z"/><path fill="#5C3C21" d="M100 51.5c.2.9.4 1.7.5 2.2 0 0 0-1.3.1-3.2 0-.5 0-1 .1-1.6.1-2.4.4-5.3.9-8.1 1-5.5 3-10.6 6.9-10.3 8.2.8 17.7 6.1 17.7 6.1s1-5 .1-7.9c-.2-.5-.4-.9-.7-1.3 0 0-11.7-14-20.7-10.9-3.8 1.3-5.5 7.4-6 14.3-.6 7.7.3 16.3 1.1 20.7z"/><path fill="#B4C5D2" d="M135 213.3s21.2-2.8 29.4-8.1c-.6-2.9-1.3-6.4-1.9-9.9-9.9 3.9-24 8.7-34.5 8.7v52c4.1 0 8.1-.2 12.1-.6-2.2-25-5.1-42.1-5.1-42.1zm30.2-4.3v-.1z"/><path fill="#9CABB7" d="M161.4 189.4c-13.5 5.5-33.4 8.4-33.4 8.4v6.3c10.4 0 24.6-4.8 34.5-8.7-.3-2.1-.7-4.2-1.1-6z"/><path fill="#331A1E" d="M175.4 167.9c-3 4.6-8.3 6-11.9 7.7-2.2 1-3.7 2.1-3.5 4.2.1 1.6.8 5.3 1.5 9.6.3 1.9.7 3.9 1.1 5.9.7 3.5 1.4 7 1.9 9.9l.7 3.7c10.8-4 16.9-9 16.9-9l2.4 1-2-1 12.6-12.6.4-3.8c-4.2-3.5-9-8.6-10.2-14.4-3.5-16.8-6.6-15.7-11-16.8.8.4 8.4 4.1 1.1 15.6z"/><path fill="#260C11" d="M195.6 187s25.6 2.6 33.3 6.3c-11-7.1-33.3-9.7-33.3-9.7l-.4 3.8.4-.4z"/><path fill="#57565A" d="M195.6 187l-.4.4-12.7 12.6 2 1 27.5 11c-1.4 4.8-2.7 10.2-4 15.9 10.9-8.7 20.3-19.2 27.8-31-2.7-1.3-5.2-2.5-7.1-3.4-7.5-3.9-33.1-6.5-33.1-6.5z"/><path fill="#352C31" d="M164.5 205.2c-8.3 5.4-29.4 8.1-29.4 8.1l18.5-1.1c4.3-.9 8.2-2 11.7-3.3l-.8-3.7z"/><path fill="#352C31" d="M153.5 212.2l-18.5 1.1s2.9 17 5.1 42.1c5.4-.5 10.7-1.3 15.9-2.5-1.2-22.6-2.5-40.7-2.5-40.7z"/><path fill="#683936" d="M212.1 211.9l-27.5-11-2.4-1s-6.1 5-16.9 9c-3.4 1.3-7.3 2.4-11.7 3.3 0 0 1.2 18.1 2.4 40.7l2.7-.6c-1-22.8-2.1-40.6-2.1-40.6l2.1-.5 1.7 35.8 7.6 1.6v1.2c9.7-3.2 19-7.5 27.5-12.9-3.8-18.7-4.2-30.2-4.2-30.2l17.3 7.3s-2.2 7.2-4.4 17.1c1.3-1 2.7-2 4-3.1 1.2-5.9 2.5-11.3 3.9-16.1z"/><path fill="#4E4345" d="M160.5 246.9l-1.7-35.8-2.1.5s1.1 17.9 2.1 40.6c3.1-.8 6.3-1.7 9.3-2.7v-1.2l-7.6-1.4z"/><path fill="#785E5E" d="M208.6 213.8l-17.3-7.3s.5 11.5 4.2 30.2c3-1.8 5.9-3.8 8.7-5.9 2.2-9.8 4.4-17 4.4-17z"/><path fill="#040001" d="M80.6 167.9c3.5 5.4 10.3 6.4 13.6 8.6v-24.6H94c-.4 0-1.3-.2-2.6-.2-2.7-.2-6.7-.2-10 .9-.5.1-8.1 3.8-.8 15.3z"/><path fill="#9CABB7" d="M127.9 204c-10.4 0-24.6-4.8-34.5-8.7-.7 3.5-1.4 7-1.9 9.9 8.3 5.4 29.4 8.1 29.4 8.1s-2.9 17-5.1 42.1c4 .4 8 .6 12.1.6v-52zm-37.1 5v-.1z"/><path fill="#8896A1" d="M94.6 189.4c-.3 1.9-.7 3.9-1.1 5.9 9.9 3.9 24 8.7 34.5 8.7v-6.3c-.1 0-19.9-2.9-33.4-8.3z"/><path fill="#260C11" d="M94.6 189.4c.8-4.3 1.4-7.9 1.5-9.6.1-1.5-.6-2.5-1.9-3.3-3.3-2.2-10.1-3.2-13.6-8.6-7.4-11.5.3-15.2.9-15.4-4.4 1.1-7.5 0-11 16.8-1.2 5.7-6 10.8-10.2 14.4l.4 3.8L73.5 200l-2 1 2.4-1s6.1 5 16.9 9l.7-3.7c.6-2.9 1.3-6.4 1.9-9.9.4-2.1.8-4.2 1.2-6z"/><path fill="#21060B" d="M60.4 183.6s-22.3 2.6-33.3 9.7c7.7-3.7 33.3-6.3 33.3-6.3l.4.4-.4-3.8z"/><path fill="#3A343A" d="M43.9 211.9l27.5-11 2-1-12.6-12.6-.4-.4s-25.6 2.6-33.3 6.3c-1.9.9-4.4 2.1-7.1 3.4 7.5 11.8 17 22.3 27.8 31-1.2-5.5-2.5-10.9-3.9-15.7z"/><path fill="#261D22" d="M90.8 208.9c3.4 1.3 7.3 2.4 11.7 3.3l18.5 1.1s-21.2-2.8-29.4-8.1l-.8 3.7z"/><path fill="#261D22" d="M121 213.3l-18.5-1.1s-1.2 18.1-2.4 40.7c5.2 1.2 10.5 2 15.9 2.5 2.1-25 5-42.1 5-42.1z"/><path fill="#532B28" d="M102.5 212.2c-4.3-.9-8.2-2-11.7-3.3-10.8-4-16.9-9-16.9-9l-2.4 1-27.5 11c1.4 4.8 2.7 10.2 4 15.9 1.3 1 2.6 2.1 4 3.1-2.2-9.9-4.4-17.1-4.4-17.1l17.3-7.3s-.5 11.5-4.2 30.2c8.5 5.3 17.8 9.7 27.5 12.9v-1.2l7.6-1.6 1.7-35.8 2.1.5s-1.1 17.9-2.1 40.6l2.7.6c1-22.4 2.3-40.5 2.3-40.5z"/><path fill="#3E3537" d="M99.4 211.6l-2.1-.5-1.7 35.8-7.6 1.6v1.2c3.1 1 6.2 1.9 9.3 2.7 1-22.9 2.1-40.8 2.1-40.8z"/><path fill="#683936" d="M47.4 213.8s2.2 7.2 4.4 17.1c2.8 2.1 5.7 4 8.7 5.9 3.8-18.7 4.2-30.2 4.2-30.2l-17.3 7.2z"/></svg>