<svg xmlns="http://www.w3.org/2000/svg" width="256" height="256"><circle fill="#B1B3B5" cx="128" cy="128" r="128"/><path fill="#353E57" d="M222.6 214.2c.6-.7 1.3-1.4 1.9-2.1-.8.3-1.5.7-2.4 1.2.2.3.4.6.5.9z"/><path fill="#293A54" d="M174.6 201.8c-3.1-8.9-5.5-15.7-6.6-18.8.8 5.4.9 10.9 1.2 14.9 0 0 3.2 1.9 5.4 3.9z"/><path fill="#C08C76" d="M128.2 179.4v40c1.2-.5 4.3-1.9 8.2-3.8.8-4.7 12-18 19.9-27.2 6.2-9.7 7.2-17.9 7.2-17.9v.1c.3-5.5.4-10.5.5-12.9-2.9 3.7-6.5 7.7-10.7 12.2-8.9 9.6-22.4 9.6-25.1 9.5zm58.5-82.2c-.1.1-3.7 2.7-6 4.4-2.3 1.7-3.1 10.5-3.1 10.5-.1.1-.2.1-.3.1-1.2 7.4-2.9 14.6-4.3 20.9 1.3.3 2.4.5 3 .3 1.8-.5 6.5-5.5 7.2-9.3s4-8.1 5.5-10.8c1.4-2.4 2.6-10.1.7-14.1l-2.7-2z"/><path fill="#D7A990" d="M177.7 102c-.3-1.9 0-7.9 0-10.5 0-2.6-1-17-2.3-25.6-1.3-8.6-11.4-22.5-11.4-22.5s-12 4.6-19 4.8c-6.1.2-14.6 4-16.7 5v126.2c2.7.1 16.1.1 25.2-9.6 4.2-4.5 7.8-8.5 10.7-12.2 4.1-5.2 6.7-9.9 7.3-15 .3-2.9 1-6.1 1.7-9.6 1.4-6.3 3.1-13.5 4.3-20.9-1.7.3.4-8.3.2-10.1zm-36.1-15.7s6.4-.3 8.8-1 5-.2 6.8 0 4.9.3 6.6 1 5.7 4.2 5.7 4.2-5.9-2.4-7.8-2.6c-1.9-.2-3.6.1-5.9 0s-11.3 1.7-13 1.5-1.2-3.1-1.2-3.1z"/><path fill="#604E41" d="M142.8 89.3c1.7.2 10.7-1.6 13-1.5s4-.2 5.9 0c1.9.2 7.8 2.6 7.8 2.6s-4-3.5-5.7-4.2-4.9-.8-6.6-1-4.3-.6-6.8 0-8.8 1-8.8 1-.5 3 1.2 3.1z"/><path fill="#4F3426" d="M127.8 8.4h.1-.1zm.4 37.5v7.3c2.1-1 10.6-4.8 16.7-5 7-.2 19-4.8 19-4.8s10.1 13.9 11.4 22.5c1.3 8.6 2.3 23 2.3 25.6 0 2.6-.3 8.6 0 10.5.2 1.8-1.9 10.4-.3 10.2.1 0 .2 0 .3-.1 0 0 .8-8.9 3.1-10.5 2.3-1.6 5.8-4.3 6-4.4l2.8 2 .3.2s2.1-5.7 2.1-8.9-1.8-6.9 0-8.3c1.8-1.4 0-9.8 0-16s-1.8-9.8-3.1-13.2-8.8-13.7-11.4-15.6c-2.6-1.9-7.3-3.8-7.3-3.8s-6.2-2.9-8.1-6.5c-1.8-3.6-3.4-6.2-8.1-10.3-4.6-4-10.5-8.3-25.8-8.4v37.5z"/><path fill="#6C848A" d="M143 225.2l.3-.6s1.7-3.2-1.2-7c-1.3-1.7-5.7-2.1-5.7-2.1v-.1c-3.9 1.9-7 3.3-8.2 3.8v7.5c1.8.2 7.9-.1 14.8-1.5z"/><path fill="#4E6267" d="M142.1 217.7c2.9 3.8 1.2 7 1.2 7l-.3.6c1.1-.2 2.2-.5 3.2-.8-.7-2.8.8-4.1 1.6-5.8 1-2.1-1.7-4.5-5.4-5.3s-6.1 2.2-6.1 2.2 4.5.4 5.8 2.1z"/><path fill="#768F95" d="M156.3 188.3c-7.9 9.2-19.1 22.5-19.9 27.2v.1s2.4-3 6.1-2.2 6.4 3.2 5.4 5.3c-.8 1.6-2.3 3-1.6 5.8 11-2.9 22.9-9 22.7-22.1l.2-4.5c-.3-4-.4-9.5-1.2-14.9-.5-1.3-.7-2-.7-2s.1.1.4.1c-.7-4-2-7.7-4-10.7v-.1c-.1.1-1.1 8.3-7.4 18z"/><path fill="#6E8EBF" d="M186.3 235.7c-1.9-5.5-3.8-11-5.5-16.1-3.9 4.7-20.4 22-52.5 22.2V256c19.9 0 38.7-4.6 55.5-12.7.7-2.6 1.6-5.2 2.5-7.6z"/><path fill="#5C779F" d="M169 202.4c.2 13.1-11.7 19.2-22.7 22.1-1.1.3-2.2.5-3.2.8-7 1.5-13.1 1.7-14.8 1.7v14.8c32.2-.2 48.6-17.5 52.5-22.2-2.2-6.5-4.3-12.5-6.2-17.8-2.2-2-5.4-3.9-5.4-3.9l-.2 4.5z"/><path fill="#444F6C" d="M216.5 202.4l-1.6.7c2.5 2.7 4.9 6.1 7.3 10.2.8-.5 1.6-.9 2.4-1.2 1.2-1.4 2.4-2.8 3.6-4.3-3.7-3.7-11.7-5.4-11.7-5.4zm-30.2 33.3c-1 2.4-1.8 5-2.6 7.6 1.5-.7 3-1.5 4.4-2.3-.6-1.8-1.2-3.5-1.8-5.3z"/><path fill="#2A4668" d="M184 187.2l14.9 5.8c-4.5-1.8-9.8-3.8-14.9-5.8zm11.6 44.2c-1.3-3.5 3.3-3.7 3.3-3.7l1 3.4-1.9-6.1h-1.6l-.2-5.3-12.2-32.5c-7.8-2.9-14.7-5.5-16.4-6.1-.2-.1-.4-.1-.4-.1s.2.7.7 2c1.1 3.1 3.5 9.9 6.6 18.8 1.9 5.3 4 11.3 6.2 17.8 1.8 5.1 3.6 10.6 5.5 16.1.6 1.8 1.2 3.5 1.8 5.3 3.1-1.7 6.2-3.4 9.1-5.4-.3-1.1-.9-2.6-1.5-4.2zm19.2-28.3c-3.4-3.6-6.9-6.1-10.9-7.9-.9-.4-1.8-.8-2.8-1.2l11.3 25.9v4.4c3.6-3.2 7-6.5 10.3-10.1-.2-.3-.3-.6-.5-.9-2.5-4.2-4.9-7.5-7.4-10.2z"/><path fill="#4C5C68" d="M196.3 219.8h16.1L201.1 194l-.1-.1-2.1-.8-14.9-5.9zm.2 5.3h1.6l1.9 6.1 4.1-.3c2.9-2.1 5.6-4.4 8.3-6.7l-15.9.9z"/><path fill="#45545F" d="M196.5 225.1l15.9-.9v-4.4h-16.1z"/><path fill="#B0B2B4" d="M200 231.2l-1-3.4s-4.6.1-3.3 3.7c.6 1.5 1.2 3 1.6 4.2 1.1-.7 2.3-1.5 3.4-2.2l-.7-2.3z"/><path fill="#37444E" d="M200 231.2l.7 2.2c1.2-.8 2.3-1.6 3.4-2.5l-4.1.3z"/><path fill="#22293E" d="M31.5 212.1c.6.7 1.2 1.4 1.9 2.1.2-.3.3-.6.5-.9-.9-.5-1.7-.9-2.4-1.2z"/><path fill="#293A54" d="M88 183c-1.1 3.1-3.5 9.9-6.6 18.8 2.2-2 5.4-3.9 5.4-3.9.3-4 .4-9.5 1.2-14.9z"/><path fill="#B17D6B" d="M99.7 188.3c7.9 9.2 19.1 22.5 19.9 27.2 5 2.5 8.7 4.1 8.7 4.1v-40.2s-15.6 1.3-25.6-9.6c-4.2-4.5-7.8-8.5-10.7-12.2.1 2.4.2 7.4.5 12.9v-.1c-.1 0 .9 8.2 7.2 17.9zM78 107.9c-.4.3-3.9-6.1-3.9-6.1l-2-2.4-2.4-2.2c-1-.1-1.9.1-2.5.7-2.9 3.4-1.6 12.7 0 15.3 1.6 2.6 4.8 6.9 5.5 10.8s5.4 8.9 7.2 9.3c.6.2 1.7 0 3-.3-1.5-6.8-3.4-14.6-4.5-22.7-.2-.7-.3-1.6-.4-2.4z"/><path fill="#C08C76" d="M128.2 179.4v-126s-13.5-.6-19-3.5c-5.6-2.9-17.7 2.1-17.7 4.9 0 2.9 1.2 18.2-3.8 24.4 0 0 1.3-6.2 1.5-10.3 0 0-3.1 8.1-5 10.3l1.3-5s-6.6 8.6-6.4 10.8c.2 2.2 0 13.7 0 13.7s-1.1 7.9-1.1 9.1v.1c.1.9.2 1.7.4 2.5 1.2 8.1 3.1 15.8 4.5 22.7.7 3.5 1.4 6.7 1.7 9.6.6 5 3.2 9.8 7.3 15 2.9 3.7 6.5 7.7 10.7 12.2 10.1 10.7 25.6 9.5 25.6 9.5zm-36-93.1c1.7-.6 4.9-.8 6.6-1s4.3-.6 6.8 0 8.8 1 8.8 1 .5 2.9-1.2 3-10.7-1.6-13-1.5-4-.2-5.9 0c-1.9.2-7.8 2.6-7.8 2.6s4-3.5 5.7-4.1z"/><path fill="#524237" d="M100.2 87.8c2.3-.1 11.3 1.7 13 1.5s1.2-3 1.2-3-6.4-.3-8.8-1-5-.2-6.8 0-4.9.3-6.6 1-5.7 4.2-5.7 4.2 5.9-2.4 7.8-2.6c1.9-.3 3.6 0 5.9-.1z"/><path fill="#586E73" d="M113.9 217.7c-2.9 3.8-1.2 7-1.2 7l.3.6c8.3 1.7 15.3 1.8 15.3 1.8v-7.3s-3.7-1.6-8.7-4.1v.1c0-.2-4.4.2-5.7 1.9z"/><path fill="#3F5155" d="M112.7 224.6s-1.7-3.2 1.2-7c1.3-1.7 5.7-2.1 5.7-2.1s-2.4-3-6.1-2.2-6.4 3.2-5.4 5.3c.8 1.6 2.3 3 1.6 5.8 1.1.3 2.2.5 3.2.8l-.2-.6z"/><path fill="#6C848A" d="M88 183c-.8 5.4-.9 10.9-1.2 14.9l.2 4.5c-.2 13.1 11.7 19.2 22.7 22.1.7-2.8-.8-4.1-1.6-5.8-1-2.1 1.7-4.5 5.4-5.3s6.1 2.2 6.1 2.2v-.1c-.8-4.7-12-18-19.9-27.2-6.2-9.7-7.2-17.9-7.2-17.9v.1c-2.1 2.9-3.3 6.7-4 10.7.2-.1.4-.1.4-.1s-.4.6-.9 1.9z"/><path fill="#5C779F" d="M75.2 219.6c-1.8 5.1-3.6 10.6-5.5 16.1 1 2.4 1.8 5 2.6 7.6C89.1 251.4 108 256 128 256h.2v-14.2c-32.4 0-49.1-17.5-53-22.2z"/><path fill="#4A6284" d="M128.2 234.3v-7.4s-7 0-15.3-1.8c-1.1-.2-2.2-.5-3.2-.8-11-2.9-22.9-9-22.7-22.1l-.2-4.5s-3.2 1.9-5.4 3.9c-1.9 5.3-4 11.3-6.2 17.8 3.9 4.7 20.5 22.2 53 22.2v-7.3z"/><path fill="#353E57" d="M41.2 203.1l-1.6-.7s-8.1 1.7-11.6 5.5c1.2 1.4 2.3 2.9 3.6 4.3.8.3 1.5.7 2.4 1.2 2.3-4.3 4.7-7.6 7.2-10.3zm28.5 32.6c-.6 1.8-1.2 3.5-1.8 5.3 1.5.8 2.9 1.5 4.4 2.3-.8-2.6-1.7-5.2-2.6-7.6z"/><path fill="#1F3855" d="M57.1 193.1l14.9-5.8c-5.1 1.9-10.4 3.9-14.9 5.8zm-13.5 26.7L54.9 194c-1 .4-2 .8-2.8 1.2-4 1.8-7.6 4.3-10.9 7.9-2.5 2.7-4.9 6.1-7.3 10.2-.2.3-.3.6-.5.9 3.2 3.5 6.7 6.9 10.3 10.1l-.1-4.5z"/><path fill="#1F3855" d="M69.7 235.7c1.9-5.5 3.8-11 5.5-16.1 2.2-6.5 4.3-12.5 6.2-17.8 3.1-8.9 5.5-15.7 6.6-18.8.5-1.3.7-2 .7-2s-.1.1-.4.1c-1.7.6-8.6 3.1-16.4 6.1l-12.3 32.6-.2 5.3h-1.6l-1.9 6.1 1-3.4s4.6.1 3.3 3.7c-.6 1.5-1.2 3-1.6 4.2 3 1.9 6 3.7 9.1 5.4.8-1.9 1.4-3.6 2-5.4z"/><path fill="#45545F" d="M43.6 219.8h16.1L72 187.2l-14.9 5.9-2.1.8-.1.1zm14.3 5.3h1.6l-15.9-.9c2.7 2.3 5.4 4.6 8.3 6.7l4.1.3 1.9-6.1z"/><path fill="#37444E" d="M43.6 224.2l15.9.9.2-5.3H43.6z"/><path fill="#76797B" d="M60.4 231.4c1.3-3.5-3.3-3.7-3.3-3.7l-1 3.4-.7 2.2c1.1.8 2.2 1.5 3.4 2.2.4-1 1-2.5 1.6-4.1z"/><path fill="#29363E" d="M56 231.2l-4.1-.3c1.1.8 2.3 1.7 3.4 2.5l.7-2.2z"/><path fill="#3C2517" d="M74.1 101.8s3.5 6.4 3.9 6.1v-.1c0-1.2 1.1-9.1 1.1-9.1s.2-11.5 0-13.7c-.2-2.2 6.4-10.8 6.4-10.8l-1.3 5c2-2.2 5-10.3 5-10.3-.2 4.1-1.5 10.4-1.5 10.4 5-6.2 3.8-21.6 3.8-24.4 0-2.9 12.2-7.8 17.7-4.9 5.6 2.9 19 3.5 19 3.5V8.4h-.4c-15.8.1-19 3.8-19 3.8s-8.6 2.2-14 4.8-6.1 5-14 12.9-5.3 10.8-7.9 15.3c-2.6 4.6-3.1 9.6-5.7 13.2-2.6 3.6-1.5 9.8-1.5 9.8-2.4 7.2 0 25.1 0 25.1l4.2 3.8 2.4 2.2 1.8 2.5z"/></svg>