<svg xmlns="http://www.w3.org/2000/svg" width="256" height="256"><circle fill="#B1B3B5" cx="128" cy="128" r="128"/><path fill="#C08C76" d="M166 160.5c0-.1 0-.2-.1-.4-.7.6-3 2.7-4.5 4-1.9 1.6-6.5 6.9-7.9 8.9-1.4 2.1-11 5.3-14.1 5.8-2.4.5-8.5.8-11 1v41.1h10.3c18.5 0 33.1-8.9 36.4-16.6 3.3-7.7 4.7-15.3-1.5-28.7-.8-.7-1.6-1.4-2.5-2.3-2.6-2.6-4.2-7-5.2-12.1l-.6.9.7-1.6z"/><path fill="#9C8F6E" d="M181.3 142.2v.3c.1-.1.1-.2 0-.3zm0 0v-2 2zM127.5 8.4h.5-.5zm65.9 46.3c-1.8.4-3.2-.6-4.4-2.4.1 1 .2 2.1.4 3.2 1.8-.2 4-.8 4-.8zm-22.6-23.2c3.6 1.4 9.1 3.8 12.9 7.2-2.2-5.2-13.2-15-17.7-18.1-1.9-1.3-4.2-2.3-6.5-3.3 5.3 3.7 8.9 10 11.3 14.2zm26.4 47.8c-.6-5.1-.6-12-2.2-15.3-1.3-2.7-3.6-5.5-5.5-7.4.9 8.1 2.2 17.1 6.1 21.5.6.4 1.1.8 1.6 1.2zM129.8 8.5c-.5 0-.9 0-1.3-.1v.3c.4-.1.8-.2 1.3-.2zm22.9 5.5c-.8-.5-1.5-1-2.2-1.5-2.5-2.1-9.7-3.1-15.4-3.6 2.4.6 5.2 2 8.1 4.6 0 0 4.2-1 9.5.5z"/><path fill="#9C8F6E" d="M195.6 78.1c-1.7-1.3-3.8-2.9-5.4-4.6 1.6 3.2 3.2 7.8 2.6 12.5-.6 4.3-2.2 8.3-3.5 12.2 1 3.4.8 7.6.8 12.4 0 6.7-5.3 9.9-6.2 13.7-.3 1.1-.9 2.2-1.8 3.3-.4 2.2-1.1 4.3-2.3 5.5 0 0-.1-1.4-.3-3.4-.6.4-1.3.6-2 .8-.4.8-1 1.7-1.7 2.2-.5 2.9-1.4 7.5-2.6 11.9-.5 1.9-1.3 8.2-2.3 9.6-.4.5-1.2 1.8-2.1 3.2 1.6-1.5 4.3-4.6 5.2-8.5.8-3.7 5.9-10.7 9.5-15.2-1.4 2.5-1.9 4.9-2.1 6.5.8-3.9 5.7-3.4 8.6-7.1 3.4-4.3.9-16.1 1.5-21.4s7.1-8.2 7.4-14.2c.2-4-1.9-10.9-3.3-15.1C197 84 199 85 199 85c-.9-.8-1.4-2.8-1.7-5.4-.7-.4-1.2-.9-1.7-1.5z"/><path fill="#C08C76" d="M190 110.6c0-4.8.2-9-.8-12.4-1.2 3.6-2.1 7-1.6 10.6 0 0-2.6-5.6-2.6-9.9-.4.3-.7.5-.7.5v1.6h-2.1v5.6l-1.5-2.2c0 .3-.1.6-.1.9.2 1.4.4 3.7.3 5.5.5 2.2 1.1 4.2 1.8 5.8 0 0 .4 5.9-.5 10.9.9-1 1.5-2.1 1.8-3.3.8-3.7 6-6.9 6-13.6zm-12.3 18.8c.1.3 0 .7-.2 1.1.7-.2 1.4-.5 2-.8-.2-2.3-.5-5.5-1-8.7-.5 3.9-.9 7.9-.8 8.4z"/><path fill="#D7A990" d="M128.5 151.1v8.8c2.7-.1 9.8-.6 12.1-2.1 0 0-2.8 3.8-2.2 5.4s19.8-7 11.1-15.6c-8.6-8.6-13-9.3-15.1-9.6-1.5-.2-4.4-.6-5.9-.8v13.9zm10.6-117.9c.1.3.1.5.2.8l2.1-1.4-2.3.6z"/><path fill="#D7A990" d="M128.5 36.2v96.4c1.5.2 4.2.5 6.5-.2 0 0 12 2.9 15.8 7.3 3.7 4.5 4.3 10.5 7.7 12.1 3.4 1.6 9.3-8.6 10.5-12.1.9-2.5 4.4-6.7 6.2-8.9.4-1.5 1.1-3.4 1.2-4.5.1-1 .7-5.7 1.3-10.7-.4-2.1-.8-4-1.3-5.3-2.2-6.2-2.6-17.2-1.4-21.8.3-1.2.8-2.9 1.3-4.7-.6-2.5-1.3-4.6-2.1-6-2.3-4.2-1.7-4.6-1.3-6.2-3.5-2.5-6.1-7.5-5.6-13 .1-1 .2-2.2.3-3.4-1.6-4.9-3.1-11.5-3.1-11.5l-1.4 1.4s-.2-.5-.6-1.2c.1.5 0 .9-.1 1.2-.6 1-2.2 1.7-4.2 2.3-3.3 4-7.9 9.8-6 14.3 0 0-5.9-4.2-2.5-8 1.1-1.3 2.7-3 4.3-5-2.9.9-5.7 1.9-7 3.5-.4.7-.6 1.2-.6 1.2.1-.4.3-.8.6-1.2 1-1.7 3-4.9 5.9-6.1 4-1.8 5.6-6.7 2.5-8.9-.6-.5-1.6-1.3-2.7-2.3-1.9-.2-3.8-.2-5-.3.7 2 1.3 4.1 1.5 6.1 0 0-1.3-2.9-3.2-6.4-1.2 0-4 .5-6.3 1.1 1.1 5.8 1.5 11.8-1 14.9 0 0-.1-7.4-.9-14.4-1 .2-1.7.4-1.7.4l1.6-1.1c-.1-.5-.1-1-.2-1.5l-8.9 2.3v.2zm20.1 43.4c6.8-1 14.3-1.7 19.3.4l3.7 2.6h-2.1l2.1 2.2h-3.9s-6-2.2-10.9-1.4c-4.9.7-18.1 4.9-18.5-3.8.1 0 3.5 1 10.3 0zm31.9 25.7c0-.3.1-.6.1-.9l-.3-.4s.1.5.2 1.3z"/><path fill="#9C8F6E" d="M156.9 83.4c4.9-.7 10.9 1.4 10.9 1.4h3.9l-2.1-2.2h2.1L168 80c-5.1-2.1-12.5-1.4-19.3-.4-6.8 1-10.2 0-10.2 0 .2 8.7 13.5 4.5 18.4 3.8z"/><path fill="#B28D79" d="M175.1 133.1c-.4 0-.2-1 .2-2.3-1.9 2.1-5.3 6.3-6.2 8.9-1.2 3.5-7.1 13.7-10.5 12.1-3.4-1.6-4-7.7-7.7-12.1-3.7-4.5-15.8-7.3-15.8-7.3-2.3.7-5.1.4-6.5.2v4.7c1.5.2 4.4.6 5.9.8 2.2.3 6.5 1 15.1 9.6s-10.5 17.2-11.1 15.6 2.2-5.4 2.2-5.4c-2.2 1.5-9.4 2-12.1 2.1v13.5l1.6-.7v1.1s2.5-2.1 3.2-3c.8-1 0 3 0 3l3.1-.9s2.3-1.4 3.1-2.2.9 2.2.9 2.2 2.8-1.7 3.6-2.6 0 2.6 0 2.6l2.3-3.4s-.3 2.1-.9 3.2c-.6 1.1 2.5-1.9 2.5-1.9l4.5-4c1.1-1 1.6-1.4 1.9-1.4.3-.6.6-1 .6-1.2.2-.5.6 1.9.6 1.9l1.1-2.4 1.2-.6 1.5.6c4-3.8 13.9-19.2 14-19.3 1.2-4.4 2.1-8.9 2.6-11.9-.4.3-.7.5-.9.5z"/><path fill="#80775A" d="M173.2 144.6c-.1.1-10 15.5-14 19.3l-1.5-.6-1.2.6-1.1 2.4s-.5-2.4-.6-1.9c0 .1-.3.6-.6 1.2-.2 0-.8.4-1.9 1.4l-4.5 4s-3.1 3-2.5 1.9c.6-1.1.9-3.2.9-3.2l-2.3 3.4s.8-3.6 0-2.6-3.6 2.6-3.6 2.6-.2-3-.9-2.2-3.1 2.2-3.1 2.2l-3.1.9s.8-4 0-3-3.2 3-3.2 3v-1.1l-1.6.7v6.4c2.4-.1 8.5-.5 11-1 3.1-.6 12.7-3.8 14.1-5.8 1.4-2.1 6-7.3 7.9-8.9 1.6-1.4 3.9-3.4 4.5-4l.2-.2-.1.5-.4 1.8s.2-.4.6-.9c.6-1 1.6-2.6 2.6-4 .9-1.4 1.7-2.6 2.1-3.2 1.1-1.5 1.9-7.8 2.3-9.7z"/><path fill="#605942" d="M173.8 55.3c-1.5 5.6-2.4 11.4 0 12.8 1.3.7 2.8 1.2 4.4 1.6 0-.7-.1-1.5-.2-2.1-.7-4-2.7-8.9-4.2-12.3zm6.7 50c-.1-.8-.2-1.4-.2-1.4l.3.4 1.5 2.2V101h2.1v-1.6s.3-.2.7-.5c0-1.3.2-2.5.8-3.3 2.6-3.6 1.4-6.3-.3-10.6S181 74.2 181 74.2s-3.2 22.5-.3 36.5c.2-1.7 0-3.9-.2-5.4zm-34.6-71c-3.1-5.9-7.8-13.6-10.7-13.7 0 0 2.3 5.9 3.9 12.6l2.3-.6-2.1 1.4c.1.4.2.9.3 1.3 2.3-.5 5-1 6.3-1zm-8.4-.7c-.7-5-1.8-9.4-3.5-9.9 0 0-3.2-1.2-5.4 4.3v7.9l8.9-2.3zm.2 2.2c0-.2 0-.5-.1-.7l-1.6 1.1s.7-.2 1.7-.4zm26.8 7.8s1.6 6.7 3.1 11.5c.6-6 1.5-13 1.2-14.4-.3-1.7-8.6-6.8-8.6-6.8s1.1 3.4.9 6.9c.7 1.2 1.2 2.2 1.4 3.1.4.7.6 1.2.6 1.2l1.4-1.5zm9.8 34.1c.8 1.4 1.4 3.5 2.1 6 .8-3.2 1.6-7 1.8-10.6-1.3.1-2.5 0-3.4-.5-.6-.3-1.2-.6-1.8-1.1-.5 1.6-1 2 1.3 6.2zm-32-53s3.3 4.5 5.3 9.9c1.2.1 3.1 0 5 .3-4.1-3.8-10.3-10.2-10.3-10.2zm4.9-5.5c-3.1 0-.6 6.4 1.9 8.3 1.4 1 5.8 5.3 9.2 9.4-.1-.7-.4-1.4-.7-2-3.6-6.7-7.3-15.7-10.4-15.7zm28 111.6c-.4 1.3-.6 2.3-.2 2.3.2 0 .5-.1.8-.4.6-.5 1.3-1.4 1.7-2.2.2-.4.3-.8.2-1.1-.1-.5.3-4.5.8-8.4-.2-1.9-.5-3.7-.8-5.5-.6 5-1.2 9.7-1.3 10.7-.1 1.2-.7 3.1-1.2 4.6z"/><path fill="#ACA084" d="M197.2 79.6c.5.4 1.1.7 1.8.9 0 0-.7-.5-1.8-1.2-.5-.3-1-.7-1.6-1.2.5.6 1 1.1 1.6 1.5z"/><path fill="#ACA084" d="M172.9 34.9c2.2 2.9 16.7 13.4 14.5 25.2l-1.2 8s.6-19.2-8.3-24.6c0 0-2.4 5.8-4 11.8 1.5 3.3 3.5 8.3 4.2 12.2.1.7.2 1.4.2 2.1 4.5 1 9.4.6 9.4.6s-5.1 2.5-9.4 2.7c-.2 3.6-1 7.4-1.8 10.6-.5 1.8-.9 3.5-1.3 4.7-1.3 4.6-.8 15.6 1.4 21.8.5 1.4.9 3.2 1.3 5.3.3 1.7.6 3.6.8 5.5.4 3.2.8 6.4 1 8.7.2 2.1.3 3.4.3 3.4 1.1-1.3 1.8-3.3 2.3-5.5 1-5 .5-10.9.5-10.9-.8-1.7-1.4-3.7-1.8-5.8-2.9-14 .3-36.5.3-36.5s2.7 6.5 4.4 10.8c1.7 4.3 2.9 7 .3 10.6-.6.8-.8 2-.8 3.3.1 4.2 2.6 9.9 2.6 9.9-.5-3.5.4-7 1.6-10.6 1.3-3.9 3-7.8 3.5-12.2.6-4.6-1-9.3-2.6-12.5 1.6 1.6 3.6 3.3 5.4 4.6-3.9-4.5-5.2-13.5-6.1-21.5 0-.4-.1-.7-.1-1.1-.1-1.1-.2-2.2-.4-3.2-.4-3-.7-5.7-1.3-7.7-.6-2.2-2.1-4.2-4-5.9-3.8-3.4-9.3-5.8-12.9-7.2.7 1.4 1.4 2.7 2 3.4z"/><path fill="#CCC1A8" d="M128.5 9v19c2.3-5.5 5.4-4.3 5.4-4.3 1.7.5 2.8 4.9 3.5 9.9.1.5.1 1 .2 1.5 0 .2.1.4.1.7.8 7 .9 14.4.9 14.4 2.4-3.1 2.1-9.1 1-14.9-.1-.5-.2-.9-.3-1.3-.1-.3-.1-.6-.2-.8-1.5-6.7-3.9-12.6-3.9-12.6 2.9.1 7.6 7.9 10.7 13.7 1.9 3.6 3.2 6.4 3.2 6.4-.2-2-.8-4.1-1.5-6.1-2-5.4-5.3-9.9-5.3-9.9s6.2 6.4 10.3 10.2c1.1 1 2 1.8 2.7 2.3 3.1 2.2 1.5 7.2-2.5 8.9-2.8 1.3-4.9 4.4-5.9 6.1 1.3-1.6 4.1-2.6 7-3.5-1.5 2-3.1 3.8-4.3 5-3.4 3.8 2.5 8 2.5 8-1.9-4.4 2.7-10.3 6-14.3 2-.6 3.6-1.4 4.2-2.3.2-.3.2-.7.1-1.2-.1-.8-.6-1.9-1.4-3.1.1-3.4-.9-6.9-.9-6.9s8.3 5.1 8.6 6.8c.3 1.4-.6 8.4-1.2 14.4-.1 1.2-.2 2.3-.3 3.4-.5 5.5 2.1 10.5 5.6 13 .6.4 1.2.8 1.8 1.1 1 .4 2.2.5 3.4.5 4.3-.2 9.4-2.7 9.4-2.7s-4.9.3-9.4-.6c-1.6-.3-3.1-.9-4.4-1.6-2.4-1.4-1.5-7.2 0-12.8 1.6-6 4-11.8 4-11.8 9 5.4 8.3 24.6 8.3 24.6l1.2-8c2.2-11.8-12.4-22.4-14.5-25.2-.5-.7-1.2-1.9-2.1-3.4-2.4-4.2-6-10.5-11.4-14.2-.3-.2-.5-.4-.8-.5-2-1.3-4.1-2.1-6-2.7-5.3-1.5-9.5-.5-9.5-.5-2.9-2.7-5.7-4-8.1-4.6-2.1-.5-3.9-.5-5.3-.4-.5.1-.9.1-1.3.2V9zm20.6 18.5c-2.5-1.9-4.9-8.3-1.9-8.3 3.1 0 6.8 8.9 10.3 15.6.3.7.6 1.3.7 2-3.4-4-7.8-8.2-9.1-9.3z"/><path fill="#CCC1A8" d="M146.9 52.2c-.3.4-.5.8-.6 1.2 0 0 .2-.5.6-1.2z"/><path fill="#458CAD" d="M175.2 204.5c-3.3 7.7-18 16.6-36.4 16.6h-10.3v8.9c8.5-.1 33.9-.9 46.8-9.9 0 0 1.3-4.4 4-3.5.7-.9 1.4-1.8 1.9-2.7 8.4-15.2 5.5-24.4 4.5-31.1l-11.9-7c6.1 13.3 4.7 21 1.4 28.7z"/><path fill="#4FA0C6" d="M175.3 220.1c-12.9 9-38.3 9.8-46.8 9.9v26c23.7-.1 45.9-6.6 64.9-18-4.7-6.9-10.7-13.3-18.1-17.9zm5.9-6.2c-.5 1-1.2 1.9-1.9 2.7l.6.3c1.6 1 9.2 9 16.6 19.2 11.8-7.5 22.2-16.8 31-27.6-13.6-8.7-41.8-25.8-41.8-25.8 1.1 6.8 3.9 16-4.5 31.2z"/><path fill="#145188" d="M179.9 216.9l-.6-.3c-2.7-.9-4 3.5-4 3.5 7.4 4.5 13.4 11 18.1 17.9 1-.6 2.1-1.2 3.1-1.9-7.3-10.2-15-18.2-16.6-19.2z"/><path fill="#B17D6B" d="M80.8 204.5c3.3 7.7 18 16.6 36.4 16.6h11.3v-41s-9-.4-12-1c-3.1-.6-12.7-3.8-14.1-5.8-1.4-2.1-6-7.3-7.9-8.9-1.6-1.4-3.9-3.4-4.5-4 0 .1 0 .2-.1.4l.4 1.8s-.2-.4-.6-.9c-.9 5.1-2.5 9.5-5.2 12.1-.8.8-1.7 1.6-2.5 2.3-5.9 13-4.5 20.7-1.2 28.4z"/><path fill="#80775A" d="M96.6 17.2c-2.3 1-4.6 2-6.5 3.3-4.5 3.1-15.5 12.9-17.7 18.1 3.8-3.4 9.3-5.8 12.9-7.2 2.3-4.1 5.9-10.4 11.3-14.2zm-34 37.5s2.2.6 4.1.8c.1-1.1.2-2.2.4-3.2-1.3 1.8-2.7 2.8-4.5 2.4zm50.2-41.2c2.9-2.7 5.7-4 8.1-4.6-5.7.5-12.9 1.6-15.4 3.6-.7.6-1.4 1.1-2.2 1.5 5.3-1.5 9.5-.5 9.5-.5zm-30 131.1c-1.2-4.4-2.1-8.9-2.6-11.9-.6-.5-1.3-1.4-1.7-2.2-.7-.2-1.4-.5-2-.8-.2 2.1-.3 3.4-.3 3.4-1.1-1.3-1.8-3.3-2.3-5.5-.9-1-1.5-2.1-1.8-3.3-.9-3.8-6.2-7-6.2-13.7 0-4.8-.2-9 .8-12.4-1.3-3.9-3-7.8-3.5-12.2-.6-4.6 1-9.3 2.6-12.5-1.6 1.6-3.6 3.3-5.4 4.6-.5.6-1.1 1.1-1.7 1.5-.3 2.6-.7 4.7-1.7 5.4 0 0 1.9-1 3.3-2.7-1.4 4.2-3.5 11.1-3.3 15.1.3 6.1 6.8 9 7.4 14.2.6 5.2-1.9 17.1 1.5 21.4 2.9 3.7 7.9 3.3 8.6 7.1-.1-1.7-.6-4-2.1-6.5 3.6 4.5 8.7 11.5 9.5 15.2.8 3.9 3.5 6.9 5.2 8.5-.9-1.4-1.7-2.6-2.1-3.2-1-1.3-1.8-7.6-2.2-9.5zM66.5 56.5c-1.9 1.9-4.2 4.7-5.5 7.4-1.6 3.3-1.6 10.2-2.2 15.3.5-.3 1-.7 1.6-1.2 3.9-4.4 5.2-13.4 6.1-21.5z"/><path fill="#80775A" d="M74.7 142.2c.1-.8.1-1.4 0-2v2zm0 0v.3c-.1 0-.1-.1 0-.3zM128.5 9v-.6h-1c-.4 0-.8 0-1.3.1 1.5.2 2.3.5 2.3.5z"/><path fill="#B17D6B" d="M73.4 116.6c.8-1.7 1.4-3.7 1.8-5.8-.1-1.8.1-4 .3-5.5 0-.3-.1-.6-.1-.9l-1.5 2.2V101h-2.1v-1.6s-.3-.2-.7-.5c-.1 4.2-2.6 9.9-2.6 9.9.5-3.5-.4-7-1.6-10.6-1 3.4-.8 7.6-.8 12.4 0 6.7 5.3 9.9 6.2 13.7.3 1.1.9 2.2 1.8 3.3-1.1-5-.7-11-.7-11zm4.9 12.8c.1-.5-.3-4.5-.8-8.4-.4 3.2-.8 6.4-1 8.7.6.4 1.3.6 2 .8-.2-.4-.3-.8-.2-1.1z"/><path fill="#C08C76" d="M128.5 151.1v-14s-4.8.6-6.9 1c-2.2.3-6.5 1-15.1 9.6s10.5 17.2 11.1 15.6c.6-1.6-2.2-5.4-2.2-5.4 2.8 1.9 13.1 2.2 13.1 2.2v-9zM116.7 34c.1-.3.1-.6.2-.8l-2.3-.6 2.1 1.4zm-41.3 70.4c0 .3.1.6.1.9.1-.8.2-1.4.2-1.4l-.3.5z"/><path fill="#C08C76" d="M80.8 130.8c1.9 2.1 5.3 6.3 6.2 8.9 1.2 3.5 7.1 13.7 10.5 12.1s4-7.7 7.7-12.1c3.7-4.5 15.8-7.3 15.8-7.3 3.4 1 7.6 0 7.6 0V36.1l-10-2.6c-.1.5-.1 1-.2 1.5l1.6 1.1s-.7-.2-1.7-.4c-.8 7-.9 14.4-.9 14.4-2.4-3.1-2.1-9.1-1-14.9-2.3-.5-5.1-1.1-6.3-1.1-1.9 3.6-3.2 6.4-3.2 6.4.2-2 .8-4.1 1.5-6.1-1.2.1-3.1 0-5 .3-1.1 1-2 1.8-2.7 2.3-3.1 2.2-1.5 7.2 2.5 8.9 2.8 1.3 4.9 4.4 5.9 6.1.3.4.5.8.6 1.2 0 0-.2-.5-.6-1.2-1.3-1.6-4.1-2.6-7-3.5 1.5 2 3.1 3.8 4.3 5 3.4 3.8-2.5 8-2.5 8 1.9-4.4-2.7-10.3-6-14.3-2-.6-3.6-1.4-4.2-2.3-.2-.3-.2-.7-.1-1.2-.4.7-.6 1.2-.6 1.2l-1.4-1.4S90 50.2 88.5 55c.1 1.2.2 2.3.3 3.4.5 5.5-2.1 10.5-5.6 13 .4 1.6 1 2-1.3 6.2-.8 1.4-1.4 3.5-2.1 6 .5 1.8.9 3.5 1.3 4.7 1.3 4.6.8 15.6-1.4 21.8-.5 1.4-.9 3.2-1.3 5.3.6 5 1.2 9.7 1.3 10.7 0 1.3.6 3.2 1.1 4.7zm3.5-48.2L88 80c5.1-2.1 12.5-1.4 19.3-.4s10.2 0 10.2 0c-.3 8.7-13.6 4.5-18.5 3.8-4.9-.7-10.9 1.4-10.9 1.4h-3.9l2.1-2.2h-2z"/><path fill="#80775A" d="M86.9 84.8h1.4s6-2.2 10.9-1.4c4.9.7 18.1 4.9 18.5-3.8 0 0-3.4 1-10.2 0s-14.4-1.7-19.4.4l-3.7 2.6h2.1l-2.1 2.2h2.5z"/><path fill="#9A7C6A" d="M128.5 160s-10.3-.2-13.1-2.2c0 0 2.8 3.8 2.2 5.4-.6 1.6-19.8-7-11.1-15.6 8.6-8.6 13-9.3 15.1-9.6 2.2-.3 6.9-1 6.9-1v-4.8s-4.2 1-7.6 0c0 0-12 2.9-15.8 7.3-3.7 4.5-4.3 10.5-7.7 12.1s-9.3-8.6-10.5-12.1c-.9-2.5-4.4-6.7-6.2-8.9.4 1.3.6 2.3.2 2.3-.2 0-.5-.1-.8-.4.5 2.9 1.4 7.5 2.6 11.9.1.1 9.9 15.5 14 19.3l1.5-.6 1.2.6 1.1 2.4s.5-2.4.6-1.9c0 .1.3.6.6 1.2.2 0 .8.4 1.9 1.4l4.5 4s3.1 3 2.5 1.9c-.6-1.1-.9-3.2-.9-3.2l2.3 3.4s-.8-3.6 0-2.6 3.6 2.6 3.6 2.6.2-3 .9-2.2c.8.8 3.1 2.2 3.1 2.2l3.1.9s-.8-4 0-3 3.2 3 3.2 3v-1.1l2.6 1.1V160z"/><path fill="#645D46" d="M90 160.5l-.1-.5.2.2c.7.6 3 2.7 4.5 4 1.9 1.6 6.5 6.9 7.9 8.9 1.4 2.1 11 5.3 14.1 5.8 3.1.6 12 1 12 1v.1-6l-2.6-1.1v1.1s-2.5-2.1-3.2-3c-.8-1 0 3 0 3l-3.1-.9s-2.3-1.4-3.1-2.2c-.8-.8-.9 2.2-.9 2.2s-2.8-1.7-3.6-2.6c-.8-1 0 2.6 0 2.6l-2.3-3.4s.3 2.1.9 3.2c.6 1.1-2.5-1.9-2.5-1.9l-4.5-4c-1.1-1-1.6-1.4-1.9-1.4-.3-.6-.6-1-.6-1.2-.2-.5-.6 1.9-.6 1.9l-1.1-2.4-1.2-.6-1.5.6c-4-3.8-13.9-19.2-14-19.3.5 1.9 1.3 8.2 2.3 9.6.4.5 1.2 1.8 2.1 3.2 1 1.5 2 3 2.6 4l.6.9-.4-1.8z"/><path fill="#433F2C" d="M108.8 19.2c-3.1 0-6.8 8.9-10.3 15.6-.3.7-.6 1.3-.7 2 3.4-4.1 7.8-8.3 9.2-9.4 2.4-1.8 4.8-8.2 1.8-8.2zm-37 81.8h2.1v5.6l1.5-2.2.3-.4s-.1.6-.2 1.4c-.2 1.4-.4 3.7-.3 5.5 2.9-14-.3-36.5-.3-36.5s-2.7 6.5-4.4 10.8c-1.7 4.3-2.9 7-.3 10.6.6.8.8 2 .8 3.3.4.3.7.5.7.5v1.4zm21.1-56s.2-.5.6-1.2c.1-.8.6-1.9 1.4-3.1-.1-3.4.9-6.9.9-6.9s-8.3 5.1-8.6 6.8c-.3 1.4.6 8.4 1.2 14.4 1.6-4.9 3.1-11.5 3.1-11.5l1.4 1.5zm23.5-9.6c.1-.5.2-.9.3-1.3l-2.1-1.4 2.3.6c1.5-6.7 3.9-12.6 3.9-12.6-2.9.1-7.6 7.9-10.7 13.7 1.3-.1 4 .4 6.3 1zM82.2 68.1c2.4-1.4 1.5-7.2 0-12.8-1.5 3.3-3.5 8.3-4.2 12.2-.1.7-.2 1.4-.2 2.1 1.6-.3 3.1-.8 4.4-1.5zm.9 3.4c-.6.4-1.2.8-1.8 1.1-1 .4-2.2.5-3.4.5.2 3.6 1 7.4 1.8 10.6.6-2.5 1.3-4.6 2.1-6 2.2-4.2 1.7-4.6 1.3-6.2zm30.6-46.8s-6.2 6.4-10.3 10.2c1.9-.2 3.8-.2 5-.3 2-5.4 5.3-9.9 5.3-9.9zm4.7 10.4c0 .2-.1.4-.1.7 1 .2 1.7.4 1.7.4l-1.6-1.1zm10.1 1.1v-4.8c-2.2-9.3-6.5-7.7-6.5-7.7-1.7.5-2.8 4.9-3.5 9.9l10 2.6zm-47.6 96.9c.4 0 .2-1-.2-2.3-.4-1.5-1.1-3.4-1.2-4.5-.1-1-.7-5.7-1.3-10.7-.3 1.7-.6 3.6-.8 5.5.6 3.9.9 7.9.8 8.4-.1.3 0 .7.2 1.1.4.8 1 1.7 1.7 2.2.3.1.6.3.8.3z"/><path fill="#9C8F6E" d="M60.4 78.1c-.6.4-1.1.8-1.6 1.2-1.1.7-1.8 1.2-1.8 1.2.6-.2 1.2-.5 1.8-.9.6-.4 1.1-.9 1.6-1.5z"/><path fill="#9C8F6E" d="M65.8 73.5c-1.6 3.2-3.2 7.8-2.6 12.5.6 4.3 2.2 8.3 3.5 12.2 1.2 3.6 2.1 7 1.6 10.6 0 0 2.6-5.6 2.6-9.9 0-1.3-.2-2.5-.8-3.3-2.6-3.6-1.4-6.3.3-10.6s4.4-10.8 4.4-10.8 3.2 22.5.3 36.5c-.5 2.2-1.1 4.2-1.8 5.8 0 0-.4 5.9.5 10.9.4 2.2 1.1 4.3 2.3 5.5 0 0 .1-1.4.3-3.4.2-2.3.5-5.5 1-8.7.2-1.9.5-3.7.8-5.5.4-2.1.8-4 1.3-5.3 2.2-6.2 2.6-17.2 1.4-21.8-.3-1.2-.8-2.9-1.3-4.7-.8-3.2-1.6-7-1.8-10.6-4.3-.2-9.4-2.7-9.4-2.7s4.9.3 9.4-.6c0-.7.1-1.5.2-2.1.7-3.9 2.7-8.9 4.2-12.2-1.6-6-4-11.8-4-11.8-9 5.4-8.3 24.6-8.3 24.6l-1.2-8C66.4 48.3 81 37.8 83.1 34.9c.5-.7 1.2-1.9 2.1-3.4-3.6 1.4-9.1 3.8-12.9 7.2-1.9 1.7-3.4 3.7-4 5.9-.5 2-.9 4.7-1.3 7.7-.1 1-.2 2.1-.4 3.2 0 .4-.1.7-.1 1.1-.9 8.1-2.2 17.1-6.1 21.5 1.8-1.3 3.8-2.9 5.4-4.6z"/><path fill="#ACA084" d="M85.2 31.5c-.8 1.5-1.5 2.7-2.1 3.4-2.1 2.9-16.7 13.4-14.5 25.2l1.2 8s-.6-19.2 8.3-24.6c0 0 2.4 5.8 4 11.8 1.5 5.6 2.4 11.4 0 12.8-1.3.7-2.8 1.2-4.4 1.6-4.5 1-9.4.6-9.4.6s5.1 2.5 9.4 2.7c1.3.1 2.5 0 3.4-.5.6-.3 1.2-.6 1.8-1.1 3.5-2.5 6.1-7.5 5.6-13-.1-1-.2-2.2-.3-3.4-.6-6-1.5-13-1.2-14.4.3-1.7 8.6-6.8 8.6-6.8s-1.1 3.4-.9 6.9c-.7 1.2-1.2 2.2-1.4 3.1-.1.5 0 .9.1 1.2.6 1 2.2 1.7 4.2 2.3 3.3 4 7.9 9.8 6 14.3 0 0 5.9-4.2 2.5-8-1.1-1.3-2.7-3-4.3-5 2.9.9 5.7 1.9 7 3.5-1-1.7-3-4.9-5.9-6.1-4-1.8-5.6-6.7-2.5-8.9.6-.5 1.6-1.3 2.7-2.3 4.1-3.8 10.3-10.2 10.3-10.2s-3.3 4.5-5.3 9.9c-.7 2-1.3 4.1-1.5 6.1 0 0 1.3-2.9 3.2-6.4 3.1-5.9 7.8-13.6 10.7-13.7 0 0-2.3 5.9-3.9 12.6-.1.3-.1.5-.2.8-.1.4-.2.9-.3 1.3-1.1 5.8-1.5 11.8 1 14.9 0 0 .1-7.4.9-14.4 0-.2 0-.5.1-.7.1-.5.1-1 .2-1.5.7-5 1.8-9.4 3.5-9.9 0 0 4.3-1.6 6.5 7.7V9s-.9-.4-2.3-.6c-1.3-.2-3.1-.2-5.3.4-2.4.6-5.2 2-8.1 4.6 0 0-4.2-1-9.5.5-1.9.5-3.9 1.4-6 2.7-.3.2-.5.4-.8.5-5.1 3.9-8.7 10.2-11.1 14.4zm21.7-4c-1.4 1-5.8 5.3-9.2 9.4.1-.7.4-1.4.7-2 3.5-6.7 7.2-15.6 10.3-15.6s.7 6.3-1.8 8.2z"/><path fill="#ACA084" d="M109.1 52.2c.4.7.6 1.2.6 1.2-.1-.4-.3-.8-.6-1.2z"/><path fill="#377590" d="M74.8 213.9c.5 1 1.2 1.9 1.9 2.7 2.7-.9 4 3.5 4 3.5 13.5 9.4 40.6 9.9 47.9 9.9v-8.9h-11.3c-18.5 0-33.1-8.9-36.4-16.6-3.3-7.7-4.7-15.3 1.5-28.7l-11.9 7c-1.3 6.6-4.1 15.9 4.3 31.1z"/><path fill="#458CAD" d="M128.5 237.3V230c-7.3 0-34.4-.5-47.9-9.9-7.4 4.5-13.4 11-18.1 17.9 19.2 11.4 41.5 18 65.5 18h.5v-18.7zm-52.4-20.4l.6-.3c-.7-.9-1.4-1.8-1.9-2.7-8.4-15.2-5.5-24.4-4.5-31.1 0 0-28.2 17.1-41.8 25.8 8.7 10.8 19.2 20.1 31 27.6 7.3-10.3 15-18.3 16.6-19.3z"/><path fill="#0E4273" d="M80.7 220.1s-1.3-4.5-4-3.5l-.6.3c-1.6 1-9.2 9-16.6 19.2 1 .6 2 1.3 3.1 1.9 4.7-6.9 10.7-13.3 18.1-17.9z"/></svg>