<svg xmlns="http://www.w3.org/2000/svg" width="256" height="256"><circle fill="#B1B3B5" cx="128" cy="128" r="128"/><path fill="#775B4B" d="M176.1 150.7c-.3 1.1-.8 2.5-1.5 4 0 2.8-.4 5.3-1.3 6.5-.9 1.2-2.3 2.3-3.7 2.5-2.3 3.4-5.4 7.2-9.5 11.1-.4.6-.9 1.2-1.6 1.5-1.1 1-2.2 2-3.4 2.9l-.4.4c-.4.3-.7.6-1.1.9l-.7.5c-1.9 1.5-3.8 2.9-6 4.4l2.1 20.9 12.9 9.1s21.4 5.5 42.1 15.4c18.8-13.9 33.7-32.9 42.6-54.9-7.1-2.8-15.9-6.4-25.9-11.8-16.1-8.5-36-12.1-44.6-13.4z"/><path fill="#08233E" d="M173.8 135.9s-1.8 4.7-.5 8.5c.2.6.4 1.5.6 2.4.8-.8 1.4-2 1.8-3.7l-1.9-7.2zm-3.8-9.5c-.2-.9-.3-1.9 0-2.6.1-.2.2-.5.3-.7l-.2-.6c-4.1 10.5-12 20.6-19.5 30-9.3 11.5-22.7 9.4-22.7 9.4v2s21.8 2 38.3-24.7v-.6c.1-7.9 2.6-11.1 3.8-12.2zm4.3 23c.2 1.7.3 3.6.3 5.3.7-1.5 1.1-2.9 1.5-4 .7-2.3.8-3.7.8-3.7l-.2-.7c-.7 1.5-1.6 2.5-2.4 3.1zm-19.7 30.3l-1.1.9c.4-.3.8-.6 1.1-.9z"/><path fill="#08233E" d="M145.1 170.6c-4.2-5.3-7.2-7-11.5-4.3s.6 10.7 6.4 12.6c5.7 1.9 14.9.5 15.1.5 1.2-1 2.3-2 3.4-2.9 0 0-.1 0-.1.1-4.5 2.1-9.2-.8-13.3-6zm-7.2 3.5c-1.6 0-3-1.3-3-3s1.3-3 3-3c1.6 0 3 1.3 3 3s-1.4 3-3 3zm-9.9 47.4V256c25.2 0 48.7-7.3 68.5-19.8-19.4-7.1-39.6-13.1-52.5-14.4-16-1.6-16-.3-16-.3zm20.9-15l-2.1-20.9c2.2-1.5 4.1-3 6-4.4l-8.4 2.4s2.2 1.8 3 9.6c.8 7.8 1.1 17.6 3.8 20.4 2.7 2.9 18.8 8 32.7 12.5 4.3 1.4 10.6 3.6 17.5 6.8.8-.6 1.6-1.2 2.5-1.8-20.8-9.9-42.1-15.4-42.1-15.4l-12.9-9.2zm15.7-48.9c-2.1-8.8-5.1-7.3-6.4-6.5-1.3.8.3 7.2 1.4 11.2.9 3.3 2.5 9.4.5 12.6 4.1-3.9 7.2-7.7 9.5-11.1-1.9.2-3.9-1.2-5-6.2z"/><path fill="#9A8D68" d="M173.8 135.9l-1.2-4.5c-1.8 1.2-2.8 4.2-2.8 7.3v1.7c.7-.9 1.4-1.8 1.8-2.6 0 0-.9 4.3 0 7.5.2.6.3 1.4.5 2.3h.1c.6 0 1.2-.3 1.7-.8-.2-.9-.4-1.7-.6-2.4-1.2-3.9.5-8.5.5-8.5z"/><path fill="#9A8D68" d="M151.3 213.5c-2.7-2.9-3-12.6-3.8-20.4-.8-7.8-3-9.6-3-9.6l8.4-2.4.7-.5 1.1-.9.4-.4c-.2 0-9.4 1.4-15.1-.5-5.7-1.9-10.7-9.9-6.4-12.6s7.3-1 11.5 4.3 8.8 8.1 13.3 5.9c0 0 .1 0 .1-.1.7-.4 1.2-.9 1.6-1.5 2-3.2.5-9.3-.5-12.6-1.1-4-2.7-10.4-1.4-11.2 1.3-.8 4.3-2.2 6.4 6.5 1.2 5 3.2 6.3 5 6.1 1.5-.2 2.8-1.3 3.7-2.5.9-1.2 1.2-3.7 1.3-6.5 0-1.7-.1-3.6-.3-5.3-.7.5-1.3.7-1.8.7.2 1.6.3 3.3.4 4.8.2.4.4.8.4 1.3 0 .6-.2 1.1-.5 1.5 0 .2-.1.4-.1.6-.6 2.8-3.8 4.6-5 2.1-1.3-2.5-1.5-10.1-6-11.6 0 0 2.5-2.3 5.1-5-.3-1.3-.5-2.8-.5-4.7-16.5 26.7-38.3 24.7-38.3 24.7V177s13.6 3 16 12.3 2.3 28.7 2.3 28.7-8.8-2-18.3-2v5.3s0-1.3 16 .3c12.9 1.3 33.2 7.3 52.5 14.4 1.7-1.1 3.4-2.2 5.1-3.4-6.9-3.2-13.2-5.4-17.5-6.8-14-4.3-30.1-9.4-32.8-12.3zm5.1-59.2c-.3.4.4 6.6 1.5 9.6s3 8.4-.3 10.2c-3.3 1.8-7.5-.3-10.4-4.2-2.9-3.8-7.2-6.1-7.2-6.1s11.5-2.9 16.4-9.5z"/><path fill="#3A4261" d="M159.5 16.1c4.6 2.4 9 5.3 12.4 9.1l.1.1-3.1-18.6-3.9-1.2-5.5 10.6zm16.2 14.4c.4.7.7 1.3 1.1 2l3.4 4.9-.9-26.8c-.5-.2-.9-.4-1.4-.6l-5.3 16c1.2 1.5 2.3 2.9 3.1 4.5zm8.8 4.6c6.2-2 13.8-.3 13.8-.3 2.2-3.1 5-6 7.6-8.4-2.2-1.7-4.5-3.3-6.8-4.9-4.5 1.7-8.4 4.2-11 6.6-2 1.9-3.1 4.3-3.6 7zm-41.5-25c5.2 1.3 11.1 3.2 16.5 6l-3.5-13c-3-.7-6.1-1.2-9.1-1.7l-5.5 8.2c.5.2 1 .4 1.6.5z"/><path fill="#4B547A" d="M165 5.4c-2.9-.9-5.9-1.7-9-2.4l3.5 13L165 5.4zm-18.1-4C143.3.9 139.7.5 136 .3l5.4 9.4 5.5-8.3zm25 23.8c.2.3.5.6.7.8l5.3-16c-3-1.3-6-2.4-9-3.4l3 18.6zm4.9 7.3c6.1 12 6.5 21.9 5.7 28.1.5-1.8 1.1-4.6 1.2-8.9.2-6-.2-11.9.7-16.6.6-2.8 1.6-5.2 3.6-7 2.6-2.4 6.5-4.9 11-6.6-6.2-4.1-12.8-7.8-19.7-10.8l.9 26.8-3.4-5z"/><path fill="#4B547A" d="M141.4 9.6l-2.1-.3c1.2.2 2.4.5 3.6.8-.5-.1-1-.3-1.5-.5zm18.1 6.5z"/><path fill="#151E52" d="M173.8 32.5c5.9 10.5 7.4 23.5 7.3 34.5.3-1 1-3.2 1.4-6.4.7-6.2.4-16.1-5.7-28.1-.3-.7-.7-1.3-1.1-2-.9-1.6-1.9-3.1-3.1-4.5-.2-.3-.5-.6-.7-.8-3.4-3.8-7.8-6.8-12.4-9.1-5.5-2.8-11.4-4.7-16.5-6-1.3-.3-2.5-.6-3.6-.8L128 7.5v2s32.9-.2 45.8 23z"/><path fill="#775B4B" d="M175.7 89c.2.8-.8 5.1-.6 5.5.1.4 0 3.1-.5 2.8-.2 2.8-.5 5.5-.7 8l.2-.2h2.8c0-1.2-.1-2.2-.1-2.7 0-1.3.5-4.6.3-7.2-.1-2 .8-3.4 1.2-5.8l-1.7-2c-.1 0-1.1.8-.9 1.6z"/><path fill="#8C6C5A" d="M131.3 129.8c2.4-1.1 5.4-.1 7.1 1.8 3.3 3 3.5 4 7 5.2 0 0-3 5.5-17.3 5.5v19.6s13.4 2.1 22.7-9.4c7.6-9.4 15.4-19.5 19.5-30 .9-2.3 1.6-4.6 2.2-7l.3-1.5c-.4-1.6-1.3-6.3 1.2-8.8.3-2.5.5-5.2.7-8-.1 0-.1-.1-.2-.3-.6-1.4-.2-5.9 0-8.1.2-2.2 1.1-7.2 1.3-9.9.1-1.2-.4-4.3-1-7.4-5.3-16.3-17.6-36.8-46.7-36.8V131c-.1 0 1.6.3 3.2-1.2zm5-57.3l2.6-.5-1-1.3s7-1.5 9.4-1.8 7-3.4 8.1-4.3c1.1-1 4.3.2 5.6 1 1.3.8 5.7 5.4 5.9 6.1.2.6-1.9-1.3-3.5-1.9s-6.1-1.4-8.9 0-11.3 4.9-14.5 6.9c-3.2 1.9-5.6-1.6-5.6-1.6-.9-1 1.9-2.6 1.9-2.6z"/><path fill="#762A41" d="M145.3 136.8c-3.4-1.2-3.7-2.2-7-5.2-1.7-1.9-4.7-2.9-7.1-1.8-1.6 1.4-3.3 1.1-3.3 1.1v11.3c14.4.1 17.4-5.4 17.4-5.4z"/><path fill="#372B19" d="M140 76.7c3.2-1.9 11.7-5.4 14.5-6.9s7.3-.6 8.9 0 3.7 2.6 3.5 1.9c-.2-.6-4.6-5.3-5.9-6.1-1.3-.8-4.5-1.9-5.6-1-1.1 1-5.7 4-8.1 4.3s-9.4 1.8-9.4 1.8l1 1.3-2.6.5s-2.8 1.6-1.9 2.6c0 0 2.4 3.5 5.6 1.6zm34.7-5.2c.6 3.1 1.1 6.3 1 7.4-.2 2.7-1.1 7.7-1.3 9.9-.2 2.2-.6 6.7 0 8.1.1.2.1.3.2.3.5.3.6-2.3.5-2.8-.2-.5.8-4.7.6-5.5-.2-.8.8-1.6.8-1.6l1.7 2s.1-.2.2-.6c-.4-3.1-1.3-9.7-3.7-17.2z"/><path fill="#40496A" d="M173.8 32.5C160.9 9.3 128 9.5 128 9.5v25.1c29.1 0 41.4 20.5 46.7 36.8 2.4 7.5 3.4 14.1 3.7 17.3.1 1.3.2 2.1.2 2.1s2.4-10.6 2.5-23.9c.1-10.9-1.4-23.9-7.3-34.4z"/><path fill="#3A4261" d="M139.3 9.3l2.1.3L136 .3c-2.6-.2-5.3-.3-8-.3v7.5l11.3 1.8z"/><path fill="#9A8D68" d="M137.9 168.2c-1.6 0-3 1.3-3 3s1.3 3 3 3c1.6 0 3-1.3 3-3s-1.4-3-3-3z"/><path fill="#827958" d="M166.8 143.9c-2.6 2.7-5.1 5-5.1 5 4.5 1.4 4.7 9 6 11.6 1.3 2.5 4.4.8 5-2.1 0-.2.1-.4.1-.6-.5.6-1.2 1-2 1-1.4 0-2.5-1.1-2.5-2.5s1.1-2.5 2.5-2.5c.9 0 1.7.5 2.2 1.2 0-1.5-.2-3.2-.4-4.8h-.1c-1.4 0-4.5-.8-5.7-6.3zm4.9-6.2c-.4.8-1 1.7-1.8 2.6.1 3.2.5 7 2.3 7.2-.2-.9-.3-1.6-.5-2.3-.9-3.1 0-7.5 0-7.5zm-24.5 32.2c2.9 3.8 7.1 6 10.4 4.2 3.3-1.8 1.4-7.3.3-10.2-1.1-3-1.8-9.2-1.5-9.6-4.9 6.6-16.4 9.6-16.4 9.6s4.4 2.2 7.2 6zm7.1-2.9c1.6 0 3 1.3 3 3 0 1.6-1.3 3-3 3-1.6 0-3-1.3-3-3s1.3-3 3-3z"/><path fill="#2D2F6B" d="M154.3 172.9c1.6 0 3-1.3 3-3 0-1.6-1.3-3-3-3-1.6 0-3 1.3-3 3 0 1.6 1.3 3 3 3zm16.5-19.1c-1.4 0-2.5 1.1-2.5 2.5s1.1 2.5 2.5 2.5c.8 0 1.6-.4 2-1 .3-.4.5-.9.5-1.5 0-.5-.1-.9-.4-1.3-.4-.7-1.2-1.2-2.1-1.2z"/><path fill="#8B805E" d="M173.9 105.2c-2.5 2.4-1.6 7.2-1.2 8.8.1.3.1.5.1.5v6.8h-1.2s-.6.5-1.2 1.7c-.1.2-.2.4-.3.7-.3.8-.2 1.8 0 2.6.4-.3.6-.5.6-.5h2.6v5.1h3.5c2.4-3.1.8-9.3.8-9.3l-2.3-.6v-6l2.9.1s-4.2-4.3 0-10H174l-.1.1z"/><path fill="#165B8F" d="M178.2 115.1c7.7-5.7 0-10 0-10-4.2 5.7 0 10 0 10z"/><path fill="#2D2F6B" d="M176.4 138c0 1.9-.2 3.6-.6 5-.4 1.7-1.1 2.9-1.8 3.7-.5.5-1.1.8-1.7.8h-.1c-1.7-.1-2.2-3.9-2.3-7.2v-1.7c0-3.1 1-6.1 2.8-7.3.2-.1.4-.3.6-.3v-5.1h-2.6s-.3.1-.6.5c-1.2 1.1-3.8 4.4-3.8 12.2v.6c0 1.9.2 3.4.5 4.7 1.2 5.4 4.3 6.3 5.7 6.3h.1c.5 0 1.1-.3 1.8-.7.8-.6 1.6-1.6 2.3-3.1.9-1.9 1.6-4.6 1.6-8.3 0-9.1-1.4-7-1.4-7H175c0-.1 1.4 1.1 1.4 6.9z"/><path fill="#827958" d="M146.3 218.2s.1-19.4-2.3-28.7-16-12.3-16-12.3v39c9.5 0 18.3 2 18.3 2z"/><path fill="#60493B" d="M107.1 206.5l2.1-20.9c-2.2-1.5-4.1-3-6-4.4l-.7-.5c-.4-.3-.7-.6-1.1-.9l-.4-.4c-1.2-1-2.3-2-3.4-2.9-.7-.4-1.2-.9-1.6-1.5-4.1-3.9-7.2-7.7-9.5-11.1-1.5-.2-2.8-1.3-3.7-2.5-.9-1.2-1.2-3.7-1.3-6.5-.7-1.5-1.1-2.9-1.5-4-8.7 1.2-28.5 4.9-44.7 13.6-10 5.4-18.8 8.9-25.9 11.8 8.9 22 23.8 41 42.6 54.9 20.8-9.9 42.1-15.4 42.1-15.4l13-9.3z"/><path fill="#00122D" d="M82.2 135.9l-1.9 7.2c.4 1.7 1.1 2.9 1.8 3.7.2-.9.4-1.7.6-2.4 1.2-3.9-.5-8.5-.5-8.5zm33.8 43c5.7-1.9 10.7-9.9 6.4-12.6-4.3-2.7-7.3-1-11.5 4.3s-8.8 8.1-13.3 5.9c0 0-.1 0-.1-.1 1.1 1 2.2 2 3.4 2.9.2.1 9.4 1.5 15.1-.4zm2.1-10.7c1.6 0 3 1.3 3 3s-1.3 3-3 3-3-1.3-3-3 1.4-3 3-3zm-16.7 11.5c.4.3.7.6 1.1.9l-1.1-.9zm3.3 33.8c2.7-2.9 3-12.6 3.8-20.4.8-7.8 3-9.6 3-9.6l-8.4-2.4c1.9 1.5 3.8 2.9 6 4.4l-2.1 20.9-12.9 9.1S72.7 221 52 230.9c.8.6 1.6 1.2 2.5 1.8 6.9-3.2 13.2-5.4 17.5-6.8 13.9-4.4 30-9.5 32.7-12.4zm-8.8-38.6c-2-3.2-.5-9.3.5-12.6 1.1-4 2.7-10.4 1.4-11.2-1.3-.8-4.3-2.2-6.4 6.5-1.2 5-3.2 6.3-5 6.1 2.3 3.5 5.4 7.2 9.5 11.2z"/><path fill="#00122D" d="M105.3 152.5c-7.6-9.4-15.4-19.5-19.5-30l-.2.6c.1.2.2.4.3.7.3.8.2 1.8 0 2.6 1.2 1.1 3.8 4.4 3.8 12.2v.6c16.5 26.7 38.3 24.7 38.3 24.7v-2s-13.4 2.1-22.7-9.4zm6.7 69.3c-12.9 1.3-33.2 7.3-52.5 14.4C79.3 248.7 102.8 256 128 256v-34.5s0-1.3-16 .3zm-30.3-72.4c-.8-.6-1.6-1.6-2.3-3.1l-.2.7s.1 1.3.8 3.7c.3 1.1.8 2.5 1.5 4-.1-1.7 0-3.5.2-5.3z"/><path fill="#827958" d="M82.2 135.9s1.8 4.7.5 8.5c-.2.6-.4 1.5-.6 2.4.5.5 1.1.8 1.7.8h.1c.2-.9.3-1.6.5-2.3.9-3.2 0-7.5 0-7.5.4.8 1 1.7 1.8 2.6v-1.7c0-3.1-1-6.1-2.8-7.3l-1.2 4.5z"/><path fill="#827958" d="M128 221.5v-5.3c-9.5 0-18.3 2-18.3 2s-.1-19.4 2.3-28.7 16-12.3 16-12.3v-13.3s-21.8 2-38.3-24.7c0 1.9-.2 3.4-.5 4.7 2.6 2.7 5.1 5 5.1 5-4.5 1.4-4.7 9-6 11.6-1.3 2.5-4.4.8-5-2.1 0-.2-.1-.4-.1-.6-.3-.4-.5-.9-.5-1.5 0-.5.1-.9.4-1.3 0-1.5.2-3.2.4-4.8-.5 0-1.1-.3-1.8-.7-.2 1.7-.3 3.6-.3 5.3 0 2.8.4 5.3 1.3 6.5.9 1.2 2.3 2.3 3.7 2.5 1.9.2 3.9-1.2 5-6.1 2.1-8.8 5.1-7.3 6.4-6.5 1.3.8-.3 7.2-1.4 11.2-.9 3.3-2.5 9.4-.5 12.6.4.6.9 1.2 1.6 1.5 0 0 .1 0 .1.1 4.5 2.2 9.1-.6 13.3-5.9 4.2-5.3 7.2-7 11.5-4.3s-.6 10.7-6.4 12.6c-5.7 1.9-14.9.5-15.1.5l.4.4 1.1.9.7.5 8.4 2.4s-2.2 1.8-3 9.6c-.8 7.8-1.1 17.6-3.8 20.4-2.7 2.9-18.8 8-32.7 12.5-4.3 1.4-10.6 3.6-17.5 6.8 1.7 1.2 3.3 2.3 5.1 3.4 19.4-7.1 39.6-13.1 52.5-14.4 15.9-1.8 15.9-.5 15.9-.5zm-19.2-51.6c-2.9 3.8-7.1 6-10.4 4.2-3.3-1.8-1.4-7.3-.3-10.2s1.8-9.2 1.5-9.6c4.9 6.6 16.4 9.6 16.4 9.6s-4.4 2.2-7.2 6z"/><path fill="#2B324E" d="M84.1 25.2c3.4-3.8 7.8-6.8 12.4-9.1L91 5.4l-3.9 1.2-3 18.6zm-26.3 9.6s7.6-1.7 13.8.3c-.6-2.8-1.6-5.2-3.6-7-2.6-2.4-6.5-4.9-11-6.6-2.3 1.6-4.6 3.2-6.8 4.9 2.6 2.4 5.3 5.3 7.6 8.4zm38.7-18.7c5.5-2.8 11.4-4.7 16.5-6 .5-.2 1-.3 1.5-.5L109 1.4c-3.1.5-6.1 1-9.1 1.7l-3.4 13zM79.2 32.5c.3-.7.7-1.3 1.1-2 .9-1.6 1.9-3.1 3.1-4.5l-5.3-16c-.5.2-.9.4-1.4.6l-.9 26.8 3.4-4.9z"/><path fill="#40496A" d="M100 3.1c-3 .7-6 1.5-9 2.4l5.5 10.7L100 3.1zm-28.5 32c1 4.7.5 10.6.7 16.6.1 4.3.7 7.1 1.2 8.9-.7-6.2-.4-16.1 5.7-28.1l-3.4 4.9.9-26.8c-6.9 3-13.5 6.6-19.7 10.8 4.5 1.7 8.4 4.2 11 6.6 2 2 3.1 4.4 3.6 7.1zm43.1-25.5c-.5.2-1 .3-1.5.5 1.3-.3 2.5-.6 3.6-.8l-2.1.3zM84.1 25.2l3-18.6c-3.1 1-6.1 2.2-9 3.4l5.3 16c.2-.2.4-.5.7-.8zM120 .3c-3.7.2-7.3.6-10.9 1.1l5.5 8.2L120 .3zM96.5 16.1z"/><path fill="#000032" d="M82.2 32.5C95.1 9.3 128 9.5 128 9.5v-2l-11.3 1.7c-1.2.2-2.4.5-3.6.8-5.2 1.3-11.1 3.2-16.5 6-4.6 2.4-9 5.3-12.4 9.1-.2.3-.5.6-.7.8-1.2 1.4-2.2 2.9-3.1 4.5-.4.7-.7 1.3-1.1 2-6.1 12-6.5 21.9-5.7 28.1.4 3.2 1.1 5.4 1.4 6.4-.2-10.9 1.3-23.9 7.2-34.4z"/><path fill="#60493B" d="M82.1 105.2c-.3-2.5-.5-5.2-.7-8-.5.3-.6-2.3-.5-2.8.2-.5-.8-4.7-.6-5.5.2-.8-.8-1.6-.8-1.6l-1.7 2c.3 2.4 1.3 3.8 1.2 5.8-.2 2.6.3 5.9.3 7.2 0 .5-.1 1.5-.1 2.7H82c0 .1.1.2.1.2z"/><path fill="#775B4B" d="M85.8 122.5c4.1 10.5 12 20.6 19.5 30 9.3 11.5 22.7 9.4 22.7 9.4v-19.6c-14.3 0-17.3-5.5-17.3-5.5 3.4-1.2 3.7-2.2 7-5.2 1.7-1.9 4.7-2.9 7.1-1.8 1.6 1.4 3.3 1.1 3.3 1.1V34.7c-29.1 0-41.4 20.5-46.7 36.8-.6 3.1-1.1 6.3-1 7.4.2 2.7 1.1 7.7 1.3 9.9.2 2.2.6 6.7 0 8.1-.1.2-.1.3-.2.3.2 2.8.5 5.5.7 8 2.5 2.4 1.6 7.2 1.2 8.8l.3 1.5c.4 2.3 1.2 4.7 2.1 7zM89 71.7c.2-.6 4.6-5.3 5.9-6.1s4.5-1.9 5.6-1c1.1 1 5.7 4 8.1 4.3s9.4 1.8 9.4 1.8l-1 1.3 2.6.5s2.8 1.6 1.9 2.6c0 0-2.4 3.5-5.6 1.6-3.2-1.9-11.7-5.4-14.5-6.9-2.9-1.4-7.3-.6-8.9 0s-3.6 2.6-3.5 1.9z"/><path fill="#55162B" d="M124.7 129.8c-2.4-1.1-5.4-.1-7.1 1.8-3.3 3-3.5 4-7 5.2 0 0 3 5.5 17.3 5.5V131c.1 0-1.6.3-3.2-1.2z"/><path fill="#231904" d="M92.6 69.8c1.6-.6 6.1-1.4 8.9 0 2.9 1.4 11.3 4.9 14.5 6.9 3.2 1.9 5.6-1.6 5.6-1.6.9-1-1.9-2.6-1.9-2.6l-2.6-.5 1-1.3s-7-1.5-9.4-1.8-7-3.4-8.1-4.3c-1.1-1-4.3.2-5.6 1s-5.7 5.4-5.9 6.1c-.2.7 1.9-1.3 3.5-1.9zM80.3 89c-.2.8.8 5.1.6 5.5-.1.4 0 3.1.5 2.8.1 0 .1-.1.2-.3.6-1.4.2-5.9 0-8.1-.2-2.2-1.1-7.2-1.3-9.9-.1-1.2.4-4.3 1-7.4-2.4 7.4-3.3 14-3.7 17.2.1.4.2.6.2.6l1.7-2s1 .8.8 1.6z"/><path fill="#3A4261" d="M81.3 71.5c5.3-16.3 17.6-36.8 46.7-36.8V9.5s-32.9-.2-45.8 23C76.3 43 74.8 56 74.9 67c.1 13.4 2.5 24 2.5 24 0-.1.1-.9.2-2.1.4-3.3 1.3-9.9 3.7-17.4z"/><path fill="#3A4261" d="M116.7 9.3L128 7.5V0c-2.7 0-5.3.1-8 .3l-5.4 9.4 2.1-.4z"/><circle fill="#827958" cx="118.1" cy="171.1" r="3"/><path fill="#6E6649" d="M84.3 145.3c-.2.6-.3 1.4-.5 2.3 1.7-.1 2.2-3.9 2.3-7.2-.7-.9-1.4-1.8-1.8-2.6 0-.1.9 4.3 0 7.5zm-.8 4.9c-.2 1.6-.4 3.3-.4 4.8.4-.7 1.2-1.2 2.2-1.2 1.4 0 2.5 1.1 2.5 2.5s-1.1 2.5-2.5 2.5c-.8 0-1.6-.4-2-1 0 .2.1.4.1.6.6 2.8 3.8 4.6 5 2.1 1.3-2.5 1.5-10.1 6-11.6 0 0-2.5-2.3-5.1-5-1.3 5.5-4.4 6.3-5.8 6.3zm16.1 4.1c.3.4-.4 6.6-1.5 9.6s-3 8.4.3 10.2c3.3 1.8 7.5-.3 10.4-4.2 2.9-3.8 7.2-6.1 7.2-6.1s-11.5-2.9-16.4-9.5zm5.1 15.6c0 1.6-1.3 3-3 3-1.6 0-3-1.3-3-3 0-1.6 1.3-3 3-3 1.7.1 3 1.4 3 3z"/><path fill="#08233E" d="M98.8 169.9c0 1.6 1.3 3 3 3 1.6 0 3-1.3 3-3 0-1.6-1.3-3-3-3-1.7.1-3 1.4-3 3zm-13.6-11.1c1.4 0 2.5-1.1 2.5-2.5s-1.1-2.5-2.5-2.5c-.9 0-1.7.5-2.2 1.2-.2.4-.4.8-.4 1.3 0 .6.2 1.1.5 1.5.6.6 1.3 1 2.1 1z"/><path fill="#827958" d="M82.7 131v-5.1h2.6s.3.1.6.5c.2-.9.3-1.9 0-2.6-.1-.2-.2-.5-.3-.7-.6-1.2-1.2-1.7-1.2-1.7h-1.2v-6.8s.1-.2.1-.5c.4-1.6 1.3-6.3-1.2-8.8l-.2-.2h-4.2c4.2 5.7 0 10 0 10l2.9-.1v6.1l-2.3.6s-1.6 6.2.8 9.3h3.6z"/><path fill="#104C79" d="M77.8 105.1s-7.7 4.4 0 10c0 0 4.2-4.3 0-10z"/><path fill="#08233E" d="M81.7 149.4c.7.5 1.3.7 1.8.7h.1c1.4 0 4.5-.8 5.7-6.3.3-1.3.5-2.8.5-4.7v-.6c0-7.8-2.5-11.1-3.8-12.2-.4-.3-.6-.5-.6-.5h-2.6v5.1l.6.3c1.8 1.2 2.8 4.2 2.8 7.3v1.7c-.1 3.2-.5 7-2.3 7.2h-.1c-.6 0-1.2-.3-1.7-.8-.8-.8-1.4-2-1.8-3.7-.4-1.4-.6-3.1-.6-5 0-5.8 1.3-7 1.3-7h-1.8s-1.4-2.1-1.4 7c0 3.7.7 6.4 1.6 8.3.6 1.6 1.5 2.6 2.3 3.2z"/><path fill="#6E6649" d="M112 189.5c-2.4 9.3-2.3 28.7-2.3 28.7s8.8-2 18.3-2v-39c0-.1-13.6 2.9-16 12.3z"/></svg>