<svg xmlns="http://www.w3.org/2000/svg" width="256" height="256"><circle fill="#B1B3B5" cx="128" cy="128" r="128"/><path fill="#7A7268" d="M79.3 205.1C68.1 200 49 191.2 45.8 189.6c-4.5-2.2-16.6 6.4-16.6 6.4.6-1.5 1.6-3.2 2.5-4.6L20.1 197c15.3 23.8 38.2 42.2 65.3 51.8-1.6-5.1-3.1-10.5-4.3-16.1-2.1-11.2-2.2-21-1.8-27.6z"/><path fill="#8D8278" d="M45.8 189.6c3.2 1.6 22.4 10.4 33.5 15.5.3-5.3.9-8.5.9-8.5l.8 2.4c-1.4-4.3-2.5-7.6-2.5-8.7 0-1.6-.6-7 0-8.9.5-1.3 2.6-4.9 4.1-7.4-25.1-5-31.7 1.3-31.7 1.3s0-.2.2-.7c-5 2.8-10.2 6.5-15.2 11.2 0 0-2.2 2.5-4.3 5.6-1 1.5-1.9 3.1-2.5 4.6.1 0 12.1-8.7 16.7-6.4z"/><path fill="#5D524E" d="M82.7 173.9c.6-1.1 1.2-2 1.4-2.5.6-1.6.7-7 7.3-7.3.1-1.5.2-2.9.3-4.2-2.4-2.5-4.3-5.1-5.9-8-7.3 2.2-19.4 6.3-25.3 11.5-6.7 5.8-8.6 9.6-9.2 11.1-.2.5-.2.7-.2.7s6.5-6.3 31.6-1.3z"/><path fill="#8E7055" d="M119.5 176.7c-9.3 0-16.6-5.5-27.3-16.3-.2-.2-.4-.4-.5-.6-.1 1.3-.2 2.8-.3 4.2h.5s0 4.5 9.4 20.1c8.5 14.2 23.7 14.7 26.5 14.7v-22.1h-8.3zM75.8 85.2c-.1-.8-.3-1.5-.4-2.3-.3-1.6-.5-3.2-.7-4.8-1.3-1.5-3.9-3.7-6.6-2.5-3.9 1.8-1.6 4.6-1 8s1.8 7 1.6 10.5-1 4.9 1.1 9.3c1.8 3.7 2.9 3.3 3.8 7.5V85.2h2.2zm2.2 28.5h-1v-1.1h-1v1.1h-1.8c.6 3.3 2.4 5.3 4.1 6.5v-.5c-.1-2.1-.2-4.1-.3-6z"/><path fill="#A58162" d="M91.8 25.1c-1.7 1.4-3.7 2.2-3.7 5.3v5s.5 2.9 0 3.8-2.4 2.2-2.4 2.2-2.2-.2-2.9-.2-2.2-3.6-1.7.7 2.2 6.2 1.9 7.7c-.2 1.4-2.4-3.8-1.7 4.8s1.7 10 1.7 10 3.2 2.6 1.2 4.6c-1.9 1.9-1.5.2-1.9 1.9s-1.5 6-.5 8.6c1 2.6 1 .7 1 4.8v.9h4.9c-.1-1.1.1-2.8 2.1-3.5 0 0 7.7-2.5 14.6.7 2.1 1 4.2 1.9 6.2 2.8 2.6.1 5 .9 7.1 2.2 1.5.2 2.8.1 3.6-.5 0 0-.2 1.4-1 2.6l.5.5c1.6.7 3.9 1.4 6.9 1.4V8.8h.2c-2.2-.2-19.7-1.5-33.6 11-.1 0-.1.1-.2.1l.6-.1c.2.1-1.2 3.9-2.9 5.3zm.4 135.3c10.7 10.8 18 16.3 27.3 16.3h8.3V108c-1.2 0-4.5 0-7.5 1.5-2.6 2.6-6.3 4.2-10.3 4.2H78c.1 1.9.2 3.9.3 6v.5c.7 11.9 2.2 22.6 7.4 31.6 1.6 2.8 3.6 5.5 5.9 8 .2.3.4.5.6.6zM75.8 85.2h.2v1.4h1v-1.3h2.6c.4-1.3.6-2.4-.4-3.6-1.7-1.9-3.2-3.6-3.2-3.6s-.7-.8-1.3-1.5c0 .5.1 1 .1 1.6.1 1.6.4 3.2.7 4.8 0 .6.2 1.4.3 2.2z"/><path fill="#9A4D4E" d="M79.1 81.7c1.1 1.2.8 2.3.4 3.6h3.2v-.9c0-4.1 0-2.2-1-4.8-1-2.6 0-6.9.5-8.6s0 0 1.9-1.9-1.2-4.6-1.2-4.6-1-1.4-1.7-10.1c-.7-8.6 1.5-3.4 1.7-4.8.2-1.4-1.5-3.4-1.9-7.7s1-.7 1.7-.7 2.9.2 2.9.2 1.9-1.2 2.4-2.2 0-3.8 0-3.8v-5c0-3.1 1.9-3.8 3.7-5.3s3.1-5.3 3.1-5.3l-.6.2C79.5 33.3 76.6 40.3 76.4 49.1c-.2 7.4-2.4 17.1-1.8 27.4.7.8 1.3 1.5 1.3 1.5s1.5 1.7 3.2 3.7z"/><path fill="#392E27" d="M120.3 89.5c.8-1.2 1-2.6 1-2.6-.8.6-2 .8-3.6.5 1 .6 1.9 1.3 2.6 2.1zm-10.4-4.3h.7c-2-.8-4.2-1.8-6.2-2.8-7-3.2-14.6-.7-14.6-.7-2 .6-2.2 2.4-2.1 3.5h22.2z"/><path fill="#7E6F69" d="M127.8 198.9c-2.8 0-18-.5-26.5-14.7-9.4-15.6-9.4-20.1-9.4-20.1h-.5c-6.6.3-6.6 5.8-7.3 7.3-.2.5-.7 1.4-1.4 2.5-1.5 2.5-3.7 6.1-4.1 7.4-.6 1.9 0 7.3 0 8.9 0 1.1 1.1 4.4 2.5 8.7l4.6 13s1.4 16.3 12.8 40.6c9.4 2.2 19.3 3.4 29.4 3.5v-57.1z"/><path fill="#AA9588" d="M81 199l-.8-2.4s-.6 3.2-.9 8.5c-.4 6.6-.3 16.5 1.9 27.6 1.2 5.6 2.7 11 4.3 16.1 4.2 1.5 8.5 2.7 12.9 3.8C87 228.3 85.6 212 85.6 212L81 199z"/><path fill="#614F47" d="M127.8 91.4c-3-.1-5.3-.7-6.9-1.4 2.3 2.5 3.6 5.8 3.6 9.4 0 3.9-1.6 7.5-4.2 10.1 3.1-1.4 6.4-1.5 7.5-1.5V91.4c0 .1 0 0 0 0z"/><path fill="#745F56" d="M76 86.6h1v26.1h-1z"/><path fill="#969798" d="M76 112.7V85.2h-2.2v28.5H76zM120.8 90c-.2-.2-.3-.4-.5-.5-.8-.8-1.6-1.5-2.6-2.1-2.1-1.3-4.5-2.1-7.1-2.2h-.7c-.4 0-.7 0-1.1.1H77v28.5h32.9c4 0 7.7-1.6 10.3-4.2 2.6-2.6 4.2-6.1 4.2-10.1.1-3.7-1.3-7-3.6-9.5zm-11.3 21.1H80.3V87.8h29.3c6.6 0 11.9 5.2 11.9 11.7-.1 6.4-5.4 11.6-12 11.6z"/><path fill="#494847" d="M121.4 99.4c0-6.5-5.3-11.7-11.9-11.7H80.3V111h29.2c6.6.1 11.9-5.1 11.9-11.6z"/><path fill="#8D8278" d="M226.8 196s-12-8.6-16.6-6.4c-3.2 1.6-22.4 10.4-33.5 15.5.4 6.6.3 16.5-1.9 27.6-1.2 5.6-2.7 11-4.3 16.1 27.1-9.6 50.1-28 65.3-51.8l-11.6-5.6c1 1.4 2 3 2.6 4.6z"/><path fill="#A09387" d="M173.3 173.9c1.5 2.5 3.7 6.1 4.1 7.4.6 1.9 0 7.3 0 8.9 0 1.1-1.1 4.4-2.5 8.7l.8-2.4s.6 3.2.9 8.5c11.2-5.1 30.3-13.9 33.5-15.5 4.5-2.2 16.6 6.4 16.6 6.4-.6-1.5-1.6-3.2-2.5-4.6-2-3.1-4.3-5.6-4.3-5.6-5-4.8-10.1-8.4-15.2-11.2.2.5.2.7.2.7s-6.5-6.3-31.6-1.3z"/><path fill="#6F625D" d="M164.7 164.1c6.6.3 6.6 5.8 7.3 7.3.2.5.7 1.4 1.4 2.5 25.1-5 31.7 1.3 31.7 1.3s0-.2-.2-.7c-.6-1.5-2.5-5.3-9.2-11.1-5.9-5.2-18.1-9.3-25.3-11.5-1.6 2.8-3.6 5.5-5.9 8-.1 1.3 0 2.7.2 4.2z"/><path fill="#A58162" d="M163.8 160.4c-10.7 10.8-18 16.3-27.3 16.3h-8.8v22.1s17.5 1 26.9-14.7C164 168.5 164 164 164 164h.5c-.1-1.5-.2-2.9-.3-4.2 0 .3-.2.5-.4.6zm16.2-47.7h-1v1.1h-1c-.1 1.9-.2 3.9-.3 6v.5c1.7-1.2 3.5-3.3 4.1-6.5H180v-1.1zm.2-27.5h2v25.7c.9-4.3 2-3.8 3.8-7.5 2.1-4.3 1.3-5.7 1.1-9.3s1-7.2 1.6-10.5 2.9-6.2-1-8c-2.7-1.2-5.2 1-6.6 2.5-.1 1.6-.4 3.2-.7 4.8.1.7-.1 1.5-.2 2.3z"/><path fill="#B28A6A" d="M127.8 91.4s0 .1 0 0c3.3 0 5.7-.7 7.4-1.4.2-.2.3-.4.5-.5-.8-1.2-1-2.6-1-2.6.8.6 2 .8 3.6.5 2.1-1.3 4.5-2.1 7.1-2.2 2-.8 4.2-1.8 6.2-2.8 7-3.2 14.6-.7 14.6-.7 2 .6 2.2 2.4 2.1 3.5H179v1.3h1v-1.4h.2c.1-.8.3-1.5.4-2.3.3-1.6.5-3.2.7-4.8 1-11-1.4-21.3-1.6-29-.2-8.9-3.2-15.8-18-29.2-14-12.5-31.5-11.2-33.7-11h-.2v82.6zm50.2 22.3h-31.9c-4 0-7.7-1.6-10.3-4.2-3.8-1.8-8-1.5-8-1.5v68.7h8.8c9.3 0 16.6-5.5 27.3-16.3.2-.2.4-.4.5-.6 2.4-2.5 4.3-5.1 5.9-8 5.2-9.1 6.6-19.8 7.4-31.6v-.5c.1-2.1.2-4.1.3-6z"/><path fill="#463A32" d="M147.1 85.2h21.2c.1-1.1-.1-2.8-2.1-3.5 0 0-7.7-2.5-14.6.7-2.1 1-4.2 1.9-6.2 2.8h1.7zm-8.9 2.2c-1.5.2-2.8.1-3.6-.5 0 0 .2 1.4 1 2.6.8-.8 1.7-1.5 2.6-2.1z"/><path fill="#897973" d="M175 199c1.4-4.3 2.5-7.6 2.5-8.7 0-1.6.6-7 0-8.9-.5-1.3-2.6-4.9-4.1-7.4-.6-1.1-1.2-2-1.4-2.5-.6-1.6-.7-7-7.3-7.3h-.5s0 4.5-9.4 20.1c-9.4 15.6-26.9 14.7-26.9 14.7v57h.2c10.2 0 20.1-1.2 29.6-3.5 11.4-24.3 12.8-40.6 12.8-40.6L175 199z"/><path fill="#C8AD9D" d="M176.7 205.1c-.3-5.3-.9-8.5-.9-8.5l-.8 2.4-4.6 13s-1.4 16.3-12.8 40.6c4.4-1 8.7-2.3 12.9-3.8 1.6-5.1 3.1-10.5 4.3-16.1 2.2-11.2 2.3-21 1.9-27.6z"/><path fill="#745F56" d="M135.8 109.5c-2.6-2.6-4.2-6.1-4.2-10.1 0-3.6 1.4-6.9 3.6-9.4-1.7.8-4.1 1.4-7.4 1.4V108c0 .1 4.2-.3 8 1.5zM179 86.6h1v26.1h-1z"/><path fill="#B9B9BA" d="M180.2 85.2h-.2v28.5h2.2V85.2zm-44.4 24.3c2.6 2.6 6.3 4.2 10.3 4.2H179V85.3h-31.9c-.4 0-.7-.1-1.1-.1h-.7c-2.6.1-5 .9-7.1 2.2-.9.6-1.8 1.3-2.6 2.1l-.5.5c-2.3 2.5-3.6 5.8-3.6 9.4 0 4 1.7 7.5 4.3 10.1zm10.7-21.7h29.3v23.3h-29.2c-6.6 0-11.9-5.2-11.9-11.7-.1-6.4 5.2-11.6 11.8-11.6z"/><path fill="#555352" d="M134.6 99.4c0 6.5 5.3 11.7 11.9 11.7h29.2V87.8h-29.3c-6.5 0-11.8 5.2-11.8 11.6z"/></svg>