<svg xmlns="http://www.w3.org/2000/svg" width="256" height="256"><circle fill="#B2B4B5" cx="128" cy="128" r="128"/><path fill="none" d="M81.7 143.9l-1.3 5.3c.6-2.1 1-4 1.3-5.3zm93.9 5.4l-1.3-5.3c.3 1.2.7 3.1 1.3 5.3-.1 0 0 0 0 0zm-7.2-12.6c0 .6 0 1.2.1 1.8l-.1-1.8zm-80.8 0l-.1 1.8c.1-.6.1-1.2.1-1.8z"/><path fill="#2C2C37" d="M175.8 150.3l-.2-1c0 .3.1.6.2 1zm0 0c.9 3.5 1.9 7.6 2.8 11 .9-4.9.1-8.8-2.8-11z"/><path fill="#24232F" d="M168.5 139.7c.2 4.2.4 8.8.7 13.2 5.8-8.2-.7-13.2-.7-13.2z"/><path fill="#802632" d="M162.5 150c-1.6 2.9-5.5 8.5-9 13.6 4.9-1.8 9.4-4.2 12.6-7.2 1.3-1.2 2.3-2.4 3.1-3.5-.3-4.3-.5-9-.7-13.2v-1.2c0-.6 0-1.2-.1-1.8v-.1c0-.6 0-1.2-.1-1.8-1.8 5.8-4.1 12.2-5.8 15.2z"/><path fill="#12111D" d="M168.4 136.7l.1 1.8v1.2s6.5 4.9.7 13.2c-.8 1.1-1.8 2.3-3.1 3.5-3.1 3-7.7 5.4-12.6 7.2-2.6 3.8-5.1 7.3-6.3 9.1-1.1 1.6-4.2 2.6-7.5 3.2l6.9 23.9c8.6-4.5 17.8-10.6 22.3-17.5 5.1-7.9 8.6-15.1 9.7-20.9-.9-3.5-1.9-7.5-2.8-11-.1-.3-.2-.7-.2-1-.5-2.2-1-4-1.3-5.3-.2-.8-.3-1.4-.3-1.7-.3-3.4-5.6-5.7-5.6-5.7zm-36 39.9c-2.5.1-4.4.1-4.4.1v31.2s5.4-1.9 12.3-5.1l-7.9-26.2z"/><path fill="#561D23" d="M136.4 176.3c-1.4.2-2.8.3-4.1.3l8 26.2c1.1-.5 2.1-1 3.2-1.6l-7.1-24.9z"/><path fill="#2C2C37" d="M139.6 175.8c-1.1.2-2.1.3-3.2.5l7.1 25 3-1.5-6.9-24z"/><path fill="#802632" d="M176.9 93.5c.6 3.8 1 11.2-1.6 16.3-.4.8-.8 1.6-1.1 2.4 3-2.8 6.5-6.3 7.2-7.5 1.3-2.2.3-9.9 0-12.1s1.9-7.1 2.2-10.6c.2-2.2-1.5-4.7-2.9-6.3-1.4 6.2-4.4 14.7-3.8 17.8z"/><path fill="#922E3B" d="M132.3 95.1l-.7-5.5s2.4 9.1 6.9 8.6c4.6-.5 12.5-5.6 12.5-5.6s15.7-8.7 18.1-4.4c0 0-3 3.8-2.6 6.9.5 3.1 1.4 9.1.2 10.5s-5 2.9-9.8 1.7c-4.8-1.2-8.4-5.5-20.1-5.3 0 0 6.7 7.2 6.9 10.8l-2.2 6.5s-4.6-6.5-6.9-9.3c-2.4-2.9-1-13.2-6.7-14.8v14.4s8.8 7.3 10.5 9.8 1.6 6 1.6 6-6.1-2.8-9.1-7.9l-.9 6.3-.5-7.5-1.6 7v53.6s1.8 0 4.4-.1c1.2-.1 2.6-.2 4.1-.3 1.1-.1 2.1-.3 3.2-.5 3.4-.6 6.4-1.6 7.5-3.2 1.2-1.8 3.7-5.3 6.3-9.1 3.5-5.1 7.3-10.7 9-13.6 1.7-3 4-9.4 5.8-15.2 1.3-4.2 2.2-8.1 2.5-10.3.5-4.6 1.5-8.2 3.3-12.3.3-.8.7-1.6 1.1-2.4 2.6-5.1 2.2-12.5 1.6-16.3-.5-3.1 2.4-11.6 3.8-17.8.4-1.6.6-3 .7-4.2.3-5.7-1.9-25.9-11.8-41.8S128 8.4 128 8.4v84.2l4.3 2.5zm27.5 27.1s-5.3 0-3.2 15.4c.2 1.3.3 2 .3 2-.1-.7-.2-1.4-.3-2-.6-3.4-2.4-10.2-6.9-15.4 0 0 3.1-4.7 10.1 0zm-12.6 8.6c-1.4-.2-3.5 5.7-3.5 5.7-1.8-8.9 2.1-11.5 2.1-11.5 5.6 2.7 7 11.5 7 11.5-1.6-3-4.2-5.6-5.6-5.7zm2.6-108.5c2.2-2.9 7.7-.8 9.6 1.2 11.7 12.2 12.2 15.8 15.6 21.6 3.4 5.7 3.4 23.2 2.9 27.8-.5 4.6-1.9 14.8-1.9 19.8 0 4.9-1.7 11.6-3.8 18.1-2.2 6.5-10.3 13.4-10.3 13.4 4.6-.5 7.2-4.8 7.2-4.8s-2.2 14.8-2.6 18.9c-.5 4.1-16.8 28.5-16.8 28.5s5-12.2 7.4-17.2 4.8-9.6 2.9-14.6c-1.8-5 0-12.5 0-12.5 4.4.7 5.7-8.1 5.4-9.8-.2-1.7 6.5-9.3 4.6-11.5s-4.3-6.7-.1-13.2c1.2-1.8-2.4-7.2-5-12.5s1.2-13.4 2.9-16.8c1.7-3.4-1-11.3-4.1-14.4-3.2-3.1-16.1-19.2-13.9-22z"/><path fill="#A45F65" d="M167.7 58.7c-1.7 3.4-5.5 11.5-2.9 16.8s6.2 10.6 5 12.5c-4.2 6.5-1.8 11 .1 13.2 1.9 2.2-4.8 9.8-4.6 11.5s-1.1 10.5-5.4 9.8c0 0-1.8 7.4 0 12.5 1.8 5-.5 9.6-2.9 14.6s-7.4 17.2-7.4 17.2 16.3-24.4 16.8-28.5 2.6-18.9 2.6-18.9-2.6 4.3-7.2 4.8c0 0 8.1-6.9 10.3-13.4s3.8-13.1 3.8-18.1c0-4.9 1.4-15.2 1.9-19.8s.5-22-2.9-27.8c-3.4-5.7-3.8-9.3-15.6-21.6-1.9-2-7.4-4.1-9.6-1.2-2.2 2.9 10.8 18.9 13.9 22 3.2 3.1 5.8 11 4.1 14.4z"/><path fill="#5C131D" d="M134.7 109.9c2.4 2.9 6.9 9.3 6.9 9.3l2.2-6.5c-.2-3.6-6.9-10.8-6.9-10.8 11.7-.2 15.3 4.1 20.1 5.3 4.8 1.2 8.6-.2 9.8-1.7 1.2-1.4.2-7.4-.2-10.5-.5-3.1 2.6-6.9 2.6-6.9-2.4-4.3-18.1 4.4-18.1 4.4s-7.9 5.1-12.5 5.6-6.9-8.6-6.9-8.6l.7 5.5-4.3-2.5V95c5.6 1.7 4.2 12 6.6 14.9zm-4.6 13.7l.9-6.3c3 5.1 9.1 7.9 9.1 7.9s0-3.5-1.6-6-10.5-9.8-10.5-9.8v13.7l1.6-7 .5 7.5z"/><path fill="#802632" d="M156.6 137.7c.1.7.2 1.3.3 2 0 0-.1-.7-.3-2zm0 0c-2.1-15.4 3.2-15.4 3.2-15.4-6.9-4.8-10.1 0-10.1 0 4.5 5.2 6.3 12 6.9 15.4zM145.7 125s-3.8 2.6-2.1 11.5c0 0 2.1-5.9 3.5-5.7s4 2.7 5.6 5.7c0 0-1.4-8.7-7-11.5z"/><path fill="#252430" d="M203.6 178.4L230 185l1.9-8.2 1.2.3c-12.6-7.5-41-24.4-44.4-27.4-4.5-3.8-14.4-5.7-14.4-5.7l1.3 5.3.2 1c3 2.2 3.7 6.1 2.8 11-1.1 5.8-4.6 13-9.7 20.9-4.5 6.9-13.8 13-22.3 17.5l-3 1.5c-1.1.6-2.2 1.1-3.2 1.6-7 3.3-12.3 5.1-12.3 5.1V256c2.1 0 4.1-.1 6.2-.2 7.8-1.9 16-2.9 24.1-3.5 22.2-5.4 42.2-16.6 58.2-31.8l-21.2-21.1 8.2-21z"/><path fill="#2C2C37" d="M208.4 184.4l20.3 6.1 1.3-5.5-26.4-6.6-8.4 21.1 21.2 21.1 4.2-4.2-17.5-17.1 5.3-14.9z"/><path fill="#12111D" d="M208.4 184.4l-5.3 14.8 17.5 17.1c1-1 1.9-2 2.8-3.1l5.3-22.8-20.3-6z"/><path fill="#2C2C37" d="M158.3 252.4c-8.1.5-16.2 1.6-24.1 3.5 8.2-.4 16.3-1.6 24.1-3.5z"/><path fill="#1D1C27" d="M231.9 176.8L230 185l-1.3 5.5-5.3 22.8c8.2-9.2 15.1-19.6 20.5-30.9-3.7-2.1-7.3-4.3-10.8-5.3-.4-.1-.8-.3-1.2-.3z"/><path fill="#2C2C37" d="M80.4 149.3l-.2 1c.1-.4.2-.7.2-1 .1 0 0 0 0 0zm-3 12c.9-3.5 1.9-7.5 2.8-11-2.9 2.2-3.7 6.1-2.8 11z"/><path fill="#24232F" d="M87.6 138.5v1c-.1-.3 0-.7 0-1zm-.7 14.4c.3-4.3.5-9 .7-13.2-.1 0-6.6 5-.7 13.2z"/><path fill="#5C131D" d="M87.6 136.7c0 .6 0 1.2-.1 1.8v1.2c-.2 4.2-.4 8.8-.7 13.2.8 1.1 1.8 2.3 3.1 3.5 3.1 3 7.7 5.4 12.6 7.2-3.5-5.1-7.3-10.7-9-13.6-1.7-3-4-9.4-5.8-15.2 0 .6 0 1.2-.1 1.8v.1z"/><path fill="#02000C" d="M81.7 143.9c-.3 1.3-.7 3.2-1.3 5.3-.1.3-.2.7-.2 1-.9 3.5-1.9 7.6-2.8 11 1.1 5.8 4.6 13 9.7 20.9 4.5 6.9 13.8 13 22.3 17.5l6.9-23.9c-3.4-.6-6.4-1.6-7.5-3.2-1.2-1.8-3.7-5.3-6.3-9.1-4.9-1.8-9.4-4.2-12.6-7.2-1.3-1.2-2.3-2.4-3.1-3.5-5.8-8.2.6-13.2.7-13.2v-1.2l.1-1.8v-.1s-5.3 2.3-5.6 5.7c0 .4-.1 1-.3 1.8zm34 58.9c7 3.3 12.3 5.1 12.3 5.1v-31.2s-1.8 0-4.4-.1l-7.9 26.2z"/><path fill="#471118" d="M123.6 176.6c-1.2-.1-2.6-.2-4.1-.3l-7.1 25c1.1.6 2.2 1.1 3.2 1.6l8-26.3z"/><path fill="#1F1E29" d="M119.6 176.3c-1.1-.1-2.1-.3-3.2-.5l-6.9 23.9 3 1.5 7.1-24.9z"/><path fill="#5C131D" d="M79.1 93.5c.5-3.1-2.4-11.6-3.8-17.8-1.4 1.6-3.1 4.2-2.9 6.3.3 3.5 2.5 8.4 2.2 10.6s-1.3 9.8 0 12.1c.7 1.3 4.3 4.7 7.2 7.5-.3-.8-.7-1.6-1.1-2.4-2.5-5.2-2.2-12.5-1.6-16.3z"/><path fill="#802632" d="M93.5 150c1.6 2.9 5.5 8.5 9 13.6 2.6 3.8 5.1 7.3 6.3 9.1 1.1 1.6 4.2 2.6 7.5 3.2 1.1.2 2.1.3 3.2.5 1.4.2 2.8.3 4.1.3 2.5.1 4.4.1 4.4.1V95.1c-5.7 1.7-4.3 12-6.7 14.8-2.4 2.9-6.9 9.3-6.9 9.3l-2.2-6.5c.2-3.6 6.9-10.8 6.9-10.8-11.7-.2-15.3 4.1-20.1 5.3-4.8 1.2-8.6-.2-9.8-1.7-1.2-1.4-.2-7.4.2-10.5.5-3.1-2.6-6.9-2.6-6.9 2.4-4.3 18.1 4.4 18.1 4.4s7.9 5.1 12.5 5.6 6.9-8.6 6.9-8.6l-.7 5.5 4.3-2.5V8.3s-31.6 5.3-41.5 21.2-12 36.2-11.7 41.9c.1 1.2.3 2.6.7 4.2 1.4 6.2 4.3 14.8 3.8 17.8-.6 3.8-1 11.2 1.6 16.3.4.8.8 1.6 1.1 2.4 1.8 4.1 2.8 7.7 3.3 12.3.3 2.3 1.2 6.2 2.5 10.3 1.8 5.9 4.1 12.3 5.8 15.3zm24-30.7c1.6-2.5 10.5-9.8 10.5-9.8v13.7l-1.6-7-.5 7.5-.9-6.3c-3 5.1-9.1 7.9-9.1 7.9s0-3.6 1.6-6zm-7.2 5.7s3.8 2.6 2.1 11.5c0 0-2.1-5.9-3.5-5.7s-4 2.7-5.6 5.7c0 0 1.4-8.7 7-11.5zm-4-2.8c-4.5 5.2-6.3 12.1-6.9 15.4-.1.7-.2 1.3-.3 2 0 0 .1-.8.3-2 2.1-15.4-3.2-15.4-3.2-15.4 7-4.7 10.1 0 10.1 0zM84 110.6c-2.2-6.5-3.8-13.1-3.8-18.1 0-4.9-1.4-15.2-1.9-19.8-.5-4.6-.5-22 2.9-27.8 3.4-5.7 3.8-9.3 15.6-21.6 1.9-2 7.4-4.1 9.6-1.2S95.6 41 92.5 44.1c-3.1 3.1-5.7 11-4.1 14.4 1.7 3.4 5.5 11.5 2.9 16.8s-6.2 10.6-5 12.5c4.2 6.5 1.8 11-.1 13.2s4.8 9.8 4.6 11.5c-.2 1.7 1.1 10.5 5.4 9.8 0 0 1.8 7.4 0 12.5-1.8 5 .5 9.6 2.9 14.6s7.4 17.2 7.4 17.2-16.3-24.4-16.8-28.5-2.6-18.9-2.6-18.9 2.6 4.3 7.2 4.8c0 0-8.2-6.9-10.3-13.4z"/><path fill="#9B3340" d="M87.1 119.3s2.2 14.8 2.6 18.9c.5 4.1 16.8 28.5 16.8 28.5s-5-12.2-7.4-17.2-4.8-9.6-2.9-14.6c1.8-5 0-12.5 0-12.5-4.4.7-5.7-8.1-5.4-9.8.2-1.7-6.5-9.3-4.6-11.5s4.3-6.7.1-13.2c-1.2-1.8 2.4-7.2 5-12.5S90.1 62 88.4 58.6c-1.7-3.4 1-11.3 4.1-14.4s16-19.2 13.9-22c-2.2-2.9-7.7-.8-9.6 1.2C84.9 35.7 84.4 39.3 81.1 45c-3.4 5.7-3.4 23.2-2.9 27.8.5 4.6 1.9 14.8 1.9 19.8 0 4.9 1.7 11.6 3.8 18.1 2.2 6.5 10.3 13.4 10.3 13.4-4.5-.5-7.1-4.8-7.1-4.8z"/><path fill="#420007" d="M128 92.6l-4.3 2.5.7-5.5s-2.4 9.1-6.9 8.6c-4.6-.5-12.5-5.6-12.5-5.6s-15.7-8.7-18.1-4.4c0 0 3 3.8 2.6 6.9-.5 3.1-1.4 9.1-.2 10.5 1.2 1.4 5 2.9 9.8 1.7 4.8-1.2 8.4-5.5 20.1-5.3 0 0-6.7 7.2-6.9 10.8l2.2 6.5s4.6-6.5 6.9-9.3c2.4-2.9 1-13.2 6.7-14.8l-.1-2.6zm-3 24.7l.9 6.3.5-7.5 1.6 7v-13.7s-8.8 7.3-10.5 9.8-1.6 6-1.6 6 6.1-2.8 9.1-7.9z"/><path fill="#721F2A" d="M99.4 137.7c.6-3.4 2.4-10.2 6.9-15.4 0 0-3.1-4.8-10.1 0 0-.1 5.3 0 3.2 15.4zm0 0c-.2 1.3-.3 2-.3 2 .1-.7.2-1.4.3-2zm3.9-1.2c1.6-3 4.2-5.6 5.6-5.7 1.4-.2 3.5 5.7 3.5 5.7 1.8-8.9-2.1-11.5-2.1-11.5-5.6 2.8-7 11.5-7 11.5z"/><path fill="#1B1A25" d="M128 207.9s-5.4-1.9-12.3-5.1c-1.1-.5-2.1-1-3.2-1.6l-3-1.5c-8.6-4.5-17.8-10.6-22.3-17.5-5.1-7.9-8.6-15.1-9.7-20.9-1-5-.2-8.8 2.8-11l.2-1 1.3-5.3s-9.9 1.9-14.4 5.7c-3.5 3-31.8 19.9-44.4 27.4l1.2-.3L26 185l26.4-6.6 8.4 21.1-21.2 21.1c5.3 5.1 11 9.7 17.2 13.8l71.2-26.5z"/><path fill="#252430" d="M52.4 178.4L26 185l1.3 5.5 20.3-6.1 5.3 14.8-17.5 17.1 4.2 4.2 21.2-21.1-8.4-21z"/><path fill="#02000C" d="M47.6 184.4l-20.3 6.1 5.3 22.8c.9 1 1.9 2.1 2.8 3.1l17.5-17.1-5.3-14.9z"/><path fill="#100F1B" d="M128 207.9l-71.3 26.4C77.1 248 101.6 256 128 256v-48.1z"/><path fill="#161520" d="M26 185l-1.9-8.2-1.2.3c-3.5 1-7.2 3.2-10.8 5.3 5.3 11.3 12.2 21.7 20.5 30.9l-5.3-22.8L26 185z"/></svg>