<svg xmlns="http://www.w3.org/2000/svg" width="256" height="256"><circle fill="#B1B3B5" cx="128" cy="128" r="128"/><path fill="#775B4B" d="M174 166.6c.1-1.8.2-3.5.3-4.9-.9 1.3-1.6 2.1-1.6 2.1s.6 1 1.3 2.8zM127.6 204v43.7s31.1.6 37.5-7.3c6-7.5 12.8-25.1 13.6-29.9-.2-.3-.3-.7-.4-1-2.9-1.9-3.7-16.6-3.7-16.6-.2-1.8-.3-3.6-.5-5.4-9.4 19.9-46.5 16.5-46.5 16.5z"/><path fill="#B28054" d="M178 29.6c2.7-3 7.2-8.9 7.9-15.7C168.6 5 148.9 0 128 0h-.4v8.4S163.9 10 178 29.6z"/><path fill="#775B4B" d="M187.2 107.1c-.1.6-.2 1.3-.3 2 .9.3 1.8.7 1.9 1.5.3 1.8 3.5 8.3 1.8 10.4-.9 1.1-3.4 2.3-5.6 3.3-.4 3.3-.7 6.6-1 9.6.2-.2.4-.3.7-.4.9-.3 1.9.1 2.8.9l-.6-7s3.5-1.9 5.3 0c1.8 1.9 1.4 6.1 0 7.3-1.4 1.3.8 2.9 1.2 3.7.4.8 3 5.9.7 11.7l-.2-.2c1.4 7.3 1.3 14.3-1.6 14.7-3.9.6-8.1-10.9-9.4-20.1-.1 1-.2 1.8-.3 2.4-.3 2-1.4 4.5-2.8 6.9 2.3 10.5 6.6 14.7 13.2 13.8 7.3-1 2.4-21.7 3-26.8.6-5.1-3.2-21.1-4.2-27.6-.4-2.5-1.4-4-2.5-5l-2.1-1.1z"/><path fill="#5C4638" d="M190.5 121c1.8-2.1-1.4-8.6-1.8-10.4-.1-.8-1-1.2-1.9-1.5-.7 4.4-1.4 9.8-2 15.2 2.2-1 4.8-2.2 5.7-3.3zm3.1 28.8c.1.2.2.2.2.2 2.2-5.7-.3-10.9-.7-11.7-.4-.8-2.6-2.4-1.2-3.7 1.4-1.3 1.8-5.4 0-7.3-1.8-1.9-5.3 0-5.3 0l.6 7c2.8 2.5 5.2 9.1 6.4 15.5z"/><path fill="#829478" d="M192 164.5c2.9-.4 3-7.5 1.6-14.7-1.2-6.4-3.6-13-6.3-15.4-.9-.8-1.8-1.1-2.8-.9-.3.1-.5.2-.7.4-.4 4.2-.8 7.9-1.1 10.5 1.2 9.2 5.4 20.7 9.3 20.1z"/><path fill="#8C6C5A" d="M182.7 144.5c.3-2.6.7-6.3 1.1-10.5.3-3 .7-6.3 1-9.6.6-5.4 1.3-10.8 2-15.2.1-.7.2-1.4.3-2 0 0-4.1-26.5-10.8-44.9-9.1-7.8-24.1-13.4-48.7-13.4v96.5c2.8-1.4 5.2-4.2 5.2-4.2s7.7 2.6 9.4 3.5c1.7 1 13.4 5.3 23.7 16.3s1.4 24.9 1.4 24.9l-.3-.3c-7.4 12.1-28.2 12-39.4 12v6.5s37.1 3.4 46.5-16.6c1.4-2.9 2.1-6.3 2.1-10.2 0-4.1-1.2-8.1-2.2-10.6-.7-1.7-1.3-2.8-1.3-2.8s.6-.8 1.6-2.1c1.4-1.9 3.5-4.9 5.2-8 1.4-2.5 2.5-4.9 2.8-6.9.1-.7.2-1.5.4-2.4zM146 79.6c-3.4 1.4-7.9-3.4-7.9-3.4 5.7-1 15.1-6 18.4-6.7s10.8 1.9 14.6 4.4c3.8 2.5 4.8 3.9 2.9 4.2-1.9.2-6.2-3.3-9.3-3.5s-6.7 1-6.7 1l2.6.6c0 .1-11.2 2-14.6 3.4zm26.1 83.4s-4-7.8-9.6-12.3c0 0 2.4-13.3 9.6-18.8s9.3-6.5 12.1-12.8c0 0-1.4 23.9-5.6 31s-6.5 12.9-6.5 12.9z"/><path fill="#704B38" d="M164.7 74.7c3.1.2 7.4 3.8 9.3 3.5 1.9-.2 1-1.6-2.9-4.2-3.8-2.5-11.3-5.2-14.6-4.4s-12.7 5.7-18.4 6.7c0 0 4.6 4.8 7.9 3.4s14.6-3.4 14.6-3.4l-2.6-.6s3.6-1.3 6.7-1z"/><path fill="#806252" d="M184.2 119.1c-2.9 6.2-4.9 7.2-12.1 12.8s-9.6 18.8-9.6 18.8c5.6 4.5 9.6 12.3 9.6 12.3s2.4-5.9 6.5-12.9 5.6-31 5.6-31z"/><path fill="#74594A" d="M169.7 174.9c0 4.3-1 7.7-2.7 10.5l.3.3s8.9-13.9-1.4-24.9-22-15.3-23.7-16.3c-1.7-1-9.4-3.5-9.4-3.5s-2.4 2.9-5.2 4.2v5.4c12.3.1 42.1 1.7 42.1 24.3z"/><path fill="#526B53" d="M167 185.5c1.7-2.8 2.7-6.3 2.7-10.5 0-22.7-29.9-24.3-42.1-24.3v46.8c11.2 0 32 .1 39.4-12z"/><path fill="#413022" d="M176.3 62.2c6.8 18.4 10.8 44.9 10.8 44.9s9.3-27.7-10.8-44.9z"/><path fill="#B39C63" d="M181.7 36c-.2-.5-.5-1-.7-1.5.2.4.9 1.9 1.9 4.2l-1.2-2.7zm-54.1-4.4v17.2c24.6 0 39.7 5.7 48.7 13.4 20.1 17.2 10.8 44.9 10.8 44.9l1.9 1.1c3.9-6.8 4.5-27.2.3-47.7-.3-1.2-9.3-28.9-61.7-28.9z"/><path fill="#D1B885" d="M127.6 28.7v2.9c52.5 0 61.4 27.7 61.8 29-1.4-8.7-4.5-17-6.5-21.9-1-2.3-1.7-3.8-1.9-4.2v-.1c-.8-1.7-1.8-3.4-2.9-4.9C163.9 10 127.6 8.4 127.6 8.4v20.3z"/><path fill="#6C5E34" d="M183.6 212.3c-7.3 16.6-8.6 21.4-11.8 28.1s-8.3 10.9-16.9 11.8-27.3 1.6-27.3 1.6v2.2h.4c39.4 0 74.7-17.8 98.2-45.9-15.7-4.1-37.1-8.4-41.2-9.2.9 2.8.8 6.5-1.4 11.4z"/><path fill="#9F875E" d="M178.3 209.5c.2.1.4.2.5.2 0 .2 0 .5-.1.8-.9 4.9-7.7 22.4-13.6 29.9-6.4 8-37.5 7.3-37.5 7.3v6.1s18.7-.6 27.3-1.6 13.7-5.1 16.9-11.8 4.5-11.5 11.8-28.1c2.2-4.9 2.3-8.6 1.3-11.4-2.2-6.6-10.2-8.1-10.4-8.1s.9 14.7 3.8 16.7z"/><path fill="#60493B" d="M80.9 161.7c.1 1.4.2 3 .3 4.9.7-1.7 1.3-2.8 1.3-2.8s-.7-.8-1.6-2.1zm-4 47.8c-.1.4-.3.7-.4 1 .9 4.9 7.7 22.4 13.6 29.9 6.4 8 37.5 7.3 37.5 7.3V204s-37.1 3.4-46.5-16.6c-.1 1.8-.3 3.6-.5 5.4s-.8 14.7-3.7 16.7z"/><path fill="#8C6641" d="M127.6 8.4V0c-21 .1-40.8 5.2-58.3 14.2.8 6.6 5.2 12.4 7.9 15.3C91.3 10 127.6 8.4 127.6 8.4z"/><path fill="#60493B" d="M72.5 144.5c-1.2 9.2-5.5 20.7-9.4 20.1-2.9-.4-3-7.5-1.6-14.7-.1.2-.2.2-.2.2-2.2-5.7.3-10.9.7-11.7.4-.8 2.6-2.4 1.2-3.7-1.4-1.3-1.8-5.4 0-7.3 1.8-1.9 5.3 0 5.3 0l-.6 7c.9-.8 1.8-1.1 2.8-.9.3.1.5.2.7.4-.3-3-.7-6.3-1-9.6-2.2-1-4.7-2.2-5.6-3.3-1.8-2.1 1.4-8.6 1.8-10.4.1-.8 1-1.2 1.9-1.5-.1-.7-.2-1.4-.3-2l-1.9 1.1c-1.1 1-2.1 2.5-2.5 5-1 6.5-4.8 22.5-4.2 27.6.6 5.1-4.3 25.9 3 26.8 6.6.9 10.9-3.3 13.2-13.8-1.4-2.5-2.5-4.9-2.8-6.9-.2-.7-.3-1.5-.5-2.4z"/><path fill="#413024" d="M66.5 110.6c-.3 1.8-3.5 8.3-1.8 10.4.9 1.1 3.4 2.3 5.6 3.3-.6-5.4-1.3-10.8-2-15.2-.8.3-1.7.7-1.8 1.5zm1.4 23.8l.6-7s-3.5-1.9-5.3 0c-1.8 1.9-1.4 6.1 0 7.3 1.4 1.3-.8 2.9-1.2 3.7-.4.8-3 5.9-.7 11.7l.2-.2c1.3-6.5 3.7-13.1 6.4-15.5z"/><path fill="#65755E" d="M67.9 134.4c-2.7 2.4-5.1 9-6.3 15.4-1.4 7.3-1.3 14.3 1.6 14.7 3.9.6 8.1-10.9 9.4-20.1-.3-2.6-.7-6.3-1.1-10.5-.2-.2-.4-.3-.7-.4-1-.3-2 .1-2.9.9z"/><path fill="#775B4B" d="M127.6 204v-6.5c-11.2 0-32 .1-39.4-12l-.3.3s-8.9-13.9 1.4-24.9 22-15.3 23.7-16.3 9.4-3.5 9.4-3.5 2.4 2.9 5.2 4.2V48.7c-24.6 0-39.7 5.7-48.7 13.4-6.8 18.4-10.9 45-10.9 45 .1.6.2 1.3.3 2 .7 4.4 1.4 9.8 2 15.2.4 3.3.7 6.6 1 9.6.4 4.2.8 7.9 1.1 10.5.1 1 .2 1.8.3 2.4.3 2 1.4 4.5 2.8 6.9 1.7 3.1 3.8 6.1 5.2 8 .9 1.3 1.6 2.1 1.6 2.1s-.6 1.1-1.3 2.8c-1 2.5-2.2 6.4-2.2 10.6 0 4 .8 7.3 2.1 10.2 9.5 20 46.7 16.6 46.7 16.6zM84 74c3.8-2.5 11.3-5.2 14.6-4.4 3.4.7 12.7 5.7 18.4 6.7 0 0-4.6 4.8-7.9 3.4-3.4-1.4-14.6-3.4-14.6-3.4l2.6-.6s-3.6-1.3-6.7-1c-3.1.2-7.4 3.8-9.3 3.5-1.8-.3-.9-1.7 2.9-4.2zm-7.5 76c-4.2-7-5.6-31-5.6-31 2.9 6.2 4.9 7.2 12.1 12.8s9.6 18.8 9.6 18.8c-5.6 4.5-9.6 12.3-9.6 12.3s-2.3-5.8-6.5-12.9z"/><path fill="#593929" d="M81.2 78.2c1.9.2 6.2-3.3 9.3-3.5 3.1-.2 6.7 1 6.7 1l-2.6.6s11.3 1.9 14.6 3.4c3.4 1.4 7.9-3.4 7.9-3.4-5.7-1-15.1-6-18.4-6.7-3.4-.8-10.8 1.9-14.7 4.4-3.8 2.5-4.7 3.9-2.8 4.2z"/><path fill="#684F41" d="M92.7 150.7s-2.4-13.3-9.6-18.8-9.3-6.5-12.1-12.8c0 0 1.4 23.9 5.6 31s6.5 12.9 6.5 12.9 4-7.9 9.6-12.3z"/><path fill="#624B3D" d="M127.6 150.7v-5.4c-2.8-1.4-5.2-4.2-5.2-4.2s-7.7 2.6-9.4 3.5-13.4 5.3-23.7 16.3-1.4 24.9-1.4 24.9l.3-.3c-1.7-2.8-2.7-6.3-2.7-10.5 0-22.7 29.8-24.3 42.1-24.3z"/><path fill="#3D543F" d="M127.6 155.1v-4.4c-12.3 0-42.1 1.6-42.1 24.3 0 4.3 1 7.7 2.7 10.5 7.4 12.1 28.2 12 39.4 12v-42.4z"/><path fill="#342416" d="M68 107.1s4.1-26.5 10.8-44.9C58.8 79.4 68 107.1 68 107.1z"/><path fill="#918050" d="M68 107.1s-9.2-27.7 10.8-44.9c9.1-7.8 24.1-13.4 48.7-13.4V31.6c-52.4 0-61.4 27.7-61.8 29-4.2 20.5-3.6 40.9.3 47.7l2-1.2zM73.5 36l-1.2 2.7c1-2.3 1.7-3.8 1.9-4.2-.2.5-.5 1-.7 1.5z"/><path fill="#B39C63" d="M127.6 31.6V8.4s-36.3 1.7-50.5 21.2c-1.1 1.5-2.1 3.1-2.9 4.9v.1c-.2.4-.9 1.9-1.9 4.2-2.1 4.8-5.2 13.1-6.5 21.9.4-1.4 9.4-29.1 61.8-29.1z"/><path fill="#4E4522" d="M100.3 252.2c-8.6-1-13.7-5.1-16.9-11.8-1-2.1-1.8-4-2.7-6.2.9 4.5 1.9 9.2 2.9 13.9 13.7 5.1 28.6 7.9 44 7.9v-2.2s-18.7-.6-27.3-1.6z"/><path fill="#806F4B" d="M80.7 234.2c.9 2.2 1.7 4.1 2.7 6.2 3.2 6.7 8.3 10.9 16.9 11.8 8.6 1 27.3 1.6 27.3 1.6v-6.1s-31.1.6-37.5-7.3c-6-7.5-12.8-25.1-13.6-29.9-.1-.3-.1-.6-.1-.8.2 0 .4-.1.5-.2 2.9-1.9 3.7-16.6 3.7-16.6-.1 0-5.6 1-8.8 5.1.8 1.7 1.6 3.8 2.3 6.3 1.5 5.5 3.9 17 6.6 29.9z"/><path fill="#846542" d="M74.1 204.2c-.7-2.5-1.4-4.5-2.3-6.3-3.9-8.1-8.8-8.2-8.8-8.2l-4.3 2.4c.1.2.2.5.3.7 0 0 5.8 3.3 2.1 8.2 0 0 8.5.8 3 9.3 0 0 7.3 1.9 4 9.3 0 0 6.7 4.9.9 13.6 0 0 5.6 2.4 3 9.9 3.8 1.8 7.7 3.5 11.6 5-1-4.7-1.9-9.4-2.9-13.9-2.7-12.9-5.1-24.4-6.6-30z"/><path fill="#5D542F" d="M63.2 234.8s-9.1-8-1.1-12.8c0 0-9.7-4.9-3.2-11.7 0 0-8.5-4.2-4.6-8.9l-3-4.2s-1.4-2.2-3.8-2.8c-4 1.8-11.3 4.7-20.5 5.8.9 2.7 1.9 6.1 3 10 8.8 10.5 19.3 19.6 31.1 26.9.5-.8 1.2-1.6 2.1-2.3z"/><path fill="#E0C29D" d="M68.9 233.2c5.8-8.6-.9-13.6-.9-13.6 3.4-7.3-4-9.3-4-9.3 5.6-8.5-3-9.3-3-9.3 3.7-4.9-2.1-8.2-2.1-8.2-.1-.3-.2-.5-.3-.7-1.7-4.3-4.5-2.4-4.5-2.4s-1.4-3.1-4.3-3.4c-2.9-.2-3.6 3.4-3.6 3.4l-1.9 4.8c1.2-.4 2.2-.4 3.1-.1 2.3.7 3.8 2.8 3.8 2.8l3 4.2c-3.8 4.8 4.6 8.9 4.6 8.9C52.2 217.1 62 222 62 222c-8 4.8 1.1 12.8 1.1 12.8-1 .7-1.7 1.5-2.2 2.3 3.5 2.2 7.1 4.2 10.9 6 2.7-7.5-2.9-9.9-2.9-9.9z"/><path fill="#BFA56F" d="M27 200.3c-1-3-1.9-5.1-2.5-5.9 0 0-1.8 1.6-4.4 2.3 3 4.7 6.3 9.3 9.9 13.6-1.1-3.9-2.1-7.3-3-10z"/></svg>