<svg xmlns="http://www.w3.org/2000/svg" width="256" height="256"><circle fill="#B1B3B5" cx="128" cy="128" r="128"/><path fill="#38220E" d="M153.4 203.2c7.8-4.5 10.1-20.8 10.7-28.5-10.9 1.5-24.9 2.3-36.1 2.3v31.8c0 .1 15.1.3 25.4-5.6z"/><path fill="#202F4B" d="M188.7 235.4l3.4-8.4 1-10.1c-3.2-2.3-2.9-4.2-2.7-8.8-2-1.8-1.5-5.3-1-9.6-2.7-8.4-9.6-18-9.6-18l2.5-6.4c0-.3 0-.6.1-.9.1-1.1.2-2.2.5-3.4-1.3.4-2.5.9-3.7 1.4-.7.3-1.4.6-2.3.9-3.3 33-29.4 39.2-42 40.2v43.5c10.5-.5 20.6-2.3 30.2-5.2-.4-.3-.6-.4-.6-.4l5.6-11.2 9.8 6.2c3.1-1.4 6.1-2.8 9-4.4.2-1.7.7-3 1.3-3.9l-1.5-1.5z"/><path fill="#31353A" d="M204.4 222.9l-1.6 6.8c.3.6.5 1.2.6 1.8 2.5-1.8 5-3.8 7.3-5.8-2.1-.8-4.1-1.7-6.3-2.8zm-40 27.3s.2.1.6.4c5.1-1.5 10-3.4 14.8-5.5l-9.8-6.2-5.6 11.3z"/><path fill="#151B28" d="M134.7 212.4c-4.1.3-6.7.1-6.7.1V256c2.3 0 4.5-.1 6.7-.2v-43.4z"/><path fill="#14223C" d="M164.1 174.8c-.6 7.6-2.9 24-10.7 28.5-10.3 5.9-25.4 5.6-25.4 5.6v3.6s2.6.2 6.7-.1c12.6-1 38.7-7.2 42-40.2-3.1 1-7.5 1.9-12.6 2.6z"/><path fill="#503622" d="M219 107.2c-1-.8-2-1.6-2.9-2.4l-4.2 1.2 7.1 1.2zm5 4.7h3.3c-2.8-1-5.4-2.5-7.9-4.3l-6.8 1c.1 0 6 1.5 11.4 3.3zm9 23.5h4l-4.7-.6zm-8.7-13.6s1.7.8 3.9 2l3.3-1.4-3.4-1.8 2 1.2h-5.8zm6.9 8s6.8 1.8 12 3.8l-6-2.7h5.2l-6.7-2.9c1.1.7 2 1.3 2.5 1.8h-7zm-8.3-14.9l5.4 2.2-2.8-3-4-.6zm-1.4-74.3c-.7-.7-1.4-1.5-2.1-2.2l-4 2.2h6.1zm-13.5-6s.6-2.5-5 1.7-17.7 12.4-17.7 12.4l-6.9-2.2 3-1.4-12.7-1.4 5.5-2.5c-16-1.7-25.4 0-25.4 0v-3.6l-10.2 3.6 3.3-3.6-9.1 1.7 1.1-2.8-6 3.3v5.5l2.9 5.8 4.1-5.8v2.9l6.6-2.9-1.1 2.9 11-2.9-3.3 2.9 17.4 1.2-5.5 1.7 15.7 1.1-8.8 1.4h16.3l-1.9 2.2s7.5-3.6 10.5-7.7c1.7-2.4 4.9-4.8 7.2-6.4 1.7-1.2 3-1.9 3-1.9l8.3-2.2s-4.4 3.9-2.8 3c1.3-.7 6.3-3.3 10.5-3.4-1.7-1.7-3.4-3.3-5.2-4.9l-.7.3-4.1 2zm7.1 69.4l-2.1-2.1h-4.8l5.6 2.1h1.3zm8.5-61.1c-.3-.4-.6-.7-.9-1.1l-1.7.7 2.6.4zm0 3.6l-2 1.9 2 1.1-4.8 6.4.6 3.3s-1.1 6.4-6.1 10.8-9.4 8.8-9.4 8.8-1.9-.3.6 4.1h-3.9l4.4 4.7h-3.3l3.6 3.3h-1.9l4.6 5c-1-1.4-1.6-2.3-1.6-2.3s1.9-8.8 2.8-12.2c.8-3.3 10.5-9.4 10.5-9.4l-3.3-1.7 7.3-5h-4.2c3.3-3.3 10.8-5.8 10.8-5.8l-6.5-5.2h7.9l-4.7-4.1 2.3-.8c-1.5-2-3.1-3.9-4.8-5.8l-2 1.1 1.1 1.8zm10.6 103.8l.9-.2-1.4-.4zm-.3-10.5h1.9l-1.2-1c-.3.1-.5.1-.8.1.2.2.2.5.1.9zm-4.4 2.5l4.5 3.7 5.5-.9-5.6-3.8c-.2 1.4-.4 2.7-.4 2.7l-4-1.7z"/><path fill="#503622" d="M145 110.8l-1.1 3h6.9l4.1 3H151l6.4 2.2-1.9 1.7 8.8 3s-6.4-1.1-5 0c1.4 1.1 5 8.6 5 8.6h-3l3 4.7s-3.6-1.4-3.3 0c.3 1.4 1.1 8.6 1.1 8.6l-1.7 7.7-.8-3.6-1.9 7.7-1.7-2.8-3.9 5.2-2.2-2.2-4.7 4.4-2.5-2.5s-3.3 3-7.2 4.4-1.4-1.7-1.4-1.7l-6.3 3.3v11.3c11.2 0 25.2-.8 36.1-2.3 5.1-.7 9.4-1.6 12.6-2.6.9-.3 1.6-.6 2.3-.9 1.2-.6 2.5-1 3.7-1.4 7.3-2.3 14.8-2.1 14.8-2.1h4.1l.6-2.8 4.7 1.1-3.3-5.5H221l-8.5-3.6s.8 1.9 1.4 2.8c.6.8-11.6-8-14.6-14.6l13.8 9.1-2.5-4.7 10.5 1.9-12.7-7.7-8.6-6.9 4.7.3s-2.2-1.9-1.4-2.2c.8-.3 4.1-2.4 4.1-2.4l-6.1-.3 3.9-1.4 12.4 1.4-13.5-5.2-.3-3 15.2 4.7s-11-7.7-21.5-7.7l6.6-2.2-6.9-1.4s10.4-.6 20.2 1.1c0 0-16-5.8-24.9-5l2.5-2.5h-4.1l5-3s-4.1-2.5-6.9-1.7c0 0 5.8-5 11.9-5l-3.6 3.2 7.5-.7-2.5 2.5s6.4-1.9 11.9-2.1c-3.2-1.1-15.6-5.2-27.4-8.7h-1.9l3 4.4h-3.6l1.1 3-4.4 1.5s-10.5-11.7-16.6-9.8c-5.7 1.8-9.7 4.3-12.6 4.4-3.6 4-7.2 8.9-9.9 13.4.7-.4 1.4-.8 2-1.1.4 0 .9-.2 1.3-.3zm95.9 38.1l-4.9-1.3 2.2 1.9zm-15.8 6.1c.5.3 1.6 1.6 2.6 3.1l4 .8-2.9-3c-2.2-.7-4.2-1.2-3.7-.9z"/><path fill="#C0A378" d="M137.8 134.5c-.3.1-.7.2-1.2.3-.1 1.2 0 2.4.3 3.4l-2.1-.8 1.9 4.1-1.9-1s1.6 3.5 0 4.6c-1.6 1-6.8 2.1-6.8 2.1v18.5l6.3-3.3s-2.5 3 1.4 1.7 7.2-4.4 7.2-4.4l2.5 2.5 4.7-4.4 2.2 2.2 3.9-5.2 1.7 2.8 1.9-7.7.8 3.6 1.7-7.7s-.8-7.2-1.1-8.6c-.3-1.4 3.3 0 3.3 0l-3-4.7h3s-3.6-7.5-5-8.6c-1.4-1.1 5 0 5 0l-8.8-3 1.9-1.7-6.4-2.2h3.9l-4.1-3h-6.9l1.1-3c-.5.1-1 .3-1.5.5-.7.3-1.4.7-2 1.1-1.3 2.2-2.4 4.2-3.2 6.1.8.4 1.5.8 2 1.4 3.4 3.7-1.3 13.9-2.7 14.4z"/><path fill="#38220E" d="M210.5 37.6l-8.3 2.2s-1.3.7-3 1.9c-2.3 1.6-5.4 4-7.2 6.4-3 4.1-10.5 7.7-10.5 7.7l1.9-2.2h-16.3l8.8-1.4-15.7-1.1 5.5-1.7-17.4-1.2 3.3-2.9-11 2.9 1.1-2.9-6.6 2.9v-2.9l-4.1 5.8-2.9-5.8v72.4s6.2-1.2 10.3.8c.8-1.9 1.9-3.9 3.2-6.1 2.7-4.5 6.3-9.4 9.9-13.4h-.6c-3-.3-5.7-6.7-4.1-10.2.4-.9 1.1-9.2 16-8.2l-6.4 4.1h5.2l-1.7 1.1s8.8-.6 12.7 0-3.9 1.4-3.9 1.4 6.9.3 8 .6c1.1.3-3.3 1.1-3.3 1.1l5.6 3 1.1.6 7.5 3h-1.1c11.8 3.5 24.1 7.6 27.4 8.7h.1l-5.6-2.1h5.3l-5.6-6-4.6-5h1.9l-3.6-3.3h3.3l-4.4-4.7h3.9c-2.5-4.4-.6-4.1-.6-4.1s4.4-4.4 9.4-8.8 6.1-10.8 6.1-10.8l-.6-3.3 4.8-6.4-2-1.1 2-1.9-1.2-1.7 2-1.1c-.2-.3-.5-.5-.7-.8l-2.6-.3 1.7-.7c-.4-.4-.7-.8-1.1-1.2h-6.1l4-2.2-1.2-1.2c-4.2.1-9.1 2.8-10.5 3.4-1.9.6 2.5-3.3 2.5-3.3zm-61.9 38.5v2.6s-2.1 6.9-4.1 9l-.8-5.4s1.2 10.4-8.3 12c0 0-2.2-9.2 1.6-17.8.6-1.3 1.2-2.5 2.1-3.7l2.1-2.5v2.5l5.4-2.5v3.3l-2.1 3.3 4.1-3.3v2.5zm63.7-27.2l-3.3 1.4 3.3 2.5-4.1.8 2.5 2.5-3.6 2.5.6 5.2s-.6 12.2-8.6 14.9c0 0-6.1-15.2-11.6-18.2 0 0 5.8-7.7 13.8-10.8l6.4-2.1 4.6-1.5v2.8z"/><path fill="#1F0800" d="M201.3 49.7c-8 3-13.8 10.8-13.8 10.8 5.5 3 11.6 18.2 11.6 18.2 8-2.8 8.6-14.9 8.6-14.9l-.6-5.2 3.6-2.5-2.5-2.5 4.1-.8-3.3-2.5 3.3-1.4v-2.8l-4.6 1.5-6.4 2.1z"/><path fill="#C0A378" d="M180.6 104.3l4.4-1.5-1.1-3h3.6l-3-4.4h3l-7.5-3-1.1-.6-5.6-3s4.4-.8 3.3-1.1c-1.1-.3-8-.6-8-.6s7.7-.8 3.9-1.4-12.7 0-12.7 0l1.7-1.1h-5.2l6.4-4.1c-14.9-1-15.6 7.3-16 8.2-1.6 3.5 1.1 9.9 4.1 10.2h.6c3-.1 7-2.6 12.6-4.4 6.1-2 16.6 9.8 16.6 9.8zm23.8-.7l-7.5.7 3.6-3.2c-6.1 0-11.9 5-11.9 5 2.8-.8 6.9 1.7 6.9 1.7l-5 3h4.1l-2.5 2.5c8.8-.8 24.9 5 24.9 5-9.8-1.7-20.2-1.1-20.2-1.1l6.9 1.4-6.6 2.2c10.5 0 21.5 7.7 21.5 7.7l-15.2-4.7.3 3 13.5 5.2-12.4-1.4-3.9 1.4 6.1.3s-3.3 2.2-4.1 2.4c-.8.3 1.4 2.2 1.4 2.2l-4.7-.3 8.6 6.9 12.7 7.7-10.5-1.9 2.5 4.7-13.8-9.1c3 6.6 15.2 15.5 14.6 14.6-.6-.8-1.4-2.8-1.4-2.8l8.5 3.6 5.9 2.5-1.2-3 4.4 1.7-2.4-3.6c-1-1.4-2.1-2.8-2.6-3.1-.5-.3 1.5.3 3.7.9 2.3.6 4.8 1.3 4.8 1.3l-3.9-4.7 7.5 1.4-3.1-3.5-.5-.6 1.5.4 5.7 1.5-2.6-2.2-2.2-1.9-2-1.6-4.5-3.7 3.9 1.7s.3-1.3.4-2.7c.1-.5.1-1 .1-1.4v-.9c.2 0 .5-.1.8-.1 1-.2 2-.5 2-.5l-3.7-2.9-.7-.6 4.7.6 11.8 1.4c-.9-1-3.1-2.1-5.6-3.1-5.3-2.1-12-3.8-12-3.8h7.2c-.5-.5-1.4-1.1-2.5-1.8-2.2-1.4-5.3-3-7.7-4.3-2.2-1.2-3.9-2-3.9-2h5.8l-2-1.2-1.2-.7h8.2l-6.8-2.8-5.4-2.2-1.4-1.4 4 .5 1.4.2 4.8.6c-1.6-.9-4.6-2-7.8-3-5.4-1.8-11.3-3.3-11.3-3.3l6.8-1 1-.1-1.5-.2-7.1-1.1 4.2-1.2 1.9-.6c-.8-.2-1.8-.3-2.8-.3h-1.4c-5.4.2-11.9 2.1-11.9 2.1l2.8-2.4z"/><path fill="#3D332B" d="M134.8 140.5l1.9 1-1.9-4.1 2.1.8c-.4-1-.4-2.2-.3-3.4-2.1.3-5.4.1-5.4-2.8 0-3.6 0-5 3.6-4.1 3.6.8 1.6-5-1.1-4.1-2.8.8-2.8 5.5-5.7 5.5v17.9s5.2-1 6.8-2.1c1.6-1 0-4.6 0-4.6z"/><path fill="#1C1815" d="M128 121.9v7.4c2.9 0 2.9-4.7 5.7-5.5 2.8-.8 4.7 5 1.1 4.1-3.6-.8-3.6.6-3.6 4.1 0 2.9 3.3 3.1 5.4 2.8.5-.1 1-.2 1.2-.3 1.4-.6 6.1-10.8 2.5-14.6-.6-.6-1.3-1.1-2-1.4-4.1-2-10.3-.8-10.3-.8v4.2z"/><path fill="#C0A378" d="M146.5 73.6v-3.3l-5.4 2.5v-2.5l-2.1 2.5c-.8 1.2-1.5 2.5-2.1 3.7-3.8 8.7-1.6 17.8-1.6 17.8 9.5-1.7 8.3-12 8.3-12l.8 5.4c2.1-2.1 4.1-9 4.1-9v-5.1l-4.1 3.3 2.1-3.3z"/><path fill="#395364" d="M222.3 195.3c1.1 6.1 1.2 13.4.9 18.3.7-.7 1.3-1.5 1.9-2.2 0-5.3-.6-11.1-2.4-15.7 0-.1-.1-.2-.4-.4zm-39.7-22.1zm10.4 43.7l.7-7.4c-.4-.1-.9-.2-1.4-.4-.9-.2-1.5-.6-2-1.1-.2 4.7-.5 6.6 2.7 8.9zm-13.3-36.4s6.9 9.6 9.6 18c.3-2.4.6-5 .5-7.8-.3-8.3-6.2-15.8-7.4-17.2l-.3.7-2.4 6.3zm27 33.1l-2.3 9.3c2.2 1.1 4.2 1.9 6.2 2.8 2.4-2 4.8-4.2 7-6.4-2.8-1-6.6-3.4-10.9-5.7z"/><path fill="#1F2C31" d="M204.4 222.9l2.3-9.3c-.6-.3-1.3-.7-2-1-2.8-1.4-5.7-1.7-11-3.1l-.7 7.4-1 10.1 9 6.1c.8-.5 1.5-1.1 2.3-1.6-.1-.5-.2-1.1-.6-1.8l1.7-6.8z"/><path fill="#0E1B20" d="M192 227l-3.4 8.4 1.4 1.3c1.9-3 4.9-2.8 4.9-2.8h-.1c1.4-.1 2.5.3 3.4 1 .9-.6 1.8-1.2 2.8-1.9l-9-6z"/><path fill="#36454B" d="M194.9 234c-2.9 1-3.6 2.9-3.7 5.3 2.4-1.4 4.7-2.8 7-4.3-.7-.7-1.9-1.1-3.3-1z"/><path fill="#1F2C31" d="M194.9 234c.1 0 .1 0 0 0 .1 0-3-.2-4.9 2.7-.6.9-1.1 2.2-1.3 3.9.8-.5 1.7-.9 2.5-1.4.1-2.3.8-4.2 3.7-5.2z"/><path fill="#4A3A2E" d="M222.3 195.3c-1-5.5-2.9-9.9-6-10.8-7.3-2-13.8-3.4-18.8-5.1-5-1.7-9.9-6.3-14.9-6.2h-.3l.2.2c1.2 1.4 7.1 8.9 7.4 17.2.1 2.8-.2 5.5-.5 7.8-.5 4.4-1 7.8 1 9.6.5.5 1.2.8 2 1.1.5.1.9.2 1.4.4 5.3 1.4 8.2 1.7 11 3.1.7.3 1.3.7 2 1 4.3 2.3 8.1 4.7 11 5.7 1.9-1.9 3.7-3.8 5.5-5.7.2-4.9.1-12.2-1-18.3z"/><path fill="#1F0800" d="M102.6 203.2c10.3 5.9 25.4 5.6 25.4 5.6V177c-11.2 0-25.2-.8-36.1-2.3.6 7.7 2.9 24.1 10.7 28.5z"/><path fill="#14223C" d="M121.3 212.4c-12.6-1-38.7-7.2-42-40.2-.9-.3-1.6-.6-2.3-.9-1.2-.6-2.5-1-3.7-1.4.2 1.1.4 2.2.5 3.4 0 .3.1.6.1.9l2.5 6.4s-6.9 9.6-9.6 18c.5 4.4 1 7.8-1 9.6.2 4.6.5 6.5-2.7 8.8l1 10.1 3.4 8.4-1.4 1.3c.6.9 1.1 2.2 1.3 3.9 2.9 1.6 6 3.1 9 4.4l9.8-6.2 5.6 11.2s-.2.1-.6.4c9.6 2.9 19.8 4.7 30.2 5.2v-43.3z"/><path fill="#24282D" d="M86 238.9l-9.8 6.2c4.8 2.1 9.7 3.9 14.8 5.5.4-.3.6-.4.6-.4L86 238.9zm-34.4-16c-2.2 1.1-4.2 1.9-6.2 2.8 2.4 2 4.8 3.9 7.3 5.8.1-.5.2-1.1.6-1.8l-1.7-6.8z"/><path fill="#000110" d="M128 212.5s-2.6.2-6.7-.1v43.5c2.2.1 4.5.2 6.7.2v-43.6z"/><path fill="#020F28" d="M128 208.9s-15.1.3-25.4-5.6c-7.8-4.5-10.1-20.8-10.7-28.5-5.1-.7-9.4-1.6-12.6-2.6 3.3 33 29.4 39.2 42 40.2 4.1.3 6.7.1 6.7.1v-3.6z"/><path fill="#38220E" d="M25.9 121.8l2-1.2-3.4 1.8 3.3 1.4c2.2-1.2 3.9-2 3.9-2h-5.8zM19 135.4h4l.7-.6zm3.1 3.5c-.2 0-.5-.1-.8-.1l-1.2 1H22c0-.4 0-.7.1-.9zm-4.5-9.1c.5-.5 1.4-1.1 2.5-1.8l-6.7 2.9h5.2l-6 2.7c5.3-2.1 12-3.8 12-3.8h-7zm27.9-92.2l8.3 2.2s1.3.7 3 1.9c2.3 1.6 5.4 4 7.2 6.4 3 4.1 10.5 7.7 10.5 7.7l-1.9-2.2h16.3L80 52.2l15.7-1.1-5.5-1.7 17.4-1.2-3.3-2.9 11 2.9-1.1-2.9 6.6 2.9v-2.9l4.1 5.8 2.9-5.8v-5.5l-6-3.3 1.1 2.8-9.1-1.7 3.3 3.6-10.2-3.6v3.6s-9.4-1.7-25.4 0l5.5 2.5L74.5 45l3 1.4-6.9 2.2s-12.2-8.3-17.7-12.4-5-1.7-5-1.7l-4.3-1.9-.6-.3c-1.8 1.6-3.5 3.2-5.2 4.9 4.2.1 9.1 2.8 10.5 3.4 1.6.9-2.8-3-2.8-3zM15.1 148.9l2.7.6 2.2-1.9zm15.8 6.1c.5-.3-1.5.3-3.7.9l-2.9 3 4-.8c1-1.5 2.1-2.9 2.6-3.1zM24.5 54.4h7.9l-6.5 5.2s7.5 2.5 10.8 5.8h-4.2l7.3 5-3.3 1.7s9.7 6.1 10.5 9.4c.8 3.3 2.8 12.2 2.8 12.2s-.6.9-1.6 2.3l4.6-5h-1.9l3.6-3.3H51l4.4-4.7h-3.9c2.5-4.4.6-4.1.6-4.1s-4.4-4.4-9.4-8.8-6.1-10.8-6.1-10.8l.6-3.3-4.8-6.4 2-1.1-2-1.9 1.2-1.7-2-1.1c-1.6 1.9-3.2 3.8-4.8 5.8l2.3.8-4.6 4zm10 59.1l-4 .6-2.8 3 5.4-2.2zm-1.1-71.7c-.3.3-.6.7-.9 1.1l2.6-.3-1.7-.8zm8.7 62.2l5.6-2.1h-4.8l-2.1 2.1h1.3zm-5.6 3.6c-2.4 1.8-5.1 3.3-7.9 4.3H32c5.4-1.8 11.3-3.3 11.3-3.3l-6.8-1zm-13.9 36.3s-.3-1.3-.4-2.7l-5.6 3.8 5.4 1 4.5-3.7-3.9 1.6zm-1.7 6.2l.9.2.5-.6zM36.6 38.4c-.7.7-1.4 1.5-2.1 2.2h6.1l-4-2.2zm3.3 66.4c-.9.8-1.9 1.6-2.9 2.4l7.1-1.1-4.2-1.3z"/><path fill="#38220E" d="M79.3 172.1c3.1 1 7.5 1.9 12.6 2.6 10.9 1.5 24.9 2.3 36.1 2.3v-11.3l-6.3-3.3s2.5 3-1.4 1.7-7.2-4.4-7.2-4.4l-2.5 2.5-4.7-4.4-2.2 2.2-3.9-5.2-1.7 2.8-1.9-7.7-.8 3.6-1.7-7.7s.8-7.2 1.1-8.6c.3-1.4-3.3 0-3.3 0l3-4.7h-3s3.6-7.5 5-8.6c1.4-1.1-5 0-5 0l8.8-3-1.9-1.7 6.4-2.2H101l4.1-3h6.9l-1.1-3c.5.1 1 .3 1.5.5.7.3 1.4.7 2 1.1-2.7-4.5-6.3-9.4-9.9-13.4-3-.1-7-2.6-12.6-4.4-6.1-1.9-16.6 9.8-16.6 9.8l-4.4-1.5 1.1-3h-3.6l3-4.4h-1.9c-11.8 3.5-24.1 7.6-27.4 8.7 5.4.2 11.9 2.1 11.9 2.1l-2.5-2.5 7.5.7-3.6-3.2c6.1 0 11.9 5 11.9 5-2.8-.8-6.9 1.7-6.9 1.7l5 3h-4.1l2.5 2.5c-8.8-.8-24.9 5-24.9 5 9.8-1.7 20.2-1.1 20.2-1.1l-6.9 1.4 6.6 2.2c-10.5 0-21.5 7.7-21.5 7.7l15.2-4.7-.3 3-13.6 4.8 12.4-1.4 3.9 1.4-6.1.3s3.3 2.2 4.1 2.4c.8.3-1.4 2.2-1.4 2.2l4.7-.3-8.6 6.9-12.6 7.9 10.5-1.9-2.5 4.7 13.8-9.1c-3 6.6-15.2 15.5-14.6 14.6.6-.8 1.4-2.8 1.4-2.8l-8.5 3.6h17.4l-3.3 5.5 4.7-1.1.6 2.8h4.1s7.4-.2 14.8 2.1c1.3.4 2.5.9 3.7 1.4.6.4 1.3.7 2.2.9z"/><path fill="#897656" d="M111 110.8l1.1 3h-6.9l-4.1 3h3.9l-6.4 2.2 1.9 1.7-8.8 3s6.4-1.1 5 0c-1.4 1.1-5 8.6-5 8.6h3l-3 4.7s3.6-1.4 3.3 0c-.3 1.4-1.1 8.6-1.1 8.6l1.7 7.7.8-3.6 1.9 7.7 1.7-2.8 3.9 5.2 2.2-2.2 4.7 4.4 2.5-2.5s3.3 3 7.2 4.4 1.4-1.7 1.4-1.7l6.3 3.3V147s-5.2-1-6.8-2.1c-1.6-1 0-4.6 0-4.6l-1.9 1 1.9-4.1-2.1.8c.4-1 .4-2.2.3-3.4-.5-.1-1-.2-1.2-.3-1.4-.6-6.1-10.8-2.5-14.6.6-.6 1.3-1.1 2-1.4-.8-1.9-1.9-3.9-3.2-6.1-.7-.4-1.4-.8-2-1.1-.8 0-1.3-.2-1.7-.3z"/><path fill="#1F0800" d="M32.4 46.5l2 1.9-2 1.1 4.8 6.4-.6 3.3s1.1 6.4 6.1 10.8 9.4 8.8 9.4 8.8 1.9-.3-.6 4.1h3.9L51 87.6h3.3l-3.6 3.3h1.9l-4.6 5-5.6 6h5.3l-5.6 2.1h.1c3.2-1.1 15.6-5.2 27.4-8.7h-1.1l7.5-3 1.1-.6 5.6-3s-4.4-.8-3.3-1.1c1.1-.3 8-.6 8-.6s-7.7-.8-3.9-1.4 12.7 0 12.7 0l-1.7-1.1h5.2l-6.4-4.1c14.9-1 15.6 7.3 16 8.2 1.6 3.5-1.1 9.9-4.1 10.2h-.6c3.6 4 7.2 8.9 9.9 13.4 1.3 2.2 2.4 4.2 3.2 6.1 4.1-2 10.3-.8 10.3-.8V45.3l-2.9 5.8-4.1-5.8v2.9l-6.6-2.9 1.1 2.9-11-2.9 3.3 2.9-17.4 1.2 5.5 1.7L80 52.2l8.8 1.4H72.6l1.9 2.2S67 52.2 64 48.1c-1.7-2.4-4.9-4.8-7.2-6.4-1.7-1.2-3-1.9-3-1.9l-8.3-2.2s4.4 3.9 2.8 3c-1.3-.7-6.3-3.3-10.5-3.4l-1.2 1.2 4 2.2h-6.1c-.4.4-.7.8-1.1 1.2l1.7.7-2.6.3c-.2.3-.5.5-.7.8l2 1.1-1.4 1.8zm75 29.6v-2.5l4.1 3.3-2.1-3.3v-3.3l5.4 2.5v-2.5l2.1 2.5c.8 1.2 1.5 2.5 2.1 3.7 3.8 8.7 1.6 17.8 1.6 17.8-9.5-1.7-8.3-12-8.3-12l-.8 5.4c-2.1-2.1-4.1-9-4.1-9v-2.6zM43.7 48.9v-2.8l4.6 1.5 6.4 2.1c8 3 13.8 10.8 13.8 10.8-5.5 3-11.6 18.2-11.6 18.2-8-2.8-8.6-14.9-8.6-14.9l.6-5.2-3.6-2.5 2.5-2.5-4.1-.8 3.3-2.5-3.3-1.4z"/><path d="M47.8 53.6l-2.5 2.5 3.6 2.5-.6 5.2s.6 12.2 8.6 14.9c0 0 6.1-15.2 11.6-18.2 0 0-5.8-7.7-13.8-10.8l-6.4-2.1-4.6-1.5v2.8l3.3 1.4-3.3 2.5 4.1.8z"/><path fill="#897656" d="M68.5 99.7h3.6l-1.1 3 4.4 1.5S85.9 92.5 92 94.4c5.7 1.8 9.7 4.3 12.6 4.4h.6c3-.3 5.7-6.7 4.1-10.2-.4-.9-1.1-9.2-16-8.2l6.4 4.1h-5.2l1.7 1.1s-8.8-.6-12.7 0 3.9 1.4 3.9 1.4-6.9.3-8 .6c-1.1.3 3.3 1.1 3.3 1.1l-5.6 3-1.1.6-7.5 3h3l-3 4.4zm-26.3 60c-.6.8 11.6-8 14.6-14.6l-13.8 9 2.5-4.7-10.5 2 12.7-7.7 8.6-6.9-4.7.3s2.2-1.9 1.4-2.2c-.8-.3-4.1-2.4-4.1-2.4l6.1-.3-3.9-1.4-12.5 1.2 13.5-5.2.3-3-15.2 4.7s11-7.7 21.5-7.7l-6.6-2.2 6.9-1.4s-10.4-.6-20.2 1.1c0 0 16-5.8 24.9-5l-2.5-2.5h4.1l-5-3s4.1-2.5 6.9-1.7c0 0-5.8-5-11.9-5l3.6 3.2-7.5-.7 2.5 2.5s-6.4-1.9-11.9-2.1h-1.4c-1 0-2 .1-2.8.3l1.9.6 4.2 1.2-7.1 1.1-1.5.2 1 .1 6.8 1s-5.9 1.5-11.3 3.3c-3.1 1-6.2 2.1-7.8 3l4.8-.6 1.4-.2 4-.5-1.4 1.4-5.4 2.2-6.8 2.8h8.2l-1.2.7-2 1.2h5.8s-1.7.8-3.9 2c-2.4 1.3-5.4 2.9-7.7 4.3-1.1.7-2 1.3-2.5 1.8h7.2s-6.8 1.8-12 3.8c-2.5 1-4.7 2.1-5.6 3.1l11.8-1.4 4.7-.6-.7.6-3.7 2.9s1 .3 2 .5c.3.1.5.1.8.1v.9c0 .4.1.9.1 1.4.2 1.4.4 2.7.4 2.7l3.9-1.7L22 146l-2 1.6-2.2 1.9-2.6 2.2 5.7-1.5 1.5-.4-.5.6-3.1 3.5 7.5-1.4-3.9 4.7s2.5-.7 4.8-1.3c2.2-.6 4.3-1.1 3.7-.9-.5.3-1.6 1.6-2.6 3.1-1.2 1.7-2.4 3.6-2.4 3.6l4.4-1.7-1.2 3 5.9-2.5 8.5-3.6c.1 0-.7 1.9-1.3 2.8z"/><path fill="#1C1815" d="M122.3 123.8c-2.8-.8-4.7 5-1.1 4.1 3.6-.8 3.6.6 3.6 4.1 0 2.9-3.3 3.1-5.4 2.8.1 1.2 0 2.4-.3 3.4l2.1-.8-1.9 4.1 1.9-1s-1.6 3.5 0 4.6c1.6 1 6.8 2.1 6.8 2.1v-17.9c-2.9 0-2.9-4.7-5.7-5.5z"/><path d="M118.2 134.5c.3.1.7.2 1.2.3 2.1.3 5.4.1 5.4-2.8 0-3.6 0-5-3.6-4.1-3.6.8-1.6-5 1.1-4.1 2.8.8 2.8 5.5 5.7 5.5v-11.6s-6.2-1.2-10.3.8c-.8.4-1.5.8-2 1.4-3.6 3.9 1.1 14.1 2.5 14.6z"/><path fill="#897656" d="M112.4 82.3s-1.2 10.4 8.3 12c0 0 2.2-9.2-1.6-17.8-.6-1.3-1.2-2.5-2.1-3.7l-2.1-2.5v2.5l-5.4-2.5v3.3l2.1 3.3-4.1-3.3v5.1s2.1 6.9 4.1 9l.8-5.4z"/><path fill="#2B4150" d="M33.7 195.3c-.3.2-.5.4-.5.4-1.8 4.6-2.3 10.4-2.4 15.7.6.7 1.3 1.5 1.9 2.2-.2-4.9-.1-12.2 1-18.3zm39.7-22.1zm-7.2 17.4c-.1 2.8.2 5.5.5 7.8 2.7-8.4 9.6-18 9.6-18l-2.5-6.4-.3-.7c-1.1 1.5-7.1 9-7.3 17.3zm-3.9 18.9l.7 7.4c3.2-2.3 2.9-4.2 2.7-8.8-.5.5-1.2.8-2 1.1-.5.1-1 .2-1.4.3zm-10.7 13.4l-2.3-9.3c-4.3 2.3-8.1 4.7-11 5.7 2.3 2.2 4.6 4.3 7 6.4 2.1-.8 4.1-1.7 6.3-2.8z"/><path fill="#0E1B20" d="M64 227l-1-10.1-.7-7.4c-5.3 1.4-8.2 1.7-11 3.1-.7.3-1.3.7-2 1l2.3 9.3 1.6 6.8c-.3.6-.5 1.2-.6 1.8.8.5 1.5 1.1 2.3 1.6L64 227z"/><path fill="#000A10" d="M61.1 234c-.1 0-.1 0 0 0-.1 0 3-.2 4.9 2.7l1.4-1.3L64 227l-9 6.1c.9.6 1.8 1.3 2.8 1.9.7-.7 1.9-1.1 3.3-1z"/><path fill="#1F2C31" d="M61.1 234c-1.4-.1-2.5.3-3.4 1 2.3 1.5 4.6 3 7 4.3 0-2.4-.7-4.3-3.6-5.3z"/><path fill="#0E1B20" d="M61 234c3 1 3.7 2.9 3.7 5.3.8.5 1.7.9 2.5 1.4-.2-1.7-.7-3-1.3-3.9C64 233.7 61 234 61 234z"/><path fill="#32251A" d="M49.3 213.6c.6-.3 1.3-.7 2-1 2.8-1.4 5.7-1.7 11-3.1.4-.1.9-.2 1.4-.4.9-.2 1.5-.6 2-1.1 2-1.8 1.5-5.3 1-9.6-.3-2.4-.6-5-.5-7.8.3-8.3 6.2-15.8 7.4-17.2l.2-.2h-.3c-5-.1-9.9 4.5-14.9 6.2-5.1 1.7-11.5 3.1-18.8 5.1-3.2.9-5 5.4-6 10.8-1.1 6.1-1.2 13.4-.9 18.3 1.8 2 3.6 3.9 5.5 5.7 2.8-1 6.6-3.4 10.9-5.7z"/></svg>