<svg xmlns="http://www.w3.org/2000/svg" width="256" height="256"><circle fill="#B1B3B5" cx="128" cy="128" r="128"/><path fill="#3D5D78" d="M145.7 174.4c-1.7 1.1-3.9 1.8-6.3 2.3 1.2 2.5 3.1 7.4 1.7 9.4-1.8 2.8-6.4 5.5-6 8.5.5 3 2.1 10.1 1.1 15.1-.7 3.7 2.4 11.3 4.2 15.1 13.9.1 35.8-.3 45.4-3.2 14.7-4.4 22.3-6.4 23.9-20 0 0-8-6-10.6-6.7s-10.1-4.6-13.5-4.1l-6.9-9.2c-.2-.2-.4-.5-.6-.8-.4-.6-.8-1.1-1.1-1.8-.1-.2-.2-.4-.3-.7-4-8-5.9-19.6-6.7-26.7-2.2 3.4-4.8 7.2-7.8 11.3-4.2 6-10.5 9.4-16.5 11.5zm32.4 6.7z"/><path fill="#181916" d="M177.9 235.7c-.7 0-1.4.1-2.1.1h-1.1v11.5c1.1-.4 2.1-.9 3.2-1.3v-10.3zm22.7-6.9c-3.8 2.2-8.2 4.2-13.3 5.5h4.4s.4 1.8 3.1 2.9c3.7-2.2 7.2-4.7 10.6-7.2-1.2-.5-2.7-1-4.8-1.2zm-70 5.7c-1.7-.1-2.6-.2-2.6-.2V256h2.6v-21.5z"/><path fill="#33343A" d="M161 240.1c3.1-.5 8-2.6 12.8-4.4-20-.1-36.9-.9-43.1-1.2V256c5.7-.1 11.4-.6 16.9-1.5 1.2-.8 2.3-1.7 3.4-2.7 3.3-3.4 3-10.4 10-11.7zm13.6-4.4h-.2v11.6c.1 0 .1 0 .2-.1v-11.5zm17-1.4h-1.5c1.7 1.1 3.3 2.3 3.7 3.5.3-.2.6-.4.9-.5-2.7-1.1-3.1-3-3.1-3zm-13.6 1.4h-.1V246s.1 0 .1-.1v-10.2zm22.6-6.9c2 .1 3.6.6 4.7 1.2 5.3-4.1 10.4-8.5 15-13.4-1.7-.9-3.1-1.6-4.2-1.8.1 0-5.3 7.9-15.5 14z"/><path fill="#BB2E3B" d="M174.5 235.7h-.7c-4.7 1.9-9.6 3.9-12.8 4.4-7 1.2-6.7 8.3-10.1 11.6-1.1 1.1-2.2 2-3.4 2.7 9.3-1.4 18.3-3.9 26.9-7.2v-11.5z"/><path fill="#161714" d="M136.3 209.8c.9-5-.7-12.2-1.1-15.1-.5-3 4.1-5.7 6-8.5 1.3-2-.6-6.9-1.7-9.4-4.4.9-9.1 1-10.8.9h-.6v47s5.2.2 12.5.2c-1.8-3.8-4.9-11.4-4.3-15.1z"/><path fill="#2E302F" d="M199.3 187c-10.6-4-21.1-5.9-21.1-5.9l.6.8 6.9 9.2c3.4-.5 11 3.4 13.5 4.1s10.6 6.7 10.6 6.7c-1.6 13.5-9.2 15.6-23.9 20-9.6 2.9-31.4 3.2-45.4 3.2-7.4 0-12.5-.2-12.5-.2v4.1s64.4 3.7 83.1-16.5c0 0-8 25.1-83.1 19.3v2.7s.9.1 2.6.2c6.2.3 23.1 1.2 43.1 1.2h2c.7 0 1.4 0 2.1-.1h.1v-1.3h9.3c5.1-1.3 9.6-3.3 13.3-5.5 10.2-6.1 15.5-14 15.5-14 1 .2 2.5.9 4.2 1.8 1.6-1.7 3.2-3.4 4.7-5.1-2.3-7.5-8.8-17.6-25.6-24.7z"/><path fill="#161714" d="M211.1 212.3c-18.7 20.2-83.1 16.5-83.1 16.5v2.8c75.1 5.8 83.1-19.3 83.1-19.3z"/><path fill="#11120E" d="M180.6 44.9C170.1 20.5 128 16.4 128 16.4v5c9.1 0 16.8 1.8 23.2 4.7 10.8 3.9 18.7 14.8 18.7 14.8 8 10.2 11.6 22 13 29.2 2.8 14.7-1.9 56.7-1.9 56.7s0-.2-.1-.7c-.1 3.2-.3 5.7-.7 6.9-1.3 3.9-4.5 10.4-10.1 19 .8 7 2.7 18.7 6.7 26.7.4.9.9 1.7 1.4 2.4 8.4 1.5 15.4 3.5 21.1 5.9 16.8 7.1 23.3 17.3 25.7 24.5 1.9-2.3 3.8-4.6 5.6-7-11-17.7-20.1-38-22.9-49.1-4.6-18.3-16.5-86.2-27.1-110.5z"/><path fill="#4F7596" d="M128 177.7h.6-.6zm23.2-32.8s3-.7 5-2.5c2.1-1.8 3.2-12.2 3.4-17.9.2-5.7-5.7-14.9-8.9-17-3.2-2.1-10.3-6.2-14.2-11.2-3.9-5-8.6-3.4-8.6-3.4v47.7c18.6-.1 23.3 4.3 23.3 4.3z"/><path fill="#4F7596" d="M169.6 106.8s-.2 2.8 0 5c.2 2.3-1.8 3.2-4.2 4.4s-1.1 2.8-.6 6.7c.5 3.9 1.1 11.5 0 14.7-1.1 3.2 0 7.6 0 7.6-4.4 8.9-15.8 17.7-17.9 19.7s-1.1 9.6-1.1 9.6c6.1-2.1 12.4-5.5 16.6-11.2 3-4.1 5.6-7.8 7.8-11.3 5.6-8.6 8.7-15.1 10.1-19 .4-1.1.6-3.6.7-6.9-.5-3.3-2.7-17.8-3.7-25.8l-7.7 6.5z"/><path fill="#242523" d="M128 75.8v17s4.7-1.6 8.6 3.4c3.9 5 11 9.2 14.2 11.2 3.2 2.1 9.2 11.2 8.9 17-.2 5.7-1.4 16.1-3.4 17.9-2.1 1.8-5 2.5-5 2.5s-4.7-4.4-23.2-4.4v37.3h.6c1.7 0 6.4 0 10.8-.9 2.4-.5 4.6-1.2 6.3-2.3 0 0-.9-7.5 1.1-9.6s13.5-10.8 17.9-19.7c0 0-1.1-4.4 0-7.6 1.1-3.2.5-10.8 0-14.7-.5-3.9-1.7-5.5.6-6.7s4.4-2.1 4.2-4.4c-.2-2.3 0-5 0-5l7.5-6.5c-.2-1.7-.4-3.1-.4-4-.3-4-1.5-10.9-3.7-16.8-2.7-2.3-6.4-5.1-10-6.4-6.9-2.5-35 2.7-35 2.7z"/><path fill="#161714" d="M162.9 73.1c3.6 1.3 7.3 4.1 10 6.4-1.1-3-2.5-5.7-4.1-7.6-3.7-4.5-11.6-7.1-18.6-7.4.1 1.5.2 2.6.2 2.6l-2.8-1.1v-1.5c-1.1 0-2.2.2-3.2.3-7.8 1.4-16.6 1.8-16.6 1.8v9.2c.2 0 28.3-5.2 35.1-2.7z"/><path fill="#2E302F" d="M157.3 43.9c-.6 1.7-2.8 4.9-4.7 4.2-1.5 3.5-2.8 6.8-2.8 8.4 0 2.3.2 5.7.4 7.9 7 .3 14.9 2.9 18.6 7.4 1.6 1.9 3 4.6 4.1 7.6 2.2 5.9 3.4 12.8 3.7 16.8.1.9.2 2.3.4 4 1 8 3.2 22.6 3.7 25.8.1.4.1.7.1.7s4.7-42 1.9-56.7c-1.3-7.2-5-19-13-29.2-.2 0-6.5-.4-9.2-.8-2.5-.4-2.5 2.1-3.2 3.9z"/><path fill="#2E302F" d="M128 59.3v7.3s8.8-.5 16.6-1.8c1-.2 2.1-.3 3.2-.3 0-3 .1-9.6 1.9-13 .6-1.1 1.4-2.5 2.2-4-1.5-1.9 0-6.7 1.1-8.2 1.1-1.6 1.8-5.7 0-8-1.8-2.2-1.7-5.1-1.7-5.2-6.4-2.9-14.1-4.7-23.2-4.7v37.9z"/><path fill="#161714" d="M150.5 67.1s-.1-1.1-.2-2.6c-.2-2.3-.4-5.6-.4-7.9 0-1.6 1.3-5 2.8-8.4-.2-.1-.3-.1-.5-.3l-.3-.3c-.8 1.5-1.6 2.9-2.2 4-1.8 3.3-1.9 10-1.9 13v1.5l2.7 1z"/><path fill="#5B272E" d="M152.9 31.3c1.8 2.3 1.1 6.4 0 8-1.1 1.5-2.6 6.3-1.1 8.2l.3.3c.2.1.3.2.5.3 1.9.7 4.1-2.5 4.7-4.2.7-1.8.7-4.4 3.4-3.9 2.7.5 9 .8 9.2.8S162 30 151.2 26.1c0 .1-.1 3 1.7 5.2z"/><path fill="#2E302F" d="M195.3 63.2C191.2 44.9 174.5 8.4 128 8.4v8s42.1 4.1 52.6 28.4c10.6 24.3 22.5 92.2 27.1 110.6 2.8 11.1 11.9 31.4 22.9 49.1 4.5-6 8.4-12.4 11.8-19.1-8.1-9-18.4-22.4-24.2-38.2-10.5-28.9-18.8-65.6-22.9-84z"/><path fill="#BB2E3B" d="M190.1 234.3H178v11.5c5.5-2.3 10.8-5 15.8-8.1-.4-1.1-2-2.2-3.7-3.4z"/><path fill="#2E4960" d="M119.7 209.8c-.9-5 .7-12.2 1.1-15.1.5-3-4.1-5.7-6-8.5-1.3-2 .6-6.9 1.7-9.4-2.4-.5-4.6-1.2-6.3-2.3-6.1-2.1-12.4-5.5-16.6-11.2-3-4.1-5.6-7.9-7.9-11.3-.8 6.6-2.6 17.2-6 25.2-.3.8-.6 1.5-.9 2.2-.3.6-.7 1.2-1.1 1.8-.2.3-.4.5-.6.8l-6.9 9.2c-3.4-.5-11 3.4-13.5 4.1S46.1 202 46.1 202c1.6 13.5 9.2 15.6 23.9 20 9.6 2.9 31.4 3.2 45.4 3.2 1.8-4.1 4.9-11.7 4.3-15.4zm-41.8-28.7z"/><path fill="#040400" d="M64.4 234.3h4.4c-5.1-1.3-9.6-3.3-13.3-5.5-2 .1-3.6.6-4.7 1.2 3.4 2.6 6.9 5 10.6 7.2 2.6-1 3-2.9 3-2.9zm17 1.4h-1.1c-.7 0-1.4 0-2.1-.1v10.3c1.1.4 2.1.9 3.2 1.3v-11.5zm46.6-1.4s-.9.1-2.6.2V256h2.6v-21.7z"/><path fill="#26272D" d="M81.5 235.7h-.2v11.5c.1 0 .1 0 .2.1v-11.6zm43.9-1.2c-6.2.3-23.1 1.2-43.1 1.2 4.7 1.9 9.6 3.9 12.8 4.4 7 1.2 6.7 8.3 10.1 11.6 1.1 1.1 2.2 2 3.4 2.7 5.5.8 11.2 1.3 16.9 1.5v-21.4zm-47.3 1.2H78v10.2s.1 0 .1.1v-10.3zm-12.2-1.4h-1.5s-.4 1.8-3.1 2.9c.3.2.6.4.9.5.4-1.1 2-2.2 3.7-3.4zm-10.5-5.5c-10.2-6.1-15.5-14-15.5-14-1 .2-2.5.9-4.2 1.8 4.6 4.8 9.7 9.3 15 13.4 1.1-.5 2.6-1 4.7-1.2z"/><path fill="#831A24" d="M95 240.1c-3.1-.5-8-2.6-12.8-4.4h-.7v11.6c8.6 3.3 17.6 5.8 26.9 7.2-1.2-.8-2.3-1.7-3.4-2.7-3.3-3.4-3-10.4-10-11.7z"/><path fill="#040400" d="M127.4 177.7c-1.7 0-6.4 0-10.8-.9-1.2 2.5-3.1 7.4-1.7 9.4 1.8 2.8 6.4 5.5 6 8.5-.5 3-2.1 10.1-1.1 15.1.7 3.7-2.4 11.3-4.2 15.1 7.4 0 12.5-.2 12.5-.2v-47h-.7z"/><path fill="#1E1F1E" d="M55.4 228.8c3.8 2.2 8.2 4.2 13.3 5.5H78v1.3h.1c.7 0 1.4.1 2.1.1h2c20-.1 36.9-.9 43.1-1.2 1.7-.1 2.6-.2 2.6-.2v-2.7c-75.1 5.8-83.1-19.3-83.1-19.3 18.7 20.2 83.1 16.5 83.1 16.5v-4.1s-5.2.2-12.5.2c-13.9.1-35.8-.3-45.4-3.2-14.7-4.4-22.3-6.4-23.9-20 0 0 8-6 10.6-6.7s10.1-4.6 13.5-4.1l6.9-9.2.6-.8s-10.6 1.9-21.1 5.9c-16.8 7.1-23.3 17.3-25.7 24.5 1.5 1.8 3.1 3.5 4.7 5.1 1.7-.9 3.1-1.6 4.2-1.8 0 .2 5.4 8.1 15.6 14.2z"/><path fill="#040400" d="M44.9 212.3s8 25.1 83.1 19.3v-2.8s-64.4 3.7-83.1-16.5z"/><path fill="#080905" d="M56.7 187c5.8-2.4 12.7-4.5 21.1-5.9.7-1.2 1.4-2.5 2-4 3.5-8 5.2-18.6 6-25.2-5.5-8.5-8.7-15-10-19-.4-1.1-.6-3.6-.7-6.9-.1.4-.1.7-.1.7s-4.7-42-1.9-56.7c1.3-7.2 5-19 13-29.2S94 30 104.8 26.1c6.4-2.9 14.1-4.7 23.2-4.7v-5s-42.1 4.1-52.6 28.4C64.8 69.1 52.9 137 48.3 155.4c-2.8 11.1-11.9 31.4-22.9 49.1 1.8 2.4 3.7 4.7 5.6 7 2.4-7.3 8.9-17.4 25.7-24.5z"/><path fill="#3D5D78" d="M110.3 174.4s.9-7.5-1.2-9.6-13.5-10.8-17.9-19.7c0 0 1.1-4.4 0-7.6-1.1-3.2-.5-10.8 0-14.7.5-3.9 1.7-5.5-.6-6.7s-4.4-2.1-4.2-4.4c.2-2.3 0-5 0-5l-7.5-6.5c-1 8-3.2 22.6-3.7 25.8.1 3.2.3 5.7.7 6.9 1.3 3.9 4.5 10.4 10 19 2.2 3.5 4.8 7.2 7.9 11.3 4.2 5.7 10.5 9.1 16.5 11.2zm17.1 3.3z"/><path fill="#3D5D78" d="M119.4 96.2c-3.9 5-11 9.2-14.2 11.2-3.2 2.1-9.2 11.2-8.9 17 .2 5.7 1.4 16.1 3.4 17.9 2.1 1.8 5 2.5 5 2.5s4.7-4.4 23.2-4.4V92.8c.1 0-4.6-1.6-8.5 3.4z"/><path fill="#161714" d="M128 174v-33.5c-18.5 0-23.2 4.4-23.2 4.4s-3-.7-5-2.5c-2.1-1.8-3.2-12.2-3.4-17.9-.2-5.7 5.7-14.9 8.9-17 3.2-2.1 10.3-6.2 14.2-11.2 3.9-5 8.6-3.4 8.6-3.4v-17s-28.1-5.3-34.9-2.8c-3.6 1.3-7.3 4.1-10 6.4-2.2 5.9-3.4 12.8-3.7 16.8-.1.9-.2 2.3-.4 4l7.5 6.5s.2 2.8 0 5c-.2 2.3 1.8 3.2 4.2 4.4s1.1 2.8.6 6.7c-.5 3.9-1.1 11.5 0 14.7 1.1 3.2 0 7.6 0 7.6 4.4 8.9 15.8 17.7 17.9 19.7s1.1 9.6 1.1 9.6c1.7 1.1 3.9 1.8 6.3 2.3 4.4.9 9.1 1 10.8.9h.6V174z"/><path fill="#040400" d="M105.5 67.1s.1-1.1.2-2.6c-7 .3-14.9 2.9-18.6 7.4-1.6 1.9-3 4.6-4.1 7.6 2.7-2.3 6.4-5.1 10-6.4 6.9-2.5 34.9 2.8 34.9 2.8v-9.2s-8.8-.5-16.6-1.8c-1-.2-2.1-.3-3.2-.3v1.5l-2.6 1z"/><path fill="#1E1F1E" d="M103.1 31.3c-1.8 2.3-1.1 6.4 0 8 1.1 1.5 2.6 6.3 1.1 8.2.8 1.5 1.6 2.9 2.2 4 1.8 3.3 1.9 10 1.9 13 1.1 0 2.2.2 3.2.3 7.8 1.4 16.6 1.8 16.6 1.8V21.5c-9.1 0-16.8 1.8-23.2 4.7-.1 0 0 2.9-1.8 5.1zM79.3 96.2c.3-4 1.5-10.9 3.7-16.8 1.1-3 2.5-5.7 4.1-7.6 3.7-4.5 11.6-7.1 18.6-7.4.2-2.3.4-5.6.4-7.9 0-1.6-1.3-5-2.8-8.4-1.9.7-4.1-2.5-4.7-4.2-.6-1.8-.6-4.3-3.3-3.9-2.7.5-9 .8-9.2.8-8 10.2-11.6 22-13 29.2-2.8 14.7 1.9 56.7 1.9 56.7s0-.2.1-.7c.5-3.3 2.7-17.8 3.7-25.8.3-1.6.4-3 .5-4z"/><path fill="#040400" d="M103.4 48.1c1.5 3.5 2.8 6.8 2.8 8.4 0 2.3-.2 5.7-.4 7.9-.1 1.5-.2 2.6-.2 2.6l2.8-1.1v-1.5c0-3-.1-9.6-1.9-13-.6-1.1-1.4-2.5-2.2-4l-.3.3c-.3.3-.4.4-.6.4z"/><path fill="#491B21" d="M98.7 43.9c.6 1.7 2.8 4.9 4.7 4.2.2-.1.3-.1.5-.3l.3-.3c1.5-1.9 0-6.7-1.1-8.2-1.1-1.6-1.8-5.7 0-8 1.8-2.2 1.7-5.1 1.7-5.2C94 30 86.1 40.9 86.1 40.9c.2 0 6.5-.4 9.2-.8 2.7-.5 2.7 2 3.4 3.8z"/><path fill="#1E1F1E" d="M75.4 44.9C85.9 20.5 128 16.4 128 16.4v-8c-46.5 0-63.2 36.5-67.3 54.8-4.1 18.4-12.4 55.1-22.9 84-5.8 15.8-16.1 29.2-24.2 38.2 3.4 6.7 7.3 13.1 11.8 19.1 11-17.7 20.1-38 22.9-49.1 4.6-18.3 16.5-86.2 27.1-110.5z"/><path fill="#831A24" d="M78 235.7v-1.3H65.8c-1.7 1.1-3.3 2.3-3.7 3.5 5.1 3 10.4 5.7 15.8 8.1v-10.3z"/></svg>