<svg xmlns="http://www.w3.org/2000/svg" width="256" height="256"><circle fill="#B1B3B5" cx="128" cy="128" r="128"/><path fill="#B17D6B" d="M91.5 188.1c.1.3 8.1 20 36.5 20v-31.3h-9.9c-4.2 0-6.3-1.1-14.2-10.6-3.8-4.5-7.6-10.4-10.8-16.6-.1 5.4-.1 11.9.2 18.7.2 3.8 0 7.3-.3 10.5 0 .7-.1 1.4-.2 2.2-.4 2.6-.8 5-1.3 7.1zm-7.1-82.7l-.9-1.9c-2.9-2.1-7.8-5.2-9.2-3.4-2.1 2.7-.6 6.5 0 8.9.6 2.4 3.5 6.8 3.2 10.6-.3 3.8.9 10.9 3.5 12.1 2.1.9 3.8 2.4 6.1 1.4-.2-1.4-.4-2.7-.5-4-.4-9.6-1.2-16.9-2.2-23.7z"/><path fill="#C08C76" d="M80.9 87.9c.1.3.1.6.2.9v-.7l-.2-.2zm37.2 88.9h9.9V52.3s-18.2.8-24.1-1.6c-5.9-2.4-13.8 7.9-13.4 11.4.4 3.5 0 42.5-3.9 48l-2.2-4.7c.9 6.8 1.8 14 2.3 23.6.1 1.3.2 2.6.5 4 .9 5.3 3.1 11 5.9 16.6 3.1 6.2 7 12.1 10.8 16.6 7.9 9.4 9.9 10.6 14.2 10.6zM96.8 91.4l4.4-1.4h4.4v-1h3.1l4.4 1.4s-1.8-1.8 0-1.3c1.8.4 5.5 4.6 5.5 4.6-.2 2.7-8.9-.9-11-1.3-2.1-.4-11 1.3-11 1.3l1.3-1.1-1.1-1.2z"/><path fill="#382B1E" d="M107.8 92.4c2.1.4 10.7 4 11 1.3 0 0-3.8-4.2-5.5-4.6-1.8-.4 0 1.3 0 1.3l-4.4-1.4h-3.1v1h-4.4L97 91.4l1.3 1.3-1.3 1.1c-.2 0 8.7-1.8 10.8-1.4z"/><path fill="#382B1E" d="M86.6 110.1c3.9-5.5 4.3-44.4 3.9-48-.4-3.5 7.5-13.8 13.4-11.4 5.9 2.4 24.1 1.6 24.1 1.6V3.6h-6.4c-2 0 0 0-2.4.8s0 0-.8 1.9-5.1-.3-6.7.1c-1.6.4-5.1-.4-6.3 0-1.2.4-.4 3.5-.4 3.5l-4.7 3.5h-5.5l-2 2-.8-1.3h-5.9l-1.6 2.8-2.8 4.3s-1.2 3.1-3.1 3.9l-3.5 9-.8 3.5s-.4 4.7-.4 5.9-.4 2-.4 3.5-2.4 6.3-2.4 6.3l.8 4.3.4 5.1-2.8 4.3 2 3.5 2.4 2.8 2.4 4.7-2.4 2 3.1 4.3 3.7 3.4.2.2v10.3l2.4 5.2.9 1.9 2.4 4.8z"/><path fill="#4C7DA0" d="M88.5 198c-4.5 15.3-8.8 32.4-12.2 47.1 15.8 7 33.3 10.9 51.7 10.9v-40.6s-26.5 4-39.5-17.4z"/><path fill="#5787A9" d="M91.5 188.1c-1 3.2-2 6.5-3 9.9 13 21.4 39.5 17.4 39.5 17.4v-7.3c-28.4 0-36.4-19.7-36.5-20z"/><path fill="#052344" d="M82.4 183.4c-2.5.7-5.5 1.4-9.2 2-16.4 2.9-29.5 7-45.5 16.5-1 .6-1.9 1.3-2.8 2 11.3 15.3 25.9 27.9 42.7 37 3.4-15.2 7-29.3 9-35 3.3-9 5.2-19.1 5.8-22.5z"/><path fill="#133256" d="M88.5 198c1-3.4 2-6.7 3-9.9 0 0 .8-3.8 1.3-7.1.1-.8.2-1.5.2-2.2 0 0-7.5-.1-10.4 3.5 0 0-.1.4-.2 1.2-.6 3.4-2.6 13.5-5.8 22.5-2 5.6-5.6 19.7-9 35 2.8 1.5 5.7 2.9 8.6 4.2 3.5-14.8 7.8-31.9 12.3-47.2z"/><path fill="#C08C76" d="M137.9 176.8H128v31.3c28.4 0 36.4-19.7 36.5-20-.5-2.1-.9-4.5-1.3-7.1-.1-.8-.2-1.5-.2-2.2-.3-3.2-.4-6.7-.3-10.5.3-6.8.3-13.3.2-18.7-3.1 6.2-7 12.1-10.8 16.6-7.9 9.4-9.9 10.6-14.2 10.6zm31.4-47.8c-.1 1.3-.2 2.6-.5 4 2.2 1 4-.4 6.1-1.4 2.7-1.2 3.8-8.3 3.5-12.1-.3-3.8 2.7-8.3 3.2-10.6.6-2.4 2.1-6.2 0-8.9-1.4-1.8-6.3 1.3-9.2 3.4l-.9 1.9c-.9 6.9-1.7 14.2-2.2 23.7z"/><path fill="#D7A990" d="M174.9 88.8c.1-.3.1-.6.2-.9l-.2.2v.7zm-3.3 16.6l-2.2 4.7c-.6-.8-1-2.2-1.5-4.1v1.5c0 5.4-3.3 14.6-3.3 14.6l-1-5.6c2-7.9.6-17.3-1.7-24.6-2.3-7.3-1.9-29.6-1.9-29.6s3 7.6 5.5 14.3c-.2-7.2-.2-13.1 0-14.4.4-3.5-7.5-13.8-13.4-11.4-5.9 2.4-24.1 1.6-24.1 1.6v124.5h9.9c4.2 0 6.3-1.1 14.2-10.6 3.8-4.5 7.6-10.4 10.8-16.6 2.8-5.5 4.9-11.3 5.9-16.6.2-1.4.4-2.7.5-4 .5-9.6 1.3-16.9 2.3-23.7zm-28.8-16.3c1.8-.4 0 1.3 0 1.3l4.4-1.4h3.1v1h4.4l4.4 1.4-1.3 1.3 1.3 1.1s-8.9-1.8-11-1.3c-2.1.4-10.7 4-11 1.3.2 0 4-4.2 5.7-4.7zm11.1 69.5c-2.9 9.7-11.5 15.6-11.5 15.6 2.3-4.3 9.5-23.5 10-29.5.6-6 9.5-9.2 9.5-9.2-3.2 2.4-5.2 13.4-8 23.1z"/><path fill="#453725" d="M148.2 92.4c2.1-.4 11 1.3 11 1.3l-1.3-1.1 1.3-1.3-4.4-1.4h-4.4v-1h-3.1l-4.4 1.4s1.8-1.8 0-1.3c-1.8.4-5.5 4.6-5.5 4.6.1 2.8 8.7-.7 10.8-1.2z"/><path fill="#C79884" d="M161.9 91.9c2.3 7.3 3.7 16.7 1.7 24.6l1 5.6s3.3-9.2 3.3-14.6V106c-1.5-6.8-2.2-19.5-2.5-29.5-2.5-6.6-5.5-14.3-5.5-14.3s-.3 22.4 2 29.7zm-9.6 52.8c-.6 6-7.7 25.2-10 29.5 0 0 8.7-5.9 11.5-15.6 2.9-9.7 4.8-20.7 8-23 0 0-8.9 3.1-9.5 9.1z"/><path fill="#453725" d="M128 52.3s18.2.8 24.1-1.6c5.9-2.4 13.8 7.9 13.4 11.4-.1 1.3-.2 7.1 0 14.4.3 10 1 22.7 2.5 29.5.4 1.9.9 3.4 1.5 4.1l2.2-4.7.9-1.9 2.4-5.2V88.1l.2-.2 3.7-3.4 3.1-4.3-2.4-2 2.4-4.7 2.4-2.8 2-3.5-2.8-4.3.4-5.1.8-4.3s-2.4-4.7-2.4-6.3-.4-2.4-.4-3.5-.4-5.9-.4-5.9l-.8-3.5-3.5-9c-2-.8-3.1-3.9-3.1-3.9l-2.8-4.3-1.6-2.8h-5.9l-.8 1.3-2-2h-5.5l-4.7-3.5s.8-3.1-.4-3.5c-1.2-.4-4.7.4-6.3 0-1.6-.4-5.9 1.7-6.7-.1-.8-1.9 1.6-1.1-.8-1.9-2.4-.8-.4-.8-2.4-.8h-6.4v48.5z"/><path fill="#4E81A5" d="M167.5 198c-13 21.4-39.5 17.4-39.5 17.4V256c18.4 0 35.9-3.9 51.7-10.9-3.4-14.7-7.7-31.8-12.2-47.1z"/><path fill="#5A8CAF" d="M128 208.1v7.3s26.5 4 39.5-17.4c-1-3.4-2-6.7-3-9.9-.1.3-8.1 20-36.5 20z"/><path fill="#1A3B69" d="M182.8 185.4c-3.7-.6-6.7-1.3-9.2-2 .6 3.4 2.6 13.5 5.8 22.5 2 5.6 5.6 19.7 9 35 16.8-9 31.4-21.7 42.7-37-.9-.7-1.8-1.4-2.8-2-16-9.4-29.1-13.6-45.5-16.5z"/><path fill="#133256" d="M173.6 183.4c-.1-.8-.2-1.2-.2-1.2-2.9-3.6-10.4-3.5-10.4-3.5 0 .7.1 1.4.2 2.2.4 3.3 1.3 7.1 1.3 7.1 1 3.2 2 6.5 3 9.9 4.5 15.3 8.8 32.4 12.2 47.1 2.9-1.3 5.8-2.7 8.6-4.2-3.4-15.2-7-29.3-9-35-3.2-8.9-5.1-19-5.7-22.4z"/></svg>