
<svg version="1.1" id="Layer_1" xmlns="http://www.w3.org/2000/svg" xmlns:xlink="http://www.w3.org/1999/xlink" x="0px" y="0px"
	 width="33px" height="33px" viewBox="0 0 33 33" enable-background="new 0 0 33 33" xml:space="preserve">
<g opacity="0.3">
	<circle fill="none" stroke="#FFFFFF" stroke-width="1.4853" stroke-miterlimit="10" cx="16.078" cy="16.077" r="14.738"/>
</g>
<g>
	<g>
		<path fill="#B0B0B0" d="M24.033,22.428l-1.432,1.464l-4.912-4.782c-0.955,0.629-2.028,0.943-3.221,0.943
			c-1.627,0-3.021-0.574-4.181-1.725c-1.16-1.148-1.74-2.558-1.74-4.229c0-1.648,0.58-3.047,1.74-4.196s2.554-1.724,4.181-1.724
			c1.626,0,3.02,0.575,4.18,1.724s1.741,2.548,1.741,4.196c0,1.301-0.38,2.483-1.139,3.546L24.033,22.428z M18.828,14.1
			c0-1.192-0.429-2.217-1.285-3.074c-0.857-0.856-1.882-1.285-3.074-1.285c-1.193,0-2.218,0.429-3.074,1.285
			c-0.857,0.857-1.285,1.882-1.285,3.074c0,1.215,0.428,2.25,1.285,3.107c0.856,0.856,1.881,1.284,3.074,1.284
			c1.192,0,2.217-0.428,3.074-1.284C18.399,16.35,18.828,15.314,18.828,14.1z"/>
	</g>
</g>
</svg>
