<svg xmlns="http://www.w3.org/2000/svg" width="256" height="256"><circle fill="#B1B3B5" cx="128" cy="128" r="128"/><path fill="#775B4B" d="M233.2 195.6c-6.6-5.9-13.4-9.5-22.5-11.5-1.4-.1-3.9.3-6.1 3.6-3.2 4.8-5.9 12.9-13.6 16.6-2.4 11.2-3.1 26.1-3.3 34.4v2.7c19.4-10.2 35.8-25.3 47.7-43.6-.7-.9-1.4-1.6-2.2-2.2z"/><path fill="#5A4B43" d="M153.8 247l5.8-24.2c-3.4 5.3-7.6 16.7-11.4 21.6-2.3 2.9-5.4 7.2-8.9 11.2 2.9-.3 5.9-.6 8.7-1.1l1.4-4.6 4.4-2.9z"/><path fill="#3E332D" d="M183.9 233.3c0 .1 0 .1 0 0l-31.7 19.1-.4 1.3c11.6-2.2 22.7-5.9 32.9-11-.5-2.7-.8-5.9-.8-9.4zm-24.3-10.5l-5.8 24.2 25.8-16.8s1.5-13.3 3.1-22c-8.3 4.3-18.3 10.3-21.1 12.2-.6.4-1.3 1.2-2 2.4z"/><path fill="#BF9451" d="M183.9 233.4c0-9.9 1.9-21.3 3-27.3-1.3.6-2.7 1.3-4.2 2.1-1.6 8.7-3.1 22-3.1 22L153.8 247l-4.3 2.8-1.4 4.6c1.3-.2 2.5-.4 3.8-.7l.4-1.3 31.6-19z"/><path fill="#A38E7F" d="M191 204.2c-.2.1-.5.2-.7.4-1 .4-2.1.9-3.3 1.5-1.1 6-3 17.4-3 27.3 0 3.4.3 6.7.9 9.4 1-.5 1.9-1 2.9-1.5v-2.7c.1-8.3.7-23.2 3.2-34.4z"/><path fill="#54453F" d="M159.6 222.8c.7-1.1 1.4-1.9 2-2.4 2.8-1.9 12.8-7.9 21.1-12.2 1.5-.8 2.9-1.5 4.2-2.1 1.2-.6 2.3-1.1 3.3-1.5.3-.1.5-.2.7-.4 7.7-3.7 10.4-11.8 13.6-16.6 2.2-3.3 4.7-3.7 6.1-3.6.7.1 1.2.2 1.2.2l.6-2.7s-6.9-1.7-10.1 4.1-6.7 15.8-13.4 17.7c-6.7 1.9-27.7 12.7-30 15.8s-12.1 23.5-16 28.5c-1.8 2.3-5.1 5.4-8.2 8.2l4.5-.3c3.5-4 6.6-8.2 8.9-11.2 3.9-4.9 8.1-16.3 11.5-21.5z"/><path fill="#3C496F" d="M128.1 174.5v2.8h5.4v-2.8zM157 171l-1.4-1.4-5.9 2.9 1.4 2c.4 0 4.2-2.4 5.9-3.5zm2.7 4.5l-1.5-1.6-8.4 5.1 1.6 2.2zm-31.6 5.4v4.2c.8-.1 6-.5 9-2.1l.3-2.1h-9.3zm0 8.5v2.1c1-.1 8-.8 11.4-3.4-.3-.9-.8-2.2-.8-2.2-3.9 3.2-9.8 3.4-10.6 3.5zm49.3-10.1l-5 4.4 11.7 16.3c.7-.2 5.9-1.2 8.9-3.9l-15.6-16.8zm-49.3 62.6v-.5zm0-35.2V217c.8-.4 6-2.8 6.8-6.3.4-2.1.8-4 1-5.3l-7.8 1.3zm41.3 1.3l7.8-4.8-11.1-15.1-7.3 6zm-18.3-10.4l-7 3.8-2.6 12.1 11.7-8.1 4.8 8.1 3.8-.7z"/><path fill="#3C496F" d="M154.1 213.7l-1.5-2.3c-20.6 9.6-24.1 23.4-24.6 28.5V256h2.4c3.6-3.9 9.8-11.3 11.4-16.3 2.2-6.8 3-18.4 12.3-26z"/><path fill="#54453F" d="M159.7 175.5l.7-.5-1.9-2.4-9.2 5.6.5.8 8.4-5.1zM157 171c.5-.3.8-.6.8-.6l-2-2-6.6 3.4.5.7 5.9-2.9 1.4 1.4zm-18.3 14.9s.4 1.3.8 2.2c.4-.3.8-.6 1.1-.9l-1.1-2.7s-4.9 3.9-11.4 4v.9c.8-.1 6.7-.3 10.6-3.5zm-1.3-5l-.3 2.1c.7-.4 1.3-.8 1.7-1.4l.2-1.9h-10.9v1.2h9.3zm-3.9-6.4v2.8h1v-4h-6.4v1.2zm44 2.8l-6 5.1.9 1.2 5-4.4L193 196c.4-.4.8-.8 1.1-1.2l-16.6-17.5zm-49.4 29.4l7.8-1.4c.2-1 .3-1.6.3-1.6l-8 1.6v1.4zm33.7 6.1l1.7-.3-12-16.9-6.9 3.7-.5 2.1 7-3.8zm15.4-9.6l1.3-.8-12.1-16.5-8.5 7 .9 1.2 7.3-6zm-24.5 8.2l1.5 2.3c.3-.2.5-.4.8-.7l-1.9-3.8-12.5 8.1s-11.3 6.9-12.5 20.3v2.3c.5-5.1 4-18.9 24.6-28.5z"/><path fill="#6F5D54" d="M143 247.7c3.8-5 13.7-25.4 16-28.5s23.3-13.9 30-15.8c6.7-1.9 10.3-12 13.4-17.7s10.1-4.1 10.1-4.1-30.7-15.3-42.9-23c-6-3.8-8.7-6.9-9.8-9.2-3.2 5-7.2 10.6-7.6 11.1-.7.8-8.9 11.3-8.9 11.3h-15.2v1.5h6.4v4h-6.4v2.4H139l-.2 1.9c-.4.5-1 1-1.7 1.4-3.1 1.6-8.2 2.1-9 2.1v3.4c6.5 0 11.4-4 11.4-4l1.1 2.7c-.3.3-.7.6-1.1.9-3.5 2.5-10.5 3.3-11.4 3.4v13.9l8-1.6s-.1.6-.3 1.6c-.2 1.3-.6 3.2-1 5.3-.7 3.5-6 6-6.8 6.3v20.6c1.2-13.4 12.5-20.3 12.5-20.3l12.5-8.1 1.9 3.8c-.3.2-.5.4-.8.7-9.3 7.7-10.1 19.2-12.3 26-1.6 4.9-7.8 12.3-11.4 16.3 1.5 0 2.9-.1 4.4-.2 3.1-2.7 6.5-5.8 8.2-8.1zm15-34.2l-4.8-8.1-11.7 8.1 2.7-12.2.5-2.1 6.9-3.7 12 16.9-1.7.3-3.9.8zm-8.7-41.7l6.6-3.4 2 2s-.3.2-.8.6c-1.7 1.1-5.5 3.5-5.9 3.5l-1.4-2-.5-.7zm0 6.4l9.2-5.6 1.9 2.4-.7.5-8.2 5.7-1.6-2.2-.6-.8zm14.2 2.7c0-2.2 1.8-4 4-4s4 1.8 4 4-1.8 4-4 4-4-1.8-4-4zm11.4-13c1.8 0 3.3 1.5 3.3 3.3s-1.5 3.3-3.3 3.3-3.3-1.5-3.3-3.3 1.4-3.3 3.3-3.3zm-17 25l8.5-7.1 12.1 16.5-1.3.8-7.8 4.8-10.6-13.9-.9-1.1zm36.3 1.8c-.3.4-.7.9-1.1 1.2-3 2.7-8.2 3.7-8.9 3.9l-11.7-16.3-.9-1.2 6-5.1 16.6 17.5zm-45.5-4.8c0-2.2 1.8-4 4-4s4 1.8 4 4-1.8 4-4 4-4-1.8-4-4z"/><path fill="#362827" d="M165.5 16c3.4 2.3 5.7 5.6 7.1 9.3L175 21c.9-3.9-.4-8.6-2.3-13.1-6.1-2.3-12.4-4.1-18.8-5.4 2.7 2.8 3.4 5.1 3.4 5.1 8.8.4 8.2 8.4 8.2 8.4z"/><path fill="#413231" d="M128.1 25.1c14 .1 22.4 10.9 27.2 11.3 4.8.5.8-4.5.8-4.5 7.3 3.4 17.6 15.2 17.6 15.2 1.3-5.7.8-12.3.8-12.3.1.1.2.3.2.4-.3-3.2-.9-6.7-2.1-9.9-1.4-3.7-3.6-7-7.1-9.3 0 0 .6-8-8.3-8.3 0 0-.8-2.4-3.4-5.1-8.4-1.7-17-2.6-25.7-2.6v25.1z"/><path fill="#775B4B" d="M176.6 82.2c-2.4.4-1.6 3.9-1.4 7.8.2 3.9-1.3 6.6-1.3 6.6-.2-.8-.4-2.2-.5-3.8-.4 3.6-1.5 10.4-2.5 16.1 1.8-.4 3.8-1.2 4.9-3 2.4-3.8 1-4.6.7-11.3-.1-3.2.4-5.5.8-7.6l-.7-4.8z"/><path fill="#8C6C5A" d="M173 80.6l-1.9 2.3c-.2-8.6-8-17.6-12.8-22.5s-11.2-8.5-16.4-6.5c-4.9 1.8-12.8 4-13.8 4.3v83c.3 0 1.3 0 2.3-.8 1.8-.8 4-.1 5.2 1.3 2.4 2.2 2.6 2.9 5.1 3.8 0 0-2 3.6-11.2 4l-.8 10h-.7v3.7c.7.1 4.7.4 9.3-.4v-.1l6.5-4.3 3.6.2c.8-.7 1.6-1.4 2.3-2.3 7-8.6 14.4-23.8 15.2-27.1v.5c2-5.7 3.3-10.5 4-12.5.6-1.7 1.2-4.9 1.9-8.5 1.1-5.7 2.1-12.5 2.5-16.1-.2-4.8-.3-12-.3-12zm-10.7 5.1c.7 0 1.3.6 1.3 1.3s-.6 1.3-1.3 1.3-1.3-.6-1.3-1.3.5-1.3 1.3-1.3zm-4.6 0c.7 0 1.3.6 1.3 1.3s-.6 1.3-1.3 1.3c-.7 0-1.3-.6-1.3-1.3s.6-1.3 1.3-1.3zm-4.1 1.3c.7 0 1.3.6 1.3 1.3s-.6 1.3-1.3 1.3c-.7 0-1.3-.6-1.3-1.3s.6-1.3 1.3-1.3zm-2.8 2.7c0 .7-.6 1.3-1.3 1.3-.7 0-1.3-.6-1.3-1.3s.6-1.3 1.3-1.3c.7 0 1.3.6 1.3 1.3zm-2.9-24.9c.9 0 1.6.7 1.6 1.6 0 .9-.7 1.6-1.6 1.6-.9 0-1.6-.7-1.6-1.6 0-.9.7-1.6 1.6-1.6zm-1.6 9.2c.9 0 1.6.7 1.6 1.6 0 .9-.7 1.6-1.6 1.6-.9 0-1.6-.7-1.6-1.6 0-.8.7-1.6 1.6-1.6zm.4 17.3c0 .7-.6 1.3-1.3 1.3s-1.3-.6-1.3-1.3.6-1.3 1.3-1.3 1.3.6 1.3 1.3zm-3-10.7c.9 0 1.6.7 1.6 1.6 0 .9-.7 1.6-1.6 1.6s-1.6-.7-1.6-1.6c0-.9.7-1.6 1.6-1.6zm-1.9 6.4c.7 0 1.3.6 1.3 1.3s-.6 1.3-1.3 1.3-1.3-.6-1.3-1.3.6-1.3 1.3-1.3zm-8.8 6c-.9 0-1.6-.7-1.6-1.6s.7-1.6 1.6-1.6 1.6.7 1.6 1.6-.7 1.6-1.6 1.6zm1.6-6.9c-.9 0-1.6-.7-1.6-1.6 0-.9.7-1.6 1.6-1.6s1.6.7 1.6 1.6c0 .9-.7 1.6-1.6 1.6zm1.6-7.2c-.9 0-1.6-.7-1.6-1.6 0-.9.7-1.6 1.6-1.6s1.6.7 1.6 1.6c0 .9-.7 1.6-1.6 1.6zm.9-7.7c-.9 0-1.6-.7-1.6-1.6s.7-1.6 1.6-1.6 1.6.7 1.6 1.6-.7 1.6-1.6 1.6zm3.6 23.9c-.7 0-1.3-.6-1.3-1.3s.6-1.3 1.3-1.3 1.3.6 1.3 1.3-.5 1.3-1.3 1.3zm1.1 21c0-.7.6-1.3 1.3-1.3s1.3.6 1.3 1.3c0 .7-.6 1.3-1.3 1.3s-1.3-.6-1.3-1.3zm4.5 1.9c0-.7.6-1.3 1.3-1.3.7 0 1.3.6 1.3 1.3s-.6 1.3-1.3 1.3c-.7 0-1.3-.6-1.3-1.3zm4.6 1.3c0-.7.6-1.3 1.3-1.3.7 0 1.3.6 1.3 1.3s-.6 1.3-1.3 1.3c-.7.1-1.3-.5-1.3-1.3zm5.5 1.4c-.7 0-1.3-.6-1.3-1.3s.6-1.3 1.3-1.3c.7 0 1.3.6 1.3 1.3s-.6 1.3-1.3 1.3zm-5-24.7c-3 1.1-9.9 1.6-9.9 1.6-.8-3.5 6.4-4 9.4-4.9 3-1 6.1-2.4 8.3-2.1 2.2.3 8 3.8 8 3.8l-8.9-.6s-3.9 1.1-6.9 2.2zm9.5 23.3c-.7 0-1.3-.6-1.3-1.3s.6-1.3 1.3-1.3 1.3.6 1.3 1.3-.5 1.3-1.3 1.3zm3.5-3.2c-.7 0-1.3-.6-1.3-1.3 0-.7.6-1.3 1.3-1.3s1.3.6 1.3 1.3c.1.7-.5 1.3-1.3 1.3z"/><path fill="#4C3B3A" d="M167.2 94.4s-5.7-3.5-8-3.8c-2.2-.3-5.3 1.1-8.3 2.1-3 1-10.2 1.4-9.4 4.9 0 0 6.9-.5 9.9-1.6s6.9-2.2 6.9-2.2l8.9.6z"/><path fill="#354246" d="M149.8 156.5c-.7.9-1.5 1.6-2.3 2.3 0 0 1 5.3-.4 6.4 0 0-3.5 3-5.6 4.4 0 0-.5-.1-1.2-.5-.9-.6-1.2-1.2-1.2-1.2-.7-1-1.4-2.5-1.7-4.8-4.6.8-8.7.5-9.3.4v8.4h15.2s8.3-10.6 8.9-11.3c.4-.4 4.4-6 7.6-11.1 2.2-3.4 4-6.5 4.2-7.6.4-2.3.8-9.9.9-11.9v-.5c-.7 3.2-8.1 18.4-15.1 27z"/><path fill="#DDE3E1" d="M139 167.8s3.8-2.9 5.4-3.7c1.5-.8 4.1-1 2.7 1.1 1.4-1.1.4-6.4.4-6.4l-3.6-.2-6.5 4.3v.1c.3 2.3.9 3.9 1.6 4.8zm2.4 1.8c-.5-.1-.8-.3-1.2-.5.7.4 1.2.5 1.2.5z"/><path fill="#A5ABAB" d="M144.4 164.1c-1.5.8-5.3 3.7-5.4 3.7s.4.7 1.2 1.2c.3.2.7.4 1.2.5 2.1-1.4 5.6-4.4 5.6-4.4 1.5-2.1-1.1-1.8-2.6-1z"/><circle fill="#FDE4D5" cx="133" cy="91.3" r="1.6"/><circle fill="#FDE4D5" cx="134.6" cy="84.5" r="1.6"/><circle fill="#FDE4D5" cx="136.2" cy="77.3" r="1.6"/><circle fill="#FDE4D5" cx="137.1" cy="69.6" r="1.6"/><circle fill="#FDE4D5" cx="147.9" cy="66.4" r="1.6"/><circle fill="#FDE4D5" cx="146.3" cy="75.7" r="1.6"/><circle fill="#FDE4D5" cx="143.7" cy="82.2" r="1.6"/><circle fill="#FDE4D5" cx="141.8" cy="88.4" r="1.3"/><circle fill="#FDE4D5" cx="140.7" cy="93.8" r="1.3"/><circle fill="#FDE4D5" cx="145.3" cy="91.3" r="1.3"/><circle fill="#FDE4D5" cx="149.5" cy="89.7" r="1.3"/><path fill="#FDE4D5" d="M153.6 89.7c.7 0 1.3-.6 1.3-1.3s-.6-1.3-1.3-1.3c-.7 0-1.3.6-1.3 1.3s.6 1.3 1.3 1.3z"/><circle fill="#FDE4D5" cx="157.7" cy="87" r="1.3"/><circle fill="#FDE4D5" cx="162.3" cy="87" r="1.3"/><circle fill="#FDE4D5" cx="143.1" cy="116.1" r="1.3"/><circle fill="#FDE4D5" cx="147.6" cy="118" r="1.3"/><path fill="#FDE4D5" d="M153.6 119.3c0-.7-.6-1.3-1.3-1.3-.7 0-1.3.6-1.3 1.3s.6 1.3 1.3 1.3c.7.1 1.3-.5 1.3-1.3z"/><circle fill="#FDE4D5" cx="156.4" cy="119.3" r="1.3"/><circle fill="#FDE4D5" cx="160.9" cy="118" r="1.3"/><circle fill="#FDE4D5" cx="164.4" cy="114.7" r="1.3"/><path fill="#4C3B3A" d="M128.1 33.8v24.3c1-.3 8.9-2.5 13.8-4.3 5.3-1.9 11.7 1.6 16.4 6.5s12.6 13.9 12.8 22.5l1.9-2.3s.1 7.3.5 12.2c.1 1.6.3 3 .5 3.8 0 0 1.4-2.7 1.3-6.6-.2-3.9-1-7.4 1.4-7.8l.7 4.9c.3-.8 5.1-11.9 3.9-24.2-1.2-12.4-4.1-23.5-6.6-27.5-.1-.1-.2-.3-.2-.4 0 0 .5 6.5-.8 12.3 0 0-10.2-11.8-17.6-15.2 0 0 4 4.9-.8 4.5-4.8-.5-13.2-11.3-27.2-11.3v8.6z"/><circle fill="#898969" cx="152.7" cy="189.9" r="4"/><circle fill="#898969" cx="167.5" cy="180.9" r="4"/><circle fill="#7B7D75" cx="174.9" cy="171.2" r="3.3"/><path fill="#60493B" d="M68.3 238.6c-.2-8.3-.9-23.2-3.3-34.4-7.7-3.7-10.4-11.8-13.6-16.6-2.2-3.3-4.7-3.7-6.1-3.6-9.2 2-16 5.6-22.5 11.5-.7.7-1.5 1.4-2.2 2.1C32.5 216 48.9 231 68.3 241.3v-2.7z"/><path fill="#5E6378" d="M68.3 241.3s.1 0 0 0v-2.7 2.7z"/><path fill="#463B34" d="M96.4 222.8l5.8 24.2 4.3 2.8 1.4 4.6c2.9.5 5.8.8 8.7 1.1-3.5-4-6.6-8.2-8.9-11.2-3.7-4.9-7.9-16.3-11.3-21.5z"/><path fill="#2F251F" d="M72.1 233.4c0 3.4-.3 6.6-.9 9.3 10.3 5.1 21.3 8.8 32.9 11l-.4-1.3-31.6-19zm30.1 13.6l-5.8-24.2c-.7-1.1-1.4-1.9-2-2.4-2.8-1.9-12.8-7.9-21.1-12.2 1.6 8.7 3.1 22 3.1 22l25.8 16.8z"/><path fill="#94753E" d="M102.2 247l-25.8-16.8s-1.5-13.3-3.1-22c-1.5-.8-2.9-1.5-4.2-2.1 1.1 6 3 17.4 3 27.3v.1l31.7 19.1.4 1.3c1.2.2 2.5.5 3.8.7l-1.4-4.6-4.4-3z"/><path fill="#837366" d="M72.1 233.3c0-9.8-1.9-21.2-3-27.3-1.2-.6-2.3-1.1-3.3-1.5-.3-.1-.5-.2-.7-.4 2.4 11.2 3.1 26 3.3 34.4v2.7c1 .5 1.9 1 2.9 1.5.5-2.7.8-5.9.8-9.4z"/><path fill="#3D312B" d="M113 247.7c-3.8-5-13.7-25.4-16-28.5s-23.3-13.9-30-15.8c-6.7-1.9-10.3-12-13.4-17.7-3.1-5.7-10.1-4.1-10.1-4.1l.6 2.7s.5-.2 1.2-.2c1.4-.1 3.9.3 6.1 3.6 3.2 4.8 5.9 12.9 13.6 16.6.2.1.5.2.7.4 1 .4 2.1.9 3.3 1.5 1.3.6 2.7 1.3 4.2 2.1 8.3 4.3 18.3 10.3 21.1 12.2.6.4 1.3 1.3 2 2.4 3.4 5.3 7.6 16.7 11.4 21.6 2.3 2.9 5.4 7.2 8.9 11.2l4.5.3c-3-2.9-6.4-6-8.1-8.3z"/><path fill="#2F3A5B" d="M63 196c3 2.7 8.2 3.7 8.9 3.9l11.7-16.3-5-4.4L63 196zm36-25c1.7 1.1 5.5 3.5 5.9 3.5l1.4-2-5.9-2.9L99 171zm7.2 8l-8.4-5.1-1.5 1.6 8.3 5.7zm11.1 6.9s-.4 1.3-.8 2.2c3.7 2.7 11.5 3.4 11.5 3.4v-2.1c.1 0-6.5 0-10.7-3.5zm10.6-11.4h-5.4v2.8h5.6v-2.8zm0 6.4h-9.3l.3 2.1c3.3 1.8 9.1 2.1 9.1 2.1v-4.2h-.1zm-49.1 22.3l7.8 4.8 10.6-13.9-7.3-6zm41.4 2.1c.2 1.3.6 3.2 1 5.3.8 3.8 6.9 6.4 6.9 6.4v-10.2l-7.9-1.5zm7.9 36.6v-.5c-.1-3-1.6-19.2-24.7-30l-1.5 2.3c9.3 7.7 10.1 19.2 12.3 26 1.6 4.9 7.8 12.3 11.4 16.3h2.6v-14.1z"/><path fill="#2F3A5B" d="M98 213.5l4.8-8.1 11.7 8.1-2.6-12.1-7-3.8-10.7 15.2z"/><path fill="#3D312B" d="M98.1 170.4s.3.2.8.6l1.4-1.4 5.9 2.9.5-.7-6.6-3.4-2 2zm8.1 8.6l.5-.8-9.2-5.6-1.9 2.4.7.5 1.5-1.6zm21.9 9.4c-6.5 0-11.5-4-11.5-4l-1.1 2.7c.3.3.7.6 1.1.9.3-.9.8-2.2.8-2.2 4.2 3.5 10.8 3.5 10.8 3.5l-.1-.9V187v1.4zm-.2-8.7H117l.2 1.9c.4.5 1 1 1.7 1.4l-.3-2.1h9.4v-2.2 1h-.1zm0-6.4h-6.4v4h1v-2.8h5.6v-1.9.7zm-38.3 12.6l-12.1 16.5 1.3.8 11.1-15.1 7.3 6 .9-1.2zm38.5 20.8v-1.4l-8.1-1.6s.1.6.3 1.6l7.8 1.4zm-23.2-9.1l7 3.8-.5-2.1-6.9-3.7-12 16.9 1.7.3zM63 196l15.6-16.7 5 4.4.9-1.2-6-5.1-16.6 17.5L63 196zm65.1 45.4zm0-1.4c0-15-12.6-22.7-12.6-22.7l-12.5-8.1-1.9 3.8c.3.2.5.4.8.7l1.5-2.3c23.2 10.8 24.7 27.1 24.7 30v-12.3V240z"/><path fill="#54453F" d="M101.9 213.7c-.3-.2-.5-.4-.8-.7l1.9-3.8 12.5 8.1s12.6 7.7 12.6 22.7v-23s-6.1-2.6-6.9-6.4c-.4-2.1-.8-4-1-5.3-.2-1-.3-1.6-.3-1.6l8.1 1.6v-13.9s-7.8-.7-11.5-3.4c-.4-.3-.8-.6-1.1-.9l1.1-2.7s4.9 4 11.5 4V185s-5.8-.3-9.1-2.1c-.7-.4-1.3-.8-1.7-1.4l-.2-1.9h11v-2.4h-6.5v-4h6.5v-1.5h-15.3s-8.3-10.6-8.9-11.3c-.4-.4-4.4-6-7.6-11.1-1.1 2.2-3.8 5.4-9.8 9.2-12.2 7.7-42.9 23-42.9 23s6.9-1.7 10.1 4.1c3.1 5.7 6.7 15.8 13.4 17.7 6.7 1.9 27.7 12.7 30 15.8s12.1 23.5 16 28.5c1.8 2.3 5.1 5.4 8.2 8.2 1.4.1 2.9.1 4.4.2-3.6-3.9-9.8-11.3-11.4-16.3-2.2-6.8-3-18.4-12.3-26zm-20.8-45.8c1.8 0 3.3 1.5 3.3 3.3s-1.5 3.3-3.3 3.3-3.3-1.5-3.3-3.3 1.5-3.3 3.3-3.3zm26.2 22c0 2.2-1.8 4-4 4s-4-1.8-4-4 1.8-4 4-4 4 1.8 4 4zm-10.1 4.2L86.6 208l-7.8-4.8-1.3-.8 12.1-16.5 8.5 7.1-.9 1.1zm-18.7-16.8l6 5.1-.9 1.2-11.7 16.3c-.7-.2-5.9-1.2-8.9-3.9-.4-.4-.8-.8-1.1-1.2l16.6-17.5zm17.1-2.3l1.9-2.4 9.2 5.6-.6.8-1.6 2.2-8.2-5.7-.7-.5zm10.6-2.5l-1.4 2c-.4 0-4.1-2.4-5.9-3.5-.5-.3-.8-.6-.8-.6l2-2 6.6 3.4-.5.7zm-17.7 12.4c-2.2 0-4-1.8-4-4s1.8-4 4-4 4 1.8 4 4-1.8 4-4 4zm4 27.6l12-16.9 6.9 3.7.5 2.1 2.7 12.2-11.7-8.1-4.8 8.1-3.8-.7-1.8-.4z"/><path fill="#271A18" d="M81.1 21.1l2.4 4.3c1.4-3.7 3.6-7 7.1-9.3 0 0-.6-8 8.3-8.3 0 0 .8-2.4 3.4-5.1-6.5 1.2-12.8 3-18.9 5.3-1.8 4.5-3.2 9.2-2.3 13.1z"/><path fill="#362827" d="M90.5 16c-3.4 2.3-5.7 5.6-7.1 9.3-1.2 3.2-1.9 6.7-2.1 9.9.1-.1.2-.3.2-.4 0 0-.5 6.5.8 12.3 0 0 10.2-11.8 17.6-15.2 0 0-4 4.9.8 4.5 4.8-.5 13.3-11.3 27.3-11.3V0h-.1c-8.8 0-17.4.9-25.7 2.6-2.7 2.8-3.4 5.1-3.4 5.1-8.9.3-8.3 8.3-8.3 8.3z"/><path fill="#60493B" d="M82.1 96.6s-1.4-2.7-1.3-6.6c.2-3.9 1-7.4-1.4-7.8l-.8 4.8c.5 2.1.9 4.4.8 7.6-.2 6.7-1.7 7.4.7 11.3 1.1 1.8 3.1 2.6 4.9 3-1.1-5.7-2.1-12.5-2.5-16.1-.1 1.7-.2 3-.4 3.8z"/><path fill="#775B4B" d="M106.2 156.5c.7.9 1.5 1.6 2.3 2.3l3.6-.2 6.5 4.3v.1c5.1.9 9.4.4 9.4.4v-3.7h-.8l-.8-10c-9.2-.4-11.2-4-11.2-4 2.5-.9 2.7-1.6 5.1-3.8 1.3-1.4 3.5-2.2 5.2-1.3 1 .9 2 .9 2.3.8h.2v-83s-8.6-2.4-13.9-4.3c-5.3-1.9-11.7 1.6-16.4 6.5-4.8 4.7-12.6 13.7-12.7 22.3l-2-2.3s-.1 7.3-.5 12.2c.4 3.6 1.5 10.4 2.5 16.1.7 3.6 1.4 6.8 1.9 8.5.7 2 2 6.8 4 12.5v-.5c.9 3.3 8.3 18.5 15.3 27.1zm-11.1-37.2c-.7 0-1.3-.6-1.3-1.3s.6-1.3 1.3-1.3 1.3.6 1.3 1.3-.6 1.3-1.3 1.3zm3.2 0c0-.7.6-1.3 1.3-1.3.7 0 1.3.6 1.3 1.3s-.6 1.3-1.3 1.3c-.7.1-1.3-.5-1.3-1.3zm4.1 0c0-.7.6-1.3 1.3-1.3.7 0 1.3.6 1.3 1.3s-.6 1.3-1.3 1.3c-.7.1-1.3-.5-1.3-1.3zm4.6-1.3c0-.7.6-1.3 1.3-1.3s1.3.6 1.3 1.3-.6 1.3-1.3 1.3-1.3-.6-1.3-1.3zm4.5-1.9c0-.7.6-1.3 1.3-1.3s1.3.6 1.3 1.3c0 .7-.6 1.3-1.3 1.3s-1.3-.6-1.3-1.3zm13.1-24.8c0 .9-.7 1.6-1.6 1.6-.9 0-1.6-.7-1.6-1.6s.7-1.6 1.6-1.6c.9 0 1.6.8 1.6 1.6zm-1.6-6.8c0 .9-.7 1.6-1.6 1.6-.9 0-1.6-.7-1.6-1.6 0-.9.7-1.6 1.6-1.6.9 0 1.6.7 1.6 1.6zm-1.6-7.2c0 .9-.7 1.6-1.6 1.6-.9 0-1.6-.7-1.6-1.6 0-.9.7-1.6 1.6-1.6.9 0 1.6.7 1.6 1.6zm-2.5-9.3c.9 0 1.6.7 1.6 1.6s-.7 1.6-1.6 1.6c-.9 0-1.6-.7-1.6-1.6s.7-1.6 1.6-1.6zm-2.3 25.8c0 .7-.6 1.3-1.3 1.3s-1.3-.6-1.3-1.3.6-1.3 1.3-1.3 1.3.5 1.3 1.3zm-2.4-6.8c.7 0 1.3.6 1.3 1.3s-.6 1.3-1.3 1.3-1.3-.6-1.3-1.3.6-1.3 1.3-1.3zm-.3-4.8c0 .9-.7 1.6-1.6 1.6s-1.6-.7-1.6-1.6c0-.9.7-1.6 1.6-1.6s1.6.7 1.6 1.6zm-1.9 9.1c0 .7-.6 1.3-1.3 1.3s-1.3-.6-1.3-1.3.6-1.3 1.3-1.3 1.3.6 1.3 1.3zm-.7-15.6c0 .9-.7 1.6-1.6 1.6s-1.6-.7-1.6-1.6c0-.9.7-1.6 1.6-1.6s1.6.7 1.6 1.6zm-3.2-10.9c.9 0 1.6.7 1.6 1.6 0 .9-.7 1.6-1.6 1.6s-1.6-.7-1.6-1.6c0-.9.7-1.6 1.6-1.6zm-1.6 23.6c.7 0 1.3.6 1.3 1.3s-.6 1.3-1.3 1.3-1.3-.6-1.3-1.3.6-1.3 1.3-1.3zm-4.1-1.4c.7 0 1.3.6 1.3 1.3s-.6 1.3-1.3 1.3c-.7 0-1.3-.6-1.3-1.3s.5-1.3 1.3-1.3zm-4.1-1.3c.7 0 1.3.6 1.3 1.3s-.6 1.3-1.3 1.3c-.7 0-1.3-.6-1.3-1.3s.6-1.3 1.3-1.3zm6.8 6.9c3 1 10.2 1.4 9.4 4.9 0 0-6.9-.5-9.9-1.6s-6.9-2.2-6.9-2.2l-8.9.6s5.7-3.5 8-3.8c2.2-.3 5.2 1.2 8.3 2.1zm-11.4-6.9c.7 0 1.3.6 1.3 1.3s-.6 1.3-1.3 1.3-1.3-.6-1.3-1.3.6-1.3 1.3-1.3zm-3.5 29c0-.7.6-1.3 1.3-1.3.7 0 1.3.6 1.3 1.3 0 .7-.6 1.3-1.3 1.3-.7.1-1.3-.5-1.3-1.3z"/><path fill="#413231" d="M88.8 94.4l8.9-.6s3.8 1.1 6.9 2.2c3 1.1 9.9 1.6 9.9 1.6.8-3.5-6.4-4-9.4-4.9-3-1-6.1-2.4-8.3-2.1-2.3.3-8 3.8-8 3.8z"/><path fill="#222D31" d="M112.7 171.8H128v-8.4s-4.3.5-9.4-.4c-.3 2.3-.9 3.9-1.7 4.8s-.4.7-1.2 1.2c-.7.4-1.2.5-1.2.5-2.1-1.4-5.6-4.4-5.6-4.4-1.4-1.1-.4-6.4-.4-6.4-.8-.7-1.6-1.4-2.3-2.3-7-8.6-14.4-23.8-15.2-27.1v.5c.1 2.1.5 9.6.9 11.9.2 1.1 2 4.2 4.2 7.6 3.2 5 7.2 10.6 7.6 11.1.8.8 9 11.4 9 11.4z"/><path fill="#A5ABAB" d="M112.2 158.6l-3.6.2s-1 5.3.4 6.4c-1.4-2.1 1.2-1.9 2.7-1.1 1.5.8 5.3 3.7 5.4 3.7.7-1 1.4-2.5 1.7-4.8v-.1l-6.6-4.3zm3.5 10.5c-.3.2-.7.4-1.2.5.1 0 .6-.1 1.2-.5z"/><path fill="#7C8081" d="M108.9 165.2s3.5 3 5.6 4.4c.5-.1.8-.3 1.2-.5.9-.6 1.2-1.2 1.2-1.2s-3.8-2.9-5.4-3.7c-1.4-.9-4-1.2-2.6 1z"/><circle fill="#AE9F97" cx="123" cy="91.3" r="1.6"/><circle fill="#AE9F97" cx="121.4" cy="84.5" r="1.6"/><circle fill="#AE9F97" cx="119.8" cy="77.3" r="1.6"/><circle fill="#AE9F97" cx="118.9" cy="69.6" r="1.6"/><circle fill="#AE9F97" cx="108.1" cy="66.4" r="1.6"/><circle fill="#AE9F97" cx="109.7" cy="75.7" r="1.6"/><circle fill="#AE9F97" cx="112.3" cy="82.2" r="1.6"/><circle fill="#AE9F97" cx="114.2" cy="88.4" r="1.3"/><circle fill="#AE9F97" cx="115.3" cy="93.8" r="1.3"/><circle fill="#AE9F97" cx="110.7" cy="91.3" r="1.3"/><circle fill="#AE9F97" cx="106.5" cy="89.7" r="1.3"/><circle fill="#AE9F97" cx="102.4" cy="88.4" r="1.3"/><circle fill="#AE9F97" cx="98.3" cy="87" r="1.3"/><circle fill="#AE9F97" cx="93.7" cy="87" r="1.3"/><circle fill="#AE9F97" cx="112.9" cy="116.1" r="1.3"/><circle fill="#AE9F97" cx="108.4" cy="118" r="1.3"/><circle fill="#AE9F97" cx="103.7" cy="119.3" r="1.3"/><circle fill="#AE9F97" cx="99.6" cy="119.3" r="1.3"/><circle fill="#AE9F97" cx="95.1" cy="118" r="1.3"/><circle fill="#AE9F97" cx="91.6" cy="114.7" r="1.3"/><path fill="#413231" d="M79.4 82.2c2.4.4 1.6 3.9 1.4 7.8-.2 3.9 1.3 6.6 1.3 6.6.2-.8.4-2.2.5-3.8.4-5 .5-12.2.5-12.2l1.9 2.3c.2-8.6 8-17.6 12.8-22.5 4.8-4.9 11.2-8.5 16.4-6.5 5.3 1.9 13.9 4.3 13.9 4.3V25.1c-14.1 0-22.5 10.9-27.3 11.3-4.9.5-.8-4.4-.8-4.4-7.3 3.4-17.6 15.2-17.6 15.2-1.3-5.7-.8-12.3-.8-12.3-.1.1-.2.3-.2.4-2.5 4-5.4 15.2-6.6 27.5-1.2 12.3 3.5 23.4 3.9 24.2l.7-4.8z"/><path fill="#737458" d="M103.3 185.9c-2.2 0-4 1.8-4 4s1.8 4 4 4 4-1.8 4-4-1.8-4-4-4z"/><circle fill="#737458" cx="88.5" cy="180.9" r="4"/><path fill="#656861" d="M81.1 174.5c1.8 0 3.3-1.5 3.3-3.3s-1.5-3.3-3.3-3.3-3.3 1.5-3.3 3.3 1.5 3.3 3.3 3.3z"/><path fill="#D7C3B8" d="M128.1 159.6h.6l.8-10h-1.4z"/><path fill="#AF7780" d="M129.5 144.8v4.7c9.2-.4 11.2-4 11.2-4-2.5-.9-2.7-1.6-5.1-3.8-1.3-1.4-3.5-2.2-5.2-1.3-1 .9-2 .9-2.3.8v3.6h1.4zm-1.6-3.6c.1 0 .1 0 0 0 .1 0 0 0 0 0z"/><path fill="#FDE4D5" d="M129.5 144.8h-1.4v4.8h1.4z"/><path fill="#AE9F97" d="M128.1 149.6h-1.6l.8 10h.8z"/><path fill="#996871" d="M126.5 144.8h1.6v-3.6h-.2c-.3 0-1.3 0-2.3-.8-1.8-.8-4-.1-5.2 1.3-2.4 2.2-2.6 2.9-5.1 3.8 0 0 2 3.6 11.2 4v-4.7z"/><path fill="#D7C3B8" d="M128.1 149.6v-4.8h-1.6v4.8h1.4z"/></svg>