<svg xmlns="http://www.w3.org/2000/svg" width="256" height="256"><circle fill="#B1B3B5" cx="128" cy="128" r="128"/><path fill="#402324" d="M221.9 187.3c.3-1 .6-1.9.9-2.8 1.8-12.2 5.9-17.3 5.9-17.3.1 0 .2 0 .3.1.3-2.1-.8-3-.8-3s-5.2 1.5-12.9 1.8c1.1.5 1.7.8 1.7.8-4.9.3-10.4.4-15.7.1-.2.9-.4 1.9-.6 2.8 5.9 1.9 10 6.2 10 11.2 0 5.9-5.6 10.8-13.1 12-1.5 18-1.2 34.8-1 42.1l.7.1s0 .2.1.5c5.3-3.4 10.3-7.2 15.1-11.4 2.5-20.6 9.4-37 9.4-37z"/><path fill="#29221E" d="M168.4 30.9c8.1 11.3 9 65.9 9 65.9l-2.2 5c-.3-1.6-.9-3-1.6-4.2-.2 2.2-.5 4.2-1 5.6-1.1 2.9-2.5 5.3-5.9 6.7-1.7 13-4.9 23.2-6.9 26.7-1 1.8-2.5 3.8-4.3 6.1.2 1.2.4 2.6.7 4 9-8.3 15.8-15 15.8-15s.4.3.9.9l.1-.1.2.5c.1.2.2.5.3.9l.4 1-.2.2c.1 1.5-.2 3.5-1.3 6.3 0 0 .5 2.9 0 5v.2c11.2 14.7 28.9 20.5 28.9 20.5 5.4.3 10.8.2 15.7-.1 0 0-.6-.3-1.7-.8-6.1-2.8-26.3-13.1-29.6-24.8-3.8-13.7 3.2-13.8.3-31.1-2.9-17.4-9.6-23.5-7-39.4 2.6-16-3.5-31-8.3-39.3S148 9.8 128 9.8v7.7s32.2 2.1 40.4 13.4z"/><path fill="#CCAD9F" d="M141.9 157.3c-8.6 8.9-13.9 6.7-13.9 6.7v47s15.7-2.5 26-14.7c-5.3-13.1-13.6-35.4-3.8-44.2 2.1-1.8 4.1-3.6 6-5.4-.3-1.5-.5-2.8-.7-4-3.4 4-8 8.9-13.6 14.6zm26.3-64.9s-.2-1.3-.5-3.4v1.9c.1 6.7-.4 13.1-1.1 19 3.4-1.4 4.8-3.8 5.9-6.7.5-1.5.9-3.4 1-5.6-2.1-3.7-5.3-5.2-5.3-5.2z"/><path fill="#DEBCAD" d="M167.8 90.9V89c-.8-5.3-2.3-15.5-2.6-18.4-.5-4.1.2-13.2-1.4-16-1.7-2.9-7.2-2.4-13.4 1.2-6.2 3.6-22.3 2.2-22.3 2.2v78s1.3.2 2.5-.8c1.8-.8 4.1-.1 5.4 1.3 2.5 2.2 2.7 2.8 5.3 3.7 0 0-2.3 3.9-13.2 3.9V164s5.3 2.2 13.9-6.7c5.6-5.8 10.2-10.6 13.6-14.7 1.8-2.2 3.3-4.2 4.3-6.1 2-3.5 5.2-13.7 6.9-26.7.6-5.8 1.1-12.2 1-18.9zm-31.4 6.7s2.2-8.3 23.6-7.7c0 .1-19.8 7.1-23.6 7.7z"/><path fill="#302924" d="M128 57.9s16 1.4 22.3-2.2c6.2-3.6 11.7-4.1 13.4-1.2 1.7 2.9 1 12 1.4 16 .3 3 1.8 13.1 2.6 18.4.3 2 .5 3.4.5 3.4s3.2 1.5 5.3 5.1c.7 1.2 1.3 2.5 1.6 4.2l2.2-5s-.8-54.6-9-65.9C160.2 19.6 128 17.5 128 17.5v40.4z"/><path fill="#9D4D5E" d="M141.2 140.2c-2.6-.9-2.8-1.5-5.3-3.7-1.3-1.4-3.6-2.1-5.4-1.3-1.2 1-2.5.8-2.5.8v8.1c10.9 0 13.2-3.9 13.2-3.9z"/><path fill="#2A2829" d="M156.6 202.8c-.6-1.7-1.6-4-2.6-6.6-10.3 12.2-26 14.7-26 14.7v44.8s16.9-12.2 39-19.5c-2-6.7-7.3-25.1-10.4-33.4z"/><path fill="#402324" d="M173.6 135.1c-1.6 1.5-13.4 12.9-17.2 16.6-4.2 4-9.4 10.3-5.4 22.8 2.9 9.2 8.9 22.8 22.2 60 4.6-1.3 9.4-2.3 14.3-2.9 0 0-15.6-33.3-23.2-48.9s-5.5-25.4-2.9-31.9l11-9.5c1-2.7 1.3-4.8 1.2-6.2zm-.6-2.1l.3.9c0-.4-.1-.7-.3-.9z"/><path fill="#402324" d="M153.9 191.3c-6-13.2-10-30.3-2.4-37.8 8.1-8 18.1-17 21.3-20.9-.4-.7-.9-.9-.9-.9s-6.8 6.8-15.8 15c-1.9 1.7-3.9 3.6-6 5.4-9.9 8.8-1.5 31.1 3.8 44.2 1.1 2.6 2 4.9 2.6 6.6 3.1 8.2 8.5 26.6 10.4 33.5 1.1-.4 2.2-.7 3.4-1.1-2.2-7.3-8.7-26.9-16.4-44z"/><path fill="#210F17" d="M150.9 174.4c-4-12.5 1.3-18.8 5.4-22.8 3.9-3.7 15.6-15.1 17.2-16.6l.2-.2-.4-1-.3-.8-.2-.5-.1.1c-3.2 3.9-13.2 12.9-21.3 20.9-7.6 7.6-3.6 24.6 2.4 37.8 7.7 17.2 14.2 36.8 16.5 43.9.9-.3 1.8-.5 2.7-.8-13.2-37.2-19.2-50.7-22.1-60z"/><path fill="#210F17" d="M172.3 146.5c-.6 2.3-4.6 7.7 0 24.5 4.8 17.2 20.8 63.7 20.8 63.7l3.4.4c-.2-7.3-.5-24.1 1-42.1-1.1.2-2.2.3-3.4.3-9.1 0-16.5-5.5-16.5-12.2s7.4-12.2 16.5-12.2c2.3 0 4.5.4 6.5 1 .2-.9.4-1.9.6-2.8 0-.1-17.7-5.9-28.9-20.6z"/><path fill="#99948E" d="M196.5 235.1l-3.4-.4s-16-46.5-20.8-63.7c-4.7-16.8-.7-22.2 0-24.5v-.2c.5-2.2 0-5 0-5l-11 9.5c-2.6 6.5-4.8 16.3 2.9 31.9s23.2 48.9 23.2 48.9c-4.9.6-9.7 1.6-14.3 2.9-.9.2-1.8.5-2.7.8-1.1.3-2.3.7-3.4 1.1-22.1 7.3-39 19.5-39 19.5v.2h1.1c36.5-22.2 58.8-22.5 58.8-22.5l.8 3c-30.8 5-51.5 15.6-58.2 19.4 24.6-.5 47.5-7.9 66.8-20.3 0-.3-.1-.5-.1-.5l-.7-.1z"/><path fill="#76736F" d="M188.7 236.5l-.8-3s-22.3.3-58.8 22.5h1.4c6.7-3.9 27.3-14.5 58.2-19.5z"/><path fill="#565551" d="M177.6 181c0 6.7 7.4 12.2 16.5 12.2 1.2 0 2.3-.1 3.4-.3 7.5-1.2 13.1-6.1 13.1-12 0-5-4.1-9.4-10-11.2-2-.6-4.2-1-6.5-1-9.1.1-16.5 5.6-16.5 12.3z"/><path fill="#CCAD9F" d="M222.4 187.4l-.5-.2s-6.9 16.5-9.5 37c3.8-3.4 7.4-6.9 10.8-10.7-1.5-10.7-1.5-19.3-.8-26.1z"/><path fill="#76736F" d="M228.6 167.2s-4.1 5.1-5.9 17.3c-.1.9-.3 1.9-.4 3-.7 6.7-.7 15.4.8 26.1 10.6-11.8 19.1-25.6 24.7-40.7-4.4-2.1-10-3.7-19-5.6 0-.1-.1-.1-.2-.1z"/><path fill="#35191A" d="M59.5 235.1c.2-7.3.5-24.1-1-42.1-7.5-1.2-13.1-6.1-13.1-12 0-5 4.1-9.4 10-11.2-.2-.9-.4-1.9-.6-2.8-5.4.3-10.8.2-15.7-.1 0 0 .6-.3 1.7-.8-7.7-.3-12.9-1.8-12.9-1.8s-1.1.8-.8 3c.1 0 .2 0 .3-.1 0 0 4.1 5.1 5.9 17.3.3.9.6 1.8.9 2.8 0 0 6.9 16.5 9.5 37 4.7 4.1 9.8 7.9 15.1 11.4 0-.3.1-.5.1-.5l.6-.1z"/><path fill="#221B17" d="M54.8 167s17.7-5.8 28.9-20.5v-.2c-.5-2.2 0-5 0-5-1.2-2.8-1.4-4.8-1.3-6.3l-.2-.2.4-1 .3-.9.2-.5.1.1c.4-.7.9-.9.9-.9s6.8 6.8 15.8 15c.3-1.5.5-2.8.7-4-1.8-2.2-3.3-4.2-4.3-6.1-2-3.5-5.2-13.7-6.9-26.7-3.4-1.4-4.8-3.8-5.9-6.7-.5-1.5-.9-3.4-1-5.6-.7 1.2-1.3 2.5-1.6 4.2l-2.2-5s.8-54.6 9-65.9C95.8 19.6 128 17.5 128 17.5V9.8c-20 0-37.8 13.4-42.6 21.7s-10.9 23.3-8.3 39.3c2.6 16-4.2 22-7 39.4s4.2 17.4.3 31.1c-3.3 11.7-23.5 21.9-29.6 24.8-1.1.5-1.7.8-1.7.8 4.9.3 10.3.4 15.7.1z"/><path fill="#B49A8E" d="M105.8 152.1c9.9 8.8 1.5 31.1-3.8 44.2 10.3 12.2 26 14.7 26 14.7v-47s-5.3 2.2-13.9-6.7c-5.6-5.8-10.2-10.6-13.6-14.7-.2 1.2-.4 2.6-.7 4 2 1.8 4 3.6 6 5.5zM88.2 90.9V89c-.3 2-.5 3.4-.5 3.4s-3.2 1.5-5.3 5.1c.2 2.2.5 4.2 1 5.6 1.1 2.9 2.5 5.3 5.9 6.7-.7-5.8-1.2-12.2-1.1-18.9z"/><path fill="#CCAD9F" d="M114.1 157.3c8.6 8.9 13.9 6.7 13.9 6.7v-19.9c-10.9 0-13.2-3.9-13.2-3.9 2.6-.9 2.8-1.5 5.3-3.7 1.3-1.4 3.6-2.1 5.4-1.3 1.2 1 2.5.8 2.5.8V57.9s-16 1.4-22.3-2.2c-6.2-3.6-11.7-4.1-13.4-1.2-1.7 2.9-1 12-1.4 16-.3 3-1.8 13.1-2.6 18.4v1.9c-.1 6.7.4 13.1 1.1 19 1.7 13 4.9 23.2 6.9 26.7 1 1.8 2.5 3.8 4.3 6.1 3.3 4.1 7.9 9 13.5 14.7zm6.4-59.7C116.7 97 96.9 90 96.9 90c21.4-.7 23.6 7.6 23.6 7.6z"/><path fill="#29221E" d="M87.8 92.4s.2-1.3.5-3.4c.8-5.3 2.3-15.5 2.6-18.4.5-4.1-.2-13.2 1.4-16 1.7-2.9 7.2-2.4 13.4 1.2C111.9 59.4 128 58 128 58V17.5s-32.2 2.2-40.4 13.4c-8.1 11.3-9 65.9-9 65.9l2.2 5c.3-1.6.9-3 1.6-4.2 2.2-3.7 5.4-5.2 5.4-5.2z"/><path fill="#884251" d="M125.5 135.2c-1.8-.8-4.1-.1-5.4 1.3-2.5 2.2-2.7 2.8-5.3 3.7 0 0 2.3 3.9 13.2 3.9V136s-1.3.2-2.5-.8z"/><path fill="#1D1C1C" d="M128 211s-15.7-2.5-26-14.7c-1.1 2.6-2 4.9-2.6 6.6-3.1 8.2-8.5 26.6-10.4 33.5 22.1 7.3 39 19.5 39 19.5V211z"/><path fill="#35191A" d="M82.6 133.9l.4-.9c-.2.2-.3.5-.4.9zm22.5 40.5c4-12.5-1.3-18.8-5.4-22.8-3.9-3.7-15.6-15.1-17.2-16.6-.1 1.5.2 3.5 1.3 6.3l11 9.5c2.6 6.5 4.8 16.3-2.9 31.9-7.7 15.6-23.2 48.9-23.2 48.9 4.9.6 9.7 1.6 14.3 2.9 13.2-37.3 19.2-50.8 22.1-60.1z"/><path fill="#35191A" d="M99.4 202.8c.6-1.7 1.6-4 2.6-6.6 5.3-13.1 13.6-35.4 3.8-44.2-2.1-1.8-4.1-3.6-6-5.4-9-8.3-15.8-15-15.8-15s-.4.3-.9.9c3.2 3.9 13.2 12.9 21.3 20.9 7.6 7.6 3.6 24.6-2.4 37.8-7.7 17.2-14.2 36.8-16.5 43.9 1.1.3 2.3.7 3.4 1.1 2.1-6.7 7.4-25.1 10.5-33.4z"/><path fill="#18040D" d="M102.1 191.3c6-13.2 10-30.3 2.4-37.8-8.1-8-18.1-17-21.3-20.9l-.1-.1-.1.5-.3.9-.4 1 .2.2c1.6 1.5 13.4 12.9 17.2 16.6 4.2 4 9.4 10.3 5.4 22.8-2.9 9.2-8.9 22.8-22.2 60 .9.2 1.8.5 2.7.8 2.3-7.3 8.8-26.9 16.5-44z"/><path fill="#200F16" d="M54.8 167c.2 1 .4 1.9.6 2.8 2-.6 4.2-1 6.5-1 9.1 0 16.5 5.5 16.5 12.2s-7.4 12.2-16.5 12.2c-1.2 0-2.3-.1-3.4-.3 1.5 18 1.2 34.8 1 42.1l3.4-.4s16-46.5 20.8-63.7c4.7-16.8.7-22.2 0-24.5C72.5 161.2 54.8 167 54.8 167z"/><path fill="#76736F" d="M89 236.3c-1.1-.4-2.2-.7-3.4-1.1-.9-.3-1.8-.5-2.7-.8-4.6-1.3-9.4-2.3-14.3-2.9 0 0 15.6-33.3 23.2-48.9 7.7-15.6 5.5-25.4 2.9-31.9l-11-9.5s-.5 2.9 0 5v.2c.6 2.3 4.6 7.7 0 24.5-4.8 17.2-20.8 63.7-20.8 63.7l-3.4.4-.7.1s0 .2-.1.5C78 248.1 101 255.5 125.6 256c-6.8-3.9-27.4-14.5-58.2-19.4l.8-3s22.3.3 58.8 22.5h1.1v-.2c-.1-.1-17-12.3-39.1-19.6z"/><path fill="#565551" d="M68.1 233.5l-.8 3c30.8 5 51.5 15.6 58.2 19.4h1.4c-36.5-22.1-58.8-22.4-58.8-22.4z"/><path fill="#4C4B48" d="M78.4 181c0-6.7-7.4-12.2-16.5-12.2-2.3 0-4.5.4-6.5 1-5.9 1.9-10 6.2-10 11.2 0 5.9 5.6 10.8 13.1 12 1.1.2 2.2.3 3.4.3 9.1 0 16.5-5.5 16.5-12.3z"/><path fill="#B49A8E" d="M34.1 187.3l-.5.2c.7 6.7.7 15.4-.8 26.1 3.4 3.8 7 7.4 10.8 10.7-2.6-20.6-9.5-37-9.5-37z"/><path fill="#605F5B" d="M33.6 187.4c-.1-1-.2-2-.4-3-1.8-12.2-5.9-17.3-5.9-17.3-.1 0-.2 0-.3.1-9 1.9-14.6 3.5-19 5.6 5.7 15.1 14.1 28.9 24.7 40.7 1.6-10.7 1.6-19.3.9-26.1z"/><path fill="#302924" d="M136.4 97.6C140.2 97 160 90 160 90c-21.4-.7-23.6 7.6-23.6 7.6z"/><path fill="#29221E" d="M96.9 90s19.8 7 23.6 7.7c0-.1-2.2-8.4-23.6-7.7z"/></svg>