<svg xmlns="http://www.w3.org/2000/svg" width="256" height="256"><circle fill="#B1B3B5" cx="128" cy="128" r="128"/><path fill="#1D373D" d="M128 256c3.3 0 6.7-.1 9.9-.4l-9.9-9v9.4z"/><path fill="#03161F" d="M144.4 178.3c.1-.1.3-.2.4-.3l-.9.3h.5zm36.9-43.8c.4 1.6-4.4 14.1-15.5 25.5l1.9 5.3c14.5-8.6 31.7-20 36.7-27.4 7.7-11.5 9.2-16.6 5.1-21.4 0 0 .8.2 1.8.7-8.5-6.1-39.3 3.9-42.7 5.1-.8 3.6-1.6 7.2-2.6 10.6 4.6-.1 14.8-.1 15.3 1.6z"/><path fill="#1B2C36" d="M161.8 143.6c-.4.7-.7 1.3-1.1 2l5.2 14.4c11.1-11.4 15.9-23.9 15.5-25.5-.5-1.7-10.7-1.7-15.3-1.7l-.9 3.3c-.7 2.2-1.6 4.4-2.7 6.4l.6-.3c-.1.1-.6.6-1.3 1.4z"/><path fill="#C08C76" d="M158.1 149.4c-.3.7-.4 1.3-.4 1.8.2 2.8-1.9 6.4-1.9 6.4h-2.6l-1 2.9-2.4 3.4-1.2-1.2-3.1 3.8-1.4 3.1h-1.9l-1.4 2.2h-2.2l-2.2 3.6h-4l-2.6 1-1.8 1.6v2.6l16-2.1.9-.3c1.1-.6 2.3-1.3 3.7-2 3.8-2 11.1-5.9 19.1-10.7l-1.9-5.3-5.2-14.4c-.7 1.1-1.6 2.3-2.5 3.6zm13.7-45.8c3.7-2.1 5.9-6.9 6.5-9 .8-2.6 3.7-7 3.7-11.5s1-7.7 1.9-12.1c1-4.5-.3-5.4-2.6-5.4-1.2 0-3.8 1.6-5.8 3.1-.1.8-.1 1.6-.2 2.3-.8 6.7-1.7 19.1-3.5 32.6z"/><path fill="#D7A990" d="M137.8 126.2s9.6-.7 10.5 1.7c1 2.4 2.4 6.9 2.4 6.9h-8.4l-3 1.4-1.3-1.7-3.1 1.7-2.4-1.4-1.9 1.4H128V151s9.8-1.2 13.2-4.1c0 0 4.8 4.6 6 4.1 1.2-.5 0-4.1 0-4.1l.5-3.6s4.7.3 5.5 1.2 3.8 0 3.8 0l3.6-1.2 1.8-.9c1.1-2.1 2-4.2 2.7-6.4l.9-3.3c1-3.4 1.8-7 2.6-10.6 1.3-6.2 2.4-12.6 3.2-18.7 1.9-13.6 2.8-25.9 3.5-32.6.1-.8.2-1.6.2-2.3 1-11.1.5-21-7.3-36-1-2-2-3.8-2.9-5.5-8.9 5.7-14.9 38.4-14.9 38.4-2.3-6.1-2.5-45.2-2.5-45.2l5-6.9c.5.2.9.4 1.3.6-5.6-3.7-13.5-5.6-26.3-5.6v121.2c.1.1 7.8-.2 9.9-3.3zm11.1-33c3.7-.9 7.4-4.3 7.4-4.3s6.5 2.3 10.5 1.9c0 0-4 3.4-7.4 3.7-3.4.3-17.4 3.7-17.4 3.7l-2.5-1.6c.1 0 5.7-2.5 9.4-3.4zm12.9 50.4c-1.2 1.4-3 3.8-3.7 5.7.9-1.2 1.8-2.5 2.6-3.8.4-.6.7-1.2 1.1-1.9zM134.9 165l2.9-1.9s.5-1 1.7-1.4c1.2-.5 2.4-1.6 2.4-1.6l1-1.3s1.7-4.6.2-6.5l-6.2 1.7-1.2 1.2-1.2.5-1.7-.2-1.9 1.4-2.9 1v7.5l4.6.7 2.3-1.1z"/><path fill="#3F4E46" d="M147.9 20.4s.2 39.1 2.5 45.2c0 0 6-32.7 14.9-38.4 0 0-2.7-9.4-11-13.2-.4-.2-.9-.4-1.3-.6l-5.1 7z"/><path fill="#22140D" d="M159.4 94.4c3.4-.3 7.4-3.7 7.4-3.7-4 .4-10.5-1.9-10.5-1.9s-3.7 3.4-7.4 4.3c-3.7.9-9.3 3.4-9.3 3.4l2.5 1.6c0 .1 13.9-3.4 17.3-3.7zm-26.8 40.4l2.4 1.4 3.1-1.7 1.3 1.7 3-1.4h8.4s-1.4-4.6-2.4-6.9c-1-2.4-10.5-1.7-10.5-1.7-2.2 3.1-9.8 3.4-9.8 3.4v6.7h2.6l1.9-1.5zm-4.6 23l2.9-1 1.9-1.4 1.7.2 1.2-.5 1.2-1.2 6.2-1.7c1.4 1.9-.2 6.5-.2 6.5l-1 1.3s-1.2 1.1-2.4 1.6-1.7 1.4-1.7 1.4l-2.9 1.9-2.4 1-4.6-.7v12.7l1.7-1.7 2.6-1h4l2.2-3.6h2.2l1.4-2.2h1.9l1.4-3.1 3.1-3.8 1.2 1.2 2.4-3.4 1-2.9h2.6s2.2-3.6 1.9-6.4c0-.5.1-1.1.4-1.8.8-1.9 2.5-4.3 3.7-5.7.7-.8 1.2-1.4 1.2-1.4l-.6.3-1.8.9-3.6 1.2s-3.1.9-3.8 0-5.5-1.2-5.5-1.2l-.5 3.6s1.2 3.6 0 4.1c-1.2.5-6-4.1-6-4.1-3.4 2.9-13.2 4.1-13.2 4.1v4.8c.2.1.2.8.2 2z"/><path fill="#6B5F61" d="M128 180.5v30.1l7.5-.7c.2-3.3 1.2-17.5 1.6-21.3.4-3.7.6-6.1 7.3-10.2l-.5.1-15.9 2z"/><path fill="#243F45" d="M204.4 138c-4.9 7.4-22.1 18.7-36.7 27.4-8.1 4.8-15.3 8.7-19.1 10.7-1.4.7-2.7 1.4-3.7 2-.1.1-.3.2-.4.3-6.7 4-6.9 6.5-7.3 10.2-.4 3.8-1.4 18-1.6 21.3l5.5-.5c-1-4.4-1.6-7.2-1.6-7.2l5.1-.7 14-4.5 6.3-2c-2.6-6.8-4.2-12.2-4.2-12.2l14.6-4.8 5-14.4s18-15.3 32.2-26.3c-.1-.4-.1-.7-.2-.9-.2-1.9 2.4-5 3.8-11.3 1-4.3-2.6-6.7-4.9-7.8-1-.5-1.8-.7-1.8-.7 4.2 4.7 2.6 9.9-5 21.4z"/><path fill="#BEBFB8" d="M128 246.6l9.9 9c2.5-.2 4.9-.5 7.3-.8L128 240v6.6zm7.5-36.8l-7.5.7v5l14.1-1.1c-.4-1.9-.8-3.6-1.1-5.2l-5.5.6z"/><path fill="#004E74" d="M142.1 214.5l-14.1 1.1V240l17.3 14.9c1.8-.2 3.6-.5 5.3-.8-2.4-11.5-6.1-28.3-8.5-39.6z"/><path fill="#A0A19C" d="M144.5 201.4l-5.1.7s.6 2.8 1.6 7.2c.3 1.5.7 3.3 1.1 5.2 2.5 11.4 6.1 28.2 8.5 39.6 1.5-.3 3-.6 4.4-.9-3.8-18.4-10.5-51.8-10.5-51.8z"/><path fill="#0E698C" d="M149.5 199.9l9-2.9-14 4.5s6.7 33.4 10.5 51.7c3.4-.7 6.7-1.6 9.9-2.5-8.1-19.1-15.4-50.8-15.4-50.8z"/><path fill="#046" d="M205.3 201.5c-4.3.4-24.8 2.1-28.9 2.6-4.6.5-7.7.5-10.8-7.2-.3-.7-.5-1.3-.8-2l-6.3 2-9 2.9s7.3 31.8 15.4 50.7c14.3-4.3 27.5-11 39.2-19.7l-4.7-1.7c0 .2 3-14 5.9-27.6z"/><path fill="#002E4A" d="M227.9 128.6c-1.2-1.9-42.6 36.4-42.6 36.4l-4.6 12.9-17.5 4.8s3.4 11 5 13.4 2.2 4.1 9.8 3.6c6.1-.4 21.7-1.2 27.9-1.5 1.5-7.4 3-14.3 3.7-18.1 1.5-7.3 11-25.3 16.3-38.7.1-.2 3.2-10.9 2-12.8zm-54.5 68.8c-1.6 0-2.9-1.3-2.9-2.9s1.3-2.9 2.9-2.9 2.9 1.3 2.9 2.9-1.4 2.9-2.9 2.9z"/><path fill="#8B8D89" d="M175.2 178l-14.6 4.8s1.6 5.4 4.2 12.2c.3.6.5 1.3.8 2 3.1 7.7 6.2 7.7 10.8 7.2 4.1-.4 24.5-2.2 28.9-2.6.2-1.1.5-2.2.7-3.3-6.1.3-21.8 1.2-27.9 1.5-7.7.5-8.1-1.2-9.8-3.6s-5-13.4-5-13.4l17.5-4.8 4.6-12.9s41.4-38.3 42.6-36.4c1.2 1.9-1.9 12.6-1.9 12.7 2.8-7 4.4-12.8 3.1-15.2-1-.7-8.1 4.4-16.6 11.1-14.2 11-32.2 26.3-32.2 26.3l-5.2 14.4z"/><path fill="#A0A19C" d="M224.3 163.5c6.5-13.2 9.8-34.9 9.8-34.9-2.1-1.2-3.8-2-5-2.5 1.3 2.4-.4 8.2-3.1 15.2-5.3 13.4-14.8 31.4-16.3 38.7-.8 3.8-2.2 10.7-3.7 18.1-.2 1.1-.5 2.2-.7 3.3-2.8 13.6-5.8 27.8-5.8 27.8l4.7 1.7c1.6-1.2 3.2-2.4 4.7-3.7l-4.2-1.4 2.6-9.8 10.1 3.6c1.4-1.4 2.9-2.9 4.2-4.3l-13.1-4.8c3.4-15.5 9.3-33.7 15.8-47z"/><path fill="#0D475B" d="M234.1 128.6s-3.3 21.7-9.8 34.9c-6.5 13.2-12.5 31.4-15.8 47l13.1 4.8c1.1-1.2 2.3-2.5 3.4-3.7-1-.4-1.7-1.5-1.7-2.6 0-1.6 1.3-2.9 2.9-2.9 1 0 1.9.5 2.4 1.3 14.6-18.4 24.2-41 26.8-65.6-6-4.6-14-10.1-21.3-13.2zm8.3 39.4c-1.6 0-2.9-1.3-2.9-2.9s1.3-2.9 2.9-2.9 2.9 1.3 2.9 2.9-1.3 2.9-2.9 2.9z"/><path fill="#8B8D89" d="M207.3 216l-2.6 9.8 4.2 1.4c3-2.4 5.8-4.9 8.5-7.6l-10.1-3.6zm-33.9-24.4c-1.6 0-2.9 1.3-2.9 2.9s1.3 2.9 2.9 2.9 2.9-1.3 2.9-2.9-1.4-2.9-2.9-2.9z"/><path fill="#A0A19C" d="M226.1 206.1c-1.6 0-2.9 1.3-2.9 2.9 0 1.2.7 2.2 1.7 2.6 1.2-1.4 2.4-2.8 3.5-4.3-.4-.7-1.3-1.2-2.3-1.2zm16.3-43.8c-1.6 0-2.9 1.3-2.9 2.9s1.3 2.9 2.9 2.9 2.9-1.3 2.9-2.9-1.3-2.9-2.9-2.9z"/><path fill="#102A2F" d="M118.1 255.6c3.3.3 6.6.4 9.9.4v-9.4l-9.9 9z"/><path fill="#000510" d="M51.6 138c4.9 7.4 22.1 18.7 36.7 27.4l1.9-5.3c-11.1-11.4-15.9-23.9-15.5-25.5.5-1.7 10.7-1.7 15.3-1.7-1-3.4-1.8-7-2.6-10.6-3.4-1.1-34.2-11.1-42.7-5.1 1-.5 1.8-.7 1.8-.7-4.1 4.8-2.5 10 5.1 21.5zm59.6 40.1c.1.1.3.2.4.3l.5.1c-.4-.2-.7-.3-.9-.4z"/><path fill="#03161F" d="M94.2 143.6c-.7-.8-1.2-1.4-1.2-1.4l.6.3c-1.1-2.1-2-4.2-2.7-6.4l-.9-3.3c-4.6-.1-14.8-.1-15.3 1.7-.4 1.6 4.4 14.1 15.5 25.5l5.2-14.4c-.5-.7-.8-1.3-1.2-2z"/><path fill="#9C7360" d="M128 180.5V178l-1.7-1.7-2.6-1h-4l-2.2-3.6h-2.2l-1.4-2.2H112l-1.4-3.1-3.1-3.8-1.2 1.2-2.4-3.4-1-2.9h-2.6s-2.2-3.6-1.9-6.4c0-.5-.1-1.1-.4-1.8-.9-1.2-1.8-2.5-2.6-3.8L90.2 160l-1.9 5.3c8.1 4.8 15.3 8.7 19.1 10.7 1.4.7 2.7 1.4 3.7 2l.9.3 16 2.2zM80.5 68.6c-2.1-1.5-4.6-3.1-5.8-3.1-2.2 0-3.5 1-2.6 5.4 1 4.5 1.9 7.7 1.9 12.1 0 4.5 2.9 8.9 3.7 11.5.7 2.1 2.9 6.9 6.5 9-1.9-13.6-2.8-25.9-3.5-32.6 0-.7-.1-1.5-.2-2.3z"/><path fill="#C08C76" d="M94.2 143.6c.4.7.7 1.3 1.1 2 .8 1.3 1.7 2.6 2.6 3.8-.7-2-2.5-4.3-3.7-5.8zm-3.2-7.5c.7 2.2 1.6 4.4 2.7 6.4l1.8.9 3.6 1.2s3.1.9 3.8 0 5.5-1.2 5.5-1.2l.5 3.6s-1.2 3.6 0 4.1c1.2.5 6-4.1 6-4.1 3.4 2.9 13.2 4.1 13.2 4.1v-14.8h-2.6l-1.9-1.4-2.4 1.4-3.1-1.7-1.3 1.7-3-1.4h-8.4s1.4-4.6 2.4-6.9c1-2.4 10.5-1.7 10.5-1.7 2.2 3.1 9.8 3.4 9.8 3.4V8.4c-12.8 0-20.6 1.9-26.3 5.6.4-.2.9-.4 1.3-.6l5 6.9s-.2 39.1-2.5 45.2c0 0-6-32.7-14.9-38.4-1 1.7-1.9 3.6-2.9 5.5-7.8 14.9-8.3 24.8-7.3 36 .1.8.1 1.6.2 2.3.7 6.8 1.6 19.1 3.5 32.6.8 6.1 1.9 12.4 3.2 18.7.8 3.6 1.6 7.2 2.6 10.6.3 1.2.6 2.3 1 3.3zm8.7-47.2s3.7 3.4 7.4 4.3c3.7.9 9.3 3.4 9.3 3.4l-2.5 1.6s-14-3.4-17.4-3.7c-3.4-.3-7.4-3.7-7.4-3.7 4.1.3 10.6-1.9 10.6-1.9zm28.3 68.9l-2.9-1-1.9-1.4-1.7.2-1.2-.5-1.2-1.2-6.2-1.7c-1.4 1.9.2 6.5.2 6.5l1 1.3s1.2 1.1 2.4 1.6 1.7 1.4 1.7 1.4l2.9 1.9 2.4 1 4.6-.7V160c-.1-.8-.1-1.6-.1-2.2z"/><path fill="#324039" d="M105.6 65.6c2.3-6.1 2.5-45.2 2.5-45.2l-5-6.9c-.5.2-.9.4-1.3.6-8.3 3.8-11 13.2-11 13.2 8.8 5.6 14.8 38.3 14.8 38.3z"/><path fill="#0D0000" d="M113.9 98.2l2.5-1.6s-5.6-2.5-9.3-3.4c-3.7-.9-7.4-4.3-7.4-4.3s-6.5 2.3-10.5 1.9c0 0 4 3.4 7.4 3.7 3.4.2 17.3 3.7 17.3 3.7zm4.3 28s-9.6-.7-10.5 1.7c-1 2.4-2.4 6.9-2.4 6.9h8.4l3 1.4 1.3-1.7 3.1 1.7 2.4-1.4 1.9 1.4h2.6v-6.7c0 .1-7.7-.2-9.8-3.3zm-24 17.4c1.2 1.4 3 3.8 3.7 5.7.3.7.4 1.3.4 1.8-.2 2.8 1.9 6.4 1.9 6.4h2.6l1 2.9 2.4 3.4 1.2-1.2 3.1 3.8 1.4 3.1h1.9l1.4 2.2h2.2l2.2 3.6h4l2.6 1 1.7 1.7v-12.7l-4.6.7-2.4-1-2.9-1.9s-.5-1-1.7-1.4c-1.2-.5-2.4-1.6-2.4-1.6l-1-1.3s-1.7-4.6-.2-6.5l6.2 1.7 1.2 1.2 1.2.5 1.7-.2 1.9 1.4 2.9 1v-6.7s-9.8-1.2-13.2-4.1c0 0-4.8 4.6-6 4.1-1.2-.5 0-4.1 0-4.1l-.5-3.6s-4.7.3-5.5 1.2-3.8 0-3.8 0l-3.6-1.2-1.8-.9-.6-.3c.2 0 .7.5 1.4 1.3z"/><path fill="#564D4F" d="M128 184.3v-3.9l-16-2.1-.5-.1c6.7 4 6.9 6.5 7.3 10.2.4 3.8 1.4 18 1.6 21.3l7.5.7v-26.1z"/><path fill="#1D373D" d="M80.8 178l14.6 4.8s-1.6 5.4-4.2 12.2l6.3 2 14 4.5 5.1.7s-.6 2.8-1.6 7.2l5.5.5c-.2-3.3-1.2-17.5-1.6-21.3-.4-3.7-.6-6.1-7.3-10.2-.1-.1-.3-.2-.4-.3-1.1-.6-2.3-1.3-3.7-2-3.8-2-11.1-5.9-19.1-10.7-14.5-8.6-31.7-20-36.7-27.4-7.7-11.5-9.2-16.6-5.1-21.4 0 0-.8.2-1.8.7-2.3 1.1-5.9 3.5-4.9 7.8 1.4 6.2 4.1 9.3 3.8 11.3 0 .2-.1.5-.2.9 14.2 11 32.2 26.3 32.2 26.3l5.1 14.4z"/><path fill="#A0A19C" d="M128 240l-17.3 14.9c2.4.3 4.9.6 7.3.8l9.9-9V240zm0-29.5l-7.5-.7-5.5-.5c-.3 1.5-.7 3.3-1.1 5.2l14.1 1.1v-5.1z"/><path fill="#046" d="M128 233.4v-17.9l-14.1-1.1c-2.5 11.4-6.1 28.2-8.5 39.6 1.8.3 3.5.6 5.3.8L128 240v-6.6z"/><path fill="#8B8D89" d="M113.9 214.5c.4-1.9.8-3.6 1.1-5.2 1-4.4 1.6-7.2 1.6-7.2l-5.1-.7s-6.7 33.4-10.5 51.7c1.5.3 2.9.6 4.4.9 2.4-11.4 6.1-28.2 8.5-39.5z"/><path fill="#004661" d="M111.5 201.4l-14-4.5 9 2.9s-7.3 31.8-15.4 50.7c3.2 1 6.6 1.8 9.9 2.5 3.8-18.2 10.5-51.6 10.5-51.6z"/><path fill="#002E4A" d="M106.5 199.9l-9-2.9-6.3-2c-.3.6-.5 1.3-.8 2-3.1 7.7-6.2 7.7-10.8 7.2-4.1-.4-24.5-2.2-28.9-2.6 2.8 13.6 5.8 27.8 5.8 27.8l-4.7 1.7c11.7 8.7 24.9 15.4 39.2 19.7 8.2-19.2 15.5-50.9 15.5-50.9z"/><path fill="#002944" d="M77.9 199.7c7.7.5 8.1-1.2 9.8-3.6s5-13.4 5-13.4L75.3 178l-4.5-13s-41.4-38.3-42.6-36.4c-1.2 1.9 1.9 12.6 1.9 12.7 5.3 13.4 14.8 31.4 16.3 38.7.8 3.8 2.2 10.7 3.7 18.1 6.1.4 21.7 1.3 27.8 1.6zm7.6-5.2c0 1.6-1.3 2.9-2.9 2.9s-2.9-1.3-2.9-2.9 1.3-2.9 2.9-2.9 2.9 1.3 2.9 2.9z"/><path fill="#6F726E" d="M30 141.4c0-.1-3.1-10.8-1.9-12.7 1.2-1.9 42.6 36.4 42.6 36.4l4.6 12.9 17.5 4.8s-3.4 11-5 13.4-2.2 4.1-9.8 3.6c-6.1-.4-21.7-1.2-27.9-1.5.2 1.1.5 2.2.7 3.3 4.3.4 24.8 2.1 28.9 2.6 4.6.5 7.7.5 10.8-7.2.3-.7.5-1.3.8-2 2.6-6.8 4.2-12.2 4.2-12.2L80.8 178l-5-14.4s-18-15.3-32.2-26.3c-8.5-6.6-15.6-11.7-16.6-11.1-1.3 2.4.3 8.2 3 15.2z"/><path fill="#8B8D89" d="M50.7 201.5c-.2-1.1-.5-2.2-.7-3.3-1.5-7.4-3-14.3-3.7-18.1-1.5-7.3-11-25.3-16.3-38.7-2.8-7-4.4-12.8-3.1-15.2-1.2.4-2.9 1.3-5 2.5 0 0 3.3 21.7 9.8 34.9 6.5 13.2 12.5 31.4 15.8 47l-13.1 4.8c1.4 1.5 2.8 2.9 4.2 4.3l10.1-3.6 2.6 9.8-4.2 1.4c1.6 1.3 3.1 2.5 4.7 3.7l4.7-1.7c.1 0-2.9-14.2-5.8-27.8z"/><path fill="#003343" d="M31.7 163.5c-6.5-13.2-9.8-34.9-9.8-34.9-7.3 3.1-15.3 8.6-21.2 13.1 2.6 24.6 12.2 47.2 26.8 65.6.5-.8 1.4-1.3 2.4-1.3 1.6 0 2.9 1.3 2.9 2.9 0 1.2-.7 2.2-1.7 2.6 1.1 1.3 2.2 2.5 3.4 3.7l13.1-4.8c-3.5-15.4-9.4-33.6-15.9-46.9zM13.6 168c-1.6 0-2.9-1.3-2.9-2.9s1.3-2.9 2.9-2.9 2.9 1.3 2.9 2.9-1.3 2.9-2.9 2.9z"/><path fill="#6F726E" d="M48.7 216l-10.1 3.6c2.7 2.7 5.6 5.2 8.5 7.6l4.2-1.4-2.6-9.8zm31.1-21.5c0 1.6 1.3 2.9 2.9 2.9s2.9-1.3 2.9-2.9-1.3-2.9-2.9-2.9-2.9 1.3-2.9 2.9z"/><path fill="#8B8D89" d="M32.8 208.9c0-1.6-1.3-2.9-2.9-2.9-1 0-1.9.5-2.4 1.3 1.1 1.4 2.3 2.9 3.5 4.3 1.1-.5 1.8-1.5 1.8-2.7zm-19.2-46.6c-1.6 0-2.9 1.3-2.9 2.9s1.3 2.9 2.9 2.9 2.9-1.3 2.9-2.9-1.3-2.9-2.9-2.9z"/></svg>