<svg xmlns="http://www.w3.org/2000/svg" width="256" height="256"><circle fill="#B2B4B5" cx="128" cy="128" r="128"/><path fill="#AB1F23" d="M149.6 171.6l-1.8.9h-.1c-1.6.8-3.2 1.4-4.8 1.9l-1.1 17.1c7.1-5.6 16.2-8 16.2-8l1.8-19.8c-3.1 3.5-6.6 6.1-10.2 7.9zm26.1 34.6c-3 1.3-4.4 6-4.4 6l10.1 5.7 5.3-5.3 1-1 1.2-1.2-13.2-4.2zm-1-2c-.1-.5-.1-.9-.2-1.5-.9-.1-1.7-.1-2.5-.2 1.6 1 2.7 1.7 2.7 1.7zm17.1-3.6c-5.3 1.8-10.7 2.3-15.4 2.2 0 1.4.2 2.2.2 2.2l14 3.7 1.3-1.3-.1-6.8c.1 0 0 0 0 0z"/><path fill="#AB1F23" d="M163 160.1l.1-.1-1.3 1.5-.9 9 5.3-2-.3 2.1-4.9 2.2-1 10.2 4.7-1.2-.3 2.4-4.8 1.2-1.4 13.8c3.2 5.1 11.6 11.5 11.6 11.5 1.1-2.9 3.5-5 3.5-5-1-.3-3.1-1.9-5.1-3.5-3.5-.6-5.7-1.3-5.7-1.3l.6-4.7v-.6.1l.9-7.7c0-1.6 3-27.4 4.1-37-.3.7-.7 1.5-1 2.2-1.1 2.4-2.6 4.7-4.1 6.9zm-19.4 61.2c2.5 3.5 8 15.3 8 15.3 8.8-8.1 20.1-5.5 21.2-5.2v-.1l-15.8-13c-8-.4-13.4 3-13.4 3zm16-3.7c4.5 3.1 10.1 8.1 13.1 10.9 0-.6-.1-1.2-.1-1.8l7.6-7.5c-4.3-2.5-10.1-5.8-10.1-5.8-5.5 0-10.5 4.2-10.5 4.2zm-30 3v18.8c7.1-2 17.9-1.1 17.9-1.1-1.5-8.8-7-16.7-7-16.7-2.3-1.6-10.9-1-10.9-1zm26.3-4.6l-6-12.6s-5.6 1.5-7.9 3.7l.8 11.7c.1.1 6.7-3.4 13.1-2.8zm1.8-30.1c-7.8 1.6-15.6 8.4-15.6 8.4v10.3c3.8-3.2 14.5-6.7 14.5-6.7l1.1-12zm-6 16.9l6.9 12.6s4.9-4.1 8.7-4.2c0 0-8-6.5-10.8-10.7.1.1-2.2.5-4.8 2.3zm-22.1 39.5V256c6.9-.1 13.6-.7 20.2-1.8-.4-5.7-1.1-11.8-1.1-11.8-6-3.5-19.1-.1-19.1-.1zm10-37.2v-10.5s-4.9-1.3-10.1-.5v9.2c.1 0 7.8-.3 10.1 1.8z"/><path fill="#AB1F23" d="M172.9 234.7c-13.1-4.5-21 6.7-21 6.7.4 4.1.6 8.7.6 12.2 6.9-1.3 13.6-3.2 20.1-5.6.1-4.4.3-9.1.3-13.3zm-32.7-15.8l-.6-10.9c-2.9-3-10.1-1.8-10.1-1.8V218c6-.2 10.7.9 10.7.9zm-10.6-27.8c7.7-.6 10.1.5 10.1.5l.9-16.5c-4.8 1.3-8.8 1.6-11 1.6v14.4z"/><path fill="#9C0C0E" d="M172 202.5c.8.1 1.6.2 2.5.2-.2-3.3 1-7.6 1-7.6l2.4.7c-1.3 2.7-1.5 5.3-1.5 7 4.7.1 10.1-.3 15.4-2.2h.1s-16.3-5.5-27.7-12.9l-.9 7.7c.8 1.7 5.6 5.1 8.7 7.1zm-3.7-.6c-2.6-2.2-5.2-4.5-5.2-4.5l.1-1.5-.6 4.7s2.2.7 5.7 1.3z"/><path fill="maroon" d="M172.9 234.7v-3.3c-1.1-.3-12.5-2.9-21.2 5.2 0 0-5.4-11.9-8-15.3 0 0 5.3-3.4 13.4-2.9l15.8 13c0-1-.1-2-.1-2.9-3.1-2.8-8.7-7.7-13.1-10.9 0 0 5.1-4.2 10.5-4.2 0 0 5.8 3.2 10.1 5.8l1.2-1.2-10.1-5.7s1.4-4.7 4.4-6l13.3 4.2 1.7-1.7-14-3.7s-.2-.9-.2-2.2c0-1.7.2-4.3 1.5-7l-2.4-.7s-1.2 4.3-1 7.6c0 .5.1 1 .2 1.5 0 0-1.1-.7-2.7-1.7-3.1-2-7.9-5.3-8.8-7.1v-.1.6l-.1 1.5s2.6 2.3 5.2 4.5c2 1.7 4.1 3.2 5.1 3.5 0 0-2.4 2.1-3.5 5 0 0-8.4-6.3-11.6-11.5l1.4-13.8 4.8-1.2.3-2.4-4.7 1.2 1-10.2 4.9-2.2.3-2.1-5.3 2 .9-9-.8 1c-.4.4-.7.8-1.1 1.2l-1.8 19.8s-9.1 2.4-16.2 8l1.1-17.1c-.8.3-1.6.5-2.4.7l-.9 16.5s-2.4-1.1-10.1-.5v-14.3h-1.6V256h1.6v-13.6s13.2-3.5 19 0c0 0 .8 6.1 1.1 11.8.9-.2 1.8-.3 2.7-.5-.1-3.5-.3-8.2-.6-12.2-.3-.1 7.6-11.4 20.8-6.8zm-5.5-23.5c-3.8.1-8.7 4.2-8.7 4.2l-6.9-12.6c2.6-1.8 4.9-2.3 4.9-2.3 2.7 4.3 10.7 10.7 10.7 10.7zM142 194.3s7.8-6.8 15.6-8.4l-1.1 12s-10.7 3.5-14.5 6.7v-10.3zm7.9 9.1l6 12.6c-6.4-.6-13.1 2.9-13.1 2.9l-.8-11.7c2.3-2.2 7.9-3.8 7.9-3.8zm-20.3-9.3c5.1-.8 10.1.5 10.1.5v10.5c-2.3-2.2-10.1-1.8-10.1-1.8v-9.2zm0 12.1s7.2-1.2 10.1 1.8l.6 10.9s-4.7-1.1-10.7-.8v-11.9zm0 33.2v-18.8s8.7-.6 10.9 1c0 0 5.6 7.9 7 16.7 0-.1-10.9-1-17.9 1.1z"/><path fill="#AB1F23" d="M202.6 226.7c.9 1 1.9 2 2.9 3.1 1.4-1 2.7-2.1 4-3.2-1.1-1.1-2.3-2.2-3.4-3.3-1.4 1.4-2.5 2.5-3.5 3.4zm20-12.6c.1-.1.2-.2.3-.4-.2.1-.4.1-.6.2l.3.2zm-6.9 2.4c.7.7 1.5 1.5 2.5 2.3 1.2-1.2 2.3-2.3 3.4-3.5l-1.1-.8c-1.7.6-3.3 1.2-4.8 2zm-17.1 15.2l-.2 3.2c2.1-1.4 4.1-2.8 6.1-4.3-.9-.9-1.9-1.9-2.8-2.9-3 3.3-3.1 4-3.1 4zm15.8-14.6c-.5.3-1.1.6-1.6.9.8.8 1.7 1.8 3 3.1.4-.4.9-.8 1.3-1.2-.9-.9-1.8-1.9-2.7-2.8zm-6.5 4.6c-.2.2-.4.3-.5.5 1.1 1.1 2.2 2.2 3.5 3.4 1.3-1.1 2.7-2.3 3.9-3.5-1.1-1.1-2.2-2.2-3.1-3.3-1.4.8-2.7 1.8-3.8 2.9z"/><path fill="#ED1E24" d="M165.6 135.7l4.9 10.2c7.6-16.1 11.4-23.8 12.8-36l-2.8-2.1s-4.2 20-14.9 27.9zm-1.3 1.6s-8 6.5-16.6 11l1.4 17.7 13.9-5.9c1.5-2.1 3-4.5 4.2-7.2.4-.8.7-1.5 1-2.2s.6-1.4.9-2l-.1.1-4.7-11.5zm-14-23.1l-14-20.4-2.8 1.9s5.9 16.5 7.4 25.6l9.4-7.1zm27-65.7l2.4-3.6c-2.3-7.7-5.9-14.4-11.2-18.8-1.4-1.2-2.7-2.2-4-3.3l-.6 6.8c-.1 0 11.1 7.3 13.4 18.9zM161.8 28l.9-6.6c-13.1-10.3-20.4-12.9-33.3-13v5.1S152.8 18 161.8 28zm21.7 79.5l-.2 2.1c0-.7.1-1.4.2-2.1zm-47.4-16.9c-.5-1.1-1-2.2-1.4-3.4 0 0 .8-1.8 2.5-4.4l-3-2-6.2.3v12.6h4l4.1-3.1z"/><path fill="#ED1E24" d="M129.4 53.2s11 1 17.8 4.9c0 0 9.9-15.4 14.2-27.2 0 0-8.6-10.1-32.1-15.3v37.6h.1zm14.9 92.3l-5-20.3s-6.3 1.3-9.9 1.3v20.1s11.2.4 14.9-1.1zm-2.5-21.2l5.1 20.6c8.5-3.5 15.7-9.8 15.7-9.8-2.5-6.3-10.5-19-10.5-19-1.9 2.2-10.3 8.2-10.3 8.2zm-12.4 25.8v18.4s12.8-.6 17.6-1.9l-1.7-17.6c-.1 0-10.1 1.1-15.9 1.1zm52.7-71.4h1.9v2.1h-2s.1 17.8-1.3 24.8l2.7 1.8c.2-2.2.3-4.6.3-7.3.2-14 1.1-36-3.6-53.4l-2.5 3.9c.1.1 4.4 8.8 4.5 28.1zm-2.3-33.4l.2.7c-.1-.2-.1-.4-.2-.7zm-16.7-23.6l1.1.9c-.4-.3-.7-.6-1.1-.9zm-24.7 100.6s-1.3-11.9-6.6-26.1h-2.5v26.9c.1.1 6.6.3 9.1-.8zm-9-43.6h4.5l12-18.2s-7.7-3.5-16.5-4.4v22.6zm23.3 34s2.2-1.9 5-6.1c-3.9-.2-8.3-1.4-12.4-4.3l7.4 10.4z"/><path fill="#ED1E24" d="M177.6 75.6c-.1 1-.2 2-.3 3.1h3.1c.1-2.6.5-16.5-3.7-27l-1.4 2.9c1 3.9 2.9 13.4 2.3 21zm1.5 28.9s2-12.7 1.4-23.7h-3.4c-.8 6.4-2.3 13.8-5.1 18.9l7.1 4.8zm-12.5.6c-1.8.8-4.1 1.3-6.7 1.4-.9 1.3-3.1 4.5-6 7.4 0 0 7.7 13.1 10.5 19.7 0 0 11-10.4 14.2-27l-7.5-5.6c-1.2 1.9-2.7 3.4-4.5 4.1zm-14.4-37.5l-4-5.3-12.1 17.3 2.1 1.7c2.9-4.2 7.6-9.8 14-13.7zm22-13.9l2.2-4s-2.1-10.7-12.9-18c0 0-5.9 15.6-13.7 27.9l4.8 6.6c10.7-6 16.1-6.9 16.1-6.9l3.5-5.6zm-24.8 114.4l.3 3.5c3.5-1.9 7.1-4.4 10.3-7.8.4-.4.7-.8 1.1-1.2-.3.1-7.5 3.3-11.7 5.5zm-2.2.8s-10.5 1.7-17.9 1.7v6.1h-1.4 1.6c2.1 0 6.2-.3 11-1.6.8-.2 1.6-.5 2.4-.7 1.6-.5 3.2-1.1 4.8-1.9l-.5-3.6zm.6 3.6l1.8-.9-1.8.9z"/><path fill="#B31317" d="M134.2 80.9l3 2c.3-.5.7-1 1-1.6l-2.1-1.7 12.1-17.3 4 5.3c.2-.1.3-.2.5-.3.7-.4 1.3-.7 1.9-1.1l-4.8-6.6c7.8-12.3 13.7-27.9 13.7-27.9 10.9 7.3 12.9 18 12.9 18l-2.2 4 .7-1.1s.2.7.5 1.9l1.4-2.9c4.2 10.5 3.8 24.5 3.7 27h1.6c0-19.2-4.3-28-4.3-28l2.5-3.9-.3-.7-.2-.7-.1-.4-2.4 3.6c-2.2-11.7-13.4-18.9-13.4-18.9l.6-6.8-.3-.2-1.1-.9-.4-.3-.9 6.6c-8.9-10.1-32.4-14.5-32.4-14.5V8.4H128v72.8l6.2-.3zm-.3-2.2h-4.5V56c8.7 1 16.5 4.4 16.5 4.4l-12 18.3zm27.5-47.8c-4.3 11.7-14.2 27.2-14.2 27.2-6.8-4-17.8-4.9-17.8-4.9V15.6c23.4 5.2 32 15.3 32 15.3z"/><path fill="#B31317" d="M182 80.8h1.9v-2.1h-6.6c-.1.7-.2 1.4-.2 2.1h3.4c.6 11-1.4 23.7-1.4 23.7l-7.1-4.9c-.3.5-.5.9-.8 1.4l7.5 5.6c-3.2 16.6-14.2 27-14.2 27-2.9-6.5-10.5-19.7-10.5-19.7 2.8-2.8 5.1-6.1 6-7.4h-2.3c-2.8 4.2-5 6.1-5 6.1l-7.4-10.4c-3.5-2.5-6.7-6.2-9.2-11.7l-4.2 3.1h-4v83.1h1.4v-6.1c7.3 0 17.9-1.7 17.9-1.7l.5 3.7h.1l1.8-.9-.3-3.5c4.2-2.2 11.4-5.4 11.6-5.5l.8-1 1.3-1.5-.1.1-13.9 5.9-1.4-17.7c8.6-4.5 16.6-11 16.6-11L169 149l.1-.1 1.3-2.8-4.9-10.2c10.7-7.8 14.8-27.9 14.8-27.9l2.8 2.1v-.3l.2-2.1v-.1l-2.7-1.8c1.6-7.2 1.4-25 1.4-25zm-45.7 12.9l14 20.4-9.3 7.1c-1.6-9.1-7.4-25.6-7.4-25.6l2.7-1.9zm-6.9 2.5h2.5c5.3 14.2 6.6 26.1 6.6 26.1-2.5 1.1-9.1.8-9.1.8V96.2zm0 30.3c3.6 0 9.9-1.3 9.9-1.3l5 20.3c-3.7 1.6-14.9 1.2-14.9 1.2v-20.2zm17.5 40.1c-4.8 1.3-17.6 1.9-17.6 1.9v-18.4c5.9 0 15.9-1.1 15.9-1.1l1.7 17.6zm0-21.6l-5.1-20.6s8.4-6.1 10.3-8.2c0 0 8 12.7 10.5 19 0-.1-7.2 6.3-15.7 9.8z"/><path fill="#5B595B" d="M136.1 90.6c2.5 5.4 5.8 9.2 9.2 11.7 4.1 2.9 8.4 4.1 12.4 4.3h2.3c2.6-.1 4.9-.7 6.7-1.4 1.8-.7 3.3-2.2 4.5-4.1.3-.4.6-.9.8-1.4 2.8-5.1 4.3-12.5 5.1-18.9.1-.7.2-1.4.2-2.1.1-1.1.2-2.1.3-3.1.6-7.6-1.3-17-2.2-21.1-.3-1.2-.5-1.9-.5-1.9l-.7 1.1-3.5 5.6s-5.4.9-16.1 6.9c-.6.4-1.3.7-1.9 1.1-.2.1-.4.2-.5.3-6.4 3.9-11.1 9.5-14 13.7-.4.5-.7 1.1-1 1.6-1.7 2.6-2.5 4.4-2.5 4.4.4 1.1.9 2.3 1.4 3.3zm18.6-21.2c9.8-5 19.4-9 19.4-9s3.6 10.2 1 23.7c-2.4 12.5-7.2 18.5-13.7 19.5s-16.6-2.5-25.2-16.1c.1.1 8.7-13 18.5-18.1z"/><path fill="#3A3A39" d="M161.4 103.7c6.5-1 11.3-7 13.7-19.5 2.6-13.5-1-23.7-1-23.7s-9.6 4-19.4 9c-9.8 5-18.4 18.1-18.4 18.1 8.6 13.6 18.7 17 25.1 16.1zm12.2-37.9s1.6 24.9-6.2 30.9-20.1 6.2-29-8.7c0-.1 14.8-21.5 35.2-22.2z"/><path fill="#1C1C1C" d="M167.4 96.6c7.8-6 6.2-30.9 6.2-30.9-20.5.7-35.2 22.1-35.2 22.1 8.9 15.1 21.2 14.8 29 8.8zm3.9-25.8s-.7 26.3-14.1 27.5c-10.7.7-16-9.6-16-9.6s11.5-16.3 30.1-17.9z"/><path fill="#CCCCC6" d="M157.2 98.3c13.4-1.2 14.1-27.5 14.1-27.5-18.6 1.7-30.2 18-30.2 18s5.4 10.2 16.1 9.5z"/><path fill="#9B6F3E" d="M217.9 211l4.5 2.9c.2-.1.4-.1.6-.2 1.1-1.2 2.2-2.5 3.2-3.7-1.1-.4-2.3-.8-3.6-1.2 0 .1-1.9.8-4.7 2.2zm-24.1-9.9l2.2.6c-.8-.3-1.6-.5-2.2-.6zm6.2 1.5l1.6.4c-.6-.1-1.1-.3-1.6-.4zm-23.1 25s6.4-5.8 12.8-12.9l-3-2-5.3 5.3-1.2 1.2-7.6 7.5c0 .6.1 1.2.1 1.8.1.9.1 1.9.1 2.9v3.4c0 4.2-.1 8.9-.3 13.3 1.4-.5 2.7-1 4.1-1.6.4-6.6.6-13.5.3-18.9zm15-20.1l2.6 1.4c.1-.2.3-.4.4-.6l3.3-2c-1.8-1.8-3.4-3.7-4.5-5.3-1.2-.3-1.9-.5-1.9-.5l.1 7zm10.5-3.6l.8-.4c-.4-.1-.9-.2-1.3-.3l.5.7zm-2.7 1.5l1.6-1-1.6-2c-1.3-.3-2.6-.6-3.6-.9 0 .1 1.5 1.8 3.6 3.9zm-10.8 5l-1.2 1.2 2.9 1.9c.9-1.1 1.9-2.2 2.8-3.4l-2.8-1.4-1.7 1.7zm18.4 11.8c.2-.2.4-.3.5-.5 1.2-1.1 2.4-2.1 3.8-2.9-.6-.6-1.1-1.3-1.6-1.9 0 0-.3-.3-.8-.7-1.5 1-3 2.1-4.5 3.3.8.8 1.7 1.7 2.6 2.7zm-5.6 5.5c-.9-1-1.9-2-2.8-3-1.4 1.5-2.8 3.1-4 4.8 0 0-.4 2.6-1.1 8.2 1.5-.9 3.1-1.9 4.6-2.9l.2-3.2c0 .1.1-.6 3.1-3.9zm-1.8-4c.8 1 1.7 2 2.7 3 .9-1 2.1-2.1 3.5-3.4-.9-.9-1.8-1.8-2.7-2.8-1.2 1-2.4 2.1-3.5 3.2zm11.1-7.6s.6.7 1.8 1.9c.5-.3 1.1-.6 1.6-.9-.6-.7-1.3-1.4-1.9-2.1l-.7-.6c-.5.3-1 .7-1.6 1 .3.3.6.5.8.7zm2.6-1.6l2 2c1.6-.8 3.2-1.4 4.7-1.9l-4.1-2.7c-1.1.6-2.3 1.2-3.5 2l.9.6z"/><path fill="#2B2C37" d="M194.5 208.8l1.9 1s2.8 3.9 8.2 9.6c1.5-1.2 3-2.3 4.5-3.3-1.9-1.6-6.9-5.8-10.9-9.9l-3.3 2c-.1.3-.3.4-.4.6zm15.7 6.7c.5-.4 1.1-.7 1.6-1l-7.3-6.1-3.1-3.8-1.6 1c3 3.1 7.4 7.5 10.4 9.9zm-16.6-.1s2 3.2 6.4 8.2c1.1-1.1 2.3-2.2 3.4-3.1-2.8-3-5.6-6.1-8.1-9.4l-1.9-1c-.9 1.1-1.8 2.3-2.8 3.4l3 1.9zm8.8-11.5l2.6 3.8 7.8 6.2c1.2-.7 2.4-1.4 3.5-2l-9-6-1.1-1.6 2 .4 9.7 6.3c2.8-1.4 4.7-2.1 4.7-2.2-4-1.8-19.4-5.4-19.4-5.4l-.8.5zm-3.5 20.8c-2.5-2.8-4.8-5.6-7-8.5l-2.3-1.6c-6.3 7.2-12.8 12.9-12.8 12.9.4 5.5.1 12.3-.3 18.8 6-2.5 11.7-5.3 17.2-8.6.7-5.6 1.1-8.2 1.1-8.2 1.3-1.6 2.7-3.3 4.1-4.8z"/><path fill="#4E0000" d="M217.9 211l-9.7-6.3-2-.4 1.1 1.6 9 6 4.1 2.7 1.1.8c.4-.4.8-.8 1.1-1.2l-.3-.2-4.4-3z"/><path fill="#620000" d="M213.6 214.5l-.8-.7-7.8-6.2-2.6-3.8-.5-.8-.3-.1-1.6-.4-.2-.1 1.6 2 3.1 3.8 7.3 6.1.7.6c.6.7 1.3 1.4 1.9 2.1l2.7 2.7 1-1c-.9-.9-1.8-1.7-2.5-2.3-1.2-1.2-2-1.9-2-1.9zm-2.6 1.6c-.3-.2-.6-.4-.9-.7-3-2.4-7.4-6.8-10.5-10-2.1-2.2-3.6-3.8-3.6-3.8h-.1l-2.2-.6c1.1 1.6 2.7 3.4 4.5 5.3 4 4.1 8.9 8.3 10.9 9.9.5.4.8.7.8.7.5.6 1.1 1.2 1.6 1.9 1 1.1 2 2.2 3.1 3.3.4-.3.7-.7 1.1-1-1.2-1.3-2.2-2.3-3-3.1-1.1-1.2-1.7-1.9-1.7-1.9zm-6.3 3.4c-5.5-5.7-8.2-9.6-8.2-9.6l-1.9-1-2.6-1.4-1.3 1.3 2.8 1.4 1.9 1c2.5 3.3 5.2 6.4 8.1 9.4.9.9 1.8 1.9 2.7 2.8 1.1 1.1 2.3 2.2 3.4 3.3.4-.4.9-.7 1.3-1.1-1.2-1.2-2.4-2.3-3.5-3.4l-2.7-2.7zm-4.8 4.2c-4.3-5-6.4-8.2-6.4-8.2l-2.9-1.9-2.9-1.9-1 1 3 2 2.3 1.6c2.1 2.9 4.5 5.7 7 8.5.9 1 1.8 2 2.8 3 .9 1 1.8 1.9 2.8 2.9.4-.3.7-.5 1.1-.8-1-1.1-2-2.1-2.9-3.1-1.1-1.1-2-2.2-2.9-3.1z"/><path fill="#9C0C0E" d="M107.3 242.3s-.8 6.1-1.1 11.8c6.6 1.1 13.3 1.8 20.2 1.8v-13.6c-.1 0-13.3-3.4-19.1 0zM83 234.7c0 4.2.1 8.9.3 13.3 6.5 2.4 13.2 4.3 20.1 5.6.1-3.5.3-8.2.6-12.2 0 0-7.9-11.2-21-6.7z"/><path fill="#9C0C0E" d="M104.3 236.6s5.4-11.9 8-15.3c0 0-5.3-3.4-13.4-2.9l-15.8 13v.1c1.1-.4 12.4-3 21.2 5.1zm-5.1-36c-2.8 4.2-10.8 10.7-10.8 10.7 3.8.1 8.7 4.2 8.7 4.2l6.9-12.6c-2.5-1.9-4.8-2.3-4.8-2.3zm14.6 6.5c-2.3-2.2-7.9-3.7-7.9-3.7l-6 12.6c6.4-.6 13.1 2.9 13.1 2.9l.8-11.8zm-21.2-11.8v.6l.6 4.7s-2.2.7-5.7 1.3c-2 1.7-4.1 3.2-5.1 3.5 0 0 2.4 2.1 3.5 5 0 0 8.4-6.3 11.6-11.5l-1.4-13.8-4.8-1.2-.3-2.4 4.7 1.2-1-10.2-4.9-2.2-.3-2.1 5.3 2-.9-9-1.3-1.5.1.1c-1.5-2.1-3-4.5-4.2-7.2-.4-.8-.7-1.5-1-2.2 1.1 9.6 4.1 35.5 4.1 37l1 7.9zm-24.5 16.3l1 1-.1.1 5.3 5.3 10.3-5.8s-1.4-4.7-4.4-6l-13.5 4.2 1.3 1.3.1-.1z"/><path fill="#9C0C0E" d="M81.1 204.2s1.1-.7 2.7-1.7c-.8.1-1.6.2-2.5.2 0 .5-.1 1-.2 1.5zm2.1 24.2c3.1-2.8 8.7-7.7 13.1-10.8 0 0-5.1-4.2-10.5-4.2 0 0-5.9 3.3-10.2 5.8l7.7 7.6c-.1.6-.1 1.1-.1 1.6zm30.6-23.8v-10.3s-7.8-6.8-15.6-8.4l1.1 12s10.7 3.5 14.5 6.7zm2.4-10v10.5c2.3-2.2 10.1-1.8 10.1-1.8v-9.2c-5.2-.8-10.1.5-10.1.5zm-8.1-22c-.7-.3-1.3-.6-1.9-.9-3.5-1.9-7.1-4.4-10.3-7.8l1.8 19.8s9.1 2.4 16.2 8l-1.1-17.1c-1.5-.7-3.1-1.3-4.7-2zm7.3 48.9s-5.6 7.9-7 16.7c0 0 10.9-.9 17.9 1.1v-18.8c0 .1-8.7-.5-10.9 1zm.8-29.9s2.4-1.1 10.1-.5v-14.3c-2.1 0-6.2-.3-11-1.6l.9 16.4zm0 16.4l-.6 10.9s4.7-1.1 10.7-.8v-11.9s-7.2-1.2-10.1 1.8zM64 200.8v6.6l1.3 1.3 14-3.7s.2-.9.2-2.2c-4.7.1-10.1-.3-15.4-2.2l-2.1.6s0 .1-.1.1c1.3-.3 2.1-.5 2.1-.5z"/><path fill="#860201" d="M79.4 202.8c0-1.7-.2-4.3-1.5-7l2.4-.7s1.2 4.3 1 7.6c.9-.1 1.7-.1 2.5-.2 3.1-2 7.9-5.3 8.8-7.1l-.9-7.7C80.3 195.1 64 200.6 64 200.6h.1c5.2 1.8 10.6 2.3 15.3 2.2zm13.3-6.9l.1 1.5s-2.6 2.3-5.2 4.5c3.5-.6 5.7-1.3 5.7-1.3l-.6-4.7z"/><path fill="#640000" d="M126.3 176.8v14.3c-7.7-.6-10.1.5-10.1.5l-.9-16.5c-.8-.2-1.6-.5-2.4-.7l1.1 17.1c-7.1-5.6-16.2-8-16.2-8L96 163.8c-.4-.4-.7-.8-1.1-1.2l-.8-1 .9 9-5.3-2 .3 2.1 4.9 2.2 1 10.2-4.7-1.2.3 2.4 4.8 1.2 1.4 13.8c-3.2 5.1-11.6 11.5-11.6 11.5-1.1-2.9-3.5-5-3.5-5 1-.3 3.1-1.9 5.1-3.5 2.6-2.2 5.2-4.5 5.2-4.5l-.1-1.5v-.6.1c-.9 1.8-5.7 5.1-8.8 7.1-1.5 1-2.7 1.7-2.7 1.7.1-.5.1-.9.2-1.5.2-3.3-1-7.6-1-7.6l-2.4.7c1.3 2.7 1.5 5.3 1.5 7 0 1.4-.2 2.2-.2 2.2l-14 3.7-.2.1 1.7 1.6 13.5-4.2c3 1.3 4.4 6 4.4 6L74.3 218l1.2 1.2c4.4-2.6 10.2-5.8 10.2-5.8 5.4 0 10.5 4.2 10.5 4.2-4.4 3.1-10.1 8.1-13.1 10.8-.1.9-.1 1.9-.1 3l15.8-13c8.1-.5 13.4 2.9 13.4 2.9-2.5 3.5-8 15.3-8 15.3-8.7-8.1-20.1-5.5-21.2-5.2 0 1.1 0 2.1-.1 3.3 13.1-4.5 21 6.7 21 6.7-.4 4.1-.6 8.7-.6 12.2.9.2 1.8.3 2.7.5.4-5.7 1.1-11.8 1.1-11.8 5.9-3.5 19 0 19 0V256h1.6v-79.2h-1.4zm-12.5 17.5v10.3c-3.8-3.2-14.5-6.7-14.5-6.7l-1.1-12c7.8 1.6 15.6 8.4 15.6 8.4zm-16.6 21.1s-4.9-4.1-8.7-4.2c0 0 8-6.5 10.8-10.7 0 0 2.3.5 4.9 2.3l-7 12.6zm2.7.6l6-12.6s5.6 1.5 7.9 3.7l-.8 11.7c0 .1-6.6-3.4-13.1-2.8zm26.4 23.4c-7.1-2-17.9-1.1-17.9-1.1 1.5-8.8 7-16.7 7-16.7 2.2-1.6 10.9-1 10.9-1v18.8zm0-21.4c-6-.2-10.7.8-10.7.8l.6-10.9c2.9-3 10.1-1.8 10.1-1.8V218zm0-14.7s-7.8-.4-10.1 1.8v-10.5s4.9-1.3 10.1-.5v9.2z"/><path fill="#9C0C0E" d="M35.2 214.7l-.9.6c1.1 1.2 2.2 2.4 3.4 3.5.9-.8 1.6-1.6 2.3-2.2-1.6-.7-3.2-1.4-4.8-1.9zm6.1 2.6c-.8.9-1.7 1.7-2.5 2.6.4.4.9.8 1.3 1.2 1.2-1.2 2.1-2.1 2.8-2.9-.5-.4-1.1-.7-1.6-.9zm8.3 6.1c-1.1 1.1-2.2 2.2-3.3 3.2 1.3 1.1 2.6 2.1 4 3.2 1-1 1.9-2 2.8-2.9-.9-1-2.1-2.1-3.5-3.5zm4.5 4.5c-.9.9-1.8 1.9-2.7 2.8 2 1.5 4 2.9 6.1 4.3l-.2-2.9c0-.1-.1-.9-3.2-4.2zm-6.1-6c-1.2-1.1-2.5-2.1-3.9-3-.9 1-1.9 2.1-3 3.2 1.3 1.2 2.6 2.4 3.9 3.5 1.2-1.1 2.3-2.2 3.4-3.2-.1-.2-.2-.4-.4-.5z"/><path fill="#B31317" d="M91.6 22.6l1.1-.9c-.3.3-.7.6-1.1.9zM84.7 101l-7.5 5.6c3.2 16.6 14.2 27 14.2 27 2.9-6.5 10.5-19.7 10.5-19.7-2.8-2.8-5.1-6.1-6-7.4-2.6-.1-4.9-.7-6.7-1.4-1.7-.7-3.2-2.2-4.5-4.1zm-4.2-46.5l-1.4-2.9c-4.2 10.5-3.8 24.5-3.7 27h3.1c-.1-1.1-.2-2.1-.3-3.1-.6-7.5 1.3-17 2.3-21zm-7.9 55.1l-.2-2.1c0 .7.1 1.4.2 2.1zM75.9 46l.2-.7c-.1.3-.2.5-.2.7zm50.6 7.2V15.6C103 20.8 94.4 30.9 94.4 30.9c4.3 11.7 14.2 27.2 14.2 27.2 6.9-4 17.9-4.9 17.9-4.9zm-8.9 28.1l2.1-1.7-12.1-17.3-4 5.3c6.5 3.9 11.2 9.5 14 13.7zm-16.4-15.1l4.8-6.6c-7.8-12.3-13.7-27.9-13.7-27.9-10.9 7.3-12.9 18-12.9 18l2.2 4 3.5 5.6s5.4.9 16.1 6.9zM75.4 80.8c-.6 11 1.4 23.7 1.4 23.7l7.1-4.9c-2.8-5.1-4.3-12.5-5.1-18.9h-3.4v.1zm27.8 31.9l7.4-10.4c-4.1 2.9-8.4 4.1-12.4 4.3 2.8 4.1 5 6.1 5 6.1z"/><path fill="#B31317" d="M73.8 80.8h-1.9v-2.1h1.9c0-19.2 4.3-28 4.3-28l-2.5-3.9c-4.8 17.4-3.8 39.5-3.6 53.4 0 2.6.1 5 .3 7.3l2.7-1.8c-1.3-7.1-1.2-24.9-1.2-24.9zm47.9.1l-3 2c1.7 2.6 2.5 4.4 2.5 4.4-.4 1.2-.9 2.3-1.4 3.4l4.2 3.1h4V81.2l-6.3-.3zm4.8-67.4V8.4c-12.9.2-20.2 2.7-33.3 13l.9 6.6c8.9-10 32.4-14.5 32.4-14.5zm-4.2 82.1l-2.8-1.9-14 20.4 9.3 7.1c1.7-9 7.5-25.6 7.5-25.6zM92 29.6l-.6-6.8c-1.3 1-2.6 2.1-4 3.3-5.3 4.5-8.9 11.1-11.2 18.8l2.4 3.6C80.8 36.9 92 29.6 92 29.6zm22.1 94.7s-8.4-6.1-10.3-8.2c0 0-8 12.7-10.5 19 0 0 7.2 6.4 15.7 9.8l5.1-20.6zm7.9-45.6h4.5V56c-8.7 1-16.5 4.4-16.5 4.4l12 18.3zm-46.6 29.1l-2.8 2.1c1.4 12.2 5.2 19.9 12.8 36l4.9-10.2c-10.8-7.9-14.9-27.9-14.9-27.9zm35.2 41.2l-1.7 17.6c4.8 1.3 17.6 1.9 17.6 1.9v-18.4c-5.9 0-15.9-1.1-15.9-1.1zm15.9-25.8v-27H124c-5.3 14.2-6.6 26.1-6.6 26.1 2.5 1.1 9.1.9 9.1.9zm0 3.3c-3.6 0-9.9-1.3-9.9-1.3l-5 20.3c3.7 1.6 14.9 1.2 14.9 1.2v-20.2zm-20.3 45.1l1.8.9-1.8-.9zm0 0l.3-3.5c-4.2-2.2-11.4-5.4-11.6-5.5.4.4.7.8 1.1 1.2 3.2 3.4 6.7 6 10.2 7.8zm-13.3-11.5l13.9 5.9 1.4-17.7c-8.6-4.5-16.6-11-16.6-11l-4.8 11.5-.1-.1c.3.7.6 1.3.9 2s.7 1.5 1 2.2c1.3 2.7 2.7 5 4.3 7.2zm33.6 10.5c-7.3 0-17.9-1.7-17.9-1.7l-.5 3.7c1.6.8 3.2 1.4 4.8 1.9.8.3 1.6.5 2.4.7 4.8 1.3 8.8 1.6 11 1.6h1.6-1.4v-6.2z"/><path fill="maroon" d="M73.8 78.7h1.6c-.1-2.6-.5-16.5 3.7-27l1.4 2.9c.3-1.2.5-1.9.5-1.9l.7 1.1-2.2-4s2.1-10.7 12.9-18c0 0 5.9 15.6 13.7 27.9l-4.8 6.6c.6.4 1.3.7 1.9 1.1.2.1.4.2.5.3l4-5.3 12.1 17.3-2.1 1.7c.4.5.7 1.1 1 1.6l3-2 6.2.3V8.4h-1.4v5.1S103 18 94.1 28l-.9-6.6-.4.3-1.1.9-.3.2.6 6.8s-11.2 7.3-13.4 18.9l-2.4-3.6-.1.4-.2.7-.2.7 2.5 3.9c-.1.1-4.4 8.8-4.4 28.1zm52.7 0H122l-12-18.2s7.7-3.5 16.5-4.4v22.6zm0-63.1v37.6s-11 1-17.8 4.9c0 0-9.9-15.4-14.2-27.2-.1 0 8.5-10.1 32-15.3z"/><path fill="maroon" d="M91.5 137.3s8 6.5 16.6 11l-1.4 17.7-13.9-5.9-.1-.1 1.3 1.5.8 1c.2.1 7.4 3.4 11.6 5.5l-.3 3.5 1.8.9h.1l.5-3.7s10.5 1.7 17.9 1.7v6.1h1.4V93.7h-4l-4.2-3.1c-2.5 5.4-5.8 9.2-9.2 11.7l-7.4 10.4s-2.2-1.9-5-6.1h-2.3c.9 1.3 3.1 4.5 6 7.4 0 0-7.7 13.1-10.5 19.7 0 0-11-10.4-14.2-27l7.5-5.6c-.3-.4-.6-.9-.8-1.4l-7.1 4.9s-2-12.7-1.4-23.7h3.4c-.1-.7-.2-1.4-.2-2.1h-6.6v2.1h1.9s-.1 17.8 1.3 24.8l-2.7 1.8v.1l.2 2.1v.3l2.8-2.1s4.2 20.1 14.8 27.9L85.2 146l1.3 2.8.1.1 4.9-11.6zm35 31.2s-12.8-.6-17.6-1.9l1.7-17.6s10 1.1 15.9 1.1v18.4zm-14.9-23l5-20.3s6.3 1.3 9.9 1.3v20.1s-11.2.4-14.9-1.1zM124 96.2h2.5v26.9s-6.5.2-9.1-.8c0 0 1.3-11.8 6.6-26.1zm-4.4-2.5l2.8 1.9s-5.9 16.5-7.4 25.6l-9.3-7.1 13.9-20.4zm-15.8 22.4c1.9 2.2 10.3 8.2 10.3 8.2l-5.1 20.6c-8.5-3.5-15.7-9.8-15.7-9.8 2.5-6.3 10.5-19 10.5-19z"/><path fill="#5B595B" d="M118.7 82.9c-.3-.5-.7-1-1-1.6-2.9-4.2-7.6-9.8-14-13.7-.2-.1-.3-.2-.5-.3-.7-.4-1.3-.7-1.9-1.1-10.7-6-16.1-6.9-16.1-6.9l-3.5-5.6-.7-1.1s-.2.7-.5 1.9c-.9 4-2.9 13.5-2.2 21.1.1 1 .2 2 .3 3.1.1.7.2 1.4.2 2.1.8 6.4 2.3 13.8 5.1 18.9.3.5.5.9.8 1.4 1.3 1.9 2.8 3.4 4.5 4.1 1.8.8 4.1 1.3 6.7 1.4h2.3c3.9-.2 8.3-1.4 12.4-4.3 3.5-2.5 6.7-6.2 9.2-11.7.5-1.1 1-2.2 1.4-3.4 0 0-.9-1.7-2.5-4.3zm-38 1.3c-2.6-13.5 1-23.7 1-23.7s9.6 4 19.4 9 18.4 18.1 18.4 18.1c-8.6 13.7-18.7 17.1-25.2 16.1s-11.2-7-13.6-19.5z"/><path fill="#3A3A39" d="M119.6 87.6s-8.6-13.1-18.4-18.1-19.4-9-19.4-9-3.6 10.2-1 23.7c2.4 12.5 7.2 18.5 13.7 19.5s16.5-2.5 25.1-16.1zm-31.2 9c-7.8-6-6.2-30.9-6.2-30.9 20.5.7 35.2 22.1 35.2 22.1-8.8 15.1-21.2 14.8-29 8.8z"/><path fill="#1C1C1C" d="M117.4 87.9s-14.7-21.4-35.2-22.1c0 0-1.6 24.9 6.2 30.9 7.8 5.9 20.2 6.2 29-8.8zM84.6 70.8c18.6 1.7 30.2 18 30.2 18s-5.4 10.3-16 9.6c-13.5-1.3-14.2-27.6-14.2-27.6z"/><path fill="#CCCCC6" d="M114.7 88.7s-11.6-16.3-30.2-18c0 0 .7 26.3 14.1 27.5 10.7.8 16.1-9.5 16.1-9.5z"/><path fill="#7C592F" d="M61.9 201.3c-1.1 1.5-2.6 3.2-4.3 5l3.3 2c.1.2.3.4.4.6l2.6-1.4v-6.6c.1-.1-.7.1-2 .4zm.5 8.9c.9 1.1 1.8 2.3 2.8 3.4l2.8-1.8-1.3-1.3-1.7-1.6-2.6 1.3zm-7.9-5.7l1.6 1c1.6-1.6 2.8-3 3.3-3.5-1.1.3-2.3.6-3.6.9l-1.3 1.6zM83 234.7c0-1.1 0-2.2.1-3.3v-.1c0-1 .1-2 .1-3 0-.5.1-1.1.1-1.6l-7.7-7.6-1.2-1.2-5.3-5.3-2.8 1.9c6.3 7.2 12.8 12.9 12.8 12.9-.4 5.5-.1 12.3.3 18.8 1.3.6 2.7 1.1 4 1.6-.3-4.2-.4-8.9-.4-13.1zm-29.5-30.8l.4-.5c-.3.1-.6.1-.8.2l.4.3zm-1 16.6c-.9 1-1.9 2-2.8 2.9 1.4 1.3 2.5 2.5 3.5 3.4 1-1.1 2-2.2 2.8-3.2-1.2-1-2.3-2.1-3.5-3.1zm4.4 4.2c-.9 1.1-1.9 2.1-2.9 3.1 3.1 3.3 3.2 4.1 3.2 4.1l.2 2.9c1.5 1 3 2 4.6 2.9-.7-5.6-1.1-8.2-1.1-8.2-1.2-1.6-2.5-3.3-4-4.8zm-11-7.8c-.5.6-1.1 1.3-1.8 2 1.4.9 2.7 1.9 3.9 3 .2.1.3.3.4.4l2.8-2.8c-1.5-1.2-3-2.3-4.5-3.3-.5.4-.8.7-.8.7zm-10.7-2.2c1.6.5 3.2 1.2 4.8 1.9 1.4-1.3 2.2-2.1 2.2-2.1l.8-.7c-1.2-.7-2.4-1.4-3.5-2l-4.3 2.9zm8.2.3c-.7.8-1.4 1.5-2.1 2.2.5.3 1.1.6 1.6.9 1.3-1.3 1.9-2 1.9-2 .3-.2.6-.4.9-.7-.5-.4-1.1-.7-1.6-1l-.7.6zm-5.4-4c-2.1-1.1-3.7-1.8-4.3-2-1.3.4-2.6.8-3.8 1.2 1.1 1.3 2.2 2.6 3.3 3.8h.1l4.7-3z"/><path fill="#1D1E29" d="M48.5 205.9l-9 6c1.1.6 2.3 1.2 3.5 2l7.8-6.2 2.6-3.8-.5-.3-.3-.2s-2.1.5-5 1.2l2-.4-1.1 1.7zM79 227.6s-6.4-5.8-12.8-12.9l-2.3 1.6c-2.1 2.9-4.5 5.7-7 8.5 1.4 1.5 2.8 3.1 4 4.8 0 0 .4 2.6 1.1 8.2 5.5 3.3 11.2 6.2 17.2 8.6-.4-6.5-.6-13.4-.2-18.8zm-27.6-19.3l-7.3 6.1c.5.3 1 .7 1.6 1 3-2.4 7.4-6.8 10.5-10l-1.6-1-3.2 3.9zm6.2-2c-4 4.1-8.9 8.3-10.9 9.9 1.5 1 3 2.1 4.5 3.3 5.5-5.7 8.2-9.6 8.2-9.6l1.9-1c-.1-.2-.3-.4-.4-.6l-3.3-2zm2.9 4.8c-2.5 3.3-5.2 6.4-8.1 9.4 1.2 1 2.3 2 3.4 3.1 4.3-5 6.4-8.2 6.4-8.2l2.9-1.9c-.9-1.1-1.9-2.2-2.8-3.4l-1.8 1z"/><path fill="#1D1E29" d="M38 211l9.7-6.3c-4.9 1.2-11.9 3.1-14.4 4.2 0 0 .1 0 .3.1.6.2 2.2.9 4.4 2z"/><path fill="#3E0000" d="M39.5 211.8l9-6 1.1-1.6-2 .4L38 211l-4.7 3.1c.4.4.7.8 1.1 1.2l.9-.6 4.2-2.9z"/><path fill="#4E0000" d="M41.3 217.3c.7-.7 1.4-1.5 2.1-2.2l.7-.6 7.3-6.1 3.1-3.8 1.4-1.7.2-.3-2.1.5-.2.3-.4.5-2.6 3.8-7.8 6.2-.8.7s-.8.8-2.2 2.1c-.6.6-1.4 1.4-2.3 2.2l1 1 2.6-2.6zm4.6-.4s.3-.3.8-.7c1.9-1.6 6.9-5.8 10.9-9.9 1.7-1.7 3.2-3.5 4.3-5 0 0 0-.1.1-.1 0-.1.1-.1.1-.2l-2.3.6-.3.3c-.5.6-1.8 1.9-3.3 3.5-3.1 3.2-7.5 7.6-10.5 10-.3.2-.6.5-.9.7 0 0-.7.7-1.9 2-.7.8-1.7 1.7-2.8 2.9.4.3.7.7 1.1 1 1.1-1.1 2.1-2.1 3-3.2.5-.6 1.1-1.3 1.7-1.9zm11 7.8c2.5-2.8 4.8-5.6 7-8.5l2.3-1.6 2.8-1.9.1-.1-1-1-.1.1-2.8 1.8-2.9 1.9s-2 3.2-6.4 8.2c-.8 1-1.8 2-2.8 3.2-.9.9-1.8 1.9-2.8 2.9.4.3.7.5 1.1.8.9-.9 1.8-1.8 2.7-2.8.9-.9 1.9-1.9 2.8-3zm-4.4-4.2c2.8-3 5.6-6.1 8.1-9.4l1.9-1 2.7-1.4.2-.1-1.3-1.3-2.6 1.4-1.9 1s-2.8 3.9-8.2 9.6l-2.8 2.8c-1 1-2.2 2.1-3.4 3.2.4.4.8.7 1.3 1.1 1.1-1 2.2-2.1 3.3-3.2.8-.7 1.7-1.7 2.7-2.7z"/></svg>