
<svg version="1.1" id="Layer_1" xmlns="http://www.w3.org/2000/svg" xmlns:xlink="http://www.w3.org/1999/xlink" x="0px" y="0px"
	 width="980px" height="1000px" viewBox="0 0 980 1000" enable-background="new 0 0 980 1000" xml:space="preserve">
<g>
	<circle fill="#FFFFFF" cx="507" cy="499.8" r="350.5"/>
	<g id="layer1_1_" transform="translate(-282.32053,-396.30734)">
		<path id="path5_1_" fill="#0C2B57" d="M963,794.2c-11.3,6.8-24.9,9-38.4,9c13.6-9,24.9-22.6,29.4-38.4c-13.6,9-27.1,13.6-43,15.8
			C899.7,767,881.6,758,861.3,758c-38.4,0-67.8,29.4-67.8,67.8c0,6.8,0,9,2.3,15.8c-56.5-2.3-106.3-29.4-137.9-70.1
			c-6.8,9-9,22.6-9,33.9c0,24.9,11.3,43,29.4,56.5c-11.3,0-22.6-4.5-29.4-9l0,0c0,31.7,24.9,58.8,54.3,65.6
			c-6.8,2.3-11.3,2.3-18.1,2.3c-4.5,0-9,0-11.3-2.3c9,24.9,33.9,45.2,61.1,45.2c-24.9,18.1-52,27.1-83.7,27.1c-6.8,0-9,0-15.8,0
			c29.4,20.4,65.6,29.4,104,29.4c124.4,0,192.2-101.8,192.2-192.2c0-2.3,0-6.8,0-9C944.9,816.8,956.3,805.5,963,794.2L963,794.2z"/>
	</g>
</g>
</svg>
