<svg xmlns="http://www.w3.org/2000/svg" width="980" height="1000" viewBox="158 251 980 1000"><path fill="#363636" d="M161.1 401.9H1138v695.2H161.1z"/><g fill="#fff"><path d="M992.269 563.607H607.983v33.704l-1.951 59.604h3.901c29.694-66.648 82.579-85.505 120.617-85.505h16.147v369.113c0 53.102-30.994 69.9-49.634 72.501v.108h205.039v-.108c-20.591-2.601-48.334-19.399-48.334-72.501V571.301h16.147c38.039 0 90.924 18.748 120.617 85.505h3.901l-1.951-59.604v-33.595h-.213z"/><path d="M674.307 784.034c0-64.698-34.787-110.105-119.967-142.4-57.979-21.999-92.874-47.9-92.874-99.702 0-49.201 39.989-79.003 85.072-79.003 57.437 0 88.323 42.048 107.071 93.85h3.901l-1.3-45.299v-44.757c-27.743-3.901-63.181-10.404-108.371-10.404-99.918 0-159.523 44.216-169.276 111.839v41.94c8.886 63.831 57.545 91.466 110.647 113.682 62.53 25.901 96.125 53.102 96.125 106.854 0 57.003-34.787 84.855-88.973 84.855-63.831 0-98.618-55.703-115.416-95.15h-2.276v90.165c29.044 6.394 71.742 12.138 119.642 12.138 89.623-.109 175.995-42.157 175.995-138.608z"/></g></svg>