<svg id="Layer_1" xmlns="http://www.w3.org/2000/svg" width="256" height="256"><style>.st1{fill:none}.st2{fill:#c08c76}.st4{fill:#d8aa91}.st5{fill:#b8927d}.st6{fill:#d6d4d4}.st10{fill:#b27d6b}.st12{fill:#a1806e}.st13{fill:#a0a0a1}.st18{fill:#a07440}.st19{fill:#6c4e26}.st20{fill:#431b05}.st23{fill:#573e1a}.st26{fill:#f04f33}</style><g id="XMLID_3_"><circle id="XMLID_81_" cx="128" cy="128.5" r="128" fill="#b2b4b5"/><g id="XMLID_8_"><path id="XMLID_9_" class="st1" d="M128 239.5v7.1-7.1z"/><path id="XMLID_119_" class="st1" d="M85.4 165.8c-.2.1-.4.4-.6.7.1-.2.4-.4.6-.7z"/><path id="XMLID_120_" class="st1" d="M128 246.7v9.8-9.8z"/><path id="XMLID_122_" class="st2" d="M136.9 209.2c-1.3.5-2.5 1.3-3.6 2.4l3.6-2.4z"/><path id="XMLID_123_" class="st2" d="M166.9 152.1s0 .1.1.1c.1.1.2.2.2.3.1.2.2.4.4.6.2.2.3.5.5.7-.2-1.3-.4-2.5-.6-3.7-.2.6-.4 1.3-.6 2 0-.1 0-.1 0 0z"/><path id="XMLID_124_" class="st2" d="M164.5 159.5c-2 5.4-5.6 7.9-8.1 9l-.6.3c-1.5.7-3.8 2-3.8 2-.8.6-1.9 1.6-3.5 2.9-1.6 1.3-4.2 2.3-6.9 2.9l5.6 21.2c12.6-11.6 19.6-24 22.2-29.3-1.5-2.5-2.9-5.1-4.2-7.7-.3-.4-.5-.9-.7-1.3z"/><path id="XMLID_126_" class="st2" d="M139.2 204.3c.5-7-1.6-19.6-2.9-26.7-4.3.6-7.9.7-8.3.7v33.3c4.1-2.3 7.8-4.8 11.2-7.3z"/><path id="XMLID_140_" d="M136.3 177.5c1.3 7.2 3.4 19.8 2.9 26.7 2.8-2.1 5.5-4.3 7.9-6.5l-5.6-21.2c-1.7.5-3.5.8-5.2 1z" fill="#a87b67"/><path id="XMLID_141_" class="st2" d="M184 81.4c-.8 2.5 1.5 7.3 1.5 7.3l-1.9-.5.6 4.3-2.1-1.9s-.3 5.3-.8 7.9c-.3 1.6-1.3 4.5-2 6.5-.4 2.2-.7 4.2-1 5.9-.6 3.6-2 9.3-3.8 15.5 6.1 1.7 7.8-5.1 9.6-10.4 2.1-6.1 1.6-14.5.8-19.5s1.9-5.3 1.4-13.4c-.1-.9-.3-1.6-.6-2.1-.4-.5-1.2-1.1-1.7.4z"/><path id="XMLID_142_" class="st4" d="M128 94c.3 0 1.9-.1 4.1 1.1 0 0 2.7-4.4 5.9-6.1 0-.2 0-.3.1-.5h-10V94z"/><path id="XMLID_143_" class="st4" d="M151.2 140.1c.2.1.3.1.5.2l-.5-.2z"/><path id="XMLID_144_" class="st4" d="M145.9 70.2c6.1-2.7 15.5 0 15.5 0s-10.9-.9-13.3.8c-2.4 1.6-11.5 3.9-20.1 3.9v3.9c.7 0 12-.1 17.8-2.7 6.1-2.7 15.5 0 15.5 0s-10.9-.9-13.3.8c-2.4 1.6-11.5 3.9-20.1 3.9v5.7h22.2c3.3-.8 5.8-.5 7.6 0h3.9c4.9 0 9.3 1.4 10.1 5.3h5.5c.4-1.9.9-4.4.4-5.3-.8-1.4-2-6.4-2-6.4s2.7-13.5 1.8-19.6c-1-6.1-6.5-17.6-11.2-23.9-4.6-6.4-11.5-8.9-19-5.9-7.3 2.9-18.6 5.7-19.3 5.9v36.6c.8-.3 12.1-.3 18-3z"/><path id="XMLID_145_" class="st4" d="M159.1 88.1c-.3 0-.6 0-.9-.1.3 0 .6.1.9.1z"/><path id="XMLID_146_" class="st4" d="M167.9 108.4c.7-1 1.3-2 1.7-2.9.3-.7.5-1.4.7-2.3-.2.8-.4 1.6-.7 2.3-.4.9-1 1.9-1.7 2.9z"/><path id="XMLID_148_" class="st4" d="M159 114.2c.3 0 .5 0 .8-.1-.2.1-.5.1-.8.1z"/><path id="XMLID_149_" class="st4" d="M156.4 168.5l-.6.3.6-.3z"/><path id="XMLID_150_" class="st4" d="M141.5 176.6c2.8-.7 5.3-1.6 6.9-2.9 1.6-1.3 2.8-2.3 3.5-2.9 0 0 3.8-7.3 3.1-11.7-.7-4.4-1.5-8.3-1.5-8.3s4.3 10.1 1.6 17c0 0 3.5-4 5.4-8.4 0 0-2.7 8.6-4.1 9.1 2.5-1.1 6-3.6 8.1-9-.4-.7-.7-1.5-1.1-2.2v-.1c-.6-1.1-1.2-2.3-1.8-3.3-3.3-5.8-7.6-8.7-11.1-10.1v.6s-1.9-.8-3.4-1.6c-.9-.2-1.6-.3-2.1-.3h-.4v.7l-3.4-1.4s-.1 2.2-1.7 1.6c-1.6-.6-3.7-.8-5-.2-1.3.6-2 1.4-6.5 1.4v33.8c.4 0 4-.1 8.3-.7 1.7-.4 3.5-.7 5.2-1.1z"/><path id="XMLID_152_" class="st4" d="M179.3 105c-.4 1.2-.8 2.1-.8 2.1v-8.6l-1.3 1.5c-.5-3.1 1.3-7.4 1.3-7.4l-1.1.7v.6H172s1.7 11.1-2 15.4c-3.7 4.3-6 6.9-14.7 6.9s-13.9 0-18.1-7.7c-4.2-7.7-6-12.1-6-12.1s-1.2-.7-3.1-.7V135c.4 0 6 .3 9.4-3.7 0 0 4.3-.1 6.7 1.9v-.7s3.2 1.2 4.1 1.8 1.1-1.4 1-3c0 0 1 4.2 1.9 5.6.9 1.3 1.5 3.3 1.7 3.7 1.1.4 2.3.9 3.6 1.6-1.8-3.2-4.9-8.4-6.8-11.2-2.4-3.5-6.5-9.8-10.4-11 0 0 6.4 1.7 10.9 9.1 4 6.6 6.4 9.1 7.4 13.8 2.8 1.7 5.9 4.3 8.7 8.2.1.2.2.3.3.5 0 .1.1.1.1.2s.1.1.1.2v.1c.2-.6.4-1.3.6-2 2.1-6.9 4.8-15.7 7.1-23.6 1.8-6.3 3.2-11.9 3.8-15.5.3-1.8.7-3.8 1-6z"/><path id="XMLID_153_" class="st5" d="M155.8 168.7c.2-.1.5-.2.6-.3 1.4-.5 4.1-9.1 4.1-9.1-1.9 4.4-5.4 8.4-5.4 8.4 2.7-6.9-1.6-17-1.6-17s.8 3.8 1.5 8.3c.7 4.4-3.1 11.7-3.1 11.7s2.4-1.3 3.9-2z"/><path id="XMLID_155_" class="st6" d="M132.6 10.6l-2.9 6.2c3.1-1.9 7.2-6.2 7.2-6.2l-1.5 6.7 3.6-3.8c1.7-1.9 7.2-1 7.2-1l-1.5 5c2.2-2.6 6.2-2.6 6.2-2.6s13.2 2.8 23 19.2c-8-6-17.5-7.7-17.5-7.7h-6.9L152 24c-2.2 0-7.7 3.4-7.7 3.4v-1.7l-5.7 2.4v-2.4l-6.2 4.2 1.9-4.2c-3.4 2.2-5.9 7.6-6.3 8.3v2.3c.7-.2 12-3 19.3-5.9 7.5-3 14.4-.5 19 5.9s10.2 17.9 11.2 23.9c1 6.1-1.8 19.6-1.8 19.6s1.2 5 2 6.4c.5.9 0 3.4-.4 5.3h.3v1.6l1.1-.7s-1.8 4.4-1.3 7.4l1.3-1.5v8.6s.3-.9.8-2.1c.7-2 1.7-4.9 2-6.5.5-2.6.8-7.9.8-7.9l2.1 1.9-.6-4.3 1.9.5s-2.3-4.8-1.5-7.3c.5-1.6 1.3-1 1.9-.5 0-2.1 3.1-12.9 2.9-14.8-.2-1.9.6-10.9-3.5-17.6-4.2-6.7-7.3-13.9-10.7-18-3.4-4.1-15.5-21.7-46.6-21.7v6.9l4.4-4.9z"/><path id="XMLID_156_" class="st5" d="M148.1 71c2.4-1.6 13.3-.8 13.3-.8s-9.4-2.7-15.5 0c-5.9 2.6-17.1 2.7-17.8 2.7v1.9c8.5 0 17.6-2.2 20-3.8z"/><path id="XMLID_158_" class="st5" d="M148.1 76.8c2.4-1.6 13.3-.8 13.3-.8s-9.4-2.7-15.5 0c-5.9 2.6-17.1 2.7-17.8 2.7v1.9c8.5.1 17.6-2.1 20-3.8z"/><path id="XMLID_159_" class="st5" d="M150 129.1c-4.6-7.4-10.9-9.1-10.9-9.1 3.8 1.2 8 7.5 10.4 11 1.9 2.8 5 8 6.8 11.2.4.2.8.4 1.2.7-1.1-4.7-3.5-7.2-7.5-13.8z"/><path id="XMLID_160_" d="M128 21.8v12.1c.3-.7 2.9-6.1 6.3-8.3l-1.9 4.2 6.2-4.2V28l5.7-2.4v1.7s5.5-3.4 7.7-3.4l-2.4 2.4h6.9S166 28 174 34c-9.8-16.4-23-19.2-23-19.2s-4 0-6.2 2.6l1.5-5s-5.5-1-7.2 1l-3.6 3.8 1.5-6.7s-4.1 4.3-7.2 6.2l2.9-6.2-4.6 5.2v6.1z" fill="#b0b0b0"/><path id="XMLID_161_" class="st6" d="M150.2 86.3h7.6c-1.8-.5-4.3-.7-7.6 0z"/><path id="XMLID_162_" class="st6" d="M158.2 88c-1.5-.1-3.1-.1-4.6-.1 1.5 0 3.1 0 4.6.1z"/><path id="XMLID_163_" class="st6" d="M139.5 90.9c-.3.2-.7.4-1 .6.3-.2.7-.4 1-.6z"/><path id="XMLID_165_" class="st6" d="M150.4 88.1c.5 0 .9-.1 1.3-.1-.4.1-.8.1-1.3.1z"/><path id="XMLID_166_" class="st6" d="M140.4 90.4c.4-.2.8-.4 1.1-.5-.3.1-.7.3-1.1.5z"/><path id="XMLID_167_" class="st6" d="M143.3 89.3c.4-.1.9-.2 1.4-.3-.5.1-.9.2-1.4.3z"/><path id="XMLID_170_" class="st6" d="M145.1 88.9l1.5-.3-1.5.3z"/><path id="XMLID_171_" class="st6" d="M138.9 88.5h-.9c0 .1-.1.3-.1.5.4-.2.7-.4 1-.5z"/><path id="XMLID_175_" d="M137.1 108.6c4.2 7.7 9.3 7.7 18.1 7.7s11-2.6 14.7-6.9c3.7-4.3 2-15.4 2-15.4h5.5v-2.2h-5.8c-.7-3.8-5.1-5.3-10.1-5.3h-33.7v2.2h10.9c-.3.1-.6.3-1 .5-3.2 1.8-5.9 6.1-5.9 6.1-2.2-1.2-3.8-1.1-4.1-1.1V96c1.9 0 3.1.7 3.1.7s2.1 4.3 6.3 11.9zm-2-14c.1-.2.3-.4.4-.6.5-.5 1-1.1 1.7-1.6.4-.3.9-.7 1.3-.9.4-.2.7-.4 1-.6.3-.2.6-.3.9-.5.4-.2.8-.4 1.1-.5.2-.1.3-.1.4-.2.1-.1.3-.1.3-.1.3-.1.7-.2 1-.3.4-.1.9-.2 1.4-.3.1 0 .2-.1.4-.1l1.5-.3c.4-.1.8-.1 1.2-.2.9-.1 1.7-.2 2.4-.3h.2c.5 0 .9-.1 1.3-.1 1.1-.1 1.8-.1 1.8-.1 1.6 0 3.1 0 4.6.1.3 0 .6 0 .9.1 5.4.4 9.9 1.4 10.7 3.7 1.1 3 1.3 7.8.5 11.4-.2.8-.4 1.6-.7 2.3-.4.9-1 1.9-1.7 2.9-.2.2-.4.5-.6.7-.4.5-.8 1-1.3 1.4l-.7.7c-1.2 1.1-2.5 2-3.9 2.5-.5.2-1.1.4-1.6.4-.3 0-.5.1-.8.1H151c-5.5 0-8.5-1.8-11.3-5.4-2.8-3.6-5.5-8.6-5.5-12.6.3-.5.5-1 .9-1.6z" fill="#907047"/><path id="XMLID_176_" d="M151.3 114.2h7.8c.3 0 .5 0 .8-.1.5-.1 1.1-.2 1.6-.4 1.3-.5 2.7-1.4 3.9-2.5.2-.2.5-.4.7-.7.5-.5.9-.9 1.3-1.4.2-.2.4-.5.6-.7.7-1 1.3-2 1.7-2.9.3-.7.5-1.4.7-2.3.8-3.6.6-8.4-.5-11.4-.8-2.3-5.4-3.3-10.7-3.7-.3 0-.6 0-.9-.1-1.5-.1-3.1-.1-4.6-.1 0 0-.7 0-1.8.1-.4 0-.8.1-1.3.1h-.2c-.7.1-1.6.2-2.4.3-.4.1-.8.1-1.2.2l-1.5.3c-.1 0-.3.1-.4.1-.5.1-.9.2-1.4.3-.4.1-.7.2-1 .3-.1 0-.2.1-.3.1-.1.1-.3.1-.4.2-.3.1-.7.3-1.1.5-.3.1-.6.3-.9.5-.3.2-.7.4-1 .6-.5.3-.9.6-1.3.9-.6.5-1.2 1-1.7 1.6-.2.2-.3.4-.4.6-.4.6-.6 1.1-.6 1.7 0 4 2.8 9 5.5 12.6 2.5 3.6 5.5 5.3 11 5.3z" opacity=".6" fill="#844530"/><path id="XMLID_177_" class="st10" d="M85.4 165.8s6.8 16.6 23.5 31.9l5.6-21.2c-2.8-.7-5.3-1.6-6.9-2.9-1.6-1.3-2.8-2.3-3.5-2.9 0 0-2.3-1.3-3.8-2l-.6-.3c-2.7-1.2-6.6-3.9-8.5-10.2-.7-2.1-1.6-5-2.6-8.3-.3 2-.6 4-1 6.1-.1.2-.9 6.5-2.2 9.8z"/><path id="XMLID_178_" class="st10" d="M116.7 204.3c3.4 2.6 7.2 5 11.3 7.2v1.6-34.9s-3.8-.1-8.3-.7c-1.4 7.2-3.4 19.8-3 26.8z"/><path id="XMLID_179_" class="st10" d="M122.7 211.6c-1.1-1.1-2.3-1.9-3.6-2.4l3.6 2.4z"/><path id="XMLID_182_" class="st10" d="M128 239.5v-3z"/><path id="XMLID_183_" class="st10" d="M128 236.4v-9.8z"/><path id="XMLID_184_" class="st10" d="M128 226.5v-7.9z"/><path id="XMLID_185_" d="M119.7 177.5c-1.7-.2-3.5-.5-5.2-1l-5.6 21.2c2.4 2.2 5 4.4 7.9 6.5-.5-6.9 1.5-19.5 2.9-26.7z" fill="#906958"/><path id="XMLID_186_" class="st10" d="M76.6 105c-.7-2-1.7-4.9-2-6.5-.5-2.6-.8-7.9-.8-7.9l-2.1 1.9.6-4.3-1.9.5s2.3-4.8 1.5-7.3c-.5-1.6-1.3-1-1.9-.5-.3.5-.5 1.2-.6 2.1-.5 8.1 2.2 8.5 1.4 13.4s-1.3 13.4.8 19.5c1.8 5.4 3.5 12.2 9.6 10.4-1.8-6.3-3.2-11.9-3.8-15.5 0-1.6-.4-3.6-.8-5.8z"/><path id="XMLID_189_" class="st2" d="M118.8 92.5c-.4-.3-.9-.7-1.3-.9.4.2.9.5 1.3.9z"/><path id="XMLID_190_" class="st2" d="M84.2 91.6c.7-3.8 5.1-5.3 10.1-5.3h3.9c1.8-.5 4.3-.8 7.6 0h22.3v-5.7c-8.6 0-17.7-2.2-20.1-3.9-2.4-1.6-13.3-.8-13.3-.8s9.4-2.7 15.5 0 17.9 2.7 17.9 2.7v-3.9c-8.6 0-17.7-2.2-20.1-3.9-2.4-1.6-13.3-.8-13.3-.8s9.4-2.7 15.5 0 17.9 2.7 17.9 2.7V36.3s-11.8-2.9-19.3-5.9-14.4-.5-19 5.9-10.2 17.9-11.2 23.9c-1 6.1 1.8 19.6 1.8 19.6s-1.2 5-2 6.4c-.5.9 0 3.4.4 5.3h5.4z"/><path id="XMLID_192_" class="st2" d="M96.9 114.2c-.3 0-.5 0-.8-.1.3.1.6.1.8.1z"/><path id="XMLID_193_" class="st2" d="M97.8 88c-.3 0-.6 0-.9.1.3 0 .6-.1.9-.1z"/><path id="XMLID_194_" class="st2" d="M85.7 103.2c.2.8.4 1.6.7 2.3.4.9 1 1.9 1.7 2.9-.7-1-1.3-2-1.7-2.9-.3-.7-.5-1.4-.7-2.3z"/><path id="XMLID_195_" class="st2" d="M128 88.5h-10c0 .1.1.3.1.5 3.2 1.8 5.9 6.1 5.9 6.1 2.3-1.3 4-1.1 4.1-1.1l-.1-5.5z"/><path id="XMLID_196_" class="st2" d="M100.2 168.7c-.2-.1-.5-.2-.6-.3.2.2.4.3.6.3z"/><path id="XMLID_199_" class="st2" d="M99.5 168.5c-1.4-.5-4.1-9.1-4.1-9.1 1.9 4.4 5.4 8.4 5.4 8.4-2.7-6.9 1.6-17 1.6-17s-.8 3.8-1.5 8.3c-.7 4.4 3.1 11.7 3.1 11.7.8.6 1.9 1.6 3.5 2.9 1.6 1.3 4.2 2.3 6.9 2.9 1.7.4 3.5.7 5.2 1 4.5.6 8.3.7 8.3.7v-33.8c-4.6 0-5.2-.8-6.5-1.4-1.3-.6-3.5-.4-5 .2-1.6.6-1.7-1.6-1.7-1.6l-3.4 1.4s.4-2.5-1-1.3c-1.3 1.2-4.9 2.6-4.9 2.6V142s-1.7.4-1.7 0 1-1.9 1-1.9l-1.6.6s.7-2.4 1.7-3.8 1.9-5.6 1.9-5.6c-.1 1.6.1 3.6 1 3s4.1-1.8 4.1-1.8v.7c2.4-2 6.7-1.9 6.7-1.9 3.4 4.1 9 3.7 9.4 3.7V95.8c-1.9 0-3.2.7-3.2.7s-1.8 4.4-6 12.1c-4.2 7.7-9.3 7.7-18.1 7.7s-11-2.6-14.7-6.9c-3.7-4.3-2-15.4-2-15.4h-5.5v-.6l-1.1-.7s1.8 4.4 1.3 7.4l-1.3-1.5v8.6s-.3-.9-.8-2.1c.4 2.2.7 4.2 1 5.9.6 3.6 2 9.3 3.8 15.5 2.2 7.9 4.9 16.7 7.1 23.6 1 3.3 1.9 6.2 2.6 8.3 2 6.2 5.9 8.9 8.5 10.1zm6.5-39.4c4.6-7.4 10.9-9.1 10.9-9.1-3.8 1.2-8 7.5-10.4 11-2.8 4.1-8.3 13.8-8.3 13.8.8-6 3.2-8.3 7.8-15.7z"/><path id="XMLID_200_" class="st12" d="M100.9 159c.7-4.4 1.5-8.3 1.5-8.3s-4.3 10.1-1.6 17c0 0-3.5-4-5.4-8.4 0 0 2.7 8.6 4.1 9.1l.6.3c1.5.7 3.8 2 3.8 2 .1 0-3.7-7.2-3-11.7z"/><path id="XMLID_201_" class="st13" d="M72 81.4c.8 2.5-1.5 7.3-1.5 7.3l1.9-.5-.6 4.3 2.1-1.9s.3 5.3.8 7.9c.3 1.6 1.3 4.5 2 6.5.4 1.2.8 2.1.8 2.1v-8.6l1.3 1.5c.5-3.1-1.3-7.4-1.3-7.4l1.1.7v-1.6h.3c-.4-1.9-.9-4.4-.4-5.3.8-1.4 2-6.4 2-6.4s-2.7-13.5-1.8-19.6c1-6.1 6.5-17.6 11.2-23.9 4.6-6.4 11.5-8.9 19-5.9s19.3 5.9 19.3 5.9V34s-2.7-6-6.3-8.4l1.9 4.2-6.2-4.2V28l-5.7-2.4v1.7s-5.5-3.4-7.7-3.4l2.4 2.4h-6.9S90.2 28 82.2 34c9.8-16.4 23-19.2 23-19.2s4 0 6.2 2.6l-1.5-5s5.5-1 7.2 1l3.6 3.8-1.5-6.7s4.1 4.3 7.2 6.2l-2.9-6.2 4.7 5.3V8.9C97.1 8.9 85 26.5 81.6 30.6c-3.4 4.2-6.5 11.3-10.7 18-4.2 6.7-3.4 15.6-3.5 17.6-.4 1.9 2.7 12.7 2.7 14.8.6-.5 1.3-1.1 1.9.4z"/><path id="XMLID_202_" class="st12" d="M128 72.9s-11.8 0-17.9-2.7c-6.1-2.7-15.5 0-15.5 0s10.9-.9 13.3.8c2.4 1.6 11.5 3.9 20.1 3.9v-2z"/><path id="XMLID_203_" class="st12" d="M128 78.8s-11.8 0-17.9-2.7c-6.1-2.7-15.5 0-15.5 0s10.9-.9 13.3.8c2.4 1.6 11.5 3.9 20.1 3.9v-2z"/><path id="XMLID_204_" class="st13" d="M118.6 131.3s-4.3-.1-6.7 1.9v-.7s-3.2 1.2-4.1 1.8-1.1-1.4-1-3c0 0-1 4.2-1.9 5.6-1 1.4-1.7 3.8-1.7 3.8l1.6-.6s-1 1.6-1 1.9c0 .4 1.7 0 1.7 0v2.4s3.6-1.4 4.9-2.6c1.3-1.2 1 1.3 1 1.3l3.4-1.4s.1 2.2 1.7 1.6c1.6-.6 3.7-.8 5-.2 1.3.6 2 1.4 6.5 1.4V135c-.4 0-6.1.3-9.4-3.7z"/><path id="XMLID_207_" class="st12" d="M98.2 144.8s5.5-9.6 8.3-13.8c2.4-3.5 6.5-9.8 10.4-11 0 0-6.4 1.7-10.9 9.1-4.6 7.4-7 9.7-7.8 15.7z"/><path id="XMLID_208_" d="M128 21.8v-6l-4.7-5.3 2.9 6.2c-3.1-1.9-7.2-6.2-7.2-6.2l1.5 6.7-3.6-3.8c-1.7-1.9-7.2-1-7.2-1l1.5 5c-2.2-2.6-6.2-2.6-6.2-2.6S91.8 17.6 82 34c8-6 17.5-7.7 17.5-7.7h6.9L104 24c2.2 0 7.7 3.4 7.7 3.4v-1.7l5.7 2.4v-2.4l6.2 4.2-1.9-4.2C125.3 28 128 34 128 34V21.8z" fill="#898a8b"/><path id="XMLID_209_" class="st13" d="M117.1 88.5c.3.1.6.3 1 .5 0-.2 0-.3-.1-.5h-.9z"/><path id="XMLID_210_" class="st13" d="M105.8 88.2c.7.1 1.6.2 2.4.3-.9-.2-1.7-.3-2.4-.3z"/><path id="XMLID_211_" class="st13" d="M98.2 86.3h7.6c-3.3-.7-5.8-.5-7.6 0z"/><path id="XMLID_212_" class="st13" d="M104.3 88c.4 0 .8.1 1.3.1-.5 0-.9 0-1.3-.1z"/><path id="XMLID_213_" class="st13" d="M109.4 88.6l1.5.3-1.5-.3z"/><path id="XMLID_214_" class="st13" d="M114.5 89.9c.3.1.7.3 1.1.5-.4-.2-.8-.4-1.1-.5z"/><path id="XMLID_215_" class="st13" d="M102.4 87.9c-1.6 0-3.1 0-4.6.1 1.5-.1 3.1-.1 4.6-.1z"/><path id="XMLID_216_" class="st13" d="M111.3 89c.5.1.9.2 1.4.3-.5-.1-.9-.2-1.4-.3z"/><path id="XMLID_218_" class="st13" d="M117.5 91.5c-.4-.3-.9-.5-1.3-.8.4.3.9.6 1.3.8z"/><path id="XMLID_221_" d="M128 94c-.1 0-1.8-.2-4.2 1.1 0 0-2.7-4.4-5.9-6.1-.3-.2-.6-.3-1-.5h11v-2.2H94.1c-4.9 0-9.3 1.4-10.1 5.3h-5.8v2.2H84s-1.7 11.1 2 15.4c3.7 4.3 6 6.9 14.7 6.9s13.9 0 18.1-7.7c4.2-7.7 6-12.1 6-12.1s1.2-.7 3.2-.7V94zm-6.8 4.6c-.8 3.5-3 7.3-5.2 10.2-1 1.3-2.1 2.4-3.3 3.3-.6.4-1.3.8-2 1.1-1.6.7-3.6 1-6 1h-7.8c-.3 0-.5 0-.8-.1-.5-.1-1.1-.2-1.6-.4-2.2-.8-4.3-2.7-5.8-4.6-.2-.2-.4-.5-.6-.7-.7-1-1.3-2-1.7-2.9-.3-.7-.5-1.4-.7-2.3-.3-1.4-.5-2.9-.5-4.5 0-2.5.3-5 1-6.9.8-2.3 5.4-3.3 10.7-3.7.3 0 .6 0 .9-.1 1.5-.1 3.1-.1 4.6-.1 0 0 .7 0 1.8.1.4 0 .8.1 1.3.1h.2c.7.1 1.6.2 2.4.3.4.1.8.1 1.2.2l1.5.3c.1 0 .3.1.4.1.5.1.9.2 1.4.3.4.1.7.2 1 .3.1 0 .2.1.3.1.1.1.3.1.4.2.3.1.7.3 1.1.5l.6.3c.4.2.9.5 1.3.8.5.3.9.6 1.3.9 1.5 1.1 2.7 2.5 2.7 3.8.2.8.1 1.6-.1 2.4z" fill="#785d39"/><path id="XMLID_222_" d="M118.8 92.5c-.4-.3-.9-.7-1.3-.9-.4-.3-.9-.5-1.3-.8l-.6-.3c-.4-.2-.8-.4-1.1-.5-.2-.1-.3-.1-.4-.2-.1-.1-.3-.1-.3-.1-.3-.1-.7-.2-1-.3-.4-.1-.9-.2-1.4-.3-.1 0-.2-.1-.4-.1l-1.5-.3c-.4-.1-.8-.1-1.2-.2-.9-.1-1.7-.2-2.4-.3h-.2c-.5 0-.9-.1-1.3-.1-1.1-.1-1.8-.1-1.8-.1-1.6 0-3.1 0-4.6.1-.3 0-.6 0-.9.1-5.4.4-9.9 1.4-10.7 3.7-.7 1.9-1 4.4-1 6.9 0 1.6.2 3.1.5 4.5.2.8.4 1.6.7 2.3.4.9 1 1.9 1.7 2.9.2.2.4.5.6.7 1.6 2 3.7 3.8 5.8 4.6.5.2 1.1.4 1.6.4.3 0 .5.1.8.1h7.8c2.4 0 4.3-.3 6-1 .7-.3 1.4-.7 2-1.1 1.2-.8 2.3-1.9 3.3-3.3 2.2-2.9 4.5-6.8 5.2-10.2.2-.8.3-1.6.3-2.3-.2-1.4-1.4-2.8-2.9-3.9z" opacity=".6" fill="#6d3723"/><path id="XMLID_223_" d="M194.5 182.1c1.5 5.6 2 12.2 1.5 20-1 13.4-5.9 27.8-12.7 41.8 22.8-10.9 41.8-28.4 54.7-50-11.9-5.3-26.2-11.3-37.5-15.8-1.4 2-3.5 3.4-6 4z" fill="#6d3723"/><path id="XMLID_224_" class="st18" d="M132.9 231.5l-4.9-4.9v9.8z"/><path id="XMLID_225_" class="st18" d="M128 218.6v7.9l5-5-4.2-4.2c-.4.6-.7 1.1-.8 1.3 0 .1 0 0 0 0z"/><path id="XMLID_226_" class="st18" d="M138.1 216.4l5.1-5.1-1.4-1.4c-.6-.3-1.1-.5-1.5-.7-1.1-.5-2.3-.4-3.4 0l-3.6 2.4 4.8 4.8z"/><path id="XMLID_227_" transform="rotate(-134.999 138.125 241.546)" class="st18" d="M134.5 238h7.2v7.2h-7.2z"/><path id="XMLID_229_" class="st18" d="M153.4 221.5l-5.1-5.1 2-2c-2.5-1.4-4.8-2.6-6.7-3.6l-.4.4 5.1 5.1-5.1 5.1 5.1 5.1-4.9 4.9 4.9 4.9-5.1 5.1 1.5 1.5c1.3-2.1 2.6-4.3 3.8-6.4l-.2-.2.8-.8c1-1.7 2-3.5 3-5.2l-3.9-3.9 5.2-4.9z"/><path id="XMLID_230_" class="st18" d="M128 246.7v9.8h.3l4.8-4.8-5.1-5z"/><path id="XMLID_231_" class="st18" d="M153.4 221.5l2.5 2.5c.9-1.7 1.9-3.3 2.8-4.9-.6-.3-1.2-.7-1.8-1l-3.5 3.4z"/><path id="XMLID_232_" class="st18" d="M133.1 251.7l3.9 3.9c1.3-2.1 2.7-4.1 3.9-6.2l-2.7-2.7-5.1 5z"/><path id="XMLID_233_" class="st18" d="M128 236.5v10.1l5.1-5.1z"/><path id="XMLID_234_" transform="rotate(134.999 138.13 231.519)" class="st18" d="M134.6 228h7v7h-7z"/><path id="XMLID_235_" transform="rotate(-134.999 138.126 221.487)" class="st18" d="M134.5 217.9h7.2v7.2h-7.2z"/><path id="XMLID_236_" class="st19" d="M133.2 231.5l4.9-4.9-5-5.1-5.1 5v.1l4.9 4.9-4.9 4.9v.1l5.1 5 5-5z"/><path id="XMLID_237_" class="st19" d="M133.1 241.5l-5.1 5.1v.1l5.1 5 5-5.1z"/><path id="XMLID_238_" class="st19" d="M133.1 251.7l-4.8 4.8c2.8 0 5.5-.1 8.2-.3.1-.2.3-.4.4-.7l-3.8-3.8z"/><path id="XMLID_239_" class="st19" d="M133.1 221.5l5.1-5.1-4.8-4.8c-1.9 1.8-3.6 4.2-4.5 5.6l4.2 4.3z"/><path id="XMLID_240_" class="st19" d="M143.1 231.5l-5 5 5.1 5 5.1-5-5-5 5-4.9-5.1-5.1-5.1 5.1z"/><path id="XMLID_241_" class="st19" d="M138.1 246.6l2.7 2.7 3.9-6.3-1.5-1.5-5.1 5.1z"/><path id="XMLID_242_" transform="rotate(134.999 143.22 216.398)" class="st19" d="M139.6 212.8h7.2v7.2h-7.2z"/><path id="XMLID_243_" class="st19" d="M143.2 211.3l.4-.4c-.7-.3-1.3-.7-1.8-.9l1.4 1.3z"/><path id="XMLID_244_" class="st19" d="M148.4 226.6l3.9 3.9c1.3-2.2 2.5-4.3 3.7-6.5l-2.5-2.5-5.1 5.1z"/><path id="XMLID_245_" class="st19" d="M148.6 236.7c.2-.4.4-.7.6-1.1l-.8.8.2.3z"/><path id="XMLID_246_" class="st19" d="M153.4 221.5l3.4-3.4c-2.2-1.2-4.5-2.5-6.6-3.6l-2 2 5.2 5z"/><path id="XMLID_247_" class="st20" d="M171.4 158.3c.2.2.4.5.6.7.1.2.3.3.4.5l.6.6c.2.2.3.3.4.5.2.2.3.4.5.5l.4.4c.2.1.3.3.5.4.1.1.3.2.4.3l.4.4c.1.1.3.2.4.3.1.1.3.2.4.3.1.1.3.2.4.3.1.1.2.2.3.2.1.1.3.2.4.3.1.1.2.1.3.2.1.1.2.1.4.2.1.1.2.1.3.2.1.1.2.1.4.2.1 0 .2.1.2.1.1.1.2.1.4.2.1 0 .1.1.2.1.1.1.2.1.4.1.1 0 .1 0 .2.1s.3.1.4.1h.1v-2.8c-2.9-2.1-6.3-4-10.2-5.8.2.2.4.5.6.7-.1.3 0 .5.2.7z"/><path id="XMLID_248_" class="st20" d="M194.5 182.1c-.9.2-1.9.4-2.9.4h-.3c-.6 0-1.1 0-1.7-.1-.2 0-.4 0-.6-.1-.3 0-.7-.1-1-.1-.2 0-.5-.1-.7-.1-.3 0-.5-.1-.8-.1-.3-.1-.5-.1-.8-.2-.2-.1-.5-.1-.7-.2-.3-.1-.5-.2-.8-.2-.2-.1-.4-.1-.6-.2-.3-.1-.5-.2-.8-.3-.2-.1-.3-.1-.5-.2-.3-.1-.5-.2-.8-.3-.1-.1-.3-.1-.4-.2-.3-.1-.5-.3-.8-.4-.1-.1-.2-.1-.3-.2-1.1-.6-2.1-1.3-3.1-2.1 5.7 20.2-3.5 49.8-3.5 49.8s-7.1-4.1-14.9-8.4c-.9 1.6-1.8 3.2-2.8 4.9-1.2 2.1-2.4 4.3-3.7 6.5-1 1.7-2 3.4-3 5.2-.2.3-.4.7-.6 1.1-1.3 2.1-2.5 4.2-3.8 6.4l-3.9 6.3c-1.3 2.1-2.6 4.1-3.9 6.2-.1.2-.3.4-.4.7 16.7-1.1 32.5-5.4 46.9-12.3 6.7-14 11.6-28.4 12.7-41.8.5-7.8.1-14.3-1.5-20z"/><path id="XMLID_250_" d="M169.3 168.5c-2.6 5.3-9.6 17.6-22.2 29.3-2.4 2.2-5 4.4-7.9 6.5-3.4 2.6-7.2 5-11.2 7.2v7c.1-.2.4-.7.8-1.3.9-1.5 2.6-3.8 4.5-5.6 1.1-1.1 2.3-1.9 3.6-2.4 1.1-.4 2.3-.5 3.4 0 .4.2.9.4 1.5.7.5.3 1.1.6 1.8.9 1.9 1 4.2 2.2 6.7 3.6 2.1 1.1 4.3 2.4 6.6 3.6.6.3 1.2.7 1.8 1 7.8 4.3 14.9 8.4 14.9 8.4s9.2-29.6 3.5-49.8c-3.2-2.4-5.6-5.6-7.8-9.1z" fill="#ccc9c8"/><path id="XMLID_251_" d="M64.5 174.5C53 179.1 33.4 187 18 193.9c12.9 21.6 31.9 39.1 54.7 50-6.7-14-11.6-28.4-12.7-41.8-.7-11.6.6-20.4 4.5-27.6z" fill="#552715"/><path id="XMLID_252_" class="st19" d="M122.9 251.7l4.8 4.8h.3v-9.8l-5.1 5z"/><path id="XMLID_253_" class="st19" d="M128 236.5l-5.1 5 5.1 5.1v-7.1z"/><path id="XMLID_255_" class="st19" d="M123.1 231.5l4.9 4.9v-9.8z"/><path id="XMLID_256_" class="st19" d="M107.7 236.5l4.9-4.9-4.9-4.9 5.1-5.1-5.1-5.1 5.1-5.1-.4-.4c-1.9 1-4.2 2.2-6.7 3.6l2 2-5.1 5.1 5.1 5.1-3.9 3.9c1 1.7 2 3.4 3 5.2l.9.6-.3.2c1.3 2.1 2.5 4.2 3.8 6.4l1.5-1.5-5-5.1z"/><path id="XMLID_257_" class="st19" d="M99.1 218c-.6.3-1.2.7-1.8 1 .9 1.6 1.8 3.2 2.8 4.9l2.5-2.5-3.5-3.4z"/><path id="XMLID_258_" class="st19" d="M115.1 249.3c1.3 2.1 2.6 4.1 3.9 6.2l3.9-3.9-5.1-5.1-2.7 2.8z"/><path id="XMLID_259_" transform="rotate(-134.999 117.872 241.544)" class="st19" d="M114.3 238h7.2v7.2h-7.2z"/><path id="XMLID_260_" transform="rotate(-134.999 117.873 231.515)" class="st19" d="M114.4 228h7v7h-7z"/><path id="XMLID_261_" class="st19" d="M122.9 221.5l5 5v-7.9c-.1-.2-.4-.7-.8-1.3l-4.2 4.2z"/><path id="XMLID_262_" transform="rotate(45.001 117.872 221.504)" class="st19" d="M114.3 217.9h7.2v7.2h-7.2z"/><path id="XMLID_263_" class="st19" d="M122.6 211.6l-3.6-2.4c-1.1-.4-2.3-.5-3.4 0-.4.2-.9.4-1.5.7l-1.4 1.4 5.1 5.1 4.8-4.8z"/><path id="XMLID_264_" class="st23" d="M128 236.5v-.1l-4.9-4.9 4.9-4.9v-.1l-5.1-5-5 5.1 4.9 4.9-4.9 5 5 5z"/><path id="XMLID_265_" class="st23" d="M128 246.6l-5.1-5.1-5 5.1 5 5.1 5.1-5z"/><path id="XMLID_266_" class="st23" d="M119.1 255.6c.1.2.3.4.4.7 2.7.2 5.5.3 8.2.3l-4.8-4.8-3.8 3.8z"/><path id="XMLID_268_" class="st23" d="M117.9 216.4l5.1 5.1 4.2-4.2c-.9-1.5-2.6-3.8-4.5-5.6l-4.8 4.7z"/><path id="XMLID_269_" class="st23" d="M112.9 231.5l5-4.9-5.1-5.1-5.1 5.1 5 4.9-5 5 5.1 5 5.1-5z"/><path id="XMLID_270_" class="st23" d="M112.8 241.5l-1.5 1.5 3.9 6.3 2.7-2.7-5.1-5.1z"/><path id="XMLID_271_" transform="rotate(-45.001 112.797 216.416)" class="st23" d="M109.2 212.8h7.2v7.2h-7.2z"/><path id="XMLID_272_" class="st23" d="M114.2 210c-.5.3-1.1.6-1.8.9l.4.4 1.4-1.3z"/><path id="XMLID_273_" class="st23" d="M102.6 221.5l-2.5 2.5c1.2 2.1 2.4 4.3 3.7 6.5l3.9-3.9-5.1-5.1z"/><path id="XMLID_274_" class="st23" d="M106.8 235.6c.2.3.4.7.6 1.1l.2-.2-.8-.9z"/><path id="XMLID_275_" class="st23" d="M99.1 218l3.4 3.4 5.1-5.1-2-2c-2 1.3-4.3 2.5-6.5 3.7z"/><path id="XMLID_276_" d="M115.1 249.3l-3.9-6.3c-1.3-2.1-2.6-4.3-3.8-6.4-.2-.4-.4-.7-.6-1.1-1-1.7-2-3.5-3-5.2-1.3-2.2-2.5-4.3-3.7-6.5-.9-1.7-1.9-3.3-2.8-4.9-7.8 4.3-14.9 8.4-14.9 8.4s-13.4-43.4 2.3-60.9c.2-.3.4-.5.6-.7 1.3-3.3 2.1-9.6 2.1-9.6-11.3 4.9-18.7 10.6-23 18.4-4 7.1-5.3 16-4.5 27.6 1 13.4 5.9 27.8 12.7 41.8 14.3 6.9 30.2 11.2 46.9 12.3-.1-.2-.3-.4-.4-.7-1.3-2-2.7-4.1-4-6.2z" fill="#2d0400"/><path id="XMLID_277_" d="M105.7 214.4c2.5-1.4 4.8-2.6 6.7-3.6.7-.3 1.3-.7 1.8-.9.6-.3 1.1-.5 1.5-.7 1.1-.5 2.3-.4 3.4 0 1.3.5 2.5 1.3 3.6 2.4 1.9 1.8 3.6 4.2 4.5 5.6.4.7.7 1.2.8 1.3v-7.1c-4.1-2.2-7.8-4.7-11.3-7.2-2.8-2.1-5.4-4.3-7.9-6.5-16.7-15.3-23.5-31.9-23.5-31.9-.2.2-.4.5-.6.7-15.8 17.6-2.3 60.9-2.3 60.9s7.1-4.1 14.9-8.4c.6-.3 1.2-.7 1.8-1 2.2-1.2 4.5-2.4 6.6-3.6z" fill="#9a999a"/><path id="XMLID_278_" class="st19" d="M187.8 160.8h4.7c-.1-1.9-.5-3.7-1.1-5.4l10.1.1-19.2-.2c-.9 0-1.5.7-1.6 1.5v3.9h3.7l3.4.1z"/><path id="XMLID_279_" class="st18" d="M169.8 156.2c-.2-.3-.5-.7-.7-1 .2.3.4.6.7 1z"/><path id="XMLID_280_" class="st18" d="M168.6 154.6c-.2-.3-.4-.6-.6-.8-.2-.2-.3-.4-.5-.7.5.5.8 1 1.1 1.5z"/><path id="XMLID_281_" class="st18" d="M144.5 142.4h.4c.5 0 1.2.1 2.1.3-.6-.3-1.1-.7-1.5-1-.8-.7-1 .1-1 .7z"/><path id="XMLID_282_" class="st18" d="M164.3 152.1c-4.4-5.6-9-8.5-12.9-9.9-.5 0-1-.1-1-.1v1.8c3.5 1.4 7.8 4.3 11.1 10.1 0-.1-.1-.1-.1-.2l2.9-1.7z"/><path id="XMLID_284_" class="st18" d="M171 157.7c-.2-.2-.4-.5-.6-.7l-.2-.2c.3.3.5.7.8.9z"/><path id="XMLID_285_" class="st18" d="M174.8 161.9c-.1-.1-.3-.3-.5-.4.2.1.3.3.5.4z"/><path id="XMLID_286_" class="st18" d="M177.8 164.3c-.1-.1-.2-.1-.3-.2.1.1.2.2.3.2z"/><path id="XMLID_287_" class="st18" d="M175.6 162.7l-.4-.4.4.4z"/><path id="XMLID_288_" class="st18" d="M176.4 163.3c-.1-.1-.3-.2-.4-.3.1.1.3.2.4.3z"/><path id="XMLID_289_" class="st18" d="M177.1 163.9c-.1-.1-.2-.2-.3-.2.1 0 .2.1.3.2z"/><path id="XMLID_290_" class="st18" d="M180.5 165.6c.1 0 .1 0 0 0l.1.1s-.3 5-4.9 1.3c-1.9-1.7-4.3-4.2-7-8.3l-3.6 2.1c1.3 2.6 2.7 5.2 4.2 7.7 2.1 3.5 4.6 6.7 7.7 9.2 1 .8 2 1.5 3.1 2.1 7.2-2.7 12.3-9.6 12.4-17.8v-1.1h-11.7v2l-.3 2.7c.1.1.1 0 0 0z"/><path id="XMLID_291_" class="st18" d="M179.6 165.3c-.1 0-.1-.1-.2-.1.1 0 .2.1.2.1z"/><path id="XMLID_292_" class="st18" d="M180.2 165.5s-.1 0-.2-.1c.1 0 .1.1.2.1z"/><path id="XMLID_293_" class="st18" d="M172 159c-.2-.2-.4-.5-.6-.7.2.2.4.5.6.7z"/><path id="XMLID_294_" class="st18" d="M178.5 164.7c-.1-.1-.2-.1-.3-.2.1.1.2.2.3.2z"/><path id="XMLID_295_" class="st18" d="M173 160.1l-.6-.6.6.6z"/><path id="XMLID_296_" class="st18" d="M179.1 165c-.1 0-.2-.1-.2-.1s.1.1.2.1z"/><path id="XMLID_297_" class="st18" d="M173.9 161.1l-.5-.5c.2.1.3.3.5.5z"/><path id="XMLID_298_" class="st18" d="M189.7 182.4c-.2 0-.4 0-.6-.1.2.1.4.1.6.1z"/><path id="XMLID_299_" class="st18" d="M183.8 181.3c-.3-.1-.5-.2-.8-.3.3.1.5.2.8.3z"/><path id="XMLID_300_" class="st18" d="M182.5 180.8c-.3-.1-.5-.2-.8-.3.3.1.5.2.8.3z"/><path id="XMLID_301_" class="st18" d="M181.3 180.3c-.3-.1-.5-.3-.8-.4.3.1.5.2.8.4z"/><path id="XMLID_302_" class="st18" d="M188.1 182.2c-.2 0-.5-.1-.7-.1.2.1.5.1.7.1z"/><path id="XMLID_303_" class="st18" d="M185.2 181.7c-.3-.1-.5-.2-.8-.2.2 0 .5.1.8.2z"/><path id="XMLID_304_" class="st18" d="M186.6 182c-.3-.1-.5-.1-.8-.2.3.1.5.1.8.2z"/><path id="XMLID_305_" class="st19" d="M170 156.5c.3.4.5.7.8 1l-2 1.2c2.7 4 5.1 6.6 7 8.3 4.6 3.8 4.9-1.3 4.9-1.3h-.1c-.1 0-.3-.1-.4-.1 0 0-.1 0-.2-.1-.1 0-.2-.1-.4-.1-.1 0-.1-.1-.2-.1-.1-.1-.2-.1-.4-.2-.1 0-.2-.1-.2-.1-.1-.1-.2-.1-.4-.2-.1-.1-.2-.1-.3-.2-.1-.1-.2-.1-.4-.2-.1-.1-.2-.1-.3-.2-.1-.1-.3-.2-.4-.3-.1-.1-.2-.2-.3-.2-.1-.1-.3-.2-.4-.3-.1-.1-.3-.2-.4-.3-.1-.1-.3-.2-.4-.3l-.4-.4c-.1-.1-.3-.2-.4-.3-.1-.1-.3-.3-.5-.4l-.4-.4-.5-.5c-.1-.2-.3-.3-.4-.5l-.6-.6c-.1-.2-.3-.3-.4-.5-.2-.2-.4-.5-.6-.7-.1-.2-.3-.3-.4-.5-.2-.3-.5-.6-.7-.9-.1-.4-.2-.5-.2-.6-.1-.1 0-.1 0 0z"/><path id="XMLID_306_" class="st19" d="M169.2 155.4c.2.3.4.5.6.8-.2-.3-.5-.7-.7-1l-.1-.1s.1.2.2.3z"/><path id="XMLID_307_" class="st19" d="M167.6 153.1c.3.4.5.8.8 1.2v.1c.1.1.1.2.2.3-.3-.6-.6-1.1-1-1.6z"/><path id="XMLID_308_" class="st19" d="M151.6 140.3c-.2 0-.3-.1-.4-.1.2.3.9 1.5.9 1.9 0 .2-.3.2-.7.1 3.9 1.4 8.6 4.3 12.9 9.9l1.8-1.1c-2.9-3.9-5.9-6.4-8.7-8.2-.4-.2-.8-.5-1.2-.7-1.2-.7-2.4-1.2-3.6-1.6v.1l-1-.3z"/><path id="XMLID_309_" class="st19" d="M166.7 151.7c0 .1.1.1.1.2 0 0-.1-.1-.1-.2z"/><path id="XMLID_310_" class="st26" d="M166.9 152.1c0-.1 0-.1 0 0 0-.1 0-.1 0 0 0-.1 0-.1 0 0z"/><path id="XMLID_312_" class="st26" d="M170.3 157c.1 0 .1 0 0 0 .2.2.3.4.4.5l-2 1.2c-.6-.8-1.1-1.7-1.7-2.7-.9-1.4-1.8-2.7-2.7-3.9l-2.9 1.7c0 .1.1.1.1.2l1.8 3.3v.1c.4.7.7 1.4 1.1 2.2.2.4.4.9.7 1.3l3.6-2.1 2-1.2c-.2-.3-.5-.6-.7-1 .1.1.2.2.3.4z"/><path id="XMLID_313_" class="st26" d="M169.2 155.5s.1 0 0 0c.3.4.5.7.7 1v-.1c-.1-.1-.1-.2-.2-.2-.1-.3-.3-.5-.5-.7z"/><path id="XMLID_314_" class="st26" d="M168.4 154.3c.1.2.2.4.4.5l.1.1c.1.1.2.3.3.4-.1-.1-.2-.3-.3-.4-.1-.1-.2-.3-.3-.4l-.2-.2z"/><path id="XMLID_315_" class="st26" d="M167.6 153.1c.1.2.2.4.4.5 0 .1.1.1.1.2.1.1.2.3.3.4v.1c-.3-.4-.5-.8-.8-1.2z"/><path id="XMLID_316_" d="M164.3 152.1c.9 1.2 1.8 2.5 2.7 3.9.6 1 1.2 1.8 1.7 2.7l2-1.2c-.1-.2-.2-.3-.4-.5-.1-.1-.2-.3-.3-.4-.2-.3-.5-.6-.7-1v-.1c-.1-.1-.2-.3-.3-.4l-.1-.1c-.1-.2-.2-.3-.4-.5v-.2c-.1-.1-.2-.3-.3-.4 0-.1-.1-.1-.1-.2-.1-.2-.2-.4-.4-.6-.1-.2-.2-.4-.4-.6-.1-.1-.2-.2-.2-.3 0 0 0-.1-.1-.1v-.2c0-.1-.1-.1-.1-.2s-.1-.1-.1-.2c-.1-.2-.2-.3-.3-.5l-2.2 1.1z" fill="#e94226"/><path id="XMLID_317_" class="st23" d="M192.5 160.9l10.5.1v.3-4.1c0-.9-.7-1.5-1.5-1.6l-10.1-.1c.6 1.7 1 3.5 1.1 5.4z"/><path id="XMLID_318_" class="st19" d="M203 160.9l-10.5-.1v1.1c-.1 8.1-5.2 15-12.4 17.8.1.1.2.1.3.2.3.1.5.3.8.4.1.1.3.1.4.2.3.1.5.2.8.3.2.1.3.1.5.2.3.1.5.2.8.3.2.1.4.1.6.2.3.1.5.2.8.2.2.1.4.1.7.2.3.1.5.1.8.2.3.1.5.1.8.1.2 0 .5.1.7.1.3 0 .7.1 1 .1.2 0 .4 0 .6.1.5 0 1.1.1 1.7.1h.3c1 0 2-.1 2.9-.4 2.4-.6 4.5-2 6-4 1.4-1.9 2.3-4.2 2.3-6.7l.1-10.2v-.4z"/><path id="XMLID_319_" class="st6" d="M134.5 143c1.3-.6 3.5-.4 5 .2 1.6.6 1.7-1.6 1.7-1.6l3.4 1.4v-.7c0-.6.1-1.4 1-.7.4.3.9.7 1.5 1 1.5.9 3.4 1.6 3.4 1.6V142s.5.1 1 .1c.4 0 .7 0 .7-.1 0-.3-.7-1.6-.9-1.9v-.1l.5.2 1.1.4v-.1c-.1-.4-.8-2.5-1.7-3.7-1-1.4-1.9-5.6-1.9-5.6.1 1.6-.1 3.6-1 3s-4.1-1.8-4.1-1.8v.7c-2.4-2-6.7-1.9-6.7-1.9-3.4 4.1-9 3.7-9.4 3.7v9.5c4.5 0 5.1-.8 6.4-1.4z"/></g></g></svg>