<svg id="Layer_1" xmlns="http://www.w3.org/2000/svg" width="256" height="256"><style>.st1{fill:none}.st2{fill:#c08c76}.st4{fill:#d8aa91}.st5{fill:#b8927d}.st6{fill:#d6d4d4}.st7{fill:#b27d6b}.st9{fill:#a1806e}.st10{fill:#a0a0a1}.st12{opacity:.6;fill:#d8aa91}.st14{fill:#cfd0d0}.st15{fill:#4c4c4c}.st16{fill:#545554}.st21{fill:#bfc0c1}.st22{fill:#3a3b3b}.st23{fill:#b1ac87}.st24{fill:#9e9a79}.st25{fill:#353636}.st26{fill:#2c2d2d}</style><g id="XMLID_5_"><circle id="XMLID_126_" cx="128.5" cy="128" r="128" fill="#b2b4b5"/><g id="XMLID_3_"><path id="XMLID_4_" class="st1" d="M171.3 225c.1-.4.2-.9.3-1.3l-.1.1-.2 1.2z"/><path id="XMLID_156_" class="st1" d="M128.5 8.4V0v8.4z"/><path id="XMLID_157_" class="st1" d="M85.7 225l-.2-1.2s-.1 0-.1-.1c.1.4.2.9.3 1.3z"/><path id="XMLID_160_" class="st1" d="M128.5 239v17-17z"/><path id="XMLID_161_" class="st2" d="M128.5 198.1c3.2-1.8 6.8-4.2 10.5-6.8-.6-5.2-1.5-10.5-2.2-14.3-4.3.6-7.9.7-8.3.7V239v-40.9z"/><path id="XMLID_163_" class="st2" d="M156.9 168c-.2.1-.4.2-.7.3-1.5.7-3.8 2-3.8 2-.8.6-1.9 1.6-3.5 2.9-1.6 1.3-4.2 2.3-6.9 2.9l2.9 10.9c10.7-8.2 21.4-17.7 26.1-22-1.3-4.9-2.3-10.4-3-15.4-1 3.3-1.9 6.2-2.6 8.3-1.9 6.2-5.8 8.9-8.5 10.1z"/><path id="XMLID_164_" d="M144.9 187l-2.9-10.9c-1.7.4-3.5.7-5.2 1 .7 3.8 1.6 9.1 2.2 14.3 2-1.5 3.9-2.9 5.9-4.4z" fill="#a87b67"/><path id="XMLID_166_" class="st2" d="M184.5 80.9c-.8 2.5 1.5 7.3 1.5 7.3l-1.9-.5.6 4.3-2.1-1.9s-.1 2.4-.4 4.8h1.5v3.4h-2c-.4 1.7-1.2 4.3-1.9 6.1-.4 2.2-.7 4.2-1 5.9-.6 3.6-2 9.3-3.8 15.5 6.1 1.7 7.8-5.1 9.6-10.4 2.1-6.1 1.6-14.5.8-19.5s1.9-5.3 1.4-13.4c-.1-.9-.3-1.6-.6-2.1-.4-.4-1.2-1-1.7.5z"/><path id="XMLID_167_" class="st4" d="M139.1 91.2c-.9-1.7-.8-3.6.1-4.4 1-.8 4.3.7 11.5-1 4.4-1 7.5-.2 9.2.6 12.5.7 13.8 8.5 13.8 8.5h4.4c.4-1.6.9-2.9.9-2.9l-1.9 1.3s1.8-6.1 1-7.5c-.8-1.4-2-6.4-2-6.4v-.1c-11.7 4.7-47.4 4.6-47.7 4.6v7.6c6.7 0 8.4 1.6 8.4 1.6.7-.6 1.4-1.2 2.3-1.9z"/><path id="XMLID_168_" class="st4" d="M156.9 168l-.6.3.6-.3z"/><path id="XMLID_171_" class="st4" d="M179.8 104.5c-.4 1.2-.8 2.1-.8 2.1v-8.2h-.3l-1 1.1c-.1-.4-.1-.7-.1-1.1h-1.9c-.2 1.4-.4 2.6-.7 3.8-2.6 11.6-9.7 15.9-9.7 15.9-17.6 3.8-23.5-2.6-23.5-2.6-4.1-5.8-5.3-11.6-5.5-15.3-.2-2.6.1-4.3.1-4.3-3.6-2.3-7.9-1.7-8-1.7v40.4c.4 0 6 .3 9.4-3.7 0 0 4.3-.1 6.7 1.9v-.7s3.2 1.2 4.1 1.8c.8.6 1.1-1.4 1-3 0 0 1 4.2 1.9 5.6 1 1.4 1.7 3.8 1.7 3.8l-1.6-.6s1 1.6 1 1.9c0 .4-1.7 0-1.7 0v2.4s-3.6-1.4-4.9-2.6c-1.3-1.2-1 1.3-1 1.3l-3.4-1.4s-.1 2.2-1.7 1.6c-1.6-.6-3.7-.8-5-.2-1.3.6-2 1.4-6.5 1.4v33.6c.4 0 4-.1 8.3-.7 1.7-.2 3.5-.5 5.2-1 2.8-.7 5.3-1.6 6.9-2.9 1.6-1.3 2.8-2.3 3.5-2.9 0 0 3.8-7.3 3.1-11.7-.7-4.4-1.5-8.3-1.5-8.3s4.3 10.1 1.6 17c0 0 3.5-4 5.4-8.4 0 0-2.7 8.6-4.1 9.1 2.7-1.2 6.6-3.9 8.5-10.2.7-2.1 1.6-5 2.6-8.3 2.1-6.9 4.8-15.7 7.1-23.6 1.8-6.3 3.2-11.9 3.8-15.5.3-1.6.7-3.6 1-5.8zm-29.9 26c-2.4-3.5-6.5-9.8-10.4-11 0 0 6.4 1.7 10.9 9.1 4.6 7.4 7 9.7 7.7 15.7.1 0-5.3-9.7-8.2-13.8z"/><path id="XMLID_172_" class="st5" d="M156.9 168c1.4-.5 4.1-9.1 4.1-9.1-1.9 4.4-5.4 8.4-5.4 8.4 2.7-6.9-1.6-17-1.6-17s.8 3.8 1.5 8.3c.7 4.4-3.1 11.7-3.1 11.7s2.3-1.3 3.8-2c.3-.2.5-.2.7-.3z"/><path id="XMLID_173_" class="st6" d="M189.1 59.2c0-.5-.1-1-.2-1.5l-.4.4c.2.4.4.7.6 1.1z"/><path id="XMLID_175_" class="st6" d="M178.1 78.4c-.5.3-1.2.7-1.9.9v.1s1.2 5 2 6.4c.8 1.4-1 7.5-1 7.5l1.9-1.3s-.5 1.3-.9 2.9h4l.4-4.8 2.1 1.9-.6-4.3 1.9.5s-2.3-4.8-1.5-7.3c.5-1.6 1.3-1 1.9-.5 0-1.5 1.7-7.9 2.5-11.8-2 3.7-6.1 6.8-10.8 9.8z"/><path id="XMLID_176_" class="st6" d="M179.1 98.4v8.2s.3-.9.8-2.1c.6-1.8 1.5-4.5 1.9-6.1h-2.7z"/><path id="XMLID_177_" class="st6" d="M177.8 99.5l1-1.1h-1c-.1.3 0 .7 0 1.1z"/><path id="XMLID_178_" class="st6" d="M135 142.5c1.3-.6 3.5-.4 5 .2 1.6.6 1.7-1.6 1.7-1.6l3.4 1.4s-.4-2.5 1-1.3c1.3 1.2 4.9 2.6 4.9 2.6v-2.4s1.7.4 1.7 0-1-1.9-1-1.9l1.6.6s-.7-2.4-1.7-3.8-1.9-5.6-1.9-5.6c.1 1.6-.1 3.6-1 3-.8-.6-4.1-1.8-4.1-1.8v.7c-2.4-2-6.7-1.9-6.7-1.9-3.4 4.1-9 3.7-9.4 3.7v9.5c4.6 0 5.2-.8 6.5-1.4z"/><path id="XMLID_179_" class="st5" d="M150.5 128.6c-4.6-7.4-10.9-9.1-10.9-9.1 3.8 1.2 8 7.5 10.4 11 2.8 4.1 8.3 13.8 8.3 13.8-.8-6-3.2-8.3-7.8-15.7z"/><path id="XMLID_180_" class="st6" d="M150.7 85.8c-7.2 1.7-10.5.1-11.5 1-.9.8-1.1 2.7-.1 4.4 3.1-2.5 8-4.8 19.1-4.8.6 0 1.2 0 1.7.1-1.7-.8-4.8-1.7-9.2-.7z"/><path id="XMLID_181_" class="st7" d="M112.1 186.9L115 176c-2.8-.7-5.3-1.6-6.9-2.9-1.6-1.3-2.8-2.3-3.5-2.9 0 0-2.3-1.3-3.8-2l-.6-.3c-2.7-1.2-6.6-3.9-8.5-10.2-.7-2.1-1.6-5-2.6-8.3-.7 5-1.7 10.5-3 15.4 4.6 4.4 15.3 13.9 26 22.1z"/><path id="XMLID_182_" class="st7" d="M120.2 177c-.7 3.8-1.6 9.1-2.2 14.3 3.7 2.7 7.3 5 10.5 6.8v40.8-61.3c0 .1-3.8 0-8.3-.6z"/><path id="XMLID_183_" d="M115 176.1l-2.9 10.9c2 1.5 3.9 3 5.8 4.3.6-5.2 1.5-10.5 2.2-14.3-1.6-.2-3.4-.5-5.1-.9z" fill="#906958"/><path id="XMLID_184_" class="st7" d="M77.1 104.5c-.6-1.8-1.5-4.5-1.9-6.1h-2V95h1.6l-.4-4.8-2.1 1.8.6-4.3-1.9.5s2.3-4.8 1.5-7.3c-.5-1.6-1.3-1-1.9-.5-.3.5-.5 1.2-.6 2.1-.5 8.1 2.2 8.5 1.4 13.4s-1.3 13.4.8 19.5c1.8 5.4 3.5 12.2 9.6 10.4-1.8-6.3-3.2-11.9-3.8-15.5-.1-1.6-.5-3.6-.9-5.8z"/><path id="XMLID_185_" class="st2" d="M128.5 72.4V35.8v36.6z"/><path id="XMLID_186_" class="st2" d="M128.5 78.3v-3.9 3.9z"/><path id="XMLID_187_" class="st2" d="M100.7 168.2c-.2-.1-.5-.2-.6-.3.2.2.4.3.6.3z"/><path id="XMLID_190_" class="st2" d="M100 168c-1.4-.5-4.1-9.1-4.1-9.1 1.9 4.4 5.4 8.4 5.4 8.4-2.7-6.9 1.6-17 1.6-17s-.8 3.8-1.5 8.3c-.7 4.4 3.1 11.7 3.1 11.7.8.6 1.9 1.6 3.5 2.9 1.6 1.3 4.2 2.3 6.9 2.9 1.7.4 3.5.7 5.2 1 4.5.6 8.3.7 8.3.7v-33.9c-4.6 0-5.2-.8-6.5-1.4-1.3-.6-3.5-.4-5 .2-1.6.6-1.7-1.6-1.7-1.6l-3.4 1.4s.4-2.5-1-1.3c-1.3 1.2-4.9 2.6-4.9 2.6v-2.4s-1.7.4-1.7 0 1-1.9 1-1.9l-1.6.6s.7-2.4 1.7-3.8 1.9-5.6 1.9-5.6c-.1 1.6.1 3.6 1 3 .8-.6 4.1-1.8 4.1-1.8v.7c2.4-2 6.7-1.9 6.7-1.9 3.5 4.2 9.4 3.7 9.4 3.7V80.2v3.7s-36 .1-47.7-4.6v.1s-1.2 5-2 6.4c-.8 1.4 1 7.5 1 7.5L77.9 92s.5 1.3.9 2.9h4.4s1.4-7.8 13.8-8.5c1.7-.8 4.8-1.6 9.2-.6 7.2 1.7 10.5.1 11.5 1 .9.8 1.1 2.7.1 4.4.8.7 1.5 1.3 2.2 2 0 0 1.7-1.6 8.4-1.6v2.6s-4.3-.6-8 1.7c0 0 .3 1.7.1 4.3-.2 3.8-1.4 9.5-5.5 15.3 0 0-5.9 6.3-23.5 2.6 0 0-7.2-4.2-9.7-15.9-.3-1.2-.5-2.4-.7-3.8h-1.9c0 .4 0 .8-.1 1.1l-1-1.1h-.3v8.2s-.3-.9-.8-2.1c.4 2.2.7 4.2 1 5.9.6 3.6 2 9.3 3.8 15.5 2.2 7.9 4.9 16.7 7.1 23.6 1 3.3 1.9 6.2 2.6 8.3 2 6.3 5.9 9 8.5 10.2zm6.5-39.4c4.6-7.4 10.9-9.1 10.9-9.1-3.8 1.2-8 7.5-10.4 11-2.8 4.1-8.3 13.8-8.3 13.8.8-6 3.2-8.3 7.8-15.7z"/><path id="XMLID_191_" class="st9" d="M101.4 158.5c.7-4.4 1.5-8.3 1.5-8.3s-4.3 10.1-1.6 17c0 0-3.5-4-5.4-8.4 0 0 2.7 8.6 4.1 9.1l.6.3c1.5.7 3.8 2 3.8 2 .1 0-3.7-7.2-3-11.7z"/><path id="XMLID_192_" class="st10" d="M68.1 57.7c-.1.5-.1 1-.2 1.5.2-.4.4-.7.6-1.1-.2-.1-.3-.3-.4-.4z"/><path id="XMLID_194_" class="st10" d="M128.5 15.3V8.4v6.9z"/><path id="XMLID_195_" class="st10" d="M72.5 80.9c.8 2.5-1.5 7.3-1.5 7.3l1.9-.5-.6 4.3 2.1-1.9s.1 2.4.4 4.8h4c-.4-1.6-.9-2.9-.9-2.9l1.9 1.3s-1.8-6.1-1-7.5c.8-1.4 2-6.4 2-6.4v-.1c-.7-.3-1.4-.6-1.9-1-4.7-2.9-8.7-6.1-10.7-9.7.8 4 2.5 10.3 2.5 11.8.5-.4 1.2-1 1.8.5z"/><path id="XMLID_196_" class="st10" d="M75.3 98.4c.4 1.7 1.2 4.3 1.9 6.1.4 1.2.8 2.1.8 2.1v-8.2h-2.7z"/><path id="XMLID_197_" class="st10" d="M128.5 35.8v-2.4 2.4z"/><path id="XMLID_198_" class="st10" d="M79.2 99.5c.1-.4.1-.7.1-1.1h-1l.9 1.1z"/><path id="XMLID_199_" class="st9" d="M128.5 74.4v-1.9 1.9z"/><path id="XMLID_200_" class="st9" d="M128.5 78.3v1.9-1.9z"/><path id="XMLID_201_" class="st10" d="M128.5 134.5s-5.9.5-9.4-3.7c0 0-4.3-.1-6.7 1.9v-.7s-3.2 1.2-4.1 1.8c-.8.6-1.1-1.4-1-3 0 0-1 4.2-1.9 5.6-1 1.4-1.7 3.8-1.7 3.8l1.6-.6s-1 1.6-1 1.9c0 .4 1.7 0 1.7 0v2.4s3.6-1.4 4.9-2.6c1.3-1.2 1 1.3 1 1.3l3.4-1.4s.1 2.2 1.7 1.6c1.6-.6 3.7-.8 5-.2 1.3.6 2 1.4 6.5 1.4v-9.5z"/><path id="XMLID_202_" class="st9" d="M98.7 144.3s5.5-9.6 8.3-13.8c2.4-3.5 6.5-9.8 10.4-11 0 0-6.4 1.7-10.9 9.1-4.6 7.4-7 9.7-7.8 15.7z"/><path id="XMLID_203_" d="M128.5 33.5V15.3v18.2z" fill="#898a8b"/><path id="XMLID_204_" class="st10" d="M117.9 91.2c.9-1.7.8-3.6-.1-4.4-1-.8-4.3.7-11.5-1-4.4-1-7.5-.2-9.2.6.6 0 1.1-.1 1.7-.1 11.1.1 16 2.4 19.1 4.9z"/><path id="XMLID_206_" class="st4" d="M150.9 116.8c9.5.2 14.5-.2 19.1-8.5.6-1.1 1.1-2.3 1.6-3.5 2.2-6.5.8-13.5-9-15.2 2.1 1.4 2.5 2.6 2.5 2.6l-1.6.4 1.6 1.2s-.7.1-1.7-.1 0 1.6 0 1.6c-2.6-2-10.3-5.3-13.1-5.3-.7 0-1.6.1-2.7.2-6 1.3-9.4 3.9-8.7 8.8.2 1.6.5 3.5.9 5.4 1.2 5.9 3.9 12.3 11.1 12.4z"/><path id="XMLID_205_" class="st12" d="M150.9 116.8c9.5.2 14.5-.2 19.1-8.5.6-1.1 1.1-2.3 1.6-3.5 2.2-6.5.8-13.5-9-15.2 2.1 1.4 2.5 2.6 2.5 2.6l-1.6.4 1.6 1.2s-.7.1-1.7-.1 0 1.6 0 1.6c-2.6-2-10.3-5.3-13.1-5.3-.7 0-1.6.1-2.7.2-6 1.3-9.4 3.9-8.7 8.8.2 1.6.5 3.5.9 5.4 1.2 5.9 3.9 12.3 11.1 12.4z"/><path id="XMLID_208_" class="st6" d="M163.4 95.1s-1-1.8 0-1.6c1 .2 1.7.1 1.7.1l-1.6-1.2 1.6-.4s-.4-1.1-2.5-2.6c-1.9-.3-4.1-.5-6.6-.4-3.1.1-5.9.4-8.3.9 1.1-.1 2.1-.2 2.7-.2 2.7.1 10.4 3.3 13 5.4z"/><path id="XMLID_207_" class="st12" d="M163.4 95.1s-1-1.8 0-1.6c1 .2 1.7.1 1.7.1l-1.6-1.2 1.6-.4s-.4-1.1-2.5-2.6c-1.9-.3-4.1-.5-6.6-.4-3.1.1-5.9.4-8.3.9 1.1-.1 2.1-.2 2.7-.2 2.7.1 10.4 3.3 13 5.4z"/><path id="XMLID_209_" d="M171.6 104.8c-.4 1.2-.9 2.4-1.6 3.5-4.6 8.4-9.6 8.7-19.1 8.5-7.2-.1-9.9-6.5-11.2-12.6l-3.4-4.1c.2 3.8 1.4 9.5 5.5 15.3 0 0 5.9 6.3 23.5 2.6 0 0 7.2-4.2 9.7-15.9l-3.4 2.7z" fill="#a8a9a9"/><path id="XMLID_210_" class="st14" d="M171.4 223.8c-1.1.8-2.6 1-4 .6s-2.6-1.5-3-2.9c-4.5-12.9-13.8-21.5-19.1-25.5-.7 2.7-3.3 12.7-6.7 18.5l7.4 40.3c6.5-.9 12.8-2.3 19-4.1 2.3-8.7 4.4-17.5 6.2-25.7l.2-1.2z"/><path id="XMLID_211_" class="st14" d="M223.7 192.9l3.6 16.5c3.2-3.9 6.2-8 9-12.3-3.2-.9-6.4-1.8-9.2-2.8-1-.4-2.2-.9-3.4-1.4z"/><path id="XMLID_212_" class="st14" d="M178.3 230.1s.8-1.8 3.2-3.5 3.5-2.5 5.5-1.7c2.1.8 3.8.8 6.3.8h.2l-7.7-35.6c-.4-2 .8-3.9 2.8-4.4l13.1-2.9c-6.6-3.1-13.6-6.4-20.4-9.4 3.6 5.3-4.5 37.2-8.1 47.9-.3 1-1 1.8-1.7 2.3-.1.4-.2.9-.3 1.3-1.8 8.2-3.9 17-6.2 25.7 3.7-1.1 7.4-2.4 11-3.8.5-3.5 1.7-6.1 2.2-7.2.7-1.4 2.2-3.8.1-9.5z"/><path id="XMLID_213_" class="st15" d="M138.7 214.5c0 .1-.1.2-.1.2s-4.2 2.2-10 2.2v39c6 0 11.8-.4 17.6-1.2l-7.5-40.2z"/><path id="XMLID_214_" class="st16" d="M139.4 194.2l-10.9 3.9v18.8c5.8 0 10-2.2 10-2.2 0-.1.1-.1.1-.2 3.4-5.9 6-15.8 6.7-18.5-.6-.5-1.2-.9-1.7-1.3-1.2-.9-2.8-1.1-4.2-.5z"/><path id="XMLID_215_" d="M139.1 191.3c-3.7 2.7-7.3 5-10.5 6.8l10.9-3.9c1.4-.5 3-.3 4.3.6.5.3 1.1.8 1.7 1.3 5.2 4 14.6 12.6 19.1 25.5.5 1.4 1.6 2.4 3 2.9 1.4.4 2.8.2 4-.6 0 0 .1 0 .1-.1.8-.6 1.4-1.3 1.7-2.3 3.6-10.7 11.7-42.6 8.1-47.9-2.6-3.8-5.5-7.2-10.4-8.5-4.7 4.3-15.4 13.8-26.1 22-2.1 1.4-4 2.8-5.9 4.2z" fill="#e2e2e2"/><path id="XMLID_216_" d="M136.5 95.8s-.3 1.7-.1 4.3l3.4 4.1c-.4-1.9-.7-3.8-.9-5.4-.7-4.9 2.7-7.6 8.7-8.8 2.4-.5 5.2-.8 8.3-.9 2.5-.1 4.7.1 6.6.4 9.8 1.8 11.2 8.8 9 15.2l3.5-2.6c.3-1.2.5-2.4.7-3.8h7.8v-3.4h-9.9s-1.4-7.8-13.8-8.5c-.6 0-1.1-.1-1.7-.1-11.1 0-16 2.3-19.1 4.8-.8.7-1.5 1.3-2.2 2 0 0-1.7-1.6-8.4-1.6v2.6c.2 0 4.4-.6 8.1 1.7z" fill="#565656"/><path id="XMLID_218_" class="st2" d="M106 116.8c7.2-.1 9.9-6.5 11.2-12.6.4-1.9.7-3.8.9-5.4.7-4.9-2.7-7.6-8.8-8.8-1.1-.1-2.1-.2-2.7-.2-2.8 0-10.4 3.2-13.1 5.3 0 0 1-1.8 0-1.6-1 .2-1.7.1-1.7.1l1.6-1.2-1.6-.4s.4-1.1 2.5-2.6c-9.8 1.7-11.2 8.8-9 15.2.4 1.2.9 2.4 1.6 3.5 4.7 8.5 9.7 8.9 19.1 8.7z"/><path id="XMLID_217_" class="st12" d="M106 116.8c7.2-.1 9.9-6.5 11.2-12.6.4-1.9.7-3.8.9-5.4.7-4.9-2.7-7.6-8.8-8.8-1.1-.1-2.1-.2-2.7-.2-2.8 0-10.4 3.2-13.1 5.3 0 0 1-1.8 0-1.6-1 .2-1.7.1-1.7.1l1.6-1.2-1.6-.4s.4-1.1 2.5-2.6c-9.8 1.7-11.2 8.8-9 15.2.4 1.2.9 2.4 1.6 3.5 4.7 8.5 9.7 8.9 19.1 8.7z"/><path id="XMLID_220_" class="st10" d="M91.9 92.1l1.6.4-1.6 1.2s.7.1 1.7-.1 0 1.6 0 1.6c2.6-2 10.3-5.3 13.1-5.3.6 0 1.6.1 2.7.2-2.4-.5-5.2-.8-8.3-.9-2.5-.1-4.7.1-6.6.4-2.2 1.4-2.6 2.5-2.6 2.5z"/><path id="XMLID_219_" class="st12" d="M91.9 92.1l1.6.4-1.6 1.2s.7.1 1.7-.1 0 1.6 0 1.6c2.6-2 10.3-5.3 13.1-5.3.6 0 1.6.1 2.7.2-2.4-.5-5.2-.8-8.3-.9-2.5-.1-4.7.1-6.6.4-2.2 1.4-2.6 2.5-2.6 2.5z"/><path id="XMLID_221_" d="M117.2 104.3c-1.3 6.1-4 12.4-11.2 12.6-9.5.2-14.5-.2-19.1-8.5-.6-1.1-1.1-2.3-1.6-3.5l-3.5-2.6c2.6 11.6 9.7 15.9 9.7 15.9 17.6 3.8 23.5-2.6 23.5-2.6 4.1-5.8 5.3-11.6 5.5-15.3l-3.3 4z" fill="#919293"/><path id="XMLID_222_" d="M74.8 94.9h-1.6v3.4H81c.2 1.4.4 2.6.7 3.8l3.5 2.6c-2.2-6.5-.8-13.5 9-15.2 1.9-.3 4.1-.5 6.6-.4 3.1.1 5.9.4 8.3.9 6.1 1.3 9.4 3.9 8.8 8.8-.2 1.6-.5 3.5-.9 5.4l3.4-4.1c.2-2.6-.1-4.3-.1-4.3 3.7-2.3 8-1.7 8-1.7v-2.6c-6.7 0-8.4 1.6-8.4 1.6-.7-.6-1.4-1.3-2.2-2-3.1-2.5-8-4.8-19.1-4.8-.6 0-1.2 0-1.7.1-12.5.7-13.8 8.5-13.8 8.5h-8.3z" fill="#404141"/><path id="XMLID_223_" class="st21" d="M118.3 214.5c-3.4-5.9-6-15.8-6.7-18.5-5.2 4-14.6 12.6-19.1 25.5-.5 1.4-1.6 2.4-3 2.9-1.4.4-2.8.2-4-.6l.2 1.2c1.8 8.2 3.9 17 6.2 25.7 6.1 1.8 12.5 3.2 19 4.1l7.4-40.3z"/><path id="XMLID_224_" class="st21" d="M85.4 223.7c-.8-.6-1.4-1.3-1.7-2.3-3.6-10.7-11.7-42.6-8.1-47.9-17 7.4-35.2 17-45.7 20.8-2.7 1-5.9 1.9-9.2 2.8 16.4 25.5 41.5 44.8 71.2 53.6-2.3-8.7-4.4-17.5-6.2-25.7-.1-.4-.2-.9-.3-1.3z"/><path id="XMLID_225_" class="st22" d="M128.5 239v-22c-5.8 0-10-2.2-10-2.2 0-.1-.1-.1-.1-.2l-7.4 40.3c5.7.8 11.6 1.2 17.6 1.2V239h-.1z"/><path id="XMLID_226_" class="st15" d="M128.5 198.1l-10.9-3.9c-1.4-.5-3-.3-4.3.6-.5.3-1.1.8-1.7 1.3.7 2.7 3.3 12.7 6.7 18.5 0 .1.1.1.1.2 0 0 4.2 2.2 10 2.2v-18.9z"/><path id="XMLID_227_" class="st14" d="M83.7 221.4c.3 1 1 1.8 1.7 2.3l.1.1c1.1.8 2.6 1 4 .6s2.6-1.5 3-2.9c4.5-12.9 13.8-21.5 19.1-25.5.6-.5 1.2-.9 1.7-1.3 1.3-.9 2.9-1.1 4.3-.6l10.9 3.9c-3.2-1.8-6.8-4.2-10.5-6.8-1.9-1.4-3.9-2.8-5.8-4.3-10.7-8.2-21.4-17.7-26.1-22-4.8 1.4-7.7 4.7-10.4 8.5-3.7 5.4 4.4 37.3 8 48z"/><path id="XMLID_228_" class="st23" d="M193.4 227.5s.3.1.7.1l-.4-2h-.2v1.9z"/><path id="XMLID_229_" class="st24" d="M194.7 231l-.7-3.3c-.4-.1-.7-.1-.7-.1v10.8c2.7-1.6 5.3-3.2 7.8-5l-2.1.5c-1.9.3-3.8-.9-4.3-2.9z"/><path id="XMLID_230_" class="st23" d="M180.6 229.8s3.8-3.6 4.4-3.6 1.5.7 3.4 1.4 4.9 0 4.9 0v-1.8c-2.5 0-4.3 0-6.3-.8-2.1-.8-3.1 0-5.5 1.7s-3.2 3.5-3.2 3.5c2.1 5.7.7 8.1 0 9.6-.5 1-1.6 3.7-2.2 7.2.8-.3 1.5-.6 2.2-.9.7-3.2 2.5-6.1 3.3-8.3 1.2-3.2-1-8-1-8z"/><path id="XMLID_231_" class="st24" d="M188.4 227.5c-1.9-.7-2.7-1.4-3.4-1.4s-4.4 3.6-4.4 3.6 2.1 4.9 1 7.9c-.8 2.2-2.7 5.1-3.3 8.3 5.2-2.2 10.2-4.7 15-7.6v-10.8c.1 0-3 .7-4.9 0z"/><path id="XMLID_234_" class="st15" d="M221.4 182.4c-.4-2-2.4-3.2-4.4-2.8l-15.3 3.3-13.1 2.9c-2 .4-3.2 2.4-2.8 4.4l7.7 35.6.4 2 .7 3.3c.4 2 2.4 3.2 4.4 2.8l2.1-.5c9.8-6.8 18.6-14.8 26.1-24l-3.6-16.5-2.2-10.5zm-30.3 7.4l25.4-5.5.7 3-25.4 5.5-.7-3zm.9 4.2l25.4-5.5.7 3-25.4 5.5-.7-3zm1.7 7.6l-.7-3 25.4-5.5.7 3-25.4 5.5z"/><path id="XMLID_237_" transform="rotate(77.737 204.135 188.57)" class="st25" d="M202.6 175.6h3.1v25.9h-3.1z"/><path id="XMLID_238_" transform="rotate(-12.258 205.071 192.77)" class="st25" d="M192.1 191.2H218v3.1h-25.9z"/><path id="XMLID_239_" transform="rotate(-102.263 206.037 197.308)" class="st25" d="M204.5 184.3h3.1v25.9h-3.1z"/><path id="XMLID_240_" class="st22" d="M187.6 58.8h-59.1v25c.3 0 36 .1 47.7-4.6.7-.3 1.4-.6 1.9-.9 4.7-3 8.7-6.1 10.7-9.7 1.6-2.8 1.9-5.9.2-9.4-.2-.4-.4-.8-.6-1.1-.4.4-.8.7-.8.7z"/><path id="XMLID_241_" class="st22" d="M206.4 36.3c-1 1-2 1.9-3.1 2.8l.3.2c0 .1 1.2-1 2.8-3z"/><path id="XMLID_242_" class="st15" d="M128.5 48.6v10.2h59.1s.4-.3.9-.7l.4-.4c.5-.5 1-1.1.7-1.4-.2-.3-.6-1.6-.9-3-3.8-1-20.5-4.7-60.2-4.7z"/><path id="XMLID_243_" class="st15" d="M149.9 13.9c-.2 3.7-2.5 6.5-5.4 8.4 14.2 1.4 34.2 5.4 44.2 17.1l-.9 3.4c2.1.7 3.8 1.5 5.2 2.3l-.6 1.4c3.1-1.7 7.2-4.3 10.9-7.3 1.1-.9 2.2-1.9 3.1-2.8 1.1-1.1 2.1-2.2 2.9-3.4.6-.9 1.2-1.8 1.7-2.8C193.4 15.3 171.6 5 147.7 1.4c1 2.7 2.5 7.2 2.2 12.5z"/><path id="XMLID_244_" class="st16" d="M128.5 33.5V37s41.1-.3 59.3 5.8l.9-3.4c-10.1-11.7-30.1-15.7-44.2-17.1-2.5 1.6-5.5 2.7-8 3.1-5.6 1-7.9 4.2-7.9 4.2v3.9z"/><path id="XMLID_245_" class="st21" d="M128.5 37v11.6c39.7 0 56.4 3.7 60.2 4.7l.9.3 2.8-7 .6-1.4c-1.4-.9-3.1-1.6-5.2-2.3-18.2-6.2-59.3-5.9-59.3-5.9z"/><path id="XMLID_246_" class="st23" d="M147 11.8c-.9 5.8-2.9 8.4-7.8 9.8-4.9 1.4-7.7 1.7-10.7 3.1v4.9s2.3-3.2 7.9-4.2c2.6-.5 5.5-1.5 8-3.1 2.9-1.9 5.2-4.7 5.4-8.4.3-5.3-1.1-9.8-2.2-12.5-1-.2-2.1-.3-3.1-.4 1.5 3.1 3.1 6.8 2.5 10.8z"/><path id="XMLID_247_" class="st24" d="M128.5 15.3v9.4c3.1-1.4 5.8-1.7 10.7-3.1 4.9-1.4 6.9-4 7.8-9.8.6-4-1-7.7-2.4-10.8-5.3-.7-10.6-1-16.1-1v15.3z"/><path id="XMLID_248_" class="st26" d="M78.8 78.4c.5.3 1.2.7 1.9 1 11.8 4.7 47.7 4.6 47.7 4.6V58.8h-59s-.4-.3-.9-.7c-.2.4-.4.8-.6 1.1-1.7 3.5-1.4 6.6.2 9.5 2 3.6 6.1 6.7 10.7 9.7z"/><path id="XMLID_249_" class="st26" d="M53.4 39.4l.3-.2c-1.1-.9-2.2-1.9-3.1-2.8 1.6 1.9 2.8 3 2.8 3z"/><path id="XMLID_250_" class="st22" d="M50.5 36.3c1 1 2 1.9 3.1 2.8 3.7 3 7.8 5.6 10.9 7.3l-.5-1.3c1.4-.9 3.1-1.6 5.2-2.3l-.9-3.4c10.1-11.7 30.1-15.7 44.2-17.1-2.9-1.9-5.2-4.7-5.4-8.4-.3-5.3 1.1-9.8 2.2-12.5-24 3.6-45.7 13.9-63.4 28.8.5 1 1.1 1.9 1.7 2.7.8 1.2 1.8 2.4 2.9 3.4z"/><path id="XMLID_251_" class="st22" d="M69.4 58.8h59.1V48.6c-39.7 0-56.4 3.7-60.2 4.7-.3 1.4-.7 2.7-.9 3-.2.3.2.9.7 1.4l.4.4c.5.4.9.7.9.7z"/><path id="XMLID_252_" class="st15" d="M128.5 37v-7.4s-2.3-3.2-7.9-4.2c-2.6-.5-5.5-1.5-8-3.1-14.2 1.4-34.2 5.4-44.2 17.1l.9 3.4c18-6.1 59.2-5.8 59.2-5.8z"/><path id="XMLID_253_" d="M128.5 48.6V37s-41.1-.3-59.3 5.8c-2.1.7-3.8 1.5-5.2 2.3l.6 1.4 2.8 7 .9-.3c3.7-.9 20.4-4.6 60.2-4.6z" fill="#9d9fa0"/><path id="XMLID_254_" class="st24" d="M107.1 13.9c.2 3.7 2.5 6.5 5.4 8.4 2.5 1.6 5.5 2.7 8 3.1 5.6 1 7.9 4.2 7.9 4.2v-4.9c-3.1-1.4-5.8-1.7-10.7-3.1-4.9-1.4-6.9-4-7.8-9.8-.6-4 1-7.7 2.4-10.8-1 .1-2.1.3-3.1.4-1 2.7-2.4 7.2-2.1 12.5z"/><path id="XMLID_255_" d="M110 11.8c.9 5.8 2.9 8.4 7.8 9.8 4.9 1.4 7.7 1.7 10.7 3.1V0c-5.4 0-10.8.3-16.1 1-1.5 3.1-3.1 6.8-2.4 10.8z" fill="#848266"/></g></g></svg>