<svg id="Layer_1" xmlns="http://www.w3.org/2000/svg" width="256" height="256"><style>.st1{fill:#c08c76}.st2{fill:#a87b67}.st3{fill:#d8aa91}.st4{fill:#b8927d}.st5{fill:#d6d4d4}.st9{fill:#b27d6b}.st11{fill:#a1806e}.st12{fill:#a0a0a1}.st16{fill:#c6c6c5}.st17{fill:#b3b3b3}.st18{fill:#adadad}.st19{fill:#919293}</style><g id="XMLID_3_"><circle id="XMLID_173_" cx="128" cy="128.5" r="128" fill="#b2b4b5"/><g id="XMLID_9_"><path id="XMLID_82_" class="st1" d="M156.5 168.5c-.2.1-.4.2-.7.3-1.5.7-3.8 2-3.8 2-.8.6-1.9 1.6-3.5 2.9-1.6 1.3-4.2 2.3-6.9 2.9l4.6 17.2c15-24.1 24.6-27.4 24.6-27.4h.1c-1.4-5.1-2.5-11.1-3.3-16.4-1 3.3-1.9 6.2-2.6 8.3-2 6.3-5.9 9-8.5 10.2z"/><path id="XMLID_83_" class="st1" d="M128.3 249.4l9.8-39.1c-1.2 1.3-2.1 2.1-2.1 2.1l3.2-6.5c1-6.4-1.3-20.6-2.8-28.4-4.3.6-7.9.7-8.3.7v71.4c0-.1.1-.1.2-.2z"/><path id="XMLID_84_" class="st2" d="M139.1 205.9c2.4-4.5 4.8-8.5 7-12.1l-4.6-17.2c-1.7.4-3.5.7-5.2 1 1.5 7.7 3.8 21.9 2.8 28.3z"/><path id="XMLID_85_" class="st2" d="M138 210.3l1.1-4.4-3.2 6.5c.1 0 .9-.8 2.1-2.1z"/><path id="XMLID_86_" class="st1" d="M184 81.4c-.8 2.5 1.5 7.3 1.5 7.3l-1.9-.5.6 4.3-2.1-1.9s-.3 5.3-.8 7.9c-.3 1.6-1.3 4.5-2 6.5-.4 2.2-.7 4.2-1 5.9-.6 3.6-2 9.3-3.8 15.5 6.1 1.7 7.8-5.1 9.6-10.4 2.1-6.1 1.6-14.5.8-19.5-.8-4.9 1.9-5.3 1.4-13.4-.1-.9-.3-1.6-.6-2.1s-1.1-1.1-1.7.4z"/><path id="XMLID_87_" class="st3" d="M138.5 91.5c-.4.2-.7.5-1.1.7.4-.2.8-.4 1.1-.7z"/><path id="XMLID_92_" class="st3" d="M159.1 88.1c-.3 0-.6 0-.9-.1.3.1.6.1.9.1z"/><path id="XMLID_105_" class="st3" d="M128.1 94c.3 0 1.9-.1 4.1 1.1 0 0 2.7-4.4 5.9-6.1 0-.2 0-.3.1-.5h-10V94z"/><path id="XMLID_106_" class="st3" d="M145.9 70.2c6.1-2.7 15.5 0 15.5 0s-10.9-.9-13.3.8c-2.4 1.6-11.5 3.9-20.1 3.9v3.9c.7 0 12-.1 17.8-2.7 6.1-2.7 15.5 0 15.5 0s-10.9-.9-13.3.8c-2.4 1.6-11.5 3.9-20.1 3.9v5.7h22.2c3.3-.8 5.8-.5 7.6 0h3.9c4.9 0 9.3 1.4 10.1 5.3h5.5c.4-1.9.9-4.4.4-5.3-.8-1.4-2-6.4-2-6.4s2.7-13.5 1.8-19.6c-1-6.1-6.5-17.6-11.2-23.9-4.6-6.4-11.5-8.9-19-5.9-7.3 2.9-18.6 5.7-19.3 5.9v36.6c.9-.3 12.1-.3 18-3z"/><path id="XMLID_107_" class="st3" d="M156.5 168.5l-.6.3c.1-.1.4-.2.6-.3z"/><path id="XMLID_110_" class="st3" d="M179.4 105c-.4 1.2-.8 2.1-.8 2.1v-8.6l-1.3 1.5c-.5-3.1 1.3-7.4 1.3-7.4l-1.1.7v.6H172s1.7 11.1-2 15.4c-3.7 4.3-6 6.9-14.7 6.9s-13.9 0-18.1-7.7c-4.2-7.7-6-12.1-6-12.1s-1.2-.7-3.1-.7V135c.4 0 6 .3 9.4-3.7 0 0 4.3-.1 6.7 1.9v-.7s3.2 1.2 4.1 1.8c.8.6 1.1-1.4 1-3 0 0 1 4.2 1.9 5.6 1 1.4 1.7 3.8 1.7 3.8l-1.6-.6s1 1.6 1 1.9-1.7 0-1.7 0v2.4s-3.6-1.4-4.9-2.6c-1.3-1.2-1 1.3-1 1.3l-3.4-1.4s-.1 2.2-1.7 1.6c-1.6-.6-3.7-.8-5-.2-1.3.6-2 1.4-6.5 1.4v33.8c.4 0 4-.1 8.3-.7 1.7-.2 3.5-.5 5.2-1 2.8-.7 5.3-1.6 6.9-2.9 1.6-1.3 2.8-2.3 3.5-2.9 0 0 3.8-7.3 3.1-11.7-.7-4.4-1.5-8.3-1.5-8.3s4.3 10.1 1.6 17c0 0 3.5-4 5.4-8.4 0 0-2.7 8.6-4.1 9.1 2.7-1.2 6.6-3.9 8.5-10.2.7-2.1 1.6-5 2.6-8.3 2.1-6.9 4.8-15.7 7.1-23.6 1.8-6.3 3.2-11.9 3.8-15.5.2-1.7.5-3.7.9-5.9zm-29.9 26c-2.4-3.5-6.5-9.8-10.4-11 0 0 6.4 1.7 10.9 9.1 4.6 7.4 7 9.7 7.7 15.7.1 0-5.4-9.7-8.2-13.8z"/><path id="XMLID_111_" class="st4" d="M156.5 168.5c1.4-.5 4.1-9.1 4.1-9.1-1.9 4.4-5.4 8.4-5.4 8.4 2.7-6.9-1.6-17-1.6-17s.8 3.8 1.5 8.3c.7 4.4-3.1 11.7-3.1 11.7s2.3-1.3 3.8-2c.3-.2.5-.2.7-.3z"/><path id="XMLID_112_" class="st5" d="M132.7 10.6l-2.9 6.2c3.1-1.9 7.2-6.2 7.2-6.2l-1.5 6.7 3.6-3.8c1.7-1.9 7.2-1 7.2-1l-1.5 5c2.2-2.6 6.2-2.6 6.2-2.6s13.2 2.8 23 19.2c-8-6-17.5-7.7-17.5-7.7h-6.9L152 24c-2.2 0-7.7 3.4-7.7 3.4v-1.7l-5.7 2.4v-2.4l-6.2 4.2 1.9-4.2c-3.4 2.2-5.9 7.6-6.3 8.3v2.3c.7-.2 12-3 19.3-5.9 7.5-3 14.4-.5 19 5.9s10.2 17.9 11.2 23.9c1 6.1-1.8 19.6-1.8 19.6s1.2 5 2 6.4c.5.9 0 3.4-.4 5.3h.3v1.6l1.1-.7s-1.8 4.4-1.3 7.4l1.3-1.5v8.6s.3-.9.8-2.1c.7-2 1.7-4.9 2-6.5.5-2.6.8-7.9.8-7.9l2.1 1.9-.6-4.3 1.9.5s-2.3-4.8-1.5-7.3c.5-1.6 1.3-1 1.9-.5 0-2.1 3.1-12.9 2.9-14.8-.2-1.9.6-10.9-3.5-17.6-4.2-6.7-7.3-13.9-10.7-18-3.4-4.1-15.5-21.7-46.6-21.7v6.9l4.5-4.9z"/><path id="XMLID_114_" class="st4" d="M148.1 71c2.4-1.6 13.3-.8 13.3-.8s-9.4-2.7-15.5 0c-5.9 2.6-17.1 2.7-17.8 2.7v1.9c8.6.1 17.6-2.2 20-3.8z"/><path id="XMLID_115_" class="st4" d="M148.1 76.8c2.4-1.6 13.3-.8 13.3-.8s-9.4-2.7-15.5 0c-5.9 2.6-17.1 2.7-17.8 2.7v1.9c8.6.1 17.6-2.1 20-3.8z"/><path id="XMLID_116_" class="st5" d="M134.6 143c1.3-.6 3.5-.4 5 .2 1.6.6 1.7-1.6 1.7-1.6l3.4 1.4s-.4-2.5 1-1.3c1.3 1.2 4.9 2.6 4.9 2.6V142s1.7.4 1.7 0-1-1.9-1-1.9l1.6.6s-.7-2.4-1.7-3.8-1.9-5.6-1.9-5.6c.1 1.6-.1 3.6-1 3-.8-.6-4.1-1.8-4.1-1.8v.7c-2.4-2-6.7-1.9-6.7-1.9-3.4 4.1-9 3.7-9.4 3.7v9.5c4.5-.1 5.2-.9 6.5-1.5z"/><path id="XMLID_117_" class="st4" d="M150.1 129.1c-4.6-7.4-10.9-9.1-10.9-9.1 3.8 1.2 8 7.5 10.4 11 2.8 4.1 8.3 13.8 8.3 13.8-.8-6-3.3-8.3-7.8-15.7z"/><path id="XMLID_118_" d="M128.1 21.8v12.1c.3-.7 2.9-6.1 6.3-8.3l-1.9 4.2 6.2-4.2V28l5.7-2.4v1.7s5.5-3.4 7.7-3.4l-2.4 2.4h6.9s9.5 1.7 17.5 7.7c-9.8-16.4-23-19.2-23-19.2s-4 0-6.2 2.6l1.5-5s-5.5-1-7.2 1l-3.6 3.8 1.5-6.7s-4.1 4.3-7.2 6.2l2.9-6.2-4.6 5.2v6.1z" fill="#b0b0b0"/><path id="XMLID_119_" class="st5" d="M139.8 90.8c-.4.2-.9.5-1.3.8.5-.3.9-.6 1.3-.8z"/><path id="XMLID_120_" class="st5" d="M139 88.5h-.9c0 .1-.1.3-.1.5.3-.2.7-.4 1-.5z"/><path id="XMLID_121_" class="st5" d="M158.2 88c-1.5-.1-3.1-.1-4.6-.1 1.5 0 3.1 0 4.6.1z"/><path id="XMLID_122_" class="st5" d="M150.4 88.1c.5 0 .9-.1 1.3-.1-.3.1-.8.1-1.3.1z"/><path id="XMLID_123_" class="st5" d="M143.4 89.3c.4-.1.9-.2 1.4-.3-.5.1-1 .2-1.4.3z"/><path id="XMLID_124_" class="st5" d="M150.3 86.4h7.6c-1.9-.6-4.4-.8-7.6 0z"/><path id="XMLID_125_" class="st5" d="M140.7 90.3l.6-.3-.6.3z"/><path id="XMLID_126_" class="st5" d="M147.9 88.4c.9-.1 1.7-.2 2.4-.3l-2.4.3z"/><path id="XMLID_127_" class="st5" d="M145.1 88.9l1.5-.3-1.5.3z"/><path id="XMLID_130_" d="M137.2 108.6c4.2 7.7 9.3 7.7 18.1 7.7s11-2.6 14.7-6.9c3.7-4.3 2-15.4 2-15.4h5.5v-2.2h-5.8c-.7-3.8-5.1-5.3-10.1-5.3h-33.7v2.2h10.9c-.3.1-.6.3-1 .5-3.2 1.8-5.9 6.1-5.9 6.1-2.2-1.2-3.8-1.1-4.1-1.1V96c1.9 0 3.1.7 3.1.7s2.1 4.3 6.3 11.9zm.3-16.3c.3-.3.7-.5 1.1-.7.4-.3.9-.5 1.3-.8.3-.2.6-.3.9-.5l.6-.3c.4-.2.8-.3 1-.4.3-.1.7-.2 1-.3.4-.1.9-.2 1.4-.3.1 0 .2-.1.4-.1l1.5-.3c.4-.1.8-.1 1.2-.2.9-.1 1.7-.2 2.4-.3h.2c.5 0 .9-.1 1.3-.1 1.1-.1 1.8-.1 1.8-.1 1.6 0 3.1 0 4.6.1.3 0 .6 0 .9.1 5.4.4 9.9 1.4 10.7 3.7 1.2 3.3 1.3 8.6.3 12.2-.1.5-.3 1-.5 1.5-.5 1.1-1.3 2.4-2.3 3.6-2.2 2.7-5.3 5.1-8.3 5.1h-7.8c-5.5 0-8.5-1.8-11.3-5.4-2.8-3.6-5.5-8.6-5.5-12.6.1-1.3 1.5-2.7 3.1-3.9z" fill="#64584c"/><path id="XMLID_131_" d="M151.3 114.3h7.8c2.9 0 6.1-2.4 8.3-5.1 1-1.2 1.8-2.5 2.3-3.6.2-.4.4-.9.5-1.5 1-3.7.8-8.9-.3-12.2-.8-2.3-5.4-3.3-10.7-3.7-.3 0-.6 0-.9-.1-1.5-.1-3.1-.1-4.6-.1 0 0-.7 0-1.8.1-.4 0-.8.1-1.3.1h-.2c-.7.1-1.6.2-2.4.3-.4.1-.8.1-1.2.2l-1.5.3c-.1 0-.3.1-.4.1-.5.1-.9.2-1.4.3-.4.1-.7.2-1 .3-.2.1-.6.2-1 .4l-.6.3c-.3.1-.6.3-.9.5-.4.2-.9.5-1.3.8-.4.2-.7.5-1.1.7-1.6 1.2-2.9 2.6-2.9 4 0 4 2.8 9 5.5 12.6 2.6 3.5 5.6 5.3 11.1 5.3z" opacity=".8" fill="#68605f"/><path id="XMLID_132_" class="st9" d="M128.1 249.6v-71.4s-3.8-.1-8.3-.7c-1.4 7.8-3.8 21.9-2.8 28.4l3.2 6.5-2.2-2.2 9.8 39.2c.1.1.2.2.3.2-.1 0-.1 0 0 0z"/><path id="XMLID_133_" class="st9" d="M109.9 193.9l4.6-17.3c-2.8-.7-5.3-1.6-6.9-2.9-1.6-1.3-2.8-2.3-3.5-2.9 0 0-2.3-1.3-3.8-2l-.6-.3c-2.7-1.2-6.6-3.9-8.5-10.2-.7-2.1-1.6-5-2.6-8.3-.8 5.3-1.8 11.2-3.2 16.3.3.2 9.9 4 24.5 27.6z"/><path id="XMLID_135_" d="M117 205.9c-1-6.4 1.3-20.6 2.8-28.4-1.7-.2-3.5-.5-5.2-1l-4.6 17.3c2.1 3.6 4.5 7.6 7 12.1l1 4.3 2.2 2.2-3.2-6.5z" fill="#906958"/><path id="XMLID_136_" class="st9" d="M76.7 105c-.7-2-1.7-4.9-2-6.5-.5-2.6-.8-7.9-.8-7.9l-2.1 1.9.6-4.3-1.9.5s2.3-4.8 1.5-7.3c-.5-1.6-1.3-1-1.9-.5-.3.5-.5 1.2-.6 2.1-.5 8.1 2.2 8.5 1.4 13.4-.8 4.9-1.3 13.4.8 19.5 1.8 5.4 3.5 12.2 9.6 10.4-1.8-6.3-3.2-11.9-3.8-15.5-.1-1.6-.4-3.6-.8-5.8z"/><path id="XMLID_137_" class="st1" d="M97 114.3c-.3 0-.5 0-.8-.1.2 0 .5.1.8.1z"/><path id="XMLID_138_" class="st1" d="M84.3 91.6c.7-3.8 5.1-5.3 10.1-5.3h3.9c1.8-.5 4.3-.8 7.6 0h22.3v-5.7c-8.6 0-17.7-2.2-20.1-3.9-2.4-1.6-13.3-.8-13.3-.8s9.4-2.7 15.5 0 17.9 2.7 17.9 2.7v-3.9c-8.6 0-17.7-2.2-20.1-3.9-2.4-1.6-13.3-.8-13.3-.8s9.4-2.7 15.5 0 17.9 2.7 17.9 2.7V36.3s-11.8-2.9-19.3-5.9c-7.5-3-14.4-.5-19 5.9S79.7 54.2 78.7 60.2c-1 6.1 1.8 19.6 1.8 19.6s-1.2 5-2 6.4c-.5.9 0 3.4.4 5.3h5.4z"/><path id="XMLID_139_" class="st1" d="M118.6 92.3c-.3-.3-.7-.5-1.1-.7.4.2.8.4 1.1.7z"/><path id="XMLID_141_" class="st1" d="M128 88.5h-10c0 .1.1.3.1.5 3.2 1.8 5.9 6.1 5.9 6.1 2.3-1.3 4-1.1 4.1-1.1l-.1-5.5z"/><path id="XMLID_144_" class="st1" d="M99.6 168.5c-1.4-.5-4.1-9.1-4.1-9.1 1.9 4.4 5.4 8.4 5.4 8.4-2.7-6.9 1.6-17 1.6-17s-.8 3.8-1.5 8.3c-.7 4.4 3.1 11.7 3.1 11.7.8.6 1.9 1.6 3.5 2.9 1.6 1.3 4.2 2.3 6.9 2.9 1.7.4 3.5.7 5.2 1 4.5.6 8.3.7 8.3.7v-33.8c-4.6 0-5.2-.8-6.5-1.4-1.3-.6-3.5-.4-5 .2-1.6.6-1.7-1.6-1.7-1.6l-3.4 1.4s.4-2.5-1-1.3c-1.3 1.2-4.9 2.6-4.9 2.6V142s-1.7.4-1.7 0 1-1.9 1-1.9l-1.6.6s.7-2.4 1.7-3.8 1.9-5.6 1.9-5.6c-.1 1.6.1 3.6 1 3 .8-.6 4.1-1.8 4.1-1.8v.7c2.4-2 6.7-1.9 6.7-1.9 3.5 4.2 9.4 3.7 9.4 3.7V95.8c-1.9 0-3.2.7-3.2.7s-1.8 4.4-6 12.1c-4.2 7.7-9.3 7.7-18.1 7.7s-11-2.6-14.7-6.9c-3.7-4.3-2-15.4-2-15.4h-5.5v-.6l-1.1-.7s1.8 4.4 1.3 7.4l-1.3-1.5v8.6s-.3-.9-.8-2.1c.4 2.2.7 4.2 1 5.9.6 3.6 2 9.3 3.8 15.5 2.2 7.9 4.9 16.7 7.1 23.6 1 3.3 1.9 6.2 2.6 8.3 1.9 6.2 5.8 8.9 8.5 10.1zm6.4-39.4c4.6-7.4 10.9-9.1 10.9-9.1-3.8 1.2-8 7.5-10.4 11-2.8 4.1-8.3 13.8-8.3 13.8.8-6 3.3-8.3 7.8-15.7z"/><path id="XMLID_146_" class="st1" d="M100.2 168.8c-.2-.1-.5-.2-.6-.3l.6.3z"/><path id="XMLID_147_" class="st11" d="M101 159c.7-4.4 1.5-8.3 1.5-8.3s-4.3 10.1-1.6 17c0 0-3.5-4-5.4-8.4 0 0 2.7 8.6 4.1 9.1l.6.3c1.5.7 3.8 2 3.8 2 .1.1-3.7-7.2-3-11.7z"/><path id="XMLID_148_" class="st12" d="M72 81.4c.8 2.5-1.5 7.3-1.5 7.3l1.9-.5-.6 4.3 2.1-1.9s.3 5.3.8 7.9c.3 1.6 1.3 4.5 2 6.5.4 1.2.8 2.1.8 2.1v-8.6l1.3 1.5c.5-3.1-1.3-7.4-1.3-7.4l1.1.7v-1.6h.3c-.4-1.9-.9-4.4-.4-5.3.8-1.4 2-6.4 2-6.4s-2.7-13.5-1.8-19.6c1-6.1 6.5-17.6 11.2-23.9 4.6-6.4 11.5-8.9 19-5.9s19.3 5.9 19.3 5.9V34s-2.7-6-6.3-8.4l1.9 4.2-6.2-4.2V28l-5.7-2.4v1.7s-5.5-3.4-7.7-3.4l2.4 2.4h-6.9S90.2 28 82.2 34c9.8-16.4 23-19.2 23-19.2s4 0 6.2 2.6l-1.5-5s5.5-1 7.2 1l3.6 3.8-1.5-6.7s4.1 4.3 7.2 6.2l-2.9-6.2 4.7 5.3V8.9C97.1 8.9 85 26.5 81.6 30.6c-3.4 4.2-6.5 11.3-10.7 18-4.2 6.7-3.4 15.6-3.5 17.6-.2 1.9 2.9 12.7 2.9 14.8.4-.5 1.2-1.1 1.7.4z"/><path id="XMLID_149_" class="st11" d="M128.1 72.9s-11.8 0-17.9-2.7c-6.1-2.7-15.5 0-15.5 0s10.9-.9 13.3.8c2.4 1.6 11.5 3.9 20.1 3.9v-2z"/><path id="XMLID_150_" class="st11" d="M128.1 78.8s-11.8 0-17.9-2.7c-6.1-2.7-15.5 0-15.5 0s10.9-.9 13.3.8c2.4 1.6 11.5 3.9 20.1 3.9v-2z"/><path id="XMLID_151_" class="st12" d="M128.1 135s-5.9.5-9.4-3.7c0 0-4.3-.1-6.7 1.9v-.7s-3.2 1.2-4.1 1.8c-.8.6-1.1-1.4-1-3 0 0-1 4.2-1.9 5.6-1 1.4-1.7 3.8-1.7 3.8l1.6-.6s-1 1.6-1 1.9 1.7 0 1.7 0v2.4s3.6-1.4 4.9-2.6c1.3-1.2 1 1.3 1 1.3l3.4-1.4s.1 2.2 1.7 1.6c1.6-.6 3.7-.8 5-.2 1.3.6 2 1.4 6.5 1.4V135z"/><path id="XMLID_152_" class="st11" d="M98.3 144.8s5.5-9.6 8.3-13.8c2.4-3.5 6.5-9.8 10.4-11 0 0-6.4 1.7-10.9 9.1-4.6 7.4-7.1 9.7-7.8 15.7z"/><path id="XMLID_153_" d="M128.1 21.8v-6l-4.7-5.3 2.9 6.2c-3.1-1.9-7.2-6.2-7.2-6.2l1.5 6.7-3.6-3.8c-1.7-1.9-7.2-1-7.2-1l1.5 5c-2.2-2.6-6.2-2.6-6.2-2.6S91.8 17.6 82 34c8-6 17.5-7.7 17.5-7.7h6.9L104 24c2.2 0 7.7 3.4 7.7 3.4v-1.7l5.7 2.4v-2.4l6.2 4.2-1.9-4.2c3.6 2.4 6.3 8.4 6.3 8.4V21.8z" fill="#898a8b"/><path id="XMLID_154_" class="st12" d="M98.2 86.4h7.6c-3.3-.8-5.8-.6-7.6 0z"/><path id="XMLID_155_" class="st12" d="M114.5 89.9c.2.1.5.2.8.4-.2-.2-.5-.3-.8-.4z"/><path id="XMLID_156_" class="st12" d="M111.3 89c.6.1 1.1.2 1.6.4-.5-.2-1-.3-1.6-.4z"/><path id="XMLID_157_" class="st12" d="M117.1 88.5c.3.1.6.3 1 .5 0-.2 0-.3-.1-.5h-.9z"/><path id="XMLID_159_" class="st12" d="M117.5 91.5c-.4-.3-.9-.5-1.3-.8.5.3.9.6 1.3.8z"/><path id="XMLID_160_" class="st12" d="M104.3 88c.4 0 .9.1 1.5.1-.6 0-1.1 0-1.5-.1z"/><path id="XMLID_161_" class="st12" d="M109.3 88.6c.6.1 1.1.2 1.7.3-.6-.1-1.2-.2-1.7-.3z"/><path id="XMLID_164_" d="M128.1 94c-.1 0-1.8-.2-4.2 1.1 0 0-2.7-4.4-5.9-6.1-.3-.2-.6-.3-1-.5h11v-2.2H94.2c-4.9 0-9.3 1.4-10.1 5.3h-5.8v2.2h5.5s-1.7 11.1 2 15.4c3.7 4.3 6 6.9 14.7 6.9s13.9 0 18.1-7.7c4.2-7.7 6-12.1 6-12.1s1.2-.7 3.2-.7V94zM116 108.9c-2.8 3.6-5.7 5.4-11.3 5.4h-7.8c-.3 0-.5 0-.8-.1-3.2-.5-6.6-3.6-8.5-6.5-.5-.7-.9-1.5-1.2-2.1-.6-1.3-.9-3.1-1.1-4.9 0-.6-.1-1.2-.1-1.9 0-2.5.3-5 1-6.9.8-2.3 5.4-3.3 10.7-3.7 1.8-.1 3.7-.2 5.5-.2 0 0 .7 0 1.8.1.4 0 .9.1 1.5.1.8.1 1.6.2 2.5.3.3 0 .7.1 1.1.2.6.1 1.1.2 1.7.3.1 0 .2 0 .3.1.6.1 1.1.2 1.6.4.3.1.6.2.8.2.2.1.5.2.8.3.2.1.5.2.8.4.3.1.6.3.9.5.4.2.9.5 1.3.8.4.2.7.5 1.1.7 1.6 1.2 2.9 2.6 2.9 4 0 3.9-2.7 8.9-5.5 12.5z" fill="#50463c"/><path id="XMLID_165_" d="M118.6 92.3c-.3-.3-.7-.5-1.1-.7-.4-.3-.9-.5-1.3-.8-.3-.2-.6-.3-.9-.5-.3-.1-.6-.3-.8-.4-.3-.1-.6-.2-.8-.3-.3-.1-.5-.2-.8-.2-.5-.1-1.1-.3-1.6-.4-.1 0-.2 0-.3-.1-.6-.1-1.1-.2-1.7-.3-.4-.1-.7-.1-1.1-.2-.9-.1-1.7-.2-2.5-.3-.5-.1-1-.1-1.5-.1-1.1-.1-1.8-.1-1.8-.1-1.9 0-3.7.1-5.5.2-5.4.4-9.9 1.4-10.7 3.7-.7 1.9-1 4.4-1 6.9 0 .6 0 1.3.1 1.9.1 1.8.5 3.6 1.1 4.9.3.7.7 1.4 1.2 2.1 2 3 5.3 6.1 8.5 6.5.3 0 .5.1.8.1h7.8c5.5 0 8.5-1.8 11.3-5.4 2.8-3.6 5.5-8.6 5.5-12.6 0-1.3-1.3-2.7-2.9-3.9z" opacity=".8" fill="#4e4847"/><path id="XMLID_166_" class="st16" d="M187.5 183.1c.6 6.6-4.9 37.8-4.9 37.8s-5.3-8.6-11.5-15.7c-6.6 8.9-27.9 36.7-43 45.1l.1-.4c-.1.3-.2.4-.2.4v6.1c46.6 0 87.4-24.9 109.7-62.1-15.2-7.1-41-14.7-56.1-18.9 3.8 4.3 5.9 7.7 5.9 7.7z"/><path id="XMLID_167_" class="st16" d="M128.3 249.4c-.1.1-.2.1-.2.2h-.1v.8l.3-1z"/><path id="XMLID_168_" class="st17" d="M157.8 196.2c-10.8 13-27.6 49.4-29.6 53.7l-.1.4c15.1-8.5 36.5-36.3 43-45.1-4.5-5-9.5-9.3-13.3-9z"/><path id="XMLID_169_" class="st17" d="M162.6 192c-1.4.6-3 2.1-4.8 4.3.1-.2 3-3.4 4.8-4.3z"/><path id="XMLID_170_" class="st5" d="M146.1 193.8c-2.2 3.6-4.6 7.6-7 12.1l-1.1 4.4-9.8 39.1-.3 1 .2-.4c2-4.4 18.8-40.8 29.6-53.7 1.8-2.2 3.4-3.7 4.8-4.3 0 0 6.2-4.2 10.1 0 3.9 4.2 9.9 29 9.9 29s5.5-31.2 4.9-37.8c0 0-2-3.4-5.8-7.6-2.7-3-6.4-6.4-10.8-9.1h-.1c0-.1-9.6 3.2-24.6 27.3z"/><path id="XMLID_171_" class="st18" d="M127.7 249.4l.3 1v-.8s-.1-.1-.3-.2z"/><path id="XMLID_172_" class="st18" d="M128 250.4l-.2-.4.2.4c-15.2-8.5-36.5-36.2-43.1-45.1-6.2 7.1-11.5 15.7-11.5 15.7s0-.1.1-.3c0 .1-.1.2-.1.3 0 0-5.5-31.2-4.9-37.8 0 0 2-3.4 5.8-7.6-15.1 4.2-40.9 11.8-56.1 18.9 22.4 37.2 63.2 62.1 109.7 62.1v-6.2z"/><path id="XMLID_174_" class="st19" d="M98.2 196.2c-3.8-.4-8.8 3.9-13.3 9 6.6 8.9 27.9 36.6 43 45.1l-.1-.4c-2-4.3-18.8-40.7-29.6-53.7z"/><path id="XMLID_176_" class="st19" d="M97.9 195.9c-1.6-1.9-3-3.2-4.3-3.8 1.5.8 3.5 2.9 4.3 3.8z"/><path id="XMLID_177_" class="st16" d="M73.4 220.9c0-.1.1-.2.1-.3.7-2.9 6.1-24.7 9.8-28.7 3.9-4.2 10.1 0 10.1 0 .1 0 .1.1.2.1 1.2.6 2.7 1.9 4.3 3.8.2.2.3.4.3.4 10.8 13 27.6 49.4 29.6 53.7.1.3.2.4.2.4l-.3-1-9.8-39.2-1.1-4.3c-2.4-4.5-4.7-8.5-6.9-12-14.7-23.6-24.2-27.3-24.7-27.5-4.5 2.8-8.2 6.1-10.9 9.2-3.8 4.2-5.8 7.6-5.8 7.6-.6 6.7 4.9 37.8 4.9 37.8z"/><path id="XMLID_178_" class="st19" d="M162.6 192c-1.7.9-4.7 4.2-4.8 4.3 3.8-.4 8.8 3.9 13.3 9 6.2 7.1 11.5 15.7 11.5 15.7s-5.9-24.8-9.9-29c-4-4.3-10.1 0-10.1 0z"/><path id="XMLID_179_" d="M98.2 196.2s-.1-.1-.3-.4c-.8-.8-2.8-3-4.3-3.8-.1 0-.1-.1-.2-.1 0 0-6.2-4.2-10.1 0-3.7 3.9-9.1 25.8-9.8 28.7-.1.2-.1.3-.1.3s5.3-8.6 11.5-15.7c4.5-5 9.5-9.3 13.3-9z" fill="#7c7d7e"/></g></g></svg>