<svg id="Layer_1" xmlns="http://www.w3.org/2000/svg" width="256" height="256"><style>.st1{fill:none}.st2{fill:#4c3e39}.st3{fill:#2e231f}.st4{fill:#5b4c46}.st5{fill:#443833}.st6{fill:#c08c76}.st8{fill:#d8aa91}.st9{fill:#b8927d}.st10{fill:#d6d4d4}.st12{fill:#64584c}.st13{opacity:.8;fill:#c08c76}.st14{fill:#b27d6b}.st16{fill:#a1806e}.st17{fill:#a0a0a1}.st19{fill:#383128}.st20{opacity:.8;fill:#a27763}.st21{fill:#7c2322}.st27{fill:#695851}.st29{fill:#8d2943}</style><g id="XMLID_1_"><circle id="XMLID_179_" cx="128" cy="128" r="128" fill="#b2b4b5"/><g id="XMLID_6_"><path id="XMLID_7_" class="st1" d="M248 172.5c.9-2.5 1.7-4.9 2.5-7.5-1.6 2.3-3.2 4.5-4.8 6.7.9.3 1.6.5 2.3.8z"/><path id="XMLID_102_" class="st1" d="M5.5 165c.8 2.5 1.6 5 2.5 7.5.7-.3 1.5-.5 2.3-.8-1.6-2.1-3.2-4.4-4.8-6.7z"/><path id="XMLID_104_" class="st1" d="M185.9 80.5c.3.5.5 1.2.6 2.1.5 8.1-2.2 8.5-1.4 13.4s1.3 13.4-.8 19.5c-1.8 5.4-3.5 12.2-9.6 10.4-2.2 7.9-4.9 16.7-7.1 23.6.3 2.2.7 4.4 1.1 6.7l15.9 6.8c1.2-3.1 2-4.8 2-4.8 5.9-2.3 11.9-1.5 18 .6 10.2-13.7 22.3-29.8 25.8-34.3 6.4-8.3 3.7-21.7-3.1-27.4-6.8-5.7-31.7-28.4-31.7-28.4h-7.1c-.9 3.9-2.6 10.2-2.6 11.8z"/><path id="XMLID_105_" class="st1" d="M128 252.3v3.7-3.7z"/><path id="XMLID_106_" class="st1" d="M87.4 156.3c.4-2.3.8-4.6 1.1-6.7-2.1-6.9-4.8-15.7-7.1-23.6-6.1 1.7-7.8-5.1-9.6-10.4-2.1-6.2-1.6-14.6-.8-19.6s-1.9-5.3-1.4-13.4c.1-.9.3-1.6.6-2.1 0-1.5-1.7-7.9-2.5-11.9h-7.1S35.7 91.3 28.9 97c-6.8 5.7-9.5 19.2-3.1 27.4 3.5 4.5 15.6 20.6 25.8 34.3 6.1-2.1 12.1-2.9 18-.6 0 0 .7 1.7 2 4.8l15.8-6.6z"/><path id="XMLID_107_" class="st2" d="M18.9 170.2c11.5-1 22.2-8 32.6-11.5-10.2-13.7-22.3-29.8-25.8-34.3-6.4-8.3-3.7-21.7 3.1-27.4 6.8-5.7 31.7-28.4 31.7-28.4h7.1c-.3-1.4-.5-2.4-.4-2.9.1-1.2-.2-5.3.7-9.8H57.4L38 71.4h-9.2L57 48.5h13.5c.1-.1.1-.2.2-.4 3.7-5.9 6.6-12.2 9.5-16.4H44.6s-10.9 12-23.2 25.5C15 66.8 9.9 77.3 6.2 88.5l2.1-2.1s11.3 3.5 12.7 3.8c0 0-10.1 9.7-14.4 13.7-4.8 4.5-3.8 10.7 0 15.6s20.6 26.2 20.6 26.2H6.4s-2.7-4-6.1-9.1C1 146.5 2.7 156 5.5 165c1.6 2.3 3.2 4.5 4.8 6.7 2.3-.6 5.1-1.2 8.6-1.5z"/><path id="XMLID_110_" class="st3" d="M57 48.5L28.8 71.4H38l19.4-15.5h10.4c.5-2.5 1.3-5.1 2.6-7.4H57z"/><path id="XMLID_117_" class="st3" d="M27.3 145.7s-16.8-21.3-20.6-26.2c-3.8-4.9-4.8-11.1 0-15.6 4.3-4 14.4-13.7 14.4-13.7-1.4-.3-12.7-3.8-12.7-3.8l-2.1 2.1C2.2 100.9 0 114.2 0 128c0 2.9.1 5.8.3 8.7 3.4 5 6.1 9.1 6.1 9.1h20.9z"/><path id="XMLID_118_" class="st4" d="M175.8 31.7c2.9 4.2 5.8 10.5 9.5 16.4.1.1.1.2.2.4H199l28.1 22.9H218l-19.4-15.5h-10.4c.8 4.5.6 8.6.7 9.8 0 .5-.1 1.6-.4 2.9h7.1s24.9 22.7 31.7 28.4c6.8 5.7 9.5 19.2 3.1 27.4-3.5 4.5-15.6 20.6-25.8 34.3 10.4 3.5 21.2 10.5 32.6 11.5 3.4.3 6.3.8 8.6 1.5 1.6-2.2 3.2-4.4 4.8-6.7 2.7-9.1 4.5-18.6 5.2-28.4-3.4 5-6.1 9.1-6.1 9.1h-20.8s16.8-21.3 20.6-26.2c3.8-4.9 4.8-11.1 0-15.6-4.3-4-14.4-13.7-14.4-13.7 1.4-.3 12.7-3.8 12.7-3.8l2.1 2.1c-3.6-11.2-8.7-21.7-15.1-31.3-12.4-13.5-23.2-25.5-23.2-25.5h-35.8z"/><path id="XMLID_119_" class="st5" d="M198.6 55.9L218 71.4h9.2L199 48.5h-13.5c1.4 2.4 2.2 5 2.6 7.4h10.5z"/><path id="XMLID_120_" class="st5" d="M235 90.2s10.1 9.7 14.4 13.7c4.8 4.5 3.8 10.7 0 15.6s-20.6 26.2-20.6 26.2h20.8s2.7-4 6.1-9.1a128.588 128.588 0 0 0-5.9-48.2l-2.1-2.1s-11.3 3.6-12.7 3.9z"/><path id="XMLID_121_" class="st6" d="M156.4 168c-.2.1-.4.2-.7.3-1.5.7-3.8 2-3.8 2-.8.6-1.9 1.6-3.5 2.9-1.6 1.3-4.2 2.3-6.9 2.9l5.6 21.1c9.4-6.9 19.3-19.1 21.5-40.9-.4-2.3-.8-4.6-1.1-6.7-1 3.3-1.9 6.2-2.6 8.3-1.9 6.2-5.8 8.9-8.5 10.1z"/><path id="XMLID_122_" class="st6" d="M128 205.6s4.9-.7 11.3-3.8c.1-7.2-1.8-18.3-3-24.8-4.3.6-7.9.7-8.3.7v67.8-39.9z"/><path id="XMLID_123_" d="M136.3 177c1.2 6.5 3 17.6 3 24.8 2.4-1.2 5.1-2.7 7.8-4.6l-5.6-21.1c-1.7.4-3.5.7-5.2.9z" fill="#a87b67"/><path id="XMLID_124_" class="st6" d="M180 102.6c-.2.7-.4 1.3-.6 1.8-.4 2.2-.7 4.2-1 5.9-.6 3.6-2 9.3-3.8 15.5 6.1 1.7 7.8-5.1 9.6-10.4 2.1-6.1 1.6-14.5.8-19.5s1.9-5.3 1.4-13.4c-.1-.9-.3-1.6-.6-2.1-.5-.5-1.3-1.1-1.9.5-.8 2.5 1.5 7.3 1.5 7.3l-1.9-.5.6 4.3-2.1-1.9s-.1 1.9-.3 3.9v7.6l-1.7 1z"/><path id="XMLID_125_" class="st8" d="M145.9 69.7c6.1-2.7 15.5 0 15.5 0s-10.9-.9-13.3.8c-2.4 1.6-11.5 3.9-20.1 3.9v3.9c.7 0 12-.1 17.8-2.7 6.1-2.7 15.5 0 15.5 0s-10.9-.9-13.3.8c-2.4 1.6-11.5 3.9-20.1 3.9v1.2h9.1l1.9 2.9h15.3l4-2.1h11.7c1.7 1.4 2.9 2.7 3.7 4.1l4 1.5c.1-.8.1-1.6-.1-1.9-.8-1.4-2-6.4-2-6.4s2.7-13.5 1.8-19.6c-1-6.1-6.5-17.6-11.2-23.9-4.6-6.4-11.5-8.9-19-5.9-7.3 2.9-18.6 5.7-19.3 5.9v36.6c.9-.3 12.2-.3 18.1-3z"/><path id="XMLID_126_" class="st8" d="M159.1 113.7c.3 0 .5 0 .8-.1-.3.1-.6.1-.8.1z"/><path id="XMLID_127_" class="st8" d="M156.4 168l-.6.3.6-.3z"/><path id="XMLID_131_" class="st8" d="M179.3 104.5c-.4 1.2-.8 2.1-.8 2.1v-3.2l-4.6 2.4c-2.6 4.4-7.9 6.9-7.9 6.9-2.4 1.9-5.3 3-11 3-8.7 0-13.9 0-18.1-7.7-2.4-4.4-4-7.8-5-9.8H128v36.2c.4 0 6 .3 9.4-3.7 0 0 4.3-.1 6.7 1.9v-.7s3.2 1.2 4.1 1.8 1.1-1.4 1-3c0 0 1 4.2 1.9 5.6 1 1.4 1.7 3.8 1.7 3.8l-1.6-.6s1 1.6 1 1.9c0 .4-1.7 0-1.7 0v2.4s-3.6-1.4-4.9-2.6c-1.3-1.2-1 1.3-1 1.3l-3.4-1.4s-.1 2.2-1.7 1.6-3.7-.8-5-.2c-1.3.6-2 1.4-6.5 1.4v33.8c.4 0 4-.1 8.3-.7 1.7-.2 3.5-.5 5.2-1 2.8-.7 5.3-1.6 6.9-2.9 1.6-1.3 2.8-2.3 3.5-2.9 0 0 3.8-7.3 3.1-11.7-.7-4.4-1.5-8.3-1.5-8.3s4.3 10.1 1.6 17c0 0 3.5-4 5.4-8.4 0 0-2.7 8.6-4.1 9.1 2.7-1.2 6.6-3.9 8.5-10.2.7-2.1 1.6-5 2.6-8.3 2.1-6.9 4.8-15.7 7.1-23.6 1.8-6.3 3.2-11.9 3.8-15.5.2-1.6.6-3.6.9-5.8zm-29.8 26c-2.4-3.5-6.5-9.8-10.4-11 0 0 6.4 1.7 10.9 9.1 4.6 7.4 7 9.7 7.7 15.7.1 0-5.4-9.7-8.2-13.8z"/><path id="XMLID_132_" class="st9" d="M155.8 168.2c.2-.1.5-.2.6-.3 1.4-.5 4.1-9.1 4.1-9.1-1.9 4.4-5.4 8.4-5.4 8.4 2.7-6.9-1.6-17-1.6-17s.8 3.8 1.5 8.3c.7 4.4-3.1 11.7-3.1 11.7.1 0 2.4-1.3 3.9-2z"/><path id="XMLID_133_" class="st10" d="M132.6 10.1l-2.9 6.2c3.1-1.9 7.2-6.2 7.2-6.2l-1.5 6.7L139 13c1.7-1.9 7.2-1 7.2-1l-1.5 5c2.2-2.6 6.2-2.6 6.2-2.6s13.2 2.8 23 19.2c-8-6-17.5-7.7-17.5-7.7h-6.9l2.4-2.4c-2.2 0-7.7 3.4-7.7 3.4v-1.7l-5.7 2.4v-2.4l-6.2 4.2 1.9-4.2c-3.4 2.2-5.9 7.6-6.3 8.3v2.4c.7-.2 12-3 19.3-5.9 7.5-3 14.4-.5 19 5.9s10.2 17.9 11.2 23.9c1 6.1-1.8 19.6-1.8 19.6s1.2 5 2 6.4c.2.4.2 1.1.1 1.9l4 1.5V94c.2-2.1.3-3.9.3-3.9l2.1 1.9-.6-4.3 1.9.5s-2.3-4.8-1.5-7.3c.5-1.6 1.3-1 1.9-.5 0-1.5 1.7-7.9 2.5-11.9.3-1.4.5-2.4.4-2.9-.1-1.2.2-5.3-.7-9.8-.5-2.5-1.3-5.1-2.6-7.4-.1-.1-.1-.2-.2-.4-3.7-5.9-6.6-12.2-9.5-16.4-.4-.6-.8-1.1-1.2-1.6-3.4-4.1-15.5-21.7-46.6-21.7v6.9l4.7-5.1z"/><path id="XMLID_138_" class="st10" d="M179.3 104.5l.6-1.8-1.4.7v3.2c.1 0 .4-.9.8-2.1z"/><path id="XMLID_139_" class="st9" d="M148.1 70.5c2.4-1.6 13.3-.8 13.3-.8s-9.4-2.7-15.5 0c-5.9 2.6-17.1 2.7-17.8 2.7v1.9c8.5 0 17.6-2.2 20-3.8z"/><path id="XMLID_140_" class="st9" d="M148.1 76.3c2.4-1.6 13.3-.8 13.3-.8s-9.4-2.7-15.5 0c-5.9 2.6-17.1 2.7-17.8 2.7v1.9c8.5.1 17.6-2.1 20-3.8z"/><path id="XMLID_141_" class="st10" d="M134.5 142.5c1.3-.6 3.5-.4 5 .2s1.7-1.6 1.7-1.6l3.4 1.4s-.4-2.5 1-1.3c1.3 1.2 4.9 2.6 4.9 2.6v-2.4s1.7.4 1.7 0-1-1.9-1-1.9l1.6.6s-.7-2.4-1.7-3.8-1.9-5.6-1.9-5.6c.1 1.6-.1 3.6-1 3s-4.1-1.8-4.1-1.8v.7c-2.4-2-6.7-1.9-6.7-1.9-3.4 4.1-9 3.7-9.4 3.7v9.5c4.6 0 5.2-.8 6.5-1.4z"/><path id="XMLID_142_" class="st9" d="M150 128.6c-4.6-7.4-10.9-9.1-10.9-9.1 3.8 1.2 8 7.5 10.4 11 2.8 4.1 8.3 13.8 8.3 13.8-.8-6-3.2-8.3-7.8-15.7z"/><path id="XMLID_143_" d="M128 21.3v12.1c.3-.7 2.9-6.1 6.3-8.3l-1.9 4.2 6.2-4.2v2.4l5.7-2.4v1.7s5.5-3.4 7.7-3.4l-2.4 2.4h6.9s9.5 1.7 17.5 7.7c-9.8-16.4-23-19.2-23-19.2s-4 0-6.2 2.6l1.5-5s-5.5-1-7.2 1l-3.6 3.8L137 10s-4.1 4.3-7.2 6.2l2.9-6.2-4.6 5.2v6.1z" fill="#b0b0b0"/><path id="XMLID_144_" class="st12" d="M164.6 111.4c-1.5 1.2-3.1 2.1-4.7 2.3-.3 0-.5.1-.8.1h-7.8c-1 0-2-.1-2.8-.2-.6-.1-1.1-.2-1.6-.3s-1-.3-1.5-.5-.9-.4-1.3-.7c-.2-.1-.4-.3-.6-.4-.8-.6-1.6-1.2-2.3-2-.4-.4-.7-.8-1-1.3-2.2-2.9-4.4-6.6-5.2-10.1h-2.7c.9 2 2.6 5.4 5 9.8 4.2 7.7 9.3 7.7 18.1 7.7 5.6 0 8.6-1.1 11-3l-1.8-1.4z"/><path id="XMLID_146_" class="st8" d="M141.1 109.6c.7.8 1.5 1.5 2.3 2 .2.1.4.3.6.4.4.3.9.5 1.3.7.5.2 1 .4 1.5.5s1.1.3 1.6.3c.9.1 1.8.2 2.8.2h7.8c.3 0 .5 0 .8-.1 1.6-.2 3.2-1.1 4.7-2.3 0 0 5.5-8.3 5.5-13.1 0-3.9-.4-8.2-9.5-9.7 3.4 1.8 4 3.4 4 3.4l-1.6.4 1.6 1.2s-.7.1-1.7-.1 0 1.6 0 1.6c-2.6-2-10.3-5.3-13.1-5.3-2.1 0-7.4 1-9.8 1.4-4.4 3-4.8 7.1-4.8 7.1h-.4c.8 3.4 3 7.2 5.2 10.1.5.5.8.9 1.2 1.3z"/><path id="XMLID_145_" class="st13" d="M141.1 109.6c.7.8 1.5 1.5 2.3 2 .2.1.4.3.6.4.4.3.9.5 1.3.7.5.2 1 .4 1.5.5s1.1.3 1.6.3c.9.1 1.8.2 2.8.2h7.8c.3 0 .5 0 .8-.1 1.6-.2 3.2-1.1 4.7-2.3 0 0 5.5-8.3 5.5-13.1 0-3.9-.4-8.2-9.5-9.7 3.4 1.8 4 3.4 4 3.4l-1.6.4 1.6 1.2s-.7.1-1.7-.1 0 1.6 0 1.6c-2.6-2-10.3-5.3-13.1-5.3-2.1 0-7.4 1-9.8 1.4-4.4 3-4.8 7.1-4.8 7.1h-.4c.8 3.4 3 7.2 5.2 10.1.5.5.8.9 1.2 1.3z"/><path id="XMLID_148_" class="st10" d="M162.9 95.1s-1-1.8 0-1.6c1 .2 1.7.1 1.7.1l-1.6-1.2 1.6-.4s-.6-1.6-4-3.4c-2.1-.3-4.7-.5-7.8-.5-6.1 0-10.1 1.4-12.7 3.1 2.5-.5 7.7-1.4 9.8-1.4 2.7 0 10.4 3.2 13 5.3z"/><path id="XMLID_147_" class="st13" d="M162.9 95.1s-1-1.8 0-1.6c1 .2 1.7.1 1.7.1l-1.6-1.2 1.6-.4s-.6-1.6-4-3.4c-2.1-.3-4.7-.5-7.8-.5-6.1 0-10.1 1.4-12.7 3.1 2.5-.5 7.7-1.4 9.8-1.4 2.7 0 10.4 3.2 13 5.3z"/><path id="XMLID_150_" class="st12" d="M164.6 111.4c-1.5 1.2-3.1 2.1-4.7 2.3 1.6-.2 3.2-1.1 4.7-2.3z"/><path id="XMLID_149_" class="st13" d="M164.6 111.4c-1.5 1.2-3.1 2.1-4.7 2.3 1.6-.2 3.2-1.1 4.7-2.3z"/><path id="XMLID_152_" class="st12" d="M141.1 109.6c-.4-.4-.7-.8-1-1.3-2.2-2.9-4.4-6.6-5.2-10.1.8 3.4 3 7.2 5.2 10.1.3.5.6.9 1 1.3z"/><path id="XMLID_151_" class="st13" d="M141.1 109.6c-.4-.4-.7-.8-1-1.3-2.2-2.9-4.4-6.6-5.2-10.1.8 3.4 3 7.2 5.2 10.1.3.5.6.9 1 1.3z"/><path id="XMLID_154_" class="st12" d="M151.3 113.7c-1 0-2-.1-2.8-.2.8.2 1.7.2 2.8.2z"/><path id="XMLID_153_" class="st13" d="M151.3 113.7c-1 0-2-.1-2.8-.2.8.2 1.7.2 2.8.2z"/><path id="XMLID_156_" class="st12" d="M141.1 109.6c.7.8 1.5 1.5 2.3 2-.9-.5-1.6-1.2-2.3-2z"/><path id="XMLID_155_" class="st13" d="M141.1 109.6c.7.8 1.5 1.5 2.3 2-.9-.5-1.6-1.2-2.3-2z"/><path id="XMLID_158_" class="st12" d="M145.3 112.7c-.5-.2-.9-.4-1.3-.7.4.3.8.5 1.3.7z"/><path id="XMLID_157_" class="st13" d="M145.3 112.7c-.5-.2-.9-.4-1.3-.7.4.3.8.5 1.3.7z"/><path id="XMLID_160_" class="st12" d="M146.8 113.2c-.5-.1-1-.3-1.5-.5.5.2 1 .4 1.5.5z"/><path id="XMLID_159_" class="st13" d="M146.8 113.2c-.5-.1-1-.3-1.5-.5.5.2 1 .4 1.5.5z"/><path id="XMLID_164_" class="st14" d="M107.6 173.1c-1.6-1.3-2.8-2.3-3.5-2.9 0 0-2.3-1.3-3.8-2l-.6-.3c-2.7-1.2-6.6-3.9-8.5-10.2-.7-2.1-1.6-5-2.6-8.3-.3 2.2-.7 4.4-1.1 6.7 2.3 21.8 12.1 34.1 21.5 40.9l5.6-21.1c-2.9-.5-5.4-1.4-7-2.8z"/><path id="XMLID_165_" class="st14" d="M119.7 177c-1.2 6.5-3 17.6-3 24.8 6.4 3.1 11.3 3.8 11.3 3.8v46.7-74.6s-3.8-.1-8.3-.7z"/><path id="XMLID_166_" d="M108.9 197.2c2.7 2 5.3 3.5 7.8 4.6-.1-7.2 1.8-18.3 3-24.8-1.7-.2-3.5-.5-5.2-1l-5.6 21.2z" fill="#906958"/><path id="XMLID_167_" class="st14" d="M71 96c-.8 4.9-1.3 13.4.8 19.5 1.8 5.4 3.5 12.2 9.6 10.4-1.8-6.3-3.2-11.9-3.8-15.5-.3-1.7-.6-3.7-1-5.9l-.6-1.8-1.8-1V94c-.2-2.1-.3-3.9-.3-3.9L71.8 92l.6-4.3-1.9.5s2.3-4.8 1.5-7.3c-.5-1.6-1.3-1-1.9-.5-.3.5-.5 1.2-.6 2.1-.4 8.3 2.3 8.6 1.5 13.5z"/><path id="XMLID_168_" class="st6" d="M82.2 86.3c.8-1.4 2-2.7 3.7-4.1h11.7l4 2.1h15.3l1.9-2.9h9.2v-1.2c-8.6 0-17.7-2.2-20.1-3.9-2.4-1.6-13.3-.8-13.3-.8s9.4-2.7 15.5 0 17.9 2.7 17.9 2.7v-3.9c-8.6 0-17.7-2.2-20.1-3.9-2.4-1.6-13.3-.8-13.3-.8s9.4-2.7 15.5 0 17.9 2.7 17.9 2.7V35.8s-11.8-2.9-19.3-5.9c-7.5-3-14.4-.5-19 5.9s-10.2 17.9-11.2 24 1.8 19.6 1.8 19.6-1.2 5-2 6.4c-.2.4-.2 1.1-.1 1.9l4-1.4z"/><path id="XMLID_169_" class="st6" d="M96.9 113.7c-.3 0-.5 0-.8-.1.3.1.6.1.8.1z"/><path id="XMLID_172_" class="st6" d="M128 143.9c-4.6 0-5.2-.8-6.5-1.4-1.3-.6-3.5-.4-5 .2s-1.7-1.6-1.7-1.6l-3.4 1.4s.4-2.5-1-1.3c-1.3 1.2-4.9 2.6-4.9 2.6v-2.4s-1.7.4-1.7 0 1-1.9 1-1.9l-1.6.6s.7-2.4 1.7-3.8 1.9-5.6 1.9-5.6c-.1 1.6.1 3.6 1 3s4.1-1.8 4.1-1.8v.7c2.4-2 6.7-1.9 6.7-1.9 3.5 4.2 9.4 3.7 9.4 3.7V98.3h-4.1c-.9 2-2.6 5.4-5 9.8-4.2 7.7-9.3 7.7-18.1 7.7-5.6 0-8.6-1.1-11-3 0 0-5.2-2.5-7.9-6.9l-4.6-2.4v3.2s-.3-.9-.8-2.1c.4 2.2.7 4.2 1 5.9.6 3.6 2 9.3 3.8 15.5 2.2 7.9 4.9 16.7 7.1 23.6 1 3.3 1.9 6.2 2.6 8.3 1.9 6.3 5.8 9 8.5 10.2-1.4-.5-4.1-9.1-4.1-9.1 1.9 4.4 5.4 8.4 5.4 8.4-2.7-6.9 1.6-17 1.6-17s-.8 3.8-1.5 8.3c-.7 4.4 3.1 11.7 3.1 11.7.8.6 1.9 1.6 3.5 2.9 1.6 1.3 4.2 2.3 6.9 2.9 1.7.4 3.5.7 5.2 1 4.5.6 8.3.7 8.3.7v-34zm-29.8.4c.7-6 3.2-8.3 7.7-15.7 4.6-7.4 10.9-9.1 10.9-9.1-3.8 1.2-8 7.5-10.4 11-2.7 4.1-8.2 13.8-8.2 13.8z"/><path id="XMLID_173_" class="st6" d="M100.2 168.2c-.2-.1-.5-.2-.6-.3.2.2.4.3.6.3z"/><path id="XMLID_175_" class="st16" d="M99.6 168l.6.3c1.5.7 3.8 2 3.8 2s-3.8-7.3-3.1-11.7c.7-4.4 1.5-8.3 1.5-8.3s-4.3 10.1-1.6 17c0 0-3.5-4-5.4-8.4.1 0 2.8 8.6 4.2 9.1z"/><path id="XMLID_176_" class="st17" d="M70.5 48.5c-1.4 2.4-2.2 5-2.6 7.4-.8 4.5-.6 8.6-.7 9.8 0 .5.1 1.6.4 2.9.8 4 2.5 10.3 2.5 11.9.5-.5 1.3-1.1 1.9.5.8 2.5-1.5 7.3-1.5 7.3l1.9-.5-.6 4.2 2.1-1.9s.1 1.9.3 3.9v-4.8l4-1.5c-.1-.8-.1-1.6.1-1.9.8-1.4 2-6.4 2-6.4s-2.7-13.5-1.8-19.6S85 42.2 89.7 35.9s11.5-8.9 19-5.9 19.3 5.9 19.3 5.9v-2.3s-2.7-6-6.3-8.4l1.9 4.2-6.2-4.2v2.4l-5.7-2.4v1.7s-5.5-3.4-7.7-3.4l2.4 2.4h-6.9S90 27.6 82 33.6c9.8-16.4 23-19.2 23-19.2s4 0 6.2 2.6l-1.5-5s5.5-1 7.2 1l3.6 3.8-1.5-6.7s4.1 4.3 7.2 6.2l-2.9-6.2 4.7 5.3v-7C96.9 8.4 84.8 26 81.4 30.1c-.4.5-.8 1-1.2 1.6-2.9 4.2-5.8 10.5-9.5 16.4-.1.1-.1.3-.2.4z"/><path id="XMLID_177_" class="st17" d="M77.4 103.4l-1.4-.7c.2.7.4 1.3.6 1.8.4 1.2.8 2.1.8 2.1v-3.2z"/><path id="XMLID_178_" class="st16" d="M128 72.4s-11.8 0-17.9-2.7c-6.1-2.7-15.5 0-15.5 0s10.9-.9 13.3.8c2.4 1.6 11.5 3.9 20.1 3.9v-2z"/><path id="XMLID_180_" class="st16" d="M128 78.3s-11.8 0-17.9-2.7c-6.1-2.7-15.5 0-15.5 0s10.9-.9 13.3.8c2.4 1.6 11.5 3.9 20.1 3.9v-2z"/><path id="XMLID_181_" class="st17" d="M118.6 130.8s-4.3-.1-6.7 1.9v-.7s-3.2 1.2-4.1 1.8-1.1-1.4-1-3c0 0-1 4.2-1.9 5.6s-1.7 3.8-1.7 3.8l1.6-.6s-1 1.6-1 1.9c0 .4 1.7 0 1.7 0v2.4s3.6-1.4 4.9-2.6c1.3-1.2 1 1.3 1 1.3l3.4-1.4s.1 2.2 1.7 1.6 3.7-.8 5-.2c1.3.6 2 1.4 6.5 1.4v-9.5s-5.9.4-9.4-3.7z"/><path id="XMLID_182_" class="st16" d="M106.5 130.5c2.4-3.5 6.5-9.8 10.4-11 0 0-6.4 1.7-10.9 9.1-4.6 7.4-7 9.7-7.7 15.7-.1 0 5.4-9.7 8.2-13.8z"/><path id="XMLID_183_" d="M128 21.3v-6l-4.7-5.3 2.9 6.2c-3.1-1.9-7.2-6.2-7.2-6.2l1.5 6.7-3.6-3.8c-1.7-1.9-7.2-1-7.2-1l1.5 5c-2.2-2.6-6.2-2.6-6.2-2.6s-13.2 2.8-23 19.2c8-6 17.5-7.7 17.5-7.7h6.9l-2.4-2.4c2.2 0 7.7 3.4 7.7 3.4v-1.7l5.7 2.4v-2.4l6.2 4.2-1.9-4.2c3.6 2.4 6.3 8.4 6.3 8.4V21.3z" fill="#898a8b"/><path id="XMLID_184_" class="st19" d="M120.8 99.7c-.3.8-.6 1.7-1 2.5-.3.5-.5 1.1-.8 1.6-.1.3-.3.5-.5.8-.6 1.1-1.3 2.1-2 3-.2.2-.3.5-.5.7-2.8 3.6-5.7 5.4-11.3 5.4h-7.8c-.3 0-.5 0-.8-.1-.5-.1-1.1-.2-1.6-.4-1.1-.4-2.1-1.1-3.1-1.9l-1.6 1.4c2.4 1.9 5.3 3 11 3 8.7 0 13.9 0 18.1-7.7 2.4-4.4 4-7.8 5-9.8h-2.7c-.1.6-.3 1.1-.4 1.5z"/><path id="XMLID_186_" class="st6" d="M96.1 113.7c.3 0 .5.1.8.1h7.8c5.5 0 8.5-1.8 11.3-5.4.2-.2.3-.5.5-.7.7-.9 1.4-2 2-3 .2-.3.3-.5.5-.8.3-.5.6-1.1.8-1.6.4-.8.7-1.7 1-2.5.2-.5.3-1 .4-1.4h-.4s-.3-4.1-4.8-7.1c-2.5-.5-7.7-1.4-9.8-1.4-2.8 0-10.4 3.2-13.1 5.3 0 0 1-1.8 0-1.6s-1.7.1-1.7.1l1.6-1.2-1.6-.4s.6-1.6 4-3.4c-9.1 1.5-9.5 5.8-9.5 9.7 0 4.8 5.5 13 5.5 13.1 1 .8 2 1.5 3.1 1.9.6.1 1.1.2 1.6.3z"/><path id="XMLID_185_" class="st20" d="M96.1 113.7c.3 0 .5.1.8.1h7.8c5.5 0 8.5-1.8 11.3-5.4.2-.2.3-.5.5-.7.7-.9 1.4-2 2-3 .2-.3.3-.5.5-.8.3-.5.6-1.1.8-1.6.4-.8.7-1.7 1-2.5.2-.5.3-1 .4-1.4h-.4s-.3-4.1-4.8-7.1c-2.5-.5-7.7-1.4-9.8-1.4-2.8 0-10.4 3.2-13.1 5.3 0 0 1-1.8 0-1.6s-1.7.1-1.7.1l1.6-1.2-1.6-.4s.6-1.6 4-3.4c-9.1 1.5-9.5 5.8-9.5 9.7 0 4.8 5.5 13 5.5 13.1 1 .8 2 1.5 3.1 1.9.6.1 1.1.2 1.6.3z"/><path id="XMLID_188_" class="st17" d="M91.4 92.1l1.6.4-1.6 1.2s.7.1 1.7-.1 0 1.6 0 1.6c2.6-2 10.3-5.3 13.1-5.3 2.1 0 7.4 1 9.8 1.4-2.6-1.7-6.6-3.1-12.7-3.1-3.2 0-5.7.2-7.8.5-3.5 1.8-4.1 3.4-4.1 3.4z"/><path id="XMLID_187_" class="st20" d="M91.4 92.1l1.6.4-1.6 1.2s.7.1 1.7-.1 0 1.6 0 1.6c2.6-2 10.3-5.3 13.1-5.3 2.1 0 7.4 1 9.8 1.4-2.6-1.7-6.6-3.1-12.7-3.1-3.2 0-5.7.2-7.8.5-3.5 1.8-4.1 3.4-4.1 3.4z"/><path id="XMLID_190_" class="st19" d="M121.2 98.3c-.1.5-.2 1-.4 1.4.1-.4.3-.9.4-1.4z"/><path id="XMLID_189_" class="st20" d="M121.2 98.3c-.1.5-.2 1-.4 1.4.1-.4.3-.9.4-1.4z"/><path id="XMLID_192_" class="st19" d="M104.7 113.7c5.5 0 8.5-1.8 11.3-5.4.2-.2.3-.5.5-.7-.2.2-.3.5-.5.7-2.8 3.7-5.8 5.4-11.3 5.4z"/><path id="XMLID_191_" class="st20" d="M104.7 113.7c5.5 0 8.5-1.8 11.3-5.4.2-.2.3-.5.5-.7-.2.2-.3.5-.5.7-2.8 3.7-5.8 5.4-11.3 5.4z"/><path id="XMLID_194_" class="st19" d="M119.8 102.2c-.3.5-.5 1.1-.8 1.6.2-.5.5-1 .8-1.6z"/><path id="XMLID_193_" class="st20" d="M119.8 102.2c-.3.5-.5 1.1-.8 1.6.2-.5.5-1 .8-1.6z"/><path id="XMLID_196_" class="st19" d="M118.5 104.7c-.6 1.1-1.3 2.1-2 3 .7-1 1.4-2 2-3z"/><path id="XMLID_195_" class="st20" d="M118.5 104.7c-.6 1.1-1.3 2.1-2 3 .7-1 1.4-2 2-3z"/><path id="XMLID_198_" class="st19" d="M91.4 111.4c1 .8 2 1.5 3.1 1.9-1-.5-2.1-1.1-3.1-1.9z"/><path id="XMLID_197_" class="st20" d="M91.4 111.4c1 .8 2 1.5 3.1 1.9-1-.5-2.1-1.1-3.1-1.9z"/><path id="XMLID_199_" class="st21" d="M173.8 86.3c2.6 4.3 1.7 8.9 1.7 14.5 0 1.9-.6 3.5-1.5 5l4.6-2.4 1.4-.7 1.8-1V89.2l-4-1.5-4-1.4z"/><path id="XMLID_200_" d="M128 86.4h12s1.5 1 0 1.6h-12v10.3h7.2s.3-4.1 4.8-7.1c2.6-1.7 6.6-3.1 12.7-3.1 3.2 0 5.7.2 7.8.5 9.1 1.5 9.5 5.8 9.5 9.7 0 4.8-5.5 13-5.5 13.1l1.6 1.4s5.2-2.5 7.9-6.9c.9-1.5 1.5-3.1 1.5-5 0-5.6.9-10.2-1.7-14.5-.8-1.4-2-2.7-3.7-4.1h-11.7l-4 2.1h-15.3l-1.9-2.9H128v4.9z" fill="#a33434"/><path id="XMLID_201_" d="M138.9 88h1.1c1.5-.6 0-1.6 0-1.6h-12V88h10.9z" fill="#50463c"/><path id="XMLID_202_" d="M76 102.6l1.4.7 4.6 2.4c-.9-1.5-1.5-3.1-1.5-5 0-5.6-.9-10.2 1.7-14.5l-4 1.5-4 1.5v12.4l1.8 1z" fill="#5a0f0d"/><path id="XMLID_204_" class="st21" d="M89.8 112.7l1.6-1.4s-5.5-8.3-5.5-13.1c0-3.9.4-8.2 9.5-9.7 2.1-.3 4.7-.5 7.8-.5 6.1 0 10.1 1.4 12.7 3.1 4.4 3 4.8 7.1 4.8 7.1h7.3V88h-12c-1.5-.6 0-1.6 0-1.6h12V88v-6.7h-9.1l-1.9 2.9h-15.3l-4-2.1H85.9c-1.7 1.4-2.9 2.7-3.7 4.1-2.6 4.3-1.7 8.9-1.7 14.5 0 1.9.6 3.5 1.5 5 2.6 4.5 7.8 7 7.8 7z"/><path id="XMLID_205_" class="st19" d="M128 86.4h-12s-1.5 1 0 1.6h12.1l-.1-1.6z"/><path id="XMLID_206_" d="M168.6 156.3c-2.3 21.8-12.1 34.1-21.5 40.9-2.7 2-5.3 3.5-7.8 4.6-6.4 3.1-11.3 3.8-11.3 3.8v23.8h38.1c5.7-31.6 14.5-56.3 18.4-66.4l-15.9-6.7z" fill="#a3334f"/><path id="XMLID_207_" d="M128 229.4V256c12.1 0 23.8-1.7 34.9-4.8.9-7.5 2-14.8 3.2-21.8H128z" fill="#846e66"/><path id="XMLID_208_" class="st27" d="M237.1 170.2c-11.5-1-22.2-8-32.6-11.5-6.1-2.1-12.1-2.9-18-.6 0 0-.7 1.7-2 4.8-3.9 10-12.7 34.7-18.4 66.4-1.3 7-2.3 14.3-3.2 21.8 6.3-1.8 12.3-4 18.2-6.7-.6-.4-1-.8-1-.8 4.5-26.5 17.2-59.1 17.2-59.1 32.7 11.2 31.6 14 28.1 23.1-3.5 9-20.1 4.2-20.1 4.2-2.3 4.6-5.8 15.4-8.4 23.9 23.2-14.9 41.3-37.1 51.1-63.3-.7-.3-1.5-.5-2.3-.8-2.3-.5-5.1-1.1-8.6-1.4z"/><path id="XMLID_209_" class="st4" d="M225.5 207.7c3.5-9 4.6-11.9-28.1-23.1 0 0-12.8 32.6-17.2 59.1 0 0 .3.3 1 .8.6-.3 1.2-.6 1.8-.8-.7-.5-1-.8-1-.8 4-23.8 16.1-56.5 16.1-56.5 29.3 10 29.2 12.4 26 20.5-3.1 8.1-19.3 2.4-19.3 2.4-2.4 4.7-6.8 18.6-9.6 27.7.6-.4 1.2-.8 1.8-1.1 2.6-8.5 6-19.3 8.4-23.9-.1-.1 16.6 4.8 20.1-4.3z"/><path id="XMLID_210_" d="M224 206.9c3.1-8.1 3.2-10.5-26-20.5 0 0-12.1 32.7-16.1 56.5 0 0 .3.4 1 .8 4.2-2 8.3-4.2 12.2-6.6 2.8-9.2 7.2-23 9.6-27.7 0-.1 16.2 5.6 19.3-2.5z" fill="#3b3a3a"/><path id="XMLID_211_" class="st29" d="M128 229.4v10.9V220z"/><path id="XMLID_212_" class="st29" d="M128 205.6s-4.9-.7-11.3-3.8c-2.4-1.2-5.1-2.7-7.8-4.6-9.4-6.9-19.3-19.1-21.5-40.9L71.5 163c3.9 10 12.7 34.7 18.4 66.4H128v-23.8z"/><path id="XMLID_213_" class="st27" d="M128 240.3v-11H89.9c1.3 7 2.3 14.3 3.2 21.8 11.1 3.1 22.8 4.8 34.9 4.8v-15.6z"/><path id="XMLID_214_" class="st4" d="M71.5 163c-1.2-3.1-2-4.8-2-4.8-5.9-2.3-11.9-1.5-18 .6-10.4 3.5-21.2 10.5-32.6 11.5-3.4.3-6.3.8-8.6 1.5-.8.2-1.6.5-2.3.8 9.7 26.3 27.8 48.5 51.1 63.3-2.6-8.5-6-19.3-8.4-23.9 0 0-16.6 4.8-20.1-4.2s-4.6-11.9 28.1-23.1c0 0 12.8 32.6 17.2 59.1 0 0-.3.3-1 .8 5.8 2.7 11.9 4.9 18.2 6.7-.9-7.5-2-14.8-3.2-21.8-5.7-31.7-14.5-56.5-18.4-66.5z"/><path id="XMLID_215_" class="st2" d="M58.6 184.7c-32.7 11.2-31.6 14-28.1 23.1 3.5 9 20.1 4.2 20.1 4.2 2.3 4.6 5.8 15.4 8.4 23.9.6.4 1.2.8 1.8 1.1-2.8-9.2-7.2-23-9.6-27.7 0 0-16.2 5.7-19.3-2.4s-3.2-10.5 26-20.5c0 0 12.1 32.7 16.1 56.5 0 0-.3.4-1 .8.6.3 1.2.6 1.8.8.6-.4 1-.8 1-.8-4.4-26.5-17.2-59-17.2-59z"/><path id="XMLID_216_" d="M74.1 242.8C70.1 219 58 186.3 58 186.3c-29.3 10-29.2 12.4-26 20.5s19.3 2.4 19.3 2.4c2.4 4.7 6.8 18.6 9.6 27.7 3.9 2.4 8 4.6 12.2 6.6.7-.3 1-.7 1-.7z" fill="#292828"/></g></g></svg>