<svg id="Layer_1" xmlns="http://www.w3.org/2000/svg" width="256" height="256"><style>.st1{fill:#c08c76}.st3{fill:#d8aa91}.st4{fill:#b8927d}.st5{fill:#d6d4d4}.st7{fill:#b27d6b}.st9{fill:#a1806e}.st10{fill:#a0a0a1}.st12{fill:#5e2929}.st13{fill:#5c5e69}.st15{fill:#703534}.st16,.st18{opacity:.8;fill:#c08c76}.st18{fill:#a27763}.st21{fill:#532222}</style><g id="XMLID_4_"><circle id="XMLID_84_" cx="128" cy="128" r="128" fill="#b2b4b5"/><g id="XMLID_3_"><path id="XMLID_139_" class="st1" d="M156.6 172.3c-.2.1-.4.2-.7.3-1.5.7-3.8 2-3.8 2-.8.6-1.9 1.6-3.5 2.9-1.6 1.3-4.2 2.3-6.9 2.9l2.4 9c13.5-13.2 24-29.4 24-29.4.2.2.5.4.7.7-.4-2.3-.8-4.6-1.1-6.8-1 3.3-1.9 6.2-2.6 8.3-1.9 6.2-5.8 8.9-8.5 10.1z"/><path id="XMLID_140_" class="st1" d="M129.3 201.4h-.2c3.2-1.9 6.4-4.3 9.5-7-.6-4.8-1.4-9.6-2.1-13.1-4.3.6-7.9.7-8.3.7v20.1l1.1-.7z"/><path id="XMLID_141_" d="M144.1 189.4l-2.4-9c-1.7.4-3.5.7-5.2 1 .6 3.5 1.5 8.3 2.1 13.1 1.8-1.7 3.7-3.4 5.5-5.1z" fill="#a87b67"/><path id="XMLID_142_" class="st1" d="M184.2 85.2c-.8 2.5 1.5 7.3 1.5 7.3l-1.9-.5.6 4.3-2.1-1.9s-.3 5.3-.8 7.9c-.3 1.6-1.3 4.5-2 6.5-.4 2.2-.7 4.2-1 5.9-.6 3.6-2 9.3-3.8 15.5 6.1 1.7 7.8-5.1 9.6-10.4 2.1-6.1 1.6-14.5.8-19.5-.8-4.9 1.9-5.3 1.4-13.4-.1-.9-.3-1.6-.6-2.1-.4-.5-1.2-1.1-1.7.4z"/><path id="XMLID_143_" class="st3" d="M138.7 90.5c7.2-2.1 19.2-2.4 39.2 2.4.2-1.2.2-2.2-.1-2.7-.8-1.4-2-6.4-2-6.4s2.7-13.5 1.8-19.6c-1-6.1-6.5-17.6-11.2-23.9-4.6-6.4-11.5-8.9-19-5.9-7.3 2.9-18.6 5.7-19.3 5.9v36.6c.7 0 12-.1 17.8-2.7 6.1-2.7 15.5 0 15.5 0s-10.9-.9-13.3.8c-2.4 1.6-11.5 3.9-20.1 3.9v3.9c.7 0 12-.1 17.8-2.7 6.1-2.7 15.5 0 15.5 0s-10.9-.9-13.3.8c-2.4 1.6-11.5 3.9-20.1 3.9v7.8c.5-.2 3.5-.1 10.8-2.1z"/><path id="XMLID_144_" class="st3" d="M156.6 172.3l-.6.3.6-.3z"/><path id="XMLID_147_" class="st3" d="M179.5 108.8c-.4 1.2-.8 2.1-.8 2.1v-8.6l-1.3 1.5c-.2-1-.1-2.1.1-3.2-1.9 1.6-4.1 3.8-5 5.4-1.6 3-4.2 10.9-11.3 12.1-4.3.4-21 1.6-23.7-4-2.7-5.7-1.9-15.9-9.4-15.9v40.5c.4 0 6 .3 9.4-3.7 0 0 4.3-.1 6.7 1.9v-.7s3.2 1.2 4.1 1.8 1.1-1.4 1-3c0 0 1 4.2 1.9 5.6 1 1.4 1.7 3.8 1.7 3.8l-1.6-.6s1 1.6 1 1.9c0 .4-1.7 0-1.7 0v2.4s-3.6-1.4-4.9-2.6c-1.3-1.2-1 1.3-1 1.3l-3.4-1.4s-.1 2.2-1.7 1.6-3.7-.8-5-.2c-1.3.6-2 1.4-6.5 1.4V182c.4 0 4-.1 8.3-.7 1.7-.2 3.5-.5 5.2-1 2.8-.7 5.3-1.6 6.9-2.9 1.6-1.3 2.8-2.3 3.5-2.9 0 0 3.8-7.3 3.1-11.7-.7-4.4-1.5-8.3-1.5-8.3s4.3 10.1 1.6 17c0 0 3.5-4 5.4-8.4 0 0-2.7 8.6-4.1 9.1 2.7-1.2 6.6-3.9 8.5-10.2.7-2.1 1.6-5 2.6-8.3 2.1-6.9 4.8-15.7 7.1-23.6 1.8-6.3 3.2-11.9 3.8-15.5.3-1.6.6-3.6 1-5.8zm-29.9 26c-2.4-3.5-6.5-9.8-10.4-11 0 0 6.4 1.7 10.9 9.1 4.6 7.4 7 9.7 7.7 15.7.1 0-5.4-9.7-8.2-13.8z"/><path id="XMLID_148_" class="st4" d="M156.6 172.3c1.4-.5 4.1-9.1 4.1-9.1-1.9 4.4-5.4 8.4-5.4 8.4 2.7-6.9-1.6-17-1.6-17s.8 3.8 1.5 8.3c.7 4.4-3.1 11.7-3.1 11.7s2.3-1.3 3.8-2c.3-.1.5-.2.7-.3z"/><path id="XMLID_149_" class="st5" d="M128.1 12.7s.1 0 0 0c.1 0 0 0 0 0z"/><path id="XMLID_150_" class="st5" d="M132.8 14.4l-2.9 6.2c3.1-1.9 7.2-6.2 7.2-6.2l-1.5 6.7 3.6-3.8c1.7-1.9 7.2-1 7.2-1l-1.5 5c2.2-2.6 6.2-2.6 6.2-2.6s13.2 2.8 23 19.2c-8-6-17.5-7.7-17.5-7.7h-6.9l2.4-2.4c-2.2 0-7.7 3.4-7.7 3.4v-1.7l-5.7 2.4v-2.4l-6.2 4.2 1.9-4.2c-3.4 2.2-5.9 7.6-6.3 8.3v2.4c.7-.2 12-3 19.3-5.9 7.5-3 14.4-.5 19 5.9s10.2 17.9 11.2 23.9c1 6.1-1.8 19.6-1.8 19.6s1.2 5 2 6.4c.3.5.2 1.5.1 2.7.8.2 1.6.4 2.5.6v4.8s-1.3 1-2.8 2.4c-.2 1.1-.2 2.2-.1 3.2l1.3-1.5v8.6s.3-.9.8-2.1c.7-2 1.7-4.9 2-6.5.5-2.6.8-7.9.8-7.9l2.1 1.9-.6-4.3 1.9.5s-2.3-4.8-1.5-7.3c.5-1.6 1.3-1 1.9-.5 0-2.1 3.1-12.9 2.9-14.8-.2-1.9.6-10.9-3.5-17.6-4.2-6.7-7.3-13.9-10.7-18-3.4-4.1-15.5-21.7-46.6-21.7v6.9l4.5-5.1z"/><path id="XMLID_151_" class="st4" d="M148.3 74.8c2.4-1.6 13.3-.8 13.3-.8s-9.4-2.7-15.5 0c-5.9 2.6-17.1 2.7-17.8 2.7v1.9c8.5.1 17.6-2.2 20-3.8z"/><path id="XMLID_152_" class="st4" d="M148.3 80.6c2.4-1.6 13.3-.8 13.3-.8s-9.4-2.7-15.5 0c-5.9 2.6-17.1 2.7-17.8 2.7v1.9c8.5.1 17.6-2.1 20-3.8z"/><path id="XMLID_153_" class="st5" d="M134.7 146.8c1.3-.6 3.5-.4 5 .2s1.7-1.6 1.7-1.6l3.4 1.4s-.4-2.5 1-1.3c1.3 1.2 4.9 2.6 4.9 2.6v-2.4s1.7.4 1.7 0-1-1.9-1-1.9l1.6.6s-.7-2.4-1.7-3.8-1.9-5.6-1.9-5.6c.1 1.6-.1 3.6-1 3s-4.1-1.8-4.1-1.8v.7c-2.4-2-6.7-1.9-6.7-1.9-3.4 4.1-9 3.7-9.4 3.7v9.5c4.5 0 5.2-.8 6.5-1.4z"/><path id="XMLID_156_" class="st4" d="M150.2 132.9c-4.6-7.4-10.9-9.1-10.9-9.1 3.8 1.2 8 7.5 10.4 11 2.8 4.1 8.3 13.8 8.3 13.8-.8-6-3.3-8.3-7.8-15.7z"/><path id="XMLID_157_" d="M128.2 25.6v12.1c.3-.7 2.9-6.1 6.3-8.3l-1.9 4.2 6.2-4.2v2.4l5.7-2.4v1.7s5.5-3.4 7.7-3.4l-2.4 2.4h6.9s9.5 1.7 17.5 7.7c-9.8-16.4-23-19.2-23-19.2s-4 0-6.2 2.6l1.5-5s-5.5-1-7.2 1l-3.6 3.8 1.5-6.7s-4.1 4.3-7.2 6.2l2.9-6.2-4.6 5.2v6.1z" fill="#b0b0b0"/><path id="XMLID_158_" class="st7" d="M128.2 202.1V182s-3.8-.1-8.3-.7c-.7 3.6-1.5 8.5-2.1 13.3 3 2.5 6.1 4.8 9.2 6.7h-.2l1.3.7.1.1z"/><path id="XMLID_159_" class="st7" d="M112.2 189.6l2.4-9.3c-2.8-.7-5.3-1.6-6.9-2.9-1.6-1.3-2.8-2.3-3.5-2.9 0 0-2.3-1.3-3.8-2l-.6-.3c-2.7-1.2-6.6-3.9-8.5-10.2-.7-2.1-1.6-5-2.6-8.3-.3 2.1-.6 4.3-1 6.4l.3-.3c-.1.2 10.6 16.5 24.2 29.8z"/><path id="XMLID_160_" d="M114.6 180.4l-2.4 9.3c1.8 1.7 3.6 3.4 5.5 5 .6-4.9 1.5-9.8 2.1-13.3-1.7-.3-3.4-.6-5.2-1z" fill="#906958"/><path id="XMLID_161_" class="st7" d="M76.8 108.8c-.7-2-1.7-4.9-2-6.5-.5-2.6-.8-7.9-.8-7.9l-2 1.9.6-4.3-1.9.5s2.3-4.8 1.5-7.3c-.5-1.6-1.3-1-1.9-.5-.3.5-.5 1.2-.6 2.1-.5 8.1 2.2 8.5 1.4 13.4s-1.3 13.4.8 19.5c1.8 5.4 3.5 12.2 9.6 10.4-1.8-6.3-3.2-11.9-3.8-15.5-.2-1.6-.5-3.6-.9-5.8z"/><path id="XMLID_162_" class="st1" d="M100.4 172.6c-.2-.1-.5-.2-.6-.3.1.1.4.2.6.3z"/><path id="XMLID_165_" class="st1" d="M99.7 172.3c-1.4-.5-4.1-9.1-4.1-9.1 1.9 4.4 5.4 8.4 5.4 8.4-2.7-6.9 1.6-17 1.6-17s-.8 3.8-1.5 8.3c-.7 4.4 3.1 11.7 3.1 11.7.8.6 1.9 1.6 3.5 2.9 1.6 1.3 4.2 2.3 6.9 2.9 1.7.4 3.5.7 5.2 1 4.5.6 8.3.7 8.3.7v-33.8c-4.6 0-5.2-.8-6.5-1.4-1.3-.6-3.5-.4-5 .2s-1.7-1.6-1.7-1.6l-3.4 1.4s.4-2.5-1-1.3c-1.3 1.2-4.9 2.6-4.9 2.6v-2.4s-1.7.4-1.7 0 1-1.9 1-1.9l-1.6.6s.7-2.4 1.7-3.8 1.9-5.6 1.9-5.6c-.1 1.6.1 3.6 1 3s4.1-1.8 4.1-1.8v.7c2.4-2 6.7-1.9 6.7-1.9 3.5 4.2 9.4 3.7 9.4 3.7V84.6c-8.6 0-17.7-2.2-20.1-3.9-2.4-1.6-13.3-.8-13.3-.8s9.4-2.7 15.5 0 17.9 2.7 17.9 2.7v-3.9c-8.6 0-17.7-2.2-20.1-3.9-2.4-1.6-13.3-.8-13.3-.8s9.4-2.7 15.5 0 17.9 2.7 17.9 2.7V40.1s-11.8-2.9-19.3-5.9c-7.5-3-14.4-.5-19 5.9S79.6 58 78.7 64.1c-1 6.1 1.8 19.6 1.8 19.6s-1.2 5-2 6.4c-.3.5-.2 1.5-.1 2.7 20-4.7 32-4.4 39.2-2.4 7.5 2.2 10.5 1.9 10.5 1.9v5.9c-7.5 0-6.7 10.2-9.4 15.9-2.7 5.7-19.4 4.4-23.7 4-7.1-1.2-9.7-9.2-11.3-12.1-.9-1.6-3.1-3.8-5-5.4.2 1.1.2 2.2.1 3.1l-1.3-1.5v8.6s-.3-.9-.8-2.1c.4 2.2.7 4.2 1 5.9.6 3.6 2 9.3 3.8 15.5 2.2 7.9 4.9 16.7 7.1 23.6 1 3.3 1.9 6.2 2.6 8.3 2 6.4 5.9 9.1 8.5 10.3zm6.4-39.4c4.6-7.4 10.9-9.1 10.9-9.1-3.8 1.2-8 7.5-10.4 11-2.8 4.1-8.3 13.8-8.3 13.8.8-6 3.3-8.3 7.8-15.7z"/><path id="XMLID_166_" class="st9" d="M101.1 162.8c.7-4.4 1.5-8.3 1.5-8.3s-4.3 10.1-1.6 17c0 0-3.5-4-5.4-8.4 0 0 2.7 8.6 4.1 9.1l.6.3c1.5.7 3.8 2 3.8 2 .1.1-3.7-7.2-3-11.7z"/><path id="XMLID_167_" class="st10" d="M72.2 85.2c.8 2.5-1.5 7.3-1.5 7.3l1.9-.5-.6 4.3 2.1-1.9s.3 5.3.8 7.9c.3 1.6 1.3 4.5 2 6.5.4 1.2.8 2.1.8 2.1v-8.6l1.3 1.5c.2-1 .1-2.1-.1-3.1-1.6-1.4-2.8-2.4-2.8-2.4v-4.8c.9-.2 1.7-.4 2.5-.6-.2-1.2-.2-2.2.1-2.7.8-1.4 2-6.4 2-6.4S78 70.3 78.9 64.2c1-6.1 6.5-17.6 11.2-23.9 4.6-6.4 11.5-8.9 19-5.9s19.3 5.9 19.3 5.9V38s-2.7-6-6.3-8.4l1.9 4.2-6.2-4.2V32l-5.7-2.4v1.7s-5.5-3.4-7.7-3.4l2.4 2.4h-7.2S90.1 32 82.1 38c9.8-16.4 23-19.2 23-19.2s4 0 6.2 2.6l-1.5-5s5.5-1 7.2 1l3.6 3.8-1.5-6.7s4.1 4.3 7.2 6.2l-2.9-6.2 4.7 5.3v-6.9c-31.1 0-43.2 17.6-46.6 21.7-3.4 4.2-6.5 11.3-10.7 18-4.2 6.7-3.4 15.6-3.5 17.6-.2 1.9 2.9 12.7 2.9 14.8.6-.7 1.4-1.3 2 .2z"/><path id="XMLID_168_" class="st9" d="M128.2 76.8s-11.8 0-17.9-2.7c-6.1-2.7-15.5 0-15.5 0s10.9-.9 13.3.8c2.4 1.6 11.5 3.9 20.1 3.9v-2z"/><path id="XMLID_169_" class="st9" d="M128.2 82.6s-11.8 0-17.9-2.7c-6.1-2.7-15.5 0-15.5 0s10.9-.9 13.3.8c2.4 1.6 11.5 3.9 20.1 3.9v-2z"/><path id="XMLID_170_" class="st10" d="M128.2 138.8s-5.9.5-9.4-3.7c0 0-4.3-.1-6.7 1.9v-.7s-3.2 1.2-4.1 1.8-1.1-1.4-1-3c0 0-1 4.2-1.9 5.6-1 1.4-1.7 3.8-1.7 3.8l1.6-.6s-1 1.6-1 1.9c0 .4 1.7 0 1.7 0v2.4s3.6-1.4 4.9-2.6c1.3-1.2 1 1.3 1 1.3l3.4-1.4s.1 2.2 1.7 1.6 3.7-.8 5-.2c1.3.6 2 1.4 6.5 1.4v-9.5z"/><path id="XMLID_171_" class="st9" d="M98.4 148.6s5.5-9.6 8.3-13.8c2.4-3.5 6.5-9.8 10.4-11 0 0-6.4 1.7-10.9 9.1-4.6 7.4-7.1 9.7-7.8 15.7z"/><path id="XMLID_172_" d="M128.2 25.6v-6l-4.7-5.3 2.9 6.2c-3.1-1.9-7.2-6.2-7.2-6.2l1.5 6.7-3.6-3.8c-1.7-1.9-7.2-1-7.2-1l1.5 5c-2.2-2.6-6.2-2.6-6.2-2.6s-13.2 2.8-23 19.2c8-6 17.5-7.7 17.5-7.7h6.9l-2.4-2.4c2.2 0 7.7 3.4 7.7 3.4v-1.7l5.7 2.4v-2.4l6.2 4.2-1.9-4.2c3.6 2.4 6.3 8.4 6.3 8.4V25.6z" fill="#898a8b"/><path id="XMLID_174_" class="st12" d="M168.5 240.3c-5-18.6-17.9-30.3-23.4-34.6-1.4 5.1-3.5 11.9-6 16.5 0 0-.1.1-.4.2l4.3 32.7c9.4-1.1 18.6-3.2 27.2-6.3.5-2.5 1-5 1.4-7.5l-3.1-1z"/><path id="XMLID_177_" class="st13" d="M138.7 222.4c-1.3.6-5.3 2.4-10.7 2.4v28.6c1.5 0 2.8 1.1 3.2 2.5 4-.1 7.9-.4 11.8-.8l-4.3-32.7zm-3.3 18.8c-1.9 0-3.4-1.5-3.4-3.4s1.5-3.4 3.4-3.4 3.4 1.5 3.4 3.4-1.5 3.4-3.4 3.4z"/><path id="XMLID_178_" d="M129.3 201.4l-1.2.6-.2.1v22.7c5.3 0 9.4-1.8 10.7-2.4.3-.1.4-.2.4-.2 2.5-4.6 4.6-11.4 6-16.5-1.6-1.3-2.6-1.9-2.6-1.9l-13.1-2.4z" fill="#656672"/><path id="XMLID_179_" class="st15" d="M168.1 160s-10.5 16.1-24 29.4c-1.8 1.7-3.6 3.4-5.5 5-3.1 2.6-6.3 5-9.5 7h.2l13.2 2.3s1 .6 2.6 1.9c5.5 4.3 18.4 16.1 23.4 34.6l3.1 1c1.1-5.8 2.1-11.4 2.9-16.6 6.9-42.8 7.9-44.5 7.9-44.5-2.9-4.6-4.9-8.7-6.7-11.2-1.2-1.7-4.2-5.7-7-8.5-.2 0-.4-.2-.6-.4z"/><path id="XMLID_180_" class="st12" d="M200.7 188.7c-6.1-2.8-12.3-5.7-18.3-8.4 0 0-1.1 1.6-7.9 44.5-.8 5.2-1.8 10.7-2.9 16.6-.5 2.5-.9 5-1.4 7.5 10-3.5 19.4-8.2 28.1-13.9 2.6-28.2 2.4-46.3 2.4-46.3z"/><path id="XMLID_181_" class="st12" d="M220.4 216.6c4.2-4.3 8-9 11.6-13.9-3.4-1.4-7.3-3.1-11.5-5 .3 5.9.2 12.3-.1 18.9z"/><path id="XMLID_183_" class="st3" d="M143 115.5c4 .5 13.1 2.6 21.1-.7 6.7-3.8 8.1-20.3 8.1-20.3s-3.7-2.3-11.8-3.3c.5.3.7.5.7.5H158c5.9 2.3 6.7 4.7 6.7 4.7l-1.6.4 1.6 1.2s-.7.1-1.7-.1 0 1.6 0 1.6c-2.6-2-10.3-5.3-13.1-5.3-2.8 0-11.1 1.7-11.1 1.7-.6-.9-.8-2-.8-2.8-2.5 1.3-3.4 2.9-3.1 4.6.7 3.4 4 17.3 8.1 17.8z"/><path id="XMLID_182_" class="st16" d="M143 115.5c4 .5 13.1 2.6 21.1-.7 6.7-3.8 8.1-20.3 8.1-20.3s-3.7-2.3-11.8-3.3c.5.3.7.5.7.5H158c5.9 2.3 6.7 4.7 6.7 4.7l-1.6.4 1.6 1.2s-.7.1-1.7-.1 0 1.6 0 1.6c-2.6-2-10.3-5.3-13.1-5.3-2.8 0-11.1 1.7-11.1 1.7-.6-.9-.8-2-.8-2.8-2.5 1.3-3.4 2.9-3.1 4.6.7 3.4 4 17.3 8.1 17.8z"/><path id="XMLID_185_" class="st5" d="M138.9 95.8s8.4-1.7 11.1-1.7c2.8 0 10.4 3.2 13.1 5.3 0 0-1-1.8 0-1.6 1 .2 1.7.1 1.7.1l-1.6-1.2 1.6-.4s-.8-2.4-6.7-4.7h3.1s-.2-.2-.7-.5c-2.3-.3-5-.5-8-.5-7.1 0-11.6.9-14.3 2.2-.1 1 .1 2 .7 3z"/><path id="XMLID_184_" class="st16" d="M138.9 95.8s8.4-1.7 11.1-1.7c2.8 0 10.4 3.2 13.1 5.3 0 0-1-1.8 0-1.6 1 .2 1.7.1 1.7.1l-1.6-1.2 1.6-.4s-.8-2.4-6.7-4.7h3.1s-.2-.2-.7-.5c-2.3-.3-5-.5-8-.5-7.1 0-11.6.9-14.3 2.2-.1 1 .1 2 .7 3z"/><path id="XMLID_188_" d="M137.6 114.1c2.7 5.7 19.4 4.4 23.7 4 7.1-1.2 9.7-9.2 11.3-12.1.9-1.6 3.1-3.8 5-5.4 1.5-1.4 2.8-2.4 2.8-2.4v-4.8c-.9-.2-1.7-.4-2.5-.6-20-4.7-32-4.4-39.2-2.4-7.3 2.1-10.3 1.9-10.5 1.9v5.9c7.5.1 6.7 10.3 9.4 15.9zm.5-21.1c2.7-1.3 7.2-2.2 14.3-2.2 3.1 0 5.7.2 8 .5 8.1 1 11.8 3.3 11.8 3.3s-1.3 16.6-8.1 20.3c-8.1 3.2-17.1 1.2-21.1.7s-7.4-14.4-7.9-17.9c-.3-1.8.5-3.5 3-4.7z" fill="#333"/><path id="XMLID_190_" class="st1" d="M92.2 114.8c8.1 3.2 17.1 1.2 21.1.7s7.4-14.4 7.9-17.9c.3-1.7-.6-3.3-3.1-4.6 0 .9-.2 1.9-.8 2.8 0 0-8.4-1.7-11.1-1.7-2.8 0-10.4 3.2-13.1 5.3 0 0 1-1.8 0-1.6-1 .2-1.7.1-1.7.1l1.6-1.2-1.6-.4s.8-2.4 6.7-4.7H95s.3-.2.7-.5c-8.1 1-11.8 3.3-11.8 3.3s1.6 16.7 8.3 20.4z"/><path id="XMLID_189_" class="st18" d="M92.2 114.8c8.1 3.2 17.1 1.2 21.1.7s7.4-14.4 7.9-17.9c.3-1.7-.6-3.3-3.1-4.6 0 .9-.2 1.9-.8 2.8 0 0-8.4-1.7-11.1-1.7-2.8 0-10.4 3.2-13.1 5.3 0 0 1-1.8 0-1.6-1 .2-1.7.1-1.7.1l1.6-1.2-1.6-.4s.8-2.4 6.7-4.7H95s.3-.2.7-.5c-8.1 1-11.8 3.3-11.8 3.3s1.6 16.7 8.3 20.4z"/><path id="XMLID_192_" class="st10" d="M98.3 91.7c-5.9 2.3-6.7 4.7-6.7 4.7l1.6.4-1.6 1.2s.7.1 1.7-.1 0 1.6 0 1.6c2.6-2 10.3-5.3 13.1-5.3 2.8 0 11.1 1.7 11.1 1.7.6-.9.8-1.9.8-2.8-2.7-1.4-7.2-2.3-14.3-2.3-3 0-5.7.2-8 .5-.5.3-.7.5-.7.5h3z"/><path id="XMLID_191_" class="st18" d="M98.3 91.7c-5.9 2.3-6.7 4.7-6.7 4.7l1.6.4-1.6 1.2s.7.1 1.7-.1 0 1.6 0 1.6c2.6-2 10.3-5.3 13.1-5.3 2.8 0 11.1 1.7 11.1 1.7.6-.9.8-1.9.8-2.8-2.7-1.4-7.2-2.3-14.3-2.3-3 0-5.7.2-8 .5-.5.3-.7.5-.7.5h3z"/><path id="XMLID_195_" d="M75.9 98.3s1.3 1 2.8 2.4c1.9 1.6 4.1 3.8 5 5.4 1.6 3 4.2 10.9 11.3 12.1 4.3.4 21 1.6 23.7-4 2.7-5.7 1.9-15.9 9.4-15.9v-5.9s-3 .3-10.5-1.9c-7.2-2.1-19.2-2.4-39.2 2.4-.8.2-1.7.4-2.5.6v4.8zm20-7.1c2.3-.3 5-.5 8-.5 7.1 0 11.6.9 14.3 2.3 2.5 1.3 3.3 2.9 3.1 4.6-.5 3.5-3.9 17.4-7.9 17.9s-13.1 2.6-21.1-.7c-6.7-3.8-8.1-20.3-8.1-20.3s3.6-2.3 11.7-3.3z" fill="#212121"/><circle id="XMLID_196_" class="st15" cx="135.4" cy="237.8" r="3.4"/><path id="XMLID_197_" class="st15" d="M128 253.5v2.5h3.2c-.4-1.5-1.7-2.5-3.2-2.5z"/><path id="XMLID_198_" d="M220.5 197.7s-8-6.7-19.8-9c0 0 .2 18.1-2.4 46.3 8-5.3 15.4-11.4 22-18.3.4-6.7.5-13.1.2-19z" fill="#171717"/><path id="XMLID_199_" class="st21" d="M117.3 222.4c-.3-.1-.4-.2-.4-.2-2.5-4.6-4.6-11.4-6-16.5-5.5 4.3-18.4 16.1-23.4 34.6l-3.1 1c.5 2.5.9 5 1.4 7.5 8.7 3 17.8 5.2 27.2 6.3l4.3-32.7z"/><path id="XMLID_203_" d="M128 253.5v-28.6c-5.3 0-9.4-1.8-10.7-2.4l-4.3 32.7c3.9.5 7.8.7 11.8.8.4-1.5 1.7-2.5 3.2-2.5zm-10.8-15.7c0-1.9 1.5-3.4 3.4-3.4s3.4 1.5 3.4 3.4-1.5 3.4-3.4 3.4-3.4-1.5-3.4-3.4z" fill="#4e4f59"/><path id="XMLID_204_" class="st13" d="M128 209.5v-7.3l-1.3-.7-13.2 2.3s-1 .6-2.6 1.9c1.4 5.1 3.5 11.9 6 16.5 0 0 .1.1.4.2 1.3.6 5.3 2.4 10.7 2.4v-15.3z"/><path id="XMLID_205_" class="st12" d="M81.5 224.8c.8 5.2 1.8 10.7 2.9 16.6l3.1-1c5-18.6 17.9-30.3 23.4-34.6 1.6-1.3 2.6-1.9 2.6-1.9l13.2-2.3h.2c-3.1-1.9-6.2-4.2-9.2-6.7-1.9-1.6-3.7-3.3-5.5-5C98.6 176.3 87.9 160 87.9 160l-.3.3c-2.9 2.8-6.1 7.1-7.3 8.9-1.8 2.5-3.8 6.5-6.7 11.2 0-.1 1 1.6 7.9 44.4z"/><path id="XMLID_206_" class="st21" d="M35.5 197.7c-4.2 1.9-8 3.6-11.5 5 3.5 4.9 7.4 9.5 11.6 13.9-.3-6.6-.4-13-.1-18.9z"/><path id="XMLID_207_" class="st21" d="M81.5 224.8c-6.9-42.8-7.9-44.5-7.9-44.5-6 2.7-12.2 5.6-18.3 8.4 0 0-.2 18.1 2.4 46.3 8.7 5.7 18.1 10.4 28.1 13.9-.5-2.5-1-5-1.4-7.5-1.1-5.9-2.1-11.5-2.9-16.6z"/><circle id="XMLID_208_" class="st12" cx="120.6" cy="237.8" r="3.4"/><path id="XMLID_209_" d="M55.3 188.7c-11.8 2.3-19.8 9-19.8 9-.3 5.9-.2 12.3.1 18.9 6.6 6.9 14 13.1 22 18.3-2.5-28.1-2.3-46.2-2.3-46.2z" fill="#030303"/><path id="XMLID_210_" class="st12" d="M124.8 256h3.2v-2.5c-1.5 0-2.8 1-3.2 2.5z"/></g></g></svg>