<svg id="Layer_1" xmlns="http://www.w3.org/2000/svg" width="256" height="256"><style>.st2{fill:#c08c76}.st4{fill:#d8aa91}.st5{fill:#b8927d}.st6{fill:#d6d4d4}.st7{fill:#b0b0b0}.st10{fill:#b27d6b}.st12{fill:#a1806e}.st13{fill:#a0a0a1}.st16{fill:#24203e}.st17{fill:#3f3c61}.st18{fill:#312d4e}.st20{fill:#f15c22}.st21{fill:#c7c7c7}.st26{fill:#fff}</style><g id="XMLID_5_"><circle id="XMLID_151_" cx="128" cy="128" r="128" fill="#b2b4b5"/><g id="XMLID_3_"><path id="XMLID_4_" fill="none" d="M128.1 8.4V6.3v2.1z"/><path id="XMLID_143_" class="st2" d="M156.5 168c-.2.1-.4.2-.7.3-1.5.7-3.8 2-3.8 2-.8.6-1.9 1.6-3.5 2.9-1.6 1.3-4.2 2.3-6.9 2.9l5.9 22.3C146.1 201.9 136 212 136 212l3.2-6.5c1-6.4-1.3-20.6-2.8-28.4-4.3.6-7.9.7-8.3.7v55.5c.9-1.8 19.6-39.7 42.8-65.5l-2.4-10.9s.1 0 .3.1c-.5-2.5-.9-5-1.2-7.3-1 3.3-1.9 6.2-2.6 8.3-2 6.1-5.8 8.8-8.5 10z"/><path id="XMLID_144_" d="M139.1 205.4l-3.2 6.5s10.1-10.1 11.5-13.6l-5.9-22.3c-1.7.4-3.5.7-5.2 1 1.5 7.8 3.8 21.9 2.8 28.4z" fill="#a87b67"/><path id="XMLID_145_" class="st2" d="M184 80.9c-.8 2.5 1.5 7.3 1.5 7.3l-1.9-.5.6 4.3-2.1-1.9s-.3 5.3-.8 7.9c-.3 1.6-1.3 4.5-2 6.5-.4 2.2-.7 4.2-1 5.9-.6 3.6-2 9.3-3.8 15.5 6.1 1.7 7.8-5.1 9.6-10.4 2.1-6.1 1.6-14.5.8-19.5-.8-4.9 1.9-5.3 1.4-13.4-.1-.9-.3-1.6-.6-2.1s-1.1-1.1-1.7.4z"/><path id="XMLID_146_" class="st4" d="M128.1 93.5c.3 0 1.9-.1 4.1 1.1 0 0 2.7-4.4 5.9-6.1 0-.2 0-.3.1-.5h-10v5.5z"/><path id="XMLID_147_" class="st4" d="M128.1 72.3V35.9v36.6-.2z"/><path id="XMLID_148_" class="st4" d="M168.9 106.4c-.4.7-1 1.5-1.5 2.2.6-.7 1.1-1.5 1.5-2.2z"/><path id="XMLID_149_" class="st4" d="M159.1 113.7c.5 0 1.1-.1 1.6-.2-.5.2-1.1.2-1.6.2z"/><path id="XMLID_150_" class="st4" d="M168.9 106.4c.3-.5.5-1 .7-1.4.5-1.1.8-2.5 1-4-.2 1.5-.5 2.9-1 4-.2.5-.4.9-.7 1.4z"/><path id="XMLID_152_" class="st4" d="M128.1 74.4v3.9c.6 0 10.1-.1 16.2-2.1-3.3-.9-6.7-1.7-10.2-2.2-2 .2-4 .4-6 .4z"/><path id="XMLID_153_" class="st4" d="M164.8 88.4c.3.1.6.2.9.2-.3-.1-.6-.1-.9-.2z"/><path id="XMLID_154_" class="st4" d="M159.1 87.6c-.3 0-.6 0-.9-.1.3.1.6.1.9.1z"/><path id="XMLID_155_" class="st4" d="M137.2 92l.9-.6-.9.6z"/><path id="XMLID_156_" class="st4" d="M128.1 80.2v5.7h22.2c3.3-.8 5.8-.5 7.6 0h3.9c4.9 0 9.3 1.4 10.1 5.3h5.5c.4-1.9.9-4.4.4-5.3-.4-.9-1.1-3-1.5-4.5-8.7 2.6-18.6-1.2-29.3-4.3-3.5 1.4-11.4 3.1-18.9 3.1z"/><path id="XMLID_157_" class="st4" d="M156.5 168l-.6.3.6-.3z"/><path id="XMLID_160_" class="st4" d="M179.4 104.5c-.4 1.2-.8 2.1-.8 2.1V98l-1.3 1.5c-.5-3.1 1.3-7.4 1.3-7.4l-1.1.7v.6H172s1.7 11.1-2 15.4c-3.7 4.3-6 6.9-14.7 6.9s-13.9 0-18.1-7.7-6-12.1-6-12.1-1.2-.7-3.1-.7v39.1c.4 0 6 .3 9.4-3.7 0 0 4.3-.1 6.7 1.9v-.7s3.2 1.2 4.1 1.8c.8.6 1.1-1.4 1-3 0 0 1 4.2 1.9 5.6s1.7 3.8 1.7 3.8l-1.6-.6s1 1.6 1 1.9c0 .4-1.7 0-1.7 0v2.4s-3.6-1.4-4.9-2.6c-1.3-1.2-1 1.3-1 1.3l-3.4-1.4s-.1 2.2-1.7 1.6c-1.6-.6-3.7-.8-5-.2-1.3.6-2 1.4-6.5 1.4v33.9c.4 0 4-.1 8.3-.7 1.7-.2 3.5-.5 5.2-1 2.8-.7 5.3-1.6 6.9-2.9 1.6-1.3 2.8-2.3 3.5-2.9 0 0 3.8-7.3 3.1-11.7s-1.5-8.3-1.5-8.3 4.3 10.1 1.6 17c0 0 3.5-4 5.4-8.4 0 0-2.7 8.6-4.1 9.1 2.7-1.2 6.6-3.9 8.5-10.2.7-2.1 1.6-5 2.6-8.3 2.1-6.9 4.8-15.7 7-23.6 1.8-6.3 3.2-11.9 3.8-15.5.3-1.6.6-3.6 1-5.8zm-29.9 26c-2.4-3.5-6.5-9.8-10.4-11 0 0 6.4 1.7 10.9 9.1 4.5 7.4 7 9.7 7.7 15.7.1 0-5.4-9.7-8.2-13.8z"/><path id="XMLID_161_" class="st5" d="M156.5 168c1.4-.5 4.1-9.1 4.1-9.1-1.9 4.4-5.4 8.4-5.4 8.4 2.7-6.9-1.6-17-1.6-17s.8 3.8 1.5 8.3-3.1 11.7-3.1 11.7 2.3-1.3 3.8-2c.3-.2.5-.3.7-.3z"/><path id="XMLID_163_" class="st6" d="M128.1 8.4v6.9z"/><path id="XMLID_164_" class="st6" d="M176.2 81.3c.4 1.6 1 3.7 1.5 4.5.5.9 0 3.4-.4 5.3h.3v1.6l1.1-.7s-1.8 4.4-1.3 7.4l1.3-1.5v8.6s.3-.9.8-2.1c.7-2 1.7-4.9 2-6.5.5-2.6.8-7.9.8-7.9l2.1 1.9-.6-4.3 1.9.5s-2.3-4.8-1.5-7.3c.5-1.6 1.3-1 1.9-.5 0-1.1.8-4.6 1.6-7.9-3.6 5-7.4 7.6-11.5 8.9z"/><path id="XMLID_165_" class="st6" d="M128.1 33.4v2.4-2.4z"/><path id="XMLID_166_" class="st5" d="M128.1 72.5v1.1-1.1z"/><path id="XMLID_167_" class="st5" d="M134.1 74c-2-.3-4-.4-6-.4v.8c2 0 4-.2 6-.4z"/><path id="XMLID_168_" class="st5" d="M128.1 78.3v1.9c7.6 0 15.5-1.7 18.9-3.2-.9-.3-1.8-.5-2.7-.8-6.1 2-15.6 2.1-16.2 2.1z"/><path id="XMLID_169_" class="st6" d="M134.6 142.5c1.3-.6 3.5-.4 5 .2 1.6.6 1.7-1.6 1.7-1.6l3.4 1.4s-.4-2.5 1-1.3c1.3 1.2 4.9 2.6 4.9 2.6v-2.4s1.7.4 1.7 0-1-1.9-1-1.9l1.6.6s-.7-2.4-1.7-3.8-1.9-5.6-1.9-5.6c.1 1.6-.1 3.6-1 3-.8-.6-4.1-1.8-4.1-1.8v.7c-2.4-2-6.7-1.9-6.7-1.9-3.4 4.1-9 3.7-9.4 3.7v9.5c4.5 0 5.2-.8 6.5-1.4z"/><path id="XMLID_170_" class="st5" d="M150.1 128.6c-4.5-7.4-10.9-9.1-10.9-9.1 3.8 1.2 8 7.5 10.4 11 2.8 4.1 8.3 13.8 8.3 13.8-.8-6-3.3-8.3-7.8-15.7z"/><path id="XMLID_171_" class="st7" d="M128.1 15.3v.3z"/><path id="XMLID_172_" class="st7" d="M128.1 26.4v7-7z"/><path id="XMLID_174_" class="st6" d="M139 88h-.9c0 .1-.1.3-.1.5.4-.2.7-.4 1-.5z"/><path id="XMLID_175_" class="st6" d="M158.2 87.5c-.6 0-1.2-.1-1.9-.1.7.1 1.3.1 1.9.1z"/><path id="XMLID_176_" class="st6" d="M153.6 87.4h2.8-2.8z"/><path id="XMLID_177_" class="st6" d="M150.3 85.9h7.6c-1.8-.6-4.4-.8-7.6 0z"/><path id="XMLID_178_" class="st6" d="M151.2 87.6c.4 0 .8-.1 1.2-.1-.4 0-.8 0-1.2.1z"/><path id="XMLID_179_" class="st6" d="M140.5 89.9c.3-.2.6-.3.9-.5-.3.2-.6.4-.9.5z"/><path id="XMLID_180_" class="st6" d="M138.8 90.9c.4-.2.7-.4 1.1-.6-.4.2-.8.4-1.1.6z"/><path id="XMLID_181_" class="st6" d="M146 88.2c1.5-.3 3-.4 4.3-.6-1.3.2-2.8.4-4.3.6z"/><path id="XMLID_184_" d="M137.2 108.1c4.2 7.7 9.3 7.7 18.1 7.7 8.7 0 11-2.6 14.7-6.9 3.7-4.3 2-15.4 2-15.4h5.5v-2.2h-5.8c-.7-3.8-5.1-5.3-10.1-5.3h-33.7v2h10.9c-.3.1-.6.3-1 .5-3.2 1.8-5.9 6.1-5.9 6.1-2.2-1.2-3.8-1.1-4.1-1.1v1.8c1.9 0 3.1.7 3.1.7s2.1 4.5 6.3 12.1zm-.6-15.6c.2-.2.4-.3.6-.5l.9-.6c.2-.2.5-.3.7-.5.4-.2.7-.4 1.1-.6l.6-.3c.3-.2.6-.3.9-.5.4-.2.7-.3 1-.4 1.1-.4 2.4-.6 3.7-.9 1.5-.3 3-.4 4.3-.6.3 0 .6-.1.9-.1.4 0 .8-.1 1.2-.1.8-.1 1.2-.1 1.2-.1h2.8c.6 0 1.2.1 1.9.1.3 0 .6 0 .9.1 2.1.2 4 .4 5.7.8.3.1.6.2.9.2 2.1.6 3.6 1.5 4.1 2.7.9 2.6 1.2 6.4.8 9.7-.2 1.5-.5 2.9-1 4-.2.4-.4.9-.7 1.4-.4.7-1 1.5-1.5 2.2-.4.5-.8 1-1.3 1.4l-.7.7c-1.4 1.3-3 2.4-4.7 2.8-.5.1-1.1.2-1.6.2h-7.8c-5.5 0-8.5-1.8-11.3-5.4-2.8-3.6-5.5-8.6-5.5-12.6-.1-.9.7-2.1 1.9-3.1z" fill="#907047"/><path id="XMLID_185_" d="M151.3 113.7h7.8c.5 0 1.1-.1 1.6-.2 1.6-.4 3.2-1.5 4.7-2.8.2-.2.5-.4.7-.7.5-.5.9-.9 1.3-1.4.6-.7 1.1-1.5 1.5-2.2.3-.5.5-1 .7-1.4.5-1.1.8-2.5 1-4 .4-3.3.1-7.1-.8-9.7-.4-1.2-2-2.1-4.1-2.7-.3-.1-.6-.2-.9-.2-1.7-.4-3.6-.6-5.7-.8-.3 0-.6 0-.9-.1-.6 0-1.2-.1-1.9-.1h-2.8s-.5 0-1.2.1c-.3 0-.7.1-1.2.1-.3 0-.6.1-.9.1-1.3.1-2.8.3-4.3.6-1.3.2-2.6.5-3.7.9-.2.1-.6.2-1 .4-.3.1-.6.3-.9.5l-.6.3c-.3.2-.7.4-1.1.6-.2.1-.5.3-.7.5l-.9.6c-.2.2-.4.3-.6.5-1.2 1-2 2.2-2 3.3 0 4 2.8 9 5.5 12.6 2.9 3.5 5.9 5.2 11.4 5.2z" opacity=".6" fill="#844530"/><path id="XMLID_186_" class="st10" d="M85.3 167.7c23.2 25.8 42 63.9 42.8 65.5v-55.5s-3.8-.1-8.3-.7c-1.4 7.7-3.8 21.9-2.8 28.4l3.2 6.5s-10.1-10.1-11.5-13.6l5.9-22.3c-2.8-.7-5.3-1.6-6.9-2.9-1.6-1.3-2.8-2.3-3.5-2.9 0 0-2.3-1.3-3.8-2l-.6-.3c-2.7-1.2-6.6-3.9-8.5-10.2-.7-2.1-1.6-5-2.6-8.3-.3 2.4-.7 4.8-1.2 7.3.2 0 .3-.1.3-.1l-2.5 11.1z"/><path id="XMLID_187_" d="M108.6 198.4c1.4 3.5 11.5 13.6 11.5 13.6l-3.2-6.5c-1-6.4 1.3-20.6 2.8-28.4-1.7-.2-3.5-.5-5.2-1l-5.9 22.3z" fill="#906958"/><path id="XMLID_188_" class="st10" d="M76.7 104.5c-.7-2-1.7-4.9-2-6.5-.5-2.6-.8-7.9-.8-7.9l-2 1.9.6-4.3-1.9.5s2.3-4.8 1.5-7.3c-.5-1.6-1.3-1-1.9-.5-.3.5-.5 1.2-.6 2.1-.5 8.1 2.2 8.5 1.4 13.4-.8 4.9-1.3 13.4.8 19.5 1.8 5.3 3.5 12.2 9.6 10.4-1.8-6.3-3.2-11.9-3.8-15.5-.2-1.6-.5-3.6-.9-5.8z"/><path id="XMLID_189_" class="st2" d="M84.3 91.1c.7-3.8 5.1-5.3 10.1-5.3h3.9c1.8-.5 4.3-.8 7.6 0h22.3v-5.7c-7.5 0-15.4-1.7-18.9-3.2C98.6 80 88.7 83.8 80 81.2c-.4 1.6-1 3.7-1.5 4.6-.5.9 0 3.4.4 5.3h5.4z"/><path id="XMLID_191_" class="st2" d="M85.6 101.9c-.1-.6-.2-1.1-.2-1.7 0 .6.1 1.1.2 1.7z"/><path id="XMLID_192_" class="st2" d="M90.2 88.7c.4-.1.9-.2 1.4-.4-.5.1-1 .3-1.4.4z"/><path id="XMLID_193_" class="st2" d="M117.6 91.1c.3.2.6.4.8.6-.3-.3-.5-.5-.8-.6z"/><path id="XMLID_194_" class="st2" d="M97.9 87.5c-.3 0-.6 0-.9.1.3 0 .6 0 .9-.1z"/><path id="XMLID_196_" class="st2" d="M85.6 101.9c.2 1.2.5 2.2.9 3.1.2.4.4.9.7 1.4-.3-.5-.5-1-.7-1.4-.4-.9-.7-2-.9-3.1z"/><path id="XMLID_197_" class="st2" d="M97 113.7c-.3 0-.5 0-.8-.1.3.1.5.1.8.1z"/><path id="XMLID_198_" class="st2" d="M88.7 108.6c-.6-.7-1.1-1.5-1.5-2.2.4.7.9 1.5 1.5 2.2z"/><path id="XMLID_199_" class="st2" d="M128.1 78.3v-3.9c-2 0-4.1-.1-6-.3-3.4.5-6.9 1.3-10.2 2.2 6.3 2 16.2 2 16.2 2z"/><path id="XMLID_200_" class="st2" d="M128 88h-10c0 .1.1.3.1.5 3.2 1.8 5.9 6.1 5.9 6.1 2.3-1.3 4-1.1 4.1-1.1L128 88z"/><path id="XMLID_201_" class="st2" d="M100.3 168.2c-.2-.1-.5-.2-.6-.3.1.2.4.3.6.3z"/><path id="XMLID_205_" class="st2" d="M99.6 168c-1.4-.5-4.1-9.1-4.1-9.1 1.9 4.4 5.4 8.4 5.4 8.4-2.7-6.9 1.6-17 1.6-17s-.8 3.8-1.5 8.3 3.1 11.7 3.1 11.7c.8.6 1.9 1.6 3.5 2.9 1.6 1.3 4.2 2.3 6.9 2.9 1.7.4 3.5.7 5.2 1 4.5.6 8.3.7 8.3.7v-33.9c-4.6 0-5.2-.8-6.5-1.4-1.3-.6-3.5-.4-5 .2-1.6.6-1.7-1.6-1.7-1.6l-3.4 1.4s.4-2.5-1-1.3-4.9 2.6-4.9 2.6v-2.4s-1.7.4-1.7 0 1-1.9 1-1.9l-1.6.6s.7-2.4 1.7-3.8 1.9-5.6 1.9-5.6c-.1 1.6.1 3.6 1 3 .8-.6 4.1-1.8 4.1-1.8v.7c2.4-2 6.7-1.9 6.7-1.9 3.5 4.2 9.4 3.7 9.4 3.7V95.3c-1.9 0-3.2.7-3.2.7s-1.8 4.4-6 12.1-9.3 7.7-18.1 7.7-11-2.6-14.7-6.9c-3.7-4.3-2-15.4-2-15.4h-5.5v-.6l-1-.9s1.8 4.4 1.3 7.4L77.5 98v8.6s-.3-.9-.8-2.1c.4 2.2.7 4.2 1 5.9.6 3.6 2 9.3 3.8 15.5 2.2 7.9 4.9 16.7 7 23.6 1 3.3 1.9 6.2 2.6 8.3 2 6.3 5.9 9 8.5 10.2zm6.4-39.4c4.5-7.4 10.9-9.1 10.9-9.1-3.8 1.2-8 7.5-10.4 11-2.8 4.1-8.3 13.8-8.3 13.8.8-6 3.3-8.3 7.8-15.7z"/><path id="XMLID_206_" class="st12" d="M101 158.5c.7-4.4 1.5-8.3 1.5-8.3s-4.3 10.1-1.6 17c0 0-3.5-4-5.4-8.4 0 0 2.7 8.6 4.1 9.1l.6.3c1.5.7 3.8 2 3.8 2 .1 0-3.7-7.2-3-11.7z"/><path id="XMLID_207_" class="st13" d="M72.1 80.9c.8 2.5-1.5 7.3-1.5 7.3l1.9-.5-.6 4.3 2.1-1.9s.3 5.3.8 7.9c.3 1.6 1.3 4.5 2 6.5.4 1.2.8 2.1.8 2.1V98l1.3 1.5c.5-3.1-1.3-7.4-1.3-7.4l1.1.7v-1.6h.3c-.4-1.9-.9-4.4-.4-5.3.5-.9 1.1-3 1.5-4.6-4.1-1.3-7.9-3.9-11.3-8.8.8 3.4 1.7 7 1.7 8.1.2-.6 1-1.2 1.6.3z"/><path id="XMLID_208_" class="st12" d="M128.1 74.4v-.8c-2 0-4 .2-6 .4 1.9.2 4 .4 6 .4z"/><path id="XMLID_209_" class="st12" d="M128.1 80.2v-1.9s-9.9 0-16.2-2.1c-.9.2-1.8.5-2.7.8 3.4 1.5 11.3 3.2 18.9 3.2z"/><path id="XMLID_210_" class="st13" d="M128.1 134.5s-5.9.5-9.4-3.7c0 0-4.3-.1-6.7 1.9v-.7s-3.2 1.2-4.1 1.8c-.8.6-1.1-1.4-1-3 0 0-1 4.2-1.9 5.6-1 1.4-1.7 3.8-1.7 3.8l1.6-.6s-1 1.6-1 1.9c0 .4 1.7 0 1.7 0v2.4s3.6-1.4 4.9-2.6 1 1.3 1 1.3l3.4-1.4s.1 2.2 1.7 1.6c1.6-.6 3.7-.8 5-.2 1.3.6 2 1.4 6.5 1.4v-9.5z"/><path id="XMLID_211_" class="st12" d="M98.3 144.3s5.5-9.6 8.3-13.8c2.4-3.5 6.5-9.8 10.4-11 0 0-6.4 1.7-10.9 9.1-4.6 7.4-7.1 9.7-7.8 15.7z"/><path id="XMLID_212_" class="st13" d="M103.7 87.5c.3 0 .7.1 1.2.1-.4-.1-.8-.1-1.2-.1z"/><path id="XMLID_213_" class="st13" d="M117.6 91c-.4-.3-.9-.5-1.3-.8.4.3.8.6 1.3.8z"/><path id="XMLID_214_" class="st13" d="M98.3 85.9h7.6c-3.3-.8-5.9-.6-7.6 0z"/><path id="XMLID_215_" class="st13" d="M102.5 87.4c-1.6 0-3.1 0-4.6.1 1.5 0 3.1-.1 4.6-.1z"/><path id="XMLID_216_" class="st13" d="M114.8 89.5l.6.3-.6-.3z"/><path id="XMLID_218_" class="st13" d="M117.1 88c.3.1.6.3 1 .5 0-.2 0-.3-.1-.5h-.9z"/><path id="XMLID_221_" d="M128.1 93.5c-.1 0-1.8-.2-4.1 1.1 0 0-2.7-4.4-5.9-6.1-.3-.2-.6-.3-1-.5h11v-2.2H94.3c-4.9 0-9.3 1.4-10.1 5.3h-5.8v2.2h5.5s-1.7 11.1 2 15.4c3.7 4.3 6 6.9 14.7 6.9s13.9 0 18.1-7.7 6-12.1 6-12.1 1.2-.7 3.2-.7v-1.6zM116 108.4c-.3.4-.7.9-1 1.3-.2.2-.4.4-.5.6-1.3 1.3-2.7 2.2-4.4 2.8-.2.1-.5.2-.8.2-1.3.4-2.8.5-4.5.5H97c-.3 0-.5 0-.8-.1-1.9-.3-3.8-1.4-5.5-3-.2-.2-.5-.4-.7-.7-.5-.5-.9-.9-1.3-1.4-.6-.7-1.1-1.5-1.5-2.2-.3-.5-.5-1-.7-1.4-.4-.9-.7-2-.9-3.1-.1-.6-.2-1.1-.2-1.7-.1-.6-.1-1.3-.1-1.9 0-2.5.3-5 1-6.9.4-1.2 1.8-2 3.9-2.6.4-.1.9-.2 1.4-.4 1.6-.4 3.5-.6 5.5-.7.3 0 .6 0 .9-.1 1.5-.1 3.1-.1 4.6-.1 0 0 .5 0 1.2.1.3 0 .7.1 1.2.1.3 0 .6.1.9.1 1.3.1 2.8.3 4.3.6 1.3.2 2.6.5 3.7.9.2.1.6.2 1 .4l.6.3c.3.1.6.3.9.5.4.2.9.5 1.3.8.3.2.6.4.8.6 1.7 1.2 3.1 2.7 3.1 4.2-.1 3.7-2.8 8.7-5.6 12.3z" fill="#785d39"/><path id="XMLID_222_" d="M118.4 91.6c-.3-.2-.5-.4-.8-.6-.4-.3-.9-.5-1.3-.8-.3-.2-.6-.3-.9-.5l-.6-.3c-.4-.2-.8-.3-1-.4-1.1-.4-2.4-.6-3.7-.9-1.5-.3-3-.4-4.3-.6-.3 0-.6-.1-.9-.1-.4 0-.8-.1-1.2-.1-.8-.1-1.2-.1-1.2-.1-1.6 0-3.1 0-4.6.1-.3 0-.6 0-.9.1-2 .1-3.8.4-5.5.7-.5.1-.9.2-1.4.4-2 .6-3.4 1.5-3.9 2.6-.7 1.9-1 4.4-1 6.9 0 .7 0 1.3.1 1.9 0 .6.1 1.2.2 1.7.2 1.2.5 2.2.9 3.1.2.4.4.9.7 1.4.4.7 1 1.5 1.5 2.2.4.5.8 1 1.3 1.4l.7.7c1.7 1.5 3.6 2.7 5.5 3 .3 0 .5.1.8.1h7.8c1.7 0 3.2-.2 4.5-.5.3-.1.5-.1.8-.2 1.7-.6 3.1-1.5 4.4-2.8.2-.2.4-.4.5-.6.4-.4.7-.8 1-1.3 2.8-3.6 5.5-8.6 5.5-12.6.1-1.2-1.3-2.6-3-3.9z" opacity=".6" fill="#6d3723"/><path id="XMLID_223_" class="st16" d="M150.4 8c23.3 12.8 32.6 50 33.9 55.9 1.8 2 3.4 4.2 4.6 6.6 0 0 4-7.6-2.2-28.6-9.2-31.4-38.3-34.6-38.3-34.6 1.9.4 2 .7 2 .7z"/><path id="XMLID_226_" class="st17" d="M128.1 15.3v.3h.7v10.8h-.7v20-.9s39.7.5 56.2 18.3C183 58 173.7 20.8 150.4 8c0 0-.1-.3-1.9-.6-2.4-.5-7.9-1-20.4-1v8.9zm.7.3h6V18h-3.4v1.5h6.6l1.5 1.7 1.5-1.7h3.1l-3 3.4 3.1 3.4H141l-1.5-1.7-1.5 1.7h-9.1V15.6zm10.8 16c.5 0 .7-.3.8-.6h.3c-.1.6-.5.9-1.1.9-.8 0-1.2-.6-1.2-1.4 0-.8.4-1.5 1.2-1.5.9 0 1.1.8 1.1 1.5h-2c.1.6.3 1.1.9 1.1zm-2.5-2.6h.3v.4c.2-.3.4-.5.8-.5h.1v.3h-.2c-.5 0-.7.5-.7.9v1.5h-.3V29zm-3 0h.3v.4c.2-.3.5-.5.9-.5.8 0 1.2.7 1.2 1.4s-.4 1.4-1.2 1.4c-.4 0-.7-.1-.9-.5v1.4h-.3V29zm-2.8 0h.4l.8 1.1.8-1.1h.4l-1 1.3 1 1.4h-.4l-.9-1.1-.8 1.1h-.4l1-1.4-.9-1.3zm-2.5 2.7v-3.9h2.1v.3h-1.8v1.4h1.7v.3h-1.7v1.6h1.9v.3h-2.2zm13.2.1c-.6 0-1-.3-1-.9h.3c0 .4.3.6.7.6.4 0 .7-.2.7-.5s-.3-.4-.7-.5c-.4-.1-.9-.3-.9-.8 0-.6.5-.8.9-.8.5 0 .9.2.9.8h-.3c0-.3-.2-.5-.6-.5-.3 0-.6.1-.6.5 0 .3.3.4.7.5.4.1.9.2.9.8 0 .6-.5.8-1 .8zm2.2 0c-.6 0-1-.3-1-.9h.3c0 .4.3.6.7.6.4 0 .7-.2.7-.5s-.3-.4-.7-.5c-.4-.1-.9-.3-.9-.8 0-.6.5-.8.9-.8.5 0 .9.2.9.8h-.3c0-.3-.2-.5-.6-.5-.3 0-.6.1-.6.5 0 .3.3.4.7.5.4.1.9.2.9.8.1.6-.4.8-1 .8z"/><path id="XMLID_234_" class="st17" d="M135.2 31.5c.6 0 .9-.6.9-1.1 0-.6-.2-1.1-.9-1.1-.6 0-.8.5-.8 1.1 0 .6.2 1.1.8 1.1z"/><path id="XMLID_235_" class="st17" d="M139.6 29.2c-.5 0-.8.4-.8 1h1.6c0-.5-.3-1-.8-1z"/><path id="XMLID_236_" class="st17" d="M134.8 21.8h-3.5V24h3.5v2.4l3-3.5-3-3.4z"/><path id="XMLID_237_" class="st18" d="M184.3 63.9c-16.5-17.8-56.2-18.3-56.2-18.3v28.1c2 0 4 .2 6 .4 3.4.5 6.8 1.2 10.2 2.2.9.2 1.8.5 2.7.8 10.7 3.1 20.6 6.9 29.3 4.3 4.1-1.2 7.9-3.9 11.3-8.7.5-.6.9-1.3 1.3-2-1.2-2.6-2.8-4.8-4.6-6.8z"/><path id="XMLID_238_" d="M71.9 63.9C73.2 58 82.5 20.8 105.8 8c0 0 .1-.3 1.9-.6 0 0-29.1 3.3-38.3 34.6-6.1 21-2.2 28.6-2.2 28.6 1.3-2.5 2.8-4.7 4.7-6.7z" fill="#181230"/><path id="XMLID_239_" class="st18" d="M117.1 20.7c-.7 0-1.2.4-1.4 1.1h2.7c0-.6-.5-1.1-1.3-1.1z"/><path id="XMLID_240_" class="st18" d="M124.7 21.1c-1 0-1.5.9-1.5 1.9 0 .9.6 1.8 1.5 1.8 1 0 1.5-.9 1.5-1.8 0-1-.4-1.9-1.5-1.9z"/><path id="XMLID_241_" class="st18" d="M105.8 8C82.5 20.8 73.2 58 71.9 63.9c16.5-17.8 56.2-18.3 56.2-18.3v.9-20.1h-1.8v-.7c-.5.7-1.2 1.1-2 1.1-1.9 0-3.3-1.5-3.5-3.3h-5c0 .8.7 1.5 1.4 1.5s.9-.1 1.2-.6h2.5c-.6 1.6-1.9 2.4-3.7 2.4-2.2 0-3.9-1.6-3.9-3.8 0-.4 0-.7.1-1.1h-2.9v4.5h-2.9V15.6h6.4V18h-3.5v1.5h3.2v1.4c.6-1.1 1.9-1.8 3.4-1.8 1.9 0 3.2 1 3.7 2.6.4-1.5 1.7-2.6 3.3-2.6.8 0 1.5.2 2.1.9v-4.4h1.8V6.3c-12.5 0-18 .6-20.4 1-1.7.4-1.8.7-1.8.7z"/><path id="XMLID_242_" class="st16" d="M79.9 81.2c8.7 2.7 18.6-1.2 29.3-4.3.9-.3 1.8-.5 2.7-.8 3.3-.9 6.7-1.7 10.2-2.2 2-.3 4-.4 6-.4V45.4s-39.7.5-56.2 18.3c-1.8 2-3.4 4.2-4.6 6.6.4.7.8 1.3 1.2 1.9 3.5 5.1 7.3 7.8 11.4 9z"/><path id="XMLID_243_" class="st20" d="M137.8 22.9l-3 3.5h3.1l1.5-1.7 1.5 1.7h3.2l-3.1-3.5 3-3.4h-3.1l-1.4 1.7-1.5-1.7h-3.2z"/><path id="XMLID_244_" class="st20" d="M134.8 26.4V24h-3.5v-2.2h3.5v-2.3h-3.5V18h3.5v-2.4h-6v10.8z"/><path id="XMLID_247_" class="st21" d="M128.8 26.4V15.6h-2.5V20c-.6-.6-1.3-.9-2.1-.9-1.7 0-2.9 1.1-3.3 2.6-.5-1.6-1.8-2.6-3.7-2.6-1.6 0-2.8.7-3.4 1.8v-1.4h-3.2V18h3.5v-2.4h-6.4v10.8h2.9v-4.5h2.9c-.1.3-.1.7-.1 1.1 0 2.2 1.7 3.8 3.9 3.8 1.8 0 3.1-.9 3.7-2.4h-2.5c-.3.5-.6.6-1.2.6-.8 0-1.4-.7-1.4-1.5h5c.2 1.8 1.6 3.3 3.5 3.3.8 0 1.6-.4 2-1.1v.7h2.4zm-13-4.5c.2-.7.7-1.1 1.4-1.1s1.2.4 1.4 1.1h-2.8zm8.9 2.8c-.9 0-1.5-.9-1.5-1.8 0-1 .5-1.9 1.5-1.9s1.5.9 1.5 1.9c0 1-.4 1.8-1.5 1.8z"/><path id="XMLID_250_" class="st21" d="M131 31.5h-1.9v-1.6h1.8v-.3h-1.8v-1.4h1.8v-.3h-2.1v3.8h2.2z"/><path id="XMLID_251_" class="st21" d="M131.7 31.7l.8-1.1.8 1.1h.4l-1-1.3 1-1.4h-.4l-.8 1.1-.8-1.1h-.4l1 1.4-1 1.3z"/><path id="XMLID_254_" class="st21" d="M134.4 32.8v-1.4c.2.3.5.5.9.5.8 0 1.2-.7 1.2-1.4s-.4-1.4-1.2-1.4c-.4 0-.7.1-.9.5v-.4h-.3v3.7h.3zm.8-3.5c.6 0 .9.6.9 1.1 0 .6-.2 1.1-.9 1.1-.6 0-.8-.5-.8-1.1 0-.6.2-1.1.8-1.1z"/><path id="XMLID_255_" class="st21" d="M137.4 31.7v-1.5c0-.5.2-.9.7-.9h.2V29h-.1c-.4 0-.6.1-.8.5v-.4h-.3v2.7h.3z"/><path id="XMLID_258_" class="st21" d="M139.6 29c-.8 0-1.2.7-1.2 1.5s.4 1.4 1.2 1.4c.6 0 1-.3 1.1-.9h-.3c-.1.3-.3.6-.8.6-.6 0-.9-.5-.9-1.1h2c0-.8-.2-1.5-1.1-1.5zm0 .2c.5 0 .8.5.8 1h-1.6c0-.6.3-1 .8-1z"/><path id="XMLID_259_" class="st21" d="M143 31c0-.5-.5-.7-.9-.8-.4-.1-.7-.2-.7-.5 0-.4.3-.5.6-.5s.6.2.6.5h.3c0-.6-.4-.8-.9-.8s-.9.2-.9.8c0 .5.5.7.9.8.4.1.7.2.7.5 0 .4-.3.5-.7.5-.4 0-.7-.2-.7-.6h-.3c0 .6.4.9 1 .9.5 0 1-.2 1-.8z"/><path id="XMLID_260_" class="st21" d="M144.4 30.2c-.4-.1-.7-.2-.7-.5 0-.4.3-.5.6-.5s.6.2.6.5h.3c0-.6-.4-.8-.9-.8s-.9.2-.9.8c0 .5.5.7.9.8.4.1.7.2.7.5 0 .4-.3.5-.7.5-.4 0-.7-.2-.7-.6h-.3c0 .6.4.9 1 .9.5 0 1-.2 1-.8 0-.5-.5-.7-.9-.8z"/><path id="XMLID_261_" class="st18" d="M167 246.2c-.6 0-1 .4-1.2 1h2.3c0-.6-.4-1-1.1-1z"/><path id="XMLID_262_" class="st18" d="M165.8 248.6c0 .7.6 1.3 1.2 1.3h.3c.1 0 .3-.1.4-.1l.4-.4h.8c.4-.1.9-.3 1.3-.4 0-.1 0-.2-.1-.3h-4.3z"/><path id="XMLID_263_" class="st18" d="M173.6 246.5c-.8 0-1.3.8-1.3 1.6l2.4-.9c-.2-.4-.6-.7-1.1-.7z"/><path id="XMLID_264_" class="st18" d="M195.2 195.2c8.7 5.5 19.1 12.3 27.6 18.7 5.4-6 10.3-12.4 14.5-19.3-15.8-4.9-34.4-12.2-47.2-17.5 1.8 6 3.7 12.6 5.1 18.1z"/><path id="XMLID_265_" class="st18" d="M165.7 199.3c-1.5.4-2.9 1-4.3 1.9-4.6 3-7.1 4.4-8.3 5l7.5 17.5s-28.9 9.5-32.5 30.8v1.5c12.8 0 25.1-1.9 36.7-5.4-.7-.6-1.1-1.4-1.1-2.5 0-.3 0-.6.1-.9h-2.5v3.9h-2.5v-9.3h5.5v2.1h-3v1.3h2.8v1.2c.6-1 1.6-1.6 2.9-1.6 1.6 0 2.8.9 3.2 2.3.4-1.3 1.5-2.3 2.9-2.3.7 0 1.3.2 1.8.7v-3.8h2.2v4.4-4.4h5.2v2.1h-3v1.3h.2c8.7-3.8 17-8.6 24.6-14.3-9.4-14.2-29.9-26.7-38.4-31.5z"/><path id="XMLID_266_" d="M198.4 207.9s-19.2-12.4-32.7-8.6c8.5 4.8 29 17.3 38.4 31.7 6.8-5 13.1-10.7 18.8-17-8.4-6.4-18.8-13.3-27.6-18.7 1.8 7.1 3.1 12.6 3.1 12.6z" fill="#3a308f"/><path id="XMLID_267_" d="M170.8 167.7c-23.2 25.8-41.9 63.7-42.8 65.5v21.4c3.6-21.3 32.5-30.8 32.5-30.8l-7.5-17.5c1.2-.6 3.7-2 8.3-5 1.3-.9 2.8-1.5 4.3-1.9 13.5-3.8 32.7 8.6 32.7 8.6s-1.3-5.5-3.2-12.6c-1.5-5.6-3.3-12.2-5.2-18-2.4-7.6-4.9-14-6.7-15.2-4.5-2.8-12.9-4.8-14.6-5.2-.2 0-.3-.1-.3-.1l2.5 10.8z" fill="#3b375b"/><path id="XMLID_268_" class="st16" d="M66 177.2c-12.8 5.3-31.5 12.6-47.3 17.5 4.2 6.9 9.1 13.4 14.5 19.3 8.4-6.4 18.9-13.3 27.6-18.8 1.6-5.5 3.4-12.1 5.2-18z"/><path id="XMLID_269_" class="st16" d="M95.5 223.7l7.5-17.5c-1.2-.6-3.7-2-8.3-5-1.3-.9-2.8-1.5-4.3-1.9-8.5 4.8-29.1 17.4-38.4 31.7 21.2 15.7 47.5 25 76 25h.1v-1.2c-3.4-21.6-32.6-31.1-32.6-31.1z"/><path id="XMLID_270_" d="M90.5 199.3c-13.5-3.8-32.7 8.6-32.7 8.6s1.3-5.5 3.2-12.6c-8.7 5.5-19.2 12.3-27.6 18.8 5.7 6.3 12 11.9 18.8 17 9.2-14.5 29.7-27 38.3-31.8z" fill="#2c2072"/><path id="XMLID_271_" class="st18" d="M57.7 207.9s19.2-12.4 32.7-8.6c1.5.4 2.9 1 4.3 1.9 4.6 3 7.1 4.4 8.3 5l-7.5 17.5s29.2 9.6 32.6 31.1v-21.7c-.8-1.6-19.5-39.6-42.8-65.5l2.4-10.9s-.1 0-.3.1c-1.8.4-10.1 2.4-14.6 5.2-1.8 1.2-4.3 7.5-6.7 15.2-1.9 5.9-3.7 12.5-5.2 18-1.9 7.2-3.2 12.7-3.2 12.7z"/><path id="XMLID_272_" class="st20" d="M179.3 243.9h3v-2.1h-5.2v4.4c.8-.3 1.6-.7 2.4-1h-.2v-1.3z"/><path id="XMLID_275_" class="st26" d="M174.9 241.8v3.8c-.5-.6-1.1-.7-1.8-.7-1.4 0-2.5 1-2.9 2.3-.4-1.4-1.5-2.3-3.2-2.3-1.3 0-2.4.6-2.9 1.6v-1.2h-2.8V244h3v-2.1h-5.5v9.3h2.5v-3.9h2.5c-.1.3-.1.6-.1.9 0 1 .4 1.9 1.1 2.5.8-.3 1.7-.5 2.5-.8h-.3c-.7 0-1.2-.6-1.2-1.3h4.3c0 .1 0 .2.1.3.7-.2 1.4-.5 2.1-.8 0-.8.5-1.6 1.3-1.6.5 0 .9.3 1.1.7.8-.3 1.6-.7 2.4-1v-4.4h-2.2zm-9 5.4c.1-.6.6-1 1.2-1s1.1.4 1.2 1h-2.4z"/><path id="XMLID_276_" class="st26" d="M167.7 249.7c.4-.1.8-.2 1.1-.4h-.8c0 .2-.1.3-.3.4z"/></g></g></svg>