<svg id="Layer_1" xmlns="http://www.w3.org/2000/svg" width="256" height="256"><style>.st3{fill:#c08c76}.st5{fill:#d8aa91}.st6{fill:#b8927d}.st7{fill:#d6d4d4}.st11{fill:#b27d6b}.st13{fill:#a1806e}.st14{fill:#a0a0a1}.st19{fill:#334236}</style><g id="XMLID_5_"><circle id="XMLID_124_" cx="128" cy="128" r="128" fill="#b2b4b5"/><g id="XMLID_3_"><path id="XMLID_4_" d="M128 251.6V239v17-4.4z" fill="none"/><path id="XMLID_99_" d="M189.9 171.1s-.7.8-8.1-.8c2.7 1.2 5.1 2.4 7.2 3.5.2-.9.6-1.8.9-2.7z" fill="#a5a497"/><path id="XMLID_102_" class="st3" d="M128 233.4v-4.8c20.4-9.6 42.7-62.7 42.7-62.7-1.4-5.1-2.5-11.1-3.2-16.4-1 3.3-1.9 6.2-2.6 8.3-1.9 6.3-5.8 9-8.5 10.2l-.6.3c-1.5.7-3.8 2-3.8 2-.8.6-1.9 1.6-3.5 2.9-1.6 1.3-4.2 2.3-6.9 2.9l5.9 22.3C146.1 201.9 136 212 136 212l3.2-6.5c1-6.4-1.3-20.6-2.8-28.4-4.3.6-7.9.7-8.3.7V239v-5.6z"/><path id="XMLID_103_" d="M139.1 205.4l-3.2 6.5s10.1-10.1 11.5-13.6l-5.9-22.3c-1.7.4-3.5.7-5.2 1 1.5 7.8 3.8 22 2.8 28.4z" fill="#a87b67"/><path id="XMLID_104_" class="st3" d="M184 80.9c-.8 2.5 1.5 7.3 1.5 7.3l-1.9-.5.6 4.3-2.1-1.9s-.3 5.3-.8 7.9c-.3 1.6-1.3 4.5-2 6.5-.4 2.2-.7 4.2-1 5.9-.6 3.6-2 9.3-3.8 15.5 6.1 1.7 7.8-5.1 9.6-10.4 2.1-6.1 1.6-14.5.8-19.5s1.9-5.3 1.4-13.4c-.1-.9-.3-1.6-.6-2.1-.4-.5-1.2-1.1-1.7.4z"/><path id="XMLID_105_" class="st5" d="M128 93.5c.3 0 1.9-.1 4.1 1.1 0 0 2.7-4.4 5.9-6.1 0-.2 0-.3.1-.5h-10v5.5z"/><path id="XMLID_107_" class="st5" d="M159.1 87.6c-.3 0-.6 0-.9-.1.3 0 .6.1.9.1z"/><path id="XMLID_108_" class="st5" d="M145.9 69.7c6.1-2.7 15.5 0 15.5 0s-10.9-.9-13.3.8c-2.4 1.6-11.5 3.9-20.1 3.9v3.9c.7 0 12-.1 17.8-2.7 6.1-2.7 15.5 0 15.5 0s-10.9-.9-13.3.8c-2.4 1.6-11.5 3.9-20.1 3.9V86h22.2c3.3-.8 5.8-.5 7.6 0h3.9c4.9 0 9.3 1.4 10.1 5.3h5.5c.4-1.9.9-4.4.4-5.3-.8-1.4-2-6.4-2-6.4s2.7-13.5 1.8-19.6c-1-6.1-6.5-17.6-11.2-23.9-4.6-6.4-11.5-8.9-19-5.9-7.3 2.9-18.6 5.7-19.3 5.9v36.6c.8-.3 12.1-.3 18-3z"/><path id="XMLID_109_" class="st5" d="M159.1 113.7c.3 0 .5 0 .8-.1-.3.1-.6.1-.8.1z"/><path id="XMLID_110_" class="st5" d="M167.9 107.9c.7-1 1.3-2 1.7-2.9.3-.7.5-1.4.7-2.3-.2.8-.4 1.6-.7 2.3-.4.9-1 1.9-1.7 2.9z"/><path id="XMLID_111_" class="st5" d="M156.4 168l-.6.3.6-.3z"/><path id="XMLID_114_" class="st5" d="M179.3 104.5c-.4 1.2-.8 2.1-.8 2.1V98l-1.3 1.5c-.5-3.1 1.3-7.4 1.3-7.4l-1.1.7v.6H172s1.7 11.1-2 15.4c-3.7 4.3-6 6.9-14.7 6.9s-13.9 0-18.1-7.7c-4.2-7.7-6-12.1-6-12.1s-1.2-.7-3.1-.7v39.2c.4 0 6 .3 9.4-3.7 0 0 4.3-.1 6.7 1.9v-.7s3.2 1.2 4.1 1.8 1.1-1.4 1-3c0 0 1 4.2 1.9 5.6 1 1.4 1.7 3.8 1.7 3.8l-1.6-.6s1 1.6 1 1.9c0 .4-1.7 0-1.7 0v2.4s-3.6-1.4-4.9-2.6c-1.3-1.2-1 1.3-1 1.3l-3.4-1.4s-.1 2.2-1.7 1.6c-1.6-.6-3.7-.8-5-.2-1.3.6-2 1.4-6.5 1.4v33.8c.4 0 4-.1 8.3-.7 1.7-.2 3.5-.5 5.2-1 2.8-.7 5.3-1.6 6.9-2.9 1.6-1.3 2.8-2.3 3.5-2.9 0 0 3.8-7.3 3.1-11.7-.7-4.4-1.5-8.3-1.5-8.3s4.3 10.1 1.6 17c0 0 3.5-4 5.4-8.4 0 0-2.7 8.6-4.1 9.1 2.7-1.2 6.6-3.9 8.5-10.2.7-2.1 1.6-5 2.6-8.3 2.1-6.9 4.8-15.7 7.1-23.6 1.8-6.3 3.2-11.9 3.8-15.5.1-1.6.5-3.6.8-5.8zm-29.8 26c-2.4-3.5-6.5-9.8-10.4-11 0 0 6.4 1.7 10.9 9.1 4.6 7.4 7 9.7 7.7 15.7.1 0-5.4-9.7-8.2-13.8z"/><path id="XMLID_115_" class="st6" d="M160.5 158.9c-1.9 4.4-5.4 8.4-5.4 8.4 2.7-6.9-1.6-17-1.6-17s.8 3.8 1.5 8.3c.7 4.4-3.1 11.7-3.1 11.7s2.3-1.3 3.8-2c.2-.1.5-.2.6-.3 1.5-.5 4.2-9.1 4.2-9.1z"/><path id="XMLID_117_" class="st7" d="M132.6 10.1l-2.9 6.2c3.1-1.9 7.2-6.2 7.2-6.2l-1.5 6.7L139 13c1.7-1.9 7.2-1 7.2-1l-1.5 5c2.2-2.6 6.2-2.6 6.2-2.6s13.2 2.8 23 19.2c-8-6-17.5-7.7-17.5-7.7h-6.9l2.4-2.4c-2.2 0-7.7 3.4-7.7 3.4v-1.7l-5.7 2.4v-2.4l-6.2 4.2 1.9-4.2c-3.4 2.2-5.9 7.6-6.3 8.3v2.4c.7-.2 12-3 19.3-5.9 7.5-3 14.4-.5 19 5.9s10.2 17.9 11.2 23.9c1 6.1-1.8 19.6-1.8 19.6s1.2 5 2 6.4c.5.9 0 3.4-.4 5.3h.3v1.6l1.1-.7s-1.8 4.4-1.3 7.4l1.3-1.5v8.6s.3-.9.8-2.1c.7-2 1.7-4.9 2-6.5.5-2.6.8-7.9.8-7.9l2.1 1.9-.6-4.3 1.9.5s-2.3-4.8-1.5-7.3c.5-1.6 1.3-1 1.9-.5 0-2.1 3.1-12.9 2.9-14.8-.2-1.9.6-10.9-3.5-17.6-4.2-6.7-7.3-13.9-10.7-18-3.4-4.1-15.5-21.7-46.6-21.7v6.9l4.5-5z"/><path id="XMLID_118_" class="st6" d="M148.1 70.5c2.4-1.6 13.3-.8 13.3-.8s-9.4-2.7-15.5 0c-5.9 2.6-17.1 2.7-17.8 2.7v1.9c8.5 0 17.6-2.2 20-3.8z"/><path id="XMLID_119_" class="st6" d="M148.1 76.3c2.4-1.6 13.3-.8 13.3-.8s-9.4-2.7-15.5 0c-5.9 2.6-17.1 2.7-17.8 2.7v1.9c8.5.1 17.6-2.1 20-3.8z"/><path id="XMLID_120_" class="st7" d="M134.5 142.5c1.3-.6 3.5-.4 5 .2 1.6.6 1.7-1.6 1.7-1.6l3.4 1.4s-.4-2.5 1-1.3c1.3 1.2 4.9 2.6 4.9 2.6v-2.4s1.7.4 1.7 0-1-1.9-1-1.9l1.6.6s-.7-2.4-1.7-3.8-1.9-5.6-1.9-5.6c.1 1.6-.1 3.6-1 3s-4.1-1.8-4.1-1.8v.7c-2.4-2-6.7-1.9-6.7-1.9-3.4 4.1-9 3.7-9.4 3.7v9.5c4.6 0 5.2-.8 6.5-1.4z"/><path id="XMLID_121_" class="st6" d="M150 128.6c-4.6-7.4-10.9-9.1-10.9-9.1 3.8 1.2 8 7.5 10.4 11 2.8 4.1 8.3 13.8 8.3 13.8-.8-6-3.2-8.3-7.8-15.7z"/><path id="XMLID_122_" d="M128 21.3v12.1c.3-.7 2.9-6.1 6.3-8.3l-1.9 4.2 6.2-4.2v2.4l5.7-2.4v1.7s5.5-3.4 7.7-3.4l-2.4 2.4h6.9s9.5 1.7 17.5 7.7c-9.8-16.4-23-19.2-23-19.2s-4 0-6.2 2.6l1.5-5s-5.5-1-7.2 1l-3.6 3.8L137 10s-4.1 4.3-7.2 6.2l2.9-6.2-4.6 5.2v6.1z" fill="#b0b0b0"/><path id="XMLID_123_" class="st7" d="M146.9 88.1c.5-.1 1.1-.2 1.6-.2-.5 0-1.1.1-1.6.2z"/><path id="XMLID_125_" class="st7" d="M145.1 88.4l1.5-.3-1.5.3z"/><path id="XMLID_126_" class="st7" d="M149.6 87.7c.5-.1 1-.1 1.4-.1-.4 0-.9.1-1.4.1z"/><path id="XMLID_127_" class="st7" d="M158.2 87.5c-1.5-.1-3.1-.1-4.6-.1 1.5 0 3.1 0 4.6.1z"/><path id="XMLID_128_" class="st7" d="M139.5 90.4c-.3.2-.7.4-1 .6.3-.2.7-.4 1-.6z"/><path id="XMLID_129_" class="st7" d="M138.9 88h-.9c0 .1-.1.3-.1.5.4-.2.7-.4 1-.5z"/><path id="XMLID_130_" class="st7" d="M143.3 88.8c.4-.1.9-.2 1.4-.3-.5.1-.9.2-1.4.3z"/><path id="XMLID_131_" class="st7" d="M150.2 85.8h7.6c-1.8-.5-4.3-.7-7.6 0z"/><path id="XMLID_133_" class="st7" d="M140.4 89.9c.4-.2.8-.4 1.1-.5-.3.1-.7.3-1.1.5z"/><path id="XMLID_136_" d="M137.1 108.1c4.2 7.7 9.3 7.7 18.1 7.7s11-2.6 14.7-6.9c3.7-4.3 2-15.4 2-15.4h5.5v-2.2h-5.8c-.7-3.8-5.1-5.3-10.1-5.3h-33.7v2h10.9c-.3.1-.6.3-1 .5-3.2 1.8-5.9 6.1-5.9 6.1-2.2-1.2-3.8-1.1-4.1-1.1v1.8c1.9 0 3.1.7 3.1.7s2.2 4.5 6.3 12.1zm-2-14c.1-.2.3-.4.4-.6.5-.5 1-1.1 1.7-1.6.4-.3.9-.7 1.3-.9.4-.2.7-.4 1-.6.3-.2.6-.3.9-.5.4-.2.8-.4 1.1-.5.2-.1.3-.1.4-.2.1-.1.3-.1.3-.1.3-.1.7-.2 1-.3.4-.1.9-.2 1.4-.3.1 0 .2-.1.4-.1l1.5-.3h.3c.5-.1 1.1-.2 1.6-.2.4 0 .7-.1 1.1-.1.5-.1 1-.1 1.4-.1 1.5-.1 2.5-.2 2.5-.2 1.6 0 3.1 0 4.6.1.3 0 .6 0 .9.1 5.4.4 9.9 1.4 10.7 3.7 1.1 3 1.3 7.8.5 11.4-.2.8-.4 1.6-.7 2.3-.4.9-1 1.9-1.7 2.9-.2.2-.4.5-.6.7-.4.5-.8 1-1.3 1.4l-.7.7c-1.2 1.1-2.5 2-3.9 2.5-.5.2-1.1.4-1.6.4-.3 0-.5.1-.8.1H151c-5.5 0-8.5-1.8-11.3-5.4-2.8-3.6-5.5-8.6-5.5-12.6.3-.6.5-1.1.9-1.7z" fill="#907047"/><path id="XMLID_137_" d="M151.3 113.7h7.8c.3 0 .5 0 .8-.1.5-.1 1.1-.2 1.6-.4 1.3-.5 2.7-1.4 3.9-2.5.2-.2.5-.4.7-.7.5-.5.9-.9 1.3-1.4.2-.2.4-.5.6-.7.7-1 1.3-2 1.7-2.9.3-.7.5-1.4.7-2.3.8-3.6.6-8.4-.5-11.4-.8-2.3-5.4-3.3-10.7-3.7-.3 0-.6 0-.9-.1-1.5-.1-3.1-.1-4.6-.1 0 0-1 0-2.5.2-.4 0-.9.1-1.4.1-.4 0-.7.1-1.1.1-.5.1-1.1.1-1.6.2h-.3l-1.5.3c-.1 0-.3.1-.4.1-.5.1-.9.2-1.4.3-.4.1-.7.2-1 .3-.1 0-.2.1-.3.1-.1.1-.3.1-.4.2-.3.1-.7.3-1.1.5-.3.1-.6.3-.9.5-.3.2-.7.4-1 .6-.5.3-.9.6-1.3.9-.6.5-1.2 1-1.7 1.6-.2.2-.3.4-.4.6-.4.6-.6 1.1-.6 1.7 0 4 2.8 9 5.5 12.6 2.5 3.7 5.5 5.4 11 5.4z" opacity=".6" fill="#844530"/><path id="XMLID_138_" class="st11" d="M119.7 177c-1.4 7.8-3.8 21.9-2.8 28.4l3.2 6.5s-10.1-10.1-11.5-13.6l5.9-22.3c-2.8-.7-5.3-1.6-6.9-2.9-1.6-1.3-2.8-2.3-3.5-2.9 0 0-2.3-1.3-3.8-2l-.6-.3c-2.7-1.2-6.6-3.9-8.5-10.2-.7-2.1-1.6-5-2.6-8.3-.8 5.3-1.8 11.2-3.2 16.4 0 0 22.3 53.1 42.7 62.7v10.4-61.3c-.1.1-3.9 0-8.4-.6z"/><path id="XMLID_139_" d="M108.6 198.4c1.4 3.5 11.5 13.6 11.5 13.6l-3.2-6.5c-1-6.4 1.3-20.6 2.8-28.4-1.7-.2-3.5-.5-5.2-1l-5.9 22.3z" fill="#906958"/><path id="XMLID_140_" class="st11" d="M76.7 104.5c-.7-2-1.7-4.9-2-6.5-.5-2.6-.8-7.9-.8-7.9L71.8 92l.6-4.3-1.9.5s2.3-4.8 1.5-7.3c-.5-1.6-1.3-1-1.9-.5-.3.5-.5 1.2-.6 2.1-.5 8.1 2.2 8.5 1.4 13.4s-1.3 13.4.8 19.5c1.8 5.4 3.5 12.2 9.6 10.4-1.8-6.3-3.2-11.9-3.8-15.5-.1-1.6-.5-3.6-.8-5.8z"/><path id="XMLID_141_" class="st3" d="M97.8 87.5c-.3 0-.6 0-.9.1.3 0 .6-.1.9-.1z"/><path id="XMLID_142_" class="st3" d="M118.8 92c-.4-.3-.9-.7-1.3-.9.5.2.9.5 1.3.9z"/><path id="XMLID_143_" class="st3" d="M96.9 113.7c-.3 0-.5 0-.8-.1.3.1.6.1.8.1z"/><path id="XMLID_144_" class="st3" d="M84.3 91.1c.7-3.8 5.1-5.3 10.1-5.3h3.9c1.8-.5 4.3-.8 7.6 0h22.3v-5.7c-8.6 0-17.7-2.2-20.1-3.9-2.4-1.6-13.3-.8-13.3-.8s9.4-2.7 15.5 0 17.9 2.7 17.9 2.7v-3.9c-8.6 0-17.7-2.2-20.1-3.9-2.4-1.6-13.3-.8-13.3-.8s9.4-2.7 15.5 0 17.9 2.7 17.9 2.7V35.8s-11.8-2.9-19.3-5.9-14.4-.5-19 5.9-10.2 17.9-11.2 23.9c-1 6.1 1.8 19.6 1.8 19.6s-1.2 5-2 6.4c-.5.9 0 3.4.4 5.3h5.4z"/><path id="XMLID_146_" class="st3" d="M85.7 102.7c.2.8.4 1.6.7 2.3.4.9 1 1.9 1.7 2.9-.7-1-1.3-2-1.7-2.9-.3-.7-.5-1.4-.7-2.3z"/><path id="XMLID_147_" class="st3" d="M128 88h-10c0 .1.1.3.1.5 3.2 1.8 5.9 6.1 5.9 6.1 2.3-1.3 4-1.1 4.1-1.1L128 88z"/><path id="XMLID_150_" class="st3" d="M99.6 168c-1.4-.5-4.1-9.1-4.1-9.1 1.9 4.4 5.4 8.4 5.4 8.4-2.7-6.9 1.6-17 1.6-17s-.8 3.8-1.5 8.3c-.7 4.4 3.1 11.7 3.1 11.7.8.6 1.9 1.6 3.5 2.9 1.6 1.3 4.2 2.3 6.9 2.9 1.7.4 3.5.7 5.2 1 4.5.6 8.3.7 8.3.7v-33.9c-4.6 0-5.2-.8-6.5-1.4s-3.5-.4-5 .2c-1.6.6-1.7-1.6-1.7-1.6l-3.4 1.4s.4-2.5-1-1.3c-1.3 1.2-4.9 2.6-4.9 2.6v-2.4s-1.7.4-1.7 0 1-1.9 1-1.9l-1.6.6s.7-2.4 1.7-3.8 1.9-5.6 1.9-5.6c-.1 1.6.1 3.6 1 3s4.1-1.8 4.1-1.8v.7c2.4-2 6.7-1.9 6.7-1.9 3.5 4.2 9.4 3.7 9.4 3.7V95.3c-1.9 0-3.2.7-3.2.7s-1.8 4.4-6 12.1c-4.2 7.7-9.3 7.7-18.1 7.7s-11-2.6-14.7-6.9c-3.7-4.3-2-15.4-2-15.4h-5.5v-.6l-1.1-.9s1.8 4.4 1.3 7.4L77.4 98v8.6s-.3-.9-.8-2.1c.4 2.2.7 4.2 1 5.9.6 3.6 2 9.3 3.8 15.5 2.2 7.9 4.9 16.7 7.1 23.6 1 3.3 1.9 6.2 2.6 8.3 1.9 6.3 5.8 9 8.5 10.2zm6.4-39.4c4.6-7.4 10.9-9.1 10.9-9.1-3.8 1.2-8 7.5-10.4 11-2.8 4.1-8.3 13.8-8.3 13.8.8-6 3.2-8.3 7.8-15.7z"/><path id="XMLID_151_" class="st3" d="M100.2 168.2c-.2-.1-.5-.2-.6-.3.2.2.4.3.6.3z"/><path id="XMLID_152_" class="st13" d="M100.9 158.5c.7-4.4 1.5-8.3 1.5-8.3s-4.3 10.1-1.6 17c0 0-3.5-4-5.4-8.4 0 0 2.7 8.6 4.1 9.1l.6.3c1.5.7 3.8 2 3.8 2 .1 0-3.7-7.2-3-11.7z"/><path id="XMLID_153_" class="st14" d="M72 80.9c.8 2.5-1.5 7.3-1.5 7.3l1.9-.5-.6 4.3 2.1-1.9s.3 5.3.8 7.9c.3 1.6 1.3 4.5 2 6.5.4 1.2.8 2.1.8 2.1V98l1.3 1.5c.5-3.1-1.3-7.4-1.3-7.4l1.1.7v-1.6h.3c-.4-1.9-.9-4.4-.4-5.3.8-1.4 2-6.4 2-6.4S77.8 66 78.7 59.9c1-6.1 6.5-17.6 11.2-23.9 4.6-6.4 11.5-8.9 19-5.9s19.3 5.9 19.3 5.9v-2.3s-2.7-6-6.3-8.4l1.9 4.2-6.2-4.2v2.4l-5.7-2.4V27s-5.5-3.4-7.7-3.4l2.4 2.4h-6.9s-9.5 1.7-17.5 7.7c9.8-16.4 23-19.2 23-19.2s4 0 6.2 2.6l-1.5-5s5.5-1 7.2 1l3.6 3.8-1.5-6.7s4.1 4.3 7.2 6.2l-2.9-6.2 4.7 5.3V8.4C97.1 8.4 85 26 81.6 30.1c-3.4 4.2-6.5 11.3-10.7 18-4.2 6.7-3.4 15.6-3.5 17.6-.2 1.9 2.9 12.7 2.9 14.8.4-.5 1.2-1.1 1.7.4z"/><path id="XMLID_154_" class="st13" d="M128 72.4s-11.8 0-17.9-2.7c-6.1-2.7-15.5 0-15.5 0s10.9-.9 13.3.8c2.4 1.6 11.5 3.9 20.1 3.9v-2z"/><path id="XMLID_155_" class="st13" d="M128 78.3s-11.8 0-17.9-2.7c-6.1-2.7-15.5 0-15.5 0s10.9-.9 13.3.8c2.4 1.6 11.5 3.9 20.1 3.9v-2z"/><path id="XMLID_156_" class="st14" d="M128 134.5s-5.9.5-9.4-3.7c0 0-4.3-.1-6.7 1.9v-.7s-3.2 1.2-4.1 1.8-1.1-1.4-1-3c0 0-1 4.2-1.9 5.6-1 1.4-1.7 3.8-1.7 3.8l1.6-.6s-1 1.6-1 1.9c0 .4 1.7 0 1.7 0v2.4s3.6-1.4 4.9-2.6c1.3-1.2 1 1.3 1 1.3l3.4-1.4s.1 2.2 1.7 1.6c1.6-.6 3.7-.8 5-.2s2 1.4 6.5 1.4v-9.5z"/><path id="XMLID_157_" class="st13" d="M98.2 144.3s5.5-9.6 8.3-13.8c2.4-3.5 6.5-9.8 10.4-11 0 0-6.4 1.7-10.9 9.1-4.6 7.4-7 9.7-7.8 15.7z"/><path id="XMLID_158_" d="M128 21.3v-6l-4.7-5.3 2.9 6.2c-3.1-1.9-7.2-6.2-7.2-6.2l1.5 6.7-3.6-3.8c-1.7-1.9-7.2-1-7.2-1l1.5 5c-2.2-2.6-6.2-2.6-6.2-2.6s-13.2 2.8-23 19.2c8-6 17.5-7.7 17.5-7.7h6.9l-2.4-2.4c2.2 0 7.7 3.4 7.7 3.4v-1.7l5.7 2.4v-2.4l6.2 4.2-1.9-4.2c3.6 2.4 6.3 8.4 6.3 8.4V21.3z" fill="#898a8b"/><path id="XMLID_159_" class="st14" d="M111.3 88.5c.5.1.9.2 1.4.3-.5-.1-.9-.2-1.4-.3z"/><path id="XMLID_160_" class="st14" d="M117.1 88c.3.1.6.3 1 .5 0-.2 0-.3-.1-.5h-.9z"/><path id="XMLID_161_" class="st14" d="M102.5 87.4c-1.6 0-3.1 0-4.6.1 1.4-.1 3-.1 4.6-.1z"/><path id="XMLID_162_" class="st14" d="M107.5 87.8c.5.1 1.1.1 1.6.2-.5 0-1.1-.1-1.6-.2z"/><path id="XMLID_163_" class="st14" d="M98.2 85.8h7.6c-3.3-.7-5.8-.5-7.6 0z"/><path id="XMLID_164_" class="st14" d="M117.5 91c-.4-.3-.9-.5-1.3-.8.4.3.9.6 1.3.8z"/><path id="XMLID_165_" class="st14" d="M114.5 89.4c.3.1.7.3 1.1.5-.4-.2-.8-.4-1.1-.5z"/><path id="XMLID_166_" class="st14" d="M105 87.6c.4 0 .9.1 1.4.1-.5 0-1-.1-1.4-.1z"/><path id="XMLID_167_" class="st14" d="M109.4 88.1l1.5.3-1.5-.3z"/><path id="XMLID_170_" d="M128 93.5c-.1 0-1.8-.2-4.2 1.1 0 0-2.7-4.4-5.9-6.1-.3-.2-.6-.3-1-.5h11v-2.2H94.1c-4.9 0-9.3 1.4-10.1 5.3h-5.8v2.2H84s-1.7 11.1 2 15.4c3.7 4.3 6 6.9 14.7 6.9s13.9 0 18.1-7.7c4.2-7.7 6-12.1 6-12.1s1.2-.7 3.2-.7v-1.6zm-6.8 4.6c-.8 3.5-3 7.3-5.2 10.2-1 1.3-2.1 2.4-3.3 3.3-.6.4-1.3.8-2 1.1-1.6.7-3.6 1-6 1h-7.8c-.3 0-.5 0-.8-.1-2.7-.4-5.5-2.6-7.5-5.1-.2-.2-.4-.5-.6-.7-.7-1-1.3-2-1.7-2.9-.3-.7-.5-1.4-.7-2.3-.3-1.4-.5-2.9-.5-4.5 0-2.5.3-5 1-6.9.9-2.2 5.5-3.2 10.8-3.6.3 0 .6 0 .9-.1 1.5-.1 3.1-.1 4.6-.1 0 0 1 0 2.5.2.4 0 .9.1 1.4.1.4 0 .7.1 1.1.1.5.1 1.1.1 1.6.2h.3l1.5.3c.1 0 .3.1.4.1.5.1.9.2 1.4.3.4.1.7.2 1 .3.1 0 .2.1.3.1.1.1.3.1.4.2.3.1.7.3 1.1.5l.6.3c.4.2.9.5 1.3.8.5.3.9.6 1.3.9 1.5 1.1 2.7 2.5 2.7 3.8.2.9.1 1.7-.1 2.5z" fill="#785d39"/><path id="XMLID_171_" d="M118.8 92c-.4-.3-.9-.7-1.3-.9-.4-.3-.9-.5-1.3-.8l-.6-.3c-.4-.2-.8-.4-1.1-.5-.2-.1-.3-.1-.4-.2-.1-.1-.3-.1-.3-.1-.3-.1-.7-.2-1-.3-.4-.1-.9-.2-1.4-.3-.1 0-.2-.1-.4-.1l-1.5-.3h-.3c-.5-.1-1.1-.2-1.6-.2-.4 0-.7-.1-1.1-.1-.5-.1-1-.1-1.4-.1-1.5-.1-2.5-.2-2.5-.2-1.6 0-3.1 0-4.6.1-.3 0-.6 0-.9.1-5.5.2-10.1 1.2-10.9 3.5-.7 1.9-1 4.4-1 6.9 0 1.6.2 3.1.5 4.5.2.8.4 1.6.7 2.3.4.9 1 1.9 1.7 2.9.2.2.4.5.6.7 2 2.4 4.8 4.7 7.5 5.1.3 0 .5.1.8.1h7.8c2.4 0 4.3-.3 6-1 .7-.3 1.4-.7 2-1.1 1.2-.8 2.3-1.9 3.3-3.3 2.2-2.9 4.5-6.8 5.2-10.2.2-.8.3-1.6.3-2.3-.1-1.4-1.3-2.8-2.8-3.9z" opacity=".6" fill="#6d3723"/><path id="XMLID_172_" d="M188.9 173.8c-2.1-1.1-4.5-2.3-7.2-3.5-3.4-1.6-7.1-3.1-11-4.4 0 0-22.3 53.1-42.7 62.7v4.8s23.8-6.7 40.3-35.2 4.6.2-3.8 13.8c-8.4 13.7-22.8 25.4-36.6 25.4v11.9c.1.1 43.6-27.7 61-75.5z" fill="#455748"/><path id="XMLID_173_" class="st19" d="M164.6 212c8.4-13.7 20.4-42.3 3.8-13.8S128 233.4 128 233.4v4.1c13.8-.1 28.2-11.8 36.6-25.5z"/><path id="XMLID_174_" d="M188.9 173.8c-17.4 47.8-60.9 75.6-60.9 75.6v6.6c46.4 0 87-24.7 109.5-61.7-36.4-21.2-47.6-23.2-47.6-23.2-.3.9-.7 1.8-1 2.7z" fill="#cbc8b8"/><path id="XMLID_175_" d="M66.1 171.1c.3.9.6 1.8 1 2.7 2.1-1.1 4.5-2.3 7.2-3.5-7.4 1.6-8.2.8-8.2.8z" fill="#8a8a80"/><path id="XMLID_176_" class="st19" d="M91.4 212c-8.4-13.7-20.4-42.3-3.8-13.8s40.3 35.2 40.3 35.2v-4.8c-20.4-9.6-42.7-62.7-42.7-62.7-3.8 1.3-7.6 2.8-11 4.4-2.7 1.2-5.1 2.4-7.2 3.5 17.4 47.8 60.9 75.6 60.9 75.6v-11.9c-13.7-.1-28.1-11.8-36.5-25.5z"/><path id="XMLID_177_" d="M87.6 198.2c-16.6-28.5-4.6.1 3.8 13.8 8.4 13.7 22.8 25.4 36.6 25.4v-4.1c0 .1-23.8-6.6-40.4-35.1z" fill="#223025"/><path id="XMLID_178_" d="M128 249.4s-43.4-27.8-60.9-75.6c-.3-.9-.7-1.8-1-2.7 0 0-11.2 2-47.6 23.2C40.9 231.3 81.6 256 128 256v-6.6z" fill="#bcbaab"/></g></g></svg>