<svg id="Layer_1" xmlns="http://www.w3.org/2000/svg" width="256" height="256"><style>.st1{fill:none}.st2{fill:#c08c76}.st4{fill:#d8aa91}.st5{fill:#b8927d}.st6{fill:#d6d4d4}.st9{fill:#b27d6b}.st11{fill:#a1806e}.st12{fill:#a0a0a1}.st15{fill:#a9a391}.st16{fill:#2f334f}.st18{fill:#625f58}.st19{fill:#726e67}.st20{fill:#20233c}.st22{fill:#4b5068}.st24{fill:#40455a}.st25{fill:#5d647f}.st26{fill:#956d7f}.st27{fill:#f7ec27}.st28{fill:#96554c}.st29{fill:#4b9352}.st30{fill:#ccc}.st32{fill:#b5a96d}.st33{fill:#e3d186}</style><g id="XMLID_5_"><circle id="XMLID_141_" cx="128" cy="128.5" r="128" fill="#b2b4b5"/><g id="XMLID_3_"><path id="XMLID_4_" class="st1" d="M128 239.5l-.1 17v-17z"/><path id="XMLID_185_" class="st1" d="M169 158.8c.3 1.5.6 3 1 4.4l-1-4.4z"/><path id="XMLID_188_" class="st2" d="M156.5 168.5c-.2.1-.4.2-.7.3-1.5.7-3.8 2-3.8 2-.8.6-1.9 1.6-3.5 2.9-1.6 1.3-4.2 2.3-6.9 2.9l3.8 14.3c13.6-9.2 22.8-18.8 25.2-21.5-.1-2.2-.3-4.2-.5-6.1v-.1c-.3-1.4-.7-2.9-1-4.4v-.1c-.6-2.9-1.1-5.9-1.5-8.7-1 3.3-1.9 6.2-2.6 8.3-2 6.3-5.9 9-8.5 10.2z"/><path id="XMLID_189_" class="st2" d="M136.3 177.5c-4.3.6-7.9.7-8.3.7v22.6c3.8-1.8 7.5-3.8 10.9-5.8-.6-6.1-1.7-12.9-2.6-17.5z"/><path id="XMLID_190_" d="M145.3 190.9l-3.8-14.3c-1.7.4-3.5.7-5.2 1 .8 4.6 2 11.3 2.6 17.5 2.2-1.5 4.4-2.8 6.4-4.2z" fill="#a87b67"/><path id="XMLID_191_" class="st2" d="M184 81.4c-.8 2.5 1.5 7.3 1.5 7.3l-1.9-.5.6 4.3-2.1-1.9s-.3 5.3-.8 7.9c-.3 1.6-1.3 4.5-2 6.5-.4 2.2-.7 4.2-1 5.9-.6 3.6-2 9.3-3.8 15.5 6.1 1.7 7.8-5.1 9.6-10.4 2.1-6.1 1.6-14.5.8-19.5s1.9-5.3 1.4-13.4c-.1-.9-.3-1.6-.6-2.1-.4-.5-1.1-1.1-1.7.4z"/><path id="XMLID_192_" class="st4" d="M131.1 72.8H128v.1c.2 0 1.4 0 3.1-.1z"/><path id="XMLID_193_" class="st4" d="M167.9 108.4c.7-1 1.3-2 1.7-2.9.3-.7.5-1.4.7-2.3-.2.8-.4 1.6-.7 2.3-.4.9-1 1.9-1.7 2.9z"/><path id="XMLID_195_" class="st4" d="M128 94c.3 0 1.9-.1 4.1 1.1 0 0 2.7-4.4 5.9-6.1 0-.2 0-.3.1-.5h-10V94z"/><path id="XMLID_196_" class="st4" d="M159.1 114.2c.3 0 .5 0 .8-.1-.3.1-.6.1-.8.1z"/><path id="XMLID_197_" class="st4" d="M138.5 91.5c-.5.3-.9.6-1.3.9.4-.3.9-.6 1.3-.9z"/><path id="XMLID_198_" class="st4" d="M128 80.7v5.7h22.2c3.3-.8 5.8-.5 7.6 0h3.9c4.9 0 9.3 1.4 10.1 5.3h5.5c.4-1.9.9-4.4.4-5.3-.8-1.4-2-6.4-2-6.4-.5.1-.9.2-1.4.3-10.1 1.5-13 0-24.7-3.4-.3-.1-.5-.2-.8-.2-.3.1-.5.2-.7.3-2.4 1.5-11.5 3.7-20.1 3.7z"/><path id="XMLID_199_" class="st4" d="M128 74.9v3.9c.7 0 12-.1 17.8-2.7.2-.1.4-.2.6-.2-3.3-1-5.4-1.6-7.2-2.1-3.3.6-7.3 1.1-11.2 1.1z"/><path id="XMLID_201_" class="st4" d="M156.5 168.5l-.6.3c.1-.1.3-.2.6-.3z"/><path id="XMLID_204_" class="st4" d="M179.4 105c-.4 1.2-.8 2.1-.8 2.1v-8.6l-1.3 1.5c-.5-3.1 1.3-7.4 1.3-7.4l-1.1.7v.6H172s1.7 11.1-2 15.4c-3.7 4.3-6 6.9-14.7 6.9s-13.9 0-18.1-7.7c-4.2-7.7-6-12.1-6-12.1s-1.2-.7-3.1-.7V135c.4 0 6 .3 9.4-3.7 0 0 4.3-.1 6.7 1.9v-.7s3.2 1.2 4.1 1.8 1.1-1.4 1-3c0 0 1 4.2 1.9 5.6 1 1.4 1.7 3.8 1.7 3.8l-1.6-.6s1 1.6 1 1.9c0 .4-1.7 0-1.7 0v2.4s-3.6-1.4-4.9-2.6c-1.3-1.2-1 1.3-1 1.3l-3.4-1.4s-.1 2.2-1.7 1.6c-1.6-.6-3.7-.8-5-.2-1.3.6-2 1.4-6.5 1.4v33.8c.4 0 4-.1 8.3-.7 1.7-.2 3.5-.5 5.2-1 2.8-.7 5.3-1.6 6.9-2.9 1.6-1.3 2.8-2.3 3.5-2.9 0 0 3.8-7.3 3.1-11.7-.7-4.4-1.5-8.3-1.5-8.3s4.3 10.1 1.6 17c0 0 3.5-4 5.4-8.4 0 0-2.7 8.6-4.1 9.1 2.7-1.2 6.6-3.9 8.5-10.2.7-2.1 1.6-5 2.6-8.3 2.1-6.9 4.8-15.7 7.1-23.6 1.8-6.3 3.2-11.9 3.8-15.5.1-1.7.5-3.7.9-5.9zm-29.9 26c-2.4-3.5-6.5-9.8-10.4-11 0 0 6.4 1.7 10.9 9.1 4.6 7.4 7 9.7 7.7 15.7.1 0-5.4-9.7-8.2-13.8z"/><path id="XMLID_205_" class="st5" d="M155.8 168.7c.2-.1.5-.2.6-.3 1.4-.5 4.1-9.1 4.1-9.1-1.9 4.4-5.4 8.4-5.4 8.4 2.7-6.9-1.6-17-1.6-17s.8 3.8 1.5 8.3c.7 4.4-3.1 11.7-3.1 11.7.1 0 2.4-1.3 3.9-2z"/><path id="XMLID_206_" class="st6" d="M175.7 79.8c0 .1 0 .1 0 0 0 0 1.2 5 2 6.5.5.9 0 3.4-.4 5.3h.3v1.6l1.1-.7s-1.8 4.4-1.3 7.4l1.3-1.5v8.6s.3-.9.8-2.1c.7-2 1.7-4.9 2-6.5.5-2.6.8-7.9.8-7.9l2.1 1.9-.6-4.3 1.9.5s-2.3-4.8-1.5-7.3c.5-1.6 1.3-1 1.9-.5 0-1.4 1.5-7.1 2.4-11.1-1.7 2.7-5.7 8.5-12.8 10.1z"/><path id="XMLID_207_" class="st5" d="M128 72.9v1.9c3.9 0 7.8-.5 11.2-1.1-2.5-.6-4.5-.8-8.2-.9-1.6.1-2.8.1-3 .1z"/><path id="XMLID_208_" class="st5" d="M128 78.8v1.9c8.6 0 17.7-2.2 20.1-3.9.2-.1.4-.2.7-.3-.8-.2-1.6-.5-2.3-.7-.2.1-.4.1-.6.2-5.9 2.7-17.2 2.8-17.9 2.8z"/><path id="XMLID_209_" class="st6" d="M134.5 143c1.3-.6 3.5-.4 5 .2 1.6.6 1.7-1.6 1.7-1.6l3.4 1.4s-.4-2.5 1-1.3c1.3 1.2 4.9 2.6 4.9 2.6V142s1.7.4 1.7 0-1-1.9-1-1.9l1.6.6s-.7-2.4-1.7-3.8-1.9-5.6-1.9-5.6c.1 1.6-.1 3.6-1 3s-4.1-1.8-4.1-1.8v.7c-2.4-2-6.7-1.9-6.7-1.9-3.4 4.1-9 3.7-9.4 3.7v9.5c4.6-.1 5.2-.9 6.5-1.5z"/><path id="XMLID_210_" class="st5" d="M150 129.1c-4.6-7.4-10.9-9.1-10.9-9.1 3.8 1.2 8 7.5 10.4 11 2.8 4.1 8.3 13.8 8.3 13.8-.8-6-3.2-8.3-7.8-15.7z"/><path id="XMLID_211_" class="st6" d="M150.2 86.3h7.6c-1.8-.5-4.3-.7-7.6 0z"/><path id="XMLID_212_" class="st6" d="M146.9 88.6c.5-.1 1.1-.2 1.6-.2-.5 0-1.1.1-1.6.2z"/><path id="XMLID_213_" class="st6" d="M149.6 88.2c.5-.1 1-.1 1.4-.1-.4 0-.9.1-1.4.1z"/><path id="XMLID_214_" class="st6" d="M140.4 90.4c.4-.2.8-.4 1.1-.5-.3.1-.7.3-1.1.5z"/><path id="XMLID_215_" class="st6" d="M143.3 89.3c.4-.1.9-.2 1.4-.3-.5.1-.9.2-1.4.3z"/><path id="XMLID_216_" class="st6" d="M145.1 88.9l1.5-.3-1.5.3z"/><path id="XMLID_218_" class="st6" d="M138.9 88.5h-.9c0 .1-.1.3-.1.5.4-.2.7-.4 1-.5z"/><path id="XMLID_219_" class="st6" d="M153.6 87.9h1.4-1.4z"/><path id="XMLID_220_" class="st6" d="M155 87.9c.9 0 1.9 0 2.8.1-1 0-1.9-.1-2.8-.1z"/><path id="XMLID_224_" d="M137.2 108.6c4.2 7.7 9.3 7.7 18.1 7.7s11-2.6 14.7-6.9c3.7-4.3 2-15.4 2-15.4h5.5v-2.2h-5.8c-.7-3.8-5.1-5.3-10.1-5.3h-33.7v2.2h10.9c-.3.1-.6.3-1 .5-3.2 1.8-5.9 6.1-5.9 6.1-2.2-1.2-3.8-1.1-4.1-1.1V96c1.9 0 3.1.7 3.1.7s2.1 4.3 6.3 11.9zm0-16.1c.4-.3.9-.7 1.3-.9.4-.3.9-.5 1.3-.8l.6-.3c.4-.2.8-.4 1.1-.5.2-.1.3-.1.4-.2.1-.1.3-.1.3-.1.3-.1.7-.2 1-.3.4-.1.9-.2 1.4-.3.1 0 .2-.1.4-.1l1.5-.3h.3c.5-.1 1.1-.2 1.6-.2.4 0 .7-.1 1.1-.1.5-.1 1-.1 1.4-.1 1.5-.1 2.5-.2 2.5-.2h1.4c.9 0 1.9 0 2.8.1 5.9.3 11.2 1.3 12.1 3.8.7 1.9 1 4.4 1 6.9 0 1.6-.2 3.1-.5 4.5-.2.8-.4 1.6-.7 2.3-.4.9-1 1.9-1.7 2.9-.2.2-.4.5-.6.7-2 2.4-4.8 4.7-7.5 5.1-.3 0-.5.1-.8.1h-7.8c-3.1 0-5.4-.6-7.3-1.7-.2-.1-.4-.3-.6-.4-1.2-.8-2.3-1.9-3.3-3.3-2.2-2.9-4.5-6.8-5.2-10.2-.2-.8-.3-1.6-.3-2.3.1-1.6 1.3-3 2.8-4.1z" fill="#907047"/><path id="XMLID_225_" d="M140 108.9c1 1.3 2.1 2.4 3.3 3.3.2.1.4.3.6.4 1.9 1.1 4.2 1.7 7.3 1.7h7.8c.3 0 .5 0 .8-.1 2.7-.4 5.5-2.6 7.5-5.1.2-.2.4-.5.6-.7.7-1 1.3-2 1.7-2.9.3-.7.5-1.4.7-2.3.3-1.4.5-2.9.5-4.5 0-2.5-.3-5-1-6.9-.9-2.5-6.1-3.5-12.1-3.8-.9 0-1.8-.1-2.8-.1h-1.4s-1 0-2.5.2c-.4 0-.9.1-1.4.1-.4 0-.7.1-1.1.1-.5.1-1.1.1-1.6.2h-.3l-1.5.3c-.1 0-.3.1-.4.1-.5.1-.9.2-1.4.3-.4.1-.7.2-1 .3-.1 0-.2.1-.3.1-.1.1-.3.1-.4.2-.3.1-.7.3-1.1.5l-.6.3c-.4.2-.9.5-1.3.8-.5.3-.9.6-1.3.9-1.5 1.1-2.7 2.5-2.7 3.8 0 .7.1 1.5.3 2.3.7 3.7 2.9 7.5 5.1 10.5z" opacity=".6" fill="#340d00"/><path id="XMLID_226_" class="st9" d="M110.7 190.9l3.8-14.4c-2.8-.7-5.3-1.6-6.9-2.9-1.6-1.3-2.8-2.3-3.5-2.9 0 0-2.3-1.3-3.8-2l-.6-.3c-2.7-1.2-6.6-3.9-8.5-10.2-.7-2.1-1.6-5-2.6-8.3-.6 4.3-1.4 9.1-2.5 13.4-.3 1.8-.4 3.8-.5 6 2.3 2.8 11.5 12.4 25.1 21.6z"/><path id="XMLID_227_" class="st9" d="M128 231.7v-53.5s-3.8-.1-8.3-.7c-.8 4.6-2 11.3-2.6 17.5 3.4 2.1 7.1 4 10.9 5.8v30.9l-.1 7.8v-7.8z"/><path id="XMLID_228_" d="M110.7 190.9c2 1.4 4.2 2.7 6.4 4.1.6-6.1 1.7-12.9 2.6-17.5-1.7-.2-3.5-.5-5.2-1l-3.8 14.4z" fill="#906958"/><path id="XMLID_229_" class="st9" d="M76.7 105c-.7-2-1.7-4.9-2-6.5-.5-2.6-.8-7.9-.8-7.9l-2.1 1.9.6-4.3-1.9.5s2.3-4.8 1.5-7.3c-.5-1.6-1.3-1-1.9-.5-.3.5-.5 1.2-.6 2.1-.5 8.1 2.2 8.5 1.4 13.4s-1.3 13.4.8 19.5c1.8 5.4 3.5 12.2 9.6 10.4-1.8-6.3-3.2-11.9-3.8-15.5-.1-1.6-.5-3.6-.8-5.8z"/><path id="XMLID_230_" class="st2" d="M97.8 88c-.3 0-.6 0-.9.1.3 0 .6-.1.9-.1z"/><path id="XMLID_231_" class="st2" d="M118.9 92.5c-.4-.3-.9-.7-1.3-.9.4.2.8.5 1.3.9z"/><path id="XMLID_232_" class="st2" d="M85.7 103.2c.2.8.4 1.6.7 2.3.4.9 1 1.9 1.7 2.9-.7-1-1.3-2-1.7-2.9-.3-.7-.5-1.4-.7-2.3z"/><path id="XMLID_233_" class="st2" d="M128 78.8v-3.9c-3.9 0-7.8-.5-11.3-1.1-1.8.5-4 1.1-7.2 2.1.2.1.4.1.6.2 6.1 2.7 17.9 2.7 17.9 2.7z"/><path id="XMLID_234_" class="st2" d="M97 114.2c-.3 0-.5 0-.8-.1.2.1.5.1.8.1z"/><path id="XMLID_235_" class="st2" d="M84.3 91.6c.7-3.8 5.1-5.3 10.1-5.3h3.9c1.8-.5 4.3-.8 7.6 0h22.3v-5.7c-8.6 0-17.7-2.2-20.1-3.9-.2-.1-.4-.2-.7-.3-.2.1-.5.1-.8.2C94.8 80 91.9 81.5 81.9 80l-1.5-.3s-1.2 5-2 6.4c-.5.9 0 3.4.4 5.3h5.5z"/><path id="XMLID_236_" class="st2" d="M128 88.5h-10c0 .1.1.3.1.5 3.2 1.8 5.9 6.1 5.9 6.1 2.3-1.3 4-1.1 4.1-1.1l-.1-5.5z"/><path id="XMLID_237_" class="st2" d="M128 72.9v-.1h-3.1c1.9.1 3.1.1 3.1.1z"/><path id="XMLID_240_" class="st2" d="M99.6 168.5c-1.4-.5-4.1-9.1-4.1-9.1 1.9 4.4 5.4 8.4 5.4 8.4-2.7-6.9 1.6-17 1.6-17s-.8 3.8-1.5 8.3c-.7 4.4 3.1 11.7 3.1 11.7.8.6 1.9 1.6 3.5 2.9 1.6 1.3 4.2 2.3 6.9 2.9 1.7.4 3.5.7 5.2 1 4.5.6 8.3.7 8.3.7v-33.8c-4.6 0-5.2-.8-6.5-1.4-1.3-.6-3.5-.4-5 .2-1.6.6-1.7-1.6-1.7-1.6l-3.4 1.4s.4-2.5-1-1.3c-1.3 1.2-4.9 2.6-4.9 2.6V142s-1.7.4-1.7 0 1-1.9 1-1.9l-1.6.6s.7-2.4 1.7-3.8 1.9-5.6 1.9-5.6c-.1 1.6.1 3.6 1 3s4.1-1.8 4.1-1.8v.7c2.4-2 6.7-1.9 6.7-1.9 3.5 4.2 9.4 3.7 9.4 3.7V95.8c-1.9 0-3.2.7-3.2.7s-1.8 4.4-6 12.1c-4.2 7.7-9.3 7.7-18.1 7.7s-11-2.6-14.7-6.9c-3.7-4.3-2-15.4-2-15.4h-5.5v-.6l-1.1-.7s1.8 4.4 1.3 7.4l-1.3-1.5v8.6s-.3-.9-.8-2.1c.4 2.2.7 4.2 1 5.9.6 3.6 2 9.3 3.8 15.5 2.2 7.9 4.9 16.7 7.1 23.6 1 3.3 1.9 6.2 2.6 8.3 1.9 6.2 5.8 8.9 8.5 10.1zm6.4-39.4c4.6-7.4 10.9-9.1 10.9-9.1-3.8 1.2-8 7.5-10.4 11-2.8 4.1-8.3 13.8-8.3 13.8.8-6 3.2-8.3 7.8-15.7z"/><path id="XMLID_241_" class="st2" d="M100.2 168.7c-.2-.1-.5-.2-.6-.3.2.2.4.3.6.3z"/><path id="XMLID_242_" class="st11" d="M100.9 159c.7-4.4 1.5-8.3 1.5-8.3s-4.3 10.1-1.6 17c0 0-3.5-4-5.4-8.4 0 0 2.7 8.6 4.1 9.1l.6.3c1.5.7 3.8 2 3.8 2 .2 0-3.7-7.2-3-11.7z"/><path id="XMLID_243_" class="st12" d="M72 81.4c.8 2.5-1.5 7.3-1.5 7.3l1.9-.5-.6 4.3 2.1-1.9s.3 5.3.8 7.9c.3 1.6 1.3 4.5 2 6.5.4 1.2.8 2.1.8 2.1v-8.6l1.3 1.5c.5-3.1-1.3-7.4-1.3-7.4l1.1.7v-1.6h.3c-.4-1.9-.9-4.4-.4-5.3.8-1.4 2-6.4 2-6.4-7.1-1.7-11.2-7.7-12.5-10.1.9 4 2.4 9.7 2.4 11.2.3-.6 1.1-1.2 1.6.3z"/><path id="XMLID_244_" class="st11" d="M128 74.9V73s-1.2 0-3.1-.1c-3.7.1-5.7.3-8.2.9 3.5.6 7.5 1.1 11.3 1.1z"/><path id="XMLID_245_" class="st11" d="M128 80.7v-1.9s-11.8 0-17.9-2.7c-.2-.1-.4-.2-.6-.2-.7.2-1.5.4-2.3.7.3.1.5.2.7.3 2.4 1.6 11.5 3.8 20.1 3.8z"/><path id="XMLID_246_" class="st12" d="M128 135s-5.9.5-9.4-3.7c0 0-4.3-.1-6.7 1.9v-.7s-3.2 1.2-4.1 1.8-1.1-1.4-1-3c0 0-1 4.2-1.9 5.6-1 1.4-1.7 3.8-1.7 3.8l1.6-.6s-1 1.6-1 1.9c0 .4 1.7 0 1.7 0v2.4s3.6-1.4 4.9-2.6c1.3-1.2 1 1.3 1 1.3l3.4-1.4s.1 2.2 1.7 1.6c1.6-.6 3.7-.8 5-.2 1.3.6 2 1.4 6.5 1.4V135z"/><path id="XMLID_247_" class="st11" d="M98.3 144.8s5.5-9.6 8.3-13.8c2.4-3.5 6.5-9.8 10.4-11 0 0-6.4 1.7-10.9 9.1-4.7 7.4-7.1 9.7-7.8 15.7z"/><path id="XMLID_248_" class="st12" d="M117.1 88.5c.3.1.6.3 1 .5 0-.2 0-.3-.1-.5h-.9z"/><path id="XMLID_249_" class="st12" d="M98.2 86.3h7.6c-3.3-.7-5.8-.5-7.6 0z"/><path id="XMLID_250_" class="st12" d="M105 88.1c.4 0 .9.1 1.4.1-.5 0-1-.1-1.4-.1z"/><path id="XMLID_251_" class="st12" d="M107.5 88.3c.5.1 1.1.1 1.6.2-.5 0-1.1-.1-1.6-.2z"/><path id="XMLID_252_" class="st12" d="M114.5 89.9c.3.1.7.3 1.1.5-.4-.2-.8-.4-1.1-.5z"/><path id="XMLID_253_" class="st12" d="M102.5 87.9c-1.6 0-3.1 0-4.6.1 1.4-.1 3-.1 4.6-.1z"/><path id="XMLID_254_" class="st12" d="M109.4 88.6l1.5.3-1.5-.3z"/><path id="XMLID_255_" class="st12" d="M111.3 89c.5.1.9.2 1.4.3-.5-.1-.9-.2-1.4-.3z"/><path id="XMLID_256_" class="st12" d="M117.5 91.5c-.4-.3-.9-.5-1.3-.8.4.3.9.6 1.3.8z"/><path id="XMLID_259_" d="M128 94c-.1 0-1.8-.2-4.2 1.1 0 0-2.7-4.4-5.9-6.1-.3-.2-.6-.3-1-.5h11v-2.2H94.1c-4.9 0-9.3 1.4-10.1 5.3h-5.8v2.2H84s-1.7 11.1 2 15.4c3.7 4.3 6 6.9 14.7 6.9s13.9 0 18.1-7.7c4.2-7.7 6-12.1 6-12.1s1.2-.7 3.2-.7V94zm-7.8 7.9c-.1.3-.2.6-.4.8-.3.5-.5 1.1-.8 1.6-.1.3-.3.5-.5.8-.8 1.3-1.6 2.6-2.5 3.7-2.8 3.6-5.7 5.4-11.3 5.4h-7.8c-.3 0-.5 0-.8-.1-.5-.1-1.1-.2-1.6-.4-2.2-.8-4.3-2.7-5.8-4.6-.2-.2-.4-.5-.6-.7-.7-1-1.3-2-1.7-2.9-.3-.7-.5-1.4-.7-2.3-.8-3.6-.6-8.4.5-11.4.8-2.3 5.4-3.3 10.7-3.7.3 0 .6 0 .9-.1 1.5-.1 3.1-.1 4.6-.1 0 0 1 0 2.5.2.4 0 .9.1 1.4.1.4 0 .7.1 1.1.1.5.1 1.1.1 1.6.2h.3l1.5.3c.1 0 .3.1.4.1.5.1.9.2 1.4.3.4.1.7.2 1 .3.1 0 .2.1.3.1.1.1.3.1.4.2.3.1.7.3 1.1.5l.6.3c.4.2.9.5 1.3.8.5.3.9.6 1.3.9.6.5 1.2 1 1.7 1.6.2.2.3.4.4.6.4.6.6 1.1.6 1.7.2 1.8-.3 3.8-1.1 5.7z" fill="#785d39"/><path id="XMLID_260_" d="M120.5 94c-.5-.5-1-1.1-1.7-1.6-.4-.3-.9-.7-1.3-.9-.4-.3-.9-.5-1.3-.8l-.6-.3c-.4-.2-.8-.4-1.1-.5-.2-.1-.3-.1-.4-.2-.1-.1-.3-.1-.3-.1-.3-.1-.7-.2-1-.3-.4-.1-.9-.2-1.4-.3-.1 0-.2-.1-.4-.1l-1.5-.3h-.3c-.5-.1-1.1-.2-1.6-.2-.4 0-.7-.1-1.1-.1-.5-.1-1-.1-1.4-.1-1.5-.1-2.5-.2-2.5-.2-1.6 0-3.1 0-4.6.1-.3 0-.6 0-.9.1-5.4.4-9.9 1.4-10.7 3.7-1.1 3-1.3 7.8-.5 11.4.2.8.4 1.6.7 2.3.4.9 1 1.9 1.7 2.9.2.2.4.5.6.7 1.6 2 3.7 3.8 5.8 4.6.5.2 1.1.4 1.6.4.3 0 .5.1.8.1h7.8c5.5 0 8.5-1.8 11.3-5.4.9-1.1 1.7-2.4 2.5-3.7.2-.3.3-.5.5-.8.3-.5.6-1.1.8-1.6.1-.3.3-.5.4-.8.8-1.9 1.4-3.9 1.4-5.6 0-.6-.2-1.1-.6-1.7-.4-.3-.5-.5-.7-.7z" opacity=".6" fill="#250000"/><path id="XMLID_261_" class="st15" d="M144.9 196.8l-16.9 4.6v30.3c8.8-7.6 17.4-16.3 25-24.5-4.3-6.6-8.1-10.4-8.1-10.4z"/><path id="XMLID_262_" class="st16" d="M163.3 229.6c-2.6-9.1-6.7-16.8-10.3-22.4-7.5 8.1-16.2 16.8-25 24.5v24.8c10.5 0 20.8-1.3 30.6-3.7 1.7-7.5 3.4-15.3 4.9-23.1l-.2-.1z"/><path id="XMLID_263_" d="M145.3 190.9c-2 1.4-4.2 2.7-6.4 4.1-3.4 2.1-7.1 4-10.9 5.8v.6l16.9-4.6s3.7 3.8 8.1 10.4c3.7 5.6 7.7 13.2 10.3 22.4l.2.1c4.4-22.4 7.7-44.9 7-60.3-2.4 2.7-11.6 12.3-25.2 21.5z" fill="#c8c0aa"/><path id="XMLID_264_" class="st18" d="M183.1 169.8l22.2 52.2-19.8 9.6 11.3 4.9c18.8-12 34.3-28.9 44.7-48.8-5.9-1.3-13.6-3.2-19.2-5.4-9-3.4-24.9-8.2-39.2-12.5z"/><path id="XMLID_265_" class="st19" d="M205.3 222l-22.2-52.2-1-2.5c-6.9-5.4-13-8.6-13-8.6v.1l1 4.4v.1c.3 1.9.4 3.9.5 6.1.7 15.4-2.6 37.8-7 60.3-1.5 7.8-3.2 15.6-4.9 23.1 13.7-3.4 26.6-8.9 38.2-16.3l-11.3-4.9 19.7-9.6z"/><path id="XMLID_266_" class="st19" d="M111.1 196.8s-3.7 3.8-8.1 10.4c7.5 8.1 16.2 16.8 25 24.5v-30.3l-16.9-4.6z"/><path id="XMLID_267_" class="st20" d="M128 231.7c-8.8-7.6-17.4-16.3-25-24.5-3.7 5.6-7.7 13.2-10.3 22.4l-.2.1c1.5 7.8 3.2 15.6 4.9 23.1 9.8 2.4 20 3.7 30.6 3.7v-24.8z"/><path id="XMLID_268_" class="st15" d="M111.1 196.8l16.9 4.6v-.6c-3.8-1.8-7.5-3.8-10.9-5.8-2.2-1.3-4.4-2.7-6.4-4.1-13.6-9.2-22.8-18.8-25.2-21.5-.7 15.4 2.6 37.8 7 60.3l.2-.1c2.6-9.1 6.7-16.8 10.3-22.4 4.3-6.6 8.1-10.4 8.1-10.4z"/><path id="XMLID_269_" d="M50.7 222l22.2-52.2c-14.3 4.4-30.2 9.2-39.2 12.6-5.7 2.2-13.3 4.1-19.2 5.4 10.4 19.9 25.9 36.7 44.7 48.8l11.3-4.9-19.8-9.7z" fill="#5c5953"/><path id="XMLID_270_" class="st18" d="M85.5 169.4c.1-2.1.3-4.1.5-6v-.1l1-4.6s-6.1 3.1-13 8.6l-1 2.5L50.7 222l19.8 9.6-11.3 4.9c11.6 7.4 24.5 13 38.2 16.3-1.7-7.5-3.4-15.3-4.9-23.1-4.4-22.4-7.7-44.9-7-60.3z"/><path id="XMLID_271_" class="st22" d="M150.3 6.2c23.3 12.8 32.6 50 33.9 56 1.2 1.3 2.3 2.7 3.2 4.2s1.9.1 1.3 2.4c0 0 4-7.6-2.2-28.6-8.1-27.5-31.4-33.4-37-34.5.8.3.8.5.8.5z"/><path id="XMLID_274_" class="st16" d="M128 15.8v11.3h17.7v4.1H128v12.5s39.7.5 56.2 18.4c-1.4-5.9-10.7-43.2-33.9-56 0 0 0-.2-.7-.5-1.5-.7-6.2-2.1-21.6-4v14.2zm4.4 24.5l-1.4-2.8h-1.4v2.8h-.9v-6.5h2.8c.3 0 .6.1.9.2.3.2.5.4.6.7.1.3.2.6.2 1s-.1.7-.2 1c-.1.3-.3.5-.6.7-.1.1-.3.1-.4.2l1.5 2.8h-1.1zm5.8 0l-.5-1.4h-2.6l-.5 1.4h-1l2.4-6.5h.8l2.4 6.5h-1zm6.4 0h-.8l-3.1-4.8v4.8h-.9v-6.5h.8l3.1 4.8v-4.8h.9v6.5zm9.2-18.2c.3.3.5.4.8.7-1.7 1.9-2.6 2.9-4.4 4.9-.3-.3-.4-.4-.7-.6 1.8-2 2.6-3 4.3-5zm-2.6 6.4c1.8-1.9 2.7-2.8 4.5-4.7l.8.8c-1.9 1.8-2.8 2.8-4.6 4.6-.3-.3-.5-.4-.7-.7zm-7.6-5.6c-.3-.2-.5-.3-.9-.5.1-.6.2-1 .2-1.5-.9-.5-1.6-.8-2.5-1.2-.3.3-.6.7-1 1.1-.4-.1-.6-.2-.9-.4 1.8-2.1 2.8-3.1 4.9-5 .3.2.5.2.8.4-.1 2.9-.2 4.3-.6 7.1zm-11-10.6c.5.1.7.1 1.1.2.2 2.1.2 3.2.2 5.3 1-1.9 1.5-2.8 2.7-4.6.3.1.4.1.7.2.1 2.1.1 3.2 0 5.3 1.1-1.8 1.7-2.7 2.9-4.4.4.2.6.2 1.1.4-1.7 2.2-2.4 3.3-3.9 5.5-.4-.1-.5-.2-.9-.3.1-1.9.1-2.8 0-4.7-1 1.6-1.5 2.4-2.4 4.1-.4-.1-.6-.1-.9-.2-.1-2.8-.2-4.1-.6-6.8zm14.6 12.9c.2-1.2.3-1.9.4-3.1-.4-.3-.8-.5-1.3-.8-.4.7-.9 1.4-1.4 2.4-.3-.2-.5-.3-.8-.5 1.3-2.3 2-3.4 3.3-5.7.3.2.5.3.8.5.7.4 1.2.7 2 1.3.3.2.6.5.7.8.2.3.2.6.2.9 0 .3-.2.6-.4.9-.2.3-.5.5-.8.7-.3.1-.6.2-.9.1-.2 0-.3-.1-.5-.1-.1 1.2-.2 1.9-.4 3.2-.4-.2-.6-.3-.9-.6z"/><path id="XMLID_282_" class="st16" d="M135.4 38h2.1l-1.1-2.9z"/><path id="XMLID_283_" class="st16" d="M132.1 36.4c.1-.2.2-.4.2-.7 0-.3-.1-.6-.2-.7-.1-.2-.3-.3-.5-.3h-1.9v2h1.9c.2 0 .3-.1.5-.3z"/><path id="XMLID_284_" class="st16" d="M141 19.1c.7.3 1.3.6 2 .9.1-1 .2-1.9.2-3.2-.9.9-1.5 1.6-2.2 2.3z"/><path id="XMLID_285_" class="st16" d="M149.2 21.8c.2-.1.4-.2.6-.5.2-.2.3-.5.2-.7 0-.2-.1-.4-.3-.6-.7-.5-1.2-.8-1.9-1.2-.4.6-.7 1.2-1.1 1.7.6.4 1.1.7 1.8 1.1.2.2.4.3.7.2z"/><path id="XMLID_286_" d="M149.6 73.9c9.1 4.2 26.2 8.2 32.9-.5 3.8-4.3 5-7 5-7.1-.9-1.5-2-2.9-3.2-4.2C167.7 44.3 128 43.8 128 43.8v26.1s12.4-.2 21.6 4z" fill="#373b59"/><path id="XMLID_287_" class="st22" d="M187.5 66.3s-1.2 2.7-5 7.1c-6.7 8.8-23.8 4.7-32.9.5-9.1-4.2-21.5-4.1-21.5-4.1v2.9h3.1c3.7.1 5.7.3 8.2.9 1.8.5 4 1.1 7.2 2.1.7.2 1.5.4 2.3.7.3.1.5.1.8.2 11.8 3.4 14.7 4.9 24.7 3.4.5-.1 1-.2 1.4-.3 7.1-1.7 11.1-7.5 12.5-10 .4-.7.6-1.1.6-1.1.5-2.2-1.4-2.3-1.4-2.3z"/><path id="XMLID_288_" class="st24" d="M68.6 66.3c.9-1.5 2-2.9 3.2-4.2 1.4-5.9 10.7-43.2 33.9-56 0 0 0-.2.7-.5-5.6 1-29 6.9-37 34.5-6.1 21-2.2 28.6-2.2 28.6-.6-2.3 1.4-2.4 1.4-2.4z"/><path id="XMLID_289_" class="st20" d="M111.4 18.4c.7-.3 1.1-.4 1.9-.7.2-.1.4-.2.4-.4.1-.2.1-.5 0-.8-.1-.3-.2-.5-.4-.6-.2-.1-.4-.2-.6-.1-.8.3-1.3.5-2 .7.2.7.5 1.3.7 1.9z"/><path id="XMLID_290_" class="st20" d="M125.4 16.5c-.1-.8-.1-1.2-.2-1.9 0-.5-.2-.8-.5-1-.3-.2-.8-.3-1.3-.2-.5.1-.9.1-1.3.2.2 1.8.4 3 .7 4.7.4-.1.7-.1 1.2-.2s.9-.2 1.1-.5c.3-.2.4-.6.3-1.1z"/><path id="XMLID_291_" class="st20" d="M107.3 22.9c.4.1.7.1 1.1-.1.4-.2.6-.5.7-.8.1-.4.1-.7-.1-1.1-.3-.7-.5-1-.8-1.7-.2-.4-.5-.7-.8-.8-.4-.1-.8-.1-1.2.1-.4.2-.7.5-.8.9-.1.4-.1.8.1 1.1.4.7.5 1 .9 1.7.2.3.5.6.9.7z"/><path id="XMLID_294_" class="st20" d="M105.7 6.2c-23.3 12.8-32.6 50-33.9 56C88.4 44.3 128 43.8 128 43.8V31.2h-18.3v-4.1H128V1.7c-15.4 1.9-20.2 3.3-21.6 4-.6.3-.7.5-.7.5zm.7 17.4c-.3-.2-.6-.5-.9-1-.4-.6-.5-1-.9-1.6-.2-.4-.4-.8-.3-1.3 0-.4.1-.8.4-1.2.3-.4.6-.7 1.1-.9s.9-.4 1.4-.3c.4 0 .8.1 1.2.4.3.2.6.6.8 1 .3.7.4 1 .7 1.7.2.4.3.9.2 1.3 0 .4-.2.8-.4 1.1-.2.3-.6.6-1 .8-.4.2-.8.3-1.2.3-.4 0-.7-.1-1.1-.3zm-1.3 2c-.3.2-.5.3-.8.5-1.4-1.3-2.1-1.9-3.6-3.1l1.5 4.5c-.3.2-.5.3-.8.6-2.1-1.7-3.2-2.5-5.4-4 .3-.3.5-.4.9-.7 1.7 1.3 2.5 1.9 4.1 3.3-.8-2-1.1-3-1.8-5 .2-.2.4-.3.6-.4 1.7 1.3 2.5 2 4 3.5-.7-2-1-3-1.6-5 .4-.2.6-.3 1-.6.7 2.5 1.1 3.8 1.9 6.4zm12.9-5.5h-.2c-.1 0-.2 0-.3.1-.1 0-.3.1-.4.1-.7-2.5-1-3.8-1.7-6.3.4-.1.6-.2 1-.3.6 2.2.9 3.5 1.4 5.5 1.2-.3 2-.5 3.3-.7.1.3.1.5.2.9-1.4.2-2.1.4-3.3.7zm-5.6-5.1c.4-.1.7-.2 1.1-.1.3.1.6.2.9.4.2.2.4.5.5.9.1.4.1.7.1 1-.1.3-.2.6-.4.8-.1.1-.2.2-.4.3.9.8 1.4 1.3 2.3 2.2-.4.1-.6.2-1.1.3-.9-.9-1.4-1.4-2.3-2.2-.5.2-.9.3-1.4.5.3.8.6 1.6 1 2.6-.3.1-.5.2-.9.3l-2.5-6c.3-.1.5-.2.9-.3.8-.3 1.3-.4 2.2-.7zm10.5 4.1c-.1.1-.1.1 0 0h-.3c-.2 0-.4.1-.6.1l-1-6.5c.4-.1.6-.1 1-.1.5-.1.8-.1 1.4-.2.9-.1 1.7 0 2.2.4.5.4.8.9.9 1.7 0 .7.1 1.1.1 1.8s-.2 1.3-.6 1.8c-.4.4-1 .7-1.8.8-.6.2-.9.2-1.3.2zm1.2 14.7h3.8v.9h-3.3v2h2.8v.9h-2.8v1.9h3.3v.9h-4.2v-6.5h.4zm-5.3 0h4.6v.9h-1.8v5.7h-.9v-5.7h-5.1v2h2.8v.9h-2.8v1.9h3.3v.9h-4.3v-6.5h4.2zm-8.9 0l1.6 5.1 1.6-5.1h1l-2.1 6.5h-.9l-2.1-6.5h.9z"/><path id="XMLID_302_" class="st16" d="M128 43.8s-39.7.5-56.2 18.4c-1.2 1.3-2.3 2.7-3.2 4.2 0 0 1.2 2.7 5 7.1 6.7 8.8 23.8 4.7 32.9.5 9.1-4.2 21.5-4.1 21.5-4.1V43.8z"/><path id="XMLID_303_" class="st24" d="M80.3 79.8l1.5.3c10.1 1.5 13 0 24.7-3.4.3-.1.5-.1.8-.2.8-.2 1.6-.5 2.3-.7 3.3-1 5.4-1.6 7.2-2.1 2.5-.6 4.5-.8 8.2-.9h3.1v-2.9s-12.4-.1-21.5 4.1c-9.1 4.2-26.2 8.2-32.9-.5-3.8-4.3-5-7-5-7.1s-1.9.1-1.3 2.4l.5 1c1.2 2.4 5.2 8.3 12.4 10z"/><path id="XMLID_304_" class="st25" d="M135 27.1h2.1v4.1H135z"/><path id="XMLID_305_" class="st25" d="M132.2 27.1h.4v4.1h-.4z"/><path id="XMLID_306_" class="st25" d="M139.5 27.1h2.1v4.1h-2.1z"/><path id="XMLID_307_" class="st25" d="M109.6 27.1h3.7v4.1h-3.7z"/><path id="XMLID_308_" class="st25" d="M125.5 27.1h2.5v4.1h-2.5z"/><path id="XMLID_309_" class="st26" d="M114.6 27.1h1.4v4.1h-1.4z"/><path id="XMLID_310_" class="st26" d="M118.4 27.1h2.4v4.1h-2.4z"/><path id="XMLID_311_" class="st26" d="M123.2 27.1h1.1v4.1h-1.1z"/><path id="XMLID_312_" class="st27" d="M131 31.2v-4.1h-3v4.1z"/><path id="XMLID_313_" class="st27" d="M115.9 27.1h2.4v4.1h-2.4z"/><path id="XMLID_314_" class="st28" d="M120.8 27.1h2.4v4.1h-2.4z"/><path id="XMLID_315_" class="st28" d="M132.6 27.1h2.4v4.1h-2.4z"/><path id="XMLID_316_" class="st29" d="M137.1 27.1h2.4v4.1h-2.4z"/><path id="XMLID_317_" class="st30" d="M141.6 27.1h2.4v4.1h-2.4z"/><path id="XMLID_318_" class="st26" d="M144 27.1h1.8v4.1H144z"/><path id="XMLID_319_" class="st29" d="M113.4 27.1h1.2v4.1h-1.2z"/><path id="XMLID_320_" class="st30" d="M125.5 27.1h-1.2v4.1h1.2z"/><path id="XMLID_321_" fill="#454545" d="M131 27.1h1.2v4.1H131z"/><path id="XMLID_322_" class="st32" d="M103.3 19.1c-.4.2-.6.3-1 .6.6 2 .9 3 1.6 5l-4-3.5c-.2.2-.4.2-.6.4.7 2 1 3 1.8 5-1.6-1.4-2.4-2-4.1-3.3-.4.3-.5.4-.9.7 2.2 1.5 3.3 2.4 5.4 4 .3-.2.5-.3.8-.6-.7-1.8-1-2.7-1.5-4.5 1.5 1.2 2.2 1.8 3.6 3.1.3-.2.5-.3.8-.5-.9-2.5-1.3-3.8-1.9-6.4z"/><path id="XMLID_325_" class="st32" d="M108.8 23.6c.4-.2.7-.5 1-.8.2-.3.4-.7.4-1.1 0-.4 0-.8-.2-1.3-.3-.7-.4-1-.7-1.7-.2-.4-.5-.8-.8-1-.3-.2-.7-.4-1.2-.4-.4 0-.9.1-1.4.3s-.8.5-1.1.9c-.3.4-.4.8-.4 1.2 0 .4.1.8.3 1.3.4.6.5 1 .9 1.6.2.4.5.7.9 1 .3.2.7.3 1.1.3.3 0 .8-.1 1.2-.3zm-3.3-3.1c-.2-.4-.3-.8-.1-1.1.1-.4.4-.7.8-.9.4-.2.8-.3 1.2-.1.4.1.6.4.8.8.3.7.5 1 .8 1.7.2.4.2.8.1 1.1-.1.4-.4.6-.7.8-.4.2-.7.2-1.1.1-.4-.1-.6-.4-.9-.8-.3-.6-.5-1-.9-1.6z"/><path id="XMLID_328_" class="st32" d="M109.4 16.1l2.5 6c.3-.1.5-.2.9-.3-.4-1-.7-1.8-1-2.6.5-.2.9-.3 1.4-.5.9.8 1.4 1.3 2.3 2.2.4-.1.6-.2 1.1-.3-.9-.9-1.4-1.4-2.3-2.2.1-.1.3-.2.4-.3.2-.2.4-.5.4-.8.1-.3 0-.7-.1-1-.1-.4-.3-.7-.5-.9-.2-.2-.5-.4-.9-.4-.3-.1-.7 0-1.1.1-.9.3-1.4.5-2.2.8-.4 0-.6 0-.9.2zm3.3-.3c.2-.1.4-.1.6.1.2.1.3.3.4.6.1.3.1.5 0 .8-.1.2-.2.4-.4.4-.8.3-1.3.4-1.9.7-.2-.6-.5-1.2-.7-1.9.6-.3 1.2-.4 2-.7z"/><path id="XMLID_329_" class="st32" d="M121.1 18.5c-1.4.2-2.1.4-3.3.7-.5-2-.8-3.3-1.4-5.5-.4.1-.6.2-1 .3.7 2.5 1 3.8 1.7 6.3.2 0 .3-.1.4-.1.1 0 .2-.1.3-.1h.2c1.2-.3 1.9-.5 3.3-.7-.1-.3-.1-.5-.2-.9z"/><path id="XMLID_332_" class="st32" d="M125.9 18.2c.4-.4.6-1 .6-1.8 0-.7-.1-1.1-.1-1.8s-.3-1.3-.9-1.7c-.5-.4-1.3-.5-2.2-.4-.6.1-.9.1-1.4.2-.4.1-.6.1-1 .1l1 6.5c.3 0 .4-.1.6-.1h.3c.4-.1.7-.1 1.2-.1.8-.2 1.4-.5 1.9-.9zm-3.2.1c-.2-1.8-.4-3-.7-4.7.5-.1.8-.1 1.3-.2.6-.1 1 0 1.3.2.3.2.5.6.5 1 .1.8.1 1.2.2 1.9 0 .5-.1.8-.3 1.1-.3.3-.6.4-1.1.5-.4.1-.7.1-1.2.2z"/><path id="XMLID_333_" class="st33" d="M134.1 19.2c.9-1.7 1.4-2.5 2.4-4.1v4.7c.4.1.5.2.9.3 1.4-2.3 2.2-3.4 3.9-5.5-.4-.2-.6-.2-1.1-.4-1.2 1.7-1.8 2.6-2.9 4.4.1-2.1.1-3.2 0-5.3-.3-.1-.4-.1-.7-.2-1.1 1.8-1.7 2.7-2.7 4.6 0-2.1-.1-3.2-.2-5.3-.5-.1-.7-.1-1.1-.2.3 2.7.4 4.1.5 6.7.4.2.6.2 1 .3z"/><path id="XMLID_336_" class="st33" d="M138.4 20.5c.4.1.6.2.9.4.4-.4.7-.8 1-1.1 1 .4 1.6.7 2.5 1.2-.1.5-.1.9-.2 1.5.4.2.5.3.9.5.4-2.8.5-4.2.6-7-.3-.2-.5-.2-.8-.4-2.1 1.8-3.1 2.8-4.9 4.9zm2.6-1.4c.7-.7 1.3-1.4 2.3-2.2-.1 1.3-.1 2.2-.2 3.2-.8-.5-1.4-.7-2.1-1z"/><path id="XMLID_339_" class="st33" d="M148.5 22.7c.2.1.3.1.5.1.3 0 .6 0 .9-.1.3-.1.6-.3.8-.7.2-.3.4-.6.4-.9 0-.3 0-.6-.2-.9-.2-.3-.4-.6-.7-.8-.8-.5-1.3-.9-2-1.3-.3-.2-.5-.3-.8-.5-1.3 2.3-2 3.4-3.3 5.7.3.2.5.3.8.5.6-.9 1-1.7 1.4-2.4.4.3.8.5 1.3.8-.1 1.2-.2 1.9-.4 3.1.4.3.5.4.9.7.2-1.4.3-2.1.4-3.3zm-.7-3.9c.6.4 1.1.7 1.9 1.2.2.1.3.3.3.6 0 .2-.1.5-.2.7-.2.2-.4.4-.6.5-.2.1-.4 0-.6-.1-.7-.5-1.2-.8-1.8-1.1.3-.6.6-1.1 1-1.8z"/><path id="XMLID_340_" class="st33" d="M154.6 22.8c-.3-.3-.5-.4-.8-.7-1.7 2-2.5 3-4.2 5 .3.2.4.4.7.6 1.7-2 2.6-2.9 4.3-4.9z"/><path id="XMLID_341_" class="st33" d="M156.5 24.6l-.8-.8c-1.8 1.9-2.7 2.8-4.5 4.7l.7.7c1.8-1.9 2.7-2.8 4.6-4.6z"/><path id="XMLID_342_" class="st32" d="M111.1 40.3h.8l2.2-6.5h-1l-1.6 5.1-1.6-5.1h-1z"/><path id="XMLID_343_" class="st32" d="M115 33.8h-.4v6.5h4.2v-.8h-3.3v-2h2.8v-.8h-2.8v-2h3.3v-.9h-3.3z"/><path id="XMLID_344_" class="st32" d="M118.8 34.7h1.8v5.6h.9v-5.6h1.9v-.9h-4.6z"/><path id="XMLID_345_" class="st32" d="M123.7 40.3h4.2v-.8h-3.3v-2h2.8v-.8h-2.8v-2h3.3v-.9h-4.2z"/><path id="XMLID_348_" class="st33" d="M132.4 37.3c.3-.2.5-.4.6-.7.1-.3.2-.6.2-1s-.1-.7-.2-1c-.1-.3-.3-.5-.6-.7-.3-.2-.6-.2-.9-.2h-2.8v6.5h.9v-2.8h1.4l1.4 2.8h1.1l-1.5-2.8c.2.1.3 0 .4-.1zm-2.7-2.6h1.9c.2 0 .4.1.5.3.1.2.2.4.2.7 0 .3-.1.6-.2.7-.1.2-.3.3-.5.3h-1.9v-2z"/><path id="XMLID_351_" class="st33" d="M136.8 33.8h-.8l-2.4 6.5h1l.5-1.4h2.6l.5 1.4h1l-2.4-6.5zm-1.4 4.2l1-3 1 3h-2z"/><path id="XMLID_352_" class="st33" d="M143.7 38.6l-3.1-4.8h-.8v6.5h.9v-4.7l3.1 4.7h.8v-6.5h-.9z"/></g></g></svg>