<svg id="Layer_1" xmlns="http://www.w3.org/2000/svg" width="256" height="256"><style>.st1{fill:#c08c76}.st3{fill:#d8aa91}.st4{fill:#b8927d}.st5{fill:#d6d4d4}.st7{fill:#6e5634}.st8{opacity:.5;fill:#d8aa91}.st9{fill:#b27d6b}.st11{fill:#a1806e}.st12{fill:#a0a0a1}.st14{fill:#594426}.st15{opacity:.5;fill:#ba937e}.st16{fill:#393860}.st19{fill:#767778}.st22{fill:#c4c4c6}</style><g id="XMLID_4_"><circle id="XMLID_113_" cx="128" cy="128.5" r="128" fill="#b2b4b5"/><g id="XMLID_3_"><path id="XMLID_108_" class="st1" d="M128.1 178.2v17.2H139c-.6-6.2-1.8-13.2-2.6-17.9-4.3.6-8 .7-8.3.7z"/><path id="XMLID_109_" class="st1" d="M168 152.9c-.2-1-.3-1.9-.4-2.9-.9 2.8-1.7 5.4-2.3 7.4 1.6-2.8 2.7-4.5 2.7-4.5z"/><path id="XMLID_111_" class="st1" d="M160.3 166c-1.3 1.2-2.7 2-3.8 2.5l-.6.3c-1.5.7-3.8 2-3.8 2-.8.6-1.9 1.6-3.5 2.9-1.6 1.3-4.2 2.3-6.9 2.9l4.5 17.2c3.8-9.2 9.5-19.7 14.1-27.8z"/><path id="XMLID_112_" d="M141.5 176.6c-1.7.4-3.5.7-5.2 1 .9 4.7 2.1 11.7 2.6 17.9h6.4c.2-.6.5-1.1.7-1.7l-4.5-17.2z" fill="#a87b67"/><path id="XMLID_114_" class="st1" d="M184 81.4c-.8 2.5 1.5 7.3 1.5 7.3l-1.9-.5.6 4.3-2.1-1.9s-.3 5.3-.8 7.9c-.3 1.6-1.3 4.5-2 6.5-.4 2.2-.7 4.2-1 5.9-.6 3.6-2 9.3-3.8 15.5 6.1 1.7 7.8-5.1 9.6-10.4 2.1-6.1 1.6-14.5.8-19.5s1.9-5.3 1.4-13.4c-.1-.9-.3-1.6-.6-2.1s-1.1-1.1-1.7.4z"/><path id="XMLID_115_" class="st3" d="M159.1 114.2c.3 0 .5 0 .8-.1-.3.1-.5.1-.8.1z"/><path id="XMLID_116_" class="st3" d="M128.1 94c.3 0 1.9-.1 4.1 1.1 0 0 2.7-4.4 5.9-6.1 0-.2 0-.3.1-.5h-10V94z"/><path id="XMLID_117_" class="st3" d="M168.4 107.6c.5-.7.9-1.5 1.2-2.1.3-.7.5-1.4.7-2.3-.2.8-.4 1.6-.7 2.3-.3.7-.7 1.4-1.2 2.1z"/><path id="XMLID_119_" class="st3" d="M145.9 70.2c6.1-2.7 15.5 0 15.5 0s-10.9-.9-13.3.8c-2.4 1.6-11.5 3.9-20.1 3.9v3.9c.7 0 12-.1 17.8-2.7 6.1-2.7 15.5 0 15.5 0s-10.9-.9-13.3.8c-2.4 1.6-11.5 3.9-20.1 3.9v5.7h22.2c3.3-.8 5.8-.5 7.6 0h3.9c4.9 0 9.3 1.4 10.1 5.3h5.5c.4-1.9.9-4.4.4-5.3-.8-1.4-2-6.4-2-6.4s2.7-13.5 1.8-19.6c-1-6.1-6.5-17.6-11.2-23.9s-11.5-8.9-19-5.9c-7.3 2.9-18.6 5.7-19.3 5.9v36.6c.9-.3 12.1-.3 18-3z"/><path id="XMLID_120_" class="st3" d="M138.5 91.5c-.4.2-.7.5-1.1.7.4-.2.8-.4 1.1-.7z"/><path id="XMLID_121_" class="st3" d="M156.5 168.5l-.6.3c.1-.1.4-.2.6-.3z"/><path id="XMLID_124_" class="st3" d="M179.4 105c-.4 1.2-.8 2.1-.8 2.1v-8.6l-1.3 1.5c-.5-3.1 1.3-7.4 1.3-7.4l-1.1.7v.6H172s1.7 11.1-2 15.4c-3.7 4.3-6 6.9-14.7 6.9s-13.9 0-18.1-7.7c-4.2-7.7-6-12.1-6-12.1s-1.2-.7-3.1-.7V135c.4 0 6 .3 9.4-3.7 0 0 4.3-.1 6.7 1.9v-.7s3.2 1.2 4.1 1.8 1.1-1.4 1-3c0 0 1 4.2 1.9 5.6 1 1.4 1.7 3.8 1.7 3.8l-1.6-.6s1 1.6 1 1.9c0 .4-1.7 0-1.7 0v2.4s-3.6-1.4-4.9-2.6c-1.3-1.2-1 1.3-1 1.3l-3.4-1.4s-.1 2.2-1.7 1.6c-1.6-.6-3.7-.8-5-.2-1.3.6-2 1.4-6.5 1.4v33.8c.4 0 4-.1 8.3-.7 1.7-.2 3.5-.5 5.2-1 2.8-.7 5.3-1.6 6.9-2.9 1.6-1.3 2.8-2.3 3.5-2.9 0 0 3.8-7.3 3.1-11.7-.7-4.4-1.5-8.3-1.5-8.3s4.3 10.1 1.6 17c0 0 3.5-4 5.4-8.4 0 0-2.7 8.6-4.1 9.1 1.1-.5 2.5-1.3 3.8-2.5 1.9-3.4 3.7-6.4 5-8.6.6-2 1.4-4.5 2.3-7.4 2.1-6.9 4.8-15.7 7.1-23.6 1.8-6.3 3.2-11.9 3.8-15.5.2-1.7.5-3.7.9-5.9zm-29.9 26c-2.4-3.5-6.5-9.8-10.4-11 0 0 6.4 1.7 10.9 9.1 4.6 7.4 7 9.7 7.7 15.7.1 0-5.4-9.7-8.2-13.8z"/><path id="XMLID_125_" class="st4" d="M155.8 168.7c.2-.1.5-.2.6-.3 1.4-.5 4.1-9.1 4.1-9.1-1.9 4.4-5.4 8.4-5.4 8.4 2.7-6.9-1.6-17-1.6-17s.8 3.8 1.5 8.3c.7 4.4-3.1 11.7-3.1 11.7.1 0 2.4-1.3 3.9-2z"/><path id="XMLID_127_" class="st5" d="M132.7 10.6l-2.9 6.2c3.1-1.9 7.2-6.2 7.2-6.2l-1.5 6.7 3.6-3.8c1.7-1.9 7.2-1 7.2-1l-1.5 5c2.2-2.6 6.2-2.6 6.2-2.6s13.2 2.8 23 19.2c-8-6-17.5-7.7-17.5-7.7h-6.9L152 24c-2.2 0-7.7 3.4-7.7 3.4v-1.7l-5.7 2.4v-2.4l-6.2 4.2 1.9-4.2c-3.4 2.2-5.9 7.6-6.3 8.3v2.3c.7-.2 12-3 19.3-5.9 7.5-3 14.4-.5 19 5.9s10.2 17.9 11.2 23.9c1 6.1-1.8 19.6-1.8 19.6s1.2 5 2 6.4c.5.9 0 3.4-.4 5.3h.3v1.6l1.1-.7s-1.8 4.4-1.3 7.4l1.3-1.5v8.6s.3-.9.8-2.1c.7-2 1.7-4.9 2-6.5.5-2.6.8-7.9.8-7.9l2.1 1.9-.6-4.3 1.9.5s-2.3-4.8-1.5-7.3c.5-1.6 1.3-1 1.9-.5 0-2.1 3.1-12.9 2.9-14.8-.2-1.9.6-10.9-3.5-17.6-4.2-6.7-7.3-13.9-10.7-18-3.4-4.1-15.5-21.7-46.6-21.7v6.9l4.5-4.9z"/><path id="XMLID_128_" class="st4" d="M148.1 71c2.4-1.6 13.3-.8 13.3-.8s-9.4-2.7-15.5 0c-5.9 2.6-17.1 2.7-17.8 2.7v1.9c8.6 0 17.6-2.2 20-3.8z"/><path id="XMLID_129_" class="st4" d="M148.1 76.8c2.4-1.6 13.3-.8 13.3-.8s-9.4-2.7-15.5 0c-5.9 2.6-17.1 2.7-17.8 2.7v1.9c8.6.1 17.6-2.1 20-3.8z"/><path id="XMLID_130_" class="st5" d="M134.6 143c1.3-.6 3.5-.4 5 .2 1.6.6 1.7-1.6 1.7-1.6l3.4 1.4s-.4-2.5 1-1.3c1.3 1.2 4.9 2.6 4.9 2.6V142s1.7.4 1.7 0-1-1.9-1-1.9l1.6.6s-.7-2.4-1.7-3.8-1.9-5.6-1.9-5.6c.1 1.6-.1 3.6-1 3s-4.1-1.8-4.1-1.8v.7c-2.4-2-6.7-1.9-6.7-1.9-3.4 4.1-9 3.7-9.4 3.7v9.5c4.5-.1 5.2-.9 6.5-1.5z"/><path id="XMLID_131_" class="st4" d="M150.1 129.1c-4.6-7.4-10.9-9.1-10.9-9.1 3.8 1.2 8 7.5 10.4 11 2.8 4.1 8.3 13.8 8.3 13.8-.8-6-3.3-8.3-7.8-15.7z"/><path id="XMLID_132_" d="M128.1 21.8v12.1c.3-.7 2.9-6.1 6.3-8.3l-1.9 4.2 6.2-4.2V28l5.7-2.4v1.7s5.5-3.4 7.7-3.4l-2.4 2.4h6.9s9.5 1.7 17.5 7.7c-9.8-16.4-23-19.2-23-19.2s-4 0-6.2 2.6l1.5-5s-5.5-1-7.2 1l-3.6 3.8 1.5-6.7s-4.1 4.3-7.2 6.2l2.9-6.2-4.6 5.2v6.1z" fill="#b0b0b0"/><path id="XMLID_133_" class="st5" d="M150.3 86.3h7.6c-1.9-.5-4.4-.7-7.6 0z"/><path id="XMLID_134_" class="st5" d="M139 88.5h-.9c0 .1-.1.3-.1.5.3-.2.7-.4 1-.5z"/><path id="XMLID_135_" class="st5" d="M145.1 88.9c.6-.1 1.1-.2 1.7-.3-.6.1-1.1.2-1.7.3z"/><path id="XMLID_136_" class="st5" d="M140.7 90.3c.3-.1.6-.3.8-.4-.2.1-.5.2-.8.4z"/><path id="XMLID_137_" class="st5" d="M147.9 88.4c.9-.1 1.7-.2 2.5-.3-.8.1-1.7.2-2.5.3z"/><path id="XMLID_138_" class="st5" d="M143.1 89.3c.5-.1 1.1-.3 1.6-.4-.5.2-1 .3-1.6.4z"/><path id="XMLID_140_" class="st5" d="M150.4 88.1c.5-.1 1-.1 1.5-.1-.5 0-1 .1-1.5.1z"/><path id="XMLID_141_" class="st5" d="M139.8 90.8c-.4.2-.9.5-1.3.8.5-.3.9-.6 1.3-.8z"/><path id="XMLID_144_" class="st7" d="M137.2 108.6c4.2 7.7 9.3 7.7 18.1 7.7 8.7 0 11-2.6 14.7-6.9 3.7-4.3 2-15.4 2-15.4h5.5v-2.2h-5.8c-.7-3.8-5.1-5.3-10.1-5.3h-33.7v2.2h10.9c-.3.1-.6.3-1 .5-3.2 1.8-5.9 6.1-5.9 6.1-2.2-1.2-3.8-1.1-4.1-1.1V96c1.9 0 3.1.7 3.1.7s2.1 4.3 6.3 11.9zm.3-16.3c.3-.3.7-.5 1.1-.7.4-.3.9-.5 1.3-.8.3-.2.6-.3.9-.5.3-.1.6-.3.8-.4.3-.1.6-.2.8-.3.3-.1.5-.2.8-.2.5-.1 1.1-.3 1.6-.4.1 0 .2 0 .3-.1.6-.1 1.1-.2 1.7-.3.4-.1.7-.1 1.1-.2.9-.1 1.7-.2 2.5-.3.5-.1 1-.1 1.5-.1 1.1-.1 1.8-.1 1.8-.1 1.6 0 3.1 0 4.6.1.3 0 .6 0 .9.1 5.4.4 9.9 1.4 10.7 3.7.7 1.9 1 4.4 1 6.9v.9c-.1 1.2-.2 2.5-.4 3.6-.2.8-.4 1.6-.7 2.3-.3.7-.7 1.4-1.2 2.1-.2.2-.3.5-.5.7-2 2.7-5.1 5.4-8 5.8-.3 0-.5.1-.8.1h-7.8c-5.5 0-8.5-1.8-11.3-5.4-2.8-3.6-5.5-8.6-5.5-12.6-.2-1.3 1.2-2.7 2.8-3.9z"/><path id="XMLID_146_" class="st3" d="M134.5 96.3c0 4 2.8 9 5.5 12.6 2.8 3.6 5.7 5.4 11.3 5.4h7.8c.3 0 .5 0 .8-.1 3-.4 6-3.1 8-5.8.2-.2.4-.5.5-.7.5-.7.9-1.5 1.2-2.1.3-.7.5-1.4.7-2.3.2-1.1.4-2.3.4-3.6v-.9c0-2.5-.3-5-1-6.9-.8-2.3-5.4-3.3-10.7-3.7-.3 0-.6 0-.9-.1 5.6 2.2 6.4 4.5 6.4 4.5l-1.6.4 1.6 1.2s-.7.1-1.7-.1 0 1.6 0 1.6c-2.6-2-10.3-5.3-13.1-5.3-2.8 0-11.1 1.7-11.1 1.7-.1-.1-.2-.3-.2-.4-.4.2-.7.5-1.1.7-1.4 1.1-2.8 2.5-2.8 3.9z"/><path id="XMLID_145_" class="st8" d="M134.5 96.3c0 4 2.8 9 5.5 12.6 2.8 3.6 5.7 5.4 11.3 5.4h7.8c.3 0 .5 0 .8-.1 3-.4 6-3.1 8-5.8.2-.2.4-.5.5-.7.5-.7.9-1.5 1.2-2.1.3-.7.5-1.4.7-2.3.2-1.1.4-2.3.4-3.6v-.9c0-2.5-.3-5-1-6.9-.8-2.3-5.4-3.3-10.7-3.7-.3 0-.6 0-.9-.1 5.6 2.2 6.4 4.5 6.4 4.5l-1.6.4 1.6 1.2s-.7.1-1.7-.1 0 1.6 0 1.6c-2.6-2-10.3-5.3-13.1-5.3-2.8 0-11.1 1.7-11.1 1.7-.1-.1-.2-.3-.2-.4-.4.2-.7.5-1.1.7-1.4 1.1-2.8 2.5-2.8 3.9z"/><path id="XMLID_148_" class="st5" d="M138.8 92s8.4-1.7 11.1-1.7c2.8 0 10.4 3.2 13.1 5.3 0 0-1-1.8 0-1.6 1 .2 1.7.1 1.7.1l-1.6-1.2 1.6-.4s-.8-2.3-6.4-4.5c-1.5-.1-3.1-.1-4.6-.1 0 0-.7 0-1.8.1-.4 0-.9.1-1.5.1-.8.1-1.6.2-2.5.3-.3 0-.7.1-1.1.2-.6.1-1.1.2-1.7.3-.1 0-.2 0-.3.1-.6.1-1.1.2-1.6.4-.3.1-.6.2-.8.2-.2.1-.5.2-.8.3-.2.1-.5.2-.8.4-.3.1-.6.3-.9.5-.4.2-.9.5-1.3.8 0 .1.1.2.2.4z"/><path id="XMLID_147_" class="st8" d="M138.8 92s8.4-1.7 11.1-1.7c2.8 0 10.4 3.2 13.1 5.3 0 0-1-1.8 0-1.6 1 .2 1.7.1 1.7.1l-1.6-1.2 1.6-.4s-.8-2.3-6.4-4.5c-1.5-.1-3.1-.1-4.6-.1 0 0-.7 0-1.8.1-.4 0-.9.1-1.5.1-.8.1-1.6.2-2.5.3-.3 0-.7.1-1.1.2-.6.1-1.1.2-1.7.3-.1 0-.2 0-.3.1-.6.1-1.1.2-1.6.4-.3.1-.6.2-.8.2-.2.1-.5.2-.8.3-.2.1-.5.2-.8.4-.3.1-.6.3-.9.5-.4.2-.9.5-1.3.8 0 .1.1.2.2.4z"/><path id="XMLID_152_" class="st7" d="M169.8 91.8c.7 1.9 1 4.4 1 6.9 0-2.5-.3-5-1-6.9-.8-2.3-5.4-3.3-10.7-3.7 5.4.4 9.9 1.4 10.7 3.7z"/><path id="XMLID_151_" class="st8" d="M169.8 91.8c.7 1.9 1 4.4 1 6.9 0-2.5-.3-5-1-6.9-.8-2.3-5.4-3.3-10.7-3.7 5.4.4 9.9 1.4 10.7 3.7z"/><path id="XMLID_154_" class="st7" d="M151.3 114.2c-5.5 0-8.5-1.8-11.3-5.4-2.8-3.6-5.5-8.6-5.5-12.6 0-1.4 1.3-2.8 2.9-4-1.6 1.2-2.9 2.6-2.9 4 0 4 2.8 9 5.5 12.6 2.8 3.7 5.8 5.4 11.3 5.4z"/><path id="XMLID_153_" class="st8" d="M151.3 114.2c-5.5 0-8.5-1.8-11.3-5.4-2.8-3.6-5.5-8.6-5.5-12.6 0-1.4 1.3-2.8 2.9-4-1.6 1.2-2.9 2.6-2.9 4 0 4 2.8 9 5.5 12.6 2.8 3.7 5.8 5.4 11.3 5.4z"/><path id="XMLID_156_" class="st7" d="M159.9 114.2c3-.4 6-3.1 8-5.8-2 2.7-5 5.4-8 5.8z"/><path id="XMLID_155_" class="st8" d="M159.9 114.2c3-.4 6-3.1 8-5.8-2 2.7-5 5.4-8 5.8z"/><path id="XMLID_158_" class="st7" d="M170.8 99.7c-.1 1.2-.2 2.5-.4 3.6.2-1.2.3-2.4.4-3.6z"/><path id="XMLID_157_" class="st8" d="M170.8 99.7c-.1 1.2-.2 2.5-.4 3.6.2-1.2.3-2.4.4-3.6z"/><path id="XMLID_160_" class="st7" d="M139.8 90.8c.3-.2.6-.3.9-.5-.3.1-.6.3-.9.5z"/><path id="XMLID_159_" class="st8" d="M139.8 90.8c.3-.2.6-.3.9-.5-.3.1-.6.3-.9.5z"/><path id="XMLID_162_" class="st7" d="M146.8 88.6c.4-.1.7-.1 1.1-.2-.4.1-.7.1-1.1.2z"/><path id="XMLID_161_" class="st8" d="M146.8 88.6c.4-.1.7-.1 1.1-.2-.4.1-.7.1-1.1.2z"/><path id="XMLID_164_" class="st7" d="M144.8 89c.1 0 .2 0 .3-.1-.1 0-.2 0-.3.1z"/><path id="XMLID_163_" class="st8" d="M144.8 89c.1 0 .2 0 .3-.1-.1 0-.2 0-.3.1z"/><path id="XMLID_165_" class="st9" d="M88.5 150c-.1 1-.3 2-.4 3 .2.4 1.3 2.1 2.8 4.7-.6-2.1-1.5-4.7-2.4-7.7z"/><path id="XMLID_166_" class="st9" d="M107.6 173.6c-1.6-1.3-2.8-2.3-3.5-2.9 0 0-2.3-1.3-3.8-2l-.6-.3c-1.2-.5-2.6-1.3-3.9-2.6 4.6 8.1 10.3 18.7 14.3 28l4.6-17.3c-2.9-.6-5.5-1.5-7.1-2.9z"/><path id="XMLID_167_" class="st9" d="M128.1 195.4v-17.2s-3.8-.1-8.3-.7c-.9 4.7-2.1 11.7-2.6 17.9h10.9l-.1 61.1.1-61.1z"/><path id="XMLID_168_" d="M110 193.9c.2.5.4 1 .7 1.6h6.5c.6-6.2 1.8-13.2 2.6-17.9-1.7-.2-3.5-.5-5.2-1l-4.6 17.3z" fill="#906958"/><path id="XMLID_169_" class="st9" d="M76.7 105c-.7-2-1.7-4.9-2-6.5-.5-2.6-.8-7.9-.8-7.9l-2.1 1.9.6-4.3-1.9.5s2.3-4.8 1.5-7.3c-.5-1.6-1.3-1-1.9-.5-.3.5-.5 1.2-.6 2.1-.5 8.1 2.2 8.5 1.4 13.4s-1.3 13.4.8 19.5c1.8 5.4 3.5 12.2 9.6 10.4-1.8-6.3-3.2-11.9-3.8-15.5-.1-1.6-.4-3.6-.8-5.8z"/><path id="XMLID_170_" class="st1" d="M97.8 88c-.3 0-.6 0-.9.1.4 0 .7-.1.9-.1z"/><path id="XMLID_171_" class="st1" d="M118.4 92.1l-.9-.6.9.6z"/><path id="XMLID_172_" class="st1" d="M84.3 91.6c.7-3.8 5.1-5.3 10.1-5.3h3.9c1.8-.5 4.3-.8 7.6 0h22.3v-5.7c-8.6 0-17.7-2.2-20.1-3.9-2.4-1.6-13.3-.8-13.3-.8s9.4-2.7 15.5 0 17.9 2.7 17.9 2.7v-3.9c-8.6 0-17.7-2.2-20.1-3.9-2.4-1.6-13.3-.8-13.3-.8s9.4-2.7 15.5 0 17.9 2.7 17.9 2.7V36.3s-11.8-2.9-19.3-5.9c-7.5-3-14.4-.5-19 5.9s-10.4 17.9-11.3 24c-1 6.1 1.8 19.6 1.8 19.6s-1.2 5-2 6.4c-.5.9 0 3.4.4 5.3h5.5z"/><path id="XMLID_173_" class="st1" d="M128 88.5h-10c0 .1.1.3.1.5 3.2 1.8 5.9 6.1 5.9 6.1 2.3-1.3 4-1.1 4.1-1.1l-.1-5.5z"/><path id="XMLID_176_" class="st1" d="M95.7 165.9c1.4 1.3 2.8 2.1 3.9 2.6-1.4-.5-4.1-9.1-4.1-9.1 1.9 4.4 5.4 8.4 5.4 8.4-2.7-6.9 1.6-17 1.6-17s-.8 3.8-1.5 8.3c-.7 4.4 3.1 11.7 3.1 11.7.8.6 1.9 1.6 3.5 2.9 1.6 1.3 4.2 2.3 6.9 2.9 1.7.4 3.5.7 5.2 1 4.5.6 8.3.7 8.3.7v-33.8c-4.6 0-5.2-.8-6.5-1.4-1.3-.6-3.5-.4-5 .2-1.6.6-1.7-1.6-1.7-1.6l-3.4 1.4s.4-2.5-1-1.3c-1.3 1.2-4.9 2.6-4.9 2.6V142s-1.7.4-1.7 0 1-1.9 1-1.9l-1.6.6s.7-2.4 1.7-3.8 1.9-5.6 1.9-5.6c-.1 1.6.1 3.6 1 3 .8-.6 4.1-1.8 4.1-1.8v.7c2.4-2 6.7-1.9 6.7-1.9 3.5 4.2 9.4 3.7 9.4 3.7V95.8c-1.9 0-3.2.7-3.2.7s-1.8 4.4-6 12.1c-4.2 7.7-9.3 7.7-18.1 7.7s-11-2.6-14.7-6.9c-3.7-4.3-2-15.4-2-15.4h-5.5v-.6l-1.1-.7s1.8 4.4 1.3 7.4l-1.3-1.5v8.6s-.3-.9-.8-2.1c.4 2.2.7 4.2 1 5.9.6 3.6 2 9.3 3.8 15.5 2.2 7.9 4.9 16.7 7.1 23.6.9 3 1.7 5.6 2.4 7.6 1.3 2.2 2.9 5 4.8 8.2zm10.3-36.8c4.6-7.4 10.9-9.1 10.9-9.1-3.8 1.2-8 7.5-10.4 11-2.8 4.1-8.3 13.8-8.3 13.8.8-6 3.3-8.3 7.8-15.7z"/><path id="XMLID_177_" class="st1" d="M100.2 168.7c-.2-.1-.5-.2-.6-.3.2.2.4.3.6.3z"/><path id="XMLID_178_" class="st11" d="M99.6 168.5l.6.3c1.5.7 3.8 2 3.8 2s-3.8-7.3-3.1-11.7c.7-4.4 1.5-8.3 1.5-8.3s-4.3 10.1-1.6 17c0 0-3.5-4-5.4-8.4.1 0 2.8 8.6 4.2 9.1z"/><path id="XMLID_179_" class="st12" d="M72 81.4c.8 2.5-1.5 7.3-1.5 7.3l1.9-.5-.6 4.3 2.1-1.9s.3 5.3.8 7.9c.3 1.6 1.3 4.5 2 6.5.4 1.2.8 2.1.8 2.1v-8.6l1.3 1.5c.5-3.1-1.3-7.4-1.3-7.4l1.1.7v-1.6h.3c-.4-1.9-.9-4.4-.4-5.3.8-1.4 2-6.4 2-6.4s-2.7-13.5-1.8-19.6c1-6.1 6.5-17.6 11.2-23.9s11.5-8.9 19-5.9 19.3 5.9 19.3 5.9V34s-2.7-6-6.3-8.4l1.9 4.2-6.2-4.2V28l-5.7-2.4v1.7s-5.5-3.4-7.7-3.4l2.4 2.4h-6.9S90.2 28 82.2 34c9.8-16.4 23-19.2 23-19.2s4 0 6.2 2.6l-1.5-5s5.5-1 7.2 1l3.6 3.8-1.5-6.7s4.1 4.3 7.2 6.2l-2.9-6.2 4.7 5.3V8.9C97.1 8.9 85 26.5 81.6 30.6c-3.4 4.2-6.5 11.3-10.7 18-4.2 6.7-3.4 15.6-3.5 17.6-.2 1.9 2.9 12.7 2.9 14.8.4-.5 1.2-1.1 1.7.4z"/><path id="XMLID_180_" class="st11" d="M128.1 72.9s-11.8 0-17.9-2.7c-6.1-2.7-15.5 0-15.5 0s10.9-.9 13.3.8c2.4 1.6 11.5 3.9 20.1 3.9v-2z"/><path id="XMLID_181_" class="st11" d="M128.1 78.8s-11.8 0-17.9-2.7c-6.1-2.7-15.5 0-15.5 0s10.9-.9 13.3.8c2.4 1.6 11.5 3.9 20.1 3.9v-2z"/><path id="XMLID_182_" class="st12" d="M128.1 135s-5.9.5-9.4-3.7c0 0-4.3-.1-6.7 1.9v-.7s-3.2 1.2-4.1 1.8c-.8.6-1.1-1.4-1-3 0 0-1 4.2-1.9 5.6-1 1.4-1.7 3.8-1.7 3.8l1.6-.6s-1 1.6-1 1.9c0 .4 1.7 0 1.7 0v2.4s3.6-1.4 4.9-2.6c1.3-1.2 1 1.3 1 1.3l3.4-1.4s.1 2.2 1.7 1.6c1.6-.6 3.7-.8 5-.2 1.3.6 2 1.4 6.5 1.4V135z"/><path id="XMLID_183_" class="st11" d="M98.3 144.8s5.5-9.6 8.3-13.8c2.4-3.5 6.5-9.8 10.4-11 0 0-6.4 1.7-10.9 9.1-4.6 7.4-7.1 9.7-7.8 15.7z"/><path id="XMLID_184_" d="M128.1 21.8v-6l-4.7-5.3 2.9 6.2c-3.1-1.9-7.2-6.2-7.2-6.2l1.5 6.7-3.6-3.8c-1.7-1.9-7.2-1-7.2-1l1.5 5c-2.2-2.6-6.2-2.6-6.2-2.6S91.8 17.6 82 34c8-6 17.5-7.7 17.5-7.7h6.9L104 24c2.2 0 7.7 3.4 7.7 3.4v-1.7l5.7 2.4v-2.4l6.2 4.2-1.9-4.2c3.6 2.4 6.3 8.4 6.3 8.4V21.8z" fill="#898a8b"/><path id="XMLID_185_" class="st12" d="M117.5 91.5c-.4-.3-.9-.5-1.3-.8.5.3.9.6 1.3.8z"/><path id="XMLID_186_" class="st12" d="M102.5 87.9c-1.6 0-3.1 0-4.6.1 1.5-.1 3-.1 4.6-.1z"/><path id="XMLID_187_" class="st12" d="M117.1 88.5c.3.1.6.3 1 .5 0-.2 0-.3-.1-.5h-.9z"/><path id="XMLID_188_" class="st12" d="M114.8 90l.6.3c-.3-.1-.4-.2-.6-.3z"/><path id="XMLID_189_" class="st12" d="M98.2 86.3h7.6c-3.3-.7-5.8-.5-7.6 0z"/><path id="XMLID_190_" class="st12" d="M105.8 88.2c.7.1 1.6.2 2.4.3-.8-.2-1.7-.3-2.4-.3z"/><path id="XMLID_191_" class="st12" d="M104.3 88c.4 0 .8.1 1.3.1-.4 0-.9 0-1.3-.1z"/><path id="XMLID_192_" class="st12" d="M109.4 88.6l1.5.3c-.4-.1-.9-.2-1.5-.3z"/><path id="XMLID_193_" class="st12" d="M111.3 89c.5.1.9.2 1.4.3-.4-.1-.9-.2-1.4-.3z"/><path id="XMLID_196_" class="st14" d="M128.1 94c-.1 0-1.8-.2-4.2 1.1 0 0-2.7-4.4-5.9-6.1-.3-.2-.6-.3-1-.5h11v-2.2H94.2c-4.9 0-9.3 1.4-10.1 5.3h-5.8v2.2h5.5s-1.7 11.1 2 15.4c3.7 4.3 6 6.9 14.7 6.9s13.9 0 18.1-7.7c4.2-7.7 6-12.1 6-12.1s1.2-.7 3.2-.7V94zM116 108.9c-2.8 3.6-5.7 5.4-11.3 5.4h-7.8c-2.9 0-6.1-2.4-8.3-5.1-1-1.2-1.8-2.5-2.3-3.6-.2-.4-.4-.9-.5-1.5-1-3.7-.8-8.9.3-12.2.8-2.3 5.4-3.3 10.7-3.7.3 0 .6 0 .9-.1 1.5-.1 3.1-.1 4.6-.1 0 0 .7 0 1.8.1.4 0 .8.1 1.3.1h.2c.7.1 1.6.2 2.4.3.4.1.8.1 1.2.2l1.5.3c.1 0 .3.1.4.1.5.1.9.2 1.4.3.4.1.7.2 1 .3.2.1.6.2 1 .4l.6.3c.3.1.6.3.9.5.4.2.9.5 1.3.8l.9.6c1.7 1.2 3.1 2.7 3.1 4.2.2 3.8-2.5 8.8-5.3 12.4z"/><path id="XMLID_198_" class="st1" d="M116 108.9c2.8-3.6 5.5-8.6 5.5-12.6 0-1.4-1.5-2.9-3.1-4.2l-.9-.6c-.1.1-.1.3-.2.4 0 0-8.4-1.7-11.1-1.7-2.8 0-10.4 3.2-13.1 5.3 0 0 1-1.8 0-1.6s-1.7.1-1.7.1l1.6-1.2-1.6-.4s.8-2.3 6.4-4.5c-.3 0-.6 0-.9.1-5.4.4-9.9 1.4-10.7 3.7-1.2 3.3-1.3 8.6-.3 12.2.1.5.3 1 .5 1.5.5 1.1 1.3 2.4 2.3 3.6 2.2 2.7 5.3 5.1 8.3 5.1h7.8c5.5.1 8.5-1.6 11.2-5.2z"/><path id="XMLID_197_" class="st15" d="M116 108.9c2.8-3.6 5.5-8.6 5.5-12.6 0-1.4-1.5-2.9-3.1-4.2l-.9-.6c-.1.1-.1.3-.2.4 0 0-8.4-1.7-11.1-1.7-2.8 0-10.4 3.2-13.1 5.3 0 0 1-1.8 0-1.6s-1.7.1-1.7.1l1.6-1.2-1.6-.4s.8-2.3 6.4-4.5c-.3 0-.6 0-.9.1-5.4.4-9.9 1.4-10.7 3.7-1.2 3.3-1.3 8.6-.3 12.2.1.5.3 1 .5 1.5.5 1.1 1.3 2.4 2.3 3.6 2.2 2.7 5.3 5.1 8.3 5.1h7.8c5.5.1 8.5-1.6 11.2-5.2z"/><path id="XMLID_200_" class="st12" d="M91.5 92.6l1.6.4-1.6 1.2s.7.1 1.7-.1 0 1.6 0 1.6c2.6-2 10.3-5.3 13.1-5.3 2.8 0 11.1 1.7 11.1 1.7.1-.1.2-.3.2-.4-.4-.3-.9-.5-1.3-.8-.3-.2-.6-.3-.9-.5l-.6-.3c-.4-.2-.8-.3-1-.4-.3-.1-.7-.2-1-.3-.4-.1-.9-.2-1.4-.3-.1 0-.2-.1-.4-.1l-1.5-.3c-.4-.1-.8-.1-1.2-.2-.9-.1-1.7-.2-2.4-.3h-.2c-.5 0-.9-.1-1.3-.1-1.1-.1-1.8-.1-1.8-.1-1.6 0-3.1 0-4.6.1-5.7 2.2-6.5 4.5-6.5 4.5z"/><path id="XMLID_199_" class="st15" d="M91.5 92.6l1.6.4-1.6 1.2s.7.1 1.7-.1 0 1.6 0 1.6c2.6-2 10.3-5.3 13.1-5.3 2.8 0 11.1 1.7 11.1 1.7.1-.1.2-.3.2-.4-.4-.3-.9-.5-1.3-.8-.3-.2-.6-.3-.9-.5l-.6-.3c-.4-.2-.8-.3-1-.4-.3-.1-.7-.2-1-.3-.4-.1-.9-.2-1.4-.3-.1 0-.2-.1-.4-.1l-1.5-.3c-.4-.1-.8-.1-1.2-.2-.9-.1-1.7-.2-2.4-.3h-.2c-.5 0-.9-.1-1.3-.1-1.1-.1-1.8-.1-1.8-.1-1.6 0-3.1 0-4.6.1-5.7 2.2-6.5 4.5-6.5 4.5z"/><path id="XMLID_202_" class="st14" d="M86.3 91.8c.8-2.3 5.4-3.3 10.7-3.7-5.4.4-9.9 1.4-10.7 3.7-1.2 3.3-1.3 8.6-.3 12.2-1.1-3.6-.9-8.9.3-12.2z"/><path id="XMLID_201_" class="st15" d="M86.3 91.8c.8-2.3 5.4-3.3 10.7-3.7-5.4.4-9.9 1.4-10.7 3.7-1.2 3.3-1.3 8.6-.3 12.2-1.1-3.6-.9-8.9.3-12.2z"/><path id="XMLID_204_" class="st14" d="M118.4 92.1c1.7 1.2 3.1 2.7 3.1 4.2 0 4-2.8 9-5.5 12.6-2.8 3.6-5.7 5.4-11.3 5.4 5.5 0 8.5-1.8 11.3-5.4 2.8-3.6 5.5-8.6 5.5-12.6 0-1.5-1.4-3-3.1-4.2z"/><path id="XMLID_203_" class="st15" d="M118.4 92.1c1.7 1.2 3.1 2.7 3.1 4.2 0 4-2.8 9-5.5 12.6-2.8 3.6-5.7 5.4-11.3 5.4 5.5 0 8.5-1.8 11.3-5.4 2.8-3.6 5.5-8.6 5.5-12.6 0-1.5-1.4-3-3.1-4.2z"/><path id="XMLID_206_" class="st14" d="M88.7 109.1c2.2 2.7 5.3 5.1 8.3 5.1-3 0-6.1-2.4-8.3-5.1z"/><path id="XMLID_205_" class="st15" d="M88.7 109.1c2.2 2.7 5.3 5.1 8.3 5.1-3 0-6.1-2.4-8.3-5.1z"/><path id="XMLID_208_" class="st14" d="M108.2 88.4c.4.1.8.1 1.2.2-.4-.1-.8-.1-1.2-.2z"/><path id="XMLID_207_" class="st15" d="M108.2 88.4c.4.1.8.1 1.2.2-.4-.1-.8-.1-1.2-.2z"/><path id="XMLID_210_" class="st14" d="M115.3 90.3c.3.1.6.3.9.5-.3-.2-.6-.4-.9-.5z"/><path id="XMLID_209_" class="st15" d="M115.3 90.3c.3.1.6.3.9.5-.3-.2-.6-.4-.9-.5z"/><path id="XMLID_212_" class="st14" d="M111 88.9c.1 0 .3.1.4.1-.2-.1-.3-.1-.4-.1z"/><path id="XMLID_211_" class="st15" d="M111 88.9c.1 0 .3.1.4.1-.2-.1-.3-.1-.4-.1z"/><path id="XMLID_214_" class="st14" d="M114.8 90c-.4-.2-.8-.3-1-.4-.3-.1-.7-.2-1-.3.4.1.7.2 1 .3.2.1.6.2 1 .4z"/><path id="XMLID_213_" class="st15" d="M114.8 90c-.4-.2-.8-.3-1-.4-.3-.1-.7-.2-1-.3.4.1.7.2 1 .3.2.1.6.2 1 .4z"/><path id="XMLID_216_" class="st14" d="M105.6 88.1h.2-.2z"/><path id="XMLID_215_" class="st15" d="M105.6 88.1h.2-.2z"/><path id="XMLID_218_" class="st14" d="M102.5 87.9s.7 0 1.8.1c-1.1-.1-1.8-.1-1.8-.1z"/><path id="XMLID_217_" class="st15" d="M102.5 87.9s.7 0 1.8.1c-1.1-.1-1.8-.1-1.8-.1z"/><path id="XMLID_219_" class="st16" d="M194.3 172c1.7 4.4 4.5 12.1 7.5 23.4h10.5v29.4c10.9-9.6 20.2-20.9 27.3-33.7-6-2.9-14.1-6.6-20.8-8.8-8.3-2.7-15.4-5.2-24.5-10.3z"/><path id="XMLID_220_" d="M175.7 166.1c1.7 3.6-.2 17.3-2.3 29.3h28.4c-3-11.3-5.8-19-7.5-23.4-1.2-3.1-1.9-4.6-1.9-4.6-9-10.5-21.6-11.5-21.6-11.5v.4c.5.7 1 1.3 1.3 1.9 1.1 2.1 1.8 4.1 3.6 7.9z" fill="#42416d"/><path id="XMLID_221_" d="M165.3 157.4c-1.3 2.2-3.1 5.2-5 8.6-4.6 8-10.2 18.5-14.2 27.7-.2.6-.5 1.1-.7 1.7h3.4c1.3-3 2.5-5.1 3.2-5.2 3.5-.1 6.1 2.6 7.7 5.2h13.7c2.1-12 4-25.8 2.3-29.3-1.8-3.8-2.5-5.9-3.6-7.9-.3-.6-.8-1.2-1.3-1.9-.8-1-1.7-2-2.8-3.4 0 0-1.1 1.7-2.7 4.5z" fill="#8c8d8d"/><path id="XMLID_222_" class="st19" d="M152 190.2c-.8.1-1.9 2.2-3.2 5.2h10.9c-1.6-2.6-4.2-5.3-7.7-5.2z"/><path id="XMLID_223_" d="M54.2 195.4c3-11.3 5.8-19 7.5-23.4-9.2 5.2-16.2 7.6-24.5 10.4-6.8 2.2-14.9 5.9-20.8 8.8 7.2 12.7 16.4 24.1 27.3 33.7v-29.4h10.5z" fill="#2b294d"/><path id="XMLID_224_" class="st16" d="M82.6 195.4c-2.1-12-4-25.8-2.3-29.3 1.8-3.8 2.5-5.9 3.6-7.9.3-.6.8-1.2 1.3-1.9v-.4s-12.6 1-21.6 11.5c0 0-.7 1.5-1.9 4.6-1.7 4.4-4.5 12.1-7.5 23.4h28.4z"/><path id="XMLID_225_" class="st19" d="M80.3 166.1c-1.7 3.6.2 17.3 2.3 29.3h13.7c1.6-2.6 4.2-5.3 7.7-5.2.8.1 1.9 2.2 3.2 5.2h3.4c-.2-.5-.4-1-.7-1.6-4-9.3-9.7-19.9-14.3-28-1.8-3.2-3.5-6-4.8-8.2-1.5-2.6-2.6-4.3-2.8-4.7 0-.1-.1-.1-.1-.1-1.1 1.3-2 2.4-2.8 3.4-.5.7-1 1.3-1.3 1.9-1 2.2-1.7 4.2-3.5 8z"/><path id="XMLID_226_" d="M104 190.2c-3.5-.1-6.1 2.6-7.7 5.2h10.9c-1.3-3-2.4-5-3.2-5.2z" fill="#5a5c5c"/><path id="XMLID_227_" class="st22" d="M201.8 195.4H128v61.1c2 0 4-.1 5.9-.1-1.8-6.8-1.9-13.8-1.4-18.1.6-4.4 4.8-10.7 8-14.4 0 0 1.6-.1 2.3.2s-1.8 4.4-1.8 4.4 8.4-5.5 13.1-5.6c4.7-.1 8.9 4.3 11.9 17 .8 3.3 1 6.9 1 10.6 4.2-1.3 8.3-2.9 12.3-4.6-.1-.5-.1-1-.1-1.5 0-4.5 3.7-8.1 8.1-8.1h9.9c5.4-3.4 10.5-7.3 15.2-11.5v-29.4h-10.6z"/><path id="XMLID_228_" class="st22" d="M156.9 225.2c-5.4-1.9-17.6 6.7-17.6 6.7-3.7 3.4-5.2 4.7-4.9 10.9.2 3.1.5 8.1 1.5 13.4 10.3-.6 20.3-2.5 29.8-5.4v-1.1c-.5-6.8-3.5-22.5-8.8-24.5z"/><path id="XMLID_229_" class="st3" d="M187.1 236.3c-4.5 0-8.1 3.7-8.1 8.1 0 .5 0 1 .1 1.5 6.3-2.7 12.3-5.9 17.9-9.6h-9.9z"/><path id="XMLID_230_" d="M117.1 195.4H43.7v29.4c4.8 4.2 9.9 8 15.2 11.5h9.9c4.5 0 8.1 3.7 8.1 8.1 0 .5 0 1-.1 1.5 10.7 4.7 22.2 7.9 34.2 9.5-.4-12.2-1-27.9-1.1-30.4-.3-4 .2-5.2 2.1-5.6s.7 2.2.7 2.2c-.4 1.1-.5 8.8-.5 13.1 0 2 .3 11.2.7 20.8 4.9.6 9.9.9 14.9.9v-61.1h-10.7z" fill="#a8a8aa"/><path id="XMLID_231_" class="st1" d="M68.9 236.3H59c5.7 3.7 11.7 6.9 17.9 9.6.1-.5.1-1 .1-1.5 0-4.5-3.6-8.1-8.1-8.1z"/><path id="XMLID_232_" d="M112.8 221.7s1.2-2.6-.7-2.2-2.4 1.5-2.1 5.6c.2 2.5.7 18.2 1.1 30.4.6.1 1.3.2 1.9.2-.4-9.7-.7-18.8-.7-20.8 0-4.4.2-12.1.5-13.2z" fill="#30373a"/><path id="XMLID_233_" d="M165.9 239.9c-3-12.7-7.2-17.1-11.9-17-4.7.1-13.1 5.6-13.1 5.6s2.5-4.1 1.8-4.4-2.3-.2-2.3-.2c-3.1 3.7-7.4 9.9-8 14.4-.5 4.2-.4 11.3 1.4 18.1.7 0 1.3-.1 2-.1-1-5.4-1.4-10.3-1.5-13.4-.3-6.1 1.2-7.4 4.9-10.9 0 0 12.2-8.6 17.6-6.7s8.3 17.7 8.8 24.4v1.1c.4-.1.8-.2 1.1-.4.2-3.5 0-7.2-.8-10.5z" fill="#4f575b"/></g></g></svg>