<svg id="Layer_1" xmlns="http://www.w3.org/2000/svg" width="256" height="256"><style>.st1{fill:#c08c76}.st3{fill:#d8aa91}.st4{fill:#b8927d}.st5{fill:#d6d4d4}.st8{fill:#b27d6b}.st10{fill:#a1806e}.st11{fill:#a0a0a1}.st14{fill:#414667}.st15{fill:#51577d}.st16{fill:#6b7291}.st17{fill:#474c6f}.st19{fill:#757780}.st21{fill:#393939}.st22{fill:#424242}</style><g id="XMLID_4_"><circle id="XMLID_90_" cx="128" cy="128.5" r="128" fill="#b2b4b5"/><g id="XMLID_3_"><path id="XMLID_128_" class="st1" d="M156.3 168.5c-.2.1-.4.2-.7.3-1.5.7-3.8 2-3.8 2-.8.6-1.9 1.6-3.5 2.9-1.6 1.3-4.2 2.3-6.9 2.9l5.9 22.3c-.2.4-.4.8-.7 1.3 6.6-5.5 13.9-13.9 20.1-26.6 1.3-10.5 1.7-19 1.6-25.7 0-.1 0-.2-.1-.3-1.3 4.4-2.5 8.2-3.4 10.8-2 6.2-5.8 8.9-8.5 10.1z"/><path id="XMLID_129_" class="st1" d="M128 210.4s4.5-.9 11-4.8c.9-6.6-1.4-20.5-2.8-28.1-4.3.6-7.9.7-8.3.7v32.2h.1z"/><path id="XMLID_130_" d="M139 205.6c2.3-1.4 4.9-3.2 7.6-5.5.3-.5.6-.9.7-1.3l-5.9-22.3c-1.7.4-3.5.7-5.2 1 1.4 7.7 3.7 21.6 2.8 28.1z" fill="#a87b67"/><path id="XMLID_131_" class="st1" d="M183.8 81.4c-.8 2.5 1.5 7.3 1.5 7.3l-1.9-.5.6 4.3-2.1-1.9s-.3 5.3-.8 7.9c-.3 1.6-1.3 4.5-2 6.5-.4 2.2-.7 4.2-1 5.9-.6 3.6-2 9.3-3.8 15.5 6.1 1.7 7.8-5.1 9.6-10.4 2.1-6.1 1.6-14.5.8-19.5s1.9-5.3 1.4-13.4c-.1-.9-.3-1.6-.6-2.1s-1.1-1.1-1.7.4z"/><path id="XMLID_132_" class="st3" d="M138.4 78c-2.8-.6-5.2-.8-10.5-.8v1.6c.4 0 5.4-.1 10.5-.8z"/><path id="XMLID_133_" class="st3" d="M127.9 80.7v5.7h22.2c3.3-.8 5.8-.5 7.6 0h3.9c4.9 0 9.3 1.4 10.1 5.3h5.5c.4-1.9.9-4.4.4-5.3-.3-.5-.6-1.4-.9-2.4-.8.2-1.6.4-2.5.6-10.1 1.5-13 0-24.7-3.4-3.2-.9-5.5-1.6-7.3-2.2-4.1.9-9.3 1.7-14.3 1.7z"/><path id="XMLID_134_" class="st3" d="M127.9 94c.3 0 1.9-.1 4.1 1.1 0 0 2.7-4.4 5.9-6.1 0-.2 0-.3.1-.5h-10V94z"/><path id="XMLID_137_" class="st3" d="M158.9 114.2c.3 0 .5 0 .8-.1-.3.1-.5.1-.8.1z"/><path id="XMLID_138_" class="st3" d="M138.3 91.5c-.4.2-.7.5-1.1.7.4-.2.8-.4 1.1-.7z"/><path id="XMLID_139_" class="st3" d="M156.3 168.5l-.6.3c.1-.1.4-.2.6-.3z"/><path id="XMLID_142_" class="st3" d="M179.2 105c-.4 1.2-.8 2.1-.8 2.1v-8.6l-1.3 1.5c-.5-3.1 1.3-7.4 1.3-7.4l-1.1.7v.6h-5.5s1.7 11.1-2 15.4c-3.7 4.3-6 6.9-14.7 6.9s-13.9 0-18.1-7.7c-4.2-7.7-6-12.1-6-12.1s-1.2-.7-3.1-.7V135c.4 0 6 .3 9.4-3.7 0 0 4.3-.1 6.7 1.9v-.7s3.2 1.2 4.1 1.8 1.1-1.4 1-3c0 0 1 4.2 1.9 5.6 1 1.4 1.7 3.8 1.7 3.8l-1.6-.6s1 1.6 1 1.9c0 .4-1.7 0-1.7 0v2.4s-3.6-1.4-4.9-2.6c-1.3-1.2-1 1.3-1 1.3l-3.4-1.4s-.1 2.2-1.7 1.6c-1.6-.6-3.7-.8-5-.2-1.3.6-2 1.4-6.5 1.4v33.8c.4 0 4-.1 8.3-.7 1.7-.2 3.5-.5 5.2-1 2.8-.7 5.3-1.6 6.9-2.9 1.6-1.3 2.8-2.3 3.5-2.9 0 0 3.8-7.3 3.1-11.7-.7-4.4-1.5-8.3-1.5-8.3s4.3 10.1 1.6 17c0 0 3.5-4 5.4-8.4 0 0-2.7 8.6-4.1 9.1 2.7-1.2 6.6-3.9 8.5-10.2.8-2.6 2-6.4 3.4-10.8 2-6.5 4.3-14.1 6.3-21.1 1.8-6.3 3.2-11.9 3.8-15.5.2-1.7.5-3.7.9-5.9zm-29.9 26c-2.4-3.5-6.5-9.8-10.4-11 0 0 6.4 1.7 10.9 9.1 4.6 7.4 7 9.7 7.7 15.7.1 0-5.4-9.7-8.2-13.8z"/><path id="XMLID_143_" class="st4" d="M155.6 168.7c.2-.1.5-.2.6-.3 1.4-.5 4.1-9.1 4.1-9.1-1.9 4.4-5.4 8.4-5.4 8.4 2.7-6.9-1.6-17-1.6-17s.8 3.8 1.5 8.3c.7 4.4-3.1 11.7-3.1 11.7.1 0 2.4-1.3 3.9-2z"/><path id="XMLID_144_" class="st5" d="M176.7 83.9c.3 1 .6 1.9.9 2.4.5.9 0 3.4-.4 5.3h.3v1.6l1.1-.7s-1.8 4.4-1.3 7.4l1.3-1.5v8.6s.3-.9.8-2.1c.7-2 1.7-4.9 2-6.5.5-2.6.8-7.9.8-7.9l2.1 1.9-.6-4.3 1.9.5s-2.3-4.8-1.5-7.3c.5-1.6 1.3-1 1.9-.5 0-.7.3-2.4.8-4.4-2.2 2.8-5.4 6.1-10.1 7.5z"/><path id="XMLID_146_" class="st4" d="M127.9 78.8v1.9c5.1 0 10.3-.8 14.2-1.7-1.4-.4-2.6-.7-3.7-1-5.1.7-10.1.8-10.5.8z"/><path id="XMLID_148_" class="st5" d="M134.4 143c1.3-.6 3.5-.4 5 .2 1.6.6 1.7-1.6 1.7-1.6l3.4 1.4s-.4-2.5 1-1.3c1.3 1.2 4.9 2.6 4.9 2.6V142s1.7.4 1.7 0-1-1.9-1-1.9l1.6.6s-.7-2.4-1.7-3.8-1.9-5.6-1.9-5.6c.1 1.6-.1 3.6-1 3s-4.1-1.8-4.1-1.8v.7c-2.4-2-6.7-1.9-6.7-1.9-3.4 4.1-9 3.7-9.4 3.7v9.5c4.5-.1 5.2-.9 6.5-1.5z"/><path id="XMLID_149_" class="st4" d="M149.9 129.1c-4.6-7.4-10.9-9.1-10.9-9.1 3.8 1.2 8 7.5 10.4 11 2.8 4.1 8.3 13.8 8.3 13.8-.8-6-3.3-8.3-7.8-15.7z"/><path id="XMLID_150_" class="st5" d="M144.9 88.9c.6-.1 1.1-.2 1.7-.3-.6.1-1.1.2-1.7.3z"/><path id="XMLID_151_" class="st5" d="M150.1 86.3h7.6c-1.8-.5-4.4-.7-7.6 0z"/><path id="XMLID_152_" class="st5" d="M138.8 88.5h-.9c0 .1-.1.3-.1.5.3-.2.7-.4 1-.5z"/><path id="XMLID_153_" class="st5" d="M140.5 90.3c.3-.1.6-.3.8-.4-.2.1-.5.2-.8.4z"/><path id="XMLID_154_" class="st5" d="M143 89.3c.5-.1 1.1-.3 1.6-.4-.6.2-1.1.3-1.6.4z"/><path id="XMLID_155_" class="st5" d="M139.6 90.8c-.4.2-.9.5-1.3.8.5-.3.9-.6 1.3-.8z"/><path id="XMLID_156_" class="st5" d="M147.7 88.4c.9-.1 1.7-.2 2.5-.3-.8.1-1.7.2-2.5.3z"/><path id="XMLID_157_" class="st5" d="M150.2 88.1c.5-.1 1-.1 1.5-.1-.5 0-1 .1-1.5.1z"/><path id="XMLID_160_" d="M137 108.6c4.2 7.7 9.3 7.7 18.1 7.7s11-2.6 14.7-6.9c3.7-4.3 2-15.4 2-15.4h5.5v-2.2h-5.8c-.7-3.8-5.1-5.3-10.1-5.3h-33.7v2.2h10.9c-.3.1-.6.3-1 .5-3.2 1.8-5.9 6.1-5.9 6.1-2.2-1.2-3.8-1.1-4.1-1.1V96c1.9 0 3.1.7 3.1.7s2.1 4.3 6.3 11.9zm.3-16.3c.3-.3.7-.5 1.1-.7.4-.3.9-.5 1.3-.8.3-.2.6-.3.9-.5.3-.1.6-.3.8-.4.3-.1.6-.2.8-.3.3-.1.5-.2.8-.2.5-.1 1.1-.3 1.6-.4.1 0 .2 0 .3-.1.6-.1 1.1-.2 1.7-.3.4-.1.7-.1 1.1-.2.9-.1 1.7-.2 2.5-.3.5-.1 1-.1 1.5-.1 1.1-.1 1.8-.1 1.8-.1 1.9 0 3.7.1 5.5.2 5.4.4 9.9 1.4 10.7 3.7.7 1.9 1 4.4 1 6.9 0 1.6-.2 3.1-.5 4.5-.2.8-.4 1.6-.7 2.3-.3.7-.7 1.4-1.2 2.1-2 3-5.3 6.1-8.5 6.5-.3 0-.5.1-.8.1h-7.8c-5.5 0-8.5-1.8-11.3-5.4-2.8-3.6-5.5-8.6-5.5-12.6 0-1.3 1.3-2.7 2.9-3.9z" fill="#907047"/><path id="XMLID_161_" d="M151.1 114.2h7.8c.3 0 .5 0 .8-.1 3.2-.5 6.6-3.6 8.5-6.5.5-.7.9-1.5 1.2-2.1.3-.7.5-1.4.7-2.3.3-1.4.5-2.9.5-4.5 0-2.5-.3-5-1-6.9-.8-2.3-5.4-3.3-10.7-3.7-1.8-.1-3.7-.2-5.5-.2 0 0-.7 0-1.8.1-.4 0-.9.1-1.5.1-.8.1-1.6.2-2.5.3-.3 0-.7.1-1.1.2-.6.1-1.1.2-1.7.3-.1 0-.2 0-.3.1-.6.1-1.1.2-1.6.4-.3.1-.6.2-.8.2-.2.1-.5.2-.8.3-.2.1-.5.2-.8.4-.3.1-.6.3-.9.5-.4.2-.9.5-1.3.8-.4.2-.7.5-1.1.7-1.6 1.2-2.9 2.6-2.9 4 0 4 2.8 9 5.5 12.6 2.8 3.6 5.8 5.3 11.3 5.3z" opacity=".6" fill="#3b1400"/><path id="XMLID_162_" class="st8" d="M108.8 199.6c-.2-.3-.3-.5-.4-.7l5.9-22.3c-2.8-.7-5.3-1.6-6.9-2.9-1.6-1.3-2.8-2.3-3.5-2.9 0 0-2.3-1.3-3.8-2l-.6-.3c-2.7-1.2-6.6-3.9-8.5-10.2-.8-2.5-1.9-6-3.1-10.1-.1 6.7.3 15.1 1.6 25.3 5.9 12.3 12.9 20.6 19.3 26.1z"/><path id="XMLID_163_" class="st8" d="M116.7 205.4c6 3.7 10.4 4.8 11.2 5v-32.2s-3.8-.1-8.3-.7c-1.5 7.6-3.7 21.3-2.9 27.9z"/><path id="XMLID_164_" d="M108.8 199.6c2.8 2.4 5.5 4.3 7.9 5.8-.8-6.6 1.4-20.3 2.8-27.9-1.7-.2-3.5-.5-5.2-1l-5.9 22.3c.1.3.3.5.4.8z" fill="#906958"/><path id="XMLID_165_" class="st8" d="M76.5 105c-.7-2-1.7-4.9-2-6.5-.5-2.6-.8-7.9-.8-7.9l-2.1 1.9.6-4.3-1.9.5s2.3-4.8 1.5-7.3c-.5-1.6-1.3-1-1.9-.5-.3.5-.5 1.2-.6 2.1-.5 8.1 2.2 8.5 1.4 13.4s-1.3 13.4.8 19.5c1.8 5.4 3.5 12.2 9.6 10.4-1.8-6.3-3.2-11.9-3.8-15.5-.1-1.6-.4-3.6-.8-5.8z"/><path id="XMLID_168_" class="st1" d="M87.8 147.8v.4c1.3 4 2.4 7.6 3.1 10.1 1.9 6.3 5.8 9 8.5 10.2-1.4-.5-4.1-9.1-4.1-9.1 1.9 4.4 5.4 8.4 5.4 8.4-2.7-6.9 1.6-17 1.6-17s-.8 3.8-1.5 8.3c-.7 4.4 3.1 11.7 3.1 11.7.8.6 1.9 1.6 3.5 2.9 1.6 1.3 4.2 2.3 6.9 2.9 1.7.4 3.5.7 5.2 1 4.5.6 8.3.7 8.3.7v-33.8c-4.6 0-5.2-.8-6.5-1.4-1.3-.6-3.5-.4-5 .2-1.6.6-1.7-1.6-1.7-1.6l-3.4 1.4s.4-2.5-1-1.3c-1.3 1.2-4.9 2.6-4.9 2.6V142s-1.7.4-1.7 0 1-1.9 1-1.9l-1.6.6s.7-2.4 1.7-3.8 1.9-5.6 1.9-5.6c-.1 1.6.1 3.6 1 3s4.1-1.8 4.1-1.8v.7c2.4-2 6.7-1.9 6.7-1.9 3.5 4.2 9.4 3.7 9.4 3.7V95.8c-1.9 0-3.2.7-3.2.7s-1.8 4.4-6 12.1c-4.2 7.7-9.3 7.7-18.1 7.7s-11-2.6-14.7-6.9c-3.7-4.3-2-15.4-2-15.4h-5.5v-.6l-1.1-.7s1.8 4.4 1.3 7.4l-1.3-1.5v8.6s-.3-.9-.8-2.1c.4 2.2.7 4.2 1 5.9.6 3.6 2 9.3 3.8 15.5 1 3.7 2.2 7.6 3.3 11.4.1 0 .2-.1.3-.2.1 0 1 3.1 3 10.1zm18-18.7c4.6-7.4 10.9-9.1 10.9-9.1-3.8 1.2-8 7.5-10.4 11-2.8 4.1-8.3 13.8-8.3 13.8.8-6 3.3-8.3 7.8-15.7z"/><path id="XMLID_169_" class="st1" d="M118.4 92.3c-.3-.3-.7-.5-1.1-.7.4.2.8.4 1.1.7z"/><path id="XMLID_170_" class="st1" d="M96.8 114.2c-.3 0-.5 0-.8-.1.3.1.5.1.8.1z"/><path id="XMLID_171_" class="st1" d="M84.1 91.6c.7-3.8 5.1-5.3 10.1-5.3h3.9c1.8-.5 4.3-.8 7.6 0H128v-5.7c-5 0-10.2-.8-14.2-1.7-1.8.5-4.1 1.2-7.3 2.1-11.8 3.4-14.7 4.9-24.7 3.4-.9-.1-1.8-.3-2.6-.6-.3 1-.6 1.9-.9 2.4-.5.9 0 3.4.4 5.3h5.4z"/><path id="XMLID_172_" class="st1" d="M127.9 78.8v-1.6c-5.3 0-7.7.1-10.5.8 5.2.8 10.5.8 10.5.8z"/><path id="XMLID_173_" class="st1" d="M127.8 88.5h-10c0 .1.1.3.1.5 3.2 1.8 5.9 6.1 5.9 6.1 2.3-1.3 4-1.1 4.1-1.1l-.1-5.5z"/><path id="XMLID_174_" class="st1" d="M100.1 168.7c-.2-.1-.5-.2-.6-.3.1.2.3.3.6.3z"/><path id="XMLID_175_" class="st10" d="M99.4 168.5l.6.3c1.5.7 3.8 2 3.8 2s-3.8-7.3-3.1-11.7c.7-4.4 1.5-8.3 1.5-8.3s-4.3 10.1-1.6 17c0 0-3.5-4-5.4-8.4.1 0 2.8 8.6 4.2 9.1z"/><path id="XMLID_179_" class="st11" d="M71.8 81.4c.8 2.5-1.5 7.3-1.5 7.3l1.9-.5-.6 4.3 2.1-1.9s.3 5.3.8 7.9c.3 1.6 1.3 4.5 2 6.5.4 1.2.8 2.1.8 2.1v-8.6l1.3 1.5c.5-3.1-1.3-7.4-1.3-7.4l1.1.7v-1.6h.3c-.4-1.9-.9-4.4-.4-5.3.3-.5.6-1.4.9-2.4-4.8-1.5-8-4.9-9.9-7.5.5 2.1.9 3.9.9 4.6.3-.6 1.1-1.2 1.6.3z"/><path id="XMLID_180_" class="st10" d="M127.9 80.7v-1.9s-5.2 0-10.5-.8c-1.1.2-2.3.6-3.7 1 3.9.9 9.1 1.7 14.2 1.7z"/><path id="XMLID_181_" class="st11" d="M127.9 135s-5.9.5-9.4-3.7c0 0-4.3-.1-6.7 1.9v-.7s-3.2 1.2-4.1 1.8-1.1-1.4-1-3c0 0-1 4.2-1.9 5.6-1 1.4-1.7 3.8-1.7 3.8l1.6-.6s-1 1.6-1 1.9c0 .4 1.7 0 1.7 0v2.4s3.6-1.4 4.9-2.6c1.3-1.2 1 1.3 1 1.3l3.4-1.4s.1 2.2 1.7 1.6c1.6-.6 3.7-.8 5-.2 1.3.6 2 1.4 6.5 1.4V135z"/><path id="XMLID_182_" class="st10" d="M98.1 144.8s5.5-9.6 8.3-13.8c2.4-3.5 6.5-9.8 10.4-11 0 0-6.4 1.7-10.9 9.1-4.6 7.4-7.1 9.7-7.8 15.7z"/><path id="XMLID_183_" class="st11" d="M98.1 86.3h7.6c-3.3-.7-5.9-.5-7.6 0z"/><path id="XMLID_184_" class="st11" d="M109.1 88.6c.6.1 1.1.2 1.7.3-.6-.1-1.1-.2-1.7-.3z"/><path id="XMLID_185_" class="st11" d="M104.1 88c.4 0 .9.1 1.5.1-.6 0-1.1-.1-1.5-.1z"/><path id="XMLID_186_" class="st11" d="M111.1 89c.6.1 1.1.2 1.6.4-.5-.2-1-.3-1.6-.4z"/><path id="XMLID_187_" class="st11" d="M117.4 91.5c-.4-.3-.9-.5-1.3-.8.4.3.8.6 1.3.8z"/><path id="XMLID_188_" class="st11" d="M114.3 89.9c.2.1.5.2.8.4-.2-.2-.5-.3-.8-.4z"/><path id="XMLID_189_" class="st11" d="M116.9 88.5c.3.1.6.3 1 .5 0-.2 0-.3-.1-.5h-.9z"/><path id="XMLID_193_" d="M127.9 94c-.1 0-1.8-.2-4.2 1.1 0 0-2.7-4.4-5.9-6.1-.3-.2-.6-.3-1-.5h11v-2.2H94c-4.9 0-9.3 1.4-10.1 5.3h-5.8v2.2h5.5s-1.7 11.1 2 15.4c3.7 4.3 6 6.9 14.7 6.9s13.9 0 18.1-7.7c4.2-7.7 6-12.1 6-12.1s1.2-.7 3.2-.7V94zm-12.1 14.9c-2.8 3.6-5.7 5.4-11.3 5.4h-7.8c-.3 0-.5 0-.8-.1-2.4-.3-4.9-2.2-6.8-4.3-1.3-1.4-2.3-3-2.9-4.3-.2-.4-.4-.9-.5-1.5-1-3.7-.8-8.9.3-12.2.8-2.3 5.4-3.3 10.7-3.7 1.8-.1 3.7-.2 5.5-.2 0 0 .7 0 1.8.1.4 0 .9.1 1.5.1.8.1 1.6.2 2.5.3.3 0 .7.1 1.1.2.6.1 1.1.2 1.7.3.1 0 .2 0 .3.1.6.1 1.1.2 1.6.4.3.1.6.2.8.2.2.1.5.2.8.3.2.1.5.2.8.4.3.1.6.3.9.5.4.2.9.5 1.3.8.4.2.7.5 1.1.7 1.6 1.2 2.9 2.6 2.9 4 0 3.9-2.7 8.9-5.5 12.5z" fill="#785d39"/><path id="XMLID_194_" d="M118.4 92.3c-.3-.3-.7-.5-1.1-.7-.4-.3-.9-.5-1.3-.8-.3-.2-.6-.3-.9-.5-.3-.1-.6-.3-.8-.4-.3-.1-.6-.2-.8-.3-.3-.1-.5-.2-.8-.2-.5-.1-1.1-.3-1.6-.4-.1 0-.2 0-.3-.1-.6-.1-1.1-.2-1.7-.3-.4-.1-.7-.1-1.1-.2-.9-.1-1.7-.2-2.5-.3-.5-.1-1-.1-1.5-.1-1.1-.1-1.8-.1-1.8-.1-1.9 0-3.7.1-5.5.2-5.4.4-9.9 1.4-10.7 3.7-1.2 3.3-1.3 8.6-.3 12.2.1.5.3 1 .5 1.5.6 1.3 1.6 2.9 2.9 4.3 1.9 2.1 4.4 4 6.8 4.3.3 0 .5.1.8.1h7.8c5.5 0 8.5-1.8 11.3-5.4 2.8-3.6 5.5-8.6 5.5-12.6 0-1.3-1.3-2.7-2.9-3.9z" opacity=".6" fill="#2b0200"/><path id="XMLID_195_" class="st14" d="M150.2 10.6c23.3 12.8 32.6 50 33.9 56 1.2 1.3 2.3 2.7 3.2 4.2s1.9.1 1.3 2.4c0 0 4-7.6-2.2-28.6-9.2-31.4-38.3-34.7-38.3-34.7 1.9.3 2.1.7 2.1.7z"/><path id="XMLID_197_" class="st15" d="M127.9 8.9l2.4.2v39.2c8.9.5 39.7 3.1 53.7 18.3-1.4-5.9-10.7-43.2-33.9-56 0 0-.1-.3-1.9-.6-2.3-.6-7.8-1.1-20.3-1.1z"/><path id="XMLID_200_" class="st16" d="M130.4 9l-2.4-.2v39.3c.2 0 1.1 0 2.4.1V9z"/><path id="XMLID_201_" class="st17" d="M149.4 78.3c9.1 4.2 26.2 8.2 32.9-.5 3.8-4.3 5-7 5-7.1-.9-1.5-2-2.9-3.2-4.2-14.1-15.1-44.8-17.8-53.7-18.3-1.4-.1-2.2-.1-2.4-.1v26.1c1.4.1 12.9.2 21.4 4.1z"/><path id="XMLID_202_" class="st16" d="M187.3 70.7s-1.2 2.7-5 7.1c-6.7 8.8-23.8 4.7-32.9.5-8.5-3.9-20-4.1-21.4-4.1l-.1 3c5.3 0 7.7.1 10.5.8 1.1.2 2.3.6 3.7 1 1.9.5 4.1 1.2 7.3 2.2 11.8 3.4 14.7 4.9 24.7 3.4.9-.1 1.7-.3 2.5-.6 4.7-1.5 7.9-4.7 9.9-7.3 1.5-2 2.2-3.5 2.2-3.5.6-2.4-1.4-2.5-1.4-2.5z"/><path id="XMLID_203_" class="st16" d="M127.9 74.3s.1 0 0 0c.1 0 .1 0 0 0z"/><path id="XMLID_204_" d="M68.5 70.7c.9-1.5 2-2.9 3.2-4.2 1.3-5.9 10.5-43.2 33.8-56 0 0-30.1 4.1-36.3 34C64.8 65.9 67 73.1 67 73.1c-.4-2.3 1.5-2.4 1.5-2.4z" fill="#323652"/><path id="XMLID_205_" class="st17" d="M127.9 48.2v.9V8.9v39.3z"/><path id="XMLID_206_" class="st17" d="M71.7 66.5c14-15.1 44.8-17.8 53.7-18.3V9l2.5-.2c-21.6 0-22.3 1.7-22.3 1.7-23.3 12.8-32.5 50.1-33.9 56z"/><path id="XMLID_207_" class="st15" d="M125.4 9v39.2c1.6-.1 2.5-.1 2.5-.1V8.9l-2.5.1z"/><path id="XMLID_208_" class="st14" d="M127.9 49v-.9s-.9 0-2.5.1c-8.9.5-39.7 3.1-53.7 18.3-1.2 1.3-2.3 2.7-3.2 4.2 0 0 1.2 2.7 5 7.1 6.7 8.8 23.8 4.7 32.9.5 8.8-4 20.7-4.1 21.5-4.1V49z"/><path id="XMLID_209_" class="st15" d="M79 83.9c.8.3 1.7.5 2.6.6 10.1 1.5 13 0 24.7-3.4 3.2-.9 5.4-1.6 7.3-2.1 1.4-.4 2.6-.7 3.7-1 2.8-.6 5.2-.8 10.5-.8l.1-3c-.9 0-12.7 0-21.5 4.1-9.1 4.2-26.2 8.2-32.9-.5-3.8-4.3-5-7-5-7.1s-1.9.1-1.3 2.4c0 0 .6 1.4 2 3.3 1.8 2.6 5.1 6 9.8 7.5z"/><path id="XMLID_210_" class="st19" d="M154.4 205.4c-3.3.2-26.4 9.1-26.4 9.1v42c8.6 0 17.1-.9 25.2-2.5 1.3-13.3 3.5-28 6.4-43.2-2.2-3.2-4.2-5.5-5.2-5.4z"/><path id="XMLID_211_" d="M146.5 200.2c-2.7 2.3-5.3 4-7.6 5.5-6.4 3.9-11 4.8-11 4.8v4.1s23.1-8.9 26.4-9.1c1-.1 3 2.2 5.2 5.5.9-4.4 1.8-8.9 2.8-13.4 2-8.9 3.3-16.8 4.2-23.9-6.1 12.5-13.4 20.9-20 26.5z" fill="#8e909b"/><path id="XMLID_212_" class="st21" d="M219.6 189.9c-11.3-7.1-19.3-16-31.8-19.7 0 0-4.1-15-6.9-19.4-2.8-4.4-4.9-10.5-9.7-13.1 0 0-.9 3.1-2.9 10.1.1 6.7-.3 15.3-1.6 25.7-.9 7.1-2.2 15-4.2 23.9-1 4.5-1.9 8.9-2.8 13.4-2.9 15.1-5.1 29.8-6.4 43.2 7.8-1.6 15.4-3.9 22.7-6.8 5.1-18.1 7.1-37.1 7.1-37.1 14.9-1.7 30.3-1.4 43.9-.4 2.7-3.3 5.2-6.7 7.6-10.2-5.3-3.1-10.5-6.3-15-9.6z"/><path id="XMLID_213_" class="st22" d="M183 210.1s-2 19.1-7.1 37.1c20-8.1 37.5-21.1 51-37.5-13.6-1-29-1.3-43.9.4z"/><path id="XMLID_214_" d="M219.6 189.9c4.5 3.2 9.7 6.5 14.9 9.6.7-1 1.3-2 2-3.1-9.2-3.7-16.4-6.3-16.9-6.5z" fill="#525151"/><path id="XMLID_215_" d="M128 214.5s-23.1-8.9-26.4-9.1c-1-.1-3 2.2-5.2 5.5 2.9 15.1 5.1 29.8 6.4 43.2 8.2 1.6 16.6 2.5 25.2 2.5v-42.1z" fill="#5f6169"/><path id="XMLID_216_" class="st19" d="M127.9 210.4c-.8-.2-5.2-1.3-11.2-5-2.4-1.5-5.1-3.4-7.9-5.8-6.4-5.5-13.4-13.8-19.4-26 .9 7.1 2.2 15 4.2 23.9 1 4.5 1.9 8.9 2.8 13.4 2.2-3.2 4.2-5.5 5.2-5.5 3.3.2 26.4 9.1 26.4 9.1v-4.1h-.1z"/><path id="XMLID_217_" d="M93.6 197.5c-2-8.9-3.3-16.8-4.2-23.9-1.3-10.3-1.7-18.7-1.6-25.3v-.4c-2-7-2.9-10.1-2.9-10.1-.1 0-.2.1-.3.2-4.6 2.6-6.7 8.6-9.4 12.9-2.8 4.4-6.9 19.4-6.9 19.4-12.5 3.8-20.5 12.6-31.8 19.7-4.5 3.2-9.7 6.5-14.9 9.6 2.4 3.5 4.9 6.9 7.6 10.2 13.6-1 29-1.3 43.9.4 0 0 2 19.1 7.1 37.1 7.3 2.9 14.8 5.2 22.7 6.8-1.3-13.3-3.5-28-6.4-43.2-1-4.5-1.9-8.9-2.9-13.4z" fill="#2e2e2e"/><path id="XMLID_218_" class="st21" d="M29.1 209.7c13.5 16.4 31 29.4 51 37.5-5.1-18-7.1-37.1-7.1-37.1-14.9-1.7-30.3-1.4-43.9-.4z"/><path id="XMLID_219_" class="st22" d="M36.4 189.9c-.5.2-7.7 2.7-16.9 6.5.7 1 1.3 2.1 2 3.1 5.2-3.1 10.4-6.3 14.9-9.6z"/></g></g></svg>