<svg xmlns="http://www.w3.org/2000/svg" width="256" height="256"><circle fill="#B2B4B5" cx="128" cy="128" r="128"/><path fill="none" d="M128.1 220.8h-.1V256h.2v-35.2h-.1z"/><path fill="#100D0E" d="M163.6 168c-.1 2.7-.2 5.3-.1 7.6 3.6-1.7 8.9-3.1 11.9-7.7 7.4-11.5-.3-15.2-.9-15.4-.3-.1-.6-.2-1-.3-.3 3.7-2.3 6.5-4.3 9.6-1.2 1.8-3.5 4.2-5.6 6.2z"/><path fill="#C08C76" d="M159.9 179.8c-.2-2 1.3-3.2 3.5-4.2 0-2.3 0-4.8.1-7.6-1.5 1.4-2.8 2.6-3.7 3.5 0 0-5.2 5.5-9.7 5.1-1.9-.2-3.7-.9-5.1-1.6l-2.7 1.6h-14.2v21.1s19.9-2.9 33.4-8.4c-.8-4.2-1.4-7.9-1.6-9.5z"/><path fill="#B27D6B" d="M128.1 197.7v-21.1h-12.4L113 175c-1.4.7-3.2 1.4-5.1 1.6-4.5.4-9.7-5.1-9.7-5.1-.9-.8-2.4-2.2-3.9-3.6v8.6c1.2.8 2 1.8 1.9 3.3-.1 1.6-.8 5.3-1.5 9.6 13.5 5.5 33.4 8.4 33.4 8.3v23.1h.1v-23.1h-.1z"/><path fill="#B5C6D3" d="M135 213.3s21.2-2.8 29.4-8.1c-.6-2.9-1.3-6.4-1.9-9.9-9.9 3.9-24 8.7-34.5 8.7v52c4.1 0 8.1-.2 12.1-.6-2.2-25-5.1-42.1-5.1-42.1z"/><path fill="#9CACB7" d="M161.4 189.4c-13.5 5.5-33.4 8.4-33.4 8.4v6.3c10.4 0 24.6-4.8 34.5-8.7-.3-2.1-.7-4.2-1.1-6z"/><path fill="#331A1E" d="M175.4 167.9c-3 4.6-8.3 6-11.9 7.7-2.2 1-3.7 2.1-3.5 4.2.1 1.6.8 5.3 1.5 9.6.3 1.9.7 3.9 1.1 5.9.7 3.5 1.4 7 1.9 9.9l.7 3.8c10.8-4 16.9-9 16.9-9l2.4 1-2-1 12.6-12.6.4-3.8c-4.2-3.5-9-8.6-10.2-14.4-3.5-16.8-6.6-15.7-11-16.8.8.3 8.4 4 1.1 15.5z"/><path fill="#260D12" d="M195.2 187.4l.4-.4s25.6 2.6 33.3 6.3c-11-7.1-33.3-9.7-33.3-9.7l-.4 3.8z"/><path fill="#57565A" d="M195.6 187l-.4.4-12.7 12.6 2 1 27.5 11c-1.4 4.8-2.7 10.2-4 15.9 10.9-8.7 20.3-19.2 27.8-31-2.7-1.3-5.2-2.5-7.1-3.4-7.5-3.9-33.1-6.5-33.1-6.5z"/><path fill="#352C31" d="M164.5 205.2c-8.3 5.4-29.4 8.1-29.4 8.1l18.5-1.1c4.3-.9 8.2-2 11.7-3.3l-.8-3.7z"/><path fill="#352C31" d="M153.5 212.2l-18.5 1.1s2.9 17 5.1 42.1c5.4-.5 10.7-1.3 15.9-2.5-1.2-22.6-2.5-40.7-2.5-40.7z"/><path fill="#683936" d="M212.1 211.9l-27.5-11-2.4-1s-6.1 5-16.9 9c-3.4 1.3-7.3 2.4-11.7 3.3 0 0 1.2 18.1 2.4 40.7l2.7-.6c-1-22.8-2.1-40.6-2.1-40.6l2.1-.5 1.7 35.8 7.6 1.6v1.2c9.7-3.2 19-7.5 27.5-12.9-3.8-18.7-4.2-30.2-4.2-30.2l17.3 7.3s-2.2 7.2-4.4 17.1c1.3-1 2.7-2 4-3.1 1.2-5.9 2.5-11.3 3.9-16.1z"/><path fill="#4E4345" d="M160.5 246.9l-1.7-35.8-2.1.5s1.1 17.9 2.1 40.6c3.1-.8 6.3-1.7 9.3-2.7v-1.2l-7.6-1.4z"/><path fill="#785E5E" d="M208.6 213.8l-17.3-7.3s.5 11.5 4.2 30.2c3-1.8 5.9-3.8 8.7-5.9 2.2-9.8 4.4-17 4.4-17z"/><path fill="#040001" d="M80.6 167.9c3.5 5.4 10.3 6.4 13.6 8.6v-8.6c-2.1-2-4.3-4.3-5.4-6.1-2.1-3.2-4.2-6.1-4.4-10-1 .1-2 .4-2.9.7-.6.2-8.2 3.9-.9 15.4z"/><path fill="#9CACB7" d="M127.9 204c-10.4 0-24.6-4.8-34.5-8.7-.7 3.5-1.4 7-1.9 9.9 8.3 5.4 29.4 8.1 29.4 8.1s-2.9 17-5.1 42.1c4 .4 8 .6 12.1.6v-52z"/><path fill="#8998A2" d="M94.6 189.4c-.3 1.9-.7 3.9-1.1 5.9 9.9 3.9 24 8.7 34.5 8.7v-6.3c-.1 0-19.9-2.9-33.4-8.3z"/><path fill="#260D12" d="M94.6 189.4c.8-4.3 1.4-7.9 1.5-9.6.1-1.5-.6-2.5-1.9-3.3-3.3-2.2-10.1-3.2-13.6-8.6-7.4-11.5.3-15.2.9-15.4-4.4 1.1-7.5 0-11 16.8-1.2 5.7-6 10.8-10.2 14.4l.4 3.8L73.5 200l-2 1 2.4-1s6.1 5 16.9 9l.7-3.8c.6-2.9 1.3-6.4 1.9-9.9.4-2 .8-4.1 1.2-5.9z"/><path fill="#22070C" d="M60.4 183.6s-22.3 2.5-33.3 9.7c7.7-3.7 33.3-6.3 33.3-6.3l.4.4-.4-3.8z"/><path fill="#3A343A" d="M43.9 211.9l27.5-11 2-1-12.6-12.6-.4-.4s-25.6 2.6-33.3 6.3c-1.9.9-4.4 2.1-7.1 3.4 7.5 11.8 17 22.3 27.8 31-1.2-5.5-2.5-10.9-3.9-15.7z"/><path fill="#261D22" d="M102.5 212.2l18.5 1.1s-21.2-2.8-29.4-8.1l-.7 3.8c3.3 1.2 7.2 2.4 11.6 3.2zm18.5 1.1l-18.5-1.1s-1.2 18.1-2.4 40.7c5.2 1.2 10.5 2 15.9 2.5 2.1-25 5-42.1 5-42.1z"/><path fill="#532B28" d="M102.5 212.2c-4.3-.9-8.2-2-11.7-3.3-10.8-4-16.9-9-16.9-9l-2.4 1-27.5 11c1.4 4.8 2.7 10.2 4 15.9 1.3 1 2.6 2.1 4 3.1-2.2-9.9-4.4-17.1-4.4-17.1l17.3-7.3s-.5 11.5-4.2 30.2c8.5 5.3 17.8 9.7 27.5 12.9v-1.2l7.6-1.6 1.7-35.8 2.1.5s-1.1 17.9-2.1 40.6l2.7.6c1-22.4 2.3-40.5 2.3-40.5z"/><path fill="#3E3537" d="M99.4 211.6l-2.1-.5-1.7 35.8-7.6 1.6v1.2c3.1 1 6.2 1.9 9.3 2.7 1-22.9 2.1-40.8 2.1-40.8z"/><path fill="#683936" d="M47.4 213.8s2.2 7.2 4.4 17.1c2.8 2.1 5.7 4 8.7 5.9 3.8-18.7 4.2-30.2 4.2-30.2l-17.3 7.2z"/><path fill="#4D3017" d="M82.5 42.8c0-1.6.1-4.8 2.6-5.6s9.9-8.6 9.9-8.6-5 8.6-7.4 9.2c-1.7.4-2.2 3.3-2.4 5 .5.1 1 .3 1.4.7C91 41 96.9 32.1 98.1 30.1c.2-.3.3-.5.2-.4l-.2.4c-1.2 2.1-6.3 11.9-9.2 17.4.4 1.1.7 2.3.9 3.5 5.3-3.1 14.2-9.1 16.4-15.3 3.3-9.1 21.8-10.9 21.8-10.9-16.8 6.5-17.9 16-19.4 23.7-1.1 5.4-12 5.6-18.4 5.2.7 4.8.8 9.5.8 9.5l.4.2c.9-1 2.2-2.2 4.1-3.2 3.4-1.8 9.3-4.8 17.8-5.1h4.1c2.4-2 9.4-2.5 11.2-2.6V8.1c-2.6.2-16.4 1.4-21.7 5.7-5.9 4.8-10.1 9.7-12.9 10.7-2.9 1-6.2 4.8-7.3 8s-5.6 5.1-5.7 6.9-4.2 6.1-2.9 12.1c.2.8.4 1.6.5 2.3.8-3.4 2-7.3 3.7-9.4.2-.7.2-1.2.2-1.6z"/><path fill="#36190A" d="M98.1 30.1l.2-.4s-.1.1-.2.4zm-10.4 7.7c2.4-.6 7.4-9.2 7.4-9.2s-7.4 7.8-9.9 8.6-2.6 4.1-2.6 5.6c0 .3-.1.9-.1 1.6.8-1 1.8-1.6 2.8-1.5h.1c0-1.8.6-4.7 2.3-5.1zm-1 5.7c.9.8 1.6 2.2 2.2 3.9 2.9-5.4 8-15.2 9.2-17.4-1.2 2.1-7.1 11-11.4 13.5zm21.9 4.9c1.5-7.7 2.6-17.2 19.4-23.7 0 0-18.5 1.8-21.8 10.9C104 41.9 95.1 47.9 89.8 51c.2.9.3 1.7.5 2.6 6.3.4 17.3.3 18.3-5.2z"/><path fill="#5C3C21" d="M140.2 54.9c.1 0 .1.1.2.1h.8l-1-.1z"/><path fill="#5C3C21" d="M129 52.4h.2c.9 0 3 .2 5.2.6-1.5-3.7-.2-10.1-.2-10.1l3.1 6.8c-1.2-4-1.5-12.4-1.5-12.4 1.1 7.5 8.7 15.5 11.2 17.9 7.2.7 12.4 3.3 15.5 4.9 1.9 1 3.2 2.1 4.1 3.2l.4-.2s.2-9.7 2.2-15.7c-2.9-5.4-8-15.2-9.2-17.4l-.2-.4s.1.1.2.4c1.2 2 7.1 10.9 11.4 13.4.4-.4.9-.6 1.4-.7-.2-1.7-.8-4.6-2.4-5-2.4-.6-7.4-9.2-7.4-9.2s7.4 7.8 9.9 8.6c2.5.8 2.6 4.1 2.6 5.6 0 .3.1.9.1 1.6 1.7 2.1 2.9 6 3.7 9.4.2-.7.4-1.5.5-2.3 1.3-6.1-2.7-10.4-2.9-12.1s-4.6-3.7-5.7-6.9c-1.1-3.2-4.5-7-7.3-8-2.9-1-7-5.9-12.9-10.7-5.4-4.3-19.2-5.5-21.7-5.7h-.4l.1 44.4c-.2 0-.1 0 0 0zM144.8 25c5.9.6 7.1 13.1 5.4 17.8-1.7 4.8 9.8 14.9 9.5 14.7-11.5-4.7-14.7-9.9-15-16.2-.2-6.3-4.3-9.4-4.3-9.4 3.3.9 4.6 2.8 5.2 4.7 0-1.6.1-3.4.1-5 .1-4.1-16.5-6.5-16.5-6.5s9.7-.7 15.6-.1z"/><path fill="#402214" d="M145.7 31.6c0 1.6-.1 3.4-.1 5-.5-1.8-1.9-3.7-5.2-4.7 0 0 4.1 3.1 4.3 9.4s3.5 11.6 15 16.2c.3.1-11.1-10-9.5-14.7 1.7-4.8.5-17.2-5.4-17.8-5.9-.6-15.6.1-15.6.1s16.6 2.4 16.5 6.5zM141.2 55h3.3c.8 0 1.6.1 2.3.2-2.5-2.4-10.1-10.4-11.2-17.9 0 0 .3 8.5 1.5 12.4l-3.1-6.8s-1.2 6.3.2 10.1c2.2.4 4.6 1 5.9 1.9l1.1.1zm18.5-25.3l.2.4c-.2-.3-.3-.4-.2-.4zm11.6 13.8c-4.3-2.5-10.2-11.4-11.4-13.4 1.2 2.1 6.3 11.9 9.2 17.4.6-1.7 1.3-3.2 2.2-4zm4.3.9c-.1-.7-.1-1.2-.1-1.6 0-1.6-.1-4.8-2.6-5.6s-9.9-8.6-9.9-8.6 5 8.6 7.4 9.2c1.7.4 2.2 3.3 2.4 5h.1c.9 0 1.9.6 2.7 1.6z"/><path fill="#373839" d="M141.6 172c-2.1-2.2-2.2-4.3-2.4-5.7-.1-.7 0-1.5.4-2.4l-2.8-.1c-.8 1-1.5 1.8-1.5 1.8s-1.3 4.1-1.9 4.6c-.4.4-3.2.5-4.3.6v5.8h13.1l2.7-1.6c-2-1-3.3-2.1-3.3-2.1v-.9zm18.9-59.1s.7-.5 1.7-1.3c-1 .9-1.7 1.3-1.7 1.3zm8.9-1.6c-.9 1.7-2.8 3.3-4.6 4.6l-2.8 18.5-2.2 1.7v2.3l2.1 1.3 4.5-5.2s1-.9 2.7-1l1.8-2.5s4.4-7.9 5.4-12.9l-1.7-.3 2.4-24.7c-.1.1-.2.1-.3.2h-3.1c-.2-1.4-.4-2.7-.5-3.9l-1.1 1.5c1 9.5-1.1 17.4-2.6 20.4z"/><path fill="#373839" d="M176.3 118.2c-1 5-5.4 12.9-5.4 12.9l-1.8 2.5c1.5-.2 3.5.2 5.8 2.2.5.4.9.9 1.3 1.3l-.4-4 1.4-4.2-.6-1.3 3.2-9.9-1.8.8-1.7-.3z"/><path fill="#6D6C73" d="M178.6 74c.7-1.4 1.7-2.5 2.9-2.9-1.2.4-2.2 1.5-2.9 2.9z"/><path fill="#6D6C73" d="M172.8 42.9s-.1 0 0 0c-.6.1-1 .3-1.5.7-.9.8-1.6 2.2-2.2 3.9-2 6-2.2 15.7-2.2 15.7l-.4.2c.8 1 1.2 1.9 1.2 2.4v9.5l.4 4.2c.8.7 1.3 1.1 1.3 1.1l-.1.1.7 1c1.1 3.2 1.8 6.4 2.1 9.5l1.1-1.5c-1.6-15.7 5.1-18.5 5.1-18.5h3.4s.8.8 1.5 2.9c-.2-4.9-2.6-13.8-2.6-13.8s-.4-3-1.2-6.4-2-7.3-3.7-9.4c-.9-1.1-1.9-1.7-2.9-1.6z"/><path fill="#373839" d="M158.8 137l-1.9-.6-2.7 1.9-6.6 4.7-1 .7-1.2.8s1.2-16.7 1.5-18.6.6-2.7 2.4-4.6c1.6-1.7 2.6-3 2.6-3s-6.9-6.6-12.2-8.5c-5-1.8-7.7-2.3-10.4-2.4v1.2c1.8 0 9.2.7 21.3 10.2l-3.2 3.9s-9-6-10.3-7-2.8-1.3-3.4-.6c-.6.7-1.9.9-4.4 1v.7c.9 0 3.2-.1 3.7-.5.6-.5 1.6-1.4 2.4-1 .8.4 1.9 1.2 1.9 1.2v1.1l4.4 3h1.3l4 2.6-.9 3.5s-8.3-4.9-9.4-5.7c-1.1-.8-1.7-1.6-3.2-.6-1.4 1-1.8 1.1-2.8 1.2h-1.4v.7c.9 0 3.2-.1 3.7-.5.6-.5 1.6-1.4 2.4-1 .8.4 1.6.9 1.6.9v1.1l4.3 3 1.2-.2 3.2 1.9-.8 4s-7.1-4.3-8.3-5.1c-1.1-.8-1.7-1.6-3.2-.6-1.4 1-1.8 1.1-2.8 1.2h-1.4v.7c.9 0 3.2-.1 3.7-.5.6-.5 1.6-1.4 2.4-1 .8.4 1.6.9 1.6.9v1.1l4.3 3 1.2-.2 2.4 1.4-.1 4.1s-6.9-3.9-8.1-4.7c-1.1-.8-1.7-1.6-3.2-.6-1.4 1-1.8 1.1-2.8 1.2h-1.4v.5c.9 0 3.2-.1 3.7-.5.6-.5 1.6-1.4 2.4-1 .8.4 1.6.9 1.6.9v1.1l3.8 2.5 1.2-.2 2.6 1.5-.2 3.4s-5.9-2.7-7.2-3.5c-1.2-.7-2.4-2.2-3.6-1.1-1.3 1.1-1.3.8-2.3.9H129v.8h2.6c.7 0 1.5-.5 1.8-.7s.9-.8 1.6-.4c.7.5 1.4.9 1.4.9l.2 1 3.9 2h1.2l2.5 1v1.6l-2.6 1.8s-5.7-2.7-6.9-3.3-1.9-1-3-.3c-.9.6-1.6 1-2.8.6v1l1.1.4 3.3-.5 9.6 5-1.3 5.7 1 1-1.6 3.2s-4.2-6.4-5.2-8-2.1-1.9-3-1.9H129v.8h3.4c.8 0 2.1.2 3.1 1.5.4.5 1 1.5 1.7 2.5 1.4 2 2.7 4.3 2.7 4.3.4.8.8 1.9.1 2.9-.6.7-2.1 2.6-3.3 4.1l2.8.1c0-.1.1-.2.1-.3V162l4.4-6.9-1.1-1.8 1.1-5.7 3-1.8 11.1-8.2 1.6 1v-2.3l-.9.7zm1.2-18.2l-2.3-.9v-.1l-.2.1zm-11-3.8c-1.4-1.2-3.1-2.4-5.1-3.6 1.8 1.2 3.6 2.5 5.1 3.6z"/><path fill="#CBCBCA" d="M133.6 115.1c.6-.7 2-.5 3.4.6 1.3 1 10.3 7 10.3 7l3.2-3.9c-12.1-9.5-19.5-10.2-21.3-10.2v7.4c2.4.1 3.8-.2 4.4-.9z"/><path fill="#CBCBCA" d="M130.6 121.4c1 0 1.4-.2 2.8-1.2s2-.2 3.2.6c1.1.8 9.4 5.7 9.4 5.7l.9-3.5-4-2.6h-1.3l-4.4-3v-1.1s-1.1-.7-1.9-1.2c-.8-.4-1.8.5-2.4 1-.5.4-2.8.5-3.7.5v4.7c.3.2.8.2 1.4.1z"/><path fill="#CBCBCA" d="M130.6 126.8c1 0 1.4-.2 2.8-1.2s2-.2 3.2.6c1.1.8 8.3 5.1 8.3 5.1l.8-4-3.2-1.9-1.2.2-4.3-3v-1.1s-.8-.5-1.6-.9-1.8.5-2.4 1c-.5.4-2.8.5-3.7.5v4.7h1.3z"/><path fill="#CBCBCA" d="M130.6 132.2c1 0 1.4-.2 2.8-1.2s2-.2 3.2.6c1.1.8 8.1 4.7 8.1 4.7l.1-4.1-2.4-1.4-1.2.2-4.3-3v-1s-.8-.5-1.6-.9-1.8.5-2.4 1c-.5.4-2.8.5-3.7.5v4.7c.3-.1.8-.1 1.4-.1z"/><path fill="#CBCBCA" d="M131.4 136.7c1 0 1 .2 2.3-.9 1.2-1 2.4.4 3.6 1.1 1.3.8 7.2 3.5 7.2 3.5l.2-3.4-2.6-1.5-1.2.2-3.8-2.5v-1.1s-.8-.5-1.6-.9-1.8.5-2.4 1c-.5.4-2.8.5-3.7.5v4h2z"/><path fill="#CBCBCA" d="M132 141c1-.7 1.8-.3 3 .3s6.9 3.3 6.9 3.3l2.6-1.8v-1.6l-2.5-1h-1.2l-3.9-2-.2-1s-.8-.4-1.4-.9c-.7-.5-1.3.1-1.6.4s-1.1.7-1.8.7h-2.6v4.1c1.1.5 1.7.1 2.7-.5z"/><path fill="#767676" d="M133 147.6c.9-.1 2 .3 3 1.9s5.2 8 5.2 8l1.6-3.2-1-1 1.3-5.7-9.6-5-3.3.5-1.1-.4v5c1 0 3.2 0 3.9-.1z"/><path fill="#E9E9E9" d="M132 161.8l1.8 3-1.6 4.3h-2.9v1.7c1.1 0 3.8-.2 4.3-.6.5-.5 1.9-4.6 1.9-4.6s.6-.8 1.5-1.8c1.2-1.4 2.8-3.3 3.3-4.1.7-1 .4-2.1-.1-2.9l-3.9 5.7-1.4-12.9c.8.4 1.8 1.6 2.7 2.9-.7-1-1.3-2-1.7-2.5-1-1.3-2.3-1.5-3.1-1.5h-3.4v13.3h2.6z"/><path fill="#C4BCBF" d="M129.2 163.6v1.2h4.5l-1.7-3h-2.8z"/><path fill="#393134" d="M133.7 164.8h-4.5v4.2h2.9z"/><path fill="#B4B3B4" d="M134.6 149.6l1.4 12.9 3.9-5.7s-1.2-2.3-2.7-4.3c-.8-1.3-1.8-2.5-2.6-2.9z"/><path fill="#C4B5A2" d="M156.1 119l-1.9 19.3 2.7-1.9 1.9.6 1-.8 2.2-1.7 2.8-18.5c-2.4 1.7-4.8 2.9-4.8 2.9l-2.5-.8-1.4.9zm-26.9-15.2c2.4.2 15 1.5 26.4 11.6l2.3-1.2.1-1.8s7.3-5.7 7.9-9c.6-3.4 2-10.9-.2-19.8 0 0-1.5 2.4-2.8 4.1.8 1.4 1.4 3.2 1.7 5.2 1.4 8.2-3.1 14.4-10.7 15.3-7.6 1-13.5-1-15.1-10.4-1.6-9.3 6.6-13.9 12-14.9 5-1 9.1.3 11.6 3.9.9-1.2 2-2.7 2.7-3.9 0 0-6.3-.9-9-.7-2.7.2-6.8.4-18.7 2.8 0 0-.9 3.7-2.2 4.8-1.2 1.1-2.8 1.8-6.1 2.1v11.9h.1z"/><path fill="#C4B5A2" d="M136.7 85.2l-7.5.3v5.8c1.5 0 6.8-.4 7.5-6.1z"/><path fill="#3C3537" d="M155.5 115.4c-11.3-10.2-24-11.5-26.4-11.6v2.9c1.6.1 7.6.6 12 3.1.9.5 1.8 1.1 2.7 1.7 2.1 1.2 3.8 2.5 5.1 3.6 1.9 1.4 3.3 2.5 3.3 2.5h.2l.1-.6 3-1.6z"/><path fill="#9E9E9E" d="M151.8 118.4s-.9 1.3-2.6 3c-1.7 1.9-2 2.7-2.4 4.6-.3 1.9-1.5 18.6-1.5 18.6l1.2-.8s1.1-14.4 1.3-16.9c.2-2.5.7-4.2 2-5.4.9-.9 1.9-1.8 2.4-2.3l-.1-.3.2-1.2h-.2s-1.3-1.1-3.3-2.5c-1.5-1.1-3.3-2.4-5.1-3.6-.9-.6-1.8-1.2-2.7-1.7-4.3-2.5-10.4-3-12-3.1v.8c2.7 0 5.4.6 10.4 2.4 5.4 1.8 12.4 8.4 12.4 8.4z"/><path fill="#9E9E9E" d="M154.3 120.3l-1.6.2c-.6.6-1.3 1.2-1.8 1.8-1.1 1.1-1.6 4-1.9 7.8s-.9 12.6-.9 12.6l-.5.3 6.6-4.7 1.9-19.3-1.8 1.3z"/><path fill="#3C3537" d="M146.2 82.6c-4.2 1.1-14.8 1.9-17 2v.8l7.5-.3c-.7 5.7-6 6.2-7.5 6.2v.8c3.3-.3 4.8-1 6.1-2.1s2.2-4.8 2.2-4.8c11.9-2.5 15.9-2.6 18.7-2.8 2.7-.2 9 .7 9 .7-.7 1.2-1.8 2.7-2.7 3.9.2.3.4.5.5.8 1.3-1.8 2.8-4.1 2.8-4.1 2.2 8.9.7 16.4.2 19.8-.6 3.4-7.9 9-7.9 9l-.1 1.8.7-.4s2.3 0 1.1 2.5l-2 1.5v.1l2.3.9.5-5.8s.7-.5 1.7-1.3c2.2-1.9 6-5.7 6.7-10.4v-.1c1-6.7-1.1-17.3-1.1-17.3l2.1-2.3-.7-1-1.9 2c-7.9-3.9-15.5-1.5-21.2-.1z"/><path fill="#464646" d="M155.5 115.4l-3 1.6-.1.6-.2 1.2.1.3c.2-.2.4-.3.4-.3s1.5-.5 1.1.8c0 0-.5.4-1.1 1l1.6-.2 1.8-1.3 1.5-1.1.2-.1 2-1.5c1.2-2.5-1.1-2.5-1.1-2.5l-.7.4-2.5 1.1z"/><path fill="#B7B7B8" d="M148.9 130.2c.3-3.9.8-6.8 1.9-7.8.5-.5 1.3-1.2 1.8-1.8.6-.6 1.1-1 1.1-1 .4-1.3-1.1-.8-1.1-.8s-.2.1-.4.3c-.5.5-1.5 1.4-2.4 2.3-1.3 1.3-1.7 2.9-2 5.4-.2 2.5-1.3 16.9-1.3 16.9l1-.7.5-.3s.6-8.7.9-12.5z"/><path fill="#3C3537" d="M150.8 82.9c-5.3 1-13.6 5.6-12 14.9s7.5 11.3 15.1 10.4c7.6-1 12.1-7.1 10.7-15.3-.3-2.1-.9-3.8-1.7-5.2-.2-.3-.3-.6-.5-.8-2.5-3.7-6.6-4.9-11.6-4zM163 96.5c0 6.2-5 11.3-11.3 11.3s-11.3-5-11.3-11.3 5-11.3 11.3-11.3S163 90.3 163 96.5z"/><path fill="#9E9E9E" d="M151.8 85.2c-6.2 0-11.3 5-11.3 11.3s5 11.3 11.3 11.3 11.3-5 11.3-11.3-5.1-11.3-11.3-11.3zm9.4 11.3c0 5.2-4.2 9.5-9.5 9.5-5.2 0-9.5-4.2-9.5-9.5s4.2-9.5 9.5-9.5 9.5 4.3 9.5 9.5z"/><circle fill="#EB2C27" cx="151.8" cy="96.5" r="9.5"/><path fill="#7A7980" d="M149 76.4c-10 2.2-12.3 3.8-19.8 3.9v4.4c2.2-.2 12.8-1 17-2 5.7-1.4 13.3-3.8 21.1 0l1.9-2 .1-.1s-.4-.5-1.3-1.1c.1-.1-8.9-5.3-19-3.1zm19.9 24.8c-.7 4.7-4.5 8.6-6.8 10.5-1 .8-1.7 1.3-1.7 1.3l-.5 5.8s2.4-1.1 4.8-2.9c1.8-1.3 3.7-2.9 4.6-4.6 1.6-3 3.6-10.9 2.6-20.2-.3-3.1-1-6.3-2.1-9.5l-2.1 2.3c.1 0 2.2 10.6 1.2 17.3zm-39.7-24.8c1.1-.1 4.5-.4 8.1-1.1l3.1-20.3c-.1 0-.1-.1-.2-.1-1.3-1-3.6-1.6-5.9-1.9-2.2-.4-4.3-.5-5.2-.6v4.5l.1 19.5zm10.7-1.6c1.1-.3 2.2-.5 3.2-.9 5.7-1.8 20.8-1 24.6 1.2v-9.5c0-.5-.4-1.4-1.2-2.4-.9-1-2.2-2.2-4.1-3.2-3.1-1.6-8.3-4.2-15.5-4.9-.8-.1-1.5-.1-2.3-.2l-4.7 19.9z"/><path fill="#6D6C73" d="M139.9 74.8l4.7-19.8h-4.1l-3.1 20.3c.8-.2 1.6-.3 2.5-.5z"/><path fill="#49494E" d="M143.1 73.9c-1 .3-2.1.6-3.2.9-.8.2-1.7.4-2.6.5-3.6.6-7 1-8.1 1.1v3.8c7.5-.1 9.8-1.7 19.8-3.9 10.1-2.2 19.1 3 19.1 3l-.4-4.2c-3.9-2.1-18.9-3-24.6-1.2zm33.6 19.6s-1.2-13.3 1.9-19.5c.7-1.4 1.7-2.5 2.9-2.9h-3.4s-6.7 2.8-5.1 18.5c.1 1.2.3 2.5.5 3.9h3.2zm-.4 24.7l1.7.3 2-24.7s-.8-1.9-2.9-.6l-2.4 24.7 1.6.3z"/><path fill="#7A7980" d="M178.6 74c-3.1 6.2-1.9 19.5-1.9 19.5.1-.1.2-.2.3-.2 2.1-1.4 2.9.6 2.9.6l-2 24.7 1.8-.8.4-.2s3.6-24.3 4-33.8c.2-4.6-.4-7.7-1.1-9.7-.7-2.1-1.5-2.9-1.5-2.9-1.2.3-2.2 1.4-2.9 2.8z"/><path fill="#767676" d="M174.9 135.8c-2.3-2-4.3-2.3-5.8-2.2-1.7.2-2.7 1-2.7 1l-4.5 5.2 1 .6c3.6 1 9.7 4 10.5 9.1 0 .2 0 .4.1.5 1.2-1.5 3.2-3.9 3.5-4.3.4-.6 2.4-4.8-.8-8.6-.4-.4-.8-.9-1.3-1.3z"/><path fill="#9E9E9E" d="M144.1 147.4l-1.1 5.7 1.1 1.8-4.4 6.9v1.7c.8-1.5 2.3-2.9 4.7-3.1 8-.7 10.6 6.8 9.9 9.7-.7 2.9-3 7.3-8.9 4.4-1.7-.8-2.9-1.7-3.8-2.6l.2.8s1.3 1.1 3.3 2.1c1.4.7 3.2 1.4 5.1 1.6 4.5.4 9.7-5.1 9.7-5.1-.6.6-1.1.9-1.1.9 1.4-12.7-9.6-18.4-9.6-18.4l-2.5-2.9.4-5.5-3 2z"/><path fill="#49494E" d="M162.8 140.4l-1-.6-2.1-1.3-1.6-1-11.1 8.2-.4 5.5 2.5 2.9s10.9 5.7 9.6 18.4c0 0 .4-.4 1.1-.9.9-.8 2.3-2 3.7-3.5 2.1-2.1 4.4-4.5 5.6-6.2 2-3.1 4.1-5.9 4.3-9.6 0-.7 0-1.4-.1-2.1 0-.2 0-.4-.1-.5-.6-5.3-6.8-8.3-10.4-9.3z"/><path fill="#373839" d="M139.2 166.3c.2 1.4.3 3.6 2.4 5.7.9.9 2.1 1.7 3.8 2.6 5.9 2.9 8.2-1.5 8.9-4.4s-1.9-10.3-9.9-9.7c-2.4.2-3.9 1.6-4.7 3.1 0 .1-.1.2-.1.3-.4.8-.5 1.7-.4 2.4z"/><path fill="#2A2A2B" d="M129.2 176.6v-5.8s-4.1-.1-4.7-.6c-.5-.5-1.9-4.6-1.9-4.6s-.6-.8-1.5-1.8l-2.8.1c.4.8.5 1.7.4 2.4-.2 1.4-.3 3.6-2.4 5.7l-.2.8s-1.3 1.1-3.3 2.1l2.7 1.6h13.7v.1zm-31.7-63.7s-.7-.5-1.7-1.3c1 .9 1.7 1.3 1.7 1.3zM96 134.4l-2.8-18.5c-1.8-1.3-3.7-2.9-4.6-4.6-1.6-3-3.6-10.9-2.6-20.2l-1.1-1.5c-.1 1.2-.3 2.5-.5 3.9h-3.1c-.1-.1-.2-.2-.3-.2l2.4 24.7-1.7.3c1 5 5.4 12.9 5.4 12.9l1.8 2.5c1.7.2 2.7 1 2.7 1l4.5 5.2 2.1-1.3v-2.3l-2.2-1.9z"/><path fill="#303032" d="M83.1 135.8c2.3-2 4.3-2.3 5.8-2.2l-1.8-2.5s-4.4-7.9-5.4-12.9l-1.7.3-1.8-.8 3.2 9.9-.6 1.3 1.4 4.2-.4 4c.4-.4.8-.9 1.3-1.3z"/><path fill="#5A5A5F" d="M76.4 71.1c1.2.4 2.2 1.5 2.9 2.9-.7-1.4-1.6-2.5-2.9-2.9z"/><path fill="#5A5A5F" d="M79.8 71.1s6.7 2.8 5.1 18.5l1.1 1.5c.3-3.1 1-6.3 2.1-9.5l.7-1-.1-.1s.4-.5 1.3-1.1l.4-4.2v-9.5c0-.5.4-1.4 1.2-2.4l-.4-.2s-.1-4.6-.8-9.5c-.1-.9-.3-1.8-.5-2.6-.3-1.2-.6-2.5-.9-3.5-.6-1.7-1.3-3.1-2.2-3.9-.4-.4-.9-.6-1.4-.7h-.1c-1.1-.1-2 .5-2.8 1.5-1.7 2.1-2.9 6-3.7 9.4-.8 3.5-1.2 6.4-1.2 6.4S75.2 69.1 75 74c.7-2.1 1.5-2.9 1.5-2.9h3.3z"/><path fill="#2A2A2B" d="M113.9 147.4l1.1 5.7-1.1 1.8 4.4 6.9v1.7c0 .1.1.2.1.3l2.8-.1c-1.2-1.4-2.8-3.3-3.3-4.1-.7-1-.4-2.1.1-2.9 0 0 1.2-2.3 2.7-4.3.7-1 1.3-2 1.7-2.5 1-1.3 2.3-1.5 3.1-1.5h3.8v-.8s-3.3.1-4.2 0-2 .3-3 1.9c-1 1.6-5.2 8-5.2 8l-1.6-3.2 1-1-1.3-5.7 9.6-5 3.3.5 1.6-.5v-1c-1.5.6-2.1.2-3.2-.5-1-.7-1.8-.3-3 .3s-6.9 3.3-6.9 3.3l-2.6-1.8v-1.6l2.5-1h1.2l3.9-2 .2-1s.8-.4 1.4-.9c.7-.5 1.3.1 1.6.4s1.1.7 1.8.7h3v-.8h-2.6c-1 0-1 .2-2.3-.9-1.2-1-2.4.4-3.6 1.1-1.3.8-7.2 3.5-7.2 3.5l-.2-3.4 2.6-1.5 1.2.2 3.8-2.5v-1.1s.8-.5 1.6-.9 1.8.5 2.4 1 4.1.5 4.1.5v-.5h-1.9c-1 0-1.4-.2-2.8-1.2s-2-.2-3.2.6c-1.1.8-8.1 4.7-8.1 4.7l-.1-4.1 2.4-1.4 1.2.2 4.3-3v-1s.8-.5 1.6-.9 1.8.5 2.4 1 4.1.5 4.1.5v-.7h-1.9c-1 0-1.4-.2-2.8-1.2s-2-.2-3.2.6c-1.1.8-8.3 5.1-8.3 5.1l-.8-4 3.2-1.9 1.2.2 4.3-3v-1.1s.8-.5 1.6-.9 1.8.5 2.4 1 4.1.5 4.1.5v-.7H127c-1 0-1.4-.2-2.8-1.2s-2-.2-3.2.6c-1.1.8-9.4 5.7-9.4 5.7l-.9-3.5 4-2.6h1.3l4.4-3v-1.1s1.1-.7 1.9-1.2c.8-.4 1.8.5 2.4 1s4.1.5 4.1.5v-.7c-2.7 0-4.2-.2-4.8-1-.6-.7-2-.5-3.4.6-1.3 1-10.3 7-10.3 7l-3.2-3.9c13.9-11 21.7-10.2 21.7-10.2v-1.2c-2.9 0-5.5.5-10.8 2.4s-12.2 8.5-12.2 8.5.9 1.3 2.6 3c1.7 1.9 2 2.7 2.4 4.6.3 1.9 1.5 18.6 1.5 18.6l-1.2-.8-1-.7-6.6-4.7-2.7-1.9-1.9.6-1-.8v2.3l1.6-1 11.1 8.2 3.3 1.8zm-13.6-29.6v.1l-2.3.9 2.5-.9zm13.8-6.4c-2.1 1.2-3.8 2.5-5.1 3.6 1.4-1.1 3.3-2.4 5.1-3.6z"/><path fill="#A0A2A2" d="M129.2 108.7s-7.7-.8-21.7 10.2l3.2 3.9s9-6 10.3-7 2.8-1.3 3.4-.6c.6.7 2.1 1 4.8 1v-7.5z"/><path fill="#A0A2A2" d="M129.2 116.8s-3.5 0-4.1-.5-1.6-1.4-2.4-1-1.9 1.2-1.9 1.2v1.1l-4.4 3h-1.3l-4 2.6.9 3.5s8.3-4.9 9.4-5.7c1.1-.8 1.7-1.6 3.2-.6s1.8 1.1 2.8 1.2h1.9v-2.9l-.1-1.9z"/><path fill="#A0A2A2" d="M129.2 123.8v-1.7s-3.5 0-4.1-.5-1.6-1.4-2.4-1-1.6.9-1.6.9v1.1l-4.3 3-1.2-.2-3.2 1.9.8 4s7.1-4.3 8.3-5.1c1.1-.8 1.7-1.6 3.2-.6s1.8 1.1 2.8 1.2h1.9v-3h-.2z"/><path fill="#A0A2A2" d="M125.1 127.1c-.6-.5-1.6-1.4-2.4-1s-1.6.9-1.6.9v1.1l-4.3 3-1.2-.2-2.4 1.4.1 4.1s6.9-3.9 8.1-4.7c1.1-.8 1.7-1.6 3.2-.6 1.4 1 1.8 1.1 2.8 1.2h1.9v-4.7c-.1-.1-3.6-.1-4.2-.5z"/><path fill="#A0A2A2" d="M125.1 132.3c-.6-.5-1.6-1.4-2.4-1s-1.6.9-1.6.9v1.1l-3.8 2.5-1.2-.2-2.6 1.5.2 3.4s5.9-2.7 7.2-3.5c1.2-.7 2.4-2.2 3.6-1.1 1.3 1.1 1.3.8 2.3.9h2.6v-4c-.2-.1-3.7-.1-4.3-.5z"/><path fill="#A0A2A2" d="M128.8 137.5h-2.6c-.7 0-1.5-.5-1.8-.7s-.9-.8-1.6-.4c-.7.5-1.4.9-1.4.9l-.2 1-3.9 2H116l-2.5 1v1.6l2.6 1.8s5.7-2.7 6.9-3.3c1.2-.6 1.9-1 3-.3 1 .7 1.7 1 3.2.5v-4c-.3-.1-.4-.1-.4-.1z"/><path fill="#646565" d="M129.2 142.5l-1.6.5-3.3-.5-9.6 5 1.3 5.7-1 1 1.6 3.2s4.2-6.4 5.2-8 2.1-1.9 3-1.9h4.2v-5h.2z"/><path fill="#C4BCBF" d="M129.2 169h-3.3l-1.6-4.3 1.8-3h3.2v-13.3h-3.8c-.8 0-2.1.2-3.1 1.5-.4.5-1 1.5-1.7 2.5.9-1.3 1.9-2.5 2.7-2.9l-1.4 12.9-3.9-5.7c-.4.8-.8 1.9-.1 2.9.6.7 2.1 2.6 3.3 4.1.8 1 1.5 1.8 1.5 1.8s1.3 4.1 1.9 4.6c.5.5 4.7.6 4.7.6V169h-.2z"/><path fill="#A8A2A5" d="M128.8 164.8h.4v-3H126l-1.8 3z"/><path fill="#1F171A" d="M128.8 164.8h-4.6l1.6 4.2h3.4v-4.2z"/><path fill="#909191" d="M121.9 162.5l1.4-12.9c-.8.4-1.8 1.6-2.7 2.9-1.4 2-2.7 4.3-2.7 4.3l4 5.7z"/><path fill="#948A7C" d="M100.5 117.9l-2.5.8s-2.4-1.1-4.8-2.9l2.8 18.5 2.2 1.7 1 .8 1.9-.6 2.7 1.9-1.9-19.3-1.4-.9zm28.7-32.4l-7.9-.3c.8 6.7 7.9 6.1 7.9 6.1v-5.8z"/><path fill="#948A7C" d="M102.4 115.4c12.6-11.3 26.8-11.7 26.8-11.7V92.1c-3.6-.2-5.2-1-6.5-2.2-1.3-1.1-2.2-4.8-2.2-4.8-11.9-2.5-15.9-2.6-18.7-2.8-2.7-.2-9 .7-9 .7.7 1.2 1.8 2.7 2.7 3.9 2.5-3.6 6.6-4.9 11.6-3.9 5.3 1 13.6 5.6 12 14.9s-7.5 11.3-15.1 10.4c-7.6-1-12.1-7.1-10.7-15.3.3-2.1.9-3.8 1.7-5.2-1.3-1.8-2.8-4.1-2.8-4.1-2.2 8.9-.7 16.4-.2 19.8.6 3.4 7.9 9 7.9 9l.1 1.8 2.4 1.1z"/><path fill="#2E2829" d="M129.2 105.4v-1.7s-14.2.4-26.8 11.7l3 1.6.1.6h.2s1.3-1.1 3.3-2.5c1.4-1.2 3.1-2.4 5.1-3.6.9-.6 1.8-1.2 2.7-1.7 5-2.9 12.4-3.1 12.4-3.1v-1.3z"/><path fill="#868788" d="M109.1 130.2c-.3-3.9-.8-6.8-1.9-7.8-.5-.5-1.3-1.2-1.8-1.8l-1.6-.2-1.8-1.3 1.9 19.3 6.6 4.7-.5-.3c-.1-.1-.6-8.8-.9-12.6z"/><path fill="#868788" d="M129.2 107.4v-.7s-7.4.2-12.4 3.1c-.9.5-1.8 1.1-2.7 1.7-1.9 1.2-3.7 2.5-5.1 3.6-1.9 1.4-3.3 2.5-3.3 2.5h-.2l.2 1.2-.1.3c.5.5 1.5 1.4 2.4 2.3 1.3 1.3 1.7 2.9 2 5.4.2 2.5 1.3 16.9 1.3 16.9l1.2.8s-1.2-16.7-1.5-18.6-.6-2.7-2.4-4.6c-1.6-1.7-2.6-3-2.6-3s6.9-6.6 12.2-8.5c5.5-1.9 8.1-2.4 11-2.4z"/><path fill="#251F21" d="M89.1 101.2c.7 4.7 4.5 8.6 6.8 10.5 1 .8 1.7 1.3 1.7 1.3l.5 5.8 2.3-.9v-.1l-2-1.5c-1.2-2.5 1.1-2.5 1.1-2.5l.7.4-.1-1.8s-7.3-5.7-7.9-9c-.6-3.4-2-10.9.2-19.8 0 0 1.5 2.4 2.8 4.1.2-.3.3-.6.5-.8-.9-1.2-2-2.7-2.7-3.9 0 0 6.3-.9 9-.7 2.7.2 6.8.4 18.7 2.8 0 0 .9 3.7 2.2 4.8 1.3 1.1 2.9 1.9 6.5 2.2v-.8s-7.1.6-7.9-6.1l7.9.3v-.8s-12.7-.9-17.4-2.1c-5.7-1.4-13.3-3.8-21.1 0l-1.9-2-.7 1 2.1 2.3c-.3 0-2.3 10.6-1.3 17.3z"/><path fill="#464646" d="M101.9 119l1.8 1.3 1.6.2c-.6-.6-1.1-1-1.1-1-.4-1.3 1.1-.8 1.1-.8s.2.1.4.3l.1-.3-.2-1.2-.1-.6-3-1.6-2.3-1.2-.7-.4s-2.3 0-1.1 2.5l2 1.5.2.1 1.3 1.2z"/><path fill="#9E9E9E" d="M110.1 126.8c-.2-2.5-.7-4.2-2-5.4-.9-.9-1.9-1.8-2.4-2.3-.2-.2-.4-.3-.4-.3s-1.5-.5-1.1.8c0 0 .5.4 1.1 1s1.3 1.2 1.8 1.8c1.1 1.1 1.6 4 1.9 7.8.3 3.9.9 12.6.9 12.6l.5.3 1 .7c0-.1-1.1-14.4-1.3-17z"/><path fill="#251F21" d="M93.3 92.9c-1.4 8.2 3.1 14.4 10.7 15.3 7.6 1 13.5-1 15.1-10.4 1.6-9.3-6.6-13.9-12-14.9-5-1-9.1.3-11.6 3.9-.2.3-.4.5-.5.8-.7 1.5-1.3 3.3-1.7 5.3zm12.9-7.7c6.2 0 11.3 5 11.3 11.3s-5 11.3-11.3 11.3S95 102.7 95 96.5s5-11.3 11.2-11.3z"/><path fill="#6D6C73" d="M95 96.5c0 6.2 5 11.3 11.3 11.3s11.3-5 11.3-11.3-5-11.3-11.3-11.3S95 90.3 95 96.5zm11.2-9.5c5.2 0 9.5 4.2 9.5 9.5s-4.2 9.5-9.5 9.5c-5.2 0-9.5-4.2-9.5-9.5s4.3-9.5 9.5-9.5z"/><circle fill="#B11E19" cx="106.2" cy="96.5" r="9.5"/><path fill="#65656B" d="M111.8 82.6c4.7 1.2 17.4 2.1 17.4 2.1v-4.4c-7.9 0-10.1-1.6-20.2-3.9-10.1-2.2-19.1 3-19.1 3-.8.7-1.3 1.1-1.3 1.1l.1.1 1.9 2c7.9-3.8 15.5-1.4 21.2 0zm-23.2 28.7c.9 1.7 2.7 3.3 4.6 4.6 2.4 1.7 4.8 2.9 4.8 2.9l-.5-5.8s-.7-.5-1.7-1.3c-2.2-1.9-6-5.7-6.7-10.4v-.1c-1-6.7 1.1-17.3 1.1-17.3l-2.1-2.3C87 84.8 86.3 88 86 91.1c-1 9.3 1.1 17.2 2.6 20.2z"/><path fill="#6D6C73" d="M120.7 75.3c4.4.8 8.5 1.1 8.5 1.1v-24h-.4c-1.8.1-8.9.6-11.2 2.6l3.1 20.3zm-5.8-1.4c1 .3 2.1.6 3.2.9L113.4 55c-8.5.3-14.4 3.3-17.8 5.1-1.9 1-3.2 2.1-4.1 3.2-.8 1-1.2 1.9-1.2 2.4v9.5c3.8-2.2 18.9-3.1 24.6-1.3z"/><path fill="#5A5A5F" d="M118.1 74.8c.8.2 1.7.4 2.6.5L117.6 55h-4.1l4.6 19.8z"/><path fill="#313136" d="M109 76.4c10.1 2.2 12.3 3.9 20.2 3.9v-3.8s-4.1-.3-8.5-1.1c-.9-.2-1.7-.3-2.6-.5-1.1-.3-2.2-.5-3.2-.9-5.7-1.8-20.8-1-24.6 1.2l-.4 4.2s8.9-5.2 19.1-3zM84.9 89.6c1.6-15.7-5.1-18.5-5.1-18.5h-3.4c1.2.4 2.2 1.5 2.9 2.9 3.1 6.2 1.9 19.5 1.9 19.5h3.1c.3-1.4.5-2.7.6-3.9zm-4 3.7c-2.1-1.4-2.9.6-2.9.6l2 24.7 1.7-.3 1.7-.3-2.5-24.7z"/><path fill="#6D6C73" d="M78 93.9s.8-1.9 2.9-.6c.1.1.2.1.3.2 0 0 1.2-13.3-1.9-19.5-.7-1.4-1.7-2.5-2.9-2.9 0 0-.8.8-1.5 2.9-.7 2-1.3 5.1-1.1 9.7.4 9.6 4 33.8 4 33.8l.4.2 1.8.8-2-24.6z"/><path fill="#5A5A5F" d="M95.1 140.4l1-.6-4.5-5.2s-1-.9-2.7-1c-1.5-.2-3.5.2-5.8 2.2-.5.4-.9.9-1.3 1.3-3.2 3.9-1.2 8.1-.8 8.6.3.4 2.3 2.8 3.5 4.3 0-.2 0-.4.1-.5.8-5.1 6.9-8.1 10.5-9.1z"/><path fill="#868788" d="M116.4 172c-.9.9-2.1 1.7-3.8 2.6-5.9 2.9-8.2-1.5-8.9-4.4-.7-2.9 1.9-10.3 9.9-9.7 2.4.2 3.9 1.6 4.7 3.1v-1.7l-4.4-6.9 1.1-1.8-1.1-5.7-3-1.8.4 5.5-2.5 2.9s-10.9 5.7-9.6 18.4c0 0-.4-.4-1.1-.9 0 0 5.2 5.5 9.7 5.1 1.9-.2 3.7-.9 5.1-1.6 2-1 3.3-2.1 3.3-2.1l.2-1z"/><path fill="#313136" d="M94.2 167.9c1.5 1.5 3 2.8 3.9 3.6.6.6 1.1.9 1.1.9-1.4-12.7 9.6-18.4 9.6-18.4l2.5-2.9-.4-5.5-11.1-8.2-1.6 1-2.1 1.3-1 .6c-3.6 1-9.7 4-10.5 9.1 0 .2 0 .4-.1.5-.1.6-.1 1.2-.1 1.8.1 3.9 2.3 6.8 4.4 10 1.1 1.8 3.3 4.1 5.4 6.2z"/><path fill="#2A2A2B" d="M113.6 160.5c-8-.7-10.6 6.8-9.9 9.7s3 7.3 8.9 4.4c1.7-.8 2.9-1.7 3.8-2.6 2.1-2.2 2.2-4.3 2.4-5.7.1-.7 0-1.5-.4-2.4 0-.1-.1-.2-.1-.3-.8-1.5-2.3-2.9-4.7-3.1z"/></svg>