<svg xmlns="http://www.w3.org/2000/svg" width="256" height="256"><circle fill="#B1B3B5" cx="128" cy="128" r="128"/><path fill="#A32133" d="M227.2 208.8c3.2-3.9 6.2-8.1 8.9-12.4-13.9-5.7-31.1-9.9-31.1-9.9s17.6 16.2 22.2 22.3z"/><path fill="#13234D" d="M168.1 139.6c0-3.4-2.4-4.7-2.6-4.8-.2 4.4-.5 9.3-.6 14.1 1.3-3.7 3.2-7.3 3.2-9.3z"/><path fill="#C08C76" d="M156.6 154.6c.1.1 0 .2-.1.2-.1.2-.2.3-.2.5l-.1 2-.6 2-.3 3.5s-1.7.1-2.4 1.8c-.3.6-.6 1.3-.9 1.8l.1-.2-1 1.7s.4-.6.8-1.5l-2.9 3-1.2 1.2-3.8 1.4 1-1.3-3.6 3.2-2.8.9-3.5 1.8.8-1.8-3 2.9.1-1.7-3.5 1.7-1.5.5v34.1c1.5-4 6.3-16.5 7.9-21.5 1.9-6 1.4-10.3 10.1-15.6 4.9-3 12.5-7.6 18.1-10.9.2-2.6 0-5-.5-6.7-.7-2.6 0-5.7 1.1-8.6.2-4.9.4-9.8.6-14.1-1.6 5.2-4.3 10.5-8.7 19.7zm20.6-60.3c.5 1.3 1.1 2.1 1.1 2.1s.6 4.8-2.2 2.4c-1.2-1-1.5-1.3-1.6-1.4-.1 1.6-.3 3.2-.6 4.9.1.5.1 1.1 0 2-.5 3.8-.6 3-.8 4.6-.1.8-.7 1.8-1.3 2.7-.5 1.7-.9 3.5-1.4 5.2 4.4 3.3 6.2-5.2 7.6-6.4 1.4-1.3 1.6-4.3 2.3-7 .7-2.7.6-6.4-.4-10.2-.2-.8-.3-1.6-.2-2.5-.9.9-2.2 1.7-2.2 1.7s-.7.6-.3 1.9z"/><path fill="#D7A990" d="M130.2 170c1.1-1.8 0-1.1 1.1-1.8s-.1-2 1.1-.7c1.2 1.3-.2 1.2 2.5 1.3 2.8.1 2.3.8 4.6.5 2.3-.4 4.8-.1 5.6-.4s1.3-.8 2.3-1.6 3.1-2.4 3.7-3.4 1.3-1.7 1.7-2.9c.4-1.2 2.2-4.1 1.7-5.6s-.7-2.5-1-3.4-.2-1.2-.8-2.3c-.6-1.1-.5-1-1.3-2-.8-1.1-1-2-.8-1.1.1 1 .1 3.1.1 3.1s-.6-2.5-1.9-3.1c-1.3-.6-3-1.3-3-1.3l-4.3-1.3s.2.6-.2.6c-.5 0-3-.5-3-.5h-2.2c-.4 0-2.3.4-2.6.6-.3.2-1.8 1.4-5 1.5v9.8c1.7.2 7.3.7 9.9-.7 0 0-2.1 1.4-2.6 2.1-.5.7-.6 1.6-.6 1.6l.3 1.8h-1.9s0 .9-.5 1c-.5.1-2.2-.3-2.2-.3s-1.6-.3-2.5.3v8.2c.3.7 1.1 1.1 1.8 0zm25.2-15.4l.9.6c.1-.2.2-.3.2-.5-.3.1-1.1-.1-1.1-.1zm18.5-52.4c.3-1.7.5-3.3.6-4.9-.1-.1-.1-.1-.2-.1-.1.3-.3.7-.5 1.2-.9 2.2-.1 2.2.1 3.8z"/><path fill="#D7A990" d="M170.5 112.9s1.3-3.4 1-4.9c-.3-1.6 1-6.8 1-6.8v-4.8l-1.9 1v-2c-1.1-.3-1.4-.2-.6-.6.3-.2.5-.3.6-.5V94c0-.3-.1-.7-.1-1.3-.2-.2-.5-.4-.7-.6-.3-.1-.8-.5-.8-.5s.4.2.8.5c.2.1.4 0 .4-.5-.2-1.3-1.9-4.5-1.9-4.5l1.2.4c-.2-.7-.3-1.4-.5-2.2 0-.2-.1-.3-.1-.5-.2-.3-.4-.5-.5-.8-1.3-2.1-2.1-3-2.1-3l-1.8-2.1 2 .6c-.2-.3-.4-.7-.6-1.3-1.1-2.7-.2-2.7 1-7.5 1.1-4.8-.8-5.1-1.9-10.9-1.1-5.7-2.9-4.2-4.9-6.5-2.1-2.4-3-.8-5.3-1s-2.1-1.9-2.1-1.9c-5.5 7-21.2 9.4-21.2 9.4s1-1.8 1.8-2.6c-1.1.7-3.6 2.1-4.8 2.5v79.7c1.3-.3 4.9-1.2 6.3-2.2 1.8-1.2 3.4.1 3.8 0 .5-.1 6.8 3.5 6.8 3.5h-1s6.2 1.9 7.5 3.8c1.3 1.9 1.3 4.2 1.3 4.2h1.4l.6 1.9.7-1.3s.5 4.7.7 5.1c4.4-9.2 7.1-14.5 8.9-19.7l.9-2.7 1.5-5.8c.3-1.2.6-2.5.9-3.8h-.2l1-3.4c.2-.9.5-1.7.7-2.6.5-1.7 1-3.4 1.4-5.2-.6 1.1-1.2 1.7-1.2 1.7zm-31.7-12.1s-.8-1-1-2.6c0 0 4.6.5 7.8-.9s12.5-6 15-5.8 3.8 1.4 3.8 1.4V94h-1.3l-.2.8 1.4 1.1s-6.7-.8-10.7 1.4-9.4 4.8-14.8 3.5z"/><path fill="#523C33" d="M164.5 96l-1.4-1.1.2-.8h1.3V93s-1.3-1.3-3.8-1.4-11.8 4.5-15 5.8-7.8.9-7.8.9c.2 1.6 1 2.6 1 2.6 5.4 1.3 11-1.3 15-3.4s10.5-1.5 10.5-1.5zm-12.3 70.2l-.1.2c-.4.9-.8 1.5-.8 1.5l.9-1.7z"/><path fill="#523C33" d="M133.3 144.9c.4-.2 2.3-.6 2.6-.6h2.2s2.5.5 3 .5.2-.6.2-.6l4.3 1.3s1.7.7 3 1.3c1.3.6 1.9 3.1 1.9 3.1s0-2.2-.1-3.1c-.1-1 0 0 .8 1.1s.7 1 1.3 2c.6 1.1.6 1.4.8 2.3s.5 1.8 1 3.4-1.3 4.5-1.7 5.6c-.4 1.2-1.1 1.9-1.7 2.9s-2.8 2.6-3.7 3.4-1.4 1.3-2.3 1.6-3.4 0-5.6.4c-2.3.4-1.8-.4-4.6-.5-2.8-.1-1.3 0-2.5-1.3s0 0-1.1.7 0 0-1.1 1.8c-.7 1.1-1.4.7-1.9.2v8.1l1.5-.5 3.5-1.7-.1 1.7 3-2.9-.8 1.8 3.5-1.8 2.8-.9 3.6-3.2-1 1.3 3.8-1.4 1.2-1.2 2.9-3c.3-.5.6-1.2.9-1.8.7-1.7 2.4-1.8 2.4-1.8l.3-3.5.6-2 .1-2-.9-.6s.8.2 1.1.2c.1 0 .2-.1.1-.2-.2-.5-.7-5.1-.7-5.1l-.7 1.3-.6-1.9h-1.4s0-2.3-1.3-4.2c-1.3-1.9-7.5-3.8-7.5-3.8h1s-6.3-3.6-6.8-3.5c-.5.1-2-1.2-3.8 0-1.5 1-5 1.9-6.3 2.2v6.9c3-.6 4.4-1.8 4.8-2z"/><path fill="#523C33" d="M130.7 161.6s1.8.4 2.2.3c.5-.1.5-1 .5-1h1.9l-.3-1.8s.1-.9.6-1.6c.5-.7 2.6-2.1 2.6-2.1-2.6 1.4-8.2.9-9.9.7v5.7c.8-.5 2.4-.2 2.4-.2zM127.8 6.5h.2-.2zm55.4 67.7v-.6c0 .2-.1.4 0 .6zm-30.7-23.7s-.2 1.8 2.1 1.9 3.2-1.4 5.3 1c2.1 2.4 3.8.8 4.9 6.5 1.1 5.7 3 6.1 1.9 10.9-1.1 4.8-2.1 4.8-1 7.5.2.5.4.9.6 1.3l1.1.3-1-1.6.3-1 .5-1.9c8.5-1.1 9.6-.5 11.8-3.2 2.2-2.7 3.2-2.6 3.8-4.5.6-1.9 2.7-3.1 2.7-3.1.6-1.2 1.1-2.5 1.1-3.5 0-2.1-.8-1.4 0-4.3s-.8-6.4-1.3-7.8c-.5-1.4-1.6-9.1-5.9-11.7 0 0 .5-3.5-2.6-5.7-3-2.2-6.4-4.5-8.3-6.9s-6.9-5.4-9.4-6.7c-2.6-1.3-5.4-4-12.9-1.9 0 0-10.6-9.3-18.2-9.7v23c29.2 0 24.5 21.1 24.5 21.1z"/><path fill="#523C33" d="M128.2 38.3v21.5c1.1-.4 3.7-1.8 4.8-2.5-.7.8-1.8 2.6-1.8 2.6 18.6-18.8-3-21.6-3-21.6zm44.3 58.1v4.8s-1.3 5.2-1 6.8c.3 1.6-1 4.9-1 4.9s.6-.6 1.2-1.5c.6-.8 1.3-1.9 1.3-2.7.2-1.6.3-.8.8-4.6.1-.9.1-1.5 0-2-.2-1.6-1-1.6 0-3.8.2-.5.4-.9.5-1.2-.2-.1-.5-.2-1.6-.8-.9-.5-1.7-.8-2.2-1v2l2-.9zm-2-2.1c.5-.5.4-.9.2-1.3l-.3-.3c.1.5.1 1 .1 1.3v.3zm-1.2-6.8l2.2.8s-1.6-1.7-2.8-3.5c0 .2.1.3.1.5.2.8.3 1.5.5 2.2z"/><path fill="#BDAEA1" d="M169.7 92.1c-.4-.3-.8-.5-.8-.5s.5.4.8.5z"/><path fill="#BDAEA1" d="M183 67.8c-.6 1.9-1.6 1.8-3.8 4.5-2.2 2.7-3.4 2.1-11.8 3.2l-.5 1.9-.3 1 1 1.6-1.1-.3-2-.6 1.8 2.1s.8 1 2.1 3c.2.3.3.5.5.8 1.3 1.8 2.8 3.5 2.8 3.5l-2.2-.8-1.2-.4s1.8 3.2 1.9 4.5c.1.5-.1.6-.4.5.2.2.5.4.7.6l.3.3c.2.4.3.8-.2 1.3-.2.2-.4.3-.6.5-.7.4-.5.3.6.6.5.2 1.3.4 2.2 1 1.1.6 1.4.7 1.6.8.1 0 .1.1.2.1.1.1.4.4 1.6 1.4 2.8 2.4 2.2-2.4 2.2-2.4s-.6-.8-1.1-2.1c-.5-1.3.2-2.1.2-2.1s1.2-.7 2.2-1.7l.4-.4c1-1.1 2.4-1.9 3.7-4.5 1.3-2.6 0 0 1.1-3.4s-.4-1.8-.1-3.4-.8-1.3-1.3-3.5c-.1-.5-.1-.9-.2-1.2v-.6c.1-1 .6-1.9 1.1-3.8.8-3 1.4-5.1 1.4-5.1-.1 0-2.2 1.2-2.8 3.1z"/><path fill="#1D305E" d="M144.4 206.7c0-12.5 5.8-18.9 12.5-24.7 4.7-4 7-11.5 7.4-17.6-5.6 3.4-13.2 7.9-18.1 10.9-8.6 5.3-8.1 9.6-10.1 15.6-1.6 5-6.4 17.5-7.9 21.5V256c1.1 0 2.3 0 3.4-.1 3.2-8.2 8.1-19.4 12.7-25.8 8-11 .1-11 .1-23.4z"/><path fill="#344C75" d="M155.1 221.2s-1.8-5.5 4.3-14.9c5.9-20.7 15.8-56.7 16.4-68.4l-8-4.8c6.1 4.6 1 14.1-1.2 18.1-2.4 4.3 1.1 11-.1 19.4-1.2 8.4-8.3 19.9-13.6 24.2-5.3 4.3-5 15.8-3.1 18.9 1.9 3.1 1 10.1 1 12.9 0 2.9-11.5 21.6-12.7 24.9-.3.7-.9 2.3-1.8 4.3 5.8-.4 11.5-1.1 17.1-2.3.5-14.5 1.5-28.3 1.7-32.3.1-.1 0-.1 0 0z"/><path fill="#2066A0" d="M150.8 226.5c0-2.9 1-9.8-1-12.9-1.9-3.1-2.2-14.6 3.1-18.9 5.3-4.3 12.4-15.8 13.6-24.2 1.2-8.4-2.3-15.1.1-19.4 2.2-4 7.3-13.5 1.2-18.1l-1.5-.9-.9 2.7c.2.1 2.6 1.4 2.6 4.8 0 2-1.9 5.6-3.2 9.4-1.1 3-1.8 6-1.1 8.6.5 1.8.7 4.1.5 6.7-.4 6.1-2.7 13.6-7.4 17.6-6.7 5.7-12.5 12.2-12.5 24.7s7.9 12.5 0 23.5c-4.6 6.4-9.5 17.6-12.7 25.8 1.6 0 3.2-.1 4.7-.2.9-2 1.5-3.5 1.8-4.3 1.2-3.3 12.7-22 12.7-24.9z"/><path fill="#991E2F" d="M191.6 187.8c-11.8 6.7-25 17.2-36.5 33.3-.3 4.1-1.2 17.9-1.7 32.4.7-.1 1.4-.3 2.2-.5v-31.5l18.5-5.6c3.3 15.7-1.5 26.8-7.1 34 18.3-5.8 34.7-15.7 48.4-28.5-5.7-10.2-11.4-19.6-14.9-23.4-4.8-5.1-7.4-8.3-8.9-10.2z"/><path fill="#801322" d="M205.1 186.5c-2.8 1-7.4.4-10.8-.2-.9.5-1.8 1-2.6 1.5 1.4 1.9 4.1 5.1 8.9 10.3 3.5 3.8 9.2 13.2 14.9 23.4 4.2-3.9 8.1-8.1 11.8-12.6-4.7-6.2-22.2-22.4-22.2-22.4z"/><path fill="#B8283B" d="M225.1 175.8s-1.1.1-3.2.5c2-.4 3.2-.5 3.2-.5zm-5-3.6s-7.2-37.8-25.6-53.5c-3.8-1.1-23.5 3.4-25.7 3.9l-1 3.8-1.5 5.8 1.5.9 8 4.8c-.7 11.6-10.5 47.7-16.4 68.4 1.2-1.8 2.6-3.7 4.4-5.8 11.2-13 22.7-25.9 56.3-28.3z"/><path fill="#A32133" d="M168.6 122.6h.3c2.2-.5 21.8-4.9 25.7-3.9 18.4 15.7 25.6 53.5 25.6 53.5-33.5 2.4-45 15.3-56.2 28.3-1.8 2.1-3.2 4-4.4 5.8-6.1 9.4-4.3 14.9-4.3 14.9l.1-.1c11.4-16.1 24.6-26.6 36.5-33.3.9-.5 1.8-1 2.6-1.5 12.2-6.5 22.6-9.1 27.6-10 2-.4 3.2-.5 3.2-.5-6-33.3-21.3-57.2-28.9-60-7.7-2.7-26.5 3.4-26.5 3.5l-1.3 3.3z"/><path fill="#8F7B5D" d="M174.2 215.9l-18.5 5.6V253c3.9-.9 7.7-1.9 11.4-3.1 5.5-7.1 10.4-18.3 7.1-34z"/><path fill="#991E2F" d="M50.9 186.5s-17.2 4.2-31.1 9.9c2.7 4.3 5.7 8.4 8.9 12.4 4.7-6.1 22.2-22.3 22.2-22.3z"/><path fill="#13234D" d="M87.9 139.6c0 2 1.9 5.6 3.2 9.4-.2-4.9-.4-9.8-.6-14.1-.2.1-2.6 1.3-2.6 4.7z"/><path fill="#B17D6B" d="M126.2 177.7l-3.5-1.7.1 1.7-3-2.9.8 1.8-3.5-1.8-2.8-.9-3.6-3.2 1 1.3-3.8-1.4-1.2-1.2-2.9-3c.4.9.8 1.5.8 1.5l-1-1.7.1.2c-.3-.5-.6-1.2-.9-1.8-.7-1.7-2.4-1.8-2.4-1.8l-.3-3.5-.6-2-.1-2c-.1-.2-.2-.3-.2-.5-.1 0-.2-.1-.1-.2-4.4-9.2-7.1-14.5-8.9-19.7.2 4.4.5 9.3.6 14.1 1.1 3 1.8 6 1.1 8.6-.5 1.8-.7 4.1-.5 6.7 5.6 3.4 13.2 7.9 18.1 10.9 8.6 5.3 8.1 9.6 10.1 15.6 1.9 6 8.4 22.8 8.4 22.8v-35.2l-1.8-.7zm-43.3-68.9c-.2-1.6-.3-.8-.8-4.6-.1-.9-.1-1.5 0-2-.3-1.7-.5-3.3-.6-4.9-.1.1-.4.4-1.6 1.4-2.8 2.4-2.2-2.4-2.2-2.4s.6-.8 1.1-2.1c.5-1.3-.2-2.1-.2-2.1s-1.2-.7-2.2-1.7c0 .8 0 1.6-.2 2.5-1 3.8-1.1 7.5-.4 10.2.7 2.7.9 5.7 2.3 7 1.4 1.3 3.2 9.8 7.6 6.4-.5-1.7-1-3.4-1.4-5.2-.7-.7-1.3-1.7-1.4-2.5z"/><path fill="#C08C76" d="M87.4 122.6h-.2c.3 1.3.6 2.6.9 3.8l1.5 5.8.9 2.7c1.8 5.2 4.4 10.5 8.9 19.7.2-.5.7-5.1.7-5.1l.7 1.3.6-1.9h1.4s0-2.3 1.3-4.2c1.3-1.9 7.5-3.8 7.5-3.8h-1s6.3-3.6 6.8-3.5c.5.1 2-1.2 3.8 0 1.8 1.2 6.8 2.3 6.8 2.3V59.9c-.6 0-3.9-1.8-5.3-2.6.7.8 1.8 2.6 1.8 2.6l-8.5-3s-3.3-.9-6.7-2.4c-1.8 3.1-2.9 6.5-2.8 10.2 0 0-.4-5.1 1.3-10.9-1.8-.9-3.5-2-4.6-3.3 0 0 .1 1.7-2 1.9-.9 1.8-1.5 3.8-1.7 6-1 13.4 1.5 16.3 1.5 16.3s-7.1-8.5-7-19.9c-1.3.7-2.4 1.2-3.1 5.1-1.1 5.7-3 6.1-1.9 10.9 1.1 4.8 2.1 4.8 1 7.5-.2.5-.4.9-.6 1.3l2-.6-1.5 2s-.8 1-2.1 3c-.2.3-.3.5-.5.8 0 .2-.1.3-.1.5-.2.8-.4 1.5-.5 2.2l1.2-.4s-1.8 3.2-1.9 4.5c-.1.5.1.6.4.5.4-.3.8-.5.8-.5s-.4.4-.8.5c-.2.2-.5.4-.7.6-.1.5-.1 1-.1 1.3v.3c.2.2.4.3.6.5.7.4.5.3-.6.6v2l-1.9-1v4.8s1.3 5.2 1 6.8c-.3 1.6 1 4.9 1 4.9s-.6-.6-1.2-1.5c.5 1.7.9 3.5 1.4 5.2.2.9.5 1.8.7 2.6l.8 3.4zm5.4-28.5h-1.3V93s1.3-1.3 3.8-1.4 11.8 4.5 15 5.8 7.8.9 7.8.9c-.2 1.6-1 2.6-1 2.6-5.4 1.3-11-1.3-15-3.4S91.5 96 91.5 96l1.4-1.1-.1-.8zm7.8 60.5s-.8.2-1.1.2c.1.2.2.3.2.5l.9-.7z"/><path fill="#C08C76" d="M125.3 161.6s-1.8.4-2.2.3c-.5-.1-.5-1-.5-1h-1.9l.3-1.8s-.1-.9-.6-1.6c-.5-.7-2.6-2.1-2.6-2.1 3 1.7 10.4.6 10.4.6v-9.7c-3.6 0-5.1-1.3-5.5-1.6-.4-.2-2.3-.6-2.6-.6h-2.2s-2.5.5-3 .5-.2-.6-.2-.6l-4.3 1.3s-1.7.7-3 1.3c-1.3.6-1.9 3.1-1.9 3.1s0-2.2.1-3.1c.1-1 0 0-.8 1.1s-.7 1-1.3 2c-.6 1.1-.6 1.4-.8 2.3s-.5 1.8-1 3.4 1.3 4.5 1.7 5.6c.4 1.2 1.1 1.9 1.7 2.9s2.8 2.6 3.7 3.4 1.4 1.3 2.3 1.6 3.4 0 5.6.4c2.3.4 1.8-.4 4.6-.5 2.8-.1 1.3 0 2.5-1.3s0 0 1.1.7 0 0 1.1 1.8 2.4-.5 2.4-.5v-6.6c-.2-1.9-3.1-1.3-3.1-1.3zM82.1 98.4c-.2-.5-.4-.9-.5-1.2-.1 0-.1.1-.2.1.1 1.6.3 3.2.6 4.9.3-1.6 1.1-1.6.1-3.8z"/><path fill="#402D25" d="M102.2 97.4c4 2.2 9.6 4.7 15 3.4 0 0 .8-1 1-2.6 0 0-4.6.5-7.8-.9s-12.5-6-15-5.8-3.9 1.5-3.9 1.5v1.1h1.3l.2.8-1.5 1.1s6.7-.8 10.7 1.4z"/><path fill="#523C33" d="M104.8 167.9s-.4-.6-.8-1.5l-.1-.2.9 1.7z"/><path fill="#402D25" d="M99.5 154.7c.3 0 1.1-.2 1.1-.2l-.9.6.1 2 .6 2 .3 3.5s1.7.1 2.4 1.8c.3.6.6 1.3.9 1.8l2.9 3 1.2 1.2 3.8 1.4-1-1.3 3.6 3.2 2.8.9 3.5 1.8-.8-1.8 3 2.9-.1-1.7 3.5 1.7 2 .7v-8.9s-1.3 2.3-2.4.5c-1.1-1.8 0-1.1-1.1-1.8s.1-2-1.1-.7c-1.2 1.3.2 1.2-2.5 1.3-2.8.1-2.3.8-4.6.5-2.3-.4-4.8-.1-5.6-.4s-1.3-.8-2.3-1.6-3.1-2.4-3.7-3.4-1.3-1.7-1.7-2.9c-.4-1.2-2.2-4.1-1.7-5.6s.7-2.5 1-3.4.2-1.2.8-2.3c.6-1.1.5-1 1.3-2 .8-1.1 1-2 .8-1.1-.1 1-.1 3.1-.1 3.1s.6-2.5 1.9-3.1c1.3-.6 3-1.3 3-1.3l4.3-1.3s-.2.6.2.6c.5 0 3-.5 3-.5h2.2c.4 0 2.3.4 2.6.6.4.2 1.9 1.6 5.5 1.6v-6.8s-5-1.1-6.8-2.3c-1.8-1.2-3.4.1-3.8 0-.5-.1-6.8 3.5-6.8 3.5h1s-6.2 1.9-7.5 3.8c-1.3 1.9-1.3 4.2-1.3 4.2h-1.4l-.6 1.9-.7-1.3s-.5 4.7-.7 5.1c-.3.5-.2.5-.1.5z"/><path fill="#402D25" d="M117.9 155.5s2.1 1.4 2.6 2.1c.5.7.6 1.6.6 1.6l-.3 1.8h1.9s0 .9.5 1c.5.1 2.2-.3 2.2-.3s3-.6 3 1.4v-6.8c-.2-.2-7.5.9-10.5-.8zm.5-115.8s-12.2 3.7-16.8 12.7c2.1-.2 2-1.9 2-1.9 1.1 1.3 2.8 2.4 4.6 3.3 1.3-5 4.2-10.6 10.2-14.1zM72.8 73.6v.6c.1-.2 0-.4 0-.6z"/><path fill="#402D25" d="M73 67.8c.6 1.9 1.6 1.8 3.8 4.5 2.2 2.7 3.4 2.1 11.8 3.2l.5 1.9.3 1-1 1.6 1.1-.3c.2-.3.4-.7.6-1.3 1.1-2.7.2-2.7-1-7.5-1.1-4.8.8-5.1 1.9-10.9.8-4 1.9-4.4 3.1-5.1 0-3.6.8-7.5 2.6-11.5 7.9-16.8 31.3-13.9 31.3-13.9v-23h-.4c-7.6.4-18.2 9.7-18.2 9.7-7.5-2.1-10.4.6-12.9 1.9-2.6 1.3-7.5 4.3-9.4 6.7s-5.3 4.6-8.3 6.9c-3 2.2-2.6 5.7-2.6 5.7-4.2 2.6-5.3 10.2-5.8 11.7-.5 1.4-2.1 4.9-1.3 7.8.8 2.9 0 2.2 0 4.3 0 1 .5 2.2 1.1 3.5.1 0 2.2 1.2 2.8 3.1z"/><path fill="#402D25" d="M128.2 46.5v-8.1s-12.8 6.3-18.7 16.2c3.4 1.5 6.7 2.4 6.7 2.4l8.5 3s-1-1.8-1.8-2.6c1.3.8 4.7 2.6 5.3 2.6V46.5zm-41.5 41c.2-.7.3-1.4.5-2.2 0-.2.1-.3.1-.5-1.3 1.8-2.8 3.5-2.8 3.5l2.2-.8zm-5.1 9.7c.1.3.3.7.5 1.2 1 2.2.2 2.2 0 3.8-.1.5-.1 1.1 0 2 .5 3.8.6 3 .8 4.6.1.8.7 1.8 1.3 2.7.6.8 1.2 1.5 1.2 1.5s-1.3-3.4-1-4.9c.3-1.6-1-6.8-1-6.8v-4.8l1.9 1v-2c-.5.2-1.3.4-2.2 1-.9.4-1.3.6-1.5.7zm3.7-4.2c-.2.4-.3.8.2 1.3V94c0-.3.1-.7.1-1.3l-.3.3z"/><path fill="#9A8F84" d="M78.8 94.3c-.5 1.3-1.1 2.1-1.1 2.1s-.6 4.8 2.2 2.4c1.2-1 1.5-1.3 1.6-1.4.1-.1.1-.1.2-.1.2-.1.5-.2 1.6-.8.9-.5 1.7-.8 2.2-1 1.1-.3 1.4-.2.6-.6-.3-.2-.5-.3-.6-.5-.5-.5-.4-.9-.2-1.3l.3-.3c.2-.2.5-.4.7-.6-.2.1-.4 0-.4-.5.2-1.3 1.9-4.5 1.9-4.5l-1.2.4-2.2.8s1.6-1.7 2.8-3.5c.2-.3.4-.5.5-.8 1.3-2.1 2.1-3 2.1-3l1.8-2.1-2 .6-1.1.3 1-1.6-.3-1-.5-1.9c-8.5-1.1-9.6-.5-11.8-3.2-2.2-2.7-3.2-2.6-3.8-4.5-.6-1.9-2.7-3.1-2.7-3.1s.6 2.1 1.4 5.1c.5 2 1 2.8 1.1 3.8v.6c0 .4-.1.7-.2 1.2-.5 2.2-1.7 1.9-1.3 3.5s-1.1 0-.1 3.4c1.1 3.4-.2.8 1.1 3.4 1.3 2.6 2.7 3.4 3.7 4.5l.4.4c.9.9 2.2 1.7 2.2 1.7s.5.8.1 2.1z"/><path fill="#9A8F84" d="M86.3 92.1c.3-.1.8-.5.8-.5s-.4.2-.8.5z"/><path fill="#0D1D45" d="M119.9 190.8c-1.9-6-1.4-10.3-10.1-15.6-4.9-3-12.5-7.6-18.1-10.9.4 6.1 2.7 13.6 7.4 17.6 6.7 5.7 12.5 12.2 12.5 24.7s-7.9 12.5 0 23.5c4.6 6.4 9.5 17.6 12.7 25.8 1.2 0 2.4.1 3.6.1h.2v-42.4c.1 0-6.3-16.8-8.2-22.8z"/><path fill="#1D305E" d="M105.2 226.5c0-2.9-1-9.8 1-12.9 1.9-3.1 2.2-14.6-3.1-18.9-5.3-4.3-12.4-15.8-13.6-24.2-1.2-8.4 2.3-15.1-.1-19.4-2.2-4-7.3-13.5-1.2-18.1l-8 4.8c.7 11.6 10.5 47.7 16.4 68.4 6.1 9.4 4.3 14.9 4.3 14.9l-.1-.1c.3 4.1 1.2 17.9 1.7 32.4 5.6 1.1 11.3 1.9 17.1 2.3-.9-2-1.5-3.5-1.8-4.3-1.1-3.3-12.6-22-12.6-24.9z"/><path fill="#344C75" d="M111.6 206.7c0-12.5-5.8-18.9-12.5-24.7-4.7-4-7-11.5-7.4-17.6-.2-2.6 0-5 .5-6.7.7-2.6 0-5.7-1.1-8.6-1.4-3.8-3.2-7.3-3.2-9.4 0-3.4 2.4-4.7 2.6-4.8l-.9-2.7-1.5.9c-6.1 4.6-1 14.1 1.2 18.1 2.4 4.3-1.1 11 .1 19.4 1.2 8.4 8.3 19.9 13.6 24.2 5.3 4.3 5 15.8 3.1 18.9-1.9 3.1-1 10.1-1 12.9 0 2.9 11.5 21.6 12.7 24.9.3.7.9 2.3 1.8 4.3 1.6.1 3.2.2 4.7.2-3.2-8.2-8.1-19.4-12.7-25.8-7.9-11.1 0-11.1 0-23.5z"/><path fill="#801322" d="M64.4 187.8c-1.4 1.9-4.1 5.1-8.9 10.3-3.5 3.8-9.2 13.2-14.9 23.4C54.3 234.3 70.7 244.1 89 250c-5.6-7.2-10.5-18.3-7.1-34l18.5 5.6V253c.7.2 1.4.3 2.2.5-.5-14.5-1.4-28.3-1.7-32.4-11.5-16.1-24.7-26.6-36.5-33.3z"/><path fill="#6B0717" d="M64.4 187.8c-.9-.5-1.8-1-2.6-1.5-3.4.6-8 1.2-10.8.2 0 0-17.5 16.2-22.2 22.3 3.6 4.5 7.6 8.7 11.8 12.6 5.7-10.2 11.4-19.6 14.9-23.4 4.8-5.1 7.4-8.3 8.9-10.2z"/><path fill="#A32133" d="M34.1 176.3c-2-.4-3.2-.5-3.2-.5s1.2.1 3.2.5zm54.1-49.9l-1-3.8c-2.2-.5-21.8-4.9-25.7-3.9-18.4 15.7-25.6 53.5-25.6 53.5 33.5 2.4 45 15.3 56.2 28.3 1.8 2.1 3.2 4 4.4 5.8-5.9-20.7-15.8-56.7-16.4-68.4l8-4.8 1.5-.9-1.4-5.8z"/><path fill="#991E2F" d="M64.4 187.8c11.8 6.7 25 17.2 36.5 33.3l.1.1s1.8-5.5-4.3-14.9c-1.2-1.8-2.6-3.7-4.4-5.8-11.2-12.9-22.7-25.9-56.2-28.3 0 0 7.2-37.8 25.6-53.5 3.8-1.1 23.5 3.4 25.7 3.9h.3l-1-3.4s-18.8-6.2-26.5-3.5c-7.7 2.7-22.9 26.7-28.9 60 0 0 1.1.1 3.2.5 5 1 15.4 3.5 27.6 10 .5.6 1.4 1.1 2.3 1.6z"/><path fill="#78674D" d="M81.8 215.9c-3.3 15.7 1.5 26.8 7.1 34 3.7 1.2 7.5 2.2 11.4 3.1v-31.5l-18.5-5.6z"/><path fill="#322018" d="M128.2 38.3v-8.9s-23.4-2.9-31.3 13.9c-1.9 4-2.6 7.9-2.6 11.5-.1 11.4 7 19.9 7 19.9s-2.5-2.9-1.5-16.3c.2-2.2.8-4.2 1.7-6 4.6-9 16.8-12.7 16.8-12.7-6 3.4-8.9 9-10.3 14.1-1.6 5.8-1.3 10.9-1.3 10.9-.2-3.7 1-7.1 2.8-10.2 5.9-9.9 18.7-16.2 18.7-16.2z"/><path fill="#402D25" d="M131.3 59.9s15.7-2.4 21.2-9.4c0 0 4.7-21.1-24.3-21.1v8.9s21.6 2.8 3.1 21.6z"/></svg>