<svg xmlns="http://www.w3.org/2000/svg" width="256" height="256"><circle fill="#B1B3B5" cx="128" cy="128" r="128"/><path fill="#9C7360" d="M127.9 211.2v-33.8h-11.1c-7.5 0-18.7-3.2-22.8-8-1.4-1.7-3.7-5.3-6.1-9.5 0 3.5-.1 7.6-.5 11.9.9 1.7 13.5 27.8 40.5 39.4zm-57-111.8C69.7 97.8 68 96 68 96v-2.6l-3.5-3.6c-.5.1-.9.2-1.3.4-4.1 2.2-2.7 4.5-2.7 6.7s-1.4 8.3 1.7 14.7.7 8 2.4 13.7 5.4 12.1 8.8 8.3c.5-.5.9-1.2 1.4-1.8-1.5-5.4-3-12.3-3.5-18-.2-3.5-.3-9.1-.4-14.4z"/><path fill="#C08C76" d="M116.9 177.4H128V35.3c-1.6.1-15.1 1.2-22.3 0-7.7-1.3-11.1-4.5-15.4-1.6-4.4 2.9-7.4 11.8-8.4 14-1 2.2-2.3 7.3-2.7 8.3-.3 1-3.4 8-3.4 8s.7 7 .7 8 .3 5.1.3 5.1v1.6l1.3 8.3s-1.7 14.4-1.3 23.9c0 0-2.3-1.6-3-3.8-.7-2.2-1.3-4.5-1.3-5.4 0-.4-.6-1.3-1.4-2.3 0 5.2.1 10.8.4 14.5.4 5.7 1.9 12.5 3.5 18 .8 2.8 1.6 5.3 2.3 6.9 1.3 3.1 6.4 13.2 10.9 21.1 2.4 4.2 4.6 7.9 6.1 9.5 3.9 4.9 15.1 8 22.6 8zM86 88.4c.3-1.4 1.3-4.3 5-5.4 5.1-1.4 17.1-3.4 27.5 3.4l-3.3 4.8S104 85 93.8 86.4c-5.2.8-7.2 1.5-7.8 2-.1.5-.1.9-.1.9s-.6-.3.1-.9z"/><path fill="#2D1B07" d="M128.1 7.6s-.1 0 0 0c-.1 0 0 0 0 0zM68 96s1.6 1.8 2.9 3.4c.8 1 1.4 2 1.4 2.3 0 1 .7 3.2 1.3 5.4.7 2.2 3 3.8 3 3.8-.3-9.6 1.3-23.9 1.3-23.9l-1.3-8.3v-1.6s-.3-4.2-.3-5.1c0-1-.7-8-.7-8s3-7 3.4-8c.3-1 1.7-6.1 2.7-8.3 1-2.2 4-11.2 8.4-14 4.4-2.9 7.7.3 15.4 1.6 7.3 1.2 20.8.1 22.3 0V7.6c-20.7 0-25 5.4-25 5.4l-3.7 1.9s-4.7 3.2-5.7 3.8c-1 .6-3 1.9-8.4 3.8s-4 2.2-4 2.2-4.4 2.2-5.4 2.6c-1 .3-.7 3.8-.7 3.8l-2 1.3c-2 1.3-2.7 4.2-2.7 5.1 0 1-2.3 6.7-2.3 6.7s-2.7 3.2-3.7 6.4-.3 3.5-.7 4.8c-.3 1.3-.7 2.2-.7 4.2s-1 4.5-2.7 6.1-.1 1.3-.1 6.1 1.3 4.2 1.3 4.2 1 1.9 1.3 5.1c.3 3.2 0 3.2 0 3.2l1 4.8.8.9 3.5 3.6V96z"/><path fill="#807F78" d="M116.9 229c-3-4.8-7.4-14.3-9.7-19.3-4.2 4.6-13.2 15.5-17.8 30.4l-3 1s-4-7.8-8.2-17.2c.9 7.6 2.2 15.6 3.5 23.5 10 3.9 20.7 6.5 31.7 7.8l4-26c-.2-.1-.5-.2-.5-.2z"/><path fill="#700B0C" d="M127.9 230.5c-4.7 0-8.8-.9-10.3-1.3l-4 26c4.7.5 9.5.8 14.4.8v-25.5h-.1z"/><path fill="#861619" d="M127.9 216.7v-4.8l-18.4-4.6s-.9.8-2.3 2.4c2.3 5 6.7 14.4 9.7 19.3 0 0 .2.1.7.2 1.6.4 5.6 1.3 10.3 1.3v-13.8z"/><path fill="#9A988F" d="M78.3 223.9c4.2 9.4 8.2 17.2 8.2 17.2l3-1c4.6-14.9 13.5-25.8 17.8-30.4 1.4-1.6 2.3-2.4 2.3-2.4l18.4 4.6v-.7c-27.1-11.6-39.6-37.8-40.4-39.4v-.1c-2.2 1.7-7.6 7.5-10.5 10.8l.1.1c-1.6 10.4-.9 25.2 1.1 41.3z"/><path fill="#121617" d="M27.8 207.7c4.8 6 10.1 11.5 15.8 16.6l11.7-27.8c-10.2 5-20.2 8.6-27.5 11.2z"/><path fill="#020507" d="M77.1 182.6l-.1-.1-1.5-1.2s-11.7 7.5-19.3 12.9l-.9 2.3-11.7 27.8c11.2 9.8 24.1 17.7 38.2 23.2-1.4-7.9-2.6-15.8-3.5-23.5-2-16.2-2.7-31-1.2-41.4z"/><path fill="#2D1B07" d="M115.2 91.2l3.3-4.8C108 79.7 96.1 81.7 91 83.1c-3.7 1.1-4.7 3.9-5 5.4.7-.5 2.6-1.3 7.8-2 10.1-1.5 21.4 4.7 21.4 4.7zm-29.3-1.9s0-.3.1-.9c-.7.6-.1.9-.1.9z"/><path fill="#C08C76" d="M139.1 177.4h-11.3v33.9c24.4-10.4 37-33 39.9-38.7-.6-3.7-1-7.3-1.2-10.4-1.9 3.2-3.6 5.9-4.8 7.3-3.9 4.8-15.1 7.9-22.6 7.9zM189.3 96s-3.4 3.7-4.3 5.2c0 4.7-.2 9.4-.4 12.7-.4 5.7-1.9 12.5-3.5 18 .5.7.9 1.3 1.4 1.8 3.4 3.8 7.1-2.6 8.8-8.3s-.7-7.3 2.4-13.7 1.7-12.5 1.7-14.7c0-2.2 1.4-4.5-2.7-6.7-.1 0-.1-.1-.2-.1l-3.3 3.3V96z"/><path fill="#D7A990" d="M185 101.2c-.1.2-.2.4-.2.5 0 1-.7 3.2-1.4 5.4s-3.1 3.8-3.1 3.8c.3-9.6-1.4-23.9-1.4-23.9l1.4-8.3v-1.6s.3-4.2.3-5.1c0-1 .7-8 .7-8s-3.1-7-3.4-8c-.3-1-1.4-3.8-2.4-6.1s-9.9-12.9-14.4-15.8c-4.5-2.9-2.4-.2-10.3 1.1s-23 0-23 0v142.1h11.3c7.5 0 18.7-3.2 22.8-8 1.2-1.4 2.9-4 4.8-7.3 4.8-8.2 10.8-20 12.2-23.4.7-1.6 1.5-4.1 2.3-6.9 1.5-5.4 3-12.3 3.5-18 .2-3 .3-7.8.3-12.5zm-13.6-11.9s0-.3-.1-.9c-.7-.5-2.6-1.3-7.8-2-10.2-1.4-21.4 4.8-21.4 4.8l-3.3-4.8c10.4-6.7 22.4-4.8 27.5-3.4 3.7 1.1 4.7 3.9 5 5.4.6.6.1.9.1.9z"/><path fill="#432D1C" d="M127.9 35.4s15.1 1.3 23 0 5.8-4 10.3-1.1c4.5 2.9 13.4 13.6 14.4 15.8s2.1 5.1 2.4 6.1c.3 1 3.4 8 3.4 8s-.7 7-.7 8-.3 5.1-.3 5.1v1.6l-1.4 8.3s1.7 14.4 1.4 23.9c0 0 2.4-1.6 3.1-3.8.7-2.2 1.4-4.5 1.4-5.4 0-.1.1-.3.2-.5.9-1.6 4.3-5.2 4.3-5.2v-2.6l3.3-3.3 1.2-1.2 1-4.8s-.3 0 0-3.2 1.4-5.1 1.4-5.1 1.4.6 1.4-4.2 1.4-4.5-.3-6.1c-1.7-1.6-2.7-4.2-2.7-6.1s-.3-2.9-.7-4.2c-.3-1.3.3-1.6-.7-4.8-1-3.2-3.8-6.4-3.8-6.4s-2.4-5.7-2.4-6.7-.7-3.8-2.7-5.1l-2.1-1.3s.3-3.5-.7-3.8c-1-.3-5.5-2.6-5.5-2.6s1.4-.3-4.1-2.2c-5.5-1.9-7.5-3.2-8.6-3.8-1-.6-5.8-3.8-5.8-3.8l-3.8-1.9s-4.4-5.4-25.6-5.4h-.2v27.8z"/><path fill="#9A988F" d="M169.5 241.1l-3-1c-4.6-14.9-13.5-25.8-17.8-30.4-2.3 5-6.7 14.4-9.7 19.3 0 0-.2.1-.7.2l4 26c10.9-1.2 21.4-3.8 31.3-7.6 1.3-7.4 2.4-14.9 3.3-22.2-3.8 8.7-7.4 15.7-7.4 15.7z"/><path fill="#861619" d="M127.9 230.5V256h.1c4.9 0 9.7-.3 14.5-.8l-4-26c-1.7.4-5.8 1.3-10.6 1.3z"/><path fill="#911B1D" d="M146.4 207.3l-18.5 4.6v18.6c4.8 0 8.9-.9 10.5-1.3.4-.1.7-.2.7-.2 3-4.8 7.4-14.3 9.7-19.3l-2.4-2.4z"/><path fill="#BCB7AC" d="M127.9 211.3v.6l18.5-4.6s.9.8 2.3 2.4c4.2 4.6 13.2 15.5 17.8 30.4l3 1s3.6-7 7.5-15.7c2.1-16.8 2.9-32.3 1.3-43.1l.4-.2c-3-3.4-8.1-9.2-10.2-10.9 0 0-.2.5-.7 1.4-2.9 5.7-15.5 28.3-39.9 38.7z"/><path fill="#1E2224" d="M212.4 224.2c5.8-5 11-10.6 15.8-16.6-7.3-2.6-17.3-6.2-27.5-11.2l11.7 27.8z"/><path fill="#121617" d="M199.7 194.2c-7.6-5.4-19.3-12.9-19.3-12.9l-1.8.8-.4.2c1.6 10.8.8 26.3-1.3 43.1-.9 7.3-2 14.7-3.3 22.2 14.3-5.5 27.3-13.4 38.6-23.3l-11.7-27.8-.8-2.3z"/><path fill="#432D1C" d="M166.3 83.1c-5.1-1.4-17.1-3.4-27.5 3.4l3.3 4.8s11.2-6.2 21.4-4.8c5.2.7 7.1 1.5 7.8 2-.3-1.5-1.3-4.4-5-5.4zm5 5.3c.1.5.1.9.1.9s.5-.3-.1-.9z"/></svg>