<svg xmlns="http://www.w3.org/2000/svg" width="256" height="256"><circle fill="#B1B3B5" cx="128" cy="128" r="128"/><path fill="#C2A028" d="M221.6 126.6c-9.2-16.2-23.1-24.4-31.4-28-.6 2.7-1.3 5.5-2 8.3 2.6 1.5 4.9 3.7 4.6 6.3-.5 5.7-4.8 6.2-5.5 10.5-.7 4.3-3.1-2.4-3.1 6.7s-.5 14 3.1 11.8l3.6-2.2s-2.9-7.7-1-9.1-.9-9.1 2.9-1.4c3.8 7.7.9 4.3 3.8 7.7 2.9 3.4 1.9 3.4 4.8 3.1 2.9-.3 2.9-5.5 5.3 0s2.4 2.1 2.4 5.5-3.8 8.1 2.9 8.6c6.7.5 7.2 2.9 10.1 0 2.9-2.9 10.1-7.2 10.1-7.2s4.8 4.3 5.3 8.6 0 6.8 4.8 9.6c4.8 2.9-1-1.4 4.8 2.9.7.5 1.4 1 2 1.5 1.4-3.9 2.5-8 3.5-12.1-.2-.2-.5-.3-.7-.5-7.8-9.3-16.4-6.2-30.3-30.6zm24 50.2c-.7 2.6-3.4 6.1-2.7 7.7 1.4-2.9 2.7-5.8 3.9-8.8-.7-.6-.8-.5-1.2 1.1z"/><path fill="#A94B1C" d="M242.2 165.4c-4.8-2.9-4.3-5.4-4.8-9.6-.5-4.3-5.3-8.6-5.3-8.6s-7.2 4.3-10.1 7.2c-2.9 2.9-3.4.5-10.1 0-6.7-.5-2.9-5.3-2.9-8.6 0-3.4 0 0-2.4-5.5s-2.4-.3-5.3 0-1.9.2-4.8-3.1c-2.9-3.4 0 0-3.8-7.7s-1 0-2.9 1.4 1 9.1 1 9.1l-3.6 2.2c-3.6 2.2-3.1-2.7-3.1-11.8 0-9.1 2.4-2.4 3.1-6.7.7-4.3 5-4.8 5.5-10.5.2-2.6-2.1-4.8-4.6-6.3-3.2 12.4-6.9 24-6.6 28.3.3 5.5-1.8 12.5-6.2 18.1 2.3 2.2 6.7 2.9 9.3 3.8 2.9 1.1 7.7 7.3 7.7 7.3s4.8 9.4 12 4.5 8.1-5.9 12.7-4.5c4.6 1.4 9.8.8 9.8 4.5s10.5 9.4-2.9 5.1c-13.4-4.3-18.7-1.4-10.5 0 8.1 1.4 9.1-.2 10.5 2.8 1.4 3 2.4 2.1 0 4.7-.9.9-2.3 1.5-3.8 1.9.1.3.3.6.4 1.1.4 1.1-.1 1.9-1.2 2.4.1.6.2 1.1.2 1.4 0 1-1.4.6-3.7.4 1.8 1.3 3.1.9 5.1 2.9 2.4 2.4 10.3 1.4 9.7 6.7-.2 2.3.2 3.8.6 5 4.3-5.9 8.2-12.3 11.5-18.9-.7-1.7 2-5.1 2.7-7.7.4-1.6.5-1.7 1.2-1.1.8-2 1.5-4 2.2-6-.7-.5-1.3-.9-2-1.5-5.5-4.2.2.1-4.6-2.7z"/><path fill="#964115" d="M147.9 249.7c3.8-3.8 5.3-6.7 0-10.5s-5.8-5.3-11.1-7.2c-.6-.2-1-.4-1.5-.5l-7.4 3.4V256c6.2 0 12.2-.4 18.1-1.3.2-.4.5-.7.8-1.2-.5-1.1-.7-2 1.1-3.8zm19.9-89.7c-1.2.7-2.5 1.5-3.8 2.5.5 3.4 1.2 4.6 3.6 6.4 2.9 2.2 6.7 4.2 8.1 5.1 1.4 1 3.4-3.8 3.8 1.2.5 4.8 2.6 5.1.4 6.1 1.4 4 1.4 6.4-.5 7.2 4.3 2.7 8.2 5.2 10.9 5.8 1.3-.6 2.4-1.1 3.3-1.6.1-.3.2-.6.2-1 .1-.4.1-.7.2-1.1-.9-1.9-.8-1.8.3-1.8.9-4.4 2.1-5.9 3.3-7.4 1.4-1.7 3.4-.3 4.8-1.7 1.2-1.2 3.8-1.3 8.7.6.4-.1.9-.3 1.5-.6 0 0 3.6 2.4 4.4 1.7.2-.2.6.4 1 1.3 1.6.1 1.6-.5 2.1.6 1.5-.4 2.9-1 3.8-1.9 2.4-2.6 1.4-1.7 0-4.7s-2.4-1.3-10.5-2.8c-8.1-1.4-2.9-4.3 10.5 0s2.9-1.4 2.9-5.1c0-3.7-5.3-3-9.8-4.5-4.6-1.4-5.5-.5-12.7 4.5s-12-4.5-12-4.5-4.8-6.2-7.7-7.3c-2.6-.9-7-1.6-9.3-3.8-1.9 2.7-4.5 5.1-7.5 6.8z"/><path fill="#964115" d="M230.8 198.4c.6-5.3-7.3-4.3-9.7-6.7-2-2-3.3-1.7-5.1-2.9-1-.1-2.1-.1-3.3 0-.9.1-1.4.3-1.7.6-.5 1.1 3.7 3.3 5.4 5.1.2.2.4.4.6.5 1.7 1.4 2.2 3.9 4.1 9.6 1.9 5.7-1.4 6.7-4.8 4.8-3.4-1.9 0 0 .7-6.2.1-.7 0-1.3-.1-1.9-2.5 1.2-8.1-2.9-11.5-5.8H200c-4.9 0-3.6.4-5.3-3.4-.3.2-.7.3-1.2.6-.5 1.5-1.7 1.9-3.3 1.6-3.4 1.5-8.5 3.1-16.1 3.1-14.4 0-14.4-2.9-19.2 0-1.7 1-3.3.7-4.6.2-.6.5-1.2 1-2 1.7.2.6.5 1.3.9 2.2 3.8 9.3-2.9 3.8 6.7 8.3s12.9 9.2 22 4.4c9.1-4.8 9.1-5.7 14.8-6.7s4.8-1.9 11.5-1.9 5.7-4.8 6.7 0 1.9 6.7-6.7 8.1-9.6-2.2-11 2.5-22.5 6.1 3.4 9c4.9.5 9.2 1 12.9 1.4 8.2-6.8 15.5-14.6 21.8-23.1-.3-1.3-.7-2.8-.5-5.1z"/><path fill="#7C1419" d="M176.6 188.8c-4.8-.5-6.7-2.9-12.9-.5s-7.2-1.4-9.1 3.4c-1.4 3.5-2.3 4.4-4.1 6 1.3.5 2.9.8 4.6-.2 4.8-2.9 4.8 0 19.2 0 7.6 0 12.7-1.6 16.1-3.1-2.7-.5-6.6-3.1-10.9-5.8-.7.3-1.7.4-2.9.2zm2.9-13.6c-.5-5-2.4-.2-3.8-1.2s-5.3-2.9-8.1-5.1c-2.4-1.8-3.1-3-3.6-6.4-1.5 1.1-3.1 2.3-4.7 3.5-.4 1.1-1 2.1-2.3 2.9-2.9 1.8-1 2.3-3.4 5.1s-5.7 5.7-5.7 5.7c4.8 1.9 20.6-3 20.6-3s-2.4-2.5 3.4 0c5.7 2.5 5.3-2.8 7.7 3.4.1.4.3.8.4 1.1 2.1-.9-.1-1.3-.5-6zm-31.6 63.9c5.3 3.8 3.8 6.7 0 10.5-1.8 1.8-1.6 2.8-1 3.8 2.9-4.8 5.3-1.4 5.3-11s1.9-13.4-1.4-13.9c-3.4-.5-3.8-2.9-7.2-1-3.4 1.9-6.2 2.9-6.2 2.9l-2 .9c.4.2.9.3 1.5.5 5.2 2.1 5.7 3.5 11 7.3zm70.2-56.4c.5 1.2 1.1 2.9 1.4 4.2 1-.5 1.6-1.3 1.2-2.4-.2-.5-.3-.9-.4-1.1-.6-1.2-.6-.5-2.2-.7zm-11.3-.6c6.4-3.8 1.4-.9 4.4-1.8-4.9-1.9-7.5-1.8-8.7-.6-1.4 1.4-3.4 0-4.8 1.7-1.2 1.5-2.4 3-3.3 7.4 1 0 2.8-.2 5.2-2.4 5.3-4.8 0 0 7.2-4.3zm5.9 9.6s2.1 1.5 3.7 2.8c-1.7-1.8-5.9-4-5.4-5.1-.7.9 1.7 2.3 1.7 2.3zm-19.3 24.5c1.4-4.7 2.4-1 11-2.5s7.7-3.4 6.7-8.1c-1-4.8 0 0-6.7 0s-5.7 1-11.5 1.9-5.7 1.9-14.8 6.7c-9.1 4.8-12.5 0-22-4.4s-2.9 1.1-6.7-8.3c-.4-.9-.6-1.6-.9-2.2-.2.2-.4.3-.6.5-3.8 3.4-1.9 10-1.9 10s1-2 3.8 0 10.1 6.3 11.5 6.1c1.4-.2 8.6 3.6 8.6 5s-9.6 7.7 1.9 7.7h16.8c2.9 0 11-.5 5.7 2.9s-9.6 4.8-14.8 4.8-6.9-3.4-8.7 1.9c-1.3 3.7-1.9 8.6 1 10.2 13.9-5.1 26.7-12.5 37.9-21.7-3.7-.4-8-.8-12.9-1.4-25.9-2.9-4.9-4.4-3.4-9.1zm.2-23.5c-.9.5-2 1-3.3 1.6 1.6.3 2.8-.1 3.3-1.6zm14.6 2.8h-2.8c3.4 2.9 9 7 11.5 5.8-1.1-4.6-8.7-5.8-8.7-5.8zm-14.2-4.9c-.1.4-.1.7-.2 1.1-.1.4-.1.7-.2 1l1.2-.6c-.1-.3-.3-.6-.4-.9-.2-.2-.3-.4-.4-.6zm-36.1 58.6c-.3 1.2-.9 2.5-1.8 3.7 2.9-.7 5.8-1.4 8.7-2.3-1.2-.3-2.1-.5-2.1-.5s-3.8-5.2-4.8-.9z"/><path fill="#210201" d="M170.8 238.2c1.8-5.3 3.4-1.9 8.7-1.9s9.6-1.4 14.8-4.8c5.3-3.4-2.9-2.9-5.7-2.9h-16.8c-11.5 0-1.9-6.2-1.9-7.7s-7.2-5.3-8.6-5c-1.4.2-8.6-4.1-11.5-6.1s-3.8 0-3.8 0-1.9-6.6 1.9-10c.2-.2.4-.3.6-.5.8-.7 1.4-1.2 2-1.7 1.8-1.5 2.7-2.5 4.1-6 1.9-4.8 2.9-1 9.1-3.4 6.2-2.4 8.1 0 12.9.5 1.2.1 2.1 0 2.8-.3 1.8-.8 1.8-3.2.5-7.2-.1-.4-.3-.7-.4-1.1-2.4-6.3-1.9-.9-7.7-3.4-5.7-2.5-3.4 0-3.4 0s-15.8 4.9-20.6 3c0 0 3.4-3 5.7-5.7 2.4-2.8.5-3.4 3.4-5.1 1.3-.8 1.9-1.7 2.3-2.9-8 6.2-17.7 13.7-31.3 13.7v55l7.4-3.4 2-.9s2.9-1 6.2-2.9c3.4-1.9 3.8.5 7.2 1 3.4.5 1.4 4.3 1.4 13.9s-2.4 6.2-5.3 11c-.3.5-.5.9-.8 1.2 3.4-.5 6.7-1.1 10-1.8.8-1.2 1.5-2.5 1.8-3.7 1-4.3 4.8 1 4.8 1s.9.2 2.1.5c2.3-.7 4.6-1.5 6.9-2.3-2.7-1.6-2.1-6.4-.8-10.1zm47.3-55.5c-.4-.9-.8-1.5-1-1.3-.7.7-4.4-1.7-4.4-1.7-.7.3-1.2.5-1.5.6-3 1 2-2-4.4 1.8-7.2 4.3-1.9-.5-7.2 4.3-2.4 2.2-4.2 2.4-5.2 2.4-1.1 0-1.3-.1-.3 1.8l.3.6c.2.3.3.6.4.9 1.7 3.8.4 3.4 5.3 3.4h8.2s7.6 1.1 8.7 5.8c.1.6.2 1.2.1 1.9-.7 6.2-4.1 4.3-.7 6.2 3.4 1.9 6.7 1 4.8-4.8-1.9-5.7-2.4-8.2-4.1-9.6-.2-.2-.4-.3-.6-.5-1.6-1.3-3.7-2.8-3.7-2.8s-2.5-1.4-1.7-2.3c.2-.3.7-.5 1.7-.6 1.2-.1 2.3-.1 3.3 0 2.3.2 3.7.6 3.7-.4 0-.3-.1-.8-.2-1.4-.4-1.4-.9-3.1-1.5-4.3z"/><path fill="#E2B930" d="M183.2 98.9c-2.6 8.9-3.5 11.2-3.5 11.2s-.7-.1-1.7-.1c-.2.6-.5 1-.9 1.4-.9 1-1.9 1.7-2.9 2.3.7 4.7 2.5 3.8 2.9 10.5.3 6.7 1.9 3.2.3 8.6-1.6 5.4-2.2 6.7-3.2 7.7-.4.4-1.4.8-2.5 1.4.3.9.2 2-1 5.1-2.9 7.4-1.9 9.6-4.1 8.6-2.2-1-1.7.2-3.1-2.2-.5-.8-.7-1.5-.9-2.1-.8.4-1.5.9-2.2 1.5-.8.9-1.9 2-3.3 3.1-2.1 2-2 1.7-3.7 4.1-1.9 2.8-1.9 4.1-6.1 5.7-2.3.9-3.6 1.1-4.5 1.4-.5.8-1.1 1.5-2.1 1.8-.4.1-.8.3-1.2.5-.8.9-1.2 1.6-2.3 2.7-1.6 1.6-4.2 1.9-4.2 1.9l-5.1 2.8v3c13.5 0 23.3-7.5 31.3-13.7 1.6-1.3 3.2-2.5 4.7-3.5 1.3-.9 2.6-1.8 3.8-2.5 3.1-1.7 5.6-4 7.7-6.7 4.4-5.6 6.5-12.6 6.2-18.1-.3-4.3 3.4-15.9 6.6-28.3.7-2.7 1.4-5.5 2-8.3.7-3.2 1.3-6.3 1.8-9.3-2.9 1.8-5.9 3.4-8.2 4.6.3.9.2 2.4-.6 4.9zm-50.7-80.1c2.9 1.3-1.9-5.7 5.1-2.6s5.1-3.2 6.1 0 1-1.6 1 3.2-1.6 5.1 4.5 8.3c6.1 3.2 13.1 2.9 11.8 7.3-1.3 4.5-3.2 4.5-1.3 6.4 1.9 1.9 4.2 2.2 4.2 2.2s4.8-3.2 7.3 2.6c2.6 5.7.3 4.2 2.6 7.7.6 1 1.3 1.9 2 2.8 2.5-1.4 5-2.9 7.4-4.3-3.8-6-8.8-12.8-14.8-22.1C153.9 8.3 128 8.4 128 8.4v7.9c3.2 1.5 1.6 1.2 4.5 2.5z"/><path fill="#D55E28" d="M171.1 46.3c-2.6-5.7-7.3-2.6-7.3-2.6s-2.2-.3-4.2-2.2c-1.9-1.9 0-1.9 1.3-6.4s-5.7-4.2-11.8-7.3c-6.1-3.2-4.5-3.5-4.5-8.3s0 0-1-3.2 1 3.2-6.1 0-2.2 3.8-5.1 2.6c-2.9-1.3-1.3-1-4.5-2.6v19.5s3.2-5.7 8 0-6.7-3.2 4.8 5.7 6.1 3.5 14 8.9 8 1.6 8 5.4c0 3.8-2.9 4.5 0 7 .3.3.6.5.9.7 3.3-1.9 7.6-4.4 11.9-6.9-.7-.9-1.4-1.8-2-2.8-2.1-3.4.2-1.8-2.4-7.5zM178 110c.9 0 1.7.2 1.7.2s1-2.2 3.5-11.2c.7-2.5.8-4.1.6-5.1-2 1.1-3.5 1.8-3.9 2.2-.3.3-.7.8-1 1.4 0 4.2.4 9.4-.9 12.5zm-14.6 19.9s.2 3.7.3 7.3c1.7-.5 2.4-.3 2.4-3.2v-6.2c0-.2 4.6-5.5 6-5.5s2.9-6.9 2.2 0c-.7 6.9-1.4 1-2.9 11.3-.8 6 .1 7 .5 8.3 1.1-.5 2.1-1 2.5-1.4 1-1 1.6-2.2 3.2-7.7 1.6-5.4 0-1.9-.3-8.6-.3-6.7-2.2-5.8-2.9-10.5-.4.3-.9.5-1.3.8-.8 2-1.6 3.6-2.4 4-.5.2-1 .1-1.6 0-1.4 2.7-2.4 5.5-2.7 6.4-.4.9-3 5-3 5zm-1.2 20.1c0 .6-.6 1.6-1.6 2.8.8-.6 1.4-1.1 2.2-1.5-.2-.7-.4-1.3-.6-1.8v.5zm-12.5 10.7c-.2.2-.6.6-1.2 1.1-1.1.9-2.4 1.7-3.7 2.4-.8 1-1.3 2-1.8 2.9 1-.3 2.2-.5 4.5-1.4 4.2-1.6 4.2-2.9 6.1-5.7 1.7-2.4 1.6-2.1 3.7-4.1l-1.5 1.2c-2.4 1.7-3.9 2.4-6.1 3.6zM128 175.2v1.6l5.1-2.8s2.6-.3 4.2-1.9c1.2-1.2 1.5-1.8 2.3-2.7-2.2.9-4.4 2.4-5.6 3.2-1.4.9-6 2.6-6 2.6z"/><path fill="#AC4C1D" d="M177.2 111.4c.4-.4.6-.9.9-1.4 1.3-3.1.9-8.3.9-12.6-1.4 2.1-3.2 5.6-3.7 9-.4 2.4-1.2 5.5-2.2 8 .4-.2.9-.5 1.3-.8.9-.5 1.8-1.2 2.8-2.2zm-14.4-55.6c0-3.8 0 0-8-5.4s-2.6 0-14-8.9 0 0-4.8-5.7-8 0-8 0v10.1s7.4-2.4 9.6-1.2c2.2 1.2 6.5 2.2 6.7 5.5.2 3.4 3.1 11.3 4.1 12.2s8.6 5 8.6 5 2.7-1.5 6.7-3.8c-.3-.2-.6-.4-.9-.7-2.9-2.6 0-3.2 0-7.1zm1.4 63.3c-1.2 2-2.5 5-4.8 8.2-2.2 3-2.4 8.7-4.5 9.8.1 0 .7 0 2.2.3 4.8.7 1.7 2.6 4.8.7.8-.5 1.4-.7 1.9-.9-.1-3.6-.3-7.3-.3-7.3s2.6-4.2 2.9-5.1c.3-.9 1.3-3.7 2.7-6.4-1.1-.3-2.4-.9-3.4-.6-.3.6-.1 1.2-1.5 1.3z"/><path fill="#AC4C1D" d="M147.6 135.4c-2.6 3.6-2.2 6-6 6.2-3.8.2-6.7 1.2-7.4 1.7-.7.5-4.3-1.2-4.3-1.2l-1.9 1.3v5.2l3.1-1c1-.5 1.9-2.2 3.4-2.9s2.9-3.2 4.3-1.4c.3.4.7.9 1 1.4.1.1.3.1.5.2 3.4 1.4 6.9 3.1 8.1 4.6 1.2 1.4 2.4-1.9 2.6 0 .2 1.3 1.9 1.3 3.2.9.4-2.3-1-1.6-.1-4.8 1-3.4 0-5 1.4-6.7 1-1.1-.9-1.8-.7-1.9-.5.2-1 .3-1.7 0-1-.4-1.7-1-2.2-1.5-.9.3-1.9.8-2.1-.2-.1-.3-.1-.8-.1-1.3-.2.4-.6.8-1.1 1.4zm14.6 14.6v-.5c-.2-.4-.3-.7-.7-.7-1 0-1.7-.5-2.9 1-1.2 1.4-.5 3.1-3.8 6-1.8 1.6-3.4 2.8-5 4.1.2.3.4.3-.2.9 2.3-1.2 3.8-1.9 6.1-3.7l1.5-1.2c1.3-1.1 2.4-2.2 3.3-3.1 1.1-1.2 1.7-2.2 1.7-2.8z"/><path fill="#901D23" d="M183.1 52.4c-2.4 1.4-4.9 2.9-7.4 4.3-4.3 2.5-8.6 5-11.9 6.9-4 2.3-6.7 3.8-6.7 3.8s-7.7-4.1-8.6-5-3.8-8.9-4.1-12.2c-.2-3.4-4.6-4.3-6.7-5.5-2.2-1.2-9.6 1.2-9.6 1.2v1.9s3.8.5 6.9 3.1c3.1 2.6 4.6 3.8 5.3 5 .7 1.2 3.4 2.9 2.4 5s-3.6 8.4-3.8 9.6c-.2 1.2.2 4.3 1 5 .7.7 7.2.2 9.6-1.7s5-4.8 6.9-4.8 4.1-.5 4.6 2.9 3.6 6 5.5 2.6 1.9-3.4 3.1-5.3c1.2-1.9-3.6-1.4 3.6-2.6 7.2-1.2 8.9.5 12-1.4 3.1-1.9 4.1-1.4 6.7-4.6s2.6-5 4.1-5.5c1.4-.5 1.7-1.9 3.8-1.7 2.2.2 6.9-1 8.4-3.6 1.4-2.6 3.8-3.8 3.8-3.8s5.3 1.4 3.4 3.6-4.8 6-6.2 7.7c-1.4 1.7-1 5.3-.2 6.2s4.8.2.7 2.4c-4.1 2.2-3.1 2.9-8.6 5.7-5.5 2.9-5.5 2.9-7.2 4.4-1.7 1.6-.5 2-2.9 4.9s-3.4 3.1-6.9 5.5c-3.6 2.4-3.1 2.6-6 5.7s-2.6 5.4-3.8 1.7c-1.2-3.7-3.4-5.8-4.1-5.8s-1.2-.5-3.6 0-7.2.5-9.8 2.4c-2.6 1.9-.7 2-3.8 3.4-3.1 1.4-2.6 2.1-5.3 3.5-2.6 1.4-3.4-1.5-4.1 3.4s-3.8 6.9.7 8.3.5 2.4 7.7 1.4 4.8-1 9.8-1.4c5-.5 4.8-1.4 6.9-2.9 2.2-1.4 8.9-5 5.5-2.4-3.4 2.6-4.3 3.1-6.5 5.7s-.2 6-1.4 7.2c-.3.3-.4.5-.5.8 1-.2 2.3.4 3.4.6.6.1 1.2.2 1.6 0 .8-.3 1.6-1.9 2.4-4 .9-2.5 1.8-5.7 2.2-8 .6-3.4 2.3-6.9 3.7-9 .4-.6.7-1 1-1.4.4-.4 1.8-1.2 3.9-2.2 2.3-1.2 5.3-2.8 8.2-4.6 4.5-2.7 8.8-5.9 10.2-9.1 3.1-7.2 17.7-15.6 23.9-18.4 2.4-1.1 6-1.8 9.9-2.2-.6-.9-1.2-1.9-1.8-2.8h-1.1s-1.5-2.1-2.4-4.9c-4.8-6.4-10.1-12.4-16-17.8-6.8 3.4-14.7 7.9-18.3 10.4-2 1.6-7.4 4.8-13.5 8.4zm-30 84.7c.7.3 1.2.2 1.7 0 2.2-1.1 2.4-6.8 4.5-9.8 2.3-3.2 3.5-6.2 4.8-8.2-.3 0-.7.1-1.2 0-3.6 0 3.4 2.1-3.6 0-6.9-2.2-7.9-3.6-7.9-3.6l-6.2-2.6s-2.4-1.7-3.8-1.2-2.6 2.2-4.1 3.1c-1.4 1-3.8 2.7-4.6 4.3s-3.1 1.4-.7 4c2.4 2.6 3.6 4.1 3.8 2.9.2-1.2-1.4-3.4.5-3.6 1.9-.2 2.2 1.2 3.8.7 1.7-.5 1.9-4 1.9-4s-3.6-1.9-1.2-1.9 4.6.5 4.6.5.5-.7 1.7 1.5c1.2 2.1 6.2 6 6.2 6s1.4-2.7 1.7 1.4c.2 4.1-.7 5.1-1 5.8-.2.7-1.7 2.9-2.6 3.1-.2 0-.4.1-.5.2.5.4 1.2 1 2.2 1.4zm-21.7 3.9c.1 0 .1 0 0 0 .1 0 0 0 0 0z"/><path fill="#901D23" d="M129.9 142.1s3.6 1.7 4.3 1.2c.7-.5 3.6-1.4 7.4-1.7 3.8-.2 3.4-2.6 6-6.2.5-.6.8-1 1.1-1.3 0-1.2 0-2.7-.9-3-1.2-.5-2.4-3.4-2.6-.5-.2 2.9.2 4.3-.2 5.4s2.4-.8-.5 1.1c-2.9 1.9-5.5 2.4-5.5 2.4s0-.5-1.2 0-1.2 1.4-1.9 2.2-1.7.7-3.1 0l-.8-.4h-.1s-.1 0-.1-.1c-.1 0-.1-.1-.2-.1h-.2c-1.4-.7-3.4.5-3.4.5v2l1.9-1.5zm1.7-1.1c-.1 0-.1 0 0 0-.1 0-.1 0 0 0-.1 0-.1 0 0 0z"/><path fill="#901D23" d="M131.8 141.2c-.1 0-.2-.1-.2-.1s.1 0 .1.1c0-.1 0-.1.1 0 0-.1 0 0 0 0zm8.4 25.1s-3.1 1.3-4.1 2.6c-1 1.3-3.1 2.7-3.1 2.7l-5 2.4v1.2s4.6-1.7 6-2.6c1.2-.8 3.4-2.3 5.6-3.2.4-.2.8-.3 1.2-.5 1-.3 1.6-1 2.1-1.8s1-1.8 1.8-2.9c-2.3 1.3-4.5 2.1-4.5 2.1zm-5.7-19.1c2.3-1.6 2.4-3.4 5.3-2.3-.3-.5-.6-1-1-1.4-1.4-1.8-2.9.6-4.3 1.4s-2.4 2.4-3.4 2.9l-3.1 1 5.3-1.4c0-.2-1.2 1.5 1.2-.2zm20.3-10.1c-.2.1 1.7.8.7 1.9-1.4 1.7-.5 3.4-1.4 6.7-.9 3.1.5 2.5.1 4.8.6-.2 1.1-.4 1.3-.6.7-.6 2.2-5.4 2.2-5.4s-1.9-.5 1.7 0c3.6.5 5.7-2.3 5.7-2.3s.7-2.7 1.9-1.7c1.2 1 2.6-1.5 1.4 3-1.2 4.5 1.2 4.2-1.2 4.5-2.4.2-4-.7-4.1-.7h-1.2c-1.7 0-3.8-3.6-4.3 0s-.7 4.5-1.4 5.3.2 1.9-1 2.6c-1.2.7-2.2 1-3.1 1.4-1 .5-1-1.7-2.2 1.4-.5 1.2-.3 1.6-.2 1.9 1.5-1.2 3.1-2.5 5-4.1 3.4-2.9 2.6-4.5 3.8-6 1.2-1.4 1.9-1 2.9-1 .3 0 .5.3.7.7.2.4.3 1 .6 1.8.2.6.5 1.4.9 2.1 1.4 2.4 1 1.2 3.1 2.2 2.2 1 1.2-1.2 4.1-8.6 1.2-3.1 1.2-4.2 1-5.1-.4-1.3-1.3-2.3-.5-8.3 1.4-10.3 2.2-4.3 2.9-11.3.7-6.9-.7 0-2.2 0s-6 5.3-6 5.5v6.2c0 2.9-.7 2.6-2.4 3.2-.5.2-1.2.4-1.9.9-3.1 1.9 0 0-4.8-.7-1.4-.3-1.9-.4-2.1-.3z"/><path fill="#311514" d="M128 132.3v9.1s1.9-1.2 3.4-.5h.3c.1 0 .1.1.2.1 0 0-.1 0-.1-.1.1 0 .1.1.2.1h-.1c.1 0 .1.1.1.1h.1c.2.1.5.2.8.4 1.4.7 2.4.7 3.1 0s.7-1.7 1.9-2.2c1.2-.5 1.2 0 1.2 0s2.6-.5 5.5-2.4 0 0 .5-1.1 0-2.5.2-5.4c.2-2.9 1.4 0 2.6.5.9.3.9 1.8.9 3 0 .5 0 .9.1 1.3.2 1 1.2.5 2.1.2.2-.1.4-.1.5-.2 1-.2 2.4-2.4 2.6-3.1.2-.7 1.2-1.7 1-5.8-.2-4.1-1.7-1.4-1.7-1.4s-5-3.8-6.2-6c-1.2-2.1-1.7-1.5-1.7-1.5s-2.2-.5-4.6-.5 1.2 1.9 1.2 1.9-.2 3.6-1.9 4c-1.7.5-1.9-1-3.8-.7-1.9.2-.2 2.4-.5 3.6-.2 1.2-1.4-.2-3.8-2.9-2.4-2.6 0-2.4.7-4s3.1-3.4 4.6-4.3c1.4-1 2.6-2.6 4.1-3.1 1.4-.5 3.8 1.2 3.8 1.2l6.2 2.6s1 1.4 7.9 3.6 0 0 3.6 0h1.2c1.4-.2 1.2-.7 1.4-1.4.1-.2.2-.5.5-.8 1.2-1.2-.7-4.6 1.4-7.2 2.2-2.6 3.1-3.1 6.5-5.7s-3.4 1-5.5 2.4c-2.2 1.4-1.9 2.4-6.9 2.9s-2.6.5-9.8 1.4-3.1 0-7.7-1.4-1.4-3.4-.7-8.3 1.4-2 4.1-3.4c2.6-1.4 2.2-2.2 5.3-3.5 3.1-1.4 1.2-1.5 3.8-3.4 2.6-1.9 7.4-1.9 9.8-2.4s2.9 0 3.6 0 2.9 2.2 4.1 5.8c1.2 3.7 1 1.4 3.8-1.7 2.9-3.1 2.4-3.4 6-5.7 3.6-2.4 4.6-2.6 6.9-5.5s1.2-3.4 2.9-4.9c1.7-1.6 1.7-1.6 7.2-4.4 5.5-2.9 4.6-3.6 8.6-5.7 4.1-2.2 0-1.4-.7-2.4s-1.2-4.6.2-6.2c1.4-1.7 4.3-5.5 6.2-7.7 1.9-2.2-3.4-3.6-3.4-3.6s-2.4 1.2-3.8 3.8c-1.4 2.6-6.2 3.8-8.4 3.6-2.2-.2-2.4 1.2-3.8 1.7s-1.4 2.4-4.1 5.5-3.6 2.6-6.7 4.6c-3.1 1.9-4.8.2-12 1.4s-2.4.7-3.6 2.6c-1.2 1.9-1.2 1.9-3.1 5.3-1.9 3.4-5 .7-5.5-2.6-.5-3.4-2.6-2.9-4.6-2.9s-4.6 2.9-6.9 4.8-8.9 2.4-9.6 1.7c-.7-.7-1.2-3.8-1-5 .2-1.2 2.9-7.4 3.8-9.6s-1.7-3.8-2.4-5c-.7-1.2-2.2-2.4-5.3-5-3.1-2.6-6.9-3.1-6.9-3.1v84.5zm3.5 8.7zm.2.1zm-3.7 27.8v5.1l5-2.4s2.2-1.4 3.1-2.7c1-1.3 4.1-2.6 4.1-2.6s2.2-.8 4.5-2.1c1.3-.7 2.6-1.5 3.7-2.4.6-.5 1-.8 1.2-1.1.6-.6.4-.6.2-.9-.2-.3-.3-.7.2-1.9 1.2-3.1 1.2-1 2.2-1.4 1-.5 1.9-.7 3.1-1.4 1.2-.7.2-1.9 1-2.6s1-1.7 1.4-5.3c.5-3.6 2.6 0 4.3 0h1.2c.1 0 1.7.9 4.1.7 2.4-.2 0 0 1.2-4.5s-.2-2-1.4-3-1.9 1.7-1.9 1.7-2.2 2.8-5.7 2.3c-3.6-.5-1.7 0-1.7 0s-1.4 4.8-2.2 5.4c-.2.2-.7.4-1.3.6-1.3.3-3.1.4-3.2-.9-.2-1.9-1.4 1.4-2.6 0-1.2-1.4-4.8-3.1-8.1-4.6-.2-.1-.3-.1-.5-.2-2.9-1.1-3 .7-5.3 2.3-2.4 1.7-1.2 0-1.2 0l-5.3 1.4v20.5zM234.3 56.7c-1.1-1.7-2.3-3.3-3.5-4.9.9 2.8 2.4 4.9 2.4 4.9h1.1z"/><path fill="#9E841F" d="M10.4 176.8c-.4-1.6-.5-1.7-1.2-1.1 1.2 3 2.5 5.9 3.9 8.8.7-1.7-2-5.1-2.7-7.7zm3.4-11.4c4.8-2.9 4.3-5.4 4.8-9.6.5-4.3 5.3-8.6 5.3-8.6s7.2 4.3 10.1 7.2c2.9 2.9 3.4.5 10.1 0 6.7-.5 2.9-5.3 2.9-8.6 0-3.4 0 0 2.4-5.5s2.4-.3 5.3 0 1.9.2 4.8-3.1c2.9-3.4 0 0 3.8-7.7s1 0 2.9 1.4-1 9.1-1 9.1l3.6 2.2c3.6 2.2 3.1-2.7 3.1-11.8 0-9.1-2.4-2.4-3.1-6.7-.7-4.3-5-4.8-5.5-10.5-.2-2.6 2.1-4.8 4.6-6.3-.7-2.7-1.4-5.5-2-8.3-8.3 3.6-22.1 11.8-31.4 28-14 24.4-22.6 21.3-30.3 30.5-.2.2-.5.3-.7.5 1 4.1 2.1 8.1 3.5 12.1.7-.5 1.3-.9 2-1.5 5.7-4.3 0 0 4.8-2.8z"/><path fill="#934013" d="M25.2 198.4c-.6-5.3 7.3-4.3 9.7-6.7 2-2 3.3-1.7 5.1-2.9-2.3.2-3.7.6-3.7-.4 0-.3.1-.8.2-1.4-1-.5-1.6-1.3-1.2-2.4.2-.5.3-.9.4-1.1-1.5-.4-2.9-1-3.8-1.9-2.4-2.6-1.4-1.7 0-4.7s2.4-1.3 10.5-2.8c8.1-1.4 2.9-4.3-10.5 0S29 172.7 29 169c0-3.7 5.3-3 9.8-4.5 4.6-1.4 5.5-.5 12.7 4.5s12-4.5 12-4.5 4.8-6.2 7.7-7.3c2.6-.9 7-1.6 9.3-3.8-4.4-5.6-6.5-12.6-6.2-18.1.3-4.3-3.4-15.9-6.6-28.3-2.6 1.5-4.9 3.7-4.6 6.3.5 5.7 4.8 6.2 5.5 10.5.7 4.3 3.1-2.4 3.1 6.7s.5 14-3.1 11.8L65 140s2.9-7.7 1-9.1c-1.9-1.4.9-9.1-2.9-1.4-3.8 7.7-.9 4.3-3.8 7.7-2.9 3.4-1.9 3.4-4.8 3.1-2.9-.3-2.9-5.5-5.3 0s-2.4 2.1-2.4 5.5 3.8 8.1-2.9 8.6c-6.7.5-7.2 2.9-10.1 0-2.9-2.9-10.1-7.2-10.1-7.2s-4.8 4.3-5.3 8.6 0 6.8-4.8 9.6c-4.8 2.9 1-1.4-4.8 2.9-.7.5-1.4 1-2 1.5.7 2 1.4 4 2.2 6 .7-.6.8-.5 1.2 1.1.7 2.6 3.4 6.1 2.7 7.7 3.3 6.7 7.1 13 11.5 18.9.6-1.3 1-2.8.8-5.1z"/><path fill="#7B3306" d="M120.6 231.4c-.4.2-.9.3-1.5.5-5.3 1.9-5.7 3.4-11.1 7.2-5.3 3.8-3.8 6.7 0 10.5 1.8 1.8 1.6 2.8 1 3.8.3.5.5.9.8 1.2 5.9.8 12 1.3 18.1 1.3v-21.2l-7.3-3.3zm-44.1-56.2c.5-5 2.4-.2 3.8-1.2s5.3-2.9 8.1-5.1c2.4-1.8 3.1-3 3.6-6.4-1.3-.9-2.6-1.8-3.8-2.5-3.1-1.7-5.6-4-7.7-6.7-2.3 2.2-6.7 2.9-9.3 3.8-2.9 1.1-7.7 7.3-7.7 7.3s-4.8 9.4-12 4.5-8.1-5.9-12.7-4.5c-4.6 1.4-9.8.8-9.8 4.5s-10.5 9.4 2.9 5.1c13.4-4.3 18.7-1.4 10.5 0-8.1 1.4-9.1-.2-10.5 2.8-1.4 3-2.4 2.1 0 4.7.9.9 2.3 1.5 3.8 1.9.5-1.2.5-.5 2.1-.6.4-.9.8-1.5 1-1.3.7.7 4.4-1.7 4.4-1.7.7.3 1.2.5 1.5.6 4.9-1.9 7.5-1.8 8.7-.6 1.4 1.4 3.4 0 4.8 1.7 1.2 1.5 2.4 3 3.3 7.4 1.1 0 1.3-.1.3 1.8.1.4.1.7.2 1.1.1.4.1.7.2 1 .9.5 2 1 3.3 1.6 2.7-.5 6.6-3.1 10.9-5.8-1.8-.8-1.8-3.2-.5-7.2-2-1.1.2-1.5.6-6.2z"/><path fill="#7B3306" d="M62.6 216.2c-1.4-4.7-2.4-1-11-2.5s-7.7-3.4-6.7-8.1c1-4.8 0 0 6.7 0s5.7 1 11.5 1.9 5.7 1.9 14.8 6.7c9.1 4.8 12.5 0 22-4.4s2.9 1.1 6.7-8.3c.4-.9.6-1.6.9-2.2-.8-.7-1.4-1.2-2-1.7-1.3.5-2.9.8-4.6-.2-4.8-2.9-4.8 0-19.2 0-7.6 0-12.7-1.6-16.1-3.1-1.6.3-2.8-.1-3.3-1.6l-1.2-.6c-1.7 3.8-.4 3.4-5.3 3.4h-5.4c-3.4 2.9-9 7-11.5 5.8-.1.6-.2 1.2-.1 1.9.7 6.2 4.1 4.3.7 6.2-3.4 1.9-6.7 1-4.8-4.8s2.4-8.2 4.1-9.6c.2-.2.4-.3.6-.5 1.7-1.8 5.9-4 5.4-5.1-.2-.3-.7-.5-1.7-.6-1.2-.1-2.3-.1-3.3 0-1.8 1.3-3.1.9-5.1 2.9-2.4 2.4-10.3 1.4-9.7 6.7.2 2.3-.2 3.8-.6 5 6.3 8.6 13.6 16.4 21.8 23.1 3.7-.4 8-.8 12.9-1.4 26-2.7 5-4.2 3.5-8.9z"/><path fill="#65070B" d="M93.3 250.1s-.9.2-2.1.5c2.9.9 5.8 1.6 8.7 2.3-.8-1.2-1.5-2.5-1.8-3.7-1-4.3-4.8.9-4.8.9zm-48.4-60.7c.5 1.1-3.7 3.3-5.4 5.1 1.6-1.3 3.7-2.8 3.7-2.8s2.5-1.4 1.7-2.3zM39 201.3c2.5 1.2 8.1-2.9 11.5-5.8h-2.8s-7.5 1.2-8.7 5.8zm73.4 26.3c-3.4-1.9-3.8.5-7.2 1-3.4.5-1.4 4.3-1.4 13.9s2.4 6.2 5.3 11c.6-1.1.8-2.1-1-3.8-3.8-3.8-5.3-6.7 0-10.5s5.8-5.3 11.1-7.2c.6-.2 1-.4 1.5-.5l-2-.9c0-.1-2.9-1.1-6.3-3zm-46.7-33.3c-1.3-.6-2.4-1.1-3.3-1.6.5 1.5 1.7 1.9 3.3 1.6zm16.1 3.2c14.4 0 14.4-2.9 19.2 0 1.7 1 3.3.7 4.6.2-1.8-1.5-2.7-2.5-4.1-6-1.9-4.8-2.9-1-9.1-3.4-6.2-2.4-8.1 0-12.9.5-1.2.1-2.1 0-2.8-.3-4.3 2.7-8.2 5.2-10.9 5.8 3.3 1.5 8.3 3.2 16 3.2zM62 190.6l-.3.6c-.2.3-.3.6-.4.9.3.2.7.3 1.2.6-.1-.3-.2-.6-.2-1-.2-.4-.3-.7-.3-1.1zm26.5-21.7c-2.9 2.2-6.7 4.2-8.1 5.1-1.4 1-3.4-3.8-3.8 1.2-.5 4.8-2.6 5.1-.4 6.1.1-.4.3-.7.4-1.1 2.4-6.3 1.9-.9 7.7-3.4 5.7-2.5 3.4 0 3.4 0s15.8 4.9 20.6 3c0 0-3.4-3-5.7-5.7s-.5-3.4-3.4-5.1c-1.3-.8-1.9-1.7-2.3-2.9-1.6-1.3-3.2-2.5-4.7-3.5-.6 3.2-1.3 4.4-3.7 6.3zm-3.3 69.3c-1.8-5.3-3.4-1.9-8.7-1.9-5.3 0-9.6-1.4-14.8-4.8-5.3-3.4 2.9-2.9 5.7-2.9h16.8c11.5 0 1.9-6.2 1.9-7.7s7.2-5.3 8.6-5c1.4.2 8.6-4.1 11.5-6.1 2.9-2 3.8 0 3.8 0s1.9-6.6-1.9-10c-.2-.2-.4-.3-.6-.5-.2.6-.5 1.3-.9 2.2-3.8 9.3 2.9 3.8-6.7 8.3s-12.9 9.2-22 4.4c-9.1-4.8-9.1-5.7-14.8-6.7s-4.8-1.9-11.5-1.9-5.7-4.8-6.7 0-1.9 6.7 6.7 8.1 9.6-2.2 11 2.5c1.4 4.7 22.5 6.1-3.4 9-4.9.5-9.2 1-12.9 1.4 11.2 9.3 24 16.7 37.9 21.7 2.9-1.6 2.3-6.4 1-10.1zm-47.3-55.5c-1.6.1-1.6-.5-2.1.6-.1.3-.3.6-.4 1.1-.4 1.1.1 1.9 1.2 2.4.2-1.2.7-2.9 1.3-4.1zm11.3-.6c7.2 4.3 1.9-.5 7.2 4.3 2.4 2.2 4.2 2.4 5.2 2.4-.9-4.4-2.1-5.9-3.3-7.4-1.4-1.7-3.4-.3-4.8-1.7-1.2-1.2-3.8-1.3-8.7.6 3 1-2-2 4.4 1.8z"/><path fill="#180000" d="M109.1 253.5c-2.9-4.8-5.3-1.4-5.3-11s-1.9-13.4 1.4-13.9c3.4-.5 3.8-2.9 7.2-1 3.4 1.9 6.2 2.9 6.2 2.9l2 .9 7.4 3.4v-55c-13.5 0-23.3-7.5-31.3-13.7.4 1.1 1 2.1 2.3 2.9 2.9 1.8 1 2.3 3.4 5.1s5.7 5.7 5.7 5.7c-4.8 1.9-20.6-3-20.6-3s2.4-2.5-3.4 0c-5.7 2.5-5.3-2.8-7.7 3.4-.1.4-.3.8-.4 1.1-1.4 4-1.4 6.4.5 7.2.7.3 1.6.4 2.8.3 4.8-.5 6.7-2.9 12.9-.5s7.2-1.4 9.1 3.4c1.4 3.5 2.3 4.4 4.1 6 .6.5 1.2 1 2 1.7.2.2.4.3.6.5 3.8 3.4 1.9 10 1.9 10s-1-2-3.8 0c-2.9 2-10.1 6.3-11.5 6.1-1.4-.2-8.6 3.6-8.6 5s9.6 7.7-1.9 7.7H67.3c-2.9 0-11-.5-5.7 2.9s9.6 4.8 14.8 4.8c5.3 0 6.9-3.4 8.7 1.9 1.3 3.7 1.9 8.6-1 10.2 2.3.8 4.6 1.6 6.9 2.3 1.2-.3 2.1-.5 2.1-.5s3.8-5.3 4.8-1c.3 1.2.9 2.5 1.8 3.7 3.3.7 6.6 1.3 10 1.8-.1-.4-.3-.8-.6-1.3zM62 190.6c.9-1.9.8-1.8-.3-1.8-1 0-2.8-.2-5.2-2.4-5.3-4.8 0 0-7.2-4.3-6.4-3.8-1.4-.9-4.4-1.8-.4-.1-.9-.3-1.5-.6 0 0-3.6 2.4-4.4 1.7-.2-.2-.6.4-1 1.3-.5 1.2-1.1 2.9-1.4 4.2-.1.6-.2 1.1-.2 1.4 0 1 1.4.6 3.7.4 1-.1 2.1-.1 3.3 0 .9.1 1.4.3 1.7.6.8.9-1.7 2.3-1.7 2.3s-2.1 1.5-3.7 2.8c-.2.2-.4.4-.6.5-1.7 1.4-2.2 3.9-4.1 9.6s1.4 6.7 4.8 4.8c3.4-1.9 0 0-.7-6.2-.1-.7 0-1.3.1-1.9 1.2-4.6 8.7-5.8 8.7-5.8h8.2c4.9 0 3.6.4 5.3-3.4.1-.3.3-.6.4-.9 0-.1.1-.3.2-.5z"/><path fill="#C2A028" d="M82.3 53.9c2.2-3.5 0-1.9 2.6-7.7s7.3-2.6 7.3-2.6 2.2-.3 4.2-2.2c1.9-1.9 0-1.9-1.3-6.4s5.7-4.2 11.8-7.3c6.1-3.2 4.5-3.5 4.5-8.3s0 0 1-3.2-1 3.2 6.1 0 2.2 3.8 5.1 2.6c2.9-1.3 1.3-1 4.5-2.6V8.4s-25.9-.1-40.2 21.9c-6.1 9.3-11 16.1-14.8 22.1 2.4 1.4 4.9 2.9 7.4 4.3.5-.9 1.2-1.8 1.8-2.8zM122.9 174s-2.6-.3-4.2-1.9c-1.2-1.2-1.5-1.8-2.3-2.7-.4-.2-.8-.3-1.2-.5-1-.3-1.6-1-2.1-1.8-1-.3-2.2-.5-4.5-1.4-4.2-1.6-4.2-2.9-6.1-5.7-1.7-2.4-1.6-2.1-3.7-4.1-1.3-1.1-2.4-2.2-3.3-3.1-.8-.6-1.4-1.1-2.2-1.5-.2.6-.5 1.4-.9 2.1-1.4 2.4-1 1.2-3.1 2.2-2.2 1-1.2-1.2-4.1-8.6-1.2-3.1-1.2-4.2-1-5.1-1.1-.5-2.1-1-2.5-1.4-1-1-1.6-2.2-3.2-7.7-1.6-5.4 0-1.9.3-8.6.3-6.7 2.2-5.8 2.9-10.5-.9-.6-1.9-1.3-2.9-2.3-.4-.4-.6-.9-.9-1.4-.9 0-1.7.2-1.7.2s-1-2.2-3.5-11.2c-.7-2.5-.8-4.1-.6-5.1-2.3-1.2-5.3-2.8-8.2-4.6.5 3 1.1 6.1 1.8 9.3.6 2.7 1.3 5.5 2 8.3 3.2 12.4 6.9 24 6.6 28.3-.3 5.5 1.8 12.5 6.2 18.1 2.1 2.6 4.6 5 7.7 6.7 1.2.7 2.5 1.5 3.8 2.5 1.5 1.1 3.1 2.3 4.7 3.5 8 6.2 17.7 13.7 31.3 13.7v-3l-5.1-2.7z"/><path fill="#A94B1C" d="M93.2 55.8c0-3.8 0 0 8-5.4s2.6 0 14-8.9 0 0 4.8-5.7 8 0 8 0V16.2c-3.2 1.6-1.6 1.3-4.5 2.6s1.9-5.7-5.1-2.6-5.1-3.2-6.1 0-1-1.6-1 3.2 1.6 5.1-4.5 8.3c-6.1 3.2-13.1 2.9-11.8 7.3 1.3 4.5 3.2 4.5 1.3 6.4-1.9 1.9-4.2 2.2-4.2 2.2s-4.8-3.2-7.3 2.6-.3 4.2-2.6 7.7c-.6 1-1.3 1.9-2 2.8 4.3 2.5 8.6 5 11.9 6.9.3-.2.6-.4.9-.7 3.1-2.6.2-3.2.2-7.1zM72.8 98.9c2.6 8.9 3.5 11.2 3.5 11.2s.7-.1 1.7-.1c-1.3-3.1-.9-8.3-.9-12.6-.4-.6-.7-1-1-1.4-.4-.4-1.8-1.2-3.9-2.2-.3 1.1-.2 2.6.6 5.1zm6 25.3c-.3 6.7-1.9 3.2-.3 8.6 1.6 5.4 2.2 6.7 3.2 7.7.4.4 1.4.8 2.5 1.4.4-1.3 1.3-2.3.5-8.3-1.4-10.3-2.2-4.3-2.9-11.3-.7-6.9.7 0 2.2 0s6 5.3 6 5.5v6.2c0 2.9.7 2.6 2.4 3.2.1-3.6.3-7.3.3-7.3s-2.6-4.2-2.9-5.1c-.3-.9-1.3-3.7-2.7-6.4-.6.1-1.2.2-1.6 0-.8-.3-1.6-1.9-2.4-4-.4-.2-.9-.5-1.3-.8-.8 4.8-2.7 3.9-3 10.6zm15 25.8v-.5c-.2.4-.3 1-.6 1.8.8.4 1.5.9 2.2 1.5-1-1.2-1.6-2.2-1.6-2.8zm28.2 22.5c-1.2-.8-3.4-2.3-5.6-3.2.8.9 1.2 1.6 2.3 2.7 1.6 1.6 4.2 1.9 4.2 1.9l5.1 2.8v-1.6c0 .1-4.6-1.6-6-2.6zm-14.5-10.7c-.6-.5-1-.8-1.2-1.1-2.3-1.2-3.8-1.9-6.1-3.7l-1.5-1.2c2.1 2 2 1.7 3.7 4.1 1.9 2.8 1.9 4.1 6.1 5.7 2.3.9 3.6 1.1 4.5 1.4-.5-.8-1-1.8-1.8-2.9-1.2-.6-2.5-1.4-3.7-2.3z"/><path fill="#964115" d="M120 35.7c-4.8 5.7 6.7-3.2-4.8 5.7s-6.1 3.5-14 8.9c-8 5.4-8 1.6-8 5.4 0 3.8 2.9 4.5 0 7-.3.3-.6.5-.9.7 4 2.3 6.7 3.8 6.7 3.8s7.7-4.1 8.6-5c1-1 3.8-8.9 4.1-12.2.2-3.4 4.6-4.3 6.7-5.5 2.2-1.2 9.6 1.2 9.6 1.2v-10s-3.2-5.7-8 0zM78 110c.2.6.5 1 .9 1.4.9 1 1.9 1.7 2.9 2.3.4.3.9.5 1.3.8-.9-2.5-1.8-5.7-2.2-8-.6-3.4-2.3-6.9-3.7-9-.1 4.2-.5 9.4.8 12.5zm14.6 19.9s-.2 3.7-.3 7.3c.5.2 1.2.4 1.9.9 3.1 1.9 0 0 4.8-.7 1.5-.2 2-.3 2.2-.3-2.2-1.1-2.4-6.8-4.5-9.8-2.3-3.2-3.5-6.2-4.8-8.2-1.4-.2-1.2-.7-1.4-1.4-1-.2-2.3.4-3.4.6 1.4 2.7 2.4 5.5 2.7 6.4.2 1.1 2.8 5.2 2.8 5.2z"/><path fill="#964115" d="M102.9 137.1c-.7.3-1.2.2-1.7 0 .2.1-1.7.8-.7 1.9 1.4 1.7.5 3.4 1.4 6.7.9 3.1-.5 2.5-.1 4.8 1.3.3 3.1.4 3.2-.9.2-1.9 1.4 1.4 2.6 0 1.2-1.4 4.8-3.1 8.1-4.6.2-.1.3-.1.5-.2.3-.5.6-1 1-1.4 1.4-1.8 2.9.6 4.3 1.4s2.4 2.4 3.4 2.9l3.1 1v-5.2l-1.9-1.3s-3.6 1.7-4.3 1.2c-.7-.5-3.6-1.4-7.4-1.7-3.8-.2-3.4-2.6-6-6.2-.5-.6-.8-1-1.1-1.3 0 .5 0 .9-.1 1.3-.2 1-1.2.5-2.1.2-.5.4-1.2 1-2.2 1.4zm3.4 23.6c-.6-.6-.4-.6-.2-.9-1.5-1.2-3.1-2.5-5-4.1-3.4-2.9-2.6-4.5-3.8-6-1.2-1.4-1.9-1-2.9-1-.3 0-.5.3-.7.7v.5c0 .6.6 1.6 1.6 2.8.8.9 1.9 2 3.3 3.1l1.5 1.2c2.5 1.8 4 2.5 6.2 3.7z"/><path fill="#7C1419" d="M53.8 80.1c1.4 3.2 5.7 6.4 10.2 9.1 2.9 1.8 5.9 3.4 8.2 4.6 2 1.1 3.5 1.8 3.9 2.2.3.3.7.8 1 1.4 1.4 2.1 3.2 5.6 3.7 9 .4 2.4 1.2 5.5 2.2 8 .8 2 1.6 3.6 2.4 4 .5.2 1 .1 1.6 0 1.1-.3 2.4-.9 3.4-.6-.1-.2-.2-.5-.5-.8-1.2-1.2.7-4.6-1.4-7.2-2.2-2.6-3.1-3.1-6.5-5.7s3.4 1 5.5 2.4c2.2 1.4 1.9 2.4 6.9 2.9s2.6.5 9.8 1.4 3.1 0 7.7-1.4 1.4-3.4.7-8.3-1.4-2-4.1-3.4c-2.6-1.4-2.2-2.2-5.3-3.5-3.1-1.4-1.2-1.5-3.8-3.4-2.6-1.9-7.4-1.9-9.8-2.4s-2.9 0-3.6 0-2.9 2.2-4.1 5.8c-1.2 3.7-1 1.4-3.8-1.7s-2.4-3.4-6-5.7c-3.6-2.4-4.6-2.6-6.9-5.5s-1.2-3.4-2.9-4.9c-1.7-1.6-1.7-1.6-7.2-4.4-5.5-2.9-4.6-3.6-8.6-5.7-4.1-2.2 0-1.4.7-2.4s1.2-4.6-.2-6.2c-1.4-1.7-4.3-5.5-6.2-7.7-1.9-2.2 3.4-3.6 3.4-3.6s2.4 1.2 3.8 3.8c1.4 2.6 6.2 3.8 8.4 3.6 2.2-.2 2.4 1.2 3.8 1.7s1.4 2.4 4.1 5.5c2.6 3.1 3.6 2.6 6.7 4.6 3.1 1.9 4.8.2 12 1.4s2.4.7 3.6 2.6c1.2 1.9 1.2 1.9 3.1 5.3 1.9 3.4 5 .7 5.5-2.6.5-3.4 2.6-2.9 4.6-2.9 1.9 0 4.6 2.9 6.9 4.8s8.9 2.4 9.6 1.7 1.2-3.8 1-5c-.2-1.2-2.9-7.4-3.8-9.6s1.7-3.8 2.4-5c.7-1.2 2.2-2.4 5.3-5 3.1-2.6 6.9-3.1 6.9-3.1v-1.9s-7.4-2.4-9.6-1.2c-2.2 1.2-6.5 2.2-6.7 5.5-.2 3.4-3.1 11.3-4.1 12.2-1 1-8.6 5-8.6 5s-2.7-1.5-6.7-3.8c-3.3-1.9-7.6-4.4-11.9-6.9-2.5-1.4-5-2.9-7.4-4.3-6.2-3.6-11.5-6.8-13.4-8.1-3.6-2.4-11.5-7-18.3-10.4-5.9 5.4-11.2 11.4-16 17.8C24.5 54.9 23 57 23 57h-1.1c-.6.9-1.2 1.8-1.8 2.8 3.9.5 7.5 1.1 9.9 2.2 6 2.5 20.6 10.9 23.8 18.1zm54.6 55.3c2.6 3.6 2.2 6 6 6.2 3.8.2 6.7 1.2 7.4 1.7.7.5 4.3-1.2 4.3-1.2l1.9 1.3v-2s-1.9-1.2-3.4-.5h-.2c-.1 0-.1.1-.2.1s-.1.1-.1.1h-.1c-.2.1-.5.2-.8.4-1.4.7-2.4.7-3.1 0s-.7-1.7-1.9-2.2c-1.2-.5-1.2 0-1.2 0s-2.6-.5-5.5-2.4 0 0-.5-1.1 0-2.5-.2-5.4c-.2-2.9-1.4 0-2.6.5-.9.3-.9 1.8-.9 3 .2.5.6.9 1.1 1.5z"/><path fill="#7C1419" d="M101.2 137.1c.5.2 1 .3 1.7 0 1-.4 1.7-1 2.2-1.5-.2-.1-.4-.1-.5-.2-1-.2-2.4-2.4-2.6-3.1-.2-.7-1.2-1.7-1-5.8.2-4.1 1.7-1.4 1.7-1.4s5-3.8 6.2-6c1.2-2.1 1.7-1.5 1.7-1.5s2.2-.5 4.6-.5-1.2 1.9-1.2 1.9.2 3.6 1.9 4c1.7.5 1.9-1 3.8-.7 1.9.2.2 2.4.5 3.6s1.4-.2 3.8-2.9c2.4-2.6 0-2.4-.7-4s-3.1-3.4-4.6-4.3c-1.4-1-2.6-2.6-4.1-3.1-1.4-.5-3.8 1.2-3.8 1.2l-6.2 2.6s-1 1.4-7.9 3.6 0 0-3.6 0h-1.2c1.2 2 2.5 5 4.8 8.2 2.1 3 2.3 8.7 4.5 9.9zm23.2 3.9c-.1 0-.1.1-.2.1h.1s.1 0 .1-.1zm.2 0s-.1 0 0 0c-.1 0-.1 0 0 0zm-.2 0c.1 0 .1 0 0 0 .1 0 .1 0 0 0 .1 0 .1 0 0 0zm3.6 34.2V174l-5-2.4s-2.2-1.4-3.1-2.7c-1-1.3-4.1-2.6-4.1-2.6s-2.2-.8-4.5-2.1c.8 1 1.3 2 1.8 2.9.5.8 1.1 1.5 2.1 1.8.4.1.8.3 1.2.5 2.2.9 4.4 2.4 5.6 3.2 1.4.9 6 2.6 6 2.6zm-6.5-28c2.4 1.7 1.2 0 1.2 0l5.3 1.4-3.1-1c-1-.5-1.9-2.2-3.4-2.9s-2.9-3.2-4.3-1.4c-.3.4-.7.9-1 1.4 2.9-.9 3.1.9 5.3 2.5z"/><path fill="#7C1419" d="M94.5 148.8c1 0 1.7-.5 2.9 1 1.2 1.4.5 3.1 3.8 6 1.8 1.6 3.4 2.8 5 4.1.2-.3.3-.7-.2-1.9-1.2-3.1-1.2-1-2.2-1.4-1-.5-1.9-.7-3.1-1.4-1.2-.7-.2-1.9-1-2.6s-1-1.7-1.4-5.3c-.5-3.6-2.6 0-4.3 0h-1.2c-.1 0-1.7.9-4.1.7-2.4-.2 0 0-1.2-4.5s.2-2 1.4-3 1.9 1.7 1.9 1.7 2.2 2.8 5.7 2.3c3.6-.5 1.7 0 1.7 0s1.4 4.8 2.2 5.4c.2.2.7.4 1.3.6-.4-2.3 1-1.6.1-4.8-1-3.4 0-5-1.4-6.7-1-1.1.9-1.8.7-1.9-.1 0-.7 0-2.2.3-4.8.7-1.7 2.6-4.8.7-.8-.5-1.4-.7-1.9-.9-1.7-.5-2.4-.3-2.4-3.2v-6.2c0-.2-4.6-5.5-6-5.5s-2.9-6.9-2.2 0c.7 6.9 1.4 1 2.9 11.3.8 6-.1 7-.5 8.3-.3.9-.2 2 1 5.1 2.9 7.4 1.9 9.6 4.1 8.6 2.2-1 1.7.2 3.1-2.2.5-.8.7-1.5.9-2.1.2-.7.4-1.3.6-1.8.3-.4.5-.7.8-.7z"/><path fill="#210201" d="M115.8 55.9c-.7 1.2-3.4 2.9-2.4 5s3.6 8.4 3.8 9.6c.2 1.2-.2 4.3-1 5s-7.2.2-9.6-1.7-5-4.8-6.9-4.8c-1.9 0-4.1-.5-4.6 2.9s-3.6 6-5.5 2.6-1.9-3.4-3.1-5.3c-1.2-1.9 3.6-1.4-3.6-2.6-7.2-1.2-8.9.5-12-1.4-3.1-1.9-4.1-1.4-6.7-4.6-2.6-3.1-2.6-5-4.1-5.5-1.4-.5-1.7-1.9-3.8-1.7-2.2.2-6.9-1-8.4-3.6-1.4-2.6-3.8-3.8-3.8-3.8s-5.3 1.4-3.4 3.6 4.8 6 6.2 7.7c1.4 1.7 1 5.3.2 6.2-.7 1-4.8.2-.7 2.4 4.1 2.2 3.1 2.9 8.6 5.7 5.5 2.9 5.5 2.9 7.2 4.4 1.7 1.6.5 2 2.9 4.9s3.4 3.1 6.9 5.5c3.6 2.4 3.1 2.6 6 5.7s2.6 5.4 3.8 1.7c1.2-3.7 3.4-5.8 4.1-5.8s1.2-.5 3.6 0 7.2.5 9.8 2.4c2.6 1.9.7 2 3.8 3.4 3.1 1.4 2.6 2.1 5.3 3.5 2.6 1.4 3.4-1.5 4.1 3.4s3.8 6.9-.7 8.3-.5 2.4-7.7 1.4-4.8-1-9.8-1.4c-5-.5-4.8-1.4-6.9-2.9-2.2-1.4-8.9-5-5.5-2.4 3.4 2.6 4.3 3.1 6.5 5.7s.2 6 1.4 7.2c.3.3.4.5.5.8.2.7 0 1.2 1.4 1.4.3 0 .7.1 1.2 0 3.6 0-3.4 2.1 3.6 0 6.9-2.2 7.9-3.6 7.9-3.6l6.2-2.6s2.4-1.7 3.8-1.2 2.6 2.2 4.1 3.1c1.4 1 3.8 2.7 4.6 4.3s3.1 1.4.7 4c-2.4 2.6-3.6 4.1-3.8 2.9s1.4-3.4-.5-3.6c-1.9-.2-2.2 1.2-3.8.7-1.7-.5-1.9-4-1.9-4s3.6-1.9 1.2-1.9-4.6.5-4.6.5-.5-.7-1.7 1.5c-1.2 2.1-6.2 6-6.2 6s-1.4-2.7-1.7 1.4c-.2 4.1.7 5.1 1 5.8.2.7 1.7 2.9 2.6 3.1.2 0 .4.1.5.2.9.3 1.9.8 2.1-.2.1-.3.1-.8.1-1.3 0-1.2 0-2.7.9-3 1.2-.5 2.4-3.4 2.6-.5.2 2.9-.2 4.3.2 5.4.5 1.1-2.4-.8.5 1.1 2.9 1.9 5.5 2.4 5.5 2.4s0-.5 1.2 0 1.2 1.4 1.9 2.2 1.7.7 3.1 0l.8-.4h.1s.1 0 .1-.1h-.1c.1 0 .2-.1.2-.1s-.1 0-.1.1c.1 0 .1-.1.2-.1h.3c1.4-.7 3.4.5 3.4.5V47.8s-3.8.5-6.9 3.1c-3.1 2.6-4.5 3.8-5.2 5zm8.7 85.1zm-.2.1zm-26 3.4s1.9-.5-1.7 0c-3.6.5-5.7-2.3-5.7-2.3s-.7-2.7-1.9-1.7c-1.2 1-2.6-1.5-1.4 3 1.2 4.5-1.2 4.2 1.2 4.5 2.4.2 4-.7 4.1-.7h1.2c1.7 0 3.8-3.6 4.3 0s.7 4.5 1.4 5.3-.2 1.9 1 2.6c1.2.7 2.2 1 3.1 1.4 1 .5 1-1.7 2.2 1.4.5 1.2.3 1.6.2 1.9-.2.3-.4.3.2.9.2.2.6.6 1.2 1.1 1.1.9 2.4 1.7 3.7 2.4 2.4 1.3 4.5 2.1 4.5 2.1s3.1 1.3 4.1 2.6c1 1.3 3.1 2.7 3.1 2.7l5 2.4v-25.3l-5.3-1.4s1.2 1.7-1.2 0c-2.3-1.6-2.4-3.4-5.3-2.3-.1.1-.3.1-.5.2-3.4 1.4-6.9 3.1-8.1 4.6-1.2 1.4-2.4-1.9-2.6 0-.2 1.3-1.9 1.3-3.2.9-.6-.2-1.1-.4-1.3-.6-.9-.9-2.3-5.7-2.3-5.7zM25.2 51.8c-1.2 1.6-2.4 3.2-3.5 4.9h1.1s1.5-2.1 2.4-4.9z"/></svg>