<svg xmlns="http://www.w3.org/2000/svg" width="256" height="256"><circle fill="#B1B3B5" cx="128" cy="128" r="128"/><path fill="#775B4B" d="M179.7 90.1c0 2.1-.1 4.1-.2 5.9-.4 10.1-.9 23.4-1 30.6 5.2-2.1 4.5-7.9 4.5-7.9s2.1-3.3 2.1-6.7c0-3.5 1-9 3.3-14.6s-.6-7.9-3.5-9.8c-1.2-.8-3-.2-4.8.7-.2 1.4-.4 2.4-.4 2.4v-.6z"/><path fill="#AFC4B5" d="M168.8 212.5c-5.8 13-14.3 29.4-14.3 29.4-1.2-9.8-7.3-17.3-10.9-24.3-.2-.4-.4-.7-.6-1.1l-5.7 7.7s-.2.1-.7.2l5.7 30.7c6.6-.7 13-2 19.3-3.7 1.8-9.4 3.6-18.9 5-26.3.9-4.2 1.6-8.4 2.2-12.6z"/><path fill="#775B4B" d="M163.8 165.7l.2 3.6-1.5-1.2.8 5.8s-2.3 0-2.1 2.1c.2 2.1-.9-1-.9-1s-1 1.2-1.3 2.2c-.4 1 .4-1.2-1.6 1.9-.4.7-.7 1.2-1 1.6.2-.1.3-.2.5-.3 8.1-5.4 11-12.2 12-16.3l.6-3.2v-.3l.4-2.1v-4.6c-2.4 3.1-5.2 6.5-7.8 9.4.8 1.6 1.7 2.4 1.7 2.4zm-19 18.1c0 .6 1.2 4.3-.2 4.1-1.3-.2-.2-.7-2.5 0s-.8.5-2.3.7c-1.5.2-.4-.8-2.5 0s1.5-.6-2.1.8c-3.6 1.3-2.3.4-3.6 1.3-1.1.8-2.9.9-3.4 1v6.4l.2-.1c1.4-.8 9-5.1 17.9-10.7-.6-1.1-1.5-4.1-1.5-3.5z"/><path fill="#7B2727" d="M128.1 225.2V256c4.8 0 9.6-.3 14.2-.8l-5.7-30.7c-1 .2-3.4.7-8.5.7z"/><path fill="#3C4043" d="M198.6 182.4c9.8 10.1 18.5 25.4 22.7 33.2 5.3-5.6 10.1-11.8 14.3-18.3-2-.8-3.8-1.6-5.5-2.3-7.3-3-20-8-31.5-12.6zm8 46.6c.4-.3.7-.6 1.1-.9l-1.5.7.4.2z"/><path fill="#66241F" d="M128.1 219.8v5.4c5.1 0 7.5-.5 8.5-.7.5-.1.7-.2.7-.2l5.7-7.7c-4.1-7.1-14.9-18.4-14.9-18.4v21.6zm0-21.7s.1 0 .2-.1l-.2.1z"/><path fill="#BED6BB" d="M169.4 161l.1-.3c-.1 0-.1.1-.1.3zm-12.6 19.5c-.2.1-.3.2-.5.3-.9 1.6-.8 2-.8 2s-4.2 4.6-6.3 4.6-2.3 1-2.9 0c0 0 0-.1-.1-.1-8.9 5.5-16.5 9.9-17.9 10.7l-.2.1s10.8 11.3 14.9 18.4c.2.4.4.8.6 1.1 3.5 7 9.7 14.5 10.9 24.3 0 0 8.5-16.4 14.3-29.4 2.5-18.1 2.7-33.2 2.7-33.2l-2.7-15v-.1c-1 4.1-3.9 10.9-12 16.3z"/><path fill="#2A2D30" d="M193.2 177.4c-15.8-12.3-15.5-18.1-23.1-20.1l-.2 1.3-.4 2.1-.1.3-.6 3.2v.1l2.7 15s-.2 15.1-2.7 33.2c-.6 4.1-1.3 8.4-2.1 12.6-1.5 7.4-3.3 16.9-5 26.3 16.6-4.5 31.8-12.2 45-22.5l-.3-.2 1.5-.7c4.8-3.8 9.4-8 13.6-12.5-4.2-7.9-12.9-23.1-22.7-33.2-2-1.7-3.8-3.4-5.6-4.9z"/><path fill="#8C6C5A" d="M179.7 90.1c-.2-1.9-.9-7.6-1.6-8.2-.8-.8 1.4-3.1 1.4-4.3S178 74.7 178 74v-4.9c0-1-.8-5.5-1.5-7.8s.4-3.3 0-4.1c-.4-.8.4-3.2-.2-3.8-.6-.6-2.9-3.8-5.2-8.8-2.3-5-2.7-2.5-5-4.2-2.3-1.7 0 0-1.9-2.9s-1-1-3.3-2.5-1.2-.4-4.6-1.4c-3.5-1-1.3 0-3.5.2-2.1.2-3.3 1-7.7 1.2-4.4.2-1.2-.2-6.1-4.3-5-4.1-1-.5-3.1.1s-1.3.2-4 0c-2.1-.1-3.4-.1-3.8 0V57c2-.2 4-.2 5.9-.2 7.6.3 27.8 5.4 27.8 5.4-21-3.7-32.1-3.3-33.7-3.2v7.5c2-.2 4-.2 5.9-.2 7.6.3 23.6 4.4 23.6 4.4-20.6-3.6-28.2-2.5-29.5-2.2v60.2c1.1.2 6.1 1.2 8.8-1.4l2.7-2.1s5.6 3.7 8.3 3.9c2.7.2 4 1.9 4 1.9h-1.7s3.1 1.9 5.2 3.1c2.1 1.2 5.4 5.2 5.4 5.2s2.5 2.1 3.5 1.7c.1 0 .2-.1.2-.1.1 0 0 0 0 0s-.1 0-.2.1c-.4.1-1 .4-1 .4l3.5 6.1h-3.3l.2 2.9c.6 2.7.2 3.8.2 3.8s.2 2.1-.6 1.9c-.8-.2-3.6-2.3-3.6-2.3s-1.5 0-.2 3.5 1.5 4.4 2.5 6c.1.1.1.2.2.2 2.6-2.9 5.4-6.4 7.8-9.4 2.1-2.6 3.8-5 4.8-6.6 3.3-5.4 3.8-12 3.8-17.4v-3.4c.1-7.2.6-20.5 1-30.6 0-1.9 0-3.9.1-6zm-8.9 3.2s-6.5-2.3-10-2.6c-3.5-.3-10.6 3.2-14.2 2.6-3.6-.6-2.7-6.1-2.7-6.1 2.3 1.2 5 .7 7.5 0 9.4-2.9 15.2.9 17.7 1.7 2.5.8 4.2 4.4 4.2 4.4l-4.2-1.7 1.7 1.7z"/><path fill="#8C6C5A" d="M139 161.4s-3.3 1.2-3.6 2.4c-.4 1.2-1.5 1-.4 2.1 1.2 1.2 1.2 1.7 1.9 2.3.8.6-.4 1.5 2.3 1 2.7-.6-.8 2.1 3.8-.6s5-2.9 6.5-3.5c1.5-.6 2.3-.4 3.1-2.3.8-1.9-.4-.4.8-1.9 1.2-1.5 1.9-1.9 2.3-3.1.4-1.2 1-2.7.2-3.8-.8-1.2-2.3-3.3-2.3-3.3s-.4-1.9-1-2.9-.6-.6-.6-2.1-1-2.1-1.2-2.7c-.2-.6 0-1-1.3-2.1-1.3-1.2.4-1.7-2.3-2.1s-1.2-.4-2.7-.4c-1.5 0 1.3 1.9-3.1 0s-3.5-1.3-4.4-1.9c-1-.6-1.2-1-2.1-1.2-1-.2-2.9-.4-2.9-.4l-4 2v24.5c1.2.3 6.6 1.5 11 0z"/><path fill="#B5B7B2" d="M128.1 30.7c.5 0 1.7-.1 3.8 0 2.7.2 1.9.6 4 0s-1.9-4.2 3.1-.1c5 4.1 1.7 4.5 6.1 4.3 4.4-.2 5.6-1 7.7-1.2 2.1-.2 0-1.2 3.5-.2s2.3-.1 4.6 1.4 1.3-.4 3.3 2.5-.4 1.2 1.9 2.9 2.7-.8 5 4.2 4.6 8.3 5.2 8.8c.6.6-.2 3 .2 3.8.4.8-.8 1.8 0 4.1S178 68 178 69v4.9c0 .8 1.5 2.5 1.5 3.6s-2.2 3.5-1.4 4.3c.6.6 1.3 6.3 1.6 8.2 0 .4.1.6.1.6s.2-1 .4-2.4c.6-3.8 1.8-10.9 1.9-13 .2-2.9-.6-2.1 0-4.8.6-2.7.1-1.9 0-4s.2-5.4.2-5.4.3-6.9-.3-9.1c-2.3-7.9-3.5-11.3-4.3-12.7-.8-1.3-2.2-7.3-3-8.9-.8-1.5-9.8-12.1-10.9-13.3-1.1-1.1-17.2-9.9-35.8-10v23.7zm-.2-23.6z"/><path fill="#7A5D4D" d="M161.8 62.2s-20.2-5.1-27.8-5.4c-1.9-.1-3.9 0-5.9.2v2c1.6-.1 12.7-.5 33.7 3.2zm-4.2 8.4s-16-4.1-23.6-4.4c-1.9-.1-3.9 0-5.9.2v2c1.3-.2 9-1.4 29.5 2.2z"/><path fill="#B5B7B2" d="M169.1 88.9c-2.5-.8-8.3-4.6-17.7-1.7-2.5.7-5.2 1.2-7.5 0 0 0-1 5.5 2.7 6.1 3.6.6 10.8-2.9 14.2-2.6 3.5.3 10 2.6 10 2.6l-1.7-1.7 4.2 1.7s-1.7-3.6-4.2-4.4zm-37 46.1s1.9.2 2.9.4 1.2.6 2.1 1.2c1 .6 0 0 4.4 1.9s1.5 0 3.1 0c1.5 0 0 0 2.7.4s1 1 2.3 2.1c1.3 1.2 1.2 1.5 1.3 2.1.2.6 1.2 1.2 1.2 2.7 0 1.5 0 1.2.6 2.1.6 1 1 2.9 1 2.9s1.5 2.1 2.3 3.3c.8 1.2.2 2.7-.2 3.8-.4 1.2-1.2 1.5-2.3 3.1-1.2 1.5 0 0-.8 1.9s-1.5 1.7-3.1 2.3c-1.5.6-1.9.8-6.5 3.5s-1.2 0-3.8.6c-2.7.6-1.5-.4-2.3-1-.8-.6-.8-1.2-1.9-2.3-1.2-1.2 0-1 .4-2.1.4-1.2 3.6-2.4 3.6-2.4-4.5 1.5-9.8.3-10.9.1v30.1c.6 0 2.3-.2 3.4-1 1.3-1 0 0 3.6-1.3s0 0 2.1-.8 1 .2 2.5 0 0 0 2.3-.7 1.2-.2 2.5 0 .2-3.5.2-4.1c0-.6.9 2.5 1.5 3.5 0 0 0 .1.1.1.6 1 .8 0 2.9 0s6.3-4.6 6.3-4.6-.1-.3.8-2c.2-.4.6-1 1-1.6 1.9-3.1 1.2-.9 1.6-1.9.4-1 1.3-2.2 1.3-2.2s1.1 3.1.9 1c-.2-2.1 2.1-2.1 2.1-2.1l-.8-5.8 1.5 1.2-.2-3.6s-.9-.9-1.8-2.3c-.1-.1-.1-.2-.2-.2-1-1.5-1.2-2.5-2.5-6s.2-3.5.2-3.5 2.9 2.1 3.6 2.3c.8.2.6-1.9.6-1.9s.4-1.2-.2-3.8l-.2-2.9h3.3l-3.5-6.1s.6-.2 1-.4c-1 .4-3.5-1.7-3.5-1.7s-3.3-4-5.4-5.2c-2.1-1.2-5.2-3.1-5.2-3.1h1.7s-1.3-1.7-4-1.9c-2.7-.2-8.3-3.9-8.3-3.9l-2.7 2.1c-2.7 2.6-7.8 1.6-8.8 1.4v8.3l4.2-2zm32.3 5.9c.1 0 .1 0 0 0zm0 0s-.1.1-.2.1c.1-.1.2-.1.2-.1z"/><path fill="#60493B" d="M76.3 90.1c0 .4-.1.6-.1.6s-.2-1-.4-2.4c-1.8-.9-3.7-1.5-4.8-.7-2.9 1.9-5.8 4.2-3.5 9.8 2.3 5.6 3.3 11.1 3.3 14.6s2.1 6.7 2.1 6.7-.7 5.8 4.5 7.9c-.1-7.2-.6-20.5-1-30.6 0-1.8 0-3.8-.1-5.9z"/><path fill="#8DA094" d="M118.7 224.2l-5.7-7.7c-.2.4-.4.8-.6 1.1-3.5 7-9.7 14.5-10.9 24.3 0 0-8.5-16.4-14.3-29.4.6 4.1 1.3 8.4 2.1 12.6 1.5 7.4 3.3 16.9 5 26.3 6.3 1.7 12.7 2.9 19.3 3.7l5.7-30.7c-.4-.1-.6-.2-.6-.2z"/><path fill="#60493B" d="M86.6 160.7v.3l.6 3.2c1 4.1 3.9 10.9 12 16.3.2.1.3.2.5.3-.2-.4-.6-1-1-1.6-1.9-3.1-1.2-.9-1.6-1.9s-1.3-2.2-1.3-2.2-1.1 3.1-.9 1c.2-2.1-2.1-2.1-2.1-2.1l.8-5.8-1.5 1.2.2-3.6s.9-.9 1.8-2.3c-2.6-2.9-5.4-6.4-7.8-9.4v4.6l.3 2c-.1 0-.1 0 0 0zm41.5 31.8v-.9s-2.3 0-3.6-1c-1.3-1 0 0-3.6-1.3s0 0-2.1-.8-1 .2-2.5 0 0 0-2.3-.7-1.2-.2-2.5 0-.2-3.5-.2-4.1c0-.6-.9 2.5-1.5 3.5 8.9 5.5 16.5 9.9 17.9 10.7l.4.1v-5.5z"/><path fill="#66241F" d="M119.4 224.5l-5.7 30.7c4.7.5 9.5.8 14.3.8h.1v-30.8c-5.2 0-7.7-.5-8.7-.7z"/><path fill="#2A2D30" d="M48.3 228.1c.4.3.7.6 1.1.9l.3-.2-1.4-.7zM25.9 195c-1.7.7-3.6 1.5-5.5 2.3 4.2 6.5 9 12.6 14.3 18.3 4.2-7.9 12.9-23.1 22.7-33.2C45.9 187 33.2 192 25.9 195z"/><path fill="#521711" d="M128.1 198.1l-.4-.1.2.1s-10.8 11.3-14.9 18.4l5.7 7.7s.2.1.7.2c1 .3 3.5.7 8.7.7v-27z"/><path fill="#99AE99" d="M86.5 160.7l.1.3c0-.2 0-.3-.1-.3zm41.2 37.3c-1.4-.8-9-5.1-17.9-10.7 0 0 0 .1-.1.1-.6 1-.8 0-2.9 0-2.1 0-6.3-4.6-6.3-4.6s.1-.3-.8-2c-.2-.1-.3-.2-.5-.3-8.1-5.4-11-12.2-12-16.3v.1l-2.7 15s.2 15.1 2.7 33.2c5.8 13 14.3 29.4 14.3 29.4 1.2-9.8 7.3-17.3 10.9-24.3.2-.4.4-.7.6-1.1 4.1-7.1 14.9-18.4 14.9-18.4s-.1 0-.2-.1z"/><path fill="#181B1E" d="M87.2 212.5c-2.5-18.1-2.7-33.2-2.7-33.2l2.7-15v-.1l-.6-3.2-.1-.3-.4-2.1-.2-1.3c-7.6 2-7.3 7.8-23.1 20.1-1.8 1.4-3.7 3.1-5.4 5-9.8 10.1-18.5 25.4-22.7 33.2 4.2 4.5 8.7 8.7 13.6 12.5l1.5.7-.3.2c13.2 10.3 28.4 18 45 22.5-1.8-9.4-3.6-18.9-5-26.3-1-4.3-1.7-8.5-2.3-12.7z"/><path fill="#775B4B" d="M128.1 137.1l-4.2-2.1s-1.9.2-2.9.4-1.2.6-2.1 1.2c-1 .6 0 0-4.4 1.9s-1.5 0-3.1 0c-1.5 0 0 0-2.7.4s-1 1-2.3 2.1-1.2 1.5-1.3 2.1c-.2.6-1.2 1.2-1.2 2.7 0 1.5 0 1.2-.6 2.1-.6 1-1 2.9-1 2.9s-1.5 2.1-2.3 3.3c-.8 1.2-.2 2.7.2 3.8.4 1.2 1.2 1.5 2.3 3.1 1.2 1.5 0 0 .8 1.9s1.5 1.7 3.1 2.3c1.5.6 1.9.8 6.5 3.5s1.2 0 3.8.6c2.7.6 1.5-.4 2.3-1 .8-.6.8-1.2 1.9-2.3s0-1-.4-2.1c-.4-1.2-3.6-2.4-3.6-2.4 5 1.6 11.1 0 11.1 0v-24.4z"/><path fill="#775B4B" d="M94.1 163.2c1-1.5 1.2-2.5 2.5-6s-.2-3.5-.2-3.5-2.9 2.1-3.6 2.3-.6-1.9-.6-1.9-.4-1.2.2-3.8l.2-2.9h-3.3l3.5-6.1s-.6-.2-1-.4c-.1 0-.2-.1-.2-.1s-.1 0 0 0c0 0 .1.1.2.1 1 .4 3.5-1.7 3.5-1.7s3.3-4 5.4-5.2 5.2-3.1 5.2-3.1h-1.7s1.3-1.7 4-1.9c2.7-.2 8.3-3.9 8.3-3.9l2.7 2.1c3.1 2.9 9 1.3 9 1.3V68.4s-6.9-1.8-29.7 2.2c0 0 16-4.1 23.6-4.4 2-.1 4.1 0 6.1.2V59s-11.1-.8-33.9 3.2c0 0 20.2-5.1 27.8-5.4 2-.1 4.1 0 6.1.2V30.8s-1.3-.2-4 0-1.9.6-4 0 1.9-4.2-3.1-.1-1.7 4.5-6.1 4.3c-4.4-.2-5.6-1-7.7-1.2-2.1-.2 0-1.2-3.5-.2s-2.3-.1-4.6 1.4-1.3-.4-3.3 2.5.4 1.2-1.9 2.9-2.7-.8-5 4.2-4.6 8.3-5.2 8.8c-.6.6.2 3-.2 3.8-.4.8.8 1.8 0 4.1S78 68.1 78 69.1V74c0 .8-1.5 2.5-1.5 3.6s2.2 3.5 1.4 4.3c-.6.6-1.3 6.3-1.6 8.2 0 2.1.1 4.1.2 5.9.4 10.1.9 23.4 1 30.6v3.4c0 5.4.5 12 3.8 17.4 1 1.6 2.7 4 4.8 6.6 2.4 3.1 5.2 6.5 7.8 9.4.1 0 .2-.1.2-.2zM82.7 93.3s1.7-3.6 4.2-4.4c2.5-.8 8.3-4.6 17.7-1.7 2.5.7 5.2 1.2 7.5 0 0 0 1 5.5-2.7 6.1s-10.8-2.9-14.2-2.6c-3.5.3-10 2.6-10 2.6l1.7-1.7-4.2 1.7z"/><path fill="#959894" d="M76.3 90.1c.2-1.9.9-7.6 1.6-8.2.8-.8-1.4-3.1-1.4-4.3S78 74.7 78 74v-4.9c0-1 .8-5.5 1.5-7.8s-.4-3.3 0-4.1c.4-.8-.4-3.2.2-3.8.6-.6 2.9-3.8 5.2-8.8 2.3-5 2.7-2.5 5-4.2 2.3-1.7 0 0 1.9-2.9s1-1 3.3-2.5 1.2-.4 4.6-1.4 1.3 0 3.5.2c2.1.2 3.3 1 7.7 1.2 4.4.2 1.2-.2 6.1-4.3s1-.5 3.1.1 1.3.2 4 0 4 0 4 0V7.1h-.2c-18.5.1-34.6 8.8-35.8 10C91 18.3 82 28.9 81.2 30.4c-.8 1.5-2.2 7.5-3 8.9-.8 1.3-2 4.8-4.3 12.7-.6 2.2-.3 9.1-.3 9.1s.3 3.3.2 5.4-.5 1.3 0 4c.6 2.7-.2 1.9 0 4.8.1 2.1 1.3 9.2 1.9 13 .2 1.4.4 2.4.4 2.4s.2-.2.2-.6z"/><path fill="#654D3F" d="M128.1 57c-2.1-.2-4.2-.2-6.1-.2-7.6.3-27.8 5.4-27.8 5.4 22.8-4 33.9-3.2 33.9-3.2v-2zm0 9.4c-2.1-.2-4.2-.2-6.1-.2-7.6.3-23.6 4.4-23.6 4.4 22.8-4 29.7-2.2 29.7-2.2v-2z"/><path fill="#959894" d="M95.2 90.7c3.5-.3 10.6 3.2 14.2 2.6s2.7-6.1 2.7-6.1c-2.3 1.2-5 .7-7.5 0-9.4-2.9-15.2.9-17.7 1.7-2.5.8-4.2 4.4-4.2 4.4l4.2-1.7-1.7 1.7s6.5-2.3 10-2.6zm5.3 92.1s4.2 4.6 6.3 4.6c2.1 0 2.3 1 2.9 0 0 0 0-.1.1-.1.6-1.1 1.5-4.1 1.5-3.5 0 .6-1.2 4.3.2 4.1 1.3-.2.2-.7 2.5 0s.8.5 2.3.7c1.5.2.4-.8 2.5 0s-1.5-.6 2.1.8 2.3.4 3.6 1.3c1.3 1 3.6 1 3.6 1v-30.2s-6.1 1.6-11.1 0c0 0 3.3 1.2 3.6 2.4.4 1.2 1.5 1 .4 2.1s-1.2 1.7-1.9 2.3c-.8.6.4 1.5-2.3 1-2.7-.6.8 2.1-3.8-.6s-5-2.9-6.5-3.5c-1.5-.6-2.3-.4-3.1-2.3s.4-.4-.8-1.9c-1.2-1.5-1.9-1.9-2.3-3.1-.4-1.2-1-2.7-.2-3.8.8-1.2 2.3-3.3 2.3-3.3s.4-1.9 1-2.9.6-.6.6-2.1 1-2.1 1.2-2.7c.2-.6 0-1 1.3-2.1s-.4-1.7 2.3-2.1c2.7-.4 1.2-.4 2.7-.4 1.5 0-1.3 1.9 3.1 0s3.5-1.3 4.4-1.9c1-.6 1.2-1 2.1-1.2 1-.2 2.9-.4 2.9-.4l4.2 2.1v-8.4s-6 1.5-9-1.3l-2.7-2.1s-5.6 3.7-8.3 3.9c-2.7.2-4 1.9-4 1.9h1.7s-3.1 1.9-5.2 3.1-5.4 5.2-5.4 5.2-2.5 2.1-3.5 1.7c.4.1 1 .4 1 .4l-3.5 6.1h3.3l-.2 2.9c-.6 2.7-.2 3.8-.2 3.8s-.2 2.1.6 1.9 3.6-2.3 3.6-2.3 1.5 0 .2 3.5-1.5 4.4-2.5 6c-.1.1-.1.2-.2.2-.9 1.4-1.8 2.3-1.8 2.3l-.2 3.6 1.5-1.2-.8 5.8s2.3 0 2.1 2.1c-.2 2.1.9-1 .9-1s1 1.2 1.3 2.2-.4-1.2 1.6 1.9c.4.7.7 1.2 1 1.6 1.1 1.6 1 1.9 1 1.9zm-8.9-41.9c-.1 0-.1 0 0 0zm.2.1c-.1 0-.2-.1-.2-.1s.1 0 .2.1z"/></svg>