<svg xmlns="http://www.w3.org/2000/svg" width="256" height="256"><circle fill="#B2B4B5" cx="128" cy="128" r="128"/><path fill="#190400" d="M224.7 196.1l17.2-9.5c3.2-6.1 5.8-12.5 8-19.1l-24.1 18.2c-.1 0-.8 4.9-1.1 10.4zm-58.5-33.6c-.5 1.8-1.2 3.2-2.6 3.5v-.1c-1.2 1.2-2 .6-2.8.9-.6.8-1.3 1.3-2.3 1.7-1.4.7-3.2 1.1-5.4 1.6-2.3.5-4.6 1.6-5.7 2.2-.4.6-.9 1.1-1.4 1.5-2.1 2.8-5.1 1.5-5.1 1.5v.1c-.6 1.2-1.6 2.2-3.1 2.7v-.1c-1.7.7-3.5.4-4.9 1.4-.4.2-.7.4-1.1.5-.1.1-.2.1-.3.2v-.1c-1.9.4-3.5-.6-3.5-.6v15.2s35.7-20.1 51.2-37.8 25.4-36.8 10.6-45.5c-2.9 9.6-6.5 20.3-9.4 24.4-.7 9.6-2.4 12.3-4.5 16.3-2 3.7-6.8 7.2-9.7 10.5zm85.7-14.8l2.6.3.6-3.9-1.6-.6-1.6 4.2z"/><path fill="#6C553C" d="M255 144.1c.1-.6.1-1.1.2-1.7l-1.8 1.2 1.6.5z"/><path fill="#695247" d="M223.2 143.5c-2.2 6.4-15.8 24.8-23.4 34.8 1.1-.7 2.2-1.3 3.1-1.9 13.2-8.6 43.8-29.3 43.8-29.3l.9.1c-5.2-4.3-15-12.2-18-14.1-3-1.9-11.5-5.1-15.9-6.7 6.1 6.9 10.6 13.6 9.5 17.1z"/><path fill="#9777A6" d="M128 179.4s1.6 1 3.5.6c.2-1.4 2-17.8 1.7-24.5-.2-6.9-.9-19.6-.9-20.4v-9.8s1.5 7.9.9 11.5 5.1 39-1.5 43.1c.4-.1.7-.3 1.1-.5 1.5-1 3.2-.8 4.9-1.4.2-.6 2.2-6.7 2.2-11.9v-14.8c0-3.6.4-5.5 0-7.9s-2.2-10.5-1-18c0 0 .1 9.6 1.2 12.7 1.1 3.1 1.8 10.4 1.8 14.7v17.6c0 1.3-.2 3.3-1.1 4.9v-.1s3 1.3 5.1-1.5c-.4.3-.8.6-1.3.7 0 0 2.6-4.6 2.9-7.9.2-3.4 1.1-15.1 0-18.9s-3.4-13.4-1.2-22.3c0 0-1.4 7.7 0 12.7s2.7 9.3 2.7 13.7.4 13.7 0 16.3c-.2 1.5-.8 3-1.7 4.3 1.2-.6 3.5-1.8 5.7-2.2 0 0 2-9.1 2-14.8s-2.2-11.5-2-14.1-2-5.5-.9-17c0 0 1.5 14.4 2.9 19.9s3.5 17.7 2.2 20.8-4.2 5.3-4.2 5.3c2.2-.4 4-.8 5.4-1.6-.3.1-.5.2-.8.2 0 0 3.8-3.1 3.1-12.5-.7-9.3-8-23.7-6-30.9 0 0 .4 11 2.9 14.4s4 8.9 4.2 12 .4 10.1 0 12.5c-.2 1-.5 1.9-1.1 2.6.9-.3 1.6.4 2.8-.9.1-1.4 1.5-16.9 0-21.6-1.5-4.9-6.2-17.1-7-23.3 0 0 5.7 15.6 6.8 18.4 1.1 2.9 4.2 13.2 3.7 16.3-.2 1.7-.4 4.5-.9 6.8 2.9-3.3 7.7-6.8 9.7-10.5 2.1-4 3.7-6.7 4.5-16.3-.4.6-.9 1.1-1.3 1.4l-8.9 13.5-2.5-1s3.2-9.3 3.8-14.8c.6-4.8-.8-11.3.3-14.6.2-.5.4-.9.7-1.2 2.2-4.1 9-17.3 9.4-23.5.7-11.3-7.2-23.5-7.2-23.5l-.5 1c-1.1 2.1-3.9 7-8.1 9.6l.3-1.3c.8-3 2.9-11.2 4.6-20.6-3.3 7-8.3 16.2-8.3 16.2h-1.5s.1-.8.2-2.2l-1.5-.1v.2s-5.3 2.1-12.9 4.2c-5.6 1.5-11.7 6.1-14.6 8.5l-4.5 3.8v88h.2zm23.3-87.6c1.1-.7 1.3-5.7 1.3-5.7l-2.7-1.8 4.4.6 2.2-3-4.4-1.7c2.9-.5 4.2.2 9.9 1.4s7.9 8.1 7.9 8.1-2.6-4.7-5.1-5.4-7-2-7-2l-2 3.1s4.8 1 8.1 3.1c2.2 1.4 3.4 5.8 3.9 8.6.3.9.5 1.8.4 2.4 0 0-.1-1-.4-2.4-.7-1.9-2-4-2.6-5-.9-1.4-11.2-5.7-11.2-5.7l-2.6 6.9c-3.7 2.4-5.7 6.2-5.7 6.2.1-4.1 4.5-6.9 5.6-7.7z"/><path fill="#7C6289" d="M131.7 179.9c6.6-4.1.8-39.5 1.5-43.1.6-3.6-.9-11.5-.9-11.5v9.8c0 .7.7 13.4.9 20.4.2 6.6-1.6 23.1-1.7 24.5v.1c.1 0 .1-.1.2-.2zm9.1-4.6c.9-1.7 1.1-3.7 1.1-4.9v-17.6c0-4.2-.7-11.6-1.8-14.7-1.1-3.1-1.2-12.7-1.2-12.7-1.2 7.4.6 15.6 1 18s0 4.3 0 7.9v14.8c0 5.2-2 11.3-2.2 11.9v.1c1.5-.5 2.5-1.6 3.1-2.8zm6.6-3c.9-1.2 1.5-2.8 1.7-4.3.4-2.6 0-12 0-16.3s-1.3-8.6-2.7-13.7c-1.4-5 0-12.7 0-12.7-2.3 8.9.1 18.4 1.2 22.3s.2 15.6 0 18.9c-.2 3.4-2.9 7.9-2.9 7.9.5-.2.9-.4 1.3-.7.5-.4 1-.9 1.4-1.4zm9.9-7.5c1.3-3.1-.9-15.3-2.2-20.8s-2.9-19.9-2.9-19.9c-1.1 11.5 1.1 14.4.9 17-.2 2.6 2 8.4 2 14.1s-2 14.8-2 14.8 2.9-2.1 4.2-5.2z"/><path fill="#7C6289" d="M160.8 166.8c.5-.7.9-1.6 1.1-2.6.4-2.4.2-9.3 0-12.5s-1.8-8.6-4.2-12-2.9-14.4-2.9-14.4c-2 7.2 5.3 21.6 6 30.9s-3.1 12.5-3.1 12.5c.3-.1.6-.2.8-.2 1-.4 1.8-1 2.3-1.7z"/><path fill="#7C6289" d="M166.2 162.5c.6-2.2.7-5.1.9-6.8.4-3.1-2.6-13.4-3.7-16.3-1.1-2.9-6.8-18.4-6.8-18.4.9 6.2 5.5 18.4 7 23.3 1.5 4.7.1 20.1 0 21.6v.1c1.4-.3 2.2-1.7 2.6-3.5zm-14.7-69.2l2.6-6.9s10.3 4.3 11.2 5.7c.6 1 1.9 3.1 2.6 5-.6-2.8-1.7-7.2-3.9-8.6-3.3-2.2-8.1-3.1-8.1-3.1l2-3.1s4.6 1.3 7 2 5.1 5.4 5.1 5.4-2.2-6.9-7.9-8.1-7-1.9-9.9-1.4l4.4 1.7-2.2 3-4.4-.6 2.7 1.8s-.2 5-1.3 5.7-5.5 3.6-5.5 7.6c-.1.1 1.9-3.7 5.6-6.1zm16.5 3.8c.3 1.4.4 2.4.4 2.4.1-.7-.1-1.5-.4-2.4z"/><path fill="#402A16" d="M128 91.2l4.5-3.8c-1 .8-1.7 1.4-1.7 1.4s3.6-12.3 4-13.9c.2-.8 1-1.7 1.8-2.4l-.2-1.6c-.6.4-1.4.9-2.2 1.5-2.3 1.8-3 9.3-3 9.3s-.2-3.5 0-10.4c.2-5.9-2.3-56.7-3-70.6l-.1-.7h-.1v91.2z"/><path fill="#2E1B03" d="M137.1 66.9c7.4-.3 4.2 5.7 4.2 5.7 8.3-1.2 19.9-9.1 19.9-9.1l-1.2 11 1.5.1c.5-4.8 1.6-16.5 2.1-28.4.6-15.5-4.7-33-7-38.3-1.1-2.6-3.3-4.5-5.2-5.7-.9-.2-1.8-.3-2.6-.5 1 1.4 2.4 3.6 4 6.5 2.7 4.9 6.6 27.6 5.7 32.3s-4.2 26.2-4.2 26.2-.6-35.3-3-43.4C149.4 16.8 141.2 5 138 .5c-1.2-.1-2.4-.2-3.6-.2 2.2 13.4 2.7 66.6 2.7 66.6zm-9-66.9v.8c.1-.3 0-.5 0-.8zm10.1 70s-.7.3-1.8 1l.2 1.6c.8-.7 1.6-1.3 1.6-1.3V70z"/><path fill="#6C553C" d="M131.2 71.4c-.2 6.9 0 10.4 0 10.4s.6-7.5 3-9.3c.8-.6 1.6-1.1 2.2-1.5 1.1-.7 1.8-1 1.8-1v1.3s-.8.5-1.6 1.3c-.8.7-1.6 1.6-1.8 2.4-.4 1.6-4 13.9-4 13.9s.6-.6 1.7-1.4c2.9-2.3 9-7 14.6-8.5 7.6-2.1 12.9-4.2 12.9-4.2v-.2l1.2-10.9s-11.6 7.9-19.9 9.1c0 0 3.2-6.1-4.2-5.7 0 0-.6-53.2-2.7-66.8-2.1-.1-4.2-.2-6.3-.2v.8c.8 13.8 3.3 64.6 3.1 70.5z"/><path fill="#594530" d="M156.6 7.9c2.3 5.3 7.6 22.8 7 38.3-.5 11.9-1.6 23.6-2.1 28.4-.1 1.4-.2 2.2-.2 2.2h1.5s4.9-9.1 8.3-16.2c1.5-8.4 2.7-17.8 2.4-25.7-.5-13.9-.9-22.3-3.4-27.9-6-2.1-12.2-3.7-18.6-4.9 1.8 1.3 3.9 3.2 5.1 5.8z"/><path fill="#594530" d="M151.3 23.2c2.3 8.1 3 43.4 3 43.4s3.4-21.6 4.2-26.2-3-27.3-5.7-32.3c-1.6-2.9-3.1-5.1-4-6.5-3.5-.6-7.1-1-10.7-1.3 3.1 4.5 11.3 16.4 13.2 22.9z"/><path fill="#6C553C" d="M166.1 82.6c4.2-2.6 7-7.5 8.1-9.6-1 1.9-3.5 6-8.1 9.6zm6.3 36.4c-.3.3-.5.7-.7 1.2.1 0 .3-.5.7-1.2z"/><path fill="#6C553C" d="M173.4 34.9c.3 7.9-.9 17.4-2.4 25.7-1.7 9.5-3.7 17.6-4.6 20.6l2.5-9.2s15.9-27.1 17.3-37c0 0 3.6 22.2 3.6 27.1s2.5 17.9 1.3 22.1c-1.3 4.2-6.4 29.4-13.3 34.8 0 0-2.5-.2-6 1.1-1.1 3.3.3 9.8-.3 14.6-.6 5.5-3.8 14.8-3.8 14.8l2.5 1 8.9-13.5c.4-.3.8-.8 1.3-1.4 2.9-4.1 6.5-14.8 9.4-24.4l1.2-7.7s.3.3.8.7c.8-3 1.6-5.6 2.1-7.6 2.7-10.1-.8-33.8-.8-33.8s1.9-11.7 0-28.5c-.9-7.9-3.3-14.6-6.2-20.1-5.4-2.8-11-5.2-16.8-7.2 2.4 5.6 2.8 14 3.3 27.9z"/><path fill="#4B3C36" d="M174.2 73l.5-1s7.9 12.2 7.2 23.5c-.4 6.2-7.2 19.4-9.4 23.5-.4.8-.7 1.2-.7 1.2 3.6-1.3 6-1.1 6-1.1 6.9-5.4 12.1-30.6 13.3-34.8 1.3-4.2-1.3-17.2-1.3-22.1S186.3 35 186.3 35c-1.5 9.9-17.3 37-17.3 37l-2.5 9.2-.3 1.3c4.5-3.5 7-7.6 8-9.5zm13.1-10.2c7.2 5.6-2.5 33-2.5 33 3.2-12.8-7.6-27-7.6-27s6.3-9.4 10.1-6z"/><path fill="#190400" d="M184.7 95.8s9.7-27.5 2.5-33c-3.8-3.4-10.2 6.1-10.2 6.1s10.9 14.2 7.7 26.9z"/><path fill="#886B5E" d="M179.2 156.7c-15.5 17.7-51.2 37.8-51.2 37.8v17.7l33.7-14.7v.1c9.5-4.4 27.6-13.1 38.1-19.4 7.6-10 21.1-28.4 23.4-34.8 1.2-3.4-3.3-10.2-9.3-17.1-8.2-9.5-19-19.3-22-22.1-.5-.5-.8-.7-.8-.7l-1.2 7.7c14.7 8.7 4.8 27.8-10.7 45.5z"/><path fill="#6C553C" d="M155.5 217.3v-16.8s2.4-1.1 6.2-2.9v-.1L128 212.3V256c3.9 0 7.8-.2 11.7-.5l1.7-25.7 14.1-12.5z"/><path fill="#594530" d="M247.7 147.2l-.9-.1s-30.7 20.7-43.8 29.3c-.9.6-2 1.3-3.1 1.9-10.5 6.3-28.6 15-38.1 19.4-3.8 1.8-6.2 2.9-6.2 2.9v16.8l-14.1 12.5-1.7 25.7c5.1-.5 10.1-1.2 15-2.3l2.9-20.1 67-37c.4-5.5 1-10.4 1-10.4l24.1-18.2c2-6.3 3.6-12.8 4.7-19.5l-2.6-.3-4.2-.6z"/><path fill="#493824" d="M157.7 233.1l-2.9 20.1c38-8.1 69.8-33 87.1-66.6l-17.2 9.5-67 37z"/><path d="M2.6 143.5l-1.6.6.6 3.9 2.6-.3-1.6-4.2zm27.7 42.2L6.2 167.5c2.1 6.6 4.8 13 8 19.1l17.2 9.5c-.4-5.5-1.1-10.4-1.1-10.4zm46.5-29c15.5 17.7 51.2 37.8 51.2 37.8v-15.2s-1.6 1-3.5.6v.1c-.1 0-.2-.1-.3-.2-.4-.1-.7-.3-1.1-.5-1.5-1-3.2-.8-4.9-1.4v.1c-1.5-.5-2.4-1.5-3.1-2.7v-.1s-3 1.3-5.1-1.5c-.5-.4-1-.9-1.4-1.5-1.2-.6-3.5-1.8-5.7-2.2s-4-.8-5.4-1.6c-1-.4-1.8-.9-2.3-1.7-.9-.3-1.6.4-2.8-.9v.1c-1.4-.3-2.1-1.7-2.6-3.5-2.9-3.3-7.7-6.8-9.7-10.5-2.1-4-3.7-6.7-4.5-16.3-2.9-4.1-6.5-14.8-9.4-24.4-14.8 8.7-4.9 27.8 10.6 45.5z"/><path fill="#594530" d="M.8 142.3c.1.6.1 1.2.2 1.7l1.6-.6-1.8-1.1z"/><path fill="#503D34" d="M53.1 176.4c.9.6 2 1.3 3.1 1.9-7.6-10-21.1-28.4-23.4-34.8-1.2-3.4 3.3-10.2 9.3-17.1-4.4 1.6-12.9 4.8-15.9 6.7-2.9 1.9-12.7 9.8-18 14.1l.9-.1c.2-.1 30.8 20.7 44 29.3z"/><path fill="#7C6289" d="M89.8 162.5c-.6-2.2-.7-5.1-.9-6.8-.4-3.1 2.6-13.4 3.7-16.3 1.1-2.9 6.8-18.4 6.8-18.4-.9 6.2-5.5 18.4-7 23.3-1.5 4.7-.1 20.1 0 21.6 1.2 1.2 2 .6 2.8.9-.5-.7-.9-1.6-1.1-2.6-.4-2.4-.2-9.3 0-12.5s1.8-8.6 4.2-12 2.9-14.4 2.9-14.4c2 7.2-5.3 21.6-6 30.9s3.1 12.5 3.1 12.5c-.3-.1-.6-.2-.8-.2 1.4.7 3.2 1.1 5.4 1.6 0 0-2.9-2.2-4.2-5.3s.9-15.3 2.2-20.8 2.9-19.9 2.9-19.9c1.1 11.5-1.1 14.4-.9 17 .2 2.6-2 8.4-2 14.1s2 14.8 2 14.8c2.3.5 4.6 1.6 5.7 2.2-.9-1.2-1.5-2.8-1.7-4.3-.4-2.6 0-12 0-16.3s1.3-8.6 2.7-13.7c1.4-5 0-12.7 0-12.7 2.3 8.9-.1 18.4-1.2 22.3s-.2 15.6 0 18.9c.2 3.4 2.9 7.9 2.9 7.9-.5-.2-.9-.4-1.3-.7 2.1 2.8 5.1 1.5 5.1 1.5v.1c-.9-1.7-1.1-3.7-1.1-4.9v-17.6c0-4.2.7-11.6 1.8-14.7 1.1-3.1 1.2-12.7 1.2-12.7 1.2 7.4-.6 15.6-1 18s0 4.3 0 7.9V166c0 5.2 2 11.3 2.2 11.9 1.7.7 3.5.4 4.9 1.4.4.2.7.4 1.1.5-6.6-4.1-.8-39.5-1.5-43.1-.6-3.6.9-11.5.9-11.5v9.8c0 .7-.7 13.4-.9 20.4-.2 6.6 1.6 23.1 1.7 24.5 1.9.4 3.5-.6 3.5-.6V91.1l-4.5-3.8c-2.9-2.3-9-7-14.6-8.5-5.5-1.5-9.8-3-11.7-3.7l-2.7-.4c.1 1.3.2 2 .2 2h-1.5s-4.9-9.1-8.3-16.2c1.7 9.5 3.7 17.6 4.6 20.6l.3 1.3c-4.2-2.6-7-7.5-8.1-9.6l-.5-1S73.2 84 73.9 95.3c.4 6.2 7.2 19.4 9.4 23.5.3.3.5.7.7 1.2 1.1 3.3-.3 9.8.3 14.6.6 5.5 3.8 14.8 3.8 14.8l-2.5 1-8.9-13.5c-.4-.3-.8-.8-1.3-1.4.7 9.6 2.4 12.3 4.5 16.3 2.2 3.9 7 7.4 9.9 10.7z"/><path fill="#675072" d="M122.8 155.5c.2-6.9.9-19.6.9-20.4v-9.8s-1.5 7.9-.9 11.5-5.1 39 1.5 43.1c.1.1.2.1.3.2v-.1c-.2-1.4-2-17.8-1.8-24.5zm-6.7-4.3c0-3.6-.4-5.5 0-7.9s2.2-10.5 1-18c0 0-.1 9.6-1.2 12.7-1.1 3.1-1.8 10.4-1.8 14.7v17.6c0 1.3.2 3.3 1.1 4.9.6 1.2 1.6 2.2 3.1 2.7v-.1c-.2-.6-2.2-6.7-2.2-11.9v-14.7zm-7.7 15.4c-.2-3.4-1.1-15.1 0-18.9s3.4-13.4 1.2-22.3c0 0 1.4 7.7 0 12.7s-2.7 9.3-2.7 13.7-.4 13.7 0 16.3c.2 1.5.8 3 1.7 4.3.4.6.9 1.1 1.4 1.5.4.3.8.6 1.3.7 0-.1-2.7-4.7-2.9-8zm-5.5-25.5c-.2-2.6 2-5.5.9-17 0 0-1.5 14.4-2.9 19.9s-3.5 17.7-2.2 20.8 4.2 5.3 4.2 5.3-2-9.1-2-14.8 2.2-11.6 2-14.2z"/><path fill="#675072" d="M95.2 156.3c.7-9.3 8-23.7 6-30.9 0 0-.4 11-2.9 14.4s-4 8.9-4.2 12-.4 10.1 0 12.5c.2 1 .5 1.9 1.1 2.6.6.8 1.3 1.3 2.3 1.7.3.1.5.2.8.2 0-.1-3.7-3.2-3.1-12.5z"/><path fill="#675072" d="M92.4 144.3c1.5-4.9 6.2-17.1 7-23.3 0 0-5.7 15.6-6.8 18.4-1.1 2.9-4.2 13.2-3.7 16.3.2 1.7.4 4.5.9 6.8.5 1.8 1.2 3.2 2.6 3.5v-.1c-.2-1.5-1.5-16.9 0-21.6z"/><path fill="#1F0A00" d="M124.8 71.4c.2 6.9 0 10.4 0 10.4s-.6-7.5-3-9.3c-1.1-.8-2-1.4-2.7-1.8l-.2 1.4c.9.7 2 1.8 2.2 2.8.4 1.6 4 13.9 4 13.9s-.6-.6-1.7-1.4l4.5 3.8V0l-.2 1.7c-.7 15.1-3.1 63.9-2.9 69.7zM99.4 7.9c-2.3 5.3-7.6 22.8-7 38.3.5 12.1 1.6 24.1 2.1 28.7l2.7.4c-.8-.3-1.2-.4-1.2-.4l-1.3-11.2s11.6 7.9 19.9 9.1c0 0-3.2-6.1 4.2-5.7 0 0 .6-53.2 2.7-66.8-1.2.1-2.4.1-3.6.2-3.2 4.5-11.4 16.3-13.3 22.8-2.3 8.1-3 43.4-3 43.4s-3.4-21.6-4.2-26.2 3-27.3 5.7-32.3c1.6-2.9 3.1-5.1 4-6.5-.9.1-1.8.3-2.6.5-1.8 1.2-3.9 3.1-5.1 5.7z"/><path fill="#1F0A00" d="M128 0c-.1.5-.2 1.1-.2 1.7L128 0zm-10.2 70v1.3s.5.4 1.2.9l.2-1.4c-.9-.6-1.4-.8-1.4-.8z"/><path fill="#594530" d="M118.9 66.9c-7.4-.3-4.2 5.7-4.2 5.7-8.3-1.2-19.9-9.1-19.9-9.1L96 74.8s.4.2 1.2.4c2 .7 6.2 2.2 11.7 3.7 5.6 1.5 11.7 6.1 14.6 8.5 1 .8 1.7 1.4 1.7 1.4s-3.6-12.3-4-13.9c-.2-.9-1.3-2-2.2-2.8-.6-.5-1.2-.9-1.2-.9V70s.5.2 1.3.7c.7.4 1.6 1 2.7 1.8 2.3 1.8 3 9.3 3 9.3s.2-3.5 0-10.4c-.2-5.8 2.2-54.6 3-69.7 0-.6.1-1.2.1-1.7-2.1 0-4.2.1-6.3.2-2.2 13.5-2.7 66.7-2.7 66.7z"/><path fill="#392A17" d="M82.6 34.9c-.3 7.9.9 17.4 2.4 25.7 3.3 7 8.3 16.2 8.3 16.2h1.5s-.1-.7-.2-2c-.5-4.6-1.6-16.5-2.1-28.7-.6-15.5 4.7-33 7-38.3 1.1-2.6 3.3-4.5 5.2-5.7C98.2 3.3 92 5 86 7.1c-2.5 5.5-2.9 13.9-3.4 27.8z"/><path fill="#392A17" d="M97.5 40.4c.8 4.6 4.2 26.2 4.2 26.2s.6-35.3 3-43.4c1.9-6.5 10.1-18.3 13.3-22.8-3.6.3-7.2.7-10.7 1.3-1 1.4-2.4 3.6-4 6.5-2.8 4.9-6.6 27.6-5.8 32.2z"/><path fill="#453421" d="M63 62.9s-3.6 23.7-.8 33.8c.5 2 1.3 4.6 2.1 7.6.5-.5.8-.7.8-.7l1.2 7.7c2.9 9.6 6.5 20.3 9.4 24.4.4.6.9 1.1 1.3 1.4l8.9 13.5 2.5-1s-3.2-9.3-3.8-14.8c-.6-4.8.8-11.3-.3-14.6-3.6-1.3-6-1.1-6-1.1-6.9-5.4-12.1-30.6-13.3-34.8-1.3-4.2 1.3-17.2 1.3-22.1S69.7 35 69.7 35C71.2 44.9 87 72 87 72l2.5 9.2c-.8-3-2.9-11.2-4.6-20.6-1.5-8.4-2.7-17.8-2.4-25.7.6-13.9 1-22.3 3.5-27.8-5.8 2-11.4 4.4-16.8 7.2-2.9 5.5-5.3 12.2-6.2 20.1-1.9 16.8 0 28.5 0 28.5z"/><path fill="#453421" d="M81.8 73c1.1 2.1 3.9 7 8.1 9.6-4.6-3.6-7.1-7.7-8.1-9.6zm1.8 46c.4.8.7 1.2.7 1.2-.2-.5-.4-.9-.7-1.2z"/><path fill="#30241E" d="M84.2 120.2s-.3-.5-.7-1.2c-2.2-4.1-9-17.3-9.4-23.5-.7-11.2 7.3-23.5 7.3-23.5l.5 1c1 1.8 3.5 6 8.1 9.6l-.3-1.3-2.6-9.3S71.2 44.9 69.8 35c0 0-3.6 22.2-3.6 27.1S63.6 80 64.9 84.3c1.3 4.2 6.4 29.4 13.3 34.8 0 0 2.4-.2 6 1.1zM68.7 62.8c3.8-3.4 10.2 6.1 10.2 6.1s-10.8 14.2-7.6 27c0-.1-9.7-27.5-2.6-33.1z"/><path d="M71.3 95.8c-3.2-12.8 7.6-27 7.6-27s-6.4-9.4-10.2-6.1c-7.1 5.7 2.6 33.1 2.6 33.1z"/><path fill="#695247" d="M32.8 143.5c2.2 6.4 15.8 24.8 23.4 34.8 10.5 6.3 28.6 15 38.1 19.4v-.1l33.7 14.7v-17.7s-35.7-20.1-51.2-37.8-25.4-36.8-10.6-45.5l-1.2-7.7s-.3.3-.8.7c-3 2.7-13.9 12.6-22 22.1-6 6.9-10.5 13.6-9.4 17.1z"/><path fill="#594530" d="M128 212.3l-33.7-14.7v.1c3.8 1.8 6.2 2.9 6.2 2.9v16.8l14.1 12.5 1.7 25.7c3.8.3 7.7.5 11.7.5v-43.8z"/><path fill="#493824" d="M100.5 217.3v-16.8s-2.4-1.1-6.2-2.9c-9.5-4.4-27.6-13.1-38.1-19.4-1.1-.7-2.2-1.3-3.1-1.9C39.9 167.8 9.3 147 9.3 147l-.9.1-4.2.5-2.6.4c1 6.7 2.6 13.2 4.7 19.5l24.1 18.2s.6 4.8 1 10.4l67 37 2.9 20.1c4.9 1 9.9 1.8 15 2.3l-1.7-25.7-14.1-12.5z"/><path fill="#40301D" d="M31.3 196.1l-17.2-9.5c17.3 33.6 49.1 58.5 87.1 66.6l-2.9-20.1-67-37z"/></svg>