<svg xmlns="http://www.w3.org/2000/svg" width="256" height="256"><circle fill="#B1B3B5" cx="128" cy="128" r="128"/><path fill="#9CB1A9" d="M118.9 227.2l-3.3-10.5c-1.4 1.9-2.6 3.7-3.3 5.2-3.5 7-9.7 14.5-10.9 24.3 0 0-9.3-17.8-15-31l3.3 27.1c.6 2.8 1.2 5.6 1.8 8.5 8.2 2.4 16.8 4.1 25.6 4.8l2.7-27.7c-.7-.4-.9-.7-.9-.7z"/><path fill="#9C7360" d="M86.4 164.9v.3l.6 3.2c1 4.1 3.9 10.9 12 16.3 12.7 8.5 26.5 16.4 28.5 17.5l.4.1V180s-21.6 3.5-30.3-6.5c-4.3-4.9-8.4-11.2-11.7-18.9.1 2.4.1 5.2 0 8.2l.5 2.1z"/><path fill="#161C20" d="M117.9 247l.3-2.7 9.8 5.2v-9.9l-8.9-4.8.3-2.7 8.6 4.6v-7.4c-4.8 0-7.1-.9-8.2-1.5l-2.7 27.7c3.6.3 7.2.5 10.9.5v-3.6l-10.1-5.4z"/><path fill="#182C42" d="M25.8 199.2c-1 .4-2.1.9-3.3 1.4 4.1 5.9 8.6 11.4 13.5 16.5 4.6-8.3 12.5-21.5 21.2-30.5-11.4 4.6-24.1 9.6-31.4 12.6zM87 229.4c.8 3.8 1.7 8.2 2.6 12.8l-3.3-27.1c-1.2-2.8-2.3-5.4-3.1-7.6 1.1 6.8 2.4 14.3 3.8 21.9z"/><path fill="#122332" d="M86.5 165.2c0 .5.2 1.7.6 3.2l-.6-3.2zm.5 64.2c-1.5-7.6-2.7-15.1-3.7-21.8-.3-.7-.5-1.4-.7-2.1-3.5-11.3-6.8-26.9 0-32.2 0 0 0-7.2 3.8-8.4l-.4-2.1-.2-1.3c-7.6 2-7.3 7.8-23.1 20.1-1.8 1.4-3.7 3.1-5.4 5-8.7 9-16.6 22.2-21.2 30.5 15.1 15.6 34.1 27.3 55.4 33.6-.6-2.9-1.2-5.7-1.8-8.5-1-4.6-1.9-9-2.7-12.8z"/><path fill="#0A0D0D" d="M128 202.3l-.4-.1.2.1s-7.3 7.6-12.2 14.3l3.3 10.5s.2.3.8.7c1.1.7 3.4 1.5 8.2 1.5v-27z"/><path fill="#AEC5BC" d="M127.6 202.2c-1.9-1.1-15.8-9-28.5-17.5-8.1-5.4-11-12.2-12-16.3-.4-1.6-.5-2.7-.6-3.2v-.3c-3.8 1.2-3.8 8.4-3.8 8.4-6.8 5.3-3.5 20.9 0 32.2.2.6.4 1.3.7 2.1.8 2.2 1.8 4.8 3.1 7.6 5.8 13.2 15 31 15 31 1.2-9.8 7.3-17.3 10.9-24.3.8-1.5 2-3.3 3.3-5.2 4.9-6.7 12.2-14.3 12.2-14.3s-.2-.1-.3-.2zm42 13c-5.8 13.2-15 31-15 31-1.2-9.8-7.3-17.3-10.9-24.3-.8-1.5-2-3.3-3.3-5.2l-3.3 10.5s-.2.3-.8.7l2.7 27.7c8.8-.7 17.4-2.4 25.6-4.8.6-2.9 1.2-5.7 1.8-8.5l3.2-27.1z"/><path fill="#C08C76" d="M128 180v22.3l.4-.1c1.9-1.1 15.8-9 28.5-17.5 8.1-5.4 11-12.2 12-16.3l.6-3.2v-.3l.4-2.1c-.1-3 0-5.8 0-8.2-3.2 7.7-7.4 14-11.7 18.9-8.6 10-30.2 6.5-30.2 6.5z"/><path fill="#283142" d="M128 229.4v7.4l9.6 5.1.3 3.1-9.9-5.3v9.9l10.9 5.8v.3l-2.7-27.7c-1.1.5-3.4 1.4-8.2 1.4zm0 10.3zm0 16.3c2.2 0 4.3-.1 6.4-.2l-6.4-3.4v3.6z"/><path fill="#233951" d="M198.7 186.6c8.7 9 16.6 22.2 21.2 30.5 5-5.1 9.5-10.6 13.5-16.5-1.1-.5-2.2-.9-3.3-1.4-7.2-3-19.9-8-31.4-12.6zm-32.4 55.6c1-4.6 1.9-9 2.6-12.8 1.5-7.6 2.7-15.1 3.7-21.8-.8 2.2-1.8 4.8-3.1 7.6l-3.2 27z"/><path fill="#182C42" d="M193.3 181.6c-15.8-12.3-15.5-18.1-23.1-20.1l-.2 1.3-.4 2.1c3.8 1.2 3.8 8.4 3.8 8.4 6.8 5.3 3.5 20.9 0 32.2-.2.6-.4 1.3-.7 2.1-1 6.7-2.2 14.2-3.7 21.8-.8 3.8-1.7 8.2-2.6 12.8-.6 2.8-1.2 5.6-1.8 8.5 21.3-6.3 40.3-18.1 55.4-33.6-4.6-8.3-12.5-21.5-21.2-30.5-1.9-1.8-3.7-3.5-5.5-5z"/><path fill="#182C42" d="M169 168.4c.4-1.6.5-2.7.6-3.2l-.6 3.2z"/><path fill="#161A24" d="M128.4 202.2l-.4.1v27.1c4.8 0 7.1-.9 8.2-1.5.6-.4.8-.7.8-.7l3.3-10.5c-4.9-6.7-12.2-14.3-12.2-14.3s.2-.1.3-.2z"/><path fill="#BCD8CF" d="M169.5 165.2c0 .5-.2 1.7-.6 3.2-1 4.1-3.9 10.9-12 16.3-12.7 8.5-26.5 16.4-28.5 17.5l-.2.1s7.3 7.6 12.2 14.3c1.4 1.9 2.6 3.7 3.3 5.2 3.5 7 9.7 14.5 10.9 24.3 0 0 9.3-17.8 15-31 1.2-2.8 2.3-5.4 3.1-7.6.3-.7.5-1.4.7-2.1 3.5-11.3 6.8-26.9 0-32.2 0 0 0-7.2-3.8-8.4 0 .1-.1.2-.1.4z"/><path fill="#202321" d="M74.3 39.1c.4.2.8.3 1.2.4.6-.6 1.1-1.2 1.7-1.9 13.3-13.7 5.1-16.8 25.2-22.2 8.7-1.6 15.2-1 20.1.8.9-1.8 2.2-3.5 4.2-4.9-5.7-.7-27.7-2.8-35.8 3.1-9.3 6.8-10.3 17.2-17.7 20.6-2.8 1.3-3.5 6.3-3.3 12 1.2-2.2 2.9-4.5 5-7-.4-.5-.6-.9-.6-.9z"/><path fill="#B17D6B" d="M78.5 107c-1.7-1.6-6.8-7-9.7-16.2l-.3-1.2c-1.5.6-.8 3.1-.5 5.4.3 2.3.9 5 .5 9.8s-.5 12.6 1.7 17.9c2.2 5.3 2 10.4 4.8 10.4 2 0 3.6-.7 5.2-2.7-.1-1.2-.2-2.5-.2-3.7-.3-7.6-.8-14.3-1.5-19.7z"/><path fill="#C08C76" d="M128 180v-31.5s-7.4-.7-14.2-2.3c-6.8-1.6-16.1 4.2-16.1 4.2s-2.8-8.6 0-10.2c2.8-1.6 6.8-3.3 6.8-3.3l2.3-2.3s.7.2 1.9 0 3.6 0 3.6 0 3.4 1 6.2-.1c2.8-1.1 4-1.5 4-1.5s4.6 2.8 5.6 1.6v-99c-17.8-4.6-34 4.4-34.7 4.8-.5.4-1 .9-1.6 1.3-2.3 2.6-4.5 5.6-7.1 8.6-2.5 2.9-3.3 7.5-3.5 12.4s1.3 10.4.2 18.8c-1 8.4-2.3 26.1-2.3 26.1s-.2-.2-.6-.5c.7 5.5 1.3 12.1 1.5 19.6 0 1.3.1 2.5.2 3.7.7 9.1 2.9 17.3 5.8 24.3 3.2 7.7 7.4 14 11.7 18.9 8.7 9.9 30.3 6.4 30.3 6.4zM88.6 86.8l3-2.6 2.6 2.6 1.9-2.6 7.2 2.1h3.3s12.1 1.2 14.9 2.8c2.8 1.6 3-2.8 3-2.8.7 1.9-.9 2.7-1.2 4.5-.3 1.8-6.3-.8-12.8-1.7-6.5-.9-13.5.9-19.1 1.6-5.6.7-7.7-5.4-7.7-5.4l4.9 1.5z"/><path fill="#5D635F" d="M91.4 90.7c5.6-.7 12.6-2.6 19.1-1.6 6.5.9 12.5 3.5 12.8 1.7.3-1.8 1.9-2.6 1.2-4.5 0 0-.2 4.4-3 2.8-2.8-1.6-14.9-2.8-14.9-2.8h-3.3l-7.2-2.1-1.9 2.6-2.6-2.6-3 2.6-4.9-1.5c0 .1 2.1 6.1 7.7 5.4zm31 42.2s-1.2.5-4 1.5c-2.8 1.1-6.2.1-6.2.1s-2.4-.2-3.6 0c-1.2.2-1.9 0-1.9 0l-2.3 2.3s-4 1.6-6.8 3.3c-2.8 1.6 0 10.2 0 10.2s9.3-5.8 16.1-4.2c6.8 1.6 14.2 2.3 14.2 2.3v-14c-.9 1.3-5.5-1.5-5.5-1.5z"/><path fill="#C08C76" d="M179.1 107.5s-.2-3.2-.6-7.6c-1 6.2-2.1 15.5-2.5 26.7 0 1.2-.1 2.4-.2 3.6 1.6 2 3.2 2.8 5.2 2.8 2.8 0 2.6-5.1 4.8-10.4s2.2-13 1.7-17.9.2-7.5.5-9.8c0-.4.1-.7.2-1.1-3.6 9.1-9.1 13.7-9.1 13.7z"/><path fill="#D7A990" d="M178.5 99.9c-.5-5.8-1.1-13.7-1.7-18.5-1-8.4.2-18.8.2-18.8-.2-4.9-1-9.6-3.5-12.5-6.1-7-10.5-14.4-17.1-15.4-3.7-.5-8.4-2.9-13.9-3.4-3.5 3.9-5.5 7.6-5.5 7.6l-2.4-1.2c-2.2-1-4.3-1.7-6.4-2.3v99c1 1.2 5.6-1.6 5.6-1.6s1.2.5 4 1.5c2.8 1.1 6.2.1 6.2.1s2.4-.2 3.6 0c1.2.2 1.9 0 1.9 0l2.3 2.3s4 1.6 6.8 3.3c2.8 1.6 0 10.2 0 10.2s-9.3-5.8-16.1-4.2c-6.8 1.6-14.2 2.3-14.2 2.3V180s21.6 3.5 30.3-6.5c4.3-4.9 8.4-11.2 11.7-18.9 3-7.1 5.2-15.3 5.9-24.4.1-1.2.2-2.4.2-3.6 0-11.2 1.1-20.5 2.1-26.7zm-13.8-9.2c-5.6-.7-12.6-2.6-19.1-1.6-6.5.9-12.5 3.5-12.8 1.7s-1.9-2.6-1.2-4.5c0 0 .2 4.4 3 2.8 2.8-1.6 14.9-2.8 14.9-2.8h3.3l7.2-2.1 1.9 2.6 2.6-2.6 3 2.6 4.9-1.5c0 .1-2.1 6.1-7.7 5.4z"/><path fill="#3B4240" d="M122.4 16.2c2.1.8 3.8 1.7 5.3 2.8 2.1-2.7 6.2-6.1 12.9-6.1 11.2 0 20.7 3.5 25.7 9.3 5 5.8 6.4 8.1 6.4 8.1s-11.2-11.2-20.3-7.1c-4 1.8-7.5 5-10.1 8 5.5.5 10.2 2.9 13.9 3.4 6.6.9 11.1 8.4 17.1 15.4 2.5 2.9 3.3 7.5 3.5 12.5.2.2 4.4 6.2 8.7 8.3 0 0-5.3-1.9-7-2.6 0 0 5 6.1 9.6 7.7h-8l8 3.5s-7.3 1.6-9.1 4.7c-1.8 3 9.1 0 9.1 0s-8.7 11.7-9.3 23.2v.1s5.5-4.6 9.2-13.7c.4-1 .8-2 1.1-3.1 3.4-11.2-2.5-10.7.1-20.8 2.6-10.2 4.8-18.6-8.5-32.3-13.3-13.7-13.8-23.1-33.9-28.5-10.2-1.9-16.6-.5-20.4 2.2-1.7 1.5-3.1 3.2-4 5z"/><path fill="#727B73" d="M164.4 84.2l-2.6 2.6-1.9-2.6-7.2 2.1h-3.3s-12.1 1.2-14.9 2.8c-2.8 1.6-3-2.8-3-2.8-.7 1.9.9 2.7 1.2 4.5s6.3-.8 12.8-1.7c6.5-.9 13.5.9 19.1 1.6 5.6.7 7.7-5.4 7.7-5.4l-4.9 1.5-3-2.6zm-6.2 66.2s2.8-8.6 0-10.2c-2.8-1.6-6.8-3.3-6.8-3.3l-2.3-2.3s-.7.2-1.9 0-3.6 0-3.6 0-3.4 1-6.2-.1c-2.8-1.1-4-1.5-4-1.5s-4.6 2.8-5.6 1.6v14s7.4-.7 14.2-2.3c6.9-1.8 16.2 4.1 16.2 4.1z"/><path fill="#5D635F" d="M89.9 29.8c4.4-6.8 11.4-11.4 25.4-14 4.5-.8 8.4 1.3 11.5 4.6.3-.4.6-.9 1-1.3-1.5-1.1-3.3-2-5.3-2.8-4.9-1.8-11.4-2.5-20.1-.8-20 5.4-11.9 8.5-25.2 22.2-.6.6-1.2 1.3-1.7 1.9 4.7 1 10.3-3.6 14.4-9.8zM78.5 107c.4.4.6.5.6.5-.5-11.6-9.3-23.3-9.3-23.3s10.9 3 9.1 0c-1.8-3-9.1-4.7-9.1-4.7l8-3.5h-8c4.6-1.6 9.6-7.7 9.6-7.7-1.7.7-7 2.6-7 2.6 4.4-2.1 8.7-8.2 8.7-8.3.2-4.9 1-9.6 3.5-12.4 2.6-3 4.8-6 7.1-8.6-1.9 1.4-4.1 2.6-7 4.2-4.4 2.4-8.4-3.2-9.9-5.7-2.2 2.5-3.8 4.8-5 7-4.8 8.6-3.1 15.2-1.1 22.8 2.5 9.8-2.9 9.7-.3 19.6l.3 1.2c3 9.2 8.1 14.6 9.8 16.3z"/><path fill="#9FA7A1" d="M136.9 39l-2.4-1.2 2.4 1.2zm0 0s2.1-3.7 5.5-7.6c2.7-3 6.1-6.2 10.1-8 9.1-4.1 20.3 7.1 20.3 7.1s-1.5-2.3-6.4-8.1c-5-5.8-14.5-9.3-25.7-9.3-6.7 0-10.8 3.4-12.9 6.1-.4.5-.7.9-1 1.3 6.6 6.7 10.1 18.5 10.1 18.5z"/><path fill="#C1C5C0" d="M107.1 27.2c15.1-6.4 29.8 11.8 29.8 11.8s-3.5-11.8-10.1-18.6c-3.2-3.3-7-5.4-11.5-4.6-14 2.6-21 7.2-25.4 14-4.1 6.2-9.7 10.8-14.4 9.7-.4-.1-.8-.2-1.2-.4 0 0 .2.4.6 1.1 1.5 2.5 5.5 8.1 9.9 5.7 3-1.6 5.2-2.8 7-4.2.6-.4 1.1-.8 1.6-1.3s2.9-8.6 13.7-13.2z"/><path fill="#3B4240" d="M136.9 39s-14.7-18.2-29.8-11.8c-10.8 4.6-13.8 13.2-13.8 13.2.7-.4 17-9.3 34.6-4.8 2.1.5 4.3 1.3 6.4 2.3 1 .3 1.8.7 2.6 1.1z"/><path fill="#C1C5C0" d="M72.4 70.9s5.3-1.9 7-2.6c0 0-5 6.1-9.6 7.7h8l-8 3.5s7.3 1.6 9.1 4.7c1.8 3-9.1 0-9.1 0s8.7 11.7 9.3 23.3c0 0 1.3-17.7 2.3-26.1 1-8.4-.2-18.8-.2-18.8-.1.1-4.4 6.2-8.8 8.3z"/><path fill="#9FA7A1" d="M176.7 81.4c.6 4.8 1.3 12.7 1.7 18.5.3 4.3.6 7.6.6 7.6v-.1c.6-11.6 9.3-23.2 9.3-23.2s-10.9 3-9.1 0c1.8-3 9.1-4.7 9.1-4.7l-8-3.5h8c-4.6-1.6-9.6-7.7-9.6-7.7 1.7.7 7 2.6 7 2.6-4.3-2.1-8.6-8.1-8.7-8.3s-1.3 10.4-.3 18.8z"/><path fill="#3F2536" d="M119.1 234.9l8.9 4.8v-2.9l9.6 5 .3 3.1-.3-3.1-9.6-5-8.6-4.6zm8.9 14.6l-9.8-5.2-.3 2.7 10.1 5.4 6.4 3.4-6.4-3.4z"/><path fill="#261420" d="M128 236.8v2.9l9.9 5.2-.3-3.1zm0 12.7v2.9l6.4 3.4 4.5-.3v-.3l-10.9-5.7z"/></svg>