<svg xmlns="http://www.w3.org/2000/svg" width="256" height="256"><circle fill="#B2B4B5" cx="128" cy="128" r="128"/><path fill="none" d="M167.7 171.8l-.3 2.1v.1l-.4 2.2 1.3.4.3-.6.4.8 2.3.7v4.2h-3l3.1 1.9 1.1-1.1h1.7v1.7l7.9 5.5 2.4-4.8 3.6 3.4 9.6-3.4-8.1-12.2-5.7.2s-4.8-3.7-4.6-7.1l4.3-7.3-10.2-16.2c-1.6 2.1-3.9 5.4-6.4 8.8l-2.4 20.6h3.1v.1zm5.8-84.7l-.2-.1v.1zm12.1-.6l-.2.5.2-.4zm-89.9 85.6l1.5-.4-1-13.4c-.6-1.1-1.4-2.4-2.2-3.9l-.1-.1 1.8 17.8zm64.8 0l1.5-14.4c-.7 1-1.5 2-2.2 2.9l-.8 11.1 1.5.4zm-71-13.7l1.2 3.9-1.9-15.8.5.2c-.9-1.6-1.8-3.1-2.6-4.4l2 16.3.8-.2zm-9.6-45.8l2.9 5.9.2.6-3.1-6.5z"/><path fill="#070E17" d="M119.9 227.7l-2.4-.2s2.9 6.9 3.6 8.6c.7 1.7 1 5.7 1 5.7l-.7 3.8 4.3 4.6s-.1 2.4-.3 5.7h2.7v-25.2l-8.2-3zm-38.5 5.8c1-1.2.7-1 1.9-2.4.8-1 2.5-3.4 3.5-4.8-10.4-.3-27-.9-42.5-1.5C53.2 232.5 63.2 239 74 244c2.5-2.7 4.5-5 5.1-5.7 1.6-2.4 1.4-3.6 2.3-4.8z"/><path fill="#121921" d="M106.4 171.5h-.4l.2.3c0-.1.1-.2.2-.3zm-45.7-8.4l3.3-.5c-.1-2.4-.3-5.2-.4-8.1l-3.3-.1s-4.6 1.7-4.6 5.3l1.4 4.9 1.3-1.8 2.3.3zm35.5-4.7l1 13.4-1.5.4-1.9-17.7.1.1c-1.4-2.4-3.1-5.3-4.6-7.9l-.5-.2 1.9 15.8 10.4 33.5 3.5 2.2 1.7 12.2.3.1 1.4-.3-11.1-50.5c-.3-.4-.5-.7-.7-1.1zm31.9 49.7l-14.5-7.9.3-2.9c-1.1-.6-2.2-1.4-3.1-2.2l2.8 13.7 4.2 4.8v2.6c0 .7.5 2.2.5 2.2l2.4 6h-1.9l1.9 3.4-.8-.1 8.2 3.2v-22.8z"/><path fill="#121921" d="M106.1 171.8l2.4 11.9 3.2 2.1c.6 5.1 5.1 9.3 5.1 9.3l1.3-13.4v-3.8l-6.4-5.2h8.3v4.2c0 2.9 8.1-1.3 8.1-1.3v-3.8h-22zm-2.4 44.2c-.4.8-.9 1.6-1.4 2.4.9-.9 1.4-1.9 1.4-2.4z"/><path fill="#212831" d="M88.7 158.5l2.3 19 1 5.4v6.9l1.4 1.3-.2 2.9c4.2-.7 5.3.1 5.3.1l2.6 1.6-10.4-33.5-1.2-3.9-.8.2zm-19.2 43.3c-1.9-12.5-4.4-28.9-5-33.5-.2-1.4-.3-3.4-.5-5.7l-3.3.5-2.2-.3-1.3 1.8-15.9 21.5h-5.7v2.2s-10.5-2.9-11.8 0c-.8 1.7-2.5 5.3-3.8 8 .9 1.5 1.9 2.9 2.9 4.3.4 0 .7.1 1.1.1 6.6 1.3 27.7 5.6 45.5 1.1zm18.1 23.3H92s1.4 1 1.4 0v-2.6c1.4 1-.5 2.9 1.4 1s1.9-3.1 2.9-3.2-.2.8 2.2 0c1-.4 1.8-1 2.5-1.7.5-.8.9-1.6 1.4-2.4v-1.8h-5.2l1.6-11-3.8-3.7c-.5.1-1.7.3-3.4.8l-.5 9.1-15.2 10.1-2.8-2.7v-3l-2.7 3s-.7-4.2-1.6-10.3c-4.2 1.1-8.4 2.1-11.9 2.9-9.1 2-20.7.8-29.2-.3 4.6 5.6 9.7 10.8 15.2 15.6 15.5.6 32.1 1.2 42.5 1.5.5-.8.8-1.3.8-1.3z"/><path fill="#3D4650" d="M101.1 195.7l-2.6-1.6s-1.1-.8-5.3-.1l-.3 6.3c1.7-.4 2.9-.7 3.4-.8l3.8 3.7-1.6 11h5.2c.1-2.1.2-5.2.2-5.2l2.4 1.1-1.7-12.2-3.5-2.2zm-42.8 13.7c3.6-.8 7.7-1.8 11.9-2.9-.2-1.5-.5-3.1-.7-4.8-17.8 4.6-38.9.2-45.7-1-.4-.1-.7-.1-1.1-.1 2 2.9 4.2 5.8 6.4 8.5 8.5 1.1 20.1 2.3 29.2.3z"/><path fill="#A4A1A5" d="M67.2 136c-.1.1-.1.1-.1.2-.1.4-1.3.5-1.3.5s.7 1.7.8 2.6c.1.7.5.3.6.1V136zm-.2-3.3l-3.8 2.5 3.8-2.4zm1.1 21.9l-.3.7.2.6c.1.2.1.2.2.3l-.1-1.6zm-3.6 13.7c.6 4.6 3.1 21 5 33.5.3 1.7.5 3.3.7 4.8.9 6 1.6 10.3 1.6 10.3l2.7-3v-.6l-2.1-18h-.1l-.6-5-2.5-16.5s-.4-2.4-.5-3.2-.4-2-.4-2.4-1.8-12.1-1.8-12.1l-.1-3.9-1.3-6.7c-.1 10.4 2.3 20.6 2.1 24.1s2.5 20.8 3.3 22.3c.8 1.4.6 2.8.6 2.8v2.6h-2V193c0-.2-.2-1.9-.5-4.4-1.3-10.4-4.6-35.7-4.6-35.7l-.7-17.4s.1 10 .5 19.3c.1 2.8.2 5.6.4 8.1 0 2 .1 4 .3 5.4z"/><path fill="#514E5B" d="M68.6 188.4c.3 2.5.5 4.2.5 4.4v4.3h2v-2.6s.2-1.3-.6-2.8c-.8-1.4-3.6-18.8-3.3-22.3s-2.2-13.7-2.1-24.1l1.3 6.7.1 3.9s1.8 11.7 1.8 12.1c0 .4.2 1.6.4 2.4.1.8.5 3.2.5 3.2l2.5 16.5.6 5h.1l-.2-1.8-3.9-37.1c-.1 0-.2-.1-.2-.3l-.2-.6.3-.7-.9-8.1v-7.2c-.2.2-.5.6-.6-.1-.1-1-.8-2.6-.8-2.6s1.2-.1 1.3-.5c0-.1.1-.1.1-.2l-.2-3.2-3.7 2.4.7 17.4c-.2.1 3.2 25.4 4.5 35.9z"/><path fill="#B6B3B6" d="M93.4 191.1l-1.4-1.3v-6.9l-1-5.4-2.3-19-2-16.3c-1.5-2.5-2.5-4.3-2.8-4.7l-4.8 1.7-6.2 3.6s-4.3 2.5-4.7 2.5l.1-3.1.6-1.6c.6-1.6 0 0 0-.5s-.8-1-.8-1l-.6.6-.3-3.7v10.4l.9 8.1.2 1.6 3.9 37.1.2 1.8 2.1 18v3.6l2.8 2.7 15.2-10.1.5-9.1.3-6.3.1-2.7zm-22.7-21.8l-.1-4c-.1-4-.6-.6-1-2.9s0 0 .5-.5.6-.8.6-.8.2-.7-.2-1.6l-1.1-.6.1-1.6c.1-1.6 0 0-1-2s0 0 .4-.4.1-.6.2-1.3 0-1.9 0-2.6 1.1 0 1.1 0l1.7-.9-.8-.8s-2.9 1.1-3 .7c-.1-.4 0-1.2 0-1.2v-2.1l15.2-7.5 1.6 4.4s-1.9 1-2.3 1.2-1.4.2-2.3.4-.4 1.1-.8 1.4c-.4.4-.3 1.2-.3 1.2l3 2.3c3 2.3.8-.6.8-.6v-.5c0-.5.2-1.3.5-.8.2.5 1.2 1.8 1.2 1.8s.2.6-.5 1.1.5.7.5.7 1 1.8 1.6 2.5 0 0 .5.5 0 1.1 0 1.7c0 .6.1.6.5 1.7s.6.5.6.5v1.9c0 1.1-.7.8-1.2 1-.5.1-.5.8-.7 1.6s-1 1.3-1.6 2 0 0 .7 1 0 0 .8-.4.1-1 .7-.8c.6.1 0 .7-.1 1.6-.1.9-.1.5-.5 1.7s-.1.7-.1.7l.5.7c.5.7.8.1.8.1h1l1.6-1.3s0 2.9-.5 3 0 1.9 0 1.9v1.7c0 .4 1 .8 1 .8s.1 3.2.6 4.4c.5 1.1 0 2.8 0 4.6s0 0-1.2.5l-.7-1.3s-1 1.6-1 2.4.8.4.8.4.8 0 .8.2v1.1s-2 .6-2.9.7 0 0-1.2 0-1.4.4-2.3.6-1 .7-1.6.8-1-.2-1.3-.4c-.4-.1-.2-1-.2-1.7s-.7.2-.7.2l-.1 2.2s-1.6 1.4-2 1.8c-.5.4-.7 0-1.6-.1s-.8.6-1 1.2-1.1 0-1.1 0l-.7-2.2.7-1.6s-.1-2.2-.5-3.1c-.4-1-.4-1.4-.5-2.8s-.1-2-.1-2.8c0-.7-.7-2.3-.7-3.2 0-1-.5-3.2-.5-3.2l-.6-5.3zm21.1 32c.1 1.1-.5 2-.5 2l-.1 2.5s-.1.6 0 1-.1 1.9-.1 1.9H90s-.6.5-.7 0-1.7-3.6-1.7-2.8v5.3h-.7c-.7 0-1-.6-1.2 0l-.2.6s-.7-.6-1 0c-.2.6-1.1 1.2-1.1 1.2s1.2 0-.5.7-1.2-.2-.6-.6c.6-.4.6.6.6-.4s.4-1.6-.6-1.6-1.6 0-1.8.4c-.2.4-.7.1-.4 1.2.4 1.1.4.5.7 1.2.4.7 1.1 1.2.4 1.4s-.2 1.6-.7.2c-.5-1.3-2.2-2.9-2.2-2.9s-.1-.6.1 1.4.7 1.3.2 2.6.1 1.2-.5 1.3-1.1 0-1.7-.6-1.4-.8-1.2-1.4c.2-.6-.2.2.2-.6s.7-.4.8-1.6c.1-1.2 0-1.2.2-1.8s.8-1.8.1-2.5c-.7-.7-.6 1-.7-.7l-.1-1.7s-.4-.1-.4-1 0-1.2.1-1.6c.1-.4-.2-1.4.1-1.9.4-.5 2.9-2.4 2.9-2.4l-3.4 1.2s-.6-.4-.5-.7c.1-.4.3-1.2 0-1.6-.3-.4 0-3.7 0-3.7s1.3.7 1.8.6c.5-.1 1 0 1.8-.6s-.4 0 .8-.6c1.2-.6-2.4.1 1.2-.6 3.6-.7 5-2.2 5-2.2s1.7-2 1.3 0c-.4 2-.6 4-.6 4l2.4-4.3s-1.9-1.3 0-1.6l1.9-.2h1.1v7c0 .4.4.7 0 1.1-.4.4.2 1.1.2 1.1s-.3-.2 0 .6c.8 1.1.4 1.7.4 1.7z"/><path fill="#961B1E" d="M71.8 177.9c0 1 .7 2.5.7 3.2s0 1.4.1 2.8.1 1.8.5 2.8.5 3.1.5 3.1l-.7 1.6.7 2.2s.8.6 1.1 0 .1-1.3 1-1.2 1.2.5 1.6.1c.5-.4 2-1.8 2-1.8l.1-2.2s.7-1 .7-.2-.1 1.6.2 1.7c.4.1.7.5 1.3.4.6-.1.7-.6 1.6-.8s1.1-.6 2.3-.6c1.2 0 .4.1 1.2 0s2.9-.7 2.9-.7v-1.1c0-.3-.8-.2-.8-.2s-.8.5-.8-.4 1-2.4 1-2.4l.7 1.3c1.2-.5 1.2 1.3 1.2-.5s.5-3.5 0-4.6-.6-4.4-.6-4.4-1-.5-1-.8v-1.7s-.5-1.8 0-1.9c.5-.1.5-3 .5-3l-1.6 1.3h-1s-.4.6-.8-.1l-.5-.7s-.2.5.1-.7c.4-1.2.4-.8.5-1.7s.7-1.5.1-1.6.1.5-.7.8c-.8.4-.1 1.3-.8.4s-1.3-.2-.7-1c.6-.7 1.3-1.3 1.6-2s.2-1.4.7-1.6c.5-.1 1.2.1 1.2-1v-1.9s-.2.6-.6-.5-.5-1.1-.5-1.7c0-.6.5-1.2 0-1.7s.1.2-.5-.5-1.6-2.5-1.6-2.5-1.2-.2-.5-.7.5-1.1.5-1.1-1-1.3-1.2-1.8-.5.4-.5.8v.5s2.2 2.9-.8.6l-3-2.3s-.1-.8.3-1.2-.1-1.3.8-1.4 1.9-.1 2.3-.4c.4-.2 2.3-1.2 2.3-1.2l-1.6-4.4-15.2 7.5v2.1s-.1.8 0 1.2 3-.7 3-.7l.8.8-1.7.9s-1.1-.7-1.1 0 .1 1.9 0 2.6c-.1.7.1 1-.2 1.3-.4.4-1.3-1.7-.4.4 1 2 1.1.5 1 2l-.1 1.6 1.1.6c.5.8.2 1.6.2 1.6s-.1.4-.6.8c-.5.5-.8-1.8-.5.5.4 2.3.8-1.1 1 2.9s.1 4 .1 4l.6 5.4c0-.1.5 2.2.5 3.1zm20 21.3s-.5-.7-.2-1.1c.4-.4 0-.7 0-1.1v-7h-1.1l-1.9.2c-1.9.2 0 1.6 0 1.6l-2.4 4.3s.2-1.9.6-4c.4-2-1.3 0-1.3 0s-1.4 1.4-5 2.2c-3.6.7 0 0-1.2.6s0 0-.8.6-1.3.5-1.8.6-1.8-.6-1.8-.6-.3 3.4 0 3.7c.3.4.2 1.2 0 1.6-.1.4.5.7.5.7l3.4-1.2s-2.5 1.9-2.9 2.4 0 1.6-.1 1.9c-.1.4-.1.7-.1 1.6s.4 1 .4 1l.1 1.7c.1 1.7 0 0 .7.7s.1 1.9-.1 2.5-.1.6-.2 1.8-.4.7-.8 1.6 0 0-.2.6.6.8 1.2 1.4 1.1.7 1.7.6c.6-.1 0 0 .5-1.3s0-.6-.2-2.6-.1-1.4-.1-1.4 1.7 1.6 2.2 2.9c.5 1.3 0 0 .7-.2s0-.7-.4-1.4-.4-.1-.7-1.2c-.4-1.1.1-.8.4-1.2.2-.4.8-.4 1.8-.4s.6.6.6 1.6 0 0-.6.4-1.1 1.3.6.6.5-.7.5-.7.8-.6 1.1-1.2c.2-.6 1 0 1 0l.2-.6c.2-.6.5 0 1.2 0h.7v-5.3c0-.9 1.6 2.3 1.7 2.8s.7 0 .7 0h1.1s.2-1.6.1-1.9c-.1-.4 0-1 0-1l.1-2.5s.6-1 .5-2c0 0 .3-.6 0-1.4-.7-1.1-.4-.9-.4-.9z"/><path fill="#5B0D11" d="M83.3 119.7l-.3-.6.6 1.5v-.6l-.3-.3zM67.2 136v.2l.3 3.7.6-.6s.8.5.8 1 .6-1.1 0 .5l-.6 1.6-.1 3.1c.4 0 4.7-2.5 4.7-2.5l6.2-3.6 4.8-1.7c0-.1-.1-.1-.1-.1L81 120.2c-4.1 2.3-11.1 6.4-14.3 8.6l.3 3.9v.1l.2 3.2z"/><path fill="#070E17" d="M94.6 139.8s2.5 1.8 2.4 2.2 0 .8 0 .8 3.1 4.1 3.4 5.5c.2 1.3.9.2 1.1 0-.5-2-2.2-8.9-3-10.9-.6-1.5-6.2-7.9-10.4-12.6-2.3-2.5-4.1-4.4-4.1-4.4l-.1-.3c-.1-.1-.1-.2-.2-.2v.7l.7 1.9 4.4 4.7s1.1 2.7 1.1 3 3.1 6.2 3.7 7.3h1.1l-.1 2.3z"/><path fill="#070E17" d="M106.9 153.5c.6-.1 0-1.7 0-1.7v-.8c4.2-1 11.3-1 11.3-1l1.2 2.3 2.8 1.2 1-.7V150l5-.1v-6.5l-2.2 1.4-1.7-.7-1.2-3.4-1.9.2s-.5 1.7-1.2 2.6-1.4 0-1.4 0l-1.4-.2-1.4 3.8-1.7 1.7h-12.5s0-.2-.1-.5v.7l2.8 3.5-.6 1.6.7 2.4 1.2.7.5-1.2c0-.1-.1-.2-.1-.2h.2l-.6-2.4c-.1.1.7.2 1.3.1z"/><path fill="#53759E" d="M76.5 80.2c1.1-5 2.4-11.4 3.4-17-.1-1.9-.3-3.8-.6-6-.8-4.9.3-15.8 1.2-23.1v-1.4s-5.4 14.5-8.7 24.5l.2-.2 4.5 23.2z"/><path fill="#2B3038" d="M74.6 93.4v-4.3s.8-3.7 1.9-8.9L71.9 57l-.2.2-2.3 2.8s-.2 9.3-1.1 11.5l-1 2.2v16.6l6.5 8-1.2-5h2v.1zm5.3 19.2l-3.5-7.3v7.3h3.3l-.2-.8z"/><path fill="#23282F" d="M91.4 35.4c.2 2.4 0 1.6 0 4.2 0 .5 0 .8.1 1.1.5-.2 1.2-.9 1.2-.9h1v-.2c0-1.1.8-1.4 1.4-3.8V30h2.2l1.6-.8c-1.3-.9-2.8-1.9-4.6-2.5-2.1-.7-2.6-2.2-2.8-3.2 0 .3 0 .6-.1 1-.1 3-.1 9.1 0 10.9z"/><path fill="#141C24" d="M128.1 230.8V256c1.6 0 3.2 0 4.9-.1l6-29.3-10.9 4.2zm34.7 10.3l3-9.6-12.4 3.2v-8.9c.1-.3.5-2.4.9-5l-9.1 3.5-6.9 31.4c5.2-.4 10.2-1.1 15.2-2.1l3.6-5.4h3.2l3.2 3 .9-.3v-5.3l-1.6-4.5zm45.6-31.7c-2.8-.6-5.9-1.4-9.2-2.2-.3.5-.5.8-.5.8l-17.9 1.9-.9 13.5h-2.2l-.5-8.2-7.2 12.3 5-4.1 2.9 3.2 5.7-3.2 10.2 2.6 8-8.3 8.9 2.4 4.5-2.4 3.1 1.1c2.8-2.7 5.4-5.6 7.9-8.6-6.1.5-12.4.4-17.8-.8zm-27.2-5.2l8 .4c-1-.3-2-.6-3-.8l-4.9-.1-.1.5z"/><path fill="#141C24" d="M159.1 227.3l11-14.6-2.2-.2.3 1.7h-3.1l-5.2 4z"/><path fill="#212831" d="M226.3 203.2l-8-9.4c-5 2-7 6.4-7.8 9.9 5.5.3 10.9 0 15.8-.5zm-53-60.8l10.2 16.2-4.3 7.3c-.2 3.4 4.6 7.1 4.6 7.1l5.7-.2 8.1 12.2-9.6 3.4-3.6-3.4-2.4 4.8-7.9-5.5v-1.7h-1.7l-1.1 1.1 10.8 6.8-.4 5.8c2.5.8 5.4 1.9 8.8 3.4l1.5.6c1.9-5.2 6.3-13.7 15.9-18.4l-1.2-1.4-8.1-13.8 1.9-6.7c0-3.6-4.6-5.3-4.6-5.3l-7.9.2-12.5-18.2-.2 3.2c-.1-.2-.8.8-2 2.5zm-45.2 33.2s8.1 4.2 8.1 1.3v-4.2h8.3l-6.4 5.2v3.8l1.3 13.4s4.5-4.2 5.1-9.3l3.2-2.1 2.4-11.9h-22v3.8zm39.6 11.3v.5h-3.2l-1.6 10 5.2-3.3s.5-.3 2-.4l.1-3.4-2.5-3.4zm.6-10.3l.7.2-.4-.8zm-25.7 23.6l-14.5 7.9v22.8l10.8-4.2 6.4-31.6c-.9.8-1.9 1.6-3.1 2.2l.4 2.9zm22.5 14h-4.9l-.3 4zm-11.8-6.1v-5.7l2.6-1.3 2.6-14-2.6-1.9v-4.9h2.6l2.6-8.5h3.4l2.4-20.6-4.8 6.6-1.5 14.4-1.5-.4.8-11.1c-.3.5-.7.9-1 1.3l-13.7 62.2 9.1-3.5c.7-4.7 1.7-11 1.7-11l-2.7-1.6zm32.9-4.4c-1.7-.5-3.3-.9-4.9-1.4l-.1 1.2 5 .2z"/><path fill="#141C24" d="M167.9 118.2c-.1.1-.2.2-.3.2-1.6 1-4.7 1.7-4.7 1.7l-3.1 6.6h-1l-3.3 4.2c.1.4.1.6.1.6s-3.8.8-4.8 1.3c-.6.3-1.7 1.3-2.6 2.1-.3.7-.8 1.9-1.7 1.9l-.6.7h-1l-1.8.7-1.3 2s-4.1 2.5-4.7 4.3l-.6 1.8h-1.3s.4-5.5-2.1-6.2l-2 1.2-3.1 2v6.5h6.7l1.1 1.9 1.4-1v3l2.4 2 1.9-1.4 1.1-1.3.2-.1.6-.7 1.6-1.6 1.3-.6v-2.2l1.9 1 1.6.8 1.4 1.3-1.3 1.1c.5.7 3.5 0 3.5 0l1 1.1V151l-1.6-1.9 1.6-.5s1-.3 1-1v-4.9l3.7-1.1s1.3 1.4 2.1 0 1.1-2.4 1.1-2.4V136l-1.8 1.8-1-1.8 3.8-2.6.8-1.9v-2.9h2.2l-1.8-2.9s1.1-.8 1.8-1c.6-.2 1.3-.6 1.3-.6l2.6-3.8 6.4-12.9-2.7 3.2-5.1 8.9-.2-1.8s.3-1.2.7-2.7c-.3 1.4-.8 2.6-1.4 3.2zm4.6-8.7c.6-.3 1.3-.7 1.3-.7l-1.3.7c.1 0 0 0 0 0zm1.3-.6l2.2-4.3h2.1l-.2-3.1c-.4.5-.8 1.1-1.2 1.8l-2.9 5.6z"/><path fill="#373E46" d="M134.9 34.5l1 .2s1.4 3.4 2.4 3.7c1 .4 1.6.6 1.6.6l1.6 3.8 4.1 3.2-1.8 1.2 3.2 2.3s.5.2 0 1.7c-.5 1.4.7 2.8.7 2.8v4.7l6.2 4 4.4-1.3.8.1 1.2-2.6s1.2.4 1.6.4c.4 0 0-2.2 0-2.2s.6-1.6 1-2.5c.4-1 .7-3 .7-3l1.9 1.1 1.9 3.2s1.1 14.2 1.7 17.5c.5 2.5 2.7 9.3 3.7 12.3.2.3.3.6.5 1v.3l.2.1 3.5-.6c.1-.6.2-1.1.2-1.7l.8 1.8.7.6 1 2.5v-.1c0-.4-.6-3-.6-3 .1-.1-1.1-.6-1.1-1.3s1.1-.8 1.1-.8l-1-.1s-1.2 1.1-3.1 1c-1.9-.1 0 0-1-.7-.8-.6-.9-1.1-1-2.1-.3.1-.3 0 0-.1v-.4c0-1.4-.2-.8-.8-2s.2-1.1 0-1.9-.8-1.3-1.3-2.3-.3-1.4-.1-2.3c.2-.8-.2-2.4 0-3s-1.5-1.2-1.5-1.2l-.1-1.6c-.1-1.6.6-.6 1.3-1.3.7-.7 0-1.2 0-1.2s-.5-.8-1.1-1.4-1-.8-1-.8v-1.7c0 .1 1-1.6 1-1.6s-.1-1-.6-1.7c-.3-.5-.1-1.1 0-1.7-.1-.2-.3-.5-.4-.7-.2-.4-.2-.9-.2-1.5-.4-.9-.8-1.7-.8-1.7l.7-1.3.6-1.1s.1-.6.1-1.8h.8l1.2 1.2.8-.6v-.6c0-.6-.1-1-.2-1.3-.1-.4-.1-1.6-.1-1.6l-.7-1-.6-1 4 .1 1.3-.5-9.2-6s-1.3.5-2.9 0-10.4 0-10.4 0l-1.3-2.7c-2.7-2.2-3.8.6-4.8.6s-2.6-1.1-4.3-1.3-2.4 1.1-3.7 1.3-3.2-4.2-3.2-4.2l-2.6 3c.7 1 1 2 1 2l1-1.2z"/><path fill="#F0E9EB" d="M155.1 108.9c-1-1.1-1.7-1.8-1.7-1.8h-.6s-.1-.1-.7.5-1.2 1.4-1.2 1.4l-2.3-2.4-.7-.8s-.2-.6-.6 0c-.4.6-1.4 1.1-2 .7s-.7-.5-1.8-.6-2.3-.5-2.3-.5c-1.3-.5-1.9-.7-1.9-.7l-1.2-.2-.7-.8-1.3-1-1.9-.6 3.5-1 1-1.5 1-1.4s.1-.1.4-.1c.2-.1.4-.2.7-.3.6-.2 1.2-.5 1.9-.7.9-.3 1.7-.6 2-.7s.9-.5 1.6-1.1c1.5-1.2 3.4-2.9 3.4-2.9l.3-.7.7-1.9.6-1.6v-3.6l.7-2.5 1.7 3 .6 2.3-1 1.6s-.1.2-.1.4c-.1.4-.1.9.3.7h.1c.6-.2-.2-.7.6-1 .8-.4 1.2-1.4 1.2-1.4s.7.7 1.2.7.6-.7 1.2-1.4c.1-.1.3-.3.4-.5l-.7.5s-.5-.2-.6-.9c-.1-.6.2-.7.6-1.4.4-.6.4-.9.4-1.4v-1c0-.6-.5-1-.5-1s-.6 1-1.3 1.3c-.6.2 0 0-.6-.4s0 .4.2 1 .6.6.6 1.3c0 .8-.2 1.2-.8 1.6-.4.3-.3.4-.2.5l-.7-.2-.2-1c-.2-1 0 0-.3-.8s-.2-.7-.5-1.2c-.3-.6 0-.2-.6-1-.6-.7.2-.9-.4-2.1-.6-1.2 0-.4.1-.6s.3-.9.3-.9l-1.2-1.6s.1.4 0 .7c-.1.3 0 1 0 2.7 0 1.8 0 0-.4.8s-1.2-1.2-1.2-1.2l-.2-.2c-.2-.2-.5-.2-1.6-.9-1.2-.6-1.4-.8-1.6-.7-.2.1.4.7.9 1.3.5.6.7.7 1.5 1.2s.4.6.7 1 0 1-.3.9-.6-.4-.8-.8c-.1-.4-.1.9 0 1.4s-.1 1 0 1.8 0 1 0 1l-.4 1h.5c.5 0 .4.7.3 1-.1.3.1.3 0 .9s-.3 2.9-.3 2.9l-1-.1s-.7-.7-1-1.3c-.3-.6-.2-.3-.6-.9-.3-.6-2.8-4.3-2.8-4.3s2.3 5.3 2.6 6.1c.3.8-.2.8-.2 2.1s0 .5-.9.9-.5.6-1.3 1.8c-.8 1.2-.4-.1-1-.9s-.6-.8-1-1.3-1.7-2.4-1.7-2.4-.2 1-.3 1.4c-.1.3.2.4.7 2.1s.3.3.7.8.3.4-.5.6 0 0-.4.3-.4.6-1 1.7c-.6 1-1.9.5-1.9.5l-.1.7c-.1.7-.1.6-1.4.6h-1.2c-.3 0 .2 1.9 0 1.9s-.7-.5-1.4-.6c-.6-.1-.5.1-.8.4s0 0-.3.6-.5.4-1.4.6c-1 .2-.6.2-1.1.4-.5.2-.6.3-.9.8-.3.5.4.7 1 .8l.6.1 1.1.6c1.1.6 0 0 .5.7s.3.1 1.1-.2c.8-.2 1-.5 1.9-.5 1 0 .6 0 1-.2s-.7-.6-.7-.6-.4.1-1 .3c-.6.2 0 0-.8.2s-.8-.3-.8-.3v-.8s1-.3 1.7-.6c.7-.2.9.3.9.3l.6.5c.6.5 1 .8 1.6 1.3h.8l.9.2c.9.2 0 0 .3.2s.4.3.9.6.6.4 1 .6.5.5 1.1 1 .6 0 1.4 0h.8c.2 0 .6-.8.6-.8l.6-.6c.6-.6 0 0 .3 0h.4s1.5 1 2.2 1.6c.6.6.6.6 1.3 1.1.6.5.6.2 1.3.5.6.2 0 0 .4.2s.2.9.4.9.4.1 1.3 0c0 0 .2-.4.5-.9 0 0 .9.6 1 .8l.4.4-.1-.7c-.1-.6.8-1.2-.1-2.3zm6.5-28.1l-.4.8c.2-.3.4-.5.4-.8.1 0 0 0 0 0zm11.7 6.5v1.3l1.2.7h1.1s-1.1 1.4-1.1 2.2-.2 1.6-.4 1.9c-.1.4-.6 1.9-.6 1.9l-.7 1.4.8 2.5s1.4-4.1 2.7-9.3c.2-1.1.4-2.3.6-3.4l-3.5.6h-.2l.1.2zM157.7 107l-.7.6-.7 3.1c-.1 1-.2 1.9-.3 2.5v.2s0 .1-.1.2c-.1.4-.1.6-.1.6l-.1-.3c-.2.3-.3.7-.4 1-.1.5-.2.4-.1.7.1.3.9-.1 1.4-.6 0 0 1 .2 1.6 0s-.1-.5-.4-1.5c-.3-1 .2-.8 1.3-1.7 1.1-.9 0-.5-.2-.8s0-.4-.7-.9c-.6-.4-.1-.8.2-1.6l-.2-.7-.5-.8zm2.5-20.5s1.4.9 1.8 1c.4.1 1.8.2 1.9 1s-.1-.9 0 1.4-.1 3 0 3.7.6 1.6.6 1.6l-1.6.5.8.5-1 1s-.7 0-1.1.2c-.4.2-.7.6-.5 1.1s1.1.7 1.1.7l-1.7.4v1.1c0 .7-.1.6-.2 1.2s.2 1.4-.1 2.4c-.4 1 0 1-.6 1.6l-.6.6-.1 1.2c.2.1.6.4.8.4.3 0 .8-.2 1.1-1.5.3-1.4.2-.6.2-1s.1-.6.2-1.2c.2-.6 0-.3.2-.6s.4-.2.4-.2.4 0 .8.2 0 0-.2.6.2.6.5.5c.2-.1 1.8.2 2.3 0s0 0-.5-.5 0 0-.6-.2-.7-.4-1.5-1 0-.5 0-.7 0-.3.1-.6.1-.4.6-.7l.6-.3h.6c.6 0-.1.6-.1.6s.2.4.4.5.6 0 1.2-.4 0 0-.7-1-2.1 0-2.1 0l.6-1.1c.6-1.1 0 0 .9 0s1.2-.7 2.1-1.2c.9-.5 0 0 .6-1.4s.4-.6.3-1.2c-.1-.6-1.4.2-1.7 0s.2-1 .2-1 .1-.4.6-1c.6-.6.6.2 1.5 0s.1-.7 0-1.8-.4.1-1.8-1-.4-.5.3-1.9 0 0 0-.6-.6-.9-1.1-1.2c-.6-.4-1.2 1.4-2 1.3-.3 0 .1-.6.3-1 .2-.3.2-1 .4-1.6s-.3-.4-.6-.8c-.2-.4 0 0-.9-.6s0-.4.2-1.4.6-1.4.8-2.3c.2-.7-.5-.6-.8-.6l-2.9 6.3z"/><path fill="#F0E9EB" d="M130.6 32.5c-.2.4-1.2 1.7-1.2 1.7v1.9l2.7-1s3.6 1.9 3.8 2.3c.2.4-1.8 2.2-1.8 2.2l-.9 1.6s-.9-1.2-1.2.8-1.5 2 0 2.6 2.2 1.2 2.2 2.2-2 1.1 0 1 2.3-.5 2.4-2.6c.1-2.2.5-.8.1-2.2-.4-1.3-1-3.8-1-3.8s1.1-.8 1.1 0 1.5 2.4 1.5 2.4-.2.5 0 .8c.2.4.7.6 0 1.1s-1.4 0-1.1 1.1c.4 1.1.5 1.2 1.5 1.6.9.4 2-.4 2-.4s1.4 2.2 1.4 2.6c0 .5 0 1.9.7 2.4s.1 1.6.7.5l.6-1.1s1.2.2 1.2.7v1.3c0 .5.7 1 0 1.7s-1.2.6-1.1 1.9c.1 1.3.6 2.3.6 2.3s1.1.7.8 1.1c-.3.4-.9-.5-1.4 0s-.8.5-1.2.1c-.4-.5 1.1-.7-.4-.5-1.4.2-1.3-.6-1.9 1.4-.6 2-1.8 4.9-1.8 4.9l.8 1.4s2.6-5.4 3-5.4 0 .8 1.4.4c1.4-.5.4.4 1.4-.5 1.1-.8 1.2-1.6 1.2-1.6s.7 1.8 1.7 1.9c1 .1 1.4.7 1.8 1.2.4.5-1.7 2.4 0 2.6.5.1.9.1 1.1.1-.3 0-.3-.1 1.1-.1 2.5 0 2.5.3 3.4 0s0-2.1 0-2.1l2.4 1.6 2.9 4.7v-2.6c0-.5-.2-2-.7-2.3-.5-.2.2.5-.5-.2s-.5-1.8-.5-1.8.1-.8.5-.6.8.8 1.2 1.2 1.2 1.1 1.1.1 1.1.5-.1-1l-1.2-1.4s.2-.2.8-.2.7.6 1.4 0l.7-.6s.8-.4 0-1.2-2.3.6-.8-.8 1.2-3.1 1.2-3.1.3-.8.7-.5c.4.4 1 1.3 1 1.8s-.6 1.3 0 1.8 1.3 1.6 1.3 1.6.7 17.2 5.2 26.1c-1-3.1-3.2-9.9-3.7-12.3-.6-3.2-1.7-17.5-1.7-17.5l-1.9-3.2-1.9-1.1s-.4 2-.7 3l-1 2.5s.4 2.2 0 2.2-1.6-.4-1.6-.4l-1.2 2.6-.8-.1-4.4 1.3-6.2-4V54s-1.2-1.3-.7-2.8c.5-1.4 0-1.7 0-1.7l-3.2-2.3 1.8-1.2-4.1-3.2-1.6-3.8s-.6-.2-1.6-.6c-1-.4-2.4-3.7-2.4-3.7l-1-.2-.8 1.2s-.4-1-1-2c-.3-.5-.8-1.1-1.3-1.5-1.4-1.2-1.9-3.4-1.9-3.4l-1.8-2.2v4c.4 0 3.2 1.6 2.9 1.9zm25.1 98.9s0-.2-.1-.6l-.4.5s-3.2.1-4.3.7c-1.1.6-1.9 1.2-1.9 1.2l-.5 1.1-.2.6c.8-.8 2-1.9 2.6-2.1.9-.5 4.8-1.4 4.8-1.4zm-24.5 10l2-1.2c2.5.7 2.1 6.2 2.1 6.2h1.3l.6-1.8c.6-1.8 4.7-4.3 4.7-4.3l1.3-2 1.8-.7h1l.6-.7c-1.3.1-4 1.2-4 1.2s-1.4 2.4-2.9 2.9c-1.4.5-2.8.5-2.8.8 0 .4-.7.6-.7.6l-1.1-2.5-.4-.7-.4-.7s1.1-1.4.5-1.4-1.2-.4-1.6-.4c-.4 0-.7 1.2-.4 0 .2-1.2 1.1-2.6.4-2.6-.7 0-1.5-.1-1.7.5s.5 1.8.5 1.8-.4.2-.7.6c-.4.4-1.8.2-1.4.7.4.5 1.8 1 1.8 1l-1.3.7-.4 1.1-1.2 1.1-.6.1v1.9l3-2.2z"/><path fill="#694E43" d="M171.2 110.1c.2-.1.8-.3 1.3-.6l-1.3.6zm-3.3 8.1c-.1.1-.2.2-.3.2.1-.1.2-.1.3-.2zm10-16.7v-.4l-1.1 2.2c.3-.7.7-1.3 1.1-1.8zm-.1-.5l-.6-7.6v2zm-47.9 39.3l.4-1.1 1.3-.7s-1.4-.5-1.8-1c-.4-.5 1.1-.4 1.4-.7.4-.4.7-.6.7-.6s-.7-1.2-.5-1.8 1.1-.5 1.7-.5c.7 0-.2 1.4-.4 2.6-.2 1.2 0 0 .4 0s1 .4 1.6.4-.5 1.4-.5 1.4l.4.7.4.7 1.1 2.5s.7-.2.7-.6c0-.4 1.3-.4 2.8-.8 1.4-.5 2.9-2.9 2.9-2.9s2.7-1.1 4-1.2c.9-.1 1.5-1.2 1.7-1.9l.2-.6.5-1.1s.8-.6 1.9-1.2c1.1-.6 4.3-.7 4.3-.7l.4-.5 3.3-4.2h1s3.8-12.9 13.8-27.4l-.8-2.5.7-1.4s.5-1.6.6-1.9c.1-.4.4-1.2.4-1.9s1.1-2.2 1.1-2.2h-1.1l-1.2-.7v-1.9c-.2-.3-.3-.6-.5-1-4.6-9-5.2-26.1-5.2-26.1s-.7-1.1-1.3-1.6 0-1.3 0-1.8-.6-1.4-1-1.8c-.4-.4-.7.5-.7.5s.2 1.7-1.2 3.1 0 0 .8.8 0 1.2 0 1.2l-.7.6c-.7.6-.8 0-1.4 0-.6 0-.8.2-.8.2l1.2 1.4c1.2 1.4 0 0 .1 1s-.7.2-1.1-.1c-.4-.4-.8-1-1.2-1.2s-.5.6-.5.6-.2 1.1.5 1.8 0 0 .5.2.7 1.8.7 2.3v2.6l-2.9-4.7-2.4-1.6s.8 1.8 0 2.1-.8 0-3.4 0c-1.5 0-1.4.1-1.1.1-.2 0-.6-.1-1.1-.1-1.7-.2.4-2.1 0-2.6s-.8-1.1-1.8-1.2c-1-.1-1.7-1.9-1.7-1.9s-.1.7-1.2 1.6c-1.1.8 0 0-1.4.5s-1.1-.4-1.4-.4c-.4 0-3 5.4-3 5.4l-.8-1.4s1.2-2.9 1.8-4.9.5-1.2 1.9-1.4 0 0 .4.5.7.4 1.2-.1 1.1.4 1.4 0c.3-.4-.8-1.1-.8-1.1s-.5-1-.6-2.3.4-1.2 1.1-1.9 0-1.2 0-1.7v-1.3c0-.5-1.2-.7-1.2-.7l-.6 1.1c-.6 1.1 0 0-.7-.5s-.7-1.9-.7-2.4-1.4-2.6-1.4-2.6-1.1.7-2 .4c-.9-.4-1.1-.5-1.5-1.6s.4-.6 1.1-1.1c.7-.5.2-.7 0-1.1-.2-.4 0-.8 0-.8s-1.6-1.7-1.5-2.4c0-.8-1.1 0-1.1 0s.6 2.4 1 3.8c.4 1.3 0 0-.1 2.2s-.4 2.5-2.4 2.6 0 0 0-1-.7-1.6-2.2-2.2c-1.5-.6-.3-.6 0-2.6s1.2-.8 1.2-.8l.9-1.6s2-1.8 1.8-2.2-3.8-2.3-3.8-2.3l-2.7 1v-1.9s1-1.3 1.2-1.7-2.5-1.9-2.5-1.9v110.9l.6-.1.8-1.1zm24.9-29.4c-.2-.2-1-.8-1-.8-.3.5-.5.9-.5.9-.9.1-1 0-1.3 0-.2 0 0-.7-.4-.9l-.4-.2c-.6-.2-.6 0-1.3-.5-.6-.5-.6-.6-1.3-1.1-.6-.6-2.2-1.6-2.2-1.6h-.4c-.3 0 .3-.6-.3 0l-.6.6s-.3.8-.6.8h-.8c-.7 0-.7.5-1.4 0-.6-.5-.7-.7-1.1-1-.4-.2-.5-.3-1-.6s-.6-.5-.9-.6c-.3-.2.6.1-.3-.2s-.9-.2-.9-.2h-.8c-.6-.5-1-.8-1.6-1.3l-.6-.5s-.2-.6-.9-.3c-.7.2-1.7.6-1.7.6v.8s0 .5.8.3.2.1.8-.2c.6-.2 1-.3 1-.3s1.1.3.7.6c-.4.2 0 .2-1 .2s-1.1.2-1.9.5c-.8.2-.6.9-1.1.2-.5-.7.6-.1-.5-.7l-1.1-.6-.6-.1c-.6-.1-1.3-.3-1-.8s.4-.6.9-.8c.5-.2.2-.2 1.1-.4 1-.2 1.1 0 1.4-.6.3-.6 0-.2.3-.6.3-.3.2-.5.8-.4s1.1.6 1.4.6-.3-1.9 0-1.9h1.2c1.4 0 1.4.1 1.4-.6l.1-.7s1.4.6 1.9-.5c.6-1 .6-1.3 1-1.7.4-.3-.4-.1.4-.3.8-.2.9-.2.5-.6-.4-.5-.2.9-.7-.8-.5-1.7-.8-1.8-.7-2.1.1-.3.3-1.4.3-1.4s1.3 1.9 1.7 2.4.4.5 1 1.3.2 2.1 1 .9.4-1.4 1.3-1.8c.9-.4.9.4.9-.9s.5-1.3.2-2.1-2.6-6.1-2.6-6.1 2.5 3.8 2.8 4.3c.3.6.2.3.6.9.3.6 1 1.3 1 1.3l1 .1s.2-2.3.3-2.9-.1-.6 0-.9.2-1-.3-1h-.5l.4-1s.1-.2 0-1 .1-1.4 0-1.8c-.1-.5-.1-1.8 0-1.4s.4.7.8.8c.3.1.6-.5.3-.9s.1-.6-.7-1c-.8-.5-1.1-.6-1.5-1.2-.5-.6-1.1-1.2-.9-1.3.2-.1.4.1 1.6.7 1.2.6 1.5.6 1.6.9l.2.2s.8 2 1.2 1.2.4 1 .4-.8-.1-2.4 0-2.7c.1-.3 0-.7 0-.7l1.2 1.6-.3.9c-.1.2-.6-.6-.1.6.6 1.2-.2 1.4.4 2.1.6.7.3.4.6 1s.2.4.5 1.2c.3.8.2-.2.3.8l.2 1 .7.2c-.1-.1-.2-.2.2-.5.6-.5.8-.9.8-1.6 0-.8-.3-.8-.6-1.3-.2-.6-.8-1.4-.2-1s-.1.6.6.4c.6-.2 1.3-1.3 1.3-1.3s.5.4.5 1v1c0 .6 0 .8-.4 1.4s-.6.7-.6 1.4c.1.6.6.9.6.9l.7-.5c.6-.8 1.5-2 1.6-2.2s.7-1.2 1.4-2.2l.4-.8.1.1c.5-.8 1-1.5 1-1.5v-4.2l.6 4.3-.1.1c.3-.1 1-.1.8.6-.2.9-.6 1.4-.8 2.3-.2 1-1 .8-.2 1.4.9.6.6.2.9.6.2.4.8.2.6.8-.2.6-.2 1.3-.4 1.6-.2.3-.6.9-.3 1 .8.1 1.4-1.7 2-1.3.6.4 1.1.7 1.1 1.2s.7-.9 0 .6c-.7 1.4-1.8.8-.3 1.9 1.4 1.1 1.8-.1 1.8 1 .1 1.1.9 1.6 0 1.8-.9.2-1-.6-1.5 0-.6.6-.6 1-.6 1s-.6.8-.2 1c.3.2 1.6-.6 1.7 0 .1.6.2-.2-.3 1.2s.3 1-.6 1.4c-.9.5-1.2 1.2-2.1 1.2s-.3-1.1-.9 0l-.6 1.1s1.4-1 2.1 0c.7 1 1.4.6.7 1-.6.4-1 .5-1.2.4s-.4-.5-.4-.5.6-.6.1-.6h-.6l-.6.3c-.6.3-.6.5-.6.7-.1.3-.1.4-.1.6s-.8.1 0 .7 1 .8 1.5 1c.6.2.1-.2.6.2.5.5 1 .2.5.5-.5.2-2.1-.1-2.3 0s-.7.1-.5-.5.6-.4.2-.6c-.4-.2-.8-.2-.8-.2s-.2-.1-.4.2c-.2.3 0 .1-.2.6-.2.6-.2.8-.2 1.2s.2-.3-.2 1c-.3 1.4-.8 1.5-1.1 1.5-.2 0-.6-.3-.8-.4v.7h1.6l.2 1.2h-2.1l-.2-.9c-.3.8-.8 1.2-.2 1.6.7.5.6.6.7.9.2.3 1.3-.1.2.8s-1.6.6-1.3 1.7c.3 1 1 1.3.4 1.5s-1.6 0-1.6 0c-.5.5-1.3.9-1.4.6-.1-.3 0-.2.1-.7 0-.3.2-.7.4-1l-.5-2.7c-.1.5-.3.3-.4.2z"/><path fill="#694E43" d="M155.9 113.3c0 .2 0 .3-.1.4.1-.1.1-.2.1-.2v-.2z"/><path fill="#141C24" d="M153.3 88.7l1-1.6-.6-2.3-1.7-3-.7 2.5v3.6l-.6 1.6c.7-.2 2.2-.5 2.5-.6l.1-.2z"/><path fill="#141C24" d="M155.7 114l.1.3s0-.2.1-.6c0-.1 0-.3.1-.4.1-.6.2-1.5.3-2.5l.7-3.1.7-.6.6 1 .2.7.2.9h2.1l-.2-1.2H159v-.7l.1-1.2.6-.6c.6-.6.2-.6.6-1.6.4-1 0-1.8.1-2.4s.2-.5.2-1.2v-1.1l1.7-.4s-.8-.2-1.1-.7c-.2-.5.1-.8.5-1.1.4-.2 1.1-.2 1.1-.2l1-1-.8-.5 1.6-.5s-.5-.8-.6-1.6c-.1-.7.1-1.4 0-3.7s.1-.6 0-1.4-1.6-.9-1.9-1c-.4-.1-1.8-1-1.8-1l3.1-6.9.1-.1-.6-4.3v4.2s-.5.7-1 1.5c-.2.2-.3.5-.5.7-.7 1-1.3 2.1-1.4 2.2-.1.3-1 1.4-1.6 2.2-.2.2-.3.4-.4.5-.6.7-.7 1.4-1.2 1.4s-1.2-.7-1.2-.7-.4 1.1-1.2 1.4-.1.8-.6 1c.1.3.1.5 0 .7s-2.5.8-3.7 1.1l-.3.7c2.5-.6 5.9-1.4 6.8-1.4 1.4 0 1.5.8 1.5.8l-11.7 3.5c-.7.6-1.3 1-1.6 1.1-.4.1-1.2.4-2 .7.2.2.3.5.3.8 0 .6-.5 1.1-1.1 1.1s-1.1-.5-1.1-1.1v-.1c-.3.1-.5.2-.7.3.1.2.1.3.1.5 0 .6-.5 1.1-1.1 1.1-.1 0-.3 0-.4-.1l-1 1.5-3.5 1 1.9.6 1.3 1 .7.8 1.2.2s.6.2 1.9.7c0 0 1.2.4 2.3.5s1.2.2 1.8.6 1.7-.1 2-.7c.4-.6.6 0 .6 0l.7.8 2.3 2.4s.6-.8 1.2-1.4.7-.5.7-.5h.6s.7.7 1.7 1.8 0 1.8 0 1.8l.1.7.4 2.8zm3-17.4c0 .6-.5 1.1-1.1 1.1s-1.1-.5-1.1-1.1.5-1.1 1.1-1.1 1.1.5 1.1 1.1zm-1.8-3.8c.6 0 1.1.5 1.1 1.1s-.5 1.1-1.1 1.1-1.1-.5-1.1-1.1c0-.6.5-1.1 1.1-1.1zm-1.4 5c0 .6-.5 1.1-1.1 1.1s-1.1-.5-1.1-1.1.5-1.1 1.1-1.1c.6-.1 1.1.4 1.1 1.1zm-1.9-3.9c.6 0 1.1.5 1.1 1.1s-.5 1.1-1.1 1.1-1.1-.5-1.1-1.1.5-1.1 1.1-1.1zm-1.1 4.3c0 .6-.5 1.1-1.1 1.1s-1.1-.5-1.1-1.1.5-1.1 1.1-1.1 1.1.4 1.1 1.1zm-1.8-3.9c.6 0 1.1.5 1.1 1.1s-.5 1.1-1.1 1.1-1.1-.5-1.1-1.1.5-1.1 1.1-1.1zm-.8 4.6c0 .6-.5 1.1-1.1 1.1s-1.1-.5-1.1-1.1.5-1.1 1.1-1.1 1.1.5 1.1 1.1zm-1.9-3.8c.6 0 1.1.5 1.1 1.1s-.5 1.1-1.1 1.1-1.1-.5-1.1-1.1.5-1.1 1.1-1.1zm-1.2 4.9c0 .6-.5 1.1-1.1 1.1s-1.1-.5-1.1-1.1.5-1.1 1.1-1.1 1.1.5 1.1 1.1zm-1.8-3.8c.6 0 1.1.5 1.1 1.1s-.5 1.1-1.1 1.1-1.1-.5-1.1-1.1.5-1.1 1.1-1.1zm-2.5 3.1c.6 0 1.1.5 1.1 1.1s-.5 1.1-1.1 1.1-1.1-.5-1.1-1.1.5-1.1 1.1-1.1zm-3.9 1.8c0-.6.5-1.1 1.1-1.1s1.1.5 1.1 1.1-.5 1.1-1.1 1.1-1.1-.5-1.1-1.1zm5.9 2.8c-1.4.2-4.6-1.2-4.6-1.2 4.1.2 18.8-4.6 18.8-4.6s-2.3 2.8-2.9 3.3c-.5.4-9.8 2.3-11.3 2.5z"/><path fill="#5A9BCF" d="M158.7 98.1s-14.8 4.8-18.8 4.6c0 0 3.2 1.4 4.6 1.2 1.4-.2 10.8-2.1 11.3-2.6.6-.4 2.9-3.2 2.9-3.2z"/><circle fill="#5A9BCF" cx="139.7" cy="101.1" r="1.1"/><circle fill="#5A9BCF" cx="142.5" cy="100.4" r="1.1"/><circle fill="#5A9BCF" cx="145.7" cy="100" r="1.1"/><circle fill="#5A9BCF" cx="148.8" cy="98.9" r="1.1"/><circle fill="#5A9BCF" cx="151.4" cy="98.2" r="1.1"/><circle fill="#5A9BCF" cx="154.3" cy="97.8" r="1.1"/><circle fill="#5A9BCF" cx="157.6" cy="96.6" r="1.1"/><path fill="#5A9BCF" d="M138.6 99.5c.1 0 .3.1.4.1.6 0 1.1-.5 1.1-1.1 0-.2-.1-.4-.1-.5-.2.1-.4.1-.4.1l-1 1.4zm2.1-1.8c0 .6.5 1.1 1.1 1.1s1.1-.5 1.1-1.1c0-.3-.1-.6-.3-.8-.7.3-1.3.5-1.9.8z"/><circle fill="#5A9BCF" cx="145" cy="97.3" r="1.1"/><circle fill="#5A9BCF" cx="148" cy="96.2" r="1.1"/><circle fill="#5A9BCF" cx="150.7" cy="95.5" r="1.1"/><circle fill="#5A9BCF" cx="153.6" cy="95.1" r="1.1"/><circle fill="#5A9BCF" cx="156.9" cy="93.9" r="1.1"/><path fill="#5A9BCF" d="M146.3 95.1l11.7-3.5s-.1-.8-1.5-.8c-.9 0-4.3.8-6.8 1.4 0 0-1.9 1.7-3.4 2.9zm6.9-6c-.3.1-1.8.4-2.5.6l-.7 1.9c1.2-.3 3.6-.8 3.7-1.1.1-.1 0-.4 0-.7h-.1c-.6.1-.5-.4-.4-.7z"/><path fill="#F0E9EB" d="M179.1 44.5s2.9 12.6 1.9 12.8-3-12.8-3-12.8l-2.6-1.7-1.3.5-4-.1.6 1 .7 1s0 1.2.1 1.6c.1.4.2.7.2 1.3v.6l-.8.6-1.2-1.2h-.8c0 1.2-.1 1.8-.1 1.8l-.6 1.1-.7 1.3s.4.9.8 1.7c0-.7.2-1.4.2-1.4l.8 1.2h1.7s0-1 1.6-1.2 0 0 .4.2.7 0 .7 0v-1.1l.7-1.6v-.6l-.6-1.1s-.6-.4-.7-1.3 0-2.6 0-2.6h3.6s.8 11.3.8 12.7 1.1 16 1.2 16.6-.2 3.6-1 5.1 0 4.1 0 4.1l-1.9.8.1-.7c.1-.7 0 0-.4-1.4s0 0-1.9.5c-.3.1-.5.1-.6.1 0 1.1.1 1.5 1 2.1 1 .7-1 .6 1 .7 1.9.1 3.1-1 3.1-1l1 .1s-1.1.1-1.1.8 1.2 1.2 1.1 1.3c0 0 .6 2.6.6 3v.1l.2.5 2.8-9.6 3.2-6.7.8-9.5c.2-3.9.3-7.5.3-8.2-.1-1.8-6.2-14.4-6.2-14.4l-.5.4.8 1.1-2 1.5z"/><path fill="#F0E9EB" d="M174.3 81c.7-1.2 0-.7 0-.7s-1.4-1.4-2-2.3.1-1.5.1-1.5.1-.4.1-1.4 0 0-1.2-.8 0-.6 0-.6.6-1 .6-1.7 0 0 .1-1.9 0-1.4 0-1.4l-.8-.4c-.8-.4-.6-.8-.6-.8l2-.8-.2-1.7c-.2-1.7-.6-.7-.6-.7l-.6-.6c-.6-.6-.4-.1-.7-.5-.2-.4 0-1-.1-2.1s-.1-.9-.1-.9l-.8-1.2.4-1s-.6-1.1-1.1-2c-.1.6-.3 1.3 0 1.7.5.7.6 1.7.6 1.7s-1 1.7-1 1.6v1.7s.4.2 1 .8c.6.6 1.1 1.4 1.1 1.4s.7.5 0 1.2-1.5-.2-1.3 1.3.1 1.6.1 1.6 1.7.6 1.5 1.2.2 2.2 0 3-.4 1.3.1 2.3 1 1.4 1.3 2.3-.6.7 0 1.9.8.6.8 2v.4c.3-.1.9-.5 1.3-1.1z"/><path fill="#709ED3" d="M175.5 81.8c.4 1.4.5.7.4 1.4l-.1.7 1.9-.8s-.7-2.5 0-4.1 1.1-4.6 1-5.1-1.2-15.2-1.2-16.6-.8-12.7-.8-12.7H173s-.1 1.7 0 2.6.7 1.3.7 1.3l.6 1.1v.6l-.7 1.6v1.1s-.3.2-.7 0 1.1-.5-.4-.2c-1.6.2-1.6 1.2-1.6 1.2h-1.7l-.8-1.2s-.2.7-.2 1.4c0 .5 0 1.1.2 1.5.1.2.2.4.4.7.5.9 1.1 2 1.1 2l-.4 1 .8 1.2s0-.2.1.9-.1 1.7.1 2.1c.2.4 0-.1.7.5l.6.6s.4-.9.6.7l.2 1.7-2 .8s-.2.5.6.8l.8.4s.1-.5 0 1.4-.1 1.2-.1 1.9-.6 1.7-.6 1.7-1.2-.2 0 .6 1.2-.1 1.2.8c0 1-.1 1.4-.1 1.4s-.7.7-.1 1.5 2 2.3 2 2.3.7-.5 0 .7c-.3.6-1 1-1.3 1.2s-.3.2 0 .1c.1 0 .3-.1.6-.1 1.9-.7 1.5-2.2 1.9-.7z"/><path fill="#422822" d="M178 44.5s2.1 12.9 3 12.8c1-.2-1.9-12.8-1.9-12.8l1.9-1.3-.8-1.1-4.3-5.6s-1.6-1.8-8.8-1.6l-1 1.9 9.2 6 2.7 1.7z"/><path fill="#B3B9C4" d="M182.6 80.6l-2.8 9.6-.2 3.5 1.1 1 4.7-7.7.2-.5v.1l.1-.1 2.8 3.4V71l-1.6-9.9-.3 3.3-.8 9.5z"/><path fill="#373E46" d="M185.6 86.6l-.2.4-4.7 7.8-1.1-1.1.2-3.5-.2-.5-1-2.5-.7-.6-.8-1.8c-.1.5-.1 1.1-.2 1.7-.2 1.1-.4 2.3-.6 3.4.3-1.1.6-2.3.9-3.5v5.7l2.9 9.8 3-3.6c2.5-3.9 5.4-8.6 5.4-8.6l-2.9-3.1z"/><path fill="#83A1D3" d="M177.2 92.2v1.2l.6 7.6.1.5.2 3h.5v8l3.7-2.8 1.3-4.7v-7.2l-.5.6-3 3.6z"/><path fill="#F0E9EB" d="M139.8 155.9l-2.4-2v-3.1l-1.5 1-1.1-1.9h-6.7v.9h1.9l1.3.7 1.9-.7 2.4 1.5 1 2.9 1.9 3.2v5.1l1.4-5.5 2.9-1.5v-3.3l-1.1 1.3zm38.8-51.4H176l-2.2 4.3s-.6.3-1.3.7c-.5.3-1.1.5-1.3.6 0 0-.7 2.7-1.7 5-.4 1.5-.7 2.7-.7 2.7l.2 1.8 5.1-8.9 2.7-3.2-6.4 12.9-2.6 3.8s-.6.5-1.3.6c-.6.2-1.8 1-1.8 1l1.8 2.9h-2.2v2.9l-.8 1.9-3.8 2.6 1 1.8 1.8-1.8v3.2s-.3 1-1.1 2.4-2.1 0-2.1 0l-3.7 1.1v4.9c0 .6-1 1-1 1l-1.6.5 1.6 1.9v1.9l-1-1.1s-3 .7-3.5 0l1.3-1.1-1.4-1.3-1.6-.8-1.9-1v2.2l-1.3.6-1.6 1.6-.6.7 1.1-.6 2.4.2.6 4.7v-3.9l1.6.6s-.6 1 .8 1.1 1.9-.6 2.4.2 2.2.8 2.2.8-.8-2 0-2 2.6-1.1 2.6-1.1v-2.9l1-1.6s1-1 1-1.4v-1.4s-1.1-1.9 0-1.8c1.1.2 2.2.8 2.2.8v-1.9l1.6-1.3h1.4l-.6-5.6 3-3.4v-2.7l1-1.3v-2.2l1.8-1.6 2.2-2.9 6.5-12.8-1.1 5.3 1.4-.6.5-1.5v-7.5z"/><path fill="#574036" d="M159.9 126.7l3.1-6.6s3.1-.7 4.7-1.7c.1-.1.2-.1.3-.2.5-.6 1.1-1.7 1.6-3 .9-2.3 1.7-5 1.7-5l1.3-.7 1.2-.6 2.9-5.6 1.1-2.2-.7-5.6v-9c-.3 1.2-.6 2.4-.9 3.5-1.4 5.2-2.7 9.3-2.7 9.3-9.8 14.4-13.6 27.4-13.6 27.4z"/><path fill="#303942" d="M139.5 195.1l-1.3-13.4v-3.8l6.4-5.2h-8.3v4.2c0 2.9-8.1-1.3-8.1-1.3v32.5l14.5-7.9-.3-2.9c1.1-.6 2.2-1.4 3.1-2.2l2.3-11.4-3.2 2.1c-.7 5.1-5.1 9.3-5.1 9.3z"/><path fill="#7F848D" d="M177.1 215.2l.6 8.3h2.2l.9-13.5-.6.1zm-.4-11.2l4.5.2v-.6l.1-1.2c-5.5-1.5-9.8-2.7-10.9-2.8l-3.8 3.7 1.4 9.3 2.2.2 6.5-8.8zm-5.4-20.4l-3.1-1.9h3v-4.2l-2.3-.7-.7-.2-1.3-.4-.9 5.5h1.6v5.2l2.6 3.5-.1 3.4c1.9 0 5.4.4 11.6 2.4l.4-5.8-10.8-6.8z"/><path fill="#3C454F" d="M207.9 181.7c-9.6 4.8-14 13.2-15.9 18.4 2.1.8 4.3 1.4 6.5 2 1.8-4.2 9.6-18.6 29.2-18.6 5.7 0 10.2 1.5 13.8 3.7.5-1 1.1-2.1 1.6-3.1-4.5-3.5-10.6-6-19-6-6.5 0-11.9 1.4-16.2 3.6z"/><path fill="#3C454F" d="M167.7 187.4v-5.7h-1.6l.9-5.5.4-2.2v-.1l.3-2.1H161l-2.6 8.5h-2.6v4.9l2.6 1.9-2.6 14-2.6 1.3v5.7l2.6 1.7s-.9 6.3-1.7 11c-.4 2.6-.8 4.7-.9 5v8.9l12.4-3.2.2-.6 4-3.3 7.2-12.3 3-5.2.6-.1 17.9-1.9s.2-.3.5-.8c-3.3-.8-6.7-1.8-9.9-2.7l-8-.4-4.5-.2-6.6 8.7-11 14.6.8-9.1.3-4h-.3l2.2-16.3.9-.6 1.6-10h3.2v.1z"/><path fill="#171E26" d="M198.5 202.1c3.9.9 7.9 1.4 11.9 1.6.8-3.4 2.8-7.9 7.8-9.9 1.6-.6 3.4-1 5.7-1 5.7 0 9.2 2.4 11.3 5.3 2.3-3.5 4.4-7.1 6.4-10.8-3.7-2.2-8.2-3.7-13.8-3.7-19.7-.1-27.5 14.3-29.3 18.5z"/><path fill="#303841" d="M210.4 203.7c-4-.2-8-.7-11.9-1.6-2.2-.5-4.4-1.2-6.5-2l-1.5-.6c-3.4-1.4-6.3-2.5-8.8-3.4-6.2-2.1-9.7-2.5-11.6-2.4-1.5 0-2 .4-2 .4l-5.2 3.3-.9.6-2.2 16.3h8.3l-.2-1.7-1.4-9.3 3.8-3.7c1.2.1 5.4 1.3 10.9 2.8 1.5.4 3.2.9 4.9 1.4 1 .3 2 .6 3 .8 3.3.9 6.7 1.8 9.9 2.7 3.3.8 6.4 1.6 9.2 2.2 5.4 1.2 11.8 1.2 17.8.9 2.1-2.5 4.1-5.1 6-7.8-1.8.3-3.8.5-5.9.7-4.7.4-10.1.7-15.7.4z"/><path fill="#F0E9EB" d="M210.7 220.2l-8.9-2.4-8 8.3-10.2-2.6-5.7 3.2-2.9-3.2-5 4.1-4 3.3-.2.6-3 9.6 1.6 4.5v5.3c20.6-6.1 39-17.2 53.9-31.9l-3.1-1.1-4.5 2.3zM157 248.1l-3.6 5.4c3.4-.7 6.7-1.5 10-2.4l-3.2-3H157z"/><path fill="#676C74" d="M158.9 162.1c-2.7 3.7-4.8 6.5-5.2 6.8-1.3 1.3-3.5 2.9-3.5 2.9l-2.4 11.9-2.3 11.4-6.4 31.6-6 29.3c1.7-.1 3.5-.2 5.2-.3l6.9-31.4 13.7-62.2z"/><path fill="#212831" d="M120 176.9v-4.2h-8.3l6.4 5.2v3.8l-1.3 13.4s-4.5-4.2-5.1-9.3l-3.2-2.1 2.3 11.4c.9.8 1.9 1.6 3.1 2.2l-.3 2.9 14.5 7.9v-32.5s-8.1 4.1-8.1 1.3z"/><path fill="#4F535A" d="M108.5 183.7l-2.4-11.9-.2-.3c-.4 0-.8 0-1-.1-3.1-1.6-6.5-8.7-7.4-10.8-.1-.2-.3-.7-.7-1.2l11.1 50.5 3.6-.9 1.4-1 .6.7-2.8-13.7-2.2-11.3z"/><path fill="#B6B3B6" d="M100.5 113.2c-.2 0-.4 0-.6.1-1 .4 0 0-.7-.1-.3 0-.4-.2-.4-.4-.1-.4.1-1.1.2-2.3.1-1.9-.1-1.1-.1-1.1s-.3-.2-.7-.5c-.3-.2-.5-.4-.8-.7-.4-.4-.8-.7-.9-.9-.4-.6-1.8-.7-1.8-.7h-1.2s-.5.7-1.1.7l-.8-.8-1.2-.9c-.3-.2-.5-.4-.9-.7-.2-.1-.3-.2-.4-.3-.2-.2-.2-.2-.2-.3.1-.1.3-.1.3-.5v-.8s-.8-.5-1.7-.6-1.1-.1-2.4-1.2c-.2-.1-.3-.2-.4-.3-.4-.4-.2-.5 0-.5h.3l-.1-1.7h-1.4l-.8.8c-.4.6 1 .2-.4.6l-1.4.5 2.2 1.4c.6.2 2.8.2 2.8.2v1.3s-1-.3-.8.3c.1.2.2.4.2.6v-.2c0-.5 0-.2 0 0v.2c.1 1.2 3.4 2.1 3.4 2.1l.8.2c3.5 2.1 2.7 1.6 3.5 2.1s1.3 1.4 1.3 1.4l.3 1.1 1.4-1s.8-1.9 1 .3l.2 2.2s1.8 1.4 2.4 1.6 2.1 0 2.1 0-.2-2.1-.2-2.6c0-.2-.3-.9-.5-1.5 0 .5-.1 1.1-.1 1.9.2 1.3.1 1-.4 1zm3.5-4.5c.3.3.6.6.7.8 0-.1 0-.1.1-.2.5-.8-1.6-1.2-.8-.6zm.7.8c0 .1-.1.3-.1.5.2-.1.2-.3.1-.5z"/><path fill="#B6B3B6" d="M111.6 106.6c-.4 0-1.1-.3-2-.3h-.7.2l-.2-.1c-.7-.1-1-.6-1.4-.6-.5 0-1.8-.1-2.2-.1-.4 0-.7.5-1.2.7s-1.2.1-2.8.5c-1.6.4-.3.6-.1 1 .3.4-.5 1.1-.2 1.8 0 .1.1.2.1.3.1 0 .2.1.4.3 1.3 1.3 1 1 1.6 2.1s1.6.5 1.6.5-.3-1.5-.2-2.5c-.2.1-.5.2-1.1.1-1.9-.2-1.4-1-1.4-1s-.6-.8.2-1.1c.8-.3.8-.8 1.9-.8h1.8c.5 0-.3 2.1.6 2.1 1 0 1-1.1 1-1.1 1.1.2 1.3 1.3 1.3 1.3s1-.2 2.2-.5c1.3-.3 1.6-1.1 3-.2s2.9 1.4 2.9 1.4 2.7 0 .8-1c-1.9-1-4-2.2-4-2.2l-1.6-.9c.1.2-.1.3-.5.3zm-7-12c.3.2.6.4.9.4l-1.5-1.8.3 1.2c.1 0 .2.1.3.2zm1.9.9c.4 0 .8.2.8.2l-.4 1.3-.4.5-.3.4h.1c.1 0 .2.1.4.1.1 0 .2 0 .3.1h.2c.2 0 .5.1.8.1.4 0 .6.1.7.2 0 0 .1 0 .1.1l.2.2c.1.1.2.2.4.3.8.6.6.4.7.8s0 .7 0 2v.1c0 .3 0 .5.1.6 0 .1.1.2.2.2 0 0 .1 0 .2.1.2.1.5.2.9.6.6.5.6.8.6 1.1.4.2.8.2.6-.5-.3-1.3.2-.6-.3-1.3-.5-.6 0 .5-.5-.6l-.5-1.1s2.2-2.2 1.6-2.2h-2.1s.2 0 .5-.8 1.8-2.1 1.8-2.1 1.6-.8.5-.9-1.6-1.5-2.7 0-1.9 2.1-1.9 2.1l-1.8-2.1h-1.7c.1 0 .2.1.3.1.2.2.4.4.6.4zm-22.3-3.7c.1.5.1.9.1 1.3v.9s-1.2-1.1-1.4 0c-.1 1.1-.1 1.3-.1 1.4v.1c.6-.2 1.3-.5 1.6-.6.1 0 .2-.1.2-.1.1 0 .3-.1.5-.1.7-.1 1.8-.2 2.4 0 .7.2 0 0 2.5.8s0 0 .8-.5.8-.8 1.3-1.2c.2-.2.4-.3.7-.4.1 0 .2-.1.2-.1l.6-.3c.1-.1.3-.1.4-.2 1.2-.6 0-.6 0-.6l.5-.7s.5 0 .9-.1c.2 0 .3-.1.4-.2.1 0 .1-.1.1-.1.1-.2.3-.4.4-.8.1-.2.1-.5.2-.9.1-.5.2-1 .3-1.4s.2-.7.3-1c0-.1.2-.4.4-.6.6-.7 1.8-1.7 1.8-1.7l1.6 2.6v4.8h.2c.2-.1.3-.2.6-.6.5-.8-.5-1 0-1.6s0-2.2 0-2.2.1-.2 0-1.1 0-1.6 0-1.6-1.8-1.1-1.3-1.7 1 1.2.5-.6c-.5-1.8-.1-1.6-.6-2.9s-.4-1.9 0-2.4 2.2-.6 1.2-1.3c-1-.6-.7-1.1-1.5-.6s-1-.2-1.3 1.6c-.3 1.8.5 2.2 0 3.7-.5 1.4-.1 2.5-.1 2.5-1.5.7-2.2 1.3-2.2 1.3l-.2 1.2s-.6.6-1.1.6-.2-1-.5 0 0 1.8 0 1.8l-.8 1.1s-.2 2.2-1.1 0c-1-2.2-1.9-3.4-1.9-3.4.6.9-1.1 1.1 0 2.4s1.4.5 1.3 1.9c-.2 1.4-5.6-6.5-4.6-4.9s2.4 7.8 1.8 7.8-1.9-.2-1.9-.2-.7-1.3-1.2-1.9l-.2-.5s-1.1-.2-1.8-1.6c-.6-1.4 1.1-2.2 0-2.2s-1.4-2.3-1.1-.1l.5 2.5c.2 1.1.5 1.9.6 2.7zm19 .5c0 .1-.1.1-.1.2h.3l-.2-.2zm0-70.3l1 .3 6.2 33.8-4.8-34.6 1-2.2.8-1.1s4 23.6 6.1 31.8c2.1 8.1 5.3 4.8 5.3 4.8l4.9-2.4s-3.7.6-5.3.6c-1.6 0-2.4-2.2-2.9-4.3s-3.7-17.6-3.7-17.6.6-1.9 1.6-2.9S115 26 115 26h1.9s-.2 1.8 0 3.8c.2 2.1 1.9 0 1.9 0s.2-1.8.2-2.4-.2-3.8-.2-4.9 1.8-2.4 1.8-2.4 1.7 1.4 2.8 3c1.1 1.6.9 4.6.9 4.6s.4 1.6.1 3.4c-.3 1.8 0 0-1.1 1.7s-1.3.4-2.2.9c-1 .5 0 .8 0 .8l2.4 1.9 1.4-1.9 1.6 5.1v-9.5l1.6.6v-4l-2.9-7.5-2.6-6.2h-6.9v6l-1.4 1.4-2.9.2-2.2-2.6-2.6-2.4-2.6.5-1.4.7-1.4 1.2v9.2l1.2-2.4.8-2.8zM83 119.1l.3.6-2.2-6.7-3-8.3s-.2-.9-.3-2v-.7c-.1-.8-.2-1.9-.1-2.2.1-1.2 0-.4.1-.4.2-.8.5-2.2.5-2.2l-.5-1.3-2.2-1.6c-.4-.1-.6-.3-.6-.5l-.4-.4h-2l1.2 5 .8 3.2 1.8 3.8 3.5 7.2 3.1 6.5zm14.5 16.1c-.9-1-3.6-3.9-6.4-7-1.1-1.2-2.1-2.3-3.1-3.3 4.2 4.7 9.8 11.1 10.4 12.6.8 2 2.5 8.9 3 10.9v.1c.1.3.1.5.1.5H114l1.7-1.7 1.4-3.8 1.4.2s.7 1 1.4 0 1.2-2.6 1.2-2.6l1.9-.2 1.2 3.4 1.7.7 2.2-1.4v-1.9l-2.7 1.7.5-1.4v-.8l-.8-.2c-.8-.2-1.1-.8-1.1-.8l-1.3-.6.8-1.4s-.8-.3-1.4-.6-.8-1.8-.8-2.2c0-.5 1-.6 1.9-.6 1 0 0 0 0-1.3s-1.1 0-1.1 0l-1.8-1.1s-.2-1-1.1-1.9c0 0-.6.3-.6.8s.5 1.3.5 2.6.8 1.8 1.6 4-.2.8-.5 1.9c-.3 1.1-1.8 1.6-1.8 1.6l-1.4 1.4-.7.7-.4.4-.4.4-.1.1c-.5.5-.3 2.1-1 2.1-.6 0 0-1 0-1.6s-.8-2.6-.8-2.6-.5 4.5-.6 5.6c-.2 1.1 0 0-.6.2s-1.1 0-2.2 0h-2.6l-4.9 1-1-2.6c-.2-.4-2.1-9-4.2-11.3zm-13.7-15c-.3-.3-.4-.5-.4-.5s.1.1.2.3l.2.2zm-4.5-63c.3 2.1.5 4.1.6 6 .3-1.6.6-3.1.8-4.5 0 0 1.1 18 .8 19.6v.1c.3-.8 1.4-4.8 1.4-4.8s1.1.2 1.6 0 0-1.1 0-1.1h-2.1l-.3-20.8s-.3-.6-.3-1.8c0-1.1-.8-1.8-.8-1.8l-.5-1 .8-1.1-1-.6c-1-.6-.6-.8-.6-1.3s.6-.5 1.6-1 0-1.6 0-3.4c0-1.8 2.4-11.8 2.4-11.8s2.1-1.9 5.1-3.8-.2-.8 0-1.3 2.6-.5 2.6-.5v1.8c0-.3.1-.7.1-1 .2-2.1.3-3.6.3-3.6s-4.3 1-5.5 1.7-3.1 3.1-3.1 3.1l-1.7 2.2s-.4 3-1 7.3c-.9 7.6-2 18.5-1.2 23.4zM93 41.8c1.1.8-.1 1.9 0 5.6.2 3.7-.2 1.6 0 4s0 0 1.4-.6-.8-4.9-.8-4.9v-6.1h-1s-.7.8-1.2.9c.2 1.1.7.5 1.6 1.1zm2.1-11.9v5.8c.6-2.4 1.1-1 2.7-1s.6 0 2.2.2 0 0 .5 1 0 .8 0 2.6-.2 1.1-.6 2.1.6 1.1.6 1.3 1.9-.2 2.6-.2c.6 0 .6-1.6.6-1.6s-2.1-.8-2.1-1.3.2-2.9-.3-4.6c-.5-1.7-.8-5.5-.8-5.9l-1.7.9-1.6.8-2.1-.1z"/><path fill="#574036" d="M80.7 58.7l.8 19.6c.3-1.5-.8-19.6-.8-19.6zm4.6 45l.2.6c0-.1 0-.3-.2-.6zm-1.7-14.6l.8 4c0-.3-.1-.8-.1-1.3-.2-.8-.5-1.6-.7-2.7zm-.7 10.2l-.4.6c1.4-.5 0 0 .4-.6zm1.5-5.4s-1.3-1.9-1.4 0c.2-1.1 1.4 0 1.4 0zm-.6 26.3l.1.3s1.8 1.9 4.1 4.4c1 1 2 2.2 3.1 3.3-3-3.3-6.2-6.8-7.3-8zm-6.1-20.4c0-.1.1-.2.1-.4-.1 0 0-.9-.1.4zm-2.1-5.5l-.6-.5c0 .2.2.4.6.5zm2.2 8.4c.1 1.1.3 2 .3 2l3 8.3-3.3-10.3z"/><path fill="#574036" d="M101.3 34.1c.5 1.8.3 4.2.3 4.6 0 .5 2.1 1.3 2.1 1.3s0 1.6-.6 1.6-2.6.3-2.6.2-1.1-.3-.6-1.3.6-.3.6-2.1.5-1.6 0-2.6 1.1-.8-.5-1-.6-.2-2.2-.2-2.1-1.4-2.7 1-1.4 2.7-1.4 3.8v6.3s2.2 4.3.8 4.9c-1.4.6-1.3 3-1.4.6-.2-2.4.2-.3 0-4s1-4.8 0-5.6c-.9-.6-1.4 0-1.5-1.2 0-.3-.1-.6-.1-1.1 0-2.6.2-1.8 0-4.2-.1-1.8-.1-7.9 0-11v-1.8s-2.4 0-2.6.5 3-.6 0 1.3-5.1 3.8-5.1 3.8-2.5 10.4-2.5 12.1c0 1.8 1 2.9 0 3.4s-1.6.5-1.6 1-.3.6.6 1.3l1 .6-.8 1.1.5 1s.8.6.8 1.8c0 1.1.3 1.8.3 1.8l.3 20.8h2.1s.5 1 0 1.1c-.5.2-1.6 0-1.6 0s-1.1 4-1.4 4.8l1.6 8c-.3-2.2 0 .1 1.1.1s-.6.8 0 2.2c.6 1.4 1.8 1.6 1.8 1.6l.5.6c.5.6 1.2 1.9 1.2 1.9s1.2.2 1.9.2c.6 0-.8-6.2-1.8-7.8-1-1.6 4.5 6.4 4.6 4.9.2-1.4-.2-.6-1.3-1.9-1.1-1.3.6-1.5 0-2.4 0 0 1 1.1 1.9 3.4 1 2.2 1.1 0 1.1 0l.8-1.1s-.3-.8 0-1.8 0 0 .5 0 1.1-.6 1.1-.6l.2-1.2s.6-.6 2.2-1.3c0 0-.4-1 .1-2.5.5-1.4-.3-1.9 0-3.7.3-1.8.5-1.1 1.3-1.6s.5 0 1.5.6-.7.8-1.2 1.3c-.4.5-.5 1.1 0 2.4s.1 1.1.6 2.9 0 0-.5.6 1.3 1.7 1.3 1.7-.1.6 0 1.6 0 1.1 0 1.1.5 1.6 0 2.2.5.8 0 1.6c-.2.4-.4.5-.6.6l1.7.2c0-.1.1-.1.1-.2l.2.2.5.1.2.7 1.5 1.8h1.7l1.8 2.1s.8-.6 1.9-2.1 1.6-.1 2.7 0-.5.9-.5.9-1.4 1.3-1.8 2.1c-.3.8-.5.8-.5.8h2.1c.6 0-1.6 2.2-1.6 2.2l.5 1.1c.5 1.1 0 0 .5.6s0 0 .3 1.3c.2.7-.2.6-.6.5 0 .3-.1.7 0 1.3v.3l1.6.9s2.1 1.3 4 2.2c1.9 1-.8 1-.8 1s-1.4-.5-2.9-1.4-1.8-.2-3 .2c-1.3.3-2.2.5-2.2.5s-.2-1.1-1.3-1.3c0 0 0 1.1-1 1.1s-.2-2.1-.6-2.1h-1.8c-1.2 0-1.1.5-1.9.8s-.2 1.1-.2 1.1-.5.8 1.4 1c.6 0 .9 0 1.1-.1 0-.2.1-.3.1-.5-.1-.3-.4-.6-.7-.8-.8-.6 1.3-.2.8.6 0 .1-.1.1-.1.2.1.2.1.3-.1.5-.1 1 .2 2.5.2 2.5s-1 .6-1.6-.5-.3-.8-1.6-2.1c-.2-.2-.3-.3-.4-.3.1.3.1.5 0 .9.2.6.5 1.3.5 1.5 0 .5.2 2.6.2 2.6s-1.4.2-2.1 0c-.6-.2-2.4-1.6-2.4-1.6l-.2-2.2c-.2-2.2-1-.3-1-.3l-1.4 1-.3-1.1s-.5-1-1.3-1.4c-.8-.5 0 0-3.5-2.1l-.8-.2s13.4 22.4 14.5 30.6c1.1 8.1-.9 11.5-.9 11.5l4.9-1h2.6c1.1 0 1.6.2 2.2 0s.5 1 .6-.2c.2-1.1.6-5.6.6-5.6s.8 1.9.8 2.6c0 .6-.6 1.6 0 1.6s.5-1.6 1-2.1l.1-.1.4-.4.4-.4.7-.7 1.4-1.4s1.4-.5 1.8-1.6c.3-1.1 1.3.3.5-1.9s-1.6-2.7-1.6-4-.5-2.1-.5-2.6.6-.8.6-.8c1 1 1.1 1.9 1.1 1.9l1.8 1.1s1.1-1.3 1.1 0 1 1.3 0 1.3-1.9.2-1.9.6c0 .5.2 1.9.8 2.2.6.3 1.4.6 1.4.6l-.8 1.4 1.3.6s.3.6 1.1.8l.8.2v.8l-.5 1.4 2.7-1.7V30.6l-1.6-.6v9.5l-1.6-5.1-1.4 1.9-2.4-1.9s-1-.3 0-.8 1.1.8 2.2-.9.8.1 1.1-1.7c.3-1.8-.1-3.4-.1-3.4s.2-3-.9-4.6-2.8-3-2.8-3-1.8 1.3-1.8 2.4.2 4.3.2 4.9c0 .6-.2 2.4-.2 2.4s-1.8 2.1-1.9 0c-.2-2.1 0-3.8 0-3.8H115s-.6 1.3-1.6 2.2c-1 1-1.6 2.9-1.6 2.9s3.2 15.5 3.7 17.6 1.3 4.3 2.9 4.3 5.3-.6 5.3-.6l-4.9 2.4s-3.2 3.4-5.3-4.8c-2.1-8.1-6.1-31.8-6.1-31.8l-.8 1.1-1 2.2 4.8 34.6-6.2-33.8-1-.3-1 2.7L101 27l-.6 1.1c.1.6.4 4.4.9 6z"/><path fill="#402D24" d="M83.8 120.2c1.1 1.2 4.3 4.7 7.4 8 2.8 3.1 5.5 6 6.4 7 2.1 2.3 4 10.9 4 10.9l1 2.6s2-3.4.9-11.5C102.4 129 89 106.5 89 106.5s-3.3-1-3.4-2.1l-.2-.6c-.2-.6.8-.3.8-.3v-1.3s-2.2-.1-2.8-.2l-2.2-1.4 1.4-.5.4-.6.8-.8h-.9l-.9-2.9s.4-.2.9-.4v-.1c0-.1 0-.3.1-1.4.1-1.9 1.4 0 1.4 0V93l-.8-4-.5-2.5-1.6-8v-.1l-.8-19.6c-.2 1.4-.5 2.9-.8 4.5-1.1 5.6-2.4 12-3.4 17-1.1 5.2-1.9 8.9-1.9 8.9v4.3l.4.4.6.6 2.2 1.6.5 1.3s-.3 1.4-.5 2.2c0 .2-.1.3-.1.4-.1.3 0 1.4.1 2.2v.7l3.3 10.3 2.2 6.7c0-.2.2 0 .5.3z"/><path fill="#141C24" d="M101.1 87.4l-1.6-2.6s-1.1.9-1.8 1.7c-.2.2-.4.5-.4.6-.1.3-.1.6-.3 1s-.2.8-.3 1.4c-.1.4-.2.7-.2.9-.1.4-.2.5-.4.8l-.1.1c-.1.1-.3.1-.4.2-.4.1-.9.1-.9.1l-.5.7s1.2 0 0 .6c-.1.1-.3.1-.4.2-.3.1-.5.2-.6.3-.1 0-.2.1-.2.1-.3.1-.5.2-.7.4-.5.4-.5.7-1.3 1.2s1.7 1.3-.8.5-1.8-.6-2.5-.8c-.5-.2-1.7-.1-2.4 0-.2 0-.4.1-.5.1 0 0-.1 0-.2.1-.4.1-1.1.4-1.6.6-.5.2-.9.4-.9.4l.8 2.8h2.3l.1 1.7H85c-.2 0-.4.1 0 .5.1.1.2.2.4.3 1.3 1.1 1.6 1.1 2.4 1.2s1.7.6 1.7.6v.8c-.1.4-.3.4-.3.5-.1.1 0 .1.2.3.1.1.2.2.4.3.3.3.6.5.9.7l1.2.9.8.8c.6 0 1.1-.7 1.1-.7H95s1.4.1 1.8.7c.1.2.5.6.9.9.3.2.6.5.8.7.4.3.7.5.7.5s.2-.8.1 1.1c-.1 1.2-.2 1.9-.2 2.3 0 .2.2.4.4.4.7.1-.2.5.7.1.2-.1.4-.1.6-.1.5.1.6.3.6-.8 0-.8.1-1.4.1-1.9v-.9c0-.1-.1-.2-.1-.3-.4-.7.4-1.4.2-1.8-.3-.4-1.5-.6.1-1s2.3-.2 2.8-.5c.5-.2.8-.7 1.2-.7.4 0 1.7.1 2.2.1s.7.5 1.4.6c.2 0 .2.1.2.1h-.2.7c.8 0 1.5.2 2 .3.4 0 .6 0 .6-.4v-.3c-.1-.6 0-1 0-1.3s0-.6-.6-1.1c-.4-.4-.7-.5-.9-.6-.1 0-.1-.1-.2-.1-.1.6-.5 1-1.1 1s-1.1-.5-1.1-1.1.5-1.1 1.1-1.1c.3 0 .6.2.8.4v-.1c0-1.3.1-1.7 0-2-.1-.4.1-.2-.7-.8-.2-.1-.3-.3-.4-.3-.1-.1-.1-.2-.2-.2l-.1-.1c-.1-.1-.3-.1-.7-.2-.3 0-.6-.1-.8-.1.3.3.4.5.4.5-2.2-.9-12.4-2.5-12.4-2.5 1.6-1.4 3.8-.8 7.3-.4 1.9.2 3.2 1.1 4.1 1.8l.4-.5.4-1.3s-.5-.2-.8-.2-.4-.2-.7-.4c-.1 0-.2-.1-.3-.1-.3-.1-.7-.3-.9-.4-.2-.1-.3-.2-.3-.2l-.3-1.2-.2-.7-.5-.1h-.3l-1.7-.2h-.2c-.6-.5-.6-4.8-.6-4.8zm-9.6 13c-.5 0-.9-.4-.9-.9s.4-.9.9-.9.9.4.9.9-.4.9-.9.9zm2.7-4c.6 0 1.1.5 1.1 1.1s-.5 1.1-1.1 1.1-1.1-.5-1.1-1.1.5-1.1 1.1-1.1zm-.6 4.6c-.5 0-.9-.4-.9-.9s.4-.9.9-.9.9.4.9.9-.4.9-.9.9zm6.2 4.5c-4.4-.6-5.3-3.2-5.3-3.2s6.9 1.6 12.1 1.7c0-.1-2.4 2.1-6.8 1.5zm8.5-6.5c.6 0 1.1.5 1.1 1.1s-.5 1.1-1.1 1.1-1.1-.5-1.1-1.1.5-1.1 1.1-1.1zm-.6 3.3c0 .6-.5 1.1-1.1 1.1s-1.1-.5-1.1-1.1.5-1.1 1.1-1.1 1.1.5 1.1 1.1zm-2.6-3.9c.6 0 1.1.5 1.1 1.1s-.5 1.1-1.1 1.1-1.1-.5-1.1-1.1.5-1.1 1.1-1.1zm-.3 3.5c0 .6-.5 1.1-1.1 1.1s-1.1-.5-1.1-1.1.5-1.1 1.1-1.1 1.1.5 1.1 1.1zm-2.8-4c.6 0 1.1.5 1.1 1.1s-.5 1.1-1.1 1.1-1.1-.5-1.1-1.1.5-1.1 1.1-1.1zm0 3.6c0 .6-.5 1.1-1.1 1.1s-1.1-.5-1.1-1.1.5-1.1 1.1-1.1 1.1.5 1.1 1.1zm-2.7-4.2c.6 0 1.1.5 1.1 1.1s-.5 1.1-1.1 1.1-1.1-.5-1.1-1.1.5-1.1 1.1-1.1zm0 3.9c0 .6-.5 1.1-1.1 1.1s-1.1-.5-1.1-1.1.5-1.1 1.1-1.1 1.1.5 1.1 1.1zm-2.6-3.9c.6 0 1.1.5 1.1 1.1s-.5 1.1-1.1 1.1-1.1-.5-1.1-1.1.5-1.1 1.1-1.1zm-.9 2.8c.5 0 .9.4.9.9s-.4.9-.9.9-.9-.4-.9-.9.4-.9.9-.9z"/><path fill="#44779F" d="M99.8 105.5c4.4.6 6.8-1.6 6.8-1.6-5.1-.1-12.1-1.7-12.1-1.7s.8 2.7 5.3 3.3zm7.2-7.4c-.1 0-.2 0-.3-.1-.2 0-.3-.1-.4-.1h-.1l.3-.4c-.8-.7-2.2-1.6-4.1-1.8-3.4-.4-5.7-1-7.3.4 0 0 10.2 1.6 12.4 2.5 0 0-.1-.2-.5-.5.2 0 .1 0 0 0z"/><circle fill="#44779F" cx="91.5" cy="99.5" r=".9"/><circle fill="#44779F" cx="93.6" cy="100.1" r=".9"/><circle fill="#44779F" cx="95.8" cy="101" r=".9"/><circle fill="#44779F" cx="98.2" cy="101.2" r="1.1"/><circle fill="#44779F" cx="100.9" cy="101.5" r="1.1"/><circle fill="#44779F" cx="103.6" cy="101.9" r="1.1"/><circle fill="#44779F" cx="106.6" cy="102.3" r="1.1"/><path fill="#44779F" d="M110.3 102.5c0-.1 0-.3-.1-.6-.2-.2-.5-.4-.8-.4-.6 0-1.1.5-1.1 1.1s.5 1.1 1.1 1.1 1-.4 1.1-1c-.1 0-.2 0-.2-.2z"/><circle fill="#44779F" cx="108.3" cy="100.1" r="1.1"/><circle fill="#44779F" cx="105.1" cy="99.5" r="1.1"/><circle fill="#44779F" cx="102" cy="99" r="1.1"/><circle fill="#44779F" cx="99.3" cy="98.4" r="1.1"/><circle fill="#44779F" cx="96.7" cy="98.4" r="1.1"/><circle fill="#44779F" cx="94.2" cy="97.5" r="1.1"/><path fill="#B6B3B6" d="M128.1 149.9l-5 .1v2.8l-1 .7-2.8-1.2-1.2-2.3s-7.1 0-11.3 1v.8s.6 1.6 0 1.7c-.6.1-1.4 0-1.4 0l.6 2.4h.7l1.4-.8v-.9c0-.9 0 0 .9-.7s0 0 .6.4.8.4 1.2.3c.4-.1.6-.3.9-.7.2-.4.3-.4.4-.7.1-.2-1.7-.3-1.7-.3l-.6-1c-.6-1 .6-.1 1-.1s1.5-.4 1.5-.4 2.1.2 2.4 0c.3-.1 2.9 0 2.9 0s.5.6.7.7.8.8.8.8l.6.1s.5.9.6 1.2c.2.3 1 1.1 1.3 1.5.2.4 1 .4 1.2.4s.6-.9.6-1.3v-2s.4-1.1.7-1.3c.3-.2 1-.3 1.3 0 .2.3 1.3 0 1.3 0h1.4v-1.2zm-23.8 6.7l-.7-2.4.6-1.6-2.8-3.5v-.8c-.1.2-.8 1.3-1.1 0-.2-1.4-3.4-5.5-3.4-5.5s-.1-.5 0-.8c.1-.4-2.4-2.2-2.4-2.2v-2.3h-1.1c.1.1.1.2.1.2H93v1.5c0 .5.2.4.9 1 .6.6 0 .4 0 .4s.6.6.8 1c.2.5.7.6.7 1 0 .5-.2 1-.6 1.9-.3.9 0 0 .9 1.1s0 0 .2 0 .4-.8.4-.8l.6-.3.6 1.1s1.1 1.4 1.3 1.8c.2.3.6.7 1.3 1.8.6 1.1.6.6.6.6s.2.3.5 1.2.4.8.8 1.9c.4 1.1.6 1 .7 1.6.2.6 0 .6 0 .6l.5.7v.8l1.3 1.8s.6.3.7.6c.2.3 0 .9 0 1.4s.9.6 1.1.7.1-.9.1-.9l-.5-2.2s-.2-.9 0-1.2c.2-.2.1-.5.1-.8l-.5 1.2-1.2-.6z"/><path fill="#274773" d="M83.9 137.4s0 .1 0 0c.3.5 1.4 2.3 2.8 4.8.8 1.3 1.7 2.8 2.6 4.4 1.6 2.6 3.2 5.5 4.6 7.9.9 1.5 1.6 2.8 2.2 3.9.2.4.4.7.6 1 .3.6.6 1 .7 1.2 1 2.1 4.3 9.2 7.4 10.8.3 0 .6 0 1 .1h.4c7.5-6.6 21.8-4.9 21.8-4.9v-15.3h-1.4s-1 .3-1.3 0c-.2-.3-1-.2-1.3 0s-.7 1.3-.7 1.3v2c0 .4-.4 1.3-.6 1.3s-1 0-1.2-.4-1.1-1.2-1.3-1.5c-.2-.3-.6-1.2-.6-1.2l-.6-.1-.8-.8-.7-.7s-2.6-.1-2.9 0-2.4 0-2.4 0-1.1.4-1.5.4-1.6-.9-1 .1l.6 1s1.8.1 1.7.3c-.1.2-.2.3-.4.7-.2.4-.5.6-.9.7-.4.1-.6.1-1.2-.3s.3-1.1-.6-.4c-.9.7-.9-.2-.9.7v.9l-1.4.8h-.9s0 .1.1.2c0 .2.1.6-.1.8-.2.3 0 1.2 0 1.2l.5 2.2s.2 1-.1.9-1.1-.2-1.1-.7.2-1 0-1.4c-.2-.3-.7-.6-.7-.6l-1.3-1.8v-.8l-.5-.7s.2 0 0-.6-.3-.5-.7-1.6c-.4-1.1-.5-1-.8-1.9s-.5-1.2-.5-1.2 0 .6-.6-.6c-.6-1.1-1.1-1.5-1.3-1.8-.2-.3-1.3-1.8-1.3-1.8l-.6-1.1-.6.3s-.2.8-.4.8.6 1.1-.2 0c-.9-1.1-1.2-.2-.9-1.1.3-.9.6-1.4.6-1.9s-.5-.6-.7-1c-.2-.5-.8-1-.8-1s.6.2 0-.4c-.6-.6-.9-.5-.9-1V138h.6s0-.1-.1-.2c-.6-1.1-3.7-7-3.7-7.3s-1.1-3-1.1-3l-4.4-4.7-.7-1.9-.6-1.5-.2-.6-2.9-5.9-.4-.7.1.7 1.3 7.7 3.2 16.8z"/><path fill="#2E5284" d="M176.7 114.1l1.1-5.3-6.5 12.8-2.2 2.9-1.8 1.6v2.2l-1 1.3v2.7l-3 3.4.6 5.6h-1.4l-1.6 1.3v1.9s-1.1-.6-2.2-.8c-1.1-.2 0 1.8 0 1.8v1.4c0 .5-1 1.4-1 1.4l-1 1.6v2.9s-1.8 1.1-2.6 1.1 0 2 0 2-1.8 0-2.2-.8-1 0-2.4-.2-.8-1.1-.8-1.1l-1.6-.6v3.9l-.6-4.7-2.4-.2-1.1.6-.2.1v3.5L140 158l-1.4 5.4v-5.1l-1.9-3.2-1-2.9-2.4-1.4-1.9.6-1.3-.6h-1.9v15.8s14.6-1.8 22 5.1c0 0 2.2-1.6 3.5-2.9.4-.4 2.5-3.1 5.2-6.8.3-.4.7-.9 1-1.3.7-.9 1.4-1.9 2.2-2.9l4.8-6.6c2.5-3.5 4.9-6.7 6.4-8.8 1.2-1.7 1.9-2.7 1.9-2.7l.2-3.2.1-1 1.9-2.1 1.8-20.4-1.2.5-1.3.6z"/><path fill="#1E3A62" d="M128.1 166.7v5.1h22c-7.4-6.9-22-5.1-22-5.1z"/><path fill="#112A4E" d="M128.1 171.8l.1-3v-2.1s-14.3-1.7-21.8 4.9c-.1.1-.2.2-.3.2h22z"/><path fill="#A2A0A3" d="M121.4 245.7l.7-3.8s-.2-4.1-1-5.7c-.7-1.7-3.6-8.6-3.6-8.6l2.4.2.8.1-1.9-3.4h1.9l-2.4-6s-.5-1.4-.5-2.2v-2.6l-4.2-4.8-.6-.7-1.4 1-3.6.9-1.4.3-.3-.1-2.4-1.1s-.1 3.1-.2 5.2v1.8c0 .4-.5 1.5-1.4 2.4-.6.7-1.5 1.4-2.5 1.7-2.4.8-1.2-.1-2.2 0s-1 1.3-2.9 3.2 0 0-1.4-1v2.6c0 .9-1.4 0-1.4 0h-4.3s-.3.5-.8 1.2c-1 1.4-2.7 3.8-3.5 4.8-1.2 1.4-1 1.2-1.9 2.4-1 1.2-.7 2.4-2.4 4.8-.5.8-2.6 3-5.1 5.7 15.7 7.3 33.1 11.6 51.4 12 .2-3.3.3-5.7.3-5.7l-4.2-4.6zm-22.1-1.9l-13.7-6.7 1.9-4.1 13.7 6.7-1.9 4.1z"/><path fill="#121921" d="M85.6 237.1l13.7 6.7 1.9-4.1-13.7-6.7z"/></svg>