<svg xmlns="http://www.w3.org/2000/svg" width="256" height="256"><circle fill="#B1B3B5" cx="128" cy="128" r="128"/><path fill="#C7C8C8" d="M229.6 171.3s1.1 12.3.3 34.1c5.2-6.8 9.7-14.1 13.4-21.9-4.6-6.2-13.7-12.2-13.7-12.2z"/><path fill="#092D4C" d="M229.6 171.3s-13.6-2.8-21.8-7.5c-6.4-3.6-20.3-8.7-26.4-10.8 2.8 5.1 5.8 11.6 8.8 19.6 3 7.8 8.3 16.1 5.3 23.2-.1.3-.2.6-.4.8-1.4 2.8-4.2 5.4-9.1 7.7v-1.5s1.4-10-.3-19.9c-1.1.1-2 .3-2.6.5 0 0-3.4 11.7-5.4 13-.3.2-.8.5-1.4.7-1.1 5.8-3.4 17.1-4.7 21.1-1.8 5.4-7.2 28.5-15.9 34.8 30.1-6.6 56.1-23.8 74.2-47.5.8-21.9-.3-34.2-.3-34.2z"/><path fill="#9D9FA0" d="M170.2 143.5c.4 4.8 1.7 11.2 5.4 14.9.6-5.7-.5-11.2-5.4-14.9z"/><path fill="#C08C76" d="M155 167.1c0-.1-.1-.2-.1-.2-1.1 1.2-2.3 2.2-3.5 3.2-.4.7-.6 1.3-.6 1.3s-.2-.3-.5-.5c-.4.3-.9.6-1.3.9-1 1.5-4.3 3.9-4.3 3.9s-.2-.8-.6-1.3c-.4.2-.9.4-1.3.5-1.1 2.1-3.7 4.6-3.7 4.6l-.1-2.2c-.8 1.8-6.9 3.2-6.9 3.2l1.1-2.7-3.9 2.7v-2.7l-.9 1.6v60c.1-.3.3-.6.4-.9 2-4.5 6.4-14.2 8.9-18.3 3.4-5.4 13.4-19.4 22.1-25.2 4.6-3.1 7-6.1 8.3-8.3.1-2.6.3-5.2 1-7.5 1.3-4.4 5.5-12.8 6.4-20.8-3.7-3.7-5-10.1-5.4-14.9-.4-.3-.9-.6-1.3-.9-3.2 8.2-7.6 17.3-13.3 23.6-.2.7-.4 1.1-.5.9z"/><path fill="#00516D" d="M142.7 255.2c.8-.1 1.5-.2 2.3-.3l.1-.1-2.4.4zm8.5-32.8c3.3-5.4 11.2-13.8 13.2-16.1 1.1-1.3 3.3-4.3 5.1-6.9-2.4 2.8-5.6 6.1-8.1 7.3-4.4 2.1-20.3 15.5-33.1 33.4V256c3.2 0 6.3-.1 9.5-.4 1.2-3.3 10.3-28.2 13.4-33.2zm-22.9 17c.1-.3.3-.6.4-1-.2.3-.3.6-.4.9v.1z"/><path fill="#056F92" d="M171.6 218.2c1.3-4 3.6-15.3 4.7-21.1-2.1.9-5.4 1.7-6.7 2l-.2.2c-1.8 2.6-4.1 5.6-5.1 6.9-2 2.4-9.9 10.7-13.2 16.1-3.1 5.1-12.2 30-13.5 33.3 1.7-.1 3.3-.3 4.9-.5l2.4-.4 10.5-1.7h.1c9-6.3 14.3-29.4 16.1-34.8z"/><path fill="#C08C76" d="M175.5 106.6c-.2 5.5-.5 12.5-1.4 18.4 6.2 1.7 10-5.9 10.7-10.9.8-5.3 3.4-18.2 4.2-23.2.8-5 .4-9.6-3.2-10.3-2.9-.6-7.7 4.2-9.4 6-.4 5.1-.8 10.4-.8 15.6 0 1.5 0 3-.1 4.4z"/><path fill="#D7A990" d="M140.7 56.8c3.2-.9 5.9-.9 8.1-.5-1.4-1.5-3-3.6-2.9-5 .3-2.6-2-5.7-3.1-5.7s-5.5 2.1-5.5 2.1-4.2-.2-9.1-2.7v14.4c1.7-.3 6.4-.8 12.5-2.6zm-12.4 89.8c1.6-.3 6.1-1 9.9-1.9 1.9-.9 3.2-1.6 3.2-1.6.3 0 .4.3.4.7 1.2-.4 2.1-.8 2.5-1.1 1.7-1.8 4-6.9 4.5-9.1.5-2.2-5.9-4.5-7.7-4.6-1.6-.1-10.5 0-12.9 0v17.6z"/><path fill="#D7A990" d="M175.5 56v-.3c-.1-.4-.2-.8-.3-1.1-.8-1.7-2.8-2.5-3.4-1.6-.7 1.1-3.7 1.9-4.1 1.6-.4-.3-3.3-6.1-3.7-6.9-.4-.8-5.6-2.2-5.6-2.2s.3 7.5 5.1 9.7c4.8 2.2 5.9 5 5.9 5s-4.4-2.4-7.3-3.2c-2.9-.8-4.4-3.8-5-5.7s-5.3-6.4-5.3-6.4-.3 4.5.5 6.2l-2.1-4.3s-1 6.2 0 9.8c2.3.6 3.7 1.4 3.7 1.4-1.2-.5-2.4-.8-3.5-.9.1.4.3.8.5 1.1 0 0-.6-.5-1.3-1.2-2.4-.2-4.1.1-4.1.1-7.8 3-15 3.2-17 3.2v3.2c11.2-.1 12.3-4 19.6-4.1 5.2 0 8.8 5 8.8 5-4.9-4-9.4-4.4-13.1-2.3-3.7 2-12.8 3.2-15.2 3.5v56.8c2.2.2 9.7.7 11.7-1.3 1.3-1.4 4.1.8 6.4 3 5.3 1.4 6.3 4.3 6.3 4.3l-3-1.1s3.1 2 4.6 3.4c2.4-1.3 8.9-9.2 12.6-14.4 3.9-5.4 8.2-15.3 8.8-19.1 0 0 .1 4.1-.1 9.8.1-1.4.1-2.9.1-4.4 0-5.2.4-10.6.8-15.6.3-4.1.7-8 1-11.5-1.9 2.8-5.6 8.6-5.6 8.6l1.4-6s-1.4-3.1-3-4.9c-1.6-1.8-2-4.7 0-3.9 2 .7 4.5 6.9 4.5 6.9l1.7-1.9c-1.4-9.8-4.4-8.9-3.2-9.6 1.2-.7 2.6 1 3.2 2.4.4 1.1.9 5.3 1.1 7.2.2-2.7.2-5.1.1-7.2-.1-1.6-.4-3.5-.8-5.4-.1.7-.2 1.1-.2 1.1s-1.4-4.1-1.5-6.8zm-17.8 17.6c-1.8-1-7.4 1.4-10.2 3.1s-13 2.2-13 2.2c-.4-5.5 3.4-4.3 3.4-4.3l-.6-1.8s2.2.6 5.2 0 6.2-5.9 10.6-6.1 7.4 5.7 7.4 5.7h-1l1.8 4.8s-1.8-2.6-3.6-3.6z"/><path fill="#595E5F" d="M160.5 72.4s-3-6-7.4-5.7-7.6 5.5-10.6 6.1-5.2 0-5.2 0l.6 1.8s-3.8-1.2-3.4 4.3c0 0 10.2-.5 13-2.2s8.4-4.1 10.2-3.1c1.8 1 3.6 3.6 3.6 3.6l-1.8-4.8h1z"/><path fill="#A0A6A7" d="M142.7 174.8c.4-.1.8-.3 1.3-.5-.3-.4-.8-.5-1.3.5zm12.2-7.9c-.4-.6-.9-1.4-1.5-.7-.4.5-1.4 2.5-2.1 3.9 1.3-1 2.4-2 3.6-3.2zm-5.8 4.4c-.1.1-.1.2-.2.4.5-.3.9-.6 1.3-.9-.3-.2-.7-.3-1.1.5zm-8-42.5c1.9.2 8.3 2.4 7.7 4.6-.5 2.2-2.8 7.3-4.5 9.1-.4.4-1.3.7-2.5 1.1.1 1.9-2.6 7.5-2.6 7.5l2-.3-2 5.9s1.9-1.3 2.8-2.7 4.5-8.1 4.5-8.1l-.6 3 1.5-1.8s2.3-12.7 2-14.9c-.3-2.2-3.2-8.4-3.2-8.4-2.3-2.2-5.1-4.4-6.4-3-1.9 2-9.5 1.5-11.7 1.3v6.6c2.6.1 11.4 0 13 .1z"/><path fill="#A0A6A7" d="M128.3 146.7v.6c3.6-.1 7.4-1.5 9.9-2.7-3.8.9-8.3 1.7-9.9 2.1zm47.3-49.8c-.5 3.8-4.9 13.7-8.8 19.1-3.7 5.2-10.2 13.1-12.6 14.4l.7.7c.9 1.3 5.6 4.9 5.6 4.9l-2 .5c2.1 1.6 4.4 11 4.4 11l-2.1-2.2c.4 1.3.7 6.9.7 6.9s-1.6-3.8-2.4-1.6c-.8 2.2-2.8 11.8-2.8 11.8s-.4 2.4-.8 3.8c5.7-6.3 10.1-15.4 13.3-23.6l2-5.4c.7-1.9 1.2-3.6 1.7-5.2.6-2 1.1-4.4 1.5-7 .9-5.9 1.3-12.8 1.4-18.4.3-5.6.2-9.7.2-9.7z"/><path fill="#6C7172" d="M149.5 132.2c.3 2.2-2 14.9-2 14.9l-1.5 1.8.6-3s-3.6 6.7-4.5 8.1-2.8 2.7-2.8 2.7l2-5.9-2 .3s2.7-5.6 2.6-7.5c0-.4-.1-.6-.4-.7 0 0-1.3.8-3.2 1.6-2.6 1.2-6.3 2.5-9.9 2.7v31.9l.9-1.6v2.7l3.9-2.7-1.1 2.7s6.1-1.4 6.9-3.2l.1 2.2s2.6-2.5 3.7-4.6v-.1c.5-1 .9-.9 1.3-.5s.6 1.3.6 1.3 3.3-2.3 4.3-3.9c.1-.1.2-.3.2-.4.4-.8.8-.8 1.1-.5.3.2.5.5.5.5s.3-.5.6-1.3c.6-1.4 1.6-3.4 2.1-3.9.6-.7 1.1.1 1.5.7 0 .1.1.2.1.2.1.2.3-.2.5-.9.4-1.4.8-3.8.8-3.8s2-9.6 2.8-11.8c.8-2.2 2.4 1.6 2.4 1.6s-.3-5.6-.7-6.9l2.1 2.2s-2.3-9.4-4.4-11l2-.5s-4.7-3.6-5.6-4.9c-.2-.2-.4-.5-.7-.7-1.5-1.4-4.6-3.4-4.6-3.4l3 1.1s-1-2.8-6.3-4.3c-.1.4 2.8 6.6 3.1 8.8z"/><path fill="#B9937E" d="M143.5 61.9c3.7-2 8.2-1.7 13.1 2.3 0 0-3.5-5-8.8-5-7.3 0-8.3 3.9-19.6 4.1v2.1c2.5-.3 11.6-1.4 15.3-3.5zm6.6-5.4c0 .2.1.3.1.5 1.1.2 2.3.5 3.5.9 0 0-1.3-.8-3.6-1.4zm-.7.4l-.6-.6c-2.2-.4-4.9-.4-8.1.5-6.1 1.8-10.8 2.3-12.4 2.5v.9c2 0 9.3-.2 17-3.2 0 0 1.7-.4 4.1-.1z"/><path fill="#39515E" d="M173.2 64.3c-1.2.7 1.8-.2 3.2 9.6l-1.7 1.9s-2.5-6.2-4.5-6.9c-2-.7-1.6 2.1 0 3.9 1.6 1.8 3 4.9 3 4.9l-1.4 6s3.7-5.8 5.6-8.6c.1-.1.1-.2.2-.3 0 0 0-.4-.1-1-.2-1.9-.7-6.1-1.1-7.2-.6-1.3-2-3-3.2-2.3z"/><path fill="#595E5F" d="M127.7 8.4h.3-.3zM181 64.8s-.1-.3-.1-.7c-.1.4.1.7.1.7zm3.1-26c.7.2 1.4.3 2 .3l-2-.3zm-55.8 5.7v.3c4.9 2.6 9.1 2.7 9.1 2.7s4.4-2.1 5.5-2.1 3.3 3.2 3.1 5.7c-.2 1.5 1.5 3.6 2.9 5l.6.6c.7.7 1.3 1.2 1.3 1.2-.2-.3-.4-.7-.5-1.1-.1-.2-.1-.3-.1-.5-.9-3.5 0-9.8 0-9.8l2.1 4.3c-.8-1.8-.5-6.2-.5-6.2s4.7 4.5 5.3 6.4 2.1 4.9 5 5.7c2.9.8 7.3 3.2 7.3 3.2s-1.1-2.7-5.9-5c-4.8-2.2-5.1-9.7-5.1-9.7s5.2 1.4 5.6 2.2c.4.8 3.3 6.5 3.7 6.9.4.3 3.5-.5 4.1-1.6.5-.9 2.5-.1 3.4 1.6.2.3.3.7.3 1.1v.3c.1 2.7 1.2 6.4 1.2 6.4s.1-.4.2-1.1c.4-2.5 1.3-8.5 1.6-8.5.4 0 1.9 3.8 1.7 5.3-.1 1.1.5 4.5.7 6 0-.4.2-.9.7-1.7 1.2-1.6-.3-8.3.3-9.9s-2-8.6-3.1-10.4c-1.1-1.8.8-4 .8-4l4.5.7c-2.7-.8-5.4-2.9-5.4-2.9s4.5.5 3.5 0c-1.1-.5-4.4-4.2-4.4-4.2h4.4s-3.9-1.6-5.1-2.4c-1.2-.8-4.5-3.4-4.5-4.6s4.5 0 4.5 0c-1.6-3.8-2.5-3.8-2.5-3.8l2.5-1c-.8-.7-2.4-.7-3.7-.5l.6-.1c-2.9.6-5.6-1.9-5.6-1.9h3.6c-2.4 0-3.7-3.4-5.7-3.8-2-.5-6 0-6 0s1.9-2.1 0-1.4-4.7 0-4.7 0 .8-2.1-1.6-1.1-1.9-1.6-7.9-2.1c-1.1-.1-1.9-.1-2.4-.1l1.4-2.3c-2.5.2-6.1 3.7-8.4 3-1.9-.5-6.6-1-8.3-1.1v36.3z"/><path fill="#A5A4A4" d="M169.1 199.3s-1.2-6.2-1-12.6c-1.3 2.2-3.7 5.2-8.3 8.3-8.6 5.8-18.7 19.8-22.1 25.2-2.6 4.1-7 13.8-8.9 18.3-.2.4-.3.7-.4 1v.5c12.8-17.9 28.7-31.2 33.1-33.4 2.5-1.2 5.7-4.5 8.1-7.3l.2-.2c-.5.1-.7.2-.7.2z"/><path fill="#6E6F71" d="M195.5 195.9c-.1.3-.2.5-.4.8.1-.2.3-.5.4-.8zm-.6-5.5c-1-6.9-5.8-7.7-9.1-7.4 1.7 9.9.3 19.9.3 19.9s10-3.4 8.8-12.5z"/><path fill="#C7C8C8" d="M168.8 142.6c.5.3.9.6 1.3.9 5 3.7 6 9.2 5.4 14.9-.9 8-5.1 16.4-6.4 20.8-.7 2.2-1 4.9-1 7.5-.2 6.4 1 12.6 1 12.6s.2 0 .5-.1c1.3-.3 4.5-1.1 6.7-2 .6-.2 1.1-.5 1.4-.7 2-1.3 5.4-13 5.4-13 .6-.2 1.5-.4 2.6-.5 3.4-.3 8.2.5 9.1 7.4 1.3 9.1-8.8 12.5-8.8 12.5v1.5c4.8-2.3 7.6-4.9 9.1-7.7.1-.3.3-.5.4-.8 3-7.1-2.3-15.4-5.3-23.2-3-8-6.1-14.5-8.8-19.6-5.9-11.1-10.5-15.9-10.5-15.9l-2.1 5.4z"/><path fill="gray" d="M26.4 171.3s-9.2 5.9-13.7 12.3c3.7 7.8 8.3 15.1 13.4 21.9-.8-21.9.3-34.2.3-34.2z"/><path fill="#001A36" d="M84.4 218.2c-1.3-4-3.6-15.3-4.7-21.1-.6-.2-1.1-.5-1.4-.7-2-1.3-5.4-13-5.4-13-.6-.2-1.5-.4-2.6-.5-1.7 9.9-.3 19.9-.3 19.9v1.5c-4.8-2.3-7.6-4.9-9.1-7.7-.1-.2-.3-.5-.4-.8-3-7.1 2.3-15.4 5.3-23.2 3-8 6.1-14.5 8.8-19.6-6.1 2.1-20 7.1-26.4 10.8-8.3 4.7-21.8 7.5-21.8 7.5s-1.1 12.3-.3 34.1c18 23.6 44.1 40.8 74.1 47.5-8.8-6.2-14-29.3-15.8-34.7z"/><path fill="#737476" d="M80.4 158.4c3.7-3.7 5-10.1 5.4-14.9-4.9 3.7-6 9.2-5.4 14.9z"/><path fill="#B17D6B" d="M128.3 239.3v-58.9l-1.5-2.7v2.7l-3.9-2.7 1.1 2.7s-6.1-1.4-6.9-3.2l-.1 2.2s-2.6-2.5-3.7-4.6c-.4-.2-.9-.3-1.3-.5-.4.4-.6 1.3-.6 1.3s-3.3-2.3-4.3-3.9c-.5-.3-.9-.6-1.3-.9-.3.2-.5.5-.5.5s-.3-.5-.6-1.3c-1.2-.9-2.4-2-3.5-3.2 0 .1-.1.2-.1.2-.1.2-.3-.2-.5-.9-5.7-6.3-10.1-15.4-13.3-23.6-.5.3-.9.6-1.3.9-.4 4.8-1.7 11.2-5.4 14.9.9 8 5.1 16.4 6.4 20.8.7 2.2 1 4.9 1 7.5 1.3 2.2 3.7 5.2 8.3 8.3 8.6 5.8 18.7 19.8 22.1 25.2 2.6 4.1 7 13.8 8.9 18.3.5 1 .9 1.8 1 2.4v-1.5z"/><path fill="#003C54" d="M94.6 206.6c-2.5-1.2-5.7-4.5-8.1-7.3 1.8 2.6 4.1 5.6 5.1 6.9 2 2.4 9.9 10.7 13.2 16.1 2.7 4.4 10.6 25.7 13.4 33.3 3.2.2 6.5.4 9.8.4h.3v-15.2c-12.9-18.3-29.2-32-33.7-34.2z"/><path fill="#003C54" d="M127.3 238.4c.6 1.5 1 2.4 1 2.4-.1-.6-.5-1.4-1-2.4z"/><path fill="#00516D" d="M104.8 222.4c-3.3-5.4-11.2-13.8-13.2-16.1-1.1-1.3-3.3-4.3-5.1-6.9l-.2-.2c-1.3-.3-4.5-1.1-6.7-2 1.1 5.8 3.4 17.1 4.7 21.1 1.8 5.4 7.1 28.5 15.9 34.8 5.9 1.3 11.9 2.2 18 2.7-2.8-7.8-10.7-29-13.4-33.4z"/><path fill="#B17D6B" d="M80.4 102.3c0-5.2-.4-10.6-.8-15.6-1.7-1.8-6.5-6.6-9.4-6-3.6.7-4 5.3-3.2 10.3.8 5 3.4 18 4.2 23.2.8 5 4.6 12.5 10.7 10.9-.9-5.9-1.3-12.8-1.4-18.4-.1-1.5-.1-3-.1-4.4z"/><path fill="#C08C76" d="M115.3 56.8c7.6 2.3 13 2.5 13 2.5V44.5c-5.2 2.9-9.7 3-9.7 3s-4.4-2.1-5.5-2.1-3.3 3.2-3.1 5.7c.2 1.5-1.5 3.6-2.9 5 2.2-.2 5-.3 8.2.7zm13 89.9v-17.9s-11.6-.2-13.4 0c-1.9.2-8.3 2.4-7.7 4.6.5 2.2 2.8 7.3 4.5 9.1.4.4 1.3.7 2.5 1.1 0-.4.1-.6.4-.7 0 0 1.3.8 3.2 1.6 4.8 1.3 10.5 2.2 10.5 2.2z"/><path fill="#C08C76" d="M80.5 106.6c-.2-5.6-.1-9.8-.1-9.8.5 3.8 4.9 13.7 8.8 19.1 3.7 5.2 10.2 13.1 12.6 14.4 1.5-1.4 4.6-3.4 4.6-3.4l-3 1.1s1-2.8 6.3-4.3c2.3-2.2 5.1-4.4 6.4-3 2.3 2.4 12.2 1.3 12.2 1.3V65.5s-11.5-1.2-15.8-3.6c-3.7-2-8.2-1.7-13.1 2.3 0 0 3.5-5 8.8-5 7.4 0 8.4 4.1 20.2 4.1v-3.2s-8.5.3-17.6-3.2c0 0-1.7-.3-4.1-.1-.7.7-1.3 1.2-1.3 1.2.2-.3.4-.7.5-1.1-1.1.2-2.3.5-3.5.9 0 0 1.4-.9 3.7-1.4.9-3.5 0-9.8 0-9.8l-2.1 4.3c.8-1.8.5-6.2.5-6.2s-4.7 4.5-5.3 6.4-2.1 4.9-5 5.7c-2.9.8-7.3 3.2-7.3 3.2s1.1-2.7 5.9-5c4.8-2.2 5.1-9.7 5.1-9.7s-5.2 1.4-5.6 2.2c-.4.8-3.3 6.5-3.7 6.9-.4.3-3.5-.5-4.1-1.6-.5-.9-2.5-.1-3.4 1.6-.1.4-.2.8-.3 1.1v.3c-.1 2.7-1.2 6.4-1.2 6.4s-.1-.4-.2-1.1c-.4 2-.7 3.8-.8 5.4-.2 5.1.5 12.2 1.2 19.9.4 5.1.8 10.4.8 15.6-.2 1.7-.2 3.2-.1 4.6zm15-34.2s3-6 7.4-5.7 7.6 5.5 10.6 6.1 5.2 0 5.2 0l-.6 1.8s3.8-1.2 3.4 4.3c0 0-10.2-.5-13-2.2s-8.4-4.1-10.2-3.1c-1.8 1-3.6 3.6-3.6 3.6l1.8-4.8h-1z"/><path fill="#3C4041" d="M98.3 73.6c1.8-1 7.4 1.4 10.2 3.1s13 2.2 13 2.2c.4-5.5-3.4-4.3-3.4-4.3l.6-1.8s-2.2.6-5.2 0-6.2-5.9-10.6-6.1-7.4 5.7-7.4 5.7h1l-1.8 4.8s1.8-2.6 3.6-3.6z"/><path fill="#8B9091" d="M87.2 142.6c3.2 8.2 7.6 17.3 13.3 23.6-.4-1.4-.8-3.8-.8-3.8s-2-9.6-2.8-11.8c-.8-2.2-2.4 1.6-2.4 1.6s.3-5.6.7-6.9l-2.1 2.2s2.3-9.4 4.4-11l-2-.5s4.7-3.6 5.6-4.9c.2-.2.4-.5.7-.7-2.4-1.3-8.9-9.2-12.6-14.4-3.9-5.4-8.2-15.3-8.8-19.1 0 0-.1 4.1.1 9.8.2 5.5.5 12.5 1.4 18.4.4 2.6.9 5 1.5 7 .5 1.6 1.1 3.3 1.7 5.2l2.1 5.3zm18.5 28.2c.4.3.9.6 1.3.9-.1-.1-.2-.3-.2-.4-.3-.8-.7-.7-1.1-.5zm-4.6-3.9c1.1 1.2 2.3 2.2 3.5 3.2-.6-1.4-1.6-3.4-2.1-3.9-.5-.8-1 0-1.4.7zm10.9 7.4c.4.2.9.4 1.3.5v-.1c-.5-.9-1-.8-1.3-.4zm-5.5-42.1c-.3 2.2 2 14.9 2 14.9l1.5 1.8-.6-3s3.6 6.7 4.5 8.1 2.8 2.7 2.8 2.7l-2-5.9 2 .3s-2.7-5.6-2.6-7.5c-1.2-.4-2.1-.8-2.5-1.1-1.7-1.8-4-6.9-4.5-9.1-.5-2.2 5.9-4.5 7.7-4.6 1.9-.2 13.4 0 13.4 0v-6.7s-10 1.1-12.2-1.3c-1.3-1.4-4.1.8-6.4 3 .1 0-2.8 6.2-3.1 8.4z"/><path fill="#8B9091" d="M128.3 146.7s-5.7-.9-10.5-2c2.7 1.2 6.7 2.7 10.5 2.7v-.7z"/><path fill="#565B5C" d="M101 167.1c0-.1.1-.2.1-.2.4-.6.9-1.4 1.5-.7.4.5 1.4 2.5 2.1 3.9.4.7.6 1.3.6 1.3s.2-.3.5-.5.8-.3 1.1.5c.1.1.1.2.2.4 1 1.5 4.3 3.9 4.3 3.9s.2-.8.6-1.3c.3-.4.8-.5 1.3.5v.1c1.1 2.1 3.7 4.6 3.7 4.6l.1-2.2c.8 1.8 6.9 3.2 6.9 3.2l-1.1-2.7 3.9 2.7v-2.7l1.5 2.7v-33.3c-3.8 0-7.8-1.5-10.5-2.7-1.9-.9-3.2-1.6-3.2-1.6-.3 0-.4.3-.4.7-.1 1.9 2.6 7.5 2.6 7.5l-2-.3 2 5.9s-1.9-1.3-2.8-2.7-4.5-8.1-4.5-8.1l.6 3-1.5-1.8s-2.3-12.7-2-14.9c.3-2.2 3.2-8.4 3.2-8.4-5.3 1.4-6.3 4.3-6.3 4.3l3-1.1s-3.1 2-4.6 3.4l-.7.7c-.9 1.3-5.6 4.9-5.6 4.9l2 .5c-2.1 1.6-4.4 11-4.4 11l2.1-2.2c-.4 1.3-.7 6.9-.7 6.9s1.6-3.8 2.4-1.6c.8 2.2 2.8 11.8 2.8 11.8s.4 2.4.8 3.8c.1.6.3 1 .4.8z"/><path fill="#987A69" d="M128.3 63.3c-11.8 0-12.8-4-20.2-4.1-5.2 0-8.8 5-8.8 5 4.9-4 9.4-4.4 13.1-2.3 4.3 2.4 15.8 3.6 15.8 3.6v-2.2zm-26-5.4c1.2-.5 2.4-.8 3.5-.9.1-.2.1-.3.1-.5-2.3.6-3.6 1.4-3.6 1.4zm13-1.1c-3.2-.9-5.9-.9-8.1-.5l-.6.6c2.4-.2 4.1.1 4.1.1 9.2 3.5 17.6 3.2 17.6 3.2v-.9s-5.4-.3-13-2.5z"/><path fill="#3C4041" d="M71.9 38.8l-2 .3c.6 0 1.3-.1 2-.3zm3.2 25.3c-.1.4-.1.7-.1.7s.2-.3.1-.7zm5.4-8.1v-.3c.1-.4.2-.8.3-1.1.8-1.7 2.8-2.5 3.4-1.6.7 1.1 3.7 1.9 4.1 1.6.4-.3 3.3-6.1 3.7-6.9.4-.8 5.6-2.2 5.6-2.2s-.3 7.5-5.1 9.7c-4.8 2.2-5.9 5-5.9 5s4.4-2.4 7.3-3.2c2.9-.8 4.4-3.8 5-5.7s5.3-6.4 5.3-6.4.3 4.5-.5 6.2l2.1-4.3s1 6.2 0 9.8c0 .2-.1.3-.1.5-.1.4-.3.8-.5 1.1 0 0 .6-.5 1.3-1.2l.6-.6c1.4-1.5 3-3.6 2.9-5-.3-2.6 2-5.7 3.1-5.7s5.5 2.1 5.5 2.1 4.5-.2 9.7-3V8.4h-.6c-1.7.1-6.5.6-8.3 1.1-2.3.6-5.9-2.9-8.4-3l1.4 2.3c-.6 0-1.3 0-2.4.1-6 .5-5.5 3-7.9 2.1s-1.6 1.1-1.6 1.1-2.8.6-4.7 0 0 1.4 0 1.4-4-.5-6 0-3.3 3.8-5.7 3.8h3.6s-2.7 2.6-5.6 1.9l.6.1c-1.4-.2-3-.2-3.7.5l2.5 1s-.9 0-2.5 3.8c0 0 4.5-1.3 4.5 0s-3.3 3.8-4.5 4.6c-1.2.8-5.1 2.4-5.1 2.4h4.4s-3.3 3.7-4.4 4.2c-1.1.5 3.5 0 3.5 0s-2.8 2.1-5.4 2.9l4.5-.7s1.9 2.2.8 4c-1.1 1.8-3.6 8.8-3.1 10.4s-.9 8.3.3 9.9c.5.7.7 1.3.7 1.7.3-1.5.8-4.9.7-6-.1-1.4 1.3-5.3 1.7-5.3.3 0 1.2 5.9 1.6 8.5.1.7.2 1.1.2 1.1s1-3.6 1.1-6.3z"/><path fill="gray" d="M127.3 238.4c-2-4.5-6.4-14.2-8.9-18.3-3.4-5.4-13.4-19.4-22.1-25.2-4.6-3.1-7-6.1-8.3-8.3.2 6.4-1 12.6-1 12.6s-.2 0-.5-.1l.2.2c2.4 2.8 5.6 6.1 8.1 7.3 4.5 2.2 20.8 15.9 33.7 34.2-.2 0-.6-.9-1.2-2.4z"/><path fill="#535456" d="M60.9 196.7c-.1-.3-.3-.5-.4-.8.1.3.3.6.4.8zm.2-6.3c-1.3 9.1 8.8 12.5 8.8 12.5s-1.4-10 .3-19.9c-3.3-.3-8.1.5-9.1 7.4z"/><path fill="#A5A4A4" d="M60.5 195.9c.1.3.2.5.4.8 1.4 2.8 4.2 5.4 9.1 7.7v-1.5s-10.1-3.5-8.8-12.5c1-6.9 5.8-7.7 9.1-7.4 1.1.1 2 .3 2.6.5 0 0 3.4 11.7 5.4 13 .3.2.8.5 1.4.7 2.1.9 5.4 1.7 6.7 2 .3.1.5.1.5.1s1.2-6.2 1-12.6c-.1-2.6-.3-5.2-1-7.5-1.3-4.4-5.5-12.8-6.4-20.8-.6-5.7.4-11.2 5.4-14.9.4-.3.9-.6 1.3-.9l-2-5.4s-4.6 4.8-10.5 15.9c-2.8 5.1-5.8 11.6-8.8 19.6-3.1 7.8-8.4 16.1-5.4 23.2z"/></svg>