<svg xmlns="http://www.w3.org/2000/svg" width="256" height="256"><circle fill="#B1B3B5" cx="128" cy="128" r="128"/><path fill="#141113" d="M60.3 166c3-2.2 4.9-4.9 8.7-4.1 3.1.6 4.5 3.7 5.7 8l.3.3c.2.3.4.7.5 1 .4-.5.7-1.1 1.1-1.8-1.2-1.5-2.4-2.3-2.4-2.3 5-3.8 7.7-16.7 9.1-19.8l-.1-.7 9.8-1.1c-.1-2.5-.4-5-.6-7.2-4.3-5.6-5.2-9.2-7.3-19.9-.4-1.9-.8-4.2-1.2-6.6-1.1-.5-2.4-1.1-3.7-1.7-3.5-1.7-3.9-7.9-4.4-15.3-.4-7.4-4.8-10-2.6-16.6.8-2.5 2.5-3.1 4.2-2.9-1.9-28.6 3.8-64.2 43-66.5h2s.3.5.8 1.4l-.2-2.8s.8 1.9 4.5 1.9c-.7-1.9-1.8-3.4-3.5-3.9-7.5-2.2-36.3-4.8-56.1 38.7-19.8 43.4-17.2 90.7-28.1 102.2-6.1 6.4-6.1 14.2-3.2 21 6.5-2.9 13.9-5.3 22.9-6.5 0 0-.1 2.6.8 5.2z"/><path fill="#747070" d="M83.8 146.6c1.1.3 1.9 4.9 5.5 9 1.5 1.7 2.2 3.2 2.5 4.4 1.4-3.1 1.5-8.8 1.2-14.5l-9.8 1.1.1.7c.1-.5.3-.7.5-.7z"/><path fill="#221F21" d="M132.3 7.4l-.2 2.9c.5-.9.8-1.4.8-1.4h2c39.2 2.3 44.9 37.9 43 66.5 1.7-.2 3.3.3 4.1 2.9 2.2 6.6-2.2 9.2-2.6 16.6-.4 7.4-.9 13.5-4.4 15.3-1.3.6-2.5 1.2-3.7 1.7-.4 2.4-.8 4.7-1.2 6.6-2.1 10.7-2.9 14.3-7.3 19.9-.3 2.3-.5 4.7-.6 7.2l9.9 1.1c1.1-.3 3.8 16.1 9.6 20.5 0 0-1.2.8-2.4 2.3.4.7.8 1.3 1.1 1.8.2-.3.3-.6.5-1l.3-.3c1.2-4.3 2.5-7.4 5.7-8 3.8-.8 5.7 1.9 8.7 4.1.9-2.7.7-5.2.7-5.2 8.8 1.1 16.1 3.5 22.5 6.3 2.9-6.7 2.8-14.4-3.2-20.8-10.9-11.5-8.3-58.8-28.1-102.2S138.5 3.4 131 5.6c-1.7.5-2.8 1.9-3.5 3.8 4-.1 4.8-2 4.8-2z"/><path fill="#817D7D" d="M163.6 160.1c.1.3.3.5.4.8.2-1.3.9-3.1 2.7-5.3 3.6-4.1 4.4-8.8 5.5-9l-9.9-1.1c-.3 5.8-.1 11.6 1.3 14.6z"/><path fill="#5E4F46" d="M154 148.6c-12.5 13.6-25.6 11.7-26.3 11.6v22h.3c3.1-.2 25.1-2.4 37.2-18.6-.4-.3-.8-.6-1.2-.8 0 0-.2-.7 0-1.8-.2-.3-.3-.5-.4-.8-1.4-3-1.6-8.8-1.2-14.6.1-2.5.4-5 .6-7.2-2.1 2.6-4.9 5.7-9 10.2zm19.3-50.3c-.6 4.8-1.3 9.5-1.9 13.5 1.1-.5 2.4-1.1 3.7-1.7 3.5-1.7 3.9-7.9 4.4-15.3.4-7.4 4.8-10 2.6-16.6-.8-2.5-2.5-3.1-4.1-2.9-1.3 19.7-6.1 36-6.1 36 .8-4.4 1.3-8.8 1.4-13z"/><path fill="#7C695B" d="M127.7 130c.2 0 1.2.1 2.2-.7 1.6-.7 3.7-.1 4.9 1.2 2.3 2 2.5 2.6 4.8 3.4 0 0-2.1 3.6-12 3.6v22.8c.7.1 13.8 2 26.3-11.6 4.1-4.5 7-7.6 9-10.2 4.3-5.6 5.2-9.2 7.3-19.9.4-1.9.8-4.2 1.2-6.6.6-4 1.3-8.7 1.9-13.5 1.4-37-22.1-62.3-35.3-65.5-5.6-1.3-8.2-4.1-9.2-7.3l-1.2-1.1V130zm13.6-54.7c4.7-.9 23.3-4.1 28.5 3.3 0 0-1.2 2.2-3.2 1-2-1.2-17.5-2.6-25.3 2.3 0 .1-4.6-5.7 0-6.6z"/><path fill="#221F21" d="M166.7 79.7c2 1.2 3.2-1 3.2-1-5.2-7.4-23.9-4.2-28.5-3.3s0 6.7 0 6.7c7.8-5 23.2-3.6 25.3-2.4z"/><path fill="#744548" d="M139.7 133.8c-2.4-.8-2.6-1.4-4.8-3.4-1.2-1.2-3.3-1.9-4.9-1.2-1 .9-2.1.8-2.2.7v7.4c9.8.1 11.9-3.5 11.9-3.5z"/><path fill="#574A41" d="M91.8 160c.5 1.7.2 2.7.2 2.7-.4.3-.8.5-1.2.8 11.8 15.7 32.8 18.2 36.9 18.5v-22s-13.5 2.4-26.3-11.6c-4.1-4.5-7-7.6-9-10.2.3 2.3.5 4.7.6 7.2.3 5.8.1 11.6-1.2 14.6zm-8.3-48.6s-4.8-16.4-6.1-36c-1.7-.3-3.3.3-4.2 2.9-2.2 6.6 2.2 9.2 2.6 16.6.4 7.4.9 13.5 4.4 15.3 1.3.6 2.5 1.2 3.7 1.7-.6-3.9-1.3-8.5-1.9-13.1.2 4 .6 8.2 1.5 12.6z"/><path fill="#5E4F46" d="M101.3 148.6c12.8 14 26.3 11.6 26.3 11.6v-22.8c-10 0-12-3.6-12-3.6 2.4-.8 2.6-1.4 4.8-3.4 1.2-1.2 3.3-1.9 4.9-1.2 1.1.9 2.3.7 2.3.7V24.4l-1.2 1.1c-1 3.2-3.6 6-9.2 7.3C104 36 80.4 61.4 82 98.7c.6 4.7 1.2 9.2 1.9 13.1.4 2.4.8 4.7 1.2 6.6 2.1 10.7 2.9 14.3 7.3 19.9 2 2.7 4.8 5.8 8.9 10.3zM85.4 78.7c5.2-7.4 23.9-4.2 28.5-3.3s0 6.7 0 6.7c-7.9-5-23.3-3.5-25.3-2.3s-3.2-1.1-3.2-1.1z"/><path fill="#141113" d="M114 82s4.7-5.8 0-6.7-23.3-4.1-28.5 3.3c0 0 1.2 2.2 3.2 1s17.4-2.5 25.3 2.4z"/><path fill="#6A3F42" d="M127.7 130s-1.2.2-2.3-.7c-1.6-.7-3.7-.1-4.9 1.2-2.3 2-2.5 2.6-4.8 3.4 0 0 2.1 3.6 12 3.6V130z"/><path fill="#555052" d="M127.7 20.1v4.2l1.2 1.1c-1.7-5.5 1.7-12.4 3.3-15.2l.2-2.9s-.8 1.9-4.6 2v10.8z"/><path fill="#2D2A2C" d="M138 32.8c13.3 3.1 36.8 28.4 35.3 65.5-.2 4.2-.6 8.6-1.5 13.1 0 0 4.8-16.4 6.1-36 1.9-28.6-3.8-64.2-43-66.5h-2s-.3.5-.8 1.4c-1.6 2.9-4.9 9.7-3.3 15.2 1 3.2 3.6 6 9.2 7.3z"/><path fill="#464144" d="M123 7.4l.2 2.9c1.6 2.9 4.9 9.7 3.3 15.2l1.2-1.1v-15h-.2c-3.7-.1-4.5-2-4.5-2z"/><path fill="#221F21" d="M82 98.7c-1.6-37.2 22-62.7 35.3-65.8 5.6-1.3 8.2-4.1 9.2-7.3 1.7-5.5-1.7-12.4-3.3-15.2-.5-.9-.8-1.4-.8-1.4h-2c-39.2 2.3-44.9 37.9-43 66.5 1.3 19.7 6.1 36 6.1 36-.9-4.5-1.3-8.7-1.5-12.8z"/><path fill="#939291" d="M216.8 193.6c-.5-.1-1.6-.4-3-.8-1.4 3-2.9 6.6-4.4 10.6-.7 2.5-1.3 4.7-1.7 6.2 1.6 1.1 2.9 2.6 3.1 4.8.2 2.7-2.5 4.1-6.3 4.6-1.1 4.4-2.1 9-2.8 13.7 10.7-7.5 20.2-16.7 28.1-27.1-5.3-3.1-10.1-7.2-13-12z"/><path fill="#AFAAAA" d="M151.9 240.6c-6.1 7.7-6 10.8-5 14 .4-.1.9-.1 1.3-.2-1-4.3-.2-7.9 3.7-13.8zm-23.5 6c1-.1 2.8-.6 3.4-3.9.8-4.5 2.1-9-3.4-10.7v14.6zm49.6-66l.2.8c0-.1.1-.2.1-.3.7-2.1 1.3-4.1 1.8-6-.8-1.1-.4-2.2.5-3.9-.4-.5-.7-1.1-1.1-1.8-2 2.4-4 6.3-1.5 11.2zm-12.1 3.8c3.8-7.2 4.6-16.5-.7-20.8-12.1 16.2-34.2 18.4-37.2 18.6h.4v38.6h12.9c5.1 0 14.3-8.5 22.3-18-.3-4.4-.6-13 2.3-18.4zm48 8.4c-.5-.1-.9-.2-1.4-.4-1 3.8-2 7.7-2.9 10.9 1.4-3.9 2.9-7.5 4.3-10.5zm-26.8 23.1c-2.9.9-5.9 2-9 3.3 3.2 2.1 10.4 9.9 14.7 19.1 3-1.8 6-3.7 8.8-5.7.7-4.7 1.7-9.3 2.8-13.7-5.4.7-13-.6-17.3-3z"/><path fill="#949088" d="M178 180.6c-2.5-4.9-.5-8.8 1.4-11.1 1.2-1.5 2.4-2.3 2.4-2.3-5.7-4.4-8.5-20.8-9.6-20.5-1.1.3-1.9 4.9-5.5 9-1.9 2.2-2.5 4-2.7 5.3-.2 1.1 0 1.8 0 1.8.4.3.8.5 1.2.8 5.3 4.3 4.6 13.6.7 20.8-2.9 5.5-2.7 14-2.3 18.4 6.9-8.1 12.9-16.9 14.5-21.5l-.1-.7z"/><path fill="#817D7D" d="M187 161.9c-3.1.6-4.5 3.7-5.7 8 2.1-2.1 9.2 1.8 9.2 1.8 3-1.1 4.5-3.5 5.2-5.7-3-2.2-4.9-4.8-8.7-4.1zm-35.1 78.7c1.7-2.5 3.9-5.3 6.8-8.8 8.8-10.6 14.7-12.6 17.3-12.9.6-.2 1.1-.2 1.5 0l.6.3c3.1-1.3 6.1-2.4 9-3.3-.4-.2-.8-.4-1.1-.7-6.4-4.5-9.4-2.1-16.4 3.3s-19.9 23-26.5 15.6c-6.6-7.4 23-24.8 33.9-31.2 1.7-6.1 9-13.6 13.4-17.6-1.9-1-3.3-2-3.9-2.9-1.6-2.3-3.1-4.5-5.3-6.2-.5-.4-.8-.7-1.1-1-.5 1.9-1 3.9-1.8 6 0 .1-.1.2-.1.3-1.7 4.6-7.6 13.3-14.5 21.5-8 9.4-17.2 18-22.3 18h-12.9v11.2c5.4 1.6 4.2 6.2 3.4 10.7-.6 3.3-2.3 3.8-3.4 3.9v9.4c6.3 0 12.5-.5 18.6-1.4-1.1-3.4-1.3-6.5 4.8-14.2zm46.8-33.6s5.4.2 9 2.6c.4-1.6 1-3.7 1.7-6.2.9-3.3 1.9-7.1 2.9-10.9-.4-.1-.9-.2-1.3-.3l-4.8 10.8-7.5 4z"/><path fill="#CBC8B7" d="M178.1 219.2c-.2-.1-.4-.3-.6-.3 2 11.3.8 20.5-1.5 27.8 5.8-2.4 11.5-5.2 16.9-8.3-4.4-9.2-11.5-17.1-14.8-19.2zm-2.1-.4c1-.1 1.5 0 1.5 0-.4-.1-.9-.1-1.5 0z"/><path fill="#A8A28F" d="M177.5 218.9s-.5-.2-1.5 0c-2.6.3-8.5 2.3-17.3 12.9-2.9 3.5-5.1 6.4-6.8 8.8-4 5.9-4.7 9.5-3.6 13.8 9.6-1.5 18.9-4.1 27.7-7.7 2.3-7.3 3.5-16.6 1.5-27.8z"/><path fill="#C5C0B4" d="M177 202.9c-10.9 6.4-40.4 23.8-33.9 31.2 6.6 7.4 19.5-10.3 26.5-15.6s10.1-7.8 16.4-3.3c.3.2.7.5 1.1.7 4.2 2.3 11.9 3.7 17.4 3.1 3.8-.4 6.6-1.8 6.3-4.6-.2-2.2-1.5-3.7-3.1-4.8-3.6-2.4-9-2.6-9-2.6l7.6-4.1 4.8-10.8c-3.2-.8-6.9-1.8-9.7-2.5-3.6-.9-7.9-2.6-11-4.3-4.4 4-11.7 11.5-13.4 17.6z"/><path fill="#E4E3DC" d="M219 167.1c-6.4-2.8-13.7-5.2-22.5-6.3 0 0 .2 2.5-.7 5.2-.8 2.2-2.2 4.6-5.2 5.7 0 0-7.1-3.9-9.2-1.8l-.3.3c-.2.3-.4.7-.5 1-.9 1.7-1.3 2.8-.5 3.9.2.3.6.7 1.1 1 2.3 1.7 3.7 4 5.3 6.2.6.8 2.1 1.9 3.9 2.9 3.1 1.7 7.4 3.4 11 4.3 2.8.7 6.5 1.7 9.7 2.5.5.1.9.2 1.3.3.5.1 1 .3 1.4.4 1.4.4 2.4.6 3 .8-.1-.1-.1-.2-.2-.3 0 0 12.3-1.7 22.5-1.6 1.9-3.2 3.6-6.6 5.2-10-3.5-2.8-7.3-5.4-10.8-7.2-4.6-2.4-9.3-5-14.5-7.3z"/><path fill="#C6C6C1" d="M216.6 193.3c.1.1.1.2.2.3 2.9 4.8 7.7 8.9 13 12 3.4-4.4 6.5-9.1 9.3-13.9-10.2-.1-22.5 1.6-22.5 1.6z"/><path fill="#818180" d="M45.1 214.4c.2-2.2 1.5-3.7 3.1-4.8-.4-1.6-1-3.7-1.7-6.2-1.5-4-3-7.5-4.4-10.6-1.4.4-2.4.6-3 .8-2.9 4.8-7.7 8.9-13 12 7.9 10.4 17.4 19.5 28.1 27.1-.7-4.7-1.7-9.3-2.8-13.7-3.7-.5-6.5-1.9-6.3-4.6z"/><path fill="#9A9797" d="M77.9 219.2c-3.1-1.3-6.1-2.4-9-3.3-4.2 2.3-11.9 3.7-17.4 3.1 1.1 4.4 2.1 9 2.8 13.7 2.9 2 5.8 3.9 8.8 5.7 4.4-9.2 11.5-17.1 14.8-19.2zm26.2 21.4c4 5.9 4.7 9.5 3.6 13.8.4.1.9.1 1.3.2 1-3.2 1.2-6.3-4.9-14zm-26.1-60c2.5-4.9.5-8.8-1.4-11.1-.4.7-.8 1.3-1.1 1.8.9 1.7 1.3 2.8.5 3.9.5 1.9 1 3.9 1.8 6 0 .1.1.2.1.3l.1-.9zm46.3 62.1c.8 4.7 4.1 3.8 4.1 3.8v-14.7c-6.3 1.4-5 6.2-4.1 10.9zm3.7-60.5h-.3c-4-.3-25.1-2.8-36.9-18.5-5.3 4.3-4.6 13.6-.7 20.8 2.9 5.5 2.7 14 2.3 18.4 8 9.4 17.2 18 22.3 18h13.6v-38.6c.1-.1-.1-.1-.3-.1zm-85.9 10.6c1.4 3 2.9 6.6 4.4 10.6-.9-3.3-1.9-7.1-2.9-10.9l-1.5.3z"/><path fill="#87847D" d="M90.1 184.4c-3.8-7.2-4.6-16.5.7-20.8.4-.3.8-.6 1.2-.8 0 0 .3-1-.2-2.7-.3-1.2-1.1-2.7-2.5-4.4-3.6-4.1-4.4-8.8-5.5-9-.1 0-.3.2-.5.7-1.3 3.2-4.1 16-9.1 19.8 0 0 1.2.8 2.4 2.3 1.9 2.3 3.9 6.3 1.4 11.1l-.2.8c1.7 4.6 7.6 13.3 14.5 21.5.4-4.5.7-13.1-2.2-18.5z"/><path fill="#787474" d="M69 161.9c-3.8-.8-5.7 1.9-8.7 4.1.8 2.2 2.2 4.6 5.2 5.7 0 0 7.1-3.9 9.2-1.8-1.2-4.3-2.6-7.3-5.7-8zm59.4 84.6s-3.3.8-4.1-3.8-2.2-9.4 4.1-10.9v-11h-13.6c-5.1 0-14.3-8.5-22.3-18-6.9-8.1-12.9-16.9-14.5-21.5 0-.1-.1-.2-.1-.3-.7-2.1-1.3-4.1-1.8-6-.2.3-.6.7-1.1 1-2.3 1.7-3.7 4-5.3 6.2-.6.8-2.1 1.9-3.9 2.9 4.3 4 11.7 11.5 13.4 17.6 10.9 6.4 40.4 23.8 33.9 31.2-6.6 7.4-19.5-10.3-26.5-15.6s-10.1-7.8-16.4-3.3c-.3.2-.7.5-1.1.7 2.9.9 5.9 2 9 3.3.2-.1.4-.3.6-.3.4-.2.9-.2 1.5 0 2.6.3 8.5 2.3 17.3 12.9 2.9 3.5 5.1 6.4 6.8 8.8 6.1 7.7 6 10.8 5 14 6.2.9 12.5 1.4 19 1.4h.4v-9.3h-.3zM57.3 207l-7.6-4.1-4.8-10.8c-.5.1-.9.2-1.3.3 1 3.8 2 7.7 2.9 10.9.7 2.5 1.3 4.7 1.7 6.2 3.6-2.3 9.1-2.5 9.1-2.5z"/><path fill="#A8A28F" d="M78.5 218.9l-.6.3c-3.2 2.1-10.4 9.9-14.7 19.1 5.4 3.2 11 6 16.9 8.3-2.4-7.2-3.6-16.5-1.6-27.7zm1.5-.1c-.6-.2-1.1-.2-1.5 0 0 .1.5-.1 1.5 0z"/><path fill="#918D7D" d="M104.1 240.6c-1.7-2.5-3.9-5.3-6.8-8.8-8.8-10.6-14.7-12.6-17.3-12.9-1-.1-1.5 0-1.5 0-2 11.3-.8 20.5 1.5 27.8 8.8 3.6 18.1 6.2 27.7 7.7 1.1-4.3.3-7.9-3.6-13.8z"/><path fill="#A9A59C" d="M44.9 192.1l4.8 10.8 7.6 4.1s-5.4.2-9 2.6c-1.6 1.1-2.9 2.6-3.1 4.8-.2 2.7 2.5 4.1 6.3 4.6 5.5.6 13.1-.7 17.4-3.1.4-.2.8-.4 1.1-.7 6.4-4.5 9.4-2.1 16.4 3.3s19.9 23 26.5 15.6c6.6-7.4-23-24.8-33.9-31.2-1.7-6.1-9-13.6-13.4-17.6-3.1 1.7-7.4 3.4-11 4.3-2.8.7-6.5 1.7-9.7 2.5z"/><path fill="#C6C6C1" d="M39.4 193.3c-.1.1-.1.2-.2.3.5-.1 1.6-.4 3-.8.5-.1.9-.2 1.4-.4.4-.1.9-.2 1.3-.3 3.2-.8 6.9-1.8 9.7-2.5 3.6-.9 7.9-2.6 11-4.3 1.9-1 3.3-2 3.9-2.9 1.6-2.3 3.1-4.5 5.3-6.2.5-.4.8-.7 1.1-1 .8-1.1.4-2.2-.5-3.9-.2-.3-.3-.6-.5-1l-.3-.3c-2.1-2.1-9.2 1.8-9.2 1.8-3-1.1-4.5-3.5-5.2-5.7-.9-2.7-.7-5.2-.7-5.2-9 1.2-16.4 3.6-22.9 6.5-5.1 2.2-9.6 4.7-14 7.1-3.5 1.9-7.3 4.5-10.8 7.2 1.6 3.4 3.3 6.8 5.2 10 10.1-.1 22.4 1.6 22.4 1.6z"/><path fill="#B2B2AE" d="M39.2 193.6c.1-.1.1-.2.2-.3 0 0-12.3-1.7-22.5-1.6 2.8 4.9 5.9 9.5 9.3 13.9 5.3-3.1 10.1-7.2 13-12z"/></svg>