<svg xmlns="http://www.w3.org/2000/svg" width="256" height="256"><circle fill="#B1B3B5" cx="128" cy="128" r="128"/><path fill="#5E808E" d="M189.7 213.8h-9.3l.3.5-22.8 17-5.5-1.1c0 .6-.1 1.2-.2 1.9l4 3.8v14.6l-3 3c26.9-5.4 50.8-19.3 68.7-38.7-7.5-.3-28.3-1.3-31.9-1.5l-.3.5z"/><path fill="#53626B" d="M165.4 147.1l1.9-1.3 1.4 10.1s-5.7 9.7-12 13.7c0 0 1 21.6-3.8 26.8 0 0-3.7-6.2-8.6-6.5l-4.8-10.1s4.7-5.5 7.8-10.8c-3 2.5-7.1 4.3-10.8 5.4l-4.2 6H128V198l8-.6 3.5-3.8 8 2.2 4.9 7.8 4.6-1.6 4.7 3.7 8.9-2.8 2.8-2.1c3.8-16.2 12.1-32.9 12.1-32.9l.2-.1c-4.7-1.6-9.6-3.8-11.3-6.2-2.6-3.9-2.8-19.5-2.7-26.2-.5 1.3-1.1 2.5-1.7 3.4-.6 2.1-2.3 5-4.6 8.3zm13.4 28.1s-7.3 14-21.7 22.7c0 0 4.5-13.6 4.2-25.4 0 0 8-4.6 9.4-7.8l8.1 10.5zm-35.3 33.7c8.6-.8-6.4-1.9-6.4-1.9l-1.9-2.6-7.2-1v13.4c0 .1 6.8-7.1 15.5-7.9z"/><path fill="#6E3A5F" d="M147.2 168.9c-3 5.4-7.8 10.8-7.8 10.8l4.8 10.1c4.9.3 8.6 6.5 8.6 6.5 4.8-5.3 3.8-26.8 3.8-26.8 6.2-4 12-13.7 12-13.7l-1.4-10.1-1.9 1.3c-4.9 7-12.2 15.2-16.3 20-.5.7-1.1 1.3-1.8 1.9z"/><path fill="#6E3A5F" d="M161.2 172.5c.3 11.8-4.2 25.4-4.2 25.4 14.4-8.6 21.7-22.7 21.7-22.7l-8.1-10.5c-1.4 3.2-9.4 7.8-9.4 7.8zm-8.8 31l-4.9-7.8-8-2.2-3.5 3.8-8 .6v5.6l7.2 1 1.9 2.6s15 1.1 6.4 1.9-15.5 8-15.5 8v10.1l23.3-18.2 10.4-3.3-4.7-3.7-4.6 1.6z"/><path fill="#985B89" d="M175.9 116.2c-.1-.4-.2-1.2-.2-2 0 .6 0 1.3.2 2zM172 104c0-2.1-.1-4.7-.3-7.2l.2 7.9c.1-.3.1-.5.1-.7zm-6.8-31.3c.1-.1.2-.2.2-.4-.1.2-.2.3-.2.4zm-5.8-39c.3.2.8.4 1.3.7l-1.3-.7zm12-2.9c-.7-1.1-1.7-2.4-3-3.7 1.2 1.3 2.6 3.1 4.1 5.6-.3-.7-.7-1.3-1.1-1.9z"/><path fill="#985B89" d="M129.7 78l-1.7.6v24.7l4-2.9s3.5 3.9 4.6 3.6c1.1-.3 18.3-6.6 20.3-6.1 2.1.5 7.8 2.2 7.8 2.2l1.2-3.5 2.1.1s1 6.8-2 9.2l-6.1-.4s-2.4 5.7-4.8 6.5-18-3.2-18-3.2.6 5.4 4.1 11c0 0-4-6.1-3.7-3.8.3 2.2 1.4 5.4 1.4 5.4s-1.3 3.5-2.1 2.4-3-14.5-4.9-16.3c0 0-1.1-1-4-1v59.4h3l5.4 8.3c3.7-1.2 7.8-2.9 10.8-5.4.7-.6 1.3-1.2 1.8-1.8 4.1-4.9 11.4-13.1 16.3-20 2.3-3.2 4-6.2 4.7-8.4l-1.3-4.7s6.1-7.7 6.1-16.3c0 0-2.7-4.7.7-8.3l-1-1s-3.2 2.4-2.9 5.1c.3 2.7.2 12.3.2 12.3l-2.4 4.2-1.7-1.3-.4-15.7s1.7-1 2.8-4.1c1.1-3.1 0-19.1 0-19.1l-3.1 2.1-1.4-.8-2-18.6c8.1-14.1-1-35-1-35l-4.2-2.4-9.5.3c-2.5 3.2-10.4 14.2-16.2 32.4l.7.4-3.6 9.9z"/><path fill="#985B89" d="M149.8 34.5s-.3.3-.8 1l.8-1zm11.3-7.5l4.2-.3 1-1.8.2.2c-3.4-3.2-7.7-6.6-12-9.3v5.6c-.1 0 3.9 2.3 6.6 5.6zm12.5 24s-.2 12.5-3.4 21.4l1.3 11s4.3-4.2 5.3-15.6l1.7-2.2c.1-3.3.2-5.9.2-7.6 0-3.7-.7-8.8-2-13.9l-.7 5.7-2.4 1.2z"/><path fill="#814770" d="M136.9 123.8c.8 1.1 2.1-2.4 2.1-2.4s-1.1-3.2-1.4-5.4c-.3-2.2 3.7 3.8 3.7 3.8-3.5-5.6-4.1-11-4.1-11s15.6 4 18 3.2 4.8-6.5 4.8-6.5l6.1.4c3-2.4 2-9.2 2-9.2l-2.1-.1-1.2 3.5s-5.7-1.8-7.8-2.2c-2.1-.5-19.2 5.8-20.3 6.1-1.1.3-4.6-3.6-4.6-3.6l-4 2.9v3.4c2.9 0 4 1 4 1 1.8 1.6 4 15 4.8 16.1z"/><path fill="#30424B" d="M145.3 10.4c.1 0 .2.1.2.1-.1-.1-.2-.1-.2-.1zm-14.6 55.5c-.1.3-.1.6-.2.9l2.3 1.2c5.8-18.2 13.7-29.2 16.2-32.4.5-.6.8-1 .8-1l.4-.5 9-.3h.1l1.3.7c1.6.8 3.5 1.8 3.5 1.8 8.9 24.3 2.6 34.3 1.3 36.1-.1.2-.2.3-.2.4l1.8 19.3 3.1-2.1 1.4-1 .2 7.8c.1 2.5.3 5.2.3 7.2v.6l.1 4.2c-.1 1.6-3.2 5.3-3.2 5.3l.5 16 2.4-4.2s.2-9.6-.2-12.3c-.3-2.7 2.9-5.1 2.9-5.1l1 1 1.2 1.2s-.9 1.5-1.1 3.5c0 .9.1 1.6.2 2 0 .2.1.3.1.3l-1.1 1.3c0 8.6-6.1 16.3-6.1 16.3l1.3 4.7c.6-.9 1.2-2.1 1.7-3.4 3.4-8.1 5.9-22 5.9-22l4.5-9.7c1.3-4.3 1.1-25.1 1.1-25.1l-4.8-7.1v-5.9l-1.7 2.2c-1 11.5-5.3 15.6-5.3 15.6l-1.3-11c3.2-8.9 3.4-21.4 3.4-21.4l2.4-1.3.7-5.7.1-.7c-1.1-4.3-2.6-7.8-4.3-10.6-1.4-2.5-2.9-4.3-4.1-5.6-.9-1-1.6-1.7-2-2l-.2-.2-1 1.8-4.2.3c-2.7-3.4-6.7-5.6-6.7-5.6v-5.9c-1.9-2-6-3.9-8-4.7-8.8 13-13.8 47.7-15.5 55.1zm51.1 23.7c-1.2 1.3-1.8 1-1.8 1-.5-7.8 1.2-9.7 1.2-9.7 1.2 1.8.6 8.7.6 8.7zM179.5 78l1.1 1.9c-2 2.2-1.1 11.5-1.1 11.5l-2.6 2.2c-.8-14 2.6-15.6 2.6-15.6z"/><path fill="#5F707E" d="M128 68.3h1.5l.7-1.7.3.1c.1-.3.1-.6.2-.9 1.7-7.4 6.7-42 15.8-55v-.1l-.9-.3c-.1 0-.2 0-.3-.1-2.4-.7-8.3-2.1-17.3-2.1v60.1z"/><path fill="#F6E3A6" d="M128 78.6l1.7-.6 3.9-9.7-.8-.4-2.3-1.2-.3-.1-.7 1.7H128v2.6z"/><path fill="#5F707E" d="M162.7 37.5s9.1 20.9 1 35l2 18.6 1.4.8-1.8-19.3v-.1l.3-.3c1.4-1.8 7.7-11.8-1.3-36.1 0 0-1.9-1-3.5-1.8-.5-.3-1-.5-1.4-.7l-9 .3-.4.5-.8 1 9.5-.3 4 2.4zm7.4 71.5c-1.1 3.1-2.8 4.1-2.8 4.1l.4 15.7 1.7 1.3-.5-16s3.1-3.7 3.2-5.3l-.1-4.2-.2-7.9-.2-7.8-1.4 1c-.1 0 .9 16-.1 19.1zm4.8 8.7l1.1-1.3c0-.1 0-.2-.1-.2-.2-.7-.2-1.4-.2-2 .1-2 1.1-3.5 1.1-3.5l-1.2-1.2c-3.4 3.5-.7 8.2-.7 8.2z"/><path fill="#51606C" d="M179.5 91.4s-1-9.3 1.1-11.5l-1.1-1.9s-3.5 1.7-2.6 15.6l2.6-2.2z"/><path fill="#51606C" d="M180.1 90.5s.6.3 1.8-1c0 0 .5-6.9-.6-8.7 0 .1-1.7 1.9-1.2 9.7z"/><path fill="#30424B" d="M128 166v.8h2.5l.8 6.4v7.1h.9l4.2-6-5.4-8.3z"/><path fill="#6F808C" d="M131.3 173.2l-.8-6.4H128v13.5h3.3z"/><path fill="#813B70" d="M152.5 228.1s.1.9 0 2.2l5.5 1.1 22.8-17-.3-.5h-6.1l-21.9 14.2z"/><path fill="#813B70" d="M156.3 235.9l-4-3.8c-.5 3-1.8 6.7-5.5 7.1-6 0-7.3-6.5-7.3-6.5V226l31.2-23.3-8.9 2.8-10.4 3.3L128 227v29c8.7 0 17.2-.9 25.4-2.5l3-3v-14.6z"/><path fill="#633254" d="M230.7 204.4c4.3-5.7 8.1-11.8 11.3-18.2-3.9 3.6-9.1 9.7-11.3 18.2z"/><path fill="#696140" d="M173.5 200.6l-2.8 2.1-31.2 23.3v6.7s1.3 6.5 7.3 6.5v-12.9l30.7-24.7s8.4-27.2 15.3-37l-6.9 3-.2.1c-.1 0-8.4 16.7-12.2 32.9z"/><path fill="#8B8854" d="M225.5 210.9c1.8-2.1 3.5-4.3 5.2-6.5 2.2-8.5 7.4-14.6 11.3-18.2.8-1.7 1.7-3.3 2.4-5l-1.5-.8c.1-.1-17 13.4-17.4 30.5zm-13.7-7.3c1.2-6.2 5.9-23.9 12.7-29.3l-4.2-2s-10.1 15-11.5 23.3c-1.4 8.3-3.1 17.9-10.5 17.2 0 0-3.6-1.4-3.8-3.8h-.5l-3.8 4.5c3.6.2 24.4 1.1 31.9 1.5.5-.5.9-1 1.4-1.5h-17.9c-.1-.2 5-3.7 6.2-9.9z"/><path fill="#D1C87D" d="M243 180.3c-6.5-7.5-17.7-6.2-18.5-6.1-6.8 5.4-11.5 23.1-12.7 29.3-1.2 6.2-6.2 9.7-6.2 9.7h17.9l2.1-2.4c.3-17 17.4-30.5 17.4-30.5z"/><path fill="#DFD9A8" d="M181.9 208.8l-7.6 5h15.4l.5-.5 3.8-4.5z"/><path fill="#D1C87D" d="M177.4 201.7l-30.7 24.7v12.9c3.7-.4 5.1-4.1 5.5-7.1.1-.7.2-1.3.2-1.9.1-1.3 0-2.2 0-2.2l21.8-14.3 7.6-5h12.4c.2 2.4 3.8 3.8 3.8 3.8 7.4.7 9.1-8.9 10.5-17.2 1.4-8.3 11.5-23.3 11.5-23.3l-27.6-7.5c-6.6 9.8-15 37.1-15 37.1z"/><path fill="#51606C" d="M99.7 235.9l4-3.8c-.1-.7-.2-1.3-.2-1.9l-5.5 1.1-22.8-17 .3-.5h-9.3l-.4-.5c-3.6.2-24.4 1.1-31.9 1.5 17.9 19.4 41.8 33.3 68.7 38.7l-3-3v-14.6z"/><path fill="#46535C" d="M82.5 200.6l2.8 2.1 8.9 2.8 4.7-3.7 4.6 1.6 4.9-7.8 8-2.2 3.5 3.8 8 .6v-17.6h-4.2l-4.2-6c-3.7-1.2-7.8-2.9-10.8-5.4 3 5.4 7.8 10.8 7.8 10.8l-4.8 10.1c-4.9.3-8.6 6.5-8.6 6.5-4.8-5.3-3.8-26.8-3.8-26.8-6.2-4-12-13.7-12-13.7l1.4-10.1 1.9 1.3c-2.3-3.2-4-6.2-4.7-8.4-.6-.9-1.2-2.1-1.7-3.4.1 6.7-.1 22.2-2.7 26.2-1.6 2.5-6.6 4.6-11.3 6.2l.2.1c0 .1 8.3 16.8 12.1 33zm2.9-35.9c1.4 3.2 9.4 7.8 9.4 7.8-.3 11.8 4.2 25.4 4.2 25.4-14.4-8.6-21.7-22.7-21.7-22.7l8.1-10.5zm33.5 42.3s-15 1.1-6.4 1.9 15.5 8 15.5 8v-13.4l-7.2 1-1.9 2.5z"/><path fill="#5B2D4D" d="M106.9 167.1c-4.1-4.9-11.4-13.1-16.3-20l-1.9-1.3-1.4 10.1s5.7 9.7 12 13.7c0 0-1 21.6 3.8 26.8 0 0 3.7-6.2 8.6-6.5l4.8-10.1s-4.7-5.5-7.8-10.8c-.6-.7-1.2-1.3-1.8-1.9z"/><path fill="#5B2D4D" d="M99 197.9s-4.5-13.6-4.2-25.4c0 0-8-4.6-9.4-7.8l-8.1 10.5c-.1 0 7.3 14.1 21.7 22.7zm29 19s-6.8-7.2-15.5-8 6.4-1.9 6.4-1.9l1.9-2.6 7.2-1v-5.6l-8-.6-3.5-3.8-8 2.2-4.9 7.8-4.6-1.6-4.7 3.7 10.4 3.3L128 227v-10.1z"/><path fill="#814770" d="M84.6 30.8c-.4.6-.7 1.3-1.1 1.9 1.4-2.5 2.9-4.3 4.1-5.6-1.3 1.3-2.3 2.5-3 3.7zm5.9 41.5c.1.2.2.3.2.4v-.1c.1 0 0-.1-.2-.3zm-10.2 41.9c0 .9-.1 1.6-.2 2 .2-.7.2-1.4.2-2zm16.3-80.5l-1.3.7c.5-.2 1-.5 1.3-.7zm-5.9-7l4.2.3c2.7-3.4 6.7-5.6 6.7-5.6v-5.6c-4.3 2.8-8.7 6.1-12 9.3l.2-.2.9 1.8zm15.5 7.8l.8 1c-.5-.7-.8-1-.8-1zM84.5 83.4l1.3-11c-3.2-9-3.4-21.4-3.4-21.4L80 49.7l-.7-5.7c-1.3 5.1-2 10.2-2 13.9 0 1.7.1 4.3.2 7.6l1.7 2.2c1 11.5 5.3 15.7 5.3 15.7zM84 104v.6l.2-7.9c-.1 2.5-.2 5.2-.2 7.3z"/><path fill="#814770" d="M128 166v-59.4c-2.9 0-4 1-4 1-1.9 1.8-4.2 15.2-4.9 16.3-.8 1.1-2.1-2.4-2.1-2.4s1.1-3.2 1.4-5.4c.3-2.2-3.7 3.8-3.7 3.8 3.5-5.6 4.1-11 4.1-11s-15.6 4-18 3.2-4.8-6.5-4.8-6.5l-6.1.4c-3-2.4-2-9.2-2-9.2l2.1-.1 1.2 3.5s5.7-1.8 7.8-2.2c2.1-.5 19.2 5.8 20.3 6.1 1.1.3 4.6-3.6 4.6-3.6l4 2.9V78.6l-1.7-.6-3.8-9.7.7-.4c-5.8-18.2-13.7-29.2-16.2-32.4l-9.5-.3-4.2 2.4s-9.1 20.9-1 35l-2 18.6-1.3.8-3.1-2.1s-1 16 0 19.1c1.1 3.1 2.8 4.1 2.8 4.1l-.4 15.7-1.7 1.3-2.4-4.2s-.2-9.6.2-12.3c.3-2.7-2.9-5.1-2.9-5.1l-1 1c3.4 3.5.7 8.3.7 8.3 0 8.6 6.1 16.3 6.1 16.3l-1.3 4.7c.7 2.2 2.5 5.2 4.7 8.4 4.9 7 12.2 15.2 16.3 20 .5.6 1.2 1.2 1.8 1.8 3 2.5 7.1 4.3 10.8 5.4l5.4-8.3h3.1z"/><path fill="#6E3A5F" d="M124 100.4s-3.5 3.9-4.6 3.6c-1.1-.3-18.3-6.6-20.3-6.1-2.1.5-7.8 2.2-7.8 2.2l-1.2-3.5-2.1.1s-1 6.8 2 9.2l6.1-.4s2.4 5.7 4.8 6.5 18-3.2 18-3.2-.6 5.4-4.1 11c0 0 4-6.1 3.7-3.8-.3 2.2-1.4 5.4-1.4 5.4s1.3 3.5 2.1 2.4 3-14.5 4.9-16.3c0 0 1.1-1 4-1v-3.4l-4.1-2.7z"/><path fill="#213139" d="M110.7 10.4s-.1 0-.2.1c0 0 .1 0 .2-.1zM87.2 134s-6.1-7.7-6.1-16.3l-1.1-1.3s0-.1.1-.3c.1-.4.2-1.1.2-2-.1-2-1.1-3.5-1.1-3.5l1.2-1.2 1-1s3.2 2.4 2.9 5.1c-.3 2.7-.2 12.3-.2 12.3l2.4 4.2.5-16s-3.1-3.7-3.2-5.3l.1-4.2v-.6c0-2.1.1-4.7.3-7.2l.2-7.8 1.4 1 3.1 2.1 1.8-19.3c-.1-.1-.2-.2-.2-.4-1.4-1.8-7.7-11.8 1.3-36.1 0 0 1.9-1 3.5-1.8l1.3-.7h.1l9 .3.4.5s.3.3.8 1c2.5 3.2 10.4 14.2 16.2 32.4l2.3-1.2c-.1-.3-.1-.6-.2-.9-1.7-7.4-6.7-42-15.8-55-2 .8-6.1 2.7-8 4.7v5.9s-4 2.2-6.7 5.6l-4.2-.3-1-1.8-.2.2c-.3.3-1 .9-2 2-1.2 1.3-2.6 3.1-4.1 5.6-1.6 2.8-3.2 6.3-4.3 10.6l.1.7.7 5.7 2.4 1.3s.2 12.5 3.4 21.4l-1.3 11s-4.3-4.2-5.3-15.6l-1.7-2.2v5.9l-4.8 7.1s-.2 20.8 1.1 25.1l4.5 9.7s2.6 14 5.9 22c.5 1.3 1.1 2.5 1.7 3.4l1.6-4.8zM75.9 90.5s-.6.3-1.8-1c0 0-.5-6.9.6-8.7 0 .1 1.7 1.9 1.2 9.7zm.6.9s1-9.3-1.1-11.5l1.1-1.9s3.5 1.7 2.6 15.6l-2.6-2.2z"/><path fill="#51606C" d="M125.3 65.9c.1.3.1.6.2.9l.3-.1.7 1.7h1.5v-60c-9 0-14.9 1.4-17.3 2.1-.1 0-.2.1-.3.1l-.9.3v.1c9.1 12.8 14.1 47.5 15.8 54.9z"/><path fill="#B0A47B" d="M126.3 78l1.7.6V68.3h-1.5l-.7-1.7-.3.1-2.3 1.2-.8.4z"/><path fill="#51606C" d="M92.3 72.6c-8.1-14.1 1-35 1-35l4.2-2.4 9.5.3-.8-1-.4-.5-9-.3c-.4.2-.9.4-1.4.7-1.6.8-3.5 1.8-3.5 1.8-8.9 24.3-2.6 34.3-1.3 36.1l.3.3v.1l-2 19.3 1.4-.8 2-18.6zm-3.6 40.5s-1.7-1-2.8-4.1c-1.1-3.1 0-19.1 0-19.1l-1.4-1-.2 7.8-.2 7.9-.1 4.2c.1 1.6 3.2 5.3 3.2 5.3l-.5 16 1.7-1.3.3-15.7zm-8.3-3.7l-1.2 1.2s.9 1.5 1.1 3.5c0 .6 0 1.3-.2 2 0 .1 0 .2-.1.2l1.1 1.3c0 .1 2.7-4.6-.7-8.2z"/><path fill="#47545C" d="M79.1 93.5c.8-13.9-2.6-15.5-2.6-15.5l-1.1 1.9c2 2.2 1.1 11.5 1.1 11.5l2.6 2.1z"/><path fill="#47545C" d="M74.2 89.6c1.2 1.3 1.8 1 1.8 1 .5-7.8-1.2-9.7-1.2-9.7-1.2 1.8-.6 8.7-.6 8.7z"/><path fill="#213139" d="M124.7 173.2l.8-6.4h2.5v-.8h-3l-5.4 8.3 4.2 6h.9z"/><path fill="#51606C" d="M128 166.8h-2.5l-.8 6.4v7.1h3.3v-3.9z"/><path fill="#6C2E5D" d="M103.5 228.1l-21.8-14.3h-6.1l-.3.5 22.8 17 5.5-1.1c-.1-1.2-.1-2.1-.1-2.1z"/><path fill="#6C2E5D" d="M128 227l-23.3-18.2-10.4-3.3-8.9-2.8 31.2 23.3v6.7s-1.3 6.5-7.3 6.5c-3.7-.4-5.1-4.1-5.5-7.1l-4 3.8v14.6l3 3c8.2 1.6 16.7 2.5 25.4 2.5v-29z"/><path fill="#4C2240" d="M14 186.2c3.3 6.4 7.1 12.5 11.3 18.2-2.2-8.5-7.4-14.6-11.3-18.2z"/><path fill="#5E5839" d="M78.6 201.7l30.7 24.7v12.9c6 0 7.3-6.5 7.3-6.5V226l-31.2-23.3-2.8-2.1c-3.8-16.2-12.1-32.9-12.1-32.9l-.2-.1-6.9-3c6.8 9.8 15.2 37.1 15.2 37.1z"/><path fill="#696140" d="M13 180.3l-1.5.8c.8 1.7 1.6 3.4 2.4 5 3.9 3.6 9.2 9.8 11.3 18.2 1.7 2.2 3.4 4.4 5.2 6.5-.3-17-17.4-30.5-17.4-30.5zm49 28.5h-.4c-.2 2.4-3.8 3.8-3.8 3.8-7.4.7-9.1-8.9-10.5-17.2-1.4-8.3-11.5-23.3-11.5-23.3l-4.2 2c6.8 5.4 11.5 23.1 12.7 29.3 1.2 6.2 6.2 9.7 6.2 9.7H32.6c.4.5.9 1 1.4 1.5 7.5-.3 28.3-1.3 31.9-1.5l-3.9-4.3z"/><path fill="#8B8854" d="M44.2 203.6c-1.2-6.2-5.9-23.9-12.7-29.3-.8-.1-12-1.4-18.5 6.1 0 0 17.1 13.5 17.5 30.6l2.1 2.4h17.9c0-.1-5.1-3.6-6.3-9.8z"/><path fill="#D1C87D" d="M74.1 208.8H62l3.8 4.5.5.5h15.4z"/><path fill="#8B8854" d="M57.8 212.7s3.6-1.4 3.8-3.8H74l7.6 5 21.8 14.3s-.1.9 0 2.2c0 .6.1 1.2.2 1.9.5 3 1.8 6.7 5.5 7.1v-12.9l-30.7-24.7s-8.4-27.2-15.3-37l-27.6 7.5s10.1 15 11.5 23.3c1.7 8.2 3.3 17.8 10.8 17.1z"/></svg>