<svg xmlns="http://www.w3.org/2000/svg" width="256" height="256"><circle fill="#B1B3B5" cx="128" cy="128" r="128"/><path fill="#7F351B" d="M226.8 191.1c3.1 1.4 6.8 3.2 9.4 5.4 4.9-7.7 9-16 12.2-24.7-3.3-1.4-7-2.8-11.1-4.3-1.7 3-6.4 12.1-10.5 23.6zm-12-26c1-1.3 1.8-2.5 2.5-3.5-2.4-.6-5-1.3-7.6-1.9.3.4.6.9 1 1.4 1.1 1.4 2.6 2.7 4.1 4z"/><path fill="#BA9E75" d="M222.1 175.1c.3 3.3-.6 6.4-1.1 8.9 6-4.8 11.7-7.7 11.7-7.7-2.4 5.2-4.4 10.1-6 14.8 4.2-11.5 8.8-20.6 10.4-23.6.4-.7.6-1 .6-1l-18.1-8.2s-.8 1.3-2.3 3.3c-.7 1-1.6 2.2-2.5 3.5 3.3 2.8 7 5.7 7.3 10z"/><path fill="#595E4D" d="M221.1 184c-.4 2.3-.5 4.1 1.1 5 .9.5 2.6 1.3 4.6 2.2 1.6-4.7 3.6-9.7 6-14.8 0-.1-5.7 2.8-11.7 7.6z"/><path fill="#D7A990" d="M128.4 149.9c1.5.1 5 .1 7.4.1 3 0 6.4 3.2 7.5 0 1.1-3.2 1.1-3.8-2.5-8-3-3.5-10-3.4-12.3-3.2v11.1zm0-18.1c1.4-.2 4.7-.5 6.9.1 2.9.8 7.2-3.4 10.1 0 2.8 3.3 11.8 6.1 12.3 11.2 6.1-2.6 20.2-8.9 24.8-12.2 6-4.3-2.7-56-2.7-63.2s-7.6-11-8.7-19.2c-1.1-8.1-4.3-12-7.6-10.1s-25 3.4-25 3.4c-3.5.3-8.3.7-10.1.9v89.1zm18.5-50.6c3.8 0 13.6-4.8 16.8 0 3.3 4.8 7.1 8.1 5.4 8.1-1.6 0-10.9-6.9-14.1-3.9-3.3 3-10.9 4.4-13.6 6.3-2.7 1.9-2.7 1-7.6 0-4.2-.8 9.3-10.5 13.1-10.5z"/><path fill="#9F7452" d="M127.6 8.4h.4-.4zm99.2 182.7c-2-.9-3.7-1.7-4.6-2.2-1.5-.9-1.5-2.7-1.1-5 .5-2.5 1.4-5.7 1.1-8.9-.4-4.2-4-7.1-7.3-9.9-1.6-1.3-3-2.6-4.1-4-.4-.5-.7-1-1-1.4-2-3-1.3-4.1-2.2-12.9-1.1-10.1-7.5-10.5-5.9-17.2 1.6-6.7-1.6-11 0-18.7 1.6-7.7 2.8-18.7 0-22.5-2.8-3.8-5.3-8.6-4.6-12 .7-3.4-5.8-10.1-5.3-12.5.5-2.4-1.1-6.2-3.3-11.5-2.2-5.3-5.4-7.7-5.4-11.5s-4.3-9.6-7.6-11c-3.3-1.4-2.7-1-8.7-6.2-6-5.3-8.4-11.2-13.2-12.6-4.8-1.4-11-2.7-25.1-2.7v34.4c1.8-.2 6.6-.6 10.1-.9 0 0 21.7-1.4 25-3.4s6.5 1.9 7.6 10.1c1.1 8.1 8.7 12 8.7 19.2s8.7 58.9 2.7 63.2c-4.6 3.3-18.8 9.6-24.8 12.2v.4c0 5.4-1.8 5.4 1.8 12.8s10.9 6.7 13.8 11.5 3.3 16 6.2 23c2.9 7 12.7 20.1 22.4 26.2 4.8 3 7.3 6.1 8.5 9 10-8.4 18.8-18.4 25.8-29.5-2.7-2.2-6.4-4-9.5-5.5z"/><path fill="#835931" d="M201.9 217c-9.8-6.1-19.6-19.2-22.4-26.2-2.9-7-3.3-18.2-6.2-23s-10.1-4.2-13.8-11.5-1.8-7.3-1.8-12.8v-.4c-.5-5.2-9.4-8-12.3-11.2-2.9-3.4-7.2.8-10.1 0-2.2-.6-5.4-.3-6.9-.1v6.9c2.3-.1 9.3-.2 12.3 3.2 3.6 4.2 3.6 4.8 2.5 8s-4.4 0-7.5 0h-7.4V256c31.2-.1 59.8-11.4 82-30-1.2-2.8-3.6-6-8.4-9zM133.8 91.7c4.9 1 4.9 1.9 7.6 0 2.7-1.9 10.3-3.4 13.6-6.3 3.3-3 12.5 3.9 14.1 3.9 1.6 0-2.2-3.4-5.4-8.1-3.3-4.8-13 0-16.8 0s-17.3 9.7-13.1 10.5z"/><path fill="#773117" d="M29.2 191.1c-4.2-11.5-8.8-20.6-10.4-23.6-4.1 1.4-7.9 2.9-11.1 4.3 3.2 8.7 7.3 17 12.2 24.7 2.5-2.1 6.2-3.9 9.3-5.4zm16.1-29.9c.4-.5.7-1 1-1.4-2.6.6-5.2 1.2-7.6 1.9.7 1 1.6 2.2 2.5 3.5 1.5-1.4 3-2.7 4.1-4z"/><path fill="#A68E69" d="M29.3 191.1c-1.6-4.7-3.6-9.7-6-14.8 0 0 5.7 2.9 11.7 7.7-.5-2.5-1.4-5.7-1.1-8.9.4-4.2 4-7.1 7.3-9.9-1-1.3-1.8-2.5-2.5-3.5-1.4-2.1-2.3-3.3-2.3-3.3l-18.1 8.2s.2.4.6 1c1.5 2.9 6.2 12 10.4 23.5-.1 0-.1 0 0 0z"/><path fill="#4D5343" d="M29.3 191.1c2-.9 3.7-1.7 4.6-2.2 1.5-.9 1.5-2.7 1.1-5-6-4.8-11.7-7.7-11.7-7.7 2.3 5.3 4.3 10.2 6 14.9z"/><path fill="#C08C76" d="M117.5 41.9s-21.7-1.4-25-3.4c-3.3-1.9-6.5 1.9-7.6 10.1-1.1 8.1-8.7 12-8.7 19.2s-8.7 58.9-2.7 63.2c4.6 3.3 18.8 9.6 24.8 12.2.5-5.2 9.4-8 12.3-11.2 2.9-3.4 7.2.8 10.1 0 2.9-.8 7.6 0 7.6 0V42.9c.1 0-6.4-.7-10.8-1zm4.7 49.8c-4.9 1-4.9 1.9-7.6 0-2.7-1.9-10.3-3.4-13.6-6.3-3.3-3-12.5 3.9-14.1 3.9-1.6 0 2.2-3.4 5.4-8.1s13 0 16.8 0c3.8 0 17.3 9.7 13.1 10.5zm6.2 58.2v-11.1s-9.4-1-13 3.2c-3.6 4.2-3.6 4.8-2.5 8s4.4 0 7.5 0h7.4c-.2 0 .1 0 .6-.1z"/><path fill="#835931" d="M54.1 217c9.8-6.1 19.6-19.2 22.4-26.2 2.9-7 3.3-18.2 6.2-23s10.1-4.2 13.8-11.5c3.6-7.3 1.8-7.3 1.8-12.8v-.4c-6.1-2.6-20.2-8.9-24.8-12.2-6-4.3 2.7-56 2.7-63.2s7.6-11 8.7-19.2c1.1-8.1 4.3-12 7.6-10.1 3.3 1.9 25 3.4 25 3.4 4.4.3 10.9 1 10.9 1V8.4h-.8c-14.1 0-20.3 1.3-25.1 2.7-4.9 1.4-7.3 7.3-13.2 12.6-6 5.3-5.4 4.8-8.7 6.2s-7.6 7.2-7.6 11-3.3 6.2-5.4 11.5c-2.2 5.3-3.8 9.1-3.3 11.5.5 2.4-6 9.1-5.3 12.5s-1.8 8.1-4.6 12c-2.8 3.8-1.6 14.8 0 22.5 1.6 7.7-1.6 12 0 18.7 1.6 6.7-4.8 7.2-5.9 17.2-1 8.8-.2 9.9-2.2 12.9-.3.4-.6.9-1 1.4-1 1.4-2.5 2.7-4.1 4-3.3 2.8-7 5.7-7.3 9.9-.3 3.3.6 6.4 1.1 8.9.4 2.3.5 4.1-1.1 5-.9.5-2.6 1.3-4.6 2.2-3.1 1.4-6.8 3.2-9.4 5.4 7.1 11.1 15.8 21.1 25.8 29.5 1.2-2.8 3.6-6 8.4-9z"/><path fill="#724C27" d="M128.4 199.4V150h-8.1c-3 0-6.4 3.2-7.5 0s-1.1-3.8 2.5-8 13-3.2 13-3.2v-6.9s-4.7-.8-7.6 0c-2.9.8-7.2-3.4-10.1 0-2.8 3.3-11.8 6.1-12.3 11.2v.4c0 5.4 1.8 5.4-1.8 12.8-3.6 7.3-10.9 6.7-13.8 11.5s-3.3 16-6.2 23c-2.9 7-12.7 20.1-22.4 26.2-4.8 3-7.3 6.1-8.5 9 22.3 18.7 51 30 82.3 30h.4v-56.6zM109.1 81.2c-3.8 0-13.6-4.8-16.8 0s-7.1 8.1-5.4 8.1c1.6 0 10.9-6.9 14.1-3.9 3.3 3 10.9 4.4 13.6 6.3 2.7 1.9 2.7 1 7.6 0 4.2-.8-9.3-10.5-13.1-10.5z"/></svg>