<svg xmlns="http://www.w3.org/2000/svg" width="256" height="256"><circle fill="#B2B4B5" cx="128" cy="128" r="128"/><path fill="none" d="M74.9 122.6c-1-3-2.5-7.4-3.9-13.1l1.1 4.6s-5.9.8-5.6 5.8c0 .7.1 1.8.2 3.1 2.7.5 5.8 1.2 8.1 1.9 0-.5 0-1.3.1-2.3z"/><path fill="#5A5057" d="M168.1 220.1c-.7.5-2.9 2.3-2.9 2.3s1-5-1.2-2.6-4.6 6.7-4.6 6.7l-3.6-3.2c-2.4 3.5-11.5 17.3-17 32.2 11.3-.9 22.1-3.4 32.4-7l1.4-30.4c-2.3 1-4.2 1.8-4.5 2zm-13.5 2.5l.5-.1-.2-.2c0 .1-.1.2-.3.3zm62.6-19c-2.9 3.6-5 7.9-4.6 4.8.5-3.1 1.2-8.1 1.2-8.1s-5.7 4.3-6.7 5.7c-.7 1-2.6 2.7-3.8 3.3l-.9 22.9c7.9-5.7 15.2-12.2 21.6-19.5-1-4.5-2.2-9.1-3.6-13.8-.7 1.2-1.7 2.7-3.2 4.7z"/><path fill="#463E45" d="M235.7 178.8c-.1.1-.3.3-.5.4-1.7.7-5-1.7-5 0s.2 7.4.2 7.4-2.4-.7-2.4 0 .2 7.3-1.2 9c-1.3 1.6-4.3-2.5-4.9-3.3.3.5 1.1 2 .1 3.7-.5 1-1 1.9-1.6 2.9 1.4 4.7 2.6 9.3 3.6 13.8 8.2-9.3 15-19.7 20.3-31.1-.6-1-4.8-2.1-8.6-2.8z"/><path fill="#29343F" d="M172.7 218.1l-1.4 30.4c1.4-.5 2.8-1 4.1-1.6l1.1-30.4c-1.3.6-2.6 1.1-3.8 1.6z"/><path fill="#556576" d="M202.3 209.4c-.2-.8 1.4-8 .2-5.6s-7.9 8.4-7.9 8.4 1.7-8.4 0-5.5-4.6 7.9-6 8.4-6.9 1.4-6.9 1.4 2.9-4.6-.5-2.4c-1.1.7-2.9 1.6-4.8 2.4l-1.1 30.4c9.6-3.8 18.7-8.8 27-14.8l.9-22.9c-.4.4-.8.5-.9.2z"/><path fill="#2D3240" d="M170.2 164.3c-4.4 7.9-14.8 21.5-30.9 26.1 4.3.4 8.1 1.7 8.1 4.7 0 .8-.1 1.5-.4 2.1 2.1-.7.9 0 5-1.7 4.6-1.8 6.5-3.2 6.5-3.2s.5-2-1.2-2.1 4.8-1.3 6.5-3 1.9-3.8 1.9-3.8l1.2-2.9s-1-3.1.2-4.1c.8-.6 2.5-2.6 3.9-4.2.7-3.2.2-5.7-.8-7.9zM133 201.4v14.3c1-.8 2.6-2.1 3.7-2.4 1.7-.5 1.4 1.2 4.8-1s-1.2-2.9 1-4.1c2.2-1.2 2.6-2.9 4.3-3.6s2.9.5 1.7-.7 1-3.1 1.2-4.1-7.7 1.4-7.7 1.4l.3-.6c-3 1-6.7.8-9.3.8zm1.8 21c1.6-3.4-.5-5-1.8-5.6v11.5c.5-2.2 1.1-4.3 1.8-5.9zm-1.8 8.4v2.5c.1.3.1.7 0 1.2v14.3l5.7-22.3-3.2 1.7s-1.7 1.4-2.5 2.6z"/><path fill="#171C2B" d="M170.2 164.3c-.9-1.8-2.1-3.4-3.4-4.8-.8-.9-3.4-1.7-6.9-2.5-5.2 6.2-11 13-13.4 15l-4.8 4-6.6 1.6H128v13s6-.7 11.3-.2c16.1-4.6 26.5-18.2 30.9-26.1z"/><path fill="#55646D" d="M132.6 235.4c-.8 1.4-.5-2.8.4-7.1v-11.5c-.5-.2-.9-.3-.9-.3s.3-.3.9-.7v-14.3c2.6 0 6.3.2 9.3-.6.5-.8 1.8-2.4 4-3.2.3-.1.5-.2.7-.3.2-.6.4-1.3.4-2.1 0-3-3.9-4.3-8.1-4.7-5.3-.5-11.3.2-11.3.2v62.5h3.9l1.1-4.4v-14.3c0 .1-.2.5-.4.8zm10.4-43.1c1.8 0 3.2 1.4 3.2 3.2s-1.4 3.2-3.2 3.2-3.2-1.4-3.2-3.2 1.4-3.2 3.2-3.2z"/><path fill="#55646D" d="M132.6 231.6c-.1.6.2 1.1.4 1.7v-2.5c-.2.3-.3.5-.4.8z"/><circle fill="#ABB17C" cx="143" cy="195.6" r="3.2"/><path fill="#CBC99E" d="M155.1 222.6l-.5.1c-.8.5-2.8 1.9-3.5 2.5-1 .7-7.2 3.1-7.2 3.1l-2.2-3.4-3 1.6-5.7 22.3-1.1 4.4H128v2.8c3.7 0 7.3-.2 10.9-.5 5.6-14.9 14.6-28.7 17-32.2l-.8-.7z"/><path fill="#615440" d="M159.9 157c3.5.8 6.1 1.6 6.9 2.5 1.3 1.5 2.5 3 3.4 4.8 1 2.2 1.5 4.7.8 8 .8-.9 1.4-1.7 1.6-1.9.5-.6-.5-2.2-.5-2.2l8.1-5s-1.7-1.9-1-2.2 3.8-2.4 3.8-2.4l4.8-3.7s.7-1.6.2-2.5c-.5-1-1.7-.1-.5-1.6s2.6-2 3.4-3.9c.7-1.9 2.6-1.5.7-1.9-1.9-.5-5-2.8-4.1-3.2 1-.4 3.8-2.1 3.8-2.3s.5-1.5-.5-1.8-.2 2-2.4 0-2.2-2.8-2.9-3-1.4.2-2.6-.2l-1.2-.5-2.4-3.9c-1.9 4.4-5.3 10.9-10.2 15.2v.2c.3-.1-4.1 5.4-9.2 11.5z"/><path fill="#AC9178" d="M179.6 130l2.4 3.9 1.2.5c1.2.5 1.9 0 2.6.2s.7 1 2.9 3 1.4-.3 2.4 0 .5 1.6.5 1.8-2.9 1.9-3.8 2.3c-1 .4 2.2 2.7 4.1 3.2 1.9.5 0 0-.7 1.9s-2.2 2.4-3.4 3.9 0 .6.5 1.6-.2 2.5-.2 2.5l-4.8 3.7s-3.1 2.2-3.8 2.4 1 2.2 1 2.2l-8.1 5s1 1.7.5 2.2c-.2.2-.8 1-1.6 1.9-1.3 1.6-3.1 3.6-3.9 4.2-1.2 1-.2 4.1-.2 4.1l-1.2 2.9s-.2 2.2-1.9 3.8-8.1 2.9-6.5 3 1.2 2.1 1.2 2.1-1.9 1.4-6.5 3.2c-4.1 1.7-2.9 1-5 1.7-.2.1-.4.2-.7.3-2.2.8-3.4 2.4-4 3.2l-.3.6s7.9-2.4 7.7-1.4-2.4 2.9-1.2 4.1c1.2 1.2 0 0-1.7.7s-2.2 2.4-4.3 3.6c-2.2 1.2 2.4 1.9-1 4.1-3.4 2.2-3.1.5-4.8 1-1.1.3-2.7 1.5-3.7 2.4-.5.4-.9.7-.9.7s.4.1.9.3c1.3.6 3.3 2.2 1.8 5.6-.7 1.6-1.3 3.7-1.8 5.9-.9 4.4-1.2 8.6-.4 7.1.2-.4.3-.7.4-.9.1-.5.1-.9 0-1.2-.2-.6-.5-1-.4-1.7 0-.2.2-.5.4-.8.8-1.2 2.5-2.5 2.5-2.5l3.2-1.7 3-1.6 2.2 3.4s6.2-2.4 7.2-3.1c.8-.6 2.7-1.9 3.5-2.5.2-.1.3-.2.3-.2l.2.2.8.7 3.6 3.2s2.4-4.3 4.6-6.7c2.2-2.4 1.2 2.6 1.2 2.6s2.2-1.9 2.9-2.3c.3-.2 2.2-1 4.6-1.9 1.2-.5 2.6-1.1 3.9-1.6 1.9-.8 3.6-1.7 4.8-2.4 3.4-2.2.5 2.4.5 2.4s5.5-1 6.9-1.4c1.4-.5 4.3-5.5 6-8.4s0 5.5 0 5.5 6.7-6 7.9-8.4-.5 4.8-.2 5.6c.1.3.5.2 1-.1 1.2-.7 3.1-2.3 3.8-3.3 1-1.4 6.7-5.7 6.7-5.7s-.7 5-1.2 8.1 1.7-1.2 4.6-4.8c1.6-2 2.5-3.4 3.2-4.7.6-1.1 1-2 1.6-2.9 1-1.7.2-3.2-.1-3.7.6.9 3.6 4.9 4.9 3.3 1.4-1.7 1.2-8.3 1.2-9s2.4 0 2.4 0-.2-5.7-.2-7.4 3.4.7 5 0c.2-.1.4-.2.5-.4.7-.8-.7-2.1-1.2-3-.7-1 .5-3.4.5-3.4s.5-2.4-.2-3.4 2.4-1.2 2.4-1.2-2.4-2.4-3.8-3.2-4.1-4.7-4.3-5.7 4.3 0 4.3 0l-7.7-5.3s-4.1-4.6-4.8-5 4.8 0 4.8 0-6.5-4.4-7.2-5.6c-.7-1.2 4.3 0 4.3 0l-12.2-5.7h5.3l-13.7-5.4-2.4-1.1h3.4c1.2 0-10.1-6.2-10.1-6.2s5.3-.2 2.4-1.8c-2-1.1-9.4.6-14.1 1.9v.5s-1.3 1.8-2.4 4.5z"/><path fill="#463E45" d="M100.9 222.6l.5.1c-.2-.1-.3-.2-.3-.2l-.2.1zm-52-16.7c-1-1.4-6.7-5.7-6.7-5.7s.7 5 1.2 8.1-1.7-1.2-4.6-4.8c-1.6-2-2.5-3.4-3.2-4.7-1.4 4.7-2.6 9.3-3.6 13.8 6.4 7.3 13.7 13.9 21.6 19.5l-.9-22.9c-1.2-.6-3.2-2.3-3.8-3.3zm47.6 20.6s-2.4-4.3-4.6-6.7-1.2 2.6-1.2 2.6-2.2-1.9-2.9-2.3c-.3-.2-2.2-1-4.6-1.9l1.4 30.4c10.3 3.7 21.1 6.1 32.4 7-5.6-14.9-14.6-28.7-17-32.2l-3.5 3.1z"/><path fill="#342D33" d="M34 195.9c-1-1.7-.2-3.2.1-3.7-.6.9-3.6 4.9-4.9 3.3-1.4-1.7-1.2-8.3-1.2-9s-2.4 0-2.4 0 .2-5.7.2-7.4-3.4.7-5 0c-.2-.1-.4-.2-.5-.4-3.8.8-8 1.8-8.6 2.8 5.2 11.4 12.1 21.8 20.3 31.1 1-4.5 2.2-9.1 3.6-13.8-.6-1-1-1.9-1.6-2.9z"/><path fill="#1C2731" d="M79.5 216.5l1.1 30.4c1.4.5 2.7 1.1 4.1 1.6l-1.4-30.4c-1.2-.5-2.5-1-3.8-1.6z"/><path fill="#404C55" d="M74.7 214.1c-3.4-2.2-.5 2.4-.5 2.4s-5.5-1-6.9-1.4c-1.4-.5-4.3-5.5-6-8.4s0 5.5 0 5.5-6.7-6-7.9-8.4.5 4.8.2 5.6c-.1.3-.5.2-1-.1l.9 22.9c8.3 5.9 17.4 10.9 27 14.8l-1.1-30.4c-1.8-.9-3.5-1.8-4.7-2.5z"/><path fill="#171C2B" d="M113.7 200.8l.3.6s-7.9-2.4-7.7-1.4c.2 1 2.4 2.9 1.2 4.1-1.2 1.2 0 0 1.7.7s2.2 2.4 4.3 3.6c2.2 1.2-2.4 1.9 1 4.1s3.1.5 4.8 1c1.1.3 2.7 1.5 3.7 2.4v-14.3c-2.6-.2-6.3 0-9.3-.8zm3-10.3c-16.1-4.6-26.6-18.3-30.9-26.1-1 2.2-1.5 4.7-.8 8 1.3 1.6 3.1 3.6 3.9 4.2 1.2 1 .2 4.1.2 4.1l1.2 2.9s.2 2.2 1.9 3.8 8.1 2.9 6.5 3-1.2 2.1-1.2 2.1 1.9 1.4 6.5 3.2c4.1 1.7 2.9 1 5 1.7-.2-.6-.4-1.3-.4-2.1 0-3.2 3.9-4.4 8.1-4.8zm6.3 42.7v-2.5c-.8-1.2-2.5-2.5-2.5-2.5l-3.2-1.7 5.7 22.3v-14.3c-.2-.5-.1-.9 0-1.3zm-1.8-10.8c.7 1.6 1.3 3.7 1.8 5.9v-11.5c-1.3.6-3.3 2.2-1.8 5.6z"/><path fill="#050A1A" d="M120.8 177.6l-6.6-1.6-4.8-4c-2.4-2-8.2-8.8-13.4-15-3.5.8-6.1 1.6-6.9 2.5-1.3 1.5-2.5 3-3.4 4.8 4.4 7.9 14.8 21.5 30.9 26.1 5.3-.5 11.3.2 11.3.2v-13h-7.1z"/><path fill="#414E57" d="M128 192.1v-1.4s-6-.7-11.3-.2c-4.3.4-8.1 1.7-8.1 4.7 0 .8.1 1.5.4 2.1.2.1.4.2.7.3 2.2.8 3.4 2.4 4 3.2 3 .8 6.7.6 9.3.6v14.3c.5.4.9.7.9.7s-.4.1-.9.3v11.5c.9 4.4 1.2 8.6.4 7.1-.2-.4-.3-.7-.4-.9v14.3l1.1 4.4h3.9v-61zm-15 6.7c-1.8 0-3.2-1.4-3.2-3.2s1.4-3.2 3.2-3.2 3.2 1.4 3.2 3.2-1.4 3.2-3.2 3.2z"/><path fill="#414E57" d="M123.4 231.6c0-.2-.2-.5-.4-.8v2.5c.1-.7.5-1.1.4-1.7z"/><circle fill="#8D9367" cx="113" cy="195.6" r="3.2"/><path fill="#A09F7F" d="M128 254.6v-1.4h-3.9l-1.1-4.4-5.7-22.3-3-1.6-2.2 3.4s-6.2-2.4-7.2-3.1c-.8-.6-2.7-1.9-3.5-2.5l-.5-.1-.8.7c2.4 3.5 11.5 17.3 17 32.2 3.6.3 7.2.5 10.9.5v-1.4z"/><path fill="#49402E" d="M74.1 133.8c1.1-.2 2.3-.5 3.7-1-.5-1-.9-2-1.3-2.8l-2.4 3.8zm11.7 30.5c.9-1.8 2.1-3.4 3.4-4.8.8-.9 3.4-1.7 6.9-2.5-3.4-4-6.4-7.9-8.1-9.9-6.5 2.6-14.5 4.9-20.3 2.9l.7.7c1.2 1.5 0 .6-.5 1.6s.2 2.5.2 2.5l4.8 3.7s3.1 2.2 3.8 2.4-1 2.2-1 2.2l8.1 5s-1 1.7-.5 2.2c.2.2.8 1 1.6 1.9-.6-3.2-.1-5.7.9-7.9z"/><path fill="#84705C" d="M53 131h3c-.1-.7-.2-1.4-.3-2-1.8 1.1-3.2 2-2.7 2zm-32.1 48.1c1.7.7 5-1.7 5 0s-.2 7.4-.2 7.4 2.4-.7 2.4 0-.2 7.3 1.2 9c1.3 1.6 4.3-2.5 4.9-3.3-.3.5-1.1 2-.1 3.7.5 1 1 1.9 1.6 2.9.7 1.3 1.6 2.7 3.2 4.7 2.9 3.6 5 7.9 4.6 4.8-.5-3.1-1.2-8.1-1.2-8.1s5.7 4.3 6.7 5.7c.7 1 2.6 2.7 3.8 3.3.5.3.9.4 1 .1.2-.8-1.4-8-.2-5.6s7.9 8.4 7.9 8.4-1.7-8.4 0-5.5 4.6 7.9 6 8.4 6.9 1.4 6.9 1.4-2.9-4.6.5-2.4c1.1.7 2.9 1.6 4.8 2.4 1.3.6 2.6 1.1 3.9 1.6 2.3 1 4.3 1.7 4.6 1.9.7.5 2.9 2.3 2.9 2.3s-1-5 1.2-2.6 4.6 6.7 4.6 6.7l3.6-3.2.8-.7.2-.2s.1.1.3.2c.8.5 2.8 1.9 3.5 2.5 1 .7 7.2 3.1 7.2 3.1l2.2-3.4 3 1.6 3.2 1.7s1.7 1.4 2.5 2.5c.2.3.3.6.4.8.1.6-.2 1.1-.4 1.7-.1.3-.1.7 0 1.2.1.3.2.6.4.9.8 1.4.5-2.8-.4-7.1-.5-2.1-1.1-4.3-1.8-5.9-1.6-3.4.5-5 1.8-5.6.5-.2.9-.3.9-.3s-.3-.3-.9-.7c-1-.8-2.6-2.1-3.7-2.4-1.7-.5-1.4 1.2-4.8-1s1.2-2.9-1-4.1c-2.2-1.2-2.6-2.9-4.3-3.6s-2.9.5-1.7-.7-1-3.1-1.2-4.1 7.7 1.4 7.7 1.4l-.3-.6c-.5-.8-1.8-2.4-4-3.2-.3-.1-.5-.2-.7-.3-2.1-.7-.9 0-5-1.7-4.6-1.8-6.5-3.2-6.5-3.2s-.5-2 1.2-2.1-4.8-1.3-6.5-3-1.9-3.8-1.9-3.8l-1.2-2.9s1-3.1-.2-4.1c-.8-.6-2.5-2.6-3.9-4.2-.8-.9-1.4-1.7-1.6-1.9-.5-.6.5-2.2.5-2.2l-8.1-5s1.7-1.9 1-2.2-3.8-2.4-3.8-2.4l-4.8-3.7s-.7-1.6-.2-2.5c.5-1 1.7-.1.5-1.6-.2-.3-.4-.5-.7-.7-1.4-.5-2.7-1.2-3.9-2.2-4.7-4.4-6.8-10.6-7.8-16.6l-2.1 1-13.7 5.4H46l-12.2 5.7s5-1.2 4.3 0-7.2 5.6-7.2 5.6 5.5-.4 4.8 0-4.8 5-4.8 5l-7.7 5.3s4.5-1 4.3 0-2.9 4.9-4.3 5.7-3.8 3.2-3.8 3.2 3.1.2 2.4 1.2-.2 3.4-.2 3.4 1.2 2.4.5 3.4c-.6.8-1.9 2.2-1.2 3-.4.2-.3.3 0 .4zm53.8-53.7v-.5c-2.4-.7-5.4-1.4-8.1-1.9.3 4.5.9 11.2 2.9 11.3.9.1 2.5-.1 4.6-.6l2.4-3.8c-1.2-2.6-1.8-4.5-1.8-4.5z"/><path fill="#AEABA1" d="M183.3 66.6s-.5 5.8-1.2 13.1c1.4.2 3.5.6 4.5 1.4 0 0-1.8 24.5-5.6 39.7 0 .6.1 1.2.1 1.7 1.7-5 4.7-14.4 7-26.7 3.6-18.8-.6-33.5-.6-33.5l-2.9-2v5l-1.3 1.3z"/><path fill="#344041" d="M182.1 79.8c-.9 11.1-2.1 26-1.8 30.4.2 3.8.5 7.8.7 10.8 3.8-15.2 5.6-39.7 5.6-39.7-1-.9-3.1-1.3-4.5-1.5z"/><path fill="#2B303C" d="M134.1 164.3c.5-3.5 4.9-33 17.2-44.8 0 0 2.2-2.2 2.8.8 0 0-14.5 15.8-18.5 44.4h-.4l1.1.4h7.8s8-8.6 8.5-14.8v-1l1.4-1.4c-3.4-2.5-3-9.6-1-14.9 1.7-4.4 5.8-10.7 9.5-12.6-5.7-1.1-11.6-2.7-16.5-4.3l-18 21.4v24.7l6.1 2.1zm35.4-39.6l1.3-3.1c-1.1-.1-2.3-.2-3.4-.4 1 1 1.7 2.4 2.1 3.5z"/><path fill="#535F6A" d="M133.1 59.5v-1.8l13.8 1.8v1.3c5.3.2 17.1 1.1 26.3 4.4 1-6.8 2.7-19.6 3.1-32.6-12-24-48.3-24.2-48.3-24.2v51.1h5.1z"/><path fill="#7B888C" d="M173.2 65.2c2.2.8 4.2 1.7 6 2.8l-.1 2.7c.8.5 1.5.9 2 1.2l.3-5.4h-1.1l.6-2.9s2.4-2.6 1.9-7.5c-.4-4.9-.6-5.7-.6-5.7-.4-7-6-17.8-6-17.8-.4 13-2 25.8-3 32.6z"/><path fill="#475A64" d="M128 97.8v10.6s3.3 0 7.5 1.4L148 63.7c-.4 0-.8-.1-1.2-.1v1.9l-14.2 4v-2.2H128v30.5z"/><path fill="#50636F" d="M178.6 78.8l-8.4-10.7s-11.5-3.7-22.1-4.4l-12.6 45.9c3.3 1.1 7.2 3 10.5 6.5 4.9 1.5 10.7 3.2 16.5 4.3 1-.5 1.9-.7 2.7-.5.9.2 1.6.7 2.3 1.3 1.2.2 2.3.3 3.4.4l8.4-19.8 1.8-29.9c-.5-.3-1.2-.8-2-1.2l-.5 8.1z"/><path fill="#697A82" d="M146.8 63.7c.4 0 .8 0 1.2.1 10.6.7 22.1 4.4 22.1 4.4l8.4 10.7.4-8.1.1-2.7c-1.8-1.1-3.8-2-6-2.8-9.2-3.3-21-4.2-26.3-4.4v2.8h.1zm30.6 11L173 69l4.3 1.5.1 4.2z"/><path fill="#1B2029" d="M128 67.3h4.6v2.2l14.2-4v-6l-13.7-1.8v1.8H128v4.1z"/><path fill="#50636F" d="M173 69l4.4 5.7v-4.2z"/><path fill="#1C1D1F" d="M128 110.2v27.4l17.9-21.4c-3.3-3.5-7.2-5.4-10.5-6.5-4.2-1.3-7.5-1.4-7.5-1.4v1.9h.1z"/><path fill="#171C2B" d="M154.1 120.3c-.6-3-2.8-.8-2.8-.8-12.2 11.8-16.7 41.3-17.2 44.8l1 .4h.4c4.1-28.6 18.6-44.4 18.6-44.4z"/><path fill="#616E63" d="M180.9 63.6l-.6 2.9h1.1l-.3 5.4-1.8 29.9-8.4 19.8-1.3 3.1c.4 1.2.6 2.1.6 2.1l1.6 5.3-1 1.9.3 1.1-1.9 5.3.4 4.8c4.9-4.3 8.3-10.8 10.2-15.2 1.2-2.7 1.8-4.6 1.8-4.6v-.5c0-.5-.1-1.3-.2-2.3 0-.5-.1-1.1-.1-1.7-.2-2.9-.5-6.9-.7-10.8-.3-4.4.9-19.2 1.8-30.4.6-7.4 1.2-13.1 1.2-13.1l1.3-1.3v-15h-2.4s.1.8.6 5.7c.2 5.1-2.2 7.6-2.2 7.6z"/><path fill="#23252D" d="M167.4 121.2c-.6-.6-1.3-1-2.3-1.3-.9-.2-1.8 0-2.7.5-3.7 1.9-7.8 8.2-9.5 12.6-2 5.3-2.4 12.4 1 14.9l1.6-1.7c-3.3-2.6-2.3-8.7-.7-13.4 1.7-4.9 6.5-11.5 10.3-10.4s4.5 5 4.5 5l-1.5 1 .4 3.8h1.3l.6 1.9 1-1.9-1.6-5.3s-.1-.9-.6-2.1c-.1-1.2-.8-2.6-1.8-3.6z"/><path fill="#3B4150" d="M168.6 132.1l-.4-3.8 1.5-1s-.7-4-4.5-5-8.6 5.5-10.3 10.4c-1.6 4.7-2.7 10.8.7 13.4l13-14z"/><path fill="#364155" d="M128 170.3v7.3h7.2l1-11.6-8.2-2.9v2.9z"/><path fill="#56646F" d="M153.6 150.3s1.6 4.8-9 15.6c0 0-3.4 1-8.4 0l-1 11.7 6.6-1.6 4.8-4c2.4-2 8.2-8.8 13.4-15 5.1-6.1 9.5-11.6 9.5-11.6v-.2l-.4-4.8 1.9-5.3-.3-1.1-.6-1.9-16.5 18.2z"/><path fill="#1A2232" d="M144.6 166c10.6-10.8 9-15.6 9-15.6l16.5-18.2h-1.3l-13.1 14-1.6 1.7-1.4 1.4v1c-.4 6.1-8.5 14.8-8.5 14.8h-7.8l-1.1-.4-1-.4-6.1-2.1v.9l8.2 2.9c4.8 1 8.2 0 8.2 0z"/><path fill="#87867E" d="M74.9 122.6c0-.5.1-1.1.1-1.7-3.8-15.2-5.6-39.7-5.6-39.7.9-.8 3.1-1.2 4.5-1.4-.6-7.4-1.2-13.1-1.2-13.1l-1.3-1.3v-5l-2.9 2s-4.2 14.6-.6 33.5c.4 2 .8 3.9 1.2 5.7l1.9 7.9c1.4 5.7 2.9 10.1 3.9 13.1z"/><path fill="#273334" d="M73.9 79.8c-1.4.2-3.5.6-4.5 1.4 0 0 1.8 24.5 5.6 39.7.2-2.9.5-6.9.7-10.8.3-4.3-.8-19.2-1.8-30.3z"/><path fill="#171C2B" d="M128 137.5l-17.9-21.4c-4.9 1.5-10.7 3.2-16.5 4.3 3.7 1.9 7.8 8.2 9.5 12.6 2 5.3 2.4 12.4-1 14.9l1.4 1.4v1c.4 6.1 8.5 14.8 8.5 14.8h7.8l1.1-.4h-.4c-4-28.6-18.5-44.4-18.5-44.4.6-3 2.8-.8 2.8-.8 12.2 11.8 16.7 41.3 17.2 44.8l6.1-2.1v-24.7h-.1zm-39.4-16.3c-1.2.2-2.3.3-3.4.4l1.3 3.1c.4-1.1 1.1-2.5 2.1-3.5z"/><path fill="#414C56" d="M82.8 65.2c9.2-3.3 21-4.2 26.3-4.4v-1.3l13.8-1.8v1.8h5.1V8.4s-36.3.2-48.2 24.2c.4 13 2 25.8 3 32.6z"/><path fill="#535F6A" d="M75.1 63.6l.6 2.9h-1.1l.3 5.4c.5-.3 1.2-.8 2-1.2l-.1-2.7c1.8-1.1 3.8-2 6-2.8-1-6.8-2.7-19.6-3.1-32.6 0 0-5.5 10.8-6 17.8 0 0-.1.8-.6 5.7-.4 5 2 7.5 2 7.5z"/><path fill="#384851" d="M128 105.8V67.3h-4.6v2.2l-14.2-4v-1.9c-.4 0-.8 0-1.2.1l12.6 45.9c4.2-1.3 7.5-1.4 7.5-1.4v-2.4h-.1z"/><path fill="#475A64" d="M90.9 120c.9-.2 1.8 0 2.7.5 5.7-1.1 11.6-2.7 16.5-4.3 3.3-3.5 7.2-5.4 10.5-6.5l-12.6-46c-10.6.7-22.1 4.4-22.1 4.4l-8.4 10.7-.5-8.1c-.8.5-1.5.9-2 1.2l1.8 29.9 8.4 19.8c1.1-.1 2.3-.2 3.4-.4.6-.5 1.4-1 2.3-1.2z"/><path fill="#5C6C73" d="M77.4 78.8l8.4-10.7s11.5-3.7 22.1-4.4c.4 0 .8-.1 1.2-.1v-2.9c-5.3.2-17.1 1.1-26.3 4.4-2.2.8-4.2 1.7-6 2.8l.1 2.7.5 8.2zm1.2-8.3L83 69l-4.3 5.7-.1-4.2z"/><path fill="#131821" d="M109.2 63.7v1.8l14.2 4v-2.2h4.6v-7.8h-5.1v-1.8l-13.7 1.8v1.3z"/><path fill="#475A64" d="M83 69l-4.4 1.5v4.2z"/><path fill="#131417" d="M128 137.5v-29.1s-3.3 0-7.5 1.4c-3.3 1.1-7.2 3-10.5 6.5l18 21.2z"/><path fill="#090D1D" d="M104.8 119.5s-2.2-2.2-2.8.8c0 0 14.5 15.8 18.5 44.4h.4l1-.4c-.5-3.5-4.9-33-17.1-44.8z"/><path fill="#505D53" d="M72.7 66.6s.5 5.8 1.2 13.1c.9 11.1 2.1 26 1.8 30.4-.2 3.8-.5 7.8-.7 10.8 0 .6-.1 1.2-.1 1.7-.1 1-.1 1.8-.2 2.3v.5s.6 1.9 1.8 4.6c.4.9.8 1.8 1.3 2.8 2.1-.6 4.4-1.4 7.2-2.5l1-3.5s.1-.9.6-2.1l-1.3-3.1-8.4-19.8L75 71.9l-.3-5.4h1.1l-.6-2.9s-2.4-2.6-1.9-7.5c.4-4.9.6-5.7.6-5.7h-2.4v15l1.2 1.2z"/><path fill="#131417" d="M87.8 128.4l-1.5-1s.7-4 4.5-5c3.8-1.1 8.6 5.5 10.3 10.4 1.6 4.7 2.7 10.8-.7 13.4l1.6 1.7c3.4-2.5 3-9.6 1-14.9-1.7-4.4-5.8-10.7-9.5-12.6-1-.5-1.9-.7-2.7-.5-.9.2-1.6.7-2.3 1.3-1.1 1-1.7 2.3-2.1 3.4-.4 1.2-.6 2.1-.6 2.1l-1 3.5c.9-.4 1.8-.7 2.8-1.2l.2-.6z"/><path fill="#2D3240" d="M100.5 146.2c3.3-2.6 2.3-8.7.7-13.4-1.7-4.9-6.5-11.5-10.3-10.4s-4.5 5-4.5 5l1.5 1-.1.8c1.2-.5 2.4-1.1 3.7-1.7 0 0 9.4 2.1 7.3 14.2 0 0-.6.4-1.6.9l3.3 3.6z"/><path fill="#232C3D" d="M128 170.3v-7.2l-8.2 2.9 1 11.6h7.2z"/><path fill="#404C55" d="M109.5 172l4.8 4 6.6 1.6-1-11.7c-4.9 1-8.4 0-8.4 0-10.6-10.8-9-15.6-9-15.6l-6.4-7.1c-2 1.1-4.8 2.5-8.1 3.8 1.7 2.1 4.8 5.9 8.1 9.9 5.1 6.3 10.9 13.1 13.4 15.1z"/><path fill="#090D1D" d="M102.4 150.3s-1.6 4.8 9 15.6c0 0 3.4 1 8.4 0l8.2-2.9v-.9l-6.1 2.1-1 .4-1.1.4H112s-8-8.6-8.5-14.8v-1l-1.4-1.4-1.6-1.7-3.3-3.6c-.3.2-.7.4-1.1.6l6.3 7.2z"/><path fill="#404C44" d="M63.7 147.8c1.1 1 2.4 1.8 3.9 2.2 5.8 1.9 13.9-.3 20.3-2.9 3.3-1.3 6.1-2.8 8.1-3.8.4-.2.8-.4 1.1-.6 1-.6 1.6-.9 1.6-.9 2.1-12.1-7.3-14.2-7.3-14.2-1.3.6-2.5 1.2-3.7 1.7-1 .4-1.9.8-2.8 1.2-2.7 1.1-5.1 1.9-7.2 2.5-1.4.4-2.6.7-3.7 1-2.2.5-3.7.6-4.6.6-2-.1-2.6-6.9-2.9-11.3-.1-1.3-.1-2.4-.2-3.1-.3-5 5.6-5.8 5.6-5.8l-1.1-4.6-1.9-7.9s-12.3 2.4-13.3 13.3c-.3 2.8-.7 8.2-.1 14.1.1.7.2 1.3.3 2v.1c1.1 5.7 3.3 12 7.9 16.4z"/></svg>