<svg xmlns="http://www.w3.org/2000/svg" width="256" height="256"><circle fill="#B2B4B5" cx="128" cy="128" r="128"/><path fill="none" d="M158.8 121.8c.5-.9 1.6-2.6 2.9-4.8l-2.9 4.8zM94.3 117c1.3 2.2 2.4 3.9 2.9 4.8l-2.9-4.8z"/><path fill="#282932" d="M78.2 176.1l6-20.3c-.8-1-1.6-2.1-2.2-3.1 0 0-.7-1.2-1-3.4l-1-.9-24.2-9.9L67 155.7l11.2 20.4z"/><path fill="#2B2D36" d="M100.6 161.5c.6.4 1.2.8 1.9 1.1h.1c-.7-.3-1.4-.7-2-1.1zm13.9 61.3l13.5.3v-20.3h-8.2l-2.9-10.2-23.5-8.9-.3-1.8 26.7 9.9-3.7-11-23.2-11.2-1.6-6.2.9-.1c-3-2.3-5.9-4.9-8.1-7.5l-6 20.3L97 210.7l17.5 12.1z"/><path fill="#16171F" d="M102.5 162.6c1.1.6 2.1 1.1 3.2 1.6-1.1-.5-2.2-1-3.2-1.6zm-9.6 7l23.2 11.2 3.7 11-26.7-9.9.3 1.8 23.5 8.9 2.9 10.2h8.2v-26.1h-11.1l-6.2-2.3s-9.8-4.6-18.3-11.1l-.9.1 1.4 6.2z"/><path fill="#545B6D" d="M100.5 15c-.2.1-.3.1-.5.2h.1l.4-.2zm10 34H128V8.4c-9.7 0-21.6 4.3-27.4 6.6l6 23.7 3.9 10.3z"/><path fill="#2B2D36" d="M127.9 142.7v-3.3c-1.4-.1-12.1-.4-19.9 1.1l-6.5 7.9-4.5-3.7v.1l6.9 7 5.6-7.8c0-.1 4.6-2.1 18.4-1.3z"/><path fill="#969DB3" d="M100.6 161.5c.6.4 1.3.8 1.9 1.1 1 .6 2 1.1 3.1 1.6l7.8-11-4-9.3-5.6 7.8-6.9-7v-.1l-1.7-1.4-.9.8-2.7 2.4-7.1-7.5c-.2-11.1-2.7-17.7-2.7-17.7l1.8-6.8c-1.7-2.7-3.4-5.2-4.7-7 .5 8.3 1.6 26.2 2 36.4.1 0 9.9 11.4 19.7 17.7z"/><path fill="#2B2D36" d="M92 128.2l-.7-1.4c-.9-1.6-4.3-7.3-7.5-12.4l2.4 3.8-.7 2.7c2.3 7.6 2.2 16.8 2.2 16.8l6.8 6.3.9-.8c.5-5.9-3.4-15-3.4-15zM78.7 80.6l2-3.3-.8-6.7-3.1-10.8-2.1 7.2 3.4 6.7z"/><path fill="#545B6D" d="M78 81.8l.7-1.2-.7-6.9-3.3-6.7v-.1s-1.3 4.9-2.6 9.4c-.9 3.2.4 9.4 1.2 12.8l4.7-7.3z"/><path fill="#2B2D36" d="M97.2 121.8c.2.4.4.6.4.6l-.4-.6z"/><path fill="#2B2D36" d="M105.6 39.3l13.1 33.8-.2 9.8L115 86s-3.1-2.9-25.6-4.3l-1.8 2.7-4.3-3-2.5-3.5-.1-.6-2 3.3-.7 1.2.8-1.2c2.6 4.8 13.6 10.2 13.6 10.2l18.8-.4 4.9 5.5v12.8l-18.5 13.7-6.1 4.9s-.1-.2-.3-.4l.8 1.4 6.2-4.7 18.9-14.4V95.5l-5.3-5.7 8.1-6.2v-11l-9.1-22.2h17.1V49h-17.5l-3.9-10.3-6-23.7-.4.2 5.5 24.1zm3.6 50.3H94.7L89.6 87l2.1-3.3s9.7-.6 21.1 2.2l-3.6 3.7z"/><path fill="#9EA2B2" d="M82.4 40.7l12.5-4.6 5.5 3.8 5.3-.7-5.5-24h-2.3s-12.6 7.8-16 9.9-4.5 11.7-4.5 11.7l3.6 8.3c.6-2.7 1.4-4.4 1.4-4.4z"/><path fill="#545B6D" d="M80.7 77.3l.1.6 2.5 3.5 1.2-5.3-4.6-21.9c0-3.6.5-6.7 1.1-9.1l-3.6-8.3c-1.2 5.9-2.5 16.6-2.5 16.6l1.8 6.4 3.1 10.8.9 6.7z"/><path fill="#8B90A2" d="M108 140.5c7.8-1.5 18.5-1.2 19.9-1.1V50.2h-17.1l9.1 22.2v11l-8.1 6.2 5.3 5.7V109l-18.9 14.4 9.8 17.1z"/><path fill="#8B90A2" d="M89.6 71.2l-.2 10.4c22.5 1.4 25.6 4.3 25.6 4.3l3.5-3.1.2-9.8-13.1-33.8-5.3.7-5.5-3.8-12.5 4.6 7.3 30.5zM105 67c-1.6 1.3-3.4-1.4-4.9-4.4-1.6-3.1-7.5-15.8-7.5-15.8s-.3-3.2 4-2.4c0 0 7.3 15.6 8.5 18.2 1 2.6 1.5 3.1-.1 4.4z"/><path fill="#777C8C" d="M87.5 84.4l1.8-2.7.2-10.4-7.2-30.5s-.7 1.7-1.4 4.4c-.6 2.3-1.1 5.5-1.1 9.1l4.6 21.9-1.2 5.3 4.3 2.9z"/><path fill="#8B90A2" d="M116.1 95.9l-4.9-5.5-18.8.4-5.1 13.3c1.6 3.7 4.6 9 7 12.9l2.9 4.8.4.6 18.5-13.7V95.9z"/><path fill="#777C8C" d="M91.3 126.8c.2.3.3.4.3.4l6.1-4.9s-.1-.2-.4-.6c-.5-.9-1.6-2.6-2.9-4.8-2.4-3.9-5.4-9.2-7-12.9l5.1-13.3s-11-5.4-13.6-10.2l-.9 1.3-4.7 7.4-.1.2s1.4 12.4 5.4 17.5c.1.2.3.4.4.6 1.3 1.7 3 4.3 4.7 7 3.3 5 6.6 10.7 7.6 12.3zm16.7 13.7l-9.8-16.9-6.2 4.7s3.9 9 3.3 15l1.7 1.4 4.5 3.7 6.5-7.9z"/><path fill="#636979" d="M87.6 137.7s.1-9.2-2.2-16.8l.7-2.7-2.4-3.8-1.8 6.8s2.5 6.6 2.7 17.7l7.1 7.5 2.7-2.4-6.8-6.3z"/><path fill="#8B90A2" d="M127.9 145.6v-2.9c-13.9-.8-18.5 1.3-18.5 1.3l4 9.3h14.5v-7.7z"/><path fill="#545B6D" d="M127.9 160.8v-7.6h-14.4l4.2 9.3h10.2z"/><path fill="#454B57" d="M84.2 155.8c2.2 2.7 5 5.2 8.1 7.5 8.5 6.4 18.3 11.1 18.3 11.1l7.1-11.9-4.2-9.3-7.8 11c-1-.4-2.1-1-3.2-1.6-.6-.4-1.2-.7-1.9-1.1-9.8-6.3-19.6-17.7-19.6-17.7-.4 2.2-.3 4.1-.1 5.5.3 2.2 1 3.4 1 3.4.7 1.1 1.4 2.1 2.3 3.1z"/><path fill="#30353F" d="M127.9 176.8v-14.3h-10.2l-7.1 11.9 6.2 2.4z"/><path fill="#686C7B" d="M96.5 44.3c-4.3-.8-4 2.4-4 2.4s5.9 12.8 7.5 15.8c1.6 3.1 3.4 5.7 4.9 4.4 1.6-1.3 1.1-1.8 0-4.4s-8.4-18.2-8.4-18.2z"/><path fill="#FFF" d="M91.6 83.7l-2 3.3 5.1 2.6h14.5l3.5-3.7c-11.3-2.8-21.1-2.2-21.1-2.2z"/><path fill="#545A67" d="M114.5 222.8L97 210.7l-18.8-34.6L67 155.7l-6.7-1.5 25.6 64.1 15 4.8h1.3l-.4-.6z"/><path fill="#545B6D" d="M75.6 231.6l10.3-13.3-25.6-64.1h-40l12.4 59.1.1.1-7.3-35 7.7-8.8 25.6-3.7 11.7 29.3.4 1 9.5 23.8-8.4 9.7-13.2 3.4-14.8-8.8c4.8 4.2 9.9 8.1 15.3 11.5l.2.1 16.1-4.3zm31-.6l-4.4-7.9H101l-15-4.8 14.7 4.8 3.7 6.7-15-3.8-8.7 12.1-12.4 3.1c5.6 2.9 11.4 5.5 17.4 7.6l9.3-12.7 13.9 2.2-15.2 13c10.9 3.1 22.4 4.7 34.3 4.7v-27.6l-21.4 2.6z"/><path fill="#8B90A2" d="M71.9 229.8l8.4-9.7-9.5-23.8-21.6 3.4-11-5.1-6.5-22.9 1.5-1.9-7.7 8.8 7.3 35c3.5 3.9 7.2 7.6 11.2 11l14.8 8.8 13.1-3.6zM57.8 224c-1.5 2.4-6.8 0-11.8-3s-11.4-6.3-9.1-9.2c1.9-2.4 6.1.7 12 4.2 5.8 3.5 10.4 5.6 8.9 8z"/><path fill="#8B90A2" d="M49.5 197.2l20.4-3 .5 1.1L58.7 166l-25.6 3.6 6.6 22.8z"/><path fill="#969DB3" d="M89.4 226l14.9 3.8-3.7-6.7-14.7-4.8-10.3 13.3-16.2 4.4-.2-.1c.8.5 1.7 1 2.5 1.6l16.3-4.2 8.8-12.2 15 4.2 1.2 2.2-14.8-4.4-9.4 12.1-14.6 3.8c1.3.8 2.7 1.5 4.1 2.2l12.4-3.1 8.7-12.1z"/><path fill="#6A6F7E" d="M127.9 223.1l-13.4-.3-12.7-.3.4.6 4.4 7.9 21.3-2.6v-.1z"/><path fill="#2B2D36" d="M60.3 154.2l6.7 1.4-11.3-17.2-45.6-1.4 10.2 17.2h40zm-27.2-14.3l7.5 11.8H33l-7-12 7.1.2zm-17.9-.4l7.1.2 7.5 12h-7.6l-7-12.2z"/><path fill="#16171F" d="M10.1 137L8 158.4l1.4 17.7c1.6 4 3.4 7.8 5.4 11.6l-1-14.9-3.7-13.2v-7.9l11.6 17.2 10.2 43.5c.3.3.5.6.8.9l-12.4-59.1L10.1 137z"/><path fill="#2B2D36" d="M10.1 151.7v7.9l3.7 13.2 1 14.9c4.7 8.9 10.5 17.2 17.1 24.7l-10.2-43.5-11.6-17.2z"/><path fill="#16171F" d="M29.8 151.7l-7.5-12-7.1-.2 7 12.2zm10.8 0l-7.5-11.8-7.1-.2 7 12z"/><path fill="#282932" d="M88.2 223.1l14.8 4.4-1.2-2.2-15-4.2-8.8 12.1-16.3 4.2c.8.5 1.6 1 2.5 1.5l14.6-3.7 9.4-12.1z"/><path fill="#777C8C" d="M94.9 236.1l-9.3 12.7c2.6.9 5.2 1.8 7.9 2.5l15.2-13-13.8-2.2z"/><path fill="#393B45" d="M38.1 194.5l11 5.1 21.7-3.4-.4-.9-.5-1.1-20.4 3-9.8-4.8-6.6-22.8-1.5 1.9z"/><path fill="#282932" d="M48.9 216c-5.9-3.5-10.1-6.6-12-4.2-2.3 2.9 4.1 6.2 9.1 9.2s10.3 5.4 11.8 3-3.1-4.5-8.9-8zm122.9-60.2l6 20.3 11.1-20.4 11.3-17.2-24.2 9.9-1 .9c-.3 2.2-1 3.4-1 3.4-.6 1.1-1.3 2.1-2.2 3.1z"/><path fill="#393B45" d="M155.4 161.5c-.6.4-1.3.8-1.9 1.1h.1c.6-.3 1.2-.7 1.8-1.1zm7.7 8.1l-23.2 11.2-3.7 11 26.7-9.9-.3 1.8-23.5 8.9-2.9 10.2h-8.4v20.3l13.6-.3 17.5-12 18.8-34.6-6-20.3c-2.2 2.7-5 5.2-8.1 7.5l.9.1-1.4 6.1z"/><path fill="#282932" d="M153.5 162.6c-1 .6-2 1.1-3.1 1.6 1-.4 2.1-1 3.1-1.6zm-25.4 14.2h-.2v26.1h8.4l2.9-10.2 23.5-8.9.3-1.8-26.7 9.9 3.7-11 23.2-11.2 1.6-6.2-.9-.1c-8.5 6.4-18.3 11.1-18.3 11.1l-6.2 2.3h-11.3z"/><path fill="#5F667A" d="M156 15.2c-.2-.1-.3-.1-.5-.2l.5.2zM128.1 49h17.5l3.9-10.3 6-23.7c-5.8-2.3-17.7-6.6-27.4-6.6h-.2V49h.2z"/><path fill="#393B45" d="M148 140.5c-8.4-1.7-20.1-1.1-20.1-1.1v3.3c14-.8 18.6 1.3 18.6 1.3l5.6 7.8 6.9-7v-.1l-4.5 3.7-6.5-7.9z"/><path fill="#B0B8D1" d="M172.3 114.4l1.8 6.8s-2.5 6.6-2.7 17.7l-7.1 7.5-3.6-3.2-1.7 1.4v.1l-6.9 7-5.6-7.8-4 9.3 7.8 11c1.1-.5 2.1-1 3.1-1.6.7-.4 1.3-.7 1.9-1.1 9.8-6.3 19.6-17.7 19.6-17.7.4-10.1 1.4-28.1 2-36.4-1.3 1.7-2.9 4.3-4.6 7z"/><path fill="#393B45" d="M160.7 143.2l3.5 3.2-2.7-2.4 6.8-6.3s-.1-9.2 2.2-16.8l-.7-2.7 2.4-3.8c-3.2 5.1-6.6 10.8-7.5 12.4l-.8 1.4c.1 0-3.8 9.1-3.2 15zm14.6-65.9l2 3.3.6-6.9 3.4-6.7-2.1-7.2-3.1 10.8z"/><path fill="#5F667A" d="M177.3 80.6l.7 1.2 4.7 7.4c.8-3.3 2.1-9.6 1.2-12.8-1.3-4.5-2.6-9.4-2.6-9.4v.1l-3.3 6.6-.7 6.9z"/><path fill="#393B45" d="M158.8 121.8l-.4.6.4-.6zM145.5 49h-17.7v1.3h17.3L136 72.5v11l8.1 6.2-5.3 5.7v13.7l18.9 14.4 6.2 4.7.8-1.4c-.2.3-.3.4-.3.4l-6.1-4.9-18.5-13.7V95.9l4.9-5.5 18.8.4s11-5.4 13.6-10.2l.8 1.2-.7-1.2-2-3.3-.1.6-2.5 3.5-4.3 3-1.8-2.7C144 83.1 140.9 86 140.9 86l-3.5-3.1-.2-9.8 13.1-33.8 5.5-24-.4-.2-6 23.7-3.9 10.2zm18.9 34.7l2.1 3.3-5.1 2.6h-14.5l-3.5-3.7c11.2-2.8 21-2.2 21-2.2z"/><path fill="#B2B6C7" d="M150.4 39.3l5.3.7 5.5-3.8 12.5 4.6s.7 1.7 1.4 4.4l3.6-8.3s-1.1-9.6-4.5-11.7-16-9.9-16-9.9h-2.3l-5.5 24z"/><path fill="#5F667A" d="M176.1 54.2l-4.6 21.9 1.2 5.3 2.5-3.5.1-.6.8-6.7 3.1-10.8 1.8-6.4s-1.2-10.7-2.5-16.6l-3.6 8.3c.7 2.3 1.2 5.5 1.2 9.1z"/><path fill="#9BA0B4" d="M127.9 53.4v86s11.7-.5 20.1 1.1l9.8-16.9-18.9-14.4V95.5l5.3-5.7-8.1-6.2v-11l9.1-22.2h-17.3v3z"/><path fill="#9BA0B4" d="M173.6 40.7l-12.5-4.6-5.5 3.8-5.3-.7L137.2 73l.2 9.8 3.5 3.1s3.1-2.9 25.6-4.3l-.2-10.4 7.3-30.5zM151 67c-1.6-1.3-1.1-1.8 0-4.4 1.1-2.7 8.5-18.2 8.5-18.2 4.3-.8 4 2.4 4 2.4s-5.9 12.8-7.5 15.8-3.4 5.6-5 4.4z"/><path fill="#898EA0" d="M176.1 54.2c0-3.6-.5-6.7-1.1-9.1-.7-2.7-1.4-4.4-1.4-4.4l-7.2 30.5.2 10.4 1.8 2.7 4.3-3-1.2-5.3 4.6-21.8z"/><path fill="#9BA0B4" d="M161.7 117c2.4-3.9 5.4-9.2 7-12.9l-5.1-13.3-18.8-.4-4.9 5.5v12.8l18.5 13.7.4-.6 2.9-4.8z"/><path fill="#898EA0" d="M178 81.8l-.8-1.2c-2.6 4.8-13.6 10.2-13.6 10.2l5.1 13.3c-1.6 3.7-4.6 9-7 12.9-1.3 2.2-2.4 3.9-2.9 4.8-.2.4-.4.6-.4.6l6.1 4.9s.1-.2.3-.4c.9-1.6 4.3-7.3 7.5-12.4 1.7-2.7 3.4-5.2 4.7-7 .1-.2.3-.4.4-.6 4-5.1 5.4-17.5 5.4-17.5l-.1-.2-4.7-7.4zm-30 58.7l6.5 7.9 4.5-3.7 1.7-1.4c-.6-6 3.3-15 3.3-15l-6.2-4.7-9.8 16.9z"/><path fill="#747B8D" d="M170.6 120.9c-2.3 7.6-2.2 16.8-2.2 16.8l-6.8 6.3 2.7 2.4 7.1-7.5c.2-11.1 2.7-17.7 2.7-17.7l-1.8-6.8-2.4 3.8.7 2.7z"/><path fill="#9BA0B4" d="M127.9 142.7v10.5h14.7l4-9.3c-.1 0-4.7-2-18.7-1.2z"/><path fill="#5F667A" d="M127.9 153.2v9.3h10.4l4.2-9.3h-14.4z"/><path fill="#545A67" d="M155.4 161.5c-.6.4-1.2.8-1.9 1.1-1.1.6-2.1 1.1-3.2 1.6l-7.8-11-4.2 9.3 7.1 11.9s9.8-4.6 18.3-11.1c3-2.3 5.9-4.9 8.1-7.5.8-1 1.6-2.1 2.2-3.1 0 0 .7-1.2 1-3.4.2-1.4.3-3.3-.1-5.5.1 0-9.7 11.4-19.5 17.7z"/><path fill="#393F4A" d="M127.9 162.5v14.3h11.3l6.2-2.4-7.1-11.9h-10.2z"/><path fill="#7B8091" d="M163.5 46.7s.3-3.2-4-2.4c0 0-7.3 15.6-8.5 18.2-1.1 2.7-1.6 3.2 0 4.4 1.6 1.3 3.4-1.4 4.9-4.4 1.7-3 7.6-15.8 7.6-15.8z"/><path fill="#FFF" d="M161.3 89.6l5.1-2.6-2.1-3.3s-9.7-.6-21.1 2.2l3.5 3.7h14.6z"/><path fill="#545A67" d="M189 155.7l-11.2 20.4-18.8 34.6-17.5 12.1 12.7-.3-.4.6h1.3l15-4.8 25.6-64.1z"/><path fill="#5F667A" d="M166.6 226l-14.9 3.8 1.3-2.3 1.2-2.2 1.2-2.2 14.7-4.8-15 4.8h-1.2l-4.4 7.9-21.5-2.7V256h.2c11.9 0 23.4-1.6 34.4-4.7l-15.3-13 13.9-2.2 9.3 12.7c6-2.1 11.9-4.7 17.4-7.6l-12.5-3.1-8.8-12.1z"/><path fill="#5F667A" d="M195.7 154.2l-25.6 64.1 10.3 13.3 16.2 4.5 1.1-.6c5.2-3.4 10.2-7.2 14.9-11.3l-15.2 9.1-13.2-3.4-8.4-9.7 9.9-24.7.5-1.2 11.2-28.2 25.6 3.7 7.7 8.8-7.4 35.2.1-.1 12.5-59.4-40.2-.1z"/><path fill="#9BA0B4" d="M222.9 169.6l1.5 1.9-6.5 22.9-11 5.1-21.6-3.4.4-.9-9.9 24.7 8.4 9.7 13.2 3.4 15.2-9.1c3.8-3.3 7.3-6.8 10.7-10.5l7.4-35.2-7.8-8.6zM210 221c-5 3-10.3 5.4-11.8 3s3.1-4.6 8.9-8c5.9-3.5 10.1-6.6 12-4.2 2.3 2.9-4.1 6.2-9.1 9.2z"/><path fill="#9BA0B4" d="M216.3 192.4l6.6-22.8-25.6-3.6-11.2 28.2 20.4 3z"/><path fill="#B0B8D1" d="M167.8 223.1l-14.8 4.4-1.3 2.3 14.9-3.8 8.7 12.1 12.5 3.1c1.4-.7 2.7-1.5 4.1-2.2l-14.7-3.7-9.4-12.2z"/><path fill="#B0B8D1" d="M180.4 231.6l-10.3-13.3-14.7 4.8-1.2 2.2 15-4.2 8.8 12.2 16.4 4.3 3.3-2.1-1.1.6-16.2-4.5z"/><path fill="#7B8091" d="M141.5 222.8l-13.6.3v5.2l21.5 2.7 4.4-7.9.4-.6z"/><path fill="#393B45" d="M195.7 154.2h40l10.2-17.2-45.6 1.4-11.3 17.3 6.7-1.5zm45.1-14.7l-7 12.2h-7.6l7.5-12 7.1-.2zm-17.9.4l7.1-.2-7 12h-7.6l7.5-11.8z"/><path fill="#282932" d="M245.9 137l-10.2 17.2-12.5 59.4c.3-.3.5-.6.8-.9l10.2-43.7 11.6-17.2v7.9l-3.7 13.2-1 15.3c2-3.7 3.8-7.5 5.4-11.5l1.5-18.2-2.1-21.5z"/><path fill="#393B45" d="M245.9 159.6v-7.9l-11.6 17.2-10.3 43.8c6.6-7.5 12.4-15.8 17.1-24.6l1-15.3 3.8-13.2z"/><path fill="#282932" d="M233.8 151.7l7-12.2-7.1.2-7.5 12zm-3.8-12l-7.1.2-7.5 11.8h7.6zM169.2 221l-15 4.2-1.2 2.2 14.8-4.4 9.4 12.1 14.7 3.7c.8-.5 1.7-1 2.5-1.5L178 233l-8.8-12z"/><path fill="#898EA0" d="M147.2 238.3l15.3 13c2.7-.7 5.3-1.6 7.9-2.5l-9.3-12.7-13.9 2.2z"/><path fill="#393B45" d="M206.9 199.6l11-5.1 6.5-23-1.5-1.9-6.6 22.8-9.8 4.8-20.4-3-.5 1.1-.4.9z"/><path fill="#282932" d="M207.1 216c-5.9 3.5-10.5 5.6-8.9 8 1.5 2.4 6.8 0 11.8-3s11.4-6.3 9.1-9.2c-1.9-2.4-6.1.7-12 4.2z"/></svg>