<svg xmlns="http://www.w3.org/2000/svg" width="256" height="256"><circle fill="#B1B3B5" cx="128" cy="128" r="128"/><path fill="#233431" d="M181.4 51.1l.6 1.2-.6-1.2zm-50.1-32.5c6 .3 18.5 1.5 27.3 5.5-2.6-1.9-5.4-3.5-8.4-4.6-10.5-4.2-15.8-2.1-18.9-.9z"/><path fill="#233431" d="M128.3 14.8c2.8-1.4 14.6-6.6 25.2-.3 12 7 28.4 16.9 30.8 33.2s1.1 29.9 1.1 29.9v-1.2c-.2 3.5-.6 7.2-.9 11 2.5-1.2 5.5-2.1 6.1.1 1 3.8.6 14-1 21.1-1.3 5.5-4.9 17.3-7.5 22.9.2 1.8.4 3.6.7 5.2 3.1 15.1 7.7 37.4 6.2 49.8 0 0-3.1-23.2-7.2-33.5-1.9-4.7-3.2-11.7-4-18.7-.5-.3-1-.7-1.4-1.1-1.8 6.3-4.3 12.6-7.5 17.9l.3-.3-1.9 4c2.5 13.9 6.6 32 12.3 40l2.2-3.2 3.5-.3 3.5-1.6s3.2 0 3.5-1.3c.3-1.3 4.8 2.6 4.8 2.6l1-1.6 1.9-1.6s1.3-.3 3.5 1 2.6 4.8 2.6 4.8l4.2-4.8 1-3.8 2.6 4.2 1.9-2.6c1.6-5.7 2.6-23.9-1-29.7s-3.2-26.2-3.2-35.8-4.2-33.5-7-42.5c-2.9-8.9-2.2-10.9-2.6-20.4-.3-9.6-4.2-14.7-11.5-18.8-7.3-4.2-7-8.6-22.7-20.4-14.6-11-37-9.8-39.9-9.6h.3v5.4z"/><path fill="#233431" d="M178.8 47.3c-.5-.8-1.1-1.7-1.7-2.6.5.9 1 1.9 1.4 2.9-.1-.3-.1-.6-.2-.8.1 0 .2.1.5.5z"/><path fill="#869694" d="M180.4 134.3c-.7.5-1.5.3-2.4-.2.8 7.1 2.1 14.1 4 18.7 4.1 10.3 7.2 33.5 7.2 33.5 1.4-12.5-3.1-34.7-6.2-49.8-.3-1.6-.6-3.3-.7-5.2-.8 1.6-1.5 2.7-1.9 3zm1-83.2c-.1-.2-.2-.4-.4-.6-.6-.9-1.3-2-2.2-3.3l-.5-.5c.1.2.1.5.2.8 1.1 2.3 2.2 4.9 3.4 8l-.1 33.2c.7-.4 1.6-.9 2.7-1.5.4-3.8.7-7.5.9-11-.1-4.1-.6-17.6-3.5-24-.1-.3-.3-.7-.5-1.1z"/><path fill="#C08C76" d="M181.8 104.2s-1 14.3-5.3 28.9c.5.4.9.8 1.4 1.1.9.5 1.7.7 2.4.2.5-.3 1.1-1.4 1.8-2.9 2.6-5.6 6.2-17.4 7.5-22.9 1.6-7 1.9-17.2 1-21.1-.5-2.2-3.6-1.3-6.1-.1-1.1.5-2 1.1-2.7 1.5v15.3z"/><path fill="#0E1F1C" d="M86.6 150.6l.2.2c-3.6-5.7-6.3-12.6-8.4-19.4-.1 2-.2 4.1-.3 6.2.1 8.3.1 16.9-.2 18.8-.1.4-.2.9-.3 1.5v1.7c-.1-.3-.1-.6-.2-.9-1.4 6.2-4.6 20.5-2.7 27.4 0 0-6.1-11.5-3.5-31 .7-5.1 1.1-9.4 1.5-13.3-.7 3.7-1.6 7.1-2.7 9.8-4.1 10.3-7.2 33.5-7.2 33.5-1.4-12.5 3.1-34.7 6.2-49.8s-1.4-41.7-2.6-61.8c-1-16.5 4.5-24.7 6.5-27.2 1.3-7.4 3.5-15 7.6-18.3 6.8-5.6 20.1-14.5 30.7-18.1-7.5 1.1-16.2 3.6-23.1 8.8C72.4 30.6 72.8 35 65.4 39.2c-7.3 4.2-11.2 9.3-11.5 18.8-.3 9.6.3 11.5-2.6 20.4-2.9 8.9-7 32.9-7 42.5s.3 30-3.2 35.8-2.6 23.9-1 29.7L42 189l2.6-4.2 1 3.8 4.2 4.8s.3-3.5 2.6-4.8c2.2-1.3 3.5-1 3.5-1l1.9 1.6 1 1.6s4.5-3.8 4.8-2.6c.3 1.3 3.5 1.3 3.5 1.3l3.5 1.6 3.5.3 2.2 3.2c5.7-8 9.8-26.1 12.3-40l-2-4zM127.9 15c.1-.1.3-.1.4-.2V9.2h-.3c-.7 0-2.5-.2-4.9-.1 3.1 1.1 4.4 3.7 4.8 5.9z"/><path fill="#A37864" d="M51.5 208.6L65 225.3l23.2-5.4c.3-.6.7-1.2 1.2-1.7 2.4-2.4 6.4-2.4 8.8 0s2.4 6.4 0 8.8c-2.4 2.4-6.3 2.4-8.7.1-1.8.3-5.5 1-10 1.9 5.5.1 12.5.2 19.4.1.2-.7.5-1.5.7-2.4 0 0 5-7.2 28.1-7.3v-38.7c-2.1-.1-8.9-.3-12.3-.9-4.1-.7-4.4-3.3-6.1-3.2-1.7 0-2-2.3-2-2.3-.9-.6-1.8-1.2-2.6-2l-2.8-2.1s-3.5-2.9-4.9-3.6c-1.4-.7-3.6-4.7-3.6-4.7l-3.4-4.1-1.5-3.1c-2.5 13.9-6.6 32-12.3 40-1.4 2-2.9 3.3-4.4 3.9-8.8 3.1-17.4 6-21.8 7.5.4.8.8 1.6 1.4 2.5h.1zm70.1 20.1c2.9-.1 5.1-.1 6.1-.1v-.3c-2 0-4.1.1-6.1.4z"/><path fill="#26342F" d="M73.5 241.7c-.8.2-1.7.4-2.6.9.9.4 1.8.9 2.7 1.3 0-.9 0-1.7-.1-2.2zm-22.1-33.1c-.5-.9-1-1.8-1.4-2.5-.3-.6-.5-1.1-.7-1.5-.8.2-10.5 3-19.5 5.6 1 1.2 2 2.3 3 3.5l18.6-5.1zm76.3 24.9v-5c-1 0-3.2.1-6.1.1-12.7 1.8-24.7 8.7-30.4 22 1.8.5 3.5 1 5.3 1.5 6.2-10.9 17.8-18.4 31.2-18.6zm-48.2-4.6c-3 .6-6.4 1.2-10 1.8l4.2 5.2c1-1.7 3-2.8 7-2 7.4 1.5 14.8 4.6 18.2-5-7 .1-14 .1-19.4 0z"/><path fill="#3D5857" d="M65 225.3l-13.5-16.7h-.1l-18.5 5c.3.4.7.7 1 1.1 2.7.2 8.4.7 14.4 1.3 1.8-1.3 4.3-1.1 5.9.5l.1.1h.1c9.8 1.1 2.4 8.4-4.3 9.3-1.1.1-2.6.2-4.3.1 1.2 1 2.3 1.9 3.5 2.9l15.7-3.6zm8.4 16c-.5-1.4-.6-3.7.3-5.3l-4.2-5.2c-4.7.9-9.6 1.8-14.2 2.6 4.9 3.4 10.1 6.5 15.6 9.2 1-.4 1.9-.7 2.6-.9 0-.2-.1-.3-.1-.4z"/><path fill="#C08C76" d="M83.5 51.1c-2.6 5.8-5.6 13.3-5.9 17.7-.6 8-3.8 13.7-3.5 20.8.2 4.1 1.2 12.6 2.1 19.7 1-12.3 2.7-25.3 3.9-39.8.6-7 1.8-13.1 3.4-18.4zm21.1 121c.8.7 1.7 1.4 2.6 2l-2.6-2zm9.6-.9s3.7-12.2 13.5-12.7v-35.1c-1.5.1-5.6.4-8.5.9-3.6.7-11.3 6.2-13.9 8.1-2.6 1.9-4.8 7.9-4.8 7.9-1.7-2.2-1-4.6-1-4.6 2.2-4.1 9.1-8.9 16-13.7 5.6-3.8 10.4-3.5 12.1-3.2V18.6c-2-.8-3.9-1.3-5.9-1.4-1.8 0-4 .3-6.5 1.4-7.6 3.2-7.9 3.6-10.6 6.9-6.6 8.4-9.7 18.2-10.3 21.1-.6 2.9-2.6 3.2-3.5 16.3-.2 2.8-.6 6.2-1 9.7 1.1-.6 2.1-1.1 3-1.4 4.1-1.2 13.2-3.6 17.7-.5 4.6 3.1 10.8-1 11.5-2.4 0 0 .7 7.4-4.1 9.1s-10.1-5-16.5-4.6c-3.2.2-7.9 1.4-12 2.6-1.6 12.1-4.1 25.6-5 28.6-1.2 4-5.7 20.5.5 37.4.2.4.3.7.4 1l.3.9-.3-.9c-.1-.3-.3-.7-.4-1-1.3-3.5-4.2-11.3-6-18.8-.3 2.7-.5 5.8-.7 8.9 2.1 6.7 4.9 13.6 8.4 19.4 2.4 1.8 21.5 18.5 27.6 20.3z"/><path fill="#363B31" d="M127.7 119v-.1c-1.7-.3-6.5-.6-12.1 3.2-6.9 4.8-13.9 9.6-16 13.7 0 0-.7 2.4 1 4.6 0 0 2.2-6 4.8-7.9 2.6-1.9 10.3-7.4 13.9-8.1 2.9-.6 6.9-.8 8.5-.9V119zm0 39.6c-9.8.5-13.5 12.7-13.5 12.7-6.1-1.8-25.2-18.5-27.4-20.4l-.2-.2 1.9 4 1.5 3.1 3.4 4.1s2.2 4 3.6 4.7c1.4.7 4.9 3.6 4.9 3.6l2.8 2.1 2.6 2s.3 2.3 2 2.3 2 2.5 6.1 3.2c3.4.6 10.2.9 12.3.9v-22.1zm-26.1-85.8c6.5-.5 11.7 6.2 16.5 4.6s4.1-9.1 4.1-9.1c-.7 1.4-6.9 5.5-11.5 2.4S97 70 93 71.2c-.9.3-1.9.8-3 1.4-.1 1-.2 1.9-.4 2.9 4-1.3 8.7-2.5 12-2.7z"/><path fill="#6D7B79" d="M73.4 119c0-7-3.2-21.4-3.2-21.4s0-31 .6-33.8c.3-1.5.6-9.3 2-17.5-2 2.5-7.4 10.7-6.5 27.2 1.2 20.1 5.7 46.7 2.6 61.8s-7.7 37.4-6.2 49.8c0 0 3.1-23.2 7.2-33.5 1.1-2.7 1.9-6.1 2.7-9.8 1-11 .8-17.6.8-22.8z"/><path fill="#233431" d="M77.9 156.4c.3-1.9.3-10.4.2-18.8-.4 8.6-.5 16.9-.5 20.3.1-.6.2-1.2.3-1.5z"/><path fill="#233431" d="M72.8 46.3c-1.4 8.1-1.7 16-2 17.5-.6 2.9-.6 33.8-.6 33.8s3.2 14.4 3.2 21.4c0 5.2.2 11.8-.8 22.8-.3 3.9-.8 8.2-1.5 13.3-2.6 19.5 3.5 31 3.5 31-1.9-6.9 1.3-21.2 2.7-27.4-3.2-16.7-2.7-32.5-1.2-49.3-.9-7.2-1.9-15.7-2.1-19.7-.3-7 2.9-12.8 3.5-20.8.4-4.4 3.3-11.9 5.9-17.7C89.5 30.3 101.1 22 101.1 22c15.4-10 24.7-4.7 26.5-3.4v-3.5s.1 0 .2-.1c-.4-2.2-1.6-4.8-4.8-6-1.1-.4-2.5-.7-4.2-.6-2.3 0-4.9.6-7.7 1.5-10.6 3.6-23.9 12.6-30.7 18.1-4.1 3.4-6.3 10.9-7.6 18.3z"/><path fill="#233431" d="M85.1 141.4c.1.3.3.7.4 1-.1-.3-.2-.6-.4-1zm.4 1c.2.5.3.9.3.9l-.3-.9zm21.1-120.1C98.9 27.1 85.9 59 86.8 70.2s-3.5 33.2-6.4 44.4c-.5 2-.9 4.8-1.3 8 1.8 7.6 4.7 15.4 6 18.8-6.3-16.9-1.8-33.4-.5-37.4.9-3 3.4-16.4 5-28.6.1-1 .3-2 .4-2.9.4-3.5.8-6.9 1-9.7 1-13.1 2.9-13.4 3.5-16.3.6-2.9 3.7-12.6 10.3-21.1 2.6-3.3 2.9-3.7 10.6-6.9 2.5-1 4.6-1.4 6.5-1.4-5-.2-9.8 1.8-15.3 5.2z"/><path fill="#6D7B79" d="M80.4 114.5c2.9-11.2 7.3-33.2 6.4-44.4S98.9 27 106.6 22.2c5.4-3.4 10.2-5.3 15.2-5 1.9.1 3.9.6 5.9 1.4v-.1c-1.8-1.2-11.1-6.6-26.5 3.4 0 0-11.6 8.3-17.7 29.2-1.6 5.3-2.8 11.4-3.4 18.4-1.2 14.5-2.9 27.5-3.9 39.8-1.5 16.9-1.9 32.6 1.2 49.3.1.3.1.6.2.9v-1.7c0-3.4.1-11.7.5-20.3.1-2.1.2-4.1.3-6.2.2-3.1.4-6.2.7-8.9.4-3 .8-5.8 1.3-7.9z"/><path fill="#7F9493" d="M127.7 240.2v-6.7c-13.4.2-25 7.7-31.1 18.6 2.4.6 4.8 1.1 7.2 1.6 5-7.9 13.8-13.3 23.9-13.5z"/><path fill="#89A7A8" d="M127.7 245v-4.8c-10.1.2-18.9 5.5-23.9 13.5l5.1.9c4.3-5.7 11.1-9.4 18.8-9.6z"/><path fill="#D9E2E4" d="M127.7 254.3V245c-7.7.2-14.5 3.9-18.8 9.6 4.2.6 8.5 1.1 12.9 1.3 1.7-.9 3.8-1.5 5.9-1.6z"/><path fill="#B3C4C3" d="M121.7 255.8c2 .1 4 .1 6 .2v-1.6c-2.1 0-4.2.6-6 1.4z"/><path fill="#6E8180" d="M121.6 228.7c2-.3 4-.4 6.1-.5v-3.1c-3.2.1-17.8 1.1-26.9 8.4l1.4-4.8s13.2-5.8 25.5-6v-3.4c-23.1.1-28.1 7.3-28.1 7.3-.2.9-.4 1.7-.7 2.4-3.3 9.6-10.7 6.5-18.2 5-4-.8-6.1.3-7 2-1 1.7-.8 3.9-.3 5.3 0 .1.1.2.1.3.1.5.1 1.3.1 2.2 3.5 1.6 7 3.1 10.7 4.5 1.5-3.6 3.4-6.8 5.4-9.7l2.9 1.6s-3.1 3.4-5.6 9.1c1.4.5 2.9.9 4.3 1.4 5.6-13.3 17.6-20.3 30.3-22z"/><path fill="#4C5C5B" d="M102.2 228.7l-1.4 4.8c9.1-7.2 23.7-8.2 26.9-8.4v-2.4c-12.3.2-25.5 6-25.5 6zm-12.5 9.9c-2 3-3.9 6.1-5.4 9.7l2.7.9c2.5-5.6 5.6-9.1 5.6-9.1l-2.9-1.5z"/><path fill="#6E8180" d="M79.5 228.9c4.6-.8 8.2-1.5 10-1.9 0 0-.1 0-.1-.1-1.9-1.9-2.3-4.8-1.2-7.1L65 225.3 49.2 229c2 1.5 4 3 6 4.4 4.6-.8 9.5-1.7 14.2-2.6 3.6-.7 7.1-1.4 10.1-1.9z"/><path fill="#A0BAB6" d="M98.2 227c2.4-2.4 2.4-6.4 0-8.8s-6.4-2.4-8.8 0c-.5.5-.9 1.1-1.2 1.7-1.1 2.3-.7 5.2 1.2 7.1 0 0 .1 0 .1.1 2.4 2.3 6.3 2.3 8.7-.1zm-7.1-7.2c1.5-1.5 3.9-1.5 5.4 0s1.5 3.9 0 5.4-3.9 1.5-5.4 0-1.5-3.9 0-5.4z"/><circle fill="#6A7D7C" cx="93.8" cy="222.6" r="3.8"/><path fill="#26342F" d="M49.4 204.5s-.5-5.5-2.9-5.5-16.1 4-16.1 4l-5 1.7c1.4 1.9 2.9 3.8 4.4 5.6 9-2.7 18.7-5.5 19.6-5.8z"/><path fill="#6E8180" d="M50.1 225.9c6.6-.9 14.1-8.2 4.3-9.3h-.1c1.7 1.8 1.6 4.6-.1 6.4-1.8 1.8-4.7 1.8-6.5 0s-1.8-4.7 0-6.5c.2-.2.4-.3.6-.5-6-.6-11.7-1.1-14.4-1.3 3.7 4 7.7 7.8 11.9 11.4 1.7 0 3.2 0 4.3-.2z"/><path fill="#A0BAB6" d="M47.6 216.5c-1.8 1.8-1.8 4.7 0 6.5s4.7 1.8 6.5 0c1.8-1.8 1.8-4.6.1-6.4l-.1-.1c-1.6-1.6-4.1-1.8-5.9-.5-.2.2-.4.3-.6.5zm5.3 5.3c-1.1 1.1-2.9 1.1-4 0s-1.1-2.9 0-4 2.9-1.1 4 0 1.1 2.9 0 4z"/><path fill="#6A7D7C" d="M48.9 217.8c-1.1 1.1-1.1 2.9 0 4s2.9 1.1 4 0 1.1-2.9 0-4-2.9-1.1-4 0z"/><path fill="#C08C76" d="M166 157.7l-3.4 4.1s-2.2 4-3.6 4.7c-1.4.7-4.9 3.6-4.9 3.6l-2.8 2.1c-.8.7-1.7 1.4-2.6 2 0 0-.3 2.3-2 2.3s-2 2.5-6.1 3.2-13 1-13 1v38.7c23.6 0 28.7 7.3 28.7 7.3.2.9.4 1.7.7 2.4 7 0 14 0 19.4-.1-4.6-.8-8.2-1.5-10-1.9-2.4 2.4-6.3 2.3-8.7-.1-2.4-2.4-2.4-6.4 0-8.8s6.4-2.4 8.8 0c.5.5.9 1.1 1.2 1.7l23.2 5.4 13.5-16.7h.1c.5-.9 1-1.8 1.4-2.5-4.4-1.5-12.9-4.5-21.8-7.5-1.6-.6-3.1-1.9-4.4-3.9-5.7-8-9.8-26.1-12.3-40l-1.4 3zm-38.3 70.8s2.6.1 6.7.1c-2.2-.3-4.5-.5-6.7-.5v.4z"/><path fill="#303E39" d="M206 206.1c-.4.8-.8 1.6-1.4 2.5l18.5 5c1-1.1 2-2.3 3-3.5-8.9-2.6-18.7-5.4-19.5-5.6-.1.5-.3 1-.6 1.6zm-71.6 22.6c-4.1-.1-6.7-.1-6.7-.1v4.9c13.6 0 25.5 7.5 31.8 18.6 1.8-.5 3.6-.9 5.3-1.5-5.7-13.2-17.7-20.2-30.4-21.9zm48 15.2c.9-.4 1.8-.9 2.7-1.3-1-.4-1.9-.7-2.6-.9-.1.5-.1 1.3-.1 2.2zM157.1 229c3.3 9.6 10.7 6.5 18.2 5 4-.8 6.1.3 7 2l4.2-5.2c-3.6-.7-7-1.3-10-1.8h-19.4z"/><path fill="#4B6867" d="M204.6 208.6h-.1L191 225.3l15.8 3.7c1.2-.9 2.4-1.9 3.5-2.9-1.8.1-3.2 0-4.3-.1-6.6-.9-14.1-8.2-4.3-9.3h.1l.1-.1c1.6-1.6 4.1-1.8 5.9-.5 6-.6 11.7-1.1 14.4-1.3.3-.4.7-.7 1-1.1l-18.6-5.1zM182.3 236c1 1.7.8 3.9.3 5.3 0 .1-.1.2-.1.3.8.2 1.7.4 2.6.9 5.4-2.7 10.6-5.8 15.6-9.2-4.6-.8-9.5-1.7-14.2-2.6l-4.2 5.3z"/><path fill="#D7A990" d="M127.7 18.6V119s5.7-1.7 12.7 3.1c6.9 4.8 13.9 9.6 16 13.7 0 0 .7 2.4-1 4.6 0 0-2.2-6-4.8-7.9-2.6-1.9-10.3-7.4-13.9-8.1-3.6-.7-9.1-1-9.1-1v35.1c10.3 0 14.1 12.7 14.1 12.7 6-1.8 24.5-17.9 27.2-20.3 3.2-5.3 5.7-11.6 7.5-17.9 4.3-14.6 5.3-28.9 5.3-28.9l.1-15.4.1-33.2c-1.2-3.1-2.3-5.7-3.4-8-.5-1-.9-2-1.4-2.9-4.1-6.2-10.3-14.7-18.5-20.7-8.8-4-21.2-5.1-27.3-5.5h-.1c-1.7.6-3.5-.2-3.5-.2v.4zm17.6 52c4.6-3.1 13.7-.7 17.7.5 4.1 1.2 11.7 7.7 11.7 7.7-1.7-1.4-13.9-5.5-20.4-6-6.5-.5-11.7 6.2-16.5 4.6s-4.1-9.1-4.1-9.1c.8 1.4 7.1 5.5 11.6 2.3zm3.5 103.5c.9-.6 1.8-1.2 2.6-2l-2.6 2z"/><path fill="#42463B" d="M136.8 124.3c3.6.7 11.3 6.2 13.9 8.1 2.6 1.9 4.8 7.9 4.8 7.9 1.7-2.2 1-4.6 1-4.6-2.2-4.1-9.1-8.9-16-13.7-6.9-4.8-12.7-3.1-12.7-3.1v4.3c-.1.1 5.4.4 9 1.1zm3.9 55.3c4.1-.7 4.4-3.3 6.1-3.2 1.7 0 2-2.3 2-2.3l2.6-2 2.8-2.1s3.5-2.9 4.9-3.6c1.4-.7 3.6-4.7 3.6-4.7l3.4-4.1 1.5-3.1 1.9-4-.3.3c-2.7 2.4-21.2 18.5-27.2 20.3 0 0-3.8-12.7-14.1-12.7v22c-.2.2 8.7-.1 12.8-.8zm-6.9-111.4s-.7 7.4 4.1 9.1 10.1-5 16.5-4.6c6.5.5 18.7 4.6 20.4 6 0 0-7.7-6.5-11.7-7.7-4.1-1.2-13.2-3.6-17.7-.5-4.6 3.3-10.9-.8-11.6-2.3z"/><path fill="#7F9493" d="M127.7 233.5v6.7c10.3 0 19.4 5.4 24.6 13.5 2.4-.5 4.8-1 7.2-1.6-6.3-11.1-18.2-18.6-31.8-18.6z"/><path fill="#9BBCBD" d="M127.7 240.2v4.8c7.9 0 15 3.8 19.5 9.6l5.1-.9c-5.2-8.1-14.3-13.5-24.6-13.5z"/><path fill="#F0F8FA" d="M127.7 245v9.3c2.4 0 4.6.6 6.6 1.5 4.3-.2 8.6-.6 12.9-1.3-4.5-5.8-11.6-9.5-19.5-9.5z"/><path fill="#C8DAD9" d="M127.7 254.3v1.7h.3c2.1 0 4.2-.1 6.3-.2-2-.9-4.3-1.5-6.6-1.5z"/><path fill="#7F9493" d="M182.5 241.7c0-.1.1-.2.1-.3.5-1.4.6-3.7-.3-5.3-1-1.7-3-2.8-7-2-7.4 1.5-14.8 4.6-18.2-5-.2-.7-.5-1.5-.7-2.4 0 0-5.1-7.3-28.7-7.3v3.4c12.5 0 26.1 6 26.1 6l1.4 4.8c-10.3-8.1-27.5-8.4-27.5-8.4v3.1c2.2 0 4.5.2 6.7.5 12.7 1.8 24.7 8.7 30.4 22 1.4-.4 2.9-.9 4.3-1.4-2.5-5.6-5.6-9.1-5.6-9.1l2.9-1.6c2 3 3.9 6.1 5.4 9.7 3.6-1.3 7.2-2.8 10.7-4.5-.1-.9-.1-1.7 0-2.2z"/><path fill="none" d="M127.7 225.1v.1m0-.1"/><path fill="#6A7D7C" d="M127.7 225.1s17.2.2 27.5 8.4l-1.4-4.8s-13.7-6-26.1-6v2.4zm35.7 15.1s3.1 3.4 5.6 9.1l2.7-.9c-1.5-3.6-3.4-6.8-5.4-9.7l-2.9 1.5z"/><path fill="#7F9493" d="M191 225.3l-23.2-5.4c1.1 2.3.7 5.2-1.2 7.1 0 0-.1 0-.1.1 1.8.3 5.5 1 10 1.9 3 .6 6.4 1.2 10 1.8 4.7.9 9.6 1.8 14.2 2.6 2-1.4 4-2.9 6-4.4l-15.7-3.7z"/><path fill="#A0BAB6" d="M157.8 218.1c-2.4 2.4-2.4 6.4 0 8.8 2.4 2.4 6.3 2.4 8.7.1 0 0 .1 0 .1-.1 1.9-1.9 2.3-4.8 1.2-7.1-.3-.6-.7-1.2-1.2-1.7-2.5-2.4-6.4-2.4-8.8 0zm1.7 7.2c-1.5-1.5-1.5-3.9 0-5.4s3.9-1.5 5.4 0 1.5 3.9 0 5.4-3.9 1.5-5.4 0z"/><circle fill="#6A7D7C" cx="162.2" cy="222.6" r="3.8"/><path fill="#3A4944" d="M209.5 199c-2.4 0-2.9 5.5-2.9 5.5h.1c.8.2 10.5 3 19.5 5.6 1.5-1.8 3-3.7 4.4-5.6l-5-1.7c-.1.2-13.7-3.8-16.1-3.8z"/><path fill="#7F9493" d="M207.8 216c.2.1.4.3.6.5 1.8 1.8 1.8 4.7 0 6.5s-4.7 1.8-6.5 0c-1.8-1.8-1.8-4.6-.1-6.4h-.1c-9.8 1.1-2.4 8.4 4.3 9.3 1.1.1 2.6.2 4.3.1 4.2-3.5 8.2-7.3 11.9-11.4-2.7.3-8.5.8-14.4 1.4z"/><path fill="#A0BAB6" d="M201.9 223c1.8 1.8 4.7 1.8 6.5 0s1.8-4.7 0-6.5c-.2-.2-.4-.3-.6-.5-1.8-1.3-4.3-1.1-5.9.5l-.1.1c-1.7 1.8-1.7 4.7.1 6.4zm5.2-1.2c-1.1 1.1-2.9 1.1-4 0s-1.1-2.9 0-4 2.9-1.1 4 0 1.1 2.9 0 4z"/><path fill="#6A7D7C" d="M203.1 217.8c-1.1 1.1-1.1 2.9 0 4s2.9 1.1 4 0 1.1-2.9 0-4-2.9-1.1-4 0z"/><path fill="#394C49" d="M131.2 18.6h.1c3.1-1.1 8.4-3.3 18.9.8 3 1.2 5.8 2.8 8.4 4.6 8.3 5.9 14.4 14.5 18.5 20.7.6.9 1.2 1.8 1.7 2.6.8 1.3 1.6 2.4 2.2 3.3.1.2.3.4.4.6l.6 1.2c2.8 6.4 3.4 19.9 3.5 24v1.2s1.3-13.6-1.1-29.9-18.8-26.2-30.8-33.2c-10.6-6.2-22.4-1-25.2.3-.2.1-.3.2-.4.2-.1 0-.2.1-.2.1v3.4c-.1-.1 1.7.7 3.4.1z"/></svg>