<svg xmlns="http://www.w3.org/2000/svg" width="256" height="256"><circle fill="#B1B3B5" cx="128" cy="128" r="128"/><path fill="#C08C76" d="M173.3 165.5c-7.7 4.3-19.2 9.8-25.4 10.5-6.2.7-20 .7-20 .7v22.9s39.6-1 46.9-7c7.3-6.1 7.9-12.8 7.9-12.8-.1-.8-.1-1.5-.2-2.3v-.2c0-.4-.1-.9-.1-1.3v-.4c-.5-8.5-.2-17.4.1-23.8-1.9 5.8-5 11.4-9.2 13.7zm17.8-64.9l-1.7 2.2s-.2-1.3-.4-3.2l-.1.1c-.3 3.9-.6 7.9-.9 11.7-.5 6.3-1.1 12.2-1.5 16.9-.3 3.1-.5 6.1-.7 8.4 9.1 4.1 9.7.3 9.7-2.5 0-2.9 2.9-8.6 4.2-10.5 1.3-1.9 3.5-6.7 3.2-9.3s.3-9.6 0-13.4c-.3-3.8-3.2-6.1-6.7-6.1-.8 0-1.8.4-2.8 1.1v1.7l-2.3 2.9z"/><path fill="#D7A990" d="M139.1 116.7c3.6-1.5 11 8.3 14.8 11.4s9.8 11.5 9.8 11.5 7.9-5.3 11.3-8.6c3.4-3.4 12-15.1 12.9-19.6.3-3.8.6-7.8.9-11.7V99c-.6-4.7-1.6-12.6-1.4-15.4.2-4.1 0-19.4-1.4-23.9s-10.3-21.3-13.4-24.4c-3.1-3.1-13.4-14.6-23.7-17.7S128 14.4 128 14.4v18.2c8.2-.5 21.2 3.1 29.2 5.6 2.8.6 5.2 1.4 6.8 2.3 0 0-2.7-1-6.8-2.3C145.8 35.6 128 35 128 35v4.6s9.9 1.3 13.3 0c3.4-1.3 15.2 2.1 15.2 2.1s-16.1-.8-20.3 0-8.1 0-8.1 0v76.2c-.1-.1 7.4.3 11-1.2zm3.9-51.1c1.6 0 9.2-.8 11.7-1.8s9.1-1.1 12.3-.5c3.2.5 10.4 5.3 10.4 5.3l-1.3.1.5 1.1 1.3 2.6s-11-6-12.7-6.2c-1.7-.2-12.9 2.1-14.7 3.3-1.8 1.2-9.4 3.6-10.6-.3-.9-2.9 1.5-3.6 3.1-3.6z"/><path fill="#D7A990" d="M143.6 152.3s-2.4 2.4-2.4 5 2.6 4.5 5.7 3.6c3.1-1 16.5-10.7 12.5-22.5 0 0-14.1-11.5-18.9-13.7-4.8-2.2-5.4.2-12.5.2v23.7c0 .1 13-1.5 15.6 3.7zm44.3-40.9c0 .3-.9 9-1.5 16.9.5-4.7 1-10.6 1.5-16.9z"/><path fill="#685C53" d="M148.9 17.5c10.3 3.1 20.6 14.6 23.7 17.7 3.1 3.1 12 19.9 13.4 24.4s1.7 19.9 1.4 23.9c-.2 2.8.8 10.6 1.4 15.4 0 .2.1.4.1.6.3 1.9.4 3.2.4 3.2l1.7-2.2 2.2-2.9v-4.7l2.2-2.6-.5-3.1c-.5-3.1.7-2.6 0-3.8-.7-1.2 0-4.1 0-6.5 0-2.4-4.8-19.2-7.2-27.3-2.4-8.1-15.1-20.4-25.6-30.9C151.5 8.2 128 8.4 128 8.4v6s10.6 0 20.9 3.1z"/><path fill="#5E544B" d="M150.5 69.4c1.8-1.2 13-3.5 14.7-3.3 1.7.2 12.7 6.2 12.7 6.2l-1.3-2.6-.5-1.1 1.3-.1s-7.2-4.7-10.4-5.3c-3.2-.5-9.9-.4-12.3.5-2.5 1-10.1 1.8-11.7 1.8s-4 .6-3.1 3.4c1.2 4.1 8.7 1.7 10.6.5z"/><path fill="#B08C79" d="M187.9 111.4c-1 4.5-9.6 16.3-12.9 19.6-3.4 3.4-11.3 8.6-11.3 8.6s-6-8.4-9.8-11.5-11.3-12.9-14.8-11.4c-3.6 1.5-11.1 1.1-11.1 1.1v7.2c7.1 0 7.7-2.4 12.5-.2 4.8 2.2 18.9 13.7 18.9 13.7 4.1 11.8-9.3 21.5-12.5 22.5-3.1 1-5.7-1-5.7-3.6s2.4-5 2.4-5c-2.6-5.3-15.6-3.6-15.6-3.6v28s13.7 0 20-.7c6.2-.7 17.7-6.2 25.4-10.5 4.1-2.3 7.2-7.9 9.3-13.7 1.7-4.9 2.7-10 2.9-13.3 0-.5.1-1.1.1-1.8.2-2.3.4-5.3.7-8.4.7-8 1.5-16.7 1.5-17z"/><path fill="#BC9680" d="M157.2 38.2c-7.9-2.5-21-6.1-29.2-5.6V35s17.8.6 29.2 3.2zm0 0c4.1 1.3 6.8 2.3 6.8 2.3-1.6-.9-4.1-1.7-6.8-2.3zm-21.1 3.4c4.2-.8 20.3 0 20.3 0s-11.8-3.4-15.2-2.1c-3.4 1.3-13.3 0-13.3 0v2.1c.1 0 4.1.8 8.2 0z"/><path fill="#2F2B27" d="M168.2 233.5v-28.7c12.5-6.5 15.5-16.8 16.3-21.4.1-.3.1-.7.1-1-.9-1.6-1.8-2.5-1.8-2.5s-.5 6.7-7.9 12.8c-7.3 6.1-46.9 7-46.9 7V256c4.8 0 9.5-.3 14.2-.8l1-12.4c0 .1 12-2.2 25-9.3z"/><path fill="#363930" d="M182.3 224.5c1.7 1.3 8.4 6.5 15 11.1 5.2-3.4 10.2-7.1 14.9-11.2-11.5-5.4-17.7-9.3-20.2-11-3 4.6-6.4 8.2-9.7 11.1zm11.3-13.7c6.9 3.6 14.4 7.1 22.1 10.5 1.3-1.2 2.5-2.4 3.8-3.7-11.1-4.7-20-8.5-24.1-10.2-.6 1.2-1.2 2.3-1.8 3.4zm3.5-7.5c-.2.5-.4.9-.5 1.4 6.6 3.1 15.3 6.9 24.9 10.8.5-.5 1-1 1.5-1.6-1.8-.8-3.4-1.4-4.7-1.8-7.1-1.8-21.2-8.8-21.2-8.8zm-23.3 27.3c-3.3 2-5.6 2.9-5.6 2.9-13 7.1-25.1 9.4-25.1 9.4l-1 12.4c16.5-1.8 32-6.8 45.9-14.2-4.6-3.6-12.5-9.3-14.2-10.5z"/><path fill="#31352C" d="M182.3 224.5c-3.1 2.7-6 4.7-8.4 6.1 1.7 1.2 9.6 6.9 14.3 10.4 3.1-1.7 6.2-3.5 9.1-5.4-6.6-4.6-13.4-9.8-15-11.1z"/><path fill="#747369" d="M195.4 207.4c4 1.7 12.9 5.5 24.1 10.2.7-.7 1.3-1.4 2-2-9.6-4-18.3-7.8-24.9-10.8-.4.8-.8 1.7-1.2 2.6zm-3.5 6.1c2.6 1.7 8.8 5.6 20.2 11 1.2-1 2.3-2.1 3.5-3.2-7.7-3.4-15.1-6.9-22.1-10.5-.5.9-1 1.8-1.6 2.7z"/><path fill="#2E3229" d="M182.5 176l.1 1.3v.2s2.3 1.1 2 4.9c0 .3-.1.6-.1 1-.8 4.6-3.8 14.8-16.3 21.4v28.7s2.3-.9 5.6-2.9c2.4-1.4 5.4-3.5 8.4-6.1 3.3-2.9 6.7-6.5 9.7-11 .6-.9 1.1-1.7 1.6-2.7.6-1.1 1.2-2.2 1.8-3.4l1.2-2.7c.2-.4.4-.9.5-1.4 0 0-10.1-11.5-10.6-20.9-.4-7.1-3.9-6.9-3.9-6.9v.5z"/><path fill="#B17D6B" d="M73.5 176c0 .4-.1.9-.1 1.3v.2c-.1.8-.1 1.6-.2 2.3 0 0 .5 6.7 7.9 12.8 7.3 6.1 46.9 7 46.9 7v-22.9s-13.7 0-20-.7c-6.2-.7-17.7-6.2-25.4-10.5-4.1-2.3-7.2-7.9-9.3-13.7.3 6.4.6 15.3.1 23.8l.1.4zm-5.4-64.6c-.3-3.8-.6-7.8-.9-11.7l-.1-.1c-.3 1.9-.4 3.2-.4 3.2l-1.7-2.2-2.2-2.9V96c-1-.7-2-1.1-2.8-1.1-3.5 0-6.4 2.2-6.7 6.1-.3 3.8.3 10.9 0 13.4s1.9 7.3 3.2 9.3c1.3 1.9 4.2 7.7 4.2 10.5s.6 6.5 9.7 2.5c-.2-2.3-.4-5.3-.7-8.4-.6-4.7-1.1-10.6-1.6-16.9z"/><path fill="#C08C76" d="M115.5 124.8c-4.8 2.2-18.9 13.7-18.9 13.7-4.1 11.8 9.3 21.5 12.5 22.5 3.1 1 5.7-1 5.7-3.6s-2.4-5-2.4-5c2.6-5.3 15.6-3.6 15.6-3.6V125c-7.1 0-7.7-2.4-12.5-.2z"/><path fill="#C08C76" d="M119.9 41.6c-4.2-.8-20.3 0-20.3 0s11.8-3.4 15.2-2.1c3.4 1.3 13.3 0 13.3 0V35s-17.8.6-29.2 3.2c-4.1 1.3-6.8 2.3-6.8 2.3 1.7-.9 4.1-1.7 6.8-2.3 7.9-2.5 21-6.1 29.2-5.6V14.4s-10.6 0-20.9 3.1-20.7 14.6-23.8 17.7c-3.1 3.1-12 19.9-13.4 24.4-.9 2.7-1.3 9.4-1.4 15.1 1.8-2.8 4.2-4.8 6.4-3.4 3.1 2.1-.2 3.1-1 4.4-.2.4-.6 1.3-1.1 2.5.5-.1 1.1-.1 1.8-.1 3.6-.1 6.4-.2 8.4-.3 1.4-5.6 5.8-10 11.4-11.4-1.7-.3-3-.5-3.5-.4-1.7.2-12.7 6.2-12.7 6.2l1.3-2.6.5-1.1-1.3-.1s7.2-4.7 10.4-5.3c3.2-.5 9.9-.4 12.3.5 2.5 1 10.1 1.8 11.7 1.8s4 .6 3.1 3.4c-.8 2.5-4.1 2.4-6.9 1.7 2.7 2.8 4.3 6.6 4.3 10.7 0 7.7-5.7 14.1-13.1 15.3l-.1.2h-2.3c-.8 0-1.5-.1-2.3-.2l-.2.5c-.6 0-1.8-.4-2.9-.9-1.3-.5-2.6-1.1-3.7-1.9-.1 0-.1-.1-.1-.1-3.9-2.8-6.4-7.4-6.4-12.6v-.3c-3.3.4-8.3 1-9.7 1.2-.5.1-1.1.1-1.6.2-.4 1.1-.6 2-.8 2.7-.4 1.9-.7 6.3-2.5 6.7-.3 2.5-.6 4.9-.8 6.9v.7c.3 3.9.6 7.9.9 11.7 1 4.6 9.6 16.3 12.9 19.6 3.4 3.4 11.3 8.6 11.3 8.6s6-8.4 9.8-11.5 11.3-12.9 14.8-11.4c3.6 1.5 11.1 1.1 11.1 1.1V41.6s-4 .8-8.1 0zm-51.8 69.8c.5 6.3 1.1 12.2 1.5 16.9-.7-7.9-1.5-16.6-1.5-16.9z"/><path fill="#564C44" d="M64.9 100.6l1.7 2.2s.2-1.3.4-3.2c0-.2.1-.4.1-.6.3-2 .6-4.5.8-6.9-.2.1-.5.1-.8 0-2.5-.8-2.8-6.3-.5-13.2.5-1.4 1.1-2.8 1.9-4 .2-5.7.6-12.4 1.4-15.1 1.4-4.6 10.3-21.3 13.4-24.4 3.1-3.1 13.4-14.6 23.7-17.7s20.9-3.1 20.9-3.1v-6s-23.5-.2-34.1 10.3C83.4 29.2 70.7 41.4 68.3 49.6c-2.4 8.1-7.2 24.9-7.2 27.3 0 2.4.7 5.3 0 6.5-.7 1.2.5.7 0 3.8l-.5 3.1 2.2 2.6v4.8l2.1 2.9z"/><path fill="#4E463E" d="M98.5 66.1c2.3.1 4.4.6 6.3 1.6h.1l2.1 1.2c.8.3 1.3.9 1.6 1.3l.6.6c2.8.7 6.2.8 6.9-1.7.9-2.8-1.5-3.4-3.1-3.4s-9.2-.8-11.7-1.8-9.1-1.1-12.3-.5c-3.2.5-10.4 5.3-10.4 5.3l1.3.1-.5 1.1-1.3 2.6s11-6 12.7-6.2c.5-.1 1.9.1 3.5.4 1.2-.3 2.4-.4 3.6-.4.3-.3.4-.3.6-.2z"/><path fill="#9A7C6A" d="M82.7 165.5c7.7 4.3 19.2 9.8 25.4 10.5 6.2.7 20 .7 20 .7v-28s-13-1.7-15.6 3.6c0 0 2.4 2.4 2.4 5s-2.6 4.5-5.7 3.6c-3.1-1-16.5-10.7-12.5-22.5 0 0 14.1-11.5 18.9-13.7 4.8-2.2 5.4.2 12.5.2v-7.2s-7.5.4-11.1-1.1c-3.6-1.5-11 8.3-14.8 11.4s-9.8 11.5-9.8 11.5-7.9-5.3-11.3-8.6c-3.4-3.4-12-15.1-12.9-19.6 0 .3.9 9 1.5 16.9.3 3.1.5 6.1.7 8.4.1.7.1 1.3.1 1.8.2 3.3 1.2 8.3 2.9 13.3 2 5.9 5.1 11.5 9.3 13.8zM98.8 38.2c-2.8.6-5.2 1.4-6.8 2.3 0 0 2.7-1 6.8-2.3zm0 0C110.2 35.6 128 35 128 35v-2.4c-8.2-.5-21.2 3.1-29.2 5.6zm15.9 1.3c-3.4-1.3-15.2 2.1-15.2 2.1s16.1-.8 20.3 0 8.1 0 8.1 0v-2.1c.1 0-9.8 1.3-13.2 0z"/><path fill="#26211E" d="M128 199.7s-39.6-1-46.9-7c-7.3-6.1-7.9-12.8-7.9-12.8s-.9.9-1.8 2.5c0 .3.1.6.1 1 .8 4.6 3.8 14.8 16.3 21.4v28.7c13 7.1 25.1 9.4 25.1 9.4l1 12.4c4.7.5 9.4.8 14.2.8v-56.4z"/><path fill="#31352C" d="M60.6 207.4c-4 1.7-12.9 5.5-24.1 10.2 1.2 1.3 2.5 2.5 3.8 3.7 7.7-3.4 15.1-6.9 22.1-10.5-.6-1.1-1.2-2.2-1.8-3.4zm-1.7-4.1s-14.1 6.9-21.1 8.9c-1.3.4-2.9 1-4.7 1.8.5.5 1 1.1 1.5 1.6 9.6-4 18.3-7.8 24.9-10.8-.2-.6-.4-1-.6-1.5zm14.8 21.2c-3.3-2.9-6.7-6.5-9.7-11-2.6 1.7-8.8 5.6-20.2 11 4.7 4.1 9.6 7.8 14.9 11.2 6.6-4.7 13.4-9.9 15-11.2zm14.1 9s-2.3-.9-5.6-2.9c-1.7 1.2-9.6 6.9-14.3 10.4 14 7.5 29.5 12.4 45.9 14.2l-1-12.4c0 .1-12-2.2-25-9.3z"/><path fill="#2A2D25" d="M82.2 230.6c-2.4-1.4-5.4-3.5-8.4-6.1-1.7 1.3-8.4 6.5-15 11.1 3 1.9 6 3.7 9.1 5.4 4.7-3.5 12.6-9.2 14.3-10.4z"/><path fill="#62635A" d="M62.4 210.8c-6.9 3.6-14.4 7.1-22.1 10.5 1.1 1.1 2.3 2.1 3.5 3.2 11.5-5.4 17.7-9.3 20.2-11-.5-.9-1-1.8-1.6-2.7zm-2.9-6.1c-6.6 3.1-15.3 6.9-24.9 10.8.6.7 1.3 1.4 2 2 11.1-4.7 20-8.5 24.1-10.2-.5-.8-.9-1.7-1.2-2.6z"/><path fill="#292D24" d="M60.6 207.4c.6 1.2 1.2 2.3 1.8 3.4.5.9 1.1 1.8 1.6 2.7 3 4.5 6.4 8.2 9.7 11 3.1 2.7 6 4.7 8.4 6.1 3.3 2 5.6 2.9 5.6 2.9v-28.7c-12.5-6.5-15.5-16.8-16.3-21.4-.1-.3-.1-.7-.1-1-.3-3.8 2-4.8 2-4.9v-.2l.1-1.3v-.4s-3.5-.3-3.9 6.9c-.6 9.4-10.6 20.9-10.6 20.9.2.5.4.9.5 1.4.4.8.8 1.7 1.2 2.6z"/><path fill="#C08C76" d="M85.7 80.9s-1.3.2-3.1.4v.3c0 5.2 2.5 9.7 6.4 12.6l8.7-27c-1.2-.2-2.3-.5-3.3-.6C88.8 68 84.4 72.4 83 78c2.5-.1 3.8-.2 3.8-.2l-1.1 3.1z"/><path opacity=".4" fill="#FFF" d="M85.7 80.9s-1.3.2-3.1.4v.3c0 5.2 2.5 9.7 6.4 12.6l8.7-27c-1.2-.2-2.3-.5-3.3-.6C88.8 68 84.4 72.4 83 78c2.5-.1 3.8-.2 3.8-.2l-1.1 3.1z"/><path fill="#C08C76" d="M106 69.7c-.2-.1-.3-.2-.5-.3l-1-.5-8.8 27.9c.8.1 1.5.2 2.3.2h.7c-.9-.1-1.6-.1-1.6-.1l8.9-27.2z"/><path opacity=".4" fill="#FFF" d="M106 69.7c-.2-.1-.3-.2-.5-.3l-1-.5-8.8 27.9c.8.1 1.5.2 2.3.2h.7c-.9-.1-1.6-.1-1.6-.1l8.9-27.2z"/><path fill="#C08C76" d="M92.8 96.1c-1.6-.7-3.3-1.7-3.7-1.9 1.1.7 2.3 1.4 3.7 1.9z"/><path opacity=".4" fill="#FFF" d="M92.8 96.1c-1.6-.7-3.3-1.7-3.7-1.9 1.1.7 2.3 1.4 3.7 1.9z"/><path fill="#C08C76" d="M100.4 96.8c7.4-1.2 13.1-7.6 13.1-15.3 0-4.2-1.7-7.9-4.3-10.7-.2 0-.4-.1-.6-.1l-8.2 26.1z"/><path opacity=".4" fill="#FFF" d="M100.4 96.8c7.4-1.2 13.1-7.6 13.1-15.3 0-4.2-1.7-7.9-4.3-10.7-.2 0-.4-.1-.6-.1l-8.2 26.1z"/><path fill="#4E463E" d="M108.6 70.2l.2.2-.1.2c.2.1.4.1.6.1-.3-.1-.5-.3-.7-.5z"/><path opacity=".4" fill="#FFF" d="M108.6 70.2l.2.2-.1.2c.2.1.4.1.6.1-.3-.1-.5-.3-.7-.5z"/><path fill="#4E463E" d="M98.5 66.1c1.8.2 5.7 1.4 6.3 1.6-1.9-1-4-1.6-6.3-1.6z"/><path opacity=".4" fill="#FFF" d="M98.5 66.1c1.8.2 5.7 1.4 6.3 1.6-1.9-1-4-1.6-6.3-1.6z"/><path fill="#4E463E" d="M98 66c-1.3 0-2.5.2-3.6.4 1 .2 2.1.4 3.3.6l.3-1z"/><path opacity=".4" fill="#FFF" d="M98 66c-1.3 0-2.5.2-3.6.4 1 .2 2.1.4 3.3.6l.3-1z"/><path fill="#4E463E" d="M105.5 69.4c.1.1.3.2.5.3l.3-.9c.3 0 .5 0 .7.1-.7-.5-1.4-.9-2.1-1.2l-.4 1.3c.5.1.8.3 1 .4z"/><path opacity=".4" fill="#FFF" d="M105.5 69.4c.1.1.3.2.5.3l.3-.9c.3 0 .5 0 .7.1-.7-.5-1.4-.9-2.1-1.2l-.4 1.3c.5.1.8.3 1 .4z"/><path fill="#FFF" d="M104.9 67.7c0-.1 0-.1 0 0-.6-.2-4.6-1.4-6.4-1.6H98l-.4 1.1-8.7 27 .1.1c.4.2 2.1 1.2 3.7 1.9 1.1.5 2.3.9 2.9.9l.1-.2 8.8-27.9.4-1.3zm3.8 2.7l-.2-.2c-.3-.4-.8-1-1.6-1.3-.2-.1-.5-.1-.7-.1l-.3.9-8.8 27.2s.6.1 1.6.1h1.6l.1-.2 8.2-26.2.1-.2z"/><path fill="#1E292F" d="M70.5 85.3c.1-.6.4-1.6.8-2.7-1.8.2-3.5.1-3.5-.9l-.2-.4s-.8-2.6 5.3-3.2c.4-1.1.8-2 1.1-2.5.8-1.3 4.1-2.3 1-4.4-2.2-1.4-4.6.5-6.4 3.4-.8 1.2-1.4 2.6-1.9 4-2.3 6.9-2 12.4.5 13.2.3.1.6.1.8 0 1.7-.2 2-4.6 2.5-6.5z"/><path fill="#152026" d="M67.5 81.5l.2.4c.1.9 1.7 1 3.5.9.5 0 1.1-.1 1.6-.2 1.5-.2 6.4-.8 9.7-1.2 1.8-.2 3.1-.4 3.1-.4l1.1-3.3s-1.3.1-3.8.2c-2 .1-4.8.2-8.4.3-.6 0-1.2.1-1.8.1-6 .6-5.2 3.2-5.2 3.2z"/></svg>