<svg xmlns="http://www.w3.org/2000/svg" width="256" height="256"><circle fill="#B2B4B5" cx="128" cy="128" r="128"/><path fill="none" d="M75.2 120.7s.7-1.3 1.8-2.7l-5.6-.2c-.1 1.6.4 5.6 1.1 10.2.9-.5 1.8-1 2.7-1.4v-5.9zm109.4-2.9l-5.6.2c1.1 1.4 1.8 2.7 1.8 2.7v5.9c.9.5 1.8.9 2.7 1.4.7-4.6 1.2-8.6 1.1-10.2z"/><path fill="#848484" d="M217 56l1.4 2.4 5.4-15.2c-2.1-2.4-4.3-4.7-6.6-6.9l-6.8 18.3L217 56z"/><path fill="#6E6B6C" d="M220.1 61.2l4.2-.7s3.3 3.8 5 5.9c.9-3.2 2.1-7.3 3.4-12-2.7-3.9-5.7-7.6-8.8-11.1l-5.4 15.2 1.6 2.7z"/><path fill="#2A2929" d="M207.9 71.3l4.9 5.5 6.4-1.4 8.4 13.9.1.8 3.5-.8-10.3-17-6.7 1.9-3.4-5.9-12.8-.7v5.5l1.5-1.8z"/><path fill="#575556" d="M207.9 79.4v-8.1h-8.4l-1.5 1.8-4.4 5z"/><path fill="#646162" d="M189.8 131l18.1-51.6-14.4-1.3-5.7 31.5 1.5.5c.1 0 .9 9.7.5 20.9zm29.4-50l-20.1 50.3 2.6-3 7.8 5.8 19.7-33.3z"/><path fill="#575556" d="M219.2 75.4V81l10 19.8-1.5-10.7-.1-.8z"/><path fill="#383738" d="M219.2 81v-5.6l-6.4 1.4-4.8-5.5v8.1L189.8 131v.6c2 1.2 3.9 2.4 5.7 3.6l3.5-3.9L219.2 81z"/><path fill="#646162" d="M217 56l-6.5-1.4-2.6-.5-9.9 13.5 12.8.7z"/><path fill="#383738" d="M210.8 68.3l3.4 5.9 6.7-1.9 3.3-11.8-4.1.7-1.6-2.8L217 56z"/><path fill="#646162" d="M220.9 72.3l10.2 17-.8-21.7s-.4-.5-1.1-1.3c-1.8-2-5-5.8-5-5.9l-3.3 11.9z"/><path fill="#373637" d="M235 168.1c-.1 2.9-.2 6.7-.4 11.1l9.9-.3-10.5 12.5c-.1 3-.3 6-.4 9.1 6.3-9.1 11.4-19.1 15.2-29.7-5.2-3-10.3-5-13.8-6.3v3.6z"/><path fill="#4D4C4D" d="M186.1 227l-21.2 8.6-10.5-16.9h-26.2V256c28.8 0 55.4-9.6 76.7-25.7l-7.4-20.9-11.4 17.6z"/><path fill="#646162" d="M197.5 209.4l7.4 20.9c4.3-3.3 8.4-6.8 12.3-10.5-.9-5.4-1.8-11.7-2.8-17.9l-16.9 7.5z"/><path fill="#373637" d="M187.8 149.6l-8-1.4s2.3-11.1 3.7-20.1c-.9-.5-1.8-1-2.7-1.4v.9c0 2.1-2.4 20-2.9 23.4s-4 5.1-4 5.1v.3l-8.3 7.6c-4.8.9-10.7 5.3-14.8 8.8l5 27.5 19.5-10.9 3.6-2.5 11.2-29.6 18.9 1.2c-.6-6.5-1.7-12.5-5.3-16.1-6.5-6.5-8.1-6.9-8.1-6.9l.1-.1-5.7-3.6c-.4 5.8-1 12.2-2.2 17.8z"/><path fill="#4D4C4D" d="M145.6 177.5l-3-.6-8.9-1.9-.6 3.3-4.9.6v21.2h27.5l-5-27.5c-3 2.7-5.1 4.9-5.1 4.9zm31.6-69.1l-.2 1.1-.4 6.1c.9.7 1.7 1.6 2.4 2.5l5.6-.2c.1 1.6-.4 5.6-1.1 10.2-1.4 8.9-3.7 20.1-3.7 20.1l8 1.4c1.2-5.6 1.8-12 2-17.9v-.6c.4-11.2-.5-20.9-.5-20.9l-1.5-.5-10.7-3.8-.1 1c.1.4.1 1 .2 1.5z"/><path fill="#BCA032" d="M168.1 45.6c.5 1.3 3.3 9 3.4 20.5.1 12.6-.7 30.3-.7 30.3l-2-1.9-3.4 1.9-4.6-2.8-13.8 8.7 1.4-3.7-5.1 3.7 1.8 2-4.3 10.1 5.3 4.8-1 1.9 5.5 2.4-.6-4.1 18.2-12.8 1.4-5.4 1.1-.5-2.9 44.1 1.8-10.3.1-.5 1.7-2.6 1.8-18.8 3.9-7.3c.2-13.9 3.4-45.3 3.7-48.1l-10.3-16.6-2.4 5z"/><path fill="#BCA032" d="M154.9 134.1l8.7-6.2 3.7-7.9-14.8 7.8-3.8 9.4 1.8 8.2zm7.3 16.2c.4-.3.9-.6 1.2-.9-.3.3-.8.6-1.2.9zm14.9-43.5l-.2 2.7.2-1.1v-1.6z"/><path fill="#7A471D" d="M148.8 85.6c-.2 1.7-.3 3.3-.3 4.8l-3.3 3.4-.6 2.8-4.6 5.5v14.8s-.2 1 2.5 3.7c1.4 1.4 1.9 3.3 2 5l3.1 2.9-1.9 4.9 1.1 2.2 1.8 1.6 3.8-9.5 14.7-7.8-3.7 7.9-8.6 6.2-4.4 11.3 3.4 2.2.5 2.8 1.8 2.4s3.3-.6 6.1-2.3c.4-.3.9-.6 1.2-.9.2-.2.5-.4.7-.7l3.7-3.9 2.9-44.1-1.1.5-1.4 5.4-18.2 12.8.6 4.1-5.5-2.4 1-1.9-5.3-4.8 4.3-10.1-1.8-2 5.1-3.7-1.4 3.7 13.8-8.7 4.6 2.8 3.4-1.9 2 1.9s.8-17.7.7-30.3c-.1-11.5-2.9-19.2-3.4-20.5l-11 22.1-3.4 13.8-4.9 4z"/><path fill="#6D6A6C" d="M170.5 40.7l10.3 16.6v-.2c0-2-.6-15.8-7.6-21.7l-2.7 5.3z"/><path fill="#575556" d="M169.7 134.1v.5l1.7-3.1zm3.5-21.4l-1.8 18.8 1.8-6 5.5 1.1-2.8 9.8-1.4 11.7-.8 7.9s3.5-1.6 4-5.1c.5-3.4 2.9-21.3 2.9-23.4v-6.8l-1.4 3.5-5.5-1.1 2.8-7.5.4-6.1.2-2.7.1-1v-.5l-.1.2-3.9 7.2z"/><path fill="#6D6A6C" d="M170.5 153.4l-2.9 2.8c-7.7 1.3-16.8 8.5-16.8 8.5l-5.2 12.8s2.1-2.2 5.1-4.8c4.1-3.6 10-8 14.8-8.8l8.3-7.6v-.3l.8-7.9s-2.2 4.4-4.1 5.3z"/><path fill="#424343" d="M128.2 158.7v20.1l4.9-.6.6-3.3 2.8-15.7 8.8 3.3.4-2.7-1.6-1.2-1.5-4.8.9-3-3.9-1.2-3.3 6.3s-1-1.5-2.6-3l-2.1 5.7h-3.4v.1z"/><path fill="#0E0D0D" d="M140.1 116.9V102l4.6-5.5.6-2.8-7.7 8.1v15l1.8 2.1v1.8l5.3 4.9c-.2-1.7-.7-3.7-2-5-2.8-2.8-2.6-3.7-2.6-3.7z"/><path fill="#646162" d="M143.4 150.9l10.8 3.3-3.8-3.9-2.6-2.3.8-6.4-3.4-3.7 1.8-2.2-1.1-2.2 1.9-4.9-3.1-2.9-5.3-4.9V119l-1.8-2.1v-15l7.7-8.1 3.3-3.4c0-1.5.1-3.1.3-4.8l-.1.1c.1-7 2.7-14.7 2.7-14.7-5 3.4-11.5 9-11.2 15.4 0 .7.1 1.4.1 2 0 0 4.9-4.8 6.3-1.5 1.3 3.4-6 7.7-6 7.7.1 3.1.1 3.8.1 3.8l-7.7 6.9v13.2l2.6 2.9.5 12 2.4 2.6 4.8 3.7v11.2zm-4.7-6.4c-.3-.4-.6-.9-.8-1.2l.8 1.2zm4.7 6.4l-3.9-1.2z"/><path fill="#0E0D0D" d="M131.4 158.7l2.1-5.7c-1.4-1.2-3.3-2.4-5.4-2.5v8.2h3.3z"/><path fill="#373637" d="M131.3 51.7l3.7-2.6 3 4.3-1.6 3.9-.3 14.3 1.9 4.2-1.6 1.4-2.1-1.4-3.8 1.6-.6 4.1H128v69c2.1.1 4 1.3 5.4 2.5 1.6 1.4 2.6 3 2.6 3l3.3-6.3.5-2.7s-.6-1.3-1.3-2.5l-.8-1.2.7-7.4-2.4-2.6-.5-12-2.6-2.9v-13.2l7.7-6.9s0-.7-.1-3.8l-.3-6.1c0-.6-.1-1.3-.1-2-.3-6.4 6.2-12 11.2-15.4 2.5-1.8 5.6-3.3 5.6-3.3l11-22.1 2.4-4.9 2.7-5.3.6-1.2C161.2 10.5 131.4 8.6 128 8.5v43.3h3.3v-.1z"/><path fill="#0E0D0D" d="M146.6 86.8c-1.3-3.4-6.3 1.5-6.3 1.5l.3 6.1c0 .1 7.3-4.2 6-7.6zm-3.2 64.1v-11.3l-4.8-3.7-.7 7.4c.3.3.6.8.8 1.2.7 1.2 1.3 2.5 1.3 2.5l-.5 2.7 3.9 1.2zm-2.4-5.7c-.7 0-1.3-.6-1.3-1.3s.6-1.3 1.3-1.3 1.3.6 1.3 1.3c0 .8-.6 1.3-1.3 1.3zm-.4-6.5c.7 0 1.3.6 1.3 1.3s-.6 1.3-1.3 1.3-1.3-.6-1.3-1.3.6-1.3 1.3-1.3z"/><path fill="#575556" d="M150.8 164.7s9.1-7.2 16.8-8.5l2.9-2.8-3.7-1.8-3 3.1-14.7 6.5-1.5 2.6 3.2.9z"/><path fill="#2A2929" d="M163.5 149.4l-1.2.9c-2.8 1.8-6.1 2.3-6.1 2.3l-1.8-2.4-.5-2.8-3.4-2.2-1.8-8.1-1.8-1.6-1.8 2.2 3.4 3.7-.8 6.4 2.6 2.3 3.8 3.9-10.8-3.3-.9 3 1.5 4.8 1.6 1.2-.4 2.7-8.8-3.3-2.8 15.7 8.9 1.9 4.9-13 1.5-2.6 14.7-6.5 3-3.1 3.7 1.8c1.9-.9 4.1-5.3 4.1-5.3l-6.7-3.2-3.7 3.9c0 .3-.2.5-.4.7z"/><path fill="#646162" d="M150.8 164.7l-3.3-.9-4.9 13.1 3 .6zm25.8-49.2l-2.8 7.5 5.5 1.1 1.4-3.5s-.7-1.3-1.8-2.7c-.6-.8-1.4-1.7-2.3-2.4zm-.6 20.9l2.7-9.8-5.5-1.1-1.8 6-1.7 3.1z"/><path fill="#6D6A6C" d="M174.6 148.1l1.4-11.7-6.3-1.8-1.8 10.3z"/><path fill="#4D4C4D" d="M132 67.3l-1.4 10.1 3.8-1.6 2.1 1.4 1.5-1.4-1.9-4.2.4-14.2 1.5-4-3-4.3-3.7 2.6h-3.1v15.6z"/><path fill="#6D6A6C" d="M130.6 77.4l1.4-10.1h-3.8v14.2h1.9z"/><path fill="#4D4C4D" d="M151.5 70.9s-2.6 7.7-2.7 14.7l.1-.1 4.8-4.1 3.4-13.8c-.1.1-3.1 1.5-5.6 3.3zm.1 6.4c.7 0 1.3.6 1.3 1.3 0 .7-.6 1.3-1.3 1.3s-1.3-.6-1.3-1.3.6-1.3 1.3-1.3zm1.3-1.5c-.7 0-1.3-.6-1.3-1.3 0-.7.6-1.3 1.3-1.3s1.3.6 1.3 1.3c0 .7-.6 1.3-1.3 1.3z"/><circle fill="#D8513E" cx="152.9" cy="74.4" r="1.3"/><circle fill="#D8513E" cx="151.6" cy="78.7" r="1.3"/><circle fill="#D8513E" cx="140.6" cy="140" r="1.3"/><circle fill="#D8513E" cx="141" cy="143.9" r="1.3"/><path fill="#2A2929" d="M178.8 186.8l9.1-6.4h1.3c1.2-2.9 2.3-6 2.3-6l18.5-1.8c-.2-1.3-.3-2.6-.4-4h-16.8s6.5-4.2 16.4-5.4l-.3-4.8-18.9-1.2-11.2 29.6zm26.5-6.9l5.7-.1c-.1-.5-.1-.9-.2-1.3l-5.5 1.4z"/><path fill="#6D6A6C" d="M189.2 180.3l16-.4 5.5-1.5c-.3-2.1-.6-3.8-.7-5 0-.3-.1-.6-.1-.9l-18.5 1.8c.1 0-1 3.1-2.2 6zm20.4-11.7l-.3-5.4c-9.9 1.2-16.4 5.4-16.4 5.4h16.7z"/><path fill="#BCA032" d="M244.5 178.9l-9.9.3c-.2 3.8-.4 7.9-.6 12.2l10.5-12.5zm-39.2 1l-16 .4H188l-9.1 6.4-3.6 2.5-19.5 10.9h-27.5v18.5h26.2l10.5 16.9 21.2-8.6 11.4-17.6 16.9-7.6c-1.3-8.2-2.5-16.3-3.4-22.1l-5.8.3z"/><path fill="#646162" d="M234.5 179.2c.2-4.4.3-8.2.4-11.1v-3.7c-.6-13.4-6.9-16.7-6.9-16.7l-18.5-13.6-7.8-5.8s12.8 13.8 13.1 25.5c.2 7.6 4.2 39.6 7.1 61.1 4.2-4.5 8.1-9.4 11.6-14.5.2-3 .3-6.1.4-9.1.3-4.2.5-8.4.6-12.1z"/><path fill="#575556" d="M214.8 153.8c-.2-11.7-13.1-25.5-13.1-25.5l-2.7 3-3.5 3.9-.1.1s1.7.5 8.1 6.9c3.6 3.6 4.8 9.6 5.3 16.1l.3 4.8.3 5.4c.1 1.4.2 2.7.4 4 0 .3.1.6.1.9.2 1.2.4 2.9.7 5 .1.4.1.9.2 1.3.9 5.8 2.1 13.8 3.4 22.1 1 6.2 2 12.5 2.8 17.9 1.6-1.6 3.2-3.2 4.7-4.9-2.6-21.4-6.7-53.4-6.9-61zM39 56l6.5-1.4-6.8-18.3c-2.3 2.2-4.5 4.5-6.6 6.9l5.4 15.2L39 56z"/><path fill="#4D4C4D" d="M31.8 60.5l4.2.7 1.6-2.7-5.4-15.2c-3.1 3.5-6.1 7.2-8.8 11.1 1.3 4.7 2.5 8.8 3.4 12 1.7-2.1 5-5.9 5-5.9z"/><path fill="#1C1B1B" d="M36.8 75.4l6.4 1.4 4.9-5.5h8.4l1.5 1.8v-5.5l-12.8.7-3.4 5.9-6.7-1.9-10.3 17 3.5.8.1-.8z"/><path fill="#4D4C4D" d="M48.1 71.3v8.1l14.3-1.3-4.4-5-1.5-1.8z"/><path fill="#575556" d="M48.1 79.4L66.2 131c-.4-11.2.5-20.9.5-20.9l1.5-.5-5.7-31.5-14.4 1.3zm8.8 51.9L36.8 81l-10 19.8 19.7 33.3 7.8-5.8z"/><path fill="#4D4C4D" d="M36.8 81v-5.6l-8.4 13.9-.1.8-1.5 10.7z"/><path fill="#2A2929" d="M66.2 131L48.1 79.4v-8.1l-4.8 5.5-6.4-1.4V81L57 131.3l3.5 3.9 5.7-3.6v-.6z"/><path fill="#575556" d="M45.2 68.3l12.8-.7-9.9-13.5-2.6.5L39 56z"/><path fill="#2A2929" d="M35.1 72.3l6.7 1.9 3.4-5.9L39 56l-1.5 2.4-1.6 2.8-4.1-.7z"/><path fill="#575556" d="M31.8 60.5s-3.3 3.8-5 5.9c-.6.7-1.1 1.3-1.1 1.3l-.8 21.7 10.2-17-3.3-11.9z"/><path fill="#1C1B1B" d="M11.5 178.9l9.9.3c-.2-4.4-.3-8.2-.4-11.1v-3.7c-3.5 1.3-8.6 3.4-13.8 6.3 3.8 10.6 8.9 20.6 15.2 29.7-.2-3-.3-6.1-.4-9.1l-10.5-12.4z"/><path fill="#373637" d="M127.8 218.7h-26.2l-10.5 16.9-21.2-8.6-11.4-17.6-7.4 20.9c21.4 16.1 48 25.7 76.9 25.7h.2v-37.3h-.4z"/><path fill="#4D4C4D" d="M41.6 201.9c-1 6.2-2 12.5-2.8 17.9 3.9 3.8 8 7.3 12.3 10.5l7.4-20.9-16.9-7.5z"/><path fill="#2A2929" d="M77.2 186.8l3.6 2.5 19.5 10.9 5-27.5c-4.1-3.6-10-8-14.8-8.8l-8.3-7.6v-.3s-3.5-1.6-4-5.1c-.5-3.4-2.9-21.3-2.9-23.4v-.9c-.9.5-1.8.9-2.7 1.4 1.4 8.9 3.7 20.1 3.7 20.1l-8 1.4c-1.2-5.6-1.8-12-2-17.9-2 1.2-3.9 2.4-5.7 3.6l.1.1s-1.7.5-8.1 6.9c-3.6 3.6-4.8 9.6-5.3 16.1l18.9-1.2 11 29.7z"/><path fill="#373637" d="M122.9 178.3l-.6-3.3-8.9 1.9-3 .6s-2.1-2.2-5.1-4.8l-5 27.5h27.8V179l-5.2-.7z"/><path fill="#4D4C4D" d="M66.2 131v.6c.2 6 .8 12.4 2 17.9l8-1.4S73.9 137 72.5 128c-.7-4.6-1.2-8.6-1.1-10.2l5.6.2c.7-.9 1.5-1.8 2.4-2.5l-.4-6.1-.2-1.1v-1.6l-.1-1-10.7 3.8-1.5.5c.1.1-.7 9.8-.3 21z"/><path fill="#948024" d="M93.8 150.3c-.4-.3-.9-.6-1.2-.9.3.4.8.7 1.2.9zM88.7 120l3.7 7.9 8.7 6.2 4.4 11.3 1.8-8.2-3.8-9.4z"/><path fill="#948024" d="M82.8 112.7l1.8 18.8 1.7 2.6.1.5 1.8 10.3-2.9-44.1 1.1.5 1.4 5.4 18.2 12.8-.6 4.1 5.5-2.4-1-1.9 5.3-4.8-4.3-10.1 1.8-2-5.1-3.7 1.4 3.7-13.8-8.7-4.6 2.8-3.4-1.9-2 1.9s-.8-17.7-.7-30.3c.1-11.5 2.9-19.2 3.4-20.5l-2.4-4.9-10.3 16.5c.3 2.8 3.4 34.2 3.7 48.1l3.9 7.3zm-4-4.3l.2 1.1-.2-2.7c.1.5.1 1.1 0 1.6z"/><path fill="#61360F" d="M92.5 149.4l1.2.9c2.8 1.8 6.1 2.3 6.1 2.3l1.8-2.4.5-2.8 3.4-2.2-4.4-11.3-8.6-6.2-3.7-7.9 14.7 7.8 3.8 9.5 1.8-1.6 1.1-2.2-1.9-4.9 3.1-2.9c.2-1.7.7-3.7 2-5 2.8-2.8 2.5-3.7 2.5-3.7V102l-4.6-5.5-.6-2.8-3.3-3.4c0-1.5-.1-3.1-.3-4.8l-4.8-4.1L99 67.7 88 45.6c-.5 1.3-3.3 9-3.4 20.5-.1 12.6.7 30.3.7 30.3l2-1.9 3.4 1.9 4.6-2.8 13.8 8.7-1.4-3.7 5.1 3.7-1.8 2 4.3 10.1-5.3 4.8 1 1.9-5.5 2.4.6-4.1-18.2-12.8-1.4-5.4-1.1-.5 2.9 44.1 3.7 3.9c.1.3.3.5.5.7z"/><path fill="#424343" d="M82.8 35.4c-7.1 5.9-7.6 19.8-7.6 21.7v.2l10.3-16.6-2.7-5.3z"/><path fill="#373637" d="M86.3 134.1l-1.7-2.6 1.7 3.1zM79 109.4l.4 6.1 2.8 7.5-5.5 1.1-1.4-3.5v6.8c0 2.1 2.4 20 2.9 23.4.5 3.4 4 5.1 4 5.1l-.8-7.9-1.4-11.6-2.8-9.8 5.5-1.1 1.8 6-1.8-18.8-3.9-7.3-.1-.2v.5l.1 1 .2 2.7z"/><path fill="#4D4C4D" d="M90.5 163.8c4.8.9 10.7 5.3 14.8 8.8 3 2.6 5.1 4.8 5.1 4.8l-5.2-12.8s-9.1-7.2-16.8-8.5l-2.9-2.8c-1.9-.9-4.1-5.3-4.1-5.3l.8 7.9v.3l8.3 7.6z"/><path fill="#373637" d="M113.4 153.9l-1.5 4.8-1.6 1.2.4 2.7 8.8-3.3 2.8 15.7.6 3.3 5.3.6v-20.1h-3.5l-2.1-5.7c-1.6 1.4-2.6 3-2.6 3l-3.3-6.3-3.9 1.2.6 2.9z"/><path fill="#0E0D0D" d="M116.7 120.7v-1.8l1.8-2.1v-15l-7.7-8.1.6 2.8 4.6 5.5v14.8s.2 1-2.5 3.7c-1.4 1.4-1.9 3.3-2 5l5.2-4.8z"/><path fill="#4D4C4D" d="M104.5 70.9s2.6 7.7 2.7 14.7l-.1-.1c.2 1.7.3 3.3.3 4.8l3.3 3.4 7.7 8.1v15l-1.8 2.1v1.8l-5.3 4.9-3.1 2.9 1.9 4.9-1.1 2.2 1.8 2.2-3.4 3.7.8 6.4-2.6 2.3-3.8 3.9 10.8-3.3v-11.3l4.8-3.7 2.4-2.6.5-12 2.6-2.9v-13.2l-7.7-6.9s0-.7.1-3.8c0 0-7.3-4.4-6-7.7 1.3-3.4 6.3 1.5 6.3 1.5v.1c0-.6.1-1.3.1-2 .3-6.3-6.2-12-11.2-15.4zm13.6 72.4c-.3.3-.6.8-.8 1.2l.8-1.2zm-5.5 7.6l3.9-1.2z"/><path fill="#0E0D0D" d="M127.8 158.7h.3v-8.2c-2.3 0-4.3 1.2-5.7 2.5l2.1 5.7h3.3z"/><path fill="#2A2929" d="M85.5 40.7l2.4 4.9 11 22.1s3.1 1.5 5.6 3.3c5 3.4 11.5 9 11.2 15.4 0 .7-.1 1.4-.1 2l-.3 6.1c-.1 3.1-.1 3.8-.1 3.8l7.7 6.9v13.2l-2.6 2.9-.5 12-2.4 2.6.7 7.4-.8 1.2c-.7 1.2-1.3 2.5-1.3 2.5l.5 2.7 3.3 6.3s1-1.5 2.6-3c1.5-1.3 3.5-2.5 5.7-2.5v-69h-2.2l-.6-4.1-3.8-1.6-2.1 1.4-1.6-1.4 1.9-4.2-.3-14.3-1.6-3.9 3-4.3 3.7 2.6h3.5V8.4h-.4c-3.5.1-33.2 2.1-45.6 25.7l.6 1.2 2.9 5.4z"/><path fill="#0E0D0D" d="M109.4 86.8c-1.3 3.4 6 7.7 6 7.7l.3-6.1v-.1c-.1 0-5-4.8-6.3-1.5zm3.2 64.1l3.9-1.2-.5-2.7s.6-1.3 1.3-2.5c.3-.4.6-.9.8-1.2l-.7-7.4-4.8 3.7v11.3zm2.8-12.2c.7 0 1.3.6 1.3 1.3s-.6 1.3-1.3 1.3c-.7 0-1.3-.6-1.3-1.3-.1-.7.5-1.3 1.3-1.3zm-.4 3.9c.7 0 1.3.6 1.3 1.3s-.6 1.3-1.3 1.3c-.7 0-1.3-.6-1.3-1.3 0-.7.6-1.3 1.3-1.3z"/><path fill="#373637" d="M108.5 163.8l-1.5-2.6-14.7-6.5-3-3.1-3.7 1.8 2.9 2.8c7.7 1.3 16.8 8.5 16.8 8.5l3.2-.9z"/><path fill="#2A2929" d="M85.5 153.4l3.7-1.8 3 3.1 14.7 6.5 1.5 2.6 4.9 13 8.9-1.9-2.8-15.7-8.8 3.3-.4-2.7 1.6-1.2 1.5-4.8-.9-3-10.8 3.3 3.8-3.9 2.6-2.3-.8-6.4 3.4-3.7-1.8-2.2-1.8 1.6-1.8 8.1-3.4 2.2-.5 2.8-1.8 2.4s-3.3-.6-6.1-2.3c-.4-.3-.9-.6-1.2-.9-.2-.2-.5-.4-.7-.7l-3.7-3.9-6.7 3.2c.3 0 2.5 4.4 4.4 5.3z"/><path fill="#424343" d="M108.5 163.8l-3.3.9 5.2 12.8 3-.6zm-31.8-39.6l5.5-1.1-2.8-7.5c-.9.7-1.7 1.6-2.4 2.5-1.1 1.4-1.8 2.7-1.8 2.7l1.5 3.4zm9.6 10.4l-1.7-3.1-1.8-6-5.5 1.1 2.7 9.8z"/><path fill="#4D4C4D" d="M88.1 144.9l-1.8-10.3-6.3 1.8 1.4 11.7z"/><path fill="#424343" d="M124 67.3h4.2V51.7h-3.5l-3.7-2.6-3 4.3 1.5 4 .4 14.2-1.9 4.2 1.5 1.4 2.1-1.4 3.8 1.6z"/><path fill="#4D4C4D" d="M128.2 75.5v-8.2H124l1.4 10.1.5 4.1h2.3v-2.8z"/><path fill="#373637" d="M107.2 85.6c-.1-6.9-2.6-14.6-2.6-14.6-2.5-1.8-5.6-3.3-5.6-3.3l3.4 13.8 4.8 4.1zm-4.1-6.9c0-.7.6-1.3 1.3-1.3.7 0 1.3.6 1.3 1.3 0 .7-.6 1.3-1.3 1.3s-1.3-.6-1.3-1.3zm-1.3-4.3c0-.7.6-1.3 1.3-1.3.7 0 1.3.6 1.3 1.3 0 .7-.6 1.3-1.3 1.3-.7.1-1.3-.5-1.3-1.3z"/><circle fill="#D8513E" cx="103.1" cy="74.4" r="1.3"/><circle fill="#D8513E" cx="104.4" cy="78.7" r="1.3"/><circle fill="#D8513E" cx="115.4" cy="140" r="1.3"/><circle fill="#D8513E" cx="115" cy="143.9" r="1.3"/><path fill="#1C1B1B" d="M50.7 179.9l-5.5-1.5c-.1.4-.1.9-.2 1.3l5.7.2zm16.1.4h1.3l9.1 6.4L66 157.1l-18.9 1.2-.3 4.8c9.9 1.2 16.4 5.4 16.4 5.4H46.4c-.1 1.4-.2 2.7-.4 4l18.5 1.8s1.1 3.1 2.3 6z"/><path fill="#4D4C4D" d="M46.8 163.1l-.3 5.4h16.8c-.1.1-6.7-4.1-16.5-5.4zm3.9 16.8l16 .4c-1.2-2.9-2.3-6-2.3-6l-18.5-1.8c0 .3-.1.6-.1.9-.2 1.2-.4 2.9-.7 5l5.6 1.5z"/><path fill="#948024" d="M128.2 209.4v-9.3h-27.8l-19.5-10.9-3.6-2.5-9.1-6.4h-1.3l-16-.4-5.7-.1c-.9 5.8-2.1 13.8-3.4 22.1l16.9 7.6L69.9 227l21.2 8.6 10.5-16.9h26.5v-7.3l.1-2zM22 191.4c-.2-4.3-.4-8.4-.6-12.2l-9.9-.3L22 191.4z"/><path fill="#4D4C4D" d="M41.2 153.8c.2-11.7 13.1-25.5 13.1-25.5l-7.8 5.8L28 147.7s-6.3 3.3-6.9 16.7c-.1 1.2-.1 2.4 0 3.7.1 2.9.2 6.7.4 11.1.2 3.8.4 7.9.6 12.2.1 3 .3 6 .4 9.1 3.5 5.1 7.4 10 11.6 14.5 2.8-21.6 6.9-53.6 7.1-61.2z"/><path fill="#424343" d="M45 179.8c.1-.5.1-.9.2-1.3.3-2.1.6-3.8.7-5 0-.3.1-.6.1-.9.2-1.3.3-2.6.4-4l.3-5.4.3-4.8c.6-6.5 1.7-12.5 5.3-16.1 6.5-6.5 8.1-6.9 8.1-6.9l-.1-.1-3.5-3.9-2.7-3S41.3 142.2 41 153.9c-.2 7.6-4.2 39.6-7.1 61.1 1.5 1.7 3.1 3.3 4.7 4.9.9-5.4 1.8-11.7 2.8-17.9 1.5-8.4 2.8-16.5 3.6-22.2z"/></svg>