<svg xmlns="http://www.w3.org/2000/svg" width="256" height="256"><circle fill="#B1B3B5" cx="128" cy="128" r="128"/><path fill="#3A3733" d="M170.1 152.1c0-2.4-1.5-6.7-1.5-6.7l.1-.2c-.3.8-.7 1.6-1 2.4.4 2 1.1 4.5 1.9 7.1.2-1 .5-1.9.5-2.6z"/><path fill="#3B5460" d="M155.2 176.7c5.7-2.9 7.4-4.8 7.4-4.8s1.9-6.7 3.6-9.8c1.2-2.2 2.6-5 3.3-7.4-.8-2.7-1.5-5.1-1.9-7.1-.4.9-.9 1.8-1.3 2.7 1 1.6.8 2 1.3 2.1.6.1-1 1.4-1 1.4s.5 1.2.1 1c-.4-.2-1.9-.3-1.9 0s.4 1.8 0 2c-.4.2-1.1-1-1.3 0l-.7 3.5-2.2.6s-.4.2-.9.5c-.4.5-.8 1-1.2 1.6.3.6.5.5-.1 1.5-.5.9-1.1.3-1.3.1l-.1.1-.1.4c.5-.4-.3 1.5-.3 1.5l.3-1.5c-.2.1-.6.6-1.3 1.5-2 2.7-2.1 2-2 1.4-.2.1-.3.3-.5.4l-1.7 2.2.1-1c-.7.5-1.3.9-2.1 1.4l-.5.7-.4.6-2.8 2.5.2-1.9c-.2.1-.3.2-.5.2l-2.3 1.7-.1-.7c-.8.3-1.7.6-2.6.8l-.6.4v-.3l-1.2.3-1.1 1.2.1-.9-1.5.3-1 .7-.1-.5c-1 .1-2 .3-3.1.4l-.3.1-.1-.1c-1.1.1-2.3.1-3.5.1-.2.2-.3.4-.5.6v12.3s17.6-1 23.1-5.3c.5.2-1.1-4.6 4.6-7.5zm19.8-55.9c3.9-.4 7-3.6 8-4.8 1.1-1.4 2.2-3.5 2.1-5.6-.2-2.1.5-3.5.8-4.5.3-1 0-3.8 1.8-6.2 1.8-2.4 3.7-9.7 4.2-12.5.5-2.7-1.1-6.7-1.1-6.7l-2.4-1c-2.4-1-3 .3-4.6 1.8-.8.7-2.4 1.4-3.9 2-1.1 6.3-2.3 12.9-2.3 16.5-.1 3-1.5 12.9-2.6 21z"/><path fill="#4A6775" d="M141.4 140s-1 1-1.4 2.6c-.5 1.7-.8 2.5-.4 3.2.5.7.8 2.2.8 2.2s0 .4 1 2.3.7 1 2.3 1.1 2.3.2 4-.8.4-1.6 2.8-1.7 3.4-1.2 4.1-2.2 1.8-2 1.8-2 1.8 1.6 4.8 2.6 2.8-.4 4.6 2c.3.4.5.7.7 1 .4-.9.8-1.8 1.3-2.7.4-.8.7-1.6 1-2.4l1.4-3.5c1.8-4.6 3.3-9.4 3.8-12.9.3-2.1.7-4.9 1.1-8 1.1-8.1 2.5-18 2.5-20.9 0-3.7 1.2-10.2 2.3-16.5.1-.7.3-1.4.4-2.2 1.2-6.9 2.4-12.2 2.9-24.7s-11-26.8-16.3-31.4c-5.3-4.6-14.1-10.1-16.5-12.5-2.1-2.1-3.1-1.8-4.9-.5-.7 6.7-6.4 12.6-6.4 12.6-4.5 1.8-10.9 1.1-10.9 1.1v112.1c-.2.2 9.2-.7 13.2 2.1zm-2.6-68.1c-.8 1.5 2.2 2.6 2.2 2.6.3-.3.4-.7.6-1 0-.2.2-.5.2-.5s-.1.2-.2.5c0 .3.2.6 1 .7 1.6.4 3.4-.4 3.4-.4s1.4-1.2 5.7-2.2c1.5-.3 5.7.6 5.7.6l-2.6.5c2.6-.5 4.2 1 6.9 1.9 2.1.7 4.3 2.4 5.4 2.9.4 0 .8 0 .6.2-.1.1-.3 0-.6-.2-.7 0-1.8.2-1.8.2l1.7 2.4s-3.1-1.9-4.4-2-6.6-2.8-6.6-2.8l2.2 1.4s-2.8-.2-3.5-1-3.5 0-3.5 0l1.3.6s-3.1-.1-7.9 1.2c-4.8 1.3-6.9 0-6.9 0-3.4-2 1.1-5.6 1.1-5.6zm18.4 92.8l.1-.1-.1-.1v.2zm1.4-1.9c0 .1.1.1.1.1.4-.5.8-1.1 1.2-1.6-.8.5-1.5 1.1-1.3 1.5zM139 175.6l1.2-.3v-.9l-1.2 1.2zm1.7-.5c.9-.3 1.7-.5 2.6-.8l-.1-1-2.5 1.8zm8.9-3.9c.7-.4 1.4-.9 2.1-1.4l.2-1.7-2.3 3.1zm3.7-2.7c.2-.1.4-.3.5-.4 0-.2.1-.3.1-.3l-.6.7zm-16.9 7.6l1.5-.3.1-.7-1.6 1zm-7.9.7c1.2 0 2.4-.1 3.5-.1l-.9-1.8c-.1-.1-1.6.6-2.6 1.9zm17.2-3.5c.2-.1.4-.2.5-.2v-.1l-.5.3zm-13.5 3.3c1.1-.1 2.1-.2 3.1-.4l-.3-1.2-2.8 1.6z"/><path fill="#3B5460" d="M137.6 77.6s2.2 1.3 6.9 0c4.8-1.3 7.9-1.2 7.9-1.2l-1.3-.6s2.8-.8 3.5 0 3.5 1 3.5 1l-2.2-1.4s5.3 2.6 6.6 2.8 4.4 2 4.4 2l-1.7-2.4s1-.1 1.8-.2c-1.1-.6-3.2-2.2-5.4-2.9-2.8-1-4.3-2.4-6.9-1.9l2.6-.5s-4.3-.9-5.7-.6c-4.3 1-5.7 2.2-5.7 2.2s-1.8.7-3.4.4c-.8-.2-1-.5-1-.7-.1.3-.3.7-.6 1 0 0-3-1.1-2.2-2.6.1-.1-4.4 3.5-1.1 5.6z"/><path fill="#3B5460" d="M141.5 73.5c.1-.3.2-.5.2-.5s-.2.2-.2.5zm26.2 4.3c.1-.1-.2-.2-.6-.2.3.2.5.3.6.2z"/><path fill="#5E7075" d="M157.1 165.1l-.3 1.5c0 .1.9-1.8.3-1.5z"/><path fill="#5E7075" d="M128 152.9v24.5c.1-.2.3-.4.5-.6 1.1-1.2 2.6-1.9 2.6-1.9l.9 1.8.1.1.3-.1 2.9-1.5.3 1.2.1.5 1-.7 1.5-1-.1.7-.1.9 1.1-1.2 1.2-1.2v1.2l.6-.4 2.4-1.8.1 1 .1.7 2.3-1.7.5-.4v.1l-.2 1.9 2.8-2.5.4-.6.5-.7 2.2-3.1-.2 1.7-.1 1 1.7-2.2.6-.8s0 .2-.1.3c-.1.5 0 1.3 2-1.4.7-1 1.1-1.4 1.3-1.5l.1-.4v-.2l.1.1c.2.2.8.8 1.3-.1.6-1 .4-1 .1-1.5l-.1-.1c-.2-.4.6-1 1.2-1.4.5-.3.9-.5.9-.5l2.2-.6.7-3.5c.2-1 1 .2 1.3 0 .4-.2 0-1.7 0-2 0-.3 1.6-.3 1.9 0 .4.2-.1-1-.1-1s1.6-1.3 1-1.4c-.5-.1-.3-.6-1.3-2.1-.2-.3-.4-.6-.7-1-1.8-2.4-1.6-1.1-4.6-2-3-1-4.8-2.6-4.8-2.6s-1.1 1-1.8 2-1.7 2-4.1 2.2-1.1.6-2.8 1.7-2.4 1-4 .8-1.3.8-2.3-1.1c-1-1.9-1-2.3-1-2.3s-.4-1.4-.8-2.2c-.5-.7-.1-1.6.4-3.2.5-1.7 1.4-2.6 1.4-2.6-4.1-2.8-13.4-1.9-13.4-1.9v14.6z"/><path fill="#896563" d="M132.5 22.3H128V26s6.5.6 10.9-1.1c-1-10.9 1.8-22.5 1.8-22.5s-1.1-1-3.2-2c-.5 0-.9-.1-1.4-.1-3.3 6.3-3.6 22-3.6 22z"/><path fill="#6B4D4C" d="M145.3 12.2l-4.6-9.9s-2.8 11.7-1.8 22.5c0 0 5.7-5.9 6.4-12.6z"/><path fill="#A98080" d="M128 22.3h4.5V.1c-1.5-.1-3-.1-4.5-.1v22.3z"/><path fill="#775655" d="M132.5 22.3s.3-15.7 3.7-22c-1.2-.1-2.5-.1-3.7-.2v22.2z"/><path fill="#8D847E" d="M168.7 145.3l-.1.2s1.5 4.3 1.5 6.7c0 .7-.2 1.7-.5 2.7-.7 2.4-2.1 5.2-3.3 7.4-1.7 3.1-3.6 9.8-3.6 9.8s-1.7 1.9-7.4 4.8-4.1 7.7-4.1 7.7c-5.5 4.3-23.1 5.3-23.1 5.3v37.6s9.8-15.7 18.9-23.4c17.8-16.9 21.2-34.2 21.2-34.2l.3.5c2.8-11.1 7-21.7 7.1-21.8-.1-.2-.2-.5-.2-.7-.6-1.2-1.2-2.4-1.9-3.3-1.5-1.8-3.2-2.7-3.2-2.7l-.1.2-1.5 3.2z"/><path fill="#524E4A" d="M168.5 192.4c.1 0 .1-.1.2-.1.5-.7 1-1.3 1.5-2-.7.7-1.3 1.5-1.7 2.1zm0-22.3l-.3-.5s-3.4 17.4-21.2 34.2c1.4-1.2 2.9-2.2 4.2-2.9 7.5-3.9 14-6.9 16.8-8.2-3-4.1-1.8-13.5.5-22.6z"/><path fill="#483A42" d="M152.7 210c3.1-2 9.8-9.7 15.4-16.9-.1-.1-.2-.3-.3-.4-2.8 1.3-9.2 4.3-16.8 8.2-1.4.7-2.8 1.7-4.2 2.9-9.1 7.7-18.9 23.4-18.9 23.4V256c8.7 0 17.2-.9 25.5-2.5-1.6-10.8-3.2-21.3-3.6-24.3-.9-6.9-2.3-15.8 2.9-19.2zm15.5-16.9c.2-.3.4-.5.6-.8-.1 0-.1.1-.2.1-.3.4-.4.7-.4.7z"/><path fill="#48251F" d="M204.9 183.3c5 7.7 9.8 14.9 9.8 14.9s-2.7 4.5-9.3 5.6c-2.8.5-10.6 1.6-19.1 2.8-.2 8.5.6 21.4 1.8 34.5 19.8-10.6 36.6-26.2 48.4-45.2-5.8-2.4-11.7-4.8-16.8-6.8-5.2-2.1-10.4-4.1-14.8-5.8zm-44.8 27.3c-.1 0-.3.1-.4.1-6.1 1.4-10.1 3.2-9.1 13.9.4 4.8 2.4 16.8 4.3 28.6 3-.7 6-1.4 9-2.3-1.5-10.6-2.9-20.2-3.4-23.9-.8-5.8-.6-12.1-.4-16.4z"/><path fill="#573A39" d="M186.3 206.5c-10.7 1.5-22.3 3.2-26.2 4-.3 4.3-.4 10.7.4 16.4.5 3.7 1.9 13.3 3.4 23.9 1.6-.5 3.1-.9 4.6-1.4-1.5-.9-2.4-2.6-2.4-4.4 0-2.9 2.4-5.3 5.3-5.3s5.3 2.4 5.3 5.3c0 .5-.1 1-.2 1.5 4-1.6 7.9-3.5 11.7-5.5-1.3-13.1-2.1-26-1.9-34.5z"/><path fill="#77513C" d="M159.7 210.7c.1 0 .3-.1.4-.1 3.9-.8 15.5-2.5 26.2-4 8.4-1.2 16.2-2.3 19.1-2.8 6.5-1.1 9.3-5.6 9.3-5.6s-4.8-7.2-9.8-14.9c-1.8-2.8-3.6-5.6-5.3-8.2-6.2-9.9-26.3-30.8-26.3-30.8.7.9 1.4 2.1 1.9 3.3.1.3.2.5.3.8 9.1 6.1 27 34.9 27 34.9-1.4 2.4-5 4.1-9.8 4s-12 4.9-12 4.9-3.3-.2-6.7-2.2c-1.5-.9-2.8-.4-3.8.4-.5.7-1 1.3-1.5 2-.2.3-.4.5-.6.8-5.7 7.2-12.3 15-15.4 16.9-5.3 3.4-3.8 12.3-2.9 19.2.4 3 2 13.5 3.6 24.3l1.5-.3c-2-11.8-3.9-23.8-4.3-28.6-.9-10.8 3.1-12.6 9.1-14z"/><path fill="#3E1B18" d="M175.5 148.2c0 .1-4.3 10.7-7.1 21.8-2.3 9.1-3.5 18.5-.6 22.6.1.1.2.3.3.4 0 0 .1-.3.4-.7.4-.6 1-1.4 1.8-2.1 1-.8 2.3-1.3 3.8-.4 3.4 2 6.7 2.2 6.7 2.2s7.2-5 12-4.9 8.4-1.6 9.8-4c0 0-17.9-28.8-27-34.9 0 .1 0 .1-.1 0z"/><path fill="#6C645E" d="M171.4 239.7c-2.9 0-5.3 2.4-5.3 5.3 0 1.9 1 3.5 2.4 4.4 2.7-.9 5.3-1.9 7.8-2.9.1-.5.2-1 .2-1.5.2-2.9-2.2-5.3-5.1-5.3z"/><path fill="#573A39" d="M204.9 183.3c.1 0 6.4 2.4 14.9 5.8 5.1 2 10.9 4.4 16.8 6.8.8-1.3 1.6-2.6 2.3-3.9-17-6.6-38.6-16-38.6-16l4.6 7.3z"/><path fill="#3A3733" d="M87.3 145.3l.1.2s-1.5 4.3-1.5 6.7c0 .7.2 1.7.5 2.7.8-2.7 1.5-5.1 1.9-7.1-.3-.9-.6-1.7-1-2.5z"/><path fill="#2F4752" d="M127.5 176.8c-1.2 0-2.4-.1-3.5-.1l-.1.1-.3-.1c-1.1-.1-2.1-.2-3.1-.4l-.1.5-1-.7-1.5-.3.1.9-1.1-1.2-1.2-.3v.3l-.6-.4c-.9-.3-1.7-.5-2.6-.8l-.1.7-2.3-1.7c-.2-.1-.4-.2-.5-.2l.2 1.9-2.8-2.5-.4-.6-.5-.7c-.7-.4-1.4-.9-2.1-1.4l.1 1-1.7-2.2c-.2-.1-.4-.3-.5-.4.1.5 0 1.3-2-1.4-.7-1-1.1-1.4-1.3-1.5l.3 1.5s-.9-1.9-.3-1.5l-.1-.4-.1-.1c-.2.2-.8.8-1.3-.1-.6-1-.4-1-.1-1.5-.4-.5-.8-1.1-1.2-1.6-.5-.3-.9-.5-.9-.5l-2.2-.6-.7-3.5c-.2-1-1 .2-1.3 0-.4-.2 0-1.7 0-2 0-.3-1.6-.3-1.9 0-.4.2.1-1 .1-1s-1.6-1.3-1-1.4c.5-.1.3-.6 1.3-2.1-.4-.9-.8-1.8-1.3-2.7-.4 2-1.1 4.5-1.9 7.1.7 2.4 2.1 5.2 3.3 7.4 1.7 3.1 3.6 9.8 3.6 9.8s1.7 1.9 7.4 4.8 4.1 7.7 4.1 7.7c5.5 4.3 23.1 5.3 23.1 5.3v-12.3c.4-.5.2-.7 0-.8zM76.3 83.3c-1.5-.6-3.1-1.3-3.9-2-1.6-1.4-2.2-2.7-4.6-1.8s-2.4 1-2.4 1-1.6 4-1.1 6.7 2.4 10.1 4.2 12.5c1.8 2.4 1.4 5.3 1.8 6.2.3 1 1 2.4.8 4.5-.2 2.1 1 4.2 2.1 5.6 1 1.2 4.1 4.4 8 4.8-1.1-8.1-2.5-18-2.5-20.9-.2-3.7-1.3-10.2-2.4-16.6z"/><path fill="#3B5460" d="M87.3 145.3c.3.8.7 1.6 1 2.4.4.9.9 1.8 1.3 2.7.2-.3.4-.6.7-1 1.8-2.4 1.6-1.1 4.6-2 3-1 4.8-2.6 4.8-2.6s1.1 1 1.8 2 1.7 2 4.1 2.2 1.1.6 2.8 1.7 2.4 1 4 .8 1.3.8 2.3-1.1c1-1.9 1-2.3 1-2.3s.4-1.4.8-2.2c.5-.7.1-1.6-.4-3.2-.5-1.7-1.4-2.6-1.4-2.6 4.1-2.8 13.4-1.9 13.4-1.9V25.9s-6.5.6-10.9-1.1c0 0-5.7-6-6.4-12.6-1.7-1.3-2.7-1.6-4.9.5-2.4 2.4-11.3 7.9-16.5 12.5C84 29.7 72.5 44.1 73 56.5c.5 12.5 1.7 17.7 2.9 24.7.1.7.2 1.4.4 2.2 1.1 6.3 2.3 12.9 2.3 16.5 0 2.9 1.4 12.8 2.5 20.9.4 3.1.8 6 1.1 8 .5 3.5 2 8.3 3.8 12.9l1.3 3.6zM89 77.7c1.1-.6 3.2-2.2 5.4-2.9 2.8-1 4.3-2.4 6.9-1.9l-2.6-.5s4.3-.9 5.7-.6c4.3 1 5.7 2.2 5.7 2.2s1.8.7 3.4.4c.8-.2 1-.5 1-.7-.1-.3-.2-.5-.2-.5s.2.2.2.5c.1.3.3.7.6 1 0 0 3-1.1 2.2-2.6 0 0 4.6 3.7 1.2 5.7 0 0-2.2 1.3-6.9 0-4.8-1.3-7.9-1.2-7.9-1.2l1.3-.6s-2.8-.8-3.5 0-3.5 1-3.5 1l2.2-1.4s-5.3 2.6-6.6 2.8-4.4 2-4.4 2l1.7-2.4c-.2-.2-1.2-.3-1.9-.3-.3.2-.5.2-.6.2-.2-.2.1-.3.6-.2zm7.2 83.7c.4.5.8 1 1.2 1.6l.1-.1c.1-.5-.6-1.1-1.3-1.5zm8.1 8.4c.7.5 1.3.9 2.1 1.4l-2.2-3.1.1 1.7zm8.4 4.5c.8.3 1.7.6 2.6.8l-2.4-1.8-.2 1zm-2.9-1.3c.2.1.3.2.5.2l-.5-.4v.2zm-7.6-4.9c.2.1.3.3.5.4l-.6-.8c0 .1.1.2.1.4zm13.7 7.2l1.2.3-1.2-1.2v.9zm4.8.9c1 .1 2 .3 3.1.4l-2.9-1.5-.2 1.1zm-2.6-.4l1.5.3-1.5-1v.7zm-19.4-11.2l.1.1-.1-.1c.1-.1 0 0 0 0zm26.3 10.2l-.9 1.8c1.1.1 2.3.1 3.5.1-1.1-1.2-2.6-1.9-2.6-1.9z"/><path fill="#2F4752" d="M89.1 80.2s3.1-1.9 4.4-2 6.6-2.8 6.6-2.8l-2.2 1.4s2.8-.2 3.5-1 3.5 0 3.5 0l-1.3.6s3.1-.1 7.9 1.2c4.8 1.3 6.9 0 6.9 0 3.4-2-1.2-5.7-1.2-5.7.8 1.5-2.2 2.6-2.2 2.6-.3-.3-.4-.7-.6-1 0 .3-.2.6-1 .7-1.6.4-3.4-.4-3.4-.4s-1.4-1.2-5.7-2.2c-1.5-.3-5.7.6-5.7.6l2.6.5c-2.6-.5-4.2 1-6.9 1.9-2.1.7-4.3 2.4-5.4 2.9.7 0 1.8.2 1.8.2l-1.6 2.5z"/><path fill="#2F4752" d="M89 77.7c-.4 0-.8 0-.6.2 0 0 .2-.1.6-.2zm25.5-4.2c0-.2-.2-.5-.2-.5s.1.2.2.5z"/><path fill="#4C5D60" d="M99.2 166.7l-.3-1.5c-.6-.4.3 1.5.3 1.5z"/><path fill="#4C5D60" d="M88.3 152.4c-.6.1 1 1.4 1 1.4s-.5 1.2-.1 1c.4-.2 1.9-.3 1.9 0s-.4 1.8 0 2c.4.2 1.1-1 1.3 0l.7 3.5 2.2.6s.4.2.9.5c.7.4 1.5 1 1.2 1.4 0 .1-.1.1-.1.1-.3.6-.5.5.1 1.5.5.9 1.1.3 1.3.1l.1-.1v.2l.1.4c.2.1.6.6 1.3 1.5 2 2.7 2.1 2 2 1.4 0-.2-.1-.3-.1-.3l.6.8 1.7 2.2-.1-1-.2-1.7 2.2 3.1.5.7.4.6 2.8 2.5-.2-1.9v-.1l.5.4 2.3 1.7.1-.7.1-1 2.4 1.8.6.4v-1.2l1.2 1.2 1.1 1.2-.1-.9-.1-.7 1.5 1 1 .7.1-.5.3-1.2 2.9 1.5.3.1.1-.1.9-1.8s1.5.7 2.6 1.9c.2.2.3.4.5.6v-39.3s-9.4-.8-13.4 1.9c0 0 1 1 1.4 2.6.5 1.7.8 2.5.4 3.2-.5.7-.8 2.2-.8 2.2s0 .4-1 2.3-.7 1-2.3 1.1-2.3.2-4-.8-.4-1.6-2.8-1.7-3.4-1.2-4.1-2.2-1.8-2-1.8-2-1.8 1.6-4.8 2.6-2.8-.4-4.6 2c-.3.4-.5.7-.7 1-.9 1.8-.8 2.2-1.3 2.3z"/><path fill="#775655" d="M117.1 24.8c4.5 1.8 10.9 1.1 10.9 1.1v-3.7h-4.5s-.3-15.7-3.7-22c-.5 0-.9.1-1.4.1-2.1 1-3.2 2-3.2 2s2.9 11.7 1.9 22.5z"/><path fill="#5C4241" d="M115.3 2.3l-4.6 9.9c.7 6.7 6.4 12.6 6.4 12.6 1-10.8-1.8-22.5-1.8-22.5z"/><path fill="#896563" d="M123.5 22.3h4.5V0c-1.5 0-3 0-4.5.1v22.2z"/><path fill="#6B4D4C" d="M123.5 22.3V.1c-1.2 0-2.5.1-3.7.2 3.4 6.3 3.7 22 3.7 22z"/><path fill="#6F6963" d="M80.5 148.2c0 .1 4.3 10.7 7.1 21.8l.3-.5s3.4 17.4 21.2 34.2c9.1 7.7 18.9 23.4 18.9 23.4v-37.6s-17.6-1-23.1-5.3c0 0 1.7-4.8-4.1-7.7-5.7-2.9-7.4-4.8-7.4-4.8s-1.9-6.7-3.6-9.8c-1.2-2.2-2.6-5-3.3-7.4-.3-1-.5-1.9-.5-2.7 0-2.4 1.5-6.7 1.5-6.7l-.1-.2-1.4-3.5-.1-.2s-1.6.8-3.2 2.7c-.7.9-1.4 2.1-1.9 3.3-.2.6-.3.8-.3 1z"/><path fill="#3D3936" d="M85.7 190.3c.5.7 1 1.3 1.5 2 .1 0 .1.1.2.1-.3-.6-.9-1.4-1.7-2.1zm2.2-20.7l-.3.5c2.3 9.1 3.5 18.5.6 22.6 2.8 1.3 9.2 4.3 16.8 8.2 1.4.7 2.8 1.7 4.2 2.9-17.9-16.8-21.3-34.2-21.3-34.2z"/><path fill="#2F242B" d="M128 227.3s-9.8-15.7-18.9-23.4c-1.4-1.2-2.9-2.2-4.2-2.9-7.5-3.9-14-6.9-16.8-8.2-.1.1-.2.3-.3.4 5.7 7.2 12.3 15 15.4 16.9 5.3 3.4 3.8 12.3 2.9 19.2-.4 3-2 13.5-3.6 24.3 8.2 1.7 16.7 2.5 25.5 2.5v-28.8z"/><path fill="#2F242B" d="M87.5 192.4c-.1 0-.1-.1-.2-.1.2.3.4.5.6.8-.1 0-.2-.3-.4-.7z"/><path fill="#3E1B18" d="M69.7 206.5c-8.4-1.2-16.2-2.3-19.1-2.8-6.5-1.1-9.3-5.6-9.3-5.6s4.8-7.2 9.8-14.9c-4.4 1.7-9.5 3.7-14.9 5.8-5.1 2-10.9 4.4-16.8 6.8 11.9 19 28.6 34.6 48.4 45.2 1.3-13.1 2.1-26 1.9-34.5zm26.6 4.2c-.1 0-.3-.1-.4-.1.3 4.3.4 10.7-.4 16.4-.5 3.7-1.9 13.3-3.4 23.9 3 .9 6 1.6 9 2.3 2-11.8 3.9-23.8 4.3-28.6.9-10.7-3.1-12.5-9.1-13.9z"/><path fill="#412828" d="M95.9 210.6c-3.9-.8-15.5-2.5-26.2-4 .2 8.5-.6 21.4-1.8 34.5 3.8 2 7.7 3.8 11.7 5.5-.1-.5-.2-1-.2-1.5 0-2.9 2.4-5.3 5.3-5.3s5.3 2.4 5.3 5.3c0 1.9-1 3.5-2.4 4.4 1.5.5 3.1 1 4.6 1.4 1.5-10.6 2.9-20.2 3.4-23.9.7-5.8.5-12.1.3-16.4z"/><path fill="#543826" d="M103.3 210c-3.1-2-9.8-9.7-15.4-16.9-.2-.3-.4-.5-.6-.8-.5-.7-1-1.3-1.5-2-1-.8-2.3-1.3-3.8-.4-3.4 2-6.7 2.2-6.7 2.2s-7.2-5-12-4.9-8.4-1.6-9.8-4c0 0 17.9-28.8 27-34.9.1-.3.2-.5.3-.8.6-1.2 1.2-2.4 1.9-3.3 0 0-20.1 20.9-26.3 30.8-1.6 2.6-3.5 5.5-5.3 8.2-5 7.7-9.8 14.9-9.8 14.9s2.7 4.5 9.3 5.6c2.8.5 10.6 1.6 19.1 2.8 10.7 1.5 22.3 3.2 26.2 4 .1 0 .3.1.4.1 6.1 1.4 10.1 3.2 9.1 13.9-.4 4.8-2.4 16.8-4.3 28.6l1.5.3c1.6-10.8 3.2-21.3 3.6-24.3.9-6.8 2.3-15.7-2.9-19.1z"/><path fill="#2E0D06" d="M87.5 170.1c-2.8-11.1-7-21.7-7.1-21.8 0 0-.1 0-.1.1-9.1 6.1-27 34.9-27 34.9 1.4 2.4 5 4.1 9.8 4s12 4.9 12 4.9 3.3-.2 6.7-2.2c1.5-.9 2.8-.4 3.8.4.8.6 1.4 1.5 1.8 2.1.2.4.4.7.4.7.1-.1.2-.3.3-.4 2.9-4.2 1.7-13.6-.6-22.7z"/><path fill="#5B5550" d="M89.8 245c0-2.9-2.4-5.3-5.3-5.3s-5.3 2.4-5.3 5.3c0 .5.1 1 .2 1.5 2.6 1.1 5.2 2 7.8 2.9 1.7-.9 2.6-2.5 2.6-4.4z"/><path fill="#412828" d="M51.1 183.3l4.7-7.3s-21.6 9.3-38.6 16c.8 1.3 1.5 2.6 2.3 3.9 5.8-2.4 11.7-4.8 16.8-6.8 8.4-3.4 14.7-5.8 14.8-5.8z"/></svg>